<?xml version="1.0" encoding="UTF-8" standalone="no"?>
<svg version="1.1">
<g
style="fill:none;stroke:#000000;stroke-opacity:1;stroke-width:0.1">
<path d="M 18.9997 0.100282 L 18.9992 0.171709 L 18.9984 0.243133 L 18.9974 0.314554 L 18.9961 0.38597 L 18.9945 0.457381 L 18.9926 0.528786 L 18.9905 0.600183 L 18.9881 0.671571 L 18.9855 0.74295 L 18.9825 0.814319 L 18.9793 0.885676 L 18.9759 0.95702 L 18.9722 1.02835 L 18.9682 1.09967 L 18.9639 1.17097 L 18.9593 1.24225 L 18.9545 1.31352 L 18.9495 1.38477 L 18.8751 1.42206 L 18.8006 1.45934 L 18.726 1.49661 L 18.6513 1.53387 L 18.5765 1.57113 L 18.5017 1.60838 L 18.4267 1.64562 L 18.3516 1.68285 L 18.2764 1.72007 L 18.2011 1.75728 L 18.1257 1.79448 L 18.0502 1.83167 L 17.9745 1.86885 L 17.8988 1.90602 L 17.823 1.94317 L 17.747 1.98031 L 17.6709 2.01744 L 17.5947 2.05456 L 17.5184 2.09166 L 17.442 2.12875 L 17.3655 2.16583 L 17.2888 2.20289 L 17.212 2.23993 L 17.1351 2.27696 L 17.0581 2.31397 L 16.9809 2.35096 L 16.9036 2.38794 L 16.8262 2.4249 L 16.7486 2.46183 L 16.6709 2.49875 L 16.5931 2.53565 L 16.5151 2.57253 L 16.437 2.60938 L 16.3588 2.64622 L 16.2804 2.68303 L 16.2019 2.71981 L 16.1232 2.75658 L 16.0444 2.79331 L 15.9654 2.83002 L 15.8863 2.86671 L 15.807 2.90336 L 15.7276 2.93999 L 15.7276 2.93999 L 15.7884 3.00284 L 15.8491 3.06566 L 15.9096 3.12845 L 15.97 3.19121 L 16.0302 3.25394 L 16.0903 3.31664 L 16.1502 3.37931 L 16.21 3.44195 L 16.2697 3.50456 L 16.3292 3.56714 L 16.3886 3.62969 L 16.4478 3.69221 L 16.5069 3.7547 L 16.5659 3.81717 L 16.6248 3.8796 L 16.6835 3.942 L 16.7421 4.00437 L 16.8005 4.06671 L 16.8589 4.12902 L 16.9171 4.1913 L 16.9752 4.25355 L 17.0332 4.31578 L 17.091 4.37797 L 17.1488 4.44013 L 17.2064 4.50226 L 17.264 4.56437 L 17.3214 4.62644 L 17.3787 4.68849 L 17.4359 4.7505 L 17.4929 4.81249 L 17.5499 4.87445 L 17.6068 4.93637 L 17.6636 4.99827 L 17.7202 5.06014 L 17.7768 5.12199 L 17.8333 5.1838 L 17.8897 5.24558 L 17.9459 5.30734 L 18.0021 5.36907 L 18.0582 5.43077 L 18.1142 5.49244 L 18.1701 5.55408 L 18.1491 5.62235 L 18.1278 5.69054 L 18.1063 5.75865 L 18.0845 5.82668 L 18.0625 5.89462 L 18.0402 5.96248 L 18.0177 6.03026 L 17.9949 6.09796 L 17.9718 6.16556 L 17.9485 6.23308 L 17.9249 6.30051 L 17.9011 6.36786 L 17.8771 6.43511 L 17.8527 6.50227 L 17.8282 6.56934 L 17.8034 6.63631 L 17.7783 6.7032 L 17.753 6.76999 L 17.6805 6.95701 L 17.6542 7.02342 L 17.6277 7.08974 L 17.6009 7.15596 L 17.5739 7.22208 L 17.5466 7.2881 L 17.5191 7.35401 L 17.4913 7.41982 L 17.4633 7.48552 L 17.435 7.55112 L 17.4065 7.61661 L 17.3778 7.682 L 17.3488 7.74727 L 17.3195 7.81244 L 17.29 7.8775 L 17.2603 7.94244 L 17.2303 8.00727 L 17.2001 8.07199 L 17.1696 8.1366 L 17.0868 8.14449 L 17.0039 8.15235 L 16.9208 8.16016 L 16.8377 8.16793 L 16.7545 8.17565 L 16.6713 8.18334 L 16.5879 8.19097 L 16.5044 8.19856 L 16.4209 8.20611 L 16.3372 8.2136 L 16.2534 8.22105 L 16.1696 8.22845 L 16.0856 8.2358 L 16.0016 8.2431 L 15.9175 8.25035 L 15.8332 8.25754 L 15.7489 8.26468 L 15.6644 8.27177 L 15.5799 8.2788 L 15.4952 8.28578 L 15.4104 8.2927 L 15.3255 8.29956 L 15.2406 8.30637 L 15.1555 8.31311 L 15.0703 8.31979 L 14.9849 8.32641 L 14.8995 8.33297 L 14.814 8.33946 L 14.7283 8.34589 L 14.6425 8.35225 L 14.5566 8.35854 L 14.4706 8.36476 L 14.3845 8.37092 L 14.2982 8.377 L 14.2118 8.38301 L 14.1253 8.38894 L 14.0386 8.3948 L 13.9519 8.40058 L 13.865 8.40629 L 13.7779 8.41191 L 13.6908 8.41745 L 13.6035 8.42291 L 13.6035 8.42291 L 13.6375 8.5035 L 13.6714 8.58399 L 13.7051 8.66441 L 13.7388 8.74474 L 13.7723 8.82499 L 13.8057 8.90516 L 13.8389 8.98525 L 13.872 9.06526 L 13.905 9.1452 L 13.9379 9.22505 L 13.9707 9.30483 L 14.0034 9.38452 L 14.0359 9.46415 L 14.0683 9.5437 L 14.1006 9.62317 L 14.1329 9.70257 L 14.165 9.78189 L 14.197 9.86114 L 14.2289 9.94032 L 14.2606 10.0194 L 14.2923 10.0985 L 14.3239 10.1774 L 14.3554 10.2563 L 14.3868 10.3352 L 14.4181 10.4139 L 14.4493 10.4926 L 14.4804 10.5712 L 14.5114 10.6498 L 14.5424 10.7283 L 14.5732 10.8067 L 14.604 10.8851 L 14.6346 10.9633 L 14.6652 11.0416 L 14.6957 11.1197 L 14.7261 11.1978 L 14.7564 11.2759 L 14.7867 11.3539 L 14.8169 11.4318 L 14.8469 11.5096 L 14.877 11.5874 L 14.9069 11.6651 L 14.9367 11.7428 L 14.8925 11.7989 L 14.848 11.8548 L 14.8034 11.9105 L 14.7585 11.9661 L 14.7134 12.0215 L 14.6681 12.0767 L 14.6226 12.1318 L 14.5769 12.1867 L 14.531 12.2414 L 14.4848 12.2959 L 14.4385 12.3503 L 14.392 12.4045 L 14.3452 12.4585 L 14.2983 12.5123 L 14.2512 12.566 L 14.2038 12.6195 L 14.1563 12.6728 L 14.1085 12.7259 L 13.9734 12.8741 L 13.9249 12.9266 L 13.8762 12.9788 L 13.8273 13.0309 L 13.7782 13.0828 L 13.729 13.1345 L 13.6795 13.186 L 13.6298 13.2374 L 13.58 13.2885 L 13.5299 13.3395 L 13.4797 13.3902 L 13.4292 13.4408 L 13.3786 13.4912 L 13.3278 13.5414 L 13.2768 13.5914 L 13.2256 13.6412 L 13.1742 13.6909 L 13.1227 13.7403 L 13.0709 13.7895 L 12.9908 13.767 L 12.9107 13.7443 L 12.8304 13.7216 L 12.7501 13.6989 L 12.6698 13.676 L 12.5893 13.6531 L 12.5088 13.6301 L 12.4282 13.607 L 12.3476 13.5839 L 12.2669 13.5606 L 12.1861 13.5373 L 12.1052 13.5139 L 12.0243 13.4905 L 11.9433 13.4669 L 11.8622 13.4433 L 11.7811 13.4195 L 11.6998 13.3957 L 11.6185 13.3718 L 11.5371 13.3478 L 11.4557 13.3238 L 11.3741 13.2996 L 11.2925 13.2753 L 11.2108 13.251 L 11.129 13.2265 L 11.0471 13.202 L 10.9652 13.1773 L 10.8832 13.1526 L 10.801 13.1277 L 10.7188 13.1028 L 10.6366 13.0777 L 10.5542 13.0526 L 10.4717 13.0273 L 10.3892 13.0019 L 10.3065 12.9764 L 10.2238 12.9508 L 10.141 12.9251 L 10.0581 12.8993 L 9.97509 12.8733 L 9.892 12.8472 L 9.80881 12.821 L 9.72553 12.7947 L 9.64215 12.7683 L 9.64215 12.7683 L 9.64477 12.8557 L 9.6473 12.943 L 9.64972 13.0302 L 9.65206 13.1172 L 9.65431 13.2042 L 9.65647 13.291 L 9.65855 13.3777 L 9.66053 13.4643 L 9.66244 13.5507 L 9.66426 13.6371 L 9.666 13.7233 L 9.66766 13.8094 L 9.66924 13.8954 L 9.67074 13.9813 L 9.67217 14.0671 L 9.67353 14.1528 L 9.67481 14.2383 L 9.67602 14.3238 L 9.67715 14.4091 L 9.67822 14.4944 L 9.67922 14.5795 L 9.68015 14.6646 L 9.68102 14.7495 L 9.68182 14.8344 L 9.68255 14.9191 L 9.68322 15.0038 L 9.68383 15.0883 L 9.68438 15.1728 L 9.68486 15.2571 L 9.68529 15.3414 L 9.68566 15.4256 L 9.68597 15.5097 L 9.68623 15.5936 L 9.68642 15.6775 L 9.68657 15.7614 L 9.68666 15.8451 L 9.68669 15.9287 L 9.68668 16.0123 L 9.68661 16.0957 L 9.68649 16.1791 L 9.68632 16.2624 L 9.6861 16.3456 L 9.62458 16.3819 L 9.56293 16.418 L 9.50114 16.4538 L 9.43921 16.4894 L 9.37716 16.5248 L 9.31497 16.5599 L 9.25265 16.5948 L 9.1902 16.6295 L 9.12761 16.6639 L 9.0649 16.6981 L 9.00206 16.7321 L 8.9391 16.7658 L 8.87601 16.7993 L 8.81279 16.8326 L 8.74945 16.8656 L 8.68598 16.8983 L 8.62239 16.9309 L 8.55868 16.9632 L 8.37914 17.0526 L 8.31498 17.0839 L 8.25069 17.1151 L 8.18629 17.146 L 8.12177 17.1766 L 8.05714 17.207 L 7.9924 17.2372 L 7.92754 17.2671 L 7.86257 17.2968 L 7.79749 17.3263 L 7.7323 17.3554 L 7.667 17.3844 L 7.60159 17.4131 L 7.53607 17.4415 L 7.47045 17.4698 L 7.40472 17.4977 L 7.33889 17.5254 L 7.27295 17.5529 L 7.20691 17.5801 L 7.14037 17.5301 L 7.0738 17.4801 L 7.00719 17.4299 L 6.94054 17.3797 L 6.87386 17.3293 L 6.80713 17.2789 L 6.74037 17.2284 L 6.67358 17.1778 L 6.60674 17.127 L 6.53987 17.0762 L 6.47296 17.0253 L 6.406 16.9743 L 6.33902 16.9232 L 6.27199 16.8719 L 6.20492 16.8206 L 6.13781 16.7692 L 6.07067 16.7176 L 6.00348 16.666 L 5.93625 16.6142 L 5.86899 16.5623 L 5.80168 16.5103 L 5.73434 16.4582 L 5.66695 16.406 L 5.59952 16.3536 L 5.53205 16.3012 L 5.46454 16.2486 L 5.39699 16.1959 L 5.32939 16.143 L 5.26175 16.0901 L 5.19408 16.037 L 5.12636 15.9838 L 5.05859 15.9304 L 4.99079 15.8769 L 4.92294 15.8233 L 4.85505 15.7695 L 4.78712 15.7156 L 4.71914 15.6616 L 4.65112 15.6074 L 4.58306 15.5531 L 4.51495 15.4986 L 4.4468 15.444 L 4.37861 15.3892 L 4.37861 15.3892 L 4.34947 15.4717 L 4.32028 15.554 L 4.29105 15.6362 L 4.26179 15.7182 L 4.23248 15.8001 L 4.20313 15.8818 L 4.17375 15.9634 L 4.14433 16.0448 L 4.11487 16.1261 L 4.08538 16.2073 L 4.05585 16.2883 L 4.02629 16.3692 L 3.9967 16.45 L 3.96707 16.5306 L 3.93742 16.6112 L 3.90773 16.6915 L 3.87802 16.7718 L 3.84827 16.8519 L 3.8185 16.9319 L 3.7887 17.0118 L 3.75887 17.0915 L 3.72902 17.1712 L 3.69914 17.2507 L 3.66923 17.3301 L 3.6393 17.4094 L 3.60935 17.4886 L 3.57938 17.5676 L 3.54938 17.6466 L 3.51936 17.7254 L 3.48931 17.8042 L 3.45925 17.8828 L 3.42917 17.9613 L 3.39906 18.0397 L 3.36894 18.118 L 3.3388 18.1962 L 3.30863 18.2743 L 3.27845 18.3523 L 3.24826 18.4302 L 3.21804 18.508 L 3.18781 18.5857 L 3.15756 18.6633 L 3.1273 18.7409 L 3.05682 18.7525 L 2.9863 18.7638 L 2.91574 18.7749 L 2.84514 18.7858 L 2.77449 18.7963 L 2.70381 18.8066 L 2.63309 18.8167 L 2.56233 18.8264 L 2.49154 18.8359 L 2.42071 18.8452 L 2.34985 18.8541 L 2.27895 18.8628 L 2.20802 18.8713 L 2.13706 18.8794 L 2.06607 18.8873 L 1.99505 18.895 L 1.924 18.9023 L 1.85293 18.9094 L 1.65322 18.9279 L 1.58205 18.934 L 1.51086 18.9398 L 1.43965 18.9454 L 1.36841 18.9507 L 1.29716 18.9557 L 1.22589 18.9604 L 1.1546 18.9649 L 1.0833 18.9691 L 1.01198 18.973 L 0.940643 18.9767 L 0.869296 18.9801 L 0.797936 18.9832 L 0.726565 18.9861 L 0.655184 18.9887 L 0.583793 18.991 L 0.512394 18.9931 L 0.440988 18.9949 L 0.369576 18.9964 L 0.325583 18.9258 L 0.281589 18.855 L 0.237593 18.7842 L 0.193596 18.7133 L 0.149598 18.6423 L 0.105599 18.5711 L 0.0615997 18.4999 L 0.0176 18.4286 L -0.0263999 18.3571 L -0.0703997 18.2856 L -0.114399 18.2139 L -0.158398 18.1422 L -0.202395 18.0703 L -0.246392 17.9983 L -0.290387 17.9262 L -0.33438 17.854 L -0.378371 17.7817 L -0.422359 17.7092 L -0.466345 17.6367 L -0.510327 17.564 L -0.554306 17.4912 L -0.598281 17.4183 L -0.642252 17.3453 L -0.686218 17.2721 L -0.730179 17.1988 L -0.774135 17.1254 L -0.818085 17.0518 L -0.862028 16.9781 L -0.905965 16.9043 L -0.949894 16.8304 L -0.993816 16.7563 L -1.03773 16.682 L -1.08163 16.6077 L -1.12553 16.5332 L -1.16942 16.4585 L -1.21329 16.3837 L -1.25716 16.3088 L -1.30101 16.2337 L -1.34485 16.1584 L -1.38868 16.083 L -1.43249 16.0075 L -1.47629 15.9317 L -1.47629 15.9317 L -1.53326 15.9981 L -1.59021 16.0643 L -1.64715 16.1304 L -1.70407 16.1963 L -1.76098 16.2621 L -1.81787 16.3277 L -1.87474 16.3931 L -1.93159 16.4585 L -1.98843 16.5236 L -2.04526 16.5887 L -2.10206 16.6536 L -2.15885 16.7183 L -2.21562 16.783 L -2.27237 16.8474 L -2.32911 16.9118 L -2.38582 16.976 L -2.44252 17.0401 L -2.4992 17.1041 L -2.55587 17.1679 L -2.61251 17.2317 L -2.66914 17.2953 L -2.72574 17.3587 L -2.78233 17.4221 L -2.8389 17.4853 L -2.89545 17.5484 L -2.95198 17.6115 L -3.00849 17.6744 L -3.06498 17.7371 L -3.12146 17.7998 L -3.17791 17.8624 L -3.23435 17.9248 L -3.29077 17.9872 L -3.34716 18.0494 L -3.40354 18.1115 L -3.4599 18.1736 L -3.51624 18.2355 L -3.57256 18.2973 L -3.62886 18.3591 L -3.68514 18.4207 L -3.7414 18.4823 L -3.79764 18.5437 L -3.85386 18.605 L -3.92378 18.5904 L -3.99364 18.5755 L -4.06345 18.5604 L -4.13319 18.545 L -4.20288 18.5293 L -4.27251 18.5134 L -4.34208 18.4972 L -4.41159 18.4807 L -4.48103 18.464 L -4.55041 18.4471 L -4.61973 18.4298 L -4.68898 18.4123 L -4.75817 18.3946 L -4.82729 18.3765 L -4.89634 18.3583 L -4.96532 18.3397 L -5.03423 18.3209 L -5.10307 18.3019 L -5.29598 18.247 L -5.36454 18.227 L -5.43302 18.2067 L -5.50143 18.1861 L -5.56976 18.1653 L -5.63801 18.1442 L -5.70618 18.1229 L -5.77427 18.1013 L -5.84228 18.0795 L -5.91021 18.0574 L -5.97805 18.035 L -6.04581 18.0124 L -6.11348 17.9896 L -6.18107 17.9665 L -6.24857 17.9431 L -6.31598 17.9195 L -6.3833 17.8956 L -6.45053 17.8715 L -6.51767 17.8471 L -6.53318 17.7654 L -6.54865 17.6835 L -6.56409 17.6016 L -6.5795 17.5196 L -6.59486 17.4374 L -6.6102 17.3552 L -6.62549 17.2729 L -6.64075 17.1905 L -6.65598 17.108 L -6.67116 17.0254 L -6.6863 16.9427 L -6.70141 16.8598 L -6.71647 16.7769 L -6.73149 16.6939 L -6.74647 16.6108 L -6.76141 16.5276 L -6.77631 16.4442 L -6.79116 16.3608 L -6.80596 16.2773 L -6.82072 16.1936 L -6.83543 16.1098 L -6.8501 16.026 L -6.86471 15.942 L -6.87928 15.8579 L -6.89379 15.7736 L -6.90826 15.6893 L -6.92267 15.6048 L -6.93703 15.5202 L -6.95133 15.4355 L -6.96558 15.3507 L -6.97977 15.2657 L -6.9939 15.1807 L -7.00798 15.0955 L -7.02199 15.0101 L -7.03595 14.9247 L -7.04984 14.8391 L -7.06367 14.7533 L -7.07743 14.6675 L -7.09113 14.5815 L -7.10476 14.4953 L -7.11832 14.409 L -7.13181 14.3226 L -7.13181 14.3226 L -7.20891 14.3639 L -7.28594 14.4051 L -7.3629 14.4461 L -7.43978 14.487 L -7.5166 14.5278 L -7.59335 14.5684 L -7.67003 14.6089 L -7.74664 14.6493 L -7.82319 14.6895 L -7.89967 14.7297 L -7.97608 14.7696 L -8.05243 14.8095 L -8.12871 14.8493 L -8.20492 14.8889 L -8.28107 14.9284 L -8.35716 14.9678 L -8.43319 15.0071 L -8.50915 15.0463 L -8.58505 15.0853 L -8.66088 15.1243 L -8.73666 15.1631 L -8.81237 15.2019 L -8.88803 15.2405 L -8.96362 15.2791 L -9.03916 15.3175 L -9.11463 15.3558 L -9.19005 15.394 L -9.2654 15.4322 L -9.3407 15.4702 L -9.41595 15.5082 L -9.49113 15.546 L -9.56626 15.5838 L -9.64133 15.6214 L -9.71635 15.659 L -9.79131 15.6965 L -9.86622 15.7339 L -9.94107 15.7712 L -10.0159 15.8084 L -10.0906 15.8456 L -10.1653 15.8826 L -10.24 15.9196 L -10.3145 15.9565 L -10.3745 15.9176 L -10.4342 15.8785 L -10.4938 15.8392 L -10.5533 15.7996 L -10.6126 15.7598 L -10.6718 15.7198 L -10.7308 15.6796 L -10.7897 15.6391 L -10.8484 15.5985 L -10.907 15.5576 L -10.9654 15.5165 L -11.0236 15.4751 L -11.0817 15.4336 L -11.1397 15.3918 L -11.1975 15.3498 L -11.2551 15.3076 L -11.3126 15.2652 L -11.3699 15.2225 L -11.5299 15.1017 L -11.5866 15.0582 L -11.6431 15.0146 L -11.6995 14.9707 L -11.7557 14.9266 L -11.8117 14.8823 L -11.8676 14.8378 L -11.9233 14.7931 L -11.9788 14.7481 L -12.0342 14.703 L -12.0894 14.6577 L -12.1444 14.6121 L -12.1992 14.5663 L -12.2539 14.5204 L -12.3084 14.4742 L -12.3627 14.4278 L -12.4169 14.3813 L -12.4709 14.3345 L -12.5247 14.2875 L -12.5096 14.2057 L -12.4945 14.1237 L -12.4793 14.0418 L -12.464 13.9597 L -12.4487 13.8776 L -12.4332 13.7954 L -12.4178 13.7131 L -12.4022 13.6307 L -12.3866 13.5483 L -12.3709 13.4658 L -12.3552 13.3832 L -12.3394 13.3005 L -12.3235 13.2178 L -12.3075 13.1349 L -12.2914 13.052 L -12.2753 12.969 L -12.2591 12.8859 L -12.2428 12.8028 L -12.2264 12.7195 L -12.2099 12.6362 L -12.1934 12.5527 L -12.1768 12.4692 L -12.1601 12.3856 L -12.1433 12.3019 L -12.1264 12.2181 L -12.1094 12.1343 L -12.0923 12.0503 L -12.0751 11.9662 L -12.0579 11.8821 L -12.0405 11.7978 L -12.0231 11.7135 L -12.0055 11.6291 L -11.9879 11.5445 L -11.9701 11.4599 L -11.9522 11.3752 L -11.9343 11.2903 L -11.9162 11.2054 L -11.898 11.1203 L -11.8797 11.0352 L -11.8613 10.9499 L -11.8428 10.8646 L -11.8241 10.7791 L -11.8241 10.7791 L -11.911 10.7898 L -11.9977 10.8004 L -12.0842 10.8108 L -12.1707 10.8212 L -12.2571 10.8315 L -12.3433 10.8416 L -12.4294 10.8517 L -12.5155 10.8616 L -12.6014 10.8715 L -12.6872 10.8813 L -12.7729 10.891 L -12.8585 10.9006 L -12.944 10.9101 L -13.0294 10.9195 L -13.1146 10.9289 L -13.1998 10.9381 L -13.2849 10.9473 L -13.3699 10.9564 L -13.4548 10.9654 L -13.5396 10.9743 L -13.6243 10.9832 L -13.7088 10.9919 L -13.7933 11.0006 L -13.8778 11.0093 L -13.9621 11.0178 L -14.0463 11.0263 L -14.1304 11.0347 L -14.2145 11.043 L -14.2984 11.0513 L -14.3823 11.0595 L -14.4661 11.0676 L -14.5498 11.0757 L -14.6334 11.0837 L -14.7169 11.0916 L -14.8004 11.0995 L -14.8837 11.1073 L -14.967 11.1151 L -15.0502 11.1228 L -15.1333 11.1304 L -15.2163 11.138 L -15.2993 11.1455 L -15.3822 11.153 L -15.424 11.0951 L -15.4656 11.037 L -15.507 10.9788 L -15.5481 10.9204 L -15.5891 10.8619 L -15.6298 10.8032 L -15.6703 10.7444 L -15.7106 10.6854 L -15.7507 10.6262 L -15.7905 10.5669 L -15.8301 10.5075 L -15.8695 10.4479 L -15.9087 10.3882 L -15.9476 10.3283 L -15.9863 10.2683 L -16.0248 10.2081 L -16.0631 10.1478 L -16.1011 10.0873 L -16.2067 9.91681 L -16.2439 9.85581 L -16.2808 9.79468 L -16.3175 9.7334 L -16.354 9.67199 L -16.3902 9.61044 L -16.4262 9.54875 L -16.462 9.48693 L -16.4976 9.42498 L -16.5329 9.36289 L -16.568 9.30067 L -16.6028 9.23832 L -16.6374 9.17584 L -16.6718 9.11323 L -16.7059 9.05049 L -16.7399 8.98762 L -16.7735 8.92462 L -16.807 8.8615 L -16.8402 8.79826 L -16.7965 8.72739 L -16.7528 8.65648 L -16.709 8.58553 L -16.6652 8.51453 L -16.6212 8.44348 L -16.5771 8.37239 L -16.533 8.30126 L -16.4887 8.23007 L -16.4444 8.15884 L -16.4 8.08756 L -16.3554 8.01624 L -16.3108 7.94487 L -16.2661 7.87345 L -16.2213 7.80198 L -16.1763 7.73046 L -16.1313 7.65889 L -16.0862 7.58728 L -16.0409 7.51561 L -15.9956 7.4439 L -15.9501 7.37213 L -15.9046 7.30031 L -15.8589 7.22845 L -15.8131 7.15653 L -15.7672 7.08455 L -15.7212 7.01253 L -15.6751 6.94046 L -15.6288 6.86833 L -15.5824 6.79615 L -15.5359 6.72391 L -15.4893 6.65163 L -15.4426 6.57928 L -15.3957 6.50689 L -15.3487 6.43444 L -15.3016 6.36193 L -15.2543 6.28937 L -15.2069 6.21675 L -15.1594 6.14408 L -15.1117 6.07135 L -15.0639 5.99857 L -15.0159 5.92572 L -14.9678 5.85282 L -14.9196 5.77987 L -14.9196 5.77987 L -15.0044 5.75846 L -15.089 5.73699 L -15.1735 5.71547 L -15.2579 5.6939 L -15.3421 5.67227 L -15.4262 5.65059 L -15.5102 5.62886 L -15.594 5.60708 L -15.6777 5.58525 L -15.7612 5.56337 L -15.8446 5.54145 L -15.9279 5.51948 L -16.0111 5.49746 L -16.0941 5.47541 L -16.177 5.45331 L -16.2598 5.43116 L -16.3424 5.40898 L -16.4249 5.38675 L -16.5074 5.36449 L -16.5896 5.34219 L -16.6718 5.31985 L -16.7539 5.29747 L -16.8358 5.27505 L -16.9176 5.2526 L -16.9993 5.23012 L -17.0809 5.2076 L -17.1624 5.18504 L -17.2438 5.16246 L -17.3251 5.13984 L -17.4063 5.11719 L -17.4873 5.09451 L -17.5683 5.0718 L -17.6491 5.04906 L -17.7299 5.02629 L -17.8105 5.00349 L -17.8911 4.98066 L -17.9715 4.95781 L -18.0519 4.93493 L -18.1322 4.91202 L -18.2123 4.88909 L -18.2924 4.86613 L -18.3724 4.84315 L -18.3904 4.77404 L -18.4083 4.70487 L -18.4258 4.63563 L -18.4431 4.56633 L -18.4602 4.49697 L -18.4769 4.42753 L -18.4934 4.35804 L -18.5097 4.28849 L -18.5257 4.21887 L -18.5414 4.1492 L -18.5569 4.07946 L -18.5721 4.00967 L -18.587 3.93982 L -18.6017 3.86992 L -18.6161 3.79996 L -18.6303 3.72995 L -18.6442 3.65988 L -18.6578 3.58977 L -18.6947 3.39262 L -18.7073 3.32231 L -18.7196 3.25196 L -18.7317 3.18156 L -18.7436 3.11112 L -18.7551 3.04064 L -18.7664 2.97011 L -18.7775 2.89954 L -18.7882 2.82892 L -18.7987 2.75827 L -18.809 2.68758 L -18.8189 2.61685 L -18.8286 2.54608 L -18.8381 2.47528 L -18.8472 2.40444 L -18.8562 2.33357 L -18.8648 2.26267 L -18.8732 2.19173 L -18.8813 2.12077 L -18.815 2.07044 L -18.7486 2.02011 L -18.6822 1.96977 L -18.6156 1.91941 L -18.5489 1.86905 L -18.4822 1.81868 L -18.4153 1.76829 L -18.3483 1.7179 L -18.2813 1.66749 L -18.2141 1.61708 L -18.1468 1.56666 L -18.0794 1.51623 L -18.0119 1.46578 L -17.9443 1.41533 L -17.8765 1.36487 L -17.8087 1.31441 L -17.7407 1.26393 L -17.6727 1.21345 L -17.6045 1.16295 L -17.5362 1.11245 L -17.4677 1.06194 L -17.3992 1.01143 L -17.3305 0.960906 L -17.2617 0.910376 L -17.1928 0.85984 L -17.1237 0.809297 L -17.0546 0.758748 L -16.9852 0.708193 L -16.9158 0.657633 L -16.8462 0.607067 L -16.7765 0.556497 L -16.7066 0.505922 L -16.6366 0.455342 L -16.5665 0.404759 L -16.4962 0.354172 L -16.4258 0.303582 L -16.3552 0.252989 L -16.2845 0.202394 L -16.2136 0.151797 L -16.1425 0.101199 L -16.0713 0.0505998 L -16 4.44089e-16 L -16 3.47478e-15 L -16.0713 -0.0505998 L -16.1425 -0.101199 L -16.2136 -0.151797 L -16.2845 -0.202394 L -16.3552 -0.252989 L -16.4258 -0.303582 L -16.4962 -0.354172 L -16.5665 -0.404759 L -16.6366 -0.455342 L -16.7066 -0.505922 L -16.7765 -0.556497 L -16.8462 -0.607067 L -16.9158 -0.657633 L -16.9852 -0.708193 L -17.0546 -0.758748 L -17.1237 -0.809297 L -17.1928 -0.85984 L -17.2617 -0.910376 L -17.3305 -0.960906 L -17.3992 -1.01143 L -17.4677 -1.06194 L -17.5362 -1.11245 L -17.6045 -1.16295 L -17.6727 -1.21345 L -17.7407 -1.26393 L -17.8087 -1.31441 L -17.8765 -1.36487 L -17.9443 -1.41533 L -18.0119 -1.46578 L -18.0794 -1.51623 L -18.1468 -1.56666 L -18.2141 -1.61708 L -18.2813 -1.66749 L -18.3483 -1.7179 L -18.4153 -1.76829 L -18.4822 -1.81868 L -18.5489 -1.86905 L -18.6156 -1.91941 L -18.6822 -1.96977 L -18.7486 -2.02011 L -18.815 -2.07044 L -18.8813 -2.12077 L -18.8732 -2.19173 L -18.8648 -2.26267 L -18.8562 -2.33357 L -18.8472 -2.40444 L -18.8381 -2.47528 L -18.8286 -2.54608 L -18.8189 -2.61685 L -18.809 -2.68758 L -18.7987 -2.75827 L -18.7882 -2.82892 L -18.7775 -2.89954 L -18.7664 -2.97011 L -18.7551 -3.04064 L -18.7436 -3.11112 L -18.7317 -3.18156 L -18.7196 -3.25196 L -18.7073 -3.32231 L -18.6947 -3.39262 L -18.6578 -3.58977 L -18.6442 -3.65988 L -18.6303 -3.72995 L -18.6161 -3.79996 L -18.6017 -3.86992 L -18.587 -3.93982 L -18.5721 -4.00967 L -18.5569 -4.07946 L -18.5414 -4.1492 L -18.5257 -4.21887 L -18.5097 -4.28849 L -18.4934 -4.35804 L -18.4769 -4.42753 L -18.4602 -4.49697 L -18.4431 -4.56633 L -18.4258 -4.63563 L -18.4083 -4.70487 L -18.3904 -4.77404 L -18.3724 -4.84315 L -18.2924 -4.86613 L -18.2123 -4.88909 L -18.1322 -4.91202 L -18.0519 -4.93493 L -17.9715 -4.95781 L -17.8911 -4.98066 L -17.8105 -5.00349 L -17.7299 -5.02629 L -17.6491 -5.04906 L -17.5683 -5.0718 L -17.4873 -5.09451 L -17.4063 -5.11719 L -17.3251 -5.13984 L -17.2438 -5.16246 L -17.1624 -5.18504 L -17.0809 -5.2076 L -16.9993 -5.23012 L -16.9176 -5.2526 L -16.8358 -5.27505 L -16.7539 -5.29747 L -16.6718 -5.31985 L -16.5896 -5.34219 L -16.5074 -5.36449 L -16.4249 -5.38675 L -16.3424 -5.40898 L -16.2598 -5.43116 L -16.177 -5.45331 L -16.0941 -5.47541 L -16.0111 -5.49746 L -15.9279 -5.51948 L -15.8446 -5.54145 L -15.7612 -5.56337 L -15.6777 -5.58525 L -15.594 -5.60708 L -15.5102 -5.62886 L -15.4262 -5.65059 L -15.3421 -5.67227 L -15.2579 -5.6939 L -15.1735 -5.71547 L -15.089 -5.73699 L -15.0044 -5.75846 L -14.9196 -5.77987 L -14.9196 -5.77987 L -14.9678 -5.85282 L -15.0159 -5.92572 L -15.0639 -5.99857 L -15.1117 -6.07135 L -15.1594 -6.14408 L -15.2069 -6.21675 L -15.2543 -6.28937 L -15.3016 -6.36193 L -15.3487 -6.43444 L -15.3957 -6.50689 L -15.4426 -6.57928 L -15.4893 -6.65163 L -15.5359 -6.72391 L -15.5824 -6.79615 L -15.6288 -6.86833 L -15.6751 -6.94046 L -15.7212 -7.01253 L -15.7672 -7.08455 L -15.8131 -7.15653 L -15.8589 -7.22845 L -15.9046 -7.30031 L -15.9501 -7.37213 L -15.9956 -7.4439 L -16.0409 -7.51561 L -16.0862 -7.58728 L -16.1313 -7.65889 L -16.1763 -7.73046 L -16.2213 -7.80198 L -16.2661 -7.87345 L -16.3108 -7.94487 L -16.3554 -8.01624 L -16.4 -8.08756 L -16.4444 -8.15884 L -16.4887 -8.23007 L -16.533 -8.30126 L -16.5771 -8.37239 L -16.6212 -8.44348 L -16.6652 -8.51453 L -16.709 -8.58553 L -16.7528 -8.65648 L -16.7965 -8.72739 L -16.8402 -8.79826 L -16.807 -8.8615 L -16.7735 -8.92462 L -16.7399 -8.98762 L -16.7059 -9.05049 L -16.6718 -9.11323 L -16.6374 -9.17584 L -16.6028 -9.23832 L -16.568 -9.30067 L -16.5329 -9.36289 L -16.4976 -9.42498 L -16.462 -9.48693 L -16.4262 -9.54875 L -16.3902 -9.61044 L -16.354 -9.67199 L -16.3175 -9.7334 L -16.2808 -9.79468 L -16.2439 -9.85581 L -16.2067 -9.91681 L -16.1011 -10.0873 L -16.0631 -10.1478 L -16.0248 -10.2081 L -15.9863 -10.2683 L -15.9476 -10.3283 L -15.9087 -10.3882 L -15.8695 -10.4479 L -15.8301 -10.5075 L -15.7905 -10.5669 L -15.7507 -10.6262 L -15.7106 -10.6854 L -15.6703 -10.7444 L -15.6298 -10.8032 L -15.5891 -10.8619 L -15.5481 -10.9204 L -15.507 -10.9788 L -15.4656 -11.037 L -15.424 -11.0951 L -15.3822 -11.153 L -15.2993 -11.1455 L -15.2163 -11.138 L -15.1333 -11.1304 L -15.0502 -11.1228 L -14.967 -11.1151 L -14.8837 -11.1073 L -14.8004 -11.0995 L -14.7169 -11.0916 L -14.6334 -11.0837 L -14.5498 -11.0757 L -14.4661 -11.0676 L -14.3823 -11.0595 L -14.2984 -11.0513 L -14.2145 -11.043 L -14.1304 -11.0347 L -14.0463 -11.0263 L -13.9621 -11.0178 L -13.8778 -11.0093 L -13.7933 -11.0006 L -13.7088 -10.9919 L -13.6243 -10.9832 L -13.5396 -10.9743 L -13.4548 -10.9654 L -13.3699 -10.9564 L -13.2849 -10.9473 L -13.1998 -10.9381 L -13.1146 -10.9289 L -13.0294 -10.9195 L -12.944 -10.9101 L -12.8585 -10.9006 L -12.7729 -10.891 L -12.6872 -10.8813 L -12.6014 -10.8715 L -12.5155 -10.8616 L -12.4294 -10.8517 L -12.3433 -10.8416 L -12.2571 -10.8315 L -12.1707 -10.8212 L -12.0842 -10.8108 L -11.9977 -10.8004 L -11.911 -10.7898 L -11.8241 -10.7791 L -11.8241 -10.7791 L -11.8428 -10.8646 L -11.8613 -10.9499 L -11.8797 -11.0352 L -11.898 -11.1203 L -11.9162 -11.2054 L -11.9343 -11.2903 L -11.9522 -11.3752 L -11.9701 -11.4599 L -11.9879 -11.5445 L -12.0055 -11.6291 L -12.0231 -11.7135 L -12.0405 -11.7978 L -12.0579 -11.8821 L -12.0751 -11.9662 L -12.0923 -12.0503 L -12.1094 -12.1343 L -12.1264 -12.2181 L -12.1433 -12.3019 L -12.1601 -12.3856 L -12.1768 -12.4692 L -12.1934 -12.5527 L -12.2099 -12.6362 L -12.2264 -12.7195 L -12.2428 -12.8028 L -12.2591 -12.8859 L -12.2753 -12.969 L -12.2914 -13.052 L -12.3075 -13.1349 L -12.3235 -13.2178 L -12.3394 -13.3005 L -12.3552 -13.3832 L -12.3709 -13.4658 L -12.3866 -13.5483 L -12.4022 -13.6307 L -12.4178 -13.7131 L -12.4332 -13.7954 L -12.4487 -13.8776 L -12.464 -13.9597 L -12.4793 -14.0418 L -12.4945 -14.1237 L -12.5096 -14.2057 L -12.5247 -14.2875 L -12.4709 -14.3345 L -12.4169 -14.3813 L -12.3627 -14.4278 L -12.3084 -14.4742 L -12.2539 -14.5204 L -12.1992 -14.5663 L -12.1444 -14.6121 L -12.0894 -14.6577 L -12.0342 -14.703 L -11.9788 -14.7481 L -11.9233 -14.7931 L -11.8676 -14.8378 L -11.8117 -14.8823 L -11.7557 -14.9266 L -11.6995 -14.9707 L -11.6431 -15.0146 L -11.5866 -15.0582 L -11.5299 -15.1017 L -11.3699 -15.2225 L -11.3126 -15.2652 L -11.2551 -15.3076 L -11.1975 -15.3498 L -11.1397 -15.3918 L -11.0817 -15.4336 L -11.0236 -15.4751 L -10.9654 -15.5165 L -10.907 -15.5576 L -10.8484 -15.5985 L -10.7897 -15.6391 L -10.7308 -15.6796 L -10.6718 -15.7198 L -10.6126 -15.7598 L -10.5533 -15.7996 L -10.4938 -15.8392 L -10.4342 -15.8785 L -10.3745 -15.9176 L -10.3145 -15.9565 L -10.24 -15.9196 L -10.1653 -15.8826 L -10.0906 -15.8456 L -10.0159 -15.8084 L -9.94107 -15.7712 L -9.86622 -15.7339 L -9.79131 -15.6965 L -9.71635 -15.659 L -9.64133 -15.6214 L -9.56626 -15.5838 L -9.49113 -15.546 L -9.41595 -15.5082 L -9.3407 -15.4702 L -9.2654 -15.4322 L -9.19005 -15.394 L -9.11463 -15.3558 L -9.03916 -15.3175 L -8.96362 -15.2791 L -8.88803 -15.2405 L -8.81237 -15.2019 L -8.73666 -15.1631 L -8.66088 -15.1243 L -8.58505 -15.0853 L -8.50915 -15.0463 L -8.43319 -15.0071 L -8.35716 -14.9678 L -8.28107 -14.9284 L -8.20492 -14.8889 L -8.12871 -14.8493 L -8.05243 -14.8095 L -7.97608 -14.7696 L -7.89967 -14.7297 L -7.82319 -14.6895 L -7.74664 -14.6493 L -7.67003 -14.6089 L -7.59335 -14.5684 L -7.5166 -14.5278 L -7.43978 -14.487 L -7.3629 -14.4461 L -7.28594 -14.4051 L -7.20891 -14.3639 L -7.13181 -14.3226 L -7.13181 -14.3226 L -7.11832 -14.409 L -7.10476 -14.4953 L -7.09113 -14.5815 L -7.07743 -14.6675 L -7.06367 -14.7533 L -7.04984 -14.8391 L -7.03595 -14.9247 L -7.02199 -15.0101 L -7.00798 -15.0955 L -6.9939 -15.1807 L -6.97977 -15.2657 L -6.96558 -15.3507 L -6.95133 -15.4355 L -6.93703 -15.5202 L -6.92267 -15.6048 L -6.90826 -15.6893 L -6.89379 -15.7736 L -6.87928 -15.8579 L -6.86471 -15.942 L -6.8501 -16.026 L -6.83543 -16.1098 L -6.82072 -16.1936 L -6.80596 -16.2773 L -6.79116 -16.3608 L -6.77631 -16.4442 L -6.76141 -16.5276 L -6.74647 -16.6108 L -6.73149 -16.6939 L -6.71647 -16.7769 L -6.70141 -16.8598 L -6.6863 -16.9427 L -6.67116 -17.0254 L -6.65598 -17.108 L -6.64075 -17.1905 L -6.62549 -17.2729 L -6.6102 -17.3552 L -6.59486 -17.4374 L -6.5795 -17.5196 L -6.56409 -17.6016 L -6.54865 -17.6835 L -6.53318 -17.7654 L -6.51767 -17.8471 L -6.45053 -17.8715 L -6.3833 -17.8956 L -6.31598 -17.9195 L -6.24857 -17.9431 L -6.18107 -17.9665 L -6.11348 -17.9896 L -6.04581 -18.0124 L -5.97805 -18.035 L -5.91021 -18.0574 L -5.84228 -18.0795 L -5.77427 -18.1013 L -5.70618 -18.1229 L -5.63801 -18.1442 L -5.56976 -18.1653 L -5.50143 -18.1861 L -5.43302 -18.2067 L -5.36454 -18.227 L -5.29598 -18.247 L -5.10307 -18.3019 L -5.03423 -18.3209 L -4.96532 -18.3397 L -4.89634 -18.3583 L -4.82729 -18.3765 L -4.75817 -18.3946 L -4.68898 -18.4123 L -4.61973 -18.4298 L -4.55041 -18.4471 L -4.48103 -18.464 L -4.41159 -18.4807 L -4.34208 -18.4972 L -4.27251 -18.5134 L -4.20288 -18.5293 L -4.13319 -18.545 L -4.06345 -18.5604 L -3.99364 -18.5755 L -3.92378 -18.5904 L -3.85386 -18.605 L -3.79764 -18.5437 L -3.7414 -18.4823 L -3.68514 -18.4207 L -3.62886 -18.3591 L -3.57256 -18.2973 L -3.51624 -18.2355 L -3.4599 -18.1736 L -3.40354 -18.1115 L -3.34716 -18.0494 L -3.29077 -17.9872 L -3.23435 -17.9248 L -3.17791 -17.8624 L -3.12146 -17.7998 L -3.06498 -17.7371 L -3.00849 -17.6744 L -2.95198 -17.6115 L -2.89545 -17.5484 L -2.8389 -17.4853 L -2.78233 -17.4221 L -2.72574 -17.3587 L -2.66914 -17.2953 L -2.61251 -17.2317 L -2.55587 -17.1679 L -2.4992 -17.1041 L -2.44252 -17.0401 L -2.38582 -16.976 L -2.32911 -16.9118 L -2.27237 -16.8474 L -2.21562 -16.783 L -2.15885 -16.7183 L -2.10206 -16.6536 L -2.04526 -16.5887 L -1.98843 -16.5236 L -1.93159 -16.4585 L -1.87474 -16.3931 L -1.81787 -16.3277 L -1.76098 -16.2621 L -1.70407 -16.1963 L -1.64715 -16.1304 L -1.59021 -16.0643 L -1.53326 -15.9981 L -1.47629 -15.9317 L -1.47629 -15.9317 L -1.43249 -16.0075 L -1.38868 -16.083 L -1.34485 -16.1584 L -1.30101 -16.2337 L -1.25716 -16.3088 L -1.21329 -16.3837 L -1.16942 -16.4585 L -1.12553 -16.5332 L -1.08163 -16.6077 L -1.03773 -16.682 L -0.993816 -16.7563 L -0.949894 -16.8304 L -0.905965 -16.9043 L -0.862028 -16.9781 L -0.818085 -17.0518 L -0.774135 -17.1254 L -0.730179 -17.1988 L -0.686218 -17.2721 L -0.642252 -17.3453 L -0.598281 -17.4183 L -0.554306 -17.4912 L -0.510327 -17.564 L -0.466345 -17.6367 L -0.422359 -17.7092 L -0.378371 -17.7817 L -0.33438 -17.854 L -0.290387 -17.9262 L -0.246392 -17.9983 L -0.202395 -18.0703 L -0.158398 -18.1422 L -0.114399 -18.2139 L -0.0703997 -18.2856 L -0.0263999 -18.3571 L 0.0176 -18.4286 L 0.0615997 -18.4999 L 0.105599 -18.5711 L 0.149598 -18.6423 L 0.193596 -18.7133 L 0.237593 -18.7842 L 0.281589 -18.855 L 0.325583 -18.9258 L 0.369576 -18.9964 L 0.440988 -18.9949 L 0.512394 -18.9931 L 0.583793 -18.991 L 0.655184 -18.9887 L 0.726565 -18.9861 L 0.797936 -18.9832 L 0.869296 -18.9801 L 0.940643 -18.9767 L 1.01198 -18.973 L 1.0833 -18.9691 L 1.1546 -18.9649 L 1.22589 -18.9604 L 1.29716 -18.9557 L 1.36841 -18.9507 L 1.43965 -18.9454 L 1.51086 -18.9398 L 1.58205 -18.934 L 1.65322 -18.9279 L 1.85293 -18.9094 L 1.924 -18.9023 L 1.99505 -18.895 L 2.06607 -18.8873 L 2.13706 -18.8794 L 2.20802 -18.8713 L 2.27895 -18.8628 L 2.34985 -18.8541 L 2.42071 -18.8452 L 2.49154 -18.8359 L 2.56233 -18.8264 L 2.63309 -18.8167 L 2.70381 -18.8066 L 2.77449 -18.7963 L 2.84514 -18.7858 L 2.91574 -18.7749 L 2.9863 -18.7638 L 3.05682 -18.7525 L 3.1273 -18.7409 L 3.15756 -18.6633 L 3.18781 -18.5857 L 3.21804 -18.508 L 3.24826 -18.4302 L 3.27845 -18.3523 L 3.30863 -18.2743 L 3.3388 -18.1962 L 3.36894 -18.118 L 3.39906 -18.0397 L 3.42917 -17.9613 L 3.45925 -17.8828 L 3.48931 -17.8042 L 3.51936 -17.7254 L 3.54938 -17.6466 L 3.57938 -17.5676 L 3.60935 -17.4886 L 3.6393 -17.4094 L 3.66923 -17.3301 L 3.69914 -17.2507 L 3.72902 -17.1712 L 3.75887 -17.0915 L 3.7887 -17.0118 L 3.8185 -16.9319 L 3.84827 -16.8519 L 3.87802 -16.7718 L 3.90773 -16.6915 L 3.93742 -16.6112 L 3.96707 -16.5306 L 3.9967 -16.45 L 4.02629 -16.3692 L 4.05585 -16.2883 L 4.08538 -16.2073 L 4.11487 -16.1261 L 4.14433 -16.0448 L 4.17375 -15.9634 L 4.20313 -15.8818 L 4.23248 -15.8001 L 4.26179 -15.7182 L 4.29105 -15.6362 L 4.32028 -15.554 L 4.34947 -15.4717 L 4.37861 -15.3892 L 4.37861 -15.3892 L 4.4468 -15.444 L 4.51495 -15.4986 L 4.58306 -15.5531 L 4.65112 -15.6074 L 4.71914 -15.6616 L 4.78712 -15.7156 L 4.85505 -15.7695 L 4.92294 -15.8233 L 4.99079 -15.8769 L 5.05859 -15.9304 L 5.12636 -15.9838 L 5.19408 -16.037 L 5.26175 -16.0901 L 5.32939 -16.143 L 5.39699 -16.1959 L 5.46454 -16.2486 L 5.53205 -16.3012 L 5.59952 -16.3536 L 5.66695 -16.406 L 5.73434 -16.4582 L 5.80168 -16.5103 L 5.86899 -16.5623 L 5.93625 -16.6142 L 6.00348 -16.666 L 6.07067 -16.7176 L 6.13781 -16.7692 L 6.20492 -16.8206 L 6.27199 -16.8719 L 6.33902 -16.9232 L 6.406 -16.9743 L 6.47296 -17.0253 L 6.53987 -17.0762 L 6.60674 -17.127 L 6.67358 -17.1778 L 6.74037 -17.2284 L 6.80713 -17.2789 L 6.87386 -17.3293 L 6.94054 -17.3797 L 7.00719 -17.4299 L 7.0738 -17.4801 L 7.14037 -17.5301 L 7.20691 -17.5801 L 7.27295 -17.5529 L 7.33889 -17.5254 L 7.40472 -17.4977 L 7.47045 -17.4698 L 7.53607 -17.4415 L 7.60159 -17.4131 L 7.667 -17.3844 L 7.7323 -17.3554 L 7.79749 -17.3263 L 7.86257 -17.2968 L 7.92754 -17.2671 L 7.9924 -17.2372 L 8.05714 -17.207 L 8.12177 -17.1766 L 8.18629 -17.146 L 8.25069 -17.1151 L 8.31498 -17.0839 L 8.37914 -17.0526 L 8.55868 -16.9632 L 8.62239 -16.9309 L 8.68598 -16.8983 L 8.74945 -16.8656 L 8.81279 -16.8326 L 8.87601 -16.7993 L 8.9391 -16.7658 L 9.00206 -16.7321 L 9.0649 -16.6981 L 9.12761 -16.6639 L 9.1902 -16.6295 L 9.25265 -16.5948 L 9.31497 -16.5599 L 9.37716 -16.5248 L 9.43921 -16.4894 L 9.50114 -16.4538 L 9.56293 -16.418 L 9.62458 -16.3819 L 9.6861 -16.3456 L 9.68632 -16.2624 L 9.68649 -16.1791 L 9.68661 -16.0957 L 9.68668 -16.0123 L 9.68669 -15.9287 L 9.68666 -15.8451 L 9.68657 -15.7614 L 9.68642 -15.6775 L 9.68623 -15.5936 L 9.68597 -15.5097 L 9.68566 -15.4256 L 9.68529 -15.3414 L 9.68486 -15.2571 L 9.68438 -15.1728 L 9.68383 -15.0883 L 9.68322 -15.0038 L 9.68255 -14.9191 L 9.68182 -14.8344 L 9.68102 -14.7495 L 9.68015 -14.6646 L 9.67922 -14.5795 L 9.67822 -14.4944 L 9.67715 -14.4091 L 9.67602 -14.3238 L 9.67481 -14.2383 L 9.67353 -14.1528 L 9.67217 -14.0671 L 9.67074 -13.9813 L 9.66924 -13.8954 L 9.66766 -13.8094 L 9.666 -13.7233 L 9.66426 -13.6371 L 9.66244 -13.5507 L 9.66053 -13.4643 L 9.65855 -13.3777 L 9.65647 -13.291 L 9.65431 -13.2042 L 9.65206 -13.1172 L 9.64972 -13.0302 L 9.6473 -12.943 L 9.64477 -12.8557 L 9.64215 -12.7683 L 9.64215 -12.7683 L 9.72553 -12.7947 L 9.80881 -12.821 L 9.892 -12.8472 L 9.97509 -12.8733 L 10.0581 -12.8993 L 10.141 -12.9251 L 10.2238 -12.9508 L 10.3065 -12.9764 L 10.3892 -13.0019 L 10.4717 -13.0273 L 10.5542 -13.0526 L 10.6366 -13.0777 L 10.7188 -13.1028 L 10.801 -13.1277 L 10.8832 -13.1526 L 10.9652 -13.1773 L 11.0471 -13.202 L 11.129 -13.2265 L 11.2108 -13.251 L 11.2925 -13.2753 L 11.3741 -13.2996 L 11.4557 -13.3238 L 11.5371 -13.3478 L 11.6185 -13.3718 L 11.6998 -13.3957 L 11.7811 -13.4195 L 11.8622 -13.4433 L 11.9433 -13.4669 L 12.0243 -13.4905 L 12.1052 -13.5139 L 12.1861 -13.5373 L 12.2669 -13.5606 L 12.3476 -13.5839 L 12.4282 -13.607 L 12.5088 -13.6301 L 12.5893 -13.6531 L 12.6698 -13.676 L 12.7501 -13.6989 L 12.8304 -13.7216 L 12.9107 -13.7443 L 12.9908 -13.767 L 13.0709 -13.7895 L 13.1227 -13.7403 L 13.1742 -13.6909 L 13.2256 -13.6412 L 13.2768 -13.5914 L 13.3278 -13.5414 L 13.3786 -13.4912 L 13.4292 -13.4408 L 13.4797 -13.3902 L 13.5299 -13.3395 L 13.58 -13.2885 L 13.6298 -13.2374 L 13.6795 -13.186 L 13.729 -13.1345 L 13.7782 -13.0828 L 13.8273 -13.0309 L 13.8762 -12.9788 L 13.9249 -12.9266 L 13.9734 -12.8741 L 14.1085 -12.7259 L 14.1563 -12.6728 L 14.2038 -12.6195 L 14.2512 -12.566 L 14.2983 -12.5123 L 14.3452 -12.4585 L 14.392 -12.4045 L 14.4385 -12.3503 L 14.4848 -12.2959 L 14.531 -12.2414 L 14.5769 -12.1867 L 14.6226 -12.1318 L 14.6681 -12.0767 L 14.7134 -12.0215 L 14.7585 -11.9661 L 14.8034 -11.9105 L 14.848 -11.8548 L 14.8925 -11.7989 L 14.9367 -11.7428 L 14.9069 -11.6651 L 14.877 -11.5874 L 14.8469 -11.5096 L 14.8169 -11.4318 L 14.7867 -11.3539 L 14.7564 -11.2759 L 14.7261 -11.1978 L 14.6957 -11.1197 L 14.6652 -11.0416 L 14.6346 -10.9633 L 14.604 -10.8851 L 14.5732 -10.8067 L 14.5424 -10.7283 L 14.5114 -10.6498 L 14.4804 -10.5712 L 14.4493 -10.4926 L 14.4181 -10.4139 L 14.3868 -10.3352 L 14.3554 -10.2563 L 14.3239 -10.1774 L 14.2923 -10.0985 L 14.2606 -10.0194 L 14.2289 -9.94032 L 14.197 -9.86114 L 14.165 -9.78189 L 14.1329 -9.70257 L 14.1006 -9.62317 L 14.0683 -9.5437 L 14.0359 -9.46415 L 14.0034 -9.38452 L 13.9707 -9.30483 L 13.9379 -9.22505 L 13.905 -9.1452 L 13.872 -9.06526 L 13.8389 -8.98525 L 13.8057 -8.90516 L 13.7723 -8.82499 L 13.7388 -8.74474 L 13.7051 -8.66441 L 13.6714 -8.58399 L 13.6375 -8.5035 L 13.6035 -8.42291 L 13.6035 -8.42291 L 13.6908 -8.41745 L 13.7779 -8.41191 L 13.865 -8.40629 L 13.9519 -8.40058 L 14.0386 -8.3948 L 14.1253 -8.38894 L 14.2118 -8.38301 L 14.2982 -8.377 L 14.3845 -8.37092 L 14.4706 -8.36476 L 14.5566 -8.35854 L 14.6425 -8.35225 L 14.7283 -8.34589 L 14.814 -8.33946 L 14.8995 -8.33297 L 14.9849 -8.32641 L 15.0703 -8.31979 L 15.1555 -8.31311 L 15.2406 -8.30637 L 15.3255 -8.29956 L 15.4104 -8.2927 L 15.4952 -8.28578 L 15.5799 -8.2788 L 15.6644 -8.27177 L 15.7489 -8.26468 L 15.8332 -8.25754 L 15.9175 -8.25035 L 16.0016 -8.2431 L 16.0856 -8.2358 L 16.1696 -8.22845 L 16.2534 -8.22105 L 16.3372 -8.2136 L 16.4209 -8.20611 L 16.5044 -8.19856 L 16.5879 -8.19097 L 16.6713 -8.18334 L 16.7545 -8.17565 L 16.8377 -8.16793 L 16.9208 -8.16016 L 17.0039 -8.15235 L 17.0868 -8.14449 L 17.1696 -8.1366 L 17.2001 -8.07199 L 17.2303 -8.00727 L 17.2603 -7.94244 L 17.29 -7.8775 L 17.3195 -7.81244 L 17.3488 -7.74727 L 17.3778 -7.682 L 17.4065 -7.61661 L 17.435 -7.55112 L 17.4633 -7.48552 L 17.4913 -7.41982 L 17.5191 -7.35401 L 17.5466 -7.2881 L 17.5739 -7.22208 L 17.6009 -7.15596 L 17.6277 -7.08974 L 17.6542 -7.02342 L 17.6805 -6.95701 L 17.753 -6.76999 L 17.7783 -6.7032 L 17.8034 -6.63631 L 17.8282 -6.56934 L 17.8527 -6.50227 L 17.8771 -6.43511 L 17.9011 -6.36786 L 17.9249 -6.30051 L 17.9485 -6.23308 L 17.9718 -6.16556 L 17.9949 -6.09796 L 18.0177 -6.03026 L 18.0402 -5.96248 L 18.0625 -5.89462 L 18.0845 -5.82668 L 18.1063 -5.75865 L 18.1278 -5.69054 L 18.1491 -5.62235 L 18.1701 -5.55408 L 18.1142 -5.49244 L 18.0582 -5.43077 L 18.0021 -5.36907 L 17.9459 -5.30734 L 17.8897 -5.24558 L 17.8333 -5.1838 L 17.7768 -5.12199 L 17.7202 -5.06014 L 17.6636 -4.99827 L 17.6068 -4.93637 L 17.5499 -4.87445 L 17.4929 -4.81249 L 17.4359 -4.7505 L 17.3787 -4.68849 L 17.3214 -4.62644 L 17.264 -4.56437 L 17.2064 -4.50226 L 17.1488 -4.44013 L 17.091 -4.37797 L 17.0332 -4.31578 L 16.9752 -4.25355 L 16.9171 -4.1913 L 16.8589 -4.12902 L 16.8005 -4.06671 L 16.7421 -4.00437 L 16.6835 -3.942 L 16.6248 -3.8796 L 16.5659 -3.81717 L 16.5069 -3.7547 L 16.4478 -3.69221 L 16.3886 -3.62969 L 16.3292 -3.56714 L 16.2697 -3.50456 L 16.21 -3.44195 L 16.1502 -3.37931 L 16.0903 -3.31664 L 16.0302 -3.25394 L 15.97 -3.19121 L 15.9096 -3.12845 L 15.8491 -3.06566 L 15.7884 -3.00284 L 15.7276 -2.93999 L 15.7276 -2.93999 L 15.807 -2.90336 L 15.8863 -2.86671 L 15.9654 -2.83002 L 16.0444 -2.79331 L 16.1232 -2.75658 L 16.2019 -2.71981 L 16.2804 -2.68303 L 16.3588 -2.64622 L 16.437 -2.60938 L 16.5151 -2.57253 L 16.5931 -2.53565 L 16.6709 -2.49875 L 16.7486 -2.46183 L 16.8262 -2.4249 L 16.9036 -2.38794 L 16.9809 -2.35096 L 17.0581 -2.31397 L 17.1351 -2.27696 L 17.212 -2.23993 L 17.2888 -2.20289 L 17.3655 -2.16583 L 17.442 -2.12875 L 17.5184 -2.09166 L 17.5947 -2.05456 L 17.6709 -2.01744 L 17.747 -1.98031 L 17.823 -1.94317 L 17.8988 -1.90602 L 17.9745 -1.86885 L 18.0502 -1.83167 L 18.1257 -1.79448 L 18.2011 -1.75728 L 18.2764 -1.72007 L 18.3516 -1.68285 L 18.4267 -1.64562 L 18.5017 -1.60838 L 18.5765 -1.57113 L 18.6513 -1.53387 L 18.726 -1.49661 L 18.8006 -1.45934 L 18.8751 -1.42206 L 18.9495 -1.38477 L 18.9545 -1.31352 L 18.9593 -1.24225 L 18.9639 -1.17097 L 18.9682 -1.09967 L 18.9722 -1.02835 L 18.9759 -0.95702 L 18.9793 -0.885676 L 18.9825 -0.814319 L 18.9855 -0.74295 L 18.9881 -0.671571 L 18.9905 -0.600183 L 18.9926 -0.528786 L 18.9945 -0.457381 L 18.9961 -0.38597 L 18.9974 -0.314554 L 18.9984 -0.243133 L 18.9992 -0.171709 L 18.9997 -0.100282Z"
id="path1" />
</g>
</svg>
