<?xml version="1.0" encoding="UTF-8" standalone="no"?>
<svg version="1.1">
<g
style="fill:none;stroke:#000000;stroke-opacity:1;stroke-width:0.1">
<path d="M 20.9997 0.112256 L 20.9993 0.172255 L 20.9987 0.232252 L 20.998 0.292247 L 20.997 0.35224 L 20.996 0.41223 L 20.9947 0.472217 L 20.9933 0.5322 L 20.9916 0.592178 L 20.9899 0.652152 L 20.9879 0.71212 L 20.9858 0.772082 L 20.9835 0.832039 L 20.981 0.891988 L 20.9784 0.95193 L 20.9756 1.01186 L 20.9726 1.07179 L 20.9695 1.13171 L 20.9662 1.19162 L 20.9627 1.25151 L 20.959 1.3114 L 20.9552 1.37128 L 20.9512 1.43115 L 20.947 1.491 L 20.8849 1.51763 L 20.8228 1.54425 L 20.7607 1.57087 L 20.6984 1.59749 L 20.6362 1.6241 L 20.5739 1.65071 L 20.5115 1.67732 L 20.4491 1.70392 L 20.3867 1.73052 L 20.3242 1.75711 L 20.2616 1.7837 L 20.199 1.81029 L 20.1364 1.83687 L 20.0737 1.86344 L 20.0109 1.89001 L 19.9481 1.91658 L 19.8853 1.94314 L 19.8224 1.9697 L 19.7594 1.99625 L 19.6964 2.02279 L 19.6333 2.04933 L 19.5702 2.07587 L 19.507 2.10239 L 19.4438 2.12892 L 19.3805 2.15543 L 19.3172 2.18194 L 19.2538 2.20844 L 19.1903 2.23494 L 19.1268 2.26143 L 19.0632 2.28791 L 18.9996 2.31439 L 18.9359 2.34086 L 18.8721 2.36732 L 18.8083 2.39377 L 18.7444 2.42022 L 18.6805 2.44665 L 18.6165 2.47308 L 18.5524 2.4995 L 18.4882 2.52592 L 18.4241 2.55232 L 18.3598 2.57871 L 18.2955 2.6051 L 18.2311 2.63147 L 18.1666 2.65784 L 18.1021 2.6842 L 18.0375 2.71054 L 17.9728 2.73688 L 17.9081 2.7632 L 17.8433 2.78952 L 17.7784 2.81582 L 17.7784 2.81582 L 17.832 2.86088 L 17.8855 2.90594 L 17.9389 2.95098 L 17.9923 2.99601 L 18.0456 3.04103 L 18.0988 3.08603 L 18.1519 3.13103 L 18.205 3.17601 L 18.2581 3.22098 L 18.311 3.26594 L 18.3639 3.31089 L 18.4168 3.35583 L 18.4695 3.40076 L 18.5222 3.44567 L 18.5749 3.49058 L 18.6275 3.53547 L 18.68 3.58035 L 18.7324 3.62522 L 18.7848 3.67007 L 18.8372 3.71492 L 18.8895 3.75975 L 18.9417 3.80457 L 18.9939 3.84938 L 19.046 3.89418 L 19.098 3.93897 L 19.15 3.98375 L 19.202 4.02851 L 19.2539 4.07326 L 19.3057 4.118 L 19.3575 4.16273 L 19.4092 4.20745 L 19.4609 4.25216 L 19.5125 4.29686 L 19.5641 4.34154 L 19.6156 4.38621 L 19.6671 4.43087 L 19.7185 4.47552 L 19.7698 4.52016 L 19.8212 4.56479 L 19.8724 4.60941 L 19.9236 4.65401 L 19.9748 4.6986 L 20.0259 4.74319 L 20.077 4.78776 L 20.1281 4.83232 L 20.179 4.87687 L 20.23 4.92141 L 20.2809 4.96593 L 20.3317 5.01045 L 20.3825 5.05495 L 20.368 5.11317 L 20.3533 5.17134 L 20.3385 5.22947 L 20.3234 5.28756 L 20.3082 5.34561 L 20.2929 5.40361 L 20.2774 5.46157 L 20.2617 5.51948 L 20.2458 5.57735 L 20.2298 5.63517 L 20.2136 5.69295 L 20.1973 5.75068 L 20.1808 5.80836 L 20.1641 5.86599 L 20.1472 5.92358 L 20.1302 5.98112 L 20.1131 6.03861 L 20.0957 6.09605 L 20.0782 6.15344 L 20.0606 6.21078 L 20.0427 6.26808 L 20.0247 6.32531 L 20.0066 6.3825 L 19.9372 6.59603 L 19.9183 6.65296 L 19.8992 6.70984 L 19.8799 6.76667 L 19.8605 6.82344 L 19.841 6.88016 L 19.8212 6.93682 L 19.8013 6.99342 L 19.7813 7.04997 L 19.761 7.10646 L 19.7406 7.16289 L 19.7201 7.21926 L 19.6994 7.27558 L 19.6785 7.33183 L 19.6575 7.38803 L 19.6363 7.44416 L 19.615 7.50023 L 19.5934 7.55625 L 19.5718 7.6122 L 19.5499 7.66808 L 19.528 7.72391 L 19.5058 7.77967 L 19.4835 7.83537 L 19.461 7.89101 L 19.3938 7.89715 L 19.3265 7.90328 L 19.2591 7.90938 L 19.1917 7.91547 L 19.1243 7.92155 L 19.0568 7.9276 L 18.9893 7.93364 L 18.9217 7.93965 L 18.8541 7.94565 L 18.7865 7.95163 L 18.7188 7.95759 L 18.651 7.96353 L 18.5832 7.96945 L 18.5154 7.97535 L 18.4475 7.98123 L 18.3796 7.98709 L 18.3116 7.99293 L 18.2435 7.99874 L 18.1754 8.00454 L 18.1073 8.01031 L 18.0391 8.01606 L 17.9709 8.02179 L 17.9026 8.0275 L 17.8343 8.03318 L 17.7659 8.03884 L 17.6975 8.04448 L 17.629 8.05009 L 17.5604 8.05568 L 17.4918 8.06125 L 17.4232 8.06679 L 17.3545 8.0723 L 17.2857 8.07779 L 17.2169 8.08325 L 17.148 8.08869 L 17.0791 8.0941 L 17.0101 8.09949 L 16.9411 8.10484 L 16.872 8.11017 L 16.8028 8.11547 L 16.7336 8.12074 L 16.6643 8.12599 L 16.595 8.1312 L 16.5256 8.13639 L 16.4561 8.14155 L 16.3866 8.14667 L 16.3171 8.15177 L 16.2474 8.15683 L 16.1777 8.16186 L 16.1079 8.16686 L 16.0381 8.17183 L 16.0381 8.17183 L 16.0751 8.23124 L 16.1121 8.29062 L 16.149 8.34997 L 16.1858 8.40929 L 16.2226 8.46857 L 16.2593 8.52782 L 16.296 8.58704 L 16.3326 8.64623 L 16.3691 8.70539 L 16.4056 8.76452 L 16.442 8.82361 L 16.4784 8.88268 L 16.5147 8.94171 L 16.5509 9.00071 L 16.5871 9.05969 L 16.6232 9.11863 L 16.6593 9.17754 L 16.6954 9.23643 L 16.7313 9.29528 L 16.7673 9.35411 L 16.8031 9.4129 L 16.8389 9.47167 L 16.8747 9.53041 L 16.9104 9.58912 L 16.9461 9.6478 L 16.9817 9.70645 L 17.0173 9.76507 L 17.0528 9.82367 L 17.0883 9.88224 L 17.1237 9.94078 L 17.1591 9.9993 L 17.1944 10.0578 L 17.2297 10.1162 L 17.2649 10.1747 L 17.3001 10.2331 L 17.3353 10.2915 L 17.3704 10.3498 L 17.4054 10.4081 L 17.4404 10.4664 L 17.4754 10.5247 L 17.5103 10.583 L 17.5452 10.6412 L 17.5801 10.6994 L 17.6149 10.7576 L 17.6497 10.8157 L 17.6844 10.8738 L 17.7191 10.9319 L 17.7537 10.99 L 17.7883 11.0481 L 17.8229 11.1061 L 17.7911 11.157 L 17.7591 11.2078 L 17.727 11.2585 L 17.6948 11.3091 L 17.6624 11.3596 L 17.6299 11.41 L 17.5972 11.4603 L 17.5644 11.5105 L 17.5314 11.5607 L 17.4983 11.6107 L 17.4651 11.6607 L 17.4317 11.7105 L 17.3982 11.7603 L 17.3645 11.8099 L 17.3307 11.8595 L 17.2967 11.909 L 17.2626 11.9583 L 17.2284 12.0076 L 17.194 12.0568 L 17.1595 12.1059 L 17.1248 12.1548 L 17.09 12.2037 L 17.0551 12.2525 L 16.9231 12.4341 L 16.8875 12.4824 L 16.8518 12.5306 L 16.8159 12.5787 L 16.7799 12.6267 L 16.7438 12.6746 L 16.7075 12.7224 L 16.6711 12.7701 L 16.6345 12.8177 L 16.5978 12.8651 L 16.561 12.9125 L 16.5241 12.9598 L 16.487 13.0069 L 16.4497 13.054 L 16.4124 13.1009 L 16.3749 13.1478 L 16.3372 13.1945 L 16.2995 13.2411 L 16.2616 13.2876 L 16.2235 13.334 L 16.1854 13.3803 L 16.1471 13.4265 L 16.1087 13.4726 L 16.0701 13.5186 L 16.0042 13.5036 L 15.9383 13.4887 L 15.8724 13.4737 L 15.8064 13.4586 L 15.7404 13.4436 L 15.6744 13.4285 L 15.6083 13.4134 L 15.5422 13.3982 L 15.476 13.383 L 15.4098 13.3678 L 15.3436 13.3525 L 15.2773 13.3373 L 15.211 13.3219 L 15.1447 13.3066 L 15.0783 13.2912 L 15.0118 13.2758 L 14.9454 13.2603 L 14.8789 13.2448 L 14.8123 13.2293 L 14.7458 13.2137 L 14.6791 13.1981 L 14.6125 13.1825 L 14.5458 13.1668 L 14.479 13.1511 L 14.4122 13.1354 L 14.3454 13.1196 L 14.2785 13.1037 L 14.2116 13.0879 L 14.1447 13.072 L 14.0776 13.056 L 14.0106 13.04 L 13.9435 13.024 L 13.8764 13.0079 L 13.8092 12.9918 L 13.742 12.9757 L 13.6747 12.9595 L 13.6074 12.9432 L 13.54 12.927 L 13.4726 12.9106 L 13.4052 12.8943 L 13.3377 12.8778 L 13.2701 12.8614 L 13.2025 12.8449 L 13.1349 12.8283 L 13.0672 12.8117 L 12.9994 12.795 L 12.9316 12.7783 L 12.8638 12.7616 L 12.7959 12.7448 L 12.7279 12.7279 L 12.7279 12.7279 L 12.7448 12.7959 L 12.7616 12.8638 L 12.7783 12.9316 L 12.795 12.9994 L 12.8117 13.0672 L 12.8283 13.1349 L 12.8449 13.2025 L 12.8614 13.2701 L 12.8778 13.3377 L 12.8943 13.4052 L 12.9106 13.4726 L 12.927 13.54 L 12.9432 13.6074 L 12.9595 13.6747 L 12.9757 13.742 L 12.9918 13.8092 L 13.0079 13.8764 L 13.024 13.9435 L 13.04 14.0106 L 13.056 14.0776 L 13.072 14.1447 L 13.0879 14.2116 L 13.1037 14.2785 L 13.1196 14.3454 L 13.1354 14.4122 L 13.1511 14.479 L 13.1668 14.5458 L 13.1825 14.6125 L 13.1981 14.6791 L 13.2137 14.7458 L 13.2293 14.8123 L 13.2448 14.8789 L 13.2603 14.9454 L 13.2758 15.0118 L 13.2912 15.0783 L 13.3066 15.1447 L 13.3219 15.211 L 13.3373 15.2773 L 13.3525 15.3436 L 13.3678 15.4098 L 13.383 15.476 L 13.3982 15.5422 L 13.4134 15.6083 L 13.4285 15.6744 L 13.4436 15.7404 L 13.4586 15.8064 L 13.4737 15.8724 L 13.4887 15.9383 L 13.5036 16.0042 L 13.5186 16.0701 L 13.4726 16.1087 L 13.4265 16.1471 L 13.3803 16.1854 L 13.334 16.2235 L 13.2876 16.2616 L 13.2411 16.2995 L 13.1945 16.3372 L 13.1478 16.3749 L 13.1009 16.4124 L 13.054 16.4497 L 13.0069 16.487 L 12.9598 16.5241 L 12.9125 16.561 L 12.8651 16.5978 L 12.8177 16.6345 L 12.7701 16.6711 L 12.7224 16.7075 L 12.6746 16.7438 L 12.6267 16.7799 L 12.5787 16.8159 L 12.5306 16.8518 L 12.4824 16.8875 L 12.4341 16.9231 L 12.2525 17.0551 L 12.2037 17.09 L 12.1548 17.1248 L 12.1059 17.1595 L 12.0568 17.194 L 12.0076 17.2284 L 11.9583 17.2626 L 11.909 17.2967 L 11.8595 17.3307 L 11.8099 17.3645 L 11.7603 17.3982 L 11.7105 17.4317 L 11.6607 17.4651 L 11.6107 17.4983 L 11.5607 17.5314 L 11.5105 17.5644 L 11.4603 17.5972 L 11.41 17.6299 L 11.3596 17.6624 L 11.3091 17.6948 L 11.2585 17.727 L 11.2078 17.7591 L 11.157 17.7911 L 11.1061 17.8229 L 11.0481 17.7883 L 10.99 17.7537 L 10.9319 17.7191 L 10.8738 17.6844 L 10.8157 17.6497 L 10.7576 17.6149 L 10.6994 17.5801 L 10.6412 17.5452 L 10.583 17.5103 L 10.5247 17.4754 L 10.4664 17.4404 L 10.4081 17.4054 L 10.3498 17.3704 L 10.2915 17.3353 L 10.2331 17.3001 L 10.1747 17.2649 L 10.1162 17.2297 L 10.0578 17.1944 L 9.9993 17.1591 L 9.94078 17.1237 L 9.88224 17.0883 L 9.82367 17.0528 L 9.76507 17.0173 L 9.70645 16.9817 L 9.6478 16.9461 L 9.58912 16.9104 L 9.53041 16.8747 L 9.47167 16.8389 L 9.4129 16.8031 L 9.35411 16.7673 L 9.29528 16.7313 L 9.23643 16.6954 L 9.17754 16.6593 L 9.11863 16.6232 L 9.05969 16.5871 L 9.00071 16.5509 L 8.94171 16.5147 L 8.88268 16.4784 L 8.82361 16.442 L 8.76452 16.4056 L 8.70539 16.3691 L 8.64623 16.3326 L 8.58704 16.296 L 8.52782 16.2593 L 8.46857 16.2226 L 8.40929 16.1858 L 8.34997 16.149 L 8.29062 16.1121 L 8.23124 16.0751 L 8.17183 16.0381 L 8.17183 16.0381 L 8.16686 16.1079 L 8.16186 16.1777 L 8.15683 16.2474 L 8.15177 16.3171 L 8.14667 16.3866 L 8.14155 16.4561 L 8.13639 16.5256 L 8.1312 16.595 L 8.12599 16.6643 L 8.12074 16.7336 L 8.11547 16.8028 L 8.11017 16.872 L 8.10484 16.9411 L 8.09949 17.0101 L 8.0941 17.0791 L 8.08869 17.148 L 8.08325 17.2169 L 8.07779 17.2857 L 8.0723 17.3545 L 8.06679 17.4232 L 8.06125 17.4918 L 8.05568 17.5604 L 8.05009 17.629 L 8.04448 17.6975 L 8.03884 17.7659 L 8.03318 17.8343 L 8.0275 17.9026 L 8.02179 17.9709 L 8.01606 18.0391 L 8.01031 18.1073 L 8.00454 18.1754 L 7.99874 18.2435 L 7.99293 18.3116 L 7.98709 18.3796 L 7.98123 18.4475 L 7.97535 18.5154 L 7.96945 18.5832 L 7.96353 18.651 L 7.95759 18.7188 L 7.95163 18.7865 L 7.94565 18.8541 L 7.93965 18.9217 L 7.93364 18.9893 L 7.9276 19.0568 L 7.92155 19.1243 L 7.91547 19.1917 L 7.90938 19.2591 L 7.90328 19.3265 L 7.89715 19.3938 L 7.89101 19.461 L 7.83537 19.4835 L 7.77967 19.5058 L 7.72391 19.528 L 7.66808 19.5499 L 7.6122 19.5718 L 7.55625 19.5934 L 7.50023 19.615 L 7.44416 19.6363 L 7.38803 19.6575 L 7.33183 19.6785 L 7.27558 19.6994 L 7.21926 19.7201 L 7.16289 19.7406 L 7.10646 19.761 L 7.04997 19.7813 L 6.99342 19.8013 L 6.93682 19.8212 L 6.88016 19.841 L 6.82344 19.8605 L 6.76667 19.8799 L 6.70984 19.8992 L 6.65296 19.9183 L 6.59603 19.9372 L 6.3825 20.0066 L 6.32531 20.0247 L 6.26808 20.0427 L 6.21078 20.0606 L 6.15344 20.0782 L 6.09605 20.0957 L 6.03861 20.1131 L 5.98112 20.1302 L 5.92358 20.1472 L 5.86599 20.1641 L 5.80836 20.1808 L 5.75068 20.1973 L 5.69295 20.2136 L 5.63517 20.2298 L 5.57735 20.2458 L 5.51948 20.2617 L 5.46157 20.2774 L 5.40361 20.2929 L 5.34561 20.3082 L 5.28756 20.3234 L 5.22947 20.3385 L 5.17134 20.3533 L 5.11317 20.368 L 5.05495 20.3825 L 5.01045 20.3317 L 4.96593 20.2809 L 4.92141 20.23 L 4.87687 20.179 L 4.83232 20.1281 L 4.78776 20.077 L 4.74319 20.0259 L 4.6986 19.9748 L 4.65401 19.9236 L 4.60941 19.8724 L 4.56479 19.8212 L 4.52016 19.7698 L 4.47552 19.7185 L 4.43087 19.6671 L 4.38621 19.6156 L 4.34154 19.5641 L 4.29686 19.5125 L 4.25216 19.4609 L 4.20745 19.4092 L 4.16273 19.3575 L 4.118 19.3057 L 4.07326 19.2539 L 4.02851 19.202 L 3.98375 19.15 L 3.93897 19.098 L 3.89418 19.046 L 3.84938 18.9939 L 3.80457 18.9417 L 3.75975 18.8895 L 3.71492 18.8372 L 3.67007 18.7848 L 3.62522 18.7324 L 3.58035 18.68 L 3.53547 18.6275 L 3.49058 18.5749 L 3.44567 18.5222 L 3.40076 18.4695 L 3.35583 18.4168 L 3.31089 18.3639 L 3.26594 18.311 L 3.22098 18.2581 L 3.17601 18.205 L 3.13103 18.1519 L 3.08603 18.0988 L 3.04103 18.0456 L 2.99601 17.9923 L 2.95098 17.9389 L 2.90594 17.8855 L 2.86088 17.832 L 2.81582 17.7784 L 2.81582 17.7784 L 2.78952 17.8433 L 2.7632 17.9081 L 2.73688 17.9728 L 2.71054 18.0375 L 2.6842 18.1021 L 2.65784 18.1666 L 2.63147 18.2311 L 2.6051 18.2955 L 2.57871 18.3598 L 2.55232 18.4241 L 2.52592 18.4882 L 2.4995 18.5524 L 2.47308 18.6165 L 2.44665 18.6805 L 2.42022 18.7444 L 2.39377 18.8083 L 2.36732 18.8721 L 2.34086 18.9359 L 2.31439 18.9996 L 2.28791 19.0632 L 2.26143 19.1268 L 2.23494 19.1903 L 2.20844 19.2538 L 2.18194 19.3172 L 2.15543 19.3805 L 2.12892 19.4438 L 2.10239 19.507 L 2.07587 19.5702 L 2.04933 19.6333 L 2.02279 19.6964 L 1.99625 19.7594 L 1.9697 19.8224 L 1.94314 19.8853 L 1.91658 19.9481 L 1.89001 20.0109 L 1.86344 20.0737 L 1.83687 20.1364 L 1.81029 20.199 L 1.7837 20.2616 L 1.75711 20.3242 L 1.73052 20.3867 L 1.70392 20.4491 L 1.67732 20.5115 L 1.65071 20.5739 L 1.6241 20.6362 L 1.59749 20.6984 L 1.57087 20.7607 L 1.54425 20.8228 L 1.51763 20.8849 L 1.491 20.947 L 1.43115 20.9512 L 1.37128 20.9552 L 1.3114 20.959 L 1.25151 20.9627 L 1.19162 20.9662 L 1.13171 20.9695 L 1.07179 20.9726 L 1.01186 20.9756 L 0.95193 20.9784 L 0.891988 20.981 L 0.832039 20.9835 L 0.772082 20.9858 L 0.71212 20.9879 L 0.652152 20.9899 L 0.592178 20.9916 L 0.5322 20.9933 L 0.472217 20.9947 L 0.41223 20.996 L 0.35224 20.997 L 0.292247 20.998 L 0.232252 20.9987 L 0.172255 20.9993 L 0.112256 20.9997 L -0.112256 20.9997 L -0.172255 20.9993 L -0.232252 20.9987 L -0.292247 20.998 L -0.35224 20.997 L -0.41223 20.996 L -0.472217 20.9947 L -0.5322 20.9933 L -0.592178 20.9916 L -0.652152 20.9899 L -0.71212 20.9879 L -0.772082 20.9858 L -0.832039 20.9835 L -0.891988 20.981 L -0.95193 20.9784 L -1.01186 20.9756 L -1.07179 20.9726 L -1.13171 20.9695 L -1.19162 20.9662 L -1.25151 20.9627 L -1.3114 20.959 L -1.37128 20.9552 L -1.43115 20.9512 L -1.491 20.947 L -1.51763 20.8849 L -1.54425 20.8228 L -1.57087 20.7607 L -1.59749 20.6984 L -1.6241 20.6362 L -1.65071 20.5739 L -1.67732 20.5115 L -1.70392 20.4491 L -1.73052 20.3867 L -1.75711 20.3242 L -1.7837 20.2616 L -1.81029 20.199 L -1.83687 20.1364 L -1.86344 20.0737 L -1.89001 20.0109 L -1.91658 19.9481 L -1.94314 19.8853 L -1.9697 19.8224 L -1.99625 19.7594 L -2.02279 19.6964 L -2.04933 19.6333 L -2.07587 19.5702 L -2.10239 19.507 L -2.12892 19.4438 L -2.15543 19.3805 L -2.18194 19.3172 L -2.20844 19.2538 L -2.23494 19.1903 L -2.26143 19.1268 L -2.28791 19.0632 L -2.31439 18.9996 L -2.34086 18.9359 L -2.36732 18.8721 L -2.39377 18.8083 L -2.42022 18.7444 L -2.44665 18.6805 L -2.47308 18.6165 L -2.4995 18.5524 L -2.52592 18.4882 L -2.55232 18.4241 L -2.57871 18.3598 L -2.6051 18.2955 L -2.63147 18.2311 L -2.65784 18.1666 L -2.6842 18.1021 L -2.71054 18.0375 L -2.73688 17.9728 L -2.7632 17.9081 L -2.78952 17.8433 L -2.81582 17.7784 L -2.81582 17.7784 L -2.86088 17.832 L -2.90594 17.8855 L -2.95098 17.9389 L -2.99601 17.9923 L -3.04103 18.0456 L -3.08603 18.0988 L -3.13103 18.1519 L -3.17601 18.205 L -3.22098 18.2581 L -3.26594 18.311 L -3.31089 18.3639 L -3.35583 18.4168 L -3.40076 18.4695 L -3.44567 18.5222 L -3.49058 18.5749 L -3.53547 18.6275 L -3.58035 18.68 L -3.62522 18.7324 L -3.67007 18.7848 L -3.71492 18.8372 L -3.75975 18.8895 L -3.80457 18.9417 L -3.84938 18.9939 L -3.89418 19.046 L -3.93897 19.098 L -3.98375 19.15 L -4.02851 19.202 L -4.07326 19.2539 L -4.118 19.3057 L -4.16273 19.3575 L -4.20745 19.4092 L -4.25216 19.4609 L -4.29686 19.5125 L -4.34154 19.5641 L -4.38621 19.6156 L -4.43087 19.6671 L -4.47552 19.7185 L -4.52016 19.7698 L -4.56479 19.8212 L -4.60941 19.8724 L -4.65401 19.9236 L -4.6986 19.9748 L -4.74319 20.0259 L -4.78776 20.077 L -4.83232 20.1281 L -4.87687 20.179 L -4.92141 20.23 L -4.96593 20.2809 L -5.01045 20.3317 L -5.05495 20.3825 L -5.11317 20.368 L -5.17134 20.3533 L -5.22947 20.3385 L -5.28756 20.3234 L -5.34561 20.3082 L -5.40361 20.2929 L -5.46157 20.2774 L -5.51948 20.2617 L -5.57735 20.2458 L -5.63517 20.2298 L -5.69295 20.2136 L -5.75068 20.1973 L -5.80836 20.1808 L -5.86599 20.1641 L -5.92358 20.1472 L -5.98112 20.1302 L -6.03861 20.1131 L -6.09605 20.0957 L -6.15344 20.0782 L -6.21078 20.0606 L -6.26808 20.0427 L -6.32531 20.0247 L -6.3825 20.0066 L -6.59603 19.9372 L -6.65296 19.9183 L -6.70984 19.8992 L -6.76667 19.8799 L -6.82344 19.8605 L -6.88016 19.841 L -6.93682 19.8212 L -6.99342 19.8013 L -7.04997 19.7813 L -7.10646 19.761 L -7.16289 19.7406 L -7.21926 19.7201 L -7.27558 19.6994 L -7.33183 19.6785 L -7.38803 19.6575 L -7.44416 19.6363 L -7.50023 19.615 L -7.55625 19.5934 L -7.6122 19.5718 L -7.66808 19.5499 L -7.72391 19.528 L -7.77967 19.5058 L -7.83537 19.4835 L -7.89101 19.461 L -7.89715 19.3938 L -7.90328 19.3265 L -7.90938 19.2591 L -7.91547 19.1917 L -7.92155 19.1243 L -7.9276 19.0568 L -7.93364 18.9893 L -7.93965 18.9217 L -7.94565 18.8541 L -7.95163 18.7865 L -7.95759 18.7188 L -7.96353 18.651 L -7.96945 18.5832 L -7.97535 18.5154 L -7.98123 18.4475 L -7.98709 18.3796 L -7.99293 18.3116 L -7.99874 18.2435 L -8.00454 18.1754 L -8.01031 18.1073 L -8.01606 18.0391 L -8.02179 17.9709 L -8.0275 17.9026 L -8.03318 17.8343 L -8.03884 17.7659 L -8.04448 17.6975 L -8.05009 17.629 L -8.05568 17.5604 L -8.06125 17.4918 L -8.06679 17.4232 L -8.0723 17.3545 L -8.07779 17.2857 L -8.08325 17.2169 L -8.08869 17.148 L -8.0941 17.0791 L -8.09949 17.0101 L -8.10484 16.9411 L -8.11017 16.872 L -8.11547 16.8028 L -8.12074 16.7336 L -8.12599 16.6643 L -8.1312 16.595 L -8.13639 16.5256 L -8.14155 16.4561 L -8.14667 16.3866 L -8.15177 16.3171 L -8.15683 16.2474 L -8.16186 16.1777 L -8.16686 16.1079 L -8.17183 16.0381 L -8.17183 16.0381 L -8.23124 16.0751 L -8.29062 16.1121 L -8.34997 16.149 L -8.40929 16.1858 L -8.46857 16.2226 L -8.52782 16.2593 L -8.58704 16.296 L -8.64623 16.3326 L -8.70539 16.3691 L -8.76452 16.4056 L -8.82361 16.442 L -8.88268 16.4784 L -8.94171 16.5147 L -9.00071 16.5509 L -9.05969 16.5871 L -9.11863 16.6232 L -9.17754 16.6593 L -9.23643 16.6954 L -9.29528 16.7313 L -9.35411 16.7673 L -9.4129 16.8031 L -9.47167 16.8389 L -9.53041 16.8747 L -9.58912 16.9104 L -9.6478 16.9461 L -9.70645 16.9817 L -9.76507 17.0173 L -9.82367 17.0528 L -9.88224 17.0883 L -9.94078 17.1237 L -9.9993 17.1591 L -10.0578 17.1944 L -10.1162 17.2297 L -10.1747 17.2649 L -10.2331 17.3001 L -10.2915 17.3353 L -10.3498 17.3704 L -10.4081 17.4054 L -10.4664 17.4404 L -10.5247 17.4754 L -10.583 17.5103 L -10.6412 17.5452 L -10.6994 17.5801 L -10.7576 17.6149 L -10.8157 17.6497 L -10.8738 17.6844 L -10.9319 17.7191 L -10.99 17.7537 L -11.0481 17.7883 L -11.1061 17.8229 L -11.157 17.7911 L -11.2078 17.7591 L -11.2585 17.727 L -11.3091 17.6948 L -11.3596 17.6624 L -11.41 17.6299 L -11.4603 17.5972 L -11.5105 17.5644 L -11.5607 17.5314 L -11.6107 17.4983 L -11.6607 17.4651 L -11.7105 17.4317 L -11.7603 17.3982 L -11.8099 17.3645 L -11.8595 17.3307 L -11.909 17.2967 L -11.9583 17.2626 L -12.0076 17.2284 L -12.0568 17.194 L -12.1059 17.1595 L -12.1548 17.1248 L -12.2037 17.09 L -12.2525 17.0551 L -12.4341 16.9231 L -12.4824 16.8875 L -12.5306 16.8518 L -12.5787 16.8159 L -12.6267 16.7799 L -12.6746 16.7438 L -12.7224 16.7075 L -12.7701 16.6711 L -12.8177 16.6345 L -12.8651 16.5978 L -12.9125 16.561 L -12.9598 16.5241 L -13.0069 16.487 L -13.054 16.4497 L -13.1009 16.4124 L -13.1478 16.3749 L -13.1945 16.3372 L -13.2411 16.2995 L -13.2876 16.2616 L -13.334 16.2235 L -13.3803 16.1854 L -13.4265 16.1471 L -13.4726 16.1087 L -13.5186 16.0701 L -13.5036 16.0042 L -13.4887 15.9383 L -13.4737 15.8724 L -13.4586 15.8064 L -13.4436 15.7404 L -13.4285 15.6744 L -13.4134 15.6083 L -13.3982 15.5422 L -13.383 15.476 L -13.3678 15.4098 L -13.3525 15.3436 L -13.3373 15.2773 L -13.3219 15.211 L -13.3066 15.1447 L -13.2912 15.0783 L -13.2758 15.0118 L -13.2603 14.9454 L -13.2448 14.8789 L -13.2293 14.8123 L -13.2137 14.7458 L -13.1981 14.6791 L -13.1825 14.6125 L -13.1668 14.5458 L -13.1511 14.479 L -13.1354 14.4122 L -13.1196 14.3454 L -13.1037 14.2785 L -13.0879 14.2116 L -13.072 14.1447 L -13.056 14.0776 L -13.04 14.0106 L -13.024 13.9435 L -13.0079 13.8764 L -12.9918 13.8092 L -12.9757 13.742 L -12.9595 13.6747 L -12.9432 13.6074 L -12.927 13.54 L -12.9106 13.4726 L -12.8943 13.4052 L -12.8778 13.3377 L -12.8614 13.2701 L -12.8449 13.2025 L -12.8283 13.1349 L -12.8117 13.0672 L -12.795 12.9994 L -12.7783 12.9316 L -12.7616 12.8638 L -12.7448 12.7959 L -12.7279 12.7279 L -12.7279 12.7279 L -12.7959 12.7448 L -12.8638 12.7616 L -12.9316 12.7783 L -12.9994 12.795 L -13.0672 12.8117 L -13.1349 12.8283 L -13.2025 12.8449 L -13.2701 12.8614 L -13.3377 12.8778 L -13.4052 12.8943 L -13.4726 12.9106 L -13.54 12.927 L -13.6074 12.9432 L -13.6747 12.9595 L -13.742 12.9757 L -13.8092 12.9918 L -13.8764 13.0079 L -13.9435 13.024 L -14.0106 13.04 L -14.0776 13.056 L -14.1447 13.072 L -14.2116 13.0879 L -14.2785 13.1037 L -14.3454 13.1196 L -14.4122 13.1354 L -14.479 13.1511 L -14.5458 13.1668 L -14.6125 13.1825 L -14.6791 13.1981 L -14.7458 13.2137 L -14.8123 13.2293 L -14.8789 13.2448 L -14.9454 13.2603 L -15.0118 13.2758 L -15.0783 13.2912 L -15.1447 13.3066 L -15.211 13.3219 L -15.2773 13.3373 L -15.3436 13.3525 L -15.4098 13.3678 L -15.476 13.383 L -15.5422 13.3982 L -15.6083 13.4134 L -15.6744 13.4285 L -15.7404 13.4436 L -15.8064 13.4586 L -15.8724 13.4737 L -15.9383 13.4887 L -16.0042 13.5036 L -16.0701 13.5186 L -16.1087 13.4726 L -16.1471 13.4265 L -16.1854 13.3803 L -16.2235 13.334 L -16.2616 13.2876 L -16.2995 13.2411 L -16.3372 13.1945 L -16.3749 13.1478 L -16.4124 13.1009 L -16.4497 13.054 L -16.487 13.0069 L -16.5241 12.9598 L -16.561 12.9125 L -16.5978 12.8651 L -16.6345 12.8177 L -16.6711 12.7701 L -16.7075 12.7224 L -16.7438 12.6746 L -16.7799 12.6267 L -16.8159 12.5787 L -16.8518 12.5306 L -16.8875 12.4824 L -16.9231 12.4341 L -17.0551 12.2525 L -17.09 12.2037 L -17.1248 12.1548 L -17.1595 12.1059 L -17.194 12.0568 L -17.2284 12.0076 L -17.2626 11.9583 L -17.2967 11.909 L -17.3307 11.8595 L -17.3645 11.8099 L -17.3982 11.7603 L -17.4317 11.7105 L -17.4651 11.6607 L -17.4983 11.6107 L -17.5314 11.5607 L -17.5644 11.5105 L -17.5972 11.4603 L -17.6299 11.41 L -17.6624 11.3596 L -17.6948 11.3091 L -17.727 11.2585 L -17.7591 11.2078 L -17.7911 11.157 L -17.8229 11.1061 L -17.7883 11.0481 L -17.7537 10.99 L -17.7191 10.9319 L -17.6844 10.8738 L -17.6497 10.8157 L -17.6149 10.7576 L -17.5801 10.6994 L -17.5452 10.6412 L -17.5103 10.583 L -17.4754 10.5247 L -17.4404 10.4664 L -17.4054 10.4081 L -17.3704 10.3498 L -17.3353 10.2915 L -17.3001 10.2331 L -17.2649 10.1747 L -17.2297 10.1162 L -17.1944 10.0578 L -17.1591 9.9993 L -17.1237 9.94078 L -17.0883 9.88224 L -17.0528 9.82367 L -17.0173 9.76507 L -16.9817 9.70645 L -16.9461 9.6478 L -16.9104 9.58912 L -16.8747 9.53041 L -16.8389 9.47167 L -16.8031 9.4129 L -16.7673 9.35411 L -16.7313 9.29528 L -16.6954 9.23643 L -16.6593 9.17754 L -16.6232 9.11863 L -16.5871 9.05969 L -16.5509 9.00071 L -16.5147 8.94171 L -16.4784 8.88268 L -16.442 8.82361 L -16.4056 8.76452 L -16.3691 8.70539 L -16.3326 8.64623 L -16.296 8.58704 L -16.2593 8.52782 L -16.2226 8.46857 L -16.1858 8.40929 L -16.149 8.34997 L -16.1121 8.29062 L -16.0751 8.23124 L -16.0381 8.17183 L -16.0381 8.17183 L -16.1079 8.16686 L -16.1777 8.16186 L -16.2474 8.15683 L -16.3171 8.15177 L -16.3866 8.14667 L -16.4561 8.14155 L -16.5256 8.13639 L -16.595 8.1312 L -16.6643 8.12599 L -16.7336 8.12074 L -16.8028 8.11547 L -16.872 8.11017 L -16.9411 8.10484 L -17.0101 8.09949 L -17.0791 8.0941 L -17.148 8.08869 L -17.2169 8.08325 L -17.2857 8.07779 L -17.3545 8.0723 L -17.4232 8.06679 L -17.4918 8.06125 L -17.5604 8.05568 L -17.629 8.05009 L -17.6975 8.04448 L -17.7659 8.03884 L -17.8343 8.03318 L -17.9026 8.0275 L -17.9709 8.02179 L -18.0391 8.01606 L -18.1073 8.01031 L -18.1754 8.00454 L -18.2435 7.99874 L -18.3116 7.99293 L -18.3796 7.98709 L -18.4475 7.98123 L -18.5154 7.97535 L -18.5832 7.96945 L -18.651 7.96353 L -18.7188 7.95759 L -18.7865 7.95163 L -18.8541 7.94565 L -18.9217 7.93965 L -18.9893 7.93364 L -19.0568 7.9276 L -19.1243 7.92155 L -19.1917 7.91547 L -19.2591 7.90938 L -19.3265 7.90328 L -19.3938 7.89715 L -19.461 7.89101 L -19.4835 7.83537 L -19.5058 7.77967 L -19.528 7.72391 L -19.5499 7.66808 L -19.5718 7.6122 L -19.5934 7.55625 L -19.615 7.50023 L -19.6363 7.44416 L -19.6575 7.38803 L -19.6785 7.33183 L -19.6994 7.27558 L -19.7201 7.21926 L -19.7406 7.16289 L -19.761 7.10646 L -19.7813 7.04997 L -19.8013 6.99342 L -19.8212 6.93682 L -19.841 6.88016 L -19.8605 6.82344 L -19.8799 6.76667 L -19.8992 6.70984 L -19.9183 6.65296 L -19.9372 6.59603 L -20.0066 6.3825 L -20.0247 6.32531 L -20.0427 6.26808 L -20.0606 6.21078 L -20.0782 6.15344 L -20.0957 6.09605 L -20.1131 6.03861 L -20.1302 5.98112 L -20.1472 5.92358 L -20.1641 5.86599 L -20.1808 5.80836 L -20.1973 5.75068 L -20.2136 5.69295 L -20.2298 5.63517 L -20.2458 5.57735 L -20.2617 5.51948 L -20.2774 5.46157 L -20.2929 5.40361 L -20.3082 5.34561 L -20.3234 5.28756 L -20.3385 5.22947 L -20.3533 5.17134 L -20.368 5.11317 L -20.3825 5.05495 L -20.3317 5.01045 L -20.2809 4.96593 L -20.23 4.92141 L -20.179 4.87687 L -20.1281 4.83232 L -20.077 4.78776 L -20.0259 4.74319 L -19.9748 4.6986 L -19.9236 4.65401 L -19.8724 4.60941 L -19.8212 4.56479 L -19.7698 4.52016 L -19.7185 4.47552 L -19.6671 4.43087 L -19.6156 4.38621 L -19.5641 4.34154 L -19.5125 4.29686 L -19.4609 4.25216 L -19.4092 4.20745 L -19.3575 4.16273 L -19.3057 4.118 L -19.2539 4.07326 L -19.202 4.02851 L -19.15 3.98375 L -19.098 3.93897 L -19.046 3.89418 L -18.9939 3.84938 L -18.9417 3.80457 L -18.8895 3.75975 L -18.8372 3.71492 L -18.7848 3.67007 L -18.7324 3.62522 L -18.68 3.58035 L -18.6275 3.53547 L -18.5749 3.49058 L -18.5222 3.44567 L -18.4695 3.40076 L -18.4168 3.35583 L -18.3639 3.31089 L -18.311 3.26594 L -18.2581 3.22098 L -18.205 3.17601 L -18.1519 3.13103 L -18.0988 3.08603 L -18.0456 3.04103 L -17.9923 2.99601 L -17.9389 2.95098 L -17.8855 2.90594 L -17.832 2.86088 L -17.7784 2.81582 L -17.7784 2.81582 L -17.8433 2.78952 L -17.9081 2.7632 L -17.9728 2.73688 L -18.0375 2.71054 L -18.1021 2.6842 L -18.1666 2.65784 L -18.2311 2.63147 L -18.2955 2.6051 L -18.3598 2.57871 L -18.4241 2.55232 L -18.4882 2.52592 L -18.5524 2.4995 L -18.6165 2.47308 L -18.6805 2.44665 L -18.7444 2.42022 L -18.8083 2.39377 L -18.8721 2.36732 L -18.9359 2.34086 L -18.9996 2.31439 L -19.0632 2.28791 L -19.1268 2.26143 L -19.1903 2.23494 L -19.2538 2.20844 L -19.3172 2.18194 L -19.3805 2.15543 L -19.4438 2.12892 L -19.507 2.10239 L -19.5702 2.07587 L -19.6333 2.04933 L -19.6964 2.02279 L -19.7594 1.99625 L -19.8224 1.9697 L -19.8853 1.94314 L -19.9481 1.91658 L -20.0109 1.89001 L -20.0737 1.86344 L -20.1364 1.83687 L -20.199 1.81029 L -20.2616 1.7837 L -20.3242 1.75711 L -20.3867 1.73052 L -20.4491 1.70392 L -20.5115 1.67732 L -20.5739 1.65071 L -20.6362 1.6241 L -20.6984 1.59749 L -20.7607 1.57087 L -20.8228 1.54425 L -20.8849 1.51763 L -20.947 1.491 L -20.9512 1.43115 L -20.9552 1.37128 L -20.959 1.3114 L -20.9627 1.25151 L -20.9662 1.19162 L -20.9695 1.13171 L -20.9726 1.07179 L -20.9756 1.01186 L -20.9784 0.95193 L -20.981 0.891988 L -20.9835 0.832039 L -20.9858 0.772082 L -20.9879 0.71212 L -20.9899 0.652152 L -20.9916 0.592178 L -20.9933 0.5322 L -20.9947 0.472217 L -20.996 0.41223 L -20.997 0.35224 L -20.998 0.292247 L -20.9987 0.232252 L -20.9993 0.172255 L -20.9997 0.112256 L -20.9997 -0.112256 L -20.9993 -0.172255 L -20.9987 -0.232252 L -20.998 -0.292247 L -20.997 -0.35224 L -20.996 -0.41223 L -20.9947 -0.472217 L -20.9933 -0.5322 L -20.9916 -0.592178 L -20.9899 -0.652152 L -20.9879 -0.71212 L -20.9858 -0.772082 L -20.9835 -0.832039 L -20.981 -0.891988 L -20.9784 -0.95193 L -20.9756 -1.01186 L -20.9726 -1.07179 L -20.9695 -1.13171 L -20.9662 -1.19162 L -20.9627 -1.25151 L -20.959 -1.3114 L -20.9552 -1.37128 L -20.9512 -1.43115 L -20.947 -1.491 L -20.8849 -1.51763 L -20.8228 -1.54425 L -20.7607 -1.57087 L -20.6984 -1.59749 L -20.6362 -1.6241 L -20.5739 -1.65071 L -20.5115 -1.67732 L -20.4491 -1.70392 L -20.3867 -1.73052 L -20.3242 -1.75711 L -20.2616 -1.7837 L -20.199 -1.81029 L -20.1364 -1.83687 L -20.0737 -1.86344 L -20.0109 -1.89001 L -19.9481 -1.91658 L -19.8853 -1.94314 L -19.8224 -1.9697 L -19.7594 -1.99625 L -19.6964 -2.02279 L -19.6333 -2.04933 L -19.5702 -2.07587 L -19.507 -2.10239 L -19.4438 -2.12892 L -19.3805 -2.15543 L -19.3172 -2.18194 L -19.2538 -2.20844 L -19.1903 -2.23494 L -19.1268 -2.26143 L -19.0632 -2.28791 L -18.9996 -2.31439 L -18.9359 -2.34086 L -18.8721 -2.36732 L -18.8083 -2.39377 L -18.7444 -2.42022 L -18.6805 -2.44665 L -18.6165 -2.47308 L -18.5524 -2.4995 L -18.4882 -2.52592 L -18.4241 -2.55232 L -18.3598 -2.57871 L -18.2955 -2.6051 L -18.2311 -2.63147 L -18.1666 -2.65784 L -18.1021 -2.6842 L -18.0375 -2.71054 L -17.9728 -2.73688 L -17.9081 -2.7632 L -17.8433 -2.78952 L -17.7784 -2.81582 L -17.7784 -2.81582 L -17.832 -2.86088 L -17.8855 -2.90594 L -17.9389 -2.95098 L -17.9923 -2.99601 L -18.0456 -3.04103 L -18.0988 -3.08603 L -18.1519 -3.13103 L -18.205 -3.17601 L -18.2581 -3.22098 L -18.311 -3.26594 L -18.3639 -3.31089 L -18.4168 -3.35583 L -18.4695 -3.40076 L -18.5222 -3.44567 L -18.5749 -3.49058 L -18.6275 -3.53547 L -18.68 -3.58035 L -18.7324 -3.62522 L -18.7848 -3.67007 L -18.8372 -3.71492 L -18.8895 -3.75975 L -18.9417 -3.80457 L -18.9939 -3.84938 L -19.046 -3.89418 L -19.098 -3.93897 L -19.15 -3.98375 L -19.202 -4.02851 L -19.2539 -4.07326 L -19.3057 -4.118 L -19.3575 -4.16273 L -19.4092 -4.20745 L -19.4609 -4.25216 L -19.5125 -4.29686 L -19.5641 -4.34154 L -19.6156 -4.38621 L -19.6671 -4.43087 L -19.7185 -4.47552 L -19.7698 -4.52016 L -19.8212 -4.56479 L -19.8724 -4.60941 L -19.9236 -4.65401 L -19.9748 -4.6986 L -20.0259 -4.74319 L -20.077 -4.78776 L -20.1281 -4.83232 L -20.179 -4.87687 L -20.23 -4.92141 L -20.2809 -4.96593 L -20.3317 -5.01045 L -20.3825 -5.05495 L -20.368 -5.11317 L -20.3533 -5.17134 L -20.3385 -5.22947 L -20.3234 -5.28756 L -20.3082 -5.34561 L -20.2929 -5.40361 L -20.2774 -5.46157 L -20.2617 -5.51948 L -20.2458 -5.57735 L -20.2298 -5.63517 L -20.2136 -5.69295 L -20.1973 -5.75068 L -20.1808 -5.80836 L -20.1641 -5.86599 L -20.1472 -5.92358 L -20.1302 -5.98112 L -20.1131 -6.03861 L -20.0957 -6.09605 L -20.0782 -6.15344 L -20.0606 -6.21078 L -20.0427 -6.26808 L -20.0247 -6.32531 L -20.0066 -6.3825 L -19.9372 -6.59603 L -19.9183 -6.65296 L -19.8992 -6.70984 L -19.8799 -6.76667 L -19.8605 -6.82344 L -19.841 -6.88016 L -19.8212 -6.93682 L -19.8013 -6.99342 L -19.7813 -7.04997 L -19.761 -7.10646 L -19.7406 -7.16289 L -19.7201 -7.21926 L -19.6994 -7.27558 L -19.6785 -7.33183 L -19.6575 -7.38803 L -19.6363 -7.44416 L -19.615 -7.50023 L -19.5934 -7.55625 L -19.5718 -7.6122 L -19.5499 -7.66808 L -19.528 -7.72391 L -19.5058 -7.77967 L -19.4835 -7.83537 L -19.461 -7.89101 L -19.3938 -7.89715 L -19.3265 -7.90328 L -19.2591 -7.90938 L -19.1917 -7.91547 L -19.1243 -7.92155 L -19.0568 -7.9276 L -18.9893 -7.93364 L -18.9217 -7.93965 L -18.8541 -7.94565 L -18.7865 -7.95163 L -18.7188 -7.95759 L -18.651 -7.96353 L -18.5832 -7.96945 L -18.5154 -7.97535 L -18.4475 -7.98123 L -18.3796 -7.98709 L -18.3116 -7.99293 L -18.2435 -7.99874 L -18.1754 -8.00454 L -18.1073 -8.01031 L -18.0391 -8.01606 L -17.9709 -8.02179 L -17.9026 -8.0275 L -17.8343 -8.03318 L -17.7659 -8.03884 L -17.6975 -8.04448 L -17.629 -8.05009 L -17.5604 -8.05568 L -17.4918 -8.06125 L -17.4232 -8.06679 L -17.3545 -8.0723 L -17.2857 -8.07779 L -17.2169 -8.08325 L -17.148 -8.08869 L -17.0791 -8.0941 L -17.0101 -8.09949 L -16.9411 -8.10484 L -16.872 -8.11017 L -16.8028 -8.11547 L -16.7336 -8.12074 L -16.6643 -8.12599 L -16.595 -8.1312 L -16.5256 -8.13639 L -16.4561 -8.14155 L -16.3866 -8.14667 L -16.3171 -8.15177 L -16.2474 -8.15683 L -16.1777 -8.16186 L -16.1079 -8.16686 L -16.0381 -8.17183 L -16.0381 -8.17183 L -16.0751 -8.23124 L -16.1121 -8.29062 L -16.149 -8.34997 L -16.1858 -8.40929 L -16.2226 -8.46857 L -16.2593 -8.52782 L -16.296 -8.58704 L -16.3326 -8.64623 L -16.3691 -8.70539 L -16.4056 -8.76452 L -16.442 -8.82361 L -16.4784 -8.88268 L -16.5147 -8.94171 L -16.5509 -9.00071 L -16.5871 -9.05969 L -16.6232 -9.11863 L -16.6593 -9.17754 L -16.6954 -9.23643 L -16.7313 -9.29528 L -16.7673 -9.35411 L -16.8031 -9.4129 L -16.8389 -9.47167 L -16.8747 -9.53041 L -16.9104 -9.58912 L -16.9461 -9.6478 L -16.9817 -9.70645 L -17.0173 -9.76507 L -17.0528 -9.82367 L -17.0883 -9.88224 L -17.1237 -9.94078 L -17.1591 -9.9993 L -17.1944 -10.0578 L -17.2297 -10.1162 L -17.2649 -10.1747 L -17.3001 -10.2331 L -17.3353 -10.2915 L -17.3704 -10.3498 L -17.4054 -10.4081 L -17.4404 -10.4664 L -17.4754 -10.5247 L -17.5103 -10.583 L -17.5452 -10.6412 L -17.5801 -10.6994 L -17.6149 -10.7576 L -17.6497 -10.8157 L -17.6844 -10.8738 L -17.7191 -10.9319 L -17.7537 -10.99 L -17.7883 -11.0481 L -17.8229 -11.1061 L -17.7911 -11.157 L -17.7591 -11.2078 L -17.727 -11.2585 L -17.6948 -11.3091 L -17.6624 -11.3596 L -17.6299 -11.41 L -17.5972 -11.4603 L -17.5644 -11.5105 L -17.5314 -11.5607 L -17.4983 -11.6107 L -17.4651 -11.6607 L -17.4317 -11.7105 L -17.3982 -11.7603 L -17.3645 -11.8099 L -17.3307 -11.8595 L -17.2967 -11.909 L -17.2626 -11.9583 L -17.2284 -12.0076 L -17.194 -12.0568 L -17.1595 -12.1059 L -17.1248 -12.1548 L -17.09 -12.2037 L -17.0551 -12.2525 L -16.9231 -12.4341 L -16.8875 -12.4824 L -16.8518 -12.5306 L -16.8159 -12.5787 L -16.7799 -12.6267 L -16.7438 -12.6746 L -16.7075 -12.7224 L -16.6711 -12.7701 L -16.6345 -12.8177 L -16.5978 -12.8651 L -16.561 -12.9125 L -16.5241 -12.9598 L -16.487 -13.0069 L -16.4497 -13.054 L -16.4124 -13.1009 L -16.3749 -13.1478 L -16.3372 -13.1945 L -16.2995 -13.2411 L -16.2616 -13.2876 L -16.2235 -13.334 L -16.1854 -13.3803 L -16.1471 -13.4265 L -16.1087 -13.4726 L -16.0701 -13.5186 L -16.0042 -13.5036 L -15.9383 -13.4887 L -15.8724 -13.4737 L -15.8064 -13.4586 L -15.7404 -13.4436 L -15.6744 -13.4285 L -15.6083 -13.4134 L -15.5422 -13.3982 L -15.476 -13.383 L -15.4098 -13.3678 L -15.3436 -13.3525 L -15.2773 -13.3373 L -15.211 -13.3219 L -15.1447 -13.3066 L -15.0783 -13.2912 L -15.0118 -13.2758 L -14.9454 -13.2603 L -14.8789 -13.2448 L -14.8123 -13.2293 L -14.7458 -13.2137 L -14.6791 -13.1981 L -14.6125 -13.1825 L -14.5458 -13.1668 L -14.479 -13.1511 L -14.4122 -13.1354 L -14.3454 -13.1196 L -14.2785 -13.1037 L -14.2116 -13.0879 L -14.1447 -13.072 L -14.0776 -13.056 L -14.0106 -13.04 L -13.9435 -13.024 L -13.8764 -13.0079 L -13.8092 -12.9918 L -13.742 -12.9757 L -13.6747 -12.9595 L -13.6074 -12.9432 L -13.54 -12.927 L -13.4726 -12.9106 L -13.4052 -12.8943 L -13.3377 -12.8778 L -13.2701 -12.8614 L -13.2025 -12.8449 L -13.1349 -12.8283 L -13.0672 -12.8117 L -12.9994 -12.795 L -12.9316 -12.7783 L -12.8638 -12.7616 L -12.7959 -12.7448 L -12.7279 -12.7279 L -12.7279 -12.7279 L -12.7448 -12.7959 L -12.7616 -12.8638 L -12.7783 -12.9316 L -12.795 -12.9994 L -12.8117 -13.0672 L -12.8283 -13.1349 L -12.8449 -13.2025 L -12.8614 -13.2701 L -12.8778 -13.3377 L -12.8943 -13.4052 L -12.9106 -13.4726 L -12.927 -13.54 L -12.9432 -13.6074 L -12.9595 -13.6747 L -12.9757 -13.742 L -12.9918 -13.8092 L -13.0079 -13.8764 L -13.024 -13.9435 L -13.04 -14.0106 L -13.056 -14.0776 L -13.072 -14.1447 L -13.0879 -14.2116 L -13.1037 -14.2785 L -13.1196 -14.3454 L -13.1354 -14.4122 L -13.1511 -14.479 L -13.1668 -14.5458 L -13.1825 -14.6125 L -13.1981 -14.6791 L -13.2137 -14.7458 L -13.2293 -14.8123 L -13.2448 -14.8789 L -13.2603 -14.9454 L -13.2758 -15.0118 L -13.2912 -15.0783 L -13.3066 -15.1447 L -13.3219 -15.211 L -13.3373 -15.2773 L -13.3525 -15.3436 L -13.3678 -15.4098 L -13.383 -15.476 L -13.3982 -15.5422 L -13.4134 -15.6083 L -13.4285 -15.6744 L -13.4436 -15.7404 L -13.4586 -15.8064 L -13.4737 -15.8724 L -13.4887 -15.9383 L -13.5036 -16.0042 L -13.5186 -16.0701 L -13.4726 -16.1087 L -13.4265 -16.1471 L -13.3803 -16.1854 L -13.334 -16.2235 L -13.2876 -16.2616 L -13.2411 -16.2995 L -13.1945 -16.3372 L -13.1478 -16.3749 L -13.1009 -16.4124 L -13.054 -16.4497 L -13.0069 -16.487 L -12.9598 -16.5241 L -12.9125 -16.561 L -12.8651 -16.5978 L -12.8177 -16.6345 L -12.7701 -16.6711 L -12.7224 -16.7075 L -12.6746 -16.7438 L -12.6267 -16.7799 L -12.5787 -16.8159 L -12.5306 -16.8518 L -12.4824 -16.8875 L -12.4341 -16.9231 L -12.2525 -17.0551 L -12.2037 -17.09 L -12.1548 -17.1248 L -12.1059 -17.1595 L -12.0568 -17.194 L -12.0076 -17.2284 L -11.9583 -17.2626 L -11.909 -17.2967 L -11.8595 -17.3307 L -11.8099 -17.3645 L -11.7603 -17.3982 L -11.7105 -17.4317 L -11.6607 -17.4651 L -11.6107 -17.4983 L -11.5607 -17.5314 L -11.5105 -17.5644 L -11.4603 -17.5972 L -11.41 -17.6299 L -11.3596 -17.6624 L -11.3091 -17.6948 L -11.2585 -17.727 L -11.2078 -17.7591 L -11.157 -17.7911 L -11.1061 -17.8229 L -11.0481 -17.7883 L -10.99 -17.7537 L -10.9319 -17.7191 L -10.8738 -17.6844 L -10.8157 -17.6497 L -10.7576 -17.6149 L -10.6994 -17.5801 L -10.6412 -17.5452 L -10.583 -17.5103 L -10.5247 -17.4754 L -10.4664 -17.4404 L -10.4081 -17.4054 L -10.3498 -17.3704 L -10.2915 -17.3353 L -10.2331 -17.3001 L -10.1747 -17.2649 L -10.1162 -17.2297 L -10.0578 -17.1944 L -9.9993 -17.1591 L -9.94078 -17.1237 L -9.88224 -17.0883 L -9.82367 -17.0528 L -9.76507 -17.0173 L -9.70645 -16.9817 L -9.6478 -16.9461 L -9.58912 -16.9104 L -9.53041 -16.8747 L -9.47167 -16.8389 L -9.4129 -16.8031 L -9.35411 -16.7673 L -9.29528 -16.7313 L -9.23643 -16.6954 L -9.17754 -16.6593 L -9.11863 -16.6232 L -9.05969 -16.5871 L -9.00071 -16.5509 L -8.94171 -16.5147 L -8.88268 -16.4784 L -8.82361 -16.442 L -8.76452 -16.4056 L -8.70539 -16.3691 L -8.64623 -16.3326 L -8.58704 -16.296 L -8.52782 -16.2593 L -8.46857 -16.2226 L -8.40929 -16.1858 L -8.34997 -16.149 L -8.29062 -16.1121 L -8.23124 -16.0751 L -8.17183 -16.0381 L -8.17183 -16.0381 L -8.16686 -16.1079 L -8.16186 -16.1777 L -8.15683 -16.2474 L -8.15177 -16.3171 L -8.14667 -16.3866 L -8.14155 -16.4561 L -8.13639 -16.5256 L -8.1312 -16.595 L -8.12599 -16.6643 L -8.12074 -16.7336 L -8.11547 -16.8028 L -8.11017 -16.872 L -8.10484 -16.9411 L -8.09949 -17.0101 L -8.0941 -17.0791 L -8.08869 -17.148 L -8.08325 -17.2169 L -8.07779 -17.2857 L -8.0723 -17.3545 L -8.06679 -17.4232 L -8.06125 -17.4918 L -8.05568 -17.5604 L -8.05009 -17.629 L -8.04448 -17.6975 L -8.03884 -17.7659 L -8.03318 -17.8343 L -8.0275 -17.9026 L -8.02179 -17.9709 L -8.01606 -18.0391 L -8.01031 -18.1073 L -8.00454 -18.1754 L -7.99874 -18.2435 L -7.99293 -18.3116 L -7.98709 -18.3796 L -7.98123 -18.4475 L -7.97535 -18.5154 L -7.96945 -18.5832 L -7.96353 -18.651 L -7.95759 -18.7188 L -7.95163 -18.7865 L -7.94565 -18.8541 L -7.93965 -18.9217 L -7.93364 -18.9893 L -7.9276 -19.0568 L -7.92155 -19.1243 L -7.91547 -19.1917 L -7.90938 -19.2591 L -7.90328 -19.3265 L -7.89715 -19.3938 L -7.89101 -19.461 L -7.83537 -19.4835 L -7.77967 -19.5058 L -7.72391 -19.528 L -7.66808 -19.5499 L -7.6122 -19.5718 L -7.55625 -19.5934 L -7.50023 -19.615 L -7.44416 -19.6363 L -7.38803 -19.6575 L -7.33183 -19.6785 L -7.27558 -19.6994 L -7.21926 -19.7201 L -7.16289 -19.7406 L -7.10646 -19.761 L -7.04997 -19.7813 L -6.99342 -19.8013 L -6.93682 -19.8212 L -6.88016 -19.841 L -6.82344 -19.8605 L -6.76667 -19.8799 L -6.70984 -19.8992 L -6.65296 -19.9183 L -6.59603 -19.9372 L -6.3825 -20.0066 L -6.32531 -20.0247 L -6.26808 -20.0427 L -6.21078 -20.0606 L -6.15344 -20.0782 L -6.09605 -20.0957 L -6.03861 -20.1131 L -5.98112 -20.1302 L -5.92358 -20.1472 L -5.86599 -20.1641 L -5.80836 -20.1808 L -5.75068 -20.1973 L -5.69295 -20.2136 L -5.63517 -20.2298 L -5.57735 -20.2458 L -5.51948 -20.2617 L -5.46157 -20.2774 L -5.40361 -20.2929 L -5.34561 -20.3082 L -5.28756 -20.3234 L -5.22947 -20.3385 L -5.17134 -20.3533 L -5.11317 -20.368 L -5.05495 -20.3825 L -5.01045 -20.3317 L -4.96593 -20.2809 L -4.92141 -20.23 L -4.87687 -20.179 L -4.83232 -20.1281 L -4.78776 -20.077 L -4.74319 -20.0259 L -4.6986 -19.9748 L -4.65401 -19.9236 L -4.60941 -19.8724 L -4.56479 -19.8212 L -4.52016 -19.7698 L -4.47552 -19.7185 L -4.43087 -19.6671 L -4.38621 -19.6156 L -4.34154 -19.5641 L -4.29686 -19.5125 L -4.25216 -19.4609 L -4.20745 -19.4092 L -4.16273 -19.3575 L -4.118 -19.3057 L -4.07326 -19.2539 L -4.02851 -19.202 L -3.98375 -19.15 L -3.93897 -19.098 L -3.89418 -19.046 L -3.84938 -18.9939 L -3.80457 -18.9417 L -3.75975 -18.8895 L -3.71492 -18.8372 L -3.67007 -18.7848 L -3.62522 -18.7324 L -3.58035 -18.68 L -3.53547 -18.6275 L -3.49058 -18.5749 L -3.44567 -18.5222 L -3.40076 -18.4695 L -3.35583 -18.4168 L -3.31089 -18.3639 L -3.26594 -18.311 L -3.22098 -18.2581 L -3.17601 -18.205 L -3.13103 -18.1519 L -3.08603 -18.0988 L -3.04103 -18.0456 L -2.99601 -17.9923 L -2.95098 -17.9389 L -2.90594 -17.8855 L -2.86088 -17.832 L -2.81582 -17.7784 L -2.81582 -17.7784 L -2.78952 -17.8433 L -2.7632 -17.9081 L -2.73688 -17.9728 L -2.71054 -18.0375 L -2.6842 -18.1021 L -2.65784 -18.1666 L -2.63147 -18.2311 L -2.6051 -18.2955 L -2.57871 -18.3598 L -2.55232 -18.4241 L -2.52592 -18.4882 L -2.4995 -18.5524 L -2.47308 -18.6165 L -2.44665 -18.6805 L -2.42022 -18.7444 L -2.39377 -18.8083 L -2.36732 -18.8721 L -2.34086 -18.9359 L -2.31439 -18.9996 L -2.28791 -19.0632 L -2.26143 -19.1268 L -2.23494 -19.1903 L -2.20844 -19.2538 L -2.18194 -19.3172 L -2.15543 -19.3805 L -2.12892 -19.4438 L -2.10239 -19.507 L -2.07587 -19.5702 L -2.04933 -19.6333 L -2.02279 -19.6964 L -1.99625 -19.7594 L -1.9697 -19.8224 L -1.94314 -19.8853 L -1.91658 -19.9481 L -1.89001 -20.0109 L -1.86344 -20.0737 L -1.83687 -20.1364 L -1.81029 -20.199 L -1.7837 -20.2616 L -1.75711 -20.3242 L -1.73052 -20.3867 L -1.70392 -20.4491 L -1.67732 -20.5115 L -1.65071 -20.5739 L -1.6241 -20.6362 L -1.59749 -20.6984 L -1.57087 -20.7607 L -1.54425 -20.8228 L -1.51763 -20.8849 L -1.491 -20.947 L -1.43115 -20.9512 L -1.37128 -20.9552 L -1.3114 -20.959 L -1.25151 -20.9627 L -1.19162 -20.9662 L -1.13171 -20.9695 L -1.07179 -20.9726 L -1.01186 -20.9756 L -0.95193 -20.9784 L -0.891988 -20.981 L -0.832039 -20.9835 L -0.772082 -20.9858 L -0.71212 -20.9879 L -0.652152 -20.9899 L -0.592178 -20.9916 L -0.5322 -20.9933 L -0.472217 -20.9947 L -0.41223 -20.996 L -0.35224 -20.997 L -0.292247 -20.998 L -0.232252 -20.9987 L -0.172255 -20.9993 L -0.112256 -20.9997 L 0.112256 -20.9997 L 0.172255 -20.9993 L 0.232252 -20.9987 L 0.292247 -20.998 L 0.35224 -20.997 L 0.41223 -20.996 L 0.472217 -20.9947 L 0.5322 -20.9933 L 0.592178 -20.9916 L 0.652152 -20.9899 L 0.71212 -20.9879 L 0.772082 -20.9858 L 0.832039 -20.9835 L 0.891988 -20.981 L 0.95193 -20.9784 L 1.01186 -20.9756 L 1.07179 -20.9726 L 1.13171 -20.9695 L 1.19162 -20.9662 L 1.25151 -20.9627 L 1.3114 -20.959 L 1.37128 -20.9552 L 1.43115 -20.9512 L 1.491 -20.947 L 1.51763 -20.8849 L 1.54425 -20.8228 L 1.57087 -20.7607 L 1.59749 -20.6984 L 1.6241 -20.6362 L 1.65071 -20.5739 L 1.67732 -20.5115 L 1.70392 -20.4491 L 1.73052 -20.3867 L 1.75711 -20.3242 L 1.7837 -20.2616 L 1.81029 -20.199 L 1.83687 -20.1364 L 1.86344 -20.0737 L 1.89001 -20.0109 L 1.91658 -19.9481 L 1.94314 -19.8853 L 1.9697 -19.8224 L 1.99625 -19.7594 L 2.02279 -19.6964 L 2.04933 -19.6333 L 2.07587 -19.5702 L 2.10239 -19.507 L 2.12892 -19.4438 L 2.15543 -19.3805 L 2.18194 -19.3172 L 2.20844 -19.2538 L 2.23494 -19.1903 L 2.26143 -19.1268 L 2.28791 -19.0632 L 2.31439 -18.9996 L 2.34086 -18.9359 L 2.36732 -18.8721 L 2.39377 -18.8083 L 2.42022 -18.7444 L 2.44665 -18.6805 L 2.47308 -18.6165 L 2.4995 -18.5524 L 2.52592 -18.4882 L 2.55232 -18.4241 L 2.57871 -18.3598 L 2.6051 -18.2955 L 2.63147 -18.2311 L 2.65784 -18.1666 L 2.6842 -18.1021 L 2.71054 -18.0375 L 2.73688 -17.9728 L 2.7632 -17.9081 L 2.78952 -17.8433 L 2.81582 -17.7784 L 2.81582 -17.7784 L 2.86088 -17.832 L 2.90594 -17.8855 L 2.95098 -17.9389 L 2.99601 -17.9923 L 3.04103 -18.0456 L 3.08603 -18.0988 L 3.13103 -18.1519 L 3.17601 -18.205 L 3.22098 -18.2581 L 3.26594 -18.311 L 3.31089 -18.3639 L 3.35583 -18.4168 L 3.40076 -18.4695 L 3.44567 -18.5222 L 3.49058 -18.5749 L 3.53547 -18.6275 L 3.58035 -18.68 L 3.62522 -18.7324 L 3.67007 -18.7848 L 3.71492 -18.8372 L 3.75975 -18.8895 L 3.80457 -18.9417 L 3.84938 -18.9939 L 3.89418 -19.046 L 3.93897 -19.098 L 3.98375 -19.15 L 4.02851 -19.202 L 4.07326 -19.2539 L 4.118 -19.3057 L 4.16273 -19.3575 L 4.20745 -19.4092 L 4.25216 -19.4609 L 4.29686 -19.5125 L 4.34154 -19.5641 L 4.38621 -19.6156 L 4.43087 -19.6671 L 4.47552 -19.7185 L 4.52016 -19.7698 L 4.56479 -19.8212 L 4.60941 -19.8724 L 4.65401 -19.9236 L 4.6986 -19.9748 L 4.74319 -20.0259 L 4.78776 -20.077 L 4.83232 -20.1281 L 4.87687 -20.179 L 4.92141 -20.23 L 4.96593 -20.2809 L 5.01045 -20.3317 L 5.05495 -20.3825 L 5.11317 -20.368 L 5.17134 -20.3533 L 5.22947 -20.3385 L 5.28756 -20.3234 L 5.34561 -20.3082 L 5.40361 -20.2929 L 5.46157 -20.2774 L 5.51948 -20.2617 L 5.57735 -20.2458 L 5.63517 -20.2298 L 5.69295 -20.2136 L 5.75068 -20.1973 L 5.80836 -20.1808 L 5.86599 -20.1641 L 5.92358 -20.1472 L 5.98112 -20.1302 L 6.03861 -20.1131 L 6.09605 -20.0957 L 6.15344 -20.0782 L 6.21078 -20.0606 L 6.26808 -20.0427 L 6.32531 -20.0247 L 6.3825 -20.0066 L 6.59603 -19.9372 L 6.65296 -19.9183 L 6.70984 -19.8992 L 6.76667 -19.8799 L 6.82344 -19.8605 L 6.88016 -19.841 L 6.93682 -19.8212 L 6.99342 -19.8013 L 7.04997 -19.7813 L 7.10646 -19.761 L 7.16289 -19.7406 L 7.21926 -19.7201 L 7.27558 -19.6994 L 7.33183 -19.6785 L 7.38803 -19.6575 L 7.44416 -19.6363 L 7.50023 -19.615 L 7.55625 -19.5934 L 7.6122 -19.5718 L 7.66808 -19.5499 L 7.72391 -19.528 L 7.77967 -19.5058 L 7.83537 -19.4835 L 7.89101 -19.461 L 7.89715 -19.3938 L 7.90328 -19.3265 L 7.90938 -19.2591 L 7.91547 -19.1917 L 7.92155 -19.1243 L 7.9276 -19.0568 L 7.93364 -18.9893 L 7.93965 -18.9217 L 7.94565 -18.8541 L 7.95163 -18.7865 L 7.95759 -18.7188 L 7.96353 -18.651 L 7.96945 -18.5832 L 7.97535 -18.5154 L 7.98123 -18.4475 L 7.98709 -18.3796 L 7.99293 -18.3116 L 7.99874 -18.2435 L 8.00454 -18.1754 L 8.01031 -18.1073 L 8.01606 -18.0391 L 8.02179 -17.9709 L 8.0275 -17.9026 L 8.03318 -17.8343 L 8.03884 -17.7659 L 8.04448 -17.6975 L 8.05009 -17.629 L 8.05568 -17.5604 L 8.06125 -17.4918 L 8.06679 -17.4232 L 8.0723 -17.3545 L 8.07779 -17.2857 L 8.08325 -17.2169 L 8.08869 -17.148 L 8.0941 -17.0791 L 8.09949 -17.0101 L 8.10484 -16.9411 L 8.11017 -16.872 L 8.11547 -16.8028 L 8.12074 -16.7336 L 8.12599 -16.6643 L 8.1312 -16.595 L 8.13639 -16.5256 L 8.14155 -16.4561 L 8.14667 -16.3866 L 8.15177 -16.3171 L 8.15683 -16.2474 L 8.16186 -16.1777 L 8.16686 -16.1079 L 8.17183 -16.0381 L 8.17183 -16.0381 L 8.23124 -16.0751 L 8.29062 -16.1121 L 8.34997 -16.149 L 8.40929 -16.1858 L 8.46857 -16.2226 L 8.52782 -16.2593 L 8.58704 -16.296 L 8.64623 -16.3326 L 8.70539 -16.3691 L 8.76452 -16.4056 L 8.82361 -16.442 L 8.88268 -16.4784 L 8.94171 -16.5147 L 9.00071 -16.5509 L 9.05969 -16.5871 L 9.11863 -16.6232 L 9.17754 -16.6593 L 9.23643 -16.6954 L 9.29528 -16.7313 L 9.35411 -16.7673 L 9.4129 -16.8031 L 9.47167 -16.8389 L 9.53041 -16.8747 L 9.58912 -16.9104 L 9.6478 -16.9461 L 9.70645 -16.9817 L 9.76507 -17.0173 L 9.82367 -17.0528 L 9.88224 -17.0883 L 9.94078 -17.1237 L 9.9993 -17.1591 L 10.0578 -17.1944 L 10.1162 -17.2297 L 10.1747 -17.2649 L 10.2331 -17.3001 L 10.2915 -17.3353 L 10.3498 -17.3704 L 10.4081 -17.4054 L 10.4664 -17.4404 L 10.5247 -17.4754 L 10.583 -17.5103 L 10.6412 -17.5452 L 10.6994 -17.5801 L 10.7576 -17.6149 L 10.8157 -17.6497 L 10.8738 -17.6844 L 10.9319 -17.7191 L 10.99 -17.7537 L 11.0481 -17.7883 L 11.1061 -17.8229 L 11.157 -17.7911 L 11.2078 -17.7591 L 11.2585 -17.727 L 11.3091 -17.6948 L 11.3596 -17.6624 L 11.41 -17.6299 L 11.4603 -17.5972 L 11.5105 -17.5644 L 11.5607 -17.5314 L 11.6107 -17.4983 L 11.6607 -17.4651 L 11.7105 -17.4317 L 11.7603 -17.3982 L 11.8099 -17.3645 L 11.8595 -17.3307 L 11.909 -17.2967 L 11.9583 -17.2626 L 12.0076 -17.2284 L 12.0568 -17.194 L 12.1059 -17.1595 L 12.1548 -17.1248 L 12.2037 -17.09 L 12.2525 -17.0551 L 12.4341 -16.9231 L 12.4824 -16.8875 L 12.5306 -16.8518 L 12.5787 -16.8159 L 12.6267 -16.7799 L 12.6746 -16.7438 L 12.7224 -16.7075 L 12.7701 -16.6711 L 12.8177 -16.6345 L 12.8651 -16.5978 L 12.9125 -16.561 L 12.9598 -16.5241 L 13.0069 -16.487 L 13.054 -16.4497 L 13.1009 -16.4124 L 13.1478 -16.3749 L 13.1945 -16.3372 L 13.2411 -16.2995 L 13.2876 -16.2616 L 13.334 -16.2235 L 13.3803 -16.1854 L 13.4265 -16.1471 L 13.4726 -16.1087 L 13.5186 -16.0701 L 13.5036 -16.0042 L 13.4887 -15.9383 L 13.4737 -15.8724 L 13.4586 -15.8064 L 13.4436 -15.7404 L 13.4285 -15.6744 L 13.4134 -15.6083 L 13.3982 -15.5422 L 13.383 -15.476 L 13.3678 -15.4098 L 13.3525 -15.3436 L 13.3373 -15.2773 L 13.3219 -15.211 L 13.3066 -15.1447 L 13.2912 -15.0783 L 13.2758 -15.0118 L 13.2603 -14.9454 L 13.2448 -14.8789 L 13.2293 -14.8123 L 13.2137 -14.7458 L 13.1981 -14.6791 L 13.1825 -14.6125 L 13.1668 -14.5458 L 13.1511 -14.479 L 13.1354 -14.4122 L 13.1196 -14.3454 L 13.1037 -14.2785 L 13.0879 -14.2116 L 13.072 -14.1447 L 13.056 -14.0776 L 13.04 -14.0106 L 13.024 -13.9435 L 13.0079 -13.8764 L 12.9918 -13.8092 L 12.9757 -13.742 L 12.9595 -13.6747 L 12.9432 -13.6074 L 12.927 -13.54 L 12.9106 -13.4726 L 12.8943 -13.4052 L 12.8778 -13.3377 L 12.8614 -13.2701 L 12.8449 -13.2025 L 12.8283 -13.1349 L 12.8117 -13.0672 L 12.795 -12.9994 L 12.7783 -12.9316 L 12.7616 -12.8638 L 12.7448 -12.7959 L 12.7279 -12.7279 L 12.7279 -12.7279 L 12.7959 -12.7448 L 12.8638 -12.7616 L 12.9316 -12.7783 L 12.9994 -12.795 L 13.0672 -12.8117 L 13.1349 -12.8283 L 13.2025 -12.8449 L 13.2701 -12.8614 L 13.3377 -12.8778 L 13.4052 -12.8943 L 13.4726 -12.9106 L 13.54 -12.927 L 13.6074 -12.9432 L 13.6747 -12.9595 L 13.742 -12.9757 L 13.8092 -12.9918 L 13.8764 -13.0079 L 13.9435 -13.024 L 14.0106 -13.04 L 14.0776 -13.056 L 14.1447 -13.072 L 14.2116 -13.0879 L 14.2785 -13.1037 L 14.3454 -13.1196 L 14.4122 -13.1354 L 14.479 -13.1511 L 14.5458 -13.1668 L 14.6125 -13.1825 L 14.6791 -13.1981 L 14.7458 -13.2137 L 14.8123 -13.2293 L 14.8789 -13.2448 L 14.9454 -13.2603 L 15.0118 -13.2758 L 15.0783 -13.2912 L 15.1447 -13.3066 L 15.211 -13.3219 L 15.2773 -13.3373 L 15.3436 -13.3525 L 15.4098 -13.3678 L 15.476 -13.383 L 15.5422 -13.3982 L 15.6083 -13.4134 L 15.6744 -13.4285 L 15.7404 -13.4436 L 15.8064 -13.4586 L 15.8724 -13.4737 L 15.9383 -13.4887 L 16.0042 -13.5036 L 16.0701 -13.5186 L 16.1087 -13.4726 L 16.1471 -13.4265 L 16.1854 -13.3803 L 16.2235 -13.334 L 16.2616 -13.2876 L 16.2995 -13.2411 L 16.3372 -13.1945 L 16.3749 -13.1478 L 16.4124 -13.1009 L 16.4497 -13.054 L 16.487 -13.0069 L 16.5241 -12.9598 L 16.561 -12.9125 L 16.5978 -12.8651 L 16.6345 -12.8177 L 16.6711 -12.7701 L 16.7075 -12.7224 L 16.7438 -12.6746 L 16.7799 -12.6267 L 16.8159 -12.5787 L 16.8518 -12.5306 L 16.8875 -12.4824 L 16.9231 -12.4341 L 17.0551 -12.2525 L 17.09 -12.2037 L 17.1248 -12.1548 L 17.1595 -12.1059 L 17.194 -12.0568 L 17.2284 -12.0076 L 17.2626 -11.9583 L 17.2967 -11.909 L 17.3307 -11.8595 L 17.3645 -11.8099 L 17.3982 -11.7603 L 17.4317 -11.7105 L 17.4651 -11.6607 L 17.4983 -11.6107 L 17.5314 -11.5607 L 17.5644 -11.5105 L 17.5972 -11.4603 L 17.6299 -11.41 L 17.6624 -11.3596 L 17.6948 -11.3091 L 17.727 -11.2585 L 17.7591 -11.2078 L 17.7911 -11.157 L 17.8229 -11.1061 L 17.7883 -11.0481 L 17.7537 -10.99 L 17.7191 -10.9319 L 17.6844 -10.8738 L 17.6497 -10.8157 L 17.6149 -10.7576 L 17.5801 -10.6994 L 17.5452 -10.6412 L 17.5103 -10.583 L 17.4754 -10.5247 L 17.4404 -10.4664 L 17.4054 -10.4081 L 17.3704 -10.3498 L 17.3353 -10.2915 L 17.3001 -10.2331 L 17.2649 -10.1747 L 17.2297 -10.1162 L 17.1944 -10.0578 L 17.1591 -9.9993 L 17.1237 -9.94078 L 17.0883 -9.88224 L 17.0528 -9.82367 L 17.0173 -9.76507 L 16.9817 -9.70645 L 16.9461 -9.6478 L 16.9104 -9.58912 L 16.8747 -9.53041 L 16.8389 -9.47167 L 16.8031 -9.4129 L 16.7673 -9.35411 L 16.7313 -9.29528 L 16.6954 -9.23643 L 16.6593 -9.17754 L 16.6232 -9.11863 L 16.5871 -9.05969 L 16.5509 -9.00071 L 16.5147 -8.94171 L 16.4784 -8.88268 L 16.442 -8.82361 L 16.4056 -8.76452 L 16.3691 -8.70539 L 16.3326 -8.64623 L 16.296 -8.58704 L 16.2593 -8.52782 L 16.2226 -8.46857 L 16.1858 -8.40929 L 16.149 -8.34997 L 16.1121 -8.29062 L 16.0751 -8.23124 L 16.0381 -8.17183 L 16.0381 -8.17183 L 16.1079 -8.16686 L 16.1777 -8.16186 L 16.2474 -8.15683 L 16.3171 -8.15177 L 16.3866 -8.14667 L 16.4561 -8.14155 L 16.5256 -8.13639 L 16.595 -8.1312 L 16.6643 -8.12599 L 16.7336 -8.12074 L 16.8028 -8.11547 L 16.872 -8.11017 L 16.9411 -8.10484 L 17.0101 -8.09949 L 17.0791 -8.0941 L 17.148 -8.08869 L 17.2169 -8.08325 L 17.2857 -8.07779 L 17.3545 -8.0723 L 17.4232 -8.06679 L 17.4918 -8.06125 L 17.5604 -8.05568 L 17.629 -8.05009 L 17.6975 -8.04448 L 17.7659 -8.03884 L 17.8343 -8.03318 L 17.9026 -8.0275 L 17.9709 -8.02179 L 18.0391 -8.01606 L 18.1073 -8.01031 L 18.1754 -8.00454 L 18.2435 -7.99874 L 18.3116 -7.99293 L 18.3796 -7.98709 L 18.4475 -7.98123 L 18.5154 -7.97535 L 18.5832 -7.96945 L 18.651 -7.96353 L 18.7188 -7.95759 L 18.7865 -7.95163 L 18.8541 -7.94565 L 18.9217 -7.93965 L 18.9893 -7.93364 L 19.0568 -7.9276 L 19.1243 -7.92155 L 19.1917 -7.91547 L 19.2591 -7.90938 L 19.3265 -7.90328 L 19.3938 -7.89715 L 19.461 -7.89101 L 19.4835 -7.83537 L 19.5058 -7.77967 L 19.528 -7.72391 L 19.5499 -7.66808 L 19.5718 -7.6122 L 19.5934 -7.55625 L 19.615 -7.50023 L 19.6363 -7.44416 L 19.6575 -7.38803 L 19.6785 -7.33183 L 19.6994 -7.27558 L 19.7201 -7.21926 L 19.7406 -7.16289 L 19.761 -7.10646 L 19.7813 -7.04997 L 19.8013 -6.99342 L 19.8212 -6.93682 L 19.841 -6.88016 L 19.8605 -6.82344 L 19.8799 -6.76667 L 19.8992 -6.70984 L 19.9183 -6.65296 L 19.9372 -6.59603 L 20.0066 -6.3825 L 20.0247 -6.32531 L 20.0427 -6.26808 L 20.0606 -6.21078 L 20.0782 -6.15344 L 20.0957 -6.09605 L 20.1131 -6.03861 L 20.1302 -5.98112 L 20.1472 -5.92358 L 20.1641 -5.86599 L 20.1808 -5.80836 L 20.1973 -5.75068 L 20.2136 -5.69295 L 20.2298 -5.63517 L 20.2458 -5.57735 L 20.2617 -5.51948 L 20.2774 -5.46157 L 20.2929 -5.40361 L 20.3082 -5.34561 L 20.3234 -5.28756 L 20.3385 -5.22947 L 20.3533 -5.17134 L 20.368 -5.11317 L 20.3825 -5.05495 L 20.3317 -5.01045 L 20.2809 -4.96593 L 20.23 -4.92141 L 20.179 -4.87687 L 20.1281 -4.83232 L 20.077 -4.78776 L 20.0259 -4.74319 L 19.9748 -4.6986 L 19.9236 -4.65401 L 19.8724 -4.60941 L 19.8212 -4.56479 L 19.7698 -4.52016 L 19.7185 -4.47552 L 19.6671 -4.43087 L 19.6156 -4.38621 L 19.5641 -4.34154 L 19.5125 -4.29686 L 19.4609 -4.25216 L 19.4092 -4.20745 L 19.3575 -4.16273 L 19.3057 -4.118 L 19.2539 -4.07326 L 19.202 -4.02851 L 19.15 -3.98375 L 19.098 -3.93897 L 19.046 -3.89418 L 18.9939 -3.84938 L 18.9417 -3.80457 L 18.8895 -3.75975 L 18.8372 -3.71492 L 18.7848 -3.67007 L 18.7324 -3.62522 L 18.68 -3.58035 L 18.6275 -3.53547 L 18.5749 -3.49058 L 18.5222 -3.44567 L 18.4695 -3.40076 L 18.4168 -3.35583 L 18.3639 -3.31089 L 18.311 -3.26594 L 18.2581 -3.22098 L 18.205 -3.17601 L 18.1519 -3.13103 L 18.0988 -3.08603 L 18.0456 -3.04103 L 17.9923 -2.99601 L 17.9389 -2.95098 L 17.8855 -2.90594 L 17.832 -2.86088 L 17.7784 -2.81582 L 17.7784 -2.81582 L 17.8433 -2.78952 L 17.9081 -2.7632 L 17.9728 -2.73688 L 18.0375 -2.71054 L 18.1021 -2.6842 L 18.1666 -2.65784 L 18.2311 -2.63147 L 18.2955 -2.6051 L 18.3598 -2.57871 L 18.4241 -2.55232 L 18.4882 -2.52592 L 18.5524 -2.4995 L 18.6165 -2.47308 L 18.6805 -2.44665 L 18.7444 -2.42022 L 18.8083 -2.39377 L 18.8721 -2.36732 L 18.9359 -2.34086 L 18.9996 -2.31439 L 19.0632 -2.28791 L 19.1268 -2.26143 L 19.1903 -2.23494 L 19.2538 -2.20844 L 19.3172 -2.18194 L 19.3805 -2.15543 L 19.4438 -2.12892 L 19.507 -2.10239 L 19.5702 -2.07587 L 19.6333 -2.04933 L 19.6964 -2.02279 L 19.7594 -1.99625 L 19.8224 -1.9697 L 19.8853 -1.94314 L 19.9481 -1.91658 L 20.0109 -1.89001 L 20.0737 -1.86344 L 20.1364 -1.83687 L 20.199 -1.81029 L 20.2616 -1.7837 L 20.3242 -1.75711 L 20.3867 -1.73052 L 20.4491 -1.70392 L 20.5115 -1.67732 L 20.5739 -1.65071 L 20.6362 -1.6241 L 20.6984 -1.59749 L 20.7607 -1.57087 L 20.8228 -1.54425 L 20.8849 -1.51763 L 20.947 -1.491 L 20.9512 -1.43115 L 20.9552 -1.37128 L 20.959 -1.3114 L 20.9627 -1.25151 L 20.9662 -1.19162 L 20.9695 -1.13171 L 20.9726 -1.07179 L 20.9756 -1.01186 L 20.9784 -0.95193 L 20.981 -0.891988 L 20.9835 -0.832039 L 20.9858 -0.772082 L 20.9879 -0.71212 L 20.9899 -0.652152 L 20.9916 -0.592178 L 20.9933 -0.5322 L 20.9947 -0.472217 L 20.996 -0.41223 L 20.997 -0.35224 L 20.998 -0.292247 L 20.9987 -0.232252 L 20.9993 -0.172255 L 20.9997 -0.112256Z"
id="path1" />
</g>
</svg>
