<?xml version="1.0" encoding="UTF-8" standalone="no"?>
<svg version="1.1">
<g
style="fill:none;stroke:#000000;stroke-opacity:1;stroke-width:0.1">
<path d="M 23.4999 0.0707962 L 23.4997 0.120796 L 23.4994 0.170795 L 23.499 0.220793 L 23.4984 0.27079 L 23.4978 0.320786 L 23.4971 0.370781 L 23.4962 0.420774 L 23.4953 0.470765 L 23.4942 0.520754 L 23.4931 0.57074 L 23.4918 0.620724 L 23.4904 0.670705 L 23.4889 0.720683 L 23.4874 0.770658 L 23.4857 0.820629 L 23.4839 0.870597 L 23.482 0.920561 L 23.48 0.97052 L 23.4778 1.02048 L 23.4756 1.07043 L 23.4733 1.12037 L 23.4708 1.17031 L 23.4683 1.22025 L 23.4656 1.27018 L 23.4629 1.3201 L 23.46 1.37002 L 23.4571 1.41993 L 23.454 1.46984 L 23.4508 1.51974 L 23.4475 1.56963 L 23.3962 1.58812 L 23.3448 1.60662 L 23.2934 1.62511 L 23.242 1.64361 L 23.1905 1.6621 L 23.139 1.68059 L 23.0876 1.69908 L 23.0361 1.71756 L 22.9845 1.73605 L 22.933 1.75453 L 22.8814 1.77301 L 22.8298 1.79149 L 22.7782 1.80997 L 22.7266 1.82845 L 22.6749 1.84692 L 22.6232 1.8654 L 22.5715 1.88387 L 22.5198 1.90234 L 22.468 1.9208 L 22.4163 1.93927 L 22.3645 1.95773 L 22.3127 1.97619 L 22.2608 1.99465 L 22.2089 2.01311 L 22.1571 2.03157 L 22.1051 2.05002 L 22.0532 2.06847 L 22.0012 2.08692 L 21.9493 2.10536 L 21.8972 2.12381 L 21.8452 2.14225 L 21.7932 2.16069 L 21.7411 2.17912 L 21.689 2.19756 L 21.6368 2.21599 L 21.5847 2.23442 L 21.5325 2.25284 L 21.4803 2.27127 L 21.428 2.28969 L 21.3757 2.3081 L 21.3235 2.32652 L 21.2711 2.34493 L 21.2188 2.36334 L 21.1664 2.38175 L 21.114 2.40015 L 21.0616 2.41855 L 21.0091 2.43695 L 20.9567 2.45534 L 20.9041 2.47373 L 20.8516 2.49212 L 20.799 2.5105 L 20.7464 2.52888 L 20.6938 2.54726 L 20.6412 2.56563 L 20.5885 2.584 L 20.5358 2.60236 L 20.483 2.62072 L 20.4303 2.63908 L 20.3775 2.65744 L 20.3246 2.67579 L 20.3246 2.67579 L 20.3709 2.70719 L 20.4172 2.73858 L 20.4634 2.76997 L 20.5096 2.80136 L 20.5557 2.83274 L 20.6019 2.86412 L 20.648 2.89549 L 20.694 2.92686 L 20.7401 2.95823 L 20.7861 2.98959 L 20.8321 3.02095 L 20.8781 3.05231 L 20.924 3.08366 L 20.9699 3.115 L 21.0158 3.14634 L 21.0616 3.17768 L 21.1075 3.20902 L 21.1533 3.24035 L 21.199 3.27167 L 21.2448 3.30299 L 21.2905 3.33431 L 21.3362 3.36562 L 21.3818 3.39693 L 21.4275 3.42824 L 21.4731 3.45954 L 21.5187 3.49084 L 21.5643 3.52213 L 21.6098 3.55342 L 21.6553 3.5847 L 21.7008 3.61598 L 21.7463 3.64726 L 21.7917 3.67853 L 21.8371 3.7098 L 21.8825 3.74107 L 21.9279 3.77233 L 21.9732 3.80358 L 22.0185 3.83484 L 22.0638 3.86608 L 22.1091 3.89733 L 22.1544 3.92857 L 22.1996 3.9598 L 22.2448 3.99104 L 22.29 4.02226 L 22.3352 4.05349 L 22.3803 4.08471 L 22.4254 4.11592 L 22.4705 4.14713 L 22.5156 4.17834 L 22.5606 4.20955 L 22.6057 4.24075 L 22.6507 4.27194 L 22.6957 4.30313 L 22.7406 4.33432 L 22.7856 4.3655 L 22.8305 4.39668 L 22.8754 4.42786 L 22.9203 4.45903 L 22.9652 4.4902 L 23.01 4.52136 L 23.0548 4.55252 L 23.0451 4.60156 L 23.0352 4.65059 L 23.0253 4.69959 L 23.0152 4.74857 L 23.0051 4.79752 L 22.9948 4.84646 L 22.9845 4.89537 L 22.974 4.94427 L 22.9634 4.99314 L 22.9527 5.04198 L 22.942 5.09081 L 22.9311 5.13961 L 22.9201 5.18839 L 22.909 5.23714 L 22.8978 5.28587 L 22.8865 5.33458 L 22.8751 5.38326 L 22.8636 5.43192 L 22.852 5.48055 L 22.8403 5.52916 L 22.8285 5.57774 L 22.8165 5.6263 L 22.8045 5.67484 L 22.7924 5.72334 L 22.7802 5.77183 L 22.7678 5.82028 L 22.7554 5.86871 L 22.7429 5.91711 L 22.7302 5.96549 L 22.7175 6.01384 L 22.6808 6.1506 L 22.6677 6.19885 L 22.6545 6.24706 L 22.6411 6.29525 L 22.6277 6.34341 L 22.6141 6.39154 L 22.6005 6.43964 L 22.5867 6.48771 L 22.5729 6.53575 L 22.5589 6.58376 L 22.5448 6.63175 L 22.5307 6.6797 L 22.5164 6.72762 L 22.5021 6.77551 L 22.4876 6.82337 L 22.473 6.87121 L 22.4583 6.919 L 22.4436 6.96677 L 22.4287 7.01451 L 22.4137 7.06221 L 22.3986 7.10989 L 22.3835 7.15753 L 22.3682 7.20514 L 22.3528 7.25271 L 22.3373 7.30025 L 22.3217 7.34776 L 22.3061 7.39524 L 22.2903 7.44268 L 22.2744 7.49009 L 22.2584 7.53747 L 22.2423 7.58481 L 22.1879 7.58938 L 22.1335 7.59395 L 22.0791 7.59851 L 22.0246 7.60306 L 21.9701 7.60761 L 21.9156 7.61215 L 21.8611 7.61668 L 21.8066 7.62121 L 21.752 7.62573 L 21.6975 7.63024 L 21.6429 7.63474 L 21.5882 7.63924 L 21.5336 7.64373 L 21.4789 7.64821 L 21.4243 7.65269 L 21.3696 7.65716 L 21.3148 7.66162 L 21.2601 7.66607 L 21.2053 7.67051 L 21.1505 7.67495 L 21.0957 7.67938 L 21.0409 7.6838 L 20.986 7.68821 L 20.9312 7.69261 L 20.8763 7.69701 L 20.8213 7.7014 L 20.7664 7.70578 L 20.7114 7.71015 L 20.6564 7.71451 L 20.6014 7.71887 L 20.5464 7.72321 L 20.4913 7.72755 L 20.4363 7.73187 L 20.3812 7.73619 L 20.326 7.7405 L 20.2709 7.7448 L 20.2157 7.74909 L 20.1605 7.75337 L 20.1053 7.75765 L 20.05 7.76191 L 19.9947 7.76616 L 19.9394 7.77041 L 19.8841 7.77464 L 19.8287 7.77886 L 19.7734 7.78308 L 19.718 7.78728 L 19.6625 7.79147 L 19.6071 7.79566 L 19.5516 7.79983 L 19.4961 7.80399 L 19.4406 7.80814 L 19.385 7.81228 L 19.3294 7.81641 L 19.2738 7.82053 L 19.2182 7.82464 L 19.1625 7.82874 L 19.1068 7.83282 L 19.0511 7.8369 L 18.9953 7.84096 L 18.9395 7.84501 L 18.9395 7.84501 L 18.9761 7.88732 L 19.0127 7.92961 L 19.0492 7.9719 L 19.0857 8.01417 L 19.1221 8.05643 L 19.1586 8.09868 L 19.195 8.14092 L 19.2314 8.18315 L 19.2677 8.22536 L 19.3041 8.26757 L 19.3404 8.30976 L 19.3767 8.35194 L 19.4129 8.39411 L 19.4491 8.43627 L 19.4854 8.47842 L 19.5215 8.52056 L 19.5577 8.56268 L 19.5938 8.6048 L 19.6299 8.6469 L 19.666 8.689 L 19.702 8.73108 L 19.7381 8.77315 L 19.7741 8.81521 L 19.8101 8.85727 L 19.846 8.89931 L 19.882 8.94134 L 19.9179 8.98336 L 19.9538 9.02537 L 19.9896 9.06736 L 20.0255 9.10935 L 20.0613 9.15133 L 20.0971 9.1933 L 20.1329 9.23526 L 20.1686 9.2772 L 20.2044 9.31914 L 20.2401 9.36107 L 20.2758 9.40299 L 20.3114 9.44489 L 20.3471 9.48679 L 20.3827 9.52868 L 20.4183 9.57056 L 20.4539 9.61242 L 20.4894 9.65428 L 20.525 9.69613 L 20.5605 9.73797 L 20.596 9.7798 L 20.6315 9.82162 L 20.6669 9.86343 L 20.7024 9.90523 L 20.7378 9.94702 L 20.7732 9.9888 L 20.8086 10.0306 L 20.844 10.0723 L 20.8793 10.1141 L 20.9146 10.1558 L 20.9499 10.1976 L 20.9852 10.2393 L 21.0205 10.281 L 21.0557 10.3227 L 21.091 10.3644 L 21.0689 10.4093 L 21.0467 10.4541 L 21.0244 10.4988 L 21.002 10.5435 L 20.9795 10.5882 L 20.9569 10.6328 L 20.9343 10.6774 L 20.9115 10.7219 L 20.8886 10.7664 L 20.8657 10.8108 L 20.8426 10.8552 L 20.8195 10.8995 L 20.7963 10.9438 L 20.7729 10.988 L 20.7495 11.0321 L 20.726 11.0763 L 20.7024 11.1203 L 20.6787 11.1644 L 20.6549 11.2083 L 20.631 11.2523 L 20.607 11.2961 L 20.5829 11.3399 L 20.5587 11.3837 L 20.5345 11.4274 L 20.5101 11.4711 L 20.4856 11.5147 L 20.4611 11.5583 L 20.4365 11.6018 L 20.4117 11.6452 L 20.3869 11.6886 L 20.3161 11.8113 L 20.2909 11.8545 L 20.2657 11.8976 L 20.2403 11.9407 L 20.2149 11.9837 L 20.1893 12.0267 L 20.1637 12.0696 L 20.1379 12.1125 L 20.1121 12.1553 L 20.0862 12.1981 L 20.0602 12.2408 L 20.0341 12.2835 L 20.008 12.3261 L 19.9817 12.3686 L 19.9553 12.4111 L 19.9289 12.4535 L 19.9023 12.4959 L 19.8757 12.5382 L 19.849 12.5805 L 19.8222 12.6227 L 19.7953 12.6648 L 19.7683 12.7069 L 19.7412 12.7489 L 19.714 12.7909 L 19.6868 12.8328 L 19.6594 12.8747 L 19.632 12.9165 L 19.6044 12.9582 L 19.5768 12.9999 L 19.5491 13.0415 L 19.5213 13.0831 L 19.4676 13.0734 L 19.4139 13.0638 L 19.3601 13.0541 L 19.3063 13.0444 L 19.2525 13.0347 L 19.1987 13.025 L 19.1449 13.0152 L 19.091 13.0055 L 19.0372 12.9957 L 18.9833 12.986 L 18.9294 12.9762 L 18.8755 12.9664 L 18.8215 12.9566 L 18.7676 12.9468 L 18.7136 12.9369 L 18.6596 12.9271 L 18.6056 12.9172 L 18.5515 12.9074 L 18.4975 12.8975 L 18.4434 12.8876 L 18.3893 12.8777 L 18.3352 12.8678 L 18.2811 12.8578 L 18.227 12.8479 L 18.1728 12.8379 L 18.1186 12.8279 L 18.0644 12.818 L 18.0102 12.8079 L 17.9559 12.7979 L 17.9017 12.7879 L 17.8474 12.7778 L 17.7931 12.7678 L 17.7388 12.7577 L 17.6844 12.7476 L 17.63 12.7375 L 17.5757 12.7274 L 17.5212 12.7173 L 17.4668 12.7071 L 17.4124 12.6969 L 17.3579 12.6868 L 17.3034 12.6766 L 17.2489 12.6663 L 17.1943 12.6561 L 17.1398 12.6459 L 17.0852 12.6356 L 17.0306 12.6253 L 16.976 12.615 L 16.9213 12.6047 L 16.8667 12.5944 L 16.812 12.584 L 16.7572 12.5737 L 16.7025 12.5633 L 16.6477 12.5529 L 16.593 12.5425 L 16.5381 12.532 L 16.4833 12.5216 L 16.4285 12.5111 L 16.3736 12.5006 L 16.3187 12.4901 L 16.2637 12.4796 L 16.2637 12.4796 L 16.2881 12.5299 L 16.3125 12.5803 L 16.3368 12.6306 L 16.3611 12.6808 L 16.3854 12.7311 L 16.4097 12.7813 L 16.4339 12.8316 L 16.4581 12.8818 L 16.4823 12.9319 L 16.5065 12.9821 L 16.5307 13.0323 L 16.5548 13.0824 L 16.5789 13.1325 L 16.603 13.1826 L 16.627 13.2327 L 16.6511 13.2828 L 16.6751 13.3328 L 16.6991 13.3828 L 16.7231 13.4329 L 16.747 13.4829 L 16.7709 13.5328 L 16.7949 13.5828 L 16.8188 13.6328 L 16.8426 13.6827 L 16.8665 13.7326 L 16.8903 13.7825 L 16.9141 13.8324 L 16.9379 13.8822 L 16.9617 13.9321 L 16.9855 13.9819 L 17.0092 14.0318 L 17.0329 14.0816 L 17.0566 14.1313 L 17.0803 14.1811 L 17.1039 14.2309 L 17.1276 14.2806 L 17.1512 14.3303 L 17.1748 14.3801 L 17.1984 14.4297 L 17.222 14.4794 L 17.2455 14.5291 L 17.2691 14.5787 L 17.2926 14.6284 L 17.3161 14.678 L 17.3396 14.7276 L 17.363 14.7772 L 17.3865 14.8268 L 17.4099 14.8763 L 17.4333 14.9259 L 17.4567 14.9754 L 17.4801 15.0249 L 17.5035 15.0745 L 17.5268 15.1239 L 17.5501 15.1734 L 17.5735 15.2229 L 17.5968 15.2723 L 17.62 15.3218 L 17.6433 15.3712 L 17.6666 15.4206 L 17.6898 15.47 L 17.6568 15.5076 L 17.6238 15.5451 L 17.5907 15.5826 L 17.5575 15.62 L 17.5242 15.6573 L 17.4909 15.6946 L 17.4574 15.7317 L 17.4239 15.7689 L 17.3903 15.8059 L 17.3567 15.8429 L 17.3229 15.8797 L 17.2891 15.9166 L 17.2552 15.9533 L 17.2212 15.99 L 17.1871 16.0266 L 17.153 16.0631 L 17.1188 16.0996 L 17.0845 16.136 L 17.0501 16.1723 L 17.0157 16.2085 L 16.9812 16.2447 L 16.9466 16.2808 L 16.9119 16.3168 L 16.8771 16.3528 L 16.8423 16.3886 L 16.8074 16.4244 L 16.7724 16.4602 L 16.7373 16.4958 L 16.7022 16.5314 L 16.667 16.5669 L 16.5669 16.667 L 16.5314 16.7022 L 16.4958 16.7373 L 16.4602 16.7724 L 16.4244 16.8074 L 16.3886 16.8423 L 16.3528 16.8771 L 16.3168 16.9119 L 16.2808 16.9466 L 16.2447 16.9812 L 16.2085 17.0157 L 16.1723 17.0501 L 16.136 17.0845 L 16.0996 17.1188 L 16.0631 17.153 L 16.0266 17.1871 L 15.99 17.2212 L 15.9533 17.2552 L 15.9166 17.2891 L 15.8797 17.3229 L 15.8429 17.3567 L 15.8059 17.3903 L 15.7689 17.4239 L 15.7317 17.4574 L 15.6946 17.4909 L 15.6573 17.5242 L 15.62 17.5575 L 15.5826 17.5907 L 15.5451 17.6238 L 15.5076 17.6568 L 15.47 17.6898 L 15.4206 17.6666 L 15.3712 17.6433 L 15.3218 17.62 L 15.2723 17.5968 L 15.2229 17.5735 L 15.1734 17.5501 L 15.1239 17.5268 L 15.0745 17.5035 L 15.0249 17.4801 L 14.9754 17.4567 L 14.9259 17.4333 L 14.8763 17.4099 L 14.8268 17.3865 L 14.7772 17.363 L 14.7276 17.3396 L 14.678 17.3161 L 14.6284 17.2926 L 14.5787 17.2691 L 14.5291 17.2455 L 14.4794 17.222 L 14.4297 17.1984 L 14.3801 17.1748 L 14.3303 17.1512 L 14.2806 17.1276 L 14.2309 17.1039 L 14.1811 17.0803 L 14.1313 17.0566 L 14.0816 17.0329 L 14.0318 17.0092 L 13.9819 16.9855 L 13.9321 16.9617 L 13.8822 16.9379 L 13.8324 16.9141 L 13.7825 16.8903 L 13.7326 16.8665 L 13.6827 16.8426 L 13.6328 16.8188 L 13.5828 16.7949 L 13.5328 16.7709 L 13.4829 16.747 L 13.4329 16.7231 L 13.3828 16.6991 L 13.3328 16.6751 L 13.2828 16.6511 L 13.2327 16.627 L 13.1826 16.603 L 13.1325 16.5789 L 13.0824 16.5548 L 13.0323 16.5307 L 12.9821 16.5065 L 12.9319 16.4823 L 12.8818 16.4581 L 12.8316 16.4339 L 12.7813 16.4097 L 12.7311 16.3854 L 12.6808 16.3611 L 12.6306 16.3368 L 12.5803 16.3125 L 12.5299 16.2881 L 12.4796 16.2637 L 12.4796 16.2637 L 12.4901 16.3187 L 12.5006 16.3736 L 12.5111 16.4285 L 12.5216 16.4833 L 12.532 16.5381 L 12.5425 16.593 L 12.5529 16.6477 L 12.5633 16.7025 L 12.5737 16.7572 L 12.584 16.812 L 12.5944 16.8667 L 12.6047 16.9213 L 12.615 16.976 L 12.6253 17.0306 L 12.6356 17.0852 L 12.6459 17.1398 L 12.6561 17.1943 L 12.6663 17.2489 L 12.6766 17.3034 L 12.6868 17.3579 L 12.6969 17.4124 L 12.7071 17.4668 L 12.7173 17.5212 L 12.7274 17.5757 L 12.7375 17.63 L 12.7476 17.6844 L 12.7577 17.7388 L 12.7678 17.7931 L 12.7778 17.8474 L 12.7879 17.9017 L 12.7979 17.9559 L 12.8079 18.0102 L 12.818 18.0644 L 12.8279 18.1186 L 12.8379 18.1728 L 12.8479 18.227 L 12.8578 18.2811 L 12.8678 18.3352 L 12.8777 18.3893 L 12.8876 18.4434 L 12.8975 18.4975 L 12.9074 18.5515 L 12.9172 18.6056 L 12.9271 18.6596 L 12.9369 18.7136 L 12.9468 18.7676 L 12.9566 18.8215 L 12.9664 18.8755 L 12.9762 18.9294 L 12.986 18.9833 L 12.9957 19.0372 L 13.0055 19.091 L 13.0152 19.1449 L 13.025 19.1987 L 13.0347 19.2525 L 13.0444 19.3063 L 13.0541 19.3601 L 13.0638 19.4139 L 13.0734 19.4676 L 13.0831 19.5213 L 13.0415 19.5491 L 12.9999 19.5768 L 12.9582 19.6044 L 12.9165 19.632 L 12.8747 19.6594 L 12.8328 19.6868 L 12.7909 19.714 L 12.7489 19.7412 L 12.7069 19.7683 L 12.6648 19.7953 L 12.6227 19.8222 L 12.5805 19.849 L 12.5382 19.8757 L 12.4959 19.9023 L 12.4535 19.9289 L 12.4111 19.9553 L 12.3686 19.9817 L 12.3261 20.008 L 12.2835 20.0341 L 12.2408 20.0602 L 12.1981 20.0862 L 12.1553 20.1121 L 12.1125 20.1379 L 12.0696 20.1637 L 12.0267 20.1893 L 11.9837 20.2149 L 11.9407 20.2403 L 11.8976 20.2657 L 11.8545 20.2909 L 11.8113 20.3161 L 11.6886 20.3869 L 11.6452 20.4117 L 11.6018 20.4365 L 11.5583 20.4611 L 11.5147 20.4856 L 11.4711 20.5101 L 11.4274 20.5345 L 11.3837 20.5587 L 11.3399 20.5829 L 11.2961 20.607 L 11.2523 20.631 L 11.2083 20.6549 L 11.1644 20.6787 L 11.1203 20.7024 L 11.0763 20.726 L 11.0321 20.7495 L 10.988 20.7729 L 10.9438 20.7963 L 10.8995 20.8195 L 10.8552 20.8426 L 10.8108 20.8657 L 10.7664 20.8886 L 10.7219 20.9115 L 10.6774 20.9343 L 10.6328 20.9569 L 10.5882 20.9795 L 10.5435 21.002 L 10.4988 21.0244 L 10.4541 21.0467 L 10.4093 21.0689 L 10.3644 21.091 L 10.3227 21.0557 L 10.281 21.0205 L 10.2393 20.9852 L 10.1976 20.9499 L 10.1558 20.9146 L 10.1141 20.8793 L 10.0723 20.844 L 10.0306 20.8086 L 9.9888 20.7732 L 9.94702 20.7378 L 9.90523 20.7024 L 9.86343 20.6669 L 9.82162 20.6315 L 9.7798 20.596 L 9.73797 20.5605 L 9.69613 20.525 L 9.65428 20.4894 L 9.61242 20.4539 L 9.57056 20.4183 L 9.52868 20.3827 L 9.48679 20.3471 L 9.44489 20.3114 L 9.40299 20.2758 L 9.36107 20.2401 L 9.31914 20.2044 L 9.2772 20.1686 L 9.23526 20.1329 L 9.1933 20.0971 L 9.15133 20.0613 L 9.10935 20.0255 L 9.06736 19.9896 L 9.02537 19.9538 L 8.98336 19.9179 L 8.94134 19.882 L 8.89931 19.846 L 8.85727 19.8101 L 8.81521 19.7741 L 8.77315 19.7381 L 8.73108 19.702 L 8.689 19.666 L 8.6469 19.6299 L 8.6048 19.5938 L 8.56268 19.5577 L 8.52056 19.5215 L 8.47842 19.4854 L 8.43627 19.4491 L 8.39411 19.4129 L 8.35194 19.3767 L 8.30976 19.3404 L 8.26757 19.3041 L 8.22536 19.2677 L 8.18315 19.2314 L 8.14092 19.195 L 8.09868 19.1586 L 8.05643 19.1221 L 8.01417 19.0857 L 7.9719 19.0492 L 7.92961 19.0127 L 7.88732 18.9761 L 7.84501 18.9395 L 7.84501 18.9395 L 7.84096 18.9953 L 7.8369 19.0511 L 7.83282 19.1068 L 7.82874 19.1625 L 7.82464 19.2182 L 7.82053 19.2738 L 7.81641 19.3294 L 7.81228 19.385 L 7.80814 19.4406 L 7.80399 19.4961 L 7.79983 19.5516 L 7.79566 19.6071 L 7.79147 19.6625 L 7.78728 19.718 L 7.78308 19.7734 L 7.77886 19.8287 L 7.77464 19.8841 L 7.77041 19.9394 L 7.76616 19.9947 L 7.76191 20.05 L 7.75765 20.1053 L 7.75337 20.1605 L 7.74909 20.2157 L 7.7448 20.2709 L 7.7405 20.326 L 7.73619 20.3812 L 7.73187 20.4363 L 7.72755 20.4913 L 7.72321 20.5464 L 7.71887 20.6014 L 7.71451 20.6564 L 7.71015 20.7114 L 7.70578 20.7664 L 7.7014 20.8213 L 7.69701 20.8763 L 7.69261 20.9312 L 7.68821 20.986 L 7.6838 21.0409 L 7.67938 21.0957 L 7.67495 21.1505 L 7.67051 21.2053 L 7.66607 21.2601 L 7.66162 21.3148 L 7.65716 21.3696 L 7.65269 21.4243 L 7.64821 21.4789 L 7.64373 21.5336 L 7.63924 21.5882 L 7.63474 21.6429 L 7.63024 21.6975 L 7.62573 21.752 L 7.62121 21.8066 L 7.61668 21.8611 L 7.61215 21.9156 L 7.60761 21.9701 L 7.60306 22.0246 L 7.59851 22.0791 L 7.59395 22.1335 L 7.58938 22.1879 L 7.58481 22.2423 L 7.53747 22.2584 L 7.49009 22.2744 L 7.44268 22.2903 L 7.39524 22.3061 L 7.34776 22.3217 L 7.30025 22.3373 L 7.25271 22.3528 L 7.20514 22.3682 L 7.15753 22.3835 L 7.10989 22.3986 L 7.06221 22.4137 L 7.01451 22.4287 L 6.96677 22.4436 L 6.919 22.4583 L 6.87121 22.473 L 6.82337 22.4876 L 6.77551 22.5021 L 6.72762 22.5164 L 6.6797 22.5307 L 6.63175 22.5448 L 6.58376 22.5589 L 6.53575 22.5729 L 6.48771 22.5867 L 6.43964 22.6005 L 6.39154 22.6141 L 6.34341 22.6277 L 6.29525 22.6411 L 6.24706 22.6545 L 6.19885 22.6677 L 6.1506 22.6808 L 6.01384 22.7175 L 5.96549 22.7302 L 5.91711 22.7429 L 5.86871 22.7554 L 5.82028 22.7678 L 5.77183 22.7802 L 5.72334 22.7924 L 5.67484 22.8045 L 5.6263 22.8165 L 5.57774 22.8285 L 5.52916 22.8403 L 5.48055 22.852 L 5.43192 22.8636 L 5.38326 22.8751 L 5.33458 22.8865 L 5.28587 22.8978 L 5.23714 22.909 L 5.18839 22.9201 L 5.13961 22.9311 L 5.09081 22.942 L 5.04198 22.9527 L 4.99314 22.9634 L 4.94427 22.974 L 4.89537 22.9845 L 4.84646 22.9948 L 4.79752 23.0051 L 4.74857 23.0152 L 4.69959 23.0253 L 4.65059 23.0352 L 4.60156 23.0451 L 4.55252 23.0548 L 4.52136 23.01 L 4.4902 22.9652 L 4.45903 22.9203 L 4.42786 22.8754 L 4.39668 22.8305 L 4.3655 22.7856 L 4.33432 22.7406 L 4.30313 22.6957 L 4.27194 22.6507 L 4.24075 22.6057 L 4.20955 22.5606 L 4.17834 22.5156 L 4.14713 22.4705 L 4.11592 22.4254 L 4.08471 22.3803 L 4.05349 22.3352 L 4.02226 22.29 L 3.99104 22.2448 L 3.9598 22.1996 L 3.92857 22.1544 L 3.89733 22.1091 L 3.86608 22.0638 L 3.83484 22.0185 L 3.80358 21.9732 L 3.77233 21.9279 L 3.74107 21.8825 L 3.7098 21.8371 L 3.67853 21.7917 L 3.64726 21.7463 L 3.61598 21.7008 L 3.5847 21.6553 L 3.55342 21.6098 L 3.52213 21.5643 L 3.49084 21.5187 L 3.45954 21.4731 L 3.42824 21.4275 L 3.39693 21.3818 L 3.36562 21.3362 L 3.33431 21.2905 L 3.30299 21.2448 L 3.27167 21.199 L 3.24035 21.1533 L 3.20902 21.1075 L 3.17768 21.0616 L 3.14634 21.0158 L 3.115 20.9699 L 3.08366 20.924 L 3.05231 20.8781 L 3.02095 20.8321 L 2.98959 20.7861 L 2.95823 20.7401 L 2.92686 20.694 L 2.89549 20.648 L 2.86412 20.6019 L 2.83274 20.5557 L 2.80136 20.5096 L 2.76997 20.4634 L 2.73858 20.4172 L 2.70719 20.3709 L 2.67579 20.3246 L 2.67579 20.3246 L 2.65744 20.3775 L 2.63908 20.4303 L 2.62072 20.483 L 2.60236 20.5358 L 2.584 20.5885 L 2.56563 20.6412 L 2.54726 20.6938 L 2.52888 20.7464 L 2.5105 20.799 L 2.49212 20.8516 L 2.47373 20.9041 L 2.45534 20.9567 L 2.43695 21.0091 L 2.41855 21.0616 L 2.40015 21.114 L 2.38175 21.1664 L 2.36334 21.2188 L 2.34493 21.2711 L 2.32652 21.3235 L 2.3081 21.3757 L 2.28969 21.428 L 2.27127 21.4803 L 2.25284 21.5325 L 2.23442 21.5847 L 2.21599 21.6368 L 2.19756 21.689 L 2.17912 21.7411 L 2.16069 21.7932 L 2.14225 21.8452 L 2.12381 21.8972 L 2.10536 21.9493 L 2.08692 22.0012 L 2.06847 22.0532 L 2.05002 22.1051 L 2.03157 22.1571 L 2.01311 22.2089 L 1.99465 22.2608 L 1.97619 22.3127 L 1.95773 22.3645 L 1.93927 22.4163 L 1.9208 22.468 L 1.90234 22.5198 L 1.88387 22.5715 L 1.8654 22.6232 L 1.84692 22.6749 L 1.82845 22.7266 L 1.80997 22.7782 L 1.79149 22.8298 L 1.77301 22.8814 L 1.75453 22.933 L 1.73605 22.9845 L 1.71756 23.0361 L 1.69908 23.0876 L 1.68059 23.139 L 1.6621 23.1905 L 1.64361 23.242 L 1.62511 23.2934 L 1.60662 23.3448 L 1.58812 23.3962 L 1.56963 23.4475 L 1.51974 23.4508 L 1.46984 23.454 L 1.41993 23.4571 L 1.37002 23.46 L 1.3201 23.4629 L 1.27018 23.4656 L 1.22025 23.4683 L 1.17031 23.4708 L 1.12037 23.4733 L 1.07043 23.4756 L 1.02048 23.4778 L 0.97052 23.48 L 0.920561 23.482 L 0.870597 23.4839 L 0.820629 23.4857 L 0.770658 23.4874 L 0.720683 23.4889 L 0.670705 23.4904 L 0.620724 23.4918 L 0.57074 23.4931 L 0.520754 23.4942 L 0.470765 23.4953 L 0.420774 23.4962 L 0.370781 23.4971 L 0.320786 23.4978 L 0.27079 23.4984 L 0.220793 23.499 L 0.170795 23.4994 L 0.120796 23.4997 L 0.0707962 23.4999 L -0.0707962 23.4999 L -0.120796 23.4997 L -0.170795 23.4994 L -0.220793 23.499 L -0.27079 23.4984 L -0.320786 23.4978 L -0.370781 23.4971 L -0.420774 23.4962 L -0.470765 23.4953 L -0.520754 23.4942 L -0.57074 23.4931 L -0.620724 23.4918 L -0.670705 23.4904 L -0.720683 23.4889 L -0.770658 23.4874 L -0.820629 23.4857 L -0.870597 23.4839 L -0.920561 23.482 L -0.97052 23.48 L -1.02048 23.4778 L -1.07043 23.4756 L -1.12037 23.4733 L -1.17031 23.4708 L -1.22025 23.4683 L -1.27018 23.4656 L -1.3201 23.4629 L -1.37002 23.46 L -1.41993 23.4571 L -1.46984 23.454 L -1.51974 23.4508 L -1.56963 23.4475 L -1.58812 23.3962 L -1.60662 23.3448 L -1.62511 23.2934 L -1.64361 23.242 L -1.6621 23.1905 L -1.68059 23.139 L -1.69908 23.0876 L -1.71756 23.0361 L -1.73605 22.9845 L -1.75453 22.933 L -1.77301 22.8814 L -1.79149 22.8298 L -1.80997 22.7782 L -1.82845 22.7266 L -1.84692 22.6749 L -1.8654 22.6232 L -1.88387 22.5715 L -1.90234 22.5198 L -1.9208 22.468 L -1.93927 22.4163 L -1.95773 22.3645 L -1.97619 22.3127 L -1.99465 22.2608 L -2.01311 22.2089 L -2.03157 22.1571 L -2.05002 22.1051 L -2.06847 22.0532 L -2.08692 22.0012 L -2.10536 21.9493 L -2.12381 21.8972 L -2.14225 21.8452 L -2.16069 21.7932 L -2.17912 21.7411 L -2.19756 21.689 L -2.21599 21.6368 L -2.23442 21.5847 L -2.25284 21.5325 L -2.27127 21.4803 L -2.28969 21.428 L -2.3081 21.3757 L -2.32652 21.3235 L -2.34493 21.2711 L -2.36334 21.2188 L -2.38175 21.1664 L -2.40015 21.114 L -2.41855 21.0616 L -2.43695 21.0091 L -2.45534 20.9567 L -2.47373 20.9041 L -2.49212 20.8516 L -2.5105 20.799 L -2.52888 20.7464 L -2.54726 20.6938 L -2.56563 20.6412 L -2.584 20.5885 L -2.60236 20.5358 L -2.62072 20.483 L -2.63908 20.4303 L -2.65744 20.3775 L -2.67579 20.3246 L -2.67579 20.3246 L -2.70719 20.3709 L -2.73858 20.4172 L -2.76997 20.4634 L -2.80136 20.5096 L -2.83274 20.5557 L -2.86412 20.6019 L -2.89549 20.648 L -2.92686 20.694 L -2.95823 20.7401 L -2.98959 20.7861 L -3.02095 20.8321 L -3.05231 20.8781 L -3.08366 20.924 L -3.115 20.9699 L -3.14634 21.0158 L -3.17768 21.0616 L -3.20902 21.1075 L -3.24035 21.1533 L -3.27167 21.199 L -3.30299 21.2448 L -3.33431 21.2905 L -3.36562 21.3362 L -3.39693 21.3818 L -3.42824 21.4275 L -3.45954 21.4731 L -3.49084 21.5187 L -3.52213 21.5643 L -3.55342 21.6098 L -3.5847 21.6553 L -3.61598 21.7008 L -3.64726 21.7463 L -3.67853 21.7917 L -3.7098 21.8371 L -3.74107 21.8825 L -3.77233 21.9279 L -3.80358 21.9732 L -3.83484 22.0185 L -3.86608 22.0638 L -3.89733 22.1091 L -3.92857 22.1544 L -3.9598 22.1996 L -3.99104 22.2448 L -4.02226 22.29 L -4.05349 22.3352 L -4.08471 22.3803 L -4.11592 22.4254 L -4.14713 22.4705 L -4.17834 22.5156 L -4.20955 22.5606 L -4.24075 22.6057 L -4.27194 22.6507 L -4.30313 22.6957 L -4.33432 22.7406 L -4.3655 22.7856 L -4.39668 22.8305 L -4.42786 22.8754 L -4.45903 22.9203 L -4.4902 22.9652 L -4.52136 23.01 L -4.55252 23.0548 L -4.60156 23.0451 L -4.65059 23.0352 L -4.69959 23.0253 L -4.74857 23.0152 L -4.79752 23.0051 L -4.84646 22.9948 L -4.89537 22.9845 L -4.94427 22.974 L -4.99314 22.9634 L -5.04198 22.9527 L -5.09081 22.942 L -5.13961 22.9311 L -5.18839 22.9201 L -5.23714 22.909 L -5.28587 22.8978 L -5.33458 22.8865 L -5.38326 22.8751 L -5.43192 22.8636 L -5.48055 22.852 L -5.52916 22.8403 L -5.57774 22.8285 L -5.6263 22.8165 L -5.67484 22.8045 L -5.72334 22.7924 L -5.77183 22.7802 L -5.82028 22.7678 L -5.86871 22.7554 L -5.91711 22.7429 L -5.96549 22.7302 L -6.01384 22.7175 L -6.1506 22.6808 L -6.19885 22.6677 L -6.24706 22.6545 L -6.29525 22.6411 L -6.34341 22.6277 L -6.39154 22.6141 L -6.43964 22.6005 L -6.48771 22.5867 L -6.53575 22.5729 L -6.58376 22.5589 L -6.63175 22.5448 L -6.6797 22.5307 L -6.72762 22.5164 L -6.77551 22.5021 L -6.82337 22.4876 L -6.87121 22.473 L -6.919 22.4583 L -6.96677 22.4436 L -7.01451 22.4287 L -7.06221 22.4137 L -7.10989 22.3986 L -7.15753 22.3835 L -7.20514 22.3682 L -7.25271 22.3528 L -7.30025 22.3373 L -7.34776 22.3217 L -7.39524 22.3061 L -7.44268 22.2903 L -7.49009 22.2744 L -7.53747 22.2584 L -7.58481 22.2423 L -7.58938 22.1879 L -7.59395 22.1335 L -7.59851 22.0791 L -7.60306 22.0246 L -7.60761 21.9701 L -7.61215 21.9156 L -7.61668 21.8611 L -7.62121 21.8066 L -7.62573 21.752 L -7.63024 21.6975 L -7.63474 21.6429 L -7.63924 21.5882 L -7.64373 21.5336 L -7.64821 21.4789 L -7.65269 21.4243 L -7.65716 21.3696 L -7.66162 21.3148 L -7.66607 21.2601 L -7.67051 21.2053 L -7.67495 21.1505 L -7.67938 21.0957 L -7.6838 21.0409 L -7.68821 20.986 L -7.69261 20.9312 L -7.69701 20.8763 L -7.7014 20.8213 L -7.70578 20.7664 L -7.71015 20.7114 L -7.71451 20.6564 L -7.71887 20.6014 L -7.72321 20.5464 L -7.72755 20.4913 L -7.73187 20.4363 L -7.73619 20.3812 L -7.7405 20.326 L -7.7448 20.2709 L -7.74909 20.2157 L -7.75337 20.1605 L -7.75765 20.1053 L -7.76191 20.05 L -7.76616 19.9947 L -7.77041 19.9394 L -7.77464 19.8841 L -7.77886 19.8287 L -7.78308 19.7734 L -7.78728 19.718 L -7.79147 19.6625 L -7.79566 19.6071 L -7.79983 19.5516 L -7.80399 19.4961 L -7.80814 19.4406 L -7.81228 19.385 L -7.81641 19.3294 L -7.82053 19.2738 L -7.82464 19.2182 L -7.82874 19.1625 L -7.83282 19.1068 L -7.8369 19.0511 L -7.84096 18.9953 L -7.84501 18.9395 L -7.84501 18.9395 L -7.88732 18.9761 L -7.92961 19.0127 L -7.9719 19.0492 L -8.01417 19.0857 L -8.05643 19.1221 L -8.09868 19.1586 L -8.14092 19.195 L -8.18315 19.2314 L -8.22536 19.2677 L -8.26757 19.3041 L -8.30976 19.3404 L -8.35194 19.3767 L -8.39411 19.4129 L -8.43627 19.4491 L -8.47842 19.4854 L -8.52056 19.5215 L -8.56268 19.5577 L -8.6048 19.5938 L -8.6469 19.6299 L -8.689 19.666 L -8.73108 19.702 L -8.77315 19.7381 L -8.81521 19.7741 L -8.85727 19.8101 L -8.89931 19.846 L -8.94134 19.882 L -8.98336 19.9179 L -9.02537 19.9538 L -9.06736 19.9896 L -9.10935 20.0255 L -9.15133 20.0613 L -9.1933 20.0971 L -9.23526 20.1329 L -9.2772 20.1686 L -9.31914 20.2044 L -9.36107 20.2401 L -9.40299 20.2758 L -9.44489 20.3114 L -9.48679 20.3471 L -9.52868 20.3827 L -9.57056 20.4183 L -9.61242 20.4539 L -9.65428 20.4894 L -9.69613 20.525 L -9.73797 20.5605 L -9.7798 20.596 L -9.82162 20.6315 L -9.86343 20.6669 L -9.90523 20.7024 L -9.94702 20.7378 L -9.9888 20.7732 L -10.0306 20.8086 L -10.0723 20.844 L -10.1141 20.8793 L -10.1558 20.9146 L -10.1976 20.9499 L -10.2393 20.9852 L -10.281 21.0205 L -10.3227 21.0557 L -10.3644 21.091 L -10.4093 21.0689 L -10.4541 21.0467 L -10.4988 21.0244 L -10.5435 21.002 L -10.5882 20.9795 L -10.6328 20.9569 L -10.6774 20.9343 L -10.7219 20.9115 L -10.7664 20.8886 L -10.8108 20.8657 L -10.8552 20.8426 L -10.8995 20.8195 L -10.9438 20.7963 L -10.988 20.7729 L -11.0321 20.7495 L -11.0763 20.726 L -11.1203 20.7024 L -11.1644 20.6787 L -11.2083 20.6549 L -11.2523 20.631 L -11.2961 20.607 L -11.3399 20.5829 L -11.3837 20.5587 L -11.4274 20.5345 L -11.4711 20.5101 L -11.5147 20.4856 L -11.5583 20.4611 L -11.6018 20.4365 L -11.6452 20.4117 L -11.6886 20.3869 L -11.8113 20.3161 L -11.8545 20.2909 L -11.8976 20.2657 L -11.9407 20.2403 L -11.9837 20.2149 L -12.0267 20.1893 L -12.0696 20.1637 L -12.1125 20.1379 L -12.1553 20.1121 L -12.1981 20.0862 L -12.2408 20.0602 L -12.2835 20.0341 L -12.3261 20.008 L -12.3686 19.9817 L -12.4111 19.9553 L -12.4535 19.9289 L -12.4959 19.9023 L -12.5382 19.8757 L -12.5805 19.849 L -12.6227 19.8222 L -12.6648 19.7953 L -12.7069 19.7683 L -12.7489 19.7412 L -12.7909 19.714 L -12.8328 19.6868 L -12.8747 19.6594 L -12.9165 19.632 L -12.9582 19.6044 L -12.9999 19.5768 L -13.0415 19.5491 L -13.0831 19.5213 L -13.0734 19.4676 L -13.0638 19.4139 L -13.0541 19.3601 L -13.0444 19.3063 L -13.0347 19.2525 L -13.025 19.1987 L -13.0152 19.1449 L -13.0055 19.091 L -12.9957 19.0372 L -12.986 18.9833 L -12.9762 18.9294 L -12.9664 18.8755 L -12.9566 18.8215 L -12.9468 18.7676 L -12.9369 18.7136 L -12.9271 18.6596 L -12.9172 18.6056 L -12.9074 18.5515 L -12.8975 18.4975 L -12.8876 18.4434 L -12.8777 18.3893 L -12.8678 18.3352 L -12.8578 18.2811 L -12.8479 18.227 L -12.8379 18.1728 L -12.8279 18.1186 L -12.818 18.0644 L -12.8079 18.0102 L -12.7979 17.9559 L -12.7879 17.9017 L -12.7778 17.8474 L -12.7678 17.7931 L -12.7577 17.7388 L -12.7476 17.6844 L -12.7375 17.63 L -12.7274 17.5757 L -12.7173 17.5212 L -12.7071 17.4668 L -12.6969 17.4124 L -12.6868 17.3579 L -12.6766 17.3034 L -12.6663 17.2489 L -12.6561 17.1943 L -12.6459 17.1398 L -12.6356 17.0852 L -12.6253 17.0306 L -12.615 16.976 L -12.6047 16.9213 L -12.5944 16.8667 L -12.584 16.812 L -12.5737 16.7572 L -12.5633 16.7025 L -12.5529 16.6477 L -12.5425 16.593 L -12.532 16.5381 L -12.5216 16.4833 L -12.5111 16.4285 L -12.5006 16.3736 L -12.4901 16.3187 L -12.4796 16.2637 L -12.4796 16.2637 L -12.5299 16.2881 L -12.5803 16.3125 L -12.6306 16.3368 L -12.6808 16.3611 L -12.7311 16.3854 L -12.7813 16.4097 L -12.8316 16.4339 L -12.8818 16.4581 L -12.9319 16.4823 L -12.9821 16.5065 L -13.0323 16.5307 L -13.0824 16.5548 L -13.1325 16.5789 L -13.1826 16.603 L -13.2327 16.627 L -13.2828 16.6511 L -13.3328 16.6751 L -13.3828 16.6991 L -13.4329 16.7231 L -13.4829 16.747 L -13.5328 16.7709 L -13.5828 16.7949 L -13.6328 16.8188 L -13.6827 16.8426 L -13.7326 16.8665 L -13.7825 16.8903 L -13.8324 16.9141 L -13.8822 16.9379 L -13.9321 16.9617 L -13.9819 16.9855 L -14.0318 17.0092 L -14.0816 17.0329 L -14.1313 17.0566 L -14.1811 17.0803 L -14.2309 17.1039 L -14.2806 17.1276 L -14.3303 17.1512 L -14.3801 17.1748 L -14.4297 17.1984 L -14.4794 17.222 L -14.5291 17.2455 L -14.5787 17.2691 L -14.6284 17.2926 L -14.678 17.3161 L -14.7276 17.3396 L -14.7772 17.363 L -14.8268 17.3865 L -14.8763 17.4099 L -14.9259 17.4333 L -14.9754 17.4567 L -15.0249 17.4801 L -15.0745 17.5035 L -15.1239 17.5268 L -15.1734 17.5501 L -15.2229 17.5735 L -15.2723 17.5968 L -15.3218 17.62 L -15.3712 17.6433 L -15.4206 17.6666 L -15.47 17.6898 L -15.5076 17.6568 L -15.5451 17.6238 L -15.5826 17.5907 L -15.62 17.5575 L -15.6573 17.5242 L -15.6946 17.4909 L -15.7317 17.4574 L -15.7689 17.4239 L -15.8059 17.3903 L -15.8429 17.3567 L -15.8797 17.3229 L -15.9166 17.2891 L -15.9533 17.2552 L -15.99 17.2212 L -16.0266 17.1871 L -16.0631 17.153 L -16.0996 17.1188 L -16.136 17.0845 L -16.1723 17.0501 L -16.2085 17.0157 L -16.2447 16.9812 L -16.2808 16.9466 L -16.3168 16.9119 L -16.3528 16.8771 L -16.3886 16.8423 L -16.4244 16.8074 L -16.4602 16.7724 L -16.4958 16.7373 L -16.5314 16.7022 L -16.5669 16.667 L -16.667 16.5669 L -16.7022 16.5314 L -16.7373 16.4958 L -16.7724 16.4602 L -16.8074 16.4244 L -16.8423 16.3886 L -16.8771 16.3528 L -16.9119 16.3168 L -16.9466 16.2808 L -16.9812 16.2447 L -17.0157 16.2085 L -17.0501 16.1723 L -17.0845 16.136 L -17.1188 16.0996 L -17.153 16.0631 L -17.1871 16.0266 L -17.2212 15.99 L -17.2552 15.9533 L -17.2891 15.9166 L -17.3229 15.8797 L -17.3567 15.8429 L -17.3903 15.8059 L -17.4239 15.7689 L -17.4574 15.7317 L -17.4909 15.6946 L -17.5242 15.6573 L -17.5575 15.62 L -17.5907 15.5826 L -17.6238 15.5451 L -17.6568 15.5076 L -17.6898 15.47 L -17.6666 15.4206 L -17.6433 15.3712 L -17.62 15.3218 L -17.5968 15.2723 L -17.5735 15.2229 L -17.5501 15.1734 L -17.5268 15.1239 L -17.5035 15.0745 L -17.4801 15.0249 L -17.4567 14.9754 L -17.4333 14.9259 L -17.4099 14.8763 L -17.3865 14.8268 L -17.363 14.7772 L -17.3396 14.7276 L -17.3161 14.678 L -17.2926 14.6284 L -17.2691 14.5787 L -17.2455 14.5291 L -17.222 14.4794 L -17.1984 14.4297 L -17.1748 14.3801 L -17.1512 14.3303 L -17.1276 14.2806 L -17.1039 14.2309 L -17.0803 14.1811 L -17.0566 14.1313 L -17.0329 14.0816 L -17.0092 14.0318 L -16.9855 13.9819 L -16.9617 13.9321 L -16.9379 13.8822 L -16.9141 13.8324 L -16.8903 13.7825 L -16.8665 13.7326 L -16.8426 13.6827 L -16.8188 13.6328 L -16.7949 13.5828 L -16.7709 13.5328 L -16.747 13.4829 L -16.7231 13.4329 L -16.6991 13.3828 L -16.6751 13.3328 L -16.6511 13.2828 L -16.627 13.2327 L -16.603 13.1826 L -16.5789 13.1325 L -16.5548 13.0824 L -16.5307 13.0323 L -16.5065 12.9821 L -16.4823 12.9319 L -16.4581 12.8818 L -16.4339 12.8316 L -16.4097 12.7813 L -16.3854 12.7311 L -16.3611 12.6808 L -16.3368 12.6306 L -16.3125 12.5803 L -16.2881 12.5299 L -16.2637 12.4796 L -16.2637 12.4796 L -16.3187 12.4901 L -16.3736 12.5006 L -16.4285 12.5111 L -16.4833 12.5216 L -16.5381 12.532 L -16.593 12.5425 L -16.6477 12.5529 L -16.7025 12.5633 L -16.7572 12.5737 L -16.812 12.584 L -16.8667 12.5944 L -16.9213 12.6047 L -16.976 12.615 L -17.0306 12.6253 L -17.0852 12.6356 L -17.1398 12.6459 L -17.1943 12.6561 L -17.2489 12.6663 L -17.3034 12.6766 L -17.3579 12.6868 L -17.4124 12.6969 L -17.4668 12.7071 L -17.5212 12.7173 L -17.5757 12.7274 L -17.63 12.7375 L -17.6844 12.7476 L -17.7388 12.7577 L -17.7931 12.7678 L -17.8474 12.7778 L -17.9017 12.7879 L -17.9559 12.7979 L -18.0102 12.8079 L -18.0644 12.818 L -18.1186 12.8279 L -18.1728 12.8379 L -18.227 12.8479 L -18.2811 12.8578 L -18.3352 12.8678 L -18.3893 12.8777 L -18.4434 12.8876 L -18.4975 12.8975 L -18.5515 12.9074 L -18.6056 12.9172 L -18.6596 12.9271 L -18.7136 12.9369 L -18.7676 12.9468 L -18.8215 12.9566 L -18.8755 12.9664 L -18.9294 12.9762 L -18.9833 12.986 L -19.0372 12.9957 L -19.091 13.0055 L -19.1449 13.0152 L -19.1987 13.025 L -19.2525 13.0347 L -19.3063 13.0444 L -19.3601 13.0541 L -19.4139 13.0638 L -19.4676 13.0734 L -19.5213 13.0831 L -19.5491 13.0415 L -19.5768 12.9999 L -19.6044 12.9582 L -19.632 12.9165 L -19.6594 12.8747 L -19.6868 12.8328 L -19.714 12.7909 L -19.7412 12.7489 L -19.7683 12.7069 L -19.7953 12.6648 L -19.8222 12.6227 L -19.849 12.5805 L -19.8757 12.5382 L -19.9023 12.4959 L -19.9289 12.4535 L -19.9553 12.4111 L -19.9817 12.3686 L -20.008 12.3261 L -20.0341 12.2835 L -20.0602 12.2408 L -20.0862 12.1981 L -20.1121 12.1553 L -20.1379 12.1125 L -20.1637 12.0696 L -20.1893 12.0267 L -20.2149 11.9837 L -20.2403 11.9407 L -20.2657 11.8976 L -20.2909 11.8545 L -20.3161 11.8113 L -20.3869 11.6886 L -20.4117 11.6452 L -20.4365 11.6018 L -20.4611 11.5583 L -20.4856 11.5147 L -20.5101 11.4711 L -20.5345 11.4274 L -20.5587 11.3837 L -20.5829 11.3399 L -20.607 11.2961 L -20.631 11.2523 L -20.6549 11.2083 L -20.6787 11.1644 L -20.7024 11.1203 L -20.726 11.0763 L -20.7495 11.0321 L -20.7729 10.988 L -20.7963 10.9438 L -20.8195 10.8995 L -20.8426 10.8552 L -20.8657 10.8108 L -20.8886 10.7664 L -20.9115 10.7219 L -20.9343 10.6774 L -20.9569 10.6328 L -20.9795 10.5882 L -21.002 10.5435 L -21.0244 10.4988 L -21.0467 10.4541 L -21.0689 10.4093 L -21.091 10.3644 L -21.0557 10.3227 L -21.0205 10.281 L -20.9852 10.2393 L -20.9499 10.1976 L -20.9146 10.1558 L -20.8793 10.1141 L -20.844 10.0723 L -20.8086 10.0306 L -20.7732 9.9888 L -20.7378 9.94702 L -20.7024 9.90523 L -20.6669 9.86343 L -20.6315 9.82162 L -20.596 9.7798 L -20.5605 9.73797 L -20.525 9.69613 L -20.4894 9.65428 L -20.4539 9.61242 L -20.4183 9.57056 L -20.3827 9.52868 L -20.3471 9.48679 L -20.3114 9.44489 L -20.2758 9.40299 L -20.2401 9.36107 L -20.2044 9.31914 L -20.1686 9.2772 L -20.1329 9.23526 L -20.0971 9.1933 L -20.0613 9.15133 L -20.0255 9.10935 L -19.9896 9.06736 L -19.9538 9.02537 L -19.9179 8.98336 L -19.882 8.94134 L -19.846 8.89931 L -19.8101 8.85727 L -19.7741 8.81521 L -19.7381 8.77315 L -19.702 8.73108 L -19.666 8.689 L -19.6299 8.6469 L -19.5938 8.6048 L -19.5577 8.56268 L -19.5215 8.52056 L -19.4854 8.47842 L -19.4491 8.43627 L -19.4129 8.39411 L -19.3767 8.35194 L -19.3404 8.30976 L -19.3041 8.26757 L -19.2677 8.22536 L -19.2314 8.18315 L -19.195 8.14092 L -19.1586 8.09868 L -19.1221 8.05643 L -19.0857 8.01417 L -19.0492 7.9719 L -19.0127 7.92961 L -18.9761 7.88732 L -18.9395 7.84501 L -18.9395 7.84501 L -18.9953 7.84096 L -19.0511 7.8369 L -19.1068 7.83282 L -19.1625 7.82874 L -19.2182 7.82464 L -19.2738 7.82053 L -19.3294 7.81641 L -19.385 7.81228 L -19.4406 7.80814 L -19.4961 7.80399 L -19.5516 7.79983 L -19.6071 7.79566 L -19.6625 7.79147 L -19.718 7.78728 L -19.7734 7.78308 L -19.8287 7.77886 L -19.8841 7.77464 L -19.9394 7.77041 L -19.9947 7.76616 L -20.05 7.76191 L -20.1053 7.75765 L -20.1605 7.75337 L -20.2157 7.74909 L -20.2709 7.7448 L -20.326 7.7405 L -20.3812 7.73619 L -20.4363 7.73187 L -20.4913 7.72755 L -20.5464 7.72321 L -20.6014 7.71887 L -20.6564 7.71451 L -20.7114 7.71015 L -20.7664 7.70578 L -20.8213 7.7014 L -20.8763 7.69701 L -20.9312 7.69261 L -20.986 7.68821 L -21.0409 7.6838 L -21.0957 7.67938 L -21.1505 7.67495 L -21.2053 7.67051 L -21.2601 7.66607 L -21.3148 7.66162 L -21.3696 7.65716 L -21.4243 7.65269 L -21.4789 7.64821 L -21.5336 7.64373 L -21.5882 7.63924 L -21.6429 7.63474 L -21.6975 7.63024 L -21.752 7.62573 L -21.8066 7.62121 L -21.8611 7.61668 L -21.9156 7.61215 L -21.9701 7.60761 L -22.0246 7.60306 L -22.0791 7.59851 L -22.1335 7.59395 L -22.1879 7.58938 L -22.2423 7.58481 L -22.2584 7.53747 L -22.2744 7.49009 L -22.2903 7.44268 L -22.3061 7.39524 L -22.3217 7.34776 L -22.3373 7.30025 L -22.3528 7.25271 L -22.3682 7.20514 L -22.3835 7.15753 L -22.3986 7.10989 L -22.4137 7.06221 L -22.4287 7.01451 L -22.4436 6.96677 L -22.4583 6.919 L -22.473 6.87121 L -22.4876 6.82337 L -22.5021 6.77551 L -22.5164 6.72762 L -22.5307 6.6797 L -22.5448 6.63175 L -22.5589 6.58376 L -22.5729 6.53575 L -22.5867 6.48771 L -22.6005 6.43964 L -22.6141 6.39154 L -22.6277 6.34341 L -22.6411 6.29525 L -22.6545 6.24706 L -22.6677 6.19885 L -22.6808 6.1506 L -22.7175 6.01384 L -22.7302 5.96549 L -22.7429 5.91711 L -22.7554 5.86871 L -22.7678 5.82028 L -22.7802 5.77183 L -22.7924 5.72334 L -22.8045 5.67484 L -22.8165 5.6263 L -22.8285 5.57774 L -22.8403 5.52916 L -22.852 5.48055 L -22.8636 5.43192 L -22.8751 5.38326 L -22.8865 5.33458 L -22.8978 5.28587 L -22.909 5.23714 L -22.9201 5.18839 L -22.9311 5.13961 L -22.942 5.09081 L -22.9527 5.04198 L -22.9634 4.99314 L -22.974 4.94427 L -22.9845 4.89537 L -22.9948 4.84646 L -23.0051 4.79752 L -23.0152 4.74857 L -23.0253 4.69959 L -23.0352 4.65059 L -23.0451 4.60156 L -23.0548 4.55252 L -23.01 4.52136 L -22.9652 4.4902 L -22.9203 4.45903 L -22.8754 4.42786 L -22.8305 4.39668 L -22.7856 4.3655 L -22.7406 4.33432 L -22.6957 4.30313 L -22.6507 4.27194 L -22.6057 4.24075 L -22.5606 4.20955 L -22.5156 4.17834 L -22.4705 4.14713 L -22.4254 4.11592 L -22.3803 4.08471 L -22.3352 4.05349 L -22.29 4.02226 L -22.2448 3.99104 L -22.1996 3.9598 L -22.1544 3.92857 L -22.1091 3.89733 L -22.0638 3.86608 L -22.0185 3.83484 L -21.9732 3.80358 L -21.9279 3.77233 L -21.8825 3.74107 L -21.8371 3.7098 L -21.7917 3.67853 L -21.7463 3.64726 L -21.7008 3.61598 L -21.6553 3.5847 L -21.6098 3.55342 L -21.5643 3.52213 L -21.5187 3.49084 L -21.4731 3.45954 L -21.4275 3.42824 L -21.3818 3.39693 L -21.3362 3.36562 L -21.2905 3.33431 L -21.2448 3.30299 L -21.199 3.27167 L -21.1533 3.24035 L -21.1075 3.20902 L -21.0616 3.17768 L -21.0158 3.14634 L -20.9699 3.115 L -20.924 3.08366 L -20.8781 3.05231 L -20.8321 3.02095 L -20.7861 2.98959 L -20.7401 2.95823 L -20.694 2.92686 L -20.648 2.89549 L -20.6019 2.86412 L -20.5557 2.83274 L -20.5096 2.80136 L -20.4634 2.76997 L -20.4172 2.73858 L -20.3709 2.70719 L -20.3246 2.67579 L -20.3246 2.67579 L -20.3775 2.65744 L -20.4303 2.63908 L -20.483 2.62072 L -20.5358 2.60236 L -20.5885 2.584 L -20.6412 2.56563 L -20.6938 2.54726 L -20.7464 2.52888 L -20.799 2.5105 L -20.8516 2.49212 L -20.9041 2.47373 L -20.9567 2.45534 L -21.0091 2.43695 L -21.0616 2.41855 L -21.114 2.40015 L -21.1664 2.38175 L -21.2188 2.36334 L -21.2711 2.34493 L -21.3235 2.32652 L -21.3757 2.3081 L -21.428 2.28969 L -21.4803 2.27127 L -21.5325 2.25284 L -21.5847 2.23442 L -21.6368 2.21599 L -21.689 2.19756 L -21.7411 2.17912 L -21.7932 2.16069 L -21.8452 2.14225 L -21.8972 2.12381 L -21.9493 2.10536 L -22.0012 2.08692 L -22.0532 2.06847 L -22.1051 2.05002 L -22.1571 2.03157 L -22.2089 2.01311 L -22.2608 1.99465 L -22.3127 1.97619 L -22.3645 1.95773 L -22.4163 1.93927 L -22.468 1.9208 L -22.5198 1.90234 L -22.5715 1.88387 L -22.6232 1.8654 L -22.6749 1.84692 L -22.7266 1.82845 L -22.7782 1.80997 L -22.8298 1.79149 L -22.8814 1.77301 L -22.933 1.75453 L -22.9845 1.73605 L -23.0361 1.71756 L -23.0876 1.69908 L -23.139 1.68059 L -23.1905 1.6621 L -23.242 1.64361 L -23.2934 1.62511 L -23.3448 1.60662 L -23.3962 1.58812 L -23.4475 1.56963 L -23.4508 1.51974 L -23.454 1.46984 L -23.4571 1.41993 L -23.46 1.37002 L -23.4629 1.3201 L -23.4656 1.27018 L -23.4683 1.22025 L -23.4708 1.17031 L -23.4733 1.12037 L -23.4756 1.07043 L -23.4778 1.02048 L -23.48 0.97052 L -23.482 0.920561 L -23.4839 0.870597 L -23.4857 0.820629 L -23.4874 0.770658 L -23.4889 0.720683 L -23.4904 0.670705 L -23.4918 0.620724 L -23.4931 0.57074 L -23.4942 0.520754 L -23.4953 0.470765 L -23.4962 0.420774 L -23.4971 0.370781 L -23.4978 0.320786 L -23.4984 0.27079 L -23.499 0.220793 L -23.4994 0.170795 L -23.4997 0.120796 L -23.4999 0.0707962 L -23.4999 -0.0707962 L -23.4997 -0.120796 L -23.4994 -0.170795 L -23.499 -0.220793 L -23.4984 -0.27079 L -23.4978 -0.320786 L -23.4971 -0.370781 L -23.4962 -0.420774 L -23.4953 -0.470765 L -23.4942 -0.520754 L -23.4931 -0.57074 L -23.4918 -0.620724 L -23.4904 -0.670705 L -23.4889 -0.720683 L -23.4874 -0.770658 L -23.4857 -0.820629 L -23.4839 -0.870597 L -23.482 -0.920561 L -23.48 -0.97052 L -23.4778 -1.02048 L -23.4756 -1.07043 L -23.4733 -1.12037 L -23.4708 -1.17031 L -23.4683 -1.22025 L -23.4656 -1.27018 L -23.4629 -1.3201 L -23.46 -1.37002 L -23.4571 -1.41993 L -23.454 -1.46984 L -23.4508 -1.51974 L -23.4475 -1.56963 L -23.3962 -1.58812 L -23.3448 -1.60662 L -23.2934 -1.62511 L -23.242 -1.64361 L -23.1905 -1.6621 L -23.139 -1.68059 L -23.0876 -1.69908 L -23.0361 -1.71756 L -22.9845 -1.73605 L -22.933 -1.75453 L -22.8814 -1.77301 L -22.8298 -1.79149 L -22.7782 -1.80997 L -22.7266 -1.82845 L -22.6749 -1.84692 L -22.6232 -1.8654 L -22.5715 -1.88387 L -22.5198 -1.90234 L -22.468 -1.9208 L -22.4163 -1.93927 L -22.3645 -1.95773 L -22.3127 -1.97619 L -22.2608 -1.99465 L -22.2089 -2.01311 L -22.1571 -2.03157 L -22.1051 -2.05002 L -22.0532 -2.06847 L -22.0012 -2.08692 L -21.9493 -2.10536 L -21.8972 -2.12381 L -21.8452 -2.14225 L -21.7932 -2.16069 L -21.7411 -2.17912 L -21.689 -2.19756 L -21.6368 -2.21599 L -21.5847 -2.23442 L -21.5325 -2.25284 L -21.4803 -2.27127 L -21.428 -2.28969 L -21.3757 -2.3081 L -21.3235 -2.32652 L -21.2711 -2.34493 L -21.2188 -2.36334 L -21.1664 -2.38175 L -21.114 -2.40015 L -21.0616 -2.41855 L -21.0091 -2.43695 L -20.9567 -2.45534 L -20.9041 -2.47373 L -20.8516 -2.49212 L -20.799 -2.5105 L -20.7464 -2.52888 L -20.6938 -2.54726 L -20.6412 -2.56563 L -20.5885 -2.584 L -20.5358 -2.60236 L -20.483 -2.62072 L -20.4303 -2.63908 L -20.3775 -2.65744 L -20.3246 -2.67579 L -20.3246 -2.67579 L -20.3709 -2.70719 L -20.4172 -2.73858 L -20.4634 -2.76997 L -20.5096 -2.80136 L -20.5557 -2.83274 L -20.6019 -2.86412 L -20.648 -2.89549 L -20.694 -2.92686 L -20.7401 -2.95823 L -20.7861 -2.98959 L -20.8321 -3.02095 L -20.8781 -3.05231 L -20.924 -3.08366 L -20.9699 -3.115 L -21.0158 -3.14634 L -21.0616 -3.17768 L -21.1075 -3.20902 L -21.1533 -3.24035 L -21.199 -3.27167 L -21.2448 -3.30299 L -21.2905 -3.33431 L -21.3362 -3.36562 L -21.3818 -3.39693 L -21.4275 -3.42824 L -21.4731 -3.45954 L -21.5187 -3.49084 L -21.5643 -3.52213 L -21.6098 -3.55342 L -21.6553 -3.5847 L -21.7008 -3.61598 L -21.7463 -3.64726 L -21.7917 -3.67853 L -21.8371 -3.7098 L -21.8825 -3.74107 L -21.9279 -3.77233 L -21.9732 -3.80358 L -22.0185 -3.83484 L -22.0638 -3.86608 L -22.1091 -3.89733 L -22.1544 -3.92857 L -22.1996 -3.9598 L -22.2448 -3.99104 L -22.29 -4.02226 L -22.3352 -4.05349 L -22.3803 -4.08471 L -22.4254 -4.11592 L -22.4705 -4.14713 L -22.5156 -4.17834 L -22.5606 -4.20955 L -22.6057 -4.24075 L -22.6507 -4.27194 L -22.6957 -4.30313 L -22.7406 -4.33432 L -22.7856 -4.3655 L -22.8305 -4.39668 L -22.8754 -4.42786 L -22.9203 -4.45903 L -22.9652 -4.4902 L -23.01 -4.52136 L -23.0548 -4.55252 L -23.0451 -4.60156 L -23.0352 -4.65059 L -23.0253 -4.69959 L -23.0152 -4.74857 L -23.0051 -4.79752 L -22.9948 -4.84646 L -22.9845 -4.89537 L -22.974 -4.94427 L -22.9634 -4.99314 L -22.9527 -5.04198 L -22.942 -5.09081 L -22.9311 -5.13961 L -22.9201 -5.18839 L -22.909 -5.23714 L -22.8978 -5.28587 L -22.8865 -5.33458 L -22.8751 -5.38326 L -22.8636 -5.43192 L -22.852 -5.48055 L -22.8403 -5.52916 L -22.8285 -5.57774 L -22.8165 -5.6263 L -22.8045 -5.67484 L -22.7924 -5.72334 L -22.7802 -5.77183 L -22.7678 -5.82028 L -22.7554 -5.86871 L -22.7429 -5.91711 L -22.7302 -5.96549 L -22.7175 -6.01384 L -22.6808 -6.1506 L -22.6677 -6.19885 L -22.6545 -6.24706 L -22.6411 -6.29525 L -22.6277 -6.34341 L -22.6141 -6.39154 L -22.6005 -6.43964 L -22.5867 -6.48771 L -22.5729 -6.53575 L -22.5589 -6.58376 L -22.5448 -6.63175 L -22.5307 -6.6797 L -22.5164 -6.72762 L -22.5021 -6.77551 L -22.4876 -6.82337 L -22.473 -6.87121 L -22.4583 -6.919 L -22.4436 -6.96677 L -22.4287 -7.01451 L -22.4137 -7.06221 L -22.3986 -7.10989 L -22.3835 -7.15753 L -22.3682 -7.20514 L -22.3528 -7.25271 L -22.3373 -7.30025 L -22.3217 -7.34776 L -22.3061 -7.39524 L -22.2903 -7.44268 L -22.2744 -7.49009 L -22.2584 -7.53747 L -22.2423 -7.58481 L -22.1879 -7.58938 L -22.1335 -7.59395 L -22.0791 -7.59851 L -22.0246 -7.60306 L -21.9701 -7.60761 L -21.9156 -7.61215 L -21.8611 -7.61668 L -21.8066 -7.62121 L -21.752 -7.62573 L -21.6975 -7.63024 L -21.6429 -7.63474 L -21.5882 -7.63924 L -21.5336 -7.64373 L -21.4789 -7.64821 L -21.4243 -7.65269 L -21.3696 -7.65716 L -21.3148 -7.66162 L -21.2601 -7.66607 L -21.2053 -7.67051 L -21.1505 -7.67495 L -21.0957 -7.67938 L -21.0409 -7.6838 L -20.986 -7.68821 L -20.9312 -7.69261 L -20.8763 -7.69701 L -20.8213 -7.7014 L -20.7664 -7.70578 L -20.7114 -7.71015 L -20.6564 -7.71451 L -20.6014 -7.71887 L -20.5464 -7.72321 L -20.4913 -7.72755 L -20.4363 -7.73187 L -20.3812 -7.73619 L -20.326 -7.7405 L -20.2709 -7.7448 L -20.2157 -7.74909 L -20.1605 -7.75337 L -20.1053 -7.75765 L -20.05 -7.76191 L -19.9947 -7.76616 L -19.9394 -7.77041 L -19.8841 -7.77464 L -19.8287 -7.77886 L -19.7734 -7.78308 L -19.718 -7.78728 L -19.6625 -7.79147 L -19.6071 -7.79566 L -19.5516 -7.79983 L -19.4961 -7.80399 L -19.4406 -7.80814 L -19.385 -7.81228 L -19.3294 -7.81641 L -19.2738 -7.82053 L -19.2182 -7.82464 L -19.1625 -7.82874 L -19.1068 -7.83282 L -19.0511 -7.8369 L -18.9953 -7.84096 L -18.9395 -7.84501 L -18.9395 -7.84501 L -18.9761 -7.88732 L -19.0127 -7.92961 L -19.0492 -7.9719 L -19.0857 -8.01417 L -19.1221 -8.05643 L -19.1586 -8.09868 L -19.195 -8.14092 L -19.2314 -8.18315 L -19.2677 -8.22536 L -19.3041 -8.26757 L -19.3404 -8.30976 L -19.3767 -8.35194 L -19.4129 -8.39411 L -19.4491 -8.43627 L -19.4854 -8.47842 L -19.5215 -8.52056 L -19.5577 -8.56268 L -19.5938 -8.6048 L -19.6299 -8.6469 L -19.666 -8.689 L -19.702 -8.73108 L -19.7381 -8.77315 L -19.7741 -8.81521 L -19.8101 -8.85727 L -19.846 -8.89931 L -19.882 -8.94134 L -19.9179 -8.98336 L -19.9538 -9.02537 L -19.9896 -9.06736 L -20.0255 -9.10935 L -20.0613 -9.15133 L -20.0971 -9.1933 L -20.1329 -9.23526 L -20.1686 -9.2772 L -20.2044 -9.31914 L -20.2401 -9.36107 L -20.2758 -9.40299 L -20.3114 -9.44489 L -20.3471 -9.48679 L -20.3827 -9.52868 L -20.4183 -9.57056 L -20.4539 -9.61242 L -20.4894 -9.65428 L -20.525 -9.69613 L -20.5605 -9.73797 L -20.596 -9.7798 L -20.6315 -9.82162 L -20.6669 -9.86343 L -20.7024 -9.90523 L -20.7378 -9.94702 L -20.7732 -9.9888 L -20.8086 -10.0306 L -20.844 -10.0723 L -20.8793 -10.1141 L -20.9146 -10.1558 L -20.9499 -10.1976 L -20.9852 -10.2393 L -21.0205 -10.281 L -21.0557 -10.3227 L -21.091 -10.3644 L -21.0689 -10.4093 L -21.0467 -10.4541 L -21.0244 -10.4988 L -21.002 -10.5435 L -20.9795 -10.5882 L -20.9569 -10.6328 L -20.9343 -10.6774 L -20.9115 -10.7219 L -20.8886 -10.7664 L -20.8657 -10.8108 L -20.8426 -10.8552 L -20.8195 -10.8995 L -20.7963 -10.9438 L -20.7729 -10.988 L -20.7495 -11.0321 L -20.726 -11.0763 L -20.7024 -11.1203 L -20.6787 -11.1644 L -20.6549 -11.2083 L -20.631 -11.2523 L -20.607 -11.2961 L -20.5829 -11.3399 L -20.5587 -11.3837 L -20.5345 -11.4274 L -20.5101 -11.4711 L -20.4856 -11.5147 L -20.4611 -11.5583 L -20.4365 -11.6018 L -20.4117 -11.6452 L -20.3869 -11.6886 L -20.3161 -11.8113 L -20.2909 -11.8545 L -20.2657 -11.8976 L -20.2403 -11.9407 L -20.2149 -11.9837 L -20.1893 -12.0267 L -20.1637 -12.0696 L -20.1379 -12.1125 L -20.1121 -12.1553 L -20.0862 -12.1981 L -20.0602 -12.2408 L -20.0341 -12.2835 L -20.008 -12.3261 L -19.9817 -12.3686 L -19.9553 -12.4111 L -19.9289 -12.4535 L -19.9023 -12.4959 L -19.8757 -12.5382 L -19.849 -12.5805 L -19.8222 -12.6227 L -19.7953 -12.6648 L -19.7683 -12.7069 L -19.7412 -12.7489 L -19.714 -12.7909 L -19.6868 -12.8328 L -19.6594 -12.8747 L -19.632 -12.9165 L -19.6044 -12.9582 L -19.5768 -12.9999 L -19.5491 -13.0415 L -19.5213 -13.0831 L -19.4676 -13.0734 L -19.4139 -13.0638 L -19.3601 -13.0541 L -19.3063 -13.0444 L -19.2525 -13.0347 L -19.1987 -13.025 L -19.1449 -13.0152 L -19.091 -13.0055 L -19.0372 -12.9957 L -18.9833 -12.986 L -18.9294 -12.9762 L -18.8755 -12.9664 L -18.8215 -12.9566 L -18.7676 -12.9468 L -18.7136 -12.9369 L -18.6596 -12.9271 L -18.6056 -12.9172 L -18.5515 -12.9074 L -18.4975 -12.8975 L -18.4434 -12.8876 L -18.3893 -12.8777 L -18.3352 -12.8678 L -18.2811 -12.8578 L -18.227 -12.8479 L -18.1728 -12.8379 L -18.1186 -12.8279 L -18.0644 -12.818 L -18.0102 -12.8079 L -17.9559 -12.7979 L -17.9017 -12.7879 L -17.8474 -12.7778 L -17.7931 -12.7678 L -17.7388 -12.7577 L -17.6844 -12.7476 L -17.63 -12.7375 L -17.5757 -12.7274 L -17.5212 -12.7173 L -17.4668 -12.7071 L -17.4124 -12.6969 L -17.3579 -12.6868 L -17.3034 -12.6766 L -17.2489 -12.6663 L -17.1943 -12.6561 L -17.1398 -12.6459 L -17.0852 -12.6356 L -17.0306 -12.6253 L -16.976 -12.615 L -16.9213 -12.6047 L -16.8667 -12.5944 L -16.812 -12.584 L -16.7572 -12.5737 L -16.7025 -12.5633 L -16.6477 -12.5529 L -16.593 -12.5425 L -16.5381 -12.532 L -16.4833 -12.5216 L -16.4285 -12.5111 L -16.3736 -12.5006 L -16.3187 -12.4901 L -16.2637 -12.4796 L -16.2637 -12.4796 L -16.2881 -12.5299 L -16.3125 -12.5803 L -16.3368 -12.6306 L -16.3611 -12.6808 L -16.3854 -12.7311 L -16.4097 -12.7813 L -16.4339 -12.8316 L -16.4581 -12.8818 L -16.4823 -12.9319 L -16.5065 -12.9821 L -16.5307 -13.0323 L -16.5548 -13.0824 L -16.5789 -13.1325 L -16.603 -13.1826 L -16.627 -13.2327 L -16.6511 -13.2828 L -16.6751 -13.3328 L -16.6991 -13.3828 L -16.7231 -13.4329 L -16.747 -13.4829 L -16.7709 -13.5328 L -16.7949 -13.5828 L -16.8188 -13.6328 L -16.8426 -13.6827 L -16.8665 -13.7326 L -16.8903 -13.7825 L -16.9141 -13.8324 L -16.9379 -13.8822 L -16.9617 -13.9321 L -16.9855 -13.9819 L -17.0092 -14.0318 L -17.0329 -14.0816 L -17.0566 -14.1313 L -17.0803 -14.1811 L -17.1039 -14.2309 L -17.1276 -14.2806 L -17.1512 -14.3303 L -17.1748 -14.3801 L -17.1984 -14.4297 L -17.222 -14.4794 L -17.2455 -14.5291 L -17.2691 -14.5787 L -17.2926 -14.6284 L -17.3161 -14.678 L -17.3396 -14.7276 L -17.363 -14.7772 L -17.3865 -14.8268 L -17.4099 -14.8763 L -17.4333 -14.9259 L -17.4567 -14.9754 L -17.4801 -15.0249 L -17.5035 -15.0745 L -17.5268 -15.1239 L -17.5501 -15.1734 L -17.5735 -15.2229 L -17.5968 -15.2723 L -17.62 -15.3218 L -17.6433 -15.3712 L -17.6666 -15.4206 L -17.6898 -15.47 L -17.6568 -15.5076 L -17.6238 -15.5451 L -17.5907 -15.5826 L -17.5575 -15.62 L -17.5242 -15.6573 L -17.4909 -15.6946 L -17.4574 -15.7317 L -17.4239 -15.7689 L -17.3903 -15.8059 L -17.3567 -15.8429 L -17.3229 -15.8797 L -17.2891 -15.9166 L -17.2552 -15.9533 L -17.2212 -15.99 L -17.1871 -16.0266 L -17.153 -16.0631 L -17.1188 -16.0996 L -17.0845 -16.136 L -17.0501 -16.1723 L -17.0157 -16.2085 L -16.9812 -16.2447 L -16.9466 -16.2808 L -16.9119 -16.3168 L -16.8771 -16.3528 L -16.8423 -16.3886 L -16.8074 -16.4244 L -16.7724 -16.4602 L -16.7373 -16.4958 L -16.7022 -16.5314 L -16.667 -16.5669 L -16.5669 -16.667 L -16.5314 -16.7022 L -16.4958 -16.7373 L -16.4602 -16.7724 L -16.4244 -16.8074 L -16.3886 -16.8423 L -16.3528 -16.8771 L -16.3168 -16.9119 L -16.2808 -16.9466 L -16.2447 -16.9812 L -16.2085 -17.0157 L -16.1723 -17.0501 L -16.136 -17.0845 L -16.0996 -17.1188 L -16.0631 -17.153 L -16.0266 -17.1871 L -15.99 -17.2212 L -15.9533 -17.2552 L -15.9166 -17.2891 L -15.8797 -17.3229 L -15.8429 -17.3567 L -15.8059 -17.3903 L -15.7689 -17.4239 L -15.7317 -17.4574 L -15.6946 -17.4909 L -15.6573 -17.5242 L -15.62 -17.5575 L -15.5826 -17.5907 L -15.5451 -17.6238 L -15.5076 -17.6568 L -15.47 -17.6898 L -15.4206 -17.6666 L -15.3712 -17.6433 L -15.3218 -17.62 L -15.2723 -17.5968 L -15.2229 -17.5735 L -15.1734 -17.5501 L -15.1239 -17.5268 L -15.0745 -17.5035 L -15.0249 -17.4801 L -14.9754 -17.4567 L -14.9259 -17.4333 L -14.8763 -17.4099 L -14.8268 -17.3865 L -14.7772 -17.363 L -14.7276 -17.3396 L -14.678 -17.3161 L -14.6284 -17.2926 L -14.5787 -17.2691 L -14.5291 -17.2455 L -14.4794 -17.222 L -14.4297 -17.1984 L -14.3801 -17.1748 L -14.3303 -17.1512 L -14.2806 -17.1276 L -14.2309 -17.1039 L -14.1811 -17.0803 L -14.1313 -17.0566 L -14.0816 -17.0329 L -14.0318 -17.0092 L -13.9819 -16.9855 L -13.9321 -16.9617 L -13.8822 -16.9379 L -13.8324 -16.9141 L -13.7825 -16.8903 L -13.7326 -16.8665 L -13.6827 -16.8426 L -13.6328 -16.8188 L -13.5828 -16.7949 L -13.5328 -16.7709 L -13.4829 -16.747 L -13.4329 -16.7231 L -13.3828 -16.6991 L -13.3328 -16.6751 L -13.2828 -16.6511 L -13.2327 -16.627 L -13.1826 -16.603 L -13.1325 -16.5789 L -13.0824 -16.5548 L -13.0323 -16.5307 L -12.9821 -16.5065 L -12.9319 -16.4823 L -12.8818 -16.4581 L -12.8316 -16.4339 L -12.7813 -16.4097 L -12.7311 -16.3854 L -12.6808 -16.3611 L -12.6306 -16.3368 L -12.5803 -16.3125 L -12.5299 -16.2881 L -12.4796 -16.2637 L -12.4796 -16.2637 L -12.4901 -16.3187 L -12.5006 -16.3736 L -12.5111 -16.4285 L -12.5216 -16.4833 L -12.532 -16.5381 L -12.5425 -16.593 L -12.5529 -16.6477 L -12.5633 -16.7025 L -12.5737 -16.7572 L -12.584 -16.812 L -12.5944 -16.8667 L -12.6047 -16.9213 L -12.615 -16.976 L -12.6253 -17.0306 L -12.6356 -17.0852 L -12.6459 -17.1398 L -12.6561 -17.1943 L -12.6663 -17.2489 L -12.6766 -17.3034 L -12.6868 -17.3579 L -12.6969 -17.4124 L -12.7071 -17.4668 L -12.7173 -17.5212 L -12.7274 -17.5757 L -12.7375 -17.63 L -12.7476 -17.6844 L -12.7577 -17.7388 L -12.7678 -17.7931 L -12.7778 -17.8474 L -12.7879 -17.9017 L -12.7979 -17.9559 L -12.8079 -18.0102 L -12.818 -18.0644 L -12.8279 -18.1186 L -12.8379 -18.1728 L -12.8479 -18.227 L -12.8578 -18.2811 L -12.8678 -18.3352 L -12.8777 -18.3893 L -12.8876 -18.4434 L -12.8975 -18.4975 L -12.9074 -18.5515 L -12.9172 -18.6056 L -12.9271 -18.6596 L -12.9369 -18.7136 L -12.9468 -18.7676 L -12.9566 -18.8215 L -12.9664 -18.8755 L -12.9762 -18.9294 L -12.986 -18.9833 L -12.9957 -19.0372 L -13.0055 -19.091 L -13.0152 -19.1449 L -13.025 -19.1987 L -13.0347 -19.2525 L -13.0444 -19.3063 L -13.0541 -19.3601 L -13.0638 -19.4139 L -13.0734 -19.4676 L -13.0831 -19.5213 L -13.0415 -19.5491 L -12.9999 -19.5768 L -12.9582 -19.6044 L -12.9165 -19.632 L -12.8747 -19.6594 L -12.8328 -19.6868 L -12.7909 -19.714 L -12.7489 -19.7412 L -12.7069 -19.7683 L -12.6648 -19.7953 L -12.6227 -19.8222 L -12.5805 -19.849 L -12.5382 -19.8757 L -12.4959 -19.9023 L -12.4535 -19.9289 L -12.4111 -19.9553 L -12.3686 -19.9817 L -12.3261 -20.008 L -12.2835 -20.0341 L -12.2408 -20.0602 L -12.1981 -20.0862 L -12.1553 -20.1121 L -12.1125 -20.1379 L -12.0696 -20.1637 L -12.0267 -20.1893 L -11.9837 -20.2149 L -11.9407 -20.2403 L -11.8976 -20.2657 L -11.8545 -20.2909 L -11.8113 -20.3161 L -11.6886 -20.3869 L -11.6452 -20.4117 L -11.6018 -20.4365 L -11.5583 -20.4611 L -11.5147 -20.4856 L -11.4711 -20.5101 L -11.4274 -20.5345 L -11.3837 -20.5587 L -11.3399 -20.5829 L -11.2961 -20.607 L -11.2523 -20.631 L -11.2083 -20.6549 L -11.1644 -20.6787 L -11.1203 -20.7024 L -11.0763 -20.726 L -11.0321 -20.7495 L -10.988 -20.7729 L -10.9438 -20.7963 L -10.8995 -20.8195 L -10.8552 -20.8426 L -10.8108 -20.8657 L -10.7664 -20.8886 L -10.7219 -20.9115 L -10.6774 -20.9343 L -10.6328 -20.9569 L -10.5882 -20.9795 L -10.5435 -21.002 L -10.4988 -21.0244 L -10.4541 -21.0467 L -10.4093 -21.0689 L -10.3644 -21.091 L -10.3227 -21.0557 L -10.281 -21.0205 L -10.2393 -20.9852 L -10.1976 -20.9499 L -10.1558 -20.9146 L -10.1141 -20.8793 L -10.0723 -20.844 L -10.0306 -20.8086 L -9.9888 -20.7732 L -9.94702 -20.7378 L -9.90523 -20.7024 L -9.86343 -20.6669 L -9.82162 -20.6315 L -9.7798 -20.596 L -9.73797 -20.5605 L -9.69613 -20.525 L -9.65428 -20.4894 L -9.61242 -20.4539 L -9.57056 -20.4183 L -9.52868 -20.3827 L -9.48679 -20.3471 L -9.44489 -20.3114 L -9.40299 -20.2758 L -9.36107 -20.2401 L -9.31914 -20.2044 L -9.2772 -20.1686 L -9.23526 -20.1329 L -9.1933 -20.0971 L -9.15133 -20.0613 L -9.10935 -20.0255 L -9.06736 -19.9896 L -9.02537 -19.9538 L -8.98336 -19.9179 L -8.94134 -19.882 L -8.89931 -19.846 L -8.85727 -19.8101 L -8.81521 -19.7741 L -8.77315 -19.7381 L -8.73108 -19.702 L -8.689 -19.666 L -8.6469 -19.6299 L -8.6048 -19.5938 L -8.56268 -19.5577 L -8.52056 -19.5215 L -8.47842 -19.4854 L -8.43627 -19.4491 L -8.39411 -19.4129 L -8.35194 -19.3767 L -8.30976 -19.3404 L -8.26757 -19.3041 L -8.22536 -19.2677 L -8.18315 -19.2314 L -8.14092 -19.195 L -8.09868 -19.1586 L -8.05643 -19.1221 L -8.01417 -19.0857 L -7.9719 -19.0492 L -7.92961 -19.0127 L -7.88732 -18.9761 L -7.84501 -18.9395 L -7.84501 -18.9395 L -7.84096 -18.9953 L -7.8369 -19.0511 L -7.83282 -19.1068 L -7.82874 -19.1625 L -7.82464 -19.2182 L -7.82053 -19.2738 L -7.81641 -19.3294 L -7.81228 -19.385 L -7.80814 -19.4406 L -7.80399 -19.4961 L -7.79983 -19.5516 L -7.79566 -19.6071 L -7.79147 -19.6625 L -7.78728 -19.718 L -7.78308 -19.7734 L -7.77886 -19.8287 L -7.77464 -19.8841 L -7.77041 -19.9394 L -7.76616 -19.9947 L -7.76191 -20.05 L -7.75765 -20.1053 L -7.75337 -20.1605 L -7.74909 -20.2157 L -7.7448 -20.2709 L -7.7405 -20.326 L -7.73619 -20.3812 L -7.73187 -20.4363 L -7.72755 -20.4913 L -7.72321 -20.5464 L -7.71887 -20.6014 L -7.71451 -20.6564 L -7.71015 -20.7114 L -7.70578 -20.7664 L -7.7014 -20.8213 L -7.69701 -20.8763 L -7.69261 -20.9312 L -7.68821 -20.986 L -7.6838 -21.0409 L -7.67938 -21.0957 L -7.67495 -21.1505 L -7.67051 -21.2053 L -7.66607 -21.2601 L -7.66162 -21.3148 L -7.65716 -21.3696 L -7.65269 -21.4243 L -7.64821 -21.4789 L -7.64373 -21.5336 L -7.63924 -21.5882 L -7.63474 -21.6429 L -7.63024 -21.6975 L -7.62573 -21.752 L -7.62121 -21.8066 L -7.61668 -21.8611 L -7.61215 -21.9156 L -7.60761 -21.9701 L -7.60306 -22.0246 L -7.59851 -22.0791 L -7.59395 -22.1335 L -7.58938 -22.1879 L -7.58481 -22.2423 L -7.53747 -22.2584 L -7.49009 -22.2744 L -7.44268 -22.2903 L -7.39524 -22.3061 L -7.34776 -22.3217 L -7.30025 -22.3373 L -7.25271 -22.3528 L -7.20514 -22.3682 L -7.15753 -22.3835 L -7.10989 -22.3986 L -7.06221 -22.4137 L -7.01451 -22.4287 L -6.96677 -22.4436 L -6.919 -22.4583 L -6.87121 -22.473 L -6.82337 -22.4876 L -6.77551 -22.5021 L -6.72762 -22.5164 L -6.6797 -22.5307 L -6.63175 -22.5448 L -6.58376 -22.5589 L -6.53575 -22.5729 L -6.48771 -22.5867 L -6.43964 -22.6005 L -6.39154 -22.6141 L -6.34341 -22.6277 L -6.29525 -22.6411 L -6.24706 -22.6545 L -6.19885 -22.6677 L -6.1506 -22.6808 L -6.01384 -22.7175 L -5.96549 -22.7302 L -5.91711 -22.7429 L -5.86871 -22.7554 L -5.82028 -22.7678 L -5.77183 -22.7802 L -5.72334 -22.7924 L -5.67484 -22.8045 L -5.6263 -22.8165 L -5.57774 -22.8285 L -5.52916 -22.8403 L -5.48055 -22.852 L -5.43192 -22.8636 L -5.38326 -22.8751 L -5.33458 -22.8865 L -5.28587 -22.8978 L -5.23714 -22.909 L -5.18839 -22.9201 L -5.13961 -22.9311 L -5.09081 -22.942 L -5.04198 -22.9527 L -4.99314 -22.9634 L -4.94427 -22.974 L -4.89537 -22.9845 L -4.84646 -22.9948 L -4.79752 -23.0051 L -4.74857 -23.0152 L -4.69959 -23.0253 L -4.65059 -23.0352 L -4.60156 -23.0451 L -4.55252 -23.0548 L -4.52136 -23.01 L -4.4902 -22.9652 L -4.45903 -22.9203 L -4.42786 -22.8754 L -4.39668 -22.8305 L -4.3655 -22.7856 L -4.33432 -22.7406 L -4.30313 -22.6957 L -4.27194 -22.6507 L -4.24075 -22.6057 L -4.20955 -22.5606 L -4.17834 -22.5156 L -4.14713 -22.4705 L -4.11592 -22.4254 L -4.08471 -22.3803 L -4.05349 -22.3352 L -4.02226 -22.29 L -3.99104 -22.2448 L -3.9598 -22.1996 L -3.92857 -22.1544 L -3.89733 -22.1091 L -3.86608 -22.0638 L -3.83484 -22.0185 L -3.80358 -21.9732 L -3.77233 -21.9279 L -3.74107 -21.8825 L -3.7098 -21.8371 L -3.67853 -21.7917 L -3.64726 -21.7463 L -3.61598 -21.7008 L -3.5847 -21.6553 L -3.55342 -21.6098 L -3.52213 -21.5643 L -3.49084 -21.5187 L -3.45954 -21.4731 L -3.42824 -21.4275 L -3.39693 -21.3818 L -3.36562 -21.3362 L -3.33431 -21.2905 L -3.30299 -21.2448 L -3.27167 -21.199 L -3.24035 -21.1533 L -3.20902 -21.1075 L -3.17768 -21.0616 L -3.14634 -21.0158 L -3.115 -20.9699 L -3.08366 -20.924 L -3.05231 -20.8781 L -3.02095 -20.8321 L -2.98959 -20.7861 L -2.95823 -20.7401 L -2.92686 -20.694 L -2.89549 -20.648 L -2.86412 -20.6019 L -2.83274 -20.5557 L -2.80136 -20.5096 L -2.76997 -20.4634 L -2.73858 -20.4172 L -2.70719 -20.3709 L -2.67579 -20.3246 L -2.67579 -20.3246 L -2.65744 -20.3775 L -2.63908 -20.4303 L -2.62072 -20.483 L -2.60236 -20.5358 L -2.584 -20.5885 L -2.56563 -20.6412 L -2.54726 -20.6938 L -2.52888 -20.7464 L -2.5105 -20.799 L -2.49212 -20.8516 L -2.47373 -20.9041 L -2.45534 -20.9567 L -2.43695 -21.0091 L -2.41855 -21.0616 L -2.40015 -21.114 L -2.38175 -21.1664 L -2.36334 -21.2188 L -2.34493 -21.2711 L -2.32652 -21.3235 L -2.3081 -21.3757 L -2.28969 -21.428 L -2.27127 -21.4803 L -2.25284 -21.5325 L -2.23442 -21.5847 L -2.21599 -21.6368 L -2.19756 -21.689 L -2.17912 -21.7411 L -2.16069 -21.7932 L -2.14225 -21.8452 L -2.12381 -21.8972 L -2.10536 -21.9493 L -2.08692 -22.0012 L -2.06847 -22.0532 L -2.05002 -22.1051 L -2.03157 -22.1571 L -2.01311 -22.2089 L -1.99465 -22.2608 L -1.97619 -22.3127 L -1.95773 -22.3645 L -1.93927 -22.4163 L -1.9208 -22.468 L -1.90234 -22.5198 L -1.88387 -22.5715 L -1.8654 -22.6232 L -1.84692 -22.6749 L -1.82845 -22.7266 L -1.80997 -22.7782 L -1.79149 -22.8298 L -1.77301 -22.8814 L -1.75453 -22.933 L -1.73605 -22.9845 L -1.71756 -23.0361 L -1.69908 -23.0876 L -1.68059 -23.139 L -1.6621 -23.1905 L -1.64361 -23.242 L -1.62511 -23.2934 L -1.60662 -23.3448 L -1.58812 -23.3962 L -1.56963 -23.4475 L -1.51974 -23.4508 L -1.46984 -23.454 L -1.41993 -23.4571 L -1.37002 -23.46 L -1.3201 -23.4629 L -1.27018 -23.4656 L -1.22025 -23.4683 L -1.17031 -23.4708 L -1.12037 -23.4733 L -1.07043 -23.4756 L -1.02048 -23.4778 L -0.97052 -23.48 L -0.920561 -23.482 L -0.870597 -23.4839 L -0.820629 -23.4857 L -0.770658 -23.4874 L -0.720683 -23.4889 L -0.670705 -23.4904 L -0.620724 -23.4918 L -0.57074 -23.4931 L -0.520754 -23.4942 L -0.470765 -23.4953 L -0.420774 -23.4962 L -0.370781 -23.4971 L -0.320786 -23.4978 L -0.27079 -23.4984 L -0.220793 -23.499 L -0.170795 -23.4994 L -0.120796 -23.4997 L -0.0707962 -23.4999 L 0.0707962 -23.4999 L 0.120796 -23.4997 L 0.170795 -23.4994 L 0.220793 -23.499 L 0.27079 -23.4984 L 0.320786 -23.4978 L 0.370781 -23.4971 L 0.420774 -23.4962 L 0.470765 -23.4953 L 0.520754 -23.4942 L 0.57074 -23.4931 L 0.620724 -23.4918 L 0.670705 -23.4904 L 0.720683 -23.4889 L 0.770658 -23.4874 L 0.820629 -23.4857 L 0.870597 -23.4839 L 0.920561 -23.482 L 0.97052 -23.48 L 1.02048 -23.4778 L 1.07043 -23.4756 L 1.12037 -23.4733 L 1.17031 -23.4708 L 1.22025 -23.4683 L 1.27018 -23.4656 L 1.3201 -23.4629 L 1.37002 -23.46 L 1.41993 -23.4571 L 1.46984 -23.454 L 1.51974 -23.4508 L 1.56963 -23.4475 L 1.58812 -23.3962 L 1.60662 -23.3448 L 1.62511 -23.2934 L 1.64361 -23.242 L 1.6621 -23.1905 L 1.68059 -23.139 L 1.69908 -23.0876 L 1.71756 -23.0361 L 1.73605 -22.9845 L 1.75453 -22.933 L 1.77301 -22.8814 L 1.79149 -22.8298 L 1.80997 -22.7782 L 1.82845 -22.7266 L 1.84692 -22.6749 L 1.8654 -22.6232 L 1.88387 -22.5715 L 1.90234 -22.5198 L 1.9208 -22.468 L 1.93927 -22.4163 L 1.95773 -22.3645 L 1.97619 -22.3127 L 1.99465 -22.2608 L 2.01311 -22.2089 L 2.03157 -22.1571 L 2.05002 -22.1051 L 2.06847 -22.0532 L 2.08692 -22.0012 L 2.10536 -21.9493 L 2.12381 -21.8972 L 2.14225 -21.8452 L 2.16069 -21.7932 L 2.17912 -21.7411 L 2.19756 -21.689 L 2.21599 -21.6368 L 2.23442 -21.5847 L 2.25284 -21.5325 L 2.27127 -21.4803 L 2.28969 -21.428 L 2.3081 -21.3757 L 2.32652 -21.3235 L 2.34493 -21.2711 L 2.36334 -21.2188 L 2.38175 -21.1664 L 2.40015 -21.114 L 2.41855 -21.0616 L 2.43695 -21.0091 L 2.45534 -20.9567 L 2.47373 -20.9041 L 2.49212 -20.8516 L 2.5105 -20.799 L 2.52888 -20.7464 L 2.54726 -20.6938 L 2.56563 -20.6412 L 2.584 -20.5885 L 2.60236 -20.5358 L 2.62072 -20.483 L 2.63908 -20.4303 L 2.65744 -20.3775 L 2.67579 -20.3246 L 2.67579 -20.3246 L 2.70719 -20.3709 L 2.73858 -20.4172 L 2.76997 -20.4634 L 2.80136 -20.5096 L 2.83274 -20.5557 L 2.86412 -20.6019 L 2.89549 -20.648 L 2.92686 -20.694 L 2.95823 -20.7401 L 2.98959 -20.7861 L 3.02095 -20.8321 L 3.05231 -20.8781 L 3.08366 -20.924 L 3.115 -20.9699 L 3.14634 -21.0158 L 3.17768 -21.0616 L 3.20902 -21.1075 L 3.24035 -21.1533 L 3.27167 -21.199 L 3.30299 -21.2448 L 3.33431 -21.2905 L 3.36562 -21.3362 L 3.39693 -21.3818 L 3.42824 -21.4275 L 3.45954 -21.4731 L 3.49084 -21.5187 L 3.52213 -21.5643 L 3.55342 -21.6098 L 3.5847 -21.6553 L 3.61598 -21.7008 L 3.64726 -21.7463 L 3.67853 -21.7917 L 3.7098 -21.8371 L 3.74107 -21.8825 L 3.77233 -21.9279 L 3.80358 -21.9732 L 3.83484 -22.0185 L 3.86608 -22.0638 L 3.89733 -22.1091 L 3.92857 -22.1544 L 3.9598 -22.1996 L 3.99104 -22.2448 L 4.02226 -22.29 L 4.05349 -22.3352 L 4.08471 -22.3803 L 4.11592 -22.4254 L 4.14713 -22.4705 L 4.17834 -22.5156 L 4.20955 -22.5606 L 4.24075 -22.6057 L 4.27194 -22.6507 L 4.30313 -22.6957 L 4.33432 -22.7406 L 4.3655 -22.7856 L 4.39668 -22.8305 L 4.42786 -22.8754 L 4.45903 -22.9203 L 4.4902 -22.9652 L 4.52136 -23.01 L 4.55252 -23.0548 L 4.60156 -23.0451 L 4.65059 -23.0352 L 4.69959 -23.0253 L 4.74857 -23.0152 L 4.79752 -23.0051 L 4.84646 -22.9948 L 4.89537 -22.9845 L 4.94427 -22.974 L 4.99314 -22.9634 L 5.04198 -22.9527 L 5.09081 -22.942 L 5.13961 -22.9311 L 5.18839 -22.9201 L 5.23714 -22.909 L 5.28587 -22.8978 L 5.33458 -22.8865 L 5.38326 -22.8751 L 5.43192 -22.8636 L 5.48055 -22.852 L 5.52916 -22.8403 L 5.57774 -22.8285 L 5.6263 -22.8165 L 5.67484 -22.8045 L 5.72334 -22.7924 L 5.77183 -22.7802 L 5.82028 -22.7678 L 5.86871 -22.7554 L 5.91711 -22.7429 L 5.96549 -22.7302 L 6.01384 -22.7175 L 6.1506 -22.6808 L 6.19885 -22.6677 L 6.24706 -22.6545 L 6.29525 -22.6411 L 6.34341 -22.6277 L 6.39154 -22.6141 L 6.43964 -22.6005 L 6.48771 -22.5867 L 6.53575 -22.5729 L 6.58376 -22.5589 L 6.63175 -22.5448 L 6.6797 -22.5307 L 6.72762 -22.5164 L 6.77551 -22.5021 L 6.82337 -22.4876 L 6.87121 -22.473 L 6.919 -22.4583 L 6.96677 -22.4436 L 7.01451 -22.4287 L 7.06221 -22.4137 L 7.10989 -22.3986 L 7.15753 -22.3835 L 7.20514 -22.3682 L 7.25271 -22.3528 L 7.30025 -22.3373 L 7.34776 -22.3217 L 7.39524 -22.3061 L 7.44268 -22.2903 L 7.49009 -22.2744 L 7.53747 -22.2584 L 7.58481 -22.2423 L 7.58938 -22.1879 L 7.59395 -22.1335 L 7.59851 -22.0791 L 7.60306 -22.0246 L 7.60761 -21.9701 L 7.61215 -21.9156 L 7.61668 -21.8611 L 7.62121 -21.8066 L 7.62573 -21.752 L 7.63024 -21.6975 L 7.63474 -21.6429 L 7.63924 -21.5882 L 7.64373 -21.5336 L 7.64821 -21.4789 L 7.65269 -21.4243 L 7.65716 -21.3696 L 7.66162 -21.3148 L 7.66607 -21.2601 L 7.67051 -21.2053 L 7.67495 -21.1505 L 7.67938 -21.0957 L 7.6838 -21.0409 L 7.68821 -20.986 L 7.69261 -20.9312 L 7.69701 -20.8763 L 7.7014 -20.8213 L 7.70578 -20.7664 L 7.71015 -20.7114 L 7.71451 -20.6564 L 7.71887 -20.6014 L 7.72321 -20.5464 L 7.72755 -20.4913 L 7.73187 -20.4363 L 7.73619 -20.3812 L 7.7405 -20.326 L 7.7448 -20.2709 L 7.74909 -20.2157 L 7.75337 -20.1605 L 7.75765 -20.1053 L 7.76191 -20.05 L 7.76616 -19.9947 L 7.77041 -19.9394 L 7.77464 -19.8841 L 7.77886 -19.8287 L 7.78308 -19.7734 L 7.78728 -19.718 L 7.79147 -19.6625 L 7.79566 -19.6071 L 7.79983 -19.5516 L 7.80399 -19.4961 L 7.80814 -19.4406 L 7.81228 -19.385 L 7.81641 -19.3294 L 7.82053 -19.2738 L 7.82464 -19.2182 L 7.82874 -19.1625 L 7.83282 -19.1068 L 7.8369 -19.0511 L 7.84096 -18.9953 L 7.84501 -18.9395 L 7.84501 -18.9395 L 7.88732 -18.9761 L 7.92961 -19.0127 L 7.9719 -19.0492 L 8.01417 -19.0857 L 8.05643 -19.1221 L 8.09868 -19.1586 L 8.14092 -19.195 L 8.18315 -19.2314 L 8.22536 -19.2677 L 8.26757 -19.3041 L 8.30976 -19.3404 L 8.35194 -19.3767 L 8.39411 -19.4129 L 8.43627 -19.4491 L 8.47842 -19.4854 L 8.52056 -19.5215 L 8.56268 -19.5577 L 8.6048 -19.5938 L 8.6469 -19.6299 L 8.689 -19.666 L 8.73108 -19.702 L 8.77315 -19.7381 L 8.81521 -19.7741 L 8.85727 -19.8101 L 8.89931 -19.846 L 8.94134 -19.882 L 8.98336 -19.9179 L 9.02537 -19.9538 L 9.06736 -19.9896 L 9.10935 -20.0255 L 9.15133 -20.0613 L 9.1933 -20.0971 L 9.23526 -20.1329 L 9.2772 -20.1686 L 9.31914 -20.2044 L 9.36107 -20.2401 L 9.40299 -20.2758 L 9.44489 -20.3114 L 9.48679 -20.3471 L 9.52868 -20.3827 L 9.57056 -20.4183 L 9.61242 -20.4539 L 9.65428 -20.4894 L 9.69613 -20.525 L 9.73797 -20.5605 L 9.7798 -20.596 L 9.82162 -20.6315 L 9.86343 -20.6669 L 9.90523 -20.7024 L 9.94702 -20.7378 L 9.9888 -20.7732 L 10.0306 -20.8086 L 10.0723 -20.844 L 10.1141 -20.8793 L 10.1558 -20.9146 L 10.1976 -20.9499 L 10.2393 -20.9852 L 10.281 -21.0205 L 10.3227 -21.0557 L 10.3644 -21.091 L 10.4093 -21.0689 L 10.4541 -21.0467 L 10.4988 -21.0244 L 10.5435 -21.002 L 10.5882 -20.9795 L 10.6328 -20.9569 L 10.6774 -20.9343 L 10.7219 -20.9115 L 10.7664 -20.8886 L 10.8108 -20.8657 L 10.8552 -20.8426 L 10.8995 -20.8195 L 10.9438 -20.7963 L 10.988 -20.7729 L 11.0321 -20.7495 L 11.0763 -20.726 L 11.1203 -20.7024 L 11.1644 -20.6787 L 11.2083 -20.6549 L 11.2523 -20.631 L 11.2961 -20.607 L 11.3399 -20.5829 L 11.3837 -20.5587 L 11.4274 -20.5345 L 11.4711 -20.5101 L 11.5147 -20.4856 L 11.5583 -20.4611 L 11.6018 -20.4365 L 11.6452 -20.4117 L 11.6886 -20.3869 L 11.8113 -20.3161 L 11.8545 -20.2909 L 11.8976 -20.2657 L 11.9407 -20.2403 L 11.9837 -20.2149 L 12.0267 -20.1893 L 12.0696 -20.1637 L 12.1125 -20.1379 L 12.1553 -20.1121 L 12.1981 -20.0862 L 12.2408 -20.0602 L 12.2835 -20.0341 L 12.3261 -20.008 L 12.3686 -19.9817 L 12.4111 -19.9553 L 12.4535 -19.9289 L 12.4959 -19.9023 L 12.5382 -19.8757 L 12.5805 -19.849 L 12.6227 -19.8222 L 12.6648 -19.7953 L 12.7069 -19.7683 L 12.7489 -19.7412 L 12.7909 -19.714 L 12.8328 -19.6868 L 12.8747 -19.6594 L 12.9165 -19.632 L 12.9582 -19.6044 L 12.9999 -19.5768 L 13.0415 -19.5491 L 13.0831 -19.5213 L 13.0734 -19.4676 L 13.0638 -19.4139 L 13.0541 -19.3601 L 13.0444 -19.3063 L 13.0347 -19.2525 L 13.025 -19.1987 L 13.0152 -19.1449 L 13.0055 -19.091 L 12.9957 -19.0372 L 12.986 -18.9833 L 12.9762 -18.9294 L 12.9664 -18.8755 L 12.9566 -18.8215 L 12.9468 -18.7676 L 12.9369 -18.7136 L 12.9271 -18.6596 L 12.9172 -18.6056 L 12.9074 -18.5515 L 12.8975 -18.4975 L 12.8876 -18.4434 L 12.8777 -18.3893 L 12.8678 -18.3352 L 12.8578 -18.2811 L 12.8479 -18.227 L 12.8379 -18.1728 L 12.8279 -18.1186 L 12.818 -18.0644 L 12.8079 -18.0102 L 12.7979 -17.9559 L 12.7879 -17.9017 L 12.7778 -17.8474 L 12.7678 -17.7931 L 12.7577 -17.7388 L 12.7476 -17.6844 L 12.7375 -17.63 L 12.7274 -17.5757 L 12.7173 -17.5212 L 12.7071 -17.4668 L 12.6969 -17.4124 L 12.6868 -17.3579 L 12.6766 -17.3034 L 12.6663 -17.2489 L 12.6561 -17.1943 L 12.6459 -17.1398 L 12.6356 -17.0852 L 12.6253 -17.0306 L 12.615 -16.976 L 12.6047 -16.9213 L 12.5944 -16.8667 L 12.584 -16.812 L 12.5737 -16.7572 L 12.5633 -16.7025 L 12.5529 -16.6477 L 12.5425 -16.593 L 12.532 -16.5381 L 12.5216 -16.4833 L 12.5111 -16.4285 L 12.5006 -16.3736 L 12.4901 -16.3187 L 12.4796 -16.2637 L 12.4796 -16.2637 L 12.5299 -16.2881 L 12.5803 -16.3125 L 12.6306 -16.3368 L 12.6808 -16.3611 L 12.7311 -16.3854 L 12.7813 -16.4097 L 12.8316 -16.4339 L 12.8818 -16.4581 L 12.9319 -16.4823 L 12.9821 -16.5065 L 13.0323 -16.5307 L 13.0824 -16.5548 L 13.1325 -16.5789 L 13.1826 -16.603 L 13.2327 -16.627 L 13.2828 -16.6511 L 13.3328 -16.6751 L 13.3828 -16.6991 L 13.4329 -16.7231 L 13.4829 -16.747 L 13.5328 -16.7709 L 13.5828 -16.7949 L 13.6328 -16.8188 L 13.6827 -16.8426 L 13.7326 -16.8665 L 13.7825 -16.8903 L 13.8324 -16.9141 L 13.8822 -16.9379 L 13.9321 -16.9617 L 13.9819 -16.9855 L 14.0318 -17.0092 L 14.0816 -17.0329 L 14.1313 -17.0566 L 14.1811 -17.0803 L 14.2309 -17.1039 L 14.2806 -17.1276 L 14.3303 -17.1512 L 14.3801 -17.1748 L 14.4297 -17.1984 L 14.4794 -17.222 L 14.5291 -17.2455 L 14.5787 -17.2691 L 14.6284 -17.2926 L 14.678 -17.3161 L 14.7276 -17.3396 L 14.7772 -17.363 L 14.8268 -17.3865 L 14.8763 -17.4099 L 14.9259 -17.4333 L 14.9754 -17.4567 L 15.0249 -17.4801 L 15.0745 -17.5035 L 15.1239 -17.5268 L 15.1734 -17.5501 L 15.2229 -17.5735 L 15.2723 -17.5968 L 15.3218 -17.62 L 15.3712 -17.6433 L 15.4206 -17.6666 L 15.47 -17.6898 L 15.5076 -17.6568 L 15.5451 -17.6238 L 15.5826 -17.5907 L 15.62 -17.5575 L 15.6573 -17.5242 L 15.6946 -17.4909 L 15.7317 -17.4574 L 15.7689 -17.4239 L 15.8059 -17.3903 L 15.8429 -17.3567 L 15.8797 -17.3229 L 15.9166 -17.2891 L 15.9533 -17.2552 L 15.99 -17.2212 L 16.0266 -17.1871 L 16.0631 -17.153 L 16.0996 -17.1188 L 16.136 -17.0845 L 16.1723 -17.0501 L 16.2085 -17.0157 L 16.2447 -16.9812 L 16.2808 -16.9466 L 16.3168 -16.9119 L 16.3528 -16.8771 L 16.3886 -16.8423 L 16.4244 -16.8074 L 16.4602 -16.7724 L 16.4958 -16.7373 L 16.5314 -16.7022 L 16.5669 -16.667 L 16.667 -16.5669 L 16.7022 -16.5314 L 16.7373 -16.4958 L 16.7724 -16.4602 L 16.8074 -16.4244 L 16.8423 -16.3886 L 16.8771 -16.3528 L 16.9119 -16.3168 L 16.9466 -16.2808 L 16.9812 -16.2447 L 17.0157 -16.2085 L 17.0501 -16.1723 L 17.0845 -16.136 L 17.1188 -16.0996 L 17.153 -16.0631 L 17.1871 -16.0266 L 17.2212 -15.99 L 17.2552 -15.9533 L 17.2891 -15.9166 L 17.3229 -15.8797 L 17.3567 -15.8429 L 17.3903 -15.8059 L 17.4239 -15.7689 L 17.4574 -15.7317 L 17.4909 -15.6946 L 17.5242 -15.6573 L 17.5575 -15.62 L 17.5907 -15.5826 L 17.6238 -15.5451 L 17.6568 -15.5076 L 17.6898 -15.47 L 17.6666 -15.4206 L 17.6433 -15.3712 L 17.62 -15.3218 L 17.5968 -15.2723 L 17.5735 -15.2229 L 17.5501 -15.1734 L 17.5268 -15.1239 L 17.5035 -15.0745 L 17.4801 -15.0249 L 17.4567 -14.9754 L 17.4333 -14.9259 L 17.4099 -14.8763 L 17.3865 -14.8268 L 17.363 -14.7772 L 17.3396 -14.7276 L 17.3161 -14.678 L 17.2926 -14.6284 L 17.2691 -14.5787 L 17.2455 -14.5291 L 17.222 -14.4794 L 17.1984 -14.4297 L 17.1748 -14.3801 L 17.1512 -14.3303 L 17.1276 -14.2806 L 17.1039 -14.2309 L 17.0803 -14.1811 L 17.0566 -14.1313 L 17.0329 -14.0816 L 17.0092 -14.0318 L 16.9855 -13.9819 L 16.9617 -13.9321 L 16.9379 -13.8822 L 16.9141 -13.8324 L 16.8903 -13.7825 L 16.8665 -13.7326 L 16.8426 -13.6827 L 16.8188 -13.6328 L 16.7949 -13.5828 L 16.7709 -13.5328 L 16.747 -13.4829 L 16.7231 -13.4329 L 16.6991 -13.3828 L 16.6751 -13.3328 L 16.6511 -13.2828 L 16.627 -13.2327 L 16.603 -13.1826 L 16.5789 -13.1325 L 16.5548 -13.0824 L 16.5307 -13.0323 L 16.5065 -12.9821 L 16.4823 -12.9319 L 16.4581 -12.8818 L 16.4339 -12.8316 L 16.4097 -12.7813 L 16.3854 -12.7311 L 16.3611 -12.6808 L 16.3368 -12.6306 L 16.3125 -12.5803 L 16.2881 -12.5299 L 16.2637 -12.4796 L 16.2637 -12.4796 L 16.3187 -12.4901 L 16.3736 -12.5006 L 16.4285 -12.5111 L 16.4833 -12.5216 L 16.5381 -12.532 L 16.593 -12.5425 L 16.6477 -12.5529 L 16.7025 -12.5633 L 16.7572 -12.5737 L 16.812 -12.584 L 16.8667 -12.5944 L 16.9213 -12.6047 L 16.976 -12.615 L 17.0306 -12.6253 L 17.0852 -12.6356 L 17.1398 -12.6459 L 17.1943 -12.6561 L 17.2489 -12.6663 L 17.3034 -12.6766 L 17.3579 -12.6868 L 17.4124 -12.6969 L 17.4668 -12.7071 L 17.5212 -12.7173 L 17.5757 -12.7274 L 17.63 -12.7375 L 17.6844 -12.7476 L 17.7388 -12.7577 L 17.7931 -12.7678 L 17.8474 -12.7778 L 17.9017 -12.7879 L 17.9559 -12.7979 L 18.0102 -12.8079 L 18.0644 -12.818 L 18.1186 -12.8279 L 18.1728 -12.8379 L 18.227 -12.8479 L 18.2811 -12.8578 L 18.3352 -12.8678 L 18.3893 -12.8777 L 18.4434 -12.8876 L 18.4975 -12.8975 L 18.5515 -12.9074 L 18.6056 -12.9172 L 18.6596 -12.9271 L 18.7136 -12.9369 L 18.7676 -12.9468 L 18.8215 -12.9566 L 18.8755 -12.9664 L 18.9294 -12.9762 L 18.9833 -12.986 L 19.0372 -12.9957 L 19.091 -13.0055 L 19.1449 -13.0152 L 19.1987 -13.025 L 19.2525 -13.0347 L 19.3063 -13.0444 L 19.3601 -13.0541 L 19.4139 -13.0638 L 19.4676 -13.0734 L 19.5213 -13.0831 L 19.5491 -13.0415 L 19.5768 -12.9999 L 19.6044 -12.9582 L 19.632 -12.9165 L 19.6594 -12.8747 L 19.6868 -12.8328 L 19.714 -12.7909 L 19.7412 -12.7489 L 19.7683 -12.7069 L 19.7953 -12.6648 L 19.8222 -12.6227 L 19.849 -12.5805 L 19.8757 -12.5382 L 19.9023 -12.4959 L 19.9289 -12.4535 L 19.9553 -12.4111 L 19.9817 -12.3686 L 20.008 -12.3261 L 20.0341 -12.2835 L 20.0602 -12.2408 L 20.0862 -12.1981 L 20.1121 -12.1553 L 20.1379 -12.1125 L 20.1637 -12.0696 L 20.1893 -12.0267 L 20.2149 -11.9837 L 20.2403 -11.9407 L 20.2657 -11.8976 L 20.2909 -11.8545 L 20.3161 -11.8113 L 20.3869 -11.6886 L 20.4117 -11.6452 L 20.4365 -11.6018 L 20.4611 -11.5583 L 20.4856 -11.5147 L 20.5101 -11.4711 L 20.5345 -11.4274 L 20.5587 -11.3837 L 20.5829 -11.3399 L 20.607 -11.2961 L 20.631 -11.2523 L 20.6549 -11.2083 L 20.6787 -11.1644 L 20.7024 -11.1203 L 20.726 -11.0763 L 20.7495 -11.0321 L 20.7729 -10.988 L 20.7963 -10.9438 L 20.8195 -10.8995 L 20.8426 -10.8552 L 20.8657 -10.8108 L 20.8886 -10.7664 L 20.9115 -10.7219 L 20.9343 -10.6774 L 20.9569 -10.6328 L 20.9795 -10.5882 L 21.002 -10.5435 L 21.0244 -10.4988 L 21.0467 -10.4541 L 21.0689 -10.4093 L 21.091 -10.3644 L 21.0557 -10.3227 L 21.0205 -10.281 L 20.9852 -10.2393 L 20.9499 -10.1976 L 20.9146 -10.1558 L 20.8793 -10.1141 L 20.844 -10.0723 L 20.8086 -10.0306 L 20.7732 -9.9888 L 20.7378 -9.94702 L 20.7024 -9.90523 L 20.6669 -9.86343 L 20.6315 -9.82162 L 20.596 -9.7798 L 20.5605 -9.73797 L 20.525 -9.69613 L 20.4894 -9.65428 L 20.4539 -9.61242 L 20.4183 -9.57056 L 20.3827 -9.52868 L 20.3471 -9.48679 L 20.3114 -9.44489 L 20.2758 -9.40299 L 20.2401 -9.36107 L 20.2044 -9.31914 L 20.1686 -9.2772 L 20.1329 -9.23526 L 20.0971 -9.1933 L 20.0613 -9.15133 L 20.0255 -9.10935 L 19.9896 -9.06736 L 19.9538 -9.02537 L 19.9179 -8.98336 L 19.882 -8.94134 L 19.846 -8.89931 L 19.8101 -8.85727 L 19.7741 -8.81521 L 19.7381 -8.77315 L 19.702 -8.73108 L 19.666 -8.689 L 19.6299 -8.6469 L 19.5938 -8.6048 L 19.5577 -8.56268 L 19.5215 -8.52056 L 19.4854 -8.47842 L 19.4491 -8.43627 L 19.4129 -8.39411 L 19.3767 -8.35194 L 19.3404 -8.30976 L 19.3041 -8.26757 L 19.2677 -8.22536 L 19.2314 -8.18315 L 19.195 -8.14092 L 19.1586 -8.09868 L 19.1221 -8.05643 L 19.0857 -8.01417 L 19.0492 -7.9719 L 19.0127 -7.92961 L 18.9761 -7.88732 L 18.9395 -7.84501 L 18.9395 -7.84501 L 18.9953 -7.84096 L 19.0511 -7.8369 L 19.1068 -7.83282 L 19.1625 -7.82874 L 19.2182 -7.82464 L 19.2738 -7.82053 L 19.3294 -7.81641 L 19.385 -7.81228 L 19.4406 -7.80814 L 19.4961 -7.80399 L 19.5516 -7.79983 L 19.6071 -7.79566 L 19.6625 -7.79147 L 19.718 -7.78728 L 19.7734 -7.78308 L 19.8287 -7.77886 L 19.8841 -7.77464 L 19.9394 -7.77041 L 19.9947 -7.76616 L 20.05 -7.76191 L 20.1053 -7.75765 L 20.1605 -7.75337 L 20.2157 -7.74909 L 20.2709 -7.7448 L 20.326 -7.7405 L 20.3812 -7.73619 L 20.4363 -7.73187 L 20.4913 -7.72755 L 20.5464 -7.72321 L 20.6014 -7.71887 L 20.6564 -7.71451 L 20.7114 -7.71015 L 20.7664 -7.70578 L 20.8213 -7.7014 L 20.8763 -7.69701 L 20.9312 -7.69261 L 20.986 -7.68821 L 21.0409 -7.6838 L 21.0957 -7.67938 L 21.1505 -7.67495 L 21.2053 -7.67051 L 21.2601 -7.66607 L 21.3148 -7.66162 L 21.3696 -7.65716 L 21.4243 -7.65269 L 21.4789 -7.64821 L 21.5336 -7.64373 L 21.5882 -7.63924 L 21.6429 -7.63474 L 21.6975 -7.63024 L 21.752 -7.62573 L 21.8066 -7.62121 L 21.8611 -7.61668 L 21.9156 -7.61215 L 21.9701 -7.60761 L 22.0246 -7.60306 L 22.0791 -7.59851 L 22.1335 -7.59395 L 22.1879 -7.58938 L 22.2423 -7.58481 L 22.2584 -7.53747 L 22.2744 -7.49009 L 22.2903 -7.44268 L 22.3061 -7.39524 L 22.3217 -7.34776 L 22.3373 -7.30025 L 22.3528 -7.25271 L 22.3682 -7.20514 L 22.3835 -7.15753 L 22.3986 -7.10989 L 22.4137 -7.06221 L 22.4287 -7.01451 L 22.4436 -6.96677 L 22.4583 -6.919 L 22.473 -6.87121 L 22.4876 -6.82337 L 22.5021 -6.77551 L 22.5164 -6.72762 L 22.5307 -6.6797 L 22.5448 -6.63175 L 22.5589 -6.58376 L 22.5729 -6.53575 L 22.5867 -6.48771 L 22.6005 -6.43964 L 22.6141 -6.39154 L 22.6277 -6.34341 L 22.6411 -6.29525 L 22.6545 -6.24706 L 22.6677 -6.19885 L 22.6808 -6.1506 L 22.7175 -6.01384 L 22.7302 -5.96549 L 22.7429 -5.91711 L 22.7554 -5.86871 L 22.7678 -5.82028 L 22.7802 -5.77183 L 22.7924 -5.72334 L 22.8045 -5.67484 L 22.8165 -5.6263 L 22.8285 -5.57774 L 22.8403 -5.52916 L 22.852 -5.48055 L 22.8636 -5.43192 L 22.8751 -5.38326 L 22.8865 -5.33458 L 22.8978 -5.28587 L 22.909 -5.23714 L 22.9201 -5.18839 L 22.9311 -5.13961 L 22.942 -5.09081 L 22.9527 -5.04198 L 22.9634 -4.99314 L 22.974 -4.94427 L 22.9845 -4.89537 L 22.9948 -4.84646 L 23.0051 -4.79752 L 23.0152 -4.74857 L 23.0253 -4.69959 L 23.0352 -4.65059 L 23.0451 -4.60156 L 23.0548 -4.55252 L 23.01 -4.52136 L 22.9652 -4.4902 L 22.9203 -4.45903 L 22.8754 -4.42786 L 22.8305 -4.39668 L 22.7856 -4.3655 L 22.7406 -4.33432 L 22.6957 -4.30313 L 22.6507 -4.27194 L 22.6057 -4.24075 L 22.5606 -4.20955 L 22.5156 -4.17834 L 22.4705 -4.14713 L 22.4254 -4.11592 L 22.3803 -4.08471 L 22.3352 -4.05349 L 22.29 -4.02226 L 22.2448 -3.99104 L 22.1996 -3.9598 L 22.1544 -3.92857 L 22.1091 -3.89733 L 22.0638 -3.86608 L 22.0185 -3.83484 L 21.9732 -3.80358 L 21.9279 -3.77233 L 21.8825 -3.74107 L 21.8371 -3.7098 L 21.7917 -3.67853 L 21.7463 -3.64726 L 21.7008 -3.61598 L 21.6553 -3.5847 L 21.6098 -3.55342 L 21.5643 -3.52213 L 21.5187 -3.49084 L 21.4731 -3.45954 L 21.4275 -3.42824 L 21.3818 -3.39693 L 21.3362 -3.36562 L 21.2905 -3.33431 L 21.2448 -3.30299 L 21.199 -3.27167 L 21.1533 -3.24035 L 21.1075 -3.20902 L 21.0616 -3.17768 L 21.0158 -3.14634 L 20.9699 -3.115 L 20.924 -3.08366 L 20.8781 -3.05231 L 20.8321 -3.02095 L 20.7861 -2.98959 L 20.7401 -2.95823 L 20.694 -2.92686 L 20.648 -2.89549 L 20.6019 -2.86412 L 20.5557 -2.83274 L 20.5096 -2.80136 L 20.4634 -2.76997 L 20.4172 -2.73858 L 20.3709 -2.70719 L 20.3246 -2.67579 L 20.3246 -2.67579 L 20.3775 -2.65744 L 20.4303 -2.63908 L 20.483 -2.62072 L 20.5358 -2.60236 L 20.5885 -2.584 L 20.6412 -2.56563 L 20.6938 -2.54726 L 20.7464 -2.52888 L 20.799 -2.5105 L 20.8516 -2.49212 L 20.9041 -2.47373 L 20.9567 -2.45534 L 21.0091 -2.43695 L 21.0616 -2.41855 L 21.114 -2.40015 L 21.1664 -2.38175 L 21.2188 -2.36334 L 21.2711 -2.34493 L 21.3235 -2.32652 L 21.3757 -2.3081 L 21.428 -2.28969 L 21.4803 -2.27127 L 21.5325 -2.25284 L 21.5847 -2.23442 L 21.6368 -2.21599 L 21.689 -2.19756 L 21.7411 -2.17912 L 21.7932 -2.16069 L 21.8452 -2.14225 L 21.8972 -2.12381 L 21.9493 -2.10536 L 22.0012 -2.08692 L 22.0532 -2.06847 L 22.1051 -2.05002 L 22.1571 -2.03157 L 22.2089 -2.01311 L 22.2608 -1.99465 L 22.3127 -1.97619 L 22.3645 -1.95773 L 22.4163 -1.93927 L 22.468 -1.9208 L 22.5198 -1.90234 L 22.5715 -1.88387 L 22.6232 -1.8654 L 22.6749 -1.84692 L 22.7266 -1.82845 L 22.7782 -1.80997 L 22.8298 -1.79149 L 22.8814 -1.77301 L 22.933 -1.75453 L 22.9845 -1.73605 L 23.0361 -1.71756 L 23.0876 -1.69908 L 23.139 -1.68059 L 23.1905 -1.6621 L 23.242 -1.64361 L 23.2934 -1.62511 L 23.3448 -1.60662 L 23.3962 -1.58812 L 23.4475 -1.56963 L 23.4508 -1.51974 L 23.454 -1.46984 L 23.4571 -1.41993 L 23.46 -1.37002 L 23.4629 -1.3201 L 23.4656 -1.27018 L 23.4683 -1.22025 L 23.4708 -1.17031 L 23.4733 -1.12037 L 23.4756 -1.07043 L 23.4778 -1.02048 L 23.48 -0.97052 L 23.482 -0.920561 L 23.4839 -0.870597 L 23.4857 -0.820629 L 23.4874 -0.770658 L 23.4889 -0.720683 L 23.4904 -0.670705 L 23.4918 -0.620724 L 23.4931 -0.57074 L 23.4942 -0.520754 L 23.4953 -0.470765 L 23.4962 -0.420774 L 23.4971 -0.370781 L 23.4978 -0.320786 L 23.4984 -0.27079 L 23.499 -0.220793 L 23.4994 -0.170795 L 23.4997 -0.120796 L 23.4999 -0.0707962Z"
id="path1" />
</g>
</svg>
