<?xml version="1.0" encoding="UTF-8" standalone="no"?>
<svg version="1.1">
<g
style="fill:none;stroke:#000000;stroke-opacity:1;stroke-width:0.1">
<path d="M 17.9998 0.0946054 L 17.9994 0.142223 L 17.999 0.18984 L 17.9984 0.237456 L 17.9977 0.28507 L 17.9969 0.332682 L 17.996 0.380292 L 17.9949 0.427899 L 17.9937 0.475503 L 17.9924 0.523104 L 17.991 0.570701 L 17.9894 0.618294 L 17.9877 0.665882 L 17.9859 0.713467 L 17.9839 0.761046 L 17.9818 0.808619 L 17.9796 0.856187 L 17.9773 0.90375 L 17.9748 0.951305 L 17.9723 0.998854 L 17.9696 1.0464 L 17.9667 1.09393 L 17.9638 1.14146 L 17.9607 1.18898 L 17.9575 1.23649 L 17.9541 1.28399 L 17.9507 1.33148 L 17.9471 1.37897 L 17.9434 1.42644 L 17.9396 1.47391 L 17.9356 1.52136 L 17.9315 1.5688 L 17.8808 1.60166 L 17.83 1.63452 L 17.7791 1.66736 L 17.7282 1.7002 L 17.6772 1.73303 L 17.6261 1.76586 L 17.5749 1.79867 L 17.5236 1.83148 L 17.4723 1.86428 L 17.4208 1.89707 L 17.3693 1.92985 L 17.3177 1.96262 L 17.266 1.99539 L 17.2143 2.02814 L 17.1624 2.06088 L 17.1105 2.09361 L 17.0585 2.12634 L 17.0064 2.15905 L 16.9542 2.19175 L 16.9019 2.22443 L 16.8495 2.25711 L 16.797 2.28977 L 16.7445 2.32243 L 16.6918 2.35507 L 16.6391 2.38769 L 16.5862 2.4203 L 16.5333 2.4529 L 16.4803 2.48549 L 16.4272 2.51806 L 16.374 2.55061 L 16.3206 2.58315 L 16.2672 2.61568 L 16.2137 2.64819 L 16.1601 2.68068 L 16.1064 2.71316 L 16.0526 2.74562 L 15.9987 2.77806 L 15.9447 2.81048 L 15.8906 2.84289 L 15.8363 2.87528 L 15.782 2.90764 L 15.7276 2.93999 L 15.7276 2.93999 L 15.7666 2.98982 L 15.8056 3.03963 L 15.8445 3.08942 L 15.8832 3.13918 L 15.9219 3.18893 L 15.9604 3.23866 L 15.9989 3.28836 L 16.0372 3.33805 L 16.0755 3.38771 L 16.1136 3.43736 L 16.1517 3.48698 L 16.1897 3.53658 L 16.2275 3.58616 L 16.2653 3.63572 L 16.303 3.68526 L 16.3405 3.73478 L 16.378 3.78427 L 16.4154 3.83375 L 16.4527 3.8832 L 16.4899 3.93264 L 16.527 3.98205 L 16.5641 4.03144 L 16.601 4.08081 L 16.6379 4.13015 L 16.6747 4.17948 L 16.7114 4.22878 L 16.748 4.27807 L 16.7845 4.32733 L 16.8209 4.37657 L 16.8573 4.42579 L 16.8935 4.47499 L 16.9297 4.52416 L 16.9658 4.57332 L 17.0019 4.62245 L 17.0378 4.67156 L 17.0737 4.72065 L 17.1095 4.76972 L 17.1452 4.81877 L 17.1809 4.86779 L 17.2164 4.9168 L 17.2519 4.96578 L 17.2873 5.01474 L 17.274 5.06046 L 17.2606 5.10614 L 17.247 5.15178 L 17.2333 5.19739 L 17.2195 5.24296 L 17.2056 5.2885 L 17.1915 5.334 L 17.1774 5.37946 L 17.1631 5.42488 L 17.1486 5.47027 L 17.1341 5.51562 L 17.1195 5.56093 L 17.1047 5.6062 L 17.0898 5.65143 L 17.0748 5.69662 L 17.0597 5.74177 L 17.0444 5.78688 L 17.029 5.83195 L 17.0136 5.87698 L 16.9979 5.92197 L 16.9822 5.96692 L 16.9664 6.01182 L 16.9504 6.05669 L 16.9343 6.10151 L 16.9181 6.14629 L 16.9018 6.19102 L 16.8854 6.23571 L 16.8688 6.28036 L 16.8521 6.32497 L 16.8354 6.36953 L 16.8184 6.41404 L 16.7501 6.59048 L 16.7326 6.63477 L 16.715 6.67901 L 16.6973 6.72321 L 16.6794 6.76735 L 16.6615 6.81146 L 16.6434 6.85551 L 16.6252 6.89952 L 16.6069 6.94347 L 16.5884 6.98738 L 16.5699 7.03124 L 16.5512 7.07505 L 16.5325 7.11882 L 16.5136 7.16253 L 16.4946 7.20619 L 16.4754 7.2498 L 16.4562 7.29336 L 16.4369 7.33687 L 16.4174 7.38033 L 16.3978 7.42373 L 16.3781 7.46709 L 16.3583 7.51039 L 16.3384 7.55364 L 16.3183 7.59684 L 16.2982 7.63998 L 16.2779 7.68307 L 16.2575 7.72611 L 16.237 7.76909 L 16.2164 7.81202 L 16.1957 7.85489 L 16.1749 7.89771 L 16.1539 7.94047 L 16.0948 7.95279 L 16.0355 7.96508 L 15.9762 7.97733 L 15.9169 7.98955 L 15.8574 8.00173 L 15.7979 8.01388 L 15.7383 8.02599 L 15.6787 8.03806 L 15.6189 8.05009 L 15.5591 8.06209 L 15.4993 8.07405 L 15.4393 8.08597 L 15.3793 8.09785 L 15.3192 8.10969 L 15.259 8.1215 L 15.1988 8.13326 L 15.1384 8.14498 L 15.078 8.15665 L 15.0175 8.16829 L 14.957 8.17988 L 14.8963 8.19143 L 14.8356 8.20294 L 14.7748 8.2144 L 14.7139 8.22581 L 14.6529 8.23719 L 14.5919 8.24851 L 14.5308 8.25979 L 14.4696 8.27102 L 14.4083 8.2822 L 14.3469 8.29333 L 14.2854 8.30442 L 14.2239 8.31545 L 14.1622 8.32644 L 14.1005 8.33737 L 14.0387 8.34825 L 13.9768 8.35908 L 13.9148 8.36986 L 13.8527 8.38058 L 13.7905 8.39125 L 13.7283 8.40186 L 13.6659 8.41242 L 13.6035 8.42291 L 13.6035 8.42291 L 13.6219 8.48349 L 13.6403 8.54401 L 13.6585 8.60448 L 13.6767 8.66489 L 13.6947 8.72524 L 13.7127 8.78553 L 13.7306 8.84577 L 13.7484 8.90596 L 13.7662 8.96608 L 13.7838 9.02616 L 13.8014 9.08618 L 13.8188 9.14614 L 13.8362 9.20605 L 13.8535 9.26591 L 13.8708 9.32571 L 13.8879 9.38546 L 13.905 9.44515 L 13.922 9.50479 L 13.9389 9.56438 L 13.9558 9.62392 L 13.9725 9.68341 L 13.9892 9.74284 L 14.0058 9.80222 L 14.0224 9.86155 L 14.0389 9.92083 L 14.0553 9.98006 L 14.0716 10.0392 L 14.0878 10.0984 L 14.104 10.1574 L 14.1202 10.2165 L 14.1362 10.2755 L 14.1522 10.3344 L 14.1681 10.3933 L 14.184 10.4521 L 14.1997 10.5109 L 14.2155 10.5696 L 14.2311 10.6283 L 14.2467 10.6869 L 14.2622 10.7455 L 14.2777 10.8041 L 14.2931 10.8626 L 14.3084 10.921 L 14.2795 10.9588 L 14.2505 10.9966 L 14.2213 11.0342 L 14.1921 11.0718 L 14.1627 11.1093 L 14.1333 11.1467 L 14.1038 11.1841 L 14.0741 11.2214 L 14.0444 11.2586 L 14.0145 11.2957 L 13.9846 11.3327 L 13.9546 11.3697 L 13.9245 11.4066 L 13.8942 11.4433 L 13.8639 11.4801 L 13.8335 11.5167 L 13.803 11.5533 L 13.7724 11.5897 L 13.7417 11.6261 L 13.7109 11.6624 L 13.68 11.6987 L 13.649 11.7348 L 13.6179 11.7709 L 13.5867 11.8069 L 13.5554 11.8428 L 13.524 11.8786 L 13.4925 11.9143 L 13.461 11.95 L 13.4293 11.9856 L 13.3976 12.021 L 13.3657 12.0564 L 13.2382 12.1963 L 13.2059 12.2312 L 13.1735 12.2661 L 13.141 12.3009 L 13.1084 12.3357 L 13.0758 12.3703 L 13.043 12.4049 L 13.0101 12.4393 L 12.9772 12.4737 L 12.9441 12.508 L 12.911 12.5422 L 12.8778 12.5763 L 12.8445 12.6103 L 12.811 12.6443 L 12.7776 12.6781 L 12.744 12.7119 L 12.7103 12.7455 L 12.6765 12.7791 L 12.6427 12.8126 L 12.6087 12.846 L 12.5747 12.8793 L 12.5406 12.9125 L 12.5064 12.9457 L 12.4721 12.9787 L 12.4377 13.0117 L 12.4033 13.0445 L 12.3687 13.0773 L 12.3341 13.11 L 12.2993 13.1425 L 12.2645 13.175 L 12.2296 13.2074 L 12.1946 13.2397 L 12.135 13.2299 L 12.0754 13.2199 L 12.0156 13.2099 L 11.9559 13.1999 L 11.896 13.1898 L 11.8362 13.1796 L 11.7762 13.1693 L 11.7162 13.1591 L 11.6562 13.1487 L 11.5961 13.1383 L 11.5359 13.1278 L 11.4757 13.1173 L 11.4155 13.1067 L 11.3552 13.096 L 11.2948 13.0853 L 11.2343 13.0745 L 11.1739 13.0636 L 11.1133 13.0527 L 11.0527 13.0417 L 10.992 13.0306 L 10.9313 13.0195 L 10.8705 13.0082 L 10.8097 12.997 L 10.7488 12.9856 L 10.6879 12.9742 L 10.6268 12.9627 L 10.5658 12.9511 L 10.5046 12.9395 L 10.4434 12.9278 L 10.3822 12.916 L 10.3208 12.9041 L 10.2595 12.8922 L 10.198 12.8802 L 10.1365 12.8681 L 10.0749 12.8559 L 10.0133 12.8436 L 9.95161 12.8313 L 9.88985 12.8188 L 9.82802 12.8063 L 9.76613 12.7937 L 9.70418 12.781 L 9.64215 12.7683 L 9.64215 12.7683 L 9.63746 12.8314 L 9.6327 12.8945 L 9.62788 12.9575 L 9.623 13.0203 L 9.61805 13.0832 L 9.61304 13.1459 L 9.60797 13.2085 L 9.60283 13.2711 L 9.59764 13.3335 L 9.59239 13.3959 L 9.58708 13.4582 L 9.58172 13.5205 L 9.5763 13.5826 L 9.57082 13.6447 L 9.56528 13.7067 L 9.55969 13.7686 L 9.55405 13.8304 L 9.54835 13.8922 L 9.5426 13.9538 L 9.5368 14.0154 L 9.53095 14.077 L 9.52504 14.1384 L 9.51909 14.1998 L 9.51308 14.2611 L 9.50703 14.3223 L 9.50093 14.3835 L 9.49477 14.4446 L 9.48858 14.5056 L 9.48233 14.5665 L 9.47604 14.6274 L 9.4697 14.6882 L 9.46332 14.7489 L 9.45689 14.8095 L 9.45041 14.8701 L 9.4439 14.9306 L 9.43734 14.9911 L 9.43074 15.0515 L 9.42409 15.1118 L 9.4174 15.172 L 9.41067 15.2322 L 9.4039 15.2923 L 9.39709 15.3523 L 9.35645 15.3772 L 9.31573 15.4019 L 9.27496 15.4264 L 9.23411 15.4509 L 9.1932 15.4753 L 9.15223 15.4996 L 9.1112 15.5237 L 9.0701 15.5478 L 9.02893 15.5717 L 8.98771 15.5955 L 8.94642 15.6193 L 8.90507 15.6429 L 8.86365 15.6664 L 8.82217 15.6898 L 8.78064 15.7131 L 8.73904 15.7362 L 8.69738 15.7593 L 8.65565 15.7823 L 8.61387 15.8051 L 8.57203 15.8278 L 8.53013 15.8505 L 8.48816 15.873 L 8.44614 15.8954 L 8.40406 15.9177 L 8.36192 15.9398 L 8.31972 15.9619 L 8.27747 15.9839 L 8.23515 16.0057 L 8.19278 16.0274 L 8.15035 16.049 L 8.10787 16.0705 L 7.93849 16.1549 L 7.89573 16.1758 L 7.85291 16.1967 L 7.81003 16.2174 L 7.7671 16.238 L 7.72412 16.2585 L 7.68108 16.2789 L 7.63798 16.2991 L 7.59484 16.3193 L 7.55164 16.3393 L 7.50839 16.3592 L 7.46508 16.379 L 7.42172 16.3987 L 7.37832 16.4183 L 7.33486 16.4378 L 7.29134 16.4571 L 7.24778 16.4763 L 7.20417 16.4955 L 7.1605 16.5145 L 7.11679 16.5333 L 7.07303 16.5521 L 7.02921 16.5708 L 6.98535 16.5893 L 6.94144 16.6077 L 6.89748 16.626 L 6.85347 16.6442 L 6.80941 16.6623 L 6.76531 16.6802 L 6.72116 16.6981 L 6.67696 16.7158 L 6.63272 16.7334 L 6.58842 16.7509 L 6.5364 16.7201 L 6.48435 16.6893 L 6.43228 16.6584 L 6.38017 16.6275 L 6.32804 16.5964 L 6.27588 16.5653 L 6.22368 16.5341 L 6.17147 16.5028 L 6.11922 16.4715 L 6.06694 16.4401 L 6.01464 16.4086 L 5.9623 16.377 L 5.90994 16.3453 L 5.85755 16.3136 L 5.80512 16.2818 L 5.75267 16.2499 L 5.70019 16.2179 L 5.64769 16.1858 L 5.59515 16.1537 L 5.54258 16.1214 L 5.48998 16.0891 L 5.43736 16.0567 L 5.3847 16.0242 L 5.33202 15.9916 L 5.2793 15.959 L 5.22656 15.9262 L 5.17379 15.8934 L 5.12098 15.8604 L 5.06815 15.8274 L 5.01529 15.7943 L 4.96239 15.7611 L 4.90947 15.7277 L 4.85652 15.6943 L 4.80354 15.6608 L 4.75053 15.6272 L 4.69748 15.5935 L 4.64441 15.5597 L 4.59131 15.5258 L 4.53818 15.4918 L 4.48502 15.4577 L 4.43183 15.4235 L 4.37861 15.3892 L 4.37861 15.3892 L 4.35142 15.4464 L 4.3242 15.5035 L 4.29696 15.5605 L 4.26968 15.6173 L 4.24238 15.6741 L 4.21505 15.7308 L 4.1877 15.7874 L 4.16031 15.8438 L 4.13291 15.9002 L 4.10547 15.9565 L 4.07802 16.0127 L 4.05053 16.0688 L 4.02303 16.1248 L 3.9955 16.1807 L 3.96794 16.2365 L 3.94037 16.2922 L 3.91277 16.3478 L 3.88515 16.4033 L 3.8575 16.4588 L 3.82984 16.5141 L 3.80216 16.5694 L 3.77445 16.6245 L 3.74673 16.6796 L 3.71898 16.7346 L 3.69122 16.7895 L 3.66344 16.8443 L 3.63564 16.8991 L 3.60782 16.9537 L 3.57998 17.0083 L 3.55213 17.0628 L 3.52426 17.1172 L 3.49637 17.1715 L 3.46846 17.2257 L 3.44054 17.2799 L 3.4126 17.3339 L 3.38465 17.3879 L 3.35668 17.4418 L 3.3287 17.4957 L 3.3007 17.5494 L 3.27269 17.6031 L 3.24466 17.6567 L 3.21662 17.7103 L 3.16976 17.7187 L 3.12287 17.727 L 3.07596 17.7352 L 3.02903 17.7433 L 2.98208 17.7513 L 2.93511 17.7591 L 2.88812 17.7668 L 2.84111 17.7744 L 2.79408 17.7818 L 2.74703 17.7891 L 2.69995 17.7964 L 2.65286 17.8034 L 2.60576 17.8104 L 2.55863 17.8172 L 2.51149 17.8239 L 2.46432 17.8305 L 2.41714 17.837 L 2.36995 17.8433 L 2.32274 17.8495 L 2.27551 17.8556 L 2.22826 17.8615 L 2.181 17.8674 L 2.13373 17.8731 L 2.08643 17.8787 L 2.03913 17.8841 L 1.99181 17.8895 L 1.94448 17.8947 L 1.89713 17.8997 L 1.84977 17.9047 L 1.8024 17.9095 L 1.75501 17.9142 L 1.56661 17.9317 L 1.51916 17.9358 L 1.47171 17.9397 L 1.42424 17.9436 L 1.37677 17.9473 L 1.32928 17.9508 L 1.28179 17.9543 L 1.23429 17.9576 L 1.18678 17.9608 L 1.13926 17.9639 L 1.09173 17.9669 L 1.04419 17.9697 L 0.996652 17.9724 L 0.949102 17.975 L 0.901546 17.9774 L 0.853984 17.9797 L 0.806415 17.9819 L 0.758841 17.984 L 0.711262 17.9859 L 0.663678 17.9878 L 0.616089 17.9895 L 0.568496 17.991 L 0.520898 17.9925 L 0.473298 17.9938 L 0.425693 17.995 L 0.378086 17.996 L 0.330476 17.997 L 0.282864 17.9978 L 0.23525 17.9985 L 0.187634 17.999 L 0.140017 17.9995 L 0.0923994 17.9998 L 0.0549998 17.9523 L 0.0176 17.9048 L -0.0197999 17.8571 L -0.0571998 17.8094 L -0.0945993 17.7617 L -0.131998 17.7138 L -0.169397 17.6659 L -0.206795 17.6178 L -0.244192 17.5697 L -0.281587 17.5215 L -0.318982 17.4733 L -0.356374 17.4249 L -0.393765 17.3765 L -0.431155 17.328 L -0.468542 17.2794 L -0.505926 17.2307 L -0.543308 17.1819 L -0.580688 17.133 L -0.618064 17.0841 L -0.655437 17.035 L -0.692806 16.9859 L -0.730172 16.9366 L -0.767534 16.8873 L -0.804892 16.8379 L -0.842245 16.7884 L -0.879594 16.7388 L -0.916937 16.6891 L -0.954276 16.6393 L -0.991608 16.5894 L -1.02894 16.5395 L -1.06626 16.4894 L -1.10357 16.4392 L -1.14088 16.3889 L -1.17818 16.3385 L -1.21547 16.288 L -1.25276 16.2375 L -1.29004 16.1868 L -1.32731 16.136 L -1.36457 16.0851 L -1.40182 16.0341 L -1.43906 15.983 L -1.47629 15.9317 L -1.47629 15.9317 L -1.5223 15.9753 L -1.5683 16.0186 L -1.61429 16.0619 L -1.66027 16.1051 L -1.70624 16.1482 L -1.7522 16.1912 L -1.79814 16.2341 L -1.84408 16.2768 L -1.89 16.3195 L -1.93591 16.3621 L -1.98181 16.4045 L -2.0277 16.4469 L -2.07358 16.4892 L -2.11944 16.5314 L -2.16529 16.5734 L -2.21113 16.6154 L -2.25696 16.6573 L -2.30277 16.6991 L -2.34857 16.7408 L -2.39436 16.7824 L -2.44014 16.824 L -2.4859 16.8654 L -2.53165 16.9067 L -2.57738 16.948 L -2.62311 16.9892 L -2.66882 17.0302 L -2.71451 17.0712 L -2.76019 17.1122 L -2.80586 17.153 L -2.85152 17.1937 L -2.89716 17.2344 L -2.94278 17.275 L -2.9884 17.3154 L -3.03399 17.3559 L -3.07958 17.3962 L -3.12515 17.4364 L -3.17071 17.4766 L -3.21625 17.5167 L -3.26178 17.5567 L -3.30729 17.5967 L -3.35279 17.6365 L -3.39827 17.6763 L -3.44502 17.6673 L -3.49175 17.6581 L -3.53845 17.6488 L -3.58513 17.6394 L -3.63178 17.6298 L -3.67841 17.6201 L -3.72501 17.6103 L -3.77159 17.6004 L -3.81814 17.5904 L -3.86466 17.5802 L -3.91115 17.5699 L -3.95762 17.5595 L -4.00406 17.549 L -4.05047 17.5383 L -4.09686 17.5276 L -4.14321 17.5167 L -4.18954 17.5057 L -4.23583 17.4945 L -4.2821 17.4832 L -4.32834 17.4718 L -4.37454 17.4603 L -4.42072 17.4487 L -4.46686 17.4369 L -4.51298 17.4251 L -4.55906 17.4131 L -4.60511 17.4009 L -4.65113 17.3887 L -4.69711 17.3763 L -4.74307 17.3639 L -4.78899 17.3512 L -4.83487 17.3385 L -5.01686 17.2867 L -5.06257 17.2734 L -5.10825 17.2599 L -5.1539 17.2464 L -5.1995 17.2327 L -5.24507 17.2189 L -5.29061 17.2049 L -5.33611 17.1909 L -5.38157 17.1767 L -5.42699 17.1624 L -5.47237 17.148 L -5.51772 17.1334 L -5.56302 17.1188 L -5.60829 17.104 L -5.65352 17.0891 L -5.69871 17.0741 L -5.74386 17.059 L -5.78897 17.0437 L -5.83404 17.0283 L -5.87907 17.0128 L -5.92405 16.9972 L -5.969 16.9815 L -6.0139 16.9656 L -6.05876 16.9497 L -6.10358 16.9336 L -6.14836 16.9174 L -6.19309 16.9011 L -6.23778 16.8846 L -6.28243 16.868 L -6.32703 16.8514 L -6.37159 16.8346 L -6.4161 16.8177 L -6.43383 16.7599 L -6.45153 16.702 L -6.4692 16.6441 L -6.48685 16.5861 L -6.50446 16.5281 L -6.52205 16.4699 L -6.5396 16.4117 L -6.55713 16.3534 L -6.57462 16.2951 L -6.59209 16.2366 L -6.60952 16.1781 L -6.62692 16.1195 L -6.64429 16.0609 L -6.66162 16.0021 L -6.67893 15.9433 L -6.6962 15.8844 L -6.71343 15.8254 L -6.73064 15.7663 L -6.7478 15.7071 L -6.76493 15.6479 L -6.78203 15.5886 L -6.79909 15.5292 L -6.81611 15.4697 L -6.8331 15.4101 L -6.85004 15.3505 L -6.86695 15.2907 L -6.88382 15.2309 L -6.90065 15.171 L -6.91744 15.111 L -6.93419 15.0509 L -6.9509 14.9907 L -6.96757 14.9304 L -6.98419 14.8701 L -7.00078 14.8096 L -7.01731 14.7491 L -7.03381 14.6884 L -7.05026 14.6277 L -7.06666 14.5669 L -7.08302 14.506 L -7.09933 14.4449 L -7.1156 14.3838 L -7.13181 14.3226 L -7.13181 14.3226 L -7.19043 14.3466 L -7.249 14.3704 L -7.30753 14.3942 L -7.366 14.4178 L -7.42443 14.4414 L -7.4828 14.4649 L -7.54114 14.4882 L -7.59942 14.5115 L -7.65765 14.5347 L -7.71584 14.5578 L -7.77399 14.5809 L -7.83208 14.6038 L -7.89013 14.6266 L -7.94813 14.6494 L -8.00609 14.6721 L -8.064 14.6947 L -8.12187 14.7172 L -8.17969 14.7396 L -8.23746 14.762 L -8.29519 14.7842 L -8.35288 14.8064 L -8.41052 14.8285 L -8.46811 14.8505 L -8.52566 14.8725 L -8.58317 14.8944 L -8.64063 14.9161 L -8.69805 14.9379 L -8.75543 14.9595 L -8.81276 14.9811 L -8.87005 15.0026 L -8.92729 15.024 L -8.9845 15.0454 L -9.04166 15.0666 L -9.09877 15.0878 L -9.15585 15.109 L -9.21288 15.1301 L -9.26988 15.1511 L -9.32683 15.172 L -9.38373 15.1929 L -9.4406 15.2137 L -9.49743 15.2344 L -9.55421 15.2551 L -9.59454 15.2297 L -9.63479 15.2043 L -9.67498 15.1788 L -9.7151 15.1531 L -9.75516 15.1274 L -9.79514 15.1015 L -9.83506 15.0755 L -9.87491 15.0495 L -9.91469 15.0233 L -9.9544 14.997 L -9.99404 14.9706 L -10.0336 14.9441 L -10.0731 14.9175 L -10.1125 14.8908 L -10.1519 14.864 L -10.1912 14.8371 L -10.2304 14.8101 L -10.2695 14.783 L -10.3086 14.7558 L -10.3476 14.7284 L -10.3865 14.701 L -10.4254 14.6735 L -10.4642 14.6459 L -10.5029 14.6181 L -10.5415 14.5903 L -10.5801 14.5623 L -10.6186 14.5343 L -10.657 14.5062 L -10.6953 14.4779 L -10.7336 14.4496 L -10.7718 14.4211 L -10.9228 14.3071 L -10.9606 14.2782 L -10.9983 14.2491 L -11.036 14.22 L -11.0736 14.1907 L -11.1111 14.1614 L -11.1485 14.1319 L -11.1858 14.1024 L -11.2231 14.0727 L -11.2603 14.043 L -11.2974 14.0132 L -11.3344 13.9832 L -11.3714 13.9532 L -11.4083 13.9231 L -11.4451 13.8928 L -11.4818 13.8625 L -11.5184 13.8321 L -11.555 13.8016 L -11.5914 13.7709 L -11.6278 13.7402 L -11.6641 13.7094 L -11.7003 13.6785 L -11.7365 13.6475 L -11.7726 13.6164 L -11.8085 13.5852 L -11.8444 13.5539 L -11.8803 13.5226 L -11.916 13.4911 L -11.9516 13.4595 L -11.9872 13.4278 L -12.0227 13.3961 L -12.0581 13.3642 L -12.0537 13.304 L -12.0493 13.2436 L -12.0449 13.1832 L -12.0404 13.1228 L -12.0359 13.0623 L -12.0313 13.0017 L -12.0266 12.9411 L -12.0219 12.8804 L -12.0171 12.8197 L -12.0123 12.7589 L -12.0074 12.698 L -12.0025 12.6371 L -11.9975 12.5761 L -11.9924 12.5151 L -11.9873 12.4539 L -11.9821 12.3928 L -11.9769 12.3315 L -11.9716 12.2702 L -11.9662 12.2089 L -11.9608 12.1475 L -11.9553 12.086 L -11.9498 12.0244 L -11.9441 11.9628 L -11.9385 11.9011 L -11.9327 11.8394 L -11.9269 11.7776 L -11.921 11.7157 L -11.9151 11.6537 L -11.909 11.5917 L -11.903 11.5296 L -11.8968 11.4675 L -11.8906 11.4052 L -11.8843 11.3429 L -11.8779 11.2806 L -11.8714 11.2182 L -11.8649 11.1556 L -11.8583 11.0931 L -11.8516 11.0304 L -11.8449 10.9677 L -11.838 10.9049 L -11.8311 10.8421 L -11.8241 10.7791 L -11.8241 10.7791 L -11.8875 10.7803 L -11.9507 10.7814 L -12.0138 10.7824 L -12.0769 10.7833 L -12.1399 10.7842 L -12.2028 10.785 L -12.2657 10.7857 L -12.3284 10.7864 L -12.3911 10.787 L -12.4537 10.7875 L -12.5162 10.788 L -12.5787 10.7884 L -12.6411 10.7887 L -12.7034 10.789 L -12.7656 10.7892 L -12.8278 10.7893 L -12.8899 10.7894 L -12.9519 10.7894 L -13.0138 10.7894 L -13.0757 10.7893 L -13.1375 10.7891 L -13.1992 10.7889 L -13.2609 10.7887 L -13.3225 10.7883 L -13.384 10.788 L -13.4455 10.7875 L -13.5069 10.787 L -13.5682 10.7865 L -13.6294 10.7859 L -13.6906 10.7853 L -13.7517 10.7846 L -13.8128 10.7838 L -13.8738 10.783 L -13.9347 10.7821 L -13.9956 10.7812 L -14.0564 10.7803 L -14.1171 10.7793 L -14.1778 10.7782 L -14.2384 10.7771 L -14.2989 10.776 L -14.3594 10.7748 L -14.4198 10.7735 L -14.4483 10.7354 L -14.4766 10.6971 L -14.5049 10.6588 L -14.533 10.6204 L -14.561 10.5819 L -14.589 10.5433 L -14.6168 10.5047 L -14.6446 10.466 L -14.6722 10.4272 L -14.6997 10.3883 L -14.7272 10.3494 L -14.7545 10.3104 L -14.7817 10.2714 L -14.8088 10.2322 L -14.8359 10.193 L -14.8628 10.1537 L -14.8896 10.1144 L -14.9163 10.0749 L -14.9429 10.0354 L -14.9694 9.99587 L -14.9958 9.95623 L -15.0221 9.91653 L -15.0482 9.87675 L -15.0743 9.83691 L -15.1003 9.79699 L -15.1262 9.75701 L -15.1519 9.71696 L -15.1776 9.67684 L -15.2031 9.63666 L -15.2286 9.5964 L -15.2539 9.55608 L -15.3535 9.39521 L -15.3783 9.35456 L -15.403 9.31385 L -15.4276 9.27307 L -15.4521 9.23222 L -15.4764 9.19131 L -15.5007 9.15033 L -15.5248 9.10929 L -15.5489 9.06819 L -15.5728 9.02702 L -15.5966 8.9858 L -15.6204 8.9445 L -15.644 8.90315 L -15.6675 8.86173 L -15.6909 8.82025 L -15.7141 8.77871 L -15.7373 8.73711 L -15.7604 8.69544 L -15.7833 8.65372 L -15.8062 8.61193 L -15.8289 8.57009 L -15.8515 8.52818 L -15.874 8.48622 L -15.8964 8.44419 L -15.9187 8.40211 L -15.9409 8.35997 L -15.9629 8.31777 L -15.9849 8.27551 L -16.0067 8.23319 L -16.0284 8.19082 L -16.05 8.14839 L -16.0715 8.1059 L -16.0457 8.05126 L -16.0198 7.99659 L -15.9939 7.94188 L -15.9678 7.88714 L -15.9417 7.83237 L -15.9156 7.77756 L -15.8893 7.72271 L -15.863 7.66783 L -15.8366 7.61291 L -15.8102 7.55796 L -15.7836 7.50297 L -15.757 7.44795 L -15.7303 7.39288 L -15.7035 7.33779 L -15.6767 7.28265 L -15.6498 7.22748 L -15.6228 7.17228 L -15.5957 7.11703 L -15.5685 7.06175 L -15.5413 7.00644 L -15.5139 6.95108 L -15.4865 6.89569 L -15.459 6.84026 L -15.4315 6.7848 L -15.4038 6.72929 L -15.376 6.67375 L -15.3482 6.61817 L -15.3203 6.56255 L -15.2923 6.5069 L -15.2641 6.4512 L -15.236 6.39547 L -15.2077 6.3397 L -15.1793 6.28389 L -15.1508 6.22805 L -15.1222 6.17216 L -15.0936 6.11624 L -15.0648 6.06027 L -15.036 6.00427 L -15.007 5.94823 L -14.978 5.89215 L -14.9488 5.83603 L -14.9196 5.77987 L -14.9196 5.77987 L -14.979 5.75807 L -15.0384 5.73624 L -15.0976 5.71437 L -15.1568 5.69246 L -15.2158 5.67051 L -15.2748 5.64853 L -15.3336 5.62651 L -15.3924 5.60445 L -15.4511 5.58236 L -15.5096 5.56024 L -15.5681 5.53808 L -15.6265 5.51589 L -15.6848 5.49367 L -15.743 5.47141 L -15.8011 5.44913 L -15.8591 5.42681 L -15.917 5.40446 L -15.9749 5.38208 L -16.0326 5.35967 L -16.0903 5.33723 L -16.1479 5.31476 L -16.2053 5.29227 L -16.2627 5.26975 L -16.3201 5.24719 L -16.3773 5.22461 L -16.4344 5.20201 L -16.4915 5.17938 L -16.5485 5.15672 L -16.6054 5.13404 L -16.6622 5.11133 L -16.719 5.08859 L -16.7756 5.06584 L -16.8322 5.04306 L -16.8887 5.02025 L -16.9451 4.99742 L -17.0015 4.97457 L -17.0577 4.9517 L -17.1139 4.9288 L -17.17 4.90588 L -17.2261 4.88294 L -17.282 4.85998 L -17.3379 4.837 L -17.3507 4.79111 L -17.3633 4.74519 L -17.3758 4.69924 L -17.3881 4.65326 L -17.4004 4.60724 L -17.4125 4.56119 L -17.4245 4.51511 L -17.4364 4.469 L -17.4482 4.42286 L -17.4598 4.37668 L -17.4713 4.33048 L -17.4827 4.28424 L -17.494 4.23798 L -17.5051 4.19168 L -17.5162 4.14536 L -17.5271 4.099 L -17.5379 4.05262 L -17.5485 4.00621 L -17.559 3.95977 L -17.5695 3.91331 L -17.5798 3.86681 L -17.5899 3.82029 L -17.6 3.77374 L -17.6099 3.72717 L -17.6197 3.68057 L -17.6294 3.63394 L -17.6389 3.58729 L -17.6483 3.54062 L -17.6576 3.49392 L -17.6668 3.44719 L -17.6759 3.40044 L -17.7107 3.21445 L -17.7191 3.16759 L -17.7274 3.1207 L -17.7356 3.07379 L -17.7437 3.02686 L -17.7516 2.97991 L -17.7594 2.93294 L -17.7671 2.88594 L -17.7747 2.83893 L -17.7822 2.7919 L -17.7895 2.74485 L -17.7967 2.69777 L -17.8038 2.65068 L -17.8107 2.60357 L -17.8175 2.55645 L -17.8242 2.5093 L -17.8308 2.46214 L -17.8373 2.41496 L -17.8436 2.36776 L -17.8498 2.32055 L -17.8559 2.27332 L -17.8618 2.22607 L -17.8676 2.17881 L -17.8733 2.13153 L -17.8789 2.08424 L -17.8844 2.03694 L -17.8897 1.98962 L -17.8949 1.94228 L -17.9 1.89494 L -17.9049 1.84757 L -17.9098 1.8002 L -17.9145 1.75281 L -17.8706 1.71119 L -17.8268 1.66957 L -17.7828 1.62793 L -17.7387 1.58629 L -17.6946 1.54464 L -17.6504 1.50299 L -17.6061 1.46133 L -17.5618 1.41966 L -17.5173 1.37798 L -17.4728 1.3363 L -17.4282 1.29461 L -17.3835 1.25292 L -17.3387 1.21121 L -17.2938 1.16951 L -17.2489 1.1278 L -17.2038 1.08608 L -17.1587 1.04435 L -17.1135 1.00263 L -17.0682 0.960891 L -17.0228 0.919152 L -16.9773 0.877408 L -16.9318 0.835659 L -16.8861 0.793906 L -16.8404 0.752148 L -16.7945 0.710387 L -16.7486 0.668621 L -16.7025 0.626851 L -16.6564 0.585078 L -16.6102 0.543302 L -16.5638 0.501522 L -16.5174 0.45974 L -16.4709 0.417954 L -16.4243 0.376166 L -16.3775 0.334376 L -16.3307 0.292584 L -16.2838 0.25079 L -16.2368 0.208994 L -16.1896 0.167197 L -16.1424 0.125398 L -16.095 0.0835994 L -16.0476 0.0417999 L -16 4.44089e-16 L -16 3.47478e-15 L -16.0476 -0.0417999 L -16.095 -0.0835994 L -16.1424 -0.125398 L -16.1896 -0.167197 L -16.2368 -0.208994 L -16.2838 -0.25079 L -16.3307 -0.292584 L -16.3775 -0.334376 L -16.4243 -0.376166 L -16.4709 -0.417954 L -16.5174 -0.45974 L -16.5638 -0.501522 L -16.6102 -0.543302 L -16.6564 -0.585078 L -16.7025 -0.626851 L -16.7486 -0.668621 L -16.7945 -0.710387 L -16.8404 -0.752148 L -16.8861 -0.793906 L -16.9318 -0.835659 L -16.9773 -0.877408 L -17.0228 -0.919152 L -17.0682 -0.960891 L -17.1135 -1.00263 L -17.1587 -1.04435 L -17.2038 -1.08608 L -17.2489 -1.1278 L -17.2938 -1.16951 L -17.3387 -1.21121 L -17.3835 -1.25292 L -17.4282 -1.29461 L -17.4728 -1.3363 L -17.5173 -1.37798 L -17.5618 -1.41966 L -17.6061 -1.46133 L -17.6504 -1.50299 L -17.6946 -1.54464 L -17.7387 -1.58629 L -17.7828 -1.62793 L -17.8268 -1.66957 L -17.8706 -1.71119 L -17.9145 -1.75281 L -17.9098 -1.8002 L -17.9049 -1.84757 L -17.9 -1.89494 L -17.8949 -1.94228 L -17.8897 -1.98962 L -17.8844 -2.03694 L -17.8789 -2.08424 L -17.8733 -2.13153 L -17.8676 -2.17881 L -17.8618 -2.22607 L -17.8559 -2.27332 L -17.8498 -2.32055 L -17.8436 -2.36776 L -17.8373 -2.41496 L -17.8308 -2.46214 L -17.8242 -2.5093 L -17.8175 -2.55645 L -17.8107 -2.60357 L -17.8038 -2.65068 L -17.7967 -2.69777 L -17.7895 -2.74485 L -17.7822 -2.7919 L -17.7747 -2.83893 L -17.7671 -2.88594 L -17.7594 -2.93294 L -17.7516 -2.97991 L -17.7437 -3.02686 L -17.7356 -3.07379 L -17.7274 -3.1207 L -17.7191 -3.16759 L -17.7107 -3.21445 L -17.6759 -3.40044 L -17.6668 -3.44719 L -17.6576 -3.49392 L -17.6483 -3.54062 L -17.6389 -3.58729 L -17.6294 -3.63394 L -17.6197 -3.68057 L -17.6099 -3.72717 L -17.6 -3.77374 L -17.5899 -3.82029 L -17.5798 -3.86681 L -17.5695 -3.91331 L -17.559 -3.95977 L -17.5485 -4.00621 L -17.5379 -4.05262 L -17.5271 -4.099 L -17.5162 -4.14536 L -17.5051 -4.19168 L -17.494 -4.23798 L -17.4827 -4.28424 L -17.4713 -4.33048 L -17.4598 -4.37668 L -17.4482 -4.42286 L -17.4364 -4.469 L -17.4245 -4.51511 L -17.4125 -4.56119 L -17.4004 -4.60724 L -17.3881 -4.65326 L -17.3758 -4.69924 L -17.3633 -4.74519 L -17.3507 -4.79111 L -17.3379 -4.837 L -17.282 -4.85998 L -17.2261 -4.88294 L -17.17 -4.90588 L -17.1139 -4.9288 L -17.0577 -4.9517 L -17.0015 -4.97457 L -16.9451 -4.99742 L -16.8887 -5.02025 L -16.8322 -5.04306 L -16.7756 -5.06584 L -16.719 -5.08859 L -16.6622 -5.11133 L -16.6054 -5.13404 L -16.5485 -5.15672 L -16.4915 -5.17938 L -16.4344 -5.20201 L -16.3773 -5.22461 L -16.3201 -5.24719 L -16.2627 -5.26975 L -16.2053 -5.29227 L -16.1479 -5.31476 L -16.0903 -5.33723 L -16.0326 -5.35967 L -15.9749 -5.38208 L -15.917 -5.40446 L -15.8591 -5.42681 L -15.8011 -5.44913 L -15.743 -5.47141 L -15.6848 -5.49367 L -15.6265 -5.51589 L -15.5681 -5.53808 L -15.5096 -5.56024 L -15.4511 -5.58236 L -15.3924 -5.60445 L -15.3336 -5.62651 L -15.2748 -5.64853 L -15.2158 -5.67051 L -15.1568 -5.69246 L -15.0976 -5.71437 L -15.0384 -5.73624 L -14.979 -5.75807 L -14.9196 -5.77987 L -14.9196 -5.77987 L -14.9488 -5.83603 L -14.978 -5.89215 L -15.007 -5.94823 L -15.036 -6.00427 L -15.0648 -6.06027 L -15.0936 -6.11624 L -15.1222 -6.17216 L -15.1508 -6.22805 L -15.1793 -6.28389 L -15.2077 -6.3397 L -15.236 -6.39547 L -15.2641 -6.4512 L -15.2923 -6.5069 L -15.3203 -6.56255 L -15.3482 -6.61817 L -15.376 -6.67375 L -15.4038 -6.72929 L -15.4315 -6.7848 L -15.459 -6.84026 L -15.4865 -6.89569 L -15.5139 -6.95108 L -15.5413 -7.00644 L -15.5685 -7.06175 L -15.5957 -7.11703 L -15.6228 -7.17228 L -15.6498 -7.22748 L -15.6767 -7.28265 L -15.7035 -7.33779 L -15.7303 -7.39288 L -15.757 -7.44795 L -15.7836 -7.50297 L -15.8102 -7.55796 L -15.8366 -7.61291 L -15.863 -7.66783 L -15.8893 -7.72271 L -15.9156 -7.77756 L -15.9417 -7.83237 L -15.9678 -7.88714 L -15.9939 -7.94188 L -16.0198 -7.99659 L -16.0457 -8.05126 L -16.0715 -8.1059 L -16.05 -8.14839 L -16.0284 -8.19082 L -16.0067 -8.23319 L -15.9849 -8.27551 L -15.9629 -8.31777 L -15.9409 -8.35997 L -15.9187 -8.40211 L -15.8964 -8.44419 L -15.874 -8.48622 L -15.8515 -8.52818 L -15.8289 -8.57009 L -15.8062 -8.61193 L -15.7833 -8.65372 L -15.7604 -8.69544 L -15.7373 -8.73711 L -15.7141 -8.77871 L -15.6909 -8.82025 L -15.6675 -8.86173 L -15.644 -8.90315 L -15.6204 -8.9445 L -15.5966 -8.9858 L -15.5728 -9.02702 L -15.5489 -9.06819 L -15.5248 -9.10929 L -15.5007 -9.15033 L -15.4764 -9.19131 L -15.4521 -9.23222 L -15.4276 -9.27307 L -15.403 -9.31385 L -15.3783 -9.35456 L -15.3535 -9.39521 L -15.2539 -9.55608 L -15.2286 -9.5964 L -15.2031 -9.63666 L -15.1776 -9.67684 L -15.1519 -9.71696 L -15.1262 -9.75701 L -15.1003 -9.79699 L -15.0743 -9.83691 L -15.0482 -9.87675 L -15.0221 -9.91653 L -14.9958 -9.95623 L -14.9694 -9.99587 L -14.9429 -10.0354 L -14.9163 -10.0749 L -14.8896 -10.1144 L -14.8628 -10.1537 L -14.8359 -10.193 L -14.8088 -10.2322 L -14.7817 -10.2714 L -14.7545 -10.3104 L -14.7272 -10.3494 L -14.6997 -10.3883 L -14.6722 -10.4272 L -14.6446 -10.466 L -14.6168 -10.5047 L -14.589 -10.5433 L -14.561 -10.5819 L -14.533 -10.6204 L -14.5049 -10.6588 L -14.4766 -10.6971 L -14.4483 -10.7354 L -14.4198 -10.7735 L -14.3594 -10.7748 L -14.2989 -10.776 L -14.2384 -10.7771 L -14.1778 -10.7782 L -14.1171 -10.7793 L -14.0564 -10.7803 L -13.9956 -10.7812 L -13.9347 -10.7821 L -13.8738 -10.783 L -13.8128 -10.7838 L -13.7517 -10.7846 L -13.6906 -10.7853 L -13.6294 -10.7859 L -13.5682 -10.7865 L -13.5069 -10.787 L -13.4455 -10.7875 L -13.384 -10.788 L -13.3225 -10.7883 L -13.2609 -10.7887 L -13.1992 -10.7889 L -13.1375 -10.7891 L -13.0757 -10.7893 L -13.0138 -10.7894 L -12.9519 -10.7894 L -12.8899 -10.7894 L -12.8278 -10.7893 L -12.7656 -10.7892 L -12.7034 -10.789 L -12.6411 -10.7887 L -12.5787 -10.7884 L -12.5162 -10.788 L -12.4537 -10.7875 L -12.3911 -10.787 L -12.3284 -10.7864 L -12.2657 -10.7857 L -12.2028 -10.785 L -12.1399 -10.7842 L -12.0769 -10.7833 L -12.0138 -10.7824 L -11.9507 -10.7814 L -11.8875 -10.7803 L -11.8241 -10.7791 L -11.8241 -10.7791 L -11.8311 -10.8421 L -11.838 -10.9049 L -11.8449 -10.9677 L -11.8516 -11.0304 L -11.8583 -11.0931 L -11.8649 -11.1556 L -11.8714 -11.2182 L -11.8779 -11.2806 L -11.8843 -11.3429 L -11.8906 -11.4052 L -11.8968 -11.4675 L -11.903 -11.5296 L -11.909 -11.5917 L -11.9151 -11.6537 L -11.921 -11.7157 L -11.9269 -11.7776 L -11.9327 -11.8394 L -11.9385 -11.9011 L -11.9441 -11.9628 L -11.9498 -12.0244 L -11.9553 -12.086 L -11.9608 -12.1475 L -11.9662 -12.2089 L -11.9716 -12.2702 L -11.9769 -12.3315 L -11.9821 -12.3928 L -11.9873 -12.4539 L -11.9924 -12.5151 L -11.9975 -12.5761 L -12.0025 -12.6371 L -12.0074 -12.698 L -12.0123 -12.7589 L -12.0171 -12.8197 L -12.0219 -12.8804 L -12.0266 -12.9411 L -12.0313 -13.0017 L -12.0359 -13.0623 L -12.0404 -13.1228 L -12.0449 -13.1832 L -12.0493 -13.2436 L -12.0537 -13.304 L -12.0581 -13.3642 L -12.0227 -13.3961 L -11.9872 -13.4278 L -11.9516 -13.4595 L -11.916 -13.4911 L -11.8803 -13.5226 L -11.8444 -13.5539 L -11.8085 -13.5852 L -11.7726 -13.6164 L -11.7365 -13.6475 L -11.7003 -13.6785 L -11.6641 -13.7094 L -11.6278 -13.7402 L -11.5914 -13.7709 L -11.555 -13.8016 L -11.5184 -13.8321 L -11.4818 -13.8625 L -11.4451 -13.8928 L -11.4083 -13.9231 L -11.3714 -13.9532 L -11.3344 -13.9832 L -11.2974 -14.0132 L -11.2603 -14.043 L -11.2231 -14.0727 L -11.1858 -14.1024 L -11.1485 -14.1319 L -11.1111 -14.1614 L -11.0736 -14.1907 L -11.036 -14.22 L -10.9983 -14.2491 L -10.9606 -14.2782 L -10.9228 -14.3071 L -10.7718 -14.4211 L -10.7336 -14.4496 L -10.6953 -14.4779 L -10.657 -14.5062 L -10.6186 -14.5343 L -10.5801 -14.5623 L -10.5415 -14.5903 L -10.5029 -14.6181 L -10.4642 -14.6459 L -10.4254 -14.6735 L -10.3865 -14.701 L -10.3476 -14.7284 L -10.3086 -14.7558 L -10.2695 -14.783 L -10.2304 -14.8101 L -10.1912 -14.8371 L -10.1519 -14.864 L -10.1125 -14.8908 L -10.0731 -14.9175 L -10.0336 -14.9441 L -9.99404 -14.9706 L -9.9544 -14.997 L -9.91469 -15.0233 L -9.87491 -15.0495 L -9.83506 -15.0755 L -9.79514 -15.1015 L -9.75516 -15.1274 L -9.7151 -15.1531 L -9.67498 -15.1788 L -9.63479 -15.2043 L -9.59454 -15.2297 L -9.55421 -15.2551 L -9.49743 -15.2344 L -9.4406 -15.2137 L -9.38373 -15.1929 L -9.32683 -15.172 L -9.26988 -15.1511 L -9.21288 -15.1301 L -9.15585 -15.109 L -9.09877 -15.0878 L -9.04166 -15.0666 L -8.9845 -15.0454 L -8.92729 -15.024 L -8.87005 -15.0026 L -8.81276 -14.9811 L -8.75543 -14.9595 L -8.69805 -14.9379 L -8.64063 -14.9161 L -8.58317 -14.8944 L -8.52566 -14.8725 L -8.46811 -14.8505 L -8.41052 -14.8285 L -8.35288 -14.8064 L -8.29519 -14.7842 L -8.23746 -14.762 L -8.17969 -14.7396 L -8.12187 -14.7172 L -8.064 -14.6947 L -8.00609 -14.6721 L -7.94813 -14.6494 L -7.89013 -14.6266 L -7.83208 -14.6038 L -7.77399 -14.5809 L -7.71584 -14.5578 L -7.65765 -14.5347 L -7.59942 -14.5115 L -7.54114 -14.4882 L -7.4828 -14.4649 L -7.42443 -14.4414 L -7.366 -14.4178 L -7.30753 -14.3942 L -7.249 -14.3704 L -7.19043 -14.3466 L -7.13181 -14.3226 L -7.13181 -14.3226 L -7.1156 -14.3838 L -7.09933 -14.4449 L -7.08302 -14.506 L -7.06666 -14.5669 L -7.05026 -14.6277 L -7.03381 -14.6884 L -7.01731 -14.7491 L -7.00078 -14.8096 L -6.98419 -14.8701 L -6.96757 -14.9304 L -6.9509 -14.9907 L -6.93419 -15.0509 L -6.91744 -15.111 L -6.90065 -15.171 L -6.88382 -15.2309 L -6.86695 -15.2907 L -6.85004 -15.3505 L -6.8331 -15.4101 L -6.81611 -15.4697 L -6.79909 -15.5292 L -6.78203 -15.5886 L -6.76493 -15.6479 L -6.7478 -15.7071 L -6.73064 -15.7663 L -6.71343 -15.8254 L -6.6962 -15.8844 L -6.67893 -15.9433 L -6.66162 -16.0021 L -6.64429 -16.0609 L -6.62692 -16.1195 L -6.60952 -16.1781 L -6.59209 -16.2366 L -6.57462 -16.2951 L -6.55713 -16.3534 L -6.5396 -16.4117 L -6.52205 -16.4699 L -6.50446 -16.5281 L -6.48685 -16.5861 L -6.4692 -16.6441 L -6.45153 -16.702 L -6.43383 -16.7599 L -6.4161 -16.8177 L -6.37159 -16.8346 L -6.32703 -16.8514 L -6.28243 -16.868 L -6.23778 -16.8846 L -6.19309 -16.9011 L -6.14836 -16.9174 L -6.10358 -16.9336 L -6.05876 -16.9497 L -6.0139 -16.9656 L -5.969 -16.9815 L -5.92405 -16.9972 L -5.87907 -17.0128 L -5.83404 -17.0283 L -5.78897 -17.0437 L -5.74386 -17.059 L -5.69871 -17.0741 L -5.65352 -17.0891 L -5.60829 -17.104 L -5.56302 -17.1188 L -5.51772 -17.1334 L -5.47237 -17.148 L -5.42699 -17.1624 L -5.38157 -17.1767 L -5.33611 -17.1909 L -5.29061 -17.2049 L -5.24507 -17.2189 L -5.1995 -17.2327 L -5.1539 -17.2464 L -5.10825 -17.2599 L -5.06257 -17.2734 L -5.01686 -17.2867 L -4.83487 -17.3385 L -4.78899 -17.3512 L -4.74307 -17.3639 L -4.69711 -17.3763 L -4.65113 -17.3887 L -4.60511 -17.4009 L -4.55906 -17.4131 L -4.51298 -17.4251 L -4.46686 -17.4369 L -4.42072 -17.4487 L -4.37454 -17.4603 L -4.32834 -17.4718 L -4.2821 -17.4832 L -4.23583 -17.4945 L -4.18954 -17.5057 L -4.14321 -17.5167 L -4.09686 -17.5276 L -4.05047 -17.5383 L -4.00406 -17.549 L -3.95762 -17.5595 L -3.91115 -17.5699 L -3.86466 -17.5802 L -3.81814 -17.5904 L -3.77159 -17.6004 L -3.72501 -17.6103 L -3.67841 -17.6201 L -3.63178 -17.6298 L -3.58513 -17.6394 L -3.53845 -17.6488 L -3.49175 -17.6581 L -3.44502 -17.6673 L -3.39827 -17.6763 L -3.35279 -17.6365 L -3.30729 -17.5967 L -3.26178 -17.5567 L -3.21625 -17.5167 L -3.17071 -17.4766 L -3.12515 -17.4364 L -3.07958 -17.3962 L -3.03399 -17.3559 L -2.9884 -17.3154 L -2.94278 -17.275 L -2.89716 -17.2344 L -2.85152 -17.1937 L -2.80586 -17.153 L -2.76019 -17.1122 L -2.71451 -17.0712 L -2.66882 -17.0302 L -2.62311 -16.9892 L -2.57738 -16.948 L -2.53165 -16.9067 L -2.4859 -16.8654 L -2.44014 -16.824 L -2.39436 -16.7824 L -2.34857 -16.7408 L -2.30277 -16.6991 L -2.25696 -16.6573 L -2.21113 -16.6154 L -2.16529 -16.5734 L -2.11944 -16.5314 L -2.07358 -16.4892 L -2.0277 -16.4469 L -1.98181 -16.4045 L -1.93591 -16.3621 L -1.89 -16.3195 L -1.84408 -16.2768 L -1.79814 -16.2341 L -1.7522 -16.1912 L -1.70624 -16.1482 L -1.66027 -16.1051 L -1.61429 -16.0619 L -1.5683 -16.0186 L -1.5223 -15.9753 L -1.47629 -15.9317 L -1.47629 -15.9317 L -1.43906 -15.983 L -1.40182 -16.0341 L -1.36457 -16.0851 L -1.32731 -16.136 L -1.29004 -16.1868 L -1.25276 -16.2375 L -1.21547 -16.288 L -1.17818 -16.3385 L -1.14088 -16.3889 L -1.10357 -16.4392 L -1.06626 -16.4894 L -1.02894 -16.5395 L -0.991608 -16.5894 L -0.954276 -16.6393 L -0.916937 -16.6891 L -0.879594 -16.7388 L -0.842245 -16.7884 L -0.804892 -16.8379 L -0.767534 -16.8873 L -0.730172 -16.9366 L -0.692806 -16.9859 L -0.655437 -17.035 L -0.618064 -17.0841 L -0.580688 -17.133 L -0.543308 -17.1819 L -0.505926 -17.2307 L -0.468542 -17.2794 L -0.431155 -17.328 L -0.393765 -17.3765 L -0.356374 -17.4249 L -0.318982 -17.4733 L -0.281587 -17.5215 L -0.244192 -17.5697 L -0.206795 -17.6178 L -0.169397 -17.6659 L -0.131998 -17.7138 L -0.0945993 -17.7617 L -0.0571998 -17.8094 L -0.0197999 -17.8571 L 0.0176 -17.9048 L 0.0549998 -17.9523 L 0.0923994 -17.9998 L 0.140017 -17.9995 L 0.187634 -17.999 L 0.23525 -17.9985 L 0.282864 -17.9978 L 0.330476 -17.997 L 0.378086 -17.996 L 0.425693 -17.995 L 0.473298 -17.9938 L 0.520898 -17.9925 L 0.568496 -17.991 L 0.616089 -17.9895 L 0.663678 -17.9878 L 0.711262 -17.9859 L 0.758841 -17.984 L 0.806415 -17.9819 L 0.853984 -17.9797 L 0.901546 -17.9774 L 0.949102 -17.975 L 0.996652 -17.9724 L 1.04419 -17.9697 L 1.09173 -17.9669 L 1.13926 -17.9639 L 1.18678 -17.9608 L 1.23429 -17.9576 L 1.28179 -17.9543 L 1.32928 -17.9508 L 1.37677 -17.9473 L 1.42424 -17.9436 L 1.47171 -17.9397 L 1.51916 -17.9358 L 1.56661 -17.9317 L 1.75501 -17.9142 L 1.8024 -17.9095 L 1.84977 -17.9047 L 1.89713 -17.8997 L 1.94448 -17.8947 L 1.99181 -17.8895 L 2.03913 -17.8841 L 2.08643 -17.8787 L 2.13373 -17.8731 L 2.181 -17.8674 L 2.22826 -17.8615 L 2.27551 -17.8556 L 2.32274 -17.8495 L 2.36995 -17.8433 L 2.41714 -17.837 L 2.46432 -17.8305 L 2.51149 -17.8239 L 2.55863 -17.8172 L 2.60576 -17.8104 L 2.65286 -17.8034 L 2.69995 -17.7964 L 2.74703 -17.7891 L 2.79408 -17.7818 L 2.84111 -17.7744 L 2.88812 -17.7668 L 2.93511 -17.7591 L 2.98208 -17.7513 L 3.02903 -17.7433 L 3.07596 -17.7352 L 3.12287 -17.727 L 3.16976 -17.7187 L 3.21662 -17.7103 L 3.24466 -17.6567 L 3.27269 -17.6031 L 3.3007 -17.5494 L 3.3287 -17.4957 L 3.35668 -17.4418 L 3.38465 -17.3879 L 3.4126 -17.3339 L 3.44054 -17.2799 L 3.46846 -17.2257 L 3.49637 -17.1715 L 3.52426 -17.1172 L 3.55213 -17.0628 L 3.57998 -17.0083 L 3.60782 -16.9537 L 3.63564 -16.8991 L 3.66344 -16.8443 L 3.69122 -16.7895 L 3.71898 -16.7346 L 3.74673 -16.6796 L 3.77445 -16.6245 L 3.80216 -16.5694 L 3.82984 -16.5141 L 3.8575 -16.4588 L 3.88515 -16.4033 L 3.91277 -16.3478 L 3.94037 -16.2922 L 3.96794 -16.2365 L 3.9955 -16.1807 L 4.02303 -16.1248 L 4.05053 -16.0688 L 4.07802 -16.0127 L 4.10547 -15.9565 L 4.13291 -15.9002 L 4.16031 -15.8438 L 4.1877 -15.7874 L 4.21505 -15.7308 L 4.24238 -15.6741 L 4.26968 -15.6173 L 4.29696 -15.5605 L 4.3242 -15.5035 L 4.35142 -15.4464 L 4.37861 -15.3892 L 4.37861 -15.3892 L 4.43183 -15.4235 L 4.48502 -15.4577 L 4.53818 -15.4918 L 4.59131 -15.5258 L 4.64441 -15.5597 L 4.69748 -15.5935 L 4.75053 -15.6272 L 4.80354 -15.6608 L 4.85652 -15.6943 L 4.90947 -15.7277 L 4.96239 -15.7611 L 5.01529 -15.7943 L 5.06815 -15.8274 L 5.12098 -15.8604 L 5.17379 -15.8934 L 5.22656 -15.9262 L 5.2793 -15.959 L 5.33202 -15.9916 L 5.3847 -16.0242 L 5.43736 -16.0567 L 5.48998 -16.0891 L 5.54258 -16.1214 L 5.59515 -16.1537 L 5.64769 -16.1858 L 5.70019 -16.2179 L 5.75267 -16.2499 L 5.80512 -16.2818 L 5.85755 -16.3136 L 5.90994 -16.3453 L 5.9623 -16.377 L 6.01464 -16.4086 L 6.06694 -16.4401 L 6.11922 -16.4715 L 6.17147 -16.5028 L 6.22368 -16.5341 L 6.27588 -16.5653 L 6.32804 -16.5964 L 6.38017 -16.6275 L 6.43228 -16.6584 L 6.48435 -16.6893 L 6.5364 -16.7201 L 6.58842 -16.7509 L 6.63272 -16.7334 L 6.67696 -16.7158 L 6.72116 -16.6981 L 6.76531 -16.6802 L 6.80941 -16.6623 L 6.85347 -16.6442 L 6.89748 -16.626 L 6.94144 -16.6077 L 6.98535 -16.5893 L 7.02921 -16.5708 L 7.07303 -16.5521 L 7.11679 -16.5333 L 7.1605 -16.5145 L 7.20417 -16.4955 L 7.24778 -16.4763 L 7.29134 -16.4571 L 7.33486 -16.4378 L 7.37832 -16.4183 L 7.42172 -16.3987 L 7.46508 -16.379 L 7.50839 -16.3592 L 7.55164 -16.3393 L 7.59484 -16.3193 L 7.63798 -16.2991 L 7.68108 -16.2789 L 7.72412 -16.2585 L 7.7671 -16.238 L 7.81003 -16.2174 L 7.85291 -16.1967 L 7.89573 -16.1758 L 7.93849 -16.1549 L 8.10787 -16.0705 L 8.15035 -16.049 L 8.19278 -16.0274 L 8.23515 -16.0057 L 8.27747 -15.9839 L 8.31972 -15.9619 L 8.36192 -15.9398 L 8.40406 -15.9177 L 8.44614 -15.8954 L 8.48816 -15.873 L 8.53013 -15.8505 L 8.57203 -15.8278 L 8.61387 -15.8051 L 8.65565 -15.7823 L 8.69738 -15.7593 L 8.73904 -15.7362 L 8.78064 -15.7131 L 8.82217 -15.6898 L 8.86365 -15.6664 L 8.90507 -15.6429 L 8.94642 -15.6193 L 8.98771 -15.5955 L 9.02893 -15.5717 L 9.0701 -15.5478 L 9.1112 -15.5237 L 9.15223 -15.4996 L 9.1932 -15.4753 L 9.23411 -15.4509 L 9.27496 -15.4264 L 9.31573 -15.4019 L 9.35645 -15.3772 L 9.39709 -15.3523 L 9.4039 -15.2923 L 9.41067 -15.2322 L 9.4174 -15.172 L 9.42409 -15.1118 L 9.43074 -15.0515 L 9.43734 -14.9911 L 9.4439 -14.9306 L 9.45041 -14.8701 L 9.45689 -14.8095 L 9.46332 -14.7489 L 9.4697 -14.6882 L 9.47604 -14.6274 L 9.48233 -14.5665 L 9.48858 -14.5056 L 9.49477 -14.4446 L 9.50093 -14.3835 L 9.50703 -14.3223 L 9.51308 -14.2611 L 9.51909 -14.1998 L 9.52504 -14.1384 L 9.53095 -14.077 L 9.5368 -14.0154 L 9.5426 -13.9538 L 9.54835 -13.8922 L 9.55405 -13.8304 L 9.55969 -13.7686 L 9.56528 -13.7067 L 9.57082 -13.6447 L 9.5763 -13.5826 L 9.58172 -13.5205 L 9.58708 -13.4582 L 9.59239 -13.3959 L 9.59764 -13.3335 L 9.60283 -13.2711 L 9.60797 -13.2085 L 9.61304 -13.1459 L 9.61805 -13.0832 L 9.623 -13.0203 L 9.62788 -12.9575 L 9.6327 -12.8945 L 9.63746 -12.8314 L 9.64215 -12.7683 L 9.64215 -12.7683 L 9.70418 -12.781 L 9.76613 -12.7937 L 9.82802 -12.8063 L 9.88985 -12.8188 L 9.95161 -12.8313 L 10.0133 -12.8436 L 10.0749 -12.8559 L 10.1365 -12.8681 L 10.198 -12.8802 L 10.2595 -12.8922 L 10.3208 -12.9041 L 10.3822 -12.916 L 10.4434 -12.9278 L 10.5046 -12.9395 L 10.5658 -12.9511 L 10.6268 -12.9627 L 10.6879 -12.9742 L 10.7488 -12.9856 L 10.8097 -12.997 L 10.8705 -13.0082 L 10.9313 -13.0195 L 10.992 -13.0306 L 11.0527 -13.0417 L 11.1133 -13.0527 L 11.1739 -13.0636 L 11.2343 -13.0745 L 11.2948 -13.0853 L 11.3552 -13.096 L 11.4155 -13.1067 L 11.4757 -13.1173 L 11.5359 -13.1278 L 11.5961 -13.1383 L 11.6562 -13.1487 L 11.7162 -13.1591 L 11.7762 -13.1693 L 11.8362 -13.1796 L 11.896 -13.1898 L 11.9559 -13.1999 L 12.0156 -13.2099 L 12.0754 -13.2199 L 12.135 -13.2299 L 12.1946 -13.2397 L 12.2296 -13.2074 L 12.2645 -13.175 L 12.2993 -13.1425 L 12.3341 -13.11 L 12.3687 -13.0773 L 12.4033 -13.0445 L 12.4377 -13.0117 L 12.4721 -12.9787 L 12.5064 -12.9457 L 12.5406 -12.9125 L 12.5747 -12.8793 L 12.6087 -12.846 L 12.6427 -12.8126 L 12.6765 -12.7791 L 12.7103 -12.7455 L 12.744 -12.7119 L 12.7776 -12.6781 L 12.811 -12.6443 L 12.8445 -12.6103 L 12.8778 -12.5763 L 12.911 -12.5422 L 12.9441 -12.508 L 12.9772 -12.4737 L 13.0101 -12.4393 L 13.043 -12.4049 L 13.0758 -12.3703 L 13.1084 -12.3357 L 13.141 -12.3009 L 13.1735 -12.2661 L 13.2059 -12.2312 L 13.2382 -12.1963 L 13.3657 -12.0564 L 13.3976 -12.021 L 13.4293 -11.9856 L 13.461 -11.95 L 13.4925 -11.9143 L 13.524 -11.8786 L 13.5554 -11.8428 L 13.5867 -11.8069 L 13.6179 -11.7709 L 13.649 -11.7348 L 13.68 -11.6987 L 13.7109 -11.6624 L 13.7417 -11.6261 L 13.7724 -11.5897 L 13.803 -11.5533 L 13.8335 -11.5167 L 13.8639 -11.4801 L 13.8942 -11.4433 L 13.9245 -11.4066 L 13.9546 -11.3697 L 13.9846 -11.3327 L 14.0145 -11.2957 L 14.0444 -11.2586 L 14.0741 -11.2214 L 14.1038 -11.1841 L 14.1333 -11.1467 L 14.1627 -11.1093 L 14.1921 -11.0718 L 14.2213 -11.0342 L 14.2505 -10.9966 L 14.2795 -10.9588 L 14.3084 -10.921 L 14.2931 -10.8626 L 14.2777 -10.8041 L 14.2622 -10.7455 L 14.2467 -10.6869 L 14.2311 -10.6283 L 14.2155 -10.5696 L 14.1997 -10.5109 L 14.184 -10.4521 L 14.1681 -10.3933 L 14.1522 -10.3344 L 14.1362 -10.2755 L 14.1202 -10.2165 L 14.104 -10.1574 L 14.0878 -10.0984 L 14.0716 -10.0392 L 14.0553 -9.98006 L 14.0389 -9.92083 L 14.0224 -9.86155 L 14.0058 -9.80222 L 13.9892 -9.74284 L 13.9725 -9.68341 L 13.9558 -9.62392 L 13.9389 -9.56438 L 13.922 -9.50479 L 13.905 -9.44515 L 13.8879 -9.38546 L 13.8708 -9.32571 L 13.8535 -9.26591 L 13.8362 -9.20605 L 13.8188 -9.14614 L 13.8014 -9.08618 L 13.7838 -9.02616 L 13.7662 -8.96608 L 13.7484 -8.90596 L 13.7306 -8.84577 L 13.7127 -8.78553 L 13.6947 -8.72524 L 13.6767 -8.66489 L 13.6585 -8.60448 L 13.6403 -8.54401 L 13.6219 -8.48349 L 13.6035 -8.42291 L 13.6035 -8.42291 L 13.6659 -8.41242 L 13.7283 -8.40186 L 13.7905 -8.39125 L 13.8527 -8.38058 L 13.9148 -8.36986 L 13.9768 -8.35908 L 14.0387 -8.34825 L 14.1005 -8.33737 L 14.1622 -8.32644 L 14.2239 -8.31545 L 14.2854 -8.30442 L 14.3469 -8.29333 L 14.4083 -8.2822 L 14.4696 -8.27102 L 14.5308 -8.25979 L 14.5919 -8.24851 L 14.6529 -8.23719 L 14.7139 -8.22581 L 14.7748 -8.2144 L 14.8356 -8.20294 L 14.8963 -8.19143 L 14.957 -8.17988 L 15.0175 -8.16829 L 15.078 -8.15665 L 15.1384 -8.14498 L 15.1988 -8.13326 L 15.259 -8.1215 L 15.3192 -8.10969 L 15.3793 -8.09785 L 15.4393 -8.08597 L 15.4993 -8.07405 L 15.5591 -8.06209 L 15.6189 -8.05009 L 15.6787 -8.03806 L 15.7383 -8.02599 L 15.7979 -8.01388 L 15.8574 -8.00173 L 15.9169 -7.98955 L 15.9762 -7.97733 L 16.0355 -7.96508 L 16.0948 -7.95279 L 16.1539 -7.94047 L 16.1749 -7.89771 L 16.1957 -7.85489 L 16.2164 -7.81202 L 16.237 -7.76909 L 16.2575 -7.72611 L 16.2779 -7.68307 L 16.2982 -7.63998 L 16.3183 -7.59684 L 16.3384 -7.55364 L 16.3583 -7.51039 L 16.3781 -7.46709 L 16.3978 -7.42373 L 16.4174 -7.38033 L 16.4369 -7.33687 L 16.4562 -7.29336 L 16.4754 -7.2498 L 16.4946 -7.20619 L 16.5136 -7.16253 L 16.5325 -7.11882 L 16.5512 -7.07505 L 16.5699 -7.03124 L 16.5884 -6.98738 L 16.6069 -6.94347 L 16.6252 -6.89952 L 16.6434 -6.85551 L 16.6615 -6.81146 L 16.6794 -6.76735 L 16.6973 -6.72321 L 16.715 -6.67901 L 16.7326 -6.63477 L 16.7501 -6.59048 L 16.8184 -6.41404 L 16.8354 -6.36953 L 16.8521 -6.32497 L 16.8688 -6.28036 L 16.8854 -6.23571 L 16.9018 -6.19102 L 16.9181 -6.14629 L 16.9343 -6.10151 L 16.9504 -6.05669 L 16.9664 -6.01182 L 16.9822 -5.96692 L 16.9979 -5.92197 L 17.0136 -5.87698 L 17.029 -5.83195 L 17.0444 -5.78688 L 17.0597 -5.74177 L 17.0748 -5.69662 L 17.0898 -5.65143 L 17.1047 -5.6062 L 17.1195 -5.56093 L 17.1341 -5.51562 L 17.1486 -5.47027 L 17.1631 -5.42488 L 17.1774 -5.37946 L 17.1915 -5.334 L 17.2056 -5.2885 L 17.2195 -5.24296 L 17.2333 -5.19739 L 17.247 -5.15178 L 17.2606 -5.10614 L 17.274 -5.06046 L 17.2873 -5.01474 L 17.2519 -4.96578 L 17.2164 -4.9168 L 17.1809 -4.86779 L 17.1452 -4.81877 L 17.1095 -4.76972 L 17.0737 -4.72065 L 17.0378 -4.67156 L 17.0019 -4.62245 L 16.9658 -4.57332 L 16.9297 -4.52416 L 16.8935 -4.47499 L 16.8573 -4.42579 L 16.8209 -4.37657 L 16.7845 -4.32733 L 16.748 -4.27807 L 16.7114 -4.22878 L 16.6747 -4.17948 L 16.6379 -4.13015 L 16.601 -4.08081 L 16.5641 -4.03144 L 16.527 -3.98205 L 16.4899 -3.93264 L 16.4527 -3.8832 L 16.4154 -3.83375 L 16.378 -3.78427 L 16.3405 -3.73478 L 16.303 -3.68526 L 16.2653 -3.63572 L 16.2275 -3.58616 L 16.1897 -3.53658 L 16.1517 -3.48698 L 16.1136 -3.43736 L 16.0755 -3.38771 L 16.0372 -3.33805 L 15.9989 -3.28836 L 15.9604 -3.23866 L 15.9219 -3.18893 L 15.8832 -3.13918 L 15.8445 -3.08942 L 15.8056 -3.03963 L 15.7666 -2.98982 L 15.7276 -2.93999 L 15.7276 -2.93999 L 15.782 -2.90764 L 15.8363 -2.87528 L 15.8906 -2.84289 L 15.9447 -2.81048 L 15.9987 -2.77806 L 16.0526 -2.74562 L 16.1064 -2.71316 L 16.1601 -2.68068 L 16.2137 -2.64819 L 16.2672 -2.61568 L 16.3206 -2.58315 L 16.374 -2.55061 L 16.4272 -2.51806 L 16.4803 -2.48549 L 16.5333 -2.4529 L 16.5862 -2.4203 L 16.6391 -2.38769 L 16.6918 -2.35507 L 16.7445 -2.32243 L 16.797 -2.28977 L 16.8495 -2.25711 L 16.9019 -2.22443 L 16.9542 -2.19175 L 17.0064 -2.15905 L 17.0585 -2.12634 L 17.1105 -2.09361 L 17.1624 -2.06088 L 17.2143 -2.02814 L 17.266 -1.99539 L 17.3177 -1.96262 L 17.3693 -1.92985 L 17.4208 -1.89707 L 17.4723 -1.86428 L 17.5236 -1.83148 L 17.5749 -1.79867 L 17.6261 -1.76586 L 17.6772 -1.73303 L 17.7282 -1.7002 L 17.7791 -1.66736 L 17.83 -1.63452 L 17.8808 -1.60166 L 17.9315 -1.5688 L 17.9356 -1.52136 L 17.9396 -1.47391 L 17.9434 -1.42644 L 17.9471 -1.37897 L 17.9507 -1.33148 L 17.9541 -1.28399 L 17.9575 -1.23649 L 17.9607 -1.18898 L 17.9638 -1.14146 L 17.9667 -1.09393 L 17.9696 -1.0464 L 17.9723 -0.998854 L 17.9748 -0.951305 L 17.9773 -0.90375 L 17.9796 -0.856187 L 17.9818 -0.808619 L 17.9839 -0.761046 L 17.9859 -0.713467 L 17.9877 -0.665882 L 17.9894 -0.618294 L 17.991 -0.570701 L 17.9924 -0.523104 L 17.9937 -0.475503 L 17.9949 -0.427899 L 17.996 -0.380292 L 17.9969 -0.332682 L 17.9977 -0.28507 L 17.9984 -0.237456 L 17.999 -0.18984 L 17.9994 -0.142223 L 17.9998 -0.0946054Z"
id="path1" />
</g>
</svg>
