<?xml version="1.0" encoding="UTF-8" standalone="no"?>
<svg version="1.1">
<g
style="fill:none;stroke:#000000;stroke-opacity:1;stroke-width:0.1">
<path d="M 19.9999 0.0493361 L 19.9998 0.0893358 L 19.9996 0.129335 L 19.9993 0.169334 L 19.9989 0.209332 L 19.9984 0.24933 L 19.9979 0.289326 L 19.9973 0.329321 L 19.9966 0.369315 L 19.9958 0.409308 L 19.995 0.449298 L 19.994 0.489287 L 19.993 0.529274 L 19.9919 0.569259 L 19.9907 0.609242 L 19.9895 0.649222 L 19.9881 0.6892 L 19.9867 0.729175 L 19.9852 0.769146 L 19.9836 0.809115 L 19.982 0.849081 L 19.9802 0.889043 L 19.9784 0.929002 L 19.9765 0.968957 L 19.9745 1.00891 L 19.9725 1.04885 L 19.9703 1.0888 L 19.9681 1.12874 L 19.9658 1.16867 L 19.9634 1.2086 L 19.961 1.24852 L 19.9585 1.28844 L 19.9558 1.32836 L 19.9531 1.36827 L 19.9504 1.40817 L 19.9475 1.44807 L 19.9446 1.48796 L 19.9416 1.52785 L 19.9385 1.56773 L 19.9353 1.6076 L 19.932 1.64747 L 19.8899 1.67094 L 19.8478 1.69441 L 19.8056 1.71788 L 19.7634 1.74134 L 19.7212 1.7648 L 19.6789 1.78826 L 19.6366 1.81171 L 19.5942 1.83516 L 19.5519 1.85861 L 19.5094 1.88205 L 19.467 1.90549 L 19.4245 1.92893 L 19.3819 1.95236 L 19.3393 1.97579 L 19.2967 1.99921 L 19.2541 2.02263 L 19.2114 2.04605 L 19.1686 2.06946 L 19.1258 2.09286 L 19.083 2.11627 L 19.0402 2.13966 L 18.9973 2.16306 L 18.9543 2.18645 L 18.9113 2.20983 L 18.8683 2.23321 L 18.8252 2.25658 L 18.7821 2.27995 L 18.739 2.30332 L 18.6958 2.32668 L 18.6525 2.35003 L 18.6093 2.37338 L 18.5659 2.39672 L 18.5226 2.42006 L 18.4792 2.44339 L 18.4357 2.46672 L 18.3922 2.49004 L 18.3487 2.51335 L 18.3051 2.53666 L 18.2614 2.55996 L 18.2178 2.58325 L 18.174 2.60654 L 18.1303 2.62982 L 18.0864 2.6531 L 18.0426 2.67636 L 17.9987 2.69962 L 17.9547 2.72288 L 17.9107 2.74613 L 17.8666 2.76936 L 17.8225 2.7926 L 17.7784 2.81582 L 17.7784 2.81582 L 17.8132 2.85155 L 17.848 2.88727 L 17.8827 2.92299 L 17.9174 2.9587 L 17.952 2.9944 L 17.9866 3.03009 L 18.0211 3.06577 L 18.0556 3.10145 L 18.09 3.13712 L 18.1244 3.17278 L 18.1587 3.20843 L 18.193 3.24408 L 18.2273 3.27971 L 18.2615 3.31534 L 18.2957 3.35096 L 18.3298 3.38657 L 18.3639 3.42218 L 18.3979 3.45777 L 18.4319 3.49336 L 18.4658 3.52894 L 18.4997 3.56451 L 18.5336 3.60008 L 18.5674 3.63563 L 18.6012 3.67118 L 18.6349 3.70672 L 18.6686 3.74225 L 18.7023 3.77777 L 18.7359 3.81328 L 18.7695 3.84879 L 18.803 3.88429 L 18.8365 3.91978 L 18.8699 3.95526 L 18.9033 3.99073 L 18.9367 4.02619 L 18.9701 4.06165 L 19.0034 4.0971 L 19.0366 4.13254 L 19.0698 4.16797 L 19.103 4.20339 L 19.1362 4.23881 L 19.1693 4.27422 L 19.2023 4.30961 L 19.2354 4.345 L 19.2684 4.38039 L 19.3013 4.41576 L 19.3342 4.45112 L 19.3671 4.48648 L 19.4 4.52183 L 19.4328 4.55717 L 19.4656 4.5925 L 19.4564 4.63142 L 19.4471 4.67033 L 19.4377 4.70921 L 19.4282 4.74808 L 19.4187 4.78692 L 19.4091 4.82575 L 19.3994 4.86456 L 19.3896 4.90335 L 19.3798 4.94212 L 19.3698 4.98087 L 19.3598 5.0196 L 19.3498 5.05831 L 19.3396 5.097 L 19.3294 5.13567 L 19.3191 5.17432 L 19.3087 5.21294 L 19.2982 5.25155 L 19.2877 5.29014 L 19.2771 5.3287 L 19.2664 5.36724 L 19.2556 5.40577 L 19.2447 5.44427 L 19.2338 5.48274 L 19.2228 5.5212 L 19.2117 5.55964 L 19.2006 5.59805 L 19.1893 5.63644 L 19.178 5.67481 L 19.1666 5.71315 L 19.1552 5.75147 L 19.1436 5.78977 L 19.132 5.82805 L 19.1203 5.8663 L 19.1085 5.90453 L 19.0967 5.94273 L 19.0848 5.98091 L 19.0728 6.01907 L 19.0607 6.05721 L 19.0485 6.09531 L 19.0363 6.1334 L 19.0058 6.22724 L 18.9933 6.26524 L 18.9808 6.30322 L 18.9681 6.34116 L 18.9554 6.37909 L 18.9426 6.41699 L 18.9297 6.45486 L 18.9168 6.49271 L 18.9038 6.53053 L 18.8907 6.56832 L 18.8775 6.60609 L 18.8642 6.64383 L 18.8509 6.68155 L 18.8375 6.71923 L 18.824 6.7569 L 18.8105 6.79453 L 18.7969 6.83214 L 18.7832 6.86972 L 18.7694 6.90727 L 18.7555 6.94479 L 18.7416 6.98229 L 18.7276 7.01976 L 18.7135 7.0572 L 18.6994 7.09461 L 18.6851 7.132 L 18.6708 7.16936 L 18.6565 7.20668 L 18.642 7.24398 L 18.6275 7.28125 L 18.6129 7.31849 L 18.5982 7.3557 L 18.5835 7.39288 L 18.5686 7.43004 L 18.5537 7.46716 L 18.5388 7.50425 L 18.5237 7.54131 L 18.5086 7.57835 L 18.4934 7.61535 L 18.4781 7.65232 L 18.4628 7.68926 L 18.4474 7.72617 L 18.4001 7.73549 L 18.3528 7.74479 L 18.3054 7.75408 L 18.258 7.76335 L 18.2106 7.77261 L 18.1632 7.78185 L 18.1157 7.79108 L 18.0681 7.8003 L 18.0206 7.8095 L 17.973 7.81868 L 17.9254 7.82785 L 17.8777 7.83701 L 17.83 7.84614 L 17.7822 7.85527 L 17.7345 7.86437 L 17.6867 7.87346 L 17.6388 7.88254 L 17.5909 7.8916 L 17.543 7.90064 L 17.4951 7.90966 L 17.4471 7.91867 L 17.399 7.92766 L 17.351 7.93664 L 17.3029 7.9456 L 17.2547 7.95454 L 17.2065 7.96346 L 17.1583 7.97236 L 17.1101 7.98125 L 17.0618 7.99012 L 17.0134 7.99897 L 16.965 8.0078 L 16.9166 8.01661 L 16.8682 8.0254 L 16.8197 8.03418 L 16.7711 8.04293 L 16.7226 8.05167 L 16.6739 8.06039 L 16.6253 8.06908 L 16.5766 8.07776 L 16.5279 8.08642 L 16.4791 8.09505 L 16.4302 8.10367 L 16.3814 8.11226 L 16.3325 8.12084 L 16.2835 8.12939 L 16.2345 8.13792 L 16.1855 8.14643 L 16.1364 8.15492 L 16.0873 8.16339 L 16.0381 8.17183 L 16.0381 8.17183 L 16.0602 8.21657 L 16.0822 8.26129 L 16.1042 8.30598 L 16.1261 8.35066 L 16.148 8.39531 L 16.1699 8.43994 L 16.1917 8.48455 L 16.2135 8.52913 L 16.2352 8.57369 L 16.2569 8.61824 L 16.2785 8.66276 L 16.3001 8.70726 L 16.3217 8.75173 L 16.3432 8.79619 L 16.3647 8.84062 L 16.3861 8.88503 L 16.4076 8.92943 L 16.4289 8.9738 L 16.4502 9.01815 L 16.4715 9.06247 L 16.4928 9.10678 L 16.514 9.15107 L 16.5352 9.19533 L 16.5563 9.23958 L 16.5774 9.2838 L 16.5985 9.32801 L 16.6195 9.37219 L 16.6405 9.41635 L 16.6615 9.4605 L 16.6824 9.50462 L 16.7033 9.54872 L 16.7241 9.5928 L 16.7449 9.63686 L 16.7657 9.68091 L 16.7865 9.72493 L 16.8072 9.76893 L 16.8279 9.81291 L 16.8485 9.85688 L 16.8691 9.90082 L 16.8897 9.94474 L 16.9102 9.98865 L 16.9308 10.0325 L 16.9512 10.0764 L 16.9717 10.1202 L 16.9921 10.1641 L 17.0125 10.2079 L 17.0328 10.2517 L 17.0532 10.2954 L 17.0735 10.3392 L 17.0937 10.3829 L 17.0729 10.4171 L 17.052 10.4512 L 17.0311 10.4853 L 17.0101 10.5193 L 16.989 10.5533 L 16.9679 10.5873 L 16.9467 10.6212 L 16.9254 10.6551 L 16.9041 10.6889 L 16.8826 10.7227 L 16.8612 10.7564 L 16.8396 10.7901 L 16.818 10.8238 L 16.7963 10.8574 L 16.7746 10.891 L 16.7528 10.9245 L 16.7309 10.958 L 16.7089 10.9914 L 16.6869 11.0248 L 16.6648 11.0582 L 16.6427 11.0915 L 16.6205 11.1248 L 16.5982 11.158 L 16.5758 11.1911 L 16.5534 11.2243 L 16.5309 11.2574 L 16.5084 11.2904 L 16.4858 11.3234 L 16.4631 11.3563 L 16.4403 11.3892 L 16.4175 11.4221 L 16.3947 11.4549 L 16.3717 11.4877 L 16.3487 11.5204 L 16.3256 11.5531 L 16.3025 11.5857 L 16.2793 11.6183 L 16.256 11.6508 L 16.2327 11.6833 L 16.2093 11.7158 L 16.1513 11.7956 L 16.1277 11.8279 L 16.104 11.8601 L 16.0802 11.8923 L 16.0564 11.9244 L 16.0325 11.9565 L 16.0086 11.9885 L 15.9846 12.0205 L 15.9605 12.0525 L 15.9364 12.0844 L 15.9122 12.1162 L 15.8879 12.148 L 15.8636 12.1798 L 15.8392 12.2115 L 15.8147 12.2431 L 15.7902 12.2747 L 15.7656 12.3063 L 15.741 12.3378 L 15.7163 12.3693 L 15.6915 12.4007 L 15.6667 12.432 L 15.6418 12.4633 L 15.6168 12.4946 L 15.5918 12.5258 L 15.5667 12.557 L 15.5416 12.5881 L 15.5164 12.6191 L 15.4911 12.6501 L 15.4658 12.6811 L 15.4404 12.712 L 15.4149 12.7429 L 15.3894 12.7737 L 15.3638 12.8044 L 15.3382 12.8351 L 15.3125 12.8658 L 15.2867 12.8964 L 15.2609 12.9269 L 15.235 12.9574 L 15.2091 12.9879 L 15.1831 13.0182 L 15.157 13.0486 L 15.1091 13.0428 L 15.0613 13.0371 L 15.0134 13.0313 L 14.9654 13.0254 L 14.9175 13.0196 L 14.8695 13.0137 L 14.8214 13.0078 L 14.7734 13.0019 L 14.7253 12.9959 L 14.6772 12.99 L 14.6291 12.984 L 14.5809 12.9779 L 14.5327 12.9719 L 14.4845 12.9658 L 14.4363 12.9597 L 14.388 12.9536 L 14.3397 12.9474 L 14.2913 12.9413 L 14.243 12.935 L 14.1946 12.9288 L 14.1461 12.9225 L 14.0977 12.9163 L 14.0492 12.9099 L 14.0007 12.9036 L 13.9521 12.8972 L 13.9035 12.8908 L 13.8549 12.8844 L 13.8063 12.8779 L 13.7576 12.8714 L 13.7089 12.8649 L 13.6602 12.8584 L 13.6114 12.8518 L 13.5626 12.8452 L 13.5138 12.8385 L 13.4649 12.8319 L 13.416 12.8251 L 13.3671 12.8184 L 13.3181 12.8117 L 13.2691 12.8049 L 13.2201 12.798 L 13.171 12.7912 L 13.1219 12.7843 L 13.0728 12.7773 L 13.0236 12.7704 L 12.9744 12.7634 L 12.9252 12.7564 L 12.8759 12.7493 L 12.8266 12.7422 L 12.7773 12.7351 L 12.7279 12.7279 L 12.7279 12.7279 L 12.7351 12.7773 L 12.7422 12.8266 L 12.7493 12.8759 L 12.7564 12.9252 L 12.7634 12.9744 L 12.7704 13.0236 L 12.7773 13.0728 L 12.7843 13.1219 L 12.7912 13.171 L 12.798 13.2201 L 12.8049 13.2691 L 12.8117 13.3181 L 12.8184 13.3671 L 12.8251 13.416 L 12.8319 13.4649 L 12.8385 13.5138 L 12.8452 13.5626 L 12.8518 13.6114 L 12.8584 13.6602 L 12.8649 13.7089 L 12.8714 13.7576 L 12.8779 13.8063 L 12.8844 13.8549 L 12.8908 13.9035 L 12.8972 13.9521 L 12.9036 14.0007 L 12.9099 14.0492 L 12.9163 14.0977 L 12.9225 14.1461 L 12.9288 14.1946 L 12.935 14.243 L 12.9413 14.2913 L 12.9474 14.3397 L 12.9536 14.388 L 12.9597 14.4363 L 12.9658 14.4845 L 12.9719 14.5327 L 12.9779 14.5809 L 12.984 14.6291 L 12.99 14.6772 L 12.9959 14.7253 L 13.0019 14.7734 L 13.0078 14.8214 L 13.0137 14.8695 L 13.0196 14.9175 L 13.0254 14.9654 L 13.0313 15.0134 L 13.0371 15.0613 L 13.0428 15.1091 L 13.0486 15.157 L 13.0182 15.1831 L 12.9879 15.2091 L 12.9574 15.235 L 12.9269 15.2609 L 12.8964 15.2867 L 12.8658 15.3125 L 12.8351 15.3382 L 12.8044 15.3638 L 12.7737 15.3894 L 12.7429 15.4149 L 12.712 15.4404 L 12.6811 15.4658 L 12.6501 15.4911 L 12.6191 15.5164 L 12.5881 15.5416 L 12.557 15.5667 L 12.5258 15.5918 L 12.4946 15.6168 L 12.4633 15.6418 L 12.432 15.6667 L 12.4007 15.6915 L 12.3693 15.7163 L 12.3378 15.741 L 12.3063 15.7656 L 12.2747 15.7902 L 12.2431 15.8147 L 12.2115 15.8392 L 12.1798 15.8636 L 12.148 15.8879 L 12.1162 15.9122 L 12.0844 15.9364 L 12.0525 15.9605 L 12.0205 15.9846 L 11.9885 16.0086 L 11.9565 16.0325 L 11.9244 16.0564 L 11.8923 16.0802 L 11.8601 16.104 L 11.8279 16.1277 L 11.7956 16.1513 L 11.7158 16.2093 L 11.6833 16.2327 L 11.6508 16.256 L 11.6183 16.2793 L 11.5857 16.3025 L 11.5531 16.3256 L 11.5204 16.3487 L 11.4877 16.3717 L 11.4549 16.3947 L 11.4221 16.4175 L 11.3892 16.4403 L 11.3563 16.4631 L 11.3234 16.4858 L 11.2904 16.5084 L 11.2574 16.5309 L 11.2243 16.5534 L 11.1911 16.5758 L 11.158 16.5982 L 11.1248 16.6205 L 11.0915 16.6427 L 11.0582 16.6648 L 11.0248 16.6869 L 10.9914 16.7089 L 10.958 16.7309 L 10.9245 16.7528 L 10.891 16.7746 L 10.8574 16.7963 L 10.8238 16.818 L 10.7901 16.8396 L 10.7564 16.8612 L 10.7227 16.8826 L 10.6889 16.9041 L 10.6551 16.9254 L 10.6212 16.9467 L 10.5873 16.9679 L 10.5533 16.989 L 10.5193 17.0101 L 10.4853 17.0311 L 10.4512 17.052 L 10.4171 17.0729 L 10.3829 17.0937 L 10.3392 17.0735 L 10.2954 17.0532 L 10.2517 17.0328 L 10.2079 17.0125 L 10.1641 16.9921 L 10.1202 16.9717 L 10.0764 16.9512 L 10.0325 16.9308 L 9.98865 16.9102 L 9.94474 16.8897 L 9.90082 16.8691 L 9.85688 16.8485 L 9.81291 16.8279 L 9.76893 16.8072 L 9.72493 16.7865 L 9.68091 16.7657 L 9.63686 16.7449 L 9.5928 16.7241 L 9.54872 16.7033 L 9.50462 16.6824 L 9.4605 16.6615 L 9.41635 16.6405 L 9.37219 16.6195 L 9.32801 16.5985 L 9.2838 16.5774 L 9.23958 16.5563 L 9.19533 16.5352 L 9.15107 16.514 L 9.10678 16.4928 L 9.06247 16.4715 L 9.01815 16.4502 L 8.9738 16.4289 L 8.92943 16.4076 L 8.88503 16.3861 L 8.84062 16.3647 L 8.79619 16.3432 L 8.75173 16.3217 L 8.70726 16.3001 L 8.66276 16.2785 L 8.61824 16.2569 L 8.57369 16.2352 L 8.52913 16.2135 L 8.48455 16.1917 L 8.43994 16.1699 L 8.39531 16.148 L 8.35066 16.1261 L 8.30598 16.1042 L 8.26129 16.0822 L 8.21657 16.0602 L 8.17183 16.0381 L 8.17183 16.0381 L 8.16339 16.0873 L 8.15492 16.1364 L 8.14643 16.1855 L 8.13792 16.2345 L 8.12939 16.2835 L 8.12084 16.3325 L 8.11226 16.3814 L 8.10367 16.4302 L 8.09505 16.4791 L 8.08642 16.5279 L 8.07776 16.5766 L 8.06908 16.6253 L 8.06039 16.6739 L 8.05167 16.7226 L 8.04293 16.7711 L 8.03418 16.8197 L 8.0254 16.8682 L 8.01661 16.9166 L 8.0078 16.965 L 7.99897 17.0134 L 7.99012 17.0618 L 7.98125 17.1101 L 7.97236 17.1583 L 7.96346 17.2065 L 7.95454 17.2547 L 7.9456 17.3029 L 7.93664 17.351 L 7.92766 17.399 L 7.91867 17.4471 L 7.90966 17.4951 L 7.90064 17.543 L 7.8916 17.5909 L 7.88254 17.6388 L 7.87346 17.6867 L 7.86437 17.7345 L 7.85527 17.7822 L 7.84614 17.83 L 7.83701 17.8777 L 7.82785 17.9254 L 7.81868 17.973 L 7.8095 18.0206 L 7.8003 18.0681 L 7.79108 18.1157 L 7.78185 18.1632 L 7.77261 18.2106 L 7.76335 18.258 L 7.75408 18.3054 L 7.74479 18.3528 L 7.73549 18.4001 L 7.72617 18.4474 L 7.68926 18.4628 L 7.65232 18.4781 L 7.61535 18.4934 L 7.57835 18.5086 L 7.54131 18.5237 L 7.50425 18.5388 L 7.46716 18.5537 L 7.43004 18.5686 L 7.39288 18.5835 L 7.3557 18.5982 L 7.31849 18.6129 L 7.28125 18.6275 L 7.24398 18.642 L 7.20668 18.6565 L 7.16936 18.6708 L 7.132 18.6851 L 7.09461 18.6994 L 7.0572 18.7135 L 7.01976 18.7276 L 6.98229 18.7416 L 6.94479 18.7555 L 6.90727 18.7694 L 6.86972 18.7832 L 6.83214 18.7969 L 6.79453 18.8105 L 6.7569 18.824 L 6.71923 18.8375 L 6.68155 18.8509 L 6.64383 18.8642 L 6.60609 18.8775 L 6.56832 18.8907 L 6.53053 18.9038 L 6.49271 18.9168 L 6.45486 18.9297 L 6.41699 18.9426 L 6.37909 18.9554 L 6.34116 18.9681 L 6.30322 18.9808 L 6.26524 18.9933 L 6.22724 19.0058 L 6.1334 19.0363 L 6.09531 19.0485 L 6.05721 19.0607 L 6.01907 19.0728 L 5.98091 19.0848 L 5.94273 19.0967 L 5.90453 19.1085 L 5.8663 19.1203 L 5.82805 19.132 L 5.78977 19.1436 L 5.75147 19.1552 L 5.71315 19.1666 L 5.67481 19.178 L 5.63644 19.1893 L 5.59805 19.2006 L 5.55964 19.2117 L 5.5212 19.2228 L 5.48274 19.2338 L 5.44427 19.2447 L 5.40577 19.2556 L 5.36724 19.2664 L 5.3287 19.2771 L 5.29014 19.2877 L 5.25155 19.2982 L 5.21294 19.3087 L 5.17432 19.3191 L 5.13567 19.3294 L 5.097 19.3396 L 5.05831 19.3498 L 5.0196 19.3598 L 4.98087 19.3698 L 4.94212 19.3798 L 4.90335 19.3896 L 4.86456 19.3994 L 4.82575 19.4091 L 4.78692 19.4187 L 4.74808 19.4282 L 4.70921 19.4377 L 4.67033 19.4471 L 4.63142 19.4564 L 4.5925 19.4656 L 4.55717 19.4328 L 4.52183 19.4 L 4.48648 19.3671 L 4.45112 19.3342 L 4.41576 19.3013 L 4.38039 19.2684 L 4.345 19.2354 L 4.30961 19.2023 L 4.27422 19.1693 L 4.23881 19.1362 L 4.20339 19.103 L 4.16797 19.0698 L 4.13254 19.0366 L 4.0971 19.0034 L 4.06165 18.9701 L 4.02619 18.9367 L 3.99073 18.9033 L 3.95526 18.8699 L 3.91978 18.8365 L 3.88429 18.803 L 3.84879 18.7695 L 3.81328 18.7359 L 3.77777 18.7023 L 3.74225 18.6686 L 3.70672 18.6349 L 3.67118 18.6012 L 3.63563 18.5674 L 3.60008 18.5336 L 3.56451 18.4997 L 3.52894 18.4658 L 3.49336 18.4319 L 3.45777 18.3979 L 3.42218 18.3639 L 3.38657 18.3298 L 3.35096 18.2957 L 3.31534 18.2615 L 3.27971 18.2273 L 3.24408 18.193 L 3.20843 18.1587 L 3.17278 18.1244 L 3.13712 18.09 L 3.10145 18.0556 L 3.06577 18.0211 L 3.03009 17.9866 L 2.9944 17.952 L 2.9587 17.9174 L 2.92299 17.8827 L 2.88727 17.848 L 2.85155 17.8132 L 2.81582 17.7784 L 2.81582 17.7784 L 2.7926 17.8225 L 2.76936 17.8666 L 2.74613 17.9107 L 2.72288 17.9547 L 2.69962 17.9987 L 2.67636 18.0426 L 2.6531 18.0864 L 2.62982 18.1303 L 2.60654 18.174 L 2.58325 18.2178 L 2.55996 18.2614 L 2.53666 18.3051 L 2.51335 18.3487 L 2.49004 18.3922 L 2.46672 18.4357 L 2.44339 18.4792 L 2.42006 18.5226 L 2.39672 18.5659 L 2.37338 18.6093 L 2.35003 18.6525 L 2.32668 18.6958 L 2.30332 18.739 L 2.27995 18.7821 L 2.25658 18.8252 L 2.23321 18.8683 L 2.20983 18.9113 L 2.18645 18.9543 L 2.16306 18.9973 L 2.13966 19.0402 L 2.11627 19.083 L 2.09286 19.1258 L 2.06946 19.1686 L 2.04605 19.2114 L 2.02263 19.2541 L 1.99921 19.2967 L 1.97579 19.3393 L 1.95236 19.3819 L 1.92893 19.4245 L 1.90549 19.467 L 1.88205 19.5094 L 1.85861 19.5519 L 1.83516 19.5942 L 1.81171 19.6366 L 1.78826 19.6789 L 1.7648 19.7212 L 1.74134 19.7634 L 1.71788 19.8056 L 1.69441 19.8478 L 1.67094 19.8899 L 1.64747 19.932 L 1.6076 19.9353 L 1.56773 19.9385 L 1.52785 19.9416 L 1.48796 19.9446 L 1.44807 19.9475 L 1.40817 19.9504 L 1.36827 19.9531 L 1.32836 19.9558 L 1.28844 19.9585 L 1.24852 19.961 L 1.2086 19.9634 L 1.16867 19.9658 L 1.12874 19.9681 L 1.0888 19.9703 L 1.04885 19.9725 L 1.00891 19.9745 L 0.968957 19.9765 L 0.929002 19.9784 L 0.889043 19.9802 L 0.849081 19.982 L 0.809115 19.9836 L 0.769146 19.9852 L 0.729175 19.9867 L 0.6892 19.9881 L 0.649222 19.9895 L 0.609242 19.9907 L 0.569259 19.9919 L 0.529274 19.993 L 0.489287 19.994 L 0.449298 19.995 L 0.409308 19.9958 L 0.369315 19.9966 L 0.329321 19.9973 L 0.289326 19.9979 L 0.24933 19.9984 L 0.209332 19.9989 L 0.169334 19.9993 L 0.129335 19.9996 L 0.0893358 19.9998 L 0.0493361 19.9999 L -0.0493361 19.9999 L -0.0893358 19.9998 L -0.129335 19.9996 L -0.169334 19.9993 L -0.209332 19.9989 L -0.24933 19.9984 L -0.289326 19.9979 L -0.329321 19.9973 L -0.369315 19.9966 L -0.409308 19.9958 L -0.449298 19.995 L -0.489287 19.994 L -0.529274 19.993 L -0.569259 19.9919 L -0.609242 19.9907 L -0.649222 19.9895 L -0.6892 19.9881 L -0.729175 19.9867 L -0.769146 19.9852 L -0.809115 19.9836 L -0.849081 19.982 L -0.889043 19.9802 L -0.929002 19.9784 L -0.968957 19.9765 L -1.00891 19.9745 L -1.04885 19.9725 L -1.0888 19.9703 L -1.12874 19.9681 L -1.16867 19.9658 L -1.2086 19.9634 L -1.24852 19.961 L -1.28844 19.9585 L -1.32836 19.9558 L -1.36827 19.9531 L -1.40817 19.9504 L -1.44807 19.9475 L -1.48796 19.9446 L -1.52785 19.9416 L -1.56773 19.9385 L -1.6076 19.9353 L -1.64747 19.932 L -1.67094 19.8899 L -1.69441 19.8478 L -1.71788 19.8056 L -1.74134 19.7634 L -1.7648 19.7212 L -1.78826 19.6789 L -1.81171 19.6366 L -1.83516 19.5942 L -1.85861 19.5519 L -1.88205 19.5094 L -1.90549 19.467 L -1.92893 19.4245 L -1.95236 19.3819 L -1.97579 19.3393 L -1.99921 19.2967 L -2.02263 19.2541 L -2.04605 19.2114 L -2.06946 19.1686 L -2.09286 19.1258 L -2.11627 19.083 L -2.13966 19.0402 L -2.16306 18.9973 L -2.18645 18.9543 L -2.20983 18.9113 L -2.23321 18.8683 L -2.25658 18.8252 L -2.27995 18.7821 L -2.30332 18.739 L -2.32668 18.6958 L -2.35003 18.6525 L -2.37338 18.6093 L -2.39672 18.5659 L -2.42006 18.5226 L -2.44339 18.4792 L -2.46672 18.4357 L -2.49004 18.3922 L -2.51335 18.3487 L -2.53666 18.3051 L -2.55996 18.2614 L -2.58325 18.2178 L -2.60654 18.174 L -2.62982 18.1303 L -2.6531 18.0864 L -2.67636 18.0426 L -2.69962 17.9987 L -2.72288 17.9547 L -2.74613 17.9107 L -2.76936 17.8666 L -2.7926 17.8225 L -2.81582 17.7784 L -2.81582 17.7784 L -2.85155 17.8132 L -2.88727 17.848 L -2.92299 17.8827 L -2.9587 17.9174 L -2.9944 17.952 L -3.03009 17.9866 L -3.06577 18.0211 L -3.10145 18.0556 L -3.13712 18.09 L -3.17278 18.1244 L -3.20843 18.1587 L -3.24408 18.193 L -3.27971 18.2273 L -3.31534 18.2615 L -3.35096 18.2957 L -3.38657 18.3298 L -3.42218 18.3639 L -3.45777 18.3979 L -3.49336 18.4319 L -3.52894 18.4658 L -3.56451 18.4997 L -3.60008 18.5336 L -3.63563 18.5674 L -3.67118 18.6012 L -3.70672 18.6349 L -3.74225 18.6686 L -3.77777 18.7023 L -3.81328 18.7359 L -3.84879 18.7695 L -3.88429 18.803 L -3.91978 18.8365 L -3.95526 18.8699 L -3.99073 18.9033 L -4.02619 18.9367 L -4.06165 18.9701 L -4.0971 19.0034 L -4.13254 19.0366 L -4.16797 19.0698 L -4.20339 19.103 L -4.23881 19.1362 L -4.27422 19.1693 L -4.30961 19.2023 L -4.345 19.2354 L -4.38039 19.2684 L -4.41576 19.3013 L -4.45112 19.3342 L -4.48648 19.3671 L -4.52183 19.4 L -4.55717 19.4328 L -4.5925 19.4656 L -4.63142 19.4564 L -4.67033 19.4471 L -4.70921 19.4377 L -4.74808 19.4282 L -4.78692 19.4187 L -4.82575 19.4091 L -4.86456 19.3994 L -4.90335 19.3896 L -4.94212 19.3798 L -4.98087 19.3698 L -5.0196 19.3598 L -5.05831 19.3498 L -5.097 19.3396 L -5.13567 19.3294 L -5.17432 19.3191 L -5.21294 19.3087 L -5.25155 19.2982 L -5.29014 19.2877 L -5.3287 19.2771 L -5.36724 19.2664 L -5.40577 19.2556 L -5.44427 19.2447 L -5.48274 19.2338 L -5.5212 19.2228 L -5.55964 19.2117 L -5.59805 19.2006 L -5.63644 19.1893 L -5.67481 19.178 L -5.71315 19.1666 L -5.75147 19.1552 L -5.78977 19.1436 L -5.82805 19.132 L -5.8663 19.1203 L -5.90453 19.1085 L -5.94273 19.0967 L -5.98091 19.0848 L -6.01907 19.0728 L -6.05721 19.0607 L -6.09531 19.0485 L -6.1334 19.0363 L -6.22724 19.0058 L -6.26524 18.9933 L -6.30322 18.9808 L -6.34116 18.9681 L -6.37909 18.9554 L -6.41699 18.9426 L -6.45486 18.9297 L -6.49271 18.9168 L -6.53053 18.9038 L -6.56832 18.8907 L -6.60609 18.8775 L -6.64383 18.8642 L -6.68155 18.8509 L -6.71923 18.8375 L -6.7569 18.824 L -6.79453 18.8105 L -6.83214 18.7969 L -6.86972 18.7832 L -6.90727 18.7694 L -6.94479 18.7555 L -6.98229 18.7416 L -7.01976 18.7276 L -7.0572 18.7135 L -7.09461 18.6994 L -7.132 18.6851 L -7.16936 18.6708 L -7.20668 18.6565 L -7.24398 18.642 L -7.28125 18.6275 L -7.31849 18.6129 L -7.3557 18.5982 L -7.39288 18.5835 L -7.43004 18.5686 L -7.46716 18.5537 L -7.50425 18.5388 L -7.54131 18.5237 L -7.57835 18.5086 L -7.61535 18.4934 L -7.65232 18.4781 L -7.68926 18.4628 L -7.72617 18.4474 L -7.73549 18.4001 L -7.74479 18.3528 L -7.75408 18.3054 L -7.76335 18.258 L -7.77261 18.2106 L -7.78185 18.1632 L -7.79108 18.1157 L -7.8003 18.0681 L -7.8095 18.0206 L -7.81868 17.973 L -7.82785 17.9254 L -7.83701 17.8777 L -7.84614 17.83 L -7.85527 17.7822 L -7.86437 17.7345 L -7.87346 17.6867 L -7.88254 17.6388 L -7.8916 17.5909 L -7.90064 17.543 L -7.90966 17.4951 L -7.91867 17.4471 L -7.92766 17.399 L -7.93664 17.351 L -7.9456 17.3029 L -7.95454 17.2547 L -7.96346 17.2065 L -7.97236 17.1583 L -7.98125 17.1101 L -7.99012 17.0618 L -7.99897 17.0134 L -8.0078 16.965 L -8.01661 16.9166 L -8.0254 16.8682 L -8.03418 16.8197 L -8.04293 16.7711 L -8.05167 16.7226 L -8.06039 16.6739 L -8.06908 16.6253 L -8.07776 16.5766 L -8.08642 16.5279 L -8.09505 16.4791 L -8.10367 16.4302 L -8.11226 16.3814 L -8.12084 16.3325 L -8.12939 16.2835 L -8.13792 16.2345 L -8.14643 16.1855 L -8.15492 16.1364 L -8.16339 16.0873 L -8.17183 16.0381 L -8.17183 16.0381 L -8.21657 16.0602 L -8.26129 16.0822 L -8.30598 16.1042 L -8.35066 16.1261 L -8.39531 16.148 L -8.43994 16.1699 L -8.48455 16.1917 L -8.52913 16.2135 L -8.57369 16.2352 L -8.61824 16.2569 L -8.66276 16.2785 L -8.70726 16.3001 L -8.75173 16.3217 L -8.79619 16.3432 L -8.84062 16.3647 L -8.88503 16.3861 L -8.92943 16.4076 L -8.9738 16.4289 L -9.01815 16.4502 L -9.06247 16.4715 L -9.10678 16.4928 L -9.15107 16.514 L -9.19533 16.5352 L -9.23958 16.5563 L -9.2838 16.5774 L -9.32801 16.5985 L -9.37219 16.6195 L -9.41635 16.6405 L -9.4605 16.6615 L -9.50462 16.6824 L -9.54872 16.7033 L -9.5928 16.7241 L -9.63686 16.7449 L -9.68091 16.7657 L -9.72493 16.7865 L -9.76893 16.8072 L -9.81291 16.8279 L -9.85688 16.8485 L -9.90082 16.8691 L -9.94474 16.8897 L -9.98865 16.9102 L -10.0325 16.9308 L -10.0764 16.9512 L -10.1202 16.9717 L -10.1641 16.9921 L -10.2079 17.0125 L -10.2517 17.0328 L -10.2954 17.0532 L -10.3392 17.0735 L -10.3829 17.0937 L -10.4171 17.0729 L -10.4512 17.052 L -10.4853 17.0311 L -10.5193 17.0101 L -10.5533 16.989 L -10.5873 16.9679 L -10.6212 16.9467 L -10.6551 16.9254 L -10.6889 16.9041 L -10.7227 16.8826 L -10.7564 16.8612 L -10.7901 16.8396 L -10.8238 16.818 L -10.8574 16.7963 L -10.891 16.7746 L -10.9245 16.7528 L -10.958 16.7309 L -10.9914 16.7089 L -11.0248 16.6869 L -11.0582 16.6648 L -11.0915 16.6427 L -11.1248 16.6205 L -11.158 16.5982 L -11.1911 16.5758 L -11.2243 16.5534 L -11.2574 16.5309 L -11.2904 16.5084 L -11.3234 16.4858 L -11.3563 16.4631 L -11.3892 16.4403 L -11.4221 16.4175 L -11.4549 16.3947 L -11.4877 16.3717 L -11.5204 16.3487 L -11.5531 16.3256 L -11.5857 16.3025 L -11.6183 16.2793 L -11.6508 16.256 L -11.6833 16.2327 L -11.7158 16.2093 L -11.7956 16.1513 L -11.8279 16.1277 L -11.8601 16.104 L -11.8923 16.0802 L -11.9244 16.0564 L -11.9565 16.0325 L -11.9885 16.0086 L -12.0205 15.9846 L -12.0525 15.9605 L -12.0844 15.9364 L -12.1162 15.9122 L -12.148 15.8879 L -12.1798 15.8636 L -12.2115 15.8392 L -12.2431 15.8147 L -12.2747 15.7902 L -12.3063 15.7656 L -12.3378 15.741 L -12.3693 15.7163 L -12.4007 15.6915 L -12.432 15.6667 L -12.4633 15.6418 L -12.4946 15.6168 L -12.5258 15.5918 L -12.557 15.5667 L -12.5881 15.5416 L -12.6191 15.5164 L -12.6501 15.4911 L -12.6811 15.4658 L -12.712 15.4404 L -12.7429 15.4149 L -12.7737 15.3894 L -12.8044 15.3638 L -12.8351 15.3382 L -12.8658 15.3125 L -12.8964 15.2867 L -12.9269 15.2609 L -12.9574 15.235 L -12.9879 15.2091 L -13.0182 15.1831 L -13.0486 15.157 L -13.0428 15.1091 L -13.0371 15.0613 L -13.0313 15.0134 L -13.0254 14.9654 L -13.0196 14.9175 L -13.0137 14.8695 L -13.0078 14.8214 L -13.0019 14.7734 L -12.9959 14.7253 L -12.99 14.6772 L -12.984 14.6291 L -12.9779 14.5809 L -12.9719 14.5327 L -12.9658 14.4845 L -12.9597 14.4363 L -12.9536 14.388 L -12.9474 14.3397 L -12.9413 14.2913 L -12.935 14.243 L -12.9288 14.1946 L -12.9225 14.1461 L -12.9163 14.0977 L -12.9099 14.0492 L -12.9036 14.0007 L -12.8972 13.9521 L -12.8908 13.9035 L -12.8844 13.8549 L -12.8779 13.8063 L -12.8714 13.7576 L -12.8649 13.7089 L -12.8584 13.6602 L -12.8518 13.6114 L -12.8452 13.5626 L -12.8385 13.5138 L -12.8319 13.4649 L -12.8251 13.416 L -12.8184 13.3671 L -12.8117 13.3181 L -12.8049 13.2691 L -12.798 13.2201 L -12.7912 13.171 L -12.7843 13.1219 L -12.7773 13.0728 L -12.7704 13.0236 L -12.7634 12.9744 L -12.7564 12.9252 L -12.7493 12.8759 L -12.7422 12.8266 L -12.7351 12.7773 L -12.7279 12.7279 L -12.7279 12.7279 L -12.7773 12.7351 L -12.8266 12.7422 L -12.8759 12.7493 L -12.9252 12.7564 L -12.9744 12.7634 L -13.0236 12.7704 L -13.0728 12.7773 L -13.1219 12.7843 L -13.171 12.7912 L -13.2201 12.798 L -13.2691 12.8049 L -13.3181 12.8117 L -13.3671 12.8184 L -13.416 12.8251 L -13.4649 12.8319 L -13.5138 12.8385 L -13.5626 12.8452 L -13.6114 12.8518 L -13.6602 12.8584 L -13.7089 12.8649 L -13.7576 12.8714 L -13.8063 12.8779 L -13.8549 12.8844 L -13.9035 12.8908 L -13.9521 12.8972 L -14.0007 12.9036 L -14.0492 12.9099 L -14.0977 12.9163 L -14.1461 12.9225 L -14.1946 12.9288 L -14.243 12.935 L -14.2913 12.9413 L -14.3397 12.9474 L -14.388 12.9536 L -14.4363 12.9597 L -14.4845 12.9658 L -14.5327 12.9719 L -14.5809 12.9779 L -14.6291 12.984 L -14.6772 12.99 L -14.7253 12.9959 L -14.7734 13.0019 L -14.8214 13.0078 L -14.8695 13.0137 L -14.9175 13.0196 L -14.9654 13.0254 L -15.0134 13.0313 L -15.0613 13.0371 L -15.1091 13.0428 L -15.157 13.0486 L -15.1831 13.0182 L -15.2091 12.9879 L -15.235 12.9574 L -15.2609 12.9269 L -15.2867 12.8964 L -15.3125 12.8658 L -15.3382 12.8351 L -15.3638 12.8044 L -15.3894 12.7737 L -15.4149 12.7429 L -15.4404 12.712 L -15.4658 12.6811 L -15.4911 12.6501 L -15.5164 12.6191 L -15.5416 12.5881 L -15.5667 12.557 L -15.5918 12.5258 L -15.6168 12.4946 L -15.6418 12.4633 L -15.6667 12.432 L -15.6915 12.4007 L -15.7163 12.3693 L -15.741 12.3378 L -15.7656 12.3063 L -15.7902 12.2747 L -15.8147 12.2431 L -15.8392 12.2115 L -15.8636 12.1798 L -15.8879 12.148 L -15.9122 12.1162 L -15.9364 12.0844 L -15.9605 12.0525 L -15.9846 12.0205 L -16.0086 11.9885 L -16.0325 11.9565 L -16.0564 11.9244 L -16.0802 11.8923 L -16.104 11.8601 L -16.1277 11.8279 L -16.1513 11.7956 L -16.2093 11.7158 L -16.2327 11.6833 L -16.256 11.6508 L -16.2793 11.6183 L -16.3025 11.5857 L -16.3256 11.5531 L -16.3487 11.5204 L -16.3717 11.4877 L -16.3947 11.4549 L -16.4175 11.4221 L -16.4403 11.3892 L -16.4631 11.3563 L -16.4858 11.3234 L -16.5084 11.2904 L -16.5309 11.2574 L -16.5534 11.2243 L -16.5758 11.1911 L -16.5982 11.158 L -16.6205 11.1248 L -16.6427 11.0915 L -16.6648 11.0582 L -16.6869 11.0248 L -16.7089 10.9914 L -16.7309 10.958 L -16.7528 10.9245 L -16.7746 10.891 L -16.7963 10.8574 L -16.818 10.8238 L -16.8396 10.7901 L -16.8612 10.7564 L -16.8826 10.7227 L -16.9041 10.6889 L -16.9254 10.6551 L -16.9467 10.6212 L -16.9679 10.5873 L -16.989 10.5533 L -17.0101 10.5193 L -17.0311 10.4853 L -17.052 10.4512 L -17.0729 10.4171 L -17.0937 10.3829 L -17.0735 10.3392 L -17.0532 10.2954 L -17.0328 10.2517 L -17.0125 10.2079 L -16.9921 10.1641 L -16.9717 10.1202 L -16.9512 10.0764 L -16.9308 10.0325 L -16.9102 9.98865 L -16.8897 9.94474 L -16.8691 9.90082 L -16.8485 9.85688 L -16.8279 9.81291 L -16.8072 9.76893 L -16.7865 9.72493 L -16.7657 9.68091 L -16.7449 9.63686 L -16.7241 9.5928 L -16.7033 9.54872 L -16.6824 9.50462 L -16.6615 9.4605 L -16.6405 9.41635 L -16.6195 9.37219 L -16.5985 9.32801 L -16.5774 9.2838 L -16.5563 9.23958 L -16.5352 9.19533 L -16.514 9.15107 L -16.4928 9.10678 L -16.4715 9.06247 L -16.4502 9.01815 L -16.4289 8.9738 L -16.4076 8.92943 L -16.3861 8.88503 L -16.3647 8.84062 L -16.3432 8.79619 L -16.3217 8.75173 L -16.3001 8.70726 L -16.2785 8.66276 L -16.2569 8.61824 L -16.2352 8.57369 L -16.2135 8.52913 L -16.1917 8.48455 L -16.1699 8.43994 L -16.148 8.39531 L -16.1261 8.35066 L -16.1042 8.30598 L -16.0822 8.26129 L -16.0602 8.21657 L -16.0381 8.17183 L -16.0381 8.17183 L -16.0873 8.16339 L -16.1364 8.15492 L -16.1855 8.14643 L -16.2345 8.13792 L -16.2835 8.12939 L -16.3325 8.12084 L -16.3814 8.11226 L -16.4302 8.10367 L -16.4791 8.09505 L -16.5279 8.08642 L -16.5766 8.07776 L -16.6253 8.06908 L -16.6739 8.06039 L -16.7226 8.05167 L -16.7711 8.04293 L -16.8197 8.03418 L -16.8682 8.0254 L -16.9166 8.01661 L -16.965 8.0078 L -17.0134 7.99897 L -17.0618 7.99012 L -17.1101 7.98125 L -17.1583 7.97236 L -17.2065 7.96346 L -17.2547 7.95454 L -17.3029 7.9456 L -17.351 7.93664 L -17.399 7.92766 L -17.4471 7.91867 L -17.4951 7.90966 L -17.543 7.90064 L -17.5909 7.8916 L -17.6388 7.88254 L -17.6867 7.87346 L -17.7345 7.86437 L -17.7822 7.85527 L -17.83 7.84614 L -17.8777 7.83701 L -17.9254 7.82785 L -17.973 7.81868 L -18.0206 7.8095 L -18.0681 7.8003 L -18.1157 7.79108 L -18.1632 7.78185 L -18.2106 7.77261 L -18.258 7.76335 L -18.3054 7.75408 L -18.3528 7.74479 L -18.4001 7.73549 L -18.4474 7.72617 L -18.4628 7.68926 L -18.4781 7.65232 L -18.4934 7.61535 L -18.5086 7.57835 L -18.5237 7.54131 L -18.5388 7.50425 L -18.5537 7.46716 L -18.5686 7.43004 L -18.5835 7.39288 L -18.5982 7.3557 L -18.6129 7.31849 L -18.6275 7.28125 L -18.642 7.24398 L -18.6565 7.20668 L -18.6708 7.16936 L -18.6851 7.132 L -18.6994 7.09461 L -18.7135 7.0572 L -18.7276 7.01976 L -18.7416 6.98229 L -18.7555 6.94479 L -18.7694 6.90727 L -18.7832 6.86972 L -18.7969 6.83214 L -18.8105 6.79453 L -18.824 6.7569 L -18.8375 6.71923 L -18.8509 6.68155 L -18.8642 6.64383 L -18.8775 6.60609 L -18.8907 6.56832 L -18.9038 6.53053 L -18.9168 6.49271 L -18.9297 6.45486 L -18.9426 6.41699 L -18.9554 6.37909 L -18.9681 6.34116 L -18.9808 6.30322 L -18.9933 6.26524 L -19.0058 6.22724 L -19.0363 6.1334 L -19.0485 6.09531 L -19.0607 6.05721 L -19.0728 6.01907 L -19.0848 5.98091 L -19.0967 5.94273 L -19.1085 5.90453 L -19.1203 5.8663 L -19.132 5.82805 L -19.1436 5.78977 L -19.1552 5.75147 L -19.1666 5.71315 L -19.178 5.67481 L -19.1893 5.63644 L -19.2006 5.59805 L -19.2117 5.55964 L -19.2228 5.5212 L -19.2338 5.48274 L -19.2447 5.44427 L -19.2556 5.40577 L -19.2664 5.36724 L -19.2771 5.3287 L -19.2877 5.29014 L -19.2982 5.25155 L -19.3087 5.21294 L -19.3191 5.17432 L -19.3294 5.13567 L -19.3396 5.097 L -19.3498 5.05831 L -19.3598 5.0196 L -19.3698 4.98087 L -19.3798 4.94212 L -19.3896 4.90335 L -19.3994 4.86456 L -19.4091 4.82575 L -19.4187 4.78692 L -19.4282 4.74808 L -19.4377 4.70921 L -19.4471 4.67033 L -19.4564 4.63142 L -19.4656 4.5925 L -19.4328 4.55717 L -19.4 4.52183 L -19.3671 4.48648 L -19.3342 4.45112 L -19.3013 4.41576 L -19.2684 4.38039 L -19.2354 4.345 L -19.2023 4.30961 L -19.1693 4.27422 L -19.1362 4.23881 L -19.103 4.20339 L -19.0698 4.16797 L -19.0366 4.13254 L -19.0034 4.0971 L -18.9701 4.06165 L -18.9367 4.02619 L -18.9033 3.99073 L -18.8699 3.95526 L -18.8365 3.91978 L -18.803 3.88429 L -18.7695 3.84879 L -18.7359 3.81328 L -18.7023 3.77777 L -18.6686 3.74225 L -18.6349 3.70672 L -18.6012 3.67118 L -18.5674 3.63563 L -18.5336 3.60008 L -18.4997 3.56451 L -18.4658 3.52894 L -18.4319 3.49336 L -18.3979 3.45777 L -18.3639 3.42218 L -18.3298 3.38657 L -18.2957 3.35096 L -18.2615 3.31534 L -18.2273 3.27971 L -18.193 3.24408 L -18.1587 3.20843 L -18.1244 3.17278 L -18.09 3.13712 L -18.0556 3.10145 L -18.0211 3.06577 L -17.9866 3.03009 L -17.952 2.9944 L -17.9174 2.9587 L -17.8827 2.92299 L -17.848 2.88727 L -17.8132 2.85155 L -17.7784 2.81582 L -17.7784 2.81582 L -17.8225 2.7926 L -17.8666 2.76936 L -17.9107 2.74613 L -17.9547 2.72288 L -17.9987 2.69962 L -18.0426 2.67636 L -18.0864 2.6531 L -18.1303 2.62982 L -18.174 2.60654 L -18.2178 2.58325 L -18.2614 2.55996 L -18.3051 2.53666 L -18.3487 2.51335 L -18.3922 2.49004 L -18.4357 2.46672 L -18.4792 2.44339 L -18.5226 2.42006 L -18.5659 2.39672 L -18.6093 2.37338 L -18.6525 2.35003 L -18.6958 2.32668 L -18.739 2.30332 L -18.7821 2.27995 L -18.8252 2.25658 L -18.8683 2.23321 L -18.9113 2.20983 L -18.9543 2.18645 L -18.9973 2.16306 L -19.0402 2.13966 L -19.083 2.11627 L -19.1258 2.09286 L -19.1686 2.06946 L -19.2114 2.04605 L -19.2541 2.02263 L -19.2967 1.99921 L -19.3393 1.97579 L -19.3819 1.95236 L -19.4245 1.92893 L -19.467 1.90549 L -19.5094 1.88205 L -19.5519 1.85861 L -19.5942 1.83516 L -19.6366 1.81171 L -19.6789 1.78826 L -19.7212 1.7648 L -19.7634 1.74134 L -19.8056 1.71788 L -19.8478 1.69441 L -19.8899 1.67094 L -19.932 1.64747 L -19.9353 1.6076 L -19.9385 1.56773 L -19.9416 1.52785 L -19.9446 1.48796 L -19.9475 1.44807 L -19.9504 1.40817 L -19.9531 1.36827 L -19.9558 1.32836 L -19.9585 1.28844 L -19.961 1.24852 L -19.9634 1.2086 L -19.9658 1.16867 L -19.9681 1.12874 L -19.9703 1.0888 L -19.9725 1.04885 L -19.9745 1.00891 L -19.9765 0.968957 L -19.9784 0.929002 L -19.9802 0.889043 L -19.982 0.849081 L -19.9836 0.809115 L -19.9852 0.769146 L -19.9867 0.729175 L -19.9881 0.6892 L -19.9895 0.649222 L -19.9907 0.609242 L -19.9919 0.569259 L -19.993 0.529274 L -19.994 0.489287 L -19.995 0.449298 L -19.9958 0.409308 L -19.9966 0.369315 L -19.9973 0.329321 L -19.9979 0.289326 L -19.9984 0.24933 L -19.9989 0.209332 L -19.9993 0.169334 L -19.9996 0.129335 L -19.9998 0.0893358 L -19.9999 0.0493361 L -19.9999 -0.0493361 L -19.9998 -0.0893358 L -19.9996 -0.129335 L -19.9993 -0.169334 L -19.9989 -0.209332 L -19.9984 -0.24933 L -19.9979 -0.289326 L -19.9973 -0.329321 L -19.9966 -0.369315 L -19.9958 -0.409308 L -19.995 -0.449298 L -19.994 -0.489287 L -19.993 -0.529274 L -19.9919 -0.569259 L -19.9907 -0.609242 L -19.9895 -0.649222 L -19.9881 -0.6892 L -19.9867 -0.729175 L -19.9852 -0.769146 L -19.9836 -0.809115 L -19.982 -0.849081 L -19.9802 -0.889043 L -19.9784 -0.929002 L -19.9765 -0.968957 L -19.9745 -1.00891 L -19.9725 -1.04885 L -19.9703 -1.0888 L -19.9681 -1.12874 L -19.9658 -1.16867 L -19.9634 -1.2086 L -19.961 -1.24852 L -19.9585 -1.28844 L -19.9558 -1.32836 L -19.9531 -1.36827 L -19.9504 -1.40817 L -19.9475 -1.44807 L -19.9446 -1.48796 L -19.9416 -1.52785 L -19.9385 -1.56773 L -19.9353 -1.6076 L -19.932 -1.64747 L -19.8899 -1.67094 L -19.8478 -1.69441 L -19.8056 -1.71788 L -19.7634 -1.74134 L -19.7212 -1.7648 L -19.6789 -1.78826 L -19.6366 -1.81171 L -19.5942 -1.83516 L -19.5519 -1.85861 L -19.5094 -1.88205 L -19.467 -1.90549 L -19.4245 -1.92893 L -19.3819 -1.95236 L -19.3393 -1.97579 L -19.2967 -1.99921 L -19.2541 -2.02263 L -19.2114 -2.04605 L -19.1686 -2.06946 L -19.1258 -2.09286 L -19.083 -2.11627 L -19.0402 -2.13966 L -18.9973 -2.16306 L -18.9543 -2.18645 L -18.9113 -2.20983 L -18.8683 -2.23321 L -18.8252 -2.25658 L -18.7821 -2.27995 L -18.739 -2.30332 L -18.6958 -2.32668 L -18.6525 -2.35003 L -18.6093 -2.37338 L -18.5659 -2.39672 L -18.5226 -2.42006 L -18.4792 -2.44339 L -18.4357 -2.46672 L -18.3922 -2.49004 L -18.3487 -2.51335 L -18.3051 -2.53666 L -18.2614 -2.55996 L -18.2178 -2.58325 L -18.174 -2.60654 L -18.1303 -2.62982 L -18.0864 -2.6531 L -18.0426 -2.67636 L -17.9987 -2.69962 L -17.9547 -2.72288 L -17.9107 -2.74613 L -17.8666 -2.76936 L -17.8225 -2.7926 L -17.7784 -2.81582 L -17.7784 -2.81582 L -17.8132 -2.85155 L -17.848 -2.88727 L -17.8827 -2.92299 L -17.9174 -2.9587 L -17.952 -2.9944 L -17.9866 -3.03009 L -18.0211 -3.06577 L -18.0556 -3.10145 L -18.09 -3.13712 L -18.1244 -3.17278 L -18.1587 -3.20843 L -18.193 -3.24408 L -18.2273 -3.27971 L -18.2615 -3.31534 L -18.2957 -3.35096 L -18.3298 -3.38657 L -18.3639 -3.42218 L -18.3979 -3.45777 L -18.4319 -3.49336 L -18.4658 -3.52894 L -18.4997 -3.56451 L -18.5336 -3.60008 L -18.5674 -3.63563 L -18.6012 -3.67118 L -18.6349 -3.70672 L -18.6686 -3.74225 L -18.7023 -3.77777 L -18.7359 -3.81328 L -18.7695 -3.84879 L -18.803 -3.88429 L -18.8365 -3.91978 L -18.8699 -3.95526 L -18.9033 -3.99073 L -18.9367 -4.02619 L -18.9701 -4.06165 L -19.0034 -4.0971 L -19.0366 -4.13254 L -19.0698 -4.16797 L -19.103 -4.20339 L -19.1362 -4.23881 L -19.1693 -4.27422 L -19.2023 -4.30961 L -19.2354 -4.345 L -19.2684 -4.38039 L -19.3013 -4.41576 L -19.3342 -4.45112 L -19.3671 -4.48648 L -19.4 -4.52183 L -19.4328 -4.55717 L -19.4656 -4.5925 L -19.4564 -4.63142 L -19.4471 -4.67033 L -19.4377 -4.70921 L -19.4282 -4.74808 L -19.4187 -4.78692 L -19.4091 -4.82575 L -19.3994 -4.86456 L -19.3896 -4.90335 L -19.3798 -4.94212 L -19.3698 -4.98087 L -19.3598 -5.0196 L -19.3498 -5.05831 L -19.3396 -5.097 L -19.3294 -5.13567 L -19.3191 -5.17432 L -19.3087 -5.21294 L -19.2982 -5.25155 L -19.2877 -5.29014 L -19.2771 -5.3287 L -19.2664 -5.36724 L -19.2556 -5.40577 L -19.2447 -5.44427 L -19.2338 -5.48274 L -19.2228 -5.5212 L -19.2117 -5.55964 L -19.2006 -5.59805 L -19.1893 -5.63644 L -19.178 -5.67481 L -19.1666 -5.71315 L -19.1552 -5.75147 L -19.1436 -5.78977 L -19.132 -5.82805 L -19.1203 -5.8663 L -19.1085 -5.90453 L -19.0967 -5.94273 L -19.0848 -5.98091 L -19.0728 -6.01907 L -19.0607 -6.05721 L -19.0485 -6.09531 L -19.0363 -6.1334 L -19.0058 -6.22724 L -18.9933 -6.26524 L -18.9808 -6.30322 L -18.9681 -6.34116 L -18.9554 -6.37909 L -18.9426 -6.41699 L -18.9297 -6.45486 L -18.9168 -6.49271 L -18.9038 -6.53053 L -18.8907 -6.56832 L -18.8775 -6.60609 L -18.8642 -6.64383 L -18.8509 -6.68155 L -18.8375 -6.71923 L -18.824 -6.7569 L -18.8105 -6.79453 L -18.7969 -6.83214 L -18.7832 -6.86972 L -18.7694 -6.90727 L -18.7555 -6.94479 L -18.7416 -6.98229 L -18.7276 -7.01976 L -18.7135 -7.0572 L -18.6994 -7.09461 L -18.6851 -7.132 L -18.6708 -7.16936 L -18.6565 -7.20668 L -18.642 -7.24398 L -18.6275 -7.28125 L -18.6129 -7.31849 L -18.5982 -7.3557 L -18.5835 -7.39288 L -18.5686 -7.43004 L -18.5537 -7.46716 L -18.5388 -7.50425 L -18.5237 -7.54131 L -18.5086 -7.57835 L -18.4934 -7.61535 L -18.4781 -7.65232 L -18.4628 -7.68926 L -18.4474 -7.72617 L -18.4001 -7.73549 L -18.3528 -7.74479 L -18.3054 -7.75408 L -18.258 -7.76335 L -18.2106 -7.77261 L -18.1632 -7.78185 L -18.1157 -7.79108 L -18.0681 -7.8003 L -18.0206 -7.8095 L -17.973 -7.81868 L -17.9254 -7.82785 L -17.8777 -7.83701 L -17.83 -7.84614 L -17.7822 -7.85527 L -17.7345 -7.86437 L -17.6867 -7.87346 L -17.6388 -7.88254 L -17.5909 -7.8916 L -17.543 -7.90064 L -17.4951 -7.90966 L -17.4471 -7.91867 L -17.399 -7.92766 L -17.351 -7.93664 L -17.3029 -7.9456 L -17.2547 -7.95454 L -17.2065 -7.96346 L -17.1583 -7.97236 L -17.1101 -7.98125 L -17.0618 -7.99012 L -17.0134 -7.99897 L -16.965 -8.0078 L -16.9166 -8.01661 L -16.8682 -8.0254 L -16.8197 -8.03418 L -16.7711 -8.04293 L -16.7226 -8.05167 L -16.6739 -8.06039 L -16.6253 -8.06908 L -16.5766 -8.07776 L -16.5279 -8.08642 L -16.4791 -8.09505 L -16.4302 -8.10367 L -16.3814 -8.11226 L -16.3325 -8.12084 L -16.2835 -8.12939 L -16.2345 -8.13792 L -16.1855 -8.14643 L -16.1364 -8.15492 L -16.0873 -8.16339 L -16.0381 -8.17183 L -16.0381 -8.17183 L -16.0602 -8.21657 L -16.0822 -8.26129 L -16.1042 -8.30598 L -16.1261 -8.35066 L -16.148 -8.39531 L -16.1699 -8.43994 L -16.1917 -8.48455 L -16.2135 -8.52913 L -16.2352 -8.57369 L -16.2569 -8.61824 L -16.2785 -8.66276 L -16.3001 -8.70726 L -16.3217 -8.75173 L -16.3432 -8.79619 L -16.3647 -8.84062 L -16.3861 -8.88503 L -16.4076 -8.92943 L -16.4289 -8.9738 L -16.4502 -9.01815 L -16.4715 -9.06247 L -16.4928 -9.10678 L -16.514 -9.15107 L -16.5352 -9.19533 L -16.5563 -9.23958 L -16.5774 -9.2838 L -16.5985 -9.32801 L -16.6195 -9.37219 L -16.6405 -9.41635 L -16.6615 -9.4605 L -16.6824 -9.50462 L -16.7033 -9.54872 L -16.7241 -9.5928 L -16.7449 -9.63686 L -16.7657 -9.68091 L -16.7865 -9.72493 L -16.8072 -9.76893 L -16.8279 -9.81291 L -16.8485 -9.85688 L -16.8691 -9.90082 L -16.8897 -9.94474 L -16.9102 -9.98865 L -16.9308 -10.0325 L -16.9512 -10.0764 L -16.9717 -10.1202 L -16.9921 -10.1641 L -17.0125 -10.2079 L -17.0328 -10.2517 L -17.0532 -10.2954 L -17.0735 -10.3392 L -17.0937 -10.3829 L -17.0729 -10.4171 L -17.052 -10.4512 L -17.0311 -10.4853 L -17.0101 -10.5193 L -16.989 -10.5533 L -16.9679 -10.5873 L -16.9467 -10.6212 L -16.9254 -10.6551 L -16.9041 -10.6889 L -16.8826 -10.7227 L -16.8612 -10.7564 L -16.8396 -10.7901 L -16.818 -10.8238 L -16.7963 -10.8574 L -16.7746 -10.891 L -16.7528 -10.9245 L -16.7309 -10.958 L -16.7089 -10.9914 L -16.6869 -11.0248 L -16.6648 -11.0582 L -16.6427 -11.0915 L -16.6205 -11.1248 L -16.5982 -11.158 L -16.5758 -11.1911 L -16.5534 -11.2243 L -16.5309 -11.2574 L -16.5084 -11.2904 L -16.4858 -11.3234 L -16.4631 -11.3563 L -16.4403 -11.3892 L -16.4175 -11.4221 L -16.3947 -11.4549 L -16.3717 -11.4877 L -16.3487 -11.5204 L -16.3256 -11.5531 L -16.3025 -11.5857 L -16.2793 -11.6183 L -16.256 -11.6508 L -16.2327 -11.6833 L -16.2093 -11.7158 L -16.1513 -11.7956 L -16.1277 -11.8279 L -16.104 -11.8601 L -16.0802 -11.8923 L -16.0564 -11.9244 L -16.0325 -11.9565 L -16.0086 -11.9885 L -15.9846 -12.0205 L -15.9605 -12.0525 L -15.9364 -12.0844 L -15.9122 -12.1162 L -15.8879 -12.148 L -15.8636 -12.1798 L -15.8392 -12.2115 L -15.8147 -12.2431 L -15.7902 -12.2747 L -15.7656 -12.3063 L -15.741 -12.3378 L -15.7163 -12.3693 L -15.6915 -12.4007 L -15.6667 -12.432 L -15.6418 -12.4633 L -15.6168 -12.4946 L -15.5918 -12.5258 L -15.5667 -12.557 L -15.5416 -12.5881 L -15.5164 -12.6191 L -15.4911 -12.6501 L -15.4658 -12.6811 L -15.4404 -12.712 L -15.4149 -12.7429 L -15.3894 -12.7737 L -15.3638 -12.8044 L -15.3382 -12.8351 L -15.3125 -12.8658 L -15.2867 -12.8964 L -15.2609 -12.9269 L -15.235 -12.9574 L -15.2091 -12.9879 L -15.1831 -13.0182 L -15.157 -13.0486 L -15.1091 -13.0428 L -15.0613 -13.0371 L -15.0134 -13.0313 L -14.9654 -13.0254 L -14.9175 -13.0196 L -14.8695 -13.0137 L -14.8214 -13.0078 L -14.7734 -13.0019 L -14.7253 -12.9959 L -14.6772 -12.99 L -14.6291 -12.984 L -14.5809 -12.9779 L -14.5327 -12.9719 L -14.4845 -12.9658 L -14.4363 -12.9597 L -14.388 -12.9536 L -14.3397 -12.9474 L -14.2913 -12.9413 L -14.243 -12.935 L -14.1946 -12.9288 L -14.1461 -12.9225 L -14.0977 -12.9163 L -14.0492 -12.9099 L -14.0007 -12.9036 L -13.9521 -12.8972 L -13.9035 -12.8908 L -13.8549 -12.8844 L -13.8063 -12.8779 L -13.7576 -12.8714 L -13.7089 -12.8649 L -13.6602 -12.8584 L -13.6114 -12.8518 L -13.5626 -12.8452 L -13.5138 -12.8385 L -13.4649 -12.8319 L -13.416 -12.8251 L -13.3671 -12.8184 L -13.3181 -12.8117 L -13.2691 -12.8049 L -13.2201 -12.798 L -13.171 -12.7912 L -13.1219 -12.7843 L -13.0728 -12.7773 L -13.0236 -12.7704 L -12.9744 -12.7634 L -12.9252 -12.7564 L -12.8759 -12.7493 L -12.8266 -12.7422 L -12.7773 -12.7351 L -12.7279 -12.7279 L -12.7279 -12.7279 L -12.7351 -12.7773 L -12.7422 -12.8266 L -12.7493 -12.8759 L -12.7564 -12.9252 L -12.7634 -12.9744 L -12.7704 -13.0236 L -12.7773 -13.0728 L -12.7843 -13.1219 L -12.7912 -13.171 L -12.798 -13.2201 L -12.8049 -13.2691 L -12.8117 -13.3181 L -12.8184 -13.3671 L -12.8251 -13.416 L -12.8319 -13.4649 L -12.8385 -13.5138 L -12.8452 -13.5626 L -12.8518 -13.6114 L -12.8584 -13.6602 L -12.8649 -13.7089 L -12.8714 -13.7576 L -12.8779 -13.8063 L -12.8844 -13.8549 L -12.8908 -13.9035 L -12.8972 -13.9521 L -12.9036 -14.0007 L -12.9099 -14.0492 L -12.9163 -14.0977 L -12.9225 -14.1461 L -12.9288 -14.1946 L -12.935 -14.243 L -12.9413 -14.2913 L -12.9474 -14.3397 L -12.9536 -14.388 L -12.9597 -14.4363 L -12.9658 -14.4845 L -12.9719 -14.5327 L -12.9779 -14.5809 L -12.984 -14.6291 L -12.99 -14.6772 L -12.9959 -14.7253 L -13.0019 -14.7734 L -13.0078 -14.8214 L -13.0137 -14.8695 L -13.0196 -14.9175 L -13.0254 -14.9654 L -13.0313 -15.0134 L -13.0371 -15.0613 L -13.0428 -15.1091 L -13.0486 -15.157 L -13.0182 -15.1831 L -12.9879 -15.2091 L -12.9574 -15.235 L -12.9269 -15.2609 L -12.8964 -15.2867 L -12.8658 -15.3125 L -12.8351 -15.3382 L -12.8044 -15.3638 L -12.7737 -15.3894 L -12.7429 -15.4149 L -12.712 -15.4404 L -12.6811 -15.4658 L -12.6501 -15.4911 L -12.6191 -15.5164 L -12.5881 -15.5416 L -12.557 -15.5667 L -12.5258 -15.5918 L -12.4946 -15.6168 L -12.4633 -15.6418 L -12.432 -15.6667 L -12.4007 -15.6915 L -12.3693 -15.7163 L -12.3378 -15.741 L -12.3063 -15.7656 L -12.2747 -15.7902 L -12.2431 -15.8147 L -12.2115 -15.8392 L -12.1798 -15.8636 L -12.148 -15.8879 L -12.1162 -15.9122 L -12.0844 -15.9364 L -12.0525 -15.9605 L -12.0205 -15.9846 L -11.9885 -16.0086 L -11.9565 -16.0325 L -11.9244 -16.0564 L -11.8923 -16.0802 L -11.8601 -16.104 L -11.8279 -16.1277 L -11.7956 -16.1513 L -11.7158 -16.2093 L -11.6833 -16.2327 L -11.6508 -16.256 L -11.6183 -16.2793 L -11.5857 -16.3025 L -11.5531 -16.3256 L -11.5204 -16.3487 L -11.4877 -16.3717 L -11.4549 -16.3947 L -11.4221 -16.4175 L -11.3892 -16.4403 L -11.3563 -16.4631 L -11.3234 -16.4858 L -11.2904 -16.5084 L -11.2574 -16.5309 L -11.2243 -16.5534 L -11.1911 -16.5758 L -11.158 -16.5982 L -11.1248 -16.6205 L -11.0915 -16.6427 L -11.0582 -16.6648 L -11.0248 -16.6869 L -10.9914 -16.7089 L -10.958 -16.7309 L -10.9245 -16.7528 L -10.891 -16.7746 L -10.8574 -16.7963 L -10.8238 -16.818 L -10.7901 -16.8396 L -10.7564 -16.8612 L -10.7227 -16.8826 L -10.6889 -16.9041 L -10.6551 -16.9254 L -10.6212 -16.9467 L -10.5873 -16.9679 L -10.5533 -16.989 L -10.5193 -17.0101 L -10.4853 -17.0311 L -10.4512 -17.052 L -10.4171 -17.0729 L -10.3829 -17.0937 L -10.3392 -17.0735 L -10.2954 -17.0532 L -10.2517 -17.0328 L -10.2079 -17.0125 L -10.1641 -16.9921 L -10.1202 -16.9717 L -10.0764 -16.9512 L -10.0325 -16.9308 L -9.98865 -16.9102 L -9.94474 -16.8897 L -9.90082 -16.8691 L -9.85688 -16.8485 L -9.81291 -16.8279 L -9.76893 -16.8072 L -9.72493 -16.7865 L -9.68091 -16.7657 L -9.63686 -16.7449 L -9.5928 -16.7241 L -9.54872 -16.7033 L -9.50462 -16.6824 L -9.4605 -16.6615 L -9.41635 -16.6405 L -9.37219 -16.6195 L -9.32801 -16.5985 L -9.2838 -16.5774 L -9.23958 -16.5563 L -9.19533 -16.5352 L -9.15107 -16.514 L -9.10678 -16.4928 L -9.06247 -16.4715 L -9.01815 -16.4502 L -8.9738 -16.4289 L -8.92943 -16.4076 L -8.88503 -16.3861 L -8.84062 -16.3647 L -8.79619 -16.3432 L -8.75173 -16.3217 L -8.70726 -16.3001 L -8.66276 -16.2785 L -8.61824 -16.2569 L -8.57369 -16.2352 L -8.52913 -16.2135 L -8.48455 -16.1917 L -8.43994 -16.1699 L -8.39531 -16.148 L -8.35066 -16.1261 L -8.30598 -16.1042 L -8.26129 -16.0822 L -8.21657 -16.0602 L -8.17183 -16.0381 L -8.17183 -16.0381 L -8.16339 -16.0873 L -8.15492 -16.1364 L -8.14643 -16.1855 L -8.13792 -16.2345 L -8.12939 -16.2835 L -8.12084 -16.3325 L -8.11226 -16.3814 L -8.10367 -16.4302 L -8.09505 -16.4791 L -8.08642 -16.5279 L -8.07776 -16.5766 L -8.06908 -16.6253 L -8.06039 -16.6739 L -8.05167 -16.7226 L -8.04293 -16.7711 L -8.03418 -16.8197 L -8.0254 -16.8682 L -8.01661 -16.9166 L -8.0078 -16.965 L -7.99897 -17.0134 L -7.99012 -17.0618 L -7.98125 -17.1101 L -7.97236 -17.1583 L -7.96346 -17.2065 L -7.95454 -17.2547 L -7.9456 -17.3029 L -7.93664 -17.351 L -7.92766 -17.399 L -7.91867 -17.4471 L -7.90966 -17.4951 L -7.90064 -17.543 L -7.8916 -17.5909 L -7.88254 -17.6388 L -7.87346 -17.6867 L -7.86437 -17.7345 L -7.85527 -17.7822 L -7.84614 -17.83 L -7.83701 -17.8777 L -7.82785 -17.9254 L -7.81868 -17.973 L -7.8095 -18.0206 L -7.8003 -18.0681 L -7.79108 -18.1157 L -7.78185 -18.1632 L -7.77261 -18.2106 L -7.76335 -18.258 L -7.75408 -18.3054 L -7.74479 -18.3528 L -7.73549 -18.4001 L -7.72617 -18.4474 L -7.68926 -18.4628 L -7.65232 -18.4781 L -7.61535 -18.4934 L -7.57835 -18.5086 L -7.54131 -18.5237 L -7.50425 -18.5388 L -7.46716 -18.5537 L -7.43004 -18.5686 L -7.39288 -18.5835 L -7.3557 -18.5982 L -7.31849 -18.6129 L -7.28125 -18.6275 L -7.24398 -18.642 L -7.20668 -18.6565 L -7.16936 -18.6708 L -7.132 -18.6851 L -7.09461 -18.6994 L -7.0572 -18.7135 L -7.01976 -18.7276 L -6.98229 -18.7416 L -6.94479 -18.7555 L -6.90727 -18.7694 L -6.86972 -18.7832 L -6.83214 -18.7969 L -6.79453 -18.8105 L -6.7569 -18.824 L -6.71923 -18.8375 L -6.68155 -18.8509 L -6.64383 -18.8642 L -6.60609 -18.8775 L -6.56832 -18.8907 L -6.53053 -18.9038 L -6.49271 -18.9168 L -6.45486 -18.9297 L -6.41699 -18.9426 L -6.37909 -18.9554 L -6.34116 -18.9681 L -6.30322 -18.9808 L -6.26524 -18.9933 L -6.22724 -19.0058 L -6.1334 -19.0363 L -6.09531 -19.0485 L -6.05721 -19.0607 L -6.01907 -19.0728 L -5.98091 -19.0848 L -5.94273 -19.0967 L -5.90453 -19.1085 L -5.8663 -19.1203 L -5.82805 -19.132 L -5.78977 -19.1436 L -5.75147 -19.1552 L -5.71315 -19.1666 L -5.67481 -19.178 L -5.63644 -19.1893 L -5.59805 -19.2006 L -5.55964 -19.2117 L -5.5212 -19.2228 L -5.48274 -19.2338 L -5.44427 -19.2447 L -5.40577 -19.2556 L -5.36724 -19.2664 L -5.3287 -19.2771 L -5.29014 -19.2877 L -5.25155 -19.2982 L -5.21294 -19.3087 L -5.17432 -19.3191 L -5.13567 -19.3294 L -5.097 -19.3396 L -5.05831 -19.3498 L -5.0196 -19.3598 L -4.98087 -19.3698 L -4.94212 -19.3798 L -4.90335 -19.3896 L -4.86456 -19.3994 L -4.82575 -19.4091 L -4.78692 -19.4187 L -4.74808 -19.4282 L -4.70921 -19.4377 L -4.67033 -19.4471 L -4.63142 -19.4564 L -4.5925 -19.4656 L -4.55717 -19.4328 L -4.52183 -19.4 L -4.48648 -19.3671 L -4.45112 -19.3342 L -4.41576 -19.3013 L -4.38039 -19.2684 L -4.345 -19.2354 L -4.30961 -19.2023 L -4.27422 -19.1693 L -4.23881 -19.1362 L -4.20339 -19.103 L -4.16797 -19.0698 L -4.13254 -19.0366 L -4.0971 -19.0034 L -4.06165 -18.9701 L -4.02619 -18.9367 L -3.99073 -18.9033 L -3.95526 -18.8699 L -3.91978 -18.8365 L -3.88429 -18.803 L -3.84879 -18.7695 L -3.81328 -18.7359 L -3.77777 -18.7023 L -3.74225 -18.6686 L -3.70672 -18.6349 L -3.67118 -18.6012 L -3.63563 -18.5674 L -3.60008 -18.5336 L -3.56451 -18.4997 L -3.52894 -18.4658 L -3.49336 -18.4319 L -3.45777 -18.3979 L -3.42218 -18.3639 L -3.38657 -18.3298 L -3.35096 -18.2957 L -3.31534 -18.2615 L -3.27971 -18.2273 L -3.24408 -18.193 L -3.20843 -18.1587 L -3.17278 -18.1244 L -3.13712 -18.09 L -3.10145 -18.0556 L -3.06577 -18.0211 L -3.03009 -17.9866 L -2.9944 -17.952 L -2.9587 -17.9174 L -2.92299 -17.8827 L -2.88727 -17.848 L -2.85155 -17.8132 L -2.81582 -17.7784 L -2.81582 -17.7784 L -2.7926 -17.8225 L -2.76936 -17.8666 L -2.74613 -17.9107 L -2.72288 -17.9547 L -2.69962 -17.9987 L -2.67636 -18.0426 L -2.6531 -18.0864 L -2.62982 -18.1303 L -2.60654 -18.174 L -2.58325 -18.2178 L -2.55996 -18.2614 L -2.53666 -18.3051 L -2.51335 -18.3487 L -2.49004 -18.3922 L -2.46672 -18.4357 L -2.44339 -18.4792 L -2.42006 -18.5226 L -2.39672 -18.5659 L -2.37338 -18.6093 L -2.35003 -18.6525 L -2.32668 -18.6958 L -2.30332 -18.739 L -2.27995 -18.7821 L -2.25658 -18.8252 L -2.23321 -18.8683 L -2.20983 -18.9113 L -2.18645 -18.9543 L -2.16306 -18.9973 L -2.13966 -19.0402 L -2.11627 -19.083 L -2.09286 -19.1258 L -2.06946 -19.1686 L -2.04605 -19.2114 L -2.02263 -19.2541 L -1.99921 -19.2967 L -1.97579 -19.3393 L -1.95236 -19.3819 L -1.92893 -19.4245 L -1.90549 -19.467 L -1.88205 -19.5094 L -1.85861 -19.5519 L -1.83516 -19.5942 L -1.81171 -19.6366 L -1.78826 -19.6789 L -1.7648 -19.7212 L -1.74134 -19.7634 L -1.71788 -19.8056 L -1.69441 -19.8478 L -1.67094 -19.8899 L -1.64747 -19.932 L -1.6076 -19.9353 L -1.56773 -19.9385 L -1.52785 -19.9416 L -1.48796 -19.9446 L -1.44807 -19.9475 L -1.40817 -19.9504 L -1.36827 -19.9531 L -1.32836 -19.9558 L -1.28844 -19.9585 L -1.24852 -19.961 L -1.2086 -19.9634 L -1.16867 -19.9658 L -1.12874 -19.9681 L -1.0888 -19.9703 L -1.04885 -19.9725 L -1.00891 -19.9745 L -0.968957 -19.9765 L -0.929002 -19.9784 L -0.889043 -19.9802 L -0.849081 -19.982 L -0.809115 -19.9836 L -0.769146 -19.9852 L -0.729175 -19.9867 L -0.6892 -19.9881 L -0.649222 -19.9895 L -0.609242 -19.9907 L -0.569259 -19.9919 L -0.529274 -19.993 L -0.489287 -19.994 L -0.449298 -19.995 L -0.409308 -19.9958 L -0.369315 -19.9966 L -0.329321 -19.9973 L -0.289326 -19.9979 L -0.24933 -19.9984 L -0.209332 -19.9989 L -0.169334 -19.9993 L -0.129335 -19.9996 L -0.0893358 -19.9998 L -0.0493361 -19.9999 L 0.0493361 -19.9999 L 0.0893358 -19.9998 L 0.129335 -19.9996 L 0.169334 -19.9993 L 0.209332 -19.9989 L 0.24933 -19.9984 L 0.289326 -19.9979 L 0.329321 -19.9973 L 0.369315 -19.9966 L 0.409308 -19.9958 L 0.449298 -19.995 L 0.489287 -19.994 L 0.529274 -19.993 L 0.569259 -19.9919 L 0.609242 -19.9907 L 0.649222 -19.9895 L 0.6892 -19.9881 L 0.729175 -19.9867 L 0.769146 -19.9852 L 0.809115 -19.9836 L 0.849081 -19.982 L 0.889043 -19.9802 L 0.929002 -19.9784 L 0.968957 -19.9765 L 1.00891 -19.9745 L 1.04885 -19.9725 L 1.0888 -19.9703 L 1.12874 -19.9681 L 1.16867 -19.9658 L 1.2086 -19.9634 L 1.24852 -19.961 L 1.28844 -19.9585 L 1.32836 -19.9558 L 1.36827 -19.9531 L 1.40817 -19.9504 L 1.44807 -19.9475 L 1.48796 -19.9446 L 1.52785 -19.9416 L 1.56773 -19.9385 L 1.6076 -19.9353 L 1.64747 -19.932 L 1.67094 -19.8899 L 1.69441 -19.8478 L 1.71788 -19.8056 L 1.74134 -19.7634 L 1.7648 -19.7212 L 1.78826 -19.6789 L 1.81171 -19.6366 L 1.83516 -19.5942 L 1.85861 -19.5519 L 1.88205 -19.5094 L 1.90549 -19.467 L 1.92893 -19.4245 L 1.95236 -19.3819 L 1.97579 -19.3393 L 1.99921 -19.2967 L 2.02263 -19.2541 L 2.04605 -19.2114 L 2.06946 -19.1686 L 2.09286 -19.1258 L 2.11627 -19.083 L 2.13966 -19.0402 L 2.16306 -18.9973 L 2.18645 -18.9543 L 2.20983 -18.9113 L 2.23321 -18.8683 L 2.25658 -18.8252 L 2.27995 -18.7821 L 2.30332 -18.739 L 2.32668 -18.6958 L 2.35003 -18.6525 L 2.37338 -18.6093 L 2.39672 -18.5659 L 2.42006 -18.5226 L 2.44339 -18.4792 L 2.46672 -18.4357 L 2.49004 -18.3922 L 2.51335 -18.3487 L 2.53666 -18.3051 L 2.55996 -18.2614 L 2.58325 -18.2178 L 2.60654 -18.174 L 2.62982 -18.1303 L 2.6531 -18.0864 L 2.67636 -18.0426 L 2.69962 -17.9987 L 2.72288 -17.9547 L 2.74613 -17.9107 L 2.76936 -17.8666 L 2.7926 -17.8225 L 2.81582 -17.7784 L 2.81582 -17.7784 L 2.85155 -17.8132 L 2.88727 -17.848 L 2.92299 -17.8827 L 2.9587 -17.9174 L 2.9944 -17.952 L 3.03009 -17.9866 L 3.06577 -18.0211 L 3.10145 -18.0556 L 3.13712 -18.09 L 3.17278 -18.1244 L 3.20843 -18.1587 L 3.24408 -18.193 L 3.27971 -18.2273 L 3.31534 -18.2615 L 3.35096 -18.2957 L 3.38657 -18.3298 L 3.42218 -18.3639 L 3.45777 -18.3979 L 3.49336 -18.4319 L 3.52894 -18.4658 L 3.56451 -18.4997 L 3.60008 -18.5336 L 3.63563 -18.5674 L 3.67118 -18.6012 L 3.70672 -18.6349 L 3.74225 -18.6686 L 3.77777 -18.7023 L 3.81328 -18.7359 L 3.84879 -18.7695 L 3.88429 -18.803 L 3.91978 -18.8365 L 3.95526 -18.8699 L 3.99073 -18.9033 L 4.02619 -18.9367 L 4.06165 -18.9701 L 4.0971 -19.0034 L 4.13254 -19.0366 L 4.16797 -19.0698 L 4.20339 -19.103 L 4.23881 -19.1362 L 4.27422 -19.1693 L 4.30961 -19.2023 L 4.345 -19.2354 L 4.38039 -19.2684 L 4.41576 -19.3013 L 4.45112 -19.3342 L 4.48648 -19.3671 L 4.52183 -19.4 L 4.55717 -19.4328 L 4.5925 -19.4656 L 4.63142 -19.4564 L 4.67033 -19.4471 L 4.70921 -19.4377 L 4.74808 -19.4282 L 4.78692 -19.4187 L 4.82575 -19.4091 L 4.86456 -19.3994 L 4.90335 -19.3896 L 4.94212 -19.3798 L 4.98087 -19.3698 L 5.0196 -19.3598 L 5.05831 -19.3498 L 5.097 -19.3396 L 5.13567 -19.3294 L 5.17432 -19.3191 L 5.21294 -19.3087 L 5.25155 -19.2982 L 5.29014 -19.2877 L 5.3287 -19.2771 L 5.36724 -19.2664 L 5.40577 -19.2556 L 5.44427 -19.2447 L 5.48274 -19.2338 L 5.5212 -19.2228 L 5.55964 -19.2117 L 5.59805 -19.2006 L 5.63644 -19.1893 L 5.67481 -19.178 L 5.71315 -19.1666 L 5.75147 -19.1552 L 5.78977 -19.1436 L 5.82805 -19.132 L 5.8663 -19.1203 L 5.90453 -19.1085 L 5.94273 -19.0967 L 5.98091 -19.0848 L 6.01907 -19.0728 L 6.05721 -19.0607 L 6.09531 -19.0485 L 6.1334 -19.0363 L 6.22724 -19.0058 L 6.26524 -18.9933 L 6.30322 -18.9808 L 6.34116 -18.9681 L 6.37909 -18.9554 L 6.41699 -18.9426 L 6.45486 -18.9297 L 6.49271 -18.9168 L 6.53053 -18.9038 L 6.56832 -18.8907 L 6.60609 -18.8775 L 6.64383 -18.8642 L 6.68155 -18.8509 L 6.71923 -18.8375 L 6.7569 -18.824 L 6.79453 -18.8105 L 6.83214 -18.7969 L 6.86972 -18.7832 L 6.90727 -18.7694 L 6.94479 -18.7555 L 6.98229 -18.7416 L 7.01976 -18.7276 L 7.0572 -18.7135 L 7.09461 -18.6994 L 7.132 -18.6851 L 7.16936 -18.6708 L 7.20668 -18.6565 L 7.24398 -18.642 L 7.28125 -18.6275 L 7.31849 -18.6129 L 7.3557 -18.5982 L 7.39288 -18.5835 L 7.43004 -18.5686 L 7.46716 -18.5537 L 7.50425 -18.5388 L 7.54131 -18.5237 L 7.57835 -18.5086 L 7.61535 -18.4934 L 7.65232 -18.4781 L 7.68926 -18.4628 L 7.72617 -18.4474 L 7.73549 -18.4001 L 7.74479 -18.3528 L 7.75408 -18.3054 L 7.76335 -18.258 L 7.77261 -18.2106 L 7.78185 -18.1632 L 7.79108 -18.1157 L 7.8003 -18.0681 L 7.8095 -18.0206 L 7.81868 -17.973 L 7.82785 -17.9254 L 7.83701 -17.8777 L 7.84614 -17.83 L 7.85527 -17.7822 L 7.86437 -17.7345 L 7.87346 -17.6867 L 7.88254 -17.6388 L 7.8916 -17.5909 L 7.90064 -17.543 L 7.90966 -17.4951 L 7.91867 -17.4471 L 7.92766 -17.399 L 7.93664 -17.351 L 7.9456 -17.3029 L 7.95454 -17.2547 L 7.96346 -17.2065 L 7.97236 -17.1583 L 7.98125 -17.1101 L 7.99012 -17.0618 L 7.99897 -17.0134 L 8.0078 -16.965 L 8.01661 -16.9166 L 8.0254 -16.8682 L 8.03418 -16.8197 L 8.04293 -16.7711 L 8.05167 -16.7226 L 8.06039 -16.6739 L 8.06908 -16.6253 L 8.07776 -16.5766 L 8.08642 -16.5279 L 8.09505 -16.4791 L 8.10367 -16.4302 L 8.11226 -16.3814 L 8.12084 -16.3325 L 8.12939 -16.2835 L 8.13792 -16.2345 L 8.14643 -16.1855 L 8.15492 -16.1364 L 8.16339 -16.0873 L 8.17183 -16.0381 L 8.17183 -16.0381 L 8.21657 -16.0602 L 8.26129 -16.0822 L 8.30598 -16.1042 L 8.35066 -16.1261 L 8.39531 -16.148 L 8.43994 -16.1699 L 8.48455 -16.1917 L 8.52913 -16.2135 L 8.57369 -16.2352 L 8.61824 -16.2569 L 8.66276 -16.2785 L 8.70726 -16.3001 L 8.75173 -16.3217 L 8.79619 -16.3432 L 8.84062 -16.3647 L 8.88503 -16.3861 L 8.92943 -16.4076 L 8.9738 -16.4289 L 9.01815 -16.4502 L 9.06247 -16.4715 L 9.10678 -16.4928 L 9.15107 -16.514 L 9.19533 -16.5352 L 9.23958 -16.5563 L 9.2838 -16.5774 L 9.32801 -16.5985 L 9.37219 -16.6195 L 9.41635 -16.6405 L 9.4605 -16.6615 L 9.50462 -16.6824 L 9.54872 -16.7033 L 9.5928 -16.7241 L 9.63686 -16.7449 L 9.68091 -16.7657 L 9.72493 -16.7865 L 9.76893 -16.8072 L 9.81291 -16.8279 L 9.85688 -16.8485 L 9.90082 -16.8691 L 9.94474 -16.8897 L 9.98865 -16.9102 L 10.0325 -16.9308 L 10.0764 -16.9512 L 10.1202 -16.9717 L 10.1641 -16.9921 L 10.2079 -17.0125 L 10.2517 -17.0328 L 10.2954 -17.0532 L 10.3392 -17.0735 L 10.3829 -17.0937 L 10.4171 -17.0729 L 10.4512 -17.052 L 10.4853 -17.0311 L 10.5193 -17.0101 L 10.5533 -16.989 L 10.5873 -16.9679 L 10.6212 -16.9467 L 10.6551 -16.9254 L 10.6889 -16.9041 L 10.7227 -16.8826 L 10.7564 -16.8612 L 10.7901 -16.8396 L 10.8238 -16.818 L 10.8574 -16.7963 L 10.891 -16.7746 L 10.9245 -16.7528 L 10.958 -16.7309 L 10.9914 -16.7089 L 11.0248 -16.6869 L 11.0582 -16.6648 L 11.0915 -16.6427 L 11.1248 -16.6205 L 11.158 -16.5982 L 11.1911 -16.5758 L 11.2243 -16.5534 L 11.2574 -16.5309 L 11.2904 -16.5084 L 11.3234 -16.4858 L 11.3563 -16.4631 L 11.3892 -16.4403 L 11.4221 -16.4175 L 11.4549 -16.3947 L 11.4877 -16.3717 L 11.5204 -16.3487 L 11.5531 -16.3256 L 11.5857 -16.3025 L 11.6183 -16.2793 L 11.6508 -16.256 L 11.6833 -16.2327 L 11.7158 -16.2093 L 11.7956 -16.1513 L 11.8279 -16.1277 L 11.8601 -16.104 L 11.8923 -16.0802 L 11.9244 -16.0564 L 11.9565 -16.0325 L 11.9885 -16.0086 L 12.0205 -15.9846 L 12.0525 -15.9605 L 12.0844 -15.9364 L 12.1162 -15.9122 L 12.148 -15.8879 L 12.1798 -15.8636 L 12.2115 -15.8392 L 12.2431 -15.8147 L 12.2747 -15.7902 L 12.3063 -15.7656 L 12.3378 -15.741 L 12.3693 -15.7163 L 12.4007 -15.6915 L 12.432 -15.6667 L 12.4633 -15.6418 L 12.4946 -15.6168 L 12.5258 -15.5918 L 12.557 -15.5667 L 12.5881 -15.5416 L 12.6191 -15.5164 L 12.6501 -15.4911 L 12.6811 -15.4658 L 12.712 -15.4404 L 12.7429 -15.4149 L 12.7737 -15.3894 L 12.8044 -15.3638 L 12.8351 -15.3382 L 12.8658 -15.3125 L 12.8964 -15.2867 L 12.9269 -15.2609 L 12.9574 -15.235 L 12.9879 -15.2091 L 13.0182 -15.1831 L 13.0486 -15.157 L 13.0428 -15.1091 L 13.0371 -15.0613 L 13.0313 -15.0134 L 13.0254 -14.9654 L 13.0196 -14.9175 L 13.0137 -14.8695 L 13.0078 -14.8214 L 13.0019 -14.7734 L 12.9959 -14.7253 L 12.99 -14.6772 L 12.984 -14.6291 L 12.9779 -14.5809 L 12.9719 -14.5327 L 12.9658 -14.4845 L 12.9597 -14.4363 L 12.9536 -14.388 L 12.9474 -14.3397 L 12.9413 -14.2913 L 12.935 -14.243 L 12.9288 -14.1946 L 12.9225 -14.1461 L 12.9163 -14.0977 L 12.9099 -14.0492 L 12.9036 -14.0007 L 12.8972 -13.9521 L 12.8908 -13.9035 L 12.8844 -13.8549 L 12.8779 -13.8063 L 12.8714 -13.7576 L 12.8649 -13.7089 L 12.8584 -13.6602 L 12.8518 -13.6114 L 12.8452 -13.5626 L 12.8385 -13.5138 L 12.8319 -13.4649 L 12.8251 -13.416 L 12.8184 -13.3671 L 12.8117 -13.3181 L 12.8049 -13.2691 L 12.798 -13.2201 L 12.7912 -13.171 L 12.7843 -13.1219 L 12.7773 -13.0728 L 12.7704 -13.0236 L 12.7634 -12.9744 L 12.7564 -12.9252 L 12.7493 -12.8759 L 12.7422 -12.8266 L 12.7351 -12.7773 L 12.7279 -12.7279 L 12.7279 -12.7279 L 12.7773 -12.7351 L 12.8266 -12.7422 L 12.8759 -12.7493 L 12.9252 -12.7564 L 12.9744 -12.7634 L 13.0236 -12.7704 L 13.0728 -12.7773 L 13.1219 -12.7843 L 13.171 -12.7912 L 13.2201 -12.798 L 13.2691 -12.8049 L 13.3181 -12.8117 L 13.3671 -12.8184 L 13.416 -12.8251 L 13.4649 -12.8319 L 13.5138 -12.8385 L 13.5626 -12.8452 L 13.6114 -12.8518 L 13.6602 -12.8584 L 13.7089 -12.8649 L 13.7576 -12.8714 L 13.8063 -12.8779 L 13.8549 -12.8844 L 13.9035 -12.8908 L 13.9521 -12.8972 L 14.0007 -12.9036 L 14.0492 -12.9099 L 14.0977 -12.9163 L 14.1461 -12.9225 L 14.1946 -12.9288 L 14.243 -12.935 L 14.2913 -12.9413 L 14.3397 -12.9474 L 14.388 -12.9536 L 14.4363 -12.9597 L 14.4845 -12.9658 L 14.5327 -12.9719 L 14.5809 -12.9779 L 14.6291 -12.984 L 14.6772 -12.99 L 14.7253 -12.9959 L 14.7734 -13.0019 L 14.8214 -13.0078 L 14.8695 -13.0137 L 14.9175 -13.0196 L 14.9654 -13.0254 L 15.0134 -13.0313 L 15.0613 -13.0371 L 15.1091 -13.0428 L 15.157 -13.0486 L 15.1831 -13.0182 L 15.2091 -12.9879 L 15.235 -12.9574 L 15.2609 -12.9269 L 15.2867 -12.8964 L 15.3125 -12.8658 L 15.3382 -12.8351 L 15.3638 -12.8044 L 15.3894 -12.7737 L 15.4149 -12.7429 L 15.4404 -12.712 L 15.4658 -12.6811 L 15.4911 -12.6501 L 15.5164 -12.6191 L 15.5416 -12.5881 L 15.5667 -12.557 L 15.5918 -12.5258 L 15.6168 -12.4946 L 15.6418 -12.4633 L 15.6667 -12.432 L 15.6915 -12.4007 L 15.7163 -12.3693 L 15.741 -12.3378 L 15.7656 -12.3063 L 15.7902 -12.2747 L 15.8147 -12.2431 L 15.8392 -12.2115 L 15.8636 -12.1798 L 15.8879 -12.148 L 15.9122 -12.1162 L 15.9364 -12.0844 L 15.9605 -12.0525 L 15.9846 -12.0205 L 16.0086 -11.9885 L 16.0325 -11.9565 L 16.0564 -11.9244 L 16.0802 -11.8923 L 16.104 -11.8601 L 16.1277 -11.8279 L 16.1513 -11.7956 L 16.2093 -11.7158 L 16.2327 -11.6833 L 16.256 -11.6508 L 16.2793 -11.6183 L 16.3025 -11.5857 L 16.3256 -11.5531 L 16.3487 -11.5204 L 16.3717 -11.4877 L 16.3947 -11.4549 L 16.4175 -11.4221 L 16.4403 -11.3892 L 16.4631 -11.3563 L 16.4858 -11.3234 L 16.5084 -11.2904 L 16.5309 -11.2574 L 16.5534 -11.2243 L 16.5758 -11.1911 L 16.5982 -11.158 L 16.6205 -11.1248 L 16.6427 -11.0915 L 16.6648 -11.0582 L 16.6869 -11.0248 L 16.7089 -10.9914 L 16.7309 -10.958 L 16.7528 -10.9245 L 16.7746 -10.891 L 16.7963 -10.8574 L 16.818 -10.8238 L 16.8396 -10.7901 L 16.8612 -10.7564 L 16.8826 -10.7227 L 16.9041 -10.6889 L 16.9254 -10.6551 L 16.9467 -10.6212 L 16.9679 -10.5873 L 16.989 -10.5533 L 17.0101 -10.5193 L 17.0311 -10.4853 L 17.052 -10.4512 L 17.0729 -10.4171 L 17.0937 -10.3829 L 17.0735 -10.3392 L 17.0532 -10.2954 L 17.0328 -10.2517 L 17.0125 -10.2079 L 16.9921 -10.1641 L 16.9717 -10.1202 L 16.9512 -10.0764 L 16.9308 -10.0325 L 16.9102 -9.98865 L 16.8897 -9.94474 L 16.8691 -9.90082 L 16.8485 -9.85688 L 16.8279 -9.81291 L 16.8072 -9.76893 L 16.7865 -9.72493 L 16.7657 -9.68091 L 16.7449 -9.63686 L 16.7241 -9.5928 L 16.7033 -9.54872 L 16.6824 -9.50462 L 16.6615 -9.4605 L 16.6405 -9.41635 L 16.6195 -9.37219 L 16.5985 -9.32801 L 16.5774 -9.2838 L 16.5563 -9.23958 L 16.5352 -9.19533 L 16.514 -9.15107 L 16.4928 -9.10678 L 16.4715 -9.06247 L 16.4502 -9.01815 L 16.4289 -8.9738 L 16.4076 -8.92943 L 16.3861 -8.88503 L 16.3647 -8.84062 L 16.3432 -8.79619 L 16.3217 -8.75173 L 16.3001 -8.70726 L 16.2785 -8.66276 L 16.2569 -8.61824 L 16.2352 -8.57369 L 16.2135 -8.52913 L 16.1917 -8.48455 L 16.1699 -8.43994 L 16.148 -8.39531 L 16.1261 -8.35066 L 16.1042 -8.30598 L 16.0822 -8.26129 L 16.0602 -8.21657 L 16.0381 -8.17183 L 16.0381 -8.17183 L 16.0873 -8.16339 L 16.1364 -8.15492 L 16.1855 -8.14643 L 16.2345 -8.13792 L 16.2835 -8.12939 L 16.3325 -8.12084 L 16.3814 -8.11226 L 16.4302 -8.10367 L 16.4791 -8.09505 L 16.5279 -8.08642 L 16.5766 -8.07776 L 16.6253 -8.06908 L 16.6739 -8.06039 L 16.7226 -8.05167 L 16.7711 -8.04293 L 16.8197 -8.03418 L 16.8682 -8.0254 L 16.9166 -8.01661 L 16.965 -8.0078 L 17.0134 -7.99897 L 17.0618 -7.99012 L 17.1101 -7.98125 L 17.1583 -7.97236 L 17.2065 -7.96346 L 17.2547 -7.95454 L 17.3029 -7.9456 L 17.351 -7.93664 L 17.399 -7.92766 L 17.4471 -7.91867 L 17.4951 -7.90966 L 17.543 -7.90064 L 17.5909 -7.8916 L 17.6388 -7.88254 L 17.6867 -7.87346 L 17.7345 -7.86437 L 17.7822 -7.85527 L 17.83 -7.84614 L 17.8777 -7.83701 L 17.9254 -7.82785 L 17.973 -7.81868 L 18.0206 -7.8095 L 18.0681 -7.8003 L 18.1157 -7.79108 L 18.1632 -7.78185 L 18.2106 -7.77261 L 18.258 -7.76335 L 18.3054 -7.75408 L 18.3528 -7.74479 L 18.4001 -7.73549 L 18.4474 -7.72617 L 18.4628 -7.68926 L 18.4781 -7.65232 L 18.4934 -7.61535 L 18.5086 -7.57835 L 18.5237 -7.54131 L 18.5388 -7.50425 L 18.5537 -7.46716 L 18.5686 -7.43004 L 18.5835 -7.39288 L 18.5982 -7.3557 L 18.6129 -7.31849 L 18.6275 -7.28125 L 18.642 -7.24398 L 18.6565 -7.20668 L 18.6708 -7.16936 L 18.6851 -7.132 L 18.6994 -7.09461 L 18.7135 -7.0572 L 18.7276 -7.01976 L 18.7416 -6.98229 L 18.7555 -6.94479 L 18.7694 -6.90727 L 18.7832 -6.86972 L 18.7969 -6.83214 L 18.8105 -6.79453 L 18.824 -6.7569 L 18.8375 -6.71923 L 18.8509 -6.68155 L 18.8642 -6.64383 L 18.8775 -6.60609 L 18.8907 -6.56832 L 18.9038 -6.53053 L 18.9168 -6.49271 L 18.9297 -6.45486 L 18.9426 -6.41699 L 18.9554 -6.37909 L 18.9681 -6.34116 L 18.9808 -6.30322 L 18.9933 -6.26524 L 19.0058 -6.22724 L 19.0363 -6.1334 L 19.0485 -6.09531 L 19.0607 -6.05721 L 19.0728 -6.01907 L 19.0848 -5.98091 L 19.0967 -5.94273 L 19.1085 -5.90453 L 19.1203 -5.8663 L 19.132 -5.82805 L 19.1436 -5.78977 L 19.1552 -5.75147 L 19.1666 -5.71315 L 19.178 -5.67481 L 19.1893 -5.63644 L 19.2006 -5.59805 L 19.2117 -5.55964 L 19.2228 -5.5212 L 19.2338 -5.48274 L 19.2447 -5.44427 L 19.2556 -5.40577 L 19.2664 -5.36724 L 19.2771 -5.3287 L 19.2877 -5.29014 L 19.2982 -5.25155 L 19.3087 -5.21294 L 19.3191 -5.17432 L 19.3294 -5.13567 L 19.3396 -5.097 L 19.3498 -5.05831 L 19.3598 -5.0196 L 19.3698 -4.98087 L 19.3798 -4.94212 L 19.3896 -4.90335 L 19.3994 -4.86456 L 19.4091 -4.82575 L 19.4187 -4.78692 L 19.4282 -4.74808 L 19.4377 -4.70921 L 19.4471 -4.67033 L 19.4564 -4.63142 L 19.4656 -4.5925 L 19.4328 -4.55717 L 19.4 -4.52183 L 19.3671 -4.48648 L 19.3342 -4.45112 L 19.3013 -4.41576 L 19.2684 -4.38039 L 19.2354 -4.345 L 19.2023 -4.30961 L 19.1693 -4.27422 L 19.1362 -4.23881 L 19.103 -4.20339 L 19.0698 -4.16797 L 19.0366 -4.13254 L 19.0034 -4.0971 L 18.9701 -4.06165 L 18.9367 -4.02619 L 18.9033 -3.99073 L 18.8699 -3.95526 L 18.8365 -3.91978 L 18.803 -3.88429 L 18.7695 -3.84879 L 18.7359 -3.81328 L 18.7023 -3.77777 L 18.6686 -3.74225 L 18.6349 -3.70672 L 18.6012 -3.67118 L 18.5674 -3.63563 L 18.5336 -3.60008 L 18.4997 -3.56451 L 18.4658 -3.52894 L 18.4319 -3.49336 L 18.3979 -3.45777 L 18.3639 -3.42218 L 18.3298 -3.38657 L 18.2957 -3.35096 L 18.2615 -3.31534 L 18.2273 -3.27971 L 18.193 -3.24408 L 18.1587 -3.20843 L 18.1244 -3.17278 L 18.09 -3.13712 L 18.0556 -3.10145 L 18.0211 -3.06577 L 17.9866 -3.03009 L 17.952 -2.9944 L 17.9174 -2.9587 L 17.8827 -2.92299 L 17.848 -2.88727 L 17.8132 -2.85155 L 17.7784 -2.81582 L 17.7784 -2.81582 L 17.8225 -2.7926 L 17.8666 -2.76936 L 17.9107 -2.74613 L 17.9547 -2.72288 L 17.9987 -2.69962 L 18.0426 -2.67636 L 18.0864 -2.6531 L 18.1303 -2.62982 L 18.174 -2.60654 L 18.2178 -2.58325 L 18.2614 -2.55996 L 18.3051 -2.53666 L 18.3487 -2.51335 L 18.3922 -2.49004 L 18.4357 -2.46672 L 18.4792 -2.44339 L 18.5226 -2.42006 L 18.5659 -2.39672 L 18.6093 -2.37338 L 18.6525 -2.35003 L 18.6958 -2.32668 L 18.739 -2.30332 L 18.7821 -2.27995 L 18.8252 -2.25658 L 18.8683 -2.23321 L 18.9113 -2.20983 L 18.9543 -2.18645 L 18.9973 -2.16306 L 19.0402 -2.13966 L 19.083 -2.11627 L 19.1258 -2.09286 L 19.1686 -2.06946 L 19.2114 -2.04605 L 19.2541 -2.02263 L 19.2967 -1.99921 L 19.3393 -1.97579 L 19.3819 -1.95236 L 19.4245 -1.92893 L 19.467 -1.90549 L 19.5094 -1.88205 L 19.5519 -1.85861 L 19.5942 -1.83516 L 19.6366 -1.81171 L 19.6789 -1.78826 L 19.7212 -1.7648 L 19.7634 -1.74134 L 19.8056 -1.71788 L 19.8478 -1.69441 L 19.8899 -1.67094 L 19.932 -1.64747 L 19.9353 -1.6076 L 19.9385 -1.56773 L 19.9416 -1.52785 L 19.9446 -1.48796 L 19.9475 -1.44807 L 19.9504 -1.40817 L 19.9531 -1.36827 L 19.9558 -1.32836 L 19.9585 -1.28844 L 19.961 -1.24852 L 19.9634 -1.2086 L 19.9658 -1.16867 L 19.9681 -1.12874 L 19.9703 -1.0888 L 19.9725 -1.04885 L 19.9745 -1.00891 L 19.9765 -0.968957 L 19.9784 -0.929002 L 19.9802 -0.889043 L 19.982 -0.849081 L 19.9836 -0.809115 L 19.9852 -0.769146 L 19.9867 -0.729175 L 19.9881 -0.6892 L 19.9895 -0.649222 L 19.9907 -0.609242 L 19.9919 -0.569259 L 19.993 -0.529274 L 19.994 -0.489287 L 19.995 -0.449298 L 19.9958 -0.409308 L 19.9966 -0.369315 L 19.9973 -0.329321 L 19.9979 -0.289326 L 19.9984 -0.24933 L 19.9989 -0.209332 L 19.9993 -0.169334 L 19.9996 -0.129335 L 19.9998 -0.0893358 L 19.9999 -0.0493361Z"
id="path1" />
</g>
</svg>
