<?xml version="1.0" encoding="UTF-8" standalone="no"?>
<svg version="1.1">
<g
style="fill:none;stroke:#000000;stroke-opacity:1;stroke-width:0.1">
<path d="M 20.4999 0.0686729 L 20.4997 0.107134 L 20.4995 0.145595 L 20.4992 0.184055 L 20.4988 0.222515 L 20.4983 0.260974 L 20.4978 0.299432 L 20.4972 0.337889 L 20.4965 0.376344 L 20.4958 0.414799 L 20.495 0.453252 L 20.4941 0.491703 L 20.4931 0.530152 L 20.4921 0.5686 L 20.491 0.607046 L 20.4898 0.645489 L 20.4886 0.683931 L 20.4873 0.72237 L 20.4859 0.760806 L 20.4844 0.79924 L 20.4829 0.837671 L 20.4813 0.876098 L 20.4796 0.914523 L 20.4778 0.952945 L 20.476 0.991363 L 20.4741 1.02978 L 20.4722 1.06819 L 20.4701 1.1066 L 20.468 1.145 L 20.4658 1.1834 L 20.4636 1.22179 L 20.4612 1.26019 L 20.4588 1.29857 L 20.4564 1.33695 L 20.4538 1.37533 L 20.4512 1.4137 L 20.4485 1.45207 L 20.4457 1.49043 L 20.4429 1.52879 L 20.44 1.56714 L 20.437 1.60549 L 20.434 1.64383 L 20.3937 1.66533 L 20.3533 1.68683 L 20.3129 1.70832 L 20.2725 1.72981 L 20.232 1.7513 L 20.1916 1.77279 L 20.151 1.79427 L 20.1105 1.81576 L 20.0699 1.83723 L 20.0293 1.85871 L 19.9887 1.88018 L 19.948 1.90165 L 19.9073 1.92312 L 19.8666 1.94458 L 19.8258 1.96604 L 19.785 1.9875 L 19.7442 2.00896 L 19.7034 2.03041 L 19.6625 2.05185 L 19.6215 2.0733 L 19.5806 2.09474 L 19.5396 2.11618 L 19.4986 2.13761 L 19.4575 2.15904 L 19.4164 2.18047 L 19.3753 2.20189 L 19.3341 2.22331 L 19.2929 2.24472 L 19.2517 2.26613 L 19.2104 2.28754 L 19.1691 2.30894 L 19.1278 2.33034 L 19.0864 2.35173 L 19.045 2.37312 L 19.0036 2.39451 L 18.9621 2.41589 L 18.9206 2.43726 L 18.879 2.45863 L 18.8375 2.48 L 18.7958 2.50136 L 18.7542 2.52271 L 18.7125 2.54407 L 18.6707 2.56541 L 18.629 2.58675 L 18.5871 2.60809 L 18.5453 2.62942 L 18.5034 2.65074 L 18.4615 2.67206 L 18.4195 2.69338 L 18.3775 2.71468 L 18.3355 2.73599 L 18.2934 2.75728 L 18.2934 2.75728 L 18.3273 2.79004 L 18.3612 2.82279 L 18.3951 2.85553 L 18.4289 2.88826 L 18.4627 2.921 L 18.4964 2.95372 L 18.5301 2.98644 L 18.5638 3.01915 L 18.5974 3.05186 L 18.631 3.08456 L 18.6646 3.11725 L 18.6981 3.14994 L 18.7315 3.18262 L 18.765 3.21529 L 18.7984 3.24796 L 18.8318 3.28062 L 18.8651 3.31328 L 18.8984 3.34593 L 18.9317 3.37857 L 18.9649 3.41121 L 18.9981 3.44384 L 19.0312 3.47647 L 19.0644 3.50908 L 19.0974 3.5417 L 19.1305 3.5743 L 19.1635 3.6069 L 19.1965 3.63949 L 19.2294 3.67208 L 19.2624 3.70466 L 19.2953 3.73723 L 19.3281 3.7698 L 19.3609 3.80236 L 19.3937 3.83492 L 19.4265 3.86746 L 19.4592 3.9 L 19.4919 3.93254 L 19.5245 3.96507 L 19.5572 3.99759 L 19.5897 4.03011 L 19.6223 4.06262 L 19.6548 4.09512 L 19.6873 4.12762 L 19.7198 4.16011 L 19.7523 4.19259 L 19.7847 4.22507 L 19.817 4.25754 L 19.8494 4.29 L 19.8817 4.32246 L 19.914 4.35491 L 19.9463 4.38735 L 19.9785 4.41979 L 20.0107 4.45222 L 20.0023 4.48976 L 19.9938 4.52728 L 19.9853 4.56478 L 19.9767 4.60227 L 19.968 4.63974 L 19.9593 4.6772 L 19.9505 4.71464 L 19.9416 4.75206 L 19.9327 4.78947 L 19.9236 4.82685 L 19.9146 4.86423 L 19.9054 4.90158 L 19.8962 4.93892 L 19.8869 4.97624 L 19.8775 5.01354 L 19.868 5.05082 L 19.8585 5.08809 L 19.849 5.12534 L 19.8393 5.16257 L 19.8296 5.19978 L 19.8198 5.23698 L 19.8099 5.27416 L 19.8 5.31131 L 19.79 5.34845 L 19.7799 5.38557 L 19.7698 5.42267 L 19.7596 5.45975 L 19.7493 5.49682 L 19.739 5.53386 L 19.7285 5.57088 L 19.7181 5.60789 L 19.7075 5.64487 L 19.6969 5.68184 L 19.6862 5.71878 L 19.6754 5.75571 L 19.6646 5.79261 L 19.6537 5.8295 L 19.6427 5.86636 L 19.6317 5.9032 L 19.6206 5.94002 L 19.6094 5.97683 L 19.5689 6.10807 L 19.5574 6.14477 L 19.5458 6.18146 L 19.5342 6.21812 L 19.5225 6.25475 L 19.5107 6.29137 L 19.4989 6.32797 L 19.487 6.36454 L 19.475 6.40109 L 19.463 6.43761 L 19.4509 6.47412 L 19.4387 6.5106 L 19.4264 6.54706 L 19.4141 6.5835 L 19.4017 6.61991 L 19.3893 6.6563 L 19.3767 6.69266 L 19.3642 6.72901 L 19.3515 6.76532 L 19.3388 6.80162 L 19.326 6.83789 L 19.3131 6.87414 L 19.3002 6.91036 L 19.2872 6.94656 L 19.2741 6.98273 L 19.261 7.01888 L 19.2478 7.055 L 19.2345 7.0911 L 19.2212 7.12718 L 19.2078 7.16323 L 19.1943 7.19925 L 19.1807 7.23525 L 19.1671 7.27123 L 19.1535 7.30717 L 19.1397 7.3431 L 19.1259 7.37899 L 19.112 7.41486 L 19.0981 7.45071 L 19.0841 7.48653 L 19.07 7.52232 L 19.0558 7.55808 L 19.0416 7.59382 L 18.9968 7.60248 L 18.9519 7.61112 L 18.9069 7.61976 L 18.862 7.62838 L 18.817 7.63699 L 18.772 7.64559 L 18.7269 7.65418 L 18.6818 7.66276 L 18.6367 7.67133 L 18.5916 7.67988 L 18.5465 7.68842 L 18.5013 7.69695 L 18.456 7.70547 L 18.4108 7.71397 L 18.3655 7.72247 L 18.3202 7.73095 L 18.2749 7.73941 L 18.2295 7.74787 L 18.1841 7.75631 L 18.1387 7.76474 L 18.0932 7.77315 L 18.0477 7.78156 L 18.0022 7.78994 L 17.9567 7.79832 L 17.9111 7.80668 L 17.8655 7.81503 L 17.8198 7.82337 L 17.7742 7.83169 L 17.7284 7.83999 L 17.6827 7.84828 L 17.6369 7.85656 L 17.5911 7.86483 L 17.5453 7.87307 L 17.4994 7.88131 L 17.4535 7.88953 L 17.4076 7.89773 L 17.3616 7.90592 L 17.3156 7.9141 L 17.2696 7.92225 L 17.2235 7.9304 L 17.1774 7.93853 L 17.1312 7.94664 L 17.0851 7.95473 L 17.0389 7.96281 L 16.9926 7.97088 L 16.9463 7.97892 L 16.9 7.98695 L 16.8537 7.99497 L 16.8073 8.00296 L 16.7609 8.01094 L 16.7144 8.0189 L 16.6679 8.02685 L 16.6679 8.02685 L 16.6907 8.06815 L 16.7134 8.10944 L 16.7361 8.15071 L 16.7588 8.19196 L 16.7814 8.23319 L 16.804 8.27441 L 16.8266 8.31561 L 16.8491 8.35679 L 16.8716 8.39795 L 16.8941 8.4391 L 16.9165 8.48023 L 16.9389 8.52135 L 16.9613 8.56244 L 16.9836 8.60353 L 17.0059 8.64459 L 17.0281 8.68564 L 17.0504 8.72667 L 17.0726 8.76768 L 17.0947 8.80868 L 17.1169 8.84966 L 17.139 8.89062 L 17.161 8.93157 L 17.1831 8.9725 L 17.2051 9.01342 L 17.227 9.05432 L 17.249 9.0952 L 17.2709 9.13607 L 17.2928 9.17692 L 17.3146 9.21775 L 17.3364 9.25857 L 17.3582 9.29938 L 17.38 9.34016 L 17.4017 9.38094 L 17.4234 9.42169 L 17.4451 9.46243 L 17.4668 9.50316 L 17.4884 9.54387 L 17.51 9.58456 L 17.5315 9.62524 L 17.5531 9.6659 L 17.5746 9.70655 L 17.5961 9.74718 L 17.6175 9.7878 L 17.6389 9.8284 L 17.6603 9.86899 L 17.6817 9.90956 L 17.703 9.95012 L 17.7244 9.99066 L 17.7456 10.0312 L 17.7669 10.0717 L 17.7881 10.1122 L 17.8094 10.1527 L 17.7903 10.1861 L 17.7711 10.2194 L 17.7519 10.2528 L 17.7327 10.286 L 17.7133 10.3193 L 17.6939 10.3525 L 17.6745 10.3857 L 17.655 10.4188 L 17.6354 10.4519 L 17.6157 10.485 L 17.596 10.518 L 17.5763 10.551 L 17.5565 10.584 L 17.5366 10.6169 L 17.5166 10.6498 L 17.4966 10.6826 L 17.4765 10.7154 L 17.4564 10.7482 L 17.4362 10.7809 L 17.4159 10.8136 L 17.3956 10.8463 L 17.3752 10.8789 L 17.3548 10.9115 L 17.3343 10.944 L 17.3137 10.9765 L 17.2931 11.009 L 17.2724 11.0414 L 17.2517 11.0738 L 17.2309 11.1062 L 17.21 11.1385 L 17.1891 11.1707 L 17.1681 11.203 L 17.147 11.2352 L 17.1259 11.2673 L 17.1048 11.2994 L 17.0835 11.3315 L 17.0622 11.3635 L 17.0409 11.3955 L 17.0195 11.4275 L 16.998 11.4594 L 16.9765 11.4913 L 16.8991 11.6047 L 16.8773 11.6364 L 16.8555 11.6681 L 16.8335 11.6997 L 16.8115 11.7312 L 16.7895 11.7628 L 16.7674 11.7942 L 16.7453 11.8257 L 16.723 11.8571 L 16.7008 11.8884 L 16.6784 11.9197 L 16.656 11.951 L 16.6336 11.9822 L 16.6111 12.0134 L 16.5885 12.0446 L 16.5659 12.0757 L 16.5432 12.1067 L 16.5205 12.1377 L 16.4976 12.1687 L 16.4748 12.1996 L 16.4519 12.2305 L 16.4289 12.2614 L 16.4059 12.2922 L 16.3828 12.3229 L 16.3596 12.3537 L 16.3364 12.3843 L 16.3132 12.415 L 16.2898 12.4455 L 16.2665 12.4761 L 16.243 12.5066 L 16.2195 12.537 L 16.196 12.5674 L 16.1724 12.5978 L 16.1487 12.6281 L 16.125 12.6584 L 16.1012 12.6886 L 16.0774 12.7188 L 16.0535 12.749 L 16.0295 12.7791 L 16.0055 12.8091 L 15.9815 12.8391 L 15.9574 12.8691 L 15.9119 12.8641 L 15.8665 12.8591 L 15.821 12.8541 L 15.7755 12.8491 L 15.7299 12.8441 L 15.6844 12.8391 L 15.6388 12.834 L 15.5932 12.8289 L 15.5476 12.8238 L 15.502 12.8187 L 15.4563 12.8135 L 15.4106 12.8083 L 15.3649 12.8032 L 15.3191 12.7979 L 15.2734 12.7927 L 15.2276 12.7875 L 15.1817 12.7822 L 15.1359 12.7769 L 15.09 12.7716 L 15.0441 12.7662 L 14.9982 12.7609 L 14.9523 12.7555 L 14.9063 12.7501 L 14.8603 12.7447 L 14.8143 12.7392 L 14.7682 12.7338 L 14.7222 12.7283 L 14.6761 12.7228 L 14.6299 12.7172 L 14.5838 12.7117 L 14.5376 12.7061 L 14.4914 12.7005 L 14.4452 12.6949 L 14.3989 12.6892 L 14.3526 12.6835 L 14.3063 12.6778 L 14.26 12.6721 L 14.2136 12.6664 L 14.1672 12.6606 L 14.1208 12.6548 L 14.0743 12.649 L 14.0278 12.6431 L 13.9813 12.6372 L 13.9348 12.6313 L 13.8882 12.6254 L 13.8416 12.6195 L 13.795 12.6135 L 13.7484 12.6075 L 13.7017 12.6015 L 13.655 12.5954 L 13.6082 12.5893 L 13.5615 12.5832 L 13.5615 12.5832 L 13.571 12.6294 L 13.5806 12.6755 L 13.5901 12.7217 L 13.5996 12.7678 L 13.6091 12.8138 L 13.6186 12.8599 L 13.628 12.9059 L 13.6374 12.9519 L 13.6467 12.9979 L 13.6561 13.0438 L 13.6654 13.0897 L 13.6746 13.1356 L 13.6839 13.1815 L 13.6931 13.2273 L 13.7023 13.2731 L 13.7115 13.3189 L 13.7206 13.3646 L 13.7298 13.4104 L 13.7389 13.4561 L 13.7479 13.5018 L 13.757 13.5474 L 13.766 13.5931 L 13.775 13.6387 L 13.7839 13.6843 L 13.7929 13.7298 L 13.8018 13.7754 L 13.8107 13.8209 L 13.8196 13.8663 L 13.8284 13.9118 L 13.8372 13.9572 L 13.846 14.0027 L 13.8548 14.0481 L 13.8635 14.0934 L 13.8723 14.1388 L 13.881 14.1841 L 13.8897 14.2294 L 13.8983 14.2747 L 13.907 14.3199 L 13.9156 14.3651 L 13.9242 14.4103 L 13.9327 14.4555 L 13.9413 14.5007 L 13.9498 14.5458 L 13.9583 14.5909 L 13.9668 14.636 L 13.9753 14.6811 L 13.9837 14.7261 L 13.9921 14.7711 L 14.0005 14.8161 L 14.0089 14.8611 L 14.0172 14.9061 L 14.0256 14.951 L 13.9975 14.9773 L 13.9694 15.0035 L 13.9412 15.0297 L 13.913 15.0559 L 13.8847 15.0819 L 13.8564 15.108 L 13.828 15.1339 L 13.7996 15.1598 L 13.7711 15.1857 L 13.7426 15.2115 L 13.7141 15.2373 L 13.6854 15.263 L 13.6568 15.2886 L 13.6281 15.3142 L 13.5993 15.3398 L 13.5705 15.3653 L 13.5417 15.3907 L 13.5128 15.4161 L 13.4838 15.4414 L 13.4548 15.4667 L 13.4258 15.4919 L 13.3967 15.517 L 13.3676 15.5421 L 13.3384 15.5672 L 13.3091 15.5922 L 13.2799 15.6171 L 13.2505 15.642 L 13.2212 15.6669 L 13.1918 15.6916 L 13.1623 15.7164 L 13.1328 15.741 L 13.1032 15.7656 L 13.0736 15.7902 L 13.044 15.8147 L 13.0143 15.8391 L 12.9845 15.8635 L 12.9548 15.8879 L 12.9249 15.9121 L 12.895 15.9364 L 12.8651 15.9605 L 12.8352 15.9846 L 12.7278 16.0703 L 12.6976 16.0941 L 12.6674 16.1179 L 12.6371 16.1417 L 12.6068 16.1653 L 12.5765 16.189 L 12.5461 16.2125 L 12.5156 16.236 L 12.4851 16.2595 L 12.4546 16.2829 L 12.4241 16.3062 L 12.3934 16.3295 L 12.3628 16.3527 L 12.3321 16.3759 L 12.3013 16.399 L 12.2705 16.4221 L 12.2397 16.445 L 12.2088 16.468 L 12.1779 16.4909 L 12.147 16.5137 L 12.1159 16.5364 L 12.0849 16.5591 L 12.0538 16.5818 L 12.0227 16.6044 L 11.9915 16.6269 L 11.9603 16.6494 L 11.929 16.6718 L 11.8977 16.6941 L 11.8664 16.7164 L 11.835 16.7387 L 11.8036 16.7608 L 11.7721 16.7829 L 11.7406 16.805 L 11.7091 16.827 L 11.6775 16.8489 L 11.6458 16.8708 L 11.6142 16.8926 L 11.5824 16.9144 L 11.5507 16.9361 L 11.5189 16.9577 L 11.4871 16.9793 L 11.4552 17.0008 L 11.4132 16.9827 L 11.3713 16.9646 L 11.3293 16.9464 L 11.2873 16.9282 L 11.2452 16.91 L 11.2032 16.8917 L 11.1612 16.8734 L 11.1191 16.8551 L 11.077 16.8368 L 11.0349 16.8184 L 10.9928 16.8001 L 10.9506 16.7817 L 10.9085 16.7632 L 10.8663 16.7448 L 10.8241 16.7263 L 10.7819 16.7078 L 10.7396 16.6892 L 10.6974 16.6706 L 10.6551 16.652 L 10.6129 16.6334 L 10.5706 16.6148 L 10.5282 16.5961 L 10.4859 16.5774 L 10.4435 16.5586 L 10.4012 16.5399 L 10.3588 16.5211 L 10.3164 16.5022 L 10.274 16.4834 L 10.2315 16.4645 L 10.189 16.4456 L 10.1466 16.4266 L 10.1041 16.4077 L 10.0615 16.3887 L 10.019 16.3696 L 9.97644 16.3505 L 9.93386 16.3315 L 9.89127 16.3123 L 9.84865 16.2932 L 9.80602 16.274 L 9.76337 16.2547 L 9.72069 16.2355 L 9.678 16.2162 L 9.63529 16.1969 L 9.59256 16.1775 L 9.54981 16.1581 L 9.50704 16.1387 L 9.46425 16.1193 L 9.42144 16.0998 L 9.37861 16.0802 L 9.33576 16.0607 L 9.29289 16.0411 L 9.25 16.0215 L 9.25 16.0215 L 9.24555 16.0684 L 9.24108 16.1153 L 9.23659 16.1622 L 9.23209 16.2091 L 9.22756 16.2559 L 9.22301 16.3027 L 9.21845 16.3494 L 9.21386 16.3962 L 9.20926 16.4428 L 9.20464 16.4895 L 9.2 16.5361 L 9.19534 16.5827 L 9.19066 16.6292 L 9.18596 16.6758 L 9.18125 16.7222 L 9.17652 16.7687 L 9.17177 16.8151 L 9.167 16.8615 L 9.16222 16.9079 L 9.15742 16.9542 L 9.1526 17.0005 L 9.14777 17.0468 L 9.14292 17.093 L 9.13805 17.1392 L 9.13317 17.1854 L 9.12827 17.2315 L 9.12335 17.2776 L 9.11842 17.3237 L 9.11347 17.3697 L 9.10851 17.4158 L 9.10353 17.4618 L 9.09853 17.5077 L 9.09352 17.5536 L 9.0885 17.5995 L 9.08346 17.6454 L 9.0784 17.6913 L 9.07333 17.7371 L 9.06824 17.7829 L 9.06314 17.8286 L 9.05803 17.8743 L 9.0529 17.92 L 9.04776 17.9657 L 9.0426 18.0114 L 9.03743 18.057 L 9.03225 18.1026 L 9.02705 18.1481 L 9.02183 18.1936 L 9.01661 18.2392 L 9.01137 18.2846 L 9.00612 18.3301 L 9.00085 18.3755 L 8.99557 18.4209 L 8.96099 18.4377 L 8.92639 18.4545 L 8.89175 18.4712 L 8.85708 18.4879 L 8.82237 18.5045 L 8.78764 18.521 L 8.75288 18.5375 L 8.71808 18.5538 L 8.68326 18.5702 L 8.6484 18.5864 L 8.61351 18.6026 L 8.5786 18.6187 L 8.54365 18.6348 L 8.50867 18.6508 L 8.47367 18.6667 L 8.43863 18.6826 L 8.40356 18.6984 L 8.36847 18.7141 L 8.33334 18.7298 L 8.29819 18.7454 L 8.263 18.7609 L 8.22779 18.7764 L 8.19255 18.7918 L 8.15727 18.8071 L 8.12197 18.8224 L 8.08665 18.8376 L 8.05129 18.8528 L 8.0159 18.8678 L 7.98049 18.8828 L 7.94505 18.8978 L 7.90958 18.9127 L 7.87408 18.9275 L 7.83856 18.9422 L 7.80301 18.9569 L 7.76743 18.9715 L 7.73182 18.986 L 7.69618 19.0005 L 7.66052 19.0149 L 7.62483 19.0292 L 7.58912 19.0435 L 7.55337 19.0577 L 7.42552 19.1079 L 7.38966 19.1218 L 7.35377 19.1356 L 7.31786 19.1494 L 7.28192 19.1631 L 7.24595 19.1767 L 7.20996 19.1903 L 7.17394 19.2038 L 7.1379 19.2172 L 7.10183 19.2305 L 7.06574 19.2438 L 7.02962 19.2571 L 6.99348 19.2702 L 6.95731 19.2833 L 6.92112 19.2963 L 6.88491 19.3093 L 6.84867 19.3222 L 6.8124 19.335 L 6.77612 19.3477 L 6.73981 19.3604 L 6.70347 19.373 L 6.66711 19.3856 L 6.63073 19.398 L 6.59432 19.4104 L 6.55789 19.4228 L 6.52144 19.435 L 6.48497 19.4472 L 6.44847 19.4594 L 6.41195 19.4714 L 6.37541 19.4834 L 6.33884 19.4954 L 6.30225 19.5072 L 6.26564 19.519 L 6.22901 19.5307 L 6.19236 19.5424 L 6.15568 19.554 L 6.11898 19.5655 L 6.08226 19.5769 L 6.04552 19.5883 L 6.00876 19.5996 L 5.97198 19.6109 L 5.93518 19.622 L 5.90043 19.5923 L 5.86567 19.5626 L 5.83091 19.5329 L 5.79613 19.5031 L 5.76135 19.4733 L 5.72656 19.4435 L 5.69176 19.4136 L 5.65695 19.3837 L 5.62214 19.3538 L 5.58731 19.3238 L 5.55248 19.2939 L 5.51763 19.2638 L 5.48278 19.2338 L 5.44792 19.2037 L 5.41305 19.1736 L 5.37817 19.1435 L 5.34329 19.1133 L 5.30839 19.0831 L 5.27349 19.0529 L 5.23857 19.0226 L 5.20365 18.9923 L 5.16872 18.962 L 5.13378 18.9317 L 5.09883 18.9013 L 5.06387 18.8708 L 5.02891 18.8404 L 4.99393 18.8099 L 4.95895 18.7794 L 4.92395 18.7488 L 4.88895 18.7182 L 4.85394 18.6876 L 4.81892 18.6569 L 4.78389 18.6262 L 4.74885 18.5955 L 4.71381 18.5647 L 4.67875 18.5339 L 4.64369 18.5031 L 4.60861 18.4722 L 4.57353 18.4413 L 4.53844 18.4104 L 4.50334 18.3794 L 4.46823 18.3484 L 4.43311 18.3173 L 4.39798 18.2863 L 4.36284 18.2551 L 4.3277 18.224 L 4.29254 18.1928 L 4.25738 18.1615 L 4.22221 18.1302 L 4.18703 18.0989 L 4.15184 18.0676 L 4.11664 18.0362 L 4.11664 18.0362 L 4.09855 18.0797 L 4.08045 18.1232 L 4.06234 18.1667 L 4.04422 18.2102 L 4.02609 18.2536 L 4.00796 18.2969 L 3.98981 18.3403 L 3.97166 18.3836 L 3.9535 18.4268 L 3.93534 18.47 L 3.91716 18.5132 L 3.89898 18.5563 L 3.88079 18.5994 L 3.86259 18.6425 L 3.84438 18.6855 L 3.82617 18.7285 L 3.80795 18.7715 L 3.78972 18.8144 L 3.77149 18.8573 L 3.75324 18.9002 L 3.735 18.943 L 3.71674 18.9858 L 3.69848 19.0285 L 3.68021 19.0712 L 3.66193 19.1139 L 3.64365 19.1566 L 3.62536 19.1992 L 3.60706 19.2418 L 3.58876 19.2843 L 3.57045 19.3268 L 3.55214 19.3693 L 3.53382 19.4117 L 3.5155 19.4541 L 3.49716 19.4965 L 3.47883 19.5389 L 3.46048 19.5812 L 3.44213 19.6235 L 3.42378 19.6657 L 3.40542 19.7079 L 3.38705 19.7501 L 3.36868 19.7923 L 3.35031 19.8344 L 3.33192 19.8765 L 3.31354 19.9186 L 3.29515 19.9606 L 3.27675 20.0026 L 3.25835 20.0446 L 3.23994 20.0865 L 3.22153 20.1284 L 3.20311 20.1703 L 3.18469 20.2122 L 3.16627 20.254 L 3.12826 20.2599 L 3.09024 20.2657 L 3.05222 20.2715 L 3.01418 20.2772 L 2.97613 20.2828 L 2.93807 20.2884 L 2.9 20.2938 L 2.86192 20.2992 L 2.82383 20.3046 L 2.78573 20.3098 L 2.74762 20.315 L 2.7095 20.3202 L 2.67137 20.3252 L 2.63324 20.3302 L 2.59509 20.3351 L 2.55693 20.3399 L 2.51877 20.3447 L 2.48059 20.3494 L 2.44241 20.354 L 2.40422 20.3585 L 2.36602 20.363 L 2.32781 20.3674 L 2.28959 20.3717 L 2.25137 20.376 L 2.21313 20.3802 L 2.17489 20.3843 L 2.13664 20.3883 L 2.09839 20.3923 L 2.06012 20.3962 L 2.02185 20.4001 L 1.98358 20.4038 L 1.94529 20.4075 L 1.907 20.4111 L 1.8687 20.4147 L 1.8304 20.4181 L 1.79209 20.4215 L 1.75377 20.4248 L 1.71545 20.4281 L 1.67712 20.4313 L 1.63878 20.4344 L 1.60044 20.4374 L 1.46348 20.4477 L 1.42511 20.4504 L 1.38674 20.453 L 1.34836 20.4556 L 1.30998 20.4581 L 1.2716 20.4605 L 1.23321 20.4629 L 1.19482 20.4652 L 1.15642 20.4674 L 1.11801 20.4695 L 1.07961 20.4716 L 1.0412 20.4735 L 1.00278 20.4755 L 0.964367 20.4773 L 0.925947 20.4791 L 0.887523 20.4808 L 0.849096 20.4824 L 0.810666 20.484 L 0.772233 20.4854 L 0.733797 20.4869 L 0.695359 20.4882 L 0.656919 20.4895 L 0.618476 20.4907 L 0.580031 20.4918 L 0.541583 20.4928 L 0.503134 20.4938 L 0.464684 20.4947 L 0.426231 20.4956 L 0.387777 20.4963 L 0.349322 20.497 L 0.310865 20.4976 L 0.272408 20.4982 L 0.233949 20.4987 L 0.19549 20.4991 L 0.157029 20.4994 L 0.118569 20.4997 L 0.0801078 20.4998 L 0.0416464 20.5 L 0.00318488 20.5 L -0.0352766 20.5 L -0.073738 20.4999 L -0.112199 20.4997 L -0.136653 20.4611 L -0.161106 20.4224 L -0.185559 20.3838 L -0.210011 20.3451 L -0.234463 20.3063 L -0.258915 20.2676 L -0.283367 20.2288 L -0.307818 20.19 L -0.332269 20.1511 L -0.356719 20.1122 L -0.381169 20.0733 L -0.405618 20.0344 L -0.430066 19.9954 L -0.454514 19.9564 L -0.47896 19.9173 L -0.503407 19.8782 L -0.527852 19.8391 L -0.552296 19.8 L -0.57674 19.7608 L -0.601182 19.7216 L -0.625624 19.6824 L -0.650065 19.6431 L -0.674504 19.6038 L -0.698942 19.5644 L -0.723379 19.5251 L -0.747815 19.4857 L -0.772249 19.4462 L -0.796682 19.4067 L -0.821114 19.3672 L -0.845544 19.3277 L -0.869973 19.2881 L -0.8944 19.2485 L -0.918825 19.2088 L -0.943248 19.1691 L -0.96767 19.1294 L -0.99209 19.0896 L -1.01651 19.0498 L -1.04092 19.01 L -1.06534 18.9701 L -1.08975 18.9302 L -1.11416 18.8902 L -1.13857 18.8503 L -1.16297 18.8102 L -1.18738 18.7702 L -1.21178 18.7301 L -1.23617 18.6899 L -1.26057 18.6498 L -1.28496 18.6095 L -1.30935 18.5693 L -1.33374 18.529 L -1.35813 18.4886 L -1.38251 18.4483 L -1.38251 18.4483 L -1.41263 18.4846 L -1.44276 18.5208 L -1.47288 18.557 L -1.503 18.5932 L -1.53311 18.6293 L -1.56322 18.6654 L -1.59333 18.7015 L -1.62343 18.7375 L -1.65354 18.7735 L -1.68363 18.8094 L -1.71373 18.8453 L -1.74382 18.8812 L -1.77391 18.917 L -1.80399 18.9528 L -1.83407 18.9886 L -1.86415 19.0243 L -1.89422 19.06 L -1.9243 19.0956 L -1.95436 19.1312 L -1.98442 19.1668 L -2.01448 19.2023 L -2.04454 19.2378 L -2.07459 19.2733 L -2.10464 19.3087 L -2.13468 19.3441 L -2.16472 19.3795 L -2.19476 19.4148 L -2.22479 19.4501 L -2.25482 19.4854 L -2.28485 19.5206 L -2.31487 19.5558 L -2.34489 19.5909 L -2.3749 19.6261 L -2.40491 19.6612 L -2.43491 19.6962 L -2.46491 19.7312 L -2.49491 19.7662 L -2.5249 19.8012 L -2.55489 19.8361 L -2.58488 19.871 L -2.61486 19.9059 L -2.64484 19.9408 L -2.67481 19.9756 L -2.70478 20.0103 L -2.73474 20.0451 L -2.7647 20.0798 L -2.79466 20.1145 L -2.82461 20.1491 L -2.85456 20.1838 L -2.8845 20.2184 L -2.91444 20.2529 L -2.94437 20.2875 L -2.98243 20.2819 L -3.02048 20.2763 L -3.05852 20.2706 L -3.09654 20.2648 L -3.13456 20.2589 L -3.17256 20.253 L -3.21055 20.247 L -3.24853 20.241 L -3.2865 20.2348 L -3.32446 20.2286 L -3.36241 20.2224 L -3.40034 20.216 L -3.43827 20.2096 L -3.47618 20.2031 L -3.51407 20.1966 L -3.55196 20.1899 L -3.58983 20.1832 L -3.6277 20.1765 L -3.66554 20.1696 L -3.70338 20.1627 L -3.7412 20.1557 L -3.77901 20.1487 L -3.81681 20.1415 L -3.85459 20.1344 L -3.89236 20.1271 L -3.93011 20.1197 L -3.96785 20.1123 L -4.00558 20.1049 L -4.04329 20.0973 L -4.08099 20.0897 L -4.11868 20.082 L -4.15635 20.0742 L -4.194 20.0664 L -4.23164 20.0585 L -4.26927 20.0505 L -4.30688 20.0425 L -4.34447 20.0344 L -4.38205 20.0262 L -4.41962 20.0179 L -4.45717 20.0096 L -4.4947 20.0012 L -4.6286 19.9706 L -4.66606 19.9619 L -4.70351 19.9531 L -4.74094 19.9443 L -4.77835 19.9353 L -4.81574 19.9263 L -4.85312 19.9173 L -4.89048 19.9081 L -4.92782 19.8989 L -4.96514 19.8896 L -5.00245 19.8803 L -5.03974 19.8709 L -5.07701 19.8614 L -5.11427 19.8518 L -5.1515 19.8422 L -5.18872 19.8325 L -5.22592 19.8227 L -5.2631 19.8129 L -5.30027 19.803 L -5.33741 19.793 L -5.37454 19.7829 L -5.41164 19.7728 L -5.44873 19.7626 L -5.4858 19.7524 L -5.52285 19.742 L -5.55988 19.7316 L -5.59689 19.7212 L -5.63388 19.7106 L -5.67085 19.7 L -5.7078 19.6894 L -5.74473 19.6786 L -5.78164 19.6678 L -5.81853 19.6569 L -5.8554 19.646 L -5.89225 19.635 L -5.92908 19.6239 L -5.96589 19.6127 L -6.00267 19.6015 L -6.03944 19.5902 L -6.07618 19.5788 L -6.1129 19.5674 L -6.14961 19.5559 L -6.16159 19.5118 L -6.17357 19.4676 L -6.18554 19.4235 L -6.1975 19.3793 L -6.20945 19.3351 L -6.22139 19.2908 L -6.23332 19.2466 L -6.24524 19.2022 L -6.25715 19.1579 L -6.26905 19.1135 L -6.28094 19.0692 L -6.29283 19.0247 L -6.3047 18.9803 L -6.31656 18.9358 L -6.32841 18.8913 L -6.34026 18.8467 L -6.35209 18.8021 L -6.36391 18.7575 L -6.37572 18.7129 L -6.38752 18.6682 L -6.39931 18.6235 L -6.41109 18.5788 L -6.42285 18.534 L -6.43461 18.4892 L -6.44636 18.4444 L -6.45809 18.3995 L -6.46981 18.3546 L -6.48152 18.3097 L -6.49322 18.2648 L -6.50491 18.2198 L -6.51658 18.1747 L -6.52825 18.1297 L -6.5399 18.0846 L -6.55154 18.0395 L -6.56317 17.9943 L -6.57478 17.9491 L -6.58638 17.9039 L -6.59797 17.8586 L -6.60955 17.8133 L -6.62111 17.768 L -6.63266 17.7226 L -6.6442 17.6772 L -6.65572 17.6318 L -6.66723 17.5863 L -6.67873 17.5408 L -6.69021 17.4952 L -6.70168 17.4496 L -6.71313 17.404 L -6.72457 17.3584 L -6.736 17.3127 L -6.74741 17.2669 L -6.75881 17.2212 L -6.75881 17.2212 L -6.79829 17.247 L -6.83777 17.2727 L -6.87722 17.2984 L -6.91666 17.3241 L -6.95609 17.3498 L -6.9955 17.3754 L -7.0349 17.401 L -7.07428 17.4265 L -7.11365 17.452 L -7.15301 17.4775 L -7.19235 17.5029 L -7.23167 17.5283 L -7.27099 17.5537 L -7.31028 17.579 L -7.34957 17.6043 L -7.38883 17.6296 L -7.42809 17.6548 L -7.46733 17.68 L -7.50656 17.7052 L -7.54577 17.7303 L -7.58497 17.7554 L -7.62415 17.7805 L -7.66332 17.8055 L -7.70248 17.8305 L -7.74162 17.8555 L -7.78075 17.8804 L -7.81987 17.9053 L -7.85897 17.9302 L -7.89806 17.9551 L -7.93713 17.9799 L -7.97619 18.0046 L -8.01524 18.0294 L -8.05427 18.0541 L -8.09329 18.0788 L -8.1323 18.1035 L -8.17129 18.1281 L -8.21027 18.1527 L -8.24924 18.1773 L -8.28819 18.2018 L -8.32713 18.2263 L -8.36606 18.2508 L -8.40497 18.2753 L -8.44387 18.2997 L -8.48276 18.3241 L -8.52164 18.3485 L -8.5605 18.3728 L -8.59935 18.3971 L -8.63818 18.4214 L -8.677 18.4457 L -8.71581 18.4699 L -8.75461 18.4941 L -8.7934 18.5183 L -8.82812 18.5017 L -8.86282 18.4851 L -8.89749 18.4685 L -8.93212 18.4518 L -8.96672 18.435 L -9.00129 18.4181 L -9.03583 18.4012 L -9.07034 18.3842 L -9.10482 18.3672 L -9.13926 18.35 L -9.17367 18.3329 L -9.20805 18.3156 L -9.2424 18.2983 L -9.27671 18.2809 L -9.311 18.2635 L -9.34525 18.246 L -9.37946 18.2284 L -9.41365 18.2108 L -9.4478 18.1931 L -9.48191 18.1754 L -9.516 18.1575 L -9.55005 18.1396 L -9.58406 18.1217 L -9.61804 18.1037 L -9.65199 18.0856 L -9.68591 18.0675 L -9.71979 18.0493 L -9.75363 18.031 L -9.78745 18.0127 L -9.82122 17.9943 L -9.85497 17.9758 L -9.88868 17.9573 L -9.92235 17.9387 L -9.95599 17.9201 L -9.98959 17.9013 L -10.0232 17.8826 L -10.0567 17.8637 L -10.0902 17.8448 L -10.1237 17.8259 L -10.1571 17.8068 L -10.1905 17.7878 L -10.3094 17.7191 L -10.3426 17.6997 L -10.3758 17.6803 L -10.409 17.6608 L -10.4421 17.6412 L -10.4752 17.6216 L -10.5082 17.6019 L -10.5412 17.5822 L -10.5742 17.5624 L -10.6071 17.5425 L -10.64 17.5226 L -10.6729 17.5026 L -10.7057 17.4825 L -10.7385 17.4624 L -10.7712 17.4422 L -10.8039 17.422 L -10.8366 17.4017 L -10.8692 17.3813 L -10.9018 17.3609 L -10.9344 17.3404 L -10.9669 17.3199 L -10.9994 17.2993 L -11.0318 17.2786 L -11.0642 17.2579 L -11.0966 17.2371 L -11.1289 17.2162 L -11.1612 17.1953 L -11.1934 17.1743 L -11.2256 17.1533 L -11.2578 17.1322 L -11.2899 17.1111 L -11.322 17.0899 L -11.354 17.0686 L -11.386 17.0472 L -11.418 17.0259 L -11.4499 17.0044 L -11.4818 16.9829 L -11.5136 16.9613 L -11.5454 16.9397 L -11.5772 16.918 L -11.6089 16.8962 L -11.6406 16.8744 L -11.639 16.8288 L -11.6375 16.7831 L -11.6359 16.7373 L -11.6343 16.6916 L -11.6327 16.6458 L -11.6311 16.6 L -11.6294 16.5542 L -11.6277 16.5083 L -11.6261 16.4625 L -11.6244 16.4166 L -11.6226 16.3706 L -11.6209 16.3247 L -11.6191 16.2787 L -11.6174 16.2327 L -11.6156 16.1867 L -11.6137 16.1406 L -11.6119 16.0945 L -11.6101 16.0484 L -11.6082 16.0023 L -11.6063 15.9561 L -11.6044 15.9099 L -11.6025 15.8637 L -11.6005 15.8174 L -11.5985 15.7712 L -11.5965 15.7249 L -11.5945 15.6785 L -11.5925 15.6322 L -11.5905 15.5858 L -11.5884 15.5394 L -11.5863 15.493 L -11.5842 15.4465 L -11.582 15.4 L -11.5799 15.3535 L -11.5777 15.3069 L -11.5755 15.2603 L -11.5733 15.2137 L -11.571 15.1671 L -11.5688 15.1204 L -11.5665 15.0737 L -11.5642 15.027 L -11.5618 14.9802 L -11.5595 14.9334 L -11.5571 14.8866 L -11.5547 14.8398 L -11.5522 14.7929 L -11.5498 14.746 L -11.5473 14.699 L -11.5448 14.6521 L -11.5423 14.6051 L -11.5397 14.558 L -11.5372 14.511 L -11.5346 14.4639 L -11.5346 14.4639 L -11.5799 14.4769 L -11.6252 14.4899 L -11.6705 14.5028 L -11.7158 14.5158 L -11.761 14.5286 L -11.8062 14.5415 L -11.8514 14.5543 L -11.8966 14.5671 L -11.9417 14.5799 L -11.9868 14.5926 L -12.0319 14.6054 L -12.077 14.618 L -12.122 14.6307 L -12.167 14.6433 L -12.212 14.6559 L -12.257 14.6685 L -12.3019 14.681 L -12.3469 14.6935 L -12.3918 14.706 L -12.4366 14.7185 L -12.4815 14.7309 L -12.5263 14.7433 L -12.5711 14.7557 L -12.6159 14.768 L -12.6607 14.7803 L -12.7054 14.7926 L -12.7501 14.8049 L -12.7948 14.8172 L -12.8395 14.8294 L -12.8842 14.8416 L -12.9288 14.8537 L -12.9734 14.8659 L -13.018 14.878 L -13.0626 14.8901 L -13.1071 14.9021 L -13.1516 14.9142 L -13.1961 14.9262 L -13.2406 14.9382 L -13.285 14.9502 L -13.3295 14.9621 L -13.3739 14.974 L -13.4183 14.9859 L -13.4627 14.9978 L -13.507 15.0097 L -13.5513 15.0215 L -13.5957 15.0333 L -13.6399 15.0451 L -13.6842 15.0568 L -13.7285 15.0686 L -13.7727 15.0803 L -13.8169 15.092 L -13.8611 15.1037 L -13.8894 15.0776 L -13.9177 15.0515 L -13.9459 15.0254 L -13.974 14.9992 L -14.0022 14.973 L -14.0302 14.9467 L -14.0582 14.9203 L -14.0862 14.8939 L -14.1141 14.8675 L -14.142 14.841 L -14.1698 14.8144 L -14.1976 14.7878 L -14.2253 14.7611 L -14.253 14.7344 L -14.2806 14.7076 L -14.3082 14.6808 L -14.3357 14.6539 L -14.3632 14.627 L -14.3906 14.6001 L -14.4179 14.573 L -14.4453 14.546 L -14.4725 14.5188 L -14.4997 14.4916 L -14.5269 14.4644 L -14.554 14.4371 L -14.5811 14.4098 L -14.6081 14.3824 L -14.635 14.355 L -14.6619 14.3275 L -14.6888 14.3 L -14.7156 14.2724 L -14.7424 14.2448 L -14.7691 14.2171 L -14.7957 14.1893 L -14.8223 14.1616 L -14.8488 14.1337 L -14.8753 14.1058 L -14.9018 14.0779 L -14.9282 14.0499 L -14.9545 14.0219 L -14.9808 13.9938 L -15.0742 13.8931 L -15.1002 13.8648 L -15.1262 13.8365 L -15.1521 13.8081 L -15.178 13.7796 L -15.2039 13.7511 L -15.2296 13.7226 L -15.2553 13.694 L -15.281 13.6653 L -15.3066 13.6366 L -15.3322 13.6079 L -15.3577 13.5791 L -15.3831 13.5502 L -15.4085 13.5214 L -15.4339 13.4924 L -15.4592 13.4635 L -15.4844 13.4344 L -15.5096 13.4053 L -15.5347 13.3762 L -15.5598 13.3471 L -15.5848 13.3178 L -15.6097 13.2886 L -15.6346 13.2593 L -15.6595 13.2299 L -15.6843 13.2005 L -15.709 13.1711 L -15.7337 13.1416 L -15.7583 13.112 L -15.7829 13.0824 L -15.8074 13.0528 L -15.8319 13.0231 L -15.8563 12.9934 L -15.8806 12.9636 L -15.9049 12.9338 L -15.9292 12.9039 L -15.9534 12.874 L -15.9775 12.8441 L -16.0015 12.8141 L -16.0256 12.784 L -16.0495 12.7539 L -16.0734 12.7238 L -16.0973 12.6936 L -16.0823 12.6504 L -16.0674 12.6072 L -16.0524 12.564 L -16.0374 12.5208 L -16.0223 12.4775 L -16.0073 12.4342 L -15.9922 12.3909 L -15.9771 12.3476 L -15.9619 12.3042 L -15.9468 12.2609 L -15.9316 12.2175 L -15.9164 12.1741 L -15.9012 12.1307 L -15.8859 12.0872 L -15.8706 12.0438 L -15.8553 12.0003 L -15.84 11.9568 L -15.8246 11.9133 L -15.8092 11.8698 L -15.7938 11.8262 L -15.7784 11.7826 L -15.7629 11.739 L -15.7474 11.6954 L -15.7319 11.6518 L -15.7163 11.6081 L -15.7008 11.5644 L -15.6851 11.5207 L -15.6695 11.477 L -15.6539 11.4333 L -15.6382 11.3895 L -15.6224 11.3458 L -15.6067 11.302 L -15.5909 11.2581 L -15.5751 11.2143 L -15.5593 11.1704 L -15.5434 11.1265 L -15.5275 11.0826 L -15.5116 11.0387 L -15.4957 10.9948 L -15.4797 10.9508 L -15.4637 10.9068 L -15.4476 10.8628 L -15.4315 10.8187 L -15.4154 10.7747 L -15.3993 10.7306 L -15.3831 10.6865 L -15.3669 10.6424 L -15.3507 10.5982 L -15.3344 10.5541 L -15.3181 10.5099 L -15.3018 10.4657 L -15.2854 10.4214 L -15.2854 10.4214 L -15.3326 10.4205 L -15.3797 10.4195 L -15.4268 10.4186 L -15.4738 10.4176 L -15.5209 10.4166 L -15.5679 10.4155 L -15.6148 10.4145 L -15.6618 10.4134 L -15.7087 10.4123 L -15.7555 10.4112 L -15.8024 10.41 L -15.8492 10.4089 L -15.8959 10.4077 L -15.9427 10.4065 L -15.9894 10.4052 L -16.0361 10.404 L -16.0827 10.4027 L -16.1293 10.4014 L -16.1759 10.4001 L -16.2225 10.3988 L -16.269 10.3975 L -16.3155 10.3961 L -16.3619 10.3947 L -16.4084 10.3933 L -16.4548 10.3919 L -16.5012 10.3905 L -16.5475 10.389 L -16.5938 10.3875 L -16.6401 10.386 L -16.6864 10.3845 L -16.7326 10.383 L -16.7788 10.3814 L -16.825 10.3799 L -16.8711 10.3783 L -16.9173 10.3767 L -16.9634 10.3751 L -17.0094 10.3735 L -17.0555 10.3718 L -17.1015 10.3701 L -17.1475 10.3685 L -17.1934 10.3668 L -17.2393 10.365 L -17.2852 10.3633 L -17.3311 10.3616 L -17.377 10.3598 L -17.4228 10.358 L -17.4686 10.3562 L -17.5143 10.3544 L -17.5601 10.3526 L -17.6058 10.3507 L -17.6515 10.3489 L -17.6972 10.347 L -17.7165 10.3138 L -17.7359 10.2805 L -17.7551 10.2472 L -17.7743 10.2139 L -17.7934 10.1805 L -17.8125 10.1471 L -17.8315 10.1137 L -17.8505 10.0802 L -17.8693 10.0467 L -17.8882 10.0132 L -17.9069 9.9796 L -17.9256 9.94599 L -17.9442 9.91234 L -17.9628 9.87866 L -17.9813 9.84494 L -17.9997 9.81119 L -18.0181 9.7774 L -18.0364 9.74358 L -18.0547 9.70972 L -18.0729 9.67583 L -18.091 9.6419 L -18.109 9.60794 L -18.127 9.57395 L -18.145 9.53993 L -18.1628 9.50587 L -18.1806 9.47177 L -18.1984 9.43765 L -18.216 9.40349 L -18.2337 9.36929 L -18.2512 9.33507 L -18.2687 9.30081 L -18.2861 9.26652 L -18.3035 9.23219 L -18.3207 9.19784 L -18.338 9.16345 L -18.3551 9.12903 L -18.3722 9.09457 L -18.3893 9.06009 L -18.4062 9.02557 L -18.4231 8.99102 L -18.44 8.95644 L -18.4996 8.83269 L -18.5161 8.79797 L -18.5326 8.76322 L -18.549 8.72843 L -18.5653 8.69361 L -18.5816 8.65877 L -18.5978 8.62389 L -18.614 8.58898 L -18.63 8.55404 L -18.6461 8.51908 L -18.662 8.48408 L -18.6779 8.44905 L -18.6937 8.41399 L -18.7095 8.3789 L -18.7251 8.34379 L -18.7408 8.30864 L -18.7563 8.27346 L -18.7718 8.23826 L -18.7872 8.20303 L -18.8026 8.16776 L -18.8179 8.13247 L -18.8331 8.09715 L -18.8483 8.0618 L -18.8634 8.02643 L -18.8784 7.99102 L -18.8933 7.95559 L -18.9082 7.92013 L -18.9231 7.88464 L -18.9378 7.84912 L -18.9525 7.81358 L -18.9671 7.77801 L -18.9817 7.74241 L -18.9962 7.70678 L -19.0106 7.67113 L -19.025 7.63545 L -19.0393 7.59974 L -19.0535 7.564 L -19.0677 7.52824 L -19.0817 7.49246 L -19.0958 7.45664 L -19.1097 7.4208 L -19.1236 7.38494 L -19.0966 7.34807 L -19.0696 7.31119 L -19.0425 7.2743 L -19.0154 7.23739 L -18.9883 7.20048 L -18.9611 7.16356 L -18.934 7.12663 L -18.9068 7.08968 L -18.8795 7.05273 L -18.8523 7.01576 L -18.825 6.97878 L -18.7976 6.94179 L -18.7703 6.90479 L -18.7429 6.86778 L -18.7155 6.83076 L -18.688 6.79373 L -18.6606 6.75669 L -18.6331 6.71963 L -18.6055 6.68256 L -18.578 6.64549 L -18.5504 6.6084 L -18.5227 6.5713 L -18.4951 6.53419 L -18.4674 6.49707 L -18.4397 6.45993 L -18.4119 6.42279 L -18.3841 6.38563 L -18.3563 6.34846 L -18.3284 6.31129 L -18.3005 6.2741 L -18.2726 6.23689 L -18.2446 6.19968 L -18.2167 6.16246 L -18.1886 6.12522 L -18.1606 6.08797 L -18.1325 6.05071 L -18.1044 6.01344 L -18.0762 5.97616 L -18.048 5.93886 L -18.0198 5.90156 L -17.9915 5.86424 L -17.9632 5.82691 L -17.9348 5.78957 L -17.9065 5.75222 L -17.878 5.71485 L -17.8496 5.67748 L -17.8211 5.64009 L -17.7926 5.60269 L -17.764 5.56528 L -17.7354 5.52785 L -17.7068 5.49042 L -17.6781 5.45297 L -17.6781 5.45297 L -17.7229 5.43819 L -17.7676 5.42339 L -17.8124 5.40858 L -17.857 5.39376 L -17.9017 5.37893 L -17.9463 5.36408 L -17.9908 5.34923 L -18.0354 5.33436 L -18.0798 5.31949 L -18.1243 5.3046 L -18.1687 5.2897 L -18.2131 5.27479 L -18.2574 5.25987 L -18.3017 5.24495 L -18.346 5.23001 L -18.3902 5.21506 L -18.4344 5.2001 L -18.4786 5.18513 L -18.5227 5.17015 L -18.5668 5.15516 L -18.6109 5.14016 L -18.6549 5.12516 L -18.6989 5.11014 L -18.7429 5.09511 L -18.7868 5.08008 L -18.8307 5.06503 L -18.8746 5.04998 L -18.9184 5.03492 L -18.9622 5.01985 L -19.0059 5.00477 L -19.0497 4.98968 L -19.0934 4.97458 L -19.137 4.95948 L -19.1807 4.94436 L -19.2243 4.92924 L -19.2678 4.91411 L -19.3114 4.89897 L -19.3549 4.88383 L -19.3984 4.86867 L -19.4418 4.85351 L -19.4852 4.83834 L -19.5286 4.82317 L -19.5719 4.80798 L -19.6153 4.79279 L -19.6586 4.77759 L -19.7018 4.76238 L -19.745 4.74717 L -19.7882 4.73195 L -19.8314 4.71672 L -19.8746 4.70149 L -19.9177 4.68625 L -19.9608 4.671 L -19.9695 4.63354 L -19.9781 4.59606 L -19.9867 4.55857 L -19.9952 4.52107 L -20.0037 4.48355 L -20.0121 4.44601 L -20.0204 4.40845 L -20.0286 4.37088 L -20.0368 4.3333 L -20.0449 4.2957 L -20.0529 4.25808 L -20.0609 4.22045 L -20.0687 4.18281 L -20.0765 4.14515 L -20.0843 4.10747 L -20.092 4.06979 L -20.0996 4.03208 L -20.1071 3.99436 L -20.1145 3.95663 L -20.1219 3.91889 L -20.1293 3.88113 L -20.1365 3.84336 L -20.1437 3.80557 L -20.1508 3.76777 L -20.1578 3.72996 L -20.1648 3.69213 L -20.1717 3.65429 L -20.1785 3.61644 L -20.1852 3.57858 L -20.1919 3.5407 L -20.1985 3.50281 L -20.2051 3.46491 L -20.2115 3.42699 L -20.2179 3.38907 L -20.2242 3.35113 L -20.2305 3.31318 L -20.2367 3.27522 L -20.2428 3.23724 L -20.2488 3.19926 L -20.2548 3.16126 L -20.2607 3.12326 L -20.2812 2.98744 L -20.2867 2.94939 L -20.2922 2.91132 L -20.2976 2.87324 L -20.303 2.83516 L -20.3083 2.79706 L -20.3135 2.75895 L -20.3186 2.72084 L -20.3237 2.68271 L -20.3287 2.64458 L -20.3336 2.60643 L -20.3385 2.56828 L -20.3433 2.53011 L -20.348 2.49194 L -20.3526 2.45376 L -20.3572 2.41557 L -20.3617 2.37737 L -20.3661 2.33917 L -20.3705 2.30095 L -20.3747 2.26273 L -20.3789 2.2245 L -20.3831 2.18626 L -20.3872 2.14802 L -20.3911 2.10976 L -20.3951 2.0715 L -20.3989 2.03323 L -20.4027 1.99496 L -20.4064 1.95668 L -20.41 1.91839 L -20.4136 1.88009 L -20.4171 1.84179 L -20.4205 1.80348 L -20.4239 1.76516 L -20.4271 1.72684 L -20.4303 1.68851 L -20.4335 1.65018 L -20.4365 1.61184 L -20.4395 1.57349 L -20.4424 1.53514 L -20.4453 1.49679 L -20.4481 1.45843 L -20.4508 1.42006 L -20.4141 1.39279 L -20.3774 1.36552 L -20.3406 1.33824 L -20.3039 1.31097 L -20.2671 1.28369 L -20.2303 1.25641 L -20.1934 1.22912 L -20.1565 1.20184 L -20.1196 1.17455 L -20.0826 1.14727 L -20.0457 1.11998 L -20.0086 1.09269 L -19.9716 1.06539 L -19.9345 1.0381 L -19.8974 1.0108 L -19.8603 0.983504 L -19.8231 0.956204 L -19.7859 0.928903 L -19.7487 0.9016 L -19.7114 0.874296 L -19.6741 0.84699 L -19.6367 0.819683 L -19.5994 0.792375 L -19.562 0.765065 L -19.5245 0.737754 L -19.4871 0.710441 L -19.4495 0.683127 L -19.412 0.655812 L -19.3744 0.628496 L -19.3368 0.601179 L -19.2992 0.57386 L -19.2615 0.546541 L -19.2238 0.51922 L -19.186 0.491899 L -19.1482 0.464576 L -19.1104 0.437253 L -19.0725 0.409929 L -19.0346 0.382604 L -18.9967 0.355278 L -18.9587 0.327952 L -18.9207 0.300625 L -18.8826 0.273298 L -18.8445 0.245969 L -18.8064 0.218641 L -18.7683 0.191312 L -18.7301 0.163982 L -18.6918 0.136652 L -18.6535 0.109322 L -18.6152 0.0819919 L -18.5768 0.0546613 L -18.5384 0.0273307 L -18.5 -2.66454e-15 L -18.5 7.19573e-15 L -18.5384 -0.0273307 L -18.5768 -0.0546613 L -18.6152 -0.0819919 L -18.6535 -0.109322 L -18.6918 -0.136652 L -18.7301 -0.163982 L -18.7683 -0.191312 L -18.8064 -0.218641 L -18.8445 -0.245969 L -18.8826 -0.273298 L -18.9207 -0.300625 L -18.9587 -0.327952 L -18.9967 -0.355278 L -19.0346 -0.382604 L -19.0725 -0.409929 L -19.1104 -0.437253 L -19.1482 -0.464576 L -19.186 -0.491899 L -19.2238 -0.51922 L -19.2615 -0.546541 L -19.2992 -0.57386 L -19.3368 -0.601179 L -19.3744 -0.628496 L -19.412 -0.655812 L -19.4495 -0.683127 L -19.4871 -0.710441 L -19.5245 -0.737754 L -19.562 -0.765065 L -19.5994 -0.792375 L -19.6367 -0.819683 L -19.6741 -0.84699 L -19.7114 -0.874296 L -19.7487 -0.9016 L -19.7859 -0.928903 L -19.8231 -0.956204 L -19.8603 -0.983504 L -19.8974 -1.0108 L -19.9345 -1.0381 L -19.9716 -1.06539 L -20.0086 -1.09269 L -20.0457 -1.11998 L -20.0826 -1.14727 L -20.1196 -1.17455 L -20.1565 -1.20184 L -20.1934 -1.22912 L -20.2303 -1.25641 L -20.2671 -1.28369 L -20.3039 -1.31097 L -20.3406 -1.33824 L -20.3774 -1.36552 L -20.4141 -1.39279 L -20.4508 -1.42006 L -20.4481 -1.45843 L -20.4453 -1.49679 L -20.4424 -1.53514 L -20.4395 -1.57349 L -20.4365 -1.61184 L -20.4335 -1.65018 L -20.4303 -1.68851 L -20.4271 -1.72684 L -20.4239 -1.76516 L -20.4205 -1.80348 L -20.4171 -1.84179 L -20.4136 -1.88009 L -20.41 -1.91839 L -20.4064 -1.95668 L -20.4027 -1.99496 L -20.3989 -2.03323 L -20.3951 -2.0715 L -20.3911 -2.10976 L -20.3872 -2.14802 L -20.3831 -2.18626 L -20.3789 -2.2245 L -20.3747 -2.26273 L -20.3705 -2.30095 L -20.3661 -2.33917 L -20.3617 -2.37737 L -20.3572 -2.41557 L -20.3526 -2.45376 L -20.348 -2.49194 L -20.3433 -2.53011 L -20.3385 -2.56828 L -20.3336 -2.60643 L -20.3287 -2.64458 L -20.3237 -2.68271 L -20.3186 -2.72084 L -20.3135 -2.75895 L -20.3083 -2.79706 L -20.303 -2.83516 L -20.2976 -2.87324 L -20.2922 -2.91132 L -20.2867 -2.94939 L -20.2812 -2.98744 L -20.2607 -3.12326 L -20.2548 -3.16126 L -20.2488 -3.19926 L -20.2428 -3.23724 L -20.2367 -3.27522 L -20.2305 -3.31318 L -20.2242 -3.35113 L -20.2179 -3.38907 L -20.2115 -3.42699 L -20.2051 -3.46491 L -20.1985 -3.50281 L -20.1919 -3.5407 L -20.1852 -3.57858 L -20.1785 -3.61644 L -20.1717 -3.65429 L -20.1648 -3.69213 L -20.1578 -3.72996 L -20.1508 -3.76777 L -20.1437 -3.80557 L -20.1365 -3.84336 L -20.1293 -3.88113 L -20.1219 -3.91889 L -20.1145 -3.95663 L -20.1071 -3.99436 L -20.0996 -4.03208 L -20.092 -4.06979 L -20.0843 -4.10747 L -20.0765 -4.14515 L -20.0687 -4.18281 L -20.0609 -4.22045 L -20.0529 -4.25808 L -20.0449 -4.2957 L -20.0368 -4.3333 L -20.0286 -4.37088 L -20.0204 -4.40845 L -20.0121 -4.44601 L -20.0037 -4.48355 L -19.9952 -4.52107 L -19.9867 -4.55857 L -19.9781 -4.59606 L -19.9695 -4.63354 L -19.9608 -4.671 L -19.9177 -4.68625 L -19.8746 -4.70149 L -19.8314 -4.71672 L -19.7882 -4.73195 L -19.745 -4.74717 L -19.7018 -4.76238 L -19.6586 -4.77759 L -19.6153 -4.79279 L -19.5719 -4.80798 L -19.5286 -4.82317 L -19.4852 -4.83834 L -19.4418 -4.85351 L -19.3984 -4.86867 L -19.3549 -4.88383 L -19.3114 -4.89897 L -19.2678 -4.91411 L -19.2243 -4.92924 L -19.1807 -4.94436 L -19.137 -4.95948 L -19.0934 -4.97458 L -19.0497 -4.98968 L -19.0059 -5.00477 L -18.9622 -5.01985 L -18.9184 -5.03492 L -18.8746 -5.04998 L -18.8307 -5.06503 L -18.7868 -5.08008 L -18.7429 -5.09511 L -18.6989 -5.11014 L -18.6549 -5.12516 L -18.6109 -5.14016 L -18.5668 -5.15516 L -18.5227 -5.17015 L -18.4786 -5.18513 L -18.4344 -5.2001 L -18.3902 -5.21506 L -18.346 -5.23001 L -18.3017 -5.24495 L -18.2574 -5.25987 L -18.2131 -5.27479 L -18.1687 -5.2897 L -18.1243 -5.3046 L -18.0798 -5.31949 L -18.0354 -5.33436 L -17.9908 -5.34923 L -17.9463 -5.36408 L -17.9017 -5.37893 L -17.857 -5.39376 L -17.8124 -5.40858 L -17.7676 -5.42339 L -17.7229 -5.43819 L -17.6781 -5.45297 L -17.6781 -5.45297 L -17.7068 -5.49042 L -17.7354 -5.52785 L -17.764 -5.56528 L -17.7926 -5.60269 L -17.8211 -5.64009 L -17.8496 -5.67748 L -17.878 -5.71485 L -17.9065 -5.75222 L -17.9348 -5.78957 L -17.9632 -5.82691 L -17.9915 -5.86424 L -18.0198 -5.90156 L -18.048 -5.93886 L -18.0762 -5.97616 L -18.1044 -6.01344 L -18.1325 -6.05071 L -18.1606 -6.08797 L -18.1886 -6.12522 L -18.2167 -6.16246 L -18.2446 -6.19968 L -18.2726 -6.23689 L -18.3005 -6.2741 L -18.3284 -6.31129 L -18.3563 -6.34846 L -18.3841 -6.38563 L -18.4119 -6.42279 L -18.4397 -6.45993 L -18.4674 -6.49707 L -18.4951 -6.53419 L -18.5227 -6.5713 L -18.5504 -6.6084 L -18.578 -6.64549 L -18.6055 -6.68256 L -18.6331 -6.71963 L -18.6606 -6.75669 L -18.688 -6.79373 L -18.7155 -6.83076 L -18.7429 -6.86778 L -18.7703 -6.90479 L -18.7976 -6.94179 L -18.825 -6.97878 L -18.8523 -7.01576 L -18.8795 -7.05273 L -18.9068 -7.08968 L -18.934 -7.12663 L -18.9611 -7.16356 L -18.9883 -7.20048 L -19.0154 -7.23739 L -19.0425 -7.2743 L -19.0696 -7.31119 L -19.0966 -7.34807 L -19.1236 -7.38494 L -19.1097 -7.4208 L -19.0958 -7.45664 L -19.0817 -7.49246 L -19.0677 -7.52824 L -19.0535 -7.564 L -19.0393 -7.59974 L -19.025 -7.63545 L -19.0106 -7.67113 L -18.9962 -7.70678 L -18.9817 -7.74241 L -18.9671 -7.77801 L -18.9525 -7.81358 L -18.9378 -7.84912 L -18.9231 -7.88464 L -18.9082 -7.92013 L -18.8933 -7.95559 L -18.8784 -7.99102 L -18.8634 -8.02643 L -18.8483 -8.0618 L -18.8331 -8.09715 L -18.8179 -8.13247 L -18.8026 -8.16776 L -18.7872 -8.20303 L -18.7718 -8.23826 L -18.7563 -8.27346 L -18.7408 -8.30864 L -18.7251 -8.34379 L -18.7095 -8.3789 L -18.6937 -8.41399 L -18.6779 -8.44905 L -18.662 -8.48408 L -18.6461 -8.51908 L -18.63 -8.55404 L -18.614 -8.58898 L -18.5978 -8.62389 L -18.5816 -8.65877 L -18.5653 -8.69361 L -18.549 -8.72843 L -18.5326 -8.76322 L -18.5161 -8.79797 L -18.4996 -8.83269 L -18.44 -8.95644 L -18.4231 -8.99102 L -18.4062 -9.02557 L -18.3893 -9.06009 L -18.3722 -9.09457 L -18.3551 -9.12903 L -18.338 -9.16345 L -18.3207 -9.19784 L -18.3035 -9.23219 L -18.2861 -9.26652 L -18.2687 -9.30081 L -18.2512 -9.33507 L -18.2337 -9.36929 L -18.216 -9.40349 L -18.1984 -9.43765 L -18.1806 -9.47177 L -18.1628 -9.50587 L -18.145 -9.53993 L -18.127 -9.57395 L -18.109 -9.60794 L -18.091 -9.6419 L -18.0729 -9.67583 L -18.0547 -9.70972 L -18.0364 -9.74358 L -18.0181 -9.7774 L -17.9997 -9.81119 L -17.9813 -9.84494 L -17.9628 -9.87866 L -17.9442 -9.91234 L -17.9256 -9.94599 L -17.9069 -9.9796 L -17.8882 -10.0132 L -17.8693 -10.0467 L -17.8505 -10.0802 L -17.8315 -10.1137 L -17.8125 -10.1471 L -17.7934 -10.1805 L -17.7743 -10.2139 L -17.7551 -10.2472 L -17.7359 -10.2805 L -17.7165 -10.3138 L -17.6972 -10.347 L -17.6515 -10.3489 L -17.6058 -10.3507 L -17.5601 -10.3526 L -17.5143 -10.3544 L -17.4686 -10.3562 L -17.4228 -10.358 L -17.377 -10.3598 L -17.3311 -10.3616 L -17.2852 -10.3633 L -17.2393 -10.365 L -17.1934 -10.3668 L -17.1475 -10.3685 L -17.1015 -10.3701 L -17.0555 -10.3718 L -17.0094 -10.3735 L -16.9634 -10.3751 L -16.9173 -10.3767 L -16.8711 -10.3783 L -16.825 -10.3799 L -16.7788 -10.3814 L -16.7326 -10.383 L -16.6864 -10.3845 L -16.6401 -10.386 L -16.5938 -10.3875 L -16.5475 -10.389 L -16.5012 -10.3905 L -16.4548 -10.3919 L -16.4084 -10.3933 L -16.3619 -10.3947 L -16.3155 -10.3961 L -16.269 -10.3975 L -16.2225 -10.3988 L -16.1759 -10.4001 L -16.1293 -10.4014 L -16.0827 -10.4027 L -16.0361 -10.404 L -15.9894 -10.4052 L -15.9427 -10.4065 L -15.8959 -10.4077 L -15.8492 -10.4089 L -15.8024 -10.41 L -15.7555 -10.4112 L -15.7087 -10.4123 L -15.6618 -10.4134 L -15.6148 -10.4145 L -15.5679 -10.4155 L -15.5209 -10.4166 L -15.4738 -10.4176 L -15.4268 -10.4186 L -15.3797 -10.4195 L -15.3326 -10.4205 L -15.2854 -10.4214 L -15.2854 -10.4214 L -15.3018 -10.4657 L -15.3181 -10.5099 L -15.3344 -10.5541 L -15.3507 -10.5982 L -15.3669 -10.6424 L -15.3831 -10.6865 L -15.3993 -10.7306 L -15.4154 -10.7747 L -15.4315 -10.8187 L -15.4476 -10.8628 L -15.4637 -10.9068 L -15.4797 -10.9508 L -15.4957 -10.9948 L -15.5116 -11.0387 L -15.5275 -11.0826 L -15.5434 -11.1265 L -15.5593 -11.1704 L -15.5751 -11.2143 L -15.5909 -11.2581 L -15.6067 -11.302 L -15.6224 -11.3458 L -15.6382 -11.3895 L -15.6539 -11.4333 L -15.6695 -11.477 L -15.6851 -11.5207 L -15.7008 -11.5644 L -15.7163 -11.6081 L -15.7319 -11.6518 L -15.7474 -11.6954 L -15.7629 -11.739 L -15.7784 -11.7826 L -15.7938 -11.8262 L -15.8092 -11.8698 L -15.8246 -11.9133 L -15.84 -11.9568 L -15.8553 -12.0003 L -15.8706 -12.0438 L -15.8859 -12.0872 L -15.9012 -12.1307 L -15.9164 -12.1741 L -15.9316 -12.2175 L -15.9468 -12.2609 L -15.9619 -12.3042 L -15.9771 -12.3476 L -15.9922 -12.3909 L -16.0073 -12.4342 L -16.0223 -12.4775 L -16.0374 -12.5208 L -16.0524 -12.564 L -16.0674 -12.6072 L -16.0823 -12.6504 L -16.0973 -12.6936 L -16.0734 -12.7238 L -16.0495 -12.7539 L -16.0256 -12.784 L -16.0015 -12.8141 L -15.9775 -12.8441 L -15.9534 -12.874 L -15.9292 -12.9039 L -15.9049 -12.9338 L -15.8806 -12.9636 L -15.8563 -12.9934 L -15.8319 -13.0231 L -15.8074 -13.0528 L -15.7829 -13.0824 L -15.7583 -13.112 L -15.7337 -13.1416 L -15.709 -13.1711 L -15.6843 -13.2005 L -15.6595 -13.2299 L -15.6346 -13.2593 L -15.6097 -13.2886 L -15.5848 -13.3178 L -15.5598 -13.3471 L -15.5347 -13.3762 L -15.5096 -13.4053 L -15.4844 -13.4344 L -15.4592 -13.4635 L -15.4339 -13.4924 L -15.4085 -13.5214 L -15.3831 -13.5502 L -15.3577 -13.5791 L -15.3322 -13.6079 L -15.3066 -13.6366 L -15.281 -13.6653 L -15.2553 -13.694 L -15.2296 -13.7226 L -15.2039 -13.7511 L -15.178 -13.7796 L -15.1521 -13.8081 L -15.1262 -13.8365 L -15.1002 -13.8648 L -15.0742 -13.8931 L -14.9808 -13.9938 L -14.9545 -14.0219 L -14.9282 -14.0499 L -14.9018 -14.0779 L -14.8753 -14.1058 L -14.8488 -14.1337 L -14.8223 -14.1616 L -14.7957 -14.1893 L -14.7691 -14.2171 L -14.7424 -14.2448 L -14.7156 -14.2724 L -14.6888 -14.3 L -14.6619 -14.3275 L -14.635 -14.355 L -14.6081 -14.3824 L -14.5811 -14.4098 L -14.554 -14.4371 L -14.5269 -14.4644 L -14.4997 -14.4916 L -14.4725 -14.5188 L -14.4453 -14.546 L -14.4179 -14.573 L -14.3906 -14.6001 L -14.3632 -14.627 L -14.3357 -14.6539 L -14.3082 -14.6808 L -14.2806 -14.7076 L -14.253 -14.7344 L -14.2253 -14.7611 L -14.1976 -14.7878 L -14.1698 -14.8144 L -14.142 -14.841 L -14.1141 -14.8675 L -14.0862 -14.8939 L -14.0582 -14.9203 L -14.0302 -14.9467 L -14.0022 -14.973 L -13.974 -14.9992 L -13.9459 -15.0254 L -13.9177 -15.0515 L -13.8894 -15.0776 L -13.8611 -15.1037 L -13.8169 -15.092 L -13.7727 -15.0803 L -13.7285 -15.0686 L -13.6842 -15.0568 L -13.6399 -15.0451 L -13.5957 -15.0333 L -13.5513 -15.0215 L -13.507 -15.0097 L -13.4627 -14.9978 L -13.4183 -14.9859 L -13.3739 -14.974 L -13.3295 -14.9621 L -13.285 -14.9502 L -13.2406 -14.9382 L -13.1961 -14.9262 L -13.1516 -14.9142 L -13.1071 -14.9021 L -13.0626 -14.8901 L -13.018 -14.878 L -12.9734 -14.8659 L -12.9288 -14.8537 L -12.8842 -14.8416 L -12.8395 -14.8294 L -12.7948 -14.8172 L -12.7501 -14.8049 L -12.7054 -14.7926 L -12.6607 -14.7803 L -12.6159 -14.768 L -12.5711 -14.7557 L -12.5263 -14.7433 L -12.4815 -14.7309 L -12.4366 -14.7185 L -12.3918 -14.706 L -12.3469 -14.6935 L -12.3019 -14.681 L -12.257 -14.6685 L -12.212 -14.6559 L -12.167 -14.6433 L -12.122 -14.6307 L -12.077 -14.618 L -12.0319 -14.6054 L -11.9868 -14.5926 L -11.9417 -14.5799 L -11.8966 -14.5671 L -11.8514 -14.5543 L -11.8062 -14.5415 L -11.761 -14.5286 L -11.7158 -14.5158 L -11.6705 -14.5028 L -11.6252 -14.4899 L -11.5799 -14.4769 L -11.5346 -14.4639 L -11.5346 -14.4639 L -11.5372 -14.511 L -11.5397 -14.558 L -11.5423 -14.6051 L -11.5448 -14.6521 L -11.5473 -14.699 L -11.5498 -14.746 L -11.5522 -14.7929 L -11.5547 -14.8398 L -11.5571 -14.8866 L -11.5595 -14.9334 L -11.5618 -14.9802 L -11.5642 -15.027 L -11.5665 -15.0737 L -11.5688 -15.1204 L -11.571 -15.1671 L -11.5733 -15.2137 L -11.5755 -15.2603 L -11.5777 -15.3069 L -11.5799 -15.3535 L -11.582 -15.4 L -11.5842 -15.4465 L -11.5863 -15.493 L -11.5884 -15.5394 L -11.5905 -15.5858 L -11.5925 -15.6322 L -11.5945 -15.6785 L -11.5965 -15.7249 L -11.5985 -15.7712 L -11.6005 -15.8174 L -11.6025 -15.8637 L -11.6044 -15.9099 L -11.6063 -15.9561 L -11.6082 -16.0023 L -11.6101 -16.0484 L -11.6119 -16.0945 L -11.6137 -16.1406 L -11.6156 -16.1867 L -11.6174 -16.2327 L -11.6191 -16.2787 L -11.6209 -16.3247 L -11.6226 -16.3706 L -11.6244 -16.4166 L -11.6261 -16.4625 L -11.6277 -16.5083 L -11.6294 -16.5542 L -11.6311 -16.6 L -11.6327 -16.6458 L -11.6343 -16.6916 L -11.6359 -16.7373 L -11.6375 -16.7831 L -11.639 -16.8288 L -11.6406 -16.8744 L -11.6089 -16.8962 L -11.5772 -16.918 L -11.5454 -16.9397 L -11.5136 -16.9613 L -11.4818 -16.9829 L -11.4499 -17.0044 L -11.418 -17.0259 L -11.386 -17.0472 L -11.354 -17.0686 L -11.322 -17.0899 L -11.2899 -17.1111 L -11.2578 -17.1322 L -11.2256 -17.1533 L -11.1934 -17.1743 L -11.1612 -17.1953 L -11.1289 -17.2162 L -11.0966 -17.2371 L -11.0642 -17.2579 L -11.0318 -17.2786 L -10.9994 -17.2993 L -10.9669 -17.3199 L -10.9344 -17.3404 L -10.9018 -17.3609 L -10.8692 -17.3813 L -10.8366 -17.4017 L -10.8039 -17.422 L -10.7712 -17.4422 L -10.7385 -17.4624 L -10.7057 -17.4825 L -10.6729 -17.5026 L -10.64 -17.5226 L -10.6071 -17.5425 L -10.5742 -17.5624 L -10.5412 -17.5822 L -10.5082 -17.6019 L -10.4752 -17.6216 L -10.4421 -17.6412 L -10.409 -17.6608 L -10.3758 -17.6803 L -10.3426 -17.6997 L -10.3094 -17.7191 L -10.1905 -17.7878 L -10.1571 -17.8068 L -10.1237 -17.8259 L -10.0902 -17.8448 L -10.0567 -17.8637 L -10.0232 -17.8826 L -9.98959 -17.9013 L -9.95599 -17.9201 L -9.92235 -17.9387 L -9.88868 -17.9573 L -9.85497 -17.9758 L -9.82122 -17.9943 L -9.78745 -18.0127 L -9.75363 -18.031 L -9.71979 -18.0493 L -9.68591 -18.0675 L -9.65199 -18.0856 L -9.61804 -18.1037 L -9.58406 -18.1217 L -9.55005 -18.1396 L -9.516 -18.1575 L -9.48191 -18.1754 L -9.4478 -18.1931 L -9.41365 -18.2108 L -9.37946 -18.2284 L -9.34525 -18.246 L -9.311 -18.2635 L -9.27671 -18.2809 L -9.2424 -18.2983 L -9.20805 -18.3156 L -9.17367 -18.3329 L -9.13926 -18.35 L -9.10482 -18.3672 L -9.07034 -18.3842 L -9.03583 -18.4012 L -9.00129 -18.4181 L -8.96672 -18.435 L -8.93212 -18.4518 L -8.89749 -18.4685 L -8.86282 -18.4851 L -8.82812 -18.5017 L -8.7934 -18.5183 L -8.75461 -18.4941 L -8.71581 -18.4699 L -8.677 -18.4457 L -8.63818 -18.4214 L -8.59935 -18.3971 L -8.5605 -18.3728 L -8.52164 -18.3485 L -8.48276 -18.3241 L -8.44387 -18.2997 L -8.40497 -18.2753 L -8.36606 -18.2508 L -8.32713 -18.2263 L -8.28819 -18.2018 L -8.24924 -18.1773 L -8.21027 -18.1527 L -8.17129 -18.1281 L -8.1323 -18.1035 L -8.09329 -18.0788 L -8.05427 -18.0541 L -8.01524 -18.0294 L -7.97619 -18.0046 L -7.93713 -17.9799 L -7.89806 -17.9551 L -7.85897 -17.9302 L -7.81987 -17.9053 L -7.78075 -17.8804 L -7.74162 -17.8555 L -7.70248 -17.8305 L -7.66332 -17.8055 L -7.62415 -17.7805 L -7.58497 -17.7554 L -7.54577 -17.7303 L -7.50656 -17.7052 L -7.46733 -17.68 L -7.42809 -17.6548 L -7.38883 -17.6296 L -7.34957 -17.6043 L -7.31028 -17.579 L -7.27099 -17.5537 L -7.23167 -17.5283 L -7.19235 -17.5029 L -7.15301 -17.4775 L -7.11365 -17.452 L -7.07428 -17.4265 L -7.0349 -17.401 L -6.9955 -17.3754 L -6.95609 -17.3498 L -6.91666 -17.3241 L -6.87722 -17.2984 L -6.83777 -17.2727 L -6.79829 -17.247 L -6.75881 -17.2212 L -6.75881 -17.2212 L -6.74741 -17.2669 L -6.736 -17.3127 L -6.72457 -17.3584 L -6.71313 -17.404 L -6.70168 -17.4496 L -6.69021 -17.4952 L -6.67873 -17.5408 L -6.66723 -17.5863 L -6.65572 -17.6318 L -6.6442 -17.6772 L -6.63266 -17.7226 L -6.62111 -17.768 L -6.60955 -17.8133 L -6.59797 -17.8586 L -6.58638 -17.9039 L -6.57478 -17.9491 L -6.56317 -17.9943 L -6.55154 -18.0395 L -6.5399 -18.0846 L -6.52825 -18.1297 L -6.51658 -18.1747 L -6.50491 -18.2198 L -6.49322 -18.2648 L -6.48152 -18.3097 L -6.46981 -18.3546 L -6.45809 -18.3995 L -6.44636 -18.4444 L -6.43461 -18.4892 L -6.42285 -18.534 L -6.41109 -18.5788 L -6.39931 -18.6235 L -6.38752 -18.6682 L -6.37572 -18.7129 L -6.36391 -18.7575 L -6.35209 -18.8021 L -6.34026 -18.8467 L -6.32841 -18.8913 L -6.31656 -18.9358 L -6.3047 -18.9803 L -6.29283 -19.0247 L -6.28094 -19.0692 L -6.26905 -19.1135 L -6.25715 -19.1579 L -6.24524 -19.2022 L -6.23332 -19.2466 L -6.22139 -19.2908 L -6.20945 -19.3351 L -6.1975 -19.3793 L -6.18554 -19.4235 L -6.17357 -19.4676 L -6.16159 -19.5118 L -6.14961 -19.5559 L -6.1129 -19.5674 L -6.07618 -19.5788 L -6.03944 -19.5902 L -6.00267 -19.6015 L -5.96589 -19.6127 L -5.92908 -19.6239 L -5.89225 -19.635 L -5.8554 -19.646 L -5.81853 -19.6569 L -5.78164 -19.6678 L -5.74473 -19.6786 L -5.7078 -19.6894 L -5.67085 -19.7 L -5.63388 -19.7106 L -5.59689 -19.7212 L -5.55988 -19.7316 L -5.52285 -19.742 L -5.4858 -19.7524 L -5.44873 -19.7626 L -5.41164 -19.7728 L -5.37454 -19.7829 L -5.33741 -19.793 L -5.30027 -19.803 L -5.2631 -19.8129 L -5.22592 -19.8227 L -5.18872 -19.8325 L -5.1515 -19.8422 L -5.11427 -19.8518 L -5.07701 -19.8614 L -5.03974 -19.8709 L -5.00245 -19.8803 L -4.96514 -19.8896 L -4.92782 -19.8989 L -4.89048 -19.9081 L -4.85312 -19.9173 L -4.81574 -19.9263 L -4.77835 -19.9353 L -4.74094 -19.9443 L -4.70351 -19.9531 L -4.66606 -19.9619 L -4.6286 -19.9706 L -4.4947 -20.0012 L -4.45717 -20.0096 L -4.41962 -20.0179 L -4.38205 -20.0262 L -4.34447 -20.0344 L -4.30688 -20.0425 L -4.26927 -20.0505 L -4.23164 -20.0585 L -4.194 -20.0664 L -4.15635 -20.0742 L -4.11868 -20.082 L -4.08099 -20.0897 L -4.04329 -20.0973 L -4.00558 -20.1049 L -3.96785 -20.1123 L -3.93011 -20.1197 L -3.89236 -20.1271 L -3.85459 -20.1344 L -3.81681 -20.1415 L -3.77901 -20.1487 L -3.7412 -20.1557 L -3.70338 -20.1627 L -3.66554 -20.1696 L -3.6277 -20.1765 L -3.58983 -20.1832 L -3.55196 -20.1899 L -3.51407 -20.1966 L -3.47618 -20.2031 L -3.43827 -20.2096 L -3.40034 -20.216 L -3.36241 -20.2224 L -3.32446 -20.2286 L -3.2865 -20.2348 L -3.24853 -20.241 L -3.21055 -20.247 L -3.17256 -20.253 L -3.13456 -20.2589 L -3.09654 -20.2648 L -3.05852 -20.2706 L -3.02048 -20.2763 L -2.98243 -20.2819 L -2.94437 -20.2875 L -2.91444 -20.2529 L -2.8845 -20.2184 L -2.85456 -20.1838 L -2.82461 -20.1491 L -2.79466 -20.1145 L -2.7647 -20.0798 L -2.73474 -20.0451 L -2.70478 -20.0103 L -2.67481 -19.9756 L -2.64484 -19.9408 L -2.61486 -19.9059 L -2.58488 -19.871 L -2.55489 -19.8361 L -2.5249 -19.8012 L -2.49491 -19.7662 L -2.46491 -19.7312 L -2.43491 -19.6962 L -2.40491 -19.6612 L -2.3749 -19.6261 L -2.34489 -19.5909 L -2.31487 -19.5558 L -2.28485 -19.5206 L -2.25482 -19.4854 L -2.22479 -19.4501 L -2.19476 -19.4148 L -2.16472 -19.3795 L -2.13468 -19.3441 L -2.10464 -19.3087 L -2.07459 -19.2733 L -2.04454 -19.2378 L -2.01448 -19.2023 L -1.98442 -19.1668 L -1.95436 -19.1312 L -1.9243 -19.0956 L -1.89422 -19.06 L -1.86415 -19.0243 L -1.83407 -18.9886 L -1.80399 -18.9528 L -1.77391 -18.917 L -1.74382 -18.8812 L -1.71373 -18.8453 L -1.68363 -18.8094 L -1.65354 -18.7735 L -1.62343 -18.7375 L -1.59333 -18.7015 L -1.56322 -18.6654 L -1.53311 -18.6293 L -1.503 -18.5932 L -1.47288 -18.557 L -1.44276 -18.5208 L -1.41263 -18.4846 L -1.38251 -18.4483 L -1.38251 -18.4483 L -1.35813 -18.4886 L -1.33374 -18.529 L -1.30935 -18.5693 L -1.28496 -18.6095 L -1.26057 -18.6498 L -1.23617 -18.6899 L -1.21178 -18.7301 L -1.18738 -18.7702 L -1.16297 -18.8102 L -1.13857 -18.8503 L -1.11416 -18.8902 L -1.08975 -18.9302 L -1.06534 -18.9701 L -1.04092 -19.01 L -1.01651 -19.0498 L -0.99209 -19.0896 L -0.96767 -19.1294 L -0.943248 -19.1691 L -0.918825 -19.2088 L -0.8944 -19.2485 L -0.869973 -19.2881 L -0.845544 -19.3277 L -0.821114 -19.3672 L -0.796682 -19.4067 L -0.772249 -19.4462 L -0.747815 -19.4857 L -0.723379 -19.5251 L -0.698942 -19.5644 L -0.674504 -19.6038 L -0.650065 -19.6431 L -0.625624 -19.6824 L -0.601182 -19.7216 L -0.57674 -19.7608 L -0.552296 -19.8 L -0.527852 -19.8391 L -0.503407 -19.8782 L -0.47896 -19.9173 L -0.454514 -19.9564 L -0.430066 -19.9954 L -0.405618 -20.0344 L -0.381169 -20.0733 L -0.356719 -20.1122 L -0.332269 -20.1511 L -0.307818 -20.19 L -0.283367 -20.2288 L -0.258915 -20.2676 L -0.234463 -20.3063 L -0.210011 -20.3451 L -0.185559 -20.3838 L -0.161106 -20.4224 L -0.136653 -20.4611 L -0.112199 -20.4997 L -0.073738 -20.4999 L -0.0352766 -20.5 L 0.00318488 -20.5 L 0.0416464 -20.5 L 0.0801078 -20.4998 L 0.118569 -20.4997 L 0.157029 -20.4994 L 0.19549 -20.4991 L 0.233949 -20.4987 L 0.272408 -20.4982 L 0.310865 -20.4976 L 0.349322 -20.497 L 0.387777 -20.4963 L 0.426231 -20.4956 L 0.464684 -20.4947 L 0.503134 -20.4938 L 0.541583 -20.4928 L 0.580031 -20.4918 L 0.618476 -20.4907 L 0.656919 -20.4895 L 0.695359 -20.4882 L 0.733797 -20.4869 L 0.772233 -20.4854 L 0.810666 -20.484 L 0.849096 -20.4824 L 0.887523 -20.4808 L 0.925947 -20.4791 L 0.964367 -20.4773 L 1.00278 -20.4755 L 1.0412 -20.4735 L 1.07961 -20.4716 L 1.11801 -20.4695 L 1.15642 -20.4674 L 1.19482 -20.4652 L 1.23321 -20.4629 L 1.2716 -20.4605 L 1.30998 -20.4581 L 1.34836 -20.4556 L 1.38674 -20.453 L 1.42511 -20.4504 L 1.46348 -20.4477 L 1.60044 -20.4374 L 1.63878 -20.4344 L 1.67712 -20.4313 L 1.71545 -20.4281 L 1.75377 -20.4248 L 1.79209 -20.4215 L 1.8304 -20.4181 L 1.8687 -20.4147 L 1.907 -20.4111 L 1.94529 -20.4075 L 1.98358 -20.4038 L 2.02185 -20.4001 L 2.06012 -20.3962 L 2.09839 -20.3923 L 2.13664 -20.3883 L 2.17489 -20.3843 L 2.21313 -20.3802 L 2.25137 -20.376 L 2.28959 -20.3717 L 2.32781 -20.3674 L 2.36602 -20.363 L 2.40422 -20.3585 L 2.44241 -20.354 L 2.48059 -20.3494 L 2.51877 -20.3447 L 2.55693 -20.3399 L 2.59509 -20.3351 L 2.63324 -20.3302 L 2.67137 -20.3252 L 2.7095 -20.3202 L 2.74762 -20.315 L 2.78573 -20.3098 L 2.82383 -20.3046 L 2.86192 -20.2992 L 2.9 -20.2938 L 2.93807 -20.2884 L 2.97613 -20.2828 L 3.01418 -20.2772 L 3.05222 -20.2715 L 3.09024 -20.2657 L 3.12826 -20.2599 L 3.16627 -20.254 L 3.18469 -20.2122 L 3.20311 -20.1703 L 3.22153 -20.1284 L 3.23994 -20.0865 L 3.25835 -20.0446 L 3.27675 -20.0026 L 3.29515 -19.9606 L 3.31354 -19.9186 L 3.33192 -19.8765 L 3.35031 -19.8344 L 3.36868 -19.7923 L 3.38705 -19.7501 L 3.40542 -19.7079 L 3.42378 -19.6657 L 3.44213 -19.6235 L 3.46048 -19.5812 L 3.47883 -19.5389 L 3.49716 -19.4965 L 3.5155 -19.4541 L 3.53382 -19.4117 L 3.55214 -19.3693 L 3.57045 -19.3268 L 3.58876 -19.2843 L 3.60706 -19.2418 L 3.62536 -19.1992 L 3.64365 -19.1566 L 3.66193 -19.1139 L 3.68021 -19.0712 L 3.69848 -19.0285 L 3.71674 -18.9858 L 3.735 -18.943 L 3.75324 -18.9002 L 3.77149 -18.8573 L 3.78972 -18.8144 L 3.80795 -18.7715 L 3.82617 -18.7285 L 3.84438 -18.6855 L 3.86259 -18.6425 L 3.88079 -18.5994 L 3.89898 -18.5563 L 3.91716 -18.5132 L 3.93534 -18.47 L 3.9535 -18.4268 L 3.97166 -18.3836 L 3.98981 -18.3403 L 4.00796 -18.2969 L 4.02609 -18.2536 L 4.04422 -18.2102 L 4.06234 -18.1667 L 4.08045 -18.1232 L 4.09855 -18.0797 L 4.11664 -18.0362 L 4.11664 -18.0362 L 4.15184 -18.0676 L 4.18703 -18.0989 L 4.22221 -18.1302 L 4.25738 -18.1615 L 4.29254 -18.1928 L 4.3277 -18.224 L 4.36284 -18.2551 L 4.39798 -18.2863 L 4.43311 -18.3173 L 4.46823 -18.3484 L 4.50334 -18.3794 L 4.53844 -18.4104 L 4.57353 -18.4413 L 4.60861 -18.4722 L 4.64369 -18.5031 L 4.67875 -18.5339 L 4.71381 -18.5647 L 4.74885 -18.5955 L 4.78389 -18.6262 L 4.81892 -18.6569 L 4.85394 -18.6876 L 4.88895 -18.7182 L 4.92395 -18.7488 L 4.95895 -18.7794 L 4.99393 -18.8099 L 5.02891 -18.8404 L 5.06387 -18.8708 L 5.09883 -18.9013 L 5.13378 -18.9317 L 5.16872 -18.962 L 5.20365 -18.9923 L 5.23857 -19.0226 L 5.27349 -19.0529 L 5.30839 -19.0831 L 5.34329 -19.1133 L 5.37817 -19.1435 L 5.41305 -19.1736 L 5.44792 -19.2037 L 5.48278 -19.2338 L 5.51763 -19.2638 L 5.55248 -19.2939 L 5.58731 -19.3238 L 5.62214 -19.3538 L 5.65695 -19.3837 L 5.69176 -19.4136 L 5.72656 -19.4435 L 5.76135 -19.4733 L 5.79613 -19.5031 L 5.83091 -19.5329 L 5.86567 -19.5626 L 5.90043 -19.5923 L 5.93518 -19.622 L 5.97198 -19.6109 L 6.00876 -19.5996 L 6.04552 -19.5883 L 6.08226 -19.5769 L 6.11898 -19.5655 L 6.15568 -19.554 L 6.19236 -19.5424 L 6.22901 -19.5307 L 6.26564 -19.519 L 6.30225 -19.5072 L 6.33884 -19.4954 L 6.37541 -19.4834 L 6.41195 -19.4714 L 6.44847 -19.4594 L 6.48497 -19.4472 L 6.52144 -19.435 L 6.55789 -19.4228 L 6.59432 -19.4104 L 6.63073 -19.398 L 6.66711 -19.3856 L 6.70347 -19.373 L 6.73981 -19.3604 L 6.77612 -19.3477 L 6.8124 -19.335 L 6.84867 -19.3222 L 6.88491 -19.3093 L 6.92112 -19.2963 L 6.95731 -19.2833 L 6.99348 -19.2702 L 7.02962 -19.2571 L 7.06574 -19.2438 L 7.10183 -19.2305 L 7.1379 -19.2172 L 7.17394 -19.2038 L 7.20996 -19.1903 L 7.24595 -19.1767 L 7.28192 -19.1631 L 7.31786 -19.1494 L 7.35377 -19.1356 L 7.38966 -19.1218 L 7.42552 -19.1079 L 7.55337 -19.0577 L 7.58912 -19.0435 L 7.62483 -19.0292 L 7.66052 -19.0149 L 7.69618 -19.0005 L 7.73182 -18.986 L 7.76743 -18.9715 L 7.80301 -18.9569 L 7.83856 -18.9422 L 7.87408 -18.9275 L 7.90958 -18.9127 L 7.94505 -18.8978 L 7.98049 -18.8828 L 8.0159 -18.8678 L 8.05129 -18.8528 L 8.08665 -18.8376 L 8.12197 -18.8224 L 8.15727 -18.8071 L 8.19255 -18.7918 L 8.22779 -18.7764 L 8.263 -18.7609 L 8.29819 -18.7454 L 8.33334 -18.7298 L 8.36847 -18.7141 L 8.40356 -18.6984 L 8.43863 -18.6826 L 8.47367 -18.6667 L 8.50867 -18.6508 L 8.54365 -18.6348 L 8.5786 -18.6187 L 8.61351 -18.6026 L 8.6484 -18.5864 L 8.68326 -18.5702 L 8.71808 -18.5538 L 8.75288 -18.5375 L 8.78764 -18.521 L 8.82237 -18.5045 L 8.85708 -18.4879 L 8.89175 -18.4712 L 8.92639 -18.4545 L 8.96099 -18.4377 L 8.99557 -18.4209 L 9.00085 -18.3755 L 9.00612 -18.3301 L 9.01137 -18.2846 L 9.01661 -18.2392 L 9.02183 -18.1936 L 9.02705 -18.1481 L 9.03225 -18.1026 L 9.03743 -18.057 L 9.0426 -18.0114 L 9.04776 -17.9657 L 9.0529 -17.92 L 9.05803 -17.8743 L 9.06314 -17.8286 L 9.06824 -17.7829 L 9.07333 -17.7371 L 9.0784 -17.6913 L 9.08346 -17.6454 L 9.0885 -17.5995 L 9.09352 -17.5536 L 9.09853 -17.5077 L 9.10353 -17.4618 L 9.10851 -17.4158 L 9.11347 -17.3697 L 9.11842 -17.3237 L 9.12335 -17.2776 L 9.12827 -17.2315 L 9.13317 -17.1854 L 9.13805 -17.1392 L 9.14292 -17.093 L 9.14777 -17.0468 L 9.1526 -17.0005 L 9.15742 -16.9542 L 9.16222 -16.9079 L 9.167 -16.8615 L 9.17177 -16.8151 L 9.17652 -16.7687 L 9.18125 -16.7222 L 9.18596 -16.6758 L 9.19066 -16.6292 L 9.19534 -16.5827 L 9.2 -16.5361 L 9.20464 -16.4895 L 9.20926 -16.4428 L 9.21386 -16.3962 L 9.21845 -16.3494 L 9.22301 -16.3027 L 9.22756 -16.2559 L 9.23209 -16.2091 L 9.23659 -16.1622 L 9.24108 -16.1153 L 9.24555 -16.0684 L 9.25 -16.0215 L 9.25 -16.0215 L 9.29289 -16.0411 L 9.33576 -16.0607 L 9.37861 -16.0802 L 9.42144 -16.0998 L 9.46425 -16.1193 L 9.50704 -16.1387 L 9.54981 -16.1581 L 9.59256 -16.1775 L 9.63529 -16.1969 L 9.678 -16.2162 L 9.72069 -16.2355 L 9.76337 -16.2547 L 9.80602 -16.274 L 9.84865 -16.2932 L 9.89127 -16.3123 L 9.93386 -16.3315 L 9.97644 -16.3505 L 10.019 -16.3696 L 10.0615 -16.3887 L 10.1041 -16.4077 L 10.1466 -16.4266 L 10.189 -16.4456 L 10.2315 -16.4645 L 10.274 -16.4834 L 10.3164 -16.5022 L 10.3588 -16.5211 L 10.4012 -16.5399 L 10.4435 -16.5586 L 10.4859 -16.5774 L 10.5282 -16.5961 L 10.5706 -16.6148 L 10.6129 -16.6334 L 10.6551 -16.652 L 10.6974 -16.6706 L 10.7396 -16.6892 L 10.7819 -16.7078 L 10.8241 -16.7263 L 10.8663 -16.7448 L 10.9085 -16.7632 L 10.9506 -16.7817 L 10.9928 -16.8001 L 11.0349 -16.8184 L 11.077 -16.8368 L 11.1191 -16.8551 L 11.1612 -16.8734 L 11.2032 -16.8917 L 11.2452 -16.91 L 11.2873 -16.9282 L 11.3293 -16.9464 L 11.3713 -16.9646 L 11.4132 -16.9827 L 11.4552 -17.0008 L 11.4871 -16.9793 L 11.5189 -16.9577 L 11.5507 -16.9361 L 11.5824 -16.9144 L 11.6142 -16.8926 L 11.6458 -16.8708 L 11.6775 -16.8489 L 11.7091 -16.827 L 11.7406 -16.805 L 11.7721 -16.7829 L 11.8036 -16.7608 L 11.835 -16.7387 L 11.8664 -16.7164 L 11.8977 -16.6941 L 11.929 -16.6718 L 11.9603 -16.6494 L 11.9915 -16.6269 L 12.0227 -16.6044 L 12.0538 -16.5818 L 12.0849 -16.5591 L 12.1159 -16.5364 L 12.147 -16.5137 L 12.1779 -16.4909 L 12.2088 -16.468 L 12.2397 -16.445 L 12.2705 -16.4221 L 12.3013 -16.399 L 12.3321 -16.3759 L 12.3628 -16.3527 L 12.3934 -16.3295 L 12.4241 -16.3062 L 12.4546 -16.2829 L 12.4851 -16.2595 L 12.5156 -16.236 L 12.5461 -16.2125 L 12.5765 -16.189 L 12.6068 -16.1653 L 12.6371 -16.1417 L 12.6674 -16.1179 L 12.6976 -16.0941 L 12.7278 -16.0703 L 12.8352 -15.9846 L 12.8651 -15.9605 L 12.895 -15.9364 L 12.9249 -15.9121 L 12.9548 -15.8879 L 12.9845 -15.8635 L 13.0143 -15.8391 L 13.044 -15.8147 L 13.0736 -15.7902 L 13.1032 -15.7656 L 13.1328 -15.741 L 13.1623 -15.7164 L 13.1918 -15.6916 L 13.2212 -15.6669 L 13.2505 -15.642 L 13.2799 -15.6171 L 13.3091 -15.5922 L 13.3384 -15.5672 L 13.3676 -15.5421 L 13.3967 -15.517 L 13.4258 -15.4919 L 13.4548 -15.4667 L 13.4838 -15.4414 L 13.5128 -15.4161 L 13.5417 -15.3907 L 13.5705 -15.3653 L 13.5993 -15.3398 L 13.6281 -15.3142 L 13.6568 -15.2886 L 13.6854 -15.263 L 13.7141 -15.2373 L 13.7426 -15.2115 L 13.7711 -15.1857 L 13.7996 -15.1598 L 13.828 -15.1339 L 13.8564 -15.108 L 13.8847 -15.0819 L 13.913 -15.0559 L 13.9412 -15.0297 L 13.9694 -15.0035 L 13.9975 -14.9773 L 14.0256 -14.951 L 14.0172 -14.9061 L 14.0089 -14.8611 L 14.0005 -14.8161 L 13.9921 -14.7711 L 13.9837 -14.7261 L 13.9753 -14.6811 L 13.9668 -14.636 L 13.9583 -14.5909 L 13.9498 -14.5458 L 13.9413 -14.5007 L 13.9327 -14.4555 L 13.9242 -14.4103 L 13.9156 -14.3651 L 13.907 -14.3199 L 13.8983 -14.2747 L 13.8897 -14.2294 L 13.881 -14.1841 L 13.8723 -14.1388 L 13.8635 -14.0934 L 13.8548 -14.0481 L 13.846 -14.0027 L 13.8372 -13.9572 L 13.8284 -13.9118 L 13.8196 -13.8663 L 13.8107 -13.8209 L 13.8018 -13.7754 L 13.7929 -13.7298 L 13.7839 -13.6843 L 13.775 -13.6387 L 13.766 -13.5931 L 13.757 -13.5474 L 13.7479 -13.5018 L 13.7389 -13.4561 L 13.7298 -13.4104 L 13.7206 -13.3646 L 13.7115 -13.3189 L 13.7023 -13.2731 L 13.6931 -13.2273 L 13.6839 -13.1815 L 13.6746 -13.1356 L 13.6654 -13.0897 L 13.6561 -13.0438 L 13.6467 -12.9979 L 13.6374 -12.9519 L 13.628 -12.9059 L 13.6186 -12.8599 L 13.6091 -12.8138 L 13.5996 -12.7678 L 13.5901 -12.7217 L 13.5806 -12.6755 L 13.571 -12.6294 L 13.5615 -12.5832 L 13.5615 -12.5832 L 13.6082 -12.5893 L 13.655 -12.5954 L 13.7017 -12.6015 L 13.7484 -12.6075 L 13.795 -12.6135 L 13.8416 -12.6195 L 13.8882 -12.6254 L 13.9348 -12.6313 L 13.9813 -12.6372 L 14.0278 -12.6431 L 14.0743 -12.649 L 14.1208 -12.6548 L 14.1672 -12.6606 L 14.2136 -12.6664 L 14.26 -12.6721 L 14.3063 -12.6778 L 14.3526 -12.6835 L 14.3989 -12.6892 L 14.4452 -12.6949 L 14.4914 -12.7005 L 14.5376 -12.7061 L 14.5838 -12.7117 L 14.6299 -12.7172 L 14.6761 -12.7228 L 14.7222 -12.7283 L 14.7682 -12.7338 L 14.8143 -12.7392 L 14.8603 -12.7447 L 14.9063 -12.7501 L 14.9523 -12.7555 L 14.9982 -12.7609 L 15.0441 -12.7662 L 15.09 -12.7716 L 15.1359 -12.7769 L 15.1817 -12.7822 L 15.2276 -12.7875 L 15.2734 -12.7927 L 15.3191 -12.7979 L 15.3649 -12.8032 L 15.4106 -12.8083 L 15.4563 -12.8135 L 15.502 -12.8187 L 15.5476 -12.8238 L 15.5932 -12.8289 L 15.6388 -12.834 L 15.6844 -12.8391 L 15.7299 -12.8441 L 15.7755 -12.8491 L 15.821 -12.8541 L 15.8665 -12.8591 L 15.9119 -12.8641 L 15.9574 -12.8691 L 15.9815 -12.8391 L 16.0055 -12.8091 L 16.0295 -12.7791 L 16.0535 -12.749 L 16.0774 -12.7188 L 16.1012 -12.6886 L 16.125 -12.6584 L 16.1487 -12.6281 L 16.1724 -12.5978 L 16.196 -12.5674 L 16.2195 -12.537 L 16.243 -12.5066 L 16.2665 -12.4761 L 16.2898 -12.4455 L 16.3132 -12.415 L 16.3364 -12.3843 L 16.3596 -12.3537 L 16.3828 -12.3229 L 16.4059 -12.2922 L 16.4289 -12.2614 L 16.4519 -12.2305 L 16.4748 -12.1996 L 16.4976 -12.1687 L 16.5205 -12.1377 L 16.5432 -12.1067 L 16.5659 -12.0757 L 16.5885 -12.0446 L 16.6111 -12.0134 L 16.6336 -11.9822 L 16.656 -11.951 L 16.6784 -11.9197 L 16.7008 -11.8884 L 16.723 -11.8571 L 16.7453 -11.8257 L 16.7674 -11.7942 L 16.7895 -11.7628 L 16.8115 -11.7312 L 16.8335 -11.6997 L 16.8555 -11.6681 L 16.8773 -11.6364 L 16.8991 -11.6047 L 16.9765 -11.4913 L 16.998 -11.4594 L 17.0195 -11.4275 L 17.0409 -11.3955 L 17.0622 -11.3635 L 17.0835 -11.3315 L 17.1048 -11.2994 L 17.1259 -11.2673 L 17.147 -11.2352 L 17.1681 -11.203 L 17.1891 -11.1707 L 17.21 -11.1385 L 17.2309 -11.1062 L 17.2517 -11.0738 L 17.2724 -11.0414 L 17.2931 -11.009 L 17.3137 -10.9765 L 17.3343 -10.944 L 17.3548 -10.9115 L 17.3752 -10.8789 L 17.3956 -10.8463 L 17.4159 -10.8136 L 17.4362 -10.7809 L 17.4564 -10.7482 L 17.4765 -10.7154 L 17.4966 -10.6826 L 17.5166 -10.6498 L 17.5366 -10.6169 L 17.5565 -10.584 L 17.5763 -10.551 L 17.596 -10.518 L 17.6157 -10.485 L 17.6354 -10.4519 L 17.655 -10.4188 L 17.6745 -10.3857 L 17.6939 -10.3525 L 17.7133 -10.3193 L 17.7327 -10.286 L 17.7519 -10.2528 L 17.7711 -10.2194 L 17.7903 -10.1861 L 17.8094 -10.1527 L 17.7881 -10.1122 L 17.7669 -10.0717 L 17.7456 -10.0312 L 17.7244 -9.99066 L 17.703 -9.95012 L 17.6817 -9.90956 L 17.6603 -9.86899 L 17.6389 -9.8284 L 17.6175 -9.7878 L 17.5961 -9.74718 L 17.5746 -9.70655 L 17.5531 -9.6659 L 17.5315 -9.62524 L 17.51 -9.58456 L 17.4884 -9.54387 L 17.4668 -9.50316 L 17.4451 -9.46243 L 17.4234 -9.42169 L 17.4017 -9.38094 L 17.38 -9.34016 L 17.3582 -9.29938 L 17.3364 -9.25857 L 17.3146 -9.21775 L 17.2928 -9.17692 L 17.2709 -9.13607 L 17.249 -9.0952 L 17.227 -9.05432 L 17.2051 -9.01342 L 17.1831 -8.9725 L 17.161 -8.93157 L 17.139 -8.89062 L 17.1169 -8.84966 L 17.0947 -8.80868 L 17.0726 -8.76768 L 17.0504 -8.72667 L 17.0281 -8.68564 L 17.0059 -8.64459 L 16.9836 -8.60353 L 16.9613 -8.56244 L 16.9389 -8.52135 L 16.9165 -8.48023 L 16.8941 -8.4391 L 16.8716 -8.39795 L 16.8491 -8.35679 L 16.8266 -8.31561 L 16.804 -8.27441 L 16.7814 -8.23319 L 16.7588 -8.19196 L 16.7361 -8.15071 L 16.7134 -8.10944 L 16.6907 -8.06815 L 16.6679 -8.02685 L 16.6679 -8.02685 L 16.7144 -8.0189 L 16.7609 -8.01094 L 16.8073 -8.00296 L 16.8537 -7.99497 L 16.9 -7.98695 L 16.9463 -7.97892 L 16.9926 -7.97088 L 17.0389 -7.96281 L 17.0851 -7.95473 L 17.1312 -7.94664 L 17.1774 -7.93853 L 17.2235 -7.9304 L 17.2696 -7.92225 L 17.3156 -7.9141 L 17.3616 -7.90592 L 17.4076 -7.89773 L 17.4535 -7.88953 L 17.4994 -7.88131 L 17.5453 -7.87307 L 17.5911 -7.86483 L 17.6369 -7.85656 L 17.6827 -7.84828 L 17.7284 -7.83999 L 17.7742 -7.83169 L 17.8198 -7.82337 L 17.8655 -7.81503 L 17.9111 -7.80668 L 17.9567 -7.79832 L 18.0022 -7.78994 L 18.0477 -7.78156 L 18.0932 -7.77315 L 18.1387 -7.76474 L 18.1841 -7.75631 L 18.2295 -7.74787 L 18.2749 -7.73941 L 18.3202 -7.73095 L 18.3655 -7.72247 L 18.4108 -7.71397 L 18.456 -7.70547 L 18.5013 -7.69695 L 18.5465 -7.68842 L 18.5916 -7.67988 L 18.6367 -7.67133 L 18.6818 -7.66276 L 18.7269 -7.65418 L 18.772 -7.64559 L 18.817 -7.63699 L 18.862 -7.62838 L 18.9069 -7.61976 L 18.9519 -7.61112 L 18.9968 -7.60248 L 19.0416 -7.59382 L 19.0558 -7.55808 L 19.07 -7.52232 L 19.0841 -7.48653 L 19.0981 -7.45071 L 19.112 -7.41486 L 19.1259 -7.37899 L 19.1397 -7.3431 L 19.1535 -7.30717 L 19.1671 -7.27123 L 19.1807 -7.23525 L 19.1943 -7.19925 L 19.2078 -7.16323 L 19.2212 -7.12718 L 19.2345 -7.0911 L 19.2478 -7.055 L 19.261 -7.01888 L 19.2741 -6.98273 L 19.2872 -6.94656 L 19.3002 -6.91036 L 19.3131 -6.87414 L 19.326 -6.83789 L 19.3388 -6.80162 L 19.3515 -6.76532 L 19.3642 -6.72901 L 19.3767 -6.69266 L 19.3893 -6.6563 L 19.4017 -6.61991 L 19.4141 -6.5835 L 19.4264 -6.54706 L 19.4387 -6.5106 L 19.4509 -6.47412 L 19.463 -6.43761 L 19.475 -6.40109 L 19.487 -6.36454 L 19.4989 -6.32797 L 19.5107 -6.29137 L 19.5225 -6.25475 L 19.5342 -6.21812 L 19.5458 -6.18146 L 19.5574 -6.14477 L 19.5689 -6.10807 L 19.6094 -5.97683 L 19.6206 -5.94002 L 19.6317 -5.9032 L 19.6427 -5.86636 L 19.6537 -5.8295 L 19.6646 -5.79261 L 19.6754 -5.75571 L 19.6862 -5.71878 L 19.6969 -5.68184 L 19.7075 -5.64487 L 19.7181 -5.60789 L 19.7285 -5.57088 L 19.739 -5.53386 L 19.7493 -5.49682 L 19.7596 -5.45975 L 19.7698 -5.42267 L 19.7799 -5.38557 L 19.79 -5.34845 L 19.8 -5.31131 L 19.8099 -5.27416 L 19.8198 -5.23698 L 19.8296 -5.19978 L 19.8393 -5.16257 L 19.849 -5.12534 L 19.8585 -5.08809 L 19.868 -5.05082 L 19.8775 -5.01354 L 19.8869 -4.97624 L 19.8962 -4.93892 L 19.9054 -4.90158 L 19.9146 -4.86423 L 19.9236 -4.82685 L 19.9327 -4.78947 L 19.9416 -4.75206 L 19.9505 -4.71464 L 19.9593 -4.6772 L 19.968 -4.63974 L 19.9767 -4.60227 L 19.9853 -4.56478 L 19.9938 -4.52728 L 20.0023 -4.48976 L 20.0107 -4.45222 L 19.9785 -4.41979 L 19.9463 -4.38735 L 19.914 -4.35491 L 19.8817 -4.32246 L 19.8494 -4.29 L 19.817 -4.25754 L 19.7847 -4.22507 L 19.7523 -4.19259 L 19.7198 -4.16011 L 19.6873 -4.12762 L 19.6548 -4.09512 L 19.6223 -4.06262 L 19.5897 -4.03011 L 19.5572 -3.99759 L 19.5245 -3.96507 L 19.4919 -3.93254 L 19.4592 -3.9 L 19.4265 -3.86746 L 19.3937 -3.83492 L 19.3609 -3.80236 L 19.3281 -3.7698 L 19.2953 -3.73723 L 19.2624 -3.70466 L 19.2294 -3.67208 L 19.1965 -3.63949 L 19.1635 -3.6069 L 19.1305 -3.5743 L 19.0974 -3.5417 L 19.0644 -3.50908 L 19.0312 -3.47647 L 18.9981 -3.44384 L 18.9649 -3.41121 L 18.9317 -3.37857 L 18.8984 -3.34593 L 18.8651 -3.31328 L 18.8318 -3.28062 L 18.7984 -3.24796 L 18.765 -3.21529 L 18.7315 -3.18262 L 18.6981 -3.14994 L 18.6646 -3.11725 L 18.631 -3.08456 L 18.5974 -3.05186 L 18.5638 -3.01915 L 18.5301 -2.98644 L 18.4964 -2.95372 L 18.4627 -2.921 L 18.4289 -2.88826 L 18.3951 -2.85553 L 18.3612 -2.82279 L 18.3273 -2.79004 L 18.2934 -2.75728 L 18.2934 -2.75728 L 18.3355 -2.73599 L 18.3775 -2.71468 L 18.4195 -2.69338 L 18.4615 -2.67206 L 18.5034 -2.65074 L 18.5453 -2.62942 L 18.5871 -2.60809 L 18.629 -2.58675 L 18.6707 -2.56541 L 18.7125 -2.54407 L 18.7542 -2.52271 L 18.7958 -2.50136 L 18.8375 -2.48 L 18.879 -2.45863 L 18.9206 -2.43726 L 18.9621 -2.41589 L 19.0036 -2.39451 L 19.045 -2.37312 L 19.0864 -2.35173 L 19.1278 -2.33034 L 19.1691 -2.30894 L 19.2104 -2.28754 L 19.2517 -2.26613 L 19.2929 -2.24472 L 19.3341 -2.22331 L 19.3753 -2.20189 L 19.4164 -2.18047 L 19.4575 -2.15904 L 19.4986 -2.13761 L 19.5396 -2.11618 L 19.5806 -2.09474 L 19.6215 -2.0733 L 19.6625 -2.05185 L 19.7034 -2.03041 L 19.7442 -2.00896 L 19.785 -1.9875 L 19.8258 -1.96604 L 19.8666 -1.94458 L 19.9073 -1.92312 L 19.948 -1.90165 L 19.9887 -1.88018 L 20.0293 -1.85871 L 20.0699 -1.83723 L 20.1105 -1.81576 L 20.151 -1.79427 L 20.1916 -1.77279 L 20.232 -1.7513 L 20.2725 -1.72981 L 20.3129 -1.70832 L 20.3533 -1.68683 L 20.3937 -1.66533 L 20.434 -1.64383 L 20.437 -1.60549 L 20.44 -1.56714 L 20.4429 -1.52879 L 20.4457 -1.49043 L 20.4485 -1.45207 L 20.4512 -1.4137 L 20.4538 -1.37533 L 20.4564 -1.33695 L 20.4588 -1.29857 L 20.4612 -1.26019 L 20.4636 -1.22179 L 20.4658 -1.1834 L 20.468 -1.145 L 20.4701 -1.1066 L 20.4722 -1.06819 L 20.4741 -1.02978 L 20.476 -0.991363 L 20.4778 -0.952945 L 20.4796 -0.914523 L 20.4813 -0.876098 L 20.4829 -0.837671 L 20.4844 -0.79924 L 20.4859 -0.760806 L 20.4873 -0.72237 L 20.4886 -0.683931 L 20.4898 -0.645489 L 20.491 -0.607046 L 20.4921 -0.5686 L 20.4931 -0.530152 L 20.4941 -0.491703 L 20.495 -0.453252 L 20.4958 -0.414799 L 20.4965 -0.376344 L 20.4972 -0.337889 L 20.4978 -0.299432 L 20.4983 -0.260974 L 20.4988 -0.222515 L 20.4992 -0.184055 L 20.4995 -0.145595 L 20.4997 -0.107134 L 20.4999 -0.0686729Z"
id="path1" />
</g>
</svg>
