<?xml version="1.0" encoding="UTF-8" standalone="no"?>
<svg version="1.1">
<g
style="fill:none;stroke:#000000;stroke-opacity:1;stroke-width:0.1">
<path d="M 20.9999 0.0496035 L 20.9998 0.0866404 L 20.9996 0.123677 L 20.9994 0.160713 L 20.9991 0.197749 L 20.9987 0.234784 L 20.9982 0.271818 L 20.9977 0.308852 L 20.9972 0.345884 L 20.9965 0.382916 L 20.9958 0.419946 L 20.995 0.456975 L 20.9942 0.494002 L 20.9933 0.531028 L 20.9923 0.568053 L 20.9913 0.605075 L 20.9902 0.642096 L 20.989 0.679115 L 20.9878 0.716131 L 20.9865 0.753146 L 20.9851 0.790158 L 20.9837 0.827167 L 20.9822 0.864174 L 20.9807 0.901179 L 20.979 0.93818 L 20.9773 0.975179 L 20.9756 1.01217 L 20.9738 1.04917 L 20.9719 1.08616 L 20.9699 1.12314 L 20.9679 1.16012 L 20.9659 1.1971 L 20.9637 1.23408 L 20.9615 1.27105 L 20.9592 1.30802 L 20.9569 1.34498 L 20.9545 1.38194 L 20.952 1.41889 L 20.9495 1.45584 L 20.9469 1.49279 L 20.9442 1.52973 L 20.9415 1.56667 L 20.9387 1.6036 L 20.9358 1.64052 L 20.8971 1.66029 L 20.8584 1.68005 L 20.8196 1.69981 L 20.7808 1.71957 L 20.742 1.73933 L 20.7032 1.75909 L 20.6643 1.77884 L 20.6254 1.79859 L 20.5865 1.81834 L 20.5476 1.83809 L 20.5086 1.85783 L 20.4696 1.87757 L 20.4306 1.89731 L 20.3916 1.91705 L 20.3525 1.93679 L 20.3134 1.95652 L 20.2743 1.97625 L 20.2351 1.99598 L 20.196 2.0157 L 20.1568 2.03542 L 20.1175 2.05514 L 20.0783 2.07486 L 20.039 2.09457 L 19.9997 2.11428 L 19.9603 2.13399 L 19.921 2.15369 L 19.8816 2.17339 L 19.8421 2.19309 L 19.8027 2.21279 L 19.7632 2.23248 L 19.7237 2.25217 L 19.6841 2.27185 L 19.6446 2.29154 L 19.605 2.31121 L 19.5653 2.33089 L 19.5257 2.35056 L 19.486 2.37023 L 19.4463 2.38989 L 19.4065 2.40956 L 19.3668 2.42921 L 19.327 2.44887 L 19.2871 2.46851 L 19.2472 2.48816 L 19.2073 2.5078 L 19.1674 2.52744 L 19.1275 2.54707 L 19.0875 2.5667 L 19.0474 2.58633 L 19.0074 2.60595 L 18.9673 2.62556 L 18.9272 2.64517 L 18.887 2.66478 L 18.8468 2.68438 L 18.8066 2.70398 L 18.8066 2.70398 L 18.8397 2.73412 L 18.8727 2.76425 L 18.9057 2.79437 L 18.9387 2.82449 L 18.9716 2.85461 L 19.0045 2.88472 L 19.0374 2.91483 L 19.0703 2.94493 L 19.1031 2.97503 L 19.1358 3.00512 L 19.1686 3.0352 L 19.2013 3.06529 L 19.234 3.09536 L 19.2667 3.12544 L 19.2993 3.1555 L 19.3319 3.18557 L 19.3645 3.21562 L 19.397 3.24568 L 19.4295 3.27572 L 19.462 3.30577 L 19.4944 3.3358 L 19.5269 3.36584 L 19.5592 3.39586 L 19.5916 3.42589 L 19.6239 3.4559 L 19.6563 3.48592 L 19.6885 3.51593 L 19.7208 3.54593 L 19.753 3.57593 L 19.7852 3.60592 L 19.8174 3.63591 L 19.8495 3.66589 L 19.8816 3.69587 L 19.9137 3.72584 L 19.9458 3.75581 L 19.9778 3.78577 L 20.0098 3.81573 L 20.0418 3.84568 L 20.0737 3.87563 L 20.1057 3.90557 L 20.1376 3.93551 L 20.1694 3.96544 L 20.2013 3.99537 L 20.2331 4.02529 L 20.2649 4.05521 L 20.2967 4.08512 L 20.3284 4.11503 L 20.3601 4.14493 L 20.3918 4.17482 L 20.4235 4.20472 L 20.4552 4.2346 L 20.4868 4.26448 L 20.5184 4.29436 L 20.55 4.32423 L 20.5423 4.36047 L 20.5346 4.39669 L 20.5268 4.4329 L 20.5189 4.4691 L 20.511 4.50528 L 20.5031 4.54145 L 20.495 4.5776 L 20.4869 4.61374 L 20.4787 4.64986 L 20.4705 4.68597 L 20.4622 4.72207 L 20.4539 4.75815 L 20.4454 4.79422 L 20.4369 4.83027 L 20.4284 4.86631 L 20.4198 4.90233 L 20.4111 4.93833 L 20.4024 4.97432 L 20.3936 5.0103 L 20.3847 5.04626 L 20.3758 5.0822 L 20.3668 5.11813 L 20.3577 5.15404 L 20.3486 5.18994 L 20.3394 5.22582 L 20.3301 5.26168 L 20.3208 5.29753 L 20.3115 5.33336 L 20.302 5.36918 L 20.2925 5.40497 L 20.283 5.44075 L 20.2733 5.47652 L 20.2636 5.51227 L 20.2539 5.548 L 20.2441 5.58371 L 20.2342 5.6194 L 20.2242 5.65508 L 20.2142 5.69074 L 20.2042 5.72638 L 20.194 5.76201 L 20.1838 5.79761 L 20.1736 5.8332 L 20.1633 5.86877 L 20.1353 5.96396 L 20.1248 5.99946 L 20.1142 6.03495 L 20.1035 6.07041 L 20.0927 6.10586 L 20.0819 6.14129 L 20.0711 6.1767 L 20.0602 6.21208 L 20.0492 6.24745 L 20.0381 6.2828 L 20.027 6.31814 L 20.0158 6.35345 L 20.0046 6.38874 L 19.9933 6.42401 L 19.9819 6.45926 L 19.9705 6.49449 L 19.959 6.5297 L 19.9475 6.5649 L 19.9359 6.60007 L 19.9242 6.63522 L 19.9125 6.67034 L 19.9007 6.70545 L 19.8888 6.74054 L 19.8769 6.77561 L 19.8649 6.81065 L 19.8529 6.84568 L 19.8408 6.88068 L 19.8286 6.91566 L 19.8164 6.95062 L 19.8041 6.98556 L 19.7917 7.02048 L 19.7793 7.05537 L 19.7669 7.09025 L 19.7543 7.1251 L 19.7417 7.15993 L 19.7291 7.19473 L 19.7163 7.22952 L 19.7036 7.26428 L 19.6907 7.29902 L 19.6778 7.33374 L 19.6648 7.36843 L 19.6518 7.4031 L 19.6387 7.43775 L 19.6256 7.47237 L 19.5829 7.48043 L 19.5401 7.48848 L 19.4974 7.49652 L 19.4546 7.50456 L 19.4118 7.51258 L 19.369 7.52059 L 19.3261 7.5286 L 19.2832 7.53659 L 19.2403 7.54458 L 19.1974 7.55256 L 19.1545 7.56052 L 19.1115 7.56848 L 19.0685 7.57643 L 19.0255 7.58437 L 18.9824 7.59229 L 18.9394 7.60021 L 18.8963 7.60812 L 18.8531 7.61602 L 18.81 7.62391 L 18.7668 7.63179 L 18.7236 7.63965 L 18.6804 7.64751 L 18.6372 7.65536 L 18.5939 7.66319 L 18.5506 7.67102 L 18.5073 7.67883 L 18.4639 7.68664 L 18.4205 7.69443 L 18.3771 7.70221 L 18.3337 7.70998 L 18.2902 7.71774 L 18.2467 7.72549 L 18.2032 7.73323 L 18.1597 7.74095 L 18.1161 7.74867 L 18.0725 7.75637 L 18.0289 7.76406 L 17.9853 7.77174 L 17.9416 7.77941 L 17.8979 7.78706 L 17.8542 7.7947 L 17.8104 7.80233 L 17.7666 7.80995 L 17.7228 7.81755 L 17.6789 7.82515 L 17.6351 7.83272 L 17.5912 7.84029 L 17.5472 7.84784 L 17.5033 7.85538 L 17.4593 7.86291 L 17.4153 7.87043 L 17.3712 7.87793 L 17.3271 7.88541 L 17.283 7.89289 L 17.283 7.89289 L 17.3062 7.93112 L 17.3295 7.96933 L 17.3526 8.00754 L 17.3758 8.04573 L 17.3989 8.0839 L 17.422 8.12206 L 17.4451 8.16021 L 17.4681 8.19835 L 17.4911 8.23647 L 17.5141 8.27458 L 17.537 8.31267 L 17.5599 8.35076 L 17.5828 8.38882 L 17.6057 8.42688 L 17.6285 8.46492 L 17.6513 8.50295 L 17.6741 8.54097 L 17.6969 8.57897 L 17.7196 8.61696 L 17.7423 8.65493 L 17.765 8.6929 L 17.7876 8.73085 L 17.8102 8.76878 L 17.8328 8.80671 L 17.8554 8.84462 L 17.8779 8.88252 L 17.9005 8.92041 L 17.9229 8.95828 L 17.9454 8.99614 L 17.9679 9.03399 L 17.9903 9.07182 L 18.0127 9.10965 L 18.035 9.14746 L 18.0574 9.18526 L 18.0797 9.22304 L 18.102 9.26082 L 18.1243 9.29858 L 18.1465 9.33633 L 18.1687 9.37406 L 18.1909 9.41179 L 18.2131 9.4495 L 18.2352 9.4872 L 18.2574 9.52489 L 18.2795 9.56256 L 18.3016 9.60023 L 18.3236 9.63788 L 18.3456 9.67552 L 18.3677 9.71315 L 18.3896 9.75076 L 18.4116 9.78837 L 18.4336 9.82596 L 18.4555 9.86354 L 18.4774 9.90111 L 18.4993 9.93866 L 18.4817 9.97128 L 18.4641 10.0039 L 18.4464 10.0364 L 18.4287 10.0689 L 18.4109 10.1014 L 18.3931 10.1339 L 18.3752 10.1663 L 18.3572 10.1987 L 18.3392 10.231 L 18.3211 10.2634 L 18.303 10.2957 L 18.2848 10.3279 L 18.2666 10.3602 L 18.2483 10.3924 L 18.2299 10.4245 L 18.2115 10.4567 L 18.193 10.4888 L 18.1745 10.5208 L 18.1559 10.5529 L 18.1373 10.5849 L 18.1186 10.6169 L 18.0998 10.6488 L 18.081 10.6807 L 18.0621 10.7126 L 18.0432 10.7444 L 18.0242 10.7762 L 18.0052 10.808 L 17.9861 10.8397 L 17.967 10.8714 L 17.9478 10.9031 L 17.9285 10.9347 L 17.9092 10.9663 L 17.8898 10.9979 L 17.8704 11.0294 L 17.8509 11.0609 L 17.8314 11.0924 L 17.8118 11.1238 L 17.7922 11.1552 L 17.7725 11.1866 L 17.7527 11.2179 L 17.7329 11.2492 L 17.713 11.2805 L 17.6931 11.3117 L 17.6395 11.3952 L 17.6193 11.4262 L 17.5992 11.4573 L 17.5789 11.4883 L 17.5586 11.5193 L 17.5383 11.5503 L 17.5179 11.5812 L 17.4974 11.6121 L 17.4769 11.6429 L 17.4564 11.6737 L 17.4358 11.7045 L 17.4151 11.7352 L 17.3944 11.7659 L 17.3736 11.7966 L 17.3527 11.8272 L 17.3319 11.8578 L 17.3109 11.8883 L 17.2899 11.9188 L 17.2689 11.9493 L 17.2478 11.9797 L 17.2266 12.0101 L 17.2054 12.0405 L 17.1842 12.0708 L 17.1628 12.1011 L 17.1415 12.1314 L 17.12 12.1616 L 17.0986 12.1918 L 17.077 12.2219 L 17.0555 12.252 L 17.0338 12.2821 L 17.0121 12.3121 L 16.9904 12.3421 L 16.9686 12.372 L 16.9468 12.4019 L 16.9249 12.4318 L 16.9029 12.4616 L 16.8809 12.4914 L 16.8588 12.5212 L 16.8367 12.5509 L 16.8146 12.5805 L 16.7924 12.6102 L 16.7701 12.6398 L 16.7478 12.6693 L 16.7254 12.6989 L 16.6821 12.6946 L 16.6389 12.6902 L 16.5956 12.6859 L 16.5523 12.6816 L 16.5089 12.6772 L 16.4656 12.6728 L 16.4222 12.6684 L 16.3788 12.664 L 16.3354 12.6596 L 16.292 12.6552 L 16.2485 12.6507 L 16.2051 12.6462 L 16.1616 12.6417 L 16.118 12.6372 L 16.0745 12.6327 L 16.0309 12.6282 L 15.9874 12.6236 L 15.9438 12.6191 L 15.9001 12.6145 L 15.8565 12.6099 L 15.8128 12.6052 L 15.7692 12.6006 L 15.7255 12.596 L 15.6817 12.5913 L 15.638 12.5866 L 15.5942 12.5819 L 15.5504 12.5772 L 15.5066 12.5724 L 15.4628 12.5677 L 15.4189 12.5629 L 15.375 12.5581 L 15.3311 12.5533 L 15.2872 12.5484 L 15.2432 12.5436 L 15.1992 12.5387 L 15.1552 12.5338 L 15.1112 12.5289 L 15.0672 12.524 L 15.0231 12.519 L 14.979 12.514 L 14.9349 12.5091 L 14.8908 12.504 L 14.8466 12.499 L 14.8024 12.494 L 14.7582 12.4889 L 14.714 12.4838 L 14.6697 12.4787 L 14.6254 12.4736 L 14.5811 12.4684 L 14.5368 12.4633 L 14.4925 12.4581 L 14.4481 12.4528 L 14.4037 12.4476 L 14.3592 12.4424 L 14.3592 12.4424 L 14.3708 12.4856 L 14.3823 12.5288 L 14.3937 12.572 L 14.4052 12.6151 L 14.4166 12.6583 L 14.428 12.7014 L 14.4394 12.7445 L 14.4508 12.7876 L 14.4621 12.8306 L 14.4734 12.8737 L 14.4847 12.9167 L 14.496 12.9597 L 14.5072 13.0027 L 14.5184 13.0456 L 14.5296 13.0886 L 14.5408 13.1315 L 14.5519 13.1744 L 14.563 13.2172 L 14.5741 13.2601 L 14.5852 13.3029 L 14.5963 13.3457 L 14.6073 13.3885 L 14.6183 13.4313 L 14.6293 13.4741 L 14.6403 13.5168 L 14.6513 13.5595 L 14.6622 13.6022 L 14.6731 13.6449 L 14.684 13.6875 L 14.6949 13.7302 L 14.7057 13.7728 L 14.7165 13.8154 L 14.7273 13.858 L 14.7381 13.9005 L 14.7489 13.9431 L 14.7597 13.9856 L 14.7704 14.0281 L 14.7811 14.0706 L 14.7918 14.1131 L 14.8024 14.1555 L 14.8131 14.1979 L 14.8237 14.2404 L 14.8343 14.2828 L 14.8449 14.3251 L 14.8555 14.3675 L 14.8661 14.4098 L 14.8766 14.4522 L 14.8871 14.4945 L 14.8976 14.5367 L 14.9081 14.579 L 14.9186 14.6213 L 14.929 14.6635 L 14.9395 14.7057 L 14.9499 14.7479 L 14.9238 14.7743 L 14.8978 14.8006 L 14.8716 14.8268 L 14.8455 14.853 L 14.8192 14.8792 L 14.793 14.9053 L 14.7667 14.9314 L 14.7403 14.9574 L 14.7139 14.9834 L 14.6875 15.0093 L 14.661 15.0352 L 14.6344 15.061 L 14.6078 15.0868 L 14.5812 15.1125 L 14.5545 15.1382 L 14.5278 15.1639 L 14.501 15.1895 L 14.4742 15.215 L 14.4474 15.2405 L 14.4205 15.266 L 14.3935 15.2914 L 14.3665 15.3167 L 14.3395 15.3421 L 14.3124 15.3673 L 14.2853 15.3925 L 14.2581 15.4177 L 14.2309 15.4428 L 14.2037 15.4679 L 14.1763 15.4929 L 14.149 15.5179 L 14.1216 15.5428 L 14.0942 15.5677 L 14.0667 15.5926 L 14.0392 15.6173 L 14.0116 15.6421 L 13.984 15.6668 L 13.9563 15.6914 L 13.9287 15.716 L 13.9009 15.7405 L 13.8731 15.765 L 13.8453 15.7895 L 13.8174 15.8139 L 13.7895 15.8382 L 13.7145 15.9032 L 13.6865 15.9273 L 13.6584 15.9515 L 13.6302 15.9755 L 13.602 15.9995 L 13.5738 16.0235 L 13.5455 16.0474 L 13.5172 16.0713 L 13.4888 16.0951 L 13.4604 16.1189 L 13.432 16.1426 L 13.4035 16.1662 L 13.3749 16.1899 L 13.3464 16.2134 L 13.3177 16.2369 L 13.2891 16.2604 L 13.2604 16.2838 L 13.2316 16.3072 L 13.2029 16.3305 L 13.174 16.3537 L 13.1452 16.3769 L 13.1163 16.4001 L 13.0873 16.4232 L 13.0583 16.4463 L 13.0293 16.4693 L 13.0002 16.4922 L 12.9711 16.5151 L 12.942 16.538 L 12.9128 16.5608 L 12.8836 16.5835 L 12.8543 16.6062 L 12.825 16.6289 L 12.7957 16.6515 L 12.7663 16.674 L 12.7368 16.6965 L 12.7074 16.7189 L 12.6779 16.7413 L 12.6483 16.7636 L 12.6187 16.7859 L 12.5891 16.8082 L 12.5594 16.8303 L 12.5297 16.8525 L 12.5 16.8745 L 12.4702 16.8966 L 12.4299 16.8802 L 12.3896 16.8639 L 12.3493 16.8476 L 12.309 16.8312 L 12.2686 16.8148 L 12.2283 16.7984 L 12.1879 16.7819 L 12.1475 16.7655 L 12.1071 16.749 L 12.0667 16.7325 L 12.0262 16.716 L 11.9858 16.6995 L 11.9453 16.6829 L 11.9048 16.6663 L 11.8643 16.6497 L 11.8238 16.6331 L 11.7833 16.6164 L 11.7427 16.5998 L 11.7022 16.5831 L 11.6616 16.5664 L 11.621 16.5496 L 11.5804 16.5329 L 11.5398 16.5161 L 11.4991 16.4993 L 11.4585 16.4825 L 11.4178 16.4656 L 11.3771 16.4487 L 11.3364 16.4319 L 11.2957 16.4149 L 11.2549 16.398 L 11.2142 16.381 L 11.1734 16.364 L 11.1326 16.347 L 11.0918 16.33 L 11.051 16.3129 L 11.0102 16.2958 L 10.9693 16.2787 L 10.9284 16.2616 L 10.8876 16.2444 L 10.8467 16.2272 L 10.8057 16.21 L 10.7648 16.1928 L 10.7238 16.1755 L 10.6829 16.1582 L 10.6419 16.1409 L 10.6009 16.1235 L 10.5598 16.1062 L 10.5188 16.0888 L 10.4777 16.0713 L 10.4367 16.0539 L 10.3956 16.0364 L 10.3545 16.0189 L 10.3133 16.0014 L 10.2722 15.9838 L 10.2722 15.9838 L 10.2711 16.0285 L 10.2699 16.0732 L 10.2688 16.1179 L 10.2676 16.1626 L 10.2664 16.2072 L 10.2652 16.2518 L 10.264 16.2963 L 10.2627 16.3409 L 10.2615 16.3854 L 10.2602 16.4298 L 10.2589 16.4743 L 10.2576 16.5187 L 10.2563 16.5631 L 10.2549 16.6075 L 10.2536 16.6518 L 10.2522 16.6962 L 10.2508 16.7405 L 10.2494 16.7847 L 10.248 16.829 L 10.2466 16.8732 L 10.2451 16.9174 L 10.2436 16.9616 L 10.2422 17.0057 L 10.2407 17.0498 L 10.2392 17.0939 L 10.2376 17.138 L 10.2361 17.182 L 10.2345 17.2261 L 10.233 17.2701 L 10.2314 17.314 L 10.2298 17.358 L 10.2282 17.4019 L 10.2265 17.4458 L 10.2249 17.4897 L 10.2232 17.5335 L 10.2216 17.5774 L 10.2199 17.6212 L 10.2182 17.665 L 10.2165 17.7087 L 10.2148 17.7524 L 10.213 17.7962 L 10.2113 17.8399 L 10.2095 17.8835 L 10.2078 17.9272 L 10.206 17.9708 L 10.2042 18.0144 L 10.2024 18.058 L 10.2005 18.1015 L 10.1987 18.1451 L 10.1968 18.1886 L 10.195 18.2321 L 10.1931 18.2755 L 10.1912 18.319 L 10.1893 18.3624 L 10.1569 18.3803 L 10.1245 18.3982 L 10.092 18.4161 L 10.0595 18.4338 L 10.027 18.4515 L 9.99445 18.4692 L 9.96186 18.4868 L 9.92924 18.5043 L 9.89659 18.5218 L 9.86391 18.5392 L 9.8312 18.5566 L 9.79845 18.5739 L 9.76568 18.5912 L 9.73288 18.6084 L 9.70004 18.6255 L 9.66718 18.6426 L 9.63428 18.6596 L 9.60136 18.6766 L 9.5684 18.6935 L 9.53542 18.7103 L 9.50241 18.7271 L 9.46936 18.7438 L 9.43629 18.7605 L 9.40319 18.7771 L 9.37006 18.7937 L 9.3369 18.8102 L 9.30371 18.8266 L 9.27049 18.843 L 9.23724 18.8593 L 9.20397 18.8756 L 9.17066 18.8918 L 9.13733 18.9079 L 9.10397 18.924 L 9.07058 18.94 L 9.03716 18.956 L 9.00371 18.9719 L 8.97024 18.9878 L 8.93674 19.0035 L 8.90321 19.0193 L 8.86965 19.0349 L 8.83606 19.0506 L 8.80245 19.0661 L 8.76881 19.0816 L 8.67857 19.1228 L 8.64483 19.1381 L 8.61106 19.1533 L 8.57727 19.1685 L 8.54345 19.1836 L 8.5096 19.1986 L 8.47573 19.2136 L 8.44183 19.2285 L 8.4079 19.2434 L 8.37395 19.2582 L 8.33997 19.2729 L 8.30597 19.2876 L 8.27194 19.3022 L 8.23789 19.3168 L 8.2038 19.3313 L 8.1697 19.3457 L 8.13557 19.3601 L 8.10141 19.3744 L 8.06723 19.3887 L 8.03302 19.4029 L 7.99878 19.417 L 7.96453 19.4311 L 7.93025 19.4451 L 7.89594 19.459 L 7.86161 19.4729 L 7.82725 19.4868 L 7.79287 19.5005 L 7.75847 19.5143 L 7.72404 19.5279 L 7.68958 19.5415 L 7.65511 19.555 L 7.62061 19.5685 L 7.58608 19.5819 L 7.55154 19.5953 L 7.51696 19.6086 L 7.48237 19.6218 L 7.44775 19.6349 L 7.41311 19.648 L 7.37845 19.6611 L 7.34376 19.6741 L 7.30905 19.687 L 7.27432 19.6999 L 7.23956 19.7127 L 7.20478 19.7254 L 7.17072 19.6984 L 7.13665 19.6714 L 7.10257 19.6443 L 7.06849 19.6172 L 7.03439 19.5901 L 7.00029 19.563 L 6.96618 19.5359 L 6.93206 19.5087 L 6.89793 19.4815 L 6.86379 19.4543 L 6.82964 19.4271 L 6.79549 19.3998 L 6.76132 19.3725 L 6.72715 19.3452 L 6.69297 19.3179 L 6.65878 19.2905 L 6.62458 19.2631 L 6.59037 19.2357 L 6.55616 19.2082 L 6.52193 19.1808 L 6.4877 19.1533 L 6.45346 19.1258 L 6.4192 19.0982 L 6.38494 19.0706 L 6.35067 19.043 L 6.3164 19.0154 L 6.28211 18.9878 L 6.24781 18.9601 L 6.21351 18.9324 L 6.17919 18.9046 L 6.14487 18.8769 L 6.11054 18.8491 L 6.0762 18.8213 L 6.04185 18.7934 L 6.00749 18.7656 L 5.97312 18.7377 L 5.93874 18.7097 L 5.90436 18.6818 L 5.86996 18.6538 L 5.83555 18.6258 L 5.80114 18.5977 L 5.76672 18.5696 L 5.73229 18.5415 L 5.69784 18.5134 L 5.66339 18.4852 L 5.62893 18.457 L 5.59446 18.4288 L 5.55999 18.4006 L 5.5255 18.3723 L 5.491 18.3439 L 5.45649 18.3156 L 5.42198 18.2872 L 5.38745 18.2588 L 5.35292 18.2304 L 5.35292 18.2304 L 5.33924 18.273 L 5.32556 18.3155 L 5.31187 18.3581 L 5.29816 18.4006 L 5.28445 18.443 L 5.27073 18.4855 L 5.257 18.5279 L 5.24327 18.5703 L 5.22952 18.6126 L 5.21577 18.6549 L 5.202 18.6972 L 5.18823 18.7395 L 5.17445 18.7817 L 5.16066 18.8239 L 5.14687 18.8661 L 5.13306 18.9082 L 5.11925 18.9503 L 5.10543 18.9924 L 5.0916 19.0345 L 5.07777 19.0765 L 5.06393 19.1185 L 5.05008 19.1605 L 5.03622 19.2024 L 5.02235 19.2443 L 5.00848 19.2862 L 4.9946 19.3281 L 4.98071 19.3699 L 4.96682 19.4117 L 4.95292 19.4535 L 4.93901 19.4952 L 4.92509 19.5369 L 4.91117 19.5786 L 4.89724 19.6203 L 4.88331 19.6619 L 4.86937 19.7035 L 4.85542 19.7451 L 4.84146 19.7867 L 4.8275 19.8282 L 4.81354 19.8697 L 4.79956 19.9112 L 4.78558 19.9526 L 4.7716 19.9941 L 4.7576 20.0355 L 4.7436 20.0768 L 4.7296 20.1182 L 4.71559 20.1595 L 4.70157 20.2008 L 4.68755 20.2421 L 4.67352 20.2834 L 4.65949 20.3246 L 4.64545 20.3658 L 4.63141 20.407 L 4.61736 20.4481 L 4.6033 20.4893 L 4.56716 20.4973 L 4.531 20.5054 L 4.49483 20.5133 L 4.45864 20.5212 L 4.42245 20.5291 L 4.38623 20.5368 L 4.35 20.5445 L 4.31376 20.5522 L 4.27751 20.5597 L 4.24124 20.5673 L 4.20496 20.5747 L 4.16867 20.5821 L 4.13236 20.5894 L 4.09604 20.5967 L 4.05971 20.6039 L 4.02337 20.611 L 3.98701 20.618 L 3.95064 20.625 L 3.91426 20.632 L 3.87786 20.6389 L 3.84146 20.6457 L 3.80504 20.6524 L 3.76861 20.6591 L 3.73217 20.6657 L 3.69572 20.6722 L 3.65925 20.6787 L 3.62277 20.6852 L 3.58629 20.6915 L 3.54979 20.6978 L 3.51328 20.704 L 3.47676 20.7102 L 3.44023 20.7163 L 3.40369 20.7223 L 3.36713 20.7283 L 3.33057 20.7342 L 3.294 20.74 L 3.25741 20.7458 L 3.22082 20.7515 L 3.18422 20.7572 L 3.1476 20.7628 L 3.11098 20.7683 L 3.07434 20.7737 L 3.0377 20.7791 L 2.9395 20.7933 L 2.90283 20.7984 L 2.86614 20.8035 L 2.82945 20.8085 L 2.79274 20.8135 L 2.75603 20.8184 L 2.71931 20.8232 L 2.68258 20.828 L 2.64584 20.8327 L 2.6091 20.8373 L 2.57234 20.8419 L 2.53558 20.8464 L 2.49881 20.8508 L 2.46203 20.8552 L 2.42525 20.8595 L 2.38845 20.8637 L 2.35165 20.8679 L 2.31485 20.872 L 2.27803 20.8761 L 2.24121 20.8801 L 2.20438 20.884 L 2.16754 20.8878 L 2.1307 20.8916 L 2.09385 20.8954 L 2.057 20.899 L 2.02013 20.9026 L 1.98327 20.9061 L 1.94639 20.9096 L 1.90951 20.913 L 1.87262 20.9163 L 1.83573 20.9196 L 1.79883 20.9228 L 1.76193 20.926 L 1.72502 20.929 L 1.68811 20.932 L 1.65119 20.935 L 1.61426 20.9379 L 1.57733 20.9407 L 1.5404 20.9434 L 1.50346 20.9461 L 1.46651 20.9487 L 1.42956 20.9513 L 1.39261 20.9538 L 1.35565 20.9562 L 1.33058 20.9207 L 1.3055 20.8852 L 1.28043 20.8496 L 1.25535 20.814 L 1.23027 20.7784 L 1.20519 20.7428 L 1.1801 20.7071 L 1.15502 20.6715 L 1.12993 20.6358 L 1.10485 20.6 L 1.07976 20.5643 L 1.05467 20.5285 L 1.02958 20.4927 L 1.00448 20.4568 L 0.979389 20.421 L 0.954294 20.3851 L 0.929198 20.3492 L 0.9041 20.3132 L 0.879001 20.2773 L 0.853901 20.2413 L 0.828799 20.2052 L 0.803697 20.1692 L 0.778593 20.1331 L 0.753489 20.097 L 0.728383 20.0609 L 0.703276 20.0247 L 0.678168 19.9885 L 0.65306 19.9523 L 0.62795 19.916 L 0.60284 19.8798 L 0.577728 19.8434 L 0.552616 19.8071 L 0.527503 19.7707 L 0.502389 19.7343 L 0.477274 19.6979 L 0.452159 19.6615 L 0.427043 19.625 L 0.401926 19.5885 L 0.376809 19.5519 L 0.351691 19.5153 L 0.326573 19.4787 L 0.301454 19.4421 L 0.276334 19.4054 L 0.251215 19.3687 L 0.226094 19.332 L 0.200974 19.2952 L 0.175853 19.2585 L 0.150731 19.2216 L 0.12561 19.1848 L 0.100488 19.1479 L 0.0753663 19.111 L 0.0502443 19.074 L 0.0251222 19.037 L -4.44089e-16 19 L 2.77092e-15 19 L -0.0251222 19.037 L -0.0502443 19.074 L -0.0753663 19.111 L -0.100488 19.1479 L -0.12561 19.1848 L -0.150731 19.2216 L -0.175853 19.2585 L -0.200974 19.2952 L -0.226094 19.332 L -0.251215 19.3687 L -0.276334 19.4054 L -0.301454 19.4421 L -0.326573 19.4787 L -0.351691 19.5153 L -0.376809 19.5519 L -0.401926 19.5885 L -0.427043 19.625 L -0.452159 19.6615 L -0.477274 19.6979 L -0.502389 19.7343 L -0.527503 19.7707 L -0.552616 19.8071 L -0.577728 19.8434 L -0.60284 19.8798 L -0.62795 19.916 L -0.65306 19.9523 L -0.678168 19.9885 L -0.703276 20.0247 L -0.728383 20.0609 L -0.753489 20.097 L -0.778593 20.1331 L -0.803697 20.1692 L -0.828799 20.2052 L -0.853901 20.2413 L -0.879001 20.2773 L -0.9041 20.3132 L -0.929198 20.3492 L -0.954294 20.3851 L -0.979389 20.421 L -1.00448 20.4568 L -1.02958 20.4927 L -1.05467 20.5285 L -1.07976 20.5643 L -1.10485 20.6 L -1.12993 20.6358 L -1.15502 20.6715 L -1.1801 20.7071 L -1.20519 20.7428 L -1.23027 20.7784 L -1.25535 20.814 L -1.28043 20.8496 L -1.3055 20.8852 L -1.33058 20.9207 L -1.35565 20.9562 L -1.39261 20.9538 L -1.42956 20.9513 L -1.46651 20.9487 L -1.50346 20.9461 L -1.5404 20.9434 L -1.57733 20.9407 L -1.61426 20.9379 L -1.65119 20.935 L -1.68811 20.932 L -1.72502 20.929 L -1.76193 20.926 L -1.79883 20.9228 L -1.83573 20.9196 L -1.87262 20.9163 L -1.90951 20.913 L -1.94639 20.9096 L -1.98327 20.9061 L -2.02013 20.9026 L -2.057 20.899 L -2.09385 20.8954 L -2.1307 20.8916 L -2.16754 20.8878 L -2.20438 20.884 L -2.24121 20.8801 L -2.27803 20.8761 L -2.31485 20.872 L -2.35165 20.8679 L -2.38845 20.8637 L -2.42525 20.8595 L -2.46203 20.8552 L -2.49881 20.8508 L -2.53558 20.8464 L -2.57234 20.8419 L -2.6091 20.8373 L -2.64584 20.8327 L -2.68258 20.828 L -2.71931 20.8232 L -2.75603 20.8184 L -2.79274 20.8135 L -2.82945 20.8085 L -2.86614 20.8035 L -2.90283 20.7984 L -2.9395 20.7933 L -3.0377 20.7791 L -3.07434 20.7737 L -3.11098 20.7683 L -3.1476 20.7628 L -3.18422 20.7572 L -3.22082 20.7515 L -3.25741 20.7458 L -3.294 20.74 L -3.33057 20.7342 L -3.36713 20.7283 L -3.40369 20.7223 L -3.44023 20.7163 L -3.47676 20.7102 L -3.51328 20.704 L -3.54979 20.6978 L -3.58629 20.6915 L -3.62277 20.6852 L -3.65925 20.6787 L -3.69572 20.6722 L -3.73217 20.6657 L -3.76861 20.6591 L -3.80504 20.6524 L -3.84146 20.6457 L -3.87786 20.6389 L -3.91426 20.632 L -3.95064 20.625 L -3.98701 20.618 L -4.02337 20.611 L -4.05971 20.6039 L -4.09604 20.5967 L -4.13236 20.5894 L -4.16867 20.5821 L -4.20496 20.5747 L -4.24124 20.5673 L -4.27751 20.5597 L -4.31376 20.5522 L -4.35 20.5445 L -4.38623 20.5368 L -4.42245 20.5291 L -4.45864 20.5212 L -4.49483 20.5133 L -4.531 20.5054 L -4.56716 20.4973 L -4.6033 20.4893 L -4.61736 20.4481 L -4.63141 20.407 L -4.64545 20.3658 L -4.65949 20.3246 L -4.67352 20.2834 L -4.68755 20.2421 L -4.70157 20.2008 L -4.71559 20.1595 L -4.7296 20.1182 L -4.7436 20.0768 L -4.7576 20.0355 L -4.7716 19.9941 L -4.78558 19.9526 L -4.79956 19.9112 L -4.81354 19.8697 L -4.8275 19.8282 L -4.84146 19.7867 L -4.85542 19.7451 L -4.86937 19.7035 L -4.88331 19.6619 L -4.89724 19.6203 L -4.91117 19.5786 L -4.92509 19.5369 L -4.93901 19.4952 L -4.95292 19.4535 L -4.96682 19.4117 L -4.98071 19.3699 L -4.9946 19.3281 L -5.00848 19.2862 L -5.02235 19.2443 L -5.03622 19.2024 L -5.05008 19.1605 L -5.06393 19.1185 L -5.07777 19.0765 L -5.0916 19.0345 L -5.10543 18.9924 L -5.11925 18.9503 L -5.13306 18.9082 L -5.14687 18.8661 L -5.16066 18.8239 L -5.17445 18.7817 L -5.18823 18.7395 L -5.202 18.6972 L -5.21577 18.6549 L -5.22952 18.6126 L -5.24327 18.5703 L -5.257 18.5279 L -5.27073 18.4855 L -5.28445 18.443 L -5.29816 18.4006 L -5.31187 18.3581 L -5.32556 18.3155 L -5.33924 18.273 L -5.35292 18.2304 L -5.35292 18.2304 L -5.38745 18.2588 L -5.42198 18.2872 L -5.45649 18.3156 L -5.491 18.3439 L -5.5255 18.3723 L -5.55999 18.4006 L -5.59446 18.4288 L -5.62893 18.457 L -5.66339 18.4852 L -5.69784 18.5134 L -5.73229 18.5415 L -5.76672 18.5696 L -5.80114 18.5977 L -5.83555 18.6258 L -5.86996 18.6538 L -5.90436 18.6818 L -5.93874 18.7097 L -5.97312 18.7377 L -6.00749 18.7656 L -6.04185 18.7934 L -6.0762 18.8213 L -6.11054 18.8491 L -6.14487 18.8769 L -6.17919 18.9046 L -6.21351 18.9324 L -6.24781 18.9601 L -6.28211 18.9878 L -6.3164 19.0154 L -6.35067 19.043 L -6.38494 19.0706 L -6.4192 19.0982 L -6.45346 19.1258 L -6.4877 19.1533 L -6.52193 19.1808 L -6.55616 19.2082 L -6.59037 19.2357 L -6.62458 19.2631 L -6.65878 19.2905 L -6.69297 19.3179 L -6.72715 19.3452 L -6.76132 19.3725 L -6.79549 19.3998 L -6.82964 19.4271 L -6.86379 19.4543 L -6.89793 19.4815 L -6.93206 19.5087 L -6.96618 19.5359 L -7.00029 19.563 L -7.03439 19.5901 L -7.06849 19.6172 L -7.10257 19.6443 L -7.13665 19.6714 L -7.17072 19.6984 L -7.20478 19.7254 L -7.23956 19.7127 L -7.27432 19.6999 L -7.30905 19.687 L -7.34376 19.6741 L -7.37845 19.6611 L -7.41311 19.648 L -7.44775 19.6349 L -7.48237 19.6218 L -7.51696 19.6086 L -7.55154 19.5953 L -7.58608 19.5819 L -7.62061 19.5685 L -7.65511 19.555 L -7.68958 19.5415 L -7.72404 19.5279 L -7.75847 19.5143 L -7.79287 19.5005 L -7.82725 19.4868 L -7.86161 19.4729 L -7.89594 19.459 L -7.93025 19.4451 L -7.96453 19.4311 L -7.99878 19.417 L -8.03302 19.4029 L -8.06723 19.3887 L -8.10141 19.3744 L -8.13557 19.3601 L -8.1697 19.3457 L -8.2038 19.3313 L -8.23789 19.3168 L -8.27194 19.3022 L -8.30597 19.2876 L -8.33997 19.2729 L -8.37395 19.2582 L -8.4079 19.2434 L -8.44183 19.2285 L -8.47573 19.2136 L -8.5096 19.1986 L -8.54345 19.1836 L -8.57727 19.1685 L -8.61106 19.1533 L -8.64483 19.1381 L -8.67857 19.1228 L -8.76881 19.0816 L -8.80245 19.0661 L -8.83606 19.0506 L -8.86965 19.0349 L -8.90321 19.0193 L -8.93674 19.0035 L -8.97024 18.9878 L -9.00371 18.9719 L -9.03716 18.956 L -9.07058 18.94 L -9.10397 18.924 L -9.13733 18.9079 L -9.17066 18.8918 L -9.20397 18.8756 L -9.23724 18.8593 L -9.27049 18.843 L -9.30371 18.8266 L -9.3369 18.8102 L -9.37006 18.7937 L -9.40319 18.7771 L -9.43629 18.7605 L -9.46936 18.7438 L -9.50241 18.7271 L -9.53542 18.7103 L -9.5684 18.6935 L -9.60136 18.6766 L -9.63428 18.6596 L -9.66718 18.6426 L -9.70004 18.6255 L -9.73288 18.6084 L -9.76568 18.5912 L -9.79845 18.5739 L -9.8312 18.5566 L -9.86391 18.5392 L -9.89659 18.5218 L -9.92924 18.5043 L -9.96186 18.4868 L -9.99445 18.4692 L -10.027 18.4515 L -10.0595 18.4338 L -10.092 18.4161 L -10.1245 18.3982 L -10.1569 18.3803 L -10.1893 18.3624 L -10.1912 18.319 L -10.1931 18.2755 L -10.195 18.2321 L -10.1968 18.1886 L -10.1987 18.1451 L -10.2005 18.1015 L -10.2024 18.058 L -10.2042 18.0144 L -10.206 17.9708 L -10.2078 17.9272 L -10.2095 17.8835 L -10.2113 17.8399 L -10.213 17.7962 L -10.2148 17.7524 L -10.2165 17.7087 L -10.2182 17.665 L -10.2199 17.6212 L -10.2216 17.5774 L -10.2232 17.5335 L -10.2249 17.4897 L -10.2265 17.4458 L -10.2282 17.4019 L -10.2298 17.358 L -10.2314 17.314 L -10.233 17.2701 L -10.2345 17.2261 L -10.2361 17.182 L -10.2376 17.138 L -10.2392 17.0939 L -10.2407 17.0498 L -10.2422 17.0057 L -10.2436 16.9616 L -10.2451 16.9174 L -10.2466 16.8732 L -10.248 16.829 L -10.2494 16.7847 L -10.2508 16.7405 L -10.2522 16.6962 L -10.2536 16.6518 L -10.2549 16.6075 L -10.2563 16.5631 L -10.2576 16.5187 L -10.2589 16.4743 L -10.2602 16.4298 L -10.2615 16.3854 L -10.2627 16.3409 L -10.264 16.2963 L -10.2652 16.2518 L -10.2664 16.2072 L -10.2676 16.1626 L -10.2688 16.1179 L -10.2699 16.0732 L -10.2711 16.0285 L -10.2722 15.9838 L -10.2722 15.9838 L -10.3133 16.0014 L -10.3545 16.0189 L -10.3956 16.0364 L -10.4367 16.0539 L -10.4777 16.0713 L -10.5188 16.0888 L -10.5598 16.1062 L -10.6009 16.1235 L -10.6419 16.1409 L -10.6829 16.1582 L -10.7238 16.1755 L -10.7648 16.1928 L -10.8057 16.21 L -10.8467 16.2272 L -10.8876 16.2444 L -10.9284 16.2616 L -10.9693 16.2787 L -11.0102 16.2958 L -11.051 16.3129 L -11.0918 16.33 L -11.1326 16.347 L -11.1734 16.364 L -11.2142 16.381 L -11.2549 16.398 L -11.2957 16.4149 L -11.3364 16.4319 L -11.3771 16.4487 L -11.4178 16.4656 L -11.4585 16.4825 L -11.4991 16.4993 L -11.5398 16.5161 L -11.5804 16.5329 L -11.621 16.5496 L -11.6616 16.5664 L -11.7022 16.5831 L -11.7427 16.5998 L -11.7833 16.6164 L -11.8238 16.6331 L -11.8643 16.6497 L -11.9048 16.6663 L -11.9453 16.6829 L -11.9858 16.6995 L -12.0262 16.716 L -12.0667 16.7325 L -12.1071 16.749 L -12.1475 16.7655 L -12.1879 16.7819 L -12.2283 16.7984 L -12.2686 16.8148 L -12.309 16.8312 L -12.3493 16.8476 L -12.3896 16.8639 L -12.4299 16.8802 L -12.4702 16.8966 L -12.5 16.8745 L -12.5297 16.8525 L -12.5594 16.8303 L -12.5891 16.8082 L -12.6187 16.7859 L -12.6483 16.7636 L -12.6779 16.7413 L -12.7074 16.7189 L -12.7368 16.6965 L -12.7663 16.674 L -12.7957 16.6515 L -12.825 16.6289 L -12.8543 16.6062 L -12.8836 16.5835 L -12.9128 16.5608 L -12.942 16.538 L -12.9711 16.5151 L -13.0002 16.4922 L -13.0293 16.4693 L -13.0583 16.4463 L -13.0873 16.4232 L -13.1163 16.4001 L -13.1452 16.3769 L -13.174 16.3537 L -13.2029 16.3305 L -13.2316 16.3072 L -13.2604 16.2838 L -13.2891 16.2604 L -13.3177 16.2369 L -13.3464 16.2134 L -13.3749 16.1899 L -13.4035 16.1662 L -13.432 16.1426 L -13.4604 16.1189 L -13.4888 16.0951 L -13.5172 16.0713 L -13.5455 16.0474 L -13.5738 16.0235 L -13.602 15.9995 L -13.6302 15.9755 L -13.6584 15.9515 L -13.6865 15.9273 L -13.7145 15.9032 L -13.7895 15.8382 L -13.8174 15.8139 L -13.8453 15.7895 L -13.8731 15.765 L -13.9009 15.7405 L -13.9287 15.716 L -13.9563 15.6914 L -13.984 15.6668 L -14.0116 15.6421 L -14.0392 15.6173 L -14.0667 15.5926 L -14.0942 15.5677 L -14.1216 15.5428 L -14.149 15.5179 L -14.1763 15.4929 L -14.2037 15.4679 L -14.2309 15.4428 L -14.2581 15.4177 L -14.2853 15.3925 L -14.3124 15.3673 L -14.3395 15.3421 L -14.3665 15.3167 L -14.3935 15.2914 L -14.4205 15.266 L -14.4474 15.2405 L -14.4742 15.215 L -14.501 15.1895 L -14.5278 15.1639 L -14.5545 15.1382 L -14.5812 15.1125 L -14.6078 15.0868 L -14.6344 15.061 L -14.661 15.0352 L -14.6875 15.0093 L -14.7139 14.9834 L -14.7403 14.9574 L -14.7667 14.9314 L -14.793 14.9053 L -14.8192 14.8792 L -14.8455 14.853 L -14.8716 14.8268 L -14.8978 14.8006 L -14.9238 14.7743 L -14.9499 14.7479 L -14.9395 14.7057 L -14.929 14.6635 L -14.9186 14.6213 L -14.9081 14.579 L -14.8976 14.5367 L -14.8871 14.4945 L -14.8766 14.4522 L -14.8661 14.4098 L -14.8555 14.3675 L -14.8449 14.3251 L -14.8343 14.2828 L -14.8237 14.2404 L -14.8131 14.1979 L -14.8024 14.1555 L -14.7918 14.1131 L -14.7811 14.0706 L -14.7704 14.0281 L -14.7597 13.9856 L -14.7489 13.9431 L -14.7381 13.9005 L -14.7273 13.858 L -14.7165 13.8154 L -14.7057 13.7728 L -14.6949 13.7302 L -14.684 13.6875 L -14.6731 13.6449 L -14.6622 13.6022 L -14.6513 13.5595 L -14.6403 13.5168 L -14.6293 13.4741 L -14.6183 13.4313 L -14.6073 13.3885 L -14.5963 13.3457 L -14.5852 13.3029 L -14.5741 13.2601 L -14.563 13.2172 L -14.5519 13.1744 L -14.5408 13.1315 L -14.5296 13.0886 L -14.5184 13.0456 L -14.5072 13.0027 L -14.496 12.9597 L -14.4847 12.9167 L -14.4734 12.8737 L -14.4621 12.8306 L -14.4508 12.7876 L -14.4394 12.7445 L -14.428 12.7014 L -14.4166 12.6583 L -14.4052 12.6151 L -14.3937 12.572 L -14.3823 12.5288 L -14.3708 12.4856 L -14.3592 12.4424 L -14.3592 12.4424 L -14.4037 12.4476 L -14.4481 12.4528 L -14.4925 12.4581 L -14.5368 12.4633 L -14.5811 12.4684 L -14.6254 12.4736 L -14.6697 12.4787 L -14.714 12.4838 L -14.7582 12.4889 L -14.8024 12.494 L -14.8466 12.499 L -14.8908 12.504 L -14.9349 12.5091 L -14.979 12.514 L -15.0231 12.519 L -15.0672 12.524 L -15.1112 12.5289 L -15.1552 12.5338 L -15.1992 12.5387 L -15.2432 12.5436 L -15.2872 12.5484 L -15.3311 12.5533 L -15.375 12.5581 L -15.4189 12.5629 L -15.4628 12.5677 L -15.5066 12.5724 L -15.5504 12.5772 L -15.5942 12.5819 L -15.638 12.5866 L -15.6817 12.5913 L -15.7255 12.596 L -15.7692 12.6006 L -15.8128 12.6052 L -15.8565 12.6099 L -15.9001 12.6145 L -15.9438 12.6191 L -15.9874 12.6236 L -16.0309 12.6282 L -16.0745 12.6327 L -16.118 12.6372 L -16.1616 12.6417 L -16.2051 12.6462 L -16.2485 12.6507 L -16.292 12.6552 L -16.3354 12.6596 L -16.3788 12.664 L -16.4222 12.6684 L -16.4656 12.6728 L -16.5089 12.6772 L -16.5523 12.6816 L -16.5956 12.6859 L -16.6389 12.6902 L -16.6821 12.6946 L -16.7254 12.6989 L -16.7478 12.6693 L -16.7701 12.6398 L -16.7924 12.6102 L -16.8146 12.5805 L -16.8367 12.5509 L -16.8588 12.5212 L -16.8809 12.4914 L -16.9029 12.4616 L -16.9249 12.4318 L -16.9468 12.4019 L -16.9686 12.372 L -16.9904 12.3421 L -17.0121 12.3121 L -17.0338 12.2821 L -17.0555 12.252 L -17.077 12.2219 L -17.0986 12.1918 L -17.12 12.1616 L -17.1415 12.1314 L -17.1628 12.1011 L -17.1842 12.0708 L -17.2054 12.0405 L -17.2266 12.0101 L -17.2478 11.9797 L -17.2689 11.9493 L -17.2899 11.9188 L -17.3109 11.8883 L -17.3319 11.8578 L -17.3527 11.8272 L -17.3736 11.7966 L -17.3944 11.7659 L -17.4151 11.7352 L -17.4358 11.7045 L -17.4564 11.6737 L -17.4769 11.6429 L -17.4974 11.6121 L -17.5179 11.5812 L -17.5383 11.5503 L -17.5586 11.5193 L -17.5789 11.4883 L -17.5992 11.4573 L -17.6193 11.4262 L -17.6395 11.3952 L -17.6931 11.3117 L -17.713 11.2805 L -17.7329 11.2492 L -17.7527 11.2179 L -17.7725 11.1866 L -17.7922 11.1552 L -17.8118 11.1238 L -17.8314 11.0924 L -17.8509 11.0609 L -17.8704 11.0294 L -17.8898 10.9979 L -17.9092 10.9663 L -17.9285 10.9347 L -17.9478 10.9031 L -17.967 10.8714 L -17.9861 10.8397 L -18.0052 10.808 L -18.0242 10.7762 L -18.0432 10.7444 L -18.0621 10.7126 L -18.081 10.6807 L -18.0998 10.6488 L -18.1186 10.6169 L -18.1373 10.5849 L -18.1559 10.5529 L -18.1745 10.5208 L -18.193 10.4888 L -18.2115 10.4567 L -18.2299 10.4245 L -18.2483 10.3924 L -18.2666 10.3602 L -18.2848 10.3279 L -18.303 10.2957 L -18.3211 10.2634 L -18.3392 10.231 L -18.3572 10.1987 L -18.3752 10.1663 L -18.3931 10.1339 L -18.4109 10.1014 L -18.4287 10.0689 L -18.4464 10.0364 L -18.4641 10.0039 L -18.4817 9.97128 L -18.4993 9.93866 L -18.4774 9.90111 L -18.4555 9.86354 L -18.4336 9.82596 L -18.4116 9.78837 L -18.3896 9.75076 L -18.3677 9.71315 L -18.3456 9.67552 L -18.3236 9.63788 L -18.3016 9.60023 L -18.2795 9.56256 L -18.2574 9.52489 L -18.2352 9.4872 L -18.2131 9.4495 L -18.1909 9.41179 L -18.1687 9.37406 L -18.1465 9.33633 L -18.1243 9.29858 L -18.102 9.26082 L -18.0797 9.22304 L -18.0574 9.18526 L -18.035 9.14746 L -18.0127 9.10965 L -17.9903 9.07182 L -17.9679 9.03399 L -17.9454 8.99614 L -17.9229 8.95828 L -17.9005 8.92041 L -17.8779 8.88252 L -17.8554 8.84462 L -17.8328 8.80671 L -17.8102 8.76878 L -17.7876 8.73085 L -17.765 8.6929 L -17.7423 8.65493 L -17.7196 8.61696 L -17.6969 8.57897 L -17.6741 8.54097 L -17.6513 8.50295 L -17.6285 8.46492 L -17.6057 8.42688 L -17.5828 8.38882 L -17.5599 8.35076 L -17.537 8.31267 L -17.5141 8.27458 L -17.4911 8.23647 L -17.4681 8.19835 L -17.4451 8.16021 L -17.422 8.12206 L -17.3989 8.0839 L -17.3758 8.04573 L -17.3526 8.00754 L -17.3295 7.96933 L -17.3062 7.93112 L -17.283 7.89289 L -17.283 7.89289 L -17.3271 7.88541 L -17.3712 7.87793 L -17.4153 7.87043 L -17.4593 7.86291 L -17.5033 7.85538 L -17.5472 7.84784 L -17.5912 7.84029 L -17.6351 7.83272 L -17.6789 7.82515 L -17.7228 7.81755 L -17.7666 7.80995 L -17.8104 7.80233 L -17.8542 7.7947 L -17.8979 7.78706 L -17.9416 7.77941 L -17.9853 7.77174 L -18.0289 7.76406 L -18.0725 7.75637 L -18.1161 7.74867 L -18.1597 7.74095 L -18.2032 7.73323 L -18.2467 7.72549 L -18.2902 7.71774 L -18.3337 7.70998 L -18.3771 7.70221 L -18.4205 7.69443 L -18.4639 7.68664 L -18.5073 7.67883 L -18.5506 7.67102 L -18.5939 7.66319 L -18.6372 7.65536 L -18.6804 7.64751 L -18.7236 7.63965 L -18.7668 7.63179 L -18.81 7.62391 L -18.8531 7.61602 L -18.8963 7.60812 L -18.9394 7.60021 L -18.9824 7.59229 L -19.0255 7.58437 L -19.0685 7.57643 L -19.1115 7.56848 L -19.1545 7.56052 L -19.1974 7.55256 L -19.2403 7.54458 L -19.2832 7.53659 L -19.3261 7.5286 L -19.369 7.52059 L -19.4118 7.51258 L -19.4546 7.50456 L -19.4974 7.49652 L -19.5401 7.48848 L -19.5829 7.48043 L -19.6256 7.47237 L -19.6387 7.43775 L -19.6518 7.4031 L -19.6648 7.36843 L -19.6778 7.33374 L -19.6907 7.29902 L -19.7036 7.26428 L -19.7163 7.22952 L -19.7291 7.19473 L -19.7417 7.15993 L -19.7543 7.1251 L -19.7669 7.09025 L -19.7793 7.05537 L -19.7917 7.02048 L -19.8041 6.98556 L -19.8164 6.95062 L -19.8286 6.91566 L -19.8408 6.88068 L -19.8529 6.84568 L -19.8649 6.81065 L -19.8769 6.77561 L -19.8888 6.74054 L -19.9007 6.70545 L -19.9125 6.67034 L -19.9242 6.63522 L -19.9359 6.60007 L -19.9475 6.5649 L -19.959 6.5297 L -19.9705 6.49449 L -19.9819 6.45926 L -19.9933 6.42401 L -20.0046 6.38874 L -20.0158 6.35345 L -20.027 6.31814 L -20.0381 6.2828 L -20.0492 6.24745 L -20.0602 6.21208 L -20.0711 6.1767 L -20.0819 6.14129 L -20.0927 6.10586 L -20.1035 6.07041 L -20.1142 6.03495 L -20.1248 5.99946 L -20.1353 5.96396 L -20.1633 5.86877 L -20.1736 5.8332 L -20.1838 5.79761 L -20.194 5.76201 L -20.2042 5.72638 L -20.2142 5.69074 L -20.2242 5.65508 L -20.2342 5.6194 L -20.2441 5.58371 L -20.2539 5.548 L -20.2636 5.51227 L -20.2733 5.47652 L -20.283 5.44075 L -20.2925 5.40497 L -20.302 5.36918 L -20.3115 5.33336 L -20.3208 5.29753 L -20.3301 5.26168 L -20.3394 5.22582 L -20.3486 5.18994 L -20.3577 5.15404 L -20.3668 5.11813 L -20.3758 5.0822 L -20.3847 5.04626 L -20.3936 5.0103 L -20.4024 4.97432 L -20.4111 4.93833 L -20.4198 4.90233 L -20.4284 4.86631 L -20.4369 4.83027 L -20.4454 4.79422 L -20.4539 4.75815 L -20.4622 4.72207 L -20.4705 4.68597 L -20.4787 4.64986 L -20.4869 4.61374 L -20.495 4.5776 L -20.5031 4.54145 L -20.511 4.50528 L -20.5189 4.4691 L -20.5268 4.4329 L -20.5346 4.39669 L -20.5423 4.36047 L -20.55 4.32423 L -20.5184 4.29436 L -20.4868 4.26448 L -20.4552 4.2346 L -20.4235 4.20472 L -20.3918 4.17482 L -20.3601 4.14493 L -20.3284 4.11503 L -20.2967 4.08512 L -20.2649 4.05521 L -20.2331 4.02529 L -20.2013 3.99537 L -20.1694 3.96544 L -20.1376 3.93551 L -20.1057 3.90557 L -20.0737 3.87563 L -20.0418 3.84568 L -20.0098 3.81573 L -19.9778 3.78577 L -19.9458 3.75581 L -19.9137 3.72584 L -19.8816 3.69587 L -19.8495 3.66589 L -19.8174 3.63591 L -19.7852 3.60592 L -19.753 3.57593 L -19.7208 3.54593 L -19.6885 3.51593 L -19.6563 3.48592 L -19.6239 3.4559 L -19.5916 3.42589 L -19.5592 3.39586 L -19.5269 3.36584 L -19.4944 3.3358 L -19.462 3.30577 L -19.4295 3.27572 L -19.397 3.24568 L -19.3645 3.21562 L -19.3319 3.18557 L -19.2993 3.1555 L -19.2667 3.12544 L -19.234 3.09536 L -19.2013 3.06529 L -19.1686 3.0352 L -19.1358 3.00512 L -19.1031 2.97503 L -19.0703 2.94493 L -19.0374 2.91483 L -19.0045 2.88472 L -18.9716 2.85461 L -18.9387 2.82449 L -18.9057 2.79437 L -18.8727 2.76425 L -18.8397 2.73412 L -18.8066 2.70398 L -18.8066 2.70398 L -18.8468 2.68438 L -18.887 2.66478 L -18.9272 2.64517 L -18.9673 2.62556 L -19.0074 2.60595 L -19.0474 2.58633 L -19.0875 2.5667 L -19.1275 2.54707 L -19.1674 2.52744 L -19.2073 2.5078 L -19.2472 2.48816 L -19.2871 2.46851 L -19.327 2.44887 L -19.3668 2.42921 L -19.4065 2.40956 L -19.4463 2.38989 L -19.486 2.37023 L -19.5257 2.35056 L -19.5653 2.33089 L -19.605 2.31121 L -19.6446 2.29154 L -19.6841 2.27185 L -19.7237 2.25217 L -19.7632 2.23248 L -19.8027 2.21279 L -19.8421 2.19309 L -19.8816 2.17339 L -19.921 2.15369 L -19.9603 2.13399 L -19.9997 2.11428 L -20.039 2.09457 L -20.0783 2.07486 L -20.1175 2.05514 L -20.1568 2.03542 L -20.196 2.0157 L -20.2351 1.99598 L -20.2743 1.97625 L -20.3134 1.95652 L -20.3525 1.93679 L -20.3916 1.91705 L -20.4306 1.89731 L -20.4696 1.87757 L -20.5086 1.85783 L -20.5476 1.83809 L -20.5865 1.81834 L -20.6254 1.79859 L -20.6643 1.77884 L -20.7032 1.75909 L -20.742 1.73933 L -20.7808 1.71957 L -20.8196 1.69981 L -20.8584 1.68005 L -20.8971 1.66029 L -20.9358 1.64052 L -20.9387 1.6036 L -20.9415 1.56667 L -20.9442 1.52973 L -20.9469 1.49279 L -20.9495 1.45584 L -20.952 1.41889 L -20.9545 1.38194 L -20.9569 1.34498 L -20.9592 1.30802 L -20.9615 1.27105 L -20.9637 1.23408 L -20.9659 1.1971 L -20.9679 1.16012 L -20.9699 1.12314 L -20.9719 1.08616 L -20.9738 1.04917 L -20.9756 1.01217 L -20.9773 0.975179 L -20.979 0.93818 L -20.9807 0.901179 L -20.9822 0.864174 L -20.9837 0.827167 L -20.9851 0.790158 L -20.9865 0.753146 L -20.9878 0.716131 L -20.989 0.679115 L -20.9902 0.642096 L -20.9913 0.605075 L -20.9923 0.568053 L -20.9933 0.531028 L -20.9942 0.494002 L -20.995 0.456975 L -20.9958 0.419946 L -20.9965 0.382916 L -20.9972 0.345884 L -20.9977 0.308852 L -20.9982 0.271818 L -20.9987 0.234784 L -20.9991 0.197749 L -20.9994 0.160713 L -20.9996 0.123677 L -20.9998 0.0866404 L -20.9999 0.0496035 L -20.9999 -0.0496035 L -20.9998 -0.0866404 L -20.9996 -0.123677 L -20.9994 -0.160713 L -20.9991 -0.197749 L -20.9987 -0.234784 L -20.9982 -0.271818 L -20.9977 -0.308852 L -20.9972 -0.345884 L -20.9965 -0.382916 L -20.9958 -0.419946 L -20.995 -0.456975 L -20.9942 -0.494002 L -20.9933 -0.531028 L -20.9923 -0.568053 L -20.9913 -0.605075 L -20.9902 -0.642096 L -20.989 -0.679115 L -20.9878 -0.716131 L -20.9865 -0.753146 L -20.9851 -0.790158 L -20.9837 -0.827167 L -20.9822 -0.864174 L -20.9807 -0.901179 L -20.979 -0.93818 L -20.9773 -0.975179 L -20.9756 -1.01217 L -20.9738 -1.04917 L -20.9719 -1.08616 L -20.9699 -1.12314 L -20.9679 -1.16012 L -20.9659 -1.1971 L -20.9637 -1.23408 L -20.9615 -1.27105 L -20.9592 -1.30802 L -20.9569 -1.34498 L -20.9545 -1.38194 L -20.952 -1.41889 L -20.9495 -1.45584 L -20.9469 -1.49279 L -20.9442 -1.52973 L -20.9415 -1.56667 L -20.9387 -1.6036 L -20.9358 -1.64052 L -20.8971 -1.66029 L -20.8584 -1.68005 L -20.8196 -1.69981 L -20.7808 -1.71957 L -20.742 -1.73933 L -20.7032 -1.75909 L -20.6643 -1.77884 L -20.6254 -1.79859 L -20.5865 -1.81834 L -20.5476 -1.83809 L -20.5086 -1.85783 L -20.4696 -1.87757 L -20.4306 -1.89731 L -20.3916 -1.91705 L -20.3525 -1.93679 L -20.3134 -1.95652 L -20.2743 -1.97625 L -20.2351 -1.99598 L -20.196 -2.0157 L -20.1568 -2.03542 L -20.1175 -2.05514 L -20.0783 -2.07486 L -20.039 -2.09457 L -19.9997 -2.11428 L -19.9603 -2.13399 L -19.921 -2.15369 L -19.8816 -2.17339 L -19.8421 -2.19309 L -19.8027 -2.21279 L -19.7632 -2.23248 L -19.7237 -2.25217 L -19.6841 -2.27185 L -19.6446 -2.29154 L -19.605 -2.31121 L -19.5653 -2.33089 L -19.5257 -2.35056 L -19.486 -2.37023 L -19.4463 -2.38989 L -19.4065 -2.40956 L -19.3668 -2.42921 L -19.327 -2.44887 L -19.2871 -2.46851 L -19.2472 -2.48816 L -19.2073 -2.5078 L -19.1674 -2.52744 L -19.1275 -2.54707 L -19.0875 -2.5667 L -19.0474 -2.58633 L -19.0074 -2.60595 L -18.9673 -2.62556 L -18.9272 -2.64517 L -18.887 -2.66478 L -18.8468 -2.68438 L -18.8066 -2.70398 L -18.8066 -2.70398 L -18.8397 -2.73412 L -18.8727 -2.76425 L -18.9057 -2.79437 L -18.9387 -2.82449 L -18.9716 -2.85461 L -19.0045 -2.88472 L -19.0374 -2.91483 L -19.0703 -2.94493 L -19.1031 -2.97503 L -19.1358 -3.00512 L -19.1686 -3.0352 L -19.2013 -3.06529 L -19.234 -3.09536 L -19.2667 -3.12544 L -19.2993 -3.1555 L -19.3319 -3.18557 L -19.3645 -3.21562 L -19.397 -3.24568 L -19.4295 -3.27572 L -19.462 -3.30577 L -19.4944 -3.3358 L -19.5269 -3.36584 L -19.5592 -3.39586 L -19.5916 -3.42589 L -19.6239 -3.4559 L -19.6563 -3.48592 L -19.6885 -3.51593 L -19.7208 -3.54593 L -19.753 -3.57593 L -19.7852 -3.60592 L -19.8174 -3.63591 L -19.8495 -3.66589 L -19.8816 -3.69587 L -19.9137 -3.72584 L -19.9458 -3.75581 L -19.9778 -3.78577 L -20.0098 -3.81573 L -20.0418 -3.84568 L -20.0737 -3.87563 L -20.1057 -3.90557 L -20.1376 -3.93551 L -20.1694 -3.96544 L -20.2013 -3.99537 L -20.2331 -4.02529 L -20.2649 -4.05521 L -20.2967 -4.08512 L -20.3284 -4.11503 L -20.3601 -4.14493 L -20.3918 -4.17482 L -20.4235 -4.20472 L -20.4552 -4.2346 L -20.4868 -4.26448 L -20.5184 -4.29436 L -20.55 -4.32423 L -20.5423 -4.36047 L -20.5346 -4.39669 L -20.5268 -4.4329 L -20.5189 -4.4691 L -20.511 -4.50528 L -20.5031 -4.54145 L -20.495 -4.5776 L -20.4869 -4.61374 L -20.4787 -4.64986 L -20.4705 -4.68597 L -20.4622 -4.72207 L -20.4539 -4.75815 L -20.4454 -4.79422 L -20.4369 -4.83027 L -20.4284 -4.86631 L -20.4198 -4.90233 L -20.4111 -4.93833 L -20.4024 -4.97432 L -20.3936 -5.0103 L -20.3847 -5.04626 L -20.3758 -5.0822 L -20.3668 -5.11813 L -20.3577 -5.15404 L -20.3486 -5.18994 L -20.3394 -5.22582 L -20.3301 -5.26168 L -20.3208 -5.29753 L -20.3115 -5.33336 L -20.302 -5.36918 L -20.2925 -5.40497 L -20.283 -5.44075 L -20.2733 -5.47652 L -20.2636 -5.51227 L -20.2539 -5.548 L -20.2441 -5.58371 L -20.2342 -5.6194 L -20.2242 -5.65508 L -20.2142 -5.69074 L -20.2042 -5.72638 L -20.194 -5.76201 L -20.1838 -5.79761 L -20.1736 -5.8332 L -20.1633 -5.86877 L -20.1353 -5.96396 L -20.1248 -5.99946 L -20.1142 -6.03495 L -20.1035 -6.07041 L -20.0927 -6.10586 L -20.0819 -6.14129 L -20.0711 -6.1767 L -20.0602 -6.21208 L -20.0492 -6.24745 L -20.0381 -6.2828 L -20.027 -6.31814 L -20.0158 -6.35345 L -20.0046 -6.38874 L -19.9933 -6.42401 L -19.9819 -6.45926 L -19.9705 -6.49449 L -19.959 -6.5297 L -19.9475 -6.5649 L -19.9359 -6.60007 L -19.9242 -6.63522 L -19.9125 -6.67034 L -19.9007 -6.70545 L -19.8888 -6.74054 L -19.8769 -6.77561 L -19.8649 -6.81065 L -19.8529 -6.84568 L -19.8408 -6.88068 L -19.8286 -6.91566 L -19.8164 -6.95062 L -19.8041 -6.98556 L -19.7917 -7.02048 L -19.7793 -7.05537 L -19.7669 -7.09025 L -19.7543 -7.1251 L -19.7417 -7.15993 L -19.7291 -7.19473 L -19.7163 -7.22952 L -19.7036 -7.26428 L -19.6907 -7.29902 L -19.6778 -7.33374 L -19.6648 -7.36843 L -19.6518 -7.4031 L -19.6387 -7.43775 L -19.6256 -7.47237 L -19.5829 -7.48043 L -19.5401 -7.48848 L -19.4974 -7.49652 L -19.4546 -7.50456 L -19.4118 -7.51258 L -19.369 -7.52059 L -19.3261 -7.5286 L -19.2832 -7.53659 L -19.2403 -7.54458 L -19.1974 -7.55256 L -19.1545 -7.56052 L -19.1115 -7.56848 L -19.0685 -7.57643 L -19.0255 -7.58437 L -18.9824 -7.59229 L -18.9394 -7.60021 L -18.8963 -7.60812 L -18.8531 -7.61602 L -18.81 -7.62391 L -18.7668 -7.63179 L -18.7236 -7.63965 L -18.6804 -7.64751 L -18.6372 -7.65536 L -18.5939 -7.66319 L -18.5506 -7.67102 L -18.5073 -7.67883 L -18.4639 -7.68664 L -18.4205 -7.69443 L -18.3771 -7.70221 L -18.3337 -7.70998 L -18.2902 -7.71774 L -18.2467 -7.72549 L -18.2032 -7.73323 L -18.1597 -7.74095 L -18.1161 -7.74867 L -18.0725 -7.75637 L -18.0289 -7.76406 L -17.9853 -7.77174 L -17.9416 -7.77941 L -17.8979 -7.78706 L -17.8542 -7.7947 L -17.8104 -7.80233 L -17.7666 -7.80995 L -17.7228 -7.81755 L -17.6789 -7.82515 L -17.6351 -7.83272 L -17.5912 -7.84029 L -17.5472 -7.84784 L -17.5033 -7.85538 L -17.4593 -7.86291 L -17.4153 -7.87043 L -17.3712 -7.87793 L -17.3271 -7.88541 L -17.283 -7.89289 L -17.283 -7.89289 L -17.3062 -7.93112 L -17.3295 -7.96933 L -17.3526 -8.00754 L -17.3758 -8.04573 L -17.3989 -8.0839 L -17.422 -8.12206 L -17.4451 -8.16021 L -17.4681 -8.19835 L -17.4911 -8.23647 L -17.5141 -8.27458 L -17.537 -8.31267 L -17.5599 -8.35076 L -17.5828 -8.38882 L -17.6057 -8.42688 L -17.6285 -8.46492 L -17.6513 -8.50295 L -17.6741 -8.54097 L -17.6969 -8.57897 L -17.7196 -8.61696 L -17.7423 -8.65493 L -17.765 -8.6929 L -17.7876 -8.73085 L -17.8102 -8.76878 L -17.8328 -8.80671 L -17.8554 -8.84462 L -17.8779 -8.88252 L -17.9005 -8.92041 L -17.9229 -8.95828 L -17.9454 -8.99614 L -17.9679 -9.03399 L -17.9903 -9.07182 L -18.0127 -9.10965 L -18.035 -9.14746 L -18.0574 -9.18526 L -18.0797 -9.22304 L -18.102 -9.26082 L -18.1243 -9.29858 L -18.1465 -9.33633 L -18.1687 -9.37406 L -18.1909 -9.41179 L -18.2131 -9.4495 L -18.2352 -9.4872 L -18.2574 -9.52489 L -18.2795 -9.56256 L -18.3016 -9.60023 L -18.3236 -9.63788 L -18.3456 -9.67552 L -18.3677 -9.71315 L -18.3896 -9.75076 L -18.4116 -9.78837 L -18.4336 -9.82596 L -18.4555 -9.86354 L -18.4774 -9.90111 L -18.4993 -9.93866 L -18.4817 -9.97128 L -18.4641 -10.0039 L -18.4464 -10.0364 L -18.4287 -10.0689 L -18.4109 -10.1014 L -18.3931 -10.1339 L -18.3752 -10.1663 L -18.3572 -10.1987 L -18.3392 -10.231 L -18.3211 -10.2634 L -18.303 -10.2957 L -18.2848 -10.3279 L -18.2666 -10.3602 L -18.2483 -10.3924 L -18.2299 -10.4245 L -18.2115 -10.4567 L -18.193 -10.4888 L -18.1745 -10.5208 L -18.1559 -10.5529 L -18.1373 -10.5849 L -18.1186 -10.6169 L -18.0998 -10.6488 L -18.081 -10.6807 L -18.0621 -10.7126 L -18.0432 -10.7444 L -18.0242 -10.7762 L -18.0052 -10.808 L -17.9861 -10.8397 L -17.967 -10.8714 L -17.9478 -10.9031 L -17.9285 -10.9347 L -17.9092 -10.9663 L -17.8898 -10.9979 L -17.8704 -11.0294 L -17.8509 -11.0609 L -17.8314 -11.0924 L -17.8118 -11.1238 L -17.7922 -11.1552 L -17.7725 -11.1866 L -17.7527 -11.2179 L -17.7329 -11.2492 L -17.713 -11.2805 L -17.6931 -11.3117 L -17.6395 -11.3952 L -17.6193 -11.4262 L -17.5992 -11.4573 L -17.5789 -11.4883 L -17.5586 -11.5193 L -17.5383 -11.5503 L -17.5179 -11.5812 L -17.4974 -11.6121 L -17.4769 -11.6429 L -17.4564 -11.6737 L -17.4358 -11.7045 L -17.4151 -11.7352 L -17.3944 -11.7659 L -17.3736 -11.7966 L -17.3527 -11.8272 L -17.3319 -11.8578 L -17.3109 -11.8883 L -17.2899 -11.9188 L -17.2689 -11.9493 L -17.2478 -11.9797 L -17.2266 -12.0101 L -17.2054 -12.0405 L -17.1842 -12.0708 L -17.1628 -12.1011 L -17.1415 -12.1314 L -17.12 -12.1616 L -17.0986 -12.1918 L -17.077 -12.2219 L -17.0555 -12.252 L -17.0338 -12.2821 L -17.0121 -12.3121 L -16.9904 -12.3421 L -16.9686 -12.372 L -16.9468 -12.4019 L -16.9249 -12.4318 L -16.9029 -12.4616 L -16.8809 -12.4914 L -16.8588 -12.5212 L -16.8367 -12.5509 L -16.8146 -12.5805 L -16.7924 -12.6102 L -16.7701 -12.6398 L -16.7478 -12.6693 L -16.7254 -12.6989 L -16.6821 -12.6946 L -16.6389 -12.6902 L -16.5956 -12.6859 L -16.5523 -12.6816 L -16.5089 -12.6772 L -16.4656 -12.6728 L -16.4222 -12.6684 L -16.3788 -12.664 L -16.3354 -12.6596 L -16.292 -12.6552 L -16.2485 -12.6507 L -16.2051 -12.6462 L -16.1616 -12.6417 L -16.118 -12.6372 L -16.0745 -12.6327 L -16.0309 -12.6282 L -15.9874 -12.6236 L -15.9438 -12.6191 L -15.9001 -12.6145 L -15.8565 -12.6099 L -15.8128 -12.6052 L -15.7692 -12.6006 L -15.7255 -12.596 L -15.6817 -12.5913 L -15.638 -12.5866 L -15.5942 -12.5819 L -15.5504 -12.5772 L -15.5066 -12.5724 L -15.4628 -12.5677 L -15.4189 -12.5629 L -15.375 -12.5581 L -15.3311 -12.5533 L -15.2872 -12.5484 L -15.2432 -12.5436 L -15.1992 -12.5387 L -15.1552 -12.5338 L -15.1112 -12.5289 L -15.0672 -12.524 L -15.0231 -12.519 L -14.979 -12.514 L -14.9349 -12.5091 L -14.8908 -12.504 L -14.8466 -12.499 L -14.8024 -12.494 L -14.7582 -12.4889 L -14.714 -12.4838 L -14.6697 -12.4787 L -14.6254 -12.4736 L -14.5811 -12.4684 L -14.5368 -12.4633 L -14.4925 -12.4581 L -14.4481 -12.4528 L -14.4037 -12.4476 L -14.3592 -12.4424 L -14.3592 -12.4424 L -14.3708 -12.4856 L -14.3823 -12.5288 L -14.3937 -12.572 L -14.4052 -12.6151 L -14.4166 -12.6583 L -14.428 -12.7014 L -14.4394 -12.7445 L -14.4508 -12.7876 L -14.4621 -12.8306 L -14.4734 -12.8737 L -14.4847 -12.9167 L -14.496 -12.9597 L -14.5072 -13.0027 L -14.5184 -13.0456 L -14.5296 -13.0886 L -14.5408 -13.1315 L -14.5519 -13.1744 L -14.563 -13.2172 L -14.5741 -13.2601 L -14.5852 -13.3029 L -14.5963 -13.3457 L -14.6073 -13.3885 L -14.6183 -13.4313 L -14.6293 -13.4741 L -14.6403 -13.5168 L -14.6513 -13.5595 L -14.6622 -13.6022 L -14.6731 -13.6449 L -14.684 -13.6875 L -14.6949 -13.7302 L -14.7057 -13.7728 L -14.7165 -13.8154 L -14.7273 -13.858 L -14.7381 -13.9005 L -14.7489 -13.9431 L -14.7597 -13.9856 L -14.7704 -14.0281 L -14.7811 -14.0706 L -14.7918 -14.1131 L -14.8024 -14.1555 L -14.8131 -14.1979 L -14.8237 -14.2404 L -14.8343 -14.2828 L -14.8449 -14.3251 L -14.8555 -14.3675 L -14.8661 -14.4098 L -14.8766 -14.4522 L -14.8871 -14.4945 L -14.8976 -14.5367 L -14.9081 -14.579 L -14.9186 -14.6213 L -14.929 -14.6635 L -14.9395 -14.7057 L -14.9499 -14.7479 L -14.9238 -14.7743 L -14.8978 -14.8006 L -14.8716 -14.8268 L -14.8455 -14.853 L -14.8192 -14.8792 L -14.793 -14.9053 L -14.7667 -14.9314 L -14.7403 -14.9574 L -14.7139 -14.9834 L -14.6875 -15.0093 L -14.661 -15.0352 L -14.6344 -15.061 L -14.6078 -15.0868 L -14.5812 -15.1125 L -14.5545 -15.1382 L -14.5278 -15.1639 L -14.501 -15.1895 L -14.4742 -15.215 L -14.4474 -15.2405 L -14.4205 -15.266 L -14.3935 -15.2914 L -14.3665 -15.3167 L -14.3395 -15.3421 L -14.3124 -15.3673 L -14.2853 -15.3925 L -14.2581 -15.4177 L -14.2309 -15.4428 L -14.2037 -15.4679 L -14.1763 -15.4929 L -14.149 -15.5179 L -14.1216 -15.5428 L -14.0942 -15.5677 L -14.0667 -15.5926 L -14.0392 -15.6173 L -14.0116 -15.6421 L -13.984 -15.6668 L -13.9563 -15.6914 L -13.9287 -15.716 L -13.9009 -15.7405 L -13.8731 -15.765 L -13.8453 -15.7895 L -13.8174 -15.8139 L -13.7895 -15.8382 L -13.7145 -15.9032 L -13.6865 -15.9273 L -13.6584 -15.9515 L -13.6302 -15.9755 L -13.602 -15.9995 L -13.5738 -16.0235 L -13.5455 -16.0474 L -13.5172 -16.0713 L -13.4888 -16.0951 L -13.4604 -16.1189 L -13.432 -16.1426 L -13.4035 -16.1662 L -13.3749 -16.1899 L -13.3464 -16.2134 L -13.3177 -16.2369 L -13.2891 -16.2604 L -13.2604 -16.2838 L -13.2316 -16.3072 L -13.2029 -16.3305 L -13.174 -16.3537 L -13.1452 -16.3769 L -13.1163 -16.4001 L -13.0873 -16.4232 L -13.0583 -16.4463 L -13.0293 -16.4693 L -13.0002 -16.4922 L -12.9711 -16.5151 L -12.942 -16.538 L -12.9128 -16.5608 L -12.8836 -16.5835 L -12.8543 -16.6062 L -12.825 -16.6289 L -12.7957 -16.6515 L -12.7663 -16.674 L -12.7368 -16.6965 L -12.7074 -16.7189 L -12.6779 -16.7413 L -12.6483 -16.7636 L -12.6187 -16.7859 L -12.5891 -16.8082 L -12.5594 -16.8303 L -12.5297 -16.8525 L -12.5 -16.8745 L -12.4702 -16.8966 L -12.4299 -16.8802 L -12.3896 -16.8639 L -12.3493 -16.8476 L -12.309 -16.8312 L -12.2686 -16.8148 L -12.2283 -16.7984 L -12.1879 -16.7819 L -12.1475 -16.7655 L -12.1071 -16.749 L -12.0667 -16.7325 L -12.0262 -16.716 L -11.9858 -16.6995 L -11.9453 -16.6829 L -11.9048 -16.6663 L -11.8643 -16.6497 L -11.8238 -16.6331 L -11.7833 -16.6164 L -11.7427 -16.5998 L -11.7022 -16.5831 L -11.6616 -16.5664 L -11.621 -16.5496 L -11.5804 -16.5329 L -11.5398 -16.5161 L -11.4991 -16.4993 L -11.4585 -16.4825 L -11.4178 -16.4656 L -11.3771 -16.4487 L -11.3364 -16.4319 L -11.2957 -16.4149 L -11.2549 -16.398 L -11.2142 -16.381 L -11.1734 -16.364 L -11.1326 -16.347 L -11.0918 -16.33 L -11.051 -16.3129 L -11.0102 -16.2958 L -10.9693 -16.2787 L -10.9284 -16.2616 L -10.8876 -16.2444 L -10.8467 -16.2272 L -10.8057 -16.21 L -10.7648 -16.1928 L -10.7238 -16.1755 L -10.6829 -16.1582 L -10.6419 -16.1409 L -10.6009 -16.1235 L -10.5598 -16.1062 L -10.5188 -16.0888 L -10.4777 -16.0713 L -10.4367 -16.0539 L -10.3956 -16.0364 L -10.3545 -16.0189 L -10.3133 -16.0014 L -10.2722 -15.9838 L -10.2722 -15.9838 L -10.2711 -16.0285 L -10.2699 -16.0732 L -10.2688 -16.1179 L -10.2676 -16.1626 L -10.2664 -16.2072 L -10.2652 -16.2518 L -10.264 -16.2963 L -10.2627 -16.3409 L -10.2615 -16.3854 L -10.2602 -16.4298 L -10.2589 -16.4743 L -10.2576 -16.5187 L -10.2563 -16.5631 L -10.2549 -16.6075 L -10.2536 -16.6518 L -10.2522 -16.6962 L -10.2508 -16.7405 L -10.2494 -16.7847 L -10.248 -16.829 L -10.2466 -16.8732 L -10.2451 -16.9174 L -10.2436 -16.9616 L -10.2422 -17.0057 L -10.2407 -17.0498 L -10.2392 -17.0939 L -10.2376 -17.138 L -10.2361 -17.182 L -10.2345 -17.2261 L -10.233 -17.2701 L -10.2314 -17.314 L -10.2298 -17.358 L -10.2282 -17.4019 L -10.2265 -17.4458 L -10.2249 -17.4897 L -10.2232 -17.5335 L -10.2216 -17.5774 L -10.2199 -17.6212 L -10.2182 -17.665 L -10.2165 -17.7087 L -10.2148 -17.7524 L -10.213 -17.7962 L -10.2113 -17.8399 L -10.2095 -17.8835 L -10.2078 -17.9272 L -10.206 -17.9708 L -10.2042 -18.0144 L -10.2024 -18.058 L -10.2005 -18.1015 L -10.1987 -18.1451 L -10.1968 -18.1886 L -10.195 -18.2321 L -10.1931 -18.2755 L -10.1912 -18.319 L -10.1893 -18.3624 L -10.1569 -18.3803 L -10.1245 -18.3982 L -10.092 -18.4161 L -10.0595 -18.4338 L -10.027 -18.4515 L -9.99445 -18.4692 L -9.96186 -18.4868 L -9.92924 -18.5043 L -9.89659 -18.5218 L -9.86391 -18.5392 L -9.8312 -18.5566 L -9.79845 -18.5739 L -9.76568 -18.5912 L -9.73288 -18.6084 L -9.70004 -18.6255 L -9.66718 -18.6426 L -9.63428 -18.6596 L -9.60136 -18.6766 L -9.5684 -18.6935 L -9.53542 -18.7103 L -9.50241 -18.7271 L -9.46936 -18.7438 L -9.43629 -18.7605 L -9.40319 -18.7771 L -9.37006 -18.7937 L -9.3369 -18.8102 L -9.30371 -18.8266 L -9.27049 -18.843 L -9.23724 -18.8593 L -9.20397 -18.8756 L -9.17066 -18.8918 L -9.13733 -18.9079 L -9.10397 -18.924 L -9.07058 -18.94 L -9.03716 -18.956 L -9.00371 -18.9719 L -8.97024 -18.9878 L -8.93674 -19.0035 L -8.90321 -19.0193 L -8.86965 -19.0349 L -8.83606 -19.0506 L -8.80245 -19.0661 L -8.76881 -19.0816 L -8.67857 -19.1228 L -8.64483 -19.1381 L -8.61106 -19.1533 L -8.57727 -19.1685 L -8.54345 -19.1836 L -8.5096 -19.1986 L -8.47573 -19.2136 L -8.44183 -19.2285 L -8.4079 -19.2434 L -8.37395 -19.2582 L -8.33997 -19.2729 L -8.30597 -19.2876 L -8.27194 -19.3022 L -8.23789 -19.3168 L -8.2038 -19.3313 L -8.1697 -19.3457 L -8.13557 -19.3601 L -8.10141 -19.3744 L -8.06723 -19.3887 L -8.03302 -19.4029 L -7.99878 -19.417 L -7.96453 -19.4311 L -7.93025 -19.4451 L -7.89594 -19.459 L -7.86161 -19.4729 L -7.82725 -19.4868 L -7.79287 -19.5005 L -7.75847 -19.5143 L -7.72404 -19.5279 L -7.68958 -19.5415 L -7.65511 -19.555 L -7.62061 -19.5685 L -7.58608 -19.5819 L -7.55154 -19.5953 L -7.51696 -19.6086 L -7.48237 -19.6218 L -7.44775 -19.6349 L -7.41311 -19.648 L -7.37845 -19.6611 L -7.34376 -19.6741 L -7.30905 -19.687 L -7.27432 -19.6999 L -7.23956 -19.7127 L -7.20478 -19.7254 L -7.17072 -19.6984 L -7.13665 -19.6714 L -7.10257 -19.6443 L -7.06849 -19.6172 L -7.03439 -19.5901 L -7.00029 -19.563 L -6.96618 -19.5359 L -6.93206 -19.5087 L -6.89793 -19.4815 L -6.86379 -19.4543 L -6.82964 -19.4271 L -6.79549 -19.3998 L -6.76132 -19.3725 L -6.72715 -19.3452 L -6.69297 -19.3179 L -6.65878 -19.2905 L -6.62458 -19.2631 L -6.59037 -19.2357 L -6.55616 -19.2082 L -6.52193 -19.1808 L -6.4877 -19.1533 L -6.45346 -19.1258 L -6.4192 -19.0982 L -6.38494 -19.0706 L -6.35067 -19.043 L -6.3164 -19.0154 L -6.28211 -18.9878 L -6.24781 -18.9601 L -6.21351 -18.9324 L -6.17919 -18.9046 L -6.14487 -18.8769 L -6.11054 -18.8491 L -6.0762 -18.8213 L -6.04185 -18.7934 L -6.00749 -18.7656 L -5.97312 -18.7377 L -5.93874 -18.7097 L -5.90436 -18.6818 L -5.86996 -18.6538 L -5.83555 -18.6258 L -5.80114 -18.5977 L -5.76672 -18.5696 L -5.73229 -18.5415 L -5.69784 -18.5134 L -5.66339 -18.4852 L -5.62893 -18.457 L -5.59446 -18.4288 L -5.55999 -18.4006 L -5.5255 -18.3723 L -5.491 -18.3439 L -5.45649 -18.3156 L -5.42198 -18.2872 L -5.38745 -18.2588 L -5.35292 -18.2304 L -5.35292 -18.2304 L -5.33924 -18.273 L -5.32556 -18.3155 L -5.31187 -18.3581 L -5.29816 -18.4006 L -5.28445 -18.443 L -5.27073 -18.4855 L -5.257 -18.5279 L -5.24327 -18.5703 L -5.22952 -18.6126 L -5.21577 -18.6549 L -5.202 -18.6972 L -5.18823 -18.7395 L -5.17445 -18.7817 L -5.16066 -18.8239 L -5.14687 -18.8661 L -5.13306 -18.9082 L -5.11925 -18.9503 L -5.10543 -18.9924 L -5.0916 -19.0345 L -5.07777 -19.0765 L -5.06393 -19.1185 L -5.05008 -19.1605 L -5.03622 -19.2024 L -5.02235 -19.2443 L -5.00848 -19.2862 L -4.9946 -19.3281 L -4.98071 -19.3699 L -4.96682 -19.4117 L -4.95292 -19.4535 L -4.93901 -19.4952 L -4.92509 -19.5369 L -4.91117 -19.5786 L -4.89724 -19.6203 L -4.88331 -19.6619 L -4.86937 -19.7035 L -4.85542 -19.7451 L -4.84146 -19.7867 L -4.8275 -19.8282 L -4.81354 -19.8697 L -4.79956 -19.9112 L -4.78558 -19.9526 L -4.7716 -19.9941 L -4.7576 -20.0355 L -4.7436 -20.0768 L -4.7296 -20.1182 L -4.71559 -20.1595 L -4.70157 -20.2008 L -4.68755 -20.2421 L -4.67352 -20.2834 L -4.65949 -20.3246 L -4.64545 -20.3658 L -4.63141 -20.407 L -4.61736 -20.4481 L -4.6033 -20.4893 L -4.56716 -20.4973 L -4.531 -20.5054 L -4.49483 -20.5133 L -4.45864 -20.5212 L -4.42245 -20.5291 L -4.38623 -20.5368 L -4.35 -20.5445 L -4.31376 -20.5522 L -4.27751 -20.5597 L -4.24124 -20.5673 L -4.20496 -20.5747 L -4.16867 -20.5821 L -4.13236 -20.5894 L -4.09604 -20.5967 L -4.05971 -20.6039 L -4.02337 -20.611 L -3.98701 -20.618 L -3.95064 -20.625 L -3.91426 -20.632 L -3.87786 -20.6389 L -3.84146 -20.6457 L -3.80504 -20.6524 L -3.76861 -20.6591 L -3.73217 -20.6657 L -3.69572 -20.6722 L -3.65925 -20.6787 L -3.62277 -20.6852 L -3.58629 -20.6915 L -3.54979 -20.6978 L -3.51328 -20.704 L -3.47676 -20.7102 L -3.44023 -20.7163 L -3.40369 -20.7223 L -3.36713 -20.7283 L -3.33057 -20.7342 L -3.294 -20.74 L -3.25741 -20.7458 L -3.22082 -20.7515 L -3.18422 -20.7572 L -3.1476 -20.7628 L -3.11098 -20.7683 L -3.07434 -20.7737 L -3.0377 -20.7791 L -2.9395 -20.7933 L -2.90283 -20.7984 L -2.86614 -20.8035 L -2.82945 -20.8085 L -2.79274 -20.8135 L -2.75603 -20.8184 L -2.71931 -20.8232 L -2.68258 -20.828 L -2.64584 -20.8327 L -2.6091 -20.8373 L -2.57234 -20.8419 L -2.53558 -20.8464 L -2.49881 -20.8508 L -2.46203 -20.8552 L -2.42525 -20.8595 L -2.38845 -20.8637 L -2.35165 -20.8679 L -2.31485 -20.872 L -2.27803 -20.8761 L -2.24121 -20.8801 L -2.20438 -20.884 L -2.16754 -20.8878 L -2.1307 -20.8916 L -2.09385 -20.8954 L -2.057 -20.899 L -2.02013 -20.9026 L -1.98327 -20.9061 L -1.94639 -20.9096 L -1.90951 -20.913 L -1.87262 -20.9163 L -1.83573 -20.9196 L -1.79883 -20.9228 L -1.76193 -20.926 L -1.72502 -20.929 L -1.68811 -20.932 L -1.65119 -20.935 L -1.61426 -20.9379 L -1.57733 -20.9407 L -1.5404 -20.9434 L -1.50346 -20.9461 L -1.46651 -20.9487 L -1.42956 -20.9513 L -1.39261 -20.9538 L -1.35565 -20.9562 L -1.33058 -20.9207 L -1.3055 -20.8852 L -1.28043 -20.8496 L -1.25535 -20.814 L -1.23027 -20.7784 L -1.20519 -20.7428 L -1.1801 -20.7071 L -1.15502 -20.6715 L -1.12993 -20.6358 L -1.10485 -20.6 L -1.07976 -20.5643 L -1.05467 -20.5285 L -1.02958 -20.4927 L -1.00448 -20.4568 L -0.979389 -20.421 L -0.954294 -20.3851 L -0.929198 -20.3492 L -0.9041 -20.3132 L -0.879001 -20.2773 L -0.853901 -20.2413 L -0.828799 -20.2052 L -0.803697 -20.1692 L -0.778593 -20.1331 L -0.753489 -20.097 L -0.728383 -20.0609 L -0.703276 -20.0247 L -0.678168 -19.9885 L -0.65306 -19.9523 L -0.62795 -19.916 L -0.60284 -19.8798 L -0.577728 -19.8434 L -0.552616 -19.8071 L -0.527503 -19.7707 L -0.502389 -19.7343 L -0.477274 -19.6979 L -0.452159 -19.6615 L -0.427043 -19.625 L -0.401926 -19.5885 L -0.376809 -19.5519 L -0.351691 -19.5153 L -0.326573 -19.4787 L -0.301454 -19.4421 L -0.276334 -19.4054 L -0.251215 -19.3687 L -0.226094 -19.332 L -0.200974 -19.2952 L -0.175853 -19.2585 L -0.150731 -19.2216 L -0.12561 -19.1848 L -0.100488 -19.1479 L -0.0753663 -19.111 L -0.0502443 -19.074 L -0.0251222 -19.037 L -1.77636e-15 -19 L -5.20413e-15 -19 L 0.0251222 -19.037 L 0.0502443 -19.074 L 0.0753663 -19.111 L 0.100488 -19.1479 L 0.12561 -19.1848 L 0.150731 -19.2216 L 0.175853 -19.2585 L 0.200974 -19.2952 L 0.226094 -19.332 L 0.251215 -19.3687 L 0.276334 -19.4054 L 0.301454 -19.4421 L 0.326573 -19.4787 L 0.351691 -19.5153 L 0.376809 -19.5519 L 0.401926 -19.5885 L 0.427043 -19.625 L 0.452159 -19.6615 L 0.477274 -19.6979 L 0.502389 -19.7343 L 0.527503 -19.7707 L 0.552616 -19.8071 L 0.577728 -19.8434 L 0.60284 -19.8798 L 0.62795 -19.916 L 0.65306 -19.9523 L 0.678168 -19.9885 L 0.703276 -20.0247 L 0.728383 -20.0609 L 0.753489 -20.097 L 0.778593 -20.1331 L 0.803697 -20.1692 L 0.828799 -20.2052 L 0.853901 -20.2413 L 0.879001 -20.2773 L 0.9041 -20.3132 L 0.929198 -20.3492 L 0.954294 -20.3851 L 0.979389 -20.421 L 1.00448 -20.4568 L 1.02958 -20.4927 L 1.05467 -20.5285 L 1.07976 -20.5643 L 1.10485 -20.6 L 1.12993 -20.6358 L 1.15502 -20.6715 L 1.1801 -20.7071 L 1.20519 -20.7428 L 1.23027 -20.7784 L 1.25535 -20.814 L 1.28043 -20.8496 L 1.3055 -20.8852 L 1.33058 -20.9207 L 1.35565 -20.9562 L 1.39261 -20.9538 L 1.42956 -20.9513 L 1.46651 -20.9487 L 1.50346 -20.9461 L 1.5404 -20.9434 L 1.57733 -20.9407 L 1.61426 -20.9379 L 1.65119 -20.935 L 1.68811 -20.932 L 1.72502 -20.929 L 1.76193 -20.926 L 1.79883 -20.9228 L 1.83573 -20.9196 L 1.87262 -20.9163 L 1.90951 -20.913 L 1.94639 -20.9096 L 1.98327 -20.9061 L 2.02013 -20.9026 L 2.057 -20.899 L 2.09385 -20.8954 L 2.1307 -20.8916 L 2.16754 -20.8878 L 2.20438 -20.884 L 2.24121 -20.8801 L 2.27803 -20.8761 L 2.31485 -20.872 L 2.35165 -20.8679 L 2.38845 -20.8637 L 2.42525 -20.8595 L 2.46203 -20.8552 L 2.49881 -20.8508 L 2.53558 -20.8464 L 2.57234 -20.8419 L 2.6091 -20.8373 L 2.64584 -20.8327 L 2.68258 -20.828 L 2.71931 -20.8232 L 2.75603 -20.8184 L 2.79274 -20.8135 L 2.82945 -20.8085 L 2.86614 -20.8035 L 2.90283 -20.7984 L 2.9395 -20.7933 L 3.0377 -20.7791 L 3.07434 -20.7737 L 3.11098 -20.7683 L 3.1476 -20.7628 L 3.18422 -20.7572 L 3.22082 -20.7515 L 3.25741 -20.7458 L 3.294 -20.74 L 3.33057 -20.7342 L 3.36713 -20.7283 L 3.40369 -20.7223 L 3.44023 -20.7163 L 3.47676 -20.7102 L 3.51328 -20.704 L 3.54979 -20.6978 L 3.58629 -20.6915 L 3.62277 -20.6852 L 3.65925 -20.6787 L 3.69572 -20.6722 L 3.73217 -20.6657 L 3.76861 -20.6591 L 3.80504 -20.6524 L 3.84146 -20.6457 L 3.87786 -20.6389 L 3.91426 -20.632 L 3.95064 -20.625 L 3.98701 -20.618 L 4.02337 -20.611 L 4.05971 -20.6039 L 4.09604 -20.5967 L 4.13236 -20.5894 L 4.16867 -20.5821 L 4.20496 -20.5747 L 4.24124 -20.5673 L 4.27751 -20.5597 L 4.31376 -20.5522 L 4.35 -20.5445 L 4.38623 -20.5368 L 4.42245 -20.5291 L 4.45864 -20.5212 L 4.49483 -20.5133 L 4.531 -20.5054 L 4.56716 -20.4973 L 4.6033 -20.4893 L 4.61736 -20.4481 L 4.63141 -20.407 L 4.64545 -20.3658 L 4.65949 -20.3246 L 4.67352 -20.2834 L 4.68755 -20.2421 L 4.70157 -20.2008 L 4.71559 -20.1595 L 4.7296 -20.1182 L 4.7436 -20.0768 L 4.7576 -20.0355 L 4.7716 -19.9941 L 4.78558 -19.9526 L 4.79956 -19.9112 L 4.81354 -19.8697 L 4.8275 -19.8282 L 4.84146 -19.7867 L 4.85542 -19.7451 L 4.86937 -19.7035 L 4.88331 -19.6619 L 4.89724 -19.6203 L 4.91117 -19.5786 L 4.92509 -19.5369 L 4.93901 -19.4952 L 4.95292 -19.4535 L 4.96682 -19.4117 L 4.98071 -19.3699 L 4.9946 -19.3281 L 5.00848 -19.2862 L 5.02235 -19.2443 L 5.03622 -19.2024 L 5.05008 -19.1605 L 5.06393 -19.1185 L 5.07777 -19.0765 L 5.0916 -19.0345 L 5.10543 -18.9924 L 5.11925 -18.9503 L 5.13306 -18.9082 L 5.14687 -18.8661 L 5.16066 -18.8239 L 5.17445 -18.7817 L 5.18823 -18.7395 L 5.202 -18.6972 L 5.21577 -18.6549 L 5.22952 -18.6126 L 5.24327 -18.5703 L 5.257 -18.5279 L 5.27073 -18.4855 L 5.28445 -18.443 L 5.29816 -18.4006 L 5.31187 -18.3581 L 5.32556 -18.3155 L 5.33924 -18.273 L 5.35292 -18.2304 L 5.35292 -18.2304 L 5.38745 -18.2588 L 5.42198 -18.2872 L 5.45649 -18.3156 L 5.491 -18.3439 L 5.5255 -18.3723 L 5.55999 -18.4006 L 5.59446 -18.4288 L 5.62893 -18.457 L 5.66339 -18.4852 L 5.69784 -18.5134 L 5.73229 -18.5415 L 5.76672 -18.5696 L 5.80114 -18.5977 L 5.83555 -18.6258 L 5.86996 -18.6538 L 5.90436 -18.6818 L 5.93874 -18.7097 L 5.97312 -18.7377 L 6.00749 -18.7656 L 6.04185 -18.7934 L 6.0762 -18.8213 L 6.11054 -18.8491 L 6.14487 -18.8769 L 6.17919 -18.9046 L 6.21351 -18.9324 L 6.24781 -18.9601 L 6.28211 -18.9878 L 6.3164 -19.0154 L 6.35067 -19.043 L 6.38494 -19.0706 L 6.4192 -19.0982 L 6.45346 -19.1258 L 6.4877 -19.1533 L 6.52193 -19.1808 L 6.55616 -19.2082 L 6.59037 -19.2357 L 6.62458 -19.2631 L 6.65878 -19.2905 L 6.69297 -19.3179 L 6.72715 -19.3452 L 6.76132 -19.3725 L 6.79549 -19.3998 L 6.82964 -19.4271 L 6.86379 -19.4543 L 6.89793 -19.4815 L 6.93206 -19.5087 L 6.96618 -19.5359 L 7.00029 -19.563 L 7.03439 -19.5901 L 7.06849 -19.6172 L 7.10257 -19.6443 L 7.13665 -19.6714 L 7.17072 -19.6984 L 7.20478 -19.7254 L 7.23956 -19.7127 L 7.27432 -19.6999 L 7.30905 -19.687 L 7.34376 -19.6741 L 7.37845 -19.6611 L 7.41311 -19.648 L 7.44775 -19.6349 L 7.48237 -19.6218 L 7.51696 -19.6086 L 7.55154 -19.5953 L 7.58608 -19.5819 L 7.62061 -19.5685 L 7.65511 -19.555 L 7.68958 -19.5415 L 7.72404 -19.5279 L 7.75847 -19.5143 L 7.79287 -19.5005 L 7.82725 -19.4868 L 7.86161 -19.4729 L 7.89594 -19.459 L 7.93025 -19.4451 L 7.96453 -19.4311 L 7.99878 -19.417 L 8.03302 -19.4029 L 8.06723 -19.3887 L 8.10141 -19.3744 L 8.13557 -19.3601 L 8.1697 -19.3457 L 8.2038 -19.3313 L 8.23789 -19.3168 L 8.27194 -19.3022 L 8.30597 -19.2876 L 8.33997 -19.2729 L 8.37395 -19.2582 L 8.4079 -19.2434 L 8.44183 -19.2285 L 8.47573 -19.2136 L 8.5096 -19.1986 L 8.54345 -19.1836 L 8.57727 -19.1685 L 8.61106 -19.1533 L 8.64483 -19.1381 L 8.67857 -19.1228 L 8.76881 -19.0816 L 8.80245 -19.0661 L 8.83606 -19.0506 L 8.86965 -19.0349 L 8.90321 -19.0193 L 8.93674 -19.0035 L 8.97024 -18.9878 L 9.00371 -18.9719 L 9.03716 -18.956 L 9.07058 -18.94 L 9.10397 -18.924 L 9.13733 -18.9079 L 9.17066 -18.8918 L 9.20397 -18.8756 L 9.23724 -18.8593 L 9.27049 -18.843 L 9.30371 -18.8266 L 9.3369 -18.8102 L 9.37006 -18.7937 L 9.40319 -18.7771 L 9.43629 -18.7605 L 9.46936 -18.7438 L 9.50241 -18.7271 L 9.53542 -18.7103 L 9.5684 -18.6935 L 9.60136 -18.6766 L 9.63428 -18.6596 L 9.66718 -18.6426 L 9.70004 -18.6255 L 9.73288 -18.6084 L 9.76568 -18.5912 L 9.79845 -18.5739 L 9.8312 -18.5566 L 9.86391 -18.5392 L 9.89659 -18.5218 L 9.92924 -18.5043 L 9.96186 -18.4868 L 9.99445 -18.4692 L 10.027 -18.4515 L 10.0595 -18.4338 L 10.092 -18.4161 L 10.1245 -18.3982 L 10.1569 -18.3803 L 10.1893 -18.3624 L 10.1912 -18.319 L 10.1931 -18.2755 L 10.195 -18.2321 L 10.1968 -18.1886 L 10.1987 -18.1451 L 10.2005 -18.1015 L 10.2024 -18.058 L 10.2042 -18.0144 L 10.206 -17.9708 L 10.2078 -17.9272 L 10.2095 -17.8835 L 10.2113 -17.8399 L 10.213 -17.7962 L 10.2148 -17.7524 L 10.2165 -17.7087 L 10.2182 -17.665 L 10.2199 -17.6212 L 10.2216 -17.5774 L 10.2232 -17.5335 L 10.2249 -17.4897 L 10.2265 -17.4458 L 10.2282 -17.4019 L 10.2298 -17.358 L 10.2314 -17.314 L 10.233 -17.2701 L 10.2345 -17.2261 L 10.2361 -17.182 L 10.2376 -17.138 L 10.2392 -17.0939 L 10.2407 -17.0498 L 10.2422 -17.0057 L 10.2436 -16.9616 L 10.2451 -16.9174 L 10.2466 -16.8732 L 10.248 -16.829 L 10.2494 -16.7847 L 10.2508 -16.7405 L 10.2522 -16.6962 L 10.2536 -16.6518 L 10.2549 -16.6075 L 10.2563 -16.5631 L 10.2576 -16.5187 L 10.2589 -16.4743 L 10.2602 -16.4298 L 10.2615 -16.3854 L 10.2627 -16.3409 L 10.264 -16.2963 L 10.2652 -16.2518 L 10.2664 -16.2072 L 10.2676 -16.1626 L 10.2688 -16.1179 L 10.2699 -16.0732 L 10.2711 -16.0285 L 10.2722 -15.9838 L 10.2722 -15.9838 L 10.3133 -16.0014 L 10.3545 -16.0189 L 10.3956 -16.0364 L 10.4367 -16.0539 L 10.4777 -16.0713 L 10.5188 -16.0888 L 10.5598 -16.1062 L 10.6009 -16.1235 L 10.6419 -16.1409 L 10.6829 -16.1582 L 10.7238 -16.1755 L 10.7648 -16.1928 L 10.8057 -16.21 L 10.8467 -16.2272 L 10.8876 -16.2444 L 10.9284 -16.2616 L 10.9693 -16.2787 L 11.0102 -16.2958 L 11.051 -16.3129 L 11.0918 -16.33 L 11.1326 -16.347 L 11.1734 -16.364 L 11.2142 -16.381 L 11.2549 -16.398 L 11.2957 -16.4149 L 11.3364 -16.4319 L 11.3771 -16.4487 L 11.4178 -16.4656 L 11.4585 -16.4825 L 11.4991 -16.4993 L 11.5398 -16.5161 L 11.5804 -16.5329 L 11.621 -16.5496 L 11.6616 -16.5664 L 11.7022 -16.5831 L 11.7427 -16.5998 L 11.7833 -16.6164 L 11.8238 -16.6331 L 11.8643 -16.6497 L 11.9048 -16.6663 L 11.9453 -16.6829 L 11.9858 -16.6995 L 12.0262 -16.716 L 12.0667 -16.7325 L 12.1071 -16.749 L 12.1475 -16.7655 L 12.1879 -16.7819 L 12.2283 -16.7984 L 12.2686 -16.8148 L 12.309 -16.8312 L 12.3493 -16.8476 L 12.3896 -16.8639 L 12.4299 -16.8802 L 12.4702 -16.8966 L 12.5 -16.8745 L 12.5297 -16.8525 L 12.5594 -16.8303 L 12.5891 -16.8082 L 12.6187 -16.7859 L 12.6483 -16.7636 L 12.6779 -16.7413 L 12.7074 -16.7189 L 12.7368 -16.6965 L 12.7663 -16.674 L 12.7957 -16.6515 L 12.825 -16.6289 L 12.8543 -16.6062 L 12.8836 -16.5835 L 12.9128 -16.5608 L 12.942 -16.538 L 12.9711 -16.5151 L 13.0002 -16.4922 L 13.0293 -16.4693 L 13.0583 -16.4463 L 13.0873 -16.4232 L 13.1163 -16.4001 L 13.1452 -16.3769 L 13.174 -16.3537 L 13.2029 -16.3305 L 13.2316 -16.3072 L 13.2604 -16.2838 L 13.2891 -16.2604 L 13.3177 -16.2369 L 13.3464 -16.2134 L 13.3749 -16.1899 L 13.4035 -16.1662 L 13.432 -16.1426 L 13.4604 -16.1189 L 13.4888 -16.0951 L 13.5172 -16.0713 L 13.5455 -16.0474 L 13.5738 -16.0235 L 13.602 -15.9995 L 13.6302 -15.9755 L 13.6584 -15.9515 L 13.6865 -15.9273 L 13.7145 -15.9032 L 13.7895 -15.8382 L 13.8174 -15.8139 L 13.8453 -15.7895 L 13.8731 -15.765 L 13.9009 -15.7405 L 13.9287 -15.716 L 13.9563 -15.6914 L 13.984 -15.6668 L 14.0116 -15.6421 L 14.0392 -15.6173 L 14.0667 -15.5926 L 14.0942 -15.5677 L 14.1216 -15.5428 L 14.149 -15.5179 L 14.1763 -15.4929 L 14.2037 -15.4679 L 14.2309 -15.4428 L 14.2581 -15.4177 L 14.2853 -15.3925 L 14.3124 -15.3673 L 14.3395 -15.3421 L 14.3665 -15.3167 L 14.3935 -15.2914 L 14.4205 -15.266 L 14.4474 -15.2405 L 14.4742 -15.215 L 14.501 -15.1895 L 14.5278 -15.1639 L 14.5545 -15.1382 L 14.5812 -15.1125 L 14.6078 -15.0868 L 14.6344 -15.061 L 14.661 -15.0352 L 14.6875 -15.0093 L 14.7139 -14.9834 L 14.7403 -14.9574 L 14.7667 -14.9314 L 14.793 -14.9053 L 14.8192 -14.8792 L 14.8455 -14.853 L 14.8716 -14.8268 L 14.8978 -14.8006 L 14.9238 -14.7743 L 14.9499 -14.7479 L 14.9395 -14.7057 L 14.929 -14.6635 L 14.9186 -14.6213 L 14.9081 -14.579 L 14.8976 -14.5367 L 14.8871 -14.4945 L 14.8766 -14.4522 L 14.8661 -14.4098 L 14.8555 -14.3675 L 14.8449 -14.3251 L 14.8343 -14.2828 L 14.8237 -14.2404 L 14.8131 -14.1979 L 14.8024 -14.1555 L 14.7918 -14.1131 L 14.7811 -14.0706 L 14.7704 -14.0281 L 14.7597 -13.9856 L 14.7489 -13.9431 L 14.7381 -13.9005 L 14.7273 -13.858 L 14.7165 -13.8154 L 14.7057 -13.7728 L 14.6949 -13.7302 L 14.684 -13.6875 L 14.6731 -13.6449 L 14.6622 -13.6022 L 14.6513 -13.5595 L 14.6403 -13.5168 L 14.6293 -13.4741 L 14.6183 -13.4313 L 14.6073 -13.3885 L 14.5963 -13.3457 L 14.5852 -13.3029 L 14.5741 -13.2601 L 14.563 -13.2172 L 14.5519 -13.1744 L 14.5408 -13.1315 L 14.5296 -13.0886 L 14.5184 -13.0456 L 14.5072 -13.0027 L 14.496 -12.9597 L 14.4847 -12.9167 L 14.4734 -12.8737 L 14.4621 -12.8306 L 14.4508 -12.7876 L 14.4394 -12.7445 L 14.428 -12.7014 L 14.4166 -12.6583 L 14.4052 -12.6151 L 14.3937 -12.572 L 14.3823 -12.5288 L 14.3708 -12.4856 L 14.3592 -12.4424 L 14.3592 -12.4424 L 14.4037 -12.4476 L 14.4481 -12.4528 L 14.4925 -12.4581 L 14.5368 -12.4633 L 14.5811 -12.4684 L 14.6254 -12.4736 L 14.6697 -12.4787 L 14.714 -12.4838 L 14.7582 -12.4889 L 14.8024 -12.494 L 14.8466 -12.499 L 14.8908 -12.504 L 14.9349 -12.5091 L 14.979 -12.514 L 15.0231 -12.519 L 15.0672 -12.524 L 15.1112 -12.5289 L 15.1552 -12.5338 L 15.1992 -12.5387 L 15.2432 -12.5436 L 15.2872 -12.5484 L 15.3311 -12.5533 L 15.375 -12.5581 L 15.4189 -12.5629 L 15.4628 -12.5677 L 15.5066 -12.5724 L 15.5504 -12.5772 L 15.5942 -12.5819 L 15.638 -12.5866 L 15.6817 -12.5913 L 15.7255 -12.596 L 15.7692 -12.6006 L 15.8128 -12.6052 L 15.8565 -12.6099 L 15.9001 -12.6145 L 15.9438 -12.6191 L 15.9874 -12.6236 L 16.0309 -12.6282 L 16.0745 -12.6327 L 16.118 -12.6372 L 16.1616 -12.6417 L 16.2051 -12.6462 L 16.2485 -12.6507 L 16.292 -12.6552 L 16.3354 -12.6596 L 16.3788 -12.664 L 16.4222 -12.6684 L 16.4656 -12.6728 L 16.5089 -12.6772 L 16.5523 -12.6816 L 16.5956 -12.6859 L 16.6389 -12.6902 L 16.6821 -12.6946 L 16.7254 -12.6989 L 16.7478 -12.6693 L 16.7701 -12.6398 L 16.7924 -12.6102 L 16.8146 -12.5805 L 16.8367 -12.5509 L 16.8588 -12.5212 L 16.8809 -12.4914 L 16.9029 -12.4616 L 16.9249 -12.4318 L 16.9468 -12.4019 L 16.9686 -12.372 L 16.9904 -12.3421 L 17.0121 -12.3121 L 17.0338 -12.2821 L 17.0555 -12.252 L 17.077 -12.2219 L 17.0986 -12.1918 L 17.12 -12.1616 L 17.1415 -12.1314 L 17.1628 -12.1011 L 17.1842 -12.0708 L 17.2054 -12.0405 L 17.2266 -12.0101 L 17.2478 -11.9797 L 17.2689 -11.9493 L 17.2899 -11.9188 L 17.3109 -11.8883 L 17.3319 -11.8578 L 17.3527 -11.8272 L 17.3736 -11.7966 L 17.3944 -11.7659 L 17.4151 -11.7352 L 17.4358 -11.7045 L 17.4564 -11.6737 L 17.4769 -11.6429 L 17.4974 -11.6121 L 17.5179 -11.5812 L 17.5383 -11.5503 L 17.5586 -11.5193 L 17.5789 -11.4883 L 17.5992 -11.4573 L 17.6193 -11.4262 L 17.6395 -11.3952 L 17.6931 -11.3117 L 17.713 -11.2805 L 17.7329 -11.2492 L 17.7527 -11.2179 L 17.7725 -11.1866 L 17.7922 -11.1552 L 17.8118 -11.1238 L 17.8314 -11.0924 L 17.8509 -11.0609 L 17.8704 -11.0294 L 17.8898 -10.9979 L 17.9092 -10.9663 L 17.9285 -10.9347 L 17.9478 -10.9031 L 17.967 -10.8714 L 17.9861 -10.8397 L 18.0052 -10.808 L 18.0242 -10.7762 L 18.0432 -10.7444 L 18.0621 -10.7126 L 18.081 -10.6807 L 18.0998 -10.6488 L 18.1186 -10.6169 L 18.1373 -10.5849 L 18.1559 -10.5529 L 18.1745 -10.5208 L 18.193 -10.4888 L 18.2115 -10.4567 L 18.2299 -10.4245 L 18.2483 -10.3924 L 18.2666 -10.3602 L 18.2848 -10.3279 L 18.303 -10.2957 L 18.3211 -10.2634 L 18.3392 -10.231 L 18.3572 -10.1987 L 18.3752 -10.1663 L 18.3931 -10.1339 L 18.4109 -10.1014 L 18.4287 -10.0689 L 18.4464 -10.0364 L 18.4641 -10.0039 L 18.4817 -9.97128 L 18.4993 -9.93866 L 18.4774 -9.90111 L 18.4555 -9.86354 L 18.4336 -9.82596 L 18.4116 -9.78837 L 18.3896 -9.75076 L 18.3677 -9.71315 L 18.3456 -9.67552 L 18.3236 -9.63788 L 18.3016 -9.60023 L 18.2795 -9.56256 L 18.2574 -9.52489 L 18.2352 -9.4872 L 18.2131 -9.4495 L 18.1909 -9.41179 L 18.1687 -9.37406 L 18.1465 -9.33633 L 18.1243 -9.29858 L 18.102 -9.26082 L 18.0797 -9.22304 L 18.0574 -9.18526 L 18.035 -9.14746 L 18.0127 -9.10965 L 17.9903 -9.07182 L 17.9679 -9.03399 L 17.9454 -8.99614 L 17.9229 -8.95828 L 17.9005 -8.92041 L 17.8779 -8.88252 L 17.8554 -8.84462 L 17.8328 -8.80671 L 17.8102 -8.76878 L 17.7876 -8.73085 L 17.765 -8.6929 L 17.7423 -8.65493 L 17.7196 -8.61696 L 17.6969 -8.57897 L 17.6741 -8.54097 L 17.6513 -8.50295 L 17.6285 -8.46492 L 17.6057 -8.42688 L 17.5828 -8.38882 L 17.5599 -8.35076 L 17.537 -8.31267 L 17.5141 -8.27458 L 17.4911 -8.23647 L 17.4681 -8.19835 L 17.4451 -8.16021 L 17.422 -8.12206 L 17.3989 -8.0839 L 17.3758 -8.04573 L 17.3526 -8.00754 L 17.3295 -7.96933 L 17.3062 -7.93112 L 17.283 -7.89289 L 17.283 -7.89289 L 17.3271 -7.88541 L 17.3712 -7.87793 L 17.4153 -7.87043 L 17.4593 -7.86291 L 17.5033 -7.85538 L 17.5472 -7.84784 L 17.5912 -7.84029 L 17.6351 -7.83272 L 17.6789 -7.82515 L 17.7228 -7.81755 L 17.7666 -7.80995 L 17.8104 -7.80233 L 17.8542 -7.7947 L 17.8979 -7.78706 L 17.9416 -7.77941 L 17.9853 -7.77174 L 18.0289 -7.76406 L 18.0725 -7.75637 L 18.1161 -7.74867 L 18.1597 -7.74095 L 18.2032 -7.73323 L 18.2467 -7.72549 L 18.2902 -7.71774 L 18.3337 -7.70998 L 18.3771 -7.70221 L 18.4205 -7.69443 L 18.4639 -7.68664 L 18.5073 -7.67883 L 18.5506 -7.67102 L 18.5939 -7.66319 L 18.6372 -7.65536 L 18.6804 -7.64751 L 18.7236 -7.63965 L 18.7668 -7.63179 L 18.81 -7.62391 L 18.8531 -7.61602 L 18.8963 -7.60812 L 18.9394 -7.60021 L 18.9824 -7.59229 L 19.0255 -7.58437 L 19.0685 -7.57643 L 19.1115 -7.56848 L 19.1545 -7.56052 L 19.1974 -7.55256 L 19.2403 -7.54458 L 19.2832 -7.53659 L 19.3261 -7.5286 L 19.369 -7.52059 L 19.4118 -7.51258 L 19.4546 -7.50456 L 19.4974 -7.49652 L 19.5401 -7.48848 L 19.5829 -7.48043 L 19.6256 -7.47237 L 19.6387 -7.43775 L 19.6518 -7.4031 L 19.6648 -7.36843 L 19.6778 -7.33374 L 19.6907 -7.29902 L 19.7036 -7.26428 L 19.7163 -7.22952 L 19.7291 -7.19473 L 19.7417 -7.15993 L 19.7543 -7.1251 L 19.7669 -7.09025 L 19.7793 -7.05537 L 19.7917 -7.02048 L 19.8041 -6.98556 L 19.8164 -6.95062 L 19.8286 -6.91566 L 19.8408 -6.88068 L 19.8529 -6.84568 L 19.8649 -6.81065 L 19.8769 -6.77561 L 19.8888 -6.74054 L 19.9007 -6.70545 L 19.9125 -6.67034 L 19.9242 -6.63522 L 19.9359 -6.60007 L 19.9475 -6.5649 L 19.959 -6.5297 L 19.9705 -6.49449 L 19.9819 -6.45926 L 19.9933 -6.42401 L 20.0046 -6.38874 L 20.0158 -6.35345 L 20.027 -6.31814 L 20.0381 -6.2828 L 20.0492 -6.24745 L 20.0602 -6.21208 L 20.0711 -6.1767 L 20.0819 -6.14129 L 20.0927 -6.10586 L 20.1035 -6.07041 L 20.1142 -6.03495 L 20.1248 -5.99946 L 20.1353 -5.96396 L 20.1633 -5.86877 L 20.1736 -5.8332 L 20.1838 -5.79761 L 20.194 -5.76201 L 20.2042 -5.72638 L 20.2142 -5.69074 L 20.2242 -5.65508 L 20.2342 -5.6194 L 20.2441 -5.58371 L 20.2539 -5.548 L 20.2636 -5.51227 L 20.2733 -5.47652 L 20.283 -5.44075 L 20.2925 -5.40497 L 20.302 -5.36918 L 20.3115 -5.33336 L 20.3208 -5.29753 L 20.3301 -5.26168 L 20.3394 -5.22582 L 20.3486 -5.18994 L 20.3577 -5.15404 L 20.3668 -5.11813 L 20.3758 -5.0822 L 20.3847 -5.04626 L 20.3936 -5.0103 L 20.4024 -4.97432 L 20.4111 -4.93833 L 20.4198 -4.90233 L 20.4284 -4.86631 L 20.4369 -4.83027 L 20.4454 -4.79422 L 20.4539 -4.75815 L 20.4622 -4.72207 L 20.4705 -4.68597 L 20.4787 -4.64986 L 20.4869 -4.61374 L 20.495 -4.5776 L 20.5031 -4.54145 L 20.511 -4.50528 L 20.5189 -4.4691 L 20.5268 -4.4329 L 20.5346 -4.39669 L 20.5423 -4.36047 L 20.55 -4.32423 L 20.5184 -4.29436 L 20.4868 -4.26448 L 20.4552 -4.2346 L 20.4235 -4.20472 L 20.3918 -4.17482 L 20.3601 -4.14493 L 20.3284 -4.11503 L 20.2967 -4.08512 L 20.2649 -4.05521 L 20.2331 -4.02529 L 20.2013 -3.99537 L 20.1694 -3.96544 L 20.1376 -3.93551 L 20.1057 -3.90557 L 20.0737 -3.87563 L 20.0418 -3.84568 L 20.0098 -3.81573 L 19.9778 -3.78577 L 19.9458 -3.75581 L 19.9137 -3.72584 L 19.8816 -3.69587 L 19.8495 -3.66589 L 19.8174 -3.63591 L 19.7852 -3.60592 L 19.753 -3.57593 L 19.7208 -3.54593 L 19.6885 -3.51593 L 19.6563 -3.48592 L 19.6239 -3.4559 L 19.5916 -3.42589 L 19.5592 -3.39586 L 19.5269 -3.36584 L 19.4944 -3.3358 L 19.462 -3.30577 L 19.4295 -3.27572 L 19.397 -3.24568 L 19.3645 -3.21562 L 19.3319 -3.18557 L 19.2993 -3.1555 L 19.2667 -3.12544 L 19.234 -3.09536 L 19.2013 -3.06529 L 19.1686 -3.0352 L 19.1358 -3.00512 L 19.1031 -2.97503 L 19.0703 -2.94493 L 19.0374 -2.91483 L 19.0045 -2.88472 L 18.9716 -2.85461 L 18.9387 -2.82449 L 18.9057 -2.79437 L 18.8727 -2.76425 L 18.8397 -2.73412 L 18.8066 -2.70398 L 18.8066 -2.70398 L 18.8468 -2.68438 L 18.887 -2.66478 L 18.9272 -2.64517 L 18.9673 -2.62556 L 19.0074 -2.60595 L 19.0474 -2.58633 L 19.0875 -2.5667 L 19.1275 -2.54707 L 19.1674 -2.52744 L 19.2073 -2.5078 L 19.2472 -2.48816 L 19.2871 -2.46851 L 19.327 -2.44887 L 19.3668 -2.42921 L 19.4065 -2.40956 L 19.4463 -2.38989 L 19.486 -2.37023 L 19.5257 -2.35056 L 19.5653 -2.33089 L 19.605 -2.31121 L 19.6446 -2.29154 L 19.6841 -2.27185 L 19.7237 -2.25217 L 19.7632 -2.23248 L 19.8027 -2.21279 L 19.8421 -2.19309 L 19.8816 -2.17339 L 19.921 -2.15369 L 19.9603 -2.13399 L 19.9997 -2.11428 L 20.039 -2.09457 L 20.0783 -2.07486 L 20.1175 -2.05514 L 20.1568 -2.03542 L 20.196 -2.0157 L 20.2351 -1.99598 L 20.2743 -1.97625 L 20.3134 -1.95652 L 20.3525 -1.93679 L 20.3916 -1.91705 L 20.4306 -1.89731 L 20.4696 -1.87757 L 20.5086 -1.85783 L 20.5476 -1.83809 L 20.5865 -1.81834 L 20.6254 -1.79859 L 20.6643 -1.77884 L 20.7032 -1.75909 L 20.742 -1.73933 L 20.7808 -1.71957 L 20.8196 -1.69981 L 20.8584 -1.68005 L 20.8971 -1.66029 L 20.9358 -1.64052 L 20.9387 -1.6036 L 20.9415 -1.56667 L 20.9442 -1.52973 L 20.9469 -1.49279 L 20.9495 -1.45584 L 20.952 -1.41889 L 20.9545 -1.38194 L 20.9569 -1.34498 L 20.9592 -1.30802 L 20.9615 -1.27105 L 20.9637 -1.23408 L 20.9659 -1.1971 L 20.9679 -1.16012 L 20.9699 -1.12314 L 20.9719 -1.08616 L 20.9738 -1.04917 L 20.9756 -1.01217 L 20.9773 -0.975179 L 20.979 -0.93818 L 20.9807 -0.901179 L 20.9822 -0.864174 L 20.9837 -0.827167 L 20.9851 -0.790158 L 20.9865 -0.753146 L 20.9878 -0.716131 L 20.989 -0.679115 L 20.9902 -0.642096 L 20.9913 -0.605075 L 20.9923 -0.568053 L 20.9933 -0.531028 L 20.9942 -0.494002 L 20.995 -0.456975 L 20.9958 -0.419946 L 20.9965 -0.382916 L 20.9972 -0.345884 L 20.9977 -0.308852 L 20.9982 -0.271818 L 20.9987 -0.234784 L 20.9991 -0.197749 L 20.9994 -0.160713 L 20.9996 -0.123677 L 20.9998 -0.0866404 L 20.9999 -0.0496035Z"
id="path1" />
</g>
</svg>
