<?xml version="1.0" encoding="UTF-8" standalone="no"?>
<svg version="1.1">
<g
style="fill:none;stroke:#000000;stroke-opacity:1;stroke-width:0.1">
<path d="M 14.9996 0.106562 L 14.999 0.173226 L 14.9981 0.239886 L 14.9969 0.306542 L 14.9954 0.373191 L 14.9936 0.439834 L 14.9914 0.506467 L 14.989 0.57309 L 14.9864 0.639703 L 14.9834 0.706302 L 14.9801 0.772888 L 14.9765 0.839458 L 14.9726 0.906012 L 14.9684 0.972547 L 14.964 1.03906 L 14.9592 1.10556 L 14.9541 1.17203 L 14.9488 1.23849 L 14.9431 1.30491 L 14.9372 1.37131 L 14.9309 1.43769 L 14.8575 1.5028 L 14.7838 1.56788 L 14.7096 1.63291 L 14.6352 1.69792 L 14.5603 1.76287 L 14.4851 1.82779 L 14.4096 1.89265 L 14.3336 1.95747 L 14.2573 2.02224 L 14.1806 2.08695 L 14.1035 2.1516 L 14.026 2.2162 L 13.9481 2.28073 L 13.8698 2.34519 L 13.7911 2.40959 L 13.7119 2.47391 L 13.6324 2.53815 L 13.5524 2.60232 L 13.472 2.6664 L 13.3911 2.7304 L 13.3098 2.7943 L 13.2281 2.85811 L 13.1459 2.92182 L 13.0632 2.98543 L 12.9801 3.04893 L 12.8964 3.11231 L 12.8123 3.17558 L 12.7277 3.23873 L 12.6426 3.30176 L 12.557 3.36465 L 12.557 3.36465 L 12.5997 3.46191 L 12.6419 3.55904 L 12.6836 3.65603 L 12.7248 3.75287 L 12.7655 3.84958 L 12.8058 3.94615 L 12.8456 4.04257 L 12.8849 4.13885 L 12.9238 4.23499 L 12.9623 4.33098 L 13.0003 4.42683 L 13.0379 4.52253 L 13.0751 4.61809 L 13.1119 4.71351 L 13.1482 4.80878 L 13.1842 4.9039 L 13.2198 4.99888 L 13.255 5.09371 L 13.2898 5.1884 L 13.3242 5.28294 L 13.3583 5.37734 L 13.392 5.47159 L 13.4254 5.5657 L 13.4584 5.65966 L 13.4911 5.75348 L 13.5234 5.84715 L 13.5554 5.94068 L 13.587 6.03406 L 13.6184 6.1273 L 13.6494 6.2204 L 13.6216 6.281 L 13.5936 6.34148 L 13.5653 6.40183 L 13.5367 6.46206 L 13.5078 6.52216 L 13.4787 6.58213 L 13.4493 6.64197 L 13.4197 6.70168 L 13.3898 6.76125 L 13.3596 6.8207 L 13.3291 6.88001 L 13.2984 6.93918 L 13.2674 6.99821 L 13.2362 7.05711 L 13.2047 7.11587 L 13.173 7.17449 L 13.1409 7.23296 L 13.1087 7.29129 L 13.0761 7.34948 L 13.0433 7.40752 L 12.9368 7.5921 L 12.9029 7.64952 L 12.8688 7.70679 L 12.8344 7.76391 L 12.7998 7.82087 L 12.7649 7.87768 L 12.7297 7.93434 L 12.6944 7.99084 L 12.6587 8.04718 L 12.6228 8.10336 L 12.5867 8.15938 L 12.5503 8.21524 L 12.5137 8.27094 L 12.4768 8.32647 L 12.4396 8.38184 L 12.4023 8.43704 L 12.3646 8.49208 L 12.3268 8.54695 L 12.2887 8.60165 L 12.2503 8.65618 L 12.2117 8.71054 L 12.1156 8.73022 L 12.0192 8.7497 L 11.9225 8.76897 L 11.8255 8.78802 L 11.7282 8.80686 L 11.6306 8.82548 L 11.5327 8.84387 L 11.4345 8.86203 L 11.3361 8.87996 L 11.2373 8.89765 L 11.1382 8.91509 L 11.0388 8.93228 L 10.939 8.94922 L 10.839 8.96589 L 10.7386 8.9823 L 10.6379 8.99844 L 10.5369 9.0143 L 10.4356 9.02988 L 10.3339 9.04517 L 10.2319 9.06016 L 10.1295 9.07486 L 10.0268 9.08924 L 9.92375 9.10331 L 9.82035 9.11706 L 9.71659 9.13047 L 9.61248 9.14356 L 9.50801 9.1563 L 9.40317 9.16869 L 9.29796 9.18072 L 9.19239 9.19239 L 9.19239 9.19239 L 9.18072 9.29796 L 9.16869 9.40317 L 9.1563 9.50801 L 9.14356 9.61248 L 9.13047 9.71659 L 9.11706 9.82035 L 9.10331 9.92375 L 9.08924 10.0268 L 9.07486 10.1295 L 9.06016 10.2319 L 9.04517 10.3339 L 9.02988 10.4356 L 9.0143 10.5369 L 8.99844 10.6379 L 8.9823 10.7386 L 8.96589 10.839 L 8.94922 10.939 L 8.93228 11.0388 L 8.91509 11.1382 L 8.89765 11.2373 L 8.87996 11.3361 L 8.86203 11.4345 L 8.84387 11.5327 L 8.82548 11.6306 L 8.80686 11.7282 L 8.78802 11.8255 L 8.76897 11.9225 L 8.7497 12.0192 L 8.73022 12.1156 L 8.71054 12.2117 L 8.65618 12.2503 L 8.60165 12.2887 L 8.54695 12.3268 L 8.49208 12.3646 L 8.43704 12.4023 L 8.38184 12.4396 L 8.32647 12.4768 L 8.27094 12.5137 L 8.21524 12.5503 L 8.15938 12.5867 L 8.10336 12.6228 L 8.04718 12.6587 L 7.99084 12.6944 L 7.93434 12.7297 L 7.87768 12.7649 L 7.82087 12.7998 L 7.76391 12.8344 L 7.70679 12.8688 L 7.64952 12.9029 L 7.5921 12.9368 L 7.40752 13.0433 L 7.34948 13.0761 L 7.29129 13.1087 L 7.23296 13.1409 L 7.17449 13.173 L 7.11587 13.2047 L 7.05711 13.2362 L 6.99821 13.2674 L 6.93918 13.2984 L 6.88001 13.3291 L 6.8207 13.3596 L 6.76125 13.3898 L 6.70168 13.4197 L 6.64197 13.4493 L 6.58213 13.4787 L 6.52216 13.5078 L 6.46206 13.5367 L 6.40183 13.5653 L 6.34148 13.5936 L 6.281 13.6216 L 6.2204 13.6494 L 6.1273 13.6184 L 6.03406 13.587 L 5.94068 13.5554 L 5.84715 13.5234 L 5.75348 13.4911 L 5.65966 13.4584 L 5.5657 13.4254 L 5.47159 13.392 L 5.37734 13.3583 L 5.28294 13.3242 L 5.1884 13.2898 L 5.09371 13.255 L 4.99888 13.2198 L 4.9039 13.1842 L 4.80878 13.1482 L 4.71351 13.1119 L 4.61809 13.0751 L 4.52253 13.0379 L 4.42683 13.0003 L 4.33098 12.9623 L 4.23499 12.9238 L 4.13885 12.8849 L 4.04257 12.8456 L 3.94615 12.8058 L 3.84958 12.7655 L 3.75287 12.7248 L 3.65603 12.6836 L 3.55904 12.6419 L 3.46191 12.5997 L 3.36465 12.557 L 3.36465 12.557 L 3.30176 12.6426 L 3.23873 12.7277 L 3.17558 12.8123 L 3.11231 12.8964 L 3.04893 12.9801 L 2.98543 13.0632 L 2.92182 13.1459 L 2.85811 13.2281 L 2.7943 13.3098 L 2.7304 13.3911 L 2.6664 13.472 L 2.60232 13.5524 L 2.53815 13.6324 L 2.47391 13.7119 L 2.40959 13.7911 L 2.34519 13.8698 L 2.28073 13.9481 L 2.2162 14.026 L 2.1516 14.1035 L 2.08695 14.1806 L 2.02224 14.2573 L 1.95747 14.3336 L 1.89265 14.4096 L 1.82779 14.4851 L 1.76287 14.5603 L 1.69792 14.6352 L 1.63291 14.7096 L 1.56788 14.7838 L 1.5028 14.8575 L 1.43769 14.9309 L 1.37131 14.9372 L 1.30491 14.9431 L 1.23849 14.9488 L 1.17203 14.9541 L 1.10556 14.9592 L 1.03906 14.964 L 0.972547 14.9684 L 0.906012 14.9726 L 0.839458 14.9765 L 0.772888 14.9801 L 0.706302 14.9834 L 0.639703 14.9864 L 0.57309 14.989 L 0.506467 14.9914 L 0.439834 14.9936 L 0.373191 14.9954 L 0.306542 14.9969 L 0.239886 14.9981 L 0.173226 14.999 L 0.106562 14.9996 L -0.106562 14.9996 L -0.173226 14.999 L -0.239886 14.9981 L -0.306542 14.9969 L -0.373191 14.9954 L -0.439834 14.9936 L -0.506467 14.9914 L -0.57309 14.989 L -0.639703 14.9864 L -0.706302 14.9834 L -0.772888 14.9801 L -0.839458 14.9765 L -0.906012 14.9726 L -0.972547 14.9684 L -1.03906 14.964 L -1.10556 14.9592 L -1.17203 14.9541 L -1.23849 14.9488 L -1.30491 14.9431 L -1.37131 14.9372 L -1.43769 14.9309 L -1.5028 14.8575 L -1.56788 14.7838 L -1.63291 14.7096 L -1.69792 14.6352 L -1.76287 14.5603 L -1.82779 14.4851 L -1.89265 14.4096 L -1.95747 14.3336 L -2.02224 14.2573 L -2.08695 14.1806 L -2.1516 14.1035 L -2.2162 14.026 L -2.28073 13.9481 L -2.34519 13.8698 L -2.40959 13.7911 L -2.47391 13.7119 L -2.53815 13.6324 L -2.60232 13.5524 L -2.6664 13.472 L -2.7304 13.3911 L -2.7943 13.3098 L -2.85811 13.2281 L -2.92182 13.1459 L -2.98543 13.0632 L -3.04893 12.9801 L -3.11231 12.8964 L -3.17558 12.8123 L -3.23873 12.7277 L -3.30176 12.6426 L -3.36465 12.557 L -3.36465 12.557 L -3.46191 12.5997 L -3.55904 12.6419 L -3.65603 12.6836 L -3.75287 12.7248 L -3.84958 12.7655 L -3.94615 12.8058 L -4.04257 12.8456 L -4.13885 12.8849 L -4.23499 12.9238 L -4.33098 12.9623 L -4.42683 13.0003 L -4.52253 13.0379 L -4.61809 13.0751 L -4.71351 13.1119 L -4.80878 13.1482 L -4.9039 13.1842 L -4.99888 13.2198 L -5.09371 13.255 L -5.1884 13.2898 L -5.28294 13.3242 L -5.37734 13.3583 L -5.47159 13.392 L -5.5657 13.4254 L -5.65966 13.4584 L -5.75348 13.4911 L -5.84715 13.5234 L -5.94068 13.5554 L -6.03406 13.587 L -6.1273 13.6184 L -6.2204 13.6494 L -6.281 13.6216 L -6.34148 13.5936 L -6.40183 13.5653 L -6.46206 13.5367 L -6.52216 13.5078 L -6.58213 13.4787 L -6.64197 13.4493 L -6.70168 13.4197 L -6.76125 13.3898 L -6.8207 13.3596 L -6.88001 13.3291 L -6.93918 13.2984 L -6.99821 13.2674 L -7.05711 13.2362 L -7.11587 13.2047 L -7.17449 13.173 L -7.23296 13.1409 L -7.29129 13.1087 L -7.34948 13.0761 L -7.40752 13.0433 L -7.5921 12.9368 L -7.64952 12.9029 L -7.70679 12.8688 L -7.76391 12.8344 L -7.82087 12.7998 L -7.87768 12.7649 L -7.93434 12.7297 L -7.99084 12.6944 L -8.04718 12.6587 L -8.10336 12.6228 L -8.15938 12.5867 L -8.21524 12.5503 L -8.27094 12.5137 L -8.32647 12.4768 L -8.38184 12.4396 L -8.43704 12.4023 L -8.49208 12.3646 L -8.54695 12.3268 L -8.60165 12.2887 L -8.65618 12.2503 L -8.71054 12.2117 L -8.73022 12.1156 L -8.7497 12.0192 L -8.76897 11.9225 L -8.78802 11.8255 L -8.80686 11.7282 L -8.82548 11.6306 L -8.84387 11.5327 L -8.86203 11.4345 L -8.87996 11.3361 L -8.89765 11.2373 L -8.91509 11.1382 L -8.93228 11.0388 L -8.94922 10.939 L -8.96589 10.839 L -8.9823 10.7386 L -8.99844 10.6379 L -9.0143 10.5369 L -9.02988 10.4356 L -9.04517 10.3339 L -9.06016 10.2319 L -9.07486 10.1295 L -9.08924 10.0268 L -9.10331 9.92375 L -9.11706 9.82035 L -9.13047 9.71659 L -9.14356 9.61248 L -9.1563 9.50801 L -9.16869 9.40317 L -9.18072 9.29796 L -9.19239 9.19239 L -9.19239 9.19239 L -9.29796 9.18072 L -9.40317 9.16869 L -9.50801 9.1563 L -9.61248 9.14356 L -9.71659 9.13047 L -9.82035 9.11706 L -9.92375 9.10331 L -10.0268 9.08924 L -10.1295 9.07486 L -10.2319 9.06016 L -10.3339 9.04517 L -10.4356 9.02988 L -10.5369 9.0143 L -10.6379 8.99844 L -10.7386 8.9823 L -10.839 8.96589 L -10.939 8.94922 L -11.0388 8.93228 L -11.1382 8.91509 L -11.2373 8.89765 L -11.3361 8.87996 L -11.4345 8.86203 L -11.5327 8.84387 L -11.6306 8.82548 L -11.7282 8.80686 L -11.8255 8.78802 L -11.9225 8.76897 L -12.0192 8.7497 L -12.1156 8.73022 L -12.2117 8.71054 L -12.2503 8.65618 L -12.2887 8.60165 L -12.3268 8.54695 L -12.3646 8.49208 L -12.4023 8.43704 L -12.4396 8.38184 L -12.4768 8.32647 L -12.5137 8.27094 L -12.5503 8.21524 L -12.5867 8.15938 L -12.6228 8.10336 L -12.6587 8.04718 L -12.6944 7.99084 L -12.7297 7.93434 L -12.7649 7.87768 L -12.7998 7.82087 L -12.8344 7.76391 L -12.8688 7.70679 L -12.9029 7.64952 L -12.9368 7.5921 L -13.0433 7.40752 L -13.0761 7.34948 L -13.1087 7.29129 L -13.1409 7.23296 L -13.173 7.17449 L -13.2047 7.11587 L -13.2362 7.05711 L -13.2674 6.99821 L -13.2984 6.93918 L -13.3291 6.88001 L -13.3596 6.8207 L -13.3898 6.76125 L -13.4197 6.70168 L -13.4493 6.64197 L -13.4787 6.58213 L -13.5078 6.52216 L -13.5367 6.46206 L -13.5653 6.40183 L -13.5936 6.34148 L -13.6216 6.281 L -13.6494 6.2204 L -13.6184 6.1273 L -13.587 6.03406 L -13.5554 5.94068 L -13.5234 5.84715 L -13.4911 5.75348 L -13.4584 5.65966 L -13.4254 5.5657 L -13.392 5.47159 L -13.3583 5.37734 L -13.3242 5.28294 L -13.2898 5.1884 L -13.255 5.09371 L -13.2198 4.99888 L -13.1842 4.9039 L -13.1482 4.80878 L -13.1119 4.71351 L -13.0751 4.61809 L -13.0379 4.52253 L -13.0003 4.42683 L -12.9623 4.33098 L -12.9238 4.23499 L -12.8849 4.13885 L -12.8456 4.04257 L -12.8058 3.94615 L -12.7655 3.84958 L -12.7248 3.75287 L -12.6836 3.65603 L -12.6419 3.55904 L -12.5997 3.46191 L -12.557 3.36465 L -12.557 3.36465 L -12.6426 3.30176 L -12.7277 3.23873 L -12.8123 3.17558 L -12.8964 3.11231 L -12.9801 3.04893 L -13.0632 2.98543 L -13.1459 2.92182 L -13.2281 2.85811 L -13.3098 2.7943 L -13.3911 2.7304 L -13.472 2.6664 L -13.5524 2.60232 L -13.6324 2.53815 L -13.7119 2.47391 L -13.7911 2.40959 L -13.8698 2.34519 L -13.9481 2.28073 L -14.026 2.2162 L -14.1035 2.1516 L -14.1806 2.08695 L -14.2573 2.02224 L -14.3336 1.95747 L -14.4096 1.89265 L -14.4851 1.82779 L -14.5603 1.76287 L -14.6352 1.69792 L -14.7096 1.63291 L -14.7838 1.56788 L -14.8575 1.5028 L -14.9309 1.43769 L -14.9372 1.37131 L -14.9431 1.30491 L -14.9488 1.23849 L -14.9541 1.17203 L -14.9592 1.10556 L -14.964 1.03906 L -14.9684 0.972547 L -14.9726 0.906012 L -14.9765 0.839458 L -14.9801 0.772888 L -14.9834 0.706302 L -14.9864 0.639703 L -14.989 0.57309 L -14.9914 0.506467 L -14.9936 0.439834 L -14.9954 0.373191 L -14.9969 0.306542 L -14.9981 0.239886 L -14.999 0.173226 L -14.9996 0.106562 L -14.9996 -0.106562 L -14.999 -0.173226 L -14.9981 -0.239886 L -14.9969 -0.306542 L -14.9954 -0.373191 L -14.9936 -0.439834 L -14.9914 -0.506467 L -14.989 -0.57309 L -14.9864 -0.639703 L -14.9834 -0.706302 L -14.9801 -0.772888 L -14.9765 -0.839458 L -14.9726 -0.906012 L -14.9684 -0.972547 L -14.964 -1.03906 L -14.9592 -1.10556 L -14.9541 -1.17203 L -14.9488 -1.23849 L -14.9431 -1.30491 L -14.9372 -1.37131 L -14.9309 -1.43769 L -14.8575 -1.5028 L -14.7838 -1.56788 L -14.7096 -1.63291 L -14.6352 -1.69792 L -14.5603 -1.76287 L -14.4851 -1.82779 L -14.4096 -1.89265 L -14.3336 -1.95747 L -14.2573 -2.02224 L -14.1806 -2.08695 L -14.1035 -2.1516 L -14.026 -2.2162 L -13.9481 -2.28073 L -13.8698 -2.34519 L -13.7911 -2.40959 L -13.7119 -2.47391 L -13.6324 -2.53815 L -13.5524 -2.60232 L -13.472 -2.6664 L -13.3911 -2.7304 L -13.3098 -2.7943 L -13.2281 -2.85811 L -13.1459 -2.92182 L -13.0632 -2.98543 L -12.9801 -3.04893 L -12.8964 -3.11231 L -12.8123 -3.17558 L -12.7277 -3.23873 L -12.6426 -3.30176 L -12.557 -3.36465 L -12.557 -3.36465 L -12.5997 -3.46191 L -12.6419 -3.55904 L -12.6836 -3.65603 L -12.7248 -3.75287 L -12.7655 -3.84958 L -12.8058 -3.94615 L -12.8456 -4.04257 L -12.8849 -4.13885 L -12.9238 -4.23499 L -12.9623 -4.33098 L -13.0003 -4.42683 L -13.0379 -4.52253 L -13.0751 -4.61809 L -13.1119 -4.71351 L -13.1482 -4.80878 L -13.1842 -4.9039 L -13.2198 -4.99888 L -13.255 -5.09371 L -13.2898 -5.1884 L -13.3242 -5.28294 L -13.3583 -5.37734 L -13.392 -5.47159 L -13.4254 -5.5657 L -13.4584 -5.65966 L -13.4911 -5.75348 L -13.5234 -5.84715 L -13.5554 -5.94068 L -13.587 -6.03406 L -13.6184 -6.1273 L -13.6494 -6.2204 L -13.6216 -6.281 L -13.5936 -6.34148 L -13.5653 -6.40183 L -13.5367 -6.46206 L -13.5078 -6.52216 L -13.4787 -6.58213 L -13.4493 -6.64197 L -13.4197 -6.70168 L -13.3898 -6.76125 L -13.3596 -6.8207 L -13.3291 -6.88001 L -13.2984 -6.93918 L -13.2674 -6.99821 L -13.2362 -7.05711 L -13.2047 -7.11587 L -13.173 -7.17449 L -13.1409 -7.23296 L -13.1087 -7.29129 L -13.0761 -7.34948 L -13.0433 -7.40752 L -12.9368 -7.5921 L -12.9029 -7.64952 L -12.8688 -7.70679 L -12.8344 -7.76391 L -12.7998 -7.82087 L -12.7649 -7.87768 L -12.7297 -7.93434 L -12.6944 -7.99084 L -12.6587 -8.04718 L -12.6228 -8.10336 L -12.5867 -8.15938 L -12.5503 -8.21524 L -12.5137 -8.27094 L -12.4768 -8.32647 L -12.4396 -8.38184 L -12.4023 -8.43704 L -12.3646 -8.49208 L -12.3268 -8.54695 L -12.2887 -8.60165 L -12.2503 -8.65618 L -12.2117 -8.71054 L -12.1156 -8.73022 L -12.0192 -8.7497 L -11.9225 -8.76897 L -11.8255 -8.78802 L -11.7282 -8.80686 L -11.6306 -8.82548 L -11.5327 -8.84387 L -11.4345 -8.86203 L -11.3361 -8.87996 L -11.2373 -8.89765 L -11.1382 -8.91509 L -11.0388 -8.93228 L -10.939 -8.94922 L -10.839 -8.96589 L -10.7386 -8.9823 L -10.6379 -8.99844 L -10.5369 -9.0143 L -10.4356 -9.02988 L -10.3339 -9.04517 L -10.2319 -9.06016 L -10.1295 -9.07486 L -10.0268 -9.08924 L -9.92375 -9.10331 L -9.82035 -9.11706 L -9.71659 -9.13047 L -9.61248 -9.14356 L -9.50801 -9.1563 L -9.40317 -9.16869 L -9.29796 -9.18072 L -9.19239 -9.19239 L -9.19239 -9.19239 L -9.18072 -9.29796 L -9.16869 -9.40317 L -9.1563 -9.50801 L -9.14356 -9.61248 L -9.13047 -9.71659 L -9.11706 -9.82035 L -9.10331 -9.92375 L -9.08924 -10.0268 L -9.07486 -10.1295 L -9.06016 -10.2319 L -9.04517 -10.3339 L -9.02988 -10.4356 L -9.0143 -10.5369 L -8.99844 -10.6379 L -8.9823 -10.7386 L -8.96589 -10.839 L -8.94922 -10.939 L -8.93228 -11.0388 L -8.91509 -11.1382 L -8.89765 -11.2373 L -8.87996 -11.3361 L -8.86203 -11.4345 L -8.84387 -11.5327 L -8.82548 -11.6306 L -8.80686 -11.7282 L -8.78802 -11.8255 L -8.76897 -11.9225 L -8.7497 -12.0192 L -8.73022 -12.1156 L -8.71054 -12.2117 L -8.65618 -12.2503 L -8.60165 -12.2887 L -8.54695 -12.3268 L -8.49208 -12.3646 L -8.43704 -12.4023 L -8.38184 -12.4396 L -8.32647 -12.4768 L -8.27094 -12.5137 L -8.21524 -12.5503 L -8.15938 -12.5867 L -8.10336 -12.6228 L -8.04718 -12.6587 L -7.99084 -12.6944 L -7.93434 -12.7297 L -7.87768 -12.7649 L -7.82087 -12.7998 L -7.76391 -12.8344 L -7.70679 -12.8688 L -7.64952 -12.9029 L -7.5921 -12.9368 L -7.40752 -13.0433 L -7.34948 -13.0761 L -7.29129 -13.1087 L -7.23296 -13.1409 L -7.17449 -13.173 L -7.11587 -13.2047 L -7.05711 -13.2362 L -6.99821 -13.2674 L -6.93918 -13.2984 L -6.88001 -13.3291 L -6.8207 -13.3596 L -6.76125 -13.3898 L -6.70168 -13.4197 L -6.64197 -13.4493 L -6.58213 -13.4787 L -6.52216 -13.5078 L -6.46206 -13.5367 L -6.40183 -13.5653 L -6.34148 -13.5936 L -6.281 -13.6216 L -6.2204 -13.6494 L -6.1273 -13.6184 L -6.03406 -13.587 L -5.94068 -13.5554 L -5.84715 -13.5234 L -5.75348 -13.4911 L -5.65966 -13.4584 L -5.5657 -13.4254 L -5.47159 -13.392 L -5.37734 -13.3583 L -5.28294 -13.3242 L -5.1884 -13.2898 L -5.09371 -13.255 L -4.99888 -13.2198 L -4.9039 -13.1842 L -4.80878 -13.1482 L -4.71351 -13.1119 L -4.61809 -13.0751 L -4.52253 -13.0379 L -4.42683 -13.0003 L -4.33098 -12.9623 L -4.23499 -12.9238 L -4.13885 -12.8849 L -4.04257 -12.8456 L -3.94615 -12.8058 L -3.84958 -12.7655 L -3.75287 -12.7248 L -3.65603 -12.6836 L -3.55904 -12.6419 L -3.46191 -12.5997 L -3.36465 -12.557 L -3.36465 -12.557 L -3.30176 -12.6426 L -3.23873 -12.7277 L -3.17558 -12.8123 L -3.11231 -12.8964 L -3.04893 -12.9801 L -2.98543 -13.0632 L -2.92182 -13.1459 L -2.85811 -13.2281 L -2.7943 -13.3098 L -2.7304 -13.3911 L -2.6664 -13.472 L -2.60232 -13.5524 L -2.53815 -13.6324 L -2.47391 -13.7119 L -2.40959 -13.7911 L -2.34519 -13.8698 L -2.28073 -13.9481 L -2.2162 -14.026 L -2.1516 -14.1035 L -2.08695 -14.1806 L -2.02224 -14.2573 L -1.95747 -14.3336 L -1.89265 -14.4096 L -1.82779 -14.4851 L -1.76287 -14.5603 L -1.69792 -14.6352 L -1.63291 -14.7096 L -1.56788 -14.7838 L -1.5028 -14.8575 L -1.43769 -14.9309 L -1.37131 -14.9372 L -1.30491 -14.9431 L -1.23849 -14.9488 L -1.17203 -14.9541 L -1.10556 -14.9592 L -1.03906 -14.964 L -0.972547 -14.9684 L -0.906012 -14.9726 L -0.839458 -14.9765 L -0.772888 -14.9801 L -0.706302 -14.9834 L -0.639703 -14.9864 L -0.57309 -14.989 L -0.506467 -14.9914 L -0.439834 -14.9936 L -0.373191 -14.9954 L -0.306542 -14.9969 L -0.239886 -14.9981 L -0.173226 -14.999 L -0.106562 -14.9996 L 0.106562 -14.9996 L 0.173226 -14.999 L 0.239886 -14.9981 L 0.306542 -14.9969 L 0.373191 -14.9954 L 0.439834 -14.9936 L 0.506467 -14.9914 L 0.57309 -14.989 L 0.639703 -14.9864 L 0.706302 -14.9834 L 0.772888 -14.9801 L 0.839458 -14.9765 L 0.906012 -14.9726 L 0.972547 -14.9684 L 1.03906 -14.964 L 1.10556 -14.9592 L 1.17203 -14.9541 L 1.23849 -14.9488 L 1.30491 -14.9431 L 1.37131 -14.9372 L 1.43769 -14.9309 L 1.5028 -14.8575 L 1.56788 -14.7838 L 1.63291 -14.7096 L 1.69792 -14.6352 L 1.76287 -14.5603 L 1.82779 -14.4851 L 1.89265 -14.4096 L 1.95747 -14.3336 L 2.02224 -14.2573 L 2.08695 -14.1806 L 2.1516 -14.1035 L 2.2162 -14.026 L 2.28073 -13.9481 L 2.34519 -13.8698 L 2.40959 -13.7911 L 2.47391 -13.7119 L 2.53815 -13.6324 L 2.60232 -13.5524 L 2.6664 -13.472 L 2.7304 -13.3911 L 2.7943 -13.3098 L 2.85811 -13.2281 L 2.92182 -13.1459 L 2.98543 -13.0632 L 3.04893 -12.9801 L 3.11231 -12.8964 L 3.17558 -12.8123 L 3.23873 -12.7277 L 3.30176 -12.6426 L 3.36465 -12.557 L 3.36465 -12.557 L 3.46191 -12.5997 L 3.55904 -12.6419 L 3.65603 -12.6836 L 3.75287 -12.7248 L 3.84958 -12.7655 L 3.94615 -12.8058 L 4.04257 -12.8456 L 4.13885 -12.8849 L 4.23499 -12.9238 L 4.33098 -12.9623 L 4.42683 -13.0003 L 4.52253 -13.0379 L 4.61809 -13.0751 L 4.71351 -13.1119 L 4.80878 -13.1482 L 4.9039 -13.1842 L 4.99888 -13.2198 L 5.09371 -13.255 L 5.1884 -13.2898 L 5.28294 -13.3242 L 5.37734 -13.3583 L 5.47159 -13.392 L 5.5657 -13.4254 L 5.65966 -13.4584 L 5.75348 -13.4911 L 5.84715 -13.5234 L 5.94068 -13.5554 L 6.03406 -13.587 L 6.1273 -13.6184 L 6.2204 -13.6494 L 6.281 -13.6216 L 6.34148 -13.5936 L 6.40183 -13.5653 L 6.46206 -13.5367 L 6.52216 -13.5078 L 6.58213 -13.4787 L 6.64197 -13.4493 L 6.70168 -13.4197 L 6.76125 -13.3898 L 6.8207 -13.3596 L 6.88001 -13.3291 L 6.93918 -13.2984 L 6.99821 -13.2674 L 7.05711 -13.2362 L 7.11587 -13.2047 L 7.17449 -13.173 L 7.23296 -13.1409 L 7.29129 -13.1087 L 7.34948 -13.0761 L 7.40752 -13.0433 L 7.5921 -12.9368 L 7.64952 -12.9029 L 7.70679 -12.8688 L 7.76391 -12.8344 L 7.82087 -12.7998 L 7.87768 -12.7649 L 7.93434 -12.7297 L 7.99084 -12.6944 L 8.04718 -12.6587 L 8.10336 -12.6228 L 8.15938 -12.5867 L 8.21524 -12.5503 L 8.27094 -12.5137 L 8.32647 -12.4768 L 8.38184 -12.4396 L 8.43704 -12.4023 L 8.49208 -12.3646 L 8.54695 -12.3268 L 8.60165 -12.2887 L 8.65618 -12.2503 L 8.71054 -12.2117 L 8.73022 -12.1156 L 8.7497 -12.0192 L 8.76897 -11.9225 L 8.78802 -11.8255 L 8.80686 -11.7282 L 8.82548 -11.6306 L 8.84387 -11.5327 L 8.86203 -11.4345 L 8.87996 -11.3361 L 8.89765 -11.2373 L 8.91509 -11.1382 L 8.93228 -11.0388 L 8.94922 -10.939 L 8.96589 -10.839 L 8.9823 -10.7386 L 8.99844 -10.6379 L 9.0143 -10.5369 L 9.02988 -10.4356 L 9.04517 -10.3339 L 9.06016 -10.2319 L 9.07486 -10.1295 L 9.08924 -10.0268 L 9.10331 -9.92375 L 9.11706 -9.82035 L 9.13047 -9.71659 L 9.14356 -9.61248 L 9.1563 -9.50801 L 9.16869 -9.40317 L 9.18072 -9.29796 L 9.19239 -9.19239 L 9.19239 -9.19239 L 9.29796 -9.18072 L 9.40317 -9.16869 L 9.50801 -9.1563 L 9.61248 -9.14356 L 9.71659 -9.13047 L 9.82035 -9.11706 L 9.92375 -9.10331 L 10.0268 -9.08924 L 10.1295 -9.07486 L 10.2319 -9.06016 L 10.3339 -9.04517 L 10.4356 -9.02988 L 10.5369 -9.0143 L 10.6379 -8.99844 L 10.7386 -8.9823 L 10.839 -8.96589 L 10.939 -8.94922 L 11.0388 -8.93228 L 11.1382 -8.91509 L 11.2373 -8.89765 L 11.3361 -8.87996 L 11.4345 -8.86203 L 11.5327 -8.84387 L 11.6306 -8.82548 L 11.7282 -8.80686 L 11.8255 -8.78802 L 11.9225 -8.76897 L 12.0192 -8.7497 L 12.1156 -8.73022 L 12.2117 -8.71054 L 12.2503 -8.65618 L 12.2887 -8.60165 L 12.3268 -8.54695 L 12.3646 -8.49208 L 12.4023 -8.43704 L 12.4396 -8.38184 L 12.4768 -8.32647 L 12.5137 -8.27094 L 12.5503 -8.21524 L 12.5867 -8.15938 L 12.6228 -8.10336 L 12.6587 -8.04718 L 12.6944 -7.99084 L 12.7297 -7.93434 L 12.7649 -7.87768 L 12.7998 -7.82087 L 12.8344 -7.76391 L 12.8688 -7.70679 L 12.9029 -7.64952 L 12.9368 -7.5921 L 13.0433 -7.40752 L 13.0761 -7.34948 L 13.1087 -7.29129 L 13.1409 -7.23296 L 13.173 -7.17449 L 13.2047 -7.11587 L 13.2362 -7.05711 L 13.2674 -6.99821 L 13.2984 -6.93918 L 13.3291 -6.88001 L 13.3596 -6.8207 L 13.3898 -6.76125 L 13.4197 -6.70168 L 13.4493 -6.64197 L 13.4787 -6.58213 L 13.5078 -6.52216 L 13.5367 -6.46206 L 13.5653 -6.40183 L 13.5936 -6.34148 L 13.6216 -6.281 L 13.6494 -6.2204 L 13.6184 -6.1273 L 13.587 -6.03406 L 13.5554 -5.94068 L 13.5234 -5.84715 L 13.4911 -5.75348 L 13.4584 -5.65966 L 13.4254 -5.5657 L 13.392 -5.47159 L 13.3583 -5.37734 L 13.3242 -5.28294 L 13.2898 -5.1884 L 13.255 -5.09371 L 13.2198 -4.99888 L 13.1842 -4.9039 L 13.1482 -4.80878 L 13.1119 -4.71351 L 13.0751 -4.61809 L 13.0379 -4.52253 L 13.0003 -4.42683 L 12.9623 -4.33098 L 12.9238 -4.23499 L 12.8849 -4.13885 L 12.8456 -4.04257 L 12.8058 -3.94615 L 12.7655 -3.84958 L 12.7248 -3.75287 L 12.6836 -3.65603 L 12.6419 -3.55904 L 12.5997 -3.46191 L 12.557 -3.36465 L 12.557 -3.36465 L 12.6426 -3.30176 L 12.7277 -3.23873 L 12.8123 -3.17558 L 12.8964 -3.11231 L 12.9801 -3.04893 L 13.0632 -2.98543 L 13.1459 -2.92182 L 13.2281 -2.85811 L 13.3098 -2.7943 L 13.3911 -2.7304 L 13.472 -2.6664 L 13.5524 -2.60232 L 13.6324 -2.53815 L 13.7119 -2.47391 L 13.7911 -2.40959 L 13.8698 -2.34519 L 13.9481 -2.28073 L 14.026 -2.2162 L 14.1035 -2.1516 L 14.1806 -2.08695 L 14.2573 -2.02224 L 14.3336 -1.95747 L 14.4096 -1.89265 L 14.4851 -1.82779 L 14.5603 -1.76287 L 14.6352 -1.69792 L 14.7096 -1.63291 L 14.7838 -1.56788 L 14.8575 -1.5028 L 14.9309 -1.43769 L 14.9372 -1.37131 L 14.9431 -1.30491 L 14.9488 -1.23849 L 14.9541 -1.17203 L 14.9592 -1.10556 L 14.964 -1.03906 L 14.9684 -0.972547 L 14.9726 -0.906012 L 14.9765 -0.839458 L 14.9801 -0.772888 L 14.9834 -0.706302 L 14.9864 -0.639703 L 14.989 -0.57309 L 14.9914 -0.506467 L 14.9936 -0.439834 L 14.9954 -0.373191 L 14.9969 -0.306542 L 14.9981 -0.239886 L 14.999 -0.173226 L 14.9996 -0.106562Z"
id="path1" />
</g>
</svg>
