<?xml version="1.0" encoding="UTF-8" standalone="no"?>
<svg version="1.1">
<g
style="fill:none;stroke:#000000;stroke-opacity:1;stroke-width:0.1">
<path d="M 17.875 0.0338364 L 17.8749 0.0588363 L 17.8748 0.0838361 L 17.8747 0.108836 L 17.8745 0.133835 L 17.8743 0.158834 L 17.8741 0.183833 L 17.8738 0.208832 L 17.8735 0.23383 L 17.8731 0.258827 L 17.8727 0.283824 L 17.8723 0.308821 L 17.8719 0.333817 L 17.8714 0.358812 L 17.8709 0.383807 L 17.8703 0.408801 L 17.8697 0.433794 L 17.8691 0.458786 L 17.8685 0.483777 L 17.8678 0.508768 L 17.867 0.533757 L 17.8663 0.558745 L 17.8655 0.583733 L 17.8646 0.608719 L 17.8638 0.633704 L 17.8629 0.658687 L 17.8619 0.68367 L 17.8609 0.708651 L 17.8599 0.73363 L 17.8589 0.758609 L 17.8578 0.783585 L 17.8567 0.80856 L 17.8556 0.833534 L 17.8544 0.858506 L 17.8532 0.883476 L 17.8519 0.908445 L 17.8506 0.933412 L 17.8493 0.958377 L 17.8479 0.98334 L 17.8465 1.0083 L 17.8451 1.03326 L 17.8436 1.05822 L 17.8422 1.08317 L 17.8406 1.10813 L 17.8391 1.13308 L 17.8374 1.15802 L 17.8358 1.18297 L 17.8341 1.20792 L 17.8324 1.23286 L 17.8307 1.2578 L 17.8289 1.28273 L 17.8271 1.30767 L 17.8253 1.3326 L 17.8234 1.35753 L 17.8215 1.38245 L 17.8195 1.40738 L 17.8175 1.4323 L 17.8155 1.45722 L 17.8134 1.48213 L 17.8114 1.50705 L 17.8092 1.53195 L 17.7827 1.54859 L 17.7561 1.56522 L 17.7296 1.58184 L 17.703 1.59847 L 17.6764 1.61509 L 17.6497 1.63172 L 17.6231 1.64834 L 17.5964 1.66495 L 17.5697 1.68157 L 17.543 1.69819 L 17.5163 1.7148 L 17.4895 1.73141 L 17.4627 1.74802 L 17.4359 1.76462 L 17.4091 1.78123 L 17.3823 1.79783 L 17.3554 1.81443 L 17.3285 1.83103 L 17.3016 1.84762 L 17.2747 1.86422 L 17.2478 1.88081 L 17.2208 1.8974 L 17.1938 1.91398 L 17.1668 1.93057 L 17.1398 1.94715 L 17.1127 1.96373 L 17.0856 1.9803 L 17.0585 1.99688 L 17.0314 2.01345 L 17.0043 2.03001 L 16.9771 2.04658 L 16.9499 2.06314 L 16.9227 2.0797 L 16.8955 2.09626 L 16.8682 2.11282 L 16.8409 2.12937 L 16.8136 2.14592 L 16.7863 2.16246 L 16.7589 2.179 L 16.7316 2.19554 L 16.7042 2.21208 L 16.6767 2.22862 L 16.6493 2.24515 L 16.6218 2.26167 L 16.5943 2.2782 L 16.5668 2.29472 L 16.5393 2.31124 L 16.5117 2.32775 L 16.4841 2.34426 L 16.4565 2.36077 L 16.4289 2.37727 L 16.4012 2.39377 L 16.3735 2.41027 L 16.3458 2.42676 L 16.3181 2.44325 L 16.2903 2.45974 L 16.2626 2.47622 L 16.2347 2.4927 L 16.2069 2.50917 L 16.1791 2.52564 L 16.1512 2.54211 L 16.1233 2.55857 L 16.0953 2.57503 L 16.0674 2.59148 L 16.0394 2.60793 L 16.0113 2.62437 L 15.9833 2.64082 L 15.9552 2.65725 L 15.9271 2.67368 L 15.899 2.69011 L 15.8709 2.70654 L 15.8427 2.72295 L 15.8145 2.73937 L 15.7863 2.75578 L 15.758 2.77218 L 15.7297 2.78858 L 15.7014 2.80498 L 15.6731 2.82137 L 15.6447 2.83775 L 15.6163 2.85413 L 15.5879 2.87051 L 15.5595 2.88688 L 15.531 2.90324 L 15.531 2.90324 L 15.5516 2.92879 L 15.5722 2.95433 L 15.5928 2.97987 L 15.6134 3.0054 L 15.6339 3.03092 L 15.6544 3.05644 L 15.6749 3.08196 L 15.6953 3.10747 L 15.7158 3.13297 L 15.7362 3.15847 L 15.7565 3.18396 L 15.7769 3.20945 L 15.7972 3.23493 L 15.8175 3.26041 L 15.8377 3.28588 L 15.858 3.31135 L 15.8782 3.33681 L 15.8984 3.36227 L 15.9185 3.38772 L 15.9386 3.41316 L 15.9587 3.4386 L 15.9788 3.46403 L 15.9989 3.48946 L 16.0189 3.51488 L 16.0389 3.5403 L 16.0589 3.56571 L 16.0789 3.59112 L 16.0988 3.61652 L 16.1187 3.64191 L 16.1386 3.6673 L 16.1584 3.69268 L 16.1783 3.71806 L 16.1981 3.74343 L 16.2178 3.7688 L 16.2376 3.79416 L 16.2573 3.81952 L 16.2771 3.84487 L 16.2967 3.87021 L 16.3164 3.89555 L 16.3361 3.92089 L 16.3557 3.94621 L 16.3753 3.97154 L 16.3948 3.99685 L 16.4144 4.02216 L 16.4339 4.04747 L 16.4534 4.07277 L 16.4729 4.09806 L 16.4924 4.12335 L 16.5118 4.14864 L 16.5312 4.17391 L 16.5506 4.19919 L 16.57 4.22445 L 16.5893 4.24971 L 16.6086 4.27497 L 16.628 4.30022 L 16.6472 4.32546 L 16.6665 4.3507 L 16.6857 4.37593 L 16.705 4.40116 L 16.7241 4.42638 L 16.7433 4.4516 L 16.7625 4.47681 L 16.7816 4.50201 L 16.8007 4.52721 L 16.8198 4.5524 L 16.8389 4.57759 L 16.8579 4.60278 L 16.877 4.62795 L 16.896 4.65312 L 16.915 4.67829 L 16.9339 4.70345 L 16.9529 4.7286 L 16.9718 4.75375 L 16.9907 4.77889 L 17.0096 4.80403 L 17.0285 4.82916 L 17.0473 4.85429 L 17.0662 4.87941 L 17.085 4.90453 L 17.1038 4.92964 L 17.1225 4.95474 L 17.1413 4.97984 L 17.16 5.00493 L 17.153 5.02893 L 17.146 5.05291 L 17.1389 5.07689 L 17.1318 5.10085 L 17.1246 5.12481 L 17.1174 5.14875 L 17.1102 5.17269 L 17.1029 5.19661 L 17.0957 5.22053 L 17.0883 5.24443 L 17.081 5.26833 L 17.0736 5.29221 L 17.0662 5.31609 L 17.0587 5.33995 L 17.0513 5.3638 L 17.0437 5.38765 L 17.0362 5.41148 L 17.0286 5.4353 L 17.021 5.45911 L 17.0133 5.48291 L 17.0056 5.5067 L 16.9979 5.53048 L 16.9902 5.55425 L 16.9824 5.578 L 16.9746 5.60175 L 16.9667 5.62549 L 16.9588 5.64921 L 16.9509 5.67292 L 16.943 5.69663 L 16.935 5.72032 L 16.927 5.744 L 16.9189 5.76766 L 16.9108 5.79132 L 16.9027 5.81497 L 16.8946 5.8386 L 16.8864 5.86222 L 16.8782 5.88584 L 16.8699 5.90944 L 16.8616 5.93302 L 16.8533 5.9566 L 16.845 5.98017 L 16.8366 6.00372 L 16.8282 6.02726 L 16.8197 6.05079 L 16.8113 6.07431 L 16.8027 6.09782 L 16.7942 6.12131 L 16.7856 6.14479 L 16.777 6.16826 L 16.7684 6.19172 L 16.7597 6.21517 L 16.751 6.2386 L 16.7422 6.26202 L 16.7335 6.28543 L 16.7247 6.30883 L 16.7158 6.33222 L 16.7069 6.35559 L 16.698 6.37895 L 16.6891 6.4023 L 16.6801 6.42563 L 16.6557 6.48873 L 16.6466 6.51202 L 16.6375 6.5353 L 16.6283 6.55856 L 16.6191 6.58181 L 16.6099 6.60505 L 16.6007 6.62827 L 16.5914 6.65148 L 16.582 6.67468 L 16.5727 6.69787 L 16.5633 6.72104 L 16.5539 6.7442 L 16.5444 6.76734 L 16.535 6.79048 L 16.5255 6.8136 L 16.5159 6.8367 L 16.5063 6.85979 L 16.4967 6.88287 L 16.4871 6.90594 L 16.4774 6.92899 L 16.4677 6.95203 L 16.458 6.97505 L 16.4482 6.99807 L 16.4384 7.02106 L 16.4285 7.04405 L 16.4187 7.06702 L 16.4088 7.08997 L 16.3988 7.11292 L 16.3889 7.13584 L 16.3789 7.15876 L 16.3689 7.18166 L 16.3588 7.20455 L 16.3487 7.22742 L 16.3386 7.25028 L 16.3284 7.27312 L 16.3182 7.29595 L 16.308 7.31877 L 16.2978 7.34157 L 16.2875 7.36435 L 16.2772 7.38713 L 16.2668 7.40988 L 16.2564 7.43263 L 16.246 7.45536 L 16.2356 7.47807 L 16.2251 7.50077 L 16.2146 7.52346 L 16.2041 7.54613 L 16.1935 7.56878 L 16.1829 7.59142 L 16.1723 7.61405 L 16.1616 7.63666 L 16.1509 7.65926 L 16.1402 7.68184 L 16.1294 7.7044 L 16.1186 7.72695 L 16.1078 7.74949 L 16.0969 7.77201 L 16.0861 7.79452 L 16.0751 7.81701 L 16.0642 7.83948 L 16.0532 7.86194 L 16.0225 7.86787 L 15.9917 7.87378 L 15.9609 7.87969 L 15.9301 7.88558 L 15.8993 7.89147 L 15.8684 7.89735 L 15.8376 7.90322 L 15.8067 7.90908 L 15.7758 7.91493 L 15.7449 7.92077 L 15.714 7.92661 L 15.683 7.93243 L 15.6521 7.93824 L 15.6211 7.94405 L 15.5901 7.94984 L 15.559 7.95563 L 15.528 7.9614 L 15.4969 7.96717 L 15.4658 7.97293 L 15.4347 7.97867 L 15.4036 7.98441 L 15.3725 7.99013 L 15.3413 7.99585 L 15.3102 8.00156 L 15.279 8.00725 L 15.2477 8.01294 L 15.2165 8.01861 L 15.1852 8.02428 L 15.154 8.02993 L 15.1227 8.03558 L 15.0914 8.04121 L 15.06 8.04683 L 15.0287 8.05245 L 14.9973 8.05805 L 14.9659 8.06364 L 14.9345 8.06922 L 14.903 8.07478 L 14.8716 8.08034 L 14.8401 8.08589 L 14.8086 8.09142 L 14.7771 8.09695 L 14.7455 8.10246 L 14.714 8.10796 L 14.6824 8.11345 L 14.6508 8.11892 L 14.6192 8.12439 L 14.5875 8.12984 L 14.5558 8.13529 L 14.5242 8.14072 L 14.4925 8.14613 L 14.4607 8.15154 L 14.429 8.15693 L 14.3972 8.16232 L 14.3654 8.16769 L 14.3336 8.17304 L 14.3017 8.17839 L 14.2699 8.18372 L 14.238 8.18904 L 14.2061 8.19434 L 14.1742 8.19964 L 14.1422 8.20492 L 14.1102 8.21018 L 14.0782 8.21544 L 14.0462 8.22068 L 14.0142 8.22591 L 13.9821 8.23112 L 13.95 8.23632 L 13.9179 8.24151 L 13.8858 8.24668 L 13.8536 8.25184 L 13.8214 8.25699 L 13.7892 8.26212 L 13.757 8.26724 L 13.7248 8.27234 L 13.6925 8.27743 L 13.6602 8.28251 L 13.6279 8.28757 L 13.5955 8.29262 L 13.5631 8.29765 L 13.5308 8.30267 L 13.4983 8.30767 L 13.4659 8.31266 L 13.4334 8.31763 L 13.4334 8.31763 L 13.4435 8.34891 L 13.4534 8.38017 L 13.4634 8.41142 L 13.4734 8.44265 L 13.4833 8.47387 L 13.4932 8.50508 L 13.5031 8.53626 L 13.5129 8.56744 L 13.5227 8.5986 L 13.5326 8.62974 L 13.5423 8.66087 L 13.5521 8.69199 L 13.5618 8.72309 L 13.5716 8.75417 L 13.5812 8.78524 L 13.5909 8.8163 L 13.6006 8.84734 L 13.6102 8.87837 L 13.6198 8.90938 L 13.6294 8.94038 L 13.6389 8.97136 L 13.6485 9.00233 L 13.658 9.03329 L 13.6675 9.06423 L 13.6769 9.09516 L 13.6864 9.12607 L 13.6958 9.15697 L 13.7052 9.18785 L 13.7146 9.21872 L 13.724 9.24958 L 13.7333 9.28042 L 13.7427 9.31125 L 13.752 9.34206 L 13.7612 9.37287 L 13.7705 9.40365 L 13.7798 9.43443 L 13.789 9.46518 L 13.7982 9.49593 L 13.8074 9.52666 L 13.8165 9.55738 L 13.8257 9.58809 L 13.8348 9.61878 L 13.8439 9.64945 L 13.853 9.68012 L 13.8621 9.71077 L 13.8711 9.74141 L 13.8801 9.77203 L 13.8891 9.80264 L 13.8981 9.83324 L 13.9071 9.86382 L 13.9161 9.89439 L 13.925 9.92495 L 13.9339 9.95549 L 13.9428 9.98602 L 13.9517 10.0165 L 13.9605 10.047 L 13.9694 10.0775 L 13.9782 10.108 L 13.987 10.1385 L 13.9958 10.1689 L 14.0046 10.1994 L 14.0133 10.2298 L 14.0221 10.2602 L 14.0308 10.2906 L 14.0395 10.321 L 14.0482 10.3514 L 14.0568 10.3817 L 14.0655 10.4121 L 14.0741 10.4424 L 14.0827 10.4728 L 14.0913 10.5031 L 14.0999 10.5334 L 14.1085 10.5637 L 14.117 10.5939 L 14.1256 10.6242 L 14.1341 10.6545 L 14.1426 10.6847 L 14.1511 10.7149 L 14.1595 10.7451 L 14.168 10.7753 L 14.1764 10.8055 L 14.1848 10.8357 L 14.1933 10.8659 L 14.178 10.8857 L 14.1628 10.9055 L 14.1475 10.9253 L 14.1322 10.9451 L 14.1169 10.9649 L 14.1016 10.9846 L 14.0862 11.0043 L 14.0708 11.024 L 14.0554 11.0437 L 14.0399 11.0633 L 14.0244 11.0829 L 14.0089 11.1025 L 13.9934 11.1221 L 13.9778 11.1417 L 13.9622 11.1612 L 13.9466 11.1807 L 13.9309 11.2002 L 13.9152 11.2197 L 13.8995 11.2392 L 13.8838 11.2586 L 13.868 11.278 L 13.8523 11.2974 L 13.8364 11.3167 L 13.8206 11.3361 L 13.8047 11.3554 L 13.7888 11.3747 L 13.7729 11.394 L 13.757 11.4132 L 13.741 11.4324 L 13.725 11.4517 L 13.709 11.4708 L 13.6929 11.49 L 13.6768 11.5091 L 13.6607 11.5283 L 13.6446 11.5474 L 13.6284 11.5664 L 13.6122 11.5855 L 13.596 11.6045 L 13.5798 11.6235 L 13.5635 11.6425 L 13.5472 11.6614 L 13.5309 11.6804 L 13.5145 11.6993 L 13.4981 11.7182 L 13.4817 11.7371 L 13.4653 11.7559 L 13.4489 11.7747 L 13.4324 11.7935 L 13.4159 11.8123 L 13.3993 11.831 L 13.3828 11.8498 L 13.3662 11.8685 L 13.3496 11.8872 L 13.3329 11.9058 L 13.3163 11.9245 L 13.2996 11.9431 L 13.2829 11.9617 L 13.2661 11.9802 L 13.2494 11.9988 L 13.2326 12.0173 L 13.187 12.0673 L 13.1701 12.0857 L 13.1532 12.1041 L 13.1362 12.1225 L 13.1192 12.1409 L 13.1023 12.1592 L 13.0852 12.1775 L 13.0682 12.1958 L 13.0511 12.2141 L 13.034 12.2323 L 13.0169 12.2505 L 12.9998 12.2687 L 12.9826 12.2869 L 12.9654 12.305 L 12.9482 12.3232 L 12.9309 12.3413 L 12.9136 12.3593 L 12.8964 12.3774 L 12.879 12.3954 L 12.8617 12.4134 L 12.8443 12.4314 L 12.8269 12.4493 L 12.8095 12.4673 L 12.792 12.4852 L 12.7746 12.5031 L 12.7571 12.5209 L 12.7395 12.5387 L 12.722 12.5565 L 12.7044 12.5743 L 12.6868 12.5921 L 12.6692 12.6098 L 12.6515 12.6275 L 12.6339 12.6452 L 12.6162 12.6629 L 12.5984 12.6805 L 12.5807 12.6981 L 12.5629 12.7157 L 12.5451 12.7332 L 12.5273 12.7508 L 12.5095 12.7683 L 12.4916 12.7858 L 12.4737 12.8032 L 12.4558 12.8207 L 12.4378 12.8381 L 12.4199 12.8554 L 12.4019 12.8728 L 12.3839 12.8901 L 12.3658 12.9074 L 12.3478 12.9247 L 12.3297 12.942 L 12.3116 12.9592 L 12.2934 12.9764 L 12.2753 12.9936 L 12.2571 13.0108 L 12.2389 13.0279 L 12.2206 13.045 L 12.2024 13.0621 L 12.1841 13.0791 L 12.1658 13.0962 L 12.1475 13.1132 L 12.1291 13.1301 L 12.0983 13.1245 L 12.0675 13.1189 L 12.0366 13.1133 L 12.0058 13.1077 L 11.9749 13.1021 L 11.944 13.0964 L 11.9131 13.0907 L 11.8822 13.085 L 11.8513 13.0793 L 11.8204 13.0736 L 11.7894 13.0679 L 11.7585 13.0621 L 11.7275 13.0564 L 11.6965 13.0506 L 11.6655 13.0448 L 11.6345 13.039 L 11.6034 13.0331 L 11.5724 13.0273 L 11.5413 13.0214 L 11.5102 13.0156 L 11.4792 13.0097 L 11.448 13.0038 L 11.4169 12.9978 L 11.3858 12.9919 L 11.3546 12.9859 L 11.3235 12.98 L 11.2923 12.974 L 11.2611 12.968 L 11.2299 12.9619 L 11.1987 12.9559 L 11.1674 12.9498 L 11.1362 12.9438 L 11.1049 12.9377 L 11.0736 12.9315 L 11.0424 12.9254 L 11.011 12.9193 L 10.9797 12.9131 L 10.9484 12.9069 L 10.917 12.9007 L 10.8856 12.8945 L 10.8543 12.8883 L 10.8229 12.882 L 10.7914 12.8757 L 10.76 12.8695 L 10.7286 12.8631 L 10.6971 12.8568 L 10.6656 12.8505 L 10.6341 12.8441 L 10.6026 12.8377 L 10.5711 12.8313 L 10.5395 12.8249 L 10.508 12.8185 L 10.4764 12.812 L 10.4448 12.8055 L 10.4132 12.799 L 10.3816 12.7925 L 10.35 12.786 L 10.3183 12.7794 L 10.2866 12.7728 L 10.255 12.7662 L 10.2233 12.7596 L 10.1915 12.753 L 10.1598 12.7463 L 10.128 12.7396 L 10.0963 12.7329 L 10.0645 12.7262 L 10.0327 12.7195 L 10.0009 12.7127 L 9.96905 12.7059 L 9.9372 12.6991 L 9.90534 12.6923 L 9.87345 12.6854 L 9.84155 12.6786 L 9.80964 12.6717 L 9.77771 12.6648 L 9.74576 12.6578 L 9.71379 12.6509 L 9.6818 12.6439 L 9.6498 12.6369 L 9.61779 12.6299 L 9.58575 12.6228 L 9.5537 12.6158 L 9.52163 12.6087 L 9.52163 12.6087 L 9.51967 12.6415 L 9.5177 12.6742 L 9.51571 12.707 L 9.5137 12.7397 L 9.51168 12.7724 L 9.50964 12.805 L 9.50758 12.8377 L 9.50551 12.8703 L 9.50342 12.9029 L 9.50131 12.9355 L 9.49919 12.9681 L 9.49705 13.0006 L 9.49489 13.0331 L 9.49272 13.0656 L 9.49054 13.0981 L 9.48833 13.1306 L 9.48612 13.163 L 9.48388 13.1954 L 9.48163 13.2278 L 9.47937 13.2601 L 9.47709 13.2925 L 9.47479 13.3248 L 9.47248 13.3571 L 9.47016 13.3894 L 9.46782 13.4217 L 9.46547 13.4539 L 9.4631 13.4861 L 9.46071 13.5183 L 9.45831 13.5505 L 9.4559 13.5827 L 9.45348 13.6148 L 9.45103 13.6469 L 9.44858 13.679 L 9.44611 13.7111 L 9.44363 13.7431 L 9.44113 13.7752 L 9.43862 13.8072 L 9.43609 13.8392 L 9.43356 13.8711 L 9.43101 13.9031 L 9.42844 13.935 L 9.42586 13.9669 L 9.42327 13.9988 L 9.42067 14.0307 L 9.41805 14.0626 L 9.41542 14.0944 L 9.41277 14.1262 L 9.41012 14.158 L 9.40745 14.1898 L 9.40476 14.2216 L 9.40207 14.2533 L 9.39936 14.285 L 9.39664 14.3167 L 9.39391 14.3484 L 9.39117 14.3801 L 9.38841 14.4117 L 9.38564 14.4434 L 9.38286 14.475 L 9.38007 14.5065 L 9.37726 14.5381 L 9.37444 14.5697 L 9.37162 14.6012 L 9.36878 14.6327 L 9.36592 14.6642 L 9.36306 14.6957 L 9.36018 14.7272 L 9.3573 14.7586 L 9.3544 14.79 L 9.35149 14.8214 L 9.34857 14.8528 L 9.34564 14.8842 L 9.34269 14.9156 L 9.33974 14.9469 L 9.33678 14.9782 L 9.3338 15.0095 L 9.33081 15.0408 L 9.32782 15.0721 L 9.32481 15.1033 L 9.32179 15.1346 L 9.31876 15.1658 L 9.31572 15.197 L 9.31267 15.2282 L 9.30961 15.2593 L 9.28826 15.2723 L 9.26689 15.2853 L 9.2455 15.2982 L 9.2241 15.3112 L 9.20267 15.324 L 9.18123 15.3369 L 9.15977 15.3497 L 9.13829 15.3625 L 9.1168 15.3753 L 9.09529 15.388 L 9.07376 15.4007 L 9.05221 15.4134 L 9.03064 15.4261 L 9.00906 15.4387 L 8.98746 15.4513 L 8.96584 15.4638 L 8.9442 15.4763 L 8.92255 15.4888 L 8.90088 15.5013 L 8.87919 15.5137 L 8.85748 15.5261 L 8.83576 15.5385 L 8.81402 15.5508 L 8.79226 15.5632 L 8.77048 15.5754 L 8.74869 15.5877 L 8.72688 15.5999 L 8.70505 15.6121 L 8.68321 15.6243 L 8.66135 15.6364 L 8.63947 15.6485 L 8.61758 15.6606 L 8.59567 15.6726 L 8.57374 15.6846 L 8.55179 15.6966 L 8.52983 15.7085 L 8.50785 15.7204 L 8.48586 15.7323 L 8.46385 15.7442 L 8.44182 15.756 L 8.41978 15.7678 L 8.39771 15.7795 L 8.37564 15.7913 L 8.35354 15.803 L 8.33143 15.8146 L 8.30931 15.8263 L 8.28716 15.8379 L 8.265 15.8495 L 8.24283 15.861 L 8.22064 15.8725 L 8.19843 15.884 L 8.17621 15.8954 L 8.15397 15.9069 L 8.13171 15.9183 L 8.10944 15.9296 L 8.08715 15.9409 L 8.06485 15.9522 L 8.04253 15.9635 L 8.0202 15.9747 L 7.99785 15.9859 L 7.93727 16.0161 L 7.91486 16.0272 L 7.89244 16.0382 L 7.87 16.0493 L 7.84755 16.0603 L 7.82508 16.0712 L 7.80259 16.0821 L 7.78009 16.093 L 7.75758 16.1039 L 7.73505 16.1147 L 7.7125 16.1255 L 7.68994 16.1363 L 7.66736 16.147 L 7.64477 16.1578 L 7.62217 16.1684 L 7.59955 16.1791 L 7.57691 16.1897 L 7.55426 16.2003 L 7.53159 16.2108 L 7.50891 16.2213 L 7.48622 16.2318 L 7.46351 16.2423 L 7.44079 16.2527 L 7.41805 16.2631 L 7.3953 16.2735 L 7.37253 16.2838 L 7.34975 16.2941 L 7.32695 16.3043 L 7.30414 16.3146 L 7.28132 16.3248 L 7.25848 16.3349 L 7.23562 16.3451 L 7.21276 16.3552 L 7.18988 16.3652 L 7.16698 16.3753 L 7.14407 16.3853 L 7.12115 16.3953 L 7.09821 16.4052 L 7.07526 16.4151 L 7.05229 16.425 L 7.02931 16.4349 L 7.00632 16.4447 L 6.98331 16.4545 L 6.96029 16.4642 L 6.93726 16.4739 L 6.91421 16.4836 L 6.89115 16.4933 L 6.86808 16.5029 L 6.84499 16.5125 L 6.82189 16.522 L 6.79878 16.5316 L 6.77565 16.541 L 6.75251 16.5505 L 6.72935 16.5599 L 6.70619 16.5693 L 6.68301 16.5787 L 6.65981 16.588 L 6.63661 16.5973 L 6.61339 16.6066 L 6.59015 16.6158 L 6.56691 16.625 L 6.54019 16.6087 L 6.51347 16.5923 L 6.48674 16.576 L 6.46001 16.5596 L 6.43326 16.5431 L 6.40651 16.5267 L 6.37975 16.5103 L 6.35299 16.4938 L 6.32621 16.4773 L 6.29943 16.4608 L 6.27265 16.4443 L 6.24585 16.4277 L 6.21905 16.4112 L 6.19224 16.3946 L 6.16542 16.378 L 6.13859 16.3613 L 6.11176 16.3447 L 6.08492 16.328 L 6.05807 16.3113 L 6.03122 16.2946 L 6.00436 16.2779 L 5.97749 16.2612 L 5.95061 16.2444 L 5.92372 16.2276 L 5.89683 16.2108 L 5.86993 16.194 L 5.84302 16.1771 L 5.81611 16.1602 L 5.78918 16.1434 L 5.76225 16.1264 L 5.73532 16.1095 L 5.70837 16.0925 L 5.68142 16.0756 L 5.65446 16.0586 L 5.62749 16.0416 L 5.60051 16.0245 L 5.57353 16.0074 L 5.54653 15.9904 L 5.51954 15.9733 L 5.49253 15.9561 L 5.46551 15.939 L 5.43849 15.9218 L 5.41146 15.9046 L 5.38442 15.8874 L 5.35738 15.8701 L 5.33032 15.8529 L 5.30326 15.8356 L 5.2762 15.8183 L 5.24912 15.8009 L 5.22203 15.7836 L 5.19494 15.7662 L 5.16784 15.7488 L 5.14074 15.7313 L 5.11362 15.7139 L 5.0865 15.6964 L 5.05937 15.6789 L 5.03223 15.6614 L 5.00508 15.6438 L 4.97793 15.6263 L 4.95077 15.6087 L 4.9236 15.591 L 4.89642 15.5734 L 4.86923 15.5557 L 4.84204 15.538 L 4.81484 15.5203 L 4.78763 15.5026 L 4.76041 15.4848 L 4.73319 15.467 L 4.70596 15.4492 L 4.67871 15.4313 L 4.65147 15.4134 L 4.62421 15.3955 L 4.59695 15.3776 L 4.56967 15.3596 L 4.5424 15.3417 L 4.51511 15.3237 L 4.48781 15.3056 L 4.46051 15.2876 L 4.4332 15.2695 L 4.40588 15.2514 L 4.37855 15.2332 L 4.35122 15.215 L 4.32388 15.1968 L 4.32388 15.1968 L 4.31021 15.2267 L 4.29653 15.2565 L 4.28285 15.2864 L 4.26916 15.3161 L 4.25546 15.3459 L 4.24176 15.3756 L 4.22804 15.4053 L 4.21432 15.435 L 4.2006 15.4647 L 4.18686 15.4943 L 4.17312 15.5239 L 4.15937 15.5534 L 4.14561 15.583 L 4.13185 15.6125 L 4.11808 15.642 L 4.1043 15.6715 L 4.09052 15.7009 L 4.07673 15.7303 L 4.06293 15.7597 L 4.04913 15.7891 L 4.03532 15.8184 L 4.0215 15.8477 L 4.00768 15.877 L 3.99385 15.9063 L 3.98002 15.9355 L 3.96617 15.9647 L 3.95233 15.9939 L 3.93847 16.0231 L 3.92461 16.0522 L 3.91075 16.0813 L 3.89687 16.1104 L 3.883 16.1395 L 3.86911 16.1685 L 3.85522 16.1975 L 3.84133 16.2265 L 3.82743 16.2555 L 3.81352 16.2844 L 3.79961 16.3134 L 3.78569 16.3423 L 3.77177 16.3711 L 3.75784 16.4 L 3.74391 16.4288 L 3.72997 16.4576 L 3.71603 16.4864 L 3.70208 16.5152 L 3.68813 16.5439 L 3.67417 16.5726 L 3.6602 16.6013 L 3.64623 16.63 L 3.63226 16.6586 L 3.61828 16.6872 L 3.6043 16.7158 L 3.59031 16.7444 L 3.57632 16.773 L 3.56232 16.8015 L 3.54832 16.83 L 3.53431 16.8585 L 3.5203 16.887 L 3.50628 16.9154 L 3.49226 16.9439 L 3.47824 16.9723 L 3.46421 17.0006 L 3.45017 17.029 L 3.43613 17.0573 L 3.42209 17.0857 L 3.40805 17.114 L 3.39399 17.1422 L 3.37994 17.1705 L 3.36588 17.1987 L 3.35182 17.227 L 3.33775 17.2551 L 3.32368 17.2833 L 3.3096 17.3115 L 3.29553 17.3396 L 3.28144 17.3677 L 3.26736 17.3958 L 3.25327 17.4239 L 3.23917 17.4519 L 3.22508 17.48 L 3.21097 17.508 L 3.19687 17.536 L 3.18276 17.564 L 3.16865 17.5919 L 3.14404 17.5963 L 3.11943 17.6007 L 3.09481 17.6051 L 3.07018 17.6094 L 3.04555 17.6136 L 3.02091 17.6179 L 2.99627 17.6221 L 2.97162 17.6263 L 2.94697 17.6304 L 2.92231 17.6345 L 2.89764 17.6386 L 2.87297 17.6426 L 2.84829 17.6466 L 2.82361 17.6506 L 2.79892 17.6545 L 2.77422 17.6584 L 2.74952 17.6623 L 2.72482 17.6661 L 2.70011 17.6699 L 2.67539 17.6737 L 2.65067 17.6774 L 2.62594 17.6811 L 2.60121 17.6847 L 2.57648 17.6883 L 2.55174 17.6919 L 2.52699 17.6955 L 2.50224 17.699 L 2.47748 17.7025 L 2.45272 17.7059 L 2.42795 17.7093 L 2.40318 17.7127 L 2.37841 17.7161 L 2.35363 17.7194 L 2.32884 17.7226 L 2.30405 17.7259 L 2.27926 17.7291 L 2.25446 17.7323 L 2.22966 17.7354 L 2.20485 17.7385 L 2.18004 17.7416 L 2.15523 17.7446 L 2.13041 17.7476 L 2.10558 17.7506 L 2.08075 17.7535 L 2.05592 17.7564 L 2.03109 17.7592 L 2.00625 17.7621 L 1.9814 17.7648 L 1.95655 17.7676 L 1.9317 17.7703 L 1.90685 17.773 L 1.88199 17.7757 L 1.85713 17.7783 L 1.83226 17.7808 L 1.80739 17.7834 L 1.78251 17.7859 L 1.75764 17.7884 L 1.73276 17.7908 L 1.70787 17.7932 L 1.68299 17.7956 L 1.6156 17.8018 L 1.5907 17.8041 L 1.5658 17.8063 L 1.54089 17.8085 L 1.51599 17.8106 L 1.49108 17.8127 L 1.46616 17.8148 L 1.44124 17.8168 L 1.41632 17.8188 L 1.3914 17.8208 L 1.36648 17.8227 L 1.34155 17.8246 L 1.31662 17.8264 L 1.29168 17.8283 L 1.26675 17.8301 L 1.24181 17.8318 L 1.21687 17.8335 L 1.19192 17.8352 L 1.16698 17.8369 L 1.14203 17.8385 L 1.11708 17.8401 L 1.09213 17.8416 L 1.06717 17.8431 L 1.04222 17.8446 L 1.01726 17.846 L 0.992299 17.8474 L 0.967337 17.8488 L 0.942373 17.8501 L 0.917406 17.8514 L 0.892439 17.8527 L 0.867469 17.8539 L 0.842497 17.8551 L 0.817524 17.8563 L 0.79255 17.8574 L 0.767574 17.8585 L 0.742596 17.8596 L 0.717617 17.8606 L 0.692636 17.8616 L 0.667654 17.8625 L 0.642671 17.8634 L 0.617687 17.8643 L 0.592701 17.8652 L 0.567714 17.866 L 0.542726 17.8668 L 0.517737 17.8675 L 0.492747 17.8682 L 0.467756 17.8689 L 0.442764 17.8695 L 0.417772 17.8701 L 0.392778 17.8707 L 0.367784 17.8712 L 0.342789 17.8717 L 0.317793 17.8722 L 0.292797 17.8726 L 0.2678 17.873 L 0.242802 17.8734 L 0.217804 17.8737 L 0.192806 17.874 L 0.167807 17.8742 L 0.142808 17.8744 L 0.117809 17.8746 L 0.0988005 17.8497 L 0.079792 17.8248 L 0.0607834 17.7999 L 0.0417747 17.775 L 0.022766 17.75 L 0.00375722 17.725 L -0.0152515 17.7 L -0.0342603 17.675 L -0.053269 17.6499 L -0.0722776 17.6249 L -0.0912861 17.5998 L -0.110295 17.5747 L -0.129303 17.5495 L -0.148311 17.5244 L -0.167319 17.4992 L -0.186327 17.474 L -0.205334 17.4488 L -0.224342 17.4236 L -0.243349 17.3983 L -0.262355 17.373 L -0.281362 17.3477 L -0.300368 17.3224 L -0.319373 17.2971 L -0.338379 17.2717 L -0.357383 17.2463 L -0.376388 17.2209 L -0.395392 17.1955 L -0.414395 17.17 L -0.433398 17.1445 L -0.4524 17.119 L -0.471402 17.0935 L -0.490403 17.068 L -0.509403 17.0424 L -0.528403 17.0168 L -0.547402 16.9912 L -0.5664 16.9655 L -0.585398 16.9399 L -0.604394 16.9142 L -0.62339 16.8885 L -0.642385 16.8628 L -0.661379 16.837 L -0.680372 16.8112 L -0.699364 16.7854 L -0.718356 16.7596 L -0.737346 16.7338 L -0.756335 16.7079 L -0.775323 16.682 L -0.79431 16.6561 L -0.813295 16.6301 L -0.83228 16.6042 L -0.851263 16.5782 L -0.870245 16.5521 L -0.889226 16.5261 L -0.908205 16.5 L -0.927183 16.4739 L -0.946159 16.4478 L -0.965135 16.4217 L -0.984108 16.3955 L -1.00308 16.3693 L -1.02205 16.3431 L -1.04102 16.3168 L -1.05999 16.2906 L -1.07895 16.2643 L -1.09792 16.2379 L -1.11688 16.2116 L -1.13584 16.1852 L -1.1548 16.1588 L -1.17375 16.1324 L -1.19271 16.1059 L -1.21166 16.0794 L -1.23061 16.0529 L -1.24956 16.0264 L -1.2685 15.9998 L -1.28745 15.9732 L -1.30639 15.9466 L -1.32533 15.9199 L -1.34427 15.8933 L -1.3632 15.8665 L -1.38214 15.8398 L -1.40107 15.8131 L -1.41999 15.7863 L -1.43892 15.7594 L -1.45784 15.7326 L -1.45784 15.7326 L -1.48137 15.7555 L -1.5049 15.7784 L -1.52843 15.8013 L -1.55196 15.8241 L -1.57548 15.8469 L -1.599 15.8696 L -1.62252 15.8924 L -1.64603 15.9151 L -1.66954 15.9378 L -1.69305 15.9605 L -1.71655 15.9831 L -1.74006 16.0057 L -1.76356 16.0283 L -1.78705 16.0508 L -1.81055 16.0733 L -1.83404 16.0958 L -1.85752 16.1183 L -1.88101 16.1408 L -1.90449 16.1632 L -1.92797 16.1856 L -1.95144 16.2079 L -1.97491 16.2303 L -1.99838 16.2526 L -2.02185 16.2749 L -2.04531 16.2972 L -2.06877 16.3194 L -2.09223 16.3416 L -2.11568 16.3638 L -2.13913 16.386 L -2.16258 16.4081 L -2.18602 16.4302 L -2.20946 16.4523 L -2.2329 16.4744 L -2.25633 16.4964 L -2.27976 16.5184 L -2.30319 16.5404 L -2.32661 16.5624 L -2.35003 16.5843 L -2.37345 16.6062 L -2.39686 16.6281 L -2.42027 16.65 L -2.44368 16.6719 L -2.46708 16.6937 L -2.49048 16.7155 L -2.51387 16.7373 L -2.53727 16.759 L -2.56066 16.7808 L -2.58404 16.8025 L -2.60742 16.8241 L -2.6308 16.8458 L -2.65418 16.8675 L -2.67755 16.8891 L -2.70092 16.9107 L -2.72428 16.9322 L -2.74764 16.9538 L -2.771 16.9753 L -2.79435 16.9968 L -2.8177 17.0183 L -2.84105 17.0398 L -2.86439 17.0612 L -2.88773 17.0826 L -2.91106 17.104 L -2.9344 17.1254 L -2.95772 17.1468 L -2.98105 17.1681 L -3.00437 17.1894 L -3.02769 17.2107 L -3.051 17.232 L -3.07431 17.2532 L -3.09762 17.2745 L -3.12092 17.2957 L -3.14422 17.3169 L -3.16751 17.338 L -3.1908 17.3592 L -3.21409 17.3803 L -3.23737 17.4014 L -3.26065 17.4225 L -3.28393 17.4436 L -3.3072 17.4646 L -3.33047 17.4857 L -3.35374 17.5067 L -3.377 17.5276 L -3.40025 17.5486 L -3.42479 17.5438 L -3.44933 17.539 L -3.47385 17.5342 L -3.49837 17.5293 L -3.52289 17.5244 L -3.54739 17.5195 L -3.57189 17.5145 L -3.59639 17.5095 L -3.62087 17.5044 L -3.64535 17.4993 L -3.66982 17.4942 L -3.69428 17.4891 L -3.71874 17.4839 L -3.74319 17.4787 L -3.76763 17.4734 L -3.79207 17.4681 L -3.81649 17.4628 L -3.84091 17.4575 L -3.86533 17.4521 L -3.88973 17.4467 L -3.91413 17.4412 L -3.93852 17.4357 L -3.9629 17.4302 L -3.98727 17.4246 L -4.01164 17.419 L -4.036 17.4134 L -4.06035 17.4077 L -4.08469 17.402 L -4.10902 17.3963 L -4.13335 17.3905 L -4.15767 17.3847 L -4.18198 17.3789 L -4.20628 17.373 L -4.23058 17.3671 L -4.25486 17.3612 L -4.27914 17.3552 L -4.30341 17.3492 L -4.32767 17.3432 L -4.35192 17.3371 L -4.37616 17.331 L -4.4004 17.3249 L -4.42462 17.3187 L -4.44884 17.3125 L -4.47305 17.3063 L -4.49725 17.3 L -4.52144 17.2937 L -4.54563 17.2874 L -4.5698 17.281 L -4.59396 17.2746 L -4.61812 17.2681 L -4.64227 17.2617 L -4.6664 17.2552 L -4.69053 17.2486 L -4.71465 17.242 L -4.73876 17.2354 L -4.76286 17.2288 L -4.78695 17.2221 L -4.81104 17.2154 L -4.83511 17.2086 L -4.85917 17.2019 L -4.92426 17.1833 L -4.94829 17.1764 L -4.97231 17.1695 L -4.99632 17.1625 L -5.02031 17.1555 L -5.0443 17.1485 L -5.06828 17.1414 L -5.09225 17.1343 L -5.11621 17.1272 L -5.14016 17.12 L -5.1641 17.1128 L -5.18803 17.1056 L -5.21195 17.0983 L -5.23586 17.091 L -5.25975 17.0836 L -5.28364 17.0763 L -5.30752 17.0689 L -5.33139 17.0614 L -5.35524 17.0539 L -5.37909 17.0464 L -5.40293 17.0389 L -5.42675 17.0313 L -5.45057 17.0237 L -5.47437 17.0161 L -5.49816 17.0084 L -5.52195 17.0007 L -5.54572 16.993 L -5.56948 16.9852 L -5.59323 16.9774 L -5.61697 16.9695 L -5.6407 16.9617 L -5.66441 16.9538 L -5.68812 16.9458 L -5.71181 16.9379 L -5.7355 16.9298 L -5.75917 16.9218 L -5.78283 16.9137 L -5.80648 16.9056 L -5.83012 16.8975 L -5.85375 16.8893 L -5.87736 16.8811 L -5.90097 16.8729 L -5.92456 16.8646 L -5.94814 16.8563 L -5.97171 16.848 L -5.99527 16.8396 L -6.01881 16.8312 L -6.04235 16.8228 L -6.06587 16.8143 L -6.08938 16.8058 L -6.11288 16.7973 L -6.13637 16.7887 L -6.15984 16.7801 L -6.1833 16.7715 L -6.20675 16.7628 L -6.23019 16.7541 L -6.25362 16.7454 L -6.27703 16.7366 L -6.30043 16.7278 L -6.32382 16.719 L -6.3472 16.7101 L -6.35594 16.6801 L -6.36466 16.65 L -6.37339 16.6199 L -6.3821 16.5897 L -6.39081 16.5596 L -6.3995 16.5294 L -6.4082 16.4992 L -6.41688 16.469 L -6.42556 16.4388 L -6.43423 16.4086 L -6.44289 16.3783 L -6.45154 16.348 L -6.46019 16.3177 L -6.46883 16.2874 L -6.47746 16.2571 L -6.48608 16.2267 L -6.4947 16.1963 L -6.50331 16.1659 L -6.51191 16.1355 L -6.5205 16.1051 L -6.52908 16.0746 L -6.53766 16.0441 L -6.54622 16.0136 L -6.55478 15.9831 L -6.56333 15.9526 L -6.57187 15.922 L -6.58041 15.8915 L -6.58893 15.8609 L -6.59745 15.8302 L -6.60596 15.7996 L -6.61445 15.7689 L -6.62294 15.7382 L -6.63143 15.7075 L -6.6399 15.6768 L -6.64836 15.6461 L -6.65682 15.6153 L -6.66526 15.5845 L -6.6737 15.5537 L -6.68212 15.5229 L -6.69054 15.492 L -6.69895 15.4611 L -6.70735 15.4302 L -6.71574 15.3993 L -6.72412 15.3684 L -6.73249 15.3374 L -6.74085 15.3064 L -6.7492 15.2754 L -6.75754 15.2444 L -6.76587 15.2133 L -6.77419 15.1823 L -6.7825 15.1512 L -6.7908 15.12 L -6.79909 15.0889 L -6.80737 15.0577 L -6.81564 15.0265 L -6.8239 14.9953 L -6.83215 14.9641 L -6.84039 14.9328 L -6.84862 14.9016 L -6.85683 14.8703 L -6.86504 14.8389 L -6.87323 14.8076 L -6.88142 14.7762 L -6.88959 14.7448 L -6.89775 14.7134 L -6.9059 14.6819 L -6.91404 14.6505 L -6.92217 14.619 L -6.93029 14.5874 L -6.93839 14.5559 L -6.94649 14.5243 L -6.95457 14.4927 L -6.96264 14.4611 L -6.9707 14.4295 L -6.97874 14.3978 L -6.98678 14.3661 L -6.9948 14.3344 L -7.00281 14.3027 L -7.0108 14.2709 L -7.01879 14.2391 L -7.02676 14.2073 L -7.03472 14.1754 L -7.04267 14.1436 L -7.04267 14.1436 L -7.07289 14.1564 L -7.10309 14.1693 L -7.13329 14.1821 L -7.16347 14.1949 L -7.19364 14.2076 L -7.2238 14.2204 L -7.25394 14.2331 L -7.28408 14.2458 L -7.31419 14.2584 L -7.3443 14.2711 L -7.3744 14.2837 L -7.40448 14.2963 L -7.43455 14.3088 L -7.4646 14.3214 L -7.49465 14.3339 L -7.52468 14.3464 L -7.5547 14.3589 L -7.5847 14.3713 L -7.6147 14.3837 L -7.64468 14.3961 L -7.67465 14.4085 L -7.70461 14.4209 L -7.73455 14.4332 L -7.76449 14.4455 L -7.79441 14.4578 L -7.82432 14.4701 L -7.85421 14.4823 L -7.8841 14.4945 L -7.91397 14.5067 L -7.94383 14.5189 L -7.97368 14.531 L -8.00352 14.5432 L -8.03334 14.5553 L -8.06315 14.5674 L -8.09296 14.5794 L -8.12274 14.5915 L -8.15252 14.6035 L -8.18229 14.6155 L -8.21204 14.6275 L -8.24178 14.6394 L -8.27151 14.6514 L -8.30123 14.6633 L -8.33094 14.6752 L -8.36063 14.6871 L -8.39032 14.6989 L -8.41999 14.7108 L -8.44965 14.7226 L -8.4793 14.7344 L -8.50893 14.7461 L -8.53856 14.7579 L -8.56817 14.7696 L -8.59777 14.7813 L -8.62737 14.793 L -8.65695 14.8047 L -8.68651 14.8164 L -8.71607 14.828 L -8.74562 14.8396 L -8.77515 14.8512 L -8.80468 14.8628 L -8.83419 14.8744 L -8.86369 14.8859 L -8.89318 14.8974 L -8.92266 14.909 L -8.95212 14.9204 L -8.98158 14.9319 L -9.01103 14.9434 L -9.04046 14.9548 L -9.06988 14.9662 L -9.0993 14.9776 L -9.1287 14.989 L -9.15809 15.0003 L -9.18747 15.0117 L -9.21684 15.023 L -9.2462 15.0343 L -9.27554 15.0456 L -9.30488 15.0569 L -9.3342 15.0681 L -9.36352 15.0794 L -9.39282 15.0906 L -9.42212 15.1018 L -9.4514 15.113 L -9.48067 15.1241 L -9.50993 15.1353 L -9.53109 15.122 L -9.55223 15.1086 L -9.57335 15.0952 L -9.59446 15.0818 L -9.61554 15.0684 L -9.63661 15.0549 L -9.65765 15.0415 L -9.67868 15.0279 L -9.69969 15.0144 L -9.72068 15.0008 L -9.74165 14.9872 L -9.7626 14.9736 L -9.78353 14.9599 L -9.80445 14.9462 L -9.82534 14.9325 L -9.84622 14.9187 L -9.86707 14.9049 L -9.88791 14.8911 L -9.90873 14.8773 L -9.92952 14.8634 L -9.9503 14.8495 L -9.97106 14.8356 L -9.9918 14.8216 L -10.0125 14.8076 L -10.0332 14.7936 L -10.0539 14.7795 L -10.0746 14.7655 L -10.0952 14.7514 L -10.1158 14.7372 L -10.1364 14.7231 L -10.157 14.7089 L -10.1776 14.6946 L -10.1981 14.6804 L -10.2186 14.6661 L -10.2391 14.6518 L -10.2596 14.6375 L -10.2801 14.6231 L -10.3005 14.6087 L -10.3209 14.5943 L -10.3413 14.5799 L -10.3617 14.5654 L -10.3821 14.5509 L -10.4024 14.5363 L -10.4227 14.5218 L -10.443 14.5072 L -10.4633 14.4926 L -10.4836 14.4779 L -10.5038 14.4632 L -10.524 14.4485 L -10.5442 14.4338 L -10.5644 14.419 L -10.5846 14.4043 L -10.6047 14.3894 L -10.6248 14.3746 L -10.6449 14.3597 L -10.665 14.3448 L -10.685 14.3299 L -10.7051 14.3149 L -10.7251 14.2999 L -10.7451 14.2849 L -10.7991 14.2441 L -10.819 14.229 L -10.8389 14.2139 L -10.8587 14.1987 L -10.8786 14.1835 L -10.8984 14.1683 L -10.9182 14.153 L -10.938 14.1377 L -10.9578 14.1224 L -10.9775 14.1071 L -10.9972 14.0917 L -11.0169 14.0763 L -11.0366 14.0609 L -11.0563 14.0455 L -11.0759 14.03 L -11.0955 14.0145 L -11.1151 13.9989 L -11.1347 13.9834 L -11.1542 13.9678 L -11.1737 13.9522 L -11.1932 13.9365 L -11.2127 13.9209 L -11.2322 13.9052 L -11.2516 13.8894 L -11.271 13.8737 L -11.2904 13.8579 L -11.3098 13.8421 L -11.3291 13.8263 L -11.3485 13.8104 L -11.3678 13.7945 L -11.3871 13.7786 L -11.4063 13.7627 L -11.4256 13.7467 L -11.4448 13.7307 L -11.464 13.7147 L -11.4831 13.6987 L -11.5023 13.6826 L -11.5214 13.6665 L -11.5405 13.6504 L -11.5596 13.6342 L -11.5786 13.618 L -11.5977 13.6018 L -11.6167 13.5856 L -11.6357 13.5693 L -11.6546 13.553 L -11.6736 13.5367 L -11.6925 13.5204 L -11.7114 13.504 L -11.7303 13.4876 L -11.7491 13.4712 L -11.768 13.4548 L -11.7868 13.4383 L -11.8056 13.4218 L -11.8243 13.4053 L -11.8431 13.3887 L -11.8618 13.3721 L -11.8805 13.3555 L -11.8991 13.3389 L -11.9178 13.3223 L -11.9364 13.3056 L -11.955 13.2889 L -11.9523 13.2577 L -11.9495 13.2265 L -11.9468 13.1952 L -11.944 13.164 L -11.9413 13.1327 L -11.9385 13.1015 L -11.9357 13.0702 L -11.9329 13.0389 L -11.93 13.0076 L -11.9272 12.9762 L -11.9243 12.9449 L -11.9215 12.9135 L -11.9186 12.8821 L -11.9157 12.8508 L -11.9128 12.8193 L -11.9099 12.7879 L -11.9069 12.7565 L -11.904 12.725 L -11.901 12.6936 L -11.898 12.6621 L -11.895 12.6306 L -11.892 12.599 L -11.889 12.5675 L -11.8859 12.536 L -11.8829 12.5044 L -11.8798 12.4728 L -11.8767 12.4412 L -11.8736 12.4096 L -11.8705 12.378 L -11.8673 12.3463 L -11.8642 12.3147 L -11.861 12.283 L -11.8578 12.2513 L -11.8546 12.2196 L -11.8514 12.1879 L -11.8482 12.1561 L -11.8449 12.1243 L -11.8417 12.0926 L -11.8384 12.0608 L -11.8351 12.029 L -11.8318 11.9971 L -11.8285 11.9653 L -11.8251 11.9334 L -11.8217 11.9015 L -11.8184 11.8697 L -11.815 11.8377 L -11.8116 11.8058 L -11.8081 11.7739 L -11.8047 11.7419 L -11.8012 11.7099 L -11.7977 11.6779 L -11.7942 11.6459 L -11.7907 11.6139 L -11.7872 11.5818 L -11.7836 11.5497 L -11.78 11.5177 L -11.7764 11.4855 L -11.7728 11.4534 L -11.7692 11.4213 L -11.7656 11.3891 L -11.7619 11.3569 L -11.7582 11.3248 L -11.7545 11.2925 L -11.7508 11.2603 L -11.747 11.2281 L -11.7433 11.1958 L -11.7395 11.1635 L -11.7357 11.1312 L -11.7319 11.0989 L -11.7281 11.0665 L -11.7242 11.0342 L -11.7203 11.0018 L -11.7164 10.9694 L -11.7125 10.937 L -11.7086 10.9046 L -11.7046 10.8721 L -11.7006 10.8396 L -11.6966 10.8071 L -11.6926 10.7746 L -11.6886 10.7421 L -11.6845 10.7095 L -11.6804 10.677 L -11.6763 10.6444 L -11.6763 10.6444 L -11.7092 10.6455 L -11.742 10.6465 L -11.7748 10.6476 L -11.8075 10.6486 L -11.8403 10.6496 L -11.873 10.6506 L -11.9057 10.6515 L -11.9384 10.6525 L -11.971 10.6534 L -12.0037 10.6543 L -12.0363 10.6552 L -12.0689 10.6561 L -12.1015 10.6569 L -12.134 10.6578 L -12.1666 10.6586 L -12.1991 10.6594 L -12.2316 10.6602 L -12.264 10.6609 L -12.2965 10.6617 L -12.3289 10.6624 L -12.3614 10.6631 L -12.3938 10.6638 L -12.4261 10.6645 L -12.4585 10.6652 L -12.4908 10.6658 L -12.5231 10.6665 L -12.5554 10.6671 L -12.5877 10.6677 L -12.62 10.6682 L -12.6522 10.6688 L -12.6845 10.6694 L -12.7167 10.6699 L -12.7488 10.6704 L -12.781 10.6709 L -12.8132 10.6714 L -12.8453 10.6719 L -12.8774 10.6723 L -12.9095 10.6728 L -12.9416 10.6732 L -12.9736 10.6736 L -13.0056 10.674 L -13.0377 10.6744 L -13.0697 10.6747 L -13.1016 10.6751 L -13.1336 10.6754 L -13.1655 10.6757 L -13.1975 10.676 L -13.2294 10.6763 L -13.2613 10.6766 L -13.2931 10.6768 L -13.325 10.6771 L -13.3568 10.6773 L -13.3886 10.6775 L -13.4204 10.6777 L -13.4522 10.6779 L -13.484 10.6781 L -13.5157 10.6783 L -13.5475 10.6784 L -13.5792 10.6785 L -13.6109 10.6787 L -13.6426 10.6788 L -13.6742 10.6789 L -13.7059 10.6789 L -13.7375 10.679 L -13.7691 10.6791 L -13.8007 10.6791 L -13.8323 10.6791 L -13.8638 10.6791 L -13.8954 10.6791 L -13.9269 10.6791 L -13.9584 10.6791 L -13.9899 10.6791 L -14.0214 10.679 L -14.0528 10.679 L -14.0843 10.6789 L -14.1157 10.6788 L -14.1471 10.6787 L -14.1785 10.6786 L -14.2099 10.6785 L -14.2413 10.6783 L -14.2726 10.6782 L -14.3039 10.678 L -14.3352 10.6778 L -14.3502 10.6578 L -14.3651 10.6377 L -14.3799 10.6176 L -14.3948 10.5975 L -14.4096 10.5773 L -14.4243 10.5572 L -14.4391 10.537 L -14.4538 10.5168 L -14.4685 10.4966 L -14.4832 10.4763 L -14.4978 10.456 L -14.5124 10.4358 L -14.527 10.4155 L -14.5416 10.3951 L -14.5561 10.3748 L -14.5706 10.3544 L -14.585 10.334 L -14.5995 10.3136 L -14.6139 10.2932 L -14.6283 10.2727 L -14.6426 10.2523 L -14.657 10.2318 L -14.6713 10.2113 L -14.6855 10.1907 L -14.6998 10.1702 L -14.714 10.1496 L -14.7281 10.129 L -14.7423 10.1084 L -14.7564 10.0878 L -14.7705 10.0671 L -14.7846 10.0465 L -14.7986 10.0258 L -14.8126 10.0051 L -14.8266 9.98436 L -14.8406 9.96361 L -14.8545 9.94285 L -14.8684 9.92206 L -14.8822 9.90126 L -14.8961 9.88043 L -14.9099 9.85959 L -14.9236 9.83873 L -14.9374 9.81784 L -14.9511 9.79694 L -14.9648 9.77602 L -14.9785 9.75508 L -14.9921 9.73412 L -15.0057 9.71315 L -15.0192 9.69215 L -15.0328 9.67114 L -15.0463 9.6501 L -15.0598 9.62905 L -15.0732 9.60798 L -15.0867 9.58688 L -15.1001 9.56578 L -15.1134 9.54465 L -15.1268 9.5235 L -15.1401 9.50233 L -15.1533 9.48115 L -15.1666 9.45995 L -15.1798 9.43873 L -15.2154 9.38119 L -15.2285 9.3599 L -15.2416 9.33859 L -15.2546 9.31727 L -15.2677 9.29592 L -15.2806 9.27456 L -15.2936 9.25318 L -15.3065 9.23178 L -15.3194 9.21036 L -15.3323 9.18893 L -15.3451 9.16748 L -15.3579 9.14601 L -15.3707 9.12452 L -15.3835 9.10301 L -15.3962 9.08149 L -15.4089 9.05994 L -15.4215 9.03838 L -15.4341 9.01681 L -15.4467 8.99521 L -15.4593 8.9736 L -15.4718 8.95197 L -15.4843 8.93032 L -15.4968 8.90866 L -15.5093 8.88697 L -15.5217 8.86527 L -15.5341 8.84356 L -15.5464 8.82182 L -15.5587 8.80007 L -15.571 8.7783 L -15.5833 8.75651 L -15.5955 8.73471 L -15.6077 8.71289 L -15.6199 8.69105 L -15.632 8.6692 L -15.6441 8.64733 L -15.6562 8.62544 L -15.6683 8.60353 L -15.6803 8.58161 L -15.6923 8.55967 L -15.7042 8.53772 L -15.7162 8.51575 L -15.7281 8.49376 L -15.7399 8.47175 L -15.7518 8.44973 L -15.7636 8.42769 L -15.7753 8.40563 L -15.7871 8.38356 L -15.7988 8.36147 L -15.8105 8.33937 L -15.8221 8.31725 L -15.8337 8.29511 L -15.8453 8.27296 L -15.8569 8.25079 L -15.8684 8.2286 L -15.8799 8.2064 L -15.8913 8.18419 L -15.9028 8.16195 L -15.9142 8.1397 L -15.9255 8.11744 L -15.9369 8.09516 L -15.9482 8.07286 L -15.9344 8.04475 L -15.9206 8.01663 L -15.9067 7.98851 L -15.8929 7.96037 L -15.879 7.93223 L -15.8651 7.90408 L -15.8512 7.87591 L -15.8373 7.84774 L -15.8233 7.81956 L -15.8093 7.79137 L -15.7954 7.76317 L -15.7813 7.73497 L -15.7673 7.70675 L -15.7533 7.67852 L -15.7392 7.65029 L -15.7251 7.62204 L -15.711 7.59379 L -15.6969 7.56552 L -15.6828 7.53725 L -15.6686 7.50897 L -15.6545 7.48068 L -15.6403 7.45238 L -15.626 7.42407 L -15.6118 7.39575 L -15.5976 7.36742 L -15.5833 7.33908 L -15.569 7.31073 L -15.5547 7.28238 L -15.5403 7.25401 L -15.526 7.22563 L -15.5116 7.19725 L -15.4972 7.16885 L -15.4828 7.14045 L -15.4683 7.11203 L -15.4539 7.08361 L -15.4394 7.05517 L -15.4249 7.02673 L -15.4104 6.99828 L -15.3958 6.96982 L -15.3813 6.94134 L -15.3667 6.91286 L -15.3521 6.88437 L -15.3374 6.85587 L -15.3228 6.82736 L -15.3081 6.79884 L -15.2934 6.7703 L -15.2787 6.74176 L -15.264 6.71321 L -15.2492 6.68465 L -15.2344 6.65608 L -15.2196 6.6275 L -15.2048 6.59891 L -15.1899 6.57031 L -15.175 6.5417 L -15.1601 6.51308 L -15.1452 6.48445 L -15.1303 6.45581 L -15.1153 6.42716 L -15.1003 6.3985 L -15.0853 6.36983 L -15.0702 6.34115 L -15.0552 6.31246 L -15.0401 6.28376 L -15.025 6.25505 L -15.0098 6.22633 L -14.9947 6.1976 L -14.9795 6.16886 L -14.9643 6.14011 L -14.949 6.11135 L -14.9338 6.08258 L -14.9185 6.0538 L -14.9032 6.025 L -14.8878 5.9962 L -14.8725 5.96739 L -14.8571 5.93857 L -14.8417 5.90974 L -14.8262 5.88089 L -14.8108 5.85204 L -14.7953 5.82318 L -14.7798 5.7943 L -14.7642 5.76542 L -14.7487 5.73652 L -14.7331 5.70762 L -14.7331 5.70762 L -14.7641 5.69677 L -14.795 5.6859 L -14.826 5.67503 L -14.8569 5.66414 L -14.8878 5.65325 L -14.9187 5.64235 L -14.9495 5.63143 L -14.9803 5.62051 L -15.0111 5.60957 L -15.0419 5.59863 L -15.0726 5.58768 L -15.1033 5.57672 L -15.134 5.56575 L -15.1647 5.55476 L -15.1953 5.54377 L -15.2259 5.53278 L -15.2565 5.52177 L -15.2871 5.51075 L -15.3176 5.49972 L -15.3481 5.48869 L -15.3786 5.47764 L -15.4091 5.46659 L -15.4395 5.45553 L -15.4699 5.44446 L -15.5003 5.43338 L -15.5307 5.42229 L -15.561 5.4112 L -15.5913 5.40009 L -15.6216 5.38898 L -15.6519 5.37786 L -15.6821 5.36673 L -15.7123 5.3556 L -15.7425 5.34445 L -15.7727 5.3333 L -15.8029 5.32214 L -15.833 5.31097 L -15.8631 5.29979 L -15.8932 5.28861 L -15.9232 5.27742 L -15.9533 5.26622 L -15.9833 5.25501 L -16.0133 5.2438 L -16.0432 5.23258 L -16.0732 5.22135 L -16.1031 5.21011 L -16.133 5.19887 L -16.1629 5.18762 L -16.1928 5.17636 L -16.2226 5.1651 L -16.2524 5.15383 L -16.2822 5.14255 L -16.312 5.13126 L -16.3417 5.11997 L -16.3714 5.10867 L -16.4011 5.09737 L -16.4308 5.08606 L -16.4605 5.07474 L -16.4901 5.06341 L -16.5197 5.05208 L -16.5493 5.04074 L -16.5789 5.0294 L -16.6085 5.01805 L -16.638 5.00669 L -16.6675 4.99533 L -16.697 4.98396 L -16.7265 4.97258 L -16.756 4.9612 L -16.7854 4.94982 L -16.8148 4.93842 L -16.8442 4.92702 L -16.8736 4.91562 L -16.9029 4.90421 L -16.9323 4.89279 L -16.9616 4.88137 L -16.9909 4.86994 L -17.0201 4.8585 L -17.0494 4.84706 L -17.0786 4.83562 L -17.1078 4.82417 L -17.137 4.81271 L -17.1662 4.80125 L -17.1954 4.78978 L -17.2245 4.77831 L -17.2312 4.75421 L -17.2378 4.73011 L -17.2444 4.706 L -17.251 4.68187 L -17.2575 4.65774 L -17.264 4.6336 L -17.2705 4.60945 L -17.2769 4.58529 L -17.2833 4.56112 L -17.2896 4.53695 L -17.296 4.51276 L -17.3023 4.48857 L -17.3085 4.46436 L -17.3148 4.44015 L -17.3209 4.41593 L -17.3271 4.3917 L -17.3332 4.36746 L -17.3393 4.34322 L -17.3454 4.31896 L -17.3514 4.2947 L -17.3574 4.27043 L -17.3633 4.24615 L -17.3693 4.22186 L -17.3752 4.19756 L -17.381 4.17326 L -17.3868 4.14894 L -17.3926 4.12462 L -17.3984 4.10029 L -17.4041 4.07595 L -17.4098 4.05161 L -17.4154 4.02726 L -17.421 4.00289 L -17.4266 3.97852 L -17.4322 3.95415 L -17.4377 3.92976 L -17.4432 3.90537 L -17.4486 3.88097 L -17.454 3.85656 L -17.4594 3.83215 L -17.4647 3.80773 L -17.47 3.7833 L -17.4753 3.75886 L -17.4806 3.73441 L -17.4858 3.70996 L -17.4909 3.6855 L -17.4961 3.66104 L -17.5012 3.63656 L -17.5062 3.61208 L -17.5113 3.5876 L -17.5163 3.5631 L -17.5212 3.5386 L -17.5262 3.51409 L -17.5311 3.48957 L -17.5359 3.46505 L -17.5408 3.44052 L -17.5456 3.41599 L -17.5503 3.39144 L -17.555 3.3669 L -17.5597 3.34234 L -17.5644 3.31778 L -17.5768 3.25126 L -17.5814 3.22667 L -17.5859 3.20208 L -17.5903 3.17748 L -17.5947 3.15287 L -17.5991 3.12826 L -17.6035 3.10365 L -17.6078 3.07902 L -17.6121 3.05439 L -17.6164 3.02976 L -17.6206 3.00512 L -17.6248 2.98047 L -17.6289 2.95582 L -17.633 2.93116 L -17.6371 2.90649 L -17.6412 2.88182 L -17.6452 2.85715 L -17.6492 2.83247 L -17.6531 2.80778 L -17.657 2.78309 L -17.6609 2.75839 L -17.6647 2.73369 L -17.6685 2.70898 L -17.6723 2.68426 L -17.676 2.65954 L -17.6797 2.63482 L -17.6834 2.61009 L -17.687 2.58536 L -17.6906 2.56062 L -17.6942 2.53587 L -17.6977 2.51112 L -17.7012 2.48637 L -17.7047 2.46161 L -17.7081 2.43684 L -17.7115 2.41207 L -17.7149 2.3873 L -17.7182 2.36252 L -17.7215 2.33774 L -17.7247 2.31295 L -17.7279 2.28816 L -17.7311 2.26336 L -17.7343 2.23856 L -17.7374 2.21376 L -17.7405 2.18895 L -17.7435 2.16413 L -17.7465 2.13932 L -17.7495 2.11449 L -17.7524 2.08967 L -17.7553 2.06484 L -17.7582 2.04 L -17.761 2.01516 L -17.7638 1.99032 L -17.7666 1.96547 L -17.7693 1.94062 L -17.772 1.91577 L -17.7747 1.89091 L -17.7773 1.86605 L -17.7799 1.84118 L -17.7825 1.81632 L -17.785 1.79144 L -17.7875 1.76657 L -17.7645 1.74534 L -17.7414 1.72412 L -17.7184 1.70289 L -17.6953 1.68166 L -17.6722 1.66043 L -17.649 1.6392 L -17.6259 1.61796 L -17.6027 1.59673 L -17.5795 1.57549 L -17.5563 1.55425 L -17.5331 1.533 L -17.5099 1.51176 L -17.4866 1.49051 L -17.4633 1.46927 L -17.44 1.44802 L -17.4167 1.42677 L -17.3933 1.40551 L -17.3699 1.38426 L -17.3465 1.363 L -17.3231 1.34174 L -17.2997 1.32048 L -17.2762 1.29922 L -17.2527 1.27796 L -17.2292 1.25669 L -17.2057 1.23543 L -17.1822 1.21416 L -17.1586 1.19289 L -17.135 1.17162 L -17.1114 1.15035 L -17.0877 1.12907 L -17.0641 1.1078 L -17.0404 1.08652 L -17.0167 1.06524 L -16.993 1.04396 L -16.9692 1.02268 L -16.9454 1.0014 L -16.9216 0.980115 L -16.8978 0.95883 L -16.874 0.937543 L -16.8501 0.916255 L -16.8262 0.894966 L -16.8023 0.873675 L -16.7784 0.852384 L -16.7544 0.831091 L -16.7304 0.809797 L -16.7064 0.788501 L -16.6824 0.767205 L -16.6583 0.745907 L -16.6342 0.724608 L -16.6101 0.703309 L -16.586 0.682008 L -16.5618 0.660706 L -16.5376 0.639403 L -16.5134 0.618099 L -16.4892 0.596795 L -16.4649 0.575489 L -16.4407 0.554182 L -16.4164 0.532875 L -16.392 0.511567 L -16.3677 0.490258 L -16.3433 0.468948 L -16.3189 0.447638 L -16.2944 0.426326 L -16.27 0.405014 L -16.2455 0.383702 L -16.221 0.362389 L -16.1964 0.341075 L -16.1718 0.31976 L -16.1472 0.298445 L -16.1226 0.27713 L -16.098 0.255814 L -16.0733 0.234498 L -16.0486 0.213181 L -16.0239 0.191864 L -15.9991 0.170547 L -15.9743 0.149229 L -15.9495 0.127911 L -15.9246 0.106593 L -15.8998 0.0852746 L -15.8749 0.0639561 L -15.8499 0.0426374 L -15.825 0.0213187 L -15.8 4.44089e-16 L -15.8 3.42579e-15 L -15.825 -0.0213187 L -15.8499 -0.0426374 L -15.8749 -0.0639561 L -15.8998 -0.0852746 L -15.9246 -0.106593 L -15.9495 -0.127911 L -15.9743 -0.149229 L -15.9991 -0.170547 L -16.0239 -0.191864 L -16.0486 -0.213181 L -16.0733 -0.234498 L -16.098 -0.255814 L -16.1226 -0.27713 L -16.1472 -0.298445 L -16.1718 -0.31976 L -16.1964 -0.341075 L -16.221 -0.362389 L -16.2455 -0.383702 L -16.27 -0.405014 L -16.2944 -0.426326 L -16.3189 -0.447638 L -16.3433 -0.468948 L -16.3677 -0.490258 L -16.392 -0.511567 L -16.4164 -0.532875 L -16.4407 -0.554182 L -16.4649 -0.575489 L -16.4892 -0.596795 L -16.5134 -0.618099 L -16.5376 -0.639403 L -16.5618 -0.660706 L -16.586 -0.682008 L -16.6101 -0.703309 L -16.6342 -0.724608 L -16.6583 -0.745907 L -16.6824 -0.767205 L -16.7064 -0.788501 L -16.7304 -0.809797 L -16.7544 -0.831091 L -16.7784 -0.852384 L -16.8023 -0.873675 L -16.8262 -0.894966 L -16.8501 -0.916255 L -16.874 -0.937543 L -16.8978 -0.95883 L -16.9216 -0.980115 L -16.9454 -1.0014 L -16.9692 -1.02268 L -16.993 -1.04396 L -17.0167 -1.06524 L -17.0404 -1.08652 L -17.0641 -1.1078 L -17.0877 -1.12907 L -17.1114 -1.15035 L -17.135 -1.17162 L -17.1586 -1.19289 L -17.1822 -1.21416 L -17.2057 -1.23543 L -17.2292 -1.25669 L -17.2527 -1.27796 L -17.2762 -1.29922 L -17.2997 -1.32048 L -17.3231 -1.34174 L -17.3465 -1.363 L -17.3699 -1.38426 L -17.3933 -1.40551 L -17.4167 -1.42677 L -17.44 -1.44802 L -17.4633 -1.46927 L -17.4866 -1.49051 L -17.5099 -1.51176 L -17.5331 -1.533 L -17.5563 -1.55425 L -17.5795 -1.57549 L -17.6027 -1.59673 L -17.6259 -1.61796 L -17.649 -1.6392 L -17.6722 -1.66043 L -17.6953 -1.68166 L -17.7184 -1.70289 L -17.7414 -1.72412 L -17.7645 -1.74534 L -17.7875 -1.76657 L -17.785 -1.79144 L -17.7825 -1.81632 L -17.7799 -1.84118 L -17.7773 -1.86605 L -17.7747 -1.89091 L -17.772 -1.91577 L -17.7693 -1.94062 L -17.7666 -1.96547 L -17.7638 -1.99032 L -17.761 -2.01516 L -17.7582 -2.04 L -17.7553 -2.06484 L -17.7524 -2.08967 L -17.7495 -2.11449 L -17.7465 -2.13932 L -17.7435 -2.16413 L -17.7405 -2.18895 L -17.7374 -2.21376 L -17.7343 -2.23856 L -17.7311 -2.26336 L -17.7279 -2.28816 L -17.7247 -2.31295 L -17.7215 -2.33774 L -17.7182 -2.36252 L -17.7149 -2.3873 L -17.7115 -2.41207 L -17.7081 -2.43684 L -17.7047 -2.46161 L -17.7012 -2.48637 L -17.6977 -2.51112 L -17.6942 -2.53587 L -17.6906 -2.56062 L -17.687 -2.58536 L -17.6834 -2.61009 L -17.6797 -2.63482 L -17.676 -2.65954 L -17.6723 -2.68426 L -17.6685 -2.70898 L -17.6647 -2.73369 L -17.6609 -2.75839 L -17.657 -2.78309 L -17.6531 -2.80778 L -17.6492 -2.83247 L -17.6452 -2.85715 L -17.6412 -2.88182 L -17.6371 -2.90649 L -17.633 -2.93116 L -17.6289 -2.95582 L -17.6248 -2.98047 L -17.6206 -3.00512 L -17.6164 -3.02976 L -17.6121 -3.05439 L -17.6078 -3.07902 L -17.6035 -3.10365 L -17.5991 -3.12826 L -17.5947 -3.15287 L -17.5903 -3.17748 L -17.5859 -3.20208 L -17.5814 -3.22667 L -17.5768 -3.25126 L -17.5644 -3.31778 L -17.5597 -3.34234 L -17.555 -3.3669 L -17.5503 -3.39144 L -17.5456 -3.41599 L -17.5408 -3.44052 L -17.5359 -3.46505 L -17.5311 -3.48957 L -17.5262 -3.51409 L -17.5212 -3.5386 L -17.5163 -3.5631 L -17.5113 -3.5876 L -17.5062 -3.61208 L -17.5012 -3.63656 L -17.4961 -3.66104 L -17.4909 -3.6855 L -17.4858 -3.70996 L -17.4806 -3.73441 L -17.4753 -3.75886 L -17.47 -3.7833 L -17.4647 -3.80773 L -17.4594 -3.83215 L -17.454 -3.85656 L -17.4486 -3.88097 L -17.4432 -3.90537 L -17.4377 -3.92976 L -17.4322 -3.95415 L -17.4266 -3.97852 L -17.421 -4.00289 L -17.4154 -4.02726 L -17.4098 -4.05161 L -17.4041 -4.07595 L -17.3984 -4.10029 L -17.3926 -4.12462 L -17.3868 -4.14894 L -17.381 -4.17326 L -17.3752 -4.19756 L -17.3693 -4.22186 L -17.3633 -4.24615 L -17.3574 -4.27043 L -17.3514 -4.2947 L -17.3454 -4.31896 L -17.3393 -4.34322 L -17.3332 -4.36746 L -17.3271 -4.3917 L -17.3209 -4.41593 L -17.3148 -4.44015 L -17.3085 -4.46436 L -17.3023 -4.48857 L -17.296 -4.51276 L -17.2896 -4.53695 L -17.2833 -4.56112 L -17.2769 -4.58529 L -17.2705 -4.60945 L -17.264 -4.6336 L -17.2575 -4.65774 L -17.251 -4.68187 L -17.2444 -4.706 L -17.2378 -4.73011 L -17.2312 -4.75421 L -17.2245 -4.77831 L -17.1954 -4.78978 L -17.1662 -4.80125 L -17.137 -4.81271 L -17.1078 -4.82417 L -17.0786 -4.83562 L -17.0494 -4.84706 L -17.0201 -4.8585 L -16.9909 -4.86994 L -16.9616 -4.88137 L -16.9323 -4.89279 L -16.9029 -4.90421 L -16.8736 -4.91562 L -16.8442 -4.92702 L -16.8148 -4.93842 L -16.7854 -4.94982 L -16.756 -4.9612 L -16.7265 -4.97258 L -16.697 -4.98396 L -16.6675 -4.99533 L -16.638 -5.00669 L -16.6085 -5.01805 L -16.5789 -5.0294 L -16.5493 -5.04074 L -16.5197 -5.05208 L -16.4901 -5.06341 L -16.4605 -5.07474 L -16.4308 -5.08606 L -16.4011 -5.09737 L -16.3714 -5.10867 L -16.3417 -5.11997 L -16.312 -5.13126 L -16.2822 -5.14255 L -16.2524 -5.15383 L -16.2226 -5.1651 L -16.1928 -5.17636 L -16.1629 -5.18762 L -16.133 -5.19887 L -16.1031 -5.21011 L -16.0732 -5.22135 L -16.0432 -5.23258 L -16.0133 -5.2438 L -15.9833 -5.25501 L -15.9533 -5.26622 L -15.9232 -5.27742 L -15.8932 -5.28861 L -15.8631 -5.29979 L -15.833 -5.31097 L -15.8029 -5.32214 L -15.7727 -5.3333 L -15.7425 -5.34445 L -15.7123 -5.3556 L -15.6821 -5.36673 L -15.6519 -5.37786 L -15.6216 -5.38898 L -15.5913 -5.40009 L -15.561 -5.4112 L -15.5307 -5.42229 L -15.5003 -5.43338 L -15.4699 -5.44446 L -15.4395 -5.45553 L -15.4091 -5.46659 L -15.3786 -5.47764 L -15.3481 -5.48869 L -15.3176 -5.49972 L -15.2871 -5.51075 L -15.2565 -5.52177 L -15.2259 -5.53278 L -15.1953 -5.54377 L -15.1647 -5.55476 L -15.134 -5.56575 L -15.1033 -5.57672 L -15.0726 -5.58768 L -15.0419 -5.59863 L -15.0111 -5.60957 L -14.9803 -5.62051 L -14.9495 -5.63143 L -14.9187 -5.64235 L -14.8878 -5.65325 L -14.8569 -5.66414 L -14.826 -5.67503 L -14.795 -5.6859 L -14.7641 -5.69677 L -14.7331 -5.70762 L -14.7331 -5.70762 L -14.7487 -5.73652 L -14.7642 -5.76542 L -14.7798 -5.7943 L -14.7953 -5.82318 L -14.8108 -5.85204 L -14.8262 -5.88089 L -14.8417 -5.90974 L -14.8571 -5.93857 L -14.8725 -5.96739 L -14.8878 -5.9962 L -14.9032 -6.025 L -14.9185 -6.0538 L -14.9338 -6.08258 L -14.949 -6.11135 L -14.9643 -6.14011 L -14.9795 -6.16886 L -14.9947 -6.1976 L -15.0098 -6.22633 L -15.025 -6.25505 L -15.0401 -6.28376 L -15.0552 -6.31246 L -15.0702 -6.34115 L -15.0853 -6.36983 L -15.1003 -6.3985 L -15.1153 -6.42716 L -15.1303 -6.45581 L -15.1452 -6.48445 L -15.1601 -6.51308 L -15.175 -6.5417 L -15.1899 -6.57031 L -15.2048 -6.59891 L -15.2196 -6.6275 L -15.2344 -6.65608 L -15.2492 -6.68465 L -15.264 -6.71321 L -15.2787 -6.74176 L -15.2934 -6.7703 L -15.3081 -6.79884 L -15.3228 -6.82736 L -15.3374 -6.85587 L -15.3521 -6.88437 L -15.3667 -6.91286 L -15.3813 -6.94134 L -15.3958 -6.96982 L -15.4104 -6.99828 L -15.4249 -7.02673 L -15.4394 -7.05517 L -15.4539 -7.08361 L -15.4683 -7.11203 L -15.4828 -7.14045 L -15.4972 -7.16885 L -15.5116 -7.19725 L -15.526 -7.22563 L -15.5403 -7.25401 L -15.5547 -7.28238 L -15.569 -7.31073 L -15.5833 -7.33908 L -15.5976 -7.36742 L -15.6118 -7.39575 L -15.626 -7.42407 L -15.6403 -7.45238 L -15.6545 -7.48068 L -15.6686 -7.50897 L -15.6828 -7.53725 L -15.6969 -7.56552 L -15.711 -7.59379 L -15.7251 -7.62204 L -15.7392 -7.65029 L -15.7533 -7.67852 L -15.7673 -7.70675 L -15.7813 -7.73497 L -15.7954 -7.76317 L -15.8093 -7.79137 L -15.8233 -7.81956 L -15.8373 -7.84774 L -15.8512 -7.87591 L -15.8651 -7.90408 L -15.879 -7.93223 L -15.8929 -7.96037 L -15.9067 -7.98851 L -15.9206 -8.01663 L -15.9344 -8.04475 L -15.9482 -8.07286 L -15.9369 -8.09516 L -15.9255 -8.11744 L -15.9142 -8.1397 L -15.9028 -8.16195 L -15.8913 -8.18419 L -15.8799 -8.2064 L -15.8684 -8.2286 L -15.8569 -8.25079 L -15.8453 -8.27296 L -15.8337 -8.29511 L -15.8221 -8.31725 L -15.8105 -8.33937 L -15.7988 -8.36147 L -15.7871 -8.38356 L -15.7753 -8.40563 L -15.7636 -8.42769 L -15.7518 -8.44973 L -15.7399 -8.47175 L -15.7281 -8.49376 L -15.7162 -8.51575 L -15.7042 -8.53772 L -15.6923 -8.55967 L -15.6803 -8.58161 L -15.6683 -8.60353 L -15.6562 -8.62544 L -15.6441 -8.64733 L -15.632 -8.6692 L -15.6199 -8.69105 L -15.6077 -8.71289 L -15.5955 -8.73471 L -15.5833 -8.75651 L -15.571 -8.7783 L -15.5587 -8.80007 L -15.5464 -8.82182 L -15.5341 -8.84356 L -15.5217 -8.86527 L -15.5093 -8.88697 L -15.4968 -8.90866 L -15.4843 -8.93032 L -15.4718 -8.95197 L -15.4593 -8.9736 L -15.4467 -8.99521 L -15.4341 -9.01681 L -15.4215 -9.03838 L -15.4089 -9.05994 L -15.3962 -9.08149 L -15.3835 -9.10301 L -15.3707 -9.12452 L -15.3579 -9.14601 L -15.3451 -9.16748 L -15.3323 -9.18893 L -15.3194 -9.21036 L -15.3065 -9.23178 L -15.2936 -9.25318 L -15.2806 -9.27456 L -15.2677 -9.29592 L -15.2546 -9.31727 L -15.2416 -9.33859 L -15.2285 -9.3599 L -15.2154 -9.38119 L -15.1798 -9.43873 L -15.1666 -9.45995 L -15.1533 -9.48115 L -15.1401 -9.50233 L -15.1268 -9.5235 L -15.1134 -9.54465 L -15.1001 -9.56578 L -15.0867 -9.58688 L -15.0732 -9.60798 L -15.0598 -9.62905 L -15.0463 -9.6501 L -15.0328 -9.67114 L -15.0192 -9.69215 L -15.0057 -9.71315 L -14.9921 -9.73412 L -14.9785 -9.75508 L -14.9648 -9.77602 L -14.9511 -9.79694 L -14.9374 -9.81784 L -14.9236 -9.83873 L -14.9099 -9.85959 L -14.8961 -9.88043 L -14.8822 -9.90126 L -14.8684 -9.92206 L -14.8545 -9.94285 L -14.8406 -9.96361 L -14.8266 -9.98436 L -14.8126 -10.0051 L -14.7986 -10.0258 L -14.7846 -10.0465 L -14.7705 -10.0671 L -14.7564 -10.0878 L -14.7423 -10.1084 L -14.7281 -10.129 L -14.714 -10.1496 L -14.6998 -10.1702 L -14.6855 -10.1907 L -14.6713 -10.2113 L -14.657 -10.2318 L -14.6426 -10.2523 L -14.6283 -10.2727 L -14.6139 -10.2932 L -14.5995 -10.3136 L -14.585 -10.334 L -14.5706 -10.3544 L -14.5561 -10.3748 L -14.5416 -10.3951 L -14.527 -10.4155 L -14.5124 -10.4358 L -14.4978 -10.456 L -14.4832 -10.4763 L -14.4685 -10.4966 L -14.4538 -10.5168 L -14.4391 -10.537 L -14.4243 -10.5572 L -14.4096 -10.5773 L -14.3948 -10.5975 L -14.3799 -10.6176 L -14.3651 -10.6377 L -14.3502 -10.6578 L -14.3352 -10.6778 L -14.3039 -10.678 L -14.2726 -10.6782 L -14.2413 -10.6783 L -14.2099 -10.6785 L -14.1785 -10.6786 L -14.1471 -10.6787 L -14.1157 -10.6788 L -14.0843 -10.6789 L -14.0528 -10.679 L -14.0214 -10.679 L -13.9899 -10.6791 L -13.9584 -10.6791 L -13.9269 -10.6791 L -13.8954 -10.6791 L -13.8638 -10.6791 L -13.8323 -10.6791 L -13.8007 -10.6791 L -13.7691 -10.6791 L -13.7375 -10.679 L -13.7059 -10.6789 L -13.6742 -10.6789 L -13.6426 -10.6788 L -13.6109 -10.6787 L -13.5792 -10.6785 L -13.5475 -10.6784 L -13.5157 -10.6783 L -13.484 -10.6781 L -13.4522 -10.6779 L -13.4204 -10.6777 L -13.3886 -10.6775 L -13.3568 -10.6773 L -13.325 -10.6771 L -13.2931 -10.6768 L -13.2613 -10.6766 L -13.2294 -10.6763 L -13.1975 -10.676 L -13.1655 -10.6757 L -13.1336 -10.6754 L -13.1016 -10.6751 L -13.0697 -10.6747 L -13.0377 -10.6744 L -13.0056 -10.674 L -12.9736 -10.6736 L -12.9416 -10.6732 L -12.9095 -10.6728 L -12.8774 -10.6723 L -12.8453 -10.6719 L -12.8132 -10.6714 L -12.781 -10.6709 L -12.7488 -10.6704 L -12.7167 -10.6699 L -12.6845 -10.6694 L -12.6522 -10.6688 L -12.62 -10.6682 L -12.5877 -10.6677 L -12.5554 -10.6671 L -12.5231 -10.6665 L -12.4908 -10.6658 L -12.4585 -10.6652 L -12.4261 -10.6645 L -12.3938 -10.6638 L -12.3614 -10.6631 L -12.3289 -10.6624 L -12.2965 -10.6617 L -12.264 -10.6609 L -12.2316 -10.6602 L -12.1991 -10.6594 L -12.1666 -10.6586 L -12.134 -10.6578 L -12.1015 -10.6569 L -12.0689 -10.6561 L -12.0363 -10.6552 L -12.0037 -10.6543 L -11.971 -10.6534 L -11.9384 -10.6525 L -11.9057 -10.6515 L -11.873 -10.6506 L -11.8403 -10.6496 L -11.8075 -10.6486 L -11.7748 -10.6476 L -11.742 -10.6465 L -11.7092 -10.6455 L -11.6763 -10.6444 L -11.6763 -10.6444 L -11.6804 -10.677 L -11.6845 -10.7095 L -11.6886 -10.7421 L -11.6926 -10.7746 L -11.6966 -10.8071 L -11.7006 -10.8396 L -11.7046 -10.8721 L -11.7086 -10.9046 L -11.7125 -10.937 L -11.7164 -10.9694 L -11.7203 -11.0018 L -11.7242 -11.0342 L -11.7281 -11.0665 L -11.7319 -11.0989 L -11.7357 -11.1312 L -11.7395 -11.1635 L -11.7433 -11.1958 L -11.747 -11.2281 L -11.7508 -11.2603 L -11.7545 -11.2925 L -11.7582 -11.3248 L -11.7619 -11.3569 L -11.7656 -11.3891 L -11.7692 -11.4213 L -11.7728 -11.4534 L -11.7764 -11.4855 L -11.78 -11.5177 L -11.7836 -11.5497 L -11.7872 -11.5818 L -11.7907 -11.6139 L -11.7942 -11.6459 L -11.7977 -11.6779 L -11.8012 -11.7099 L -11.8047 -11.7419 L -11.8081 -11.7739 L -11.8116 -11.8058 L -11.815 -11.8377 L -11.8184 -11.8697 L -11.8217 -11.9015 L -11.8251 -11.9334 L -11.8285 -11.9653 L -11.8318 -11.9971 L -11.8351 -12.029 L -11.8384 -12.0608 L -11.8417 -12.0926 L -11.8449 -12.1243 L -11.8482 -12.1561 L -11.8514 -12.1879 L -11.8546 -12.2196 L -11.8578 -12.2513 L -11.861 -12.283 L -11.8642 -12.3147 L -11.8673 -12.3463 L -11.8705 -12.378 L -11.8736 -12.4096 L -11.8767 -12.4412 L -11.8798 -12.4728 L -11.8829 -12.5044 L -11.8859 -12.536 L -11.889 -12.5675 L -11.892 -12.599 L -11.895 -12.6306 L -11.898 -12.6621 L -11.901 -12.6936 L -11.904 -12.725 L -11.9069 -12.7565 L -11.9099 -12.7879 L -11.9128 -12.8193 L -11.9157 -12.8508 L -11.9186 -12.8821 L -11.9215 -12.9135 L -11.9243 -12.9449 L -11.9272 -12.9762 L -11.93 -13.0076 L -11.9329 -13.0389 L -11.9357 -13.0702 L -11.9385 -13.1015 L -11.9413 -13.1327 L -11.944 -13.164 L -11.9468 -13.1952 L -11.9495 -13.2265 L -11.9523 -13.2577 L -11.955 -13.2889 L -11.9364 -13.3056 L -11.9178 -13.3223 L -11.8991 -13.3389 L -11.8805 -13.3555 L -11.8618 -13.3721 L -11.8431 -13.3887 L -11.8243 -13.4053 L -11.8056 -13.4218 L -11.7868 -13.4383 L -11.768 -13.4548 L -11.7491 -13.4712 L -11.7303 -13.4876 L -11.7114 -13.504 L -11.6925 -13.5204 L -11.6736 -13.5367 L -11.6546 -13.553 L -11.6357 -13.5693 L -11.6167 -13.5856 L -11.5977 -13.6018 L -11.5786 -13.618 L -11.5596 -13.6342 L -11.5405 -13.6504 L -11.5214 -13.6665 L -11.5023 -13.6826 L -11.4831 -13.6987 L -11.464 -13.7147 L -11.4448 -13.7307 L -11.4256 -13.7467 L -11.4063 -13.7627 L -11.3871 -13.7786 L -11.3678 -13.7945 L -11.3485 -13.8104 L -11.3291 -13.8263 L -11.3098 -13.8421 L -11.2904 -13.8579 L -11.271 -13.8737 L -11.2516 -13.8894 L -11.2322 -13.9052 L -11.2127 -13.9209 L -11.1932 -13.9365 L -11.1737 -13.9522 L -11.1542 -13.9678 L -11.1347 -13.9834 L -11.1151 -13.9989 L -11.0955 -14.0145 L -11.0759 -14.03 L -11.0563 -14.0455 L -11.0366 -14.0609 L -11.0169 -14.0763 L -10.9972 -14.0917 L -10.9775 -14.1071 L -10.9578 -14.1224 L -10.938 -14.1377 L -10.9182 -14.153 L -10.8984 -14.1683 L -10.8786 -14.1835 L -10.8587 -14.1987 L -10.8389 -14.2139 L -10.819 -14.229 L -10.7991 -14.2441 L -10.7451 -14.2849 L -10.7251 -14.2999 L -10.7051 -14.3149 L -10.685 -14.3299 L -10.665 -14.3448 L -10.6449 -14.3597 L -10.6248 -14.3746 L -10.6047 -14.3894 L -10.5846 -14.4043 L -10.5644 -14.419 L -10.5442 -14.4338 L -10.524 -14.4485 L -10.5038 -14.4632 L -10.4836 -14.4779 L -10.4633 -14.4926 L -10.443 -14.5072 L -10.4227 -14.5218 L -10.4024 -14.5363 L -10.3821 -14.5509 L -10.3617 -14.5654 L -10.3413 -14.5799 L -10.3209 -14.5943 L -10.3005 -14.6087 L -10.2801 -14.6231 L -10.2596 -14.6375 L -10.2391 -14.6518 L -10.2186 -14.6661 L -10.1981 -14.6804 L -10.1776 -14.6946 L -10.157 -14.7089 L -10.1364 -14.7231 L -10.1158 -14.7372 L -10.0952 -14.7514 L -10.0746 -14.7655 L -10.0539 -14.7795 L -10.0332 -14.7936 L -10.0125 -14.8076 L -9.9918 -14.8216 L -9.97106 -14.8356 L -9.9503 -14.8495 L -9.92952 -14.8634 L -9.90873 -14.8773 L -9.88791 -14.8911 L -9.86707 -14.9049 L -9.84622 -14.9187 L -9.82534 -14.9325 L -9.80445 -14.9462 L -9.78353 -14.9599 L -9.7626 -14.9736 L -9.74165 -14.9872 L -9.72068 -15.0008 L -9.69969 -15.0144 L -9.67868 -15.0279 L -9.65765 -15.0415 L -9.63661 -15.0549 L -9.61554 -15.0684 L -9.59446 -15.0818 L -9.57335 -15.0952 L -9.55223 -15.1086 L -9.53109 -15.122 L -9.50993 -15.1353 L -9.48067 -15.1241 L -9.4514 -15.113 L -9.42212 -15.1018 L -9.39282 -15.0906 L -9.36352 -15.0794 L -9.3342 -15.0681 L -9.30488 -15.0569 L -9.27554 -15.0456 L -9.2462 -15.0343 L -9.21684 -15.023 L -9.18747 -15.0117 L -9.15809 -15.0003 L -9.1287 -14.989 L -9.0993 -14.9776 L -9.06988 -14.9662 L -9.04046 -14.9548 L -9.01103 -14.9434 L -8.98158 -14.9319 L -8.95212 -14.9204 L -8.92266 -14.909 L -8.89318 -14.8974 L -8.86369 -14.8859 L -8.83419 -14.8744 L -8.80468 -14.8628 L -8.77515 -14.8512 L -8.74562 -14.8396 L -8.71607 -14.828 L -8.68651 -14.8164 L -8.65695 -14.8047 L -8.62737 -14.793 L -8.59777 -14.7813 L -8.56817 -14.7696 L -8.53856 -14.7579 L -8.50893 -14.7461 L -8.4793 -14.7344 L -8.44965 -14.7226 L -8.41999 -14.7108 L -8.39032 -14.6989 L -8.36063 -14.6871 L -8.33094 -14.6752 L -8.30123 -14.6633 L -8.27151 -14.6514 L -8.24178 -14.6394 L -8.21204 -14.6275 L -8.18229 -14.6155 L -8.15252 -14.6035 L -8.12274 -14.5915 L -8.09296 -14.5794 L -8.06315 -14.5674 L -8.03334 -14.5553 L -8.00352 -14.5432 L -7.97368 -14.531 L -7.94383 -14.5189 L -7.91397 -14.5067 L -7.8841 -14.4945 L -7.85421 -14.4823 L -7.82432 -14.4701 L -7.79441 -14.4578 L -7.76449 -14.4455 L -7.73455 -14.4332 L -7.70461 -14.4209 L -7.67465 -14.4085 L -7.64468 -14.3961 L -7.6147 -14.3837 L -7.5847 -14.3713 L -7.5547 -14.3589 L -7.52468 -14.3464 L -7.49465 -14.3339 L -7.4646 -14.3214 L -7.43455 -14.3088 L -7.40448 -14.2963 L -7.3744 -14.2837 L -7.3443 -14.2711 L -7.31419 -14.2584 L -7.28408 -14.2458 L -7.25394 -14.2331 L -7.2238 -14.2204 L -7.19364 -14.2076 L -7.16347 -14.1949 L -7.13329 -14.1821 L -7.10309 -14.1693 L -7.07289 -14.1564 L -7.04267 -14.1436 L -7.04267 -14.1436 L -7.03472 -14.1754 L -7.02676 -14.2073 L -7.01879 -14.2391 L -7.0108 -14.2709 L -7.00281 -14.3027 L -6.9948 -14.3344 L -6.98678 -14.3661 L -6.97874 -14.3978 L -6.9707 -14.4295 L -6.96264 -14.4611 L -6.95457 -14.4927 L -6.94649 -14.5243 L -6.93839 -14.5559 L -6.93029 -14.5874 L -6.92217 -14.619 L -6.91404 -14.6505 L -6.9059 -14.6819 L -6.89775 -14.7134 L -6.88959 -14.7448 L -6.88142 -14.7762 L -6.87323 -14.8076 L -6.86504 -14.8389 L -6.85683 -14.8703 L -6.84862 -14.9016 L -6.84039 -14.9328 L -6.83215 -14.9641 L -6.8239 -14.9953 L -6.81564 -15.0265 L -6.80737 -15.0577 L -6.79909 -15.0889 L -6.7908 -15.12 L -6.7825 -15.1512 L -6.77419 -15.1823 L -6.76587 -15.2133 L -6.75754 -15.2444 L -6.7492 -15.2754 L -6.74085 -15.3064 L -6.73249 -15.3374 L -6.72412 -15.3684 L -6.71574 -15.3993 L -6.70735 -15.4302 L -6.69895 -15.4611 L -6.69054 -15.492 L -6.68212 -15.5229 L -6.6737 -15.5537 L -6.66526 -15.5845 L -6.65682 -15.6153 L -6.64836 -15.6461 L -6.6399 -15.6768 L -6.63143 -15.7075 L -6.62294 -15.7382 L -6.61445 -15.7689 L -6.60596 -15.7996 L -6.59745 -15.8302 L -6.58893 -15.8609 L -6.58041 -15.8915 L -6.57187 -15.922 L -6.56333 -15.9526 L -6.55478 -15.9831 L -6.54622 -16.0136 L -6.53766 -16.0441 L -6.52908 -16.0746 L -6.5205 -16.1051 L -6.51191 -16.1355 L -6.50331 -16.1659 L -6.4947 -16.1963 L -6.48608 -16.2267 L -6.47746 -16.2571 L -6.46883 -16.2874 L -6.46019 -16.3177 L -6.45154 -16.348 L -6.44289 -16.3783 L -6.43423 -16.4086 L -6.42556 -16.4388 L -6.41688 -16.469 L -6.4082 -16.4992 L -6.3995 -16.5294 L -6.39081 -16.5596 L -6.3821 -16.5897 L -6.37339 -16.6199 L -6.36466 -16.65 L -6.35594 -16.6801 L -6.3472 -16.7101 L -6.32382 -16.719 L -6.30043 -16.7278 L -6.27703 -16.7366 L -6.25362 -16.7454 L -6.23019 -16.7541 L -6.20675 -16.7628 L -6.1833 -16.7715 L -6.15984 -16.7801 L -6.13637 -16.7887 L -6.11288 -16.7973 L -6.08938 -16.8058 L -6.06587 -16.8143 L -6.04235 -16.8228 L -6.01881 -16.8312 L -5.99527 -16.8396 L -5.97171 -16.848 L -5.94814 -16.8563 L -5.92456 -16.8646 L -5.90097 -16.8729 L -5.87736 -16.8811 L -5.85375 -16.8893 L -5.83012 -16.8975 L -5.80648 -16.9056 L -5.78283 -16.9137 L -5.75917 -16.9218 L -5.7355 -16.9298 L -5.71181 -16.9379 L -5.68812 -16.9458 L -5.66441 -16.9538 L -5.6407 -16.9617 L -5.61697 -16.9695 L -5.59323 -16.9774 L -5.56948 -16.9852 L -5.54572 -16.993 L -5.52195 -17.0007 L -5.49816 -17.0084 L -5.47437 -17.0161 L -5.45057 -17.0237 L -5.42675 -17.0313 L -5.40293 -17.0389 L -5.37909 -17.0464 L -5.35524 -17.0539 L -5.33139 -17.0614 L -5.30752 -17.0689 L -5.28364 -17.0763 L -5.25975 -17.0836 L -5.23586 -17.091 L -5.21195 -17.0983 L -5.18803 -17.1056 L -5.1641 -17.1128 L -5.14016 -17.12 L -5.11621 -17.1272 L -5.09225 -17.1343 L -5.06828 -17.1414 L -5.0443 -17.1485 L -5.02031 -17.1555 L -4.99632 -17.1625 L -4.97231 -17.1695 L -4.94829 -17.1764 L -4.92426 -17.1833 L -4.85917 -17.2019 L -4.83511 -17.2086 L -4.81104 -17.2154 L -4.78695 -17.2221 L -4.76286 -17.2288 L -4.73876 -17.2354 L -4.71465 -17.242 L -4.69053 -17.2486 L -4.6664 -17.2552 L -4.64227 -17.2617 L -4.61812 -17.2681 L -4.59396 -17.2746 L -4.5698 -17.281 L -4.54563 -17.2874 L -4.52144 -17.2937 L -4.49725 -17.3 L -4.47305 -17.3063 L -4.44884 -17.3125 L -4.42462 -17.3187 L -4.4004 -17.3249 L -4.37616 -17.331 L -4.35192 -17.3371 L -4.32767 -17.3432 L -4.30341 -17.3492 L -4.27914 -17.3552 L -4.25486 -17.3612 L -4.23058 -17.3671 L -4.20628 -17.373 L -4.18198 -17.3789 L -4.15767 -17.3847 L -4.13335 -17.3905 L -4.10902 -17.3963 L -4.08469 -17.402 L -4.06035 -17.4077 L -4.036 -17.4134 L -4.01164 -17.419 L -3.98727 -17.4246 L -3.9629 -17.4302 L -3.93852 -17.4357 L -3.91413 -17.4412 L -3.88973 -17.4467 L -3.86533 -17.4521 L -3.84091 -17.4575 L -3.81649 -17.4628 L -3.79207 -17.4681 L -3.76763 -17.4734 L -3.74319 -17.4787 L -3.71874 -17.4839 L -3.69428 -17.4891 L -3.66982 -17.4942 L -3.64535 -17.4993 L -3.62087 -17.5044 L -3.59639 -17.5095 L -3.57189 -17.5145 L -3.54739 -17.5195 L -3.52289 -17.5244 L -3.49837 -17.5293 L -3.47385 -17.5342 L -3.44933 -17.539 L -3.42479 -17.5438 L -3.40025 -17.5486 L -3.377 -17.5276 L -3.35374 -17.5067 L -3.33047 -17.4857 L -3.3072 -17.4646 L -3.28393 -17.4436 L -3.26065 -17.4225 L -3.23737 -17.4014 L -3.21409 -17.3803 L -3.1908 -17.3592 L -3.16751 -17.338 L -3.14422 -17.3169 L -3.12092 -17.2957 L -3.09762 -17.2745 L -3.07431 -17.2532 L -3.051 -17.232 L -3.02769 -17.2107 L -3.00437 -17.1894 L -2.98105 -17.1681 L -2.95772 -17.1468 L -2.9344 -17.1254 L -2.91106 -17.104 L -2.88773 -17.0826 L -2.86439 -17.0612 L -2.84105 -17.0398 L -2.8177 -17.0183 L -2.79435 -16.9968 L -2.771 -16.9753 L -2.74764 -16.9538 L -2.72428 -16.9322 L -2.70092 -16.9107 L -2.67755 -16.8891 L -2.65418 -16.8675 L -2.6308 -16.8458 L -2.60742 -16.8241 L -2.58404 -16.8025 L -2.56066 -16.7808 L -2.53727 -16.759 L -2.51387 -16.7373 L -2.49048 -16.7155 L -2.46708 -16.6937 L -2.44368 -16.6719 L -2.42027 -16.65 L -2.39686 -16.6281 L -2.37345 -16.6062 L -2.35003 -16.5843 L -2.32661 -16.5624 L -2.30319 -16.5404 L -2.27976 -16.5184 L -2.25633 -16.4964 L -2.2329 -16.4744 L -2.20946 -16.4523 L -2.18602 -16.4302 L -2.16258 -16.4081 L -2.13913 -16.386 L -2.11568 -16.3638 L -2.09223 -16.3416 L -2.06877 -16.3194 L -2.04531 -16.2972 L -2.02185 -16.2749 L -1.99838 -16.2526 L -1.97491 -16.2303 L -1.95144 -16.2079 L -1.92797 -16.1856 L -1.90449 -16.1632 L -1.88101 -16.1408 L -1.85752 -16.1183 L -1.83404 -16.0958 L -1.81055 -16.0733 L -1.78705 -16.0508 L -1.76356 -16.0283 L -1.74006 -16.0057 L -1.71655 -15.9831 L -1.69305 -15.9605 L -1.66954 -15.9378 L -1.64603 -15.9151 L -1.62252 -15.8924 L -1.599 -15.8696 L -1.57548 -15.8469 L -1.55196 -15.8241 L -1.52843 -15.8013 L -1.5049 -15.7784 L -1.48137 -15.7555 L -1.45784 -15.7326 L -1.45784 -15.7326 L -1.43892 -15.7594 L -1.41999 -15.7863 L -1.40107 -15.8131 L -1.38214 -15.8398 L -1.3632 -15.8665 L -1.34427 -15.8933 L -1.32533 -15.9199 L -1.30639 -15.9466 L -1.28745 -15.9732 L -1.2685 -15.9998 L -1.24956 -16.0264 L -1.23061 -16.0529 L -1.21166 -16.0794 L -1.19271 -16.1059 L -1.17375 -16.1324 L -1.1548 -16.1588 L -1.13584 -16.1852 L -1.11688 -16.2116 L -1.09792 -16.2379 L -1.07895 -16.2643 L -1.05999 -16.2906 L -1.04102 -16.3168 L -1.02205 -16.3431 L -1.00308 -16.3693 L -0.984108 -16.3955 L -0.965135 -16.4217 L -0.946159 -16.4478 L -0.927183 -16.4739 L -0.908205 -16.5 L -0.889226 -16.5261 L -0.870245 -16.5521 L -0.851263 -16.5782 L -0.83228 -16.6042 L -0.813295 -16.6301 L -0.79431 -16.6561 L -0.775323 -16.682 L -0.756335 -16.7079 L -0.737346 -16.7338 L -0.718356 -16.7596 L -0.699364 -16.7854 L -0.680372 -16.8112 L -0.661379 -16.837 L -0.642385 -16.8628 L -0.62339 -16.8885 L -0.604394 -16.9142 L -0.585398 -16.9399 L -0.5664 -16.9655 L -0.547402 -16.9912 L -0.528403 -17.0168 L -0.509403 -17.0424 L -0.490403 -17.068 L -0.471402 -17.0935 L -0.4524 -17.119 L -0.433398 -17.1445 L -0.414395 -17.17 L -0.395392 -17.1955 L -0.376388 -17.2209 L -0.357383 -17.2463 L -0.338379 -17.2717 L -0.319373 -17.2971 L -0.300368 -17.3224 L -0.281362 -17.3477 L -0.262355 -17.373 L -0.243349 -17.3983 L -0.224342 -17.4236 L -0.205334 -17.4488 L -0.186327 -17.474 L -0.167319 -17.4992 L -0.148311 -17.5244 L -0.129303 -17.5495 L -0.110295 -17.5747 L -0.0912861 -17.5998 L -0.0722776 -17.6249 L -0.053269 -17.6499 L -0.0342603 -17.675 L -0.0152515 -17.7 L 0.00375722 -17.725 L 0.022766 -17.75 L 0.0417747 -17.775 L 0.0607834 -17.7999 L 0.079792 -17.8248 L 0.0988005 -17.8497 L 0.117809 -17.8746 L 0.142808 -17.8744 L 0.167807 -17.8742 L 0.192806 -17.874 L 0.217804 -17.8737 L 0.242802 -17.8734 L 0.2678 -17.873 L 0.292797 -17.8726 L 0.317793 -17.8722 L 0.342789 -17.8717 L 0.367784 -17.8712 L 0.392778 -17.8707 L 0.417772 -17.8701 L 0.442764 -17.8695 L 0.467756 -17.8689 L 0.492747 -17.8682 L 0.517737 -17.8675 L 0.542726 -17.8668 L 0.567714 -17.866 L 0.592701 -17.8652 L 0.617687 -17.8643 L 0.642671 -17.8634 L 0.667654 -17.8625 L 0.692636 -17.8616 L 0.717617 -17.8606 L 0.742596 -17.8596 L 0.767574 -17.8585 L 0.79255 -17.8574 L 0.817524 -17.8563 L 0.842497 -17.8551 L 0.867469 -17.8539 L 0.892439 -17.8527 L 0.917406 -17.8514 L 0.942373 -17.8501 L 0.967337 -17.8488 L 0.992299 -17.8474 L 1.01726 -17.846 L 1.04222 -17.8446 L 1.06717 -17.8431 L 1.09213 -17.8416 L 1.11708 -17.8401 L 1.14203 -17.8385 L 1.16698 -17.8369 L 1.19192 -17.8352 L 1.21687 -17.8335 L 1.24181 -17.8318 L 1.26675 -17.8301 L 1.29168 -17.8283 L 1.31662 -17.8264 L 1.34155 -17.8246 L 1.36648 -17.8227 L 1.3914 -17.8208 L 1.41632 -17.8188 L 1.44124 -17.8168 L 1.46616 -17.8148 L 1.49108 -17.8127 L 1.51599 -17.8106 L 1.54089 -17.8085 L 1.5658 -17.8063 L 1.5907 -17.8041 L 1.6156 -17.8018 L 1.68299 -17.7956 L 1.70787 -17.7932 L 1.73276 -17.7908 L 1.75764 -17.7884 L 1.78251 -17.7859 L 1.80739 -17.7834 L 1.83226 -17.7808 L 1.85713 -17.7783 L 1.88199 -17.7757 L 1.90685 -17.773 L 1.9317 -17.7703 L 1.95655 -17.7676 L 1.9814 -17.7648 L 2.00625 -17.7621 L 2.03109 -17.7592 L 2.05592 -17.7564 L 2.08075 -17.7535 L 2.10558 -17.7506 L 2.13041 -17.7476 L 2.15523 -17.7446 L 2.18004 -17.7416 L 2.20485 -17.7385 L 2.22966 -17.7354 L 2.25446 -17.7323 L 2.27926 -17.7291 L 2.30405 -17.7259 L 2.32884 -17.7226 L 2.35363 -17.7194 L 2.37841 -17.7161 L 2.40318 -17.7127 L 2.42795 -17.7093 L 2.45272 -17.7059 L 2.47748 -17.7025 L 2.50224 -17.699 L 2.52699 -17.6955 L 2.55174 -17.6919 L 2.57648 -17.6883 L 2.60121 -17.6847 L 2.62594 -17.6811 L 2.65067 -17.6774 L 2.67539 -17.6737 L 2.70011 -17.6699 L 2.72482 -17.6661 L 2.74952 -17.6623 L 2.77422 -17.6584 L 2.79892 -17.6545 L 2.82361 -17.6506 L 2.84829 -17.6466 L 2.87297 -17.6426 L 2.89764 -17.6386 L 2.92231 -17.6345 L 2.94697 -17.6304 L 2.97162 -17.6263 L 2.99627 -17.6221 L 3.02091 -17.6179 L 3.04555 -17.6136 L 3.07018 -17.6094 L 3.09481 -17.6051 L 3.11943 -17.6007 L 3.14404 -17.5963 L 3.16865 -17.5919 L 3.18276 -17.564 L 3.19687 -17.536 L 3.21097 -17.508 L 3.22508 -17.48 L 3.23917 -17.4519 L 3.25327 -17.4239 L 3.26736 -17.3958 L 3.28144 -17.3677 L 3.29553 -17.3396 L 3.3096 -17.3115 L 3.32368 -17.2833 L 3.33775 -17.2551 L 3.35182 -17.227 L 3.36588 -17.1987 L 3.37994 -17.1705 L 3.39399 -17.1422 L 3.40805 -17.114 L 3.42209 -17.0857 L 3.43613 -17.0573 L 3.45017 -17.029 L 3.46421 -17.0006 L 3.47824 -16.9723 L 3.49226 -16.9439 L 3.50628 -16.9154 L 3.5203 -16.887 L 3.53431 -16.8585 L 3.54832 -16.83 L 3.56232 -16.8015 L 3.57632 -16.773 L 3.59031 -16.7444 L 3.6043 -16.7158 L 3.61828 -16.6872 L 3.63226 -16.6586 L 3.64623 -16.63 L 3.6602 -16.6013 L 3.67417 -16.5726 L 3.68813 -16.5439 L 3.70208 -16.5152 L 3.71603 -16.4864 L 3.72997 -16.4576 L 3.74391 -16.4288 L 3.75784 -16.4 L 3.77177 -16.3711 L 3.78569 -16.3423 L 3.79961 -16.3134 L 3.81352 -16.2844 L 3.82743 -16.2555 L 3.84133 -16.2265 L 3.85522 -16.1975 L 3.86911 -16.1685 L 3.883 -16.1395 L 3.89687 -16.1104 L 3.91075 -16.0813 L 3.92461 -16.0522 L 3.93847 -16.0231 L 3.95233 -15.9939 L 3.96617 -15.9647 L 3.98002 -15.9355 L 3.99385 -15.9063 L 4.00768 -15.877 L 4.0215 -15.8477 L 4.03532 -15.8184 L 4.04913 -15.7891 L 4.06293 -15.7597 L 4.07673 -15.7303 L 4.09052 -15.7009 L 4.1043 -15.6715 L 4.11808 -15.642 L 4.13185 -15.6125 L 4.14561 -15.583 L 4.15937 -15.5534 L 4.17312 -15.5239 L 4.18686 -15.4943 L 4.2006 -15.4647 L 4.21432 -15.435 L 4.22804 -15.4053 L 4.24176 -15.3756 L 4.25546 -15.3459 L 4.26916 -15.3161 L 4.28285 -15.2864 L 4.29653 -15.2565 L 4.31021 -15.2267 L 4.32388 -15.1968 L 4.32388 -15.1968 L 4.35122 -15.215 L 4.37855 -15.2332 L 4.40588 -15.2514 L 4.4332 -15.2695 L 4.46051 -15.2876 L 4.48781 -15.3056 L 4.51511 -15.3237 L 4.5424 -15.3417 L 4.56967 -15.3596 L 4.59695 -15.3776 L 4.62421 -15.3955 L 4.65147 -15.4134 L 4.67871 -15.4313 L 4.70596 -15.4492 L 4.73319 -15.467 L 4.76041 -15.4848 L 4.78763 -15.5026 L 4.81484 -15.5203 L 4.84204 -15.538 L 4.86923 -15.5557 L 4.89642 -15.5734 L 4.9236 -15.591 L 4.95077 -15.6087 L 4.97793 -15.6263 L 5.00508 -15.6438 L 5.03223 -15.6614 L 5.05937 -15.6789 L 5.0865 -15.6964 L 5.11362 -15.7139 L 5.14074 -15.7313 L 5.16784 -15.7488 L 5.19494 -15.7662 L 5.22203 -15.7836 L 5.24912 -15.8009 L 5.2762 -15.8183 L 5.30326 -15.8356 L 5.33032 -15.8529 L 5.35738 -15.8701 L 5.38442 -15.8874 L 5.41146 -15.9046 L 5.43849 -15.9218 L 5.46551 -15.939 L 5.49253 -15.9561 L 5.51954 -15.9733 L 5.54653 -15.9904 L 5.57353 -16.0074 L 5.60051 -16.0245 L 5.62749 -16.0416 L 5.65446 -16.0586 L 5.68142 -16.0756 L 5.70837 -16.0925 L 5.73532 -16.1095 L 5.76225 -16.1264 L 5.78918 -16.1434 L 5.81611 -16.1602 L 5.84302 -16.1771 L 5.86993 -16.194 L 5.89683 -16.2108 L 5.92372 -16.2276 L 5.95061 -16.2444 L 5.97749 -16.2612 L 6.00436 -16.2779 L 6.03122 -16.2946 L 6.05807 -16.3113 L 6.08492 -16.328 L 6.11176 -16.3447 L 6.13859 -16.3613 L 6.16542 -16.378 L 6.19224 -16.3946 L 6.21905 -16.4112 L 6.24585 -16.4277 L 6.27265 -16.4443 L 6.29943 -16.4608 L 6.32621 -16.4773 L 6.35299 -16.4938 L 6.37975 -16.5103 L 6.40651 -16.5267 L 6.43326 -16.5431 L 6.46001 -16.5596 L 6.48674 -16.576 L 6.51347 -16.5923 L 6.54019 -16.6087 L 6.56691 -16.625 L 6.59015 -16.6158 L 6.61339 -16.6066 L 6.63661 -16.5973 L 6.65981 -16.588 L 6.68301 -16.5787 L 6.70619 -16.5693 L 6.72935 -16.5599 L 6.75251 -16.5505 L 6.77565 -16.541 L 6.79878 -16.5316 L 6.82189 -16.522 L 6.84499 -16.5125 L 6.86808 -16.5029 L 6.89115 -16.4933 L 6.91421 -16.4836 L 6.93726 -16.4739 L 6.96029 -16.4642 L 6.98331 -16.4545 L 7.00632 -16.4447 L 7.02931 -16.4349 L 7.05229 -16.425 L 7.07526 -16.4151 L 7.09821 -16.4052 L 7.12115 -16.3953 L 7.14407 -16.3853 L 7.16698 -16.3753 L 7.18988 -16.3652 L 7.21276 -16.3552 L 7.23562 -16.3451 L 7.25848 -16.3349 L 7.28132 -16.3248 L 7.30414 -16.3146 L 7.32695 -16.3043 L 7.34975 -16.2941 L 7.37253 -16.2838 L 7.3953 -16.2735 L 7.41805 -16.2631 L 7.44079 -16.2527 L 7.46351 -16.2423 L 7.48622 -16.2318 L 7.50891 -16.2213 L 7.53159 -16.2108 L 7.55426 -16.2003 L 7.57691 -16.1897 L 7.59955 -16.1791 L 7.62217 -16.1684 L 7.64477 -16.1578 L 7.66736 -16.147 L 7.68994 -16.1363 L 7.7125 -16.1255 L 7.73505 -16.1147 L 7.75758 -16.1039 L 7.78009 -16.093 L 7.80259 -16.0821 L 7.82508 -16.0712 L 7.84755 -16.0603 L 7.87 -16.0493 L 7.89244 -16.0382 L 7.91486 -16.0272 L 7.93727 -16.0161 L 7.99785 -15.9859 L 8.0202 -15.9747 L 8.04253 -15.9635 L 8.06485 -15.9522 L 8.08715 -15.9409 L 8.10944 -15.9296 L 8.13171 -15.9183 L 8.15397 -15.9069 L 8.17621 -15.8954 L 8.19843 -15.884 L 8.22064 -15.8725 L 8.24283 -15.861 L 8.265 -15.8495 L 8.28716 -15.8379 L 8.30931 -15.8263 L 8.33143 -15.8146 L 8.35354 -15.803 L 8.37564 -15.7913 L 8.39771 -15.7795 L 8.41978 -15.7678 L 8.44182 -15.756 L 8.46385 -15.7442 L 8.48586 -15.7323 L 8.50785 -15.7204 L 8.52983 -15.7085 L 8.55179 -15.6966 L 8.57374 -15.6846 L 8.59567 -15.6726 L 8.61758 -15.6606 L 8.63947 -15.6485 L 8.66135 -15.6364 L 8.68321 -15.6243 L 8.70505 -15.6121 L 8.72688 -15.5999 L 8.74869 -15.5877 L 8.77048 -15.5754 L 8.79226 -15.5632 L 8.81402 -15.5508 L 8.83576 -15.5385 L 8.85748 -15.5261 L 8.87919 -15.5137 L 8.90088 -15.5013 L 8.92255 -15.4888 L 8.9442 -15.4763 L 8.96584 -15.4638 L 8.98746 -15.4513 L 9.00906 -15.4387 L 9.03064 -15.4261 L 9.05221 -15.4134 L 9.07376 -15.4007 L 9.09529 -15.388 L 9.1168 -15.3753 L 9.13829 -15.3625 L 9.15977 -15.3497 L 9.18123 -15.3369 L 9.20267 -15.324 L 9.2241 -15.3112 L 9.2455 -15.2982 L 9.26689 -15.2853 L 9.28826 -15.2723 L 9.30961 -15.2593 L 9.31267 -15.2282 L 9.31572 -15.197 L 9.31876 -15.1658 L 9.32179 -15.1346 L 9.32481 -15.1033 L 9.32782 -15.0721 L 9.33081 -15.0408 L 9.3338 -15.0095 L 9.33678 -14.9782 L 9.33974 -14.9469 L 9.34269 -14.9156 L 9.34564 -14.8842 L 9.34857 -14.8528 L 9.35149 -14.8214 L 9.3544 -14.79 L 9.3573 -14.7586 L 9.36018 -14.7272 L 9.36306 -14.6957 L 9.36592 -14.6642 L 9.36878 -14.6327 L 9.37162 -14.6012 L 9.37444 -14.5697 L 9.37726 -14.5381 L 9.38007 -14.5065 L 9.38286 -14.475 L 9.38564 -14.4434 L 9.38841 -14.4117 L 9.39117 -14.3801 L 9.39391 -14.3484 L 9.39664 -14.3167 L 9.39936 -14.285 L 9.40207 -14.2533 L 9.40476 -14.2216 L 9.40745 -14.1898 L 9.41012 -14.158 L 9.41277 -14.1262 L 9.41542 -14.0944 L 9.41805 -14.0626 L 9.42067 -14.0307 L 9.42327 -13.9988 L 9.42586 -13.9669 L 9.42844 -13.935 L 9.43101 -13.9031 L 9.43356 -13.8711 L 9.43609 -13.8392 L 9.43862 -13.8072 L 9.44113 -13.7752 L 9.44363 -13.7431 L 9.44611 -13.7111 L 9.44858 -13.679 L 9.45103 -13.6469 L 9.45348 -13.6148 L 9.4559 -13.5827 L 9.45831 -13.5505 L 9.46071 -13.5183 L 9.4631 -13.4861 L 9.46547 -13.4539 L 9.46782 -13.4217 L 9.47016 -13.3894 L 9.47248 -13.3571 L 9.47479 -13.3248 L 9.47709 -13.2925 L 9.47937 -13.2601 L 9.48163 -13.2278 L 9.48388 -13.1954 L 9.48612 -13.163 L 9.48833 -13.1306 L 9.49054 -13.0981 L 9.49272 -13.0656 L 9.49489 -13.0331 L 9.49705 -13.0006 L 9.49919 -12.9681 L 9.50131 -12.9355 L 9.50342 -12.9029 L 9.50551 -12.8703 L 9.50758 -12.8377 L 9.50964 -12.805 L 9.51168 -12.7724 L 9.5137 -12.7397 L 9.51571 -12.707 L 9.5177 -12.6742 L 9.51967 -12.6415 L 9.52163 -12.6087 L 9.52163 -12.6087 L 9.5537 -12.6158 L 9.58575 -12.6228 L 9.61779 -12.6299 L 9.6498 -12.6369 L 9.6818 -12.6439 L 9.71379 -12.6509 L 9.74576 -12.6578 L 9.77771 -12.6648 L 9.80964 -12.6717 L 9.84155 -12.6786 L 9.87345 -12.6854 L 9.90534 -12.6923 L 9.9372 -12.6991 L 9.96905 -12.7059 L 10.0009 -12.7127 L 10.0327 -12.7195 L 10.0645 -12.7262 L 10.0963 -12.7329 L 10.128 -12.7396 L 10.1598 -12.7463 L 10.1915 -12.753 L 10.2233 -12.7596 L 10.255 -12.7662 L 10.2866 -12.7728 L 10.3183 -12.7794 L 10.35 -12.786 L 10.3816 -12.7925 L 10.4132 -12.799 L 10.4448 -12.8055 L 10.4764 -12.812 L 10.508 -12.8185 L 10.5395 -12.8249 L 10.5711 -12.8313 L 10.6026 -12.8377 L 10.6341 -12.8441 L 10.6656 -12.8505 L 10.6971 -12.8568 L 10.7286 -12.8631 L 10.76 -12.8695 L 10.7914 -12.8757 L 10.8229 -12.882 L 10.8543 -12.8883 L 10.8856 -12.8945 L 10.917 -12.9007 L 10.9484 -12.9069 L 10.9797 -12.9131 L 11.011 -12.9193 L 11.0424 -12.9254 L 11.0736 -12.9315 L 11.1049 -12.9377 L 11.1362 -12.9438 L 11.1674 -12.9498 L 11.1987 -12.9559 L 11.2299 -12.9619 L 11.2611 -12.968 L 11.2923 -12.974 L 11.3235 -12.98 L 11.3546 -12.9859 L 11.3858 -12.9919 L 11.4169 -12.9978 L 11.448 -13.0038 L 11.4792 -13.0097 L 11.5102 -13.0156 L 11.5413 -13.0214 L 11.5724 -13.0273 L 11.6034 -13.0331 L 11.6345 -13.039 L 11.6655 -13.0448 L 11.6965 -13.0506 L 11.7275 -13.0564 L 11.7585 -13.0621 L 11.7894 -13.0679 L 11.8204 -13.0736 L 11.8513 -13.0793 L 11.8822 -13.085 L 11.9131 -13.0907 L 11.944 -13.0964 L 11.9749 -13.1021 L 12.0058 -13.1077 L 12.0366 -13.1133 L 12.0675 -13.1189 L 12.0983 -13.1245 L 12.1291 -13.1301 L 12.1475 -13.1132 L 12.1658 -13.0962 L 12.1841 -13.0791 L 12.2024 -13.0621 L 12.2206 -13.045 L 12.2389 -13.0279 L 12.2571 -13.0108 L 12.2753 -12.9936 L 12.2934 -12.9764 L 12.3116 -12.9592 L 12.3297 -12.942 L 12.3478 -12.9247 L 12.3658 -12.9074 L 12.3839 -12.8901 L 12.4019 -12.8728 L 12.4199 -12.8554 L 12.4378 -12.8381 L 12.4558 -12.8207 L 12.4737 -12.8032 L 12.4916 -12.7858 L 12.5095 -12.7683 L 12.5273 -12.7508 L 12.5451 -12.7332 L 12.5629 -12.7157 L 12.5807 -12.6981 L 12.5984 -12.6805 L 12.6162 -12.6629 L 12.6339 -12.6452 L 12.6515 -12.6275 L 12.6692 -12.6098 L 12.6868 -12.5921 L 12.7044 -12.5743 L 12.722 -12.5565 L 12.7395 -12.5387 L 12.7571 -12.5209 L 12.7746 -12.5031 L 12.792 -12.4852 L 12.8095 -12.4673 L 12.8269 -12.4493 L 12.8443 -12.4314 L 12.8617 -12.4134 L 12.879 -12.3954 L 12.8964 -12.3774 L 12.9136 -12.3593 L 12.9309 -12.3413 L 12.9482 -12.3232 L 12.9654 -12.305 L 12.9826 -12.2869 L 12.9998 -12.2687 L 13.0169 -12.2505 L 13.034 -12.2323 L 13.0511 -12.2141 L 13.0682 -12.1958 L 13.0852 -12.1775 L 13.1023 -12.1592 L 13.1192 -12.1409 L 13.1362 -12.1225 L 13.1532 -12.1041 L 13.1701 -12.0857 L 13.187 -12.0673 L 13.2326 -12.0173 L 13.2494 -11.9988 L 13.2661 -11.9802 L 13.2829 -11.9617 L 13.2996 -11.9431 L 13.3163 -11.9245 L 13.3329 -11.9058 L 13.3496 -11.8872 L 13.3662 -11.8685 L 13.3828 -11.8498 L 13.3993 -11.831 L 13.4159 -11.8123 L 13.4324 -11.7935 L 13.4489 -11.7747 L 13.4653 -11.7559 L 13.4817 -11.7371 L 13.4981 -11.7182 L 13.5145 -11.6993 L 13.5309 -11.6804 L 13.5472 -11.6614 L 13.5635 -11.6425 L 13.5798 -11.6235 L 13.596 -11.6045 L 13.6122 -11.5855 L 13.6284 -11.5664 L 13.6446 -11.5474 L 13.6607 -11.5283 L 13.6768 -11.5091 L 13.6929 -11.49 L 13.709 -11.4708 L 13.725 -11.4517 L 13.741 -11.4324 L 13.757 -11.4132 L 13.7729 -11.394 L 13.7888 -11.3747 L 13.8047 -11.3554 L 13.8206 -11.3361 L 13.8364 -11.3167 L 13.8523 -11.2974 L 13.868 -11.278 L 13.8838 -11.2586 L 13.8995 -11.2392 L 13.9152 -11.2197 L 13.9309 -11.2002 L 13.9466 -11.1807 L 13.9622 -11.1612 L 13.9778 -11.1417 L 13.9934 -11.1221 L 14.0089 -11.1025 L 14.0244 -11.0829 L 14.0399 -11.0633 L 14.0554 -11.0437 L 14.0708 -11.024 L 14.0862 -11.0043 L 14.1016 -10.9846 L 14.1169 -10.9649 L 14.1322 -10.9451 L 14.1475 -10.9253 L 14.1628 -10.9055 L 14.178 -10.8857 L 14.1933 -10.8659 L 14.1848 -10.8357 L 14.1764 -10.8055 L 14.168 -10.7753 L 14.1595 -10.7451 L 14.1511 -10.7149 L 14.1426 -10.6847 L 14.1341 -10.6545 L 14.1256 -10.6242 L 14.117 -10.5939 L 14.1085 -10.5637 L 14.0999 -10.5334 L 14.0913 -10.5031 L 14.0827 -10.4728 L 14.0741 -10.4424 L 14.0655 -10.4121 L 14.0568 -10.3817 L 14.0482 -10.3514 L 14.0395 -10.321 L 14.0308 -10.2906 L 14.0221 -10.2602 L 14.0133 -10.2298 L 14.0046 -10.1994 L 13.9958 -10.1689 L 13.987 -10.1385 L 13.9782 -10.108 L 13.9694 -10.0775 L 13.9605 -10.047 L 13.9517 -10.0165 L 13.9428 -9.98602 L 13.9339 -9.95549 L 13.925 -9.92495 L 13.9161 -9.89439 L 13.9071 -9.86382 L 13.8981 -9.83324 L 13.8891 -9.80264 L 13.8801 -9.77203 L 13.8711 -9.74141 L 13.8621 -9.71077 L 13.853 -9.68012 L 13.8439 -9.64945 L 13.8348 -9.61878 L 13.8257 -9.58809 L 13.8165 -9.55738 L 13.8074 -9.52666 L 13.7982 -9.49593 L 13.789 -9.46518 L 13.7798 -9.43443 L 13.7705 -9.40365 L 13.7612 -9.37287 L 13.752 -9.34206 L 13.7427 -9.31125 L 13.7333 -9.28042 L 13.724 -9.24958 L 13.7146 -9.21872 L 13.7052 -9.18785 L 13.6958 -9.15697 L 13.6864 -9.12607 L 13.6769 -9.09516 L 13.6675 -9.06423 L 13.658 -9.03329 L 13.6485 -9.00233 L 13.6389 -8.97136 L 13.6294 -8.94038 L 13.6198 -8.90938 L 13.6102 -8.87837 L 13.6006 -8.84734 L 13.5909 -8.8163 L 13.5812 -8.78524 L 13.5716 -8.75417 L 13.5618 -8.72309 L 13.5521 -8.69199 L 13.5423 -8.66087 L 13.5326 -8.62974 L 13.5227 -8.5986 L 13.5129 -8.56744 L 13.5031 -8.53626 L 13.4932 -8.50508 L 13.4833 -8.47387 L 13.4734 -8.44265 L 13.4634 -8.41142 L 13.4534 -8.38017 L 13.4435 -8.34891 L 13.4334 -8.31763 L 13.4334 -8.31763 L 13.4659 -8.31266 L 13.4983 -8.30767 L 13.5308 -8.30267 L 13.5631 -8.29765 L 13.5955 -8.29262 L 13.6279 -8.28757 L 13.6602 -8.28251 L 13.6925 -8.27743 L 13.7248 -8.27234 L 13.757 -8.26724 L 13.7892 -8.26212 L 13.8214 -8.25699 L 13.8536 -8.25184 L 13.8858 -8.24668 L 13.9179 -8.24151 L 13.95 -8.23632 L 13.9821 -8.23112 L 14.0142 -8.22591 L 14.0462 -8.22068 L 14.0782 -8.21544 L 14.1102 -8.21018 L 14.1422 -8.20492 L 14.1742 -8.19964 L 14.2061 -8.19434 L 14.238 -8.18904 L 14.2699 -8.18372 L 14.3017 -8.17839 L 14.3336 -8.17304 L 14.3654 -8.16769 L 14.3972 -8.16232 L 14.429 -8.15693 L 14.4607 -8.15154 L 14.4925 -8.14613 L 14.5242 -8.14072 L 14.5558 -8.13529 L 14.5875 -8.12984 L 14.6192 -8.12439 L 14.6508 -8.11892 L 14.6824 -8.11345 L 14.714 -8.10796 L 14.7455 -8.10246 L 14.7771 -8.09695 L 14.8086 -8.09142 L 14.8401 -8.08589 L 14.8716 -8.08034 L 14.903 -8.07478 L 14.9345 -8.06922 L 14.9659 -8.06364 L 14.9973 -8.05805 L 15.0287 -8.05245 L 15.06 -8.04683 L 15.0914 -8.04121 L 15.1227 -8.03558 L 15.154 -8.02993 L 15.1852 -8.02428 L 15.2165 -8.01861 L 15.2477 -8.01294 L 15.279 -8.00725 L 15.3102 -8.00156 L 15.3413 -7.99585 L 15.3725 -7.99013 L 15.4036 -7.98441 L 15.4347 -7.97867 L 15.4658 -7.97293 L 15.4969 -7.96717 L 15.528 -7.9614 L 15.559 -7.95563 L 15.5901 -7.94984 L 15.6211 -7.94405 L 15.6521 -7.93824 L 15.683 -7.93243 L 15.714 -7.92661 L 15.7449 -7.92077 L 15.7758 -7.91493 L 15.8067 -7.90908 L 15.8376 -7.90322 L 15.8684 -7.89735 L 15.8993 -7.89147 L 15.9301 -7.88558 L 15.9609 -7.87969 L 15.9917 -7.87378 L 16.0225 -7.86787 L 16.0532 -7.86194 L 16.0642 -7.83948 L 16.0751 -7.81701 L 16.0861 -7.79452 L 16.0969 -7.77201 L 16.1078 -7.74949 L 16.1186 -7.72695 L 16.1294 -7.7044 L 16.1402 -7.68184 L 16.1509 -7.65926 L 16.1616 -7.63666 L 16.1723 -7.61405 L 16.1829 -7.59142 L 16.1935 -7.56878 L 16.2041 -7.54613 L 16.2146 -7.52346 L 16.2251 -7.50077 L 16.2356 -7.47807 L 16.246 -7.45536 L 16.2564 -7.43263 L 16.2668 -7.40988 L 16.2772 -7.38713 L 16.2875 -7.36435 L 16.2978 -7.34157 L 16.308 -7.31877 L 16.3182 -7.29595 L 16.3284 -7.27312 L 16.3386 -7.25028 L 16.3487 -7.22742 L 16.3588 -7.20455 L 16.3689 -7.18166 L 16.3789 -7.15876 L 16.3889 -7.13584 L 16.3988 -7.11292 L 16.4088 -7.08997 L 16.4187 -7.06702 L 16.4285 -7.04405 L 16.4384 -7.02106 L 16.4482 -6.99807 L 16.458 -6.97505 L 16.4677 -6.95203 L 16.4774 -6.92899 L 16.4871 -6.90594 L 16.4967 -6.88287 L 16.5063 -6.85979 L 16.5159 -6.8367 L 16.5255 -6.8136 L 16.535 -6.79048 L 16.5444 -6.76734 L 16.5539 -6.7442 L 16.5633 -6.72104 L 16.5727 -6.69787 L 16.582 -6.67468 L 16.5914 -6.65148 L 16.6007 -6.62827 L 16.6099 -6.60505 L 16.6191 -6.58181 L 16.6283 -6.55856 L 16.6375 -6.5353 L 16.6466 -6.51202 L 16.6557 -6.48873 L 16.6801 -6.42563 L 16.6891 -6.4023 L 16.698 -6.37895 L 16.7069 -6.35559 L 16.7158 -6.33222 L 16.7247 -6.30883 L 16.7335 -6.28543 L 16.7422 -6.26202 L 16.751 -6.2386 L 16.7597 -6.21517 L 16.7684 -6.19172 L 16.777 -6.16826 L 16.7856 -6.14479 L 16.7942 -6.12131 L 16.8027 -6.09782 L 16.8113 -6.07431 L 16.8197 -6.05079 L 16.8282 -6.02726 L 16.8366 -6.00372 L 16.845 -5.98017 L 16.8533 -5.9566 L 16.8616 -5.93302 L 16.8699 -5.90944 L 16.8782 -5.88584 L 16.8864 -5.86222 L 16.8946 -5.8386 L 16.9027 -5.81497 L 16.9108 -5.79132 L 16.9189 -5.76766 L 16.927 -5.744 L 16.935 -5.72032 L 16.943 -5.69663 L 16.9509 -5.67292 L 16.9588 -5.64921 L 16.9667 -5.62549 L 16.9746 -5.60175 L 16.9824 -5.578 L 16.9902 -5.55425 L 16.9979 -5.53048 L 17.0056 -5.5067 L 17.0133 -5.48291 L 17.021 -5.45911 L 17.0286 -5.4353 L 17.0362 -5.41148 L 17.0437 -5.38765 L 17.0513 -5.3638 L 17.0587 -5.33995 L 17.0662 -5.31609 L 17.0736 -5.29221 L 17.081 -5.26833 L 17.0883 -5.24443 L 17.0957 -5.22053 L 17.1029 -5.19661 L 17.1102 -5.17269 L 17.1174 -5.14875 L 17.1246 -5.12481 L 17.1318 -5.10085 L 17.1389 -5.07689 L 17.146 -5.05291 L 17.153 -5.02893 L 17.16 -5.00493 L 17.1413 -4.97984 L 17.1225 -4.95474 L 17.1038 -4.92964 L 17.085 -4.90453 L 17.0662 -4.87941 L 17.0473 -4.85429 L 17.0285 -4.82916 L 17.0096 -4.80403 L 16.9907 -4.77889 L 16.9718 -4.75375 L 16.9529 -4.7286 L 16.9339 -4.70345 L 16.915 -4.67829 L 16.896 -4.65312 L 16.877 -4.62795 L 16.8579 -4.60278 L 16.8389 -4.57759 L 16.8198 -4.5524 L 16.8007 -4.52721 L 16.7816 -4.50201 L 16.7625 -4.47681 L 16.7433 -4.4516 L 16.7241 -4.42638 L 16.705 -4.40116 L 16.6857 -4.37593 L 16.6665 -4.3507 L 16.6472 -4.32546 L 16.628 -4.30022 L 16.6086 -4.27497 L 16.5893 -4.24971 L 16.57 -4.22445 L 16.5506 -4.19919 L 16.5312 -4.17391 L 16.5118 -4.14864 L 16.4924 -4.12335 L 16.4729 -4.09806 L 16.4534 -4.07277 L 16.4339 -4.04747 L 16.4144 -4.02216 L 16.3948 -3.99685 L 16.3753 -3.97154 L 16.3557 -3.94621 L 16.3361 -3.92089 L 16.3164 -3.89555 L 16.2967 -3.87021 L 16.2771 -3.84487 L 16.2573 -3.81952 L 16.2376 -3.79416 L 16.2178 -3.7688 L 16.1981 -3.74343 L 16.1783 -3.71806 L 16.1584 -3.69268 L 16.1386 -3.6673 L 16.1187 -3.64191 L 16.0988 -3.61652 L 16.0789 -3.59112 L 16.0589 -3.56571 L 16.0389 -3.5403 L 16.0189 -3.51488 L 15.9989 -3.48946 L 15.9788 -3.46403 L 15.9587 -3.4386 L 15.9386 -3.41316 L 15.9185 -3.38772 L 15.8984 -3.36227 L 15.8782 -3.33681 L 15.858 -3.31135 L 15.8377 -3.28588 L 15.8175 -3.26041 L 15.7972 -3.23493 L 15.7769 -3.20945 L 15.7565 -3.18396 L 15.7362 -3.15847 L 15.7158 -3.13297 L 15.6953 -3.10747 L 15.6749 -3.08196 L 15.6544 -3.05644 L 15.6339 -3.03092 L 15.6134 -3.0054 L 15.5928 -2.97987 L 15.5722 -2.95433 L 15.5516 -2.92879 L 15.531 -2.90324 L 15.531 -2.90324 L 15.5595 -2.88688 L 15.5879 -2.87051 L 15.6163 -2.85413 L 15.6447 -2.83775 L 15.6731 -2.82137 L 15.7014 -2.80498 L 15.7297 -2.78858 L 15.758 -2.77218 L 15.7863 -2.75578 L 15.8145 -2.73937 L 15.8427 -2.72295 L 15.8709 -2.70654 L 15.899 -2.69011 L 15.9271 -2.67368 L 15.9552 -2.65725 L 15.9833 -2.64082 L 16.0113 -2.62437 L 16.0394 -2.60793 L 16.0674 -2.59148 L 16.0953 -2.57503 L 16.1233 -2.55857 L 16.1512 -2.54211 L 16.1791 -2.52564 L 16.2069 -2.50917 L 16.2347 -2.4927 L 16.2626 -2.47622 L 16.2903 -2.45974 L 16.3181 -2.44325 L 16.3458 -2.42676 L 16.3735 -2.41027 L 16.4012 -2.39377 L 16.4289 -2.37727 L 16.4565 -2.36077 L 16.4841 -2.34426 L 16.5117 -2.32775 L 16.5393 -2.31124 L 16.5668 -2.29472 L 16.5943 -2.2782 L 16.6218 -2.26167 L 16.6493 -2.24515 L 16.6767 -2.22862 L 16.7042 -2.21208 L 16.7316 -2.19554 L 16.7589 -2.179 L 16.7863 -2.16246 L 16.8136 -2.14592 L 16.8409 -2.12937 L 16.8682 -2.11282 L 16.8955 -2.09626 L 16.9227 -2.0797 L 16.9499 -2.06314 L 16.9771 -2.04658 L 17.0043 -2.03001 L 17.0314 -2.01345 L 17.0585 -1.99688 L 17.0856 -1.9803 L 17.1127 -1.96373 L 17.1398 -1.94715 L 17.1668 -1.93057 L 17.1938 -1.91398 L 17.2208 -1.8974 L 17.2478 -1.88081 L 17.2747 -1.86422 L 17.3016 -1.84762 L 17.3285 -1.83103 L 17.3554 -1.81443 L 17.3823 -1.79783 L 17.4091 -1.78123 L 17.4359 -1.76462 L 17.4627 -1.74802 L 17.4895 -1.73141 L 17.5163 -1.7148 L 17.543 -1.69819 L 17.5697 -1.68157 L 17.5964 -1.66495 L 17.6231 -1.64834 L 17.6497 -1.63172 L 17.6764 -1.61509 L 17.703 -1.59847 L 17.7296 -1.58184 L 17.7561 -1.56522 L 17.7827 -1.54859 L 17.8092 -1.53195 L 17.8114 -1.50705 L 17.8134 -1.48213 L 17.8155 -1.45722 L 17.8175 -1.4323 L 17.8195 -1.40738 L 17.8215 -1.38245 L 17.8234 -1.35753 L 17.8253 -1.3326 L 17.8271 -1.30767 L 17.8289 -1.28273 L 17.8307 -1.2578 L 17.8324 -1.23286 L 17.8341 -1.20792 L 17.8358 -1.18297 L 17.8374 -1.15802 L 17.8391 -1.13308 L 17.8406 -1.10813 L 17.8422 -1.08317 L 17.8436 -1.05822 L 17.8451 -1.03326 L 17.8465 -1.0083 L 17.8479 -0.98334 L 17.8493 -0.958377 L 17.8506 -0.933412 L 17.8519 -0.908445 L 17.8532 -0.883476 L 17.8544 -0.858506 L 17.8556 -0.833534 L 17.8567 -0.80856 L 17.8578 -0.783585 L 17.8589 -0.758609 L 17.8599 -0.73363 L 17.8609 -0.708651 L 17.8619 -0.68367 L 17.8629 -0.658687 L 17.8638 -0.633704 L 17.8646 -0.608719 L 17.8655 -0.583733 L 17.8663 -0.558745 L 17.867 -0.533757 L 17.8678 -0.508768 L 17.8685 -0.483777 L 17.8691 -0.458786 L 17.8697 -0.433794 L 17.8703 -0.408801 L 17.8709 -0.383807 L 17.8714 -0.358812 L 17.8719 -0.333817 L 17.8723 -0.308821 L 17.8727 -0.283824 L 17.8731 -0.258827 L 17.8735 -0.23383 L 17.8738 -0.208832 L 17.8741 -0.183833 L 17.8743 -0.158834 L 17.8745 -0.133835 L 17.8747 -0.108836 L 17.8748 -0.0838361 L 17.8749 -0.0588363 L 17.875 -0.0338364Z"
id="path1" />
</g>
</svg>
