<?xml version="1.0" encoding="UTF-8" standalone="no"?>
<svg version="1.1">
<g
style="fill:none;stroke:#000000;stroke-opacity:1;stroke-width:0.1">
<path d="M 8.87481 0.0574441 L 8.87427 0.11402 L 8.87336 0.170592 L 8.87209 0.227157 L 8.87046 0.283712 L 8.86848 0.340256 L 8.80794 0.429732 L 8.74645 0.519161 L 8.68397 0.608531 L 8.62049 0.697832 L 8.55598 0.787049 L 8.49044 0.876171 L 8.42383 0.965183 L 8.35615 1.05407 L 8.28736 1.14282 L 8.21746 1.23142 L 8.14641 1.31984 L 8.07419 1.40807 L 8.00079 1.4961 L 7.92619 1.5839 L 7.85035 1.67146 L 7.77326 1.75875 L 7.69489 1.84575 L 7.61522 1.93244 L 7.53422 2.01879 L 7.53422 2.01879 L 7.56119 2.13407 L 7.58684 2.24898 L 7.61121 2.36351 L 7.63433 2.47765 L 7.65623 2.59139 L 7.67694 2.70473 L 7.69649 2.81767 L 7.71492 2.93019 L 7.73223 3.04229 L 7.74848 3.15397 L 7.76367 3.26522 L 7.77785 3.37604 L 7.79102 3.48643 L 7.80322 3.59639 L 7.81448 3.7059 L 7.8248 3.81498 L 7.83423 3.92362 L 7.84277 4.03181 L 7.85045 4.13957 L 7.8239 4.18953 L 7.79704 4.23932 L 7.76985 4.28894 L 7.74235 4.33839 L 7.71454 4.38766 L 7.65709 4.48716 L 7.62833 4.53588 L 7.59926 4.58442 L 7.56988 4.63277 L 7.54019 4.68093 L 7.5102 4.72891 L 7.41304 4.77613 L 7.31507 4.82283 L 7.21627 4.86899 L 7.11664 4.91458 L 7.01617 4.9596 L 6.91485 5.00401 L 6.81266 5.04779 L 6.7096 5.09093 L 6.60566 5.13339 L 6.50082 5.17517 L 6.39508 5.21622 L 6.28842 5.25653 L 6.18084 5.29606 L 6.07233 5.33479 L 5.96287 5.3727 L 5.85246 5.40975 L 5.74109 5.44591 L 5.62875 5.48115 L 5.51543 5.51543 L 5.51543 5.51543 L 5.48115 5.62875 L 5.44591 5.74109 L 5.40975 5.85246 L 5.3727 5.96287 L 5.33479 6.07233 L 5.29606 6.18084 L 5.25653 6.28842 L 5.21622 6.39508 L 5.17517 6.50082 L 5.13339 6.60566 L 5.09093 6.7096 L 5.04779 6.81266 L 5.00401 6.91485 L 4.9596 7.01617 L 4.91458 7.11664 L 4.86899 7.21627 L 4.82283 7.31507 L 4.77613 7.41304 L 4.72891 7.5102 L 4.68093 7.54019 L 4.63277 7.56988 L 4.58442 7.59926 L 4.53588 7.62833 L 4.48716 7.65709 L 4.38766 7.71454 L 4.33839 7.74235 L 4.28894 7.76985 L 4.23932 7.79704 L 4.18953 7.8239 L 4.13957 7.85045 L 4.03181 7.84277 L 3.92362 7.83423 L 3.81498 7.8248 L 3.7059 7.81448 L 3.59639 7.80322 L 3.48643 7.79102 L 3.37604 7.77785 L 3.26522 7.76367 L 3.15397 7.74848 L 3.04229 7.73223 L 2.93019 7.71492 L 2.81767 7.69649 L 2.70473 7.67694 L 2.59139 7.65623 L 2.47765 7.63433 L 2.36351 7.61121 L 2.24898 7.58684 L 2.13407 7.56119 L 2.01879 7.53422 L 2.01879 7.53422 L 1.93244 7.61522 L 1.84575 7.69489 L 1.75875 7.77326 L 1.67146 7.85035 L 1.5839 7.92619 L 1.4961 8.00079 L 1.40807 8.07419 L 1.31984 8.14641 L 1.23142 8.21746 L 1.14282 8.28736 L 1.05407 8.35615 L 0.965183 8.42383 L 0.876171 8.49044 L 0.787049 8.55598 L 0.697832 8.62049 L 0.608531 8.68397 L 0.519161 8.74645 L 0.429732 8.80794 L 0.340256 8.86848 L 0.283712 8.87046 L 0.227157 8.87209 L 0.170592 8.87336 L 0.11402 8.87427 L 0.0574441 8.87481 L -0.0574441 8.87481 L -0.11402 8.87427 L -0.170592 8.87336 L -0.227157 8.87209 L -0.283712 8.87046 L -0.340256 8.86848 L -0.429732 8.80794 L -0.519161 8.74645 L -0.608531 8.68397 L -0.697832 8.62049 L -0.787049 8.55598 L -0.876171 8.49044 L -0.965183 8.42383 L -1.05407 8.35615 L -1.14282 8.28736 L -1.23142 8.21746 L -1.31984 8.14641 L -1.40807 8.07419 L -1.4961 8.00079 L -1.5839 7.92619 L -1.67146 7.85035 L -1.75875 7.77326 L -1.84575 7.69489 L -1.93244 7.61522 L -2.01879 7.53422 L -2.01879 7.53422 L -2.13407 7.56119 L -2.24898 7.58684 L -2.36351 7.61121 L -2.47765 7.63433 L -2.59139 7.65623 L -2.70473 7.67694 L -2.81767 7.69649 L -2.93019 7.71492 L -3.04229 7.73223 L -3.15397 7.74848 L -3.26522 7.76367 L -3.37604 7.77785 L -3.48643 7.79102 L -3.59639 7.80322 L -3.7059 7.81448 L -3.81498 7.8248 L -3.92362 7.83423 L -4.03181 7.84277 L -4.13957 7.85045 L -4.18953 7.8239 L -4.23932 7.79704 L -4.28894 7.76985 L -4.33839 7.74235 L -4.38766 7.71454 L -4.48716 7.65709 L -4.53588 7.62833 L -4.58442 7.59926 L -4.63277 7.56988 L -4.68093 7.54019 L -4.72891 7.5102 L -4.77613 7.41304 L -4.82283 7.31507 L -4.86899 7.21627 L -4.91458 7.11664 L -4.9596 7.01617 L -5.00401 6.91485 L -5.04779 6.81266 L -5.09093 6.7096 L -5.13339 6.60566 L -5.17517 6.50082 L -5.21622 6.39508 L -5.25653 6.28842 L -5.29606 6.18084 L -5.33479 6.07233 L -5.3727 5.96287 L -5.40975 5.85246 L -5.44591 5.74109 L -5.48115 5.62875 L -5.51543 5.51543 L -5.51543 5.51543 L -5.62875 5.48115 L -5.74109 5.44591 L -5.85246 5.40975 L -5.96287 5.3727 L -6.07233 5.33479 L -6.18084 5.29606 L -6.28842 5.25653 L -6.39508 5.21622 L -6.50082 5.17517 L -6.60566 5.13339 L -6.7096 5.09093 L -6.81266 5.04779 L -6.91485 5.00401 L -7.01617 4.9596 L -7.11664 4.91458 L -7.21627 4.86899 L -7.31507 4.82283 L -7.41304 4.77613 L -7.5102 4.72891 L -7.54019 4.68093 L -7.56988 4.63277 L -7.59926 4.58442 L -7.62833 4.53588 L -7.65709 4.48716 L -7.71454 4.38766 L -7.74235 4.33839 L -7.76985 4.28894 L -7.79704 4.23932 L -7.8239 4.18953 L -7.85045 4.13957 L -7.84277 4.03181 L -7.83423 3.92362 L -7.8248 3.81498 L -7.81448 3.7059 L -7.80322 3.59639 L -7.79102 3.48643 L -7.77785 3.37604 L -7.76367 3.26522 L -7.74848 3.15397 L -7.73223 3.04229 L -7.71492 2.93019 L -7.69649 2.81767 L -7.67694 2.70473 L -7.65623 2.59139 L -7.63433 2.47765 L -7.61121 2.36351 L -7.58684 2.24898 L -7.56119 2.13407 L -7.53422 2.01879 L -7.53422 2.01879 L -7.61522 1.93244 L -7.69489 1.84575 L -7.77326 1.75875 L -7.85035 1.67146 L -7.92619 1.5839 L -8.00079 1.4961 L -8.07419 1.40807 L -8.14641 1.31984 L -8.21746 1.23142 L -8.28736 1.14282 L -8.35615 1.05407 L -8.42383 0.965183 L -8.49044 0.876171 L -8.55598 0.787049 L -8.62049 0.697832 L -8.68397 0.608531 L -8.74645 0.519161 L -8.80794 0.429732 L -8.86848 0.340256 L -8.87046 0.283712 L -8.87209 0.227157 L -8.87336 0.170592 L -8.87427 0.11402 L -8.87481 0.0574441 L -8.87481 -0.0574441 L -8.87427 -0.11402 L -8.87336 -0.170592 L -8.87209 -0.227157 L -8.87046 -0.283712 L -8.86848 -0.340256 L -8.80794 -0.429732 L -8.74645 -0.519161 L -8.68397 -0.608531 L -8.62049 -0.697832 L -8.55598 -0.787049 L -8.49044 -0.876171 L -8.42383 -0.965183 L -8.35615 -1.05407 L -8.28736 -1.14282 L -8.21746 -1.23142 L -8.14641 -1.31984 L -8.07419 -1.40807 L -8.00079 -1.4961 L -7.92619 -1.5839 L -7.85035 -1.67146 L -7.77326 -1.75875 L -7.69489 -1.84575 L -7.61522 -1.93244 L -7.53422 -2.01879 L -7.53422 -2.01879 L -7.56119 -2.13407 L -7.58684 -2.24898 L -7.61121 -2.36351 L -7.63433 -2.47765 L -7.65623 -2.59139 L -7.67694 -2.70473 L -7.69649 -2.81767 L -7.71492 -2.93019 L -7.73223 -3.04229 L -7.74848 -3.15397 L -7.76367 -3.26522 L -7.77785 -3.37604 L -7.79102 -3.48643 L -7.80322 -3.59639 L -7.81448 -3.7059 L -7.8248 -3.81498 L -7.83423 -3.92362 L -7.84277 -4.03181 L -7.85045 -4.13957 L -7.8239 -4.18953 L -7.79704 -4.23932 L -7.76985 -4.28894 L -7.74235 -4.33839 L -7.71454 -4.38766 L -7.65709 -4.48716 L -7.62833 -4.53588 L -7.59926 -4.58442 L -7.56988 -4.63277 L -7.54019 -4.68093 L -7.5102 -4.72891 L -7.41304 -4.77613 L -7.31507 -4.82283 L -7.21627 -4.86899 L -7.11664 -4.91458 L -7.01617 -4.9596 L -6.91485 -5.00401 L -6.81266 -5.04779 L -6.7096 -5.09093 L -6.60566 -5.13339 L -6.50082 -5.17517 L -6.39508 -5.21622 L -6.28842 -5.25653 L -6.18084 -5.29606 L -6.07233 -5.33479 L -5.96287 -5.3727 L -5.85246 -5.40975 L -5.74109 -5.44591 L -5.62875 -5.48115 L -5.51543 -5.51543 L -5.51543 -5.51543 L -5.48115 -5.62875 L -5.44591 -5.74109 L -5.40975 -5.85246 L -5.3727 -5.96287 L -5.33479 -6.07233 L -5.29606 -6.18084 L -5.25653 -6.28842 L -5.21622 -6.39508 L -5.17517 -6.50082 L -5.13339 -6.60566 L -5.09093 -6.7096 L -5.04779 -6.81266 L -5.00401 -6.91485 L -4.9596 -7.01617 L -4.91458 -7.11664 L -4.86899 -7.21627 L -4.82283 -7.31507 L -4.77613 -7.41304 L -4.72891 -7.5102 L -4.68093 -7.54019 L -4.63277 -7.56988 L -4.58442 -7.59926 L -4.53588 -7.62833 L -4.48716 -7.65709 L -4.38766 -7.71454 L -4.33839 -7.74235 L -4.28894 -7.76985 L -4.23932 -7.79704 L -4.18953 -7.8239 L -4.13957 -7.85045 L -4.03181 -7.84277 L -3.92362 -7.83423 L -3.81498 -7.8248 L -3.7059 -7.81448 L -3.59639 -7.80322 L -3.48643 -7.79102 L -3.37604 -7.77785 L -3.26522 -7.76367 L -3.15397 -7.74848 L -3.04229 -7.73223 L -2.93019 -7.71492 L -2.81767 -7.69649 L -2.70473 -7.67694 L -2.59139 -7.65623 L -2.47765 -7.63433 L -2.36351 -7.61121 L -2.24898 -7.58684 L -2.13407 -7.56119 L -2.01879 -7.53422 L -2.01879 -7.53422 L -1.93244 -7.61522 L -1.84575 -7.69489 L -1.75875 -7.77326 L -1.67146 -7.85035 L -1.5839 -7.92619 L -1.4961 -8.00079 L -1.40807 -8.07419 L -1.31984 -8.14641 L -1.23142 -8.21746 L -1.14282 -8.28736 L -1.05407 -8.35615 L -0.965183 -8.42383 L -0.876171 -8.49044 L -0.787049 -8.55598 L -0.697832 -8.62049 L -0.608531 -8.68397 L -0.519161 -8.74645 L -0.429732 -8.80794 L -0.340256 -8.86848 L -0.283712 -8.87046 L -0.227157 -8.87209 L -0.170592 -8.87336 L -0.11402 -8.87427 L -0.0574441 -8.87481 L 0.0574441 -8.87481 L 0.11402 -8.87427 L 0.170592 -8.87336 L 0.227157 -8.87209 L 0.283712 -8.87046 L 0.340256 -8.86848 L 0.429732 -8.80794 L 0.519161 -8.74645 L 0.608531 -8.68397 L 0.697832 -8.62049 L 0.787049 -8.55598 L 0.876171 -8.49044 L 0.965183 -8.42383 L 1.05407 -8.35615 L 1.14282 -8.28736 L 1.23142 -8.21746 L 1.31984 -8.14641 L 1.40807 -8.07419 L 1.4961 -8.00079 L 1.5839 -7.92619 L 1.67146 -7.85035 L 1.75875 -7.77326 L 1.84575 -7.69489 L 1.93244 -7.61522 L 2.01879 -7.53422 L 2.01879 -7.53422 L 2.13407 -7.56119 L 2.24898 -7.58684 L 2.36351 -7.61121 L 2.47765 -7.63433 L 2.59139 -7.65623 L 2.70473 -7.67694 L 2.81767 -7.69649 L 2.93019 -7.71492 L 3.04229 -7.73223 L 3.15397 -7.74848 L 3.26522 -7.76367 L 3.37604 -7.77785 L 3.48643 -7.79102 L 3.59639 -7.80322 L 3.7059 -7.81448 L 3.81498 -7.8248 L 3.92362 -7.83423 L 4.03181 -7.84277 L 4.13957 -7.85045 L 4.18953 -7.8239 L 4.23932 -7.79704 L 4.28894 -7.76985 L 4.33839 -7.74235 L 4.38766 -7.71454 L 4.48716 -7.65709 L 4.53588 -7.62833 L 4.58442 -7.59926 L 4.63277 -7.56988 L 4.68093 -7.54019 L 4.72891 -7.5102 L 4.77613 -7.41304 L 4.82283 -7.31507 L 4.86899 -7.21627 L 4.91458 -7.11664 L 4.9596 -7.01617 L 5.00401 -6.91485 L 5.04779 -6.81266 L 5.09093 -6.7096 L 5.13339 -6.60566 L 5.17517 -6.50082 L 5.21622 -6.39508 L 5.25653 -6.28842 L 5.29606 -6.18084 L 5.33479 -6.07233 L 5.3727 -5.96287 L 5.40975 -5.85246 L 5.44591 -5.74109 L 5.48115 -5.62875 L 5.51543 -5.51543 L 5.51543 -5.51543 L 5.62875 -5.48115 L 5.74109 -5.44591 L 5.85246 -5.40975 L 5.96287 -5.3727 L 6.07233 -5.33479 L 6.18084 -5.29606 L 6.28842 -5.25653 L 6.39508 -5.21622 L 6.50082 -5.17517 L 6.60566 -5.13339 L 6.7096 -5.09093 L 6.81266 -5.04779 L 6.91485 -5.00401 L 7.01617 -4.9596 L 7.11664 -4.91458 L 7.21627 -4.86899 L 7.31507 -4.82283 L 7.41304 -4.77613 L 7.5102 -4.72891 L 7.54019 -4.68093 L 7.56988 -4.63277 L 7.59926 -4.58442 L 7.62833 -4.53588 L 7.65709 -4.48716 L 7.71454 -4.38766 L 7.74235 -4.33839 L 7.76985 -4.28894 L 7.79704 -4.23932 L 7.8239 -4.18953 L 7.85045 -4.13957 L 7.84277 -4.03181 L 7.83423 -3.92362 L 7.8248 -3.81498 L 7.81448 -3.7059 L 7.80322 -3.59639 L 7.79102 -3.48643 L 7.77785 -3.37604 L 7.76367 -3.26522 L 7.74848 -3.15397 L 7.73223 -3.04229 L 7.71492 -2.93019 L 7.69649 -2.81767 L 7.67694 -2.70473 L 7.65623 -2.59139 L 7.63433 -2.47765 L 7.61121 -2.36351 L 7.58684 -2.24898 L 7.56119 -2.13407 L 7.53422 -2.01879 L 7.53422 -2.01879 L 7.61522 -1.93244 L 7.69489 -1.84575 L 7.77326 -1.75875 L 7.85035 -1.67146 L 7.92619 -1.5839 L 8.00079 -1.4961 L 8.07419 -1.40807 L 8.14641 -1.31984 L 8.21746 -1.23142 L 8.28736 -1.14282 L 8.35615 -1.05407 L 8.42383 -0.965183 L 8.49044 -0.876171 L 8.55598 -0.787049 L 8.62049 -0.697832 L 8.68397 -0.608531 L 8.74645 -0.519161 L 8.80794 -0.429732 L 8.86848 -0.340256 L 8.87046 -0.283712 L 8.87209 -0.227157 L 8.87336 -0.170592 L 8.87427 -0.11402 L 8.87481 -0.0574441Z"
id="path1" />
</g>
</svg>
