<?xml version="1.0" encoding="UTF-8" standalone="no"?>
<svg version="1.1">
<g
style="fill:none;stroke:#000000;stroke-opacity:1;stroke-width:0.1">
<path d="M 9.12445 0.100337 L 9.12359 0.160331 L 9.12234 0.220318 L 9.12069 0.280295 L 9.11865 0.34026 L 9.05494 0.426902 L 8.99035 0.513503 L 8.92485 0.600051 L 8.85844 0.686538 L 8.79108 0.772953 L 8.72278 0.859283 L 8.6535 0.945517 L 8.58322 1.03164 L 8.51194 1.11765 L 8.43962 1.20352 L 8.36625 1.28923 L 8.2918 1.37479 L 8.21626 1.46016 L 8.13961 1.54533 L 8.06181 1.63029 L 7.98285 1.71501 L 7.90272 1.79948 L 7.82137 1.88367 L 7.73879 1.96756 L 7.65496 2.05114 L 7.65496 2.05114 L 7.68577 2.16544 L 7.71534 2.27938 L 7.74369 2.39297 L 7.77086 2.50619 L 7.79688 2.61904 L 7.82177 2.73151 L 7.84557 2.8436 L 7.8683 2.9553 L 7.89 3.06661 L 7.91068 3.17753 L 7.93038 3.28806 L 7.94911 3.39818 L 7.96691 3.50791 L 7.98379 3.61723 L 7.99978 3.72615 L 8.0149 3.83466 L 8.02917 3.94277 L 8.04262 4.05047 L 8.05526 4.15776 L 8.06712 4.26465 L 8.0389 4.3176 L 8.01034 4.37037 L 7.98143 4.42294 L 7.95217 4.47533 L 7.85184 4.64912 L 7.8211 4.70065 L 7.79002 4.75197 L 7.75861 4.80309 L 7.72686 4.854 L 7.62836 4.89718 L 7.52912 4.93988 L 7.42912 4.98209 L 7.32836 5.02378 L 7.22683 5.06494 L 7.12451 5.10555 L 7.02139 5.14559 L 6.91747 5.18504 L 6.81273 5.22388 L 6.70717 5.26208 L 6.60077 5.29963 L 6.49352 5.3365 L 6.38541 5.37266 L 6.27644 5.4081 L 6.16659 5.44277 L 6.05585 5.47667 L 5.94421 5.50975 L 5.83167 5.54199 L 5.71821 5.57336 L 5.60382 5.60382 L 5.60382 5.60382 L 5.57336 5.71821 L 5.54199 5.83167 L 5.50975 5.94421 L 5.47667 6.05585 L 5.44277 6.16659 L 5.4081 6.27644 L 5.37266 6.38541 L 5.3365 6.49352 L 5.29963 6.60077 L 5.26208 6.70717 L 5.22388 6.81273 L 5.18504 6.91747 L 5.14559 7.02139 L 5.10555 7.12451 L 5.06494 7.22683 L 5.02378 7.32836 L 4.98209 7.42912 L 4.93988 7.52912 L 4.89718 7.62836 L 4.854 7.72686 L 4.80309 7.75861 L 4.75197 7.79002 L 4.70065 7.8211 L 4.64912 7.85184 L 4.47533 7.95217 L 4.42294 7.98143 L 4.37037 8.01034 L 4.3176 8.0389 L 4.26465 8.06712 L 4.15776 8.05526 L 4.05047 8.04262 L 3.94277 8.02917 L 3.83466 8.0149 L 3.72615 7.99978 L 3.61723 7.98379 L 3.50791 7.96691 L 3.39818 7.94911 L 3.28806 7.93038 L 3.17753 7.91068 L 3.06661 7.89 L 2.9553 7.8683 L 2.8436 7.84557 L 2.73151 7.82177 L 2.61904 7.79688 L 2.50619 7.77086 L 2.39297 7.74369 L 2.27938 7.71534 L 2.16544 7.68577 L 2.05114 7.65496 L 2.05114 7.65496 L 1.96756 7.73879 L 1.88367 7.82137 L 1.79948 7.90272 L 1.71501 7.98285 L 1.63029 8.06181 L 1.54533 8.13961 L 1.46016 8.21626 L 1.37479 8.2918 L 1.28923 8.36625 L 1.20352 8.43962 L 1.11765 8.51194 L 1.03164 8.58322 L 0.945517 8.6535 L 0.859283 8.72278 L 0.772953 8.79108 L 0.686538 8.85844 L 0.600051 8.92485 L 0.513503 8.99035 L 0.426902 9.05494 L 0.34026 9.11865 L 0.280295 9.12069 L 0.220318 9.12234 L 0.160331 9.12359 L 0.100337 9.12445 L -0.100337 9.12445 L -0.160331 9.12359 L -0.220318 9.12234 L -0.280295 9.12069 L -0.34026 9.11865 L -0.426902 9.05494 L -0.513503 8.99035 L -0.600051 8.92485 L -0.686538 8.85844 L -0.772953 8.79108 L -0.859283 8.72278 L -0.945517 8.6535 L -1.03164 8.58322 L -1.11765 8.51194 L -1.20352 8.43962 L -1.28923 8.36625 L -1.37479 8.2918 L -1.46016 8.21626 L -1.54533 8.13961 L -1.63029 8.06181 L -1.71501 7.98285 L -1.79948 7.90272 L -1.88367 7.82137 L -1.96756 7.73879 L -2.05114 7.65496 L -2.05114 7.65496 L -2.16544 7.68577 L -2.27938 7.71534 L -2.39297 7.74369 L -2.50619 7.77086 L -2.61904 7.79688 L -2.73151 7.82177 L -2.8436 7.84557 L -2.9553 7.8683 L -3.06661 7.89 L -3.17753 7.91068 L -3.28806 7.93038 L -3.39818 7.94911 L -3.50791 7.96691 L -3.61723 7.98379 L -3.72615 7.99978 L -3.83466 8.0149 L -3.94277 8.02917 L -4.05047 8.04262 L -4.15776 8.05526 L -4.26465 8.06712 L -4.3176 8.0389 L -4.37037 8.01034 L -4.42294 7.98143 L -4.47533 7.95217 L -4.64912 7.85184 L -4.70065 7.8211 L -4.75197 7.79002 L -4.80309 7.75861 L -4.854 7.72686 L -4.89718 7.62836 L -4.93988 7.52912 L -4.98209 7.42912 L -5.02378 7.32836 L -5.06494 7.22683 L -5.10555 7.12451 L -5.14559 7.02139 L -5.18504 6.91747 L -5.22388 6.81273 L -5.26208 6.70717 L -5.29963 6.60077 L -5.3365 6.49352 L -5.37266 6.38541 L -5.4081 6.27644 L -5.44277 6.16659 L -5.47667 6.05585 L -5.50975 5.94421 L -5.54199 5.83167 L -5.57336 5.71821 L -5.60382 5.60382 L -5.60382 5.60382 L -5.71821 5.57336 L -5.83167 5.54199 L -5.94421 5.50975 L -6.05585 5.47667 L -6.16659 5.44277 L -6.27644 5.4081 L -6.38541 5.37266 L -6.49352 5.3365 L -6.60077 5.29963 L -6.70717 5.26208 L -6.81273 5.22388 L -6.91747 5.18504 L -7.02139 5.14559 L -7.12451 5.10555 L -7.22683 5.06494 L -7.32836 5.02378 L -7.42912 4.98209 L -7.52912 4.93988 L -7.62836 4.89718 L -7.72686 4.854 L -7.75861 4.80309 L -7.79002 4.75197 L -7.8211 4.70065 L -7.85184 4.64912 L -7.95217 4.47533 L -7.98143 4.42294 L -8.01034 4.37037 L -8.0389 4.3176 L -8.06712 4.26465 L -8.05526 4.15776 L -8.04262 4.05047 L -8.02917 3.94277 L -8.0149 3.83466 L -7.99978 3.72615 L -7.98379 3.61723 L -7.96691 3.50791 L -7.94911 3.39818 L -7.93038 3.28806 L -7.91068 3.17753 L -7.89 3.06661 L -7.8683 2.9553 L -7.84557 2.8436 L -7.82177 2.73151 L -7.79688 2.61904 L -7.77086 2.50619 L -7.74369 2.39297 L -7.71534 2.27938 L -7.68577 2.16544 L -7.65496 2.05114 L -7.65496 2.05114 L -7.73879 1.96756 L -7.82137 1.88367 L -7.90272 1.79948 L -7.98285 1.71501 L -8.06181 1.63029 L -8.13961 1.54533 L -8.21626 1.46016 L -8.2918 1.37479 L -8.36625 1.28923 L -8.43962 1.20352 L -8.51194 1.11765 L -8.58322 1.03164 L -8.6535 0.945517 L -8.72278 0.859283 L -8.79108 0.772953 L -8.85844 0.686538 L -8.92485 0.600051 L -8.99035 0.513503 L -9.05494 0.426902 L -9.11865 0.34026 L -9.12069 0.280295 L -9.12234 0.220318 L -9.12359 0.160331 L -9.12445 0.100337 L -9.12445 -0.100337 L -9.12359 -0.160331 L -9.12234 -0.220318 L -9.12069 -0.280295 L -9.11865 -0.34026 L -9.05494 -0.426902 L -8.99035 -0.513503 L -8.92485 -0.600051 L -8.85844 -0.686538 L -8.79108 -0.772953 L -8.72278 -0.859283 L -8.6535 -0.945517 L -8.58322 -1.03164 L -8.51194 -1.11765 L -8.43962 -1.20352 L -8.36625 -1.28923 L -8.2918 -1.37479 L -8.21626 -1.46016 L -8.13961 -1.54533 L -8.06181 -1.63029 L -7.98285 -1.71501 L -7.90272 -1.79948 L -7.82137 -1.88367 L -7.73879 -1.96756 L -7.65496 -2.05114 L -7.65496 -2.05114 L -7.68577 -2.16544 L -7.71534 -2.27938 L -7.74369 -2.39297 L -7.77086 -2.50619 L -7.79688 -2.61904 L -7.82177 -2.73151 L -7.84557 -2.8436 L -7.8683 -2.9553 L -7.89 -3.06661 L -7.91068 -3.17753 L -7.93038 -3.28806 L -7.94911 -3.39818 L -7.96691 -3.50791 L -7.98379 -3.61723 L -7.99978 -3.72615 L -8.0149 -3.83466 L -8.02917 -3.94277 L -8.04262 -4.05047 L -8.05526 -4.15776 L -8.06712 -4.26465 L -8.0389 -4.3176 L -8.01034 -4.37037 L -7.98143 -4.42294 L -7.95217 -4.47533 L -7.85184 -4.64912 L -7.8211 -4.70065 L -7.79002 -4.75197 L -7.75861 -4.80309 L -7.72686 -4.854 L -7.62836 -4.89718 L -7.52912 -4.93988 L -7.42912 -4.98209 L -7.32836 -5.02378 L -7.22683 -5.06494 L -7.12451 -5.10555 L -7.02139 -5.14559 L -6.91747 -5.18504 L -6.81273 -5.22388 L -6.70717 -5.26208 L -6.60077 -5.29963 L -6.49352 -5.3365 L -6.38541 -5.37266 L -6.27644 -5.4081 L -6.16659 -5.44277 L -6.05585 -5.47667 L -5.94421 -5.50975 L -5.83167 -5.54199 L -5.71821 -5.57336 L -5.60382 -5.60382 L -5.60382 -5.60382 L -5.57336 -5.71821 L -5.54199 -5.83167 L -5.50975 -5.94421 L -5.47667 -6.05585 L -5.44277 -6.16659 L -5.4081 -6.27644 L -5.37266 -6.38541 L -5.3365 -6.49352 L -5.29963 -6.60077 L -5.26208 -6.70717 L -5.22388 -6.81273 L -5.18504 -6.91747 L -5.14559 -7.02139 L -5.10555 -7.12451 L -5.06494 -7.22683 L -5.02378 -7.32836 L -4.98209 -7.42912 L -4.93988 -7.52912 L -4.89718 -7.62836 L -4.854 -7.72686 L -4.80309 -7.75861 L -4.75197 -7.79002 L -4.70065 -7.8211 L -4.64912 -7.85184 L -4.47533 -7.95217 L -4.42294 -7.98143 L -4.37037 -8.01034 L -4.3176 -8.0389 L -4.26465 -8.06712 L -4.15776 -8.05526 L -4.05047 -8.04262 L -3.94277 -8.02917 L -3.83466 -8.0149 L -3.72615 -7.99978 L -3.61723 -7.98379 L -3.50791 -7.96691 L -3.39818 -7.94911 L -3.28806 -7.93038 L -3.17753 -7.91068 L -3.06661 -7.89 L -2.9553 -7.8683 L -2.8436 -7.84557 L -2.73151 -7.82177 L -2.61904 -7.79688 L -2.50619 -7.77086 L -2.39297 -7.74369 L -2.27938 -7.71534 L -2.16544 -7.68577 L -2.05114 -7.65496 L -2.05114 -7.65496 L -1.96756 -7.73879 L -1.88367 -7.82137 L -1.79948 -7.90272 L -1.71501 -7.98285 L -1.63029 -8.06181 L -1.54533 -8.13961 L -1.46016 -8.21626 L -1.37479 -8.2918 L -1.28923 -8.36625 L -1.20352 -8.43962 L -1.11765 -8.51194 L -1.03164 -8.58322 L -0.945517 -8.6535 L -0.859283 -8.72278 L -0.772953 -8.79108 L -0.686538 -8.85844 L -0.600051 -8.92485 L -0.513503 -8.99035 L -0.426902 -9.05494 L -0.34026 -9.11865 L -0.280295 -9.12069 L -0.220318 -9.12234 L -0.160331 -9.12359 L -0.100337 -9.12445 L 0.100337 -9.12445 L 0.160331 -9.12359 L 0.220318 -9.12234 L 0.280295 -9.12069 L 0.34026 -9.11865 L 0.426902 -9.05494 L 0.513503 -8.99035 L 0.600051 -8.92485 L 0.686538 -8.85844 L 0.772953 -8.79108 L 0.859283 -8.72278 L 0.945517 -8.6535 L 1.03164 -8.58322 L 1.11765 -8.51194 L 1.20352 -8.43962 L 1.28923 -8.36625 L 1.37479 -8.2918 L 1.46016 -8.21626 L 1.54533 -8.13961 L 1.63029 -8.06181 L 1.71501 -7.98285 L 1.79948 -7.90272 L 1.88367 -7.82137 L 1.96756 -7.73879 L 2.05114 -7.65496 L 2.05114 -7.65496 L 2.16544 -7.68577 L 2.27938 -7.71534 L 2.39297 -7.74369 L 2.50619 -7.77086 L 2.61904 -7.79688 L 2.73151 -7.82177 L 2.8436 -7.84557 L 2.9553 -7.8683 L 3.06661 -7.89 L 3.17753 -7.91068 L 3.28806 -7.93038 L 3.39818 -7.94911 L 3.50791 -7.96691 L 3.61723 -7.98379 L 3.72615 -7.99978 L 3.83466 -8.0149 L 3.94277 -8.02917 L 4.05047 -8.04262 L 4.15776 -8.05526 L 4.26465 -8.06712 L 4.3176 -8.0389 L 4.37037 -8.01034 L 4.42294 -7.98143 L 4.47533 -7.95217 L 4.64912 -7.85184 L 4.70065 -7.8211 L 4.75197 -7.79002 L 4.80309 -7.75861 L 4.854 -7.72686 L 4.89718 -7.62836 L 4.93988 -7.52912 L 4.98209 -7.42912 L 5.02378 -7.32836 L 5.06494 -7.22683 L 5.10555 -7.12451 L 5.14559 -7.02139 L 5.18504 -6.91747 L 5.22388 -6.81273 L 5.26208 -6.70717 L 5.29963 -6.60077 L 5.3365 -6.49352 L 5.37266 -6.38541 L 5.4081 -6.27644 L 5.44277 -6.16659 L 5.47667 -6.05585 L 5.50975 -5.94421 L 5.54199 -5.83167 L 5.57336 -5.71821 L 5.60382 -5.60382 L 5.60382 -5.60382 L 5.71821 -5.57336 L 5.83167 -5.54199 L 5.94421 -5.50975 L 6.05585 -5.47667 L 6.16659 -5.44277 L 6.27644 -5.4081 L 6.38541 -5.37266 L 6.49352 -5.3365 L 6.60077 -5.29963 L 6.70717 -5.26208 L 6.81273 -5.22388 L 6.91747 -5.18504 L 7.02139 -5.14559 L 7.12451 -5.10555 L 7.22683 -5.06494 L 7.32836 -5.02378 L 7.42912 -4.98209 L 7.52912 -4.93988 L 7.62836 -4.89718 L 7.72686 -4.854 L 7.75861 -4.80309 L 7.79002 -4.75197 L 7.8211 -4.70065 L 7.85184 -4.64912 L 7.95217 -4.47533 L 7.98143 -4.42294 L 8.01034 -4.37037 L 8.0389 -4.3176 L 8.06712 -4.26465 L 8.05526 -4.15776 L 8.04262 -4.05047 L 8.02917 -3.94277 L 8.0149 -3.83466 L 7.99978 -3.72615 L 7.98379 -3.61723 L 7.96691 -3.50791 L 7.94911 -3.39818 L 7.93038 -3.28806 L 7.91068 -3.17753 L 7.89 -3.06661 L 7.8683 -2.9553 L 7.84557 -2.8436 L 7.82177 -2.73151 L 7.79688 -2.61904 L 7.77086 -2.50619 L 7.74369 -2.39297 L 7.71534 -2.27938 L 7.68577 -2.16544 L 7.65496 -2.05114 L 7.65496 -2.05114 L 7.73879 -1.96756 L 7.82137 -1.88367 L 7.90272 -1.79948 L 7.98285 -1.71501 L 8.06181 -1.63029 L 8.13961 -1.54533 L 8.21626 -1.46016 L 8.2918 -1.37479 L 8.36625 -1.28923 L 8.43962 -1.20352 L 8.51194 -1.11765 L 8.58322 -1.03164 L 8.6535 -0.945517 L 8.72278 -0.859283 L 8.79108 -0.772953 L 8.85844 -0.686538 L 8.92485 -0.600051 L 8.99035 -0.513503 L 9.05494 -0.426902 L 9.11865 -0.34026 L 9.12069 -0.280295 L 9.12234 -0.220318 L 9.12359 -0.160331 L 9.12445 -0.100337Z"
id="path1" />
</g>
</svg>
