<?xml version="1.0" encoding="UTF-8" standalone="no"?>
<svg version="1.1">
<g
style="fill:none;stroke:#000000;stroke-opacity:1;stroke-width:0.1">
<path d="M 9.87408 0.1349 L 9.87291 0.203368 L 9.87126 0.271827 L 9.86914 0.340272 L 9.79753 0.419889 L 9.72523 0.499476 L 9.65221 0.579027 L 9.57848 0.658534 L 9.504 0.73799 L 9.42877 0.817388 L 9.35276 0.896719 L 9.27597 0.975974 L 9.19838 1.05514 L 9.11996 1.13422 L 9.0407 1.21319 L 8.96059 1.29205 L 8.8796 1.37078 L 8.79772 1.44937 L 8.71492 1.52781 L 8.63119 1.60609 L 8.5465 1.68419 L 8.46085 1.7621 L 8.37419 1.8398 L 8.28652 1.91728 L 8.19781 1.99452 L 8.10804 2.0715 L 8.01718 2.1482 L 8.01718 2.1482 L 8.05752 2.26005 L 8.09677 2.3716 L 8.13498 2.48285 L 8.17217 2.59378 L 8.20836 2.7044 L 8.24359 2.8147 L 8.27787 2.92468 L 8.31125 3.03433 L 8.34373 3.14366 L 8.37535 3.25267 L 8.40612 3.36135 L 8.43607 3.4697 L 8.46523 3.57772 L 8.4936 3.68541 L 8.52121 3.79277 L 8.54809 3.8998 L 8.57425 4.0065 L 8.5997 4.11288 L 8.62447 4.21893 L 8.64858 4.32465 L 8.67203 4.43005 L 8.69485 4.53513 L 8.71706 4.63988 L 8.68467 4.70022 L 8.65187 4.76033 L 8.61865 4.82021 L 8.48375 5.05387 L 8.4485 5.11257 L 8.41285 5.17104 L 8.37679 5.22925 L 8.27496 5.2624 L 8.17255 5.29517 L 8.06955 5.32756 L 7.96594 5.35955 L 7.86171 5.39112 L 7.75686 5.42226 L 7.65137 5.45296 L 7.54524 5.4832 L 7.43845 5.51297 L 7.33101 5.54224 L 7.22288 5.57101 L 7.11407 5.59924 L 7.00457 5.62693 L 6.89436 5.65405 L 6.78343 5.68059 L 6.67178 5.70651 L 6.55939 5.73181 L 6.44626 5.75645 L 6.33236 5.78041 L 6.2177 5.80367 L 6.10226 5.82621 L 5.98602 5.84799 L 5.86899 5.86899 L 5.86899 5.86899 L 5.84799 5.98602 L 5.82621 6.10226 L 5.80367 6.2177 L 5.78041 6.33236 L 5.75645 6.44626 L 5.73181 6.55939 L 5.70651 6.67178 L 5.68059 6.78343 L 5.65405 6.89436 L 5.62693 7.00457 L 5.59924 7.11407 L 5.57101 7.22288 L 5.54224 7.33101 L 5.51297 7.43845 L 5.4832 7.54524 L 5.45296 7.65137 L 5.42226 7.75686 L 5.39112 7.86171 L 5.35955 7.96594 L 5.32756 8.06955 L 5.29517 8.17255 L 5.2624 8.27496 L 5.22925 8.37679 L 5.17104 8.41285 L 5.11257 8.4485 L 5.05387 8.48375 L 4.82021 8.61865 L 4.76033 8.65187 L 4.70022 8.68467 L 4.63988 8.71706 L 4.53513 8.69485 L 4.43005 8.67203 L 4.32465 8.64858 L 4.21893 8.62447 L 4.11288 8.5997 L 4.0065 8.57425 L 3.8998 8.54809 L 3.79277 8.52121 L 3.68541 8.4936 L 3.57772 8.46523 L 3.4697 8.43607 L 3.36135 8.40612 L 3.25267 8.37535 L 3.14366 8.34373 L 3.03433 8.31125 L 2.92468 8.27787 L 2.8147 8.24359 L 2.7044 8.20836 L 2.59378 8.17217 L 2.48285 8.13498 L 2.3716 8.09677 L 2.26005 8.05752 L 2.1482 8.01718 L 2.1482 8.01718 L 2.0715 8.10804 L 1.99452 8.19781 L 1.91728 8.28652 L 1.8398 8.37419 L 1.7621 8.46085 L 1.68419 8.5465 L 1.60609 8.63119 L 1.52781 8.71492 L 1.44937 8.79772 L 1.37078 8.8796 L 1.29205 8.96059 L 1.21319 9.0407 L 1.13422 9.11996 L 1.05514 9.19838 L 0.975974 9.27597 L 0.896719 9.35276 L 0.817388 9.42877 L 0.73799 9.504 L 0.658534 9.57848 L 0.579027 9.65221 L 0.499476 9.72523 L 0.419889 9.79753 L 0.340272 9.86914 L 0.271827 9.87126 L 0.203368 9.87291 L 0.1349 9.87408 L -0.1349 9.87408 L -0.203368 9.87291 L -0.271827 9.87126 L -0.340272 9.86914 L -0.419889 9.79753 L -0.499476 9.72523 L -0.579027 9.65221 L -0.658534 9.57848 L -0.73799 9.504 L -0.817388 9.42877 L -0.896719 9.35276 L -0.975974 9.27597 L -1.05514 9.19838 L -1.13422 9.11996 L -1.21319 9.0407 L -1.29205 8.96059 L -1.37078 8.8796 L -1.44937 8.79772 L -1.52781 8.71492 L -1.60609 8.63119 L -1.68419 8.5465 L -1.7621 8.46085 L -1.8398 8.37419 L -1.91728 8.28652 L -1.99452 8.19781 L -2.0715 8.10804 L -2.1482 8.01718 L -2.1482 8.01718 L -2.26005 8.05752 L -2.3716 8.09677 L -2.48285 8.13498 L -2.59378 8.17217 L -2.7044 8.20836 L -2.8147 8.24359 L -2.92468 8.27787 L -3.03433 8.31125 L -3.14366 8.34373 L -3.25267 8.37535 L -3.36135 8.40612 L -3.4697 8.43607 L -3.57772 8.46523 L -3.68541 8.4936 L -3.79277 8.52121 L -3.8998 8.54809 L -4.0065 8.57425 L -4.11288 8.5997 L -4.21893 8.62447 L -4.32465 8.64858 L -4.43005 8.67203 L -4.53513 8.69485 L -4.63988 8.71706 L -4.70022 8.68467 L -4.76033 8.65187 L -4.82021 8.61865 L -5.05387 8.48375 L -5.11257 8.4485 L -5.17104 8.41285 L -5.22925 8.37679 L -5.2624 8.27496 L -5.29517 8.17255 L -5.32756 8.06955 L -5.35955 7.96594 L -5.39112 7.86171 L -5.42226 7.75686 L -5.45296 7.65137 L -5.4832 7.54524 L -5.51297 7.43845 L -5.54224 7.33101 L -5.57101 7.22288 L -5.59924 7.11407 L -5.62693 7.00457 L -5.65405 6.89436 L -5.68059 6.78343 L -5.70651 6.67178 L -5.73181 6.55939 L -5.75645 6.44626 L -5.78041 6.33236 L -5.80367 6.2177 L -5.82621 6.10226 L -5.84799 5.98602 L -5.86899 5.86899 L -5.86899 5.86899 L -5.98602 5.84799 L -6.10226 5.82621 L -6.2177 5.80367 L -6.33236 5.78041 L -6.44626 5.75645 L -6.55939 5.73181 L -6.67178 5.70651 L -6.78343 5.68059 L -6.89436 5.65405 L -7.00457 5.62693 L -7.11407 5.59924 L -7.22288 5.57101 L -7.33101 5.54224 L -7.43845 5.51297 L -7.54524 5.4832 L -7.65137 5.45296 L -7.75686 5.42226 L -7.86171 5.39112 L -7.96594 5.35955 L -8.06955 5.32756 L -8.17255 5.29517 L -8.27496 5.2624 L -8.37679 5.22925 L -8.41285 5.17104 L -8.4485 5.11257 L -8.48375 5.05387 L -8.61865 4.82021 L -8.65187 4.76033 L -8.68467 4.70022 L -8.71706 4.63988 L -8.69485 4.53513 L -8.67203 4.43005 L -8.64858 4.32465 L -8.62447 4.21893 L -8.5997 4.11288 L -8.57425 4.0065 L -8.54809 3.8998 L -8.52121 3.79277 L -8.4936 3.68541 L -8.46523 3.57772 L -8.43607 3.4697 L -8.40612 3.36135 L -8.37535 3.25267 L -8.34373 3.14366 L -8.31125 3.03433 L -8.27787 2.92468 L -8.24359 2.8147 L -8.20836 2.7044 L -8.17217 2.59378 L -8.13498 2.48285 L -8.09677 2.3716 L -8.05752 2.26005 L -8.01718 2.1482 L -8.01718 2.1482 L -8.10804 2.0715 L -8.19781 1.99452 L -8.28652 1.91728 L -8.37419 1.8398 L -8.46085 1.7621 L -8.5465 1.68419 L -8.63119 1.60609 L -8.71492 1.52781 L -8.79772 1.44937 L -8.8796 1.37078 L -8.96059 1.29205 L -9.0407 1.21319 L -9.11996 1.13422 L -9.19838 1.05514 L -9.27597 0.975974 L -9.35276 0.896719 L -9.42877 0.817388 L -9.504 0.73799 L -9.57848 0.658534 L -9.65221 0.579027 L -9.72523 0.499476 L -9.79753 0.419889 L -9.86914 0.340272 L -9.87126 0.271827 L -9.87291 0.203368 L -9.87408 0.1349 L -9.87408 -0.1349 L -9.87291 -0.203368 L -9.87126 -0.271827 L -9.86914 -0.340272 L -9.79753 -0.419889 L -9.72523 -0.499476 L -9.65221 -0.579027 L -9.57848 -0.658534 L -9.504 -0.73799 L -9.42877 -0.817388 L -9.35276 -0.896719 L -9.27597 -0.975974 L -9.19838 -1.05514 L -9.11996 -1.13422 L -9.0407 -1.21319 L -8.96059 -1.29205 L -8.8796 -1.37078 L -8.79772 -1.44937 L -8.71492 -1.52781 L -8.63119 -1.60609 L -8.5465 -1.68419 L -8.46085 -1.7621 L -8.37419 -1.8398 L -8.28652 -1.91728 L -8.19781 -1.99452 L -8.10804 -2.0715 L -8.01718 -2.1482 L -8.01718 -2.1482 L -8.05752 -2.26005 L -8.09677 -2.3716 L -8.13498 -2.48285 L -8.17217 -2.59378 L -8.20836 -2.7044 L -8.24359 -2.8147 L -8.27787 -2.92468 L -8.31125 -3.03433 L -8.34373 -3.14366 L -8.37535 -3.25267 L -8.40612 -3.36135 L -8.43607 -3.4697 L -8.46523 -3.57772 L -8.4936 -3.68541 L -8.52121 -3.79277 L -8.54809 -3.8998 L -8.57425 -4.0065 L -8.5997 -4.11288 L -8.62447 -4.21893 L -8.64858 -4.32465 L -8.67203 -4.43005 L -8.69485 -4.53513 L -8.71706 -4.63988 L -8.68467 -4.70022 L -8.65187 -4.76033 L -8.61865 -4.82021 L -8.48375 -5.05387 L -8.4485 -5.11257 L -8.41285 -5.17104 L -8.37679 -5.22925 L -8.27496 -5.2624 L -8.17255 -5.29517 L -8.06955 -5.32756 L -7.96594 -5.35955 L -7.86171 -5.39112 L -7.75686 -5.42226 L -7.65137 -5.45296 L -7.54524 -5.4832 L -7.43845 -5.51297 L -7.33101 -5.54224 L -7.22288 -5.57101 L -7.11407 -5.59924 L -7.00457 -5.62693 L -6.89436 -5.65405 L -6.78343 -5.68059 L -6.67178 -5.70651 L -6.55939 -5.73181 L -6.44626 -5.75645 L -6.33236 -5.78041 L -6.2177 -5.80367 L -6.10226 -5.82621 L -5.98602 -5.84799 L -5.86899 -5.86899 L -5.86899 -5.86899 L -5.84799 -5.98602 L -5.82621 -6.10226 L -5.80367 -6.2177 L -5.78041 -6.33236 L -5.75645 -6.44626 L -5.73181 -6.55939 L -5.70651 -6.67178 L -5.68059 -6.78343 L -5.65405 -6.89436 L -5.62693 -7.00457 L -5.59924 -7.11407 L -5.57101 -7.22288 L -5.54224 -7.33101 L -5.51297 -7.43845 L -5.4832 -7.54524 L -5.45296 -7.65137 L -5.42226 -7.75686 L -5.39112 -7.86171 L -5.35955 -7.96594 L -5.32756 -8.06955 L -5.29517 -8.17255 L -5.2624 -8.27496 L -5.22925 -8.37679 L -5.17104 -8.41285 L -5.11257 -8.4485 L -5.05387 -8.48375 L -4.82021 -8.61865 L -4.76033 -8.65187 L -4.70022 -8.68467 L -4.63988 -8.71706 L -4.53513 -8.69485 L -4.43005 -8.67203 L -4.32465 -8.64858 L -4.21893 -8.62447 L -4.11288 -8.5997 L -4.0065 -8.57425 L -3.8998 -8.54809 L -3.79277 -8.52121 L -3.68541 -8.4936 L -3.57772 -8.46523 L -3.4697 -8.43607 L -3.36135 -8.40612 L -3.25267 -8.37535 L -3.14366 -8.34373 L -3.03433 -8.31125 L -2.92468 -8.27787 L -2.8147 -8.24359 L -2.7044 -8.20836 L -2.59378 -8.17217 L -2.48285 -8.13498 L -2.3716 -8.09677 L -2.26005 -8.05752 L -2.1482 -8.01718 L -2.1482 -8.01718 L -2.0715 -8.10804 L -1.99452 -8.19781 L -1.91728 -8.28652 L -1.8398 -8.37419 L -1.7621 -8.46085 L -1.68419 -8.5465 L -1.60609 -8.63119 L -1.52781 -8.71492 L -1.44937 -8.79772 L -1.37078 -8.8796 L -1.29205 -8.96059 L -1.21319 -9.0407 L -1.13422 -9.11996 L -1.05514 -9.19838 L -0.975974 -9.27597 L -0.896719 -9.35276 L -0.817388 -9.42877 L -0.73799 -9.504 L -0.658534 -9.57848 L -0.579027 -9.65221 L -0.499476 -9.72523 L -0.419889 -9.79753 L -0.340272 -9.86914 L -0.271827 -9.87126 L -0.203368 -9.87291 L -0.1349 -9.87408 L 0.1349 -9.87408 L 0.203368 -9.87291 L 0.271827 -9.87126 L 0.340272 -9.86914 L 0.419889 -9.79753 L 0.499476 -9.72523 L 0.579027 -9.65221 L 0.658534 -9.57848 L 0.73799 -9.504 L 0.817388 -9.42877 L 0.896719 -9.35276 L 0.975974 -9.27597 L 1.05514 -9.19838 L 1.13422 -9.11996 L 1.21319 -9.0407 L 1.29205 -8.96059 L 1.37078 -8.8796 L 1.44937 -8.79772 L 1.52781 -8.71492 L 1.60609 -8.63119 L 1.68419 -8.5465 L 1.7621 -8.46085 L 1.8398 -8.37419 L 1.91728 -8.28652 L 1.99452 -8.19781 L 2.0715 -8.10804 L 2.1482 -8.01718 L 2.1482 -8.01718 L 2.26005 -8.05752 L 2.3716 -8.09677 L 2.48285 -8.13498 L 2.59378 -8.17217 L 2.7044 -8.20836 L 2.8147 -8.24359 L 2.92468 -8.27787 L 3.03433 -8.31125 L 3.14366 -8.34373 L 3.25267 -8.37535 L 3.36135 -8.40612 L 3.4697 -8.43607 L 3.57772 -8.46523 L 3.68541 -8.4936 L 3.79277 -8.52121 L 3.8998 -8.54809 L 4.0065 -8.57425 L 4.11288 -8.5997 L 4.21893 -8.62447 L 4.32465 -8.64858 L 4.43005 -8.67203 L 4.53513 -8.69485 L 4.63988 -8.71706 L 4.70022 -8.68467 L 4.76033 -8.65187 L 4.82021 -8.61865 L 5.05387 -8.48375 L 5.11257 -8.4485 L 5.17104 -8.41285 L 5.22925 -8.37679 L 5.2624 -8.27496 L 5.29517 -8.17255 L 5.32756 -8.06955 L 5.35955 -7.96594 L 5.39112 -7.86171 L 5.42226 -7.75686 L 5.45296 -7.65137 L 5.4832 -7.54524 L 5.51297 -7.43845 L 5.54224 -7.33101 L 5.57101 -7.22288 L 5.59924 -7.11407 L 5.62693 -7.00457 L 5.65405 -6.89436 L 5.68059 -6.78343 L 5.70651 -6.67178 L 5.73181 -6.55939 L 5.75645 -6.44626 L 5.78041 -6.33236 L 5.80367 -6.2177 L 5.82621 -6.10226 L 5.84799 -5.98602 L 5.86899 -5.86899 L 5.86899 -5.86899 L 5.98602 -5.84799 L 6.10226 -5.82621 L 6.2177 -5.80367 L 6.33236 -5.78041 L 6.44626 -5.75645 L 6.55939 -5.73181 L 6.67178 -5.70651 L 6.78343 -5.68059 L 6.89436 -5.65405 L 7.00457 -5.62693 L 7.11407 -5.59924 L 7.22288 -5.57101 L 7.33101 -5.54224 L 7.43845 -5.51297 L 7.54524 -5.4832 L 7.65137 -5.45296 L 7.75686 -5.42226 L 7.86171 -5.39112 L 7.96594 -5.35955 L 8.06955 -5.32756 L 8.17255 -5.29517 L 8.27496 -5.2624 L 8.37679 -5.22925 L 8.41285 -5.17104 L 8.4485 -5.11257 L 8.48375 -5.05387 L 8.61865 -4.82021 L 8.65187 -4.76033 L 8.68467 -4.70022 L 8.71706 -4.63988 L 8.69485 -4.53513 L 8.67203 -4.43005 L 8.64858 -4.32465 L 8.62447 -4.21893 L 8.5997 -4.11288 L 8.57425 -4.0065 L 8.54809 -3.8998 L 8.52121 -3.79277 L 8.4936 -3.68541 L 8.46523 -3.57772 L 8.43607 -3.4697 L 8.40612 -3.36135 L 8.37535 -3.25267 L 8.34373 -3.14366 L 8.31125 -3.03433 L 8.27787 -2.92468 L 8.24359 -2.8147 L 8.20836 -2.7044 L 8.17217 -2.59378 L 8.13498 -2.48285 L 8.09677 -2.3716 L 8.05752 -2.26005 L 8.01718 -2.1482 L 8.01718 -2.1482 L 8.10804 -2.0715 L 8.19781 -1.99452 L 8.28652 -1.91728 L 8.37419 -1.8398 L 8.46085 -1.7621 L 8.5465 -1.68419 L 8.63119 -1.60609 L 8.71492 -1.52781 L 8.79772 -1.44937 L 8.8796 -1.37078 L 8.96059 -1.29205 L 9.0407 -1.21319 L 9.11996 -1.13422 L 9.19838 -1.05514 L 9.27597 -0.975974 L 9.35276 -0.896719 L 9.42877 -0.817388 L 9.504 -0.73799 L 9.57848 -0.658534 L 9.65221 -0.579027 L 9.72523 -0.499476 L 9.79753 -0.419889 L 9.86914 -0.340272 L 9.87126 -0.271827 L 9.87291 -0.203368 L 9.87408 -0.1349Z"
id="path1" />
</g>
</svg>
