<?xml version="1.0" encoding="UTF-8" standalone="no"?>
<svg version="1.1">
<g
style="fill:none;stroke:#000000;stroke-opacity:1;stroke-width:0.1">
<path d="M 10.8744 0.109782 L 10.8734 0.186626 L 10.8718 0.263462 L 10.8697 0.340284 L 10.7902 0.412961 L 10.7103 0.485617 L 10.6298 0.558249 L 10.5487 0.630852 L 10.4671 0.703421 L 10.3849 0.775952 L 10.3022 0.848438 L 10.2188 0.920875 L 10.1348 0.993256 L 10.0502 1.06558 L 9.96488 1.13783 L 9.87895 1.21 L 9.79235 1.2821 L 9.70506 1.3541 L 9.61707 1.42601 L 9.52837 1.49781 L 9.43892 1.56949 L 9.34873 1.64105 L 9.25776 1.71247 L 9.16601 1.78375 L 9.07346 1.85487 L 8.98008 1.92582 L 8.88586 1.9966 L 8.79077 2.06718 L 8.69481 2.13755 L 8.59794 2.2077 L 8.50015 2.27761 L 8.50015 2.27761 L 8.54988 2.38705 L 8.5987 2.49623 L 8.64662 2.60516 L 8.69368 2.71382 L 8.73989 2.82223 L 8.78528 2.93036 L 8.82987 3.03823 L 8.87369 3.14584 L 8.91676 3.25317 L 8.95909 3.36024 L 9.00071 3.46704 L 9.04163 3.57358 L 9.08188 3.67985 L 9.12147 3.78585 L 9.16042 3.89158 L 9.19875 3.99705 L 9.23647 4.10226 L 9.2736 4.2072 L 9.31016 4.31189 L 9.34615 4.41631 L 9.3816 4.52048 L 9.41651 4.62438 L 9.45091 4.72804 L 9.4848 4.83144 L 9.51819 4.93459 L 9.55111 5.03749 L 9.58356 5.14014 L 9.54699 5.20774 L 9.50995 5.27508 L 9.47244 5.34215 L 9.36266 5.5323 L 9.32333 5.59832 L 9.28353 5.66407 L 9.24327 5.72953 L 9.13815 5.75276 L 9.03258 5.7757 L 8.92655 5.79836 L 8.82006 5.82071 L 8.71309 5.84275 L 8.60565 5.86446 L 8.49771 5.88585 L 8.38928 5.90689 L 8.28035 5.92757 L 8.1709 5.94789 L 8.06093 5.96783 L 7.95042 5.98737 L 7.83938 6.0065 L 7.72778 6.02522 L 7.61563 6.0435 L 7.5029 6.06132 L 7.3896 6.07868 L 7.27571 6.09555 L 7.16122 6.11193 L 7.04612 6.12778 L 6.93041 6.14309 L 6.81406 6.15785 L 6.69708 6.17203 L 6.57945 6.18561 L 6.46115 6.19857 L 6.34219 6.21089 L 6.22254 6.22254 L 6.22254 6.22254 L 6.21089 6.34219 L 6.19857 6.46115 L 6.18561 6.57945 L 6.17203 6.69708 L 6.15785 6.81406 L 6.14309 6.93041 L 6.12778 7.04612 L 6.11193 7.16122 L 6.09555 7.27571 L 6.07868 7.3896 L 6.06132 7.5029 L 6.0435 7.61563 L 6.02522 7.72778 L 6.0065 7.83938 L 5.98737 7.95042 L 5.96783 8.06093 L 5.94789 8.1709 L 5.92757 8.28035 L 5.90689 8.38928 L 5.88585 8.49771 L 5.86446 8.60565 L 5.84275 8.71309 L 5.82071 8.82006 L 5.79836 8.92655 L 5.7757 9.03258 L 5.75276 9.13815 L 5.72953 9.24327 L 5.66407 9.28353 L 5.59832 9.32333 L 5.5323 9.36266 L 5.34215 9.47244 L 5.27508 9.50995 L 5.20774 9.54699 L 5.14014 9.58356 L 5.03749 9.55111 L 4.93459 9.51819 L 4.83144 9.4848 L 4.72804 9.45091 L 4.62438 9.41651 L 4.52048 9.3816 L 4.41631 9.34615 L 4.31189 9.31016 L 4.2072 9.2736 L 4.10226 9.23647 L 3.99705 9.19875 L 3.89158 9.16042 L 3.78585 9.12147 L 3.67985 9.08188 L 3.57358 9.04163 L 3.46704 9.00071 L 3.36024 8.95909 L 3.25317 8.91676 L 3.14584 8.87369 L 3.03823 8.82987 L 2.93036 8.78528 L 2.82223 8.73989 L 2.71382 8.69368 L 2.60516 8.64662 L 2.49623 8.5987 L 2.38705 8.54988 L 2.27761 8.50015 L 2.27761 8.50015 L 2.2077 8.59794 L 2.13755 8.69481 L 2.06718 8.79077 L 1.9966 8.88586 L 1.92582 8.98008 L 1.85487 9.07346 L 1.78375 9.16601 L 1.71247 9.25776 L 1.64105 9.34873 L 1.56949 9.43892 L 1.49781 9.52837 L 1.42601 9.61707 L 1.3541 9.70506 L 1.2821 9.79235 L 1.21 9.87895 L 1.13783 9.96488 L 1.06558 10.0502 L 0.993256 10.1348 L 0.920875 10.2188 L 0.848438 10.3022 L 0.775952 10.3849 L 0.703421 10.4671 L 0.630852 10.5487 L 0.558249 10.6298 L 0.485617 10.7103 L 0.412961 10.7902 L 0.340284 10.8697 L 0.263462 10.8718 L 0.186626 10.8734 L 0.109782 10.8744 L -0.109782 10.8744 L -0.186626 10.8734 L -0.263462 10.8718 L -0.340284 10.8697 L -0.412961 10.7902 L -0.485617 10.7103 L -0.558249 10.6298 L -0.630852 10.5487 L -0.703421 10.4671 L -0.775952 10.3849 L -0.848438 10.3022 L -0.920875 10.2188 L -0.993256 10.1348 L -1.06558 10.0502 L -1.13783 9.96488 L -1.21 9.87895 L -1.2821 9.79235 L -1.3541 9.70506 L -1.42601 9.61707 L -1.49781 9.52837 L -1.56949 9.43892 L -1.64105 9.34873 L -1.71247 9.25776 L -1.78375 9.16601 L -1.85487 9.07346 L -1.92582 8.98008 L -1.9966 8.88586 L -2.06718 8.79077 L -2.13755 8.69481 L -2.2077 8.59794 L -2.27761 8.50015 L -2.27761 8.50015 L -2.38705 8.54988 L -2.49623 8.5987 L -2.60516 8.64662 L -2.71382 8.69368 L -2.82223 8.73989 L -2.93036 8.78528 L -3.03823 8.82987 L -3.14584 8.87369 L -3.25317 8.91676 L -3.36024 8.95909 L -3.46704 9.00071 L -3.57358 9.04163 L -3.67985 9.08188 L -3.78585 9.12147 L -3.89158 9.16042 L -3.99705 9.19875 L -4.10226 9.23647 L -4.2072 9.2736 L -4.31189 9.31016 L -4.41631 9.34615 L -4.52048 9.3816 L -4.62438 9.41651 L -4.72804 9.45091 L -4.83144 9.4848 L -4.93459 9.51819 L -5.03749 9.55111 L -5.14014 9.58356 L -5.20774 9.54699 L -5.27508 9.50995 L -5.34215 9.47244 L -5.5323 9.36266 L -5.59832 9.32333 L -5.66407 9.28353 L -5.72953 9.24327 L -5.75276 9.13815 L -5.7757 9.03258 L -5.79836 8.92655 L -5.82071 8.82006 L -5.84275 8.71309 L -5.86446 8.60565 L -5.88585 8.49771 L -5.90689 8.38928 L -5.92757 8.28035 L -5.94789 8.1709 L -5.96783 8.06093 L -5.98737 7.95042 L -6.0065 7.83938 L -6.02522 7.72778 L -6.0435 7.61563 L -6.06132 7.5029 L -6.07868 7.3896 L -6.09555 7.27571 L -6.11193 7.16122 L -6.12778 7.04612 L -6.14309 6.93041 L -6.15785 6.81406 L -6.17203 6.69708 L -6.18561 6.57945 L -6.19857 6.46115 L -6.21089 6.34219 L -6.22254 6.22254 L -6.22254 6.22254 L -6.34219 6.21089 L -6.46115 6.19857 L -6.57945 6.18561 L -6.69708 6.17203 L -6.81406 6.15785 L -6.93041 6.14309 L -7.04612 6.12778 L -7.16122 6.11193 L -7.27571 6.09555 L -7.3896 6.07868 L -7.5029 6.06132 L -7.61563 6.0435 L -7.72778 6.02522 L -7.83938 6.0065 L -7.95042 5.98737 L -8.06093 5.96783 L -8.1709 5.94789 L -8.28035 5.92757 L -8.38928 5.90689 L -8.49771 5.88585 L -8.60565 5.86446 L -8.71309 5.84275 L -8.82006 5.82071 L -8.92655 5.79836 L -9.03258 5.7757 L -9.13815 5.75276 L -9.24327 5.72953 L -9.28353 5.66407 L -9.32333 5.59832 L -9.36266 5.5323 L -9.47244 5.34215 L -9.50995 5.27508 L -9.54699 5.20774 L -9.58356 5.14014 L -9.55111 5.03749 L -9.51819 4.93459 L -9.4848 4.83144 L -9.45091 4.72804 L -9.41651 4.62438 L -9.3816 4.52048 L -9.34615 4.41631 L -9.31016 4.31189 L -9.2736 4.2072 L -9.23647 4.10226 L -9.19875 3.99705 L -9.16042 3.89158 L -9.12147 3.78585 L -9.08188 3.67985 L -9.04163 3.57358 L -9.00071 3.46704 L -8.95909 3.36024 L -8.91676 3.25317 L -8.87369 3.14584 L -8.82987 3.03823 L -8.78528 2.93036 L -8.73989 2.82223 L -8.69368 2.71382 L -8.64662 2.60516 L -8.5987 2.49623 L -8.54988 2.38705 L -8.50015 2.27761 L -8.50015 2.27761 L -8.59794 2.2077 L -8.69481 2.13755 L -8.79077 2.06718 L -8.88586 1.9966 L -8.98008 1.92582 L -9.07346 1.85487 L -9.16601 1.78375 L -9.25776 1.71247 L -9.34873 1.64105 L -9.43892 1.56949 L -9.52837 1.49781 L -9.61707 1.42601 L -9.70506 1.3541 L -9.79235 1.2821 L -9.87895 1.21 L -9.96488 1.13783 L -10.0502 1.06558 L -10.1348 0.993256 L -10.2188 0.920875 L -10.3022 0.848438 L -10.3849 0.775952 L -10.4671 0.703421 L -10.5487 0.630852 L -10.6298 0.558249 L -10.7103 0.485617 L -10.7902 0.412961 L -10.8697 0.340284 L -10.8718 0.263462 L -10.8734 0.186626 L -10.8744 0.109782 L -10.8744 -0.109782 L -10.8734 -0.186626 L -10.8718 -0.263462 L -10.8697 -0.340284 L -10.7902 -0.412961 L -10.7103 -0.485617 L -10.6298 -0.558249 L -10.5487 -0.630852 L -10.4671 -0.703421 L -10.3849 -0.775952 L -10.3022 -0.848438 L -10.2188 -0.920875 L -10.1348 -0.993256 L -10.0502 -1.06558 L -9.96488 -1.13783 L -9.87895 -1.21 L -9.79235 -1.2821 L -9.70506 -1.3541 L -9.61707 -1.42601 L -9.52837 -1.49781 L -9.43892 -1.56949 L -9.34873 -1.64105 L -9.25776 -1.71247 L -9.16601 -1.78375 L -9.07346 -1.85487 L -8.98008 -1.92582 L -8.88586 -1.9966 L -8.79077 -2.06718 L -8.69481 -2.13755 L -8.59794 -2.2077 L -8.50015 -2.27761 L -8.50015 -2.27761 L -8.54988 -2.38705 L -8.5987 -2.49623 L -8.64662 -2.60516 L -8.69368 -2.71382 L -8.73989 -2.82223 L -8.78528 -2.93036 L -8.82987 -3.03823 L -8.87369 -3.14584 L -8.91676 -3.25317 L -8.95909 -3.36024 L -9.00071 -3.46704 L -9.04163 -3.57358 L -9.08188 -3.67985 L -9.12147 -3.78585 L -9.16042 -3.89158 L -9.19875 -3.99705 L -9.23647 -4.10226 L -9.2736 -4.2072 L -9.31016 -4.31189 L -9.34615 -4.41631 L -9.3816 -4.52048 L -9.41651 -4.62438 L -9.45091 -4.72804 L -9.4848 -4.83144 L -9.51819 -4.93459 L -9.55111 -5.03749 L -9.58356 -5.14014 L -9.54699 -5.20774 L -9.50995 -5.27508 L -9.47244 -5.34215 L -9.36266 -5.5323 L -9.32333 -5.59832 L -9.28353 -5.66407 L -9.24327 -5.72953 L -9.13815 -5.75276 L -9.03258 -5.7757 L -8.92655 -5.79836 L -8.82006 -5.82071 L -8.71309 -5.84275 L -8.60565 -5.86446 L -8.49771 -5.88585 L -8.38928 -5.90689 L -8.28035 -5.92757 L -8.1709 -5.94789 L -8.06093 -5.96783 L -7.95042 -5.98737 L -7.83938 -6.0065 L -7.72778 -6.02522 L -7.61563 -6.0435 L -7.5029 -6.06132 L -7.3896 -6.07868 L -7.27571 -6.09555 L -7.16122 -6.11193 L -7.04612 -6.12778 L -6.93041 -6.14309 L -6.81406 -6.15785 L -6.69708 -6.17203 L -6.57945 -6.18561 L -6.46115 -6.19857 L -6.34219 -6.21089 L -6.22254 -6.22254 L -6.22254 -6.22254 L -6.21089 -6.34219 L -6.19857 -6.46115 L -6.18561 -6.57945 L -6.17203 -6.69708 L -6.15785 -6.81406 L -6.14309 -6.93041 L -6.12778 -7.04612 L -6.11193 -7.16122 L -6.09555 -7.27571 L -6.07868 -7.3896 L -6.06132 -7.5029 L -6.0435 -7.61563 L -6.02522 -7.72778 L -6.0065 -7.83938 L -5.98737 -7.95042 L -5.96783 -8.06093 L -5.94789 -8.1709 L -5.92757 -8.28035 L -5.90689 -8.38928 L -5.88585 -8.49771 L -5.86446 -8.60565 L -5.84275 -8.71309 L -5.82071 -8.82006 L -5.79836 -8.92655 L -5.7757 -9.03258 L -5.75276 -9.13815 L -5.72953 -9.24327 L -5.66407 -9.28353 L -5.59832 -9.32333 L -5.5323 -9.36266 L -5.34215 -9.47244 L -5.27508 -9.50995 L -5.20774 -9.54699 L -5.14014 -9.58356 L -5.03749 -9.55111 L -4.93459 -9.51819 L -4.83144 -9.4848 L -4.72804 -9.45091 L -4.62438 -9.41651 L -4.52048 -9.3816 L -4.41631 -9.34615 L -4.31189 -9.31016 L -4.2072 -9.2736 L -4.10226 -9.23647 L -3.99705 -9.19875 L -3.89158 -9.16042 L -3.78585 -9.12147 L -3.67985 -9.08188 L -3.57358 -9.04163 L -3.46704 -9.00071 L -3.36024 -8.95909 L -3.25317 -8.91676 L -3.14584 -8.87369 L -3.03823 -8.82987 L -2.93036 -8.78528 L -2.82223 -8.73989 L -2.71382 -8.69368 L -2.60516 -8.64662 L -2.49623 -8.5987 L -2.38705 -8.54988 L -2.27761 -8.50015 L -2.27761 -8.50015 L -2.2077 -8.59794 L -2.13755 -8.69481 L -2.06718 -8.79077 L -1.9966 -8.88586 L -1.92582 -8.98008 L -1.85487 -9.07346 L -1.78375 -9.16601 L -1.71247 -9.25776 L -1.64105 -9.34873 L -1.56949 -9.43892 L -1.49781 -9.52837 L -1.42601 -9.61707 L -1.3541 -9.70506 L -1.2821 -9.79235 L -1.21 -9.87895 L -1.13783 -9.96488 L -1.06558 -10.0502 L -0.993256 -10.1348 L -0.920875 -10.2188 L -0.848438 -10.3022 L -0.775952 -10.3849 L -0.703421 -10.4671 L -0.630852 -10.5487 L -0.558249 -10.6298 L -0.485617 -10.7103 L -0.412961 -10.7902 L -0.340284 -10.8697 L -0.263462 -10.8718 L -0.186626 -10.8734 L -0.109782 -10.8744 L 0.109782 -10.8744 L 0.186626 -10.8734 L 0.263462 -10.8718 L 0.340284 -10.8697 L 0.412961 -10.7902 L 0.485617 -10.7103 L 0.558249 -10.6298 L 0.630852 -10.5487 L 0.703421 -10.4671 L 0.775952 -10.3849 L 0.848438 -10.3022 L 0.920875 -10.2188 L 0.993256 -10.1348 L 1.06558 -10.0502 L 1.13783 -9.96488 L 1.21 -9.87895 L 1.2821 -9.79235 L 1.3541 -9.70506 L 1.42601 -9.61707 L 1.49781 -9.52837 L 1.56949 -9.43892 L 1.64105 -9.34873 L 1.71247 -9.25776 L 1.78375 -9.16601 L 1.85487 -9.07346 L 1.92582 -8.98008 L 1.9966 -8.88586 L 2.06718 -8.79077 L 2.13755 -8.69481 L 2.2077 -8.59794 L 2.27761 -8.50015 L 2.27761 -8.50015 L 2.38705 -8.54988 L 2.49623 -8.5987 L 2.60516 -8.64662 L 2.71382 -8.69368 L 2.82223 -8.73989 L 2.93036 -8.78528 L 3.03823 -8.82987 L 3.14584 -8.87369 L 3.25317 -8.91676 L 3.36024 -8.95909 L 3.46704 -9.00071 L 3.57358 -9.04163 L 3.67985 -9.08188 L 3.78585 -9.12147 L 3.89158 -9.16042 L 3.99705 -9.19875 L 4.10226 -9.23647 L 4.2072 -9.2736 L 4.31189 -9.31016 L 4.41631 -9.34615 L 4.52048 -9.3816 L 4.62438 -9.41651 L 4.72804 -9.45091 L 4.83144 -9.4848 L 4.93459 -9.51819 L 5.03749 -9.55111 L 5.14014 -9.58356 L 5.20774 -9.54699 L 5.27508 -9.50995 L 5.34215 -9.47244 L 5.5323 -9.36266 L 5.59832 -9.32333 L 5.66407 -9.28353 L 5.72953 -9.24327 L 5.75276 -9.13815 L 5.7757 -9.03258 L 5.79836 -8.92655 L 5.82071 -8.82006 L 5.84275 -8.71309 L 5.86446 -8.60565 L 5.88585 -8.49771 L 5.90689 -8.38928 L 5.92757 -8.28035 L 5.94789 -8.1709 L 5.96783 -8.06093 L 5.98737 -7.95042 L 6.0065 -7.83938 L 6.02522 -7.72778 L 6.0435 -7.61563 L 6.06132 -7.5029 L 6.07868 -7.3896 L 6.09555 -7.27571 L 6.11193 -7.16122 L 6.12778 -7.04612 L 6.14309 -6.93041 L 6.15785 -6.81406 L 6.17203 -6.69708 L 6.18561 -6.57945 L 6.19857 -6.46115 L 6.21089 -6.34219 L 6.22254 -6.22254 L 6.22254 -6.22254 L 6.34219 -6.21089 L 6.46115 -6.19857 L 6.57945 -6.18561 L 6.69708 -6.17203 L 6.81406 -6.15785 L 6.93041 -6.14309 L 7.04612 -6.12778 L 7.16122 -6.11193 L 7.27571 -6.09555 L 7.3896 -6.07868 L 7.5029 -6.06132 L 7.61563 -6.0435 L 7.72778 -6.02522 L 7.83938 -6.0065 L 7.95042 -5.98737 L 8.06093 -5.96783 L 8.1709 -5.94789 L 8.28035 -5.92757 L 8.38928 -5.90689 L 8.49771 -5.88585 L 8.60565 -5.86446 L 8.71309 -5.84275 L 8.82006 -5.82071 L 8.92655 -5.79836 L 9.03258 -5.7757 L 9.13815 -5.75276 L 9.24327 -5.72953 L 9.28353 -5.66407 L 9.32333 -5.59832 L 9.36266 -5.5323 L 9.47244 -5.34215 L 9.50995 -5.27508 L 9.54699 -5.20774 L 9.58356 -5.14014 L 9.55111 -5.03749 L 9.51819 -4.93459 L 9.4848 -4.83144 L 9.45091 -4.72804 L 9.41651 -4.62438 L 9.3816 -4.52048 L 9.34615 -4.41631 L 9.31016 -4.31189 L 9.2736 -4.2072 L 9.23647 -4.10226 L 9.19875 -3.99705 L 9.16042 -3.89158 L 9.12147 -3.78585 L 9.08188 -3.67985 L 9.04163 -3.57358 L 9.00071 -3.46704 L 8.95909 -3.36024 L 8.91676 -3.25317 L 8.87369 -3.14584 L 8.82987 -3.03823 L 8.78528 -2.93036 L 8.73989 -2.82223 L 8.69368 -2.71382 L 8.64662 -2.60516 L 8.5987 -2.49623 L 8.54988 -2.38705 L 8.50015 -2.27761 L 8.50015 -2.27761 L 8.59794 -2.2077 L 8.69481 -2.13755 L 8.79077 -2.06718 L 8.88586 -1.9966 L 8.98008 -1.92582 L 9.07346 -1.85487 L 9.16601 -1.78375 L 9.25776 -1.71247 L 9.34873 -1.64105 L 9.43892 -1.56949 L 9.52837 -1.49781 L 9.61707 -1.42601 L 9.70506 -1.3541 L 9.79235 -1.2821 L 9.87895 -1.21 L 9.96488 -1.13783 L 10.0502 -1.06558 L 10.1348 -0.993256 L 10.2188 -0.920875 L 10.3022 -0.848438 L 10.3849 -0.775952 L 10.4671 -0.703421 L 10.5487 -0.630852 L 10.6298 -0.558249 L 10.7103 -0.485617 L 10.7902 -0.412961 L 10.8697 -0.340284 L 10.8718 -0.263462 L 10.8734 -0.186626 L 10.8744 -0.109782Z"
id="path1" />
</g>
</svg>
