<?xml version="1.0" encoding="UTF-8" standalone="no"?>
<svg version="1.1">
<g
style="fill:none;stroke:#000000;stroke-opacity:1;stroke-width:0.1">
<path d="M 11.8748 0.0685668 L 11.8743 0.12785 L 11.8735 0.187131 L 11.8724 0.246407 L 11.8711 0.305676 L 11.8694 0.364938 L 11.8674 0.424191 L 11.8652 0.483434 L 11.8626 0.542664 L 11.8597 0.601881 L 11.7974 0.657898 L 11.7347 0.713899 L 11.6718 0.769881 L 11.6085 0.825843 L 11.5449 0.881783 L 11.4811 0.937699 L 11.4168 0.993589 L 11.3523 1.04945 L 11.2874 1.10528 L 11.2222 1.16108 L 11.1567 1.21684 L 11.0908 1.27256 L 11.0246 1.32825 L 10.958 1.38389 L 10.891 1.43949 L 10.8237 1.49503 L 10.756 1.55053 L 10.6879 1.60597 L 10.6194 1.66135 L 10.5505 1.71667 L 10.4813 1.77193 L 10.4116 1.82711 L 10.3415 1.88223 L 10.271 1.93727 L 10.2001 1.99223 L 10.1288 2.0471 L 10.057 2.10189 L 9.98476 2.15658 L 9.91207 2.21118 L 9.83893 2.26567 L 9.76532 2.32006 L 9.69124 2.37434 L 9.61668 2.42849 L 9.54162 2.48252 L 9.46607 2.53643 L 9.46607 2.53643 L 9.50455 2.62088 L 9.54253 2.7052 L 9.58003 2.78939 L 9.61705 2.87343 L 9.6536 2.95733 L 9.6897 3.0411 L 9.72535 3.12472 L 9.76055 3.2082 L 9.79533 3.29154 L 9.82968 3.37474 L 9.86362 3.4578 L 9.89715 3.54071 L 9.93028 3.62348 L 9.96302 3.70611 L 9.99537 3.78859 L 10.0273 3.87093 L 10.059 3.95313 L 10.0902 4.03518 L 10.1211 4.1171 L 10.1516 4.19887 L 10.1818 4.2805 L 10.2117 4.36198 L 10.2412 4.44333 L 10.2704 4.52453 L 10.2993 4.6056 L 10.3279 4.68652 L 10.3561 4.7673 L 10.3841 4.84795 L 10.4117 4.92846 L 10.4391 5.00883 L 10.4662 5.08906 L 10.493 5.16915 L 10.5195 5.24911 L 10.5458 5.32894 L 10.5718 5.40862 L 10.5446 5.46134 L 10.5172 5.51391 L 10.4896 5.56635 L 10.4617 5.61865 L 10.4335 5.67081 L 10.405 5.72283 L 10.3763 5.7747 L 10.3474 5.82643 L 10.3182 5.87802 L 10.2496 5.99678 L 10.2195 6.04788 L 10.1892 6.09882 L 10.1586 6.14962 L 10.1278 6.20026 L 10.0967 6.25074 L 10.0654 6.30107 L 10.0338 6.35124 L 10.002 6.40126 L 9.96989 6.45111 L 9.88789 6.46845 L 9.80563 6.48562 L 9.72312 6.50263 L 9.64035 6.51946 L 9.55732 6.53612 L 9.47404 6.5526 L 9.39048 6.5689 L 9.30666 6.58501 L 9.22257 6.60092 L 9.1382 6.61664 L 9.05356 6.63216 L 8.96863 6.64747 L 8.88342 6.66258 L 8.79793 6.67746 L 8.71214 6.69213 L 8.62605 6.70657 L 8.53967 6.72078 L 8.45299 6.73474 L 8.366 6.74847 L 8.2787 6.76195 L 8.19109 6.77517 L 8.10316 6.78813 L 8.01492 6.80083 L 7.92635 6.81324 L 7.83745 6.82538 L 7.74822 6.83723 L 7.65866 6.84878 L 7.56876 6.86004 L 7.47852 6.87098 L 7.38793 6.8816 L 7.29699 6.89189 L 7.20569 6.90186 L 7.11404 6.91147 L 7.02203 6.92074 L 6.92965 6.92965 L 6.92965 6.92965 L 6.92074 7.02203 L 6.91147 7.11404 L 6.90186 7.20569 L 6.89189 7.29699 L 6.8816 7.38793 L 6.87098 7.47852 L 6.86004 7.56876 L 6.84878 7.65866 L 6.83723 7.74822 L 6.82538 7.83745 L 6.81324 7.92635 L 6.80083 8.01492 L 6.78813 8.10316 L 6.77517 8.19109 L 6.76195 8.2787 L 6.74847 8.366 L 6.73474 8.45299 L 6.72078 8.53967 L 6.70657 8.62605 L 6.69213 8.71214 L 6.67746 8.79793 L 6.66258 8.88342 L 6.64747 8.96863 L 6.63216 9.05356 L 6.61664 9.1382 L 6.60092 9.22257 L 6.58501 9.30666 L 6.5689 9.39048 L 6.5526 9.47404 L 6.53612 9.55732 L 6.51946 9.64035 L 6.50263 9.72312 L 6.48562 9.80563 L 6.46845 9.88789 L 6.45111 9.96989 L 6.40126 10.002 L 6.35124 10.0338 L 6.30107 10.0654 L 6.25074 10.0967 L 6.20026 10.1278 L 6.14962 10.1586 L 6.09882 10.1892 L 6.04788 10.2195 L 5.99678 10.2496 L 5.87802 10.3182 L 5.82643 10.3474 L 5.7747 10.3763 L 5.72283 10.405 L 5.67081 10.4335 L 5.61865 10.4617 L 5.56635 10.4896 L 5.51391 10.5172 L 5.46134 10.5446 L 5.40862 10.5718 L 5.32894 10.5458 L 5.24911 10.5195 L 5.16915 10.493 L 5.08906 10.4662 L 5.00883 10.4391 L 4.92846 10.4117 L 4.84795 10.3841 L 4.7673 10.3561 L 4.68652 10.3279 L 4.6056 10.2993 L 4.52453 10.2704 L 4.44333 10.2412 L 4.36198 10.2117 L 4.2805 10.1818 L 4.19887 10.1516 L 4.1171 10.1211 L 4.03518 10.0902 L 3.95313 10.059 L 3.87093 10.0273 L 3.78859 9.99537 L 3.70611 9.96302 L 3.62348 9.93028 L 3.54071 9.89715 L 3.4578 9.86362 L 3.37474 9.82968 L 3.29154 9.79533 L 3.2082 9.76055 L 3.12472 9.72535 L 3.0411 9.6897 L 2.95733 9.6536 L 2.87343 9.61705 L 2.78939 9.58003 L 2.7052 9.54253 L 2.62088 9.50455 L 2.53643 9.46607 L 2.53643 9.46607 L 2.48252 9.54162 L 2.42849 9.61668 L 2.37434 9.69124 L 2.32006 9.76532 L 2.26567 9.83893 L 2.21118 9.91207 L 2.15658 9.98476 L 2.10189 10.057 L 2.0471 10.1288 L 1.99223 10.2001 L 1.93727 10.271 L 1.88223 10.3415 L 1.82711 10.4116 L 1.77193 10.4813 L 1.71667 10.5505 L 1.66135 10.6194 L 1.60597 10.6879 L 1.55053 10.756 L 1.49503 10.8237 L 1.43949 10.891 L 1.38389 10.958 L 1.32825 11.0246 L 1.27256 11.0908 L 1.21684 11.1567 L 1.16108 11.2222 L 1.10528 11.2874 L 1.04945 11.3523 L 0.993589 11.4168 L 0.937699 11.4811 L 0.881783 11.5449 L 0.825843 11.6085 L 0.769881 11.6718 L 0.713899 11.7347 L 0.657898 11.7974 L 0.601881 11.8597 L 0.542664 11.8626 L 0.483434 11.8652 L 0.424191 11.8674 L 0.364938 11.8694 L 0.305676 11.8711 L 0.246407 11.8724 L 0.187131 11.8735 L 0.12785 11.8743 L 0.0685668 11.8748 L -0.0685668 11.8748 L -0.12785 11.8743 L -0.187131 11.8735 L -0.246407 11.8724 L -0.305676 11.8711 L -0.364938 11.8694 L -0.424191 11.8674 L -0.483434 11.8652 L -0.542664 11.8626 L -0.601881 11.8597 L -0.657898 11.7974 L -0.713899 11.7347 L -0.769881 11.6718 L -0.825843 11.6085 L -0.881783 11.5449 L -0.937699 11.4811 L -0.993589 11.4168 L -1.04945 11.3523 L -1.10528 11.2874 L -1.16108 11.2222 L -1.21684 11.1567 L -1.27256 11.0908 L -1.32825 11.0246 L -1.38389 10.958 L -1.43949 10.891 L -1.49503 10.8237 L -1.55053 10.756 L -1.60597 10.6879 L -1.66135 10.6194 L -1.71667 10.5505 L -1.77193 10.4813 L -1.82711 10.4116 L -1.88223 10.3415 L -1.93727 10.271 L -1.99223 10.2001 L -2.0471 10.1288 L -2.10189 10.057 L -2.15658 9.98476 L -2.21118 9.91207 L -2.26567 9.83893 L -2.32006 9.76532 L -2.37434 9.69124 L -2.42849 9.61668 L -2.48252 9.54162 L -2.53643 9.46607 L -2.53643 9.46607 L -2.62088 9.50455 L -2.7052 9.54253 L -2.78939 9.58003 L -2.87343 9.61705 L -2.95733 9.6536 L -3.0411 9.6897 L -3.12472 9.72535 L -3.2082 9.76055 L -3.29154 9.79533 L -3.37474 9.82968 L -3.4578 9.86362 L -3.54071 9.89715 L -3.62348 9.93028 L -3.70611 9.96302 L -3.78859 9.99537 L -3.87093 10.0273 L -3.95313 10.059 L -4.03518 10.0902 L -4.1171 10.1211 L -4.19887 10.1516 L -4.2805 10.1818 L -4.36198 10.2117 L -4.44333 10.2412 L -4.52453 10.2704 L -4.6056 10.2993 L -4.68652 10.3279 L -4.7673 10.3561 L -4.84795 10.3841 L -4.92846 10.4117 L -5.00883 10.4391 L -5.08906 10.4662 L -5.16915 10.493 L -5.24911 10.5195 L -5.32894 10.5458 L -5.40862 10.5718 L -5.46134 10.5446 L -5.51391 10.5172 L -5.56635 10.4896 L -5.61865 10.4617 L -5.67081 10.4335 L -5.72283 10.405 L -5.7747 10.3763 L -5.82643 10.3474 L -5.87802 10.3182 L -5.99678 10.2496 L -6.04788 10.2195 L -6.09882 10.1892 L -6.14962 10.1586 L -6.20026 10.1278 L -6.25074 10.0967 L -6.30107 10.0654 L -6.35124 10.0338 L -6.40126 10.002 L -6.45111 9.96989 L -6.46845 9.88789 L -6.48562 9.80563 L -6.50263 9.72312 L -6.51946 9.64035 L -6.53612 9.55732 L -6.5526 9.47404 L -6.5689 9.39048 L -6.58501 9.30666 L -6.60092 9.22257 L -6.61664 9.1382 L -6.63216 9.05356 L -6.64747 8.96863 L -6.66258 8.88342 L -6.67746 8.79793 L -6.69213 8.71214 L -6.70657 8.62605 L -6.72078 8.53967 L -6.73474 8.45299 L -6.74847 8.366 L -6.76195 8.2787 L -6.77517 8.19109 L -6.78813 8.10316 L -6.80083 8.01492 L -6.81324 7.92635 L -6.82538 7.83745 L -6.83723 7.74822 L -6.84878 7.65866 L -6.86004 7.56876 L -6.87098 7.47852 L -6.8816 7.38793 L -6.89189 7.29699 L -6.90186 7.20569 L -6.91147 7.11404 L -6.92074 7.02203 L -6.92965 6.92965 L -6.92965 6.92965 L -7.02203 6.92074 L -7.11404 6.91147 L -7.20569 6.90186 L -7.29699 6.89189 L -7.38793 6.8816 L -7.47852 6.87098 L -7.56876 6.86004 L -7.65866 6.84878 L -7.74822 6.83723 L -7.83745 6.82538 L -7.92635 6.81324 L -8.01492 6.80083 L -8.10316 6.78813 L -8.19109 6.77517 L -8.2787 6.76195 L -8.366 6.74847 L -8.45299 6.73474 L -8.53967 6.72078 L -8.62605 6.70657 L -8.71214 6.69213 L -8.79793 6.67746 L -8.88342 6.66258 L -8.96863 6.64747 L -9.05356 6.63216 L -9.1382 6.61664 L -9.22257 6.60092 L -9.30666 6.58501 L -9.39048 6.5689 L -9.47404 6.5526 L -9.55732 6.53612 L -9.64035 6.51946 L -9.72312 6.50263 L -9.80563 6.48562 L -9.88789 6.46845 L -9.96989 6.45111 L -10.002 6.40126 L -10.0338 6.35124 L -10.0654 6.30107 L -10.0967 6.25074 L -10.1278 6.20026 L -10.1586 6.14962 L -10.1892 6.09882 L -10.2195 6.04788 L -10.2496 5.99678 L -10.3182 5.87802 L -10.3474 5.82643 L -10.3763 5.7747 L -10.405 5.72283 L -10.4335 5.67081 L -10.4617 5.61865 L -10.4896 5.56635 L -10.5172 5.51391 L -10.5446 5.46134 L -10.5718 5.40862 L -10.5458 5.32894 L -10.5195 5.24911 L -10.493 5.16915 L -10.4662 5.08906 L -10.4391 5.00883 L -10.4117 4.92846 L -10.3841 4.84795 L -10.3561 4.7673 L -10.3279 4.68652 L -10.2993 4.6056 L -10.2704 4.52453 L -10.2412 4.44333 L -10.2117 4.36198 L -10.1818 4.2805 L -10.1516 4.19887 L -10.1211 4.1171 L -10.0902 4.03518 L -10.059 3.95313 L -10.0273 3.87093 L -9.99537 3.78859 L -9.96302 3.70611 L -9.93028 3.62348 L -9.89715 3.54071 L -9.86362 3.4578 L -9.82968 3.37474 L -9.79533 3.29154 L -9.76055 3.2082 L -9.72535 3.12472 L -9.6897 3.0411 L -9.6536 2.95733 L -9.61705 2.87343 L -9.58003 2.78939 L -9.54253 2.7052 L -9.50455 2.62088 L -9.46607 2.53643 L -9.46607 2.53643 L -9.54162 2.48252 L -9.61668 2.42849 L -9.69124 2.37434 L -9.76532 2.32006 L -9.83893 2.26567 L -9.91207 2.21118 L -9.98476 2.15658 L -10.057 2.10189 L -10.1288 2.0471 L -10.2001 1.99223 L -10.271 1.93727 L -10.3415 1.88223 L -10.4116 1.82711 L -10.4813 1.77193 L -10.5505 1.71667 L -10.6194 1.66135 L -10.6879 1.60597 L -10.756 1.55053 L -10.8237 1.49503 L -10.891 1.43949 L -10.958 1.38389 L -11.0246 1.32825 L -11.0908 1.27256 L -11.1567 1.21684 L -11.2222 1.16108 L -11.2874 1.10528 L -11.3523 1.04945 L -11.4168 0.993589 L -11.4811 0.937699 L -11.5449 0.881783 L -11.6085 0.825843 L -11.6718 0.769881 L -11.7347 0.713899 L -11.7974 0.657898 L -11.8597 0.601881 L -11.8626 0.542664 L -11.8652 0.483434 L -11.8674 0.424191 L -11.8694 0.364938 L -11.8711 0.305676 L -11.8724 0.246407 L -11.8735 0.187131 L -11.8743 0.12785 L -11.8748 0.0685668 L -11.8748 -0.0685668 L -11.8743 -0.12785 L -11.8735 -0.187131 L -11.8724 -0.246407 L -11.8711 -0.305676 L -11.8694 -0.364938 L -11.8674 -0.424191 L -11.8652 -0.483434 L -11.8626 -0.542664 L -11.8597 -0.601881 L -11.7974 -0.657898 L -11.7347 -0.713899 L -11.6718 -0.769881 L -11.6085 -0.825843 L -11.5449 -0.881783 L -11.4811 -0.937699 L -11.4168 -0.993589 L -11.3523 -1.04945 L -11.2874 -1.10528 L -11.2222 -1.16108 L -11.1567 -1.21684 L -11.0908 -1.27256 L -11.0246 -1.32825 L -10.958 -1.38389 L -10.891 -1.43949 L -10.8237 -1.49503 L -10.756 -1.55053 L -10.6879 -1.60597 L -10.6194 -1.66135 L -10.5505 -1.71667 L -10.4813 -1.77193 L -10.4116 -1.82711 L -10.3415 -1.88223 L -10.271 -1.93727 L -10.2001 -1.99223 L -10.1288 -2.0471 L -10.057 -2.10189 L -9.98476 -2.15658 L -9.91207 -2.21118 L -9.83893 -2.26567 L -9.76532 -2.32006 L -9.69124 -2.37434 L -9.61668 -2.42849 L -9.54162 -2.48252 L -9.46607 -2.53643 L -9.46607 -2.53643 L -9.50455 -2.62088 L -9.54253 -2.7052 L -9.58003 -2.78939 L -9.61705 -2.87343 L -9.6536 -2.95733 L -9.6897 -3.0411 L -9.72535 -3.12472 L -9.76055 -3.2082 L -9.79533 -3.29154 L -9.82968 -3.37474 L -9.86362 -3.4578 L -9.89715 -3.54071 L -9.93028 -3.62348 L -9.96302 -3.70611 L -9.99537 -3.78859 L -10.0273 -3.87093 L -10.059 -3.95313 L -10.0902 -4.03518 L -10.1211 -4.1171 L -10.1516 -4.19887 L -10.1818 -4.2805 L -10.2117 -4.36198 L -10.2412 -4.44333 L -10.2704 -4.52453 L -10.2993 -4.6056 L -10.3279 -4.68652 L -10.3561 -4.7673 L -10.3841 -4.84795 L -10.4117 -4.92846 L -10.4391 -5.00883 L -10.4662 -5.08906 L -10.493 -5.16915 L -10.5195 -5.24911 L -10.5458 -5.32894 L -10.5718 -5.40862 L -10.5446 -5.46134 L -10.5172 -5.51391 L -10.4896 -5.56635 L -10.4617 -5.61865 L -10.4335 -5.67081 L -10.405 -5.72283 L -10.3763 -5.7747 L -10.3474 -5.82643 L -10.3182 -5.87802 L -10.2496 -5.99678 L -10.2195 -6.04788 L -10.1892 -6.09882 L -10.1586 -6.14962 L -10.1278 -6.20026 L -10.0967 -6.25074 L -10.0654 -6.30107 L -10.0338 -6.35124 L -10.002 -6.40126 L -9.96989 -6.45111 L -9.88789 -6.46845 L -9.80563 -6.48562 L -9.72312 -6.50263 L -9.64035 -6.51946 L -9.55732 -6.53612 L -9.47404 -6.5526 L -9.39048 -6.5689 L -9.30666 -6.58501 L -9.22257 -6.60092 L -9.1382 -6.61664 L -9.05356 -6.63216 L -8.96863 -6.64747 L -8.88342 -6.66258 L -8.79793 -6.67746 L -8.71214 -6.69213 L -8.62605 -6.70657 L -8.53967 -6.72078 L -8.45299 -6.73474 L -8.366 -6.74847 L -8.2787 -6.76195 L -8.19109 -6.77517 L -8.10316 -6.78813 L -8.01492 -6.80083 L -7.92635 -6.81324 L -7.83745 -6.82538 L -7.74822 -6.83723 L -7.65866 -6.84878 L -7.56876 -6.86004 L -7.47852 -6.87098 L -7.38793 -6.8816 L -7.29699 -6.89189 L -7.20569 -6.90186 L -7.11404 -6.91147 L -7.02203 -6.92074 L -6.92965 -6.92965 L -6.92965 -6.92965 L -6.92074 -7.02203 L -6.91147 -7.11404 L -6.90186 -7.20569 L -6.89189 -7.29699 L -6.8816 -7.38793 L -6.87098 -7.47852 L -6.86004 -7.56876 L -6.84878 -7.65866 L -6.83723 -7.74822 L -6.82538 -7.83745 L -6.81324 -7.92635 L -6.80083 -8.01492 L -6.78813 -8.10316 L -6.77517 -8.19109 L -6.76195 -8.2787 L -6.74847 -8.366 L -6.73474 -8.45299 L -6.72078 -8.53967 L -6.70657 -8.62605 L -6.69213 -8.71214 L -6.67746 -8.79793 L -6.66258 -8.88342 L -6.64747 -8.96863 L -6.63216 -9.05356 L -6.61664 -9.1382 L -6.60092 -9.22257 L -6.58501 -9.30666 L -6.5689 -9.39048 L -6.5526 -9.47404 L -6.53612 -9.55732 L -6.51946 -9.64035 L -6.50263 -9.72312 L -6.48562 -9.80563 L -6.46845 -9.88789 L -6.45111 -9.96989 L -6.40126 -10.002 L -6.35124 -10.0338 L -6.30107 -10.0654 L -6.25074 -10.0967 L -6.20026 -10.1278 L -6.14962 -10.1586 L -6.09882 -10.1892 L -6.04788 -10.2195 L -5.99678 -10.2496 L -5.87802 -10.3182 L -5.82643 -10.3474 L -5.7747 -10.3763 L -5.72283 -10.405 L -5.67081 -10.4335 L -5.61865 -10.4617 L -5.56635 -10.4896 L -5.51391 -10.5172 L -5.46134 -10.5446 L -5.40862 -10.5718 L -5.32894 -10.5458 L -5.24911 -10.5195 L -5.16915 -10.493 L -5.08906 -10.4662 L -5.00883 -10.4391 L -4.92846 -10.4117 L -4.84795 -10.3841 L -4.7673 -10.3561 L -4.68652 -10.3279 L -4.6056 -10.2993 L -4.52453 -10.2704 L -4.44333 -10.2412 L -4.36198 -10.2117 L -4.2805 -10.1818 L -4.19887 -10.1516 L -4.1171 -10.1211 L -4.03518 -10.0902 L -3.95313 -10.059 L -3.87093 -10.0273 L -3.78859 -9.99537 L -3.70611 -9.96302 L -3.62348 -9.93028 L -3.54071 -9.89715 L -3.4578 -9.86362 L -3.37474 -9.82968 L -3.29154 -9.79533 L -3.2082 -9.76055 L -3.12472 -9.72535 L -3.0411 -9.6897 L -2.95733 -9.6536 L -2.87343 -9.61705 L -2.78939 -9.58003 L -2.7052 -9.54253 L -2.62088 -9.50455 L -2.53643 -9.46607 L -2.53643 -9.46607 L -2.48252 -9.54162 L -2.42849 -9.61668 L -2.37434 -9.69124 L -2.32006 -9.76532 L -2.26567 -9.83893 L -2.21118 -9.91207 L -2.15658 -9.98476 L -2.10189 -10.057 L -2.0471 -10.1288 L -1.99223 -10.2001 L -1.93727 -10.271 L -1.88223 -10.3415 L -1.82711 -10.4116 L -1.77193 -10.4813 L -1.71667 -10.5505 L -1.66135 -10.6194 L -1.60597 -10.6879 L -1.55053 -10.756 L -1.49503 -10.8237 L -1.43949 -10.891 L -1.38389 -10.958 L -1.32825 -11.0246 L -1.27256 -11.0908 L -1.21684 -11.1567 L -1.16108 -11.2222 L -1.10528 -11.2874 L -1.04945 -11.3523 L -0.993589 -11.4168 L -0.937699 -11.4811 L -0.881783 -11.5449 L -0.825843 -11.6085 L -0.769881 -11.6718 L -0.713899 -11.7347 L -0.657898 -11.7974 L -0.601881 -11.8597 L -0.542664 -11.8626 L -0.483434 -11.8652 L -0.424191 -11.8674 L -0.364938 -11.8694 L -0.305676 -11.8711 L -0.246407 -11.8724 L -0.187131 -11.8735 L -0.12785 -11.8743 L -0.0685668 -11.8748 L 0.0685668 -11.8748 L 0.12785 -11.8743 L 0.187131 -11.8735 L 0.246407 -11.8724 L 0.305676 -11.8711 L 0.364938 -11.8694 L 0.424191 -11.8674 L 0.483434 -11.8652 L 0.542664 -11.8626 L 0.601881 -11.8597 L 0.657898 -11.7974 L 0.713899 -11.7347 L 0.769881 -11.6718 L 0.825843 -11.6085 L 0.881783 -11.5449 L 0.937699 -11.4811 L 0.993589 -11.4168 L 1.04945 -11.3523 L 1.10528 -11.2874 L 1.16108 -11.2222 L 1.21684 -11.1567 L 1.27256 -11.0908 L 1.32825 -11.0246 L 1.38389 -10.958 L 1.43949 -10.891 L 1.49503 -10.8237 L 1.55053 -10.756 L 1.60597 -10.6879 L 1.66135 -10.6194 L 1.71667 -10.5505 L 1.77193 -10.4813 L 1.82711 -10.4116 L 1.88223 -10.3415 L 1.93727 -10.271 L 1.99223 -10.2001 L 2.0471 -10.1288 L 2.10189 -10.057 L 2.15658 -9.98476 L 2.21118 -9.91207 L 2.26567 -9.83893 L 2.32006 -9.76532 L 2.37434 -9.69124 L 2.42849 -9.61668 L 2.48252 -9.54162 L 2.53643 -9.46607 L 2.53643 -9.46607 L 2.62088 -9.50455 L 2.7052 -9.54253 L 2.78939 -9.58003 L 2.87343 -9.61705 L 2.95733 -9.6536 L 3.0411 -9.6897 L 3.12472 -9.72535 L 3.2082 -9.76055 L 3.29154 -9.79533 L 3.37474 -9.82968 L 3.4578 -9.86362 L 3.54071 -9.89715 L 3.62348 -9.93028 L 3.70611 -9.96302 L 3.78859 -9.99537 L 3.87093 -10.0273 L 3.95313 -10.059 L 4.03518 -10.0902 L 4.1171 -10.1211 L 4.19887 -10.1516 L 4.2805 -10.1818 L 4.36198 -10.2117 L 4.44333 -10.2412 L 4.52453 -10.2704 L 4.6056 -10.2993 L 4.68652 -10.3279 L 4.7673 -10.3561 L 4.84795 -10.3841 L 4.92846 -10.4117 L 5.00883 -10.4391 L 5.08906 -10.4662 L 5.16915 -10.493 L 5.24911 -10.5195 L 5.32894 -10.5458 L 5.40862 -10.5718 L 5.46134 -10.5446 L 5.51391 -10.5172 L 5.56635 -10.4896 L 5.61865 -10.4617 L 5.67081 -10.4335 L 5.72283 -10.405 L 5.7747 -10.3763 L 5.82643 -10.3474 L 5.87802 -10.3182 L 5.99678 -10.2496 L 6.04788 -10.2195 L 6.09882 -10.1892 L 6.14962 -10.1586 L 6.20026 -10.1278 L 6.25074 -10.0967 L 6.30107 -10.0654 L 6.35124 -10.0338 L 6.40126 -10.002 L 6.45111 -9.96989 L 6.46845 -9.88789 L 6.48562 -9.80563 L 6.50263 -9.72312 L 6.51946 -9.64035 L 6.53612 -9.55732 L 6.5526 -9.47404 L 6.5689 -9.39048 L 6.58501 -9.30666 L 6.60092 -9.22257 L 6.61664 -9.1382 L 6.63216 -9.05356 L 6.64747 -8.96863 L 6.66258 -8.88342 L 6.67746 -8.79793 L 6.69213 -8.71214 L 6.70657 -8.62605 L 6.72078 -8.53967 L 6.73474 -8.45299 L 6.74847 -8.366 L 6.76195 -8.2787 L 6.77517 -8.19109 L 6.78813 -8.10316 L 6.80083 -8.01492 L 6.81324 -7.92635 L 6.82538 -7.83745 L 6.83723 -7.74822 L 6.84878 -7.65866 L 6.86004 -7.56876 L 6.87098 -7.47852 L 6.8816 -7.38793 L 6.89189 -7.29699 L 6.90186 -7.20569 L 6.91147 -7.11404 L 6.92074 -7.02203 L 6.92965 -6.92965 L 6.92965 -6.92965 L 7.02203 -6.92074 L 7.11404 -6.91147 L 7.20569 -6.90186 L 7.29699 -6.89189 L 7.38793 -6.8816 L 7.47852 -6.87098 L 7.56876 -6.86004 L 7.65866 -6.84878 L 7.74822 -6.83723 L 7.83745 -6.82538 L 7.92635 -6.81324 L 8.01492 -6.80083 L 8.10316 -6.78813 L 8.19109 -6.77517 L 8.2787 -6.76195 L 8.366 -6.74847 L 8.45299 -6.73474 L 8.53967 -6.72078 L 8.62605 -6.70657 L 8.71214 -6.69213 L 8.79793 -6.67746 L 8.88342 -6.66258 L 8.96863 -6.64747 L 9.05356 -6.63216 L 9.1382 -6.61664 L 9.22257 -6.60092 L 9.30666 -6.58501 L 9.39048 -6.5689 L 9.47404 -6.5526 L 9.55732 -6.53612 L 9.64035 -6.51946 L 9.72312 -6.50263 L 9.80563 -6.48562 L 9.88789 -6.46845 L 9.96989 -6.45111 L 10.002 -6.40126 L 10.0338 -6.35124 L 10.0654 -6.30107 L 10.0967 -6.25074 L 10.1278 -6.20026 L 10.1586 -6.14962 L 10.1892 -6.09882 L 10.2195 -6.04788 L 10.2496 -5.99678 L 10.3182 -5.87802 L 10.3474 -5.82643 L 10.3763 -5.7747 L 10.405 -5.72283 L 10.4335 -5.67081 L 10.4617 -5.61865 L 10.4896 -5.56635 L 10.5172 -5.51391 L 10.5446 -5.46134 L 10.5718 -5.40862 L 10.5458 -5.32894 L 10.5195 -5.24911 L 10.493 -5.16915 L 10.4662 -5.08906 L 10.4391 -5.00883 L 10.4117 -4.92846 L 10.3841 -4.84795 L 10.3561 -4.7673 L 10.3279 -4.68652 L 10.2993 -4.6056 L 10.2704 -4.52453 L 10.2412 -4.44333 L 10.2117 -4.36198 L 10.1818 -4.2805 L 10.1516 -4.19887 L 10.1211 -4.1171 L 10.0902 -4.03518 L 10.059 -3.95313 L 10.0273 -3.87093 L 9.99537 -3.78859 L 9.96302 -3.70611 L 9.93028 -3.62348 L 9.89715 -3.54071 L 9.86362 -3.4578 L 9.82968 -3.37474 L 9.79533 -3.29154 L 9.76055 -3.2082 L 9.72535 -3.12472 L 9.6897 -3.0411 L 9.6536 -2.95733 L 9.61705 -2.87343 L 9.58003 -2.78939 L 9.54253 -2.7052 L 9.50455 -2.62088 L 9.46607 -2.53643 L 9.46607 -2.53643 L 9.54162 -2.48252 L 9.61668 -2.42849 L 9.69124 -2.37434 L 9.76532 -2.32006 L 9.83893 -2.26567 L 9.91207 -2.21118 L 9.98476 -2.15658 L 10.057 -2.10189 L 10.1288 -2.0471 L 10.2001 -1.99223 L 10.271 -1.93727 L 10.3415 -1.88223 L 10.4116 -1.82711 L 10.4813 -1.77193 L 10.5505 -1.71667 L 10.6194 -1.66135 L 10.6879 -1.60597 L 10.756 -1.55053 L 10.8237 -1.49503 L 10.891 -1.43949 L 10.958 -1.38389 L 11.0246 -1.32825 L 11.0908 -1.27256 L 11.1567 -1.21684 L 11.2222 -1.16108 L 11.2874 -1.10528 L 11.3523 -1.04945 L 11.4168 -0.993589 L 11.4811 -0.937699 L 11.5449 -0.881783 L 11.6085 -0.825843 L 11.6718 -0.769881 L 11.7347 -0.713899 L 11.7974 -0.657898 L 11.8597 -0.601881 L 11.8626 -0.542664 L 11.8652 -0.483434 L 11.8674 -0.424191 L 11.8694 -0.364938 L 11.8711 -0.305676 L 11.8724 -0.246407 L 11.8735 -0.187131 L 11.8743 -0.12785 L 11.8748 -0.0685668Z"
id="path1" />
</g>
</svg>
