<?xml version="1.0" encoding="UTF-8" standalone="no"?>
<svg version="1.1">
<g
style="fill:none;stroke:#000000;stroke-opacity:1;stroke-width:0.1">
<path d="M 12.2496 0.0996544 L 12.249 0.154257 L 12.2482 0.208856 L 12.2472 0.263451 L 12.2459 0.318041 L 12.2443 0.372624 L 12.2425 0.4272 L 12.2405 0.481768 L 12.2383 0.536326 L 12.2357 0.590873 L 12.233 0.645409 L 12.23 0.699932 L 12.1722 0.751508 L 12.1142 0.803068 L 12.0559 0.854612 L 11.9974 0.906138 L 11.9386 0.957645 L 11.8796 1.00913 L 11.8203 1.06059 L 11.7607 1.11203 L 11.7009 1.16344 L 11.6407 1.21483 L 11.5803 1.26619 L 11.5196 1.31751 L 11.4587 1.36881 L 11.3974 1.42006 L 11.3358 1.47128 L 11.274 1.52247 L 11.2118 1.57361 L 11.1493 1.62471 L 11.0866 1.67576 L 11.0235 1.72676 L 10.9601 1.77772 L 10.8963 1.82862 L 10.8322 1.87947 L 10.7678 1.93026 L 10.7031 1.98098 L 10.638 2.03165 L 10.5726 2.08225 L 10.5068 2.13278 L 10.4406 2.18323 L 10.3741 2.23361 L 10.3072 2.28391 L 10.24 2.33413 L 10.1723 2.38426 L 10.1043 2.4343 L 10.0359 2.48425 L 9.96711 2.5341 L 9.89791 2.58384 L 9.8283 2.63348 L 9.8283 2.63348 L 9.86376 2.71128 L 9.89882 2.78896 L 9.93348 2.86654 L 9.96775 2.944 L 10.0016 3.02134 L 10.0351 3.09857 L 10.0683 3.17569 L 10.101 3.25269 L 10.1335 3.32958 L 10.1655 3.40635 L 10.1972 3.483 L 10.2286 3.55954 L 10.2596 3.63596 L 10.2903 3.71226 L 10.3207 3.78845 L 10.3508 3.86452 L 10.3805 3.94048 L 10.41 4.01631 L 10.4391 4.09203 L 10.468 4.16764 L 10.4965 4.24312 L 10.5248 4.3185 L 10.5528 4.39375 L 10.5805 4.46889 L 10.6079 4.54391 L 10.6351 4.61882 L 10.6619 4.69361 L 10.6886 4.76829 L 10.715 4.84285 L 10.7411 4.9173 L 10.767 4.99164 L 10.7926 5.06586 L 10.818 5.13997 L 10.8431 5.21397 L 10.868 5.28785 L 10.8927 5.36162 L 10.9172 5.43528 L 10.9414 5.50883 L 10.9168 5.55755 L 10.8919 5.60616 L 10.8668 5.65465 L 10.8415 5.70304 L 10.816 5.75131 L 10.7902 5.79946 L 10.7643 5.8475 L 10.7381 5.89543 L 10.7117 5.94324 L 10.6851 5.99092 L 10.6583 6.03849 L 10.5586 6.2111 L 10.5308 6.2581 L 10.5028 6.30498 L 10.4746 6.35174 L 10.4462 6.39837 L 10.4176 6.44487 L 10.3888 6.49124 L 10.3597 6.53748 L 10.3305 6.5836 L 10.301 6.62958 L 10.2714 6.67543 L 10.2415 6.72115 L 10.1657 6.73693 L 10.0897 6.75258 L 10.0134 6.76808 L 9.93699 6.78344 L 9.86033 6.79866 L 9.78346 6.81372 L 9.70636 6.82864 L 9.62905 6.8434 L 9.55151 6.858 L 9.47375 6.87244 L 9.39576 6.88671 L 9.31754 6.90082 L 9.23909 6.91475 L 9.16041 6.92851 L 9.08148 6.94209 L 9.00232 6.95549 L 8.92292 6.96869 L 8.84327 6.98171 L 8.76337 6.99453 L 8.68322 7.00716 L 8.60282 7.01958 L 8.52217 7.03179 L 8.44126 7.04379 L 8.36009 7.05557 L 8.27865 7.06713 L 8.19695 7.07846 L 8.11498 7.08956 L 8.03274 7.10042 L 7.95023 7.11105 L 7.86744 7.12142 L 7.78437 7.13154 L 7.70102 7.1414 L 7.61738 7.151 L 7.53345 7.16033 L 7.44924 7.16938 L 7.36472 7.17815 L 7.27992 7.18663 L 7.19481 7.19481 L 7.19481 7.19481 L 7.18663 7.27992 L 7.17815 7.36472 L 7.16938 7.44924 L 7.16033 7.53345 L 7.151 7.61738 L 7.1414 7.70102 L 7.13154 7.78437 L 7.12142 7.86744 L 7.11105 7.95023 L 7.10042 8.03274 L 7.08956 8.11498 L 7.07846 8.19695 L 7.06713 8.27865 L 7.05557 8.36009 L 7.04379 8.44126 L 7.03179 8.52217 L 7.01958 8.60282 L 7.00716 8.68322 L 6.99453 8.76337 L 6.98171 8.84327 L 6.96869 8.92292 L 6.95549 9.00232 L 6.94209 9.08148 L 6.92851 9.16041 L 6.91475 9.23909 L 6.90082 9.31754 L 6.88671 9.39576 L 6.87244 9.47375 L 6.858 9.55151 L 6.8434 9.62905 L 6.82864 9.70636 L 6.81372 9.78346 L 6.79866 9.86033 L 6.78344 9.93699 L 6.76808 10.0134 L 6.75258 10.0897 L 6.73693 10.1657 L 6.72115 10.2415 L 6.67543 10.2714 L 6.62958 10.301 L 6.5836 10.3305 L 6.53748 10.3597 L 6.49124 10.3888 L 6.44487 10.4176 L 6.39837 10.4462 L 6.35174 10.4746 L 6.30498 10.5028 L 6.2581 10.5308 L 6.2111 10.5586 L 6.03849 10.6583 L 5.99092 10.6851 L 5.94324 10.7117 L 5.89543 10.7381 L 5.8475 10.7643 L 5.79946 10.7902 L 5.75131 10.816 L 5.70304 10.8415 L 5.65465 10.8668 L 5.60616 10.8919 L 5.55755 10.9168 L 5.50883 10.9414 L 5.43528 10.9172 L 5.36162 10.8927 L 5.28785 10.868 L 5.21397 10.8431 L 5.13997 10.818 L 5.06586 10.7926 L 4.99164 10.767 L 4.9173 10.7411 L 4.84285 10.715 L 4.76829 10.6886 L 4.69361 10.6619 L 4.61882 10.6351 L 4.54391 10.6079 L 4.46889 10.5805 L 4.39375 10.5528 L 4.3185 10.5248 L 4.24312 10.4965 L 4.16764 10.468 L 4.09203 10.4391 L 4.01631 10.41 L 3.94048 10.3805 L 3.86452 10.3508 L 3.78845 10.3207 L 3.71226 10.2903 L 3.63596 10.2596 L 3.55954 10.2286 L 3.483 10.1972 L 3.40635 10.1655 L 3.32958 10.1335 L 3.25269 10.101 L 3.17569 10.0683 L 3.09857 10.0351 L 3.02134 10.0016 L 2.944 9.96775 L 2.86654 9.93348 L 2.78896 9.89882 L 2.71128 9.86376 L 2.63348 9.8283 L 2.63348 9.8283 L 2.58384 9.89791 L 2.5341 9.96711 L 2.48425 10.0359 L 2.4343 10.1043 L 2.38426 10.1723 L 2.33413 10.24 L 2.28391 10.3072 L 2.23361 10.3741 L 2.18323 10.4406 L 2.13278 10.5068 L 2.08225 10.5726 L 2.03165 10.638 L 1.98098 10.7031 L 1.93026 10.7678 L 1.87947 10.8322 L 1.82862 10.8963 L 1.77772 10.9601 L 1.72676 11.0235 L 1.67576 11.0866 L 1.62471 11.1493 L 1.57361 11.2118 L 1.52247 11.274 L 1.47128 11.3358 L 1.42006 11.3974 L 1.36881 11.4587 L 1.31751 11.5196 L 1.26619 11.5803 L 1.21483 11.6407 L 1.16344 11.7009 L 1.11203 11.7607 L 1.06059 11.8203 L 1.00913 11.8796 L 0.957645 11.9386 L 0.906138 11.9974 L 0.854612 12.0559 L 0.803068 12.1142 L 0.751508 12.1722 L 0.699932 12.23 L 0.645409 12.233 L 0.590873 12.2357 L 0.536326 12.2383 L 0.481768 12.2405 L 0.4272 12.2425 L 0.372624 12.2443 L 0.318041 12.2459 L 0.263451 12.2472 L 0.208856 12.2482 L 0.154257 12.249 L 0.0996544 12.2496 L -0.0996544 12.2496 L -0.154257 12.249 L -0.208856 12.2482 L -0.263451 12.2472 L -0.318041 12.2459 L -0.372624 12.2443 L -0.4272 12.2425 L -0.481768 12.2405 L -0.536326 12.2383 L -0.590873 12.2357 L -0.645409 12.233 L -0.699932 12.23 L -0.751508 12.1722 L -0.803068 12.1142 L -0.854612 12.0559 L -0.906138 11.9974 L -0.957645 11.9386 L -1.00913 11.8796 L -1.06059 11.8203 L -1.11203 11.7607 L -1.16344 11.7009 L -1.21483 11.6407 L -1.26619 11.5803 L -1.31751 11.5196 L -1.36881 11.4587 L -1.42006 11.3974 L -1.47128 11.3358 L -1.52247 11.274 L -1.57361 11.2118 L -1.62471 11.1493 L -1.67576 11.0866 L -1.72676 11.0235 L -1.77772 10.9601 L -1.82862 10.8963 L -1.87947 10.8322 L -1.93026 10.7678 L -1.98098 10.7031 L -2.03165 10.638 L -2.08225 10.5726 L -2.13278 10.5068 L -2.18323 10.4406 L -2.23361 10.3741 L -2.28391 10.3072 L -2.33413 10.24 L -2.38426 10.1723 L -2.4343 10.1043 L -2.48425 10.0359 L -2.5341 9.96711 L -2.58384 9.89791 L -2.63348 9.8283 L -2.63348 9.8283 L -2.71128 9.86376 L -2.78896 9.89882 L -2.86654 9.93348 L -2.944 9.96775 L -3.02134 10.0016 L -3.09857 10.0351 L -3.17569 10.0683 L -3.25269 10.101 L -3.32958 10.1335 L -3.40635 10.1655 L -3.483 10.1972 L -3.55954 10.2286 L -3.63596 10.2596 L -3.71226 10.2903 L -3.78845 10.3207 L -3.86452 10.3508 L -3.94048 10.3805 L -4.01631 10.41 L -4.09203 10.4391 L -4.16764 10.468 L -4.24312 10.4965 L -4.3185 10.5248 L -4.39375 10.5528 L -4.46889 10.5805 L -4.54391 10.6079 L -4.61882 10.6351 L -4.69361 10.6619 L -4.76829 10.6886 L -4.84285 10.715 L -4.9173 10.7411 L -4.99164 10.767 L -5.06586 10.7926 L -5.13997 10.818 L -5.21397 10.8431 L -5.28785 10.868 L -5.36162 10.8927 L -5.43528 10.9172 L -5.50883 10.9414 L -5.55755 10.9168 L -5.60616 10.8919 L -5.65465 10.8668 L -5.70304 10.8415 L -5.75131 10.816 L -5.79946 10.7902 L -5.8475 10.7643 L -5.89543 10.7381 L -5.94324 10.7117 L -5.99092 10.6851 L -6.03849 10.6583 L -6.2111 10.5586 L -6.2581 10.5308 L -6.30498 10.5028 L -6.35174 10.4746 L -6.39837 10.4462 L -6.44487 10.4176 L -6.49124 10.3888 L -6.53748 10.3597 L -6.5836 10.3305 L -6.62958 10.301 L -6.67543 10.2714 L -6.72115 10.2415 L -6.73693 10.1657 L -6.75258 10.0897 L -6.76808 10.0134 L -6.78344 9.93699 L -6.79866 9.86033 L -6.81372 9.78346 L -6.82864 9.70636 L -6.8434 9.62905 L -6.858 9.55151 L -6.87244 9.47375 L -6.88671 9.39576 L -6.90082 9.31754 L -6.91475 9.23909 L -6.92851 9.16041 L -6.94209 9.08148 L -6.95549 9.00232 L -6.96869 8.92292 L -6.98171 8.84327 L -6.99453 8.76337 L -7.00716 8.68322 L -7.01958 8.60282 L -7.03179 8.52217 L -7.04379 8.44126 L -7.05557 8.36009 L -7.06713 8.27865 L -7.07846 8.19695 L -7.08956 8.11498 L -7.10042 8.03274 L -7.11105 7.95023 L -7.12142 7.86744 L -7.13154 7.78437 L -7.1414 7.70102 L -7.151 7.61738 L -7.16033 7.53345 L -7.16938 7.44924 L -7.17815 7.36472 L -7.18663 7.27992 L -7.19481 7.19481 L -7.19481 7.19481 L -7.27992 7.18663 L -7.36472 7.17815 L -7.44924 7.16938 L -7.53345 7.16033 L -7.61738 7.151 L -7.70102 7.1414 L -7.78437 7.13154 L -7.86744 7.12142 L -7.95023 7.11105 L -8.03274 7.10042 L -8.11498 7.08956 L -8.19695 7.07846 L -8.27865 7.06713 L -8.36009 7.05557 L -8.44126 7.04379 L -8.52217 7.03179 L -8.60282 7.01958 L -8.68322 7.00716 L -8.76337 6.99453 L -8.84327 6.98171 L -8.92292 6.96869 L -9.00232 6.95549 L -9.08148 6.94209 L -9.16041 6.92851 L -9.23909 6.91475 L -9.31754 6.90082 L -9.39576 6.88671 L -9.47375 6.87244 L -9.55151 6.858 L -9.62905 6.8434 L -9.70636 6.82864 L -9.78346 6.81372 L -9.86033 6.79866 L -9.93699 6.78344 L -10.0134 6.76808 L -10.0897 6.75258 L -10.1657 6.73693 L -10.2415 6.72115 L -10.2714 6.67543 L -10.301 6.62958 L -10.3305 6.5836 L -10.3597 6.53748 L -10.3888 6.49124 L -10.4176 6.44487 L -10.4462 6.39837 L -10.4746 6.35174 L -10.5028 6.30498 L -10.5308 6.2581 L -10.5586 6.2111 L -10.6583 6.03849 L -10.6851 5.99092 L -10.7117 5.94324 L -10.7381 5.89543 L -10.7643 5.8475 L -10.7902 5.79946 L -10.816 5.75131 L -10.8415 5.70304 L -10.8668 5.65465 L -10.8919 5.60616 L -10.9168 5.55755 L -10.9414 5.50883 L -10.9172 5.43528 L -10.8927 5.36162 L -10.868 5.28785 L -10.8431 5.21397 L -10.818 5.13997 L -10.7926 5.06586 L -10.767 4.99164 L -10.7411 4.9173 L -10.715 4.84285 L -10.6886 4.76829 L -10.6619 4.69361 L -10.6351 4.61882 L -10.6079 4.54391 L -10.5805 4.46889 L -10.5528 4.39375 L -10.5248 4.3185 L -10.4965 4.24312 L -10.468 4.16764 L -10.4391 4.09203 L -10.41 4.01631 L -10.3805 3.94048 L -10.3508 3.86452 L -10.3207 3.78845 L -10.2903 3.71226 L -10.2596 3.63596 L -10.2286 3.55954 L -10.1972 3.483 L -10.1655 3.40635 L -10.1335 3.32958 L -10.101 3.25269 L -10.0683 3.17569 L -10.0351 3.09857 L -10.0016 3.02134 L -9.96775 2.944 L -9.93348 2.86654 L -9.89882 2.78896 L -9.86376 2.71128 L -9.8283 2.63348 L -9.8283 2.63348 L -9.89791 2.58384 L -9.96711 2.5341 L -10.0359 2.48425 L -10.1043 2.4343 L -10.1723 2.38426 L -10.24 2.33413 L -10.3072 2.28391 L -10.3741 2.23361 L -10.4406 2.18323 L -10.5068 2.13278 L -10.5726 2.08225 L -10.638 2.03165 L -10.7031 1.98098 L -10.7678 1.93026 L -10.8322 1.87947 L -10.8963 1.82862 L -10.9601 1.77772 L -11.0235 1.72676 L -11.0866 1.67576 L -11.1493 1.62471 L -11.2118 1.57361 L -11.274 1.52247 L -11.3358 1.47128 L -11.3974 1.42006 L -11.4587 1.36881 L -11.5196 1.31751 L -11.5803 1.26619 L -11.6407 1.21483 L -11.7009 1.16344 L -11.7607 1.11203 L -11.8203 1.06059 L -11.8796 1.00913 L -11.9386 0.957645 L -11.9974 0.906138 L -12.0559 0.854612 L -12.1142 0.803068 L -12.1722 0.751508 L -12.23 0.699932 L -12.233 0.645409 L -12.2357 0.590873 L -12.2383 0.536326 L -12.2405 0.481768 L -12.2425 0.4272 L -12.2443 0.372624 L -12.2459 0.318041 L -12.2472 0.263451 L -12.2482 0.208856 L -12.249 0.154257 L -12.2496 0.0996544 L -12.2496 -0.0996544 L -12.249 -0.154257 L -12.2482 -0.208856 L -12.2472 -0.263451 L -12.2459 -0.318041 L -12.2443 -0.372624 L -12.2425 -0.4272 L -12.2405 -0.481768 L -12.2383 -0.536326 L -12.2357 -0.590873 L -12.233 -0.645409 L -12.23 -0.699932 L -12.1722 -0.751508 L -12.1142 -0.803068 L -12.0559 -0.854612 L -11.9974 -0.906138 L -11.9386 -0.957645 L -11.8796 -1.00913 L -11.8203 -1.06059 L -11.7607 -1.11203 L -11.7009 -1.16344 L -11.6407 -1.21483 L -11.5803 -1.26619 L -11.5196 -1.31751 L -11.4587 -1.36881 L -11.3974 -1.42006 L -11.3358 -1.47128 L -11.274 -1.52247 L -11.2118 -1.57361 L -11.1493 -1.62471 L -11.0866 -1.67576 L -11.0235 -1.72676 L -10.9601 -1.77772 L -10.8963 -1.82862 L -10.8322 -1.87947 L -10.7678 -1.93026 L -10.7031 -1.98098 L -10.638 -2.03165 L -10.5726 -2.08225 L -10.5068 -2.13278 L -10.4406 -2.18323 L -10.3741 -2.23361 L -10.3072 -2.28391 L -10.24 -2.33413 L -10.1723 -2.38426 L -10.1043 -2.4343 L -10.0359 -2.48425 L -9.96711 -2.5341 L -9.89791 -2.58384 L -9.8283 -2.63348 L -9.8283 -2.63348 L -9.86376 -2.71128 L -9.89882 -2.78896 L -9.93348 -2.86654 L -9.96775 -2.944 L -10.0016 -3.02134 L -10.0351 -3.09857 L -10.0683 -3.17569 L -10.101 -3.25269 L -10.1335 -3.32958 L -10.1655 -3.40635 L -10.1972 -3.483 L -10.2286 -3.55954 L -10.2596 -3.63596 L -10.2903 -3.71226 L -10.3207 -3.78845 L -10.3508 -3.86452 L -10.3805 -3.94048 L -10.41 -4.01631 L -10.4391 -4.09203 L -10.468 -4.16764 L -10.4965 -4.24312 L -10.5248 -4.3185 L -10.5528 -4.39375 L -10.5805 -4.46889 L -10.6079 -4.54391 L -10.6351 -4.61882 L -10.6619 -4.69361 L -10.6886 -4.76829 L -10.715 -4.84285 L -10.7411 -4.9173 L -10.767 -4.99164 L -10.7926 -5.06586 L -10.818 -5.13997 L -10.8431 -5.21397 L -10.868 -5.28785 L -10.8927 -5.36162 L -10.9172 -5.43528 L -10.9414 -5.50883 L -10.9168 -5.55755 L -10.8919 -5.60616 L -10.8668 -5.65465 L -10.8415 -5.70304 L -10.816 -5.75131 L -10.7902 -5.79946 L -10.7643 -5.8475 L -10.7381 -5.89543 L -10.7117 -5.94324 L -10.6851 -5.99092 L -10.6583 -6.03849 L -10.5586 -6.2111 L -10.5308 -6.2581 L -10.5028 -6.30498 L -10.4746 -6.35174 L -10.4462 -6.39837 L -10.4176 -6.44487 L -10.3888 -6.49124 L -10.3597 -6.53748 L -10.3305 -6.5836 L -10.301 -6.62958 L -10.2714 -6.67543 L -10.2415 -6.72115 L -10.1657 -6.73693 L -10.0897 -6.75258 L -10.0134 -6.76808 L -9.93699 -6.78344 L -9.86033 -6.79866 L -9.78346 -6.81372 L -9.70636 -6.82864 L -9.62905 -6.8434 L -9.55151 -6.858 L -9.47375 -6.87244 L -9.39576 -6.88671 L -9.31754 -6.90082 L -9.23909 -6.91475 L -9.16041 -6.92851 L -9.08148 -6.94209 L -9.00232 -6.95549 L -8.92292 -6.96869 L -8.84327 -6.98171 L -8.76337 -6.99453 L -8.68322 -7.00716 L -8.60282 -7.01958 L -8.52217 -7.03179 L -8.44126 -7.04379 L -8.36009 -7.05557 L -8.27865 -7.06713 L -8.19695 -7.07846 L -8.11498 -7.08956 L -8.03274 -7.10042 L -7.95023 -7.11105 L -7.86744 -7.12142 L -7.78437 -7.13154 L -7.70102 -7.1414 L -7.61738 -7.151 L -7.53345 -7.16033 L -7.44924 -7.16938 L -7.36472 -7.17815 L -7.27992 -7.18663 L -7.19481 -7.19481 L -7.19481 -7.19481 L -7.18663 -7.27992 L -7.17815 -7.36472 L -7.16938 -7.44924 L -7.16033 -7.53345 L -7.151 -7.61738 L -7.1414 -7.70102 L -7.13154 -7.78437 L -7.12142 -7.86744 L -7.11105 -7.95023 L -7.10042 -8.03274 L -7.08956 -8.11498 L -7.07846 -8.19695 L -7.06713 -8.27865 L -7.05557 -8.36009 L -7.04379 -8.44126 L -7.03179 -8.52217 L -7.01958 -8.60282 L -7.00716 -8.68322 L -6.99453 -8.76337 L -6.98171 -8.84327 L -6.96869 -8.92292 L -6.95549 -9.00232 L -6.94209 -9.08148 L -6.92851 -9.16041 L -6.91475 -9.23909 L -6.90082 -9.31754 L -6.88671 -9.39576 L -6.87244 -9.47375 L -6.858 -9.55151 L -6.8434 -9.62905 L -6.82864 -9.70636 L -6.81372 -9.78346 L -6.79866 -9.86033 L -6.78344 -9.93699 L -6.76808 -10.0134 L -6.75258 -10.0897 L -6.73693 -10.1657 L -6.72115 -10.2415 L -6.67543 -10.2714 L -6.62958 -10.301 L -6.5836 -10.3305 L -6.53748 -10.3597 L -6.49124 -10.3888 L -6.44487 -10.4176 L -6.39837 -10.4462 L -6.35174 -10.4746 L -6.30498 -10.5028 L -6.2581 -10.5308 L -6.2111 -10.5586 L -6.03849 -10.6583 L -5.99092 -10.6851 L -5.94324 -10.7117 L -5.89543 -10.7381 L -5.8475 -10.7643 L -5.79946 -10.7902 L -5.75131 -10.816 L -5.70304 -10.8415 L -5.65465 -10.8668 L -5.60616 -10.8919 L -5.55755 -10.9168 L -5.50883 -10.9414 L -5.43528 -10.9172 L -5.36162 -10.8927 L -5.28785 -10.868 L -5.21397 -10.8431 L -5.13997 -10.818 L -5.06586 -10.7926 L -4.99164 -10.767 L -4.9173 -10.7411 L -4.84285 -10.715 L -4.76829 -10.6886 L -4.69361 -10.6619 L -4.61882 -10.6351 L -4.54391 -10.6079 L -4.46889 -10.5805 L -4.39375 -10.5528 L -4.3185 -10.5248 L -4.24312 -10.4965 L -4.16764 -10.468 L -4.09203 -10.4391 L -4.01631 -10.41 L -3.94048 -10.3805 L -3.86452 -10.3508 L -3.78845 -10.3207 L -3.71226 -10.2903 L -3.63596 -10.2596 L -3.55954 -10.2286 L -3.483 -10.1972 L -3.40635 -10.1655 L -3.32958 -10.1335 L -3.25269 -10.101 L -3.17569 -10.0683 L -3.09857 -10.0351 L -3.02134 -10.0016 L -2.944 -9.96775 L -2.86654 -9.93348 L -2.78896 -9.89882 L -2.71128 -9.86376 L -2.63348 -9.8283 L -2.63348 -9.8283 L -2.58384 -9.89791 L -2.5341 -9.96711 L -2.48425 -10.0359 L -2.4343 -10.1043 L -2.38426 -10.1723 L -2.33413 -10.24 L -2.28391 -10.3072 L -2.23361 -10.3741 L -2.18323 -10.4406 L -2.13278 -10.5068 L -2.08225 -10.5726 L -2.03165 -10.638 L -1.98098 -10.7031 L -1.93026 -10.7678 L -1.87947 -10.8322 L -1.82862 -10.8963 L -1.77772 -10.9601 L -1.72676 -11.0235 L -1.67576 -11.0866 L -1.62471 -11.1493 L -1.57361 -11.2118 L -1.52247 -11.274 L -1.47128 -11.3358 L -1.42006 -11.3974 L -1.36881 -11.4587 L -1.31751 -11.5196 L -1.26619 -11.5803 L -1.21483 -11.6407 L -1.16344 -11.7009 L -1.11203 -11.7607 L -1.06059 -11.8203 L -1.00913 -11.8796 L -0.957645 -11.9386 L -0.906138 -11.9974 L -0.854612 -12.0559 L -0.803068 -12.1142 L -0.751508 -12.1722 L -0.699932 -12.23 L -0.645409 -12.233 L -0.590873 -12.2357 L -0.536326 -12.2383 L -0.481768 -12.2405 L -0.4272 -12.2425 L -0.372624 -12.2443 L -0.318041 -12.2459 L -0.263451 -12.2472 L -0.208856 -12.2482 L -0.154257 -12.249 L -0.0996544 -12.2496 L 0.0996544 -12.2496 L 0.154257 -12.249 L 0.208856 -12.2482 L 0.263451 -12.2472 L 0.318041 -12.2459 L 0.372624 -12.2443 L 0.4272 -12.2425 L 0.481768 -12.2405 L 0.536326 -12.2383 L 0.590873 -12.2357 L 0.645409 -12.233 L 0.699932 -12.23 L 0.751508 -12.1722 L 0.803068 -12.1142 L 0.854612 -12.0559 L 0.906138 -11.9974 L 0.957645 -11.9386 L 1.00913 -11.8796 L 1.06059 -11.8203 L 1.11203 -11.7607 L 1.16344 -11.7009 L 1.21483 -11.6407 L 1.26619 -11.5803 L 1.31751 -11.5196 L 1.36881 -11.4587 L 1.42006 -11.3974 L 1.47128 -11.3358 L 1.52247 -11.274 L 1.57361 -11.2118 L 1.62471 -11.1493 L 1.67576 -11.0866 L 1.72676 -11.0235 L 1.77772 -10.9601 L 1.82862 -10.8963 L 1.87947 -10.8322 L 1.93026 -10.7678 L 1.98098 -10.7031 L 2.03165 -10.638 L 2.08225 -10.5726 L 2.13278 -10.5068 L 2.18323 -10.4406 L 2.23361 -10.3741 L 2.28391 -10.3072 L 2.33413 -10.24 L 2.38426 -10.1723 L 2.4343 -10.1043 L 2.48425 -10.0359 L 2.5341 -9.96711 L 2.58384 -9.89791 L 2.63348 -9.8283 L 2.63348 -9.8283 L 2.71128 -9.86376 L 2.78896 -9.89882 L 2.86654 -9.93348 L 2.944 -9.96775 L 3.02134 -10.0016 L 3.09857 -10.0351 L 3.17569 -10.0683 L 3.25269 -10.101 L 3.32958 -10.1335 L 3.40635 -10.1655 L 3.483 -10.1972 L 3.55954 -10.2286 L 3.63596 -10.2596 L 3.71226 -10.2903 L 3.78845 -10.3207 L 3.86452 -10.3508 L 3.94048 -10.3805 L 4.01631 -10.41 L 4.09203 -10.4391 L 4.16764 -10.468 L 4.24312 -10.4965 L 4.3185 -10.5248 L 4.39375 -10.5528 L 4.46889 -10.5805 L 4.54391 -10.6079 L 4.61882 -10.6351 L 4.69361 -10.6619 L 4.76829 -10.6886 L 4.84285 -10.715 L 4.9173 -10.7411 L 4.99164 -10.767 L 5.06586 -10.7926 L 5.13997 -10.818 L 5.21397 -10.8431 L 5.28785 -10.868 L 5.36162 -10.8927 L 5.43528 -10.9172 L 5.50883 -10.9414 L 5.55755 -10.9168 L 5.60616 -10.8919 L 5.65465 -10.8668 L 5.70304 -10.8415 L 5.75131 -10.816 L 5.79946 -10.7902 L 5.8475 -10.7643 L 5.89543 -10.7381 L 5.94324 -10.7117 L 5.99092 -10.6851 L 6.03849 -10.6583 L 6.2111 -10.5586 L 6.2581 -10.5308 L 6.30498 -10.5028 L 6.35174 -10.4746 L 6.39837 -10.4462 L 6.44487 -10.4176 L 6.49124 -10.3888 L 6.53748 -10.3597 L 6.5836 -10.3305 L 6.62958 -10.301 L 6.67543 -10.2714 L 6.72115 -10.2415 L 6.73693 -10.1657 L 6.75258 -10.0897 L 6.76808 -10.0134 L 6.78344 -9.93699 L 6.79866 -9.86033 L 6.81372 -9.78346 L 6.82864 -9.70636 L 6.8434 -9.62905 L 6.858 -9.55151 L 6.87244 -9.47375 L 6.88671 -9.39576 L 6.90082 -9.31754 L 6.91475 -9.23909 L 6.92851 -9.16041 L 6.94209 -9.08148 L 6.95549 -9.00232 L 6.96869 -8.92292 L 6.98171 -8.84327 L 6.99453 -8.76337 L 7.00716 -8.68322 L 7.01958 -8.60282 L 7.03179 -8.52217 L 7.04379 -8.44126 L 7.05557 -8.36009 L 7.06713 -8.27865 L 7.07846 -8.19695 L 7.08956 -8.11498 L 7.10042 -8.03274 L 7.11105 -7.95023 L 7.12142 -7.86744 L 7.13154 -7.78437 L 7.1414 -7.70102 L 7.151 -7.61738 L 7.16033 -7.53345 L 7.16938 -7.44924 L 7.17815 -7.36472 L 7.18663 -7.27992 L 7.19481 -7.19481 L 7.19481 -7.19481 L 7.27992 -7.18663 L 7.36472 -7.17815 L 7.44924 -7.16938 L 7.53345 -7.16033 L 7.61738 -7.151 L 7.70102 -7.1414 L 7.78437 -7.13154 L 7.86744 -7.12142 L 7.95023 -7.11105 L 8.03274 -7.10042 L 8.11498 -7.08956 L 8.19695 -7.07846 L 8.27865 -7.06713 L 8.36009 -7.05557 L 8.44126 -7.04379 L 8.52217 -7.03179 L 8.60282 -7.01958 L 8.68322 -7.00716 L 8.76337 -6.99453 L 8.84327 -6.98171 L 8.92292 -6.96869 L 9.00232 -6.95549 L 9.08148 -6.94209 L 9.16041 -6.92851 L 9.23909 -6.91475 L 9.31754 -6.90082 L 9.39576 -6.88671 L 9.47375 -6.87244 L 9.55151 -6.858 L 9.62905 -6.8434 L 9.70636 -6.82864 L 9.78346 -6.81372 L 9.86033 -6.79866 L 9.93699 -6.78344 L 10.0134 -6.76808 L 10.0897 -6.75258 L 10.1657 -6.73693 L 10.2415 -6.72115 L 10.2714 -6.67543 L 10.301 -6.62958 L 10.3305 -6.5836 L 10.3597 -6.53748 L 10.3888 -6.49124 L 10.4176 -6.44487 L 10.4462 -6.39837 L 10.4746 -6.35174 L 10.5028 -6.30498 L 10.5308 -6.2581 L 10.5586 -6.2111 L 10.6583 -6.03849 L 10.6851 -5.99092 L 10.7117 -5.94324 L 10.7381 -5.89543 L 10.7643 -5.8475 L 10.7902 -5.79946 L 10.816 -5.75131 L 10.8415 -5.70304 L 10.8668 -5.65465 L 10.8919 -5.60616 L 10.9168 -5.55755 L 10.9414 -5.50883 L 10.9172 -5.43528 L 10.8927 -5.36162 L 10.868 -5.28785 L 10.8431 -5.21397 L 10.818 -5.13997 L 10.7926 -5.06586 L 10.767 -4.99164 L 10.7411 -4.9173 L 10.715 -4.84285 L 10.6886 -4.76829 L 10.6619 -4.69361 L 10.6351 -4.61882 L 10.6079 -4.54391 L 10.5805 -4.46889 L 10.5528 -4.39375 L 10.5248 -4.3185 L 10.4965 -4.24312 L 10.468 -4.16764 L 10.4391 -4.09203 L 10.41 -4.01631 L 10.3805 -3.94048 L 10.3508 -3.86452 L 10.3207 -3.78845 L 10.2903 -3.71226 L 10.2596 -3.63596 L 10.2286 -3.55954 L 10.1972 -3.483 L 10.1655 -3.40635 L 10.1335 -3.32958 L 10.101 -3.25269 L 10.0683 -3.17569 L 10.0351 -3.09857 L 10.0016 -3.02134 L 9.96775 -2.944 L 9.93348 -2.86654 L 9.89882 -2.78896 L 9.86376 -2.71128 L 9.8283 -2.63348 L 9.8283 -2.63348 L 9.89791 -2.58384 L 9.96711 -2.5341 L 10.0359 -2.48425 L 10.1043 -2.4343 L 10.1723 -2.38426 L 10.24 -2.33413 L 10.3072 -2.28391 L 10.3741 -2.23361 L 10.4406 -2.18323 L 10.5068 -2.13278 L 10.5726 -2.08225 L 10.638 -2.03165 L 10.7031 -1.98098 L 10.7678 -1.93026 L 10.8322 -1.87947 L 10.8963 -1.82862 L 10.9601 -1.77772 L 11.0235 -1.72676 L 11.0866 -1.67576 L 11.1493 -1.62471 L 11.2118 -1.57361 L 11.274 -1.52247 L 11.3358 -1.47128 L 11.3974 -1.42006 L 11.4587 -1.36881 L 11.5196 -1.31751 L 11.5803 -1.26619 L 11.6407 -1.21483 L 11.7009 -1.16344 L 11.7607 -1.11203 L 11.8203 -1.06059 L 11.8796 -1.00913 L 11.9386 -0.957645 L 11.9974 -0.906138 L 12.0559 -0.854612 L 12.1142 -0.803068 L 12.1722 -0.751508 L 12.23 -0.699932 L 12.233 -0.645409 L 12.2357 -0.590873 L 12.2383 -0.536326 L 12.2405 -0.481768 L 12.2425 -0.4272 L 12.2443 -0.372624 L 12.2459 -0.318041 L 12.2472 -0.263451 L 12.2482 -0.208856 L 12.249 -0.154257 L 12.2496 -0.0996544Z"
id="path1" />
</g>
</svg>
