<?xml version="1.0" encoding="UTF-8" standalone="no"?>
<svg version="1.1">
<g
style="fill:none;stroke:#000000;stroke-opacity:1;stroke-width:0.1">
<path d="M 12.3746 0.0945758 L 12.3741 0.147778 L 12.3734 0.200978 L 12.3724 0.254174 L 12.3712 0.307366 L 12.3697 0.360551 L 12.3681 0.41373 L 12.3662 0.466902 L 12.3641 0.520065 L 12.3617 0.573218 L 12.3591 0.62636 L 12.3563 0.679491 L 12.3533 0.73261 L 12.2969 0.782857 L 12.2403 0.833089 L 12.1834 0.883305 L 12.1263 0.933503 L 12.069 0.983683 L 12.0114 1.03384 L 11.9535 1.08398 L 11.8954 1.1341 L 11.8371 1.18419 L 11.7785 1.23425 L 11.7196 1.28429 L 11.6604 1.3343 L 11.601 1.38428 L 11.5414 1.43422 L 11.4814 1.48413 L 11.4212 1.53401 L 11.3606 1.58384 L 11.2998 1.63364 L 11.2387 1.68339 L 11.1773 1.7331 L 11.1156 1.78277 L 11.0536 1.83238 L 10.9913 1.88195 L 10.9287 1.93146 L 10.8658 1.98091 L 10.8025 2.03031 L 10.7389 2.07964 L 10.675 2.12892 L 10.6108 2.17812 L 10.5462 2.22726 L 10.4813 2.27632 L 10.416 2.32531 L 10.3504 2.37422 L 10.2844 2.42305 L 10.2181 2.47179 L 10.1514 2.52044 L 10.0843 2.569 L 10.0169 2.61747 L 9.94904 2.66584 L 9.94904 2.66584 L 9.9836 2.74164 L 10.0178 2.81734 L 10.0516 2.89293 L 10.085 2.96842 L 10.1181 3.0438 L 10.1508 3.11907 L 10.1832 3.19424 L 10.2152 3.2693 L 10.2469 3.34425 L 10.2783 3.41909 L 10.3093 3.49383 L 10.34 3.56845 L 10.3704 3.64296 L 10.4005 3.71737 L 10.4303 3.79167 L 10.4597 3.86585 L 10.4889 3.93993 L 10.5178 4.0139 L 10.5464 4.08775 L 10.5747 4.1615 L 10.6028 4.23514 L 10.6305 4.30867 L 10.658 4.38209 L 10.6852 4.4554 L 10.7122 4.5286 L 10.7389 4.6017 L 10.7654 4.67469 L 10.7916 4.74756 L 10.8176 4.82033 L 10.8433 4.893 L 10.8688 4.96555 L 10.894 5.038 L 10.9191 5.11034 L 10.9439 5.18258 L 10.9684 5.25471 L 10.9928 5.32674 L 11.0169 5.39866 L 11.0409 5.47048 L 11.0646 5.54219 L 11.0406 5.58971 L 11.0165 5.63713 L 10.9922 5.68444 L 10.9676 5.73164 L 10.9429 5.77875 L 10.9179 5.82574 L 10.8928 5.87263 L 10.8674 5.9194 L 10.8419 5.96607 L 10.8161 6.01263 L 10.7902 6.05908 L 10.764 6.10541 L 10.6695 6.26922 L 10.6424 6.31504 L 10.6152 6.36074 L 10.5877 6.40632 L 10.5601 6.45178 L 10.5322 6.49712 L 10.5042 6.54234 L 10.476 6.58744 L 10.4476 6.63242 L 10.419 6.67728 L 10.3901 6.72201 L 10.3612 6.76662 L 10.332 6.81111 L 10.258 6.82642 L 10.1838 6.84161 L 10.1095 6.85667 L 10.0349 6.87159 L 9.96018 6.88637 L 9.88522 6.90101 L 9.81006 6.91551 L 9.73469 6.92987 L 9.65911 6.94407 L 9.58332 6.95812 L 9.50731 6.97202 L 9.43109 6.98576 L 9.35465 6.99934 L 9.278 7.01275 L 9.20112 7.026 L 9.12401 7.03907 L 9.04668 7.05197 L 8.96912 7.06469 L 8.89133 7.07723 L 8.8133 7.08958 L 8.73504 7.10174 L 8.65654 7.11371 L 8.5778 7.12548 L 8.49881 7.13705 L 8.41959 7.14841 L 8.34011 7.15956 L 8.26038 7.1705 L 8.1804 7.18122 L 8.10016 7.19171 L 8.01967 7.20197 L 7.93892 7.212 L 7.8579 7.2218 L 7.77662 7.23134 L 7.69506 7.24064 L 7.61324 7.24968 L 7.53115 7.25847 L 7.44878 7.26699 L 7.36613 7.27523 L 7.2832 7.2832 L 7.2832 7.2832 L 7.27523 7.36613 L 7.26699 7.44878 L 7.25847 7.53115 L 7.24968 7.61324 L 7.24064 7.69506 L 7.23134 7.77662 L 7.2218 7.8579 L 7.212 7.93892 L 7.20197 8.01967 L 7.19171 8.10016 L 7.18122 8.1804 L 7.1705 8.26038 L 7.15956 8.34011 L 7.14841 8.41959 L 7.13705 8.49881 L 7.12548 8.5778 L 7.11371 8.65654 L 7.10174 8.73504 L 7.08958 8.8133 L 7.07723 8.89133 L 7.06469 8.96912 L 7.05197 9.04668 L 7.03907 9.12401 L 7.026 9.20112 L 7.01275 9.278 L 6.99934 9.35465 L 6.98576 9.43109 L 6.97202 9.50731 L 6.95812 9.58332 L 6.94407 9.65911 L 6.92987 9.73469 L 6.91551 9.81006 L 6.90101 9.88522 L 6.88637 9.96018 L 6.87159 10.0349 L 6.85667 10.1095 L 6.84161 10.1838 L 6.82642 10.258 L 6.81111 10.332 L 6.76662 10.3612 L 6.72201 10.3901 L 6.67728 10.419 L 6.63242 10.4476 L 6.58744 10.476 L 6.54234 10.5042 L 6.49712 10.5322 L 6.45178 10.5601 L 6.40632 10.5877 L 6.36074 10.6152 L 6.31504 10.6424 L 6.26922 10.6695 L 6.10541 10.764 L 6.05908 10.7902 L 6.01263 10.8161 L 5.96607 10.8419 L 5.9194 10.8674 L 5.87263 10.8928 L 5.82574 10.9179 L 5.77875 10.9429 L 5.73164 10.9676 L 5.68444 10.9922 L 5.63713 11.0165 L 5.58971 11.0406 L 5.54219 11.0646 L 5.47048 11.0409 L 5.39866 11.0169 L 5.32674 10.9928 L 5.25471 10.9684 L 5.18258 10.9439 L 5.11034 10.9191 L 5.038 10.894 L 4.96555 10.8688 L 4.893 10.8433 L 4.82033 10.8176 L 4.74756 10.7916 L 4.67469 10.7654 L 4.6017 10.7389 L 4.5286 10.7122 L 4.4554 10.6852 L 4.38209 10.658 L 4.30867 10.6305 L 4.23514 10.6028 L 4.1615 10.5747 L 4.08775 10.5464 L 4.0139 10.5178 L 3.93993 10.4889 L 3.86585 10.4597 L 3.79167 10.4303 L 3.71737 10.4005 L 3.64296 10.3704 L 3.56845 10.34 L 3.49383 10.3093 L 3.41909 10.2783 L 3.34425 10.2469 L 3.2693 10.2152 L 3.19424 10.1832 L 3.11907 10.1508 L 3.0438 10.1181 L 2.96842 10.085 L 2.89293 10.0516 L 2.81734 10.0178 L 2.74164 9.9836 L 2.66584 9.94904 L 2.66584 9.94904 L 2.61747 10.0169 L 2.569 10.0843 L 2.52044 10.1514 L 2.47179 10.2181 L 2.42305 10.2844 L 2.37422 10.3504 L 2.32531 10.416 L 2.27632 10.4813 L 2.22726 10.5462 L 2.17812 10.6108 L 2.12892 10.675 L 2.07964 10.7389 L 2.03031 10.8025 L 1.98091 10.8658 L 1.93146 10.9287 L 1.88195 10.9913 L 1.83238 11.0536 L 1.78277 11.1156 L 1.7331 11.1773 L 1.68339 11.2387 L 1.63364 11.2998 L 1.58384 11.3606 L 1.53401 11.4212 L 1.48413 11.4814 L 1.43422 11.5414 L 1.38428 11.601 L 1.3343 11.6604 L 1.28429 11.7196 L 1.23425 11.7785 L 1.18419 11.8371 L 1.1341 11.8954 L 1.08398 11.9535 L 1.03384 12.0114 L 0.983683 12.069 L 0.933503 12.1263 L 0.883305 12.1834 L 0.833089 12.2403 L 0.782857 12.2969 L 0.73261 12.3533 L 0.679491 12.3563 L 0.62636 12.3591 L 0.573218 12.3617 L 0.520065 12.3641 L 0.466902 12.3662 L 0.41373 12.3681 L 0.360551 12.3697 L 0.307366 12.3712 L 0.254174 12.3724 L 0.200978 12.3734 L 0.147778 12.3741 L 0.0945758 12.3746 L -0.0945758 12.3746 L -0.147778 12.3741 L -0.200978 12.3734 L -0.254174 12.3724 L -0.307366 12.3712 L -0.360551 12.3697 L -0.41373 12.3681 L -0.466902 12.3662 L -0.520065 12.3641 L -0.573218 12.3617 L -0.62636 12.3591 L -0.679491 12.3563 L -0.73261 12.3533 L -0.782857 12.2969 L -0.833089 12.2403 L -0.883305 12.1834 L -0.933503 12.1263 L -0.983683 12.069 L -1.03384 12.0114 L -1.08398 11.9535 L -1.1341 11.8954 L -1.18419 11.8371 L -1.23425 11.7785 L -1.28429 11.7196 L -1.3343 11.6604 L -1.38428 11.601 L -1.43422 11.5414 L -1.48413 11.4814 L -1.53401 11.4212 L -1.58384 11.3606 L -1.63364 11.2998 L -1.68339 11.2387 L -1.7331 11.1773 L -1.78277 11.1156 L -1.83238 11.0536 L -1.88195 10.9913 L -1.93146 10.9287 L -1.98091 10.8658 L -2.03031 10.8025 L -2.07964 10.7389 L -2.12892 10.675 L -2.17812 10.6108 L -2.22726 10.5462 L -2.27632 10.4813 L -2.32531 10.416 L -2.37422 10.3504 L -2.42305 10.2844 L -2.47179 10.2181 L -2.52044 10.1514 L -2.569 10.0843 L -2.61747 10.0169 L -2.66584 9.94904 L -2.66584 9.94904 L -2.74164 9.9836 L -2.81734 10.0178 L -2.89293 10.0516 L -2.96842 10.085 L -3.0438 10.1181 L -3.11907 10.1508 L -3.19424 10.1832 L -3.2693 10.2152 L -3.34425 10.2469 L -3.41909 10.2783 L -3.49383 10.3093 L -3.56845 10.34 L -3.64296 10.3704 L -3.71737 10.4005 L -3.79167 10.4303 L -3.86585 10.4597 L -3.93993 10.4889 L -4.0139 10.5178 L -4.08775 10.5464 L -4.1615 10.5747 L -4.23514 10.6028 L -4.30867 10.6305 L -4.38209 10.658 L -4.4554 10.6852 L -4.5286 10.7122 L -4.6017 10.7389 L -4.67469 10.7654 L -4.74756 10.7916 L -4.82033 10.8176 L -4.893 10.8433 L -4.96555 10.8688 L -5.038 10.894 L -5.11034 10.9191 L -5.18258 10.9439 L -5.25471 10.9684 L -5.32674 10.9928 L -5.39866 11.0169 L -5.47048 11.0409 L -5.54219 11.0646 L -5.58971 11.0406 L -5.63713 11.0165 L -5.68444 10.9922 L -5.73164 10.9676 L -5.77875 10.9429 L -5.82574 10.9179 L -5.87263 10.8928 L -5.9194 10.8674 L -5.96607 10.8419 L -6.01263 10.8161 L -6.05908 10.7902 L -6.10541 10.764 L -6.26922 10.6695 L -6.31504 10.6424 L -6.36074 10.6152 L -6.40632 10.5877 L -6.45178 10.5601 L -6.49712 10.5322 L -6.54234 10.5042 L -6.58744 10.476 L -6.63242 10.4476 L -6.67728 10.419 L -6.72201 10.3901 L -6.76662 10.3612 L -6.81111 10.332 L -6.82642 10.258 L -6.84161 10.1838 L -6.85667 10.1095 L -6.87159 10.0349 L -6.88637 9.96018 L -6.90101 9.88522 L -6.91551 9.81006 L -6.92987 9.73469 L -6.94407 9.65911 L -6.95812 9.58332 L -6.97202 9.50731 L -6.98576 9.43109 L -6.99934 9.35465 L -7.01275 9.278 L -7.026 9.20112 L -7.03907 9.12401 L -7.05197 9.04668 L -7.06469 8.96912 L -7.07723 8.89133 L -7.08958 8.8133 L -7.10174 8.73504 L -7.11371 8.65654 L -7.12548 8.5778 L -7.13705 8.49881 L -7.14841 8.41959 L -7.15956 8.34011 L -7.1705 8.26038 L -7.18122 8.1804 L -7.19171 8.10016 L -7.20197 8.01967 L -7.212 7.93892 L -7.2218 7.8579 L -7.23134 7.77662 L -7.24064 7.69506 L -7.24968 7.61324 L -7.25847 7.53115 L -7.26699 7.44878 L -7.27523 7.36613 L -7.2832 7.2832 L -7.2832 7.2832 L -7.36613 7.27523 L -7.44878 7.26699 L -7.53115 7.25847 L -7.61324 7.24968 L -7.69506 7.24064 L -7.77662 7.23134 L -7.8579 7.2218 L -7.93892 7.212 L -8.01967 7.20197 L -8.10016 7.19171 L -8.1804 7.18122 L -8.26038 7.1705 L -8.34011 7.15956 L -8.41959 7.14841 L -8.49881 7.13705 L -8.5778 7.12548 L -8.65654 7.11371 L -8.73504 7.10174 L -8.8133 7.08958 L -8.89133 7.07723 L -8.96912 7.06469 L -9.04668 7.05197 L -9.12401 7.03907 L -9.20112 7.026 L -9.278 7.01275 L -9.35465 6.99934 L -9.43109 6.98576 L -9.50731 6.97202 L -9.58332 6.95812 L -9.65911 6.94407 L -9.73469 6.92987 L -9.81006 6.91551 L -9.88522 6.90101 L -9.96018 6.88637 L -10.0349 6.87159 L -10.1095 6.85667 L -10.1838 6.84161 L -10.258 6.82642 L -10.332 6.81111 L -10.3612 6.76662 L -10.3901 6.72201 L -10.419 6.67728 L -10.4476 6.63242 L -10.476 6.58744 L -10.5042 6.54234 L -10.5322 6.49712 L -10.5601 6.45178 L -10.5877 6.40632 L -10.6152 6.36074 L -10.6424 6.31504 L -10.6695 6.26922 L -10.764 6.10541 L -10.7902 6.05908 L -10.8161 6.01263 L -10.8419 5.96607 L -10.8674 5.9194 L -10.8928 5.87263 L -10.9179 5.82574 L -10.9429 5.77875 L -10.9676 5.73164 L -10.9922 5.68444 L -11.0165 5.63713 L -11.0406 5.58971 L -11.0646 5.54219 L -11.0409 5.47048 L -11.0169 5.39866 L -10.9928 5.32674 L -10.9684 5.25471 L -10.9439 5.18258 L -10.9191 5.11034 L -10.894 5.038 L -10.8688 4.96555 L -10.8433 4.893 L -10.8176 4.82033 L -10.7916 4.74756 L -10.7654 4.67469 L -10.7389 4.6017 L -10.7122 4.5286 L -10.6852 4.4554 L -10.658 4.38209 L -10.6305 4.30867 L -10.6028 4.23514 L -10.5747 4.1615 L -10.5464 4.08775 L -10.5178 4.0139 L -10.4889 3.93993 L -10.4597 3.86585 L -10.4303 3.79167 L -10.4005 3.71737 L -10.3704 3.64296 L -10.34 3.56845 L -10.3093 3.49383 L -10.2783 3.41909 L -10.2469 3.34425 L -10.2152 3.2693 L -10.1832 3.19424 L -10.1508 3.11907 L -10.1181 3.0438 L -10.085 2.96842 L -10.0516 2.89293 L -10.0178 2.81734 L -9.9836 2.74164 L -9.94904 2.66584 L -9.94904 2.66584 L -10.0169 2.61747 L -10.0843 2.569 L -10.1514 2.52044 L -10.2181 2.47179 L -10.2844 2.42305 L -10.3504 2.37422 L -10.416 2.32531 L -10.4813 2.27632 L -10.5462 2.22726 L -10.6108 2.17812 L -10.675 2.12892 L -10.7389 2.07964 L -10.8025 2.03031 L -10.8658 1.98091 L -10.9287 1.93146 L -10.9913 1.88195 L -11.0536 1.83238 L -11.1156 1.78277 L -11.1773 1.7331 L -11.2387 1.68339 L -11.2998 1.63364 L -11.3606 1.58384 L -11.4212 1.53401 L -11.4814 1.48413 L -11.5414 1.43422 L -11.601 1.38428 L -11.6604 1.3343 L -11.7196 1.28429 L -11.7785 1.23425 L -11.8371 1.18419 L -11.8954 1.1341 L -11.9535 1.08398 L -12.0114 1.03384 L -12.069 0.983683 L -12.1263 0.933503 L -12.1834 0.883305 L -12.2403 0.833089 L -12.2969 0.782857 L -12.3533 0.73261 L -12.3563 0.679491 L -12.3591 0.62636 L -12.3617 0.573218 L -12.3641 0.520065 L -12.3662 0.466902 L -12.3681 0.41373 L -12.3697 0.360551 L -12.3712 0.307366 L -12.3724 0.254174 L -12.3734 0.200978 L -12.3741 0.147778 L -12.3746 0.0945758 L -12.3746 -0.0945758 L -12.3741 -0.147778 L -12.3734 -0.200978 L -12.3724 -0.254174 L -12.3712 -0.307366 L -12.3697 -0.360551 L -12.3681 -0.41373 L -12.3662 -0.466902 L -12.3641 -0.520065 L -12.3617 -0.573218 L -12.3591 -0.62636 L -12.3563 -0.679491 L -12.3533 -0.73261 L -12.2969 -0.782857 L -12.2403 -0.833089 L -12.1834 -0.883305 L -12.1263 -0.933503 L -12.069 -0.983683 L -12.0114 -1.03384 L -11.9535 -1.08398 L -11.8954 -1.1341 L -11.8371 -1.18419 L -11.7785 -1.23425 L -11.7196 -1.28429 L -11.6604 -1.3343 L -11.601 -1.38428 L -11.5414 -1.43422 L -11.4814 -1.48413 L -11.4212 -1.53401 L -11.3606 -1.58384 L -11.2998 -1.63364 L -11.2387 -1.68339 L -11.1773 -1.7331 L -11.1156 -1.78277 L -11.0536 -1.83238 L -10.9913 -1.88195 L -10.9287 -1.93146 L -10.8658 -1.98091 L -10.8025 -2.03031 L -10.7389 -2.07964 L -10.675 -2.12892 L -10.6108 -2.17812 L -10.5462 -2.22726 L -10.4813 -2.27632 L -10.416 -2.32531 L -10.3504 -2.37422 L -10.2844 -2.42305 L -10.2181 -2.47179 L -10.1514 -2.52044 L -10.0843 -2.569 L -10.0169 -2.61747 L -9.94904 -2.66584 L -9.94904 -2.66584 L -9.9836 -2.74164 L -10.0178 -2.81734 L -10.0516 -2.89293 L -10.085 -2.96842 L -10.1181 -3.0438 L -10.1508 -3.11907 L -10.1832 -3.19424 L -10.2152 -3.2693 L -10.2469 -3.34425 L -10.2783 -3.41909 L -10.3093 -3.49383 L -10.34 -3.56845 L -10.3704 -3.64296 L -10.4005 -3.71737 L -10.4303 -3.79167 L -10.4597 -3.86585 L -10.4889 -3.93993 L -10.5178 -4.0139 L -10.5464 -4.08775 L -10.5747 -4.1615 L -10.6028 -4.23514 L -10.6305 -4.30867 L -10.658 -4.38209 L -10.6852 -4.4554 L -10.7122 -4.5286 L -10.7389 -4.6017 L -10.7654 -4.67469 L -10.7916 -4.74756 L -10.8176 -4.82033 L -10.8433 -4.893 L -10.8688 -4.96555 L -10.894 -5.038 L -10.9191 -5.11034 L -10.9439 -5.18258 L -10.9684 -5.25471 L -10.9928 -5.32674 L -11.0169 -5.39866 L -11.0409 -5.47048 L -11.0646 -5.54219 L -11.0406 -5.58971 L -11.0165 -5.63713 L -10.9922 -5.68444 L -10.9676 -5.73164 L -10.9429 -5.77875 L -10.9179 -5.82574 L -10.8928 -5.87263 L -10.8674 -5.9194 L -10.8419 -5.96607 L -10.8161 -6.01263 L -10.7902 -6.05908 L -10.764 -6.10541 L -10.6695 -6.26922 L -10.6424 -6.31504 L -10.6152 -6.36074 L -10.5877 -6.40632 L -10.5601 -6.45178 L -10.5322 -6.49712 L -10.5042 -6.54234 L -10.476 -6.58744 L -10.4476 -6.63242 L -10.419 -6.67728 L -10.3901 -6.72201 L -10.3612 -6.76662 L -10.332 -6.81111 L -10.258 -6.82642 L -10.1838 -6.84161 L -10.1095 -6.85667 L -10.0349 -6.87159 L -9.96018 -6.88637 L -9.88522 -6.90101 L -9.81006 -6.91551 L -9.73469 -6.92987 L -9.65911 -6.94407 L -9.58332 -6.95812 L -9.50731 -6.97202 L -9.43109 -6.98576 L -9.35465 -6.99934 L -9.278 -7.01275 L -9.20112 -7.026 L -9.12401 -7.03907 L -9.04668 -7.05197 L -8.96912 -7.06469 L -8.89133 -7.07723 L -8.8133 -7.08958 L -8.73504 -7.10174 L -8.65654 -7.11371 L -8.5778 -7.12548 L -8.49881 -7.13705 L -8.41959 -7.14841 L -8.34011 -7.15956 L -8.26038 -7.1705 L -8.1804 -7.18122 L -8.10016 -7.19171 L -8.01967 -7.20197 L -7.93892 -7.212 L -7.8579 -7.2218 L -7.77662 -7.23134 L -7.69506 -7.24064 L -7.61324 -7.24968 L -7.53115 -7.25847 L -7.44878 -7.26699 L -7.36613 -7.27523 L -7.2832 -7.2832 L -7.2832 -7.2832 L -7.27523 -7.36613 L -7.26699 -7.44878 L -7.25847 -7.53115 L -7.24968 -7.61324 L -7.24064 -7.69506 L -7.23134 -7.77662 L -7.2218 -7.8579 L -7.212 -7.93892 L -7.20197 -8.01967 L -7.19171 -8.10016 L -7.18122 -8.1804 L -7.1705 -8.26038 L -7.15956 -8.34011 L -7.14841 -8.41959 L -7.13705 -8.49881 L -7.12548 -8.5778 L -7.11371 -8.65654 L -7.10174 -8.73504 L -7.08958 -8.8133 L -7.07723 -8.89133 L -7.06469 -8.96912 L -7.05197 -9.04668 L -7.03907 -9.12401 L -7.026 -9.20112 L -7.01275 -9.278 L -6.99934 -9.35465 L -6.98576 -9.43109 L -6.97202 -9.50731 L -6.95812 -9.58332 L -6.94407 -9.65911 L -6.92987 -9.73469 L -6.91551 -9.81006 L -6.90101 -9.88522 L -6.88637 -9.96018 L -6.87159 -10.0349 L -6.85667 -10.1095 L -6.84161 -10.1838 L -6.82642 -10.258 L -6.81111 -10.332 L -6.76662 -10.3612 L -6.72201 -10.3901 L -6.67728 -10.419 L -6.63242 -10.4476 L -6.58744 -10.476 L -6.54234 -10.5042 L -6.49712 -10.5322 L -6.45178 -10.5601 L -6.40632 -10.5877 L -6.36074 -10.6152 L -6.31504 -10.6424 L -6.26922 -10.6695 L -6.10541 -10.764 L -6.05908 -10.7902 L -6.01263 -10.8161 L -5.96607 -10.8419 L -5.9194 -10.8674 L -5.87263 -10.8928 L -5.82574 -10.9179 L -5.77875 -10.9429 L -5.73164 -10.9676 L -5.68444 -10.9922 L -5.63713 -11.0165 L -5.58971 -11.0406 L -5.54219 -11.0646 L -5.47048 -11.0409 L -5.39866 -11.0169 L -5.32674 -10.9928 L -5.25471 -10.9684 L -5.18258 -10.9439 L -5.11034 -10.9191 L -5.038 -10.894 L -4.96555 -10.8688 L -4.893 -10.8433 L -4.82033 -10.8176 L -4.74756 -10.7916 L -4.67469 -10.7654 L -4.6017 -10.7389 L -4.5286 -10.7122 L -4.4554 -10.6852 L -4.38209 -10.658 L -4.30867 -10.6305 L -4.23514 -10.6028 L -4.1615 -10.5747 L -4.08775 -10.5464 L -4.0139 -10.5178 L -3.93993 -10.4889 L -3.86585 -10.4597 L -3.79167 -10.4303 L -3.71737 -10.4005 L -3.64296 -10.3704 L -3.56845 -10.34 L -3.49383 -10.3093 L -3.41909 -10.2783 L -3.34425 -10.2469 L -3.2693 -10.2152 L -3.19424 -10.1832 L -3.11907 -10.1508 L -3.0438 -10.1181 L -2.96842 -10.085 L -2.89293 -10.0516 L -2.81734 -10.0178 L -2.74164 -9.9836 L -2.66584 -9.94904 L -2.66584 -9.94904 L -2.61747 -10.0169 L -2.569 -10.0843 L -2.52044 -10.1514 L -2.47179 -10.2181 L -2.42305 -10.2844 L -2.37422 -10.3504 L -2.32531 -10.416 L -2.27632 -10.4813 L -2.22726 -10.5462 L -2.17812 -10.6108 L -2.12892 -10.675 L -2.07964 -10.7389 L -2.03031 -10.8025 L -1.98091 -10.8658 L -1.93146 -10.9287 L -1.88195 -10.9913 L -1.83238 -11.0536 L -1.78277 -11.1156 L -1.7331 -11.1773 L -1.68339 -11.2387 L -1.63364 -11.2998 L -1.58384 -11.3606 L -1.53401 -11.4212 L -1.48413 -11.4814 L -1.43422 -11.5414 L -1.38428 -11.601 L -1.3343 -11.6604 L -1.28429 -11.7196 L -1.23425 -11.7785 L -1.18419 -11.8371 L -1.1341 -11.8954 L -1.08398 -11.9535 L -1.03384 -12.0114 L -0.983683 -12.069 L -0.933503 -12.1263 L -0.883305 -12.1834 L -0.833089 -12.2403 L -0.782857 -12.2969 L -0.73261 -12.3533 L -0.679491 -12.3563 L -0.62636 -12.3591 L -0.573218 -12.3617 L -0.520065 -12.3641 L -0.466902 -12.3662 L -0.41373 -12.3681 L -0.360551 -12.3697 L -0.307366 -12.3712 L -0.254174 -12.3724 L -0.200978 -12.3734 L -0.147778 -12.3741 L -0.0945758 -12.3746 L 0.0945758 -12.3746 L 0.147778 -12.3741 L 0.200978 -12.3734 L 0.254174 -12.3724 L 0.307366 -12.3712 L 0.360551 -12.3697 L 0.41373 -12.3681 L 0.466902 -12.3662 L 0.520065 -12.3641 L 0.573218 -12.3617 L 0.62636 -12.3591 L 0.679491 -12.3563 L 0.73261 -12.3533 L 0.782857 -12.2969 L 0.833089 -12.2403 L 0.883305 -12.1834 L 0.933503 -12.1263 L 0.983683 -12.069 L 1.03384 -12.0114 L 1.08398 -11.9535 L 1.1341 -11.8954 L 1.18419 -11.8371 L 1.23425 -11.7785 L 1.28429 -11.7196 L 1.3343 -11.6604 L 1.38428 -11.601 L 1.43422 -11.5414 L 1.48413 -11.4814 L 1.53401 -11.4212 L 1.58384 -11.3606 L 1.63364 -11.2998 L 1.68339 -11.2387 L 1.7331 -11.1773 L 1.78277 -11.1156 L 1.83238 -11.0536 L 1.88195 -10.9913 L 1.93146 -10.9287 L 1.98091 -10.8658 L 2.03031 -10.8025 L 2.07964 -10.7389 L 2.12892 -10.675 L 2.17812 -10.6108 L 2.22726 -10.5462 L 2.27632 -10.4813 L 2.32531 -10.416 L 2.37422 -10.3504 L 2.42305 -10.2844 L 2.47179 -10.2181 L 2.52044 -10.1514 L 2.569 -10.0843 L 2.61747 -10.0169 L 2.66584 -9.94904 L 2.66584 -9.94904 L 2.74164 -9.9836 L 2.81734 -10.0178 L 2.89293 -10.0516 L 2.96842 -10.085 L 3.0438 -10.1181 L 3.11907 -10.1508 L 3.19424 -10.1832 L 3.2693 -10.2152 L 3.34425 -10.2469 L 3.41909 -10.2783 L 3.49383 -10.3093 L 3.56845 -10.34 L 3.64296 -10.3704 L 3.71737 -10.4005 L 3.79167 -10.4303 L 3.86585 -10.4597 L 3.93993 -10.4889 L 4.0139 -10.5178 L 4.08775 -10.5464 L 4.1615 -10.5747 L 4.23514 -10.6028 L 4.30867 -10.6305 L 4.38209 -10.658 L 4.4554 -10.6852 L 4.5286 -10.7122 L 4.6017 -10.7389 L 4.67469 -10.7654 L 4.74756 -10.7916 L 4.82033 -10.8176 L 4.893 -10.8433 L 4.96555 -10.8688 L 5.038 -10.894 L 5.11034 -10.9191 L 5.18258 -10.9439 L 5.25471 -10.9684 L 5.32674 -10.9928 L 5.39866 -11.0169 L 5.47048 -11.0409 L 5.54219 -11.0646 L 5.58971 -11.0406 L 5.63713 -11.0165 L 5.68444 -10.9922 L 5.73164 -10.9676 L 5.77875 -10.9429 L 5.82574 -10.9179 L 5.87263 -10.8928 L 5.9194 -10.8674 L 5.96607 -10.8419 L 6.01263 -10.8161 L 6.05908 -10.7902 L 6.10541 -10.764 L 6.26922 -10.6695 L 6.31504 -10.6424 L 6.36074 -10.6152 L 6.40632 -10.5877 L 6.45178 -10.5601 L 6.49712 -10.5322 L 6.54234 -10.5042 L 6.58744 -10.476 L 6.63242 -10.4476 L 6.67728 -10.419 L 6.72201 -10.3901 L 6.76662 -10.3612 L 6.81111 -10.332 L 6.82642 -10.258 L 6.84161 -10.1838 L 6.85667 -10.1095 L 6.87159 -10.0349 L 6.88637 -9.96018 L 6.90101 -9.88522 L 6.91551 -9.81006 L 6.92987 -9.73469 L 6.94407 -9.65911 L 6.95812 -9.58332 L 6.97202 -9.50731 L 6.98576 -9.43109 L 6.99934 -9.35465 L 7.01275 -9.278 L 7.026 -9.20112 L 7.03907 -9.12401 L 7.05197 -9.04668 L 7.06469 -8.96912 L 7.07723 -8.89133 L 7.08958 -8.8133 L 7.10174 -8.73504 L 7.11371 -8.65654 L 7.12548 -8.5778 L 7.13705 -8.49881 L 7.14841 -8.41959 L 7.15956 -8.34011 L 7.1705 -8.26038 L 7.18122 -8.1804 L 7.19171 -8.10016 L 7.20197 -8.01967 L 7.212 -7.93892 L 7.2218 -7.8579 L 7.23134 -7.77662 L 7.24064 -7.69506 L 7.24968 -7.61324 L 7.25847 -7.53115 L 7.26699 -7.44878 L 7.27523 -7.36613 L 7.2832 -7.2832 L 7.2832 -7.2832 L 7.36613 -7.27523 L 7.44878 -7.26699 L 7.53115 -7.25847 L 7.61324 -7.24968 L 7.69506 -7.24064 L 7.77662 -7.23134 L 7.8579 -7.2218 L 7.93892 -7.212 L 8.01967 -7.20197 L 8.10016 -7.19171 L 8.1804 -7.18122 L 8.26038 -7.1705 L 8.34011 -7.15956 L 8.41959 -7.14841 L 8.49881 -7.13705 L 8.5778 -7.12548 L 8.65654 -7.11371 L 8.73504 -7.10174 L 8.8133 -7.08958 L 8.89133 -7.07723 L 8.96912 -7.06469 L 9.04668 -7.05197 L 9.12401 -7.03907 L 9.20112 -7.026 L 9.278 -7.01275 L 9.35465 -6.99934 L 9.43109 -6.98576 L 9.50731 -6.97202 L 9.58332 -6.95812 L 9.65911 -6.94407 L 9.73469 -6.92987 L 9.81006 -6.91551 L 9.88522 -6.90101 L 9.96018 -6.88637 L 10.0349 -6.87159 L 10.1095 -6.85667 L 10.1838 -6.84161 L 10.258 -6.82642 L 10.332 -6.81111 L 10.3612 -6.76662 L 10.3901 -6.72201 L 10.419 -6.67728 L 10.4476 -6.63242 L 10.476 -6.58744 L 10.5042 -6.54234 L 10.5322 -6.49712 L 10.5601 -6.45178 L 10.5877 -6.40632 L 10.6152 -6.36074 L 10.6424 -6.31504 L 10.6695 -6.26922 L 10.764 -6.10541 L 10.7902 -6.05908 L 10.8161 -6.01263 L 10.8419 -5.96607 L 10.8674 -5.9194 L 10.8928 -5.87263 L 10.9179 -5.82574 L 10.9429 -5.77875 L 10.9676 -5.73164 L 10.9922 -5.68444 L 11.0165 -5.63713 L 11.0406 -5.58971 L 11.0646 -5.54219 L 11.0409 -5.47048 L 11.0169 -5.39866 L 10.9928 -5.32674 L 10.9684 -5.25471 L 10.9439 -5.18258 L 10.9191 -5.11034 L 10.894 -5.038 L 10.8688 -4.96555 L 10.8433 -4.893 L 10.8176 -4.82033 L 10.7916 -4.74756 L 10.7654 -4.67469 L 10.7389 -4.6017 L 10.7122 -4.5286 L 10.6852 -4.4554 L 10.658 -4.38209 L 10.6305 -4.30867 L 10.6028 -4.23514 L 10.5747 -4.1615 L 10.5464 -4.08775 L 10.5178 -4.0139 L 10.4889 -3.93993 L 10.4597 -3.86585 L 10.4303 -3.79167 L 10.4005 -3.71737 L 10.3704 -3.64296 L 10.34 -3.56845 L 10.3093 -3.49383 L 10.2783 -3.41909 L 10.2469 -3.34425 L 10.2152 -3.2693 L 10.1832 -3.19424 L 10.1508 -3.11907 L 10.1181 -3.0438 L 10.085 -2.96842 L 10.0516 -2.89293 L 10.0178 -2.81734 L 9.9836 -2.74164 L 9.94904 -2.66584 L 9.94904 -2.66584 L 10.0169 -2.61747 L 10.0843 -2.569 L 10.1514 -2.52044 L 10.2181 -2.47179 L 10.2844 -2.42305 L 10.3504 -2.37422 L 10.416 -2.32531 L 10.4813 -2.27632 L 10.5462 -2.22726 L 10.6108 -2.17812 L 10.675 -2.12892 L 10.7389 -2.07964 L 10.8025 -2.03031 L 10.8658 -1.98091 L 10.9287 -1.93146 L 10.9913 -1.88195 L 11.0536 -1.83238 L 11.1156 -1.78277 L 11.1773 -1.7331 L 11.2387 -1.68339 L 11.2998 -1.63364 L 11.3606 -1.58384 L 11.4212 -1.53401 L 11.4814 -1.48413 L 11.5414 -1.43422 L 11.601 -1.38428 L 11.6604 -1.3343 L 11.7196 -1.28429 L 11.7785 -1.23425 L 11.8371 -1.18419 L 11.8954 -1.1341 L 11.9535 -1.08398 L 12.0114 -1.03384 L 12.069 -0.983683 L 12.1263 -0.933503 L 12.1834 -0.883305 L 12.2403 -0.833089 L 12.2969 -0.782857 L 12.3533 -0.73261 L 12.3563 -0.679491 L 12.3591 -0.62636 L 12.3617 -0.573218 L 12.3641 -0.520065 L 12.3662 -0.466902 L 12.3681 -0.41373 L 12.3697 -0.360551 L 12.3712 -0.307366 L 12.3724 -0.254174 L 12.3734 -0.200978 L 12.3741 -0.147778 L 12.3746 -0.0945758Z"
id="path1" />
</g>
</svg>
