<?xml version="1.0" encoding="UTF-8" standalone="no"?>
<svg version="1.1">
<g
style="fill:none;stroke:#000000;stroke-opacity:1;stroke-width:0.1">
<path d="M 13.6249 0.0439609 L 13.6247 0.0863074 L 13.6244 0.128653 L 13.6239 0.170997 L 13.6233 0.21334 L 13.6226 0.255681 L 13.6217 0.298019 L 13.6207 0.340354 L 13.6196 0.382686 L 13.6184 0.425014 L 13.617 0.467339 L 13.6155 0.509658 L 13.6138 0.551973 L 13.612 0.594283 L 13.6101 0.636586 L 13.6081 0.678884 L 13.6059 0.721175 L 13.6036 0.763459 L 13.6012 0.805736 L 13.5986 0.848004 L 13.5959 0.890265 L 13.5931 0.932517 L 13.5901 0.97476 L 13.587 1.01699 L 13.5838 1.05922 L 13.5381 1.09916 L 13.4923 1.13908 L 13.4464 1.179 L 13.4003 1.2189 L 13.3541 1.25879 L 13.3077 1.29866 L 13.2612 1.33853 L 13.2145 1.37837 L 13.1677 1.41821 L 13.1208 1.45802 L 13.0737 1.49782 L 13.0264 1.5376 L 12.979 1.57736 L 12.9314 1.61711 L 12.8837 1.65683 L 12.8358 1.69654 L 12.7878 1.73622 L 12.7396 1.77588 L 12.6912 1.81552 L 12.6427 1.85513 L 12.594 1.89473 L 12.5451 1.93429 L 12.4961 1.97383 L 12.4469 2.01334 L 12.3975 2.05283 L 12.348 2.09229 L 12.2983 2.13171 L 12.2484 2.17111 L 12.1983 2.21047 L 12.148 2.2498 L 12.0976 2.2891 L 12.047 2.32836 L 11.9961 2.36759 L 11.9451 2.40678 L 11.894 2.44593 L 11.8426 2.48505 L 11.791 2.52412 L 11.7393 2.56315 L 11.6873 2.60214 L 11.6351 2.64108 L 11.5828 2.67998 L 11.5302 2.71883 L 11.4774 2.75763 L 11.4245 2.79639 L 11.3713 2.83509 L 11.3179 2.87374 L 11.2643 2.91234 L 11.2105 2.95088 L 11.1564 2.98936 L 11.1564 2.98936 L 11.184 3.04971 L 11.2113 3.10999 L 11.2385 3.17022 L 11.2654 3.23039 L 11.2921 3.29049 L 11.3186 3.35054 L 11.3449 3.41053 L 11.371 3.47046 L 11.3969 3.53032 L 11.4226 3.59013 L 11.4481 3.64987 L 11.4734 3.70956 L 11.4985 3.76918 L 11.5234 3.82874 L 11.5482 3.88824 L 11.5728 3.94768 L 11.5972 4.00705 L 11.6214 4.06637 L 11.6454 4.12562 L 11.6693 4.18481 L 11.6929 4.24394 L 11.7165 4.30301 L 11.7398 4.36201 L 11.763 4.42096 L 11.786 4.47984 L 11.8088 4.53866 L 11.8315 4.59742 L 11.8541 4.65611 L 11.8764 4.71475 L 11.8987 4.77332 L 11.9207 4.83183 L 11.9426 4.89028 L 11.9644 4.94867 L 11.986 5.00699 L 12.0075 5.06526 L 12.0288 5.12346 L 12.05 5.1816 L 12.071 5.23968 L 12.0919 5.2977 L 12.1127 5.35566 L 12.1333 5.41356 L 12.1538 5.4714 L 12.1741 5.52917 L 12.1944 5.58689 L 12.2144 5.64455 L 12.2344 5.70214 L 12.2542 5.75968 L 12.2739 5.81716 L 12.2935 5.87457 L 12.2752 5.91275 L 12.2567 5.95088 L 12.2382 5.98894 L 12.2195 6.02695 L 12.2007 6.0649 L 12.1818 6.10279 L 12.1628 6.14062 L 12.1436 6.17839 L 12.1244 6.21611 L 12.105 6.25376 L 12.0855 6.29135 L 12.0659 6.32888 L 12.0462 6.36636 L 12.0263 6.40376 L 12.0064 6.44111 L 11.9863 6.4784 L 11.9661 6.51562 L 11.9458 6.55278 L 11.9254 6.58987 L 11.9048 6.62691 L 11.8842 6.66388 L 11.8634 6.70078 L 11.8425 6.73762 L 11.8215 6.77439 L 11.7776 6.85054 L 11.7562 6.88711 L 11.7347 6.92361 L 11.7132 6.96005 L 11.6915 6.99642 L 11.6697 7.03273 L 11.6478 7.06896 L 11.6257 7.10513 L 11.6036 7.14123 L 11.5813 7.17726 L 11.559 7.21322 L 11.5365 7.24911 L 11.5139 7.28493 L 11.4912 7.32068 L 11.4684 7.35636 L 11.4455 7.39197 L 11.4225 7.42751 L 11.3993 7.46297 L 11.3761 7.49836 L 11.3527 7.53369 L 11.3292 7.56893 L 11.3057 7.60411 L 11.282 7.63921 L 11.2582 7.67424 L 11.2343 7.70919 L 11.1748 7.72095 L 11.1151 7.73263 L 11.0554 7.74423 L 10.9955 7.75574 L 10.9356 7.76718 L 10.8755 7.77853 L 10.8153 7.78979 L 10.7549 7.80097 L 10.6945 7.81206 L 10.6339 7.82307 L 10.5732 7.83398 L 10.5124 7.8448 L 10.4515 7.85553 L 10.3904 7.86617 L 10.3292 7.87671 L 10.2679 7.88715 L 10.2064 7.8975 L 10.1449 7.90774 L 10.0831 7.91789 L 10.0213 7.92793 L 9.95935 7.93787 L 9.89725 7.94771 L 9.83502 7.95743 L 9.77265 7.96705 L 9.71015 7.97656 L 9.64751 7.98596 L 9.58474 7.99524 L 9.52183 8.00441 L 9.45878 8.01346 L 9.39559 8.0224 L 9.33226 8.03121 L 9.26879 8.0399 L 9.20517 8.04847 L 9.14141 8.05691 L 9.07751 8.06522 L 9.01346 8.07341 L 8.94926 8.08146 L 8.88492 8.08938 L 8.82042 8.09716 L 8.75578 8.10481 L 8.69099 8.11232 L 8.62604 8.11968 L 8.56094 8.1269 L 8.49569 8.13398 L 8.43028 8.14091 L 8.36472 8.14768 L 8.299 8.15431 L 8.23312 8.16077 L 8.16708 8.16708 L 8.16708 8.16708 L 8.16077 8.23312 L 8.15431 8.299 L 8.14768 8.36472 L 8.14091 8.43028 L 8.13398 8.49569 L 8.1269 8.56094 L 8.11968 8.62604 L 8.11232 8.69099 L 8.10481 8.75578 L 8.09716 8.82042 L 8.08938 8.88492 L 8.08146 8.94926 L 8.07341 9.01346 L 8.06522 9.07751 L 8.05691 9.14141 L 8.04847 9.20517 L 8.0399 9.26879 L 8.03121 9.33226 L 8.0224 9.39559 L 8.01346 9.45878 L 8.00441 9.52183 L 7.99524 9.58474 L 7.98596 9.64751 L 7.97656 9.71015 L 7.96705 9.77265 L 7.95743 9.83502 L 7.94771 9.89725 L 7.93787 9.95935 L 7.92793 10.0213 L 7.91789 10.0831 L 7.90774 10.1449 L 7.8975 10.2064 L 7.88715 10.2679 L 7.87671 10.3292 L 7.86617 10.3904 L 7.85553 10.4515 L 7.8448 10.5124 L 7.83398 10.5732 L 7.82307 10.6339 L 7.81206 10.6945 L 7.80097 10.7549 L 7.78979 10.8153 L 7.77853 10.8755 L 7.76718 10.9356 L 7.75574 10.9955 L 7.74423 11.0554 L 7.73263 11.1151 L 7.72095 11.1748 L 7.70919 11.2343 L 7.67424 11.2582 L 7.63921 11.282 L 7.60411 11.3057 L 7.56893 11.3292 L 7.53369 11.3527 L 7.49836 11.3761 L 7.46297 11.3993 L 7.42751 11.4225 L 7.39197 11.4455 L 7.35636 11.4684 L 7.32068 11.4912 L 7.28493 11.5139 L 7.24911 11.5365 L 7.21322 11.559 L 7.17726 11.5813 L 7.14123 11.6036 L 7.10513 11.6257 L 7.06896 11.6478 L 7.03273 11.6697 L 6.99642 11.6915 L 6.96005 11.7132 L 6.92361 11.7347 L 6.88711 11.7562 L 6.85054 11.7776 L 6.77439 11.8215 L 6.73762 11.8425 L 6.70078 11.8634 L 6.66388 11.8842 L 6.62691 11.9048 L 6.58987 11.9254 L 6.55278 11.9458 L 6.51562 11.9661 L 6.4784 11.9863 L 6.44111 12.0064 L 6.40376 12.0263 L 6.36636 12.0462 L 6.32888 12.0659 L 6.29135 12.0855 L 6.25376 12.105 L 6.21611 12.1244 L 6.17839 12.1436 L 6.14062 12.1628 L 6.10279 12.1818 L 6.0649 12.2007 L 6.02695 12.2195 L 5.98894 12.2382 L 5.95088 12.2567 L 5.91275 12.2752 L 5.87457 12.2935 L 5.81716 12.2739 L 5.75968 12.2542 L 5.70214 12.2344 L 5.64455 12.2144 L 5.58689 12.1944 L 5.52917 12.1741 L 5.4714 12.1538 L 5.41356 12.1333 L 5.35566 12.1127 L 5.2977 12.0919 L 5.23968 12.071 L 5.1816 12.05 L 5.12346 12.0288 L 5.06526 12.0075 L 5.00699 11.986 L 4.94867 11.9644 L 4.89028 11.9426 L 4.83183 11.9207 L 4.77332 11.8987 L 4.71475 11.8764 L 4.65611 11.8541 L 4.59742 11.8315 L 4.53866 11.8088 L 4.47984 11.786 L 4.42096 11.763 L 4.36201 11.7398 L 4.30301 11.7165 L 4.24394 11.6929 L 4.18481 11.6693 L 4.12562 11.6454 L 4.06637 11.6214 L 4.00705 11.5972 L 3.94768 11.5728 L 3.88824 11.5482 L 3.82874 11.5234 L 3.76918 11.4985 L 3.70956 11.4734 L 3.64987 11.4481 L 3.59013 11.4226 L 3.53032 11.3969 L 3.47046 11.371 L 3.41053 11.3449 L 3.35054 11.3186 L 3.29049 11.2921 L 3.23039 11.2654 L 3.17022 11.2385 L 3.10999 11.2113 L 3.04971 11.184 L 2.98936 11.1564 L 2.98936 11.1564 L 2.95088 11.2105 L 2.91234 11.2643 L 2.87374 11.3179 L 2.83509 11.3713 L 2.79639 11.4245 L 2.75763 11.4774 L 2.71883 11.5302 L 2.67998 11.5828 L 2.64108 11.6351 L 2.60214 11.6873 L 2.56315 11.7393 L 2.52412 11.791 L 2.48505 11.8426 L 2.44593 11.894 L 2.40678 11.9451 L 2.36759 11.9961 L 2.32836 12.047 L 2.2891 12.0976 L 2.2498 12.148 L 2.21047 12.1983 L 2.17111 12.2484 L 2.13171 12.2983 L 2.09229 12.348 L 2.05283 12.3975 L 2.01334 12.4469 L 1.97383 12.4961 L 1.93429 12.5451 L 1.89473 12.594 L 1.85513 12.6427 L 1.81552 12.6912 L 1.77588 12.7396 L 1.73622 12.7878 L 1.69654 12.8358 L 1.65683 12.8837 L 1.61711 12.9314 L 1.57736 12.979 L 1.5376 13.0264 L 1.49782 13.0737 L 1.45802 13.1208 L 1.41821 13.1677 L 1.37837 13.2145 L 1.33853 13.2612 L 1.29866 13.3077 L 1.25879 13.3541 L 1.2189 13.4003 L 1.179 13.4464 L 1.13908 13.4923 L 1.09916 13.5381 L 1.05922 13.5838 L 1.01699 13.587 L 0.97476 13.5901 L 0.932517 13.5931 L 0.890265 13.5959 L 0.848004 13.5986 L 0.805736 13.6012 L 0.763459 13.6036 L 0.721175 13.6059 L 0.678884 13.6081 L 0.636586 13.6101 L 0.594283 13.612 L 0.551973 13.6138 L 0.509658 13.6155 L 0.467339 13.617 L 0.425014 13.6184 L 0.382686 13.6196 L 0.340354 13.6207 L 0.298019 13.6217 L 0.255681 13.6226 L 0.21334 13.6233 L 0.170997 13.6239 L 0.128653 13.6244 L 0.0863074 13.6247 L 0.0439609 13.6249 L -0.0439609 13.6249 L -0.0863074 13.6247 L -0.128653 13.6244 L -0.170997 13.6239 L -0.21334 13.6233 L -0.255681 13.6226 L -0.298019 13.6217 L -0.340354 13.6207 L -0.382686 13.6196 L -0.425014 13.6184 L -0.467339 13.617 L -0.509658 13.6155 L -0.551973 13.6138 L -0.594283 13.612 L -0.636586 13.6101 L -0.678884 13.6081 L -0.721175 13.6059 L -0.763459 13.6036 L -0.805736 13.6012 L -0.848004 13.5986 L -0.890265 13.5959 L -0.932517 13.5931 L -0.97476 13.5901 L -1.01699 13.587 L -1.05922 13.5838 L -1.09916 13.5381 L -1.13908 13.4923 L -1.179 13.4464 L -1.2189 13.4003 L -1.25879 13.3541 L -1.29866 13.3077 L -1.33853 13.2612 L -1.37837 13.2145 L -1.41821 13.1677 L -1.45802 13.1208 L -1.49782 13.0737 L -1.5376 13.0264 L -1.57736 12.979 L -1.61711 12.9314 L -1.65683 12.8837 L -1.69654 12.8358 L -1.73622 12.7878 L -1.77588 12.7396 L -1.81552 12.6912 L -1.85513 12.6427 L -1.89473 12.594 L -1.93429 12.5451 L -1.97383 12.4961 L -2.01334 12.4469 L -2.05283 12.3975 L -2.09229 12.348 L -2.13171 12.2983 L -2.17111 12.2484 L -2.21047 12.1983 L -2.2498 12.148 L -2.2891 12.0976 L -2.32836 12.047 L -2.36759 11.9961 L -2.40678 11.9451 L -2.44593 11.894 L -2.48505 11.8426 L -2.52412 11.791 L -2.56315 11.7393 L -2.60214 11.6873 L -2.64108 11.6351 L -2.67998 11.5828 L -2.71883 11.5302 L -2.75763 11.4774 L -2.79639 11.4245 L -2.83509 11.3713 L -2.87374 11.3179 L -2.91234 11.2643 L -2.95088 11.2105 L -2.98936 11.1564 L -2.98936 11.1564 L -3.04971 11.184 L -3.10999 11.2113 L -3.17022 11.2385 L -3.23039 11.2654 L -3.29049 11.2921 L -3.35054 11.3186 L -3.41053 11.3449 L -3.47046 11.371 L -3.53032 11.3969 L -3.59013 11.4226 L -3.64987 11.4481 L -3.70956 11.4734 L -3.76918 11.4985 L -3.82874 11.5234 L -3.88824 11.5482 L -3.94768 11.5728 L -4.00705 11.5972 L -4.06637 11.6214 L -4.12562 11.6454 L -4.18481 11.6693 L -4.24394 11.6929 L -4.30301 11.7165 L -4.36201 11.7398 L -4.42096 11.763 L -4.47984 11.786 L -4.53866 11.8088 L -4.59742 11.8315 L -4.65611 11.8541 L -4.71475 11.8764 L -4.77332 11.8987 L -4.83183 11.9207 L -4.89028 11.9426 L -4.94867 11.9644 L -5.00699 11.986 L -5.06526 12.0075 L -5.12346 12.0288 L -5.1816 12.05 L -5.23968 12.071 L -5.2977 12.0919 L -5.35566 12.1127 L -5.41356 12.1333 L -5.4714 12.1538 L -5.52917 12.1741 L -5.58689 12.1944 L -5.64455 12.2144 L -5.70214 12.2344 L -5.75968 12.2542 L -5.81716 12.2739 L -5.87457 12.2935 L -5.91275 12.2752 L -5.95088 12.2567 L -5.98894 12.2382 L -6.02695 12.2195 L -6.0649 12.2007 L -6.10279 12.1818 L -6.14062 12.1628 L -6.17839 12.1436 L -6.21611 12.1244 L -6.25376 12.105 L -6.29135 12.0855 L -6.32888 12.0659 L -6.36636 12.0462 L -6.40376 12.0263 L -6.44111 12.0064 L -6.4784 11.9863 L -6.51562 11.9661 L -6.55278 11.9458 L -6.58987 11.9254 L -6.62691 11.9048 L -6.66388 11.8842 L -6.70078 11.8634 L -6.73762 11.8425 L -6.77439 11.8215 L -6.85054 11.7776 L -6.88711 11.7562 L -6.92361 11.7347 L -6.96005 11.7132 L -6.99642 11.6915 L -7.03273 11.6697 L -7.06896 11.6478 L -7.10513 11.6257 L -7.14123 11.6036 L -7.17726 11.5813 L -7.21322 11.559 L -7.24911 11.5365 L -7.28493 11.5139 L -7.32068 11.4912 L -7.35636 11.4684 L -7.39197 11.4455 L -7.42751 11.4225 L -7.46297 11.3993 L -7.49836 11.3761 L -7.53369 11.3527 L -7.56893 11.3292 L -7.60411 11.3057 L -7.63921 11.282 L -7.67424 11.2582 L -7.70919 11.2343 L -7.72095 11.1748 L -7.73263 11.1151 L -7.74423 11.0554 L -7.75574 10.9955 L -7.76718 10.9356 L -7.77853 10.8755 L -7.78979 10.8153 L -7.80097 10.7549 L -7.81206 10.6945 L -7.82307 10.6339 L -7.83398 10.5732 L -7.8448 10.5124 L -7.85553 10.4515 L -7.86617 10.3904 L -7.87671 10.3292 L -7.88715 10.2679 L -7.8975 10.2064 L -7.90774 10.1449 L -7.91789 10.0831 L -7.92793 10.0213 L -7.93787 9.95935 L -7.94771 9.89725 L -7.95743 9.83502 L -7.96705 9.77265 L -7.97656 9.71015 L -7.98596 9.64751 L -7.99524 9.58474 L -8.00441 9.52183 L -8.01346 9.45878 L -8.0224 9.39559 L -8.03121 9.33226 L -8.0399 9.26879 L -8.04847 9.20517 L -8.05691 9.14141 L -8.06522 9.07751 L -8.07341 9.01346 L -8.08146 8.94926 L -8.08938 8.88492 L -8.09716 8.82042 L -8.10481 8.75578 L -8.11232 8.69099 L -8.11968 8.62604 L -8.1269 8.56094 L -8.13398 8.49569 L -8.14091 8.43028 L -8.14768 8.36472 L -8.15431 8.299 L -8.16077 8.23312 L -8.16708 8.16708 L -8.16708 8.16708 L -8.23312 8.16077 L -8.299 8.15431 L -8.36472 8.14768 L -8.43028 8.14091 L -8.49569 8.13398 L -8.56094 8.1269 L -8.62604 8.11968 L -8.69099 8.11232 L -8.75578 8.10481 L -8.82042 8.09716 L -8.88492 8.08938 L -8.94926 8.08146 L -9.01346 8.07341 L -9.07751 8.06522 L -9.14141 8.05691 L -9.20517 8.04847 L -9.26879 8.0399 L -9.33226 8.03121 L -9.39559 8.0224 L -9.45878 8.01346 L -9.52183 8.00441 L -9.58474 7.99524 L -9.64751 7.98596 L -9.71015 7.97656 L -9.77265 7.96705 L -9.83502 7.95743 L -9.89725 7.94771 L -9.95935 7.93787 L -10.0213 7.92793 L -10.0831 7.91789 L -10.1449 7.90774 L -10.2064 7.8975 L -10.2679 7.88715 L -10.3292 7.87671 L -10.3904 7.86617 L -10.4515 7.85553 L -10.5124 7.8448 L -10.5732 7.83398 L -10.6339 7.82307 L -10.6945 7.81206 L -10.7549 7.80097 L -10.8153 7.78979 L -10.8755 7.77853 L -10.9356 7.76718 L -10.9955 7.75574 L -11.0554 7.74423 L -11.1151 7.73263 L -11.1748 7.72095 L -11.2343 7.70919 L -11.2582 7.67424 L -11.282 7.63921 L -11.3057 7.60411 L -11.3292 7.56893 L -11.3527 7.53369 L -11.3761 7.49836 L -11.3993 7.46297 L -11.4225 7.42751 L -11.4455 7.39197 L -11.4684 7.35636 L -11.4912 7.32068 L -11.5139 7.28493 L -11.5365 7.24911 L -11.559 7.21322 L -11.5813 7.17726 L -11.6036 7.14123 L -11.6257 7.10513 L -11.6478 7.06896 L -11.6697 7.03273 L -11.6915 6.99642 L -11.7132 6.96005 L -11.7347 6.92361 L -11.7562 6.88711 L -11.7776 6.85054 L -11.8215 6.77439 L -11.8425 6.73762 L -11.8634 6.70078 L -11.8842 6.66388 L -11.9048 6.62691 L -11.9254 6.58987 L -11.9458 6.55278 L -11.9661 6.51562 L -11.9863 6.4784 L -12.0064 6.44111 L -12.0263 6.40376 L -12.0462 6.36636 L -12.0659 6.32888 L -12.0855 6.29135 L -12.105 6.25376 L -12.1244 6.21611 L -12.1436 6.17839 L -12.1628 6.14062 L -12.1818 6.10279 L -12.2007 6.0649 L -12.2195 6.02695 L -12.2382 5.98894 L -12.2567 5.95088 L -12.2752 5.91275 L -12.2935 5.87457 L -12.2739 5.81716 L -12.2542 5.75968 L -12.2344 5.70214 L -12.2144 5.64455 L -12.1944 5.58689 L -12.1741 5.52917 L -12.1538 5.4714 L -12.1333 5.41356 L -12.1127 5.35566 L -12.0919 5.2977 L -12.071 5.23968 L -12.05 5.1816 L -12.0288 5.12346 L -12.0075 5.06526 L -11.986 5.00699 L -11.9644 4.94867 L -11.9426 4.89028 L -11.9207 4.83183 L -11.8987 4.77332 L -11.8764 4.71475 L -11.8541 4.65611 L -11.8315 4.59742 L -11.8088 4.53866 L -11.786 4.47984 L -11.763 4.42096 L -11.7398 4.36201 L -11.7165 4.30301 L -11.6929 4.24394 L -11.6693 4.18481 L -11.6454 4.12562 L -11.6214 4.06637 L -11.5972 4.00705 L -11.5728 3.94768 L -11.5482 3.88824 L -11.5234 3.82874 L -11.4985 3.76918 L -11.4734 3.70956 L -11.4481 3.64987 L -11.4226 3.59013 L -11.3969 3.53032 L -11.371 3.47046 L -11.3449 3.41053 L -11.3186 3.35054 L -11.2921 3.29049 L -11.2654 3.23039 L -11.2385 3.17022 L -11.2113 3.10999 L -11.184 3.04971 L -11.1564 2.98936 L -11.1564 2.98936 L -11.2105 2.95088 L -11.2643 2.91234 L -11.3179 2.87374 L -11.3713 2.83509 L -11.4245 2.79639 L -11.4774 2.75763 L -11.5302 2.71883 L -11.5828 2.67998 L -11.6351 2.64108 L -11.6873 2.60214 L -11.7393 2.56315 L -11.791 2.52412 L -11.8426 2.48505 L -11.894 2.44593 L -11.9451 2.40678 L -11.9961 2.36759 L -12.047 2.32836 L -12.0976 2.2891 L -12.148 2.2498 L -12.1983 2.21047 L -12.2484 2.17111 L -12.2983 2.13171 L -12.348 2.09229 L -12.3975 2.05283 L -12.4469 2.01334 L -12.4961 1.97383 L -12.5451 1.93429 L -12.594 1.89473 L -12.6427 1.85513 L -12.6912 1.81552 L -12.7396 1.77588 L -12.7878 1.73622 L -12.8358 1.69654 L -12.8837 1.65683 L -12.9314 1.61711 L -12.979 1.57736 L -13.0264 1.5376 L -13.0737 1.49782 L -13.1208 1.45802 L -13.1677 1.41821 L -13.2145 1.37837 L -13.2612 1.33853 L -13.3077 1.29866 L -13.3541 1.25879 L -13.4003 1.2189 L -13.4464 1.179 L -13.4923 1.13908 L -13.5381 1.09916 L -13.5838 1.05922 L -13.587 1.01699 L -13.5901 0.97476 L -13.5931 0.932517 L -13.5959 0.890265 L -13.5986 0.848004 L -13.6012 0.805736 L -13.6036 0.763459 L -13.6059 0.721175 L -13.6081 0.678884 L -13.6101 0.636586 L -13.612 0.594283 L -13.6138 0.551973 L -13.6155 0.509658 L -13.617 0.467339 L -13.6184 0.425014 L -13.6196 0.382686 L -13.6207 0.340354 L -13.6217 0.298019 L -13.6226 0.255681 L -13.6233 0.21334 L -13.6239 0.170997 L -13.6244 0.128653 L -13.6247 0.0863074 L -13.6249 0.0439609 L -13.6249 -0.0439609 L -13.6247 -0.0863074 L -13.6244 -0.128653 L -13.6239 -0.170997 L -13.6233 -0.21334 L -13.6226 -0.255681 L -13.6217 -0.298019 L -13.6207 -0.340354 L -13.6196 -0.382686 L -13.6184 -0.425014 L -13.617 -0.467339 L -13.6155 -0.509658 L -13.6138 -0.551973 L -13.612 -0.594283 L -13.6101 -0.636586 L -13.6081 -0.678884 L -13.6059 -0.721175 L -13.6036 -0.763459 L -13.6012 -0.805736 L -13.5986 -0.848004 L -13.5959 -0.890265 L -13.5931 -0.932517 L -13.5901 -0.97476 L -13.587 -1.01699 L -13.5838 -1.05922 L -13.5381 -1.09916 L -13.4923 -1.13908 L -13.4464 -1.179 L -13.4003 -1.2189 L -13.3541 -1.25879 L -13.3077 -1.29866 L -13.2612 -1.33853 L -13.2145 -1.37837 L -13.1677 -1.41821 L -13.1208 -1.45802 L -13.0737 -1.49782 L -13.0264 -1.5376 L -12.979 -1.57736 L -12.9314 -1.61711 L -12.8837 -1.65683 L -12.8358 -1.69654 L -12.7878 -1.73622 L -12.7396 -1.77588 L -12.6912 -1.81552 L -12.6427 -1.85513 L -12.594 -1.89473 L -12.5451 -1.93429 L -12.4961 -1.97383 L -12.4469 -2.01334 L -12.3975 -2.05283 L -12.348 -2.09229 L -12.2983 -2.13171 L -12.2484 -2.17111 L -12.1983 -2.21047 L -12.148 -2.2498 L -12.0976 -2.2891 L -12.047 -2.32836 L -11.9961 -2.36759 L -11.9451 -2.40678 L -11.894 -2.44593 L -11.8426 -2.48505 L -11.791 -2.52412 L -11.7393 -2.56315 L -11.6873 -2.60214 L -11.6351 -2.64108 L -11.5828 -2.67998 L -11.5302 -2.71883 L -11.4774 -2.75763 L -11.4245 -2.79639 L -11.3713 -2.83509 L -11.3179 -2.87374 L -11.2643 -2.91234 L -11.2105 -2.95088 L -11.1564 -2.98936 L -11.1564 -2.98936 L -11.184 -3.04971 L -11.2113 -3.10999 L -11.2385 -3.17022 L -11.2654 -3.23039 L -11.2921 -3.29049 L -11.3186 -3.35054 L -11.3449 -3.41053 L -11.371 -3.47046 L -11.3969 -3.53032 L -11.4226 -3.59013 L -11.4481 -3.64987 L -11.4734 -3.70956 L -11.4985 -3.76918 L -11.5234 -3.82874 L -11.5482 -3.88824 L -11.5728 -3.94768 L -11.5972 -4.00705 L -11.6214 -4.06637 L -11.6454 -4.12562 L -11.6693 -4.18481 L -11.6929 -4.24394 L -11.7165 -4.30301 L -11.7398 -4.36201 L -11.763 -4.42096 L -11.786 -4.47984 L -11.8088 -4.53866 L -11.8315 -4.59742 L -11.8541 -4.65611 L -11.8764 -4.71475 L -11.8987 -4.77332 L -11.9207 -4.83183 L -11.9426 -4.89028 L -11.9644 -4.94867 L -11.986 -5.00699 L -12.0075 -5.06526 L -12.0288 -5.12346 L -12.05 -5.1816 L -12.071 -5.23968 L -12.0919 -5.2977 L -12.1127 -5.35566 L -12.1333 -5.41356 L -12.1538 -5.4714 L -12.1741 -5.52917 L -12.1944 -5.58689 L -12.2144 -5.64455 L -12.2344 -5.70214 L -12.2542 -5.75968 L -12.2739 -5.81716 L -12.2935 -5.87457 L -12.2752 -5.91275 L -12.2567 -5.95088 L -12.2382 -5.98894 L -12.2195 -6.02695 L -12.2007 -6.0649 L -12.1818 -6.10279 L -12.1628 -6.14062 L -12.1436 -6.17839 L -12.1244 -6.21611 L -12.105 -6.25376 L -12.0855 -6.29135 L -12.0659 -6.32888 L -12.0462 -6.36636 L -12.0263 -6.40376 L -12.0064 -6.44111 L -11.9863 -6.4784 L -11.9661 -6.51562 L -11.9458 -6.55278 L -11.9254 -6.58987 L -11.9048 -6.62691 L -11.8842 -6.66388 L -11.8634 -6.70078 L -11.8425 -6.73762 L -11.8215 -6.77439 L -11.7776 -6.85054 L -11.7562 -6.88711 L -11.7347 -6.92361 L -11.7132 -6.96005 L -11.6915 -6.99642 L -11.6697 -7.03273 L -11.6478 -7.06896 L -11.6257 -7.10513 L -11.6036 -7.14123 L -11.5813 -7.17726 L -11.559 -7.21322 L -11.5365 -7.24911 L -11.5139 -7.28493 L -11.4912 -7.32068 L -11.4684 -7.35636 L -11.4455 -7.39197 L -11.4225 -7.42751 L -11.3993 -7.46297 L -11.3761 -7.49836 L -11.3527 -7.53369 L -11.3292 -7.56893 L -11.3057 -7.60411 L -11.282 -7.63921 L -11.2582 -7.67424 L -11.2343 -7.70919 L -11.1748 -7.72095 L -11.1151 -7.73263 L -11.0554 -7.74423 L -10.9955 -7.75574 L -10.9356 -7.76718 L -10.8755 -7.77853 L -10.8153 -7.78979 L -10.7549 -7.80097 L -10.6945 -7.81206 L -10.6339 -7.82307 L -10.5732 -7.83398 L -10.5124 -7.8448 L -10.4515 -7.85553 L -10.3904 -7.86617 L -10.3292 -7.87671 L -10.2679 -7.88715 L -10.2064 -7.8975 L -10.1449 -7.90774 L -10.0831 -7.91789 L -10.0213 -7.92793 L -9.95935 -7.93787 L -9.89725 -7.94771 L -9.83502 -7.95743 L -9.77265 -7.96705 L -9.71015 -7.97656 L -9.64751 -7.98596 L -9.58474 -7.99524 L -9.52183 -8.00441 L -9.45878 -8.01346 L -9.39559 -8.0224 L -9.33226 -8.03121 L -9.26879 -8.0399 L -9.20517 -8.04847 L -9.14141 -8.05691 L -9.07751 -8.06522 L -9.01346 -8.07341 L -8.94926 -8.08146 L -8.88492 -8.08938 L -8.82042 -8.09716 L -8.75578 -8.10481 L -8.69099 -8.11232 L -8.62604 -8.11968 L -8.56094 -8.1269 L -8.49569 -8.13398 L -8.43028 -8.14091 L -8.36472 -8.14768 L -8.299 -8.15431 L -8.23312 -8.16077 L -8.16708 -8.16708 L -8.16708 -8.16708 L -8.16077 -8.23312 L -8.15431 -8.299 L -8.14768 -8.36472 L -8.14091 -8.43028 L -8.13398 -8.49569 L -8.1269 -8.56094 L -8.11968 -8.62604 L -8.11232 -8.69099 L -8.10481 -8.75578 L -8.09716 -8.82042 L -8.08938 -8.88492 L -8.08146 -8.94926 L -8.07341 -9.01346 L -8.06522 -9.07751 L -8.05691 -9.14141 L -8.04847 -9.20517 L -8.0399 -9.26879 L -8.03121 -9.33226 L -8.0224 -9.39559 L -8.01346 -9.45878 L -8.00441 -9.52183 L -7.99524 -9.58474 L -7.98596 -9.64751 L -7.97656 -9.71015 L -7.96705 -9.77265 L -7.95743 -9.83502 L -7.94771 -9.89725 L -7.93787 -9.95935 L -7.92793 -10.0213 L -7.91789 -10.0831 L -7.90774 -10.1449 L -7.8975 -10.2064 L -7.88715 -10.2679 L -7.87671 -10.3292 L -7.86617 -10.3904 L -7.85553 -10.4515 L -7.8448 -10.5124 L -7.83398 -10.5732 L -7.82307 -10.6339 L -7.81206 -10.6945 L -7.80097 -10.7549 L -7.78979 -10.8153 L -7.77853 -10.8755 L -7.76718 -10.9356 L -7.75574 -10.9955 L -7.74423 -11.0554 L -7.73263 -11.1151 L -7.72095 -11.1748 L -7.70919 -11.2343 L -7.67424 -11.2582 L -7.63921 -11.282 L -7.60411 -11.3057 L -7.56893 -11.3292 L -7.53369 -11.3527 L -7.49836 -11.3761 L -7.46297 -11.3993 L -7.42751 -11.4225 L -7.39197 -11.4455 L -7.35636 -11.4684 L -7.32068 -11.4912 L -7.28493 -11.5139 L -7.24911 -11.5365 L -7.21322 -11.559 L -7.17726 -11.5813 L -7.14123 -11.6036 L -7.10513 -11.6257 L -7.06896 -11.6478 L -7.03273 -11.6697 L -6.99642 -11.6915 L -6.96005 -11.7132 L -6.92361 -11.7347 L -6.88711 -11.7562 L -6.85054 -11.7776 L -6.77439 -11.8215 L -6.73762 -11.8425 L -6.70078 -11.8634 L -6.66388 -11.8842 L -6.62691 -11.9048 L -6.58987 -11.9254 L -6.55278 -11.9458 L -6.51562 -11.9661 L -6.4784 -11.9863 L -6.44111 -12.0064 L -6.40376 -12.0263 L -6.36636 -12.0462 L -6.32888 -12.0659 L -6.29135 -12.0855 L -6.25376 -12.105 L -6.21611 -12.1244 L -6.17839 -12.1436 L -6.14062 -12.1628 L -6.10279 -12.1818 L -6.0649 -12.2007 L -6.02695 -12.2195 L -5.98894 -12.2382 L -5.95088 -12.2567 L -5.91275 -12.2752 L -5.87457 -12.2935 L -5.81716 -12.2739 L -5.75968 -12.2542 L -5.70214 -12.2344 L -5.64455 -12.2144 L -5.58689 -12.1944 L -5.52917 -12.1741 L -5.4714 -12.1538 L -5.41356 -12.1333 L -5.35566 -12.1127 L -5.2977 -12.0919 L -5.23968 -12.071 L -5.1816 -12.05 L -5.12346 -12.0288 L -5.06526 -12.0075 L -5.00699 -11.986 L -4.94867 -11.9644 L -4.89028 -11.9426 L -4.83183 -11.9207 L -4.77332 -11.8987 L -4.71475 -11.8764 L -4.65611 -11.8541 L -4.59742 -11.8315 L -4.53866 -11.8088 L -4.47984 -11.786 L -4.42096 -11.763 L -4.36201 -11.7398 L -4.30301 -11.7165 L -4.24394 -11.6929 L -4.18481 -11.6693 L -4.12562 -11.6454 L -4.06637 -11.6214 L -4.00705 -11.5972 L -3.94768 -11.5728 L -3.88824 -11.5482 L -3.82874 -11.5234 L -3.76918 -11.4985 L -3.70956 -11.4734 L -3.64987 -11.4481 L -3.59013 -11.4226 L -3.53032 -11.3969 L -3.47046 -11.371 L -3.41053 -11.3449 L -3.35054 -11.3186 L -3.29049 -11.2921 L -3.23039 -11.2654 L -3.17022 -11.2385 L -3.10999 -11.2113 L -3.04971 -11.184 L -2.98936 -11.1564 L -2.98936 -11.1564 L -2.95088 -11.2105 L -2.91234 -11.2643 L -2.87374 -11.3179 L -2.83509 -11.3713 L -2.79639 -11.4245 L -2.75763 -11.4774 L -2.71883 -11.5302 L -2.67998 -11.5828 L -2.64108 -11.6351 L -2.60214 -11.6873 L -2.56315 -11.7393 L -2.52412 -11.791 L -2.48505 -11.8426 L -2.44593 -11.894 L -2.40678 -11.9451 L -2.36759 -11.9961 L -2.32836 -12.047 L -2.2891 -12.0976 L -2.2498 -12.148 L -2.21047 -12.1983 L -2.17111 -12.2484 L -2.13171 -12.2983 L -2.09229 -12.348 L -2.05283 -12.3975 L -2.01334 -12.4469 L -1.97383 -12.4961 L -1.93429 -12.5451 L -1.89473 -12.594 L -1.85513 -12.6427 L -1.81552 -12.6912 L -1.77588 -12.7396 L -1.73622 -12.7878 L -1.69654 -12.8358 L -1.65683 -12.8837 L -1.61711 -12.9314 L -1.57736 -12.979 L -1.5376 -13.0264 L -1.49782 -13.0737 L -1.45802 -13.1208 L -1.41821 -13.1677 L -1.37837 -13.2145 L -1.33853 -13.2612 L -1.29866 -13.3077 L -1.25879 -13.3541 L -1.2189 -13.4003 L -1.179 -13.4464 L -1.13908 -13.4923 L -1.09916 -13.5381 L -1.05922 -13.5838 L -1.01699 -13.587 L -0.97476 -13.5901 L -0.932517 -13.5931 L -0.890265 -13.5959 L -0.848004 -13.5986 L -0.805736 -13.6012 L -0.763459 -13.6036 L -0.721175 -13.6059 L -0.678884 -13.6081 L -0.636586 -13.6101 L -0.594283 -13.612 L -0.551973 -13.6138 L -0.509658 -13.6155 L -0.467339 -13.617 L -0.425014 -13.6184 L -0.382686 -13.6196 L -0.340354 -13.6207 L -0.298019 -13.6217 L -0.255681 -13.6226 L -0.21334 -13.6233 L -0.170997 -13.6239 L -0.128653 -13.6244 L -0.0863074 -13.6247 L -0.0439609 -13.6249 L 0.0439609 -13.6249 L 0.0863074 -13.6247 L 0.128653 -13.6244 L 0.170997 -13.6239 L 0.21334 -13.6233 L 0.255681 -13.6226 L 0.298019 -13.6217 L 0.340354 -13.6207 L 0.382686 -13.6196 L 0.425014 -13.6184 L 0.467339 -13.617 L 0.509658 -13.6155 L 0.551973 -13.6138 L 0.594283 -13.612 L 0.636586 -13.6101 L 0.678884 -13.6081 L 0.721175 -13.6059 L 0.763459 -13.6036 L 0.805736 -13.6012 L 0.848004 -13.5986 L 0.890265 -13.5959 L 0.932517 -13.5931 L 0.97476 -13.5901 L 1.01699 -13.587 L 1.05922 -13.5838 L 1.09916 -13.5381 L 1.13908 -13.4923 L 1.179 -13.4464 L 1.2189 -13.4003 L 1.25879 -13.3541 L 1.29866 -13.3077 L 1.33853 -13.2612 L 1.37837 -13.2145 L 1.41821 -13.1677 L 1.45802 -13.1208 L 1.49782 -13.0737 L 1.5376 -13.0264 L 1.57736 -12.979 L 1.61711 -12.9314 L 1.65683 -12.8837 L 1.69654 -12.8358 L 1.73622 -12.7878 L 1.77588 -12.7396 L 1.81552 -12.6912 L 1.85513 -12.6427 L 1.89473 -12.594 L 1.93429 -12.5451 L 1.97383 -12.4961 L 2.01334 -12.4469 L 2.05283 -12.3975 L 2.09229 -12.348 L 2.13171 -12.2983 L 2.17111 -12.2484 L 2.21047 -12.1983 L 2.2498 -12.148 L 2.2891 -12.0976 L 2.32836 -12.047 L 2.36759 -11.9961 L 2.40678 -11.9451 L 2.44593 -11.894 L 2.48505 -11.8426 L 2.52412 -11.791 L 2.56315 -11.7393 L 2.60214 -11.6873 L 2.64108 -11.6351 L 2.67998 -11.5828 L 2.71883 -11.5302 L 2.75763 -11.4774 L 2.79639 -11.4245 L 2.83509 -11.3713 L 2.87374 -11.3179 L 2.91234 -11.2643 L 2.95088 -11.2105 L 2.98936 -11.1564 L 2.98936 -11.1564 L 3.04971 -11.184 L 3.10999 -11.2113 L 3.17022 -11.2385 L 3.23039 -11.2654 L 3.29049 -11.2921 L 3.35054 -11.3186 L 3.41053 -11.3449 L 3.47046 -11.371 L 3.53032 -11.3969 L 3.59013 -11.4226 L 3.64987 -11.4481 L 3.70956 -11.4734 L 3.76918 -11.4985 L 3.82874 -11.5234 L 3.88824 -11.5482 L 3.94768 -11.5728 L 4.00705 -11.5972 L 4.06637 -11.6214 L 4.12562 -11.6454 L 4.18481 -11.6693 L 4.24394 -11.6929 L 4.30301 -11.7165 L 4.36201 -11.7398 L 4.42096 -11.763 L 4.47984 -11.786 L 4.53866 -11.8088 L 4.59742 -11.8315 L 4.65611 -11.8541 L 4.71475 -11.8764 L 4.77332 -11.8987 L 4.83183 -11.9207 L 4.89028 -11.9426 L 4.94867 -11.9644 L 5.00699 -11.986 L 5.06526 -12.0075 L 5.12346 -12.0288 L 5.1816 -12.05 L 5.23968 -12.071 L 5.2977 -12.0919 L 5.35566 -12.1127 L 5.41356 -12.1333 L 5.4714 -12.1538 L 5.52917 -12.1741 L 5.58689 -12.1944 L 5.64455 -12.2144 L 5.70214 -12.2344 L 5.75968 -12.2542 L 5.81716 -12.2739 L 5.87457 -12.2935 L 5.91275 -12.2752 L 5.95088 -12.2567 L 5.98894 -12.2382 L 6.02695 -12.2195 L 6.0649 -12.2007 L 6.10279 -12.1818 L 6.14062 -12.1628 L 6.17839 -12.1436 L 6.21611 -12.1244 L 6.25376 -12.105 L 6.29135 -12.0855 L 6.32888 -12.0659 L 6.36636 -12.0462 L 6.40376 -12.0263 L 6.44111 -12.0064 L 6.4784 -11.9863 L 6.51562 -11.9661 L 6.55278 -11.9458 L 6.58987 -11.9254 L 6.62691 -11.9048 L 6.66388 -11.8842 L 6.70078 -11.8634 L 6.73762 -11.8425 L 6.77439 -11.8215 L 6.85054 -11.7776 L 6.88711 -11.7562 L 6.92361 -11.7347 L 6.96005 -11.7132 L 6.99642 -11.6915 L 7.03273 -11.6697 L 7.06896 -11.6478 L 7.10513 -11.6257 L 7.14123 -11.6036 L 7.17726 -11.5813 L 7.21322 -11.559 L 7.24911 -11.5365 L 7.28493 -11.5139 L 7.32068 -11.4912 L 7.35636 -11.4684 L 7.39197 -11.4455 L 7.42751 -11.4225 L 7.46297 -11.3993 L 7.49836 -11.3761 L 7.53369 -11.3527 L 7.56893 -11.3292 L 7.60411 -11.3057 L 7.63921 -11.282 L 7.67424 -11.2582 L 7.70919 -11.2343 L 7.72095 -11.1748 L 7.73263 -11.1151 L 7.74423 -11.0554 L 7.75574 -10.9955 L 7.76718 -10.9356 L 7.77853 -10.8755 L 7.78979 -10.8153 L 7.80097 -10.7549 L 7.81206 -10.6945 L 7.82307 -10.6339 L 7.83398 -10.5732 L 7.8448 -10.5124 L 7.85553 -10.4515 L 7.86617 -10.3904 L 7.87671 -10.3292 L 7.88715 -10.2679 L 7.8975 -10.2064 L 7.90774 -10.1449 L 7.91789 -10.0831 L 7.92793 -10.0213 L 7.93787 -9.95935 L 7.94771 -9.89725 L 7.95743 -9.83502 L 7.96705 -9.77265 L 7.97656 -9.71015 L 7.98596 -9.64751 L 7.99524 -9.58474 L 8.00441 -9.52183 L 8.01346 -9.45878 L 8.0224 -9.39559 L 8.03121 -9.33226 L 8.0399 -9.26879 L 8.04847 -9.20517 L 8.05691 -9.14141 L 8.06522 -9.07751 L 8.07341 -9.01346 L 8.08146 -8.94926 L 8.08938 -8.88492 L 8.09716 -8.82042 L 8.10481 -8.75578 L 8.11232 -8.69099 L 8.11968 -8.62604 L 8.1269 -8.56094 L 8.13398 -8.49569 L 8.14091 -8.43028 L 8.14768 -8.36472 L 8.15431 -8.299 L 8.16077 -8.23312 L 8.16708 -8.16708 L 8.16708 -8.16708 L 8.23312 -8.16077 L 8.299 -8.15431 L 8.36472 -8.14768 L 8.43028 -8.14091 L 8.49569 -8.13398 L 8.56094 -8.1269 L 8.62604 -8.11968 L 8.69099 -8.11232 L 8.75578 -8.10481 L 8.82042 -8.09716 L 8.88492 -8.08938 L 8.94926 -8.08146 L 9.01346 -8.07341 L 9.07751 -8.06522 L 9.14141 -8.05691 L 9.20517 -8.04847 L 9.26879 -8.0399 L 9.33226 -8.03121 L 9.39559 -8.0224 L 9.45878 -8.01346 L 9.52183 -8.00441 L 9.58474 -7.99524 L 9.64751 -7.98596 L 9.71015 -7.97656 L 9.77265 -7.96705 L 9.83502 -7.95743 L 9.89725 -7.94771 L 9.95935 -7.93787 L 10.0213 -7.92793 L 10.0831 -7.91789 L 10.1449 -7.90774 L 10.2064 -7.8975 L 10.2679 -7.88715 L 10.3292 -7.87671 L 10.3904 -7.86617 L 10.4515 -7.85553 L 10.5124 -7.8448 L 10.5732 -7.83398 L 10.6339 -7.82307 L 10.6945 -7.81206 L 10.7549 -7.80097 L 10.8153 -7.78979 L 10.8755 -7.77853 L 10.9356 -7.76718 L 10.9955 -7.75574 L 11.0554 -7.74423 L 11.1151 -7.73263 L 11.1748 -7.72095 L 11.2343 -7.70919 L 11.2582 -7.67424 L 11.282 -7.63921 L 11.3057 -7.60411 L 11.3292 -7.56893 L 11.3527 -7.53369 L 11.3761 -7.49836 L 11.3993 -7.46297 L 11.4225 -7.42751 L 11.4455 -7.39197 L 11.4684 -7.35636 L 11.4912 -7.32068 L 11.5139 -7.28493 L 11.5365 -7.24911 L 11.559 -7.21322 L 11.5813 -7.17726 L 11.6036 -7.14123 L 11.6257 -7.10513 L 11.6478 -7.06896 L 11.6697 -7.03273 L 11.6915 -6.99642 L 11.7132 -6.96005 L 11.7347 -6.92361 L 11.7562 -6.88711 L 11.7776 -6.85054 L 11.8215 -6.77439 L 11.8425 -6.73762 L 11.8634 -6.70078 L 11.8842 -6.66388 L 11.9048 -6.62691 L 11.9254 -6.58987 L 11.9458 -6.55278 L 11.9661 -6.51562 L 11.9863 -6.4784 L 12.0064 -6.44111 L 12.0263 -6.40376 L 12.0462 -6.36636 L 12.0659 -6.32888 L 12.0855 -6.29135 L 12.105 -6.25376 L 12.1244 -6.21611 L 12.1436 -6.17839 L 12.1628 -6.14062 L 12.1818 -6.10279 L 12.2007 -6.0649 L 12.2195 -6.02695 L 12.2382 -5.98894 L 12.2567 -5.95088 L 12.2752 -5.91275 L 12.2935 -5.87457 L 12.2739 -5.81716 L 12.2542 -5.75968 L 12.2344 -5.70214 L 12.2144 -5.64455 L 12.1944 -5.58689 L 12.1741 -5.52917 L 12.1538 -5.4714 L 12.1333 -5.41356 L 12.1127 -5.35566 L 12.0919 -5.2977 L 12.071 -5.23968 L 12.05 -5.1816 L 12.0288 -5.12346 L 12.0075 -5.06526 L 11.986 -5.00699 L 11.9644 -4.94867 L 11.9426 -4.89028 L 11.9207 -4.83183 L 11.8987 -4.77332 L 11.8764 -4.71475 L 11.8541 -4.65611 L 11.8315 -4.59742 L 11.8088 -4.53866 L 11.786 -4.47984 L 11.763 -4.42096 L 11.7398 -4.36201 L 11.7165 -4.30301 L 11.6929 -4.24394 L 11.6693 -4.18481 L 11.6454 -4.12562 L 11.6214 -4.06637 L 11.5972 -4.00705 L 11.5728 -3.94768 L 11.5482 -3.88824 L 11.5234 -3.82874 L 11.4985 -3.76918 L 11.4734 -3.70956 L 11.4481 -3.64987 L 11.4226 -3.59013 L 11.3969 -3.53032 L 11.371 -3.47046 L 11.3449 -3.41053 L 11.3186 -3.35054 L 11.2921 -3.29049 L 11.2654 -3.23039 L 11.2385 -3.17022 L 11.2113 -3.10999 L 11.184 -3.04971 L 11.1564 -2.98936 L 11.1564 -2.98936 L 11.2105 -2.95088 L 11.2643 -2.91234 L 11.3179 -2.87374 L 11.3713 -2.83509 L 11.4245 -2.79639 L 11.4774 -2.75763 L 11.5302 -2.71883 L 11.5828 -2.67998 L 11.6351 -2.64108 L 11.6873 -2.60214 L 11.7393 -2.56315 L 11.791 -2.52412 L 11.8426 -2.48505 L 11.894 -2.44593 L 11.9451 -2.40678 L 11.9961 -2.36759 L 12.047 -2.32836 L 12.0976 -2.2891 L 12.148 -2.2498 L 12.1983 -2.21047 L 12.2484 -2.17111 L 12.2983 -2.13171 L 12.348 -2.09229 L 12.3975 -2.05283 L 12.4469 -2.01334 L 12.4961 -1.97383 L 12.5451 -1.93429 L 12.594 -1.89473 L 12.6427 -1.85513 L 12.6912 -1.81552 L 12.7396 -1.77588 L 12.7878 -1.73622 L 12.8358 -1.69654 L 12.8837 -1.65683 L 12.9314 -1.61711 L 12.979 -1.57736 L 13.0264 -1.5376 L 13.0737 -1.49782 L 13.1208 -1.45802 L 13.1677 -1.41821 L 13.2145 -1.37837 L 13.2612 -1.33853 L 13.3077 -1.29866 L 13.3541 -1.25879 L 13.4003 -1.2189 L 13.4464 -1.179 L 13.4923 -1.13908 L 13.5381 -1.09916 L 13.5838 -1.05922 L 13.587 -1.01699 L 13.5901 -0.97476 L 13.5931 -0.932517 L 13.5959 -0.890265 L 13.5986 -0.848004 L 13.6012 -0.805736 L 13.6036 -0.763459 L 13.6059 -0.721175 L 13.6081 -0.678884 L 13.6101 -0.636586 L 13.612 -0.594283 L 13.6138 -0.551973 L 13.6155 -0.509658 L 13.617 -0.467339 L 13.6184 -0.425014 L 13.6196 -0.382686 L 13.6207 -0.340354 L 13.6217 -0.298019 L 13.6226 -0.255681 L 13.6233 -0.21334 L 13.6239 -0.170997 L 13.6244 -0.128653 L 13.6247 -0.0863074 L 13.6249 -0.0439609Z"
id="path1" />
</g>
</svg>
