<?xml version="1.0" encoding="UTF-8" standalone="no"?>
<svg version="1.1">
<g
style="fill:none;stroke:#000000;stroke-opacity:1;stroke-width:0.1">
<path d="M 13.7499 0.0555123 L 13.7497 0.0970116 L 13.7493 0.13851 L 13.7488 0.180007 L 13.7482 0.221503 L 13.7475 0.262996 L 13.7466 0.304488 L 13.7456 0.345976 L 13.7445 0.387461 L 13.7433 0.428943 L 13.742 0.470421 L 13.7405 0.511894 L 13.7389 0.553363 L 13.7371 0.594827 L 13.7353 0.636285 L 13.7333 0.677738 L 13.7312 0.719184 L 13.7289 0.760624 L 13.7266 0.802057 L 13.7241 0.843483 L 13.7215 0.8849 L 13.7188 0.92631 L 13.7159 0.967712 L 13.7129 1.0091 L 13.7098 1.05049 L 13.7066 1.09186 L 13.6618 1.131 L 13.6168 1.17012 L 13.5717 1.20923 L 13.5265 1.24833 L 13.4812 1.28741 L 13.4357 1.32649 L 13.39 1.36555 L 13.3443 1.40459 L 13.2984 1.44362 L 13.2523 1.48264 L 13.2061 1.52164 L 13.1598 1.56062 L 13.1133 1.59959 L 13.0667 1.63853 L 13.0199 1.67746 L 12.973 1.71637 L 12.9259 1.75526 L 12.8786 1.79413 L 12.8312 1.83298 L 12.7837 1.8718 L 12.736 1.9106 L 12.6881 1.94938 L 12.6401 1.98813 L 12.5919 2.02686 L 12.5436 2.06556 L 12.4951 2.10424 L 12.4464 2.14288 L 12.3975 2.1815 L 12.3485 2.22009 L 12.2993 2.25865 L 12.25 2.29717 L 12.2004 2.33566 L 12.1507 2.37412 L 12.1008 2.41255 L 12.0508 2.45094 L 12.0005 2.48929 L 11.9501 2.5276 L 11.8995 2.56588 L 11.8487 2.60411 L 11.7977 2.64231 L 11.7466 2.68046 L 11.6952 2.71857 L 11.6436 2.75663 L 11.5919 2.79465 L 11.5399 2.83262 L 11.4878 2.87054 L 11.4354 2.90841 L 11.3829 2.94623 L 11.3301 2.984 L 11.2772 3.02171 L 11.2772 3.02171 L 11.3042 3.08085 L 11.331 3.13994 L 11.3576 3.19896 L 11.384 3.25793 L 11.4102 3.31685 L 11.4362 3.3757 L 11.462 3.4345 L 11.4876 3.49324 L 11.513 3.55193 L 11.5383 3.61056 L 11.5633 3.66913 L 11.5882 3.72764 L 11.6129 3.78609 L 11.6374 3.84448 L 11.6618 3.90282 L 11.6859 3.9611 L 11.7099 4.01932 L 11.7337 4.07748 L 11.7574 4.13558 L 11.7809 4.19362 L 11.8042 4.25161 L 11.8273 4.30953 L 11.8503 4.3674 L 11.8732 4.42521 L 11.8958 4.48296 L 11.9183 4.54065 L 11.9407 4.59828 L 11.9629 4.65585 L 11.985 4.71336 L 12.0069 4.77082 L 12.0287 4.82822 L 12.0503 4.88555 L 12.0718 4.94283 L 12.0931 5.00005 L 12.1143 5.05722 L 12.1353 5.11432 L 12.1562 5.17137 L 12.177 5.22836 L 12.1977 5.28528 L 12.2182 5.34216 L 12.2385 5.39897 L 12.2588 5.45573 L 12.2789 5.51243 L 12.2989 5.56907 L 12.3187 5.62565 L 12.3385 5.68218 L 12.3581 5.73864 L 12.3776 5.79506 L 12.3969 5.85141 L 12.4162 5.90771 L 12.3983 5.94516 L 12.3803 5.98255 L 12.3622 6.01989 L 12.344 6.05717 L 12.3256 6.0944 L 12.3072 6.13157 L 12.2886 6.16869 L 12.2699 6.20575 L 12.2511 6.24276 L 12.2322 6.27971 L 12.2132 6.3166 L 12.1941 6.35343 L 12.1749 6.3902 L 12.1555 6.42692 L 12.1361 6.46358 L 12.1165 6.50018 L 12.0969 6.53672 L 12.0771 6.5732 L 12.0572 6.60962 L 12.0372 6.64598 L 12.0171 6.68228 L 11.9968 6.71852 L 11.9765 6.7547 L 11.9561 6.79081 L 11.9355 6.82687 L 11.88 6.92302 L 11.859 6.95884 L 11.838 6.9946 L 11.8168 7.0303 L 11.7956 7.06593 L 11.7742 7.1015 L 11.7527 7.13701 L 11.7311 7.17245 L 11.7094 7.20782 L 11.6876 7.24313 L 11.6657 7.27837 L 11.6436 7.31355 L 11.6215 7.34866 L 11.5993 7.3837 L 11.577 7.41867 L 11.5545 7.45358 L 11.532 7.48842 L 11.5093 7.52319 L 11.4865 7.5579 L 11.4637 7.59253 L 11.4407 7.62709 L 11.4176 7.66159 L 11.3945 7.69602 L 11.3712 7.73037 L 11.3478 7.76466 L 11.3243 7.79887 L 11.2659 7.81035 L 11.2075 7.82176 L 11.1489 7.83309 L 11.0901 7.84434 L 11.0313 7.85552 L 10.9724 7.86661 L 10.9133 7.87762 L 10.8542 7.88855 L 10.7949 7.8994 L 10.7355 7.91016 L 10.676 7.92084 L 10.6164 7.93143 L 10.5567 7.94193 L 10.4968 7.95234 L 10.4368 7.96267 L 10.3767 7.9729 L 10.3165 7.98303 L 10.2562 7.99308 L 10.1957 8.00302 L 10.1351 8.01287 L 10.0744 8.02262 L 10.0135 8.03227 L 9.95258 8.04182 L 9.89149 8.05127 L 9.83027 8.06061 L 9.76892 8.06985 L 9.70744 8.07898 L 9.64583 8.088 L 9.58409 8.09691 L 9.52221 8.10571 L 9.4602 8.11439 L 9.39806 8.12296 L 9.33578 8.13142 L 9.27337 8.13975 L 9.21082 8.14797 L 9.14813 8.15606 L 9.0853 8.16403 L 9.02233 8.17187 L 8.95923 8.17958 L 8.89598 8.18717 L 8.83258 8.19462 L 8.76905 8.20194 L 8.70537 8.20913 L 8.64154 8.21618 L 8.57757 8.22309 L 8.51345 8.22986 L 8.44918 8.23648 L 8.38476 8.24296 L 8.32019 8.24929 L 8.25547 8.25547 L 8.25547 8.25547 L 8.24929 8.32019 L 8.24296 8.38476 L 8.23648 8.44918 L 8.22986 8.51345 L 8.22309 8.57757 L 8.21618 8.64154 L 8.20913 8.70537 L 8.20194 8.76905 L 8.19462 8.83258 L 8.18717 8.89598 L 8.17958 8.95923 L 8.17187 9.02233 L 8.16403 9.0853 L 8.15606 9.14813 L 8.14797 9.21082 L 8.13975 9.27337 L 8.13142 9.33578 L 8.12296 9.39806 L 8.11439 9.4602 L 8.10571 9.52221 L 8.09691 9.58409 L 8.088 9.64583 L 8.07898 9.70744 L 8.06985 9.76892 L 8.06061 9.83027 L 8.05127 9.89149 L 8.04182 9.95258 L 8.03227 10.0135 L 8.02262 10.0744 L 8.01287 10.1351 L 8.00302 10.1957 L 7.99308 10.2562 L 7.98303 10.3165 L 7.9729 10.3767 L 7.96267 10.4368 L 7.95234 10.4968 L 7.94193 10.5567 L 7.93143 10.6164 L 7.92084 10.676 L 7.91016 10.7355 L 7.8994 10.7949 L 7.88855 10.8542 L 7.87762 10.9133 L 7.86661 10.9724 L 7.85552 11.0313 L 7.84434 11.0901 L 7.83309 11.1489 L 7.82176 11.2075 L 7.81035 11.2659 L 7.79887 11.3243 L 7.76466 11.3478 L 7.73037 11.3712 L 7.69602 11.3945 L 7.66159 11.4176 L 7.62709 11.4407 L 7.59253 11.4637 L 7.5579 11.4865 L 7.52319 11.5093 L 7.48842 11.532 L 7.45358 11.5545 L 7.41867 11.577 L 7.3837 11.5993 L 7.34866 11.6215 L 7.31355 11.6436 L 7.27837 11.6657 L 7.24313 11.6876 L 7.20782 11.7094 L 7.17245 11.7311 L 7.13701 11.7527 L 7.1015 11.7742 L 7.06593 11.7956 L 7.0303 11.8168 L 6.9946 11.838 L 6.95884 11.859 L 6.92302 11.88 L 6.82687 11.9355 L 6.79081 11.9561 L 6.7547 11.9765 L 6.71852 11.9968 L 6.68228 12.0171 L 6.64598 12.0372 L 6.60962 12.0572 L 6.5732 12.0771 L 6.53672 12.0969 L 6.50018 12.1165 L 6.46358 12.1361 L 6.42692 12.1555 L 6.3902 12.1749 L 6.35343 12.1941 L 6.3166 12.2132 L 6.27971 12.2322 L 6.24276 12.2511 L 6.20575 12.2699 L 6.16869 12.2886 L 6.13157 12.3072 L 6.0944 12.3256 L 6.05717 12.344 L 6.01989 12.3622 L 5.98255 12.3803 L 5.94516 12.3983 L 5.90771 12.4162 L 5.85141 12.3969 L 5.79506 12.3776 L 5.73864 12.3581 L 5.68218 12.3385 L 5.62565 12.3187 L 5.56907 12.2989 L 5.51243 12.2789 L 5.45573 12.2588 L 5.39897 12.2385 L 5.34216 12.2182 L 5.28528 12.1977 L 5.22836 12.177 L 5.17137 12.1562 L 5.11432 12.1353 L 5.05722 12.1143 L 5.00005 12.0931 L 4.94283 12.0718 L 4.88555 12.0503 L 4.82822 12.0287 L 4.77082 12.0069 L 4.71336 11.985 L 4.65585 11.9629 L 4.59828 11.9407 L 4.54065 11.9183 L 4.48296 11.8958 L 4.42521 11.8732 L 4.3674 11.8503 L 4.30953 11.8273 L 4.25161 11.8042 L 4.19362 11.7809 L 4.13558 11.7574 L 4.07748 11.7337 L 4.01932 11.7099 L 3.9611 11.6859 L 3.90282 11.6618 L 3.84448 11.6374 L 3.78609 11.6129 L 3.72764 11.5882 L 3.66913 11.5633 L 3.61056 11.5383 L 3.55193 11.513 L 3.49324 11.4876 L 3.4345 11.462 L 3.3757 11.4362 L 3.31685 11.4102 L 3.25793 11.384 L 3.19896 11.3576 L 3.13994 11.331 L 3.08085 11.3042 L 3.02171 11.2772 L 3.02171 11.2772 L 2.984 11.3301 L 2.94623 11.3829 L 2.90841 11.4354 L 2.87054 11.4878 L 2.83262 11.5399 L 2.79465 11.5919 L 2.75663 11.6436 L 2.71857 11.6952 L 2.68046 11.7466 L 2.64231 11.7977 L 2.60411 11.8487 L 2.56588 11.8995 L 2.5276 11.9501 L 2.48929 12.0005 L 2.45094 12.0508 L 2.41255 12.1008 L 2.37412 12.1507 L 2.33566 12.2004 L 2.29717 12.25 L 2.25865 12.2993 L 2.22009 12.3485 L 2.1815 12.3975 L 2.14288 12.4464 L 2.10424 12.4951 L 2.06556 12.5436 L 2.02686 12.5919 L 1.98813 12.6401 L 1.94938 12.6881 L 1.9106 12.736 L 1.8718 12.7837 L 1.83298 12.8312 L 1.79413 12.8786 L 1.75526 12.9259 L 1.71637 12.973 L 1.67746 13.0199 L 1.63853 13.0667 L 1.59959 13.1133 L 1.56062 13.1598 L 1.52164 13.2061 L 1.48264 13.2523 L 1.44362 13.2984 L 1.40459 13.3443 L 1.36555 13.39 L 1.32649 13.4357 L 1.28741 13.4812 L 1.24833 13.5265 L 1.20923 13.5717 L 1.17012 13.6168 L 1.131 13.6618 L 1.09186 13.7066 L 1.05049 13.7098 L 1.0091 13.7129 L 0.967712 13.7159 L 0.92631 13.7188 L 0.8849 13.7215 L 0.843483 13.7241 L 0.802057 13.7266 L 0.760624 13.7289 L 0.719184 13.7312 L 0.677738 13.7333 L 0.636285 13.7353 L 0.594827 13.7371 L 0.553363 13.7389 L 0.511894 13.7405 L 0.470421 13.742 L 0.428943 13.7433 L 0.387461 13.7445 L 0.345976 13.7456 L 0.304488 13.7466 L 0.262996 13.7475 L 0.221503 13.7482 L 0.180007 13.7488 L 0.13851 13.7493 L 0.0970116 13.7497 L 0.0555123 13.7499 L -0.0555123 13.7499 L -0.0970116 13.7497 L -0.13851 13.7493 L -0.180007 13.7488 L -0.221503 13.7482 L -0.262996 13.7475 L -0.304488 13.7466 L -0.345976 13.7456 L -0.387461 13.7445 L -0.428943 13.7433 L -0.470421 13.742 L -0.511894 13.7405 L -0.553363 13.7389 L -0.594827 13.7371 L -0.636285 13.7353 L -0.677738 13.7333 L -0.719184 13.7312 L -0.760624 13.7289 L -0.802057 13.7266 L -0.843483 13.7241 L -0.8849 13.7215 L -0.92631 13.7188 L -0.967712 13.7159 L -1.0091 13.7129 L -1.05049 13.7098 L -1.09186 13.7066 L -1.131 13.6618 L -1.17012 13.6168 L -1.20923 13.5717 L -1.24833 13.5265 L -1.28741 13.4812 L -1.32649 13.4357 L -1.36555 13.39 L -1.40459 13.3443 L -1.44362 13.2984 L -1.48264 13.2523 L -1.52164 13.2061 L -1.56062 13.1598 L -1.59959 13.1133 L -1.63853 13.0667 L -1.67746 13.0199 L -1.71637 12.973 L -1.75526 12.9259 L -1.79413 12.8786 L -1.83298 12.8312 L -1.8718 12.7837 L -1.9106 12.736 L -1.94938 12.6881 L -1.98813 12.6401 L -2.02686 12.5919 L -2.06556 12.5436 L -2.10424 12.4951 L -2.14288 12.4464 L -2.1815 12.3975 L -2.22009 12.3485 L -2.25865 12.2993 L -2.29717 12.25 L -2.33566 12.2004 L -2.37412 12.1507 L -2.41255 12.1008 L -2.45094 12.0508 L -2.48929 12.0005 L -2.5276 11.9501 L -2.56588 11.8995 L -2.60411 11.8487 L -2.64231 11.7977 L -2.68046 11.7466 L -2.71857 11.6952 L -2.75663 11.6436 L -2.79465 11.5919 L -2.83262 11.5399 L -2.87054 11.4878 L -2.90841 11.4354 L -2.94623 11.3829 L -2.984 11.3301 L -3.02171 11.2772 L -3.02171 11.2772 L -3.08085 11.3042 L -3.13994 11.331 L -3.19896 11.3576 L -3.25793 11.384 L -3.31685 11.4102 L -3.3757 11.4362 L -3.4345 11.462 L -3.49324 11.4876 L -3.55193 11.513 L -3.61056 11.5383 L -3.66913 11.5633 L -3.72764 11.5882 L -3.78609 11.6129 L -3.84448 11.6374 L -3.90282 11.6618 L -3.9611 11.6859 L -4.01932 11.7099 L -4.07748 11.7337 L -4.13558 11.7574 L -4.19362 11.7809 L -4.25161 11.8042 L -4.30953 11.8273 L -4.3674 11.8503 L -4.42521 11.8732 L -4.48296 11.8958 L -4.54065 11.9183 L -4.59828 11.9407 L -4.65585 11.9629 L -4.71336 11.985 L -4.77082 12.0069 L -4.82822 12.0287 L -4.88555 12.0503 L -4.94283 12.0718 L -5.00005 12.0931 L -5.05722 12.1143 L -5.11432 12.1353 L -5.17137 12.1562 L -5.22836 12.177 L -5.28528 12.1977 L -5.34216 12.2182 L -5.39897 12.2385 L -5.45573 12.2588 L -5.51243 12.2789 L -5.56907 12.2989 L -5.62565 12.3187 L -5.68218 12.3385 L -5.73864 12.3581 L -5.79506 12.3776 L -5.85141 12.3969 L -5.90771 12.4162 L -5.94516 12.3983 L -5.98255 12.3803 L -6.01989 12.3622 L -6.05717 12.344 L -6.0944 12.3256 L -6.13157 12.3072 L -6.16869 12.2886 L -6.20575 12.2699 L -6.24276 12.2511 L -6.27971 12.2322 L -6.3166 12.2132 L -6.35343 12.1941 L -6.3902 12.1749 L -6.42692 12.1555 L -6.46358 12.1361 L -6.50018 12.1165 L -6.53672 12.0969 L -6.5732 12.0771 L -6.60962 12.0572 L -6.64598 12.0372 L -6.68228 12.0171 L -6.71852 11.9968 L -6.7547 11.9765 L -6.79081 11.9561 L -6.82687 11.9355 L -6.92302 11.88 L -6.95884 11.859 L -6.9946 11.838 L -7.0303 11.8168 L -7.06593 11.7956 L -7.1015 11.7742 L -7.13701 11.7527 L -7.17245 11.7311 L -7.20782 11.7094 L -7.24313 11.6876 L -7.27837 11.6657 L -7.31355 11.6436 L -7.34866 11.6215 L -7.3837 11.5993 L -7.41867 11.577 L -7.45358 11.5545 L -7.48842 11.532 L -7.52319 11.5093 L -7.5579 11.4865 L -7.59253 11.4637 L -7.62709 11.4407 L -7.66159 11.4176 L -7.69602 11.3945 L -7.73037 11.3712 L -7.76466 11.3478 L -7.79887 11.3243 L -7.81035 11.2659 L -7.82176 11.2075 L -7.83309 11.1489 L -7.84434 11.0901 L -7.85552 11.0313 L -7.86661 10.9724 L -7.87762 10.9133 L -7.88855 10.8542 L -7.8994 10.7949 L -7.91016 10.7355 L -7.92084 10.676 L -7.93143 10.6164 L -7.94193 10.5567 L -7.95234 10.4968 L -7.96267 10.4368 L -7.9729 10.3767 L -7.98303 10.3165 L -7.99308 10.2562 L -8.00302 10.1957 L -8.01287 10.1351 L -8.02262 10.0744 L -8.03227 10.0135 L -8.04182 9.95258 L -8.05127 9.89149 L -8.06061 9.83027 L -8.06985 9.76892 L -8.07898 9.70744 L -8.088 9.64583 L -8.09691 9.58409 L -8.10571 9.52221 L -8.11439 9.4602 L -8.12296 9.39806 L -8.13142 9.33578 L -8.13975 9.27337 L -8.14797 9.21082 L -8.15606 9.14813 L -8.16403 9.0853 L -8.17187 9.02233 L -8.17958 8.95923 L -8.18717 8.89598 L -8.19462 8.83258 L -8.20194 8.76905 L -8.20913 8.70537 L -8.21618 8.64154 L -8.22309 8.57757 L -8.22986 8.51345 L -8.23648 8.44918 L -8.24296 8.38476 L -8.24929 8.32019 L -8.25547 8.25547 L -8.25547 8.25547 L -8.32019 8.24929 L -8.38476 8.24296 L -8.44918 8.23648 L -8.51345 8.22986 L -8.57757 8.22309 L -8.64154 8.21618 L -8.70537 8.20913 L -8.76905 8.20194 L -8.83258 8.19462 L -8.89598 8.18717 L -8.95923 8.17958 L -9.02233 8.17187 L -9.0853 8.16403 L -9.14813 8.15606 L -9.21082 8.14797 L -9.27337 8.13975 L -9.33578 8.13142 L -9.39806 8.12296 L -9.4602 8.11439 L -9.52221 8.10571 L -9.58409 8.09691 L -9.64583 8.088 L -9.70744 8.07898 L -9.76892 8.06985 L -9.83027 8.06061 L -9.89149 8.05127 L -9.95258 8.04182 L -10.0135 8.03227 L -10.0744 8.02262 L -10.1351 8.01287 L -10.1957 8.00302 L -10.2562 7.99308 L -10.3165 7.98303 L -10.3767 7.9729 L -10.4368 7.96267 L -10.4968 7.95234 L -10.5567 7.94193 L -10.6164 7.93143 L -10.676 7.92084 L -10.7355 7.91016 L -10.7949 7.8994 L -10.8542 7.88855 L -10.9133 7.87762 L -10.9724 7.86661 L -11.0313 7.85552 L -11.0901 7.84434 L -11.1489 7.83309 L -11.2075 7.82176 L -11.2659 7.81035 L -11.3243 7.79887 L -11.3478 7.76466 L -11.3712 7.73037 L -11.3945 7.69602 L -11.4176 7.66159 L -11.4407 7.62709 L -11.4637 7.59253 L -11.4865 7.5579 L -11.5093 7.52319 L -11.532 7.48842 L -11.5545 7.45358 L -11.577 7.41867 L -11.5993 7.3837 L -11.6215 7.34866 L -11.6436 7.31355 L -11.6657 7.27837 L -11.6876 7.24313 L -11.7094 7.20782 L -11.7311 7.17245 L -11.7527 7.13701 L -11.7742 7.1015 L -11.7956 7.06593 L -11.8168 7.0303 L -11.838 6.9946 L -11.859 6.95884 L -11.88 6.92302 L -11.9355 6.82687 L -11.9561 6.79081 L -11.9765 6.7547 L -11.9968 6.71852 L -12.0171 6.68228 L -12.0372 6.64598 L -12.0572 6.60962 L -12.0771 6.5732 L -12.0969 6.53672 L -12.1165 6.50018 L -12.1361 6.46358 L -12.1555 6.42692 L -12.1749 6.3902 L -12.1941 6.35343 L -12.2132 6.3166 L -12.2322 6.27971 L -12.2511 6.24276 L -12.2699 6.20575 L -12.2886 6.16869 L -12.3072 6.13157 L -12.3256 6.0944 L -12.344 6.05717 L -12.3622 6.01989 L -12.3803 5.98255 L -12.3983 5.94516 L -12.4162 5.90771 L -12.3969 5.85141 L -12.3776 5.79506 L -12.3581 5.73864 L -12.3385 5.68218 L -12.3187 5.62565 L -12.2989 5.56907 L -12.2789 5.51243 L -12.2588 5.45573 L -12.2385 5.39897 L -12.2182 5.34216 L -12.1977 5.28528 L -12.177 5.22836 L -12.1562 5.17137 L -12.1353 5.11432 L -12.1143 5.05722 L -12.0931 5.00005 L -12.0718 4.94283 L -12.0503 4.88555 L -12.0287 4.82822 L -12.0069 4.77082 L -11.985 4.71336 L -11.9629 4.65585 L -11.9407 4.59828 L -11.9183 4.54065 L -11.8958 4.48296 L -11.8732 4.42521 L -11.8503 4.3674 L -11.8273 4.30953 L -11.8042 4.25161 L -11.7809 4.19362 L -11.7574 4.13558 L -11.7337 4.07748 L -11.7099 4.01932 L -11.6859 3.9611 L -11.6618 3.90282 L -11.6374 3.84448 L -11.6129 3.78609 L -11.5882 3.72764 L -11.5633 3.66913 L -11.5383 3.61056 L -11.513 3.55193 L -11.4876 3.49324 L -11.462 3.4345 L -11.4362 3.3757 L -11.4102 3.31685 L -11.384 3.25793 L -11.3576 3.19896 L -11.331 3.13994 L -11.3042 3.08085 L -11.2772 3.02171 L -11.2772 3.02171 L -11.3301 2.984 L -11.3829 2.94623 L -11.4354 2.90841 L -11.4878 2.87054 L -11.5399 2.83262 L -11.5919 2.79465 L -11.6436 2.75663 L -11.6952 2.71857 L -11.7466 2.68046 L -11.7977 2.64231 L -11.8487 2.60411 L -11.8995 2.56588 L -11.9501 2.5276 L -12.0005 2.48929 L -12.0508 2.45094 L -12.1008 2.41255 L -12.1507 2.37412 L -12.2004 2.33566 L -12.25 2.29717 L -12.2993 2.25865 L -12.3485 2.22009 L -12.3975 2.1815 L -12.4464 2.14288 L -12.4951 2.10424 L -12.5436 2.06556 L -12.5919 2.02686 L -12.6401 1.98813 L -12.6881 1.94938 L -12.736 1.9106 L -12.7837 1.8718 L -12.8312 1.83298 L -12.8786 1.79413 L -12.9259 1.75526 L -12.973 1.71637 L -13.0199 1.67746 L -13.0667 1.63853 L -13.1133 1.59959 L -13.1598 1.56062 L -13.2061 1.52164 L -13.2523 1.48264 L -13.2984 1.44362 L -13.3443 1.40459 L -13.39 1.36555 L -13.4357 1.32649 L -13.4812 1.28741 L -13.5265 1.24833 L -13.5717 1.20923 L -13.6168 1.17012 L -13.6618 1.131 L -13.7066 1.09186 L -13.7098 1.05049 L -13.7129 1.0091 L -13.7159 0.967712 L -13.7188 0.92631 L -13.7215 0.8849 L -13.7241 0.843483 L -13.7266 0.802057 L -13.7289 0.760624 L -13.7312 0.719184 L -13.7333 0.677738 L -13.7353 0.636285 L -13.7371 0.594827 L -13.7389 0.553363 L -13.7405 0.511894 L -13.742 0.470421 L -13.7433 0.428943 L -13.7445 0.387461 L -13.7456 0.345976 L -13.7466 0.304488 L -13.7475 0.262996 L -13.7482 0.221503 L -13.7488 0.180007 L -13.7493 0.13851 L -13.7497 0.0970116 L -13.7499 0.0555123 L -13.7499 -0.0555123 L -13.7497 -0.0970116 L -13.7493 -0.13851 L -13.7488 -0.180007 L -13.7482 -0.221503 L -13.7475 -0.262996 L -13.7466 -0.304488 L -13.7456 -0.345976 L -13.7445 -0.387461 L -13.7433 -0.428943 L -13.742 -0.470421 L -13.7405 -0.511894 L -13.7389 -0.553363 L -13.7371 -0.594827 L -13.7353 -0.636285 L -13.7333 -0.677738 L -13.7312 -0.719184 L -13.7289 -0.760624 L -13.7266 -0.802057 L -13.7241 -0.843483 L -13.7215 -0.8849 L -13.7188 -0.92631 L -13.7159 -0.967712 L -13.7129 -1.0091 L -13.7098 -1.05049 L -13.7066 -1.09186 L -13.6618 -1.131 L -13.6168 -1.17012 L -13.5717 -1.20923 L -13.5265 -1.24833 L -13.4812 -1.28741 L -13.4357 -1.32649 L -13.39 -1.36555 L -13.3443 -1.40459 L -13.2984 -1.44362 L -13.2523 -1.48264 L -13.2061 -1.52164 L -13.1598 -1.56062 L -13.1133 -1.59959 L -13.0667 -1.63853 L -13.0199 -1.67746 L -12.973 -1.71637 L -12.9259 -1.75526 L -12.8786 -1.79413 L -12.8312 -1.83298 L -12.7837 -1.8718 L -12.736 -1.9106 L -12.6881 -1.94938 L -12.6401 -1.98813 L -12.5919 -2.02686 L -12.5436 -2.06556 L -12.4951 -2.10424 L -12.4464 -2.14288 L -12.3975 -2.1815 L -12.3485 -2.22009 L -12.2993 -2.25865 L -12.25 -2.29717 L -12.2004 -2.33566 L -12.1507 -2.37412 L -12.1008 -2.41255 L -12.0508 -2.45094 L -12.0005 -2.48929 L -11.9501 -2.5276 L -11.8995 -2.56588 L -11.8487 -2.60411 L -11.7977 -2.64231 L -11.7466 -2.68046 L -11.6952 -2.71857 L -11.6436 -2.75663 L -11.5919 -2.79465 L -11.5399 -2.83262 L -11.4878 -2.87054 L -11.4354 -2.90841 L -11.3829 -2.94623 L -11.3301 -2.984 L -11.2772 -3.02171 L -11.2772 -3.02171 L -11.3042 -3.08085 L -11.331 -3.13994 L -11.3576 -3.19896 L -11.384 -3.25793 L -11.4102 -3.31685 L -11.4362 -3.3757 L -11.462 -3.4345 L -11.4876 -3.49324 L -11.513 -3.55193 L -11.5383 -3.61056 L -11.5633 -3.66913 L -11.5882 -3.72764 L -11.6129 -3.78609 L -11.6374 -3.84448 L -11.6618 -3.90282 L -11.6859 -3.9611 L -11.7099 -4.01932 L -11.7337 -4.07748 L -11.7574 -4.13558 L -11.7809 -4.19362 L -11.8042 -4.25161 L -11.8273 -4.30953 L -11.8503 -4.3674 L -11.8732 -4.42521 L -11.8958 -4.48296 L -11.9183 -4.54065 L -11.9407 -4.59828 L -11.9629 -4.65585 L -11.985 -4.71336 L -12.0069 -4.77082 L -12.0287 -4.82822 L -12.0503 -4.88555 L -12.0718 -4.94283 L -12.0931 -5.00005 L -12.1143 -5.05722 L -12.1353 -5.11432 L -12.1562 -5.17137 L -12.177 -5.22836 L -12.1977 -5.28528 L -12.2182 -5.34216 L -12.2385 -5.39897 L -12.2588 -5.45573 L -12.2789 -5.51243 L -12.2989 -5.56907 L -12.3187 -5.62565 L -12.3385 -5.68218 L -12.3581 -5.73864 L -12.3776 -5.79506 L -12.3969 -5.85141 L -12.4162 -5.90771 L -12.3983 -5.94516 L -12.3803 -5.98255 L -12.3622 -6.01989 L -12.344 -6.05717 L -12.3256 -6.0944 L -12.3072 -6.13157 L -12.2886 -6.16869 L -12.2699 -6.20575 L -12.2511 -6.24276 L -12.2322 -6.27971 L -12.2132 -6.3166 L -12.1941 -6.35343 L -12.1749 -6.3902 L -12.1555 -6.42692 L -12.1361 -6.46358 L -12.1165 -6.50018 L -12.0969 -6.53672 L -12.0771 -6.5732 L -12.0572 -6.60962 L -12.0372 -6.64598 L -12.0171 -6.68228 L -11.9968 -6.71852 L -11.9765 -6.7547 L -11.9561 -6.79081 L -11.9355 -6.82687 L -11.88 -6.92302 L -11.859 -6.95884 L -11.838 -6.9946 L -11.8168 -7.0303 L -11.7956 -7.06593 L -11.7742 -7.1015 L -11.7527 -7.13701 L -11.7311 -7.17245 L -11.7094 -7.20782 L -11.6876 -7.24313 L -11.6657 -7.27837 L -11.6436 -7.31355 L -11.6215 -7.34866 L -11.5993 -7.3837 L -11.577 -7.41867 L -11.5545 -7.45358 L -11.532 -7.48842 L -11.5093 -7.52319 L -11.4865 -7.5579 L -11.4637 -7.59253 L -11.4407 -7.62709 L -11.4176 -7.66159 L -11.3945 -7.69602 L -11.3712 -7.73037 L -11.3478 -7.76466 L -11.3243 -7.79887 L -11.2659 -7.81035 L -11.2075 -7.82176 L -11.1489 -7.83309 L -11.0901 -7.84434 L -11.0313 -7.85552 L -10.9724 -7.86661 L -10.9133 -7.87762 L -10.8542 -7.88855 L -10.7949 -7.8994 L -10.7355 -7.91016 L -10.676 -7.92084 L -10.6164 -7.93143 L -10.5567 -7.94193 L -10.4968 -7.95234 L -10.4368 -7.96267 L -10.3767 -7.9729 L -10.3165 -7.98303 L -10.2562 -7.99308 L -10.1957 -8.00302 L -10.1351 -8.01287 L -10.0744 -8.02262 L -10.0135 -8.03227 L -9.95258 -8.04182 L -9.89149 -8.05127 L -9.83027 -8.06061 L -9.76892 -8.06985 L -9.70744 -8.07898 L -9.64583 -8.088 L -9.58409 -8.09691 L -9.52221 -8.10571 L -9.4602 -8.11439 L -9.39806 -8.12296 L -9.33578 -8.13142 L -9.27337 -8.13975 L -9.21082 -8.14797 L -9.14813 -8.15606 L -9.0853 -8.16403 L -9.02233 -8.17187 L -8.95923 -8.17958 L -8.89598 -8.18717 L -8.83258 -8.19462 L -8.76905 -8.20194 L -8.70537 -8.20913 L -8.64154 -8.21618 L -8.57757 -8.22309 L -8.51345 -8.22986 L -8.44918 -8.23648 L -8.38476 -8.24296 L -8.32019 -8.24929 L -8.25547 -8.25547 L -8.25547 -8.25547 L -8.24929 -8.32019 L -8.24296 -8.38476 L -8.23648 -8.44918 L -8.22986 -8.51345 L -8.22309 -8.57757 L -8.21618 -8.64154 L -8.20913 -8.70537 L -8.20194 -8.76905 L -8.19462 -8.83258 L -8.18717 -8.89598 L -8.17958 -8.95923 L -8.17187 -9.02233 L -8.16403 -9.0853 L -8.15606 -9.14813 L -8.14797 -9.21082 L -8.13975 -9.27337 L -8.13142 -9.33578 L -8.12296 -9.39806 L -8.11439 -9.4602 L -8.10571 -9.52221 L -8.09691 -9.58409 L -8.088 -9.64583 L -8.07898 -9.70744 L -8.06985 -9.76892 L -8.06061 -9.83027 L -8.05127 -9.89149 L -8.04182 -9.95258 L -8.03227 -10.0135 L -8.02262 -10.0744 L -8.01287 -10.1351 L -8.00302 -10.1957 L -7.99308 -10.2562 L -7.98303 -10.3165 L -7.9729 -10.3767 L -7.96267 -10.4368 L -7.95234 -10.4968 L -7.94193 -10.5567 L -7.93143 -10.6164 L -7.92084 -10.676 L -7.91016 -10.7355 L -7.8994 -10.7949 L -7.88855 -10.8542 L -7.87762 -10.9133 L -7.86661 -10.9724 L -7.85552 -11.0313 L -7.84434 -11.0901 L -7.83309 -11.1489 L -7.82176 -11.2075 L -7.81035 -11.2659 L -7.79887 -11.3243 L -7.76466 -11.3478 L -7.73037 -11.3712 L -7.69602 -11.3945 L -7.66159 -11.4176 L -7.62709 -11.4407 L -7.59253 -11.4637 L -7.5579 -11.4865 L -7.52319 -11.5093 L -7.48842 -11.532 L -7.45358 -11.5545 L -7.41867 -11.577 L -7.3837 -11.5993 L -7.34866 -11.6215 L -7.31355 -11.6436 L -7.27837 -11.6657 L -7.24313 -11.6876 L -7.20782 -11.7094 L -7.17245 -11.7311 L -7.13701 -11.7527 L -7.1015 -11.7742 L -7.06593 -11.7956 L -7.0303 -11.8168 L -6.9946 -11.838 L -6.95884 -11.859 L -6.92302 -11.88 L -6.82687 -11.9355 L -6.79081 -11.9561 L -6.7547 -11.9765 L -6.71852 -11.9968 L -6.68228 -12.0171 L -6.64598 -12.0372 L -6.60962 -12.0572 L -6.5732 -12.0771 L -6.53672 -12.0969 L -6.50018 -12.1165 L -6.46358 -12.1361 L -6.42692 -12.1555 L -6.3902 -12.1749 L -6.35343 -12.1941 L -6.3166 -12.2132 L -6.27971 -12.2322 L -6.24276 -12.2511 L -6.20575 -12.2699 L -6.16869 -12.2886 L -6.13157 -12.3072 L -6.0944 -12.3256 L -6.05717 -12.344 L -6.01989 -12.3622 L -5.98255 -12.3803 L -5.94516 -12.3983 L -5.90771 -12.4162 L -5.85141 -12.3969 L -5.79506 -12.3776 L -5.73864 -12.3581 L -5.68218 -12.3385 L -5.62565 -12.3187 L -5.56907 -12.2989 L -5.51243 -12.2789 L -5.45573 -12.2588 L -5.39897 -12.2385 L -5.34216 -12.2182 L -5.28528 -12.1977 L -5.22836 -12.177 L -5.17137 -12.1562 L -5.11432 -12.1353 L -5.05722 -12.1143 L -5.00005 -12.0931 L -4.94283 -12.0718 L -4.88555 -12.0503 L -4.82822 -12.0287 L -4.77082 -12.0069 L -4.71336 -11.985 L -4.65585 -11.9629 L -4.59828 -11.9407 L -4.54065 -11.9183 L -4.48296 -11.8958 L -4.42521 -11.8732 L -4.3674 -11.8503 L -4.30953 -11.8273 L -4.25161 -11.8042 L -4.19362 -11.7809 L -4.13558 -11.7574 L -4.07748 -11.7337 L -4.01932 -11.7099 L -3.9611 -11.6859 L -3.90282 -11.6618 L -3.84448 -11.6374 L -3.78609 -11.6129 L -3.72764 -11.5882 L -3.66913 -11.5633 L -3.61056 -11.5383 L -3.55193 -11.513 L -3.49324 -11.4876 L -3.4345 -11.462 L -3.3757 -11.4362 L -3.31685 -11.4102 L -3.25793 -11.384 L -3.19896 -11.3576 L -3.13994 -11.331 L -3.08085 -11.3042 L -3.02171 -11.2772 L -3.02171 -11.2772 L -2.984 -11.3301 L -2.94623 -11.3829 L -2.90841 -11.4354 L -2.87054 -11.4878 L -2.83262 -11.5399 L -2.79465 -11.5919 L -2.75663 -11.6436 L -2.71857 -11.6952 L -2.68046 -11.7466 L -2.64231 -11.7977 L -2.60411 -11.8487 L -2.56588 -11.8995 L -2.5276 -11.9501 L -2.48929 -12.0005 L -2.45094 -12.0508 L -2.41255 -12.1008 L -2.37412 -12.1507 L -2.33566 -12.2004 L -2.29717 -12.25 L -2.25865 -12.2993 L -2.22009 -12.3485 L -2.1815 -12.3975 L -2.14288 -12.4464 L -2.10424 -12.4951 L -2.06556 -12.5436 L -2.02686 -12.5919 L -1.98813 -12.6401 L -1.94938 -12.6881 L -1.9106 -12.736 L -1.8718 -12.7837 L -1.83298 -12.8312 L -1.79413 -12.8786 L -1.75526 -12.9259 L -1.71637 -12.973 L -1.67746 -13.0199 L -1.63853 -13.0667 L -1.59959 -13.1133 L -1.56062 -13.1598 L -1.52164 -13.2061 L -1.48264 -13.2523 L -1.44362 -13.2984 L -1.40459 -13.3443 L -1.36555 -13.39 L -1.32649 -13.4357 L -1.28741 -13.4812 L -1.24833 -13.5265 L -1.20923 -13.5717 L -1.17012 -13.6168 L -1.131 -13.6618 L -1.09186 -13.7066 L -1.05049 -13.7098 L -1.0091 -13.7129 L -0.967712 -13.7159 L -0.92631 -13.7188 L -0.8849 -13.7215 L -0.843483 -13.7241 L -0.802057 -13.7266 L -0.760624 -13.7289 L -0.719184 -13.7312 L -0.677738 -13.7333 L -0.636285 -13.7353 L -0.594827 -13.7371 L -0.553363 -13.7389 L -0.511894 -13.7405 L -0.470421 -13.742 L -0.428943 -13.7433 L -0.387461 -13.7445 L -0.345976 -13.7456 L -0.304488 -13.7466 L -0.262996 -13.7475 L -0.221503 -13.7482 L -0.180007 -13.7488 L -0.13851 -13.7493 L -0.0970116 -13.7497 L -0.0555123 -13.7499 L 0.0555123 -13.7499 L 0.0970116 -13.7497 L 0.13851 -13.7493 L 0.180007 -13.7488 L 0.221503 -13.7482 L 0.262996 -13.7475 L 0.304488 -13.7466 L 0.345976 -13.7456 L 0.387461 -13.7445 L 0.428943 -13.7433 L 0.470421 -13.742 L 0.511894 -13.7405 L 0.553363 -13.7389 L 0.594827 -13.7371 L 0.636285 -13.7353 L 0.677738 -13.7333 L 0.719184 -13.7312 L 0.760624 -13.7289 L 0.802057 -13.7266 L 0.843483 -13.7241 L 0.8849 -13.7215 L 0.92631 -13.7188 L 0.967712 -13.7159 L 1.0091 -13.7129 L 1.05049 -13.7098 L 1.09186 -13.7066 L 1.131 -13.6618 L 1.17012 -13.6168 L 1.20923 -13.5717 L 1.24833 -13.5265 L 1.28741 -13.4812 L 1.32649 -13.4357 L 1.36555 -13.39 L 1.40459 -13.3443 L 1.44362 -13.2984 L 1.48264 -13.2523 L 1.52164 -13.2061 L 1.56062 -13.1598 L 1.59959 -13.1133 L 1.63853 -13.0667 L 1.67746 -13.0199 L 1.71637 -12.973 L 1.75526 -12.9259 L 1.79413 -12.8786 L 1.83298 -12.8312 L 1.8718 -12.7837 L 1.9106 -12.736 L 1.94938 -12.6881 L 1.98813 -12.6401 L 2.02686 -12.5919 L 2.06556 -12.5436 L 2.10424 -12.4951 L 2.14288 -12.4464 L 2.1815 -12.3975 L 2.22009 -12.3485 L 2.25865 -12.2993 L 2.29717 -12.25 L 2.33566 -12.2004 L 2.37412 -12.1507 L 2.41255 -12.1008 L 2.45094 -12.0508 L 2.48929 -12.0005 L 2.5276 -11.9501 L 2.56588 -11.8995 L 2.60411 -11.8487 L 2.64231 -11.7977 L 2.68046 -11.7466 L 2.71857 -11.6952 L 2.75663 -11.6436 L 2.79465 -11.5919 L 2.83262 -11.5399 L 2.87054 -11.4878 L 2.90841 -11.4354 L 2.94623 -11.3829 L 2.984 -11.3301 L 3.02171 -11.2772 L 3.02171 -11.2772 L 3.08085 -11.3042 L 3.13994 -11.331 L 3.19896 -11.3576 L 3.25793 -11.384 L 3.31685 -11.4102 L 3.3757 -11.4362 L 3.4345 -11.462 L 3.49324 -11.4876 L 3.55193 -11.513 L 3.61056 -11.5383 L 3.66913 -11.5633 L 3.72764 -11.5882 L 3.78609 -11.6129 L 3.84448 -11.6374 L 3.90282 -11.6618 L 3.9611 -11.6859 L 4.01932 -11.7099 L 4.07748 -11.7337 L 4.13558 -11.7574 L 4.19362 -11.7809 L 4.25161 -11.8042 L 4.30953 -11.8273 L 4.3674 -11.8503 L 4.42521 -11.8732 L 4.48296 -11.8958 L 4.54065 -11.9183 L 4.59828 -11.9407 L 4.65585 -11.9629 L 4.71336 -11.985 L 4.77082 -12.0069 L 4.82822 -12.0287 L 4.88555 -12.0503 L 4.94283 -12.0718 L 5.00005 -12.0931 L 5.05722 -12.1143 L 5.11432 -12.1353 L 5.17137 -12.1562 L 5.22836 -12.177 L 5.28528 -12.1977 L 5.34216 -12.2182 L 5.39897 -12.2385 L 5.45573 -12.2588 L 5.51243 -12.2789 L 5.56907 -12.2989 L 5.62565 -12.3187 L 5.68218 -12.3385 L 5.73864 -12.3581 L 5.79506 -12.3776 L 5.85141 -12.3969 L 5.90771 -12.4162 L 5.94516 -12.3983 L 5.98255 -12.3803 L 6.01989 -12.3622 L 6.05717 -12.344 L 6.0944 -12.3256 L 6.13157 -12.3072 L 6.16869 -12.2886 L 6.20575 -12.2699 L 6.24276 -12.2511 L 6.27971 -12.2322 L 6.3166 -12.2132 L 6.35343 -12.1941 L 6.3902 -12.1749 L 6.42692 -12.1555 L 6.46358 -12.1361 L 6.50018 -12.1165 L 6.53672 -12.0969 L 6.5732 -12.0771 L 6.60962 -12.0572 L 6.64598 -12.0372 L 6.68228 -12.0171 L 6.71852 -11.9968 L 6.7547 -11.9765 L 6.79081 -11.9561 L 6.82687 -11.9355 L 6.92302 -11.88 L 6.95884 -11.859 L 6.9946 -11.838 L 7.0303 -11.8168 L 7.06593 -11.7956 L 7.1015 -11.7742 L 7.13701 -11.7527 L 7.17245 -11.7311 L 7.20782 -11.7094 L 7.24313 -11.6876 L 7.27837 -11.6657 L 7.31355 -11.6436 L 7.34866 -11.6215 L 7.3837 -11.5993 L 7.41867 -11.577 L 7.45358 -11.5545 L 7.48842 -11.532 L 7.52319 -11.5093 L 7.5579 -11.4865 L 7.59253 -11.4637 L 7.62709 -11.4407 L 7.66159 -11.4176 L 7.69602 -11.3945 L 7.73037 -11.3712 L 7.76466 -11.3478 L 7.79887 -11.3243 L 7.81035 -11.2659 L 7.82176 -11.2075 L 7.83309 -11.1489 L 7.84434 -11.0901 L 7.85552 -11.0313 L 7.86661 -10.9724 L 7.87762 -10.9133 L 7.88855 -10.8542 L 7.8994 -10.7949 L 7.91016 -10.7355 L 7.92084 -10.676 L 7.93143 -10.6164 L 7.94193 -10.5567 L 7.95234 -10.4968 L 7.96267 -10.4368 L 7.9729 -10.3767 L 7.98303 -10.3165 L 7.99308 -10.2562 L 8.00302 -10.1957 L 8.01287 -10.1351 L 8.02262 -10.0744 L 8.03227 -10.0135 L 8.04182 -9.95258 L 8.05127 -9.89149 L 8.06061 -9.83027 L 8.06985 -9.76892 L 8.07898 -9.70744 L 8.088 -9.64583 L 8.09691 -9.58409 L 8.10571 -9.52221 L 8.11439 -9.4602 L 8.12296 -9.39806 L 8.13142 -9.33578 L 8.13975 -9.27337 L 8.14797 -9.21082 L 8.15606 -9.14813 L 8.16403 -9.0853 L 8.17187 -9.02233 L 8.17958 -8.95923 L 8.18717 -8.89598 L 8.19462 -8.83258 L 8.20194 -8.76905 L 8.20913 -8.70537 L 8.21618 -8.64154 L 8.22309 -8.57757 L 8.22986 -8.51345 L 8.23648 -8.44918 L 8.24296 -8.38476 L 8.24929 -8.32019 L 8.25547 -8.25547 L 8.25547 -8.25547 L 8.32019 -8.24929 L 8.38476 -8.24296 L 8.44918 -8.23648 L 8.51345 -8.22986 L 8.57757 -8.22309 L 8.64154 -8.21618 L 8.70537 -8.20913 L 8.76905 -8.20194 L 8.83258 -8.19462 L 8.89598 -8.18717 L 8.95923 -8.17958 L 9.02233 -8.17187 L 9.0853 -8.16403 L 9.14813 -8.15606 L 9.21082 -8.14797 L 9.27337 -8.13975 L 9.33578 -8.13142 L 9.39806 -8.12296 L 9.4602 -8.11439 L 9.52221 -8.10571 L 9.58409 -8.09691 L 9.64583 -8.088 L 9.70744 -8.07898 L 9.76892 -8.06985 L 9.83027 -8.06061 L 9.89149 -8.05127 L 9.95258 -8.04182 L 10.0135 -8.03227 L 10.0744 -8.02262 L 10.1351 -8.01287 L 10.1957 -8.00302 L 10.2562 -7.99308 L 10.3165 -7.98303 L 10.3767 -7.9729 L 10.4368 -7.96267 L 10.4968 -7.95234 L 10.5567 -7.94193 L 10.6164 -7.93143 L 10.676 -7.92084 L 10.7355 -7.91016 L 10.7949 -7.8994 L 10.8542 -7.88855 L 10.9133 -7.87762 L 10.9724 -7.86661 L 11.0313 -7.85552 L 11.0901 -7.84434 L 11.1489 -7.83309 L 11.2075 -7.82176 L 11.2659 -7.81035 L 11.3243 -7.79887 L 11.3478 -7.76466 L 11.3712 -7.73037 L 11.3945 -7.69602 L 11.4176 -7.66159 L 11.4407 -7.62709 L 11.4637 -7.59253 L 11.4865 -7.5579 L 11.5093 -7.52319 L 11.532 -7.48842 L 11.5545 -7.45358 L 11.577 -7.41867 L 11.5993 -7.3837 L 11.6215 -7.34866 L 11.6436 -7.31355 L 11.6657 -7.27837 L 11.6876 -7.24313 L 11.7094 -7.20782 L 11.7311 -7.17245 L 11.7527 -7.13701 L 11.7742 -7.1015 L 11.7956 -7.06593 L 11.8168 -7.0303 L 11.838 -6.9946 L 11.859 -6.95884 L 11.88 -6.92302 L 11.9355 -6.82687 L 11.9561 -6.79081 L 11.9765 -6.7547 L 11.9968 -6.71852 L 12.0171 -6.68228 L 12.0372 -6.64598 L 12.0572 -6.60962 L 12.0771 -6.5732 L 12.0969 -6.53672 L 12.1165 -6.50018 L 12.1361 -6.46358 L 12.1555 -6.42692 L 12.1749 -6.3902 L 12.1941 -6.35343 L 12.2132 -6.3166 L 12.2322 -6.27971 L 12.2511 -6.24276 L 12.2699 -6.20575 L 12.2886 -6.16869 L 12.3072 -6.13157 L 12.3256 -6.0944 L 12.344 -6.05717 L 12.3622 -6.01989 L 12.3803 -5.98255 L 12.3983 -5.94516 L 12.4162 -5.90771 L 12.3969 -5.85141 L 12.3776 -5.79506 L 12.3581 -5.73864 L 12.3385 -5.68218 L 12.3187 -5.62565 L 12.2989 -5.56907 L 12.2789 -5.51243 L 12.2588 -5.45573 L 12.2385 -5.39897 L 12.2182 -5.34216 L 12.1977 -5.28528 L 12.177 -5.22836 L 12.1562 -5.17137 L 12.1353 -5.11432 L 12.1143 -5.05722 L 12.0931 -5.00005 L 12.0718 -4.94283 L 12.0503 -4.88555 L 12.0287 -4.82822 L 12.0069 -4.77082 L 11.985 -4.71336 L 11.9629 -4.65585 L 11.9407 -4.59828 L 11.9183 -4.54065 L 11.8958 -4.48296 L 11.8732 -4.42521 L 11.8503 -4.3674 L 11.8273 -4.30953 L 11.8042 -4.25161 L 11.7809 -4.19362 L 11.7574 -4.13558 L 11.7337 -4.07748 L 11.7099 -4.01932 L 11.6859 -3.9611 L 11.6618 -3.90282 L 11.6374 -3.84448 L 11.6129 -3.78609 L 11.5882 -3.72764 L 11.5633 -3.66913 L 11.5383 -3.61056 L 11.513 -3.55193 L 11.4876 -3.49324 L 11.462 -3.4345 L 11.4362 -3.3757 L 11.4102 -3.31685 L 11.384 -3.25793 L 11.3576 -3.19896 L 11.331 -3.13994 L 11.3042 -3.08085 L 11.2772 -3.02171 L 11.2772 -3.02171 L 11.3301 -2.984 L 11.3829 -2.94623 L 11.4354 -2.90841 L 11.4878 -2.87054 L 11.5399 -2.83262 L 11.5919 -2.79465 L 11.6436 -2.75663 L 11.6952 -2.71857 L 11.7466 -2.68046 L 11.7977 -2.64231 L 11.8487 -2.60411 L 11.8995 -2.56588 L 11.9501 -2.5276 L 12.0005 -2.48929 L 12.0508 -2.45094 L 12.1008 -2.41255 L 12.1507 -2.37412 L 12.2004 -2.33566 L 12.25 -2.29717 L 12.2993 -2.25865 L 12.3485 -2.22009 L 12.3975 -2.1815 L 12.4464 -2.14288 L 12.4951 -2.10424 L 12.5436 -2.06556 L 12.5919 -2.02686 L 12.6401 -1.98813 L 12.6881 -1.94938 L 12.736 -1.9106 L 12.7837 -1.8718 L 12.8312 -1.83298 L 12.8786 -1.79413 L 12.9259 -1.75526 L 12.973 -1.71637 L 13.0199 -1.67746 L 13.0667 -1.63853 L 13.1133 -1.59959 L 13.1598 -1.56062 L 13.2061 -1.52164 L 13.2523 -1.48264 L 13.2984 -1.44362 L 13.3443 -1.40459 L 13.39 -1.36555 L 13.4357 -1.32649 L 13.4812 -1.28741 L 13.5265 -1.24833 L 13.5717 -1.20923 L 13.6168 -1.17012 L 13.6618 -1.131 L 13.7066 -1.09186 L 13.7098 -1.05049 L 13.7129 -1.0091 L 13.7159 -0.967712 L 13.7188 -0.92631 L 13.7215 -0.8849 L 13.7241 -0.843483 L 13.7266 -0.802057 L 13.7289 -0.760624 L 13.7312 -0.719184 L 13.7333 -0.677738 L 13.7353 -0.636285 L 13.7371 -0.594827 L 13.7389 -0.553363 L 13.7405 -0.511894 L 13.742 -0.470421 L 13.7433 -0.428943 L 13.7445 -0.387461 L 13.7456 -0.345976 L 13.7466 -0.304488 L 13.7475 -0.262996 L 13.7482 -0.221503 L 13.7488 -0.180007 L 13.7493 -0.13851 L 13.7497 -0.0970116 L 13.7499 -0.0555123Z"
id="path1" />
</g>
</svg>
