<?xml version="1.0" encoding="UTF-8" standalone="no"?>
<svg version="1.1">
<g
style="fill:none;stroke:#000000;stroke-opacity:1;stroke-width:0.1">
<path d="M 13.8748 0.067894 L 13.8746 0.108579 L 13.8742 0.149264 L 13.8737 0.189947 L 13.8731 0.230629 L 13.8723 0.271308 L 13.8715 0.311986 L 13.8705 0.35266 L 13.8694 0.393332 L 13.8682 0.434 L 13.8669 0.474664 L 13.8654 0.515325 L 13.8639 0.555981 L 13.8622 0.596632 L 13.8604 0.637278 L 13.8584 0.677918 L 13.8564 0.718553 L 13.8542 0.759182 L 13.8519 0.799804 L 13.8495 0.840419 L 13.847 0.881027 L 13.8444 0.921627 L 13.8416 0.962219 L 13.8387 1.0028 L 13.8357 1.04338 L 13.8326 1.08395 L 13.8294 1.1245 L 13.7854 1.16286 L 13.7412 1.20121 L 13.697 1.23955 L 13.6526 1.27788 L 13.6081 1.3162 L 13.5634 1.3545 L 13.5186 1.39279 L 13.4737 1.43106 L 13.4287 1.46932 L 13.3835 1.50757 L 13.3382 1.5458 L 13.2927 1.58402 L 13.2471 1.62221 L 13.2014 1.6604 L 13.1555 1.69856 L 13.1095 1.7367 L 13.0633 1.77483 L 13.017 1.81294 L 12.9705 1.85102 L 12.9239 1.88909 L 12.8772 1.92713 L 12.8303 1.96515 L 12.7832 2.00315 L 12.736 2.04112 L 12.6886 2.07907 L 12.6411 2.11699 L 12.5934 2.15489 L 12.5456 2.19275 L 12.4976 2.2306 L 12.4494 2.26841 L 12.4011 2.30619 L 12.3526 2.34394 L 12.304 2.38166 L 12.2551 2.41935 L 12.2061 2.457 L 12.157 2.49462 L 12.1076 2.53221 L 12.0581 2.56975 L 12.0085 2.60726 L 11.9586 2.64474 L 11.9085 2.68217 L 11.8583 2.71956 L 11.8079 2.75691 L 11.7573 2.79422 L 11.7066 2.83148 L 11.6556 2.8687 L 11.6044 2.90587 L 11.5531 2.94299 L 11.5016 2.98007 L 11.4498 3.01709 L 11.3979 3.05406 L 11.3979 3.05406 L 11.4244 3.11205 L 11.4507 3.16997 L 11.4768 3.22785 L 11.5027 3.28567 L 11.5284 3.34343 L 11.5539 3.40114 L 11.5793 3.4588 L 11.6044 3.51641 L 11.6294 3.57395 L 11.6542 3.63145 L 11.6788 3.68889 L 11.7033 3.74627 L 11.7275 3.8036 L 11.7516 3.86087 L 11.7756 3.91809 L 11.7993 3.97525 L 11.8229 4.03235 L 11.8464 4.0894 L 11.8697 4.1464 L 11.8928 4.20334 L 11.9157 4.26022 L 11.9385 4.31705 L 11.9612 4.37382 L 11.9837 4.43053 L 12.006 4.48719 L 12.0282 4.5438 L 12.0503 4.60034 L 12.0722 4.65683 L 12.0939 4.71327 L 12.1155 4.76965 L 12.137 4.82597 L 12.1583 4.88224 L 12.1795 4.93845 L 12.2006 4.99461 L 12.2215 5.05071 L 12.2423 5.10676 L 12.2629 5.16275 L 12.2835 5.21868 L 12.3038 5.27456 L 12.3241 5.33038 L 12.3442 5.38615 L 12.3642 5.44187 L 12.3841 5.49753 L 12.4039 5.55313 L 12.4235 5.60868 L 12.443 5.66417 L 12.4624 5.71961 L 12.4817 5.775 L 12.5009 5.83033 L 12.5199 5.88561 L 12.5388 5.94083 L 12.5214 5.97757 L 12.5038 6.01426 L 12.4861 6.0509 L 12.4683 6.08749 L 12.4504 6.12403 L 12.4324 6.16051 L 12.4142 6.19694 L 12.396 6.23331 L 12.3777 6.26964 L 12.3593 6.30591 L 12.3407 6.34212 L 12.3221 6.37828 L 12.3033 6.41438 L 12.2844 6.45043 L 12.2655 6.48643 L 12.2464 6.52237 L 12.2272 6.55825 L 12.2079 6.59408 L 12.1886 6.62985 L 12.1691 6.66556 L 12.1495 6.70121 L 12.1298 6.73681 L 12.1099 6.77235 L 12.09 6.80783 L 12.07 6.84326 L 12.0499 6.87862 L 11.982 6.99621 L 11.9614 7.03132 L 11.9408 7.06636 L 11.92 7.10135 L 11.8991 7.13627 L 11.8782 7.17113 L 11.8571 7.20593 L 11.8359 7.24067 L 11.8146 7.27535 L 11.7932 7.30996 L 11.7717 7.34451 L 11.7501 7.379 L 11.7285 7.41342 L 11.7067 7.44778 L 11.6848 7.48208 L 11.6628 7.51631 L 11.6407 7.55048 L 11.6185 7.58458 L 11.5962 7.61861 L 11.5738 7.65259 L 11.5513 7.68649 L 11.5288 7.72033 L 11.5061 7.7541 L 11.4833 7.78781 L 11.4604 7.82145 L 11.4374 7.85502 L 11.4143 7.88853 L 11.357 7.89975 L 11.2996 7.91089 L 11.2421 7.92197 L 11.1845 7.93297 L 11.1268 7.94389 L 11.069 7.95474 L 11.0111 7.96551 L 10.9531 7.9762 L 10.8949 7.98681 L 10.8367 7.99734 L 10.7783 8.00779 L 10.7198 8.01816 L 10.6612 8.02844 L 10.6025 8.03864 L 10.5437 8.04875 L 10.4848 8.05877 L 10.4257 8.06871 L 10.3666 8.07855 L 10.3073 8.08831 L 10.2479 8.09797 L 10.1884 8.10754 L 10.1288 8.11701 L 10.069 8.12639 L 10.0091 8.13566 L 9.94915 8.14485 L 9.88903 8.15393 L 9.82879 8.1629 L 9.76843 8.17178 L 9.70794 8.18055 L 9.64732 8.18922 L 9.58658 8.19777 L 9.52571 8.20622 L 9.46472 8.21456 L 9.40359 8.22279 L 9.34233 8.2309 L 9.28095 8.2389 L 9.21943 8.24678 L 9.15778 8.25454 L 9.09599 8.26218 L 9.03407 8.2697 L 8.97202 8.2771 L 8.90983 8.28437 L 8.8475 8.29151 L 8.78504 8.29853 L 8.72244 8.30541 L 8.65969 8.31216 L 8.59681 8.31878 L 8.53379 8.32526 L 8.47062 8.3316 L 8.40731 8.3378 L 8.34386 8.34386 L 8.34386 8.34386 L 8.3378 8.40731 L 8.3316 8.47062 L 8.32526 8.53379 L 8.31878 8.59681 L 8.31216 8.65969 L 8.30541 8.72244 L 8.29853 8.78504 L 8.29151 8.8475 L 8.28437 8.90983 L 8.2771 8.97202 L 8.2697 9.03407 L 8.26218 9.09599 L 8.25454 9.15778 L 8.24678 9.21943 L 8.2389 9.28095 L 8.2309 9.34233 L 8.22279 9.40359 L 8.21456 9.46472 L 8.20622 9.52571 L 8.19777 9.58658 L 8.18922 9.64732 L 8.18055 9.70794 L 8.17178 9.76843 L 8.1629 9.82879 L 8.15393 9.88903 L 8.14485 9.94915 L 8.13566 10.0091 L 8.12639 10.069 L 8.11701 10.1288 L 8.10754 10.1884 L 8.09797 10.2479 L 8.08831 10.3073 L 8.07855 10.3666 L 8.06871 10.4257 L 8.05877 10.4848 L 8.04875 10.5437 L 8.03864 10.6025 L 8.02844 10.6612 L 8.01816 10.7198 L 8.00779 10.7783 L 7.99734 10.8367 L 7.98681 10.8949 L 7.9762 10.9531 L 7.96551 11.0111 L 7.95474 11.069 L 7.94389 11.1268 L 7.93297 11.1845 L 7.92197 11.2421 L 7.91089 11.2996 L 7.89975 11.357 L 7.88853 11.4143 L 7.85502 11.4374 L 7.82145 11.4604 L 7.78781 11.4833 L 7.7541 11.5061 L 7.72033 11.5288 L 7.68649 11.5513 L 7.65259 11.5738 L 7.61861 11.5962 L 7.58458 11.6185 L 7.55048 11.6407 L 7.51631 11.6628 L 7.48208 11.6848 L 7.44778 11.7067 L 7.41342 11.7285 L 7.379 11.7501 L 7.34451 11.7717 L 7.30996 11.7932 L 7.27535 11.8146 L 7.24067 11.8359 L 7.20593 11.8571 L 7.17113 11.8782 L 7.13627 11.8991 L 7.10135 11.92 L 7.06636 11.9408 L 7.03132 11.9614 L 6.99621 11.982 L 6.87862 12.0499 L 6.84326 12.07 L 6.80783 12.09 L 6.77235 12.1099 L 6.73681 12.1298 L 6.70121 12.1495 L 6.66556 12.1691 L 6.62985 12.1886 L 6.59408 12.2079 L 6.55825 12.2272 L 6.52237 12.2464 L 6.48643 12.2655 L 6.45043 12.2844 L 6.41438 12.3033 L 6.37828 12.3221 L 6.34212 12.3407 L 6.30591 12.3593 L 6.26964 12.3777 L 6.23331 12.396 L 6.19694 12.4142 L 6.16051 12.4324 L 6.12403 12.4504 L 6.08749 12.4683 L 6.0509 12.4861 L 6.01426 12.5038 L 5.97757 12.5214 L 5.94083 12.5388 L 5.88561 12.5199 L 5.83033 12.5009 L 5.775 12.4817 L 5.71961 12.4624 L 5.66417 12.443 L 5.60868 12.4235 L 5.55313 12.4039 L 5.49753 12.3841 L 5.44187 12.3642 L 5.38615 12.3442 L 5.33038 12.3241 L 5.27456 12.3038 L 5.21868 12.2835 L 5.16275 12.2629 L 5.10676 12.2423 L 5.05071 12.2215 L 4.99461 12.2006 L 4.93845 12.1795 L 4.88224 12.1583 L 4.82597 12.137 L 4.76965 12.1155 L 4.71327 12.0939 L 4.65683 12.0722 L 4.60034 12.0503 L 4.5438 12.0282 L 4.48719 12.006 L 4.43053 11.9837 L 4.37382 11.9612 L 4.31705 11.9385 L 4.26022 11.9157 L 4.20334 11.8928 L 4.1464 11.8697 L 4.0894 11.8464 L 4.03235 11.8229 L 3.97525 11.7993 L 3.91809 11.7756 L 3.86087 11.7516 L 3.8036 11.7275 L 3.74627 11.7033 L 3.68889 11.6788 L 3.63145 11.6542 L 3.57395 11.6294 L 3.51641 11.6044 L 3.4588 11.5793 L 3.40114 11.5539 L 3.34343 11.5284 L 3.28567 11.5027 L 3.22785 11.4768 L 3.16997 11.4507 L 3.11205 11.4244 L 3.05406 11.3979 L 3.05406 11.3979 L 3.01709 11.4498 L 2.98007 11.5016 L 2.94299 11.5531 L 2.90587 11.6044 L 2.8687 11.6556 L 2.83148 11.7066 L 2.79422 11.7573 L 2.75691 11.8079 L 2.71956 11.8583 L 2.68217 11.9085 L 2.64474 11.9586 L 2.60726 12.0085 L 2.56975 12.0581 L 2.53221 12.1076 L 2.49462 12.157 L 2.457 12.2061 L 2.41935 12.2551 L 2.38166 12.304 L 2.34394 12.3526 L 2.30619 12.4011 L 2.26841 12.4494 L 2.2306 12.4976 L 2.19275 12.5456 L 2.15489 12.5934 L 2.11699 12.6411 L 2.07907 12.6886 L 2.04112 12.736 L 2.00315 12.7832 L 1.96515 12.8303 L 1.92713 12.8772 L 1.88909 12.9239 L 1.85102 12.9705 L 1.81294 13.017 L 1.77483 13.0633 L 1.7367 13.1095 L 1.69856 13.1555 L 1.6604 13.2014 L 1.62221 13.2471 L 1.58402 13.2927 L 1.5458 13.3382 L 1.50757 13.3835 L 1.46932 13.4287 L 1.43106 13.4737 L 1.39279 13.5186 L 1.3545 13.5634 L 1.3162 13.6081 L 1.27788 13.6526 L 1.23955 13.697 L 1.20121 13.7412 L 1.16286 13.7854 L 1.1245 13.8294 L 1.08395 13.8326 L 1.04338 13.8357 L 1.0028 13.8387 L 0.962219 13.8416 L 0.921627 13.8444 L 0.881027 13.847 L 0.840419 13.8495 L 0.799804 13.8519 L 0.759182 13.8542 L 0.718553 13.8564 L 0.677918 13.8584 L 0.637278 13.8604 L 0.596632 13.8622 L 0.555981 13.8639 L 0.515325 13.8654 L 0.474664 13.8669 L 0.434 13.8682 L 0.393332 13.8694 L 0.35266 13.8705 L 0.311986 13.8715 L 0.271308 13.8723 L 0.230629 13.8731 L 0.189947 13.8737 L 0.149264 13.8742 L 0.108579 13.8746 L 0.067894 13.8748 L -0.067894 13.8748 L -0.108579 13.8746 L -0.149264 13.8742 L -0.189947 13.8737 L -0.230629 13.8731 L -0.271308 13.8723 L -0.311986 13.8715 L -0.35266 13.8705 L -0.393332 13.8694 L -0.434 13.8682 L -0.474664 13.8669 L -0.515325 13.8654 L -0.555981 13.8639 L -0.596632 13.8622 L -0.637278 13.8604 L -0.677918 13.8584 L -0.718553 13.8564 L -0.759182 13.8542 L -0.799804 13.8519 L -0.840419 13.8495 L -0.881027 13.847 L -0.921627 13.8444 L -0.962219 13.8416 L -1.0028 13.8387 L -1.04338 13.8357 L -1.08395 13.8326 L -1.1245 13.8294 L -1.16286 13.7854 L -1.20121 13.7412 L -1.23955 13.697 L -1.27788 13.6526 L -1.3162 13.6081 L -1.3545 13.5634 L -1.39279 13.5186 L -1.43106 13.4737 L -1.46932 13.4287 L -1.50757 13.3835 L -1.5458 13.3382 L -1.58402 13.2927 L -1.62221 13.2471 L -1.6604 13.2014 L -1.69856 13.1555 L -1.7367 13.1095 L -1.77483 13.0633 L -1.81294 13.017 L -1.85102 12.9705 L -1.88909 12.9239 L -1.92713 12.8772 L -1.96515 12.8303 L -2.00315 12.7832 L -2.04112 12.736 L -2.07907 12.6886 L -2.11699 12.6411 L -2.15489 12.5934 L -2.19275 12.5456 L -2.2306 12.4976 L -2.26841 12.4494 L -2.30619 12.4011 L -2.34394 12.3526 L -2.38166 12.304 L -2.41935 12.2551 L -2.457 12.2061 L -2.49462 12.157 L -2.53221 12.1076 L -2.56975 12.0581 L -2.60726 12.0085 L -2.64474 11.9586 L -2.68217 11.9085 L -2.71956 11.8583 L -2.75691 11.8079 L -2.79422 11.7573 L -2.83148 11.7066 L -2.8687 11.6556 L -2.90587 11.6044 L -2.94299 11.5531 L -2.98007 11.5016 L -3.01709 11.4498 L -3.05406 11.3979 L -3.05406 11.3979 L -3.11205 11.4244 L -3.16997 11.4507 L -3.22785 11.4768 L -3.28567 11.5027 L -3.34343 11.5284 L -3.40114 11.5539 L -3.4588 11.5793 L -3.51641 11.6044 L -3.57395 11.6294 L -3.63145 11.6542 L -3.68889 11.6788 L -3.74627 11.7033 L -3.8036 11.7275 L -3.86087 11.7516 L -3.91809 11.7756 L -3.97525 11.7993 L -4.03235 11.8229 L -4.0894 11.8464 L -4.1464 11.8697 L -4.20334 11.8928 L -4.26022 11.9157 L -4.31705 11.9385 L -4.37382 11.9612 L -4.43053 11.9837 L -4.48719 12.006 L -4.5438 12.0282 L -4.60034 12.0503 L -4.65683 12.0722 L -4.71327 12.0939 L -4.76965 12.1155 L -4.82597 12.137 L -4.88224 12.1583 L -4.93845 12.1795 L -4.99461 12.2006 L -5.05071 12.2215 L -5.10676 12.2423 L -5.16275 12.2629 L -5.21868 12.2835 L -5.27456 12.3038 L -5.33038 12.3241 L -5.38615 12.3442 L -5.44187 12.3642 L -5.49753 12.3841 L -5.55313 12.4039 L -5.60868 12.4235 L -5.66417 12.443 L -5.71961 12.4624 L -5.775 12.4817 L -5.83033 12.5009 L -5.88561 12.5199 L -5.94083 12.5388 L -5.97757 12.5214 L -6.01426 12.5038 L -6.0509 12.4861 L -6.08749 12.4683 L -6.12403 12.4504 L -6.16051 12.4324 L -6.19694 12.4142 L -6.23331 12.396 L -6.26964 12.3777 L -6.30591 12.3593 L -6.34212 12.3407 L -6.37828 12.3221 L -6.41438 12.3033 L -6.45043 12.2844 L -6.48643 12.2655 L -6.52237 12.2464 L -6.55825 12.2272 L -6.59408 12.2079 L -6.62985 12.1886 L -6.66556 12.1691 L -6.70121 12.1495 L -6.73681 12.1298 L -6.77235 12.1099 L -6.80783 12.09 L -6.84326 12.07 L -6.87862 12.0499 L -6.99621 11.982 L -7.03132 11.9614 L -7.06636 11.9408 L -7.10135 11.92 L -7.13627 11.8991 L -7.17113 11.8782 L -7.20593 11.8571 L -7.24067 11.8359 L -7.27535 11.8146 L -7.30996 11.7932 L -7.34451 11.7717 L -7.379 11.7501 L -7.41342 11.7285 L -7.44778 11.7067 L -7.48208 11.6848 L -7.51631 11.6628 L -7.55048 11.6407 L -7.58458 11.6185 L -7.61861 11.5962 L -7.65259 11.5738 L -7.68649 11.5513 L -7.72033 11.5288 L -7.7541 11.5061 L -7.78781 11.4833 L -7.82145 11.4604 L -7.85502 11.4374 L -7.88853 11.4143 L -7.89975 11.357 L -7.91089 11.2996 L -7.92197 11.2421 L -7.93297 11.1845 L -7.94389 11.1268 L -7.95474 11.069 L -7.96551 11.0111 L -7.9762 10.9531 L -7.98681 10.8949 L -7.99734 10.8367 L -8.00779 10.7783 L -8.01816 10.7198 L -8.02844 10.6612 L -8.03864 10.6025 L -8.04875 10.5437 L -8.05877 10.4848 L -8.06871 10.4257 L -8.07855 10.3666 L -8.08831 10.3073 L -8.09797 10.2479 L -8.10754 10.1884 L -8.11701 10.1288 L -8.12639 10.069 L -8.13566 10.0091 L -8.14485 9.94915 L -8.15393 9.88903 L -8.1629 9.82879 L -8.17178 9.76843 L -8.18055 9.70794 L -8.18922 9.64732 L -8.19777 9.58658 L -8.20622 9.52571 L -8.21456 9.46472 L -8.22279 9.40359 L -8.2309 9.34233 L -8.2389 9.28095 L -8.24678 9.21943 L -8.25454 9.15778 L -8.26218 9.09599 L -8.2697 9.03407 L -8.2771 8.97202 L -8.28437 8.90983 L -8.29151 8.8475 L -8.29853 8.78504 L -8.30541 8.72244 L -8.31216 8.65969 L -8.31878 8.59681 L -8.32526 8.53379 L -8.3316 8.47062 L -8.3378 8.40731 L -8.34386 8.34386 L -8.34386 8.34386 L -8.40731 8.3378 L -8.47062 8.3316 L -8.53379 8.32526 L -8.59681 8.31878 L -8.65969 8.31216 L -8.72244 8.30541 L -8.78504 8.29853 L -8.8475 8.29151 L -8.90983 8.28437 L -8.97202 8.2771 L -9.03407 8.2697 L -9.09599 8.26218 L -9.15778 8.25454 L -9.21943 8.24678 L -9.28095 8.2389 L -9.34233 8.2309 L -9.40359 8.22279 L -9.46472 8.21456 L -9.52571 8.20622 L -9.58658 8.19777 L -9.64732 8.18922 L -9.70794 8.18055 L -9.76843 8.17178 L -9.82879 8.1629 L -9.88903 8.15393 L -9.94915 8.14485 L -10.0091 8.13566 L -10.069 8.12639 L -10.1288 8.11701 L -10.1884 8.10754 L -10.2479 8.09797 L -10.3073 8.08831 L -10.3666 8.07855 L -10.4257 8.06871 L -10.4848 8.05877 L -10.5437 8.04875 L -10.6025 8.03864 L -10.6612 8.02844 L -10.7198 8.01816 L -10.7783 8.00779 L -10.8367 7.99734 L -10.8949 7.98681 L -10.9531 7.9762 L -11.0111 7.96551 L -11.069 7.95474 L -11.1268 7.94389 L -11.1845 7.93297 L -11.2421 7.92197 L -11.2996 7.91089 L -11.357 7.89975 L -11.4143 7.88853 L -11.4374 7.85502 L -11.4604 7.82145 L -11.4833 7.78781 L -11.5061 7.7541 L -11.5288 7.72033 L -11.5513 7.68649 L -11.5738 7.65259 L -11.5962 7.61861 L -11.6185 7.58458 L -11.6407 7.55048 L -11.6628 7.51631 L -11.6848 7.48208 L -11.7067 7.44778 L -11.7285 7.41342 L -11.7501 7.379 L -11.7717 7.34451 L -11.7932 7.30996 L -11.8146 7.27535 L -11.8359 7.24067 L -11.8571 7.20593 L -11.8782 7.17113 L -11.8991 7.13627 L -11.92 7.10135 L -11.9408 7.06636 L -11.9614 7.03132 L -11.982 6.99621 L -12.0499 6.87862 L -12.07 6.84326 L -12.09 6.80783 L -12.1099 6.77235 L -12.1298 6.73681 L -12.1495 6.70121 L -12.1691 6.66556 L -12.1886 6.62985 L -12.2079 6.59408 L -12.2272 6.55825 L -12.2464 6.52237 L -12.2655 6.48643 L -12.2844 6.45043 L -12.3033 6.41438 L -12.3221 6.37828 L -12.3407 6.34212 L -12.3593 6.30591 L -12.3777 6.26964 L -12.396 6.23331 L -12.4142 6.19694 L -12.4324 6.16051 L -12.4504 6.12403 L -12.4683 6.08749 L -12.4861 6.0509 L -12.5038 6.01426 L -12.5214 5.97757 L -12.5388 5.94083 L -12.5199 5.88561 L -12.5009 5.83033 L -12.4817 5.775 L -12.4624 5.71961 L -12.443 5.66417 L -12.4235 5.60868 L -12.4039 5.55313 L -12.3841 5.49753 L -12.3642 5.44187 L -12.3442 5.38615 L -12.3241 5.33038 L -12.3038 5.27456 L -12.2835 5.21868 L -12.2629 5.16275 L -12.2423 5.10676 L -12.2215 5.05071 L -12.2006 4.99461 L -12.1795 4.93845 L -12.1583 4.88224 L -12.137 4.82597 L -12.1155 4.76965 L -12.0939 4.71327 L -12.0722 4.65683 L -12.0503 4.60034 L -12.0282 4.5438 L -12.006 4.48719 L -11.9837 4.43053 L -11.9612 4.37382 L -11.9385 4.31705 L -11.9157 4.26022 L -11.8928 4.20334 L -11.8697 4.1464 L -11.8464 4.0894 L -11.8229 4.03235 L -11.7993 3.97525 L -11.7756 3.91809 L -11.7516 3.86087 L -11.7275 3.8036 L -11.7033 3.74627 L -11.6788 3.68889 L -11.6542 3.63145 L -11.6294 3.57395 L -11.6044 3.51641 L -11.5793 3.4588 L -11.5539 3.40114 L -11.5284 3.34343 L -11.5027 3.28567 L -11.4768 3.22785 L -11.4507 3.16997 L -11.4244 3.11205 L -11.3979 3.05406 L -11.3979 3.05406 L -11.4498 3.01709 L -11.5016 2.98007 L -11.5531 2.94299 L -11.6044 2.90587 L -11.6556 2.8687 L -11.7066 2.83148 L -11.7573 2.79422 L -11.8079 2.75691 L -11.8583 2.71956 L -11.9085 2.68217 L -11.9586 2.64474 L -12.0085 2.60726 L -12.0581 2.56975 L -12.1076 2.53221 L -12.157 2.49462 L -12.2061 2.457 L -12.2551 2.41935 L -12.304 2.38166 L -12.3526 2.34394 L -12.4011 2.30619 L -12.4494 2.26841 L -12.4976 2.2306 L -12.5456 2.19275 L -12.5934 2.15489 L -12.6411 2.11699 L -12.6886 2.07907 L -12.736 2.04112 L -12.7832 2.00315 L -12.8303 1.96515 L -12.8772 1.92713 L -12.9239 1.88909 L -12.9705 1.85102 L -13.017 1.81294 L -13.0633 1.77483 L -13.1095 1.7367 L -13.1555 1.69856 L -13.2014 1.6604 L -13.2471 1.62221 L -13.2927 1.58402 L -13.3382 1.5458 L -13.3835 1.50757 L -13.4287 1.46932 L -13.4737 1.43106 L -13.5186 1.39279 L -13.5634 1.3545 L -13.6081 1.3162 L -13.6526 1.27788 L -13.697 1.23955 L -13.7412 1.20121 L -13.7854 1.16286 L -13.8294 1.1245 L -13.8326 1.08395 L -13.8357 1.04338 L -13.8387 1.0028 L -13.8416 0.962219 L -13.8444 0.921627 L -13.847 0.881027 L -13.8495 0.840419 L -13.8519 0.799804 L -13.8542 0.759182 L -13.8564 0.718553 L -13.8584 0.677918 L -13.8604 0.637278 L -13.8622 0.596632 L -13.8639 0.555981 L -13.8654 0.515325 L -13.8669 0.474664 L -13.8682 0.434 L -13.8694 0.393332 L -13.8705 0.35266 L -13.8715 0.311986 L -13.8723 0.271308 L -13.8731 0.230629 L -13.8737 0.189947 L -13.8742 0.149264 L -13.8746 0.108579 L -13.8748 0.067894 L -13.8748 -0.067894 L -13.8746 -0.108579 L -13.8742 -0.149264 L -13.8737 -0.189947 L -13.8731 -0.230629 L -13.8723 -0.271308 L -13.8715 -0.311986 L -13.8705 -0.35266 L -13.8694 -0.393332 L -13.8682 -0.434 L -13.8669 -0.474664 L -13.8654 -0.515325 L -13.8639 -0.555981 L -13.8622 -0.596632 L -13.8604 -0.637278 L -13.8584 -0.677918 L -13.8564 -0.718553 L -13.8542 -0.759182 L -13.8519 -0.799804 L -13.8495 -0.840419 L -13.847 -0.881027 L -13.8444 -0.921627 L -13.8416 -0.962219 L -13.8387 -1.0028 L -13.8357 -1.04338 L -13.8326 -1.08395 L -13.8294 -1.1245 L -13.7854 -1.16286 L -13.7412 -1.20121 L -13.697 -1.23955 L -13.6526 -1.27788 L -13.6081 -1.3162 L -13.5634 -1.3545 L -13.5186 -1.39279 L -13.4737 -1.43106 L -13.4287 -1.46932 L -13.3835 -1.50757 L -13.3382 -1.5458 L -13.2927 -1.58402 L -13.2471 -1.62221 L -13.2014 -1.6604 L -13.1555 -1.69856 L -13.1095 -1.7367 L -13.0633 -1.77483 L -13.017 -1.81294 L -12.9705 -1.85102 L -12.9239 -1.88909 L -12.8772 -1.92713 L -12.8303 -1.96515 L -12.7832 -2.00315 L -12.736 -2.04112 L -12.6886 -2.07907 L -12.6411 -2.11699 L -12.5934 -2.15489 L -12.5456 -2.19275 L -12.4976 -2.2306 L -12.4494 -2.26841 L -12.4011 -2.30619 L -12.3526 -2.34394 L -12.304 -2.38166 L -12.2551 -2.41935 L -12.2061 -2.457 L -12.157 -2.49462 L -12.1076 -2.53221 L -12.0581 -2.56975 L -12.0085 -2.60726 L -11.9586 -2.64474 L -11.9085 -2.68217 L -11.8583 -2.71956 L -11.8079 -2.75691 L -11.7573 -2.79422 L -11.7066 -2.83148 L -11.6556 -2.8687 L -11.6044 -2.90587 L -11.5531 -2.94299 L -11.5016 -2.98007 L -11.4498 -3.01709 L -11.3979 -3.05406 L -11.3979 -3.05406 L -11.4244 -3.11205 L -11.4507 -3.16997 L -11.4768 -3.22785 L -11.5027 -3.28567 L -11.5284 -3.34343 L -11.5539 -3.40114 L -11.5793 -3.4588 L -11.6044 -3.51641 L -11.6294 -3.57395 L -11.6542 -3.63145 L -11.6788 -3.68889 L -11.7033 -3.74627 L -11.7275 -3.8036 L -11.7516 -3.86087 L -11.7756 -3.91809 L -11.7993 -3.97525 L -11.8229 -4.03235 L -11.8464 -4.0894 L -11.8697 -4.1464 L -11.8928 -4.20334 L -11.9157 -4.26022 L -11.9385 -4.31705 L -11.9612 -4.37382 L -11.9837 -4.43053 L -12.006 -4.48719 L -12.0282 -4.5438 L -12.0503 -4.60034 L -12.0722 -4.65683 L -12.0939 -4.71327 L -12.1155 -4.76965 L -12.137 -4.82597 L -12.1583 -4.88224 L -12.1795 -4.93845 L -12.2006 -4.99461 L -12.2215 -5.05071 L -12.2423 -5.10676 L -12.2629 -5.16275 L -12.2835 -5.21868 L -12.3038 -5.27456 L -12.3241 -5.33038 L -12.3442 -5.38615 L -12.3642 -5.44187 L -12.3841 -5.49753 L -12.4039 -5.55313 L -12.4235 -5.60868 L -12.443 -5.66417 L -12.4624 -5.71961 L -12.4817 -5.775 L -12.5009 -5.83033 L -12.5199 -5.88561 L -12.5388 -5.94083 L -12.5214 -5.97757 L -12.5038 -6.01426 L -12.4861 -6.0509 L -12.4683 -6.08749 L -12.4504 -6.12403 L -12.4324 -6.16051 L -12.4142 -6.19694 L -12.396 -6.23331 L -12.3777 -6.26964 L -12.3593 -6.30591 L -12.3407 -6.34212 L -12.3221 -6.37828 L -12.3033 -6.41438 L -12.2844 -6.45043 L -12.2655 -6.48643 L -12.2464 -6.52237 L -12.2272 -6.55825 L -12.2079 -6.59408 L -12.1886 -6.62985 L -12.1691 -6.66556 L -12.1495 -6.70121 L -12.1298 -6.73681 L -12.1099 -6.77235 L -12.09 -6.80783 L -12.07 -6.84326 L -12.0499 -6.87862 L -11.982 -6.99621 L -11.9614 -7.03132 L -11.9408 -7.06636 L -11.92 -7.10135 L -11.8991 -7.13627 L -11.8782 -7.17113 L -11.8571 -7.20593 L -11.8359 -7.24067 L -11.8146 -7.27535 L -11.7932 -7.30996 L -11.7717 -7.34451 L -11.7501 -7.379 L -11.7285 -7.41342 L -11.7067 -7.44778 L -11.6848 -7.48208 L -11.6628 -7.51631 L -11.6407 -7.55048 L -11.6185 -7.58458 L -11.5962 -7.61861 L -11.5738 -7.65259 L -11.5513 -7.68649 L -11.5288 -7.72033 L -11.5061 -7.7541 L -11.4833 -7.78781 L -11.4604 -7.82145 L -11.4374 -7.85502 L -11.4143 -7.88853 L -11.357 -7.89975 L -11.2996 -7.91089 L -11.2421 -7.92197 L -11.1845 -7.93297 L -11.1268 -7.94389 L -11.069 -7.95474 L -11.0111 -7.96551 L -10.9531 -7.9762 L -10.8949 -7.98681 L -10.8367 -7.99734 L -10.7783 -8.00779 L -10.7198 -8.01816 L -10.6612 -8.02844 L -10.6025 -8.03864 L -10.5437 -8.04875 L -10.4848 -8.05877 L -10.4257 -8.06871 L -10.3666 -8.07855 L -10.3073 -8.08831 L -10.2479 -8.09797 L -10.1884 -8.10754 L -10.1288 -8.11701 L -10.069 -8.12639 L -10.0091 -8.13566 L -9.94915 -8.14485 L -9.88903 -8.15393 L -9.82879 -8.1629 L -9.76843 -8.17178 L -9.70794 -8.18055 L -9.64732 -8.18922 L -9.58658 -8.19777 L -9.52571 -8.20622 L -9.46472 -8.21456 L -9.40359 -8.22279 L -9.34233 -8.2309 L -9.28095 -8.2389 L -9.21943 -8.24678 L -9.15778 -8.25454 L -9.09599 -8.26218 L -9.03407 -8.2697 L -8.97202 -8.2771 L -8.90983 -8.28437 L -8.8475 -8.29151 L -8.78504 -8.29853 L -8.72244 -8.30541 L -8.65969 -8.31216 L -8.59681 -8.31878 L -8.53379 -8.32526 L -8.47062 -8.3316 L -8.40731 -8.3378 L -8.34386 -8.34386 L -8.34386 -8.34386 L -8.3378 -8.40731 L -8.3316 -8.47062 L -8.32526 -8.53379 L -8.31878 -8.59681 L -8.31216 -8.65969 L -8.30541 -8.72244 L -8.29853 -8.78504 L -8.29151 -8.8475 L -8.28437 -8.90983 L -8.2771 -8.97202 L -8.2697 -9.03407 L -8.26218 -9.09599 L -8.25454 -9.15778 L -8.24678 -9.21943 L -8.2389 -9.28095 L -8.2309 -9.34233 L -8.22279 -9.40359 L -8.21456 -9.46472 L -8.20622 -9.52571 L -8.19777 -9.58658 L -8.18922 -9.64732 L -8.18055 -9.70794 L -8.17178 -9.76843 L -8.1629 -9.82879 L -8.15393 -9.88903 L -8.14485 -9.94915 L -8.13566 -10.0091 L -8.12639 -10.069 L -8.11701 -10.1288 L -8.10754 -10.1884 L -8.09797 -10.2479 L -8.08831 -10.3073 L -8.07855 -10.3666 L -8.06871 -10.4257 L -8.05877 -10.4848 L -8.04875 -10.5437 L -8.03864 -10.6025 L -8.02844 -10.6612 L -8.01816 -10.7198 L -8.00779 -10.7783 L -7.99734 -10.8367 L -7.98681 -10.8949 L -7.9762 -10.9531 L -7.96551 -11.0111 L -7.95474 -11.069 L -7.94389 -11.1268 L -7.93297 -11.1845 L -7.92197 -11.2421 L -7.91089 -11.2996 L -7.89975 -11.357 L -7.88853 -11.4143 L -7.85502 -11.4374 L -7.82145 -11.4604 L -7.78781 -11.4833 L -7.7541 -11.5061 L -7.72033 -11.5288 L -7.68649 -11.5513 L -7.65259 -11.5738 L -7.61861 -11.5962 L -7.58458 -11.6185 L -7.55048 -11.6407 L -7.51631 -11.6628 L -7.48208 -11.6848 L -7.44778 -11.7067 L -7.41342 -11.7285 L -7.379 -11.7501 L -7.34451 -11.7717 L -7.30996 -11.7932 L -7.27535 -11.8146 L -7.24067 -11.8359 L -7.20593 -11.8571 L -7.17113 -11.8782 L -7.13627 -11.8991 L -7.10135 -11.92 L -7.06636 -11.9408 L -7.03132 -11.9614 L -6.99621 -11.982 L -6.87862 -12.0499 L -6.84326 -12.07 L -6.80783 -12.09 L -6.77235 -12.1099 L -6.73681 -12.1298 L -6.70121 -12.1495 L -6.66556 -12.1691 L -6.62985 -12.1886 L -6.59408 -12.2079 L -6.55825 -12.2272 L -6.52237 -12.2464 L -6.48643 -12.2655 L -6.45043 -12.2844 L -6.41438 -12.3033 L -6.37828 -12.3221 L -6.34212 -12.3407 L -6.30591 -12.3593 L -6.26964 -12.3777 L -6.23331 -12.396 L -6.19694 -12.4142 L -6.16051 -12.4324 L -6.12403 -12.4504 L -6.08749 -12.4683 L -6.0509 -12.4861 L -6.01426 -12.5038 L -5.97757 -12.5214 L -5.94083 -12.5388 L -5.88561 -12.5199 L -5.83033 -12.5009 L -5.775 -12.4817 L -5.71961 -12.4624 L -5.66417 -12.443 L -5.60868 -12.4235 L -5.55313 -12.4039 L -5.49753 -12.3841 L -5.44187 -12.3642 L -5.38615 -12.3442 L -5.33038 -12.3241 L -5.27456 -12.3038 L -5.21868 -12.2835 L -5.16275 -12.2629 L -5.10676 -12.2423 L -5.05071 -12.2215 L -4.99461 -12.2006 L -4.93845 -12.1795 L -4.88224 -12.1583 L -4.82597 -12.137 L -4.76965 -12.1155 L -4.71327 -12.0939 L -4.65683 -12.0722 L -4.60034 -12.0503 L -4.5438 -12.0282 L -4.48719 -12.006 L -4.43053 -11.9837 L -4.37382 -11.9612 L -4.31705 -11.9385 L -4.26022 -11.9157 L -4.20334 -11.8928 L -4.1464 -11.8697 L -4.0894 -11.8464 L -4.03235 -11.8229 L -3.97525 -11.7993 L -3.91809 -11.7756 L -3.86087 -11.7516 L -3.8036 -11.7275 L -3.74627 -11.7033 L -3.68889 -11.6788 L -3.63145 -11.6542 L -3.57395 -11.6294 L -3.51641 -11.6044 L -3.4588 -11.5793 L -3.40114 -11.5539 L -3.34343 -11.5284 L -3.28567 -11.5027 L -3.22785 -11.4768 L -3.16997 -11.4507 L -3.11205 -11.4244 L -3.05406 -11.3979 L -3.05406 -11.3979 L -3.01709 -11.4498 L -2.98007 -11.5016 L -2.94299 -11.5531 L -2.90587 -11.6044 L -2.8687 -11.6556 L -2.83148 -11.7066 L -2.79422 -11.7573 L -2.75691 -11.8079 L -2.71956 -11.8583 L -2.68217 -11.9085 L -2.64474 -11.9586 L -2.60726 -12.0085 L -2.56975 -12.0581 L -2.53221 -12.1076 L -2.49462 -12.157 L -2.457 -12.2061 L -2.41935 -12.2551 L -2.38166 -12.304 L -2.34394 -12.3526 L -2.30619 -12.4011 L -2.26841 -12.4494 L -2.2306 -12.4976 L -2.19275 -12.5456 L -2.15489 -12.5934 L -2.11699 -12.6411 L -2.07907 -12.6886 L -2.04112 -12.736 L -2.00315 -12.7832 L -1.96515 -12.8303 L -1.92713 -12.8772 L -1.88909 -12.9239 L -1.85102 -12.9705 L -1.81294 -13.017 L -1.77483 -13.0633 L -1.7367 -13.1095 L -1.69856 -13.1555 L -1.6604 -13.2014 L -1.62221 -13.2471 L -1.58402 -13.2927 L -1.5458 -13.3382 L -1.50757 -13.3835 L -1.46932 -13.4287 L -1.43106 -13.4737 L -1.39279 -13.5186 L -1.3545 -13.5634 L -1.3162 -13.6081 L -1.27788 -13.6526 L -1.23955 -13.697 L -1.20121 -13.7412 L -1.16286 -13.7854 L -1.1245 -13.8294 L -1.08395 -13.8326 L -1.04338 -13.8357 L -1.0028 -13.8387 L -0.962219 -13.8416 L -0.921627 -13.8444 L -0.881027 -13.847 L -0.840419 -13.8495 L -0.799804 -13.8519 L -0.759182 -13.8542 L -0.718553 -13.8564 L -0.677918 -13.8584 L -0.637278 -13.8604 L -0.596632 -13.8622 L -0.555981 -13.8639 L -0.515325 -13.8654 L -0.474664 -13.8669 L -0.434 -13.8682 L -0.393332 -13.8694 L -0.35266 -13.8705 L -0.311986 -13.8715 L -0.271308 -13.8723 L -0.230629 -13.8731 L -0.189947 -13.8737 L -0.149264 -13.8742 L -0.108579 -13.8746 L -0.067894 -13.8748 L 0.067894 -13.8748 L 0.108579 -13.8746 L 0.149264 -13.8742 L 0.189947 -13.8737 L 0.230629 -13.8731 L 0.271308 -13.8723 L 0.311986 -13.8715 L 0.35266 -13.8705 L 0.393332 -13.8694 L 0.434 -13.8682 L 0.474664 -13.8669 L 0.515325 -13.8654 L 0.555981 -13.8639 L 0.596632 -13.8622 L 0.637278 -13.8604 L 0.677918 -13.8584 L 0.718553 -13.8564 L 0.759182 -13.8542 L 0.799804 -13.8519 L 0.840419 -13.8495 L 0.881027 -13.847 L 0.921627 -13.8444 L 0.962219 -13.8416 L 1.0028 -13.8387 L 1.04338 -13.8357 L 1.08395 -13.8326 L 1.1245 -13.8294 L 1.16286 -13.7854 L 1.20121 -13.7412 L 1.23955 -13.697 L 1.27788 -13.6526 L 1.3162 -13.6081 L 1.3545 -13.5634 L 1.39279 -13.5186 L 1.43106 -13.4737 L 1.46932 -13.4287 L 1.50757 -13.3835 L 1.5458 -13.3382 L 1.58402 -13.2927 L 1.62221 -13.2471 L 1.6604 -13.2014 L 1.69856 -13.1555 L 1.7367 -13.1095 L 1.77483 -13.0633 L 1.81294 -13.017 L 1.85102 -12.9705 L 1.88909 -12.9239 L 1.92713 -12.8772 L 1.96515 -12.8303 L 2.00315 -12.7832 L 2.04112 -12.736 L 2.07907 -12.6886 L 2.11699 -12.6411 L 2.15489 -12.5934 L 2.19275 -12.5456 L 2.2306 -12.4976 L 2.26841 -12.4494 L 2.30619 -12.4011 L 2.34394 -12.3526 L 2.38166 -12.304 L 2.41935 -12.2551 L 2.457 -12.2061 L 2.49462 -12.157 L 2.53221 -12.1076 L 2.56975 -12.0581 L 2.60726 -12.0085 L 2.64474 -11.9586 L 2.68217 -11.9085 L 2.71956 -11.8583 L 2.75691 -11.8079 L 2.79422 -11.7573 L 2.83148 -11.7066 L 2.8687 -11.6556 L 2.90587 -11.6044 L 2.94299 -11.5531 L 2.98007 -11.5016 L 3.01709 -11.4498 L 3.05406 -11.3979 L 3.05406 -11.3979 L 3.11205 -11.4244 L 3.16997 -11.4507 L 3.22785 -11.4768 L 3.28567 -11.5027 L 3.34343 -11.5284 L 3.40114 -11.5539 L 3.4588 -11.5793 L 3.51641 -11.6044 L 3.57395 -11.6294 L 3.63145 -11.6542 L 3.68889 -11.6788 L 3.74627 -11.7033 L 3.8036 -11.7275 L 3.86087 -11.7516 L 3.91809 -11.7756 L 3.97525 -11.7993 L 4.03235 -11.8229 L 4.0894 -11.8464 L 4.1464 -11.8697 L 4.20334 -11.8928 L 4.26022 -11.9157 L 4.31705 -11.9385 L 4.37382 -11.9612 L 4.43053 -11.9837 L 4.48719 -12.006 L 4.5438 -12.0282 L 4.60034 -12.0503 L 4.65683 -12.0722 L 4.71327 -12.0939 L 4.76965 -12.1155 L 4.82597 -12.137 L 4.88224 -12.1583 L 4.93845 -12.1795 L 4.99461 -12.2006 L 5.05071 -12.2215 L 5.10676 -12.2423 L 5.16275 -12.2629 L 5.21868 -12.2835 L 5.27456 -12.3038 L 5.33038 -12.3241 L 5.38615 -12.3442 L 5.44187 -12.3642 L 5.49753 -12.3841 L 5.55313 -12.4039 L 5.60868 -12.4235 L 5.66417 -12.443 L 5.71961 -12.4624 L 5.775 -12.4817 L 5.83033 -12.5009 L 5.88561 -12.5199 L 5.94083 -12.5388 L 5.97757 -12.5214 L 6.01426 -12.5038 L 6.0509 -12.4861 L 6.08749 -12.4683 L 6.12403 -12.4504 L 6.16051 -12.4324 L 6.19694 -12.4142 L 6.23331 -12.396 L 6.26964 -12.3777 L 6.30591 -12.3593 L 6.34212 -12.3407 L 6.37828 -12.3221 L 6.41438 -12.3033 L 6.45043 -12.2844 L 6.48643 -12.2655 L 6.52237 -12.2464 L 6.55825 -12.2272 L 6.59408 -12.2079 L 6.62985 -12.1886 L 6.66556 -12.1691 L 6.70121 -12.1495 L 6.73681 -12.1298 L 6.77235 -12.1099 L 6.80783 -12.09 L 6.84326 -12.07 L 6.87862 -12.0499 L 6.99621 -11.982 L 7.03132 -11.9614 L 7.06636 -11.9408 L 7.10135 -11.92 L 7.13627 -11.8991 L 7.17113 -11.8782 L 7.20593 -11.8571 L 7.24067 -11.8359 L 7.27535 -11.8146 L 7.30996 -11.7932 L 7.34451 -11.7717 L 7.379 -11.7501 L 7.41342 -11.7285 L 7.44778 -11.7067 L 7.48208 -11.6848 L 7.51631 -11.6628 L 7.55048 -11.6407 L 7.58458 -11.6185 L 7.61861 -11.5962 L 7.65259 -11.5738 L 7.68649 -11.5513 L 7.72033 -11.5288 L 7.7541 -11.5061 L 7.78781 -11.4833 L 7.82145 -11.4604 L 7.85502 -11.4374 L 7.88853 -11.4143 L 7.89975 -11.357 L 7.91089 -11.2996 L 7.92197 -11.2421 L 7.93297 -11.1845 L 7.94389 -11.1268 L 7.95474 -11.069 L 7.96551 -11.0111 L 7.9762 -10.9531 L 7.98681 -10.8949 L 7.99734 -10.8367 L 8.00779 -10.7783 L 8.01816 -10.7198 L 8.02844 -10.6612 L 8.03864 -10.6025 L 8.04875 -10.5437 L 8.05877 -10.4848 L 8.06871 -10.4257 L 8.07855 -10.3666 L 8.08831 -10.3073 L 8.09797 -10.2479 L 8.10754 -10.1884 L 8.11701 -10.1288 L 8.12639 -10.069 L 8.13566 -10.0091 L 8.14485 -9.94915 L 8.15393 -9.88903 L 8.1629 -9.82879 L 8.17178 -9.76843 L 8.18055 -9.70794 L 8.18922 -9.64732 L 8.19777 -9.58658 L 8.20622 -9.52571 L 8.21456 -9.46472 L 8.22279 -9.40359 L 8.2309 -9.34233 L 8.2389 -9.28095 L 8.24678 -9.21943 L 8.25454 -9.15778 L 8.26218 -9.09599 L 8.2697 -9.03407 L 8.2771 -8.97202 L 8.28437 -8.90983 L 8.29151 -8.8475 L 8.29853 -8.78504 L 8.30541 -8.72244 L 8.31216 -8.65969 L 8.31878 -8.59681 L 8.32526 -8.53379 L 8.3316 -8.47062 L 8.3378 -8.40731 L 8.34386 -8.34386 L 8.34386 -8.34386 L 8.40731 -8.3378 L 8.47062 -8.3316 L 8.53379 -8.32526 L 8.59681 -8.31878 L 8.65969 -8.31216 L 8.72244 -8.30541 L 8.78504 -8.29853 L 8.8475 -8.29151 L 8.90983 -8.28437 L 8.97202 -8.2771 L 9.03407 -8.2697 L 9.09599 -8.26218 L 9.15778 -8.25454 L 9.21943 -8.24678 L 9.28095 -8.2389 L 9.34233 -8.2309 L 9.40359 -8.22279 L 9.46472 -8.21456 L 9.52571 -8.20622 L 9.58658 -8.19777 L 9.64732 -8.18922 L 9.70794 -8.18055 L 9.76843 -8.17178 L 9.82879 -8.1629 L 9.88903 -8.15393 L 9.94915 -8.14485 L 10.0091 -8.13566 L 10.069 -8.12639 L 10.1288 -8.11701 L 10.1884 -8.10754 L 10.2479 -8.09797 L 10.3073 -8.08831 L 10.3666 -8.07855 L 10.4257 -8.06871 L 10.4848 -8.05877 L 10.5437 -8.04875 L 10.6025 -8.03864 L 10.6612 -8.02844 L 10.7198 -8.01816 L 10.7783 -8.00779 L 10.8367 -7.99734 L 10.8949 -7.98681 L 10.9531 -7.9762 L 11.0111 -7.96551 L 11.069 -7.95474 L 11.1268 -7.94389 L 11.1845 -7.93297 L 11.2421 -7.92197 L 11.2996 -7.91089 L 11.357 -7.89975 L 11.4143 -7.88853 L 11.4374 -7.85502 L 11.4604 -7.82145 L 11.4833 -7.78781 L 11.5061 -7.7541 L 11.5288 -7.72033 L 11.5513 -7.68649 L 11.5738 -7.65259 L 11.5962 -7.61861 L 11.6185 -7.58458 L 11.6407 -7.55048 L 11.6628 -7.51631 L 11.6848 -7.48208 L 11.7067 -7.44778 L 11.7285 -7.41342 L 11.7501 -7.379 L 11.7717 -7.34451 L 11.7932 -7.30996 L 11.8146 -7.27535 L 11.8359 -7.24067 L 11.8571 -7.20593 L 11.8782 -7.17113 L 11.8991 -7.13627 L 11.92 -7.10135 L 11.9408 -7.06636 L 11.9614 -7.03132 L 11.982 -6.99621 L 12.0499 -6.87862 L 12.07 -6.84326 L 12.09 -6.80783 L 12.1099 -6.77235 L 12.1298 -6.73681 L 12.1495 -6.70121 L 12.1691 -6.66556 L 12.1886 -6.62985 L 12.2079 -6.59408 L 12.2272 -6.55825 L 12.2464 -6.52237 L 12.2655 -6.48643 L 12.2844 -6.45043 L 12.3033 -6.41438 L 12.3221 -6.37828 L 12.3407 -6.34212 L 12.3593 -6.30591 L 12.3777 -6.26964 L 12.396 -6.23331 L 12.4142 -6.19694 L 12.4324 -6.16051 L 12.4504 -6.12403 L 12.4683 -6.08749 L 12.4861 -6.0509 L 12.5038 -6.01426 L 12.5214 -5.97757 L 12.5388 -5.94083 L 12.5199 -5.88561 L 12.5009 -5.83033 L 12.4817 -5.775 L 12.4624 -5.71961 L 12.443 -5.66417 L 12.4235 -5.60868 L 12.4039 -5.55313 L 12.3841 -5.49753 L 12.3642 -5.44187 L 12.3442 -5.38615 L 12.3241 -5.33038 L 12.3038 -5.27456 L 12.2835 -5.21868 L 12.2629 -5.16275 L 12.2423 -5.10676 L 12.2215 -5.05071 L 12.2006 -4.99461 L 12.1795 -4.93845 L 12.1583 -4.88224 L 12.137 -4.82597 L 12.1155 -4.76965 L 12.0939 -4.71327 L 12.0722 -4.65683 L 12.0503 -4.60034 L 12.0282 -4.5438 L 12.006 -4.48719 L 11.9837 -4.43053 L 11.9612 -4.37382 L 11.9385 -4.31705 L 11.9157 -4.26022 L 11.8928 -4.20334 L 11.8697 -4.1464 L 11.8464 -4.0894 L 11.8229 -4.03235 L 11.7993 -3.97525 L 11.7756 -3.91809 L 11.7516 -3.86087 L 11.7275 -3.8036 L 11.7033 -3.74627 L 11.6788 -3.68889 L 11.6542 -3.63145 L 11.6294 -3.57395 L 11.6044 -3.51641 L 11.5793 -3.4588 L 11.5539 -3.40114 L 11.5284 -3.34343 L 11.5027 -3.28567 L 11.4768 -3.22785 L 11.4507 -3.16997 L 11.4244 -3.11205 L 11.3979 -3.05406 L 11.3979 -3.05406 L 11.4498 -3.01709 L 11.5016 -2.98007 L 11.5531 -2.94299 L 11.6044 -2.90587 L 11.6556 -2.8687 L 11.7066 -2.83148 L 11.7573 -2.79422 L 11.8079 -2.75691 L 11.8583 -2.71956 L 11.9085 -2.68217 L 11.9586 -2.64474 L 12.0085 -2.60726 L 12.0581 -2.56975 L 12.1076 -2.53221 L 12.157 -2.49462 L 12.2061 -2.457 L 12.2551 -2.41935 L 12.304 -2.38166 L 12.3526 -2.34394 L 12.4011 -2.30619 L 12.4494 -2.26841 L 12.4976 -2.2306 L 12.5456 -2.19275 L 12.5934 -2.15489 L 12.6411 -2.11699 L 12.6886 -2.07907 L 12.736 -2.04112 L 12.7832 -2.00315 L 12.8303 -1.96515 L 12.8772 -1.92713 L 12.9239 -1.88909 L 12.9705 -1.85102 L 13.017 -1.81294 L 13.0633 -1.77483 L 13.1095 -1.7367 L 13.1555 -1.69856 L 13.2014 -1.6604 L 13.2471 -1.62221 L 13.2927 -1.58402 L 13.3382 -1.5458 L 13.3835 -1.50757 L 13.4287 -1.46932 L 13.4737 -1.43106 L 13.5186 -1.39279 L 13.5634 -1.3545 L 13.6081 -1.3162 L 13.6526 -1.27788 L 13.697 -1.23955 L 13.7412 -1.20121 L 13.7854 -1.16286 L 13.8294 -1.1245 L 13.8326 -1.08395 L 13.8357 -1.04338 L 13.8387 -1.0028 L 13.8416 -0.962219 L 13.8444 -0.921627 L 13.847 -0.881027 L 13.8495 -0.840419 L 13.8519 -0.799804 L 13.8542 -0.759182 L 13.8564 -0.718553 L 13.8584 -0.677918 L 13.8604 -0.637278 L 13.8622 -0.596632 L 13.8639 -0.555981 L 13.8654 -0.515325 L 13.8669 -0.474664 L 13.8682 -0.434 L 13.8694 -0.393332 L 13.8705 -0.35266 L 13.8715 -0.311986 L 13.8723 -0.271308 L 13.8731 -0.230629 L 13.8737 -0.189947 L 13.8742 -0.149264 L 13.8746 -0.108579 L 13.8748 -0.067894Z"
id="path1" />
</g>
</svg>
