<?xml version="1.0" encoding="UTF-8" standalone="no"?>
<svg version="1.1">
<g
style="fill:none;stroke:#000000;stroke-opacity:1;stroke-width:0.1">
<path d="M 14.6249 0.047964 L 14.6248 0.0843671 L 14.6245 0.12077 L 14.6242 0.157172 L 14.6237 0.193572 L 14.6232 0.229972 L 14.6226 0.26637 L 14.6219 0.302767 L 14.6211 0.339162 L 14.6202 0.375554 L 14.6192 0.411945 L 14.6181 0.448332 L 14.617 0.484717 L 14.6157 0.521099 L 14.6144 0.557478 L 14.6129 0.593853 L 14.6114 0.630225 L 14.6098 0.666593 L 14.6081 0.702956 L 14.6063 0.739316 L 14.6044 0.77567 L 14.6024 0.81202 L 14.6004 0.848365 L 14.5982 0.884704 L 14.596 0.921038 L 14.5936 0.957367 L 14.5912 0.993689 L 14.5887 1.03001 L 14.5861 1.06632 L 14.5834 1.10262 L 14.5806 1.13892 L 14.5777 1.1752 L 14.5747 1.21149 L 14.5717 1.24776 L 14.5685 1.28403 L 14.5653 1.32029 L 14.5256 1.35458 L 14.4858 1.38886 L 14.4459 1.42314 L 14.4059 1.4574 L 14.3657 1.49166 L 14.3255 1.5259 L 14.2852 1.56014 L 14.2448 1.59436 L 14.2043 1.62857 L 14.1637 1.66277 L 14.123 1.69696 L 14.0822 1.73113 L 14.0412 1.76529 L 14.0002 1.79944 L 13.959 1.83357 L 13.9178 1.86769 L 13.8764 1.9018 L 13.835 1.93589 L 13.7934 1.96996 L 13.7517 2.00402 L 13.7099 2.03806 L 13.6679 2.07209 L 13.6259 2.1061 L 13.5838 2.14009 L 13.5415 2.17406 L 13.4991 2.20801 L 13.4566 2.24195 L 13.414 2.27586 L 13.3713 2.30976 L 13.3284 2.34363 L 13.2854 2.37748 L 13.2423 2.41131 L 13.1991 2.44512 L 13.1558 2.47891 L 13.1123 2.51267 L 13.0687 2.5464 L 13.025 2.58012 L 12.9811 2.61381 L 12.9372 2.64747 L 12.893 2.6811 L 12.8488 2.71471 L 12.8044 2.74829 L 12.7599 2.78184 L 12.7153 2.81536 L 12.6705 2.84886 L 12.6256 2.88232 L 12.5806 2.91575 L 12.5354 2.94915 L 12.4901 2.98252 L 12.4446 3.01585 L 12.399 3.04915 L 12.3533 3.08241 L 12.3074 3.11564 L 12.2613 3.14883 L 12.2152 3.18199 L 12.1688 3.2151 L 12.1224 3.24818 L 12.1224 3.24818 L 12.1461 3.30006 L 12.1696 3.3519 L 12.193 3.4037 L 12.2163 3.45546 L 12.2394 3.50718 L 12.2624 3.55886 L 12.2853 3.6105 L 12.308 3.6621 L 12.3305 3.71365 L 12.353 3.76517 L 12.3753 3.81664 L 12.3974 3.86808 L 12.4194 3.91947 L 12.4413 3.97082 L 12.4631 4.02213 L 12.4847 4.07339 L 12.5063 4.12462 L 12.5276 4.1758 L 12.5489 4.22694 L 12.57 4.27804 L 12.591 4.3291 L 12.6119 4.38012 L 12.6327 4.43109 L 12.6533 4.48202 L 12.6739 4.53291 L 12.6943 4.58376 L 12.7146 4.63456 L 12.7347 4.68533 L 12.7548 4.73605 L 12.7748 4.78673 L 12.7946 4.83737 L 12.8143 4.88796 L 12.8339 4.93851 L 12.8534 4.98902 L 12.8728 5.03949 L 12.8921 5.08992 L 12.9113 5.1403 L 12.9304 5.19065 L 12.9494 5.24095 L 12.9682 5.29121 L 12.987 5.34142 L 13.0057 5.3916 L 13.0242 5.44173 L 13.0427 5.49182 L 13.0611 5.54187 L 13.0793 5.59188 L 13.0975 5.64185 L 13.1156 5.69177 L 13.1336 5.74166 L 13.1514 5.7915 L 13.1692 5.8413 L 13.1869 5.89106 L 13.2045 5.94078 L 13.222 5.99045 L 13.2395 6.04009 L 13.2568 6.08969 L 13.274 6.13924 L 13.2587 6.17226 L 13.2433 6.20524 L 13.2278 6.23819 L 13.2123 6.2711 L 13.1966 6.30396 L 13.1809 6.33679 L 13.1651 6.36958 L 13.1492 6.40233 L 13.1332 6.43504 L 13.1171 6.46771 L 13.101 6.50034 L 13.0848 6.53293 L 13.0685 6.56548 L 13.0521 6.59799 L 13.0356 6.63046 L 13.0191 6.66288 L 13.0025 6.69527 L 12.9858 6.72761 L 12.969 6.75992 L 12.9521 6.79218 L 12.9352 6.8244 L 12.9181 6.85657 L 12.901 6.88871 L 12.8838 6.9208 L 12.8666 6.95284 L 12.8492 6.98485 L 12.8318 7.01681 L 12.8143 7.04873 L 12.7967 7.0806 L 12.779 7.11243 L 12.7613 7.14422 L 12.7435 7.17596 L 12.7256 7.20766 L 12.7076 7.23931 L 12.6895 7.27092 L 12.6416 7.354 L 12.6232 7.38544 L 12.6048 7.41684 L 12.5863 7.44819 L 12.5677 7.4795 L 12.5491 7.51076 L 12.5303 7.54197 L 12.5115 7.57314 L 12.4926 7.60426 L 12.4737 7.63533 L 12.4546 7.66635 L 12.4355 7.69733 L 12.4163 7.72826 L 12.397 7.75914 L 12.3777 7.78998 L 12.3582 7.82076 L 12.3387 7.8515 L 12.3192 7.88219 L 12.2995 7.91283 L 12.2798 7.94342 L 12.26 7.97396 L 12.2401 8.00445 L 12.2201 8.03489 L 12.2001 8.06528 L 12.18 8.09563 L 12.1598 8.12592 L 12.1395 8.15616 L 12.1192 8.18635 L 12.0988 8.21649 L 12.0783 8.24658 L 12.0577 8.27662 L 12.0371 8.30661 L 12.0163 8.33655 L 11.9956 8.36643 L 11.9747 8.39626 L 11.9538 8.42604 L 11.9022 8.43589 L 11.8506 8.44567 L 11.7989 8.4554 L 11.7471 8.46508 L 11.6953 8.47469 L 11.6433 8.48424 L 11.5913 8.49374 L 11.5392 8.50317 L 11.487 8.51254 L 11.4347 8.52185 L 11.3824 8.5311 L 11.3299 8.54028 L 11.2774 8.5494 L 11.2248 8.55845 L 11.1721 8.56744 L 11.1193 8.57636 L 11.0664 8.58522 L 11.0135 8.594 L 10.9604 8.60272 L 10.9073 8.61137 L 10.8541 8.61995 L 10.8007 8.62846 L 10.7473 8.63689 L 10.6938 8.64525 L 10.6403 8.65354 L 10.5866 8.66176 L 10.5328 8.66989 L 10.4789 8.67796 L 10.425 8.68594 L 10.3709 8.69385 L 10.3168 8.70168 L 10.2625 8.70943 L 10.2082 8.71709 L 10.1538 8.72468 L 10.0993 8.73218 L 10.0446 8.7396 L 9.98991 8.74694 L 9.93509 8.75419 L 9.88017 8.76135 L 9.82515 8.76842 L 9.77004 8.77541 L 9.71482 8.78231 L 9.6595 8.78911 L 9.60408 8.79582 L 9.54856 8.80244 L 9.49294 8.80897 L 9.43722 8.8154 L 9.38139 8.82173 L 9.32546 8.82797 L 9.26942 8.8341 L 9.21328 8.84014 L 9.15703 8.84608 L 9.10068 8.85191 L 9.04422 8.85764 L 8.98765 8.86326 L 8.93097 8.86878 L 8.87419 8.87419 L 8.87419 8.87419 L 8.86878 8.93097 L 8.86326 8.98765 L 8.85764 9.04422 L 8.85191 9.10068 L 8.84608 9.15703 L 8.84014 9.21328 L 8.8341 9.26942 L 8.82797 9.32546 L 8.82173 9.38139 L 8.8154 9.43722 L 8.80897 9.49294 L 8.80244 9.54856 L 8.79582 9.60408 L 8.78911 9.6595 L 8.78231 9.71482 L 8.77541 9.77004 L 8.76842 9.82515 L 8.76135 9.88017 L 8.75419 9.93509 L 8.74694 9.98991 L 8.7396 10.0446 L 8.73218 10.0993 L 8.72468 10.1538 L 8.71709 10.2082 L 8.70943 10.2625 L 8.70168 10.3168 L 8.69385 10.3709 L 8.68594 10.425 L 8.67796 10.4789 L 8.66989 10.5328 L 8.66176 10.5866 L 8.65354 10.6403 L 8.64525 10.6938 L 8.63689 10.7473 L 8.62846 10.8007 L 8.61995 10.8541 L 8.61137 10.9073 L 8.60272 10.9604 L 8.594 11.0135 L 8.58522 11.0664 L 8.57636 11.1193 L 8.56744 11.1721 L 8.55845 11.2248 L 8.5494 11.2774 L 8.54028 11.3299 L 8.5311 11.3824 L 8.52185 11.4347 L 8.51254 11.487 L 8.50317 11.5392 L 8.49374 11.5913 L 8.48424 11.6433 L 8.47469 11.6953 L 8.46508 11.7471 L 8.4554 11.7989 L 8.44567 11.8506 L 8.43589 11.9022 L 8.42604 11.9538 L 8.39626 11.9747 L 8.36643 11.9956 L 8.33655 12.0163 L 8.30661 12.0371 L 8.27662 12.0577 L 8.24658 12.0783 L 8.21649 12.0988 L 8.18635 12.1192 L 8.15616 12.1395 L 8.12592 12.1598 L 8.09563 12.18 L 8.06528 12.2001 L 8.03489 12.2201 L 8.00445 12.2401 L 7.97396 12.26 L 7.94342 12.2798 L 7.91283 12.2995 L 7.88219 12.3192 L 7.8515 12.3387 L 7.82076 12.3582 L 7.78998 12.3777 L 7.75914 12.397 L 7.72826 12.4163 L 7.69733 12.4355 L 7.66635 12.4546 L 7.63533 12.4737 L 7.60426 12.4926 L 7.57314 12.5115 L 7.54197 12.5303 L 7.51076 12.5491 L 7.4795 12.5677 L 7.44819 12.5863 L 7.41684 12.6048 L 7.38544 12.6232 L 7.354 12.6416 L 7.27092 12.6895 L 7.23931 12.7076 L 7.20766 12.7256 L 7.17596 12.7435 L 7.14422 12.7613 L 7.11243 12.779 L 7.0806 12.7967 L 7.04873 12.8143 L 7.01681 12.8318 L 6.98485 12.8492 L 6.95284 12.8666 L 6.9208 12.8838 L 6.88871 12.901 L 6.85657 12.9181 L 6.8244 12.9352 L 6.79218 12.9521 L 6.75992 12.969 L 6.72761 12.9858 L 6.69527 13.0025 L 6.66288 13.0191 L 6.63046 13.0356 L 6.59799 13.0521 L 6.56548 13.0685 L 6.53293 13.0848 L 6.50034 13.101 L 6.46771 13.1171 L 6.43504 13.1332 L 6.40233 13.1492 L 6.36958 13.1651 L 6.33679 13.1809 L 6.30396 13.1966 L 6.2711 13.2123 L 6.23819 13.2278 L 6.20524 13.2433 L 6.17226 13.2587 L 6.13924 13.274 L 6.08969 13.2568 L 6.04009 13.2395 L 5.99045 13.222 L 5.94078 13.2045 L 5.89106 13.1869 L 5.8413 13.1692 L 5.7915 13.1514 L 5.74166 13.1336 L 5.69177 13.1156 L 5.64185 13.0975 L 5.59188 13.0793 L 5.54187 13.0611 L 5.49182 13.0427 L 5.44173 13.0242 L 5.3916 13.0057 L 5.34142 12.987 L 5.29121 12.9682 L 5.24095 12.9494 L 5.19065 12.9304 L 5.1403 12.9113 L 5.08992 12.8921 L 5.03949 12.8728 L 4.98902 12.8534 L 4.93851 12.8339 L 4.88796 12.8143 L 4.83737 12.7946 L 4.78673 12.7748 L 4.73605 12.7548 L 4.68533 12.7347 L 4.63456 12.7146 L 4.58376 12.6943 L 4.53291 12.6739 L 4.48202 12.6533 L 4.43109 12.6327 L 4.38012 12.6119 L 4.3291 12.591 L 4.27804 12.57 L 4.22694 12.5489 L 4.1758 12.5276 L 4.12462 12.5063 L 4.07339 12.4847 L 4.02213 12.4631 L 3.97082 12.4413 L 3.91947 12.4194 L 3.86808 12.3974 L 3.81664 12.3753 L 3.76517 12.353 L 3.71365 12.3305 L 3.6621 12.308 L 3.6105 12.2853 L 3.55886 12.2624 L 3.50718 12.2394 L 3.45546 12.2163 L 3.4037 12.193 L 3.3519 12.1696 L 3.30006 12.1461 L 3.24818 12.1224 L 3.24818 12.1224 L 3.2151 12.1688 L 3.18199 12.2152 L 3.14883 12.2613 L 3.11564 12.3074 L 3.08241 12.3533 L 3.04915 12.399 L 3.01585 12.4446 L 2.98252 12.4901 L 2.94915 12.5354 L 2.91575 12.5806 L 2.88232 12.6256 L 2.84886 12.6705 L 2.81536 12.7153 L 2.78184 12.7599 L 2.74829 12.8044 L 2.71471 12.8488 L 2.6811 12.893 L 2.64747 12.9372 L 2.61381 12.9811 L 2.58012 13.025 L 2.5464 13.0687 L 2.51267 13.1123 L 2.47891 13.1558 L 2.44512 13.1991 L 2.41131 13.2423 L 2.37748 13.2854 L 2.34363 13.3284 L 2.30976 13.3713 L 2.27586 13.414 L 2.24195 13.4566 L 2.20801 13.4991 L 2.17406 13.5415 L 2.14009 13.5838 L 2.1061 13.6259 L 2.07209 13.6679 L 2.03806 13.7099 L 2.00402 13.7517 L 1.96996 13.7934 L 1.93589 13.835 L 1.9018 13.8764 L 1.86769 13.9178 L 1.83357 13.959 L 1.79944 14.0002 L 1.76529 14.0412 L 1.73113 14.0822 L 1.69696 14.123 L 1.66277 14.1637 L 1.62857 14.2043 L 1.59436 14.2448 L 1.56014 14.2852 L 1.5259 14.3255 L 1.49166 14.3657 L 1.4574 14.4059 L 1.42314 14.4459 L 1.38886 14.4858 L 1.35458 14.5256 L 1.32029 14.5653 L 1.28403 14.5685 L 1.24776 14.5717 L 1.21149 14.5747 L 1.1752 14.5777 L 1.13892 14.5806 L 1.10262 14.5834 L 1.06632 14.5861 L 1.03001 14.5887 L 0.993689 14.5912 L 0.957367 14.5936 L 0.921038 14.596 L 0.884704 14.5982 L 0.848365 14.6004 L 0.81202 14.6024 L 0.77567 14.6044 L 0.739316 14.6063 L 0.702956 14.6081 L 0.666593 14.6098 L 0.630225 14.6114 L 0.593853 14.6129 L 0.557478 14.6144 L 0.521099 14.6157 L 0.484717 14.617 L 0.448332 14.6181 L 0.411945 14.6192 L 0.375554 14.6202 L 0.339162 14.6211 L 0.302767 14.6219 L 0.26637 14.6226 L 0.229972 14.6232 L 0.193572 14.6237 L 0.157172 14.6242 L 0.12077 14.6245 L 0.0843671 14.6248 L 0.047964 14.6249 L -0.047964 14.6249 L -0.0843671 14.6248 L -0.12077 14.6245 L -0.157172 14.6242 L -0.193572 14.6237 L -0.229972 14.6232 L -0.26637 14.6226 L -0.302767 14.6219 L -0.339162 14.6211 L -0.375554 14.6202 L -0.411945 14.6192 L -0.448332 14.6181 L -0.484717 14.617 L -0.521099 14.6157 L -0.557478 14.6144 L -0.593853 14.6129 L -0.630225 14.6114 L -0.666593 14.6098 L -0.702956 14.6081 L -0.739316 14.6063 L -0.77567 14.6044 L -0.81202 14.6024 L -0.848365 14.6004 L -0.884704 14.5982 L -0.921038 14.596 L -0.957367 14.5936 L -0.993689 14.5912 L -1.03001 14.5887 L -1.06632 14.5861 L -1.10262 14.5834 L -1.13892 14.5806 L -1.1752 14.5777 L -1.21149 14.5747 L -1.24776 14.5717 L -1.28403 14.5685 L -1.32029 14.5653 L -1.35458 14.5256 L -1.38886 14.4858 L -1.42314 14.4459 L -1.4574 14.4059 L -1.49166 14.3657 L -1.5259 14.3255 L -1.56014 14.2852 L -1.59436 14.2448 L -1.62857 14.2043 L -1.66277 14.1637 L -1.69696 14.123 L -1.73113 14.0822 L -1.76529 14.0412 L -1.79944 14.0002 L -1.83357 13.959 L -1.86769 13.9178 L -1.9018 13.8764 L -1.93589 13.835 L -1.96996 13.7934 L -2.00402 13.7517 L -2.03806 13.7099 L -2.07209 13.6679 L -2.1061 13.6259 L -2.14009 13.5838 L -2.17406 13.5415 L -2.20801 13.4991 L -2.24195 13.4566 L -2.27586 13.414 L -2.30976 13.3713 L -2.34363 13.3284 L -2.37748 13.2854 L -2.41131 13.2423 L -2.44512 13.1991 L -2.47891 13.1558 L -2.51267 13.1123 L -2.5464 13.0687 L -2.58012 13.025 L -2.61381 12.9811 L -2.64747 12.9372 L -2.6811 12.893 L -2.71471 12.8488 L -2.74829 12.8044 L -2.78184 12.7599 L -2.81536 12.7153 L -2.84886 12.6705 L -2.88232 12.6256 L -2.91575 12.5806 L -2.94915 12.5354 L -2.98252 12.4901 L -3.01585 12.4446 L -3.04915 12.399 L -3.08241 12.3533 L -3.11564 12.3074 L -3.14883 12.2613 L -3.18199 12.2152 L -3.2151 12.1688 L -3.24818 12.1224 L -3.24818 12.1224 L -3.30006 12.1461 L -3.3519 12.1696 L -3.4037 12.193 L -3.45546 12.2163 L -3.50718 12.2394 L -3.55886 12.2624 L -3.6105 12.2853 L -3.6621 12.308 L -3.71365 12.3305 L -3.76517 12.353 L -3.81664 12.3753 L -3.86808 12.3974 L -3.91947 12.4194 L -3.97082 12.4413 L -4.02213 12.4631 L -4.07339 12.4847 L -4.12462 12.5063 L -4.1758 12.5276 L -4.22694 12.5489 L -4.27804 12.57 L -4.3291 12.591 L -4.38012 12.6119 L -4.43109 12.6327 L -4.48202 12.6533 L -4.53291 12.6739 L -4.58376 12.6943 L -4.63456 12.7146 L -4.68533 12.7347 L -4.73605 12.7548 L -4.78673 12.7748 L -4.83737 12.7946 L -4.88796 12.8143 L -4.93851 12.8339 L -4.98902 12.8534 L -5.03949 12.8728 L -5.08992 12.8921 L -5.1403 12.9113 L -5.19065 12.9304 L -5.24095 12.9494 L -5.29121 12.9682 L -5.34142 12.987 L -5.3916 13.0057 L -5.44173 13.0242 L -5.49182 13.0427 L -5.54187 13.0611 L -5.59188 13.0793 L -5.64185 13.0975 L -5.69177 13.1156 L -5.74166 13.1336 L -5.7915 13.1514 L -5.8413 13.1692 L -5.89106 13.1869 L -5.94078 13.2045 L -5.99045 13.222 L -6.04009 13.2395 L -6.08969 13.2568 L -6.13924 13.274 L -6.17226 13.2587 L -6.20524 13.2433 L -6.23819 13.2278 L -6.2711 13.2123 L -6.30396 13.1966 L -6.33679 13.1809 L -6.36958 13.1651 L -6.40233 13.1492 L -6.43504 13.1332 L -6.46771 13.1171 L -6.50034 13.101 L -6.53293 13.0848 L -6.56548 13.0685 L -6.59799 13.0521 L -6.63046 13.0356 L -6.66288 13.0191 L -6.69527 13.0025 L -6.72761 12.9858 L -6.75992 12.969 L -6.79218 12.9521 L -6.8244 12.9352 L -6.85657 12.9181 L -6.88871 12.901 L -6.9208 12.8838 L -6.95284 12.8666 L -6.98485 12.8492 L -7.01681 12.8318 L -7.04873 12.8143 L -7.0806 12.7967 L -7.11243 12.779 L -7.14422 12.7613 L -7.17596 12.7435 L -7.20766 12.7256 L -7.23931 12.7076 L -7.27092 12.6895 L -7.354 12.6416 L -7.38544 12.6232 L -7.41684 12.6048 L -7.44819 12.5863 L -7.4795 12.5677 L -7.51076 12.5491 L -7.54197 12.5303 L -7.57314 12.5115 L -7.60426 12.4926 L -7.63533 12.4737 L -7.66635 12.4546 L -7.69733 12.4355 L -7.72826 12.4163 L -7.75914 12.397 L -7.78998 12.3777 L -7.82076 12.3582 L -7.8515 12.3387 L -7.88219 12.3192 L -7.91283 12.2995 L -7.94342 12.2798 L -7.97396 12.26 L -8.00445 12.2401 L -8.03489 12.2201 L -8.06528 12.2001 L -8.09563 12.18 L -8.12592 12.1598 L -8.15616 12.1395 L -8.18635 12.1192 L -8.21649 12.0988 L -8.24658 12.0783 L -8.27662 12.0577 L -8.30661 12.0371 L -8.33655 12.0163 L -8.36643 11.9956 L -8.39626 11.9747 L -8.42604 11.9538 L -8.43589 11.9022 L -8.44567 11.8506 L -8.4554 11.7989 L -8.46508 11.7471 L -8.47469 11.6953 L -8.48424 11.6433 L -8.49374 11.5913 L -8.50317 11.5392 L -8.51254 11.487 L -8.52185 11.4347 L -8.5311 11.3824 L -8.54028 11.3299 L -8.5494 11.2774 L -8.55845 11.2248 L -8.56744 11.1721 L -8.57636 11.1193 L -8.58522 11.0664 L -8.594 11.0135 L -8.60272 10.9604 L -8.61137 10.9073 L -8.61995 10.8541 L -8.62846 10.8007 L -8.63689 10.7473 L -8.64525 10.6938 L -8.65354 10.6403 L -8.66176 10.5866 L -8.66989 10.5328 L -8.67796 10.4789 L -8.68594 10.425 L -8.69385 10.3709 L -8.70168 10.3168 L -8.70943 10.2625 L -8.71709 10.2082 L -8.72468 10.1538 L -8.73218 10.0993 L -8.7396 10.0446 L -8.74694 9.98991 L -8.75419 9.93509 L -8.76135 9.88017 L -8.76842 9.82515 L -8.77541 9.77004 L -8.78231 9.71482 L -8.78911 9.6595 L -8.79582 9.60408 L -8.80244 9.54856 L -8.80897 9.49294 L -8.8154 9.43722 L -8.82173 9.38139 L -8.82797 9.32546 L -8.8341 9.26942 L -8.84014 9.21328 L -8.84608 9.15703 L -8.85191 9.10068 L -8.85764 9.04422 L -8.86326 8.98765 L -8.86878 8.93097 L -8.87419 8.87419 L -8.87419 8.87419 L -8.93097 8.86878 L -8.98765 8.86326 L -9.04422 8.85764 L -9.10068 8.85191 L -9.15703 8.84608 L -9.21328 8.84014 L -9.26942 8.8341 L -9.32546 8.82797 L -9.38139 8.82173 L -9.43722 8.8154 L -9.49294 8.80897 L -9.54856 8.80244 L -9.60408 8.79582 L -9.6595 8.78911 L -9.71482 8.78231 L -9.77004 8.77541 L -9.82515 8.76842 L -9.88017 8.76135 L -9.93509 8.75419 L -9.98991 8.74694 L -10.0446 8.7396 L -10.0993 8.73218 L -10.1538 8.72468 L -10.2082 8.71709 L -10.2625 8.70943 L -10.3168 8.70168 L -10.3709 8.69385 L -10.425 8.68594 L -10.4789 8.67796 L -10.5328 8.66989 L -10.5866 8.66176 L -10.6403 8.65354 L -10.6938 8.64525 L -10.7473 8.63689 L -10.8007 8.62846 L -10.8541 8.61995 L -10.9073 8.61137 L -10.9604 8.60272 L -11.0135 8.594 L -11.0664 8.58522 L -11.1193 8.57636 L -11.1721 8.56744 L -11.2248 8.55845 L -11.2774 8.5494 L -11.3299 8.54028 L -11.3824 8.5311 L -11.4347 8.52185 L -11.487 8.51254 L -11.5392 8.50317 L -11.5913 8.49374 L -11.6433 8.48424 L -11.6953 8.47469 L -11.7471 8.46508 L -11.7989 8.4554 L -11.8506 8.44567 L -11.9022 8.43589 L -11.9538 8.42604 L -11.9747 8.39626 L -11.9956 8.36643 L -12.0163 8.33655 L -12.0371 8.30661 L -12.0577 8.27662 L -12.0783 8.24658 L -12.0988 8.21649 L -12.1192 8.18635 L -12.1395 8.15616 L -12.1598 8.12592 L -12.18 8.09563 L -12.2001 8.06528 L -12.2201 8.03489 L -12.2401 8.00445 L -12.26 7.97396 L -12.2798 7.94342 L -12.2995 7.91283 L -12.3192 7.88219 L -12.3387 7.8515 L -12.3582 7.82076 L -12.3777 7.78998 L -12.397 7.75914 L -12.4163 7.72826 L -12.4355 7.69733 L -12.4546 7.66635 L -12.4737 7.63533 L -12.4926 7.60426 L -12.5115 7.57314 L -12.5303 7.54197 L -12.5491 7.51076 L -12.5677 7.4795 L -12.5863 7.44819 L -12.6048 7.41684 L -12.6232 7.38544 L -12.6416 7.354 L -12.6895 7.27092 L -12.7076 7.23931 L -12.7256 7.20766 L -12.7435 7.17596 L -12.7613 7.14422 L -12.779 7.11243 L -12.7967 7.0806 L -12.8143 7.04873 L -12.8318 7.01681 L -12.8492 6.98485 L -12.8666 6.95284 L -12.8838 6.9208 L -12.901 6.88871 L -12.9181 6.85657 L -12.9352 6.8244 L -12.9521 6.79218 L -12.969 6.75992 L -12.9858 6.72761 L -13.0025 6.69527 L -13.0191 6.66288 L -13.0356 6.63046 L -13.0521 6.59799 L -13.0685 6.56548 L -13.0848 6.53293 L -13.101 6.50034 L -13.1171 6.46771 L -13.1332 6.43504 L -13.1492 6.40233 L -13.1651 6.36958 L -13.1809 6.33679 L -13.1966 6.30396 L -13.2123 6.2711 L -13.2278 6.23819 L -13.2433 6.20524 L -13.2587 6.17226 L -13.274 6.13924 L -13.2568 6.08969 L -13.2395 6.04009 L -13.222 5.99045 L -13.2045 5.94078 L -13.1869 5.89106 L -13.1692 5.8413 L -13.1514 5.7915 L -13.1336 5.74166 L -13.1156 5.69177 L -13.0975 5.64185 L -13.0793 5.59188 L -13.0611 5.54187 L -13.0427 5.49182 L -13.0242 5.44173 L -13.0057 5.3916 L -12.987 5.34142 L -12.9682 5.29121 L -12.9494 5.24095 L -12.9304 5.19065 L -12.9113 5.1403 L -12.8921 5.08992 L -12.8728 5.03949 L -12.8534 4.98902 L -12.8339 4.93851 L -12.8143 4.88796 L -12.7946 4.83737 L -12.7748 4.78673 L -12.7548 4.73605 L -12.7347 4.68533 L -12.7146 4.63456 L -12.6943 4.58376 L -12.6739 4.53291 L -12.6533 4.48202 L -12.6327 4.43109 L -12.6119 4.38012 L -12.591 4.3291 L -12.57 4.27804 L -12.5489 4.22694 L -12.5276 4.1758 L -12.5063 4.12462 L -12.4847 4.07339 L -12.4631 4.02213 L -12.4413 3.97082 L -12.4194 3.91947 L -12.3974 3.86808 L -12.3753 3.81664 L -12.353 3.76517 L -12.3305 3.71365 L -12.308 3.6621 L -12.2853 3.6105 L -12.2624 3.55886 L -12.2394 3.50718 L -12.2163 3.45546 L -12.193 3.4037 L -12.1696 3.3519 L -12.1461 3.30006 L -12.1224 3.24818 L -12.1224 3.24818 L -12.1688 3.2151 L -12.2152 3.18199 L -12.2613 3.14883 L -12.3074 3.11564 L -12.3533 3.08241 L -12.399 3.04915 L -12.4446 3.01585 L -12.4901 2.98252 L -12.5354 2.94915 L -12.5806 2.91575 L -12.6256 2.88232 L -12.6705 2.84886 L -12.7153 2.81536 L -12.7599 2.78184 L -12.8044 2.74829 L -12.8488 2.71471 L -12.893 2.6811 L -12.9372 2.64747 L -12.9811 2.61381 L -13.025 2.58012 L -13.0687 2.5464 L -13.1123 2.51267 L -13.1558 2.47891 L -13.1991 2.44512 L -13.2423 2.41131 L -13.2854 2.37748 L -13.3284 2.34363 L -13.3713 2.30976 L -13.414 2.27586 L -13.4566 2.24195 L -13.4991 2.20801 L -13.5415 2.17406 L -13.5838 2.14009 L -13.6259 2.1061 L -13.6679 2.07209 L -13.7099 2.03806 L -13.7517 2.00402 L -13.7934 1.96996 L -13.835 1.93589 L -13.8764 1.9018 L -13.9178 1.86769 L -13.959 1.83357 L -14.0002 1.79944 L -14.0412 1.76529 L -14.0822 1.73113 L -14.123 1.69696 L -14.1637 1.66277 L -14.2043 1.62857 L -14.2448 1.59436 L -14.2852 1.56014 L -14.3255 1.5259 L -14.3657 1.49166 L -14.4059 1.4574 L -14.4459 1.42314 L -14.4858 1.38886 L -14.5256 1.35458 L -14.5653 1.32029 L -14.5685 1.28403 L -14.5717 1.24776 L -14.5747 1.21149 L -14.5777 1.1752 L -14.5806 1.13892 L -14.5834 1.10262 L -14.5861 1.06632 L -14.5887 1.03001 L -14.5912 0.993689 L -14.5936 0.957367 L -14.596 0.921038 L -14.5982 0.884704 L -14.6004 0.848365 L -14.6024 0.81202 L -14.6044 0.77567 L -14.6063 0.739316 L -14.6081 0.702956 L -14.6098 0.666593 L -14.6114 0.630225 L -14.6129 0.593853 L -14.6144 0.557478 L -14.6157 0.521099 L -14.617 0.484717 L -14.6181 0.448332 L -14.6192 0.411945 L -14.6202 0.375554 L -14.6211 0.339162 L -14.6219 0.302767 L -14.6226 0.26637 L -14.6232 0.229972 L -14.6237 0.193572 L -14.6242 0.157172 L -14.6245 0.12077 L -14.6248 0.0843671 L -14.6249 0.047964 L -14.6249 -0.047964 L -14.6248 -0.0843671 L -14.6245 -0.12077 L -14.6242 -0.157172 L -14.6237 -0.193572 L -14.6232 -0.229972 L -14.6226 -0.26637 L -14.6219 -0.302767 L -14.6211 -0.339162 L -14.6202 -0.375554 L -14.6192 -0.411945 L -14.6181 -0.448332 L -14.617 -0.484717 L -14.6157 -0.521099 L -14.6144 -0.557478 L -14.6129 -0.593853 L -14.6114 -0.630225 L -14.6098 -0.666593 L -14.6081 -0.702956 L -14.6063 -0.739316 L -14.6044 -0.77567 L -14.6024 -0.81202 L -14.6004 -0.848365 L -14.5982 -0.884704 L -14.596 -0.921038 L -14.5936 -0.957367 L -14.5912 -0.993689 L -14.5887 -1.03001 L -14.5861 -1.06632 L -14.5834 -1.10262 L -14.5806 -1.13892 L -14.5777 -1.1752 L -14.5747 -1.21149 L -14.5717 -1.24776 L -14.5685 -1.28403 L -14.5653 -1.32029 L -14.5256 -1.35458 L -14.4858 -1.38886 L -14.4459 -1.42314 L -14.4059 -1.4574 L -14.3657 -1.49166 L -14.3255 -1.5259 L -14.2852 -1.56014 L -14.2448 -1.59436 L -14.2043 -1.62857 L -14.1637 -1.66277 L -14.123 -1.69696 L -14.0822 -1.73113 L -14.0412 -1.76529 L -14.0002 -1.79944 L -13.959 -1.83357 L -13.9178 -1.86769 L -13.8764 -1.9018 L -13.835 -1.93589 L -13.7934 -1.96996 L -13.7517 -2.00402 L -13.7099 -2.03806 L -13.6679 -2.07209 L -13.6259 -2.1061 L -13.5838 -2.14009 L -13.5415 -2.17406 L -13.4991 -2.20801 L -13.4566 -2.24195 L -13.414 -2.27586 L -13.3713 -2.30976 L -13.3284 -2.34363 L -13.2854 -2.37748 L -13.2423 -2.41131 L -13.1991 -2.44512 L -13.1558 -2.47891 L -13.1123 -2.51267 L -13.0687 -2.5464 L -13.025 -2.58012 L -12.9811 -2.61381 L -12.9372 -2.64747 L -12.893 -2.6811 L -12.8488 -2.71471 L -12.8044 -2.74829 L -12.7599 -2.78184 L -12.7153 -2.81536 L -12.6705 -2.84886 L -12.6256 -2.88232 L -12.5806 -2.91575 L -12.5354 -2.94915 L -12.4901 -2.98252 L -12.4446 -3.01585 L -12.399 -3.04915 L -12.3533 -3.08241 L -12.3074 -3.11564 L -12.2613 -3.14883 L -12.2152 -3.18199 L -12.1688 -3.2151 L -12.1224 -3.24818 L -12.1224 -3.24818 L -12.1461 -3.30006 L -12.1696 -3.3519 L -12.193 -3.4037 L -12.2163 -3.45546 L -12.2394 -3.50718 L -12.2624 -3.55886 L -12.2853 -3.6105 L -12.308 -3.6621 L -12.3305 -3.71365 L -12.353 -3.76517 L -12.3753 -3.81664 L -12.3974 -3.86808 L -12.4194 -3.91947 L -12.4413 -3.97082 L -12.4631 -4.02213 L -12.4847 -4.07339 L -12.5063 -4.12462 L -12.5276 -4.1758 L -12.5489 -4.22694 L -12.57 -4.27804 L -12.591 -4.3291 L -12.6119 -4.38012 L -12.6327 -4.43109 L -12.6533 -4.48202 L -12.6739 -4.53291 L -12.6943 -4.58376 L -12.7146 -4.63456 L -12.7347 -4.68533 L -12.7548 -4.73605 L -12.7748 -4.78673 L -12.7946 -4.83737 L -12.8143 -4.88796 L -12.8339 -4.93851 L -12.8534 -4.98902 L -12.8728 -5.03949 L -12.8921 -5.08992 L -12.9113 -5.1403 L -12.9304 -5.19065 L -12.9494 -5.24095 L -12.9682 -5.29121 L -12.987 -5.34142 L -13.0057 -5.3916 L -13.0242 -5.44173 L -13.0427 -5.49182 L -13.0611 -5.54187 L -13.0793 -5.59188 L -13.0975 -5.64185 L -13.1156 -5.69177 L -13.1336 -5.74166 L -13.1514 -5.7915 L -13.1692 -5.8413 L -13.1869 -5.89106 L -13.2045 -5.94078 L -13.222 -5.99045 L -13.2395 -6.04009 L -13.2568 -6.08969 L -13.274 -6.13924 L -13.2587 -6.17226 L -13.2433 -6.20524 L -13.2278 -6.23819 L -13.2123 -6.2711 L -13.1966 -6.30396 L -13.1809 -6.33679 L -13.1651 -6.36958 L -13.1492 -6.40233 L -13.1332 -6.43504 L -13.1171 -6.46771 L -13.101 -6.50034 L -13.0848 -6.53293 L -13.0685 -6.56548 L -13.0521 -6.59799 L -13.0356 -6.63046 L -13.0191 -6.66288 L -13.0025 -6.69527 L -12.9858 -6.72761 L -12.969 -6.75992 L -12.9521 -6.79218 L -12.9352 -6.8244 L -12.9181 -6.85657 L -12.901 -6.88871 L -12.8838 -6.9208 L -12.8666 -6.95284 L -12.8492 -6.98485 L -12.8318 -7.01681 L -12.8143 -7.04873 L -12.7967 -7.0806 L -12.779 -7.11243 L -12.7613 -7.14422 L -12.7435 -7.17596 L -12.7256 -7.20766 L -12.7076 -7.23931 L -12.6895 -7.27092 L -12.6416 -7.354 L -12.6232 -7.38544 L -12.6048 -7.41684 L -12.5863 -7.44819 L -12.5677 -7.4795 L -12.5491 -7.51076 L -12.5303 -7.54197 L -12.5115 -7.57314 L -12.4926 -7.60426 L -12.4737 -7.63533 L -12.4546 -7.66635 L -12.4355 -7.69733 L -12.4163 -7.72826 L -12.397 -7.75914 L -12.3777 -7.78998 L -12.3582 -7.82076 L -12.3387 -7.8515 L -12.3192 -7.88219 L -12.2995 -7.91283 L -12.2798 -7.94342 L -12.26 -7.97396 L -12.2401 -8.00445 L -12.2201 -8.03489 L -12.2001 -8.06528 L -12.18 -8.09563 L -12.1598 -8.12592 L -12.1395 -8.15616 L -12.1192 -8.18635 L -12.0988 -8.21649 L -12.0783 -8.24658 L -12.0577 -8.27662 L -12.0371 -8.30661 L -12.0163 -8.33655 L -11.9956 -8.36643 L -11.9747 -8.39626 L -11.9538 -8.42604 L -11.9022 -8.43589 L -11.8506 -8.44567 L -11.7989 -8.4554 L -11.7471 -8.46508 L -11.6953 -8.47469 L -11.6433 -8.48424 L -11.5913 -8.49374 L -11.5392 -8.50317 L -11.487 -8.51254 L -11.4347 -8.52185 L -11.3824 -8.5311 L -11.3299 -8.54028 L -11.2774 -8.5494 L -11.2248 -8.55845 L -11.1721 -8.56744 L -11.1193 -8.57636 L -11.0664 -8.58522 L -11.0135 -8.594 L -10.9604 -8.60272 L -10.9073 -8.61137 L -10.8541 -8.61995 L -10.8007 -8.62846 L -10.7473 -8.63689 L -10.6938 -8.64525 L -10.6403 -8.65354 L -10.5866 -8.66176 L -10.5328 -8.66989 L -10.4789 -8.67796 L -10.425 -8.68594 L -10.3709 -8.69385 L -10.3168 -8.70168 L -10.2625 -8.70943 L -10.2082 -8.71709 L -10.1538 -8.72468 L -10.0993 -8.73218 L -10.0446 -8.7396 L -9.98991 -8.74694 L -9.93509 -8.75419 L -9.88017 -8.76135 L -9.82515 -8.76842 L -9.77004 -8.77541 L -9.71482 -8.78231 L -9.6595 -8.78911 L -9.60408 -8.79582 L -9.54856 -8.80244 L -9.49294 -8.80897 L -9.43722 -8.8154 L -9.38139 -8.82173 L -9.32546 -8.82797 L -9.26942 -8.8341 L -9.21328 -8.84014 L -9.15703 -8.84608 L -9.10068 -8.85191 L -9.04422 -8.85764 L -8.98765 -8.86326 L -8.93097 -8.86878 L -8.87419 -8.87419 L -8.87419 -8.87419 L -8.86878 -8.93097 L -8.86326 -8.98765 L -8.85764 -9.04422 L -8.85191 -9.10068 L -8.84608 -9.15703 L -8.84014 -9.21328 L -8.8341 -9.26942 L -8.82797 -9.32546 L -8.82173 -9.38139 L -8.8154 -9.43722 L -8.80897 -9.49294 L -8.80244 -9.54856 L -8.79582 -9.60408 L -8.78911 -9.6595 L -8.78231 -9.71482 L -8.77541 -9.77004 L -8.76842 -9.82515 L -8.76135 -9.88017 L -8.75419 -9.93509 L -8.74694 -9.98991 L -8.7396 -10.0446 L -8.73218 -10.0993 L -8.72468 -10.1538 L -8.71709 -10.2082 L -8.70943 -10.2625 L -8.70168 -10.3168 L -8.69385 -10.3709 L -8.68594 -10.425 L -8.67796 -10.4789 L -8.66989 -10.5328 L -8.66176 -10.5866 L -8.65354 -10.6403 L -8.64525 -10.6938 L -8.63689 -10.7473 L -8.62846 -10.8007 L -8.61995 -10.8541 L -8.61137 -10.9073 L -8.60272 -10.9604 L -8.594 -11.0135 L -8.58522 -11.0664 L -8.57636 -11.1193 L -8.56744 -11.1721 L -8.55845 -11.2248 L -8.5494 -11.2774 L -8.54028 -11.3299 L -8.5311 -11.3824 L -8.52185 -11.4347 L -8.51254 -11.487 L -8.50317 -11.5392 L -8.49374 -11.5913 L -8.48424 -11.6433 L -8.47469 -11.6953 L -8.46508 -11.7471 L -8.4554 -11.7989 L -8.44567 -11.8506 L -8.43589 -11.9022 L -8.42604 -11.9538 L -8.39626 -11.9747 L -8.36643 -11.9956 L -8.33655 -12.0163 L -8.30661 -12.0371 L -8.27662 -12.0577 L -8.24658 -12.0783 L -8.21649 -12.0988 L -8.18635 -12.1192 L -8.15616 -12.1395 L -8.12592 -12.1598 L -8.09563 -12.18 L -8.06528 -12.2001 L -8.03489 -12.2201 L -8.00445 -12.2401 L -7.97396 -12.26 L -7.94342 -12.2798 L -7.91283 -12.2995 L -7.88219 -12.3192 L -7.8515 -12.3387 L -7.82076 -12.3582 L -7.78998 -12.3777 L -7.75914 -12.397 L -7.72826 -12.4163 L -7.69733 -12.4355 L -7.66635 -12.4546 L -7.63533 -12.4737 L -7.60426 -12.4926 L -7.57314 -12.5115 L -7.54197 -12.5303 L -7.51076 -12.5491 L -7.4795 -12.5677 L -7.44819 -12.5863 L -7.41684 -12.6048 L -7.38544 -12.6232 L -7.354 -12.6416 L -7.27092 -12.6895 L -7.23931 -12.7076 L -7.20766 -12.7256 L -7.17596 -12.7435 L -7.14422 -12.7613 L -7.11243 -12.779 L -7.0806 -12.7967 L -7.04873 -12.8143 L -7.01681 -12.8318 L -6.98485 -12.8492 L -6.95284 -12.8666 L -6.9208 -12.8838 L -6.88871 -12.901 L -6.85657 -12.9181 L -6.8244 -12.9352 L -6.79218 -12.9521 L -6.75992 -12.969 L -6.72761 -12.9858 L -6.69527 -13.0025 L -6.66288 -13.0191 L -6.63046 -13.0356 L -6.59799 -13.0521 L -6.56548 -13.0685 L -6.53293 -13.0848 L -6.50034 -13.101 L -6.46771 -13.1171 L -6.43504 -13.1332 L -6.40233 -13.1492 L -6.36958 -13.1651 L -6.33679 -13.1809 L -6.30396 -13.1966 L -6.2711 -13.2123 L -6.23819 -13.2278 L -6.20524 -13.2433 L -6.17226 -13.2587 L -6.13924 -13.274 L -6.08969 -13.2568 L -6.04009 -13.2395 L -5.99045 -13.222 L -5.94078 -13.2045 L -5.89106 -13.1869 L -5.8413 -13.1692 L -5.7915 -13.1514 L -5.74166 -13.1336 L -5.69177 -13.1156 L -5.64185 -13.0975 L -5.59188 -13.0793 L -5.54187 -13.0611 L -5.49182 -13.0427 L -5.44173 -13.0242 L -5.3916 -13.0057 L -5.34142 -12.987 L -5.29121 -12.9682 L -5.24095 -12.9494 L -5.19065 -12.9304 L -5.1403 -12.9113 L -5.08992 -12.8921 L -5.03949 -12.8728 L -4.98902 -12.8534 L -4.93851 -12.8339 L -4.88796 -12.8143 L -4.83737 -12.7946 L -4.78673 -12.7748 L -4.73605 -12.7548 L -4.68533 -12.7347 L -4.63456 -12.7146 L -4.58376 -12.6943 L -4.53291 -12.6739 L -4.48202 -12.6533 L -4.43109 -12.6327 L -4.38012 -12.6119 L -4.3291 -12.591 L -4.27804 -12.57 L -4.22694 -12.5489 L -4.1758 -12.5276 L -4.12462 -12.5063 L -4.07339 -12.4847 L -4.02213 -12.4631 L -3.97082 -12.4413 L -3.91947 -12.4194 L -3.86808 -12.3974 L -3.81664 -12.3753 L -3.76517 -12.353 L -3.71365 -12.3305 L -3.6621 -12.308 L -3.6105 -12.2853 L -3.55886 -12.2624 L -3.50718 -12.2394 L -3.45546 -12.2163 L -3.4037 -12.193 L -3.3519 -12.1696 L -3.30006 -12.1461 L -3.24818 -12.1224 L -3.24818 -12.1224 L -3.2151 -12.1688 L -3.18199 -12.2152 L -3.14883 -12.2613 L -3.11564 -12.3074 L -3.08241 -12.3533 L -3.04915 -12.399 L -3.01585 -12.4446 L -2.98252 -12.4901 L -2.94915 -12.5354 L -2.91575 -12.5806 L -2.88232 -12.6256 L -2.84886 -12.6705 L -2.81536 -12.7153 L -2.78184 -12.7599 L -2.74829 -12.8044 L -2.71471 -12.8488 L -2.6811 -12.893 L -2.64747 -12.9372 L -2.61381 -12.9811 L -2.58012 -13.025 L -2.5464 -13.0687 L -2.51267 -13.1123 L -2.47891 -13.1558 L -2.44512 -13.1991 L -2.41131 -13.2423 L -2.37748 -13.2854 L -2.34363 -13.3284 L -2.30976 -13.3713 L -2.27586 -13.414 L -2.24195 -13.4566 L -2.20801 -13.4991 L -2.17406 -13.5415 L -2.14009 -13.5838 L -2.1061 -13.6259 L -2.07209 -13.6679 L -2.03806 -13.7099 L -2.00402 -13.7517 L -1.96996 -13.7934 L -1.93589 -13.835 L -1.9018 -13.8764 L -1.86769 -13.9178 L -1.83357 -13.959 L -1.79944 -14.0002 L -1.76529 -14.0412 L -1.73113 -14.0822 L -1.69696 -14.123 L -1.66277 -14.1637 L -1.62857 -14.2043 L -1.59436 -14.2448 L -1.56014 -14.2852 L -1.5259 -14.3255 L -1.49166 -14.3657 L -1.4574 -14.4059 L -1.42314 -14.4459 L -1.38886 -14.4858 L -1.35458 -14.5256 L -1.32029 -14.5653 L -1.28403 -14.5685 L -1.24776 -14.5717 L -1.21149 -14.5747 L -1.1752 -14.5777 L -1.13892 -14.5806 L -1.10262 -14.5834 L -1.06632 -14.5861 L -1.03001 -14.5887 L -0.993689 -14.5912 L -0.957367 -14.5936 L -0.921038 -14.596 L -0.884704 -14.5982 L -0.848365 -14.6004 L -0.81202 -14.6024 L -0.77567 -14.6044 L -0.739316 -14.6063 L -0.702956 -14.6081 L -0.666593 -14.6098 L -0.630225 -14.6114 L -0.593853 -14.6129 L -0.557478 -14.6144 L -0.521099 -14.6157 L -0.484717 -14.617 L -0.448332 -14.6181 L -0.411945 -14.6192 L -0.375554 -14.6202 L -0.339162 -14.6211 L -0.302767 -14.6219 L -0.26637 -14.6226 L -0.229972 -14.6232 L -0.193572 -14.6237 L -0.157172 -14.6242 L -0.12077 -14.6245 L -0.0843671 -14.6248 L -0.047964 -14.6249 L 0.047964 -14.6249 L 0.0843671 -14.6248 L 0.12077 -14.6245 L 0.157172 -14.6242 L 0.193572 -14.6237 L 0.229972 -14.6232 L 0.26637 -14.6226 L 0.302767 -14.6219 L 0.339162 -14.6211 L 0.375554 -14.6202 L 0.411945 -14.6192 L 0.448332 -14.6181 L 0.484717 -14.617 L 0.521099 -14.6157 L 0.557478 -14.6144 L 0.593853 -14.6129 L 0.630225 -14.6114 L 0.666593 -14.6098 L 0.702956 -14.6081 L 0.739316 -14.6063 L 0.77567 -14.6044 L 0.81202 -14.6024 L 0.848365 -14.6004 L 0.884704 -14.5982 L 0.921038 -14.596 L 0.957367 -14.5936 L 0.993689 -14.5912 L 1.03001 -14.5887 L 1.06632 -14.5861 L 1.10262 -14.5834 L 1.13892 -14.5806 L 1.1752 -14.5777 L 1.21149 -14.5747 L 1.24776 -14.5717 L 1.28403 -14.5685 L 1.32029 -14.5653 L 1.35458 -14.5256 L 1.38886 -14.4858 L 1.42314 -14.4459 L 1.4574 -14.4059 L 1.49166 -14.3657 L 1.5259 -14.3255 L 1.56014 -14.2852 L 1.59436 -14.2448 L 1.62857 -14.2043 L 1.66277 -14.1637 L 1.69696 -14.123 L 1.73113 -14.0822 L 1.76529 -14.0412 L 1.79944 -14.0002 L 1.83357 -13.959 L 1.86769 -13.9178 L 1.9018 -13.8764 L 1.93589 -13.835 L 1.96996 -13.7934 L 2.00402 -13.7517 L 2.03806 -13.7099 L 2.07209 -13.6679 L 2.1061 -13.6259 L 2.14009 -13.5838 L 2.17406 -13.5415 L 2.20801 -13.4991 L 2.24195 -13.4566 L 2.27586 -13.414 L 2.30976 -13.3713 L 2.34363 -13.3284 L 2.37748 -13.2854 L 2.41131 -13.2423 L 2.44512 -13.1991 L 2.47891 -13.1558 L 2.51267 -13.1123 L 2.5464 -13.0687 L 2.58012 -13.025 L 2.61381 -12.9811 L 2.64747 -12.9372 L 2.6811 -12.893 L 2.71471 -12.8488 L 2.74829 -12.8044 L 2.78184 -12.7599 L 2.81536 -12.7153 L 2.84886 -12.6705 L 2.88232 -12.6256 L 2.91575 -12.5806 L 2.94915 -12.5354 L 2.98252 -12.4901 L 3.01585 -12.4446 L 3.04915 -12.399 L 3.08241 -12.3533 L 3.11564 -12.3074 L 3.14883 -12.2613 L 3.18199 -12.2152 L 3.2151 -12.1688 L 3.24818 -12.1224 L 3.24818 -12.1224 L 3.30006 -12.1461 L 3.3519 -12.1696 L 3.4037 -12.193 L 3.45546 -12.2163 L 3.50718 -12.2394 L 3.55886 -12.2624 L 3.6105 -12.2853 L 3.6621 -12.308 L 3.71365 -12.3305 L 3.76517 -12.353 L 3.81664 -12.3753 L 3.86808 -12.3974 L 3.91947 -12.4194 L 3.97082 -12.4413 L 4.02213 -12.4631 L 4.07339 -12.4847 L 4.12462 -12.5063 L 4.1758 -12.5276 L 4.22694 -12.5489 L 4.27804 -12.57 L 4.3291 -12.591 L 4.38012 -12.6119 L 4.43109 -12.6327 L 4.48202 -12.6533 L 4.53291 -12.6739 L 4.58376 -12.6943 L 4.63456 -12.7146 L 4.68533 -12.7347 L 4.73605 -12.7548 L 4.78673 -12.7748 L 4.83737 -12.7946 L 4.88796 -12.8143 L 4.93851 -12.8339 L 4.98902 -12.8534 L 5.03949 -12.8728 L 5.08992 -12.8921 L 5.1403 -12.9113 L 5.19065 -12.9304 L 5.24095 -12.9494 L 5.29121 -12.9682 L 5.34142 -12.987 L 5.3916 -13.0057 L 5.44173 -13.0242 L 5.49182 -13.0427 L 5.54187 -13.0611 L 5.59188 -13.0793 L 5.64185 -13.0975 L 5.69177 -13.1156 L 5.74166 -13.1336 L 5.7915 -13.1514 L 5.8413 -13.1692 L 5.89106 -13.1869 L 5.94078 -13.2045 L 5.99045 -13.222 L 6.04009 -13.2395 L 6.08969 -13.2568 L 6.13924 -13.274 L 6.17226 -13.2587 L 6.20524 -13.2433 L 6.23819 -13.2278 L 6.2711 -13.2123 L 6.30396 -13.1966 L 6.33679 -13.1809 L 6.36958 -13.1651 L 6.40233 -13.1492 L 6.43504 -13.1332 L 6.46771 -13.1171 L 6.50034 -13.101 L 6.53293 -13.0848 L 6.56548 -13.0685 L 6.59799 -13.0521 L 6.63046 -13.0356 L 6.66288 -13.0191 L 6.69527 -13.0025 L 6.72761 -12.9858 L 6.75992 -12.969 L 6.79218 -12.9521 L 6.8244 -12.9352 L 6.85657 -12.9181 L 6.88871 -12.901 L 6.9208 -12.8838 L 6.95284 -12.8666 L 6.98485 -12.8492 L 7.01681 -12.8318 L 7.04873 -12.8143 L 7.0806 -12.7967 L 7.11243 -12.779 L 7.14422 -12.7613 L 7.17596 -12.7435 L 7.20766 -12.7256 L 7.23931 -12.7076 L 7.27092 -12.6895 L 7.354 -12.6416 L 7.38544 -12.6232 L 7.41684 -12.6048 L 7.44819 -12.5863 L 7.4795 -12.5677 L 7.51076 -12.5491 L 7.54197 -12.5303 L 7.57314 -12.5115 L 7.60426 -12.4926 L 7.63533 -12.4737 L 7.66635 -12.4546 L 7.69733 -12.4355 L 7.72826 -12.4163 L 7.75914 -12.397 L 7.78998 -12.3777 L 7.82076 -12.3582 L 7.8515 -12.3387 L 7.88219 -12.3192 L 7.91283 -12.2995 L 7.94342 -12.2798 L 7.97396 -12.26 L 8.00445 -12.2401 L 8.03489 -12.2201 L 8.06528 -12.2001 L 8.09563 -12.18 L 8.12592 -12.1598 L 8.15616 -12.1395 L 8.18635 -12.1192 L 8.21649 -12.0988 L 8.24658 -12.0783 L 8.27662 -12.0577 L 8.30661 -12.0371 L 8.33655 -12.0163 L 8.36643 -11.9956 L 8.39626 -11.9747 L 8.42604 -11.9538 L 8.43589 -11.9022 L 8.44567 -11.8506 L 8.4554 -11.7989 L 8.46508 -11.7471 L 8.47469 -11.6953 L 8.48424 -11.6433 L 8.49374 -11.5913 L 8.50317 -11.5392 L 8.51254 -11.487 L 8.52185 -11.4347 L 8.5311 -11.3824 L 8.54028 -11.3299 L 8.5494 -11.2774 L 8.55845 -11.2248 L 8.56744 -11.1721 L 8.57636 -11.1193 L 8.58522 -11.0664 L 8.594 -11.0135 L 8.60272 -10.9604 L 8.61137 -10.9073 L 8.61995 -10.8541 L 8.62846 -10.8007 L 8.63689 -10.7473 L 8.64525 -10.6938 L 8.65354 -10.6403 L 8.66176 -10.5866 L 8.66989 -10.5328 L 8.67796 -10.4789 L 8.68594 -10.425 L 8.69385 -10.3709 L 8.70168 -10.3168 L 8.70943 -10.2625 L 8.71709 -10.2082 L 8.72468 -10.1538 L 8.73218 -10.0993 L 8.7396 -10.0446 L 8.74694 -9.98991 L 8.75419 -9.93509 L 8.76135 -9.88017 L 8.76842 -9.82515 L 8.77541 -9.77004 L 8.78231 -9.71482 L 8.78911 -9.6595 L 8.79582 -9.60408 L 8.80244 -9.54856 L 8.80897 -9.49294 L 8.8154 -9.43722 L 8.82173 -9.38139 L 8.82797 -9.32546 L 8.8341 -9.26942 L 8.84014 -9.21328 L 8.84608 -9.15703 L 8.85191 -9.10068 L 8.85764 -9.04422 L 8.86326 -8.98765 L 8.86878 -8.93097 L 8.87419 -8.87419 L 8.87419 -8.87419 L 8.93097 -8.86878 L 8.98765 -8.86326 L 9.04422 -8.85764 L 9.10068 -8.85191 L 9.15703 -8.84608 L 9.21328 -8.84014 L 9.26942 -8.8341 L 9.32546 -8.82797 L 9.38139 -8.82173 L 9.43722 -8.8154 L 9.49294 -8.80897 L 9.54856 -8.80244 L 9.60408 -8.79582 L 9.6595 -8.78911 L 9.71482 -8.78231 L 9.77004 -8.77541 L 9.82515 -8.76842 L 9.88017 -8.76135 L 9.93509 -8.75419 L 9.98991 -8.74694 L 10.0446 -8.7396 L 10.0993 -8.73218 L 10.1538 -8.72468 L 10.2082 -8.71709 L 10.2625 -8.70943 L 10.3168 -8.70168 L 10.3709 -8.69385 L 10.425 -8.68594 L 10.4789 -8.67796 L 10.5328 -8.66989 L 10.5866 -8.66176 L 10.6403 -8.65354 L 10.6938 -8.64525 L 10.7473 -8.63689 L 10.8007 -8.62846 L 10.8541 -8.61995 L 10.9073 -8.61137 L 10.9604 -8.60272 L 11.0135 -8.594 L 11.0664 -8.58522 L 11.1193 -8.57636 L 11.1721 -8.56744 L 11.2248 -8.55845 L 11.2774 -8.5494 L 11.3299 -8.54028 L 11.3824 -8.5311 L 11.4347 -8.52185 L 11.487 -8.51254 L 11.5392 -8.50317 L 11.5913 -8.49374 L 11.6433 -8.48424 L 11.6953 -8.47469 L 11.7471 -8.46508 L 11.7989 -8.4554 L 11.8506 -8.44567 L 11.9022 -8.43589 L 11.9538 -8.42604 L 11.9747 -8.39626 L 11.9956 -8.36643 L 12.0163 -8.33655 L 12.0371 -8.30661 L 12.0577 -8.27662 L 12.0783 -8.24658 L 12.0988 -8.21649 L 12.1192 -8.18635 L 12.1395 -8.15616 L 12.1598 -8.12592 L 12.18 -8.09563 L 12.2001 -8.06528 L 12.2201 -8.03489 L 12.2401 -8.00445 L 12.26 -7.97396 L 12.2798 -7.94342 L 12.2995 -7.91283 L 12.3192 -7.88219 L 12.3387 -7.8515 L 12.3582 -7.82076 L 12.3777 -7.78998 L 12.397 -7.75914 L 12.4163 -7.72826 L 12.4355 -7.69733 L 12.4546 -7.66635 L 12.4737 -7.63533 L 12.4926 -7.60426 L 12.5115 -7.57314 L 12.5303 -7.54197 L 12.5491 -7.51076 L 12.5677 -7.4795 L 12.5863 -7.44819 L 12.6048 -7.41684 L 12.6232 -7.38544 L 12.6416 -7.354 L 12.6895 -7.27092 L 12.7076 -7.23931 L 12.7256 -7.20766 L 12.7435 -7.17596 L 12.7613 -7.14422 L 12.779 -7.11243 L 12.7967 -7.0806 L 12.8143 -7.04873 L 12.8318 -7.01681 L 12.8492 -6.98485 L 12.8666 -6.95284 L 12.8838 -6.9208 L 12.901 -6.88871 L 12.9181 -6.85657 L 12.9352 -6.8244 L 12.9521 -6.79218 L 12.969 -6.75992 L 12.9858 -6.72761 L 13.0025 -6.69527 L 13.0191 -6.66288 L 13.0356 -6.63046 L 13.0521 -6.59799 L 13.0685 -6.56548 L 13.0848 -6.53293 L 13.101 -6.50034 L 13.1171 -6.46771 L 13.1332 -6.43504 L 13.1492 -6.40233 L 13.1651 -6.36958 L 13.1809 -6.33679 L 13.1966 -6.30396 L 13.2123 -6.2711 L 13.2278 -6.23819 L 13.2433 -6.20524 L 13.2587 -6.17226 L 13.274 -6.13924 L 13.2568 -6.08969 L 13.2395 -6.04009 L 13.222 -5.99045 L 13.2045 -5.94078 L 13.1869 -5.89106 L 13.1692 -5.8413 L 13.1514 -5.7915 L 13.1336 -5.74166 L 13.1156 -5.69177 L 13.0975 -5.64185 L 13.0793 -5.59188 L 13.0611 -5.54187 L 13.0427 -5.49182 L 13.0242 -5.44173 L 13.0057 -5.3916 L 12.987 -5.34142 L 12.9682 -5.29121 L 12.9494 -5.24095 L 12.9304 -5.19065 L 12.9113 -5.1403 L 12.8921 -5.08992 L 12.8728 -5.03949 L 12.8534 -4.98902 L 12.8339 -4.93851 L 12.8143 -4.88796 L 12.7946 -4.83737 L 12.7748 -4.78673 L 12.7548 -4.73605 L 12.7347 -4.68533 L 12.7146 -4.63456 L 12.6943 -4.58376 L 12.6739 -4.53291 L 12.6533 -4.48202 L 12.6327 -4.43109 L 12.6119 -4.38012 L 12.591 -4.3291 L 12.57 -4.27804 L 12.5489 -4.22694 L 12.5276 -4.1758 L 12.5063 -4.12462 L 12.4847 -4.07339 L 12.4631 -4.02213 L 12.4413 -3.97082 L 12.4194 -3.91947 L 12.3974 -3.86808 L 12.3753 -3.81664 L 12.353 -3.76517 L 12.3305 -3.71365 L 12.308 -3.6621 L 12.2853 -3.6105 L 12.2624 -3.55886 L 12.2394 -3.50718 L 12.2163 -3.45546 L 12.193 -3.4037 L 12.1696 -3.3519 L 12.1461 -3.30006 L 12.1224 -3.24818 L 12.1224 -3.24818 L 12.1688 -3.2151 L 12.2152 -3.18199 L 12.2613 -3.14883 L 12.3074 -3.11564 L 12.3533 -3.08241 L 12.399 -3.04915 L 12.4446 -3.01585 L 12.4901 -2.98252 L 12.5354 -2.94915 L 12.5806 -2.91575 L 12.6256 -2.88232 L 12.6705 -2.84886 L 12.7153 -2.81536 L 12.7599 -2.78184 L 12.8044 -2.74829 L 12.8488 -2.71471 L 12.893 -2.6811 L 12.9372 -2.64747 L 12.9811 -2.61381 L 13.025 -2.58012 L 13.0687 -2.5464 L 13.1123 -2.51267 L 13.1558 -2.47891 L 13.1991 -2.44512 L 13.2423 -2.41131 L 13.2854 -2.37748 L 13.3284 -2.34363 L 13.3713 -2.30976 L 13.414 -2.27586 L 13.4566 -2.24195 L 13.4991 -2.20801 L 13.5415 -2.17406 L 13.5838 -2.14009 L 13.6259 -2.1061 L 13.6679 -2.07209 L 13.7099 -2.03806 L 13.7517 -2.00402 L 13.7934 -1.96996 L 13.835 -1.93589 L 13.8764 -1.9018 L 13.9178 -1.86769 L 13.959 -1.83357 L 14.0002 -1.79944 L 14.0412 -1.76529 L 14.0822 -1.73113 L 14.123 -1.69696 L 14.1637 -1.66277 L 14.2043 -1.62857 L 14.2448 -1.59436 L 14.2852 -1.56014 L 14.3255 -1.5259 L 14.3657 -1.49166 L 14.4059 -1.4574 L 14.4459 -1.42314 L 14.4858 -1.38886 L 14.5256 -1.35458 L 14.5653 -1.32029 L 14.5685 -1.28403 L 14.5717 -1.24776 L 14.5747 -1.21149 L 14.5777 -1.1752 L 14.5806 -1.13892 L 14.5834 -1.10262 L 14.5861 -1.06632 L 14.5887 -1.03001 L 14.5912 -0.993689 L 14.5936 -0.957367 L 14.596 -0.921038 L 14.5982 -0.884704 L 14.6004 -0.848365 L 14.6024 -0.81202 L 14.6044 -0.77567 L 14.6063 -0.739316 L 14.6081 -0.702956 L 14.6098 -0.666593 L 14.6114 -0.630225 L 14.6129 -0.593853 L 14.6144 -0.557478 L 14.6157 -0.521099 L 14.617 -0.484717 L 14.6181 -0.448332 L 14.6192 -0.411945 L 14.6202 -0.375554 L 14.6211 -0.339162 L 14.6219 -0.302767 L 14.6226 -0.26637 L 14.6232 -0.229972 L 14.6237 -0.193572 L 14.6242 -0.157172 L 14.6245 -0.12077 L 14.6248 -0.0843671 L 14.6249 -0.047964Z"
id="path1" />
</g>
</svg>
