<?xml version="1.0" encoding="UTF-8" standalone="no"?>
<svg version="1.1">
<g
style="fill:none;stroke:#000000;stroke-opacity:1;stroke-width:0.1">
<path d="M 15.5 0.0377006 L 15.4998 0.0701223 L 15.4997 0.102544 L 15.4994 0.134965 L 15.4991 0.167385 L 15.4987 0.199804 L 15.4983 0.232223 L 15.4977 0.264641 L 15.4972 0.297057 L 15.4965 0.329473 L 15.4958 0.361887 L 15.495 0.394299 L 15.4941 0.426709 L 15.4932 0.459118 L 15.4922 0.491524 L 15.4911 0.523929 L 15.49 0.556331 L 15.4888 0.588731 L 15.4875 0.621128 L 15.4862 0.653522 L 15.4848 0.685914 L 15.4833 0.718303 L 15.4818 0.750688 L 15.4802 0.78307 L 15.4785 0.815449 L 15.4768 0.847824 L 15.475 0.880196 L 15.4731 0.912563 L 15.4712 0.944927 L 15.4692 0.977286 L 15.4671 1.00964 L 15.4649 1.04199 L 15.4627 1.07434 L 15.4604 1.10668 L 15.4581 1.13902 L 15.4557 1.17135 L 15.4532 1.20368 L 15.4506 1.236 L 15.448 1.26831 L 15.4453 1.30062 L 15.4426 1.33293 L 15.4398 1.36523 L 15.4369 1.39752 L 15.4339 1.42981 L 15.3987 1.45799 L 15.3634 1.48617 L 15.3281 1.51435 L 15.2927 1.54252 L 15.2573 1.57068 L 15.2217 1.59884 L 15.1861 1.62699 L 15.1505 1.65513 L 15.1148 1.68326 L 15.079 1.71139 L 15.0431 1.73951 L 15.0072 1.76762 L 14.9712 1.79572 L 14.9351 1.82382 L 14.899 1.85191 L 14.8628 1.87999 L 14.8266 1.90806 L 14.7902 1.93612 L 14.7538 1.96417 L 14.7173 1.99221 L 14.6808 2.02024 L 14.6442 2.04827 L 14.6075 2.07628 L 14.5707 2.10428 L 14.5339 2.13227 L 14.497 2.16025 L 14.46 2.18822 L 14.4229 2.21618 L 14.3858 2.24413 L 14.3486 2.27206 L 14.3113 2.29999 L 14.2739 2.3279 L 14.2365 2.3558 L 14.199 2.38368 L 14.1614 2.41156 L 14.1237 2.43942 L 14.0859 2.46726 L 14.0481 2.49509 L 14.0102 2.52291 L 13.9722 2.55071 L 13.9341 2.5785 L 13.896 2.60627 L 13.8577 2.63403 L 13.8194 2.66178 L 13.781 2.6895 L 13.7425 2.71721 L 13.704 2.7449 L 13.6653 2.77258 L 13.6266 2.80024 L 13.5878 2.82788 L 13.5488 2.85551 L 13.5098 2.88311 L 13.4708 2.9107 L 13.4316 2.93826 L 13.3923 2.96581 L 13.353 2.99334 L 13.3135 3.02085 L 13.274 3.04834 L 13.2344 3.0758 L 13.1947 3.10325 L 13.1549 3.13067 L 13.115 3.15808 L 13.075 3.18546 L 13.0349 3.21281 L 13.0349 3.21281 L 13.0577 3.25566 L 13.0804 3.29849 L 13.103 3.3413 L 13.1255 3.38408 L 13.1479 3.42684 L 13.1702 3.46957 L 13.1924 3.51228 L 13.2146 3.55497 L 13.2366 3.59763 L 13.2586 3.64027 L 13.2804 3.68288 L 13.3022 3.72547 L 13.3239 3.76804 L 13.3455 3.81058 L 13.3671 3.8531 L 13.3885 3.89559 L 13.4099 3.93806 L 13.4312 3.98051 L 13.4524 4.02293 L 13.4735 4.06532 L 13.4945 4.1077 L 13.5155 4.15004 L 13.5364 4.19237 L 13.5572 4.23466 L 13.5779 4.27694 L 13.5985 4.31919 L 13.6191 4.36141 L 13.6396 4.40361 L 13.66 4.44579 L 13.6803 4.48794 L 13.7006 4.53007 L 13.7208 4.57217 L 13.7409 4.61425 L 13.7609 4.6563 L 13.7809 4.69833 L 13.8008 4.74033 L 13.8206 4.78231 L 13.8403 4.82426 L 13.86 4.86619 L 13.8796 4.9081 L 13.8992 4.94998 L 13.9186 4.99183 L 13.938 5.03367 L 13.9574 5.07547 L 13.9766 5.11725 L 13.9958 5.15901 L 14.015 5.20074 L 14.034 5.24245 L 14.0531 5.28414 L 14.072 5.3258 L 14.0909 5.36743 L 14.1097 5.40904 L 14.1284 5.45063 L 14.1471 5.49219 L 14.1657 5.53373 L 14.1843 5.57524 L 14.2028 5.61673 L 14.2212 5.65819 L 14.2396 5.69963 L 14.2579 5.74105 L 14.2761 5.78244 L 14.2943 5.82381 L 14.3124 5.86515 L 14.3305 5.90647 L 14.3181 5.93643 L 14.3057 5.96637 L 14.2932 5.99628 L 14.2806 6.02616 L 14.268 6.05602 L 14.2553 6.08585 L 14.2425 6.11566 L 14.2297 6.14543 L 14.2168 6.17518 L 14.2038 6.20491 L 14.1908 6.23461 L 14.1778 6.26428 L 14.1646 6.29392 L 14.1514 6.32353 L 14.1382 6.35312 L 14.1249 6.38268 L 14.1115 6.41221 L 14.098 6.44171 L 14.0845 6.47119 L 14.071 6.50064 L 14.0573 6.53005 L 14.0436 6.55944 L 14.0299 6.58881 L 14.0161 6.61814 L 14.0022 6.64744 L 13.9883 6.67672 L 13.9743 6.70596 L 13.9602 6.73518 L 13.9461 6.76436 L 13.9319 6.79352 L 13.9177 6.82265 L 13.9034 6.85174 L 13.889 6.88081 L 13.8746 6.90985 L 13.8601 6.93885 L 13.8456 6.96783 L 13.8309 6.99678 L 13.8163 7.02569 L 13.8016 7.05458 L 13.7868 7.08343 L 13.7719 7.11225 L 13.757 7.14105 L 13.742 7.16981 L 13.707 7.23657 L 13.6918 7.26523 L 13.6766 7.29385 L 13.6613 7.32244 L 13.646 7.351 L 13.6306 7.37953 L 13.6151 7.40802 L 13.5996 7.43649 L 13.584 7.46492 L 13.5684 7.49332 L 13.5527 7.52168 L 13.5369 7.55001 L 13.5211 7.57831 L 13.5052 7.60658 L 13.4892 7.63481 L 13.4732 7.66301 L 13.4572 7.69117 L 13.4411 7.71931 L 13.4249 7.7474 L 13.4087 7.77547 L 13.3924 7.8035 L 13.376 7.8315 L 13.3596 7.85946 L 13.3431 7.88739 L 13.3266 7.91528 L 13.31 7.94314 L 13.2934 7.97096 L 13.2767 7.99875 L 13.2599 8.0265 L 13.2431 8.05422 L 13.2262 8.0819 L 13.2093 8.10955 L 13.1923 8.13717 L 13.1752 8.16474 L 13.1581 8.19228 L 13.141 8.21979 L 13.1237 8.24726 L 13.1065 8.27469 L 13.0891 8.30209 L 13.0717 8.32945 L 13.0543 8.35677 L 13.0368 8.38406 L 13.0192 8.41131 L 13.0016 8.43853 L 12.9573 8.44713 L 12.913 8.45569 L 12.8686 8.46422 L 12.8242 8.47271 L 12.7797 8.48117 L 12.7352 8.48959 L 12.6906 8.49798 L 12.6459 8.50632 L 12.6012 8.51464 L 12.5564 8.52291 L 12.5116 8.53114 L 12.4668 8.53934 L 12.4218 8.5475 L 12.3768 8.55562 L 12.3318 8.5637 L 12.2867 8.57174 L 12.2415 8.57974 L 12.1963 8.5877 L 12.1511 8.59562 L 12.1057 8.6035 L 12.0603 8.61134 L 12.0149 8.61913 L 11.9694 8.62689 L 11.9238 8.63459 L 11.8782 8.64226 L 11.8325 8.64988 L 11.7868 8.65746 L 11.7409 8.66499 L 11.6951 8.67248 L 11.6491 8.67993 L 11.6032 8.68732 L 11.5571 8.69467 L 11.511 8.70198 L 11.4648 8.70923 L 11.4186 8.71644 L 11.3723 8.7236 L 11.3259 8.73072 L 11.2795 8.73778 L 11.233 8.74479 L 11.1864 8.75175 L 11.1398 8.75867 L 11.0931 8.76553 L 11.0463 8.77234 L 10.9995 8.77909 L 10.9526 8.7858 L 10.9057 8.79245 L 10.8586 8.79905 L 10.8116 8.80559 L 10.7644 8.81208 L 10.7172 8.81851 L 10.6699 8.82489 L 10.6225 8.83121 L 10.5751 8.83747 L 10.5276 8.84368 L 10.48 8.84982 L 10.4324 8.85591 L 10.3847 8.86194 L 10.3369 8.86791 L 10.2891 8.87382 L 10.2412 8.87966 L 10.1932 8.88545 L 10.1451 8.89117 L 10.097 8.89683 L 10.0488 8.90242 L 10.0488 8.90242 L 10.049 8.95095 L 10.0492 8.99942 L 10.0493 9.04782 L 10.0494 9.09616 L 10.0493 9.14443 L 10.0492 9.19264 L 10.0491 9.24079 L 10.0488 9.28887 L 10.0485 9.3369 L 10.0482 9.38486 L 10.0477 9.43276 L 10.0472 9.48059 L 10.0467 9.52837 L 10.046 9.57608 L 10.0453 9.62374 L 10.0446 9.67133 L 10.0438 9.71887 L 10.0429 9.76634 L 10.0419 9.81375 L 10.0409 9.86111 L 10.0399 9.9084 L 10.0387 9.95564 L 10.0376 10.0028 L 10.0363 10.0499 L 10.035 10.097 L 10.0337 10.144 L 10.0322 10.1909 L 10.0308 10.2378 L 10.0292 10.2847 L 10.0277 10.3314 L 10.026 10.3781 L 10.0243 10.4248 L 10.0226 10.4714 L 10.0208 10.518 L 10.0189 10.5645 L 10.017 10.6109 L 10.0151 10.6573 L 10.0131 10.7036 L 10.011 10.7499 L 10.0089 10.7961 L 10.0067 10.8423 L 10.0045 10.8884 L 10.0023 10.9344 L 9.99996 10.9804 L 9.9976 11.0264 L 9.9952 11.0723 L 9.99274 11.1181 L 9.99024 11.1639 L 9.9877 11.2096 L 9.98511 11.2553 L 9.98247 11.301 L 9.97978 11.3466 L 9.97705 11.3921 L 9.97428 11.4376 L 9.97146 11.483 L 9.9686 11.5284 L 9.96569 11.5737 L 9.96275 11.619 L 9.95975 11.6642 L 9.95672 11.7094 L 9.95364 11.7545 L 9.95053 11.7996 L 9.94737 11.8447 L 9.94417 11.8896 L 9.91928 11.9104 L 9.89434 11.9311 L 9.86936 11.9518 L 9.84434 11.9724 L 9.81928 11.993 L 9.79417 12.0135 L 9.76902 12.034 L 9.74383 12.0544 L 9.71859 12.0747 L 9.69331 12.095 L 9.66799 12.1153 L 9.64263 12.1355 L 9.61722 12.1556 L 9.59178 12.1757 L 9.56629 12.1957 L 9.54075 12.2157 L 9.51518 12.2357 L 9.48957 12.2555 L 9.46391 12.2754 L 9.43821 12.2951 L 9.41248 12.3148 L 9.3867 12.3345 L 9.36087 12.3541 L 9.33501 12.3737 L 9.30911 12.3932 L 9.28317 12.4126 L 9.25718 12.432 L 9.23116 12.4513 L 9.20509 12.4706 L 9.17899 12.4898 L 9.15284 12.509 L 9.12666 12.5281 L 9.10043 12.5472 L 9.07416 12.5662 L 9.04786 12.5852 L 9.02152 12.6041 L 8.99513 12.6229 L 8.96871 12.6417 L 8.94225 12.6604 L 8.91574 12.6791 L 8.8892 12.6977 L 8.86262 12.7163 L 8.836 12.7348 L 8.77395 12.7776 L 8.7472 12.796 L 8.72042 12.8142 L 8.6936 12.8324 L 8.66674 12.8506 L 8.63984 12.8687 L 8.6129 12.8867 L 8.58592 12.9047 L 8.55891 12.9227 L 8.53186 12.9405 L 8.50478 12.9583 L 8.47765 12.9761 L 8.45049 12.9938 L 8.42329 13.0115 L 8.39606 13.0291 L 8.36879 13.0466 L 8.34148 13.0641 L 8.31413 13.0815 L 8.28675 13.0988 L 8.25934 13.1161 L 8.23188 13.1334 L 8.20439 13.1506 L 8.17687 13.1677 L 8.14931 13.1848 L 8.12171 13.2018 L 8.09408 13.2188 L 8.06641 13.2357 L 8.03871 13.2525 L 8.01097 13.2693 L 7.98319 13.286 L 7.95539 13.3027 L 7.92754 13.3193 L 7.89966 13.3359 L 7.87175 13.3524 L 7.84381 13.3688 L 7.81582 13.3852 L 7.78781 13.4015 L 7.75976 13.4178 L 7.73168 13.434 L 7.70356 13.4501 L 7.67541 13.4662 L 7.64722 13.4822 L 7.61901 13.4982 L 7.59075 13.5141 L 7.54756 13.5011 L 7.50433 13.4881 L 7.46107 13.475 L 7.41778 13.4619 L 7.37446 13.4487 L 7.33111 13.4355 L 7.28773 13.4222 L 7.24431 13.4088 L 7.20087 13.3954 L 7.15739 13.3819 L 7.11388 13.3684 L 7.07034 13.3548 L 7.02676 13.3411 L 6.98316 13.3274 L 6.93952 13.3137 L 6.89585 13.2998 L 6.85214 13.2859 L 6.80841 13.272 L 6.76464 13.2579 L 6.72084 13.2438 L 6.67701 13.2297 L 6.63315 13.2155 L 6.58925 13.2012 L 6.54532 13.1868 L 6.50135 13.1724 L 6.45736 13.1579 L 6.41333 13.1434 L 6.36927 13.1288 L 6.32517 13.1141 L 6.28104 13.0993 L 6.23688 13.0845 L 6.19269 13.0696 L 6.14846 13.0546 L 6.1042 13.0396 L 6.0599 13.0245 L 6.01557 13.0093 L 5.97121 12.9941 L 5.92682 12.9787 L 5.88239 12.9633 L 5.83792 12.9479 L 5.79343 12.9323 L 5.7489 12.9167 L 5.70433 12.901 L 5.65973 12.8852 L 5.6151 12.8694 L 5.57043 12.8534 L 5.52573 12.8374 L 5.481 12.8213 L 5.43623 12.8052 L 5.39142 12.7889 L 5.34659 12.7726 L 5.30171 12.7562 L 5.25681 12.7397 L 5.21187 12.7231 L 5.16689 12.7064 L 5.12188 12.6897 L 5.07684 12.6729 L 5.03176 12.6559 L 4.98665 12.6389 L 4.9415 12.6218 L 4.89632 12.6047 L 4.85111 12.5874 L 4.80586 12.57 L 4.76057 12.5526 L 4.76057 12.5526 L 4.73825 12.5957 L 4.71589 12.6387 L 4.69349 12.6816 L 4.67107 12.7244 L 4.64861 12.7671 L 4.62612 12.8098 L 4.60359 12.8523 L 4.58104 12.8948 L 4.55846 12.9372 L 4.53584 12.9795 L 4.5132 13.0217 L 4.49052 13.0638 L 4.46782 13.1059 L 4.44509 13.1478 L 4.42233 13.1897 L 4.39954 13.2315 L 4.37672 13.2732 L 4.35388 13.3148 L 4.33101 13.3564 L 4.30812 13.3978 L 4.28519 13.4392 L 4.26225 13.4805 L 4.23928 13.5217 L 4.21628 13.5629 L 4.19326 13.6039 L 4.17021 13.6449 L 4.14714 13.6858 L 4.12405 13.7267 L 4.10094 13.7674 L 4.0778 13.8081 L 4.05464 13.8487 L 4.03146 13.8892 L 4.00825 13.9297 L 3.98503 13.9701 L 3.96178 14.0104 L 3.93851 14.0506 L 3.91523 14.0908 L 3.89192 14.1309 L 3.86859 14.1709 L 3.84524 14.2108 L 3.82188 14.2507 L 3.79849 14.2905 L 3.77509 14.3302 L 3.75166 14.3699 L 3.72822 14.4095 L 3.70476 14.449 L 3.68129 14.4885 L 3.65779 14.5278 L 3.63428 14.5672 L 3.61076 14.6064 L 3.58721 14.6456 L 3.56365 14.6847 L 3.54007 14.7238 L 3.51648 14.7627 L 3.49287 14.8017 L 3.46925 14.8405 L 3.44561 14.8793 L 3.42196 14.918 L 3.39829 14.9567 L 3.37461 14.9953 L 3.35091 15.0338 L 3.3272 15.0723 L 3.30347 15.1107 L 3.27973 15.149 L 3.24804 15.1559 L 3.21633 15.1626 L 3.18461 15.1693 L 3.15287 15.1759 L 3.12112 15.1825 L 3.08935 15.189 L 3.05758 15.1954 L 3.02578 15.2018 L 2.99398 15.2081 L 2.96216 15.2143 L 2.93033 15.2205 L 2.89849 15.2266 L 2.86663 15.2326 L 2.83476 15.2386 L 2.80288 15.2445 L 2.77099 15.2503 L 2.73908 15.2561 L 2.70716 15.2618 L 2.67523 15.2674 L 2.64329 15.2729 L 2.61134 15.2784 L 2.57938 15.2839 L 2.5474 15.2892 L 2.51541 15.2945 L 2.48342 15.2998 L 2.45141 15.3049 L 2.41939 15.31 L 2.38736 15.315 L 2.35532 15.32 L 2.32327 15.3249 L 2.29121 15.3297 L 2.25914 15.3345 L 2.22706 15.3392 L 2.19497 15.3438 L 2.16287 15.3484 L 2.13076 15.3528 L 2.09864 15.3573 L 2.06651 15.3616 L 2.03437 15.3659 L 2.00223 15.3701 L 1.97007 15.3743 L 1.93791 15.3784 L 1.90574 15.3824 L 1.83089 15.3915 L 1.79869 15.3953 L 1.76648 15.399 L 1.73427 15.4027 L 1.70205 15.4063 L 1.66982 15.4098 L 1.63758 15.4133 L 1.60533 15.4166 L 1.57308 15.42 L 1.54083 15.4232 L 1.50856 15.4264 L 1.47629 15.4295 L 1.44401 15.4326 L 1.41173 15.4356 L 1.37944 15.4385 L 1.34714 15.4413 L 1.31484 15.4441 L 1.28253 15.4468 L 1.25022 15.4495 L 1.2179 15.4521 L 1.18558 15.4546 L 1.15325 15.457 L 1.12091 15.4594 L 1.08857 15.4617 L 1.05623 15.464 L 1.02388 15.4661 L 0.991526 15.4683 L 0.959168 15.4703 L 0.926806 15.4723 L 0.89444 15.4742 L 0.862071 15.476 L 0.829697 15.4778 L 0.79732 15.4795 L 0.764939 15.4811 L 0.732555 15.4827 L 0.700168 15.4842 L 0.667778 15.4856 L 0.635384 15.487 L 0.602988 15.4883 L 0.57059 15.4895 L 0.538189 15.4907 L 0.505785 15.4917 L 0.47338 15.4928 L 0.440972 15.4937 L 0.408746 15.4622 L 0.37652 15.4306 L 0.344291 15.3989 L 0.312061 15.3671 L 0.27983 15.3353 L 0.247597 15.3035 L 0.215364 15.2715 L 0.183129 15.2395 L 0.150894 15.2075 L 0.118658 15.1753 L 0.0864216 15.1431 L 0.0541848 15.1108 L 0.0219477 15.0785 L -0.0102895 15.0461 L -0.0425266 15.0136 L -0.0747636 14.9811 L -0.107 14.9484 L -0.139236 14.9158 L -0.171472 14.883 L -0.203706 14.8502 L -0.23594 14.8173 L -0.268172 14.7843 L -0.300403 14.7512 L -0.332633 14.7181 L -0.364861 14.6849 L -0.397087 14.6517 L -0.429311 14.6183 L -0.461533 14.5849 L -0.493753 14.5514 L -0.52597 14.5178 L -0.558184 14.4842 L -0.590395 14.4504 L -0.622603 14.4166 L -0.654807 14.3828 L -0.687008 14.3488 L -0.719206 14.3148 L -0.751399 14.2806 L -0.783588 14.2464 L -0.815772 14.2122 L -0.847952 14.1778 L -0.880127 14.1433 L -0.912297 14.1088 L -0.944461 14.0742 L -0.97662 14.0395 L -1.00877 14.0047 L -1.04092 13.9699 L -1.07306 13.9349 L -1.10519 13.8999 L -1.13732 13.8648 L -1.16944 13.8295 L -1.20155 13.7943 L -1.23366 13.7589 L -1.26575 13.7234 L -1.29784 13.6878 L -1.32992 13.6522 L -1.36199 13.6164 L -1.39405 13.5806 L -1.42611 13.5447 L -1.45815 13.5086 L -1.49018 13.4725 L -1.5222 13.4363 L -1.55422 13.4 L -1.58622 13.3636 L -1.6182 13.3271 L -1.6182 13.3271 L -1.658 13.3549 L -1.69778 13.3826 L -1.73755 13.4102 L -1.77731 13.4377 L -1.81705 13.4651 L -1.85678 13.4924 L -1.8965 13.5196 L -1.93621 13.5467 L -1.9759 13.5737 L -2.01558 13.6007 L -2.05525 13.6275 L -2.0949 13.6543 L -2.13454 13.681 L -2.17417 13.7076 L -2.21378 13.7341 L -2.25338 13.7605 L -2.29297 13.7868 L -2.33254 13.813 L -2.37209 13.8392 L -2.41163 13.8653 L -2.45116 13.8913 L -2.49067 13.9172 L -2.53017 13.943 L -2.56966 13.9687 L -2.60912 13.9944 L -2.64858 14.02 L -2.68802 14.0455 L -2.72744 14.0709 L -2.76685 14.0963 L -2.80624 14.1215 L -2.84562 14.1467 L -2.88498 14.1718 L -2.92432 14.1969 L -2.96366 14.2218 L -3.00297 14.2467 L -3.04227 14.2715 L -3.08155 14.2963 L -3.12082 14.3209 L -3.16007 14.3455 L -3.19931 14.37 L -3.23853 14.3945 L -3.27773 14.4189 L -3.31692 14.4432 L -3.35609 14.4674 L -3.39525 14.4916 L -3.43438 14.5157 L -3.47351 14.5397 L -3.51261 14.5636 L -3.5517 14.5875 L -3.59077 14.6113 L -3.62983 14.6351 L -3.66887 14.6588 L -3.70789 14.6824 L -3.7469 14.706 L -3.78589 14.7294 L -3.82486 14.7529 L -3.86382 14.7762 L -3.90276 14.7995 L -3.94168 14.8228 L -3.98059 14.8459 L -4.01948 14.869 L -4.05835 14.8921 L -4.09721 14.9151 L -4.13605 14.938 L -4.16729 14.9293 L -4.19851 14.9205 L -4.22971 14.9117 L -4.26089 14.9028 L -4.29205 14.8939 L -4.3232 14.8849 L -4.35432 14.8758 L -4.38543 14.8667 L -4.41652 14.8575 L -4.44758 14.8482 L -4.47863 14.8389 L -4.50966 14.8295 L -4.54067 14.82 L -4.57166 14.8105 L -4.60263 14.8009 L -4.63358 14.7912 L -4.66451 14.7815 L -4.69542 14.7717 L -4.72631 14.7618 L -4.75717 14.7519 L -4.78802 14.7419 L -4.81885 14.7319 L -4.84965 14.7218 L -4.88043 14.7116 L -4.9112 14.7014 L -4.94194 14.6911 L -4.97266 14.6807 L -5.00335 14.6703 L -5.03403 14.6598 L -5.06468 14.6492 L -5.09531 14.6386 L -5.12592 14.6279 L -5.15651 14.6171 L -5.18707 14.6063 L -5.21761 14.5954 L -5.24813 14.5845 L -5.27863 14.5735 L -5.3091 14.5624 L -5.33955 14.5513 L -5.36997 14.5401 L -5.40038 14.5288 L -5.43075 14.5175 L -5.46111 14.5061 L -5.53161 14.4793 L -5.56188 14.4677 L -5.59214 14.4561 L -5.62236 14.4443 L -5.65256 14.4326 L -5.68274 14.4207 L -5.71289 14.4088 L -5.74302 14.3968 L -5.77312 14.3848 L -5.8032 14.3726 L -5.83325 14.3605 L -5.86327 14.3482 L -5.89327 14.3359 L -5.92325 14.3236 L -5.95319 14.3112 L -5.98312 14.2987 L -6.01301 14.2861 L -6.04288 14.2735 L -6.07273 14.2609 L -6.10254 14.2481 L -6.13233 14.2353 L -6.1621 14.2225 L -6.19183 14.2095 L -6.22154 14.1966 L -6.25122 14.1835 L -6.28088 14.1704 L -6.3105 14.1572 L -6.3401 14.144 L -6.36967 14.1307 L -6.39922 14.1174 L -6.42873 14.1039 L -6.45822 14.0905 L -6.48768 14.0769 L -6.51711 14.0633 L -6.54651 14.0497 L -6.57589 14.0359 L -6.60523 14.0222 L -6.63455 14.0083 L -6.66384 13.9944 L -6.69309 13.9804 L -6.72232 13.9664 L -6.75152 13.9523 L -6.78069 13.9382 L -6.80983 13.9239 L -6.8237 13.881 L -6.83755 13.8381 L -6.85136 13.795 L -6.86515 13.752 L -6.87891 13.7088 L -6.89264 13.6656 L -6.90634 13.6224 L -6.92001 13.579 L -6.93365 13.5357 L -6.94726 13.4922 L -6.96083 13.4487 L -6.97438 13.4052 L -6.98789 13.3615 L -7.00138 13.3179 L -7.01483 13.2741 L -7.02825 13.2303 L -7.04163 13.1865 L -7.05499 13.1425 L -7.0683 13.0986 L -7.08159 13.0545 L -7.09484 13.0104 L -7.10806 12.9662 L -7.12124 12.922 L -7.13438 12.8777 L -7.14749 12.8333 L -7.16057 12.7889 L -7.1736 12.7444 L -7.1866 12.6998 L -7.19956 12.6552 L -7.21249 12.6105 L -7.22538 12.5657 L -7.23823 12.5209 L -7.25103 12.476 L -7.2638 12.431 L -7.27653 12.386 L -7.28922 12.3409 L -7.30187 12.2957 L -7.31448 12.2504 L -7.32705 12.2051 L -7.33957 12.1597 L -7.35205 12.1143 L -7.36449 12.0688 L -7.37689 12.0232 L -7.38924 11.9775 L -7.40155 11.9318 L -7.41381 11.886 L -7.42603 11.8401 L -7.4382 11.7941 L -7.45032 11.7481 L -7.4624 11.702 L -7.47443 11.6558 L -7.48641 11.6096 L -7.49835 11.5632 L -7.51023 11.5168 L -7.52207 11.4704 L -7.53385 11.4238 L -7.54559 11.3772 L -7.55727 11.3305 L -7.56891 11.2837 L -7.58049 11.2368 L -7.59201 11.1899 L -7.60349 11.1428 L -7.6149 11.0957 L -7.62627 11.0486 L -7.62627 11.0486 L -7.67441 11.0547 L -7.7225 11.0607 L -7.77054 11.0666 L -7.81852 11.0725 L -7.86644 11.0783 L -7.91432 11.084 L -7.96213 11.0896 L -8.0099 11.0952 L -8.0576 11.1007 L -8.10526 11.1061 L -8.15286 11.1115 L -8.20041 11.1167 L -8.24791 11.1219 L -8.29535 11.127 L -8.34274 11.1321 L -8.39008 11.1371 L -8.43736 11.142 L -8.4846 11.1469 L -8.53178 11.1516 L -8.57891 11.1563 L -8.62599 11.161 L -8.67301 11.1656 L -8.71999 11.1701 L -8.76691 11.1745 L -8.81379 11.1789 L -8.86061 11.1832 L -8.90738 11.1875 L -8.95411 11.1917 L -9.00078 11.1958 L -9.0474 11.1999 L -9.09398 11.2039 L -9.1405 11.2078 L -9.18698 11.2117 L -9.2334 11.2155 L -9.27978 11.2193 L -9.32611 11.223 L -9.37239 11.2266 L -9.41862 11.2302 L -9.4648 11.2338 L -9.51094 11.2372 L -9.55703 11.2407 L -9.60307 11.244 L -9.64906 11.2473 L -9.695 11.2506 L -9.7409 11.2538 L -9.78676 11.2569 L -9.83256 11.26 L -9.87832 11.2631 L -9.92403 11.2661 L -9.9697 11.269 L -10.0153 11.2719 L -10.0609 11.2747 L -10.1064 11.2775 L -10.1519 11.2802 L -10.1974 11.2829 L -10.2427 11.2855 L -10.2881 11.2881 L -10.3334 11.2906 L -10.3787 11.2931 L -10.4239 11.2955 L -10.4691 11.2979 L -10.5142 11.3003 L -10.5593 11.3026 L -10.6043 11.3048 L -10.6279 11.2826 L -10.6515 11.2603 L -10.675 11.238 L -10.6985 11.2157 L -10.722 11.1933 L -10.7454 11.1708 L -10.7687 11.1483 L -10.792 11.1258 L -10.8152 11.1032 L -10.8384 11.0805 L -10.8616 11.0578 L -10.8847 11.0351 L -10.9078 11.0123 L -10.9308 10.9895 L -10.9537 10.9666 L -10.9767 10.9436 L -10.9995 10.9207 L -11.0223 10.8976 L -11.0451 10.8745 L -11.0678 10.8514 L -11.0905 10.8282 L -11.1131 10.805 L -11.1357 10.7817 L -11.1582 10.7584 L -11.1807 10.7351 L -11.2031 10.7117 L -11.2255 10.6882 L -11.2479 10.6647 L -11.2701 10.6411 L -11.2924 10.6175 L -11.3146 10.5939 L -11.3367 10.5702 L -11.3588 10.5465 L -11.3808 10.5227 L -11.4028 10.4989 L -11.4247 10.475 L -11.4466 10.4511 L -11.4685 10.4271 L -11.4902 10.4031 L -11.512 10.379 L -11.5337 10.3549 L -11.5553 10.3308 L -11.5769 10.3066 L -11.6269 10.2502 L -11.6483 10.2258 L -11.6697 10.2014 L -11.691 10.177 L -11.7122 10.1525 L -11.7334 10.128 L -11.7546 10.1034 L -11.7757 10.0788 L -11.7968 10.0542 L -11.8178 10.0295 L -11.8387 10.0047 L -11.8596 9.97994 L -11.8805 9.95511 L -11.9013 9.93024 L -11.922 9.90532 L -11.9427 9.88036 L -11.9634 9.85536 L -11.9839 9.83031 L -12.0045 9.80522 L -12.025 9.78009 L -12.0454 9.75492 L -12.0658 9.7297 L -12.0861 9.70444 L -12.1064 9.67914 L -12.1266 9.65379 L -12.1468 9.62841 L -12.1669 9.60298 L -12.1869 9.57751 L -12.2069 9.552 L -12.2269 9.52644 L -12.2468 9.50084 L -12.2666 9.47521 L -12.2864 9.44953 L -12.3062 9.42381 L -12.3259 9.39805 L -12.3455 9.37224 L -12.3651 9.3464 L -12.3846 9.32051 L -12.4041 9.29459 L -12.4235 9.26862 L -12.4428 9.24261 L -12.4621 9.21657 L -12.4814 9.19048 L -12.5006 9.16435 L -12.4929 9.11991 L -12.4852 9.07543 L -12.4775 9.03091 L -12.4696 8.98635 L -12.4618 8.94176 L -12.4539 8.89713 L -12.4459 8.85246 L -12.4379 8.80775 L -12.4298 8.763 L -12.4216 8.71822 L -12.4134 8.67339 L -12.4052 8.62853 L -12.3969 8.58363 L -12.3885 8.53869 L -12.3801 8.4937 L -12.3716 8.44868 L -12.3631 8.40363 L -12.3545 8.35853 L -12.3459 8.31339 L -12.3372 8.26821 L -12.3284 8.22299 L -12.3196 8.17773 L -12.3107 8.13243 L -12.3017 8.08709 L -12.2927 8.04171 L -12.2836 7.99629 L -12.2745 7.95083 L -12.2653 7.90533 L -12.256 7.85978 L -12.2467 7.8142 L -12.2373 7.76857 L -12.2279 7.7229 L -12.2183 7.67719 L -12.2088 7.63144 L -12.1991 7.58565 L -12.1894 7.53981 L -12.1796 7.49394 L -12.1697 7.44802 L -12.1598 7.40206 L -12.1498 7.35605 L -12.1397 7.31001 L -12.1296 7.26392 L -12.1194 7.21778 L -12.1091 7.17161 L -12.0987 7.12539 L -12.0883 7.07913 L -12.0778 7.03282 L -12.0672 6.98648 L -12.0565 6.94008 L -12.0458 6.89365 L -12.035 6.84717 L -12.0241 6.80065 L -12.0132 6.75408 L -12.0021 6.70747 L -11.991 6.66081 L -11.9798 6.61411 L -11.9685 6.56737 L -11.9572 6.52058 L -11.9457 6.47375 L -11.9342 6.42687 L -11.9226 6.37995 L -11.9109 6.33298 L -11.8991 6.28597 L -11.8872 6.23891 L -11.8872 6.23891 L -11.9327 6.22194 L -11.9781 6.20493 L -12.0234 6.18787 L -12.0686 6.17077 L -12.1137 6.15362 L -12.1588 6.13644 L -12.2037 6.11921 L -12.2486 6.10194 L -12.2934 6.08463 L -12.3381 6.06727 L -12.3828 6.04988 L -12.4273 6.03245 L -12.4718 6.01498 L -12.5162 5.99747 L -12.5605 5.97992 L -12.6047 5.96234 L -12.6489 5.94472 L -12.6929 5.92706 L -12.7369 5.90937 L -12.7809 5.89163 L -12.8247 5.87387 L -12.8685 5.85607 L -12.9122 5.83823 L -12.9558 5.82036 L -12.9993 5.80246 L -13.0428 5.78452 L -13.0862 5.76655 L -13.1295 5.74855 L -13.1727 5.73052 L -13.2159 5.71245 L -13.259 5.69435 L -13.302 5.67623 L -13.345 5.65807 L -13.3879 5.63988 L -13.4307 5.62166 L -13.4734 5.60341 L -13.5161 5.58514 L -13.5587 5.56683 L -13.6013 5.5485 L -13.6437 5.53013 L -13.6861 5.51174 L -13.7285 5.49333 L -13.7707 5.47488 L -13.8129 5.45641 L -13.855 5.43791 L -13.8971 5.41939 L -13.9391 5.40084 L -13.981 5.38226 L -14.0229 5.36366 L -14.0647 5.34504 L -14.1064 5.32639 L -14.1481 5.30771 L -14.1897 5.28902 L -14.2312 5.27029 L -14.2727 5.25155 L -14.3141 5.23278 L -14.3555 5.21399 L -14.3968 5.19518 L -14.438 5.17634 L -14.4792 5.15748 L -14.5203 5.1386 L -14.5613 5.1197 L -14.6023 5.10078 L -14.6433 5.08184 L -14.6539 5.05119 L -14.6644 5.02053 L -14.6749 4.98985 L -14.6853 4.95914 L -14.6956 4.92841 L -14.7059 4.89766 L -14.7161 4.86689 L -14.7262 4.8361 L -14.7363 4.80528 L -14.7463 4.77445 L -14.7563 4.74359 L -14.7662 4.71272 L -14.776 4.68182 L -14.7858 4.6509 L -14.7955 4.61996 L -14.8051 4.589 L -14.8147 4.55803 L -14.8242 4.52703 L -14.8336 4.49601 L -14.843 4.46497 L -14.8523 4.43391 L -14.8615 4.40284 L -14.8707 4.37174 L -14.8798 4.34063 L -14.8889 4.30949 L -14.8978 4.27834 L -14.9068 4.24717 L -14.9156 4.21598 L -14.9244 4.18477 L -14.9331 4.15354 L -14.9418 4.1223 L -14.9504 4.09103 L -14.9589 4.05975 L -14.9673 4.02845 L -14.9757 3.99714 L -14.9841 3.9658 L -14.9923 3.93445 L -15.0005 3.90308 L -15.0087 3.8717 L -15.0167 3.84029 L -15.0247 3.80888 L -15.0327 3.77744 L -15.0405 3.74599 L -15.0586 3.67278 L -15.0662 3.64127 L -15.0738 3.60975 L -15.0813 3.57821 L -15.0888 3.54666 L -15.0962 3.51509 L -15.1035 3.4835 L -15.1107 3.4519 L -15.1179 3.42029 L -15.125 3.38866 L -15.1321 3.35701 L -15.1391 3.32535 L -15.146 3.29368 L -15.1529 3.26199 L -15.1597 3.23029 L -15.1664 3.19857 L -15.173 3.16684 L -15.1796 3.13509 L -15.1862 3.10333 L -15.1926 3.07156 L -15.199 3.03978 L -15.2053 3.00798 L -15.2116 2.97617 L -15.2178 2.94434 L -15.2239 2.9125 L -15.23 2.88065 L -15.236 2.84879 L -15.2419 2.81691 L -15.2477 2.78502 L -15.2535 2.75312 L -15.2593 2.72121 L -15.2649 2.68929 L -15.2705 2.65735 L -15.276 2.6254 L -15.2815 2.59344 L -15.2869 2.56147 L -15.2922 2.52949 L -15.2975 2.4975 L -15.3027 2.4655 L -15.3078 2.43348 L -15.3128 2.40146 L -15.3178 2.36942 L -15.3228 2.33738 L -15.3276 2.30532 L -15.3002 2.26953 L -15.2727 2.23372 L -15.2451 2.19791 L -15.2175 2.16209 L -15.1898 2.12626 L -15.162 2.09042 L -15.1342 2.05457 L -15.1063 2.01872 L -15.0784 1.98285 L -15.0504 1.94698 L -15.0223 1.91109 L -14.9941 1.8752 L -14.9659 1.8393 L -14.9376 1.80339 L -14.9093 1.76747 L -14.8808 1.73155 L -14.8524 1.69562 L -14.8238 1.65967 L -14.7952 1.62373 L -14.7664 1.58777 L -14.7377 1.5518 L -14.7088 1.51583 L -14.6799 1.47985 L -14.6509 1.44387 L -14.6218 1.40787 L -14.5927 1.37187 L -14.5635 1.33586 L -14.5342 1.29985 L -14.5048 1.26382 L -14.4754 1.2278 L -14.4458 1.19176 L -14.4162 1.15572 L -14.3866 1.11967 L -14.3568 1.08362 L -14.327 1.04756 L -14.2971 1.01149 L -14.2671 0.97542 L -14.237 0.939344 L -14.2069 0.903261 L -14.1766 0.867174 L -14.1463 0.831082 L -14.1159 0.794985 L -14.0854 0.758883 L -14.0549 0.722777 L -14.0242 0.686666 L -13.9935 0.650551 L -13.9627 0.614433 L -13.9318 0.57831 L -13.9008 0.542184 L -13.8697 0.506054 L -13.8385 0.469921 L -13.8073 0.433786 L -13.7759 0.397647 L -13.7445 0.361506 L -13.7129 0.325362 L -13.6813 0.289216 L -13.6496 0.253069 L -13.6178 0.216919 L -13.5859 0.180768 L -13.5539 0.144616 L -13.5218 0.108463 L -13.4896 0.0723091 L -13.4574 0.0361547 L -13.425 4.88498e-15 L -13.425 -1.5968e-15 L -13.4574 -0.0361547 L -13.4896 -0.0723091 L -13.5218 -0.108463 L -13.5539 -0.144616 L -13.5859 -0.180768 L -13.6178 -0.216919 L -13.6496 -0.253069 L -13.6813 -0.289216 L -13.7129 -0.325362 L -13.7445 -0.361506 L -13.7759 -0.397647 L -13.8073 -0.433786 L -13.8385 -0.469921 L -13.8697 -0.506054 L -13.9008 -0.542184 L -13.9318 -0.57831 L -13.9627 -0.614433 L -13.9935 -0.650551 L -14.0242 -0.686666 L -14.0549 -0.722777 L -14.0854 -0.758883 L -14.1159 -0.794985 L -14.1463 -0.831082 L -14.1766 -0.867174 L -14.2069 -0.903261 L -14.237 -0.939344 L -14.2671 -0.97542 L -14.2971 -1.01149 L -14.327 -1.04756 L -14.3568 -1.08362 L -14.3866 -1.11967 L -14.4162 -1.15572 L -14.4458 -1.19176 L -14.4754 -1.2278 L -14.5048 -1.26382 L -14.5342 -1.29985 L -14.5635 -1.33586 L -14.5927 -1.37187 L -14.6218 -1.40787 L -14.6509 -1.44387 L -14.6799 -1.47985 L -14.7088 -1.51583 L -14.7377 -1.5518 L -14.7664 -1.58777 L -14.7952 -1.62373 L -14.8238 -1.65967 L -14.8524 -1.69562 L -14.8808 -1.73155 L -14.9093 -1.76747 L -14.9376 -1.80339 L -14.9659 -1.8393 L -14.9941 -1.8752 L -15.0223 -1.91109 L -15.0504 -1.94698 L -15.0784 -1.98285 L -15.1063 -2.01872 L -15.1342 -2.05457 L -15.162 -2.09042 L -15.1898 -2.12626 L -15.2175 -2.16209 L -15.2451 -2.19791 L -15.2727 -2.23372 L -15.3002 -2.26953 L -15.3276 -2.30532 L -15.3228 -2.33738 L -15.3178 -2.36942 L -15.3128 -2.40146 L -15.3078 -2.43348 L -15.3027 -2.4655 L -15.2975 -2.4975 L -15.2922 -2.52949 L -15.2869 -2.56147 L -15.2815 -2.59344 L -15.276 -2.6254 L -15.2705 -2.65735 L -15.2649 -2.68929 L -15.2593 -2.72121 L -15.2535 -2.75312 L -15.2477 -2.78502 L -15.2419 -2.81691 L -15.236 -2.84879 L -15.23 -2.88065 L -15.2239 -2.9125 L -15.2178 -2.94434 L -15.2116 -2.97617 L -15.2053 -3.00798 L -15.199 -3.03978 L -15.1926 -3.07156 L -15.1862 -3.10333 L -15.1796 -3.13509 L -15.173 -3.16684 L -15.1664 -3.19857 L -15.1597 -3.23029 L -15.1529 -3.26199 L -15.146 -3.29368 L -15.1391 -3.32535 L -15.1321 -3.35701 L -15.125 -3.38866 L -15.1179 -3.42029 L -15.1107 -3.4519 L -15.1035 -3.4835 L -15.0962 -3.51509 L -15.0888 -3.54666 L -15.0813 -3.57821 L -15.0738 -3.60975 L -15.0662 -3.64127 L -15.0586 -3.67278 L -15.0405 -3.74599 L -15.0327 -3.77744 L -15.0247 -3.80888 L -15.0167 -3.84029 L -15.0087 -3.8717 L -15.0005 -3.90308 L -14.9923 -3.93445 L -14.9841 -3.9658 L -14.9757 -3.99714 L -14.9673 -4.02845 L -14.9589 -4.05975 L -14.9504 -4.09103 L -14.9418 -4.1223 L -14.9331 -4.15354 L -14.9244 -4.18477 L -14.9156 -4.21598 L -14.9068 -4.24717 L -14.8978 -4.27834 L -14.8889 -4.30949 L -14.8798 -4.34063 L -14.8707 -4.37174 L -14.8615 -4.40284 L -14.8523 -4.43391 L -14.843 -4.46497 L -14.8336 -4.49601 L -14.8242 -4.52703 L -14.8147 -4.55803 L -14.8051 -4.589 L -14.7955 -4.61996 L -14.7858 -4.6509 L -14.776 -4.68182 L -14.7662 -4.71272 L -14.7563 -4.74359 L -14.7463 -4.77445 L -14.7363 -4.80528 L -14.7262 -4.8361 L -14.7161 -4.86689 L -14.7059 -4.89766 L -14.6956 -4.92841 L -14.6853 -4.95914 L -14.6749 -4.98985 L -14.6644 -5.02053 L -14.6539 -5.05119 L -14.6433 -5.08184 L -14.6023 -5.10078 L -14.5613 -5.1197 L -14.5203 -5.1386 L -14.4792 -5.15748 L -14.438 -5.17634 L -14.3968 -5.19518 L -14.3555 -5.21399 L -14.3141 -5.23278 L -14.2727 -5.25155 L -14.2312 -5.27029 L -14.1897 -5.28902 L -14.1481 -5.30771 L -14.1064 -5.32639 L -14.0647 -5.34504 L -14.0229 -5.36366 L -13.981 -5.38226 L -13.9391 -5.40084 L -13.8971 -5.41939 L -13.855 -5.43791 L -13.8129 -5.45641 L -13.7707 -5.47488 L -13.7285 -5.49333 L -13.6861 -5.51174 L -13.6437 -5.53013 L -13.6013 -5.5485 L -13.5587 -5.56683 L -13.5161 -5.58514 L -13.4734 -5.60341 L -13.4307 -5.62166 L -13.3879 -5.63988 L -13.345 -5.65807 L -13.302 -5.67623 L -13.259 -5.69435 L -13.2159 -5.71245 L -13.1727 -5.73052 L -13.1295 -5.74855 L -13.0862 -5.76655 L -13.0428 -5.78452 L -12.9993 -5.80246 L -12.9558 -5.82036 L -12.9122 -5.83823 L -12.8685 -5.85607 L -12.8247 -5.87387 L -12.7809 -5.89163 L -12.7369 -5.90937 L -12.6929 -5.92706 L -12.6489 -5.94472 L -12.6047 -5.96234 L -12.5605 -5.97992 L -12.5162 -5.99747 L -12.4718 -6.01498 L -12.4273 -6.03245 L -12.3828 -6.04988 L -12.3381 -6.06727 L -12.2934 -6.08463 L -12.2486 -6.10194 L -12.2037 -6.11921 L -12.1588 -6.13644 L -12.1137 -6.15362 L -12.0686 -6.17077 L -12.0234 -6.18787 L -11.9781 -6.20493 L -11.9327 -6.22194 L -11.8872 -6.23891 L -11.8872 -6.23891 L -11.8991 -6.28597 L -11.9109 -6.33298 L -11.9226 -6.37995 L -11.9342 -6.42687 L -11.9457 -6.47375 L -11.9572 -6.52058 L -11.9685 -6.56737 L -11.9798 -6.61411 L -11.991 -6.66081 L -12.0021 -6.70747 L -12.0132 -6.75408 L -12.0241 -6.80065 L -12.035 -6.84717 L -12.0458 -6.89365 L -12.0565 -6.94008 L -12.0672 -6.98648 L -12.0778 -7.03282 L -12.0883 -7.07913 L -12.0987 -7.12539 L -12.1091 -7.17161 L -12.1194 -7.21778 L -12.1296 -7.26392 L -12.1397 -7.31001 L -12.1498 -7.35605 L -12.1598 -7.40206 L -12.1697 -7.44802 L -12.1796 -7.49394 L -12.1894 -7.53981 L -12.1991 -7.58565 L -12.2088 -7.63144 L -12.2183 -7.67719 L -12.2279 -7.7229 L -12.2373 -7.76857 L -12.2467 -7.8142 L -12.256 -7.85978 L -12.2653 -7.90533 L -12.2745 -7.95083 L -12.2836 -7.99629 L -12.2927 -8.04171 L -12.3017 -8.08709 L -12.3107 -8.13243 L -12.3196 -8.17773 L -12.3284 -8.22299 L -12.3372 -8.26821 L -12.3459 -8.31339 L -12.3545 -8.35853 L -12.3631 -8.40363 L -12.3716 -8.44868 L -12.3801 -8.4937 L -12.3885 -8.53869 L -12.3969 -8.58363 L -12.4052 -8.62853 L -12.4134 -8.67339 L -12.4216 -8.71822 L -12.4298 -8.763 L -12.4379 -8.80775 L -12.4459 -8.85246 L -12.4539 -8.89713 L -12.4618 -8.94176 L -12.4696 -8.98635 L -12.4775 -9.03091 L -12.4852 -9.07543 L -12.4929 -9.11991 L -12.5006 -9.16435 L -12.4814 -9.19048 L -12.4621 -9.21657 L -12.4428 -9.24261 L -12.4235 -9.26862 L -12.4041 -9.29459 L -12.3846 -9.32051 L -12.3651 -9.3464 L -12.3455 -9.37224 L -12.3259 -9.39805 L -12.3062 -9.42381 L -12.2864 -9.44953 L -12.2666 -9.47521 L -12.2468 -9.50084 L -12.2269 -9.52644 L -12.2069 -9.552 L -12.1869 -9.57751 L -12.1669 -9.60298 L -12.1468 -9.62841 L -12.1266 -9.65379 L -12.1064 -9.67914 L -12.0861 -9.70444 L -12.0658 -9.7297 L -12.0454 -9.75492 L -12.025 -9.78009 L -12.0045 -9.80522 L -11.9839 -9.83031 L -11.9634 -9.85536 L -11.9427 -9.88036 L -11.922 -9.90532 L -11.9013 -9.93024 L -11.8805 -9.95511 L -11.8596 -9.97994 L -11.8387 -10.0047 L -11.8178 -10.0295 L -11.7968 -10.0542 L -11.7757 -10.0788 L -11.7546 -10.1034 L -11.7334 -10.128 L -11.7122 -10.1525 L -11.691 -10.177 L -11.6697 -10.2014 L -11.6483 -10.2258 L -11.6269 -10.2502 L -11.5769 -10.3066 L -11.5553 -10.3308 L -11.5337 -10.3549 L -11.512 -10.379 L -11.4902 -10.4031 L -11.4685 -10.4271 L -11.4466 -10.4511 L -11.4247 -10.475 L -11.4028 -10.4989 L -11.3808 -10.5227 L -11.3588 -10.5465 L -11.3367 -10.5702 L -11.3146 -10.5939 L -11.2924 -10.6175 L -11.2701 -10.6411 L -11.2479 -10.6647 L -11.2255 -10.6882 L -11.2031 -10.7117 L -11.1807 -10.7351 L -11.1582 -10.7584 L -11.1357 -10.7817 L -11.1131 -10.805 L -11.0905 -10.8282 L -11.0678 -10.8514 L -11.0451 -10.8745 L -11.0223 -10.8976 L -10.9995 -10.9207 L -10.9767 -10.9436 L -10.9537 -10.9666 L -10.9308 -10.9895 L -10.9078 -11.0123 L -10.8847 -11.0351 L -10.8616 -11.0578 L -10.8384 -11.0805 L -10.8152 -11.1032 L -10.792 -11.1258 L -10.7687 -11.1483 L -10.7454 -11.1708 L -10.722 -11.1933 L -10.6985 -11.2157 L -10.675 -11.238 L -10.6515 -11.2603 L -10.6279 -11.2826 L -10.6043 -11.3048 L -10.5593 -11.3026 L -10.5142 -11.3003 L -10.4691 -11.2979 L -10.4239 -11.2955 L -10.3787 -11.2931 L -10.3334 -11.2906 L -10.2881 -11.2881 L -10.2427 -11.2855 L -10.1974 -11.2829 L -10.1519 -11.2802 L -10.1064 -11.2775 L -10.0609 -11.2747 L -10.0153 -11.2719 L -9.9697 -11.269 L -9.92403 -11.2661 L -9.87832 -11.2631 L -9.83256 -11.26 L -9.78676 -11.2569 L -9.7409 -11.2538 L -9.695 -11.2506 L -9.64906 -11.2473 L -9.60307 -11.244 L -9.55703 -11.2407 L -9.51094 -11.2372 L -9.4648 -11.2338 L -9.41862 -11.2302 L -9.37239 -11.2266 L -9.32611 -11.223 L -9.27978 -11.2193 L -9.2334 -11.2155 L -9.18698 -11.2117 L -9.1405 -11.2078 L -9.09398 -11.2039 L -9.0474 -11.1999 L -9.00078 -11.1958 L -8.95411 -11.1917 L -8.90738 -11.1875 L -8.86061 -11.1832 L -8.81379 -11.1789 L -8.76691 -11.1745 L -8.71999 -11.1701 L -8.67301 -11.1656 L -8.62599 -11.161 L -8.57891 -11.1563 L -8.53178 -11.1516 L -8.4846 -11.1469 L -8.43736 -11.142 L -8.39008 -11.1371 L -8.34274 -11.1321 L -8.29535 -11.127 L -8.24791 -11.1219 L -8.20041 -11.1167 L -8.15286 -11.1115 L -8.10526 -11.1061 L -8.0576 -11.1007 L -8.0099 -11.0952 L -7.96213 -11.0896 L -7.91432 -11.084 L -7.86644 -11.0783 L -7.81852 -11.0725 L -7.77054 -11.0666 L -7.7225 -11.0607 L -7.67441 -11.0547 L -7.62627 -11.0486 L -7.62627 -11.0486 L -7.6149 -11.0957 L -7.60349 -11.1428 L -7.59201 -11.1899 L -7.58049 -11.2368 L -7.56891 -11.2837 L -7.55727 -11.3305 L -7.54559 -11.3772 L -7.53385 -11.4238 L -7.52207 -11.4704 L -7.51023 -11.5168 L -7.49835 -11.5632 L -7.48641 -11.6096 L -7.47443 -11.6558 L -7.4624 -11.702 L -7.45032 -11.7481 L -7.4382 -11.7941 L -7.42603 -11.8401 L -7.41381 -11.886 L -7.40155 -11.9318 L -7.38924 -11.9775 L -7.37689 -12.0232 L -7.36449 -12.0688 L -7.35205 -12.1143 L -7.33957 -12.1597 L -7.32705 -12.2051 L -7.31448 -12.2504 L -7.30187 -12.2957 L -7.28922 -12.3409 L -7.27653 -12.386 L -7.2638 -12.431 L -7.25103 -12.476 L -7.23823 -12.5209 L -7.22538 -12.5657 L -7.21249 -12.6105 L -7.19956 -12.6552 L -7.1866 -12.6998 L -7.1736 -12.7444 L -7.16057 -12.7889 L -7.14749 -12.8333 L -7.13438 -12.8777 L -7.12124 -12.922 L -7.10806 -12.9662 L -7.09484 -13.0104 L -7.08159 -13.0545 L -7.0683 -13.0986 L -7.05499 -13.1425 L -7.04163 -13.1865 L -7.02825 -13.2303 L -7.01483 -13.2741 L -7.00138 -13.3179 L -6.98789 -13.3615 L -6.97438 -13.4052 L -6.96083 -13.4487 L -6.94726 -13.4922 L -6.93365 -13.5357 L -6.92001 -13.579 L -6.90634 -13.6224 L -6.89264 -13.6656 L -6.87891 -13.7088 L -6.86515 -13.752 L -6.85136 -13.795 L -6.83755 -13.8381 L -6.8237 -13.881 L -6.80983 -13.9239 L -6.78069 -13.9382 L -6.75152 -13.9523 L -6.72232 -13.9664 L -6.69309 -13.9804 L -6.66384 -13.9944 L -6.63455 -14.0083 L -6.60523 -14.0222 L -6.57589 -14.0359 L -6.54651 -14.0497 L -6.51711 -14.0633 L -6.48768 -14.0769 L -6.45822 -14.0905 L -6.42873 -14.1039 L -6.39922 -14.1174 L -6.36967 -14.1307 L -6.3401 -14.144 L -6.3105 -14.1572 L -6.28088 -14.1704 L -6.25122 -14.1835 L -6.22154 -14.1966 L -6.19183 -14.2095 L -6.1621 -14.2225 L -6.13233 -14.2353 L -6.10254 -14.2481 L -6.07273 -14.2609 L -6.04288 -14.2735 L -6.01301 -14.2861 L -5.98312 -14.2987 L -5.95319 -14.3112 L -5.92325 -14.3236 L -5.89327 -14.3359 L -5.86327 -14.3482 L -5.83325 -14.3605 L -5.8032 -14.3726 L -5.77312 -14.3848 L -5.74302 -14.3968 L -5.71289 -14.4088 L -5.68274 -14.4207 L -5.65256 -14.4326 L -5.62236 -14.4443 L -5.59214 -14.4561 L -5.56188 -14.4677 L -5.53161 -14.4793 L -5.46111 -14.5061 L -5.43075 -14.5175 L -5.40038 -14.5288 L -5.36997 -14.5401 L -5.33955 -14.5513 L -5.3091 -14.5624 L -5.27863 -14.5735 L -5.24813 -14.5845 L -5.21761 -14.5954 L -5.18707 -14.6063 L -5.15651 -14.6171 L -5.12592 -14.6279 L -5.09531 -14.6386 L -5.06468 -14.6492 L -5.03403 -14.6598 L -5.00335 -14.6703 L -4.97266 -14.6807 L -4.94194 -14.6911 L -4.9112 -14.7014 L -4.88043 -14.7116 L -4.84965 -14.7218 L -4.81885 -14.7319 L -4.78802 -14.7419 L -4.75717 -14.7519 L -4.72631 -14.7618 L -4.69542 -14.7717 L -4.66451 -14.7815 L -4.63358 -14.7912 L -4.60263 -14.8009 L -4.57166 -14.8105 L -4.54067 -14.82 L -4.50966 -14.8295 L -4.47863 -14.8389 L -4.44758 -14.8482 L -4.41652 -14.8575 L -4.38543 -14.8667 L -4.35432 -14.8758 L -4.3232 -14.8849 L -4.29205 -14.8939 L -4.26089 -14.9028 L -4.22971 -14.9117 L -4.19851 -14.9205 L -4.16729 -14.9293 L -4.13605 -14.938 L -4.09721 -14.9151 L -4.05835 -14.8921 L -4.01948 -14.869 L -3.98059 -14.8459 L -3.94168 -14.8228 L -3.90276 -14.7995 L -3.86382 -14.7762 L -3.82486 -14.7529 L -3.78589 -14.7294 L -3.7469 -14.706 L -3.70789 -14.6824 L -3.66887 -14.6588 L -3.62983 -14.6351 L -3.59077 -14.6113 L -3.5517 -14.5875 L -3.51261 -14.5636 L -3.47351 -14.5397 L -3.43438 -14.5157 L -3.39525 -14.4916 L -3.35609 -14.4674 L -3.31692 -14.4432 L -3.27773 -14.4189 L -3.23853 -14.3945 L -3.19931 -14.37 L -3.16007 -14.3455 L -3.12082 -14.3209 L -3.08155 -14.2963 L -3.04227 -14.2715 L -3.00297 -14.2467 L -2.96366 -14.2218 L -2.92432 -14.1969 L -2.88498 -14.1718 L -2.84562 -14.1467 L -2.80624 -14.1215 L -2.76685 -14.0963 L -2.72744 -14.0709 L -2.68802 -14.0455 L -2.64858 -14.02 L -2.60912 -13.9944 L -2.56966 -13.9687 L -2.53017 -13.943 L -2.49067 -13.9172 L -2.45116 -13.8913 L -2.41163 -13.8653 L -2.37209 -13.8392 L -2.33254 -13.813 L -2.29297 -13.7868 L -2.25338 -13.7605 L -2.21378 -13.7341 L -2.17417 -13.7076 L -2.13454 -13.681 L -2.0949 -13.6543 L -2.05525 -13.6275 L -2.01558 -13.6007 L -1.9759 -13.5737 L -1.93621 -13.5467 L -1.8965 -13.5196 L -1.85678 -13.4924 L -1.81705 -13.4651 L -1.77731 -13.4377 L -1.73755 -13.4102 L -1.69778 -13.3826 L -1.658 -13.3549 L -1.6182 -13.3271 L -1.6182 -13.3271 L -1.58622 -13.3636 L -1.55422 -13.4 L -1.5222 -13.4363 L -1.49018 -13.4725 L -1.45815 -13.5086 L -1.42611 -13.5447 L -1.39405 -13.5806 L -1.36199 -13.6164 L -1.32992 -13.6522 L -1.29784 -13.6878 L -1.26575 -13.7234 L -1.23366 -13.7589 L -1.20155 -13.7943 L -1.16944 -13.8295 L -1.13732 -13.8648 L -1.10519 -13.8999 L -1.07306 -13.9349 L -1.04092 -13.9699 L -1.00877 -14.0047 L -0.97662 -14.0395 L -0.944461 -14.0742 L -0.912297 -14.1088 L -0.880127 -14.1433 L -0.847952 -14.1778 L -0.815772 -14.2122 L -0.783588 -14.2464 L -0.751399 -14.2806 L -0.719206 -14.3148 L -0.687008 -14.3488 L -0.654807 -14.3828 L -0.622603 -14.4166 L -0.590395 -14.4504 L -0.558184 -14.4842 L -0.52597 -14.5178 L -0.493753 -14.5514 L -0.461533 -14.5849 L -0.429311 -14.6183 L -0.397087 -14.6517 L -0.364861 -14.6849 L -0.332633 -14.7181 L -0.300403 -14.7512 L -0.268172 -14.7843 L -0.23594 -14.8173 L -0.203706 -14.8502 L -0.171472 -14.883 L -0.139236 -14.9158 L -0.107 -14.9484 L -0.0747636 -14.9811 L -0.0425266 -15.0136 L -0.0102895 -15.0461 L 0.0219477 -15.0785 L 0.0541848 -15.1108 L 0.0864216 -15.1431 L 0.118658 -15.1753 L 0.150894 -15.2075 L 0.183129 -15.2395 L 0.215364 -15.2715 L 0.247597 -15.3035 L 0.27983 -15.3353 L 0.312061 -15.3671 L 0.344291 -15.3989 L 0.37652 -15.4306 L 0.408746 -15.4622 L 0.440972 -15.4937 L 0.47338 -15.4928 L 0.505785 -15.4917 L 0.538189 -15.4907 L 0.57059 -15.4895 L 0.602988 -15.4883 L 0.635384 -15.487 L 0.667778 -15.4856 L 0.700168 -15.4842 L 0.732555 -15.4827 L 0.764939 -15.4811 L 0.79732 -15.4795 L 0.829697 -15.4778 L 0.862071 -15.476 L 0.89444 -15.4742 L 0.926806 -15.4723 L 0.959168 -15.4703 L 0.991526 -15.4683 L 1.02388 -15.4661 L 1.05623 -15.464 L 1.08857 -15.4617 L 1.12091 -15.4594 L 1.15325 -15.457 L 1.18558 -15.4546 L 1.2179 -15.4521 L 1.25022 -15.4495 L 1.28253 -15.4468 L 1.31484 -15.4441 L 1.34714 -15.4413 L 1.37944 -15.4385 L 1.41173 -15.4356 L 1.44401 -15.4326 L 1.47629 -15.4295 L 1.50856 -15.4264 L 1.54083 -15.4232 L 1.57308 -15.42 L 1.60533 -15.4166 L 1.63758 -15.4133 L 1.66982 -15.4098 L 1.70205 -15.4063 L 1.73427 -15.4027 L 1.76648 -15.399 L 1.79869 -15.3953 L 1.83089 -15.3915 L 1.90574 -15.3824 L 1.93791 -15.3784 L 1.97007 -15.3743 L 2.00223 -15.3701 L 2.03437 -15.3659 L 2.06651 -15.3616 L 2.09864 -15.3573 L 2.13076 -15.3528 L 2.16287 -15.3484 L 2.19497 -15.3438 L 2.22706 -15.3392 L 2.25914 -15.3345 L 2.29121 -15.3297 L 2.32327 -15.3249 L 2.35532 -15.32 L 2.38736 -15.315 L 2.41939 -15.31 L 2.45141 -15.3049 L 2.48342 -15.2998 L 2.51541 -15.2945 L 2.5474 -15.2892 L 2.57938 -15.2839 L 2.61134 -15.2784 L 2.64329 -15.2729 L 2.67523 -15.2674 L 2.70716 -15.2618 L 2.73908 -15.2561 L 2.77099 -15.2503 L 2.80288 -15.2445 L 2.83476 -15.2386 L 2.86663 -15.2326 L 2.89849 -15.2266 L 2.93033 -15.2205 L 2.96216 -15.2143 L 2.99398 -15.2081 L 3.02578 -15.2018 L 3.05758 -15.1954 L 3.08935 -15.189 L 3.12112 -15.1825 L 3.15287 -15.1759 L 3.18461 -15.1693 L 3.21633 -15.1626 L 3.24804 -15.1559 L 3.27973 -15.149 L 3.30347 -15.1107 L 3.3272 -15.0723 L 3.35091 -15.0338 L 3.37461 -14.9953 L 3.39829 -14.9567 L 3.42196 -14.918 L 3.44561 -14.8793 L 3.46925 -14.8405 L 3.49287 -14.8017 L 3.51648 -14.7627 L 3.54007 -14.7238 L 3.56365 -14.6847 L 3.58721 -14.6456 L 3.61076 -14.6064 L 3.63428 -14.5672 L 3.65779 -14.5278 L 3.68129 -14.4885 L 3.70476 -14.449 L 3.72822 -14.4095 L 3.75166 -14.3699 L 3.77509 -14.3302 L 3.79849 -14.2905 L 3.82188 -14.2507 L 3.84524 -14.2108 L 3.86859 -14.1709 L 3.89192 -14.1309 L 3.91523 -14.0908 L 3.93851 -14.0506 L 3.96178 -14.0104 L 3.98503 -13.9701 L 4.00825 -13.9297 L 4.03146 -13.8892 L 4.05464 -13.8487 L 4.0778 -13.8081 L 4.10094 -13.7674 L 4.12405 -13.7267 L 4.14714 -13.6858 L 4.17021 -13.6449 L 4.19326 -13.6039 L 4.21628 -13.5629 L 4.23928 -13.5217 L 4.26225 -13.4805 L 4.28519 -13.4392 L 4.30812 -13.3978 L 4.33101 -13.3564 L 4.35388 -13.3148 L 4.37672 -13.2732 L 4.39954 -13.2315 L 4.42233 -13.1897 L 4.44509 -13.1478 L 4.46782 -13.1059 L 4.49052 -13.0638 L 4.5132 -13.0217 L 4.53584 -12.9795 L 4.55846 -12.9372 L 4.58104 -12.8948 L 4.60359 -12.8523 L 4.62612 -12.8098 L 4.64861 -12.7671 L 4.67107 -12.7244 L 4.69349 -12.6816 L 4.71589 -12.6387 L 4.73825 -12.5957 L 4.76057 -12.5526 L 4.76057 -12.5526 L 4.80586 -12.57 L 4.85111 -12.5874 L 4.89632 -12.6047 L 4.9415 -12.6218 L 4.98665 -12.6389 L 5.03176 -12.6559 L 5.07684 -12.6729 L 5.12188 -12.6897 L 5.16689 -12.7064 L 5.21187 -12.7231 L 5.25681 -12.7397 L 5.30171 -12.7562 L 5.34659 -12.7726 L 5.39142 -12.7889 L 5.43623 -12.8052 L 5.481 -12.8213 L 5.52573 -12.8374 L 5.57043 -12.8534 L 5.6151 -12.8694 L 5.65973 -12.8852 L 5.70433 -12.901 L 5.7489 -12.9167 L 5.79343 -12.9323 L 5.83792 -12.9479 L 5.88239 -12.9633 L 5.92682 -12.9787 L 5.97121 -12.9941 L 6.01557 -13.0093 L 6.0599 -13.0245 L 6.1042 -13.0396 L 6.14846 -13.0546 L 6.19269 -13.0696 L 6.23688 -13.0845 L 6.28104 -13.0993 L 6.32517 -13.1141 L 6.36927 -13.1288 L 6.41333 -13.1434 L 6.45736 -13.1579 L 6.50135 -13.1724 L 6.54532 -13.1868 L 6.58925 -13.2012 L 6.63315 -13.2155 L 6.67701 -13.2297 L 6.72084 -13.2438 L 6.76464 -13.2579 L 6.80841 -13.272 L 6.85214 -13.2859 L 6.89585 -13.2998 L 6.93952 -13.3137 L 6.98316 -13.3274 L 7.02676 -13.3411 L 7.07034 -13.3548 L 7.11388 -13.3684 L 7.15739 -13.3819 L 7.20087 -13.3954 L 7.24431 -13.4088 L 7.28773 -13.4222 L 7.33111 -13.4355 L 7.37446 -13.4487 L 7.41778 -13.4619 L 7.46107 -13.475 L 7.50433 -13.4881 L 7.54756 -13.5011 L 7.59075 -13.5141 L 7.61901 -13.4982 L 7.64722 -13.4822 L 7.67541 -13.4662 L 7.70356 -13.4501 L 7.73168 -13.434 L 7.75976 -13.4178 L 7.78781 -13.4015 L 7.81582 -13.3852 L 7.84381 -13.3688 L 7.87175 -13.3524 L 7.89966 -13.3359 L 7.92754 -13.3193 L 7.95539 -13.3027 L 7.98319 -13.286 L 8.01097 -13.2693 L 8.03871 -13.2525 L 8.06641 -13.2357 L 8.09408 -13.2188 L 8.12171 -13.2018 L 8.14931 -13.1848 L 8.17687 -13.1677 L 8.20439 -13.1506 L 8.23188 -13.1334 L 8.25934 -13.1161 L 8.28675 -13.0988 L 8.31413 -13.0815 L 8.34148 -13.0641 L 8.36879 -13.0466 L 8.39606 -13.0291 L 8.42329 -13.0115 L 8.45049 -12.9938 L 8.47765 -12.9761 L 8.50478 -12.9583 L 8.53186 -12.9405 L 8.55891 -12.9227 L 8.58592 -12.9047 L 8.6129 -12.8867 L 8.63984 -12.8687 L 8.66674 -12.8506 L 8.6936 -12.8324 L 8.72042 -12.8142 L 8.7472 -12.796 L 8.77395 -12.7776 L 8.836 -12.7348 L 8.86262 -12.7163 L 8.8892 -12.6977 L 8.91574 -12.6791 L 8.94225 -12.6604 L 8.96871 -12.6417 L 8.99513 -12.6229 L 9.02152 -12.6041 L 9.04786 -12.5852 L 9.07416 -12.5662 L 9.10043 -12.5472 L 9.12666 -12.5281 L 9.15284 -12.509 L 9.17899 -12.4898 L 9.20509 -12.4706 L 9.23116 -12.4513 L 9.25718 -12.432 L 9.28317 -12.4126 L 9.30911 -12.3932 L 9.33501 -12.3737 L 9.36087 -12.3541 L 9.3867 -12.3345 L 9.41248 -12.3148 L 9.43821 -12.2951 L 9.46391 -12.2754 L 9.48957 -12.2555 L 9.51518 -12.2357 L 9.54075 -12.2157 L 9.56629 -12.1957 L 9.59178 -12.1757 L 9.61722 -12.1556 L 9.64263 -12.1355 L 9.66799 -12.1153 L 9.69331 -12.095 L 9.71859 -12.0747 L 9.74383 -12.0544 L 9.76902 -12.034 L 9.79417 -12.0135 L 9.81928 -11.993 L 9.84434 -11.9724 L 9.86936 -11.9518 L 9.89434 -11.9311 L 9.91928 -11.9104 L 9.94417 -11.8896 L 9.94737 -11.8447 L 9.95053 -11.7996 L 9.95364 -11.7545 L 9.95672 -11.7094 L 9.95975 -11.6642 L 9.96275 -11.619 L 9.96569 -11.5737 L 9.9686 -11.5284 L 9.97146 -11.483 L 9.97428 -11.4376 L 9.97705 -11.3921 L 9.97978 -11.3466 L 9.98247 -11.301 L 9.98511 -11.2553 L 9.9877 -11.2096 L 9.99024 -11.1639 L 9.99274 -11.1181 L 9.9952 -11.0723 L 9.9976 -11.0264 L 9.99996 -10.9804 L 10.0023 -10.9344 L 10.0045 -10.8884 L 10.0067 -10.8423 L 10.0089 -10.7961 L 10.011 -10.7499 L 10.0131 -10.7036 L 10.0151 -10.6573 L 10.017 -10.6109 L 10.0189 -10.5645 L 10.0208 -10.518 L 10.0226 -10.4714 L 10.0243 -10.4248 L 10.026 -10.3781 L 10.0277 -10.3314 L 10.0292 -10.2847 L 10.0308 -10.2378 L 10.0322 -10.1909 L 10.0337 -10.144 L 10.035 -10.097 L 10.0363 -10.0499 L 10.0376 -10.0028 L 10.0387 -9.95564 L 10.0399 -9.9084 L 10.0409 -9.86111 L 10.0419 -9.81375 L 10.0429 -9.76634 L 10.0438 -9.71887 L 10.0446 -9.67133 L 10.0453 -9.62374 L 10.046 -9.57608 L 10.0467 -9.52837 L 10.0472 -9.48059 L 10.0477 -9.43276 L 10.0482 -9.38486 L 10.0485 -9.3369 L 10.0488 -9.28887 L 10.0491 -9.24079 L 10.0492 -9.19264 L 10.0493 -9.14443 L 10.0494 -9.09616 L 10.0493 -9.04782 L 10.0492 -8.99942 L 10.049 -8.95095 L 10.0488 -8.90242 L 10.0488 -8.90242 L 10.097 -8.89683 L 10.1451 -8.89117 L 10.1932 -8.88545 L 10.2412 -8.87966 L 10.2891 -8.87382 L 10.3369 -8.86791 L 10.3847 -8.86194 L 10.4324 -8.85591 L 10.48 -8.84982 L 10.5276 -8.84368 L 10.5751 -8.83747 L 10.6225 -8.83121 L 10.6699 -8.82489 L 10.7172 -8.81851 L 10.7644 -8.81208 L 10.8116 -8.80559 L 10.8586 -8.79905 L 10.9057 -8.79245 L 10.9526 -8.7858 L 10.9995 -8.77909 L 11.0463 -8.77234 L 11.0931 -8.76553 L 11.1398 -8.75867 L 11.1864 -8.75175 L 11.233 -8.74479 L 11.2795 -8.73778 L 11.3259 -8.73072 L 11.3723 -8.7236 L 11.4186 -8.71644 L 11.4648 -8.70923 L 11.511 -8.70198 L 11.5571 -8.69467 L 11.6032 -8.68732 L 11.6491 -8.67993 L 11.6951 -8.67248 L 11.7409 -8.66499 L 11.7868 -8.65746 L 11.8325 -8.64988 L 11.8782 -8.64226 L 11.9238 -8.63459 L 11.9694 -8.62689 L 12.0149 -8.61913 L 12.0603 -8.61134 L 12.1057 -8.6035 L 12.1511 -8.59562 L 12.1963 -8.5877 L 12.2415 -8.57974 L 12.2867 -8.57174 L 12.3318 -8.5637 L 12.3768 -8.55562 L 12.4218 -8.5475 L 12.4668 -8.53934 L 12.5116 -8.53114 L 12.5564 -8.52291 L 12.6012 -8.51464 L 12.6459 -8.50632 L 12.6906 -8.49798 L 12.7352 -8.48959 L 12.7797 -8.48117 L 12.8242 -8.47271 L 12.8686 -8.46422 L 12.913 -8.45569 L 12.9573 -8.44713 L 13.0016 -8.43853 L 13.0192 -8.41131 L 13.0368 -8.38406 L 13.0543 -8.35677 L 13.0717 -8.32945 L 13.0891 -8.30209 L 13.1065 -8.27469 L 13.1237 -8.24726 L 13.141 -8.21979 L 13.1581 -8.19228 L 13.1752 -8.16474 L 13.1923 -8.13717 L 13.2093 -8.10955 L 13.2262 -8.0819 L 13.2431 -8.05422 L 13.2599 -8.0265 L 13.2767 -7.99875 L 13.2934 -7.97096 L 13.31 -7.94314 L 13.3266 -7.91528 L 13.3431 -7.88739 L 13.3596 -7.85946 L 13.376 -7.8315 L 13.3924 -7.8035 L 13.4087 -7.77547 L 13.4249 -7.7474 L 13.4411 -7.71931 L 13.4572 -7.69117 L 13.4732 -7.66301 L 13.4892 -7.63481 L 13.5052 -7.60658 L 13.5211 -7.57831 L 13.5369 -7.55001 L 13.5527 -7.52168 L 13.5684 -7.49332 L 13.584 -7.46492 L 13.5996 -7.43649 L 13.6151 -7.40802 L 13.6306 -7.37953 L 13.646 -7.351 L 13.6613 -7.32244 L 13.6766 -7.29385 L 13.6918 -7.26523 L 13.707 -7.23657 L 13.742 -7.16981 L 13.757 -7.14105 L 13.7719 -7.11225 L 13.7868 -7.08343 L 13.8016 -7.05458 L 13.8163 -7.02569 L 13.8309 -6.99678 L 13.8456 -6.96783 L 13.8601 -6.93885 L 13.8746 -6.90985 L 13.889 -6.88081 L 13.9034 -6.85174 L 13.9177 -6.82265 L 13.9319 -6.79352 L 13.9461 -6.76436 L 13.9602 -6.73518 L 13.9743 -6.70596 L 13.9883 -6.67672 L 14.0022 -6.64744 L 14.0161 -6.61814 L 14.0299 -6.58881 L 14.0436 -6.55944 L 14.0573 -6.53005 L 14.071 -6.50064 L 14.0845 -6.47119 L 14.098 -6.44171 L 14.1115 -6.41221 L 14.1249 -6.38268 L 14.1382 -6.35312 L 14.1514 -6.32353 L 14.1646 -6.29392 L 14.1778 -6.26428 L 14.1908 -6.23461 L 14.2038 -6.20491 L 14.2168 -6.17518 L 14.2297 -6.14543 L 14.2425 -6.11566 L 14.2553 -6.08585 L 14.268 -6.05602 L 14.2806 -6.02616 L 14.2932 -5.99628 L 14.3057 -5.96637 L 14.3181 -5.93643 L 14.3305 -5.90647 L 14.3124 -5.86515 L 14.2943 -5.82381 L 14.2761 -5.78244 L 14.2579 -5.74105 L 14.2396 -5.69963 L 14.2212 -5.65819 L 14.2028 -5.61673 L 14.1843 -5.57524 L 14.1657 -5.53373 L 14.1471 -5.49219 L 14.1284 -5.45063 L 14.1097 -5.40904 L 14.0909 -5.36743 L 14.072 -5.3258 L 14.0531 -5.28414 L 14.034 -5.24245 L 14.015 -5.20074 L 13.9958 -5.15901 L 13.9766 -5.11725 L 13.9574 -5.07547 L 13.938 -5.03367 L 13.9186 -4.99183 L 13.8992 -4.94998 L 13.8796 -4.9081 L 13.86 -4.86619 L 13.8403 -4.82426 L 13.8206 -4.78231 L 13.8008 -4.74033 L 13.7809 -4.69833 L 13.7609 -4.6563 L 13.7409 -4.61425 L 13.7208 -4.57217 L 13.7006 -4.53007 L 13.6803 -4.48794 L 13.66 -4.44579 L 13.6396 -4.40361 L 13.6191 -4.36141 L 13.5985 -4.31919 L 13.5779 -4.27694 L 13.5572 -4.23466 L 13.5364 -4.19237 L 13.5155 -4.15004 L 13.4945 -4.1077 L 13.4735 -4.06532 L 13.4524 -4.02293 L 13.4312 -3.98051 L 13.4099 -3.93806 L 13.3885 -3.89559 L 13.3671 -3.8531 L 13.3455 -3.81058 L 13.3239 -3.76804 L 13.3022 -3.72547 L 13.2804 -3.68288 L 13.2586 -3.64027 L 13.2366 -3.59763 L 13.2146 -3.55497 L 13.1924 -3.51228 L 13.1702 -3.46957 L 13.1479 -3.42684 L 13.1255 -3.38408 L 13.103 -3.3413 L 13.0804 -3.29849 L 13.0577 -3.25566 L 13.0349 -3.21281 L 13.0349 -3.21281 L 13.075 -3.18546 L 13.115 -3.15808 L 13.1549 -3.13067 L 13.1947 -3.10325 L 13.2344 -3.0758 L 13.274 -3.04834 L 13.3135 -3.02085 L 13.353 -2.99334 L 13.3923 -2.96581 L 13.4316 -2.93826 L 13.4708 -2.9107 L 13.5098 -2.88311 L 13.5488 -2.85551 L 13.5878 -2.82788 L 13.6266 -2.80024 L 13.6653 -2.77258 L 13.704 -2.7449 L 13.7425 -2.71721 L 13.781 -2.6895 L 13.8194 -2.66178 L 13.8577 -2.63403 L 13.896 -2.60627 L 13.9341 -2.5785 L 13.9722 -2.55071 L 14.0102 -2.52291 L 14.0481 -2.49509 L 14.0859 -2.46726 L 14.1237 -2.43942 L 14.1614 -2.41156 L 14.199 -2.38368 L 14.2365 -2.3558 L 14.2739 -2.3279 L 14.3113 -2.29999 L 14.3486 -2.27206 L 14.3858 -2.24413 L 14.4229 -2.21618 L 14.46 -2.18822 L 14.497 -2.16025 L 14.5339 -2.13227 L 14.5707 -2.10428 L 14.6075 -2.07628 L 14.6442 -2.04827 L 14.6808 -2.02024 L 14.7173 -1.99221 L 14.7538 -1.96417 L 14.7902 -1.93612 L 14.8266 -1.90806 L 14.8628 -1.87999 L 14.899 -1.85191 L 14.9351 -1.82382 L 14.9712 -1.79572 L 15.0072 -1.76762 L 15.0431 -1.73951 L 15.079 -1.71139 L 15.1148 -1.68326 L 15.1505 -1.65513 L 15.1861 -1.62699 L 15.2217 -1.59884 L 15.2573 -1.57068 L 15.2927 -1.54252 L 15.3281 -1.51435 L 15.3634 -1.48617 L 15.3987 -1.45799 L 15.4339 -1.42981 L 15.4369 -1.39752 L 15.4398 -1.36523 L 15.4426 -1.33293 L 15.4453 -1.30062 L 15.448 -1.26831 L 15.4506 -1.236 L 15.4532 -1.20368 L 15.4557 -1.17135 L 15.4581 -1.13902 L 15.4604 -1.10668 L 15.4627 -1.07434 L 15.4649 -1.04199 L 15.4671 -1.00964 L 15.4692 -0.977286 L 15.4712 -0.944927 L 15.4731 -0.912563 L 15.475 -0.880196 L 15.4768 -0.847824 L 15.4785 -0.815449 L 15.4802 -0.78307 L 15.4818 -0.750688 L 15.4833 -0.718303 L 15.4848 -0.685914 L 15.4862 -0.653522 L 15.4875 -0.621128 L 15.4888 -0.588731 L 15.49 -0.556331 L 15.4911 -0.523929 L 15.4922 -0.491524 L 15.4932 -0.459118 L 15.4941 -0.426709 L 15.495 -0.394299 L 15.4958 -0.361887 L 15.4965 -0.329473 L 15.4972 -0.297057 L 15.4977 -0.264641 L 15.4983 -0.232223 L 15.4987 -0.199804 L 15.4991 -0.167385 L 15.4994 -0.134965 L 15.4997 -0.102544 L 15.4998 -0.0701223 L 15.5 -0.0377006Z"
id="path1" />
</g>
</svg>
