<?xml version="1.0" encoding="UTF-8" standalone="no"?>
<svg version="1.1">
<g
style="fill:none;stroke:#000000;stroke-opacity:1;stroke-width:0.1">
<path d="M 15.7499 0.0460443 L 15.7498 0.0774835 L 15.7496 0.108922 L 15.7494 0.140361 L 15.7491 0.171799 L 15.7487 0.203236 L 15.7483 0.234672 L 15.7478 0.266107 L 15.7472 0.297542 L 15.7466 0.328975 L 15.7459 0.360407 L 15.7451 0.391837 L 15.7443 0.423266 L 15.7434 0.454693 L 15.7425 0.486119 L 15.7415 0.517542 L 15.7404 0.548963 L 15.7393 0.580383 L 15.7381 0.6118 L 15.7369 0.643214 L 15.7355 0.674626 L 15.7342 0.706035 L 15.7327 0.737441 L 15.7312 0.768845 L 15.7297 0.800245 L 15.728 0.831642 L 15.7263 0.863036 L 15.7246 0.894427 L 15.7228 0.925813 L 15.7209 0.957197 L 15.7189 0.988576 L 15.7169 1.01995 L 15.7149 1.05132 L 15.7127 1.08269 L 15.7106 1.11405 L 15.7083 1.14541 L 15.706 1.17676 L 15.7036 1.20811 L 15.7012 1.23946 L 15.6986 1.2708 L 15.6961 1.30213 L 15.6935 1.33346 L 15.6908 1.36479 L 15.688 1.3961 L 15.6852 1.42742 L 15.6823 1.45872 L 15.6794 1.49002 L 15.6452 1.51735 L 15.6109 1.54467 L 15.5766 1.57199 L 15.5422 1.5993 L 15.5077 1.6266 L 15.4732 1.6539 L 15.4387 1.68119 L 15.404 1.70847 L 15.3693 1.73575 L 15.3346 1.76302 L 15.2998 1.79028 L 15.2649 1.81753 L 15.23 1.84478 L 15.195 1.87202 L 15.1599 1.89925 L 15.1248 1.92648 L 15.0896 1.95369 L 15.0543 1.9809 L 15.019 2.0081 L 14.9836 2.03529 L 14.9482 2.06247 L 14.9126 2.08964 L 14.8771 2.11681 L 14.8414 2.14396 L 14.8057 2.1711 L 14.7699 2.19824 L 14.734 2.22536 L 14.6981 2.25247 L 14.6621 2.27958 L 14.626 2.30667 L 14.5899 2.33375 L 14.5537 2.36082 L 14.5174 2.38788 L 14.4811 2.41492 L 14.4447 2.44196 L 14.4082 2.46898 L 14.3716 2.49599 L 14.335 2.52298 L 14.2983 2.54997 L 14.2615 2.57694 L 14.2246 2.6039 L 14.1877 2.63084 L 14.1507 2.65777 L 14.1136 2.68469 L 14.0764 2.71159 L 14.0392 2.73847 L 14.0019 2.76534 L 13.9645 2.7922 L 13.927 2.81904 L 13.8895 2.84587 L 13.8519 2.87267 L 13.8141 2.89947 L 13.7764 2.92624 L 13.7385 2.953 L 13.7005 2.97974 L 13.6625 3.00646 L 13.6244 3.03317 L 13.5862 3.05985 L 13.5479 3.08652 L 13.5096 3.11317 L 13.4711 3.1398 L 13.4326 3.16641 L 13.394 3.193 L 13.3553 3.21957 L 13.3165 3.24611 L 13.2776 3.27264 L 13.2776 3.27264 L 13.2997 3.3142 L 13.3217 3.35573 L 13.3436 3.39724 L 13.3655 3.43873 L 13.3872 3.48019 L 13.4089 3.52164 L 13.4305 3.56306 L 13.452 3.60446 L 13.4734 3.64584 L 13.4947 3.6872 L 13.516 3.72853 L 13.5372 3.76985 L 13.5583 3.81114 L 13.5793 3.8524 L 13.6002 3.89365 L 13.6211 3.93487 L 13.6418 3.97607 L 13.6625 4.01725 L 13.6832 4.05841 L 13.7037 4.09954 L 13.7242 4.14065 L 13.7446 4.18174 L 13.7649 4.22281 L 13.7852 4.26385 L 13.8054 4.30487 L 13.8255 4.34587 L 13.8455 4.38685 L 13.8655 4.4278 L 13.8854 4.46873 L 13.9052 4.50964 L 13.9249 4.55052 L 13.9446 4.59139 L 13.9642 4.63223 L 13.9838 4.67304 L 14.0033 4.71384 L 14.0227 4.75461 L 14.042 4.79536 L 14.0613 4.83608 L 14.0805 4.87679 L 14.0997 4.91747 L 14.1187 4.95812 L 14.1378 4.99876 L 14.1567 5.03937 L 14.1756 5.07996 L 14.1944 5.12053 L 14.2132 5.16107 L 14.2319 5.20159 L 14.2505 5.24209 L 14.2691 5.28257 L 14.2876 5.32302 L 14.3061 5.36345 L 14.3244 5.40386 L 14.3428 5.44425 L 14.3611 5.48461 L 14.3793 5.52495 L 14.3974 5.56527 L 14.4155 5.60556 L 14.4336 5.64584 L 14.4515 5.68609 L 14.4695 5.72631 L 14.4873 5.76652 L 14.5051 5.8067 L 14.5229 5.84686 L 14.5406 5.887 L 14.5582 5.92712 L 14.5758 5.96721 L 14.5639 5.99629 L 14.5519 6.02535 L 14.5398 6.05439 L 14.5277 6.0834 L 14.5156 6.11239 L 14.5033 6.14135 L 14.491 6.17029 L 14.4787 6.1992 L 14.4663 6.22809 L 14.4538 6.25696 L 14.4413 6.2858 L 14.4287 6.31461 L 14.4161 6.3434 L 14.4034 6.37217 L 14.3907 6.4009 L 14.3778 6.42962 L 14.365 6.4583 L 14.3521 6.48697 L 14.3391 6.5156 L 14.3261 6.54421 L 14.313 6.5728 L 14.2998 6.60135 L 14.2866 6.62989 L 14.2733 6.65839 L 14.26 6.68687 L 14.2466 6.71532 L 14.2332 6.74375 L 14.2197 6.77214 L 14.2062 6.80052 L 14.1926 6.82886 L 14.1789 6.85718 L 14.1652 6.88547 L 14.1514 6.91373 L 14.1376 6.94196 L 14.1237 6.97017 L 14.1098 6.99835 L 14.0958 7.0265 L 14.0817 7.05462 L 14.0676 7.08272 L 14.0534 7.11079 L 14.0392 7.13882 L 14.0249 7.16683 L 14.0106 7.19482 L 13.9962 7.22277 L 13.9818 7.25069 L 13.9673 7.27859 L 13.9245 7.36013 L 13.9098 7.38791 L 13.895 7.41566 L 13.8801 7.44338 L 13.8653 7.47107 L 13.8503 7.49874 L 13.8353 7.52637 L 13.8203 7.55397 L 13.8052 7.58154 L 13.79 7.60909 L 13.7748 7.6366 L 13.7595 7.66408 L 13.7442 7.69153 L 13.7288 7.71895 L 13.7134 7.74634 L 13.6979 7.7737 L 13.6823 7.80103 L 13.6667 7.82832 L 13.6511 7.85559 L 13.6354 7.88282 L 13.6196 7.91002 L 13.6038 7.93719 L 13.5879 7.96433 L 13.572 7.99144 L 13.556 8.01852 L 13.54 8.04556 L 13.5239 8.07257 L 13.5078 8.09955 L 13.4916 8.1265 L 13.4753 8.15342 L 13.459 8.1803 L 13.4427 8.20715 L 13.4263 8.23397 L 13.4098 8.26075 L 13.3933 8.2875 L 13.3767 8.31422 L 13.3601 8.34091 L 13.3434 8.36756 L 13.3267 8.39418 L 13.3099 8.42076 L 13.2931 8.44731 L 13.2762 8.47383 L 13.2592 8.50032 L 13.2422 8.52677 L 13.2252 8.55318 L 13.2081 8.57957 L 13.1909 8.60591 L 13.1479 8.61421 L 13.1049 8.62248 L 13.0618 8.63071 L 13.0187 8.63892 L 12.9755 8.64708 L 12.9323 8.65522 L 12.889 8.66332 L 12.8456 8.67138 L 12.8022 8.67942 L 12.7588 8.68741 L 12.7153 8.69537 L 12.6718 8.7033 L 12.6282 8.71119 L 12.5845 8.71904 L 12.5408 8.72686 L 12.497 8.73464 L 12.4532 8.74239 L 12.4094 8.75009 L 12.3655 8.75776 L 12.3215 8.76539 L 12.2775 8.77298 L 12.2334 8.78054 L 12.1892 8.78805 L 12.1451 8.79552 L 12.1008 8.80296 L 12.0565 8.81035 L 12.0122 8.8177 L 11.9677 8.82502 L 11.9233 8.83229 L 11.8788 8.83951 L 11.8342 8.8467 L 11.7895 8.85384 L 11.7448 8.86094 L 11.7001 8.868 L 11.6553 8.87501 L 11.6104 8.88198 L 11.5655 8.88891 L 11.5205 8.89578 L 11.4755 8.90262 L 11.4303 8.90941 L 11.3852 8.91615 L 11.34 8.92284 L 11.2947 8.92949 L 11.2493 8.93609 L 11.2039 8.94264 L 11.1585 8.94914 L 11.1129 8.95559 L 11.0673 8.96199 L 11.0217 8.96835 L 10.976 8.97465 L 10.9302 8.9809 L 10.8844 8.9871 L 10.8385 8.99325 L 10.7925 8.99935 L 10.7465 9.00539 L 10.7004 9.01138 L 10.6542 9.01731 L 10.608 9.02319 L 10.5617 9.02902 L 10.5154 9.03479 L 10.469 9.0405 L 10.4225 9.04616 L 10.3759 9.05175 L 10.3293 9.0573 L 10.2826 9.06278 L 10.2359 9.0682 L 10.2359 9.0682 L 10.2361 9.11526 L 10.2363 9.16226 L 10.2364 9.20921 L 10.2365 9.25609 L 10.2365 9.30291 L 10.2364 9.34968 L 10.2363 9.39639 L 10.2361 9.44304 L 10.2358 9.48963 L 10.2355 9.53617 L 10.2351 9.58264 L 10.2346 9.62906 L 10.2341 9.67543 L 10.2335 9.72173 L 10.2329 9.76799 L 10.2322 9.81418 L 10.2315 9.86032 L 10.2307 9.9064 L 10.2298 9.95243 L 10.2289 9.9984 L 10.2279 10.0443 L 10.2269 10.0902 L 10.2258 10.136 L 10.2247 10.1817 L 10.2235 10.2275 L 10.2222 10.2731 L 10.2209 10.3187 L 10.2196 10.3642 L 10.2182 10.4097 L 10.2167 10.4552 L 10.2152 10.5005 L 10.2136 10.5459 L 10.212 10.5911 L 10.2104 10.6364 L 10.2086 10.6815 L 10.2069 10.7267 L 10.2051 10.7717 L 10.2032 10.8168 L 10.2013 10.8617 L 10.1994 10.9066 L 10.1974 10.9515 L 10.1953 10.9963 L 10.1932 11.0411 L 10.1911 11.0858 L 10.1889 11.1305 L 10.1867 11.1751 L 10.1844 11.2197 L 10.1821 11.2642 L 10.1797 11.3087 L 10.1773 11.3531 L 10.1749 11.3975 L 10.1724 11.4418 L 10.1698 11.4861 L 10.1673 11.5303 L 10.1646 11.5745 L 10.162 11.6186 L 10.1593 11.6627 L 10.1565 11.7067 L 10.1537 11.7507 L 10.1509 11.7947 L 10.1481 11.8386 L 10.1452 11.8825 L 10.1422 11.9263 L 10.1392 11.97 L 10.1362 12.0138 L 10.1332 12.0574 L 10.1091 12.0776 L 10.0849 12.0978 L 10.0608 12.1179 L 10.0366 12.138 L 10.0123 12.158 L 9.98802 12.1779 L 9.9637 12.1978 L 9.93933 12.2177 L 9.91492 12.2375 L 9.89047 12.2573 L 9.86598 12.277 L 9.84146 12.2967 L 9.81689 12.3163 L 9.79229 12.3359 L 9.76764 12.3554 L 9.74296 12.3749 L 9.71824 12.3943 L 9.69348 12.4137 L 9.66868 12.433 L 9.64384 12.4523 L 9.61897 12.4715 L 9.59405 12.4907 L 9.5691 12.5098 L 9.54411 12.5289 L 9.51908 12.5479 L 9.49401 12.5669 L 9.46891 12.5858 L 9.44377 12.6047 L 9.41859 12.6235 L 9.39337 12.6423 L 9.36812 12.661 L 9.34282 12.6797 L 9.3175 12.6983 L 9.29213 12.7169 L 9.26673 12.7354 L 9.24129 12.7539 L 9.21581 12.7723 L 9.1903 12.7907 L 9.16474 12.809 L 9.13916 12.8272 L 9.11353 12.8455 L 9.08787 12.8636 L 9.06218 12.8817 L 9.03645 12.8998 L 9.01068 12.9178 L 8.98488 12.9358 L 8.90909 12.9881 L 8.88314 13.0059 L 8.85716 13.0236 L 8.83115 13.0412 L 8.8051 13.0588 L 8.77902 13.0764 L 8.7529 13.0939 L 8.72674 13.1113 L 8.70055 13.1287 L 8.67433 13.146 L 8.64807 13.1633 L 8.62177 13.1806 L 8.59545 13.1978 L 8.56909 13.2149 L 8.54269 13.232 L 8.51626 13.249 L 8.4898 13.266 L 8.4633 13.2829 L 8.43677 13.2998 L 8.4102 13.3166 L 8.3836 13.3333 L 8.35697 13.35 L 8.3303 13.3667 L 8.30361 13.3833 L 8.27687 13.3998 L 8.25011 13.4163 L 8.22331 13.4328 L 8.19648 13.4492 L 8.16962 13.4655 L 8.14272 13.4818 L 8.1158 13.498 L 8.08884 13.5142 L 8.06184 13.5303 L 8.03482 13.5464 L 8.00776 13.5624 L 7.98067 13.5783 L 7.95355 13.5942 L 7.9264 13.6101 L 7.89922 13.6259 L 7.872 13.6416 L 7.84476 13.6573 L 7.81748 13.6729 L 7.79017 13.6885 L 7.76283 13.704 L 7.73546 13.7195 L 7.70806 13.7349 L 7.68063 13.7503 L 7.6387 13.7377 L 7.59675 13.725 L 7.55477 13.7122 L 7.51277 13.6995 L 7.47073 13.6866 L 7.42866 13.6737 L 7.38657 13.6608 L 7.34444 13.6478 L 7.30229 13.6347 L 7.26011 13.6216 L 7.2179 13.6085 L 7.17565 13.5952 L 7.13338 13.582 L 7.09108 13.5686 L 7.04875 13.5553 L 7.00639 13.5418 L 6.964 13.5283 L 6.92158 13.5147 L 6.87913 13.5011 L 6.83665 13.4874 L 6.79414 13.4737 L 6.7516 13.4599 L 6.70903 13.4461 L 6.66643 13.4321 L 6.6238 13.4182 L 6.58114 13.4041 L 6.53845 13.39 L 6.49573 13.3759 L 6.45297 13.3616 L 6.41019 13.3473 L 6.36738 13.333 L 6.32453 13.3186 L 6.28166 13.3041 L 6.23875 13.2895 L 6.19581 13.2749 L 6.15285 13.2602 L 6.10985 13.2455 L 6.06682 13.2307 L 6.02376 13.2158 L 5.98066 13.2008 L 5.93754 13.1858 L 5.89439 13.1707 L 5.8512 13.1556 L 5.80798 13.1403 L 5.76473 13.125 L 5.72145 13.1097 L 5.67814 13.0942 L 5.6348 13.0787 L 5.59143 13.0631 L 5.54802 13.0475 L 5.50458 13.0317 L 5.46112 13.0159 L 5.41762 13 L 5.37408 12.9841 L 5.33052 12.968 L 5.28692 12.9519 L 5.2433 12.9357 L 5.19964 12.9194 L 5.15595 12.9031 L 5.11223 12.8866 L 5.06847 12.8701 L 5.02468 12.8535 L 4.98087 12.8369 L 4.93702 12.8201 L 4.89314 12.8033 L 4.84922 12.7863 L 4.84922 12.7863 L 4.82757 12.8281 L 4.80589 12.8698 L 4.78418 12.9115 L 4.76244 12.953 L 4.74067 12.9944 L 4.71887 13.0358 L 4.69704 13.0771 L 4.67518 13.1183 L 4.65329 13.1595 L 4.63138 13.2005 L 4.60943 13.2415 L 4.58746 13.2824 L 4.56546 13.3232 L 4.54344 13.3639 L 4.52138 13.4046 L 4.49931 13.4452 L 4.4772 13.4857 L 4.45508 13.5261 L 4.43292 13.5665 L 4.41075 13.6068 L 4.38854 13.647 L 4.36632 13.6871 L 4.34407 13.7271 L 4.3218 13.7671 L 4.2995 13.807 L 4.27718 13.8469 L 4.25484 13.8866 L 4.23248 13.9263 L 4.21009 13.966 L 4.18769 14.0055 L 4.16526 14.045 L 4.14282 14.0844 L 4.12035 14.1238 L 4.09786 14.163 L 4.07535 14.2022 L 4.05282 14.2414 L 4.03028 14.2804 L 4.00771 14.3194 L 3.98513 14.3584 L 3.96252 14.3972 L 3.9399 14.436 L 3.91726 14.4748 L 3.8946 14.5134 L 3.87193 14.552 L 3.84923 14.5906 L 3.82653 14.629 L 3.8038 14.6674 L 3.78106 14.7058 L 3.7583 14.7441 L 3.73552 14.7823 L 3.71273 14.8204 L 3.68992 14.8585 L 3.6671 14.8966 L 3.64426 14.9345 L 3.62141 14.9724 L 3.59854 15.0103 L 3.57566 15.0481 L 3.55276 15.0858 L 3.52985 15.1234 L 3.50693 15.1611 L 3.48399 15.1986 L 3.46104 15.2361 L 3.43807 15.2735 L 3.41509 15.3109 L 3.3921 15.3482 L 3.3691 15.3854 L 3.33838 15.3921 L 3.30765 15.3988 L 3.2769 15.4053 L 3.24615 15.4118 L 3.21538 15.4183 L 3.18459 15.4247 L 3.1538 15.431 L 3.12299 15.4373 L 3.09217 15.4435 L 3.06133 15.4496 L 3.03049 15.4557 L 2.99963 15.4617 L 2.96876 15.4677 L 2.93788 15.4736 L 2.90698 15.4794 L 2.87608 15.4852 L 2.84516 15.4909 L 2.81423 15.4965 L 2.78329 15.5021 L 2.75234 15.5076 L 2.72138 15.5131 L 2.69041 15.5185 L 2.65943 15.5239 L 2.62844 15.5291 L 2.59743 15.5343 L 2.56642 15.5395 L 2.53539 15.5446 L 2.50436 15.5496 L 2.47331 15.5546 L 2.44226 15.5595 L 2.4112 15.5643 L 2.38012 15.5691 L 2.34904 15.5738 L 2.31795 15.5785 L 2.28685 15.5831 L 2.25573 15.5876 L 2.22461 15.5921 L 2.19349 15.5965 L 2.16235 15.6009 L 2.1312 15.6051 L 2.10005 15.6094 L 2.06889 15.6135 L 2.03771 15.6176 L 2.00654 15.6217 L 1.97535 15.6256 L 1.94415 15.6295 L 1.85274 15.6406 L 1.82151 15.6443 L 1.79028 15.6479 L 1.75904 15.6515 L 1.72779 15.6549 L 1.69654 15.6584 L 1.66528 15.6617 L 1.63401 15.665 L 1.60274 15.6682 L 1.57146 15.6714 L 1.54018 15.6745 L 1.50888 15.6776 L 1.47759 15.6805 L 1.44628 15.6835 L 1.41497 15.6863 L 1.38366 15.6891 L 1.35234 15.6918 L 1.32101 15.6945 L 1.28968 15.6971 L 1.25834 15.6997 L 1.227 15.7021 L 1.19566 15.7046 L 1.16431 15.7069 L 1.13295 15.7092 L 1.10159 15.7114 L 1.07023 15.7136 L 1.03886 15.7157 L 1.00748 15.7177 L 0.976107 15.7197 L 0.944726 15.7216 L 0.913341 15.7235 L 0.881953 15.7253 L 0.850561 15.727 L 0.819166 15.7287 L 0.787768 15.7303 L 0.756366 15.7318 L 0.724961 15.7333 L 0.693554 15.7347 L 0.662144 15.7361 L 0.630731 15.7374 L 0.599315 15.7386 L 0.567897 15.7398 L 0.536477 15.7409 L 0.505055 15.7419 L 0.473631 15.7429 L 0.442205 15.7438 L 0.410777 15.7446 L 0.379526 15.714 L 0.348274 15.6833 L 0.317021 15.6525 L 0.285766 15.6216 L 0.254511 15.5907 L 0.223254 15.5598 L 0.191997 15.5287 L 0.160738 15.4977 L 0.129479 15.4665 L 0.0982199 15.4353 L 0.06696 15.404 L 0.0356999 15.3727 L 0.0044396 15.3413 L -0.0268207 15.3098 L -0.0580809 15.2783 L -0.0893408 15.2467 L -0.1206 15.2151 L -0.151859 15.1833 L -0.183118 15.1515 L -0.214375 15.1197 L -0.245632 15.0878 L -0.276888 15.0558 L -0.308142 15.0237 L -0.339395 14.9916 L -0.370646 14.9594 L -0.401896 14.9272 L -0.433144 14.8948 L -0.46439 14.8624 L -0.495633 14.83 L -0.526874 14.7974 L -0.558113 14.7648 L -0.589349 14.7322 L -0.620582 14.6994 L -0.651813 14.6666 L -0.68304 14.6337 L -0.714263 14.6007 L -0.745483 14.5677 L -0.776699 14.5346 L -0.807911 14.5014 L -0.839119 14.4681 L -0.870323 14.4348 L -0.901522 14.4014 L -0.932716 14.3679 L -0.963905 14.3343 L -0.995089 14.3006 L -1.02627 14.2669 L -1.05744 14.2331 L -1.08861 14.1992 L -1.11977 14.1653 L -1.15092 14.1312 L -1.18207 14.0971 L -1.21321 14.0629 L -1.24435 14.0286 L -1.27548 13.9943 L -1.30659 13.9598 L -1.33771 13.9253 L -1.36881 13.8907 L -1.39991 13.856 L -1.43099 13.8212 L -1.46207 13.7863 L -1.49314 13.7514 L -1.5242 13.7163 L -1.55525 13.6812 L -1.58629 13.646 L -1.61732 13.6107 L -1.64834 13.5753 L -1.64834 13.5753 L -1.68693 13.6022 L -1.7255 13.6291 L -1.76407 13.6558 L -1.80262 13.6825 L -1.84117 13.7091 L -1.8797 13.7356 L -1.91822 13.762 L -1.95672 13.7884 L -1.99522 13.8146 L -2.0337 13.8408 L -2.07218 13.8669 L -2.11064 13.8929 L -2.14908 13.9188 L -2.18752 13.9446 L -2.22594 13.9704 L -2.26435 13.996 L -2.30274 14.0216 L -2.34113 14.0472 L -2.3795 14.0726 L -2.41785 14.098 L -2.4562 14.1232 L -2.49453 14.1484 L -2.53284 14.1736 L -2.57114 14.1986 L -2.60943 14.2236 L -2.64771 14.2485 L -2.68597 14.2733 L -2.72422 14.2981 L -2.76245 14.3228 L -2.80067 14.3474 L -2.83888 14.3719 L -2.87707 14.3964 L -2.91525 14.4208 L -2.95341 14.4451 L -2.99156 14.4694 L -3.0297 14.4935 L -3.06781 14.5177 L -3.10592 14.5417 L -3.14401 14.5657 L -3.18209 14.5896 L -3.22015 14.6134 L -3.2582 14.6372 L -3.29623 14.6609 L -3.33424 14.6846 L -3.37225 14.7081 L -3.41023 14.7316 L -3.44821 14.7551 L -3.48616 14.7785 L -3.5241 14.8018 L -3.56203 14.825 L -3.59994 14.8482 L -3.63784 14.8714 L -3.67572 14.8944 L -3.71359 14.9174 L -3.75144 14.9404 L -3.78927 14.9633 L -3.82709 14.9861 L -3.8649 15.0089 L -3.90269 15.0316 L -3.94046 15.0542 L -3.97822 15.0768 L -4.01596 15.0993 L -4.05369 15.1218 L -4.0914 15.1442 L -4.1291 15.1665 L -4.16678 15.1888 L -4.19709 15.1805 L -4.22739 15.1721 L -4.25766 15.1636 L -4.28792 15.1551 L -4.31817 15.1465 L -4.34839 15.1378 L -4.3786 15.1291 L -4.40879 15.1204 L -4.43897 15.1115 L -4.46912 15.1026 L -4.49926 15.0937 L -4.52938 15.0847 L -4.55948 15.0756 L -4.58957 15.0665 L -4.61963 15.0573 L -4.64968 15.048 L -4.67971 15.0387 L -4.70972 15.0293 L -4.73971 15.0199 L -4.76968 15.0104 L -4.79964 15.0009 L -4.82957 14.9913 L -4.85949 14.9816 L -4.88938 14.9719 L -4.91926 14.9621 L -4.94912 14.9522 L -4.97895 14.9423 L -5.00877 14.9323 L -5.03857 14.9223 L -5.06834 14.9122 L -5.0981 14.9021 L -5.12784 14.8919 L -5.15755 14.8816 L -5.18725 14.8713 L -5.21692 14.8609 L -5.24658 14.8505 L -5.27621 14.8399 L -5.30582 14.8294 L -5.33541 14.8188 L -5.36498 14.8081 L -5.39453 14.7973 L -5.42406 14.7866 L -5.45357 14.7757 L -5.48305 14.7648 L -5.51251 14.7538 L -5.54195 14.7428 L -5.62806 14.7101 L -5.65741 14.6989 L -5.68674 14.6875 L -5.71604 14.6761 L -5.74533 14.6647 L -5.77459 14.6532 L -5.80383 14.6417 L -5.83304 14.63 L -5.86224 14.6184 L -5.89141 14.6066 L -5.92055 14.5948 L -5.94967 14.583 L -5.97877 14.5711 L -6.00784 14.5591 L -6.03689 14.5471 L -6.06592 14.535 L -6.09492 14.5229 L -6.1239 14.5107 L -6.15285 14.4984 L -6.18178 14.4861 L -6.21069 14.4738 L -6.23957 14.4613 L -6.26842 14.4489 L -6.29725 14.4363 L -6.32606 14.4237 L -6.35483 14.4111 L -6.38359 14.3983 L -6.41232 14.3856 L -6.44102 14.3727 L -6.4697 14.3599 L -6.49835 14.3469 L -6.52697 14.3339 L -6.55557 14.3209 L -6.58415 14.3077 L -6.6127 14.2946 L -6.64122 14.2813 L -6.66971 14.2681 L -6.69818 14.2547 L -6.72662 14.2413 L -6.75503 14.2279 L -6.78342 14.2143 L -6.81178 14.2008 L -6.84012 14.1872 L -6.86842 14.1735 L -6.8967 14.1597 L -6.92495 14.1459 L -6.95318 14.1321 L -6.9666 14.0904 L -6.97999 14.0487 L -6.99336 14.0069 L -7.0067 13.9651 L -7.02001 13.9232 L -7.0333 13.8812 L -7.04656 13.8392 L -7.05979 13.7972 L -7.07299 13.7551 L -7.08617 13.7129 L -7.09932 13.6707 L -7.11243 13.6284 L -7.12552 13.5861 L -7.13858 13.5437 L -7.15161 13.5013 L -7.16461 13.4588 L -7.17757 13.4162 L -7.19051 13.3736 L -7.20342 13.3309 L -7.21629 13.2882 L -7.22913 13.2454 L -7.24195 13.2026 L -7.25472 13.1597 L -7.26747 13.1167 L -7.28018 13.0737 L -7.29286 13.0306 L -7.30551 12.9874 L -7.31812 12.9442 L -7.3307 12.901 L -7.34324 12.8576 L -7.35575 12.8142 L -7.36822 12.7708 L -7.38065 12.7273 L -7.39305 12.6837 L -7.40542 12.6401 L -7.41774 12.5964 L -7.43003 12.5526 L -7.44228 12.5088 L -7.4545 12.4649 L -7.46667 12.4209 L -7.47881 12.3769 L -7.4909 12.3328 L -7.50296 12.2887 L -7.51497 12.2444 L -7.52695 12.2002 L -7.53889 12.1558 L -7.55078 12.1114 L -7.56263 12.0669 L -7.57444 12.0223 L -7.58621 11.9777 L -7.59793 11.933 L -7.60961 11.8883 L -7.62125 11.8435 L -7.63284 11.7986 L -7.64438 11.7536 L -7.65589 11.7086 L -7.66734 11.6635 L -7.67875 11.6183 L -7.69011 11.573 L -7.70142 11.5277 L -7.71269 11.4823 L -7.72391 11.4369 L -7.73508 11.3913 L -7.7462 11.3457 L -7.75727 11.3001 L -7.76829 11.2543 L -7.76829 11.2543 L -7.81497 11.2602 L -7.86161 11.2661 L -7.90819 11.2718 L -7.95473 11.2776 L -8.00121 11.2832 L -8.04765 11.2887 L -8.09403 11.2942 L -8.14037 11.2997 L -8.18665 11.305 L -8.23289 11.3103 L -8.27907 11.3155 L -8.32521 11.3207 L -8.3713 11.3257 L -8.41733 11.3308 L -8.46332 11.3357 L -8.50927 11.3406 L -8.55516 11.3454 L -8.601 11.3502 L -8.6468 11.3549 L -8.69255 11.3595 L -8.73825 11.3641 L -8.7839 11.3686 L -8.82951 11.373 L -8.87507 11.3774 L -8.92058 11.3817 L -8.96604 11.386 L -9.01146 11.3902 L -9.05683 11.3943 L -9.10216 11.3984 L -9.14744 11.4024 L -9.19267 11.4064 L -9.23786 11.4103 L -9.283 11.4142 L -9.32809 11.418 L -9.37314 11.4217 L -9.41815 11.4254 L -9.46311 11.4291 L -9.50802 11.4326 L -9.55289 11.4362 L -9.59772 11.4397 L -9.6425 11.4431 L -9.68724 11.4464 L -9.73193 11.4498 L -9.77658 11.453 L -9.82119 11.4562 L -9.86575 11.4594 L -9.91027 11.4625 L -9.95474 11.4656 L -9.99918 11.4686 L -10.0436 11.4716 L -10.0879 11.4745 L -10.1322 11.4774 L -10.1765 11.4802 L -10.2207 11.4829 L -10.2649 11.4857 L -10.309 11.4884 L -10.3531 11.491 L -10.3972 11.4936 L -10.4412 11.4961 L -10.4851 11.4986 L -10.5291 11.5011 L -10.573 11.5035 L -10.6168 11.5058 L -10.6606 11.5081 L -10.7044 11.5104 L -10.7481 11.5126 L -10.7711 11.4912 L -10.794 11.4696 L -10.8168 11.4481 L -10.8397 11.4265 L -10.8625 11.4048 L -10.8852 11.3831 L -10.9079 11.3613 L -10.9306 11.3395 L -10.9532 11.3177 L -10.9758 11.2958 L -10.9983 11.2739 L -11.0208 11.2519 L -11.0432 11.2299 L -11.0656 11.2078 L -11.0879 11.1857 L -11.1103 11.1635 L -11.1325 11.1413 L -11.1547 11.1191 L -11.1769 11.0968 L -11.199 11.0745 L -11.2211 11.0521 L -11.2432 11.0297 L -11.2652 11.0072 L -11.2871 10.9847 L -11.309 10.9622 L -11.3309 10.9396 L -11.3527 10.9169 L -11.3744 10.8942 L -11.3962 10.8715 L -11.4179 10.8487 L -11.4395 10.8259 L -11.4611 10.8031 L -11.4826 10.7802 L -11.5041 10.7572 L -11.5256 10.7342 L -11.547 10.7112 L -11.5683 10.6881 L -11.5896 10.665 L -11.6109 10.6419 L -11.6321 10.6187 L -11.6533 10.5954 L -11.6744 10.5722 L -11.6955 10.5488 L -11.7165 10.5255 L -11.7375 10.5021 L -11.7585 10.4786 L -11.8195 10.4097 L -11.8403 10.3861 L -11.861 10.3624 L -11.8817 10.3387 L -11.9023 10.315 L -11.9228 10.2912 L -11.9434 10.2674 L -11.9638 10.2435 L -11.9842 10.2196 L -12.0046 10.1957 L -12.025 10.1717 L -12.0452 10.1477 L -12.0655 10.1236 L -12.0856 10.0995 L -12.1058 10.0753 L -12.1259 10.0512 L -12.1459 10.0269 L -12.1659 10.0027 L -12.1858 9.97836 L -12.2057 9.95402 L -12.2256 9.92963 L -12.2454 9.90521 L -12.2651 9.88074 L -12.2848 9.85624 L -12.3045 9.8317 L -12.3241 9.80712 L -12.3436 9.7825 L -12.3631 9.75784 L -12.3826 9.73314 L -12.402 9.7084 L -12.4213 9.68363 L -12.4407 9.65881 L -12.4599 9.63396 L -12.4791 9.60907 L -12.4983 9.58414 L -12.5174 9.55917 L -12.5364 9.53417 L -12.5554 9.50912 L -12.5744 9.48404 L -12.5933 9.45892 L -12.6122 9.43377 L -12.631 9.40857 L -12.6497 9.38334 L -12.6684 9.35807 L -12.6871 9.33276 L -12.7057 9.30742 L -12.7242 9.28204 L -12.7168 9.2389 L -12.7092 9.19573 L -12.7016 9.15252 L -12.694 9.10928 L -12.6863 9.066 L -12.6786 9.02269 L -12.6708 8.97934 L -12.663 8.93595 L -12.6551 8.89253 L -12.6472 8.84908 L -12.6392 8.80559 L -12.6312 8.76206 L -12.6231 8.7185 L -12.615 8.6749 L -12.6068 8.63126 L -12.5985 8.58759 L -12.5903 8.54388 L -12.5819 8.50014 L -12.5735 8.45636 L -12.565 8.41254 L -12.5565 8.36868 L -12.548 8.32479 L -12.5393 8.28086 L -12.5307 8.23689 L -12.5219 8.19289 L -12.5131 8.14884 L -12.5043 8.10476 L -12.4954 8.06065 L -12.4864 8.01649 L -12.4774 7.9723 L -12.4683 7.92806 L -12.4591 7.88379 L -12.4499 7.83948 L -12.4406 7.79514 L -12.4313 7.75075 L -12.4219 7.70633 L -12.4124 7.66187 L -12.4029 7.61736 L -12.3933 7.57282 L -12.3837 7.52824 L -12.374 7.48362 L -12.3642 7.43896 L -12.3544 7.39427 L -12.3445 7.34953 L -12.3345 7.30475 L -12.3244 7.25993 L -12.3143 7.21508 L -12.3041 7.17018 L -12.2939 7.12524 L -12.2836 7.08027 L -12.2732 7.03525 L -12.2627 6.99019 L -12.2522 6.94509 L -12.2416 6.89995 L -12.2309 6.85478 L -12.2202 6.80955 L -12.2094 6.76429 L -12.1985 6.71899 L -12.1875 6.67365 L -12.1765 6.62826 L -12.1654 6.58284 L -12.1542 6.53737 L -12.1429 6.49186 L -12.1315 6.44631 L -12.1201 6.40072 L -12.1086 6.35509 L -12.1086 6.35509 L -12.1527 6.33864 L -12.1967 6.32214 L -12.2406 6.30561 L -12.2845 6.28903 L -12.3283 6.27241 L -12.372 6.25576 L -12.4156 6.23906 L -12.4591 6.22233 L -12.5026 6.20556 L -12.546 6.18875 L -12.5893 6.17191 L -12.6326 6.15503 L -12.6757 6.13811 L -12.7188 6.12115 L -12.7619 6.10416 L -12.8048 6.08714 L -12.8477 6.07008 L -12.8905 6.05299 L -12.9332 6.03586 L -12.9759 6.0187 L -13.0185 6.0015 L -13.061 5.98428 L -13.1034 5.96702 L -13.1458 5.94973 L -13.1881 5.93241 L -13.2304 5.91505 L -13.2725 5.89767 L -13.3146 5.88025 L -13.3567 5.86281 L -13.3986 5.84533 L -13.4405 5.82783 L -13.4824 5.8103 L -13.5241 5.79274 L -13.5658 5.77515 L -13.6075 5.75753 L -13.649 5.73988 L -13.6905 5.72221 L -13.732 5.70451 L -13.7733 5.68678 L -13.8146 5.66903 L -13.8559 5.65125 L -13.8971 5.63344 L -13.9382 5.61561 L -13.9792 5.59775 L -14.0202 5.57987 L -14.0611 5.56196 L -14.102 5.54403 L -14.1428 5.52607 L -14.1836 5.5081 L -14.2242 5.49009 L -14.2649 5.47207 L -14.3054 5.45402 L -14.3459 5.43594 L -14.3864 5.41785 L -14.4268 5.39973 L -14.4671 5.38159 L -14.5073 5.36343 L -14.5476 5.34525 L -14.5877 5.32705 L -14.6278 5.30882 L -14.6678 5.29058 L -14.7078 5.27231 L -14.7477 5.25402 L -14.7876 5.23572 L -14.8274 5.21739 L -14.8672 5.19904 L -14.8775 5.16936 L -14.8878 5.13965 L -14.898 5.10992 L -14.9082 5.08017 L -14.9183 5.0504 L -14.9284 5.02061 L -14.9384 4.9908 L -14.9483 4.96097 L -14.9582 4.93113 L -14.968 4.90126 L -14.9777 4.87137 L -14.9874 4.84146 L -14.9971 4.81153 L -15.0066 4.78159 L -15.0161 4.75162 L -15.0256 4.72164 L -15.035 4.69164 L -15.0443 4.66162 L -15.0536 4.63158 L -15.0628 4.60152 L -15.072 4.57144 L -15.0811 4.54134 L -15.0901 4.51123 L -15.0991 4.4811 L -15.108 4.45095 L -15.1169 4.42078 L -15.1256 4.3906 L -15.1344 4.3604 L -15.1431 4.33018 L -15.1517 4.29994 L -15.1602 4.26969 L -15.1687 4.23942 L -15.1771 4.20913 L -15.1855 4.17883 L -15.1938 4.14851 L -15.2021 4.11817 L -15.2103 4.08781 L -15.2184 4.05744 L -15.2265 4.02706 L -15.2345 3.99666 L -15.2424 3.96624 L -15.2503 3.9358 L -15.2581 3.90535 L -15.2659 3.87489 L -15.2736 3.84441 L -15.2812 3.81391 L -15.3033 3.7245 L -15.3107 3.69394 L -15.318 3.66337 L -15.3253 3.63279 L -15.3325 3.60219 L -15.3397 3.57158 L -15.3468 3.54095 L -15.3538 3.51031 L -15.3608 3.47965 L -15.3677 3.44898 L -15.3746 3.4183 L -15.3814 3.3876 L -15.3881 3.35689 L -15.3948 3.32617 L -15.4014 3.29543 L -15.4079 3.26468 L -15.4144 3.23392 L -15.4208 3.20314 L -15.4272 3.17236 L -15.4335 3.14155 L -15.4397 3.11074 L -15.4459 3.07991 L -15.452 3.04908 L -15.4581 3.01822 L -15.4641 2.98736 L -15.47 2.95649 L -15.4759 2.9256 L -15.4817 2.8947 L -15.4875 2.86379 L -15.4931 2.83287 L -15.4988 2.80194 L -15.5043 2.771 L -15.5098 2.74004 L -15.5153 2.70908 L -15.5206 2.6781 L -15.526 2.64711 L -15.5312 2.61612 L -15.5364 2.58511 L -15.5415 2.55409 L -15.5466 2.52306 L -15.5516 2.49202 L -15.5565 2.46098 L -15.5614 2.42992 L -15.5662 2.39885 L -15.571 2.36777 L -15.5757 2.33669 L -15.5803 2.30559 L -15.5537 2.27087 L -15.5269 2.23614 L -15.5001 2.20141 L -15.4733 2.16666 L -15.4464 2.13191 L -15.4194 2.09715 L -15.3924 2.06238 L -15.3653 2.0276 L -15.3381 1.99282 L -15.3109 1.95802 L -15.2836 1.92322 L -15.2563 1.88841 L -15.2289 1.8536 L -15.2014 1.81877 L -15.1739 1.78394 L -15.1463 1.7491 L -15.1187 1.71425 L -15.0909 1.6794 L -15.0631 1.64453 L -15.0353 1.60967 L -15.0074 1.57479 L -14.9794 1.53991 L -14.9513 1.50502 L -14.9232 1.47012 L -14.895 1.43522 L -14.8668 1.40031 L -14.8384 1.36539 L -14.8101 1.33047 L -14.7816 1.29554 L -14.7531 1.2606 L -14.7245 1.22566 L -14.6958 1.19071 L -14.667 1.15576 L -14.6382 1.1208 L -14.6093 1.08584 L -14.5804 1.05087 L -14.5513 1.01589 L -14.5222 0.980912 L -14.493 0.945927 L -14.4638 0.910937 L -14.4344 0.875942 L -14.405 0.840943 L -14.3755 0.805939 L -14.346 0.770931 L -14.3163 0.735918 L -14.2866 0.700902 L -14.2568 0.665882 L -14.2269 0.630858 L -14.197 0.595831 L -14.1669 0.5608 L -14.1368 0.525766 L -14.1066 0.490729 L -14.0763 0.455689 L -14.046 0.420647 L -14.0155 0.385602 L -13.985 0.350555 L -13.9544 0.315505 L -13.9237 0.280454 L -13.8929 0.245401 L -13.862 0.210347 L -13.8311 0.175291 L -13.8 0.140234 L -13.7689 0.105176 L -13.7377 0.070118 L -13.7064 0.0350591 L -13.675 4.44089e-15 L -13.675 -1.09148e-15 L -13.7064 -0.0350591 L -13.7377 -0.070118 L -13.7689 -0.105176 L -13.8 -0.140234 L -13.8311 -0.175291 L -13.862 -0.210347 L -13.8929 -0.245401 L -13.9237 -0.280454 L -13.9544 -0.315505 L -13.985 -0.350555 L -14.0155 -0.385602 L -14.046 -0.420647 L -14.0763 -0.455689 L -14.1066 -0.490729 L -14.1368 -0.525766 L -14.1669 -0.5608 L -14.197 -0.595831 L -14.2269 -0.630858 L -14.2568 -0.665882 L -14.2866 -0.700902 L -14.3163 -0.735918 L -14.346 -0.770931 L -14.3755 -0.805939 L -14.405 -0.840943 L -14.4344 -0.875942 L -14.4638 -0.910937 L -14.493 -0.945927 L -14.5222 -0.980912 L -14.5513 -1.01589 L -14.5804 -1.05087 L -14.6093 -1.08584 L -14.6382 -1.1208 L -14.667 -1.15576 L -14.6958 -1.19071 L -14.7245 -1.22566 L -14.7531 -1.2606 L -14.7816 -1.29554 L -14.8101 -1.33047 L -14.8384 -1.36539 L -14.8668 -1.40031 L -14.895 -1.43522 L -14.9232 -1.47012 L -14.9513 -1.50502 L -14.9794 -1.53991 L -15.0074 -1.57479 L -15.0353 -1.60967 L -15.0631 -1.64453 L -15.0909 -1.6794 L -15.1187 -1.71425 L -15.1463 -1.7491 L -15.1739 -1.78394 L -15.2014 -1.81877 L -15.2289 -1.8536 L -15.2563 -1.88841 L -15.2836 -1.92322 L -15.3109 -1.95802 L -15.3381 -1.99282 L -15.3653 -2.0276 L -15.3924 -2.06238 L -15.4194 -2.09715 L -15.4464 -2.13191 L -15.4733 -2.16666 L -15.5001 -2.20141 L -15.5269 -2.23614 L -15.5537 -2.27087 L -15.5803 -2.30559 L -15.5757 -2.33669 L -15.571 -2.36777 L -15.5662 -2.39885 L -15.5614 -2.42992 L -15.5565 -2.46098 L -15.5516 -2.49202 L -15.5466 -2.52306 L -15.5415 -2.55409 L -15.5364 -2.58511 L -15.5312 -2.61612 L -15.526 -2.64711 L -15.5206 -2.6781 L -15.5153 -2.70908 L -15.5098 -2.74004 L -15.5043 -2.771 L -15.4988 -2.80194 L -15.4931 -2.83287 L -15.4875 -2.86379 L -15.4817 -2.8947 L -15.4759 -2.9256 L -15.47 -2.95649 L -15.4641 -2.98736 L -15.4581 -3.01822 L -15.452 -3.04908 L -15.4459 -3.07991 L -15.4397 -3.11074 L -15.4335 -3.14155 L -15.4272 -3.17236 L -15.4208 -3.20314 L -15.4144 -3.23392 L -15.4079 -3.26468 L -15.4014 -3.29543 L -15.3948 -3.32617 L -15.3881 -3.35689 L -15.3814 -3.3876 L -15.3746 -3.4183 L -15.3677 -3.44898 L -15.3608 -3.47965 L -15.3538 -3.51031 L -15.3468 -3.54095 L -15.3397 -3.57158 L -15.3325 -3.60219 L -15.3253 -3.63279 L -15.318 -3.66337 L -15.3107 -3.69394 L -15.3033 -3.7245 L -15.2812 -3.81391 L -15.2736 -3.84441 L -15.2659 -3.87489 L -15.2581 -3.90535 L -15.2503 -3.9358 L -15.2424 -3.96624 L -15.2345 -3.99666 L -15.2265 -4.02706 L -15.2184 -4.05744 L -15.2103 -4.08781 L -15.2021 -4.11817 L -15.1938 -4.14851 L -15.1855 -4.17883 L -15.1771 -4.20913 L -15.1687 -4.23942 L -15.1602 -4.26969 L -15.1517 -4.29994 L -15.1431 -4.33018 L -15.1344 -4.3604 L -15.1256 -4.3906 L -15.1169 -4.42078 L -15.108 -4.45095 L -15.0991 -4.4811 L -15.0901 -4.51123 L -15.0811 -4.54134 L -15.072 -4.57144 L -15.0628 -4.60152 L -15.0536 -4.63158 L -15.0443 -4.66162 L -15.035 -4.69164 L -15.0256 -4.72164 L -15.0161 -4.75162 L -15.0066 -4.78159 L -14.9971 -4.81153 L -14.9874 -4.84146 L -14.9777 -4.87137 L -14.968 -4.90126 L -14.9582 -4.93113 L -14.9483 -4.96097 L -14.9384 -4.9908 L -14.9284 -5.02061 L -14.9183 -5.0504 L -14.9082 -5.08017 L -14.898 -5.10992 L -14.8878 -5.13965 L -14.8775 -5.16936 L -14.8672 -5.19904 L -14.8274 -5.21739 L -14.7876 -5.23572 L -14.7477 -5.25402 L -14.7078 -5.27231 L -14.6678 -5.29058 L -14.6278 -5.30882 L -14.5877 -5.32705 L -14.5476 -5.34525 L -14.5073 -5.36343 L -14.4671 -5.38159 L -14.4268 -5.39973 L -14.3864 -5.41785 L -14.3459 -5.43594 L -14.3054 -5.45402 L -14.2649 -5.47207 L -14.2242 -5.49009 L -14.1836 -5.5081 L -14.1428 -5.52607 L -14.102 -5.54403 L -14.0611 -5.56196 L -14.0202 -5.57987 L -13.9792 -5.59775 L -13.9382 -5.61561 L -13.8971 -5.63344 L -13.8559 -5.65125 L -13.8146 -5.66903 L -13.7733 -5.68678 L -13.732 -5.70451 L -13.6905 -5.72221 L -13.649 -5.73988 L -13.6075 -5.75753 L -13.5658 -5.77515 L -13.5241 -5.79274 L -13.4824 -5.8103 L -13.4405 -5.82783 L -13.3986 -5.84533 L -13.3567 -5.86281 L -13.3146 -5.88025 L -13.2725 -5.89767 L -13.2304 -5.91505 L -13.1881 -5.93241 L -13.1458 -5.94973 L -13.1034 -5.96702 L -13.061 -5.98428 L -13.0185 -6.0015 L -12.9759 -6.0187 L -12.9332 -6.03586 L -12.8905 -6.05299 L -12.8477 -6.07008 L -12.8048 -6.08714 L -12.7619 -6.10416 L -12.7188 -6.12115 L -12.6757 -6.13811 L -12.6326 -6.15503 L -12.5893 -6.17191 L -12.546 -6.18875 L -12.5026 -6.20556 L -12.4591 -6.22233 L -12.4156 -6.23906 L -12.372 -6.25576 L -12.3283 -6.27241 L -12.2845 -6.28903 L -12.2406 -6.30561 L -12.1967 -6.32214 L -12.1527 -6.33864 L -12.1086 -6.35509 L -12.1086 -6.35509 L -12.1201 -6.40072 L -12.1315 -6.44631 L -12.1429 -6.49186 L -12.1542 -6.53737 L -12.1654 -6.58284 L -12.1765 -6.62826 L -12.1875 -6.67365 L -12.1985 -6.71899 L -12.2094 -6.76429 L -12.2202 -6.80955 L -12.2309 -6.85478 L -12.2416 -6.89995 L -12.2522 -6.94509 L -12.2627 -6.99019 L -12.2732 -7.03525 L -12.2836 -7.08027 L -12.2939 -7.12524 L -12.3041 -7.17018 L -12.3143 -7.21508 L -12.3244 -7.25993 L -12.3345 -7.30475 L -12.3445 -7.34953 L -12.3544 -7.39427 L -12.3642 -7.43896 L -12.374 -7.48362 L -12.3837 -7.52824 L -12.3933 -7.57282 L -12.4029 -7.61736 L -12.4124 -7.66187 L -12.4219 -7.70633 L -12.4313 -7.75075 L -12.4406 -7.79514 L -12.4499 -7.83948 L -12.4591 -7.88379 L -12.4683 -7.92806 L -12.4774 -7.9723 L -12.4864 -8.01649 L -12.4954 -8.06065 L -12.5043 -8.10476 L -12.5131 -8.14884 L -12.5219 -8.19289 L -12.5307 -8.23689 L -12.5393 -8.28086 L -12.548 -8.32479 L -12.5565 -8.36868 L -12.565 -8.41254 L -12.5735 -8.45636 L -12.5819 -8.50014 L -12.5903 -8.54388 L -12.5985 -8.58759 L -12.6068 -8.63126 L -12.615 -8.6749 L -12.6231 -8.7185 L -12.6312 -8.76206 L -12.6392 -8.80559 L -12.6472 -8.84908 L -12.6551 -8.89253 L -12.663 -8.93595 L -12.6708 -8.97934 L -12.6786 -9.02269 L -12.6863 -9.066 L -12.694 -9.10928 L -12.7016 -9.15252 L -12.7092 -9.19573 L -12.7168 -9.2389 L -12.7242 -9.28204 L -12.7057 -9.30742 L -12.6871 -9.33276 L -12.6684 -9.35807 L -12.6497 -9.38334 L -12.631 -9.40857 L -12.6122 -9.43377 L -12.5933 -9.45892 L -12.5744 -9.48404 L -12.5554 -9.50912 L -12.5364 -9.53417 L -12.5174 -9.55917 L -12.4983 -9.58414 L -12.4791 -9.60907 L -12.4599 -9.63396 L -12.4407 -9.65881 L -12.4213 -9.68363 L -12.402 -9.7084 L -12.3826 -9.73314 L -12.3631 -9.75784 L -12.3436 -9.7825 L -12.3241 -9.80712 L -12.3045 -9.8317 L -12.2848 -9.85624 L -12.2651 -9.88074 L -12.2454 -9.90521 L -12.2256 -9.92963 L -12.2057 -9.95402 L -12.1858 -9.97836 L -12.1659 -10.0027 L -12.1459 -10.0269 L -12.1259 -10.0512 L -12.1058 -10.0753 L -12.0856 -10.0995 L -12.0655 -10.1236 L -12.0452 -10.1477 L -12.025 -10.1717 L -12.0046 -10.1957 L -11.9842 -10.2196 L -11.9638 -10.2435 L -11.9434 -10.2674 L -11.9228 -10.2912 L -11.9023 -10.315 L -11.8817 -10.3387 L -11.861 -10.3624 L -11.8403 -10.3861 L -11.8195 -10.4097 L -11.7585 -10.4786 L -11.7375 -10.5021 L -11.7165 -10.5255 L -11.6955 -10.5488 L -11.6744 -10.5722 L -11.6533 -10.5954 L -11.6321 -10.6187 L -11.6109 -10.6419 L -11.5896 -10.665 L -11.5683 -10.6881 L -11.547 -10.7112 L -11.5256 -10.7342 L -11.5041 -10.7572 L -11.4826 -10.7802 L -11.4611 -10.8031 L -11.4395 -10.8259 L -11.4179 -10.8487 L -11.3962 -10.8715 L -11.3744 -10.8942 L -11.3527 -10.9169 L -11.3309 -10.9396 L -11.309 -10.9622 L -11.2871 -10.9847 L -11.2652 -11.0072 L -11.2432 -11.0297 L -11.2211 -11.0521 L -11.199 -11.0745 L -11.1769 -11.0968 L -11.1547 -11.1191 L -11.1325 -11.1413 L -11.1103 -11.1635 L -11.0879 -11.1857 L -11.0656 -11.2078 L -11.0432 -11.2299 L -11.0208 -11.2519 L -10.9983 -11.2739 L -10.9758 -11.2958 L -10.9532 -11.3177 L -10.9306 -11.3395 L -10.9079 -11.3613 L -10.8852 -11.3831 L -10.8625 -11.4048 L -10.8397 -11.4265 L -10.8168 -11.4481 L -10.794 -11.4696 L -10.7711 -11.4912 L -10.7481 -11.5126 L -10.7044 -11.5104 L -10.6606 -11.5081 L -10.6168 -11.5058 L -10.573 -11.5035 L -10.5291 -11.5011 L -10.4851 -11.4986 L -10.4412 -11.4961 L -10.3972 -11.4936 L -10.3531 -11.491 L -10.309 -11.4884 L -10.2649 -11.4857 L -10.2207 -11.4829 L -10.1765 -11.4802 L -10.1322 -11.4774 L -10.0879 -11.4745 L -10.0436 -11.4716 L -9.99918 -11.4686 L -9.95474 -11.4656 L -9.91027 -11.4625 L -9.86575 -11.4594 L -9.82119 -11.4562 L -9.77658 -11.453 L -9.73193 -11.4498 L -9.68724 -11.4464 L -9.6425 -11.4431 L -9.59772 -11.4397 L -9.55289 -11.4362 L -9.50802 -11.4326 L -9.46311 -11.4291 L -9.41815 -11.4254 L -9.37314 -11.4217 L -9.32809 -11.418 L -9.283 -11.4142 L -9.23786 -11.4103 L -9.19267 -11.4064 L -9.14744 -11.4024 L -9.10216 -11.3984 L -9.05683 -11.3943 L -9.01146 -11.3902 L -8.96604 -11.386 L -8.92058 -11.3817 L -8.87507 -11.3774 L -8.82951 -11.373 L -8.7839 -11.3686 L -8.73825 -11.3641 L -8.69255 -11.3595 L -8.6468 -11.3549 L -8.601 -11.3502 L -8.55516 -11.3454 L -8.50927 -11.3406 L -8.46332 -11.3357 L -8.41733 -11.3308 L -8.3713 -11.3257 L -8.32521 -11.3207 L -8.27907 -11.3155 L -8.23289 -11.3103 L -8.18665 -11.305 L -8.14037 -11.2997 L -8.09403 -11.2942 L -8.04765 -11.2887 L -8.00121 -11.2832 L -7.95473 -11.2776 L -7.90819 -11.2718 L -7.86161 -11.2661 L -7.81497 -11.2602 L -7.76829 -11.2543 L -7.76829 -11.2543 L -7.75727 -11.3001 L -7.7462 -11.3457 L -7.73508 -11.3913 L -7.72391 -11.4369 L -7.71269 -11.4823 L -7.70142 -11.5277 L -7.69011 -11.573 L -7.67875 -11.6183 L -7.66734 -11.6635 L -7.65589 -11.7086 L -7.64438 -11.7536 L -7.63284 -11.7986 L -7.62125 -11.8435 L -7.60961 -11.8883 L -7.59793 -11.933 L -7.58621 -11.9777 L -7.57444 -12.0223 L -7.56263 -12.0669 L -7.55078 -12.1114 L -7.53889 -12.1558 L -7.52695 -12.2002 L -7.51497 -12.2444 L -7.50296 -12.2887 L -7.4909 -12.3328 L -7.47881 -12.3769 L -7.46667 -12.4209 L -7.4545 -12.4649 L -7.44228 -12.5088 L -7.43003 -12.5526 L -7.41774 -12.5964 L -7.40542 -12.6401 L -7.39305 -12.6837 L -7.38065 -12.7273 L -7.36822 -12.7708 L -7.35575 -12.8142 L -7.34324 -12.8576 L -7.3307 -12.901 L -7.31812 -12.9442 L -7.30551 -12.9874 L -7.29286 -13.0306 L -7.28018 -13.0737 L -7.26747 -13.1167 L -7.25472 -13.1597 L -7.24195 -13.2026 L -7.22913 -13.2454 L -7.21629 -13.2882 L -7.20342 -13.3309 L -7.19051 -13.3736 L -7.17757 -13.4162 L -7.16461 -13.4588 L -7.15161 -13.5013 L -7.13858 -13.5437 L -7.12552 -13.5861 L -7.11243 -13.6284 L -7.09932 -13.6707 L -7.08617 -13.7129 L -7.07299 -13.7551 L -7.05979 -13.7972 L -7.04656 -13.8392 L -7.0333 -13.8812 L -7.02001 -13.9232 L -7.0067 -13.9651 L -6.99336 -14.0069 L -6.97999 -14.0487 L -6.9666 -14.0904 L -6.95318 -14.1321 L -6.92495 -14.1459 L -6.8967 -14.1597 L -6.86842 -14.1735 L -6.84012 -14.1872 L -6.81178 -14.2008 L -6.78342 -14.2143 L -6.75503 -14.2279 L -6.72662 -14.2413 L -6.69818 -14.2547 L -6.66971 -14.2681 L -6.64122 -14.2813 L -6.6127 -14.2946 L -6.58415 -14.3077 L -6.55557 -14.3209 L -6.52697 -14.3339 L -6.49835 -14.3469 L -6.4697 -14.3599 L -6.44102 -14.3727 L -6.41232 -14.3856 L -6.38359 -14.3983 L -6.35483 -14.4111 L -6.32606 -14.4237 L -6.29725 -14.4363 L -6.26842 -14.4489 L -6.23957 -14.4613 L -6.21069 -14.4738 L -6.18178 -14.4861 L -6.15285 -14.4984 L -6.1239 -14.5107 L -6.09492 -14.5229 L -6.06592 -14.535 L -6.03689 -14.5471 L -6.00784 -14.5591 L -5.97877 -14.5711 L -5.94967 -14.583 L -5.92055 -14.5948 L -5.89141 -14.6066 L -5.86224 -14.6184 L -5.83304 -14.63 L -5.80383 -14.6417 L -5.77459 -14.6532 L -5.74533 -14.6647 L -5.71604 -14.6761 L -5.68674 -14.6875 L -5.65741 -14.6989 L -5.62806 -14.7101 L -5.54195 -14.7428 L -5.51251 -14.7538 L -5.48305 -14.7648 L -5.45357 -14.7757 L -5.42406 -14.7866 L -5.39453 -14.7973 L -5.36498 -14.8081 L -5.33541 -14.8188 L -5.30582 -14.8294 L -5.27621 -14.8399 L -5.24658 -14.8505 L -5.21692 -14.8609 L -5.18725 -14.8713 L -5.15755 -14.8816 L -5.12784 -14.8919 L -5.0981 -14.9021 L -5.06834 -14.9122 L -5.03857 -14.9223 L -5.00877 -14.9323 L -4.97895 -14.9423 L -4.94912 -14.9522 L -4.91926 -14.9621 L -4.88938 -14.9719 L -4.85949 -14.9816 L -4.82957 -14.9913 L -4.79964 -15.0009 L -4.76968 -15.0104 L -4.73971 -15.0199 L -4.70972 -15.0293 L -4.67971 -15.0387 L -4.64968 -15.048 L -4.61963 -15.0573 L -4.58957 -15.0665 L -4.55948 -15.0756 L -4.52938 -15.0847 L -4.49926 -15.0937 L -4.46912 -15.1026 L -4.43897 -15.1115 L -4.40879 -15.1204 L -4.3786 -15.1291 L -4.34839 -15.1378 L -4.31817 -15.1465 L -4.28792 -15.1551 L -4.25766 -15.1636 L -4.22739 -15.1721 L -4.19709 -15.1805 L -4.16678 -15.1888 L -4.1291 -15.1665 L -4.0914 -15.1442 L -4.05369 -15.1218 L -4.01596 -15.0993 L -3.97822 -15.0768 L -3.94046 -15.0542 L -3.90269 -15.0316 L -3.8649 -15.0089 L -3.82709 -14.9861 L -3.78927 -14.9633 L -3.75144 -14.9404 L -3.71359 -14.9174 L -3.67572 -14.8944 L -3.63784 -14.8714 L -3.59994 -14.8482 L -3.56203 -14.825 L -3.5241 -14.8018 L -3.48616 -14.7785 L -3.44821 -14.7551 L -3.41023 -14.7316 L -3.37225 -14.7081 L -3.33424 -14.6846 L -3.29623 -14.6609 L -3.2582 -14.6372 L -3.22015 -14.6134 L -3.18209 -14.5896 L -3.14401 -14.5657 L -3.10592 -14.5417 L -3.06781 -14.5177 L -3.0297 -14.4935 L -2.99156 -14.4694 L -2.95341 -14.4451 L -2.91525 -14.4208 L -2.87707 -14.3964 L -2.83888 -14.3719 L -2.80067 -14.3474 L -2.76245 -14.3228 L -2.72422 -14.2981 L -2.68597 -14.2733 L -2.64771 -14.2485 L -2.60943 -14.2236 L -2.57114 -14.1986 L -2.53284 -14.1736 L -2.49453 -14.1484 L -2.4562 -14.1232 L -2.41785 -14.098 L -2.3795 -14.0726 L -2.34113 -14.0472 L -2.30274 -14.0216 L -2.26435 -13.996 L -2.22594 -13.9704 L -2.18752 -13.9446 L -2.14908 -13.9188 L -2.11064 -13.8929 L -2.07218 -13.8669 L -2.0337 -13.8408 L -1.99522 -13.8146 L -1.95672 -13.7884 L -1.91822 -13.762 L -1.8797 -13.7356 L -1.84117 -13.7091 L -1.80262 -13.6825 L -1.76407 -13.6558 L -1.7255 -13.6291 L -1.68693 -13.6022 L -1.64834 -13.5753 L -1.64834 -13.5753 L -1.61732 -13.6107 L -1.58629 -13.646 L -1.55525 -13.6812 L -1.5242 -13.7163 L -1.49314 -13.7514 L -1.46207 -13.7863 L -1.43099 -13.8212 L -1.39991 -13.856 L -1.36881 -13.8907 L -1.33771 -13.9253 L -1.30659 -13.9598 L -1.27548 -13.9943 L -1.24435 -14.0286 L -1.21321 -14.0629 L -1.18207 -14.0971 L -1.15092 -14.1312 L -1.11977 -14.1653 L -1.08861 -14.1992 L -1.05744 -14.2331 L -1.02627 -14.2669 L -0.995089 -14.3006 L -0.963905 -14.3343 L -0.932716 -14.3679 L -0.901522 -14.4014 L -0.870323 -14.4348 L -0.839119 -14.4681 L -0.807911 -14.5014 L -0.776699 -14.5346 L -0.745483 -14.5677 L -0.714263 -14.6007 L -0.68304 -14.6337 L -0.651813 -14.6666 L -0.620582 -14.6994 L -0.589349 -14.7322 L -0.558113 -14.7648 L -0.526874 -14.7974 L -0.495633 -14.83 L -0.46439 -14.8624 L -0.433144 -14.8948 L -0.401896 -14.9272 L -0.370646 -14.9594 L -0.339395 -14.9916 L -0.308142 -15.0237 L -0.276888 -15.0558 L -0.245632 -15.0878 L -0.214375 -15.1197 L -0.183118 -15.1515 L -0.151859 -15.1833 L -0.1206 -15.2151 L -0.0893408 -15.2467 L -0.0580809 -15.2783 L -0.0268207 -15.3098 L 0.0044396 -15.3413 L 0.0356999 -15.3727 L 0.06696 -15.404 L 0.0982199 -15.4353 L 0.129479 -15.4665 L 0.160738 -15.4977 L 0.191997 -15.5287 L 0.223254 -15.5598 L 0.254511 -15.5907 L 0.285766 -15.6216 L 0.317021 -15.6525 L 0.348274 -15.6833 L 0.379526 -15.714 L 0.410777 -15.7446 L 0.442205 -15.7438 L 0.473631 -15.7429 L 0.505055 -15.7419 L 0.536477 -15.7409 L 0.567897 -15.7398 L 0.599315 -15.7386 L 0.630731 -15.7374 L 0.662144 -15.7361 L 0.693554 -15.7347 L 0.724961 -15.7333 L 0.756366 -15.7318 L 0.787768 -15.7303 L 0.819166 -15.7287 L 0.850561 -15.727 L 0.881953 -15.7253 L 0.913341 -15.7235 L 0.944726 -15.7216 L 0.976107 -15.7197 L 1.00748 -15.7177 L 1.03886 -15.7157 L 1.07023 -15.7136 L 1.10159 -15.7114 L 1.13295 -15.7092 L 1.16431 -15.7069 L 1.19566 -15.7046 L 1.227 -15.7021 L 1.25834 -15.6997 L 1.28968 -15.6971 L 1.32101 -15.6945 L 1.35234 -15.6918 L 1.38366 -15.6891 L 1.41497 -15.6863 L 1.44628 -15.6835 L 1.47759 -15.6805 L 1.50888 -15.6776 L 1.54018 -15.6745 L 1.57146 -15.6714 L 1.60274 -15.6682 L 1.63401 -15.665 L 1.66528 -15.6617 L 1.69654 -15.6584 L 1.72779 -15.6549 L 1.75904 -15.6515 L 1.79028 -15.6479 L 1.82151 -15.6443 L 1.85274 -15.6406 L 1.94415 -15.6295 L 1.97535 -15.6256 L 2.00654 -15.6217 L 2.03771 -15.6176 L 2.06889 -15.6135 L 2.10005 -15.6094 L 2.1312 -15.6051 L 2.16235 -15.6009 L 2.19349 -15.5965 L 2.22461 -15.5921 L 2.25573 -15.5876 L 2.28685 -15.5831 L 2.31795 -15.5785 L 2.34904 -15.5738 L 2.38012 -15.5691 L 2.4112 -15.5643 L 2.44226 -15.5595 L 2.47331 -15.5546 L 2.50436 -15.5496 L 2.53539 -15.5446 L 2.56642 -15.5395 L 2.59743 -15.5343 L 2.62844 -15.5291 L 2.65943 -15.5239 L 2.69041 -15.5185 L 2.72138 -15.5131 L 2.75234 -15.5076 L 2.78329 -15.5021 L 2.81423 -15.4965 L 2.84516 -15.4909 L 2.87608 -15.4852 L 2.90698 -15.4794 L 2.93788 -15.4736 L 2.96876 -15.4677 L 2.99963 -15.4617 L 3.03049 -15.4557 L 3.06133 -15.4496 L 3.09217 -15.4435 L 3.12299 -15.4373 L 3.1538 -15.431 L 3.18459 -15.4247 L 3.21538 -15.4183 L 3.24615 -15.4118 L 3.2769 -15.4053 L 3.30765 -15.3988 L 3.33838 -15.3921 L 3.3691 -15.3854 L 3.3921 -15.3482 L 3.41509 -15.3109 L 3.43807 -15.2735 L 3.46104 -15.2361 L 3.48399 -15.1986 L 3.50693 -15.1611 L 3.52985 -15.1234 L 3.55276 -15.0858 L 3.57566 -15.0481 L 3.59854 -15.0103 L 3.62141 -14.9724 L 3.64426 -14.9345 L 3.6671 -14.8966 L 3.68992 -14.8585 L 3.71273 -14.8204 L 3.73552 -14.7823 L 3.7583 -14.7441 L 3.78106 -14.7058 L 3.8038 -14.6674 L 3.82653 -14.629 L 3.84923 -14.5906 L 3.87193 -14.552 L 3.8946 -14.5134 L 3.91726 -14.4748 L 3.9399 -14.436 L 3.96252 -14.3972 L 3.98513 -14.3584 L 4.00771 -14.3194 L 4.03028 -14.2804 L 4.05282 -14.2414 L 4.07535 -14.2022 L 4.09786 -14.163 L 4.12035 -14.1238 L 4.14282 -14.0844 L 4.16526 -14.045 L 4.18769 -14.0055 L 4.21009 -13.966 L 4.23248 -13.9263 L 4.25484 -13.8866 L 4.27718 -13.8469 L 4.2995 -13.807 L 4.3218 -13.7671 L 4.34407 -13.7271 L 4.36632 -13.6871 L 4.38854 -13.647 L 4.41075 -13.6068 L 4.43292 -13.5665 L 4.45508 -13.5261 L 4.4772 -13.4857 L 4.49931 -13.4452 L 4.52138 -13.4046 L 4.54344 -13.3639 L 4.56546 -13.3232 L 4.58746 -13.2824 L 4.60943 -13.2415 L 4.63138 -13.2005 L 4.65329 -13.1595 L 4.67518 -13.1183 L 4.69704 -13.0771 L 4.71887 -13.0358 L 4.74067 -12.9944 L 4.76244 -12.953 L 4.78418 -12.9115 L 4.80589 -12.8698 L 4.82757 -12.8281 L 4.84922 -12.7863 L 4.84922 -12.7863 L 4.89314 -12.8033 L 4.93702 -12.8201 L 4.98087 -12.8369 L 5.02468 -12.8535 L 5.06847 -12.8701 L 5.11223 -12.8866 L 5.15595 -12.9031 L 5.19964 -12.9194 L 5.2433 -12.9357 L 5.28692 -12.9519 L 5.33052 -12.968 L 5.37408 -12.9841 L 5.41762 -13 L 5.46112 -13.0159 L 5.50458 -13.0317 L 5.54802 -13.0475 L 5.59143 -13.0631 L 5.6348 -13.0787 L 5.67814 -13.0942 L 5.72145 -13.1097 L 5.76473 -13.125 L 5.80798 -13.1403 L 5.8512 -13.1556 L 5.89439 -13.1707 L 5.93754 -13.1858 L 5.98066 -13.2008 L 6.02376 -13.2158 L 6.06682 -13.2307 L 6.10985 -13.2455 L 6.15285 -13.2602 L 6.19581 -13.2749 L 6.23875 -13.2895 L 6.28166 -13.3041 L 6.32453 -13.3186 L 6.36738 -13.333 L 6.41019 -13.3473 L 6.45297 -13.3616 L 6.49573 -13.3759 L 6.53845 -13.39 L 6.58114 -13.4041 L 6.6238 -13.4182 L 6.66643 -13.4321 L 6.70903 -13.4461 L 6.7516 -13.4599 L 6.79414 -13.4737 L 6.83665 -13.4874 L 6.87913 -13.5011 L 6.92158 -13.5147 L 6.964 -13.5283 L 7.00639 -13.5418 L 7.04875 -13.5553 L 7.09108 -13.5686 L 7.13338 -13.582 L 7.17565 -13.5952 L 7.2179 -13.6085 L 7.26011 -13.6216 L 7.30229 -13.6347 L 7.34444 -13.6478 L 7.38657 -13.6608 L 7.42866 -13.6737 L 7.47073 -13.6866 L 7.51277 -13.6995 L 7.55477 -13.7122 L 7.59675 -13.725 L 7.6387 -13.7377 L 7.68063 -13.7503 L 7.70806 -13.7349 L 7.73546 -13.7195 L 7.76283 -13.704 L 7.79017 -13.6885 L 7.81748 -13.6729 L 7.84476 -13.6573 L 7.872 -13.6416 L 7.89922 -13.6259 L 7.9264 -13.6101 L 7.95355 -13.5942 L 7.98067 -13.5783 L 8.00776 -13.5624 L 8.03482 -13.5464 L 8.06184 -13.5303 L 8.08884 -13.5142 L 8.1158 -13.498 L 8.14272 -13.4818 L 8.16962 -13.4655 L 8.19648 -13.4492 L 8.22331 -13.4328 L 8.25011 -13.4163 L 8.27687 -13.3998 L 8.30361 -13.3833 L 8.3303 -13.3667 L 8.35697 -13.35 L 8.3836 -13.3333 L 8.4102 -13.3166 L 8.43677 -13.2998 L 8.4633 -13.2829 L 8.4898 -13.266 L 8.51626 -13.249 L 8.54269 -13.232 L 8.56909 -13.2149 L 8.59545 -13.1978 L 8.62177 -13.1806 L 8.64807 -13.1633 L 8.67433 -13.146 L 8.70055 -13.1287 L 8.72674 -13.1113 L 8.7529 -13.0939 L 8.77902 -13.0764 L 8.8051 -13.0588 L 8.83115 -13.0412 L 8.85716 -13.0236 L 8.88314 -13.0059 L 8.90909 -12.9881 L 8.98488 -12.9358 L 9.01068 -12.9178 L 9.03645 -12.8998 L 9.06218 -12.8817 L 9.08787 -12.8636 L 9.11353 -12.8455 L 9.13916 -12.8272 L 9.16474 -12.809 L 9.1903 -12.7907 L 9.21581 -12.7723 L 9.24129 -12.7539 L 9.26673 -12.7354 L 9.29213 -12.7169 L 9.3175 -12.6983 L 9.34282 -12.6797 L 9.36812 -12.661 L 9.39337 -12.6423 L 9.41859 -12.6235 L 9.44377 -12.6047 L 9.46891 -12.5858 L 9.49401 -12.5669 L 9.51908 -12.5479 L 9.54411 -12.5289 L 9.5691 -12.5098 L 9.59405 -12.4907 L 9.61897 -12.4715 L 9.64384 -12.4523 L 9.66868 -12.433 L 9.69348 -12.4137 L 9.71824 -12.3943 L 9.74296 -12.3749 L 9.76764 -12.3554 L 9.79229 -12.3359 L 9.81689 -12.3163 L 9.84146 -12.2967 L 9.86598 -12.277 L 9.89047 -12.2573 L 9.91492 -12.2375 L 9.93933 -12.2177 L 9.9637 -12.1978 L 9.98802 -12.1779 L 10.0123 -12.158 L 10.0366 -12.138 L 10.0608 -12.1179 L 10.0849 -12.0978 L 10.1091 -12.0776 L 10.1332 -12.0574 L 10.1362 -12.0138 L 10.1392 -11.97 L 10.1422 -11.9263 L 10.1452 -11.8825 L 10.1481 -11.8386 L 10.1509 -11.7947 L 10.1537 -11.7507 L 10.1565 -11.7067 L 10.1593 -11.6627 L 10.162 -11.6186 L 10.1646 -11.5745 L 10.1673 -11.5303 L 10.1698 -11.4861 L 10.1724 -11.4418 L 10.1749 -11.3975 L 10.1773 -11.3531 L 10.1797 -11.3087 L 10.1821 -11.2642 L 10.1844 -11.2197 L 10.1867 -11.1751 L 10.1889 -11.1305 L 10.1911 -11.0858 L 10.1932 -11.0411 L 10.1953 -10.9963 L 10.1974 -10.9515 L 10.1994 -10.9066 L 10.2013 -10.8617 L 10.2032 -10.8168 L 10.2051 -10.7717 L 10.2069 -10.7267 L 10.2086 -10.6815 L 10.2104 -10.6364 L 10.212 -10.5911 L 10.2136 -10.5459 L 10.2152 -10.5005 L 10.2167 -10.4552 L 10.2182 -10.4097 L 10.2196 -10.3642 L 10.2209 -10.3187 L 10.2222 -10.2731 L 10.2235 -10.2275 L 10.2247 -10.1817 L 10.2258 -10.136 L 10.2269 -10.0902 L 10.2279 -10.0443 L 10.2289 -9.9984 L 10.2298 -9.95243 L 10.2307 -9.9064 L 10.2315 -9.86032 L 10.2322 -9.81418 L 10.2329 -9.76799 L 10.2335 -9.72173 L 10.2341 -9.67543 L 10.2346 -9.62906 L 10.2351 -9.58264 L 10.2355 -9.53617 L 10.2358 -9.48963 L 10.2361 -9.44304 L 10.2363 -9.39639 L 10.2364 -9.34968 L 10.2365 -9.30291 L 10.2365 -9.25609 L 10.2364 -9.20921 L 10.2363 -9.16226 L 10.2361 -9.11526 L 10.2359 -9.0682 L 10.2359 -9.0682 L 10.2826 -9.06278 L 10.3293 -9.0573 L 10.3759 -9.05175 L 10.4225 -9.04616 L 10.469 -9.0405 L 10.5154 -9.03479 L 10.5617 -9.02902 L 10.608 -9.02319 L 10.6542 -9.01731 L 10.7004 -9.01138 L 10.7465 -9.00539 L 10.7925 -8.99935 L 10.8385 -8.99325 L 10.8844 -8.9871 L 10.9302 -8.9809 L 10.976 -8.97465 L 11.0217 -8.96835 L 11.0673 -8.96199 L 11.1129 -8.95559 L 11.1585 -8.94914 L 11.2039 -8.94264 L 11.2493 -8.93609 L 11.2947 -8.92949 L 11.34 -8.92284 L 11.3852 -8.91615 L 11.4303 -8.90941 L 11.4755 -8.90262 L 11.5205 -8.89578 L 11.5655 -8.88891 L 11.6104 -8.88198 L 11.6553 -8.87501 L 11.7001 -8.868 L 11.7448 -8.86094 L 11.7895 -8.85384 L 11.8342 -8.8467 L 11.8788 -8.83951 L 11.9233 -8.83229 L 11.9677 -8.82502 L 12.0122 -8.8177 L 12.0565 -8.81035 L 12.1008 -8.80296 L 12.1451 -8.79552 L 12.1892 -8.78805 L 12.2334 -8.78054 L 12.2775 -8.77298 L 12.3215 -8.76539 L 12.3655 -8.75776 L 12.4094 -8.75009 L 12.4532 -8.74239 L 12.497 -8.73464 L 12.5408 -8.72686 L 12.5845 -8.71904 L 12.6282 -8.71119 L 12.6718 -8.7033 L 12.7153 -8.69537 L 12.7588 -8.68741 L 12.8022 -8.67942 L 12.8456 -8.67138 L 12.889 -8.66332 L 12.9323 -8.65522 L 12.9755 -8.64708 L 13.0187 -8.63892 L 13.0618 -8.63071 L 13.1049 -8.62248 L 13.1479 -8.61421 L 13.1909 -8.60591 L 13.2081 -8.57957 L 13.2252 -8.55318 L 13.2422 -8.52677 L 13.2592 -8.50032 L 13.2762 -8.47383 L 13.2931 -8.44731 L 13.3099 -8.42076 L 13.3267 -8.39418 L 13.3434 -8.36756 L 13.3601 -8.34091 L 13.3767 -8.31422 L 13.3933 -8.2875 L 13.4098 -8.26075 L 13.4263 -8.23397 L 13.4427 -8.20715 L 13.459 -8.1803 L 13.4753 -8.15342 L 13.4916 -8.1265 L 13.5078 -8.09955 L 13.5239 -8.07257 L 13.54 -8.04556 L 13.556 -8.01852 L 13.572 -7.99144 L 13.5879 -7.96433 L 13.6038 -7.93719 L 13.6196 -7.91002 L 13.6354 -7.88282 L 13.6511 -7.85559 L 13.6667 -7.82832 L 13.6823 -7.80103 L 13.6979 -7.7737 L 13.7134 -7.74634 L 13.7288 -7.71895 L 13.7442 -7.69153 L 13.7595 -7.66408 L 13.7748 -7.6366 L 13.79 -7.60909 L 13.8052 -7.58154 L 13.8203 -7.55397 L 13.8353 -7.52637 L 13.8503 -7.49874 L 13.8653 -7.47107 L 13.8801 -7.44338 L 13.895 -7.41566 L 13.9098 -7.38791 L 13.9245 -7.36013 L 13.9673 -7.27859 L 13.9818 -7.25069 L 13.9962 -7.22277 L 14.0106 -7.19482 L 14.0249 -7.16683 L 14.0392 -7.13882 L 14.0534 -7.11079 L 14.0676 -7.08272 L 14.0817 -7.05462 L 14.0958 -7.0265 L 14.1098 -6.99835 L 14.1237 -6.97017 L 14.1376 -6.94196 L 14.1514 -6.91373 L 14.1652 -6.88547 L 14.1789 -6.85718 L 14.1926 -6.82886 L 14.2062 -6.80052 L 14.2197 -6.77214 L 14.2332 -6.74375 L 14.2466 -6.71532 L 14.26 -6.68687 L 14.2733 -6.65839 L 14.2866 -6.62989 L 14.2998 -6.60135 L 14.313 -6.5728 L 14.3261 -6.54421 L 14.3391 -6.5156 L 14.3521 -6.48697 L 14.365 -6.4583 L 14.3778 -6.42962 L 14.3907 -6.4009 L 14.4034 -6.37217 L 14.4161 -6.3434 L 14.4287 -6.31461 L 14.4413 -6.2858 L 14.4538 -6.25696 L 14.4663 -6.22809 L 14.4787 -6.1992 L 14.491 -6.17029 L 14.5033 -6.14135 L 14.5156 -6.11239 L 14.5277 -6.0834 L 14.5398 -6.05439 L 14.5519 -6.02535 L 14.5639 -5.99629 L 14.5758 -5.96721 L 14.5582 -5.92712 L 14.5406 -5.887 L 14.5229 -5.84686 L 14.5051 -5.8067 L 14.4873 -5.76652 L 14.4695 -5.72631 L 14.4515 -5.68609 L 14.4336 -5.64584 L 14.4155 -5.60556 L 14.3974 -5.56527 L 14.3793 -5.52495 L 14.3611 -5.48461 L 14.3428 -5.44425 L 14.3244 -5.40386 L 14.3061 -5.36345 L 14.2876 -5.32302 L 14.2691 -5.28257 L 14.2505 -5.24209 L 14.2319 -5.20159 L 14.2132 -5.16107 L 14.1944 -5.12053 L 14.1756 -5.07996 L 14.1567 -5.03937 L 14.1378 -4.99876 L 14.1187 -4.95812 L 14.0997 -4.91747 L 14.0805 -4.87679 L 14.0613 -4.83608 L 14.042 -4.79536 L 14.0227 -4.75461 L 14.0033 -4.71384 L 13.9838 -4.67304 L 13.9642 -4.63223 L 13.9446 -4.59139 L 13.9249 -4.55052 L 13.9052 -4.50964 L 13.8854 -4.46873 L 13.8655 -4.4278 L 13.8455 -4.38685 L 13.8255 -4.34587 L 13.8054 -4.30487 L 13.7852 -4.26385 L 13.7649 -4.22281 L 13.7446 -4.18174 L 13.7242 -4.14065 L 13.7037 -4.09954 L 13.6832 -4.05841 L 13.6625 -4.01725 L 13.6418 -3.97607 L 13.6211 -3.93487 L 13.6002 -3.89365 L 13.5793 -3.8524 L 13.5583 -3.81114 L 13.5372 -3.76985 L 13.516 -3.72853 L 13.4947 -3.6872 L 13.4734 -3.64584 L 13.452 -3.60446 L 13.4305 -3.56306 L 13.4089 -3.52164 L 13.3872 -3.48019 L 13.3655 -3.43873 L 13.3436 -3.39724 L 13.3217 -3.35573 L 13.2997 -3.3142 L 13.2776 -3.27264 L 13.2776 -3.27264 L 13.3165 -3.24611 L 13.3553 -3.21957 L 13.394 -3.193 L 13.4326 -3.16641 L 13.4711 -3.1398 L 13.5096 -3.11317 L 13.5479 -3.08652 L 13.5862 -3.05985 L 13.6244 -3.03317 L 13.6625 -3.00646 L 13.7005 -2.97974 L 13.7385 -2.953 L 13.7764 -2.92624 L 13.8141 -2.89947 L 13.8519 -2.87267 L 13.8895 -2.84587 L 13.927 -2.81904 L 13.9645 -2.7922 L 14.0019 -2.76534 L 14.0392 -2.73847 L 14.0764 -2.71159 L 14.1136 -2.68469 L 14.1507 -2.65777 L 14.1877 -2.63084 L 14.2246 -2.6039 L 14.2615 -2.57694 L 14.2983 -2.54997 L 14.335 -2.52298 L 14.3716 -2.49599 L 14.4082 -2.46898 L 14.4447 -2.44196 L 14.4811 -2.41492 L 14.5174 -2.38788 L 14.5537 -2.36082 L 14.5899 -2.33375 L 14.626 -2.30667 L 14.6621 -2.27958 L 14.6981 -2.25247 L 14.734 -2.22536 L 14.7699 -2.19824 L 14.8057 -2.1711 L 14.8414 -2.14396 L 14.8771 -2.11681 L 14.9126 -2.08964 L 14.9482 -2.06247 L 14.9836 -2.03529 L 15.019 -2.0081 L 15.0543 -1.9809 L 15.0896 -1.95369 L 15.1248 -1.92648 L 15.1599 -1.89925 L 15.195 -1.87202 L 15.23 -1.84478 L 15.2649 -1.81753 L 15.2998 -1.79028 L 15.3346 -1.76302 L 15.3693 -1.73575 L 15.404 -1.70847 L 15.4387 -1.68119 L 15.4732 -1.6539 L 15.5077 -1.6266 L 15.5422 -1.5993 L 15.5766 -1.57199 L 15.6109 -1.54467 L 15.6452 -1.51735 L 15.6794 -1.49002 L 15.6823 -1.45872 L 15.6852 -1.42742 L 15.688 -1.3961 L 15.6908 -1.36479 L 15.6935 -1.33346 L 15.6961 -1.30213 L 15.6986 -1.2708 L 15.7012 -1.23946 L 15.7036 -1.20811 L 15.706 -1.17676 L 15.7083 -1.14541 L 15.7106 -1.11405 L 15.7127 -1.08269 L 15.7149 -1.05132 L 15.7169 -1.01995 L 15.7189 -0.988576 L 15.7209 -0.957197 L 15.7228 -0.925813 L 15.7246 -0.894427 L 15.7263 -0.863036 L 15.728 -0.831642 L 15.7297 -0.800245 L 15.7312 -0.768845 L 15.7327 -0.737441 L 15.7342 -0.706035 L 15.7355 -0.674626 L 15.7369 -0.643214 L 15.7381 -0.6118 L 15.7393 -0.580383 L 15.7404 -0.548963 L 15.7415 -0.517542 L 15.7425 -0.486119 L 15.7434 -0.454693 L 15.7443 -0.423266 L 15.7451 -0.391837 L 15.7459 -0.360407 L 15.7466 -0.328975 L 15.7472 -0.297542 L 15.7478 -0.266107 L 15.7483 -0.234672 L 15.7487 -0.203236 L 15.7491 -0.171799 L 15.7494 -0.140361 L 15.7496 -0.108922 L 15.7498 -0.0774835 L 15.7499 -0.0460443Z"
id="path1" />
</g>
</svg>
