<?xml version="1.0" encoding="UTF-8" standalone="no"?>
<svg version="1.1">
<g
style="fill:none;stroke:#000000;stroke-opacity:1;stroke-width:0.1">
<path d="M 16 0.0380901 L 15.9999 0.0686047 L 15.9997 0.0991189 L 15.9995 0.129633 L 15.9992 0.160146 L 15.9989 0.190659 L 15.9985 0.221171 L 15.998 0.251683 L 15.9975 0.282193 L 15.9969 0.312703 L 15.9963 0.343211 L 15.9956 0.373718 L 15.9949 0.404224 L 15.9941 0.434728 L 15.9932 0.46523 L 15.9923 0.495731 L 15.9913 0.526231 L 15.9903 0.556728 L 15.9892 0.587223 L 15.9881 0.617716 L 15.9869 0.648207 L 15.9856 0.678695 L 15.9843 0.709181 L 15.9829 0.739665 L 15.9815 0.770145 L 15.98 0.800623 L 15.9784 0.831098 L 15.9768 0.86157 L 15.9751 0.892039 L 15.9734 0.922505 L 15.9716 0.952967 L 15.9697 0.983426 L 15.9678 1.01388 L 15.9659 1.04433 L 15.9639 1.07478 L 15.9618 1.10522 L 15.9596 1.13566 L 15.9575 1.1661 L 15.9552 1.19653 L 15.9529 1.22696 L 15.9505 1.25738 L 15.9481 1.2878 L 15.9456 1.31821 L 15.9431 1.34862 L 15.9405 1.37902 L 15.9378 1.40942 L 15.9351 1.43982 L 15.9022 1.46446 L 15.8693 1.48909 L 15.8363 1.51372 L 15.8032 1.53835 L 15.7702 1.56297 L 15.737 1.58759 L 15.7039 1.6122 L 15.6706 1.63681 L 15.6374 1.66141 L 15.604 1.68601 L 15.5707 1.7106 L 15.5372 1.73518 L 15.5038 1.75976 L 15.4702 1.78434 L 15.4367 1.80891 L 15.403 1.83347 L 15.3693 1.85803 L 15.3356 1.88258 L 15.3018 1.90712 L 15.268 1.93166 L 15.2341 1.95619 L 15.2002 1.98071 L 15.1662 2.00523 L 15.1321 2.02974 L 15.098 2.05424 L 15.0639 2.07874 L 15.0297 2.10322 L 14.9954 2.1277 L 14.9611 2.15218 L 14.9267 2.17664 L 14.8923 2.2011 L 14.8578 2.22554 L 14.8232 2.24998 L 14.7886 2.27441 L 14.754 2.29884 L 14.7193 2.32325 L 14.6845 2.34765 L 14.6496 2.37205 L 14.6148 2.39643 L 14.5798 2.42081 L 14.5448 2.44517 L 14.5097 2.46953 L 14.4746 2.49387 L 14.4394 2.51821 L 14.4042 2.54253 L 14.3689 2.56685 L 14.3335 2.59115 L 14.2981 2.61544 L 14.2626 2.63972 L 14.227 2.66399 L 14.1914 2.68825 L 14.1557 2.71249 L 14.12 2.73672 L 14.0841 2.76094 L 14.0483 2.78515 L 14.0123 2.80935 L 13.9763 2.83353 L 13.9403 2.8577 L 13.9041 2.88185 L 13.8679 2.90599 L 13.8316 2.93012 L 13.7953 2.95424 L 13.7589 2.97833 L 13.7224 3.00242 L 13.6859 3.02649 L 13.6493 3.05054 L 13.6126 3.07458 L 13.5759 3.0986 L 13.5759 3.0986 L 13.5986 3.13619 L 13.6212 3.17376 L 13.6437 3.21132 L 13.6662 3.24886 L 13.6886 3.28638 L 13.7109 3.32389 L 13.7332 3.36138 L 13.7554 3.39885 L 13.7776 3.43631 L 13.7996 3.47375 L 13.8217 3.51118 L 13.8436 3.54859 L 13.8655 3.58598 L 13.8873 3.62335 L 13.9091 3.66071 L 13.9307 3.69806 L 13.9524 3.73538 L 13.9739 3.77269 L 13.9955 3.80998 L 14.0169 3.84726 L 14.0383 3.88452 L 14.0596 3.92176 L 14.0809 3.95899 L 14.1021 3.9962 L 14.1232 4.03339 L 14.1443 4.07057 L 14.1653 4.10773 L 14.1863 4.14487 L 14.2072 4.18199 L 14.2281 4.2191 L 14.2489 4.25619 L 14.2696 4.29327 L 14.2903 4.33033 L 14.3109 4.36737 L 14.3315 4.40439 L 14.352 4.4414 L 14.3725 4.47839 L 14.3929 4.51536 L 14.4133 4.55232 L 14.4336 4.58926 L 14.4538 4.62618 L 14.474 4.66309 L 14.4942 4.69998 L 14.5142 4.73685 L 14.5343 4.77371 L 14.5543 4.81055 L 14.5742 4.84737 L 14.5941 4.88417 L 14.6139 4.92096 L 14.6337 4.95773 L 14.6535 4.99449 L 14.6732 5.03122 L 14.6928 5.06794 L 14.7124 5.10465 L 14.7319 5.14134 L 14.7514 5.17801 L 14.7709 5.21466 L 14.7903 5.2513 L 14.8096 5.28792 L 14.8289 5.32452 L 14.8482 5.36111 L 14.8674 5.39768 L 14.8866 5.43423 L 14.9057 5.47077 L 14.9248 5.50729 L 14.9438 5.54379 L 14.9628 5.58027 L 14.9817 5.61674 L 14.971 5.64531 L 14.9602 5.67385 L 14.9493 5.70237 L 14.9384 5.73087 L 14.9275 5.75935 L 14.9165 5.78781 L 14.9054 5.81625 L 14.8943 5.84466 L 14.8831 5.87306 L 14.8719 5.90143 L 14.8606 5.92979 L 14.8493 5.95812 L 14.8379 5.98643 L 14.8264 6.01471 L 14.8149 6.04298 L 14.8034 6.07122 L 14.7918 6.09944 L 14.7801 6.12764 L 14.7684 6.15582 L 14.7566 6.18397 L 14.7448 6.21211 L 14.7329 6.24022 L 14.721 6.2683 L 14.709 6.29637 L 14.697 6.32441 L 14.6849 6.35243 L 14.6728 6.38042 L 14.6606 6.40839 L 14.6483 6.43634 L 14.636 6.46427 L 14.6237 6.49217 L 14.6113 6.52005 L 14.5988 6.5479 L 14.5863 6.57573 L 14.5737 6.60354 L 14.5611 6.63132 L 14.5484 6.65908 L 14.5357 6.68681 L 14.5229 6.71452 L 14.5101 6.74221 L 14.4972 6.76987 L 14.4843 6.79751 L 14.4713 6.82512 L 14.4582 6.8527 L 14.4451 6.88027 L 14.432 6.9078 L 14.3989 6.97644 L 14.3856 7.00389 L 14.3722 7.03131 L 14.3588 7.05871 L 14.3453 7.08608 L 14.3318 7.11342 L 14.3182 7.14075 L 14.3045 7.16804 L 14.2908 7.19531 L 14.2771 7.22255 L 14.2633 7.24976 L 14.2494 7.27695 L 14.2355 7.30412 L 14.2216 7.33125 L 14.2076 7.35836 L 14.1935 7.38545 L 14.1794 7.4125 L 14.1652 7.43953 L 14.151 7.46653 L 14.1367 7.49351 L 14.1224 7.52045 L 14.1081 7.54737 L 14.0936 7.57427 L 14.0792 7.60113 L 14.0646 7.62797 L 14.0501 7.65478 L 14.0354 7.68156 L 14.0208 7.70832 L 14.006 7.73504 L 13.9913 7.76174 L 13.9764 7.78841 L 13.9616 7.81505 L 13.9466 7.84166 L 13.9316 7.86825 L 13.9166 7.8948 L 13.9015 7.92133 L 13.8864 7.94783 L 13.8712 7.9743 L 13.856 8.00074 L 13.8407 8.02715 L 13.8254 8.05353 L 13.81 8.07988 L 13.7945 8.10621 L 13.7791 8.1325 L 13.7635 8.15876 L 13.7479 8.185 L 13.7323 8.2112 L 13.692 8.21913 L 13.6516 8.22704 L 13.6112 8.23492 L 13.5708 8.24278 L 13.5303 8.25061 L 13.4897 8.25841 L 13.4492 8.26619 L 13.4086 8.27394 L 13.3679 8.28167 L 13.3272 8.28937 L 13.2865 8.29705 L 13.2457 8.3047 L 13.2049 8.31232 L 13.164 8.31991 L 13.1231 8.32748 L 13.0821 8.33502 L 13.0411 8.34253 L 13.0001 8.35002 L 12.959 8.35747 L 12.9179 8.3649 L 12.8767 8.3723 L 12.8355 8.37967 L 12.7942 8.387 L 12.7529 8.39431 L 12.7115 8.40159 L 12.6701 8.40884 L 12.6287 8.41606 L 12.5872 8.42325 L 12.5457 8.43041 L 12.5041 8.43753 L 12.4624 8.44463 L 12.4208 8.45169 L 12.379 8.45872 L 12.3373 8.46572 L 12.2954 8.47269 L 12.2536 8.47962 L 12.2116 8.48652 L 12.1697 8.49338 L 12.1277 8.50021 L 12.0856 8.50701 L 12.0435 8.51377 L 12.0013 8.5205 L 11.9591 8.5272 L 11.9169 8.53385 L 11.8745 8.54048 L 11.8322 8.54706 L 11.7898 8.55361 L 11.7473 8.56012 L 11.7048 8.5666 L 11.6622 8.57304 L 11.6196 8.57944 L 11.5769 8.5858 L 11.5342 8.59212 L 11.4914 8.5984 L 11.4486 8.60465 L 11.4057 8.61086 L 11.3628 8.61702 L 11.3198 8.62315 L 11.2768 8.62923 L 11.2337 8.63527 L 11.1906 8.64128 L 11.1474 8.64724 L 11.1041 8.65315 L 11.0608 8.65903 L 11.0174 8.66486 L 10.974 8.67065 L 10.9305 8.67639 L 10.887 8.6821 L 10.887 8.6821 L 10.8911 8.7258 L 10.8952 8.76947 L 10.8992 8.81308 L 10.9032 8.85666 L 10.9071 8.90019 L 10.911 8.94367 L 10.9148 8.98712 L 10.9185 9.03051 L 10.9222 9.07387 L 10.9258 9.11718 L 10.9294 9.16045 L 10.933 9.20368 L 10.9365 9.24686 L 10.9399 9.29 L 10.9433 9.3331 L 10.9466 9.37616 L 10.9499 9.41917 L 10.9532 9.46215 L 10.9564 9.50508 L 10.9595 9.54797 L 10.9626 9.59081 L 10.9657 9.63362 L 10.9687 9.67639 L 10.9716 9.71911 L 10.9746 9.76179 L 10.9774 9.80444 L 10.9802 9.84704 L 10.983 9.8896 L 10.9858 9.93212 L 10.9884 9.97461 L 10.9911 10.017 L 10.9937 10.0595 L 10.9962 10.1018 L 10.9988 10.1441 L 11.0012 10.1864 L 11.0037 10.2287 L 11.0061 10.2709 L 11.0084 10.313 L 11.0107 10.3552 L 11.013 10.3973 L 11.0152 10.4393 L 11.0174 10.4813 L 11.0195 10.5233 L 11.0216 10.5653 L 11.0237 10.6072 L 11.0257 10.649 L 11.0277 10.6908 L 11.0297 10.7326 L 11.0316 10.7744 L 11.0335 10.8161 L 11.0353 10.8578 L 11.0371 10.8994 L 11.0389 10.941 L 11.0406 10.9826 L 11.0423 11.0241 L 11.0439 11.0656 L 11.0455 11.1071 L 11.0471 11.1485 L 11.0487 11.1899 L 11.0502 11.2313 L 11.0517 11.2726 L 11.0531 11.3139 L 11.0545 11.3551 L 11.0559 11.3963 L 11.0572 11.4375 L 11.0585 11.4787 L 11.0598 11.5198 L 11.0611 11.5608 L 11.039 11.5819 L 11.0169 11.6029 L 10.9947 11.6239 L 10.9725 11.6449 L 10.9503 11.6658 L 10.928 11.6867 L 10.9057 11.7075 L 10.8834 11.7283 L 10.861 11.749 L 10.8386 11.7697 L 10.8161 11.7903 L 10.7936 11.8109 L 10.7711 11.8315 L 10.7485 11.852 L 10.7258 11.8725 L 10.7032 11.8929 L 10.6805 11.9133 L 10.6577 11.9337 L 10.635 11.954 L 10.6121 11.9742 L 10.5893 11.9945 L 10.5664 12.0146 L 10.5435 12.0348 L 10.5205 12.0548 L 10.4975 12.0749 L 10.4744 12.0949 L 10.4513 12.1148 L 10.4282 12.1347 L 10.4051 12.1546 L 10.3819 12.1744 L 10.3586 12.1942 L 10.3354 12.2139 L 10.312 12.2336 L 10.2887 12.2533 L 10.2653 12.2729 L 10.2419 12.2924 L 10.2184 12.3119 L 10.1949 12.3314 L 10.1714 12.3508 L 10.1478 12.3702 L 10.1242 12.3895 L 10.1005 12.4088 L 10.0769 12.4281 L 10.0531 12.4473 L 10.0294 12.4664 L 10.0056 12.4855 L 9.94603 12.533 L 9.92211 12.552 L 9.89815 12.5709 L 9.87416 12.5897 L 9.85013 12.6085 L 9.82607 12.6273 L 9.80196 12.646 L 9.77783 12.6647 L 9.75366 12.6833 L 9.72945 12.7019 L 9.70521 12.7204 L 9.68093 12.7389 L 9.65662 12.7573 L 9.63227 12.7757 L 9.60789 12.7941 L 9.58347 12.8124 L 9.55902 12.8306 L 9.53453 12.8488 L 9.51001 12.867 L 9.48545 12.8851 L 9.46086 12.9032 L 9.43623 12.9212 L 9.41157 12.9392 L 9.38688 12.9571 L 9.36215 12.975 L 9.33739 12.9928 L 9.31259 13.0106 L 9.28776 13.0283 L 9.2629 13.046 L 9.238 13.0637 L 9.21307 13.0813 L 9.1881 13.0988 L 9.1631 13.1163 L 9.13807 13.1338 L 9.11301 13.1512 L 9.08791 13.1685 L 9.06278 13.1858 L 9.03761 13.2031 L 9.01242 13.2203 L 8.98719 13.2375 L 8.96193 13.2546 L 8.93663 13.2716 L 8.9113 13.2887 L 8.88594 13.3056 L 8.86055 13.3226 L 8.83513 13.3394 L 8.80967 13.3563 L 8.7699 13.3459 L 8.7301 13.3355 L 8.69028 13.3251 L 8.65043 13.3146 L 8.61056 13.3041 L 8.57065 13.2936 L 8.53073 13.283 L 8.49077 13.2723 L 8.45079 13.2616 L 8.41078 13.2509 L 8.37075 13.2402 L 8.33068 13.2294 L 8.2906 13.2185 L 8.25048 13.2076 L 8.21034 13.1967 L 8.17017 13.1857 L 8.12997 13.1747 L 8.08974 13.1636 L 8.04949 13.1525 L 8.00921 13.1414 L 7.9689 13.1302 L 7.92857 13.1189 L 7.8882 13.1076 L 7.84781 13.0963 L 7.80739 13.0849 L 7.76695 13.0735 L 7.72647 13.062 L 7.68597 13.0505 L 7.64544 13.0389 L 7.60488 13.0273 L 7.56429 13.0156 L 7.52367 13.0039 L 7.48302 12.9921 L 7.44235 12.9803 L 7.40165 12.9684 L 7.36091 12.9565 L 7.32015 12.9445 L 7.27936 12.9325 L 7.23854 12.9204 L 7.1977 12.9083 L 7.15682 12.8961 L 7.11591 12.8839 L 7.07498 12.8716 L 7.03401 12.8593 L 6.99302 12.8469 L 6.95199 12.8344 L 6.91094 12.8219 L 6.86985 12.8094 L 6.82874 12.7968 L 6.7876 12.7841 L 6.74642 12.7714 L 6.70522 12.7586 L 6.66399 12.7457 L 6.62272 12.7328 L 6.58143 12.7199 L 6.54011 12.7069 L 6.49875 12.6938 L 6.45737 12.6807 L 6.41595 12.6675 L 6.37451 12.6542 L 6.33303 12.6409 L 6.29152 12.6275 L 6.24998 12.6141 L 6.20842 12.6006 L 6.16682 12.5871 L 6.12519 12.5734 L 6.08352 12.5597 L 6.04183 12.546 L 6.04183 12.546 L 6.02659 12.5872 L 6.01131 12.6283 L 5.99601 12.6693 L 5.98067 12.7103 L 5.96531 12.7512 L 5.94991 12.7921 L 5.93449 12.8328 L 5.91904 12.8736 L 5.90356 12.9142 L 5.88805 12.9548 L 5.87251 12.9954 L 5.85695 13.0359 L 5.84136 13.0763 L 5.82574 13.1167 L 5.81009 13.157 L 5.79442 13.1972 L 5.77873 13.2374 L 5.763 13.2775 L 5.74725 13.3176 L 5.73148 13.3576 L 5.71568 13.3975 L 5.69986 13.4374 L 5.68401 13.4773 L 5.66814 13.517 L 5.65225 13.5568 L 5.63633 13.5964 L 5.62039 13.636 L 5.60442 13.6756 L 5.58844 13.7151 L 5.57243 13.7545 L 5.55639 13.7939 L 5.54034 13.8332 L 5.52427 13.8725 L 5.50817 13.9117 L 5.49205 13.9509 L 5.47591 13.99 L 5.45975 14.0291 L 5.44357 14.0681 L 5.42737 14.1071 L 5.41115 14.146 L 5.3949 14.1848 L 5.37864 14.2236 L 5.36236 14.2624 L 5.34606 14.3011 L 5.32974 14.3397 L 5.31341 14.3783 L 5.29705 14.4169 L 5.28068 14.4554 L 5.26428 14.4938 L 5.24787 14.5322 L 5.23144 14.5706 L 5.215 14.6089 L 5.19853 14.6471 L 5.18205 14.6853 L 5.16555 14.7235 L 5.14904 14.7616 L 5.13251 14.7996 L 5.11596 14.8376 L 5.09939 14.8756 L 5.08281 14.9135 L 5.06622 14.9514 L 5.0496 14.9892 L 5.03298 15.027 L 5.01633 15.0647 L 4.99967 15.1024 L 4.983 15.14 L 4.96631 15.1776 L 4.94961 15.2152 L 4.92058 15.2246 L 4.89154 15.2339 L 4.86247 15.2432 L 4.83339 15.2525 L 4.80429 15.2617 L 4.77518 15.2708 L 4.74605 15.2799 L 4.7169 15.2889 L 4.68773 15.2979 L 4.65855 15.3068 L 4.62934 15.3157 L 4.60013 15.3245 L 4.57089 15.3332 L 4.54164 15.3419 L 4.51237 15.3505 L 4.48309 15.3591 L 4.45379 15.3676 L 4.42447 15.3761 L 4.39514 15.3845 L 4.36579 15.3929 L 4.33642 15.4011 L 4.30704 15.4094 L 4.27765 15.4176 L 4.24824 15.4257 L 4.21881 15.4338 L 4.18937 15.4418 L 4.15991 15.4498 L 4.13044 15.4577 L 4.10095 15.4655 L 4.07145 15.4733 L 4.04193 15.481 L 4.0124 15.4887 L 3.98285 15.4964 L 3.95329 15.5039 L 3.92371 15.5114 L 3.89412 15.5189 L 3.86452 15.5263 L 3.8349 15.5336 L 3.80527 15.5409 L 3.77562 15.5481 L 3.74596 15.5553 L 3.71629 15.5624 L 3.6866 15.5695 L 3.6569 15.5765 L 3.62719 15.5834 L 3.59746 15.5903 L 3.52319 15.6073 L 3.49342 15.614 L 3.46363 15.6206 L 3.43384 15.6272 L 3.40403 15.6337 L 3.3742 15.6402 L 3.34437 15.6466 L 3.31452 15.6529 L 3.28466 15.6592 L 3.25479 15.6655 L 3.22491 15.6716 L 3.19502 15.6778 L 3.16511 15.6838 L 3.13519 15.6898 L 3.10526 15.6958 L 3.07532 15.7017 L 3.04537 15.7075 L 3.01541 15.7133 L 2.98544 15.719 L 2.95545 15.7247 L 2.92546 15.7303 L 2.89545 15.7358 L 2.86544 15.7413 L 2.83541 15.7468 L 2.80537 15.7521 L 2.77532 15.7575 L 2.74527 15.7627 L 2.7152 15.7679 L 2.68512 15.7731 L 2.65504 15.7782 L 2.62494 15.7832 L 2.59483 15.7882 L 2.56472 15.7931 L 2.53459 15.798 L 2.50446 15.8028 L 2.47432 15.8075 L 2.44416 15.8122 L 2.414 15.8168 L 2.38383 15.8214 L 2.35366 15.8259 L 2.32347 15.8304 L 2.29327 15.8348 L 2.26307 15.8391 L 2.23286 15.8434 L 2.20264 15.8477 L 2.17241 15.8518 L 2.14217 15.8559 L 2.11083 15.8294 L 2.07949 15.8027 L 2.04813 15.7761 L 2.01677 15.7493 L 1.98541 15.7226 L 1.95404 15.6957 L 1.92266 15.6689 L 1.89127 15.642 L 1.85988 15.615 L 1.82849 15.588 L 1.79709 15.5609 L 1.76568 15.5338 L 1.73427 15.5066 L 1.70285 15.4794 L 1.67143 15.4521 L 1.64 15.4248 L 1.60856 15.3975 L 1.57712 15.37 L 1.54567 15.3426 L 1.51422 15.315 L 1.48277 15.2875 L 1.4513 15.2598 L 1.41984 15.2321 L 1.38837 15.2044 L 1.35689 15.1766 L 1.32541 15.1487 L 1.29392 15.1208 L 1.26243 15.0929 L 1.23093 15.0649 L 1.19943 15.0368 L 1.16793 15.0087 L 1.13642 14.9805 L 1.10491 14.9522 L 1.07339 14.9239 L 1.04187 14.8956 L 1.01034 14.8672 L 0.978812 14.8387 L 0.947278 14.8102 L 0.915741 14.7816 L 0.8842 14.7529 L 0.852655 14.7242 L 0.821107 14.6955 L 0.789555 14.6666 L 0.758 14.6377 L 0.726442 14.6088 L 0.694881 14.5798 L 0.663316 14.5507 L 0.631749 14.5216 L 0.60018 14.4924 L 0.568607 14.4631 L 0.537032 14.4338 L 0.505455 14.4044 L 0.473876 14.3749 L 0.442294 14.3454 L 0.41071 14.3158 L 0.379125 14.2861 L 0.347537 14.2564 L 0.315948 14.2266 L 0.284358 14.1968 L 0.252766 14.1669 L 0.221173 14.1369 L 0.189579 14.1068 L 0.157984 14.0767 L 0.126388 14.0465 L 0.0947916 14.0162 L 0.0631946 13.9859 L 0.0315974 13.9555 L 8.88178e-16 13.925 L 8.17142e-16 13.925 L -0.0315974 13.9555 L -0.0631946 13.9859 L -0.0947916 14.0162 L -0.126388 14.0465 L -0.157984 14.0767 L -0.189579 14.1068 L -0.221173 14.1369 L -0.252766 14.1669 L -0.284358 14.1968 L -0.315948 14.2266 L -0.347537 14.2564 L -0.379125 14.2861 L -0.41071 14.3158 L -0.442294 14.3454 L -0.473876 14.3749 L -0.505455 14.4044 L -0.537032 14.4338 L -0.568607 14.4631 L -0.60018 14.4924 L -0.631749 14.5216 L -0.663316 14.5507 L -0.694881 14.5798 L -0.726442 14.6088 L -0.758 14.6377 L -0.789555 14.6666 L -0.821107 14.6955 L -0.852655 14.7242 L -0.8842 14.7529 L -0.915741 14.7816 L -0.947278 14.8102 L -0.978812 14.8387 L -1.01034 14.8672 L -1.04187 14.8956 L -1.07339 14.9239 L -1.10491 14.9522 L -1.13642 14.9805 L -1.16793 15.0087 L -1.19943 15.0368 L -1.23093 15.0649 L -1.26243 15.0929 L -1.29392 15.1208 L -1.32541 15.1487 L -1.35689 15.1766 L -1.38837 15.2044 L -1.41984 15.2321 L -1.4513 15.2598 L -1.48277 15.2875 L -1.51422 15.315 L -1.54567 15.3426 L -1.57712 15.37 L -1.60856 15.3975 L -1.64 15.4248 L -1.67143 15.4521 L -1.70285 15.4794 L -1.73427 15.5066 L -1.76568 15.5338 L -1.79709 15.5609 L -1.82849 15.588 L -1.85988 15.615 L -1.89127 15.642 L -1.92266 15.6689 L -1.95404 15.6957 L -1.98541 15.7226 L -2.01677 15.7493 L -2.04813 15.7761 L -2.07949 15.8027 L -2.11083 15.8294 L -2.14217 15.8559 L -2.17241 15.8518 L -2.20264 15.8477 L -2.23286 15.8434 L -2.26307 15.8391 L -2.29327 15.8348 L -2.32347 15.8304 L -2.35366 15.8259 L -2.38383 15.8214 L -2.414 15.8168 L -2.44416 15.8122 L -2.47432 15.8075 L -2.50446 15.8028 L -2.53459 15.798 L -2.56472 15.7931 L -2.59483 15.7882 L -2.62494 15.7832 L -2.65504 15.7782 L -2.68512 15.7731 L -2.7152 15.7679 L -2.74527 15.7627 L -2.77532 15.7575 L -2.80537 15.7521 L -2.83541 15.7468 L -2.86544 15.7413 L -2.89545 15.7358 L -2.92546 15.7303 L -2.95545 15.7247 L -2.98544 15.719 L -3.01541 15.7133 L -3.04537 15.7075 L -3.07532 15.7017 L -3.10526 15.6958 L -3.13519 15.6898 L -3.16511 15.6838 L -3.19502 15.6778 L -3.22491 15.6716 L -3.25479 15.6655 L -3.28466 15.6592 L -3.31452 15.6529 L -3.34437 15.6466 L -3.3742 15.6402 L -3.40403 15.6337 L -3.43384 15.6272 L -3.46363 15.6206 L -3.49342 15.614 L -3.52319 15.6073 L -3.59746 15.5903 L -3.62719 15.5834 L -3.6569 15.5765 L -3.6866 15.5695 L -3.71629 15.5624 L -3.74596 15.5553 L -3.77562 15.5481 L -3.80527 15.5409 L -3.8349 15.5336 L -3.86452 15.5263 L -3.89412 15.5189 L -3.92371 15.5114 L -3.95329 15.5039 L -3.98285 15.4964 L -4.0124 15.4887 L -4.04193 15.481 L -4.07145 15.4733 L -4.10095 15.4655 L -4.13044 15.4577 L -4.15991 15.4498 L -4.18937 15.4418 L -4.21881 15.4338 L -4.24824 15.4257 L -4.27765 15.4176 L -4.30704 15.4094 L -4.33642 15.4011 L -4.36579 15.3929 L -4.39514 15.3845 L -4.42447 15.3761 L -4.45379 15.3676 L -4.48309 15.3591 L -4.51237 15.3505 L -4.54164 15.3419 L -4.57089 15.3332 L -4.60013 15.3245 L -4.62934 15.3157 L -4.65855 15.3068 L -4.68773 15.2979 L -4.7169 15.2889 L -4.74605 15.2799 L -4.77518 15.2708 L -4.80429 15.2617 L -4.83339 15.2525 L -4.86247 15.2432 L -4.89154 15.2339 L -4.92058 15.2246 L -4.94961 15.2152 L -4.96631 15.1776 L -4.983 15.14 L -4.99967 15.1024 L -5.01633 15.0647 L -5.03298 15.027 L -5.0496 14.9892 L -5.06622 14.9514 L -5.08281 14.9135 L -5.09939 14.8756 L -5.11596 14.8376 L -5.13251 14.7996 L -5.14904 14.7616 L -5.16555 14.7235 L -5.18205 14.6853 L -5.19853 14.6471 L -5.215 14.6089 L -5.23144 14.5706 L -5.24787 14.5322 L -5.26428 14.4938 L -5.28068 14.4554 L -5.29705 14.4169 L -5.31341 14.3783 L -5.32974 14.3397 L -5.34606 14.3011 L -5.36236 14.2624 L -5.37864 14.2236 L -5.3949 14.1848 L -5.41115 14.146 L -5.42737 14.1071 L -5.44357 14.0681 L -5.45975 14.0291 L -5.47591 13.99 L -5.49205 13.9509 L -5.50817 13.9117 L -5.52427 13.8725 L -5.54034 13.8332 L -5.55639 13.7939 L -5.57243 13.7545 L -5.58844 13.7151 L -5.60442 13.6756 L -5.62039 13.636 L -5.63633 13.5964 L -5.65225 13.5568 L -5.66814 13.517 L -5.68401 13.4773 L -5.69986 13.4374 L -5.71568 13.3975 L -5.73148 13.3576 L -5.74725 13.3176 L -5.763 13.2775 L -5.77873 13.2374 L -5.79442 13.1972 L -5.81009 13.157 L -5.82574 13.1167 L -5.84136 13.0763 L -5.85695 13.0359 L -5.87251 12.9954 L -5.88805 12.9548 L -5.90356 12.9142 L -5.91904 12.8736 L -5.93449 12.8328 L -5.94991 12.7921 L -5.96531 12.7512 L -5.98067 12.7103 L -5.99601 12.6693 L -6.01131 12.6283 L -6.02659 12.5872 L -6.04183 12.546 L -6.04183 12.546 L -6.08352 12.5597 L -6.12519 12.5734 L -6.16682 12.5871 L -6.20842 12.6006 L -6.24998 12.6141 L -6.29152 12.6275 L -6.33303 12.6409 L -6.37451 12.6542 L -6.41595 12.6675 L -6.45737 12.6807 L -6.49875 12.6938 L -6.54011 12.7069 L -6.58143 12.7199 L -6.62272 12.7328 L -6.66399 12.7457 L -6.70522 12.7586 L -6.74642 12.7714 L -6.7876 12.7841 L -6.82874 12.7968 L -6.86985 12.8094 L -6.91094 12.8219 L -6.95199 12.8344 L -6.99302 12.8469 L -7.03401 12.8593 L -7.07498 12.8716 L -7.11591 12.8839 L -7.15682 12.8961 L -7.1977 12.9083 L -7.23854 12.9204 L -7.27936 12.9325 L -7.32015 12.9445 L -7.36091 12.9565 L -7.40165 12.9684 L -7.44235 12.9803 L -7.48302 12.9921 L -7.52367 13.0039 L -7.56429 13.0156 L -7.60488 13.0273 L -7.64544 13.0389 L -7.68597 13.0505 L -7.72647 13.062 L -7.76695 13.0735 L -7.80739 13.0849 L -7.84781 13.0963 L -7.8882 13.1076 L -7.92857 13.1189 L -7.9689 13.1302 L -8.00921 13.1414 L -8.04949 13.1525 L -8.08974 13.1636 L -8.12997 13.1747 L -8.17017 13.1857 L -8.21034 13.1967 L -8.25048 13.2076 L -8.2906 13.2185 L -8.33068 13.2294 L -8.37075 13.2402 L -8.41078 13.2509 L -8.45079 13.2616 L -8.49077 13.2723 L -8.53073 13.283 L -8.57065 13.2936 L -8.61056 13.3041 L -8.65043 13.3146 L -8.69028 13.3251 L -8.7301 13.3355 L -8.7699 13.3459 L -8.80967 13.3563 L -8.83513 13.3394 L -8.86055 13.3226 L -8.88594 13.3056 L -8.9113 13.2887 L -8.93663 13.2716 L -8.96193 13.2546 L -8.98719 13.2375 L -9.01242 13.2203 L -9.03761 13.2031 L -9.06278 13.1858 L -9.08791 13.1685 L -9.11301 13.1512 L -9.13807 13.1338 L -9.1631 13.1163 L -9.1881 13.0988 L -9.21307 13.0813 L -9.238 13.0637 L -9.2629 13.046 L -9.28776 13.0283 L -9.31259 13.0106 L -9.33739 12.9928 L -9.36215 12.975 L -9.38688 12.9571 L -9.41157 12.9392 L -9.43623 12.9212 L -9.46086 12.9032 L -9.48545 12.8851 L -9.51001 12.867 L -9.53453 12.8488 L -9.55902 12.8306 L -9.58347 12.8124 L -9.60789 12.7941 L -9.63227 12.7757 L -9.65662 12.7573 L -9.68093 12.7389 L -9.70521 12.7204 L -9.72945 12.7019 L -9.75366 12.6833 L -9.77783 12.6647 L -9.80196 12.646 L -9.82607 12.6273 L -9.85013 12.6085 L -9.87416 12.5897 L -9.89815 12.5709 L -9.92211 12.552 L -9.94603 12.533 L -10.0056 12.4855 L -10.0294 12.4664 L -10.0531 12.4473 L -10.0769 12.4281 L -10.1005 12.4088 L -10.1242 12.3895 L -10.1478 12.3702 L -10.1714 12.3508 L -10.1949 12.3314 L -10.2184 12.3119 L -10.2419 12.2924 L -10.2653 12.2729 L -10.2887 12.2533 L -10.312 12.2336 L -10.3354 12.2139 L -10.3586 12.1942 L -10.3819 12.1744 L -10.4051 12.1546 L -10.4282 12.1347 L -10.4513 12.1148 L -10.4744 12.0949 L -10.4975 12.0749 L -10.5205 12.0548 L -10.5435 12.0348 L -10.5664 12.0146 L -10.5893 11.9945 L -10.6121 11.9742 L -10.635 11.954 L -10.6577 11.9337 L -10.6805 11.9133 L -10.7032 11.8929 L -10.7258 11.8725 L -10.7485 11.852 L -10.7711 11.8315 L -10.7936 11.8109 L -10.8161 11.7903 L -10.8386 11.7697 L -10.861 11.749 L -10.8834 11.7283 L -10.9057 11.7075 L -10.928 11.6867 L -10.9503 11.6658 L -10.9725 11.6449 L -10.9947 11.6239 L -11.0169 11.6029 L -11.039 11.5819 L -11.0611 11.5608 L -11.0598 11.5198 L -11.0585 11.4787 L -11.0572 11.4375 L -11.0559 11.3963 L -11.0545 11.3551 L -11.0531 11.3139 L -11.0517 11.2726 L -11.0502 11.2313 L -11.0487 11.1899 L -11.0471 11.1485 L -11.0455 11.1071 L -11.0439 11.0656 L -11.0423 11.0241 L -11.0406 10.9826 L -11.0389 10.941 L -11.0371 10.8994 L -11.0353 10.8578 L -11.0335 10.8161 L -11.0316 10.7744 L -11.0297 10.7326 L -11.0277 10.6908 L -11.0257 10.649 L -11.0237 10.6072 L -11.0216 10.5653 L -11.0195 10.5233 L -11.0174 10.4813 L -11.0152 10.4393 L -11.013 10.3973 L -11.0107 10.3552 L -11.0084 10.313 L -11.0061 10.2709 L -11.0037 10.2287 L -11.0012 10.1864 L -10.9988 10.1441 L -10.9962 10.1018 L -10.9937 10.0595 L -10.9911 10.017 L -10.9884 9.97461 L -10.9858 9.93212 L -10.983 9.8896 L -10.9802 9.84704 L -10.9774 9.80444 L -10.9746 9.76179 L -10.9716 9.71911 L -10.9687 9.67639 L -10.9657 9.63362 L -10.9626 9.59081 L -10.9595 9.54797 L -10.9564 9.50508 L -10.9532 9.46215 L -10.9499 9.41917 L -10.9466 9.37616 L -10.9433 9.3331 L -10.9399 9.29 L -10.9365 9.24686 L -10.933 9.20368 L -10.9294 9.16045 L -10.9258 9.11718 L -10.9222 9.07387 L -10.9185 9.03051 L -10.9148 8.98712 L -10.911 8.94367 L -10.9071 8.90019 L -10.9032 8.85666 L -10.8992 8.81308 L -10.8952 8.76947 L -10.8911 8.7258 L -10.887 8.6821 L -10.887 8.6821 L -10.9305 8.67639 L -10.974 8.67065 L -11.0174 8.66486 L -11.0608 8.65903 L -11.1041 8.65315 L -11.1474 8.64724 L -11.1906 8.64128 L -11.2337 8.63527 L -11.2768 8.62923 L -11.3198 8.62315 L -11.3628 8.61702 L -11.4057 8.61086 L -11.4486 8.60465 L -11.4914 8.5984 L -11.5342 8.59212 L -11.5769 8.5858 L -11.6196 8.57944 L -11.6622 8.57304 L -11.7048 8.5666 L -11.7473 8.56012 L -11.7898 8.55361 L -11.8322 8.54706 L -11.8745 8.54048 L -11.9169 8.53385 L -11.9591 8.5272 L -12.0013 8.5205 L -12.0435 8.51377 L -12.0856 8.50701 L -12.1277 8.50021 L -12.1697 8.49338 L -12.2116 8.48652 L -12.2536 8.47962 L -12.2954 8.47269 L -12.3373 8.46572 L -12.379 8.45872 L -12.4208 8.45169 L -12.4624 8.44463 L -12.5041 8.43753 L -12.5457 8.43041 L -12.5872 8.42325 L -12.6287 8.41606 L -12.6701 8.40884 L -12.7115 8.40159 L -12.7529 8.39431 L -12.7942 8.387 L -12.8355 8.37967 L -12.8767 8.3723 L -12.9179 8.3649 L -12.959 8.35747 L -13.0001 8.35002 L -13.0411 8.34253 L -13.0821 8.33502 L -13.1231 8.32748 L -13.164 8.31991 L -13.2049 8.31232 L -13.2457 8.3047 L -13.2865 8.29705 L -13.3272 8.28937 L -13.3679 8.28167 L -13.4086 8.27394 L -13.4492 8.26619 L -13.4897 8.25841 L -13.5303 8.25061 L -13.5708 8.24278 L -13.6112 8.23492 L -13.6516 8.22704 L -13.692 8.21913 L -13.7323 8.2112 L -13.7479 8.185 L -13.7635 8.15876 L -13.7791 8.1325 L -13.7945 8.10621 L -13.81 8.07988 L -13.8254 8.05353 L -13.8407 8.02715 L -13.856 8.00074 L -13.8712 7.9743 L -13.8864 7.94783 L -13.9015 7.92133 L -13.9166 7.8948 L -13.9316 7.86825 L -13.9466 7.84166 L -13.9616 7.81505 L -13.9764 7.78841 L -13.9913 7.76174 L -14.006 7.73504 L -14.0208 7.70832 L -14.0354 7.68156 L -14.0501 7.65478 L -14.0646 7.62797 L -14.0792 7.60113 L -14.0936 7.57427 L -14.1081 7.54737 L -14.1224 7.52045 L -14.1367 7.49351 L -14.151 7.46653 L -14.1652 7.43953 L -14.1794 7.4125 L -14.1935 7.38545 L -14.2076 7.35836 L -14.2216 7.33125 L -14.2355 7.30412 L -14.2494 7.27695 L -14.2633 7.24976 L -14.2771 7.22255 L -14.2908 7.19531 L -14.3045 7.16804 L -14.3182 7.14075 L -14.3318 7.11342 L -14.3453 7.08608 L -14.3588 7.05871 L -14.3722 7.03131 L -14.3856 7.00389 L -14.3989 6.97644 L -14.432 6.9078 L -14.4451 6.88027 L -14.4582 6.8527 L -14.4713 6.82512 L -14.4843 6.79751 L -14.4972 6.76987 L -14.5101 6.74221 L -14.5229 6.71452 L -14.5357 6.68681 L -14.5484 6.65908 L -14.5611 6.63132 L -14.5737 6.60354 L -14.5863 6.57573 L -14.5988 6.5479 L -14.6113 6.52005 L -14.6237 6.49217 L -14.636 6.46427 L -14.6483 6.43634 L -14.6606 6.40839 L -14.6728 6.38042 L -14.6849 6.35243 L -14.697 6.32441 L -14.709 6.29637 L -14.721 6.2683 L -14.7329 6.24022 L -14.7448 6.21211 L -14.7566 6.18397 L -14.7684 6.15582 L -14.7801 6.12764 L -14.7918 6.09944 L -14.8034 6.07122 L -14.8149 6.04298 L -14.8264 6.01471 L -14.8379 5.98643 L -14.8493 5.95812 L -14.8606 5.92979 L -14.8719 5.90143 L -14.8831 5.87306 L -14.8943 5.84466 L -14.9054 5.81625 L -14.9165 5.78781 L -14.9275 5.75935 L -14.9384 5.73087 L -14.9493 5.70237 L -14.9602 5.67385 L -14.971 5.64531 L -14.9817 5.61674 L -14.9628 5.58027 L -14.9438 5.54379 L -14.9248 5.50729 L -14.9057 5.47077 L -14.8866 5.43423 L -14.8674 5.39768 L -14.8482 5.36111 L -14.8289 5.32452 L -14.8096 5.28792 L -14.7903 5.2513 L -14.7709 5.21466 L -14.7514 5.17801 L -14.7319 5.14134 L -14.7124 5.10465 L -14.6928 5.06794 L -14.6732 5.03122 L -14.6535 4.99449 L -14.6337 4.95773 L -14.6139 4.92096 L -14.5941 4.88417 L -14.5742 4.84737 L -14.5543 4.81055 L -14.5343 4.77371 L -14.5142 4.73685 L -14.4942 4.69998 L -14.474 4.66309 L -14.4538 4.62618 L -14.4336 4.58926 L -14.4133 4.55232 L -14.3929 4.51536 L -14.3725 4.47839 L -14.352 4.4414 L -14.3315 4.40439 L -14.3109 4.36737 L -14.2903 4.33033 L -14.2696 4.29327 L -14.2489 4.25619 L -14.2281 4.2191 L -14.2072 4.18199 L -14.1863 4.14487 L -14.1653 4.10773 L -14.1443 4.07057 L -14.1232 4.03339 L -14.1021 3.9962 L -14.0809 3.95899 L -14.0596 3.92176 L -14.0383 3.88452 L -14.0169 3.84726 L -13.9955 3.80998 L -13.9739 3.77269 L -13.9524 3.73538 L -13.9307 3.69806 L -13.9091 3.66071 L -13.8873 3.62335 L -13.8655 3.58598 L -13.8436 3.54859 L -13.8217 3.51118 L -13.7996 3.47375 L -13.7776 3.43631 L -13.7554 3.39885 L -13.7332 3.36138 L -13.7109 3.32389 L -13.6886 3.28638 L -13.6662 3.24886 L -13.6437 3.21132 L -13.6212 3.17376 L -13.5986 3.13619 L -13.5759 3.0986 L -13.5759 3.0986 L -13.6126 3.07458 L -13.6493 3.05054 L -13.6859 3.02649 L -13.7224 3.00242 L -13.7589 2.97833 L -13.7953 2.95424 L -13.8316 2.93012 L -13.8679 2.90599 L -13.9041 2.88185 L -13.9403 2.8577 L -13.9763 2.83353 L -14.0123 2.80935 L -14.0483 2.78515 L -14.0841 2.76094 L -14.12 2.73672 L -14.1557 2.71249 L -14.1914 2.68825 L -14.227 2.66399 L -14.2626 2.63972 L -14.2981 2.61544 L -14.3335 2.59115 L -14.3689 2.56685 L -14.4042 2.54253 L -14.4394 2.51821 L -14.4746 2.49387 L -14.5097 2.46953 L -14.5448 2.44517 L -14.5798 2.42081 L -14.6148 2.39643 L -14.6496 2.37205 L -14.6845 2.34765 L -14.7193 2.32325 L -14.754 2.29884 L -14.7886 2.27441 L -14.8232 2.24998 L -14.8578 2.22554 L -14.8923 2.2011 L -14.9267 2.17664 L -14.9611 2.15218 L -14.9954 2.1277 L -15.0297 2.10322 L -15.0639 2.07874 L -15.098 2.05424 L -15.1321 2.02974 L -15.1662 2.00523 L -15.2002 1.98071 L -15.2341 1.95619 L -15.268 1.93166 L -15.3018 1.90712 L -15.3356 1.88258 L -15.3693 1.85803 L -15.403 1.83347 L -15.4367 1.80891 L -15.4702 1.78434 L -15.5038 1.75976 L -15.5372 1.73518 L -15.5707 1.7106 L -15.604 1.68601 L -15.6374 1.66141 L -15.6706 1.63681 L -15.7039 1.6122 L -15.737 1.58759 L -15.7702 1.56297 L -15.8032 1.53835 L -15.8363 1.51372 L -15.8693 1.48909 L -15.9022 1.46446 L -15.9351 1.43982 L -15.9378 1.40942 L -15.9405 1.37902 L -15.9431 1.34862 L -15.9456 1.31821 L -15.9481 1.2878 L -15.9505 1.25738 L -15.9529 1.22696 L -15.9552 1.19653 L -15.9575 1.1661 L -15.9596 1.13566 L -15.9618 1.10522 L -15.9639 1.07478 L -15.9659 1.04433 L -15.9678 1.01388 L -15.9697 0.983426 L -15.9716 0.952967 L -15.9734 0.922505 L -15.9751 0.892039 L -15.9768 0.86157 L -15.9784 0.831098 L -15.98 0.800623 L -15.9815 0.770145 L -15.9829 0.739665 L -15.9843 0.709181 L -15.9856 0.678695 L -15.9869 0.648207 L -15.9881 0.617716 L -15.9892 0.587223 L -15.9903 0.556728 L -15.9913 0.526231 L -15.9923 0.495731 L -15.9932 0.46523 L -15.9941 0.434728 L -15.9949 0.404224 L -15.9956 0.373718 L -15.9963 0.343211 L -15.9969 0.312703 L -15.9975 0.282193 L -15.998 0.251683 L -15.9985 0.221171 L -15.9989 0.190659 L -15.9992 0.160146 L -15.9995 0.129633 L -15.9997 0.0991189 L -15.9999 0.0686047 L -16 0.0380901 L -16 -0.0380901 L -15.9999 -0.0686047 L -15.9997 -0.0991189 L -15.9995 -0.129633 L -15.9992 -0.160146 L -15.9989 -0.190659 L -15.9985 -0.221171 L -15.998 -0.251683 L -15.9975 -0.282193 L -15.9969 -0.312703 L -15.9963 -0.343211 L -15.9956 -0.373718 L -15.9949 -0.404224 L -15.9941 -0.434728 L -15.9932 -0.46523 L -15.9923 -0.495731 L -15.9913 -0.526231 L -15.9903 -0.556728 L -15.9892 -0.587223 L -15.9881 -0.617716 L -15.9869 -0.648207 L -15.9856 -0.678695 L -15.9843 -0.709181 L -15.9829 -0.739665 L -15.9815 -0.770145 L -15.98 -0.800623 L -15.9784 -0.831098 L -15.9768 -0.86157 L -15.9751 -0.892039 L -15.9734 -0.922505 L -15.9716 -0.952967 L -15.9697 -0.983426 L -15.9678 -1.01388 L -15.9659 -1.04433 L -15.9639 -1.07478 L -15.9618 -1.10522 L -15.9596 -1.13566 L -15.9575 -1.1661 L -15.9552 -1.19653 L -15.9529 -1.22696 L -15.9505 -1.25738 L -15.9481 -1.2878 L -15.9456 -1.31821 L -15.9431 -1.34862 L -15.9405 -1.37902 L -15.9378 -1.40942 L -15.9351 -1.43982 L -15.9022 -1.46446 L -15.8693 -1.48909 L -15.8363 -1.51372 L -15.8032 -1.53835 L -15.7702 -1.56297 L -15.737 -1.58759 L -15.7039 -1.6122 L -15.6706 -1.63681 L -15.6374 -1.66141 L -15.604 -1.68601 L -15.5707 -1.7106 L -15.5372 -1.73518 L -15.5038 -1.75976 L -15.4702 -1.78434 L -15.4367 -1.80891 L -15.403 -1.83347 L -15.3693 -1.85803 L -15.3356 -1.88258 L -15.3018 -1.90712 L -15.268 -1.93166 L -15.2341 -1.95619 L -15.2002 -1.98071 L -15.1662 -2.00523 L -15.1321 -2.02974 L -15.098 -2.05424 L -15.0639 -2.07874 L -15.0297 -2.10322 L -14.9954 -2.1277 L -14.9611 -2.15218 L -14.9267 -2.17664 L -14.8923 -2.2011 L -14.8578 -2.22554 L -14.8232 -2.24998 L -14.7886 -2.27441 L -14.754 -2.29884 L -14.7193 -2.32325 L -14.6845 -2.34765 L -14.6496 -2.37205 L -14.6148 -2.39643 L -14.5798 -2.42081 L -14.5448 -2.44517 L -14.5097 -2.46953 L -14.4746 -2.49387 L -14.4394 -2.51821 L -14.4042 -2.54253 L -14.3689 -2.56685 L -14.3335 -2.59115 L -14.2981 -2.61544 L -14.2626 -2.63972 L -14.227 -2.66399 L -14.1914 -2.68825 L -14.1557 -2.71249 L -14.12 -2.73672 L -14.0841 -2.76094 L -14.0483 -2.78515 L -14.0123 -2.80935 L -13.9763 -2.83353 L -13.9403 -2.8577 L -13.9041 -2.88185 L -13.8679 -2.90599 L -13.8316 -2.93012 L -13.7953 -2.95424 L -13.7589 -2.97833 L -13.7224 -3.00242 L -13.6859 -3.02649 L -13.6493 -3.05054 L -13.6126 -3.07458 L -13.5759 -3.0986 L -13.5759 -3.0986 L -13.5986 -3.13619 L -13.6212 -3.17376 L -13.6437 -3.21132 L -13.6662 -3.24886 L -13.6886 -3.28638 L -13.7109 -3.32389 L -13.7332 -3.36138 L -13.7554 -3.39885 L -13.7776 -3.43631 L -13.7996 -3.47375 L -13.8217 -3.51118 L -13.8436 -3.54859 L -13.8655 -3.58598 L -13.8873 -3.62335 L -13.9091 -3.66071 L -13.9307 -3.69806 L -13.9524 -3.73538 L -13.9739 -3.77269 L -13.9955 -3.80998 L -14.0169 -3.84726 L -14.0383 -3.88452 L -14.0596 -3.92176 L -14.0809 -3.95899 L -14.1021 -3.9962 L -14.1232 -4.03339 L -14.1443 -4.07057 L -14.1653 -4.10773 L -14.1863 -4.14487 L -14.2072 -4.18199 L -14.2281 -4.2191 L -14.2489 -4.25619 L -14.2696 -4.29327 L -14.2903 -4.33033 L -14.3109 -4.36737 L -14.3315 -4.40439 L -14.352 -4.4414 L -14.3725 -4.47839 L -14.3929 -4.51536 L -14.4133 -4.55232 L -14.4336 -4.58926 L -14.4538 -4.62618 L -14.474 -4.66309 L -14.4942 -4.69998 L -14.5142 -4.73685 L -14.5343 -4.77371 L -14.5543 -4.81055 L -14.5742 -4.84737 L -14.5941 -4.88417 L -14.6139 -4.92096 L -14.6337 -4.95773 L -14.6535 -4.99449 L -14.6732 -5.03122 L -14.6928 -5.06794 L -14.7124 -5.10465 L -14.7319 -5.14134 L -14.7514 -5.17801 L -14.7709 -5.21466 L -14.7903 -5.2513 L -14.8096 -5.28792 L -14.8289 -5.32452 L -14.8482 -5.36111 L -14.8674 -5.39768 L -14.8866 -5.43423 L -14.9057 -5.47077 L -14.9248 -5.50729 L -14.9438 -5.54379 L -14.9628 -5.58027 L -14.9817 -5.61674 L -14.971 -5.64531 L -14.9602 -5.67385 L -14.9493 -5.70237 L -14.9384 -5.73087 L -14.9275 -5.75935 L -14.9165 -5.78781 L -14.9054 -5.81625 L -14.8943 -5.84466 L -14.8831 -5.87306 L -14.8719 -5.90143 L -14.8606 -5.92979 L -14.8493 -5.95812 L -14.8379 -5.98643 L -14.8264 -6.01471 L -14.8149 -6.04298 L -14.8034 -6.07122 L -14.7918 -6.09944 L -14.7801 -6.12764 L -14.7684 -6.15582 L -14.7566 -6.18397 L -14.7448 -6.21211 L -14.7329 -6.24022 L -14.721 -6.2683 L -14.709 -6.29637 L -14.697 -6.32441 L -14.6849 -6.35243 L -14.6728 -6.38042 L -14.6606 -6.40839 L -14.6483 -6.43634 L -14.636 -6.46427 L -14.6237 -6.49217 L -14.6113 -6.52005 L -14.5988 -6.5479 L -14.5863 -6.57573 L -14.5737 -6.60354 L -14.5611 -6.63132 L -14.5484 -6.65908 L -14.5357 -6.68681 L -14.5229 -6.71452 L -14.5101 -6.74221 L -14.4972 -6.76987 L -14.4843 -6.79751 L -14.4713 -6.82512 L -14.4582 -6.8527 L -14.4451 -6.88027 L -14.432 -6.9078 L -14.3989 -6.97644 L -14.3856 -7.00389 L -14.3722 -7.03131 L -14.3588 -7.05871 L -14.3453 -7.08608 L -14.3318 -7.11342 L -14.3182 -7.14075 L -14.3045 -7.16804 L -14.2908 -7.19531 L -14.2771 -7.22255 L -14.2633 -7.24976 L -14.2494 -7.27695 L -14.2355 -7.30412 L -14.2216 -7.33125 L -14.2076 -7.35836 L -14.1935 -7.38545 L -14.1794 -7.4125 L -14.1652 -7.43953 L -14.151 -7.46653 L -14.1367 -7.49351 L -14.1224 -7.52045 L -14.1081 -7.54737 L -14.0936 -7.57427 L -14.0792 -7.60113 L -14.0646 -7.62797 L -14.0501 -7.65478 L -14.0354 -7.68156 L -14.0208 -7.70832 L -14.006 -7.73504 L -13.9913 -7.76174 L -13.9764 -7.78841 L -13.9616 -7.81505 L -13.9466 -7.84166 L -13.9316 -7.86825 L -13.9166 -7.8948 L -13.9015 -7.92133 L -13.8864 -7.94783 L -13.8712 -7.9743 L -13.856 -8.00074 L -13.8407 -8.02715 L -13.8254 -8.05353 L -13.81 -8.07988 L -13.7945 -8.10621 L -13.7791 -8.1325 L -13.7635 -8.15876 L -13.7479 -8.185 L -13.7323 -8.2112 L -13.692 -8.21913 L -13.6516 -8.22704 L -13.6112 -8.23492 L -13.5708 -8.24278 L -13.5303 -8.25061 L -13.4897 -8.25841 L -13.4492 -8.26619 L -13.4086 -8.27394 L -13.3679 -8.28167 L -13.3272 -8.28937 L -13.2865 -8.29705 L -13.2457 -8.3047 L -13.2049 -8.31232 L -13.164 -8.31991 L -13.1231 -8.32748 L -13.0821 -8.33502 L -13.0411 -8.34253 L -13.0001 -8.35002 L -12.959 -8.35747 L -12.9179 -8.3649 L -12.8767 -8.3723 L -12.8355 -8.37967 L -12.7942 -8.387 L -12.7529 -8.39431 L -12.7115 -8.40159 L -12.6701 -8.40884 L -12.6287 -8.41606 L -12.5872 -8.42325 L -12.5457 -8.43041 L -12.5041 -8.43753 L -12.4624 -8.44463 L -12.4208 -8.45169 L -12.379 -8.45872 L -12.3373 -8.46572 L -12.2954 -8.47269 L -12.2536 -8.47962 L -12.2116 -8.48652 L -12.1697 -8.49338 L -12.1277 -8.50021 L -12.0856 -8.50701 L -12.0435 -8.51377 L -12.0013 -8.5205 L -11.9591 -8.5272 L -11.9169 -8.53385 L -11.8745 -8.54048 L -11.8322 -8.54706 L -11.7898 -8.55361 L -11.7473 -8.56012 L -11.7048 -8.5666 L -11.6622 -8.57304 L -11.6196 -8.57944 L -11.5769 -8.5858 L -11.5342 -8.59212 L -11.4914 -8.5984 L -11.4486 -8.60465 L -11.4057 -8.61086 L -11.3628 -8.61702 L -11.3198 -8.62315 L -11.2768 -8.62923 L -11.2337 -8.63527 L -11.1906 -8.64128 L -11.1474 -8.64724 L -11.1041 -8.65315 L -11.0608 -8.65903 L -11.0174 -8.66486 L -10.974 -8.67065 L -10.9305 -8.67639 L -10.887 -8.6821 L -10.887 -8.6821 L -10.8911 -8.7258 L -10.8952 -8.76947 L -10.8992 -8.81308 L -10.9032 -8.85666 L -10.9071 -8.90019 L -10.911 -8.94367 L -10.9148 -8.98712 L -10.9185 -9.03051 L -10.9222 -9.07387 L -10.9258 -9.11718 L -10.9294 -9.16045 L -10.933 -9.20368 L -10.9365 -9.24686 L -10.9399 -9.29 L -10.9433 -9.3331 L -10.9466 -9.37616 L -10.9499 -9.41917 L -10.9532 -9.46215 L -10.9564 -9.50508 L -10.9595 -9.54797 L -10.9626 -9.59081 L -10.9657 -9.63362 L -10.9687 -9.67639 L -10.9716 -9.71911 L -10.9746 -9.76179 L -10.9774 -9.80444 L -10.9802 -9.84704 L -10.983 -9.8896 L -10.9858 -9.93212 L -10.9884 -9.97461 L -10.9911 -10.017 L -10.9937 -10.0595 L -10.9962 -10.1018 L -10.9988 -10.1441 L -11.0012 -10.1864 L -11.0037 -10.2287 L -11.0061 -10.2709 L -11.0084 -10.313 L -11.0107 -10.3552 L -11.013 -10.3973 L -11.0152 -10.4393 L -11.0174 -10.4813 L -11.0195 -10.5233 L -11.0216 -10.5653 L -11.0237 -10.6072 L -11.0257 -10.649 L -11.0277 -10.6908 L -11.0297 -10.7326 L -11.0316 -10.7744 L -11.0335 -10.8161 L -11.0353 -10.8578 L -11.0371 -10.8994 L -11.0389 -10.941 L -11.0406 -10.9826 L -11.0423 -11.0241 L -11.0439 -11.0656 L -11.0455 -11.1071 L -11.0471 -11.1485 L -11.0487 -11.1899 L -11.0502 -11.2313 L -11.0517 -11.2726 L -11.0531 -11.3139 L -11.0545 -11.3551 L -11.0559 -11.3963 L -11.0572 -11.4375 L -11.0585 -11.4787 L -11.0598 -11.5198 L -11.0611 -11.5608 L -11.039 -11.5819 L -11.0169 -11.6029 L -10.9947 -11.6239 L -10.9725 -11.6449 L -10.9503 -11.6658 L -10.928 -11.6867 L -10.9057 -11.7075 L -10.8834 -11.7283 L -10.861 -11.749 L -10.8386 -11.7697 L -10.8161 -11.7903 L -10.7936 -11.8109 L -10.7711 -11.8315 L -10.7485 -11.852 L -10.7258 -11.8725 L -10.7032 -11.8929 L -10.6805 -11.9133 L -10.6577 -11.9337 L -10.635 -11.954 L -10.6121 -11.9742 L -10.5893 -11.9945 L -10.5664 -12.0146 L -10.5435 -12.0348 L -10.5205 -12.0548 L -10.4975 -12.0749 L -10.4744 -12.0949 L -10.4513 -12.1148 L -10.4282 -12.1347 L -10.4051 -12.1546 L -10.3819 -12.1744 L -10.3586 -12.1942 L -10.3354 -12.2139 L -10.312 -12.2336 L -10.2887 -12.2533 L -10.2653 -12.2729 L -10.2419 -12.2924 L -10.2184 -12.3119 L -10.1949 -12.3314 L -10.1714 -12.3508 L -10.1478 -12.3702 L -10.1242 -12.3895 L -10.1005 -12.4088 L -10.0769 -12.4281 L -10.0531 -12.4473 L -10.0294 -12.4664 L -10.0056 -12.4855 L -9.94603 -12.533 L -9.92211 -12.552 L -9.89815 -12.5709 L -9.87416 -12.5897 L -9.85013 -12.6085 L -9.82607 -12.6273 L -9.80196 -12.646 L -9.77783 -12.6647 L -9.75366 -12.6833 L -9.72945 -12.7019 L -9.70521 -12.7204 L -9.68093 -12.7389 L -9.65662 -12.7573 L -9.63227 -12.7757 L -9.60789 -12.7941 L -9.58347 -12.8124 L -9.55902 -12.8306 L -9.53453 -12.8488 L -9.51001 -12.867 L -9.48545 -12.8851 L -9.46086 -12.9032 L -9.43623 -12.9212 L -9.41157 -12.9392 L -9.38688 -12.9571 L -9.36215 -12.975 L -9.33739 -12.9928 L -9.31259 -13.0106 L -9.28776 -13.0283 L -9.2629 -13.046 L -9.238 -13.0637 L -9.21307 -13.0813 L -9.1881 -13.0988 L -9.1631 -13.1163 L -9.13807 -13.1338 L -9.11301 -13.1512 L -9.08791 -13.1685 L -9.06278 -13.1858 L -9.03761 -13.2031 L -9.01242 -13.2203 L -8.98719 -13.2375 L -8.96193 -13.2546 L -8.93663 -13.2716 L -8.9113 -13.2887 L -8.88594 -13.3056 L -8.86055 -13.3226 L -8.83513 -13.3394 L -8.80967 -13.3563 L -8.7699 -13.3459 L -8.7301 -13.3355 L -8.69028 -13.3251 L -8.65043 -13.3146 L -8.61056 -13.3041 L -8.57065 -13.2936 L -8.53073 -13.283 L -8.49077 -13.2723 L -8.45079 -13.2616 L -8.41078 -13.2509 L -8.37075 -13.2402 L -8.33068 -13.2294 L -8.2906 -13.2185 L -8.25048 -13.2076 L -8.21034 -13.1967 L -8.17017 -13.1857 L -8.12997 -13.1747 L -8.08974 -13.1636 L -8.04949 -13.1525 L -8.00921 -13.1414 L -7.9689 -13.1302 L -7.92857 -13.1189 L -7.8882 -13.1076 L -7.84781 -13.0963 L -7.80739 -13.0849 L -7.76695 -13.0735 L -7.72647 -13.062 L -7.68597 -13.0505 L -7.64544 -13.0389 L -7.60488 -13.0273 L -7.56429 -13.0156 L -7.52367 -13.0039 L -7.48302 -12.9921 L -7.44235 -12.9803 L -7.40165 -12.9684 L -7.36091 -12.9565 L -7.32015 -12.9445 L -7.27936 -12.9325 L -7.23854 -12.9204 L -7.1977 -12.9083 L -7.15682 -12.8961 L -7.11591 -12.8839 L -7.07498 -12.8716 L -7.03401 -12.8593 L -6.99302 -12.8469 L -6.95199 -12.8344 L -6.91094 -12.8219 L -6.86985 -12.8094 L -6.82874 -12.7968 L -6.7876 -12.7841 L -6.74642 -12.7714 L -6.70522 -12.7586 L -6.66399 -12.7457 L -6.62272 -12.7328 L -6.58143 -12.7199 L -6.54011 -12.7069 L -6.49875 -12.6938 L -6.45737 -12.6807 L -6.41595 -12.6675 L -6.37451 -12.6542 L -6.33303 -12.6409 L -6.29152 -12.6275 L -6.24998 -12.6141 L -6.20842 -12.6006 L -6.16682 -12.5871 L -6.12519 -12.5734 L -6.08352 -12.5597 L -6.04183 -12.546 L -6.04183 -12.546 L -6.02659 -12.5872 L -6.01131 -12.6283 L -5.99601 -12.6693 L -5.98067 -12.7103 L -5.96531 -12.7512 L -5.94991 -12.7921 L -5.93449 -12.8328 L -5.91904 -12.8736 L -5.90356 -12.9142 L -5.88805 -12.9548 L -5.87251 -12.9954 L -5.85695 -13.0359 L -5.84136 -13.0763 L -5.82574 -13.1167 L -5.81009 -13.157 L -5.79442 -13.1972 L -5.77873 -13.2374 L -5.763 -13.2775 L -5.74725 -13.3176 L -5.73148 -13.3576 L -5.71568 -13.3975 L -5.69986 -13.4374 L -5.68401 -13.4773 L -5.66814 -13.517 L -5.65225 -13.5568 L -5.63633 -13.5964 L -5.62039 -13.636 L -5.60442 -13.6756 L -5.58844 -13.7151 L -5.57243 -13.7545 L -5.55639 -13.7939 L -5.54034 -13.8332 L -5.52427 -13.8725 L -5.50817 -13.9117 L -5.49205 -13.9509 L -5.47591 -13.99 L -5.45975 -14.0291 L -5.44357 -14.0681 L -5.42737 -14.1071 L -5.41115 -14.146 L -5.3949 -14.1848 L -5.37864 -14.2236 L -5.36236 -14.2624 L -5.34606 -14.3011 L -5.32974 -14.3397 L -5.31341 -14.3783 L -5.29705 -14.4169 L -5.28068 -14.4554 L -5.26428 -14.4938 L -5.24787 -14.5322 L -5.23144 -14.5706 L -5.215 -14.6089 L -5.19853 -14.6471 L -5.18205 -14.6853 L -5.16555 -14.7235 L -5.14904 -14.7616 L -5.13251 -14.7996 L -5.11596 -14.8376 L -5.09939 -14.8756 L -5.08281 -14.9135 L -5.06622 -14.9514 L -5.0496 -14.9892 L -5.03298 -15.027 L -5.01633 -15.0647 L -4.99967 -15.1024 L -4.983 -15.14 L -4.96631 -15.1776 L -4.94961 -15.2152 L -4.92058 -15.2246 L -4.89154 -15.2339 L -4.86247 -15.2432 L -4.83339 -15.2525 L -4.80429 -15.2617 L -4.77518 -15.2708 L -4.74605 -15.2799 L -4.7169 -15.2889 L -4.68773 -15.2979 L -4.65855 -15.3068 L -4.62934 -15.3157 L -4.60013 -15.3245 L -4.57089 -15.3332 L -4.54164 -15.3419 L -4.51237 -15.3505 L -4.48309 -15.3591 L -4.45379 -15.3676 L -4.42447 -15.3761 L -4.39514 -15.3845 L -4.36579 -15.3929 L -4.33642 -15.4011 L -4.30704 -15.4094 L -4.27765 -15.4176 L -4.24824 -15.4257 L -4.21881 -15.4338 L -4.18937 -15.4418 L -4.15991 -15.4498 L -4.13044 -15.4577 L -4.10095 -15.4655 L -4.07145 -15.4733 L -4.04193 -15.481 L -4.0124 -15.4887 L -3.98285 -15.4964 L -3.95329 -15.5039 L -3.92371 -15.5114 L -3.89412 -15.5189 L -3.86452 -15.5263 L -3.8349 -15.5336 L -3.80527 -15.5409 L -3.77562 -15.5481 L -3.74596 -15.5553 L -3.71629 -15.5624 L -3.6866 -15.5695 L -3.6569 -15.5765 L -3.62719 -15.5834 L -3.59746 -15.5903 L -3.52319 -15.6073 L -3.49342 -15.614 L -3.46363 -15.6206 L -3.43384 -15.6272 L -3.40403 -15.6337 L -3.3742 -15.6402 L -3.34437 -15.6466 L -3.31452 -15.6529 L -3.28466 -15.6592 L -3.25479 -15.6655 L -3.22491 -15.6716 L -3.19502 -15.6778 L -3.16511 -15.6838 L -3.13519 -15.6898 L -3.10526 -15.6958 L -3.07532 -15.7017 L -3.04537 -15.7075 L -3.01541 -15.7133 L -2.98544 -15.719 L -2.95545 -15.7247 L -2.92546 -15.7303 L -2.89545 -15.7358 L -2.86544 -15.7413 L -2.83541 -15.7468 L -2.80537 -15.7521 L -2.77532 -15.7575 L -2.74527 -15.7627 L -2.7152 -15.7679 L -2.68512 -15.7731 L -2.65504 -15.7782 L -2.62494 -15.7832 L -2.59483 -15.7882 L -2.56472 -15.7931 L -2.53459 -15.798 L -2.50446 -15.8028 L -2.47432 -15.8075 L -2.44416 -15.8122 L -2.414 -15.8168 L -2.38383 -15.8214 L -2.35366 -15.8259 L -2.32347 -15.8304 L -2.29327 -15.8348 L -2.26307 -15.8391 L -2.23286 -15.8434 L -2.20264 -15.8477 L -2.17241 -15.8518 L -2.14217 -15.8559 L -2.11083 -15.8294 L -2.07949 -15.8027 L -2.04813 -15.7761 L -2.01677 -15.7493 L -1.98541 -15.7226 L -1.95404 -15.6957 L -1.92266 -15.6689 L -1.89127 -15.642 L -1.85988 -15.615 L -1.82849 -15.588 L -1.79709 -15.5609 L -1.76568 -15.5338 L -1.73427 -15.5066 L -1.70285 -15.4794 L -1.67143 -15.4521 L -1.64 -15.4248 L -1.60856 -15.3975 L -1.57712 -15.37 L -1.54567 -15.3426 L -1.51422 -15.315 L -1.48277 -15.2875 L -1.4513 -15.2598 L -1.41984 -15.2321 L -1.38837 -15.2044 L -1.35689 -15.1766 L -1.32541 -15.1487 L -1.29392 -15.1208 L -1.26243 -15.0929 L -1.23093 -15.0649 L -1.19943 -15.0368 L -1.16793 -15.0087 L -1.13642 -14.9805 L -1.10491 -14.9522 L -1.07339 -14.9239 L -1.04187 -14.8956 L -1.01034 -14.8672 L -0.978812 -14.8387 L -0.947278 -14.8102 L -0.915741 -14.7816 L -0.8842 -14.7529 L -0.852655 -14.7242 L -0.821107 -14.6955 L -0.789555 -14.6666 L -0.758 -14.6377 L -0.726442 -14.6088 L -0.694881 -14.5798 L -0.663316 -14.5507 L -0.631749 -14.5216 L -0.60018 -14.4924 L -0.568607 -14.4631 L -0.537032 -14.4338 L -0.505455 -14.4044 L -0.473876 -14.3749 L -0.442294 -14.3454 L -0.41071 -14.3158 L -0.379125 -14.2861 L -0.347537 -14.2564 L -0.315948 -14.2266 L -0.284358 -14.1968 L -0.252766 -14.1669 L -0.221173 -14.1369 L -0.189579 -14.1068 L -0.157984 -14.0767 L -0.126388 -14.0465 L -0.0947916 -14.0162 L -0.0631946 -13.9859 L -0.0315974 -13.9555 L -3.10862e-15 -13.925 L -2.00734e-15 -13.925 L 0.0315974 -13.9555 L 0.0631946 -13.9859 L 0.0947916 -14.0162 L 0.126388 -14.0465 L 0.157984 -14.0767 L 0.189579 -14.1068 L 0.221173 -14.1369 L 0.252766 -14.1669 L 0.284358 -14.1968 L 0.315948 -14.2266 L 0.347537 -14.2564 L 0.379125 -14.2861 L 0.41071 -14.3158 L 0.442294 -14.3454 L 0.473876 -14.3749 L 0.505455 -14.4044 L 0.537032 -14.4338 L 0.568607 -14.4631 L 0.60018 -14.4924 L 0.631749 -14.5216 L 0.663316 -14.5507 L 0.694881 -14.5798 L 0.726442 -14.6088 L 0.758 -14.6377 L 0.789555 -14.6666 L 0.821107 -14.6955 L 0.852655 -14.7242 L 0.8842 -14.7529 L 0.915741 -14.7816 L 0.947278 -14.8102 L 0.978812 -14.8387 L 1.01034 -14.8672 L 1.04187 -14.8956 L 1.07339 -14.9239 L 1.10491 -14.9522 L 1.13642 -14.9805 L 1.16793 -15.0087 L 1.19943 -15.0368 L 1.23093 -15.0649 L 1.26243 -15.0929 L 1.29392 -15.1208 L 1.32541 -15.1487 L 1.35689 -15.1766 L 1.38837 -15.2044 L 1.41984 -15.2321 L 1.4513 -15.2598 L 1.48277 -15.2875 L 1.51422 -15.315 L 1.54567 -15.3426 L 1.57712 -15.37 L 1.60856 -15.3975 L 1.64 -15.4248 L 1.67143 -15.4521 L 1.70285 -15.4794 L 1.73427 -15.5066 L 1.76568 -15.5338 L 1.79709 -15.5609 L 1.82849 -15.588 L 1.85988 -15.615 L 1.89127 -15.642 L 1.92266 -15.6689 L 1.95404 -15.6957 L 1.98541 -15.7226 L 2.01677 -15.7493 L 2.04813 -15.7761 L 2.07949 -15.8027 L 2.11083 -15.8294 L 2.14217 -15.8559 L 2.17241 -15.8518 L 2.20264 -15.8477 L 2.23286 -15.8434 L 2.26307 -15.8391 L 2.29327 -15.8348 L 2.32347 -15.8304 L 2.35366 -15.8259 L 2.38383 -15.8214 L 2.414 -15.8168 L 2.44416 -15.8122 L 2.47432 -15.8075 L 2.50446 -15.8028 L 2.53459 -15.798 L 2.56472 -15.7931 L 2.59483 -15.7882 L 2.62494 -15.7832 L 2.65504 -15.7782 L 2.68512 -15.7731 L 2.7152 -15.7679 L 2.74527 -15.7627 L 2.77532 -15.7575 L 2.80537 -15.7521 L 2.83541 -15.7468 L 2.86544 -15.7413 L 2.89545 -15.7358 L 2.92546 -15.7303 L 2.95545 -15.7247 L 2.98544 -15.719 L 3.01541 -15.7133 L 3.04537 -15.7075 L 3.07532 -15.7017 L 3.10526 -15.6958 L 3.13519 -15.6898 L 3.16511 -15.6838 L 3.19502 -15.6778 L 3.22491 -15.6716 L 3.25479 -15.6655 L 3.28466 -15.6592 L 3.31452 -15.6529 L 3.34437 -15.6466 L 3.3742 -15.6402 L 3.40403 -15.6337 L 3.43384 -15.6272 L 3.46363 -15.6206 L 3.49342 -15.614 L 3.52319 -15.6073 L 3.59746 -15.5903 L 3.62719 -15.5834 L 3.6569 -15.5765 L 3.6866 -15.5695 L 3.71629 -15.5624 L 3.74596 -15.5553 L 3.77562 -15.5481 L 3.80527 -15.5409 L 3.8349 -15.5336 L 3.86452 -15.5263 L 3.89412 -15.5189 L 3.92371 -15.5114 L 3.95329 -15.5039 L 3.98285 -15.4964 L 4.0124 -15.4887 L 4.04193 -15.481 L 4.07145 -15.4733 L 4.10095 -15.4655 L 4.13044 -15.4577 L 4.15991 -15.4498 L 4.18937 -15.4418 L 4.21881 -15.4338 L 4.24824 -15.4257 L 4.27765 -15.4176 L 4.30704 -15.4094 L 4.33642 -15.4011 L 4.36579 -15.3929 L 4.39514 -15.3845 L 4.42447 -15.3761 L 4.45379 -15.3676 L 4.48309 -15.3591 L 4.51237 -15.3505 L 4.54164 -15.3419 L 4.57089 -15.3332 L 4.60013 -15.3245 L 4.62934 -15.3157 L 4.65855 -15.3068 L 4.68773 -15.2979 L 4.7169 -15.2889 L 4.74605 -15.2799 L 4.77518 -15.2708 L 4.80429 -15.2617 L 4.83339 -15.2525 L 4.86247 -15.2432 L 4.89154 -15.2339 L 4.92058 -15.2246 L 4.94961 -15.2152 L 4.96631 -15.1776 L 4.983 -15.14 L 4.99967 -15.1024 L 5.01633 -15.0647 L 5.03298 -15.027 L 5.0496 -14.9892 L 5.06622 -14.9514 L 5.08281 -14.9135 L 5.09939 -14.8756 L 5.11596 -14.8376 L 5.13251 -14.7996 L 5.14904 -14.7616 L 5.16555 -14.7235 L 5.18205 -14.6853 L 5.19853 -14.6471 L 5.215 -14.6089 L 5.23144 -14.5706 L 5.24787 -14.5322 L 5.26428 -14.4938 L 5.28068 -14.4554 L 5.29705 -14.4169 L 5.31341 -14.3783 L 5.32974 -14.3397 L 5.34606 -14.3011 L 5.36236 -14.2624 L 5.37864 -14.2236 L 5.3949 -14.1848 L 5.41115 -14.146 L 5.42737 -14.1071 L 5.44357 -14.0681 L 5.45975 -14.0291 L 5.47591 -13.99 L 5.49205 -13.9509 L 5.50817 -13.9117 L 5.52427 -13.8725 L 5.54034 -13.8332 L 5.55639 -13.7939 L 5.57243 -13.7545 L 5.58844 -13.7151 L 5.60442 -13.6756 L 5.62039 -13.636 L 5.63633 -13.5964 L 5.65225 -13.5568 L 5.66814 -13.517 L 5.68401 -13.4773 L 5.69986 -13.4374 L 5.71568 -13.3975 L 5.73148 -13.3576 L 5.74725 -13.3176 L 5.763 -13.2775 L 5.77873 -13.2374 L 5.79442 -13.1972 L 5.81009 -13.157 L 5.82574 -13.1167 L 5.84136 -13.0763 L 5.85695 -13.0359 L 5.87251 -12.9954 L 5.88805 -12.9548 L 5.90356 -12.9142 L 5.91904 -12.8736 L 5.93449 -12.8328 L 5.94991 -12.7921 L 5.96531 -12.7512 L 5.98067 -12.7103 L 5.99601 -12.6693 L 6.01131 -12.6283 L 6.02659 -12.5872 L 6.04183 -12.546 L 6.04183 -12.546 L 6.08352 -12.5597 L 6.12519 -12.5734 L 6.16682 -12.5871 L 6.20842 -12.6006 L 6.24998 -12.6141 L 6.29152 -12.6275 L 6.33303 -12.6409 L 6.37451 -12.6542 L 6.41595 -12.6675 L 6.45737 -12.6807 L 6.49875 -12.6938 L 6.54011 -12.7069 L 6.58143 -12.7199 L 6.62272 -12.7328 L 6.66399 -12.7457 L 6.70522 -12.7586 L 6.74642 -12.7714 L 6.7876 -12.7841 L 6.82874 -12.7968 L 6.86985 -12.8094 L 6.91094 -12.8219 L 6.95199 -12.8344 L 6.99302 -12.8469 L 7.03401 -12.8593 L 7.07498 -12.8716 L 7.11591 -12.8839 L 7.15682 -12.8961 L 7.1977 -12.9083 L 7.23854 -12.9204 L 7.27936 -12.9325 L 7.32015 -12.9445 L 7.36091 -12.9565 L 7.40165 -12.9684 L 7.44235 -12.9803 L 7.48302 -12.9921 L 7.52367 -13.0039 L 7.56429 -13.0156 L 7.60488 -13.0273 L 7.64544 -13.0389 L 7.68597 -13.0505 L 7.72647 -13.062 L 7.76695 -13.0735 L 7.80739 -13.0849 L 7.84781 -13.0963 L 7.8882 -13.1076 L 7.92857 -13.1189 L 7.9689 -13.1302 L 8.00921 -13.1414 L 8.04949 -13.1525 L 8.08974 -13.1636 L 8.12997 -13.1747 L 8.17017 -13.1857 L 8.21034 -13.1967 L 8.25048 -13.2076 L 8.2906 -13.2185 L 8.33068 -13.2294 L 8.37075 -13.2402 L 8.41078 -13.2509 L 8.45079 -13.2616 L 8.49077 -13.2723 L 8.53073 -13.283 L 8.57065 -13.2936 L 8.61056 -13.3041 L 8.65043 -13.3146 L 8.69028 -13.3251 L 8.7301 -13.3355 L 8.7699 -13.3459 L 8.80967 -13.3563 L 8.83513 -13.3394 L 8.86055 -13.3226 L 8.88594 -13.3056 L 8.9113 -13.2887 L 8.93663 -13.2716 L 8.96193 -13.2546 L 8.98719 -13.2375 L 9.01242 -13.2203 L 9.03761 -13.2031 L 9.06278 -13.1858 L 9.08791 -13.1685 L 9.11301 -13.1512 L 9.13807 -13.1338 L 9.1631 -13.1163 L 9.1881 -13.0988 L 9.21307 -13.0813 L 9.238 -13.0637 L 9.2629 -13.046 L 9.28776 -13.0283 L 9.31259 -13.0106 L 9.33739 -12.9928 L 9.36215 -12.975 L 9.38688 -12.9571 L 9.41157 -12.9392 L 9.43623 -12.9212 L 9.46086 -12.9032 L 9.48545 -12.8851 L 9.51001 -12.867 L 9.53453 -12.8488 L 9.55902 -12.8306 L 9.58347 -12.8124 L 9.60789 -12.7941 L 9.63227 -12.7757 L 9.65662 -12.7573 L 9.68093 -12.7389 L 9.70521 -12.7204 L 9.72945 -12.7019 L 9.75366 -12.6833 L 9.77783 -12.6647 L 9.80196 -12.646 L 9.82607 -12.6273 L 9.85013 -12.6085 L 9.87416 -12.5897 L 9.89815 -12.5709 L 9.92211 -12.552 L 9.94603 -12.533 L 10.0056 -12.4855 L 10.0294 -12.4664 L 10.0531 -12.4473 L 10.0769 -12.4281 L 10.1005 -12.4088 L 10.1242 -12.3895 L 10.1478 -12.3702 L 10.1714 -12.3508 L 10.1949 -12.3314 L 10.2184 -12.3119 L 10.2419 -12.2924 L 10.2653 -12.2729 L 10.2887 -12.2533 L 10.312 -12.2336 L 10.3354 -12.2139 L 10.3586 -12.1942 L 10.3819 -12.1744 L 10.4051 -12.1546 L 10.4282 -12.1347 L 10.4513 -12.1148 L 10.4744 -12.0949 L 10.4975 -12.0749 L 10.5205 -12.0548 L 10.5435 -12.0348 L 10.5664 -12.0146 L 10.5893 -11.9945 L 10.6121 -11.9742 L 10.635 -11.954 L 10.6577 -11.9337 L 10.6805 -11.9133 L 10.7032 -11.8929 L 10.7258 -11.8725 L 10.7485 -11.852 L 10.7711 -11.8315 L 10.7936 -11.8109 L 10.8161 -11.7903 L 10.8386 -11.7697 L 10.861 -11.749 L 10.8834 -11.7283 L 10.9057 -11.7075 L 10.928 -11.6867 L 10.9503 -11.6658 L 10.9725 -11.6449 L 10.9947 -11.6239 L 11.0169 -11.6029 L 11.039 -11.5819 L 11.0611 -11.5608 L 11.0598 -11.5198 L 11.0585 -11.4787 L 11.0572 -11.4375 L 11.0559 -11.3963 L 11.0545 -11.3551 L 11.0531 -11.3139 L 11.0517 -11.2726 L 11.0502 -11.2313 L 11.0487 -11.1899 L 11.0471 -11.1485 L 11.0455 -11.1071 L 11.0439 -11.0656 L 11.0423 -11.0241 L 11.0406 -10.9826 L 11.0389 -10.941 L 11.0371 -10.8994 L 11.0353 -10.8578 L 11.0335 -10.8161 L 11.0316 -10.7744 L 11.0297 -10.7326 L 11.0277 -10.6908 L 11.0257 -10.649 L 11.0237 -10.6072 L 11.0216 -10.5653 L 11.0195 -10.5233 L 11.0174 -10.4813 L 11.0152 -10.4393 L 11.013 -10.3973 L 11.0107 -10.3552 L 11.0084 -10.313 L 11.0061 -10.2709 L 11.0037 -10.2287 L 11.0012 -10.1864 L 10.9988 -10.1441 L 10.9962 -10.1018 L 10.9937 -10.0595 L 10.9911 -10.017 L 10.9884 -9.97461 L 10.9858 -9.93212 L 10.983 -9.8896 L 10.9802 -9.84704 L 10.9774 -9.80444 L 10.9746 -9.76179 L 10.9716 -9.71911 L 10.9687 -9.67639 L 10.9657 -9.63362 L 10.9626 -9.59081 L 10.9595 -9.54797 L 10.9564 -9.50508 L 10.9532 -9.46215 L 10.9499 -9.41917 L 10.9466 -9.37616 L 10.9433 -9.3331 L 10.9399 -9.29 L 10.9365 -9.24686 L 10.933 -9.20368 L 10.9294 -9.16045 L 10.9258 -9.11718 L 10.9222 -9.07387 L 10.9185 -9.03051 L 10.9148 -8.98712 L 10.911 -8.94367 L 10.9071 -8.90019 L 10.9032 -8.85666 L 10.8992 -8.81308 L 10.8952 -8.76947 L 10.8911 -8.7258 L 10.887 -8.6821 L 10.887 -8.6821 L 10.9305 -8.67639 L 10.974 -8.67065 L 11.0174 -8.66486 L 11.0608 -8.65903 L 11.1041 -8.65315 L 11.1474 -8.64724 L 11.1906 -8.64128 L 11.2337 -8.63527 L 11.2768 -8.62923 L 11.3198 -8.62315 L 11.3628 -8.61702 L 11.4057 -8.61086 L 11.4486 -8.60465 L 11.4914 -8.5984 L 11.5342 -8.59212 L 11.5769 -8.5858 L 11.6196 -8.57944 L 11.6622 -8.57304 L 11.7048 -8.5666 L 11.7473 -8.56012 L 11.7898 -8.55361 L 11.8322 -8.54706 L 11.8745 -8.54048 L 11.9169 -8.53385 L 11.9591 -8.5272 L 12.0013 -8.5205 L 12.0435 -8.51377 L 12.0856 -8.50701 L 12.1277 -8.50021 L 12.1697 -8.49338 L 12.2116 -8.48652 L 12.2536 -8.47962 L 12.2954 -8.47269 L 12.3373 -8.46572 L 12.379 -8.45872 L 12.4208 -8.45169 L 12.4624 -8.44463 L 12.5041 -8.43753 L 12.5457 -8.43041 L 12.5872 -8.42325 L 12.6287 -8.41606 L 12.6701 -8.40884 L 12.7115 -8.40159 L 12.7529 -8.39431 L 12.7942 -8.387 L 12.8355 -8.37967 L 12.8767 -8.3723 L 12.9179 -8.3649 L 12.959 -8.35747 L 13.0001 -8.35002 L 13.0411 -8.34253 L 13.0821 -8.33502 L 13.1231 -8.32748 L 13.164 -8.31991 L 13.2049 -8.31232 L 13.2457 -8.3047 L 13.2865 -8.29705 L 13.3272 -8.28937 L 13.3679 -8.28167 L 13.4086 -8.27394 L 13.4492 -8.26619 L 13.4897 -8.25841 L 13.5303 -8.25061 L 13.5708 -8.24278 L 13.6112 -8.23492 L 13.6516 -8.22704 L 13.692 -8.21913 L 13.7323 -8.2112 L 13.7479 -8.185 L 13.7635 -8.15876 L 13.7791 -8.1325 L 13.7945 -8.10621 L 13.81 -8.07988 L 13.8254 -8.05353 L 13.8407 -8.02715 L 13.856 -8.00074 L 13.8712 -7.9743 L 13.8864 -7.94783 L 13.9015 -7.92133 L 13.9166 -7.8948 L 13.9316 -7.86825 L 13.9466 -7.84166 L 13.9616 -7.81505 L 13.9764 -7.78841 L 13.9913 -7.76174 L 14.006 -7.73504 L 14.0208 -7.70832 L 14.0354 -7.68156 L 14.0501 -7.65478 L 14.0646 -7.62797 L 14.0792 -7.60113 L 14.0936 -7.57427 L 14.1081 -7.54737 L 14.1224 -7.52045 L 14.1367 -7.49351 L 14.151 -7.46653 L 14.1652 -7.43953 L 14.1794 -7.4125 L 14.1935 -7.38545 L 14.2076 -7.35836 L 14.2216 -7.33125 L 14.2355 -7.30412 L 14.2494 -7.27695 L 14.2633 -7.24976 L 14.2771 -7.22255 L 14.2908 -7.19531 L 14.3045 -7.16804 L 14.3182 -7.14075 L 14.3318 -7.11342 L 14.3453 -7.08608 L 14.3588 -7.05871 L 14.3722 -7.03131 L 14.3856 -7.00389 L 14.3989 -6.97644 L 14.432 -6.9078 L 14.4451 -6.88027 L 14.4582 -6.8527 L 14.4713 -6.82512 L 14.4843 -6.79751 L 14.4972 -6.76987 L 14.5101 -6.74221 L 14.5229 -6.71452 L 14.5357 -6.68681 L 14.5484 -6.65908 L 14.5611 -6.63132 L 14.5737 -6.60354 L 14.5863 -6.57573 L 14.5988 -6.5479 L 14.6113 -6.52005 L 14.6237 -6.49217 L 14.636 -6.46427 L 14.6483 -6.43634 L 14.6606 -6.40839 L 14.6728 -6.38042 L 14.6849 -6.35243 L 14.697 -6.32441 L 14.709 -6.29637 L 14.721 -6.2683 L 14.7329 -6.24022 L 14.7448 -6.21211 L 14.7566 -6.18397 L 14.7684 -6.15582 L 14.7801 -6.12764 L 14.7918 -6.09944 L 14.8034 -6.07122 L 14.8149 -6.04298 L 14.8264 -6.01471 L 14.8379 -5.98643 L 14.8493 -5.95812 L 14.8606 -5.92979 L 14.8719 -5.90143 L 14.8831 -5.87306 L 14.8943 -5.84466 L 14.9054 -5.81625 L 14.9165 -5.78781 L 14.9275 -5.75935 L 14.9384 -5.73087 L 14.9493 -5.70237 L 14.9602 -5.67385 L 14.971 -5.64531 L 14.9817 -5.61674 L 14.9628 -5.58027 L 14.9438 -5.54379 L 14.9248 -5.50729 L 14.9057 -5.47077 L 14.8866 -5.43423 L 14.8674 -5.39768 L 14.8482 -5.36111 L 14.8289 -5.32452 L 14.8096 -5.28792 L 14.7903 -5.2513 L 14.7709 -5.21466 L 14.7514 -5.17801 L 14.7319 -5.14134 L 14.7124 -5.10465 L 14.6928 -5.06794 L 14.6732 -5.03122 L 14.6535 -4.99449 L 14.6337 -4.95773 L 14.6139 -4.92096 L 14.5941 -4.88417 L 14.5742 -4.84737 L 14.5543 -4.81055 L 14.5343 -4.77371 L 14.5142 -4.73685 L 14.4942 -4.69998 L 14.474 -4.66309 L 14.4538 -4.62618 L 14.4336 -4.58926 L 14.4133 -4.55232 L 14.3929 -4.51536 L 14.3725 -4.47839 L 14.352 -4.4414 L 14.3315 -4.40439 L 14.3109 -4.36737 L 14.2903 -4.33033 L 14.2696 -4.29327 L 14.2489 -4.25619 L 14.2281 -4.2191 L 14.2072 -4.18199 L 14.1863 -4.14487 L 14.1653 -4.10773 L 14.1443 -4.07057 L 14.1232 -4.03339 L 14.1021 -3.9962 L 14.0809 -3.95899 L 14.0596 -3.92176 L 14.0383 -3.88452 L 14.0169 -3.84726 L 13.9955 -3.80998 L 13.9739 -3.77269 L 13.9524 -3.73538 L 13.9307 -3.69806 L 13.9091 -3.66071 L 13.8873 -3.62335 L 13.8655 -3.58598 L 13.8436 -3.54859 L 13.8217 -3.51118 L 13.7996 -3.47375 L 13.7776 -3.43631 L 13.7554 -3.39885 L 13.7332 -3.36138 L 13.7109 -3.32389 L 13.6886 -3.28638 L 13.6662 -3.24886 L 13.6437 -3.21132 L 13.6212 -3.17376 L 13.5986 -3.13619 L 13.5759 -3.0986 L 13.5759 -3.0986 L 13.6126 -3.07458 L 13.6493 -3.05054 L 13.6859 -3.02649 L 13.7224 -3.00242 L 13.7589 -2.97833 L 13.7953 -2.95424 L 13.8316 -2.93012 L 13.8679 -2.90599 L 13.9041 -2.88185 L 13.9403 -2.8577 L 13.9763 -2.83353 L 14.0123 -2.80935 L 14.0483 -2.78515 L 14.0841 -2.76094 L 14.12 -2.73672 L 14.1557 -2.71249 L 14.1914 -2.68825 L 14.227 -2.66399 L 14.2626 -2.63972 L 14.2981 -2.61544 L 14.3335 -2.59115 L 14.3689 -2.56685 L 14.4042 -2.54253 L 14.4394 -2.51821 L 14.4746 -2.49387 L 14.5097 -2.46953 L 14.5448 -2.44517 L 14.5798 -2.42081 L 14.6148 -2.39643 L 14.6496 -2.37205 L 14.6845 -2.34765 L 14.7193 -2.32325 L 14.754 -2.29884 L 14.7886 -2.27441 L 14.8232 -2.24998 L 14.8578 -2.22554 L 14.8923 -2.2011 L 14.9267 -2.17664 L 14.9611 -2.15218 L 14.9954 -2.1277 L 15.0297 -2.10322 L 15.0639 -2.07874 L 15.098 -2.05424 L 15.1321 -2.02974 L 15.1662 -2.00523 L 15.2002 -1.98071 L 15.2341 -1.95619 L 15.268 -1.93166 L 15.3018 -1.90712 L 15.3356 -1.88258 L 15.3693 -1.85803 L 15.403 -1.83347 L 15.4367 -1.80891 L 15.4702 -1.78434 L 15.5038 -1.75976 L 15.5372 -1.73518 L 15.5707 -1.7106 L 15.604 -1.68601 L 15.6374 -1.66141 L 15.6706 -1.63681 L 15.7039 -1.6122 L 15.737 -1.58759 L 15.7702 -1.56297 L 15.8032 -1.53835 L 15.8363 -1.51372 L 15.8693 -1.48909 L 15.9022 -1.46446 L 15.9351 -1.43982 L 15.9378 -1.40942 L 15.9405 -1.37902 L 15.9431 -1.34862 L 15.9456 -1.31821 L 15.9481 -1.2878 L 15.9505 -1.25738 L 15.9529 -1.22696 L 15.9552 -1.19653 L 15.9575 -1.1661 L 15.9596 -1.13566 L 15.9618 -1.10522 L 15.9639 -1.07478 L 15.9659 -1.04433 L 15.9678 -1.01388 L 15.9697 -0.983426 L 15.9716 -0.952967 L 15.9734 -0.922505 L 15.9751 -0.892039 L 15.9768 -0.86157 L 15.9784 -0.831098 L 15.98 -0.800623 L 15.9815 -0.770145 L 15.9829 -0.739665 L 15.9843 -0.709181 L 15.9856 -0.678695 L 15.9869 -0.648207 L 15.9881 -0.617716 L 15.9892 -0.587223 L 15.9903 -0.556728 L 15.9913 -0.526231 L 15.9923 -0.495731 L 15.9932 -0.46523 L 15.9941 -0.434728 L 15.9949 -0.404224 L 15.9956 -0.373718 L 15.9963 -0.343211 L 15.9969 -0.312703 L 15.9975 -0.282193 L 15.998 -0.251683 L 15.9985 -0.221171 L 15.9989 -0.190659 L 15.9992 -0.160146 L 15.9995 -0.129633 L 15.9997 -0.0991189 L 15.9999 -0.0686047 L 16 -0.0380901Z"
id="path1" />
</g>
</svg>
