<?xml version="1.0" encoding="UTF-8" standalone="no"?>
<svg version="1.1">
<g
style="fill:none;stroke:#000000;stroke-opacity:1;stroke-width:0.1">
<path d="M 16.2499 0.0453664 L 16.2498 0.0750091 L 16.2497 0.104651 L 16.2494 0.134294 L 16.2492 0.163935 L 16.2488 0.193576 L 16.2485 0.223217 L 16.248 0.252856 L 16.2475 0.282495 L 16.247 0.312133 L 16.2464 0.34177 L 16.2458 0.371406 L 16.2451 0.40104 L 16.2443 0.430673 L 16.2435 0.460305 L 16.2426 0.489935 L 16.2417 0.519564 L 16.2407 0.54919 L 16.2397 0.578815 L 16.2386 0.608439 L 16.2375 0.63806 L 16.2363 0.667678 L 16.235 0.697295 L 16.2337 0.72691 L 16.2324 0.756522 L 16.231 0.786131 L 16.2295 0.815738 L 16.228 0.845342 L 16.2264 0.874943 L 16.2248 0.904542 L 16.2231 0.934137 L 16.2214 0.963729 L 16.2196 0.993318 L 16.2178 1.0229 L 16.2159 1.05249 L 16.2139 1.08207 L 16.2119 1.11164 L 16.2099 1.14121 L 16.2078 1.17078 L 16.2056 1.20034 L 16.2034 1.2299 L 16.2011 1.25946 L 16.1988 1.28901 L 16.1964 1.31856 L 16.194 1.3481 L 16.1915 1.37764 L 16.189 1.40717 L 16.1864 1.4367 L 16.1837 1.46623 L 16.181 1.49575 L 16.149 1.51968 L 16.117 1.5436 L 16.0849 1.56753 L 16.0527 1.59144 L 16.0206 1.61536 L 15.9883 1.63927 L 15.9561 1.66317 L 15.9237 1.68707 L 15.8914 1.71097 L 15.859 1.73486 L 15.8265 1.75874 L 15.794 1.78262 L 15.7615 1.8065 L 15.7289 1.83037 L 15.6962 1.85423 L 15.6635 1.87809 L 15.6308 1.90194 L 15.598 1.92578 L 15.5652 1.94963 L 15.5323 1.97346 L 15.4993 1.99729 L 15.4664 2.02111 L 15.4333 2.04492 L 15.4002 2.06873 L 15.3671 2.09253 L 15.3339 2.11633 L 15.3007 2.14012 L 15.2674 2.1639 L 15.2341 2.18767 L 15.2007 2.21144 L 15.1673 2.2352 L 15.1338 2.25895 L 15.1002 2.28269 L 15.0666 2.30643 L 15.033 2.33016 L 14.9993 2.35387 L 14.9655 2.37758 L 14.9317 2.40129 L 14.8979 2.42498 L 14.8639 2.44867 L 14.83 2.47234 L 14.7959 2.49601 L 14.7619 2.51966 L 14.7277 2.54331 L 14.6935 2.56695 L 14.6593 2.59058 L 14.625 2.6142 L 14.5906 2.6378 L 14.5562 2.6614 L 14.5217 2.68499 L 14.4872 2.70857 L 14.4526 2.73213 L 14.4179 2.75569 L 14.3832 2.77923 L 14.3485 2.80276 L 14.3136 2.82628 L 14.2787 2.84979 L 14.2438 2.87329 L 14.2088 2.89677 L 14.1737 2.92024 L 14.1386 2.9437 L 14.1034 2.96715 L 14.0681 2.99058 L 14.0328 3.014 L 13.9975 3.03741 L 13.962 3.0608 L 13.9265 3.08418 L 13.8909 3.10755 L 13.8553 3.1309 L 13.8196 3.15423 L 13.8196 3.15423 L 13.8416 3.19075 L 13.8636 3.22725 L 13.8855 3.26373 L 13.9074 3.3002 L 13.9291 3.33665 L 13.9509 3.37309 L 13.9725 3.40952 L 13.9941 3.44593 L 14.0157 3.48232 L 14.0371 3.5187 L 14.0585 3.55506 L 14.0799 3.59141 L 14.1012 3.62774 L 14.1224 3.66406 L 14.1436 3.70037 L 14.1647 3.73665 L 14.1858 3.77292 L 14.2068 3.80918 L 14.2277 3.84542 L 14.2486 3.88165 L 14.2694 3.91786 L 14.2902 3.95405 L 14.3109 3.99023 L 14.3316 4.0264 L 14.3522 4.06254 L 14.3727 4.09868 L 14.3932 4.13479 L 14.4137 4.17089 L 14.434 4.20698 L 14.4544 4.24305 L 14.4747 4.27911 L 14.4949 4.31515 L 14.5151 4.35117 L 14.5352 4.38718 L 14.5553 4.42317 L 14.5753 4.45915 L 14.5953 4.49511 L 14.6152 4.53105 L 14.635 4.56698 L 14.6549 4.6029 L 14.6746 4.63879 L 14.6943 4.67468 L 14.714 4.71054 L 14.7336 4.7464 L 14.7532 4.78223 L 14.7727 4.81805 L 14.7922 4.85386 L 14.8116 4.88965 L 14.831 4.92542 L 14.8503 4.96118 L 14.8696 4.99692 L 14.8889 5.03264 L 14.9081 5.06836 L 14.9272 5.10405 L 14.9463 5.13973 L 14.9654 5.17539 L 14.9844 5.21104 L 15.0034 5.24668 L 15.0223 5.28229 L 15.0412 5.31789 L 15.06 5.35348 L 15.0788 5.38905 L 15.0975 5.42461 L 15.1162 5.46015 L 15.1349 5.49567 L 15.1535 5.53118 L 15.1721 5.56667 L 15.1906 5.60215 L 15.2091 5.63761 L 15.2276 5.67306 L 15.2172 5.70083 L 15.2068 5.72858 L 15.1963 5.75631 L 15.1858 5.78402 L 15.1752 5.81171 L 15.1646 5.83938 L 15.1539 5.86703 L 15.1432 5.89467 L 15.1324 5.92228 L 15.1216 5.94988 L 15.1107 5.97745 L 15.0997 6.00501 L 15.0888 6.03254 L 15.0777 6.06005 L 15.0667 6.08755 L 15.0555 6.11502 L 15.0444 6.14248 L 15.0331 6.16991 L 15.0218 6.19732 L 15.0105 6.22472 L 14.9991 6.25209 L 14.9877 6.27944 L 14.9762 6.30677 L 14.9647 6.33408 L 14.9531 6.36136 L 14.9415 6.38863 L 14.9298 6.41588 L 14.9181 6.4431 L 14.9063 6.4703 L 14.8945 6.49748 L 14.8826 6.52464 L 14.8707 6.55178 L 14.8587 6.5789 L 14.8467 6.60599 L 14.8346 6.63306 L 14.8225 6.66011 L 14.8103 6.68714 L 14.7981 6.71414 L 14.7858 6.74113 L 14.7735 6.76809 L 14.7611 6.79503 L 14.7487 6.82194 L 14.7362 6.84883 L 14.7237 6.8757 L 14.7111 6.90255 L 14.6985 6.92938 L 14.6858 6.95618 L 14.6731 6.98295 L 14.6604 7.00971 L 14.621 7.09146 L 14.608 7.11812 L 14.595 7.14475 L 14.582 7.17136 L 14.5689 7.19795 L 14.5557 7.22452 L 14.5425 7.25106 L 14.5293 7.27757 L 14.516 7.30406 L 14.5026 7.33053 L 14.4892 7.35698 L 14.4758 7.38339 L 14.4623 7.40979 L 14.4487 7.43616 L 14.4352 7.4625 L 14.4215 7.48882 L 14.4078 7.51512 L 14.3941 7.54139 L 14.3803 7.56763 L 14.3665 7.59385 L 14.3526 7.62005 L 14.3387 7.64621 L 14.3247 7.67236 L 14.3107 7.69848 L 14.2966 7.72457 L 14.2825 7.75063 L 14.2684 7.77668 L 14.2541 7.80269 L 14.2399 7.82868 L 14.2256 7.85464 L 14.2112 7.88058 L 14.1968 7.90649 L 14.1824 7.93237 L 14.1679 7.95823 L 14.1533 7.98406 L 14.1388 8.00987 L 14.1241 8.03565 L 14.1094 8.0614 L 14.0947 8.08712 L 14.0799 8.11282 L 14.0651 8.13849 L 14.0502 8.16414 L 14.0353 8.18975 L 14.0204 8.21534 L 14.0054 8.2409 L 13.9903 8.26644 L 13.9752 8.29194 L 13.96 8.31742 L 13.9449 8.34288 L 13.9296 8.3683 L 13.8904 8.37598 L 13.8511 8.38363 L 13.8118 8.39126 L 13.7725 8.39886 L 13.7331 8.40645 L 13.6937 8.414 L 13.6543 8.42154 L 13.6148 8.42905 L 13.5753 8.43654 L 13.5357 8.444 L 13.4961 8.45144 L 13.4565 8.45885 L 13.4168 8.46624 L 13.377 8.4736 L 13.3373 8.48093 L 13.2975 8.48825 L 13.2576 8.49553 L 13.2177 8.50279 L 13.1778 8.51002 L 13.1378 8.51723 L 13.0978 8.52441 L 13.0578 8.53156 L 13.0177 8.53868 L 12.9776 8.54578 L 12.9374 8.55285 L 12.8972 8.55989 L 12.8569 8.5669 L 12.8166 8.57389 L 12.7762 8.58084 L 12.7358 8.58777 L 12.6954 8.59467 L 12.6549 8.60154 L 12.6144 8.60838 L 12.5738 8.61519 L 12.5332 8.62196 L 12.4926 8.62871 L 12.4519 8.63543 L 12.4111 8.64212 L 12.3703 8.64877 L 12.3295 8.65539 L 12.2886 8.66199 L 12.2477 8.66854 L 12.2067 8.67507 L 12.1657 8.68157 L 12.1247 8.68803 L 12.0836 8.69446 L 12.0424 8.70085 L 12.0012 8.70721 L 11.9599 8.71354 L 11.9186 8.71983 L 11.8773 8.72609 L 11.8359 8.73231 L 11.7945 8.7385 L 11.753 8.74465 L 11.7114 8.75077 L 11.6699 8.75685 L 11.6282 8.76289 L 11.5865 8.7689 L 11.5448 8.77486 L 11.503 8.7808 L 11.4612 8.78669 L 11.4193 8.79254 L 11.3774 8.79836 L 11.3354 8.80414 L 11.2934 8.80988 L 11.2513 8.81558 L 11.2092 8.82124 L 11.167 8.82685 L 11.1247 8.83243 L 11.0825 8.83797 L 11.0825 8.83797 L 11.0865 8.88043 L 11.0904 8.92285 L 11.0943 8.96522 L 11.0982 9.00756 L 11.102 9.04985 L 11.1058 9.09211 L 11.1095 9.13432 L 11.1131 9.17649 L 11.1167 9.21863 L 11.1203 9.26072 L 11.1238 9.30277 L 11.1273 9.34479 L 11.1307 9.38676 L 11.1341 9.42869 L 11.1374 9.47059 L 11.1407 9.51244 L 11.1439 9.55426 L 11.1471 9.59604 L 11.1503 9.63778 L 11.1534 9.67948 L 11.1564 9.72114 L 11.1594 9.76276 L 11.1624 9.80435 L 11.1653 9.84589 L 11.1682 9.8874 L 11.171 9.92887 L 11.1738 9.9703 L 11.1766 10.0117 L 11.1793 10.0531 L 11.182 10.0944 L 11.1846 10.1357 L 11.1872 10.1769 L 11.1897 10.2181 L 11.1922 10.2593 L 11.1947 10.3004 L 11.1971 10.3415 L 11.1995 10.3826 L 11.2019 10.4236 L 11.2042 10.4646 L 11.2065 10.5056 L 11.2087 10.5465 L 11.2109 10.5874 L 11.213 10.6282 L 11.2152 10.669 L 11.2172 10.7098 L 11.2193 10.7506 L 11.2213 10.7913 L 11.2233 10.8319 L 11.2252 10.8726 L 11.2271 10.9132 L 11.229 10.9538 L 11.2308 10.9943 L 11.2326 11.0348 L 11.2344 11.0753 L 11.2361 11.1157 L 11.2378 11.1561 L 11.2395 11.1965 L 11.2411 11.2368 L 11.2427 11.2771 L 11.2443 11.3174 L 11.2458 11.3576 L 11.2473 11.3978 L 11.2488 11.438 L 11.2502 11.4781 L 11.2516 11.5182 L 11.253 11.5583 L 11.2543 11.5983 L 11.2556 11.6383 L 11.2569 11.6783 L 11.2581 11.7182 L 11.2367 11.7388 L 11.2153 11.7592 L 11.1938 11.7797 L 11.1723 11.8001 L 11.1508 11.8204 L 11.1292 11.8408 L 11.1076 11.861 L 11.0859 11.8813 L 11.0642 11.9015 L 11.0425 11.9217 L 11.0207 11.9418 L 10.9989 11.9619 L 10.9771 11.9819 L 10.9552 12.0019 L 10.9333 12.0219 L 10.9114 12.0418 L 10.8894 12.0617 L 10.8673 12.0815 L 10.8453 12.1013 L 10.8232 12.1211 L 10.8011 12.1408 L 10.7789 12.1605 L 10.7567 12.1801 L 10.7345 12.1997 L 10.7122 12.2193 L 10.6899 12.2388 L 10.6675 12.2583 L 10.6452 12.2777 L 10.6228 12.2971 L 10.6003 12.3165 L 10.5778 12.3358 L 10.5553 12.3551 L 10.5327 12.3743 L 10.5101 12.3935 L 10.4875 12.4127 L 10.4649 12.4318 L 10.4422 12.4508 L 10.4194 12.4699 L 10.3967 12.4889 L 10.3739 12.5078 L 10.351 12.5267 L 10.3282 12.5456 L 10.3053 12.5644 L 10.2823 12.5832 L 10.2594 12.6019 L 10.2364 12.6206 L 10.2133 12.6392 L 10.1902 12.6579 L 10.1671 12.6764 L 10.0962 12.733 L 10.073 12.7514 L 10.0497 12.7697 L 10.0264 12.7881 L 10.003 12.8063 L 9.97965 12.8246 L 9.95624 12.8427 L 9.93279 12.8609 L 9.90931 12.879 L 9.8858 12.897 L 9.86226 12.915 L 9.83869 12.933 L 9.81508 12.9509 L 9.79144 12.9688 L 9.76776 12.9867 L 9.74406 13.0045 L 9.72032 13.0222 L 9.69655 13.0399 L 9.67274 13.0576 L 9.64891 13.0752 L 9.62504 13.0928 L 9.60114 13.1103 L 9.57721 13.1278 L 9.55325 13.1453 L 9.52925 13.1627 L 9.50522 13.18 L 9.48117 13.1973 L 9.45708 13.2146 L 9.43295 13.2319 L 9.4088 13.249 L 9.38462 13.2662 L 9.3604 13.2833 L 9.33616 13.3003 L 9.31188 13.3173 L 9.28757 13.3343 L 9.26323 13.3512 L 9.23886 13.3681 L 9.21446 13.3849 L 9.19003 13.4017 L 9.16556 13.4185 L 9.14107 13.4352 L 9.11655 13.4518 L 9.09199 13.4684 L 9.06741 13.485 L 9.0428 13.5015 L 9.01815 13.518 L 8.99348 13.5344 L 8.96877 13.5508 L 8.94404 13.5671 L 8.91928 13.5834 L 8.88061 13.5733 L 8.84192 13.5632 L 8.80321 13.553 L 8.76447 13.5428 L 8.72571 13.5325 L 8.68693 13.5222 L 8.64812 13.5119 L 8.60928 13.5016 L 8.57042 13.4911 L 8.53154 13.4807 L 8.49263 13.4702 L 8.45369 13.4597 L 8.41473 13.4491 L 8.37575 13.4385 L 8.33674 13.4279 L 8.2977 13.4172 L 8.25864 13.4065 L 8.21955 13.3957 L 8.18044 13.3849 L 8.1413 13.3741 L 8.10214 13.3632 L 8.06295 13.3522 L 8.02374 13.3413 L 7.9845 13.3302 L 7.94523 13.3192 L 7.90594 13.3081 L 7.86662 13.2969 L 7.82727 13.2857 L 7.7879 13.2745 L 7.7485 13.2632 L 7.70908 13.2519 L 7.66963 13.2405 L 7.63015 13.2291 L 7.59065 13.2176 L 7.55112 13.2061 L 7.51157 13.1945 L 7.47198 13.1829 L 7.43237 13.1713 L 7.39274 13.1596 L 7.35307 13.1478 L 7.31338 13.136 L 7.27366 13.1242 L 7.23392 13.1123 L 7.19415 13.1003 L 7.15435 13.0883 L 7.11452 13.0763 L 7.07467 13.0642 L 7.03478 13.052 L 6.99487 13.0399 L 6.95494 13.0276 L 6.91497 13.0153 L 6.87498 13.003 L 6.83496 12.9905 L 6.79491 12.9781 L 6.75484 12.9656 L 6.71473 12.953 L 6.6746 12.9404 L 6.63444 12.9277 L 6.59425 12.915 L 6.55403 12.9022 L 6.51379 12.8894 L 6.47352 12.8765 L 6.43321 12.8635 L 6.39288 12.8505 L 6.35252 12.8374 L 6.31214 12.8243 L 6.27172 12.8111 L 6.23128 12.7979 L 6.1908 12.7846 L 6.1503 12.7712 L 6.1503 12.7712 L 6.13549 12.8112 L 6.12066 12.8512 L 6.10579 12.891 L 6.0909 12.9309 L 6.07598 12.9706 L 6.06103 13.0103 L 6.04606 13.05 L 6.03106 13.0895 L 6.01603 13.1291 L 6.00098 13.1685 L 5.9859 13.208 L 5.97079 13.2473 L 5.95566 13.2866 L 5.94051 13.3259 L 5.92532 13.365 L 5.91012 13.4042 L 5.89489 13.4433 L 5.87964 13.4823 L 5.86436 13.5213 L 5.84906 13.5602 L 5.83373 13.599 L 5.81839 13.6378 L 5.80302 13.6766 L 5.78763 13.7153 L 5.77221 13.7539 L 5.75677 13.7925 L 5.74131 13.8311 L 5.72583 13.8696 L 5.71033 13.908 L 5.69481 13.9464 L 5.67927 13.9847 L 5.6637 14.023 L 5.64812 14.0612 L 5.63251 14.0994 L 5.61689 14.1376 L 5.60124 14.1756 L 5.58558 14.2137 L 5.56989 14.2517 L 5.55419 14.2896 L 5.53847 14.3275 L 5.52272 14.3653 L 5.50696 14.4031 L 5.49119 14.4409 L 5.47539 14.4785 L 5.45958 14.5162 L 5.44374 14.5538 L 5.42789 14.5913 L 5.41202 14.6288 L 5.39614 14.6663 L 5.38024 14.7037 L 5.36432 14.7411 L 5.34838 14.7784 L 5.33243 14.8157 L 5.31646 14.8529 L 5.30048 14.8901 L 5.28447 14.9272 L 5.26846 14.9643 L 5.25242 15.0013 L 5.23638 15.0383 L 5.22031 15.0753 L 5.20423 15.1122 L 5.18814 15.1491 L 5.17203 15.1859 L 5.15591 15.2227 L 5.13977 15.2594 L 5.12361 15.2961 L 5.10745 15.3328 L 5.09126 15.3694 L 5.07507 15.406 L 5.05886 15.4425 L 5.03068 15.4517 L 5.00249 15.4608 L 4.97427 15.4699 L 4.94605 15.479 L 4.9178 15.488 L 4.88954 15.4969 L 4.86126 15.5058 L 4.83297 15.5147 L 4.80466 15.5235 L 4.77634 15.5322 L 4.74799 15.5409 L 4.71964 15.5495 L 4.69126 15.5581 L 4.66288 15.5666 L 4.63447 15.5751 L 4.60605 15.5835 L 4.57762 15.5919 L 4.54917 15.6002 L 4.5207 15.6085 L 4.49222 15.6167 L 4.46373 15.6249 L 4.43522 15.633 L 4.40669 15.6411 L 4.37815 15.6491 L 4.3496 15.6571 L 4.32103 15.665 L 4.29245 15.6728 L 4.26385 15.6806 L 4.23524 15.6884 L 4.20661 15.6961 L 4.17797 15.7037 L 4.14932 15.7113 L 4.12065 15.7189 L 4.09197 15.7264 L 4.06328 15.7338 L 4.03457 15.7412 L 4.00585 15.7485 L 3.97711 15.7558 L 3.94837 15.763 L 3.91961 15.7702 L 3.89083 15.7773 L 3.86204 15.7844 L 3.83324 15.7914 L 3.80443 15.7984 L 3.77561 15.8053 L 3.74677 15.8122 L 3.71792 15.819 L 3.68906 15.8257 L 3.66018 15.8324 L 3.57172 15.8526 L 3.5428 15.8591 L 3.51386 15.8655 L 3.48492 15.8719 L 3.45596 15.8783 L 3.42699 15.8845 L 3.398 15.8908 L 3.36901 15.8969 L 3.34001 15.903 L 3.31099 15.9091 L 3.28196 15.9151 L 3.25293 15.9211 L 3.22388 15.927 L 3.19482 15.9328 L 3.16575 15.9386 L 3.13667 15.9444 L 3.10758 15.9501 L 3.07848 15.9557 L 3.04937 15.9613 L 3.02025 15.9669 L 2.99111 15.9723 L 2.96197 15.9778 L 2.93282 15.9831 L 2.90366 15.9885 L 2.87449 15.9937 L 2.84531 15.999 L 2.81612 16.0041 L 2.78692 16.0092 L 2.75771 16.0143 L 2.7285 16.0193 L 2.69927 16.0242 L 2.67003 16.0291 L 2.64079 16.034 L 2.61154 16.0388 L 2.58227 16.0435 L 2.553 16.0482 L 2.52373 16.0528 L 2.49444 16.0574 L 2.46514 16.0619 L 2.43584 16.0664 L 2.40653 16.0708 L 2.37721 16.0752 L 2.34788 16.0795 L 2.31854 16.0837 L 2.2892 16.0879 L 2.25985 16.0921 L 2.23049 16.0962 L 2.20112 16.1002 L 2.17175 16.1042 L 2.14237 16.1082 L 2.11192 16.0823 L 2.08146 16.0564 L 2.051 16.0304 L 2.02053 16.0044 L 1.99005 15.9783 L 1.95957 15.9522 L 1.92908 15.9261 L 1.89859 15.8999 L 1.86809 15.8737 L 1.83759 15.8474 L 1.80708 15.8211 L 1.77657 15.7947 L 1.74605 15.7683 L 1.71553 15.7418 L 1.685 15.7153 L 1.65446 15.6887 L 1.62392 15.6621 L 1.59338 15.6354 L 1.56283 15.6087 L 1.53228 15.582 L 1.50172 15.5552 L 1.47115 15.5283 L 1.44058 15.5014 L 1.41001 15.4745 L 1.37943 15.4475 L 1.34885 15.4204 L 1.31826 15.3933 L 1.28767 15.3661 L 1.25708 15.3389 L 1.22648 15.3117 L 1.19588 15.2844 L 1.16527 15.257 L 1.13466 15.2296 L 1.10404 15.2021 L 1.07342 15.1746 L 1.0428 15.147 L 1.01217 15.1194 L 0.981538 15.0917 L 0.950904 15.0639 L 0.920266 15.0362 L 0.889625 15.0083 L 0.85898 14.9804 L 0.828332 14.9524 L 0.797682 14.9244 L 0.767028 14.8963 L 0.736371 14.8682 L 0.705711 14.84 L 0.675049 14.8118 L 0.644384 14.7835 L 0.613716 14.7551 L 0.583046 14.7267 L 0.552374 14.6982 L 0.521699 14.6697 L 0.491022 14.6411 L 0.460344 14.6124 L 0.429663 14.5837 L 0.39898 14.5549 L 0.368296 14.526 L 0.337611 14.4971 L 0.306923 14.4682 L 0.276235 14.4391 L 0.245545 14.4101 L 0.214855 14.3809 L 0.184163 14.3517 L 0.15347 14.3224 L 0.122777 14.293 L 0.0920833 14.2636 L 0.0613891 14.2342 L 0.0306946 14.2046 L 1.33227e-15 14.175 L 4.03669e-16 14.175 L -0.0306946 14.2046 L -0.0613891 14.2342 L -0.0920833 14.2636 L -0.122777 14.293 L -0.15347 14.3224 L -0.184163 14.3517 L -0.214855 14.3809 L -0.245545 14.4101 L -0.276235 14.4391 L -0.306923 14.4682 L -0.337611 14.4971 L -0.368296 14.526 L -0.39898 14.5549 L -0.429663 14.5837 L -0.460344 14.6124 L -0.491022 14.6411 L -0.521699 14.6697 L -0.552374 14.6982 L -0.583046 14.7267 L -0.613716 14.7551 L -0.644384 14.7835 L -0.675049 14.8118 L -0.705711 14.84 L -0.736371 14.8682 L -0.767028 14.8963 L -0.797682 14.9244 L -0.828332 14.9524 L -0.85898 14.9804 L -0.889625 15.0083 L -0.920266 15.0362 L -0.950904 15.0639 L -0.981538 15.0917 L -1.01217 15.1194 L -1.0428 15.147 L -1.07342 15.1746 L -1.10404 15.2021 L -1.13466 15.2296 L -1.16527 15.257 L -1.19588 15.2844 L -1.22648 15.3117 L -1.25708 15.3389 L -1.28767 15.3661 L -1.31826 15.3933 L -1.34885 15.4204 L -1.37943 15.4475 L -1.41001 15.4745 L -1.44058 15.5014 L -1.47115 15.5283 L -1.50172 15.5552 L -1.53228 15.582 L -1.56283 15.6087 L -1.59338 15.6354 L -1.62392 15.6621 L -1.65446 15.6887 L -1.685 15.7153 L -1.71553 15.7418 L -1.74605 15.7683 L -1.77657 15.7947 L -1.80708 15.8211 L -1.83759 15.8474 L -1.86809 15.8737 L -1.89859 15.8999 L -1.92908 15.9261 L -1.95957 15.9522 L -1.99005 15.9783 L -2.02053 16.0044 L -2.051 16.0304 L -2.08146 16.0564 L -2.11192 16.0823 L -2.14237 16.1082 L -2.17175 16.1042 L -2.20112 16.1002 L -2.23049 16.0962 L -2.25985 16.0921 L -2.2892 16.0879 L -2.31854 16.0837 L -2.34788 16.0795 L -2.37721 16.0752 L -2.40653 16.0708 L -2.43584 16.0664 L -2.46514 16.0619 L -2.49444 16.0574 L -2.52373 16.0528 L -2.553 16.0482 L -2.58227 16.0435 L -2.61154 16.0388 L -2.64079 16.034 L -2.67003 16.0291 L -2.69927 16.0242 L -2.7285 16.0193 L -2.75771 16.0143 L -2.78692 16.0092 L -2.81612 16.0041 L -2.84531 15.999 L -2.87449 15.9937 L -2.90366 15.9885 L -2.93282 15.9831 L -2.96197 15.9778 L -2.99111 15.9723 L -3.02025 15.9669 L -3.04937 15.9613 L -3.07848 15.9557 L -3.10758 15.9501 L -3.13667 15.9444 L -3.16575 15.9386 L -3.19482 15.9328 L -3.22388 15.927 L -3.25293 15.9211 L -3.28196 15.9151 L -3.31099 15.9091 L -3.34001 15.903 L -3.36901 15.8969 L -3.398 15.8908 L -3.42699 15.8845 L -3.45596 15.8783 L -3.48492 15.8719 L -3.51386 15.8655 L -3.5428 15.8591 L -3.57172 15.8526 L -3.66018 15.8324 L -3.68906 15.8257 L -3.71792 15.819 L -3.74677 15.8122 L -3.77561 15.8053 L -3.80443 15.7984 L -3.83324 15.7914 L -3.86204 15.7844 L -3.89083 15.7773 L -3.91961 15.7702 L -3.94837 15.763 L -3.97711 15.7558 L -4.00585 15.7485 L -4.03457 15.7412 L -4.06328 15.7338 L -4.09197 15.7264 L -4.12065 15.7189 L -4.14932 15.7113 L -4.17797 15.7037 L -4.20661 15.6961 L -4.23524 15.6884 L -4.26385 15.6806 L -4.29245 15.6728 L -4.32103 15.665 L -4.3496 15.6571 L -4.37815 15.6491 L -4.40669 15.6411 L -4.43522 15.633 L -4.46373 15.6249 L -4.49222 15.6167 L -4.5207 15.6085 L -4.54917 15.6002 L -4.57762 15.5919 L -4.60605 15.5835 L -4.63447 15.5751 L -4.66288 15.5666 L -4.69126 15.5581 L -4.71964 15.5495 L -4.74799 15.5409 L -4.77634 15.5322 L -4.80466 15.5235 L -4.83297 15.5147 L -4.86126 15.5058 L -4.88954 15.4969 L -4.9178 15.488 L -4.94605 15.479 L -4.97427 15.4699 L -5.00249 15.4608 L -5.03068 15.4517 L -5.05886 15.4425 L -5.07507 15.406 L -5.09126 15.3694 L -5.10745 15.3328 L -5.12361 15.2961 L -5.13977 15.2594 L -5.15591 15.2227 L -5.17203 15.1859 L -5.18814 15.1491 L -5.20423 15.1122 L -5.22031 15.0753 L -5.23638 15.0383 L -5.25242 15.0013 L -5.26846 14.9643 L -5.28447 14.9272 L -5.30048 14.8901 L -5.31646 14.8529 L -5.33243 14.8157 L -5.34838 14.7784 L -5.36432 14.7411 L -5.38024 14.7037 L -5.39614 14.6663 L -5.41202 14.6288 L -5.42789 14.5913 L -5.44374 14.5538 L -5.45958 14.5162 L -5.47539 14.4785 L -5.49119 14.4409 L -5.50696 14.4031 L -5.52272 14.3653 L -5.53847 14.3275 L -5.55419 14.2896 L -5.56989 14.2517 L -5.58558 14.2137 L -5.60124 14.1756 L -5.61689 14.1376 L -5.63251 14.0994 L -5.64812 14.0612 L -5.6637 14.023 L -5.67927 13.9847 L -5.69481 13.9464 L -5.71033 13.908 L -5.72583 13.8696 L -5.74131 13.8311 L -5.75677 13.7925 L -5.77221 13.7539 L -5.78763 13.7153 L -5.80302 13.6766 L -5.81839 13.6378 L -5.83373 13.599 L -5.84906 13.5602 L -5.86436 13.5213 L -5.87964 13.4823 L -5.89489 13.4433 L -5.91012 13.4042 L -5.92532 13.365 L -5.94051 13.3259 L -5.95566 13.2866 L -5.97079 13.2473 L -5.9859 13.208 L -6.00098 13.1685 L -6.01603 13.1291 L -6.03106 13.0895 L -6.04606 13.05 L -6.06103 13.0103 L -6.07598 12.9706 L -6.0909 12.9309 L -6.10579 12.891 L -6.12066 12.8512 L -6.13549 12.8112 L -6.1503 12.7712 L -6.1503 12.7712 L -6.1908 12.7846 L -6.23128 12.7979 L -6.27172 12.8111 L -6.31214 12.8243 L -6.35252 12.8374 L -6.39288 12.8505 L -6.43321 12.8635 L -6.47352 12.8765 L -6.51379 12.8894 L -6.55403 12.9022 L -6.59425 12.915 L -6.63444 12.9277 L -6.6746 12.9404 L -6.71473 12.953 L -6.75484 12.9656 L -6.79491 12.9781 L -6.83496 12.9905 L -6.87498 13.003 L -6.91497 13.0153 L -6.95494 13.0276 L -6.99487 13.0399 L -7.03478 13.052 L -7.07467 13.0642 L -7.11452 13.0763 L -7.15435 13.0883 L -7.19415 13.1003 L -7.23392 13.1123 L -7.27366 13.1242 L -7.31338 13.136 L -7.35307 13.1478 L -7.39274 13.1596 L -7.43237 13.1713 L -7.47198 13.1829 L -7.51157 13.1945 L -7.55112 13.2061 L -7.59065 13.2176 L -7.63015 13.2291 L -7.66963 13.2405 L -7.70908 13.2519 L -7.7485 13.2632 L -7.7879 13.2745 L -7.82727 13.2857 L -7.86662 13.2969 L -7.90594 13.3081 L -7.94523 13.3192 L -7.9845 13.3302 L -8.02374 13.3413 L -8.06295 13.3522 L -8.10214 13.3632 L -8.1413 13.3741 L -8.18044 13.3849 L -8.21955 13.3957 L -8.25864 13.4065 L -8.2977 13.4172 L -8.33674 13.4279 L -8.37575 13.4385 L -8.41473 13.4491 L -8.45369 13.4597 L -8.49263 13.4702 L -8.53154 13.4807 L -8.57042 13.4911 L -8.60928 13.5016 L -8.64812 13.5119 L -8.68693 13.5222 L -8.72571 13.5325 L -8.76447 13.5428 L -8.80321 13.553 L -8.84192 13.5632 L -8.88061 13.5733 L -8.91928 13.5834 L -8.94404 13.5671 L -8.96877 13.5508 L -8.99348 13.5344 L -9.01815 13.518 L -9.0428 13.5015 L -9.06741 13.485 L -9.09199 13.4684 L -9.11655 13.4518 L -9.14107 13.4352 L -9.16556 13.4185 L -9.19003 13.4017 L -9.21446 13.3849 L -9.23886 13.3681 L -9.26323 13.3512 L -9.28757 13.3343 L -9.31188 13.3173 L -9.33616 13.3003 L -9.3604 13.2833 L -9.38462 13.2662 L -9.4088 13.249 L -9.43295 13.2319 L -9.45708 13.2146 L -9.48117 13.1973 L -9.50522 13.18 L -9.52925 13.1627 L -9.55325 13.1453 L -9.57721 13.1278 L -9.60114 13.1103 L -9.62504 13.0928 L -9.64891 13.0752 L -9.67274 13.0576 L -9.69655 13.0399 L -9.72032 13.0222 L -9.74406 13.0045 L -9.76776 12.9867 L -9.79144 12.9688 L -9.81508 12.9509 L -9.83869 12.933 L -9.86226 12.915 L -9.8858 12.897 L -9.90931 12.879 L -9.93279 12.8609 L -9.95624 12.8427 L -9.97965 12.8246 L -10.003 12.8063 L -10.0264 12.7881 L -10.0497 12.7697 L -10.073 12.7514 L -10.0962 12.733 L -10.1671 12.6764 L -10.1902 12.6579 L -10.2133 12.6392 L -10.2364 12.6206 L -10.2594 12.6019 L -10.2823 12.5832 L -10.3053 12.5644 L -10.3282 12.5456 L -10.351 12.5267 L -10.3739 12.5078 L -10.3967 12.4889 L -10.4194 12.4699 L -10.4422 12.4508 L -10.4649 12.4318 L -10.4875 12.4127 L -10.5101 12.3935 L -10.5327 12.3743 L -10.5553 12.3551 L -10.5778 12.3358 L -10.6003 12.3165 L -10.6228 12.2971 L -10.6452 12.2777 L -10.6675 12.2583 L -10.6899 12.2388 L -10.7122 12.2193 L -10.7345 12.1997 L -10.7567 12.1801 L -10.7789 12.1605 L -10.8011 12.1408 L -10.8232 12.1211 L -10.8453 12.1013 L -10.8673 12.0815 L -10.8894 12.0617 L -10.9114 12.0418 L -10.9333 12.0219 L -10.9552 12.0019 L -10.9771 11.9819 L -10.9989 11.9619 L -11.0207 11.9418 L -11.0425 11.9217 L -11.0642 11.9015 L -11.0859 11.8813 L -11.1076 11.861 L -11.1292 11.8408 L -11.1508 11.8204 L -11.1723 11.8001 L -11.1938 11.7797 L -11.2153 11.7592 L -11.2367 11.7388 L -11.2581 11.7182 L -11.2569 11.6783 L -11.2556 11.6383 L -11.2543 11.5983 L -11.253 11.5583 L -11.2516 11.5182 L -11.2502 11.4781 L -11.2488 11.438 L -11.2473 11.3978 L -11.2458 11.3576 L -11.2443 11.3174 L -11.2427 11.2771 L -11.2411 11.2368 L -11.2395 11.1965 L -11.2378 11.1561 L -11.2361 11.1157 L -11.2344 11.0753 L -11.2326 11.0348 L -11.2308 10.9943 L -11.229 10.9538 L -11.2271 10.9132 L -11.2252 10.8726 L -11.2233 10.8319 L -11.2213 10.7913 L -11.2193 10.7506 L -11.2172 10.7098 L -11.2152 10.669 L -11.213 10.6282 L -11.2109 10.5874 L -11.2087 10.5465 L -11.2065 10.5056 L -11.2042 10.4646 L -11.2019 10.4236 L -11.1995 10.3826 L -11.1971 10.3415 L -11.1947 10.3004 L -11.1922 10.2593 L -11.1897 10.2181 L -11.1872 10.1769 L -11.1846 10.1357 L -11.182 10.0944 L -11.1793 10.0531 L -11.1766 10.0117 L -11.1738 9.9703 L -11.171 9.92887 L -11.1682 9.8874 L -11.1653 9.84589 L -11.1624 9.80435 L -11.1594 9.76276 L -11.1564 9.72114 L -11.1534 9.67948 L -11.1503 9.63778 L -11.1471 9.59604 L -11.1439 9.55426 L -11.1407 9.51244 L -11.1374 9.47059 L -11.1341 9.42869 L -11.1307 9.38676 L -11.1273 9.34479 L -11.1238 9.30277 L -11.1203 9.26072 L -11.1167 9.21863 L -11.1131 9.17649 L -11.1095 9.13432 L -11.1058 9.09211 L -11.102 9.04985 L -11.0982 9.00756 L -11.0943 8.96522 L -11.0904 8.92285 L -11.0865 8.88043 L -11.0825 8.83797 L -11.0825 8.83797 L -11.1247 8.83243 L -11.167 8.82685 L -11.2092 8.82124 L -11.2513 8.81558 L -11.2934 8.80988 L -11.3354 8.80414 L -11.3774 8.79836 L -11.4193 8.79254 L -11.4612 8.78669 L -11.503 8.7808 L -11.5448 8.77486 L -11.5865 8.7689 L -11.6282 8.76289 L -11.6699 8.75685 L -11.7114 8.75077 L -11.753 8.74465 L -11.7945 8.7385 L -11.8359 8.73231 L -11.8773 8.72609 L -11.9186 8.71983 L -11.9599 8.71354 L -12.0012 8.70721 L -12.0424 8.70085 L -12.0836 8.69446 L -12.1247 8.68803 L -12.1657 8.68157 L -12.2067 8.67507 L -12.2477 8.66854 L -12.2886 8.66199 L -12.3295 8.65539 L -12.3703 8.64877 L -12.4111 8.64212 L -12.4519 8.63543 L -12.4926 8.62871 L -12.5332 8.62196 L -12.5738 8.61519 L -12.6144 8.60838 L -12.6549 8.60154 L -12.6954 8.59467 L -12.7358 8.58777 L -12.7762 8.58084 L -12.8166 8.57389 L -12.8569 8.5669 L -12.8972 8.55989 L -12.9374 8.55285 L -12.9776 8.54578 L -13.0177 8.53868 L -13.0578 8.53156 L -13.0978 8.52441 L -13.1378 8.51723 L -13.1778 8.51002 L -13.2177 8.50279 L -13.2576 8.49553 L -13.2975 8.48825 L -13.3373 8.48093 L -13.377 8.4736 L -13.4168 8.46624 L -13.4565 8.45885 L -13.4961 8.45144 L -13.5357 8.444 L -13.5753 8.43654 L -13.6148 8.42905 L -13.6543 8.42154 L -13.6937 8.414 L -13.7331 8.40645 L -13.7725 8.39886 L -13.8118 8.39126 L -13.8511 8.38363 L -13.8904 8.37598 L -13.9296 8.3683 L -13.9449 8.34288 L -13.96 8.31742 L -13.9752 8.29194 L -13.9903 8.26644 L -14.0054 8.2409 L -14.0204 8.21534 L -14.0353 8.18975 L -14.0502 8.16414 L -14.0651 8.13849 L -14.0799 8.11282 L -14.0947 8.08712 L -14.1094 8.0614 L -14.1241 8.03565 L -14.1388 8.00987 L -14.1533 7.98406 L -14.1679 7.95823 L -14.1824 7.93237 L -14.1968 7.90649 L -14.2112 7.88058 L -14.2256 7.85464 L -14.2399 7.82868 L -14.2541 7.80269 L -14.2684 7.77668 L -14.2825 7.75063 L -14.2966 7.72457 L -14.3107 7.69848 L -14.3247 7.67236 L -14.3387 7.64621 L -14.3526 7.62005 L -14.3665 7.59385 L -14.3803 7.56763 L -14.3941 7.54139 L -14.4078 7.51512 L -14.4215 7.48882 L -14.4352 7.4625 L -14.4487 7.43616 L -14.4623 7.40979 L -14.4758 7.38339 L -14.4892 7.35698 L -14.5026 7.33053 L -14.516 7.30406 L -14.5293 7.27757 L -14.5425 7.25106 L -14.5557 7.22452 L -14.5689 7.19795 L -14.582 7.17136 L -14.595 7.14475 L -14.608 7.11812 L -14.621 7.09146 L -14.6604 7.00971 L -14.6731 6.98295 L -14.6858 6.95618 L -14.6985 6.92938 L -14.7111 6.90255 L -14.7237 6.8757 L -14.7362 6.84883 L -14.7487 6.82194 L -14.7611 6.79503 L -14.7735 6.76809 L -14.7858 6.74113 L -14.7981 6.71414 L -14.8103 6.68714 L -14.8225 6.66011 L -14.8346 6.63306 L -14.8467 6.60599 L -14.8587 6.5789 L -14.8707 6.55178 L -14.8826 6.52464 L -14.8945 6.49748 L -14.9063 6.4703 L -14.9181 6.4431 L -14.9298 6.41588 L -14.9415 6.38863 L -14.9531 6.36136 L -14.9647 6.33408 L -14.9762 6.30677 L -14.9877 6.27944 L -14.9991 6.25209 L -15.0105 6.22472 L -15.0218 6.19732 L -15.0331 6.16991 L -15.0444 6.14248 L -15.0555 6.11502 L -15.0667 6.08755 L -15.0777 6.06005 L -15.0888 6.03254 L -15.0997 6.00501 L -15.1107 5.97745 L -15.1216 5.94988 L -15.1324 5.92228 L -15.1432 5.89467 L -15.1539 5.86703 L -15.1646 5.83938 L -15.1752 5.81171 L -15.1858 5.78402 L -15.1963 5.75631 L -15.2068 5.72858 L -15.2172 5.70083 L -15.2276 5.67306 L -15.2091 5.63761 L -15.1906 5.60215 L -15.1721 5.56667 L -15.1535 5.53118 L -15.1349 5.49567 L -15.1162 5.46015 L -15.0975 5.42461 L -15.0788 5.38905 L -15.06 5.35348 L -15.0412 5.31789 L -15.0223 5.28229 L -15.0034 5.24668 L -14.9844 5.21104 L -14.9654 5.17539 L -14.9463 5.13973 L -14.9272 5.10405 L -14.9081 5.06836 L -14.8889 5.03264 L -14.8696 4.99692 L -14.8503 4.96118 L -14.831 4.92542 L -14.8116 4.88965 L -14.7922 4.85386 L -14.7727 4.81805 L -14.7532 4.78223 L -14.7336 4.7464 L -14.714 4.71054 L -14.6943 4.67468 L -14.6746 4.63879 L -14.6549 4.6029 L -14.635 4.56698 L -14.6152 4.53105 L -14.5953 4.49511 L -14.5753 4.45915 L -14.5553 4.42317 L -14.5352 4.38718 L -14.5151 4.35117 L -14.4949 4.31515 L -14.4747 4.27911 L -14.4544 4.24305 L -14.434 4.20698 L -14.4137 4.17089 L -14.3932 4.13479 L -14.3727 4.09868 L -14.3522 4.06254 L -14.3316 4.0264 L -14.3109 3.99023 L -14.2902 3.95405 L -14.2694 3.91786 L -14.2486 3.88165 L -14.2277 3.84542 L -14.2068 3.80918 L -14.1858 3.77292 L -14.1647 3.73665 L -14.1436 3.70037 L -14.1224 3.66406 L -14.1012 3.62774 L -14.0799 3.59141 L -14.0585 3.55506 L -14.0371 3.5187 L -14.0157 3.48232 L -13.9941 3.44593 L -13.9725 3.40952 L -13.9509 3.37309 L -13.9291 3.33665 L -13.9074 3.3002 L -13.8855 3.26373 L -13.8636 3.22725 L -13.8416 3.19075 L -13.8196 3.15423 L -13.8196 3.15423 L -13.8553 3.1309 L -13.8909 3.10755 L -13.9265 3.08418 L -13.962 3.0608 L -13.9975 3.03741 L -14.0328 3.014 L -14.0681 2.99058 L -14.1034 2.96715 L -14.1386 2.9437 L -14.1737 2.92024 L -14.2088 2.89677 L -14.2438 2.87329 L -14.2787 2.84979 L -14.3136 2.82628 L -14.3485 2.80276 L -14.3832 2.77923 L -14.4179 2.75569 L -14.4526 2.73213 L -14.4872 2.70857 L -14.5217 2.68499 L -14.5562 2.6614 L -14.5906 2.6378 L -14.625 2.6142 L -14.6593 2.59058 L -14.6935 2.56695 L -14.7277 2.54331 L -14.7619 2.51966 L -14.7959 2.49601 L -14.83 2.47234 L -14.8639 2.44867 L -14.8979 2.42498 L -14.9317 2.40129 L -14.9655 2.37758 L -14.9993 2.35387 L -15.033 2.33016 L -15.0666 2.30643 L -15.1002 2.28269 L -15.1338 2.25895 L -15.1673 2.2352 L -15.2007 2.21144 L -15.2341 2.18767 L -15.2674 2.1639 L -15.3007 2.14012 L -15.3339 2.11633 L -15.3671 2.09253 L -15.4002 2.06873 L -15.4333 2.04492 L -15.4664 2.02111 L -15.4993 1.99729 L -15.5323 1.97346 L -15.5652 1.94963 L -15.598 1.92578 L -15.6308 1.90194 L -15.6635 1.87809 L -15.6962 1.85423 L -15.7289 1.83037 L -15.7615 1.8065 L -15.794 1.78262 L -15.8265 1.75874 L -15.859 1.73486 L -15.8914 1.71097 L -15.9237 1.68707 L -15.9561 1.66317 L -15.9883 1.63927 L -16.0206 1.61536 L -16.0527 1.59144 L -16.0849 1.56753 L -16.117 1.5436 L -16.149 1.51968 L -16.181 1.49575 L -16.1837 1.46623 L -16.1864 1.4367 L -16.189 1.40717 L -16.1915 1.37764 L -16.194 1.3481 L -16.1964 1.31856 L -16.1988 1.28901 L -16.2011 1.25946 L -16.2034 1.2299 L -16.2056 1.20034 L -16.2078 1.17078 L -16.2099 1.14121 L -16.2119 1.11164 L -16.2139 1.08207 L -16.2159 1.05249 L -16.2178 1.0229 L -16.2196 0.993318 L -16.2214 0.963729 L -16.2231 0.934137 L -16.2248 0.904542 L -16.2264 0.874943 L -16.228 0.845342 L -16.2295 0.815738 L -16.231 0.786131 L -16.2324 0.756522 L -16.2337 0.72691 L -16.235 0.697295 L -16.2363 0.667678 L -16.2375 0.63806 L -16.2386 0.608439 L -16.2397 0.578815 L -16.2407 0.54919 L -16.2417 0.519564 L -16.2426 0.489935 L -16.2435 0.460305 L -16.2443 0.430673 L -16.2451 0.40104 L -16.2458 0.371406 L -16.2464 0.34177 L -16.247 0.312133 L -16.2475 0.282495 L -16.248 0.252856 L -16.2485 0.223217 L -16.2488 0.193576 L -16.2492 0.163935 L -16.2494 0.134294 L -16.2497 0.104651 L -16.2498 0.0750091 L -16.2499 0.0453664 L -16.2499 -0.0453664 L -16.2498 -0.0750091 L -16.2497 -0.104651 L -16.2494 -0.134294 L -16.2492 -0.163935 L -16.2488 -0.193576 L -16.2485 -0.223217 L -16.248 -0.252856 L -16.2475 -0.282495 L -16.247 -0.312133 L -16.2464 -0.34177 L -16.2458 -0.371406 L -16.2451 -0.40104 L -16.2443 -0.430673 L -16.2435 -0.460305 L -16.2426 -0.489935 L -16.2417 -0.519564 L -16.2407 -0.54919 L -16.2397 -0.578815 L -16.2386 -0.608439 L -16.2375 -0.63806 L -16.2363 -0.667678 L -16.235 -0.697295 L -16.2337 -0.72691 L -16.2324 -0.756522 L -16.231 -0.786131 L -16.2295 -0.815738 L -16.228 -0.845342 L -16.2264 -0.874943 L -16.2248 -0.904542 L -16.2231 -0.934137 L -16.2214 -0.963729 L -16.2196 -0.993318 L -16.2178 -1.0229 L -16.2159 -1.05249 L -16.2139 -1.08207 L -16.2119 -1.11164 L -16.2099 -1.14121 L -16.2078 -1.17078 L -16.2056 -1.20034 L -16.2034 -1.2299 L -16.2011 -1.25946 L -16.1988 -1.28901 L -16.1964 -1.31856 L -16.194 -1.3481 L -16.1915 -1.37764 L -16.189 -1.40717 L -16.1864 -1.4367 L -16.1837 -1.46623 L -16.181 -1.49575 L -16.149 -1.51968 L -16.117 -1.5436 L -16.0849 -1.56753 L -16.0527 -1.59144 L -16.0206 -1.61536 L -15.9883 -1.63927 L -15.9561 -1.66317 L -15.9237 -1.68707 L -15.8914 -1.71097 L -15.859 -1.73486 L -15.8265 -1.75874 L -15.794 -1.78262 L -15.7615 -1.8065 L -15.7289 -1.83037 L -15.6962 -1.85423 L -15.6635 -1.87809 L -15.6308 -1.90194 L -15.598 -1.92578 L -15.5652 -1.94963 L -15.5323 -1.97346 L -15.4993 -1.99729 L -15.4664 -2.02111 L -15.4333 -2.04492 L -15.4002 -2.06873 L -15.3671 -2.09253 L -15.3339 -2.11633 L -15.3007 -2.14012 L -15.2674 -2.1639 L -15.2341 -2.18767 L -15.2007 -2.21144 L -15.1673 -2.2352 L -15.1338 -2.25895 L -15.1002 -2.28269 L -15.0666 -2.30643 L -15.033 -2.33016 L -14.9993 -2.35387 L -14.9655 -2.37758 L -14.9317 -2.40129 L -14.8979 -2.42498 L -14.8639 -2.44867 L -14.83 -2.47234 L -14.7959 -2.49601 L -14.7619 -2.51966 L -14.7277 -2.54331 L -14.6935 -2.56695 L -14.6593 -2.59058 L -14.625 -2.6142 L -14.5906 -2.6378 L -14.5562 -2.6614 L -14.5217 -2.68499 L -14.4872 -2.70857 L -14.4526 -2.73213 L -14.4179 -2.75569 L -14.3832 -2.77923 L -14.3485 -2.80276 L -14.3136 -2.82628 L -14.2787 -2.84979 L -14.2438 -2.87329 L -14.2088 -2.89677 L -14.1737 -2.92024 L -14.1386 -2.9437 L -14.1034 -2.96715 L -14.0681 -2.99058 L -14.0328 -3.014 L -13.9975 -3.03741 L -13.962 -3.0608 L -13.9265 -3.08418 L -13.8909 -3.10755 L -13.8553 -3.1309 L -13.8196 -3.15423 L -13.8196 -3.15423 L -13.8416 -3.19075 L -13.8636 -3.22725 L -13.8855 -3.26373 L -13.9074 -3.3002 L -13.9291 -3.33665 L -13.9509 -3.37309 L -13.9725 -3.40952 L -13.9941 -3.44593 L -14.0157 -3.48232 L -14.0371 -3.5187 L -14.0585 -3.55506 L -14.0799 -3.59141 L -14.1012 -3.62774 L -14.1224 -3.66406 L -14.1436 -3.70037 L -14.1647 -3.73665 L -14.1858 -3.77292 L -14.2068 -3.80918 L -14.2277 -3.84542 L -14.2486 -3.88165 L -14.2694 -3.91786 L -14.2902 -3.95405 L -14.3109 -3.99023 L -14.3316 -4.0264 L -14.3522 -4.06254 L -14.3727 -4.09868 L -14.3932 -4.13479 L -14.4137 -4.17089 L -14.434 -4.20698 L -14.4544 -4.24305 L -14.4747 -4.27911 L -14.4949 -4.31515 L -14.5151 -4.35117 L -14.5352 -4.38718 L -14.5553 -4.42317 L -14.5753 -4.45915 L -14.5953 -4.49511 L -14.6152 -4.53105 L -14.635 -4.56698 L -14.6549 -4.6029 L -14.6746 -4.63879 L -14.6943 -4.67468 L -14.714 -4.71054 L -14.7336 -4.7464 L -14.7532 -4.78223 L -14.7727 -4.81805 L -14.7922 -4.85386 L -14.8116 -4.88965 L -14.831 -4.92542 L -14.8503 -4.96118 L -14.8696 -4.99692 L -14.8889 -5.03264 L -14.9081 -5.06836 L -14.9272 -5.10405 L -14.9463 -5.13973 L -14.9654 -5.17539 L -14.9844 -5.21104 L -15.0034 -5.24668 L -15.0223 -5.28229 L -15.0412 -5.31789 L -15.06 -5.35348 L -15.0788 -5.38905 L -15.0975 -5.42461 L -15.1162 -5.46015 L -15.1349 -5.49567 L -15.1535 -5.53118 L -15.1721 -5.56667 L -15.1906 -5.60215 L -15.2091 -5.63761 L -15.2276 -5.67306 L -15.2172 -5.70083 L -15.2068 -5.72858 L -15.1963 -5.75631 L -15.1858 -5.78402 L -15.1752 -5.81171 L -15.1646 -5.83938 L -15.1539 -5.86703 L -15.1432 -5.89467 L -15.1324 -5.92228 L -15.1216 -5.94988 L -15.1107 -5.97745 L -15.0997 -6.00501 L -15.0888 -6.03254 L -15.0777 -6.06005 L -15.0667 -6.08755 L -15.0555 -6.11502 L -15.0444 -6.14248 L -15.0331 -6.16991 L -15.0218 -6.19732 L -15.0105 -6.22472 L -14.9991 -6.25209 L -14.9877 -6.27944 L -14.9762 -6.30677 L -14.9647 -6.33408 L -14.9531 -6.36136 L -14.9415 -6.38863 L -14.9298 -6.41588 L -14.9181 -6.4431 L -14.9063 -6.4703 L -14.8945 -6.49748 L -14.8826 -6.52464 L -14.8707 -6.55178 L -14.8587 -6.5789 L -14.8467 -6.60599 L -14.8346 -6.63306 L -14.8225 -6.66011 L -14.8103 -6.68714 L -14.7981 -6.71414 L -14.7858 -6.74113 L -14.7735 -6.76809 L -14.7611 -6.79503 L -14.7487 -6.82194 L -14.7362 -6.84883 L -14.7237 -6.8757 L -14.7111 -6.90255 L -14.6985 -6.92938 L -14.6858 -6.95618 L -14.6731 -6.98295 L -14.6604 -7.00971 L -14.621 -7.09146 L -14.608 -7.11812 L -14.595 -7.14475 L -14.582 -7.17136 L -14.5689 -7.19795 L -14.5557 -7.22452 L -14.5425 -7.25106 L -14.5293 -7.27757 L -14.516 -7.30406 L -14.5026 -7.33053 L -14.4892 -7.35698 L -14.4758 -7.38339 L -14.4623 -7.40979 L -14.4487 -7.43616 L -14.4352 -7.4625 L -14.4215 -7.48882 L -14.4078 -7.51512 L -14.3941 -7.54139 L -14.3803 -7.56763 L -14.3665 -7.59385 L -14.3526 -7.62005 L -14.3387 -7.64621 L -14.3247 -7.67236 L -14.3107 -7.69848 L -14.2966 -7.72457 L -14.2825 -7.75063 L -14.2684 -7.77668 L -14.2541 -7.80269 L -14.2399 -7.82868 L -14.2256 -7.85464 L -14.2112 -7.88058 L -14.1968 -7.90649 L -14.1824 -7.93237 L -14.1679 -7.95823 L -14.1533 -7.98406 L -14.1388 -8.00987 L -14.1241 -8.03565 L -14.1094 -8.0614 L -14.0947 -8.08712 L -14.0799 -8.11282 L -14.0651 -8.13849 L -14.0502 -8.16414 L -14.0353 -8.18975 L -14.0204 -8.21534 L -14.0054 -8.2409 L -13.9903 -8.26644 L -13.9752 -8.29194 L -13.96 -8.31742 L -13.9449 -8.34288 L -13.9296 -8.3683 L -13.8904 -8.37598 L -13.8511 -8.38363 L -13.8118 -8.39126 L -13.7725 -8.39886 L -13.7331 -8.40645 L -13.6937 -8.414 L -13.6543 -8.42154 L -13.6148 -8.42905 L -13.5753 -8.43654 L -13.5357 -8.444 L -13.4961 -8.45144 L -13.4565 -8.45885 L -13.4168 -8.46624 L -13.377 -8.4736 L -13.3373 -8.48093 L -13.2975 -8.48825 L -13.2576 -8.49553 L -13.2177 -8.50279 L -13.1778 -8.51002 L -13.1378 -8.51723 L -13.0978 -8.52441 L -13.0578 -8.53156 L -13.0177 -8.53868 L -12.9776 -8.54578 L -12.9374 -8.55285 L -12.8972 -8.55989 L -12.8569 -8.5669 L -12.8166 -8.57389 L -12.7762 -8.58084 L -12.7358 -8.58777 L -12.6954 -8.59467 L -12.6549 -8.60154 L -12.6144 -8.60838 L -12.5738 -8.61519 L -12.5332 -8.62196 L -12.4926 -8.62871 L -12.4519 -8.63543 L -12.4111 -8.64212 L -12.3703 -8.64877 L -12.3295 -8.65539 L -12.2886 -8.66199 L -12.2477 -8.66854 L -12.2067 -8.67507 L -12.1657 -8.68157 L -12.1247 -8.68803 L -12.0836 -8.69446 L -12.0424 -8.70085 L -12.0012 -8.70721 L -11.9599 -8.71354 L -11.9186 -8.71983 L -11.8773 -8.72609 L -11.8359 -8.73231 L -11.7945 -8.7385 L -11.753 -8.74465 L -11.7114 -8.75077 L -11.6699 -8.75685 L -11.6282 -8.76289 L -11.5865 -8.7689 L -11.5448 -8.77486 L -11.503 -8.7808 L -11.4612 -8.78669 L -11.4193 -8.79254 L -11.3774 -8.79836 L -11.3354 -8.80414 L -11.2934 -8.80988 L -11.2513 -8.81558 L -11.2092 -8.82124 L -11.167 -8.82685 L -11.1247 -8.83243 L -11.0825 -8.83797 L -11.0825 -8.83797 L -11.0865 -8.88043 L -11.0904 -8.92285 L -11.0943 -8.96522 L -11.0982 -9.00756 L -11.102 -9.04985 L -11.1058 -9.09211 L -11.1095 -9.13432 L -11.1131 -9.17649 L -11.1167 -9.21863 L -11.1203 -9.26072 L -11.1238 -9.30277 L -11.1273 -9.34479 L -11.1307 -9.38676 L -11.1341 -9.42869 L -11.1374 -9.47059 L -11.1407 -9.51244 L -11.1439 -9.55426 L -11.1471 -9.59604 L -11.1503 -9.63778 L -11.1534 -9.67948 L -11.1564 -9.72114 L -11.1594 -9.76276 L -11.1624 -9.80435 L -11.1653 -9.84589 L -11.1682 -9.8874 L -11.171 -9.92887 L -11.1738 -9.9703 L -11.1766 -10.0117 L -11.1793 -10.0531 L -11.182 -10.0944 L -11.1846 -10.1357 L -11.1872 -10.1769 L -11.1897 -10.2181 L -11.1922 -10.2593 L -11.1947 -10.3004 L -11.1971 -10.3415 L -11.1995 -10.3826 L -11.2019 -10.4236 L -11.2042 -10.4646 L -11.2065 -10.5056 L -11.2087 -10.5465 L -11.2109 -10.5874 L -11.213 -10.6282 L -11.2152 -10.669 L -11.2172 -10.7098 L -11.2193 -10.7506 L -11.2213 -10.7913 L -11.2233 -10.8319 L -11.2252 -10.8726 L -11.2271 -10.9132 L -11.229 -10.9538 L -11.2308 -10.9943 L -11.2326 -11.0348 L -11.2344 -11.0753 L -11.2361 -11.1157 L -11.2378 -11.1561 L -11.2395 -11.1965 L -11.2411 -11.2368 L -11.2427 -11.2771 L -11.2443 -11.3174 L -11.2458 -11.3576 L -11.2473 -11.3978 L -11.2488 -11.438 L -11.2502 -11.4781 L -11.2516 -11.5182 L -11.253 -11.5583 L -11.2543 -11.5983 L -11.2556 -11.6383 L -11.2569 -11.6783 L -11.2581 -11.7182 L -11.2367 -11.7388 L -11.2153 -11.7592 L -11.1938 -11.7797 L -11.1723 -11.8001 L -11.1508 -11.8204 L -11.1292 -11.8408 L -11.1076 -11.861 L -11.0859 -11.8813 L -11.0642 -11.9015 L -11.0425 -11.9217 L -11.0207 -11.9418 L -10.9989 -11.9619 L -10.9771 -11.9819 L -10.9552 -12.0019 L -10.9333 -12.0219 L -10.9114 -12.0418 L -10.8894 -12.0617 L -10.8673 -12.0815 L -10.8453 -12.1013 L -10.8232 -12.1211 L -10.8011 -12.1408 L -10.7789 -12.1605 L -10.7567 -12.1801 L -10.7345 -12.1997 L -10.7122 -12.2193 L -10.6899 -12.2388 L -10.6675 -12.2583 L -10.6452 -12.2777 L -10.6228 -12.2971 L -10.6003 -12.3165 L -10.5778 -12.3358 L -10.5553 -12.3551 L -10.5327 -12.3743 L -10.5101 -12.3935 L -10.4875 -12.4127 L -10.4649 -12.4318 L -10.4422 -12.4508 L -10.4194 -12.4699 L -10.3967 -12.4889 L -10.3739 -12.5078 L -10.351 -12.5267 L -10.3282 -12.5456 L -10.3053 -12.5644 L -10.2823 -12.5832 L -10.2594 -12.6019 L -10.2364 -12.6206 L -10.2133 -12.6392 L -10.1902 -12.6579 L -10.1671 -12.6764 L -10.0962 -12.733 L -10.073 -12.7514 L -10.0497 -12.7697 L -10.0264 -12.7881 L -10.003 -12.8063 L -9.97965 -12.8246 L -9.95624 -12.8427 L -9.93279 -12.8609 L -9.90931 -12.879 L -9.8858 -12.897 L -9.86226 -12.915 L -9.83869 -12.933 L -9.81508 -12.9509 L -9.79144 -12.9688 L -9.76776 -12.9867 L -9.74406 -13.0045 L -9.72032 -13.0222 L -9.69655 -13.0399 L -9.67274 -13.0576 L -9.64891 -13.0752 L -9.62504 -13.0928 L -9.60114 -13.1103 L -9.57721 -13.1278 L -9.55325 -13.1453 L -9.52925 -13.1627 L -9.50522 -13.18 L -9.48117 -13.1973 L -9.45708 -13.2146 L -9.43295 -13.2319 L -9.4088 -13.249 L -9.38462 -13.2662 L -9.3604 -13.2833 L -9.33616 -13.3003 L -9.31188 -13.3173 L -9.28757 -13.3343 L -9.26323 -13.3512 L -9.23886 -13.3681 L -9.21446 -13.3849 L -9.19003 -13.4017 L -9.16556 -13.4185 L -9.14107 -13.4352 L -9.11655 -13.4518 L -9.09199 -13.4684 L -9.06741 -13.485 L -9.0428 -13.5015 L -9.01815 -13.518 L -8.99348 -13.5344 L -8.96877 -13.5508 L -8.94404 -13.5671 L -8.91928 -13.5834 L -8.88061 -13.5733 L -8.84192 -13.5632 L -8.80321 -13.553 L -8.76447 -13.5428 L -8.72571 -13.5325 L -8.68693 -13.5222 L -8.64812 -13.5119 L -8.60928 -13.5016 L -8.57042 -13.4911 L -8.53154 -13.4807 L -8.49263 -13.4702 L -8.45369 -13.4597 L -8.41473 -13.4491 L -8.37575 -13.4385 L -8.33674 -13.4279 L -8.2977 -13.4172 L -8.25864 -13.4065 L -8.21955 -13.3957 L -8.18044 -13.3849 L -8.1413 -13.3741 L -8.10214 -13.3632 L -8.06295 -13.3522 L -8.02374 -13.3413 L -7.9845 -13.3302 L -7.94523 -13.3192 L -7.90594 -13.3081 L -7.86662 -13.2969 L -7.82727 -13.2857 L -7.7879 -13.2745 L -7.7485 -13.2632 L -7.70908 -13.2519 L -7.66963 -13.2405 L -7.63015 -13.2291 L -7.59065 -13.2176 L -7.55112 -13.2061 L -7.51157 -13.1945 L -7.47198 -13.1829 L -7.43237 -13.1713 L -7.39274 -13.1596 L -7.35307 -13.1478 L -7.31338 -13.136 L -7.27366 -13.1242 L -7.23392 -13.1123 L -7.19415 -13.1003 L -7.15435 -13.0883 L -7.11452 -13.0763 L -7.07467 -13.0642 L -7.03478 -13.052 L -6.99487 -13.0399 L -6.95494 -13.0276 L -6.91497 -13.0153 L -6.87498 -13.003 L -6.83496 -12.9905 L -6.79491 -12.9781 L -6.75484 -12.9656 L -6.71473 -12.953 L -6.6746 -12.9404 L -6.63444 -12.9277 L -6.59425 -12.915 L -6.55403 -12.9022 L -6.51379 -12.8894 L -6.47352 -12.8765 L -6.43321 -12.8635 L -6.39288 -12.8505 L -6.35252 -12.8374 L -6.31214 -12.8243 L -6.27172 -12.8111 L -6.23128 -12.7979 L -6.1908 -12.7846 L -6.1503 -12.7712 L -6.1503 -12.7712 L -6.13549 -12.8112 L -6.12066 -12.8512 L -6.10579 -12.891 L -6.0909 -12.9309 L -6.07598 -12.9706 L -6.06103 -13.0103 L -6.04606 -13.05 L -6.03106 -13.0895 L -6.01603 -13.1291 L -6.00098 -13.1685 L -5.9859 -13.208 L -5.97079 -13.2473 L -5.95566 -13.2866 L -5.94051 -13.3259 L -5.92532 -13.365 L -5.91012 -13.4042 L -5.89489 -13.4433 L -5.87964 -13.4823 L -5.86436 -13.5213 L -5.84906 -13.5602 L -5.83373 -13.599 L -5.81839 -13.6378 L -5.80302 -13.6766 L -5.78763 -13.7153 L -5.77221 -13.7539 L -5.75677 -13.7925 L -5.74131 -13.8311 L -5.72583 -13.8696 L -5.71033 -13.908 L -5.69481 -13.9464 L -5.67927 -13.9847 L -5.6637 -14.023 L -5.64812 -14.0612 L -5.63251 -14.0994 L -5.61689 -14.1376 L -5.60124 -14.1756 L -5.58558 -14.2137 L -5.56989 -14.2517 L -5.55419 -14.2896 L -5.53847 -14.3275 L -5.52272 -14.3653 L -5.50696 -14.4031 L -5.49119 -14.4409 L -5.47539 -14.4785 L -5.45958 -14.5162 L -5.44374 -14.5538 L -5.42789 -14.5913 L -5.41202 -14.6288 L -5.39614 -14.6663 L -5.38024 -14.7037 L -5.36432 -14.7411 L -5.34838 -14.7784 L -5.33243 -14.8157 L -5.31646 -14.8529 L -5.30048 -14.8901 L -5.28447 -14.9272 L -5.26846 -14.9643 L -5.25242 -15.0013 L -5.23638 -15.0383 L -5.22031 -15.0753 L -5.20423 -15.1122 L -5.18814 -15.1491 L -5.17203 -15.1859 L -5.15591 -15.2227 L -5.13977 -15.2594 L -5.12361 -15.2961 L -5.10745 -15.3328 L -5.09126 -15.3694 L -5.07507 -15.406 L -5.05886 -15.4425 L -5.03068 -15.4517 L -5.00249 -15.4608 L -4.97427 -15.4699 L -4.94605 -15.479 L -4.9178 -15.488 L -4.88954 -15.4969 L -4.86126 -15.5058 L -4.83297 -15.5147 L -4.80466 -15.5235 L -4.77634 -15.5322 L -4.74799 -15.5409 L -4.71964 -15.5495 L -4.69126 -15.5581 L -4.66288 -15.5666 L -4.63447 -15.5751 L -4.60605 -15.5835 L -4.57762 -15.5919 L -4.54917 -15.6002 L -4.5207 -15.6085 L -4.49222 -15.6167 L -4.46373 -15.6249 L -4.43522 -15.633 L -4.40669 -15.6411 L -4.37815 -15.6491 L -4.3496 -15.6571 L -4.32103 -15.665 L -4.29245 -15.6728 L -4.26385 -15.6806 L -4.23524 -15.6884 L -4.20661 -15.6961 L -4.17797 -15.7037 L -4.14932 -15.7113 L -4.12065 -15.7189 L -4.09197 -15.7264 L -4.06328 -15.7338 L -4.03457 -15.7412 L -4.00585 -15.7485 L -3.97711 -15.7558 L -3.94837 -15.763 L -3.91961 -15.7702 L -3.89083 -15.7773 L -3.86204 -15.7844 L -3.83324 -15.7914 L -3.80443 -15.7984 L -3.77561 -15.8053 L -3.74677 -15.8122 L -3.71792 -15.819 L -3.68906 -15.8257 L -3.66018 -15.8324 L -3.57172 -15.8526 L -3.5428 -15.8591 L -3.51386 -15.8655 L -3.48492 -15.8719 L -3.45596 -15.8783 L -3.42699 -15.8845 L -3.398 -15.8908 L -3.36901 -15.8969 L -3.34001 -15.903 L -3.31099 -15.9091 L -3.28196 -15.9151 L -3.25293 -15.9211 L -3.22388 -15.927 L -3.19482 -15.9328 L -3.16575 -15.9386 L -3.13667 -15.9444 L -3.10758 -15.9501 L -3.07848 -15.9557 L -3.04937 -15.9613 L -3.02025 -15.9669 L -2.99111 -15.9723 L -2.96197 -15.9778 L -2.93282 -15.9831 L -2.90366 -15.9885 L -2.87449 -15.9937 L -2.84531 -15.999 L -2.81612 -16.0041 L -2.78692 -16.0092 L -2.75771 -16.0143 L -2.7285 -16.0193 L -2.69927 -16.0242 L -2.67003 -16.0291 L -2.64079 -16.034 L -2.61154 -16.0388 L -2.58227 -16.0435 L -2.553 -16.0482 L -2.52373 -16.0528 L -2.49444 -16.0574 L -2.46514 -16.0619 L -2.43584 -16.0664 L -2.40653 -16.0708 L -2.37721 -16.0752 L -2.34788 -16.0795 L -2.31854 -16.0837 L -2.2892 -16.0879 L -2.25985 -16.0921 L -2.23049 -16.0962 L -2.20112 -16.1002 L -2.17175 -16.1042 L -2.14237 -16.1082 L -2.11192 -16.0823 L -2.08146 -16.0564 L -2.051 -16.0304 L -2.02053 -16.0044 L -1.99005 -15.9783 L -1.95957 -15.9522 L -1.92908 -15.9261 L -1.89859 -15.8999 L -1.86809 -15.8737 L -1.83759 -15.8474 L -1.80708 -15.8211 L -1.77657 -15.7947 L -1.74605 -15.7683 L -1.71553 -15.7418 L -1.685 -15.7153 L -1.65446 -15.6887 L -1.62392 -15.6621 L -1.59338 -15.6354 L -1.56283 -15.6087 L -1.53228 -15.582 L -1.50172 -15.5552 L -1.47115 -15.5283 L -1.44058 -15.5014 L -1.41001 -15.4745 L -1.37943 -15.4475 L -1.34885 -15.4204 L -1.31826 -15.3933 L -1.28767 -15.3661 L -1.25708 -15.3389 L -1.22648 -15.3117 L -1.19588 -15.2844 L -1.16527 -15.257 L -1.13466 -15.2296 L -1.10404 -15.2021 L -1.07342 -15.1746 L -1.0428 -15.147 L -1.01217 -15.1194 L -0.981538 -15.0917 L -0.950904 -15.0639 L -0.920266 -15.0362 L -0.889625 -15.0083 L -0.85898 -14.9804 L -0.828332 -14.9524 L -0.797682 -14.9244 L -0.767028 -14.8963 L -0.736371 -14.8682 L -0.705711 -14.84 L -0.675049 -14.8118 L -0.644384 -14.7835 L -0.613716 -14.7551 L -0.583046 -14.7267 L -0.552374 -14.6982 L -0.521699 -14.6697 L -0.491022 -14.6411 L -0.460344 -14.6124 L -0.429663 -14.5837 L -0.39898 -14.5549 L -0.368296 -14.526 L -0.337611 -14.4971 L -0.306923 -14.4682 L -0.276235 -14.4391 L -0.245545 -14.4101 L -0.214855 -14.3809 L -0.184163 -14.3517 L -0.15347 -14.3224 L -0.122777 -14.293 L -0.0920833 -14.2636 L -0.0613891 -14.2342 L -0.0306946 -14.2046 L -3.10862e-15 -14.175 L -2.09919e-15 -14.175 L 0.0306946 -14.2046 L 0.0613891 -14.2342 L 0.0920833 -14.2636 L 0.122777 -14.293 L 0.15347 -14.3224 L 0.184163 -14.3517 L 0.214855 -14.3809 L 0.245545 -14.4101 L 0.276235 -14.4391 L 0.306923 -14.4682 L 0.337611 -14.4971 L 0.368296 -14.526 L 0.39898 -14.5549 L 0.429663 -14.5837 L 0.460344 -14.6124 L 0.491022 -14.6411 L 0.521699 -14.6697 L 0.552374 -14.6982 L 0.583046 -14.7267 L 0.613716 -14.7551 L 0.644384 -14.7835 L 0.675049 -14.8118 L 0.705711 -14.84 L 0.736371 -14.8682 L 0.767028 -14.8963 L 0.797682 -14.9244 L 0.828332 -14.9524 L 0.85898 -14.9804 L 0.889625 -15.0083 L 0.920266 -15.0362 L 0.950904 -15.0639 L 0.981538 -15.0917 L 1.01217 -15.1194 L 1.0428 -15.147 L 1.07342 -15.1746 L 1.10404 -15.2021 L 1.13466 -15.2296 L 1.16527 -15.257 L 1.19588 -15.2844 L 1.22648 -15.3117 L 1.25708 -15.3389 L 1.28767 -15.3661 L 1.31826 -15.3933 L 1.34885 -15.4204 L 1.37943 -15.4475 L 1.41001 -15.4745 L 1.44058 -15.5014 L 1.47115 -15.5283 L 1.50172 -15.5552 L 1.53228 -15.582 L 1.56283 -15.6087 L 1.59338 -15.6354 L 1.62392 -15.6621 L 1.65446 -15.6887 L 1.685 -15.7153 L 1.71553 -15.7418 L 1.74605 -15.7683 L 1.77657 -15.7947 L 1.80708 -15.8211 L 1.83759 -15.8474 L 1.86809 -15.8737 L 1.89859 -15.8999 L 1.92908 -15.9261 L 1.95957 -15.9522 L 1.99005 -15.9783 L 2.02053 -16.0044 L 2.051 -16.0304 L 2.08146 -16.0564 L 2.11192 -16.0823 L 2.14237 -16.1082 L 2.17175 -16.1042 L 2.20112 -16.1002 L 2.23049 -16.0962 L 2.25985 -16.0921 L 2.2892 -16.0879 L 2.31854 -16.0837 L 2.34788 -16.0795 L 2.37721 -16.0752 L 2.40653 -16.0708 L 2.43584 -16.0664 L 2.46514 -16.0619 L 2.49444 -16.0574 L 2.52373 -16.0528 L 2.553 -16.0482 L 2.58227 -16.0435 L 2.61154 -16.0388 L 2.64079 -16.034 L 2.67003 -16.0291 L 2.69927 -16.0242 L 2.7285 -16.0193 L 2.75771 -16.0143 L 2.78692 -16.0092 L 2.81612 -16.0041 L 2.84531 -15.999 L 2.87449 -15.9937 L 2.90366 -15.9885 L 2.93282 -15.9831 L 2.96197 -15.9778 L 2.99111 -15.9723 L 3.02025 -15.9669 L 3.04937 -15.9613 L 3.07848 -15.9557 L 3.10758 -15.9501 L 3.13667 -15.9444 L 3.16575 -15.9386 L 3.19482 -15.9328 L 3.22388 -15.927 L 3.25293 -15.9211 L 3.28196 -15.9151 L 3.31099 -15.9091 L 3.34001 -15.903 L 3.36901 -15.8969 L 3.398 -15.8908 L 3.42699 -15.8845 L 3.45596 -15.8783 L 3.48492 -15.8719 L 3.51386 -15.8655 L 3.5428 -15.8591 L 3.57172 -15.8526 L 3.66018 -15.8324 L 3.68906 -15.8257 L 3.71792 -15.819 L 3.74677 -15.8122 L 3.77561 -15.8053 L 3.80443 -15.7984 L 3.83324 -15.7914 L 3.86204 -15.7844 L 3.89083 -15.7773 L 3.91961 -15.7702 L 3.94837 -15.763 L 3.97711 -15.7558 L 4.00585 -15.7485 L 4.03457 -15.7412 L 4.06328 -15.7338 L 4.09197 -15.7264 L 4.12065 -15.7189 L 4.14932 -15.7113 L 4.17797 -15.7037 L 4.20661 -15.6961 L 4.23524 -15.6884 L 4.26385 -15.6806 L 4.29245 -15.6728 L 4.32103 -15.665 L 4.3496 -15.6571 L 4.37815 -15.6491 L 4.40669 -15.6411 L 4.43522 -15.633 L 4.46373 -15.6249 L 4.49222 -15.6167 L 4.5207 -15.6085 L 4.54917 -15.6002 L 4.57762 -15.5919 L 4.60605 -15.5835 L 4.63447 -15.5751 L 4.66288 -15.5666 L 4.69126 -15.5581 L 4.71964 -15.5495 L 4.74799 -15.5409 L 4.77634 -15.5322 L 4.80466 -15.5235 L 4.83297 -15.5147 L 4.86126 -15.5058 L 4.88954 -15.4969 L 4.9178 -15.488 L 4.94605 -15.479 L 4.97427 -15.4699 L 5.00249 -15.4608 L 5.03068 -15.4517 L 5.05886 -15.4425 L 5.07507 -15.406 L 5.09126 -15.3694 L 5.10745 -15.3328 L 5.12361 -15.2961 L 5.13977 -15.2594 L 5.15591 -15.2227 L 5.17203 -15.1859 L 5.18814 -15.1491 L 5.20423 -15.1122 L 5.22031 -15.0753 L 5.23638 -15.0383 L 5.25242 -15.0013 L 5.26846 -14.9643 L 5.28447 -14.9272 L 5.30048 -14.8901 L 5.31646 -14.8529 L 5.33243 -14.8157 L 5.34838 -14.7784 L 5.36432 -14.7411 L 5.38024 -14.7037 L 5.39614 -14.6663 L 5.41202 -14.6288 L 5.42789 -14.5913 L 5.44374 -14.5538 L 5.45958 -14.5162 L 5.47539 -14.4785 L 5.49119 -14.4409 L 5.50696 -14.4031 L 5.52272 -14.3653 L 5.53847 -14.3275 L 5.55419 -14.2896 L 5.56989 -14.2517 L 5.58558 -14.2137 L 5.60124 -14.1756 L 5.61689 -14.1376 L 5.63251 -14.0994 L 5.64812 -14.0612 L 5.6637 -14.023 L 5.67927 -13.9847 L 5.69481 -13.9464 L 5.71033 -13.908 L 5.72583 -13.8696 L 5.74131 -13.8311 L 5.75677 -13.7925 L 5.77221 -13.7539 L 5.78763 -13.7153 L 5.80302 -13.6766 L 5.81839 -13.6378 L 5.83373 -13.599 L 5.84906 -13.5602 L 5.86436 -13.5213 L 5.87964 -13.4823 L 5.89489 -13.4433 L 5.91012 -13.4042 L 5.92532 -13.365 L 5.94051 -13.3259 L 5.95566 -13.2866 L 5.97079 -13.2473 L 5.9859 -13.208 L 6.00098 -13.1685 L 6.01603 -13.1291 L 6.03106 -13.0895 L 6.04606 -13.05 L 6.06103 -13.0103 L 6.07598 -12.9706 L 6.0909 -12.9309 L 6.10579 -12.891 L 6.12066 -12.8512 L 6.13549 -12.8112 L 6.1503 -12.7712 L 6.1503 -12.7712 L 6.1908 -12.7846 L 6.23128 -12.7979 L 6.27172 -12.8111 L 6.31214 -12.8243 L 6.35252 -12.8374 L 6.39288 -12.8505 L 6.43321 -12.8635 L 6.47352 -12.8765 L 6.51379 -12.8894 L 6.55403 -12.9022 L 6.59425 -12.915 L 6.63444 -12.9277 L 6.6746 -12.9404 L 6.71473 -12.953 L 6.75484 -12.9656 L 6.79491 -12.9781 L 6.83496 -12.9905 L 6.87498 -13.003 L 6.91497 -13.0153 L 6.95494 -13.0276 L 6.99487 -13.0399 L 7.03478 -13.052 L 7.07467 -13.0642 L 7.11452 -13.0763 L 7.15435 -13.0883 L 7.19415 -13.1003 L 7.23392 -13.1123 L 7.27366 -13.1242 L 7.31338 -13.136 L 7.35307 -13.1478 L 7.39274 -13.1596 L 7.43237 -13.1713 L 7.47198 -13.1829 L 7.51157 -13.1945 L 7.55112 -13.2061 L 7.59065 -13.2176 L 7.63015 -13.2291 L 7.66963 -13.2405 L 7.70908 -13.2519 L 7.7485 -13.2632 L 7.7879 -13.2745 L 7.82727 -13.2857 L 7.86662 -13.2969 L 7.90594 -13.3081 L 7.94523 -13.3192 L 7.9845 -13.3302 L 8.02374 -13.3413 L 8.06295 -13.3522 L 8.10214 -13.3632 L 8.1413 -13.3741 L 8.18044 -13.3849 L 8.21955 -13.3957 L 8.25864 -13.4065 L 8.2977 -13.4172 L 8.33674 -13.4279 L 8.37575 -13.4385 L 8.41473 -13.4491 L 8.45369 -13.4597 L 8.49263 -13.4702 L 8.53154 -13.4807 L 8.57042 -13.4911 L 8.60928 -13.5016 L 8.64812 -13.5119 L 8.68693 -13.5222 L 8.72571 -13.5325 L 8.76447 -13.5428 L 8.80321 -13.553 L 8.84192 -13.5632 L 8.88061 -13.5733 L 8.91928 -13.5834 L 8.94404 -13.5671 L 8.96877 -13.5508 L 8.99348 -13.5344 L 9.01815 -13.518 L 9.0428 -13.5015 L 9.06741 -13.485 L 9.09199 -13.4684 L 9.11655 -13.4518 L 9.14107 -13.4352 L 9.16556 -13.4185 L 9.19003 -13.4017 L 9.21446 -13.3849 L 9.23886 -13.3681 L 9.26323 -13.3512 L 9.28757 -13.3343 L 9.31188 -13.3173 L 9.33616 -13.3003 L 9.3604 -13.2833 L 9.38462 -13.2662 L 9.4088 -13.249 L 9.43295 -13.2319 L 9.45708 -13.2146 L 9.48117 -13.1973 L 9.50522 -13.18 L 9.52925 -13.1627 L 9.55325 -13.1453 L 9.57721 -13.1278 L 9.60114 -13.1103 L 9.62504 -13.0928 L 9.64891 -13.0752 L 9.67274 -13.0576 L 9.69655 -13.0399 L 9.72032 -13.0222 L 9.74406 -13.0045 L 9.76776 -12.9867 L 9.79144 -12.9688 L 9.81508 -12.9509 L 9.83869 -12.933 L 9.86226 -12.915 L 9.8858 -12.897 L 9.90931 -12.879 L 9.93279 -12.8609 L 9.95624 -12.8427 L 9.97965 -12.8246 L 10.003 -12.8063 L 10.0264 -12.7881 L 10.0497 -12.7697 L 10.073 -12.7514 L 10.0962 -12.733 L 10.1671 -12.6764 L 10.1902 -12.6579 L 10.2133 -12.6392 L 10.2364 -12.6206 L 10.2594 -12.6019 L 10.2823 -12.5832 L 10.3053 -12.5644 L 10.3282 -12.5456 L 10.351 -12.5267 L 10.3739 -12.5078 L 10.3967 -12.4889 L 10.4194 -12.4699 L 10.4422 -12.4508 L 10.4649 -12.4318 L 10.4875 -12.4127 L 10.5101 -12.3935 L 10.5327 -12.3743 L 10.5553 -12.3551 L 10.5778 -12.3358 L 10.6003 -12.3165 L 10.6228 -12.2971 L 10.6452 -12.2777 L 10.6675 -12.2583 L 10.6899 -12.2388 L 10.7122 -12.2193 L 10.7345 -12.1997 L 10.7567 -12.1801 L 10.7789 -12.1605 L 10.8011 -12.1408 L 10.8232 -12.1211 L 10.8453 -12.1013 L 10.8673 -12.0815 L 10.8894 -12.0617 L 10.9114 -12.0418 L 10.9333 -12.0219 L 10.9552 -12.0019 L 10.9771 -11.9819 L 10.9989 -11.9619 L 11.0207 -11.9418 L 11.0425 -11.9217 L 11.0642 -11.9015 L 11.0859 -11.8813 L 11.1076 -11.861 L 11.1292 -11.8408 L 11.1508 -11.8204 L 11.1723 -11.8001 L 11.1938 -11.7797 L 11.2153 -11.7592 L 11.2367 -11.7388 L 11.2581 -11.7182 L 11.2569 -11.6783 L 11.2556 -11.6383 L 11.2543 -11.5983 L 11.253 -11.5583 L 11.2516 -11.5182 L 11.2502 -11.4781 L 11.2488 -11.438 L 11.2473 -11.3978 L 11.2458 -11.3576 L 11.2443 -11.3174 L 11.2427 -11.2771 L 11.2411 -11.2368 L 11.2395 -11.1965 L 11.2378 -11.1561 L 11.2361 -11.1157 L 11.2344 -11.0753 L 11.2326 -11.0348 L 11.2308 -10.9943 L 11.229 -10.9538 L 11.2271 -10.9132 L 11.2252 -10.8726 L 11.2233 -10.8319 L 11.2213 -10.7913 L 11.2193 -10.7506 L 11.2172 -10.7098 L 11.2152 -10.669 L 11.213 -10.6282 L 11.2109 -10.5874 L 11.2087 -10.5465 L 11.2065 -10.5056 L 11.2042 -10.4646 L 11.2019 -10.4236 L 11.1995 -10.3826 L 11.1971 -10.3415 L 11.1947 -10.3004 L 11.1922 -10.2593 L 11.1897 -10.2181 L 11.1872 -10.1769 L 11.1846 -10.1357 L 11.182 -10.0944 L 11.1793 -10.0531 L 11.1766 -10.0117 L 11.1738 -9.9703 L 11.171 -9.92887 L 11.1682 -9.8874 L 11.1653 -9.84589 L 11.1624 -9.80435 L 11.1594 -9.76276 L 11.1564 -9.72114 L 11.1534 -9.67948 L 11.1503 -9.63778 L 11.1471 -9.59604 L 11.1439 -9.55426 L 11.1407 -9.51244 L 11.1374 -9.47059 L 11.1341 -9.42869 L 11.1307 -9.38676 L 11.1273 -9.34479 L 11.1238 -9.30277 L 11.1203 -9.26072 L 11.1167 -9.21863 L 11.1131 -9.17649 L 11.1095 -9.13432 L 11.1058 -9.09211 L 11.102 -9.04985 L 11.0982 -9.00756 L 11.0943 -8.96522 L 11.0904 -8.92285 L 11.0865 -8.88043 L 11.0825 -8.83797 L 11.0825 -8.83797 L 11.1247 -8.83243 L 11.167 -8.82685 L 11.2092 -8.82124 L 11.2513 -8.81558 L 11.2934 -8.80988 L 11.3354 -8.80414 L 11.3774 -8.79836 L 11.4193 -8.79254 L 11.4612 -8.78669 L 11.503 -8.7808 L 11.5448 -8.77486 L 11.5865 -8.7689 L 11.6282 -8.76289 L 11.6699 -8.75685 L 11.7114 -8.75077 L 11.753 -8.74465 L 11.7945 -8.7385 L 11.8359 -8.73231 L 11.8773 -8.72609 L 11.9186 -8.71983 L 11.9599 -8.71354 L 12.0012 -8.70721 L 12.0424 -8.70085 L 12.0836 -8.69446 L 12.1247 -8.68803 L 12.1657 -8.68157 L 12.2067 -8.67507 L 12.2477 -8.66854 L 12.2886 -8.66199 L 12.3295 -8.65539 L 12.3703 -8.64877 L 12.4111 -8.64212 L 12.4519 -8.63543 L 12.4926 -8.62871 L 12.5332 -8.62196 L 12.5738 -8.61519 L 12.6144 -8.60838 L 12.6549 -8.60154 L 12.6954 -8.59467 L 12.7358 -8.58777 L 12.7762 -8.58084 L 12.8166 -8.57389 L 12.8569 -8.5669 L 12.8972 -8.55989 L 12.9374 -8.55285 L 12.9776 -8.54578 L 13.0177 -8.53868 L 13.0578 -8.53156 L 13.0978 -8.52441 L 13.1378 -8.51723 L 13.1778 -8.51002 L 13.2177 -8.50279 L 13.2576 -8.49553 L 13.2975 -8.48825 L 13.3373 -8.48093 L 13.377 -8.4736 L 13.4168 -8.46624 L 13.4565 -8.45885 L 13.4961 -8.45144 L 13.5357 -8.444 L 13.5753 -8.43654 L 13.6148 -8.42905 L 13.6543 -8.42154 L 13.6937 -8.414 L 13.7331 -8.40645 L 13.7725 -8.39886 L 13.8118 -8.39126 L 13.8511 -8.38363 L 13.8904 -8.37598 L 13.9296 -8.3683 L 13.9449 -8.34288 L 13.96 -8.31742 L 13.9752 -8.29194 L 13.9903 -8.26644 L 14.0054 -8.2409 L 14.0204 -8.21534 L 14.0353 -8.18975 L 14.0502 -8.16414 L 14.0651 -8.13849 L 14.0799 -8.11282 L 14.0947 -8.08712 L 14.1094 -8.0614 L 14.1241 -8.03565 L 14.1388 -8.00987 L 14.1533 -7.98406 L 14.1679 -7.95823 L 14.1824 -7.93237 L 14.1968 -7.90649 L 14.2112 -7.88058 L 14.2256 -7.85464 L 14.2399 -7.82868 L 14.2541 -7.80269 L 14.2684 -7.77668 L 14.2825 -7.75063 L 14.2966 -7.72457 L 14.3107 -7.69848 L 14.3247 -7.67236 L 14.3387 -7.64621 L 14.3526 -7.62005 L 14.3665 -7.59385 L 14.3803 -7.56763 L 14.3941 -7.54139 L 14.4078 -7.51512 L 14.4215 -7.48882 L 14.4352 -7.4625 L 14.4487 -7.43616 L 14.4623 -7.40979 L 14.4758 -7.38339 L 14.4892 -7.35698 L 14.5026 -7.33053 L 14.516 -7.30406 L 14.5293 -7.27757 L 14.5425 -7.25106 L 14.5557 -7.22452 L 14.5689 -7.19795 L 14.582 -7.17136 L 14.595 -7.14475 L 14.608 -7.11812 L 14.621 -7.09146 L 14.6604 -7.00971 L 14.6731 -6.98295 L 14.6858 -6.95618 L 14.6985 -6.92938 L 14.7111 -6.90255 L 14.7237 -6.8757 L 14.7362 -6.84883 L 14.7487 -6.82194 L 14.7611 -6.79503 L 14.7735 -6.76809 L 14.7858 -6.74113 L 14.7981 -6.71414 L 14.8103 -6.68714 L 14.8225 -6.66011 L 14.8346 -6.63306 L 14.8467 -6.60599 L 14.8587 -6.5789 L 14.8707 -6.55178 L 14.8826 -6.52464 L 14.8945 -6.49748 L 14.9063 -6.4703 L 14.9181 -6.4431 L 14.9298 -6.41588 L 14.9415 -6.38863 L 14.9531 -6.36136 L 14.9647 -6.33408 L 14.9762 -6.30677 L 14.9877 -6.27944 L 14.9991 -6.25209 L 15.0105 -6.22472 L 15.0218 -6.19732 L 15.0331 -6.16991 L 15.0444 -6.14248 L 15.0555 -6.11502 L 15.0667 -6.08755 L 15.0777 -6.06005 L 15.0888 -6.03254 L 15.0997 -6.00501 L 15.1107 -5.97745 L 15.1216 -5.94988 L 15.1324 -5.92228 L 15.1432 -5.89467 L 15.1539 -5.86703 L 15.1646 -5.83938 L 15.1752 -5.81171 L 15.1858 -5.78402 L 15.1963 -5.75631 L 15.2068 -5.72858 L 15.2172 -5.70083 L 15.2276 -5.67306 L 15.2091 -5.63761 L 15.1906 -5.60215 L 15.1721 -5.56667 L 15.1535 -5.53118 L 15.1349 -5.49567 L 15.1162 -5.46015 L 15.0975 -5.42461 L 15.0788 -5.38905 L 15.06 -5.35348 L 15.0412 -5.31789 L 15.0223 -5.28229 L 15.0034 -5.24668 L 14.9844 -5.21104 L 14.9654 -5.17539 L 14.9463 -5.13973 L 14.9272 -5.10405 L 14.9081 -5.06836 L 14.8889 -5.03264 L 14.8696 -4.99692 L 14.8503 -4.96118 L 14.831 -4.92542 L 14.8116 -4.88965 L 14.7922 -4.85386 L 14.7727 -4.81805 L 14.7532 -4.78223 L 14.7336 -4.7464 L 14.714 -4.71054 L 14.6943 -4.67468 L 14.6746 -4.63879 L 14.6549 -4.6029 L 14.635 -4.56698 L 14.6152 -4.53105 L 14.5953 -4.49511 L 14.5753 -4.45915 L 14.5553 -4.42317 L 14.5352 -4.38718 L 14.5151 -4.35117 L 14.4949 -4.31515 L 14.4747 -4.27911 L 14.4544 -4.24305 L 14.434 -4.20698 L 14.4137 -4.17089 L 14.3932 -4.13479 L 14.3727 -4.09868 L 14.3522 -4.06254 L 14.3316 -4.0264 L 14.3109 -3.99023 L 14.2902 -3.95405 L 14.2694 -3.91786 L 14.2486 -3.88165 L 14.2277 -3.84542 L 14.2068 -3.80918 L 14.1858 -3.77292 L 14.1647 -3.73665 L 14.1436 -3.70037 L 14.1224 -3.66406 L 14.1012 -3.62774 L 14.0799 -3.59141 L 14.0585 -3.55506 L 14.0371 -3.5187 L 14.0157 -3.48232 L 13.9941 -3.44593 L 13.9725 -3.40952 L 13.9509 -3.37309 L 13.9291 -3.33665 L 13.9074 -3.3002 L 13.8855 -3.26373 L 13.8636 -3.22725 L 13.8416 -3.19075 L 13.8196 -3.15423 L 13.8196 -3.15423 L 13.8553 -3.1309 L 13.8909 -3.10755 L 13.9265 -3.08418 L 13.962 -3.0608 L 13.9975 -3.03741 L 14.0328 -3.014 L 14.0681 -2.99058 L 14.1034 -2.96715 L 14.1386 -2.9437 L 14.1737 -2.92024 L 14.2088 -2.89677 L 14.2438 -2.87329 L 14.2787 -2.84979 L 14.3136 -2.82628 L 14.3485 -2.80276 L 14.3832 -2.77923 L 14.4179 -2.75569 L 14.4526 -2.73213 L 14.4872 -2.70857 L 14.5217 -2.68499 L 14.5562 -2.6614 L 14.5906 -2.6378 L 14.625 -2.6142 L 14.6593 -2.59058 L 14.6935 -2.56695 L 14.7277 -2.54331 L 14.7619 -2.51966 L 14.7959 -2.49601 L 14.83 -2.47234 L 14.8639 -2.44867 L 14.8979 -2.42498 L 14.9317 -2.40129 L 14.9655 -2.37758 L 14.9993 -2.35387 L 15.033 -2.33016 L 15.0666 -2.30643 L 15.1002 -2.28269 L 15.1338 -2.25895 L 15.1673 -2.2352 L 15.2007 -2.21144 L 15.2341 -2.18767 L 15.2674 -2.1639 L 15.3007 -2.14012 L 15.3339 -2.11633 L 15.3671 -2.09253 L 15.4002 -2.06873 L 15.4333 -2.04492 L 15.4664 -2.02111 L 15.4993 -1.99729 L 15.5323 -1.97346 L 15.5652 -1.94963 L 15.598 -1.92578 L 15.6308 -1.90194 L 15.6635 -1.87809 L 15.6962 -1.85423 L 15.7289 -1.83037 L 15.7615 -1.8065 L 15.794 -1.78262 L 15.8265 -1.75874 L 15.859 -1.73486 L 15.8914 -1.71097 L 15.9237 -1.68707 L 15.9561 -1.66317 L 15.9883 -1.63927 L 16.0206 -1.61536 L 16.0527 -1.59144 L 16.0849 -1.56753 L 16.117 -1.5436 L 16.149 -1.51968 L 16.181 -1.49575 L 16.1837 -1.46623 L 16.1864 -1.4367 L 16.189 -1.40717 L 16.1915 -1.37764 L 16.194 -1.3481 L 16.1964 -1.31856 L 16.1988 -1.28901 L 16.2011 -1.25946 L 16.2034 -1.2299 L 16.2056 -1.20034 L 16.2078 -1.17078 L 16.2099 -1.14121 L 16.2119 -1.11164 L 16.2139 -1.08207 L 16.2159 -1.05249 L 16.2178 -1.0229 L 16.2196 -0.993318 L 16.2214 -0.963729 L 16.2231 -0.934137 L 16.2248 -0.904542 L 16.2264 -0.874943 L 16.228 -0.845342 L 16.2295 -0.815738 L 16.231 -0.786131 L 16.2324 -0.756522 L 16.2337 -0.72691 L 16.235 -0.697295 L 16.2363 -0.667678 L 16.2375 -0.63806 L 16.2386 -0.608439 L 16.2397 -0.578815 L 16.2407 -0.54919 L 16.2417 -0.519564 L 16.2426 -0.489935 L 16.2435 -0.460305 L 16.2443 -0.430673 L 16.2451 -0.40104 L 16.2458 -0.371406 L 16.2464 -0.34177 L 16.247 -0.312133 L 16.2475 -0.282495 L 16.248 -0.252856 L 16.2485 -0.223217 L 16.2488 -0.193576 L 16.2492 -0.163935 L 16.2494 -0.134294 L 16.2497 -0.104651 L 16.2498 -0.0750091 L 16.2499 -0.0453664Z"
id="path1" />
</g>
</svg>
