<?xml version="1.0" encoding="UTF-8" standalone="no"?>
<svg version="1.1">
<g
style="fill:none;stroke:#000000;stroke-opacity:1;stroke-width:0.1">
<path d="M 16.375 0.0354234 L 16.3749 0.0646487 L 16.3747 0.0938737 L 16.3745 0.123098 L 16.3743 0.152323 L 16.374 0.181547 L 16.3736 0.21077 L 16.3732 0.239992 L 16.3728 0.269214 L 16.3723 0.298435 L 16.3717 0.327655 L 16.3711 0.356874 L 16.3704 0.386092 L 16.3697 0.415309 L 16.369 0.444524 L 16.3681 0.473738 L 16.3673 0.50295 L 16.3664 0.532161 L 16.3654 0.56137 L 16.3643 0.590577 L 16.3633 0.619782 L 16.3621 0.648986 L 16.361 0.678187 L 16.3597 0.707386 L 16.3584 0.736583 L 16.3571 0.765778 L 16.3557 0.79497 L 16.3542 0.82416 L 16.3527 0.853347 L 16.3512 0.882531 L 16.3496 0.911712 L 16.3479 0.940891 L 16.3462 0.970066 L 16.3445 0.999239 L 16.3427 1.02841 L 16.3408 1.05757 L 16.3389 1.08674 L 16.3369 1.1159 L 16.3349 1.14505 L 16.3328 1.1742 L 16.3307 1.20335 L 16.3286 1.2325 L 16.3263 1.26164 L 16.324 1.29077 L 16.3217 1.31991 L 16.3193 1.34903 L 16.3169 1.37816 L 16.3144 1.40728 L 16.3119 1.43639 L 16.3093 1.4655 L 16.3066 1.49461 L 16.304 1.52371 L 16.2724 1.5473 L 16.2408 1.57089 L 16.2091 1.59447 L 16.1774 1.61805 L 16.1456 1.64162 L 16.1138 1.66519 L 16.082 1.68876 L 16.0501 1.71232 L 16.0182 1.73588 L 15.9862 1.75943 L 15.9542 1.78298 L 15.9221 1.80652 L 15.89 1.83005 L 15.8579 1.85359 L 15.8257 1.87711 L 15.7934 1.90063 L 15.7612 1.92415 L 15.7288 1.94766 L 15.6964 1.97116 L 15.664 1.99466 L 15.6315 2.01815 L 15.599 2.04163 L 15.5664 2.06511 L 15.5338 2.08859 L 15.5011 2.11205 L 15.4684 2.13551 L 15.4357 2.15896 L 15.4028 2.18241 L 15.37 2.20585 L 15.3371 2.22928 L 15.3041 2.25271 L 15.2711 2.27612 L 15.238 2.29953 L 15.2049 2.32294 L 15.1718 2.34633 L 15.1385 2.36972 L 15.1053 2.3931 L 15.072 2.41647 L 15.0386 2.43983 L 15.0052 2.46318 L 14.9717 2.48653 L 14.9382 2.50986 L 14.9046 2.53319 L 14.8709 2.55651 L 14.8372 2.57982 L 14.8035 2.60312 L 14.7697 2.62641 L 14.7359 2.64969 L 14.7019 2.67296 L 14.668 2.69622 L 14.634 2.71947 L 14.5999 2.74271 L 14.5658 2.76594 L 14.5316 2.78915 L 14.4973 2.81236 L 14.463 2.83556 L 14.4287 2.85874 L 14.3943 2.88192 L 14.3598 2.90508 L 14.3253 2.92823 L 14.2907 2.95137 L 14.256 2.9745 L 14.2213 2.99761 L 14.1865 3.02071 L 14.1517 3.0438 L 14.1168 3.06687 L 14.0819 3.08994 L 14.0469 3.11299 L 14.0118 3.13602 L 13.9767 3.15904 L 13.9415 3.18205 L 13.9415 3.18205 L 13.9632 3.21805 L 13.9849 3.25403 L 14.0065 3.29001 L 14.028 3.32596 L 14.0495 3.3619 L 14.0709 3.39783 L 14.0923 3.43375 L 14.1136 3.46964 L 14.1348 3.50553 L 14.156 3.5414 L 14.1771 3.57725 L 14.1982 3.61309 L 14.2192 3.64892 L 14.2402 3.68473 L 14.261 3.72053 L 14.2819 3.75631 L 14.3027 3.79207 L 14.3234 3.82783 L 14.3441 3.86356 L 14.3647 3.89929 L 14.3852 3.93499 L 14.4058 3.97069 L 14.4262 4.00636 L 14.4466 4.04203 L 14.4669 4.07767 L 14.4872 4.11331 L 14.5075 4.14892 L 14.5277 4.18453 L 14.5478 4.22011 L 14.5679 4.25569 L 14.5879 4.29124 L 14.6079 4.32679 L 14.6278 4.36231 L 14.6477 4.39783 L 14.6675 4.43332 L 14.6873 4.46881 L 14.707 4.50427 L 14.7267 4.53973 L 14.7464 4.57516 L 14.7659 4.61059 L 14.7855 4.64599 L 14.805 4.68138 L 14.8244 4.71676 L 14.8438 4.75212 L 14.8631 4.78747 L 14.8824 4.8228 L 14.9017 4.85812 L 14.9209 4.89342 L 14.94 4.92871 L 14.9592 4.96398 L 14.9782 4.99923 L 14.9973 5.03447 L 15.0162 5.0697 L 15.0352 5.10491 L 15.0541 5.14011 L 15.0729 5.17529 L 15.0917 5.21045 L 15.1105 5.24561 L 15.1292 5.28074 L 15.1478 5.31586 L 15.1665 5.35097 L 15.1851 5.38606 L 15.2036 5.42114 L 15.2221 5.4562 L 15.2406 5.49124 L 15.259 5.52627 L 15.2774 5.56129 L 15.2957 5.59629 L 15.314 5.63128 L 15.3323 5.66625 L 15.3505 5.70121 L 15.3403 5.72859 L 15.33 5.75596 L 15.3197 5.78331 L 15.3094 5.81065 L 15.299 5.83796 L 15.2885 5.86526 L 15.278 5.89253 L 15.2675 5.91979 L 15.2569 5.94703 L 15.2463 5.97425 L 15.2356 6.00145 L 15.2249 6.02864 L 15.2141 6.0558 L 15.2032 6.08294 L 15.1924 6.11007 L 15.1814 6.13717 L 15.1705 6.16426 L 15.1594 6.19132 L 15.1484 6.21837 L 15.1372 6.24539 L 15.1261 6.2724 L 15.1148 6.29939 L 15.1036 6.32635 L 15.0923 6.3533 L 15.0809 6.38023 L 15.0695 6.40713 L 15.058 6.43402 L 15.0465 6.46088 L 15.035 6.48772 L 15.0234 6.51455 L 15.0117 6.54135 L 15 6.56813 L 14.9883 6.59489 L 14.9765 6.62163 L 14.9646 6.64835 L 14.9527 6.67505 L 14.9408 6.70173 L 14.9288 6.72838 L 14.9168 6.75501 L 14.9047 6.78163 L 14.8926 6.80822 L 14.8804 6.83479 L 14.8682 6.86133 L 14.8559 6.88786 L 14.8436 6.91436 L 14.8312 6.94084 L 14.8188 6.9673 L 14.8064 6.99374 L 14.7939 7.02015 L 14.7813 7.04654 L 14.7687 7.07291 L 14.738 7.13675 L 14.7252 7.16304 L 14.7124 7.18931 L 14.6995 7.21555 L 14.6866 7.24178 L 14.6737 7.26798 L 14.6607 7.29415 L 14.6477 7.32031 L 14.6346 7.34644 L 14.6214 7.37255 L 14.6082 7.39863 L 14.595 7.42469 L 14.5817 7.45073 L 14.5684 7.47674 L 14.5551 7.50273 L 14.5416 7.5287 L 14.5282 7.55464 L 14.5147 7.58055 L 14.5011 7.60645 L 14.4875 7.63232 L 14.4739 7.65816 L 14.4602 7.68398 L 14.4465 7.70978 L 14.4327 7.73555 L 14.4188 7.76129 L 14.405 7.78701 L 14.391 7.81271 L 14.3771 7.83838 L 14.3631 7.86403 L 14.349 7.88965 L 14.3349 7.91525 L 14.3208 7.94082 L 14.3066 7.96637 L 14.2923 7.99189 L 14.278 8.01738 L 14.2637 8.04285 L 14.2493 8.0683 L 14.2349 8.09372 L 14.2204 8.11911 L 14.2059 8.14448 L 14.1914 8.16982 L 14.1768 8.19513 L 14.1621 8.22042 L 14.1474 8.24569 L 14.1327 8.27092 L 14.1179 8.29613 L 14.1031 8.32132 L 14.0882 8.34647 L 14.0733 8.3716 L 14.0583 8.39671 L 14.0433 8.42178 L 14.0282 8.44684 L 13.9896 8.45439 L 13.9508 8.46192 L 13.9121 8.46943 L 13.8733 8.47692 L 13.8344 8.48438 L 13.7956 8.49182 L 13.7567 8.49924 L 13.7177 8.50663 L 13.6787 8.514 L 13.6397 8.52135 L 13.6006 8.52867 L 13.5615 8.53597 L 13.5224 8.54325 L 13.4832 8.5505 L 13.444 8.55773 L 13.4047 8.56493 L 13.3655 8.5721 L 13.3261 8.57925 L 13.2867 8.58638 L 13.2473 8.59348 L 13.2079 8.60055 L 13.1684 8.6076 L 13.1289 8.61462 L 13.0893 8.62162 L 13.0497 8.62859 L 13.01 8.63553 L 12.9703 8.64244 L 12.9306 8.64933 L 12.8908 8.65619 L 12.851 8.66302 L 12.8111 8.66982 L 12.7712 8.6766 L 12.7313 8.68334 L 12.6913 8.69006 L 12.6512 8.69675 L 12.6112 8.70341 L 12.5711 8.71004 L 12.5309 8.71664 L 12.4907 8.7232 L 12.4504 8.72974 L 12.4102 8.73625 L 12.3698 8.74273 L 12.3294 8.74918 L 12.289 8.75559 L 12.2486 8.76198 L 12.208 8.76833 L 12.1675 8.77465 L 12.1269 8.78093 L 12.0862 8.78719 L 12.0456 8.79341 L 12.0048 8.7996 L 11.964 8.80575 L 11.9232 8.81187 L 11.8823 8.81796 L 11.8414 8.82401 L 11.8004 8.83003 L 11.7594 8.83601 L 11.7184 8.84196 L 11.6773 8.84787 L 11.6361 8.85374 L 11.5949 8.85958 L 11.5536 8.86538 L 11.5123 8.87115 L 11.471 8.87688 L 11.4296 8.88257 L 11.3882 8.88822 L 11.3467 8.89384 L 11.3051 8.89941 L 11.2635 8.90495 L 11.2219 8.91045 L 11.1802 8.9159 L 11.1802 8.9159 L 11.1841 8.95777 L 11.1881 8.99959 L 11.1919 9.04137 L 11.1957 9.08311 L 11.1995 9.12482 L 11.2032 9.16648 L 11.2069 9.20811 L 11.2105 9.24969 L 11.214 9.29124 L 11.2176 9.33275 L 11.221 9.37422 L 11.2245 9.41565 L 11.2279 9.45704 L 11.2312 9.4984 L 11.2345 9.53972 L 11.2377 9.581 L 11.2409 9.62224 L 11.2441 9.66344 L 11.2472 9.70461 L 11.2503 9.74574 L 11.2533 9.78683 L 11.2563 9.82788 L 11.2593 9.8689 L 11.2622 9.90988 L 11.265 9.95083 L 11.2679 9.99174 L 11.2706 10.0326 L 11.2734 10.0734 L 11.2761 10.1142 L 11.2787 10.155 L 11.2814 10.1957 L 11.2839 10.2364 L 11.2865 10.2771 L 11.289 10.3177 L 11.2914 10.3583 L 11.2939 10.3988 L 11.2963 10.4394 L 11.2986 10.4798 L 11.3009 10.5203 L 11.3032 10.5607 L 11.3054 10.6011 L 11.3076 10.6414 L 11.3098 10.6817 L 11.3119 10.722 L 11.314 10.7622 L 11.3161 10.8024 L 11.3181 10.8426 L 11.3201 10.8827 L 11.322 10.9229 L 11.3239 10.9629 L 11.3258 11.003 L 11.3277 11.043 L 11.3295 11.0829 L 11.3313 11.1229 L 11.333 11.1628 L 11.3347 11.2027 L 11.3364 11.2425 L 11.3381 11.2823 L 11.3397 11.3221 L 11.3413 11.3618 L 11.3428 11.4015 L 11.3443 11.4412 L 11.3458 11.4809 L 11.3473 11.5205 L 11.3487 11.5601 L 11.3501 11.5996 L 11.3515 11.6391 L 11.3528 11.6786 L 11.3541 11.7181 L 11.3554 11.7575 L 11.3566 11.7969 L 11.3356 11.8172 L 11.3145 11.8374 L 11.2933 11.8576 L 11.2721 11.8777 L 11.2509 11.8978 L 11.2297 11.9179 L 11.2084 11.9379 L 11.187 11.9579 L 11.1657 11.9778 L 11.1443 11.9977 L 11.1229 12.0176 L 11.1014 12.0374 L 11.0799 12.0572 L 11.0584 12.077 L 11.0368 12.0967 L 11.0152 12.1164 L 10.9935 12.136 L 10.9719 12.1556 L 10.9501 12.1752 L 10.9284 12.1947 L 10.9066 12.2142 L 10.8848 12.2336 L 10.8629 12.253 L 10.8411 12.2724 L 10.8191 12.2917 L 10.7972 12.311 L 10.7752 12.3303 L 10.7532 12.3495 L 10.7311 12.3687 L 10.709 12.3878 L 10.6869 12.4069 L 10.6647 12.4259 L 10.6425 12.445 L 10.6203 12.4639 L 10.5981 12.4829 L 10.5758 12.5018 L 10.5534 12.5206 L 10.5311 12.5394 L 10.5087 12.5582 L 10.4862 12.5769 L 10.4638 12.5956 L 10.4413 12.6143 L 10.4187 12.6329 L 10.3962 12.6515 L 10.3736 12.67 L 10.351 12.6885 L 10.3283 12.707 L 10.3056 12.7254 L 10.2829 12.7438 L 10.2601 12.7621 L 10.2373 12.7804 L 10.1819 12.8245 L 10.159 12.8427 L 10.1361 12.8608 L 10.1131 12.8789 L 10.0901 12.8969 L 10.0671 12.9149 L 10.044 12.9328 L 10.0209 12.9507 L 9.99779 12.9686 L 9.97462 12.9864 L 9.95143 13.0042 L 9.92821 13.022 L 9.90495 13.0397 L 9.88166 13.0573 L 9.85834 13.0749 L 9.83499 13.0925 L 9.81161 13.11 L 9.78819 13.1275 L 9.76475 13.145 L 9.74127 13.1624 L 9.71776 13.1797 L 9.69423 13.1971 L 9.67066 13.2143 L 9.64706 13.2316 L 9.62343 13.2488 L 9.59977 13.2659 L 9.57607 13.2831 L 9.55235 13.3001 L 9.5286 13.3171 L 9.50482 13.3341 L 9.481 13.3511 L 9.45716 13.368 L 9.43329 13.3848 L 9.40938 13.4016 L 9.38545 13.4184 L 9.36149 13.4351 L 9.33749 13.4518 L 9.31347 13.4685 L 9.28942 13.4851 L 9.26533 13.5016 L 9.24122 13.5182 L 9.21708 13.5346 L 9.19291 13.5511 L 9.16871 13.5674 L 9.14448 13.5838 L 9.12022 13.6001 L 9.09594 13.6163 L 9.07162 13.6325 L 9.04727 13.6487 L 9.0229 13.6648 L 8.9985 13.6809 L 8.97407 13.697 L 8.93593 13.687 L 8.89777 13.677 L 8.85959 13.6669 L 8.82139 13.6568 L 8.78316 13.6467 L 8.74491 13.6365 L 8.70664 13.6263 L 8.66834 13.6161 L 8.63001 13.6058 L 8.59167 13.5955 L 8.55329 13.5852 L 8.5149 13.5748 L 8.47648 13.5643 L 8.43804 13.5539 L 8.39957 13.5434 L 8.36108 13.5328 L 8.32256 13.5223 L 8.28402 13.5116 L 8.24545 13.501 L 8.20686 13.4903 L 8.16825 13.4795 L 8.12961 13.4687 L 8.09094 13.4579 L 8.05225 13.447 L 8.01354 13.4361 L 7.9748 13.4252 L 7.93603 13.4142 L 7.89724 13.4031 L 7.85843 13.3921 L 7.81958 13.3809 L 7.78072 13.3698 L 7.74183 13.3586 L 7.70291 13.3473 L 7.66397 13.336 L 7.625 13.3247 L 7.586 13.3133 L 7.54698 13.3018 L 7.50794 13.2904 L 7.46887 13.2788 L 7.42977 13.2673 L 7.39065 13.2557 L 7.3515 13.244 L 7.31232 13.2323 L 7.27312 13.2205 L 7.23389 13.2087 L 7.19464 13.1969 L 7.15535 13.185 L 7.11605 13.173 L 7.07671 13.161 L 7.03735 13.149 L 6.99797 13.1369 L 6.95855 13.1247 L 6.91911 13.1125 L 6.87964 13.1003 L 6.84015 13.088 L 6.80063 13.0756 L 6.76108 13.0632 L 6.7215 13.0507 L 6.6819 13.0382 L 6.64227 13.0257 L 6.60261 13.013 L 6.56293 13.0004 L 6.52322 12.9876 L 6.48348 12.9749 L 6.44371 12.962 L 6.40392 12.9491 L 6.3641 12.9362 L 6.32425 12.9232 L 6.28437 12.9101 L 6.24447 12.897 L 6.20454 12.8839 L 6.20454 12.8839 L 6.18994 12.9233 L 6.17531 12.9627 L 6.16066 13.002 L 6.14598 13.0412 L 6.13127 13.0804 L 6.11654 13.1196 L 6.10178 13.1587 L 6.08699 13.1977 L 6.07218 13.2367 L 6.05735 13.2756 L 6.04248 13.3145 L 6.0276 13.3533 L 6.01269 13.3921 L 5.99775 13.4308 L 5.98279 13.4694 L 5.96781 13.508 L 5.95281 13.5466 L 5.93778 13.5851 L 5.92272 13.6235 L 5.90765 13.6619 L 5.89255 13.7003 L 5.87743 13.7386 L 5.86229 13.7768 L 5.84713 13.815 L 5.83194 13.8531 L 5.81673 13.8912 L 5.80151 13.9292 L 5.78626 13.9672 L 5.77099 14.0051 L 5.7557 14.043 L 5.74039 14.0808 L 5.72506 14.1186 L 5.7097 14.1564 L 5.69433 14.194 L 5.67894 14.2317 L 5.66354 14.2693 L 5.64811 14.3068 L 5.63266 14.3443 L 5.61719 14.3817 L 5.60171 14.4191 L 5.58621 14.4565 L 5.57069 14.4938 L 5.55515 14.531 L 5.53959 14.5682 L 5.52402 14.6054 L 5.50843 14.6425 L 5.49282 14.6796 L 5.47719 14.7166 L 5.46155 14.7536 L 5.44589 14.7905 L 5.43022 14.8274 L 5.41452 14.8643 L 5.39881 14.9011 L 5.38309 14.9378 L 5.36735 14.9745 L 5.35159 15.0112 L 5.33582 15.0478 L 5.32004 15.0844 L 5.30423 15.121 L 5.28842 15.1574 L 5.27259 15.1939 L 5.25674 15.2303 L 5.24088 15.2667 L 5.225 15.303 L 5.20911 15.3393 L 5.19321 15.3755 L 5.17729 15.4117 L 5.16136 15.4479 L 5.14541 15.484 L 5.12945 15.5201 L 5.11348 15.5561 L 5.08571 15.5652 L 5.05792 15.5743 L 5.03011 15.5833 L 5.00229 15.5922 L 4.97446 15.6011 L 4.9466 15.61 L 4.91874 15.6188 L 4.89085 15.6275 L 4.86295 15.6362 L 4.83504 15.6449 L 4.80711 15.6535 L 4.77916 15.6621 L 4.7512 15.6706 L 4.72323 15.679 L 4.69524 15.6874 L 4.66723 15.6958 L 4.63921 15.7041 L 4.61118 15.7123 L 4.58313 15.7205 L 4.55506 15.7287 L 4.52698 15.7368 L 4.49889 15.7449 L 4.47078 15.7529 L 4.44266 15.7608 L 4.41452 15.7687 L 4.38637 15.7766 L 4.35821 15.7844 L 4.33003 15.7921 L 4.30184 15.7998 L 4.27363 15.8075 L 4.24541 15.8151 L 4.21718 15.8226 L 4.18893 15.8301 L 4.16067 15.8376 L 4.1324 15.845 L 4.10412 15.8523 L 4.07582 15.8596 L 4.0475 15.8669 L 4.01918 15.8741 L 3.99084 15.8812 L 3.96249 15.8883 L 3.93413 15.8954 L 3.90575 15.9024 L 3.87736 15.9093 L 3.84896 15.9162 L 3.82055 15.9231 L 3.79213 15.9299 L 3.76369 15.9366 L 3.73524 15.9433 L 3.70678 15.9499 L 3.67831 15.9565 L 3.60924 15.9723 L 3.58072 15.9787 L 3.5522 15.9851 L 3.52367 15.9914 L 3.49512 15.9976 L 3.46656 16.0039 L 3.43799 16.01 L 3.40941 16.0161 L 3.38082 16.0222 L 3.35222 16.0282 L 3.32361 16.0342 L 3.29499 16.0401 L 3.26636 16.0459 L 3.23771 16.0517 L 3.20906 16.0575 L 3.1804 16.0632 L 3.15172 16.0688 L 3.12304 16.0744 L 3.09434 16.08 L 3.06564 16.0855 L 3.03693 16.0909 L 3.0082 16.0963 L 2.97947 16.1017 L 2.95073 16.1069 L 2.92198 16.1122 L 2.89322 16.1174 L 2.86445 16.1225 L 2.83567 16.1276 L 2.80688 16.1326 L 2.77808 16.1376 L 2.74927 16.1426 L 2.72046 16.1474 L 2.69164 16.1523 L 2.6628 16.157 L 2.63396 16.1618 L 2.60511 16.1664 L 2.57626 16.1711 L 2.54739 16.1756 L 2.51852 16.1802 L 2.48964 16.1846 L 2.46075 16.1891 L 2.43185 16.1934 L 2.40294 16.1977 L 2.37403 16.202 L 2.34511 16.2062 L 2.31618 16.2104 L 2.28725 16.2145 L 2.25831 16.2185 L 2.22936 16.2225 L 2.2004 16.2265 L 2.17144 16.2304 L 2.14246 16.2342 L 2.11244 16.2087 L 2.08241 16.1831 L 2.05237 16.1575 L 2.02232 16.1318 L 1.99228 16.1061 L 1.96222 16.0804 L 1.93216 16.0546 L 1.9021 16.0287 L 1.87203 16.0028 L 1.84195 15.9769 L 1.81187 15.9509 L 1.78178 15.9249 L 1.75169 15.8989 L 1.7216 15.8728 L 1.6915 15.8466 L 1.66139 15.8204 L 1.63128 15.7941 L 1.60117 15.7679 L 1.57105 15.7415 L 1.54092 15.7151 L 1.51079 15.6887 L 1.48066 15.6622 L 1.45052 15.6357 L 1.42038 15.6091 L 1.39023 15.5825 L 1.36008 15.5558 L 1.32992 15.5291 L 1.29976 15.5023 L 1.2696 15.4755 L 1.23943 15.4486 L 1.20926 15.4217 L 1.17908 15.3947 L 1.1489 15.3677 L 1.11872 15.3406 L 1.08853 15.3135 L 1.05834 15.2863 L 1.02814 15.2591 L 0.997944 15.2318 L 0.967742 15.2044 L 0.937537 15.1771 L 0.907328 15.1496 L 0.877116 15.1221 L 0.846901 15.0946 L 0.816683 15.067 L 0.786463 15.0393 L 0.756239 15.0116 L 0.726012 14.9838 L 0.695783 14.956 L 0.665551 14.9281 L 0.635316 14.9002 L 0.60508 14.8722 L 0.574841 14.8442 L 0.544599 14.8161 L 0.514356 14.7879 L 0.48411 14.7597 L 0.453863 14.7314 L 0.423614 14.7031 L 0.393363 14.6747 L 0.363111 14.6462 L 0.332857 14.6177 L 0.302602 14.5891 L 0.272345 14.5605 L 0.242087 14.5318 L 0.211829 14.503 L 0.181569 14.4742 L 0.151309 14.4453 L 0.121048 14.4164 L 0.0907864 14.3874 L 0.0605245 14.3583 L 0.0302623 14.3292 L 8.88178e-16 14.3 L 8.63067e-16 14.3 L -0.0302623 14.3292 L -0.0605245 14.3583 L -0.0907864 14.3874 L -0.121048 14.4164 L -0.151309 14.4453 L -0.181569 14.4742 L -0.211829 14.503 L -0.242087 14.5318 L -0.272345 14.5605 L -0.302602 14.5891 L -0.332857 14.6177 L -0.363111 14.6462 L -0.393363 14.6747 L -0.423614 14.7031 L -0.453863 14.7314 L -0.48411 14.7597 L -0.514356 14.7879 L -0.544599 14.8161 L -0.574841 14.8442 L -0.60508 14.8722 L -0.635316 14.9002 L -0.665551 14.9281 L -0.695783 14.956 L -0.726012 14.9838 L -0.756239 15.0116 L -0.786463 15.0393 L -0.816683 15.067 L -0.846901 15.0946 L -0.877116 15.1221 L -0.907328 15.1496 L -0.937537 15.1771 L -0.967742 15.2044 L -0.997944 15.2318 L -1.02814 15.2591 L -1.05834 15.2863 L -1.08853 15.3135 L -1.11872 15.3406 L -1.1489 15.3677 L -1.17908 15.3947 L -1.20926 15.4217 L -1.23943 15.4486 L -1.2696 15.4755 L -1.29976 15.5023 L -1.32992 15.5291 L -1.36008 15.5558 L -1.39023 15.5825 L -1.42038 15.6091 L -1.45052 15.6357 L -1.48066 15.6622 L -1.51079 15.6887 L -1.54092 15.7151 L -1.57105 15.7415 L -1.60117 15.7679 L -1.63128 15.7941 L -1.66139 15.8204 L -1.6915 15.8466 L -1.7216 15.8728 L -1.75169 15.8989 L -1.78178 15.9249 L -1.81187 15.9509 L -1.84195 15.9769 L -1.87203 16.0028 L -1.9021 16.0287 L -1.93216 16.0546 L -1.96222 16.0804 L -1.99228 16.1061 L -2.02232 16.1318 L -2.05237 16.1575 L -2.08241 16.1831 L -2.11244 16.2087 L -2.14246 16.2342 L -2.17144 16.2304 L -2.2004 16.2265 L -2.22936 16.2225 L -2.25831 16.2185 L -2.28725 16.2145 L -2.31618 16.2104 L -2.34511 16.2062 L -2.37403 16.202 L -2.40294 16.1977 L -2.43185 16.1934 L -2.46075 16.1891 L -2.48964 16.1846 L -2.51852 16.1802 L -2.54739 16.1756 L -2.57626 16.1711 L -2.60511 16.1664 L -2.63396 16.1618 L -2.6628 16.157 L -2.69164 16.1523 L -2.72046 16.1474 L -2.74927 16.1426 L -2.77808 16.1376 L -2.80688 16.1326 L -2.83567 16.1276 L -2.86445 16.1225 L -2.89322 16.1174 L -2.92198 16.1122 L -2.95073 16.1069 L -2.97947 16.1017 L -3.0082 16.0963 L -3.03693 16.0909 L -3.06564 16.0855 L -3.09434 16.08 L -3.12304 16.0744 L -3.15172 16.0688 L -3.1804 16.0632 L -3.20906 16.0575 L -3.23771 16.0517 L -3.26636 16.0459 L -3.29499 16.0401 L -3.32361 16.0342 L -3.35222 16.0282 L -3.38082 16.0222 L -3.40941 16.0161 L -3.43799 16.01 L -3.46656 16.0039 L -3.49512 15.9976 L -3.52367 15.9914 L -3.5522 15.9851 L -3.58072 15.9787 L -3.60924 15.9723 L -3.67831 15.9565 L -3.70678 15.9499 L -3.73524 15.9433 L -3.76369 15.9366 L -3.79213 15.9299 L -3.82055 15.9231 L -3.84896 15.9162 L -3.87736 15.9093 L -3.90575 15.9024 L -3.93413 15.8954 L -3.96249 15.8883 L -3.99084 15.8812 L -4.01918 15.8741 L -4.0475 15.8669 L -4.07582 15.8596 L -4.10412 15.8523 L -4.1324 15.845 L -4.16067 15.8376 L -4.18893 15.8301 L -4.21718 15.8226 L -4.24541 15.8151 L -4.27363 15.8075 L -4.30184 15.7998 L -4.33003 15.7921 L -4.35821 15.7844 L -4.38637 15.7766 L -4.41452 15.7687 L -4.44266 15.7608 L -4.47078 15.7529 L -4.49889 15.7449 L -4.52698 15.7368 L -4.55506 15.7287 L -4.58313 15.7205 L -4.61118 15.7123 L -4.63921 15.7041 L -4.66723 15.6958 L -4.69524 15.6874 L -4.72323 15.679 L -4.7512 15.6706 L -4.77916 15.6621 L -4.80711 15.6535 L -4.83504 15.6449 L -4.86295 15.6362 L -4.89085 15.6275 L -4.91874 15.6188 L -4.9466 15.61 L -4.97446 15.6011 L -5.00229 15.5922 L -5.03011 15.5833 L -5.05792 15.5743 L -5.08571 15.5652 L -5.11348 15.5561 L -5.12945 15.5201 L -5.14541 15.484 L -5.16136 15.4479 L -5.17729 15.4117 L -5.19321 15.3755 L -5.20911 15.3393 L -5.225 15.303 L -5.24088 15.2667 L -5.25674 15.2303 L -5.27259 15.1939 L -5.28842 15.1574 L -5.30423 15.121 L -5.32004 15.0844 L -5.33582 15.0478 L -5.35159 15.0112 L -5.36735 14.9745 L -5.38309 14.9378 L -5.39881 14.9011 L -5.41452 14.8643 L -5.43022 14.8274 L -5.44589 14.7905 L -5.46155 14.7536 L -5.47719 14.7166 L -5.49282 14.6796 L -5.50843 14.6425 L -5.52402 14.6054 L -5.53959 14.5682 L -5.55515 14.531 L -5.57069 14.4938 L -5.58621 14.4565 L -5.60171 14.4191 L -5.61719 14.3817 L -5.63266 14.3443 L -5.64811 14.3068 L -5.66354 14.2693 L -5.67894 14.2317 L -5.69433 14.194 L -5.7097 14.1564 L -5.72506 14.1186 L -5.74039 14.0808 L -5.7557 14.043 L -5.77099 14.0051 L -5.78626 13.9672 L -5.80151 13.9292 L -5.81673 13.8912 L -5.83194 13.8531 L -5.84713 13.815 L -5.86229 13.7768 L -5.87743 13.7386 L -5.89255 13.7003 L -5.90765 13.6619 L -5.92272 13.6235 L -5.93778 13.5851 L -5.95281 13.5466 L -5.96781 13.508 L -5.98279 13.4694 L -5.99775 13.4308 L -6.01269 13.3921 L -6.0276 13.3533 L -6.04248 13.3145 L -6.05735 13.2756 L -6.07218 13.2367 L -6.08699 13.1977 L -6.10178 13.1587 L -6.11654 13.1196 L -6.13127 13.0804 L -6.14598 13.0412 L -6.16066 13.002 L -6.17531 12.9627 L -6.18994 12.9233 L -6.20454 12.8839 L -6.20454 12.8839 L -6.24447 12.897 L -6.28437 12.9101 L -6.32425 12.9232 L -6.3641 12.9362 L -6.40392 12.9491 L -6.44371 12.962 L -6.48348 12.9749 L -6.52322 12.9876 L -6.56293 13.0004 L -6.60261 13.013 L -6.64227 13.0257 L -6.6819 13.0382 L -6.7215 13.0507 L -6.76108 13.0632 L -6.80063 13.0756 L -6.84015 13.088 L -6.87964 13.1003 L -6.91911 13.1125 L -6.95855 13.1247 L -6.99797 13.1369 L -7.03735 13.149 L -7.07671 13.161 L -7.11605 13.173 L -7.15535 13.185 L -7.19464 13.1969 L -7.23389 13.2087 L -7.27312 13.2205 L -7.31232 13.2323 L -7.3515 13.244 L -7.39065 13.2557 L -7.42977 13.2673 L -7.46887 13.2788 L -7.50794 13.2904 L -7.54698 13.3018 L -7.586 13.3133 L -7.625 13.3247 L -7.66397 13.336 L -7.70291 13.3473 L -7.74183 13.3586 L -7.78072 13.3698 L -7.81958 13.3809 L -7.85843 13.3921 L -7.89724 13.4031 L -7.93603 13.4142 L -7.9748 13.4252 L -8.01354 13.4361 L -8.05225 13.447 L -8.09094 13.4579 L -8.12961 13.4687 L -8.16825 13.4795 L -8.20686 13.4903 L -8.24545 13.501 L -8.28402 13.5116 L -8.32256 13.5223 L -8.36108 13.5328 L -8.39957 13.5434 L -8.43804 13.5539 L -8.47648 13.5643 L -8.5149 13.5748 L -8.55329 13.5852 L -8.59167 13.5955 L -8.63001 13.6058 L -8.66834 13.6161 L -8.70664 13.6263 L -8.74491 13.6365 L -8.78316 13.6467 L -8.82139 13.6568 L -8.85959 13.6669 L -8.89777 13.677 L -8.93593 13.687 L -8.97407 13.697 L -8.9985 13.6809 L -9.0229 13.6648 L -9.04727 13.6487 L -9.07162 13.6325 L -9.09594 13.6163 L -9.12022 13.6001 L -9.14448 13.5838 L -9.16871 13.5674 L -9.19291 13.5511 L -9.21708 13.5346 L -9.24122 13.5182 L -9.26533 13.5016 L -9.28942 13.4851 L -9.31347 13.4685 L -9.33749 13.4518 L -9.36149 13.4351 L -9.38545 13.4184 L -9.40938 13.4016 L -9.43329 13.3848 L -9.45716 13.368 L -9.481 13.3511 L -9.50482 13.3341 L -9.5286 13.3171 L -9.55235 13.3001 L -9.57607 13.2831 L -9.59977 13.2659 L -9.62343 13.2488 L -9.64706 13.2316 L -9.67066 13.2143 L -9.69423 13.1971 L -9.71776 13.1797 L -9.74127 13.1624 L -9.76475 13.145 L -9.78819 13.1275 L -9.81161 13.11 L -9.83499 13.0925 L -9.85834 13.0749 L -9.88166 13.0573 L -9.90495 13.0397 L -9.92821 13.022 L -9.95143 13.0042 L -9.97462 12.9864 L -9.99779 12.9686 L -10.0209 12.9507 L -10.044 12.9328 L -10.0671 12.9149 L -10.0901 12.8969 L -10.1131 12.8789 L -10.1361 12.8608 L -10.159 12.8427 L -10.1819 12.8245 L -10.2373 12.7804 L -10.2601 12.7621 L -10.2829 12.7438 L -10.3056 12.7254 L -10.3283 12.707 L -10.351 12.6885 L -10.3736 12.67 L -10.3962 12.6515 L -10.4187 12.6329 L -10.4413 12.6143 L -10.4638 12.5956 L -10.4862 12.5769 L -10.5087 12.5582 L -10.5311 12.5394 L -10.5534 12.5206 L -10.5758 12.5018 L -10.5981 12.4829 L -10.6203 12.4639 L -10.6425 12.445 L -10.6647 12.4259 L -10.6869 12.4069 L -10.709 12.3878 L -10.7311 12.3687 L -10.7532 12.3495 L -10.7752 12.3303 L -10.7972 12.311 L -10.8191 12.2917 L -10.8411 12.2724 L -10.8629 12.253 L -10.8848 12.2336 L -10.9066 12.2142 L -10.9284 12.1947 L -10.9501 12.1752 L -10.9719 12.1556 L -10.9935 12.136 L -11.0152 12.1164 L -11.0368 12.0967 L -11.0584 12.077 L -11.0799 12.0572 L -11.1014 12.0374 L -11.1229 12.0176 L -11.1443 11.9977 L -11.1657 11.9778 L -11.187 11.9579 L -11.2084 11.9379 L -11.2297 11.9179 L -11.2509 11.8978 L -11.2721 11.8777 L -11.2933 11.8576 L -11.3145 11.8374 L -11.3356 11.8172 L -11.3566 11.7969 L -11.3554 11.7575 L -11.3541 11.7181 L -11.3528 11.6786 L -11.3515 11.6391 L -11.3501 11.5996 L -11.3487 11.5601 L -11.3473 11.5205 L -11.3458 11.4809 L -11.3443 11.4412 L -11.3428 11.4015 L -11.3413 11.3618 L -11.3397 11.3221 L -11.3381 11.2823 L -11.3364 11.2425 L -11.3347 11.2027 L -11.333 11.1628 L -11.3313 11.1229 L -11.3295 11.0829 L -11.3277 11.043 L -11.3258 11.003 L -11.3239 10.9629 L -11.322 10.9229 L -11.3201 10.8827 L -11.3181 10.8426 L -11.3161 10.8024 L -11.314 10.7622 L -11.3119 10.722 L -11.3098 10.6817 L -11.3076 10.6414 L -11.3054 10.6011 L -11.3032 10.5607 L -11.3009 10.5203 L -11.2986 10.4798 L -11.2963 10.4394 L -11.2939 10.3988 L -11.2914 10.3583 L -11.289 10.3177 L -11.2865 10.2771 L -11.2839 10.2364 L -11.2814 10.1957 L -11.2787 10.155 L -11.2761 10.1142 L -11.2734 10.0734 L -11.2706 10.0326 L -11.2679 9.99174 L -11.265 9.95083 L -11.2622 9.90988 L -11.2593 9.8689 L -11.2563 9.82788 L -11.2533 9.78683 L -11.2503 9.74574 L -11.2472 9.70461 L -11.2441 9.66344 L -11.2409 9.62224 L -11.2377 9.581 L -11.2345 9.53972 L -11.2312 9.4984 L -11.2279 9.45704 L -11.2245 9.41565 L -11.221 9.37422 L -11.2176 9.33275 L -11.214 9.29124 L -11.2105 9.24969 L -11.2069 9.20811 L -11.2032 9.16648 L -11.1995 9.12482 L -11.1957 9.08311 L -11.1919 9.04137 L -11.1881 8.99959 L -11.1841 8.95777 L -11.1802 8.9159 L -11.1802 8.9159 L -11.2219 8.91045 L -11.2635 8.90495 L -11.3051 8.89941 L -11.3467 8.89384 L -11.3882 8.88822 L -11.4296 8.88257 L -11.471 8.87688 L -11.5123 8.87115 L -11.5536 8.86538 L -11.5949 8.85958 L -11.6361 8.85374 L -11.6773 8.84787 L -11.7184 8.84196 L -11.7594 8.83601 L -11.8004 8.83003 L -11.8414 8.82401 L -11.8823 8.81796 L -11.9232 8.81187 L -11.964 8.80575 L -12.0048 8.7996 L -12.0456 8.79341 L -12.0862 8.78719 L -12.1269 8.78093 L -12.1675 8.77465 L -12.208 8.76833 L -12.2486 8.76198 L -12.289 8.75559 L -12.3294 8.74918 L -12.3698 8.74273 L -12.4102 8.73625 L -12.4504 8.72974 L -12.4907 8.7232 L -12.5309 8.71664 L -12.5711 8.71004 L -12.6112 8.70341 L -12.6512 8.69675 L -12.6913 8.69006 L -12.7313 8.68334 L -12.7712 8.6766 L -12.8111 8.66982 L -12.851 8.66302 L -12.8908 8.65619 L -12.9306 8.64933 L -12.9703 8.64244 L -13.01 8.63553 L -13.0497 8.62859 L -13.0893 8.62162 L -13.1289 8.61462 L -13.1684 8.6076 L -13.2079 8.60055 L -13.2473 8.59348 L -13.2867 8.58638 L -13.3261 8.57925 L -13.3655 8.5721 L -13.4047 8.56493 L -13.444 8.55773 L -13.4832 8.5505 L -13.5224 8.54325 L -13.5615 8.53597 L -13.6006 8.52867 L -13.6397 8.52135 L -13.6787 8.514 L -13.7177 8.50663 L -13.7567 8.49924 L -13.7956 8.49182 L -13.8344 8.48438 L -13.8733 8.47692 L -13.9121 8.46943 L -13.9508 8.46192 L -13.9896 8.45439 L -14.0282 8.44684 L -14.0433 8.42178 L -14.0583 8.39671 L -14.0733 8.3716 L -14.0882 8.34647 L -14.1031 8.32132 L -14.1179 8.29613 L -14.1327 8.27092 L -14.1474 8.24569 L -14.1621 8.22042 L -14.1768 8.19513 L -14.1914 8.16982 L -14.2059 8.14448 L -14.2204 8.11911 L -14.2349 8.09372 L -14.2493 8.0683 L -14.2637 8.04285 L -14.278 8.01738 L -14.2923 7.99189 L -14.3066 7.96637 L -14.3208 7.94082 L -14.3349 7.91525 L -14.349 7.88965 L -14.3631 7.86403 L -14.3771 7.83838 L -14.391 7.81271 L -14.405 7.78701 L -14.4188 7.76129 L -14.4327 7.73555 L -14.4465 7.70978 L -14.4602 7.68398 L -14.4739 7.65816 L -14.4875 7.63232 L -14.5011 7.60645 L -14.5147 7.58055 L -14.5282 7.55464 L -14.5416 7.5287 L -14.5551 7.50273 L -14.5684 7.47674 L -14.5817 7.45073 L -14.595 7.42469 L -14.6082 7.39863 L -14.6214 7.37255 L -14.6346 7.34644 L -14.6477 7.32031 L -14.6607 7.29415 L -14.6737 7.26798 L -14.6866 7.24178 L -14.6995 7.21555 L -14.7124 7.18931 L -14.7252 7.16304 L -14.738 7.13675 L -14.7687 7.07291 L -14.7813 7.04654 L -14.7939 7.02015 L -14.8064 6.99374 L -14.8188 6.9673 L -14.8312 6.94084 L -14.8436 6.91436 L -14.8559 6.88786 L -14.8682 6.86133 L -14.8804 6.83479 L -14.8926 6.80822 L -14.9047 6.78163 L -14.9168 6.75501 L -14.9288 6.72838 L -14.9408 6.70173 L -14.9527 6.67505 L -14.9646 6.64835 L -14.9765 6.62163 L -14.9883 6.59489 L -15 6.56813 L -15.0117 6.54135 L -15.0234 6.51455 L -15.035 6.48772 L -15.0465 6.46088 L -15.058 6.43402 L -15.0695 6.40713 L -15.0809 6.38023 L -15.0923 6.3533 L -15.1036 6.32635 L -15.1148 6.29939 L -15.1261 6.2724 L -15.1372 6.24539 L -15.1484 6.21837 L -15.1594 6.19132 L -15.1705 6.16426 L -15.1814 6.13717 L -15.1924 6.11007 L -15.2032 6.08294 L -15.2141 6.0558 L -15.2249 6.02864 L -15.2356 6.00145 L -15.2463 5.97425 L -15.2569 5.94703 L -15.2675 5.91979 L -15.278 5.89253 L -15.2885 5.86526 L -15.299 5.83796 L -15.3094 5.81065 L -15.3197 5.78331 L -15.33 5.75596 L -15.3403 5.72859 L -15.3505 5.70121 L -15.3323 5.66625 L -15.314 5.63128 L -15.2957 5.59629 L -15.2774 5.56129 L -15.259 5.52627 L -15.2406 5.49124 L -15.2221 5.4562 L -15.2036 5.42114 L -15.1851 5.38606 L -15.1665 5.35097 L -15.1478 5.31586 L -15.1292 5.28074 L -15.1105 5.24561 L -15.0917 5.21045 L -15.0729 5.17529 L -15.0541 5.14011 L -15.0352 5.10491 L -15.0162 5.0697 L -14.9973 5.03447 L -14.9782 4.99923 L -14.9592 4.96398 L -14.94 4.92871 L -14.9209 4.89342 L -14.9017 4.85812 L -14.8824 4.8228 L -14.8631 4.78747 L -14.8438 4.75212 L -14.8244 4.71676 L -14.805 4.68138 L -14.7855 4.64599 L -14.7659 4.61059 L -14.7464 4.57516 L -14.7267 4.53973 L -14.707 4.50427 L -14.6873 4.46881 L -14.6675 4.43332 L -14.6477 4.39783 L -14.6278 4.36231 L -14.6079 4.32679 L -14.5879 4.29124 L -14.5679 4.25569 L -14.5478 4.22011 L -14.5277 4.18453 L -14.5075 4.14892 L -14.4872 4.11331 L -14.4669 4.07767 L -14.4466 4.04203 L -14.4262 4.00636 L -14.4058 3.97069 L -14.3852 3.93499 L -14.3647 3.89929 L -14.3441 3.86356 L -14.3234 3.82783 L -14.3027 3.79207 L -14.2819 3.75631 L -14.261 3.72053 L -14.2402 3.68473 L -14.2192 3.64892 L -14.1982 3.61309 L -14.1771 3.57725 L -14.156 3.5414 L -14.1348 3.50553 L -14.1136 3.46964 L -14.0923 3.43375 L -14.0709 3.39783 L -14.0495 3.3619 L -14.028 3.32596 L -14.0065 3.29001 L -13.9849 3.25403 L -13.9632 3.21805 L -13.9415 3.18205 L -13.9415 3.18205 L -13.9767 3.15904 L -14.0118 3.13602 L -14.0469 3.11299 L -14.0819 3.08994 L -14.1168 3.06687 L -14.1517 3.0438 L -14.1865 3.02071 L -14.2213 2.99761 L -14.256 2.9745 L -14.2907 2.95137 L -14.3253 2.92823 L -14.3598 2.90508 L -14.3943 2.88192 L -14.4287 2.85874 L -14.463 2.83556 L -14.4973 2.81236 L -14.5316 2.78915 L -14.5658 2.76594 L -14.5999 2.74271 L -14.634 2.71947 L -14.668 2.69622 L -14.7019 2.67296 L -14.7359 2.64969 L -14.7697 2.62641 L -14.8035 2.60312 L -14.8372 2.57982 L -14.8709 2.55651 L -14.9046 2.53319 L -14.9382 2.50986 L -14.9717 2.48653 L -15.0052 2.46318 L -15.0386 2.43983 L -15.072 2.41647 L -15.1053 2.3931 L -15.1385 2.36972 L -15.1718 2.34633 L -15.2049 2.32294 L -15.238 2.29953 L -15.2711 2.27612 L -15.3041 2.25271 L -15.3371 2.22928 L -15.37 2.20585 L -15.4028 2.18241 L -15.4357 2.15896 L -15.4684 2.13551 L -15.5011 2.11205 L -15.5338 2.08859 L -15.5664 2.06511 L -15.599 2.04163 L -15.6315 2.01815 L -15.664 1.99466 L -15.6964 1.97116 L -15.7288 1.94766 L -15.7612 1.92415 L -15.7934 1.90063 L -15.8257 1.87711 L -15.8579 1.85359 L -15.89 1.83005 L -15.9221 1.80652 L -15.9542 1.78298 L -15.9862 1.75943 L -16.0182 1.73588 L -16.0501 1.71232 L -16.082 1.68876 L -16.1138 1.66519 L -16.1456 1.64162 L -16.1774 1.61805 L -16.2091 1.59447 L -16.2408 1.57089 L -16.2724 1.5473 L -16.304 1.52371 L -16.3066 1.49461 L -16.3093 1.4655 L -16.3119 1.43639 L -16.3144 1.40728 L -16.3169 1.37816 L -16.3193 1.34903 L -16.3217 1.31991 L -16.324 1.29077 L -16.3263 1.26164 L -16.3286 1.2325 L -16.3307 1.20335 L -16.3328 1.1742 L -16.3349 1.14505 L -16.3369 1.1159 L -16.3389 1.08674 L -16.3408 1.05757 L -16.3427 1.02841 L -16.3445 0.999239 L -16.3462 0.970066 L -16.3479 0.940891 L -16.3496 0.911712 L -16.3512 0.882531 L -16.3527 0.853347 L -16.3542 0.82416 L -16.3557 0.79497 L -16.3571 0.765778 L -16.3584 0.736583 L -16.3597 0.707386 L -16.361 0.678187 L -16.3621 0.648986 L -16.3633 0.619782 L -16.3643 0.590577 L -16.3654 0.56137 L -16.3664 0.532161 L -16.3673 0.50295 L -16.3681 0.473738 L -16.369 0.444524 L -16.3697 0.415309 L -16.3704 0.386092 L -16.3711 0.356874 L -16.3717 0.327655 L -16.3723 0.298435 L -16.3728 0.269214 L -16.3732 0.239992 L -16.3736 0.21077 L -16.374 0.181547 L -16.3743 0.152323 L -16.3745 0.123098 L -16.3747 0.0938737 L -16.3749 0.0646487 L -16.375 0.0354234 L -16.375 -0.0354234 L -16.3749 -0.0646487 L -16.3747 -0.0938737 L -16.3745 -0.123098 L -16.3743 -0.152323 L -16.374 -0.181547 L -16.3736 -0.21077 L -16.3732 -0.239992 L -16.3728 -0.269214 L -16.3723 -0.298435 L -16.3717 -0.327655 L -16.3711 -0.356874 L -16.3704 -0.386092 L -16.3697 -0.415309 L -16.369 -0.444524 L -16.3681 -0.473738 L -16.3673 -0.50295 L -16.3664 -0.532161 L -16.3654 -0.56137 L -16.3643 -0.590577 L -16.3633 -0.619782 L -16.3621 -0.648986 L -16.361 -0.678187 L -16.3597 -0.707386 L -16.3584 -0.736583 L -16.3571 -0.765778 L -16.3557 -0.79497 L -16.3542 -0.82416 L -16.3527 -0.853347 L -16.3512 -0.882531 L -16.3496 -0.911712 L -16.3479 -0.940891 L -16.3462 -0.970066 L -16.3445 -0.999239 L -16.3427 -1.02841 L -16.3408 -1.05757 L -16.3389 -1.08674 L -16.3369 -1.1159 L -16.3349 -1.14505 L -16.3328 -1.1742 L -16.3307 -1.20335 L -16.3286 -1.2325 L -16.3263 -1.26164 L -16.324 -1.29077 L -16.3217 -1.31991 L -16.3193 -1.34903 L -16.3169 -1.37816 L -16.3144 -1.40728 L -16.3119 -1.43639 L -16.3093 -1.4655 L -16.3066 -1.49461 L -16.304 -1.52371 L -16.2724 -1.5473 L -16.2408 -1.57089 L -16.2091 -1.59447 L -16.1774 -1.61805 L -16.1456 -1.64162 L -16.1138 -1.66519 L -16.082 -1.68876 L -16.0501 -1.71232 L -16.0182 -1.73588 L -15.9862 -1.75943 L -15.9542 -1.78298 L -15.9221 -1.80652 L -15.89 -1.83005 L -15.8579 -1.85359 L -15.8257 -1.87711 L -15.7934 -1.90063 L -15.7612 -1.92415 L -15.7288 -1.94766 L -15.6964 -1.97116 L -15.664 -1.99466 L -15.6315 -2.01815 L -15.599 -2.04163 L -15.5664 -2.06511 L -15.5338 -2.08859 L -15.5011 -2.11205 L -15.4684 -2.13551 L -15.4357 -2.15896 L -15.4028 -2.18241 L -15.37 -2.20585 L -15.3371 -2.22928 L -15.3041 -2.25271 L -15.2711 -2.27612 L -15.238 -2.29953 L -15.2049 -2.32294 L -15.1718 -2.34633 L -15.1385 -2.36972 L -15.1053 -2.3931 L -15.072 -2.41647 L -15.0386 -2.43983 L -15.0052 -2.46318 L -14.9717 -2.48653 L -14.9382 -2.50986 L -14.9046 -2.53319 L -14.8709 -2.55651 L -14.8372 -2.57982 L -14.8035 -2.60312 L -14.7697 -2.62641 L -14.7359 -2.64969 L -14.7019 -2.67296 L -14.668 -2.69622 L -14.634 -2.71947 L -14.5999 -2.74271 L -14.5658 -2.76594 L -14.5316 -2.78915 L -14.4973 -2.81236 L -14.463 -2.83556 L -14.4287 -2.85874 L -14.3943 -2.88192 L -14.3598 -2.90508 L -14.3253 -2.92823 L -14.2907 -2.95137 L -14.256 -2.9745 L -14.2213 -2.99761 L -14.1865 -3.02071 L -14.1517 -3.0438 L -14.1168 -3.06687 L -14.0819 -3.08994 L -14.0469 -3.11299 L -14.0118 -3.13602 L -13.9767 -3.15904 L -13.9415 -3.18205 L -13.9415 -3.18205 L -13.9632 -3.21805 L -13.9849 -3.25403 L -14.0065 -3.29001 L -14.028 -3.32596 L -14.0495 -3.3619 L -14.0709 -3.39783 L -14.0923 -3.43375 L -14.1136 -3.46964 L -14.1348 -3.50553 L -14.156 -3.5414 L -14.1771 -3.57725 L -14.1982 -3.61309 L -14.2192 -3.64892 L -14.2402 -3.68473 L -14.261 -3.72053 L -14.2819 -3.75631 L -14.3027 -3.79207 L -14.3234 -3.82783 L -14.3441 -3.86356 L -14.3647 -3.89929 L -14.3852 -3.93499 L -14.4058 -3.97069 L -14.4262 -4.00636 L -14.4466 -4.04203 L -14.4669 -4.07767 L -14.4872 -4.11331 L -14.5075 -4.14892 L -14.5277 -4.18453 L -14.5478 -4.22011 L -14.5679 -4.25569 L -14.5879 -4.29124 L -14.6079 -4.32679 L -14.6278 -4.36231 L -14.6477 -4.39783 L -14.6675 -4.43332 L -14.6873 -4.46881 L -14.707 -4.50427 L -14.7267 -4.53973 L -14.7464 -4.57516 L -14.7659 -4.61059 L -14.7855 -4.64599 L -14.805 -4.68138 L -14.8244 -4.71676 L -14.8438 -4.75212 L -14.8631 -4.78747 L -14.8824 -4.8228 L -14.9017 -4.85812 L -14.9209 -4.89342 L -14.94 -4.92871 L -14.9592 -4.96398 L -14.9782 -4.99923 L -14.9973 -5.03447 L -15.0162 -5.0697 L -15.0352 -5.10491 L -15.0541 -5.14011 L -15.0729 -5.17529 L -15.0917 -5.21045 L -15.1105 -5.24561 L -15.1292 -5.28074 L -15.1478 -5.31586 L -15.1665 -5.35097 L -15.1851 -5.38606 L -15.2036 -5.42114 L -15.2221 -5.4562 L -15.2406 -5.49124 L -15.259 -5.52627 L -15.2774 -5.56129 L -15.2957 -5.59629 L -15.314 -5.63128 L -15.3323 -5.66625 L -15.3505 -5.70121 L -15.3403 -5.72859 L -15.33 -5.75596 L -15.3197 -5.78331 L -15.3094 -5.81065 L -15.299 -5.83796 L -15.2885 -5.86526 L -15.278 -5.89253 L -15.2675 -5.91979 L -15.2569 -5.94703 L -15.2463 -5.97425 L -15.2356 -6.00145 L -15.2249 -6.02864 L -15.2141 -6.0558 L -15.2032 -6.08294 L -15.1924 -6.11007 L -15.1814 -6.13717 L -15.1705 -6.16426 L -15.1594 -6.19132 L -15.1484 -6.21837 L -15.1372 -6.24539 L -15.1261 -6.2724 L -15.1148 -6.29939 L -15.1036 -6.32635 L -15.0923 -6.3533 L -15.0809 -6.38023 L -15.0695 -6.40713 L -15.058 -6.43402 L -15.0465 -6.46088 L -15.035 -6.48772 L -15.0234 -6.51455 L -15.0117 -6.54135 L -15 -6.56813 L -14.9883 -6.59489 L -14.9765 -6.62163 L -14.9646 -6.64835 L -14.9527 -6.67505 L -14.9408 -6.70173 L -14.9288 -6.72838 L -14.9168 -6.75501 L -14.9047 -6.78163 L -14.8926 -6.80822 L -14.8804 -6.83479 L -14.8682 -6.86133 L -14.8559 -6.88786 L -14.8436 -6.91436 L -14.8312 -6.94084 L -14.8188 -6.9673 L -14.8064 -6.99374 L -14.7939 -7.02015 L -14.7813 -7.04654 L -14.7687 -7.07291 L -14.738 -7.13675 L -14.7252 -7.16304 L -14.7124 -7.18931 L -14.6995 -7.21555 L -14.6866 -7.24178 L -14.6737 -7.26798 L -14.6607 -7.29415 L -14.6477 -7.32031 L -14.6346 -7.34644 L -14.6214 -7.37255 L -14.6082 -7.39863 L -14.595 -7.42469 L -14.5817 -7.45073 L -14.5684 -7.47674 L -14.5551 -7.50273 L -14.5416 -7.5287 L -14.5282 -7.55464 L -14.5147 -7.58055 L -14.5011 -7.60645 L -14.4875 -7.63232 L -14.4739 -7.65816 L -14.4602 -7.68398 L -14.4465 -7.70978 L -14.4327 -7.73555 L -14.4188 -7.76129 L -14.405 -7.78701 L -14.391 -7.81271 L -14.3771 -7.83838 L -14.3631 -7.86403 L -14.349 -7.88965 L -14.3349 -7.91525 L -14.3208 -7.94082 L -14.3066 -7.96637 L -14.2923 -7.99189 L -14.278 -8.01738 L -14.2637 -8.04285 L -14.2493 -8.0683 L -14.2349 -8.09372 L -14.2204 -8.11911 L -14.2059 -8.14448 L -14.1914 -8.16982 L -14.1768 -8.19513 L -14.1621 -8.22042 L -14.1474 -8.24569 L -14.1327 -8.27092 L -14.1179 -8.29613 L -14.1031 -8.32132 L -14.0882 -8.34647 L -14.0733 -8.3716 L -14.0583 -8.39671 L -14.0433 -8.42178 L -14.0282 -8.44684 L -13.9896 -8.45439 L -13.9508 -8.46192 L -13.9121 -8.46943 L -13.8733 -8.47692 L -13.8344 -8.48438 L -13.7956 -8.49182 L -13.7567 -8.49924 L -13.7177 -8.50663 L -13.6787 -8.514 L -13.6397 -8.52135 L -13.6006 -8.52867 L -13.5615 -8.53597 L -13.5224 -8.54325 L -13.4832 -8.5505 L -13.444 -8.55773 L -13.4047 -8.56493 L -13.3655 -8.5721 L -13.3261 -8.57925 L -13.2867 -8.58638 L -13.2473 -8.59348 L -13.2079 -8.60055 L -13.1684 -8.6076 L -13.1289 -8.61462 L -13.0893 -8.62162 L -13.0497 -8.62859 L -13.01 -8.63553 L -12.9703 -8.64244 L -12.9306 -8.64933 L -12.8908 -8.65619 L -12.851 -8.66302 L -12.8111 -8.66982 L -12.7712 -8.6766 L -12.7313 -8.68334 L -12.6913 -8.69006 L -12.6512 -8.69675 L -12.6112 -8.70341 L -12.5711 -8.71004 L -12.5309 -8.71664 L -12.4907 -8.7232 L -12.4504 -8.72974 L -12.4102 -8.73625 L -12.3698 -8.74273 L -12.3294 -8.74918 L -12.289 -8.75559 L -12.2486 -8.76198 L -12.208 -8.76833 L -12.1675 -8.77465 L -12.1269 -8.78093 L -12.0862 -8.78719 L -12.0456 -8.79341 L -12.0048 -8.7996 L -11.964 -8.80575 L -11.9232 -8.81187 L -11.8823 -8.81796 L -11.8414 -8.82401 L -11.8004 -8.83003 L -11.7594 -8.83601 L -11.7184 -8.84196 L -11.6773 -8.84787 L -11.6361 -8.85374 L -11.5949 -8.85958 L -11.5536 -8.86538 L -11.5123 -8.87115 L -11.471 -8.87688 L -11.4296 -8.88257 L -11.3882 -8.88822 L -11.3467 -8.89384 L -11.3051 -8.89941 L -11.2635 -8.90495 L -11.2219 -8.91045 L -11.1802 -8.9159 L -11.1802 -8.9159 L -11.1841 -8.95777 L -11.1881 -8.99959 L -11.1919 -9.04137 L -11.1957 -9.08311 L -11.1995 -9.12482 L -11.2032 -9.16648 L -11.2069 -9.20811 L -11.2105 -9.24969 L -11.214 -9.29124 L -11.2176 -9.33275 L -11.221 -9.37422 L -11.2245 -9.41565 L -11.2279 -9.45704 L -11.2312 -9.4984 L -11.2345 -9.53972 L -11.2377 -9.581 L -11.2409 -9.62224 L -11.2441 -9.66344 L -11.2472 -9.70461 L -11.2503 -9.74574 L -11.2533 -9.78683 L -11.2563 -9.82788 L -11.2593 -9.8689 L -11.2622 -9.90988 L -11.265 -9.95083 L -11.2679 -9.99174 L -11.2706 -10.0326 L -11.2734 -10.0734 L -11.2761 -10.1142 L -11.2787 -10.155 L -11.2814 -10.1957 L -11.2839 -10.2364 L -11.2865 -10.2771 L -11.289 -10.3177 L -11.2914 -10.3583 L -11.2939 -10.3988 L -11.2963 -10.4394 L -11.2986 -10.4798 L -11.3009 -10.5203 L -11.3032 -10.5607 L -11.3054 -10.6011 L -11.3076 -10.6414 L -11.3098 -10.6817 L -11.3119 -10.722 L -11.314 -10.7622 L -11.3161 -10.8024 L -11.3181 -10.8426 L -11.3201 -10.8827 L -11.322 -10.9229 L -11.3239 -10.9629 L -11.3258 -11.003 L -11.3277 -11.043 L -11.3295 -11.0829 L -11.3313 -11.1229 L -11.333 -11.1628 L -11.3347 -11.2027 L -11.3364 -11.2425 L -11.3381 -11.2823 L -11.3397 -11.3221 L -11.3413 -11.3618 L -11.3428 -11.4015 L -11.3443 -11.4412 L -11.3458 -11.4809 L -11.3473 -11.5205 L -11.3487 -11.5601 L -11.3501 -11.5996 L -11.3515 -11.6391 L -11.3528 -11.6786 L -11.3541 -11.7181 L -11.3554 -11.7575 L -11.3566 -11.7969 L -11.3356 -11.8172 L -11.3145 -11.8374 L -11.2933 -11.8576 L -11.2721 -11.8777 L -11.2509 -11.8978 L -11.2297 -11.9179 L -11.2084 -11.9379 L -11.187 -11.9579 L -11.1657 -11.9778 L -11.1443 -11.9977 L -11.1229 -12.0176 L -11.1014 -12.0374 L -11.0799 -12.0572 L -11.0584 -12.077 L -11.0368 -12.0967 L -11.0152 -12.1164 L -10.9935 -12.136 L -10.9719 -12.1556 L -10.9501 -12.1752 L -10.9284 -12.1947 L -10.9066 -12.2142 L -10.8848 -12.2336 L -10.8629 -12.253 L -10.8411 -12.2724 L -10.8191 -12.2917 L -10.7972 -12.311 L -10.7752 -12.3303 L -10.7532 -12.3495 L -10.7311 -12.3687 L -10.709 -12.3878 L -10.6869 -12.4069 L -10.6647 -12.4259 L -10.6425 -12.445 L -10.6203 -12.4639 L -10.5981 -12.4829 L -10.5758 -12.5018 L -10.5534 -12.5206 L -10.5311 -12.5394 L -10.5087 -12.5582 L -10.4862 -12.5769 L -10.4638 -12.5956 L -10.4413 -12.6143 L -10.4187 -12.6329 L -10.3962 -12.6515 L -10.3736 -12.67 L -10.351 -12.6885 L -10.3283 -12.707 L -10.3056 -12.7254 L -10.2829 -12.7438 L -10.2601 -12.7621 L -10.2373 -12.7804 L -10.1819 -12.8245 L -10.159 -12.8427 L -10.1361 -12.8608 L -10.1131 -12.8789 L -10.0901 -12.8969 L -10.0671 -12.9149 L -10.044 -12.9328 L -10.0209 -12.9507 L -9.99779 -12.9686 L -9.97462 -12.9864 L -9.95143 -13.0042 L -9.92821 -13.022 L -9.90495 -13.0397 L -9.88166 -13.0573 L -9.85834 -13.0749 L -9.83499 -13.0925 L -9.81161 -13.11 L -9.78819 -13.1275 L -9.76475 -13.145 L -9.74127 -13.1624 L -9.71776 -13.1797 L -9.69423 -13.1971 L -9.67066 -13.2143 L -9.64706 -13.2316 L -9.62343 -13.2488 L -9.59977 -13.2659 L -9.57607 -13.2831 L -9.55235 -13.3001 L -9.5286 -13.3171 L -9.50482 -13.3341 L -9.481 -13.3511 L -9.45716 -13.368 L -9.43329 -13.3848 L -9.40938 -13.4016 L -9.38545 -13.4184 L -9.36149 -13.4351 L -9.33749 -13.4518 L -9.31347 -13.4685 L -9.28942 -13.4851 L -9.26533 -13.5016 L -9.24122 -13.5182 L -9.21708 -13.5346 L -9.19291 -13.5511 L -9.16871 -13.5674 L -9.14448 -13.5838 L -9.12022 -13.6001 L -9.09594 -13.6163 L -9.07162 -13.6325 L -9.04727 -13.6487 L -9.0229 -13.6648 L -8.9985 -13.6809 L -8.97407 -13.697 L -8.93593 -13.687 L -8.89777 -13.677 L -8.85959 -13.6669 L -8.82139 -13.6568 L -8.78316 -13.6467 L -8.74491 -13.6365 L -8.70664 -13.6263 L -8.66834 -13.6161 L -8.63001 -13.6058 L -8.59167 -13.5955 L -8.55329 -13.5852 L -8.5149 -13.5748 L -8.47648 -13.5643 L -8.43804 -13.5539 L -8.39957 -13.5434 L -8.36108 -13.5328 L -8.32256 -13.5223 L -8.28402 -13.5116 L -8.24545 -13.501 L -8.20686 -13.4903 L -8.16825 -13.4795 L -8.12961 -13.4687 L -8.09094 -13.4579 L -8.05225 -13.447 L -8.01354 -13.4361 L -7.9748 -13.4252 L -7.93603 -13.4142 L -7.89724 -13.4031 L -7.85843 -13.3921 L -7.81958 -13.3809 L -7.78072 -13.3698 L -7.74183 -13.3586 L -7.70291 -13.3473 L -7.66397 -13.336 L -7.625 -13.3247 L -7.586 -13.3133 L -7.54698 -13.3018 L -7.50794 -13.2904 L -7.46887 -13.2788 L -7.42977 -13.2673 L -7.39065 -13.2557 L -7.3515 -13.244 L -7.31232 -13.2323 L -7.27312 -13.2205 L -7.23389 -13.2087 L -7.19464 -13.1969 L -7.15535 -13.185 L -7.11605 -13.173 L -7.07671 -13.161 L -7.03735 -13.149 L -6.99797 -13.1369 L -6.95855 -13.1247 L -6.91911 -13.1125 L -6.87964 -13.1003 L -6.84015 -13.088 L -6.80063 -13.0756 L -6.76108 -13.0632 L -6.7215 -13.0507 L -6.6819 -13.0382 L -6.64227 -13.0257 L -6.60261 -13.013 L -6.56293 -13.0004 L -6.52322 -12.9876 L -6.48348 -12.9749 L -6.44371 -12.962 L -6.40392 -12.9491 L -6.3641 -12.9362 L -6.32425 -12.9232 L -6.28437 -12.9101 L -6.24447 -12.897 L -6.20454 -12.8839 L -6.20454 -12.8839 L -6.18994 -12.9233 L -6.17531 -12.9627 L -6.16066 -13.002 L -6.14598 -13.0412 L -6.13127 -13.0804 L -6.11654 -13.1196 L -6.10178 -13.1587 L -6.08699 -13.1977 L -6.07218 -13.2367 L -6.05735 -13.2756 L -6.04248 -13.3145 L -6.0276 -13.3533 L -6.01269 -13.3921 L -5.99775 -13.4308 L -5.98279 -13.4694 L -5.96781 -13.508 L -5.95281 -13.5466 L -5.93778 -13.5851 L -5.92272 -13.6235 L -5.90765 -13.6619 L -5.89255 -13.7003 L -5.87743 -13.7386 L -5.86229 -13.7768 L -5.84713 -13.815 L -5.83194 -13.8531 L -5.81673 -13.8912 L -5.80151 -13.9292 L -5.78626 -13.9672 L -5.77099 -14.0051 L -5.7557 -14.043 L -5.74039 -14.0808 L -5.72506 -14.1186 L -5.7097 -14.1564 L -5.69433 -14.194 L -5.67894 -14.2317 L -5.66354 -14.2693 L -5.64811 -14.3068 L -5.63266 -14.3443 L -5.61719 -14.3817 L -5.60171 -14.4191 L -5.58621 -14.4565 L -5.57069 -14.4938 L -5.55515 -14.531 L -5.53959 -14.5682 L -5.52402 -14.6054 L -5.50843 -14.6425 L -5.49282 -14.6796 L -5.47719 -14.7166 L -5.46155 -14.7536 L -5.44589 -14.7905 L -5.43022 -14.8274 L -5.41452 -14.8643 L -5.39881 -14.9011 L -5.38309 -14.9378 L -5.36735 -14.9745 L -5.35159 -15.0112 L -5.33582 -15.0478 L -5.32004 -15.0844 L -5.30423 -15.121 L -5.28842 -15.1574 L -5.27259 -15.1939 L -5.25674 -15.2303 L -5.24088 -15.2667 L -5.225 -15.303 L -5.20911 -15.3393 L -5.19321 -15.3755 L -5.17729 -15.4117 L -5.16136 -15.4479 L -5.14541 -15.484 L -5.12945 -15.5201 L -5.11348 -15.5561 L -5.08571 -15.5652 L -5.05792 -15.5743 L -5.03011 -15.5833 L -5.00229 -15.5922 L -4.97446 -15.6011 L -4.9466 -15.61 L -4.91874 -15.6188 L -4.89085 -15.6275 L -4.86295 -15.6362 L -4.83504 -15.6449 L -4.80711 -15.6535 L -4.77916 -15.6621 L -4.7512 -15.6706 L -4.72323 -15.679 L -4.69524 -15.6874 L -4.66723 -15.6958 L -4.63921 -15.7041 L -4.61118 -15.7123 L -4.58313 -15.7205 L -4.55506 -15.7287 L -4.52698 -15.7368 L -4.49889 -15.7449 L -4.47078 -15.7529 L -4.44266 -15.7608 L -4.41452 -15.7687 L -4.38637 -15.7766 L -4.35821 -15.7844 L -4.33003 -15.7921 L -4.30184 -15.7998 L -4.27363 -15.8075 L -4.24541 -15.8151 L -4.21718 -15.8226 L -4.18893 -15.8301 L -4.16067 -15.8376 L -4.1324 -15.845 L -4.10412 -15.8523 L -4.07582 -15.8596 L -4.0475 -15.8669 L -4.01918 -15.8741 L -3.99084 -15.8812 L -3.96249 -15.8883 L -3.93413 -15.8954 L -3.90575 -15.9024 L -3.87736 -15.9093 L -3.84896 -15.9162 L -3.82055 -15.9231 L -3.79213 -15.9299 L -3.76369 -15.9366 L -3.73524 -15.9433 L -3.70678 -15.9499 L -3.67831 -15.9565 L -3.60924 -15.9723 L -3.58072 -15.9787 L -3.5522 -15.9851 L -3.52367 -15.9914 L -3.49512 -15.9976 L -3.46656 -16.0039 L -3.43799 -16.01 L -3.40941 -16.0161 L -3.38082 -16.0222 L -3.35222 -16.0282 L -3.32361 -16.0342 L -3.29499 -16.0401 L -3.26636 -16.0459 L -3.23771 -16.0517 L -3.20906 -16.0575 L -3.1804 -16.0632 L -3.15172 -16.0688 L -3.12304 -16.0744 L -3.09434 -16.08 L -3.06564 -16.0855 L -3.03693 -16.0909 L -3.0082 -16.0963 L -2.97947 -16.1017 L -2.95073 -16.1069 L -2.92198 -16.1122 L -2.89322 -16.1174 L -2.86445 -16.1225 L -2.83567 -16.1276 L -2.80688 -16.1326 L -2.77808 -16.1376 L -2.74927 -16.1426 L -2.72046 -16.1474 L -2.69164 -16.1523 L -2.6628 -16.157 L -2.63396 -16.1618 L -2.60511 -16.1664 L -2.57626 -16.1711 L -2.54739 -16.1756 L -2.51852 -16.1802 L -2.48964 -16.1846 L -2.46075 -16.1891 L -2.43185 -16.1934 L -2.40294 -16.1977 L -2.37403 -16.202 L -2.34511 -16.2062 L -2.31618 -16.2104 L -2.28725 -16.2145 L -2.25831 -16.2185 L -2.22936 -16.2225 L -2.2004 -16.2265 L -2.17144 -16.2304 L -2.14246 -16.2342 L -2.11244 -16.2087 L -2.08241 -16.1831 L -2.05237 -16.1575 L -2.02232 -16.1318 L -1.99228 -16.1061 L -1.96222 -16.0804 L -1.93216 -16.0546 L -1.9021 -16.0287 L -1.87203 -16.0028 L -1.84195 -15.9769 L -1.81187 -15.9509 L -1.78178 -15.9249 L -1.75169 -15.8989 L -1.7216 -15.8728 L -1.6915 -15.8466 L -1.66139 -15.8204 L -1.63128 -15.7941 L -1.60117 -15.7679 L -1.57105 -15.7415 L -1.54092 -15.7151 L -1.51079 -15.6887 L -1.48066 -15.6622 L -1.45052 -15.6357 L -1.42038 -15.6091 L -1.39023 -15.5825 L -1.36008 -15.5558 L -1.32992 -15.5291 L -1.29976 -15.5023 L -1.2696 -15.4755 L -1.23943 -15.4486 L -1.20926 -15.4217 L -1.17908 -15.3947 L -1.1489 -15.3677 L -1.11872 -15.3406 L -1.08853 -15.3135 L -1.05834 -15.2863 L -1.02814 -15.2591 L -0.997944 -15.2318 L -0.967742 -15.2044 L -0.937537 -15.1771 L -0.907328 -15.1496 L -0.877116 -15.1221 L -0.846901 -15.0946 L -0.816683 -15.067 L -0.786463 -15.0393 L -0.756239 -15.0116 L -0.726012 -14.9838 L -0.695783 -14.956 L -0.665551 -14.9281 L -0.635316 -14.9002 L -0.60508 -14.8722 L -0.574841 -14.8442 L -0.544599 -14.8161 L -0.514356 -14.7879 L -0.48411 -14.7597 L -0.453863 -14.7314 L -0.423614 -14.7031 L -0.393363 -14.6747 L -0.363111 -14.6462 L -0.332857 -14.6177 L -0.302602 -14.5891 L -0.272345 -14.5605 L -0.242087 -14.5318 L -0.211829 -14.503 L -0.181569 -14.4742 L -0.151309 -14.4453 L -0.121048 -14.4164 L -0.0907864 -14.3874 L -0.0605245 -14.3583 L -0.0302623 -14.3292 L -3.10862e-15 -14.3 L -2.14511e-15 -14.3 L 0.0302623 -14.3292 L 0.0605245 -14.3583 L 0.0907864 -14.3874 L 0.121048 -14.4164 L 0.151309 -14.4453 L 0.181569 -14.4742 L 0.211829 -14.503 L 0.242087 -14.5318 L 0.272345 -14.5605 L 0.302602 -14.5891 L 0.332857 -14.6177 L 0.363111 -14.6462 L 0.393363 -14.6747 L 0.423614 -14.7031 L 0.453863 -14.7314 L 0.48411 -14.7597 L 0.514356 -14.7879 L 0.544599 -14.8161 L 0.574841 -14.8442 L 0.60508 -14.8722 L 0.635316 -14.9002 L 0.665551 -14.9281 L 0.695783 -14.956 L 0.726012 -14.9838 L 0.756239 -15.0116 L 0.786463 -15.0393 L 0.816683 -15.067 L 0.846901 -15.0946 L 0.877116 -15.1221 L 0.907328 -15.1496 L 0.937537 -15.1771 L 0.967742 -15.2044 L 0.997944 -15.2318 L 1.02814 -15.2591 L 1.05834 -15.2863 L 1.08853 -15.3135 L 1.11872 -15.3406 L 1.1489 -15.3677 L 1.17908 -15.3947 L 1.20926 -15.4217 L 1.23943 -15.4486 L 1.2696 -15.4755 L 1.29976 -15.5023 L 1.32992 -15.5291 L 1.36008 -15.5558 L 1.39023 -15.5825 L 1.42038 -15.6091 L 1.45052 -15.6357 L 1.48066 -15.6622 L 1.51079 -15.6887 L 1.54092 -15.7151 L 1.57105 -15.7415 L 1.60117 -15.7679 L 1.63128 -15.7941 L 1.66139 -15.8204 L 1.6915 -15.8466 L 1.7216 -15.8728 L 1.75169 -15.8989 L 1.78178 -15.9249 L 1.81187 -15.9509 L 1.84195 -15.9769 L 1.87203 -16.0028 L 1.9021 -16.0287 L 1.93216 -16.0546 L 1.96222 -16.0804 L 1.99228 -16.1061 L 2.02232 -16.1318 L 2.05237 -16.1575 L 2.08241 -16.1831 L 2.11244 -16.2087 L 2.14246 -16.2342 L 2.17144 -16.2304 L 2.2004 -16.2265 L 2.22936 -16.2225 L 2.25831 -16.2185 L 2.28725 -16.2145 L 2.31618 -16.2104 L 2.34511 -16.2062 L 2.37403 -16.202 L 2.40294 -16.1977 L 2.43185 -16.1934 L 2.46075 -16.1891 L 2.48964 -16.1846 L 2.51852 -16.1802 L 2.54739 -16.1756 L 2.57626 -16.1711 L 2.60511 -16.1664 L 2.63396 -16.1618 L 2.6628 -16.157 L 2.69164 -16.1523 L 2.72046 -16.1474 L 2.74927 -16.1426 L 2.77808 -16.1376 L 2.80688 -16.1326 L 2.83567 -16.1276 L 2.86445 -16.1225 L 2.89322 -16.1174 L 2.92198 -16.1122 L 2.95073 -16.1069 L 2.97947 -16.1017 L 3.0082 -16.0963 L 3.03693 -16.0909 L 3.06564 -16.0855 L 3.09434 -16.08 L 3.12304 -16.0744 L 3.15172 -16.0688 L 3.1804 -16.0632 L 3.20906 -16.0575 L 3.23771 -16.0517 L 3.26636 -16.0459 L 3.29499 -16.0401 L 3.32361 -16.0342 L 3.35222 -16.0282 L 3.38082 -16.0222 L 3.40941 -16.0161 L 3.43799 -16.01 L 3.46656 -16.0039 L 3.49512 -15.9976 L 3.52367 -15.9914 L 3.5522 -15.9851 L 3.58072 -15.9787 L 3.60924 -15.9723 L 3.67831 -15.9565 L 3.70678 -15.9499 L 3.73524 -15.9433 L 3.76369 -15.9366 L 3.79213 -15.9299 L 3.82055 -15.9231 L 3.84896 -15.9162 L 3.87736 -15.9093 L 3.90575 -15.9024 L 3.93413 -15.8954 L 3.96249 -15.8883 L 3.99084 -15.8812 L 4.01918 -15.8741 L 4.0475 -15.8669 L 4.07582 -15.8596 L 4.10412 -15.8523 L 4.1324 -15.845 L 4.16067 -15.8376 L 4.18893 -15.8301 L 4.21718 -15.8226 L 4.24541 -15.8151 L 4.27363 -15.8075 L 4.30184 -15.7998 L 4.33003 -15.7921 L 4.35821 -15.7844 L 4.38637 -15.7766 L 4.41452 -15.7687 L 4.44266 -15.7608 L 4.47078 -15.7529 L 4.49889 -15.7449 L 4.52698 -15.7368 L 4.55506 -15.7287 L 4.58313 -15.7205 L 4.61118 -15.7123 L 4.63921 -15.7041 L 4.66723 -15.6958 L 4.69524 -15.6874 L 4.72323 -15.679 L 4.7512 -15.6706 L 4.77916 -15.6621 L 4.80711 -15.6535 L 4.83504 -15.6449 L 4.86295 -15.6362 L 4.89085 -15.6275 L 4.91874 -15.6188 L 4.9466 -15.61 L 4.97446 -15.6011 L 5.00229 -15.5922 L 5.03011 -15.5833 L 5.05792 -15.5743 L 5.08571 -15.5652 L 5.11348 -15.5561 L 5.12945 -15.5201 L 5.14541 -15.484 L 5.16136 -15.4479 L 5.17729 -15.4117 L 5.19321 -15.3755 L 5.20911 -15.3393 L 5.225 -15.303 L 5.24088 -15.2667 L 5.25674 -15.2303 L 5.27259 -15.1939 L 5.28842 -15.1574 L 5.30423 -15.121 L 5.32004 -15.0844 L 5.33582 -15.0478 L 5.35159 -15.0112 L 5.36735 -14.9745 L 5.38309 -14.9378 L 5.39881 -14.9011 L 5.41452 -14.8643 L 5.43022 -14.8274 L 5.44589 -14.7905 L 5.46155 -14.7536 L 5.47719 -14.7166 L 5.49282 -14.6796 L 5.50843 -14.6425 L 5.52402 -14.6054 L 5.53959 -14.5682 L 5.55515 -14.531 L 5.57069 -14.4938 L 5.58621 -14.4565 L 5.60171 -14.4191 L 5.61719 -14.3817 L 5.63266 -14.3443 L 5.64811 -14.3068 L 5.66354 -14.2693 L 5.67894 -14.2317 L 5.69433 -14.194 L 5.7097 -14.1564 L 5.72506 -14.1186 L 5.74039 -14.0808 L 5.7557 -14.043 L 5.77099 -14.0051 L 5.78626 -13.9672 L 5.80151 -13.9292 L 5.81673 -13.8912 L 5.83194 -13.8531 L 5.84713 -13.815 L 5.86229 -13.7768 L 5.87743 -13.7386 L 5.89255 -13.7003 L 5.90765 -13.6619 L 5.92272 -13.6235 L 5.93778 -13.5851 L 5.95281 -13.5466 L 5.96781 -13.508 L 5.98279 -13.4694 L 5.99775 -13.4308 L 6.01269 -13.3921 L 6.0276 -13.3533 L 6.04248 -13.3145 L 6.05735 -13.2756 L 6.07218 -13.2367 L 6.08699 -13.1977 L 6.10178 -13.1587 L 6.11654 -13.1196 L 6.13127 -13.0804 L 6.14598 -13.0412 L 6.16066 -13.002 L 6.17531 -12.9627 L 6.18994 -12.9233 L 6.20454 -12.8839 L 6.20454 -12.8839 L 6.24447 -12.897 L 6.28437 -12.9101 L 6.32425 -12.9232 L 6.3641 -12.9362 L 6.40392 -12.9491 L 6.44371 -12.962 L 6.48348 -12.9749 L 6.52322 -12.9876 L 6.56293 -13.0004 L 6.60261 -13.013 L 6.64227 -13.0257 L 6.6819 -13.0382 L 6.7215 -13.0507 L 6.76108 -13.0632 L 6.80063 -13.0756 L 6.84015 -13.088 L 6.87964 -13.1003 L 6.91911 -13.1125 L 6.95855 -13.1247 L 6.99797 -13.1369 L 7.03735 -13.149 L 7.07671 -13.161 L 7.11605 -13.173 L 7.15535 -13.185 L 7.19464 -13.1969 L 7.23389 -13.2087 L 7.27312 -13.2205 L 7.31232 -13.2323 L 7.3515 -13.244 L 7.39065 -13.2557 L 7.42977 -13.2673 L 7.46887 -13.2788 L 7.50794 -13.2904 L 7.54698 -13.3018 L 7.586 -13.3133 L 7.625 -13.3247 L 7.66397 -13.336 L 7.70291 -13.3473 L 7.74183 -13.3586 L 7.78072 -13.3698 L 7.81958 -13.3809 L 7.85843 -13.3921 L 7.89724 -13.4031 L 7.93603 -13.4142 L 7.9748 -13.4252 L 8.01354 -13.4361 L 8.05225 -13.447 L 8.09094 -13.4579 L 8.12961 -13.4687 L 8.16825 -13.4795 L 8.20686 -13.4903 L 8.24545 -13.501 L 8.28402 -13.5116 L 8.32256 -13.5223 L 8.36108 -13.5328 L 8.39957 -13.5434 L 8.43804 -13.5539 L 8.47648 -13.5643 L 8.5149 -13.5748 L 8.55329 -13.5852 L 8.59167 -13.5955 L 8.63001 -13.6058 L 8.66834 -13.6161 L 8.70664 -13.6263 L 8.74491 -13.6365 L 8.78316 -13.6467 L 8.82139 -13.6568 L 8.85959 -13.6669 L 8.89777 -13.677 L 8.93593 -13.687 L 8.97407 -13.697 L 8.9985 -13.6809 L 9.0229 -13.6648 L 9.04727 -13.6487 L 9.07162 -13.6325 L 9.09594 -13.6163 L 9.12022 -13.6001 L 9.14448 -13.5838 L 9.16871 -13.5674 L 9.19291 -13.5511 L 9.21708 -13.5346 L 9.24122 -13.5182 L 9.26533 -13.5016 L 9.28942 -13.4851 L 9.31347 -13.4685 L 9.33749 -13.4518 L 9.36149 -13.4351 L 9.38545 -13.4184 L 9.40938 -13.4016 L 9.43329 -13.3848 L 9.45716 -13.368 L 9.481 -13.3511 L 9.50482 -13.3341 L 9.5286 -13.3171 L 9.55235 -13.3001 L 9.57607 -13.2831 L 9.59977 -13.2659 L 9.62343 -13.2488 L 9.64706 -13.2316 L 9.67066 -13.2143 L 9.69423 -13.1971 L 9.71776 -13.1797 L 9.74127 -13.1624 L 9.76475 -13.145 L 9.78819 -13.1275 L 9.81161 -13.11 L 9.83499 -13.0925 L 9.85834 -13.0749 L 9.88166 -13.0573 L 9.90495 -13.0397 L 9.92821 -13.022 L 9.95143 -13.0042 L 9.97462 -12.9864 L 9.99779 -12.9686 L 10.0209 -12.9507 L 10.044 -12.9328 L 10.0671 -12.9149 L 10.0901 -12.8969 L 10.1131 -12.8789 L 10.1361 -12.8608 L 10.159 -12.8427 L 10.1819 -12.8245 L 10.2373 -12.7804 L 10.2601 -12.7621 L 10.2829 -12.7438 L 10.3056 -12.7254 L 10.3283 -12.707 L 10.351 -12.6885 L 10.3736 -12.67 L 10.3962 -12.6515 L 10.4187 -12.6329 L 10.4413 -12.6143 L 10.4638 -12.5956 L 10.4862 -12.5769 L 10.5087 -12.5582 L 10.5311 -12.5394 L 10.5534 -12.5206 L 10.5758 -12.5018 L 10.5981 -12.4829 L 10.6203 -12.4639 L 10.6425 -12.445 L 10.6647 -12.4259 L 10.6869 -12.4069 L 10.709 -12.3878 L 10.7311 -12.3687 L 10.7532 -12.3495 L 10.7752 -12.3303 L 10.7972 -12.311 L 10.8191 -12.2917 L 10.8411 -12.2724 L 10.8629 -12.253 L 10.8848 -12.2336 L 10.9066 -12.2142 L 10.9284 -12.1947 L 10.9501 -12.1752 L 10.9719 -12.1556 L 10.9935 -12.136 L 11.0152 -12.1164 L 11.0368 -12.0967 L 11.0584 -12.077 L 11.0799 -12.0572 L 11.1014 -12.0374 L 11.1229 -12.0176 L 11.1443 -11.9977 L 11.1657 -11.9778 L 11.187 -11.9579 L 11.2084 -11.9379 L 11.2297 -11.9179 L 11.2509 -11.8978 L 11.2721 -11.8777 L 11.2933 -11.8576 L 11.3145 -11.8374 L 11.3356 -11.8172 L 11.3566 -11.7969 L 11.3554 -11.7575 L 11.3541 -11.7181 L 11.3528 -11.6786 L 11.3515 -11.6391 L 11.3501 -11.5996 L 11.3487 -11.5601 L 11.3473 -11.5205 L 11.3458 -11.4809 L 11.3443 -11.4412 L 11.3428 -11.4015 L 11.3413 -11.3618 L 11.3397 -11.3221 L 11.3381 -11.2823 L 11.3364 -11.2425 L 11.3347 -11.2027 L 11.333 -11.1628 L 11.3313 -11.1229 L 11.3295 -11.0829 L 11.3277 -11.043 L 11.3258 -11.003 L 11.3239 -10.9629 L 11.322 -10.9229 L 11.3201 -10.8827 L 11.3181 -10.8426 L 11.3161 -10.8024 L 11.314 -10.7622 L 11.3119 -10.722 L 11.3098 -10.6817 L 11.3076 -10.6414 L 11.3054 -10.6011 L 11.3032 -10.5607 L 11.3009 -10.5203 L 11.2986 -10.4798 L 11.2963 -10.4394 L 11.2939 -10.3988 L 11.2914 -10.3583 L 11.289 -10.3177 L 11.2865 -10.2771 L 11.2839 -10.2364 L 11.2814 -10.1957 L 11.2787 -10.155 L 11.2761 -10.1142 L 11.2734 -10.0734 L 11.2706 -10.0326 L 11.2679 -9.99174 L 11.265 -9.95083 L 11.2622 -9.90988 L 11.2593 -9.8689 L 11.2563 -9.82788 L 11.2533 -9.78683 L 11.2503 -9.74574 L 11.2472 -9.70461 L 11.2441 -9.66344 L 11.2409 -9.62224 L 11.2377 -9.581 L 11.2345 -9.53972 L 11.2312 -9.4984 L 11.2279 -9.45704 L 11.2245 -9.41565 L 11.221 -9.37422 L 11.2176 -9.33275 L 11.214 -9.29124 L 11.2105 -9.24969 L 11.2069 -9.20811 L 11.2032 -9.16648 L 11.1995 -9.12482 L 11.1957 -9.08311 L 11.1919 -9.04137 L 11.1881 -8.99959 L 11.1841 -8.95777 L 11.1802 -8.9159 L 11.1802 -8.9159 L 11.2219 -8.91045 L 11.2635 -8.90495 L 11.3051 -8.89941 L 11.3467 -8.89384 L 11.3882 -8.88822 L 11.4296 -8.88257 L 11.471 -8.87688 L 11.5123 -8.87115 L 11.5536 -8.86538 L 11.5949 -8.85958 L 11.6361 -8.85374 L 11.6773 -8.84787 L 11.7184 -8.84196 L 11.7594 -8.83601 L 11.8004 -8.83003 L 11.8414 -8.82401 L 11.8823 -8.81796 L 11.9232 -8.81187 L 11.964 -8.80575 L 12.0048 -8.7996 L 12.0456 -8.79341 L 12.0862 -8.78719 L 12.1269 -8.78093 L 12.1675 -8.77465 L 12.208 -8.76833 L 12.2486 -8.76198 L 12.289 -8.75559 L 12.3294 -8.74918 L 12.3698 -8.74273 L 12.4102 -8.73625 L 12.4504 -8.72974 L 12.4907 -8.7232 L 12.5309 -8.71664 L 12.5711 -8.71004 L 12.6112 -8.70341 L 12.6512 -8.69675 L 12.6913 -8.69006 L 12.7313 -8.68334 L 12.7712 -8.6766 L 12.8111 -8.66982 L 12.851 -8.66302 L 12.8908 -8.65619 L 12.9306 -8.64933 L 12.9703 -8.64244 L 13.01 -8.63553 L 13.0497 -8.62859 L 13.0893 -8.62162 L 13.1289 -8.61462 L 13.1684 -8.6076 L 13.2079 -8.60055 L 13.2473 -8.59348 L 13.2867 -8.58638 L 13.3261 -8.57925 L 13.3655 -8.5721 L 13.4047 -8.56493 L 13.444 -8.55773 L 13.4832 -8.5505 L 13.5224 -8.54325 L 13.5615 -8.53597 L 13.6006 -8.52867 L 13.6397 -8.52135 L 13.6787 -8.514 L 13.7177 -8.50663 L 13.7567 -8.49924 L 13.7956 -8.49182 L 13.8344 -8.48438 L 13.8733 -8.47692 L 13.9121 -8.46943 L 13.9508 -8.46192 L 13.9896 -8.45439 L 14.0282 -8.44684 L 14.0433 -8.42178 L 14.0583 -8.39671 L 14.0733 -8.3716 L 14.0882 -8.34647 L 14.1031 -8.32132 L 14.1179 -8.29613 L 14.1327 -8.27092 L 14.1474 -8.24569 L 14.1621 -8.22042 L 14.1768 -8.19513 L 14.1914 -8.16982 L 14.2059 -8.14448 L 14.2204 -8.11911 L 14.2349 -8.09372 L 14.2493 -8.0683 L 14.2637 -8.04285 L 14.278 -8.01738 L 14.2923 -7.99189 L 14.3066 -7.96637 L 14.3208 -7.94082 L 14.3349 -7.91525 L 14.349 -7.88965 L 14.3631 -7.86403 L 14.3771 -7.83838 L 14.391 -7.81271 L 14.405 -7.78701 L 14.4188 -7.76129 L 14.4327 -7.73555 L 14.4465 -7.70978 L 14.4602 -7.68398 L 14.4739 -7.65816 L 14.4875 -7.63232 L 14.5011 -7.60645 L 14.5147 -7.58055 L 14.5282 -7.55464 L 14.5416 -7.5287 L 14.5551 -7.50273 L 14.5684 -7.47674 L 14.5817 -7.45073 L 14.595 -7.42469 L 14.6082 -7.39863 L 14.6214 -7.37255 L 14.6346 -7.34644 L 14.6477 -7.32031 L 14.6607 -7.29415 L 14.6737 -7.26798 L 14.6866 -7.24178 L 14.6995 -7.21555 L 14.7124 -7.18931 L 14.7252 -7.16304 L 14.738 -7.13675 L 14.7687 -7.07291 L 14.7813 -7.04654 L 14.7939 -7.02015 L 14.8064 -6.99374 L 14.8188 -6.9673 L 14.8312 -6.94084 L 14.8436 -6.91436 L 14.8559 -6.88786 L 14.8682 -6.86133 L 14.8804 -6.83479 L 14.8926 -6.80822 L 14.9047 -6.78163 L 14.9168 -6.75501 L 14.9288 -6.72838 L 14.9408 -6.70173 L 14.9527 -6.67505 L 14.9646 -6.64835 L 14.9765 -6.62163 L 14.9883 -6.59489 L 15 -6.56813 L 15.0117 -6.54135 L 15.0234 -6.51455 L 15.035 -6.48772 L 15.0465 -6.46088 L 15.058 -6.43402 L 15.0695 -6.40713 L 15.0809 -6.38023 L 15.0923 -6.3533 L 15.1036 -6.32635 L 15.1148 -6.29939 L 15.1261 -6.2724 L 15.1372 -6.24539 L 15.1484 -6.21837 L 15.1594 -6.19132 L 15.1705 -6.16426 L 15.1814 -6.13717 L 15.1924 -6.11007 L 15.2032 -6.08294 L 15.2141 -6.0558 L 15.2249 -6.02864 L 15.2356 -6.00145 L 15.2463 -5.97425 L 15.2569 -5.94703 L 15.2675 -5.91979 L 15.278 -5.89253 L 15.2885 -5.86526 L 15.299 -5.83796 L 15.3094 -5.81065 L 15.3197 -5.78331 L 15.33 -5.75596 L 15.3403 -5.72859 L 15.3505 -5.70121 L 15.3323 -5.66625 L 15.314 -5.63128 L 15.2957 -5.59629 L 15.2774 -5.56129 L 15.259 -5.52627 L 15.2406 -5.49124 L 15.2221 -5.4562 L 15.2036 -5.42114 L 15.1851 -5.38606 L 15.1665 -5.35097 L 15.1478 -5.31586 L 15.1292 -5.28074 L 15.1105 -5.24561 L 15.0917 -5.21045 L 15.0729 -5.17529 L 15.0541 -5.14011 L 15.0352 -5.10491 L 15.0162 -5.0697 L 14.9973 -5.03447 L 14.9782 -4.99923 L 14.9592 -4.96398 L 14.94 -4.92871 L 14.9209 -4.89342 L 14.9017 -4.85812 L 14.8824 -4.8228 L 14.8631 -4.78747 L 14.8438 -4.75212 L 14.8244 -4.71676 L 14.805 -4.68138 L 14.7855 -4.64599 L 14.7659 -4.61059 L 14.7464 -4.57516 L 14.7267 -4.53973 L 14.707 -4.50427 L 14.6873 -4.46881 L 14.6675 -4.43332 L 14.6477 -4.39783 L 14.6278 -4.36231 L 14.6079 -4.32679 L 14.5879 -4.29124 L 14.5679 -4.25569 L 14.5478 -4.22011 L 14.5277 -4.18453 L 14.5075 -4.14892 L 14.4872 -4.11331 L 14.4669 -4.07767 L 14.4466 -4.04203 L 14.4262 -4.00636 L 14.4058 -3.97069 L 14.3852 -3.93499 L 14.3647 -3.89929 L 14.3441 -3.86356 L 14.3234 -3.82783 L 14.3027 -3.79207 L 14.2819 -3.75631 L 14.261 -3.72053 L 14.2402 -3.68473 L 14.2192 -3.64892 L 14.1982 -3.61309 L 14.1771 -3.57725 L 14.156 -3.5414 L 14.1348 -3.50553 L 14.1136 -3.46964 L 14.0923 -3.43375 L 14.0709 -3.39783 L 14.0495 -3.3619 L 14.028 -3.32596 L 14.0065 -3.29001 L 13.9849 -3.25403 L 13.9632 -3.21805 L 13.9415 -3.18205 L 13.9415 -3.18205 L 13.9767 -3.15904 L 14.0118 -3.13602 L 14.0469 -3.11299 L 14.0819 -3.08994 L 14.1168 -3.06687 L 14.1517 -3.0438 L 14.1865 -3.02071 L 14.2213 -2.99761 L 14.256 -2.9745 L 14.2907 -2.95137 L 14.3253 -2.92823 L 14.3598 -2.90508 L 14.3943 -2.88192 L 14.4287 -2.85874 L 14.463 -2.83556 L 14.4973 -2.81236 L 14.5316 -2.78915 L 14.5658 -2.76594 L 14.5999 -2.74271 L 14.634 -2.71947 L 14.668 -2.69622 L 14.7019 -2.67296 L 14.7359 -2.64969 L 14.7697 -2.62641 L 14.8035 -2.60312 L 14.8372 -2.57982 L 14.8709 -2.55651 L 14.9046 -2.53319 L 14.9382 -2.50986 L 14.9717 -2.48653 L 15.0052 -2.46318 L 15.0386 -2.43983 L 15.072 -2.41647 L 15.1053 -2.3931 L 15.1385 -2.36972 L 15.1718 -2.34633 L 15.2049 -2.32294 L 15.238 -2.29953 L 15.2711 -2.27612 L 15.3041 -2.25271 L 15.3371 -2.22928 L 15.37 -2.20585 L 15.4028 -2.18241 L 15.4357 -2.15896 L 15.4684 -2.13551 L 15.5011 -2.11205 L 15.5338 -2.08859 L 15.5664 -2.06511 L 15.599 -2.04163 L 15.6315 -2.01815 L 15.664 -1.99466 L 15.6964 -1.97116 L 15.7288 -1.94766 L 15.7612 -1.92415 L 15.7934 -1.90063 L 15.8257 -1.87711 L 15.8579 -1.85359 L 15.89 -1.83005 L 15.9221 -1.80652 L 15.9542 -1.78298 L 15.9862 -1.75943 L 16.0182 -1.73588 L 16.0501 -1.71232 L 16.082 -1.68876 L 16.1138 -1.66519 L 16.1456 -1.64162 L 16.1774 -1.61805 L 16.2091 -1.59447 L 16.2408 -1.57089 L 16.2724 -1.5473 L 16.304 -1.52371 L 16.3066 -1.49461 L 16.3093 -1.4655 L 16.3119 -1.43639 L 16.3144 -1.40728 L 16.3169 -1.37816 L 16.3193 -1.34903 L 16.3217 -1.31991 L 16.324 -1.29077 L 16.3263 -1.26164 L 16.3286 -1.2325 L 16.3307 -1.20335 L 16.3328 -1.1742 L 16.3349 -1.14505 L 16.3369 -1.1159 L 16.3389 -1.08674 L 16.3408 -1.05757 L 16.3427 -1.02841 L 16.3445 -0.999239 L 16.3462 -0.970066 L 16.3479 -0.940891 L 16.3496 -0.911712 L 16.3512 -0.882531 L 16.3527 -0.853347 L 16.3542 -0.82416 L 16.3557 -0.79497 L 16.3571 -0.765778 L 16.3584 -0.736583 L 16.3597 -0.707386 L 16.361 -0.678187 L 16.3621 -0.648986 L 16.3633 -0.619782 L 16.3643 -0.590577 L 16.3654 -0.56137 L 16.3664 -0.532161 L 16.3673 -0.50295 L 16.3681 -0.473738 L 16.369 -0.444524 L 16.3697 -0.415309 L 16.3704 -0.386092 L 16.3711 -0.356874 L 16.3717 -0.327655 L 16.3723 -0.298435 L 16.3728 -0.269214 L 16.3732 -0.239992 L 16.3736 -0.21077 L 16.374 -0.181547 L 16.3743 -0.152323 L 16.3745 -0.123098 L 16.3747 -0.0938737 L 16.3749 -0.0646487 L 16.375 -0.0354234Z"
id="path1" />
</g>
</svg>
