<?xml version="1.0" encoding="UTF-8" standalone="no"?>
<svg version="1.1">
<g
style="fill:none;stroke:#000000;stroke-opacity:1;stroke-width:0.1">
<path d="M 17.2499 0.0438417 L 17.2499 0.0704441 L 17.2497 0.0970463 L 17.2496 0.123648 L 17.2493 0.15025 L 17.2491 0.176851 L 17.2488 0.203452 L 17.2485 0.230053 L 17.2481 0.256653 L 17.2477 0.283252 L 17.2472 0.309851 L 17.2467 0.336449 L 17.2462 0.363046 L 17.2456 0.389642 L 17.245 0.416237 L 17.2443 0.442832 L 17.2436 0.469425 L 17.2429 0.496017 L 17.2421 0.522608 L 17.2413 0.549198 L 17.2404 0.575786 L 17.2395 0.602373 L 17.2385 0.628959 L 17.2375 0.655543 L 17.2365 0.682125 L 17.2354 0.708706 L 17.2343 0.735286 L 17.2332 0.761863 L 17.232 0.788439 L 17.2307 0.815013 L 17.2295 0.841584 L 17.2281 0.868154 L 17.2268 0.894722 L 17.2254 0.921288 L 17.2239 0.947851 L 17.2225 0.974412 L 17.2209 1.00097 L 17.2194 1.02753 L 17.2178 1.05408 L 17.2161 1.08063 L 17.2144 1.10718 L 17.2127 1.13373 L 17.2109 1.16027 L 17.2091 1.18681 L 17.2073 1.21335 L 17.2054 1.23989 L 17.2034 1.26642 L 17.2015 1.29295 L 17.1995 1.31947 L 17.1974 1.346 L 17.1953 1.37252 L 17.1932 1.39903 L 17.191 1.42555 L 17.1888 1.45206 L 17.1865 1.47856 L 17.1842 1.50507 L 17.1559 1.52387 L 17.1275 1.54267 L 17.099 1.56146 L 17.0706 1.58026 L 17.0421 1.59905 L 17.0136 1.61784 L 16.9851 1.63662 L 16.9566 1.6554 L 16.928 1.67419 L 16.8994 1.69296 L 16.8708 1.71174 L 16.8421 1.73051 L 16.8134 1.74928 L 16.7847 1.76805 L 16.756 1.78681 L 16.7272 1.80557 L 16.6984 1.82433 L 16.6696 1.84309 L 16.6407 1.86184 L 16.6118 1.88059 L 16.5829 1.89933 L 16.554 1.91808 L 16.525 1.93682 L 16.496 1.95555 L 16.467 1.97428 L 16.438 1.99301 L 16.4089 2.01174 L 16.3798 2.03046 L 16.3506 2.04918 L 16.3214 2.06789 L 16.2922 2.0866 L 16.263 2.10531 L 16.2338 2.12401 L 16.2045 2.14271 L 16.1751 2.1614 L 16.1458 2.1801 L 16.1164 2.19878 L 16.087 2.21746 L 16.0575 2.23614 L 16.0281 2.25482 L 15.9986 2.27349 L 15.969 2.29215 L 15.9395 2.31081 L 15.9099 2.32947 L 15.8802 2.34812 L 15.8506 2.36676 L 15.8209 2.3854 L 15.7911 2.40404 L 15.7614 2.42267 L 15.7316 2.4413 L 15.7017 2.45992 L 15.6719 2.47854 L 15.642 2.49715 L 15.6121 2.51576 L 15.5821 2.53436 L 15.5521 2.55295 L 15.5221 2.57154 L 15.492 2.59012 L 15.4619 2.6087 L 15.4318 2.62727 L 15.4016 2.64584 L 15.3714 2.6644 L 15.3412 2.68296 L 15.3109 2.70151 L 15.2806 2.72005 L 15.2503 2.73858 L 15.2199 2.75711 L 15.1895 2.77564 L 15.1591 2.79415 L 15.1286 2.81266 L 15.0981 2.83117 L 15.0675 2.84966 L 15.0369 2.86815 L 15.0063 2.88664 L 14.9756 2.90511 L 14.9449 2.92358 L 14.9142 2.94204 L 14.8834 2.9605 L 14.8834 2.9605 L 14.9048 2.98932 L 14.9261 3.01814 L 14.9474 3.04695 L 14.9687 3.07576 L 14.9899 3.10455 L 15.0111 3.13334 L 15.0322 3.16212 L 15.0533 3.19089 L 15.0744 3.21966 L 15.0955 3.24842 L 15.1165 3.27717 L 15.1374 3.30591 L 15.1584 3.33465 L 15.1793 3.36337 L 15.2001 3.39209 L 15.221 3.42081 L 15.2418 3.44951 L 15.2625 3.47821 L 15.2833 3.5069 L 15.304 3.53558 L 15.3246 3.56425 L 15.3452 3.59292 L 15.3658 3.62157 L 15.3864 3.65022 L 15.4069 3.67887 L 15.4274 3.7075 L 15.4479 3.73613 L 15.4683 3.76475 L 15.4887 3.79336 L 15.5091 3.82196 L 15.5294 3.85055 L 15.5497 3.87914 L 15.57 3.90772 L 15.5902 3.93629 L 15.6104 3.96486 L 15.6306 3.99341 L 15.6508 4.02196 L 15.6709 4.0505 L 15.691 4.07903 L 15.711 4.10756 L 15.7311 4.13607 L 15.751 4.16458 L 15.771 4.19308 L 15.791 4.22157 L 15.8109 4.25006 L 15.8307 4.27853 L 15.8506 4.307 L 15.8704 4.33546 L 15.8902 4.36392 L 15.9099 4.39236 L 15.9297 4.4208 L 15.9494 4.44923 L 15.9691 4.47765 L 15.9887 4.50606 L 16.0083 4.53447 L 16.0279 4.56287 L 16.0475 4.59126 L 16.067 4.61964 L 16.0865 4.64801 L 16.106 4.67638 L 16.1254 4.70474 L 16.1449 4.73309 L 16.1643 4.76143 L 16.1836 4.78976 L 16.203 4.81809 L 16.2223 4.84641 L 16.2416 4.87472 L 16.2609 4.90302 L 16.2801 4.93132 L 16.2993 4.9596 L 16.3185 4.98788 L 16.3377 5.01615 L 16.3568 5.04442 L 16.3759 5.07267 L 16.395 5.10092 L 16.4141 5.12916 L 16.4331 5.15739 L 16.4521 5.18561 L 16.4441 5.21098 L 16.436 5.23633 L 16.4279 5.26167 L 16.4198 5.287 L 16.4116 5.31232 L 16.4034 5.33762 L 16.3952 5.36291 L 16.3869 5.38819 L 16.3786 5.41346 L 16.3702 5.43871 L 16.3618 5.46395 L 16.3533 5.48917 L 16.3448 5.51439 L 16.3363 5.53959 L 16.3278 5.56477 L 16.3192 5.58995 L 16.3105 5.61511 L 16.3018 5.64026 L 16.2931 5.66539 L 16.2844 5.69051 L 16.2756 5.71562 L 16.2667 5.74071 L 16.2579 5.76579 L 16.249 5.79085 L 16.24 5.81591 L 16.231 5.84094 L 16.222 5.86597 L 16.2129 5.89098 L 16.2038 5.91597 L 16.1947 5.94096 L 16.1855 5.96592 L 16.1763 5.99088 L 16.167 6.01582 L 16.1577 6.04074 L 16.1484 6.06565 L 16.139 6.09055 L 16.1296 6.11543 L 16.1201 6.1403 L 16.1107 6.16515 L 16.1011 6.18999 L 16.0916 6.21481 L 16.082 6.23962 L 16.0723 6.26442 L 16.0626 6.2892 L 16.0529 6.31396 L 16.0432 6.33871 L 16.0334 6.36344 L 16.0235 6.38816 L 16.0137 6.41286 L 16.0038 6.43755 L 15.9938 6.46223 L 15.9838 6.48688 L 15.9738 6.51153 L 15.9637 6.53615 L 15.9536 6.56076 L 15.9201 6.64177 L 15.9098 6.66632 L 15.8995 6.69084 L 15.8892 6.71536 L 15.8788 6.73985 L 15.8684 6.76433 L 15.858 6.7888 L 15.8475 6.81324 L 15.8369 6.83767 L 15.8264 6.86209 L 15.8158 6.88649 L 15.8051 6.91087 L 15.7945 6.93524 L 15.7837 6.95959 L 15.773 6.98392 L 15.7622 7.00824 L 15.7514 7.03254 L 15.7405 7.05682 L 15.7296 7.08109 L 15.7187 7.10534 L 15.7077 7.12957 L 15.6967 7.15378 L 15.6856 7.17798 L 15.6745 7.20216 L 15.6634 7.22633 L 15.6523 7.25047 L 15.6411 7.2746 L 15.6298 7.29872 L 15.6185 7.32281 L 15.6072 7.34689 L 15.5959 7.37095 L 15.5845 7.39499 L 15.5731 7.41902 L 15.5616 7.44303 L 15.5501 7.46702 L 15.5386 7.49099 L 15.527 7.51494 L 15.5154 7.53888 L 15.5038 7.5628 L 15.4921 7.5867 L 15.4804 7.61058 L 15.4686 7.63445 L 15.4568 7.65829 L 15.445 7.68212 L 15.4331 7.70593 L 15.4212 7.72972 L 15.4093 7.75349 L 15.3973 7.77725 L 15.3853 7.80098 L 15.3732 7.8247 L 15.3612 7.8484 L 15.349 7.87208 L 15.3369 7.89574 L 15.3247 7.91939 L 15.3124 7.94301 L 15.3002 7.96661 L 15.2668 7.97313 L 15.2334 7.97963 L 15.1999 7.98612 L 15.1664 7.9926 L 15.1329 7.99907 L 15.0994 8.00552 L 15.0659 8.01196 L 15.0323 8.01839 L 14.9987 8.02481 L 14.9651 8.03121 L 14.9315 8.0376 L 14.8978 8.04398 L 14.8641 8.05034 L 14.8304 8.05669 L 14.7967 8.06303 L 14.7629 8.06935 L 14.7292 8.07566 L 14.6954 8.08196 L 14.6615 8.08824 L 14.6277 8.09451 L 14.5938 8.10077 L 14.5599 8.10701 L 14.5259 8.11324 L 14.492 8.11945 L 14.458 8.12565 L 14.424 8.13184 L 14.39 8.13801 L 14.3559 8.14416 L 14.3218 8.1503 L 14.2877 8.15643 L 14.2536 8.16254 L 14.2194 8.16864 L 14.1852 8.17472 L 14.151 8.18078 L 14.1167 8.18684 L 14.0825 8.19287 L 14.0482 8.19889 L 14.0139 8.20489 L 13.9795 8.21088 L 13.9451 8.21686 L 13.9107 8.22281 L 13.8763 8.22875 L 13.8418 8.23468 L 13.8073 8.24058 L 13.7728 8.24648 L 13.7383 8.25235 L 13.7037 8.25821 L 13.6691 8.26405 L 13.6345 8.26987 L 13.5998 8.27568 L 13.5651 8.28147 L 13.5304 8.28724 L 13.4957 8.293 L 13.4609 8.29873 L 13.4261 8.30445 L 13.3913 8.31015 L 13.3564 8.31584 L 13.3216 8.3215 L 13.2866 8.32715 L 13.2517 8.33278 L 13.2167 8.33839 L 13.1817 8.34398 L 13.1467 8.34955 L 13.1116 8.35511 L 13.0765 8.36064 L 13.0414 8.36615 L 13.0063 8.37165 L 12.9711 8.37713 L 12.9359 8.38258 L 12.9006 8.38802 L 12.8654 8.39344 L 12.83 8.39883 L 12.7947 8.40421 L 12.7593 8.40956 L 12.7239 8.4149 L 12.6885 8.42021 L 12.653 8.42551 L 12.6176 8.43078 L 12.6176 8.43078 L 12.6263 8.46559 L 12.6349 8.50038 L 12.6436 8.53514 L 12.6522 8.56989 L 12.6608 8.60462 L 12.6694 8.63932 L 12.6779 8.67401 L 12.6864 8.70867 L 12.6948 8.74331 L 12.7033 8.77793 L 12.7117 8.81253 L 12.7201 8.84711 L 12.7284 8.88167 L 12.7367 8.91621 L 12.745 8.95073 L 12.7533 8.98523 L 12.7615 9.01971 L 12.7697 9.05416 L 12.7779 9.0886 L 12.786 9.12302 L 12.7941 9.15742 L 12.8022 9.19179 L 12.8103 9.22615 L 12.8183 9.26049 L 12.8263 9.29481 L 12.8343 9.3291 L 12.8422 9.36338 L 12.8502 9.39764 L 12.8581 9.43188 L 12.8659 9.4661 L 12.8738 9.5003 L 12.8816 9.53448 L 12.8894 9.56864 L 12.8971 9.60279 L 12.9049 9.63691 L 12.9126 9.67101 L 12.9203 9.7051 L 12.928 9.73916 L 12.9356 9.77321 L 12.9432 9.80724 L 12.9508 9.84125 L 12.9584 9.87524 L 12.9659 9.90921 L 12.9734 9.94316 L 12.9809 9.97709 L 12.9884 10.011 L 12.9958 10.0449 L 13.0032 10.0788 L 13.0106 10.1126 L 13.018 10.1465 L 13.0253 10.1803 L 13.0327 10.2141 L 13.04 10.2479 L 13.0472 10.2817 L 13.0545 10.3154 L 13.0617 10.3492 L 13.0689 10.3829 L 13.0761 10.4166 L 13.0833 10.4502 L 13.0904 10.4839 L 13.0975 10.5176 L 13.1046 10.5512 L 13.1117 10.5848 L 13.1188 10.6184 L 13.1258 10.6519 L 13.1328 10.6855 L 13.1398 10.719 L 13.1468 10.7526 L 13.1537 10.7861 L 13.1607 10.8196 L 13.1676 10.853 L 13.1744 10.8865 L 13.1813 10.9199 L 13.1881 10.9533 L 13.195 10.9867 L 13.2018 11.0201 L 13.2086 11.0535 L 13.2153 11.0868 L 13.1982 11.1072 L 13.1811 11.1275 L 13.1639 11.1479 L 13.1467 11.1681 L 13.1294 11.1884 L 13.1122 11.2086 L 13.0949 11.2288 L 13.0775 11.249 L 13.0602 11.2692 L 13.0428 11.2893 L 13.0253 11.3094 L 13.0079 11.3295 L 12.9904 11.3495 L 12.9729 11.3696 L 12.9553 11.3895 L 12.9378 11.4095 L 12.9201 11.4294 L 12.9025 11.4494 L 12.8848 11.4692 L 12.8671 11.4891 L 12.8494 11.5089 L 12.8316 11.5287 L 12.8138 11.5485 L 12.796 11.5683 L 12.7782 11.588 L 12.7603 11.6077 L 12.7424 11.6273 L 12.7244 11.647 L 12.7064 11.6666 L 12.6884 11.6862 L 12.6704 11.7057 L 12.6523 11.7252 L 12.6342 11.7447 L 12.6161 11.7642 L 12.5979 11.7837 L 12.5797 11.8031 L 12.5615 11.8225 L 12.5433 11.8418 L 12.525 11.8611 L 12.5067 11.8804 L 12.4884 11.8997 L 12.47 11.919 L 12.4516 11.9382 L 12.4332 11.9574 L 12.4147 11.9765 L 12.3962 11.9957 L 12.3777 12.0148 L 12.3592 12.0338 L 12.3406 12.0529 L 12.322 12.0719 L 12.3034 12.0909 L 12.2847 12.1098 L 12.266 12.1288 L 12.2473 12.1477 L 12.2286 12.1666 L 12.1666 12.2286 L 12.1477 12.2473 L 12.1288 12.266 L 12.1098 12.2847 L 12.0909 12.3034 L 12.0719 12.322 L 12.0529 12.3406 L 12.0338 12.3592 L 12.0148 12.3777 L 11.9957 12.3962 L 11.9765 12.4147 L 11.9574 12.4332 L 11.9382 12.4516 L 11.919 12.47 L 11.8997 12.4884 L 11.8804 12.5067 L 11.8611 12.525 L 11.8418 12.5433 L 11.8225 12.5615 L 11.8031 12.5797 L 11.7837 12.5979 L 11.7642 12.6161 L 11.7447 12.6342 L 11.7252 12.6523 L 11.7057 12.6704 L 11.6862 12.6884 L 11.6666 12.7064 L 11.647 12.7244 L 11.6273 12.7424 L 11.6077 12.7603 L 11.588 12.7782 L 11.5683 12.796 L 11.5485 12.8138 L 11.5287 12.8316 L 11.5089 12.8494 L 11.4891 12.8671 L 11.4692 12.8848 L 11.4494 12.9025 L 11.4294 12.9201 L 11.4095 12.9378 L 11.3895 12.9553 L 11.3696 12.9729 L 11.3495 12.9904 L 11.3295 13.0079 L 11.3094 13.0253 L 11.2893 13.0428 L 11.2692 13.0602 L 11.249 13.0775 L 11.2288 13.0949 L 11.2086 13.1122 L 11.1884 13.1294 L 11.1681 13.1467 L 11.1479 13.1639 L 11.1275 13.1811 L 11.1072 13.1982 L 11.0868 13.2153 L 11.0535 13.2086 L 11.0201 13.2018 L 10.9867 13.195 L 10.9533 13.1881 L 10.9199 13.1813 L 10.8865 13.1744 L 10.853 13.1676 L 10.8196 13.1607 L 10.7861 13.1537 L 10.7526 13.1468 L 10.719 13.1398 L 10.6855 13.1328 L 10.6519 13.1258 L 10.6184 13.1188 L 10.5848 13.1117 L 10.5512 13.1046 L 10.5176 13.0975 L 10.4839 13.0904 L 10.4502 13.0833 L 10.4166 13.0761 L 10.3829 13.0689 L 10.3492 13.0617 L 10.3154 13.0545 L 10.2817 13.0472 L 10.2479 13.04 L 10.2141 13.0327 L 10.1803 13.0253 L 10.1465 13.018 L 10.1126 13.0106 L 10.0788 13.0032 L 10.0449 12.9958 L 10.011 12.9884 L 9.97709 12.9809 L 9.94316 12.9734 L 9.90921 12.9659 L 9.87524 12.9584 L 9.84125 12.9508 L 9.80724 12.9432 L 9.77321 12.9356 L 9.73916 12.928 L 9.7051 12.9203 L 9.67101 12.9126 L 9.63691 12.9049 L 9.60279 12.8971 L 9.56864 12.8894 L 9.53448 12.8816 L 9.5003 12.8738 L 9.4661 12.8659 L 9.43188 12.8581 L 9.39764 12.8502 L 9.36338 12.8422 L 9.3291 12.8343 L 9.29481 12.8263 L 9.26049 12.8183 L 9.22615 12.8103 L 9.19179 12.8022 L 9.15742 12.7941 L 9.12302 12.786 L 9.0886 12.7779 L 9.05416 12.7697 L 9.01971 12.7615 L 8.98523 12.7533 L 8.95073 12.745 L 8.91621 12.7367 L 8.88167 12.7284 L 8.84711 12.7201 L 8.81253 12.7117 L 8.77793 12.7033 L 8.74331 12.6948 L 8.70867 12.6864 L 8.67401 12.6779 L 8.63932 12.6694 L 8.60462 12.6608 L 8.56989 12.6522 L 8.53514 12.6436 L 8.50038 12.6349 L 8.46559 12.6263 L 8.43078 12.6176 L 8.43078 12.6176 L 8.42551 12.653 L 8.42021 12.6885 L 8.4149 12.7239 L 8.40956 12.7593 L 8.40421 12.7947 L 8.39883 12.83 L 8.39344 12.8654 L 8.38802 12.9006 L 8.38258 12.9359 L 8.37713 12.9711 L 8.37165 13.0063 L 8.36615 13.0414 L 8.36064 13.0765 L 8.35511 13.1116 L 8.34955 13.1467 L 8.34398 13.1817 L 8.33839 13.2167 L 8.33278 13.2517 L 8.32715 13.2866 L 8.3215 13.3216 L 8.31584 13.3564 L 8.31015 13.3913 L 8.30445 13.4261 L 8.29873 13.4609 L 8.293 13.4957 L 8.28724 13.5304 L 8.28147 13.5651 L 8.27568 13.5998 L 8.26987 13.6345 L 8.26405 13.6691 L 8.25821 13.7037 L 8.25235 13.7383 L 8.24648 13.7728 L 8.24058 13.8073 L 8.23468 13.8418 L 8.22875 13.8763 L 8.22281 13.9107 L 8.21686 13.9451 L 8.21088 13.9795 L 8.20489 14.0139 L 8.19889 14.0482 L 8.19287 14.0825 L 8.18684 14.1167 L 8.18078 14.151 L 8.17472 14.1852 L 8.16864 14.2194 L 8.16254 14.2536 L 8.15643 14.2877 L 8.1503 14.3218 L 8.14416 14.3559 L 8.13801 14.39 L 8.13184 14.424 L 8.12565 14.458 L 8.11945 14.492 L 8.11324 14.5259 L 8.10701 14.5599 L 8.10077 14.5938 L 8.09451 14.6277 L 8.08824 14.6615 L 8.08196 14.6954 L 8.07566 14.7292 L 8.06935 14.7629 L 8.06303 14.7967 L 8.05669 14.8304 L 8.05034 14.8641 L 8.04398 14.8978 L 8.0376 14.9315 L 8.03121 14.9651 L 8.02481 14.9987 L 8.01839 15.0323 L 8.01196 15.0659 L 8.00552 15.0994 L 7.99907 15.1329 L 7.9926 15.1664 L 7.98612 15.1999 L 7.97963 15.2334 L 7.97313 15.2668 L 7.96661 15.3002 L 7.94301 15.3124 L 7.91939 15.3247 L 7.89574 15.3369 L 7.87208 15.349 L 7.8484 15.3612 L 7.8247 15.3732 L 7.80098 15.3853 L 7.77725 15.3973 L 7.75349 15.4093 L 7.72972 15.4212 L 7.70593 15.4331 L 7.68212 15.445 L 7.65829 15.4568 L 7.63445 15.4686 L 7.61058 15.4804 L 7.5867 15.4921 L 7.5628 15.5038 L 7.53888 15.5154 L 7.51494 15.527 L 7.49099 15.5386 L 7.46702 15.5501 L 7.44303 15.5616 L 7.41902 15.5731 L 7.39499 15.5845 L 7.37095 15.5959 L 7.34689 15.6072 L 7.32281 15.6185 L 7.29872 15.6298 L 7.2746 15.6411 L 7.25047 15.6523 L 7.22633 15.6634 L 7.20216 15.6745 L 7.17798 15.6856 L 7.15378 15.6967 L 7.12957 15.7077 L 7.10534 15.7187 L 7.08109 15.7296 L 7.05682 15.7405 L 7.03254 15.7514 L 7.00824 15.7622 L 6.98392 15.773 L 6.95959 15.7837 L 6.93524 15.7945 L 6.91087 15.8051 L 6.88649 15.8158 L 6.86209 15.8264 L 6.83767 15.8369 L 6.81324 15.8475 L 6.7888 15.858 L 6.76433 15.8684 L 6.73985 15.8788 L 6.71536 15.8892 L 6.69084 15.8995 L 6.66632 15.9098 L 6.64177 15.9201 L 6.56076 15.9536 L 6.53615 15.9637 L 6.51153 15.9738 L 6.48688 15.9838 L 6.46223 15.9938 L 6.43755 16.0038 L 6.41286 16.0137 L 6.38816 16.0235 L 6.36344 16.0334 L 6.33871 16.0432 L 6.31396 16.0529 L 6.2892 16.0626 L 6.26442 16.0723 L 6.23962 16.082 L 6.21481 16.0916 L 6.18999 16.1011 L 6.16515 16.1107 L 6.1403 16.1201 L 6.11543 16.1296 L 6.09055 16.139 L 6.06565 16.1484 L 6.04074 16.1577 L 6.01582 16.167 L 5.99088 16.1763 L 5.96592 16.1855 L 5.94096 16.1947 L 5.91597 16.2038 L 5.89098 16.2129 L 5.86597 16.222 L 5.84094 16.231 L 5.81591 16.24 L 5.79085 16.249 L 5.76579 16.2579 L 5.74071 16.2667 L 5.71562 16.2756 L 5.69051 16.2844 L 5.66539 16.2931 L 5.64026 16.3018 L 5.61511 16.3105 L 5.58995 16.3192 L 5.56477 16.3278 L 5.53959 16.3363 L 5.51439 16.3448 L 5.48917 16.3533 L 5.46395 16.3618 L 5.43871 16.3702 L 5.41346 16.3786 L 5.38819 16.3869 L 5.36291 16.3952 L 5.33762 16.4034 L 5.31232 16.4116 L 5.287 16.4198 L 5.26167 16.4279 L 5.23633 16.436 L 5.21098 16.4441 L 5.18561 16.4521 L 5.15739 16.4331 L 5.12916 16.4141 L 5.10092 16.395 L 5.07267 16.3759 L 5.04442 16.3568 L 5.01615 16.3377 L 4.98788 16.3185 L 4.9596 16.2993 L 4.93132 16.2801 L 4.90302 16.2609 L 4.87472 16.2416 L 4.84641 16.2223 L 4.81809 16.203 L 4.78976 16.1836 L 4.76143 16.1643 L 4.73309 16.1449 L 4.70474 16.1254 L 4.67638 16.106 L 4.64801 16.0865 L 4.61964 16.067 L 4.59126 16.0475 L 4.56287 16.0279 L 4.53447 16.0083 L 4.50606 15.9887 L 4.47765 15.9691 L 4.44923 15.9494 L 4.4208 15.9297 L 4.39236 15.9099 L 4.36392 15.8902 L 4.33546 15.8704 L 4.307 15.8506 L 4.27853 15.8307 L 4.25006 15.8109 L 4.22157 15.791 L 4.19308 15.771 L 4.16458 15.751 L 4.13607 15.7311 L 4.10756 15.711 L 4.07903 15.691 L 4.0505 15.6709 L 4.02196 15.6508 L 3.99341 15.6306 L 3.96486 15.6104 L 3.93629 15.5902 L 3.90772 15.57 L 3.87914 15.5497 L 3.85055 15.5294 L 3.82196 15.5091 L 3.79336 15.4887 L 3.76475 15.4683 L 3.73613 15.4479 L 3.7075 15.4274 L 3.67887 15.4069 L 3.65022 15.3864 L 3.62157 15.3658 L 3.59292 15.3452 L 3.56425 15.3246 L 3.53558 15.304 L 3.5069 15.2833 L 3.47821 15.2625 L 3.44951 15.2418 L 3.42081 15.221 L 3.39209 15.2001 L 3.36337 15.1793 L 3.33465 15.1584 L 3.30591 15.1374 L 3.27717 15.1165 L 3.24842 15.0955 L 3.21966 15.0744 L 3.19089 15.0533 L 3.16212 15.0322 L 3.13334 15.0111 L 3.10455 14.9899 L 3.07576 14.9687 L 3.04695 14.9474 L 3.01814 14.9261 L 2.98932 14.9048 L 2.9605 14.8834 L 2.9605 14.8834 L 2.94204 14.9142 L 2.92358 14.9449 L 2.90511 14.9756 L 2.88664 15.0063 L 2.86815 15.0369 L 2.84966 15.0675 L 2.83117 15.0981 L 2.81266 15.1286 L 2.79415 15.1591 L 2.77564 15.1895 L 2.75711 15.2199 L 2.73858 15.2503 L 2.72005 15.2806 L 2.70151 15.3109 L 2.68296 15.3412 L 2.6644 15.3714 L 2.64584 15.4016 L 2.62727 15.4318 L 2.6087 15.4619 L 2.59012 15.492 L 2.57154 15.5221 L 2.55295 15.5521 L 2.53436 15.5821 L 2.51576 15.6121 L 2.49715 15.642 L 2.47854 15.6719 L 2.45992 15.7017 L 2.4413 15.7316 L 2.42267 15.7614 L 2.40404 15.7911 L 2.3854 15.8209 L 2.36676 15.8506 L 2.34812 15.8802 L 2.32947 15.9099 L 2.31081 15.9395 L 2.29215 15.969 L 2.27349 15.9986 L 2.25482 16.0281 L 2.23614 16.0575 L 2.21746 16.087 L 2.19878 16.1164 L 2.1801 16.1458 L 2.1614 16.1751 L 2.14271 16.2045 L 2.12401 16.2338 L 2.10531 16.263 L 2.0866 16.2922 L 2.06789 16.3214 L 2.04918 16.3506 L 2.03046 16.3798 L 2.01174 16.4089 L 1.99301 16.438 L 1.97428 16.467 L 1.95555 16.496 L 1.93682 16.525 L 1.91808 16.554 L 1.89933 16.5829 L 1.88059 16.6118 L 1.86184 16.6407 L 1.84309 16.6696 L 1.82433 16.6984 L 1.80557 16.7272 L 1.78681 16.756 L 1.76805 16.7847 L 1.74928 16.8134 L 1.73051 16.8421 L 1.71174 16.8708 L 1.69296 16.8994 L 1.67419 16.928 L 1.6554 16.9566 L 1.63662 16.9851 L 1.61784 17.0136 L 1.59905 17.0421 L 1.58026 17.0706 L 1.56146 17.099 L 1.54267 17.1275 L 1.52387 17.1559 L 1.50507 17.1842 L 1.47856 17.1865 L 1.45206 17.1888 L 1.42555 17.191 L 1.39903 17.1932 L 1.37252 17.1953 L 1.346 17.1974 L 1.31947 17.1995 L 1.29295 17.2015 L 1.26642 17.2034 L 1.23989 17.2054 L 1.21335 17.2073 L 1.18681 17.2091 L 1.16027 17.2109 L 1.13373 17.2127 L 1.10718 17.2144 L 1.08063 17.2161 L 1.05408 17.2178 L 1.02753 17.2194 L 1.00097 17.2209 L 0.974412 17.2225 L 0.947851 17.2239 L 0.921288 17.2254 L 0.894722 17.2268 L 0.868154 17.2281 L 0.841584 17.2295 L 0.815013 17.2307 L 0.788439 17.232 L 0.761863 17.2332 L 0.735286 17.2343 L 0.708706 17.2354 L 0.682125 17.2365 L 0.655543 17.2375 L 0.628959 17.2385 L 0.602373 17.2395 L 0.575786 17.2404 L 0.549198 17.2413 L 0.522608 17.2421 L 0.496017 17.2429 L 0.469425 17.2436 L 0.442832 17.2443 L 0.416237 17.245 L 0.389642 17.2456 L 0.363046 17.2462 L 0.336449 17.2467 L 0.309851 17.2472 L 0.283252 17.2477 L 0.256653 17.2481 L 0.230053 17.2485 L 0.203452 17.2488 L 0.176851 17.2491 L 0.15025 17.2493 L 0.123648 17.2496 L 0.0970463 17.2497 L 0.0704441 17.2499 L 0.0438417 17.2499 L -0.0438417 17.2499 L -0.0704441 17.2499 L -0.0970463 17.2497 L -0.123648 17.2496 L -0.15025 17.2493 L -0.176851 17.2491 L -0.203452 17.2488 L -0.230053 17.2485 L -0.256653 17.2481 L -0.283252 17.2477 L -0.309851 17.2472 L -0.336449 17.2467 L -0.363046 17.2462 L -0.389642 17.2456 L -0.416237 17.245 L -0.442832 17.2443 L -0.469425 17.2436 L -0.496017 17.2429 L -0.522608 17.2421 L -0.549198 17.2413 L -0.575786 17.2404 L -0.602373 17.2395 L -0.628959 17.2385 L -0.655543 17.2375 L -0.682125 17.2365 L -0.708706 17.2354 L -0.735286 17.2343 L -0.761863 17.2332 L -0.788439 17.232 L -0.815013 17.2307 L -0.841584 17.2295 L -0.868154 17.2281 L -0.894722 17.2268 L -0.921288 17.2254 L -0.947851 17.2239 L -0.974412 17.2225 L -1.00097 17.2209 L -1.02753 17.2194 L -1.05408 17.2178 L -1.08063 17.2161 L -1.10718 17.2144 L -1.13373 17.2127 L -1.16027 17.2109 L -1.18681 17.2091 L -1.21335 17.2073 L -1.23989 17.2054 L -1.26642 17.2034 L -1.29295 17.2015 L -1.31947 17.1995 L -1.346 17.1974 L -1.37252 17.1953 L -1.39903 17.1932 L -1.42555 17.191 L -1.45206 17.1888 L -1.47856 17.1865 L -1.50507 17.1842 L -1.52387 17.1559 L -1.54267 17.1275 L -1.56146 17.099 L -1.58026 17.0706 L -1.59905 17.0421 L -1.61784 17.0136 L -1.63662 16.9851 L -1.6554 16.9566 L -1.67419 16.928 L -1.69296 16.8994 L -1.71174 16.8708 L -1.73051 16.8421 L -1.74928 16.8134 L -1.76805 16.7847 L -1.78681 16.756 L -1.80557 16.7272 L -1.82433 16.6984 L -1.84309 16.6696 L -1.86184 16.6407 L -1.88059 16.6118 L -1.89933 16.5829 L -1.91808 16.554 L -1.93682 16.525 L -1.95555 16.496 L -1.97428 16.467 L -1.99301 16.438 L -2.01174 16.4089 L -2.03046 16.3798 L -2.04918 16.3506 L -2.06789 16.3214 L -2.0866 16.2922 L -2.10531 16.263 L -2.12401 16.2338 L -2.14271 16.2045 L -2.1614 16.1751 L -2.1801 16.1458 L -2.19878 16.1164 L -2.21746 16.087 L -2.23614 16.0575 L -2.25482 16.0281 L -2.27349 15.9986 L -2.29215 15.969 L -2.31081 15.9395 L -2.32947 15.9099 L -2.34812 15.8802 L -2.36676 15.8506 L -2.3854 15.8209 L -2.40404 15.7911 L -2.42267 15.7614 L -2.4413 15.7316 L -2.45992 15.7017 L -2.47854 15.6719 L -2.49715 15.642 L -2.51576 15.6121 L -2.53436 15.5821 L -2.55295 15.5521 L -2.57154 15.5221 L -2.59012 15.492 L -2.6087 15.4619 L -2.62727 15.4318 L -2.64584 15.4016 L -2.6644 15.3714 L -2.68296 15.3412 L -2.70151 15.3109 L -2.72005 15.2806 L -2.73858 15.2503 L -2.75711 15.2199 L -2.77564 15.1895 L -2.79415 15.1591 L -2.81266 15.1286 L -2.83117 15.0981 L -2.84966 15.0675 L -2.86815 15.0369 L -2.88664 15.0063 L -2.90511 14.9756 L -2.92358 14.9449 L -2.94204 14.9142 L -2.9605 14.8834 L -2.9605 14.8834 L -2.98932 14.9048 L -3.01814 14.9261 L -3.04695 14.9474 L -3.07576 14.9687 L -3.10455 14.9899 L -3.13334 15.0111 L -3.16212 15.0322 L -3.19089 15.0533 L -3.21966 15.0744 L -3.24842 15.0955 L -3.27717 15.1165 L -3.30591 15.1374 L -3.33465 15.1584 L -3.36337 15.1793 L -3.39209 15.2001 L -3.42081 15.221 L -3.44951 15.2418 L -3.47821 15.2625 L -3.5069 15.2833 L -3.53558 15.304 L -3.56425 15.3246 L -3.59292 15.3452 L -3.62157 15.3658 L -3.65022 15.3864 L -3.67887 15.4069 L -3.7075 15.4274 L -3.73613 15.4479 L -3.76475 15.4683 L -3.79336 15.4887 L -3.82196 15.5091 L -3.85055 15.5294 L -3.87914 15.5497 L -3.90772 15.57 L -3.93629 15.5902 L -3.96486 15.6104 L -3.99341 15.6306 L -4.02196 15.6508 L -4.0505 15.6709 L -4.07903 15.691 L -4.10756 15.711 L -4.13607 15.7311 L -4.16458 15.751 L -4.19308 15.771 L -4.22157 15.791 L -4.25006 15.8109 L -4.27853 15.8307 L -4.307 15.8506 L -4.33546 15.8704 L -4.36392 15.8902 L -4.39236 15.9099 L -4.4208 15.9297 L -4.44923 15.9494 L -4.47765 15.9691 L -4.50606 15.9887 L -4.53447 16.0083 L -4.56287 16.0279 L -4.59126 16.0475 L -4.61964 16.067 L -4.64801 16.0865 L -4.67638 16.106 L -4.70474 16.1254 L -4.73309 16.1449 L -4.76143 16.1643 L -4.78976 16.1836 L -4.81809 16.203 L -4.84641 16.2223 L -4.87472 16.2416 L -4.90302 16.2609 L -4.93132 16.2801 L -4.9596 16.2993 L -4.98788 16.3185 L -5.01615 16.3377 L -5.04442 16.3568 L -5.07267 16.3759 L -5.10092 16.395 L -5.12916 16.4141 L -5.15739 16.4331 L -5.18561 16.4521 L -5.21098 16.4441 L -5.23633 16.436 L -5.26167 16.4279 L -5.287 16.4198 L -5.31232 16.4116 L -5.33762 16.4034 L -5.36291 16.3952 L -5.38819 16.3869 L -5.41346 16.3786 L -5.43871 16.3702 L -5.46395 16.3618 L -5.48917 16.3533 L -5.51439 16.3448 L -5.53959 16.3363 L -5.56477 16.3278 L -5.58995 16.3192 L -5.61511 16.3105 L -5.64026 16.3018 L -5.66539 16.2931 L -5.69051 16.2844 L -5.71562 16.2756 L -5.74071 16.2667 L -5.76579 16.2579 L -5.79085 16.249 L -5.81591 16.24 L -5.84094 16.231 L -5.86597 16.222 L -5.89098 16.2129 L -5.91597 16.2038 L -5.94096 16.1947 L -5.96592 16.1855 L -5.99088 16.1763 L -6.01582 16.167 L -6.04074 16.1577 L -6.06565 16.1484 L -6.09055 16.139 L -6.11543 16.1296 L -6.1403 16.1201 L -6.16515 16.1107 L -6.18999 16.1011 L -6.21481 16.0916 L -6.23962 16.082 L -6.26442 16.0723 L -6.2892 16.0626 L -6.31396 16.0529 L -6.33871 16.0432 L -6.36344 16.0334 L -6.38816 16.0235 L -6.41286 16.0137 L -6.43755 16.0038 L -6.46223 15.9938 L -6.48688 15.9838 L -6.51153 15.9738 L -6.53615 15.9637 L -6.56076 15.9536 L -6.64177 15.9201 L -6.66632 15.9098 L -6.69084 15.8995 L -6.71536 15.8892 L -6.73985 15.8788 L -6.76433 15.8684 L -6.7888 15.858 L -6.81324 15.8475 L -6.83767 15.8369 L -6.86209 15.8264 L -6.88649 15.8158 L -6.91087 15.8051 L -6.93524 15.7945 L -6.95959 15.7837 L -6.98392 15.773 L -7.00824 15.7622 L -7.03254 15.7514 L -7.05682 15.7405 L -7.08109 15.7296 L -7.10534 15.7187 L -7.12957 15.7077 L -7.15378 15.6967 L -7.17798 15.6856 L -7.20216 15.6745 L -7.22633 15.6634 L -7.25047 15.6523 L -7.2746 15.6411 L -7.29872 15.6298 L -7.32281 15.6185 L -7.34689 15.6072 L -7.37095 15.5959 L -7.39499 15.5845 L -7.41902 15.5731 L -7.44303 15.5616 L -7.46702 15.5501 L -7.49099 15.5386 L -7.51494 15.527 L -7.53888 15.5154 L -7.5628 15.5038 L -7.5867 15.4921 L -7.61058 15.4804 L -7.63445 15.4686 L -7.65829 15.4568 L -7.68212 15.445 L -7.70593 15.4331 L -7.72972 15.4212 L -7.75349 15.4093 L -7.77725 15.3973 L -7.80098 15.3853 L -7.8247 15.3732 L -7.8484 15.3612 L -7.87208 15.349 L -7.89574 15.3369 L -7.91939 15.3247 L -7.94301 15.3124 L -7.96661 15.3002 L -7.97313 15.2668 L -7.97963 15.2334 L -7.98612 15.1999 L -7.9926 15.1664 L -7.99907 15.1329 L -8.00552 15.0994 L -8.01196 15.0659 L -8.01839 15.0323 L -8.02481 14.9987 L -8.03121 14.9651 L -8.0376 14.9315 L -8.04398 14.8978 L -8.05034 14.8641 L -8.05669 14.8304 L -8.06303 14.7967 L -8.06935 14.7629 L -8.07566 14.7292 L -8.08196 14.6954 L -8.08824 14.6615 L -8.09451 14.6277 L -8.10077 14.5938 L -8.10701 14.5599 L -8.11324 14.5259 L -8.11945 14.492 L -8.12565 14.458 L -8.13184 14.424 L -8.13801 14.39 L -8.14416 14.3559 L -8.1503 14.3218 L -8.15643 14.2877 L -8.16254 14.2536 L -8.16864 14.2194 L -8.17472 14.1852 L -8.18078 14.151 L -8.18684 14.1167 L -8.19287 14.0825 L -8.19889 14.0482 L -8.20489 14.0139 L -8.21088 13.9795 L -8.21686 13.9451 L -8.22281 13.9107 L -8.22875 13.8763 L -8.23468 13.8418 L -8.24058 13.8073 L -8.24648 13.7728 L -8.25235 13.7383 L -8.25821 13.7037 L -8.26405 13.6691 L -8.26987 13.6345 L -8.27568 13.5998 L -8.28147 13.5651 L -8.28724 13.5304 L -8.293 13.4957 L -8.29873 13.4609 L -8.30445 13.4261 L -8.31015 13.3913 L -8.31584 13.3564 L -8.3215 13.3216 L -8.32715 13.2866 L -8.33278 13.2517 L -8.33839 13.2167 L -8.34398 13.1817 L -8.34955 13.1467 L -8.35511 13.1116 L -8.36064 13.0765 L -8.36615 13.0414 L -8.37165 13.0063 L -8.37713 12.9711 L -8.38258 12.9359 L -8.38802 12.9006 L -8.39344 12.8654 L -8.39883 12.83 L -8.40421 12.7947 L -8.40956 12.7593 L -8.4149 12.7239 L -8.42021 12.6885 L -8.42551 12.653 L -8.43078 12.6176 L -8.43078 12.6176 L -8.46559 12.6263 L -8.50038 12.6349 L -8.53514 12.6436 L -8.56989 12.6522 L -8.60462 12.6608 L -8.63932 12.6694 L -8.67401 12.6779 L -8.70867 12.6864 L -8.74331 12.6948 L -8.77793 12.7033 L -8.81253 12.7117 L -8.84711 12.7201 L -8.88167 12.7284 L -8.91621 12.7367 L -8.95073 12.745 L -8.98523 12.7533 L -9.01971 12.7615 L -9.05416 12.7697 L -9.0886 12.7779 L -9.12302 12.786 L -9.15742 12.7941 L -9.19179 12.8022 L -9.22615 12.8103 L -9.26049 12.8183 L -9.29481 12.8263 L -9.3291 12.8343 L -9.36338 12.8422 L -9.39764 12.8502 L -9.43188 12.8581 L -9.4661 12.8659 L -9.5003 12.8738 L -9.53448 12.8816 L -9.56864 12.8894 L -9.60279 12.8971 L -9.63691 12.9049 L -9.67101 12.9126 L -9.7051 12.9203 L -9.73916 12.928 L -9.77321 12.9356 L -9.80724 12.9432 L -9.84125 12.9508 L -9.87524 12.9584 L -9.90921 12.9659 L -9.94316 12.9734 L -9.97709 12.9809 L -10.011 12.9884 L -10.0449 12.9958 L -10.0788 13.0032 L -10.1126 13.0106 L -10.1465 13.018 L -10.1803 13.0253 L -10.2141 13.0327 L -10.2479 13.04 L -10.2817 13.0472 L -10.3154 13.0545 L -10.3492 13.0617 L -10.3829 13.0689 L -10.4166 13.0761 L -10.4502 13.0833 L -10.4839 13.0904 L -10.5176 13.0975 L -10.5512 13.1046 L -10.5848 13.1117 L -10.6184 13.1188 L -10.6519 13.1258 L -10.6855 13.1328 L -10.719 13.1398 L -10.7526 13.1468 L -10.7861 13.1537 L -10.8196 13.1607 L -10.853 13.1676 L -10.8865 13.1744 L -10.9199 13.1813 L -10.9533 13.1881 L -10.9867 13.195 L -11.0201 13.2018 L -11.0535 13.2086 L -11.0868 13.2153 L -11.1072 13.1982 L -11.1275 13.1811 L -11.1479 13.1639 L -11.1681 13.1467 L -11.1884 13.1294 L -11.2086 13.1122 L -11.2288 13.0949 L -11.249 13.0775 L -11.2692 13.0602 L -11.2893 13.0428 L -11.3094 13.0253 L -11.3295 13.0079 L -11.3495 12.9904 L -11.3696 12.9729 L -11.3895 12.9553 L -11.4095 12.9378 L -11.4294 12.9201 L -11.4494 12.9025 L -11.4692 12.8848 L -11.4891 12.8671 L -11.5089 12.8494 L -11.5287 12.8316 L -11.5485 12.8138 L -11.5683 12.796 L -11.588 12.7782 L -11.6077 12.7603 L -11.6273 12.7424 L -11.647 12.7244 L -11.6666 12.7064 L -11.6862 12.6884 L -11.7057 12.6704 L -11.7252 12.6523 L -11.7447 12.6342 L -11.7642 12.6161 L -11.7837 12.5979 L -11.8031 12.5797 L -11.8225 12.5615 L -11.8418 12.5433 L -11.8611 12.525 L -11.8804 12.5067 L -11.8997 12.4884 L -11.919 12.47 L -11.9382 12.4516 L -11.9574 12.4332 L -11.9765 12.4147 L -11.9957 12.3962 L -12.0148 12.3777 L -12.0338 12.3592 L -12.0529 12.3406 L -12.0719 12.322 L -12.0909 12.3034 L -12.1098 12.2847 L -12.1288 12.266 L -12.1477 12.2473 L -12.1666 12.2286 L -12.2286 12.1666 L -12.2473 12.1477 L -12.266 12.1288 L -12.2847 12.1098 L -12.3034 12.0909 L -12.322 12.0719 L -12.3406 12.0529 L -12.3592 12.0338 L -12.3777 12.0148 L -12.3962 11.9957 L -12.4147 11.9765 L -12.4332 11.9574 L -12.4516 11.9382 L -12.47 11.919 L -12.4884 11.8997 L -12.5067 11.8804 L -12.525 11.8611 L -12.5433 11.8418 L -12.5615 11.8225 L -12.5797 11.8031 L -12.5979 11.7837 L -12.6161 11.7642 L -12.6342 11.7447 L -12.6523 11.7252 L -12.6704 11.7057 L -12.6884 11.6862 L -12.7064 11.6666 L -12.7244 11.647 L -12.7424 11.6273 L -12.7603 11.6077 L -12.7782 11.588 L -12.796 11.5683 L -12.8138 11.5485 L -12.8316 11.5287 L -12.8494 11.5089 L -12.8671 11.4891 L -12.8848 11.4692 L -12.9025 11.4494 L -12.9201 11.4294 L -12.9378 11.4095 L -12.9553 11.3895 L -12.9729 11.3696 L -12.9904 11.3495 L -13.0079 11.3295 L -13.0253 11.3094 L -13.0428 11.2893 L -13.0602 11.2692 L -13.0775 11.249 L -13.0949 11.2288 L -13.1122 11.2086 L -13.1294 11.1884 L -13.1467 11.1681 L -13.1639 11.1479 L -13.1811 11.1275 L -13.1982 11.1072 L -13.2153 11.0868 L -13.2086 11.0535 L -13.2018 11.0201 L -13.195 10.9867 L -13.1881 10.9533 L -13.1813 10.9199 L -13.1744 10.8865 L -13.1676 10.853 L -13.1607 10.8196 L -13.1537 10.7861 L -13.1468 10.7526 L -13.1398 10.719 L -13.1328 10.6855 L -13.1258 10.6519 L -13.1188 10.6184 L -13.1117 10.5848 L -13.1046 10.5512 L -13.0975 10.5176 L -13.0904 10.4839 L -13.0833 10.4502 L -13.0761 10.4166 L -13.0689 10.3829 L -13.0617 10.3492 L -13.0545 10.3154 L -13.0472 10.2817 L -13.04 10.2479 L -13.0327 10.2141 L -13.0253 10.1803 L -13.018 10.1465 L -13.0106 10.1126 L -13.0032 10.0788 L -12.9958 10.0449 L -12.9884 10.011 L -12.9809 9.97709 L -12.9734 9.94316 L -12.9659 9.90921 L -12.9584 9.87524 L -12.9508 9.84125 L -12.9432 9.80724 L -12.9356 9.77321 L -12.928 9.73916 L -12.9203 9.7051 L -12.9126 9.67101 L -12.9049 9.63691 L -12.8971 9.60279 L -12.8894 9.56864 L -12.8816 9.53448 L -12.8738 9.5003 L -12.8659 9.4661 L -12.8581 9.43188 L -12.8502 9.39764 L -12.8422 9.36338 L -12.8343 9.3291 L -12.8263 9.29481 L -12.8183 9.26049 L -12.8103 9.22615 L -12.8022 9.19179 L -12.7941 9.15742 L -12.786 9.12302 L -12.7779 9.0886 L -12.7697 9.05416 L -12.7615 9.01971 L -12.7533 8.98523 L -12.745 8.95073 L -12.7367 8.91621 L -12.7284 8.88167 L -12.7201 8.84711 L -12.7117 8.81253 L -12.7033 8.77793 L -12.6948 8.74331 L -12.6864 8.70867 L -12.6779 8.67401 L -12.6694 8.63932 L -12.6608 8.60462 L -12.6522 8.56989 L -12.6436 8.53514 L -12.6349 8.50038 L -12.6263 8.46559 L -12.6176 8.43078 L -12.6176 8.43078 L -12.653 8.42551 L -12.6885 8.42021 L -12.7239 8.4149 L -12.7593 8.40956 L -12.7947 8.40421 L -12.83 8.39883 L -12.8654 8.39344 L -12.9006 8.38802 L -12.9359 8.38258 L -12.9711 8.37713 L -13.0063 8.37165 L -13.0414 8.36615 L -13.0765 8.36064 L -13.1116 8.35511 L -13.1467 8.34955 L -13.1817 8.34398 L -13.2167 8.33839 L -13.2517 8.33278 L -13.2866 8.32715 L -13.3216 8.3215 L -13.3564 8.31584 L -13.3913 8.31015 L -13.4261 8.30445 L -13.4609 8.29873 L -13.4957 8.293 L -13.5304 8.28724 L -13.5651 8.28147 L -13.5998 8.27568 L -13.6345 8.26987 L -13.6691 8.26405 L -13.7037 8.25821 L -13.7383 8.25235 L -13.7728 8.24648 L -13.8073 8.24058 L -13.8418 8.23468 L -13.8763 8.22875 L -13.9107 8.22281 L -13.9451 8.21686 L -13.9795 8.21088 L -14.0139 8.20489 L -14.0482 8.19889 L -14.0825 8.19287 L -14.1167 8.18684 L -14.151 8.18078 L -14.1852 8.17472 L -14.2194 8.16864 L -14.2536 8.16254 L -14.2877 8.15643 L -14.3218 8.1503 L -14.3559 8.14416 L -14.39 8.13801 L -14.424 8.13184 L -14.458 8.12565 L -14.492 8.11945 L -14.5259 8.11324 L -14.5599 8.10701 L -14.5938 8.10077 L -14.6277 8.09451 L -14.6615 8.08824 L -14.6954 8.08196 L -14.7292 8.07566 L -14.7629 8.06935 L -14.7967 8.06303 L -14.8304 8.05669 L -14.8641 8.05034 L -14.8978 8.04398 L -14.9315 8.0376 L -14.9651 8.03121 L -14.9987 8.02481 L -15.0323 8.01839 L -15.0659 8.01196 L -15.0994 8.00552 L -15.1329 7.99907 L -15.1664 7.9926 L -15.1999 7.98612 L -15.2334 7.97963 L -15.2668 7.97313 L -15.3002 7.96661 L -15.3124 7.94301 L -15.3247 7.91939 L -15.3369 7.89574 L -15.349 7.87208 L -15.3612 7.8484 L -15.3732 7.8247 L -15.3853 7.80098 L -15.3973 7.77725 L -15.4093 7.75349 L -15.4212 7.72972 L -15.4331 7.70593 L -15.445 7.68212 L -15.4568 7.65829 L -15.4686 7.63445 L -15.4804 7.61058 L -15.4921 7.5867 L -15.5038 7.5628 L -15.5154 7.53888 L -15.527 7.51494 L -15.5386 7.49099 L -15.5501 7.46702 L -15.5616 7.44303 L -15.5731 7.41902 L -15.5845 7.39499 L -15.5959 7.37095 L -15.6072 7.34689 L -15.6185 7.32281 L -15.6298 7.29872 L -15.6411 7.2746 L -15.6523 7.25047 L -15.6634 7.22633 L -15.6745 7.20216 L -15.6856 7.17798 L -15.6967 7.15378 L -15.7077 7.12957 L -15.7187 7.10534 L -15.7296 7.08109 L -15.7405 7.05682 L -15.7514 7.03254 L -15.7622 7.00824 L -15.773 6.98392 L -15.7837 6.95959 L -15.7945 6.93524 L -15.8051 6.91087 L -15.8158 6.88649 L -15.8264 6.86209 L -15.8369 6.83767 L -15.8475 6.81324 L -15.858 6.7888 L -15.8684 6.76433 L -15.8788 6.73985 L -15.8892 6.71536 L -15.8995 6.69084 L -15.9098 6.66632 L -15.9201 6.64177 L -15.9536 6.56076 L -15.9637 6.53615 L -15.9738 6.51153 L -15.9838 6.48688 L -15.9938 6.46223 L -16.0038 6.43755 L -16.0137 6.41286 L -16.0235 6.38816 L -16.0334 6.36344 L -16.0432 6.33871 L -16.0529 6.31396 L -16.0626 6.2892 L -16.0723 6.26442 L -16.082 6.23962 L -16.0916 6.21481 L -16.1011 6.18999 L -16.1107 6.16515 L -16.1201 6.1403 L -16.1296 6.11543 L -16.139 6.09055 L -16.1484 6.06565 L -16.1577 6.04074 L -16.167 6.01582 L -16.1763 5.99088 L -16.1855 5.96592 L -16.1947 5.94096 L -16.2038 5.91597 L -16.2129 5.89098 L -16.222 5.86597 L -16.231 5.84094 L -16.24 5.81591 L -16.249 5.79085 L -16.2579 5.76579 L -16.2667 5.74071 L -16.2756 5.71562 L -16.2844 5.69051 L -16.2931 5.66539 L -16.3018 5.64026 L -16.3105 5.61511 L -16.3192 5.58995 L -16.3278 5.56477 L -16.3363 5.53959 L -16.3448 5.51439 L -16.3533 5.48917 L -16.3618 5.46395 L -16.3702 5.43871 L -16.3786 5.41346 L -16.3869 5.38819 L -16.3952 5.36291 L -16.4034 5.33762 L -16.4116 5.31232 L -16.4198 5.287 L -16.4279 5.26167 L -16.436 5.23633 L -16.4441 5.21098 L -16.4521 5.18561 L -16.4331 5.15739 L -16.4141 5.12916 L -16.395 5.10092 L -16.3759 5.07267 L -16.3568 5.04442 L -16.3377 5.01615 L -16.3185 4.98788 L -16.2993 4.9596 L -16.2801 4.93132 L -16.2609 4.90302 L -16.2416 4.87472 L -16.2223 4.84641 L -16.203 4.81809 L -16.1836 4.78976 L -16.1643 4.76143 L -16.1449 4.73309 L -16.1254 4.70474 L -16.106 4.67638 L -16.0865 4.64801 L -16.067 4.61964 L -16.0475 4.59126 L -16.0279 4.56287 L -16.0083 4.53447 L -15.9887 4.50606 L -15.9691 4.47765 L -15.9494 4.44923 L -15.9297 4.4208 L -15.9099 4.39236 L -15.8902 4.36392 L -15.8704 4.33546 L -15.8506 4.307 L -15.8307 4.27853 L -15.8109 4.25006 L -15.791 4.22157 L -15.771 4.19308 L -15.751 4.16458 L -15.7311 4.13607 L -15.711 4.10756 L -15.691 4.07903 L -15.6709 4.0505 L -15.6508 4.02196 L -15.6306 3.99341 L -15.6104 3.96486 L -15.5902 3.93629 L -15.57 3.90772 L -15.5497 3.87914 L -15.5294 3.85055 L -15.5091 3.82196 L -15.4887 3.79336 L -15.4683 3.76475 L -15.4479 3.73613 L -15.4274 3.7075 L -15.4069 3.67887 L -15.3864 3.65022 L -15.3658 3.62157 L -15.3452 3.59292 L -15.3246 3.56425 L -15.304 3.53558 L -15.2833 3.5069 L -15.2625 3.47821 L -15.2418 3.44951 L -15.221 3.42081 L -15.2001 3.39209 L -15.1793 3.36337 L -15.1584 3.33465 L -15.1374 3.30591 L -15.1165 3.27717 L -15.0955 3.24842 L -15.0744 3.21966 L -15.0533 3.19089 L -15.0322 3.16212 L -15.0111 3.13334 L -14.9899 3.10455 L -14.9687 3.07576 L -14.9474 3.04695 L -14.9261 3.01814 L -14.9048 2.98932 L -14.8834 2.9605 L -14.8834 2.9605 L -14.9142 2.94204 L -14.9449 2.92358 L -14.9756 2.90511 L -15.0063 2.88664 L -15.0369 2.86815 L -15.0675 2.84966 L -15.0981 2.83117 L -15.1286 2.81266 L -15.1591 2.79415 L -15.1895 2.77564 L -15.2199 2.75711 L -15.2503 2.73858 L -15.2806 2.72005 L -15.3109 2.70151 L -15.3412 2.68296 L -15.3714 2.6644 L -15.4016 2.64584 L -15.4318 2.62727 L -15.4619 2.6087 L -15.492 2.59012 L -15.5221 2.57154 L -15.5521 2.55295 L -15.5821 2.53436 L -15.6121 2.51576 L -15.642 2.49715 L -15.6719 2.47854 L -15.7017 2.45992 L -15.7316 2.4413 L -15.7614 2.42267 L -15.7911 2.40404 L -15.8209 2.3854 L -15.8506 2.36676 L -15.8802 2.34812 L -15.9099 2.32947 L -15.9395 2.31081 L -15.969 2.29215 L -15.9986 2.27349 L -16.0281 2.25482 L -16.0575 2.23614 L -16.087 2.21746 L -16.1164 2.19878 L -16.1458 2.1801 L -16.1751 2.1614 L -16.2045 2.14271 L -16.2338 2.12401 L -16.263 2.10531 L -16.2922 2.0866 L -16.3214 2.06789 L -16.3506 2.04918 L -16.3798 2.03046 L -16.4089 2.01174 L -16.438 1.99301 L -16.467 1.97428 L -16.496 1.95555 L -16.525 1.93682 L -16.554 1.91808 L -16.5829 1.89933 L -16.6118 1.88059 L -16.6407 1.86184 L -16.6696 1.84309 L -16.6984 1.82433 L -16.7272 1.80557 L -16.756 1.78681 L -16.7847 1.76805 L -16.8134 1.74928 L -16.8421 1.73051 L -16.8708 1.71174 L -16.8994 1.69296 L -16.928 1.67419 L -16.9566 1.6554 L -16.9851 1.63662 L -17.0136 1.61784 L -17.0421 1.59905 L -17.0706 1.58026 L -17.099 1.56146 L -17.1275 1.54267 L -17.1559 1.52387 L -17.1842 1.50507 L -17.1865 1.47856 L -17.1888 1.45206 L -17.191 1.42555 L -17.1932 1.39903 L -17.1953 1.37252 L -17.1974 1.346 L -17.1995 1.31947 L -17.2015 1.29295 L -17.2034 1.26642 L -17.2054 1.23989 L -17.2073 1.21335 L -17.2091 1.18681 L -17.2109 1.16027 L -17.2127 1.13373 L -17.2144 1.10718 L -17.2161 1.08063 L -17.2178 1.05408 L -17.2194 1.02753 L -17.2209 1.00097 L -17.2225 0.974412 L -17.2239 0.947851 L -17.2254 0.921288 L -17.2268 0.894722 L -17.2281 0.868154 L -17.2295 0.841584 L -17.2307 0.815013 L -17.232 0.788439 L -17.2332 0.761863 L -17.2343 0.735286 L -17.2354 0.708706 L -17.2365 0.682125 L -17.2375 0.655543 L -17.2385 0.628959 L -17.2395 0.602373 L -17.2404 0.575786 L -17.2413 0.549198 L -17.2421 0.522608 L -17.2429 0.496017 L -17.2436 0.469425 L -17.2443 0.442832 L -17.245 0.416237 L -17.2456 0.389642 L -17.2462 0.363046 L -17.2467 0.336449 L -17.2472 0.309851 L -17.2477 0.283252 L -17.2481 0.256653 L -17.2485 0.230053 L -17.2488 0.203452 L -17.2491 0.176851 L -17.2493 0.15025 L -17.2496 0.123648 L -17.2497 0.0970463 L -17.2499 0.0704441 L -17.2499 0.0438417 L -17.2499 -0.0438417 L -17.2499 -0.0704441 L -17.2497 -0.0970463 L -17.2496 -0.123648 L -17.2493 -0.15025 L -17.2491 -0.176851 L -17.2488 -0.203452 L -17.2485 -0.230053 L -17.2481 -0.256653 L -17.2477 -0.283252 L -17.2472 -0.309851 L -17.2467 -0.336449 L -17.2462 -0.363046 L -17.2456 -0.389642 L -17.245 -0.416237 L -17.2443 -0.442832 L -17.2436 -0.469425 L -17.2429 -0.496017 L -17.2421 -0.522608 L -17.2413 -0.549198 L -17.2404 -0.575786 L -17.2395 -0.602373 L -17.2385 -0.628959 L -17.2375 -0.655543 L -17.2365 -0.682125 L -17.2354 -0.708706 L -17.2343 -0.735286 L -17.2332 -0.761863 L -17.232 -0.788439 L -17.2307 -0.815013 L -17.2295 -0.841584 L -17.2281 -0.868154 L -17.2268 -0.894722 L -17.2254 -0.921288 L -17.2239 -0.947851 L -17.2225 -0.974412 L -17.2209 -1.00097 L -17.2194 -1.02753 L -17.2178 -1.05408 L -17.2161 -1.08063 L -17.2144 -1.10718 L -17.2127 -1.13373 L -17.2109 -1.16027 L -17.2091 -1.18681 L -17.2073 -1.21335 L -17.2054 -1.23989 L -17.2034 -1.26642 L -17.2015 -1.29295 L -17.1995 -1.31947 L -17.1974 -1.346 L -17.1953 -1.37252 L -17.1932 -1.39903 L -17.191 -1.42555 L -17.1888 -1.45206 L -17.1865 -1.47856 L -17.1842 -1.50507 L -17.1559 -1.52387 L -17.1275 -1.54267 L -17.099 -1.56146 L -17.0706 -1.58026 L -17.0421 -1.59905 L -17.0136 -1.61784 L -16.9851 -1.63662 L -16.9566 -1.6554 L -16.928 -1.67419 L -16.8994 -1.69296 L -16.8708 -1.71174 L -16.8421 -1.73051 L -16.8134 -1.74928 L -16.7847 -1.76805 L -16.756 -1.78681 L -16.7272 -1.80557 L -16.6984 -1.82433 L -16.6696 -1.84309 L -16.6407 -1.86184 L -16.6118 -1.88059 L -16.5829 -1.89933 L -16.554 -1.91808 L -16.525 -1.93682 L -16.496 -1.95555 L -16.467 -1.97428 L -16.438 -1.99301 L -16.4089 -2.01174 L -16.3798 -2.03046 L -16.3506 -2.04918 L -16.3214 -2.06789 L -16.2922 -2.0866 L -16.263 -2.10531 L -16.2338 -2.12401 L -16.2045 -2.14271 L -16.1751 -2.1614 L -16.1458 -2.1801 L -16.1164 -2.19878 L -16.087 -2.21746 L -16.0575 -2.23614 L -16.0281 -2.25482 L -15.9986 -2.27349 L -15.969 -2.29215 L -15.9395 -2.31081 L -15.9099 -2.32947 L -15.8802 -2.34812 L -15.8506 -2.36676 L -15.8209 -2.3854 L -15.7911 -2.40404 L -15.7614 -2.42267 L -15.7316 -2.4413 L -15.7017 -2.45992 L -15.6719 -2.47854 L -15.642 -2.49715 L -15.6121 -2.51576 L -15.5821 -2.53436 L -15.5521 -2.55295 L -15.5221 -2.57154 L -15.492 -2.59012 L -15.4619 -2.6087 L -15.4318 -2.62727 L -15.4016 -2.64584 L -15.3714 -2.6644 L -15.3412 -2.68296 L -15.3109 -2.70151 L -15.2806 -2.72005 L -15.2503 -2.73858 L -15.2199 -2.75711 L -15.1895 -2.77564 L -15.1591 -2.79415 L -15.1286 -2.81266 L -15.0981 -2.83117 L -15.0675 -2.84966 L -15.0369 -2.86815 L -15.0063 -2.88664 L -14.9756 -2.90511 L -14.9449 -2.92358 L -14.9142 -2.94204 L -14.8834 -2.9605 L -14.8834 -2.9605 L -14.9048 -2.98932 L -14.9261 -3.01814 L -14.9474 -3.04695 L -14.9687 -3.07576 L -14.9899 -3.10455 L -15.0111 -3.13334 L -15.0322 -3.16212 L -15.0533 -3.19089 L -15.0744 -3.21966 L -15.0955 -3.24842 L -15.1165 -3.27717 L -15.1374 -3.30591 L -15.1584 -3.33465 L -15.1793 -3.36337 L -15.2001 -3.39209 L -15.221 -3.42081 L -15.2418 -3.44951 L -15.2625 -3.47821 L -15.2833 -3.5069 L -15.304 -3.53558 L -15.3246 -3.56425 L -15.3452 -3.59292 L -15.3658 -3.62157 L -15.3864 -3.65022 L -15.4069 -3.67887 L -15.4274 -3.7075 L -15.4479 -3.73613 L -15.4683 -3.76475 L -15.4887 -3.79336 L -15.5091 -3.82196 L -15.5294 -3.85055 L -15.5497 -3.87914 L -15.57 -3.90772 L -15.5902 -3.93629 L -15.6104 -3.96486 L -15.6306 -3.99341 L -15.6508 -4.02196 L -15.6709 -4.0505 L -15.691 -4.07903 L -15.711 -4.10756 L -15.7311 -4.13607 L -15.751 -4.16458 L -15.771 -4.19308 L -15.791 -4.22157 L -15.8109 -4.25006 L -15.8307 -4.27853 L -15.8506 -4.307 L -15.8704 -4.33546 L -15.8902 -4.36392 L -15.9099 -4.39236 L -15.9297 -4.4208 L -15.9494 -4.44923 L -15.9691 -4.47765 L -15.9887 -4.50606 L -16.0083 -4.53447 L -16.0279 -4.56287 L -16.0475 -4.59126 L -16.067 -4.61964 L -16.0865 -4.64801 L -16.106 -4.67638 L -16.1254 -4.70474 L -16.1449 -4.73309 L -16.1643 -4.76143 L -16.1836 -4.78976 L -16.203 -4.81809 L -16.2223 -4.84641 L -16.2416 -4.87472 L -16.2609 -4.90302 L -16.2801 -4.93132 L -16.2993 -4.9596 L -16.3185 -4.98788 L -16.3377 -5.01615 L -16.3568 -5.04442 L -16.3759 -5.07267 L -16.395 -5.10092 L -16.4141 -5.12916 L -16.4331 -5.15739 L -16.4521 -5.18561 L -16.4441 -5.21098 L -16.436 -5.23633 L -16.4279 -5.26167 L -16.4198 -5.287 L -16.4116 -5.31232 L -16.4034 -5.33762 L -16.3952 -5.36291 L -16.3869 -5.38819 L -16.3786 -5.41346 L -16.3702 -5.43871 L -16.3618 -5.46395 L -16.3533 -5.48917 L -16.3448 -5.51439 L -16.3363 -5.53959 L -16.3278 -5.56477 L -16.3192 -5.58995 L -16.3105 -5.61511 L -16.3018 -5.64026 L -16.2931 -5.66539 L -16.2844 -5.69051 L -16.2756 -5.71562 L -16.2667 -5.74071 L -16.2579 -5.76579 L -16.249 -5.79085 L -16.24 -5.81591 L -16.231 -5.84094 L -16.222 -5.86597 L -16.2129 -5.89098 L -16.2038 -5.91597 L -16.1947 -5.94096 L -16.1855 -5.96592 L -16.1763 -5.99088 L -16.167 -6.01582 L -16.1577 -6.04074 L -16.1484 -6.06565 L -16.139 -6.09055 L -16.1296 -6.11543 L -16.1201 -6.1403 L -16.1107 -6.16515 L -16.1011 -6.18999 L -16.0916 -6.21481 L -16.082 -6.23962 L -16.0723 -6.26442 L -16.0626 -6.2892 L -16.0529 -6.31396 L -16.0432 -6.33871 L -16.0334 -6.36344 L -16.0235 -6.38816 L -16.0137 -6.41286 L -16.0038 -6.43755 L -15.9938 -6.46223 L -15.9838 -6.48688 L -15.9738 -6.51153 L -15.9637 -6.53615 L -15.9536 -6.56076 L -15.9201 -6.64177 L -15.9098 -6.66632 L -15.8995 -6.69084 L -15.8892 -6.71536 L -15.8788 -6.73985 L -15.8684 -6.76433 L -15.858 -6.7888 L -15.8475 -6.81324 L -15.8369 -6.83767 L -15.8264 -6.86209 L -15.8158 -6.88649 L -15.8051 -6.91087 L -15.7945 -6.93524 L -15.7837 -6.95959 L -15.773 -6.98392 L -15.7622 -7.00824 L -15.7514 -7.03254 L -15.7405 -7.05682 L -15.7296 -7.08109 L -15.7187 -7.10534 L -15.7077 -7.12957 L -15.6967 -7.15378 L -15.6856 -7.17798 L -15.6745 -7.20216 L -15.6634 -7.22633 L -15.6523 -7.25047 L -15.6411 -7.2746 L -15.6298 -7.29872 L -15.6185 -7.32281 L -15.6072 -7.34689 L -15.5959 -7.37095 L -15.5845 -7.39499 L -15.5731 -7.41902 L -15.5616 -7.44303 L -15.5501 -7.46702 L -15.5386 -7.49099 L -15.527 -7.51494 L -15.5154 -7.53888 L -15.5038 -7.5628 L -15.4921 -7.5867 L -15.4804 -7.61058 L -15.4686 -7.63445 L -15.4568 -7.65829 L -15.445 -7.68212 L -15.4331 -7.70593 L -15.4212 -7.72972 L -15.4093 -7.75349 L -15.3973 -7.77725 L -15.3853 -7.80098 L -15.3732 -7.8247 L -15.3612 -7.8484 L -15.349 -7.87208 L -15.3369 -7.89574 L -15.3247 -7.91939 L -15.3124 -7.94301 L -15.3002 -7.96661 L -15.2668 -7.97313 L -15.2334 -7.97963 L -15.1999 -7.98612 L -15.1664 -7.9926 L -15.1329 -7.99907 L -15.0994 -8.00552 L -15.0659 -8.01196 L -15.0323 -8.01839 L -14.9987 -8.02481 L -14.9651 -8.03121 L -14.9315 -8.0376 L -14.8978 -8.04398 L -14.8641 -8.05034 L -14.8304 -8.05669 L -14.7967 -8.06303 L -14.7629 -8.06935 L -14.7292 -8.07566 L -14.6954 -8.08196 L -14.6615 -8.08824 L -14.6277 -8.09451 L -14.5938 -8.10077 L -14.5599 -8.10701 L -14.5259 -8.11324 L -14.492 -8.11945 L -14.458 -8.12565 L -14.424 -8.13184 L -14.39 -8.13801 L -14.3559 -8.14416 L -14.3218 -8.1503 L -14.2877 -8.15643 L -14.2536 -8.16254 L -14.2194 -8.16864 L -14.1852 -8.17472 L -14.151 -8.18078 L -14.1167 -8.18684 L -14.0825 -8.19287 L -14.0482 -8.19889 L -14.0139 -8.20489 L -13.9795 -8.21088 L -13.9451 -8.21686 L -13.9107 -8.22281 L -13.8763 -8.22875 L -13.8418 -8.23468 L -13.8073 -8.24058 L -13.7728 -8.24648 L -13.7383 -8.25235 L -13.7037 -8.25821 L -13.6691 -8.26405 L -13.6345 -8.26987 L -13.5998 -8.27568 L -13.5651 -8.28147 L -13.5304 -8.28724 L -13.4957 -8.293 L -13.4609 -8.29873 L -13.4261 -8.30445 L -13.3913 -8.31015 L -13.3564 -8.31584 L -13.3216 -8.3215 L -13.2866 -8.32715 L -13.2517 -8.33278 L -13.2167 -8.33839 L -13.1817 -8.34398 L -13.1467 -8.34955 L -13.1116 -8.35511 L -13.0765 -8.36064 L -13.0414 -8.36615 L -13.0063 -8.37165 L -12.9711 -8.37713 L -12.9359 -8.38258 L -12.9006 -8.38802 L -12.8654 -8.39344 L -12.83 -8.39883 L -12.7947 -8.40421 L -12.7593 -8.40956 L -12.7239 -8.4149 L -12.6885 -8.42021 L -12.653 -8.42551 L -12.6176 -8.43078 L -12.6176 -8.43078 L -12.6263 -8.46559 L -12.6349 -8.50038 L -12.6436 -8.53514 L -12.6522 -8.56989 L -12.6608 -8.60462 L -12.6694 -8.63932 L -12.6779 -8.67401 L -12.6864 -8.70867 L -12.6948 -8.74331 L -12.7033 -8.77793 L -12.7117 -8.81253 L -12.7201 -8.84711 L -12.7284 -8.88167 L -12.7367 -8.91621 L -12.745 -8.95073 L -12.7533 -8.98523 L -12.7615 -9.01971 L -12.7697 -9.05416 L -12.7779 -9.0886 L -12.786 -9.12302 L -12.7941 -9.15742 L -12.8022 -9.19179 L -12.8103 -9.22615 L -12.8183 -9.26049 L -12.8263 -9.29481 L -12.8343 -9.3291 L -12.8422 -9.36338 L -12.8502 -9.39764 L -12.8581 -9.43188 L -12.8659 -9.4661 L -12.8738 -9.5003 L -12.8816 -9.53448 L -12.8894 -9.56864 L -12.8971 -9.60279 L -12.9049 -9.63691 L -12.9126 -9.67101 L -12.9203 -9.7051 L -12.928 -9.73916 L -12.9356 -9.77321 L -12.9432 -9.80724 L -12.9508 -9.84125 L -12.9584 -9.87524 L -12.9659 -9.90921 L -12.9734 -9.94316 L -12.9809 -9.97709 L -12.9884 -10.011 L -12.9958 -10.0449 L -13.0032 -10.0788 L -13.0106 -10.1126 L -13.018 -10.1465 L -13.0253 -10.1803 L -13.0327 -10.2141 L -13.04 -10.2479 L -13.0472 -10.2817 L -13.0545 -10.3154 L -13.0617 -10.3492 L -13.0689 -10.3829 L -13.0761 -10.4166 L -13.0833 -10.4502 L -13.0904 -10.4839 L -13.0975 -10.5176 L -13.1046 -10.5512 L -13.1117 -10.5848 L -13.1188 -10.6184 L -13.1258 -10.6519 L -13.1328 -10.6855 L -13.1398 -10.719 L -13.1468 -10.7526 L -13.1537 -10.7861 L -13.1607 -10.8196 L -13.1676 -10.853 L -13.1744 -10.8865 L -13.1813 -10.9199 L -13.1881 -10.9533 L -13.195 -10.9867 L -13.2018 -11.0201 L -13.2086 -11.0535 L -13.2153 -11.0868 L -13.1982 -11.1072 L -13.1811 -11.1275 L -13.1639 -11.1479 L -13.1467 -11.1681 L -13.1294 -11.1884 L -13.1122 -11.2086 L -13.0949 -11.2288 L -13.0775 -11.249 L -13.0602 -11.2692 L -13.0428 -11.2893 L -13.0253 -11.3094 L -13.0079 -11.3295 L -12.9904 -11.3495 L -12.9729 -11.3696 L -12.9553 -11.3895 L -12.9378 -11.4095 L -12.9201 -11.4294 L -12.9025 -11.4494 L -12.8848 -11.4692 L -12.8671 -11.4891 L -12.8494 -11.5089 L -12.8316 -11.5287 L -12.8138 -11.5485 L -12.796 -11.5683 L -12.7782 -11.588 L -12.7603 -11.6077 L -12.7424 -11.6273 L -12.7244 -11.647 L -12.7064 -11.6666 L -12.6884 -11.6862 L -12.6704 -11.7057 L -12.6523 -11.7252 L -12.6342 -11.7447 L -12.6161 -11.7642 L -12.5979 -11.7837 L -12.5797 -11.8031 L -12.5615 -11.8225 L -12.5433 -11.8418 L -12.525 -11.8611 L -12.5067 -11.8804 L -12.4884 -11.8997 L -12.47 -11.919 L -12.4516 -11.9382 L -12.4332 -11.9574 L -12.4147 -11.9765 L -12.3962 -11.9957 L -12.3777 -12.0148 L -12.3592 -12.0338 L -12.3406 -12.0529 L -12.322 -12.0719 L -12.3034 -12.0909 L -12.2847 -12.1098 L -12.266 -12.1288 L -12.2473 -12.1477 L -12.2286 -12.1666 L -12.1666 -12.2286 L -12.1477 -12.2473 L -12.1288 -12.266 L -12.1098 -12.2847 L -12.0909 -12.3034 L -12.0719 -12.322 L -12.0529 -12.3406 L -12.0338 -12.3592 L -12.0148 -12.3777 L -11.9957 -12.3962 L -11.9765 -12.4147 L -11.9574 -12.4332 L -11.9382 -12.4516 L -11.919 -12.47 L -11.8997 -12.4884 L -11.8804 -12.5067 L -11.8611 -12.525 L -11.8418 -12.5433 L -11.8225 -12.5615 L -11.8031 -12.5797 L -11.7837 -12.5979 L -11.7642 -12.6161 L -11.7447 -12.6342 L -11.7252 -12.6523 L -11.7057 -12.6704 L -11.6862 -12.6884 L -11.6666 -12.7064 L -11.647 -12.7244 L -11.6273 -12.7424 L -11.6077 -12.7603 L -11.588 -12.7782 L -11.5683 -12.796 L -11.5485 -12.8138 L -11.5287 -12.8316 L -11.5089 -12.8494 L -11.4891 -12.8671 L -11.4692 -12.8848 L -11.4494 -12.9025 L -11.4294 -12.9201 L -11.4095 -12.9378 L -11.3895 -12.9553 L -11.3696 -12.9729 L -11.3495 -12.9904 L -11.3295 -13.0079 L -11.3094 -13.0253 L -11.2893 -13.0428 L -11.2692 -13.0602 L -11.249 -13.0775 L -11.2288 -13.0949 L -11.2086 -13.1122 L -11.1884 -13.1294 L -11.1681 -13.1467 L -11.1479 -13.1639 L -11.1275 -13.1811 L -11.1072 -13.1982 L -11.0868 -13.2153 L -11.0535 -13.2086 L -11.0201 -13.2018 L -10.9867 -13.195 L -10.9533 -13.1881 L -10.9199 -13.1813 L -10.8865 -13.1744 L -10.853 -13.1676 L -10.8196 -13.1607 L -10.7861 -13.1537 L -10.7526 -13.1468 L -10.719 -13.1398 L -10.6855 -13.1328 L -10.6519 -13.1258 L -10.6184 -13.1188 L -10.5848 -13.1117 L -10.5512 -13.1046 L -10.5176 -13.0975 L -10.4839 -13.0904 L -10.4502 -13.0833 L -10.4166 -13.0761 L -10.3829 -13.0689 L -10.3492 -13.0617 L -10.3154 -13.0545 L -10.2817 -13.0472 L -10.2479 -13.04 L -10.2141 -13.0327 L -10.1803 -13.0253 L -10.1465 -13.018 L -10.1126 -13.0106 L -10.0788 -13.0032 L -10.0449 -12.9958 L -10.011 -12.9884 L -9.97709 -12.9809 L -9.94316 -12.9734 L -9.90921 -12.9659 L -9.87524 -12.9584 L -9.84125 -12.9508 L -9.80724 -12.9432 L -9.77321 -12.9356 L -9.73916 -12.928 L -9.7051 -12.9203 L -9.67101 -12.9126 L -9.63691 -12.9049 L -9.60279 -12.8971 L -9.56864 -12.8894 L -9.53448 -12.8816 L -9.5003 -12.8738 L -9.4661 -12.8659 L -9.43188 -12.8581 L -9.39764 -12.8502 L -9.36338 -12.8422 L -9.3291 -12.8343 L -9.29481 -12.8263 L -9.26049 -12.8183 L -9.22615 -12.8103 L -9.19179 -12.8022 L -9.15742 -12.7941 L -9.12302 -12.786 L -9.0886 -12.7779 L -9.05416 -12.7697 L -9.01971 -12.7615 L -8.98523 -12.7533 L -8.95073 -12.745 L -8.91621 -12.7367 L -8.88167 -12.7284 L -8.84711 -12.7201 L -8.81253 -12.7117 L -8.77793 -12.7033 L -8.74331 -12.6948 L -8.70867 -12.6864 L -8.67401 -12.6779 L -8.63932 -12.6694 L -8.60462 -12.6608 L -8.56989 -12.6522 L -8.53514 -12.6436 L -8.50038 -12.6349 L -8.46559 -12.6263 L -8.43078 -12.6176 L -8.43078 -12.6176 L -8.42551 -12.653 L -8.42021 -12.6885 L -8.4149 -12.7239 L -8.40956 -12.7593 L -8.40421 -12.7947 L -8.39883 -12.83 L -8.39344 -12.8654 L -8.38802 -12.9006 L -8.38258 -12.9359 L -8.37713 -12.9711 L -8.37165 -13.0063 L -8.36615 -13.0414 L -8.36064 -13.0765 L -8.35511 -13.1116 L -8.34955 -13.1467 L -8.34398 -13.1817 L -8.33839 -13.2167 L -8.33278 -13.2517 L -8.32715 -13.2866 L -8.3215 -13.3216 L -8.31584 -13.3564 L -8.31015 -13.3913 L -8.30445 -13.4261 L -8.29873 -13.4609 L -8.293 -13.4957 L -8.28724 -13.5304 L -8.28147 -13.5651 L -8.27568 -13.5998 L -8.26987 -13.6345 L -8.26405 -13.6691 L -8.25821 -13.7037 L -8.25235 -13.7383 L -8.24648 -13.7728 L -8.24058 -13.8073 L -8.23468 -13.8418 L -8.22875 -13.8763 L -8.22281 -13.9107 L -8.21686 -13.9451 L -8.21088 -13.9795 L -8.20489 -14.0139 L -8.19889 -14.0482 L -8.19287 -14.0825 L -8.18684 -14.1167 L -8.18078 -14.151 L -8.17472 -14.1852 L -8.16864 -14.2194 L -8.16254 -14.2536 L -8.15643 -14.2877 L -8.1503 -14.3218 L -8.14416 -14.3559 L -8.13801 -14.39 L -8.13184 -14.424 L -8.12565 -14.458 L -8.11945 -14.492 L -8.11324 -14.5259 L -8.10701 -14.5599 L -8.10077 -14.5938 L -8.09451 -14.6277 L -8.08824 -14.6615 L -8.08196 -14.6954 L -8.07566 -14.7292 L -8.06935 -14.7629 L -8.06303 -14.7967 L -8.05669 -14.8304 L -8.05034 -14.8641 L -8.04398 -14.8978 L -8.0376 -14.9315 L -8.03121 -14.9651 L -8.02481 -14.9987 L -8.01839 -15.0323 L -8.01196 -15.0659 L -8.00552 -15.0994 L -7.99907 -15.1329 L -7.9926 -15.1664 L -7.98612 -15.1999 L -7.97963 -15.2334 L -7.97313 -15.2668 L -7.96661 -15.3002 L -7.94301 -15.3124 L -7.91939 -15.3247 L -7.89574 -15.3369 L -7.87208 -15.349 L -7.8484 -15.3612 L -7.8247 -15.3732 L -7.80098 -15.3853 L -7.77725 -15.3973 L -7.75349 -15.4093 L -7.72972 -15.4212 L -7.70593 -15.4331 L -7.68212 -15.445 L -7.65829 -15.4568 L -7.63445 -15.4686 L -7.61058 -15.4804 L -7.5867 -15.4921 L -7.5628 -15.5038 L -7.53888 -15.5154 L -7.51494 -15.527 L -7.49099 -15.5386 L -7.46702 -15.5501 L -7.44303 -15.5616 L -7.41902 -15.5731 L -7.39499 -15.5845 L -7.37095 -15.5959 L -7.34689 -15.6072 L -7.32281 -15.6185 L -7.29872 -15.6298 L -7.2746 -15.6411 L -7.25047 -15.6523 L -7.22633 -15.6634 L -7.20216 -15.6745 L -7.17798 -15.6856 L -7.15378 -15.6967 L -7.12957 -15.7077 L -7.10534 -15.7187 L -7.08109 -15.7296 L -7.05682 -15.7405 L -7.03254 -15.7514 L -7.00824 -15.7622 L -6.98392 -15.773 L -6.95959 -15.7837 L -6.93524 -15.7945 L -6.91087 -15.8051 L -6.88649 -15.8158 L -6.86209 -15.8264 L -6.83767 -15.8369 L -6.81324 -15.8475 L -6.7888 -15.858 L -6.76433 -15.8684 L -6.73985 -15.8788 L -6.71536 -15.8892 L -6.69084 -15.8995 L -6.66632 -15.9098 L -6.64177 -15.9201 L -6.56076 -15.9536 L -6.53615 -15.9637 L -6.51153 -15.9738 L -6.48688 -15.9838 L -6.46223 -15.9938 L -6.43755 -16.0038 L -6.41286 -16.0137 L -6.38816 -16.0235 L -6.36344 -16.0334 L -6.33871 -16.0432 L -6.31396 -16.0529 L -6.2892 -16.0626 L -6.26442 -16.0723 L -6.23962 -16.082 L -6.21481 -16.0916 L -6.18999 -16.1011 L -6.16515 -16.1107 L -6.1403 -16.1201 L -6.11543 -16.1296 L -6.09055 -16.139 L -6.06565 -16.1484 L -6.04074 -16.1577 L -6.01582 -16.167 L -5.99088 -16.1763 L -5.96592 -16.1855 L -5.94096 -16.1947 L -5.91597 -16.2038 L -5.89098 -16.2129 L -5.86597 -16.222 L -5.84094 -16.231 L -5.81591 -16.24 L -5.79085 -16.249 L -5.76579 -16.2579 L -5.74071 -16.2667 L -5.71562 -16.2756 L -5.69051 -16.2844 L -5.66539 -16.2931 L -5.64026 -16.3018 L -5.61511 -16.3105 L -5.58995 -16.3192 L -5.56477 -16.3278 L -5.53959 -16.3363 L -5.51439 -16.3448 L -5.48917 -16.3533 L -5.46395 -16.3618 L -5.43871 -16.3702 L -5.41346 -16.3786 L -5.38819 -16.3869 L -5.36291 -16.3952 L -5.33762 -16.4034 L -5.31232 -16.4116 L -5.287 -16.4198 L -5.26167 -16.4279 L -5.23633 -16.436 L -5.21098 -16.4441 L -5.18561 -16.4521 L -5.15739 -16.4331 L -5.12916 -16.4141 L -5.10092 -16.395 L -5.07267 -16.3759 L -5.04442 -16.3568 L -5.01615 -16.3377 L -4.98788 -16.3185 L -4.9596 -16.2993 L -4.93132 -16.2801 L -4.90302 -16.2609 L -4.87472 -16.2416 L -4.84641 -16.2223 L -4.81809 -16.203 L -4.78976 -16.1836 L -4.76143 -16.1643 L -4.73309 -16.1449 L -4.70474 -16.1254 L -4.67638 -16.106 L -4.64801 -16.0865 L -4.61964 -16.067 L -4.59126 -16.0475 L -4.56287 -16.0279 L -4.53447 -16.0083 L -4.50606 -15.9887 L -4.47765 -15.9691 L -4.44923 -15.9494 L -4.4208 -15.9297 L -4.39236 -15.9099 L -4.36392 -15.8902 L -4.33546 -15.8704 L -4.307 -15.8506 L -4.27853 -15.8307 L -4.25006 -15.8109 L -4.22157 -15.791 L -4.19308 -15.771 L -4.16458 -15.751 L -4.13607 -15.7311 L -4.10756 -15.711 L -4.07903 -15.691 L -4.0505 -15.6709 L -4.02196 -15.6508 L -3.99341 -15.6306 L -3.96486 -15.6104 L -3.93629 -15.5902 L -3.90772 -15.57 L -3.87914 -15.5497 L -3.85055 -15.5294 L -3.82196 -15.5091 L -3.79336 -15.4887 L -3.76475 -15.4683 L -3.73613 -15.4479 L -3.7075 -15.4274 L -3.67887 -15.4069 L -3.65022 -15.3864 L -3.62157 -15.3658 L -3.59292 -15.3452 L -3.56425 -15.3246 L -3.53558 -15.304 L -3.5069 -15.2833 L -3.47821 -15.2625 L -3.44951 -15.2418 L -3.42081 -15.221 L -3.39209 -15.2001 L -3.36337 -15.1793 L -3.33465 -15.1584 L -3.30591 -15.1374 L -3.27717 -15.1165 L -3.24842 -15.0955 L -3.21966 -15.0744 L -3.19089 -15.0533 L -3.16212 -15.0322 L -3.13334 -15.0111 L -3.10455 -14.9899 L -3.07576 -14.9687 L -3.04695 -14.9474 L -3.01814 -14.9261 L -2.98932 -14.9048 L -2.9605 -14.8834 L -2.9605 -14.8834 L -2.94204 -14.9142 L -2.92358 -14.9449 L -2.90511 -14.9756 L -2.88664 -15.0063 L -2.86815 -15.0369 L -2.84966 -15.0675 L -2.83117 -15.0981 L -2.81266 -15.1286 L -2.79415 -15.1591 L -2.77564 -15.1895 L -2.75711 -15.2199 L -2.73858 -15.2503 L -2.72005 -15.2806 L -2.70151 -15.3109 L -2.68296 -15.3412 L -2.6644 -15.3714 L -2.64584 -15.4016 L -2.62727 -15.4318 L -2.6087 -15.4619 L -2.59012 -15.492 L -2.57154 -15.5221 L -2.55295 -15.5521 L -2.53436 -15.5821 L -2.51576 -15.6121 L -2.49715 -15.642 L -2.47854 -15.6719 L -2.45992 -15.7017 L -2.4413 -15.7316 L -2.42267 -15.7614 L -2.40404 -15.7911 L -2.3854 -15.8209 L -2.36676 -15.8506 L -2.34812 -15.8802 L -2.32947 -15.9099 L -2.31081 -15.9395 L -2.29215 -15.969 L -2.27349 -15.9986 L -2.25482 -16.0281 L -2.23614 -16.0575 L -2.21746 -16.087 L -2.19878 -16.1164 L -2.1801 -16.1458 L -2.1614 -16.1751 L -2.14271 -16.2045 L -2.12401 -16.2338 L -2.10531 -16.263 L -2.0866 -16.2922 L -2.06789 -16.3214 L -2.04918 -16.3506 L -2.03046 -16.3798 L -2.01174 -16.4089 L -1.99301 -16.438 L -1.97428 -16.467 L -1.95555 -16.496 L -1.93682 -16.525 L -1.91808 -16.554 L -1.89933 -16.5829 L -1.88059 -16.6118 L -1.86184 -16.6407 L -1.84309 -16.6696 L -1.82433 -16.6984 L -1.80557 -16.7272 L -1.78681 -16.756 L -1.76805 -16.7847 L -1.74928 -16.8134 L -1.73051 -16.8421 L -1.71174 -16.8708 L -1.69296 -16.8994 L -1.67419 -16.928 L -1.6554 -16.9566 L -1.63662 -16.9851 L -1.61784 -17.0136 L -1.59905 -17.0421 L -1.58026 -17.0706 L -1.56146 -17.099 L -1.54267 -17.1275 L -1.52387 -17.1559 L -1.50507 -17.1842 L -1.47856 -17.1865 L -1.45206 -17.1888 L -1.42555 -17.191 L -1.39903 -17.1932 L -1.37252 -17.1953 L -1.346 -17.1974 L -1.31947 -17.1995 L -1.29295 -17.2015 L -1.26642 -17.2034 L -1.23989 -17.2054 L -1.21335 -17.2073 L -1.18681 -17.2091 L -1.16027 -17.2109 L -1.13373 -17.2127 L -1.10718 -17.2144 L -1.08063 -17.2161 L -1.05408 -17.2178 L -1.02753 -17.2194 L -1.00097 -17.2209 L -0.974412 -17.2225 L -0.947851 -17.2239 L -0.921288 -17.2254 L -0.894722 -17.2268 L -0.868154 -17.2281 L -0.841584 -17.2295 L -0.815013 -17.2307 L -0.788439 -17.232 L -0.761863 -17.2332 L -0.735286 -17.2343 L -0.708706 -17.2354 L -0.682125 -17.2365 L -0.655543 -17.2375 L -0.628959 -17.2385 L -0.602373 -17.2395 L -0.575786 -17.2404 L -0.549198 -17.2413 L -0.522608 -17.2421 L -0.496017 -17.2429 L -0.469425 -17.2436 L -0.442832 -17.2443 L -0.416237 -17.245 L -0.389642 -17.2456 L -0.363046 -17.2462 L -0.336449 -17.2467 L -0.309851 -17.2472 L -0.283252 -17.2477 L -0.256653 -17.2481 L -0.230053 -17.2485 L -0.203452 -17.2488 L -0.176851 -17.2491 L -0.15025 -17.2493 L -0.123648 -17.2496 L -0.0970463 -17.2497 L -0.0704441 -17.2499 L -0.0438417 -17.2499 L 0.0438417 -17.2499 L 0.0704441 -17.2499 L 0.0970463 -17.2497 L 0.123648 -17.2496 L 0.15025 -17.2493 L 0.176851 -17.2491 L 0.203452 -17.2488 L 0.230053 -17.2485 L 0.256653 -17.2481 L 0.283252 -17.2477 L 0.309851 -17.2472 L 0.336449 -17.2467 L 0.363046 -17.2462 L 0.389642 -17.2456 L 0.416237 -17.245 L 0.442832 -17.2443 L 0.469425 -17.2436 L 0.496017 -17.2429 L 0.522608 -17.2421 L 0.549198 -17.2413 L 0.575786 -17.2404 L 0.602373 -17.2395 L 0.628959 -17.2385 L 0.655543 -17.2375 L 0.682125 -17.2365 L 0.708706 -17.2354 L 0.735286 -17.2343 L 0.761863 -17.2332 L 0.788439 -17.232 L 0.815013 -17.2307 L 0.841584 -17.2295 L 0.868154 -17.2281 L 0.894722 -17.2268 L 0.921288 -17.2254 L 0.947851 -17.2239 L 0.974412 -17.2225 L 1.00097 -17.2209 L 1.02753 -17.2194 L 1.05408 -17.2178 L 1.08063 -17.2161 L 1.10718 -17.2144 L 1.13373 -17.2127 L 1.16027 -17.2109 L 1.18681 -17.2091 L 1.21335 -17.2073 L 1.23989 -17.2054 L 1.26642 -17.2034 L 1.29295 -17.2015 L 1.31947 -17.1995 L 1.346 -17.1974 L 1.37252 -17.1953 L 1.39903 -17.1932 L 1.42555 -17.191 L 1.45206 -17.1888 L 1.47856 -17.1865 L 1.50507 -17.1842 L 1.52387 -17.1559 L 1.54267 -17.1275 L 1.56146 -17.099 L 1.58026 -17.0706 L 1.59905 -17.0421 L 1.61784 -17.0136 L 1.63662 -16.9851 L 1.6554 -16.9566 L 1.67419 -16.928 L 1.69296 -16.8994 L 1.71174 -16.8708 L 1.73051 -16.8421 L 1.74928 -16.8134 L 1.76805 -16.7847 L 1.78681 -16.756 L 1.80557 -16.7272 L 1.82433 -16.6984 L 1.84309 -16.6696 L 1.86184 -16.6407 L 1.88059 -16.6118 L 1.89933 -16.5829 L 1.91808 -16.554 L 1.93682 -16.525 L 1.95555 -16.496 L 1.97428 -16.467 L 1.99301 -16.438 L 2.01174 -16.4089 L 2.03046 -16.3798 L 2.04918 -16.3506 L 2.06789 -16.3214 L 2.0866 -16.2922 L 2.10531 -16.263 L 2.12401 -16.2338 L 2.14271 -16.2045 L 2.1614 -16.1751 L 2.1801 -16.1458 L 2.19878 -16.1164 L 2.21746 -16.087 L 2.23614 -16.0575 L 2.25482 -16.0281 L 2.27349 -15.9986 L 2.29215 -15.969 L 2.31081 -15.9395 L 2.32947 -15.9099 L 2.34812 -15.8802 L 2.36676 -15.8506 L 2.3854 -15.8209 L 2.40404 -15.7911 L 2.42267 -15.7614 L 2.4413 -15.7316 L 2.45992 -15.7017 L 2.47854 -15.6719 L 2.49715 -15.642 L 2.51576 -15.6121 L 2.53436 -15.5821 L 2.55295 -15.5521 L 2.57154 -15.5221 L 2.59012 -15.492 L 2.6087 -15.4619 L 2.62727 -15.4318 L 2.64584 -15.4016 L 2.6644 -15.3714 L 2.68296 -15.3412 L 2.70151 -15.3109 L 2.72005 -15.2806 L 2.73858 -15.2503 L 2.75711 -15.2199 L 2.77564 -15.1895 L 2.79415 -15.1591 L 2.81266 -15.1286 L 2.83117 -15.0981 L 2.84966 -15.0675 L 2.86815 -15.0369 L 2.88664 -15.0063 L 2.90511 -14.9756 L 2.92358 -14.9449 L 2.94204 -14.9142 L 2.9605 -14.8834 L 2.9605 -14.8834 L 2.98932 -14.9048 L 3.01814 -14.9261 L 3.04695 -14.9474 L 3.07576 -14.9687 L 3.10455 -14.9899 L 3.13334 -15.0111 L 3.16212 -15.0322 L 3.19089 -15.0533 L 3.21966 -15.0744 L 3.24842 -15.0955 L 3.27717 -15.1165 L 3.30591 -15.1374 L 3.33465 -15.1584 L 3.36337 -15.1793 L 3.39209 -15.2001 L 3.42081 -15.221 L 3.44951 -15.2418 L 3.47821 -15.2625 L 3.5069 -15.2833 L 3.53558 -15.304 L 3.56425 -15.3246 L 3.59292 -15.3452 L 3.62157 -15.3658 L 3.65022 -15.3864 L 3.67887 -15.4069 L 3.7075 -15.4274 L 3.73613 -15.4479 L 3.76475 -15.4683 L 3.79336 -15.4887 L 3.82196 -15.5091 L 3.85055 -15.5294 L 3.87914 -15.5497 L 3.90772 -15.57 L 3.93629 -15.5902 L 3.96486 -15.6104 L 3.99341 -15.6306 L 4.02196 -15.6508 L 4.0505 -15.6709 L 4.07903 -15.691 L 4.10756 -15.711 L 4.13607 -15.7311 L 4.16458 -15.751 L 4.19308 -15.771 L 4.22157 -15.791 L 4.25006 -15.8109 L 4.27853 -15.8307 L 4.307 -15.8506 L 4.33546 -15.8704 L 4.36392 -15.8902 L 4.39236 -15.9099 L 4.4208 -15.9297 L 4.44923 -15.9494 L 4.47765 -15.9691 L 4.50606 -15.9887 L 4.53447 -16.0083 L 4.56287 -16.0279 L 4.59126 -16.0475 L 4.61964 -16.067 L 4.64801 -16.0865 L 4.67638 -16.106 L 4.70474 -16.1254 L 4.73309 -16.1449 L 4.76143 -16.1643 L 4.78976 -16.1836 L 4.81809 -16.203 L 4.84641 -16.2223 L 4.87472 -16.2416 L 4.90302 -16.2609 L 4.93132 -16.2801 L 4.9596 -16.2993 L 4.98788 -16.3185 L 5.01615 -16.3377 L 5.04442 -16.3568 L 5.07267 -16.3759 L 5.10092 -16.395 L 5.12916 -16.4141 L 5.15739 -16.4331 L 5.18561 -16.4521 L 5.21098 -16.4441 L 5.23633 -16.436 L 5.26167 -16.4279 L 5.287 -16.4198 L 5.31232 -16.4116 L 5.33762 -16.4034 L 5.36291 -16.3952 L 5.38819 -16.3869 L 5.41346 -16.3786 L 5.43871 -16.3702 L 5.46395 -16.3618 L 5.48917 -16.3533 L 5.51439 -16.3448 L 5.53959 -16.3363 L 5.56477 -16.3278 L 5.58995 -16.3192 L 5.61511 -16.3105 L 5.64026 -16.3018 L 5.66539 -16.2931 L 5.69051 -16.2844 L 5.71562 -16.2756 L 5.74071 -16.2667 L 5.76579 -16.2579 L 5.79085 -16.249 L 5.81591 -16.24 L 5.84094 -16.231 L 5.86597 -16.222 L 5.89098 -16.2129 L 5.91597 -16.2038 L 5.94096 -16.1947 L 5.96592 -16.1855 L 5.99088 -16.1763 L 6.01582 -16.167 L 6.04074 -16.1577 L 6.06565 -16.1484 L 6.09055 -16.139 L 6.11543 -16.1296 L 6.1403 -16.1201 L 6.16515 -16.1107 L 6.18999 -16.1011 L 6.21481 -16.0916 L 6.23962 -16.082 L 6.26442 -16.0723 L 6.2892 -16.0626 L 6.31396 -16.0529 L 6.33871 -16.0432 L 6.36344 -16.0334 L 6.38816 -16.0235 L 6.41286 -16.0137 L 6.43755 -16.0038 L 6.46223 -15.9938 L 6.48688 -15.9838 L 6.51153 -15.9738 L 6.53615 -15.9637 L 6.56076 -15.9536 L 6.64177 -15.9201 L 6.66632 -15.9098 L 6.69084 -15.8995 L 6.71536 -15.8892 L 6.73985 -15.8788 L 6.76433 -15.8684 L 6.7888 -15.858 L 6.81324 -15.8475 L 6.83767 -15.8369 L 6.86209 -15.8264 L 6.88649 -15.8158 L 6.91087 -15.8051 L 6.93524 -15.7945 L 6.95959 -15.7837 L 6.98392 -15.773 L 7.00824 -15.7622 L 7.03254 -15.7514 L 7.05682 -15.7405 L 7.08109 -15.7296 L 7.10534 -15.7187 L 7.12957 -15.7077 L 7.15378 -15.6967 L 7.17798 -15.6856 L 7.20216 -15.6745 L 7.22633 -15.6634 L 7.25047 -15.6523 L 7.2746 -15.6411 L 7.29872 -15.6298 L 7.32281 -15.6185 L 7.34689 -15.6072 L 7.37095 -15.5959 L 7.39499 -15.5845 L 7.41902 -15.5731 L 7.44303 -15.5616 L 7.46702 -15.5501 L 7.49099 -15.5386 L 7.51494 -15.527 L 7.53888 -15.5154 L 7.5628 -15.5038 L 7.5867 -15.4921 L 7.61058 -15.4804 L 7.63445 -15.4686 L 7.65829 -15.4568 L 7.68212 -15.445 L 7.70593 -15.4331 L 7.72972 -15.4212 L 7.75349 -15.4093 L 7.77725 -15.3973 L 7.80098 -15.3853 L 7.8247 -15.3732 L 7.8484 -15.3612 L 7.87208 -15.349 L 7.89574 -15.3369 L 7.91939 -15.3247 L 7.94301 -15.3124 L 7.96661 -15.3002 L 7.97313 -15.2668 L 7.97963 -15.2334 L 7.98612 -15.1999 L 7.9926 -15.1664 L 7.99907 -15.1329 L 8.00552 -15.0994 L 8.01196 -15.0659 L 8.01839 -15.0323 L 8.02481 -14.9987 L 8.03121 -14.9651 L 8.0376 -14.9315 L 8.04398 -14.8978 L 8.05034 -14.8641 L 8.05669 -14.8304 L 8.06303 -14.7967 L 8.06935 -14.7629 L 8.07566 -14.7292 L 8.08196 -14.6954 L 8.08824 -14.6615 L 8.09451 -14.6277 L 8.10077 -14.5938 L 8.10701 -14.5599 L 8.11324 -14.5259 L 8.11945 -14.492 L 8.12565 -14.458 L 8.13184 -14.424 L 8.13801 -14.39 L 8.14416 -14.3559 L 8.1503 -14.3218 L 8.15643 -14.2877 L 8.16254 -14.2536 L 8.16864 -14.2194 L 8.17472 -14.1852 L 8.18078 -14.151 L 8.18684 -14.1167 L 8.19287 -14.0825 L 8.19889 -14.0482 L 8.20489 -14.0139 L 8.21088 -13.9795 L 8.21686 -13.9451 L 8.22281 -13.9107 L 8.22875 -13.8763 L 8.23468 -13.8418 L 8.24058 -13.8073 L 8.24648 -13.7728 L 8.25235 -13.7383 L 8.25821 -13.7037 L 8.26405 -13.6691 L 8.26987 -13.6345 L 8.27568 -13.5998 L 8.28147 -13.5651 L 8.28724 -13.5304 L 8.293 -13.4957 L 8.29873 -13.4609 L 8.30445 -13.4261 L 8.31015 -13.3913 L 8.31584 -13.3564 L 8.3215 -13.3216 L 8.32715 -13.2866 L 8.33278 -13.2517 L 8.33839 -13.2167 L 8.34398 -13.1817 L 8.34955 -13.1467 L 8.35511 -13.1116 L 8.36064 -13.0765 L 8.36615 -13.0414 L 8.37165 -13.0063 L 8.37713 -12.9711 L 8.38258 -12.9359 L 8.38802 -12.9006 L 8.39344 -12.8654 L 8.39883 -12.83 L 8.40421 -12.7947 L 8.40956 -12.7593 L 8.4149 -12.7239 L 8.42021 -12.6885 L 8.42551 -12.653 L 8.43078 -12.6176 L 8.43078 -12.6176 L 8.46559 -12.6263 L 8.50038 -12.6349 L 8.53514 -12.6436 L 8.56989 -12.6522 L 8.60462 -12.6608 L 8.63932 -12.6694 L 8.67401 -12.6779 L 8.70867 -12.6864 L 8.74331 -12.6948 L 8.77793 -12.7033 L 8.81253 -12.7117 L 8.84711 -12.7201 L 8.88167 -12.7284 L 8.91621 -12.7367 L 8.95073 -12.745 L 8.98523 -12.7533 L 9.01971 -12.7615 L 9.05416 -12.7697 L 9.0886 -12.7779 L 9.12302 -12.786 L 9.15742 -12.7941 L 9.19179 -12.8022 L 9.22615 -12.8103 L 9.26049 -12.8183 L 9.29481 -12.8263 L 9.3291 -12.8343 L 9.36338 -12.8422 L 9.39764 -12.8502 L 9.43188 -12.8581 L 9.4661 -12.8659 L 9.5003 -12.8738 L 9.53448 -12.8816 L 9.56864 -12.8894 L 9.60279 -12.8971 L 9.63691 -12.9049 L 9.67101 -12.9126 L 9.7051 -12.9203 L 9.73916 -12.928 L 9.77321 -12.9356 L 9.80724 -12.9432 L 9.84125 -12.9508 L 9.87524 -12.9584 L 9.90921 -12.9659 L 9.94316 -12.9734 L 9.97709 -12.9809 L 10.011 -12.9884 L 10.0449 -12.9958 L 10.0788 -13.0032 L 10.1126 -13.0106 L 10.1465 -13.018 L 10.1803 -13.0253 L 10.2141 -13.0327 L 10.2479 -13.04 L 10.2817 -13.0472 L 10.3154 -13.0545 L 10.3492 -13.0617 L 10.3829 -13.0689 L 10.4166 -13.0761 L 10.4502 -13.0833 L 10.4839 -13.0904 L 10.5176 -13.0975 L 10.5512 -13.1046 L 10.5848 -13.1117 L 10.6184 -13.1188 L 10.6519 -13.1258 L 10.6855 -13.1328 L 10.719 -13.1398 L 10.7526 -13.1468 L 10.7861 -13.1537 L 10.8196 -13.1607 L 10.853 -13.1676 L 10.8865 -13.1744 L 10.9199 -13.1813 L 10.9533 -13.1881 L 10.9867 -13.195 L 11.0201 -13.2018 L 11.0535 -13.2086 L 11.0868 -13.2153 L 11.1072 -13.1982 L 11.1275 -13.1811 L 11.1479 -13.1639 L 11.1681 -13.1467 L 11.1884 -13.1294 L 11.2086 -13.1122 L 11.2288 -13.0949 L 11.249 -13.0775 L 11.2692 -13.0602 L 11.2893 -13.0428 L 11.3094 -13.0253 L 11.3295 -13.0079 L 11.3495 -12.9904 L 11.3696 -12.9729 L 11.3895 -12.9553 L 11.4095 -12.9378 L 11.4294 -12.9201 L 11.4494 -12.9025 L 11.4692 -12.8848 L 11.4891 -12.8671 L 11.5089 -12.8494 L 11.5287 -12.8316 L 11.5485 -12.8138 L 11.5683 -12.796 L 11.588 -12.7782 L 11.6077 -12.7603 L 11.6273 -12.7424 L 11.647 -12.7244 L 11.6666 -12.7064 L 11.6862 -12.6884 L 11.7057 -12.6704 L 11.7252 -12.6523 L 11.7447 -12.6342 L 11.7642 -12.6161 L 11.7837 -12.5979 L 11.8031 -12.5797 L 11.8225 -12.5615 L 11.8418 -12.5433 L 11.8611 -12.525 L 11.8804 -12.5067 L 11.8997 -12.4884 L 11.919 -12.47 L 11.9382 -12.4516 L 11.9574 -12.4332 L 11.9765 -12.4147 L 11.9957 -12.3962 L 12.0148 -12.3777 L 12.0338 -12.3592 L 12.0529 -12.3406 L 12.0719 -12.322 L 12.0909 -12.3034 L 12.1098 -12.2847 L 12.1288 -12.266 L 12.1477 -12.2473 L 12.1666 -12.2286 L 12.2286 -12.1666 L 12.2473 -12.1477 L 12.266 -12.1288 L 12.2847 -12.1098 L 12.3034 -12.0909 L 12.322 -12.0719 L 12.3406 -12.0529 L 12.3592 -12.0338 L 12.3777 -12.0148 L 12.3962 -11.9957 L 12.4147 -11.9765 L 12.4332 -11.9574 L 12.4516 -11.9382 L 12.47 -11.919 L 12.4884 -11.8997 L 12.5067 -11.8804 L 12.525 -11.8611 L 12.5433 -11.8418 L 12.5615 -11.8225 L 12.5797 -11.8031 L 12.5979 -11.7837 L 12.6161 -11.7642 L 12.6342 -11.7447 L 12.6523 -11.7252 L 12.6704 -11.7057 L 12.6884 -11.6862 L 12.7064 -11.6666 L 12.7244 -11.647 L 12.7424 -11.6273 L 12.7603 -11.6077 L 12.7782 -11.588 L 12.796 -11.5683 L 12.8138 -11.5485 L 12.8316 -11.5287 L 12.8494 -11.5089 L 12.8671 -11.4891 L 12.8848 -11.4692 L 12.9025 -11.4494 L 12.9201 -11.4294 L 12.9378 -11.4095 L 12.9553 -11.3895 L 12.9729 -11.3696 L 12.9904 -11.3495 L 13.0079 -11.3295 L 13.0253 -11.3094 L 13.0428 -11.2893 L 13.0602 -11.2692 L 13.0775 -11.249 L 13.0949 -11.2288 L 13.1122 -11.2086 L 13.1294 -11.1884 L 13.1467 -11.1681 L 13.1639 -11.1479 L 13.1811 -11.1275 L 13.1982 -11.1072 L 13.2153 -11.0868 L 13.2086 -11.0535 L 13.2018 -11.0201 L 13.195 -10.9867 L 13.1881 -10.9533 L 13.1813 -10.9199 L 13.1744 -10.8865 L 13.1676 -10.853 L 13.1607 -10.8196 L 13.1537 -10.7861 L 13.1468 -10.7526 L 13.1398 -10.719 L 13.1328 -10.6855 L 13.1258 -10.6519 L 13.1188 -10.6184 L 13.1117 -10.5848 L 13.1046 -10.5512 L 13.0975 -10.5176 L 13.0904 -10.4839 L 13.0833 -10.4502 L 13.0761 -10.4166 L 13.0689 -10.3829 L 13.0617 -10.3492 L 13.0545 -10.3154 L 13.0472 -10.2817 L 13.04 -10.2479 L 13.0327 -10.2141 L 13.0253 -10.1803 L 13.018 -10.1465 L 13.0106 -10.1126 L 13.0032 -10.0788 L 12.9958 -10.0449 L 12.9884 -10.011 L 12.9809 -9.97709 L 12.9734 -9.94316 L 12.9659 -9.90921 L 12.9584 -9.87524 L 12.9508 -9.84125 L 12.9432 -9.80724 L 12.9356 -9.77321 L 12.928 -9.73916 L 12.9203 -9.7051 L 12.9126 -9.67101 L 12.9049 -9.63691 L 12.8971 -9.60279 L 12.8894 -9.56864 L 12.8816 -9.53448 L 12.8738 -9.5003 L 12.8659 -9.4661 L 12.8581 -9.43188 L 12.8502 -9.39764 L 12.8422 -9.36338 L 12.8343 -9.3291 L 12.8263 -9.29481 L 12.8183 -9.26049 L 12.8103 -9.22615 L 12.8022 -9.19179 L 12.7941 -9.15742 L 12.786 -9.12302 L 12.7779 -9.0886 L 12.7697 -9.05416 L 12.7615 -9.01971 L 12.7533 -8.98523 L 12.745 -8.95073 L 12.7367 -8.91621 L 12.7284 -8.88167 L 12.7201 -8.84711 L 12.7117 -8.81253 L 12.7033 -8.77793 L 12.6948 -8.74331 L 12.6864 -8.70867 L 12.6779 -8.67401 L 12.6694 -8.63932 L 12.6608 -8.60462 L 12.6522 -8.56989 L 12.6436 -8.53514 L 12.6349 -8.50038 L 12.6263 -8.46559 L 12.6176 -8.43078 L 12.6176 -8.43078 L 12.653 -8.42551 L 12.6885 -8.42021 L 12.7239 -8.4149 L 12.7593 -8.40956 L 12.7947 -8.40421 L 12.83 -8.39883 L 12.8654 -8.39344 L 12.9006 -8.38802 L 12.9359 -8.38258 L 12.9711 -8.37713 L 13.0063 -8.37165 L 13.0414 -8.36615 L 13.0765 -8.36064 L 13.1116 -8.35511 L 13.1467 -8.34955 L 13.1817 -8.34398 L 13.2167 -8.33839 L 13.2517 -8.33278 L 13.2866 -8.32715 L 13.3216 -8.3215 L 13.3564 -8.31584 L 13.3913 -8.31015 L 13.4261 -8.30445 L 13.4609 -8.29873 L 13.4957 -8.293 L 13.5304 -8.28724 L 13.5651 -8.28147 L 13.5998 -8.27568 L 13.6345 -8.26987 L 13.6691 -8.26405 L 13.7037 -8.25821 L 13.7383 -8.25235 L 13.7728 -8.24648 L 13.8073 -8.24058 L 13.8418 -8.23468 L 13.8763 -8.22875 L 13.9107 -8.22281 L 13.9451 -8.21686 L 13.9795 -8.21088 L 14.0139 -8.20489 L 14.0482 -8.19889 L 14.0825 -8.19287 L 14.1167 -8.18684 L 14.151 -8.18078 L 14.1852 -8.17472 L 14.2194 -8.16864 L 14.2536 -8.16254 L 14.2877 -8.15643 L 14.3218 -8.1503 L 14.3559 -8.14416 L 14.39 -8.13801 L 14.424 -8.13184 L 14.458 -8.12565 L 14.492 -8.11945 L 14.5259 -8.11324 L 14.5599 -8.10701 L 14.5938 -8.10077 L 14.6277 -8.09451 L 14.6615 -8.08824 L 14.6954 -8.08196 L 14.7292 -8.07566 L 14.7629 -8.06935 L 14.7967 -8.06303 L 14.8304 -8.05669 L 14.8641 -8.05034 L 14.8978 -8.04398 L 14.9315 -8.0376 L 14.9651 -8.03121 L 14.9987 -8.02481 L 15.0323 -8.01839 L 15.0659 -8.01196 L 15.0994 -8.00552 L 15.1329 -7.99907 L 15.1664 -7.9926 L 15.1999 -7.98612 L 15.2334 -7.97963 L 15.2668 -7.97313 L 15.3002 -7.96661 L 15.3124 -7.94301 L 15.3247 -7.91939 L 15.3369 -7.89574 L 15.349 -7.87208 L 15.3612 -7.8484 L 15.3732 -7.8247 L 15.3853 -7.80098 L 15.3973 -7.77725 L 15.4093 -7.75349 L 15.4212 -7.72972 L 15.4331 -7.70593 L 15.445 -7.68212 L 15.4568 -7.65829 L 15.4686 -7.63445 L 15.4804 -7.61058 L 15.4921 -7.5867 L 15.5038 -7.5628 L 15.5154 -7.53888 L 15.527 -7.51494 L 15.5386 -7.49099 L 15.5501 -7.46702 L 15.5616 -7.44303 L 15.5731 -7.41902 L 15.5845 -7.39499 L 15.5959 -7.37095 L 15.6072 -7.34689 L 15.6185 -7.32281 L 15.6298 -7.29872 L 15.6411 -7.2746 L 15.6523 -7.25047 L 15.6634 -7.22633 L 15.6745 -7.20216 L 15.6856 -7.17798 L 15.6967 -7.15378 L 15.7077 -7.12957 L 15.7187 -7.10534 L 15.7296 -7.08109 L 15.7405 -7.05682 L 15.7514 -7.03254 L 15.7622 -7.00824 L 15.773 -6.98392 L 15.7837 -6.95959 L 15.7945 -6.93524 L 15.8051 -6.91087 L 15.8158 -6.88649 L 15.8264 -6.86209 L 15.8369 -6.83767 L 15.8475 -6.81324 L 15.858 -6.7888 L 15.8684 -6.76433 L 15.8788 -6.73985 L 15.8892 -6.71536 L 15.8995 -6.69084 L 15.9098 -6.66632 L 15.9201 -6.64177 L 15.9536 -6.56076 L 15.9637 -6.53615 L 15.9738 -6.51153 L 15.9838 -6.48688 L 15.9938 -6.46223 L 16.0038 -6.43755 L 16.0137 -6.41286 L 16.0235 -6.38816 L 16.0334 -6.36344 L 16.0432 -6.33871 L 16.0529 -6.31396 L 16.0626 -6.2892 L 16.0723 -6.26442 L 16.082 -6.23962 L 16.0916 -6.21481 L 16.1011 -6.18999 L 16.1107 -6.16515 L 16.1201 -6.1403 L 16.1296 -6.11543 L 16.139 -6.09055 L 16.1484 -6.06565 L 16.1577 -6.04074 L 16.167 -6.01582 L 16.1763 -5.99088 L 16.1855 -5.96592 L 16.1947 -5.94096 L 16.2038 -5.91597 L 16.2129 -5.89098 L 16.222 -5.86597 L 16.231 -5.84094 L 16.24 -5.81591 L 16.249 -5.79085 L 16.2579 -5.76579 L 16.2667 -5.74071 L 16.2756 -5.71562 L 16.2844 -5.69051 L 16.2931 -5.66539 L 16.3018 -5.64026 L 16.3105 -5.61511 L 16.3192 -5.58995 L 16.3278 -5.56477 L 16.3363 -5.53959 L 16.3448 -5.51439 L 16.3533 -5.48917 L 16.3618 -5.46395 L 16.3702 -5.43871 L 16.3786 -5.41346 L 16.3869 -5.38819 L 16.3952 -5.36291 L 16.4034 -5.33762 L 16.4116 -5.31232 L 16.4198 -5.287 L 16.4279 -5.26167 L 16.436 -5.23633 L 16.4441 -5.21098 L 16.4521 -5.18561 L 16.4331 -5.15739 L 16.4141 -5.12916 L 16.395 -5.10092 L 16.3759 -5.07267 L 16.3568 -5.04442 L 16.3377 -5.01615 L 16.3185 -4.98788 L 16.2993 -4.9596 L 16.2801 -4.93132 L 16.2609 -4.90302 L 16.2416 -4.87472 L 16.2223 -4.84641 L 16.203 -4.81809 L 16.1836 -4.78976 L 16.1643 -4.76143 L 16.1449 -4.73309 L 16.1254 -4.70474 L 16.106 -4.67638 L 16.0865 -4.64801 L 16.067 -4.61964 L 16.0475 -4.59126 L 16.0279 -4.56287 L 16.0083 -4.53447 L 15.9887 -4.50606 L 15.9691 -4.47765 L 15.9494 -4.44923 L 15.9297 -4.4208 L 15.9099 -4.39236 L 15.8902 -4.36392 L 15.8704 -4.33546 L 15.8506 -4.307 L 15.8307 -4.27853 L 15.8109 -4.25006 L 15.791 -4.22157 L 15.771 -4.19308 L 15.751 -4.16458 L 15.7311 -4.13607 L 15.711 -4.10756 L 15.691 -4.07903 L 15.6709 -4.0505 L 15.6508 -4.02196 L 15.6306 -3.99341 L 15.6104 -3.96486 L 15.5902 -3.93629 L 15.57 -3.90772 L 15.5497 -3.87914 L 15.5294 -3.85055 L 15.5091 -3.82196 L 15.4887 -3.79336 L 15.4683 -3.76475 L 15.4479 -3.73613 L 15.4274 -3.7075 L 15.4069 -3.67887 L 15.3864 -3.65022 L 15.3658 -3.62157 L 15.3452 -3.59292 L 15.3246 -3.56425 L 15.304 -3.53558 L 15.2833 -3.5069 L 15.2625 -3.47821 L 15.2418 -3.44951 L 15.221 -3.42081 L 15.2001 -3.39209 L 15.1793 -3.36337 L 15.1584 -3.33465 L 15.1374 -3.30591 L 15.1165 -3.27717 L 15.0955 -3.24842 L 15.0744 -3.21966 L 15.0533 -3.19089 L 15.0322 -3.16212 L 15.0111 -3.13334 L 14.9899 -3.10455 L 14.9687 -3.07576 L 14.9474 -3.04695 L 14.9261 -3.01814 L 14.9048 -2.98932 L 14.8834 -2.9605 L 14.8834 -2.9605 L 14.9142 -2.94204 L 14.9449 -2.92358 L 14.9756 -2.90511 L 15.0063 -2.88664 L 15.0369 -2.86815 L 15.0675 -2.84966 L 15.0981 -2.83117 L 15.1286 -2.81266 L 15.1591 -2.79415 L 15.1895 -2.77564 L 15.2199 -2.75711 L 15.2503 -2.73858 L 15.2806 -2.72005 L 15.3109 -2.70151 L 15.3412 -2.68296 L 15.3714 -2.6644 L 15.4016 -2.64584 L 15.4318 -2.62727 L 15.4619 -2.6087 L 15.492 -2.59012 L 15.5221 -2.57154 L 15.5521 -2.55295 L 15.5821 -2.53436 L 15.6121 -2.51576 L 15.642 -2.49715 L 15.6719 -2.47854 L 15.7017 -2.45992 L 15.7316 -2.4413 L 15.7614 -2.42267 L 15.7911 -2.40404 L 15.8209 -2.3854 L 15.8506 -2.36676 L 15.8802 -2.34812 L 15.9099 -2.32947 L 15.9395 -2.31081 L 15.969 -2.29215 L 15.9986 -2.27349 L 16.0281 -2.25482 L 16.0575 -2.23614 L 16.087 -2.21746 L 16.1164 -2.19878 L 16.1458 -2.1801 L 16.1751 -2.1614 L 16.2045 -2.14271 L 16.2338 -2.12401 L 16.263 -2.10531 L 16.2922 -2.0866 L 16.3214 -2.06789 L 16.3506 -2.04918 L 16.3798 -2.03046 L 16.4089 -2.01174 L 16.438 -1.99301 L 16.467 -1.97428 L 16.496 -1.95555 L 16.525 -1.93682 L 16.554 -1.91808 L 16.5829 -1.89933 L 16.6118 -1.88059 L 16.6407 -1.86184 L 16.6696 -1.84309 L 16.6984 -1.82433 L 16.7272 -1.80557 L 16.756 -1.78681 L 16.7847 -1.76805 L 16.8134 -1.74928 L 16.8421 -1.73051 L 16.8708 -1.71174 L 16.8994 -1.69296 L 16.928 -1.67419 L 16.9566 -1.6554 L 16.9851 -1.63662 L 17.0136 -1.61784 L 17.0421 -1.59905 L 17.0706 -1.58026 L 17.099 -1.56146 L 17.1275 -1.54267 L 17.1559 -1.52387 L 17.1842 -1.50507 L 17.1865 -1.47856 L 17.1888 -1.45206 L 17.191 -1.42555 L 17.1932 -1.39903 L 17.1953 -1.37252 L 17.1974 -1.346 L 17.1995 -1.31947 L 17.2015 -1.29295 L 17.2034 -1.26642 L 17.2054 -1.23989 L 17.2073 -1.21335 L 17.2091 -1.18681 L 17.2109 -1.16027 L 17.2127 -1.13373 L 17.2144 -1.10718 L 17.2161 -1.08063 L 17.2178 -1.05408 L 17.2194 -1.02753 L 17.2209 -1.00097 L 17.2225 -0.974412 L 17.2239 -0.947851 L 17.2254 -0.921288 L 17.2268 -0.894722 L 17.2281 -0.868154 L 17.2295 -0.841584 L 17.2307 -0.815013 L 17.232 -0.788439 L 17.2332 -0.761863 L 17.2343 -0.735286 L 17.2354 -0.708706 L 17.2365 -0.682125 L 17.2375 -0.655543 L 17.2385 -0.628959 L 17.2395 -0.602373 L 17.2404 -0.575786 L 17.2413 -0.549198 L 17.2421 -0.522608 L 17.2429 -0.496017 L 17.2436 -0.469425 L 17.2443 -0.442832 L 17.245 -0.416237 L 17.2456 -0.389642 L 17.2462 -0.363046 L 17.2467 -0.336449 L 17.2472 -0.309851 L 17.2477 -0.283252 L 17.2481 -0.256653 L 17.2485 -0.230053 L 17.2488 -0.203452 L 17.2491 -0.176851 L 17.2493 -0.15025 L 17.2496 -0.123648 L 17.2497 -0.0970463 L 17.2499 -0.0704441 L 17.2499 -0.0438417Z"
id="path1" />
</g>
</svg>
