<?xml version="1.0" encoding="UTF-8" standalone="no"?>
<svg version="1.1">
<g
style="fill:none;stroke:#000000;stroke-opacity:1;stroke-width:0.1">
<path d="M 18.3744 0.152555 L 18.3733 0.251358 L 18.3717 0.350154 L 18.3695 0.44894 L 18.3668 0.547713 L 18.3636 0.646471 L 18.3599 0.745209 L 18.3556 0.843926 L 18.3508 0.942619 L 18.3455 1.04128 L 18.3396 1.13992 L 18.3332 1.23852 L 18.3263 1.33709 L 18.3188 1.43562 L 18.3108 1.5341 L 18.2064 1.59619 L 18.1016 1.65825 L 17.9965 1.72028 L 17.8912 1.78229 L 17.7856 1.84427 L 17.6797 1.90622 L 17.5735 1.96814 L 17.467 2.03002 L 17.3601 2.09187 L 17.253 2.15368 L 17.1456 2.21545 L 17.0378 2.27717 L 16.9297 2.33886 L 16.8212 2.4005 L 16.7125 2.46209 L 16.6034 2.52363 L 16.4939 2.58511 L 16.3841 2.64654 L 16.2739 2.70791 L 16.1633 2.76922 L 16.0524 2.83047 L 16.0524 2.83047 L 16.1357 2.92596 L 16.2186 3.02139 L 16.3011 3.11674 L 16.3833 3.21203 L 16.4652 3.30725 L 16.5467 3.4024 L 16.6278 3.49748 L 16.7086 3.59248 L 16.7891 3.68742 L 16.8693 3.78229 L 16.9491 3.87708 L 17.0287 3.9718 L 17.1079 4.06646 L 17.1868 4.16104 L 17.2654 4.25555 L 17.3438 4.34998 L 17.4218 4.44435 L 17.4996 4.53864 L 17.5771 4.63286 L 17.6543 4.72701 L 17.7313 4.82109 L 17.7051 4.91637 L 17.6784 5.01151 L 17.6512 5.1065 L 17.6235 5.20134 L 17.5952 5.29603 L 17.5665 5.39057 L 17.5373 5.48496 L 17.5075 5.57918 L 17.4773 5.67325 L 17.4465 5.76715 L 17.4152 5.86088 L 17.3835 5.95444 L 17.3512 6.04783 L 17.3184 6.14105 L 17.2141 6.42776 L 17.1793 6.52023 L 17.144 6.61252 L 17.1082 6.70461 L 17.0719 6.79651 L 17.0351 6.88821 L 16.9978 6.97972 L 16.96 7.07102 L 16.9217 7.16212 L 16.883 7.25301 L 16.8437 7.34369 L 16.804 7.43416 L 16.7638 7.52441 L 16.7231 7.61445 L 16.6819 7.70426 L 16.5624 7.72686 L 16.4428 7.74935 L 16.3228 7.77172 L 16.2027 7.79396 L 16.0822 7.81608 L 15.9615 7.83807 L 15.8405 7.85992 L 15.7193 7.88164 L 15.5977 7.90323 L 15.4759 7.92467 L 15.3538 7.94596 L 15.2314 7.96711 L 15.1088 7.9881 L 14.9858 8.00893 L 14.8625 8.02961 L 14.7389 8.05011 L 14.615 8.07045 L 14.4908 8.09061 L 14.3663 8.11059 L 14.2414 8.13039 L 14.1162 8.15 L 14.1162 8.15 L 14.1618 8.26823 L 14.2071 8.38626 L 14.2521 8.5041 L 14.2967 8.62175 L 14.3411 8.73922 L 14.3851 8.8565 L 14.4288 8.9736 L 14.4723 9.09052 L 14.5154 9.20726 L 14.5583 9.32382 L 14.6009 9.44021 L 14.6433 9.55642 L 14.6853 9.67246 L 14.7271 9.78833 L 14.7687 9.90403 L 14.81 10.0196 L 14.8511 10.1349 L 14.8919 10.2501 L 14.9325 10.3652 L 14.9729 10.4801 L 15.013 10.5948 L 14.9558 10.6754 L 14.8982 10.7556 L 14.8402 10.8356 L 14.7817 10.9152 L 14.7228 10.9946 L 14.6634 11.0736 L 14.6037 11.1523 L 14.5435 11.2306 L 14.4829 11.3087 L 14.4219 11.3864 L 14.3604 11.4638 L 14.2986 11.5408 L 14.2363 11.6176 L 14.1736 11.694 L 13.9775 11.9277 L 13.9132 12.0027 L 13.8484 12.0773 L 13.7833 12.1516 L 13.7177 12.2255 L 13.6518 12.2991 L 13.5855 12.3724 L 13.5187 12.4452 L 13.4516 12.5178 L 13.3841 12.5899 L 13.3162 12.6617 L 13.2479 12.7331 L 13.1793 12.8042 L 13.1102 12.8749 L 13.0408 12.9452 L 12.9209 12.9256 L 12.8007 12.9058 L 12.6804 12.8858 L 12.5598 12.8656 L 12.4391 12.8451 L 12.3181 12.8245 L 12.197 12.8037 L 12.0756 12.7826 L 11.954 12.7613 L 11.8322 12.7398 L 11.7102 12.7181 L 11.588 12.6961 L 11.4655 12.6739 L 11.3428 12.6514 L 11.2199 12.6286 L 11.0968 12.6056 L 10.9734 12.5824 L 10.8498 12.5588 L 10.7259 12.535 L 10.6018 12.5109 L 10.4774 12.4865 L 10.4774 12.4865 L 10.4799 12.6132 L 10.4821 12.7396 L 10.484 12.8657 L 10.4857 12.9916 L 10.4872 13.1171 L 10.4885 13.2424 L 10.4895 13.3674 L 10.4904 13.4921 L 10.491 13.6166 L 10.4914 13.7408 L 10.4916 13.8647 L 10.4917 13.9884 L 10.4915 14.1118 L 10.4912 14.235 L 10.4907 14.3579 L 10.49 14.4806 L 10.4891 14.6031 L 10.4881 14.7253 L 10.4869 14.8473 L 10.4855 14.9691 L 10.484 15.0906 L 10.4027 15.1468 L 10.3211 15.2025 L 10.2392 15.2578 L 10.157 15.3126 L 10.0745 15.367 L 9.99173 15.421 L 9.90867 15.4745 L 9.82531 15.5275 L 9.74167 15.5801 L 9.65775 15.6323 L 9.57355 15.684 L 9.48907 15.7353 L 9.40432 15.786 L 9.3193 15.8364 L 9.05507 15.9889 L 8.96896 16.0374 L 8.88259 16.0854 L 8.79596 16.1329 L 8.70908 16.18 L 8.62195 16.2266 L 8.53457 16.2727 L 8.44694 16.3184 L 8.35907 16.3636 L 8.27096 16.4083 L 8.1826 16.4525 L 8.09402 16.4963 L 8.00519 16.5396 L 7.91614 16.5824 L 7.82685 16.6247 L 7.72084 16.5653 L 7.61471 16.5056 L 7.50846 16.4456 L 7.40209 16.3854 L 7.29561 16.3249 L 7.189 16.2642 L 7.08228 16.2031 L 6.97543 16.1418 L 6.86846 16.0803 L 6.76136 16.0184 L 6.65414 15.9562 L 6.5468 15.8937 L 6.43933 15.831 L 6.33173 15.7679 L 6.22401 15.7045 L 6.11615 15.6407 L 6.00817 15.5767 L 5.90006 15.5123 L 5.79181 15.4475 L 5.68344 15.3824 L 5.57493 15.317 L 5.57493 15.317 L 5.53388 15.4369 L 5.4927 15.5564 L 5.45139 15.6756 L 5.40997 15.7944 L 5.36843 15.9129 L 5.32677 16.031 L 5.28501 16.1489 L 5.24313 16.2663 L 5.20116 16.3835 L 5.15908 16.5004 L 5.11691 16.6169 L 5.07464 16.7331 L 5.03228 16.8491 L 4.98984 16.9647 L 4.9473 17.0801 L 4.90469 17.1951 L 4.86199 17.3099 L 4.81921 17.4244 L 4.77636 17.5386 L 4.73344 17.6526 L 4.69044 17.7663 L 4.59484 17.7912 L 4.4991 17.8157 L 4.40323 17.8396 L 4.30724 17.863 L 4.21112 17.8859 L 4.11488 17.9083 L 4.01852 17.9302 L 3.92205 17.9516 L 3.82546 17.9724 L 3.72876 17.9927 L 3.63195 18.0125 L 3.53504 18.0318 L 3.43803 18.0505 L 3.34091 18.0687 L 3.04044 18.1217 L 2.94295 18.1378 L 2.84537 18.1534 L 2.74771 18.1684 L 2.64998 18.1829 L 2.55216 18.1969 L 2.45427 18.2104 L 2.35631 18.2233 L 2.25829 18.2357 L 2.16019 18.2476 L 2.06204 18.2589 L 1.96382 18.2698 L 1.86555 18.2801 L 1.76723 18.2898 L 1.66885 18.2991 L 1.58956 18.2069 L 1.51025 18.1145 L 1.43092 18.0219 L 1.35156 17.9289 L 1.27218 17.8356 L 1.19278 17.7421 L 1.11336 17.6482 L 1.03393 17.5541 L 0.95447 17.4596 L 0.874996 17.3649 L 0.795506 17.2698 L 0.716001 17.1744 L 0.636482 17.0786 L 0.556951 16.9825 L 0.477409 16.8861 L 0.397856 16.7893 L 0.318296 16.6922 L 0.238728 16.5947 L 0.159155 16.4969 L 0.0795784 16.3986 L 1.33227e-15 16.3 L 6.63907e-16 16.3 L -0.0795784 16.3986 L -0.159155 16.4969 L -0.238728 16.5947 L -0.318296 16.6922 L -0.397856 16.7893 L -0.477409 16.8861 L -0.556951 16.9825 L -0.636482 17.0786 L -0.716001 17.1744 L -0.795506 17.2698 L -0.874996 17.3649 L -0.95447 17.4596 L -1.03393 17.5541 L -1.11336 17.6482 L -1.19278 17.7421 L -1.27218 17.8356 L -1.35156 17.9289 L -1.43092 18.0219 L -1.51025 18.1145 L -1.58956 18.2069 L -1.66885 18.2991 L -1.76723 18.2898 L -1.86555 18.2801 L -1.96382 18.2698 L -2.06204 18.2589 L -2.16019 18.2476 L -2.25829 18.2357 L -2.35631 18.2233 L -2.45427 18.2104 L -2.55216 18.1969 L -2.64998 18.1829 L -2.74771 18.1684 L -2.84537 18.1534 L -2.94295 18.1378 L -3.04044 18.1217 L -3.34091 18.0687 L -3.43803 18.0505 L -3.53504 18.0318 L -3.63195 18.0125 L -3.72876 17.9927 L -3.82546 17.9724 L -3.92205 17.9516 L -4.01852 17.9302 L -4.11488 17.9083 L -4.21112 17.8859 L -4.30724 17.863 L -4.40323 17.8396 L -4.4991 17.8157 L -4.59484 17.7912 L -4.69044 17.7663 L -4.73344 17.6526 L -4.77636 17.5386 L -4.81921 17.4244 L -4.86199 17.3099 L -4.90469 17.1951 L -4.9473 17.0801 L -4.98984 16.9647 L -5.03228 16.8491 L -5.07464 16.7331 L -5.11691 16.6169 L -5.15908 16.5004 L -5.20116 16.3835 L -5.24313 16.2663 L -5.28501 16.1489 L -5.32677 16.031 L -5.36843 15.9129 L -5.40997 15.7944 L -5.45139 15.6756 L -5.4927 15.5564 L -5.53388 15.4369 L -5.57493 15.317 L -5.57493 15.317 L -5.68344 15.3824 L -5.79181 15.4475 L -5.90006 15.5123 L -6.00817 15.5767 L -6.11615 15.6407 L -6.22401 15.7045 L -6.33173 15.7679 L -6.43933 15.831 L -6.5468 15.8937 L -6.65414 15.9562 L -6.76136 16.0184 L -6.86846 16.0803 L -6.97543 16.1418 L -7.08228 16.2031 L -7.189 16.2642 L -7.29561 16.3249 L -7.40209 16.3854 L -7.50846 16.4456 L -7.61471 16.5056 L -7.72084 16.5653 L -7.82685 16.6247 L -7.91614 16.5824 L -8.00519 16.5396 L -8.09402 16.4963 L -8.1826 16.4525 L -8.27096 16.4083 L -8.35907 16.3636 L -8.44694 16.3184 L -8.53457 16.2727 L -8.62195 16.2266 L -8.70908 16.18 L -8.79596 16.1329 L -8.88259 16.0854 L -8.96896 16.0374 L -9.05507 15.9889 L -9.3193 15.8364 L -9.40432 15.786 L -9.48907 15.7353 L -9.57355 15.684 L -9.65775 15.6323 L -9.74167 15.5801 L -9.82531 15.5275 L -9.90867 15.4745 L -9.99173 15.421 L -10.0745 15.367 L -10.157 15.3126 L -10.2392 15.2578 L -10.3211 15.2025 L -10.4027 15.1468 L -10.484 15.0906 L -10.4855 14.9691 L -10.4869 14.8473 L -10.4881 14.7253 L -10.4891 14.6031 L -10.49 14.4806 L -10.4907 14.3579 L -10.4912 14.235 L -10.4915 14.1118 L -10.4917 13.9884 L -10.4916 13.8647 L -10.4914 13.7408 L -10.491 13.6166 L -10.4904 13.4921 L -10.4895 13.3674 L -10.4885 13.2424 L -10.4872 13.1171 L -10.4857 12.9916 L -10.484 12.8657 L -10.4821 12.7396 L -10.4799 12.6132 L -10.4774 12.4865 L -10.4774 12.4865 L -10.6018 12.5109 L -10.7259 12.535 L -10.8498 12.5588 L -10.9734 12.5824 L -11.0968 12.6056 L -11.2199 12.6286 L -11.3428 12.6514 L -11.4655 12.6739 L -11.588 12.6961 L -11.7102 12.7181 L -11.8322 12.7398 L -11.954 12.7613 L -12.0756 12.7826 L -12.197 12.8037 L -12.3181 12.8245 L -12.4391 12.8451 L -12.5598 12.8656 L -12.6804 12.8858 L -12.8007 12.9058 L -12.9209 12.9256 L -13.0408 12.9452 L -13.1102 12.8749 L -13.1793 12.8042 L -13.2479 12.7331 L -13.3162 12.6617 L -13.3841 12.5899 L -13.4516 12.5178 L -13.5187 12.4452 L -13.5855 12.3724 L -13.6518 12.2991 L -13.7177 12.2255 L -13.7833 12.1516 L -13.8484 12.0773 L -13.9132 12.0027 L -13.9775 11.9277 L -14.1736 11.694 L -14.2363 11.6176 L -14.2986 11.5408 L -14.3604 11.4638 L -14.4219 11.3864 L -14.4829 11.3087 L -14.5435 11.2306 L -14.6037 11.1523 L -14.6634 11.0736 L -14.7228 10.9946 L -14.7817 10.9152 L -14.8402 10.8356 L -14.8982 10.7556 L -14.9558 10.6754 L -15.013 10.5948 L -14.9729 10.4801 L -14.9325 10.3652 L -14.8919 10.2501 L -14.8511 10.1349 L -14.81 10.0196 L -14.7687 9.90403 L -14.7271 9.78833 L -14.6853 9.67246 L -14.6433 9.55642 L -14.6009 9.44021 L -14.5583 9.32382 L -14.5154 9.20726 L -14.4723 9.09052 L -14.4288 8.9736 L -14.3851 8.8565 L -14.3411 8.73922 L -14.2967 8.62175 L -14.2521 8.5041 L -14.2071 8.38626 L -14.1618 8.26823 L -14.1162 8.15 L -14.1162 8.15 L -14.2414 8.13039 L -14.3663 8.11059 L -14.4908 8.09061 L -14.615 8.07045 L -14.7389 8.05011 L -14.8625 8.02961 L -14.9858 8.00893 L -15.1088 7.9881 L -15.2314 7.96711 L -15.3538 7.94596 L -15.4759 7.92467 L -15.5977 7.90323 L -15.7193 7.88164 L -15.8405 7.85992 L -15.9615 7.83807 L -16.0822 7.81608 L -16.2027 7.79396 L -16.3228 7.77172 L -16.4428 7.74935 L -16.5624 7.72686 L -16.6819 7.70426 L -16.7231 7.61445 L -16.7638 7.52441 L -16.804 7.43416 L -16.8437 7.34369 L -16.883 7.25301 L -16.9217 7.16212 L -16.96 7.07102 L -16.9978 6.97972 L -17.0351 6.88821 L -17.0719 6.79651 L -17.1082 6.70461 L -17.144 6.61252 L -17.1793 6.52023 L -17.2141 6.42776 L -17.3184 6.14105 L -17.3512 6.04783 L -17.3835 5.95444 L -17.4152 5.86088 L -17.4465 5.76715 L -17.4773 5.67325 L -17.5075 5.57918 L -17.5373 5.48496 L -17.5665 5.39057 L -17.5952 5.29603 L -17.6235 5.20134 L -17.6512 5.1065 L -17.6784 5.01151 L -17.7051 4.91637 L -17.7313 4.82109 L -17.6543 4.72701 L -17.5771 4.63286 L -17.4996 4.53864 L -17.4218 4.44435 L -17.3438 4.34998 L -17.2654 4.25555 L -17.1868 4.16104 L -17.1079 4.06646 L -17.0287 3.9718 L -16.9491 3.87708 L -16.8693 3.78229 L -16.7891 3.68742 L -16.7086 3.59248 L -16.6278 3.49748 L -16.5467 3.4024 L -16.4652 3.30725 L -16.3833 3.21203 L -16.3011 3.11674 L -16.2186 3.02139 L -16.1357 2.92596 L -16.0524 2.83047 L -16.0524 2.83047 L -16.1633 2.76922 L -16.2739 2.70791 L -16.3841 2.64654 L -16.4939 2.58511 L -16.6034 2.52363 L -16.7125 2.46209 L -16.8212 2.4005 L -16.9297 2.33886 L -17.0378 2.27717 L -17.1456 2.21545 L -17.253 2.15368 L -17.3601 2.09187 L -17.467 2.03002 L -17.5735 1.96814 L -17.6797 1.90622 L -17.7856 1.84427 L -17.8912 1.78229 L -17.9965 1.72028 L -18.1016 1.65825 L -18.2064 1.59619 L -18.3108 1.5341 L -18.3188 1.43562 L -18.3263 1.33709 L -18.3332 1.23852 L -18.3396 1.13992 L -18.3455 1.04128 L -18.3508 0.942619 L -18.3556 0.843926 L -18.3599 0.745209 L -18.3636 0.646471 L -18.3668 0.547713 L -18.3695 0.44894 L -18.3717 0.350154 L -18.3733 0.251358 L -18.3744 0.152555 L -18.3744 -0.152555 L -18.3733 -0.251358 L -18.3717 -0.350154 L -18.3695 -0.44894 L -18.3668 -0.547713 L -18.3636 -0.646471 L -18.3599 -0.745209 L -18.3556 -0.843926 L -18.3508 -0.942619 L -18.3455 -1.04128 L -18.3396 -1.13992 L -18.3332 -1.23852 L -18.3263 -1.33709 L -18.3188 -1.43562 L -18.3108 -1.5341 L -18.2064 -1.59619 L -18.1016 -1.65825 L -17.9965 -1.72028 L -17.8912 -1.78229 L -17.7856 -1.84427 L -17.6797 -1.90622 L -17.5735 -1.96814 L -17.467 -2.03002 L -17.3601 -2.09187 L -17.253 -2.15368 L -17.1456 -2.21545 L -17.0378 -2.27717 L -16.9297 -2.33886 L -16.8212 -2.4005 L -16.7125 -2.46209 L -16.6034 -2.52363 L -16.4939 -2.58511 L -16.3841 -2.64654 L -16.2739 -2.70791 L -16.1633 -2.76922 L -16.0524 -2.83047 L -16.0524 -2.83047 L -16.1357 -2.92596 L -16.2186 -3.02139 L -16.3011 -3.11674 L -16.3833 -3.21203 L -16.4652 -3.30725 L -16.5467 -3.4024 L -16.6278 -3.49748 L -16.7086 -3.59248 L -16.7891 -3.68742 L -16.8693 -3.78229 L -16.9491 -3.87708 L -17.0287 -3.9718 L -17.1079 -4.06646 L -17.1868 -4.16104 L -17.2654 -4.25555 L -17.3438 -4.34998 L -17.4218 -4.44435 L -17.4996 -4.53864 L -17.5771 -4.63286 L -17.6543 -4.72701 L -17.7313 -4.82109 L -17.7051 -4.91637 L -17.6784 -5.01151 L -17.6512 -5.1065 L -17.6235 -5.20134 L -17.5952 -5.29603 L -17.5665 -5.39057 L -17.5373 -5.48496 L -17.5075 -5.57918 L -17.4773 -5.67325 L -17.4465 -5.76715 L -17.4152 -5.86088 L -17.3835 -5.95444 L -17.3512 -6.04783 L -17.3184 -6.14105 L -17.2141 -6.42776 L -17.1793 -6.52023 L -17.144 -6.61252 L -17.1082 -6.70461 L -17.0719 -6.79651 L -17.0351 -6.88821 L -16.9978 -6.97972 L -16.96 -7.07102 L -16.9217 -7.16212 L -16.883 -7.25301 L -16.8437 -7.34369 L -16.804 -7.43416 L -16.7638 -7.52441 L -16.7231 -7.61445 L -16.6819 -7.70426 L -16.5624 -7.72686 L -16.4428 -7.74935 L -16.3228 -7.77172 L -16.2027 -7.79396 L -16.0822 -7.81608 L -15.9615 -7.83807 L -15.8405 -7.85992 L -15.7193 -7.88164 L -15.5977 -7.90323 L -15.4759 -7.92467 L -15.3538 -7.94596 L -15.2314 -7.96711 L -15.1088 -7.9881 L -14.9858 -8.00893 L -14.8625 -8.02961 L -14.7389 -8.05011 L -14.615 -8.07045 L -14.4908 -8.09061 L -14.3663 -8.11059 L -14.2414 -8.13039 L -14.1162 -8.15 L -14.1162 -8.15 L -14.1618 -8.26823 L -14.2071 -8.38626 L -14.2521 -8.5041 L -14.2967 -8.62175 L -14.3411 -8.73922 L -14.3851 -8.8565 L -14.4288 -8.9736 L -14.4723 -9.09052 L -14.5154 -9.20726 L -14.5583 -9.32382 L -14.6009 -9.44021 L -14.6433 -9.55642 L -14.6853 -9.67246 L -14.7271 -9.78833 L -14.7687 -9.90403 L -14.81 -10.0196 L -14.8511 -10.1349 L -14.8919 -10.2501 L -14.9325 -10.3652 L -14.9729 -10.4801 L -15.013 -10.5948 L -14.9558 -10.6754 L -14.8982 -10.7556 L -14.8402 -10.8356 L -14.7817 -10.9152 L -14.7228 -10.9946 L -14.6634 -11.0736 L -14.6037 -11.1523 L -14.5435 -11.2306 L -14.4829 -11.3087 L -14.4219 -11.3864 L -14.3604 -11.4638 L -14.2986 -11.5408 L -14.2363 -11.6176 L -14.1736 -11.694 L -13.9775 -11.9277 L -13.9132 -12.0027 L -13.8484 -12.0773 L -13.7833 -12.1516 L -13.7177 -12.2255 L -13.6518 -12.2991 L -13.5855 -12.3724 L -13.5187 -12.4452 L -13.4516 -12.5178 L -13.3841 -12.5899 L -13.3162 -12.6617 L -13.2479 -12.7331 L -13.1793 -12.8042 L -13.1102 -12.8749 L -13.0408 -12.9452 L -12.9209 -12.9256 L -12.8007 -12.9058 L -12.6804 -12.8858 L -12.5598 -12.8656 L -12.4391 -12.8451 L -12.3181 -12.8245 L -12.197 -12.8037 L -12.0756 -12.7826 L -11.954 -12.7613 L -11.8322 -12.7398 L -11.7102 -12.7181 L -11.588 -12.6961 L -11.4655 -12.6739 L -11.3428 -12.6514 L -11.2199 -12.6286 L -11.0968 -12.6056 L -10.9734 -12.5824 L -10.8498 -12.5588 L -10.7259 -12.535 L -10.6018 -12.5109 L -10.4774 -12.4865 L -10.4774 -12.4865 L -10.4799 -12.6132 L -10.4821 -12.7396 L -10.484 -12.8657 L -10.4857 -12.9916 L -10.4872 -13.1171 L -10.4885 -13.2424 L -10.4895 -13.3674 L -10.4904 -13.4921 L -10.491 -13.6166 L -10.4914 -13.7408 L -10.4916 -13.8647 L -10.4917 -13.9884 L -10.4915 -14.1118 L -10.4912 -14.235 L -10.4907 -14.3579 L -10.49 -14.4806 L -10.4891 -14.6031 L -10.4881 -14.7253 L -10.4869 -14.8473 L -10.4855 -14.9691 L -10.484 -15.0906 L -10.4027 -15.1468 L -10.3211 -15.2025 L -10.2392 -15.2578 L -10.157 -15.3126 L -10.0745 -15.367 L -9.99173 -15.421 L -9.90867 -15.4745 L -9.82531 -15.5275 L -9.74167 -15.5801 L -9.65775 -15.6323 L -9.57355 -15.684 L -9.48907 -15.7353 L -9.40432 -15.786 L -9.3193 -15.8364 L -9.05507 -15.9889 L -8.96896 -16.0374 L -8.88259 -16.0854 L -8.79596 -16.1329 L -8.70908 -16.18 L -8.62195 -16.2266 L -8.53457 -16.2727 L -8.44694 -16.3184 L -8.35907 -16.3636 L -8.27096 -16.4083 L -8.1826 -16.4525 L -8.09402 -16.4963 L -8.00519 -16.5396 L -7.91614 -16.5824 L -7.82685 -16.6247 L -7.72084 -16.5653 L -7.61471 -16.5056 L -7.50846 -16.4456 L -7.40209 -16.3854 L -7.29561 -16.3249 L -7.189 -16.2642 L -7.08228 -16.2031 L -6.97543 -16.1418 L -6.86846 -16.0803 L -6.76136 -16.0184 L -6.65414 -15.9562 L -6.5468 -15.8937 L -6.43933 -15.831 L -6.33173 -15.7679 L -6.22401 -15.7045 L -6.11615 -15.6407 L -6.00817 -15.5767 L -5.90006 -15.5123 L -5.79181 -15.4475 L -5.68344 -15.3824 L -5.57493 -15.317 L -5.57493 -15.317 L -5.53388 -15.4369 L -5.4927 -15.5564 L -5.45139 -15.6756 L -5.40997 -15.7944 L -5.36843 -15.9129 L -5.32677 -16.031 L -5.28501 -16.1489 L -5.24313 -16.2663 L -5.20116 -16.3835 L -5.15908 -16.5004 L -5.11691 -16.6169 L -5.07464 -16.7331 L -5.03228 -16.8491 L -4.98984 -16.9647 L -4.9473 -17.0801 L -4.90469 -17.1951 L -4.86199 -17.3099 L -4.81921 -17.4244 L -4.77636 -17.5386 L -4.73344 -17.6526 L -4.69044 -17.7663 L -4.59484 -17.7912 L -4.4991 -17.8157 L -4.40323 -17.8396 L -4.30724 -17.863 L -4.21112 -17.8859 L -4.11488 -17.9083 L -4.01852 -17.9302 L -3.92205 -17.9516 L -3.82546 -17.9724 L -3.72876 -17.9927 L -3.63195 -18.0125 L -3.53504 -18.0318 L -3.43803 -18.0505 L -3.34091 -18.0687 L -3.04044 -18.1217 L -2.94295 -18.1378 L -2.84537 -18.1534 L -2.74771 -18.1684 L -2.64998 -18.1829 L -2.55216 -18.1969 L -2.45427 -18.2104 L -2.35631 -18.2233 L -2.25829 -18.2357 L -2.16019 -18.2476 L -2.06204 -18.2589 L -1.96382 -18.2698 L -1.86555 -18.2801 L -1.76723 -18.2898 L -1.66885 -18.2991 L -1.58956 -18.2069 L -1.51025 -18.1145 L -1.43092 -18.0219 L -1.35156 -17.9289 L -1.27218 -17.8356 L -1.19278 -17.7421 L -1.11336 -17.6482 L -1.03393 -17.5541 L -0.95447 -17.4596 L -0.874996 -17.3649 L -0.795506 -17.2698 L -0.716001 -17.1744 L -0.636482 -17.0786 L -0.556951 -16.9825 L -0.477409 -16.8861 L -0.397856 -16.7893 L -0.318296 -16.6922 L -0.238728 -16.5947 L -0.159155 -16.4969 L -0.0795784 -16.3986 L 0 -16.3 L -5.98852e-15 -16.3 L 0.0795784 -16.3986 L 0.159155 -16.4969 L 0.238728 -16.5947 L 0.318296 -16.6922 L 0.397856 -16.7893 L 0.477409 -16.8861 L 0.556951 -16.9825 L 0.636482 -17.0786 L 0.716001 -17.1744 L 0.795506 -17.2698 L 0.874996 -17.3649 L 0.95447 -17.4596 L 1.03393 -17.5541 L 1.11336 -17.6482 L 1.19278 -17.7421 L 1.27218 -17.8356 L 1.35156 -17.9289 L 1.43092 -18.0219 L 1.51025 -18.1145 L 1.58956 -18.2069 L 1.66885 -18.2991 L 1.76723 -18.2898 L 1.86555 -18.2801 L 1.96382 -18.2698 L 2.06204 -18.2589 L 2.16019 -18.2476 L 2.25829 -18.2357 L 2.35631 -18.2233 L 2.45427 -18.2104 L 2.55216 -18.1969 L 2.64998 -18.1829 L 2.74771 -18.1684 L 2.84537 -18.1534 L 2.94295 -18.1378 L 3.04044 -18.1217 L 3.34091 -18.0687 L 3.43803 -18.0505 L 3.53504 -18.0318 L 3.63195 -18.0125 L 3.72876 -17.9927 L 3.82546 -17.9724 L 3.92205 -17.9516 L 4.01852 -17.9302 L 4.11488 -17.9083 L 4.21112 -17.8859 L 4.30724 -17.863 L 4.40323 -17.8396 L 4.4991 -17.8157 L 4.59484 -17.7912 L 4.69044 -17.7663 L 4.73344 -17.6526 L 4.77636 -17.5386 L 4.81921 -17.4244 L 4.86199 -17.3099 L 4.90469 -17.1951 L 4.9473 -17.0801 L 4.98984 -16.9647 L 5.03228 -16.8491 L 5.07464 -16.7331 L 5.11691 -16.6169 L 5.15908 -16.5004 L 5.20116 -16.3835 L 5.24313 -16.2663 L 5.28501 -16.1489 L 5.32677 -16.031 L 5.36843 -15.9129 L 5.40997 -15.7944 L 5.45139 -15.6756 L 5.4927 -15.5564 L 5.53388 -15.4369 L 5.57493 -15.317 L 5.57493 -15.317 L 5.68344 -15.3824 L 5.79181 -15.4475 L 5.90006 -15.5123 L 6.00817 -15.5767 L 6.11615 -15.6407 L 6.22401 -15.7045 L 6.33173 -15.7679 L 6.43933 -15.831 L 6.5468 -15.8937 L 6.65414 -15.9562 L 6.76136 -16.0184 L 6.86846 -16.0803 L 6.97543 -16.1418 L 7.08228 -16.2031 L 7.189 -16.2642 L 7.29561 -16.3249 L 7.40209 -16.3854 L 7.50846 -16.4456 L 7.61471 -16.5056 L 7.72084 -16.5653 L 7.82685 -16.6247 L 7.91614 -16.5824 L 8.00519 -16.5396 L 8.09402 -16.4963 L 8.1826 -16.4525 L 8.27096 -16.4083 L 8.35907 -16.3636 L 8.44694 -16.3184 L 8.53457 -16.2727 L 8.62195 -16.2266 L 8.70908 -16.18 L 8.79596 -16.1329 L 8.88259 -16.0854 L 8.96896 -16.0374 L 9.05507 -15.9889 L 9.3193 -15.8364 L 9.40432 -15.786 L 9.48907 -15.7353 L 9.57355 -15.684 L 9.65775 -15.6323 L 9.74167 -15.5801 L 9.82531 -15.5275 L 9.90867 -15.4745 L 9.99173 -15.421 L 10.0745 -15.367 L 10.157 -15.3126 L 10.2392 -15.2578 L 10.3211 -15.2025 L 10.4027 -15.1468 L 10.484 -15.0906 L 10.4855 -14.9691 L 10.4869 -14.8473 L 10.4881 -14.7253 L 10.4891 -14.6031 L 10.49 -14.4806 L 10.4907 -14.3579 L 10.4912 -14.235 L 10.4915 -14.1118 L 10.4917 -13.9884 L 10.4916 -13.8647 L 10.4914 -13.7408 L 10.491 -13.6166 L 10.4904 -13.4921 L 10.4895 -13.3674 L 10.4885 -13.2424 L 10.4872 -13.1171 L 10.4857 -12.9916 L 10.484 -12.8657 L 10.4821 -12.7396 L 10.4799 -12.6132 L 10.4774 -12.4865 L 10.4774 -12.4865 L 10.6018 -12.5109 L 10.7259 -12.535 L 10.8498 -12.5588 L 10.9734 -12.5824 L 11.0968 -12.6056 L 11.2199 -12.6286 L 11.3428 -12.6514 L 11.4655 -12.6739 L 11.588 -12.6961 L 11.7102 -12.7181 L 11.8322 -12.7398 L 11.954 -12.7613 L 12.0756 -12.7826 L 12.197 -12.8037 L 12.3181 -12.8245 L 12.4391 -12.8451 L 12.5598 -12.8656 L 12.6804 -12.8858 L 12.8007 -12.9058 L 12.9209 -12.9256 L 13.0408 -12.9452 L 13.1102 -12.8749 L 13.1793 -12.8042 L 13.2479 -12.7331 L 13.3162 -12.6617 L 13.3841 -12.5899 L 13.4516 -12.5178 L 13.5187 -12.4452 L 13.5855 -12.3724 L 13.6518 -12.2991 L 13.7177 -12.2255 L 13.7833 -12.1516 L 13.8484 -12.0773 L 13.9132 -12.0027 L 13.9775 -11.9277 L 14.1736 -11.694 L 14.2363 -11.6176 L 14.2986 -11.5408 L 14.3604 -11.4638 L 14.4219 -11.3864 L 14.4829 -11.3087 L 14.5435 -11.2306 L 14.6037 -11.1523 L 14.6634 -11.0736 L 14.7228 -10.9946 L 14.7817 -10.9152 L 14.8402 -10.8356 L 14.8982 -10.7556 L 14.9558 -10.6754 L 15.013 -10.5948 L 14.9729 -10.4801 L 14.9325 -10.3652 L 14.8919 -10.2501 L 14.8511 -10.1349 L 14.81 -10.0196 L 14.7687 -9.90403 L 14.7271 -9.78833 L 14.6853 -9.67246 L 14.6433 -9.55642 L 14.6009 -9.44021 L 14.5583 -9.32382 L 14.5154 -9.20726 L 14.4723 -9.09052 L 14.4288 -8.9736 L 14.3851 -8.8565 L 14.3411 -8.73922 L 14.2967 -8.62175 L 14.2521 -8.5041 L 14.2071 -8.38626 L 14.1618 -8.26823 L 14.1162 -8.15 L 14.1162 -8.15 L 14.2414 -8.13039 L 14.3663 -8.11059 L 14.4908 -8.09061 L 14.615 -8.07045 L 14.7389 -8.05011 L 14.8625 -8.02961 L 14.9858 -8.00893 L 15.1088 -7.9881 L 15.2314 -7.96711 L 15.3538 -7.94596 L 15.4759 -7.92467 L 15.5977 -7.90323 L 15.7193 -7.88164 L 15.8405 -7.85992 L 15.9615 -7.83807 L 16.0822 -7.81608 L 16.2027 -7.79396 L 16.3228 -7.77172 L 16.4428 -7.74935 L 16.5624 -7.72686 L 16.6819 -7.70426 L 16.7231 -7.61445 L 16.7638 -7.52441 L 16.804 -7.43416 L 16.8437 -7.34369 L 16.883 -7.25301 L 16.9217 -7.16212 L 16.96 -7.07102 L 16.9978 -6.97972 L 17.0351 -6.88821 L 17.0719 -6.79651 L 17.1082 -6.70461 L 17.144 -6.61252 L 17.1793 -6.52023 L 17.2141 -6.42776 L 17.3184 -6.14105 L 17.3512 -6.04783 L 17.3835 -5.95444 L 17.4152 -5.86088 L 17.4465 -5.76715 L 17.4773 -5.67325 L 17.5075 -5.57918 L 17.5373 -5.48496 L 17.5665 -5.39057 L 17.5952 -5.29603 L 17.6235 -5.20134 L 17.6512 -5.1065 L 17.6784 -5.01151 L 17.7051 -4.91637 L 17.7313 -4.82109 L 17.6543 -4.72701 L 17.5771 -4.63286 L 17.4996 -4.53864 L 17.4218 -4.44435 L 17.3438 -4.34998 L 17.2654 -4.25555 L 17.1868 -4.16104 L 17.1079 -4.06646 L 17.0287 -3.9718 L 16.9491 -3.87708 L 16.8693 -3.78229 L 16.7891 -3.68742 L 16.7086 -3.59248 L 16.6278 -3.49748 L 16.5467 -3.4024 L 16.4652 -3.30725 L 16.3833 -3.21203 L 16.3011 -3.11674 L 16.2186 -3.02139 L 16.1357 -2.92596 L 16.0524 -2.83047 L 16.0524 -2.83047 L 16.1633 -2.76922 L 16.2739 -2.70791 L 16.3841 -2.64654 L 16.4939 -2.58511 L 16.6034 -2.52363 L 16.7125 -2.46209 L 16.8212 -2.4005 L 16.9297 -2.33886 L 17.0378 -2.27717 L 17.1456 -2.21545 L 17.253 -2.15368 L 17.3601 -2.09187 L 17.467 -2.03002 L 17.5735 -1.96814 L 17.6797 -1.90622 L 17.7856 -1.84427 L 17.8912 -1.78229 L 17.9965 -1.72028 L 18.1016 -1.65825 L 18.2064 -1.59619 L 18.3108 -1.5341 L 18.3188 -1.43562 L 18.3263 -1.33709 L 18.3332 -1.23852 L 18.3396 -1.13992 L 18.3455 -1.04128 L 18.3508 -0.942619 L 18.3556 -0.843926 L 18.3599 -0.745209 L 18.3636 -0.646471 L 18.3668 -0.547713 L 18.3695 -0.44894 L 18.3717 -0.350154 L 18.3733 -0.251358 L 18.3744 -0.152555Z"
id="path1" />
</g>
</svg>
