<?xml version="1.0" encoding="UTF-8" standalone="no"?>
<svg version="1.1">
<g
style="fill:none;stroke:#000000;stroke-opacity:1;stroke-width:0.1">
<path d="M 18.4994 0.142932 L 18.4985 0.237245 L 18.497 0.331552 L 18.4951 0.425851 L 18.4927 0.520138 L 18.4898 0.614412 L 18.4864 0.708669 L 18.4826 0.802909 L 18.4782 0.897127 L 18.4734 0.991322 L 18.4681 1.08549 L 18.4624 1.17963 L 18.4561 1.27374 L 18.4494 1.36782 L 18.4422 1.46186 L 18.4345 1.55587 L 18.3347 1.61513 L 18.2347 1.67436 L 18.1344 1.73358 L 18.0338 1.79277 L 17.933 1.85193 L 17.832 1.91107 L 17.7306 1.97018 L 17.629 2.02926 L 17.5272 2.0883 L 17.425 2.14732 L 17.3226 2.20629 L 17.2198 2.26523 L 17.1168 2.32413 L 17.0135 2.383 L 16.9098 2.44181 L 16.8059 2.50059 L 16.7016 2.55932 L 16.5971 2.61799 L 16.4922 2.67662 L 16.3869 2.73519 L 16.2814 2.79371 L 16.1755 2.85217 L 16.1755 2.85217 L 16.255 2.94333 L 16.3342 3.03442 L 16.413 3.12545 L 16.4915 3.21642 L 16.5697 3.30733 L 16.6476 3.39817 L 16.7252 3.48895 L 16.8025 3.57967 L 16.8794 3.67032 L 16.9561 3.76091 L 17.0325 3.85143 L 17.1086 3.94189 L 17.1844 4.03228 L 17.2599 4.12261 L 17.3352 4.21288 L 17.4102 4.30308 L 17.4849 4.39321 L 17.5594 4.48328 L 17.6337 4.57329 L 17.7076 4.66323 L 17.7814 4.75311 L 17.8549 4.84292 L 17.8299 4.93389 L 17.8046 5.02472 L 17.7787 5.11543 L 17.7524 5.206 L 17.7256 5.29644 L 17.6984 5.38674 L 17.6707 5.4769 L 17.6425 5.56692 L 17.6139 5.6568 L 17.5849 5.74652 L 17.5553 5.8361 L 17.5254 5.92553 L 17.4949 6.0148 L 17.464 6.10391 L 17.4327 6.19287 L 17.3349 6.4615 L 17.3017 6.54979 L 17.2681 6.63791 L 17.2341 6.72586 L 17.1995 6.81364 L 17.1646 6.90124 L 17.1292 6.98866 L 17.0933 7.0759 L 17.057 7.16295 L 17.0203 7.24982 L 16.9831 7.3365 L 16.9455 7.42299 L 16.9074 7.50928 L 16.8689 7.59539 L 16.83 7.68129 L 16.7906 7.76699 L 16.6766 7.78855 L 16.5623 7.81001 L 16.4478 7.83135 L 16.3331 7.85259 L 16.2181 7.87371 L 16.103 7.89471 L 15.9875 7.9156 L 15.8718 7.93637 L 15.7559 7.95701 L 15.6397 7.97752 L 15.5233 7.9979 L 15.4066 8.01815 L 15.2896 8.03826 L 15.1724 8.05823 L 15.0549 8.07806 L 14.9371 8.09774 L 14.8191 8.11727 L 14.7007 8.13664 L 14.5821 8.15585 L 14.4632 8.1749 L 14.344 8.19379 L 14.2245 8.2125 L 14.2245 8.2125 L 14.268 8.32536 L 14.3113 8.43804 L 14.3542 8.55055 L 14.3969 8.66289 L 14.4393 8.77506 L 14.4814 8.88706 L 14.5233 8.99889 L 14.5648 9.11057 L 14.6062 9.22208 L 14.6472 9.33342 L 14.688 9.44461 L 14.7286 9.55564 L 14.7689 9.66651 L 14.809 9.77723 L 14.8489 9.8878 L 14.8885 9.99821 L 14.9279 10.1085 L 14.9671 10.2186 L 15.0061 10.3286 L 15.0448 10.4384 L 15.0834 10.548 L 15.1217 10.6576 L 15.0672 10.7345 L 15.0123 10.8112 L 14.9569 10.8876 L 14.9012 10.9637 L 14.8451 11.0395 L 14.7887 11.1151 L 14.7318 11.1903 L 14.6746 11.2653 L 14.6169 11.34 L 14.5589 11.4143 L 14.5006 11.4884 L 14.4418 11.5622 L 14.3827 11.6357 L 14.3232 11.7089 L 14.2633 11.7817 L 14.0795 12.0007 L 14.0182 12.0723 L 13.9564 12.1436 L 13.8943 12.2146 L 13.8319 12.2853 L 13.7691 12.3557 L 13.7059 12.4257 L 13.6424 12.4954 L 13.5785 12.5648 L 13.5143 12.6339 L 13.4497 12.7026 L 13.3847 12.771 L 13.3194 12.8391 L 13.2538 12.9068 L 13.1878 12.9742 L 13.1215 13.0413 L 13.007 13.0226 L 12.8923 13.0036 L 12.7774 12.9845 L 12.6623 12.9653 L 12.5471 12.9458 L 12.4317 12.9261 L 12.3161 12.9063 L 12.2003 12.8862 L 12.0843 12.866 L 11.9681 12.8455 L 11.8517 12.8248 L 11.7351 12.804 L 11.6183 12.7829 L 11.5013 12.7615 L 11.3841 12.74 L 11.2667 12.7182 L 11.1491 12.6962 L 11.0313 12.6739 L 10.9132 12.6514 L 10.795 12.6286 L 10.6765 12.6056 L 10.5578 12.5823 L 10.5578 12.5823 L 10.5601 12.7032 L 10.5622 12.8239 L 10.5641 12.9443 L 10.5658 13.0645 L 10.5673 13.1844 L 10.5685 13.304 L 10.5696 13.4234 L 10.5705 13.5426 L 10.5712 13.6615 L 10.5717 13.7802 L 10.572 13.8986 L 10.5721 14.0168 L 10.5721 14.1348 L 10.5719 14.2526 L 10.5715 14.3701 L 10.571 14.4874 L 10.5703 14.6045 L 10.5695 14.7214 L 10.5685 14.838 L 10.5674 14.9545 L 10.5661 15.0707 L 10.5646 15.1868 L 10.4871 15.2404 L 10.4092 15.2937 L 10.3311 15.3466 L 10.2528 15.3991 L 10.1741 15.4511 L 10.0952 15.5028 L 10.0161 15.5541 L 9.93662 15.6049 L 9.85694 15.6554 L 9.77699 15.7054 L 9.6968 15.7551 L 9.61635 15.8043 L 9.53565 15.8531 L 9.4547 15.9015 L 9.37351 15.9495 L 9.12594 16.0925 L 9.04378 16.1388 L 8.96138 16.1847 L 8.87875 16.2302 L 8.79589 16.2752 L 8.7128 16.3198 L 8.62949 16.364 L 8.54594 16.4078 L 8.46218 16.4512 L 8.3782 16.4941 L 8.294 16.5366 L 8.20958 16.5787 L 8.12496 16.6203 L 8.04011 16.6615 L 7.95507 16.7023 L 7.86981 16.7426 L 7.7686 16.6859 L 7.66728 16.6289 L 7.56586 16.5716 L 7.46433 16.5141 L 7.3627 16.4564 L 7.26095 16.3985 L 7.1591 16.3403 L 7.05714 16.2818 L 6.95506 16.2231 L 6.85287 16.1642 L 6.75058 16.1049 L 6.64816 16.0454 L 6.54564 15.9856 L 6.443 15.9256 L 6.34024 15.8653 L 6.23737 15.8046 L 6.13439 15.7437 L 6.03128 15.6825 L 5.92806 15.6209 L 5.82472 15.5591 L 5.72126 15.4969 L 5.61768 15.4345 L 5.61768 15.4345 L 5.5785 15.5489 L 5.5392 15.663 L 5.49979 15.7768 L 5.46027 15.8903 L 5.42064 16.0035 L 5.38091 16.1164 L 5.34108 16.2289 L 5.30115 16.3412 L 5.26113 16.4532 L 5.22101 16.5649 L 5.18081 16.6763 L 5.14051 16.7874 L 5.10014 16.8983 L 5.05968 17.0088 L 5.01914 17.1192 L 4.97853 17.2292 L 4.93784 17.339 L 4.89708 17.4485 L 4.85624 17.5578 L 4.81534 17.6669 L 4.77437 17.7757 L 4.73334 17.8842 L 4.6421 17.9081 L 4.55074 17.9316 L 4.45926 17.9545 L 4.36767 17.977 L 4.27596 17.9991 L 4.18414 18.0206 L 4.09221 18.0417 L 4.00017 18.0624 L 3.90804 18.0825 L 3.8158 18.1022 L 3.72346 18.1214 L 3.63102 18.1402 L 3.53849 18.1584 L 3.44587 18.1762 L 3.35316 18.1936 L 3.07163 18.2432 L 2.97859 18.2586 L 2.88546 18.2736 L 2.79226 18.2881 L 2.69899 18.3021 L 2.60564 18.3156 L 2.51223 18.3286 L 2.41875 18.3412 L 2.32521 18.3533 L 2.23161 18.3649 L 2.13796 18.376 L 2.04424 18.3867 L 1.95048 18.3969 L 1.85666 18.4066 L 1.76279 18.4158 L 1.66888 18.4246 L 1.59319 18.3366 L 1.51749 18.2484 L 1.44176 18.1599 L 1.36601 18.0712 L 1.29024 17.9822 L 1.21445 17.8929 L 1.13865 17.8034 L 1.06282 17.7136 L 0.986984 17.6235 L 0.911128 17.5332 L 0.835258 17.4425 L 0.759373 17.3516 L 0.683475 17.2603 L 0.607565 17.1688 L 0.531645 17.077 L 0.455714 16.9848 L 0.379775 16.8923 L 0.303829 16.7995 L 0.227877 16.7064 L 0.151921 16.6129 L 0.0759612 16.5191 L 1.33227e-15 16.425 L 6.79215e-16 16.425 L -0.0759612 16.5191 L -0.151921 16.6129 L -0.227877 16.7064 L -0.303829 16.7995 L -0.379775 16.8923 L -0.455714 16.9848 L -0.531645 17.077 L -0.607565 17.1688 L -0.683475 17.2603 L -0.759373 17.3516 L -0.835258 17.4425 L -0.911128 17.5332 L -0.986984 17.6235 L -1.06282 17.7136 L -1.13865 17.8034 L -1.21445 17.8929 L -1.29024 17.9822 L -1.36601 18.0712 L -1.44176 18.1599 L -1.51749 18.2484 L -1.59319 18.3366 L -1.66888 18.4246 L -1.76279 18.4158 L -1.85666 18.4066 L -1.95048 18.3969 L -2.04424 18.3867 L -2.13796 18.376 L -2.23161 18.3649 L -2.32521 18.3533 L -2.41875 18.3412 L -2.51223 18.3286 L -2.60564 18.3156 L -2.69899 18.3021 L -2.79226 18.2881 L -2.88546 18.2736 L -2.97859 18.2586 L -3.07163 18.2432 L -3.35316 18.1936 L -3.44587 18.1762 L -3.53849 18.1584 L -3.63102 18.1402 L -3.72346 18.1214 L -3.8158 18.1022 L -3.90804 18.0825 L -4.00017 18.0624 L -4.09221 18.0417 L -4.18414 18.0206 L -4.27596 17.9991 L -4.36767 17.977 L -4.45926 17.9545 L -4.55074 17.9316 L -4.6421 17.9081 L -4.73334 17.8842 L -4.77437 17.7757 L -4.81534 17.6669 L -4.85624 17.5578 L -4.89708 17.4485 L -4.93784 17.339 L -4.97853 17.2292 L -5.01914 17.1192 L -5.05968 17.0088 L -5.10014 16.8983 L -5.14051 16.7874 L -5.18081 16.6763 L -5.22101 16.5649 L -5.26113 16.4532 L -5.30115 16.3412 L -5.34108 16.2289 L -5.38091 16.1164 L -5.42064 16.0035 L -5.46027 15.8903 L -5.49979 15.7768 L -5.5392 15.663 L -5.5785 15.5489 L -5.61768 15.4345 L -5.61768 15.4345 L -5.72126 15.4969 L -5.82472 15.5591 L -5.92806 15.6209 L -6.03128 15.6825 L -6.13439 15.7437 L -6.23737 15.8046 L -6.34024 15.8653 L -6.443 15.9256 L -6.54564 15.9856 L -6.64816 16.0454 L -6.75058 16.1049 L -6.85287 16.1642 L -6.95506 16.2231 L -7.05714 16.2818 L -7.1591 16.3403 L -7.26095 16.3985 L -7.3627 16.4564 L -7.46433 16.5141 L -7.56586 16.5716 L -7.66728 16.6289 L -7.7686 16.6859 L -7.86981 16.7426 L -7.95507 16.7023 L -8.04011 16.6615 L -8.12496 16.6203 L -8.20958 16.5787 L -8.294 16.5366 L -8.3782 16.4941 L -8.46218 16.4512 L -8.54594 16.4078 L -8.62949 16.364 L -8.7128 16.3198 L -8.79589 16.2752 L -8.87875 16.2302 L -8.96138 16.1847 L -9.04378 16.1388 L -9.12594 16.0925 L -9.37351 15.9495 L -9.4547 15.9015 L -9.53565 15.8531 L -9.61635 15.8043 L -9.6968 15.7551 L -9.77699 15.7054 L -9.85694 15.6554 L -9.93662 15.6049 L -10.0161 15.5541 L -10.0952 15.5028 L -10.1741 15.4511 L -10.2528 15.3991 L -10.3311 15.3466 L -10.4092 15.2937 L -10.4871 15.2404 L -10.5646 15.1868 L -10.5661 15.0707 L -10.5674 14.9545 L -10.5685 14.838 L -10.5695 14.7214 L -10.5703 14.6045 L -10.571 14.4874 L -10.5715 14.3701 L -10.5719 14.2526 L -10.5721 14.1348 L -10.5721 14.0168 L -10.572 13.8986 L -10.5717 13.7802 L -10.5712 13.6615 L -10.5705 13.5426 L -10.5696 13.4234 L -10.5685 13.304 L -10.5673 13.1844 L -10.5658 13.0645 L -10.5641 12.9443 L -10.5622 12.8239 L -10.5601 12.7032 L -10.5578 12.5823 L -10.5578 12.5823 L -10.6765 12.6056 L -10.795 12.6286 L -10.9132 12.6514 L -11.0313 12.6739 L -11.1491 12.6962 L -11.2667 12.7182 L -11.3841 12.74 L -11.5013 12.7615 L -11.6183 12.7829 L -11.7351 12.804 L -11.8517 12.8248 L -11.9681 12.8455 L -12.0843 12.866 L -12.2003 12.8862 L -12.3161 12.9063 L -12.4317 12.9261 L -12.5471 12.9458 L -12.6623 12.9653 L -12.7774 12.9845 L -12.8923 13.0036 L -13.007 13.0226 L -13.1215 13.0413 L -13.1878 12.9742 L -13.2538 12.9068 L -13.3194 12.8391 L -13.3847 12.771 L -13.4497 12.7026 L -13.5143 12.6339 L -13.5785 12.5648 L -13.6424 12.4954 L -13.7059 12.4257 L -13.7691 12.3557 L -13.8319 12.2853 L -13.8943 12.2146 L -13.9564 12.1436 L -14.0182 12.0723 L -14.0795 12.0007 L -14.2633 11.7817 L -14.3232 11.7089 L -14.3827 11.6357 L -14.4418 11.5622 L -14.5006 11.4884 L -14.5589 11.4143 L -14.6169 11.34 L -14.6746 11.2653 L -14.7318 11.1903 L -14.7887 11.1151 L -14.8451 11.0395 L -14.9012 10.9637 L -14.9569 10.8876 L -15.0123 10.8112 L -15.0672 10.7345 L -15.1217 10.6576 L -15.0834 10.548 L -15.0448 10.4384 L -15.0061 10.3286 L -14.9671 10.2186 L -14.9279 10.1085 L -14.8885 9.99821 L -14.8489 9.8878 L -14.809 9.77723 L -14.7689 9.66651 L -14.7286 9.55564 L -14.688 9.44461 L -14.6472 9.33342 L -14.6062 9.22208 L -14.5648 9.11057 L -14.5233 8.99889 L -14.4814 8.88706 L -14.4393 8.77506 L -14.3969 8.66289 L -14.3542 8.55055 L -14.3113 8.43804 L -14.268 8.32536 L -14.2245 8.2125 L -14.2245 8.2125 L -14.344 8.19379 L -14.4632 8.1749 L -14.5821 8.15585 L -14.7007 8.13664 L -14.8191 8.11727 L -14.9371 8.09774 L -15.0549 8.07806 L -15.1724 8.05823 L -15.2896 8.03826 L -15.4066 8.01815 L -15.5233 7.9979 L -15.6397 7.97752 L -15.7559 7.95701 L -15.8718 7.93637 L -15.9875 7.9156 L -16.103 7.89471 L -16.2181 7.87371 L -16.3331 7.85259 L -16.4478 7.83135 L -16.5623 7.81001 L -16.6766 7.78855 L -16.7906 7.76699 L -16.83 7.68129 L -16.8689 7.59539 L -16.9074 7.50928 L -16.9455 7.42299 L -16.9831 7.3365 L -17.0203 7.24982 L -17.057 7.16295 L -17.0933 7.0759 L -17.1292 6.98866 L -17.1646 6.90124 L -17.1995 6.81364 L -17.2341 6.72586 L -17.2681 6.63791 L -17.3017 6.54979 L -17.3349 6.4615 L -17.4327 6.19287 L -17.464 6.10391 L -17.4949 6.0148 L -17.5254 5.92553 L -17.5553 5.8361 L -17.5849 5.74652 L -17.6139 5.6568 L -17.6425 5.56692 L -17.6707 5.4769 L -17.6984 5.38674 L -17.7256 5.29644 L -17.7524 5.206 L -17.7787 5.11543 L -17.8046 5.02472 L -17.8299 4.93389 L -17.8549 4.84292 L -17.7814 4.75311 L -17.7076 4.66323 L -17.6337 4.57329 L -17.5594 4.48328 L -17.4849 4.39321 L -17.4102 4.30308 L -17.3352 4.21288 L -17.2599 4.12261 L -17.1844 4.03228 L -17.1086 3.94189 L -17.0325 3.85143 L -16.9561 3.76091 L -16.8794 3.67032 L -16.8025 3.57967 L -16.7252 3.48895 L -16.6476 3.39817 L -16.5697 3.30733 L -16.4915 3.21642 L -16.413 3.12545 L -16.3342 3.03442 L -16.255 2.94333 L -16.1755 2.85217 L -16.1755 2.85217 L -16.2814 2.79371 L -16.3869 2.73519 L -16.4922 2.67662 L -16.5971 2.61799 L -16.7016 2.55932 L -16.8059 2.50059 L -16.9098 2.44181 L -17.0135 2.383 L -17.1168 2.32413 L -17.2198 2.26523 L -17.3226 2.20629 L -17.425 2.14732 L -17.5272 2.0883 L -17.629 2.02926 L -17.7306 1.97018 L -17.832 1.91107 L -17.933 1.85193 L -18.0338 1.79277 L -18.1344 1.73358 L -18.2347 1.67436 L -18.3347 1.61513 L -18.4345 1.55587 L -18.4422 1.46186 L -18.4494 1.36782 L -18.4561 1.27374 L -18.4624 1.17963 L -18.4681 1.08549 L -18.4734 0.991322 L -18.4782 0.897127 L -18.4826 0.802909 L -18.4864 0.708669 L -18.4898 0.614412 L -18.4927 0.520138 L -18.4951 0.425851 L -18.497 0.331552 L -18.4985 0.237245 L -18.4994 0.142932 L -18.4994 -0.142932 L -18.4985 -0.237245 L -18.497 -0.331552 L -18.4951 -0.425851 L -18.4927 -0.520138 L -18.4898 -0.614412 L -18.4864 -0.708669 L -18.4826 -0.802909 L -18.4782 -0.897127 L -18.4734 -0.991322 L -18.4681 -1.08549 L -18.4624 -1.17963 L -18.4561 -1.27374 L -18.4494 -1.36782 L -18.4422 -1.46186 L -18.4345 -1.55587 L -18.3347 -1.61513 L -18.2347 -1.67436 L -18.1344 -1.73358 L -18.0338 -1.79277 L -17.933 -1.85193 L -17.832 -1.91107 L -17.7306 -1.97018 L -17.629 -2.02926 L -17.5272 -2.0883 L -17.425 -2.14732 L -17.3226 -2.20629 L -17.2198 -2.26523 L -17.1168 -2.32413 L -17.0135 -2.383 L -16.9098 -2.44181 L -16.8059 -2.50059 L -16.7016 -2.55932 L -16.5971 -2.61799 L -16.4922 -2.67662 L -16.3869 -2.73519 L -16.2814 -2.79371 L -16.1755 -2.85217 L -16.1755 -2.85217 L -16.255 -2.94333 L -16.3342 -3.03442 L -16.413 -3.12545 L -16.4915 -3.21642 L -16.5697 -3.30733 L -16.6476 -3.39817 L -16.7252 -3.48895 L -16.8025 -3.57967 L -16.8794 -3.67032 L -16.9561 -3.76091 L -17.0325 -3.85143 L -17.1086 -3.94189 L -17.1844 -4.03228 L -17.2599 -4.12261 L -17.3352 -4.21288 L -17.4102 -4.30308 L -17.4849 -4.39321 L -17.5594 -4.48328 L -17.6337 -4.57329 L -17.7076 -4.66323 L -17.7814 -4.75311 L -17.8549 -4.84292 L -17.8299 -4.93389 L -17.8046 -5.02472 L -17.7787 -5.11543 L -17.7524 -5.206 L -17.7256 -5.29644 L -17.6984 -5.38674 L -17.6707 -5.4769 L -17.6425 -5.56692 L -17.6139 -5.6568 L -17.5849 -5.74652 L -17.5553 -5.8361 L -17.5254 -5.92553 L -17.4949 -6.0148 L -17.464 -6.10391 L -17.4327 -6.19287 L -17.3349 -6.4615 L -17.3017 -6.54979 L -17.2681 -6.63791 L -17.2341 -6.72586 L -17.1995 -6.81364 L -17.1646 -6.90124 L -17.1292 -6.98866 L -17.0933 -7.0759 L -17.057 -7.16295 L -17.0203 -7.24982 L -16.9831 -7.3365 L -16.9455 -7.42299 L -16.9074 -7.50928 L -16.8689 -7.59539 L -16.83 -7.68129 L -16.7906 -7.76699 L -16.6766 -7.78855 L -16.5623 -7.81001 L -16.4478 -7.83135 L -16.3331 -7.85259 L -16.2181 -7.87371 L -16.103 -7.89471 L -15.9875 -7.9156 L -15.8718 -7.93637 L -15.7559 -7.95701 L -15.6397 -7.97752 L -15.5233 -7.9979 L -15.4066 -8.01815 L -15.2896 -8.03826 L -15.1724 -8.05823 L -15.0549 -8.07806 L -14.9371 -8.09774 L -14.8191 -8.11727 L -14.7007 -8.13664 L -14.5821 -8.15585 L -14.4632 -8.1749 L -14.344 -8.19379 L -14.2245 -8.2125 L -14.2245 -8.2125 L -14.268 -8.32536 L -14.3113 -8.43804 L -14.3542 -8.55055 L -14.3969 -8.66289 L -14.4393 -8.77506 L -14.4814 -8.88706 L -14.5233 -8.99889 L -14.5648 -9.11057 L -14.6062 -9.22208 L -14.6472 -9.33342 L -14.688 -9.44461 L -14.7286 -9.55564 L -14.7689 -9.66651 L -14.809 -9.77723 L -14.8489 -9.8878 L -14.8885 -9.99821 L -14.9279 -10.1085 L -14.9671 -10.2186 L -15.0061 -10.3286 L -15.0448 -10.4384 L -15.0834 -10.548 L -15.1217 -10.6576 L -15.0672 -10.7345 L -15.0123 -10.8112 L -14.9569 -10.8876 L -14.9012 -10.9637 L -14.8451 -11.0395 L -14.7887 -11.1151 L -14.7318 -11.1903 L -14.6746 -11.2653 L -14.6169 -11.34 L -14.5589 -11.4143 L -14.5006 -11.4884 L -14.4418 -11.5622 L -14.3827 -11.6357 L -14.3232 -11.7089 L -14.2633 -11.7817 L -14.0795 -12.0007 L -14.0182 -12.0723 L -13.9564 -12.1436 L -13.8943 -12.2146 L -13.8319 -12.2853 L -13.7691 -12.3557 L -13.7059 -12.4257 L -13.6424 -12.4954 L -13.5785 -12.5648 L -13.5143 -12.6339 L -13.4497 -12.7026 L -13.3847 -12.771 L -13.3194 -12.8391 L -13.2538 -12.9068 L -13.1878 -12.9742 L -13.1215 -13.0413 L -13.007 -13.0226 L -12.8923 -13.0036 L -12.7774 -12.9845 L -12.6623 -12.9653 L -12.5471 -12.9458 L -12.4317 -12.9261 L -12.3161 -12.9063 L -12.2003 -12.8862 L -12.0843 -12.866 L -11.9681 -12.8455 L -11.8517 -12.8248 L -11.7351 -12.804 L -11.6183 -12.7829 L -11.5013 -12.7615 L -11.3841 -12.74 L -11.2667 -12.7182 L -11.1491 -12.6962 L -11.0313 -12.6739 L -10.9132 -12.6514 L -10.795 -12.6286 L -10.6765 -12.6056 L -10.5578 -12.5823 L -10.5578 -12.5823 L -10.5601 -12.7032 L -10.5622 -12.8239 L -10.5641 -12.9443 L -10.5658 -13.0645 L -10.5673 -13.1844 L -10.5685 -13.304 L -10.5696 -13.4234 L -10.5705 -13.5426 L -10.5712 -13.6615 L -10.5717 -13.7802 L -10.572 -13.8986 L -10.5721 -14.0168 L -10.5721 -14.1348 L -10.5719 -14.2526 L -10.5715 -14.3701 L -10.571 -14.4874 L -10.5703 -14.6045 L -10.5695 -14.7214 L -10.5685 -14.838 L -10.5674 -14.9545 L -10.5661 -15.0707 L -10.5646 -15.1868 L -10.4871 -15.2404 L -10.4092 -15.2937 L -10.3311 -15.3466 L -10.2528 -15.3991 L -10.1741 -15.4511 L -10.0952 -15.5028 L -10.0161 -15.5541 L -9.93662 -15.6049 L -9.85694 -15.6554 L -9.77699 -15.7054 L -9.6968 -15.7551 L -9.61635 -15.8043 L -9.53565 -15.8531 L -9.4547 -15.9015 L -9.37351 -15.9495 L -9.12594 -16.0925 L -9.04378 -16.1388 L -8.96138 -16.1847 L -8.87875 -16.2302 L -8.79589 -16.2752 L -8.7128 -16.3198 L -8.62949 -16.364 L -8.54594 -16.4078 L -8.46218 -16.4512 L -8.3782 -16.4941 L -8.294 -16.5366 L -8.20958 -16.5787 L -8.12496 -16.6203 L -8.04011 -16.6615 L -7.95507 -16.7023 L -7.86981 -16.7426 L -7.7686 -16.6859 L -7.66728 -16.6289 L -7.56586 -16.5716 L -7.46433 -16.5141 L -7.3627 -16.4564 L -7.26095 -16.3985 L -7.1591 -16.3403 L -7.05714 -16.2818 L -6.95506 -16.2231 L -6.85287 -16.1642 L -6.75058 -16.1049 L -6.64816 -16.0454 L -6.54564 -15.9856 L -6.443 -15.9256 L -6.34024 -15.8653 L -6.23737 -15.8046 L -6.13439 -15.7437 L -6.03128 -15.6825 L -5.92806 -15.6209 L -5.82472 -15.5591 L -5.72126 -15.4969 L -5.61768 -15.4345 L -5.61768 -15.4345 L -5.5785 -15.5489 L -5.5392 -15.663 L -5.49979 -15.7768 L -5.46027 -15.8903 L -5.42064 -16.0035 L -5.38091 -16.1164 L -5.34108 -16.2289 L -5.30115 -16.3412 L -5.26113 -16.4532 L -5.22101 -16.5649 L -5.18081 -16.6763 L -5.14051 -16.7874 L -5.10014 -16.8983 L -5.05968 -17.0088 L -5.01914 -17.1192 L -4.97853 -17.2292 L -4.93784 -17.339 L -4.89708 -17.4485 L -4.85624 -17.5578 L -4.81534 -17.6669 L -4.77437 -17.7757 L -4.73334 -17.8842 L -4.6421 -17.9081 L -4.55074 -17.9316 L -4.45926 -17.9545 L -4.36767 -17.977 L -4.27596 -17.9991 L -4.18414 -18.0206 L -4.09221 -18.0417 L -4.00017 -18.0624 L -3.90804 -18.0825 L -3.8158 -18.1022 L -3.72346 -18.1214 L -3.63102 -18.1402 L -3.53849 -18.1584 L -3.44587 -18.1762 L -3.35316 -18.1936 L -3.07163 -18.2432 L -2.97859 -18.2586 L -2.88546 -18.2736 L -2.79226 -18.2881 L -2.69899 -18.3021 L -2.60564 -18.3156 L -2.51223 -18.3286 L -2.41875 -18.3412 L -2.32521 -18.3533 L -2.23161 -18.3649 L -2.13796 -18.376 L -2.04424 -18.3867 L -1.95048 -18.3969 L -1.85666 -18.4066 L -1.76279 -18.4158 L -1.66888 -18.4246 L -1.59319 -18.3366 L -1.51749 -18.2484 L -1.44176 -18.1599 L -1.36601 -18.0712 L -1.29024 -17.9822 L -1.21445 -17.8929 L -1.13865 -17.8034 L -1.06282 -17.7136 L -0.986984 -17.6235 L -0.911128 -17.5332 L -0.835258 -17.4425 L -0.759373 -17.3516 L -0.683475 -17.2603 L -0.607565 -17.1688 L -0.531645 -17.077 L -0.455714 -16.9848 L -0.379775 -16.8923 L -0.303829 -16.7995 L -0.227877 -16.7064 L -0.151921 -16.6129 L -0.0759612 -16.5191 L 0 -16.425 L -6.03445e-15 -16.425 L 0.0759612 -16.5191 L 0.151921 -16.6129 L 0.227877 -16.7064 L 0.303829 -16.7995 L 0.379775 -16.8923 L 0.455714 -16.9848 L 0.531645 -17.077 L 0.607565 -17.1688 L 0.683475 -17.2603 L 0.759373 -17.3516 L 0.835258 -17.4425 L 0.911128 -17.5332 L 0.986984 -17.6235 L 1.06282 -17.7136 L 1.13865 -17.8034 L 1.21445 -17.8929 L 1.29024 -17.9822 L 1.36601 -18.0712 L 1.44176 -18.1599 L 1.51749 -18.2484 L 1.59319 -18.3366 L 1.66888 -18.4246 L 1.76279 -18.4158 L 1.85666 -18.4066 L 1.95048 -18.3969 L 2.04424 -18.3867 L 2.13796 -18.376 L 2.23161 -18.3649 L 2.32521 -18.3533 L 2.41875 -18.3412 L 2.51223 -18.3286 L 2.60564 -18.3156 L 2.69899 -18.3021 L 2.79226 -18.2881 L 2.88546 -18.2736 L 2.97859 -18.2586 L 3.07163 -18.2432 L 3.35316 -18.1936 L 3.44587 -18.1762 L 3.53849 -18.1584 L 3.63102 -18.1402 L 3.72346 -18.1214 L 3.8158 -18.1022 L 3.90804 -18.0825 L 4.00017 -18.0624 L 4.09221 -18.0417 L 4.18414 -18.0206 L 4.27596 -17.9991 L 4.36767 -17.977 L 4.45926 -17.9545 L 4.55074 -17.9316 L 4.6421 -17.9081 L 4.73334 -17.8842 L 4.77437 -17.7757 L 4.81534 -17.6669 L 4.85624 -17.5578 L 4.89708 -17.4485 L 4.93784 -17.339 L 4.97853 -17.2292 L 5.01914 -17.1192 L 5.05968 -17.0088 L 5.10014 -16.8983 L 5.14051 -16.7874 L 5.18081 -16.6763 L 5.22101 -16.5649 L 5.26113 -16.4532 L 5.30115 -16.3412 L 5.34108 -16.2289 L 5.38091 -16.1164 L 5.42064 -16.0035 L 5.46027 -15.8903 L 5.49979 -15.7768 L 5.5392 -15.663 L 5.5785 -15.5489 L 5.61768 -15.4345 L 5.61768 -15.4345 L 5.72126 -15.4969 L 5.82472 -15.5591 L 5.92806 -15.6209 L 6.03128 -15.6825 L 6.13439 -15.7437 L 6.23737 -15.8046 L 6.34024 -15.8653 L 6.443 -15.9256 L 6.54564 -15.9856 L 6.64816 -16.0454 L 6.75058 -16.1049 L 6.85287 -16.1642 L 6.95506 -16.2231 L 7.05714 -16.2818 L 7.1591 -16.3403 L 7.26095 -16.3985 L 7.3627 -16.4564 L 7.46433 -16.5141 L 7.56586 -16.5716 L 7.66728 -16.6289 L 7.7686 -16.6859 L 7.86981 -16.7426 L 7.95507 -16.7023 L 8.04011 -16.6615 L 8.12496 -16.6203 L 8.20958 -16.5787 L 8.294 -16.5366 L 8.3782 -16.4941 L 8.46218 -16.4512 L 8.54594 -16.4078 L 8.62949 -16.364 L 8.7128 -16.3198 L 8.79589 -16.2752 L 8.87875 -16.2302 L 8.96138 -16.1847 L 9.04378 -16.1388 L 9.12594 -16.0925 L 9.37351 -15.9495 L 9.4547 -15.9015 L 9.53565 -15.8531 L 9.61635 -15.8043 L 9.6968 -15.7551 L 9.77699 -15.7054 L 9.85694 -15.6554 L 9.93662 -15.6049 L 10.0161 -15.5541 L 10.0952 -15.5028 L 10.1741 -15.4511 L 10.2528 -15.3991 L 10.3311 -15.3466 L 10.4092 -15.2937 L 10.4871 -15.2404 L 10.5646 -15.1868 L 10.5661 -15.0707 L 10.5674 -14.9545 L 10.5685 -14.838 L 10.5695 -14.7214 L 10.5703 -14.6045 L 10.571 -14.4874 L 10.5715 -14.3701 L 10.5719 -14.2526 L 10.5721 -14.1348 L 10.5721 -14.0168 L 10.572 -13.8986 L 10.5717 -13.7802 L 10.5712 -13.6615 L 10.5705 -13.5426 L 10.5696 -13.4234 L 10.5685 -13.304 L 10.5673 -13.1844 L 10.5658 -13.0645 L 10.5641 -12.9443 L 10.5622 -12.8239 L 10.5601 -12.7032 L 10.5578 -12.5823 L 10.5578 -12.5823 L 10.6765 -12.6056 L 10.795 -12.6286 L 10.9132 -12.6514 L 11.0313 -12.6739 L 11.1491 -12.6962 L 11.2667 -12.7182 L 11.3841 -12.74 L 11.5013 -12.7615 L 11.6183 -12.7829 L 11.7351 -12.804 L 11.8517 -12.8248 L 11.9681 -12.8455 L 12.0843 -12.866 L 12.2003 -12.8862 L 12.3161 -12.9063 L 12.4317 -12.9261 L 12.5471 -12.9458 L 12.6623 -12.9653 L 12.7774 -12.9845 L 12.8923 -13.0036 L 13.007 -13.0226 L 13.1215 -13.0413 L 13.1878 -12.9742 L 13.2538 -12.9068 L 13.3194 -12.8391 L 13.3847 -12.771 L 13.4497 -12.7026 L 13.5143 -12.6339 L 13.5785 -12.5648 L 13.6424 -12.4954 L 13.7059 -12.4257 L 13.7691 -12.3557 L 13.8319 -12.2853 L 13.8943 -12.2146 L 13.9564 -12.1436 L 14.0182 -12.0723 L 14.0795 -12.0007 L 14.2633 -11.7817 L 14.3232 -11.7089 L 14.3827 -11.6357 L 14.4418 -11.5622 L 14.5006 -11.4884 L 14.5589 -11.4143 L 14.6169 -11.34 L 14.6746 -11.2653 L 14.7318 -11.1903 L 14.7887 -11.1151 L 14.8451 -11.0395 L 14.9012 -10.9637 L 14.9569 -10.8876 L 15.0123 -10.8112 L 15.0672 -10.7345 L 15.1217 -10.6576 L 15.0834 -10.548 L 15.0448 -10.4384 L 15.0061 -10.3286 L 14.9671 -10.2186 L 14.9279 -10.1085 L 14.8885 -9.99821 L 14.8489 -9.8878 L 14.809 -9.77723 L 14.7689 -9.66651 L 14.7286 -9.55564 L 14.688 -9.44461 L 14.6472 -9.33342 L 14.6062 -9.22208 L 14.5648 -9.11057 L 14.5233 -8.99889 L 14.4814 -8.88706 L 14.4393 -8.77506 L 14.3969 -8.66289 L 14.3542 -8.55055 L 14.3113 -8.43804 L 14.268 -8.32536 L 14.2245 -8.2125 L 14.2245 -8.2125 L 14.344 -8.19379 L 14.4632 -8.1749 L 14.5821 -8.15585 L 14.7007 -8.13664 L 14.8191 -8.11727 L 14.9371 -8.09774 L 15.0549 -8.07806 L 15.1724 -8.05823 L 15.2896 -8.03826 L 15.4066 -8.01815 L 15.5233 -7.9979 L 15.6397 -7.97752 L 15.7559 -7.95701 L 15.8718 -7.93637 L 15.9875 -7.9156 L 16.103 -7.89471 L 16.2181 -7.87371 L 16.3331 -7.85259 L 16.4478 -7.83135 L 16.5623 -7.81001 L 16.6766 -7.78855 L 16.7906 -7.76699 L 16.83 -7.68129 L 16.8689 -7.59539 L 16.9074 -7.50928 L 16.9455 -7.42299 L 16.9831 -7.3365 L 17.0203 -7.24982 L 17.057 -7.16295 L 17.0933 -7.0759 L 17.1292 -6.98866 L 17.1646 -6.90124 L 17.1995 -6.81364 L 17.2341 -6.72586 L 17.2681 -6.63791 L 17.3017 -6.54979 L 17.3349 -6.4615 L 17.4327 -6.19287 L 17.464 -6.10391 L 17.4949 -6.0148 L 17.5254 -5.92553 L 17.5553 -5.8361 L 17.5849 -5.74652 L 17.6139 -5.6568 L 17.6425 -5.56692 L 17.6707 -5.4769 L 17.6984 -5.38674 L 17.7256 -5.29644 L 17.7524 -5.206 L 17.7787 -5.11543 L 17.8046 -5.02472 L 17.8299 -4.93389 L 17.8549 -4.84292 L 17.7814 -4.75311 L 17.7076 -4.66323 L 17.6337 -4.57329 L 17.5594 -4.48328 L 17.4849 -4.39321 L 17.4102 -4.30308 L 17.3352 -4.21288 L 17.2599 -4.12261 L 17.1844 -4.03228 L 17.1086 -3.94189 L 17.0325 -3.85143 L 16.9561 -3.76091 L 16.8794 -3.67032 L 16.8025 -3.57967 L 16.7252 -3.48895 L 16.6476 -3.39817 L 16.5697 -3.30733 L 16.4915 -3.21642 L 16.413 -3.12545 L 16.3342 -3.03442 L 16.255 -2.94333 L 16.1755 -2.85217 L 16.1755 -2.85217 L 16.2814 -2.79371 L 16.3869 -2.73519 L 16.4922 -2.67662 L 16.5971 -2.61799 L 16.7016 -2.55932 L 16.8059 -2.50059 L 16.9098 -2.44181 L 17.0135 -2.383 L 17.1168 -2.32413 L 17.2198 -2.26523 L 17.3226 -2.20629 L 17.425 -2.14732 L 17.5272 -2.0883 L 17.629 -2.02926 L 17.7306 -1.97018 L 17.832 -1.91107 L 17.933 -1.85193 L 18.0338 -1.79277 L 18.1344 -1.73358 L 18.2347 -1.67436 L 18.3347 -1.61513 L 18.4345 -1.55587 L 18.4422 -1.46186 L 18.4494 -1.36782 L 18.4561 -1.27374 L 18.4624 -1.17963 L 18.4681 -1.08549 L 18.4734 -0.991322 L 18.4782 -0.897127 L 18.4826 -0.802909 L 18.4864 -0.708669 L 18.4898 -0.614412 L 18.4927 -0.520138 L 18.4951 -0.425851 L 18.497 -0.331552 L 18.4985 -0.237245 L 18.4994 -0.142932Z"
id="path1" />
</g>
</svg>
