<?xml version="1.0" encoding="UTF-8" standalone="no"?>
<svg version="1.1">
<g
style="fill:none;stroke:#000000;stroke-opacity:1;stroke-width:0.1">
<path d="M 18.7491 0.186564 L 18.7479 0.280875 L 18.7462 0.375178 L 18.7441 0.469472 L 18.7415 0.563755 L 18.7384 0.658023 L 18.7349 0.752274 L 18.7309 0.846506 L 18.7264 0.940717 L 18.7214 1.0349 L 18.716 1.12907 L 18.7101 1.2232 L 18.7037 1.3173 L 18.6968 1.41137 L 18.6895 1.5054 L 18.6817 1.59939 L 18.5818 1.65865 L 18.4817 1.71788 L 18.3813 1.77708 L 18.2807 1.83627 L 18.1799 1.89543 L 18.0787 1.95456 L 17.9773 2.01366 L 17.8757 2.07273 L 17.7738 2.13177 L 17.6715 2.19077 L 17.569 2.24974 L 17.4663 2.30868 L 17.3632 2.36758 L 17.2598 2.42643 L 17.1562 2.48524 L 17.0522 2.54401 L 16.9479 2.60274 L 16.8433 2.66141 L 16.7384 2.72004 L 16.6331 2.77861 L 16.5276 2.83712 L 16.4217 2.89558 L 16.4217 2.89558 L 16.5012 2.98674 L 16.5804 3.07783 L 16.6592 3.16887 L 16.7378 3.25984 L 16.816 3.35075 L 16.8939 3.4416 L 16.9715 3.53238 L 17.0488 3.62311 L 17.1258 3.71377 L 17.2025 3.80436 L 17.279 3.8949 L 17.3551 3.98537 L 17.431 4.07578 L 17.5066 4.16612 L 17.5819 4.2564 L 17.657 4.34661 L 17.7318 4.43676 L 17.8063 4.52685 L 17.8806 4.61688 L 17.9547 4.70684 L 18.0285 4.79673 L 18.102 4.88657 L 18.0772 4.97756 L 18.052 5.06843 L 18.0262 5.15918 L 18.0001 5.24979 L 17.9734 5.34027 L 17.9463 5.43061 L 17.9188 5.52082 L 17.8908 5.61088 L 17.8623 5.70081 L 17.8334 5.79059 L 17.8041 5.88022 L 17.7743 5.96971 L 17.744 6.05904 L 17.7133 6.14822 L 17.6822 6.23725 L 17.5546 6.58787 L 17.5212 6.67609 L 17.4874 6.76415 L 17.4531 6.85203 L 17.4185 6.93973 L 17.3833 7.02727 L 17.3478 7.11462 L 17.3117 7.20179 L 17.2753 7.28879 L 17.2384 7.37559 L 17.2011 7.46221 L 17.1633 7.54865 L 17.1252 7.63489 L 17.0865 7.72094 L 17.0475 7.80679 L 17.008 7.89244 L 16.8939 7.91397 L 16.7796 7.93539 L 16.665 7.9567 L 16.5502 7.97791 L 16.4352 7.999 L 16.32 8.01997 L 16.2045 8.04083 L 16.0887 8.06157 L 15.9728 8.08219 L 15.8565 8.10268 L 15.74 8.12304 L 15.6233 8.14326 L 15.5063 8.16335 L 15.389 8.18331 L 15.2715 8.20312 L 15.1537 8.22278 L 15.0356 8.2423 L 14.9173 8.26166 L 14.7986 8.28086 L 14.6797 8.29991 L 14.5605 8.31879 L 14.441 8.3375 L 14.441 8.3375 L 14.4845 8.45036 L 14.5278 8.56304 L 14.5708 8.67556 L 14.6134 8.78791 L 14.6559 8.90009 L 14.698 9.0121 L 14.7399 9.12396 L 14.7815 9.23565 L 14.8228 9.34718 L 14.8639 9.45855 L 14.9048 9.56976 L 14.9454 9.68082 L 14.9858 9.79172 L 15.0259 9.90247 L 15.0658 10.0131 L 15.1055 10.1235 L 15.1449 10.2338 L 15.1842 10.344 L 15.2232 10.454 L 15.262 10.5638 L 15.3006 10.6736 L 15.3391 10.7831 L 15.2846 10.8602 L 15.2298 10.9369 L 15.1746 11.0134 L 15.119 11.0896 L 15.063 11.1655 L 15.0067 11.2411 L 14.9499 11.3165 L 14.8928 11.3915 L 14.8353 11.4663 L 14.7775 11.5408 L 14.7192 11.615 L 14.6606 11.6889 L 14.6016 11.7625 L 14.5423 11.8358 L 14.4825 11.9088 L 14.2427 12.1946 L 14.1812 12.2661 L 14.1193 12.3373 L 14.0571 12.4081 L 13.9945 12.4787 L 13.9315 12.5489 L 13.8682 12.6188 L 13.8046 12.6884 L 13.7406 12.7577 L 13.6762 12.8267 L 13.6115 12.8953 L 13.5465 12.9636 L 13.4811 13.0316 L 13.4154 13.0992 L 13.3493 13.1666 L 13.2829 13.2335 L 13.1683 13.2147 L 13.0536 13.1958 L 12.9386 13.1766 L 12.8235 13.1573 L 12.7082 13.1378 L 12.5928 13.1181 L 12.4771 13.0982 L 12.3612 13.0781 L 12.2452 13.0578 L 12.129 13.0373 L 12.0126 13.0166 L 11.8959 12.9956 L 11.7791 12.9745 L 11.6621 12.9532 L 11.5449 12.9316 L 11.4275 12.9098 L 11.3098 12.8877 L 11.192 12.8654 L 11.0739 12.8429 L 10.9557 12.8201 L 10.8372 12.7971 L 10.7185 12.7738 L 10.7185 12.7738 L 10.7208 12.8947 L 10.7229 13.0154 L 10.7248 13.1359 L 10.7265 13.256 L 10.728 13.3759 L 10.7293 13.4956 L 10.7304 13.615 L 10.7313 13.7342 L 10.732 13.8532 L 10.7325 13.9719 L 10.7329 14.0904 L 10.733 14.2086 L 10.733 14.3266 L 10.7329 14.4444 L 10.7326 14.562 L 10.7321 14.6794 L 10.7314 14.7965 L 10.7306 14.9134 L 10.7297 15.0302 L 10.7286 15.1467 L 10.7273 15.263 L 10.7259 15.3791 L 10.6484 15.4329 L 10.5707 15.4862 L 10.4926 15.5392 L 10.4143 15.5918 L 10.3358 15.644 L 10.257 15.6958 L 10.1779 15.7472 L 10.0985 15.7982 L 10.0189 15.8488 L 9.93909 15.899 L 9.85899 15.9488 L 9.77864 15.9981 L 9.69804 16.0471 L 9.61719 16.0957 L 9.5361 16.1439 L 9.21297 16.3305 L 9.1307 16.3766 L 9.04821 16.4223 L 8.96549 16.4676 L 8.88254 16.5125 L 8.79936 16.557 L 8.71596 16.601 L 8.63234 16.6447 L 8.54851 16.6879 L 8.46446 16.7307 L 8.38019 16.773 L 8.29571 16.815 L 8.21102 16.8565 L 8.12612 16.8976 L 8.04102 16.9383 L 7.95571 16.9785 L 7.85447 16.9216 L 7.75312 16.8646 L 7.65167 16.8073 L 7.55011 16.7497 L 7.44845 16.6919 L 7.34668 16.6339 L 7.2448 16.5757 L 7.14281 16.5172 L 7.04071 16.4584 L 6.9385 16.3994 L 6.83619 16.3401 L 6.73376 16.2806 L 6.63122 16.2208 L 6.52856 16.1607 L 6.42579 16.1003 L 6.32291 16.0396 L 6.21991 15.9787 L 6.1168 15.9174 L 6.01357 15.8559 L 5.91023 15.794 L 5.80677 15.7319 L 5.70319 15.6694 L 5.70319 15.6694 L 5.66401 15.7838 L 5.62471 15.898 L 5.5853 16.0118 L 5.54579 16.1253 L 5.50617 16.2385 L 5.46645 16.3514 L 5.42662 16.464 L 5.3867 16.5763 L 5.34669 16.6883 L 5.30659 16.8 L 5.2664 16.9115 L 5.22612 17.0226 L 5.18576 17.1336 L 5.14532 17.2442 L 5.1048 17.3546 L 5.0642 17.4647 L 5.02353 17.5745 L 4.98279 17.6841 L 4.94197 17.7935 L 4.90109 17.9026 L 4.86014 18.0115 L 4.81913 18.1201 L 4.72792 18.1441 L 4.63659 18.1677 L 4.54514 18.1908 L 4.45358 18.2134 L 4.36191 18.2356 L 4.27012 18.2573 L 4.17823 18.2785 L 4.08623 18.2993 L 3.99413 18.3196 L 3.90192 18.3395 L 3.80962 18.3589 L 3.71722 18.3778 L 3.62473 18.3963 L 3.53215 18.4143 L 3.43947 18.4318 L 3.07201 18.4966 L 2.97893 18.5118 L 2.88577 18.5266 L 2.79254 18.5409 L 2.69924 18.5547 L 2.60587 18.568 L 2.51244 18.5809 L 2.41894 18.5933 L 2.32538 18.6052 L 2.23176 18.6167 L 2.13808 18.6277 L 2.04435 18.6382 L 1.95057 18.6483 L 1.85674 18.6578 L 1.76286 18.6669 L 1.66894 18.6756 L 1.59325 18.5875 L 1.51753 18.4992 L 1.4418 18.4107 L 1.36605 18.3219 L 1.29027 18.2328 L 1.21448 18.1435 L 1.13867 18.0539 L 1.06284 17.964 L 0.986999 17.8739 L 0.91114 17.7835 L 0.835266 17.6928 L 0.75938 17.6018 L 0.68348 17.5105 L 0.607569 17.419 L 0.531647 17.3271 L 0.455716 17.2349 L 0.379776 17.1424 L 0.30383 17.0496 L 0.227878 16.9564 L 0.151921 16.863 L 0.0759612 16.7691 L 1.77636e-15 16.675 L 2.65742e-16 16.675 L -0.0759612 16.7691 L -0.151921 16.863 L -0.227878 16.9564 L -0.30383 17.0496 L -0.379776 17.1424 L -0.455716 17.2349 L -0.531647 17.3271 L -0.607569 17.419 L -0.68348 17.5105 L -0.75938 17.6018 L -0.835266 17.6928 L -0.91114 17.7835 L -0.986999 17.8739 L -1.06284 17.964 L -1.13867 18.0539 L -1.21448 18.1435 L -1.29027 18.2328 L -1.36605 18.3219 L -1.4418 18.4107 L -1.51753 18.4992 L -1.59325 18.5875 L -1.66894 18.6756 L -1.76286 18.6669 L -1.85674 18.6578 L -1.95057 18.6483 L -2.04435 18.6382 L -2.13808 18.6277 L -2.23176 18.6167 L -2.32538 18.6052 L -2.41894 18.5933 L -2.51244 18.5809 L -2.60587 18.568 L -2.69924 18.5547 L -2.79254 18.5409 L -2.88577 18.5266 L -2.97893 18.5118 L -3.07201 18.4966 L -3.43947 18.4318 L -3.53215 18.4143 L -3.62473 18.3963 L -3.71722 18.3778 L -3.80962 18.3589 L -3.90192 18.3395 L -3.99413 18.3196 L -4.08623 18.2993 L -4.17823 18.2785 L -4.27012 18.2573 L -4.36191 18.2356 L -4.45358 18.2134 L -4.54514 18.1908 L -4.63659 18.1677 L -4.72792 18.1441 L -4.81913 18.1201 L -4.86014 18.0115 L -4.90109 17.9026 L -4.94197 17.7935 L -4.98279 17.6841 L -5.02353 17.5745 L -5.0642 17.4647 L -5.1048 17.3546 L -5.14532 17.2442 L -5.18576 17.1336 L -5.22612 17.0226 L -5.2664 16.9115 L -5.30659 16.8 L -5.34669 16.6883 L -5.3867 16.5763 L -5.42662 16.464 L -5.46645 16.3514 L -5.50617 16.2385 L -5.54579 16.1253 L -5.5853 16.0118 L -5.62471 15.898 L -5.66401 15.7838 L -5.70319 15.6694 L -5.70319 15.6694 L -5.80677 15.7319 L -5.91023 15.794 L -6.01357 15.8559 L -6.1168 15.9174 L -6.21991 15.9787 L -6.32291 16.0396 L -6.42579 16.1003 L -6.52856 16.1607 L -6.63122 16.2208 L -6.73376 16.2806 L -6.83619 16.3401 L -6.9385 16.3994 L -7.04071 16.4584 L -7.14281 16.5172 L -7.2448 16.5757 L -7.34668 16.6339 L -7.44845 16.6919 L -7.55011 16.7497 L -7.65167 16.8073 L -7.75312 16.8646 L -7.85447 16.9216 L -7.95571 16.9785 L -8.04102 16.9383 L -8.12612 16.8976 L -8.21102 16.8565 L -8.29571 16.815 L -8.38019 16.773 L -8.46446 16.7307 L -8.54851 16.6879 L -8.63234 16.6447 L -8.71596 16.601 L -8.79936 16.557 L -8.88254 16.5125 L -8.96549 16.4676 L -9.04821 16.4223 L -9.1307 16.3766 L -9.21297 16.3305 L -9.5361 16.1439 L -9.61719 16.0957 L -9.69804 16.0471 L -9.77864 15.9981 L -9.85899 15.9488 L -9.93909 15.899 L -10.0189 15.8488 L -10.0985 15.7982 L -10.1779 15.7472 L -10.257 15.6958 L -10.3358 15.644 L -10.4143 15.5918 L -10.4926 15.5392 L -10.5707 15.4862 L -10.6484 15.4329 L -10.7259 15.3791 L -10.7273 15.263 L -10.7286 15.1467 L -10.7297 15.0302 L -10.7306 14.9134 L -10.7314 14.7965 L -10.7321 14.6794 L -10.7326 14.562 L -10.7329 14.4444 L -10.733 14.3266 L -10.733 14.2086 L -10.7329 14.0904 L -10.7325 13.9719 L -10.732 13.8532 L -10.7313 13.7342 L -10.7304 13.615 L -10.7293 13.4956 L -10.728 13.3759 L -10.7265 13.256 L -10.7248 13.1359 L -10.7229 13.0154 L -10.7208 12.8947 L -10.7185 12.7738 L -10.7185 12.7738 L -10.8372 12.7971 L -10.9557 12.8201 L -11.0739 12.8429 L -11.192 12.8654 L -11.3098 12.8877 L -11.4275 12.9098 L -11.5449 12.9316 L -11.6621 12.9532 L -11.7791 12.9745 L -11.8959 12.9956 L -12.0126 13.0166 L -12.129 13.0373 L -12.2452 13.0578 L -12.3612 13.0781 L -12.4771 13.0982 L -12.5928 13.1181 L -12.7082 13.1378 L -12.8235 13.1573 L -12.9386 13.1766 L -13.0536 13.1958 L -13.1683 13.2147 L -13.2829 13.2335 L -13.3493 13.1666 L -13.4154 13.0992 L -13.4811 13.0316 L -13.5465 12.9636 L -13.6115 12.8953 L -13.6762 12.8267 L -13.7406 12.7577 L -13.8046 12.6884 L -13.8682 12.6188 L -13.9315 12.5489 L -13.9945 12.4787 L -14.0571 12.4081 L -14.1193 12.3373 L -14.1812 12.2661 L -14.2427 12.1946 L -14.4825 11.9088 L -14.5423 11.8358 L -14.6016 11.7625 L -14.6606 11.6889 L -14.7192 11.615 L -14.7775 11.5408 L -14.8353 11.4663 L -14.8928 11.3915 L -14.9499 11.3165 L -15.0067 11.2411 L -15.063 11.1655 L -15.119 11.0896 L -15.1746 11.0134 L -15.2298 10.9369 L -15.2846 10.8602 L -15.3391 10.7831 L -15.3006 10.6736 L -15.262 10.5638 L -15.2232 10.454 L -15.1842 10.344 L -15.1449 10.2338 L -15.1055 10.1235 L -15.0658 10.0131 L -15.0259 9.90247 L -14.9858 9.79172 L -14.9454 9.68082 L -14.9048 9.56976 L -14.8639 9.45855 L -14.8228 9.34718 L -14.7815 9.23565 L -14.7399 9.12396 L -14.698 9.0121 L -14.6559 8.90009 L -14.6134 8.78791 L -14.5708 8.67556 L -14.5278 8.56304 L -14.4845 8.45036 L -14.441 8.3375 L -14.441 8.3375 L -14.5605 8.31879 L -14.6797 8.29991 L -14.7986 8.28086 L -14.9173 8.26166 L -15.0356 8.2423 L -15.1537 8.22278 L -15.2715 8.20312 L -15.389 8.18331 L -15.5063 8.16335 L -15.6233 8.14326 L -15.74 8.12304 L -15.8565 8.10268 L -15.9728 8.08219 L -16.0887 8.06157 L -16.2045 8.04083 L -16.32 8.01997 L -16.4352 7.999 L -16.5502 7.97791 L -16.665 7.9567 L -16.7796 7.93539 L -16.8939 7.91397 L -17.008 7.89244 L -17.0475 7.80679 L -17.0865 7.72094 L -17.1252 7.63489 L -17.1633 7.54865 L -17.2011 7.46221 L -17.2384 7.37559 L -17.2753 7.28879 L -17.3117 7.20179 L -17.3478 7.11462 L -17.3833 7.02727 L -17.4185 6.93973 L -17.4531 6.85203 L -17.4874 6.76415 L -17.5212 6.67609 L -17.5546 6.58787 L -17.6822 6.23725 L -17.7133 6.14822 L -17.744 6.05904 L -17.7743 5.96971 L -17.8041 5.88022 L -17.8334 5.79059 L -17.8623 5.70081 L -17.8908 5.61088 L -17.9188 5.52082 L -17.9463 5.43061 L -17.9734 5.34027 L -18.0001 5.24979 L -18.0262 5.15918 L -18.052 5.06843 L -18.0772 4.97756 L -18.102 4.88657 L -18.0285 4.79673 L -17.9547 4.70684 L -17.8806 4.61688 L -17.8063 4.52685 L -17.7318 4.43676 L -17.657 4.34661 L -17.5819 4.2564 L -17.5066 4.16612 L -17.431 4.07578 L -17.3551 3.98537 L -17.279 3.8949 L -17.2025 3.80436 L -17.1258 3.71377 L -17.0488 3.62311 L -16.9715 3.53238 L -16.8939 3.4416 L -16.816 3.35075 L -16.7378 3.25984 L -16.6592 3.16887 L -16.5804 3.07783 L -16.5012 2.98674 L -16.4217 2.89558 L -16.4217 2.89558 L -16.5276 2.83712 L -16.6331 2.77861 L -16.7384 2.72004 L -16.8433 2.66141 L -16.9479 2.60274 L -17.0522 2.54401 L -17.1562 2.48524 L -17.2598 2.42643 L -17.3632 2.36758 L -17.4663 2.30868 L -17.569 2.24974 L -17.6715 2.19077 L -17.7738 2.13177 L -17.8757 2.07273 L -17.9773 2.01366 L -18.0787 1.95456 L -18.1799 1.89543 L -18.2807 1.83627 L -18.3813 1.77708 L -18.4817 1.71788 L -18.5818 1.65865 L -18.6817 1.59939 L -18.6895 1.5054 L -18.6968 1.41137 L -18.7037 1.3173 L -18.7101 1.2232 L -18.716 1.12907 L -18.7214 1.0349 L -18.7264 0.940717 L -18.7309 0.846506 L -18.7349 0.752274 L -18.7384 0.658023 L -18.7415 0.563755 L -18.7441 0.469472 L -18.7462 0.375178 L -18.7479 0.280875 L -18.7491 0.186564 L -18.7491 -0.186564 L -18.7479 -0.280875 L -18.7462 -0.375178 L -18.7441 -0.469472 L -18.7415 -0.563755 L -18.7384 -0.658023 L -18.7349 -0.752274 L -18.7309 -0.846506 L -18.7264 -0.940717 L -18.7214 -1.0349 L -18.716 -1.12907 L -18.7101 -1.2232 L -18.7037 -1.3173 L -18.6968 -1.41137 L -18.6895 -1.5054 L -18.6817 -1.59939 L -18.5818 -1.65865 L -18.4817 -1.71788 L -18.3813 -1.77708 L -18.2807 -1.83627 L -18.1799 -1.89543 L -18.0787 -1.95456 L -17.9773 -2.01366 L -17.8757 -2.07273 L -17.7738 -2.13177 L -17.6715 -2.19077 L -17.569 -2.24974 L -17.4663 -2.30868 L -17.3632 -2.36758 L -17.2598 -2.42643 L -17.1562 -2.48524 L -17.0522 -2.54401 L -16.9479 -2.60274 L -16.8433 -2.66141 L -16.7384 -2.72004 L -16.6331 -2.77861 L -16.5276 -2.83712 L -16.4217 -2.89558 L -16.4217 -2.89558 L -16.5012 -2.98674 L -16.5804 -3.07783 L -16.6592 -3.16887 L -16.7378 -3.25984 L -16.816 -3.35075 L -16.8939 -3.4416 L -16.9715 -3.53238 L -17.0488 -3.62311 L -17.1258 -3.71377 L -17.2025 -3.80436 L -17.279 -3.8949 L -17.3551 -3.98537 L -17.431 -4.07578 L -17.5066 -4.16612 L -17.5819 -4.2564 L -17.657 -4.34661 L -17.7318 -4.43676 L -17.8063 -4.52685 L -17.8806 -4.61688 L -17.9547 -4.70684 L -18.0285 -4.79673 L -18.102 -4.88657 L -18.0772 -4.97756 L -18.052 -5.06843 L -18.0262 -5.15918 L -18.0001 -5.24979 L -17.9734 -5.34027 L -17.9463 -5.43061 L -17.9188 -5.52082 L -17.8908 -5.61088 L -17.8623 -5.70081 L -17.8334 -5.79059 L -17.8041 -5.88022 L -17.7743 -5.96971 L -17.744 -6.05904 L -17.7133 -6.14822 L -17.6822 -6.23725 L -17.5546 -6.58787 L -17.5212 -6.67609 L -17.4874 -6.76415 L -17.4531 -6.85203 L -17.4185 -6.93973 L -17.3833 -7.02727 L -17.3478 -7.11462 L -17.3117 -7.20179 L -17.2753 -7.28879 L -17.2384 -7.37559 L -17.2011 -7.46221 L -17.1633 -7.54865 L -17.1252 -7.63489 L -17.0865 -7.72094 L -17.0475 -7.80679 L -17.008 -7.89244 L -16.8939 -7.91397 L -16.7796 -7.93539 L -16.665 -7.9567 L -16.5502 -7.97791 L -16.4352 -7.999 L -16.32 -8.01997 L -16.2045 -8.04083 L -16.0887 -8.06157 L -15.9728 -8.08219 L -15.8565 -8.10268 L -15.74 -8.12304 L -15.6233 -8.14326 L -15.5063 -8.16335 L -15.389 -8.18331 L -15.2715 -8.20312 L -15.1537 -8.22278 L -15.0356 -8.2423 L -14.9173 -8.26166 L -14.7986 -8.28086 L -14.6797 -8.29991 L -14.5605 -8.31879 L -14.441 -8.3375 L -14.441 -8.3375 L -14.4845 -8.45036 L -14.5278 -8.56304 L -14.5708 -8.67556 L -14.6134 -8.78791 L -14.6559 -8.90009 L -14.698 -9.0121 L -14.7399 -9.12396 L -14.7815 -9.23565 L -14.8228 -9.34718 L -14.8639 -9.45855 L -14.9048 -9.56976 L -14.9454 -9.68082 L -14.9858 -9.79172 L -15.0259 -9.90247 L -15.0658 -10.0131 L -15.1055 -10.1235 L -15.1449 -10.2338 L -15.1842 -10.344 L -15.2232 -10.454 L -15.262 -10.5638 L -15.3006 -10.6736 L -15.3391 -10.7831 L -15.2846 -10.8602 L -15.2298 -10.9369 L -15.1746 -11.0134 L -15.119 -11.0896 L -15.063 -11.1655 L -15.0067 -11.2411 L -14.9499 -11.3165 L -14.8928 -11.3915 L -14.8353 -11.4663 L -14.7775 -11.5408 L -14.7192 -11.615 L -14.6606 -11.6889 L -14.6016 -11.7625 L -14.5423 -11.8358 L -14.4825 -11.9088 L -14.2427 -12.1946 L -14.1812 -12.2661 L -14.1193 -12.3373 L -14.0571 -12.4081 L -13.9945 -12.4787 L -13.9315 -12.5489 L -13.8682 -12.6188 L -13.8046 -12.6884 L -13.7406 -12.7577 L -13.6762 -12.8267 L -13.6115 -12.8953 L -13.5465 -12.9636 L -13.4811 -13.0316 L -13.4154 -13.0992 L -13.3493 -13.1666 L -13.2829 -13.2335 L -13.1683 -13.2147 L -13.0536 -13.1958 L -12.9386 -13.1766 L -12.8235 -13.1573 L -12.7082 -13.1378 L -12.5928 -13.1181 L -12.4771 -13.0982 L -12.3612 -13.0781 L -12.2452 -13.0578 L -12.129 -13.0373 L -12.0126 -13.0166 L -11.8959 -12.9956 L -11.7791 -12.9745 L -11.6621 -12.9532 L -11.5449 -12.9316 L -11.4275 -12.9098 L -11.3098 -12.8877 L -11.192 -12.8654 L -11.0739 -12.8429 L -10.9557 -12.8201 L -10.8372 -12.7971 L -10.7185 -12.7738 L -10.7185 -12.7738 L -10.7208 -12.8947 L -10.7229 -13.0154 L -10.7248 -13.1359 L -10.7265 -13.256 L -10.728 -13.3759 L -10.7293 -13.4956 L -10.7304 -13.615 L -10.7313 -13.7342 L -10.732 -13.8532 L -10.7325 -13.9719 L -10.7329 -14.0904 L -10.733 -14.2086 L -10.733 -14.3266 L -10.7329 -14.4444 L -10.7326 -14.562 L -10.7321 -14.6794 L -10.7314 -14.7965 L -10.7306 -14.9134 L -10.7297 -15.0302 L -10.7286 -15.1467 L -10.7273 -15.263 L -10.7259 -15.3791 L -10.6484 -15.4329 L -10.5707 -15.4862 L -10.4926 -15.5392 L -10.4143 -15.5918 L -10.3358 -15.644 L -10.257 -15.6958 L -10.1779 -15.7472 L -10.0985 -15.7982 L -10.0189 -15.8488 L -9.93909 -15.899 L -9.85899 -15.9488 L -9.77864 -15.9981 L -9.69804 -16.0471 L -9.61719 -16.0957 L -9.5361 -16.1439 L -9.21297 -16.3305 L -9.1307 -16.3766 L -9.04821 -16.4223 L -8.96549 -16.4676 L -8.88254 -16.5125 L -8.79936 -16.557 L -8.71596 -16.601 L -8.63234 -16.6447 L -8.54851 -16.6879 L -8.46446 -16.7307 L -8.38019 -16.773 L -8.29571 -16.815 L -8.21102 -16.8565 L -8.12612 -16.8976 L -8.04102 -16.9383 L -7.95571 -16.9785 L -7.85447 -16.9216 L -7.75312 -16.8646 L -7.65167 -16.8073 L -7.55011 -16.7497 L -7.44845 -16.6919 L -7.34668 -16.6339 L -7.2448 -16.5757 L -7.14281 -16.5172 L -7.04071 -16.4584 L -6.9385 -16.3994 L -6.83619 -16.3401 L -6.73376 -16.2806 L -6.63122 -16.2208 L -6.52856 -16.1607 L -6.42579 -16.1003 L -6.32291 -16.0396 L -6.21991 -15.9787 L -6.1168 -15.9174 L -6.01357 -15.8559 L -5.91023 -15.794 L -5.80677 -15.7319 L -5.70319 -15.6694 L -5.70319 -15.6694 L -5.66401 -15.7838 L -5.62471 -15.898 L -5.5853 -16.0118 L -5.54579 -16.1253 L -5.50617 -16.2385 L -5.46645 -16.3514 L -5.42662 -16.464 L -5.3867 -16.5763 L -5.34669 -16.6883 L -5.30659 -16.8 L -5.2664 -16.9115 L -5.22612 -17.0226 L -5.18576 -17.1336 L -5.14532 -17.2442 L -5.1048 -17.3546 L -5.0642 -17.4647 L -5.02353 -17.5745 L -4.98279 -17.6841 L -4.94197 -17.7935 L -4.90109 -17.9026 L -4.86014 -18.0115 L -4.81913 -18.1201 L -4.72792 -18.1441 L -4.63659 -18.1677 L -4.54514 -18.1908 L -4.45358 -18.2134 L -4.36191 -18.2356 L -4.27012 -18.2573 L -4.17823 -18.2785 L -4.08623 -18.2993 L -3.99413 -18.3196 L -3.90192 -18.3395 L -3.80962 -18.3589 L -3.71722 -18.3778 L -3.62473 -18.3963 L -3.53215 -18.4143 L -3.43947 -18.4318 L -3.07201 -18.4966 L -2.97893 -18.5118 L -2.88577 -18.5266 L -2.79254 -18.5409 L -2.69924 -18.5547 L -2.60587 -18.568 L -2.51244 -18.5809 L -2.41894 -18.5933 L -2.32538 -18.6052 L -2.23176 -18.6167 L -2.13808 -18.6277 L -2.04435 -18.6382 L -1.95057 -18.6483 L -1.85674 -18.6578 L -1.76286 -18.6669 L -1.66894 -18.6756 L -1.59325 -18.5875 L -1.51753 -18.4992 L -1.4418 -18.4107 L -1.36605 -18.3219 L -1.29027 -18.2328 L -1.21448 -18.1435 L -1.13867 -18.0539 L -1.06284 -17.964 L -0.986999 -17.8739 L -0.91114 -17.7835 L -0.835266 -17.6928 L -0.75938 -17.6018 L -0.68348 -17.5105 L -0.607569 -17.419 L -0.531647 -17.3271 L -0.455716 -17.2349 L -0.379776 -17.1424 L -0.30383 -17.0496 L -0.227878 -16.9564 L -0.151921 -16.863 L -0.0759612 -16.7691 L -4.44089e-16 -16.675 L -5.68221e-15 -16.675 L 0.0759612 -16.7691 L 0.151921 -16.863 L 0.227878 -16.9564 L 0.30383 -17.0496 L 0.379776 -17.1424 L 0.455716 -17.2349 L 0.531647 -17.3271 L 0.607569 -17.419 L 0.68348 -17.5105 L 0.75938 -17.6018 L 0.835266 -17.6928 L 0.91114 -17.7835 L 0.986999 -17.8739 L 1.06284 -17.964 L 1.13867 -18.0539 L 1.21448 -18.1435 L 1.29027 -18.2328 L 1.36605 -18.3219 L 1.4418 -18.4107 L 1.51753 -18.4992 L 1.59325 -18.5875 L 1.66894 -18.6756 L 1.76286 -18.6669 L 1.85674 -18.6578 L 1.95057 -18.6483 L 2.04435 -18.6382 L 2.13808 -18.6277 L 2.23176 -18.6167 L 2.32538 -18.6052 L 2.41894 -18.5933 L 2.51244 -18.5809 L 2.60587 -18.568 L 2.69924 -18.5547 L 2.79254 -18.5409 L 2.88577 -18.5266 L 2.97893 -18.5118 L 3.07201 -18.4966 L 3.43947 -18.4318 L 3.53215 -18.4143 L 3.62473 -18.3963 L 3.71722 -18.3778 L 3.80962 -18.3589 L 3.90192 -18.3395 L 3.99413 -18.3196 L 4.08623 -18.2993 L 4.17823 -18.2785 L 4.27012 -18.2573 L 4.36191 -18.2356 L 4.45358 -18.2134 L 4.54514 -18.1908 L 4.63659 -18.1677 L 4.72792 -18.1441 L 4.81913 -18.1201 L 4.86014 -18.0115 L 4.90109 -17.9026 L 4.94197 -17.7935 L 4.98279 -17.6841 L 5.02353 -17.5745 L 5.0642 -17.4647 L 5.1048 -17.3546 L 5.14532 -17.2442 L 5.18576 -17.1336 L 5.22612 -17.0226 L 5.2664 -16.9115 L 5.30659 -16.8 L 5.34669 -16.6883 L 5.3867 -16.5763 L 5.42662 -16.464 L 5.46645 -16.3514 L 5.50617 -16.2385 L 5.54579 -16.1253 L 5.5853 -16.0118 L 5.62471 -15.898 L 5.66401 -15.7838 L 5.70319 -15.6694 L 5.70319 -15.6694 L 5.80677 -15.7319 L 5.91023 -15.794 L 6.01357 -15.8559 L 6.1168 -15.9174 L 6.21991 -15.9787 L 6.32291 -16.0396 L 6.42579 -16.1003 L 6.52856 -16.1607 L 6.63122 -16.2208 L 6.73376 -16.2806 L 6.83619 -16.3401 L 6.9385 -16.3994 L 7.04071 -16.4584 L 7.14281 -16.5172 L 7.2448 -16.5757 L 7.34668 -16.6339 L 7.44845 -16.6919 L 7.55011 -16.7497 L 7.65167 -16.8073 L 7.75312 -16.8646 L 7.85447 -16.9216 L 7.95571 -16.9785 L 8.04102 -16.9383 L 8.12612 -16.8976 L 8.21102 -16.8565 L 8.29571 -16.815 L 8.38019 -16.773 L 8.46446 -16.7307 L 8.54851 -16.6879 L 8.63234 -16.6447 L 8.71596 -16.601 L 8.79936 -16.557 L 8.88254 -16.5125 L 8.96549 -16.4676 L 9.04821 -16.4223 L 9.1307 -16.3766 L 9.21297 -16.3305 L 9.5361 -16.1439 L 9.61719 -16.0957 L 9.69804 -16.0471 L 9.77864 -15.9981 L 9.85899 -15.9488 L 9.93909 -15.899 L 10.0189 -15.8488 L 10.0985 -15.7982 L 10.1779 -15.7472 L 10.257 -15.6958 L 10.3358 -15.644 L 10.4143 -15.5918 L 10.4926 -15.5392 L 10.5707 -15.4862 L 10.6484 -15.4329 L 10.7259 -15.3791 L 10.7273 -15.263 L 10.7286 -15.1467 L 10.7297 -15.0302 L 10.7306 -14.9134 L 10.7314 -14.7965 L 10.7321 -14.6794 L 10.7326 -14.562 L 10.7329 -14.4444 L 10.733 -14.3266 L 10.733 -14.2086 L 10.7329 -14.0904 L 10.7325 -13.9719 L 10.732 -13.8532 L 10.7313 -13.7342 L 10.7304 -13.615 L 10.7293 -13.4956 L 10.728 -13.3759 L 10.7265 -13.256 L 10.7248 -13.1359 L 10.7229 -13.0154 L 10.7208 -12.8947 L 10.7185 -12.7738 L 10.7185 -12.7738 L 10.8372 -12.7971 L 10.9557 -12.8201 L 11.0739 -12.8429 L 11.192 -12.8654 L 11.3098 -12.8877 L 11.4275 -12.9098 L 11.5449 -12.9316 L 11.6621 -12.9532 L 11.7791 -12.9745 L 11.8959 -12.9956 L 12.0126 -13.0166 L 12.129 -13.0373 L 12.2452 -13.0578 L 12.3612 -13.0781 L 12.4771 -13.0982 L 12.5928 -13.1181 L 12.7082 -13.1378 L 12.8235 -13.1573 L 12.9386 -13.1766 L 13.0536 -13.1958 L 13.1683 -13.2147 L 13.2829 -13.2335 L 13.3493 -13.1666 L 13.4154 -13.0992 L 13.4811 -13.0316 L 13.5465 -12.9636 L 13.6115 -12.8953 L 13.6762 -12.8267 L 13.7406 -12.7577 L 13.8046 -12.6884 L 13.8682 -12.6188 L 13.9315 -12.5489 L 13.9945 -12.4787 L 14.0571 -12.4081 L 14.1193 -12.3373 L 14.1812 -12.2661 L 14.2427 -12.1946 L 14.4825 -11.9088 L 14.5423 -11.8358 L 14.6016 -11.7625 L 14.6606 -11.6889 L 14.7192 -11.615 L 14.7775 -11.5408 L 14.8353 -11.4663 L 14.8928 -11.3915 L 14.9499 -11.3165 L 15.0067 -11.2411 L 15.063 -11.1655 L 15.119 -11.0896 L 15.1746 -11.0134 L 15.2298 -10.9369 L 15.2846 -10.8602 L 15.3391 -10.7831 L 15.3006 -10.6736 L 15.262 -10.5638 L 15.2232 -10.454 L 15.1842 -10.344 L 15.1449 -10.2338 L 15.1055 -10.1235 L 15.0658 -10.0131 L 15.0259 -9.90247 L 14.9858 -9.79172 L 14.9454 -9.68082 L 14.9048 -9.56976 L 14.8639 -9.45855 L 14.8228 -9.34718 L 14.7815 -9.23565 L 14.7399 -9.12396 L 14.698 -9.0121 L 14.6559 -8.90009 L 14.6134 -8.78791 L 14.5708 -8.67556 L 14.5278 -8.56304 L 14.4845 -8.45036 L 14.441 -8.3375 L 14.441 -8.3375 L 14.5605 -8.31879 L 14.6797 -8.29991 L 14.7986 -8.28086 L 14.9173 -8.26166 L 15.0356 -8.2423 L 15.1537 -8.22278 L 15.2715 -8.20312 L 15.389 -8.18331 L 15.5063 -8.16335 L 15.6233 -8.14326 L 15.74 -8.12304 L 15.8565 -8.10268 L 15.9728 -8.08219 L 16.0887 -8.06157 L 16.2045 -8.04083 L 16.32 -8.01997 L 16.4352 -7.999 L 16.5502 -7.97791 L 16.665 -7.9567 L 16.7796 -7.93539 L 16.8939 -7.91397 L 17.008 -7.89244 L 17.0475 -7.80679 L 17.0865 -7.72094 L 17.1252 -7.63489 L 17.1633 -7.54865 L 17.2011 -7.46221 L 17.2384 -7.37559 L 17.2753 -7.28879 L 17.3117 -7.20179 L 17.3478 -7.11462 L 17.3833 -7.02727 L 17.4185 -6.93973 L 17.4531 -6.85203 L 17.4874 -6.76415 L 17.5212 -6.67609 L 17.5546 -6.58787 L 17.6822 -6.23725 L 17.7133 -6.14822 L 17.744 -6.05904 L 17.7743 -5.96971 L 17.8041 -5.88022 L 17.8334 -5.79059 L 17.8623 -5.70081 L 17.8908 -5.61088 L 17.9188 -5.52082 L 17.9463 -5.43061 L 17.9734 -5.34027 L 18.0001 -5.24979 L 18.0262 -5.15918 L 18.052 -5.06843 L 18.0772 -4.97756 L 18.102 -4.88657 L 18.0285 -4.79673 L 17.9547 -4.70684 L 17.8806 -4.61688 L 17.8063 -4.52685 L 17.7318 -4.43676 L 17.657 -4.34661 L 17.5819 -4.2564 L 17.5066 -4.16612 L 17.431 -4.07578 L 17.3551 -3.98537 L 17.279 -3.8949 L 17.2025 -3.80436 L 17.1258 -3.71377 L 17.0488 -3.62311 L 16.9715 -3.53238 L 16.8939 -3.4416 L 16.816 -3.35075 L 16.7378 -3.25984 L 16.6592 -3.16887 L 16.5804 -3.07783 L 16.5012 -2.98674 L 16.4217 -2.89558 L 16.4217 -2.89558 L 16.5276 -2.83712 L 16.6331 -2.77861 L 16.7384 -2.72004 L 16.8433 -2.66141 L 16.9479 -2.60274 L 17.0522 -2.54401 L 17.1562 -2.48524 L 17.2598 -2.42643 L 17.3632 -2.36758 L 17.4663 -2.30868 L 17.569 -2.24974 L 17.6715 -2.19077 L 17.7738 -2.13177 L 17.8757 -2.07273 L 17.9773 -2.01366 L 18.0787 -1.95456 L 18.1799 -1.89543 L 18.2807 -1.83627 L 18.3813 -1.77708 L 18.4817 -1.71788 L 18.5818 -1.65865 L 18.6817 -1.59939 L 18.6895 -1.5054 L 18.6968 -1.41137 L 18.7037 -1.3173 L 18.7101 -1.2232 L 18.716 -1.12907 L 18.7214 -1.0349 L 18.7264 -0.940717 L 18.7309 -0.846506 L 18.7349 -0.752274 L 18.7384 -0.658023 L 18.7415 -0.563755 L 18.7441 -0.469472 L 18.7462 -0.375178 L 18.7479 -0.280875 L 18.7491 -0.186564Z"
id="path1" />
</g>
</svg>
