<?xml version="1.0" encoding="UTF-8" standalone="no"?>
<svg version="1.1">
<g
style="fill:none;stroke:#000000;stroke-opacity:1;stroke-width:0.1">
<path d="M 18.9997 0.114916 L 18.9989 0.20513 L 18.9977 0.29534 L 18.9961 0.385543 L 18.994 0.475737 L 18.9916 0.56592 L 18.9887 0.656091 L 18.9853 0.746247 L 18.9816 0.836386 L 18.9774 0.926506 L 18.9728 1.01661 L 18.9677 1.10668 L 18.9623 1.19673 L 18.9564 1.28676 L 18.9501 1.37675 L 18.9433 1.46672 L 18.9361 1.55665 L 18.8411 1.61036 L 18.7459 1.66405 L 18.6504 1.71773 L 18.5548 1.77139 L 18.4589 1.82503 L 18.3628 1.87864 L 18.2666 1.93224 L 18.1701 1.98581 L 18.0733 2.03936 L 17.9764 2.09288 L 17.8792 2.14637 L 17.7818 2.19984 L 17.6842 2.25328 L 17.5863 2.30669 L 17.4882 2.36007 L 17.3899 2.41341 L 17.2912 2.46672 L 17.1924 2.51999 L 17.0933 2.57323 L 16.9939 2.62642 L 16.8943 2.67958 L 16.7943 2.73269 L 16.6942 2.78576 L 16.6942 2.78576 L 16.7717 2.86849 L 16.8489 2.95116 L 16.9259 3.03379 L 17.0026 3.11637 L 17.0791 3.19891 L 17.1553 3.28139 L 17.2313 3.36383 L 17.307 3.44622 L 17.3824 3.52856 L 17.4577 3.61086 L 17.5327 3.6931 L 17.6074 3.7753 L 17.682 3.85745 L 17.7563 3.93955 L 17.8304 4.0216 L 17.9042 4.1036 L 17.9779 4.18555 L 18.0513 4.26746 L 18.1246 4.34931 L 18.1976 4.43112 L 18.2705 4.51288 L 18.3431 4.59459 L 18.4156 4.67624 L 18.3931 4.76363 L 18.3703 4.85092 L 18.3471 4.93809 L 18.3234 5.02515 L 18.2994 5.1121 L 18.2749 5.19893 L 18.25 5.28565 L 18.2247 5.37224 L 18.199 5.45872 L 18.1728 5.54507 L 18.1463 5.6313 L 18.1194 5.7174 L 18.092 5.80337 L 18.0643 5.88921 L 18.0361 5.97491 L 18.0075 6.06049 L 17.9329 6.27787 L 17.9029 6.36295 L 17.8725 6.44788 L 17.8416 6.53267 L 17.8104 6.61732 L 17.7788 6.70181 L 17.7468 6.78615 L 17.7144 6.87034 L 17.6815 6.95438 L 17.6483 7.03826 L 17.6147 7.12198 L 17.5807 7.20553 L 17.5463 7.28893 L 17.5115 7.37216 L 17.4763 7.45523 L 17.4407 7.53813 L 17.4047 7.62085 L 17.2973 7.6408 L 17.1898 7.66066 L 17.0821 7.68044 L 16.9742 7.70013 L 16.8662 7.71974 L 16.7579 7.73926 L 16.6494 7.75869 L 16.5408 7.77802 L 16.4319 7.79726 L 16.3228 7.81641 L 16.2136 7.83545 L 16.1041 7.8544 L 15.9944 7.87324 L 15.8845 7.89198 L 15.7743 7.9106 L 15.664 7.92912 L 15.5534 7.94752 L 15.4426 7.96581 L 15.3316 7.98398 L 15.2203 8.00203 L 15.1088 8.01995 L 14.9971 8.03774 L 14.8851 8.05541 L 14.8851 8.05541 L 14.9316 8.15882 L 14.9778 8.2621 L 15.0238 8.36525 L 15.0695 8.46826 L 15.115 8.57115 L 15.1603 8.67391 L 15.2054 8.77655 L 15.2502 8.87906 L 15.2949 8.98144 L 15.3393 9.08371 L 15.3835 9.18585 L 15.4276 9.28786 L 15.4714 9.38976 L 15.515 9.49154 L 15.5584 9.59321 L 15.6017 9.69475 L 15.6448 9.79618 L 15.6876 9.8975 L 15.7303 9.9987 L 15.7728 10.0998 L 15.8152 10.2008 L 15.8574 10.3016 L 15.8994 10.4024 L 15.8498 10.4778 L 15.7999 10.5529 L 15.7496 10.6278 L 15.6989 10.7025 L 15.648 10.7769 L 15.5966 10.8511 L 15.5449 10.925 L 15.4929 10.9987 L 15.4405 11.0721 L 15.3877 11.1453 L 15.3346 11.2183 L 15.2812 11.291 L 15.2274 11.3634 L 15.1733 11.4356 L 15.1188 11.5075 L 15.064 11.5791 L 14.9228 11.7605 L 14.8668 11.8312 L 14.8105 11.9017 L 14.7538 11.9719 L 14.6968 12.0418 L 14.6394 12.1115 L 14.5817 12.1808 L 14.5237 12.2499 L 14.4654 12.3188 L 14.4068 12.3873 L 14.3478 12.4556 L 14.2885 12.5236 L 14.2288 12.5913 L 14.1689 12.6587 L 14.1086 12.7258 L 14.0481 12.7927 L 13.9872 12.8592 L 13.8792 12.8432 L 13.771 12.8271 L 13.6627 12.8109 L 13.5543 12.7944 L 13.4457 12.7779 L 13.337 12.7612 L 13.2281 12.7444 L 13.119 12.7274 L 13.0098 12.7102 L 12.9004 12.6929 L 12.7909 12.6754 L 12.6812 12.6578 L 12.5713 12.64 L 12.4613 12.622 L 12.3511 12.6039 L 12.2407 12.5856 L 12.1301 12.5671 L 12.0194 12.5484 L 11.9085 12.5295 L 11.7974 12.5105 L 11.6861 12.4912 L 11.5746 12.4718 L 11.463 12.4521 L 11.463 12.4521 L 11.4734 12.565 L 11.4835 12.6777 L 11.4935 12.7902 L 11.5034 12.9025 L 11.513 13.0146 L 11.5225 13.1265 L 11.5318 13.2382 L 11.5409 13.3497 L 11.5499 13.461 L 11.5587 13.5722 L 11.5674 13.6832 L 11.5759 13.7939 L 11.5842 13.9045 L 11.5925 14.015 L 11.6005 14.1252 L 11.6085 14.2353 L 11.6163 14.3452 L 11.6239 14.455 L 11.6314 14.5646 L 11.6388 14.674 L 11.6461 14.7832 L 11.6532 14.8923 L 11.6603 15.0013 L 11.5889 15.0565 L 11.5173 15.1113 L 11.4454 15.1659 L 11.3732 15.22 L 11.3008 15.2739 L 11.2282 15.3273 L 11.1553 15.3805 L 11.0821 15.4333 L 11.0087 15.4857 L 10.9351 15.5378 L 10.8612 15.5896 L 10.787 15.641 L 10.7126 15.692 L 10.638 15.7427 L 10.5631 15.793 L 10.488 15.843 L 10.2956 15.9687 L 10.2197 16.0174 L 10.1435 16.0658 L 10.0671 16.1138 L 9.99049 16.1614 L 9.91363 16.2086 L 9.83656 16.2555 L 9.75926 16.302 L 9.68175 16.3482 L 9.60401 16.394 L 9.52606 16.4394 L 9.4479 16.4845 L 9.36952 16.5291 L 9.29093 16.5734 L 9.21213 16.6174 L 9.13312 16.6609 L 9.0539 16.7041 L 8.95696 16.6539 L 8.85992 16.6036 L 8.76278 16.553 L 8.66555 16.5023 L 8.56822 16.4514 L 8.47079 16.4003 L 8.37326 16.349 L 8.27563 16.2975 L 8.17791 16.2458 L 8.08008 16.1939 L 7.98214 16.1419 L 7.88411 16.0896 L 7.78597 16.037 L 7.68773 15.9843 L 7.58938 15.9314 L 7.49092 15.8782 L 7.39236 15.8248 L 7.29369 15.7712 L 7.19491 15.7173 L 7.09602 15.6632 L 6.99702 15.6089 L 6.89792 15.5543 L 6.7987 15.4995 L 6.7987 15.4995 L 6.77184 15.6096 L 6.74488 15.7195 L 6.71781 15.8291 L 6.69064 15.9385 L 6.66336 16.0477 L 6.63599 16.1566 L 6.60852 16.2653 L 6.58095 16.3737 L 6.55329 16.4819 L 6.52554 16.5899 L 6.49771 16.6977 L 6.46979 16.8052 L 6.44178 16.9126 L 6.4137 17.0197 L 6.38553 17.1266 L 6.35729 17.2333 L 6.32897 17.3398 L 6.30058 17.4461 L 6.27211 17.5521 L 6.24357 17.658 L 6.21497 17.7637 L 6.1863 17.8692 L 6.15756 17.9746 L 6.07214 18.0036 L 5.98659 18.0322 L 5.9009 18.0604 L 5.81508 18.0883 L 5.72912 18.1157 L 5.64304 18.1427 L 5.55683 18.1692 L 5.4705 18.1954 L 5.38404 18.2212 L 5.29746 18.2466 L 5.21076 18.2715 L 5.12394 18.296 L 5.03701 18.3202 L 4.94996 18.3439 L 4.86281 18.3672 L 4.77554 18.3901 L 4.55274 18.4465 L 4.4651 18.4679 L 4.37736 18.4889 L 4.28952 18.5095 L 4.20158 18.5296 L 4.11355 18.5494 L 4.02543 18.5687 L 3.93721 18.5876 L 3.84891 18.6061 L 3.76052 18.6241 L 3.67205 18.6418 L 3.58349 18.659 L 3.49485 18.6758 L 3.40613 18.6922 L 3.31734 18.7082 L 3.22847 18.7237 L 3.13953 18.7388 L 3.06413 18.6599 L 2.9887 18.5807 L 2.91324 18.5014 L 2.83774 18.4218 L 2.76222 18.3421 L 2.68666 18.2621 L 2.61107 18.182 L 2.53545 18.1016 L 2.45979 18.0209 L 2.38411 17.9401 L 2.3084 17.859 L 2.23266 17.7777 L 2.15688 17.6962 L 2.08108 17.6144 L 2.00525 17.5324 L 1.9294 17.4502 L 1.85351 17.3677 L 1.7776 17.2849 L 1.70166 17.2019 L 1.6257 17.1186 L 1.54971 17.0351 L 1.47369 16.9513 L 1.39766 16.8672 L 1.39766 16.8672 L 1.33649 16.9626 L 1.27531 17.0578 L 1.21411 17.1527 L 1.15289 17.2474 L 1.09165 17.3418 L 1.03039 17.4359 L 0.969123 17.5298 L 0.907839 17.6234 L 0.846542 17.7167 L 0.785234 17.8099 L 0.723915 17.9028 L 0.662586 17.9954 L 0.601249 18.0878 L 0.539904 18.18 L 0.478553 18.272 L 0.417196 18.3637 L 0.355833 18.4553 L 0.294467 18.5466 L 0.233097 18.6377 L 0.171725 18.7286 L 0.110351 18.8192 L 0.048975 18.9097 L -0.012401 19 L -0.102618 18.9997 L -0.192832 18.999 L -0.283043 18.9979 L -0.373247 18.9963 L -0.463442 18.9943 L -0.553627 18.9919 L -0.6438 18.9891 L -0.733957 18.9858 L -0.824099 18.9821 L -0.914222 18.978 L -1.00432 18.9734 L -1.0944 18.9685 L -1.18446 18.963 L -1.27449 18.9572 L -1.36449 18.9509 L -1.45446 18.9442 L -1.6835 18.9253 L -1.77335 18.9171 L -1.86315 18.9084 L -1.95291 18.8994 L -2.04263 18.8899 L -2.1323 18.88 L -2.22192 18.8696 L -2.31149 18.8589 L -2.40102 18.8477 L -2.49048 18.8361 L -2.57989 18.824 L -2.66925 18.8116 L -2.75854 18.7987 L -2.84777 18.7854 L -2.93693 18.7716 L -3.02603 18.7575 L -3.11506 18.7429 L -3.16074 18.6438 L -3.20639 18.5444 L -3.252 18.4449 L -3.29758 18.3451 L -3.34312 18.2452 L -3.38862 18.145 L -3.43408 18.0446 L -3.4795 17.944 L -3.52488 17.8432 L -3.57021 17.7422 L -3.6155 17.6409 L -3.66074 17.5394 L -3.70593 17.4377 L -3.75108 17.3358 L -3.79617 17.2336 L -3.84121 17.1312 L -3.88619 17.0285 L -3.93112 16.9256 L -3.97599 16.8224 L -4.0208 16.719 L -4.06554 16.6153 L -4.11023 16.5113 L -4.15484 16.4071 L -4.15484 16.4071 L -4.24368 16.4775 L -4.33246 16.5477 L -4.42116 16.6176 L -4.50979 16.6872 L -4.59836 16.7566 L -4.68686 16.8257 L -4.77529 16.8946 L -4.86365 16.9633 L -4.95194 17.0317 L -5.04017 17.0998 L -5.12833 17.1678 L -5.21642 17.2355 L -5.30444 17.303 L -5.39239 17.3703 L -5.48028 17.4374 L -5.56811 17.5042 L -5.65586 17.5708 L -5.74355 17.6373 L -5.83118 17.7035 L -5.91873 17.7696 L -6.00623 17.8354 L -6.09365 17.901 L -6.18102 17.9665 L -6.26626 17.9369 L -6.35136 17.907 L -6.43631 17.8766 L -6.52112 17.8459 L -6.60579 17.8147 L -6.6903 17.7831 L -6.77466 17.7512 L -6.85887 17.7188 L -6.94293 17.686 L -7.02683 17.6529 L -7.11057 17.6193 L -7.19415 17.5853 L -7.27757 17.551 L -7.36083 17.5162 L -7.44392 17.4811 L -7.52684 17.4455 L -7.73731 17.3532 L -7.81962 17.3163 L -7.90176 17.279 L -7.98371 17.2412 L -8.06549 17.2031 L -8.14708 17.1646 L -8.22849 17.1258 L -8.30972 17.0865 L -8.39075 17.0469 L -8.4716 17.0068 L -8.55226 16.9664 L -8.63272 16.9256 L -8.71299 16.8844 L -8.79307 16.8429 L -8.87294 16.8009 L -8.95262 16.7586 L -9.03209 16.7159 L -9.0431 16.6073 L -9.05402 16.4985 L -9.06484 16.3895 L -9.07555 16.2804 L -9.08617 16.1711 L -9.09668 16.0616 L -9.10709 15.9519 L -9.11738 15.842 L -9.12757 15.7319 L -9.13764 15.6216 L -9.1476 15.5111 L -9.15744 15.4005 L -9.16715 15.2896 L -9.17675 15.1785 L -9.18622 15.0672 L -9.19556 14.9557 L -9.20477 14.844 L -9.21384 14.7321 L -9.22278 14.6199 L -9.23158 14.5075 L -9.24023 14.3949 L -9.24874 14.2821 L -9.2571 14.169 L -9.2571 14.169 L -9.36399 14.2068 L -9.47073 14.2443 L -9.57733 14.2816 L -9.68377 14.3187 L -9.79007 14.3556 L -9.89622 14.3922 L -10.0022 14.4287 L -10.1081 14.4649 L -10.2138 14.501 L -10.3194 14.5368 L -10.4248 14.5724 L -10.5301 14.6079 L -10.6353 14.6431 L -10.7403 14.6782 L -10.8452 14.7131 L -10.95 14.7478 L -11.0547 14.7824 L -11.1592 14.8167 L -11.2635 14.8509 L -11.3678 14.8849 L -11.4719 14.9188 L -11.5759 14.9525 L -11.6798 14.986 L -11.7509 14.9304 L -11.8216 14.8745 L -11.8921 14.8182 L -11.9623 14.7615 L -12.0323 14.7046 L -12.102 14.6473 L -12.1714 14.5896 L -12.2405 14.5317 L -12.3094 14.4734 L -12.378 14.4148 L -12.4463 14.3558 L -12.5143 14.2966 L -12.582 14.237 L -12.6495 14.1771 L -12.7167 14.1169 L -12.7836 14.0563 L -12.9527 13.9007 L -13.0185 13.839 L -13.0841 13.777 L -13.1494 13.7148 L -13.2143 13.6522 L -13.279 13.5893 L -13.3434 13.5261 L -13.4075 13.4625 L -13.4712 13.3987 L -13.5347 13.3346 L -13.5979 13.2702 L -13.6607 13.2055 L -13.7233 13.1405 L -13.7855 13.0752 L -13.8474 13.0096 L -13.909 12.9437 L -13.9704 12.8775 L -13.9455 12.7712 L -13.9205 12.6647 L -13.8954 12.5582 L -13.8701 12.4515 L -13.8446 12.3446 L -13.819 12.2376 L -13.7932 12.1305 L -13.7673 12.0232 L -13.7411 11.9158 L -13.7149 11.8082 L -13.6884 11.7005 L -13.6618 11.5926 L -13.635 11.4846 L -13.608 11.3764 L -13.5808 11.2681 L -13.5534 11.1596 L -13.5259 11.0509 L -13.4981 10.9421 L -13.4701 10.8331 L -13.442 10.724 L -13.4136 10.6147 L -13.385 10.5052 L -13.3562 10.3956 L -13.3562 10.3956 L -13.4696 10.3966 L -13.5827 10.3974 L -13.6956 10.3981 L -13.8084 10.3986 L -13.9209 10.3989 L -14.0332 10.3991 L -14.1453 10.3992 L -14.2572 10.3991 L -14.3688 10.3988 L -14.4803 10.3984 L -14.5916 10.3979 L -14.7028 10.3973 L -14.8137 10.3965 L -14.9244 10.3955 L -15.035 10.3945 L -15.1453 10.3933 L -15.2555 10.392 L -15.3655 10.3905 L -15.4753 10.389 L -15.585 10.3873 L -15.6945 10.3855 L -15.8038 10.3836 L -15.9129 10.3816 L -15.9621 10.306 L -16.0108 10.23 L -16.0592 10.1539 L -16.1072 10.0775 L -16.1549 10.0009 L -16.2022 9.92412 L -16.2492 9.84708 L -16.2957 9.76981 L -16.3419 9.69233 L -16.3878 9.61462 L -16.4332 9.5367 L -16.4783 9.45856 L -16.5231 9.38021 L -16.5674 9.30165 L -16.6114 9.22288 L -16.655 9.1439 L -16.7644 8.94177 L -16.8067 8.86207 L -16.8485 8.78216 L -16.8901 8.70206 L -16.9312 8.62177 L -16.9719 8.54128 L -17.0123 8.46059 L -17.0523 8.37972 L -17.0919 8.29866 L -17.1311 8.2174 L -17.1699 8.13597 L -17.2084 8.05435 L -17.2464 7.97255 L -17.2841 7.89057 L -17.3213 7.80841 L -17.3582 7.72608 L -17.3947 7.64357 L -17.3367 7.5511 L -17.2785 7.45855 L -17.2201 7.36592 L -17.1615 7.2732 L -17.1027 7.18041 L -17.0438 7.08753 L -16.9846 6.99457 L -16.9252 6.90153 L -16.8657 6.8084 L -16.8059 6.71519 L -16.7459 6.6219 L -16.6857 6.52852 L -16.6252 6.43505 L -16.5646 6.34149 L -16.5037 6.24785 L -16.4426 6.15412 L -16.3812 6.06031 L -16.3196 5.9664 L -16.2578 5.87241 L -16.1957 5.77833 L -16.1334 5.68415 L -16.0708 5.58989 L -16.008 5.49554 L -16.008 5.49554 L -16.1155 5.45968 L -16.2228 5.42374 L -16.3298 5.38771 L -16.4366 5.35159 L -16.5431 5.3154 L -16.6494 5.27912 L -16.7554 5.24277 L -16.8612 5.20634 L -16.9668 5.16984 L -17.0721 5.13327 L -17.1772 5.09663 L -17.2821 5.05992 L -17.3868 5.02315 L -17.4912 4.98632 L -17.5954 4.94942 L -17.6994 4.91246 L -17.8032 4.87544 L -17.9068 4.83837 L -18.0101 4.80124 L -18.1133 4.76406 L -18.2163 4.72682 L -18.3191 4.68954 L -18.4216 4.6522 L -18.4435 4.56468 L -18.465 4.47705 L -18.486 4.38932 L -18.5067 4.3015 L -18.5269 4.21358 L -18.5467 4.12556 L -18.5661 4.03745 L -18.585 3.94924 L -18.6036 3.86095 L -18.6217 3.77257 L -18.6394 3.68411 L -18.6567 3.59557 L -18.6735 3.50694 L -18.69 3.41823 L -18.706 3.32945 L -18.7216 3.24059 L -18.7594 3.01389 L -18.7735 2.92478 L -18.7872 2.83561 L -18.8005 2.74637 L -18.8133 2.65707 L -18.8257 2.56771 L -18.8377 2.47829 L -18.8492 2.38882 L -18.8604 2.29929 L -18.8711 2.20971 L -18.8813 2.12008 L -18.8912 2.0304 L -18.9006 1.94068 L -18.9096 1.85091 L -18.9182 1.7611 L -18.9264 1.67125 L -18.9341 1.58137 L -18.8492 1.51274 L -18.7641 1.44411 L -18.6788 1.37545 L -18.5933 1.30679 L -18.5075 1.2381 L -18.4216 1.16941 L -18.3355 1.10069 L -18.2491 1.03197 L -18.1625 0.963235 L -18.0757 0.894486 L -17.9887 0.825726 L -17.9014 0.756956 L -17.8139 0.688176 L -17.7261 0.619386 L -17.6381 0.550588 L -17.5499 0.481782 L -17.4614 0.41297 L -17.3727 0.344151 L -17.2837 0.275327 L -17.1944 0.206499 L -17.1049 0.137668 L -17.0151 0.0688345 L -16.925 2.22045e-15 L -16.925 1.92498e-15 L -17.0151 -0.0688345 L -17.1049 -0.137668 L -17.1944 -0.206499 L -17.2837 -0.275327 L -17.3727 -0.344151 L -17.4614 -0.41297 L -17.5499 -0.481782 L -17.6381 -0.550588 L -17.7261 -0.619386 L -17.8139 -0.688176 L -17.9014 -0.756956 L -17.9887 -0.825726 L -18.0757 -0.894486 L -18.1625 -0.963235 L -18.2491 -1.03197 L -18.3355 -1.10069 L -18.4216 -1.16941 L -18.5075 -1.2381 L -18.5933 -1.30679 L -18.6788 -1.37545 L -18.7641 -1.44411 L -18.8492 -1.51274 L -18.9341 -1.58137 L -18.9264 -1.67125 L -18.9182 -1.7611 L -18.9096 -1.85091 L -18.9006 -1.94068 L -18.8912 -2.0304 L -18.8813 -2.12008 L -18.8711 -2.20971 L -18.8604 -2.29929 L -18.8492 -2.38882 L -18.8377 -2.47829 L -18.8257 -2.56771 L -18.8133 -2.65707 L -18.8005 -2.74637 L -18.7872 -2.83561 L -18.7735 -2.92478 L -18.7594 -3.01389 L -18.7216 -3.24059 L -18.706 -3.32945 L -18.69 -3.41823 L -18.6735 -3.50694 L -18.6567 -3.59557 L -18.6394 -3.68411 L -18.6217 -3.77257 L -18.6036 -3.86095 L -18.585 -3.94924 L -18.5661 -4.03745 L -18.5467 -4.12556 L -18.5269 -4.21358 L -18.5067 -4.3015 L -18.486 -4.38932 L -18.465 -4.47705 L -18.4435 -4.56468 L -18.4216 -4.6522 L -18.3191 -4.68954 L -18.2163 -4.72682 L -18.1133 -4.76406 L -18.0101 -4.80124 L -17.9068 -4.83837 L -17.8032 -4.87544 L -17.6994 -4.91246 L -17.5954 -4.94942 L -17.4912 -4.98632 L -17.3868 -5.02315 L -17.2821 -5.05992 L -17.1772 -5.09663 L -17.0721 -5.13327 L -16.9668 -5.16984 L -16.8612 -5.20634 L -16.7554 -5.24277 L -16.6494 -5.27912 L -16.5431 -5.3154 L -16.4366 -5.35159 L -16.3298 -5.38771 L -16.2228 -5.42374 L -16.1155 -5.45968 L -16.008 -5.49554 L -16.008 -5.49554 L -16.0708 -5.58989 L -16.1334 -5.68415 L -16.1957 -5.77833 L -16.2578 -5.87241 L -16.3196 -5.9664 L -16.3812 -6.06031 L -16.4426 -6.15412 L -16.5037 -6.24785 L -16.5646 -6.34149 L -16.6252 -6.43505 L -16.6857 -6.52852 L -16.7459 -6.6219 L -16.8059 -6.71519 L -16.8657 -6.8084 L -16.9252 -6.90153 L -16.9846 -6.99457 L -17.0438 -7.08753 L -17.1027 -7.18041 L -17.1615 -7.2732 L -17.2201 -7.36592 L -17.2785 -7.45855 L -17.3367 -7.5511 L -17.3947 -7.64357 L -17.3582 -7.72608 L -17.3213 -7.80841 L -17.2841 -7.89057 L -17.2464 -7.97255 L -17.2084 -8.05435 L -17.1699 -8.13597 L -17.1311 -8.2174 L -17.0919 -8.29866 L -17.0523 -8.37972 L -17.0123 -8.46059 L -16.9719 -8.54128 L -16.9312 -8.62177 L -16.8901 -8.70206 L -16.8485 -8.78216 L -16.8067 -8.86207 L -16.7644 -8.94177 L -16.655 -9.1439 L -16.6114 -9.22288 L -16.5674 -9.30165 L -16.5231 -9.38021 L -16.4783 -9.45856 L -16.4332 -9.5367 L -16.3878 -9.61462 L -16.3419 -9.69233 L -16.2957 -9.76981 L -16.2492 -9.84708 L -16.2022 -9.92412 L -16.1549 -10.0009 L -16.1072 -10.0775 L -16.0592 -10.1539 L -16.0108 -10.23 L -15.9621 -10.306 L -15.9129 -10.3816 L -15.8038 -10.3836 L -15.6945 -10.3855 L -15.585 -10.3873 L -15.4753 -10.389 L -15.3655 -10.3905 L -15.2555 -10.392 L -15.1453 -10.3933 L -15.035 -10.3945 L -14.9244 -10.3955 L -14.8137 -10.3965 L -14.7028 -10.3973 L -14.5916 -10.3979 L -14.4803 -10.3984 L -14.3688 -10.3988 L -14.2572 -10.3991 L -14.1453 -10.3992 L -14.0332 -10.3991 L -13.9209 -10.3989 L -13.8084 -10.3986 L -13.6956 -10.3981 L -13.5827 -10.3974 L -13.4696 -10.3966 L -13.3562 -10.3956 L -13.3562 -10.3956 L -13.385 -10.5052 L -13.4136 -10.6147 L -13.442 -10.724 L -13.4701 -10.8331 L -13.4981 -10.9421 L -13.5259 -11.0509 L -13.5534 -11.1596 L -13.5808 -11.2681 L -13.608 -11.3764 L -13.635 -11.4846 L -13.6618 -11.5926 L -13.6884 -11.7005 L -13.7149 -11.8082 L -13.7411 -11.9158 L -13.7673 -12.0232 L -13.7932 -12.1305 L -13.819 -12.2376 L -13.8446 -12.3446 L -13.8701 -12.4515 L -13.8954 -12.5582 L -13.9205 -12.6647 L -13.9455 -12.7712 L -13.9704 -12.8775 L -13.909 -12.9437 L -13.8474 -13.0096 L -13.7855 -13.0752 L -13.7233 -13.1405 L -13.6607 -13.2055 L -13.5979 -13.2702 L -13.5347 -13.3346 L -13.4712 -13.3987 L -13.4075 -13.4625 L -13.3434 -13.5261 L -13.279 -13.5893 L -13.2143 -13.6522 L -13.1494 -13.7148 L -13.0841 -13.777 L -13.0185 -13.839 L -12.9527 -13.9007 L -12.7836 -14.0563 L -12.7167 -14.1169 L -12.6495 -14.1771 L -12.582 -14.237 L -12.5143 -14.2966 L -12.4463 -14.3558 L -12.378 -14.4148 L -12.3094 -14.4734 L -12.2405 -14.5317 L -12.1714 -14.5896 L -12.102 -14.6473 L -12.0323 -14.7046 L -11.9623 -14.7615 L -11.8921 -14.8182 L -11.8216 -14.8745 L -11.7509 -14.9304 L -11.6798 -14.986 L -11.5759 -14.9525 L -11.4719 -14.9188 L -11.3678 -14.8849 L -11.2635 -14.8509 L -11.1592 -14.8167 L -11.0547 -14.7824 L -10.95 -14.7478 L -10.8452 -14.7131 L -10.7403 -14.6782 L -10.6353 -14.6431 L -10.5301 -14.6079 L -10.4248 -14.5724 L -10.3194 -14.5368 L -10.2138 -14.501 L -10.1081 -14.4649 L -10.0022 -14.4287 L -9.89622 -14.3922 L -9.79007 -14.3556 L -9.68377 -14.3187 L -9.57733 -14.2816 L -9.47073 -14.2443 L -9.36399 -14.2068 L -9.2571 -14.169 L -9.2571 -14.169 L -9.24874 -14.2821 L -9.24023 -14.3949 L -9.23158 -14.5075 L -9.22278 -14.6199 L -9.21384 -14.7321 L -9.20477 -14.844 L -9.19556 -14.9557 L -9.18622 -15.0672 L -9.17675 -15.1785 L -9.16715 -15.2896 L -9.15744 -15.4005 L -9.1476 -15.5111 L -9.13764 -15.6216 L -9.12757 -15.7319 L -9.11738 -15.842 L -9.10709 -15.9519 L -9.09668 -16.0616 L -9.08617 -16.1711 L -9.07555 -16.2804 L -9.06484 -16.3895 L -9.05402 -16.4985 L -9.0431 -16.6073 L -9.03209 -16.7159 L -8.95262 -16.7586 L -8.87294 -16.8009 L -8.79307 -16.8429 L -8.71299 -16.8844 L -8.63272 -16.9256 L -8.55226 -16.9664 L -8.4716 -17.0068 L -8.39075 -17.0469 L -8.30972 -17.0865 L -8.22849 -17.1258 L -8.14708 -17.1646 L -8.06549 -17.2031 L -7.98371 -17.2412 L -7.90176 -17.279 L -7.81962 -17.3163 L -7.73731 -17.3532 L -7.52684 -17.4455 L -7.44392 -17.4811 L -7.36083 -17.5162 L -7.27757 -17.551 L -7.19415 -17.5853 L -7.11057 -17.6193 L -7.02683 -17.6529 L -6.94293 -17.686 L -6.85887 -17.7188 L -6.77466 -17.7512 L -6.6903 -17.7831 L -6.60579 -17.8147 L -6.52112 -17.8459 L -6.43631 -17.8766 L -6.35136 -17.907 L -6.26626 -17.9369 L -6.18102 -17.9665 L -6.09365 -17.901 L -6.00623 -17.8354 L -5.91873 -17.7696 L -5.83118 -17.7035 L -5.74355 -17.6373 L -5.65586 -17.5708 L -5.56811 -17.5042 L -5.48028 -17.4374 L -5.39239 -17.3703 L -5.30444 -17.303 L -5.21642 -17.2355 L -5.12833 -17.1678 L -5.04017 -17.0998 L -4.95194 -17.0317 L -4.86365 -16.9633 L -4.77529 -16.8946 L -4.68686 -16.8257 L -4.59836 -16.7566 L -4.50979 -16.6872 L -4.42116 -16.6176 L -4.33246 -16.5477 L -4.24368 -16.4775 L -4.15484 -16.4071 L -4.15484 -16.4071 L -4.11023 -16.5113 L -4.06554 -16.6153 L -4.0208 -16.719 L -3.97599 -16.8224 L -3.93112 -16.9256 L -3.88619 -17.0285 L -3.84121 -17.1312 L -3.79617 -17.2336 L -3.75108 -17.3358 L -3.70593 -17.4377 L -3.66074 -17.5394 L -3.6155 -17.6409 L -3.57021 -17.7422 L -3.52488 -17.8432 L -3.4795 -17.944 L -3.43408 -18.0446 L -3.38862 -18.145 L -3.34312 -18.2452 L -3.29758 -18.3451 L -3.252 -18.4449 L -3.20639 -18.5444 L -3.16074 -18.6438 L -3.11506 -18.7429 L -3.02603 -18.7575 L -2.93693 -18.7716 L -2.84777 -18.7854 L -2.75854 -18.7987 L -2.66925 -18.8116 L -2.57989 -18.824 L -2.49048 -18.8361 L -2.40102 -18.8477 L -2.31149 -18.8589 L -2.22192 -18.8696 L -2.1323 -18.88 L -2.04263 -18.8899 L -1.95291 -18.8994 L -1.86315 -18.9084 L -1.77335 -18.9171 L -1.6835 -18.9253 L -1.45446 -18.9442 L -1.36449 -18.9509 L -1.27449 -18.9572 L -1.18446 -18.963 L -1.0944 -18.9685 L -1.00432 -18.9734 L -0.914222 -18.978 L -0.824099 -18.9821 L -0.733957 -18.9858 L -0.6438 -18.9891 L -0.553627 -18.9919 L -0.463442 -18.9943 L -0.373247 -18.9963 L -0.283043 -18.9979 L -0.192832 -18.999 L -0.102618 -18.9997 L -0.012401 -19 L 0.048975 -18.9097 L 0.110351 -18.8192 L 0.171725 -18.7286 L 0.233097 -18.6377 L 0.294467 -18.5466 L 0.355833 -18.4553 L 0.417196 -18.3637 L 0.478553 -18.272 L 0.539904 -18.18 L 0.601249 -18.0878 L 0.662586 -17.9954 L 0.723915 -17.9028 L 0.785234 -17.8099 L 0.846542 -17.7167 L 0.907839 -17.6234 L 0.969123 -17.5298 L 1.03039 -17.4359 L 1.09165 -17.3418 L 1.15289 -17.2474 L 1.21411 -17.1527 L 1.27531 -17.0578 L 1.33649 -16.9626 L 1.39766 -16.8672 L 1.39766 -16.8672 L 1.47369 -16.9513 L 1.54971 -17.0351 L 1.6257 -17.1186 L 1.70166 -17.2019 L 1.7776 -17.2849 L 1.85351 -17.3677 L 1.9294 -17.4502 L 2.00525 -17.5324 L 2.08108 -17.6144 L 2.15688 -17.6962 L 2.23266 -17.7777 L 2.3084 -17.859 L 2.38411 -17.9401 L 2.45979 -18.0209 L 2.53545 -18.1016 L 2.61107 -18.182 L 2.68666 -18.2621 L 2.76222 -18.3421 L 2.83774 -18.4218 L 2.91324 -18.5014 L 2.9887 -18.5807 L 3.06413 -18.6599 L 3.13953 -18.7388 L 3.22847 -18.7237 L 3.31734 -18.7082 L 3.40613 -18.6922 L 3.49485 -18.6758 L 3.58349 -18.659 L 3.67205 -18.6418 L 3.76052 -18.6241 L 3.84891 -18.6061 L 3.93721 -18.5876 L 4.02543 -18.5687 L 4.11355 -18.5494 L 4.20158 -18.5296 L 4.28952 -18.5095 L 4.37736 -18.4889 L 4.4651 -18.4679 L 4.55274 -18.4465 L 4.77554 -18.3901 L 4.86281 -18.3672 L 4.94996 -18.3439 L 5.03701 -18.3202 L 5.12394 -18.296 L 5.21076 -18.2715 L 5.29746 -18.2466 L 5.38404 -18.2212 L 5.4705 -18.1954 L 5.55683 -18.1692 L 5.64304 -18.1427 L 5.72912 -18.1157 L 5.81508 -18.0883 L 5.9009 -18.0604 L 5.98659 -18.0322 L 6.07214 -18.0036 L 6.15756 -17.9746 L 6.1863 -17.8692 L 6.21497 -17.7637 L 6.24357 -17.658 L 6.27211 -17.5521 L 6.30058 -17.4461 L 6.32897 -17.3398 L 6.35729 -17.2333 L 6.38553 -17.1266 L 6.4137 -17.0197 L 6.44178 -16.9126 L 6.46979 -16.8052 L 6.49771 -16.6977 L 6.52554 -16.5899 L 6.55329 -16.4819 L 6.58095 -16.3737 L 6.60852 -16.2653 L 6.63599 -16.1566 L 6.66336 -16.0477 L 6.69064 -15.9385 L 6.71781 -15.8291 L 6.74488 -15.7195 L 6.77184 -15.6096 L 6.7987 -15.4995 L 6.7987 -15.4995 L 6.89792 -15.5543 L 6.99702 -15.6089 L 7.09602 -15.6632 L 7.19491 -15.7173 L 7.29369 -15.7712 L 7.39236 -15.8248 L 7.49092 -15.8782 L 7.58938 -15.9314 L 7.68773 -15.9843 L 7.78597 -16.037 L 7.88411 -16.0896 L 7.98214 -16.1419 L 8.08008 -16.1939 L 8.17791 -16.2458 L 8.27563 -16.2975 L 8.37326 -16.349 L 8.47079 -16.4003 L 8.56822 -16.4514 L 8.66555 -16.5023 L 8.76278 -16.553 L 8.85992 -16.6036 L 8.95696 -16.6539 L 9.0539 -16.7041 L 9.13312 -16.6609 L 9.21213 -16.6174 L 9.29093 -16.5734 L 9.36952 -16.5291 L 9.4479 -16.4845 L 9.52606 -16.4394 L 9.60401 -16.394 L 9.68175 -16.3482 L 9.75926 -16.302 L 9.83656 -16.2555 L 9.91363 -16.2086 L 9.99049 -16.1614 L 10.0671 -16.1138 L 10.1435 -16.0658 L 10.2197 -16.0174 L 10.2956 -15.9687 L 10.488 -15.843 L 10.5631 -15.793 L 10.638 -15.7427 L 10.7126 -15.692 L 10.787 -15.641 L 10.8612 -15.5896 L 10.9351 -15.5378 L 11.0087 -15.4857 L 11.0821 -15.4333 L 11.1553 -15.3805 L 11.2282 -15.3273 L 11.3008 -15.2739 L 11.3732 -15.22 L 11.4454 -15.1659 L 11.5173 -15.1113 L 11.5889 -15.0565 L 11.6603 -15.0013 L 11.6532 -14.8923 L 11.6461 -14.7832 L 11.6388 -14.674 L 11.6314 -14.5646 L 11.6239 -14.455 L 11.6163 -14.3452 L 11.6085 -14.2353 L 11.6005 -14.1252 L 11.5925 -14.015 L 11.5842 -13.9045 L 11.5759 -13.7939 L 11.5674 -13.6832 L 11.5587 -13.5722 L 11.5499 -13.461 L 11.5409 -13.3497 L 11.5318 -13.2382 L 11.5225 -13.1265 L 11.513 -13.0146 L 11.5034 -12.9025 L 11.4935 -12.7902 L 11.4835 -12.6777 L 11.4734 -12.565 L 11.463 -12.4521 L 11.463 -12.4521 L 11.5746 -12.4718 L 11.6861 -12.4912 L 11.7974 -12.5105 L 11.9085 -12.5295 L 12.0194 -12.5484 L 12.1301 -12.5671 L 12.2407 -12.5856 L 12.3511 -12.6039 L 12.4613 -12.622 L 12.5713 -12.64 L 12.6812 -12.6578 L 12.7909 -12.6754 L 12.9004 -12.6929 L 13.0098 -12.7102 L 13.119 -12.7274 L 13.2281 -12.7444 L 13.337 -12.7612 L 13.4457 -12.7779 L 13.5543 -12.7944 L 13.6627 -12.8109 L 13.771 -12.8271 L 13.8792 -12.8432 L 13.9872 -12.8592 L 14.0481 -12.7927 L 14.1086 -12.7258 L 14.1689 -12.6587 L 14.2288 -12.5913 L 14.2885 -12.5236 L 14.3478 -12.4556 L 14.4068 -12.3873 L 14.4654 -12.3188 L 14.5237 -12.2499 L 14.5817 -12.1808 L 14.6394 -12.1115 L 14.6968 -12.0418 L 14.7538 -11.9719 L 14.8105 -11.9017 L 14.8668 -11.8312 L 14.9228 -11.7605 L 15.064 -11.5791 L 15.1188 -11.5075 L 15.1733 -11.4356 L 15.2274 -11.3634 L 15.2812 -11.291 L 15.3346 -11.2183 L 15.3877 -11.1453 L 15.4405 -11.0721 L 15.4929 -10.9987 L 15.5449 -10.925 L 15.5966 -10.8511 L 15.648 -10.7769 L 15.6989 -10.7025 L 15.7496 -10.6278 L 15.7999 -10.5529 L 15.8498 -10.4778 L 15.8994 -10.4024 L 15.8574 -10.3016 L 15.8152 -10.2008 L 15.7728 -10.0998 L 15.7303 -9.9987 L 15.6876 -9.8975 L 15.6448 -9.79618 L 15.6017 -9.69475 L 15.5584 -9.59321 L 15.515 -9.49154 L 15.4714 -9.38976 L 15.4276 -9.28786 L 15.3835 -9.18585 L 15.3393 -9.08371 L 15.2949 -8.98144 L 15.2502 -8.87906 L 15.2054 -8.77655 L 15.1603 -8.67391 L 15.115 -8.57115 L 15.0695 -8.46826 L 15.0238 -8.36525 L 14.9778 -8.2621 L 14.9316 -8.15882 L 14.8851 -8.05541 L 14.8851 -8.05541 L 14.9971 -8.03774 L 15.1088 -8.01995 L 15.2203 -8.00203 L 15.3316 -7.98398 L 15.4426 -7.96581 L 15.5534 -7.94752 L 15.664 -7.92912 L 15.7743 -7.9106 L 15.8845 -7.89198 L 15.9944 -7.87324 L 16.1041 -7.8544 L 16.2136 -7.83545 L 16.3228 -7.81641 L 16.4319 -7.79726 L 16.5408 -7.77802 L 16.6494 -7.75869 L 16.7579 -7.73926 L 16.8662 -7.71974 L 16.9742 -7.70013 L 17.0821 -7.68044 L 17.1898 -7.66066 L 17.2973 -7.6408 L 17.4047 -7.62085 L 17.4407 -7.53813 L 17.4763 -7.45523 L 17.5115 -7.37216 L 17.5463 -7.28893 L 17.5807 -7.20553 L 17.6147 -7.12198 L 17.6483 -7.03826 L 17.6815 -6.95438 L 17.7144 -6.87034 L 17.7468 -6.78615 L 17.7788 -6.70181 L 17.8104 -6.61732 L 17.8416 -6.53267 L 17.8725 -6.44788 L 17.9029 -6.36295 L 17.9329 -6.27787 L 18.0075 -6.06049 L 18.0361 -5.97491 L 18.0643 -5.88921 L 18.092 -5.80337 L 18.1194 -5.7174 L 18.1463 -5.6313 L 18.1728 -5.54507 L 18.199 -5.45872 L 18.2247 -5.37224 L 18.25 -5.28565 L 18.2749 -5.19893 L 18.2994 -5.1121 L 18.3234 -5.02515 L 18.3471 -4.93809 L 18.3703 -4.85092 L 18.3931 -4.76363 L 18.4156 -4.67624 L 18.3431 -4.59459 L 18.2705 -4.51288 L 18.1976 -4.43112 L 18.1246 -4.34931 L 18.0513 -4.26746 L 17.9779 -4.18555 L 17.9042 -4.1036 L 17.8304 -4.0216 L 17.7563 -3.93955 L 17.682 -3.85745 L 17.6074 -3.7753 L 17.5327 -3.6931 L 17.4577 -3.61086 L 17.3824 -3.52856 L 17.307 -3.44622 L 17.2313 -3.36383 L 17.1553 -3.28139 L 17.0791 -3.19891 L 17.0026 -3.11637 L 16.9259 -3.03379 L 16.8489 -2.95116 L 16.7717 -2.86849 L 16.6942 -2.78576 L 16.6942 -2.78576 L 16.7943 -2.73269 L 16.8943 -2.67958 L 16.9939 -2.62642 L 17.0933 -2.57323 L 17.1924 -2.51999 L 17.2912 -2.46672 L 17.3899 -2.41341 L 17.4882 -2.36007 L 17.5863 -2.30669 L 17.6842 -2.25328 L 17.7818 -2.19984 L 17.8792 -2.14637 L 17.9764 -2.09288 L 18.0733 -2.03936 L 18.1701 -1.98581 L 18.2666 -1.93224 L 18.3628 -1.87864 L 18.4589 -1.82503 L 18.5548 -1.77139 L 18.6504 -1.71773 L 18.7459 -1.66405 L 18.8411 -1.61036 L 18.9361 -1.55665 L 18.9433 -1.46672 L 18.9501 -1.37675 L 18.9564 -1.28676 L 18.9623 -1.19673 L 18.9677 -1.10668 L 18.9728 -1.01661 L 18.9774 -0.926506 L 18.9816 -0.836386 L 18.9853 -0.746247 L 18.9887 -0.656091 L 18.9916 -0.56592 L 18.994 -0.475737 L 18.9961 -0.385543 L 18.9977 -0.29534 L 18.9989 -0.20513 L 18.9997 -0.114916Z"
id="path1" />
</g>
</svg>
