<?xml version="1.0" encoding="UTF-8" standalone="no"?>
<svg version="1.1">
<g
style="fill:none;stroke:#000000;stroke-opacity:1;stroke-width:0.1">
<path d="M 19.8744 0.148127 L 19.8736 0.234581 L 19.8724 0.321031 L 19.8708 0.407475 L 19.8689 0.493911 L 19.8665 0.580338 L 19.8638 0.666753 L 19.8607 0.753157 L 19.8573 0.839545 L 19.8534 0.925918 L 19.8492 1.01227 L 19.8446 1.09861 L 19.8396 1.18493 L 19.8343 1.27122 L 19.8286 1.35749 L 19.8225 1.44373 L 19.816 1.52995 L 19.8092 1.61613 L 19.7184 1.66504 L 19.6274 1.71393 L 19.5363 1.7628 L 19.445 1.81166 L 19.3535 1.86051 L 19.2618 1.90933 L 19.17 1.95815 L 19.0781 2.00694 L 18.9859 2.05572 L 18.8936 2.10447 L 18.8011 2.15321 L 18.7084 2.20192 L 18.6155 2.25062 L 18.5224 2.29929 L 18.4292 2.34794 L 18.3357 2.39656 L 18.2421 2.44516 L 18.1482 2.49373 L 18.0542 2.54227 L 17.9599 2.59078 L 17.8655 2.63927 L 17.7708 2.68772 L 17.6759 2.73614 L 17.5809 2.78453 L 17.5809 2.78453 L 17.6563 2.85994 L 17.7316 2.93531 L 17.8067 3.01064 L 17.8815 3.08594 L 17.9561 3.16121 L 18.0306 3.23643 L 18.1048 3.31163 L 18.1789 3.38678 L 18.2527 3.4619 L 18.3264 3.53699 L 18.3999 3.61204 L 18.4731 3.68705 L 18.5462 3.76202 L 18.6192 3.83696 L 18.6919 3.91187 L 18.7645 3.98673 L 18.8369 4.06156 L 18.9091 4.13635 L 18.9812 4.21111 L 19.0531 4.28583 L 19.1248 4.36051 L 19.1964 4.43516 L 19.2678 4.50977 L 19.3391 4.58434 L 19.3189 4.66842 L 19.2984 4.75242 L 19.2776 4.83632 L 19.2564 4.92014 L 19.2348 5.00386 L 19.2128 5.08748 L 19.1905 5.17101 L 19.1678 5.25444 L 19.1448 5.33778 L 19.1214 5.42101 L 19.0976 5.50414 L 19.0735 5.58716 L 19.049 5.67008 L 19.0242 5.75289 L 18.999 5.83559 L 18.9734 5.91818 L 18.9475 6.00066 L 18.8559 6.28242 L 18.8284 6.36439 L 18.8006 6.44623 L 18.7724 6.52795 L 18.7438 6.60955 L 18.7149 6.69103 L 18.6856 6.77238 L 18.6559 6.8536 L 18.6259 6.93469 L 18.5956 7.01564 L 18.5649 7.09647 L 18.5339 7.17716 L 18.5025 7.25772 L 18.4707 7.33814 L 18.4386 7.41842 L 18.4062 7.49856 L 18.3734 7.57855 L 18.3402 7.65841 L 18.2388 7.67685 L 18.1371 7.69524 L 18.0353 7.71356 L 17.9334 7.73181 L 17.8313 7.75 L 17.7291 7.76812 L 17.6267 7.78618 L 17.5241 7.80416 L 17.4214 7.82207 L 17.3185 7.83991 L 17.2155 7.85767 L 17.1123 7.87536 L 17.0089 7.89297 L 16.9053 7.91049 L 16.8016 7.92794 L 16.6977 7.94531 L 16.5936 7.96259 L 16.4894 7.97978 L 16.3849 7.99689 L 16.2803 8.01391 L 16.1755 8.03083 L 16.0705 8.04766 L 15.9653 8.06439 L 15.8599 8.08103 L 15.8599 8.08103 L 15.9084 8.17607 L 15.9567 8.27101 L 16.0048 8.36585 L 16.0527 8.46059 L 16.1004 8.55524 L 16.148 8.64979 L 16.1954 8.74424 L 16.2426 8.8386 L 16.2896 8.93287 L 16.3364 9.02704 L 16.3831 9.12112 L 16.4296 9.21511 L 16.476 9.309 L 16.5222 9.40281 L 16.5682 9.49653 L 16.6141 9.59016 L 16.6599 9.68369 L 16.7054 9.77715 L 16.7509 9.87051 L 16.7962 9.96379 L 16.8413 10.057 L 16.8863 10.1501 L 16.9312 10.2431 L 16.9759 10.3361 L 16.9308 10.4098 L 16.8853 10.4834 L 16.8396 10.5567 L 16.7935 10.6299 L 16.7471 10.7028 L 16.7004 10.7756 L 16.6533 10.8481 L 16.606 10.9205 L 16.5583 10.9926 L 16.5104 11.0645 L 16.4621 11.1362 L 16.4135 11.2077 L 16.3646 11.279 L 16.3153 11.3501 L 16.2658 11.421 L 16.216 11.4916 L 16.1658 11.5621 L 15.9917 11.8017 L 15.9402 11.8712 L 15.8884 11.9404 L 15.8363 12.0094 L 15.7839 12.0782 L 15.7312 12.1468 L 15.6783 12.2151 L 15.625 12.2832 L 15.5714 12.351 L 15.5175 12.4186 L 15.4633 12.486 L 15.4089 12.5532 L 15.3541 12.6201 L 15.2991 12.6867 L 15.2438 12.7532 L 15.1881 12.8194 L 15.1322 12.8853 L 15.076 12.951 L 14.9738 12.9372 L 14.8715 12.9233 L 14.769 12.9093 L 14.6664 12.8951 L 14.5637 12.8809 L 14.4609 12.8665 L 14.3579 12.852 L 14.2548 12.8375 L 14.1516 12.8227 L 14.0482 12.8079 L 13.9448 12.793 L 13.8411 12.7779 L 13.7374 12.7627 L 13.6335 12.7474 L 13.5294 12.7319 L 13.4252 12.7163 L 13.3209 12.7006 L 13.2164 12.6847 L 13.1118 12.6687 L 13.0071 12.6526 L 12.9022 12.6363 L 12.7971 12.6198 L 12.6919 12.6032 L 12.5865 12.5865 L 12.5865 12.5865 L 12.6032 12.6919 L 12.6198 12.7971 L 12.6363 12.9022 L 12.6526 13.0071 L 12.6687 13.1118 L 12.6847 13.2164 L 12.7006 13.3209 L 12.7163 13.4252 L 12.7319 13.5294 L 12.7474 13.6335 L 12.7627 13.7374 L 12.7779 13.8411 L 12.793 13.9448 L 12.8079 14.0482 L 12.8227 14.1516 L 12.8375 14.2548 L 12.852 14.3579 L 12.8665 14.4609 L 12.8809 14.5637 L 12.8951 14.6664 L 12.9093 14.769 L 12.9233 14.8715 L 12.9372 14.9738 L 12.951 15.076 L 12.8853 15.1322 L 12.8194 15.1881 L 12.7532 15.2438 L 12.6867 15.2991 L 12.6201 15.3541 L 12.5532 15.4089 L 12.486 15.4633 L 12.4186 15.5175 L 12.351 15.5714 L 12.2832 15.625 L 12.2151 15.6783 L 12.1468 15.7312 L 12.0782 15.7839 L 12.0094 15.8363 L 11.9404 15.8884 L 11.8712 15.9402 L 11.8017 15.9917 L 11.5621 16.1658 L 11.4916 16.216 L 11.421 16.2658 L 11.3501 16.3153 L 11.279 16.3646 L 11.2077 16.4135 L 11.1362 16.4621 L 11.0645 16.5104 L 10.9926 16.5583 L 10.9205 16.606 L 10.8481 16.6533 L 10.7756 16.7004 L 10.7028 16.7471 L 10.6299 16.7935 L 10.5567 16.8396 L 10.4834 16.8853 L 10.4098 16.9308 L 10.3361 16.9759 L 10.2431 16.9312 L 10.1501 16.8863 L 10.057 16.8413 L 9.96379 16.7962 L 9.87051 16.7509 L 9.77715 16.7054 L 9.68369 16.6599 L 9.59016 16.6141 L 9.49653 16.5682 L 9.40281 16.5222 L 9.309 16.476 L 9.21511 16.4296 L 9.12112 16.3831 L 9.02704 16.3364 L 8.93287 16.2896 L 8.8386 16.2426 L 8.74424 16.1954 L 8.64979 16.148 L 8.55524 16.1004 L 8.46059 16.0527 L 8.36585 16.0048 L 8.27101 15.9567 L 8.17607 15.9084 L 8.08103 15.8599 L 8.08103 15.8599 L 8.06439 15.9653 L 8.04766 16.0705 L 8.03083 16.1755 L 8.01391 16.2803 L 7.99689 16.3849 L 7.97978 16.4894 L 7.96259 16.5936 L 7.94531 16.6977 L 7.92794 16.8016 L 7.91049 16.9053 L 7.89297 17.0089 L 7.87536 17.1123 L 7.85767 17.2155 L 7.83991 17.3185 L 7.82207 17.4214 L 7.80416 17.5241 L 7.78618 17.6267 L 7.76812 17.7291 L 7.75 17.8313 L 7.73181 17.9334 L 7.71356 18.0353 L 7.69524 18.1371 L 7.67685 18.2388 L 7.65841 18.3402 L 7.57855 18.3734 L 7.49856 18.4062 L 7.41842 18.4386 L 7.33814 18.4707 L 7.25772 18.5025 L 7.17716 18.5339 L 7.09647 18.5649 L 7.01564 18.5956 L 6.93469 18.6259 L 6.8536 18.6559 L 6.77238 18.6856 L 6.69103 18.7149 L 6.60955 18.7438 L 6.52795 18.7724 L 6.44623 18.8006 L 6.36439 18.8284 L 6.28242 18.8559 L 6.00066 18.9475 L 5.91818 18.9734 L 5.83559 18.999 L 5.75289 19.0242 L 5.67008 19.049 L 5.58716 19.0735 L 5.50414 19.0976 L 5.42101 19.1214 L 5.33778 19.1448 L 5.25444 19.1678 L 5.17101 19.1905 L 5.08748 19.2128 L 5.00386 19.2348 L 4.92014 19.2564 L 4.83632 19.2776 L 4.75242 19.2984 L 4.66842 19.3189 L 4.58434 19.3391 L 4.50977 19.2678 L 4.43516 19.1964 L 4.36051 19.1248 L 4.28583 19.0531 L 4.21111 18.9812 L 4.13635 18.9091 L 4.06156 18.8369 L 3.98673 18.7645 L 3.91187 18.6919 L 3.83696 18.6192 L 3.76202 18.5462 L 3.68705 18.4731 L 3.61204 18.3999 L 3.53699 18.3264 L 3.4619 18.2527 L 3.38678 18.1789 L 3.31163 18.1048 L 3.23643 18.0306 L 3.16121 17.9561 L 3.08594 17.8815 L 3.01064 17.8067 L 2.93531 17.7316 L 2.85994 17.6563 L 2.78453 17.5809 L 2.78453 17.5809 L 2.73614 17.6759 L 2.68772 17.7708 L 2.63927 17.8655 L 2.59078 17.9599 L 2.54227 18.0542 L 2.49373 18.1482 L 2.44516 18.2421 L 2.39656 18.3357 L 2.34794 18.4292 L 2.29929 18.5224 L 2.25062 18.6155 L 2.20192 18.7084 L 2.15321 18.8011 L 2.10447 18.8936 L 2.05572 18.9859 L 2.00694 19.0781 L 1.95815 19.17 L 1.90933 19.2618 L 1.86051 19.3535 L 1.81166 19.445 L 1.7628 19.5363 L 1.71393 19.6274 L 1.66504 19.7184 L 1.61613 19.8092 L 1.52995 19.816 L 1.44373 19.8225 L 1.35749 19.8286 L 1.27122 19.8343 L 1.18493 19.8396 L 1.09861 19.8446 L 1.01227 19.8492 L 0.925918 19.8534 L 0.839545 19.8573 L 0.753157 19.8607 L 0.666753 19.8638 L 0.580338 19.8665 L 0.493911 19.8689 L 0.407475 19.8708 L 0.321031 19.8724 L 0.234581 19.8736 L 0.148127 19.8744 L -0.148127 19.8744 L -0.234581 19.8736 L -0.321031 19.8724 L -0.407475 19.8708 L -0.493911 19.8689 L -0.580338 19.8665 L -0.666753 19.8638 L -0.753157 19.8607 L -0.839545 19.8573 L -0.925918 19.8534 L -1.01227 19.8492 L -1.09861 19.8446 L -1.18493 19.8396 L -1.27122 19.8343 L -1.35749 19.8286 L -1.44373 19.8225 L -1.52995 19.816 L -1.61613 19.8092 L -1.66504 19.7184 L -1.71393 19.6274 L -1.7628 19.5363 L -1.81166 19.445 L -1.86051 19.3535 L -1.90933 19.2618 L -1.95815 19.17 L -2.00694 19.0781 L -2.05572 18.9859 L -2.10447 18.8936 L -2.15321 18.8011 L -2.20192 18.7084 L -2.25062 18.6155 L -2.29929 18.5224 L -2.34794 18.4292 L -2.39656 18.3357 L -2.44516 18.2421 L -2.49373 18.1482 L -2.54227 18.0542 L -2.59078 17.9599 L -2.63927 17.8655 L -2.68772 17.7708 L -2.73614 17.6759 L -2.78453 17.5809 L -2.78453 17.5809 L -2.85994 17.6563 L -2.93531 17.7316 L -3.01064 17.8067 L -3.08594 17.8815 L -3.16121 17.9561 L -3.23643 18.0306 L -3.31163 18.1048 L -3.38678 18.1789 L -3.4619 18.2527 L -3.53699 18.3264 L -3.61204 18.3999 L -3.68705 18.4731 L -3.76202 18.5462 L -3.83696 18.6192 L -3.91187 18.6919 L -3.98673 18.7645 L -4.06156 18.8369 L -4.13635 18.9091 L -4.21111 18.9812 L -4.28583 19.0531 L -4.36051 19.1248 L -4.43516 19.1964 L -4.50977 19.2678 L -4.58434 19.3391 L -4.66842 19.3189 L -4.75242 19.2984 L -4.83632 19.2776 L -4.92014 19.2564 L -5.00386 19.2348 L -5.08748 19.2128 L -5.17101 19.1905 L -5.25444 19.1678 L -5.33778 19.1448 L -5.42101 19.1214 L -5.50414 19.0976 L -5.58716 19.0735 L -5.67008 19.049 L -5.75289 19.0242 L -5.83559 18.999 L -5.91818 18.9734 L -6.00066 18.9475 L -6.28242 18.8559 L -6.36439 18.8284 L -6.44623 18.8006 L -6.52795 18.7724 L -6.60955 18.7438 L -6.69103 18.7149 L -6.77238 18.6856 L -6.8536 18.6559 L -6.93469 18.6259 L -7.01564 18.5956 L -7.09647 18.5649 L -7.17716 18.5339 L -7.25772 18.5025 L -7.33814 18.4707 L -7.41842 18.4386 L -7.49856 18.4062 L -7.57855 18.3734 L -7.65841 18.3402 L -7.67685 18.2388 L -7.69524 18.1371 L -7.71356 18.0353 L -7.73181 17.9334 L -7.75 17.8313 L -7.76812 17.7291 L -7.78618 17.6267 L -7.80416 17.5241 L -7.82207 17.4214 L -7.83991 17.3185 L -7.85767 17.2155 L -7.87536 17.1123 L -7.89297 17.0089 L -7.91049 16.9053 L -7.92794 16.8016 L -7.94531 16.6977 L -7.96259 16.5936 L -7.97978 16.4894 L -7.99689 16.3849 L -8.01391 16.2803 L -8.03083 16.1755 L -8.04766 16.0705 L -8.06439 15.9653 L -8.08103 15.8599 L -8.08103 15.8599 L -8.17607 15.9084 L -8.27101 15.9567 L -8.36585 16.0048 L -8.46059 16.0527 L -8.55524 16.1004 L -8.64979 16.148 L -8.74424 16.1954 L -8.8386 16.2426 L -8.93287 16.2896 L -9.02704 16.3364 L -9.12112 16.3831 L -9.21511 16.4296 L -9.309 16.476 L -9.40281 16.5222 L -9.49653 16.5682 L -9.59016 16.6141 L -9.68369 16.6599 L -9.77715 16.7054 L -9.87051 16.7509 L -9.96379 16.7962 L -10.057 16.8413 L -10.1501 16.8863 L -10.2431 16.9312 L -10.3361 16.9759 L -10.4098 16.9308 L -10.4834 16.8853 L -10.5567 16.8396 L -10.6299 16.7935 L -10.7028 16.7471 L -10.7756 16.7004 L -10.8481 16.6533 L -10.9205 16.606 L -10.9926 16.5583 L -11.0645 16.5104 L -11.1362 16.4621 L -11.2077 16.4135 L -11.279 16.3646 L -11.3501 16.3153 L -11.421 16.2658 L -11.4916 16.216 L -11.5621 16.1658 L -11.8017 15.9917 L -11.8712 15.9402 L -11.9404 15.8884 L -12.0094 15.8363 L -12.0782 15.7839 L -12.1468 15.7312 L -12.2151 15.6783 L -12.2832 15.625 L -12.351 15.5714 L -12.4186 15.5175 L -12.486 15.4633 L -12.5532 15.4089 L -12.6201 15.3541 L -12.6867 15.2991 L -12.7532 15.2438 L -12.8194 15.1881 L -12.8853 15.1322 L -12.951 15.076 L -12.9372 14.9738 L -12.9233 14.8715 L -12.9093 14.769 L -12.8951 14.6664 L -12.8809 14.5637 L -12.8665 14.4609 L -12.852 14.3579 L -12.8375 14.2548 L -12.8227 14.1516 L -12.8079 14.0482 L -12.793 13.9448 L -12.7779 13.8411 L -12.7627 13.7374 L -12.7474 13.6335 L -12.7319 13.5294 L -12.7163 13.4252 L -12.7006 13.3209 L -12.6847 13.2164 L -12.6687 13.1118 L -12.6526 13.0071 L -12.6363 12.9022 L -12.6198 12.7971 L -12.6032 12.6919 L -12.5865 12.5865 L -12.5865 12.5865 L -12.6919 12.6032 L -12.7971 12.6198 L -12.9022 12.6363 L -13.0071 12.6526 L -13.1118 12.6687 L -13.2164 12.6847 L -13.3209 12.7006 L -13.4252 12.7163 L -13.5294 12.7319 L -13.6335 12.7474 L -13.7374 12.7627 L -13.8411 12.7779 L -13.9448 12.793 L -14.0482 12.8079 L -14.1516 12.8227 L -14.2548 12.8375 L -14.3579 12.852 L -14.4609 12.8665 L -14.5637 12.8809 L -14.6664 12.8951 L -14.769 12.9093 L -14.8715 12.9233 L -14.9738 12.9372 L -15.076 12.951 L -15.1322 12.8853 L -15.1881 12.8194 L -15.2438 12.7532 L -15.2991 12.6867 L -15.3541 12.6201 L -15.4089 12.5532 L -15.4633 12.486 L -15.5175 12.4186 L -15.5714 12.351 L -15.625 12.2832 L -15.6783 12.2151 L -15.7312 12.1468 L -15.7839 12.0782 L -15.8363 12.0094 L -15.8884 11.9404 L -15.9402 11.8712 L -15.9917 11.8017 L -16.1658 11.5621 L -16.216 11.4916 L -16.2658 11.421 L -16.3153 11.3501 L -16.3646 11.279 L -16.4135 11.2077 L -16.4621 11.1362 L -16.5104 11.0645 L -16.5583 10.9926 L -16.606 10.9205 L -16.6533 10.8481 L -16.7004 10.7756 L -16.7471 10.7028 L -16.7935 10.6299 L -16.8396 10.5567 L -16.8853 10.4834 L -16.9308 10.4098 L -16.9759 10.3361 L -16.9312 10.2431 L -16.8863 10.1501 L -16.8413 10.057 L -16.7962 9.96379 L -16.7509 9.87051 L -16.7054 9.77715 L -16.6599 9.68369 L -16.6141 9.59016 L -16.5682 9.49653 L -16.5222 9.40281 L -16.476 9.309 L -16.4296 9.21511 L -16.3831 9.12112 L -16.3364 9.02704 L -16.2896 8.93287 L -16.2426 8.8386 L -16.1954 8.74424 L -16.148 8.64979 L -16.1004 8.55524 L -16.0527 8.46059 L -16.0048 8.36585 L -15.9567 8.27101 L -15.9084 8.17607 L -15.8599 8.08103 L -15.8599 8.08103 L -15.9653 8.06439 L -16.0705 8.04766 L -16.1755 8.03083 L -16.2803 8.01391 L -16.3849 7.99689 L -16.4894 7.97978 L -16.5936 7.96259 L -16.6977 7.94531 L -16.8016 7.92794 L -16.9053 7.91049 L -17.0089 7.89297 L -17.1123 7.87536 L -17.2155 7.85767 L -17.3185 7.83991 L -17.4214 7.82207 L -17.5241 7.80416 L -17.6267 7.78618 L -17.7291 7.76812 L -17.8313 7.75 L -17.9334 7.73181 L -18.0353 7.71356 L -18.1371 7.69524 L -18.2388 7.67685 L -18.3402 7.65841 L -18.3734 7.57855 L -18.4062 7.49856 L -18.4386 7.41842 L -18.4707 7.33814 L -18.5025 7.25772 L -18.5339 7.17716 L -18.5649 7.09647 L -18.5956 7.01564 L -18.6259 6.93469 L -18.6559 6.8536 L -18.6856 6.77238 L -18.7149 6.69103 L -18.7438 6.60955 L -18.7724 6.52795 L -18.8006 6.44623 L -18.8284 6.36439 L -18.8559 6.28242 L -18.9475 6.00066 L -18.9734 5.91818 L -18.999 5.83559 L -19.0242 5.75289 L -19.049 5.67008 L -19.0735 5.58716 L -19.0976 5.50414 L -19.1214 5.42101 L -19.1448 5.33778 L -19.1678 5.25444 L -19.1905 5.17101 L -19.2128 5.08748 L -19.2348 5.00386 L -19.2564 4.92014 L -19.2776 4.83632 L -19.2984 4.75242 L -19.3189 4.66842 L -19.3391 4.58434 L -19.2678 4.50977 L -19.1964 4.43516 L -19.1248 4.36051 L -19.0531 4.28583 L -18.9812 4.21111 L -18.9091 4.13635 L -18.8369 4.06156 L -18.7645 3.98673 L -18.6919 3.91187 L -18.6192 3.83696 L -18.5462 3.76202 L -18.4731 3.68705 L -18.3999 3.61204 L -18.3264 3.53699 L -18.2527 3.4619 L -18.1789 3.38678 L -18.1048 3.31163 L -18.0306 3.23643 L -17.9561 3.16121 L -17.8815 3.08594 L -17.8067 3.01064 L -17.7316 2.93531 L -17.6563 2.85994 L -17.5809 2.78453 L -17.5809 2.78453 L -17.6759 2.73614 L -17.7708 2.68772 L -17.8655 2.63927 L -17.9599 2.59078 L -18.0542 2.54227 L -18.1482 2.49373 L -18.2421 2.44516 L -18.3357 2.39656 L -18.4292 2.34794 L -18.5224 2.29929 L -18.6155 2.25062 L -18.7084 2.20192 L -18.8011 2.15321 L -18.8936 2.10447 L -18.9859 2.05572 L -19.0781 2.00694 L -19.17 1.95815 L -19.2618 1.90933 L -19.3535 1.86051 L -19.445 1.81166 L -19.5363 1.7628 L -19.6274 1.71393 L -19.7184 1.66504 L -19.8092 1.61613 L -19.816 1.52995 L -19.8225 1.44373 L -19.8286 1.35749 L -19.8343 1.27122 L -19.8396 1.18493 L -19.8446 1.09861 L -19.8492 1.01227 L -19.8534 0.925918 L -19.8573 0.839545 L -19.8607 0.753157 L -19.8638 0.666753 L -19.8665 0.580338 L -19.8689 0.493911 L -19.8708 0.407475 L -19.8724 0.321031 L -19.8736 0.234581 L -19.8744 0.148127 L -19.8744 -0.148127 L -19.8736 -0.234581 L -19.8724 -0.321031 L -19.8708 -0.407475 L -19.8689 -0.493911 L -19.8665 -0.580338 L -19.8638 -0.666753 L -19.8607 -0.753157 L -19.8573 -0.839545 L -19.8534 -0.925918 L -19.8492 -1.01227 L -19.8446 -1.09861 L -19.8396 -1.18493 L -19.8343 -1.27122 L -19.8286 -1.35749 L -19.8225 -1.44373 L -19.816 -1.52995 L -19.8092 -1.61613 L -19.7184 -1.66504 L -19.6274 -1.71393 L -19.5363 -1.7628 L -19.445 -1.81166 L -19.3535 -1.86051 L -19.2618 -1.90933 L -19.17 -1.95815 L -19.0781 -2.00694 L -18.9859 -2.05572 L -18.8936 -2.10447 L -18.8011 -2.15321 L -18.7084 -2.20192 L -18.6155 -2.25062 L -18.5224 -2.29929 L -18.4292 -2.34794 L -18.3357 -2.39656 L -18.2421 -2.44516 L -18.1482 -2.49373 L -18.0542 -2.54227 L -17.9599 -2.59078 L -17.8655 -2.63927 L -17.7708 -2.68772 L -17.6759 -2.73614 L -17.5809 -2.78453 L -17.5809 -2.78453 L -17.6563 -2.85994 L -17.7316 -2.93531 L -17.8067 -3.01064 L -17.8815 -3.08594 L -17.9561 -3.16121 L -18.0306 -3.23643 L -18.1048 -3.31163 L -18.1789 -3.38678 L -18.2527 -3.4619 L -18.3264 -3.53699 L -18.3999 -3.61204 L -18.4731 -3.68705 L -18.5462 -3.76202 L -18.6192 -3.83696 L -18.6919 -3.91187 L -18.7645 -3.98673 L -18.8369 -4.06156 L -18.9091 -4.13635 L -18.9812 -4.21111 L -19.0531 -4.28583 L -19.1248 -4.36051 L -19.1964 -4.43516 L -19.2678 -4.50977 L -19.3391 -4.58434 L -19.3189 -4.66842 L -19.2984 -4.75242 L -19.2776 -4.83632 L -19.2564 -4.92014 L -19.2348 -5.00386 L -19.2128 -5.08748 L -19.1905 -5.17101 L -19.1678 -5.25444 L -19.1448 -5.33778 L -19.1214 -5.42101 L -19.0976 -5.50414 L -19.0735 -5.58716 L -19.049 -5.67008 L -19.0242 -5.75289 L -18.999 -5.83559 L -18.9734 -5.91818 L -18.9475 -6.00066 L -18.8559 -6.28242 L -18.8284 -6.36439 L -18.8006 -6.44623 L -18.7724 -6.52795 L -18.7438 -6.60955 L -18.7149 -6.69103 L -18.6856 -6.77238 L -18.6559 -6.8536 L -18.6259 -6.93469 L -18.5956 -7.01564 L -18.5649 -7.09647 L -18.5339 -7.17716 L -18.5025 -7.25772 L -18.4707 -7.33814 L -18.4386 -7.41842 L -18.4062 -7.49856 L -18.3734 -7.57855 L -18.3402 -7.65841 L -18.2388 -7.67685 L -18.1371 -7.69524 L -18.0353 -7.71356 L -17.9334 -7.73181 L -17.8313 -7.75 L -17.7291 -7.76812 L -17.6267 -7.78618 L -17.5241 -7.80416 L -17.4214 -7.82207 L -17.3185 -7.83991 L -17.2155 -7.85767 L -17.1123 -7.87536 L -17.0089 -7.89297 L -16.9053 -7.91049 L -16.8016 -7.92794 L -16.6977 -7.94531 L -16.5936 -7.96259 L -16.4894 -7.97978 L -16.3849 -7.99689 L -16.2803 -8.01391 L -16.1755 -8.03083 L -16.0705 -8.04766 L -15.9653 -8.06439 L -15.8599 -8.08103 L -15.8599 -8.08103 L -15.9084 -8.17607 L -15.9567 -8.27101 L -16.0048 -8.36585 L -16.0527 -8.46059 L -16.1004 -8.55524 L -16.148 -8.64979 L -16.1954 -8.74424 L -16.2426 -8.8386 L -16.2896 -8.93287 L -16.3364 -9.02704 L -16.3831 -9.12112 L -16.4296 -9.21511 L -16.476 -9.309 L -16.5222 -9.40281 L -16.5682 -9.49653 L -16.6141 -9.59016 L -16.6599 -9.68369 L -16.7054 -9.77715 L -16.7509 -9.87051 L -16.7962 -9.96379 L -16.8413 -10.057 L -16.8863 -10.1501 L -16.9312 -10.2431 L -16.9759 -10.3361 L -16.9308 -10.4098 L -16.8853 -10.4834 L -16.8396 -10.5567 L -16.7935 -10.6299 L -16.7471 -10.7028 L -16.7004 -10.7756 L -16.6533 -10.8481 L -16.606 -10.9205 L -16.5583 -10.9926 L -16.5104 -11.0645 L -16.4621 -11.1362 L -16.4135 -11.2077 L -16.3646 -11.279 L -16.3153 -11.3501 L -16.2658 -11.421 L -16.216 -11.4916 L -16.1658 -11.5621 L -15.9917 -11.8017 L -15.9402 -11.8712 L -15.8884 -11.9404 L -15.8363 -12.0094 L -15.7839 -12.0782 L -15.7312 -12.1468 L -15.6783 -12.2151 L -15.625 -12.2832 L -15.5714 -12.351 L -15.5175 -12.4186 L -15.4633 -12.486 L -15.4089 -12.5532 L -15.3541 -12.6201 L -15.2991 -12.6867 L -15.2438 -12.7532 L -15.1881 -12.8194 L -15.1322 -12.8853 L -15.076 -12.951 L -14.9738 -12.9372 L -14.8715 -12.9233 L -14.769 -12.9093 L -14.6664 -12.8951 L -14.5637 -12.8809 L -14.4609 -12.8665 L -14.3579 -12.852 L -14.2548 -12.8375 L -14.1516 -12.8227 L -14.0482 -12.8079 L -13.9448 -12.793 L -13.8411 -12.7779 L -13.7374 -12.7627 L -13.6335 -12.7474 L -13.5294 -12.7319 L -13.4252 -12.7163 L -13.3209 -12.7006 L -13.2164 -12.6847 L -13.1118 -12.6687 L -13.0071 -12.6526 L -12.9022 -12.6363 L -12.7971 -12.6198 L -12.6919 -12.6032 L -12.5865 -12.5865 L -12.5865 -12.5865 L -12.6032 -12.6919 L -12.6198 -12.7971 L -12.6363 -12.9022 L -12.6526 -13.0071 L -12.6687 -13.1118 L -12.6847 -13.2164 L -12.7006 -13.3209 L -12.7163 -13.4252 L -12.7319 -13.5294 L -12.7474 -13.6335 L -12.7627 -13.7374 L -12.7779 -13.8411 L -12.793 -13.9448 L -12.8079 -14.0482 L -12.8227 -14.1516 L -12.8375 -14.2548 L -12.852 -14.3579 L -12.8665 -14.4609 L -12.8809 -14.5637 L -12.8951 -14.6664 L -12.9093 -14.769 L -12.9233 -14.8715 L -12.9372 -14.9738 L -12.951 -15.076 L -12.8853 -15.1322 L -12.8194 -15.1881 L -12.7532 -15.2438 L -12.6867 -15.2991 L -12.6201 -15.3541 L -12.5532 -15.4089 L -12.486 -15.4633 L -12.4186 -15.5175 L -12.351 -15.5714 L -12.2832 -15.625 L -12.2151 -15.6783 L -12.1468 -15.7312 L -12.0782 -15.7839 L -12.0094 -15.8363 L -11.9404 -15.8884 L -11.8712 -15.9402 L -11.8017 -15.9917 L -11.5621 -16.1658 L -11.4916 -16.216 L -11.421 -16.2658 L -11.3501 -16.3153 L -11.279 -16.3646 L -11.2077 -16.4135 L -11.1362 -16.4621 L -11.0645 -16.5104 L -10.9926 -16.5583 L -10.9205 -16.606 L -10.8481 -16.6533 L -10.7756 -16.7004 L -10.7028 -16.7471 L -10.6299 -16.7935 L -10.5567 -16.8396 L -10.4834 -16.8853 L -10.4098 -16.9308 L -10.3361 -16.9759 L -10.2431 -16.9312 L -10.1501 -16.8863 L -10.057 -16.8413 L -9.96379 -16.7962 L -9.87051 -16.7509 L -9.77715 -16.7054 L -9.68369 -16.6599 L -9.59016 -16.6141 L -9.49653 -16.5682 L -9.40281 -16.5222 L -9.309 -16.476 L -9.21511 -16.4296 L -9.12112 -16.3831 L -9.02704 -16.3364 L -8.93287 -16.2896 L -8.8386 -16.2426 L -8.74424 -16.1954 L -8.64979 -16.148 L -8.55524 -16.1004 L -8.46059 -16.0527 L -8.36585 -16.0048 L -8.27101 -15.9567 L -8.17607 -15.9084 L -8.08103 -15.8599 L -8.08103 -15.8599 L -8.06439 -15.9653 L -8.04766 -16.0705 L -8.03083 -16.1755 L -8.01391 -16.2803 L -7.99689 -16.3849 L -7.97978 -16.4894 L -7.96259 -16.5936 L -7.94531 -16.6977 L -7.92794 -16.8016 L -7.91049 -16.9053 L -7.89297 -17.0089 L -7.87536 -17.1123 L -7.85767 -17.2155 L -7.83991 -17.3185 L -7.82207 -17.4214 L -7.80416 -17.5241 L -7.78618 -17.6267 L -7.76812 -17.7291 L -7.75 -17.8313 L -7.73181 -17.9334 L -7.71356 -18.0353 L -7.69524 -18.1371 L -7.67685 -18.2388 L -7.65841 -18.3402 L -7.57855 -18.3734 L -7.49856 -18.4062 L -7.41842 -18.4386 L -7.33814 -18.4707 L -7.25772 -18.5025 L -7.17716 -18.5339 L -7.09647 -18.5649 L -7.01564 -18.5956 L -6.93469 -18.6259 L -6.8536 -18.6559 L -6.77238 -18.6856 L -6.69103 -18.7149 L -6.60955 -18.7438 L -6.52795 -18.7724 L -6.44623 -18.8006 L -6.36439 -18.8284 L -6.28242 -18.8559 L -6.00066 -18.9475 L -5.91818 -18.9734 L -5.83559 -18.999 L -5.75289 -19.0242 L -5.67008 -19.049 L -5.58716 -19.0735 L -5.50414 -19.0976 L -5.42101 -19.1214 L -5.33778 -19.1448 L -5.25444 -19.1678 L -5.17101 -19.1905 L -5.08748 -19.2128 L -5.00386 -19.2348 L -4.92014 -19.2564 L -4.83632 -19.2776 L -4.75242 -19.2984 L -4.66842 -19.3189 L -4.58434 -19.3391 L -4.50977 -19.2678 L -4.43516 -19.1964 L -4.36051 -19.1248 L -4.28583 -19.0531 L -4.21111 -18.9812 L -4.13635 -18.9091 L -4.06156 -18.8369 L -3.98673 -18.7645 L -3.91187 -18.6919 L -3.83696 -18.6192 L -3.76202 -18.5462 L -3.68705 -18.4731 L -3.61204 -18.3999 L -3.53699 -18.3264 L -3.4619 -18.2527 L -3.38678 -18.1789 L -3.31163 -18.1048 L -3.23643 -18.0306 L -3.16121 -17.9561 L -3.08594 -17.8815 L -3.01064 -17.8067 L -2.93531 -17.7316 L -2.85994 -17.6563 L -2.78453 -17.5809 L -2.78453 -17.5809 L -2.73614 -17.6759 L -2.68772 -17.7708 L -2.63927 -17.8655 L -2.59078 -17.9599 L -2.54227 -18.0542 L -2.49373 -18.1482 L -2.44516 -18.2421 L -2.39656 -18.3357 L -2.34794 -18.4292 L -2.29929 -18.5224 L -2.25062 -18.6155 L -2.20192 -18.7084 L -2.15321 -18.8011 L -2.10447 -18.8936 L -2.05572 -18.9859 L -2.00694 -19.0781 L -1.95815 -19.17 L -1.90933 -19.2618 L -1.86051 -19.3535 L -1.81166 -19.445 L -1.7628 -19.5363 L -1.71393 -19.6274 L -1.66504 -19.7184 L -1.61613 -19.8092 L -1.52995 -19.816 L -1.44373 -19.8225 L -1.35749 -19.8286 L -1.27122 -19.8343 L -1.18493 -19.8396 L -1.09861 -19.8446 L -1.01227 -19.8492 L -0.925918 -19.8534 L -0.839545 -19.8573 L -0.753157 -19.8607 L -0.666753 -19.8638 L -0.580338 -19.8665 L -0.493911 -19.8689 L -0.407475 -19.8708 L -0.321031 -19.8724 L -0.234581 -19.8736 L -0.148127 -19.8744 L 0.148127 -19.8744 L 0.234581 -19.8736 L 0.321031 -19.8724 L 0.407475 -19.8708 L 0.493911 -19.8689 L 0.580338 -19.8665 L 0.666753 -19.8638 L 0.753157 -19.8607 L 0.839545 -19.8573 L 0.925918 -19.8534 L 1.01227 -19.8492 L 1.09861 -19.8446 L 1.18493 -19.8396 L 1.27122 -19.8343 L 1.35749 -19.8286 L 1.44373 -19.8225 L 1.52995 -19.816 L 1.61613 -19.8092 L 1.66504 -19.7184 L 1.71393 -19.6274 L 1.7628 -19.5363 L 1.81166 -19.445 L 1.86051 -19.3535 L 1.90933 -19.2618 L 1.95815 -19.17 L 2.00694 -19.0781 L 2.05572 -18.9859 L 2.10447 -18.8936 L 2.15321 -18.8011 L 2.20192 -18.7084 L 2.25062 -18.6155 L 2.29929 -18.5224 L 2.34794 -18.4292 L 2.39656 -18.3357 L 2.44516 -18.2421 L 2.49373 -18.1482 L 2.54227 -18.0542 L 2.59078 -17.9599 L 2.63927 -17.8655 L 2.68772 -17.7708 L 2.73614 -17.6759 L 2.78453 -17.5809 L 2.78453 -17.5809 L 2.85994 -17.6563 L 2.93531 -17.7316 L 3.01064 -17.8067 L 3.08594 -17.8815 L 3.16121 -17.9561 L 3.23643 -18.0306 L 3.31163 -18.1048 L 3.38678 -18.1789 L 3.4619 -18.2527 L 3.53699 -18.3264 L 3.61204 -18.3999 L 3.68705 -18.4731 L 3.76202 -18.5462 L 3.83696 -18.6192 L 3.91187 -18.6919 L 3.98673 -18.7645 L 4.06156 -18.8369 L 4.13635 -18.9091 L 4.21111 -18.9812 L 4.28583 -19.0531 L 4.36051 -19.1248 L 4.43516 -19.1964 L 4.50977 -19.2678 L 4.58434 -19.3391 L 4.66842 -19.3189 L 4.75242 -19.2984 L 4.83632 -19.2776 L 4.92014 -19.2564 L 5.00386 -19.2348 L 5.08748 -19.2128 L 5.17101 -19.1905 L 5.25444 -19.1678 L 5.33778 -19.1448 L 5.42101 -19.1214 L 5.50414 -19.0976 L 5.58716 -19.0735 L 5.67008 -19.049 L 5.75289 -19.0242 L 5.83559 -18.999 L 5.91818 -18.9734 L 6.00066 -18.9475 L 6.28242 -18.8559 L 6.36439 -18.8284 L 6.44623 -18.8006 L 6.52795 -18.7724 L 6.60955 -18.7438 L 6.69103 -18.7149 L 6.77238 -18.6856 L 6.8536 -18.6559 L 6.93469 -18.6259 L 7.01564 -18.5956 L 7.09647 -18.5649 L 7.17716 -18.5339 L 7.25772 -18.5025 L 7.33814 -18.4707 L 7.41842 -18.4386 L 7.49856 -18.4062 L 7.57855 -18.3734 L 7.65841 -18.3402 L 7.67685 -18.2388 L 7.69524 -18.1371 L 7.71356 -18.0353 L 7.73181 -17.9334 L 7.75 -17.8313 L 7.76812 -17.7291 L 7.78618 -17.6267 L 7.80416 -17.5241 L 7.82207 -17.4214 L 7.83991 -17.3185 L 7.85767 -17.2155 L 7.87536 -17.1123 L 7.89297 -17.0089 L 7.91049 -16.9053 L 7.92794 -16.8016 L 7.94531 -16.6977 L 7.96259 -16.5936 L 7.97978 -16.4894 L 7.99689 -16.3849 L 8.01391 -16.2803 L 8.03083 -16.1755 L 8.04766 -16.0705 L 8.06439 -15.9653 L 8.08103 -15.8599 L 8.08103 -15.8599 L 8.17607 -15.9084 L 8.27101 -15.9567 L 8.36585 -16.0048 L 8.46059 -16.0527 L 8.55524 -16.1004 L 8.64979 -16.148 L 8.74424 -16.1954 L 8.8386 -16.2426 L 8.93287 -16.2896 L 9.02704 -16.3364 L 9.12112 -16.3831 L 9.21511 -16.4296 L 9.309 -16.476 L 9.40281 -16.5222 L 9.49653 -16.5682 L 9.59016 -16.6141 L 9.68369 -16.6599 L 9.77715 -16.7054 L 9.87051 -16.7509 L 9.96379 -16.7962 L 10.057 -16.8413 L 10.1501 -16.8863 L 10.2431 -16.9312 L 10.3361 -16.9759 L 10.4098 -16.9308 L 10.4834 -16.8853 L 10.5567 -16.8396 L 10.6299 -16.7935 L 10.7028 -16.7471 L 10.7756 -16.7004 L 10.8481 -16.6533 L 10.9205 -16.606 L 10.9926 -16.5583 L 11.0645 -16.5104 L 11.1362 -16.4621 L 11.2077 -16.4135 L 11.279 -16.3646 L 11.3501 -16.3153 L 11.421 -16.2658 L 11.4916 -16.216 L 11.5621 -16.1658 L 11.8017 -15.9917 L 11.8712 -15.9402 L 11.9404 -15.8884 L 12.0094 -15.8363 L 12.0782 -15.7839 L 12.1468 -15.7312 L 12.2151 -15.6783 L 12.2832 -15.625 L 12.351 -15.5714 L 12.4186 -15.5175 L 12.486 -15.4633 L 12.5532 -15.4089 L 12.6201 -15.3541 L 12.6867 -15.2991 L 12.7532 -15.2438 L 12.8194 -15.1881 L 12.8853 -15.1322 L 12.951 -15.076 L 12.9372 -14.9738 L 12.9233 -14.8715 L 12.9093 -14.769 L 12.8951 -14.6664 L 12.8809 -14.5637 L 12.8665 -14.4609 L 12.852 -14.3579 L 12.8375 -14.2548 L 12.8227 -14.1516 L 12.8079 -14.0482 L 12.793 -13.9448 L 12.7779 -13.8411 L 12.7627 -13.7374 L 12.7474 -13.6335 L 12.7319 -13.5294 L 12.7163 -13.4252 L 12.7006 -13.3209 L 12.6847 -13.2164 L 12.6687 -13.1118 L 12.6526 -13.0071 L 12.6363 -12.9022 L 12.6198 -12.7971 L 12.6032 -12.6919 L 12.5865 -12.5865 L 12.5865 -12.5865 L 12.6919 -12.6032 L 12.7971 -12.6198 L 12.9022 -12.6363 L 13.0071 -12.6526 L 13.1118 -12.6687 L 13.2164 -12.6847 L 13.3209 -12.7006 L 13.4252 -12.7163 L 13.5294 -12.7319 L 13.6335 -12.7474 L 13.7374 -12.7627 L 13.8411 -12.7779 L 13.9448 -12.793 L 14.0482 -12.8079 L 14.1516 -12.8227 L 14.2548 -12.8375 L 14.3579 -12.852 L 14.4609 -12.8665 L 14.5637 -12.8809 L 14.6664 -12.8951 L 14.769 -12.9093 L 14.8715 -12.9233 L 14.9738 -12.9372 L 15.076 -12.951 L 15.1322 -12.8853 L 15.1881 -12.8194 L 15.2438 -12.7532 L 15.2991 -12.6867 L 15.3541 -12.6201 L 15.4089 -12.5532 L 15.4633 -12.486 L 15.5175 -12.4186 L 15.5714 -12.351 L 15.625 -12.2832 L 15.6783 -12.2151 L 15.7312 -12.1468 L 15.7839 -12.0782 L 15.8363 -12.0094 L 15.8884 -11.9404 L 15.9402 -11.8712 L 15.9917 -11.8017 L 16.1658 -11.5621 L 16.216 -11.4916 L 16.2658 -11.421 L 16.3153 -11.3501 L 16.3646 -11.279 L 16.4135 -11.2077 L 16.4621 -11.1362 L 16.5104 -11.0645 L 16.5583 -10.9926 L 16.606 -10.9205 L 16.6533 -10.8481 L 16.7004 -10.7756 L 16.7471 -10.7028 L 16.7935 -10.6299 L 16.8396 -10.5567 L 16.8853 -10.4834 L 16.9308 -10.4098 L 16.9759 -10.3361 L 16.9312 -10.2431 L 16.8863 -10.1501 L 16.8413 -10.057 L 16.7962 -9.96379 L 16.7509 -9.87051 L 16.7054 -9.77715 L 16.6599 -9.68369 L 16.6141 -9.59016 L 16.5682 -9.49653 L 16.5222 -9.40281 L 16.476 -9.309 L 16.4296 -9.21511 L 16.3831 -9.12112 L 16.3364 -9.02704 L 16.2896 -8.93287 L 16.2426 -8.8386 L 16.1954 -8.74424 L 16.148 -8.64979 L 16.1004 -8.55524 L 16.0527 -8.46059 L 16.0048 -8.36585 L 15.9567 -8.27101 L 15.9084 -8.17607 L 15.8599 -8.08103 L 15.8599 -8.08103 L 15.9653 -8.06439 L 16.0705 -8.04766 L 16.1755 -8.03083 L 16.2803 -8.01391 L 16.3849 -7.99689 L 16.4894 -7.97978 L 16.5936 -7.96259 L 16.6977 -7.94531 L 16.8016 -7.92794 L 16.9053 -7.91049 L 17.0089 -7.89297 L 17.1123 -7.87536 L 17.2155 -7.85767 L 17.3185 -7.83991 L 17.4214 -7.82207 L 17.5241 -7.80416 L 17.6267 -7.78618 L 17.7291 -7.76812 L 17.8313 -7.75 L 17.9334 -7.73181 L 18.0353 -7.71356 L 18.1371 -7.69524 L 18.2388 -7.67685 L 18.3402 -7.65841 L 18.3734 -7.57855 L 18.4062 -7.49856 L 18.4386 -7.41842 L 18.4707 -7.33814 L 18.5025 -7.25772 L 18.5339 -7.17716 L 18.5649 -7.09647 L 18.5956 -7.01564 L 18.6259 -6.93469 L 18.6559 -6.8536 L 18.6856 -6.77238 L 18.7149 -6.69103 L 18.7438 -6.60955 L 18.7724 -6.52795 L 18.8006 -6.44623 L 18.8284 -6.36439 L 18.8559 -6.28242 L 18.9475 -6.00066 L 18.9734 -5.91818 L 18.999 -5.83559 L 19.0242 -5.75289 L 19.049 -5.67008 L 19.0735 -5.58716 L 19.0976 -5.50414 L 19.1214 -5.42101 L 19.1448 -5.33778 L 19.1678 -5.25444 L 19.1905 -5.17101 L 19.2128 -5.08748 L 19.2348 -5.00386 L 19.2564 -4.92014 L 19.2776 -4.83632 L 19.2984 -4.75242 L 19.3189 -4.66842 L 19.3391 -4.58434 L 19.2678 -4.50977 L 19.1964 -4.43516 L 19.1248 -4.36051 L 19.0531 -4.28583 L 18.9812 -4.21111 L 18.9091 -4.13635 L 18.8369 -4.06156 L 18.7645 -3.98673 L 18.6919 -3.91187 L 18.6192 -3.83696 L 18.5462 -3.76202 L 18.4731 -3.68705 L 18.3999 -3.61204 L 18.3264 -3.53699 L 18.2527 -3.4619 L 18.1789 -3.38678 L 18.1048 -3.31163 L 18.0306 -3.23643 L 17.9561 -3.16121 L 17.8815 -3.08594 L 17.8067 -3.01064 L 17.7316 -2.93531 L 17.6563 -2.85994 L 17.5809 -2.78453 L 17.5809 -2.78453 L 17.6759 -2.73614 L 17.7708 -2.68772 L 17.8655 -2.63927 L 17.9599 -2.59078 L 18.0542 -2.54227 L 18.1482 -2.49373 L 18.2421 -2.44516 L 18.3357 -2.39656 L 18.4292 -2.34794 L 18.5224 -2.29929 L 18.6155 -2.25062 L 18.7084 -2.20192 L 18.8011 -2.15321 L 18.8936 -2.10447 L 18.9859 -2.05572 L 19.0781 -2.00694 L 19.17 -1.95815 L 19.2618 -1.90933 L 19.3535 -1.86051 L 19.445 -1.81166 L 19.5363 -1.7628 L 19.6274 -1.71393 L 19.7184 -1.66504 L 19.8092 -1.61613 L 19.816 -1.52995 L 19.8225 -1.44373 L 19.8286 -1.35749 L 19.8343 -1.27122 L 19.8396 -1.18493 L 19.8446 -1.09861 L 19.8492 -1.01227 L 19.8534 -0.925918 L 19.8573 -0.839545 L 19.8607 -0.753157 L 19.8638 -0.666753 L 19.8665 -0.580338 L 19.8689 -0.493911 L 19.8708 -0.407475 L 19.8724 -0.321031 L 19.8736 -0.234581 L 19.8744 -0.148127Z"
id="path1" />
</g>
</svg>
