<?xml version="1.0" encoding="UTF-8" standalone="no"?>
<svg version="1.1">
<g
style="fill:none;stroke:#000000;stroke-opacity:1;stroke-width:0.1">
<path d="M 19.9995 0.143554 L 19.9987 0.22655 L 19.9976 0.309543 L 19.9961 0.39253 L 19.9943 0.47551 L 19.9922 0.558483 L 19.9897 0.641445 L 19.9869 0.724397 L 19.9837 0.807336 L 19.9802 0.890261 L 19.9763 0.973171 L 19.9721 1.05606 L 19.9675 1.13894 L 19.9626 1.22179 L 19.9574 1.30463 L 19.9518 1.38744 L 19.9459 1.47023 L 19.9396 1.55299 L 19.933 1.63573 L 19.8458 1.68267 L 19.7584 1.7296 L 19.6709 1.77652 L 19.5833 1.82343 L 19.4955 1.87032 L 19.4075 1.9172 L 19.3194 1.96406 L 19.2312 2.0109 L 19.1427 2.05773 L 19.0541 2.10454 L 18.9654 2.15134 L 18.8764 2.19811 L 18.7874 2.24487 L 18.6981 2.2916 L 18.6087 2.33831 L 18.5191 2.385 L 18.4293 2.43167 L 18.3393 2.47832 L 18.2492 2.52494 L 18.1588 2.57153 L 18.0683 2.6181 L 17.9776 2.66464 L 17.8867 2.71115 L 17.7956 2.75764 L 17.7043 2.80409 L 17.7043 2.80409 L 17.7768 2.87648 L 17.8491 2.94883 L 17.9211 3.02116 L 17.993 3.09345 L 18.0647 3.16571 L 18.1362 3.23794 L 18.2076 3.31014 L 18.2787 3.3823 L 18.3497 3.45443 L 18.4205 3.52653 L 18.4911 3.59859 L 18.5615 3.67062 L 18.6318 3.74262 L 18.7019 3.81458 L 18.7719 3.88651 L 18.8417 3.95841 L 18.9113 4.03027 L 18.9808 4.1021 L 19.0501 4.1739 L 19.1193 4.24566 L 19.1883 4.31739 L 19.2572 4.38908 L 19.3259 4.46074 L 19.3944 4.53237 L 19.4629 4.60397 L 19.4436 4.6847 L 19.424 4.76535 L 19.404 4.84592 L 19.3838 4.9264 L 19.3632 5.0068 L 19.3422 5.08712 L 19.3209 5.16734 L 19.2993 5.24748 L 19.2774 5.32753 L 19.2551 5.40748 L 19.2325 5.48734 L 19.2096 5.56711 L 19.1863 5.64678 L 19.1627 5.72636 L 19.1388 5.80583 L 19.1145 5.88521 L 19.0899 5.96448 L 19.065 6.04365 L 18.9763 6.31671 L 18.9499 6.39541 L 18.9232 6.47399 L 18.8962 6.55247 L 18.8688 6.63083 L 18.8411 6.70908 L 18.8131 6.78721 L 18.7848 6.86523 L 18.7561 6.94312 L 18.7272 7.0209 L 18.6979 7.09856 L 18.6683 7.17609 L 18.6383 7.25351 L 18.608 7.33079 L 18.5775 7.40795 L 18.5466 7.48498 L 18.5153 7.56189 L 18.4838 7.63866 L 18.4519 7.7153 L 18.3545 7.733 L 18.2569 7.75064 L 18.1592 7.76823 L 18.0613 7.78575 L 17.9634 7.80322 L 17.8652 7.82062 L 17.7669 7.83796 L 17.6685 7.85524 L 17.5699 7.87245 L 17.4712 7.88959 L 17.3723 7.90666 L 17.2733 7.92367 L 17.1741 7.94061 L 17.0748 7.95747 L 16.9753 7.97426 L 16.8757 7.99098 L 16.7758 8.00761 L 16.6759 8.02418 L 16.5757 8.04066 L 16.4754 8.05706 L 16.3749 8.07337 L 16.2743 8.08961 L 16.1735 8.10575 L 16.0725 8.12181 L 15.9713 8.13778 L 15.9713 8.13778 L 16.0178 8.22902 L 16.0642 8.32017 L 16.1104 8.41123 L 16.1564 8.5022 L 16.2023 8.59308 L 16.248 8.68387 L 16.2935 8.77457 L 16.3389 8.86519 L 16.3841 8.95572 L 16.4291 9.04616 L 16.474 9.13652 L 16.5188 9.2268 L 16.5634 9.31699 L 16.6078 9.4071 L 16.6521 9.49712 L 16.6963 9.58707 L 16.7403 9.67693 L 16.7842 9.76671 L 16.8279 9.85642 L 16.8715 9.94604 L 16.915 10.0356 L 16.9583 10.1251 L 17.0016 10.2144 L 17.0446 10.3038 L 17.0876 10.393 L 17.0443 10.4638 L 17.0007 10.5345 L 16.9569 10.6049 L 16.9127 10.6752 L 16.8683 10.7453 L 16.8235 10.8152 L 16.7785 10.8849 L 16.7332 10.9545 L 16.6876 11.0238 L 16.6417 11.093 L 16.5955 11.1619 L 16.549 11.2307 L 16.5023 11.2993 L 16.4553 11.3677 L 16.4079 11.4359 L 16.3603 11.5039 L 16.3125 11.5717 L 16.2643 11.6393 L 16.0955 11.8715 L 16.0461 11.9382 L 15.9965 12.0047 L 15.9465 12.071 L 15.8963 12.1371 L 15.8458 12.2029 L 15.795 12.2686 L 15.7439 12.334 L 15.6926 12.3993 L 15.641 12.4643 L 15.5892 12.5291 L 15.537 12.5937 L 15.4846 12.658 L 15.432 12.7222 L 15.379 12.7861 L 15.3258 12.8498 L 15.2724 12.9133 L 15.2187 12.9766 L 15.1647 13.0397 L 15.0665 13.0264 L 14.9683 13.013 L 14.8699 12.9995 L 14.7714 12.986 L 14.6728 12.9723 L 14.5741 12.9585 L 14.4753 12.9446 L 14.3763 12.9306 L 14.2773 12.9165 L 14.1781 12.9023 L 14.0788 12.888 L 13.9794 12.8736 L 13.8798 12.8591 L 13.7801 12.8444 L 13.6803 12.8296 L 13.5804 12.8147 L 13.4803 12.7997 L 13.3801 12.7846 L 13.2798 12.7693 L 13.1793 12.7539 L 13.0787 12.7384 L 12.9779 12.7227 L 12.8771 12.7069 L 12.776 12.691 L 12.6749 12.6749 L 12.6749 12.6749 L 12.691 12.776 L 12.7069 12.8771 L 12.7227 12.9779 L 12.7384 13.0787 L 12.7539 13.1793 L 12.7693 13.2798 L 12.7846 13.3801 L 12.7997 13.4803 L 12.8147 13.5804 L 12.8296 13.6803 L 12.8444 13.7801 L 12.8591 13.8798 L 12.8736 13.9794 L 12.888 14.0788 L 12.9023 14.1781 L 12.9165 14.2773 L 12.9306 14.3763 L 12.9446 14.4753 L 12.9585 14.5741 L 12.9723 14.6728 L 12.986 14.7714 L 12.9995 14.8699 L 13.013 14.9683 L 13.0264 15.0665 L 13.0397 15.1647 L 12.9766 15.2187 L 12.9133 15.2724 L 12.8498 15.3258 L 12.7861 15.379 L 12.7222 15.432 L 12.658 15.4846 L 12.5937 15.537 L 12.5291 15.5892 L 12.4643 15.641 L 12.3993 15.6926 L 12.334 15.7439 L 12.2686 15.795 L 12.2029 15.8458 L 12.1371 15.8963 L 12.071 15.9465 L 12.0047 15.9965 L 11.9382 16.0461 L 11.8715 16.0955 L 11.6393 16.2643 L 11.5717 16.3125 L 11.5039 16.3603 L 11.4359 16.4079 L 11.3677 16.4553 L 11.2993 16.5023 L 11.2307 16.549 L 11.1619 16.5955 L 11.093 16.6417 L 11.0238 16.6876 L 10.9545 16.7332 L 10.8849 16.7785 L 10.8152 16.8235 L 10.7453 16.8683 L 10.6752 16.9127 L 10.6049 16.9569 L 10.5345 17.0007 L 10.4638 17.0443 L 10.393 17.0876 L 10.3038 17.0446 L 10.2144 17.0016 L 10.1251 16.9583 L 10.0356 16.915 L 9.94604 16.8715 L 9.85642 16.8279 L 9.76671 16.7842 L 9.67693 16.7403 L 9.58707 16.6963 L 9.49712 16.6521 L 9.4071 16.6078 L 9.31699 16.5634 L 9.2268 16.5188 L 9.13652 16.474 L 9.04616 16.4291 L 8.95572 16.3841 L 8.86519 16.3389 L 8.77457 16.2935 L 8.68387 16.248 L 8.59308 16.2023 L 8.5022 16.1564 L 8.41123 16.1104 L 8.32017 16.0642 L 8.22902 16.0178 L 8.13778 15.9713 L 8.13778 15.9713 L 8.12181 16.0725 L 8.10575 16.1735 L 8.08961 16.2743 L 8.07337 16.3749 L 8.05706 16.4754 L 8.04066 16.5757 L 8.02418 16.6759 L 8.00761 16.7758 L 7.99098 16.8757 L 7.97426 16.9753 L 7.95747 17.0748 L 7.94061 17.1741 L 7.92367 17.2733 L 7.90666 17.3723 L 7.88959 17.4712 L 7.87245 17.5699 L 7.85524 17.6685 L 7.83796 17.7669 L 7.82062 17.8652 L 7.80322 17.9634 L 7.78575 18.0613 L 7.76823 18.1592 L 7.75064 18.2569 L 7.733 18.3545 L 7.7153 18.4519 L 7.63866 18.4838 L 7.56189 18.5153 L 7.48498 18.5466 L 7.40795 18.5775 L 7.33079 18.608 L 7.25351 18.6383 L 7.17609 18.6683 L 7.09856 18.6979 L 7.0209 18.7272 L 6.94312 18.7561 L 6.86523 18.7848 L 6.78721 18.8131 L 6.70908 18.8411 L 6.63083 18.8688 L 6.55247 18.8962 L 6.47399 18.9232 L 6.39541 18.9499 L 6.31671 18.9763 L 6.04365 19.065 L 5.96448 19.0899 L 5.88521 19.1145 L 5.80583 19.1388 L 5.72636 19.1627 L 5.64678 19.1863 L 5.56711 19.2096 L 5.48734 19.2325 L 5.40748 19.2551 L 5.32753 19.2774 L 5.24748 19.2993 L 5.16734 19.3209 L 5.08712 19.3422 L 5.0068 19.3632 L 4.9264 19.3838 L 4.84592 19.404 L 4.76535 19.424 L 4.6847 19.4436 L 4.60397 19.4629 L 4.53237 19.3944 L 4.46074 19.3259 L 4.38908 19.2572 L 4.31739 19.1883 L 4.24566 19.1193 L 4.1739 19.0501 L 4.1021 18.9808 L 4.03027 18.9113 L 3.95841 18.8417 L 3.88651 18.7719 L 3.81458 18.7019 L 3.74262 18.6318 L 3.67062 18.5615 L 3.59859 18.4911 L 3.52653 18.4205 L 3.45443 18.3497 L 3.3823 18.2787 L 3.31014 18.2076 L 3.23794 18.1362 L 3.16571 18.0647 L 3.09345 17.993 L 3.02116 17.9211 L 2.94883 17.8491 L 2.87648 17.7768 L 2.80409 17.7043 L 2.80409 17.7043 L 2.75764 17.7956 L 2.71115 17.8867 L 2.66464 17.9776 L 2.6181 18.0683 L 2.57153 18.1588 L 2.52494 18.2492 L 2.47832 18.3393 L 2.43167 18.4293 L 2.385 18.5191 L 2.33831 18.6087 L 2.2916 18.6981 L 2.24487 18.7874 L 2.19811 18.8764 L 2.15134 18.9654 L 2.10454 19.0541 L 2.05773 19.1427 L 2.0109 19.2312 L 1.96406 19.3194 L 1.9172 19.4075 L 1.87032 19.4955 L 1.82343 19.5833 L 1.77652 19.6709 L 1.7296 19.7584 L 1.68267 19.8458 L 1.63573 19.933 L 1.55299 19.9396 L 1.47023 19.9459 L 1.38744 19.9518 L 1.30463 19.9574 L 1.22179 19.9626 L 1.13894 19.9675 L 1.05606 19.9721 L 0.973171 19.9763 L 0.890261 19.9802 L 0.807336 19.9837 L 0.724397 19.9869 L 0.641445 19.9897 L 0.558483 19.9922 L 0.47551 19.9943 L 0.39253 19.9961 L 0.309543 19.9976 L 0.22655 19.9987 L 0.143554 19.9995 L -0.143554 19.9995 L -0.22655 19.9987 L -0.309543 19.9976 L -0.39253 19.9961 L -0.47551 19.9943 L -0.558483 19.9922 L -0.641445 19.9897 L -0.724397 19.9869 L -0.807336 19.9837 L -0.890261 19.9802 L -0.973171 19.9763 L -1.05606 19.9721 L -1.13894 19.9675 L -1.22179 19.9626 L -1.30463 19.9574 L -1.38744 19.9518 L -1.47023 19.9459 L -1.55299 19.9396 L -1.63573 19.933 L -1.68267 19.8458 L -1.7296 19.7584 L -1.77652 19.6709 L -1.82343 19.5833 L -1.87032 19.4955 L -1.9172 19.4075 L -1.96406 19.3194 L -2.0109 19.2312 L -2.05773 19.1427 L -2.10454 19.0541 L -2.15134 18.9654 L -2.19811 18.8764 L -2.24487 18.7874 L -2.2916 18.6981 L -2.33831 18.6087 L -2.385 18.5191 L -2.43167 18.4293 L -2.47832 18.3393 L -2.52494 18.2492 L -2.57153 18.1588 L -2.6181 18.0683 L -2.66464 17.9776 L -2.71115 17.8867 L -2.75764 17.7956 L -2.80409 17.7043 L -2.80409 17.7043 L -2.87648 17.7768 L -2.94883 17.8491 L -3.02116 17.9211 L -3.09345 17.993 L -3.16571 18.0647 L -3.23794 18.1362 L -3.31014 18.2076 L -3.3823 18.2787 L -3.45443 18.3497 L -3.52653 18.4205 L -3.59859 18.4911 L -3.67062 18.5615 L -3.74262 18.6318 L -3.81458 18.7019 L -3.88651 18.7719 L -3.95841 18.8417 L -4.03027 18.9113 L -4.1021 18.9808 L -4.1739 19.0501 L -4.24566 19.1193 L -4.31739 19.1883 L -4.38908 19.2572 L -4.46074 19.3259 L -4.53237 19.3944 L -4.60397 19.4629 L -4.6847 19.4436 L -4.76535 19.424 L -4.84592 19.404 L -4.9264 19.3838 L -5.0068 19.3632 L -5.08712 19.3422 L -5.16734 19.3209 L -5.24748 19.2993 L -5.32753 19.2774 L -5.40748 19.2551 L -5.48734 19.2325 L -5.56711 19.2096 L -5.64678 19.1863 L -5.72636 19.1627 L -5.80583 19.1388 L -5.88521 19.1145 L -5.96448 19.0899 L -6.04365 19.065 L -6.31671 18.9763 L -6.39541 18.9499 L -6.47399 18.9232 L -6.55247 18.8962 L -6.63083 18.8688 L -6.70908 18.8411 L -6.78721 18.8131 L -6.86523 18.7848 L -6.94312 18.7561 L -7.0209 18.7272 L -7.09856 18.6979 L -7.17609 18.6683 L -7.25351 18.6383 L -7.33079 18.608 L -7.40795 18.5775 L -7.48498 18.5466 L -7.56189 18.5153 L -7.63866 18.4838 L -7.7153 18.4519 L -7.733 18.3545 L -7.75064 18.2569 L -7.76823 18.1592 L -7.78575 18.0613 L -7.80322 17.9634 L -7.82062 17.8652 L -7.83796 17.7669 L -7.85524 17.6685 L -7.87245 17.5699 L -7.88959 17.4712 L -7.90666 17.3723 L -7.92367 17.2733 L -7.94061 17.1741 L -7.95747 17.0748 L -7.97426 16.9753 L -7.99098 16.8757 L -8.00761 16.7758 L -8.02418 16.6759 L -8.04066 16.5757 L -8.05706 16.4754 L -8.07337 16.3749 L -8.08961 16.2743 L -8.10575 16.1735 L -8.12181 16.0725 L -8.13778 15.9713 L -8.13778 15.9713 L -8.22902 16.0178 L -8.32017 16.0642 L -8.41123 16.1104 L -8.5022 16.1564 L -8.59308 16.2023 L -8.68387 16.248 L -8.77457 16.2935 L -8.86519 16.3389 L -8.95572 16.3841 L -9.04616 16.4291 L -9.13652 16.474 L -9.2268 16.5188 L -9.31699 16.5634 L -9.4071 16.6078 L -9.49712 16.6521 L -9.58707 16.6963 L -9.67693 16.7403 L -9.76671 16.7842 L -9.85642 16.8279 L -9.94604 16.8715 L -10.0356 16.915 L -10.1251 16.9583 L -10.2144 17.0016 L -10.3038 17.0446 L -10.393 17.0876 L -10.4638 17.0443 L -10.5345 17.0007 L -10.6049 16.9569 L -10.6752 16.9127 L -10.7453 16.8683 L -10.8152 16.8235 L -10.8849 16.7785 L -10.9545 16.7332 L -11.0238 16.6876 L -11.093 16.6417 L -11.1619 16.5955 L -11.2307 16.549 L -11.2993 16.5023 L -11.3677 16.4553 L -11.4359 16.4079 L -11.5039 16.3603 L -11.5717 16.3125 L -11.6393 16.2643 L -11.8715 16.0955 L -11.9382 16.0461 L -12.0047 15.9965 L -12.071 15.9465 L -12.1371 15.8963 L -12.2029 15.8458 L -12.2686 15.795 L -12.334 15.7439 L -12.3993 15.6926 L -12.4643 15.641 L -12.5291 15.5892 L -12.5937 15.537 L -12.658 15.4846 L -12.7222 15.432 L -12.7861 15.379 L -12.8498 15.3258 L -12.9133 15.2724 L -12.9766 15.2187 L -13.0397 15.1647 L -13.0264 15.0665 L -13.013 14.9683 L -12.9995 14.8699 L -12.986 14.7714 L -12.9723 14.6728 L -12.9585 14.5741 L -12.9446 14.4753 L -12.9306 14.3763 L -12.9165 14.2773 L -12.9023 14.1781 L -12.888 14.0788 L -12.8736 13.9794 L -12.8591 13.8798 L -12.8444 13.7801 L -12.8296 13.6803 L -12.8147 13.5804 L -12.7997 13.4803 L -12.7846 13.3801 L -12.7693 13.2798 L -12.7539 13.1793 L -12.7384 13.0787 L -12.7227 12.9779 L -12.7069 12.8771 L -12.691 12.776 L -12.6749 12.6749 L -12.6749 12.6749 L -12.776 12.691 L -12.8771 12.7069 L -12.9779 12.7227 L -13.0787 12.7384 L -13.1793 12.7539 L -13.2798 12.7693 L -13.3801 12.7846 L -13.4803 12.7997 L -13.5804 12.8147 L -13.6803 12.8296 L -13.7801 12.8444 L -13.8798 12.8591 L -13.9794 12.8736 L -14.0788 12.888 L -14.1781 12.9023 L -14.2773 12.9165 L -14.3763 12.9306 L -14.4753 12.9446 L -14.5741 12.9585 L -14.6728 12.9723 L -14.7714 12.986 L -14.8699 12.9995 L -14.9683 13.013 L -15.0665 13.0264 L -15.1647 13.0397 L -15.2187 12.9766 L -15.2724 12.9133 L -15.3258 12.8498 L -15.379 12.7861 L -15.432 12.7222 L -15.4846 12.658 L -15.537 12.5937 L -15.5892 12.5291 L -15.641 12.4643 L -15.6926 12.3993 L -15.7439 12.334 L -15.795 12.2686 L -15.8458 12.2029 L -15.8963 12.1371 L -15.9465 12.071 L -15.9965 12.0047 L -16.0461 11.9382 L -16.0955 11.8715 L -16.2643 11.6393 L -16.3125 11.5717 L -16.3603 11.5039 L -16.4079 11.4359 L -16.4553 11.3677 L -16.5023 11.2993 L -16.549 11.2307 L -16.5955 11.1619 L -16.6417 11.093 L -16.6876 11.0238 L -16.7332 10.9545 L -16.7785 10.8849 L -16.8235 10.8152 L -16.8683 10.7453 L -16.9127 10.6752 L -16.9569 10.6049 L -17.0007 10.5345 L -17.0443 10.4638 L -17.0876 10.393 L -17.0446 10.3038 L -17.0016 10.2144 L -16.9583 10.1251 L -16.915 10.0356 L -16.8715 9.94604 L -16.8279 9.85642 L -16.7842 9.76671 L -16.7403 9.67693 L -16.6963 9.58707 L -16.6521 9.49712 L -16.6078 9.4071 L -16.5634 9.31699 L -16.5188 9.2268 L -16.474 9.13652 L -16.4291 9.04616 L -16.3841 8.95572 L -16.3389 8.86519 L -16.2935 8.77457 L -16.248 8.68387 L -16.2023 8.59308 L -16.1564 8.5022 L -16.1104 8.41123 L -16.0642 8.32017 L -16.0178 8.22902 L -15.9713 8.13778 L -15.9713 8.13778 L -16.0725 8.12181 L -16.1735 8.10575 L -16.2743 8.08961 L -16.3749 8.07337 L -16.4754 8.05706 L -16.5757 8.04066 L -16.6759 8.02418 L -16.7758 8.00761 L -16.8757 7.99098 L -16.9753 7.97426 L -17.0748 7.95747 L -17.1741 7.94061 L -17.2733 7.92367 L -17.3723 7.90666 L -17.4712 7.88959 L -17.5699 7.87245 L -17.6685 7.85524 L -17.7669 7.83796 L -17.8652 7.82062 L -17.9634 7.80322 L -18.0613 7.78575 L -18.1592 7.76823 L -18.2569 7.75064 L -18.3545 7.733 L -18.4519 7.7153 L -18.4838 7.63866 L -18.5153 7.56189 L -18.5466 7.48498 L -18.5775 7.40795 L -18.608 7.33079 L -18.6383 7.25351 L -18.6683 7.17609 L -18.6979 7.09856 L -18.7272 7.0209 L -18.7561 6.94312 L -18.7848 6.86523 L -18.8131 6.78721 L -18.8411 6.70908 L -18.8688 6.63083 L -18.8962 6.55247 L -18.9232 6.47399 L -18.9499 6.39541 L -18.9763 6.31671 L -19.065 6.04365 L -19.0899 5.96448 L -19.1145 5.88521 L -19.1388 5.80583 L -19.1627 5.72636 L -19.1863 5.64678 L -19.2096 5.56711 L -19.2325 5.48734 L -19.2551 5.40748 L -19.2774 5.32753 L -19.2993 5.24748 L -19.3209 5.16734 L -19.3422 5.08712 L -19.3632 5.0068 L -19.3838 4.9264 L -19.404 4.84592 L -19.424 4.76535 L -19.4436 4.6847 L -19.4629 4.60397 L -19.3944 4.53237 L -19.3259 4.46074 L -19.2572 4.38908 L -19.1883 4.31739 L -19.1193 4.24566 L -19.0501 4.1739 L -18.9808 4.1021 L -18.9113 4.03027 L -18.8417 3.95841 L -18.7719 3.88651 L -18.7019 3.81458 L -18.6318 3.74262 L -18.5615 3.67062 L -18.4911 3.59859 L -18.4205 3.52653 L -18.3497 3.45443 L -18.2787 3.3823 L -18.2076 3.31014 L -18.1362 3.23794 L -18.0647 3.16571 L -17.993 3.09345 L -17.9211 3.02116 L -17.8491 2.94883 L -17.7768 2.87648 L -17.7043 2.80409 L -17.7043 2.80409 L -17.7956 2.75764 L -17.8867 2.71115 L -17.9776 2.66464 L -18.0683 2.6181 L -18.1588 2.57153 L -18.2492 2.52494 L -18.3393 2.47832 L -18.4293 2.43167 L -18.5191 2.385 L -18.6087 2.33831 L -18.6981 2.2916 L -18.7874 2.24487 L -18.8764 2.19811 L -18.9654 2.15134 L -19.0541 2.10454 L -19.1427 2.05773 L -19.2312 2.0109 L -19.3194 1.96406 L -19.4075 1.9172 L -19.4955 1.87032 L -19.5833 1.82343 L -19.6709 1.77652 L -19.7584 1.7296 L -19.8458 1.68267 L -19.933 1.63573 L -19.9396 1.55299 L -19.9459 1.47023 L -19.9518 1.38744 L -19.9574 1.30463 L -19.9626 1.22179 L -19.9675 1.13894 L -19.9721 1.05606 L -19.9763 0.973171 L -19.9802 0.890261 L -19.9837 0.807336 L -19.9869 0.724397 L -19.9897 0.641445 L -19.9922 0.558483 L -19.9943 0.47551 L -19.9961 0.39253 L -19.9976 0.309543 L -19.9987 0.22655 L -19.9995 0.143554 L -19.9995 -0.143554 L -19.9987 -0.22655 L -19.9976 -0.309543 L -19.9961 -0.39253 L -19.9943 -0.47551 L -19.9922 -0.558483 L -19.9897 -0.641445 L -19.9869 -0.724397 L -19.9837 -0.807336 L -19.9802 -0.890261 L -19.9763 -0.973171 L -19.9721 -1.05606 L -19.9675 -1.13894 L -19.9626 -1.22179 L -19.9574 -1.30463 L -19.9518 -1.38744 L -19.9459 -1.47023 L -19.9396 -1.55299 L -19.933 -1.63573 L -19.8458 -1.68267 L -19.7584 -1.7296 L -19.6709 -1.77652 L -19.5833 -1.82343 L -19.4955 -1.87032 L -19.4075 -1.9172 L -19.3194 -1.96406 L -19.2312 -2.0109 L -19.1427 -2.05773 L -19.0541 -2.10454 L -18.9654 -2.15134 L -18.8764 -2.19811 L -18.7874 -2.24487 L -18.6981 -2.2916 L -18.6087 -2.33831 L -18.5191 -2.385 L -18.4293 -2.43167 L -18.3393 -2.47832 L -18.2492 -2.52494 L -18.1588 -2.57153 L -18.0683 -2.6181 L -17.9776 -2.66464 L -17.8867 -2.71115 L -17.7956 -2.75764 L -17.7043 -2.80409 L -17.7043 -2.80409 L -17.7768 -2.87648 L -17.8491 -2.94883 L -17.9211 -3.02116 L -17.993 -3.09345 L -18.0647 -3.16571 L -18.1362 -3.23794 L -18.2076 -3.31014 L -18.2787 -3.3823 L -18.3497 -3.45443 L -18.4205 -3.52653 L -18.4911 -3.59859 L -18.5615 -3.67062 L -18.6318 -3.74262 L -18.7019 -3.81458 L -18.7719 -3.88651 L -18.8417 -3.95841 L -18.9113 -4.03027 L -18.9808 -4.1021 L -19.0501 -4.1739 L -19.1193 -4.24566 L -19.1883 -4.31739 L -19.2572 -4.38908 L -19.3259 -4.46074 L -19.3944 -4.53237 L -19.4629 -4.60397 L -19.4436 -4.6847 L -19.424 -4.76535 L -19.404 -4.84592 L -19.3838 -4.9264 L -19.3632 -5.0068 L -19.3422 -5.08712 L -19.3209 -5.16734 L -19.2993 -5.24748 L -19.2774 -5.32753 L -19.2551 -5.40748 L -19.2325 -5.48734 L -19.2096 -5.56711 L -19.1863 -5.64678 L -19.1627 -5.72636 L -19.1388 -5.80583 L -19.1145 -5.88521 L -19.0899 -5.96448 L -19.065 -6.04365 L -18.9763 -6.31671 L -18.9499 -6.39541 L -18.9232 -6.47399 L -18.8962 -6.55247 L -18.8688 -6.63083 L -18.8411 -6.70908 L -18.8131 -6.78721 L -18.7848 -6.86523 L -18.7561 -6.94312 L -18.7272 -7.0209 L -18.6979 -7.09856 L -18.6683 -7.17609 L -18.6383 -7.25351 L -18.608 -7.33079 L -18.5775 -7.40795 L -18.5466 -7.48498 L -18.5153 -7.56189 L -18.4838 -7.63866 L -18.4519 -7.7153 L -18.3545 -7.733 L -18.2569 -7.75064 L -18.1592 -7.76823 L -18.0613 -7.78575 L -17.9634 -7.80322 L -17.8652 -7.82062 L -17.7669 -7.83796 L -17.6685 -7.85524 L -17.5699 -7.87245 L -17.4712 -7.88959 L -17.3723 -7.90666 L -17.2733 -7.92367 L -17.1741 -7.94061 L -17.0748 -7.95747 L -16.9753 -7.97426 L -16.8757 -7.99098 L -16.7758 -8.00761 L -16.6759 -8.02418 L -16.5757 -8.04066 L -16.4754 -8.05706 L -16.3749 -8.07337 L -16.2743 -8.08961 L -16.1735 -8.10575 L -16.0725 -8.12181 L -15.9713 -8.13778 L -15.9713 -8.13778 L -16.0178 -8.22902 L -16.0642 -8.32017 L -16.1104 -8.41123 L -16.1564 -8.5022 L -16.2023 -8.59308 L -16.248 -8.68387 L -16.2935 -8.77457 L -16.3389 -8.86519 L -16.3841 -8.95572 L -16.4291 -9.04616 L -16.474 -9.13652 L -16.5188 -9.2268 L -16.5634 -9.31699 L -16.6078 -9.4071 L -16.6521 -9.49712 L -16.6963 -9.58707 L -16.7403 -9.67693 L -16.7842 -9.76671 L -16.8279 -9.85642 L -16.8715 -9.94604 L -16.915 -10.0356 L -16.9583 -10.1251 L -17.0016 -10.2144 L -17.0446 -10.3038 L -17.0876 -10.393 L -17.0443 -10.4638 L -17.0007 -10.5345 L -16.9569 -10.6049 L -16.9127 -10.6752 L -16.8683 -10.7453 L -16.8235 -10.8152 L -16.7785 -10.8849 L -16.7332 -10.9545 L -16.6876 -11.0238 L -16.6417 -11.093 L -16.5955 -11.1619 L -16.549 -11.2307 L -16.5023 -11.2993 L -16.4553 -11.3677 L -16.4079 -11.4359 L -16.3603 -11.5039 L -16.3125 -11.5717 L -16.2643 -11.6393 L -16.0955 -11.8715 L -16.0461 -11.9382 L -15.9965 -12.0047 L -15.9465 -12.071 L -15.8963 -12.1371 L -15.8458 -12.2029 L -15.795 -12.2686 L -15.7439 -12.334 L -15.6926 -12.3993 L -15.641 -12.4643 L -15.5892 -12.5291 L -15.537 -12.5937 L -15.4846 -12.658 L -15.432 -12.7222 L -15.379 -12.7861 L -15.3258 -12.8498 L -15.2724 -12.9133 L -15.2187 -12.9766 L -15.1647 -13.0397 L -15.0665 -13.0264 L -14.9683 -13.013 L -14.8699 -12.9995 L -14.7714 -12.986 L -14.6728 -12.9723 L -14.5741 -12.9585 L -14.4753 -12.9446 L -14.3763 -12.9306 L -14.2773 -12.9165 L -14.1781 -12.9023 L -14.0788 -12.888 L -13.9794 -12.8736 L -13.8798 -12.8591 L -13.7801 -12.8444 L -13.6803 -12.8296 L -13.5804 -12.8147 L -13.4803 -12.7997 L -13.3801 -12.7846 L -13.2798 -12.7693 L -13.1793 -12.7539 L -13.0787 -12.7384 L -12.9779 -12.7227 L -12.8771 -12.7069 L -12.776 -12.691 L -12.6749 -12.6749 L -12.6749 -12.6749 L -12.691 -12.776 L -12.7069 -12.8771 L -12.7227 -12.9779 L -12.7384 -13.0787 L -12.7539 -13.1793 L -12.7693 -13.2798 L -12.7846 -13.3801 L -12.7997 -13.4803 L -12.8147 -13.5804 L -12.8296 -13.6803 L -12.8444 -13.7801 L -12.8591 -13.8798 L -12.8736 -13.9794 L -12.888 -14.0788 L -12.9023 -14.1781 L -12.9165 -14.2773 L -12.9306 -14.3763 L -12.9446 -14.4753 L -12.9585 -14.5741 L -12.9723 -14.6728 L -12.986 -14.7714 L -12.9995 -14.8699 L -13.013 -14.9683 L -13.0264 -15.0665 L -13.0397 -15.1647 L -12.9766 -15.2187 L -12.9133 -15.2724 L -12.8498 -15.3258 L -12.7861 -15.379 L -12.7222 -15.432 L -12.658 -15.4846 L -12.5937 -15.537 L -12.5291 -15.5892 L -12.4643 -15.641 L -12.3993 -15.6926 L -12.334 -15.7439 L -12.2686 -15.795 L -12.2029 -15.8458 L -12.1371 -15.8963 L -12.071 -15.9465 L -12.0047 -15.9965 L -11.9382 -16.0461 L -11.8715 -16.0955 L -11.6393 -16.2643 L -11.5717 -16.3125 L -11.5039 -16.3603 L -11.4359 -16.4079 L -11.3677 -16.4553 L -11.2993 -16.5023 L -11.2307 -16.549 L -11.1619 -16.5955 L -11.093 -16.6417 L -11.0238 -16.6876 L -10.9545 -16.7332 L -10.8849 -16.7785 L -10.8152 -16.8235 L -10.7453 -16.8683 L -10.6752 -16.9127 L -10.6049 -16.9569 L -10.5345 -17.0007 L -10.4638 -17.0443 L -10.393 -17.0876 L -10.3038 -17.0446 L -10.2144 -17.0016 L -10.1251 -16.9583 L -10.0356 -16.915 L -9.94604 -16.8715 L -9.85642 -16.8279 L -9.76671 -16.7842 L -9.67693 -16.7403 L -9.58707 -16.6963 L -9.49712 -16.6521 L -9.4071 -16.6078 L -9.31699 -16.5634 L -9.2268 -16.5188 L -9.13652 -16.474 L -9.04616 -16.4291 L -8.95572 -16.3841 L -8.86519 -16.3389 L -8.77457 -16.2935 L -8.68387 -16.248 L -8.59308 -16.2023 L -8.5022 -16.1564 L -8.41123 -16.1104 L -8.32017 -16.0642 L -8.22902 -16.0178 L -8.13778 -15.9713 L -8.13778 -15.9713 L -8.12181 -16.0725 L -8.10575 -16.1735 L -8.08961 -16.2743 L -8.07337 -16.3749 L -8.05706 -16.4754 L -8.04066 -16.5757 L -8.02418 -16.6759 L -8.00761 -16.7758 L -7.99098 -16.8757 L -7.97426 -16.9753 L -7.95747 -17.0748 L -7.94061 -17.1741 L -7.92367 -17.2733 L -7.90666 -17.3723 L -7.88959 -17.4712 L -7.87245 -17.5699 L -7.85524 -17.6685 L -7.83796 -17.7669 L -7.82062 -17.8652 L -7.80322 -17.9634 L -7.78575 -18.0613 L -7.76823 -18.1592 L -7.75064 -18.2569 L -7.733 -18.3545 L -7.7153 -18.4519 L -7.63866 -18.4838 L -7.56189 -18.5153 L -7.48498 -18.5466 L -7.40795 -18.5775 L -7.33079 -18.608 L -7.25351 -18.6383 L -7.17609 -18.6683 L -7.09856 -18.6979 L -7.0209 -18.7272 L -6.94312 -18.7561 L -6.86523 -18.7848 L -6.78721 -18.8131 L -6.70908 -18.8411 L -6.63083 -18.8688 L -6.55247 -18.8962 L -6.47399 -18.9232 L -6.39541 -18.9499 L -6.31671 -18.9763 L -6.04365 -19.065 L -5.96448 -19.0899 L -5.88521 -19.1145 L -5.80583 -19.1388 L -5.72636 -19.1627 L -5.64678 -19.1863 L -5.56711 -19.2096 L -5.48734 -19.2325 L -5.40748 -19.2551 L -5.32753 -19.2774 L -5.24748 -19.2993 L -5.16734 -19.3209 L -5.08712 -19.3422 L -5.0068 -19.3632 L -4.9264 -19.3838 L -4.84592 -19.404 L -4.76535 -19.424 L -4.6847 -19.4436 L -4.60397 -19.4629 L -4.53237 -19.3944 L -4.46074 -19.3259 L -4.38908 -19.2572 L -4.31739 -19.1883 L -4.24566 -19.1193 L -4.1739 -19.0501 L -4.1021 -18.9808 L -4.03027 -18.9113 L -3.95841 -18.8417 L -3.88651 -18.7719 L -3.81458 -18.7019 L -3.74262 -18.6318 L -3.67062 -18.5615 L -3.59859 -18.4911 L -3.52653 -18.4205 L -3.45443 -18.3497 L -3.3823 -18.2787 L -3.31014 -18.2076 L -3.23794 -18.1362 L -3.16571 -18.0647 L -3.09345 -17.993 L -3.02116 -17.9211 L -2.94883 -17.8491 L -2.87648 -17.7768 L -2.80409 -17.7043 L -2.80409 -17.7043 L -2.75764 -17.7956 L -2.71115 -17.8867 L -2.66464 -17.9776 L -2.6181 -18.0683 L -2.57153 -18.1588 L -2.52494 -18.2492 L -2.47832 -18.3393 L -2.43167 -18.4293 L -2.385 -18.5191 L -2.33831 -18.6087 L -2.2916 -18.6981 L -2.24487 -18.7874 L -2.19811 -18.8764 L -2.15134 -18.9654 L -2.10454 -19.0541 L -2.05773 -19.1427 L -2.0109 -19.2312 L -1.96406 -19.3194 L -1.9172 -19.4075 L -1.87032 -19.4955 L -1.82343 -19.5833 L -1.77652 -19.6709 L -1.7296 -19.7584 L -1.68267 -19.8458 L -1.63573 -19.933 L -1.55299 -19.9396 L -1.47023 -19.9459 L -1.38744 -19.9518 L -1.30463 -19.9574 L -1.22179 -19.9626 L -1.13894 -19.9675 L -1.05606 -19.9721 L -0.973171 -19.9763 L -0.890261 -19.9802 L -0.807336 -19.9837 L -0.724397 -19.9869 L -0.641445 -19.9897 L -0.558483 -19.9922 L -0.47551 -19.9943 L -0.39253 -19.9961 L -0.309543 -19.9976 L -0.22655 -19.9987 L -0.143554 -19.9995 L 0.143554 -19.9995 L 0.22655 -19.9987 L 0.309543 -19.9976 L 0.39253 -19.9961 L 0.47551 -19.9943 L 0.558483 -19.9922 L 0.641445 -19.9897 L 0.724397 -19.9869 L 0.807336 -19.9837 L 0.890261 -19.9802 L 0.973171 -19.9763 L 1.05606 -19.9721 L 1.13894 -19.9675 L 1.22179 -19.9626 L 1.30463 -19.9574 L 1.38744 -19.9518 L 1.47023 -19.9459 L 1.55299 -19.9396 L 1.63573 -19.933 L 1.68267 -19.8458 L 1.7296 -19.7584 L 1.77652 -19.6709 L 1.82343 -19.5833 L 1.87032 -19.4955 L 1.9172 -19.4075 L 1.96406 -19.3194 L 2.0109 -19.2312 L 2.05773 -19.1427 L 2.10454 -19.0541 L 2.15134 -18.9654 L 2.19811 -18.8764 L 2.24487 -18.7874 L 2.2916 -18.6981 L 2.33831 -18.6087 L 2.385 -18.5191 L 2.43167 -18.4293 L 2.47832 -18.3393 L 2.52494 -18.2492 L 2.57153 -18.1588 L 2.6181 -18.0683 L 2.66464 -17.9776 L 2.71115 -17.8867 L 2.75764 -17.7956 L 2.80409 -17.7043 L 2.80409 -17.7043 L 2.87648 -17.7768 L 2.94883 -17.8491 L 3.02116 -17.9211 L 3.09345 -17.993 L 3.16571 -18.0647 L 3.23794 -18.1362 L 3.31014 -18.2076 L 3.3823 -18.2787 L 3.45443 -18.3497 L 3.52653 -18.4205 L 3.59859 -18.4911 L 3.67062 -18.5615 L 3.74262 -18.6318 L 3.81458 -18.7019 L 3.88651 -18.7719 L 3.95841 -18.8417 L 4.03027 -18.9113 L 4.1021 -18.9808 L 4.1739 -19.0501 L 4.24566 -19.1193 L 4.31739 -19.1883 L 4.38908 -19.2572 L 4.46074 -19.3259 L 4.53237 -19.3944 L 4.60397 -19.4629 L 4.6847 -19.4436 L 4.76535 -19.424 L 4.84592 -19.404 L 4.9264 -19.3838 L 5.0068 -19.3632 L 5.08712 -19.3422 L 5.16734 -19.3209 L 5.24748 -19.2993 L 5.32753 -19.2774 L 5.40748 -19.2551 L 5.48734 -19.2325 L 5.56711 -19.2096 L 5.64678 -19.1863 L 5.72636 -19.1627 L 5.80583 -19.1388 L 5.88521 -19.1145 L 5.96448 -19.0899 L 6.04365 -19.065 L 6.31671 -18.9763 L 6.39541 -18.9499 L 6.47399 -18.9232 L 6.55247 -18.8962 L 6.63083 -18.8688 L 6.70908 -18.8411 L 6.78721 -18.8131 L 6.86523 -18.7848 L 6.94312 -18.7561 L 7.0209 -18.7272 L 7.09856 -18.6979 L 7.17609 -18.6683 L 7.25351 -18.6383 L 7.33079 -18.608 L 7.40795 -18.5775 L 7.48498 -18.5466 L 7.56189 -18.5153 L 7.63866 -18.4838 L 7.7153 -18.4519 L 7.733 -18.3545 L 7.75064 -18.2569 L 7.76823 -18.1592 L 7.78575 -18.0613 L 7.80322 -17.9634 L 7.82062 -17.8652 L 7.83796 -17.7669 L 7.85524 -17.6685 L 7.87245 -17.5699 L 7.88959 -17.4712 L 7.90666 -17.3723 L 7.92367 -17.2733 L 7.94061 -17.1741 L 7.95747 -17.0748 L 7.97426 -16.9753 L 7.99098 -16.8757 L 8.00761 -16.7758 L 8.02418 -16.6759 L 8.04066 -16.5757 L 8.05706 -16.4754 L 8.07337 -16.3749 L 8.08961 -16.2743 L 8.10575 -16.1735 L 8.12181 -16.0725 L 8.13778 -15.9713 L 8.13778 -15.9713 L 8.22902 -16.0178 L 8.32017 -16.0642 L 8.41123 -16.1104 L 8.5022 -16.1564 L 8.59308 -16.2023 L 8.68387 -16.248 L 8.77457 -16.2935 L 8.86519 -16.3389 L 8.95572 -16.3841 L 9.04616 -16.4291 L 9.13652 -16.474 L 9.2268 -16.5188 L 9.31699 -16.5634 L 9.4071 -16.6078 L 9.49712 -16.6521 L 9.58707 -16.6963 L 9.67693 -16.7403 L 9.76671 -16.7842 L 9.85642 -16.8279 L 9.94604 -16.8715 L 10.0356 -16.915 L 10.1251 -16.9583 L 10.2144 -17.0016 L 10.3038 -17.0446 L 10.393 -17.0876 L 10.4638 -17.0443 L 10.5345 -17.0007 L 10.6049 -16.9569 L 10.6752 -16.9127 L 10.7453 -16.8683 L 10.8152 -16.8235 L 10.8849 -16.7785 L 10.9545 -16.7332 L 11.0238 -16.6876 L 11.093 -16.6417 L 11.1619 -16.5955 L 11.2307 -16.549 L 11.2993 -16.5023 L 11.3677 -16.4553 L 11.4359 -16.4079 L 11.5039 -16.3603 L 11.5717 -16.3125 L 11.6393 -16.2643 L 11.8715 -16.0955 L 11.9382 -16.0461 L 12.0047 -15.9965 L 12.071 -15.9465 L 12.1371 -15.8963 L 12.2029 -15.8458 L 12.2686 -15.795 L 12.334 -15.7439 L 12.3993 -15.6926 L 12.4643 -15.641 L 12.5291 -15.5892 L 12.5937 -15.537 L 12.658 -15.4846 L 12.7222 -15.432 L 12.7861 -15.379 L 12.8498 -15.3258 L 12.9133 -15.2724 L 12.9766 -15.2187 L 13.0397 -15.1647 L 13.0264 -15.0665 L 13.013 -14.9683 L 12.9995 -14.8699 L 12.986 -14.7714 L 12.9723 -14.6728 L 12.9585 -14.5741 L 12.9446 -14.4753 L 12.9306 -14.3763 L 12.9165 -14.2773 L 12.9023 -14.1781 L 12.888 -14.0788 L 12.8736 -13.9794 L 12.8591 -13.8798 L 12.8444 -13.7801 L 12.8296 -13.6803 L 12.8147 -13.5804 L 12.7997 -13.4803 L 12.7846 -13.3801 L 12.7693 -13.2798 L 12.7539 -13.1793 L 12.7384 -13.0787 L 12.7227 -12.9779 L 12.7069 -12.8771 L 12.691 -12.776 L 12.6749 -12.6749 L 12.6749 -12.6749 L 12.776 -12.691 L 12.8771 -12.7069 L 12.9779 -12.7227 L 13.0787 -12.7384 L 13.1793 -12.7539 L 13.2798 -12.7693 L 13.3801 -12.7846 L 13.4803 -12.7997 L 13.5804 -12.8147 L 13.6803 -12.8296 L 13.7801 -12.8444 L 13.8798 -12.8591 L 13.9794 -12.8736 L 14.0788 -12.888 L 14.1781 -12.9023 L 14.2773 -12.9165 L 14.3763 -12.9306 L 14.4753 -12.9446 L 14.5741 -12.9585 L 14.6728 -12.9723 L 14.7714 -12.986 L 14.8699 -12.9995 L 14.9683 -13.013 L 15.0665 -13.0264 L 15.1647 -13.0397 L 15.2187 -12.9766 L 15.2724 -12.9133 L 15.3258 -12.8498 L 15.379 -12.7861 L 15.432 -12.7222 L 15.4846 -12.658 L 15.537 -12.5937 L 15.5892 -12.5291 L 15.641 -12.4643 L 15.6926 -12.3993 L 15.7439 -12.334 L 15.795 -12.2686 L 15.8458 -12.2029 L 15.8963 -12.1371 L 15.9465 -12.071 L 15.9965 -12.0047 L 16.0461 -11.9382 L 16.0955 -11.8715 L 16.2643 -11.6393 L 16.3125 -11.5717 L 16.3603 -11.5039 L 16.4079 -11.4359 L 16.4553 -11.3677 L 16.5023 -11.2993 L 16.549 -11.2307 L 16.5955 -11.1619 L 16.6417 -11.093 L 16.6876 -11.0238 L 16.7332 -10.9545 L 16.7785 -10.8849 L 16.8235 -10.8152 L 16.8683 -10.7453 L 16.9127 -10.6752 L 16.9569 -10.6049 L 17.0007 -10.5345 L 17.0443 -10.4638 L 17.0876 -10.393 L 17.0446 -10.3038 L 17.0016 -10.2144 L 16.9583 -10.1251 L 16.915 -10.0356 L 16.8715 -9.94604 L 16.8279 -9.85642 L 16.7842 -9.76671 L 16.7403 -9.67693 L 16.6963 -9.58707 L 16.6521 -9.49712 L 16.6078 -9.4071 L 16.5634 -9.31699 L 16.5188 -9.2268 L 16.474 -9.13652 L 16.4291 -9.04616 L 16.3841 -8.95572 L 16.3389 -8.86519 L 16.2935 -8.77457 L 16.248 -8.68387 L 16.2023 -8.59308 L 16.1564 -8.5022 L 16.1104 -8.41123 L 16.0642 -8.32017 L 16.0178 -8.22902 L 15.9713 -8.13778 L 15.9713 -8.13778 L 16.0725 -8.12181 L 16.1735 -8.10575 L 16.2743 -8.08961 L 16.3749 -8.07337 L 16.4754 -8.05706 L 16.5757 -8.04066 L 16.6759 -8.02418 L 16.7758 -8.00761 L 16.8757 -7.99098 L 16.9753 -7.97426 L 17.0748 -7.95747 L 17.1741 -7.94061 L 17.2733 -7.92367 L 17.3723 -7.90666 L 17.4712 -7.88959 L 17.5699 -7.87245 L 17.6685 -7.85524 L 17.7669 -7.83796 L 17.8652 -7.82062 L 17.9634 -7.80322 L 18.0613 -7.78575 L 18.1592 -7.76823 L 18.2569 -7.75064 L 18.3545 -7.733 L 18.4519 -7.7153 L 18.4838 -7.63866 L 18.5153 -7.56189 L 18.5466 -7.48498 L 18.5775 -7.40795 L 18.608 -7.33079 L 18.6383 -7.25351 L 18.6683 -7.17609 L 18.6979 -7.09856 L 18.7272 -7.0209 L 18.7561 -6.94312 L 18.7848 -6.86523 L 18.8131 -6.78721 L 18.8411 -6.70908 L 18.8688 -6.63083 L 18.8962 -6.55247 L 18.9232 -6.47399 L 18.9499 -6.39541 L 18.9763 -6.31671 L 19.065 -6.04365 L 19.0899 -5.96448 L 19.1145 -5.88521 L 19.1388 -5.80583 L 19.1627 -5.72636 L 19.1863 -5.64678 L 19.2096 -5.56711 L 19.2325 -5.48734 L 19.2551 -5.40748 L 19.2774 -5.32753 L 19.2993 -5.24748 L 19.3209 -5.16734 L 19.3422 -5.08712 L 19.3632 -5.0068 L 19.3838 -4.9264 L 19.404 -4.84592 L 19.424 -4.76535 L 19.4436 -4.6847 L 19.4629 -4.60397 L 19.3944 -4.53237 L 19.3259 -4.46074 L 19.2572 -4.38908 L 19.1883 -4.31739 L 19.1193 -4.24566 L 19.0501 -4.1739 L 18.9808 -4.1021 L 18.9113 -4.03027 L 18.8417 -3.95841 L 18.7719 -3.88651 L 18.7019 -3.81458 L 18.6318 -3.74262 L 18.5615 -3.67062 L 18.4911 -3.59859 L 18.4205 -3.52653 L 18.3497 -3.45443 L 18.2787 -3.3823 L 18.2076 -3.31014 L 18.1362 -3.23794 L 18.0647 -3.16571 L 17.993 -3.09345 L 17.9211 -3.02116 L 17.8491 -2.94883 L 17.7768 -2.87648 L 17.7043 -2.80409 L 17.7043 -2.80409 L 17.7956 -2.75764 L 17.8867 -2.71115 L 17.9776 -2.66464 L 18.0683 -2.6181 L 18.1588 -2.57153 L 18.2492 -2.52494 L 18.3393 -2.47832 L 18.4293 -2.43167 L 18.5191 -2.385 L 18.6087 -2.33831 L 18.6981 -2.2916 L 18.7874 -2.24487 L 18.8764 -2.19811 L 18.9654 -2.15134 L 19.0541 -2.10454 L 19.1427 -2.05773 L 19.2312 -2.0109 L 19.3194 -1.96406 L 19.4075 -1.9172 L 19.4955 -1.87032 L 19.5833 -1.82343 L 19.6709 -1.77652 L 19.7584 -1.7296 L 19.8458 -1.68267 L 19.933 -1.63573 L 19.9396 -1.55299 L 19.9459 -1.47023 L 19.9518 -1.38744 L 19.9574 -1.30463 L 19.9626 -1.22179 L 19.9675 -1.13894 L 19.9721 -1.05606 L 19.9763 -0.973171 L 19.9802 -0.890261 L 19.9837 -0.807336 L 19.9869 -0.724397 L 19.9897 -0.641445 L 19.9922 -0.558483 L 19.9943 -0.47551 L 19.9961 -0.39253 L 19.9976 -0.309543 L 19.9987 -0.22655 L 19.9995 -0.143554Z"
id="path1" />
</g>
</svg>
