<?xml version="1.0" encoding="UTF-8" standalone="no"?>
<svg version="1.1">
<g
style="fill:none;stroke:#000000;stroke-opacity:1;stroke-width:0.1">
<path d="M 20.6245 0.136729 L 20.6239 0.216534 L 20.6229 0.296335 L 20.6216 0.376132 L 20.62 0.455924 L 20.618 0.535708 L 20.6158 0.615485 L 20.6133 0.695252 L 20.6104 0.775009 L 20.6073 0.854754 L 20.6038 0.934487 L 20.6 1.01421 L 20.596 1.09391 L 20.5916 1.1736 L 20.5869 1.25327 L 20.5819 1.33292 L 20.5766 1.41255 L 20.571 1.49216 L 20.565 1.57174 L 20.5588 1.65131 L 20.4752 1.6943 L 20.3915 1.73729 L 20.3077 1.78027 L 20.2238 1.82323 L 20.1397 1.86619 L 20.0555 1.90913 L 19.9712 1.95206 L 19.8867 1.99498 L 19.8021 2.03788 L 19.7174 2.08077 L 19.6326 2.12365 L 19.5476 2.16652 L 19.4625 2.20936 L 19.3772 2.2522 L 19.2919 2.29501 L 19.2063 2.33781 L 19.1206 2.38059 L 19.0348 2.42335 L 18.9489 2.4661 L 18.8627 2.50883 L 18.7765 2.55153 L 18.69 2.59422 L 18.6035 2.63688 L 18.5167 2.67952 L 18.4299 2.72214 L 18.3428 2.76473 L 18.3428 2.76473 L 18.4134 2.83109 L 18.4839 2.89743 L 18.5542 2.96374 L 18.6244 3.03003 L 18.6944 3.09629 L 18.7642 3.16252 L 18.8339 3.22873 L 18.9035 3.29492 L 18.9729 3.36108 L 19.0421 3.42721 L 19.1112 3.49332 L 19.1802 3.55941 L 19.2491 3.62547 L 19.3178 3.6915 L 19.3863 3.7575 L 19.4548 3.82348 L 19.5231 3.88944 L 19.5912 3.95537 L 19.6593 4.02127 L 19.7272 4.08715 L 19.795 4.153 L 19.8627 4.21882 L 19.9302 4.28462 L 19.9977 4.3504 L 20.065 4.41614 L 20.1322 4.48187 L 20.1147 4.55973 L 20.0969 4.63753 L 20.0788 4.71526 L 20.0604 4.79292 L 20.0417 4.87051 L 20.0227 4.94802 L 20.0034 5.02546 L 19.9838 5.10282 L 19.9639 5.18011 L 19.9437 5.25732 L 19.9232 5.33445 L 19.9024 5.41151 L 19.8813 5.48848 L 19.8599 5.56537 L 19.8383 5.64217 L 19.8163 5.71889 L 19.794 5.79553 L 19.7714 5.87208 L 19.7486 5.94854 L 19.668 6.20985 L 19.6438 6.2859 L 19.6193 6.36187 L 19.5945 6.43774 L 19.5695 6.51351 L 19.5441 6.58918 L 19.5185 6.66476 L 19.4926 6.74023 L 19.4663 6.81561 L 19.4398 6.89088 L 19.413 6.96605 L 19.3859 7.04112 L 19.3585 7.11608 L 19.3308 7.19093 L 19.3029 7.26568 L 19.2746 7.34031 L 19.2461 7.41484 L 19.2172 7.48926 L 19.1881 7.56356 L 19.1587 7.63775 L 19.0662 7.6542 L 18.9735 7.67061 L 18.8807 7.68697 L 18.7879 7.70329 L 18.6949 7.71955 L 18.6018 7.73577 L 18.5085 7.75194 L 18.4152 7.76806 L 18.3217 7.78413 L 18.2281 7.80015 L 18.1344 7.81611 L 18.0406 7.83202 L 17.9466 7.84788 L 17.8525 7.86368 L 17.7583 7.87942 L 17.664 7.89511 L 17.5695 7.91074 L 17.4749 7.9263 L 17.3801 7.94181 L 17.2852 7.95725 L 17.1902 7.97263 L 17.095 7.98795 L 16.9997 8.0032 L 16.9043 8.01838 L 16.8087 8.0335 L 16.713 8.04854 L 16.713 8.04854 L 16.7609 8.13277 L 16.8087 8.21693 L 16.8563 8.30102 L 16.9038 8.38504 L 16.9512 8.46899 L 16.9984 8.55287 L 17.0455 8.63668 L 17.0924 8.72043 L 17.1393 8.8041 L 17.1859 8.88772 L 17.2325 8.97126 L 17.2789 9.05474 L 17.3252 9.13815 L 17.3714 9.2215 L 17.4175 9.30479 L 17.4635 9.38801 L 17.5093 9.47117 L 17.555 9.55426 L 17.6006 9.63729 L 17.6461 9.72026 L 17.6914 9.80317 L 17.7367 9.88602 L 17.7819 9.96881 L 17.8269 10.0515 L 17.8718 10.1342 L 17.9167 10.2168 L 17.877 10.2861 L 17.8371 10.3552 L 17.7969 10.4241 L 17.7564 10.4929 L 17.7157 10.5615 L 17.6747 10.63 L 17.6334 10.6983 L 17.5919 10.7664 L 17.5501 10.8344 L 17.508 10.9023 L 17.4657 10.9699 L 17.4231 11.0374 L 17.3803 11.1048 L 17.3372 11.1719 L 17.2938 11.2389 L 17.2502 11.3058 L 17.2063 11.3724 L 17.1622 11.4389 L 17.1178 11.5053 L 16.9638 11.7312 L 16.9183 11.7967 L 16.8725 11.8621 L 16.8265 11.9273 L 16.7802 11.9923 L 16.7337 12.0572 L 16.6869 12.1218 L 16.6398 12.1863 L 16.5926 12.2506 L 16.545 12.3147 L 16.4973 12.3787 L 16.4492 12.4424 L 16.401 12.506 L 16.3525 12.5693 L 16.3037 12.6325 L 16.2547 12.6955 L 16.2054 12.7583 L 16.156 12.8209 L 16.1062 12.8833 L 16.0563 12.9456 L 15.963 12.934 L 15.8696 12.9224 L 15.7761 12.9107 L 15.6826 12.8989 L 15.5889 12.887 L 15.4952 12.8751 L 15.4013 12.863 L 15.3074 12.8509 L 15.2133 12.8387 L 15.1192 12.8264 L 15.0249 12.8141 L 14.9306 12.8016 L 14.8361 12.7891 L 14.7415 12.7764 L 14.6469 12.7637 L 14.5521 12.7509 L 14.4572 12.738 L 14.3622 12.725 L 14.2671 12.7119 L 14.1719 12.6986 L 14.0765 12.6853 L 13.9811 12.6719 L 13.8855 12.6584 L 13.7898 12.6448 L 13.694 12.631 L 13.5981 12.6172 L 13.5981 12.6172 L 13.6191 12.7118 L 13.6399 12.8063 L 13.6607 12.9007 L 13.6813 12.995 L 13.7018 13.0892 L 13.7222 13.1833 L 13.7425 13.2772 L 13.7627 13.3711 L 13.7827 13.4648 L 13.8027 13.5585 L 13.8226 13.6521 L 13.8424 13.7455 L 13.862 13.8389 L 13.8816 13.9321 L 13.9011 14.0253 L 13.9204 14.1184 L 13.9397 14.2113 L 13.9589 14.3042 L 13.978 14.397 L 13.997 14.4897 L 14.0159 14.5823 L 14.0348 14.6748 L 14.0535 14.7672 L 14.0722 14.8595 L 14.0907 14.9518 L 14.1092 15.0439 L 14.0509 15.0984 L 13.9924 15.1527 L 13.9337 15.2067 L 13.8747 15.2605 L 13.8156 15.3141 L 13.7562 15.3674 L 13.6966 15.4205 L 13.6369 15.4734 L 13.5769 15.5261 L 13.5167 15.5785 L 13.4563 15.6307 L 13.3957 15.6826 L 13.335 15.7343 L 13.274 15.7858 L 13.2128 15.8371 L 13.1514 15.8881 L 13.0898 15.9388 L 13.0281 15.9894 L 12.9661 16.0397 L 12.7523 16.2102 L 12.6895 16.2594 L 12.6265 16.3084 L 12.5633 16.3571 L 12.4999 16.4056 L 12.4363 16.4538 L 12.3725 16.5018 L 12.3086 16.5496 L 12.2445 16.5971 L 12.1802 16.6444 L 12.1157 16.6914 L 12.051 16.7381 L 11.9861 16.7846 L 11.9211 16.8309 L 11.8559 16.8769 L 11.7905 16.9226 L 11.7249 16.9681 L 11.6592 17.0134 L 11.5932 17.0583 L 11.5272 17.1031 L 11.4414 17.0645 L 11.3556 17.0259 L 11.2698 16.9872 L 11.1838 16.9483 L 11.0978 16.9094 L 11.0118 16.8703 L 10.9256 16.8312 L 10.8394 16.7919 L 10.7532 16.7525 L 10.6668 16.7131 L 10.5804 16.6735 L 10.4939 16.6337 L 10.4073 16.5939 L 10.3207 16.554 L 10.234 16.5139 L 10.1472 16.4737 L 10.0603 16.4334 L 9.97336 16.393 L 9.88634 16.3524 L 9.79924 16.3117 L 9.71207 16.2709 L 9.62482 16.2299 L 9.53748 16.1888 L 9.45007 16.1476 L 9.36257 16.1063 L 9.275 16.0648 L 9.275 16.0648 L 9.26715 16.1614 L 9.25922 16.2578 L 9.25121 16.3541 L 9.24313 16.4503 L 9.23497 16.5463 L 9.22673 16.6422 L 9.21842 16.738 L 9.21004 16.8337 L 9.20159 16.9292 L 9.19306 17.0246 L 9.18447 17.1198 L 9.17581 17.215 L 9.16709 17.31 L 9.1583 17.4048 L 9.14944 17.4996 L 9.14053 17.5943 L 9.13155 17.6888 L 9.12251 17.7832 L 9.11341 17.8775 L 9.10425 17.9716 L 9.09504 18.0657 L 9.08576 18.1597 L 9.07644 18.2535 L 9.06705 18.3472 L 9.05762 18.4408 L 9.04813 18.5343 L 8.97634 18.5692 L 8.90442 18.6038 L 8.83237 18.6381 L 8.76018 18.6722 L 8.68787 18.7059 L 8.61542 18.7394 L 8.54284 18.7726 L 8.47014 18.8055 L 8.39731 18.8381 L 8.32435 18.8705 L 8.25127 18.9026 L 8.17807 18.9344 L 8.10474 18.9659 L 8.03129 18.9971 L 7.95772 19.028 L 7.88404 19.0587 L 7.81023 19.089 L 7.73631 19.1191 L 7.66227 19.1489 L 7.40772 19.2488 L 7.33318 19.2773 L 7.25853 19.3056 L 7.18377 19.3335 L 7.10891 19.3611 L 7.03394 19.3885 L 6.95886 19.4156 L 6.88368 19.4424 L 6.8084 19.4689 L 6.73302 19.4951 L 6.65753 19.521 L 6.58195 19.5466 L 6.50626 19.5719 L 6.43048 19.5969 L 6.3546 19.6217 L 6.27863 19.6461 L 6.20256 19.6703 L 6.1264 19.6941 L 6.05015 19.7177 L 5.97381 19.7409 L 5.90325 19.6788 L 5.83266 19.6166 L 5.76203 19.5543 L 5.69137 19.4919 L 5.62067 19.4293 L 5.54994 19.3666 L 5.47917 19.3038 L 5.40836 19.2409 L 5.33752 19.1778 L 5.26665 19.1146 L 5.19574 19.0513 L 5.12479 18.9879 L 5.05381 18.9243 L 4.98279 18.8606 L 4.91174 18.7967 L 4.84065 18.7328 L 4.76953 18.6686 L 4.69836 18.6044 L 4.62717 18.54 L 4.55593 18.4754 L 4.48466 18.4107 L 4.41335 18.3458 L 4.34201 18.2808 L 4.27063 18.2157 L 4.19922 18.1504 L 4.12776 18.0849 L 4.12776 18.0849 L 4.09179 18.1749 L 4.05579 18.2647 L 4.01975 18.3544 L 3.98367 18.4439 L 3.94756 18.5333 L 3.91142 18.6225 L 3.87525 18.7116 L 3.83905 18.8005 L 3.80282 18.8893 L 3.76656 18.9779 L 3.73028 19.0664 L 3.69396 19.1548 L 3.65762 19.243 L 3.62125 19.3311 L 3.58486 19.419 L 3.54844 19.5068 L 3.512 19.5945 L 3.47554 19.682 L 3.43905 19.7695 L 3.40254 19.8567 L 3.36601 19.9439 L 3.32946 20.031 L 3.29288 20.1179 L 3.25629 20.2047 L 3.21968 20.2913 L 3.18305 20.3779 L 3.10417 20.3901 L 3.02525 20.4019 L 2.94629 20.4135 L 2.86727 20.4247 L 2.78822 20.4357 L 2.70913 20.4463 L 2.62999 20.4566 L 2.55081 20.4667 L 2.4716 20.4764 L 2.39235 20.4858 L 2.31306 20.4949 L 2.23374 20.5037 L 2.15439 20.5122 L 2.075 20.5204 L 1.99558 20.5282 L 1.91613 20.5358 L 1.83666 20.5431 L 1.75715 20.55 L 1.67762 20.5567 L 1.40493 20.5771 L 1.3253 20.5824 L 1.24564 20.5874 L 1.16597 20.592 L 1.08628 20.5964 L 1.00658 20.6004 L 0.926858 20.6042 L 0.847124 20.6076 L 0.767378 20.6107 L 0.68762 20.6135 L 0.607851 20.616 L 0.528074 20.6182 L 0.448289 20.6201 L 0.368497 20.6217 L 0.288699 20.623 L 0.208897 20.6239 L 0.129092 20.6246 L 0.0492856 20.6249 L -0.030522 20.625 L -0.110329 20.6247 L -0.159451 20.5446 L -0.208573 20.4643 L -0.257693 20.3839 L -0.306811 20.3035 L -0.355928 20.2228 L -0.405043 20.1421 L -0.454154 20.0612 L -0.503263 19.9802 L -0.552369 19.8991 L -0.601471 19.8178 L -0.650569 19.7364 L -0.699662 19.6549 L -0.748751 19.5732 L -0.797834 19.4914 L -0.846911 19.4094 L -0.895983 19.3273 L -0.945047 19.2451 L -0.994105 19.1627 L -1.04315 19.0802 L -1.0922 18.9975 L -1.14123 18.9146 L -1.19025 18.8317 L -1.23927 18.7485 L -1.28827 18.6652 L -1.33726 18.5818 L -1.38624 18.4981 L -1.38624 18.4981 L -1.44714 18.5735 L -1.50802 18.6487 L -1.5689 18.7238 L -1.62975 18.7987 L -1.6906 18.8735 L -1.75143 18.9481 L -1.81225 19.0225 L -1.87305 19.0968 L -1.93384 19.171 L -1.99461 19.245 L -2.05537 19.3189 L -2.11612 19.3926 L -2.17684 19.4662 L -2.23756 19.5396 L -2.29825 19.6129 L -2.35894 19.6861 L -2.4196 19.7591 L -2.48025 19.832 L -2.54089 19.9048 L -2.6015 19.9775 L -2.6621 20.05 L -2.72269 20.1224 L -2.78326 20.1947 L -2.84381 20.2668 L -2.90434 20.3389 L -2.96486 20.4108 L -3.04381 20.3992 L -3.12272 20.3872 L -3.20159 20.375 L -3.2804 20.3625 L -3.35917 20.3496 L -3.43789 20.3365 L -3.51655 20.323 L -3.59516 20.3092 L -3.67372 20.2952 L -3.75223 20.2808 L -3.83068 20.2661 L -3.90907 20.2512 L -3.9874 20.2359 L -4.06567 20.2203 L -4.14388 20.2044 L -4.22203 20.1882 L -4.30012 20.1718 L -4.37814 20.155 L -4.45609 20.1379 L -4.72269 20.077 L -4.80035 20.0586 L -4.87793 20.0399 L -4.95543 20.0208 L -5.03287 20.0015 L -5.11022 19.9819 L -5.1875 19.962 L -5.26471 19.9418 L -5.34183 19.9212 L -5.41888 19.9004 L -5.49584 19.8793 L -5.57272 19.8579 L -5.64952 19.8362 L -5.72623 19.8142 L -5.80286 19.7919 L -5.8794 19.7693 L -5.95585 19.7464 L -6.03221 19.7232 L -6.10848 19.6997 L -6.18467 19.6759 L -6.20799 19.5848 L -6.23127 19.4937 L -6.25452 19.4024 L -6.27773 19.311 L -6.3009 19.2195 L -6.32403 19.1278 L -6.34712 19.0361 L -6.37017 18.9442 L -6.39318 18.8522 L -6.41615 18.7601 L -6.43907 18.6678 L -6.46195 18.5754 L -6.48478 18.4829 L -6.50757 18.3903 L -6.53031 18.2975 L -6.553 18.2046 L -6.57565 18.1115 L -6.59824 18.0183 L -6.62079 17.925 L -6.64328 17.8315 L -6.66572 17.7379 L -6.6881 17.6442 L -6.71043 17.5503 L -6.7327 17.4562 L -6.75492 17.3621 L -6.77708 17.2677 L -6.77708 17.2677 L -6.85749 17.3218 L -6.93784 17.3757 L -7.01813 17.4295 L -7.09837 17.4832 L -7.17854 17.5367 L -7.25866 17.59 L -7.33872 17.6432 L -7.41872 17.6963 L -7.49867 17.7493 L -7.57856 17.8021 L -7.65839 17.8547 L -7.73817 17.9073 L -7.81789 17.9597 L -7.89755 18.012 L -7.97716 18.0641 L -8.05671 18.1162 L -8.13621 18.1681 L -8.21566 18.2199 L -8.29505 18.2716 L -8.37439 18.3231 L -8.45368 18.3746 L -8.53291 18.4259 L -8.61209 18.4771 L -8.69122 18.5282 L -8.7703 18.5792 L -8.84932 18.6301 L -8.92134 18.5957 L -8.99323 18.561 L -9.06499 18.5261 L -9.1366 18.4909 L -9.20808 18.4554 L -9.27943 18.4196 L -9.35063 18.3836 L -9.4217 18.3473 L -9.49262 18.3107 L -9.5634 18.2738 L -9.63404 18.2367 L -9.70453 18.1992 L -9.77488 18.1616 L -9.84508 18.1236 L -9.91514 18.0854 L -9.98504 18.0469 L -10.0548 18.0081 L -10.1244 17.9691 L -10.1939 17.9297 L -10.4307 17.793 L -10.4995 17.7525 L -10.5681 17.7118 L -10.6365 17.6707 L -10.7048 17.6294 L -10.773 17.5879 L -10.8409 17.5461 L -10.9087 17.504 L -10.9764 17.4617 L -11.0439 17.4191 L -11.1112 17.3762 L -11.1784 17.3331 L -11.2453 17.2897 L -11.3122 17.246 L -11.3788 17.2021 L -11.4453 17.158 L -11.5116 17.1136 L -11.5777 17.0689 L -11.6437 17.024 L -11.7095 16.9788 L -11.7049 16.8849 L -11.7003 16.7909 L -11.6956 16.6968 L -11.6908 16.6027 L -11.686 16.5084 L -11.6811 16.414 L -11.6761 16.3195 L -11.6711 16.2249 L -11.6659 16.1302 L -11.6607 16.0354 L -11.6554 15.9405 L -11.6501 15.8455 L -11.6446 15.7503 L -11.6391 15.6551 L -11.6335 15.5597 L -11.6278 15.4643 L -11.622 15.3687 L -11.6161 15.273 L -11.6101 15.1771 L -11.6041 15.0812 L -11.5979 14.9851 L -11.5917 14.8889 L -11.5853 14.7926 L -11.5789 14.6962 L -11.5724 14.5997 L -11.5657 14.503 L -11.5657 14.503 L -11.6585 14.531 L -11.7512 14.5588 L -11.8438 14.5865 L -11.9363 14.6142 L -12.0286 14.6416 L -12.1209 14.669 L -12.2131 14.6963 L -12.3052 14.7234 L -12.3972 14.7504 L -12.4891 14.7774 L -12.5809 14.8042 L -12.6726 14.8309 L -12.7643 14.8574 L -12.8558 14.8839 L -12.9473 14.9103 L -13.0386 14.9366 L -13.1299 14.9628 L -13.2211 14.9888 L -13.3122 15.0148 L -13.4032 15.0407 L -13.4941 15.0665 L -13.5849 15.0922 L -13.6757 15.1178 L -13.7664 15.1433 L -13.857 15.1687 L -13.9475 15.194 L -14.0062 15.1399 L -14.0647 15.0856 L -14.1229 15.0311 L -14.181 14.9763 L -14.2388 14.9213 L -14.2965 14.8661 L -14.3539 14.8107 L -14.4111 14.7551 L -14.4681 14.6992 L -14.5248 14.6431 L -14.5814 14.5868 L -14.6377 14.5302 L -14.6938 14.4735 L -14.7497 14.4165 L -14.8054 14.3594 L -14.8608 14.302 L -14.9161 14.2443 L -14.9711 14.1865 L -15.0259 14.1285 L -15.2119 13.928 L -15.2656 13.8691 L -15.3192 13.8099 L -15.3725 13.7505 L -15.4256 13.6909 L -15.4785 13.6311 L -15.5311 13.5711 L -15.5835 13.5109 L -15.6357 13.4505 L -15.6876 13.3899 L -15.7393 13.3291 L -15.7907 13.2681 L -15.842 13.2069 L -15.8929 13.1455 L -15.9437 13.0839 L -15.9942 13.0221 L -16.0445 12.9602 L -16.0945 12.898 L -16.1443 12.8356 L -16.1938 12.773 L -16.1618 12.6847 L -16.1297 12.5962 L -16.0975 12.5077 L -16.0652 12.4191 L -16.0328 12.3305 L -16.0003 12.2417 L -15.9676 12.1529 L -15.9349 12.064 L -15.9021 11.975 L -15.8692 11.8859 L -15.8362 11.7968 L -15.803 11.7076 L -15.7698 11.6183 L -15.7364 11.5289 L -15.7029 11.4394 L -15.6693 11.3499 L -15.6356 11.2602 L -15.6018 11.1705 L -15.5679 11.0807 L -15.5338 10.9908 L -15.4996 10.9008 L -15.4653 10.8108 L -15.4308 10.7206 L -15.3963 10.6304 L -15.3616 10.54 L -15.3267 10.4496 L -15.3267 10.4496 L -15.4236 10.449 L -15.5204 10.4483 L -15.6171 10.4475 L -15.7136 10.4466 L -15.8099 10.4457 L -15.9062 10.4446 L -16.0023 10.4435 L -16.0983 10.4423 L -16.1942 10.441 L -16.29 10.4396 L -16.3856 10.4382 L -16.4811 10.4366 L -16.5765 10.435 L -16.6718 10.4334 L -16.7669 10.4316 L -16.862 10.4298 L -16.9569 10.4279 L -17.0517 10.4259 L -17.1464 10.4239 L -17.241 10.4218 L -17.3355 10.4197 L -17.4299 10.4174 L -17.5242 10.4151 L -17.6183 10.4128 L -17.7124 10.4104 L -17.8064 10.4079 L -17.8465 10.3389 L -17.8864 10.2698 L -17.926 10.2005 L -17.9653 10.1311 L -18.0044 10.0615 L -18.0432 9.99173 L -18.0817 9.92183 L -18.12 9.85179 L -18.1579 9.78161 L -18.1957 9.71127 L -18.2331 9.64079 L -18.2703 9.57017 L -18.3072 9.4994 L -18.3438 9.42849 L -18.3801 9.35744 L -18.4162 9.28625 L -18.452 9.21492 L -18.4875 9.14345 L -18.5228 9.07184 L -18.6414 8.82547 L -18.6754 8.75327 L -18.7091 8.68094 L -18.7426 8.60848 L -18.7758 8.53589 L -18.8086 8.46318 L -18.8413 8.39033 L -18.8736 8.31737 L -18.9056 8.24427 L -18.9374 8.17106 L -18.9689 8.09772 L -19 8.02426 L -19.031 7.95068 L -19.0616 7.87698 L -19.0919 7.80316 L -19.122 7.72923 L -19.1517 7.65518 L -19.1812 7.58102 L -19.2104 7.50674 L -19.2393 7.43235 L -19.1827 7.35735 L -19.1259 7.2823 L -19.069 7.20721 L -19.012 7.13208 L -18.9549 7.05691 L -18.8977 6.98169 L -18.8404 6.90642 L -18.7829 6.83111 L -18.7253 6.75576 L -18.6676 6.68036 L -18.6098 6.60492 L -18.5518 6.52943 L -18.4937 6.45389 L -18.4355 6.37831 L -18.3771 6.30269 L -18.3186 6.22702 L -18.26 6.1513 L -18.2012 6.07553 L -18.1423 5.99972 L -18.0833 5.92386 L -18.0241 5.84795 L -17.9647 5.772 L -17.9053 5.696 L -17.8456 5.61995 L -17.7858 5.54385 L -17.7259 5.46771 L -17.7259 5.46771 L -17.8183 5.43856 L -17.9106 5.40937 L -18.0027 5.38013 L -18.0946 5.35085 L -18.1865 5.32152 L -18.2781 5.29215 L -18.3697 5.26274 L -18.461 5.23328 L -18.5523 5.20379 L -18.6434 5.17425 L -18.7343 5.14468 L -18.8251 5.11507 L -18.9158 5.08542 L -19.0064 5.05574 L -19.0968 5.02602 L -19.1871 4.99627 L -19.2772 4.96648 L -19.3673 4.93666 L -19.4572 4.90681 L -19.5469 4.87692 L -19.6366 4.84701 L -19.7261 4.81706 L -19.8155 4.78709 L -19.9048 4.75708 L -19.994 4.72705 L -20.083 4.69699 L -20.1011 4.61925 L -20.1188 4.54143 L -20.1362 4.46355 L -20.1533 4.3856 L -20.1702 4.30758 L -20.1867 4.2295 L -20.2029 4.15136 L -20.2188 4.07316 L -20.2344 3.99489 L -20.2497 3.91656 L -20.2647 3.83818 L -20.2794 3.75974 L -20.2938 3.68124 L -20.3079 3.60268 L -20.3217 3.52408 L -20.3352 3.44542 L -20.3484 3.3667 L -20.3612 3.28794 L -20.3738 3.20913 L -20.4146 2.93873 L -20.4258 2.85971 L -20.4367 2.78065 L -20.4473 2.70155 L -20.4576 2.62241 L -20.4676 2.54323 L -20.4773 2.46402 L -20.4867 2.38476 L -20.4957 2.30547 L -20.5045 2.22615 L -20.513 2.14679 L -20.5211 2.0674 L -20.529 1.98798 L -20.5365 1.90853 L -20.5437 1.82905 L -20.5507 1.74954 L -20.5573 1.67001 L -20.5636 1.59045 L -20.5696 1.51087 L -20.5753 1.43127 L -20.499 1.37629 L -20.4227 1.32131 L -20.3462 1.26632 L -20.2696 1.21133 L -20.1929 1.15632 L -20.116 1.10131 L -20.039 1.04629 L -19.9619 0.991266 L -19.8847 0.936235 L -19.8073 0.881197 L -19.7298 0.826153 L -19.6522 0.771104 L -19.5744 0.716049 L -19.4965 0.660989 L -19.4184 0.605924 L -19.3402 0.550855 L -19.2619 0.495782 L -19.1834 0.440705 L -19.1048 0.385624 L -19.026 0.330541 L -18.947 0.275455 L -18.8679 0.220367 L -18.7887 0.165277 L -18.7093 0.110185 L -18.6297 0.0550929 L -18.55 -3.10862e-15 L -18.55 7.65206e-15 L -18.6297 -0.0550929 L -18.7093 -0.110185 L -18.7887 -0.165277 L -18.8679 -0.220367 L -18.947 -0.275455 L -19.026 -0.330541 L -19.1048 -0.385624 L -19.1834 -0.440705 L -19.2619 -0.495782 L -19.3402 -0.550855 L -19.4184 -0.605924 L -19.4965 -0.660989 L -19.5744 -0.716049 L -19.6522 -0.771104 L -19.7298 -0.826153 L -19.8073 -0.881197 L -19.8847 -0.936235 L -19.9619 -0.991266 L -20.039 -1.04629 L -20.116 -1.10131 L -20.1929 -1.15632 L -20.2696 -1.21133 L -20.3462 -1.26632 L -20.4227 -1.32131 L -20.499 -1.37629 L -20.5753 -1.43127 L -20.5696 -1.51087 L -20.5636 -1.59045 L -20.5573 -1.67001 L -20.5507 -1.74954 L -20.5437 -1.82905 L -20.5365 -1.90853 L -20.529 -1.98798 L -20.5211 -2.0674 L -20.513 -2.14679 L -20.5045 -2.22615 L -20.4957 -2.30547 L -20.4867 -2.38476 L -20.4773 -2.46402 L -20.4676 -2.54323 L -20.4576 -2.62241 L -20.4473 -2.70155 L -20.4367 -2.78065 L -20.4258 -2.85971 L -20.4146 -2.93873 L -20.3738 -3.20913 L -20.3612 -3.28794 L -20.3484 -3.3667 L -20.3352 -3.44542 L -20.3217 -3.52408 L -20.3079 -3.60268 L -20.2938 -3.68124 L -20.2794 -3.75974 L -20.2647 -3.83818 L -20.2497 -3.91656 L -20.2344 -3.99489 L -20.2188 -4.07316 L -20.2029 -4.15136 L -20.1867 -4.2295 L -20.1702 -4.30758 L -20.1533 -4.3856 L -20.1362 -4.46355 L -20.1188 -4.54143 L -20.1011 -4.61925 L -20.083 -4.69699 L -19.994 -4.72705 L -19.9048 -4.75708 L -19.8155 -4.78709 L -19.7261 -4.81706 L -19.6366 -4.84701 L -19.5469 -4.87692 L -19.4572 -4.90681 L -19.3673 -4.93666 L -19.2772 -4.96648 L -19.1871 -4.99627 L -19.0968 -5.02602 L -19.0064 -5.05574 L -18.9158 -5.08542 L -18.8251 -5.11507 L -18.7343 -5.14468 L -18.6434 -5.17425 L -18.5523 -5.20379 L -18.461 -5.23328 L -18.3697 -5.26274 L -18.2781 -5.29215 L -18.1865 -5.32152 L -18.0946 -5.35085 L -18.0027 -5.38013 L -17.9106 -5.40937 L -17.8183 -5.43856 L -17.7259 -5.46771 L -17.7259 -5.46771 L -17.7858 -5.54385 L -17.8456 -5.61995 L -17.9053 -5.696 L -17.9647 -5.772 L -18.0241 -5.84795 L -18.0833 -5.92386 L -18.1423 -5.99972 L -18.2012 -6.07553 L -18.26 -6.1513 L -18.3186 -6.22702 L -18.3771 -6.30269 L -18.4355 -6.37831 L -18.4937 -6.45389 L -18.5518 -6.52943 L -18.6098 -6.60492 L -18.6676 -6.68036 L -18.7253 -6.75576 L -18.7829 -6.83111 L -18.8404 -6.90642 L -18.8977 -6.98169 L -18.9549 -7.05691 L -19.012 -7.13208 L -19.069 -7.20721 L -19.1259 -7.2823 L -19.1827 -7.35735 L -19.2393 -7.43235 L -19.2104 -7.50674 L -19.1812 -7.58102 L -19.1517 -7.65518 L -19.122 -7.72923 L -19.0919 -7.80316 L -19.0616 -7.87698 L -19.031 -7.95068 L -19 -8.02426 L -18.9689 -8.09772 L -18.9374 -8.17106 L -18.9056 -8.24427 L -18.8736 -8.31737 L -18.8413 -8.39033 L -18.8086 -8.46318 L -18.7758 -8.53589 L -18.7426 -8.60848 L -18.7091 -8.68094 L -18.6754 -8.75327 L -18.6414 -8.82547 L -18.5228 -9.07184 L -18.4875 -9.14345 L -18.452 -9.21492 L -18.4162 -9.28625 L -18.3801 -9.35744 L -18.3438 -9.42849 L -18.3072 -9.4994 L -18.2703 -9.57017 L -18.2331 -9.64079 L -18.1957 -9.71127 L -18.1579 -9.78161 L -18.12 -9.85179 L -18.0817 -9.92183 L -18.0432 -9.99173 L -18.0044 -10.0615 L -17.9653 -10.1311 L -17.926 -10.2005 L -17.8864 -10.2698 L -17.8465 -10.3389 L -17.8064 -10.4079 L -17.7124 -10.4104 L -17.6183 -10.4128 L -17.5242 -10.4151 L -17.4299 -10.4174 L -17.3355 -10.4197 L -17.241 -10.4218 L -17.1464 -10.4239 L -17.0517 -10.4259 L -16.9569 -10.4279 L -16.862 -10.4298 L -16.7669 -10.4316 L -16.6718 -10.4334 L -16.5765 -10.435 L -16.4811 -10.4366 L -16.3856 -10.4382 L -16.29 -10.4396 L -16.1942 -10.441 L -16.0983 -10.4423 L -16.0023 -10.4435 L -15.9062 -10.4446 L -15.8099 -10.4457 L -15.7136 -10.4466 L -15.6171 -10.4475 L -15.5204 -10.4483 L -15.4236 -10.449 L -15.3267 -10.4496 L -15.3267 -10.4496 L -15.3616 -10.54 L -15.3963 -10.6304 L -15.4308 -10.7206 L -15.4653 -10.8108 L -15.4996 -10.9008 L -15.5338 -10.9908 L -15.5679 -11.0807 L -15.6018 -11.1705 L -15.6356 -11.2602 L -15.6693 -11.3499 L -15.7029 -11.4394 L -15.7364 -11.5289 L -15.7698 -11.6183 L -15.803 -11.7076 L -15.8362 -11.7968 L -15.8692 -11.8859 L -15.9021 -11.975 L -15.9349 -12.064 L -15.9676 -12.1529 L -16.0003 -12.2417 L -16.0328 -12.3305 L -16.0652 -12.4191 L -16.0975 -12.5077 L -16.1297 -12.5962 L -16.1618 -12.6847 L -16.1938 -12.773 L -16.1443 -12.8356 L -16.0945 -12.898 L -16.0445 -12.9602 L -15.9942 -13.0221 L -15.9437 -13.0839 L -15.8929 -13.1455 L -15.842 -13.2069 L -15.7907 -13.2681 L -15.7393 -13.3291 L -15.6876 -13.3899 L -15.6357 -13.4505 L -15.5835 -13.5109 L -15.5311 -13.5711 L -15.4785 -13.6311 L -15.4256 -13.6909 L -15.3725 -13.7505 L -15.3192 -13.8099 L -15.2656 -13.8691 L -15.2119 -13.928 L -15.0259 -14.1285 L -14.9711 -14.1865 L -14.9161 -14.2443 L -14.8608 -14.302 L -14.8054 -14.3594 L -14.7497 -14.4165 L -14.6938 -14.4735 L -14.6377 -14.5302 L -14.5814 -14.5868 L -14.5248 -14.6431 L -14.4681 -14.6992 L -14.4111 -14.7551 L -14.3539 -14.8107 L -14.2965 -14.8661 L -14.2388 -14.9213 L -14.181 -14.9763 L -14.1229 -15.0311 L -14.0647 -15.0856 L -14.0062 -15.1399 L -13.9475 -15.194 L -13.857 -15.1687 L -13.7664 -15.1433 L -13.6757 -15.1178 L -13.5849 -15.0922 L -13.4941 -15.0665 L -13.4032 -15.0407 L -13.3122 -15.0148 L -13.2211 -14.9888 L -13.1299 -14.9628 L -13.0386 -14.9366 L -12.9473 -14.9103 L -12.8558 -14.8839 L -12.7643 -14.8574 L -12.6726 -14.8309 L -12.5809 -14.8042 L -12.4891 -14.7774 L -12.3972 -14.7504 L -12.3052 -14.7234 L -12.2131 -14.6963 L -12.1209 -14.669 L -12.0286 -14.6416 L -11.9363 -14.6142 L -11.8438 -14.5865 L -11.7512 -14.5588 L -11.6585 -14.531 L -11.5657 -14.503 L -11.5657 -14.503 L -11.5724 -14.5997 L -11.5789 -14.6962 L -11.5853 -14.7926 L -11.5917 -14.8889 L -11.5979 -14.9851 L -11.6041 -15.0812 L -11.6101 -15.1771 L -11.6161 -15.273 L -11.622 -15.3687 L -11.6278 -15.4643 L -11.6335 -15.5597 L -11.6391 -15.6551 L -11.6446 -15.7503 L -11.6501 -15.8455 L -11.6554 -15.9405 L -11.6607 -16.0354 L -11.6659 -16.1302 L -11.6711 -16.2249 L -11.6761 -16.3195 L -11.6811 -16.414 L -11.686 -16.5084 L -11.6908 -16.6027 L -11.6956 -16.6968 L -11.7003 -16.7909 L -11.7049 -16.8849 L -11.7095 -16.9788 L -11.6437 -17.024 L -11.5777 -17.0689 L -11.5116 -17.1136 L -11.4453 -17.158 L -11.3788 -17.2021 L -11.3122 -17.246 L -11.2453 -17.2897 L -11.1784 -17.3331 L -11.1112 -17.3762 L -11.0439 -17.4191 L -10.9764 -17.4617 L -10.9087 -17.504 L -10.8409 -17.5461 L -10.773 -17.5879 L -10.7048 -17.6294 L -10.6365 -17.6707 L -10.5681 -17.7118 L -10.4995 -17.7525 L -10.4307 -17.793 L -10.1939 -17.9297 L -10.1244 -17.9691 L -10.0548 -18.0081 L -9.98504 -18.0469 L -9.91514 -18.0854 L -9.84508 -18.1236 L -9.77488 -18.1616 L -9.70453 -18.1992 L -9.63404 -18.2367 L -9.5634 -18.2738 L -9.49262 -18.3107 L -9.4217 -18.3473 L -9.35063 -18.3836 L -9.27943 -18.4196 L -9.20808 -18.4554 L -9.1366 -18.4909 L -9.06499 -18.5261 L -8.99323 -18.561 L -8.92134 -18.5957 L -8.84932 -18.6301 L -8.7703 -18.5792 L -8.69122 -18.5282 L -8.61209 -18.4771 L -8.53291 -18.4259 L -8.45368 -18.3746 L -8.37439 -18.3231 L -8.29505 -18.2716 L -8.21566 -18.2199 L -8.13621 -18.1681 L -8.05671 -18.1162 L -7.97716 -18.0641 L -7.89755 -18.012 L -7.81789 -17.9597 L -7.73817 -17.9073 L -7.65839 -17.8547 L -7.57856 -17.8021 L -7.49867 -17.7493 L -7.41872 -17.6963 L -7.33872 -17.6432 L -7.25866 -17.59 L -7.17854 -17.5367 L -7.09837 -17.4832 L -7.01813 -17.4295 L -6.93784 -17.3757 L -6.85749 -17.3218 L -6.77708 -17.2677 L -6.77708 -17.2677 L -6.75492 -17.3621 L -6.7327 -17.4562 L -6.71043 -17.5503 L -6.6881 -17.6442 L -6.66572 -17.7379 L -6.64328 -17.8315 L -6.62079 -17.925 L -6.59824 -18.0183 L -6.57565 -18.1115 L -6.553 -18.2046 L -6.53031 -18.2975 L -6.50757 -18.3903 L -6.48478 -18.4829 L -6.46195 -18.5754 L -6.43907 -18.6678 L -6.41615 -18.7601 L -6.39318 -18.8522 L -6.37017 -18.9442 L -6.34712 -19.0361 L -6.32403 -19.1278 L -6.3009 -19.2195 L -6.27773 -19.311 L -6.25452 -19.4024 L -6.23127 -19.4937 L -6.20799 -19.5848 L -6.18467 -19.6759 L -6.10848 -19.6997 L -6.03221 -19.7232 L -5.95585 -19.7464 L -5.8794 -19.7693 L -5.80286 -19.7919 L -5.72623 -19.8142 L -5.64952 -19.8362 L -5.57272 -19.8579 L -5.49584 -19.8793 L -5.41888 -19.9004 L -5.34183 -19.9212 L -5.26471 -19.9418 L -5.1875 -19.962 L -5.11022 -19.9819 L -5.03287 -20.0015 L -4.95543 -20.0208 L -4.87793 -20.0399 L -4.80035 -20.0586 L -4.72269 -20.077 L -4.45609 -20.1379 L -4.37814 -20.155 L -4.30012 -20.1718 L -4.22203 -20.1882 L -4.14388 -20.2044 L -4.06567 -20.2203 L -3.9874 -20.2359 L -3.90907 -20.2512 L -3.83068 -20.2661 L -3.75223 -20.2808 L -3.67372 -20.2952 L -3.59516 -20.3092 L -3.51655 -20.323 L -3.43789 -20.3365 L -3.35917 -20.3496 L -3.2804 -20.3625 L -3.20159 -20.375 L -3.12272 -20.3872 L -3.04381 -20.3992 L -2.96486 -20.4108 L -2.90434 -20.3389 L -2.84381 -20.2668 L -2.78326 -20.1947 L -2.72269 -20.1224 L -2.6621 -20.05 L -2.6015 -19.9775 L -2.54089 -19.9048 L -2.48025 -19.832 L -2.4196 -19.7591 L -2.35894 -19.6861 L -2.29825 -19.6129 L -2.23756 -19.5396 L -2.17684 -19.4662 L -2.11612 -19.3926 L -2.05537 -19.3189 L -1.99461 -19.245 L -1.93384 -19.171 L -1.87305 -19.0968 L -1.81225 -19.0225 L -1.75143 -18.9481 L -1.6906 -18.8735 L -1.62975 -18.7987 L -1.5689 -18.7238 L -1.50802 -18.6487 L -1.44714 -18.5735 L -1.38624 -18.4981 L -1.38624 -18.4981 L -1.33726 -18.5818 L -1.28827 -18.6652 L -1.23927 -18.7485 L -1.19025 -18.8317 L -1.14123 -18.9146 L -1.0922 -18.9975 L -1.04315 -19.0802 L -0.994105 -19.1627 L -0.945047 -19.2451 L -0.895983 -19.3273 L -0.846911 -19.4094 L -0.797834 -19.4914 L -0.748751 -19.5732 L -0.699662 -19.6549 L -0.650569 -19.7364 L -0.601471 -19.8178 L -0.552369 -19.8991 L -0.503263 -19.9802 L -0.454154 -20.0612 L -0.405043 -20.1421 L -0.355928 -20.2228 L -0.306811 -20.3035 L -0.257693 -20.3839 L -0.208573 -20.4643 L -0.159451 -20.5446 L -0.110329 -20.6247 L -0.030522 -20.625 L 0.0492856 -20.6249 L 0.129092 -20.6246 L 0.208897 -20.6239 L 0.288699 -20.623 L 0.368497 -20.6217 L 0.448289 -20.6201 L 0.528074 -20.6182 L 0.607851 -20.616 L 0.68762 -20.6135 L 0.767378 -20.6107 L 0.847124 -20.6076 L 0.926858 -20.6042 L 1.00658 -20.6004 L 1.08628 -20.5964 L 1.16597 -20.592 L 1.24564 -20.5874 L 1.3253 -20.5824 L 1.40493 -20.5771 L 1.67762 -20.5567 L 1.75715 -20.55 L 1.83666 -20.5431 L 1.91613 -20.5358 L 1.99558 -20.5282 L 2.075 -20.5204 L 2.15439 -20.5122 L 2.23374 -20.5037 L 2.31306 -20.4949 L 2.39235 -20.4858 L 2.4716 -20.4764 L 2.55081 -20.4667 L 2.62999 -20.4566 L 2.70913 -20.4463 L 2.78822 -20.4357 L 2.86727 -20.4247 L 2.94629 -20.4135 L 3.02525 -20.4019 L 3.10417 -20.3901 L 3.18305 -20.3779 L 3.21968 -20.2913 L 3.25629 -20.2047 L 3.29288 -20.1179 L 3.32946 -20.031 L 3.36601 -19.9439 L 3.40254 -19.8567 L 3.43905 -19.7695 L 3.47554 -19.682 L 3.512 -19.5945 L 3.54844 -19.5068 L 3.58486 -19.419 L 3.62125 -19.3311 L 3.65762 -19.243 L 3.69396 -19.1548 L 3.73028 -19.0664 L 3.76656 -18.9779 L 3.80282 -18.8893 L 3.83905 -18.8005 L 3.87525 -18.7116 L 3.91142 -18.6225 L 3.94756 -18.5333 L 3.98367 -18.4439 L 4.01975 -18.3544 L 4.05579 -18.2647 L 4.09179 -18.1749 L 4.12776 -18.0849 L 4.12776 -18.0849 L 4.19922 -18.1504 L 4.27063 -18.2157 L 4.34201 -18.2808 L 4.41335 -18.3458 L 4.48466 -18.4107 L 4.55593 -18.4754 L 4.62717 -18.54 L 4.69836 -18.6044 L 4.76953 -18.6686 L 4.84065 -18.7328 L 4.91174 -18.7967 L 4.98279 -18.8606 L 5.05381 -18.9243 L 5.12479 -18.9879 L 5.19574 -19.0513 L 5.26665 -19.1146 L 5.33752 -19.1778 L 5.40836 -19.2409 L 5.47917 -19.3038 L 5.54994 -19.3666 L 5.62067 -19.4293 L 5.69137 -19.4919 L 5.76203 -19.5543 L 5.83266 -19.6166 L 5.90325 -19.6788 L 5.97381 -19.7409 L 6.05015 -19.7177 L 6.1264 -19.6941 L 6.20256 -19.6703 L 6.27863 -19.6461 L 6.3546 -19.6217 L 6.43048 -19.5969 L 6.50626 -19.5719 L 6.58195 -19.5466 L 6.65753 -19.521 L 6.73302 -19.4951 L 6.8084 -19.4689 L 6.88368 -19.4424 L 6.95886 -19.4156 L 7.03394 -19.3885 L 7.10891 -19.3611 L 7.18377 -19.3335 L 7.25853 -19.3056 L 7.33318 -19.2773 L 7.40772 -19.2488 L 7.66227 -19.1489 L 7.73631 -19.1191 L 7.81023 -19.089 L 7.88404 -19.0587 L 7.95772 -19.028 L 8.03129 -18.9971 L 8.10474 -18.9659 L 8.17807 -18.9344 L 8.25127 -18.9026 L 8.32435 -18.8705 L 8.39731 -18.8381 L 8.47014 -18.8055 L 8.54284 -18.7726 L 8.61542 -18.7394 L 8.68787 -18.7059 L 8.76018 -18.6722 L 8.83237 -18.6381 L 8.90442 -18.6038 L 8.97634 -18.5692 L 9.04813 -18.5343 L 9.05762 -18.4408 L 9.06705 -18.3472 L 9.07644 -18.2535 L 9.08576 -18.1597 L 9.09504 -18.0657 L 9.10425 -17.9716 L 9.11341 -17.8775 L 9.12251 -17.7832 L 9.13155 -17.6888 L 9.14053 -17.5943 L 9.14944 -17.4996 L 9.1583 -17.4048 L 9.16709 -17.31 L 9.17581 -17.215 L 9.18447 -17.1198 L 9.19306 -17.0246 L 9.20159 -16.9292 L 9.21004 -16.8337 L 9.21842 -16.738 L 9.22673 -16.6422 L 9.23497 -16.5463 L 9.24313 -16.4503 L 9.25121 -16.3541 L 9.25922 -16.2578 L 9.26715 -16.1614 L 9.275 -16.0648 L 9.275 -16.0648 L 9.36257 -16.1063 L 9.45007 -16.1476 L 9.53748 -16.1888 L 9.62482 -16.2299 L 9.71207 -16.2709 L 9.79924 -16.3117 L 9.88634 -16.3524 L 9.97336 -16.393 L 10.0603 -16.4334 L 10.1472 -16.4737 L 10.234 -16.5139 L 10.3207 -16.554 L 10.4073 -16.5939 L 10.4939 -16.6337 L 10.5804 -16.6735 L 10.6668 -16.7131 L 10.7532 -16.7525 L 10.8394 -16.7919 L 10.9256 -16.8312 L 11.0118 -16.8703 L 11.0978 -16.9094 L 11.1838 -16.9483 L 11.2698 -16.9872 L 11.3556 -17.0259 L 11.4414 -17.0645 L 11.5272 -17.1031 L 11.5932 -17.0583 L 11.6592 -17.0134 L 11.7249 -16.9681 L 11.7905 -16.9226 L 11.8559 -16.8769 L 11.9211 -16.8309 L 11.9861 -16.7846 L 12.051 -16.7381 L 12.1157 -16.6914 L 12.1802 -16.6444 L 12.2445 -16.5971 L 12.3086 -16.5496 L 12.3725 -16.5018 L 12.4363 -16.4538 L 12.4999 -16.4056 L 12.5633 -16.3571 L 12.6265 -16.3084 L 12.6895 -16.2594 L 12.7523 -16.2102 L 12.9661 -16.0397 L 13.0281 -15.9894 L 13.0898 -15.9388 L 13.1514 -15.8881 L 13.2128 -15.8371 L 13.274 -15.7858 L 13.335 -15.7343 L 13.3957 -15.6826 L 13.4563 -15.6307 L 13.5167 -15.5785 L 13.5769 -15.5261 L 13.6369 -15.4734 L 13.6966 -15.4205 L 13.7562 -15.3674 L 13.8156 -15.3141 L 13.8747 -15.2605 L 13.9337 -15.2067 L 13.9924 -15.1527 L 14.0509 -15.0984 L 14.1092 -15.0439 L 14.0907 -14.9518 L 14.0722 -14.8595 L 14.0535 -14.7672 L 14.0348 -14.6748 L 14.0159 -14.5823 L 13.997 -14.4897 L 13.978 -14.397 L 13.9589 -14.3042 L 13.9397 -14.2113 L 13.9204 -14.1184 L 13.9011 -14.0253 L 13.8816 -13.9321 L 13.862 -13.8389 L 13.8424 -13.7455 L 13.8226 -13.6521 L 13.8027 -13.5585 L 13.7827 -13.4648 L 13.7627 -13.3711 L 13.7425 -13.2772 L 13.7222 -13.1833 L 13.7018 -13.0892 L 13.6813 -12.995 L 13.6607 -12.9007 L 13.6399 -12.8063 L 13.6191 -12.7118 L 13.5981 -12.6172 L 13.5981 -12.6172 L 13.694 -12.631 L 13.7898 -12.6448 L 13.8855 -12.6584 L 13.9811 -12.6719 L 14.0765 -12.6853 L 14.1719 -12.6986 L 14.2671 -12.7119 L 14.3622 -12.725 L 14.4572 -12.738 L 14.5521 -12.7509 L 14.6469 -12.7637 L 14.7415 -12.7764 L 14.8361 -12.7891 L 14.9306 -12.8016 L 15.0249 -12.8141 L 15.1192 -12.8264 L 15.2133 -12.8387 L 15.3074 -12.8509 L 15.4013 -12.863 L 15.4952 -12.8751 L 15.5889 -12.887 L 15.6826 -12.8989 L 15.7761 -12.9107 L 15.8696 -12.9224 L 15.963 -12.934 L 16.0563 -12.9456 L 16.1062 -12.8833 L 16.156 -12.8209 L 16.2054 -12.7583 L 16.2547 -12.6955 L 16.3037 -12.6325 L 16.3525 -12.5693 L 16.401 -12.506 L 16.4492 -12.4424 L 16.4973 -12.3787 L 16.545 -12.3147 L 16.5926 -12.2506 L 16.6398 -12.1863 L 16.6869 -12.1218 L 16.7337 -12.0572 L 16.7802 -11.9923 L 16.8265 -11.9273 L 16.8725 -11.8621 L 16.9183 -11.7967 L 16.9638 -11.7312 L 17.1178 -11.5053 L 17.1622 -11.4389 L 17.2063 -11.3724 L 17.2502 -11.3058 L 17.2938 -11.2389 L 17.3372 -11.1719 L 17.3803 -11.1048 L 17.4231 -11.0374 L 17.4657 -10.9699 L 17.508 -10.9023 L 17.5501 -10.8344 L 17.5919 -10.7664 L 17.6334 -10.6983 L 17.6747 -10.63 L 17.7157 -10.5615 L 17.7564 -10.4929 L 17.7969 -10.4241 L 17.8371 -10.3552 L 17.877 -10.2861 L 17.9167 -10.2168 L 17.8718 -10.1342 L 17.8269 -10.0515 L 17.7819 -9.96881 L 17.7367 -9.88602 L 17.6914 -9.80317 L 17.6461 -9.72026 L 17.6006 -9.63729 L 17.555 -9.55426 L 17.5093 -9.47117 L 17.4635 -9.38801 L 17.4175 -9.30479 L 17.3714 -9.2215 L 17.3252 -9.13815 L 17.2789 -9.05474 L 17.2325 -8.97126 L 17.1859 -8.88772 L 17.1393 -8.8041 L 17.0924 -8.72043 L 17.0455 -8.63668 L 16.9984 -8.55287 L 16.9512 -8.46899 L 16.9038 -8.38504 L 16.8563 -8.30102 L 16.8087 -8.21693 L 16.7609 -8.13277 L 16.713 -8.04854 L 16.713 -8.04854 L 16.8087 -8.0335 L 16.9043 -8.01838 L 16.9997 -8.0032 L 17.095 -7.98795 L 17.1902 -7.97263 L 17.2852 -7.95725 L 17.3801 -7.94181 L 17.4749 -7.9263 L 17.5695 -7.91074 L 17.664 -7.89511 L 17.7583 -7.87942 L 17.8525 -7.86368 L 17.9466 -7.84788 L 18.0406 -7.83202 L 18.1344 -7.81611 L 18.2281 -7.80015 L 18.3217 -7.78413 L 18.4152 -7.76806 L 18.5085 -7.75194 L 18.6018 -7.73577 L 18.6949 -7.71955 L 18.7879 -7.70329 L 18.8807 -7.68697 L 18.9735 -7.67061 L 19.0662 -7.6542 L 19.1587 -7.63775 L 19.1881 -7.56356 L 19.2172 -7.48926 L 19.2461 -7.41484 L 19.2746 -7.34031 L 19.3029 -7.26568 L 19.3308 -7.19093 L 19.3585 -7.11608 L 19.3859 -7.04112 L 19.413 -6.96605 L 19.4398 -6.89088 L 19.4663 -6.81561 L 19.4926 -6.74023 L 19.5185 -6.66476 L 19.5441 -6.58918 L 19.5695 -6.51351 L 19.5945 -6.43774 L 19.6193 -6.36187 L 19.6438 -6.2859 L 19.668 -6.20985 L 19.7486 -5.94854 L 19.7714 -5.87208 L 19.794 -5.79553 L 19.8163 -5.71889 L 19.8383 -5.64217 L 19.8599 -5.56537 L 19.8813 -5.48848 L 19.9024 -5.41151 L 19.9232 -5.33445 L 19.9437 -5.25732 L 19.9639 -5.18011 L 19.9838 -5.10282 L 20.0034 -5.02546 L 20.0227 -4.94802 L 20.0417 -4.87051 L 20.0604 -4.79292 L 20.0788 -4.71526 L 20.0969 -4.63753 L 20.1147 -4.55973 L 20.1322 -4.48187 L 20.065 -4.41614 L 19.9977 -4.3504 L 19.9302 -4.28462 L 19.8627 -4.21882 L 19.795 -4.153 L 19.7272 -4.08715 L 19.6593 -4.02127 L 19.5912 -3.95537 L 19.5231 -3.88944 L 19.4548 -3.82348 L 19.3863 -3.7575 L 19.3178 -3.6915 L 19.2491 -3.62547 L 19.1802 -3.55941 L 19.1112 -3.49332 L 19.0421 -3.42721 L 18.9729 -3.36108 L 18.9035 -3.29492 L 18.8339 -3.22873 L 18.7642 -3.16252 L 18.6944 -3.09629 L 18.6244 -3.03003 L 18.5542 -2.96374 L 18.4839 -2.89743 L 18.4134 -2.83109 L 18.3428 -2.76473 L 18.3428 -2.76473 L 18.4299 -2.72214 L 18.5167 -2.67952 L 18.6035 -2.63688 L 18.69 -2.59422 L 18.7765 -2.55153 L 18.8627 -2.50883 L 18.9489 -2.4661 L 19.0348 -2.42335 L 19.1206 -2.38059 L 19.2063 -2.33781 L 19.2919 -2.29501 L 19.3772 -2.2522 L 19.4625 -2.20936 L 19.5476 -2.16652 L 19.6326 -2.12365 L 19.7174 -2.08077 L 19.8021 -2.03788 L 19.8867 -1.99498 L 19.9712 -1.95206 L 20.0555 -1.90913 L 20.1397 -1.86619 L 20.2238 -1.82323 L 20.3077 -1.78027 L 20.3915 -1.73729 L 20.4752 -1.6943 L 20.5588 -1.65131 L 20.565 -1.57174 L 20.571 -1.49216 L 20.5766 -1.41255 L 20.5819 -1.33292 L 20.5869 -1.25327 L 20.5916 -1.1736 L 20.596 -1.09391 L 20.6 -1.01421 L 20.6038 -0.934487 L 20.6073 -0.854754 L 20.6104 -0.775009 L 20.6133 -0.695252 L 20.6158 -0.615485 L 20.618 -0.535708 L 20.62 -0.455924 L 20.6216 -0.376132 L 20.6229 -0.296335 L 20.6239 -0.216534 L 20.6245 -0.136729Z"
id="path1" />
</g>
</svg>
