<?xml version="1.0" encoding="UTF-8" standalone="no"?>
<svg version="1.1">
<g
style="fill:none;stroke:#000000;stroke-opacity:1;stroke-width:0.1">
<path d="M 20.9998 0.0944488 L 20.9993 0.171299 L 20.9985 0.248147 L 20.9975 0.324992 L 20.9962 0.401832 L 20.9945 0.478667 L 20.9927 0.555495 L 20.9905 0.632317 L 20.988 0.709129 L 20.9853 0.785932 L 20.9823 0.862725 L 20.979 0.939506 L 20.9754 1.01627 L 20.9715 1.09303 L 20.9674 1.16977 L 20.963 1.24649 L 20.9583 1.3232 L 20.9533 1.39989 L 20.948 1.47656 L 20.9425 1.55321 L 20.9367 1.62985 L 20.8564 1.66938 L 20.7761 1.7089 L 20.6957 1.74841 L 20.6152 1.78792 L 20.5346 1.82742 L 20.4539 1.86691 L 20.373 1.90638 L 20.2921 1.94585 L 20.2111 1.98531 L 20.1299 2.02476 L 20.0486 2.06419 L 19.9673 2.10362 L 19.8858 2.14303 L 19.8042 2.18243 L 19.7225 2.22182 L 19.6406 2.26119 L 19.5587 2.30055 L 19.4766 2.3399 L 19.3944 2.37923 L 19.3121 2.41855 L 19.2297 2.45785 L 19.1471 2.49714 L 19.0644 2.53641 L 18.9816 2.57566 L 18.8987 2.61489 L 18.8156 2.65411 L 18.7324 2.69331 L 18.7324 2.69331 L 18.8012 2.75436 L 18.8698 2.81539 L 18.9384 2.87641 L 19.0068 2.9374 L 19.075 2.99838 L 19.1432 3.05933 L 19.2112 3.12027 L 19.2791 3.18118 L 19.3469 3.24208 L 19.4146 3.30295 L 19.4821 3.36381 L 19.5495 3.42464 L 19.6168 3.48546 L 19.684 3.54625 L 19.7511 3.60702 L 19.8181 3.66778 L 19.8849 3.72851 L 19.9517 3.78922 L 20.0183 3.84992 L 20.0849 3.91059 L 20.1513 3.97124 L 20.2176 4.03187 L 20.2839 4.09248 L 20.35 4.15307 L 20.416 4.21364 L 20.4819 4.27418 L 20.5478 4.33471 L 20.5318 4.40988 L 20.5155 4.48499 L 20.4989 4.56004 L 20.4821 4.63502 L 20.465 4.70995 L 20.4476 4.78481 L 20.43 4.85961 L 20.4121 4.93434 L 20.3939 5.00901 L 20.3754 5.08361 L 20.3567 5.15814 L 20.3376 5.23261 L 20.3184 5.307 L 20.2988 5.38132 L 20.279 5.45557 L 20.2589 5.52975 L 20.2385 5.60385 L 20.2179 5.67788 L 20.1969 5.75183 L 20.1758 5.8257 L 20.1225 6.00695 L 20.1004 6.08055 L 20.078 6.15407 L 20.0554 6.2275 L 20.0325 6.30086 L 20.0093 6.37412 L 19.9858 6.44731 L 19.9621 6.5204 L 19.9381 6.59341 L 19.9138 6.66634 L 19.8893 6.73917 L 19.8645 6.81191 L 19.8394 6.88456 L 19.8141 6.95712 L 19.7885 7.02958 L 19.7626 7.10195 L 19.7365 7.17423 L 19.7101 7.24641 L 19.6835 7.31849 L 19.6566 7.39048 L 19.6294 7.46236 L 19.5413 7.47769 L 19.4531 7.49299 L 19.3648 7.50825 L 19.2764 7.52347 L 19.188 7.53866 L 19.0994 7.5538 L 19.0107 7.56891 L 18.9219 7.58398 L 18.833 7.599 L 18.7441 7.61399 L 18.655 7.62893 L 18.5658 7.64384 L 18.4765 7.6587 L 18.3871 7.67351 L 18.2976 7.68828 L 18.208 7.703 L 18.1183 7.71768 L 18.0284 7.73231 L 17.9385 7.7469 L 17.8484 7.76143 L 17.7583 7.77592 L 17.668 7.79035 L 17.5776 7.80473 L 17.4871 7.81906 L 17.3964 7.83334 L 17.3057 7.84756 L 17.2148 7.86173 L 17.2148 7.86173 L 17.2636 7.93969 L 17.3123 8.0176 L 17.3608 8.09545 L 17.4093 8.17324 L 17.4576 8.25098 L 17.5058 8.32867 L 17.5539 8.4063 L 17.6019 8.48388 L 17.6498 8.5614 L 17.6976 8.63887 L 17.7452 8.71629 L 17.7928 8.79366 L 17.8403 8.87097 L 17.8876 8.94824 L 17.9348 9.02545 L 17.982 9.10261 L 18.029 9.17972 L 18.076 9.25678 L 18.1228 9.33378 L 18.1696 9.41074 L 18.2162 9.48765 L 18.2628 9.56452 L 18.3092 9.64133 L 18.3556 9.71809 L 18.4019 9.79481 L 18.4481 9.87148 L 18.4942 9.9481 L 18.4577 10.0157 L 18.4209 10.0832 L 18.3839 10.1505 L 18.3466 10.2177 L 18.3091 10.2848 L 18.2713 10.3518 L 18.2333 10.4186 L 18.1951 10.4852 L 18.1566 10.5517 L 18.1178 10.6181 L 18.0789 10.6843 L 18.0396 10.7504 L 18.0002 10.8164 L 17.9605 10.8822 L 17.9205 10.9478 L 17.8803 11.0133 L 17.8399 11.0787 L 17.7992 11.1439 L 17.7583 11.209 L 17.7172 11.2739 L 17.6151 11.4328 L 17.5731 11.4972 L 17.5309 11.5614 L 17.4885 11.6255 L 17.4458 11.6894 L 17.4029 11.7532 L 17.3598 11.8168 L 17.3165 11.8802 L 17.2729 11.9435 L 17.229 12.0067 L 17.185 12.0696 L 17.1407 12.1325 L 17.0962 12.1951 L 17.0514 12.2576 L 17.0065 12.3199 L 16.9613 12.3821 L 16.9158 12.444 L 16.8702 12.5059 L 16.8243 12.5675 L 16.7782 12.629 L 16.7319 12.6903 L 16.643 12.6802 L 16.5541 12.67 L 16.4651 12.6598 L 16.376 12.6495 L 16.2868 12.6392 L 16.1976 12.6287 L 16.1082 12.6182 L 16.0188 12.6077 L 15.9293 12.5971 L 15.8397 12.5864 L 15.75 12.5756 L 15.6602 12.5648 L 15.5704 12.5539 L 15.4804 12.5429 L 15.3904 12.5319 L 15.3003 12.5208 L 15.21 12.5096 L 15.1197 12.4983 L 15.0293 12.487 L 14.9388 12.4755 L 14.8482 12.464 L 14.7575 12.4524 L 14.6667 12.4408 L 14.5758 12.429 L 14.4848 12.4172 L 14.3938 12.4053 L 14.3026 12.3932 L 14.3026 12.3932 L 14.3274 12.4818 L 14.3522 12.5703 L 14.3769 12.6586 L 14.4014 12.7469 L 14.4259 12.8351 L 14.4503 12.9233 L 14.4746 13.0113 L 14.4987 13.0993 L 14.5228 13.1871 L 14.5469 13.2749 L 14.5708 13.3626 L 14.5946 13.4503 L 14.6184 13.5378 L 14.642 13.6253 L 14.6656 13.7127 L 14.6891 13.8 L 14.7125 13.8872 L 14.7358 13.9744 L 14.7591 14.0615 L 14.7823 14.1485 L 14.8053 14.2354 L 14.8284 14.3223 L 14.8513 14.4091 L 14.8742 14.4958 L 14.897 14.5825 L 14.9197 14.669 L 14.9423 14.7555 L 14.8883 14.8101 L 14.834 14.8645 L 14.7795 14.9187 L 14.7248 14.9727 L 14.6699 15.0265 L 14.6148 15.0801 L 14.5595 15.1334 L 14.504 15.1866 L 14.4483 15.2396 L 14.3925 15.2924 L 14.3364 15.3449 L 14.2802 15.3973 L 14.2237 15.4495 L 14.1671 15.5014 L 14.1103 15.5532 L 14.0532 15.6047 L 13.996 15.656 L 13.9387 15.7071 L 13.8811 15.758 L 13.8233 15.8087 L 13.6806 15.9324 L 13.6222 15.9824 L 13.5636 16.0321 L 13.5048 16.0817 L 13.4459 16.131 L 13.3868 16.1801 L 13.3274 16.229 L 13.268 16.2776 L 13.2083 16.3261 L 13.1485 16.3743 L 13.0885 16.4223 L 13.0283 16.4701 L 12.9679 16.5177 L 12.9074 16.565 L 12.8467 16.6121 L 12.7858 16.659 L 12.7247 16.7057 L 12.6635 16.7522 L 12.6021 16.7984 L 12.5406 16.8444 L 12.4788 16.8902 L 12.3964 16.8555 L 12.314 16.8206 L 12.2315 16.7858 L 12.1489 16.7508 L 12.0662 16.7157 L 11.9835 16.6806 L 11.9008 16.6453 L 11.8179 16.61 L 11.735 16.5746 L 11.6521 16.5391 L 11.5691 16.5035 L 11.486 16.4678 L 11.4028 16.4321 L 11.3196 16.3962 L 11.2363 16.3602 L 11.153 16.3242 L 11.0696 16.288 L 10.9861 16.2518 L 10.9025 16.2154 L 10.8189 16.1789 L 10.7352 16.1424 L 10.6515 16.1057 L 10.5677 16.0689 L 10.4838 16.032 L 10.3998 15.995 L 10.3157 15.9579 L 10.2316 15.9207 L 10.2316 15.9207 L 10.2305 16.0127 L 10.2294 16.1046 L 10.2281 16.1963 L 10.2268 16.2879 L 10.2255 16.3795 L 10.224 16.4709 L 10.2225 16.5622 L 10.221 16.6534 L 10.2193 16.7445 L 10.2176 16.8355 L 10.2159 16.9264 L 10.214 17.0172 L 10.2122 17.1079 L 10.2102 17.1985 L 10.2082 17.289 L 10.2062 17.3794 L 10.204 17.4697 L 10.2019 17.5599 L 10.1997 17.65 L 10.1974 17.74 L 10.195 17.83 L 10.1927 17.9198 L 10.1902 18.0095 L 10.1877 18.0992 L 10.1852 18.1887 L 10.1826 18.2782 L 10.18 18.3676 L 10.1127 18.4047 L 10.0453 18.4416 L 9.9777 18.4782 L 9.91001 18.5146 L 9.84218 18.5508 L 9.77423 18.5867 L 9.70614 18.6223 L 9.63793 18.6577 L 9.56959 18.6929 L 9.50111 18.7278 L 9.43251 18.7624 L 9.36379 18.7968 L 9.29494 18.8309 L 9.22596 18.8648 L 9.15686 18.8985 L 9.08764 18.9318 L 9.01829 18.965 L 8.94883 18.9979 L 8.87924 19.0305 L 8.80954 19.0628 L 8.63771 19.1413 L 8.56761 19.1728 L 8.49738 19.204 L 8.42705 19.235 L 8.3566 19.2657 L 8.28604 19.2962 L 8.21537 19.3263 L 8.14458 19.3563 L 8.07369 19.386 L 8.00269 19.4154 L 7.93159 19.4445 L 7.86038 19.4734 L 7.78906 19.5021 L 7.71764 19.5304 L 7.64611 19.5586 L 7.57448 19.5864 L 7.50275 19.614 L 7.43092 19.6413 L 7.359 19.6684 L 7.28697 19.6952 L 7.21484 19.7217 L 7.14556 19.6652 L 7.07625 19.6085 L 7.0069 19.5518 L 6.93752 19.495 L 6.8681 19.4381 L 6.79865 19.381 L 6.72916 19.3239 L 6.65964 19.2667 L 6.59008 19.2094 L 6.52048 19.1519 L 6.45085 19.0944 L 6.38119 19.0367 L 6.31149 18.979 L 6.24175 18.9211 L 6.17197 18.8632 L 6.10216 18.8051 L 6.03231 18.7469 L 5.96243 18.6886 L 5.89251 18.6302 L 5.82255 18.5716 L 5.75255 18.513 L 5.68252 18.4542 L 5.61245 18.3953 L 5.54234 18.3362 L 5.4722 18.2771 L 5.40201 18.2178 L 5.33179 18.1584 L 5.33179 18.1584 L 5.30483 18.2463 L 5.27784 18.3342 L 5.25081 18.4218 L 5.22374 18.5094 L 5.19664 18.5968 L 5.1695 18.6842 L 5.14233 18.7713 L 5.11513 18.8584 L 5.08789 18.9454 L 5.06063 19.0322 L 5.03333 19.1189 L 5.006 19.2055 L 4.97865 19.292 L 4.95126 19.3784 L 4.92384 19.4647 L 4.8964 19.5508 L 4.86893 19.6369 L 4.84144 19.7228 L 4.81391 19.8086 L 4.78636 19.8944 L 4.75879 19.98 L 4.73119 20.0655 L 4.70357 20.1509 L 4.67593 20.2362 L 4.64826 20.3215 L 4.62057 20.4066 L 4.59285 20.4916 L 4.51783 20.5083 L 4.44275 20.5247 L 4.36761 20.5408 L 4.29241 20.5566 L 4.21715 20.5722 L 4.14183 20.5875 L 4.06646 20.6025 L 3.99104 20.6173 L 3.91556 20.6317 L 3.84003 20.6459 L 3.76445 20.6598 L 3.68882 20.6735 L 3.61314 20.6868 L 3.53741 20.6999 L 3.46163 20.7127 L 3.38581 20.7253 L 3.30994 20.7375 L 3.23402 20.7495 L 3.15807 20.7612 L 3.08207 20.7726 L 2.89509 20.7995 L 2.81896 20.8099 L 2.74278 20.8201 L 2.66657 20.83 L 2.59032 20.8396 L 2.51404 20.849 L 2.43772 20.858 L 2.36138 20.8668 L 2.285 20.8753 L 2.20859 20.8835 L 2.13215 20.8915 L 2.05568 20.8991 L 1.97918 20.9065 L 1.90266 20.9136 L 1.82611 20.9205 L 1.74954 20.927 L 1.67294 20.9333 L 1.59632 20.9392 L 1.51968 20.9449 L 1.44302 20.9504 L 1.36634 20.9555 L 1.3158 20.8817 L 1.26525 20.8079 L 1.21469 20.7339 L 1.16413 20.6598 L 1.11356 20.5856 L 1.06299 20.5114 L 1.01241 20.437 L 0.961822 20.3625 L 0.911232 20.2879 L 0.860637 20.2132 L 0.810038 20.1383 L 0.759434 20.0634 L 0.708825 19.9884 L 0.658213 19.9132 L 0.607597 19.8379 L 0.556977 19.7625 L 0.506354 19.687 L 0.455728 19.6114 L 0.405099 19.5356 L 0.354467 19.4597 L 0.303834 19.3837 L 0.253198 19.3076 L 0.20256 19.2313 L 0.151921 19.155 L 0.101282 19.0784 L 0.0506409 19.0018 L -8.88178e-16 18.925 L 3.20582e-15 18.925 L -0.0506409 19.0018 L -0.101282 19.0784 L -0.151921 19.155 L -0.20256 19.2313 L -0.253198 19.3076 L -0.303834 19.3837 L -0.354467 19.4597 L -0.405099 19.5356 L -0.455728 19.6114 L -0.506354 19.687 L -0.556977 19.7625 L -0.607597 19.8379 L -0.658213 19.9132 L -0.708825 19.9884 L -0.759434 20.0634 L -0.810038 20.1383 L -0.860637 20.2132 L -0.911232 20.2879 L -0.961822 20.3625 L -1.01241 20.437 L -1.06299 20.5114 L -1.11356 20.5856 L -1.16413 20.6598 L -1.21469 20.7339 L -1.26525 20.8079 L -1.3158 20.8817 L -1.36634 20.9555 L -1.44302 20.9504 L -1.51968 20.9449 L -1.59632 20.9392 L -1.67294 20.9333 L -1.74954 20.927 L -1.82611 20.9205 L -1.90266 20.9136 L -1.97918 20.9065 L -2.05568 20.8991 L -2.13215 20.8915 L -2.20859 20.8835 L -2.285 20.8753 L -2.36138 20.8668 L -2.43772 20.858 L -2.51404 20.849 L -2.59032 20.8396 L -2.66657 20.83 L -2.74278 20.8201 L -2.81896 20.8099 L -2.89509 20.7995 L -3.08207 20.7726 L -3.15807 20.7612 L -3.23402 20.7495 L -3.30994 20.7375 L -3.38581 20.7253 L -3.46163 20.7127 L -3.53741 20.6999 L -3.61314 20.6868 L -3.68882 20.6735 L -3.76445 20.6598 L -3.84003 20.6459 L -3.91556 20.6317 L -3.99104 20.6173 L -4.06646 20.6025 L -4.14183 20.5875 L -4.21715 20.5722 L -4.29241 20.5566 L -4.36761 20.5408 L -4.44275 20.5247 L -4.51783 20.5083 L -4.59285 20.4916 L -4.62057 20.4066 L -4.64826 20.3215 L -4.67593 20.2362 L -4.70357 20.1509 L -4.73119 20.0655 L -4.75879 19.98 L -4.78636 19.8944 L -4.81391 19.8086 L -4.84144 19.7228 L -4.86893 19.6369 L -4.8964 19.5508 L -4.92384 19.4647 L -4.95126 19.3784 L -4.97865 19.292 L -5.006 19.2055 L -5.03333 19.1189 L -5.06063 19.0322 L -5.08789 18.9454 L -5.11513 18.8584 L -5.14233 18.7713 L -5.1695 18.6842 L -5.19664 18.5968 L -5.22374 18.5094 L -5.25081 18.4218 L -5.27784 18.3342 L -5.30483 18.2463 L -5.33179 18.1584 L -5.33179 18.1584 L -5.40201 18.2178 L -5.4722 18.2771 L -5.54234 18.3362 L -5.61245 18.3953 L -5.68252 18.4542 L -5.75255 18.513 L -5.82255 18.5716 L -5.89251 18.6302 L -5.96243 18.6886 L -6.03231 18.7469 L -6.10216 18.8051 L -6.17197 18.8632 L -6.24175 18.9211 L -6.31149 18.979 L -6.38119 19.0367 L -6.45085 19.0944 L -6.52048 19.1519 L -6.59008 19.2094 L -6.65964 19.2667 L -6.72916 19.3239 L -6.79865 19.381 L -6.8681 19.4381 L -6.93752 19.495 L -7.0069 19.5518 L -7.07625 19.6085 L -7.14556 19.6652 L -7.21484 19.7217 L -7.28697 19.6952 L -7.359 19.6684 L -7.43092 19.6413 L -7.50275 19.614 L -7.57448 19.5864 L -7.64611 19.5586 L -7.71764 19.5304 L -7.78906 19.5021 L -7.86038 19.4734 L -7.93159 19.4445 L -8.00269 19.4154 L -8.07369 19.386 L -8.14458 19.3563 L -8.21537 19.3263 L -8.28604 19.2962 L -8.3566 19.2657 L -8.42705 19.235 L -8.49738 19.204 L -8.56761 19.1728 L -8.63771 19.1413 L -8.80954 19.0628 L -8.87924 19.0305 L -8.94883 18.9979 L -9.01829 18.965 L -9.08764 18.9318 L -9.15686 18.8985 L -9.22596 18.8648 L -9.29494 18.8309 L -9.36379 18.7968 L -9.43251 18.7624 L -9.50111 18.7278 L -9.56959 18.6929 L -9.63793 18.6577 L -9.70614 18.6223 L -9.77423 18.5867 L -9.84218 18.5508 L -9.91001 18.5146 L -9.9777 18.4782 L -10.0453 18.4416 L -10.1127 18.4047 L -10.18 18.3676 L -10.1826 18.2782 L -10.1852 18.1887 L -10.1877 18.0992 L -10.1902 18.0095 L -10.1927 17.9198 L -10.195 17.83 L -10.1974 17.74 L -10.1997 17.65 L -10.2019 17.5599 L -10.204 17.4697 L -10.2062 17.3794 L -10.2082 17.289 L -10.2102 17.1985 L -10.2122 17.1079 L -10.214 17.0172 L -10.2159 16.9264 L -10.2176 16.8355 L -10.2193 16.7445 L -10.221 16.6534 L -10.2225 16.5622 L -10.224 16.4709 L -10.2255 16.3795 L -10.2268 16.2879 L -10.2281 16.1963 L -10.2294 16.1046 L -10.2305 16.0127 L -10.2316 15.9207 L -10.2316 15.9207 L -10.3157 15.9579 L -10.3998 15.995 L -10.4838 16.032 L -10.5677 16.0689 L -10.6515 16.1057 L -10.7352 16.1424 L -10.8189 16.1789 L -10.9025 16.2154 L -10.9861 16.2518 L -11.0696 16.288 L -11.153 16.3242 L -11.2363 16.3602 L -11.3196 16.3962 L -11.4028 16.4321 L -11.486 16.4678 L -11.5691 16.5035 L -11.6521 16.5391 L -11.735 16.5746 L -11.8179 16.61 L -11.9008 16.6453 L -11.9835 16.6806 L -12.0662 16.7157 L -12.1489 16.7508 L -12.2315 16.7858 L -12.314 16.8206 L -12.3964 16.8555 L -12.4788 16.8902 L -12.5406 16.8444 L -12.6021 16.7984 L -12.6635 16.7522 L -12.7247 16.7057 L -12.7858 16.659 L -12.8467 16.6121 L -12.9074 16.565 L -12.9679 16.5177 L -13.0283 16.4701 L -13.0885 16.4223 L -13.1485 16.3743 L -13.2083 16.3261 L -13.268 16.2776 L -13.3274 16.229 L -13.3868 16.1801 L -13.4459 16.131 L -13.5048 16.0817 L -13.5636 16.0321 L -13.6222 15.9824 L -13.6806 15.9324 L -13.8233 15.8087 L -13.8811 15.758 L -13.9387 15.7071 L -13.996 15.656 L -14.0532 15.6047 L -14.1103 15.5532 L -14.1671 15.5014 L -14.2237 15.4495 L -14.2802 15.3973 L -14.3364 15.3449 L -14.3925 15.2924 L -14.4483 15.2396 L -14.504 15.1866 L -14.5595 15.1334 L -14.6148 15.0801 L -14.6699 15.0265 L -14.7248 14.9727 L -14.7795 14.9187 L -14.834 14.8645 L -14.8883 14.8101 L -14.9423 14.7555 L -14.9197 14.669 L -14.897 14.5825 L -14.8742 14.4958 L -14.8513 14.4091 L -14.8284 14.3223 L -14.8053 14.2354 L -14.7823 14.1485 L -14.7591 14.0615 L -14.7358 13.9744 L -14.7125 13.8872 L -14.6891 13.8 L -14.6656 13.7127 L -14.642 13.6253 L -14.6184 13.5378 L -14.5946 13.4503 L -14.5708 13.3626 L -14.5469 13.2749 L -14.5228 13.1871 L -14.4987 13.0993 L -14.4746 13.0113 L -14.4503 12.9233 L -14.4259 12.8351 L -14.4014 12.7469 L -14.3769 12.6586 L -14.3522 12.5703 L -14.3274 12.4818 L -14.3026 12.3932 L -14.3026 12.3932 L -14.3938 12.4053 L -14.4848 12.4172 L -14.5758 12.429 L -14.6667 12.4408 L -14.7575 12.4524 L -14.8482 12.464 L -14.9388 12.4755 L -15.0293 12.487 L -15.1197 12.4983 L -15.21 12.5096 L -15.3003 12.5208 L -15.3904 12.5319 L -15.4804 12.5429 L -15.5704 12.5539 L -15.6602 12.5648 L -15.75 12.5756 L -15.8397 12.5864 L -15.9293 12.5971 L -16.0188 12.6077 L -16.1082 12.6182 L -16.1976 12.6287 L -16.2868 12.6392 L -16.376 12.6495 L -16.4651 12.6598 L -16.5541 12.67 L -16.643 12.6802 L -16.7319 12.6903 L -16.7782 12.629 L -16.8243 12.5675 L -16.8702 12.5059 L -16.9158 12.444 L -16.9613 12.3821 L -17.0065 12.3199 L -17.0514 12.2576 L -17.0962 12.1951 L -17.1407 12.1325 L -17.185 12.0696 L -17.229 12.0067 L -17.2729 11.9435 L -17.3165 11.8802 L -17.3598 11.8168 L -17.4029 11.7532 L -17.4458 11.6894 L -17.4885 11.6255 L -17.5309 11.5614 L -17.5731 11.4972 L -17.6151 11.4328 L -17.7172 11.2739 L -17.7583 11.209 L -17.7992 11.1439 L -17.8399 11.0787 L -17.8803 11.0133 L -17.9205 10.9478 L -17.9605 10.8822 L -18.0002 10.8164 L -18.0396 10.7504 L -18.0789 10.6843 L -18.1178 10.6181 L -18.1566 10.5517 L -18.1951 10.4852 L -18.2333 10.4186 L -18.2713 10.3518 L -18.3091 10.2848 L -18.3466 10.2177 L -18.3839 10.1505 L -18.4209 10.0832 L -18.4577 10.0157 L -18.4942 9.9481 L -18.4481 9.87148 L -18.4019 9.79481 L -18.3556 9.71809 L -18.3092 9.64133 L -18.2628 9.56452 L -18.2162 9.48765 L -18.1696 9.41074 L -18.1228 9.33378 L -18.076 9.25678 L -18.029 9.17972 L -17.982 9.10261 L -17.9348 9.02545 L -17.8876 8.94824 L -17.8403 8.87097 L -17.7928 8.79366 L -17.7452 8.71629 L -17.6976 8.63887 L -17.6498 8.5614 L -17.6019 8.48388 L -17.5539 8.4063 L -17.5058 8.32867 L -17.4576 8.25098 L -17.4093 8.17324 L -17.3608 8.09545 L -17.3123 8.0176 L -17.2636 7.93969 L -17.2148 7.86173 L -17.2148 7.86173 L -17.3057 7.84756 L -17.3964 7.83334 L -17.4871 7.81906 L -17.5776 7.80473 L -17.668 7.79035 L -17.7583 7.77592 L -17.8484 7.76143 L -17.9385 7.7469 L -18.0284 7.73231 L -18.1183 7.71768 L -18.208 7.703 L -18.2976 7.68828 L -18.3871 7.67351 L -18.4765 7.6587 L -18.5658 7.64384 L -18.655 7.62893 L -18.7441 7.61399 L -18.833 7.599 L -18.9219 7.58398 L -19.0107 7.56891 L -19.0994 7.5538 L -19.188 7.53866 L -19.2764 7.52347 L -19.3648 7.50825 L -19.4531 7.49299 L -19.5413 7.47769 L -19.6294 7.46236 L -19.6566 7.39048 L -19.6835 7.31849 L -19.7101 7.24641 L -19.7365 7.17423 L -19.7626 7.10195 L -19.7885 7.02958 L -19.8141 6.95712 L -19.8394 6.88456 L -19.8645 6.81191 L -19.8893 6.73917 L -19.9138 6.66634 L -19.9381 6.59341 L -19.9621 6.5204 L -19.9858 6.44731 L -20.0093 6.37412 L -20.0325 6.30086 L -20.0554 6.2275 L -20.078 6.15407 L -20.1004 6.08055 L -20.1225 6.00695 L -20.1758 5.8257 L -20.1969 5.75183 L -20.2179 5.67788 L -20.2385 5.60385 L -20.2589 5.52975 L -20.279 5.45557 L -20.2988 5.38132 L -20.3184 5.307 L -20.3376 5.23261 L -20.3567 5.15814 L -20.3754 5.08361 L -20.3939 5.00901 L -20.4121 4.93434 L -20.43 4.85961 L -20.4476 4.78481 L -20.465 4.70995 L -20.4821 4.63502 L -20.4989 4.56004 L -20.5155 4.48499 L -20.5318 4.40988 L -20.5478 4.33471 L -20.4819 4.27418 L -20.416 4.21364 L -20.35 4.15307 L -20.2839 4.09248 L -20.2176 4.03187 L -20.1513 3.97124 L -20.0849 3.91059 L -20.0183 3.84992 L -19.9517 3.78922 L -19.8849 3.72851 L -19.8181 3.66778 L -19.7511 3.60702 L -19.684 3.54625 L -19.6168 3.48546 L -19.5495 3.42464 L -19.4821 3.36381 L -19.4146 3.30295 L -19.3469 3.24208 L -19.2791 3.18118 L -19.2112 3.12027 L -19.1432 3.05933 L -19.075 2.99838 L -19.0068 2.9374 L -18.9384 2.87641 L -18.8698 2.81539 L -18.8012 2.75436 L -18.7324 2.69331 L -18.7324 2.69331 L -18.8156 2.65411 L -18.8987 2.61489 L -18.9816 2.57566 L -19.0644 2.53641 L -19.1471 2.49714 L -19.2297 2.45785 L -19.3121 2.41855 L -19.3944 2.37923 L -19.4766 2.3399 L -19.5587 2.30055 L -19.6406 2.26119 L -19.7225 2.22182 L -19.8042 2.18243 L -19.8858 2.14303 L -19.9673 2.10362 L -20.0486 2.06419 L -20.1299 2.02476 L -20.2111 1.98531 L -20.2921 1.94585 L -20.373 1.90638 L -20.4539 1.86691 L -20.5346 1.82742 L -20.6152 1.78792 L -20.6957 1.74841 L -20.7761 1.7089 L -20.8564 1.66938 L -20.9367 1.62985 L -20.9425 1.55321 L -20.948 1.47656 L -20.9533 1.39989 L -20.9583 1.3232 L -20.963 1.24649 L -20.9674 1.16977 L -20.9715 1.09303 L -20.9754 1.01627 L -20.979 0.939506 L -20.9823 0.862725 L -20.9853 0.785932 L -20.988 0.709129 L -20.9905 0.632317 L -20.9927 0.555495 L -20.9945 0.478667 L -20.9962 0.401832 L -20.9975 0.324992 L -20.9985 0.248147 L -20.9993 0.171299 L -20.9998 0.0944488 L -20.9998 -0.0944488 L -20.9993 -0.171299 L -20.9985 -0.248147 L -20.9975 -0.324992 L -20.9962 -0.401832 L -20.9945 -0.478667 L -20.9927 -0.555495 L -20.9905 -0.632317 L -20.988 -0.709129 L -20.9853 -0.785932 L -20.9823 -0.862725 L -20.979 -0.939506 L -20.9754 -1.01627 L -20.9715 -1.09303 L -20.9674 -1.16977 L -20.963 -1.24649 L -20.9583 -1.3232 L -20.9533 -1.39989 L -20.948 -1.47656 L -20.9425 -1.55321 L -20.9367 -1.62985 L -20.8564 -1.66938 L -20.7761 -1.7089 L -20.6957 -1.74841 L -20.6152 -1.78792 L -20.5346 -1.82742 L -20.4539 -1.86691 L -20.373 -1.90638 L -20.2921 -1.94585 L -20.2111 -1.98531 L -20.1299 -2.02476 L -20.0486 -2.06419 L -19.9673 -2.10362 L -19.8858 -2.14303 L -19.8042 -2.18243 L -19.7225 -2.22182 L -19.6406 -2.26119 L -19.5587 -2.30055 L -19.4766 -2.3399 L -19.3944 -2.37923 L -19.3121 -2.41855 L -19.2297 -2.45785 L -19.1471 -2.49714 L -19.0644 -2.53641 L -18.9816 -2.57566 L -18.8987 -2.61489 L -18.8156 -2.65411 L -18.7324 -2.69331 L -18.7324 -2.69331 L -18.8012 -2.75436 L -18.8698 -2.81539 L -18.9384 -2.87641 L -19.0068 -2.9374 L -19.075 -2.99838 L -19.1432 -3.05933 L -19.2112 -3.12027 L -19.2791 -3.18118 L -19.3469 -3.24208 L -19.4146 -3.30295 L -19.4821 -3.36381 L -19.5495 -3.42464 L -19.6168 -3.48546 L -19.684 -3.54625 L -19.7511 -3.60702 L -19.8181 -3.66778 L -19.8849 -3.72851 L -19.9517 -3.78922 L -20.0183 -3.84992 L -20.0849 -3.91059 L -20.1513 -3.97124 L -20.2176 -4.03187 L -20.2839 -4.09248 L -20.35 -4.15307 L -20.416 -4.21364 L -20.4819 -4.27418 L -20.5478 -4.33471 L -20.5318 -4.40988 L -20.5155 -4.48499 L -20.4989 -4.56004 L -20.4821 -4.63502 L -20.465 -4.70995 L -20.4476 -4.78481 L -20.43 -4.85961 L -20.4121 -4.93434 L -20.3939 -5.00901 L -20.3754 -5.08361 L -20.3567 -5.15814 L -20.3376 -5.23261 L -20.3184 -5.307 L -20.2988 -5.38132 L -20.279 -5.45557 L -20.2589 -5.52975 L -20.2385 -5.60385 L -20.2179 -5.67788 L -20.1969 -5.75183 L -20.1758 -5.8257 L -20.1225 -6.00695 L -20.1004 -6.08055 L -20.078 -6.15407 L -20.0554 -6.2275 L -20.0325 -6.30086 L -20.0093 -6.37412 L -19.9858 -6.44731 L -19.9621 -6.5204 L -19.9381 -6.59341 L -19.9138 -6.66634 L -19.8893 -6.73917 L -19.8645 -6.81191 L -19.8394 -6.88456 L -19.8141 -6.95712 L -19.7885 -7.02958 L -19.7626 -7.10195 L -19.7365 -7.17423 L -19.7101 -7.24641 L -19.6835 -7.31849 L -19.6566 -7.39048 L -19.6294 -7.46236 L -19.5413 -7.47769 L -19.4531 -7.49299 L -19.3648 -7.50825 L -19.2764 -7.52347 L -19.188 -7.53866 L -19.0994 -7.5538 L -19.0107 -7.56891 L -18.9219 -7.58398 L -18.833 -7.599 L -18.7441 -7.61399 L -18.655 -7.62893 L -18.5658 -7.64384 L -18.4765 -7.6587 L -18.3871 -7.67351 L -18.2976 -7.68828 L -18.208 -7.703 L -18.1183 -7.71768 L -18.0284 -7.73231 L -17.9385 -7.7469 L -17.8484 -7.76143 L -17.7583 -7.77592 L -17.668 -7.79035 L -17.5776 -7.80473 L -17.4871 -7.81906 L -17.3964 -7.83334 L -17.3057 -7.84756 L -17.2148 -7.86173 L -17.2148 -7.86173 L -17.2636 -7.93969 L -17.3123 -8.0176 L -17.3608 -8.09545 L -17.4093 -8.17324 L -17.4576 -8.25098 L -17.5058 -8.32867 L -17.5539 -8.4063 L -17.6019 -8.48388 L -17.6498 -8.5614 L -17.6976 -8.63887 L -17.7452 -8.71629 L -17.7928 -8.79366 L -17.8403 -8.87097 L -17.8876 -8.94824 L -17.9348 -9.02545 L -17.982 -9.10261 L -18.029 -9.17972 L -18.076 -9.25678 L -18.1228 -9.33378 L -18.1696 -9.41074 L -18.2162 -9.48765 L -18.2628 -9.56452 L -18.3092 -9.64133 L -18.3556 -9.71809 L -18.4019 -9.79481 L -18.4481 -9.87148 L -18.4942 -9.9481 L -18.4577 -10.0157 L -18.4209 -10.0832 L -18.3839 -10.1505 L -18.3466 -10.2177 L -18.3091 -10.2848 L -18.2713 -10.3518 L -18.2333 -10.4186 L -18.1951 -10.4852 L -18.1566 -10.5517 L -18.1178 -10.6181 L -18.0789 -10.6843 L -18.0396 -10.7504 L -18.0002 -10.8164 L -17.9605 -10.8822 L -17.9205 -10.9478 L -17.8803 -11.0133 L -17.8399 -11.0787 L -17.7992 -11.1439 L -17.7583 -11.209 L -17.7172 -11.2739 L -17.6151 -11.4328 L -17.5731 -11.4972 L -17.5309 -11.5614 L -17.4885 -11.6255 L -17.4458 -11.6894 L -17.4029 -11.7532 L -17.3598 -11.8168 L -17.3165 -11.8802 L -17.2729 -11.9435 L -17.229 -12.0067 L -17.185 -12.0696 L -17.1407 -12.1325 L -17.0962 -12.1951 L -17.0514 -12.2576 L -17.0065 -12.3199 L -16.9613 -12.3821 L -16.9158 -12.444 L -16.8702 -12.5059 L -16.8243 -12.5675 L -16.7782 -12.629 L -16.7319 -12.6903 L -16.643 -12.6802 L -16.5541 -12.67 L -16.4651 -12.6598 L -16.376 -12.6495 L -16.2868 -12.6392 L -16.1976 -12.6287 L -16.1082 -12.6182 L -16.0188 -12.6077 L -15.9293 -12.5971 L -15.8397 -12.5864 L -15.75 -12.5756 L -15.6602 -12.5648 L -15.5704 -12.5539 L -15.4804 -12.5429 L -15.3904 -12.5319 L -15.3003 -12.5208 L -15.21 -12.5096 L -15.1197 -12.4983 L -15.0293 -12.487 L -14.9388 -12.4755 L -14.8482 -12.464 L -14.7575 -12.4524 L -14.6667 -12.4408 L -14.5758 -12.429 L -14.4848 -12.4172 L -14.3938 -12.4053 L -14.3026 -12.3932 L -14.3026 -12.3932 L -14.3274 -12.4818 L -14.3522 -12.5703 L -14.3769 -12.6586 L -14.4014 -12.7469 L -14.4259 -12.8351 L -14.4503 -12.9233 L -14.4746 -13.0113 L -14.4987 -13.0993 L -14.5228 -13.1871 L -14.5469 -13.2749 L -14.5708 -13.3626 L -14.5946 -13.4503 L -14.6184 -13.5378 L -14.642 -13.6253 L -14.6656 -13.7127 L -14.6891 -13.8 L -14.7125 -13.8872 L -14.7358 -13.9744 L -14.7591 -14.0615 L -14.7823 -14.1485 L -14.8053 -14.2354 L -14.8284 -14.3223 L -14.8513 -14.4091 L -14.8742 -14.4958 L -14.897 -14.5825 L -14.9197 -14.669 L -14.9423 -14.7555 L -14.8883 -14.8101 L -14.834 -14.8645 L -14.7795 -14.9187 L -14.7248 -14.9727 L -14.6699 -15.0265 L -14.6148 -15.0801 L -14.5595 -15.1334 L -14.504 -15.1866 L -14.4483 -15.2396 L -14.3925 -15.2924 L -14.3364 -15.3449 L -14.2802 -15.3973 L -14.2237 -15.4495 L -14.1671 -15.5014 L -14.1103 -15.5532 L -14.0532 -15.6047 L -13.996 -15.656 L -13.9387 -15.7071 L -13.8811 -15.758 L -13.8233 -15.8087 L -13.6806 -15.9324 L -13.6222 -15.9824 L -13.5636 -16.0321 L -13.5048 -16.0817 L -13.4459 -16.131 L -13.3868 -16.1801 L -13.3274 -16.229 L -13.268 -16.2776 L -13.2083 -16.3261 L -13.1485 -16.3743 L -13.0885 -16.4223 L -13.0283 -16.4701 L -12.9679 -16.5177 L -12.9074 -16.565 L -12.8467 -16.6121 L -12.7858 -16.659 L -12.7247 -16.7057 L -12.6635 -16.7522 L -12.6021 -16.7984 L -12.5406 -16.8444 L -12.4788 -16.8902 L -12.3964 -16.8555 L -12.314 -16.8206 L -12.2315 -16.7858 L -12.1489 -16.7508 L -12.0662 -16.7157 L -11.9835 -16.6806 L -11.9008 -16.6453 L -11.8179 -16.61 L -11.735 -16.5746 L -11.6521 -16.5391 L -11.5691 -16.5035 L -11.486 -16.4678 L -11.4028 -16.4321 L -11.3196 -16.3962 L -11.2363 -16.3602 L -11.153 -16.3242 L -11.0696 -16.288 L -10.9861 -16.2518 L -10.9025 -16.2154 L -10.8189 -16.1789 L -10.7352 -16.1424 L -10.6515 -16.1057 L -10.5677 -16.0689 L -10.4838 -16.032 L -10.3998 -15.995 L -10.3157 -15.9579 L -10.2316 -15.9207 L -10.2316 -15.9207 L -10.2305 -16.0127 L -10.2294 -16.1046 L -10.2281 -16.1963 L -10.2268 -16.2879 L -10.2255 -16.3795 L -10.224 -16.4709 L -10.2225 -16.5622 L -10.221 -16.6534 L -10.2193 -16.7445 L -10.2176 -16.8355 L -10.2159 -16.9264 L -10.214 -17.0172 L -10.2122 -17.1079 L -10.2102 -17.1985 L -10.2082 -17.289 L -10.2062 -17.3794 L -10.204 -17.4697 L -10.2019 -17.5599 L -10.1997 -17.65 L -10.1974 -17.74 L -10.195 -17.83 L -10.1927 -17.9198 L -10.1902 -18.0095 L -10.1877 -18.0992 L -10.1852 -18.1887 L -10.1826 -18.2782 L -10.18 -18.3676 L -10.1127 -18.4047 L -10.0453 -18.4416 L -9.9777 -18.4782 L -9.91001 -18.5146 L -9.84218 -18.5508 L -9.77423 -18.5867 L -9.70614 -18.6223 L -9.63793 -18.6577 L -9.56959 -18.6929 L -9.50111 -18.7278 L -9.43251 -18.7624 L -9.36379 -18.7968 L -9.29494 -18.8309 L -9.22596 -18.8648 L -9.15686 -18.8985 L -9.08764 -18.9318 L -9.01829 -18.965 L -8.94883 -18.9979 L -8.87924 -19.0305 L -8.80954 -19.0628 L -8.63771 -19.1413 L -8.56761 -19.1728 L -8.49738 -19.204 L -8.42705 -19.235 L -8.3566 -19.2657 L -8.28604 -19.2962 L -8.21537 -19.3263 L -8.14458 -19.3563 L -8.07369 -19.386 L -8.00269 -19.4154 L -7.93159 -19.4445 L -7.86038 -19.4734 L -7.78906 -19.5021 L -7.71764 -19.5304 L -7.64611 -19.5586 L -7.57448 -19.5864 L -7.50275 -19.614 L -7.43092 -19.6413 L -7.359 -19.6684 L -7.28697 -19.6952 L -7.21484 -19.7217 L -7.14556 -19.6652 L -7.07625 -19.6085 L -7.0069 -19.5518 L -6.93752 -19.495 L -6.8681 -19.4381 L -6.79865 -19.381 L -6.72916 -19.3239 L -6.65964 -19.2667 L -6.59008 -19.2094 L -6.52048 -19.1519 L -6.45085 -19.0944 L -6.38119 -19.0367 L -6.31149 -18.979 L -6.24175 -18.9211 L -6.17197 -18.8632 L -6.10216 -18.8051 L -6.03231 -18.7469 L -5.96243 -18.6886 L -5.89251 -18.6302 L -5.82255 -18.5716 L -5.75255 -18.513 L -5.68252 -18.4542 L -5.61245 -18.3953 L -5.54234 -18.3362 L -5.4722 -18.2771 L -5.40201 -18.2178 L -5.33179 -18.1584 L -5.33179 -18.1584 L -5.30483 -18.2463 L -5.27784 -18.3342 L -5.25081 -18.4218 L -5.22374 -18.5094 L -5.19664 -18.5968 L -5.1695 -18.6842 L -5.14233 -18.7713 L -5.11513 -18.8584 L -5.08789 -18.9454 L -5.06063 -19.0322 L -5.03333 -19.1189 L -5.006 -19.2055 L -4.97865 -19.292 L -4.95126 -19.3784 L -4.92384 -19.4647 L -4.8964 -19.5508 L -4.86893 -19.6369 L -4.84144 -19.7228 L -4.81391 -19.8086 L -4.78636 -19.8944 L -4.75879 -19.98 L -4.73119 -20.0655 L -4.70357 -20.1509 L -4.67593 -20.2362 L -4.64826 -20.3215 L -4.62057 -20.4066 L -4.59285 -20.4916 L -4.51783 -20.5083 L -4.44275 -20.5247 L -4.36761 -20.5408 L -4.29241 -20.5566 L -4.21715 -20.5722 L -4.14183 -20.5875 L -4.06646 -20.6025 L -3.99104 -20.6173 L -3.91556 -20.6317 L -3.84003 -20.6459 L -3.76445 -20.6598 L -3.68882 -20.6735 L -3.61314 -20.6868 L -3.53741 -20.6999 L -3.46163 -20.7127 L -3.38581 -20.7253 L -3.30994 -20.7375 L -3.23402 -20.7495 L -3.15807 -20.7612 L -3.08207 -20.7726 L -2.89509 -20.7995 L -2.81896 -20.8099 L -2.74278 -20.8201 L -2.66657 -20.83 L -2.59032 -20.8396 L -2.51404 -20.849 L -2.43772 -20.858 L -2.36138 -20.8668 L -2.285 -20.8753 L -2.20859 -20.8835 L -2.13215 -20.8915 L -2.05568 -20.8991 L -1.97918 -20.9065 L -1.90266 -20.9136 L -1.82611 -20.9205 L -1.74954 -20.927 L -1.67294 -20.9333 L -1.59632 -20.9392 L -1.51968 -20.9449 L -1.44302 -20.9504 L -1.36634 -20.9555 L -1.3158 -20.8817 L -1.26525 -20.8079 L -1.21469 -20.7339 L -1.16413 -20.6598 L -1.11356 -20.5856 L -1.06299 -20.5114 L -1.01241 -20.437 L -0.961822 -20.3625 L -0.911232 -20.2879 L -0.860637 -20.2132 L -0.810038 -20.1383 L -0.759434 -20.0634 L -0.708825 -19.9884 L -0.658213 -19.9132 L -0.607597 -19.8379 L -0.556977 -19.7625 L -0.506354 -19.687 L -0.455728 -19.6114 L -0.405099 -19.5356 L -0.354467 -19.4597 L -0.303834 -19.3837 L -0.253198 -19.3076 L -0.20256 -19.2313 L -0.151921 -19.155 L -0.101282 -19.0784 L -0.0506409 -19.0018 L -1.33227e-15 -18.925 L -5.62066e-15 -18.925 L 0.0506409 -19.0018 L 0.101282 -19.0784 L 0.151921 -19.155 L 0.20256 -19.2313 L 0.253198 -19.3076 L 0.303834 -19.3837 L 0.354467 -19.4597 L 0.405099 -19.5356 L 0.455728 -19.6114 L 0.506354 -19.687 L 0.556977 -19.7625 L 0.607597 -19.8379 L 0.658213 -19.9132 L 0.708825 -19.9884 L 0.759434 -20.0634 L 0.810038 -20.1383 L 0.860637 -20.2132 L 0.911232 -20.2879 L 0.961822 -20.3625 L 1.01241 -20.437 L 1.06299 -20.5114 L 1.11356 -20.5856 L 1.16413 -20.6598 L 1.21469 -20.7339 L 1.26525 -20.8079 L 1.3158 -20.8817 L 1.36634 -20.9555 L 1.44302 -20.9504 L 1.51968 -20.9449 L 1.59632 -20.9392 L 1.67294 -20.9333 L 1.74954 -20.927 L 1.82611 -20.9205 L 1.90266 -20.9136 L 1.97918 -20.9065 L 2.05568 -20.8991 L 2.13215 -20.8915 L 2.20859 -20.8835 L 2.285 -20.8753 L 2.36138 -20.8668 L 2.43772 -20.858 L 2.51404 -20.849 L 2.59032 -20.8396 L 2.66657 -20.83 L 2.74278 -20.8201 L 2.81896 -20.8099 L 2.89509 -20.7995 L 3.08207 -20.7726 L 3.15807 -20.7612 L 3.23402 -20.7495 L 3.30994 -20.7375 L 3.38581 -20.7253 L 3.46163 -20.7127 L 3.53741 -20.6999 L 3.61314 -20.6868 L 3.68882 -20.6735 L 3.76445 -20.6598 L 3.84003 -20.6459 L 3.91556 -20.6317 L 3.99104 -20.6173 L 4.06646 -20.6025 L 4.14183 -20.5875 L 4.21715 -20.5722 L 4.29241 -20.5566 L 4.36761 -20.5408 L 4.44275 -20.5247 L 4.51783 -20.5083 L 4.59285 -20.4916 L 4.62057 -20.4066 L 4.64826 -20.3215 L 4.67593 -20.2362 L 4.70357 -20.1509 L 4.73119 -20.0655 L 4.75879 -19.98 L 4.78636 -19.8944 L 4.81391 -19.8086 L 4.84144 -19.7228 L 4.86893 -19.6369 L 4.8964 -19.5508 L 4.92384 -19.4647 L 4.95126 -19.3784 L 4.97865 -19.292 L 5.006 -19.2055 L 5.03333 -19.1189 L 5.06063 -19.0322 L 5.08789 -18.9454 L 5.11513 -18.8584 L 5.14233 -18.7713 L 5.1695 -18.6842 L 5.19664 -18.5968 L 5.22374 -18.5094 L 5.25081 -18.4218 L 5.27784 -18.3342 L 5.30483 -18.2463 L 5.33179 -18.1584 L 5.33179 -18.1584 L 5.40201 -18.2178 L 5.4722 -18.2771 L 5.54234 -18.3362 L 5.61245 -18.3953 L 5.68252 -18.4542 L 5.75255 -18.513 L 5.82255 -18.5716 L 5.89251 -18.6302 L 5.96243 -18.6886 L 6.03231 -18.7469 L 6.10216 -18.8051 L 6.17197 -18.8632 L 6.24175 -18.9211 L 6.31149 -18.979 L 6.38119 -19.0367 L 6.45085 -19.0944 L 6.52048 -19.1519 L 6.59008 -19.2094 L 6.65964 -19.2667 L 6.72916 -19.3239 L 6.79865 -19.381 L 6.8681 -19.4381 L 6.93752 -19.495 L 7.0069 -19.5518 L 7.07625 -19.6085 L 7.14556 -19.6652 L 7.21484 -19.7217 L 7.28697 -19.6952 L 7.359 -19.6684 L 7.43092 -19.6413 L 7.50275 -19.614 L 7.57448 -19.5864 L 7.64611 -19.5586 L 7.71764 -19.5304 L 7.78906 -19.5021 L 7.86038 -19.4734 L 7.93159 -19.4445 L 8.00269 -19.4154 L 8.07369 -19.386 L 8.14458 -19.3563 L 8.21537 -19.3263 L 8.28604 -19.2962 L 8.3566 -19.2657 L 8.42705 -19.235 L 8.49738 -19.204 L 8.56761 -19.1728 L 8.63771 -19.1413 L 8.80954 -19.0628 L 8.87924 -19.0305 L 8.94883 -18.9979 L 9.01829 -18.965 L 9.08764 -18.9318 L 9.15686 -18.8985 L 9.22596 -18.8648 L 9.29494 -18.8309 L 9.36379 -18.7968 L 9.43251 -18.7624 L 9.50111 -18.7278 L 9.56959 -18.6929 L 9.63793 -18.6577 L 9.70614 -18.6223 L 9.77423 -18.5867 L 9.84218 -18.5508 L 9.91001 -18.5146 L 9.9777 -18.4782 L 10.0453 -18.4416 L 10.1127 -18.4047 L 10.18 -18.3676 L 10.1826 -18.2782 L 10.1852 -18.1887 L 10.1877 -18.0992 L 10.1902 -18.0095 L 10.1927 -17.9198 L 10.195 -17.83 L 10.1974 -17.74 L 10.1997 -17.65 L 10.2019 -17.5599 L 10.204 -17.4697 L 10.2062 -17.3794 L 10.2082 -17.289 L 10.2102 -17.1985 L 10.2122 -17.1079 L 10.214 -17.0172 L 10.2159 -16.9264 L 10.2176 -16.8355 L 10.2193 -16.7445 L 10.221 -16.6534 L 10.2225 -16.5622 L 10.224 -16.4709 L 10.2255 -16.3795 L 10.2268 -16.2879 L 10.2281 -16.1963 L 10.2294 -16.1046 L 10.2305 -16.0127 L 10.2316 -15.9207 L 10.2316 -15.9207 L 10.3157 -15.9579 L 10.3998 -15.995 L 10.4838 -16.032 L 10.5677 -16.0689 L 10.6515 -16.1057 L 10.7352 -16.1424 L 10.8189 -16.1789 L 10.9025 -16.2154 L 10.9861 -16.2518 L 11.0696 -16.288 L 11.153 -16.3242 L 11.2363 -16.3602 L 11.3196 -16.3962 L 11.4028 -16.4321 L 11.486 -16.4678 L 11.5691 -16.5035 L 11.6521 -16.5391 L 11.735 -16.5746 L 11.8179 -16.61 L 11.9008 -16.6453 L 11.9835 -16.6806 L 12.0662 -16.7157 L 12.1489 -16.7508 L 12.2315 -16.7858 L 12.314 -16.8206 L 12.3964 -16.8555 L 12.4788 -16.8902 L 12.5406 -16.8444 L 12.6021 -16.7984 L 12.6635 -16.7522 L 12.7247 -16.7057 L 12.7858 -16.659 L 12.8467 -16.6121 L 12.9074 -16.565 L 12.9679 -16.5177 L 13.0283 -16.4701 L 13.0885 -16.4223 L 13.1485 -16.3743 L 13.2083 -16.3261 L 13.268 -16.2776 L 13.3274 -16.229 L 13.3868 -16.1801 L 13.4459 -16.131 L 13.5048 -16.0817 L 13.5636 -16.0321 L 13.6222 -15.9824 L 13.6806 -15.9324 L 13.8233 -15.8087 L 13.8811 -15.758 L 13.9387 -15.7071 L 13.996 -15.656 L 14.0532 -15.6047 L 14.1103 -15.5532 L 14.1671 -15.5014 L 14.2237 -15.4495 L 14.2802 -15.3973 L 14.3364 -15.3449 L 14.3925 -15.2924 L 14.4483 -15.2396 L 14.504 -15.1866 L 14.5595 -15.1334 L 14.6148 -15.0801 L 14.6699 -15.0265 L 14.7248 -14.9727 L 14.7795 -14.9187 L 14.834 -14.8645 L 14.8883 -14.8101 L 14.9423 -14.7555 L 14.9197 -14.669 L 14.897 -14.5825 L 14.8742 -14.4958 L 14.8513 -14.4091 L 14.8284 -14.3223 L 14.8053 -14.2354 L 14.7823 -14.1485 L 14.7591 -14.0615 L 14.7358 -13.9744 L 14.7125 -13.8872 L 14.6891 -13.8 L 14.6656 -13.7127 L 14.642 -13.6253 L 14.6184 -13.5378 L 14.5946 -13.4503 L 14.5708 -13.3626 L 14.5469 -13.2749 L 14.5228 -13.1871 L 14.4987 -13.0993 L 14.4746 -13.0113 L 14.4503 -12.9233 L 14.4259 -12.8351 L 14.4014 -12.7469 L 14.3769 -12.6586 L 14.3522 -12.5703 L 14.3274 -12.4818 L 14.3026 -12.3932 L 14.3026 -12.3932 L 14.3938 -12.4053 L 14.4848 -12.4172 L 14.5758 -12.429 L 14.6667 -12.4408 L 14.7575 -12.4524 L 14.8482 -12.464 L 14.9388 -12.4755 L 15.0293 -12.487 L 15.1197 -12.4983 L 15.21 -12.5096 L 15.3003 -12.5208 L 15.3904 -12.5319 L 15.4804 -12.5429 L 15.5704 -12.5539 L 15.6602 -12.5648 L 15.75 -12.5756 L 15.8397 -12.5864 L 15.9293 -12.5971 L 16.0188 -12.6077 L 16.1082 -12.6182 L 16.1976 -12.6287 L 16.2868 -12.6392 L 16.376 -12.6495 L 16.4651 -12.6598 L 16.5541 -12.67 L 16.643 -12.6802 L 16.7319 -12.6903 L 16.7782 -12.629 L 16.8243 -12.5675 L 16.8702 -12.5059 L 16.9158 -12.444 L 16.9613 -12.3821 L 17.0065 -12.3199 L 17.0514 -12.2576 L 17.0962 -12.1951 L 17.1407 -12.1325 L 17.185 -12.0696 L 17.229 -12.0067 L 17.2729 -11.9435 L 17.3165 -11.8802 L 17.3598 -11.8168 L 17.4029 -11.7532 L 17.4458 -11.6894 L 17.4885 -11.6255 L 17.5309 -11.5614 L 17.5731 -11.4972 L 17.6151 -11.4328 L 17.7172 -11.2739 L 17.7583 -11.209 L 17.7992 -11.1439 L 17.8399 -11.0787 L 17.8803 -11.0133 L 17.9205 -10.9478 L 17.9605 -10.8822 L 18.0002 -10.8164 L 18.0396 -10.7504 L 18.0789 -10.6843 L 18.1178 -10.6181 L 18.1566 -10.5517 L 18.1951 -10.4852 L 18.2333 -10.4186 L 18.2713 -10.3518 L 18.3091 -10.2848 L 18.3466 -10.2177 L 18.3839 -10.1505 L 18.4209 -10.0832 L 18.4577 -10.0157 L 18.4942 -9.9481 L 18.4481 -9.87148 L 18.4019 -9.79481 L 18.3556 -9.71809 L 18.3092 -9.64133 L 18.2628 -9.56452 L 18.2162 -9.48765 L 18.1696 -9.41074 L 18.1228 -9.33378 L 18.076 -9.25678 L 18.029 -9.17972 L 17.982 -9.10261 L 17.9348 -9.02545 L 17.8876 -8.94824 L 17.8403 -8.87097 L 17.7928 -8.79366 L 17.7452 -8.71629 L 17.6976 -8.63887 L 17.6498 -8.5614 L 17.6019 -8.48388 L 17.5539 -8.4063 L 17.5058 -8.32867 L 17.4576 -8.25098 L 17.4093 -8.17324 L 17.3608 -8.09545 L 17.3123 -8.0176 L 17.2636 -7.93969 L 17.2148 -7.86173 L 17.2148 -7.86173 L 17.3057 -7.84756 L 17.3964 -7.83334 L 17.4871 -7.81906 L 17.5776 -7.80473 L 17.668 -7.79035 L 17.7583 -7.77592 L 17.8484 -7.76143 L 17.9385 -7.7469 L 18.0284 -7.73231 L 18.1183 -7.71768 L 18.208 -7.703 L 18.2976 -7.68828 L 18.3871 -7.67351 L 18.4765 -7.6587 L 18.5658 -7.64384 L 18.655 -7.62893 L 18.7441 -7.61399 L 18.833 -7.599 L 18.9219 -7.58398 L 19.0107 -7.56891 L 19.0994 -7.5538 L 19.188 -7.53866 L 19.2764 -7.52347 L 19.3648 -7.50825 L 19.4531 -7.49299 L 19.5413 -7.47769 L 19.6294 -7.46236 L 19.6566 -7.39048 L 19.6835 -7.31849 L 19.7101 -7.24641 L 19.7365 -7.17423 L 19.7626 -7.10195 L 19.7885 -7.02958 L 19.8141 -6.95712 L 19.8394 -6.88456 L 19.8645 -6.81191 L 19.8893 -6.73917 L 19.9138 -6.66634 L 19.9381 -6.59341 L 19.9621 -6.5204 L 19.9858 -6.44731 L 20.0093 -6.37412 L 20.0325 -6.30086 L 20.0554 -6.2275 L 20.078 -6.15407 L 20.1004 -6.08055 L 20.1225 -6.00695 L 20.1758 -5.8257 L 20.1969 -5.75183 L 20.2179 -5.67788 L 20.2385 -5.60385 L 20.2589 -5.52975 L 20.279 -5.45557 L 20.2988 -5.38132 L 20.3184 -5.307 L 20.3376 -5.23261 L 20.3567 -5.15814 L 20.3754 -5.08361 L 20.3939 -5.00901 L 20.4121 -4.93434 L 20.43 -4.85961 L 20.4476 -4.78481 L 20.465 -4.70995 L 20.4821 -4.63502 L 20.4989 -4.56004 L 20.5155 -4.48499 L 20.5318 -4.40988 L 20.5478 -4.33471 L 20.4819 -4.27418 L 20.416 -4.21364 L 20.35 -4.15307 L 20.2839 -4.09248 L 20.2176 -4.03187 L 20.1513 -3.97124 L 20.0849 -3.91059 L 20.0183 -3.84992 L 19.9517 -3.78922 L 19.8849 -3.72851 L 19.8181 -3.66778 L 19.7511 -3.60702 L 19.684 -3.54625 L 19.6168 -3.48546 L 19.5495 -3.42464 L 19.4821 -3.36381 L 19.4146 -3.30295 L 19.3469 -3.24208 L 19.2791 -3.18118 L 19.2112 -3.12027 L 19.1432 -3.05933 L 19.075 -2.99838 L 19.0068 -2.9374 L 18.9384 -2.87641 L 18.8698 -2.81539 L 18.8012 -2.75436 L 18.7324 -2.69331 L 18.7324 -2.69331 L 18.8156 -2.65411 L 18.8987 -2.61489 L 18.9816 -2.57566 L 19.0644 -2.53641 L 19.1471 -2.49714 L 19.2297 -2.45785 L 19.3121 -2.41855 L 19.3944 -2.37923 L 19.4766 -2.3399 L 19.5587 -2.30055 L 19.6406 -2.26119 L 19.7225 -2.22182 L 19.8042 -2.18243 L 19.8858 -2.14303 L 19.9673 -2.10362 L 20.0486 -2.06419 L 20.1299 -2.02476 L 20.2111 -1.98531 L 20.2921 -1.94585 L 20.373 -1.90638 L 20.4539 -1.86691 L 20.5346 -1.82742 L 20.6152 -1.78792 L 20.6957 -1.74841 L 20.7761 -1.7089 L 20.8564 -1.66938 L 20.9367 -1.62985 L 20.9425 -1.55321 L 20.948 -1.47656 L 20.9533 -1.39989 L 20.9583 -1.3232 L 20.963 -1.24649 L 20.9674 -1.16977 L 20.9715 -1.09303 L 20.9754 -1.01627 L 20.979 -0.939506 L 20.9823 -0.862725 L 20.9853 -0.785932 L 20.988 -0.709129 L 20.9905 -0.632317 L 20.9927 -0.555495 L 20.9945 -0.478667 L 20.9962 -0.401832 L 20.9975 -0.324992 L 20.9985 -0.248147 L 20.9993 -0.171299 L 20.9998 -0.0944488Z"
id="path1" />
</g>
</svg>
