<?xml version="1.0" encoding="UTF-8" standalone="no"?>
<svg version="1.1">
<g
style="fill:none;stroke:#000000;stroke-opacity:1;stroke-width:0.1">
<path d="M 21.9997 0.123004 L 21.9991 0.194554 L 21.9984 0.266102 L 21.9974 0.337647 L 21.9962 0.409188 L 21.9947 0.480725 L 21.9931 0.552257 L 21.9912 0.623784 L 21.989 0.695303 L 21.9866 0.766815 L 21.984 0.838319 L 21.9812 0.909814 L 21.9781 0.9813 L 21.9748 1.05278 L 21.9713 1.12424 L 21.9675 1.19569 L 21.9635 1.26713 L 21.9592 1.33856 L 21.9548 1.40997 L 21.9501 1.48137 L 21.9451 1.55275 L 21.94 1.62411 L 21.9346 1.69546 L 21.86 1.73067 L 21.7854 1.76587 L 21.7108 1.80106 L 21.636 1.83625 L 21.5612 1.87143 L 21.4863 1.9066 L 21.4113 1.94177 L 21.3362 1.97693 L 21.261 2.01208 L 21.1858 2.04723 L 21.1105 2.08236 L 21.0351 2.11749 L 20.9596 2.15261 L 20.884 2.18772 L 20.8083 2.22282 L 20.7326 2.25791 L 20.6567 2.29299 L 20.5808 2.32807 L 20.5048 2.36313 L 20.4287 2.39818 L 20.3525 2.43322 L 20.2762 2.46825 L 20.1998 2.50327 L 20.1233 2.53828 L 20.0467 2.57327 L 19.97 2.60825 L 19.8933 2.64322 L 19.8164 2.67818 L 19.7394 2.71312 L 19.7394 2.71312 L 19.8041 2.76754 L 19.8687 2.82194 L 19.9332 2.87632 L 19.9976 2.93069 L 20.0619 2.98505 L 20.1261 3.0394 L 20.1902 3.09373 L 20.2542 3.14804 L 20.3182 3.20234 L 20.382 3.25663 L 20.4457 3.3109 L 20.5094 3.36516 L 20.5729 3.4194 L 20.6364 3.47363 L 20.6998 3.52784 L 20.7631 3.58204 L 20.8263 3.63623 L 20.8895 3.6904 L 20.9525 3.74455 L 21.0155 3.79869 L 21.0784 3.85282 L 21.1412 3.90693 L 21.2039 3.96102 L 21.2665 4.0151 L 21.3291 4.06917 L 21.3916 4.12322 L 21.454 4.17726 L 21.5163 4.23128 L 21.5786 4.28529 L 21.5646 4.35545 L 21.5503 4.42556 L 21.5358 4.49562 L 21.521 4.56564 L 21.5061 4.63561 L 21.4909 4.70553 L 21.4755 4.7754 L 21.4598 4.84522 L 21.4439 4.91499 L 21.4278 4.98471 L 21.4115 5.05438 L 21.395 5.12399 L 21.3782 5.19354 L 21.3612 5.26304 L 21.344 5.33249 L 21.3265 5.40188 L 21.3088 5.47121 L 21.2909 5.54049 L 21.2728 5.6097 L 21.2544 5.67886 L 21.2358 5.74796 L 21.217 5.81699 L 21.1507 6.05388 L 21.1309 6.12264 L 21.1108 6.19133 L 21.0906 6.25996 L 21.0701 6.32852 L 21.0494 6.39701 L 21.0285 6.46544 L 21.0074 6.53379 L 20.986 6.60208 L 20.9644 6.6703 L 20.9426 6.73845 L 20.9206 6.80653 L 20.8983 6.87453 L 20.8759 6.94246 L 20.8532 7.01032 L 20.8303 7.07811 L 20.8071 7.14582 L 20.7838 7.21345 L 20.7602 7.28101 L 20.7364 7.34849 L 20.7124 7.41589 L 20.6882 7.48322 L 20.6637 7.55046 L 20.5825 7.56426 L 20.5012 7.57803 L 20.4198 7.59177 L 20.3383 7.60548 L 20.2567 7.61917 L 20.1751 7.63283 L 20.0934 7.64646 L 20.0116 7.66006 L 19.9298 7.67363 L 19.8478 7.68717 L 19.7658 7.70068 L 19.6837 7.71416 L 19.6016 7.72761 L 19.5193 7.74103 L 19.437 7.75441 L 19.3546 7.76777 L 19.2721 7.78109 L 19.1895 7.79437 L 19.1069 7.80763 L 19.0241 7.82084 L 18.9413 7.83402 L 18.8584 7.84717 L 18.7754 7.86028 L 18.6923 7.87335 L 18.6091 7.88639 L 18.5258 7.89939 L 18.4424 7.91234 L 18.359 7.92526 L 18.2754 7.93814 L 18.2754 7.93814 L 18.323 8.00799 L 18.3706 8.0778 L 18.418 8.14757 L 18.4653 8.2173 L 18.5126 8.28699 L 18.5598 8.35665 L 18.6068 8.42626 L 18.6538 8.49583 L 18.7007 8.56536 L 18.7475 8.63486 L 18.7943 8.70431 L 18.8409 8.77373 L 18.8875 8.84311 L 18.934 8.91246 L 18.9804 8.98176 L 19.0267 9.05103 L 19.073 9.12026 L 19.1192 9.18945 L 19.1653 9.25861 L 19.2113 9.32773 L 19.2572 9.39682 L 19.3031 9.46587 L 19.3489 9.53488 L 19.3947 9.60386 L 19.4403 9.6728 L 19.4859 9.74171 L 19.5314 9.81058 L 19.5769 9.87941 L 19.6223 9.94822 L 19.5898 10.012 L 19.5571 10.0756 L 19.5243 10.1392 L 19.4912 10.2026 L 19.4579 10.266 L 19.4244 10.3292 L 19.3907 10.3923 L 19.3568 10.4553 L 19.3227 10.5182 L 19.2884 10.581 L 19.2539 10.6437 L 19.2192 10.7063 L 19.1842 10.7687 L 19.1491 10.8311 L 19.1138 10.8933 L 19.0782 10.9554 L 19.0425 11.0174 L 19.0066 11.0793 L 18.9704 11.141 L 18.9341 11.2026 L 18.8976 11.2642 L 18.8608 11.3256 L 18.733 11.5358 L 18.6954 11.5966 L 18.6576 11.6574 L 18.6196 11.718 L 18.5814 11.7785 L 18.543 11.8389 L 18.5044 11.8991 L 18.4656 11.9592 L 18.4266 12.0192 L 18.3874 12.0791 L 18.348 12.1388 L 18.3084 12.1984 L 18.2687 12.2579 L 18.2287 12.3173 L 18.1885 12.3765 L 18.1482 12.4356 L 18.1076 12.4945 L 18.0669 12.5534 L 18.026 12.6121 L 17.9849 12.6706 L 17.9436 12.729 L 17.9021 12.7873 L 17.8604 12.8455 L 17.7784 12.8368 L 17.6964 12.8282 L 17.6143 12.8194 L 17.5321 12.8107 L 17.4499 12.8018 L 17.3676 12.793 L 17.2853 12.784 L 17.2029 12.7751 L 17.1204 12.7661 L 17.0379 12.757 L 16.9552 12.7479 L 16.8726 12.7387 L 16.7898 12.7295 L 16.707 12.7202 L 16.6241 12.7109 L 16.5411 12.7015 L 16.4581 12.6921 L 16.375 12.6826 L 16.2918 12.6731 L 16.2086 12.6635 L 16.1253 12.6538 L 16.0419 12.6441 L 15.9584 12.6343 L 15.8749 12.6245 L 15.7913 12.6146 L 15.7076 12.6047 L 15.6238 12.5946 L 15.54 12.5846 L 15.456 12.5744 L 15.456 12.5744 L 15.4831 12.6545 L 15.51 12.7346 L 15.5368 12.8146 L 15.5636 12.8945 L 15.5903 12.9743 L 15.6169 13.0541 L 15.6435 13.1339 L 15.6699 13.2135 L 15.6963 13.2931 L 15.7227 13.3727 L 15.7489 13.4522 L 15.7751 13.5316 L 15.8013 13.611 L 15.8273 13.6903 L 15.8533 13.7695 L 15.8792 13.8487 L 15.9051 13.9279 L 15.9309 14.007 L 15.9566 14.086 L 15.9823 14.165 L 16.0079 14.2439 L 16.0334 14.3228 L 16.0589 14.4016 L 16.0844 14.4803 L 16.1097 14.559 L 16.135 14.6377 L 16.1603 14.7163 L 16.1855 14.7948 L 16.2106 14.8733 L 16.1622 14.926 L 16.1135 14.9785 L 16.0647 15.0308 L 16.0158 15.083 L 15.9666 15.135 L 15.9173 15.1868 L 15.8678 15.2385 L 15.8182 15.29 L 15.7684 15.3414 L 15.7184 15.3926 L 15.6682 15.4436 L 15.6179 15.4945 L 15.5675 15.5452 L 15.5168 15.5958 L 15.466 15.6462 L 15.415 15.6964 L 15.3639 15.7464 L 15.3126 15.7963 L 15.2612 15.846 L 15.2095 15.8956 L 15.1578 15.945 L 15.1058 15.9942 L 14.926 16.1621 L 14.8734 16.2106 L 14.8206 16.2588 L 14.7676 16.307 L 14.7145 16.3549 L 14.6613 16.4027 L 14.6078 16.4503 L 14.5542 16.4977 L 14.5005 16.5449 L 14.4466 16.592 L 14.3926 16.6389 L 14.3384 16.6856 L 14.2841 16.7322 L 14.2296 16.7785 L 14.1749 16.8247 L 14.1201 16.8707 L 14.0652 16.9166 L 14.0101 16.9622 L 13.9548 17.0077 L 13.8995 17.053 L 13.8439 17.0981 L 13.7882 17.1431 L 13.7324 17.1878 L 13.6558 17.1574 L 13.5792 17.1269 L 13.5025 17.0963 L 13.4257 17.0657 L 13.3489 17.035 L 13.2721 17.0043 L 13.1952 16.9735 L 13.1183 16.9426 L 13.0413 16.9117 L 12.9642 16.8807 L 12.8872 16.8496 L 12.81 16.8185 L 12.7328 16.7873 L 12.6556 16.756 L 12.5783 16.7247 L 12.5009 16.6933 L 12.4235 16.6618 L 12.3461 16.6302 L 12.2686 16.5986 L 12.191 16.5669 L 12.1134 16.5351 L 12.0357 16.5033 L 11.958 16.4713 L 11.8802 16.4393 L 11.8023 16.4073 L 11.7244 16.3751 L 11.6465 16.3429 L 11.5684 16.3105 L 11.4904 16.2781 L 11.4904 16.2781 L 11.4947 16.3625 L 11.4991 16.4469 L 11.5033 16.5311 L 11.5076 16.6153 L 11.5117 16.6994 L 11.5158 16.7834 L 11.5199 16.8674 L 11.5239 16.9512 L 11.5278 17.035 L 11.5317 17.1187 L 11.5356 17.2023 L 11.5394 17.2859 L 11.5431 17.3694 L 11.5468 17.4528 L 11.5504 17.5361 L 11.554 17.6194 L 11.5576 17.7025 L 11.5611 17.7857 L 11.5645 17.8687 L 11.568 17.9517 L 11.5713 18.0346 L 11.5746 18.1174 L 11.5779 18.2002 L 11.5812 18.2829 L 11.5844 18.3655 L 11.5875 18.4481 L 11.5906 18.5306 L 11.5937 18.613 L 11.5967 18.6954 L 11.5358 18.733 L 11.4749 18.7704 L 11.4137 18.8076 L 11.3525 18.8446 L 11.2912 18.8815 L 11.2297 18.9181 L 11.1681 18.9545 L 11.1064 18.9907 L 11.0446 19.0268 L 10.9826 19.0626 L 10.9206 19.0982 L 10.8584 19.1336 L 10.7961 19.1688 L 10.7337 19.2038 L 10.6712 19.2386 L 10.6086 19.2732 L 10.5458 19.3076 L 10.483 19.3418 L 10.42 19.3758 L 10.357 19.4096 L 10.2938 19.4432 L 10.2305 19.4766 L 10.0121 19.5898 L 9.94829 19.6222 L 9.88442 19.6545 L 9.82045 19.6865 L 9.75637 19.7183 L 9.69219 19.75 L 9.6279 19.7814 L 9.56351 19.8126 L 9.49903 19.8436 L 9.43444 19.8744 L 9.36975 19.905 L 9.30496 19.9353 L 9.24008 19.9655 L 9.17509 19.9954 L 9.11001 20.0252 L 9.04483 20.0547 L 8.97956 20.084 L 8.91419 20.1131 L 8.84873 20.142 L 8.78318 20.1707 L 8.71753 20.1991 L 8.65179 20.2274 L 8.58596 20.2554 L 8.52041 20.2054 L 8.45483 20.1554 L 8.38923 20.1053 L 8.32359 20.0551 L 8.25793 20.0048 L 8.19223 19.9545 L 8.12651 19.9041 L 8.06075 19.8536 L 7.99496 19.803 L 7.92914 19.7524 L 7.86329 19.7017 L 7.79741 19.6509 L 7.7315 19.6 L 7.66555 19.5491 L 7.59958 19.4981 L 7.53357 19.4469 L 7.46753 19.3957 L 7.40146 19.3445 L 7.33535 19.2931 L 7.26921 19.2416 L 7.20304 19.1901 L 7.13684 19.1385 L 7.0706 19.0868 L 7.00433 19.035 L 6.93803 18.9831 L 6.87169 18.9311 L 6.80532 18.879 L 6.73892 18.8268 L 6.67248 18.7745 L 6.67248 18.7745 L 6.65393 18.857 L 6.63534 18.9394 L 6.61672 19.0217 L 6.59808 19.1039 L 6.57939 19.186 L 6.56068 19.268 L 6.54194 19.3499 L 6.52316 19.4317 L 6.50436 19.5135 L 6.48553 19.5951 L 6.46666 19.6767 L 6.44777 19.7582 L 6.42886 19.8396 L 6.40991 19.9209 L 6.39094 20.0021 L 6.37194 20.0832 L 6.35291 20.1643 L 6.33386 20.2453 L 6.31478 20.3262 L 6.29568 20.407 L 6.27656 20.4877 L 6.25741 20.5684 L 6.23823 20.6489 L 6.21904 20.7295 L 6.19982 20.8099 L 6.18058 20.8902 L 6.16131 20.9705 L 6.14203 21.0507 L 6.12272 21.1308 L 6.05396 21.1506 L 5.98514 21.1702 L 5.91626 21.1896 L 5.84731 21.2087 L 5.7783 21.2276 L 5.70923 21.2463 L 5.6401 21.2647 L 5.57091 21.283 L 5.50166 21.301 L 5.43235 21.3188 L 5.36299 21.3363 L 5.29357 21.3536 L 5.22409 21.3707 L 5.15456 21.3876 L 5.08497 21.4043 L 5.01533 21.4207 L 4.94563 21.4369 L 4.87589 21.4529 L 4.80609 21.4686 L 4.73624 21.4841 L 4.66634 21.4994 L 4.59639 21.5145 L 4.35553 21.5645 L 4.28537 21.5786 L 4.21517 21.5924 L 4.14492 21.606 L 4.07463 21.6194 L 4.00429 21.6325 L 3.93392 21.6454 L 3.8635 21.6581 L 3.79304 21.6706 L 3.72254 21.6828 L 3.652 21.6948 L 3.58142 21.7065 L 3.5108 21.7181 L 3.44015 21.7294 L 3.36946 21.7404 L 3.29873 21.7513 L 3.22797 21.7619 L 3.15718 21.7723 L 3.08635 21.7824 L 3.01549 21.7924 L 2.9446 21.802 L 2.87368 21.8115 L 2.80272 21.8207 L 2.75309 21.7549 L 2.70345 21.6891 L 2.6538 21.6231 L 2.60414 21.5571 L 2.55446 21.491 L 2.50478 21.4248 L 2.4551 21.3585 L 2.4054 21.2921 L 2.35569 21.2257 L 2.30597 21.1592 L 2.25625 21.0926 L 2.20651 21.0259 L 2.15677 20.9592 L 2.10701 20.8923 L 2.05725 20.8254 L 2.00748 20.7583 L 1.9577 20.6912 L 1.90792 20.624 L 1.85812 20.5567 L 1.80832 20.4893 L 1.75851 20.4218 L 1.70869 20.3543 L 1.65886 20.2866 L 1.60902 20.2188 L 1.55918 20.151 L 1.50933 20.083 L 1.45947 20.015 L 1.4096 19.9468 L 1.35973 19.8786 L 1.35973 19.8786 L 1.31962 19.953 L 1.2795 20.0273 L 1.23937 20.1015 L 1.19924 20.1756 L 1.1591 20.2496 L 1.11895 20.3235 L 1.0788 20.3974 L 1.03865 20.4711 L 0.998488 20.5447 L 0.958324 20.6183 L 0.918156 20.6917 L 0.877983 20.7651 L 0.837807 20.8383 L 0.797628 20.9115 L 0.757445 20.9846 L 0.717258 21.0576 L 0.677069 21.1305 L 0.636878 21.2034 L 0.596683 21.2761 L 0.556486 21.3488 L 0.516288 21.4214 L 0.476087 21.4939 L 0.435884 21.5663 L 0.39568 21.6386 L 0.355474 21.7109 L 0.315267 21.7831 L 0.275059 21.8552 L 0.23485 21.9272 L 0.19464 21.9991 L 0.12309 21.9997 L 0.0515387 21.9999 L -0.020013 22 L -0.0915645 21.9998 L -0.163115 21.9994 L -0.234664 21.9987 L -0.30621 21.9979 L -0.377753 21.9968 L -0.449292 21.9954 L -0.520826 21.9938 L -0.592355 21.992 L -0.663878 21.99 L -0.735393 21.9877 L -0.806901 21.9852 L -0.8784 21.9825 L -0.94989 21.9795 L -1.02137 21.9763 L -1.09284 21.9728 L -1.1643 21.9692 L -1.23574 21.9653 L -1.30717 21.9611 L -1.37859 21.9568 L -1.62403 21.94 L -1.69538 21.9346 L -1.7667 21.9289 L -1.83802 21.9231 L -1.90931 21.917 L -1.98058 21.9107 L -2.05183 21.9041 L -2.12306 21.8973 L -2.19427 21.8903 L -2.26545 21.883 L -2.33661 21.8756 L -2.40774 21.8678 L -2.47885 21.8599 L -2.54993 21.8517 L -2.62099 21.8433 L -2.69202 21.8347 L -2.76302 21.8258 L -2.83399 21.8167 L -2.90493 21.8074 L -2.97584 21.7978 L -3.04672 21.788 L -3.11756 21.778 L -3.18838 21.7677 L -3.21841 21.691 L -3.24844 21.6142 L -3.27846 21.5372 L -3.30846 21.4603 L -3.33845 21.3832 L -3.36843 21.3061 L -3.3984 21.2288 L -3.42835 21.1515 L -3.4583 21.0742 L -3.48822 20.9967 L -3.51814 20.9192 L -3.54804 20.8415 L -3.57792 20.7638 L -3.60779 20.686 L -3.63765 20.6081 L -3.66749 20.5302 L -3.69732 20.4521 L -3.72712 20.374 L -3.75692 20.2957 L -3.78669 20.2174 L -3.81645 20.139 L -3.84619 20.0605 L -3.87592 19.9819 L -3.90562 19.9032 L -3.93531 19.8244 L -3.96498 19.7455 L -3.99462 19.6665 L -4.02425 19.5874 L -4.05386 19.5083 L -4.05386 19.5083 L -4.11256 19.5691 L -4.17125 19.6298 L -4.22991 19.6904 L -4.28855 19.751 L -4.34717 19.8114 L -4.40576 19.8718 L -4.46434 19.932 L -4.5229 19.9922 L -4.58144 20.0523 L -4.63995 20.1122 L -4.69845 20.1721 L -4.75692 20.2319 L -4.81538 20.2916 L -4.87381 20.3513 L -4.93222 20.4108 L -4.99062 20.4703 L -5.04899 20.5296 L -5.10734 20.5889 L -5.16567 20.6481 L -5.22398 20.7073 L -5.28227 20.7663 L -5.34054 20.8253 L -5.39879 20.8841 L -5.45702 20.943 L -5.51523 21.0017 L -5.57342 21.0603 L -5.63159 21.1189 L -5.68974 21.1774 L -5.74787 21.2359 L -5.81691 21.2171 L -5.88589 21.198 L -5.9548 21.1788 L -6.02365 21.1593 L -6.09243 21.1396 L -6.16115 21.1197 L -6.22981 21.0995 L -6.2984 21.0791 L -6.36692 21.0585 L -6.43538 21.0377 L -6.50377 21.0167 L -6.57209 20.9954 L -6.64033 20.9739 L -6.70851 20.9522 L -6.77662 20.9303 L -6.84466 20.9081 L -6.91262 20.8858 L -6.98051 20.8632 L -7.04833 20.8404 L -7.11607 20.8173 L -7.18374 20.7941 L -7.25133 20.7706 L -7.48314 20.6882 L -7.55038 20.6638 L -7.61755 20.6391 L -7.68464 20.6142 L -7.75164 20.5891 L -7.81856 20.5638 L -7.8854 20.5383 L -7.95216 20.5125 L -8.01883 20.4865 L -8.08541 20.4604 L -8.15192 20.4339 L -8.21833 20.4073 L -8.28466 20.3805 L -8.3509 20.3534 L -8.41705 20.3262 L -8.48312 20.2987 L -8.54909 20.271 L -8.61497 20.2431 L -8.68076 20.215 L -8.74646 20.1866 L -8.81207 20.1581 L -8.87759 20.1293 L -8.94301 20.1003 L -8.95122 20.0183 L -8.95941 19.9362 L -8.96756 19.8541 L -8.97568 19.7718 L -8.98377 19.6896 L -8.99183 19.6072 L -8.99985 19.5247 L -9.00784 19.4422 L -9.01579 19.3596 L -9.02371 19.277 L -9.0316 19.1942 L -9.03944 19.1114 L -9.04725 19.0285 L -9.05503 18.9456 L -9.06276 18.8625 L -9.07046 18.7794 L -9.07812 18.6962 L -9.08574 18.6129 L -9.09332 18.5295 L -9.10086 18.446 L -9.10836 18.3625 L -9.11582 18.2789 L -9.12323 18.1952 L -9.1306 18.1114 L -9.13793 18.0275 L -9.14522 17.9435 L -9.15246 17.8595 L -9.15965 17.7753 L -9.1668 17.6911 L -9.1668 17.6911 L -9.23973 17.7338 L -9.31262 17.7765 L -9.38547 17.8191 L -9.45827 17.8615 L -9.53102 17.9039 L -9.60373 17.9462 L -9.67639 17.9884 L -9.749 18.0306 L -9.82158 18.0726 L -9.89411 18.1146 L -9.96659 18.1565 L -10.039 18.1983 L -10.1114 18.24 L -10.1838 18.2816 L -10.2561 18.3232 L -10.3284 18.3647 L -10.4006 18.4061 L -10.4728 18.4475 L -10.5449 18.4888 L -10.617 18.53 L -10.6891 18.5711 L -10.7611 18.6121 L -10.8331 18.6531 L -10.905 18.694 L -10.9769 18.7349 L -11.0488 18.7757 L -11.1206 18.8164 L -11.1924 18.857 L -11.2641 18.8976 L -11.3255 18.8609 L -11.3868 18.824 L -11.4479 18.7868 L -11.509 18.7495 L -11.5699 18.712 L -11.6307 18.6742 L -11.6914 18.6363 L -11.7519 18.5982 L -11.8123 18.5599 L -11.8726 18.5213 L -11.9328 18.4826 L -11.9929 18.4437 L -12.0528 18.4046 L -12.1126 18.3653 L -12.1723 18.3258 L -12.2318 18.2861 L -12.2912 18.2463 L -12.3505 18.2062 L -12.4096 18.1659 L -12.4686 18.1255 L -12.5275 18.0848 L -12.5863 18.044 L -12.7873 17.9021 L -12.8454 17.8604 L -12.9034 17.8186 L -12.9613 17.7765 L -13.0191 17.7343 L -13.0767 17.6918 L -13.1341 17.6492 L -13.1915 17.6064 L -13.2487 17.5634 L -13.3057 17.5202 L -13.3626 17.4768 L -13.4194 17.4333 L -13.476 17.3896 L -13.5325 17.3456 L -13.5889 17.3015 L -13.6451 17.2572 L -13.7011 17.2128 L -13.757 17.1681 L -13.8128 17.1233 L -13.8684 17.0783 L -13.9239 17.0331 L -13.9792 16.9877 L -14.0344 16.9421 L -14.0202 16.861 L -14.0059 16.7797 L -13.9916 16.6984 L -13.9772 16.617 L -13.9628 16.5356 L -13.9483 16.4541 L -13.9338 16.3726 L -13.9193 16.291 L -13.9046 16.2093 L -13.89 16.1276 L -13.8752 16.0458 L -13.8604 15.9639 L -13.8456 15.882 L -13.8307 15.8 L -13.8157 15.7179 L -13.8007 15.6358 L -13.7856 15.5536 L -13.7705 15.4714 L -13.7553 15.389 L -13.7401 15.3066 L -13.7247 15.2242 L -13.7094 15.1416 L -13.6939 15.059 L -13.6784 14.9764 L -13.6628 14.8936 L -13.6472 14.8108 L -13.6315 14.7279 L -13.6157 14.6449 L -13.5999 14.5619 L -13.5999 14.5619 L -13.6816 14.5834 L -13.7633 14.6048 L -13.845 14.6261 L -13.9265 14.6474 L -14.008 14.6685 L -14.0894 14.6897 L -14.1708 14.7107 L -14.2521 14.7317 L -14.3333 14.7526 L -14.4145 14.7734 L -14.4956 14.7942 L -14.5766 14.8149 L -14.6576 14.8356 L -14.7385 14.8562 L -14.8193 14.8767 L -14.9001 14.8971 L -14.9808 14.9175 L -15.0615 14.9379 L -15.1421 14.9582 L -15.2226 14.9784 L -15.3031 14.9985 L -15.3835 15.0186 L -15.4639 15.0387 L -15.5442 15.0587 L -15.6245 15.0786 L -15.7047 15.0985 L -15.7848 15.1183 L -15.8649 15.1381 L -15.9449 15.1578 L -15.9941 15.1059 L -16.0432 15.0538 L -16.092 15.0015 L -16.1407 14.9491 L -16.1893 14.8965 L -16.2376 14.8438 L -16.2858 14.7909 L -16.3339 14.7379 L -16.3817 14.6847 L -16.4294 14.6313 L -16.4769 14.5778 L -16.5242 14.5241 L -16.5714 14.4703 L -16.6183 14.4164 L -16.6651 14.3622 L -16.7117 14.308 L -16.7582 14.2535 L -16.8045 14.1989 L -16.8506 14.1442 L -16.8965 14.0893 L -16.9422 14.0343 L -16.9878 13.9791 L -17.143 13.7883 L -17.1878 13.7325 L -17.2323 13.6765 L -17.2767 13.6204 L -17.3209 13.5641 L -17.365 13.5077 L -17.4088 13.4512 L -17.4524 13.3945 L -17.4959 13.3376 L -17.5392 13.2807 L -17.5823 13.2236 L -17.6252 13.1663 L -17.6679 13.1089 L -17.7105 13.0514 L -17.7528 12.9937 L -17.795 12.9359 L -17.837 12.878 L -17.8788 12.8199 L -17.9204 12.7617 L -17.9618 12.7033 L -18.003 12.6448 L -18.044 12.5862 L -18.0849 12.5275 L -18.0493 12.4531 L -18.0136 12.3787 L -17.9779 12.3043 L -17.9421 12.2298 L -17.9063 12.1553 L -17.8704 12.0807 L -17.8344 12.0061 L -17.7983 11.9315 L -17.7622 11.8568 L -17.726 11.782 L -17.6898 11.7073 L -17.6535 11.6324 L -17.6171 11.5575 L -17.5806 11.4826 L -17.5441 11.4076 L -17.5074 11.3326 L -17.4708 11.2575 L -17.434 11.1824 L -17.3971 11.1072 L -17.3602 11.032 L -17.3232 10.9567 L -17.2861 10.8814 L -17.249 10.806 L -17.2118 10.7306 L -17.1744 10.6551 L -17.137 10.5796 L -17.0995 10.504 L -17.062 10.4284 L -17.0243 10.3527 L -17.0243 10.3527 L -17.1088 10.3513 L -17.1933 10.3499 L -17.2776 10.3484 L -17.3619 10.3469 L -17.4461 10.3453 L -17.5302 10.3436 L -17.6142 10.342 L -17.6981 10.3402 L -17.782 10.3384 L -17.8658 10.3366 L -17.9495 10.3347 L -18.0331 10.3328 L -18.1166 10.3309 L -18.2001 10.3289 L -18.2835 10.3268 L -18.3668 10.3247 L -18.45 10.3226 L -18.5332 10.3204 L -18.6162 10.3182 L -18.6992 10.3159 L -18.7822 10.3136 L -18.8651 10.3113 L -18.9479 10.3089 L -19.0306 10.3065 L -19.1132 10.304 L -19.1958 10.3015 L -19.2783 10.299 L -19.3608 10.2965 L -19.4432 10.2939 L -19.4765 10.2306 L -19.5097 10.1672 L -19.5427 10.1037 L -19.5754 10.04 L -19.608 9.97633 L -19.6403 9.9125 L -19.6725 9.84857 L -19.7044 9.78454 L -19.7361 9.7204 L -19.7676 9.65616 L -19.7989 9.59182 L -19.83 9.52737 L -19.8609 9.46283 L -19.8916 9.39819 L -19.922 9.33344 L -19.9523 9.2686 L -19.9823 9.20366 L -20.0121 9.13862 L -20.0418 9.07349 L -20.0712 9.00825 L -20.1003 8.94293 L -20.1293 8.87751 L -20.2273 8.65187 L -20.2554 8.58603 L -20.2832 8.52011 L -20.3108 8.4541 L -20.3382 8.388 L -20.3654 8.3218 L -20.3923 8.25553 L -20.4191 8.18916 L -20.4456 8.12271 L -20.4719 8.05617 L -20.498 7.98954 L -20.5239 7.92283 L -20.5495 7.85604 L -20.575 7.78917 L -20.6002 7.72221 L -20.6252 7.65517 L -20.65 7.58805 L -20.6745 7.52085 L -20.6989 7.45357 L -20.723 7.38621 L -20.7469 7.31877 L -20.7706 7.25125 L -20.7941 7.18366 L -20.7398 7.12168 L -20.6854 7.05967 L -20.6309 6.99764 L -20.5764 6.93558 L -20.5217 6.8735 L -20.467 6.81139 L -20.4123 6.74926 L -20.3574 6.6871 L -20.3025 6.62492 L -20.2475 6.56271 L -20.1924 6.50047 L -20.1372 6.43821 L -20.082 6.37592 L -20.0266 6.31361 L -19.9712 6.25127 L -19.9157 6.1889 L -19.8601 6.12651 L -19.8045 6.06409 L -19.7487 6.00164 L -19.6929 5.93917 L -19.6369 5.87667 L -19.5809 5.81414 L -19.5248 5.75159 L -19.4686 5.68901 L -19.4123 5.6264 L -19.3559 5.56377 L -19.2994 5.50111 L -19.2428 5.43842 L -19.1861 5.3757 L -19.1861 5.3757 L -19.2671 5.35157 L -19.3481 5.3274 L -19.4289 5.30321 L -19.5096 5.279 L -19.5902 5.25476 L -19.6708 5.23049 L -19.7512 5.2062 L -19.8316 5.18189 L -19.9119 5.15755 L -19.992 5.13319 L -20.0721 5.1088 L -20.1521 5.0844 L -20.232 5.05997 L -20.3119 5.03552 L -20.3916 5.01105 L -20.4712 4.98655 L -20.5508 4.96204 L -20.6303 4.93751 L -20.7097 4.91296 L -20.789 4.88839 L -20.8683 4.86379 L -20.9474 4.83919 L -21.0265 4.81456 L -21.1055 4.78991 L -21.1845 4.76525 L -21.2633 4.74057 L -21.3421 4.71587 L -21.4208 4.69116 L -21.4994 4.66643 L -21.5145 4.59648 L -21.5293 4.52648 L -21.5439 4.45644 L -21.5583 4.38634 L -21.5724 4.31621 L -21.5864 4.24602 L -21.6001 4.17579 L -21.6135 4.10552 L -21.6268 4.0352 L -21.6398 3.96484 L -21.6526 3.89444 L -21.6651 3.824 L -21.6774 3.75352 L -21.6895 3.683 L -21.7014 3.61244 L -21.713 3.54184 L -21.7244 3.4712 L -21.7356 3.40053 L -21.7465 3.32982 L -21.7573 3.25907 L -21.7677 3.18829 L -21.778 3.11748 L -21.8115 2.87376 L -21.8207 2.80281 L -21.8297 2.73182 L -21.8385 2.66081 L -21.847 2.58977 L -21.8553 2.5187 L -21.8634 2.44761 L -21.8713 2.37649 L -21.8789 2.30534 L -21.8863 2.23417 L -21.8934 2.16298 L -21.9003 2.09176 L -21.907 2.02052 L -21.9135 1.94926 L -21.9197 1.87798 L -21.9257 1.80668 L -21.9315 1.73536 L -21.937 1.66403 L -21.9423 1.59267 L -21.9473 1.5213 L -21.9522 1.44991 L -21.9568 1.37851 L -21.9611 1.30709 L -21.8921 1.26206 L -21.823 1.21703 L -21.7538 1.172 L -21.6845 1.12696 L -21.6152 1.08191 L -21.5458 1.03687 L -21.4762 0.991817 L -21.4067 0.946762 L -21.337 0.901703 L -21.2672 0.856641 L -21.1974 0.811576 L -21.1275 0.766508 L -21.0575 0.721436 L -20.9874 0.676362 L -20.9172 0.631284 L -20.8469 0.586204 L -20.7766 0.541122 L -20.7061 0.496037 L -20.6356 0.45095 L -20.565 0.405861 L -20.4942 0.36077 L -20.4234 0.315677 L -20.3525 0.270583 L -20.2815 0.225488 L -20.2104 0.180392 L -20.1392 0.135295 L -20.0679 0.0901968 L -19.9965 0.0450985 L -19.925 8.88178e-16 L -19.925 3.99204e-15 L -19.9965 -0.0450985 L -20.0679 -0.0901968 L -20.1392 -0.135295 L -20.2104 -0.180392 L -20.2815 -0.225488 L -20.3525 -0.270583 L -20.4234 -0.315677 L -20.4942 -0.36077 L -20.565 -0.405861 L -20.6356 -0.45095 L -20.7061 -0.496037 L -20.7766 -0.541122 L -20.8469 -0.586204 L -20.9172 -0.631284 L -20.9874 -0.676362 L -21.0575 -0.721436 L -21.1275 -0.766508 L -21.1974 -0.811576 L -21.2672 -0.856641 L -21.337 -0.901703 L -21.4067 -0.946762 L -21.4762 -0.991817 L -21.5458 -1.03687 L -21.6152 -1.08191 L -21.6845 -1.12696 L -21.7538 -1.172 L -21.823 -1.21703 L -21.8921 -1.26206 L -21.9611 -1.30709 L -21.9568 -1.37851 L -21.9522 -1.44991 L -21.9473 -1.5213 L -21.9423 -1.59267 L -21.937 -1.66403 L -21.9315 -1.73536 L -21.9257 -1.80668 L -21.9197 -1.87798 L -21.9135 -1.94926 L -21.907 -2.02052 L -21.9003 -2.09176 L -21.8934 -2.16298 L -21.8863 -2.23417 L -21.8789 -2.30534 L -21.8713 -2.37649 L -21.8634 -2.44761 L -21.8553 -2.5187 L -21.847 -2.58977 L -21.8385 -2.66081 L -21.8297 -2.73182 L -21.8207 -2.80281 L -21.8115 -2.87376 L -21.778 -3.11748 L -21.7677 -3.18829 L -21.7573 -3.25907 L -21.7465 -3.32982 L -21.7356 -3.40053 L -21.7244 -3.4712 L -21.713 -3.54184 L -21.7014 -3.61244 L -21.6895 -3.683 L -21.6774 -3.75352 L -21.6651 -3.824 L -21.6526 -3.89444 L -21.6398 -3.96484 L -21.6268 -4.0352 L -21.6135 -4.10552 L -21.6001 -4.17579 L -21.5864 -4.24602 L -21.5724 -4.31621 L -21.5583 -4.38634 L -21.5439 -4.45644 L -21.5293 -4.52648 L -21.5145 -4.59648 L -21.4994 -4.66643 L -21.4208 -4.69116 L -21.3421 -4.71587 L -21.2633 -4.74057 L -21.1845 -4.76525 L -21.1055 -4.78991 L -21.0265 -4.81456 L -20.9474 -4.83919 L -20.8683 -4.86379 L -20.789 -4.88839 L -20.7097 -4.91296 L -20.6303 -4.93751 L -20.5508 -4.96204 L -20.4712 -4.98655 L -20.3916 -5.01105 L -20.3119 -5.03552 L -20.232 -5.05997 L -20.1521 -5.0844 L -20.0721 -5.1088 L -19.992 -5.13319 L -19.9119 -5.15755 L -19.8316 -5.18189 L -19.7512 -5.2062 L -19.6708 -5.23049 L -19.5902 -5.25476 L -19.5096 -5.279 L -19.4289 -5.30321 L -19.3481 -5.3274 L -19.2671 -5.35157 L -19.1861 -5.3757 L -19.1861 -5.3757 L -19.2428 -5.43842 L -19.2994 -5.50111 L -19.3559 -5.56377 L -19.4123 -5.6264 L -19.4686 -5.68901 L -19.5248 -5.75159 L -19.5809 -5.81414 L -19.6369 -5.87667 L -19.6929 -5.93917 L -19.7487 -6.00164 L -19.8045 -6.06409 L -19.8601 -6.12651 L -19.9157 -6.1889 L -19.9712 -6.25127 L -20.0266 -6.31361 L -20.082 -6.37592 L -20.1372 -6.43821 L -20.1924 -6.50047 L -20.2475 -6.56271 L -20.3025 -6.62492 L -20.3574 -6.6871 L -20.4123 -6.74926 L -20.467 -6.81139 L -20.5217 -6.8735 L -20.5764 -6.93558 L -20.6309 -6.99764 L -20.6854 -7.05967 L -20.7398 -7.12168 L -20.7941 -7.18366 L -20.7706 -7.25125 L -20.7469 -7.31877 L -20.723 -7.38621 L -20.6989 -7.45357 L -20.6745 -7.52085 L -20.65 -7.58805 L -20.6252 -7.65517 L -20.6002 -7.72221 L -20.575 -7.78917 L -20.5495 -7.85604 L -20.5239 -7.92283 L -20.498 -7.98954 L -20.4719 -8.05617 L -20.4456 -8.12271 L -20.4191 -8.18916 L -20.3923 -8.25553 L -20.3654 -8.3218 L -20.3382 -8.388 L -20.3108 -8.4541 L -20.2832 -8.52011 L -20.2554 -8.58603 L -20.2273 -8.65187 L -20.1293 -8.87751 L -20.1003 -8.94293 L -20.0712 -9.00825 L -20.0418 -9.07349 L -20.0121 -9.13862 L -19.9823 -9.20366 L -19.9523 -9.2686 L -19.922 -9.33344 L -19.8916 -9.39819 L -19.8609 -9.46283 L -19.83 -9.52737 L -19.7989 -9.59182 L -19.7676 -9.65616 L -19.7361 -9.7204 L -19.7044 -9.78454 L -19.6725 -9.84857 L -19.6403 -9.9125 L -19.608 -9.97633 L -19.5754 -10.04 L -19.5427 -10.1037 L -19.5097 -10.1672 L -19.4765 -10.2306 L -19.4432 -10.2939 L -19.3608 -10.2965 L -19.2783 -10.299 L -19.1958 -10.3015 L -19.1132 -10.304 L -19.0306 -10.3065 L -18.9479 -10.3089 L -18.8651 -10.3113 L -18.7822 -10.3136 L -18.6992 -10.3159 L -18.6162 -10.3182 L -18.5332 -10.3204 L -18.45 -10.3226 L -18.3668 -10.3247 L -18.2835 -10.3268 L -18.2001 -10.3289 L -18.1166 -10.3309 L -18.0331 -10.3328 L -17.9495 -10.3347 L -17.8658 -10.3366 L -17.782 -10.3384 L -17.6981 -10.3402 L -17.6142 -10.342 L -17.5302 -10.3436 L -17.4461 -10.3453 L -17.3619 -10.3469 L -17.2776 -10.3484 L -17.1933 -10.3499 L -17.1088 -10.3513 L -17.0243 -10.3527 L -17.0243 -10.3527 L -17.062 -10.4284 L -17.0995 -10.504 L -17.137 -10.5796 L -17.1744 -10.6551 L -17.2118 -10.7306 L -17.249 -10.806 L -17.2861 -10.8814 L -17.3232 -10.9567 L -17.3602 -11.032 L -17.3971 -11.1072 L -17.434 -11.1824 L -17.4708 -11.2575 L -17.5074 -11.3326 L -17.5441 -11.4076 L -17.5806 -11.4826 L -17.6171 -11.5575 L -17.6535 -11.6324 L -17.6898 -11.7073 L -17.726 -11.782 L -17.7622 -11.8568 L -17.7983 -11.9315 L -17.8344 -12.0061 L -17.8704 -12.0807 L -17.9063 -12.1553 L -17.9421 -12.2298 L -17.9779 -12.3043 L -18.0136 -12.3787 L -18.0493 -12.4531 L -18.0849 -12.5275 L -18.044 -12.5862 L -18.003 -12.6448 L -17.9618 -12.7033 L -17.9204 -12.7617 L -17.8788 -12.8199 L -17.837 -12.878 L -17.795 -12.9359 L -17.7528 -12.9937 L -17.7105 -13.0514 L -17.6679 -13.1089 L -17.6252 -13.1663 L -17.5823 -13.2236 L -17.5392 -13.2807 L -17.4959 -13.3376 L -17.4524 -13.3945 L -17.4088 -13.4512 L -17.365 -13.5077 L -17.3209 -13.5641 L -17.2767 -13.6204 L -17.2323 -13.6765 L -17.1878 -13.7325 L -17.143 -13.7883 L -16.9878 -13.9791 L -16.9422 -14.0343 L -16.8965 -14.0893 L -16.8506 -14.1442 L -16.8045 -14.1989 L -16.7582 -14.2535 L -16.7117 -14.308 L -16.6651 -14.3622 L -16.6183 -14.4164 L -16.5714 -14.4703 L -16.5242 -14.5241 L -16.4769 -14.5778 L -16.4294 -14.6313 L -16.3817 -14.6847 L -16.3339 -14.7379 L -16.2858 -14.7909 L -16.2376 -14.8438 L -16.1893 -14.8965 L -16.1407 -14.9491 L -16.092 -15.0015 L -16.0432 -15.0538 L -15.9941 -15.1059 L -15.9449 -15.1578 L -15.8649 -15.1381 L -15.7848 -15.1183 L -15.7047 -15.0985 L -15.6245 -15.0786 L -15.5442 -15.0587 L -15.4639 -15.0387 L -15.3835 -15.0186 L -15.3031 -14.9985 L -15.2226 -14.9784 L -15.1421 -14.9582 L -15.0615 -14.9379 L -14.9808 -14.9175 L -14.9001 -14.8971 L -14.8193 -14.8767 L -14.7385 -14.8562 L -14.6576 -14.8356 L -14.5766 -14.8149 L -14.4956 -14.7942 L -14.4145 -14.7734 L -14.3333 -14.7526 L -14.2521 -14.7317 L -14.1708 -14.7107 L -14.0894 -14.6897 L -14.008 -14.6685 L -13.9265 -14.6474 L -13.845 -14.6261 L -13.7633 -14.6048 L -13.6816 -14.5834 L -13.5999 -14.5619 L -13.5999 -14.5619 L -13.6157 -14.6449 L -13.6315 -14.7279 L -13.6472 -14.8108 L -13.6628 -14.8936 L -13.6784 -14.9764 L -13.6939 -15.059 L -13.7094 -15.1416 L -13.7247 -15.2242 L -13.7401 -15.3066 L -13.7553 -15.389 L -13.7705 -15.4714 L -13.7856 -15.5536 L -13.8007 -15.6358 L -13.8157 -15.7179 L -13.8307 -15.8 L -13.8456 -15.882 L -13.8604 -15.9639 L -13.8752 -16.0458 L -13.89 -16.1276 L -13.9046 -16.2093 L -13.9193 -16.291 L -13.9338 -16.3726 L -13.9483 -16.4541 L -13.9628 -16.5356 L -13.9772 -16.617 L -13.9916 -16.6984 L -14.0059 -16.7797 L -14.0202 -16.861 L -14.0344 -16.9421 L -13.9792 -16.9877 L -13.9239 -17.0331 L -13.8684 -17.0783 L -13.8128 -17.1233 L -13.757 -17.1681 L -13.7011 -17.2128 L -13.6451 -17.2572 L -13.5889 -17.3015 L -13.5325 -17.3456 L -13.476 -17.3896 L -13.4194 -17.4333 L -13.3626 -17.4768 L -13.3057 -17.5202 L -13.2487 -17.5634 L -13.1915 -17.6064 L -13.1341 -17.6492 L -13.0767 -17.6918 L -13.0191 -17.7343 L -12.9613 -17.7765 L -12.9034 -17.8186 L -12.8454 -17.8604 L -12.7873 -17.9021 L -12.5863 -18.044 L -12.5275 -18.0848 L -12.4686 -18.1255 L -12.4096 -18.1659 L -12.3505 -18.2062 L -12.2912 -18.2463 L -12.2318 -18.2861 L -12.1723 -18.3258 L -12.1126 -18.3653 L -12.0528 -18.4046 L -11.9929 -18.4437 L -11.9328 -18.4826 L -11.8726 -18.5213 L -11.8123 -18.5599 L -11.7519 -18.5982 L -11.6914 -18.6363 L -11.6307 -18.6742 L -11.5699 -18.712 L -11.509 -18.7495 L -11.4479 -18.7868 L -11.3868 -18.824 L -11.3255 -18.8609 L -11.2641 -18.8976 L -11.1924 -18.857 L -11.1206 -18.8164 L -11.0488 -18.7757 L -10.9769 -18.7349 L -10.905 -18.694 L -10.8331 -18.6531 L -10.7611 -18.6121 L -10.6891 -18.5711 L -10.617 -18.53 L -10.5449 -18.4888 L -10.4728 -18.4475 L -10.4006 -18.4061 L -10.3284 -18.3647 L -10.2561 -18.3232 L -10.1838 -18.2816 L -10.1114 -18.24 L -10.039 -18.1983 L -9.96659 -18.1565 L -9.89411 -18.1146 L -9.82158 -18.0726 L -9.749 -18.0306 L -9.67639 -17.9884 L -9.60373 -17.9462 L -9.53102 -17.9039 L -9.45827 -17.8615 L -9.38547 -17.8191 L -9.31262 -17.7765 L -9.23973 -17.7338 L -9.1668 -17.6911 L -9.1668 -17.6911 L -9.15965 -17.7753 L -9.15246 -17.8595 L -9.14522 -17.9435 L -9.13793 -18.0275 L -9.1306 -18.1114 L -9.12323 -18.1952 L -9.11582 -18.2789 L -9.10836 -18.3625 L -9.10086 -18.446 L -9.09332 -18.5295 L -9.08574 -18.6129 L -9.07812 -18.6962 L -9.07046 -18.7794 L -9.06276 -18.8625 L -9.05503 -18.9456 L -9.04725 -19.0285 L -9.03944 -19.1114 L -9.0316 -19.1942 L -9.02371 -19.277 L -9.01579 -19.3596 L -9.00784 -19.4422 L -8.99985 -19.5247 L -8.99183 -19.6072 L -8.98377 -19.6896 L -8.97568 -19.7718 L -8.96756 -19.8541 L -8.95941 -19.9362 L -8.95122 -20.0183 L -8.94301 -20.1003 L -8.87759 -20.1293 L -8.81207 -20.1581 L -8.74646 -20.1866 L -8.68076 -20.215 L -8.61497 -20.2431 L -8.54909 -20.271 L -8.48312 -20.2987 L -8.41705 -20.3262 L -8.3509 -20.3534 L -8.28466 -20.3805 L -8.21833 -20.4073 L -8.15192 -20.4339 L -8.08541 -20.4604 L -8.01883 -20.4865 L -7.95216 -20.5125 L -7.8854 -20.5383 L -7.81856 -20.5638 L -7.75164 -20.5891 L -7.68464 -20.6142 L -7.61755 -20.6391 L -7.55038 -20.6638 L -7.48314 -20.6882 L -7.25133 -20.7706 L -7.18374 -20.7941 L -7.11607 -20.8173 L -7.04833 -20.8404 L -6.98051 -20.8632 L -6.91262 -20.8858 L -6.84466 -20.9081 L -6.77662 -20.9303 L -6.70851 -20.9522 L -6.64033 -20.9739 L -6.57209 -20.9954 L -6.50377 -21.0167 L -6.43538 -21.0377 L -6.36692 -21.0585 L -6.2984 -21.0791 L -6.22981 -21.0995 L -6.16115 -21.1197 L -6.09243 -21.1396 L -6.02365 -21.1593 L -5.9548 -21.1788 L -5.88589 -21.198 L -5.81691 -21.2171 L -5.74787 -21.2359 L -5.68974 -21.1774 L -5.63159 -21.1189 L -5.57342 -21.0603 L -5.51523 -21.0017 L -5.45702 -20.943 L -5.39879 -20.8841 L -5.34054 -20.8253 L -5.28227 -20.7663 L -5.22398 -20.7073 L -5.16567 -20.6481 L -5.10734 -20.5889 L -5.04899 -20.5296 L -4.99062 -20.4703 L -4.93222 -20.4108 L -4.87381 -20.3513 L -4.81538 -20.2916 L -4.75692 -20.2319 L -4.69845 -20.1721 L -4.63995 -20.1122 L -4.58144 -20.0523 L -4.5229 -19.9922 L -4.46434 -19.932 L -4.40576 -19.8718 L -4.34717 -19.8114 L -4.28855 -19.751 L -4.22991 -19.6904 L -4.17125 -19.6298 L -4.11256 -19.5691 L -4.05386 -19.5083 L -4.05386 -19.5083 L -4.02425 -19.5874 L -3.99462 -19.6665 L -3.96498 -19.7455 L -3.93531 -19.8244 L -3.90562 -19.9032 L -3.87592 -19.9819 L -3.84619 -20.0605 L -3.81645 -20.139 L -3.78669 -20.2174 L -3.75692 -20.2957 L -3.72712 -20.374 L -3.69732 -20.4521 L -3.66749 -20.5302 L -3.63765 -20.6081 L -3.60779 -20.686 L -3.57792 -20.7638 L -3.54804 -20.8415 L -3.51814 -20.9192 L -3.48822 -20.9967 L -3.4583 -21.0742 L -3.42835 -21.1515 L -3.3984 -21.2288 L -3.36843 -21.3061 L -3.33845 -21.3832 L -3.30846 -21.4603 L -3.27846 -21.5372 L -3.24844 -21.6142 L -3.21841 -21.691 L -3.18838 -21.7677 L -3.11756 -21.778 L -3.04672 -21.788 L -2.97584 -21.7978 L -2.90493 -21.8074 L -2.83399 -21.8167 L -2.76302 -21.8258 L -2.69202 -21.8347 L -2.62099 -21.8433 L -2.54993 -21.8517 L -2.47885 -21.8599 L -2.40774 -21.8678 L -2.33661 -21.8756 L -2.26545 -21.883 L -2.19427 -21.8903 L -2.12306 -21.8973 L -2.05183 -21.9041 L -1.98058 -21.9107 L -1.90931 -21.917 L -1.83802 -21.9231 L -1.7667 -21.9289 L -1.69538 -21.9346 L -1.62403 -21.94 L -1.37859 -21.9568 L -1.30717 -21.9611 L -1.23574 -21.9653 L -1.1643 -21.9692 L -1.09284 -21.9728 L -1.02137 -21.9763 L -0.94989 -21.9795 L -0.8784 -21.9825 L -0.806901 -21.9852 L -0.735393 -21.9877 L -0.663878 -21.99 L -0.592355 -21.992 L -0.520826 -21.9938 L -0.449292 -21.9954 L -0.377753 -21.9968 L -0.30621 -21.9979 L -0.234664 -21.9987 L -0.163115 -21.9994 L -0.0915645 -21.9998 L -0.020013 -22 L 0.0515387 -21.9999 L 0.12309 -21.9997 L 0.19464 -21.9991 L 0.23485 -21.9272 L 0.275059 -21.8552 L 0.315267 -21.7831 L 0.355474 -21.7109 L 0.39568 -21.6386 L 0.435884 -21.5663 L 0.476087 -21.4939 L 0.516288 -21.4214 L 0.556486 -21.3488 L 0.596683 -21.2761 L 0.636878 -21.2034 L 0.677069 -21.1305 L 0.717258 -21.0576 L 0.757445 -20.9846 L 0.797628 -20.9115 L 0.837807 -20.8383 L 0.877983 -20.7651 L 0.918156 -20.6917 L 0.958324 -20.6183 L 0.998488 -20.5447 L 1.03865 -20.4711 L 1.0788 -20.3974 L 1.11895 -20.3235 L 1.1591 -20.2496 L 1.19924 -20.1756 L 1.23937 -20.1015 L 1.2795 -20.0273 L 1.31962 -19.953 L 1.35973 -19.8786 L 1.35973 -19.8786 L 1.4096 -19.9468 L 1.45947 -20.015 L 1.50933 -20.083 L 1.55918 -20.151 L 1.60902 -20.2188 L 1.65886 -20.2866 L 1.70869 -20.3543 L 1.75851 -20.4218 L 1.80832 -20.4893 L 1.85812 -20.5567 L 1.90792 -20.624 L 1.9577 -20.6912 L 2.00748 -20.7583 L 2.05725 -20.8254 L 2.10701 -20.8923 L 2.15677 -20.9592 L 2.20651 -21.0259 L 2.25625 -21.0926 L 2.30597 -21.1592 L 2.35569 -21.2257 L 2.4054 -21.2921 L 2.4551 -21.3585 L 2.50478 -21.4248 L 2.55446 -21.491 L 2.60414 -21.5571 L 2.6538 -21.6231 L 2.70345 -21.6891 L 2.75309 -21.7549 L 2.80272 -21.8207 L 2.87368 -21.8115 L 2.9446 -21.802 L 3.01549 -21.7924 L 3.08635 -21.7824 L 3.15718 -21.7723 L 3.22797 -21.7619 L 3.29873 -21.7513 L 3.36946 -21.7404 L 3.44015 -21.7294 L 3.5108 -21.7181 L 3.58142 -21.7065 L 3.652 -21.6948 L 3.72254 -21.6828 L 3.79304 -21.6706 L 3.8635 -21.6581 L 3.93392 -21.6454 L 4.00429 -21.6325 L 4.07463 -21.6194 L 4.14492 -21.606 L 4.21517 -21.5924 L 4.28537 -21.5786 L 4.35553 -21.5645 L 4.59639 -21.5145 L 4.66634 -21.4994 L 4.73624 -21.4841 L 4.80609 -21.4686 L 4.87589 -21.4529 L 4.94563 -21.4369 L 5.01533 -21.4207 L 5.08497 -21.4043 L 5.15456 -21.3876 L 5.22409 -21.3707 L 5.29357 -21.3536 L 5.36299 -21.3363 L 5.43235 -21.3188 L 5.50166 -21.301 L 5.57091 -21.283 L 5.6401 -21.2647 L 5.70923 -21.2463 L 5.7783 -21.2276 L 5.84731 -21.2087 L 5.91626 -21.1896 L 5.98514 -21.1702 L 6.05396 -21.1506 L 6.12272 -21.1308 L 6.14203 -21.0507 L 6.16131 -20.9705 L 6.18058 -20.8902 L 6.19982 -20.8099 L 6.21904 -20.7295 L 6.23823 -20.6489 L 6.25741 -20.5684 L 6.27656 -20.4877 L 6.29568 -20.407 L 6.31478 -20.3262 L 6.33386 -20.2453 L 6.35291 -20.1643 L 6.37194 -20.0832 L 6.39094 -20.0021 L 6.40991 -19.9209 L 6.42886 -19.8396 L 6.44777 -19.7582 L 6.46666 -19.6767 L 6.48553 -19.5951 L 6.50436 -19.5135 L 6.52316 -19.4317 L 6.54194 -19.3499 L 6.56068 -19.268 L 6.57939 -19.186 L 6.59808 -19.1039 L 6.61672 -19.0217 L 6.63534 -18.9394 L 6.65393 -18.857 L 6.67248 -18.7745 L 6.67248 -18.7745 L 6.73892 -18.8268 L 6.80532 -18.879 L 6.87169 -18.9311 L 6.93803 -18.9831 L 7.00433 -19.035 L 7.0706 -19.0868 L 7.13684 -19.1385 L 7.20304 -19.1901 L 7.26921 -19.2416 L 7.33535 -19.2931 L 7.40146 -19.3445 L 7.46753 -19.3957 L 7.53357 -19.4469 L 7.59958 -19.4981 L 7.66555 -19.5491 L 7.7315 -19.6 L 7.79741 -19.6509 L 7.86329 -19.7017 L 7.92914 -19.7524 L 7.99496 -19.803 L 8.06075 -19.8536 L 8.12651 -19.9041 L 8.19223 -19.9545 L 8.25793 -20.0048 L 8.32359 -20.0551 L 8.38923 -20.1053 L 8.45483 -20.1554 L 8.52041 -20.2054 L 8.58596 -20.2554 L 8.65179 -20.2274 L 8.71753 -20.1991 L 8.78318 -20.1707 L 8.84873 -20.142 L 8.91419 -20.1131 L 8.97956 -20.084 L 9.04483 -20.0547 L 9.11001 -20.0252 L 9.17509 -19.9954 L 9.24008 -19.9655 L 9.30496 -19.9353 L 9.36975 -19.905 L 9.43444 -19.8744 L 9.49903 -19.8436 L 9.56351 -19.8126 L 9.6279 -19.7814 L 9.69219 -19.75 L 9.75637 -19.7183 L 9.82045 -19.6865 L 9.88442 -19.6545 L 9.94829 -19.6222 L 10.0121 -19.5898 L 10.2305 -19.4766 L 10.2938 -19.4432 L 10.357 -19.4096 L 10.42 -19.3758 L 10.483 -19.3418 L 10.5458 -19.3076 L 10.6086 -19.2732 L 10.6712 -19.2386 L 10.7337 -19.2038 L 10.7961 -19.1688 L 10.8584 -19.1336 L 10.9206 -19.0982 L 10.9826 -19.0626 L 11.0446 -19.0268 L 11.1064 -18.9907 L 11.1681 -18.9545 L 11.2297 -18.9181 L 11.2912 -18.8815 L 11.3525 -18.8446 L 11.4137 -18.8076 L 11.4749 -18.7704 L 11.5358 -18.733 L 11.5967 -18.6954 L 11.5937 -18.613 L 11.5906 -18.5306 L 11.5875 -18.4481 L 11.5844 -18.3655 L 11.5812 -18.2829 L 11.5779 -18.2002 L 11.5746 -18.1174 L 11.5713 -18.0346 L 11.568 -17.9517 L 11.5645 -17.8687 L 11.5611 -17.7857 L 11.5576 -17.7025 L 11.554 -17.6194 L 11.5504 -17.5361 L 11.5468 -17.4528 L 11.5431 -17.3694 L 11.5394 -17.2859 L 11.5356 -17.2023 L 11.5317 -17.1187 L 11.5278 -17.035 L 11.5239 -16.9512 L 11.5199 -16.8674 L 11.5158 -16.7834 L 11.5117 -16.6994 L 11.5076 -16.6153 L 11.5033 -16.5311 L 11.4991 -16.4469 L 11.4947 -16.3625 L 11.4904 -16.2781 L 11.4904 -16.2781 L 11.5684 -16.3105 L 11.6465 -16.3429 L 11.7244 -16.3751 L 11.8023 -16.4073 L 11.8802 -16.4393 L 11.958 -16.4713 L 12.0357 -16.5033 L 12.1134 -16.5351 L 12.191 -16.5669 L 12.2686 -16.5986 L 12.3461 -16.6302 L 12.4235 -16.6618 L 12.5009 -16.6933 L 12.5783 -16.7247 L 12.6556 -16.756 L 12.7328 -16.7873 L 12.81 -16.8185 L 12.8872 -16.8496 L 12.9642 -16.8807 L 13.0413 -16.9117 L 13.1183 -16.9426 L 13.1952 -16.9735 L 13.2721 -17.0043 L 13.3489 -17.035 L 13.4257 -17.0657 L 13.5025 -17.0963 L 13.5792 -17.1269 L 13.6558 -17.1574 L 13.7324 -17.1878 L 13.7882 -17.1431 L 13.8439 -17.0981 L 13.8995 -17.053 L 13.9548 -17.0077 L 14.0101 -16.9622 L 14.0652 -16.9166 L 14.1201 -16.8707 L 14.1749 -16.8247 L 14.2296 -16.7785 L 14.2841 -16.7322 L 14.3384 -16.6856 L 14.3926 -16.6389 L 14.4466 -16.592 L 14.5005 -16.5449 L 14.5542 -16.4977 L 14.6078 -16.4503 L 14.6613 -16.4027 L 14.7145 -16.3549 L 14.7676 -16.307 L 14.8206 -16.2588 L 14.8734 -16.2106 L 14.926 -16.1621 L 15.1058 -15.9942 L 15.1578 -15.945 L 15.2095 -15.8956 L 15.2612 -15.846 L 15.3126 -15.7963 L 15.3639 -15.7464 L 15.415 -15.6964 L 15.466 -15.6462 L 15.5168 -15.5958 L 15.5675 -15.5452 L 15.6179 -15.4945 L 15.6682 -15.4436 L 15.7184 -15.3926 L 15.7684 -15.3414 L 15.8182 -15.29 L 15.8678 -15.2385 L 15.9173 -15.1868 L 15.9666 -15.135 L 16.0158 -15.083 L 16.0647 -15.0308 L 16.1135 -14.9785 L 16.1622 -14.926 L 16.2106 -14.8733 L 16.1855 -14.7948 L 16.1603 -14.7163 L 16.135 -14.6377 L 16.1097 -14.559 L 16.0844 -14.4803 L 16.0589 -14.4016 L 16.0334 -14.3228 L 16.0079 -14.2439 L 15.9823 -14.165 L 15.9566 -14.086 L 15.9309 -14.007 L 15.9051 -13.9279 L 15.8792 -13.8487 L 15.8533 -13.7695 L 15.8273 -13.6903 L 15.8013 -13.611 L 15.7751 -13.5316 L 15.7489 -13.4522 L 15.7227 -13.3727 L 15.6963 -13.2931 L 15.6699 -13.2135 L 15.6435 -13.1339 L 15.6169 -13.0541 L 15.5903 -12.9743 L 15.5636 -12.8945 L 15.5368 -12.8146 L 15.51 -12.7346 L 15.4831 -12.6545 L 15.456 -12.5744 L 15.456 -12.5744 L 15.54 -12.5846 L 15.6238 -12.5946 L 15.7076 -12.6047 L 15.7913 -12.6146 L 15.8749 -12.6245 L 15.9584 -12.6343 L 16.0419 -12.6441 L 16.1253 -12.6538 L 16.2086 -12.6635 L 16.2918 -12.6731 L 16.375 -12.6826 L 16.4581 -12.6921 L 16.5411 -12.7015 L 16.6241 -12.7109 L 16.707 -12.7202 L 16.7898 -12.7295 L 16.8726 -12.7387 L 16.9552 -12.7479 L 17.0379 -12.757 L 17.1204 -12.7661 L 17.2029 -12.7751 L 17.2853 -12.784 L 17.3676 -12.793 L 17.4499 -12.8018 L 17.5321 -12.8107 L 17.6143 -12.8194 L 17.6964 -12.8282 L 17.7784 -12.8368 L 17.8604 -12.8455 L 17.9021 -12.7873 L 17.9436 -12.729 L 17.9849 -12.6706 L 18.026 -12.6121 L 18.0669 -12.5534 L 18.1076 -12.4945 L 18.1482 -12.4356 L 18.1885 -12.3765 L 18.2287 -12.3173 L 18.2687 -12.2579 L 18.3084 -12.1984 L 18.348 -12.1388 L 18.3874 -12.0791 L 18.4266 -12.0192 L 18.4656 -11.9592 L 18.5044 -11.8991 L 18.543 -11.8389 L 18.5814 -11.7785 L 18.6196 -11.718 L 18.6576 -11.6574 L 18.6954 -11.5966 L 18.733 -11.5358 L 18.8608 -11.3256 L 18.8976 -11.2642 L 18.9341 -11.2026 L 18.9704 -11.141 L 19.0066 -11.0793 L 19.0425 -11.0174 L 19.0782 -10.9554 L 19.1138 -10.8933 L 19.1491 -10.8311 L 19.1842 -10.7687 L 19.2192 -10.7063 L 19.2539 -10.6437 L 19.2884 -10.581 L 19.3227 -10.5182 L 19.3568 -10.4553 L 19.3907 -10.3923 L 19.4244 -10.3292 L 19.4579 -10.266 L 19.4912 -10.2026 L 19.5243 -10.1392 L 19.5571 -10.0756 L 19.5898 -10.012 L 19.6223 -9.94822 L 19.5769 -9.87941 L 19.5314 -9.81058 L 19.4859 -9.74171 L 19.4403 -9.6728 L 19.3947 -9.60386 L 19.3489 -9.53488 L 19.3031 -9.46587 L 19.2572 -9.39682 L 19.2113 -9.32773 L 19.1653 -9.25861 L 19.1192 -9.18945 L 19.073 -9.12026 L 19.0267 -9.05103 L 18.9804 -8.98176 L 18.934 -8.91246 L 18.8875 -8.84311 L 18.8409 -8.77373 L 18.7943 -8.70431 L 18.7475 -8.63486 L 18.7007 -8.56536 L 18.6538 -8.49583 L 18.6068 -8.42626 L 18.5598 -8.35665 L 18.5126 -8.28699 L 18.4653 -8.2173 L 18.418 -8.14757 L 18.3706 -8.0778 L 18.323 -8.00799 L 18.2754 -7.93814 L 18.2754 -7.93814 L 18.359 -7.92526 L 18.4424 -7.91234 L 18.5258 -7.89939 L 18.6091 -7.88639 L 18.6923 -7.87335 L 18.7754 -7.86028 L 18.8584 -7.84717 L 18.9413 -7.83402 L 19.0241 -7.82084 L 19.1069 -7.80763 L 19.1895 -7.79437 L 19.2721 -7.78109 L 19.3546 -7.76777 L 19.437 -7.75441 L 19.5193 -7.74103 L 19.6016 -7.72761 L 19.6837 -7.71416 L 19.7658 -7.70068 L 19.8478 -7.68717 L 19.9298 -7.67363 L 20.0116 -7.66006 L 20.0934 -7.64646 L 20.1751 -7.63283 L 20.2567 -7.61917 L 20.3383 -7.60548 L 20.4198 -7.59177 L 20.5012 -7.57803 L 20.5825 -7.56426 L 20.6637 -7.55046 L 20.6882 -7.48322 L 20.7124 -7.41589 L 20.7364 -7.34849 L 20.7602 -7.28101 L 20.7838 -7.21345 L 20.8071 -7.14582 L 20.8303 -7.07811 L 20.8532 -7.01032 L 20.8759 -6.94246 L 20.8983 -6.87453 L 20.9206 -6.80653 L 20.9426 -6.73845 L 20.9644 -6.6703 L 20.986 -6.60208 L 21.0074 -6.53379 L 21.0285 -6.46544 L 21.0494 -6.39701 L 21.0701 -6.32852 L 21.0906 -6.25996 L 21.1108 -6.19133 L 21.1309 -6.12264 L 21.1507 -6.05388 L 21.217 -5.81699 L 21.2358 -5.74796 L 21.2544 -5.67886 L 21.2728 -5.6097 L 21.2909 -5.54049 L 21.3088 -5.47121 L 21.3265 -5.40188 L 21.344 -5.33249 L 21.3612 -5.26304 L 21.3782 -5.19354 L 21.395 -5.12399 L 21.4115 -5.05438 L 21.4278 -4.98471 L 21.4439 -4.91499 L 21.4598 -4.84522 L 21.4755 -4.7754 L 21.4909 -4.70553 L 21.5061 -4.63561 L 21.521 -4.56564 L 21.5358 -4.49562 L 21.5503 -4.42556 L 21.5646 -4.35545 L 21.5786 -4.28529 L 21.5163 -4.23128 L 21.454 -4.17726 L 21.3916 -4.12322 L 21.3291 -4.06917 L 21.2665 -4.0151 L 21.2039 -3.96102 L 21.1412 -3.90693 L 21.0784 -3.85282 L 21.0155 -3.79869 L 20.9525 -3.74455 L 20.8895 -3.6904 L 20.8263 -3.63623 L 20.7631 -3.58204 L 20.6998 -3.52784 L 20.6364 -3.47363 L 20.5729 -3.4194 L 20.5094 -3.36516 L 20.4457 -3.3109 L 20.382 -3.25663 L 20.3182 -3.20234 L 20.2542 -3.14804 L 20.1902 -3.09373 L 20.1261 -3.0394 L 20.0619 -2.98505 L 19.9976 -2.93069 L 19.9332 -2.87632 L 19.8687 -2.82194 L 19.8041 -2.76754 L 19.7394 -2.71312 L 19.7394 -2.71312 L 19.8164 -2.67818 L 19.8933 -2.64322 L 19.97 -2.60825 L 20.0467 -2.57327 L 20.1233 -2.53828 L 20.1998 -2.50327 L 20.2762 -2.46825 L 20.3525 -2.43322 L 20.4287 -2.39818 L 20.5048 -2.36313 L 20.5808 -2.32807 L 20.6567 -2.29299 L 20.7326 -2.25791 L 20.8083 -2.22282 L 20.884 -2.18772 L 20.9596 -2.15261 L 21.0351 -2.11749 L 21.1105 -2.08236 L 21.1858 -2.04723 L 21.261 -2.01208 L 21.3362 -1.97693 L 21.4113 -1.94177 L 21.4863 -1.9066 L 21.5612 -1.87143 L 21.636 -1.83625 L 21.7108 -1.80106 L 21.7854 -1.76587 L 21.86 -1.73067 L 21.9346 -1.69546 L 21.94 -1.62411 L 21.9451 -1.55275 L 21.9501 -1.48137 L 21.9548 -1.40997 L 21.9592 -1.33856 L 21.9635 -1.26713 L 21.9675 -1.19569 L 21.9713 -1.12424 L 21.9748 -1.05278 L 21.9781 -0.9813 L 21.9812 -0.909814 L 21.984 -0.838319 L 21.9866 -0.766815 L 21.989 -0.695303 L 21.9912 -0.623784 L 21.9931 -0.552257 L 21.9947 -0.480725 L 21.9962 -0.409188 L 21.9974 -0.337647 L 21.9984 -0.266102 L 21.9991 -0.194554 L 21.9997 -0.123004Z"
id="path1" />
</g>
</svg>
