<?xml version="1.0" encoding="UTF-8" standalone="no"?>
<svg version="1.1">
<g
style="fill:none;stroke:#000000;stroke-opacity:1;stroke-width:0.1">
<path d="M 22.3748 0.101378 L 22.3743 0.172928 L 22.3737 0.244477 L 22.3728 0.316023 L 22.3716 0.387566 L 22.3703 0.459105 L 22.3687 0.530639 L 22.3669 0.602168 L 22.3649 0.67369 L 22.3626 0.745206 L 22.3601 0.816714 L 22.3574 0.888214 L 22.3544 0.959704 L 22.3512 1.03119 L 22.3478 1.10266 L 22.3442 1.17411 L 22.3403 1.24556 L 22.3362 1.317 L 22.3319 1.38842 L 22.3273 1.45982 L 22.3225 1.53121 L 22.3175 1.60259 L 22.3123 1.67395 L 22.238 1.7077 L 22.1636 1.74144 L 22.0891 1.77517 L 22.0146 1.8089 L 21.94 1.84263 L 21.8653 1.87634 L 21.7906 1.91005 L 21.7158 1.94376 L 21.6409 1.97746 L 21.5659 2.01115 L 21.4909 2.04483 L 21.4158 2.07851 L 21.3406 2.11218 L 21.2653 2.14584 L 21.1899 2.1795 L 21.1145 2.21314 L 21.039 2.24678 L 20.9634 2.28041 L 20.8877 2.31403 L 20.812 2.34764 L 20.7361 2.38124 L 20.6602 2.41483 L 20.5842 2.44841 L 20.5081 2.48199 L 20.4319 2.51555 L 20.3557 2.5491 L 20.2793 2.58264 L 20.2029 2.61617 L 20.1263 2.64968 L 20.1263 2.64968 L 20.1916 2.70186 L 20.2567 2.75404 L 20.3218 2.80619 L 20.3868 2.85834 L 20.4517 2.91048 L 20.5165 2.9626 L 20.5812 3.01471 L 20.6459 3.0668 L 20.7104 3.11889 L 20.7749 3.17096 L 20.8393 3.22302 L 20.9036 3.27507 L 20.9678 3.3271 L 21.032 3.37913 L 21.0961 3.43114 L 21.1601 3.48313 L 21.224 3.53512 L 21.2878 3.58709 L 21.3516 3.63905 L 21.4153 3.69099 L 21.4789 3.74293 L 21.5424 3.79485 L 21.6059 3.84676 L 21.6693 3.89865 L 21.7326 3.95053 L 21.7959 4.0024 L 21.8591 4.05426 L 21.9222 4.1061 L 21.9853 4.15793 L 21.9719 4.22822 L 21.9582 4.29846 L 21.9444 4.36866 L 21.9303 4.43881 L 21.916 4.50892 L 21.9015 4.57898 L 21.8867 4.64899 L 21.8717 4.71896 L 21.8565 4.78887 L 21.8411 4.85874 L 21.8254 4.92856 L 21.8096 4.99833 L 21.7935 5.06805 L 21.7772 5.13772 L 21.7606 5.20733 L 21.7439 5.27689 L 21.7269 5.3464 L 21.7097 5.41585 L 21.6922 5.48524 L 21.6746 5.55458 L 21.6567 5.62387 L 21.6386 5.69309 L 21.5861 5.88894 L 21.5672 5.95794 L 21.548 6.02688 L 21.5286 6.09575 L 21.509 6.16457 L 21.4892 6.23332 L 21.4692 6.30201 L 21.4489 6.37063 L 21.4284 6.43919 L 21.4077 6.50768 L 21.3868 6.5761 L 21.3657 6.64446 L 21.3443 6.71275 L 21.3227 6.78097 L 21.3009 6.84912 L 21.2789 6.91721 L 21.2567 6.98522 L 21.2343 7.05316 L 21.2116 7.12102 L 21.1887 7.18882 L 21.1656 7.25654 L 21.1423 7.32419 L 21.1188 7.39176 L 21.0383 7.40512 L 20.9577 7.41846 L 20.877 7.43177 L 20.7963 7.44506 L 20.7155 7.45833 L 20.6347 7.47157 L 20.5537 7.48479 L 20.4727 7.49798 L 20.3917 7.51115 L 20.3105 7.52429 L 20.2293 7.5374 L 20.1481 7.55049 L 20.0667 7.56355 L 19.9853 7.57658 L 19.9038 7.58959 L 19.8222 7.60257 L 19.7406 7.61551 L 19.6589 7.62843 L 19.5771 7.64132 L 19.4952 7.65418 L 19.4133 7.66701 L 19.3312 7.67981 L 19.2491 7.69257 L 19.1669 7.70531 L 19.0847 7.71801 L 19.0023 7.73067 L 18.9199 7.74331 L 18.8374 7.75591 L 18.7548 7.76847 L 18.7548 7.76847 L 18.8043 7.83577 L 18.8537 7.90303 L 18.9031 7.97025 L 18.9523 8.03744 L 19.0015 8.10459 L 19.0507 8.17171 L 19.0997 8.2388 L 19.1486 8.30585 L 19.1975 8.37287 L 19.2463 8.43986 L 19.295 8.50681 L 19.3437 8.57373 L 19.3923 8.64061 L 19.4408 8.70747 L 19.4892 8.77429 L 19.5376 8.84108 L 19.5858 8.90783 L 19.6341 8.97456 L 19.6822 9.04125 L 19.7303 9.10791 L 19.7783 9.17454 L 19.8262 9.24114 L 19.8741 9.3077 L 19.9219 9.37424 L 19.9697 9.44075 L 20.0173 9.50722 L 20.0649 9.57367 L 20.1125 9.64008 L 20.16 9.70646 L 20.1288 9.77088 L 20.0975 9.8352 L 20.0659 9.89942 L 20.0342 9.96354 L 20.0022 10.0276 L 19.9701 10.0915 L 19.9377 10.1553 L 19.9051 10.219 L 19.8723 10.2826 L 19.8393 10.3461 L 19.8062 10.4095 L 19.7728 10.4727 L 19.7392 10.5359 L 19.7054 10.599 L 19.6714 10.662 L 19.6372 10.7248 L 19.6028 10.7875 L 19.5682 10.8502 L 19.5334 10.9127 L 19.4984 10.9751 L 19.4632 11.0374 L 19.4278 11.0996 L 19.3264 11.2752 L 19.2903 11.3369 L 19.2539 11.3986 L 19.2174 11.4601 L 19.1806 11.5215 L 19.1437 11.5827 L 19.1065 11.6439 L 19.0692 11.7049 L 19.0317 11.7659 L 18.994 11.8267 L 18.956 11.8873 L 18.9179 11.9479 L 18.8796 12.0083 L 18.8411 12.0686 L 18.8024 12.1288 L 18.7636 12.1889 L 18.7245 12.2488 L 18.6852 12.3087 L 18.6458 12.3683 L 18.6061 12.4279 L 18.5663 12.4873 L 18.5263 12.5467 L 18.486 12.6058 L 18.4048 12.5979 L 18.3235 12.5899 L 18.2422 12.5819 L 18.1608 12.5739 L 18.0793 12.5658 L 17.9978 12.5576 L 17.9162 12.5494 L 17.8345 12.5412 L 17.7528 12.533 L 17.6711 12.5247 L 17.5892 12.5163 L 17.5073 12.5079 L 17.4254 12.4995 L 17.3434 12.491 L 17.2613 12.4825 L 17.1791 12.4739 L 17.0969 12.4653 L 17.0146 12.4566 L 16.9323 12.4479 L 16.8499 12.4391 L 16.7674 12.4303 L 16.6849 12.4214 L 16.6022 12.4125 L 16.5196 12.4035 L 16.4368 12.3945 L 16.354 12.3854 L 16.2711 12.3763 L 16.1881 12.3671 L 16.1051 12.3579 L 16.1051 12.3579 L 16.1355 12.4357 L 16.1658 12.5134 L 16.1961 12.5911 L 16.2263 12.6688 L 16.2565 12.7464 L 16.2865 12.8239 L 16.3165 12.9014 L 16.3465 12.9789 L 16.3763 13.0563 L 16.4061 13.1336 L 16.4359 13.2109 L 16.4655 13.2881 L 16.4951 13.3653 L 16.5247 13.4424 L 16.5542 13.5195 L 16.5836 13.5965 L 16.613 13.6735 L 16.6423 13.7504 L 16.6715 13.8273 L 16.7007 13.9041 L 16.7298 13.9809 L 16.7589 14.0577 L 16.7879 14.1343 L 16.8169 14.211 L 16.8458 14.2876 L 16.8746 14.3641 L 16.9034 14.4406 L 16.9321 14.5171 L 16.9608 14.5935 L 16.9141 14.6477 L 16.8672 14.7017 L 16.8201 14.7556 L 16.7728 14.8093 L 16.7253 14.8628 L 16.6777 14.9162 L 16.6299 14.9695 L 16.582 15.0226 L 16.5339 15.0755 L 16.4856 15.1283 L 16.4371 15.181 L 16.3885 15.2335 L 16.3397 15.2858 L 16.2907 15.338 L 16.2416 15.39 L 16.1923 15.4418 L 16.1428 15.4935 L 16.0932 15.5451 L 16.0434 15.5965 L 15.9934 15.6477 L 15.9433 15.6988 L 15.893 15.7497 L 15.7497 15.893 L 15.6988 15.9433 L 15.6477 15.9934 L 15.5965 16.0434 L 15.5451 16.0932 L 15.4935 16.1428 L 15.4418 16.1923 L 15.39 16.2416 L 15.338 16.2907 L 15.2858 16.3397 L 15.2335 16.3885 L 15.181 16.4371 L 15.1283 16.4856 L 15.0755 16.5339 L 15.0226 16.582 L 14.9695 16.6299 L 14.9162 16.6777 L 14.8628 16.7253 L 14.8093 16.7728 L 14.7556 16.8201 L 14.7017 16.8672 L 14.6477 16.9141 L 14.5935 16.9608 L 14.5171 16.9321 L 14.4406 16.9034 L 14.3641 16.8746 L 14.2876 16.8458 L 14.211 16.8169 L 14.1343 16.7879 L 14.0577 16.7589 L 13.9809 16.7298 L 13.9041 16.7007 L 13.8273 16.6715 L 13.7504 16.6423 L 13.6735 16.613 L 13.5965 16.5836 L 13.5195 16.5542 L 13.4424 16.5247 L 13.3653 16.4951 L 13.2881 16.4655 L 13.2109 16.4359 L 13.1336 16.4061 L 13.0563 16.3763 L 12.9789 16.3465 L 12.9014 16.3165 L 12.8239 16.2865 L 12.7464 16.2565 L 12.6688 16.2263 L 12.5911 16.1961 L 12.5134 16.1658 L 12.4357 16.1355 L 12.3579 16.1051 L 12.3579 16.1051 L 12.3671 16.1881 L 12.3763 16.2711 L 12.3854 16.354 L 12.3945 16.4368 L 12.4035 16.5196 L 12.4125 16.6022 L 12.4214 16.6849 L 12.4303 16.7674 L 12.4391 16.8499 L 12.4479 16.9323 L 12.4566 17.0146 L 12.4653 17.0969 L 12.4739 17.1791 L 12.4825 17.2613 L 12.491 17.3434 L 12.4995 17.4254 L 12.5079 17.5073 L 12.5163 17.5892 L 12.5247 17.6711 L 12.533 17.7528 L 12.5412 17.8345 L 12.5494 17.9162 L 12.5576 17.9978 L 12.5658 18.0793 L 12.5739 18.1608 L 12.5819 18.2422 L 12.5899 18.3235 L 12.5979 18.4048 L 12.6058 18.486 L 12.5467 18.5263 L 12.4873 18.5663 L 12.4279 18.6061 L 12.3683 18.6458 L 12.3087 18.6852 L 12.2488 18.7245 L 12.1889 18.7636 L 12.1288 18.8024 L 12.0686 18.8411 L 12.0083 18.8796 L 11.9479 18.9179 L 11.8873 18.956 L 11.8267 18.994 L 11.7659 19.0317 L 11.7049 19.0692 L 11.6439 19.1065 L 11.5827 19.1437 L 11.5215 19.1806 L 11.4601 19.2174 L 11.3986 19.2539 L 11.3369 19.2903 L 11.2752 19.3264 L 11.0996 19.4278 L 11.0374 19.4632 L 10.9751 19.4984 L 10.9127 19.5334 L 10.8502 19.5682 L 10.7875 19.6028 L 10.7248 19.6372 L 10.662 19.6714 L 10.599 19.7054 L 10.5359 19.7392 L 10.4727 19.7728 L 10.4095 19.8062 L 10.3461 19.8393 L 10.2826 19.8723 L 10.219 19.9051 L 10.1553 19.9377 L 10.0915 19.9701 L 10.0276 20.0022 L 9.96354 20.0342 L 9.89942 20.0659 L 9.8352 20.0975 L 9.77088 20.1288 L 9.70646 20.16 L 9.64008 20.1125 L 9.57367 20.0649 L 9.50722 20.0173 L 9.44075 19.9697 L 9.37424 19.9219 L 9.3077 19.8741 L 9.24114 19.8262 L 9.17454 19.7783 L 9.10791 19.7303 L 9.04125 19.6822 L 8.97456 19.6341 L 8.90783 19.5858 L 8.84108 19.5376 L 8.77429 19.4892 L 8.70747 19.4408 L 8.64061 19.3923 L 8.57373 19.3437 L 8.50681 19.295 L 8.43986 19.2463 L 8.37287 19.1975 L 8.30585 19.1486 L 8.2388 19.0997 L 8.17171 19.0507 L 8.10459 19.0015 L 8.03744 18.9523 L 7.97025 18.9031 L 7.90303 18.8537 L 7.83577 18.8043 L 7.76847 18.7548 L 7.76847 18.7548 L 7.75591 18.8374 L 7.74331 18.9199 L 7.73067 19.0023 L 7.71801 19.0847 L 7.70531 19.1669 L 7.69257 19.2491 L 7.67981 19.3312 L 7.66701 19.4133 L 7.65418 19.4952 L 7.64132 19.5771 L 7.62843 19.6589 L 7.61551 19.7406 L 7.60257 19.8222 L 7.58959 19.9038 L 7.57658 19.9853 L 7.56355 20.0667 L 7.55049 20.1481 L 7.5374 20.2293 L 7.52429 20.3105 L 7.51115 20.3917 L 7.49798 20.4727 L 7.48479 20.5537 L 7.47157 20.6347 L 7.45833 20.7155 L 7.44506 20.7963 L 7.43177 20.877 L 7.41846 20.9577 L 7.40512 21.0383 L 7.39176 21.1188 L 7.32419 21.1423 L 7.25654 21.1656 L 7.18882 21.1887 L 7.12102 21.2116 L 7.05316 21.2343 L 6.98522 21.2567 L 6.91721 21.2789 L 6.84912 21.3009 L 6.78097 21.3227 L 6.71275 21.3443 L 6.64446 21.3657 L 6.5761 21.3868 L 6.50768 21.4077 L 6.43919 21.4284 L 6.37063 21.4489 L 6.30201 21.4692 L 6.23332 21.4892 L 6.16457 21.509 L 6.09575 21.5286 L 6.02688 21.548 L 5.95794 21.5672 L 5.88894 21.5861 L 5.69309 21.6386 L 5.62387 21.6567 L 5.55458 21.6746 L 5.48524 21.6922 L 5.41585 21.7097 L 5.3464 21.7269 L 5.27689 21.7439 L 5.20733 21.7606 L 5.13772 21.7772 L 5.06805 21.7935 L 4.99833 21.8096 L 4.92856 21.8254 L 4.85874 21.8411 L 4.78887 21.8565 L 4.71896 21.8717 L 4.64899 21.8867 L 4.57898 21.9015 L 4.50892 21.916 L 4.43881 21.9303 L 4.36866 21.9444 L 4.29846 21.9582 L 4.22822 21.9719 L 4.15793 21.9853 L 4.1061 21.9222 L 4.05426 21.8591 L 4.0024 21.7959 L 3.95053 21.7326 L 3.89865 21.6693 L 3.84676 21.6059 L 3.79485 21.5424 L 3.74293 21.4789 L 3.69099 21.4153 L 3.63905 21.3516 L 3.58709 21.2878 L 3.53512 21.224 L 3.48313 21.1601 L 3.43114 21.0961 L 3.37913 21.032 L 3.3271 20.9678 L 3.27507 20.9036 L 3.22302 20.8393 L 3.17096 20.7749 L 3.11889 20.7104 L 3.0668 20.6459 L 3.01471 20.5812 L 2.9626 20.5165 L 2.91048 20.4517 L 2.85834 20.3868 L 2.80619 20.3218 L 2.75404 20.2567 L 2.70186 20.1916 L 2.64968 20.1263 L 2.64968 20.1263 L 2.61617 20.2029 L 2.58264 20.2793 L 2.5491 20.3557 L 2.51555 20.4319 L 2.48199 20.5081 L 2.44841 20.5842 L 2.41483 20.6602 L 2.38124 20.7361 L 2.34764 20.812 L 2.31403 20.8877 L 2.28041 20.9634 L 2.24678 21.039 L 2.21314 21.1145 L 2.1795 21.1899 L 2.14584 21.2653 L 2.11218 21.3406 L 2.07851 21.4158 L 2.04483 21.4909 L 2.01115 21.5659 L 1.97746 21.6409 L 1.94376 21.7158 L 1.91005 21.7906 L 1.87634 21.8653 L 1.84263 21.94 L 1.8089 22.0146 L 1.77517 22.0891 L 1.74144 22.1636 L 1.7077 22.238 L 1.67395 22.3123 L 1.60259 22.3175 L 1.53121 22.3225 L 1.45982 22.3273 L 1.38842 22.3319 L 1.317 22.3362 L 1.24556 22.3403 L 1.17411 22.3442 L 1.10266 22.3478 L 1.03119 22.3512 L 0.959704 22.3544 L 0.888214 22.3574 L 0.816714 22.3601 L 0.745206 22.3626 L 0.67369 22.3649 L 0.602168 22.3669 L 0.530639 22.3687 L 0.459105 22.3703 L 0.387566 22.3716 L 0.316023 22.3728 L 0.244477 22.3737 L 0.172928 22.3743 L 0.101378 22.3748 L -0.101378 22.3748 L -0.172928 22.3743 L -0.244477 22.3737 L -0.316023 22.3728 L -0.387566 22.3716 L -0.459105 22.3703 L -0.530639 22.3687 L -0.602168 22.3669 L -0.67369 22.3649 L -0.745206 22.3626 L -0.816714 22.3601 L -0.888214 22.3574 L -0.959704 22.3544 L -1.03119 22.3512 L -1.10266 22.3478 L -1.17411 22.3442 L -1.24556 22.3403 L -1.317 22.3362 L -1.38842 22.3319 L -1.45982 22.3273 L -1.53121 22.3225 L -1.60259 22.3175 L -1.67395 22.3123 L -1.7077 22.238 L -1.74144 22.1636 L -1.77517 22.0891 L -1.8089 22.0146 L -1.84263 21.94 L -1.87634 21.8653 L -1.91005 21.7906 L -1.94376 21.7158 L -1.97746 21.6409 L -2.01115 21.5659 L -2.04483 21.4909 L -2.07851 21.4158 L -2.11218 21.3406 L -2.14584 21.2653 L -2.1795 21.1899 L -2.21314 21.1145 L -2.24678 21.039 L -2.28041 20.9634 L -2.31403 20.8877 L -2.34764 20.812 L -2.38124 20.7361 L -2.41483 20.6602 L -2.44841 20.5842 L -2.48199 20.5081 L -2.51555 20.4319 L -2.5491 20.3557 L -2.58264 20.2793 L -2.61617 20.2029 L -2.64968 20.1263 L -2.64968 20.1263 L -2.70186 20.1916 L -2.75404 20.2567 L -2.80619 20.3218 L -2.85834 20.3868 L -2.91048 20.4517 L -2.9626 20.5165 L -3.01471 20.5812 L -3.0668 20.6459 L -3.11889 20.7104 L -3.17096 20.7749 L -3.22302 20.8393 L -3.27507 20.9036 L -3.3271 20.9678 L -3.37913 21.032 L -3.43114 21.0961 L -3.48313 21.1601 L -3.53512 21.224 L -3.58709 21.2878 L -3.63905 21.3516 L -3.69099 21.4153 L -3.74293 21.4789 L -3.79485 21.5424 L -3.84676 21.6059 L -3.89865 21.6693 L -3.95053 21.7326 L -4.0024 21.7959 L -4.05426 21.8591 L -4.1061 21.9222 L -4.15793 21.9853 L -4.22822 21.9719 L -4.29846 21.9582 L -4.36866 21.9444 L -4.43881 21.9303 L -4.50892 21.916 L -4.57898 21.9015 L -4.64899 21.8867 L -4.71896 21.8717 L -4.78887 21.8565 L -4.85874 21.8411 L -4.92856 21.8254 L -4.99833 21.8096 L -5.06805 21.7935 L -5.13772 21.7772 L -5.20733 21.7606 L -5.27689 21.7439 L -5.3464 21.7269 L -5.41585 21.7097 L -5.48524 21.6922 L -5.55458 21.6746 L -5.62387 21.6567 L -5.69309 21.6386 L -5.88894 21.5861 L -5.95794 21.5672 L -6.02688 21.548 L -6.09575 21.5286 L -6.16457 21.509 L -6.23332 21.4892 L -6.30201 21.4692 L -6.37063 21.4489 L -6.43919 21.4284 L -6.50768 21.4077 L -6.5761 21.3868 L -6.64446 21.3657 L -6.71275 21.3443 L -6.78097 21.3227 L -6.84912 21.3009 L -6.91721 21.2789 L -6.98522 21.2567 L -7.05316 21.2343 L -7.12102 21.2116 L -7.18882 21.1887 L -7.25654 21.1656 L -7.32419 21.1423 L -7.39176 21.1188 L -7.40512 21.0383 L -7.41846 20.9577 L -7.43177 20.877 L -7.44506 20.7963 L -7.45833 20.7155 L -7.47157 20.6347 L -7.48479 20.5537 L -7.49798 20.4727 L -7.51115 20.3917 L -7.52429 20.3105 L -7.5374 20.2293 L -7.55049 20.1481 L -7.56355 20.0667 L -7.57658 19.9853 L -7.58959 19.9038 L -7.60257 19.8222 L -7.61551 19.7406 L -7.62843 19.6589 L -7.64132 19.5771 L -7.65418 19.4952 L -7.66701 19.4133 L -7.67981 19.3312 L -7.69257 19.2491 L -7.70531 19.1669 L -7.71801 19.0847 L -7.73067 19.0023 L -7.74331 18.9199 L -7.75591 18.8374 L -7.76847 18.7548 L -7.76847 18.7548 L -7.83577 18.8043 L -7.90303 18.8537 L -7.97025 18.9031 L -8.03744 18.9523 L -8.10459 19.0015 L -8.17171 19.0507 L -8.2388 19.0997 L -8.30585 19.1486 L -8.37287 19.1975 L -8.43986 19.2463 L -8.50681 19.295 L -8.57373 19.3437 L -8.64061 19.3923 L -8.70747 19.4408 L -8.77429 19.4892 L -8.84108 19.5376 L -8.90783 19.5858 L -8.97456 19.6341 L -9.04125 19.6822 L -9.10791 19.7303 L -9.17454 19.7783 L -9.24114 19.8262 L -9.3077 19.8741 L -9.37424 19.9219 L -9.44075 19.9697 L -9.50722 20.0173 L -9.57367 20.0649 L -9.64008 20.1125 L -9.70646 20.16 L -9.77088 20.1288 L -9.8352 20.0975 L -9.89942 20.0659 L -9.96354 20.0342 L -10.0276 20.0022 L -10.0915 19.9701 L -10.1553 19.9377 L -10.219 19.9051 L -10.2826 19.8723 L -10.3461 19.8393 L -10.4095 19.8062 L -10.4727 19.7728 L -10.5359 19.7392 L -10.599 19.7054 L -10.662 19.6714 L -10.7248 19.6372 L -10.7875 19.6028 L -10.8502 19.5682 L -10.9127 19.5334 L -10.9751 19.4984 L -11.0374 19.4632 L -11.0996 19.4278 L -11.2752 19.3264 L -11.3369 19.2903 L -11.3986 19.2539 L -11.4601 19.2174 L -11.5215 19.1806 L -11.5827 19.1437 L -11.6439 19.1065 L -11.7049 19.0692 L -11.7659 19.0317 L -11.8267 18.994 L -11.8873 18.956 L -11.9479 18.9179 L -12.0083 18.8796 L -12.0686 18.8411 L -12.1288 18.8024 L -12.1889 18.7636 L -12.2488 18.7245 L -12.3087 18.6852 L -12.3683 18.6458 L -12.4279 18.6061 L -12.4873 18.5663 L -12.5467 18.5263 L -12.6058 18.486 L -12.5979 18.4048 L -12.5899 18.3235 L -12.5819 18.2422 L -12.5739 18.1608 L -12.5658 18.0793 L -12.5576 17.9978 L -12.5494 17.9162 L -12.5412 17.8345 L -12.533 17.7528 L -12.5247 17.6711 L -12.5163 17.5892 L -12.5079 17.5073 L -12.4995 17.4254 L -12.491 17.3434 L -12.4825 17.2613 L -12.4739 17.1791 L -12.4653 17.0969 L -12.4566 17.0146 L -12.4479 16.9323 L -12.4391 16.8499 L -12.4303 16.7674 L -12.4214 16.6849 L -12.4125 16.6022 L -12.4035 16.5196 L -12.3945 16.4368 L -12.3854 16.354 L -12.3763 16.2711 L -12.3671 16.1881 L -12.3579 16.1051 L -12.3579 16.1051 L -12.4357 16.1355 L -12.5134 16.1658 L -12.5911 16.1961 L -12.6688 16.2263 L -12.7464 16.2565 L -12.8239 16.2865 L -12.9014 16.3165 L -12.9789 16.3465 L -13.0563 16.3763 L -13.1336 16.4061 L -13.2109 16.4359 L -13.2881 16.4655 L -13.3653 16.4951 L -13.4424 16.5247 L -13.5195 16.5542 L -13.5965 16.5836 L -13.6735 16.613 L -13.7504 16.6423 L -13.8273 16.6715 L -13.9041 16.7007 L -13.9809 16.7298 L -14.0577 16.7589 L -14.1343 16.7879 L -14.211 16.8169 L -14.2876 16.8458 L -14.3641 16.8746 L -14.4406 16.9034 L -14.5171 16.9321 L -14.5935 16.9608 L -14.6477 16.9141 L -14.7017 16.8672 L -14.7556 16.8201 L -14.8093 16.7728 L -14.8628 16.7253 L -14.9162 16.6777 L -14.9695 16.6299 L -15.0226 16.582 L -15.0755 16.5339 L -15.1283 16.4856 L -15.181 16.4371 L -15.2335 16.3885 L -15.2858 16.3397 L -15.338 16.2907 L -15.39 16.2416 L -15.4418 16.1923 L -15.4935 16.1428 L -15.5451 16.0932 L -15.5965 16.0434 L -15.6477 15.9934 L -15.6988 15.9433 L -15.7497 15.893 L -15.893 15.7497 L -15.9433 15.6988 L -15.9934 15.6477 L -16.0434 15.5965 L -16.0932 15.5451 L -16.1428 15.4935 L -16.1923 15.4418 L -16.2416 15.39 L -16.2907 15.338 L -16.3397 15.2858 L -16.3885 15.2335 L -16.4371 15.181 L -16.4856 15.1283 L -16.5339 15.0755 L -16.582 15.0226 L -16.6299 14.9695 L -16.6777 14.9162 L -16.7253 14.8628 L -16.7728 14.8093 L -16.8201 14.7556 L -16.8672 14.7017 L -16.9141 14.6477 L -16.9608 14.5935 L -16.9321 14.5171 L -16.9034 14.4406 L -16.8746 14.3641 L -16.8458 14.2876 L -16.8169 14.211 L -16.7879 14.1343 L -16.7589 14.0577 L -16.7298 13.9809 L -16.7007 13.9041 L -16.6715 13.8273 L -16.6423 13.7504 L -16.613 13.6735 L -16.5836 13.5965 L -16.5542 13.5195 L -16.5247 13.4424 L -16.4951 13.3653 L -16.4655 13.2881 L -16.4359 13.2109 L -16.4061 13.1336 L -16.3763 13.0563 L -16.3465 12.9789 L -16.3165 12.9014 L -16.2865 12.8239 L -16.2565 12.7464 L -16.2263 12.6688 L -16.1961 12.5911 L -16.1658 12.5134 L -16.1355 12.4357 L -16.1051 12.3579 L -16.1051 12.3579 L -16.1881 12.3671 L -16.2711 12.3763 L -16.354 12.3854 L -16.4368 12.3945 L -16.5196 12.4035 L -16.6022 12.4125 L -16.6849 12.4214 L -16.7674 12.4303 L -16.8499 12.4391 L -16.9323 12.4479 L -17.0146 12.4566 L -17.0969 12.4653 L -17.1791 12.4739 L -17.2613 12.4825 L -17.3434 12.491 L -17.4254 12.4995 L -17.5073 12.5079 L -17.5892 12.5163 L -17.6711 12.5247 L -17.7528 12.533 L -17.8345 12.5412 L -17.9162 12.5494 L -17.9978 12.5576 L -18.0793 12.5658 L -18.1608 12.5739 L -18.2422 12.5819 L -18.3235 12.5899 L -18.4048 12.5979 L -18.486 12.6058 L -18.5263 12.5467 L -18.5663 12.4873 L -18.6061 12.4279 L -18.6458 12.3683 L -18.6852 12.3087 L -18.7245 12.2488 L -18.7636 12.1889 L -18.8024 12.1288 L -18.8411 12.0686 L -18.8796 12.0083 L -18.9179 11.9479 L -18.956 11.8873 L -18.994 11.8267 L -19.0317 11.7659 L -19.0692 11.7049 L -19.1065 11.6439 L -19.1437 11.5827 L -19.1806 11.5215 L -19.2174 11.4601 L -19.2539 11.3986 L -19.2903 11.3369 L -19.3264 11.2752 L -19.4278 11.0996 L -19.4632 11.0374 L -19.4984 10.9751 L -19.5334 10.9127 L -19.5682 10.8502 L -19.6028 10.7875 L -19.6372 10.7248 L -19.6714 10.662 L -19.7054 10.599 L -19.7392 10.5359 L -19.7728 10.4727 L -19.8062 10.4095 L -19.8393 10.3461 L -19.8723 10.2826 L -19.9051 10.219 L -19.9377 10.1553 L -19.9701 10.0915 L -20.0022 10.0276 L -20.0342 9.96354 L -20.0659 9.89942 L -20.0975 9.8352 L -20.1288 9.77088 L -20.16 9.70646 L -20.1125 9.64008 L -20.0649 9.57367 L -20.0173 9.50722 L -19.9697 9.44075 L -19.9219 9.37424 L -19.8741 9.3077 L -19.8262 9.24114 L -19.7783 9.17454 L -19.7303 9.10791 L -19.6822 9.04125 L -19.6341 8.97456 L -19.5858 8.90783 L -19.5376 8.84108 L -19.4892 8.77429 L -19.4408 8.70747 L -19.3923 8.64061 L -19.3437 8.57373 L -19.295 8.50681 L -19.2463 8.43986 L -19.1975 8.37287 L -19.1486 8.30585 L -19.0997 8.2388 L -19.0507 8.17171 L -19.0015 8.10459 L -18.9523 8.03744 L -18.9031 7.97025 L -18.8537 7.90303 L -18.8043 7.83577 L -18.7548 7.76847 L -18.7548 7.76847 L -18.8374 7.75591 L -18.9199 7.74331 L -19.0023 7.73067 L -19.0847 7.71801 L -19.1669 7.70531 L -19.2491 7.69257 L -19.3312 7.67981 L -19.4133 7.66701 L -19.4952 7.65418 L -19.5771 7.64132 L -19.6589 7.62843 L -19.7406 7.61551 L -19.8222 7.60257 L -19.9038 7.58959 L -19.9853 7.57658 L -20.0667 7.56355 L -20.1481 7.55049 L -20.2293 7.5374 L -20.3105 7.52429 L -20.3917 7.51115 L -20.4727 7.49798 L -20.5537 7.48479 L -20.6347 7.47157 L -20.7155 7.45833 L -20.7963 7.44506 L -20.877 7.43177 L -20.9577 7.41846 L -21.0383 7.40512 L -21.1188 7.39176 L -21.1423 7.32419 L -21.1656 7.25654 L -21.1887 7.18882 L -21.2116 7.12102 L -21.2343 7.05316 L -21.2567 6.98522 L -21.2789 6.91721 L -21.3009 6.84912 L -21.3227 6.78097 L -21.3443 6.71275 L -21.3657 6.64446 L -21.3868 6.5761 L -21.4077 6.50768 L -21.4284 6.43919 L -21.4489 6.37063 L -21.4692 6.30201 L -21.4892 6.23332 L -21.509 6.16457 L -21.5286 6.09575 L -21.548 6.02688 L -21.5672 5.95794 L -21.5861 5.88894 L -21.6386 5.69309 L -21.6567 5.62387 L -21.6746 5.55458 L -21.6922 5.48524 L -21.7097 5.41585 L -21.7269 5.3464 L -21.7439 5.27689 L -21.7606 5.20733 L -21.7772 5.13772 L -21.7935 5.06805 L -21.8096 4.99833 L -21.8254 4.92856 L -21.8411 4.85874 L -21.8565 4.78887 L -21.8717 4.71896 L -21.8867 4.64899 L -21.9015 4.57898 L -21.916 4.50892 L -21.9303 4.43881 L -21.9444 4.36866 L -21.9582 4.29846 L -21.9719 4.22822 L -21.9853 4.15793 L -21.9222 4.1061 L -21.8591 4.05426 L -21.7959 4.0024 L -21.7326 3.95053 L -21.6693 3.89865 L -21.6059 3.84676 L -21.5424 3.79485 L -21.4789 3.74293 L -21.4153 3.69099 L -21.3516 3.63905 L -21.2878 3.58709 L -21.224 3.53512 L -21.1601 3.48313 L -21.0961 3.43114 L -21.032 3.37913 L -20.9678 3.3271 L -20.9036 3.27507 L -20.8393 3.22302 L -20.7749 3.17096 L -20.7104 3.11889 L -20.6459 3.0668 L -20.5812 3.01471 L -20.5165 2.9626 L -20.4517 2.91048 L -20.3868 2.85834 L -20.3218 2.80619 L -20.2567 2.75404 L -20.1916 2.70186 L -20.1263 2.64968 L -20.1263 2.64968 L -20.2029 2.61617 L -20.2793 2.58264 L -20.3557 2.5491 L -20.4319 2.51555 L -20.5081 2.48199 L -20.5842 2.44841 L -20.6602 2.41483 L -20.7361 2.38124 L -20.812 2.34764 L -20.8877 2.31403 L -20.9634 2.28041 L -21.039 2.24678 L -21.1145 2.21314 L -21.1899 2.1795 L -21.2653 2.14584 L -21.3406 2.11218 L -21.4158 2.07851 L -21.4909 2.04483 L -21.5659 2.01115 L -21.6409 1.97746 L -21.7158 1.94376 L -21.7906 1.91005 L -21.8653 1.87634 L -21.94 1.84263 L -22.0146 1.8089 L -22.0891 1.77517 L -22.1636 1.74144 L -22.238 1.7077 L -22.3123 1.67395 L -22.3175 1.60259 L -22.3225 1.53121 L -22.3273 1.45982 L -22.3319 1.38842 L -22.3362 1.317 L -22.3403 1.24556 L -22.3442 1.17411 L -22.3478 1.10266 L -22.3512 1.03119 L -22.3544 0.959704 L -22.3574 0.888214 L -22.3601 0.816714 L -22.3626 0.745206 L -22.3649 0.67369 L -22.3669 0.602168 L -22.3687 0.530639 L -22.3703 0.459105 L -22.3716 0.387566 L -22.3728 0.316023 L -22.3737 0.244477 L -22.3743 0.172928 L -22.3748 0.101378 L -22.3748 -0.101378 L -22.3743 -0.172928 L -22.3737 -0.244477 L -22.3728 -0.316023 L -22.3716 -0.387566 L -22.3703 -0.459105 L -22.3687 -0.530639 L -22.3669 -0.602168 L -22.3649 -0.67369 L -22.3626 -0.745206 L -22.3601 -0.816714 L -22.3574 -0.888214 L -22.3544 -0.959704 L -22.3512 -1.03119 L -22.3478 -1.10266 L -22.3442 -1.17411 L -22.3403 -1.24556 L -22.3362 -1.317 L -22.3319 -1.38842 L -22.3273 -1.45982 L -22.3225 -1.53121 L -22.3175 -1.60259 L -22.3123 -1.67395 L -22.238 -1.7077 L -22.1636 -1.74144 L -22.0891 -1.77517 L -22.0146 -1.8089 L -21.94 -1.84263 L -21.8653 -1.87634 L -21.7906 -1.91005 L -21.7158 -1.94376 L -21.6409 -1.97746 L -21.5659 -2.01115 L -21.4909 -2.04483 L -21.4158 -2.07851 L -21.3406 -2.11218 L -21.2653 -2.14584 L -21.1899 -2.1795 L -21.1145 -2.21314 L -21.039 -2.24678 L -20.9634 -2.28041 L -20.8877 -2.31403 L -20.812 -2.34764 L -20.7361 -2.38124 L -20.6602 -2.41483 L -20.5842 -2.44841 L -20.5081 -2.48199 L -20.4319 -2.51555 L -20.3557 -2.5491 L -20.2793 -2.58264 L -20.2029 -2.61617 L -20.1263 -2.64968 L -20.1263 -2.64968 L -20.1916 -2.70186 L -20.2567 -2.75404 L -20.3218 -2.80619 L -20.3868 -2.85834 L -20.4517 -2.91048 L -20.5165 -2.9626 L -20.5812 -3.01471 L -20.6459 -3.0668 L -20.7104 -3.11889 L -20.7749 -3.17096 L -20.8393 -3.22302 L -20.9036 -3.27507 L -20.9678 -3.3271 L -21.032 -3.37913 L -21.0961 -3.43114 L -21.1601 -3.48313 L -21.224 -3.53512 L -21.2878 -3.58709 L -21.3516 -3.63905 L -21.4153 -3.69099 L -21.4789 -3.74293 L -21.5424 -3.79485 L -21.6059 -3.84676 L -21.6693 -3.89865 L -21.7326 -3.95053 L -21.7959 -4.0024 L -21.8591 -4.05426 L -21.9222 -4.1061 L -21.9853 -4.15793 L -21.9719 -4.22822 L -21.9582 -4.29846 L -21.9444 -4.36866 L -21.9303 -4.43881 L -21.916 -4.50892 L -21.9015 -4.57898 L -21.8867 -4.64899 L -21.8717 -4.71896 L -21.8565 -4.78887 L -21.8411 -4.85874 L -21.8254 -4.92856 L -21.8096 -4.99833 L -21.7935 -5.06805 L -21.7772 -5.13772 L -21.7606 -5.20733 L -21.7439 -5.27689 L -21.7269 -5.3464 L -21.7097 -5.41585 L -21.6922 -5.48524 L -21.6746 -5.55458 L -21.6567 -5.62387 L -21.6386 -5.69309 L -21.5861 -5.88894 L -21.5672 -5.95794 L -21.548 -6.02688 L -21.5286 -6.09575 L -21.509 -6.16457 L -21.4892 -6.23332 L -21.4692 -6.30201 L -21.4489 -6.37063 L -21.4284 -6.43919 L -21.4077 -6.50768 L -21.3868 -6.5761 L -21.3657 -6.64446 L -21.3443 -6.71275 L -21.3227 -6.78097 L -21.3009 -6.84912 L -21.2789 -6.91721 L -21.2567 -6.98522 L -21.2343 -7.05316 L -21.2116 -7.12102 L -21.1887 -7.18882 L -21.1656 -7.25654 L -21.1423 -7.32419 L -21.1188 -7.39176 L -21.0383 -7.40512 L -20.9577 -7.41846 L -20.877 -7.43177 L -20.7963 -7.44506 L -20.7155 -7.45833 L -20.6347 -7.47157 L -20.5537 -7.48479 L -20.4727 -7.49798 L -20.3917 -7.51115 L -20.3105 -7.52429 L -20.2293 -7.5374 L -20.1481 -7.55049 L -20.0667 -7.56355 L -19.9853 -7.57658 L -19.9038 -7.58959 L -19.8222 -7.60257 L -19.7406 -7.61551 L -19.6589 -7.62843 L -19.5771 -7.64132 L -19.4952 -7.65418 L -19.4133 -7.66701 L -19.3312 -7.67981 L -19.2491 -7.69257 L -19.1669 -7.70531 L -19.0847 -7.71801 L -19.0023 -7.73067 L -18.9199 -7.74331 L -18.8374 -7.75591 L -18.7548 -7.76847 L -18.7548 -7.76847 L -18.8043 -7.83577 L -18.8537 -7.90303 L -18.9031 -7.97025 L -18.9523 -8.03744 L -19.0015 -8.10459 L -19.0507 -8.17171 L -19.0997 -8.2388 L -19.1486 -8.30585 L -19.1975 -8.37287 L -19.2463 -8.43986 L -19.295 -8.50681 L -19.3437 -8.57373 L -19.3923 -8.64061 L -19.4408 -8.70747 L -19.4892 -8.77429 L -19.5376 -8.84108 L -19.5858 -8.90783 L -19.6341 -8.97456 L -19.6822 -9.04125 L -19.7303 -9.10791 L -19.7783 -9.17454 L -19.8262 -9.24114 L -19.8741 -9.3077 L -19.9219 -9.37424 L -19.9697 -9.44075 L -20.0173 -9.50722 L -20.0649 -9.57367 L -20.1125 -9.64008 L -20.16 -9.70646 L -20.1288 -9.77088 L -20.0975 -9.8352 L -20.0659 -9.89942 L -20.0342 -9.96354 L -20.0022 -10.0276 L -19.9701 -10.0915 L -19.9377 -10.1553 L -19.9051 -10.219 L -19.8723 -10.2826 L -19.8393 -10.3461 L -19.8062 -10.4095 L -19.7728 -10.4727 L -19.7392 -10.5359 L -19.7054 -10.599 L -19.6714 -10.662 L -19.6372 -10.7248 L -19.6028 -10.7875 L -19.5682 -10.8502 L -19.5334 -10.9127 L -19.4984 -10.9751 L -19.4632 -11.0374 L -19.4278 -11.0996 L -19.3264 -11.2752 L -19.2903 -11.3369 L -19.2539 -11.3986 L -19.2174 -11.4601 L -19.1806 -11.5215 L -19.1437 -11.5827 L -19.1065 -11.6439 L -19.0692 -11.7049 L -19.0317 -11.7659 L -18.994 -11.8267 L -18.956 -11.8873 L -18.9179 -11.9479 L -18.8796 -12.0083 L -18.8411 -12.0686 L -18.8024 -12.1288 L -18.7636 -12.1889 L -18.7245 -12.2488 L -18.6852 -12.3087 L -18.6458 -12.3683 L -18.6061 -12.4279 L -18.5663 -12.4873 L -18.5263 -12.5467 L -18.486 -12.6058 L -18.4048 -12.5979 L -18.3235 -12.5899 L -18.2422 -12.5819 L -18.1608 -12.5739 L -18.0793 -12.5658 L -17.9978 -12.5576 L -17.9162 -12.5494 L -17.8345 -12.5412 L -17.7528 -12.533 L -17.6711 -12.5247 L -17.5892 -12.5163 L -17.5073 -12.5079 L -17.4254 -12.4995 L -17.3434 -12.491 L -17.2613 -12.4825 L -17.1791 -12.4739 L -17.0969 -12.4653 L -17.0146 -12.4566 L -16.9323 -12.4479 L -16.8499 -12.4391 L -16.7674 -12.4303 L -16.6849 -12.4214 L -16.6022 -12.4125 L -16.5196 -12.4035 L -16.4368 -12.3945 L -16.354 -12.3854 L -16.2711 -12.3763 L -16.1881 -12.3671 L -16.1051 -12.3579 L -16.1051 -12.3579 L -16.1355 -12.4357 L -16.1658 -12.5134 L -16.1961 -12.5911 L -16.2263 -12.6688 L -16.2565 -12.7464 L -16.2865 -12.8239 L -16.3165 -12.9014 L -16.3465 -12.9789 L -16.3763 -13.0563 L -16.4061 -13.1336 L -16.4359 -13.2109 L -16.4655 -13.2881 L -16.4951 -13.3653 L -16.5247 -13.4424 L -16.5542 -13.5195 L -16.5836 -13.5965 L -16.613 -13.6735 L -16.6423 -13.7504 L -16.6715 -13.8273 L -16.7007 -13.9041 L -16.7298 -13.9809 L -16.7589 -14.0577 L -16.7879 -14.1343 L -16.8169 -14.211 L -16.8458 -14.2876 L -16.8746 -14.3641 L -16.9034 -14.4406 L -16.9321 -14.5171 L -16.9608 -14.5935 L -16.9141 -14.6477 L -16.8672 -14.7017 L -16.8201 -14.7556 L -16.7728 -14.8093 L -16.7253 -14.8628 L -16.6777 -14.9162 L -16.6299 -14.9695 L -16.582 -15.0226 L -16.5339 -15.0755 L -16.4856 -15.1283 L -16.4371 -15.181 L -16.3885 -15.2335 L -16.3397 -15.2858 L -16.2907 -15.338 L -16.2416 -15.39 L -16.1923 -15.4418 L -16.1428 -15.4935 L -16.0932 -15.5451 L -16.0434 -15.5965 L -15.9934 -15.6477 L -15.9433 -15.6988 L -15.893 -15.7497 L -15.7497 -15.893 L -15.6988 -15.9433 L -15.6477 -15.9934 L -15.5965 -16.0434 L -15.5451 -16.0932 L -15.4935 -16.1428 L -15.4418 -16.1923 L -15.39 -16.2416 L -15.338 -16.2907 L -15.2858 -16.3397 L -15.2335 -16.3885 L -15.181 -16.4371 L -15.1283 -16.4856 L -15.0755 -16.5339 L -15.0226 -16.582 L -14.9695 -16.6299 L -14.9162 -16.6777 L -14.8628 -16.7253 L -14.8093 -16.7728 L -14.7556 -16.8201 L -14.7017 -16.8672 L -14.6477 -16.9141 L -14.5935 -16.9608 L -14.5171 -16.9321 L -14.4406 -16.9034 L -14.3641 -16.8746 L -14.2876 -16.8458 L -14.211 -16.8169 L -14.1343 -16.7879 L -14.0577 -16.7589 L -13.9809 -16.7298 L -13.9041 -16.7007 L -13.8273 -16.6715 L -13.7504 -16.6423 L -13.6735 -16.613 L -13.5965 -16.5836 L -13.5195 -16.5542 L -13.4424 -16.5247 L -13.3653 -16.4951 L -13.2881 -16.4655 L -13.2109 -16.4359 L -13.1336 -16.4061 L -13.0563 -16.3763 L -12.9789 -16.3465 L -12.9014 -16.3165 L -12.8239 -16.2865 L -12.7464 -16.2565 L -12.6688 -16.2263 L -12.5911 -16.1961 L -12.5134 -16.1658 L -12.4357 -16.1355 L -12.3579 -16.1051 L -12.3579 -16.1051 L -12.3671 -16.1881 L -12.3763 -16.2711 L -12.3854 -16.354 L -12.3945 -16.4368 L -12.4035 -16.5196 L -12.4125 -16.6022 L -12.4214 -16.6849 L -12.4303 -16.7674 L -12.4391 -16.8499 L -12.4479 -16.9323 L -12.4566 -17.0146 L -12.4653 -17.0969 L -12.4739 -17.1791 L -12.4825 -17.2613 L -12.491 -17.3434 L -12.4995 -17.4254 L -12.5079 -17.5073 L -12.5163 -17.5892 L -12.5247 -17.6711 L -12.533 -17.7528 L -12.5412 -17.8345 L -12.5494 -17.9162 L -12.5576 -17.9978 L -12.5658 -18.0793 L -12.5739 -18.1608 L -12.5819 -18.2422 L -12.5899 -18.3235 L -12.5979 -18.4048 L -12.6058 -18.486 L -12.5467 -18.5263 L -12.4873 -18.5663 L -12.4279 -18.6061 L -12.3683 -18.6458 L -12.3087 -18.6852 L -12.2488 -18.7245 L -12.1889 -18.7636 L -12.1288 -18.8024 L -12.0686 -18.8411 L -12.0083 -18.8796 L -11.9479 -18.9179 L -11.8873 -18.956 L -11.8267 -18.994 L -11.7659 -19.0317 L -11.7049 -19.0692 L -11.6439 -19.1065 L -11.5827 -19.1437 L -11.5215 -19.1806 L -11.4601 -19.2174 L -11.3986 -19.2539 L -11.3369 -19.2903 L -11.2752 -19.3264 L -11.0996 -19.4278 L -11.0374 -19.4632 L -10.9751 -19.4984 L -10.9127 -19.5334 L -10.8502 -19.5682 L -10.7875 -19.6028 L -10.7248 -19.6372 L -10.662 -19.6714 L -10.599 -19.7054 L -10.5359 -19.7392 L -10.4727 -19.7728 L -10.4095 -19.8062 L -10.3461 -19.8393 L -10.2826 -19.8723 L -10.219 -19.9051 L -10.1553 -19.9377 L -10.0915 -19.9701 L -10.0276 -20.0022 L -9.96354 -20.0342 L -9.89942 -20.0659 L -9.8352 -20.0975 L -9.77088 -20.1288 L -9.70646 -20.16 L -9.64008 -20.1125 L -9.57367 -20.0649 L -9.50722 -20.0173 L -9.44075 -19.9697 L -9.37424 -19.9219 L -9.3077 -19.8741 L -9.24114 -19.8262 L -9.17454 -19.7783 L -9.10791 -19.7303 L -9.04125 -19.6822 L -8.97456 -19.6341 L -8.90783 -19.5858 L -8.84108 -19.5376 L -8.77429 -19.4892 L -8.70747 -19.4408 L -8.64061 -19.3923 L -8.57373 -19.3437 L -8.50681 -19.295 L -8.43986 -19.2463 L -8.37287 -19.1975 L -8.30585 -19.1486 L -8.2388 -19.0997 L -8.17171 -19.0507 L -8.10459 -19.0015 L -8.03744 -18.9523 L -7.97025 -18.9031 L -7.90303 -18.8537 L -7.83577 -18.8043 L -7.76847 -18.7548 L -7.76847 -18.7548 L -7.75591 -18.8374 L -7.74331 -18.9199 L -7.73067 -19.0023 L -7.71801 -19.0847 L -7.70531 -19.1669 L -7.69257 -19.2491 L -7.67981 -19.3312 L -7.66701 -19.4133 L -7.65418 -19.4952 L -7.64132 -19.5771 L -7.62843 -19.6589 L -7.61551 -19.7406 L -7.60257 -19.8222 L -7.58959 -19.9038 L -7.57658 -19.9853 L -7.56355 -20.0667 L -7.55049 -20.1481 L -7.5374 -20.2293 L -7.52429 -20.3105 L -7.51115 -20.3917 L -7.49798 -20.4727 L -7.48479 -20.5537 L -7.47157 -20.6347 L -7.45833 -20.7155 L -7.44506 -20.7963 L -7.43177 -20.877 L -7.41846 -20.9577 L -7.40512 -21.0383 L -7.39176 -21.1188 L -7.32419 -21.1423 L -7.25654 -21.1656 L -7.18882 -21.1887 L -7.12102 -21.2116 L -7.05316 -21.2343 L -6.98522 -21.2567 L -6.91721 -21.2789 L -6.84912 -21.3009 L -6.78097 -21.3227 L -6.71275 -21.3443 L -6.64446 -21.3657 L -6.5761 -21.3868 L -6.50768 -21.4077 L -6.43919 -21.4284 L -6.37063 -21.4489 L -6.30201 -21.4692 L -6.23332 -21.4892 L -6.16457 -21.509 L -6.09575 -21.5286 L -6.02688 -21.548 L -5.95794 -21.5672 L -5.88894 -21.5861 L -5.69309 -21.6386 L -5.62387 -21.6567 L -5.55458 -21.6746 L -5.48524 -21.6922 L -5.41585 -21.7097 L -5.3464 -21.7269 L -5.27689 -21.7439 L -5.20733 -21.7606 L -5.13772 -21.7772 L -5.06805 -21.7935 L -4.99833 -21.8096 L -4.92856 -21.8254 L -4.85874 -21.8411 L -4.78887 -21.8565 L -4.71896 -21.8717 L -4.64899 -21.8867 L -4.57898 -21.9015 L -4.50892 -21.916 L -4.43881 -21.9303 L -4.36866 -21.9444 L -4.29846 -21.9582 L -4.22822 -21.9719 L -4.15793 -21.9853 L -4.1061 -21.9222 L -4.05426 -21.8591 L -4.0024 -21.7959 L -3.95053 -21.7326 L -3.89865 -21.6693 L -3.84676 -21.6059 L -3.79485 -21.5424 L -3.74293 -21.4789 L -3.69099 -21.4153 L -3.63905 -21.3516 L -3.58709 -21.2878 L -3.53512 -21.224 L -3.48313 -21.1601 L -3.43114 -21.0961 L -3.37913 -21.032 L -3.3271 -20.9678 L -3.27507 -20.9036 L -3.22302 -20.8393 L -3.17096 -20.7749 L -3.11889 -20.7104 L -3.0668 -20.6459 L -3.01471 -20.5812 L -2.9626 -20.5165 L -2.91048 -20.4517 L -2.85834 -20.3868 L -2.80619 -20.3218 L -2.75404 -20.2567 L -2.70186 -20.1916 L -2.64968 -20.1263 L -2.64968 -20.1263 L -2.61617 -20.2029 L -2.58264 -20.2793 L -2.5491 -20.3557 L -2.51555 -20.4319 L -2.48199 -20.5081 L -2.44841 -20.5842 L -2.41483 -20.6602 L -2.38124 -20.7361 L -2.34764 -20.812 L -2.31403 -20.8877 L -2.28041 -20.9634 L -2.24678 -21.039 L -2.21314 -21.1145 L -2.1795 -21.1899 L -2.14584 -21.2653 L -2.11218 -21.3406 L -2.07851 -21.4158 L -2.04483 -21.4909 L -2.01115 -21.5659 L -1.97746 -21.6409 L -1.94376 -21.7158 L -1.91005 -21.7906 L -1.87634 -21.8653 L -1.84263 -21.94 L -1.8089 -22.0146 L -1.77517 -22.0891 L -1.74144 -22.1636 L -1.7077 -22.238 L -1.67395 -22.3123 L -1.60259 -22.3175 L -1.53121 -22.3225 L -1.45982 -22.3273 L -1.38842 -22.3319 L -1.317 -22.3362 L -1.24556 -22.3403 L -1.17411 -22.3442 L -1.10266 -22.3478 L -1.03119 -22.3512 L -0.959704 -22.3544 L -0.888214 -22.3574 L -0.816714 -22.3601 L -0.745206 -22.3626 L -0.67369 -22.3649 L -0.602168 -22.3669 L -0.530639 -22.3687 L -0.459105 -22.3703 L -0.387566 -22.3716 L -0.316023 -22.3728 L -0.244477 -22.3737 L -0.172928 -22.3743 L -0.101378 -22.3748 L 0.101378 -22.3748 L 0.172928 -22.3743 L 0.244477 -22.3737 L 0.316023 -22.3728 L 0.387566 -22.3716 L 0.459105 -22.3703 L 0.530639 -22.3687 L 0.602168 -22.3669 L 0.67369 -22.3649 L 0.745206 -22.3626 L 0.816714 -22.3601 L 0.888214 -22.3574 L 0.959704 -22.3544 L 1.03119 -22.3512 L 1.10266 -22.3478 L 1.17411 -22.3442 L 1.24556 -22.3403 L 1.317 -22.3362 L 1.38842 -22.3319 L 1.45982 -22.3273 L 1.53121 -22.3225 L 1.60259 -22.3175 L 1.67395 -22.3123 L 1.7077 -22.238 L 1.74144 -22.1636 L 1.77517 -22.0891 L 1.8089 -22.0146 L 1.84263 -21.94 L 1.87634 -21.8653 L 1.91005 -21.7906 L 1.94376 -21.7158 L 1.97746 -21.6409 L 2.01115 -21.5659 L 2.04483 -21.4909 L 2.07851 -21.4158 L 2.11218 -21.3406 L 2.14584 -21.2653 L 2.1795 -21.1899 L 2.21314 -21.1145 L 2.24678 -21.039 L 2.28041 -20.9634 L 2.31403 -20.8877 L 2.34764 -20.812 L 2.38124 -20.7361 L 2.41483 -20.6602 L 2.44841 -20.5842 L 2.48199 -20.5081 L 2.51555 -20.4319 L 2.5491 -20.3557 L 2.58264 -20.2793 L 2.61617 -20.2029 L 2.64968 -20.1263 L 2.64968 -20.1263 L 2.70186 -20.1916 L 2.75404 -20.2567 L 2.80619 -20.3218 L 2.85834 -20.3868 L 2.91048 -20.4517 L 2.9626 -20.5165 L 3.01471 -20.5812 L 3.0668 -20.6459 L 3.11889 -20.7104 L 3.17096 -20.7749 L 3.22302 -20.8393 L 3.27507 -20.9036 L 3.3271 -20.9678 L 3.37913 -21.032 L 3.43114 -21.0961 L 3.48313 -21.1601 L 3.53512 -21.224 L 3.58709 -21.2878 L 3.63905 -21.3516 L 3.69099 -21.4153 L 3.74293 -21.4789 L 3.79485 -21.5424 L 3.84676 -21.6059 L 3.89865 -21.6693 L 3.95053 -21.7326 L 4.0024 -21.7959 L 4.05426 -21.8591 L 4.1061 -21.9222 L 4.15793 -21.9853 L 4.22822 -21.9719 L 4.29846 -21.9582 L 4.36866 -21.9444 L 4.43881 -21.9303 L 4.50892 -21.916 L 4.57898 -21.9015 L 4.64899 -21.8867 L 4.71896 -21.8717 L 4.78887 -21.8565 L 4.85874 -21.8411 L 4.92856 -21.8254 L 4.99833 -21.8096 L 5.06805 -21.7935 L 5.13772 -21.7772 L 5.20733 -21.7606 L 5.27689 -21.7439 L 5.3464 -21.7269 L 5.41585 -21.7097 L 5.48524 -21.6922 L 5.55458 -21.6746 L 5.62387 -21.6567 L 5.69309 -21.6386 L 5.88894 -21.5861 L 5.95794 -21.5672 L 6.02688 -21.548 L 6.09575 -21.5286 L 6.16457 -21.509 L 6.23332 -21.4892 L 6.30201 -21.4692 L 6.37063 -21.4489 L 6.43919 -21.4284 L 6.50768 -21.4077 L 6.5761 -21.3868 L 6.64446 -21.3657 L 6.71275 -21.3443 L 6.78097 -21.3227 L 6.84912 -21.3009 L 6.91721 -21.2789 L 6.98522 -21.2567 L 7.05316 -21.2343 L 7.12102 -21.2116 L 7.18882 -21.1887 L 7.25654 -21.1656 L 7.32419 -21.1423 L 7.39176 -21.1188 L 7.40512 -21.0383 L 7.41846 -20.9577 L 7.43177 -20.877 L 7.44506 -20.7963 L 7.45833 -20.7155 L 7.47157 -20.6347 L 7.48479 -20.5537 L 7.49798 -20.4727 L 7.51115 -20.3917 L 7.52429 -20.3105 L 7.5374 -20.2293 L 7.55049 -20.1481 L 7.56355 -20.0667 L 7.57658 -19.9853 L 7.58959 -19.9038 L 7.60257 -19.8222 L 7.61551 -19.7406 L 7.62843 -19.6589 L 7.64132 -19.5771 L 7.65418 -19.4952 L 7.66701 -19.4133 L 7.67981 -19.3312 L 7.69257 -19.2491 L 7.70531 -19.1669 L 7.71801 -19.0847 L 7.73067 -19.0023 L 7.74331 -18.9199 L 7.75591 -18.8374 L 7.76847 -18.7548 L 7.76847 -18.7548 L 7.83577 -18.8043 L 7.90303 -18.8537 L 7.97025 -18.9031 L 8.03744 -18.9523 L 8.10459 -19.0015 L 8.17171 -19.0507 L 8.2388 -19.0997 L 8.30585 -19.1486 L 8.37287 -19.1975 L 8.43986 -19.2463 L 8.50681 -19.295 L 8.57373 -19.3437 L 8.64061 -19.3923 L 8.70747 -19.4408 L 8.77429 -19.4892 L 8.84108 -19.5376 L 8.90783 -19.5858 L 8.97456 -19.6341 L 9.04125 -19.6822 L 9.10791 -19.7303 L 9.17454 -19.7783 L 9.24114 -19.8262 L 9.3077 -19.8741 L 9.37424 -19.9219 L 9.44075 -19.9697 L 9.50722 -20.0173 L 9.57367 -20.0649 L 9.64008 -20.1125 L 9.70646 -20.16 L 9.77088 -20.1288 L 9.8352 -20.0975 L 9.89942 -20.0659 L 9.96354 -20.0342 L 10.0276 -20.0022 L 10.0915 -19.9701 L 10.1553 -19.9377 L 10.219 -19.9051 L 10.2826 -19.8723 L 10.3461 -19.8393 L 10.4095 -19.8062 L 10.4727 -19.7728 L 10.5359 -19.7392 L 10.599 -19.7054 L 10.662 -19.6714 L 10.7248 -19.6372 L 10.7875 -19.6028 L 10.8502 -19.5682 L 10.9127 -19.5334 L 10.9751 -19.4984 L 11.0374 -19.4632 L 11.0996 -19.4278 L 11.2752 -19.3264 L 11.3369 -19.2903 L 11.3986 -19.2539 L 11.4601 -19.2174 L 11.5215 -19.1806 L 11.5827 -19.1437 L 11.6439 -19.1065 L 11.7049 -19.0692 L 11.7659 -19.0317 L 11.8267 -18.994 L 11.8873 -18.956 L 11.9479 -18.9179 L 12.0083 -18.8796 L 12.0686 -18.8411 L 12.1288 -18.8024 L 12.1889 -18.7636 L 12.2488 -18.7245 L 12.3087 -18.6852 L 12.3683 -18.6458 L 12.4279 -18.6061 L 12.4873 -18.5663 L 12.5467 -18.5263 L 12.6058 -18.486 L 12.5979 -18.4048 L 12.5899 -18.3235 L 12.5819 -18.2422 L 12.5739 -18.1608 L 12.5658 -18.0793 L 12.5576 -17.9978 L 12.5494 -17.9162 L 12.5412 -17.8345 L 12.533 -17.7528 L 12.5247 -17.6711 L 12.5163 -17.5892 L 12.5079 -17.5073 L 12.4995 -17.4254 L 12.491 -17.3434 L 12.4825 -17.2613 L 12.4739 -17.1791 L 12.4653 -17.0969 L 12.4566 -17.0146 L 12.4479 -16.9323 L 12.4391 -16.8499 L 12.4303 -16.7674 L 12.4214 -16.6849 L 12.4125 -16.6022 L 12.4035 -16.5196 L 12.3945 -16.4368 L 12.3854 -16.354 L 12.3763 -16.2711 L 12.3671 -16.1881 L 12.3579 -16.1051 L 12.3579 -16.1051 L 12.4357 -16.1355 L 12.5134 -16.1658 L 12.5911 -16.1961 L 12.6688 -16.2263 L 12.7464 -16.2565 L 12.8239 -16.2865 L 12.9014 -16.3165 L 12.9789 -16.3465 L 13.0563 -16.3763 L 13.1336 -16.4061 L 13.2109 -16.4359 L 13.2881 -16.4655 L 13.3653 -16.4951 L 13.4424 -16.5247 L 13.5195 -16.5542 L 13.5965 -16.5836 L 13.6735 -16.613 L 13.7504 -16.6423 L 13.8273 -16.6715 L 13.9041 -16.7007 L 13.9809 -16.7298 L 14.0577 -16.7589 L 14.1343 -16.7879 L 14.211 -16.8169 L 14.2876 -16.8458 L 14.3641 -16.8746 L 14.4406 -16.9034 L 14.5171 -16.9321 L 14.5935 -16.9608 L 14.6477 -16.9141 L 14.7017 -16.8672 L 14.7556 -16.8201 L 14.8093 -16.7728 L 14.8628 -16.7253 L 14.9162 -16.6777 L 14.9695 -16.6299 L 15.0226 -16.582 L 15.0755 -16.5339 L 15.1283 -16.4856 L 15.181 -16.4371 L 15.2335 -16.3885 L 15.2858 -16.3397 L 15.338 -16.2907 L 15.39 -16.2416 L 15.4418 -16.1923 L 15.4935 -16.1428 L 15.5451 -16.0932 L 15.5965 -16.0434 L 15.6477 -15.9934 L 15.6988 -15.9433 L 15.7497 -15.893 L 15.893 -15.7497 L 15.9433 -15.6988 L 15.9934 -15.6477 L 16.0434 -15.5965 L 16.0932 -15.5451 L 16.1428 -15.4935 L 16.1923 -15.4418 L 16.2416 -15.39 L 16.2907 -15.338 L 16.3397 -15.2858 L 16.3885 -15.2335 L 16.4371 -15.181 L 16.4856 -15.1283 L 16.5339 -15.0755 L 16.582 -15.0226 L 16.6299 -14.9695 L 16.6777 -14.9162 L 16.7253 -14.8628 L 16.7728 -14.8093 L 16.8201 -14.7556 L 16.8672 -14.7017 L 16.9141 -14.6477 L 16.9608 -14.5935 L 16.9321 -14.5171 L 16.9034 -14.4406 L 16.8746 -14.3641 L 16.8458 -14.2876 L 16.8169 -14.211 L 16.7879 -14.1343 L 16.7589 -14.0577 L 16.7298 -13.9809 L 16.7007 -13.9041 L 16.6715 -13.8273 L 16.6423 -13.7504 L 16.613 -13.6735 L 16.5836 -13.5965 L 16.5542 -13.5195 L 16.5247 -13.4424 L 16.4951 -13.3653 L 16.4655 -13.2881 L 16.4359 -13.2109 L 16.4061 -13.1336 L 16.3763 -13.0563 L 16.3465 -12.9789 L 16.3165 -12.9014 L 16.2865 -12.8239 L 16.2565 -12.7464 L 16.2263 -12.6688 L 16.1961 -12.5911 L 16.1658 -12.5134 L 16.1355 -12.4357 L 16.1051 -12.3579 L 16.1051 -12.3579 L 16.1881 -12.3671 L 16.2711 -12.3763 L 16.354 -12.3854 L 16.4368 -12.3945 L 16.5196 -12.4035 L 16.6022 -12.4125 L 16.6849 -12.4214 L 16.7674 -12.4303 L 16.8499 -12.4391 L 16.9323 -12.4479 L 17.0146 -12.4566 L 17.0969 -12.4653 L 17.1791 -12.4739 L 17.2613 -12.4825 L 17.3434 -12.491 L 17.4254 -12.4995 L 17.5073 -12.5079 L 17.5892 -12.5163 L 17.6711 -12.5247 L 17.7528 -12.533 L 17.8345 -12.5412 L 17.9162 -12.5494 L 17.9978 -12.5576 L 18.0793 -12.5658 L 18.1608 -12.5739 L 18.2422 -12.5819 L 18.3235 -12.5899 L 18.4048 -12.5979 L 18.486 -12.6058 L 18.5263 -12.5467 L 18.5663 -12.4873 L 18.6061 -12.4279 L 18.6458 -12.3683 L 18.6852 -12.3087 L 18.7245 -12.2488 L 18.7636 -12.1889 L 18.8024 -12.1288 L 18.8411 -12.0686 L 18.8796 -12.0083 L 18.9179 -11.9479 L 18.956 -11.8873 L 18.994 -11.8267 L 19.0317 -11.7659 L 19.0692 -11.7049 L 19.1065 -11.6439 L 19.1437 -11.5827 L 19.1806 -11.5215 L 19.2174 -11.4601 L 19.2539 -11.3986 L 19.2903 -11.3369 L 19.3264 -11.2752 L 19.4278 -11.0996 L 19.4632 -11.0374 L 19.4984 -10.9751 L 19.5334 -10.9127 L 19.5682 -10.8502 L 19.6028 -10.7875 L 19.6372 -10.7248 L 19.6714 -10.662 L 19.7054 -10.599 L 19.7392 -10.5359 L 19.7728 -10.4727 L 19.8062 -10.4095 L 19.8393 -10.3461 L 19.8723 -10.2826 L 19.9051 -10.219 L 19.9377 -10.1553 L 19.9701 -10.0915 L 20.0022 -10.0276 L 20.0342 -9.96354 L 20.0659 -9.89942 L 20.0975 -9.8352 L 20.1288 -9.77088 L 20.16 -9.70646 L 20.1125 -9.64008 L 20.0649 -9.57367 L 20.0173 -9.50722 L 19.9697 -9.44075 L 19.9219 -9.37424 L 19.8741 -9.3077 L 19.8262 -9.24114 L 19.7783 -9.17454 L 19.7303 -9.10791 L 19.6822 -9.04125 L 19.6341 -8.97456 L 19.5858 -8.90783 L 19.5376 -8.84108 L 19.4892 -8.77429 L 19.4408 -8.70747 L 19.3923 -8.64061 L 19.3437 -8.57373 L 19.295 -8.50681 L 19.2463 -8.43986 L 19.1975 -8.37287 L 19.1486 -8.30585 L 19.0997 -8.2388 L 19.0507 -8.17171 L 19.0015 -8.10459 L 18.9523 -8.03744 L 18.9031 -7.97025 L 18.8537 -7.90303 L 18.8043 -7.83577 L 18.7548 -7.76847 L 18.7548 -7.76847 L 18.8374 -7.75591 L 18.9199 -7.74331 L 19.0023 -7.73067 L 19.0847 -7.71801 L 19.1669 -7.70531 L 19.2491 -7.69257 L 19.3312 -7.67981 L 19.4133 -7.66701 L 19.4952 -7.65418 L 19.5771 -7.64132 L 19.6589 -7.62843 L 19.7406 -7.61551 L 19.8222 -7.60257 L 19.9038 -7.58959 L 19.9853 -7.57658 L 20.0667 -7.56355 L 20.1481 -7.55049 L 20.2293 -7.5374 L 20.3105 -7.52429 L 20.3917 -7.51115 L 20.4727 -7.49798 L 20.5537 -7.48479 L 20.6347 -7.47157 L 20.7155 -7.45833 L 20.7963 -7.44506 L 20.877 -7.43177 L 20.9577 -7.41846 L 21.0383 -7.40512 L 21.1188 -7.39176 L 21.1423 -7.32419 L 21.1656 -7.25654 L 21.1887 -7.18882 L 21.2116 -7.12102 L 21.2343 -7.05316 L 21.2567 -6.98522 L 21.2789 -6.91721 L 21.3009 -6.84912 L 21.3227 -6.78097 L 21.3443 -6.71275 L 21.3657 -6.64446 L 21.3868 -6.5761 L 21.4077 -6.50768 L 21.4284 -6.43919 L 21.4489 -6.37063 L 21.4692 -6.30201 L 21.4892 -6.23332 L 21.509 -6.16457 L 21.5286 -6.09575 L 21.548 -6.02688 L 21.5672 -5.95794 L 21.5861 -5.88894 L 21.6386 -5.69309 L 21.6567 -5.62387 L 21.6746 -5.55458 L 21.6922 -5.48524 L 21.7097 -5.41585 L 21.7269 -5.3464 L 21.7439 -5.27689 L 21.7606 -5.20733 L 21.7772 -5.13772 L 21.7935 -5.06805 L 21.8096 -4.99833 L 21.8254 -4.92856 L 21.8411 -4.85874 L 21.8565 -4.78887 L 21.8717 -4.71896 L 21.8867 -4.64899 L 21.9015 -4.57898 L 21.916 -4.50892 L 21.9303 -4.43881 L 21.9444 -4.36866 L 21.9582 -4.29846 L 21.9719 -4.22822 L 21.9853 -4.15793 L 21.9222 -4.1061 L 21.8591 -4.05426 L 21.7959 -4.0024 L 21.7326 -3.95053 L 21.6693 -3.89865 L 21.6059 -3.84676 L 21.5424 -3.79485 L 21.4789 -3.74293 L 21.4153 -3.69099 L 21.3516 -3.63905 L 21.2878 -3.58709 L 21.224 -3.53512 L 21.1601 -3.48313 L 21.0961 -3.43114 L 21.032 -3.37913 L 20.9678 -3.3271 L 20.9036 -3.27507 L 20.8393 -3.22302 L 20.7749 -3.17096 L 20.7104 -3.11889 L 20.6459 -3.0668 L 20.5812 -3.01471 L 20.5165 -2.9626 L 20.4517 -2.91048 L 20.3868 -2.85834 L 20.3218 -2.80619 L 20.2567 -2.75404 L 20.1916 -2.70186 L 20.1263 -2.64968 L 20.1263 -2.64968 L 20.2029 -2.61617 L 20.2793 -2.58264 L 20.3557 -2.5491 L 20.4319 -2.51555 L 20.5081 -2.48199 L 20.5842 -2.44841 L 20.6602 -2.41483 L 20.7361 -2.38124 L 20.812 -2.34764 L 20.8877 -2.31403 L 20.9634 -2.28041 L 21.039 -2.24678 L 21.1145 -2.21314 L 21.1899 -2.1795 L 21.2653 -2.14584 L 21.3406 -2.11218 L 21.4158 -2.07851 L 21.4909 -2.04483 L 21.5659 -2.01115 L 21.6409 -1.97746 L 21.7158 -1.94376 L 21.7906 -1.91005 L 21.8653 -1.87634 L 21.94 -1.84263 L 22.0146 -1.8089 L 22.0891 -1.77517 L 22.1636 -1.74144 L 22.238 -1.7077 L 22.3123 -1.67395 L 22.3175 -1.60259 L 22.3225 -1.53121 L 22.3273 -1.45982 L 22.3319 -1.38842 L 22.3362 -1.317 L 22.3403 -1.24556 L 22.3442 -1.17411 L 22.3478 -1.10266 L 22.3512 -1.03119 L 22.3544 -0.959704 L 22.3574 -0.888214 L 22.3601 -0.816714 L 22.3626 -0.745206 L 22.3649 -0.67369 L 22.3669 -0.602168 L 22.3687 -0.530639 L 22.3703 -0.459105 L 22.3716 -0.387566 L 22.3728 -0.316023 L 22.3737 -0.244477 L 22.3743 -0.172928 L 22.3748 -0.101378Z"
id="path1" />
</g>
</svg>
