<?xml version="1.0" encoding="UTF-8" standalone="no"?>
<svg version="1.1">
<g
style="fill:none;stroke:#000000;stroke-opacity:1;stroke-width:0.1">
<path d="M 22.4998 0.101045 L 22.4994 0.17021 L 22.4987 0.239374 L 22.4979 0.308536 L 22.4968 0.377694 L 22.4956 0.446849 L 22.4941 0.516 L 22.4924 0.585146 L 22.4905 0.654286 L 22.4884 0.723421 L 22.486 0.792548 L 22.4835 0.861668 L 22.4807 0.93078 L 22.4778 0.999882 L 22.4746 1.06898 L 22.4712 1.13806 L 22.4676 1.20713 L 22.4638 1.27619 L 22.4597 1.34524 L 22.4555 1.41428 L 22.4511 1.4833 L 22.4464 1.55231 L 22.4415 1.62131 L 22.4364 1.69028 L 22.3646 1.7229 L 22.2927 1.75552 L 22.2207 1.78813 L 22.1486 1.82074 L 22.0765 1.85333 L 22.0043 1.88593 L 21.9321 1.91852 L 21.8598 1.9511 L 21.7874 1.98367 L 21.7149 2.01624 L 21.6424 2.04881 L 21.5698 2.08136 L 21.4971 2.11391 L 21.4244 2.14646 L 21.3516 2.17899 L 21.2787 2.21152 L 21.2058 2.24404 L 21.1327 2.27655 L 21.0596 2.30906 L 20.9864 2.34155 L 20.9132 2.37404 L 20.8398 2.40652 L 20.7664 2.43899 L 20.6929 2.47145 L 20.6194 2.5039 L 20.5457 2.53634 L 20.472 2.56877 L 20.3981 2.60119 L 20.3242 2.6336 L 20.2503 2.666 L 20.2503 2.666 L 20.3133 2.71644 L 20.3763 2.76687 L 20.4392 2.8173 L 20.5021 2.86771 L 20.5648 2.9181 L 20.6275 2.96849 L 20.6901 3.01887 L 20.7526 3.06923 L 20.815 3.11958 L 20.8774 3.16993 L 20.9397 3.22026 L 21.0019 3.27057 L 21.064 3.32088 L 21.126 3.37117 L 21.188 3.42146 L 21.2499 3.47173 L 21.3118 3.52199 L 21.3735 3.57224 L 21.4352 3.62247 L 21.4969 3.67269 L 21.5584 3.72291 L 21.6199 3.77311 L 21.6813 3.8233 L 21.7427 3.87347 L 21.8039 3.92364 L 21.8652 3.97379 L 21.9263 4.02393 L 21.9874 4.07406 L 22.0484 4.12418 L 22.1094 4.17428 L 22.0965 4.24223 L 22.0833 4.31014 L 22.07 4.378 L 22.0564 4.44582 L 22.0426 4.51361 L 22.0286 4.58135 L 22.0145 4.64904 L 22.0001 4.71669 L 21.9855 4.7843 L 21.9706 4.85186 L 21.9556 4.91938 L 21.9404 4.98685 L 21.925 5.05427 L 21.9093 5.12165 L 21.8935 5.18897 L 21.8774 5.25625 L 21.8612 5.32348 L 21.8447 5.39066 L 21.828 5.45778 L 21.8111 5.52486 L 21.7941 5.59188 L 21.7768 5.65885 L 21.7593 5.72577 L 21.707 5.92097 L 21.6887 5.98767 L 21.6701 6.05432 L 21.6514 6.1209 L 21.6325 6.18743 L 21.6134 6.2539 L 21.5941 6.32031 L 21.5745 6.38667 L 21.5548 6.45296 L 21.5349 6.51919 L 21.5147 6.58536 L 21.4944 6.65146 L 21.4738 6.71751 L 21.4531 6.78349 L 21.4321 6.8494 L 21.411 6.91526 L 21.3896 6.98104 L 21.368 7.04676 L 21.3463 7.11242 L 21.3243 7.178 L 21.3021 7.24352 L 21.2798 7.30897 L 21.2572 7.37435 L 21.2344 7.43966 L 21.1566 7.45257 L 21.0787 7.46546 L 21.0007 7.47833 L 20.9227 7.49118 L 20.8446 7.504 L 20.7664 7.51681 L 20.6882 7.52959 L 20.6099 7.54234 L 20.5316 7.55507 L 20.4532 7.56778 L 20.3747 7.58046 L 20.2961 7.59312 L 20.2175 7.60576 L 20.1388 7.61836 L 20.0601 7.63095 L 19.9813 7.6435 L 19.9024 7.65603 L 19.8234 7.66853 L 19.7444 7.68101 L 19.6653 7.69346 L 19.5861 7.70588 L 19.5069 7.71827 L 19.4276 7.73063 L 19.3482 7.74296 L 19.2687 7.75526 L 19.1892 7.76753 L 19.1096 7.77978 L 19.0299 7.79199 L 18.9501 7.80416 L 18.8702 7.81631 L 18.8702 7.81631 L 18.9181 7.88136 L 18.9659 7.94638 L 19.0136 8.01137 L 19.0613 8.07632 L 19.1088 8.14124 L 19.1563 8.20613 L 19.2037 8.27099 L 19.2511 8.33582 L 19.2984 8.40061 L 19.3456 8.46538 L 19.3927 8.53011 L 19.4398 8.59481 L 19.4867 8.65949 L 19.5337 8.72413 L 19.5805 8.78874 L 19.6273 8.85332 L 19.674 8.91787 L 19.7207 8.98239 L 19.7673 9.04688 L 19.8138 9.11135 L 19.8603 9.17578 L 19.9067 9.24018 L 19.953 9.30456 L 19.9993 9.3689 L 20.0455 9.43322 L 20.0916 9.49751 L 20.1377 9.56177 L 20.1838 9.626 L 20.2297 9.6902 L 20.2757 9.75438 L 20.2456 9.81666 L 20.2153 9.87885 L 20.1848 9.94095 L 20.1542 10.003 L 20.1233 10.0649 L 20.0923 10.1267 L 20.0611 10.1884 L 20.0297 10.25 L 19.9981 10.3115 L 19.9663 10.373 L 19.9343 10.4343 L 19.9021 10.4955 L 19.8698 10.5567 L 19.8372 10.6177 L 19.8045 10.6786 L 19.7716 10.7394 L 19.7384 10.8002 L 19.7052 10.8608 L 19.6717 10.9213 L 19.638 10.9817 L 19.6042 11.0421 L 19.5701 11.1023 L 19.5359 11.1624 L 19.4349 11.3374 L 19.3999 11.3971 L 19.3648 11.4567 L 19.3295 11.5161 L 19.294 11.5755 L 19.2583 11.6348 L 19.2224 11.6939 L 19.1864 11.7529 L 19.1502 11.8119 L 19.1138 11.8707 L 19.0772 11.9294 L 19.0404 11.988 L 19.0035 12.0464 L 18.9664 12.1048 L 18.9291 12.1631 L 18.8916 12.2212 L 18.8539 12.2792 L 18.8161 12.3371 L 18.7781 12.3949 L 18.7399 12.4526 L 18.7015 12.5101 L 18.663 12.5675 L 18.6243 12.6248 L 18.5854 12.682 L 18.5068 12.6744 L 18.4282 12.6667 L 18.3496 12.6589 L 18.2709 12.6511 L 18.1922 12.6433 L 18.1133 12.6354 L 18.0345 12.6275 L 17.9556 12.6196 L 17.8766 12.6116 L 17.7976 12.6036 L 17.7185 12.5955 L 17.6393 12.5874 L 17.5601 12.5793 L 17.4809 12.5711 L 17.4015 12.5629 L 17.3222 12.5546 L 17.2427 12.5463 L 17.1632 12.5379 L 17.0836 12.5295 L 17.004 12.5211 L 16.9243 12.5126 L 16.8446 12.504 L 16.7648 12.4954 L 16.6849 12.4868 L 16.6049 12.4781 L 16.5249 12.4694 L 16.4449 12.4606 L 16.3647 12.4518 L 16.2845 12.4429 L 16.2042 12.434 L 16.2042 12.434 L 16.2336 12.5092 L 16.263 12.5844 L 16.2923 12.6595 L 16.3215 12.7345 L 16.3506 12.8096 L 16.3797 12.8845 L 16.4087 12.9595 L 16.4377 13.0343 L 16.4666 13.1092 L 16.4954 13.1839 L 16.5242 13.2587 L 16.5529 13.3333 L 16.5815 13.408 L 16.6101 13.4825 L 16.6386 13.5571 L 16.6671 13.6316 L 16.6955 13.706 L 16.7239 13.7804 L 16.7522 13.8548 L 16.7805 13.9291 L 16.8087 14.0033 L 16.8368 14.0776 L 16.8649 14.1517 L 16.893 14.2259 L 16.921 14.2999 L 16.9489 14.374 L 16.9768 14.448 L 17.0046 14.5219 L 17.0324 14.5959 L 17.0602 14.6697 L 17.015 14.7221 L 16.9696 14.7743 L 16.9241 14.8264 L 16.8785 14.8784 L 16.8327 14.9302 L 16.7867 14.9819 L 16.7406 15.0334 L 16.6943 15.0848 L 16.6478 15.1361 L 16.6012 15.1872 L 16.5544 15.2381 L 16.5075 15.2889 L 16.4604 15.3396 L 16.4132 15.3901 L 16.3658 15.4405 L 16.3183 15.4908 L 16.2706 15.5409 L 16.2227 15.5908 L 16.1747 15.6406 L 16.1266 15.6902 L 16.0783 15.7397 L 16.0298 15.7891 L 15.9812 15.8383 L 15.8383 15.9812 L 15.7891 16.0298 L 15.7397 16.0783 L 15.6902 16.1266 L 15.6406 16.1747 L 15.5908 16.2227 L 15.5409 16.2706 L 15.4908 16.3183 L 15.4405 16.3658 L 15.3901 16.4132 L 15.3396 16.4604 L 15.2889 16.5075 L 15.2381 16.5544 L 15.1872 16.6012 L 15.1361 16.6478 L 15.0848 16.6943 L 15.0334 16.7406 L 14.9819 16.7867 L 14.9302 16.8327 L 14.8784 16.8785 L 14.8264 16.9241 L 14.7743 16.9696 L 14.7221 17.015 L 14.6697 17.0602 L 14.5959 17.0324 L 14.5219 17.0046 L 14.448 16.9768 L 14.374 16.9489 L 14.2999 16.921 L 14.2259 16.893 L 14.1517 16.8649 L 14.0776 16.8368 L 14.0033 16.8087 L 13.9291 16.7805 L 13.8548 16.7522 L 13.7804 16.7239 L 13.706 16.6955 L 13.6316 16.6671 L 13.5571 16.6386 L 13.4825 16.6101 L 13.408 16.5815 L 13.3333 16.5529 L 13.2587 16.5242 L 13.1839 16.4954 L 13.1092 16.4666 L 13.0343 16.4377 L 12.9595 16.4087 L 12.8845 16.3797 L 12.8096 16.3506 L 12.7345 16.3215 L 12.6595 16.2923 L 12.5844 16.263 L 12.5092 16.2336 L 12.434 16.2042 L 12.434 16.2042 L 12.4429 16.2845 L 12.4518 16.3647 L 12.4606 16.4449 L 12.4694 16.5249 L 12.4781 16.6049 L 12.4868 16.6849 L 12.4954 16.7648 L 12.504 16.8446 L 12.5126 16.9243 L 12.5211 17.004 L 12.5295 17.0836 L 12.5379 17.1632 L 12.5463 17.2427 L 12.5546 17.3222 L 12.5629 17.4015 L 12.5711 17.4809 L 12.5793 17.5601 L 12.5874 17.6393 L 12.5955 17.7185 L 12.6036 17.7976 L 12.6116 17.8766 L 12.6196 17.9556 L 12.6275 18.0345 L 12.6354 18.1133 L 12.6433 18.1922 L 12.6511 18.2709 L 12.6589 18.3496 L 12.6667 18.4282 L 12.6744 18.5068 L 12.682 18.5854 L 12.6248 18.6243 L 12.5675 18.663 L 12.5101 18.7015 L 12.4526 18.7399 L 12.3949 18.7781 L 12.3371 18.8161 L 12.2792 18.8539 L 12.2212 18.8916 L 12.1631 18.9291 L 12.1048 18.9664 L 12.0464 19.0035 L 11.988 19.0404 L 11.9294 19.0772 L 11.8707 19.1138 L 11.8119 19.1502 L 11.7529 19.1864 L 11.6939 19.2224 L 11.6348 19.2583 L 11.5755 19.294 L 11.5161 19.3295 L 11.4567 19.3648 L 11.3971 19.3999 L 11.3374 19.4349 L 11.1624 19.5359 L 11.1023 19.5701 L 11.0421 19.6042 L 10.9817 19.638 L 10.9213 19.6717 L 10.8608 19.7052 L 10.8002 19.7384 L 10.7394 19.7716 L 10.6786 19.8045 L 10.6177 19.8372 L 10.5567 19.8698 L 10.4955 19.9021 L 10.4343 19.9343 L 10.373 19.9663 L 10.3115 19.9981 L 10.25 20.0297 L 10.1884 20.0611 L 10.1267 20.0923 L 10.0649 20.1233 L 10.003 20.1542 L 9.94095 20.1848 L 9.87885 20.2153 L 9.81666 20.2456 L 9.75438 20.2757 L 9.6902 20.2297 L 9.626 20.1838 L 9.56177 20.1377 L 9.49751 20.0916 L 9.43322 20.0455 L 9.3689 19.9993 L 9.30456 19.953 L 9.24018 19.9067 L 9.17578 19.8603 L 9.11135 19.8138 L 9.04688 19.7673 L 8.98239 19.7207 L 8.91787 19.674 L 8.85332 19.6273 L 8.78874 19.5805 L 8.72413 19.5337 L 8.65949 19.4867 L 8.59481 19.4398 L 8.53011 19.3927 L 8.46538 19.3456 L 8.40061 19.2984 L 8.33582 19.2511 L 8.27099 19.2037 L 8.20613 19.1563 L 8.14124 19.1088 L 8.07632 19.0613 L 8.01137 19.0136 L 7.94638 18.9659 L 7.88136 18.9181 L 7.81631 18.8702 L 7.81631 18.8702 L 7.80416 18.9501 L 7.79199 19.0299 L 7.77978 19.1096 L 7.76753 19.1892 L 7.75526 19.2687 L 7.74296 19.3482 L 7.73063 19.4276 L 7.71827 19.5069 L 7.70588 19.5861 L 7.69346 19.6653 L 7.68101 19.7444 L 7.66853 19.8234 L 7.65603 19.9024 L 7.6435 19.9813 L 7.63095 20.0601 L 7.61836 20.1388 L 7.60576 20.2175 L 7.59312 20.2961 L 7.58046 20.3747 L 7.56778 20.4532 L 7.55507 20.5316 L 7.54234 20.6099 L 7.52959 20.6882 L 7.51681 20.7664 L 7.504 20.8446 L 7.49118 20.9227 L 7.47833 21.0007 L 7.46546 21.0787 L 7.45257 21.1566 L 7.43966 21.2344 L 7.37435 21.2572 L 7.30897 21.2798 L 7.24352 21.3021 L 7.178 21.3243 L 7.11242 21.3463 L 7.04676 21.368 L 6.98104 21.3896 L 6.91526 21.411 L 6.8494 21.4321 L 6.78349 21.4531 L 6.71751 21.4738 L 6.65146 21.4944 L 6.58536 21.5147 L 6.51919 21.5349 L 6.45296 21.5548 L 6.38667 21.5745 L 6.32031 21.5941 L 6.2539 21.6134 L 6.18743 21.6325 L 6.1209 21.6514 L 6.05432 21.6701 L 5.98767 21.6887 L 5.92097 21.707 L 5.72577 21.7593 L 5.65885 21.7768 L 5.59188 21.7941 L 5.52486 21.8111 L 5.45778 21.828 L 5.39066 21.8447 L 5.32348 21.8612 L 5.25625 21.8774 L 5.18897 21.8935 L 5.12165 21.9093 L 5.05427 21.925 L 4.98685 21.9404 L 4.91938 21.9556 L 4.85186 21.9706 L 4.7843 21.9855 L 4.71669 22.0001 L 4.64904 22.0145 L 4.58135 22.0286 L 4.51361 22.0426 L 4.44582 22.0564 L 4.378 22.07 L 4.31014 22.0833 L 4.24223 22.0965 L 4.17428 22.1094 L 4.12418 22.0484 L 4.07406 21.9874 L 4.02393 21.9263 L 3.97379 21.8652 L 3.92364 21.8039 L 3.87347 21.7427 L 3.8233 21.6813 L 3.77311 21.6199 L 3.72291 21.5584 L 3.67269 21.4969 L 3.62247 21.4352 L 3.57224 21.3735 L 3.52199 21.3118 L 3.47173 21.2499 L 3.42146 21.188 L 3.37117 21.126 L 3.32088 21.064 L 3.27057 21.0019 L 3.22026 20.9397 L 3.16993 20.8774 L 3.11958 20.815 L 3.06923 20.7526 L 3.01887 20.6901 L 2.96849 20.6275 L 2.9181 20.5648 L 2.86771 20.5021 L 2.8173 20.4392 L 2.76687 20.3763 L 2.71644 20.3133 L 2.666 20.2503 L 2.666 20.2503 L 2.6336 20.3242 L 2.60119 20.3981 L 2.56877 20.472 L 2.53634 20.5457 L 2.5039 20.6194 L 2.47145 20.6929 L 2.43899 20.7664 L 2.40652 20.8398 L 2.37404 20.9132 L 2.34155 20.9864 L 2.30906 21.0596 L 2.27655 21.1327 L 2.24404 21.2058 L 2.21152 21.2787 L 2.17899 21.3516 L 2.14646 21.4244 L 2.11391 21.4971 L 2.08136 21.5698 L 2.04881 21.6424 L 2.01624 21.7149 L 1.98367 21.7874 L 1.9511 21.8598 L 1.91852 21.9321 L 1.88593 22.0043 L 1.85333 22.0765 L 1.82074 22.1486 L 1.78813 22.2207 L 1.75552 22.2927 L 1.7229 22.3646 L 1.69028 22.4364 L 1.62131 22.4415 L 1.55231 22.4464 L 1.4833 22.4511 L 1.41428 22.4555 L 1.34524 22.4597 L 1.27619 22.4638 L 1.20713 22.4676 L 1.13806 22.4712 L 1.06898 22.4746 L 0.999882 22.4778 L 0.93078 22.4807 L 0.861668 22.4835 L 0.792548 22.486 L 0.723421 22.4884 L 0.654286 22.4905 L 0.585146 22.4924 L 0.516 22.4941 L 0.446849 22.4956 L 0.377694 22.4968 L 0.308536 22.4979 L 0.239374 22.4987 L 0.17021 22.4994 L 0.101045 22.4998 L -0.101045 22.4998 L -0.17021 22.4994 L -0.239374 22.4987 L -0.308536 22.4979 L -0.377694 22.4968 L -0.446849 22.4956 L -0.516 22.4941 L -0.585146 22.4924 L -0.654286 22.4905 L -0.723421 22.4884 L -0.792548 22.486 L -0.861668 22.4835 L -0.93078 22.4807 L -0.999882 22.4778 L -1.06898 22.4746 L -1.13806 22.4712 L -1.20713 22.4676 L -1.27619 22.4638 L -1.34524 22.4597 L -1.41428 22.4555 L -1.4833 22.4511 L -1.55231 22.4464 L -1.62131 22.4415 L -1.69028 22.4364 L -1.7229 22.3646 L -1.75552 22.2927 L -1.78813 22.2207 L -1.82074 22.1486 L -1.85333 22.0765 L -1.88593 22.0043 L -1.91852 21.9321 L -1.9511 21.8598 L -1.98367 21.7874 L -2.01624 21.7149 L -2.04881 21.6424 L -2.08136 21.5698 L -2.11391 21.4971 L -2.14646 21.4244 L -2.17899 21.3516 L -2.21152 21.2787 L -2.24404 21.2058 L -2.27655 21.1327 L -2.30906 21.0596 L -2.34155 20.9864 L -2.37404 20.9132 L -2.40652 20.8398 L -2.43899 20.7664 L -2.47145 20.6929 L -2.5039 20.6194 L -2.53634 20.5457 L -2.56877 20.472 L -2.60119 20.3981 L -2.6336 20.3242 L -2.666 20.2503 L -2.666 20.2503 L -2.71644 20.3133 L -2.76687 20.3763 L -2.8173 20.4392 L -2.86771 20.5021 L -2.9181 20.5648 L -2.96849 20.6275 L -3.01887 20.6901 L -3.06923 20.7526 L -3.11958 20.815 L -3.16993 20.8774 L -3.22026 20.9397 L -3.27057 21.0019 L -3.32088 21.064 L -3.37117 21.126 L -3.42146 21.188 L -3.47173 21.2499 L -3.52199 21.3118 L -3.57224 21.3735 L -3.62247 21.4352 L -3.67269 21.4969 L -3.72291 21.5584 L -3.77311 21.6199 L -3.8233 21.6813 L -3.87347 21.7427 L -3.92364 21.8039 L -3.97379 21.8652 L -4.02393 21.9263 L -4.07406 21.9874 L -4.12418 22.0484 L -4.17428 22.1094 L -4.24223 22.0965 L -4.31014 22.0833 L -4.378 22.07 L -4.44582 22.0564 L -4.51361 22.0426 L -4.58135 22.0286 L -4.64904 22.0145 L -4.71669 22.0001 L -4.7843 21.9855 L -4.85186 21.9706 L -4.91938 21.9556 L -4.98685 21.9404 L -5.05427 21.925 L -5.12165 21.9093 L -5.18897 21.8935 L -5.25625 21.8774 L -5.32348 21.8612 L -5.39066 21.8447 L -5.45778 21.828 L -5.52486 21.8111 L -5.59188 21.7941 L -5.65885 21.7768 L -5.72577 21.7593 L -5.92097 21.707 L -5.98767 21.6887 L -6.05432 21.6701 L -6.1209 21.6514 L -6.18743 21.6325 L -6.2539 21.6134 L -6.32031 21.5941 L -6.38667 21.5745 L -6.45296 21.5548 L -6.51919 21.5349 L -6.58536 21.5147 L -6.65146 21.4944 L -6.71751 21.4738 L -6.78349 21.4531 L -6.8494 21.4321 L -6.91526 21.411 L -6.98104 21.3896 L -7.04676 21.368 L -7.11242 21.3463 L -7.178 21.3243 L -7.24352 21.3021 L -7.30897 21.2798 L -7.37435 21.2572 L -7.43966 21.2344 L -7.45257 21.1566 L -7.46546 21.0787 L -7.47833 21.0007 L -7.49118 20.9227 L -7.504 20.8446 L -7.51681 20.7664 L -7.52959 20.6882 L -7.54234 20.6099 L -7.55507 20.5316 L -7.56778 20.4532 L -7.58046 20.3747 L -7.59312 20.2961 L -7.60576 20.2175 L -7.61836 20.1388 L -7.63095 20.0601 L -7.6435 19.9813 L -7.65603 19.9024 L -7.66853 19.8234 L -7.68101 19.7444 L -7.69346 19.6653 L -7.70588 19.5861 L -7.71827 19.5069 L -7.73063 19.4276 L -7.74296 19.3482 L -7.75526 19.2687 L -7.76753 19.1892 L -7.77978 19.1096 L -7.79199 19.0299 L -7.80416 18.9501 L -7.81631 18.8702 L -7.81631 18.8702 L -7.88136 18.9181 L -7.94638 18.9659 L -8.01137 19.0136 L -8.07632 19.0613 L -8.14124 19.1088 L -8.20613 19.1563 L -8.27099 19.2037 L -8.33582 19.2511 L -8.40061 19.2984 L -8.46538 19.3456 L -8.53011 19.3927 L -8.59481 19.4398 L -8.65949 19.4867 L -8.72413 19.5337 L -8.78874 19.5805 L -8.85332 19.6273 L -8.91787 19.674 L -8.98239 19.7207 L -9.04688 19.7673 L -9.11135 19.8138 L -9.17578 19.8603 L -9.24018 19.9067 L -9.30456 19.953 L -9.3689 19.9993 L -9.43322 20.0455 L -9.49751 20.0916 L -9.56177 20.1377 L -9.626 20.1838 L -9.6902 20.2297 L -9.75438 20.2757 L -9.81666 20.2456 L -9.87885 20.2153 L -9.94095 20.1848 L -10.003 20.1542 L -10.0649 20.1233 L -10.1267 20.0923 L -10.1884 20.0611 L -10.25 20.0297 L -10.3115 19.9981 L -10.373 19.9663 L -10.4343 19.9343 L -10.4955 19.9021 L -10.5567 19.8698 L -10.6177 19.8372 L -10.6786 19.8045 L -10.7394 19.7716 L -10.8002 19.7384 L -10.8608 19.7052 L -10.9213 19.6717 L -10.9817 19.638 L -11.0421 19.6042 L -11.1023 19.5701 L -11.1624 19.5359 L -11.3374 19.4349 L -11.3971 19.3999 L -11.4567 19.3648 L -11.5161 19.3295 L -11.5755 19.294 L -11.6348 19.2583 L -11.6939 19.2224 L -11.7529 19.1864 L -11.8119 19.1502 L -11.8707 19.1138 L -11.9294 19.0772 L -11.988 19.0404 L -12.0464 19.0035 L -12.1048 18.9664 L -12.1631 18.9291 L -12.2212 18.8916 L -12.2792 18.8539 L -12.3371 18.8161 L -12.3949 18.7781 L -12.4526 18.7399 L -12.5101 18.7015 L -12.5675 18.663 L -12.6248 18.6243 L -12.682 18.5854 L -12.6744 18.5068 L -12.6667 18.4282 L -12.6589 18.3496 L -12.6511 18.2709 L -12.6433 18.1922 L -12.6354 18.1133 L -12.6275 18.0345 L -12.6196 17.9556 L -12.6116 17.8766 L -12.6036 17.7976 L -12.5955 17.7185 L -12.5874 17.6393 L -12.5793 17.5601 L -12.5711 17.4809 L -12.5629 17.4015 L -12.5546 17.3222 L -12.5463 17.2427 L -12.5379 17.1632 L -12.5295 17.0836 L -12.5211 17.004 L -12.5126 16.9243 L -12.504 16.8446 L -12.4954 16.7648 L -12.4868 16.6849 L -12.4781 16.6049 L -12.4694 16.5249 L -12.4606 16.4449 L -12.4518 16.3647 L -12.4429 16.2845 L -12.434 16.2042 L -12.434 16.2042 L -12.5092 16.2336 L -12.5844 16.263 L -12.6595 16.2923 L -12.7345 16.3215 L -12.8096 16.3506 L -12.8845 16.3797 L -12.9595 16.4087 L -13.0343 16.4377 L -13.1092 16.4666 L -13.1839 16.4954 L -13.2587 16.5242 L -13.3333 16.5529 L -13.408 16.5815 L -13.4825 16.6101 L -13.5571 16.6386 L -13.6316 16.6671 L -13.706 16.6955 L -13.7804 16.7239 L -13.8548 16.7522 L -13.9291 16.7805 L -14.0033 16.8087 L -14.0776 16.8368 L -14.1517 16.8649 L -14.2259 16.893 L -14.2999 16.921 L -14.374 16.9489 L -14.448 16.9768 L -14.5219 17.0046 L -14.5959 17.0324 L -14.6697 17.0602 L -14.7221 17.015 L -14.7743 16.9696 L -14.8264 16.9241 L -14.8784 16.8785 L -14.9302 16.8327 L -14.9819 16.7867 L -15.0334 16.7406 L -15.0848 16.6943 L -15.1361 16.6478 L -15.1872 16.6012 L -15.2381 16.5544 L -15.2889 16.5075 L -15.3396 16.4604 L -15.3901 16.4132 L -15.4405 16.3658 L -15.4908 16.3183 L -15.5409 16.2706 L -15.5908 16.2227 L -15.6406 16.1747 L -15.6902 16.1266 L -15.7397 16.0783 L -15.7891 16.0298 L -15.8383 15.9812 L -15.9812 15.8383 L -16.0298 15.7891 L -16.0783 15.7397 L -16.1266 15.6902 L -16.1747 15.6406 L -16.2227 15.5908 L -16.2706 15.5409 L -16.3183 15.4908 L -16.3658 15.4405 L -16.4132 15.3901 L -16.4604 15.3396 L -16.5075 15.2889 L -16.5544 15.2381 L -16.6012 15.1872 L -16.6478 15.1361 L -16.6943 15.0848 L -16.7406 15.0334 L -16.7867 14.9819 L -16.8327 14.9302 L -16.8785 14.8784 L -16.9241 14.8264 L -16.9696 14.7743 L -17.015 14.7221 L -17.0602 14.6697 L -17.0324 14.5959 L -17.0046 14.5219 L -16.9768 14.448 L -16.9489 14.374 L -16.921 14.2999 L -16.893 14.2259 L -16.8649 14.1517 L -16.8368 14.0776 L -16.8087 14.0033 L -16.7805 13.9291 L -16.7522 13.8548 L -16.7239 13.7804 L -16.6955 13.706 L -16.6671 13.6316 L -16.6386 13.5571 L -16.6101 13.4825 L -16.5815 13.408 L -16.5529 13.3333 L -16.5242 13.2587 L -16.4954 13.1839 L -16.4666 13.1092 L -16.4377 13.0343 L -16.4087 12.9595 L -16.3797 12.8845 L -16.3506 12.8096 L -16.3215 12.7345 L -16.2923 12.6595 L -16.263 12.5844 L -16.2336 12.5092 L -16.2042 12.434 L -16.2042 12.434 L -16.2845 12.4429 L -16.3647 12.4518 L -16.4449 12.4606 L -16.5249 12.4694 L -16.6049 12.4781 L -16.6849 12.4868 L -16.7648 12.4954 L -16.8446 12.504 L -16.9243 12.5126 L -17.004 12.5211 L -17.0836 12.5295 L -17.1632 12.5379 L -17.2427 12.5463 L -17.3222 12.5546 L -17.4015 12.5629 L -17.4809 12.5711 L -17.5601 12.5793 L -17.6393 12.5874 L -17.7185 12.5955 L -17.7976 12.6036 L -17.8766 12.6116 L -17.9556 12.6196 L -18.0345 12.6275 L -18.1133 12.6354 L -18.1922 12.6433 L -18.2709 12.6511 L -18.3496 12.6589 L -18.4282 12.6667 L -18.5068 12.6744 L -18.5854 12.682 L -18.6243 12.6248 L -18.663 12.5675 L -18.7015 12.5101 L -18.7399 12.4526 L -18.7781 12.3949 L -18.8161 12.3371 L -18.8539 12.2792 L -18.8916 12.2212 L -18.9291 12.1631 L -18.9664 12.1048 L -19.0035 12.0464 L -19.0404 11.988 L -19.0772 11.9294 L -19.1138 11.8707 L -19.1502 11.8119 L -19.1864 11.7529 L -19.2224 11.6939 L -19.2583 11.6348 L -19.294 11.5755 L -19.3295 11.5161 L -19.3648 11.4567 L -19.3999 11.3971 L -19.4349 11.3374 L -19.5359 11.1624 L -19.5701 11.1023 L -19.6042 11.0421 L -19.638 10.9817 L -19.6717 10.9213 L -19.7052 10.8608 L -19.7384 10.8002 L -19.7716 10.7394 L -19.8045 10.6786 L -19.8372 10.6177 L -19.8698 10.5567 L -19.9021 10.4955 L -19.9343 10.4343 L -19.9663 10.373 L -19.9981 10.3115 L -20.0297 10.25 L -20.0611 10.1884 L -20.0923 10.1267 L -20.1233 10.0649 L -20.1542 10.003 L -20.1848 9.94095 L -20.2153 9.87885 L -20.2456 9.81666 L -20.2757 9.75438 L -20.2297 9.6902 L -20.1838 9.626 L -20.1377 9.56177 L -20.0916 9.49751 L -20.0455 9.43322 L -19.9993 9.3689 L -19.953 9.30456 L -19.9067 9.24018 L -19.8603 9.17578 L -19.8138 9.11135 L -19.7673 9.04688 L -19.7207 8.98239 L -19.674 8.91787 L -19.6273 8.85332 L -19.5805 8.78874 L -19.5337 8.72413 L -19.4867 8.65949 L -19.4398 8.59481 L -19.3927 8.53011 L -19.3456 8.46538 L -19.2984 8.40061 L -19.2511 8.33582 L -19.2037 8.27099 L -19.1563 8.20613 L -19.1088 8.14124 L -19.0613 8.07632 L -19.0136 8.01137 L -18.9659 7.94638 L -18.9181 7.88136 L -18.8702 7.81631 L -18.8702 7.81631 L -18.9501 7.80416 L -19.0299 7.79199 L -19.1096 7.77978 L -19.1892 7.76753 L -19.2687 7.75526 L -19.3482 7.74296 L -19.4276 7.73063 L -19.5069 7.71827 L -19.5861 7.70588 L -19.6653 7.69346 L -19.7444 7.68101 L -19.8234 7.66853 L -19.9024 7.65603 L -19.9813 7.6435 L -20.0601 7.63095 L -20.1388 7.61836 L -20.2175 7.60576 L -20.2961 7.59312 L -20.3747 7.58046 L -20.4532 7.56778 L -20.5316 7.55507 L -20.6099 7.54234 L -20.6882 7.52959 L -20.7664 7.51681 L -20.8446 7.504 L -20.9227 7.49118 L -21.0007 7.47833 L -21.0787 7.46546 L -21.1566 7.45257 L -21.2344 7.43966 L -21.2572 7.37435 L -21.2798 7.30897 L -21.3021 7.24352 L -21.3243 7.178 L -21.3463 7.11242 L -21.368 7.04676 L -21.3896 6.98104 L -21.411 6.91526 L -21.4321 6.8494 L -21.4531 6.78349 L -21.4738 6.71751 L -21.4944 6.65146 L -21.5147 6.58536 L -21.5349 6.51919 L -21.5548 6.45296 L -21.5745 6.38667 L -21.5941 6.32031 L -21.6134 6.2539 L -21.6325 6.18743 L -21.6514 6.1209 L -21.6701 6.05432 L -21.6887 5.98767 L -21.707 5.92097 L -21.7593 5.72577 L -21.7768 5.65885 L -21.7941 5.59188 L -21.8111 5.52486 L -21.828 5.45778 L -21.8447 5.39066 L -21.8612 5.32348 L -21.8774 5.25625 L -21.8935 5.18897 L -21.9093 5.12165 L -21.925 5.05427 L -21.9404 4.98685 L -21.9556 4.91938 L -21.9706 4.85186 L -21.9855 4.7843 L -22.0001 4.71669 L -22.0145 4.64904 L -22.0286 4.58135 L -22.0426 4.51361 L -22.0564 4.44582 L -22.07 4.378 L -22.0833 4.31014 L -22.0965 4.24223 L -22.1094 4.17428 L -22.0484 4.12418 L -21.9874 4.07406 L -21.9263 4.02393 L -21.8652 3.97379 L -21.8039 3.92364 L -21.7427 3.87347 L -21.6813 3.8233 L -21.6199 3.77311 L -21.5584 3.72291 L -21.4969 3.67269 L -21.4352 3.62247 L -21.3735 3.57224 L -21.3118 3.52199 L -21.2499 3.47173 L -21.188 3.42146 L -21.126 3.37117 L -21.064 3.32088 L -21.0019 3.27057 L -20.9397 3.22026 L -20.8774 3.16993 L -20.815 3.11958 L -20.7526 3.06923 L -20.6901 3.01887 L -20.6275 2.96849 L -20.5648 2.9181 L -20.5021 2.86771 L -20.4392 2.8173 L -20.3763 2.76687 L -20.3133 2.71644 L -20.2503 2.666 L -20.2503 2.666 L -20.3242 2.6336 L -20.3981 2.60119 L -20.472 2.56877 L -20.5457 2.53634 L -20.6194 2.5039 L -20.6929 2.47145 L -20.7664 2.43899 L -20.8398 2.40652 L -20.9132 2.37404 L -20.9864 2.34155 L -21.0596 2.30906 L -21.1327 2.27655 L -21.2058 2.24404 L -21.2787 2.21152 L -21.3516 2.17899 L -21.4244 2.14646 L -21.4971 2.11391 L -21.5698 2.08136 L -21.6424 2.04881 L -21.7149 2.01624 L -21.7874 1.98367 L -21.8598 1.9511 L -21.9321 1.91852 L -22.0043 1.88593 L -22.0765 1.85333 L -22.1486 1.82074 L -22.2207 1.78813 L -22.2927 1.75552 L -22.3646 1.7229 L -22.4364 1.69028 L -22.4415 1.62131 L -22.4464 1.55231 L -22.4511 1.4833 L -22.4555 1.41428 L -22.4597 1.34524 L -22.4638 1.27619 L -22.4676 1.20713 L -22.4712 1.13806 L -22.4746 1.06898 L -22.4778 0.999882 L -22.4807 0.93078 L -22.4835 0.861668 L -22.486 0.792548 L -22.4884 0.723421 L -22.4905 0.654286 L -22.4924 0.585146 L -22.4941 0.516 L -22.4956 0.446849 L -22.4968 0.377694 L -22.4979 0.308536 L -22.4987 0.239374 L -22.4994 0.17021 L -22.4998 0.101045 L -22.4998 -0.101045 L -22.4994 -0.17021 L -22.4987 -0.239374 L -22.4979 -0.308536 L -22.4968 -0.377694 L -22.4956 -0.446849 L -22.4941 -0.516 L -22.4924 -0.585146 L -22.4905 -0.654286 L -22.4884 -0.723421 L -22.486 -0.792548 L -22.4835 -0.861668 L -22.4807 -0.93078 L -22.4778 -0.999882 L -22.4746 -1.06898 L -22.4712 -1.13806 L -22.4676 -1.20713 L -22.4638 -1.27619 L -22.4597 -1.34524 L -22.4555 -1.41428 L -22.4511 -1.4833 L -22.4464 -1.55231 L -22.4415 -1.62131 L -22.4364 -1.69028 L -22.3646 -1.7229 L -22.2927 -1.75552 L -22.2207 -1.78813 L -22.1486 -1.82074 L -22.0765 -1.85333 L -22.0043 -1.88593 L -21.9321 -1.91852 L -21.8598 -1.9511 L -21.7874 -1.98367 L -21.7149 -2.01624 L -21.6424 -2.04881 L -21.5698 -2.08136 L -21.4971 -2.11391 L -21.4244 -2.14646 L -21.3516 -2.17899 L -21.2787 -2.21152 L -21.2058 -2.24404 L -21.1327 -2.27655 L -21.0596 -2.30906 L -20.9864 -2.34155 L -20.9132 -2.37404 L -20.8398 -2.40652 L -20.7664 -2.43899 L -20.6929 -2.47145 L -20.6194 -2.5039 L -20.5457 -2.53634 L -20.472 -2.56877 L -20.3981 -2.60119 L -20.3242 -2.6336 L -20.2503 -2.666 L -20.2503 -2.666 L -20.3133 -2.71644 L -20.3763 -2.76687 L -20.4392 -2.8173 L -20.5021 -2.86771 L -20.5648 -2.9181 L -20.6275 -2.96849 L -20.6901 -3.01887 L -20.7526 -3.06923 L -20.815 -3.11958 L -20.8774 -3.16993 L -20.9397 -3.22026 L -21.0019 -3.27057 L -21.064 -3.32088 L -21.126 -3.37117 L -21.188 -3.42146 L -21.2499 -3.47173 L -21.3118 -3.52199 L -21.3735 -3.57224 L -21.4352 -3.62247 L -21.4969 -3.67269 L -21.5584 -3.72291 L -21.6199 -3.77311 L -21.6813 -3.8233 L -21.7427 -3.87347 L -21.8039 -3.92364 L -21.8652 -3.97379 L -21.9263 -4.02393 L -21.9874 -4.07406 L -22.0484 -4.12418 L -22.1094 -4.17428 L -22.0965 -4.24223 L -22.0833 -4.31014 L -22.07 -4.378 L -22.0564 -4.44582 L -22.0426 -4.51361 L -22.0286 -4.58135 L -22.0145 -4.64904 L -22.0001 -4.71669 L -21.9855 -4.7843 L -21.9706 -4.85186 L -21.9556 -4.91938 L -21.9404 -4.98685 L -21.925 -5.05427 L -21.9093 -5.12165 L -21.8935 -5.18897 L -21.8774 -5.25625 L -21.8612 -5.32348 L -21.8447 -5.39066 L -21.828 -5.45778 L -21.8111 -5.52486 L -21.7941 -5.59188 L -21.7768 -5.65885 L -21.7593 -5.72577 L -21.707 -5.92097 L -21.6887 -5.98767 L -21.6701 -6.05432 L -21.6514 -6.1209 L -21.6325 -6.18743 L -21.6134 -6.2539 L -21.5941 -6.32031 L -21.5745 -6.38667 L -21.5548 -6.45296 L -21.5349 -6.51919 L -21.5147 -6.58536 L -21.4944 -6.65146 L -21.4738 -6.71751 L -21.4531 -6.78349 L -21.4321 -6.8494 L -21.411 -6.91526 L -21.3896 -6.98104 L -21.368 -7.04676 L -21.3463 -7.11242 L -21.3243 -7.178 L -21.3021 -7.24352 L -21.2798 -7.30897 L -21.2572 -7.37435 L -21.2344 -7.43966 L -21.1566 -7.45257 L -21.0787 -7.46546 L -21.0007 -7.47833 L -20.9227 -7.49118 L -20.8446 -7.504 L -20.7664 -7.51681 L -20.6882 -7.52959 L -20.6099 -7.54234 L -20.5316 -7.55507 L -20.4532 -7.56778 L -20.3747 -7.58046 L -20.2961 -7.59312 L -20.2175 -7.60576 L -20.1388 -7.61836 L -20.0601 -7.63095 L -19.9813 -7.6435 L -19.9024 -7.65603 L -19.8234 -7.66853 L -19.7444 -7.68101 L -19.6653 -7.69346 L -19.5861 -7.70588 L -19.5069 -7.71827 L -19.4276 -7.73063 L -19.3482 -7.74296 L -19.2687 -7.75526 L -19.1892 -7.76753 L -19.1096 -7.77978 L -19.0299 -7.79199 L -18.9501 -7.80416 L -18.8702 -7.81631 L -18.8702 -7.81631 L -18.9181 -7.88136 L -18.9659 -7.94638 L -19.0136 -8.01137 L -19.0613 -8.07632 L -19.1088 -8.14124 L -19.1563 -8.20613 L -19.2037 -8.27099 L -19.2511 -8.33582 L -19.2984 -8.40061 L -19.3456 -8.46538 L -19.3927 -8.53011 L -19.4398 -8.59481 L -19.4867 -8.65949 L -19.5337 -8.72413 L -19.5805 -8.78874 L -19.6273 -8.85332 L -19.674 -8.91787 L -19.7207 -8.98239 L -19.7673 -9.04688 L -19.8138 -9.11135 L -19.8603 -9.17578 L -19.9067 -9.24018 L -19.953 -9.30456 L -19.9993 -9.3689 L -20.0455 -9.43322 L -20.0916 -9.49751 L -20.1377 -9.56177 L -20.1838 -9.626 L -20.2297 -9.6902 L -20.2757 -9.75438 L -20.2456 -9.81666 L -20.2153 -9.87885 L -20.1848 -9.94095 L -20.1542 -10.003 L -20.1233 -10.0649 L -20.0923 -10.1267 L -20.0611 -10.1884 L -20.0297 -10.25 L -19.9981 -10.3115 L -19.9663 -10.373 L -19.9343 -10.4343 L -19.9021 -10.4955 L -19.8698 -10.5567 L -19.8372 -10.6177 L -19.8045 -10.6786 L -19.7716 -10.7394 L -19.7384 -10.8002 L -19.7052 -10.8608 L -19.6717 -10.9213 L -19.638 -10.9817 L -19.6042 -11.0421 L -19.5701 -11.1023 L -19.5359 -11.1624 L -19.4349 -11.3374 L -19.3999 -11.3971 L -19.3648 -11.4567 L -19.3295 -11.5161 L -19.294 -11.5755 L -19.2583 -11.6348 L -19.2224 -11.6939 L -19.1864 -11.7529 L -19.1502 -11.8119 L -19.1138 -11.8707 L -19.0772 -11.9294 L -19.0404 -11.988 L -19.0035 -12.0464 L -18.9664 -12.1048 L -18.9291 -12.1631 L -18.8916 -12.2212 L -18.8539 -12.2792 L -18.8161 -12.3371 L -18.7781 -12.3949 L -18.7399 -12.4526 L -18.7015 -12.5101 L -18.663 -12.5675 L -18.6243 -12.6248 L -18.5854 -12.682 L -18.5068 -12.6744 L -18.4282 -12.6667 L -18.3496 -12.6589 L -18.2709 -12.6511 L -18.1922 -12.6433 L -18.1133 -12.6354 L -18.0345 -12.6275 L -17.9556 -12.6196 L -17.8766 -12.6116 L -17.7976 -12.6036 L -17.7185 -12.5955 L -17.6393 -12.5874 L -17.5601 -12.5793 L -17.4809 -12.5711 L -17.4015 -12.5629 L -17.3222 -12.5546 L -17.2427 -12.5463 L -17.1632 -12.5379 L -17.0836 -12.5295 L -17.004 -12.5211 L -16.9243 -12.5126 L -16.8446 -12.504 L -16.7648 -12.4954 L -16.6849 -12.4868 L -16.6049 -12.4781 L -16.5249 -12.4694 L -16.4449 -12.4606 L -16.3647 -12.4518 L -16.2845 -12.4429 L -16.2042 -12.434 L -16.2042 -12.434 L -16.2336 -12.5092 L -16.263 -12.5844 L -16.2923 -12.6595 L -16.3215 -12.7345 L -16.3506 -12.8096 L -16.3797 -12.8845 L -16.4087 -12.9595 L -16.4377 -13.0343 L -16.4666 -13.1092 L -16.4954 -13.1839 L -16.5242 -13.2587 L -16.5529 -13.3333 L -16.5815 -13.408 L -16.6101 -13.4825 L -16.6386 -13.5571 L -16.6671 -13.6316 L -16.6955 -13.706 L -16.7239 -13.7804 L -16.7522 -13.8548 L -16.7805 -13.9291 L -16.8087 -14.0033 L -16.8368 -14.0776 L -16.8649 -14.1517 L -16.893 -14.2259 L -16.921 -14.2999 L -16.9489 -14.374 L -16.9768 -14.448 L -17.0046 -14.5219 L -17.0324 -14.5959 L -17.0602 -14.6697 L -17.015 -14.7221 L -16.9696 -14.7743 L -16.9241 -14.8264 L -16.8785 -14.8784 L -16.8327 -14.9302 L -16.7867 -14.9819 L -16.7406 -15.0334 L -16.6943 -15.0848 L -16.6478 -15.1361 L -16.6012 -15.1872 L -16.5544 -15.2381 L -16.5075 -15.2889 L -16.4604 -15.3396 L -16.4132 -15.3901 L -16.3658 -15.4405 L -16.3183 -15.4908 L -16.2706 -15.5409 L -16.2227 -15.5908 L -16.1747 -15.6406 L -16.1266 -15.6902 L -16.0783 -15.7397 L -16.0298 -15.7891 L -15.9812 -15.8383 L -15.8383 -15.9812 L -15.7891 -16.0298 L -15.7397 -16.0783 L -15.6902 -16.1266 L -15.6406 -16.1747 L -15.5908 -16.2227 L -15.5409 -16.2706 L -15.4908 -16.3183 L -15.4405 -16.3658 L -15.3901 -16.4132 L -15.3396 -16.4604 L -15.2889 -16.5075 L -15.2381 -16.5544 L -15.1872 -16.6012 L -15.1361 -16.6478 L -15.0848 -16.6943 L -15.0334 -16.7406 L -14.9819 -16.7867 L -14.9302 -16.8327 L -14.8784 -16.8785 L -14.8264 -16.9241 L -14.7743 -16.9696 L -14.7221 -17.015 L -14.6697 -17.0602 L -14.5959 -17.0324 L -14.5219 -17.0046 L -14.448 -16.9768 L -14.374 -16.9489 L -14.2999 -16.921 L -14.2259 -16.893 L -14.1517 -16.8649 L -14.0776 -16.8368 L -14.0033 -16.8087 L -13.9291 -16.7805 L -13.8548 -16.7522 L -13.7804 -16.7239 L -13.706 -16.6955 L -13.6316 -16.6671 L -13.5571 -16.6386 L -13.4825 -16.6101 L -13.408 -16.5815 L -13.3333 -16.5529 L -13.2587 -16.5242 L -13.1839 -16.4954 L -13.1092 -16.4666 L -13.0343 -16.4377 L -12.9595 -16.4087 L -12.8845 -16.3797 L -12.8096 -16.3506 L -12.7345 -16.3215 L -12.6595 -16.2923 L -12.5844 -16.263 L -12.5092 -16.2336 L -12.434 -16.2042 L -12.434 -16.2042 L -12.4429 -16.2845 L -12.4518 -16.3647 L -12.4606 -16.4449 L -12.4694 -16.5249 L -12.4781 -16.6049 L -12.4868 -16.6849 L -12.4954 -16.7648 L -12.504 -16.8446 L -12.5126 -16.9243 L -12.5211 -17.004 L -12.5295 -17.0836 L -12.5379 -17.1632 L -12.5463 -17.2427 L -12.5546 -17.3222 L -12.5629 -17.4015 L -12.5711 -17.4809 L -12.5793 -17.5601 L -12.5874 -17.6393 L -12.5955 -17.7185 L -12.6036 -17.7976 L -12.6116 -17.8766 L -12.6196 -17.9556 L -12.6275 -18.0345 L -12.6354 -18.1133 L -12.6433 -18.1922 L -12.6511 -18.2709 L -12.6589 -18.3496 L -12.6667 -18.4282 L -12.6744 -18.5068 L -12.682 -18.5854 L -12.6248 -18.6243 L -12.5675 -18.663 L -12.5101 -18.7015 L -12.4526 -18.7399 L -12.3949 -18.7781 L -12.3371 -18.8161 L -12.2792 -18.8539 L -12.2212 -18.8916 L -12.1631 -18.9291 L -12.1048 -18.9664 L -12.0464 -19.0035 L -11.988 -19.0404 L -11.9294 -19.0772 L -11.8707 -19.1138 L -11.8119 -19.1502 L -11.7529 -19.1864 L -11.6939 -19.2224 L -11.6348 -19.2583 L -11.5755 -19.294 L -11.5161 -19.3295 L -11.4567 -19.3648 L -11.3971 -19.3999 L -11.3374 -19.4349 L -11.1624 -19.5359 L -11.1023 -19.5701 L -11.0421 -19.6042 L -10.9817 -19.638 L -10.9213 -19.6717 L -10.8608 -19.7052 L -10.8002 -19.7384 L -10.7394 -19.7716 L -10.6786 -19.8045 L -10.6177 -19.8372 L -10.5567 -19.8698 L -10.4955 -19.9021 L -10.4343 -19.9343 L -10.373 -19.9663 L -10.3115 -19.9981 L -10.25 -20.0297 L -10.1884 -20.0611 L -10.1267 -20.0923 L -10.0649 -20.1233 L -10.003 -20.1542 L -9.94095 -20.1848 L -9.87885 -20.2153 L -9.81666 -20.2456 L -9.75438 -20.2757 L -9.6902 -20.2297 L -9.626 -20.1838 L -9.56177 -20.1377 L -9.49751 -20.0916 L -9.43322 -20.0455 L -9.3689 -19.9993 L -9.30456 -19.953 L -9.24018 -19.9067 L -9.17578 -19.8603 L -9.11135 -19.8138 L -9.04688 -19.7673 L -8.98239 -19.7207 L -8.91787 -19.674 L -8.85332 -19.6273 L -8.78874 -19.5805 L -8.72413 -19.5337 L -8.65949 -19.4867 L -8.59481 -19.4398 L -8.53011 -19.3927 L -8.46538 -19.3456 L -8.40061 -19.2984 L -8.33582 -19.2511 L -8.27099 -19.2037 L -8.20613 -19.1563 L -8.14124 -19.1088 L -8.07632 -19.0613 L -8.01137 -19.0136 L -7.94638 -18.9659 L -7.88136 -18.9181 L -7.81631 -18.8702 L -7.81631 -18.8702 L -7.80416 -18.9501 L -7.79199 -19.0299 L -7.77978 -19.1096 L -7.76753 -19.1892 L -7.75526 -19.2687 L -7.74296 -19.3482 L -7.73063 -19.4276 L -7.71827 -19.5069 L -7.70588 -19.5861 L -7.69346 -19.6653 L -7.68101 -19.7444 L -7.66853 -19.8234 L -7.65603 -19.9024 L -7.6435 -19.9813 L -7.63095 -20.0601 L -7.61836 -20.1388 L -7.60576 -20.2175 L -7.59312 -20.2961 L -7.58046 -20.3747 L -7.56778 -20.4532 L -7.55507 -20.5316 L -7.54234 -20.6099 L -7.52959 -20.6882 L -7.51681 -20.7664 L -7.504 -20.8446 L -7.49118 -20.9227 L -7.47833 -21.0007 L -7.46546 -21.0787 L -7.45257 -21.1566 L -7.43966 -21.2344 L -7.37435 -21.2572 L -7.30897 -21.2798 L -7.24352 -21.3021 L -7.178 -21.3243 L -7.11242 -21.3463 L -7.04676 -21.368 L -6.98104 -21.3896 L -6.91526 -21.411 L -6.8494 -21.4321 L -6.78349 -21.4531 L -6.71751 -21.4738 L -6.65146 -21.4944 L -6.58536 -21.5147 L -6.51919 -21.5349 L -6.45296 -21.5548 L -6.38667 -21.5745 L -6.32031 -21.5941 L -6.2539 -21.6134 L -6.18743 -21.6325 L -6.1209 -21.6514 L -6.05432 -21.6701 L -5.98767 -21.6887 L -5.92097 -21.707 L -5.72577 -21.7593 L -5.65885 -21.7768 L -5.59188 -21.7941 L -5.52486 -21.8111 L -5.45778 -21.828 L -5.39066 -21.8447 L -5.32348 -21.8612 L -5.25625 -21.8774 L -5.18897 -21.8935 L -5.12165 -21.9093 L -5.05427 -21.925 L -4.98685 -21.9404 L -4.91938 -21.9556 L -4.85186 -21.9706 L -4.7843 -21.9855 L -4.71669 -22.0001 L -4.64904 -22.0145 L -4.58135 -22.0286 L -4.51361 -22.0426 L -4.44582 -22.0564 L -4.378 -22.07 L -4.31014 -22.0833 L -4.24223 -22.0965 L -4.17428 -22.1094 L -4.12418 -22.0484 L -4.07406 -21.9874 L -4.02393 -21.9263 L -3.97379 -21.8652 L -3.92364 -21.8039 L -3.87347 -21.7427 L -3.8233 -21.6813 L -3.77311 -21.6199 L -3.72291 -21.5584 L -3.67269 -21.4969 L -3.62247 -21.4352 L -3.57224 -21.3735 L -3.52199 -21.3118 L -3.47173 -21.2499 L -3.42146 -21.188 L -3.37117 -21.126 L -3.32088 -21.064 L -3.27057 -21.0019 L -3.22026 -20.9397 L -3.16993 -20.8774 L -3.11958 -20.815 L -3.06923 -20.7526 L -3.01887 -20.6901 L -2.96849 -20.6275 L -2.9181 -20.5648 L -2.86771 -20.5021 L -2.8173 -20.4392 L -2.76687 -20.3763 L -2.71644 -20.3133 L -2.666 -20.2503 L -2.666 -20.2503 L -2.6336 -20.3242 L -2.60119 -20.3981 L -2.56877 -20.472 L -2.53634 -20.5457 L -2.5039 -20.6194 L -2.47145 -20.6929 L -2.43899 -20.7664 L -2.40652 -20.8398 L -2.37404 -20.9132 L -2.34155 -20.9864 L -2.30906 -21.0596 L -2.27655 -21.1327 L -2.24404 -21.2058 L -2.21152 -21.2787 L -2.17899 -21.3516 L -2.14646 -21.4244 L -2.11391 -21.4971 L -2.08136 -21.5698 L -2.04881 -21.6424 L -2.01624 -21.7149 L -1.98367 -21.7874 L -1.9511 -21.8598 L -1.91852 -21.9321 L -1.88593 -22.0043 L -1.85333 -22.0765 L -1.82074 -22.1486 L -1.78813 -22.2207 L -1.75552 -22.2927 L -1.7229 -22.3646 L -1.69028 -22.4364 L -1.62131 -22.4415 L -1.55231 -22.4464 L -1.4833 -22.4511 L -1.41428 -22.4555 L -1.34524 -22.4597 L -1.27619 -22.4638 L -1.20713 -22.4676 L -1.13806 -22.4712 L -1.06898 -22.4746 L -0.999882 -22.4778 L -0.93078 -22.4807 L -0.861668 -22.4835 L -0.792548 -22.486 L -0.723421 -22.4884 L -0.654286 -22.4905 L -0.585146 -22.4924 L -0.516 -22.4941 L -0.446849 -22.4956 L -0.377694 -22.4968 L -0.308536 -22.4979 L -0.239374 -22.4987 L -0.17021 -22.4994 L -0.101045 -22.4998 L 0.101045 -22.4998 L 0.17021 -22.4994 L 0.239374 -22.4987 L 0.308536 -22.4979 L 0.377694 -22.4968 L 0.446849 -22.4956 L 0.516 -22.4941 L 0.585146 -22.4924 L 0.654286 -22.4905 L 0.723421 -22.4884 L 0.792548 -22.486 L 0.861668 -22.4835 L 0.93078 -22.4807 L 0.999882 -22.4778 L 1.06898 -22.4746 L 1.13806 -22.4712 L 1.20713 -22.4676 L 1.27619 -22.4638 L 1.34524 -22.4597 L 1.41428 -22.4555 L 1.4833 -22.4511 L 1.55231 -22.4464 L 1.62131 -22.4415 L 1.69028 -22.4364 L 1.7229 -22.3646 L 1.75552 -22.2927 L 1.78813 -22.2207 L 1.82074 -22.1486 L 1.85333 -22.0765 L 1.88593 -22.0043 L 1.91852 -21.9321 L 1.9511 -21.8598 L 1.98367 -21.7874 L 2.01624 -21.7149 L 2.04881 -21.6424 L 2.08136 -21.5698 L 2.11391 -21.4971 L 2.14646 -21.4244 L 2.17899 -21.3516 L 2.21152 -21.2787 L 2.24404 -21.2058 L 2.27655 -21.1327 L 2.30906 -21.0596 L 2.34155 -20.9864 L 2.37404 -20.9132 L 2.40652 -20.8398 L 2.43899 -20.7664 L 2.47145 -20.6929 L 2.5039 -20.6194 L 2.53634 -20.5457 L 2.56877 -20.472 L 2.60119 -20.3981 L 2.6336 -20.3242 L 2.666 -20.2503 L 2.666 -20.2503 L 2.71644 -20.3133 L 2.76687 -20.3763 L 2.8173 -20.4392 L 2.86771 -20.5021 L 2.9181 -20.5648 L 2.96849 -20.6275 L 3.01887 -20.6901 L 3.06923 -20.7526 L 3.11958 -20.815 L 3.16993 -20.8774 L 3.22026 -20.9397 L 3.27057 -21.0019 L 3.32088 -21.064 L 3.37117 -21.126 L 3.42146 -21.188 L 3.47173 -21.2499 L 3.52199 -21.3118 L 3.57224 -21.3735 L 3.62247 -21.4352 L 3.67269 -21.4969 L 3.72291 -21.5584 L 3.77311 -21.6199 L 3.8233 -21.6813 L 3.87347 -21.7427 L 3.92364 -21.8039 L 3.97379 -21.8652 L 4.02393 -21.9263 L 4.07406 -21.9874 L 4.12418 -22.0484 L 4.17428 -22.1094 L 4.24223 -22.0965 L 4.31014 -22.0833 L 4.378 -22.07 L 4.44582 -22.0564 L 4.51361 -22.0426 L 4.58135 -22.0286 L 4.64904 -22.0145 L 4.71669 -22.0001 L 4.7843 -21.9855 L 4.85186 -21.9706 L 4.91938 -21.9556 L 4.98685 -21.9404 L 5.05427 -21.925 L 5.12165 -21.9093 L 5.18897 -21.8935 L 5.25625 -21.8774 L 5.32348 -21.8612 L 5.39066 -21.8447 L 5.45778 -21.828 L 5.52486 -21.8111 L 5.59188 -21.7941 L 5.65885 -21.7768 L 5.72577 -21.7593 L 5.92097 -21.707 L 5.98767 -21.6887 L 6.05432 -21.6701 L 6.1209 -21.6514 L 6.18743 -21.6325 L 6.2539 -21.6134 L 6.32031 -21.5941 L 6.38667 -21.5745 L 6.45296 -21.5548 L 6.51919 -21.5349 L 6.58536 -21.5147 L 6.65146 -21.4944 L 6.71751 -21.4738 L 6.78349 -21.4531 L 6.8494 -21.4321 L 6.91526 -21.411 L 6.98104 -21.3896 L 7.04676 -21.368 L 7.11242 -21.3463 L 7.178 -21.3243 L 7.24352 -21.3021 L 7.30897 -21.2798 L 7.37435 -21.2572 L 7.43966 -21.2344 L 7.45257 -21.1566 L 7.46546 -21.0787 L 7.47833 -21.0007 L 7.49118 -20.9227 L 7.504 -20.8446 L 7.51681 -20.7664 L 7.52959 -20.6882 L 7.54234 -20.6099 L 7.55507 -20.5316 L 7.56778 -20.4532 L 7.58046 -20.3747 L 7.59312 -20.2961 L 7.60576 -20.2175 L 7.61836 -20.1388 L 7.63095 -20.0601 L 7.6435 -19.9813 L 7.65603 -19.9024 L 7.66853 -19.8234 L 7.68101 -19.7444 L 7.69346 -19.6653 L 7.70588 -19.5861 L 7.71827 -19.5069 L 7.73063 -19.4276 L 7.74296 -19.3482 L 7.75526 -19.2687 L 7.76753 -19.1892 L 7.77978 -19.1096 L 7.79199 -19.0299 L 7.80416 -18.9501 L 7.81631 -18.8702 L 7.81631 -18.8702 L 7.88136 -18.9181 L 7.94638 -18.9659 L 8.01137 -19.0136 L 8.07632 -19.0613 L 8.14124 -19.1088 L 8.20613 -19.1563 L 8.27099 -19.2037 L 8.33582 -19.2511 L 8.40061 -19.2984 L 8.46538 -19.3456 L 8.53011 -19.3927 L 8.59481 -19.4398 L 8.65949 -19.4867 L 8.72413 -19.5337 L 8.78874 -19.5805 L 8.85332 -19.6273 L 8.91787 -19.674 L 8.98239 -19.7207 L 9.04688 -19.7673 L 9.11135 -19.8138 L 9.17578 -19.8603 L 9.24018 -19.9067 L 9.30456 -19.953 L 9.3689 -19.9993 L 9.43322 -20.0455 L 9.49751 -20.0916 L 9.56177 -20.1377 L 9.626 -20.1838 L 9.6902 -20.2297 L 9.75438 -20.2757 L 9.81666 -20.2456 L 9.87885 -20.2153 L 9.94095 -20.1848 L 10.003 -20.1542 L 10.0649 -20.1233 L 10.1267 -20.0923 L 10.1884 -20.0611 L 10.25 -20.0297 L 10.3115 -19.9981 L 10.373 -19.9663 L 10.4343 -19.9343 L 10.4955 -19.9021 L 10.5567 -19.8698 L 10.6177 -19.8372 L 10.6786 -19.8045 L 10.7394 -19.7716 L 10.8002 -19.7384 L 10.8608 -19.7052 L 10.9213 -19.6717 L 10.9817 -19.638 L 11.0421 -19.6042 L 11.1023 -19.5701 L 11.1624 -19.5359 L 11.3374 -19.4349 L 11.3971 -19.3999 L 11.4567 -19.3648 L 11.5161 -19.3295 L 11.5755 -19.294 L 11.6348 -19.2583 L 11.6939 -19.2224 L 11.7529 -19.1864 L 11.8119 -19.1502 L 11.8707 -19.1138 L 11.9294 -19.0772 L 11.988 -19.0404 L 12.0464 -19.0035 L 12.1048 -18.9664 L 12.1631 -18.9291 L 12.2212 -18.8916 L 12.2792 -18.8539 L 12.3371 -18.8161 L 12.3949 -18.7781 L 12.4526 -18.7399 L 12.5101 -18.7015 L 12.5675 -18.663 L 12.6248 -18.6243 L 12.682 -18.5854 L 12.6744 -18.5068 L 12.6667 -18.4282 L 12.6589 -18.3496 L 12.6511 -18.2709 L 12.6433 -18.1922 L 12.6354 -18.1133 L 12.6275 -18.0345 L 12.6196 -17.9556 L 12.6116 -17.8766 L 12.6036 -17.7976 L 12.5955 -17.7185 L 12.5874 -17.6393 L 12.5793 -17.5601 L 12.5711 -17.4809 L 12.5629 -17.4015 L 12.5546 -17.3222 L 12.5463 -17.2427 L 12.5379 -17.1632 L 12.5295 -17.0836 L 12.5211 -17.004 L 12.5126 -16.9243 L 12.504 -16.8446 L 12.4954 -16.7648 L 12.4868 -16.6849 L 12.4781 -16.6049 L 12.4694 -16.5249 L 12.4606 -16.4449 L 12.4518 -16.3647 L 12.4429 -16.2845 L 12.434 -16.2042 L 12.434 -16.2042 L 12.5092 -16.2336 L 12.5844 -16.263 L 12.6595 -16.2923 L 12.7345 -16.3215 L 12.8096 -16.3506 L 12.8845 -16.3797 L 12.9595 -16.4087 L 13.0343 -16.4377 L 13.1092 -16.4666 L 13.1839 -16.4954 L 13.2587 -16.5242 L 13.3333 -16.5529 L 13.408 -16.5815 L 13.4825 -16.6101 L 13.5571 -16.6386 L 13.6316 -16.6671 L 13.706 -16.6955 L 13.7804 -16.7239 L 13.8548 -16.7522 L 13.9291 -16.7805 L 14.0033 -16.8087 L 14.0776 -16.8368 L 14.1517 -16.8649 L 14.2259 -16.893 L 14.2999 -16.921 L 14.374 -16.9489 L 14.448 -16.9768 L 14.5219 -17.0046 L 14.5959 -17.0324 L 14.6697 -17.0602 L 14.7221 -17.015 L 14.7743 -16.9696 L 14.8264 -16.9241 L 14.8784 -16.8785 L 14.9302 -16.8327 L 14.9819 -16.7867 L 15.0334 -16.7406 L 15.0848 -16.6943 L 15.1361 -16.6478 L 15.1872 -16.6012 L 15.2381 -16.5544 L 15.2889 -16.5075 L 15.3396 -16.4604 L 15.3901 -16.4132 L 15.4405 -16.3658 L 15.4908 -16.3183 L 15.5409 -16.2706 L 15.5908 -16.2227 L 15.6406 -16.1747 L 15.6902 -16.1266 L 15.7397 -16.0783 L 15.7891 -16.0298 L 15.8383 -15.9812 L 15.9812 -15.8383 L 16.0298 -15.7891 L 16.0783 -15.7397 L 16.1266 -15.6902 L 16.1747 -15.6406 L 16.2227 -15.5908 L 16.2706 -15.5409 L 16.3183 -15.4908 L 16.3658 -15.4405 L 16.4132 -15.3901 L 16.4604 -15.3396 L 16.5075 -15.2889 L 16.5544 -15.2381 L 16.6012 -15.1872 L 16.6478 -15.1361 L 16.6943 -15.0848 L 16.7406 -15.0334 L 16.7867 -14.9819 L 16.8327 -14.9302 L 16.8785 -14.8784 L 16.9241 -14.8264 L 16.9696 -14.7743 L 17.015 -14.7221 L 17.0602 -14.6697 L 17.0324 -14.5959 L 17.0046 -14.5219 L 16.9768 -14.448 L 16.9489 -14.374 L 16.921 -14.2999 L 16.893 -14.2259 L 16.8649 -14.1517 L 16.8368 -14.0776 L 16.8087 -14.0033 L 16.7805 -13.9291 L 16.7522 -13.8548 L 16.7239 -13.7804 L 16.6955 -13.706 L 16.6671 -13.6316 L 16.6386 -13.5571 L 16.6101 -13.4825 L 16.5815 -13.408 L 16.5529 -13.3333 L 16.5242 -13.2587 L 16.4954 -13.1839 L 16.4666 -13.1092 L 16.4377 -13.0343 L 16.4087 -12.9595 L 16.3797 -12.8845 L 16.3506 -12.8096 L 16.3215 -12.7345 L 16.2923 -12.6595 L 16.263 -12.5844 L 16.2336 -12.5092 L 16.2042 -12.434 L 16.2042 -12.434 L 16.2845 -12.4429 L 16.3647 -12.4518 L 16.4449 -12.4606 L 16.5249 -12.4694 L 16.6049 -12.4781 L 16.6849 -12.4868 L 16.7648 -12.4954 L 16.8446 -12.504 L 16.9243 -12.5126 L 17.004 -12.5211 L 17.0836 -12.5295 L 17.1632 -12.5379 L 17.2427 -12.5463 L 17.3222 -12.5546 L 17.4015 -12.5629 L 17.4809 -12.5711 L 17.5601 -12.5793 L 17.6393 -12.5874 L 17.7185 -12.5955 L 17.7976 -12.6036 L 17.8766 -12.6116 L 17.9556 -12.6196 L 18.0345 -12.6275 L 18.1133 -12.6354 L 18.1922 -12.6433 L 18.2709 -12.6511 L 18.3496 -12.6589 L 18.4282 -12.6667 L 18.5068 -12.6744 L 18.5854 -12.682 L 18.6243 -12.6248 L 18.663 -12.5675 L 18.7015 -12.5101 L 18.7399 -12.4526 L 18.7781 -12.3949 L 18.8161 -12.3371 L 18.8539 -12.2792 L 18.8916 -12.2212 L 18.9291 -12.1631 L 18.9664 -12.1048 L 19.0035 -12.0464 L 19.0404 -11.988 L 19.0772 -11.9294 L 19.1138 -11.8707 L 19.1502 -11.8119 L 19.1864 -11.7529 L 19.2224 -11.6939 L 19.2583 -11.6348 L 19.294 -11.5755 L 19.3295 -11.5161 L 19.3648 -11.4567 L 19.3999 -11.3971 L 19.4349 -11.3374 L 19.5359 -11.1624 L 19.5701 -11.1023 L 19.6042 -11.0421 L 19.638 -10.9817 L 19.6717 -10.9213 L 19.7052 -10.8608 L 19.7384 -10.8002 L 19.7716 -10.7394 L 19.8045 -10.6786 L 19.8372 -10.6177 L 19.8698 -10.5567 L 19.9021 -10.4955 L 19.9343 -10.4343 L 19.9663 -10.373 L 19.9981 -10.3115 L 20.0297 -10.25 L 20.0611 -10.1884 L 20.0923 -10.1267 L 20.1233 -10.0649 L 20.1542 -10.003 L 20.1848 -9.94095 L 20.2153 -9.87885 L 20.2456 -9.81666 L 20.2757 -9.75438 L 20.2297 -9.6902 L 20.1838 -9.626 L 20.1377 -9.56177 L 20.0916 -9.49751 L 20.0455 -9.43322 L 19.9993 -9.3689 L 19.953 -9.30456 L 19.9067 -9.24018 L 19.8603 -9.17578 L 19.8138 -9.11135 L 19.7673 -9.04688 L 19.7207 -8.98239 L 19.674 -8.91787 L 19.6273 -8.85332 L 19.5805 -8.78874 L 19.5337 -8.72413 L 19.4867 -8.65949 L 19.4398 -8.59481 L 19.3927 -8.53011 L 19.3456 -8.46538 L 19.2984 -8.40061 L 19.2511 -8.33582 L 19.2037 -8.27099 L 19.1563 -8.20613 L 19.1088 -8.14124 L 19.0613 -8.07632 L 19.0136 -8.01137 L 18.9659 -7.94638 L 18.9181 -7.88136 L 18.8702 -7.81631 L 18.8702 -7.81631 L 18.9501 -7.80416 L 19.0299 -7.79199 L 19.1096 -7.77978 L 19.1892 -7.76753 L 19.2687 -7.75526 L 19.3482 -7.74296 L 19.4276 -7.73063 L 19.5069 -7.71827 L 19.5861 -7.70588 L 19.6653 -7.69346 L 19.7444 -7.68101 L 19.8234 -7.66853 L 19.9024 -7.65603 L 19.9813 -7.6435 L 20.0601 -7.63095 L 20.1388 -7.61836 L 20.2175 -7.60576 L 20.2961 -7.59312 L 20.3747 -7.58046 L 20.4532 -7.56778 L 20.5316 -7.55507 L 20.6099 -7.54234 L 20.6882 -7.52959 L 20.7664 -7.51681 L 20.8446 -7.504 L 20.9227 -7.49118 L 21.0007 -7.47833 L 21.0787 -7.46546 L 21.1566 -7.45257 L 21.2344 -7.43966 L 21.2572 -7.37435 L 21.2798 -7.30897 L 21.3021 -7.24352 L 21.3243 -7.178 L 21.3463 -7.11242 L 21.368 -7.04676 L 21.3896 -6.98104 L 21.411 -6.91526 L 21.4321 -6.8494 L 21.4531 -6.78349 L 21.4738 -6.71751 L 21.4944 -6.65146 L 21.5147 -6.58536 L 21.5349 -6.51919 L 21.5548 -6.45296 L 21.5745 -6.38667 L 21.5941 -6.32031 L 21.6134 -6.2539 L 21.6325 -6.18743 L 21.6514 -6.1209 L 21.6701 -6.05432 L 21.6887 -5.98767 L 21.707 -5.92097 L 21.7593 -5.72577 L 21.7768 -5.65885 L 21.7941 -5.59188 L 21.8111 -5.52486 L 21.828 -5.45778 L 21.8447 -5.39066 L 21.8612 -5.32348 L 21.8774 -5.25625 L 21.8935 -5.18897 L 21.9093 -5.12165 L 21.925 -5.05427 L 21.9404 -4.98685 L 21.9556 -4.91938 L 21.9706 -4.85186 L 21.9855 -4.7843 L 22.0001 -4.71669 L 22.0145 -4.64904 L 22.0286 -4.58135 L 22.0426 -4.51361 L 22.0564 -4.44582 L 22.07 -4.378 L 22.0833 -4.31014 L 22.0965 -4.24223 L 22.1094 -4.17428 L 22.0484 -4.12418 L 21.9874 -4.07406 L 21.9263 -4.02393 L 21.8652 -3.97379 L 21.8039 -3.92364 L 21.7427 -3.87347 L 21.6813 -3.8233 L 21.6199 -3.77311 L 21.5584 -3.72291 L 21.4969 -3.67269 L 21.4352 -3.62247 L 21.3735 -3.57224 L 21.3118 -3.52199 L 21.2499 -3.47173 L 21.188 -3.42146 L 21.126 -3.37117 L 21.064 -3.32088 L 21.0019 -3.27057 L 20.9397 -3.22026 L 20.8774 -3.16993 L 20.815 -3.11958 L 20.7526 -3.06923 L 20.6901 -3.01887 L 20.6275 -2.96849 L 20.5648 -2.9181 L 20.5021 -2.86771 L 20.4392 -2.8173 L 20.3763 -2.76687 L 20.3133 -2.71644 L 20.2503 -2.666 L 20.2503 -2.666 L 20.3242 -2.6336 L 20.3981 -2.60119 L 20.472 -2.56877 L 20.5457 -2.53634 L 20.6194 -2.5039 L 20.6929 -2.47145 L 20.7664 -2.43899 L 20.8398 -2.40652 L 20.9132 -2.37404 L 20.9864 -2.34155 L 21.0596 -2.30906 L 21.1327 -2.27655 L 21.2058 -2.24404 L 21.2787 -2.21152 L 21.3516 -2.17899 L 21.4244 -2.14646 L 21.4971 -2.11391 L 21.5698 -2.08136 L 21.6424 -2.04881 L 21.7149 -2.01624 L 21.7874 -1.98367 L 21.8598 -1.9511 L 21.9321 -1.91852 L 22.0043 -1.88593 L 22.0765 -1.85333 L 22.1486 -1.82074 L 22.2207 -1.78813 L 22.2927 -1.75552 L 22.3646 -1.7229 L 22.4364 -1.69028 L 22.4415 -1.62131 L 22.4464 -1.55231 L 22.4511 -1.4833 L 22.4555 -1.41428 L 22.4597 -1.34524 L 22.4638 -1.27619 L 22.4676 -1.20713 L 22.4712 -1.13806 L 22.4746 -1.06898 L 22.4778 -0.999882 L 22.4807 -0.93078 L 22.4835 -0.861668 L 22.486 -0.792548 L 22.4884 -0.723421 L 22.4905 -0.654286 L 22.4924 -0.585146 L 22.4941 -0.516 L 22.4956 -0.446849 L 22.4968 -0.377694 L 22.4979 -0.308536 L 22.4987 -0.239374 L 22.4994 -0.17021 L 22.4998 -0.101045Z"
id="path1" />
</g>
</svg>
