<?xml version="1.0" encoding="UTF-8" standalone="no"?>
<svg version="1.1">
<g
style="fill:none;stroke:#000000;stroke-opacity:1;stroke-width:0.1">
<path d="M 24.7497 0.115866 L 24.7494 0.176894 L 24.7489 0.237921 L 24.7482 0.298947 L 24.7474 0.359971 L 24.7464 0.420993 L 24.7453 0.482012 L 24.744 0.543029 L 24.7426 0.604042 L 24.7411 0.665051 L 24.7393 0.726056 L 24.7375 0.787057 L 24.7355 0.848053 L 24.7333 0.909044 L 24.731 0.97003 L 24.7285 1.03101 L 24.7259 1.09198 L 24.7231 1.15295 L 24.7202 1.21391 L 24.7171 1.27486 L 24.7139 1.33581 L 24.7106 1.39674 L 24.707 1.45767 L 24.7034 1.51859 L 24.6995 1.5795 L 24.6956 1.6404 L 24.6915 1.70129 L 24.6286 1.72597 L 24.5656 1.75065 L 24.5027 1.77533 L 24.4397 1.80001 L 24.3767 1.82468 L 24.3136 1.84935 L 24.2505 1.87402 L 24.1874 1.89869 L 24.1242 1.92335 L 24.061 1.94801 L 23.9977 1.97267 L 23.9345 1.99732 L 23.8711 2.02197 L 23.8078 2.04662 L 23.7444 2.07126 L 23.681 2.09591 L 23.6175 2.12054 L 23.554 2.14518 L 23.4904 2.16981 L 23.4269 2.19444 L 23.3632 2.21906 L 23.2996 2.24368 L 23.2359 2.2683 L 23.1721 2.29291 L 23.1083 2.31752 L 23.0445 2.34212 L 22.9807 2.36672 L 22.9167 2.39132 L 22.8528 2.41591 L 22.7888 2.44049 L 22.7248 2.46508 L 22.6607 2.48965 L 22.5966 2.51423 L 22.5324 2.53879 L 22.5324 2.53879 L 22.5895 2.57702 L 22.6466 2.61525 L 22.7036 2.65347 L 22.7605 2.69168 L 22.8174 2.72989 L 22.8743 2.7681 L 22.9311 2.8063 L 22.9879 2.84449 L 23.0447 2.88268 L 23.1014 2.92086 L 23.158 2.95904 L 23.2147 2.99722 L 23.2713 3.03539 L 23.3278 3.07355 L 23.3843 3.11171 L 23.4408 3.14986 L 23.4972 3.18801 L 23.5536 3.22615 L 23.61 3.26429 L 23.6663 3.30242 L 23.7226 3.34055 L 23.7788 3.37867 L 23.835 3.41679 L 23.8912 3.4549 L 23.9473 3.49301 L 24.0034 3.53111 L 24.0595 3.56921 L 24.1155 3.6073 L 24.1715 3.64538 L 24.2275 3.68346 L 24.2834 3.72154 L 24.3393 3.75961 L 24.3951 3.79767 L 24.451 3.83573 L 24.4414 3.89601 L 24.4318 3.95627 L 24.4219 4.0165 L 24.4119 4.07671 L 24.4018 4.13689 L 24.3915 4.19705 L 24.3811 4.25718 L 24.3705 4.31729 L 24.3598 4.37737 L 24.349 4.43743 L 24.3379 4.49745 L 24.3268 4.55745 L 24.3155 4.61742 L 24.304 4.67737 L 24.2924 4.73728 L 24.2806 4.79717 L 24.2687 4.85703 L 24.2567 4.91686 L 24.2445 4.97665 L 24.2321 5.03642 L 24.2197 5.09616 L 24.207 5.15586 L 24.1942 5.21554 L 24.1813 5.27518 L 24.1682 5.33479 L 24.155 5.39437 L 24.1034 5.62029 L 24.0895 5.67971 L 24.0754 5.73909 L 24.0612 5.79844 L 24.0468 5.85776 L 24.0323 5.91703 L 24.0176 5.97628 L 24.0028 6.03548 L 23.9879 6.09465 L 23.9728 6.15378 L 23.9575 6.21288 L 23.9421 6.27193 L 23.9266 6.33095 L 23.9109 6.38993 L 23.8951 6.44887 L 23.8791 6.50777 L 23.863 6.56663 L 23.8467 6.62546 L 23.8303 6.68424 L 23.8138 6.74298 L 23.7971 6.80168 L 23.7802 6.86034 L 23.7632 6.91896 L 23.7461 6.97753 L 23.7288 7.03606 L 23.7114 7.09455 L 23.6938 7.153 L 23.627 7.16307 L 23.5602 7.17313 L 23.4933 7.18318 L 23.4264 7.19322 L 23.3595 7.20325 L 23.2925 7.21327 L 23.2255 7.22328 L 23.1584 7.23328 L 23.0914 7.24326 L 23.0242 7.25324 L 22.9571 7.26321 L 22.8899 7.27316 L 22.8227 7.2831 L 22.7555 7.29304 L 22.6882 7.30296 L 22.6208 7.31287 L 22.5535 7.32276 L 22.4861 7.33265 L 22.4187 7.34252 L 22.3512 7.35238 L 22.2837 7.36223 L 22.2161 7.37207 L 22.1486 7.38189 L 22.0809 7.3917 L 22.0133 7.4015 L 21.9456 7.41129 L 21.8778 7.42106 L 21.8101 7.43082 L 21.7422 7.44056 L 21.6744 7.45029 L 21.6065 7.46001 L 21.5386 7.46971 L 21.4706 7.4794 L 21.4026 7.48908 L 21.4026 7.48908 L 21.4497 7.53905 L 21.4968 7.58901 L 21.5439 7.63896 L 21.5909 7.68889 L 21.6379 7.7388 L 21.6848 7.7887 L 21.7317 7.83859 L 21.7786 7.88847 L 21.8254 7.93833 L 21.8722 7.98817 L 21.919 8.038 L 21.9657 8.08782 L 22.0124 8.13762 L 22.059 8.18741 L 22.1056 8.23719 L 22.1522 8.28695 L 22.1987 8.3367 L 22.2452 8.38644 L 22.2916 8.43616 L 22.3381 8.48587 L 22.3845 8.53556 L 22.4308 8.58525 L 22.4771 8.63492 L 22.5234 8.68457 L 22.5697 8.73421 L 22.6159 8.78384 L 22.662 8.83346 L 22.7082 8.88306 L 22.7543 8.93265 L 22.8004 8.98223 L 22.8464 9.0318 L 22.8925 9.08135 L 22.9384 9.13089 L 22.9844 9.18041 L 22.9617 9.23706 L 22.9388 9.29365 L 22.9159 9.35019 L 22.8927 9.40667 L 22.8695 9.46309 L 22.8461 9.51945 L 22.8225 9.57576 L 22.7988 9.632 L 22.775 9.68819 L 22.7511 9.74432 L 22.727 9.80039 L 22.7027 9.85641 L 22.6784 9.91236 L 22.6538 9.96825 L 22.6292 10.0241 L 22.6044 10.0798 L 22.5795 10.1356 L 22.5544 10.1912 L 22.5292 10.2468 L 22.5039 10.3023 L 22.4784 10.3578 L 22.4528 10.4132 L 22.4271 10.4685 L 22.4012 10.5238 L 22.3752 10.579 L 22.349 10.6341 L 22.2485 10.8429 L 22.2217 10.8977 L 22.1947 10.9525 L 22.1676 11.0072 L 22.1404 11.0618 L 22.1131 11.1164 L 22.0856 11.1709 L 22.058 11.2253 L 22.0303 11.2796 L 22.0024 11.3339 L 21.9744 11.3882 L 21.9462 11.4423 L 21.9179 11.4964 L 21.8895 11.5504 L 21.861 11.6043 L 21.8323 11.6582 L 21.8035 11.712 L 21.7745 11.7657 L 21.7454 11.8194 L 21.7162 11.873 L 21.6869 11.9265 L 21.6574 11.9799 L 21.6278 12.0333 L 21.5981 12.0866 L 21.5682 12.1398 L 21.5382 12.193 L 21.5081 12.246 L 21.4407 12.241 L 21.3733 12.2359 L 21.3059 12.2308 L 21.2384 12.2257 L 21.1709 12.2206 L 21.1034 12.2155 L 21.0358 12.2103 L 20.9682 12.2052 L 20.9006 12.2 L 20.833 12.1948 L 20.7653 12.1895 L 20.6976 12.1843 L 20.6299 12.179 L 20.5621 12.1738 L 20.4943 12.1684 L 20.4264 12.1631 L 20.3586 12.1578 L 20.2907 12.1524 L 20.2227 12.1471 L 20.1547 12.1417 L 20.0867 12.1362 L 20.0187 12.1308 L 19.9506 12.1253 L 19.8825 12.1198 L 19.8144 12.1143 L 19.7462 12.1088 L 19.678 12.1033 L 19.6097 12.0977 L 19.5414 12.0921 L 19.4731 12.0865 L 19.4048 12.0809 L 19.3364 12.0752 L 19.2679 12.0695 L 19.1995 12.0638 L 19.1995 12.0638 L 19.2343 12.123 L 19.2691 12.1822 L 19.3039 12.2414 L 19.3386 12.3005 L 19.3733 12.3597 L 19.408 12.4188 L 19.4426 12.4778 L 19.4772 12.5369 L 19.5118 12.5959 L 19.5463 12.6549 L 19.5808 12.7139 L 19.6153 12.7729 L 19.6497 12.8318 L 19.6841 12.8907 L 19.7184 12.9496 L 19.7527 13.0085 L 19.787 13.0674 L 19.8213 13.1262 L 19.8555 13.185 L 19.8897 13.2438 L 19.9239 13.3026 L 19.958 13.3613 L 19.9921 13.42 L 20.0262 13.4788 L 20.0602 13.5374 L 20.0942 13.5961 L 20.1282 13.6548 L 20.1622 13.7134 L 20.1961 13.772 L 20.23 13.8306 L 20.2639 13.8892 L 20.2977 13.9477 L 20.3315 14.0062 L 20.3653 14.0648 L 20.3306 14.1149 L 20.2957 14.165 L 20.2607 14.215 L 20.2256 14.2649 L 20.1903 14.3148 L 20.155 14.3645 L 20.1195 14.4142 L 20.0839 14.4637 L 20.0482 14.5132 L 20.0123 14.5626 L 19.9764 14.6119 L 19.9403 14.6611 L 19.9041 14.7102 L 19.8677 14.7593 L 19.8313 14.8082 L 19.7947 14.8571 L 19.758 14.9058 L 19.7212 14.9545 L 19.6842 15.0031 L 19.6472 15.0516 L 19.61 15.1 L 19.5727 15.1483 L 19.5353 15.1965 L 19.4978 15.2446 L 19.4601 15.2927 L 19.4224 15.3406 L 19.2779 15.5218 L 19.2395 15.5693 L 19.2011 15.6167 L 19.1625 15.664 L 19.1238 15.7112 L 19.085 15.7583 L 19.0461 15.8053 L 19.0071 15.8522 L 18.968 15.899 L 18.9287 15.9458 L 18.8893 15.9924 L 18.8498 16.0389 L 18.8102 16.0853 L 18.7705 16.1317 L 18.7307 16.1779 L 18.6907 16.2241 L 18.6506 16.2701 L 18.6105 16.316 L 18.5702 16.3619 L 18.5298 16.4076 L 18.4893 16.4533 L 18.4486 16.4988 L 18.4079 16.5442 L 18.367 16.5896 L 18.3261 16.6348 L 18.285 16.68 L 18.2438 16.725 L 18.1793 16.7051 L 18.1147 16.6851 L 18.0501 16.6652 L 17.9854 16.6452 L 17.9208 16.6252 L 17.8561 16.6052 L 17.7914 16.5851 L 17.7266 16.565 L 17.6619 16.5449 L 17.5971 16.5248 L 17.5322 16.5046 L 17.4674 16.4845 L 17.4025 16.4643 L 17.3376 16.444 L 17.2727 16.4238 L 17.2077 16.4035 L 17.1428 16.3832 L 17.0778 16.3628 L 17.0127 16.3425 L 16.9476 16.3221 L 16.8826 16.3017 L 16.8174 16.2812 L 16.7523 16.2608 L 16.6871 16.2403 L 16.6219 16.2197 L 16.5566 16.1992 L 16.4914 16.1786 L 16.4261 16.158 L 16.3607 16.1373 L 16.2954 16.1166 L 16.23 16.0959 L 16.1646 16.0752 L 16.0991 16.0544 L 16.0336 16.0336 L 16.0336 16.0336 L 16.0544 16.0991 L 16.0752 16.1646 L 16.0959 16.23 L 16.1166 16.2954 L 16.1373 16.3607 L 16.158 16.4261 L 16.1786 16.4914 L 16.1992 16.5566 L 16.2197 16.6219 L 16.2403 16.6871 L 16.2608 16.7523 L 16.2812 16.8174 L 16.3017 16.8826 L 16.3221 16.9476 L 16.3425 17.0127 L 16.3628 17.0778 L 16.3832 17.1428 L 16.4035 17.2077 L 16.4238 17.2727 L 16.444 17.3376 L 16.4643 17.4025 L 16.4845 17.4674 L 16.5046 17.5322 L 16.5248 17.5971 L 16.5449 17.6619 L 16.565 17.7266 L 16.5851 17.7914 L 16.6052 17.8561 L 16.6252 17.9208 L 16.6452 17.9854 L 16.6652 18.0501 L 16.6851 18.1147 L 16.7051 18.1793 L 16.725 18.2438 L 16.68 18.285 L 16.6348 18.3261 L 16.5896 18.367 L 16.5442 18.4079 L 16.4988 18.4486 L 16.4533 18.4893 L 16.4076 18.5298 L 16.3619 18.5702 L 16.316 18.6105 L 16.2701 18.6506 L 16.2241 18.6907 L 16.1779 18.7307 L 16.1317 18.7705 L 16.0853 18.8102 L 16.0389 18.8498 L 15.9924 18.8893 L 15.9458 18.9287 L 15.899 18.968 L 15.8522 19.0071 L 15.8053 19.0461 L 15.7583 19.085 L 15.7112 19.1238 L 15.664 19.1625 L 15.6167 19.2011 L 15.5693 19.2395 L 15.5218 19.2779 L 15.3406 19.4224 L 15.2927 19.4601 L 15.2446 19.4978 L 15.1965 19.5353 L 15.1483 19.5727 L 15.1 19.61 L 15.0516 19.6472 L 15.0031 19.6842 L 14.9545 19.7212 L 14.9058 19.758 L 14.8571 19.7947 L 14.8082 19.8313 L 14.7593 19.8677 L 14.7102 19.9041 L 14.6611 19.9403 L 14.6119 19.9764 L 14.5626 20.0123 L 14.5132 20.0482 L 14.4637 20.0839 L 14.4142 20.1195 L 14.3645 20.155 L 14.3148 20.1903 L 14.2649 20.2256 L 14.215 20.2607 L 14.165 20.2957 L 14.1149 20.3306 L 14.0648 20.3653 L 14.0062 20.3315 L 13.9477 20.2977 L 13.8892 20.2639 L 13.8306 20.23 L 13.772 20.1961 L 13.7134 20.1622 L 13.6548 20.1282 L 13.5961 20.0942 L 13.5374 20.0602 L 13.4788 20.0262 L 13.42 19.9921 L 13.3613 19.958 L 13.3026 19.9239 L 13.2438 19.8897 L 13.185 19.8555 L 13.1262 19.8213 L 13.0674 19.787 L 13.0085 19.7527 L 12.9496 19.7184 L 12.8907 19.6841 L 12.8318 19.6497 L 12.7729 19.6153 L 12.7139 19.5808 L 12.6549 19.5463 L 12.5959 19.5118 L 12.5369 19.4772 L 12.4778 19.4426 L 12.4188 19.408 L 12.3597 19.3733 L 12.3005 19.3386 L 12.2414 19.3039 L 12.1822 19.2691 L 12.123 19.2343 L 12.0638 19.1995 L 12.0638 19.1995 L 12.0695 19.2679 L 12.0752 19.3364 L 12.0809 19.4048 L 12.0865 19.4731 L 12.0921 19.5414 L 12.0977 19.6097 L 12.1033 19.678 L 12.1088 19.7462 L 12.1143 19.8144 L 12.1198 19.8825 L 12.1253 19.9506 L 12.1308 20.0187 L 12.1362 20.0867 L 12.1417 20.1547 L 12.1471 20.2227 L 12.1524 20.2907 L 12.1578 20.3586 L 12.1631 20.4264 L 12.1684 20.4943 L 12.1738 20.5621 L 12.179 20.6299 L 12.1843 20.6976 L 12.1895 20.7653 L 12.1948 20.833 L 12.2 20.9006 L 12.2052 20.9682 L 12.2103 21.0358 L 12.2155 21.1034 L 12.2206 21.1709 L 12.2257 21.2384 L 12.2308 21.3059 L 12.2359 21.3733 L 12.241 21.4407 L 12.246 21.5081 L 12.193 21.5382 L 12.1398 21.5682 L 12.0866 21.5981 L 12.0333 21.6278 L 11.9799 21.6574 L 11.9265 21.6869 L 11.873 21.7162 L 11.8194 21.7454 L 11.7657 21.7745 L 11.712 21.8035 L 11.6582 21.8323 L 11.6043 21.861 L 11.5504 21.8895 L 11.4964 21.9179 L 11.4423 21.9462 L 11.3882 21.9744 L 11.3339 22.0024 L 11.2796 22.0303 L 11.2253 22.058 L 11.1709 22.0856 L 11.1164 22.1131 L 11.0618 22.1404 L 11.0072 22.1676 L 10.9525 22.1947 L 10.8977 22.2217 L 10.8429 22.2485 L 10.6341 22.349 L 10.579 22.3752 L 10.5238 22.4012 L 10.4685 22.4271 L 10.4132 22.4528 L 10.3578 22.4784 L 10.3023 22.5039 L 10.2468 22.5292 L 10.1912 22.5544 L 10.1356 22.5795 L 10.0798 22.6044 L 10.0241 22.6292 L 9.96825 22.6538 L 9.91236 22.6784 L 9.85641 22.7027 L 9.80039 22.727 L 9.74432 22.7511 L 9.68819 22.775 L 9.632 22.7988 L 9.57576 22.8225 L 9.51945 22.8461 L 9.46309 22.8695 L 9.40667 22.8927 L 9.35019 22.9159 L 9.29365 22.9388 L 9.23706 22.9617 L 9.18041 22.9844 L 9.13089 22.9384 L 9.08135 22.8925 L 9.0318 22.8464 L 8.98223 22.8004 L 8.93265 22.7543 L 8.88306 22.7082 L 8.83346 22.662 L 8.78384 22.6159 L 8.73421 22.5697 L 8.68457 22.5234 L 8.63492 22.4771 L 8.58525 22.4308 L 8.53556 22.3845 L 8.48587 22.3381 L 8.43616 22.2916 L 8.38644 22.2452 L 8.3367 22.1987 L 8.28695 22.1522 L 8.23719 22.1056 L 8.18741 22.059 L 8.13762 22.0124 L 8.08782 21.9657 L 8.038 21.919 L 7.98817 21.8722 L 7.93833 21.8254 L 7.88847 21.7786 L 7.83859 21.7317 L 7.7887 21.6848 L 7.7388 21.6379 L 7.68889 21.5909 L 7.63896 21.5439 L 7.58901 21.4968 L 7.53905 21.4497 L 7.48908 21.4026 L 7.48908 21.4026 L 7.4794 21.4706 L 7.46971 21.5386 L 7.46001 21.6065 L 7.45029 21.6744 L 7.44056 21.7422 L 7.43082 21.8101 L 7.42106 21.8778 L 7.41129 21.9456 L 7.4015 22.0133 L 7.3917 22.0809 L 7.38189 22.1486 L 7.37207 22.2161 L 7.36223 22.2837 L 7.35238 22.3512 L 7.34252 22.4187 L 7.33265 22.4861 L 7.32276 22.5535 L 7.31287 22.6208 L 7.30296 22.6882 L 7.29304 22.7555 L 7.2831 22.8227 L 7.27316 22.8899 L 7.26321 22.9571 L 7.25324 23.0242 L 7.24326 23.0914 L 7.23328 23.1584 L 7.22328 23.2255 L 7.21327 23.2925 L 7.20325 23.3595 L 7.19322 23.4264 L 7.18318 23.4933 L 7.17313 23.5602 L 7.16307 23.627 L 7.153 23.6938 L 7.09455 23.7114 L 7.03606 23.7288 L 6.97753 23.7461 L 6.91896 23.7632 L 6.86034 23.7802 L 6.80168 23.7971 L 6.74298 23.8138 L 6.68424 23.8303 L 6.62546 23.8467 L 6.56663 23.863 L 6.50777 23.8791 L 6.44887 23.8951 L 6.38993 23.9109 L 6.33095 23.9266 L 6.27193 23.9421 L 6.21288 23.9575 L 6.15378 23.9728 L 6.09465 23.9879 L 6.03548 24.0028 L 5.97628 24.0176 L 5.91703 24.0323 L 5.85776 24.0468 L 5.79844 24.0612 L 5.73909 24.0754 L 5.67971 24.0895 L 5.62029 24.1034 L 5.39437 24.155 L 5.33479 24.1682 L 5.27518 24.1813 L 5.21554 24.1942 L 5.15586 24.207 L 5.09616 24.2197 L 5.03642 24.2321 L 4.97665 24.2445 L 4.91686 24.2567 L 4.85703 24.2687 L 4.79717 24.2806 L 4.73728 24.2924 L 4.67737 24.304 L 4.61742 24.3155 L 4.55745 24.3268 L 4.49745 24.3379 L 4.43743 24.349 L 4.37737 24.3598 L 4.31729 24.3705 L 4.25718 24.3811 L 4.19705 24.3915 L 4.13689 24.4018 L 4.07671 24.4119 L 4.0165 24.4219 L 3.95627 24.4318 L 3.89601 24.4414 L 3.83573 24.451 L 3.79767 24.3951 L 3.75961 24.3393 L 3.72154 24.2834 L 3.68346 24.2275 L 3.64538 24.1715 L 3.6073 24.1155 L 3.56921 24.0595 L 3.53111 24.0034 L 3.49301 23.9473 L 3.4549 23.8912 L 3.41679 23.835 L 3.37867 23.7788 L 3.34055 23.7226 L 3.30242 23.6663 L 3.26429 23.61 L 3.22615 23.5536 L 3.18801 23.4972 L 3.14986 23.4408 L 3.11171 23.3843 L 3.07355 23.3278 L 3.03539 23.2713 L 2.99722 23.2147 L 2.95904 23.158 L 2.92086 23.1014 L 2.88268 23.0447 L 2.84449 22.9879 L 2.8063 22.9311 L 2.7681 22.8743 L 2.72989 22.8174 L 2.69168 22.7605 L 2.65347 22.7036 L 2.61525 22.6466 L 2.57702 22.5895 L 2.53879 22.5324 L 2.53879 22.5324 L 2.51423 22.5966 L 2.48965 22.6607 L 2.46508 22.7248 L 2.44049 22.7888 L 2.41591 22.8528 L 2.39132 22.9167 L 2.36672 22.9807 L 2.34212 23.0445 L 2.31752 23.1083 L 2.29291 23.1721 L 2.2683 23.2359 L 2.24368 23.2996 L 2.21906 23.3632 L 2.19444 23.4269 L 2.16981 23.4904 L 2.14518 23.554 L 2.12054 23.6175 L 2.09591 23.681 L 2.07126 23.7444 L 2.04662 23.8078 L 2.02197 23.8711 L 1.99732 23.9345 L 1.97267 23.9977 L 1.94801 24.061 L 1.92335 24.1242 L 1.89869 24.1874 L 1.87402 24.2505 L 1.84935 24.3136 L 1.82468 24.3767 L 1.80001 24.4397 L 1.77533 24.5027 L 1.75065 24.5656 L 1.72597 24.6286 L 1.70129 24.6915 L 1.6404 24.6956 L 1.5795 24.6995 L 1.51859 24.7034 L 1.45767 24.707 L 1.39674 24.7106 L 1.33581 24.7139 L 1.27486 24.7171 L 1.21391 24.7202 L 1.15295 24.7231 L 1.09198 24.7259 L 1.03101 24.7285 L 0.97003 24.731 L 0.909044 24.7333 L 0.848053 24.7355 L 0.787057 24.7375 L 0.726056 24.7393 L 0.665051 24.7411 L 0.604042 24.7426 L 0.543029 24.744 L 0.482012 24.7453 L 0.420993 24.7464 L 0.359971 24.7474 L 0.298947 24.7482 L 0.237921 24.7489 L 0.176894 24.7494 L 0.115866 24.7497 L -0.115866 24.7497 L -0.176894 24.7494 L -0.237921 24.7489 L -0.298947 24.7482 L -0.359971 24.7474 L -0.420993 24.7464 L -0.482012 24.7453 L -0.543029 24.744 L -0.604042 24.7426 L -0.665051 24.7411 L -0.726056 24.7393 L -0.787057 24.7375 L -0.848053 24.7355 L -0.909044 24.7333 L -0.97003 24.731 L -1.03101 24.7285 L -1.09198 24.7259 L -1.15295 24.7231 L -1.21391 24.7202 L -1.27486 24.7171 L -1.33581 24.7139 L -1.39674 24.7106 L -1.45767 24.707 L -1.51859 24.7034 L -1.5795 24.6995 L -1.6404 24.6956 L -1.70129 24.6915 L -1.72597 24.6286 L -1.75065 24.5656 L -1.77533 24.5027 L -1.80001 24.4397 L -1.82468 24.3767 L -1.84935 24.3136 L -1.87402 24.2505 L -1.89869 24.1874 L -1.92335 24.1242 L -1.94801 24.061 L -1.97267 23.9977 L -1.99732 23.9345 L -2.02197 23.8711 L -2.04662 23.8078 L -2.07126 23.7444 L -2.09591 23.681 L -2.12054 23.6175 L -2.14518 23.554 L -2.16981 23.4904 L -2.19444 23.4269 L -2.21906 23.3632 L -2.24368 23.2996 L -2.2683 23.2359 L -2.29291 23.1721 L -2.31752 23.1083 L -2.34212 23.0445 L -2.36672 22.9807 L -2.39132 22.9167 L -2.41591 22.8528 L -2.44049 22.7888 L -2.46508 22.7248 L -2.48965 22.6607 L -2.51423 22.5966 L -2.53879 22.5324 L -2.53879 22.5324 L -2.57702 22.5895 L -2.61525 22.6466 L -2.65347 22.7036 L -2.69168 22.7605 L -2.72989 22.8174 L -2.7681 22.8743 L -2.8063 22.9311 L -2.84449 22.9879 L -2.88268 23.0447 L -2.92086 23.1014 L -2.95904 23.158 L -2.99722 23.2147 L -3.03539 23.2713 L -3.07355 23.3278 L -3.11171 23.3843 L -3.14986 23.4408 L -3.18801 23.4972 L -3.22615 23.5536 L -3.26429 23.61 L -3.30242 23.6663 L -3.34055 23.7226 L -3.37867 23.7788 L -3.41679 23.835 L -3.4549 23.8912 L -3.49301 23.9473 L -3.53111 24.0034 L -3.56921 24.0595 L -3.6073 24.1155 L -3.64538 24.1715 L -3.68346 24.2275 L -3.72154 24.2834 L -3.75961 24.3393 L -3.79767 24.3951 L -3.83573 24.451 L -3.89601 24.4414 L -3.95627 24.4318 L -4.0165 24.4219 L -4.07671 24.4119 L -4.13689 24.4018 L -4.19705 24.3915 L -4.25718 24.3811 L -4.31729 24.3705 L -4.37737 24.3598 L -4.43743 24.349 L -4.49745 24.3379 L -4.55745 24.3268 L -4.61742 24.3155 L -4.67737 24.304 L -4.73728 24.2924 L -4.79717 24.2806 L -4.85703 24.2687 L -4.91686 24.2567 L -4.97665 24.2445 L -5.03642 24.2321 L -5.09616 24.2197 L -5.15586 24.207 L -5.21554 24.1942 L -5.27518 24.1813 L -5.33479 24.1682 L -5.39437 24.155 L -5.62029 24.1034 L -5.67971 24.0895 L -5.73909 24.0754 L -5.79844 24.0612 L -5.85776 24.0468 L -5.91703 24.0323 L -5.97628 24.0176 L -6.03548 24.0028 L -6.09465 23.9879 L -6.15378 23.9728 L -6.21288 23.9575 L -6.27193 23.9421 L -6.33095 23.9266 L -6.38993 23.9109 L -6.44887 23.8951 L -6.50777 23.8791 L -6.56663 23.863 L -6.62546 23.8467 L -6.68424 23.8303 L -6.74298 23.8138 L -6.80168 23.7971 L -6.86034 23.7802 L -6.91896 23.7632 L -6.97753 23.7461 L -7.03606 23.7288 L -7.09455 23.7114 L -7.153 23.6938 L -7.16307 23.627 L -7.17313 23.5602 L -7.18318 23.4933 L -7.19322 23.4264 L -7.20325 23.3595 L -7.21327 23.2925 L -7.22328 23.2255 L -7.23328 23.1584 L -7.24326 23.0914 L -7.25324 23.0242 L -7.26321 22.9571 L -7.27316 22.8899 L -7.2831 22.8227 L -7.29304 22.7555 L -7.30296 22.6882 L -7.31287 22.6208 L -7.32276 22.5535 L -7.33265 22.4861 L -7.34252 22.4187 L -7.35238 22.3512 L -7.36223 22.2837 L -7.37207 22.2161 L -7.38189 22.1486 L -7.3917 22.0809 L -7.4015 22.0133 L -7.41129 21.9456 L -7.42106 21.8778 L -7.43082 21.8101 L -7.44056 21.7422 L -7.45029 21.6744 L -7.46001 21.6065 L -7.46971 21.5386 L -7.4794 21.4706 L -7.48908 21.4026 L -7.48908 21.4026 L -7.53905 21.4497 L -7.58901 21.4968 L -7.63896 21.5439 L -7.68889 21.5909 L -7.7388 21.6379 L -7.7887 21.6848 L -7.83859 21.7317 L -7.88847 21.7786 L -7.93833 21.8254 L -7.98817 21.8722 L -8.038 21.919 L -8.08782 21.9657 L -8.13762 22.0124 L -8.18741 22.059 L -8.23719 22.1056 L -8.28695 22.1522 L -8.3367 22.1987 L -8.38644 22.2452 L -8.43616 22.2916 L -8.48587 22.3381 L -8.53556 22.3845 L -8.58525 22.4308 L -8.63492 22.4771 L -8.68457 22.5234 L -8.73421 22.5697 L -8.78384 22.6159 L -8.83346 22.662 L -8.88306 22.7082 L -8.93265 22.7543 L -8.98223 22.8004 L -9.0318 22.8464 L -9.08135 22.8925 L -9.13089 22.9384 L -9.18041 22.9844 L -9.23706 22.9617 L -9.29365 22.9388 L -9.35019 22.9159 L -9.40667 22.8927 L -9.46309 22.8695 L -9.51945 22.8461 L -9.57576 22.8225 L -9.632 22.7988 L -9.68819 22.775 L -9.74432 22.7511 L -9.80039 22.727 L -9.85641 22.7027 L -9.91236 22.6784 L -9.96825 22.6538 L -10.0241 22.6292 L -10.0798 22.6044 L -10.1356 22.5795 L -10.1912 22.5544 L -10.2468 22.5292 L -10.3023 22.5039 L -10.3578 22.4784 L -10.4132 22.4528 L -10.4685 22.4271 L -10.5238 22.4012 L -10.579 22.3752 L -10.6341 22.349 L -10.8429 22.2485 L -10.8977 22.2217 L -10.9525 22.1947 L -11.0072 22.1676 L -11.0618 22.1404 L -11.1164 22.1131 L -11.1709 22.0856 L -11.2253 22.058 L -11.2796 22.0303 L -11.3339 22.0024 L -11.3882 21.9744 L -11.4423 21.9462 L -11.4964 21.9179 L -11.5504 21.8895 L -11.6043 21.861 L -11.6582 21.8323 L -11.712 21.8035 L -11.7657 21.7745 L -11.8194 21.7454 L -11.873 21.7162 L -11.9265 21.6869 L -11.9799 21.6574 L -12.0333 21.6278 L -12.0866 21.5981 L -12.1398 21.5682 L -12.193 21.5382 L -12.246 21.5081 L -12.241 21.4407 L -12.2359 21.3733 L -12.2308 21.3059 L -12.2257 21.2384 L -12.2206 21.1709 L -12.2155 21.1034 L -12.2103 21.0358 L -12.2052 20.9682 L -12.2 20.9006 L -12.1948 20.833 L -12.1895 20.7653 L -12.1843 20.6976 L -12.179 20.6299 L -12.1738 20.5621 L -12.1684 20.4943 L -12.1631 20.4264 L -12.1578 20.3586 L -12.1524 20.2907 L -12.1471 20.2227 L -12.1417 20.1547 L -12.1362 20.0867 L -12.1308 20.0187 L -12.1253 19.9506 L -12.1198 19.8825 L -12.1143 19.8144 L -12.1088 19.7462 L -12.1033 19.678 L -12.0977 19.6097 L -12.0921 19.5414 L -12.0865 19.4731 L -12.0809 19.4048 L -12.0752 19.3364 L -12.0695 19.2679 L -12.0638 19.1995 L -12.0638 19.1995 L -12.123 19.2343 L -12.1822 19.2691 L -12.2414 19.3039 L -12.3005 19.3386 L -12.3597 19.3733 L -12.4188 19.408 L -12.4778 19.4426 L -12.5369 19.4772 L -12.5959 19.5118 L -12.6549 19.5463 L -12.7139 19.5808 L -12.7729 19.6153 L -12.8318 19.6497 L -12.8907 19.6841 L -12.9496 19.7184 L -13.0085 19.7527 L -13.0674 19.787 L -13.1262 19.8213 L -13.185 19.8555 L -13.2438 19.8897 L -13.3026 19.9239 L -13.3613 19.958 L -13.42 19.9921 L -13.4788 20.0262 L -13.5374 20.0602 L -13.5961 20.0942 L -13.6548 20.1282 L -13.7134 20.1622 L -13.772 20.1961 L -13.8306 20.23 L -13.8892 20.2639 L -13.9477 20.2977 L -14.0062 20.3315 L -14.0648 20.3653 L -14.1149 20.3306 L -14.165 20.2957 L -14.215 20.2607 L -14.2649 20.2256 L -14.3148 20.1903 L -14.3645 20.155 L -14.4142 20.1195 L -14.4637 20.0839 L -14.5132 20.0482 L -14.5626 20.0123 L -14.6119 19.9764 L -14.6611 19.9403 L -14.7102 19.9041 L -14.7593 19.8677 L -14.8082 19.8313 L -14.8571 19.7947 L -14.9058 19.758 L -14.9545 19.7212 L -15.0031 19.6842 L -15.0516 19.6472 L -15.1 19.61 L -15.1483 19.5727 L -15.1965 19.5353 L -15.2446 19.4978 L -15.2927 19.4601 L -15.3406 19.4224 L -15.5218 19.2779 L -15.5693 19.2395 L -15.6167 19.2011 L -15.664 19.1625 L -15.7112 19.1238 L -15.7583 19.085 L -15.8053 19.0461 L -15.8522 19.0071 L -15.899 18.968 L -15.9458 18.9287 L -15.9924 18.8893 L -16.0389 18.8498 L -16.0853 18.8102 L -16.1317 18.7705 L -16.1779 18.7307 L -16.2241 18.6907 L -16.2701 18.6506 L -16.316 18.6105 L -16.3619 18.5702 L -16.4076 18.5298 L -16.4533 18.4893 L -16.4988 18.4486 L -16.5442 18.4079 L -16.5896 18.367 L -16.6348 18.3261 L -16.68 18.285 L -16.725 18.2438 L -16.7051 18.1793 L -16.6851 18.1147 L -16.6652 18.0501 L -16.6452 17.9854 L -16.6252 17.9208 L -16.6052 17.8561 L -16.5851 17.7914 L -16.565 17.7266 L -16.5449 17.6619 L -16.5248 17.5971 L -16.5046 17.5322 L -16.4845 17.4674 L -16.4643 17.4025 L -16.444 17.3376 L -16.4238 17.2727 L -16.4035 17.2077 L -16.3832 17.1428 L -16.3628 17.0778 L -16.3425 17.0127 L -16.3221 16.9476 L -16.3017 16.8826 L -16.2812 16.8174 L -16.2608 16.7523 L -16.2403 16.6871 L -16.2197 16.6219 L -16.1992 16.5566 L -16.1786 16.4914 L -16.158 16.4261 L -16.1373 16.3607 L -16.1166 16.2954 L -16.0959 16.23 L -16.0752 16.1646 L -16.0544 16.0991 L -16.0336 16.0336 L -16.0336 16.0336 L -16.0991 16.0544 L -16.1646 16.0752 L -16.23 16.0959 L -16.2954 16.1166 L -16.3607 16.1373 L -16.4261 16.158 L -16.4914 16.1786 L -16.5566 16.1992 L -16.6219 16.2197 L -16.6871 16.2403 L -16.7523 16.2608 L -16.8174 16.2812 L -16.8826 16.3017 L -16.9476 16.3221 L -17.0127 16.3425 L -17.0778 16.3628 L -17.1428 16.3832 L -17.2077 16.4035 L -17.2727 16.4238 L -17.3376 16.444 L -17.4025 16.4643 L -17.4674 16.4845 L -17.5322 16.5046 L -17.5971 16.5248 L -17.6619 16.5449 L -17.7266 16.565 L -17.7914 16.5851 L -17.8561 16.6052 L -17.9208 16.6252 L -17.9854 16.6452 L -18.0501 16.6652 L -18.1147 16.6851 L -18.1793 16.7051 L -18.2438 16.725 L -18.285 16.68 L -18.3261 16.6348 L -18.367 16.5896 L -18.4079 16.5442 L -18.4486 16.4988 L -18.4893 16.4533 L -18.5298 16.4076 L -18.5702 16.3619 L -18.6105 16.316 L -18.6506 16.2701 L -18.6907 16.2241 L -18.7307 16.1779 L -18.7705 16.1317 L -18.8102 16.0853 L -18.8498 16.0389 L -18.8893 15.9924 L -18.9287 15.9458 L -18.968 15.899 L -19.0071 15.8522 L -19.0461 15.8053 L -19.085 15.7583 L -19.1238 15.7112 L -19.1625 15.664 L -19.2011 15.6167 L -19.2395 15.5693 L -19.2779 15.5218 L -19.4224 15.3406 L -19.4601 15.2927 L -19.4978 15.2446 L -19.5353 15.1965 L -19.5727 15.1483 L -19.61 15.1 L -19.6472 15.0516 L -19.6842 15.0031 L -19.7212 14.9545 L -19.758 14.9058 L -19.7947 14.8571 L -19.8313 14.8082 L -19.8677 14.7593 L -19.9041 14.7102 L -19.9403 14.6611 L -19.9764 14.6119 L -20.0123 14.5626 L -20.0482 14.5132 L -20.0839 14.4637 L -20.1195 14.4142 L -20.155 14.3645 L -20.1903 14.3148 L -20.2256 14.2649 L -20.2607 14.215 L -20.2957 14.165 L -20.3306 14.1149 L -20.3653 14.0648 L -20.3315 14.0062 L -20.2977 13.9477 L -20.2639 13.8892 L -20.23 13.8306 L -20.1961 13.772 L -20.1622 13.7134 L -20.1282 13.6548 L -20.0942 13.5961 L -20.0602 13.5374 L -20.0262 13.4788 L -19.9921 13.42 L -19.958 13.3613 L -19.9239 13.3026 L -19.8897 13.2438 L -19.8555 13.185 L -19.8213 13.1262 L -19.787 13.0674 L -19.7527 13.0085 L -19.7184 12.9496 L -19.6841 12.8907 L -19.6497 12.8318 L -19.6153 12.7729 L -19.5808 12.7139 L -19.5463 12.6549 L -19.5118 12.5959 L -19.4772 12.5369 L -19.4426 12.4778 L -19.408 12.4188 L -19.3733 12.3597 L -19.3386 12.3005 L -19.3039 12.2414 L -19.2691 12.1822 L -19.2343 12.123 L -19.1995 12.0638 L -19.1995 12.0638 L -19.2679 12.0695 L -19.3364 12.0752 L -19.4048 12.0809 L -19.4731 12.0865 L -19.5414 12.0921 L -19.6097 12.0977 L -19.678 12.1033 L -19.7462 12.1088 L -19.8144 12.1143 L -19.8825 12.1198 L -19.9506 12.1253 L -20.0187 12.1308 L -20.0867 12.1362 L -20.1547 12.1417 L -20.2227 12.1471 L -20.2907 12.1524 L -20.3586 12.1578 L -20.4264 12.1631 L -20.4943 12.1684 L -20.5621 12.1738 L -20.6299 12.179 L -20.6976 12.1843 L -20.7653 12.1895 L -20.833 12.1948 L -20.9006 12.2 L -20.9682 12.2052 L -21.0358 12.2103 L -21.1034 12.2155 L -21.1709 12.2206 L -21.2384 12.2257 L -21.3059 12.2308 L -21.3733 12.2359 L -21.4407 12.241 L -21.5081 12.246 L -21.5382 12.193 L -21.5682 12.1398 L -21.5981 12.0866 L -21.6278 12.0333 L -21.6574 11.9799 L -21.6869 11.9265 L -21.7162 11.873 L -21.7454 11.8194 L -21.7745 11.7657 L -21.8035 11.712 L -21.8323 11.6582 L -21.861 11.6043 L -21.8895 11.5504 L -21.9179 11.4964 L -21.9462 11.4423 L -21.9744 11.3882 L -22.0024 11.3339 L -22.0303 11.2796 L -22.058 11.2253 L -22.0856 11.1709 L -22.1131 11.1164 L -22.1404 11.0618 L -22.1676 11.0072 L -22.1947 10.9525 L -22.2217 10.8977 L -22.2485 10.8429 L -22.349 10.6341 L -22.3752 10.579 L -22.4012 10.5238 L -22.4271 10.4685 L -22.4528 10.4132 L -22.4784 10.3578 L -22.5039 10.3023 L -22.5292 10.2468 L -22.5544 10.1912 L -22.5795 10.1356 L -22.6044 10.0798 L -22.6292 10.0241 L -22.6538 9.96825 L -22.6784 9.91236 L -22.7027 9.85641 L -22.727 9.80039 L -22.7511 9.74432 L -22.775 9.68819 L -22.7988 9.632 L -22.8225 9.57576 L -22.8461 9.51945 L -22.8695 9.46309 L -22.8927 9.40667 L -22.9159 9.35019 L -22.9388 9.29365 L -22.9617 9.23706 L -22.9844 9.18041 L -22.9384 9.13089 L -22.8925 9.08135 L -22.8464 9.0318 L -22.8004 8.98223 L -22.7543 8.93265 L -22.7082 8.88306 L -22.662 8.83346 L -22.6159 8.78384 L -22.5697 8.73421 L -22.5234 8.68457 L -22.4771 8.63492 L -22.4308 8.58525 L -22.3845 8.53556 L -22.3381 8.48587 L -22.2916 8.43616 L -22.2452 8.38644 L -22.1987 8.3367 L -22.1522 8.28695 L -22.1056 8.23719 L -22.059 8.18741 L -22.0124 8.13762 L -21.9657 8.08782 L -21.919 8.038 L -21.8722 7.98817 L -21.8254 7.93833 L -21.7786 7.88847 L -21.7317 7.83859 L -21.6848 7.7887 L -21.6379 7.7388 L -21.5909 7.68889 L -21.5439 7.63896 L -21.4968 7.58901 L -21.4497 7.53905 L -21.4026 7.48908 L -21.4026 7.48908 L -21.4706 7.4794 L -21.5386 7.46971 L -21.6065 7.46001 L -21.6744 7.45029 L -21.7422 7.44056 L -21.8101 7.43082 L -21.8778 7.42106 L -21.9456 7.41129 L -22.0133 7.4015 L -22.0809 7.3917 L -22.1486 7.38189 L -22.2161 7.37207 L -22.2837 7.36223 L -22.3512 7.35238 L -22.4187 7.34252 L -22.4861 7.33265 L -22.5535 7.32276 L -22.6208 7.31287 L -22.6882 7.30296 L -22.7555 7.29304 L -22.8227 7.2831 L -22.8899 7.27316 L -22.9571 7.26321 L -23.0242 7.25324 L -23.0914 7.24326 L -23.1584 7.23328 L -23.2255 7.22328 L -23.2925 7.21327 L -23.3595 7.20325 L -23.4264 7.19322 L -23.4933 7.18318 L -23.5602 7.17313 L -23.627 7.16307 L -23.6938 7.153 L -23.7114 7.09455 L -23.7288 7.03606 L -23.7461 6.97753 L -23.7632 6.91896 L -23.7802 6.86034 L -23.7971 6.80168 L -23.8138 6.74298 L -23.8303 6.68424 L -23.8467 6.62546 L -23.863 6.56663 L -23.8791 6.50777 L -23.8951 6.44887 L -23.9109 6.38993 L -23.9266 6.33095 L -23.9421 6.27193 L -23.9575 6.21288 L -23.9728 6.15378 L -23.9879 6.09465 L -24.0028 6.03548 L -24.0176 5.97628 L -24.0323 5.91703 L -24.0468 5.85776 L -24.0612 5.79844 L -24.0754 5.73909 L -24.0895 5.67971 L -24.1034 5.62029 L -24.155 5.39437 L -24.1682 5.33479 L -24.1813 5.27518 L -24.1942 5.21554 L -24.207 5.15586 L -24.2197 5.09616 L -24.2321 5.03642 L -24.2445 4.97665 L -24.2567 4.91686 L -24.2687 4.85703 L -24.2806 4.79717 L -24.2924 4.73728 L -24.304 4.67737 L -24.3155 4.61742 L -24.3268 4.55745 L -24.3379 4.49745 L -24.349 4.43743 L -24.3598 4.37737 L -24.3705 4.31729 L -24.3811 4.25718 L -24.3915 4.19705 L -24.4018 4.13689 L -24.4119 4.07671 L -24.4219 4.0165 L -24.4318 3.95627 L -24.4414 3.89601 L -24.451 3.83573 L -24.3951 3.79767 L -24.3393 3.75961 L -24.2834 3.72154 L -24.2275 3.68346 L -24.1715 3.64538 L -24.1155 3.6073 L -24.0595 3.56921 L -24.0034 3.53111 L -23.9473 3.49301 L -23.8912 3.4549 L -23.835 3.41679 L -23.7788 3.37867 L -23.7226 3.34055 L -23.6663 3.30242 L -23.61 3.26429 L -23.5536 3.22615 L -23.4972 3.18801 L -23.4408 3.14986 L -23.3843 3.11171 L -23.3278 3.07355 L -23.2713 3.03539 L -23.2147 2.99722 L -23.158 2.95904 L -23.1014 2.92086 L -23.0447 2.88268 L -22.9879 2.84449 L -22.9311 2.8063 L -22.8743 2.7681 L -22.8174 2.72989 L -22.7605 2.69168 L -22.7036 2.65347 L -22.6466 2.61525 L -22.5895 2.57702 L -22.5324 2.53879 L -22.5324 2.53879 L -22.5966 2.51423 L -22.6607 2.48965 L -22.7248 2.46508 L -22.7888 2.44049 L -22.8528 2.41591 L -22.9167 2.39132 L -22.9807 2.36672 L -23.0445 2.34212 L -23.1083 2.31752 L -23.1721 2.29291 L -23.2359 2.2683 L -23.2996 2.24368 L -23.3632 2.21906 L -23.4269 2.19444 L -23.4904 2.16981 L -23.554 2.14518 L -23.6175 2.12054 L -23.681 2.09591 L -23.7444 2.07126 L -23.8078 2.04662 L -23.8711 2.02197 L -23.9345 1.99732 L -23.9977 1.97267 L -24.061 1.94801 L -24.1242 1.92335 L -24.1874 1.89869 L -24.2505 1.87402 L -24.3136 1.84935 L -24.3767 1.82468 L -24.4397 1.80001 L -24.5027 1.77533 L -24.5656 1.75065 L -24.6286 1.72597 L -24.6915 1.70129 L -24.6956 1.6404 L -24.6995 1.5795 L -24.7034 1.51859 L -24.707 1.45767 L -24.7106 1.39674 L -24.7139 1.33581 L -24.7171 1.27486 L -24.7202 1.21391 L -24.7231 1.15295 L -24.7259 1.09198 L -24.7285 1.03101 L -24.731 0.97003 L -24.7333 0.909044 L -24.7355 0.848053 L -24.7375 0.787057 L -24.7393 0.726056 L -24.7411 0.665051 L -24.7426 0.604042 L -24.744 0.543029 L -24.7453 0.482012 L -24.7464 0.420993 L -24.7474 0.359971 L -24.7482 0.298947 L -24.7489 0.237921 L -24.7494 0.176894 L -24.7497 0.115866 L -24.7497 -0.115866 L -24.7494 -0.176894 L -24.7489 -0.237921 L -24.7482 -0.298947 L -24.7474 -0.359971 L -24.7464 -0.420993 L -24.7453 -0.482012 L -24.744 -0.543029 L -24.7426 -0.604042 L -24.7411 -0.665051 L -24.7393 -0.726056 L -24.7375 -0.787057 L -24.7355 -0.848053 L -24.7333 -0.909044 L -24.731 -0.97003 L -24.7285 -1.03101 L -24.7259 -1.09198 L -24.7231 -1.15295 L -24.7202 -1.21391 L -24.7171 -1.27486 L -24.7139 -1.33581 L -24.7106 -1.39674 L -24.707 -1.45767 L -24.7034 -1.51859 L -24.6995 -1.5795 L -24.6956 -1.6404 L -24.6915 -1.70129 L -24.6286 -1.72597 L -24.5656 -1.75065 L -24.5027 -1.77533 L -24.4397 -1.80001 L -24.3767 -1.82468 L -24.3136 -1.84935 L -24.2505 -1.87402 L -24.1874 -1.89869 L -24.1242 -1.92335 L -24.061 -1.94801 L -23.9977 -1.97267 L -23.9345 -1.99732 L -23.8711 -2.02197 L -23.8078 -2.04662 L -23.7444 -2.07126 L -23.681 -2.09591 L -23.6175 -2.12054 L -23.554 -2.14518 L -23.4904 -2.16981 L -23.4269 -2.19444 L -23.3632 -2.21906 L -23.2996 -2.24368 L -23.2359 -2.2683 L -23.1721 -2.29291 L -23.1083 -2.31752 L -23.0445 -2.34212 L -22.9807 -2.36672 L -22.9167 -2.39132 L -22.8528 -2.41591 L -22.7888 -2.44049 L -22.7248 -2.46508 L -22.6607 -2.48965 L -22.5966 -2.51423 L -22.5324 -2.53879 L -22.5324 -2.53879 L -22.5895 -2.57702 L -22.6466 -2.61525 L -22.7036 -2.65347 L -22.7605 -2.69168 L -22.8174 -2.72989 L -22.8743 -2.7681 L -22.9311 -2.8063 L -22.9879 -2.84449 L -23.0447 -2.88268 L -23.1014 -2.92086 L -23.158 -2.95904 L -23.2147 -2.99722 L -23.2713 -3.03539 L -23.3278 -3.07355 L -23.3843 -3.11171 L -23.4408 -3.14986 L -23.4972 -3.18801 L -23.5536 -3.22615 L -23.61 -3.26429 L -23.6663 -3.30242 L -23.7226 -3.34055 L -23.7788 -3.37867 L -23.835 -3.41679 L -23.8912 -3.4549 L -23.9473 -3.49301 L -24.0034 -3.53111 L -24.0595 -3.56921 L -24.1155 -3.6073 L -24.1715 -3.64538 L -24.2275 -3.68346 L -24.2834 -3.72154 L -24.3393 -3.75961 L -24.3951 -3.79767 L -24.451 -3.83573 L -24.4414 -3.89601 L -24.4318 -3.95627 L -24.4219 -4.0165 L -24.4119 -4.07671 L -24.4018 -4.13689 L -24.3915 -4.19705 L -24.3811 -4.25718 L -24.3705 -4.31729 L -24.3598 -4.37737 L -24.349 -4.43743 L -24.3379 -4.49745 L -24.3268 -4.55745 L -24.3155 -4.61742 L -24.304 -4.67737 L -24.2924 -4.73728 L -24.2806 -4.79717 L -24.2687 -4.85703 L -24.2567 -4.91686 L -24.2445 -4.97665 L -24.2321 -5.03642 L -24.2197 -5.09616 L -24.207 -5.15586 L -24.1942 -5.21554 L -24.1813 -5.27518 L -24.1682 -5.33479 L -24.155 -5.39437 L -24.1034 -5.62029 L -24.0895 -5.67971 L -24.0754 -5.73909 L -24.0612 -5.79844 L -24.0468 -5.85776 L -24.0323 -5.91703 L -24.0176 -5.97628 L -24.0028 -6.03548 L -23.9879 -6.09465 L -23.9728 -6.15378 L -23.9575 -6.21288 L -23.9421 -6.27193 L -23.9266 -6.33095 L -23.9109 -6.38993 L -23.8951 -6.44887 L -23.8791 -6.50777 L -23.863 -6.56663 L -23.8467 -6.62546 L -23.8303 -6.68424 L -23.8138 -6.74298 L -23.7971 -6.80168 L -23.7802 -6.86034 L -23.7632 -6.91896 L -23.7461 -6.97753 L -23.7288 -7.03606 L -23.7114 -7.09455 L -23.6938 -7.153 L -23.627 -7.16307 L -23.5602 -7.17313 L -23.4933 -7.18318 L -23.4264 -7.19322 L -23.3595 -7.20325 L -23.2925 -7.21327 L -23.2255 -7.22328 L -23.1584 -7.23328 L -23.0914 -7.24326 L -23.0242 -7.25324 L -22.9571 -7.26321 L -22.8899 -7.27316 L -22.8227 -7.2831 L -22.7555 -7.29304 L -22.6882 -7.30296 L -22.6208 -7.31287 L -22.5535 -7.32276 L -22.4861 -7.33265 L -22.4187 -7.34252 L -22.3512 -7.35238 L -22.2837 -7.36223 L -22.2161 -7.37207 L -22.1486 -7.38189 L -22.0809 -7.3917 L -22.0133 -7.4015 L -21.9456 -7.41129 L -21.8778 -7.42106 L -21.8101 -7.43082 L -21.7422 -7.44056 L -21.6744 -7.45029 L -21.6065 -7.46001 L -21.5386 -7.46971 L -21.4706 -7.4794 L -21.4026 -7.48908 L -21.4026 -7.48908 L -21.4497 -7.53905 L -21.4968 -7.58901 L -21.5439 -7.63896 L -21.5909 -7.68889 L -21.6379 -7.7388 L -21.6848 -7.7887 L -21.7317 -7.83859 L -21.7786 -7.88847 L -21.8254 -7.93833 L -21.8722 -7.98817 L -21.919 -8.038 L -21.9657 -8.08782 L -22.0124 -8.13762 L -22.059 -8.18741 L -22.1056 -8.23719 L -22.1522 -8.28695 L -22.1987 -8.3367 L -22.2452 -8.38644 L -22.2916 -8.43616 L -22.3381 -8.48587 L -22.3845 -8.53556 L -22.4308 -8.58525 L -22.4771 -8.63492 L -22.5234 -8.68457 L -22.5697 -8.73421 L -22.6159 -8.78384 L -22.662 -8.83346 L -22.7082 -8.88306 L -22.7543 -8.93265 L -22.8004 -8.98223 L -22.8464 -9.0318 L -22.8925 -9.08135 L -22.9384 -9.13089 L -22.9844 -9.18041 L -22.9617 -9.23706 L -22.9388 -9.29365 L -22.9159 -9.35019 L -22.8927 -9.40667 L -22.8695 -9.46309 L -22.8461 -9.51945 L -22.8225 -9.57576 L -22.7988 -9.632 L -22.775 -9.68819 L -22.7511 -9.74432 L -22.727 -9.80039 L -22.7027 -9.85641 L -22.6784 -9.91236 L -22.6538 -9.96825 L -22.6292 -10.0241 L -22.6044 -10.0798 L -22.5795 -10.1356 L -22.5544 -10.1912 L -22.5292 -10.2468 L -22.5039 -10.3023 L -22.4784 -10.3578 L -22.4528 -10.4132 L -22.4271 -10.4685 L -22.4012 -10.5238 L -22.3752 -10.579 L -22.349 -10.6341 L -22.2485 -10.8429 L -22.2217 -10.8977 L -22.1947 -10.9525 L -22.1676 -11.0072 L -22.1404 -11.0618 L -22.1131 -11.1164 L -22.0856 -11.1709 L -22.058 -11.2253 L -22.0303 -11.2796 L -22.0024 -11.3339 L -21.9744 -11.3882 L -21.9462 -11.4423 L -21.9179 -11.4964 L -21.8895 -11.5504 L -21.861 -11.6043 L -21.8323 -11.6582 L -21.8035 -11.712 L -21.7745 -11.7657 L -21.7454 -11.8194 L -21.7162 -11.873 L -21.6869 -11.9265 L -21.6574 -11.9799 L -21.6278 -12.0333 L -21.5981 -12.0866 L -21.5682 -12.1398 L -21.5382 -12.193 L -21.5081 -12.246 L -21.4407 -12.241 L -21.3733 -12.2359 L -21.3059 -12.2308 L -21.2384 -12.2257 L -21.1709 -12.2206 L -21.1034 -12.2155 L -21.0358 -12.2103 L -20.9682 -12.2052 L -20.9006 -12.2 L -20.833 -12.1948 L -20.7653 -12.1895 L -20.6976 -12.1843 L -20.6299 -12.179 L -20.5621 -12.1738 L -20.4943 -12.1684 L -20.4264 -12.1631 L -20.3586 -12.1578 L -20.2907 -12.1524 L -20.2227 -12.1471 L -20.1547 -12.1417 L -20.0867 -12.1362 L -20.0187 -12.1308 L -19.9506 -12.1253 L -19.8825 -12.1198 L -19.8144 -12.1143 L -19.7462 -12.1088 L -19.678 -12.1033 L -19.6097 -12.0977 L -19.5414 -12.0921 L -19.4731 -12.0865 L -19.4048 -12.0809 L -19.3364 -12.0752 L -19.2679 -12.0695 L -19.1995 -12.0638 L -19.1995 -12.0638 L -19.2343 -12.123 L -19.2691 -12.1822 L -19.3039 -12.2414 L -19.3386 -12.3005 L -19.3733 -12.3597 L -19.408 -12.4188 L -19.4426 -12.4778 L -19.4772 -12.5369 L -19.5118 -12.5959 L -19.5463 -12.6549 L -19.5808 -12.7139 L -19.6153 -12.7729 L -19.6497 -12.8318 L -19.6841 -12.8907 L -19.7184 -12.9496 L -19.7527 -13.0085 L -19.787 -13.0674 L -19.8213 -13.1262 L -19.8555 -13.185 L -19.8897 -13.2438 L -19.9239 -13.3026 L -19.958 -13.3613 L -19.9921 -13.42 L -20.0262 -13.4788 L -20.0602 -13.5374 L -20.0942 -13.5961 L -20.1282 -13.6548 L -20.1622 -13.7134 L -20.1961 -13.772 L -20.23 -13.8306 L -20.2639 -13.8892 L -20.2977 -13.9477 L -20.3315 -14.0062 L -20.3653 -14.0648 L -20.3306 -14.1149 L -20.2957 -14.165 L -20.2607 -14.215 L -20.2256 -14.2649 L -20.1903 -14.3148 L -20.155 -14.3645 L -20.1195 -14.4142 L -20.0839 -14.4637 L -20.0482 -14.5132 L -20.0123 -14.5626 L -19.9764 -14.6119 L -19.9403 -14.6611 L -19.9041 -14.7102 L -19.8677 -14.7593 L -19.8313 -14.8082 L -19.7947 -14.8571 L -19.758 -14.9058 L -19.7212 -14.9545 L -19.6842 -15.0031 L -19.6472 -15.0516 L -19.61 -15.1 L -19.5727 -15.1483 L -19.5353 -15.1965 L -19.4978 -15.2446 L -19.4601 -15.2927 L -19.4224 -15.3406 L -19.2779 -15.5218 L -19.2395 -15.5693 L -19.2011 -15.6167 L -19.1625 -15.664 L -19.1238 -15.7112 L -19.085 -15.7583 L -19.0461 -15.8053 L -19.0071 -15.8522 L -18.968 -15.899 L -18.9287 -15.9458 L -18.8893 -15.9924 L -18.8498 -16.0389 L -18.8102 -16.0853 L -18.7705 -16.1317 L -18.7307 -16.1779 L -18.6907 -16.2241 L -18.6506 -16.2701 L -18.6105 -16.316 L -18.5702 -16.3619 L -18.5298 -16.4076 L -18.4893 -16.4533 L -18.4486 -16.4988 L -18.4079 -16.5442 L -18.367 -16.5896 L -18.3261 -16.6348 L -18.285 -16.68 L -18.2438 -16.725 L -18.1793 -16.7051 L -18.1147 -16.6851 L -18.0501 -16.6652 L -17.9854 -16.6452 L -17.9208 -16.6252 L -17.8561 -16.6052 L -17.7914 -16.5851 L -17.7266 -16.565 L -17.6619 -16.5449 L -17.5971 -16.5248 L -17.5322 -16.5046 L -17.4674 -16.4845 L -17.4025 -16.4643 L -17.3376 -16.444 L -17.2727 -16.4238 L -17.2077 -16.4035 L -17.1428 -16.3832 L -17.0778 -16.3628 L -17.0127 -16.3425 L -16.9476 -16.3221 L -16.8826 -16.3017 L -16.8174 -16.2812 L -16.7523 -16.2608 L -16.6871 -16.2403 L -16.6219 -16.2197 L -16.5566 -16.1992 L -16.4914 -16.1786 L -16.4261 -16.158 L -16.3607 -16.1373 L -16.2954 -16.1166 L -16.23 -16.0959 L -16.1646 -16.0752 L -16.0991 -16.0544 L -16.0336 -16.0336 L -16.0336 -16.0336 L -16.0544 -16.0991 L -16.0752 -16.1646 L -16.0959 -16.23 L -16.1166 -16.2954 L -16.1373 -16.3607 L -16.158 -16.4261 L -16.1786 -16.4914 L -16.1992 -16.5566 L -16.2197 -16.6219 L -16.2403 -16.6871 L -16.2608 -16.7523 L -16.2812 -16.8174 L -16.3017 -16.8826 L -16.3221 -16.9476 L -16.3425 -17.0127 L -16.3628 -17.0778 L -16.3832 -17.1428 L -16.4035 -17.2077 L -16.4238 -17.2727 L -16.444 -17.3376 L -16.4643 -17.4025 L -16.4845 -17.4674 L -16.5046 -17.5322 L -16.5248 -17.5971 L -16.5449 -17.6619 L -16.565 -17.7266 L -16.5851 -17.7914 L -16.6052 -17.8561 L -16.6252 -17.9208 L -16.6452 -17.9854 L -16.6652 -18.0501 L -16.6851 -18.1147 L -16.7051 -18.1793 L -16.725 -18.2438 L -16.68 -18.285 L -16.6348 -18.3261 L -16.5896 -18.367 L -16.5442 -18.4079 L -16.4988 -18.4486 L -16.4533 -18.4893 L -16.4076 -18.5298 L -16.3619 -18.5702 L -16.316 -18.6105 L -16.2701 -18.6506 L -16.2241 -18.6907 L -16.1779 -18.7307 L -16.1317 -18.7705 L -16.0853 -18.8102 L -16.0389 -18.8498 L -15.9924 -18.8893 L -15.9458 -18.9287 L -15.899 -18.968 L -15.8522 -19.0071 L -15.8053 -19.0461 L -15.7583 -19.085 L -15.7112 -19.1238 L -15.664 -19.1625 L -15.6167 -19.2011 L -15.5693 -19.2395 L -15.5218 -19.2779 L -15.3406 -19.4224 L -15.2927 -19.4601 L -15.2446 -19.4978 L -15.1965 -19.5353 L -15.1483 -19.5727 L -15.1 -19.61 L -15.0516 -19.6472 L -15.0031 -19.6842 L -14.9545 -19.7212 L -14.9058 -19.758 L -14.8571 -19.7947 L -14.8082 -19.8313 L -14.7593 -19.8677 L -14.7102 -19.9041 L -14.6611 -19.9403 L -14.6119 -19.9764 L -14.5626 -20.0123 L -14.5132 -20.0482 L -14.4637 -20.0839 L -14.4142 -20.1195 L -14.3645 -20.155 L -14.3148 -20.1903 L -14.2649 -20.2256 L -14.215 -20.2607 L -14.165 -20.2957 L -14.1149 -20.3306 L -14.0648 -20.3653 L -14.0062 -20.3315 L -13.9477 -20.2977 L -13.8892 -20.2639 L -13.8306 -20.23 L -13.772 -20.1961 L -13.7134 -20.1622 L -13.6548 -20.1282 L -13.5961 -20.0942 L -13.5374 -20.0602 L -13.4788 -20.0262 L -13.42 -19.9921 L -13.3613 -19.958 L -13.3026 -19.9239 L -13.2438 -19.8897 L -13.185 -19.8555 L -13.1262 -19.8213 L -13.0674 -19.787 L -13.0085 -19.7527 L -12.9496 -19.7184 L -12.8907 -19.6841 L -12.8318 -19.6497 L -12.7729 -19.6153 L -12.7139 -19.5808 L -12.6549 -19.5463 L -12.5959 -19.5118 L -12.5369 -19.4772 L -12.4778 -19.4426 L -12.4188 -19.408 L -12.3597 -19.3733 L -12.3005 -19.3386 L -12.2414 -19.3039 L -12.1822 -19.2691 L -12.123 -19.2343 L -12.0638 -19.1995 L -12.0638 -19.1995 L -12.0695 -19.2679 L -12.0752 -19.3364 L -12.0809 -19.4048 L -12.0865 -19.4731 L -12.0921 -19.5414 L -12.0977 -19.6097 L -12.1033 -19.678 L -12.1088 -19.7462 L -12.1143 -19.8144 L -12.1198 -19.8825 L -12.1253 -19.9506 L -12.1308 -20.0187 L -12.1362 -20.0867 L -12.1417 -20.1547 L -12.1471 -20.2227 L -12.1524 -20.2907 L -12.1578 -20.3586 L -12.1631 -20.4264 L -12.1684 -20.4943 L -12.1738 -20.5621 L -12.179 -20.6299 L -12.1843 -20.6976 L -12.1895 -20.7653 L -12.1948 -20.833 L -12.2 -20.9006 L -12.2052 -20.9682 L -12.2103 -21.0358 L -12.2155 -21.1034 L -12.2206 -21.1709 L -12.2257 -21.2384 L -12.2308 -21.3059 L -12.2359 -21.3733 L -12.241 -21.4407 L -12.246 -21.5081 L -12.193 -21.5382 L -12.1398 -21.5682 L -12.0866 -21.5981 L -12.0333 -21.6278 L -11.9799 -21.6574 L -11.9265 -21.6869 L -11.873 -21.7162 L -11.8194 -21.7454 L -11.7657 -21.7745 L -11.712 -21.8035 L -11.6582 -21.8323 L -11.6043 -21.861 L -11.5504 -21.8895 L -11.4964 -21.9179 L -11.4423 -21.9462 L -11.3882 -21.9744 L -11.3339 -22.0024 L -11.2796 -22.0303 L -11.2253 -22.058 L -11.1709 -22.0856 L -11.1164 -22.1131 L -11.0618 -22.1404 L -11.0072 -22.1676 L -10.9525 -22.1947 L -10.8977 -22.2217 L -10.8429 -22.2485 L -10.6341 -22.349 L -10.579 -22.3752 L -10.5238 -22.4012 L -10.4685 -22.4271 L -10.4132 -22.4528 L -10.3578 -22.4784 L -10.3023 -22.5039 L -10.2468 -22.5292 L -10.1912 -22.5544 L -10.1356 -22.5795 L -10.0798 -22.6044 L -10.0241 -22.6292 L -9.96825 -22.6538 L -9.91236 -22.6784 L -9.85641 -22.7027 L -9.80039 -22.727 L -9.74432 -22.7511 L -9.68819 -22.775 L -9.632 -22.7988 L -9.57576 -22.8225 L -9.51945 -22.8461 L -9.46309 -22.8695 L -9.40667 -22.8927 L -9.35019 -22.9159 L -9.29365 -22.9388 L -9.23706 -22.9617 L -9.18041 -22.9844 L -9.13089 -22.9384 L -9.08135 -22.8925 L -9.0318 -22.8464 L -8.98223 -22.8004 L -8.93265 -22.7543 L -8.88306 -22.7082 L -8.83346 -22.662 L -8.78384 -22.6159 L -8.73421 -22.5697 L -8.68457 -22.5234 L -8.63492 -22.4771 L -8.58525 -22.4308 L -8.53556 -22.3845 L -8.48587 -22.3381 L -8.43616 -22.2916 L -8.38644 -22.2452 L -8.3367 -22.1987 L -8.28695 -22.1522 L -8.23719 -22.1056 L -8.18741 -22.059 L -8.13762 -22.0124 L -8.08782 -21.9657 L -8.038 -21.919 L -7.98817 -21.8722 L -7.93833 -21.8254 L -7.88847 -21.7786 L -7.83859 -21.7317 L -7.7887 -21.6848 L -7.7388 -21.6379 L -7.68889 -21.5909 L -7.63896 -21.5439 L -7.58901 -21.4968 L -7.53905 -21.4497 L -7.48908 -21.4026 L -7.48908 -21.4026 L -7.4794 -21.4706 L -7.46971 -21.5386 L -7.46001 -21.6065 L -7.45029 -21.6744 L -7.44056 -21.7422 L -7.43082 -21.8101 L -7.42106 -21.8778 L -7.41129 -21.9456 L -7.4015 -22.0133 L -7.3917 -22.0809 L -7.38189 -22.1486 L -7.37207 -22.2161 L -7.36223 -22.2837 L -7.35238 -22.3512 L -7.34252 -22.4187 L -7.33265 -22.4861 L -7.32276 -22.5535 L -7.31287 -22.6208 L -7.30296 -22.6882 L -7.29304 -22.7555 L -7.2831 -22.8227 L -7.27316 -22.8899 L -7.26321 -22.9571 L -7.25324 -23.0242 L -7.24326 -23.0914 L -7.23328 -23.1584 L -7.22328 -23.2255 L -7.21327 -23.2925 L -7.20325 -23.3595 L -7.19322 -23.4264 L -7.18318 -23.4933 L -7.17313 -23.5602 L -7.16307 -23.627 L -7.153 -23.6938 L -7.09455 -23.7114 L -7.03606 -23.7288 L -6.97753 -23.7461 L -6.91896 -23.7632 L -6.86034 -23.7802 L -6.80168 -23.7971 L -6.74298 -23.8138 L -6.68424 -23.8303 L -6.62546 -23.8467 L -6.56663 -23.863 L -6.50777 -23.8791 L -6.44887 -23.8951 L -6.38993 -23.9109 L -6.33095 -23.9266 L -6.27193 -23.9421 L -6.21288 -23.9575 L -6.15378 -23.9728 L -6.09465 -23.9879 L -6.03548 -24.0028 L -5.97628 -24.0176 L -5.91703 -24.0323 L -5.85776 -24.0468 L -5.79844 -24.0612 L -5.73909 -24.0754 L -5.67971 -24.0895 L -5.62029 -24.1034 L -5.39437 -24.155 L -5.33479 -24.1682 L -5.27518 -24.1813 L -5.21554 -24.1942 L -5.15586 -24.207 L -5.09616 -24.2197 L -5.03642 -24.2321 L -4.97665 -24.2445 L -4.91686 -24.2567 L -4.85703 -24.2687 L -4.79717 -24.2806 L -4.73728 -24.2924 L -4.67737 -24.304 L -4.61742 -24.3155 L -4.55745 -24.3268 L -4.49745 -24.3379 L -4.43743 -24.349 L -4.37737 -24.3598 L -4.31729 -24.3705 L -4.25718 -24.3811 L -4.19705 -24.3915 L -4.13689 -24.4018 L -4.07671 -24.4119 L -4.0165 -24.4219 L -3.95627 -24.4318 L -3.89601 -24.4414 L -3.83573 -24.451 L -3.79767 -24.3951 L -3.75961 -24.3393 L -3.72154 -24.2834 L -3.68346 -24.2275 L -3.64538 -24.1715 L -3.6073 -24.1155 L -3.56921 -24.0595 L -3.53111 -24.0034 L -3.49301 -23.9473 L -3.4549 -23.8912 L -3.41679 -23.835 L -3.37867 -23.7788 L -3.34055 -23.7226 L -3.30242 -23.6663 L -3.26429 -23.61 L -3.22615 -23.5536 L -3.18801 -23.4972 L -3.14986 -23.4408 L -3.11171 -23.3843 L -3.07355 -23.3278 L -3.03539 -23.2713 L -2.99722 -23.2147 L -2.95904 -23.158 L -2.92086 -23.1014 L -2.88268 -23.0447 L -2.84449 -22.9879 L -2.8063 -22.9311 L -2.7681 -22.8743 L -2.72989 -22.8174 L -2.69168 -22.7605 L -2.65347 -22.7036 L -2.61525 -22.6466 L -2.57702 -22.5895 L -2.53879 -22.5324 L -2.53879 -22.5324 L -2.51423 -22.5966 L -2.48965 -22.6607 L -2.46508 -22.7248 L -2.44049 -22.7888 L -2.41591 -22.8528 L -2.39132 -22.9167 L -2.36672 -22.9807 L -2.34212 -23.0445 L -2.31752 -23.1083 L -2.29291 -23.1721 L -2.2683 -23.2359 L -2.24368 -23.2996 L -2.21906 -23.3632 L -2.19444 -23.4269 L -2.16981 -23.4904 L -2.14518 -23.554 L -2.12054 -23.6175 L -2.09591 -23.681 L -2.07126 -23.7444 L -2.04662 -23.8078 L -2.02197 -23.8711 L -1.99732 -23.9345 L -1.97267 -23.9977 L -1.94801 -24.061 L -1.92335 -24.1242 L -1.89869 -24.1874 L -1.87402 -24.2505 L -1.84935 -24.3136 L -1.82468 -24.3767 L -1.80001 -24.4397 L -1.77533 -24.5027 L -1.75065 -24.5656 L -1.72597 -24.6286 L -1.70129 -24.6915 L -1.6404 -24.6956 L -1.5795 -24.6995 L -1.51859 -24.7034 L -1.45767 -24.707 L -1.39674 -24.7106 L -1.33581 -24.7139 L -1.27486 -24.7171 L -1.21391 -24.7202 L -1.15295 -24.7231 L -1.09198 -24.7259 L -1.03101 -24.7285 L -0.97003 -24.731 L -0.909044 -24.7333 L -0.848053 -24.7355 L -0.787057 -24.7375 L -0.726056 -24.7393 L -0.665051 -24.7411 L -0.604042 -24.7426 L -0.543029 -24.744 L -0.482012 -24.7453 L -0.420993 -24.7464 L -0.359971 -24.7474 L -0.298947 -24.7482 L -0.237921 -24.7489 L -0.176894 -24.7494 L -0.115866 -24.7497 L 0.115866 -24.7497 L 0.176894 -24.7494 L 0.237921 -24.7489 L 0.298947 -24.7482 L 0.359971 -24.7474 L 0.420993 -24.7464 L 0.482012 -24.7453 L 0.543029 -24.744 L 0.604042 -24.7426 L 0.665051 -24.7411 L 0.726056 -24.7393 L 0.787057 -24.7375 L 0.848053 -24.7355 L 0.909044 -24.7333 L 0.97003 -24.731 L 1.03101 -24.7285 L 1.09198 -24.7259 L 1.15295 -24.7231 L 1.21391 -24.7202 L 1.27486 -24.7171 L 1.33581 -24.7139 L 1.39674 -24.7106 L 1.45767 -24.707 L 1.51859 -24.7034 L 1.5795 -24.6995 L 1.6404 -24.6956 L 1.70129 -24.6915 L 1.72597 -24.6286 L 1.75065 -24.5656 L 1.77533 -24.5027 L 1.80001 -24.4397 L 1.82468 -24.3767 L 1.84935 -24.3136 L 1.87402 -24.2505 L 1.89869 -24.1874 L 1.92335 -24.1242 L 1.94801 -24.061 L 1.97267 -23.9977 L 1.99732 -23.9345 L 2.02197 -23.8711 L 2.04662 -23.8078 L 2.07126 -23.7444 L 2.09591 -23.681 L 2.12054 -23.6175 L 2.14518 -23.554 L 2.16981 -23.4904 L 2.19444 -23.4269 L 2.21906 -23.3632 L 2.24368 -23.2996 L 2.2683 -23.2359 L 2.29291 -23.1721 L 2.31752 -23.1083 L 2.34212 -23.0445 L 2.36672 -22.9807 L 2.39132 -22.9167 L 2.41591 -22.8528 L 2.44049 -22.7888 L 2.46508 -22.7248 L 2.48965 -22.6607 L 2.51423 -22.5966 L 2.53879 -22.5324 L 2.53879 -22.5324 L 2.57702 -22.5895 L 2.61525 -22.6466 L 2.65347 -22.7036 L 2.69168 -22.7605 L 2.72989 -22.8174 L 2.7681 -22.8743 L 2.8063 -22.9311 L 2.84449 -22.9879 L 2.88268 -23.0447 L 2.92086 -23.1014 L 2.95904 -23.158 L 2.99722 -23.2147 L 3.03539 -23.2713 L 3.07355 -23.3278 L 3.11171 -23.3843 L 3.14986 -23.4408 L 3.18801 -23.4972 L 3.22615 -23.5536 L 3.26429 -23.61 L 3.30242 -23.6663 L 3.34055 -23.7226 L 3.37867 -23.7788 L 3.41679 -23.835 L 3.4549 -23.8912 L 3.49301 -23.9473 L 3.53111 -24.0034 L 3.56921 -24.0595 L 3.6073 -24.1155 L 3.64538 -24.1715 L 3.68346 -24.2275 L 3.72154 -24.2834 L 3.75961 -24.3393 L 3.79767 -24.3951 L 3.83573 -24.451 L 3.89601 -24.4414 L 3.95627 -24.4318 L 4.0165 -24.4219 L 4.07671 -24.4119 L 4.13689 -24.4018 L 4.19705 -24.3915 L 4.25718 -24.3811 L 4.31729 -24.3705 L 4.37737 -24.3598 L 4.43743 -24.349 L 4.49745 -24.3379 L 4.55745 -24.3268 L 4.61742 -24.3155 L 4.67737 -24.304 L 4.73728 -24.2924 L 4.79717 -24.2806 L 4.85703 -24.2687 L 4.91686 -24.2567 L 4.97665 -24.2445 L 5.03642 -24.2321 L 5.09616 -24.2197 L 5.15586 -24.207 L 5.21554 -24.1942 L 5.27518 -24.1813 L 5.33479 -24.1682 L 5.39437 -24.155 L 5.62029 -24.1034 L 5.67971 -24.0895 L 5.73909 -24.0754 L 5.79844 -24.0612 L 5.85776 -24.0468 L 5.91703 -24.0323 L 5.97628 -24.0176 L 6.03548 -24.0028 L 6.09465 -23.9879 L 6.15378 -23.9728 L 6.21288 -23.9575 L 6.27193 -23.9421 L 6.33095 -23.9266 L 6.38993 -23.9109 L 6.44887 -23.8951 L 6.50777 -23.8791 L 6.56663 -23.863 L 6.62546 -23.8467 L 6.68424 -23.8303 L 6.74298 -23.8138 L 6.80168 -23.7971 L 6.86034 -23.7802 L 6.91896 -23.7632 L 6.97753 -23.7461 L 7.03606 -23.7288 L 7.09455 -23.7114 L 7.153 -23.6938 L 7.16307 -23.627 L 7.17313 -23.5602 L 7.18318 -23.4933 L 7.19322 -23.4264 L 7.20325 -23.3595 L 7.21327 -23.2925 L 7.22328 -23.2255 L 7.23328 -23.1584 L 7.24326 -23.0914 L 7.25324 -23.0242 L 7.26321 -22.9571 L 7.27316 -22.8899 L 7.2831 -22.8227 L 7.29304 -22.7555 L 7.30296 -22.6882 L 7.31287 -22.6208 L 7.32276 -22.5535 L 7.33265 -22.4861 L 7.34252 -22.4187 L 7.35238 -22.3512 L 7.36223 -22.2837 L 7.37207 -22.2161 L 7.38189 -22.1486 L 7.3917 -22.0809 L 7.4015 -22.0133 L 7.41129 -21.9456 L 7.42106 -21.8778 L 7.43082 -21.8101 L 7.44056 -21.7422 L 7.45029 -21.6744 L 7.46001 -21.6065 L 7.46971 -21.5386 L 7.4794 -21.4706 L 7.48908 -21.4026 L 7.48908 -21.4026 L 7.53905 -21.4497 L 7.58901 -21.4968 L 7.63896 -21.5439 L 7.68889 -21.5909 L 7.7388 -21.6379 L 7.7887 -21.6848 L 7.83859 -21.7317 L 7.88847 -21.7786 L 7.93833 -21.8254 L 7.98817 -21.8722 L 8.038 -21.919 L 8.08782 -21.9657 L 8.13762 -22.0124 L 8.18741 -22.059 L 8.23719 -22.1056 L 8.28695 -22.1522 L 8.3367 -22.1987 L 8.38644 -22.2452 L 8.43616 -22.2916 L 8.48587 -22.3381 L 8.53556 -22.3845 L 8.58525 -22.4308 L 8.63492 -22.4771 L 8.68457 -22.5234 L 8.73421 -22.5697 L 8.78384 -22.6159 L 8.83346 -22.662 L 8.88306 -22.7082 L 8.93265 -22.7543 L 8.98223 -22.8004 L 9.0318 -22.8464 L 9.08135 -22.8925 L 9.13089 -22.9384 L 9.18041 -22.9844 L 9.23706 -22.9617 L 9.29365 -22.9388 L 9.35019 -22.9159 L 9.40667 -22.8927 L 9.46309 -22.8695 L 9.51945 -22.8461 L 9.57576 -22.8225 L 9.632 -22.7988 L 9.68819 -22.775 L 9.74432 -22.7511 L 9.80039 -22.727 L 9.85641 -22.7027 L 9.91236 -22.6784 L 9.96825 -22.6538 L 10.0241 -22.6292 L 10.0798 -22.6044 L 10.1356 -22.5795 L 10.1912 -22.5544 L 10.2468 -22.5292 L 10.3023 -22.5039 L 10.3578 -22.4784 L 10.4132 -22.4528 L 10.4685 -22.4271 L 10.5238 -22.4012 L 10.579 -22.3752 L 10.6341 -22.349 L 10.8429 -22.2485 L 10.8977 -22.2217 L 10.9525 -22.1947 L 11.0072 -22.1676 L 11.0618 -22.1404 L 11.1164 -22.1131 L 11.1709 -22.0856 L 11.2253 -22.058 L 11.2796 -22.0303 L 11.3339 -22.0024 L 11.3882 -21.9744 L 11.4423 -21.9462 L 11.4964 -21.9179 L 11.5504 -21.8895 L 11.6043 -21.861 L 11.6582 -21.8323 L 11.712 -21.8035 L 11.7657 -21.7745 L 11.8194 -21.7454 L 11.873 -21.7162 L 11.9265 -21.6869 L 11.9799 -21.6574 L 12.0333 -21.6278 L 12.0866 -21.5981 L 12.1398 -21.5682 L 12.193 -21.5382 L 12.246 -21.5081 L 12.241 -21.4407 L 12.2359 -21.3733 L 12.2308 -21.3059 L 12.2257 -21.2384 L 12.2206 -21.1709 L 12.2155 -21.1034 L 12.2103 -21.0358 L 12.2052 -20.9682 L 12.2 -20.9006 L 12.1948 -20.833 L 12.1895 -20.7653 L 12.1843 -20.6976 L 12.179 -20.6299 L 12.1738 -20.5621 L 12.1684 -20.4943 L 12.1631 -20.4264 L 12.1578 -20.3586 L 12.1524 -20.2907 L 12.1471 -20.2227 L 12.1417 -20.1547 L 12.1362 -20.0867 L 12.1308 -20.0187 L 12.1253 -19.9506 L 12.1198 -19.8825 L 12.1143 -19.8144 L 12.1088 -19.7462 L 12.1033 -19.678 L 12.0977 -19.6097 L 12.0921 -19.5414 L 12.0865 -19.4731 L 12.0809 -19.4048 L 12.0752 -19.3364 L 12.0695 -19.2679 L 12.0638 -19.1995 L 12.0638 -19.1995 L 12.123 -19.2343 L 12.1822 -19.2691 L 12.2414 -19.3039 L 12.3005 -19.3386 L 12.3597 -19.3733 L 12.4188 -19.408 L 12.4778 -19.4426 L 12.5369 -19.4772 L 12.5959 -19.5118 L 12.6549 -19.5463 L 12.7139 -19.5808 L 12.7729 -19.6153 L 12.8318 -19.6497 L 12.8907 -19.6841 L 12.9496 -19.7184 L 13.0085 -19.7527 L 13.0674 -19.787 L 13.1262 -19.8213 L 13.185 -19.8555 L 13.2438 -19.8897 L 13.3026 -19.9239 L 13.3613 -19.958 L 13.42 -19.9921 L 13.4788 -20.0262 L 13.5374 -20.0602 L 13.5961 -20.0942 L 13.6548 -20.1282 L 13.7134 -20.1622 L 13.772 -20.1961 L 13.8306 -20.23 L 13.8892 -20.2639 L 13.9477 -20.2977 L 14.0062 -20.3315 L 14.0648 -20.3653 L 14.1149 -20.3306 L 14.165 -20.2957 L 14.215 -20.2607 L 14.2649 -20.2256 L 14.3148 -20.1903 L 14.3645 -20.155 L 14.4142 -20.1195 L 14.4637 -20.0839 L 14.5132 -20.0482 L 14.5626 -20.0123 L 14.6119 -19.9764 L 14.6611 -19.9403 L 14.7102 -19.9041 L 14.7593 -19.8677 L 14.8082 -19.8313 L 14.8571 -19.7947 L 14.9058 -19.758 L 14.9545 -19.7212 L 15.0031 -19.6842 L 15.0516 -19.6472 L 15.1 -19.61 L 15.1483 -19.5727 L 15.1965 -19.5353 L 15.2446 -19.4978 L 15.2927 -19.4601 L 15.3406 -19.4224 L 15.5218 -19.2779 L 15.5693 -19.2395 L 15.6167 -19.2011 L 15.664 -19.1625 L 15.7112 -19.1238 L 15.7583 -19.085 L 15.8053 -19.0461 L 15.8522 -19.0071 L 15.899 -18.968 L 15.9458 -18.9287 L 15.9924 -18.8893 L 16.0389 -18.8498 L 16.0853 -18.8102 L 16.1317 -18.7705 L 16.1779 -18.7307 L 16.2241 -18.6907 L 16.2701 -18.6506 L 16.316 -18.6105 L 16.3619 -18.5702 L 16.4076 -18.5298 L 16.4533 -18.4893 L 16.4988 -18.4486 L 16.5442 -18.4079 L 16.5896 -18.367 L 16.6348 -18.3261 L 16.68 -18.285 L 16.725 -18.2438 L 16.7051 -18.1793 L 16.6851 -18.1147 L 16.6652 -18.0501 L 16.6452 -17.9854 L 16.6252 -17.9208 L 16.6052 -17.8561 L 16.5851 -17.7914 L 16.565 -17.7266 L 16.5449 -17.6619 L 16.5248 -17.5971 L 16.5046 -17.5322 L 16.4845 -17.4674 L 16.4643 -17.4025 L 16.444 -17.3376 L 16.4238 -17.2727 L 16.4035 -17.2077 L 16.3832 -17.1428 L 16.3628 -17.0778 L 16.3425 -17.0127 L 16.3221 -16.9476 L 16.3017 -16.8826 L 16.2812 -16.8174 L 16.2608 -16.7523 L 16.2403 -16.6871 L 16.2197 -16.6219 L 16.1992 -16.5566 L 16.1786 -16.4914 L 16.158 -16.4261 L 16.1373 -16.3607 L 16.1166 -16.2954 L 16.0959 -16.23 L 16.0752 -16.1646 L 16.0544 -16.0991 L 16.0336 -16.0336 L 16.0336 -16.0336 L 16.0991 -16.0544 L 16.1646 -16.0752 L 16.23 -16.0959 L 16.2954 -16.1166 L 16.3607 -16.1373 L 16.4261 -16.158 L 16.4914 -16.1786 L 16.5566 -16.1992 L 16.6219 -16.2197 L 16.6871 -16.2403 L 16.7523 -16.2608 L 16.8174 -16.2812 L 16.8826 -16.3017 L 16.9476 -16.3221 L 17.0127 -16.3425 L 17.0778 -16.3628 L 17.1428 -16.3832 L 17.2077 -16.4035 L 17.2727 -16.4238 L 17.3376 -16.444 L 17.4025 -16.4643 L 17.4674 -16.4845 L 17.5322 -16.5046 L 17.5971 -16.5248 L 17.6619 -16.5449 L 17.7266 -16.565 L 17.7914 -16.5851 L 17.8561 -16.6052 L 17.9208 -16.6252 L 17.9854 -16.6452 L 18.0501 -16.6652 L 18.1147 -16.6851 L 18.1793 -16.7051 L 18.2438 -16.725 L 18.285 -16.68 L 18.3261 -16.6348 L 18.367 -16.5896 L 18.4079 -16.5442 L 18.4486 -16.4988 L 18.4893 -16.4533 L 18.5298 -16.4076 L 18.5702 -16.3619 L 18.6105 -16.316 L 18.6506 -16.2701 L 18.6907 -16.2241 L 18.7307 -16.1779 L 18.7705 -16.1317 L 18.8102 -16.0853 L 18.8498 -16.0389 L 18.8893 -15.9924 L 18.9287 -15.9458 L 18.968 -15.899 L 19.0071 -15.8522 L 19.0461 -15.8053 L 19.085 -15.7583 L 19.1238 -15.7112 L 19.1625 -15.664 L 19.2011 -15.6167 L 19.2395 -15.5693 L 19.2779 -15.5218 L 19.4224 -15.3406 L 19.4601 -15.2927 L 19.4978 -15.2446 L 19.5353 -15.1965 L 19.5727 -15.1483 L 19.61 -15.1 L 19.6472 -15.0516 L 19.6842 -15.0031 L 19.7212 -14.9545 L 19.758 -14.9058 L 19.7947 -14.8571 L 19.8313 -14.8082 L 19.8677 -14.7593 L 19.9041 -14.7102 L 19.9403 -14.6611 L 19.9764 -14.6119 L 20.0123 -14.5626 L 20.0482 -14.5132 L 20.0839 -14.4637 L 20.1195 -14.4142 L 20.155 -14.3645 L 20.1903 -14.3148 L 20.2256 -14.2649 L 20.2607 -14.215 L 20.2957 -14.165 L 20.3306 -14.1149 L 20.3653 -14.0648 L 20.3315 -14.0062 L 20.2977 -13.9477 L 20.2639 -13.8892 L 20.23 -13.8306 L 20.1961 -13.772 L 20.1622 -13.7134 L 20.1282 -13.6548 L 20.0942 -13.5961 L 20.0602 -13.5374 L 20.0262 -13.4788 L 19.9921 -13.42 L 19.958 -13.3613 L 19.9239 -13.3026 L 19.8897 -13.2438 L 19.8555 -13.185 L 19.8213 -13.1262 L 19.787 -13.0674 L 19.7527 -13.0085 L 19.7184 -12.9496 L 19.6841 -12.8907 L 19.6497 -12.8318 L 19.6153 -12.7729 L 19.5808 -12.7139 L 19.5463 -12.6549 L 19.5118 -12.5959 L 19.4772 -12.5369 L 19.4426 -12.4778 L 19.408 -12.4188 L 19.3733 -12.3597 L 19.3386 -12.3005 L 19.3039 -12.2414 L 19.2691 -12.1822 L 19.2343 -12.123 L 19.1995 -12.0638 L 19.1995 -12.0638 L 19.2679 -12.0695 L 19.3364 -12.0752 L 19.4048 -12.0809 L 19.4731 -12.0865 L 19.5414 -12.0921 L 19.6097 -12.0977 L 19.678 -12.1033 L 19.7462 -12.1088 L 19.8144 -12.1143 L 19.8825 -12.1198 L 19.9506 -12.1253 L 20.0187 -12.1308 L 20.0867 -12.1362 L 20.1547 -12.1417 L 20.2227 -12.1471 L 20.2907 -12.1524 L 20.3586 -12.1578 L 20.4264 -12.1631 L 20.4943 -12.1684 L 20.5621 -12.1738 L 20.6299 -12.179 L 20.6976 -12.1843 L 20.7653 -12.1895 L 20.833 -12.1948 L 20.9006 -12.2 L 20.9682 -12.2052 L 21.0358 -12.2103 L 21.1034 -12.2155 L 21.1709 -12.2206 L 21.2384 -12.2257 L 21.3059 -12.2308 L 21.3733 -12.2359 L 21.4407 -12.241 L 21.5081 -12.246 L 21.5382 -12.193 L 21.5682 -12.1398 L 21.5981 -12.0866 L 21.6278 -12.0333 L 21.6574 -11.9799 L 21.6869 -11.9265 L 21.7162 -11.873 L 21.7454 -11.8194 L 21.7745 -11.7657 L 21.8035 -11.712 L 21.8323 -11.6582 L 21.861 -11.6043 L 21.8895 -11.5504 L 21.9179 -11.4964 L 21.9462 -11.4423 L 21.9744 -11.3882 L 22.0024 -11.3339 L 22.0303 -11.2796 L 22.058 -11.2253 L 22.0856 -11.1709 L 22.1131 -11.1164 L 22.1404 -11.0618 L 22.1676 -11.0072 L 22.1947 -10.9525 L 22.2217 -10.8977 L 22.2485 -10.8429 L 22.349 -10.6341 L 22.3752 -10.579 L 22.4012 -10.5238 L 22.4271 -10.4685 L 22.4528 -10.4132 L 22.4784 -10.3578 L 22.5039 -10.3023 L 22.5292 -10.2468 L 22.5544 -10.1912 L 22.5795 -10.1356 L 22.6044 -10.0798 L 22.6292 -10.0241 L 22.6538 -9.96825 L 22.6784 -9.91236 L 22.7027 -9.85641 L 22.727 -9.80039 L 22.7511 -9.74432 L 22.775 -9.68819 L 22.7988 -9.632 L 22.8225 -9.57576 L 22.8461 -9.51945 L 22.8695 -9.46309 L 22.8927 -9.40667 L 22.9159 -9.35019 L 22.9388 -9.29365 L 22.9617 -9.23706 L 22.9844 -9.18041 L 22.9384 -9.13089 L 22.8925 -9.08135 L 22.8464 -9.0318 L 22.8004 -8.98223 L 22.7543 -8.93265 L 22.7082 -8.88306 L 22.662 -8.83346 L 22.6159 -8.78384 L 22.5697 -8.73421 L 22.5234 -8.68457 L 22.4771 -8.63492 L 22.4308 -8.58525 L 22.3845 -8.53556 L 22.3381 -8.48587 L 22.2916 -8.43616 L 22.2452 -8.38644 L 22.1987 -8.3367 L 22.1522 -8.28695 L 22.1056 -8.23719 L 22.059 -8.18741 L 22.0124 -8.13762 L 21.9657 -8.08782 L 21.919 -8.038 L 21.8722 -7.98817 L 21.8254 -7.93833 L 21.7786 -7.88847 L 21.7317 -7.83859 L 21.6848 -7.7887 L 21.6379 -7.7388 L 21.5909 -7.68889 L 21.5439 -7.63896 L 21.4968 -7.58901 L 21.4497 -7.53905 L 21.4026 -7.48908 L 21.4026 -7.48908 L 21.4706 -7.4794 L 21.5386 -7.46971 L 21.6065 -7.46001 L 21.6744 -7.45029 L 21.7422 -7.44056 L 21.8101 -7.43082 L 21.8778 -7.42106 L 21.9456 -7.41129 L 22.0133 -7.4015 L 22.0809 -7.3917 L 22.1486 -7.38189 L 22.2161 -7.37207 L 22.2837 -7.36223 L 22.3512 -7.35238 L 22.4187 -7.34252 L 22.4861 -7.33265 L 22.5535 -7.32276 L 22.6208 -7.31287 L 22.6882 -7.30296 L 22.7555 -7.29304 L 22.8227 -7.2831 L 22.8899 -7.27316 L 22.9571 -7.26321 L 23.0242 -7.25324 L 23.0914 -7.24326 L 23.1584 -7.23328 L 23.2255 -7.22328 L 23.2925 -7.21327 L 23.3595 -7.20325 L 23.4264 -7.19322 L 23.4933 -7.18318 L 23.5602 -7.17313 L 23.627 -7.16307 L 23.6938 -7.153 L 23.7114 -7.09455 L 23.7288 -7.03606 L 23.7461 -6.97753 L 23.7632 -6.91896 L 23.7802 -6.86034 L 23.7971 -6.80168 L 23.8138 -6.74298 L 23.8303 -6.68424 L 23.8467 -6.62546 L 23.863 -6.56663 L 23.8791 -6.50777 L 23.8951 -6.44887 L 23.9109 -6.38993 L 23.9266 -6.33095 L 23.9421 -6.27193 L 23.9575 -6.21288 L 23.9728 -6.15378 L 23.9879 -6.09465 L 24.0028 -6.03548 L 24.0176 -5.97628 L 24.0323 -5.91703 L 24.0468 -5.85776 L 24.0612 -5.79844 L 24.0754 -5.73909 L 24.0895 -5.67971 L 24.1034 -5.62029 L 24.155 -5.39437 L 24.1682 -5.33479 L 24.1813 -5.27518 L 24.1942 -5.21554 L 24.207 -5.15586 L 24.2197 -5.09616 L 24.2321 -5.03642 L 24.2445 -4.97665 L 24.2567 -4.91686 L 24.2687 -4.85703 L 24.2806 -4.79717 L 24.2924 -4.73728 L 24.304 -4.67737 L 24.3155 -4.61742 L 24.3268 -4.55745 L 24.3379 -4.49745 L 24.349 -4.43743 L 24.3598 -4.37737 L 24.3705 -4.31729 L 24.3811 -4.25718 L 24.3915 -4.19705 L 24.4018 -4.13689 L 24.4119 -4.07671 L 24.4219 -4.0165 L 24.4318 -3.95627 L 24.4414 -3.89601 L 24.451 -3.83573 L 24.3951 -3.79767 L 24.3393 -3.75961 L 24.2834 -3.72154 L 24.2275 -3.68346 L 24.1715 -3.64538 L 24.1155 -3.6073 L 24.0595 -3.56921 L 24.0034 -3.53111 L 23.9473 -3.49301 L 23.8912 -3.4549 L 23.835 -3.41679 L 23.7788 -3.37867 L 23.7226 -3.34055 L 23.6663 -3.30242 L 23.61 -3.26429 L 23.5536 -3.22615 L 23.4972 -3.18801 L 23.4408 -3.14986 L 23.3843 -3.11171 L 23.3278 -3.07355 L 23.2713 -3.03539 L 23.2147 -2.99722 L 23.158 -2.95904 L 23.1014 -2.92086 L 23.0447 -2.88268 L 22.9879 -2.84449 L 22.9311 -2.8063 L 22.8743 -2.7681 L 22.8174 -2.72989 L 22.7605 -2.69168 L 22.7036 -2.65347 L 22.6466 -2.61525 L 22.5895 -2.57702 L 22.5324 -2.53879 L 22.5324 -2.53879 L 22.5966 -2.51423 L 22.6607 -2.48965 L 22.7248 -2.46508 L 22.7888 -2.44049 L 22.8528 -2.41591 L 22.9167 -2.39132 L 22.9807 -2.36672 L 23.0445 -2.34212 L 23.1083 -2.31752 L 23.1721 -2.29291 L 23.2359 -2.2683 L 23.2996 -2.24368 L 23.3632 -2.21906 L 23.4269 -2.19444 L 23.4904 -2.16981 L 23.554 -2.14518 L 23.6175 -2.12054 L 23.681 -2.09591 L 23.7444 -2.07126 L 23.8078 -2.04662 L 23.8711 -2.02197 L 23.9345 -1.99732 L 23.9977 -1.97267 L 24.061 -1.94801 L 24.1242 -1.92335 L 24.1874 -1.89869 L 24.2505 -1.87402 L 24.3136 -1.84935 L 24.3767 -1.82468 L 24.4397 -1.80001 L 24.5027 -1.77533 L 24.5656 -1.75065 L 24.6286 -1.72597 L 24.6915 -1.70129 L 24.6956 -1.6404 L 24.6995 -1.5795 L 24.7034 -1.51859 L 24.707 -1.45767 L 24.7106 -1.39674 L 24.7139 -1.33581 L 24.7171 -1.27486 L 24.7202 -1.21391 L 24.7231 -1.15295 L 24.7259 -1.09198 L 24.7285 -1.03101 L 24.731 -0.97003 L 24.7333 -0.909044 L 24.7355 -0.848053 L 24.7375 -0.787057 L 24.7393 -0.726056 L 24.7411 -0.665051 L 24.7426 -0.604042 L 24.744 -0.543029 L 24.7453 -0.482012 L 24.7464 -0.420993 L 24.7474 -0.359971 L 24.7482 -0.298947 L 24.7489 -0.237921 L 24.7494 -0.176894 L 24.7497 -0.115866Z"
id="path1" />
</g>
</svg>
