<?xml version="1.0" encoding="UTF-8" standalone="no"?>
<svg version="1.1">
<g
style="fill:none;stroke:#000000;stroke-opacity:1;stroke-width:0.1">
<path d="M 24.9999 0.0706809 L 24.9997 0.129966 L 24.9993 0.189251 L 24.9988 0.248534 L 24.9981 0.307816 L 24.9973 0.367096 L 24.9964 0.426375 L 24.9953 0.48565 L 24.9941 0.544924 L 24.9927 0.604194 L 24.9912 0.66346 L 24.9896 0.722723 L 24.9878 0.781982 L 24.9858 0.841236 L 24.9838 0.900486 L 24.9816 0.959731 L 24.9792 1.01897 L 24.9767 1.0782 L 24.9741 1.13743 L 24.9713 1.19665 L 24.9684 1.25587 L 24.9654 1.31507 L 24.9622 1.37427 L 24.9589 1.43347 L 24.9554 1.49265 L 24.9518 1.55183 L 24.948 1.61099 L 24.9441 1.67015 L 24.9401 1.7293 L 24.879 1.75328 L 24.8179 1.77725 L 24.7567 1.80122 L 24.6955 1.8252 L 24.6343 1.84916 L 24.573 1.87313 L 24.5117 1.89709 L 24.4504 1.92105 L 24.389 1.94501 L 24.3276 1.96897 L 24.2662 1.99292 L 24.2047 2.01687 L 24.1432 2.04082 L 24.0816 2.06476 L 24.0201 2.0887 L 23.9585 2.11264 L 23.8968 2.13657 L 23.8351 2.16051 L 23.7734 2.18443 L 23.7117 2.20836 L 23.6499 2.23228 L 23.5881 2.2562 L 23.5262 2.28011 L 23.4643 2.30403 L 23.4024 2.32793 L 23.3404 2.35184 L 23.2784 2.37574 L 23.2163 2.39963 L 23.1542 2.42352 L 23.0921 2.44741 L 23.0299 2.47129 L 22.9677 2.49517 L 22.9055 2.51905 L 22.8432 2.54292 L 22.7809 2.56679 L 22.7809 2.56679 L 22.8363 2.60392 L 22.8917 2.64106 L 22.9471 2.67818 L 23.0024 2.71531 L 23.0577 2.75243 L 23.113 2.78954 L 23.1682 2.82665 L 23.2234 2.86375 L 23.2785 2.90085 L 23.3336 2.93795 L 23.3887 2.97504 L 23.4437 3.01212 L 23.4987 3.0492 L 23.5537 3.08628 L 23.6086 3.12335 L 23.6635 3.16042 L 23.7183 3.19748 L 23.7731 3.23454 L 23.8279 3.27159 L 23.8826 3.30864 L 23.9373 3.34568 L 23.992 3.38271 L 24.0466 3.41975 L 24.1012 3.45678 L 24.1558 3.4938 L 24.2103 3.53082 L 24.2648 3.56783 L 24.3193 3.60484 L 24.3737 3.64184 L 24.4281 3.67884 L 24.4825 3.71583 L 24.5368 3.75282 L 24.5911 3.7898 L 24.6454 3.82678 L 24.6996 3.86376 L 24.6904 3.92232 L 24.681 3.98086 L 24.6715 4.03938 L 24.6619 4.09787 L 24.6521 4.15635 L 24.6421 4.21479 L 24.6321 4.27322 L 24.6219 4.33162 L 24.6115 4.39 L 24.6011 4.44835 L 24.5904 4.50668 L 24.5797 4.56498 L 24.5688 4.62325 L 24.5578 4.6815 L 24.5466 4.73973 L 24.5353 4.79793 L 24.5238 4.8561 L 24.5122 4.91424 L 24.5005 4.97235 L 24.4887 5.03044 L 24.4767 5.0885 L 24.4645 5.14653 L 24.4523 5.20453 L 24.4398 5.2625 L 24.4273 5.32045 L 24.4146 5.37836 L 24.4018 5.43624 L 24.3888 5.49409 L 24.3574 5.63191 L 24.3439 5.68966 L 24.3304 5.74737 L 24.3167 5.80505 L 24.3029 5.8627 L 24.2889 5.92032 L 24.2748 5.9779 L 24.2605 6.03545 L 24.2462 6.09296 L 24.2316 6.15044 L 24.217 6.20789 L 24.2022 6.2653 L 24.1873 6.32268 L 24.1722 6.38002 L 24.157 6.43732 L 24.1417 6.49459 L 24.1262 6.55182 L 24.1106 6.60902 L 24.0949 6.66618 L 24.079 6.7233 L 24.063 6.78038 L 24.0468 6.83742 L 24.0305 6.89443 L 24.0141 6.9514 L 23.9976 7.00832 L 23.9809 7.06521 L 23.9641 7.12206 L 23.9471 7.17887 L 23.93 7.23564 L 23.8651 7.24542 L 23.8002 7.25519 L 23.7352 7.26495 L 23.6702 7.2747 L 23.6052 7.28444 L 23.5401 7.29417 L 23.475 7.30389 L 23.4099 7.31361 L 23.3447 7.32331 L 23.2795 7.333 L 23.2143 7.34268 L 23.149 7.35235 L 23.0837 7.36201 L 23.0184 7.37166 L 22.9531 7.3813 L 22.8877 7.39093 L 22.8222 7.40055 L 22.7568 7.41016 L 22.6913 7.41975 L 22.6258 7.42933 L 22.5602 7.43891 L 22.4946 7.44847 L 22.429 7.45802 L 22.3633 7.46756 L 22.2976 7.47708 L 22.2319 7.48659 L 22.1661 7.4961 L 22.1003 7.50558 L 22.0344 7.51506 L 21.9685 7.52452 L 21.9026 7.53398 L 21.8366 7.54341 L 21.7706 7.55284 L 21.7046 7.56225 L 21.6385 7.57165 L 21.6385 7.57165 L 21.6843 7.62019 L 21.7301 7.66873 L 21.7758 7.71725 L 21.8215 7.76575 L 21.8672 7.81424 L 21.9128 7.86272 L 21.9583 7.91119 L 22.0039 7.95964 L 22.0494 8.00808 L 22.0948 8.05651 L 22.1403 8.10492 L 22.1857 8.15332 L 22.231 8.20171 L 22.2764 8.25008 L 22.3216 8.29845 L 22.3669 8.34679 L 22.4121 8.39513 L 22.4573 8.44345 L 22.5025 8.49177 L 22.5476 8.54006 L 22.5927 8.58835 L 22.6377 8.63662 L 22.6828 8.68488 L 22.7277 8.73313 L 22.7727 8.78137 L 22.8176 8.82959 L 22.8625 8.87781 L 22.9074 8.926 L 22.9522 8.97419 L 22.997 9.02237 L 23.0418 9.07053 L 23.0865 9.11868 L 23.1313 9.16682 L 23.1759 9.21495 L 23.2206 9.26307 L 23.1986 9.31811 L 23.1764 9.37309 L 23.1541 9.42803 L 23.1317 9.48291 L 23.1091 9.53774 L 23.0864 9.59251 L 23.0636 9.64724 L 23.0407 9.7019 L 23.0176 9.75651 L 22.9944 9.81107 L 22.9711 9.86557 L 22.9476 9.92002 L 22.924 9.97441 L 22.9003 10.0287 L 22.8765 10.083 L 22.8525 10.1372 L 22.8284 10.1914 L 22.8042 10.2455 L 22.7798 10.2996 L 22.7553 10.3536 L 22.7307 10.4075 L 22.7059 10.4614 L 22.6811 10.5152 L 22.6561 10.5689 L 22.6309 10.6226 L 22.6057 10.6763 L 22.5803 10.7299 L 22.5548 10.7834 L 22.4935 10.9107 L 22.4675 10.964 L 22.4415 11.0173 L 22.4153 11.0705 L 22.389 11.1236 L 22.3625 11.1767 L 22.3359 11.2297 L 22.3093 11.2826 L 22.2824 11.3355 L 22.2555 11.3883 L 22.2284 11.441 L 22.2012 11.4937 L 22.1739 11.5463 L 22.1465 11.5989 L 22.1189 11.6514 L 22.0912 11.7038 L 22.0634 11.7561 L 22.0354 11.8084 L 22.0074 11.8607 L 21.9792 11.9128 L 21.9509 11.9649 L 21.9224 12.0169 L 21.8939 12.0689 L 21.8652 12.1208 L 21.8364 12.1726 L 21.8075 12.2243 L 21.7784 12.276 L 21.7493 12.3276 L 21.72 12.3792 L 21.6545 12.3742 L 21.589 12.3693 L 21.5235 12.3644 L 21.458 12.3594 L 21.3924 12.3544 L 21.3268 12.3495 L 21.2612 12.3444 L 21.1955 12.3394 L 21.1298 12.3344 L 21.0641 12.3293 L 20.9984 12.3242 L 20.9326 12.3192 L 20.8668 12.314 L 20.8009 12.3089 L 20.7351 12.3038 L 20.6692 12.2986 L 20.6033 12.2934 L 20.5373 12.2882 L 20.4713 12.283 L 20.4053 12.2778 L 20.3393 12.2725 L 20.2732 12.2672 L 20.2071 12.2619 L 20.1409 12.2566 L 20.0747 12.2513 L 20.0085 12.2459 L 19.9423 12.2406 L 19.876 12.2352 L 19.8097 12.2298 L 19.7434 12.2243 L 19.677 12.2189 L 19.6106 12.2134 L 19.5441 12.2079 L 19.4777 12.2024 L 19.4112 12.1968 L 19.4112 12.1968 L 19.445 12.2544 L 19.4788 12.3119 L 19.5126 12.3693 L 19.5463 12.4268 L 19.5801 12.4842 L 19.6137 12.5416 L 19.6474 12.599 L 19.681 12.6564 L 19.7146 12.7138 L 19.7481 12.7711 L 19.7817 12.8284 L 19.8151 12.8857 L 19.8486 12.9429 L 19.882 13.0002 L 19.9154 13.0574 L 19.9488 13.1146 L 19.9821 13.1718 L 20.0154 13.229 L 20.0487 13.2861 L 20.0819 13.3433 L 20.1151 13.4004 L 20.1483 13.4575 L 20.1815 13.5145 L 20.2146 13.5716 L 20.2477 13.6286 L 20.2808 13.6856 L 20.3138 13.7426 L 20.3468 13.7996 L 20.3798 13.8565 L 20.4128 13.9135 L 20.4457 13.9704 L 20.4786 14.0273 L 20.5115 14.0842 L 20.5443 14.141 L 20.5772 14.1979 L 20.5434 14.2466 L 20.5096 14.2953 L 20.4756 14.3439 L 20.4416 14.3924 L 20.4074 14.4409 L 20.3731 14.4892 L 20.3387 14.5375 L 20.3041 14.5857 L 20.2695 14.6338 L 20.2347 14.6818 L 20.1998 14.7298 L 20.1649 14.7776 L 20.1298 14.8254 L 20.0945 14.8731 L 20.0592 14.9207 L 20.0238 14.9682 L 19.9882 15.0157 L 19.9526 15.063 L 19.9168 15.1103 L 19.8809 15.1575 L 19.8449 15.2046 L 19.8088 15.2516 L 19.7726 15.2986 L 19.7362 15.3454 L 19.6998 15.3922 L 19.6632 15.4388 L 19.6266 15.4854 L 19.5898 15.5319 L 19.5016 15.6424 L 19.4645 15.6886 L 19.4272 15.7348 L 19.3899 15.7808 L 19.3524 15.8267 L 19.3148 15.8726 L 19.2771 15.9183 L 19.2393 15.964 L 19.2014 16.0096 L 19.1634 16.0551 L 19.1252 16.1005 L 19.087 16.1458 L 19.0487 16.191 L 19.0102 16.2361 L 18.9717 16.2812 L 18.933 16.3261 L 18.8942 16.371 L 18.8554 16.4157 L 18.8164 16.4604 L 18.7773 16.505 L 18.7381 16.5494 L 18.6988 16.5938 L 18.6594 16.6381 L 18.6199 16.6823 L 18.5803 16.7264 L 18.5405 16.7705 L 18.5007 16.8144 L 18.4608 16.8582 L 18.4208 16.9019 L 18.358 16.8826 L 18.2953 16.8632 L 18.2325 16.8438 L 18.1697 16.8244 L 18.1069 16.8049 L 18.0441 16.7855 L 17.9812 16.766 L 17.9183 16.7465 L 17.8554 16.727 L 17.7924 16.7074 L 17.7295 16.6878 L 17.6665 16.6682 L 17.6035 16.6486 L 17.5404 16.629 L 17.4774 16.6093 L 17.4143 16.5896 L 17.3512 16.5699 L 17.288 16.5501 L 17.2248 16.5303 L 17.1616 16.5106 L 17.0984 16.4907 L 17.0352 16.4709 L 16.9719 16.451 L 16.9086 16.4311 L 16.8453 16.4112 L 16.7819 16.3912 L 16.7185 16.3713 L 16.6551 16.3512 L 16.5917 16.3312 L 16.5282 16.3111 L 16.4647 16.2911 L 16.4012 16.2709 L 16.3376 16.2508 L 16.274 16.2306 L 16.2104 16.2104 L 16.2104 16.2104 L 16.2306 16.274 L 16.2508 16.3376 L 16.2709 16.4012 L 16.2911 16.4647 L 16.3111 16.5282 L 16.3312 16.5917 L 16.3512 16.6551 L 16.3713 16.7185 L 16.3912 16.7819 L 16.4112 16.8453 L 16.4311 16.9086 L 16.451 16.9719 L 16.4709 17.0352 L 16.4907 17.0984 L 16.5106 17.1616 L 16.5303 17.2248 L 16.5501 17.288 L 16.5699 17.3512 L 16.5896 17.4143 L 16.6093 17.4774 L 16.629 17.5404 L 16.6486 17.6035 L 16.6682 17.6665 L 16.6878 17.7295 L 16.7074 17.7924 L 16.727 17.8554 L 16.7465 17.9183 L 16.766 17.9812 L 16.7855 18.0441 L 16.8049 18.1069 L 16.8244 18.1697 L 16.8438 18.2325 L 16.8632 18.2953 L 16.8826 18.358 L 16.9019 18.4208 L 16.8582 18.4608 L 16.8144 18.5007 L 16.7705 18.5405 L 16.7264 18.5803 L 16.6823 18.6199 L 16.6381 18.6594 L 16.5938 18.6988 L 16.5494 18.7381 L 16.505 18.7773 L 16.4604 18.8164 L 16.4157 18.8554 L 16.371 18.8942 L 16.3261 18.933 L 16.2812 18.9717 L 16.2361 19.0102 L 16.191 19.0487 L 16.1458 19.087 L 16.1005 19.1252 L 16.0551 19.1634 L 16.0096 19.2014 L 15.964 19.2393 L 15.9183 19.2771 L 15.8726 19.3148 L 15.8267 19.3524 L 15.7808 19.3899 L 15.7348 19.4272 L 15.6886 19.4645 L 15.6424 19.5016 L 15.5319 19.5898 L 15.4854 19.6266 L 15.4388 19.6632 L 15.3922 19.6998 L 15.3454 19.7362 L 15.2986 19.7726 L 15.2516 19.8088 L 15.2046 19.8449 L 15.1575 19.8809 L 15.1103 19.9168 L 15.063 19.9526 L 15.0157 19.9882 L 14.9682 20.0238 L 14.9207 20.0592 L 14.8731 20.0945 L 14.8254 20.1298 L 14.7776 20.1649 L 14.7298 20.1998 L 14.6818 20.2347 L 14.6338 20.2695 L 14.5857 20.3041 L 14.5375 20.3387 L 14.4892 20.3731 L 14.4409 20.4074 L 14.3924 20.4416 L 14.3439 20.4756 L 14.2953 20.5096 L 14.2466 20.5434 L 14.1979 20.5772 L 14.141 20.5443 L 14.0842 20.5115 L 14.0273 20.4786 L 13.9704 20.4457 L 13.9135 20.4128 L 13.8565 20.3798 L 13.7996 20.3468 L 13.7426 20.3138 L 13.6856 20.2808 L 13.6286 20.2477 L 13.5716 20.2146 L 13.5145 20.1815 L 13.4575 20.1483 L 13.4004 20.1151 L 13.3433 20.0819 L 13.2861 20.0487 L 13.229 20.0154 L 13.1718 19.9821 L 13.1146 19.9488 L 13.0574 19.9154 L 13.0002 19.882 L 12.9429 19.8486 L 12.8857 19.8151 L 12.8284 19.7817 L 12.7711 19.7481 L 12.7138 19.7146 L 12.6564 19.681 L 12.599 19.6474 L 12.5416 19.6137 L 12.4842 19.5801 L 12.4268 19.5463 L 12.3693 19.5126 L 12.3119 19.4788 L 12.2544 19.445 L 12.1968 19.4112 L 12.1968 19.4112 L 12.2024 19.4777 L 12.2079 19.5441 L 12.2134 19.6106 L 12.2189 19.677 L 12.2243 19.7434 L 12.2298 19.8097 L 12.2352 19.876 L 12.2406 19.9423 L 12.2459 20.0085 L 12.2513 20.0747 L 12.2566 20.1409 L 12.2619 20.2071 L 12.2672 20.2732 L 12.2725 20.3393 L 12.2778 20.4053 L 12.283 20.4713 L 12.2882 20.5373 L 12.2934 20.6033 L 12.2986 20.6692 L 12.3038 20.7351 L 12.3089 20.8009 L 12.314 20.8668 L 12.3192 20.9326 L 12.3242 20.9984 L 12.3293 21.0641 L 12.3344 21.1298 L 12.3394 21.1955 L 12.3444 21.2612 L 12.3495 21.3268 L 12.3544 21.3924 L 12.3594 21.458 L 12.3644 21.5235 L 12.3693 21.589 L 12.3742 21.6545 L 12.3792 21.72 L 12.3276 21.7493 L 12.276 21.7784 L 12.2243 21.8075 L 12.1726 21.8364 L 12.1208 21.8652 L 12.0689 21.8939 L 12.0169 21.9224 L 11.9649 21.9509 L 11.9128 21.9792 L 11.8607 22.0074 L 11.8084 22.0354 L 11.7561 22.0634 L 11.7038 22.0912 L 11.6514 22.1189 L 11.5989 22.1465 L 11.5463 22.1739 L 11.4937 22.2012 L 11.441 22.2284 L 11.3883 22.2555 L 11.3355 22.2824 L 11.2826 22.3093 L 11.2297 22.3359 L 11.1767 22.3625 L 11.1236 22.389 L 11.0705 22.4153 L 11.0173 22.4415 L 10.964 22.4675 L 10.9107 22.4935 L 10.7834 22.5548 L 10.7299 22.5803 L 10.6763 22.6057 L 10.6226 22.6309 L 10.5689 22.6561 L 10.5152 22.6811 L 10.4614 22.7059 L 10.4075 22.7307 L 10.3536 22.7553 L 10.2996 22.7798 L 10.2455 22.8042 L 10.1914 22.8284 L 10.1372 22.8525 L 10.083 22.8765 L 10.0287 22.9003 L 9.97441 22.924 L 9.92002 22.9476 L 9.86557 22.9711 L 9.81107 22.9944 L 9.75651 23.0176 L 9.7019 23.0407 L 9.64724 23.0636 L 9.59251 23.0864 L 9.53774 23.1091 L 9.48291 23.1317 L 9.42803 23.1541 L 9.37309 23.1764 L 9.31811 23.1986 L 9.26307 23.2206 L 9.21495 23.1759 L 9.16682 23.1313 L 9.11868 23.0865 L 9.07053 23.0418 L 9.02237 22.997 L 8.97419 22.9522 L 8.926 22.9074 L 8.87781 22.8625 L 8.82959 22.8176 L 8.78137 22.7727 L 8.73313 22.7277 L 8.68488 22.6828 L 8.63662 22.6377 L 8.58835 22.5927 L 8.54006 22.5476 L 8.49177 22.5025 L 8.44345 22.4573 L 8.39513 22.4121 L 8.34679 22.3669 L 8.29845 22.3216 L 8.25008 22.2764 L 8.20171 22.231 L 8.15332 22.1857 L 8.10492 22.1403 L 8.05651 22.0948 L 8.00808 22.0494 L 7.95964 22.0039 L 7.91119 21.9583 L 7.86272 21.9128 L 7.81424 21.8672 L 7.76575 21.8215 L 7.71725 21.7758 L 7.66873 21.7301 L 7.62019 21.6843 L 7.57165 21.6385 L 7.57165 21.6385 L 7.56225 21.7046 L 7.55284 21.7706 L 7.54341 21.8366 L 7.53398 21.9026 L 7.52452 21.9685 L 7.51506 22.0344 L 7.50558 22.1003 L 7.4961 22.1661 L 7.48659 22.2319 L 7.47708 22.2976 L 7.46756 22.3633 L 7.45802 22.429 L 7.44847 22.4946 L 7.43891 22.5602 L 7.42933 22.6258 L 7.41975 22.6913 L 7.41016 22.7568 L 7.40055 22.8222 L 7.39093 22.8877 L 7.3813 22.9531 L 7.37166 23.0184 L 7.36201 23.0837 L 7.35235 23.149 L 7.34268 23.2143 L 7.333 23.2795 L 7.32331 23.3447 L 7.31361 23.4099 L 7.30389 23.475 L 7.29417 23.5401 L 7.28444 23.6052 L 7.2747 23.6702 L 7.26495 23.7352 L 7.25519 23.8002 L 7.24542 23.8651 L 7.23564 23.93 L 7.17887 23.9471 L 7.12206 23.9641 L 7.06521 23.9809 L 7.00832 23.9976 L 6.9514 24.0141 L 6.89443 24.0305 L 6.83742 24.0468 L 6.78038 24.063 L 6.7233 24.079 L 6.66618 24.0949 L 6.60902 24.1106 L 6.55182 24.1262 L 6.49459 24.1417 L 6.43732 24.157 L 6.38002 24.1722 L 6.32268 24.1873 L 6.2653 24.2022 L 6.20789 24.217 L 6.15044 24.2316 L 6.09296 24.2462 L 6.03545 24.2605 L 5.9779 24.2748 L 5.92032 24.2889 L 5.8627 24.3029 L 5.80505 24.3167 L 5.74737 24.3304 L 5.68966 24.3439 L 5.63191 24.3574 L 5.49409 24.3888 L 5.43624 24.4018 L 5.37836 24.4146 L 5.32045 24.4273 L 5.2625 24.4398 L 5.20453 24.4523 L 5.14653 24.4645 L 5.0885 24.4767 L 5.03044 24.4887 L 4.97235 24.5005 L 4.91424 24.5122 L 4.8561 24.5238 L 4.79793 24.5353 L 4.73973 24.5466 L 4.6815 24.5578 L 4.62325 24.5688 L 4.56498 24.5797 L 4.50668 24.5904 L 4.44835 24.6011 L 4.39 24.6115 L 4.33162 24.6219 L 4.27322 24.6321 L 4.21479 24.6421 L 4.15635 24.6521 L 4.09787 24.6619 L 4.03938 24.6715 L 3.98086 24.681 L 3.92232 24.6904 L 3.86376 24.6996 L 3.82678 24.6454 L 3.7898 24.5911 L 3.75282 24.5368 L 3.71583 24.4825 L 3.67884 24.4281 L 3.64184 24.3737 L 3.60484 24.3193 L 3.56783 24.2648 L 3.53082 24.2103 L 3.4938 24.1558 L 3.45678 24.1012 L 3.41975 24.0466 L 3.38271 23.992 L 3.34568 23.9373 L 3.30864 23.8826 L 3.27159 23.8279 L 3.23454 23.7731 L 3.19748 23.7183 L 3.16042 23.6635 L 3.12335 23.6086 L 3.08628 23.5537 L 3.0492 23.4987 L 3.01212 23.4437 L 2.97504 23.3887 L 2.93795 23.3336 L 2.90085 23.2785 L 2.86375 23.2234 L 2.82665 23.1682 L 2.78954 23.113 L 2.75243 23.0577 L 2.71531 23.0024 L 2.67818 22.9471 L 2.64106 22.8917 L 2.60392 22.8363 L 2.56679 22.7809 L 2.56679 22.7809 L 2.54292 22.8432 L 2.51905 22.9055 L 2.49517 22.9677 L 2.47129 23.0299 L 2.44741 23.0921 L 2.42352 23.1542 L 2.39963 23.2163 L 2.37574 23.2784 L 2.35184 23.3404 L 2.32793 23.4024 L 2.30403 23.4643 L 2.28011 23.5262 L 2.2562 23.5881 L 2.23228 23.6499 L 2.20836 23.7117 L 2.18443 23.7734 L 2.16051 23.8351 L 2.13657 23.8968 L 2.11264 23.9585 L 2.0887 24.0201 L 2.06476 24.0816 L 2.04082 24.1432 L 2.01687 24.2047 L 1.99292 24.2662 L 1.96897 24.3276 L 1.94501 24.389 L 1.92105 24.4504 L 1.89709 24.5117 L 1.87313 24.573 L 1.84916 24.6343 L 1.8252 24.6955 L 1.80122 24.7567 L 1.77725 24.8179 L 1.75328 24.879 L 1.7293 24.9401 L 1.67015 24.9441 L 1.61099 24.948 L 1.55183 24.9518 L 1.49265 24.9554 L 1.43347 24.9589 L 1.37427 24.9622 L 1.31507 24.9654 L 1.25587 24.9684 L 1.19665 24.9713 L 1.13743 24.9741 L 1.0782 24.9767 L 1.01897 24.9792 L 0.959731 24.9816 L 0.900486 24.9838 L 0.841236 24.9858 L 0.781982 24.9878 L 0.722723 24.9896 L 0.66346 24.9912 L 0.604194 24.9927 L 0.544924 24.9941 L 0.48565 24.9953 L 0.426375 24.9964 L 0.367096 24.9973 L 0.307816 24.9981 L 0.248534 24.9988 L 0.189251 24.9993 L 0.129966 24.9997 L 0.0706809 24.9999 L -0.0706809 24.9999 L -0.129966 24.9997 L -0.189251 24.9993 L -0.248534 24.9988 L -0.307816 24.9981 L -0.367096 24.9973 L -0.426375 24.9964 L -0.48565 24.9953 L -0.544924 24.9941 L -0.604194 24.9927 L -0.66346 24.9912 L -0.722723 24.9896 L -0.781982 24.9878 L -0.841236 24.9858 L -0.900486 24.9838 L -0.959731 24.9816 L -1.01897 24.9792 L -1.0782 24.9767 L -1.13743 24.9741 L -1.19665 24.9713 L -1.25587 24.9684 L -1.31507 24.9654 L -1.37427 24.9622 L -1.43347 24.9589 L -1.49265 24.9554 L -1.55183 24.9518 L -1.61099 24.948 L -1.67015 24.9441 L -1.7293 24.9401 L -1.75328 24.879 L -1.77725 24.8179 L -1.80122 24.7567 L -1.8252 24.6955 L -1.84916 24.6343 L -1.87313 24.573 L -1.89709 24.5117 L -1.92105 24.4504 L -1.94501 24.389 L -1.96897 24.3276 L -1.99292 24.2662 L -2.01687 24.2047 L -2.04082 24.1432 L -2.06476 24.0816 L -2.0887 24.0201 L -2.11264 23.9585 L -2.13657 23.8968 L -2.16051 23.8351 L -2.18443 23.7734 L -2.20836 23.7117 L -2.23228 23.6499 L -2.2562 23.5881 L -2.28011 23.5262 L -2.30403 23.4643 L -2.32793 23.4024 L -2.35184 23.3404 L -2.37574 23.2784 L -2.39963 23.2163 L -2.42352 23.1542 L -2.44741 23.0921 L -2.47129 23.0299 L -2.49517 22.9677 L -2.51905 22.9055 L -2.54292 22.8432 L -2.56679 22.7809 L -2.56679 22.7809 L -2.60392 22.8363 L -2.64106 22.8917 L -2.67818 22.9471 L -2.71531 23.0024 L -2.75243 23.0577 L -2.78954 23.113 L -2.82665 23.1682 L -2.86375 23.2234 L -2.90085 23.2785 L -2.93795 23.3336 L -2.97504 23.3887 L -3.01212 23.4437 L -3.0492 23.4987 L -3.08628 23.5537 L -3.12335 23.6086 L -3.16042 23.6635 L -3.19748 23.7183 L -3.23454 23.7731 L -3.27159 23.8279 L -3.30864 23.8826 L -3.34568 23.9373 L -3.38271 23.992 L -3.41975 24.0466 L -3.45678 24.1012 L -3.4938 24.1558 L -3.53082 24.2103 L -3.56783 24.2648 L -3.60484 24.3193 L -3.64184 24.3737 L -3.67884 24.4281 L -3.71583 24.4825 L -3.75282 24.5368 L -3.7898 24.5911 L -3.82678 24.6454 L -3.86376 24.6996 L -3.92232 24.6904 L -3.98086 24.681 L -4.03938 24.6715 L -4.09787 24.6619 L -4.15635 24.6521 L -4.21479 24.6421 L -4.27322 24.6321 L -4.33162 24.6219 L -4.39 24.6115 L -4.44835 24.6011 L -4.50668 24.5904 L -4.56498 24.5797 L -4.62325 24.5688 L -4.6815 24.5578 L -4.73973 24.5466 L -4.79793 24.5353 L -4.8561 24.5238 L -4.91424 24.5122 L -4.97235 24.5005 L -5.03044 24.4887 L -5.0885 24.4767 L -5.14653 24.4645 L -5.20453 24.4523 L -5.2625 24.4398 L -5.32045 24.4273 L -5.37836 24.4146 L -5.43624 24.4018 L -5.49409 24.3888 L -5.63191 24.3574 L -5.68966 24.3439 L -5.74737 24.3304 L -5.80505 24.3167 L -5.8627 24.3029 L -5.92032 24.2889 L -5.9779 24.2748 L -6.03545 24.2605 L -6.09296 24.2462 L -6.15044 24.2316 L -6.20789 24.217 L -6.2653 24.2022 L -6.32268 24.1873 L -6.38002 24.1722 L -6.43732 24.157 L -6.49459 24.1417 L -6.55182 24.1262 L -6.60902 24.1106 L -6.66618 24.0949 L -6.7233 24.079 L -6.78038 24.063 L -6.83742 24.0468 L -6.89443 24.0305 L -6.9514 24.0141 L -7.00832 23.9976 L -7.06521 23.9809 L -7.12206 23.9641 L -7.17887 23.9471 L -7.23564 23.93 L -7.24542 23.8651 L -7.25519 23.8002 L -7.26495 23.7352 L -7.2747 23.6702 L -7.28444 23.6052 L -7.29417 23.5401 L -7.30389 23.475 L -7.31361 23.4099 L -7.32331 23.3447 L -7.333 23.2795 L -7.34268 23.2143 L -7.35235 23.149 L -7.36201 23.0837 L -7.37166 23.0184 L -7.3813 22.9531 L -7.39093 22.8877 L -7.40055 22.8222 L -7.41016 22.7568 L -7.41975 22.6913 L -7.42933 22.6258 L -7.43891 22.5602 L -7.44847 22.4946 L -7.45802 22.429 L -7.46756 22.3633 L -7.47708 22.2976 L -7.48659 22.2319 L -7.4961 22.1661 L -7.50558 22.1003 L -7.51506 22.0344 L -7.52452 21.9685 L -7.53398 21.9026 L -7.54341 21.8366 L -7.55284 21.7706 L -7.56225 21.7046 L -7.57165 21.6385 L -7.57165 21.6385 L -7.62019 21.6843 L -7.66873 21.7301 L -7.71725 21.7758 L -7.76575 21.8215 L -7.81424 21.8672 L -7.86272 21.9128 L -7.91119 21.9583 L -7.95964 22.0039 L -8.00808 22.0494 L -8.05651 22.0948 L -8.10492 22.1403 L -8.15332 22.1857 L -8.20171 22.231 L -8.25008 22.2764 L -8.29845 22.3216 L -8.34679 22.3669 L -8.39513 22.4121 L -8.44345 22.4573 L -8.49177 22.5025 L -8.54006 22.5476 L -8.58835 22.5927 L -8.63662 22.6377 L -8.68488 22.6828 L -8.73313 22.7277 L -8.78137 22.7727 L -8.82959 22.8176 L -8.87781 22.8625 L -8.926 22.9074 L -8.97419 22.9522 L -9.02237 22.997 L -9.07053 23.0418 L -9.11868 23.0865 L -9.16682 23.1313 L -9.21495 23.1759 L -9.26307 23.2206 L -9.31811 23.1986 L -9.37309 23.1764 L -9.42803 23.1541 L -9.48291 23.1317 L -9.53774 23.1091 L -9.59251 23.0864 L -9.64724 23.0636 L -9.7019 23.0407 L -9.75651 23.0176 L -9.81107 22.9944 L -9.86557 22.9711 L -9.92002 22.9476 L -9.97441 22.924 L -10.0287 22.9003 L -10.083 22.8765 L -10.1372 22.8525 L -10.1914 22.8284 L -10.2455 22.8042 L -10.2996 22.7798 L -10.3536 22.7553 L -10.4075 22.7307 L -10.4614 22.7059 L -10.5152 22.6811 L -10.5689 22.6561 L -10.6226 22.6309 L -10.6763 22.6057 L -10.7299 22.5803 L -10.7834 22.5548 L -10.9107 22.4935 L -10.964 22.4675 L -11.0173 22.4415 L -11.0705 22.4153 L -11.1236 22.389 L -11.1767 22.3625 L -11.2297 22.3359 L -11.2826 22.3093 L -11.3355 22.2824 L -11.3883 22.2555 L -11.441 22.2284 L -11.4937 22.2012 L -11.5463 22.1739 L -11.5989 22.1465 L -11.6514 22.1189 L -11.7038 22.0912 L -11.7561 22.0634 L -11.8084 22.0354 L -11.8607 22.0074 L -11.9128 21.9792 L -11.9649 21.9509 L -12.0169 21.9224 L -12.0689 21.8939 L -12.1208 21.8652 L -12.1726 21.8364 L -12.2243 21.8075 L -12.276 21.7784 L -12.3276 21.7493 L -12.3792 21.72 L -12.3742 21.6545 L -12.3693 21.589 L -12.3644 21.5235 L -12.3594 21.458 L -12.3544 21.3924 L -12.3495 21.3268 L -12.3444 21.2612 L -12.3394 21.1955 L -12.3344 21.1298 L -12.3293 21.0641 L -12.3242 20.9984 L -12.3192 20.9326 L -12.314 20.8668 L -12.3089 20.8009 L -12.3038 20.7351 L -12.2986 20.6692 L -12.2934 20.6033 L -12.2882 20.5373 L -12.283 20.4713 L -12.2778 20.4053 L -12.2725 20.3393 L -12.2672 20.2732 L -12.2619 20.2071 L -12.2566 20.1409 L -12.2513 20.0747 L -12.2459 20.0085 L -12.2406 19.9423 L -12.2352 19.876 L -12.2298 19.8097 L -12.2243 19.7434 L -12.2189 19.677 L -12.2134 19.6106 L -12.2079 19.5441 L -12.2024 19.4777 L -12.1968 19.4112 L -12.1968 19.4112 L -12.2544 19.445 L -12.3119 19.4788 L -12.3693 19.5126 L -12.4268 19.5463 L -12.4842 19.5801 L -12.5416 19.6137 L -12.599 19.6474 L -12.6564 19.681 L -12.7138 19.7146 L -12.7711 19.7481 L -12.8284 19.7817 L -12.8857 19.8151 L -12.9429 19.8486 L -13.0002 19.882 L -13.0574 19.9154 L -13.1146 19.9488 L -13.1718 19.9821 L -13.229 20.0154 L -13.2861 20.0487 L -13.3433 20.0819 L -13.4004 20.1151 L -13.4575 20.1483 L -13.5145 20.1815 L -13.5716 20.2146 L -13.6286 20.2477 L -13.6856 20.2808 L -13.7426 20.3138 L -13.7996 20.3468 L -13.8565 20.3798 L -13.9135 20.4128 L -13.9704 20.4457 L -14.0273 20.4786 L -14.0842 20.5115 L -14.141 20.5443 L -14.1979 20.5772 L -14.2466 20.5434 L -14.2953 20.5096 L -14.3439 20.4756 L -14.3924 20.4416 L -14.4409 20.4074 L -14.4892 20.3731 L -14.5375 20.3387 L -14.5857 20.3041 L -14.6338 20.2695 L -14.6818 20.2347 L -14.7298 20.1998 L -14.7776 20.1649 L -14.8254 20.1298 L -14.8731 20.0945 L -14.9207 20.0592 L -14.9682 20.0238 L -15.0157 19.9882 L -15.063 19.9526 L -15.1103 19.9168 L -15.1575 19.8809 L -15.2046 19.8449 L -15.2516 19.8088 L -15.2986 19.7726 L -15.3454 19.7362 L -15.3922 19.6998 L -15.4388 19.6632 L -15.4854 19.6266 L -15.5319 19.5898 L -15.6424 19.5016 L -15.6886 19.4645 L -15.7348 19.4272 L -15.7808 19.3899 L -15.8267 19.3524 L -15.8726 19.3148 L -15.9183 19.2771 L -15.964 19.2393 L -16.0096 19.2014 L -16.0551 19.1634 L -16.1005 19.1252 L -16.1458 19.087 L -16.191 19.0487 L -16.2361 19.0102 L -16.2812 18.9717 L -16.3261 18.933 L -16.371 18.8942 L -16.4157 18.8554 L -16.4604 18.8164 L -16.505 18.7773 L -16.5494 18.7381 L -16.5938 18.6988 L -16.6381 18.6594 L -16.6823 18.6199 L -16.7264 18.5803 L -16.7705 18.5405 L -16.8144 18.5007 L -16.8582 18.4608 L -16.9019 18.4208 L -16.8826 18.358 L -16.8632 18.2953 L -16.8438 18.2325 L -16.8244 18.1697 L -16.8049 18.1069 L -16.7855 18.0441 L -16.766 17.9812 L -16.7465 17.9183 L -16.727 17.8554 L -16.7074 17.7924 L -16.6878 17.7295 L -16.6682 17.6665 L -16.6486 17.6035 L -16.629 17.5404 L -16.6093 17.4774 L -16.5896 17.4143 L -16.5699 17.3512 L -16.5501 17.288 L -16.5303 17.2248 L -16.5106 17.1616 L -16.4907 17.0984 L -16.4709 17.0352 L -16.451 16.9719 L -16.4311 16.9086 L -16.4112 16.8453 L -16.3912 16.7819 L -16.3713 16.7185 L -16.3512 16.6551 L -16.3312 16.5917 L -16.3111 16.5282 L -16.2911 16.4647 L -16.2709 16.4012 L -16.2508 16.3376 L -16.2306 16.274 L -16.2104 16.2104 L -16.2104 16.2104 L -16.274 16.2306 L -16.3376 16.2508 L -16.4012 16.2709 L -16.4647 16.2911 L -16.5282 16.3111 L -16.5917 16.3312 L -16.6551 16.3512 L -16.7185 16.3713 L -16.7819 16.3912 L -16.8453 16.4112 L -16.9086 16.4311 L -16.9719 16.451 L -17.0352 16.4709 L -17.0984 16.4907 L -17.1616 16.5106 L -17.2248 16.5303 L -17.288 16.5501 L -17.3512 16.5699 L -17.4143 16.5896 L -17.4774 16.6093 L -17.5404 16.629 L -17.6035 16.6486 L -17.6665 16.6682 L -17.7295 16.6878 L -17.7924 16.7074 L -17.8554 16.727 L -17.9183 16.7465 L -17.9812 16.766 L -18.0441 16.7855 L -18.1069 16.8049 L -18.1697 16.8244 L -18.2325 16.8438 L -18.2953 16.8632 L -18.358 16.8826 L -18.4208 16.9019 L -18.4608 16.8582 L -18.5007 16.8144 L -18.5405 16.7705 L -18.5803 16.7264 L -18.6199 16.6823 L -18.6594 16.6381 L -18.6988 16.5938 L -18.7381 16.5494 L -18.7773 16.505 L -18.8164 16.4604 L -18.8554 16.4157 L -18.8942 16.371 L -18.933 16.3261 L -18.9717 16.2812 L -19.0102 16.2361 L -19.0487 16.191 L -19.087 16.1458 L -19.1252 16.1005 L -19.1634 16.0551 L -19.2014 16.0096 L -19.2393 15.964 L -19.2771 15.9183 L -19.3148 15.8726 L -19.3524 15.8267 L -19.3899 15.7808 L -19.4272 15.7348 L -19.4645 15.6886 L -19.5016 15.6424 L -19.5898 15.5319 L -19.6266 15.4854 L -19.6632 15.4388 L -19.6998 15.3922 L -19.7362 15.3454 L -19.7726 15.2986 L -19.8088 15.2516 L -19.8449 15.2046 L -19.8809 15.1575 L -19.9168 15.1103 L -19.9526 15.063 L -19.9882 15.0157 L -20.0238 14.9682 L -20.0592 14.9207 L -20.0945 14.8731 L -20.1298 14.8254 L -20.1649 14.7776 L -20.1998 14.7298 L -20.2347 14.6818 L -20.2695 14.6338 L -20.3041 14.5857 L -20.3387 14.5375 L -20.3731 14.4892 L -20.4074 14.4409 L -20.4416 14.3924 L -20.4756 14.3439 L -20.5096 14.2953 L -20.5434 14.2466 L -20.5772 14.1979 L -20.5443 14.141 L -20.5115 14.0842 L -20.4786 14.0273 L -20.4457 13.9704 L -20.4128 13.9135 L -20.3798 13.8565 L -20.3468 13.7996 L -20.3138 13.7426 L -20.2808 13.6856 L -20.2477 13.6286 L -20.2146 13.5716 L -20.1815 13.5145 L -20.1483 13.4575 L -20.1151 13.4004 L -20.0819 13.3433 L -20.0487 13.2861 L -20.0154 13.229 L -19.9821 13.1718 L -19.9488 13.1146 L -19.9154 13.0574 L -19.882 13.0002 L -19.8486 12.9429 L -19.8151 12.8857 L -19.7817 12.8284 L -19.7481 12.7711 L -19.7146 12.7138 L -19.681 12.6564 L -19.6474 12.599 L -19.6137 12.5416 L -19.5801 12.4842 L -19.5463 12.4268 L -19.5126 12.3693 L -19.4788 12.3119 L -19.445 12.2544 L -19.4112 12.1968 L -19.4112 12.1968 L -19.4777 12.2024 L -19.5441 12.2079 L -19.6106 12.2134 L -19.677 12.2189 L -19.7434 12.2243 L -19.8097 12.2298 L -19.876 12.2352 L -19.9423 12.2406 L -20.0085 12.2459 L -20.0747 12.2513 L -20.1409 12.2566 L -20.2071 12.2619 L -20.2732 12.2672 L -20.3393 12.2725 L -20.4053 12.2778 L -20.4713 12.283 L -20.5373 12.2882 L -20.6033 12.2934 L -20.6692 12.2986 L -20.7351 12.3038 L -20.8009 12.3089 L -20.8668 12.314 L -20.9326 12.3192 L -20.9984 12.3242 L -21.0641 12.3293 L -21.1298 12.3344 L -21.1955 12.3394 L -21.2612 12.3444 L -21.3268 12.3495 L -21.3924 12.3544 L -21.458 12.3594 L -21.5235 12.3644 L -21.589 12.3693 L -21.6545 12.3742 L -21.72 12.3792 L -21.7493 12.3276 L -21.7784 12.276 L -21.8075 12.2243 L -21.8364 12.1726 L -21.8652 12.1208 L -21.8939 12.0689 L -21.9224 12.0169 L -21.9509 11.9649 L -21.9792 11.9128 L -22.0074 11.8607 L -22.0354 11.8084 L -22.0634 11.7561 L -22.0912 11.7038 L -22.1189 11.6514 L -22.1465 11.5989 L -22.1739 11.5463 L -22.2012 11.4937 L -22.2284 11.441 L -22.2555 11.3883 L -22.2824 11.3355 L -22.3093 11.2826 L -22.3359 11.2297 L -22.3625 11.1767 L -22.389 11.1236 L -22.4153 11.0705 L -22.4415 11.0173 L -22.4675 10.964 L -22.4935 10.9107 L -22.5548 10.7834 L -22.5803 10.7299 L -22.6057 10.6763 L -22.6309 10.6226 L -22.6561 10.5689 L -22.6811 10.5152 L -22.7059 10.4614 L -22.7307 10.4075 L -22.7553 10.3536 L -22.7798 10.2996 L -22.8042 10.2455 L -22.8284 10.1914 L -22.8525 10.1372 L -22.8765 10.083 L -22.9003 10.0287 L -22.924 9.97441 L -22.9476 9.92002 L -22.9711 9.86557 L -22.9944 9.81107 L -23.0176 9.75651 L -23.0407 9.7019 L -23.0636 9.64724 L -23.0864 9.59251 L -23.1091 9.53774 L -23.1317 9.48291 L -23.1541 9.42803 L -23.1764 9.37309 L -23.1986 9.31811 L -23.2206 9.26307 L -23.1759 9.21495 L -23.1313 9.16682 L -23.0865 9.11868 L -23.0418 9.07053 L -22.997 9.02237 L -22.9522 8.97419 L -22.9074 8.926 L -22.8625 8.87781 L -22.8176 8.82959 L -22.7727 8.78137 L -22.7277 8.73313 L -22.6828 8.68488 L -22.6377 8.63662 L -22.5927 8.58835 L -22.5476 8.54006 L -22.5025 8.49177 L -22.4573 8.44345 L -22.4121 8.39513 L -22.3669 8.34679 L -22.3216 8.29845 L -22.2764 8.25008 L -22.231 8.20171 L -22.1857 8.15332 L -22.1403 8.10492 L -22.0948 8.05651 L -22.0494 8.00808 L -22.0039 7.95964 L -21.9583 7.91119 L -21.9128 7.86272 L -21.8672 7.81424 L -21.8215 7.76575 L -21.7758 7.71725 L -21.7301 7.66873 L -21.6843 7.62019 L -21.6385 7.57165 L -21.6385 7.57165 L -21.7046 7.56225 L -21.7706 7.55284 L -21.8366 7.54341 L -21.9026 7.53398 L -21.9685 7.52452 L -22.0344 7.51506 L -22.1003 7.50558 L -22.1661 7.4961 L -22.2319 7.48659 L -22.2976 7.47708 L -22.3633 7.46756 L -22.429 7.45802 L -22.4946 7.44847 L -22.5602 7.43891 L -22.6258 7.42933 L -22.6913 7.41975 L -22.7568 7.41016 L -22.8222 7.40055 L -22.8877 7.39093 L -22.9531 7.3813 L -23.0184 7.37166 L -23.0837 7.36201 L -23.149 7.35235 L -23.2143 7.34268 L -23.2795 7.333 L -23.3447 7.32331 L -23.4099 7.31361 L -23.475 7.30389 L -23.5401 7.29417 L -23.6052 7.28444 L -23.6702 7.2747 L -23.7352 7.26495 L -23.8002 7.25519 L -23.8651 7.24542 L -23.93 7.23564 L -23.9471 7.17887 L -23.9641 7.12206 L -23.9809 7.06521 L -23.9976 7.00832 L -24.0141 6.9514 L -24.0305 6.89443 L -24.0468 6.83742 L -24.063 6.78038 L -24.079 6.7233 L -24.0949 6.66618 L -24.1106 6.60902 L -24.1262 6.55182 L -24.1417 6.49459 L -24.157 6.43732 L -24.1722 6.38002 L -24.1873 6.32268 L -24.2022 6.2653 L -24.217 6.20789 L -24.2316 6.15044 L -24.2462 6.09296 L -24.2605 6.03545 L -24.2748 5.9779 L -24.2889 5.92032 L -24.3029 5.8627 L -24.3167 5.80505 L -24.3304 5.74737 L -24.3439 5.68966 L -24.3574 5.63191 L -24.3888 5.49409 L -24.4018 5.43624 L -24.4146 5.37836 L -24.4273 5.32045 L -24.4398 5.2625 L -24.4523 5.20453 L -24.4645 5.14653 L -24.4767 5.0885 L -24.4887 5.03044 L -24.5005 4.97235 L -24.5122 4.91424 L -24.5238 4.8561 L -24.5353 4.79793 L -24.5466 4.73973 L -24.5578 4.6815 L -24.5688 4.62325 L -24.5797 4.56498 L -24.5904 4.50668 L -24.6011 4.44835 L -24.6115 4.39 L -24.6219 4.33162 L -24.6321 4.27322 L -24.6421 4.21479 L -24.6521 4.15635 L -24.6619 4.09787 L -24.6715 4.03938 L -24.681 3.98086 L -24.6904 3.92232 L -24.6996 3.86376 L -24.6454 3.82678 L -24.5911 3.7898 L -24.5368 3.75282 L -24.4825 3.71583 L -24.4281 3.67884 L -24.3737 3.64184 L -24.3193 3.60484 L -24.2648 3.56783 L -24.2103 3.53082 L -24.1558 3.4938 L -24.1012 3.45678 L -24.0466 3.41975 L -23.992 3.38271 L -23.9373 3.34568 L -23.8826 3.30864 L -23.8279 3.27159 L -23.7731 3.23454 L -23.7183 3.19748 L -23.6635 3.16042 L -23.6086 3.12335 L -23.5537 3.08628 L -23.4987 3.0492 L -23.4437 3.01212 L -23.3887 2.97504 L -23.3336 2.93795 L -23.2785 2.90085 L -23.2234 2.86375 L -23.1682 2.82665 L -23.113 2.78954 L -23.0577 2.75243 L -23.0024 2.71531 L -22.9471 2.67818 L -22.8917 2.64106 L -22.8363 2.60392 L -22.7809 2.56679 L -22.7809 2.56679 L -22.8432 2.54292 L -22.9055 2.51905 L -22.9677 2.49517 L -23.0299 2.47129 L -23.0921 2.44741 L -23.1542 2.42352 L -23.2163 2.39963 L -23.2784 2.37574 L -23.3404 2.35184 L -23.4024 2.32793 L -23.4643 2.30403 L -23.5262 2.28011 L -23.5881 2.2562 L -23.6499 2.23228 L -23.7117 2.20836 L -23.7734 2.18443 L -23.8351 2.16051 L -23.8968 2.13657 L -23.9585 2.11264 L -24.0201 2.0887 L -24.0816 2.06476 L -24.1432 2.04082 L -24.2047 2.01687 L -24.2662 1.99292 L -24.3276 1.96897 L -24.389 1.94501 L -24.4504 1.92105 L -24.5117 1.89709 L -24.573 1.87313 L -24.6343 1.84916 L -24.6955 1.8252 L -24.7567 1.80122 L -24.8179 1.77725 L -24.879 1.75328 L -24.9401 1.7293 L -24.9441 1.67015 L -24.948 1.61099 L -24.9518 1.55183 L -24.9554 1.49265 L -24.9589 1.43347 L -24.9622 1.37427 L -24.9654 1.31507 L -24.9684 1.25587 L -24.9713 1.19665 L -24.9741 1.13743 L -24.9767 1.0782 L -24.9792 1.01897 L -24.9816 0.959731 L -24.9838 0.900486 L -24.9858 0.841236 L -24.9878 0.781982 L -24.9896 0.722723 L -24.9912 0.66346 L -24.9927 0.604194 L -24.9941 0.544924 L -24.9953 0.48565 L -24.9964 0.426375 L -24.9973 0.367096 L -24.9981 0.307816 L -24.9988 0.248534 L -24.9993 0.189251 L -24.9997 0.129966 L -24.9999 0.0706809 L -24.9999 -0.0706809 L -24.9997 -0.129966 L -24.9993 -0.189251 L -24.9988 -0.248534 L -24.9981 -0.307816 L -24.9973 -0.367096 L -24.9964 -0.426375 L -24.9953 -0.48565 L -24.9941 -0.544924 L -24.9927 -0.604194 L -24.9912 -0.66346 L -24.9896 -0.722723 L -24.9878 -0.781982 L -24.9858 -0.841236 L -24.9838 -0.900486 L -24.9816 -0.959731 L -24.9792 -1.01897 L -24.9767 -1.0782 L -24.9741 -1.13743 L -24.9713 -1.19665 L -24.9684 -1.25587 L -24.9654 -1.31507 L -24.9622 -1.37427 L -24.9589 -1.43347 L -24.9554 -1.49265 L -24.9518 -1.55183 L -24.948 -1.61099 L -24.9441 -1.67015 L -24.9401 -1.7293 L -24.879 -1.75328 L -24.8179 -1.77725 L -24.7567 -1.80122 L -24.6955 -1.8252 L -24.6343 -1.84916 L -24.573 -1.87313 L -24.5117 -1.89709 L -24.4504 -1.92105 L -24.389 -1.94501 L -24.3276 -1.96897 L -24.2662 -1.99292 L -24.2047 -2.01687 L -24.1432 -2.04082 L -24.0816 -2.06476 L -24.0201 -2.0887 L -23.9585 -2.11264 L -23.8968 -2.13657 L -23.8351 -2.16051 L -23.7734 -2.18443 L -23.7117 -2.20836 L -23.6499 -2.23228 L -23.5881 -2.2562 L -23.5262 -2.28011 L -23.4643 -2.30403 L -23.4024 -2.32793 L -23.3404 -2.35184 L -23.2784 -2.37574 L -23.2163 -2.39963 L -23.1542 -2.42352 L -23.0921 -2.44741 L -23.0299 -2.47129 L -22.9677 -2.49517 L -22.9055 -2.51905 L -22.8432 -2.54292 L -22.7809 -2.56679 L -22.7809 -2.56679 L -22.8363 -2.60392 L -22.8917 -2.64106 L -22.9471 -2.67818 L -23.0024 -2.71531 L -23.0577 -2.75243 L -23.113 -2.78954 L -23.1682 -2.82665 L -23.2234 -2.86375 L -23.2785 -2.90085 L -23.3336 -2.93795 L -23.3887 -2.97504 L -23.4437 -3.01212 L -23.4987 -3.0492 L -23.5537 -3.08628 L -23.6086 -3.12335 L -23.6635 -3.16042 L -23.7183 -3.19748 L -23.7731 -3.23454 L -23.8279 -3.27159 L -23.8826 -3.30864 L -23.9373 -3.34568 L -23.992 -3.38271 L -24.0466 -3.41975 L -24.1012 -3.45678 L -24.1558 -3.4938 L -24.2103 -3.53082 L -24.2648 -3.56783 L -24.3193 -3.60484 L -24.3737 -3.64184 L -24.4281 -3.67884 L -24.4825 -3.71583 L -24.5368 -3.75282 L -24.5911 -3.7898 L -24.6454 -3.82678 L -24.6996 -3.86376 L -24.6904 -3.92232 L -24.681 -3.98086 L -24.6715 -4.03938 L -24.6619 -4.09787 L -24.6521 -4.15635 L -24.6421 -4.21479 L -24.6321 -4.27322 L -24.6219 -4.33162 L -24.6115 -4.39 L -24.6011 -4.44835 L -24.5904 -4.50668 L -24.5797 -4.56498 L -24.5688 -4.62325 L -24.5578 -4.6815 L -24.5466 -4.73973 L -24.5353 -4.79793 L -24.5238 -4.8561 L -24.5122 -4.91424 L -24.5005 -4.97235 L -24.4887 -5.03044 L -24.4767 -5.0885 L -24.4645 -5.14653 L -24.4523 -5.20453 L -24.4398 -5.2625 L -24.4273 -5.32045 L -24.4146 -5.37836 L -24.4018 -5.43624 L -24.3888 -5.49409 L -24.3574 -5.63191 L -24.3439 -5.68966 L -24.3304 -5.74737 L -24.3167 -5.80505 L -24.3029 -5.8627 L -24.2889 -5.92032 L -24.2748 -5.9779 L -24.2605 -6.03545 L -24.2462 -6.09296 L -24.2316 -6.15044 L -24.217 -6.20789 L -24.2022 -6.2653 L -24.1873 -6.32268 L -24.1722 -6.38002 L -24.157 -6.43732 L -24.1417 -6.49459 L -24.1262 -6.55182 L -24.1106 -6.60902 L -24.0949 -6.66618 L -24.079 -6.7233 L -24.063 -6.78038 L -24.0468 -6.83742 L -24.0305 -6.89443 L -24.0141 -6.9514 L -23.9976 -7.00832 L -23.9809 -7.06521 L -23.9641 -7.12206 L -23.9471 -7.17887 L -23.93 -7.23564 L -23.8651 -7.24542 L -23.8002 -7.25519 L -23.7352 -7.26495 L -23.6702 -7.2747 L -23.6052 -7.28444 L -23.5401 -7.29417 L -23.475 -7.30389 L -23.4099 -7.31361 L -23.3447 -7.32331 L -23.2795 -7.333 L -23.2143 -7.34268 L -23.149 -7.35235 L -23.0837 -7.36201 L -23.0184 -7.37166 L -22.9531 -7.3813 L -22.8877 -7.39093 L -22.8222 -7.40055 L -22.7568 -7.41016 L -22.6913 -7.41975 L -22.6258 -7.42933 L -22.5602 -7.43891 L -22.4946 -7.44847 L -22.429 -7.45802 L -22.3633 -7.46756 L -22.2976 -7.47708 L -22.2319 -7.48659 L -22.1661 -7.4961 L -22.1003 -7.50558 L -22.0344 -7.51506 L -21.9685 -7.52452 L -21.9026 -7.53398 L -21.8366 -7.54341 L -21.7706 -7.55284 L -21.7046 -7.56225 L -21.6385 -7.57165 L -21.6385 -7.57165 L -21.6843 -7.62019 L -21.7301 -7.66873 L -21.7758 -7.71725 L -21.8215 -7.76575 L -21.8672 -7.81424 L -21.9128 -7.86272 L -21.9583 -7.91119 L -22.0039 -7.95964 L -22.0494 -8.00808 L -22.0948 -8.05651 L -22.1403 -8.10492 L -22.1857 -8.15332 L -22.231 -8.20171 L -22.2764 -8.25008 L -22.3216 -8.29845 L -22.3669 -8.34679 L -22.4121 -8.39513 L -22.4573 -8.44345 L -22.5025 -8.49177 L -22.5476 -8.54006 L -22.5927 -8.58835 L -22.6377 -8.63662 L -22.6828 -8.68488 L -22.7277 -8.73313 L -22.7727 -8.78137 L -22.8176 -8.82959 L -22.8625 -8.87781 L -22.9074 -8.926 L -22.9522 -8.97419 L -22.997 -9.02237 L -23.0418 -9.07053 L -23.0865 -9.11868 L -23.1313 -9.16682 L -23.1759 -9.21495 L -23.2206 -9.26307 L -23.1986 -9.31811 L -23.1764 -9.37309 L -23.1541 -9.42803 L -23.1317 -9.48291 L -23.1091 -9.53774 L -23.0864 -9.59251 L -23.0636 -9.64724 L -23.0407 -9.7019 L -23.0176 -9.75651 L -22.9944 -9.81107 L -22.9711 -9.86557 L -22.9476 -9.92002 L -22.924 -9.97441 L -22.9003 -10.0287 L -22.8765 -10.083 L -22.8525 -10.1372 L -22.8284 -10.1914 L -22.8042 -10.2455 L -22.7798 -10.2996 L -22.7553 -10.3536 L -22.7307 -10.4075 L -22.7059 -10.4614 L -22.6811 -10.5152 L -22.6561 -10.5689 L -22.6309 -10.6226 L -22.6057 -10.6763 L -22.5803 -10.7299 L -22.5548 -10.7834 L -22.4935 -10.9107 L -22.4675 -10.964 L -22.4415 -11.0173 L -22.4153 -11.0705 L -22.389 -11.1236 L -22.3625 -11.1767 L -22.3359 -11.2297 L -22.3093 -11.2826 L -22.2824 -11.3355 L -22.2555 -11.3883 L -22.2284 -11.441 L -22.2012 -11.4937 L -22.1739 -11.5463 L -22.1465 -11.5989 L -22.1189 -11.6514 L -22.0912 -11.7038 L -22.0634 -11.7561 L -22.0354 -11.8084 L -22.0074 -11.8607 L -21.9792 -11.9128 L -21.9509 -11.9649 L -21.9224 -12.0169 L -21.8939 -12.0689 L -21.8652 -12.1208 L -21.8364 -12.1726 L -21.8075 -12.2243 L -21.7784 -12.276 L -21.7493 -12.3276 L -21.72 -12.3792 L -21.6545 -12.3742 L -21.589 -12.3693 L -21.5235 -12.3644 L -21.458 -12.3594 L -21.3924 -12.3544 L -21.3268 -12.3495 L -21.2612 -12.3444 L -21.1955 -12.3394 L -21.1298 -12.3344 L -21.0641 -12.3293 L -20.9984 -12.3242 L -20.9326 -12.3192 L -20.8668 -12.314 L -20.8009 -12.3089 L -20.7351 -12.3038 L -20.6692 -12.2986 L -20.6033 -12.2934 L -20.5373 -12.2882 L -20.4713 -12.283 L -20.4053 -12.2778 L -20.3393 -12.2725 L -20.2732 -12.2672 L -20.2071 -12.2619 L -20.1409 -12.2566 L -20.0747 -12.2513 L -20.0085 -12.2459 L -19.9423 -12.2406 L -19.876 -12.2352 L -19.8097 -12.2298 L -19.7434 -12.2243 L -19.677 -12.2189 L -19.6106 -12.2134 L -19.5441 -12.2079 L -19.4777 -12.2024 L -19.4112 -12.1968 L -19.4112 -12.1968 L -19.445 -12.2544 L -19.4788 -12.3119 L -19.5126 -12.3693 L -19.5463 -12.4268 L -19.5801 -12.4842 L -19.6137 -12.5416 L -19.6474 -12.599 L -19.681 -12.6564 L -19.7146 -12.7138 L -19.7481 -12.7711 L -19.7817 -12.8284 L -19.8151 -12.8857 L -19.8486 -12.9429 L -19.882 -13.0002 L -19.9154 -13.0574 L -19.9488 -13.1146 L -19.9821 -13.1718 L -20.0154 -13.229 L -20.0487 -13.2861 L -20.0819 -13.3433 L -20.1151 -13.4004 L -20.1483 -13.4575 L -20.1815 -13.5145 L -20.2146 -13.5716 L -20.2477 -13.6286 L -20.2808 -13.6856 L -20.3138 -13.7426 L -20.3468 -13.7996 L -20.3798 -13.8565 L -20.4128 -13.9135 L -20.4457 -13.9704 L -20.4786 -14.0273 L -20.5115 -14.0842 L -20.5443 -14.141 L -20.5772 -14.1979 L -20.5434 -14.2466 L -20.5096 -14.2953 L -20.4756 -14.3439 L -20.4416 -14.3924 L -20.4074 -14.4409 L -20.3731 -14.4892 L -20.3387 -14.5375 L -20.3041 -14.5857 L -20.2695 -14.6338 L -20.2347 -14.6818 L -20.1998 -14.7298 L -20.1649 -14.7776 L -20.1298 -14.8254 L -20.0945 -14.8731 L -20.0592 -14.9207 L -20.0238 -14.9682 L -19.9882 -15.0157 L -19.9526 -15.063 L -19.9168 -15.1103 L -19.8809 -15.1575 L -19.8449 -15.2046 L -19.8088 -15.2516 L -19.7726 -15.2986 L -19.7362 -15.3454 L -19.6998 -15.3922 L -19.6632 -15.4388 L -19.6266 -15.4854 L -19.5898 -15.5319 L -19.5016 -15.6424 L -19.4645 -15.6886 L -19.4272 -15.7348 L -19.3899 -15.7808 L -19.3524 -15.8267 L -19.3148 -15.8726 L -19.2771 -15.9183 L -19.2393 -15.964 L -19.2014 -16.0096 L -19.1634 -16.0551 L -19.1252 -16.1005 L -19.087 -16.1458 L -19.0487 -16.191 L -19.0102 -16.2361 L -18.9717 -16.2812 L -18.933 -16.3261 L -18.8942 -16.371 L -18.8554 -16.4157 L -18.8164 -16.4604 L -18.7773 -16.505 L -18.7381 -16.5494 L -18.6988 -16.5938 L -18.6594 -16.6381 L -18.6199 -16.6823 L -18.5803 -16.7264 L -18.5405 -16.7705 L -18.5007 -16.8144 L -18.4608 -16.8582 L -18.4208 -16.9019 L -18.358 -16.8826 L -18.2953 -16.8632 L -18.2325 -16.8438 L -18.1697 -16.8244 L -18.1069 -16.8049 L -18.0441 -16.7855 L -17.9812 -16.766 L -17.9183 -16.7465 L -17.8554 -16.727 L -17.7924 -16.7074 L -17.7295 -16.6878 L -17.6665 -16.6682 L -17.6035 -16.6486 L -17.5404 -16.629 L -17.4774 -16.6093 L -17.4143 -16.5896 L -17.3512 -16.5699 L -17.288 -16.5501 L -17.2248 -16.5303 L -17.1616 -16.5106 L -17.0984 -16.4907 L -17.0352 -16.4709 L -16.9719 -16.451 L -16.9086 -16.4311 L -16.8453 -16.4112 L -16.7819 -16.3912 L -16.7185 -16.3713 L -16.6551 -16.3512 L -16.5917 -16.3312 L -16.5282 -16.3111 L -16.4647 -16.2911 L -16.4012 -16.2709 L -16.3376 -16.2508 L -16.274 -16.2306 L -16.2104 -16.2104 L -16.2104 -16.2104 L -16.2306 -16.274 L -16.2508 -16.3376 L -16.2709 -16.4012 L -16.2911 -16.4647 L -16.3111 -16.5282 L -16.3312 -16.5917 L -16.3512 -16.6551 L -16.3713 -16.7185 L -16.3912 -16.7819 L -16.4112 -16.8453 L -16.4311 -16.9086 L -16.451 -16.9719 L -16.4709 -17.0352 L -16.4907 -17.0984 L -16.5106 -17.1616 L -16.5303 -17.2248 L -16.5501 -17.288 L -16.5699 -17.3512 L -16.5896 -17.4143 L -16.6093 -17.4774 L -16.629 -17.5404 L -16.6486 -17.6035 L -16.6682 -17.6665 L -16.6878 -17.7295 L -16.7074 -17.7924 L -16.727 -17.8554 L -16.7465 -17.9183 L -16.766 -17.9812 L -16.7855 -18.0441 L -16.8049 -18.1069 L -16.8244 -18.1697 L -16.8438 -18.2325 L -16.8632 -18.2953 L -16.8826 -18.358 L -16.9019 -18.4208 L -16.8582 -18.4608 L -16.8144 -18.5007 L -16.7705 -18.5405 L -16.7264 -18.5803 L -16.6823 -18.6199 L -16.6381 -18.6594 L -16.5938 -18.6988 L -16.5494 -18.7381 L -16.505 -18.7773 L -16.4604 -18.8164 L -16.4157 -18.8554 L -16.371 -18.8942 L -16.3261 -18.933 L -16.2812 -18.9717 L -16.2361 -19.0102 L -16.191 -19.0487 L -16.1458 -19.087 L -16.1005 -19.1252 L -16.0551 -19.1634 L -16.0096 -19.2014 L -15.964 -19.2393 L -15.9183 -19.2771 L -15.8726 -19.3148 L -15.8267 -19.3524 L -15.7808 -19.3899 L -15.7348 -19.4272 L -15.6886 -19.4645 L -15.6424 -19.5016 L -15.5319 -19.5898 L -15.4854 -19.6266 L -15.4388 -19.6632 L -15.3922 -19.6998 L -15.3454 -19.7362 L -15.2986 -19.7726 L -15.2516 -19.8088 L -15.2046 -19.8449 L -15.1575 -19.8809 L -15.1103 -19.9168 L -15.063 -19.9526 L -15.0157 -19.9882 L -14.9682 -20.0238 L -14.9207 -20.0592 L -14.8731 -20.0945 L -14.8254 -20.1298 L -14.7776 -20.1649 L -14.7298 -20.1998 L -14.6818 -20.2347 L -14.6338 -20.2695 L -14.5857 -20.3041 L -14.5375 -20.3387 L -14.4892 -20.3731 L -14.4409 -20.4074 L -14.3924 -20.4416 L -14.3439 -20.4756 L -14.2953 -20.5096 L -14.2466 -20.5434 L -14.1979 -20.5772 L -14.141 -20.5443 L -14.0842 -20.5115 L -14.0273 -20.4786 L -13.9704 -20.4457 L -13.9135 -20.4128 L -13.8565 -20.3798 L -13.7996 -20.3468 L -13.7426 -20.3138 L -13.6856 -20.2808 L -13.6286 -20.2477 L -13.5716 -20.2146 L -13.5145 -20.1815 L -13.4575 -20.1483 L -13.4004 -20.1151 L -13.3433 -20.0819 L -13.2861 -20.0487 L -13.229 -20.0154 L -13.1718 -19.9821 L -13.1146 -19.9488 L -13.0574 -19.9154 L -13.0002 -19.882 L -12.9429 -19.8486 L -12.8857 -19.8151 L -12.8284 -19.7817 L -12.7711 -19.7481 L -12.7138 -19.7146 L -12.6564 -19.681 L -12.599 -19.6474 L -12.5416 -19.6137 L -12.4842 -19.5801 L -12.4268 -19.5463 L -12.3693 -19.5126 L -12.3119 -19.4788 L -12.2544 -19.445 L -12.1968 -19.4112 L -12.1968 -19.4112 L -12.2024 -19.4777 L -12.2079 -19.5441 L -12.2134 -19.6106 L -12.2189 -19.677 L -12.2243 -19.7434 L -12.2298 -19.8097 L -12.2352 -19.876 L -12.2406 -19.9423 L -12.2459 -20.0085 L -12.2513 -20.0747 L -12.2566 -20.1409 L -12.2619 -20.2071 L -12.2672 -20.2732 L -12.2725 -20.3393 L -12.2778 -20.4053 L -12.283 -20.4713 L -12.2882 -20.5373 L -12.2934 -20.6033 L -12.2986 -20.6692 L -12.3038 -20.7351 L -12.3089 -20.8009 L -12.314 -20.8668 L -12.3192 -20.9326 L -12.3242 -20.9984 L -12.3293 -21.0641 L -12.3344 -21.1298 L -12.3394 -21.1955 L -12.3444 -21.2612 L -12.3495 -21.3268 L -12.3544 -21.3924 L -12.3594 -21.458 L -12.3644 -21.5235 L -12.3693 -21.589 L -12.3742 -21.6545 L -12.3792 -21.72 L -12.3276 -21.7493 L -12.276 -21.7784 L -12.2243 -21.8075 L -12.1726 -21.8364 L -12.1208 -21.8652 L -12.0689 -21.8939 L -12.0169 -21.9224 L -11.9649 -21.9509 L -11.9128 -21.9792 L -11.8607 -22.0074 L -11.8084 -22.0354 L -11.7561 -22.0634 L -11.7038 -22.0912 L -11.6514 -22.1189 L -11.5989 -22.1465 L -11.5463 -22.1739 L -11.4937 -22.2012 L -11.441 -22.2284 L -11.3883 -22.2555 L -11.3355 -22.2824 L -11.2826 -22.3093 L -11.2297 -22.3359 L -11.1767 -22.3625 L -11.1236 -22.389 L -11.0705 -22.4153 L -11.0173 -22.4415 L -10.964 -22.4675 L -10.9107 -22.4935 L -10.7834 -22.5548 L -10.7299 -22.5803 L -10.6763 -22.6057 L -10.6226 -22.6309 L -10.5689 -22.6561 L -10.5152 -22.6811 L -10.4614 -22.7059 L -10.4075 -22.7307 L -10.3536 -22.7553 L -10.2996 -22.7798 L -10.2455 -22.8042 L -10.1914 -22.8284 L -10.1372 -22.8525 L -10.083 -22.8765 L -10.0287 -22.9003 L -9.97441 -22.924 L -9.92002 -22.9476 L -9.86557 -22.9711 L -9.81107 -22.9944 L -9.75651 -23.0176 L -9.7019 -23.0407 L -9.64724 -23.0636 L -9.59251 -23.0864 L -9.53774 -23.1091 L -9.48291 -23.1317 L -9.42803 -23.1541 L -9.37309 -23.1764 L -9.31811 -23.1986 L -9.26307 -23.2206 L -9.21495 -23.1759 L -9.16682 -23.1313 L -9.11868 -23.0865 L -9.07053 -23.0418 L -9.02237 -22.997 L -8.97419 -22.9522 L -8.926 -22.9074 L -8.87781 -22.8625 L -8.82959 -22.8176 L -8.78137 -22.7727 L -8.73313 -22.7277 L -8.68488 -22.6828 L -8.63662 -22.6377 L -8.58835 -22.5927 L -8.54006 -22.5476 L -8.49177 -22.5025 L -8.44345 -22.4573 L -8.39513 -22.4121 L -8.34679 -22.3669 L -8.29845 -22.3216 L -8.25008 -22.2764 L -8.20171 -22.231 L -8.15332 -22.1857 L -8.10492 -22.1403 L -8.05651 -22.0948 L -8.00808 -22.0494 L -7.95964 -22.0039 L -7.91119 -21.9583 L -7.86272 -21.9128 L -7.81424 -21.8672 L -7.76575 -21.8215 L -7.71725 -21.7758 L -7.66873 -21.7301 L -7.62019 -21.6843 L -7.57165 -21.6385 L -7.57165 -21.6385 L -7.56225 -21.7046 L -7.55284 -21.7706 L -7.54341 -21.8366 L -7.53398 -21.9026 L -7.52452 -21.9685 L -7.51506 -22.0344 L -7.50558 -22.1003 L -7.4961 -22.1661 L -7.48659 -22.2319 L -7.47708 -22.2976 L -7.46756 -22.3633 L -7.45802 -22.429 L -7.44847 -22.4946 L -7.43891 -22.5602 L -7.42933 -22.6258 L -7.41975 -22.6913 L -7.41016 -22.7568 L -7.40055 -22.8222 L -7.39093 -22.8877 L -7.3813 -22.9531 L -7.37166 -23.0184 L -7.36201 -23.0837 L -7.35235 -23.149 L -7.34268 -23.2143 L -7.333 -23.2795 L -7.32331 -23.3447 L -7.31361 -23.4099 L -7.30389 -23.475 L -7.29417 -23.5401 L -7.28444 -23.6052 L -7.2747 -23.6702 L -7.26495 -23.7352 L -7.25519 -23.8002 L -7.24542 -23.8651 L -7.23564 -23.93 L -7.17887 -23.9471 L -7.12206 -23.9641 L -7.06521 -23.9809 L -7.00832 -23.9976 L -6.9514 -24.0141 L -6.89443 -24.0305 L -6.83742 -24.0468 L -6.78038 -24.063 L -6.7233 -24.079 L -6.66618 -24.0949 L -6.60902 -24.1106 L -6.55182 -24.1262 L -6.49459 -24.1417 L -6.43732 -24.157 L -6.38002 -24.1722 L -6.32268 -24.1873 L -6.2653 -24.2022 L -6.20789 -24.217 L -6.15044 -24.2316 L -6.09296 -24.2462 L -6.03545 -24.2605 L -5.9779 -24.2748 L -5.92032 -24.2889 L -5.8627 -24.3029 L -5.80505 -24.3167 L -5.74737 -24.3304 L -5.68966 -24.3439 L -5.63191 -24.3574 L -5.49409 -24.3888 L -5.43624 -24.4018 L -5.37836 -24.4146 L -5.32045 -24.4273 L -5.2625 -24.4398 L -5.20453 -24.4523 L -5.14653 -24.4645 L -5.0885 -24.4767 L -5.03044 -24.4887 L -4.97235 -24.5005 L -4.91424 -24.5122 L -4.8561 -24.5238 L -4.79793 -24.5353 L -4.73973 -24.5466 L -4.6815 -24.5578 L -4.62325 -24.5688 L -4.56498 -24.5797 L -4.50668 -24.5904 L -4.44835 -24.6011 L -4.39 -24.6115 L -4.33162 -24.6219 L -4.27322 -24.6321 L -4.21479 -24.6421 L -4.15635 -24.6521 L -4.09787 -24.6619 L -4.03938 -24.6715 L -3.98086 -24.681 L -3.92232 -24.6904 L -3.86376 -24.6996 L -3.82678 -24.6454 L -3.7898 -24.5911 L -3.75282 -24.5368 L -3.71583 -24.4825 L -3.67884 -24.4281 L -3.64184 -24.3737 L -3.60484 -24.3193 L -3.56783 -24.2648 L -3.53082 -24.2103 L -3.4938 -24.1558 L -3.45678 -24.1012 L -3.41975 -24.0466 L -3.38271 -23.992 L -3.34568 -23.9373 L -3.30864 -23.8826 L -3.27159 -23.8279 L -3.23454 -23.7731 L -3.19748 -23.7183 L -3.16042 -23.6635 L -3.12335 -23.6086 L -3.08628 -23.5537 L -3.0492 -23.4987 L -3.01212 -23.4437 L -2.97504 -23.3887 L -2.93795 -23.3336 L -2.90085 -23.2785 L -2.86375 -23.2234 L -2.82665 -23.1682 L -2.78954 -23.113 L -2.75243 -23.0577 L -2.71531 -23.0024 L -2.67818 -22.9471 L -2.64106 -22.8917 L -2.60392 -22.8363 L -2.56679 -22.7809 L -2.56679 -22.7809 L -2.54292 -22.8432 L -2.51905 -22.9055 L -2.49517 -22.9677 L -2.47129 -23.0299 L -2.44741 -23.0921 L -2.42352 -23.1542 L -2.39963 -23.2163 L -2.37574 -23.2784 L -2.35184 -23.3404 L -2.32793 -23.4024 L -2.30403 -23.4643 L -2.28011 -23.5262 L -2.2562 -23.5881 L -2.23228 -23.6499 L -2.20836 -23.7117 L -2.18443 -23.7734 L -2.16051 -23.8351 L -2.13657 -23.8968 L -2.11264 -23.9585 L -2.0887 -24.0201 L -2.06476 -24.0816 L -2.04082 -24.1432 L -2.01687 -24.2047 L -1.99292 -24.2662 L -1.96897 -24.3276 L -1.94501 -24.389 L -1.92105 -24.4504 L -1.89709 -24.5117 L -1.87313 -24.573 L -1.84916 -24.6343 L -1.8252 -24.6955 L -1.80122 -24.7567 L -1.77725 -24.8179 L -1.75328 -24.879 L -1.7293 -24.9401 L -1.67015 -24.9441 L -1.61099 -24.948 L -1.55183 -24.9518 L -1.49265 -24.9554 L -1.43347 -24.9589 L -1.37427 -24.9622 L -1.31507 -24.9654 L -1.25587 -24.9684 L -1.19665 -24.9713 L -1.13743 -24.9741 L -1.0782 -24.9767 L -1.01897 -24.9792 L -0.959731 -24.9816 L -0.900486 -24.9838 L -0.841236 -24.9858 L -0.781982 -24.9878 L -0.722723 -24.9896 L -0.66346 -24.9912 L -0.604194 -24.9927 L -0.544924 -24.9941 L -0.48565 -24.9953 L -0.426375 -24.9964 L -0.367096 -24.9973 L -0.307816 -24.9981 L -0.248534 -24.9988 L -0.189251 -24.9993 L -0.129966 -24.9997 L -0.0706809 -24.9999 L 0.0706809 -24.9999 L 0.129966 -24.9997 L 0.189251 -24.9993 L 0.248534 -24.9988 L 0.307816 -24.9981 L 0.367096 -24.9973 L 0.426375 -24.9964 L 0.48565 -24.9953 L 0.544924 -24.9941 L 0.604194 -24.9927 L 0.66346 -24.9912 L 0.722723 -24.9896 L 0.781982 -24.9878 L 0.841236 -24.9858 L 0.900486 -24.9838 L 0.959731 -24.9816 L 1.01897 -24.9792 L 1.0782 -24.9767 L 1.13743 -24.9741 L 1.19665 -24.9713 L 1.25587 -24.9684 L 1.31507 -24.9654 L 1.37427 -24.9622 L 1.43347 -24.9589 L 1.49265 -24.9554 L 1.55183 -24.9518 L 1.61099 -24.948 L 1.67015 -24.9441 L 1.7293 -24.9401 L 1.75328 -24.879 L 1.77725 -24.8179 L 1.80122 -24.7567 L 1.8252 -24.6955 L 1.84916 -24.6343 L 1.87313 -24.573 L 1.89709 -24.5117 L 1.92105 -24.4504 L 1.94501 -24.389 L 1.96897 -24.3276 L 1.99292 -24.2662 L 2.01687 -24.2047 L 2.04082 -24.1432 L 2.06476 -24.0816 L 2.0887 -24.0201 L 2.11264 -23.9585 L 2.13657 -23.8968 L 2.16051 -23.8351 L 2.18443 -23.7734 L 2.20836 -23.7117 L 2.23228 -23.6499 L 2.2562 -23.5881 L 2.28011 -23.5262 L 2.30403 -23.4643 L 2.32793 -23.4024 L 2.35184 -23.3404 L 2.37574 -23.2784 L 2.39963 -23.2163 L 2.42352 -23.1542 L 2.44741 -23.0921 L 2.47129 -23.0299 L 2.49517 -22.9677 L 2.51905 -22.9055 L 2.54292 -22.8432 L 2.56679 -22.7809 L 2.56679 -22.7809 L 2.60392 -22.8363 L 2.64106 -22.8917 L 2.67818 -22.9471 L 2.71531 -23.0024 L 2.75243 -23.0577 L 2.78954 -23.113 L 2.82665 -23.1682 L 2.86375 -23.2234 L 2.90085 -23.2785 L 2.93795 -23.3336 L 2.97504 -23.3887 L 3.01212 -23.4437 L 3.0492 -23.4987 L 3.08628 -23.5537 L 3.12335 -23.6086 L 3.16042 -23.6635 L 3.19748 -23.7183 L 3.23454 -23.7731 L 3.27159 -23.8279 L 3.30864 -23.8826 L 3.34568 -23.9373 L 3.38271 -23.992 L 3.41975 -24.0466 L 3.45678 -24.1012 L 3.4938 -24.1558 L 3.53082 -24.2103 L 3.56783 -24.2648 L 3.60484 -24.3193 L 3.64184 -24.3737 L 3.67884 -24.4281 L 3.71583 -24.4825 L 3.75282 -24.5368 L 3.7898 -24.5911 L 3.82678 -24.6454 L 3.86376 -24.6996 L 3.92232 -24.6904 L 3.98086 -24.681 L 4.03938 -24.6715 L 4.09787 -24.6619 L 4.15635 -24.6521 L 4.21479 -24.6421 L 4.27322 -24.6321 L 4.33162 -24.6219 L 4.39 -24.6115 L 4.44835 -24.6011 L 4.50668 -24.5904 L 4.56498 -24.5797 L 4.62325 -24.5688 L 4.6815 -24.5578 L 4.73973 -24.5466 L 4.79793 -24.5353 L 4.8561 -24.5238 L 4.91424 -24.5122 L 4.97235 -24.5005 L 5.03044 -24.4887 L 5.0885 -24.4767 L 5.14653 -24.4645 L 5.20453 -24.4523 L 5.2625 -24.4398 L 5.32045 -24.4273 L 5.37836 -24.4146 L 5.43624 -24.4018 L 5.49409 -24.3888 L 5.63191 -24.3574 L 5.68966 -24.3439 L 5.74737 -24.3304 L 5.80505 -24.3167 L 5.8627 -24.3029 L 5.92032 -24.2889 L 5.9779 -24.2748 L 6.03545 -24.2605 L 6.09296 -24.2462 L 6.15044 -24.2316 L 6.20789 -24.217 L 6.2653 -24.2022 L 6.32268 -24.1873 L 6.38002 -24.1722 L 6.43732 -24.157 L 6.49459 -24.1417 L 6.55182 -24.1262 L 6.60902 -24.1106 L 6.66618 -24.0949 L 6.7233 -24.079 L 6.78038 -24.063 L 6.83742 -24.0468 L 6.89443 -24.0305 L 6.9514 -24.0141 L 7.00832 -23.9976 L 7.06521 -23.9809 L 7.12206 -23.9641 L 7.17887 -23.9471 L 7.23564 -23.93 L 7.24542 -23.8651 L 7.25519 -23.8002 L 7.26495 -23.7352 L 7.2747 -23.6702 L 7.28444 -23.6052 L 7.29417 -23.5401 L 7.30389 -23.475 L 7.31361 -23.4099 L 7.32331 -23.3447 L 7.333 -23.2795 L 7.34268 -23.2143 L 7.35235 -23.149 L 7.36201 -23.0837 L 7.37166 -23.0184 L 7.3813 -22.9531 L 7.39093 -22.8877 L 7.40055 -22.8222 L 7.41016 -22.7568 L 7.41975 -22.6913 L 7.42933 -22.6258 L 7.43891 -22.5602 L 7.44847 -22.4946 L 7.45802 -22.429 L 7.46756 -22.3633 L 7.47708 -22.2976 L 7.48659 -22.2319 L 7.4961 -22.1661 L 7.50558 -22.1003 L 7.51506 -22.0344 L 7.52452 -21.9685 L 7.53398 -21.9026 L 7.54341 -21.8366 L 7.55284 -21.7706 L 7.56225 -21.7046 L 7.57165 -21.6385 L 7.57165 -21.6385 L 7.62019 -21.6843 L 7.66873 -21.7301 L 7.71725 -21.7758 L 7.76575 -21.8215 L 7.81424 -21.8672 L 7.86272 -21.9128 L 7.91119 -21.9583 L 7.95964 -22.0039 L 8.00808 -22.0494 L 8.05651 -22.0948 L 8.10492 -22.1403 L 8.15332 -22.1857 L 8.20171 -22.231 L 8.25008 -22.2764 L 8.29845 -22.3216 L 8.34679 -22.3669 L 8.39513 -22.4121 L 8.44345 -22.4573 L 8.49177 -22.5025 L 8.54006 -22.5476 L 8.58835 -22.5927 L 8.63662 -22.6377 L 8.68488 -22.6828 L 8.73313 -22.7277 L 8.78137 -22.7727 L 8.82959 -22.8176 L 8.87781 -22.8625 L 8.926 -22.9074 L 8.97419 -22.9522 L 9.02237 -22.997 L 9.07053 -23.0418 L 9.11868 -23.0865 L 9.16682 -23.1313 L 9.21495 -23.1759 L 9.26307 -23.2206 L 9.31811 -23.1986 L 9.37309 -23.1764 L 9.42803 -23.1541 L 9.48291 -23.1317 L 9.53774 -23.1091 L 9.59251 -23.0864 L 9.64724 -23.0636 L 9.7019 -23.0407 L 9.75651 -23.0176 L 9.81107 -22.9944 L 9.86557 -22.9711 L 9.92002 -22.9476 L 9.97441 -22.924 L 10.0287 -22.9003 L 10.083 -22.8765 L 10.1372 -22.8525 L 10.1914 -22.8284 L 10.2455 -22.8042 L 10.2996 -22.7798 L 10.3536 -22.7553 L 10.4075 -22.7307 L 10.4614 -22.7059 L 10.5152 -22.6811 L 10.5689 -22.6561 L 10.6226 -22.6309 L 10.6763 -22.6057 L 10.7299 -22.5803 L 10.7834 -22.5548 L 10.9107 -22.4935 L 10.964 -22.4675 L 11.0173 -22.4415 L 11.0705 -22.4153 L 11.1236 -22.389 L 11.1767 -22.3625 L 11.2297 -22.3359 L 11.2826 -22.3093 L 11.3355 -22.2824 L 11.3883 -22.2555 L 11.441 -22.2284 L 11.4937 -22.2012 L 11.5463 -22.1739 L 11.5989 -22.1465 L 11.6514 -22.1189 L 11.7038 -22.0912 L 11.7561 -22.0634 L 11.8084 -22.0354 L 11.8607 -22.0074 L 11.9128 -21.9792 L 11.9649 -21.9509 L 12.0169 -21.9224 L 12.0689 -21.8939 L 12.1208 -21.8652 L 12.1726 -21.8364 L 12.2243 -21.8075 L 12.276 -21.7784 L 12.3276 -21.7493 L 12.3792 -21.72 L 12.3742 -21.6545 L 12.3693 -21.589 L 12.3644 -21.5235 L 12.3594 -21.458 L 12.3544 -21.3924 L 12.3495 -21.3268 L 12.3444 -21.2612 L 12.3394 -21.1955 L 12.3344 -21.1298 L 12.3293 -21.0641 L 12.3242 -20.9984 L 12.3192 -20.9326 L 12.314 -20.8668 L 12.3089 -20.8009 L 12.3038 -20.7351 L 12.2986 -20.6692 L 12.2934 -20.6033 L 12.2882 -20.5373 L 12.283 -20.4713 L 12.2778 -20.4053 L 12.2725 -20.3393 L 12.2672 -20.2732 L 12.2619 -20.2071 L 12.2566 -20.1409 L 12.2513 -20.0747 L 12.2459 -20.0085 L 12.2406 -19.9423 L 12.2352 -19.876 L 12.2298 -19.8097 L 12.2243 -19.7434 L 12.2189 -19.677 L 12.2134 -19.6106 L 12.2079 -19.5441 L 12.2024 -19.4777 L 12.1968 -19.4112 L 12.1968 -19.4112 L 12.2544 -19.445 L 12.3119 -19.4788 L 12.3693 -19.5126 L 12.4268 -19.5463 L 12.4842 -19.5801 L 12.5416 -19.6137 L 12.599 -19.6474 L 12.6564 -19.681 L 12.7138 -19.7146 L 12.7711 -19.7481 L 12.8284 -19.7817 L 12.8857 -19.8151 L 12.9429 -19.8486 L 13.0002 -19.882 L 13.0574 -19.9154 L 13.1146 -19.9488 L 13.1718 -19.9821 L 13.229 -20.0154 L 13.2861 -20.0487 L 13.3433 -20.0819 L 13.4004 -20.1151 L 13.4575 -20.1483 L 13.5145 -20.1815 L 13.5716 -20.2146 L 13.6286 -20.2477 L 13.6856 -20.2808 L 13.7426 -20.3138 L 13.7996 -20.3468 L 13.8565 -20.3798 L 13.9135 -20.4128 L 13.9704 -20.4457 L 14.0273 -20.4786 L 14.0842 -20.5115 L 14.141 -20.5443 L 14.1979 -20.5772 L 14.2466 -20.5434 L 14.2953 -20.5096 L 14.3439 -20.4756 L 14.3924 -20.4416 L 14.4409 -20.4074 L 14.4892 -20.3731 L 14.5375 -20.3387 L 14.5857 -20.3041 L 14.6338 -20.2695 L 14.6818 -20.2347 L 14.7298 -20.1998 L 14.7776 -20.1649 L 14.8254 -20.1298 L 14.8731 -20.0945 L 14.9207 -20.0592 L 14.9682 -20.0238 L 15.0157 -19.9882 L 15.063 -19.9526 L 15.1103 -19.9168 L 15.1575 -19.8809 L 15.2046 -19.8449 L 15.2516 -19.8088 L 15.2986 -19.7726 L 15.3454 -19.7362 L 15.3922 -19.6998 L 15.4388 -19.6632 L 15.4854 -19.6266 L 15.5319 -19.5898 L 15.6424 -19.5016 L 15.6886 -19.4645 L 15.7348 -19.4272 L 15.7808 -19.3899 L 15.8267 -19.3524 L 15.8726 -19.3148 L 15.9183 -19.2771 L 15.964 -19.2393 L 16.0096 -19.2014 L 16.0551 -19.1634 L 16.1005 -19.1252 L 16.1458 -19.087 L 16.191 -19.0487 L 16.2361 -19.0102 L 16.2812 -18.9717 L 16.3261 -18.933 L 16.371 -18.8942 L 16.4157 -18.8554 L 16.4604 -18.8164 L 16.505 -18.7773 L 16.5494 -18.7381 L 16.5938 -18.6988 L 16.6381 -18.6594 L 16.6823 -18.6199 L 16.7264 -18.5803 L 16.7705 -18.5405 L 16.8144 -18.5007 L 16.8582 -18.4608 L 16.9019 -18.4208 L 16.8826 -18.358 L 16.8632 -18.2953 L 16.8438 -18.2325 L 16.8244 -18.1697 L 16.8049 -18.1069 L 16.7855 -18.0441 L 16.766 -17.9812 L 16.7465 -17.9183 L 16.727 -17.8554 L 16.7074 -17.7924 L 16.6878 -17.7295 L 16.6682 -17.6665 L 16.6486 -17.6035 L 16.629 -17.5404 L 16.6093 -17.4774 L 16.5896 -17.4143 L 16.5699 -17.3512 L 16.5501 -17.288 L 16.5303 -17.2248 L 16.5106 -17.1616 L 16.4907 -17.0984 L 16.4709 -17.0352 L 16.451 -16.9719 L 16.4311 -16.9086 L 16.4112 -16.8453 L 16.3912 -16.7819 L 16.3713 -16.7185 L 16.3512 -16.6551 L 16.3312 -16.5917 L 16.3111 -16.5282 L 16.2911 -16.4647 L 16.2709 -16.4012 L 16.2508 -16.3376 L 16.2306 -16.274 L 16.2104 -16.2104 L 16.2104 -16.2104 L 16.274 -16.2306 L 16.3376 -16.2508 L 16.4012 -16.2709 L 16.4647 -16.2911 L 16.5282 -16.3111 L 16.5917 -16.3312 L 16.6551 -16.3512 L 16.7185 -16.3713 L 16.7819 -16.3912 L 16.8453 -16.4112 L 16.9086 -16.4311 L 16.9719 -16.451 L 17.0352 -16.4709 L 17.0984 -16.4907 L 17.1616 -16.5106 L 17.2248 -16.5303 L 17.288 -16.5501 L 17.3512 -16.5699 L 17.4143 -16.5896 L 17.4774 -16.6093 L 17.5404 -16.629 L 17.6035 -16.6486 L 17.6665 -16.6682 L 17.7295 -16.6878 L 17.7924 -16.7074 L 17.8554 -16.727 L 17.9183 -16.7465 L 17.9812 -16.766 L 18.0441 -16.7855 L 18.1069 -16.8049 L 18.1697 -16.8244 L 18.2325 -16.8438 L 18.2953 -16.8632 L 18.358 -16.8826 L 18.4208 -16.9019 L 18.4608 -16.8582 L 18.5007 -16.8144 L 18.5405 -16.7705 L 18.5803 -16.7264 L 18.6199 -16.6823 L 18.6594 -16.6381 L 18.6988 -16.5938 L 18.7381 -16.5494 L 18.7773 -16.505 L 18.8164 -16.4604 L 18.8554 -16.4157 L 18.8942 -16.371 L 18.933 -16.3261 L 18.9717 -16.2812 L 19.0102 -16.2361 L 19.0487 -16.191 L 19.087 -16.1458 L 19.1252 -16.1005 L 19.1634 -16.0551 L 19.2014 -16.0096 L 19.2393 -15.964 L 19.2771 -15.9183 L 19.3148 -15.8726 L 19.3524 -15.8267 L 19.3899 -15.7808 L 19.4272 -15.7348 L 19.4645 -15.6886 L 19.5016 -15.6424 L 19.5898 -15.5319 L 19.6266 -15.4854 L 19.6632 -15.4388 L 19.6998 -15.3922 L 19.7362 -15.3454 L 19.7726 -15.2986 L 19.8088 -15.2516 L 19.8449 -15.2046 L 19.8809 -15.1575 L 19.9168 -15.1103 L 19.9526 -15.063 L 19.9882 -15.0157 L 20.0238 -14.9682 L 20.0592 -14.9207 L 20.0945 -14.8731 L 20.1298 -14.8254 L 20.1649 -14.7776 L 20.1998 -14.7298 L 20.2347 -14.6818 L 20.2695 -14.6338 L 20.3041 -14.5857 L 20.3387 -14.5375 L 20.3731 -14.4892 L 20.4074 -14.4409 L 20.4416 -14.3924 L 20.4756 -14.3439 L 20.5096 -14.2953 L 20.5434 -14.2466 L 20.5772 -14.1979 L 20.5443 -14.141 L 20.5115 -14.0842 L 20.4786 -14.0273 L 20.4457 -13.9704 L 20.4128 -13.9135 L 20.3798 -13.8565 L 20.3468 -13.7996 L 20.3138 -13.7426 L 20.2808 -13.6856 L 20.2477 -13.6286 L 20.2146 -13.5716 L 20.1815 -13.5145 L 20.1483 -13.4575 L 20.1151 -13.4004 L 20.0819 -13.3433 L 20.0487 -13.2861 L 20.0154 -13.229 L 19.9821 -13.1718 L 19.9488 -13.1146 L 19.9154 -13.0574 L 19.882 -13.0002 L 19.8486 -12.9429 L 19.8151 -12.8857 L 19.7817 -12.8284 L 19.7481 -12.7711 L 19.7146 -12.7138 L 19.681 -12.6564 L 19.6474 -12.599 L 19.6137 -12.5416 L 19.5801 -12.4842 L 19.5463 -12.4268 L 19.5126 -12.3693 L 19.4788 -12.3119 L 19.445 -12.2544 L 19.4112 -12.1968 L 19.4112 -12.1968 L 19.4777 -12.2024 L 19.5441 -12.2079 L 19.6106 -12.2134 L 19.677 -12.2189 L 19.7434 -12.2243 L 19.8097 -12.2298 L 19.876 -12.2352 L 19.9423 -12.2406 L 20.0085 -12.2459 L 20.0747 -12.2513 L 20.1409 -12.2566 L 20.2071 -12.2619 L 20.2732 -12.2672 L 20.3393 -12.2725 L 20.4053 -12.2778 L 20.4713 -12.283 L 20.5373 -12.2882 L 20.6033 -12.2934 L 20.6692 -12.2986 L 20.7351 -12.3038 L 20.8009 -12.3089 L 20.8668 -12.314 L 20.9326 -12.3192 L 20.9984 -12.3242 L 21.0641 -12.3293 L 21.1298 -12.3344 L 21.1955 -12.3394 L 21.2612 -12.3444 L 21.3268 -12.3495 L 21.3924 -12.3544 L 21.458 -12.3594 L 21.5235 -12.3644 L 21.589 -12.3693 L 21.6545 -12.3742 L 21.72 -12.3792 L 21.7493 -12.3276 L 21.7784 -12.276 L 21.8075 -12.2243 L 21.8364 -12.1726 L 21.8652 -12.1208 L 21.8939 -12.0689 L 21.9224 -12.0169 L 21.9509 -11.9649 L 21.9792 -11.9128 L 22.0074 -11.8607 L 22.0354 -11.8084 L 22.0634 -11.7561 L 22.0912 -11.7038 L 22.1189 -11.6514 L 22.1465 -11.5989 L 22.1739 -11.5463 L 22.2012 -11.4937 L 22.2284 -11.441 L 22.2555 -11.3883 L 22.2824 -11.3355 L 22.3093 -11.2826 L 22.3359 -11.2297 L 22.3625 -11.1767 L 22.389 -11.1236 L 22.4153 -11.0705 L 22.4415 -11.0173 L 22.4675 -10.964 L 22.4935 -10.9107 L 22.5548 -10.7834 L 22.5803 -10.7299 L 22.6057 -10.6763 L 22.6309 -10.6226 L 22.6561 -10.5689 L 22.6811 -10.5152 L 22.7059 -10.4614 L 22.7307 -10.4075 L 22.7553 -10.3536 L 22.7798 -10.2996 L 22.8042 -10.2455 L 22.8284 -10.1914 L 22.8525 -10.1372 L 22.8765 -10.083 L 22.9003 -10.0287 L 22.924 -9.97441 L 22.9476 -9.92002 L 22.9711 -9.86557 L 22.9944 -9.81107 L 23.0176 -9.75651 L 23.0407 -9.7019 L 23.0636 -9.64724 L 23.0864 -9.59251 L 23.1091 -9.53774 L 23.1317 -9.48291 L 23.1541 -9.42803 L 23.1764 -9.37309 L 23.1986 -9.31811 L 23.2206 -9.26307 L 23.1759 -9.21495 L 23.1313 -9.16682 L 23.0865 -9.11868 L 23.0418 -9.07053 L 22.997 -9.02237 L 22.9522 -8.97419 L 22.9074 -8.926 L 22.8625 -8.87781 L 22.8176 -8.82959 L 22.7727 -8.78137 L 22.7277 -8.73313 L 22.6828 -8.68488 L 22.6377 -8.63662 L 22.5927 -8.58835 L 22.5476 -8.54006 L 22.5025 -8.49177 L 22.4573 -8.44345 L 22.4121 -8.39513 L 22.3669 -8.34679 L 22.3216 -8.29845 L 22.2764 -8.25008 L 22.231 -8.20171 L 22.1857 -8.15332 L 22.1403 -8.10492 L 22.0948 -8.05651 L 22.0494 -8.00808 L 22.0039 -7.95964 L 21.9583 -7.91119 L 21.9128 -7.86272 L 21.8672 -7.81424 L 21.8215 -7.76575 L 21.7758 -7.71725 L 21.7301 -7.66873 L 21.6843 -7.62019 L 21.6385 -7.57165 L 21.6385 -7.57165 L 21.7046 -7.56225 L 21.7706 -7.55284 L 21.8366 -7.54341 L 21.9026 -7.53398 L 21.9685 -7.52452 L 22.0344 -7.51506 L 22.1003 -7.50558 L 22.1661 -7.4961 L 22.2319 -7.48659 L 22.2976 -7.47708 L 22.3633 -7.46756 L 22.429 -7.45802 L 22.4946 -7.44847 L 22.5602 -7.43891 L 22.6258 -7.42933 L 22.6913 -7.41975 L 22.7568 -7.41016 L 22.8222 -7.40055 L 22.8877 -7.39093 L 22.9531 -7.3813 L 23.0184 -7.37166 L 23.0837 -7.36201 L 23.149 -7.35235 L 23.2143 -7.34268 L 23.2795 -7.333 L 23.3447 -7.32331 L 23.4099 -7.31361 L 23.475 -7.30389 L 23.5401 -7.29417 L 23.6052 -7.28444 L 23.6702 -7.2747 L 23.7352 -7.26495 L 23.8002 -7.25519 L 23.8651 -7.24542 L 23.93 -7.23564 L 23.9471 -7.17887 L 23.9641 -7.12206 L 23.9809 -7.06521 L 23.9976 -7.00832 L 24.0141 -6.9514 L 24.0305 -6.89443 L 24.0468 -6.83742 L 24.063 -6.78038 L 24.079 -6.7233 L 24.0949 -6.66618 L 24.1106 -6.60902 L 24.1262 -6.55182 L 24.1417 -6.49459 L 24.157 -6.43732 L 24.1722 -6.38002 L 24.1873 -6.32268 L 24.2022 -6.2653 L 24.217 -6.20789 L 24.2316 -6.15044 L 24.2462 -6.09296 L 24.2605 -6.03545 L 24.2748 -5.9779 L 24.2889 -5.92032 L 24.3029 -5.8627 L 24.3167 -5.80505 L 24.3304 -5.74737 L 24.3439 -5.68966 L 24.3574 -5.63191 L 24.3888 -5.49409 L 24.4018 -5.43624 L 24.4146 -5.37836 L 24.4273 -5.32045 L 24.4398 -5.2625 L 24.4523 -5.20453 L 24.4645 -5.14653 L 24.4767 -5.0885 L 24.4887 -5.03044 L 24.5005 -4.97235 L 24.5122 -4.91424 L 24.5238 -4.8561 L 24.5353 -4.79793 L 24.5466 -4.73973 L 24.5578 -4.6815 L 24.5688 -4.62325 L 24.5797 -4.56498 L 24.5904 -4.50668 L 24.6011 -4.44835 L 24.6115 -4.39 L 24.6219 -4.33162 L 24.6321 -4.27322 L 24.6421 -4.21479 L 24.6521 -4.15635 L 24.6619 -4.09787 L 24.6715 -4.03938 L 24.681 -3.98086 L 24.6904 -3.92232 L 24.6996 -3.86376 L 24.6454 -3.82678 L 24.5911 -3.7898 L 24.5368 -3.75282 L 24.4825 -3.71583 L 24.4281 -3.67884 L 24.3737 -3.64184 L 24.3193 -3.60484 L 24.2648 -3.56783 L 24.2103 -3.53082 L 24.1558 -3.4938 L 24.1012 -3.45678 L 24.0466 -3.41975 L 23.992 -3.38271 L 23.9373 -3.34568 L 23.8826 -3.30864 L 23.8279 -3.27159 L 23.7731 -3.23454 L 23.7183 -3.19748 L 23.6635 -3.16042 L 23.6086 -3.12335 L 23.5537 -3.08628 L 23.4987 -3.0492 L 23.4437 -3.01212 L 23.3887 -2.97504 L 23.3336 -2.93795 L 23.2785 -2.90085 L 23.2234 -2.86375 L 23.1682 -2.82665 L 23.113 -2.78954 L 23.0577 -2.75243 L 23.0024 -2.71531 L 22.9471 -2.67818 L 22.8917 -2.64106 L 22.8363 -2.60392 L 22.7809 -2.56679 L 22.7809 -2.56679 L 22.8432 -2.54292 L 22.9055 -2.51905 L 22.9677 -2.49517 L 23.0299 -2.47129 L 23.0921 -2.44741 L 23.1542 -2.42352 L 23.2163 -2.39963 L 23.2784 -2.37574 L 23.3404 -2.35184 L 23.4024 -2.32793 L 23.4643 -2.30403 L 23.5262 -2.28011 L 23.5881 -2.2562 L 23.6499 -2.23228 L 23.7117 -2.20836 L 23.7734 -2.18443 L 23.8351 -2.16051 L 23.8968 -2.13657 L 23.9585 -2.11264 L 24.0201 -2.0887 L 24.0816 -2.06476 L 24.1432 -2.04082 L 24.2047 -2.01687 L 24.2662 -1.99292 L 24.3276 -1.96897 L 24.389 -1.94501 L 24.4504 -1.92105 L 24.5117 -1.89709 L 24.573 -1.87313 L 24.6343 -1.84916 L 24.6955 -1.8252 L 24.7567 -1.80122 L 24.8179 -1.77725 L 24.879 -1.75328 L 24.9401 -1.7293 L 24.9441 -1.67015 L 24.948 -1.61099 L 24.9518 -1.55183 L 24.9554 -1.49265 L 24.9589 -1.43347 L 24.9622 -1.37427 L 24.9654 -1.31507 L 24.9684 -1.25587 L 24.9713 -1.19665 L 24.9741 -1.13743 L 24.9767 -1.0782 L 24.9792 -1.01897 L 24.9816 -0.959731 L 24.9838 -0.900486 L 24.9858 -0.841236 L 24.9878 -0.781982 L 24.9896 -0.722723 L 24.9912 -0.66346 L 24.9927 -0.604194 L 24.9941 -0.544924 L 24.9953 -0.48565 L 24.9964 -0.426375 L 24.9973 -0.367096 L 24.9981 -0.307816 L 24.9988 -0.248534 L 24.9993 -0.189251 L 24.9997 -0.129966 L 24.9999 -0.0706809Z"
id="path1" />
</g>
</svg>
