<?xml version="1.0" encoding="UTF-8" standalone="no"?>
<svg version="1.1">
<g
style="fill:none;stroke:#000000;stroke-opacity:1;stroke-width:0.1">
<path d="M 25.1249 0.0847058 L 25.1246 0.143991 L 25.1242 0.203275 L 25.1236 0.262558 L 25.1229 0.32184 L 25.1221 0.38112 L 25.1211 0.440398 L 25.12 0.499673 L 25.1188 0.558946 L 25.1174 0.618215 L 25.1159 0.677481 L 25.1142 0.736743 L 25.1124 0.796001 L 25.1104 0.855255 L 25.1084 0.914504 L 25.1061 0.973748 L 25.1038 1.03299 L 25.1012 1.09222 L 25.0986 1.15145 L 25.0958 1.21067 L 25.0929 1.26988 L 25.0898 1.32909 L 25.0866 1.38828 L 25.0833 1.44748 L 25.0798 1.50666 L 25.0762 1.56583 L 25.0724 1.625 L 25.0685 1.68416 L 25.0644 1.7433 L 25.0033 1.76728 L 24.9422 1.79126 L 24.881 1.81523 L 24.8198 1.8392 L 24.7586 1.86317 L 24.6973 1.88713 L 24.636 1.9111 L 24.5746 1.93506 L 24.5133 1.95901 L 24.4519 1.98297 L 24.3904 2.00692 L 24.329 2.03087 L 24.2674 2.05482 L 24.2059 2.07876 L 24.1443 2.1027 L 24.0827 2.12664 L 24.0211 2.15057 L 23.9594 2.1745 L 23.8977 2.19843 L 23.8359 2.22236 L 23.7741 2.24628 L 23.7123 2.2702 L 23.6504 2.29411 L 23.5885 2.31802 L 23.5266 2.34193 L 23.4646 2.36583 L 23.4026 2.38973 L 23.3405 2.41363 L 23.2784 2.43752 L 23.2163 2.46141 L 23.1541 2.48529 L 23.0919 2.50917 L 23.0297 2.53304 L 22.9674 2.55692 L 22.9051 2.58078 L 22.9051 2.58078 L 22.9605 2.61792 L 23.0159 2.65505 L 23.0713 2.69218 L 23.1266 2.7293 L 23.1819 2.76642 L 23.2372 2.80354 L 23.2924 2.84064 L 23.3476 2.87775 L 23.4027 2.91485 L 23.4578 2.95194 L 23.5129 2.98904 L 23.5679 3.02612 L 23.6229 3.0632 L 23.6779 3.10028 L 23.7328 3.13735 L 23.7877 3.17442 L 23.8425 3.21148 L 23.8974 3.24854 L 23.9521 3.28559 L 24.0069 3.32264 L 24.0616 3.35968 L 24.1163 3.39672 L 24.1709 3.43375 L 24.2255 3.47078 L 24.2801 3.5078 L 24.3346 3.54482 L 24.3891 3.58183 L 24.4436 3.61884 L 24.498 3.65585 L 24.5524 3.69285 L 24.6068 3.72984 L 24.6611 3.76683 L 24.7154 3.80381 L 24.7697 3.84079 L 24.824 3.87777 L 24.8147 3.93633 L 24.8054 3.99488 L 24.7959 4.0534 L 24.7862 4.11189 L 24.7765 4.17037 L 24.7666 4.22882 L 24.7565 4.28725 L 24.7463 4.34565 L 24.736 4.40403 L 24.7255 4.46239 L 24.7149 4.52072 L 24.7042 4.57902 L 24.6933 4.6373 L 24.6823 4.69556 L 24.6712 4.75379 L 24.6599 4.81199 L 24.6485 4.87016 L 24.6369 4.92831 L 24.6252 4.98643 L 24.6134 5.04452 L 24.6014 5.10259 L 24.5893 5.16062 L 24.5771 5.21863 L 24.5647 5.27661 L 24.5522 5.33456 L 24.5395 5.39248 L 24.5267 5.45037 L 24.5138 5.50822 L 24.4761 5.67339 L 24.4626 5.73113 L 24.449 5.78883 L 24.4353 5.84651 L 24.4214 5.90415 L 24.4074 5.96176 L 24.3933 6.01934 L 24.379 6.07688 L 24.3646 6.13439 L 24.3501 6.19186 L 24.3354 6.2493 L 24.3206 6.30671 L 24.3056 6.36408 L 24.2906 6.42141 L 24.2753 6.47871 L 24.26 6.53597 L 24.2445 6.5932 L 24.2289 6.65039 L 24.2131 6.70754 L 24.1972 6.76466 L 24.1812 6.82173 L 24.165 6.87877 L 24.1487 6.93577 L 24.1323 6.99274 L 24.1157 7.04966 L 24.099 7.10655 L 24.0822 7.16339 L 24.0652 7.2202 L 24.0481 7.27696 L 23.9832 7.28674 L 23.9182 7.29651 L 23.8533 7.30626 L 23.7883 7.31601 L 23.7232 7.32575 L 23.6582 7.33548 L 23.5931 7.3452 L 23.5279 7.35491 L 23.4628 7.36461 L 23.3976 7.3743 L 23.3323 7.38398 L 23.2671 7.39365 L 23.2018 7.40331 L 23.1364 7.41296 L 23.0711 7.4226 L 23.0057 7.43223 L 22.9403 7.44184 L 22.8748 7.45145 L 22.8093 7.46104 L 22.7438 7.47063 L 22.6782 7.4802 L 22.6126 7.48976 L 22.547 7.49931 L 22.4813 7.50884 L 22.4156 7.51837 L 22.3499 7.52788 L 22.2841 7.53738 L 22.2183 7.54687 L 22.1524 7.55635 L 22.0865 7.56581 L 22.0206 7.57526 L 21.9546 7.5847 L 21.8886 7.59412 L 21.8226 7.60353 L 21.7565 7.61293 L 21.7565 7.61293 L 21.8023 7.66148 L 21.8481 7.71001 L 21.8938 7.75853 L 21.9395 7.80704 L 21.9851 7.85553 L 22.0308 7.90401 L 22.0763 7.95248 L 22.1219 8.00093 L 22.1674 8.04937 L 22.2128 8.0978 L 22.2583 8.14621 L 22.3037 8.19461 L 22.349 8.243 L 22.3944 8.29138 L 22.4397 8.33974 L 22.4849 8.38809 L 22.5301 8.43643 L 22.5753 8.48475 L 22.6205 8.53306 L 22.6656 8.58136 L 22.7107 8.62965 L 22.7558 8.67792 L 22.8008 8.72619 L 22.8458 8.77444 L 22.8907 8.82268 L 22.9357 8.8709 L 22.9806 8.91911 L 23.0254 8.96732 L 23.0703 9.01551 L 23.1151 9.06368 L 23.1599 9.11185 L 23.2046 9.16 L 23.2493 9.20814 L 23.294 9.25628 L 23.3387 9.30439 L 23.3167 9.35944 L 23.2945 9.41443 L 23.2722 9.46937 L 23.2498 9.52426 L 23.2273 9.57909 L 23.2046 9.63387 L 23.1818 9.6886 L 23.1589 9.74327 L 23.1358 9.79789 L 23.1127 9.85246 L 23.0893 9.90697 L 23.0659 9.96142 L 23.0423 10.0158 L 23.0186 10.0702 L 22.9948 10.1245 L 22.9709 10.1787 L 22.9468 10.2329 L 22.9226 10.287 L 22.8982 10.341 L 22.8738 10.395 L 22.8492 10.449 L 22.8244 10.5029 L 22.7996 10.5567 L 22.7746 10.6105 L 22.7495 10.6642 L 22.7243 10.7178 L 22.6989 10.7714 L 22.6735 10.8249 L 22.6 10.9776 L 22.574 11.0309 L 22.5479 11.0841 L 22.5217 11.1373 L 22.4953 11.1904 L 22.4689 11.2435 L 22.4423 11.2964 L 22.4156 11.3494 L 22.3887 11.4022 L 22.3618 11.455 L 22.3347 11.5078 L 22.3074 11.5604 L 22.2801 11.613 L 22.2526 11.6656 L 22.2251 11.718 L 22.1973 11.7705 L 22.1695 11.8228 L 22.1415 11.8751 L 22.1135 11.9273 L 22.0853 11.9794 L 22.0569 12.0315 L 22.0285 12.0835 L 21.9999 12.1355 L 21.9712 12.1874 L 21.9424 12.2392 L 21.9134 12.2909 L 21.8844 12.3426 L 21.8552 12.3942 L 21.8259 12.4457 L 21.7604 12.4408 L 21.6949 12.4359 L 21.6294 12.4309 L 21.5639 12.426 L 21.4983 12.421 L 21.4327 12.416 L 21.3671 12.411 L 21.3014 12.406 L 21.2357 12.4009 L 21.17 12.3959 L 21.1042 12.3908 L 21.0385 12.3857 L 20.9727 12.3806 L 20.9068 12.3754 L 20.841 12.3703 L 20.7751 12.3651 L 20.7091 12.3599 L 20.6432 12.3547 L 20.5772 12.3495 L 20.5112 12.3443 L 20.4451 12.339 L 20.379 12.3338 L 20.3129 12.3285 L 20.2468 12.3231 L 20.1806 12.3178 L 20.1144 12.3125 L 20.0481 12.3071 L 19.9819 12.3017 L 19.9156 12.2963 L 19.8492 12.2908 L 19.7828 12.2854 L 19.7164 12.2799 L 19.65 12.2744 L 19.5835 12.2689 L 19.517 12.2633 L 19.517 12.2633 L 19.5508 12.3209 L 19.5847 12.3784 L 19.6184 12.4358 L 19.6522 12.4933 L 19.6859 12.5507 L 19.7196 12.6081 L 19.7532 12.6655 L 19.7869 12.7229 L 19.8204 12.7803 L 19.854 12.8376 L 19.8875 12.8949 L 19.921 12.9522 L 19.9545 13.0095 L 19.9879 13.0667 L 20.0213 13.1239 L 20.0546 13.1811 L 20.088 13.2383 L 20.1213 13.2955 L 20.1546 13.3527 L 20.1878 13.4098 L 20.221 13.4669 L 20.2542 13.524 L 20.2874 13.5811 L 20.3205 13.6381 L 20.3536 13.6951 L 20.3867 13.7522 L 20.4197 13.8092 L 20.4527 13.8661 L 20.4857 13.9231 L 20.5187 13.98 L 20.5516 14.037 L 20.5845 14.0939 L 20.6174 14.1507 L 20.6503 14.2076 L 20.6831 14.2645 L 20.6494 14.3132 L 20.6156 14.3619 L 20.5816 14.4105 L 20.5476 14.459 L 20.5134 14.5075 L 20.4791 14.5558 L 20.4447 14.6041 L 20.4102 14.6523 L 20.3755 14.7004 L 20.3408 14.7485 L 20.3059 14.7964 L 20.271 14.8443 L 20.2359 14.8921 L 20.2007 14.9398 L 20.1654 14.9874 L 20.13 15.035 L 20.0944 15.0824 L 20.0588 15.1298 L 20.023 15.1771 L 19.9872 15.2243 L 19.9512 15.2714 L 19.9151 15.3185 L 19.8789 15.3654 L 19.8426 15.4123 L 19.8061 15.459 L 19.7696 15.5057 L 19.733 15.5523 L 19.6962 15.5989 L 19.5906 15.7313 L 19.5534 15.7775 L 19.5161 15.8236 L 19.4787 15.8696 L 19.4412 15.9155 L 19.4036 15.9614 L 19.3659 16.0071 L 19.3281 16.0527 L 19.2902 16.0983 L 19.2521 16.1438 L 19.214 16.1892 L 19.1757 16.2345 L 19.1374 16.2797 L 19.0989 16.3248 L 19.0603 16.3698 L 19.0216 16.4147 L 18.9829 16.4596 L 18.944 16.5043 L 18.905 16.549 L 18.8659 16.5935 L 18.8267 16.638 L 18.7873 16.6824 L 18.7479 16.7267 L 18.7084 16.7708 L 18.6688 16.8149 L 18.6291 16.8589 L 18.5892 16.9029 L 18.5493 16.9467 L 18.5092 16.9904 L 18.4465 16.971 L 18.3838 16.9517 L 18.321 16.9323 L 18.2582 16.9128 L 18.1954 16.8934 L 18.1325 16.8739 L 18.0696 16.8544 L 18.0067 16.8349 L 17.9438 16.8154 L 17.8809 16.7958 L 17.8179 16.7763 L 17.7549 16.7567 L 17.6919 16.737 L 17.6289 16.7174 L 17.5658 16.6977 L 17.5027 16.678 L 17.4396 16.6583 L 17.3764 16.6385 L 17.3132 16.6188 L 17.25 16.599 L 17.1868 16.5791 L 17.1236 16.5593 L 17.0603 16.5394 L 16.997 16.5195 L 16.9337 16.4996 L 16.8703 16.4796 L 16.8069 16.4596 L 16.7435 16.4396 L 16.6801 16.4196 L 16.6166 16.3995 L 16.5531 16.3795 L 16.4896 16.3593 L 16.426 16.3392 L 16.3624 16.319 L 16.2988 16.2988 L 16.2988 16.2988 L 16.319 16.3624 L 16.3392 16.426 L 16.3593 16.4896 L 16.3795 16.5531 L 16.3995 16.6166 L 16.4196 16.6801 L 16.4396 16.7435 L 16.4596 16.8069 L 16.4796 16.8703 L 16.4996 16.9337 L 16.5195 16.997 L 16.5394 17.0603 L 16.5593 17.1236 L 16.5791 17.1868 L 16.599 17.25 L 16.6188 17.3132 L 16.6385 17.3764 L 16.6583 17.4396 L 16.678 17.5027 L 16.6977 17.5658 L 16.7174 17.6289 L 16.737 17.6919 L 16.7567 17.7549 L 16.7763 17.8179 L 16.7958 17.8809 L 16.8154 17.9438 L 16.8349 18.0067 L 16.8544 18.0696 L 16.8739 18.1325 L 16.8934 18.1954 L 16.9128 18.2582 L 16.9323 18.321 L 16.9517 18.3838 L 16.971 18.4465 L 16.9904 18.5092 L 16.9467 18.5493 L 16.9029 18.5892 L 16.8589 18.6291 L 16.8149 18.6688 L 16.7708 18.7084 L 16.7267 18.7479 L 16.6824 18.7873 L 16.638 18.8267 L 16.5935 18.8659 L 16.549 18.905 L 16.5043 18.944 L 16.4596 18.9829 L 16.4147 19.0216 L 16.3698 19.0603 L 16.3248 19.0989 L 16.2797 19.1374 L 16.2345 19.1757 L 16.1892 19.214 L 16.1438 19.2521 L 16.0983 19.2902 L 16.0527 19.3281 L 16.0071 19.3659 L 15.9614 19.4036 L 15.9155 19.4412 L 15.8696 19.4787 L 15.8236 19.5161 L 15.7775 19.5534 L 15.7313 19.5906 L 15.5989 19.6962 L 15.5523 19.733 L 15.5057 19.7696 L 15.459 19.8061 L 15.4123 19.8426 L 15.3654 19.8789 L 15.3185 19.9151 L 15.2714 19.9512 L 15.2243 19.9872 L 15.1771 20.023 L 15.1298 20.0588 L 15.0824 20.0944 L 15.035 20.13 L 14.9874 20.1654 L 14.9398 20.2007 L 14.8921 20.2359 L 14.8443 20.271 L 14.7964 20.3059 L 14.7485 20.3408 L 14.7004 20.3755 L 14.6523 20.4102 L 14.6041 20.4447 L 14.5558 20.4791 L 14.5075 20.5134 L 14.459 20.5476 L 14.4105 20.5816 L 14.3619 20.6156 L 14.3132 20.6494 L 14.2645 20.6831 L 14.2076 20.6503 L 14.1507 20.6174 L 14.0939 20.5845 L 14.037 20.5516 L 13.98 20.5187 L 13.9231 20.4857 L 13.8661 20.4527 L 13.8092 20.4197 L 13.7522 20.3867 L 13.6951 20.3536 L 13.6381 20.3205 L 13.5811 20.2874 L 13.524 20.2542 L 13.4669 20.221 L 13.4098 20.1878 L 13.3527 20.1546 L 13.2955 20.1213 L 13.2383 20.088 L 13.1811 20.0546 L 13.1239 20.0213 L 13.0667 19.9879 L 13.0095 19.9545 L 12.9522 19.921 L 12.8949 19.8875 L 12.8376 19.854 L 12.7803 19.8204 L 12.7229 19.7869 L 12.6655 19.7532 L 12.6081 19.7196 L 12.5507 19.6859 L 12.4933 19.6522 L 12.4358 19.6184 L 12.3784 19.5847 L 12.3209 19.5508 L 12.2633 19.517 L 12.2633 19.517 L 12.2689 19.5835 L 12.2744 19.65 L 12.2799 19.7164 L 12.2854 19.7828 L 12.2908 19.8492 L 12.2963 19.9156 L 12.3017 19.9819 L 12.3071 20.0481 L 12.3125 20.1144 L 12.3178 20.1806 L 12.3231 20.2468 L 12.3285 20.3129 L 12.3338 20.379 L 12.339 20.4451 L 12.3443 20.5112 L 12.3495 20.5772 L 12.3547 20.6432 L 12.3599 20.7091 L 12.3651 20.7751 L 12.3703 20.841 L 12.3754 20.9068 L 12.3806 20.9727 L 12.3857 21.0385 L 12.3908 21.1042 L 12.3959 21.17 L 12.4009 21.2357 L 12.406 21.3014 L 12.411 21.3671 L 12.416 21.4327 L 12.421 21.4983 L 12.426 21.5639 L 12.4309 21.6294 L 12.4359 21.6949 L 12.4408 21.7604 L 12.4457 21.8259 L 12.3942 21.8552 L 12.3426 21.8844 L 12.2909 21.9134 L 12.2392 21.9424 L 12.1874 21.9712 L 12.1355 21.9999 L 12.0835 22.0285 L 12.0315 22.0569 L 11.9794 22.0853 L 11.9273 22.1135 L 11.8751 22.1415 L 11.8228 22.1695 L 11.7705 22.1973 L 11.718 22.2251 L 11.6656 22.2526 L 11.613 22.2801 L 11.5604 22.3074 L 11.5078 22.3347 L 11.455 22.3618 L 11.4022 22.3887 L 11.3494 22.4156 L 11.2964 22.4423 L 11.2435 22.4689 L 11.1904 22.4953 L 11.1373 22.5217 L 11.0841 22.5479 L 11.0309 22.574 L 10.9776 22.6 L 10.8249 22.6735 L 10.7714 22.6989 L 10.7178 22.7243 L 10.6642 22.7495 L 10.6105 22.7746 L 10.5567 22.7996 L 10.5029 22.8244 L 10.449 22.8492 L 10.395 22.8738 L 10.341 22.8982 L 10.287 22.9226 L 10.2329 22.9468 L 10.1787 22.9709 L 10.1245 22.9948 L 10.0702 23.0186 L 10.0158 23.0423 L 9.96142 23.0659 L 9.90697 23.0893 L 9.85246 23.1127 L 9.79789 23.1358 L 9.74327 23.1589 L 9.6886 23.1818 L 9.63387 23.2046 L 9.57909 23.2273 L 9.52426 23.2498 L 9.46937 23.2722 L 9.41443 23.2945 L 9.35944 23.3167 L 9.30439 23.3387 L 9.25628 23.294 L 9.20814 23.2493 L 9.16 23.2046 L 9.11185 23.1599 L 9.06368 23.1151 L 9.01551 23.0703 L 8.96732 23.0254 L 8.91911 22.9806 L 8.8709 22.9357 L 8.82268 22.8907 L 8.77444 22.8458 L 8.72619 22.8008 L 8.67792 22.7558 L 8.62965 22.7107 L 8.58136 22.6656 L 8.53306 22.6205 L 8.48475 22.5753 L 8.43643 22.5301 L 8.38809 22.4849 L 8.33974 22.4397 L 8.29138 22.3944 L 8.243 22.349 L 8.19461 22.3037 L 8.14621 22.2583 L 8.0978 22.2128 L 8.04937 22.1674 L 8.00093 22.1219 L 7.95248 22.0763 L 7.90401 22.0308 L 7.85553 21.9851 L 7.80704 21.9395 L 7.75853 21.8938 L 7.71001 21.8481 L 7.66148 21.8023 L 7.61293 21.7565 L 7.61293 21.7565 L 7.60353 21.8226 L 7.59412 21.8886 L 7.5847 21.9546 L 7.57526 22.0206 L 7.56581 22.0865 L 7.55635 22.1524 L 7.54687 22.2183 L 7.53738 22.2841 L 7.52788 22.3499 L 7.51837 22.4156 L 7.50884 22.4813 L 7.49931 22.547 L 7.48976 22.6126 L 7.4802 22.6782 L 7.47063 22.7438 L 7.46104 22.8093 L 7.45145 22.8748 L 7.44184 22.9403 L 7.43223 23.0057 L 7.4226 23.0711 L 7.41296 23.1364 L 7.40331 23.2018 L 7.39365 23.2671 L 7.38398 23.3323 L 7.3743 23.3976 L 7.36461 23.4628 L 7.35491 23.5279 L 7.3452 23.5931 L 7.33548 23.6582 L 7.32575 23.7232 L 7.31601 23.7883 L 7.30626 23.8533 L 7.29651 23.9182 L 7.28674 23.9832 L 7.27696 24.0481 L 7.2202 24.0652 L 7.16339 24.0822 L 7.10655 24.099 L 7.04966 24.1157 L 6.99274 24.1323 L 6.93577 24.1487 L 6.87877 24.165 L 6.82173 24.1812 L 6.76466 24.1972 L 6.70754 24.2131 L 6.65039 24.2289 L 6.5932 24.2445 L 6.53597 24.26 L 6.47871 24.2753 L 6.42141 24.2906 L 6.36408 24.3056 L 6.30671 24.3206 L 6.2493 24.3354 L 6.19186 24.3501 L 6.13439 24.3646 L 6.07688 24.379 L 6.01934 24.3933 L 5.96176 24.4074 L 5.90415 24.4214 L 5.84651 24.4353 L 5.78883 24.449 L 5.73113 24.4626 L 5.67339 24.4761 L 5.50822 24.5138 L 5.45037 24.5267 L 5.39248 24.5395 L 5.33456 24.5522 L 5.27661 24.5647 L 5.21863 24.5771 L 5.16062 24.5893 L 5.10259 24.6014 L 5.04452 24.6134 L 4.98643 24.6252 L 4.92831 24.6369 L 4.87016 24.6485 L 4.81199 24.6599 L 4.75379 24.6712 L 4.69556 24.6823 L 4.6373 24.6933 L 4.57902 24.7042 L 4.52072 24.7149 L 4.46239 24.7255 L 4.40403 24.736 L 4.34565 24.7463 L 4.28725 24.7565 L 4.22882 24.7666 L 4.17037 24.7765 L 4.11189 24.7862 L 4.0534 24.7959 L 3.99488 24.8054 L 3.93633 24.8147 L 3.87777 24.824 L 3.84079 24.7697 L 3.80381 24.7154 L 3.76683 24.6611 L 3.72984 24.6068 L 3.69285 24.5524 L 3.65585 24.498 L 3.61884 24.4436 L 3.58183 24.3891 L 3.54482 24.3346 L 3.5078 24.2801 L 3.47078 24.2255 L 3.43375 24.1709 L 3.39672 24.1163 L 3.35968 24.0616 L 3.32264 24.0069 L 3.28559 23.9521 L 3.24854 23.8974 L 3.21148 23.8425 L 3.17442 23.7877 L 3.13735 23.7328 L 3.10028 23.6779 L 3.0632 23.6229 L 3.02612 23.5679 L 2.98904 23.5129 L 2.95194 23.4578 L 2.91485 23.4027 L 2.87775 23.3476 L 2.84064 23.2924 L 2.80354 23.2372 L 2.76642 23.1819 L 2.7293 23.1266 L 2.69218 23.0713 L 2.65505 23.0159 L 2.61792 22.9605 L 2.58078 22.9051 L 2.58078 22.9051 L 2.55692 22.9674 L 2.53304 23.0297 L 2.50917 23.0919 L 2.48529 23.1541 L 2.46141 23.2163 L 2.43752 23.2784 L 2.41363 23.3405 L 2.38973 23.4026 L 2.36583 23.4646 L 2.34193 23.5266 L 2.31802 23.5885 L 2.29411 23.6504 L 2.2702 23.7123 L 2.24628 23.7741 L 2.22236 23.8359 L 2.19843 23.8977 L 2.1745 23.9594 L 2.15057 24.0211 L 2.12664 24.0827 L 2.1027 24.1443 L 2.07876 24.2059 L 2.05482 24.2674 L 2.03087 24.329 L 2.00692 24.3904 L 1.98297 24.4519 L 1.95901 24.5133 L 1.93506 24.5746 L 1.9111 24.636 L 1.88713 24.6973 L 1.86317 24.7586 L 1.8392 24.8198 L 1.81523 24.881 L 1.79126 24.9422 L 1.76728 25.0033 L 1.7433 25.0644 L 1.68416 25.0685 L 1.625 25.0724 L 1.56583 25.0762 L 1.50666 25.0798 L 1.44748 25.0833 L 1.38828 25.0866 L 1.32909 25.0898 L 1.26988 25.0929 L 1.21067 25.0958 L 1.15145 25.0986 L 1.09222 25.1012 L 1.03299 25.1038 L 0.973748 25.1061 L 0.914504 25.1084 L 0.855255 25.1104 L 0.796001 25.1124 L 0.736743 25.1142 L 0.677481 25.1159 L 0.618215 25.1174 L 0.558946 25.1188 L 0.499673 25.12 L 0.440398 25.1211 L 0.38112 25.1221 L 0.32184 25.1229 L 0.262558 25.1236 L 0.203275 25.1242 L 0.143991 25.1246 L 0.0847058 25.1249 L -0.0847058 25.1249 L -0.143991 25.1246 L -0.203275 25.1242 L -0.262558 25.1236 L -0.32184 25.1229 L -0.38112 25.1221 L -0.440398 25.1211 L -0.499673 25.12 L -0.558946 25.1188 L -0.618215 25.1174 L -0.677481 25.1159 L -0.736743 25.1142 L -0.796001 25.1124 L -0.855255 25.1104 L -0.914504 25.1084 L -0.973748 25.1061 L -1.03299 25.1038 L -1.09222 25.1012 L -1.15145 25.0986 L -1.21067 25.0958 L -1.26988 25.0929 L -1.32909 25.0898 L -1.38828 25.0866 L -1.44748 25.0833 L -1.50666 25.0798 L -1.56583 25.0762 L -1.625 25.0724 L -1.68416 25.0685 L -1.7433 25.0644 L -1.76728 25.0033 L -1.79126 24.9422 L -1.81523 24.881 L -1.8392 24.8198 L -1.86317 24.7586 L -1.88713 24.6973 L -1.9111 24.636 L -1.93506 24.5746 L -1.95901 24.5133 L -1.98297 24.4519 L -2.00692 24.3904 L -2.03087 24.329 L -2.05482 24.2674 L -2.07876 24.2059 L -2.1027 24.1443 L -2.12664 24.0827 L -2.15057 24.0211 L -2.1745 23.9594 L -2.19843 23.8977 L -2.22236 23.8359 L -2.24628 23.7741 L -2.2702 23.7123 L -2.29411 23.6504 L -2.31802 23.5885 L -2.34193 23.5266 L -2.36583 23.4646 L -2.38973 23.4026 L -2.41363 23.3405 L -2.43752 23.2784 L -2.46141 23.2163 L -2.48529 23.1541 L -2.50917 23.0919 L -2.53304 23.0297 L -2.55692 22.9674 L -2.58078 22.9051 L -2.58078 22.9051 L -2.61792 22.9605 L -2.65505 23.0159 L -2.69218 23.0713 L -2.7293 23.1266 L -2.76642 23.1819 L -2.80354 23.2372 L -2.84064 23.2924 L -2.87775 23.3476 L -2.91485 23.4027 L -2.95194 23.4578 L -2.98904 23.5129 L -3.02612 23.5679 L -3.0632 23.6229 L -3.10028 23.6779 L -3.13735 23.7328 L -3.17442 23.7877 L -3.21148 23.8425 L -3.24854 23.8974 L -3.28559 23.9521 L -3.32264 24.0069 L -3.35968 24.0616 L -3.39672 24.1163 L -3.43375 24.1709 L -3.47078 24.2255 L -3.5078 24.2801 L -3.54482 24.3346 L -3.58183 24.3891 L -3.61884 24.4436 L -3.65585 24.498 L -3.69285 24.5524 L -3.72984 24.6068 L -3.76683 24.6611 L -3.80381 24.7154 L -3.84079 24.7697 L -3.87777 24.824 L -3.93633 24.8147 L -3.99488 24.8054 L -4.0534 24.7959 L -4.11189 24.7862 L -4.17037 24.7765 L -4.22882 24.7666 L -4.28725 24.7565 L -4.34565 24.7463 L -4.40403 24.736 L -4.46239 24.7255 L -4.52072 24.7149 L -4.57902 24.7042 L -4.6373 24.6933 L -4.69556 24.6823 L -4.75379 24.6712 L -4.81199 24.6599 L -4.87016 24.6485 L -4.92831 24.6369 L -4.98643 24.6252 L -5.04452 24.6134 L -5.10259 24.6014 L -5.16062 24.5893 L -5.21863 24.5771 L -5.27661 24.5647 L -5.33456 24.5522 L -5.39248 24.5395 L -5.45037 24.5267 L -5.50822 24.5138 L -5.67339 24.4761 L -5.73113 24.4626 L -5.78883 24.449 L -5.84651 24.4353 L -5.90415 24.4214 L -5.96176 24.4074 L -6.01934 24.3933 L -6.07688 24.379 L -6.13439 24.3646 L -6.19186 24.3501 L -6.2493 24.3354 L -6.30671 24.3206 L -6.36408 24.3056 L -6.42141 24.2906 L -6.47871 24.2753 L -6.53597 24.26 L -6.5932 24.2445 L -6.65039 24.2289 L -6.70754 24.2131 L -6.76466 24.1972 L -6.82173 24.1812 L -6.87877 24.165 L -6.93577 24.1487 L -6.99274 24.1323 L -7.04966 24.1157 L -7.10655 24.099 L -7.16339 24.0822 L -7.2202 24.0652 L -7.27696 24.0481 L -7.28674 23.9832 L -7.29651 23.9182 L -7.30626 23.8533 L -7.31601 23.7883 L -7.32575 23.7232 L -7.33548 23.6582 L -7.3452 23.5931 L -7.35491 23.5279 L -7.36461 23.4628 L -7.3743 23.3976 L -7.38398 23.3323 L -7.39365 23.2671 L -7.40331 23.2018 L -7.41296 23.1364 L -7.4226 23.0711 L -7.43223 23.0057 L -7.44184 22.9403 L -7.45145 22.8748 L -7.46104 22.8093 L -7.47063 22.7438 L -7.4802 22.6782 L -7.48976 22.6126 L -7.49931 22.547 L -7.50884 22.4813 L -7.51837 22.4156 L -7.52788 22.3499 L -7.53738 22.2841 L -7.54687 22.2183 L -7.55635 22.1524 L -7.56581 22.0865 L -7.57526 22.0206 L -7.5847 21.9546 L -7.59412 21.8886 L -7.60353 21.8226 L -7.61293 21.7565 L -7.61293 21.7565 L -7.66148 21.8023 L -7.71001 21.8481 L -7.75853 21.8938 L -7.80704 21.9395 L -7.85553 21.9851 L -7.90401 22.0308 L -7.95248 22.0763 L -8.00093 22.1219 L -8.04937 22.1674 L -8.0978 22.2128 L -8.14621 22.2583 L -8.19461 22.3037 L -8.243 22.349 L -8.29138 22.3944 L -8.33974 22.4397 L -8.38809 22.4849 L -8.43643 22.5301 L -8.48475 22.5753 L -8.53306 22.6205 L -8.58136 22.6656 L -8.62965 22.7107 L -8.67792 22.7558 L -8.72619 22.8008 L -8.77444 22.8458 L -8.82268 22.8907 L -8.8709 22.9357 L -8.91911 22.9806 L -8.96732 23.0254 L -9.01551 23.0703 L -9.06368 23.1151 L -9.11185 23.1599 L -9.16 23.2046 L -9.20814 23.2493 L -9.25628 23.294 L -9.30439 23.3387 L -9.35944 23.3167 L -9.41443 23.2945 L -9.46937 23.2722 L -9.52426 23.2498 L -9.57909 23.2273 L -9.63387 23.2046 L -9.6886 23.1818 L -9.74327 23.1589 L -9.79789 23.1358 L -9.85246 23.1127 L -9.90697 23.0893 L -9.96142 23.0659 L -10.0158 23.0423 L -10.0702 23.0186 L -10.1245 22.9948 L -10.1787 22.9709 L -10.2329 22.9468 L -10.287 22.9226 L -10.341 22.8982 L -10.395 22.8738 L -10.449 22.8492 L -10.5029 22.8244 L -10.5567 22.7996 L -10.6105 22.7746 L -10.6642 22.7495 L -10.7178 22.7243 L -10.7714 22.6989 L -10.8249 22.6735 L -10.9776 22.6 L -11.0309 22.574 L -11.0841 22.5479 L -11.1373 22.5217 L -11.1904 22.4953 L -11.2435 22.4689 L -11.2964 22.4423 L -11.3494 22.4156 L -11.4022 22.3887 L -11.455 22.3618 L -11.5078 22.3347 L -11.5604 22.3074 L -11.613 22.2801 L -11.6656 22.2526 L -11.718 22.2251 L -11.7705 22.1973 L -11.8228 22.1695 L -11.8751 22.1415 L -11.9273 22.1135 L -11.9794 22.0853 L -12.0315 22.0569 L -12.0835 22.0285 L -12.1355 21.9999 L -12.1874 21.9712 L -12.2392 21.9424 L -12.2909 21.9134 L -12.3426 21.8844 L -12.3942 21.8552 L -12.4457 21.8259 L -12.4408 21.7604 L -12.4359 21.6949 L -12.4309 21.6294 L -12.426 21.5639 L -12.421 21.4983 L -12.416 21.4327 L -12.411 21.3671 L -12.406 21.3014 L -12.4009 21.2357 L -12.3959 21.17 L -12.3908 21.1042 L -12.3857 21.0385 L -12.3806 20.9727 L -12.3754 20.9068 L -12.3703 20.841 L -12.3651 20.7751 L -12.3599 20.7091 L -12.3547 20.6432 L -12.3495 20.5772 L -12.3443 20.5112 L -12.339 20.4451 L -12.3338 20.379 L -12.3285 20.3129 L -12.3231 20.2468 L -12.3178 20.1806 L -12.3125 20.1144 L -12.3071 20.0481 L -12.3017 19.9819 L -12.2963 19.9156 L -12.2908 19.8492 L -12.2854 19.7828 L -12.2799 19.7164 L -12.2744 19.65 L -12.2689 19.5835 L -12.2633 19.517 L -12.2633 19.517 L -12.3209 19.5508 L -12.3784 19.5847 L -12.4358 19.6184 L -12.4933 19.6522 L -12.5507 19.6859 L -12.6081 19.7196 L -12.6655 19.7532 L -12.7229 19.7869 L -12.7803 19.8204 L -12.8376 19.854 L -12.8949 19.8875 L -12.9522 19.921 L -13.0095 19.9545 L -13.0667 19.9879 L -13.1239 20.0213 L -13.1811 20.0546 L -13.2383 20.088 L -13.2955 20.1213 L -13.3527 20.1546 L -13.4098 20.1878 L -13.4669 20.221 L -13.524 20.2542 L -13.5811 20.2874 L -13.6381 20.3205 L -13.6951 20.3536 L -13.7522 20.3867 L -13.8092 20.4197 L -13.8661 20.4527 L -13.9231 20.4857 L -13.98 20.5187 L -14.037 20.5516 L -14.0939 20.5845 L -14.1507 20.6174 L -14.2076 20.6503 L -14.2645 20.6831 L -14.3132 20.6494 L -14.3619 20.6156 L -14.4105 20.5816 L -14.459 20.5476 L -14.5075 20.5134 L -14.5558 20.4791 L -14.6041 20.4447 L -14.6523 20.4102 L -14.7004 20.3755 L -14.7485 20.3408 L -14.7964 20.3059 L -14.8443 20.271 L -14.8921 20.2359 L -14.9398 20.2007 L -14.9874 20.1654 L -15.035 20.13 L -15.0824 20.0944 L -15.1298 20.0588 L -15.1771 20.023 L -15.2243 19.9872 L -15.2714 19.9512 L -15.3185 19.9151 L -15.3654 19.8789 L -15.4123 19.8426 L -15.459 19.8061 L -15.5057 19.7696 L -15.5523 19.733 L -15.5989 19.6962 L -15.7313 19.5906 L -15.7775 19.5534 L -15.8236 19.5161 L -15.8696 19.4787 L -15.9155 19.4412 L -15.9614 19.4036 L -16.0071 19.3659 L -16.0527 19.3281 L -16.0983 19.2902 L -16.1438 19.2521 L -16.1892 19.214 L -16.2345 19.1757 L -16.2797 19.1374 L -16.3248 19.0989 L -16.3698 19.0603 L -16.4147 19.0216 L -16.4596 18.9829 L -16.5043 18.944 L -16.549 18.905 L -16.5935 18.8659 L -16.638 18.8267 L -16.6824 18.7873 L -16.7267 18.7479 L -16.7708 18.7084 L -16.8149 18.6688 L -16.8589 18.6291 L -16.9029 18.5892 L -16.9467 18.5493 L -16.9904 18.5092 L -16.971 18.4465 L -16.9517 18.3838 L -16.9323 18.321 L -16.9128 18.2582 L -16.8934 18.1954 L -16.8739 18.1325 L -16.8544 18.0696 L -16.8349 18.0067 L -16.8154 17.9438 L -16.7958 17.8809 L -16.7763 17.8179 L -16.7567 17.7549 L -16.737 17.6919 L -16.7174 17.6289 L -16.6977 17.5658 L -16.678 17.5027 L -16.6583 17.4396 L -16.6385 17.3764 L -16.6188 17.3132 L -16.599 17.25 L -16.5791 17.1868 L -16.5593 17.1236 L -16.5394 17.0603 L -16.5195 16.997 L -16.4996 16.9337 L -16.4796 16.8703 L -16.4596 16.8069 L -16.4396 16.7435 L -16.4196 16.6801 L -16.3995 16.6166 L -16.3795 16.5531 L -16.3593 16.4896 L -16.3392 16.426 L -16.319 16.3624 L -16.2988 16.2988 L -16.2988 16.2988 L -16.3624 16.319 L -16.426 16.3392 L -16.4896 16.3593 L -16.5531 16.3795 L -16.6166 16.3995 L -16.6801 16.4196 L -16.7435 16.4396 L -16.8069 16.4596 L -16.8703 16.4796 L -16.9337 16.4996 L -16.997 16.5195 L -17.0603 16.5394 L -17.1236 16.5593 L -17.1868 16.5791 L -17.25 16.599 L -17.3132 16.6188 L -17.3764 16.6385 L -17.4396 16.6583 L -17.5027 16.678 L -17.5658 16.6977 L -17.6289 16.7174 L -17.6919 16.737 L -17.7549 16.7567 L -17.8179 16.7763 L -17.8809 16.7958 L -17.9438 16.8154 L -18.0067 16.8349 L -18.0696 16.8544 L -18.1325 16.8739 L -18.1954 16.8934 L -18.2582 16.9128 L -18.321 16.9323 L -18.3838 16.9517 L -18.4465 16.971 L -18.5092 16.9904 L -18.5493 16.9467 L -18.5892 16.9029 L -18.6291 16.8589 L -18.6688 16.8149 L -18.7084 16.7708 L -18.7479 16.7267 L -18.7873 16.6824 L -18.8267 16.638 L -18.8659 16.5935 L -18.905 16.549 L -18.944 16.5043 L -18.9829 16.4596 L -19.0216 16.4147 L -19.0603 16.3698 L -19.0989 16.3248 L -19.1374 16.2797 L -19.1757 16.2345 L -19.214 16.1892 L -19.2521 16.1438 L -19.2902 16.0983 L -19.3281 16.0527 L -19.3659 16.0071 L -19.4036 15.9614 L -19.4412 15.9155 L -19.4787 15.8696 L -19.5161 15.8236 L -19.5534 15.7775 L -19.5906 15.7313 L -19.6962 15.5989 L -19.733 15.5523 L -19.7696 15.5057 L -19.8061 15.459 L -19.8426 15.4123 L -19.8789 15.3654 L -19.9151 15.3185 L -19.9512 15.2714 L -19.9872 15.2243 L -20.023 15.1771 L -20.0588 15.1298 L -20.0944 15.0824 L -20.13 15.035 L -20.1654 14.9874 L -20.2007 14.9398 L -20.2359 14.8921 L -20.271 14.8443 L -20.3059 14.7964 L -20.3408 14.7485 L -20.3755 14.7004 L -20.4102 14.6523 L -20.4447 14.6041 L -20.4791 14.5558 L -20.5134 14.5075 L -20.5476 14.459 L -20.5816 14.4105 L -20.6156 14.3619 L -20.6494 14.3132 L -20.6831 14.2645 L -20.6503 14.2076 L -20.6174 14.1507 L -20.5845 14.0939 L -20.5516 14.037 L -20.5187 13.98 L -20.4857 13.9231 L -20.4527 13.8661 L -20.4197 13.8092 L -20.3867 13.7522 L -20.3536 13.6951 L -20.3205 13.6381 L -20.2874 13.5811 L -20.2542 13.524 L -20.221 13.4669 L -20.1878 13.4098 L -20.1546 13.3527 L -20.1213 13.2955 L -20.088 13.2383 L -20.0546 13.1811 L -20.0213 13.1239 L -19.9879 13.0667 L -19.9545 13.0095 L -19.921 12.9522 L -19.8875 12.8949 L -19.854 12.8376 L -19.8204 12.7803 L -19.7869 12.7229 L -19.7532 12.6655 L -19.7196 12.6081 L -19.6859 12.5507 L -19.6522 12.4933 L -19.6184 12.4358 L -19.5847 12.3784 L -19.5508 12.3209 L -19.517 12.2633 L -19.517 12.2633 L -19.5835 12.2689 L -19.65 12.2744 L -19.7164 12.2799 L -19.7828 12.2854 L -19.8492 12.2908 L -19.9156 12.2963 L -19.9819 12.3017 L -20.0481 12.3071 L -20.1144 12.3125 L -20.1806 12.3178 L -20.2468 12.3231 L -20.3129 12.3285 L -20.379 12.3338 L -20.4451 12.339 L -20.5112 12.3443 L -20.5772 12.3495 L -20.6432 12.3547 L -20.7091 12.3599 L -20.7751 12.3651 L -20.841 12.3703 L -20.9068 12.3754 L -20.9727 12.3806 L -21.0385 12.3857 L -21.1042 12.3908 L -21.17 12.3959 L -21.2357 12.4009 L -21.3014 12.406 L -21.3671 12.411 L -21.4327 12.416 L -21.4983 12.421 L -21.5639 12.426 L -21.6294 12.4309 L -21.6949 12.4359 L -21.7604 12.4408 L -21.8259 12.4457 L -21.8552 12.3942 L -21.8844 12.3426 L -21.9134 12.2909 L -21.9424 12.2392 L -21.9712 12.1874 L -21.9999 12.1355 L -22.0285 12.0835 L -22.0569 12.0315 L -22.0853 11.9794 L -22.1135 11.9273 L -22.1415 11.8751 L -22.1695 11.8228 L -22.1973 11.7705 L -22.2251 11.718 L -22.2526 11.6656 L -22.2801 11.613 L -22.3074 11.5604 L -22.3347 11.5078 L -22.3618 11.455 L -22.3887 11.4022 L -22.4156 11.3494 L -22.4423 11.2964 L -22.4689 11.2435 L -22.4953 11.1904 L -22.5217 11.1373 L -22.5479 11.0841 L -22.574 11.0309 L -22.6 10.9776 L -22.6735 10.8249 L -22.6989 10.7714 L -22.7243 10.7178 L -22.7495 10.6642 L -22.7746 10.6105 L -22.7996 10.5567 L -22.8244 10.5029 L -22.8492 10.449 L -22.8738 10.395 L -22.8982 10.341 L -22.9226 10.287 L -22.9468 10.2329 L -22.9709 10.1787 L -22.9948 10.1245 L -23.0186 10.0702 L -23.0423 10.0158 L -23.0659 9.96142 L -23.0893 9.90697 L -23.1127 9.85246 L -23.1358 9.79789 L -23.1589 9.74327 L -23.1818 9.6886 L -23.2046 9.63387 L -23.2273 9.57909 L -23.2498 9.52426 L -23.2722 9.46937 L -23.2945 9.41443 L -23.3167 9.35944 L -23.3387 9.30439 L -23.294 9.25628 L -23.2493 9.20814 L -23.2046 9.16 L -23.1599 9.11185 L -23.1151 9.06368 L -23.0703 9.01551 L -23.0254 8.96732 L -22.9806 8.91911 L -22.9357 8.8709 L -22.8907 8.82268 L -22.8458 8.77444 L -22.8008 8.72619 L -22.7558 8.67792 L -22.7107 8.62965 L -22.6656 8.58136 L -22.6205 8.53306 L -22.5753 8.48475 L -22.5301 8.43643 L -22.4849 8.38809 L -22.4397 8.33974 L -22.3944 8.29138 L -22.349 8.243 L -22.3037 8.19461 L -22.2583 8.14621 L -22.2128 8.0978 L -22.1674 8.04937 L -22.1219 8.00093 L -22.0763 7.95248 L -22.0308 7.90401 L -21.9851 7.85553 L -21.9395 7.80704 L -21.8938 7.75853 L -21.8481 7.71001 L -21.8023 7.66148 L -21.7565 7.61293 L -21.7565 7.61293 L -21.8226 7.60353 L -21.8886 7.59412 L -21.9546 7.5847 L -22.0206 7.57526 L -22.0865 7.56581 L -22.1524 7.55635 L -22.2183 7.54687 L -22.2841 7.53738 L -22.3499 7.52788 L -22.4156 7.51837 L -22.4813 7.50884 L -22.547 7.49931 L -22.6126 7.48976 L -22.6782 7.4802 L -22.7438 7.47063 L -22.8093 7.46104 L -22.8748 7.45145 L -22.9403 7.44184 L -23.0057 7.43223 L -23.0711 7.4226 L -23.1364 7.41296 L -23.2018 7.40331 L -23.2671 7.39365 L -23.3323 7.38398 L -23.3976 7.3743 L -23.4628 7.36461 L -23.5279 7.35491 L -23.5931 7.3452 L -23.6582 7.33548 L -23.7232 7.32575 L -23.7883 7.31601 L -23.8533 7.30626 L -23.9182 7.29651 L -23.9832 7.28674 L -24.0481 7.27696 L -24.0652 7.2202 L -24.0822 7.16339 L -24.099 7.10655 L -24.1157 7.04966 L -24.1323 6.99274 L -24.1487 6.93577 L -24.165 6.87877 L -24.1812 6.82173 L -24.1972 6.76466 L -24.2131 6.70754 L -24.2289 6.65039 L -24.2445 6.5932 L -24.26 6.53597 L -24.2753 6.47871 L -24.2906 6.42141 L -24.3056 6.36408 L -24.3206 6.30671 L -24.3354 6.2493 L -24.3501 6.19186 L -24.3646 6.13439 L -24.379 6.07688 L -24.3933 6.01934 L -24.4074 5.96176 L -24.4214 5.90415 L -24.4353 5.84651 L -24.449 5.78883 L -24.4626 5.73113 L -24.4761 5.67339 L -24.5138 5.50822 L -24.5267 5.45037 L -24.5395 5.39248 L -24.5522 5.33456 L -24.5647 5.27661 L -24.5771 5.21863 L -24.5893 5.16062 L -24.6014 5.10259 L -24.6134 5.04452 L -24.6252 4.98643 L -24.6369 4.92831 L -24.6485 4.87016 L -24.6599 4.81199 L -24.6712 4.75379 L -24.6823 4.69556 L -24.6933 4.6373 L -24.7042 4.57902 L -24.7149 4.52072 L -24.7255 4.46239 L -24.736 4.40403 L -24.7463 4.34565 L -24.7565 4.28725 L -24.7666 4.22882 L -24.7765 4.17037 L -24.7862 4.11189 L -24.7959 4.0534 L -24.8054 3.99488 L -24.8147 3.93633 L -24.824 3.87777 L -24.7697 3.84079 L -24.7154 3.80381 L -24.6611 3.76683 L -24.6068 3.72984 L -24.5524 3.69285 L -24.498 3.65585 L -24.4436 3.61884 L -24.3891 3.58183 L -24.3346 3.54482 L -24.2801 3.5078 L -24.2255 3.47078 L -24.1709 3.43375 L -24.1163 3.39672 L -24.0616 3.35968 L -24.0069 3.32264 L -23.9521 3.28559 L -23.8974 3.24854 L -23.8425 3.21148 L -23.7877 3.17442 L -23.7328 3.13735 L -23.6779 3.10028 L -23.6229 3.0632 L -23.5679 3.02612 L -23.5129 2.98904 L -23.4578 2.95194 L -23.4027 2.91485 L -23.3476 2.87775 L -23.2924 2.84064 L -23.2372 2.80354 L -23.1819 2.76642 L -23.1266 2.7293 L -23.0713 2.69218 L -23.0159 2.65505 L -22.9605 2.61792 L -22.9051 2.58078 L -22.9051 2.58078 L -22.9674 2.55692 L -23.0297 2.53304 L -23.0919 2.50917 L -23.1541 2.48529 L -23.2163 2.46141 L -23.2784 2.43752 L -23.3405 2.41363 L -23.4026 2.38973 L -23.4646 2.36583 L -23.5266 2.34193 L -23.5885 2.31802 L -23.6504 2.29411 L -23.7123 2.2702 L -23.7741 2.24628 L -23.8359 2.22236 L -23.8977 2.19843 L -23.9594 2.1745 L -24.0211 2.15057 L -24.0827 2.12664 L -24.1443 2.1027 L -24.2059 2.07876 L -24.2674 2.05482 L -24.329 2.03087 L -24.3904 2.00692 L -24.4519 1.98297 L -24.5133 1.95901 L -24.5746 1.93506 L -24.636 1.9111 L -24.6973 1.88713 L -24.7586 1.86317 L -24.8198 1.8392 L -24.881 1.81523 L -24.9422 1.79126 L -25.0033 1.76728 L -25.0644 1.7433 L -25.0685 1.68416 L -25.0724 1.625 L -25.0762 1.56583 L -25.0798 1.50666 L -25.0833 1.44748 L -25.0866 1.38828 L -25.0898 1.32909 L -25.0929 1.26988 L -25.0958 1.21067 L -25.0986 1.15145 L -25.1012 1.09222 L -25.1038 1.03299 L -25.1061 0.973748 L -25.1084 0.914504 L -25.1104 0.855255 L -25.1124 0.796001 L -25.1142 0.736743 L -25.1159 0.677481 L -25.1174 0.618215 L -25.1188 0.558946 L -25.12 0.499673 L -25.1211 0.440398 L -25.1221 0.38112 L -25.1229 0.32184 L -25.1236 0.262558 L -25.1242 0.203275 L -25.1246 0.143991 L -25.1249 0.0847058 L -25.1249 -0.0847058 L -25.1246 -0.143991 L -25.1242 -0.203275 L -25.1236 -0.262558 L -25.1229 -0.32184 L -25.1221 -0.38112 L -25.1211 -0.440398 L -25.12 -0.499673 L -25.1188 -0.558946 L -25.1174 -0.618215 L -25.1159 -0.677481 L -25.1142 -0.736743 L -25.1124 -0.796001 L -25.1104 -0.855255 L -25.1084 -0.914504 L -25.1061 -0.973748 L -25.1038 -1.03299 L -25.1012 -1.09222 L -25.0986 -1.15145 L -25.0958 -1.21067 L -25.0929 -1.26988 L -25.0898 -1.32909 L -25.0866 -1.38828 L -25.0833 -1.44748 L -25.0798 -1.50666 L -25.0762 -1.56583 L -25.0724 -1.625 L -25.0685 -1.68416 L -25.0644 -1.7433 L -25.0033 -1.76728 L -24.9422 -1.79126 L -24.881 -1.81523 L -24.8198 -1.8392 L -24.7586 -1.86317 L -24.6973 -1.88713 L -24.636 -1.9111 L -24.5746 -1.93506 L -24.5133 -1.95901 L -24.4519 -1.98297 L -24.3904 -2.00692 L -24.329 -2.03087 L -24.2674 -2.05482 L -24.2059 -2.07876 L -24.1443 -2.1027 L -24.0827 -2.12664 L -24.0211 -2.15057 L -23.9594 -2.1745 L -23.8977 -2.19843 L -23.8359 -2.22236 L -23.7741 -2.24628 L -23.7123 -2.2702 L -23.6504 -2.29411 L -23.5885 -2.31802 L -23.5266 -2.34193 L -23.4646 -2.36583 L -23.4026 -2.38973 L -23.3405 -2.41363 L -23.2784 -2.43752 L -23.2163 -2.46141 L -23.1541 -2.48529 L -23.0919 -2.50917 L -23.0297 -2.53304 L -22.9674 -2.55692 L -22.9051 -2.58078 L -22.9051 -2.58078 L -22.9605 -2.61792 L -23.0159 -2.65505 L -23.0713 -2.69218 L -23.1266 -2.7293 L -23.1819 -2.76642 L -23.2372 -2.80354 L -23.2924 -2.84064 L -23.3476 -2.87775 L -23.4027 -2.91485 L -23.4578 -2.95194 L -23.5129 -2.98904 L -23.5679 -3.02612 L -23.6229 -3.0632 L -23.6779 -3.10028 L -23.7328 -3.13735 L -23.7877 -3.17442 L -23.8425 -3.21148 L -23.8974 -3.24854 L -23.9521 -3.28559 L -24.0069 -3.32264 L -24.0616 -3.35968 L -24.1163 -3.39672 L -24.1709 -3.43375 L -24.2255 -3.47078 L -24.2801 -3.5078 L -24.3346 -3.54482 L -24.3891 -3.58183 L -24.4436 -3.61884 L -24.498 -3.65585 L -24.5524 -3.69285 L -24.6068 -3.72984 L -24.6611 -3.76683 L -24.7154 -3.80381 L -24.7697 -3.84079 L -24.824 -3.87777 L -24.8147 -3.93633 L -24.8054 -3.99488 L -24.7959 -4.0534 L -24.7862 -4.11189 L -24.7765 -4.17037 L -24.7666 -4.22882 L -24.7565 -4.28725 L -24.7463 -4.34565 L -24.736 -4.40403 L -24.7255 -4.46239 L -24.7149 -4.52072 L -24.7042 -4.57902 L -24.6933 -4.6373 L -24.6823 -4.69556 L -24.6712 -4.75379 L -24.6599 -4.81199 L -24.6485 -4.87016 L -24.6369 -4.92831 L -24.6252 -4.98643 L -24.6134 -5.04452 L -24.6014 -5.10259 L -24.5893 -5.16062 L -24.5771 -5.21863 L -24.5647 -5.27661 L -24.5522 -5.33456 L -24.5395 -5.39248 L -24.5267 -5.45037 L -24.5138 -5.50822 L -24.4761 -5.67339 L -24.4626 -5.73113 L -24.449 -5.78883 L -24.4353 -5.84651 L -24.4214 -5.90415 L -24.4074 -5.96176 L -24.3933 -6.01934 L -24.379 -6.07688 L -24.3646 -6.13439 L -24.3501 -6.19186 L -24.3354 -6.2493 L -24.3206 -6.30671 L -24.3056 -6.36408 L -24.2906 -6.42141 L -24.2753 -6.47871 L -24.26 -6.53597 L -24.2445 -6.5932 L -24.2289 -6.65039 L -24.2131 -6.70754 L -24.1972 -6.76466 L -24.1812 -6.82173 L -24.165 -6.87877 L -24.1487 -6.93577 L -24.1323 -6.99274 L -24.1157 -7.04966 L -24.099 -7.10655 L -24.0822 -7.16339 L -24.0652 -7.2202 L -24.0481 -7.27696 L -23.9832 -7.28674 L -23.9182 -7.29651 L -23.8533 -7.30626 L -23.7883 -7.31601 L -23.7232 -7.32575 L -23.6582 -7.33548 L -23.5931 -7.3452 L -23.5279 -7.35491 L -23.4628 -7.36461 L -23.3976 -7.3743 L -23.3323 -7.38398 L -23.2671 -7.39365 L -23.2018 -7.40331 L -23.1364 -7.41296 L -23.0711 -7.4226 L -23.0057 -7.43223 L -22.9403 -7.44184 L -22.8748 -7.45145 L -22.8093 -7.46104 L -22.7438 -7.47063 L -22.6782 -7.4802 L -22.6126 -7.48976 L -22.547 -7.49931 L -22.4813 -7.50884 L -22.4156 -7.51837 L -22.3499 -7.52788 L -22.2841 -7.53738 L -22.2183 -7.54687 L -22.1524 -7.55635 L -22.0865 -7.56581 L -22.0206 -7.57526 L -21.9546 -7.5847 L -21.8886 -7.59412 L -21.8226 -7.60353 L -21.7565 -7.61293 L -21.7565 -7.61293 L -21.8023 -7.66148 L -21.8481 -7.71001 L -21.8938 -7.75853 L -21.9395 -7.80704 L -21.9851 -7.85553 L -22.0308 -7.90401 L -22.0763 -7.95248 L -22.1219 -8.00093 L -22.1674 -8.04937 L -22.2128 -8.0978 L -22.2583 -8.14621 L -22.3037 -8.19461 L -22.349 -8.243 L -22.3944 -8.29138 L -22.4397 -8.33974 L -22.4849 -8.38809 L -22.5301 -8.43643 L -22.5753 -8.48475 L -22.6205 -8.53306 L -22.6656 -8.58136 L -22.7107 -8.62965 L -22.7558 -8.67792 L -22.8008 -8.72619 L -22.8458 -8.77444 L -22.8907 -8.82268 L -22.9357 -8.8709 L -22.9806 -8.91911 L -23.0254 -8.96732 L -23.0703 -9.01551 L -23.1151 -9.06368 L -23.1599 -9.11185 L -23.2046 -9.16 L -23.2493 -9.20814 L -23.294 -9.25628 L -23.3387 -9.30439 L -23.3167 -9.35944 L -23.2945 -9.41443 L -23.2722 -9.46937 L -23.2498 -9.52426 L -23.2273 -9.57909 L -23.2046 -9.63387 L -23.1818 -9.6886 L -23.1589 -9.74327 L -23.1358 -9.79789 L -23.1127 -9.85246 L -23.0893 -9.90697 L -23.0659 -9.96142 L -23.0423 -10.0158 L -23.0186 -10.0702 L -22.9948 -10.1245 L -22.9709 -10.1787 L -22.9468 -10.2329 L -22.9226 -10.287 L -22.8982 -10.341 L -22.8738 -10.395 L -22.8492 -10.449 L -22.8244 -10.5029 L -22.7996 -10.5567 L -22.7746 -10.6105 L -22.7495 -10.6642 L -22.7243 -10.7178 L -22.6989 -10.7714 L -22.6735 -10.8249 L -22.6 -10.9776 L -22.574 -11.0309 L -22.5479 -11.0841 L -22.5217 -11.1373 L -22.4953 -11.1904 L -22.4689 -11.2435 L -22.4423 -11.2964 L -22.4156 -11.3494 L -22.3887 -11.4022 L -22.3618 -11.455 L -22.3347 -11.5078 L -22.3074 -11.5604 L -22.2801 -11.613 L -22.2526 -11.6656 L -22.2251 -11.718 L -22.1973 -11.7705 L -22.1695 -11.8228 L -22.1415 -11.8751 L -22.1135 -11.9273 L -22.0853 -11.9794 L -22.0569 -12.0315 L -22.0285 -12.0835 L -21.9999 -12.1355 L -21.9712 -12.1874 L -21.9424 -12.2392 L -21.9134 -12.2909 L -21.8844 -12.3426 L -21.8552 -12.3942 L -21.8259 -12.4457 L -21.7604 -12.4408 L -21.6949 -12.4359 L -21.6294 -12.4309 L -21.5639 -12.426 L -21.4983 -12.421 L -21.4327 -12.416 L -21.3671 -12.411 L -21.3014 -12.406 L -21.2357 -12.4009 L -21.17 -12.3959 L -21.1042 -12.3908 L -21.0385 -12.3857 L -20.9727 -12.3806 L -20.9068 -12.3754 L -20.841 -12.3703 L -20.7751 -12.3651 L -20.7091 -12.3599 L -20.6432 -12.3547 L -20.5772 -12.3495 L -20.5112 -12.3443 L -20.4451 -12.339 L -20.379 -12.3338 L -20.3129 -12.3285 L -20.2468 -12.3231 L -20.1806 -12.3178 L -20.1144 -12.3125 L -20.0481 -12.3071 L -19.9819 -12.3017 L -19.9156 -12.2963 L -19.8492 -12.2908 L -19.7828 -12.2854 L -19.7164 -12.2799 L -19.65 -12.2744 L -19.5835 -12.2689 L -19.517 -12.2633 L -19.517 -12.2633 L -19.5508 -12.3209 L -19.5847 -12.3784 L -19.6184 -12.4358 L -19.6522 -12.4933 L -19.6859 -12.5507 L -19.7196 -12.6081 L -19.7532 -12.6655 L -19.7869 -12.7229 L -19.8204 -12.7803 L -19.854 -12.8376 L -19.8875 -12.8949 L -19.921 -12.9522 L -19.9545 -13.0095 L -19.9879 -13.0667 L -20.0213 -13.1239 L -20.0546 -13.1811 L -20.088 -13.2383 L -20.1213 -13.2955 L -20.1546 -13.3527 L -20.1878 -13.4098 L -20.221 -13.4669 L -20.2542 -13.524 L -20.2874 -13.5811 L -20.3205 -13.6381 L -20.3536 -13.6951 L -20.3867 -13.7522 L -20.4197 -13.8092 L -20.4527 -13.8661 L -20.4857 -13.9231 L -20.5187 -13.98 L -20.5516 -14.037 L -20.5845 -14.0939 L -20.6174 -14.1507 L -20.6503 -14.2076 L -20.6831 -14.2645 L -20.6494 -14.3132 L -20.6156 -14.3619 L -20.5816 -14.4105 L -20.5476 -14.459 L -20.5134 -14.5075 L -20.4791 -14.5558 L -20.4447 -14.6041 L -20.4102 -14.6523 L -20.3755 -14.7004 L -20.3408 -14.7485 L -20.3059 -14.7964 L -20.271 -14.8443 L -20.2359 -14.8921 L -20.2007 -14.9398 L -20.1654 -14.9874 L -20.13 -15.035 L -20.0944 -15.0824 L -20.0588 -15.1298 L -20.023 -15.1771 L -19.9872 -15.2243 L -19.9512 -15.2714 L -19.9151 -15.3185 L -19.8789 -15.3654 L -19.8426 -15.4123 L -19.8061 -15.459 L -19.7696 -15.5057 L -19.733 -15.5523 L -19.6962 -15.5989 L -19.5906 -15.7313 L -19.5534 -15.7775 L -19.5161 -15.8236 L -19.4787 -15.8696 L -19.4412 -15.9155 L -19.4036 -15.9614 L -19.3659 -16.0071 L -19.3281 -16.0527 L -19.2902 -16.0983 L -19.2521 -16.1438 L -19.214 -16.1892 L -19.1757 -16.2345 L -19.1374 -16.2797 L -19.0989 -16.3248 L -19.0603 -16.3698 L -19.0216 -16.4147 L -18.9829 -16.4596 L -18.944 -16.5043 L -18.905 -16.549 L -18.8659 -16.5935 L -18.8267 -16.638 L -18.7873 -16.6824 L -18.7479 -16.7267 L -18.7084 -16.7708 L -18.6688 -16.8149 L -18.6291 -16.8589 L -18.5892 -16.9029 L -18.5493 -16.9467 L -18.5092 -16.9904 L -18.4465 -16.971 L -18.3838 -16.9517 L -18.321 -16.9323 L -18.2582 -16.9128 L -18.1954 -16.8934 L -18.1325 -16.8739 L -18.0696 -16.8544 L -18.0067 -16.8349 L -17.9438 -16.8154 L -17.8809 -16.7958 L -17.8179 -16.7763 L -17.7549 -16.7567 L -17.6919 -16.737 L -17.6289 -16.7174 L -17.5658 -16.6977 L -17.5027 -16.678 L -17.4396 -16.6583 L -17.3764 -16.6385 L -17.3132 -16.6188 L -17.25 -16.599 L -17.1868 -16.5791 L -17.1236 -16.5593 L -17.0603 -16.5394 L -16.997 -16.5195 L -16.9337 -16.4996 L -16.8703 -16.4796 L -16.8069 -16.4596 L -16.7435 -16.4396 L -16.6801 -16.4196 L -16.6166 -16.3995 L -16.5531 -16.3795 L -16.4896 -16.3593 L -16.426 -16.3392 L -16.3624 -16.319 L -16.2988 -16.2988 L -16.2988 -16.2988 L -16.319 -16.3624 L -16.3392 -16.426 L -16.3593 -16.4896 L -16.3795 -16.5531 L -16.3995 -16.6166 L -16.4196 -16.6801 L -16.4396 -16.7435 L -16.4596 -16.8069 L -16.4796 -16.8703 L -16.4996 -16.9337 L -16.5195 -16.997 L -16.5394 -17.0603 L -16.5593 -17.1236 L -16.5791 -17.1868 L -16.599 -17.25 L -16.6188 -17.3132 L -16.6385 -17.3764 L -16.6583 -17.4396 L -16.678 -17.5027 L -16.6977 -17.5658 L -16.7174 -17.6289 L -16.737 -17.6919 L -16.7567 -17.7549 L -16.7763 -17.8179 L -16.7958 -17.8809 L -16.8154 -17.9438 L -16.8349 -18.0067 L -16.8544 -18.0696 L -16.8739 -18.1325 L -16.8934 -18.1954 L -16.9128 -18.2582 L -16.9323 -18.321 L -16.9517 -18.3838 L -16.971 -18.4465 L -16.9904 -18.5092 L -16.9467 -18.5493 L -16.9029 -18.5892 L -16.8589 -18.6291 L -16.8149 -18.6688 L -16.7708 -18.7084 L -16.7267 -18.7479 L -16.6824 -18.7873 L -16.638 -18.8267 L -16.5935 -18.8659 L -16.549 -18.905 L -16.5043 -18.944 L -16.4596 -18.9829 L -16.4147 -19.0216 L -16.3698 -19.0603 L -16.3248 -19.0989 L -16.2797 -19.1374 L -16.2345 -19.1757 L -16.1892 -19.214 L -16.1438 -19.2521 L -16.0983 -19.2902 L -16.0527 -19.3281 L -16.0071 -19.3659 L -15.9614 -19.4036 L -15.9155 -19.4412 L -15.8696 -19.4787 L -15.8236 -19.5161 L -15.7775 -19.5534 L -15.7313 -19.5906 L -15.5989 -19.6962 L -15.5523 -19.733 L -15.5057 -19.7696 L -15.459 -19.8061 L -15.4123 -19.8426 L -15.3654 -19.8789 L -15.3185 -19.9151 L -15.2714 -19.9512 L -15.2243 -19.9872 L -15.1771 -20.023 L -15.1298 -20.0588 L -15.0824 -20.0944 L -15.035 -20.13 L -14.9874 -20.1654 L -14.9398 -20.2007 L -14.8921 -20.2359 L -14.8443 -20.271 L -14.7964 -20.3059 L -14.7485 -20.3408 L -14.7004 -20.3755 L -14.6523 -20.4102 L -14.6041 -20.4447 L -14.5558 -20.4791 L -14.5075 -20.5134 L -14.459 -20.5476 L -14.4105 -20.5816 L -14.3619 -20.6156 L -14.3132 -20.6494 L -14.2645 -20.6831 L -14.2076 -20.6503 L -14.1507 -20.6174 L -14.0939 -20.5845 L -14.037 -20.5516 L -13.98 -20.5187 L -13.9231 -20.4857 L -13.8661 -20.4527 L -13.8092 -20.4197 L -13.7522 -20.3867 L -13.6951 -20.3536 L -13.6381 -20.3205 L -13.5811 -20.2874 L -13.524 -20.2542 L -13.4669 -20.221 L -13.4098 -20.1878 L -13.3527 -20.1546 L -13.2955 -20.1213 L -13.2383 -20.088 L -13.1811 -20.0546 L -13.1239 -20.0213 L -13.0667 -19.9879 L -13.0095 -19.9545 L -12.9522 -19.921 L -12.8949 -19.8875 L -12.8376 -19.854 L -12.7803 -19.8204 L -12.7229 -19.7869 L -12.6655 -19.7532 L -12.6081 -19.7196 L -12.5507 -19.6859 L -12.4933 -19.6522 L -12.4358 -19.6184 L -12.3784 -19.5847 L -12.3209 -19.5508 L -12.2633 -19.517 L -12.2633 -19.517 L -12.2689 -19.5835 L -12.2744 -19.65 L -12.2799 -19.7164 L -12.2854 -19.7828 L -12.2908 -19.8492 L -12.2963 -19.9156 L -12.3017 -19.9819 L -12.3071 -20.0481 L -12.3125 -20.1144 L -12.3178 -20.1806 L -12.3231 -20.2468 L -12.3285 -20.3129 L -12.3338 -20.379 L -12.339 -20.4451 L -12.3443 -20.5112 L -12.3495 -20.5772 L -12.3547 -20.6432 L -12.3599 -20.7091 L -12.3651 -20.7751 L -12.3703 -20.841 L -12.3754 -20.9068 L -12.3806 -20.9727 L -12.3857 -21.0385 L -12.3908 -21.1042 L -12.3959 -21.17 L -12.4009 -21.2357 L -12.406 -21.3014 L -12.411 -21.3671 L -12.416 -21.4327 L -12.421 -21.4983 L -12.426 -21.5639 L -12.4309 -21.6294 L -12.4359 -21.6949 L -12.4408 -21.7604 L -12.4457 -21.8259 L -12.3942 -21.8552 L -12.3426 -21.8844 L -12.2909 -21.9134 L -12.2392 -21.9424 L -12.1874 -21.9712 L -12.1355 -21.9999 L -12.0835 -22.0285 L -12.0315 -22.0569 L -11.9794 -22.0853 L -11.9273 -22.1135 L -11.8751 -22.1415 L -11.8228 -22.1695 L -11.7705 -22.1973 L -11.718 -22.2251 L -11.6656 -22.2526 L -11.613 -22.2801 L -11.5604 -22.3074 L -11.5078 -22.3347 L -11.455 -22.3618 L -11.4022 -22.3887 L -11.3494 -22.4156 L -11.2964 -22.4423 L -11.2435 -22.4689 L -11.1904 -22.4953 L -11.1373 -22.5217 L -11.0841 -22.5479 L -11.0309 -22.574 L -10.9776 -22.6 L -10.8249 -22.6735 L -10.7714 -22.6989 L -10.7178 -22.7243 L -10.6642 -22.7495 L -10.6105 -22.7746 L -10.5567 -22.7996 L -10.5029 -22.8244 L -10.449 -22.8492 L -10.395 -22.8738 L -10.341 -22.8982 L -10.287 -22.9226 L -10.2329 -22.9468 L -10.1787 -22.9709 L -10.1245 -22.9948 L -10.0702 -23.0186 L -10.0158 -23.0423 L -9.96142 -23.0659 L -9.90697 -23.0893 L -9.85246 -23.1127 L -9.79789 -23.1358 L -9.74327 -23.1589 L -9.6886 -23.1818 L -9.63387 -23.2046 L -9.57909 -23.2273 L -9.52426 -23.2498 L -9.46937 -23.2722 L -9.41443 -23.2945 L -9.35944 -23.3167 L -9.30439 -23.3387 L -9.25628 -23.294 L -9.20814 -23.2493 L -9.16 -23.2046 L -9.11185 -23.1599 L -9.06368 -23.1151 L -9.01551 -23.0703 L -8.96732 -23.0254 L -8.91911 -22.9806 L -8.8709 -22.9357 L -8.82268 -22.8907 L -8.77444 -22.8458 L -8.72619 -22.8008 L -8.67792 -22.7558 L -8.62965 -22.7107 L -8.58136 -22.6656 L -8.53306 -22.6205 L -8.48475 -22.5753 L -8.43643 -22.5301 L -8.38809 -22.4849 L -8.33974 -22.4397 L -8.29138 -22.3944 L -8.243 -22.349 L -8.19461 -22.3037 L -8.14621 -22.2583 L -8.0978 -22.2128 L -8.04937 -22.1674 L -8.00093 -22.1219 L -7.95248 -22.0763 L -7.90401 -22.0308 L -7.85553 -21.9851 L -7.80704 -21.9395 L -7.75853 -21.8938 L -7.71001 -21.8481 L -7.66148 -21.8023 L -7.61293 -21.7565 L -7.61293 -21.7565 L -7.60353 -21.8226 L -7.59412 -21.8886 L -7.5847 -21.9546 L -7.57526 -22.0206 L -7.56581 -22.0865 L -7.55635 -22.1524 L -7.54687 -22.2183 L -7.53738 -22.2841 L -7.52788 -22.3499 L -7.51837 -22.4156 L -7.50884 -22.4813 L -7.49931 -22.547 L -7.48976 -22.6126 L -7.4802 -22.6782 L -7.47063 -22.7438 L -7.46104 -22.8093 L -7.45145 -22.8748 L -7.44184 -22.9403 L -7.43223 -23.0057 L -7.4226 -23.0711 L -7.41296 -23.1364 L -7.40331 -23.2018 L -7.39365 -23.2671 L -7.38398 -23.3323 L -7.3743 -23.3976 L -7.36461 -23.4628 L -7.35491 -23.5279 L -7.3452 -23.5931 L -7.33548 -23.6582 L -7.32575 -23.7232 L -7.31601 -23.7883 L -7.30626 -23.8533 L -7.29651 -23.9182 L -7.28674 -23.9832 L -7.27696 -24.0481 L -7.2202 -24.0652 L -7.16339 -24.0822 L -7.10655 -24.099 L -7.04966 -24.1157 L -6.99274 -24.1323 L -6.93577 -24.1487 L -6.87877 -24.165 L -6.82173 -24.1812 L -6.76466 -24.1972 L -6.70754 -24.2131 L -6.65039 -24.2289 L -6.5932 -24.2445 L -6.53597 -24.26 L -6.47871 -24.2753 L -6.42141 -24.2906 L -6.36408 -24.3056 L -6.30671 -24.3206 L -6.2493 -24.3354 L -6.19186 -24.3501 L -6.13439 -24.3646 L -6.07688 -24.379 L -6.01934 -24.3933 L -5.96176 -24.4074 L -5.90415 -24.4214 L -5.84651 -24.4353 L -5.78883 -24.449 L -5.73113 -24.4626 L -5.67339 -24.4761 L -5.50822 -24.5138 L -5.45037 -24.5267 L -5.39248 -24.5395 L -5.33456 -24.5522 L -5.27661 -24.5647 L -5.21863 -24.5771 L -5.16062 -24.5893 L -5.10259 -24.6014 L -5.04452 -24.6134 L -4.98643 -24.6252 L -4.92831 -24.6369 L -4.87016 -24.6485 L -4.81199 -24.6599 L -4.75379 -24.6712 L -4.69556 -24.6823 L -4.6373 -24.6933 L -4.57902 -24.7042 L -4.52072 -24.7149 L -4.46239 -24.7255 L -4.40403 -24.736 L -4.34565 -24.7463 L -4.28725 -24.7565 L -4.22882 -24.7666 L -4.17037 -24.7765 L -4.11189 -24.7862 L -4.0534 -24.7959 L -3.99488 -24.8054 L -3.93633 -24.8147 L -3.87777 -24.824 L -3.84079 -24.7697 L -3.80381 -24.7154 L -3.76683 -24.6611 L -3.72984 -24.6068 L -3.69285 -24.5524 L -3.65585 -24.498 L -3.61884 -24.4436 L -3.58183 -24.3891 L -3.54482 -24.3346 L -3.5078 -24.2801 L -3.47078 -24.2255 L -3.43375 -24.1709 L -3.39672 -24.1163 L -3.35968 -24.0616 L -3.32264 -24.0069 L -3.28559 -23.9521 L -3.24854 -23.8974 L -3.21148 -23.8425 L -3.17442 -23.7877 L -3.13735 -23.7328 L -3.10028 -23.6779 L -3.0632 -23.6229 L -3.02612 -23.5679 L -2.98904 -23.5129 L -2.95194 -23.4578 L -2.91485 -23.4027 L -2.87775 -23.3476 L -2.84064 -23.2924 L -2.80354 -23.2372 L -2.76642 -23.1819 L -2.7293 -23.1266 L -2.69218 -23.0713 L -2.65505 -23.0159 L -2.61792 -22.9605 L -2.58078 -22.9051 L -2.58078 -22.9051 L -2.55692 -22.9674 L -2.53304 -23.0297 L -2.50917 -23.0919 L -2.48529 -23.1541 L -2.46141 -23.2163 L -2.43752 -23.2784 L -2.41363 -23.3405 L -2.38973 -23.4026 L -2.36583 -23.4646 L -2.34193 -23.5266 L -2.31802 -23.5885 L -2.29411 -23.6504 L -2.2702 -23.7123 L -2.24628 -23.7741 L -2.22236 -23.8359 L -2.19843 -23.8977 L -2.1745 -23.9594 L -2.15057 -24.0211 L -2.12664 -24.0827 L -2.1027 -24.1443 L -2.07876 -24.2059 L -2.05482 -24.2674 L -2.03087 -24.329 L -2.00692 -24.3904 L -1.98297 -24.4519 L -1.95901 -24.5133 L -1.93506 -24.5746 L -1.9111 -24.636 L -1.88713 -24.6973 L -1.86317 -24.7586 L -1.8392 -24.8198 L -1.81523 -24.881 L -1.79126 -24.9422 L -1.76728 -25.0033 L -1.7433 -25.0644 L -1.68416 -25.0685 L -1.625 -25.0724 L -1.56583 -25.0762 L -1.50666 -25.0798 L -1.44748 -25.0833 L -1.38828 -25.0866 L -1.32909 -25.0898 L -1.26988 -25.0929 L -1.21067 -25.0958 L -1.15145 -25.0986 L -1.09222 -25.1012 L -1.03299 -25.1038 L -0.973748 -25.1061 L -0.914504 -25.1084 L -0.855255 -25.1104 L -0.796001 -25.1124 L -0.736743 -25.1142 L -0.677481 -25.1159 L -0.618215 -25.1174 L -0.558946 -25.1188 L -0.499673 -25.12 L -0.440398 -25.1211 L -0.38112 -25.1221 L -0.32184 -25.1229 L -0.262558 -25.1236 L -0.203275 -25.1242 L -0.143991 -25.1246 L -0.0847058 -25.1249 L 0.0847058 -25.1249 L 0.143991 -25.1246 L 0.203275 -25.1242 L 0.262558 -25.1236 L 0.32184 -25.1229 L 0.38112 -25.1221 L 0.440398 -25.1211 L 0.499673 -25.12 L 0.558946 -25.1188 L 0.618215 -25.1174 L 0.677481 -25.1159 L 0.736743 -25.1142 L 0.796001 -25.1124 L 0.855255 -25.1104 L 0.914504 -25.1084 L 0.973748 -25.1061 L 1.03299 -25.1038 L 1.09222 -25.1012 L 1.15145 -25.0986 L 1.21067 -25.0958 L 1.26988 -25.0929 L 1.32909 -25.0898 L 1.38828 -25.0866 L 1.44748 -25.0833 L 1.50666 -25.0798 L 1.56583 -25.0762 L 1.625 -25.0724 L 1.68416 -25.0685 L 1.7433 -25.0644 L 1.76728 -25.0033 L 1.79126 -24.9422 L 1.81523 -24.881 L 1.8392 -24.8198 L 1.86317 -24.7586 L 1.88713 -24.6973 L 1.9111 -24.636 L 1.93506 -24.5746 L 1.95901 -24.5133 L 1.98297 -24.4519 L 2.00692 -24.3904 L 2.03087 -24.329 L 2.05482 -24.2674 L 2.07876 -24.2059 L 2.1027 -24.1443 L 2.12664 -24.0827 L 2.15057 -24.0211 L 2.1745 -23.9594 L 2.19843 -23.8977 L 2.22236 -23.8359 L 2.24628 -23.7741 L 2.2702 -23.7123 L 2.29411 -23.6504 L 2.31802 -23.5885 L 2.34193 -23.5266 L 2.36583 -23.4646 L 2.38973 -23.4026 L 2.41363 -23.3405 L 2.43752 -23.2784 L 2.46141 -23.2163 L 2.48529 -23.1541 L 2.50917 -23.0919 L 2.53304 -23.0297 L 2.55692 -22.9674 L 2.58078 -22.9051 L 2.58078 -22.9051 L 2.61792 -22.9605 L 2.65505 -23.0159 L 2.69218 -23.0713 L 2.7293 -23.1266 L 2.76642 -23.1819 L 2.80354 -23.2372 L 2.84064 -23.2924 L 2.87775 -23.3476 L 2.91485 -23.4027 L 2.95194 -23.4578 L 2.98904 -23.5129 L 3.02612 -23.5679 L 3.0632 -23.6229 L 3.10028 -23.6779 L 3.13735 -23.7328 L 3.17442 -23.7877 L 3.21148 -23.8425 L 3.24854 -23.8974 L 3.28559 -23.9521 L 3.32264 -24.0069 L 3.35968 -24.0616 L 3.39672 -24.1163 L 3.43375 -24.1709 L 3.47078 -24.2255 L 3.5078 -24.2801 L 3.54482 -24.3346 L 3.58183 -24.3891 L 3.61884 -24.4436 L 3.65585 -24.498 L 3.69285 -24.5524 L 3.72984 -24.6068 L 3.76683 -24.6611 L 3.80381 -24.7154 L 3.84079 -24.7697 L 3.87777 -24.824 L 3.93633 -24.8147 L 3.99488 -24.8054 L 4.0534 -24.7959 L 4.11189 -24.7862 L 4.17037 -24.7765 L 4.22882 -24.7666 L 4.28725 -24.7565 L 4.34565 -24.7463 L 4.40403 -24.736 L 4.46239 -24.7255 L 4.52072 -24.7149 L 4.57902 -24.7042 L 4.6373 -24.6933 L 4.69556 -24.6823 L 4.75379 -24.6712 L 4.81199 -24.6599 L 4.87016 -24.6485 L 4.92831 -24.6369 L 4.98643 -24.6252 L 5.04452 -24.6134 L 5.10259 -24.6014 L 5.16062 -24.5893 L 5.21863 -24.5771 L 5.27661 -24.5647 L 5.33456 -24.5522 L 5.39248 -24.5395 L 5.45037 -24.5267 L 5.50822 -24.5138 L 5.67339 -24.4761 L 5.73113 -24.4626 L 5.78883 -24.449 L 5.84651 -24.4353 L 5.90415 -24.4214 L 5.96176 -24.4074 L 6.01934 -24.3933 L 6.07688 -24.379 L 6.13439 -24.3646 L 6.19186 -24.3501 L 6.2493 -24.3354 L 6.30671 -24.3206 L 6.36408 -24.3056 L 6.42141 -24.2906 L 6.47871 -24.2753 L 6.53597 -24.26 L 6.5932 -24.2445 L 6.65039 -24.2289 L 6.70754 -24.2131 L 6.76466 -24.1972 L 6.82173 -24.1812 L 6.87877 -24.165 L 6.93577 -24.1487 L 6.99274 -24.1323 L 7.04966 -24.1157 L 7.10655 -24.099 L 7.16339 -24.0822 L 7.2202 -24.0652 L 7.27696 -24.0481 L 7.28674 -23.9832 L 7.29651 -23.9182 L 7.30626 -23.8533 L 7.31601 -23.7883 L 7.32575 -23.7232 L 7.33548 -23.6582 L 7.3452 -23.5931 L 7.35491 -23.5279 L 7.36461 -23.4628 L 7.3743 -23.3976 L 7.38398 -23.3323 L 7.39365 -23.2671 L 7.40331 -23.2018 L 7.41296 -23.1364 L 7.4226 -23.0711 L 7.43223 -23.0057 L 7.44184 -22.9403 L 7.45145 -22.8748 L 7.46104 -22.8093 L 7.47063 -22.7438 L 7.4802 -22.6782 L 7.48976 -22.6126 L 7.49931 -22.547 L 7.50884 -22.4813 L 7.51837 -22.4156 L 7.52788 -22.3499 L 7.53738 -22.2841 L 7.54687 -22.2183 L 7.55635 -22.1524 L 7.56581 -22.0865 L 7.57526 -22.0206 L 7.5847 -21.9546 L 7.59412 -21.8886 L 7.60353 -21.8226 L 7.61293 -21.7565 L 7.61293 -21.7565 L 7.66148 -21.8023 L 7.71001 -21.8481 L 7.75853 -21.8938 L 7.80704 -21.9395 L 7.85553 -21.9851 L 7.90401 -22.0308 L 7.95248 -22.0763 L 8.00093 -22.1219 L 8.04937 -22.1674 L 8.0978 -22.2128 L 8.14621 -22.2583 L 8.19461 -22.3037 L 8.243 -22.349 L 8.29138 -22.3944 L 8.33974 -22.4397 L 8.38809 -22.4849 L 8.43643 -22.5301 L 8.48475 -22.5753 L 8.53306 -22.6205 L 8.58136 -22.6656 L 8.62965 -22.7107 L 8.67792 -22.7558 L 8.72619 -22.8008 L 8.77444 -22.8458 L 8.82268 -22.8907 L 8.8709 -22.9357 L 8.91911 -22.9806 L 8.96732 -23.0254 L 9.01551 -23.0703 L 9.06368 -23.1151 L 9.11185 -23.1599 L 9.16 -23.2046 L 9.20814 -23.2493 L 9.25628 -23.294 L 9.30439 -23.3387 L 9.35944 -23.3167 L 9.41443 -23.2945 L 9.46937 -23.2722 L 9.52426 -23.2498 L 9.57909 -23.2273 L 9.63387 -23.2046 L 9.6886 -23.1818 L 9.74327 -23.1589 L 9.79789 -23.1358 L 9.85246 -23.1127 L 9.90697 -23.0893 L 9.96142 -23.0659 L 10.0158 -23.0423 L 10.0702 -23.0186 L 10.1245 -22.9948 L 10.1787 -22.9709 L 10.2329 -22.9468 L 10.287 -22.9226 L 10.341 -22.8982 L 10.395 -22.8738 L 10.449 -22.8492 L 10.5029 -22.8244 L 10.5567 -22.7996 L 10.6105 -22.7746 L 10.6642 -22.7495 L 10.7178 -22.7243 L 10.7714 -22.6989 L 10.8249 -22.6735 L 10.9776 -22.6 L 11.0309 -22.574 L 11.0841 -22.5479 L 11.1373 -22.5217 L 11.1904 -22.4953 L 11.2435 -22.4689 L 11.2964 -22.4423 L 11.3494 -22.4156 L 11.4022 -22.3887 L 11.455 -22.3618 L 11.5078 -22.3347 L 11.5604 -22.3074 L 11.613 -22.2801 L 11.6656 -22.2526 L 11.718 -22.2251 L 11.7705 -22.1973 L 11.8228 -22.1695 L 11.8751 -22.1415 L 11.9273 -22.1135 L 11.9794 -22.0853 L 12.0315 -22.0569 L 12.0835 -22.0285 L 12.1355 -21.9999 L 12.1874 -21.9712 L 12.2392 -21.9424 L 12.2909 -21.9134 L 12.3426 -21.8844 L 12.3942 -21.8552 L 12.4457 -21.8259 L 12.4408 -21.7604 L 12.4359 -21.6949 L 12.4309 -21.6294 L 12.426 -21.5639 L 12.421 -21.4983 L 12.416 -21.4327 L 12.411 -21.3671 L 12.406 -21.3014 L 12.4009 -21.2357 L 12.3959 -21.17 L 12.3908 -21.1042 L 12.3857 -21.0385 L 12.3806 -20.9727 L 12.3754 -20.9068 L 12.3703 -20.841 L 12.3651 -20.7751 L 12.3599 -20.7091 L 12.3547 -20.6432 L 12.3495 -20.5772 L 12.3443 -20.5112 L 12.339 -20.4451 L 12.3338 -20.379 L 12.3285 -20.3129 L 12.3231 -20.2468 L 12.3178 -20.1806 L 12.3125 -20.1144 L 12.3071 -20.0481 L 12.3017 -19.9819 L 12.2963 -19.9156 L 12.2908 -19.8492 L 12.2854 -19.7828 L 12.2799 -19.7164 L 12.2744 -19.65 L 12.2689 -19.5835 L 12.2633 -19.517 L 12.2633 -19.517 L 12.3209 -19.5508 L 12.3784 -19.5847 L 12.4358 -19.6184 L 12.4933 -19.6522 L 12.5507 -19.6859 L 12.6081 -19.7196 L 12.6655 -19.7532 L 12.7229 -19.7869 L 12.7803 -19.8204 L 12.8376 -19.854 L 12.8949 -19.8875 L 12.9522 -19.921 L 13.0095 -19.9545 L 13.0667 -19.9879 L 13.1239 -20.0213 L 13.1811 -20.0546 L 13.2383 -20.088 L 13.2955 -20.1213 L 13.3527 -20.1546 L 13.4098 -20.1878 L 13.4669 -20.221 L 13.524 -20.2542 L 13.5811 -20.2874 L 13.6381 -20.3205 L 13.6951 -20.3536 L 13.7522 -20.3867 L 13.8092 -20.4197 L 13.8661 -20.4527 L 13.9231 -20.4857 L 13.98 -20.5187 L 14.037 -20.5516 L 14.0939 -20.5845 L 14.1507 -20.6174 L 14.2076 -20.6503 L 14.2645 -20.6831 L 14.3132 -20.6494 L 14.3619 -20.6156 L 14.4105 -20.5816 L 14.459 -20.5476 L 14.5075 -20.5134 L 14.5558 -20.4791 L 14.6041 -20.4447 L 14.6523 -20.4102 L 14.7004 -20.3755 L 14.7485 -20.3408 L 14.7964 -20.3059 L 14.8443 -20.271 L 14.8921 -20.2359 L 14.9398 -20.2007 L 14.9874 -20.1654 L 15.035 -20.13 L 15.0824 -20.0944 L 15.1298 -20.0588 L 15.1771 -20.023 L 15.2243 -19.9872 L 15.2714 -19.9512 L 15.3185 -19.9151 L 15.3654 -19.8789 L 15.4123 -19.8426 L 15.459 -19.8061 L 15.5057 -19.7696 L 15.5523 -19.733 L 15.5989 -19.6962 L 15.7313 -19.5906 L 15.7775 -19.5534 L 15.8236 -19.5161 L 15.8696 -19.4787 L 15.9155 -19.4412 L 15.9614 -19.4036 L 16.0071 -19.3659 L 16.0527 -19.3281 L 16.0983 -19.2902 L 16.1438 -19.2521 L 16.1892 -19.214 L 16.2345 -19.1757 L 16.2797 -19.1374 L 16.3248 -19.0989 L 16.3698 -19.0603 L 16.4147 -19.0216 L 16.4596 -18.9829 L 16.5043 -18.944 L 16.549 -18.905 L 16.5935 -18.8659 L 16.638 -18.8267 L 16.6824 -18.7873 L 16.7267 -18.7479 L 16.7708 -18.7084 L 16.8149 -18.6688 L 16.8589 -18.6291 L 16.9029 -18.5892 L 16.9467 -18.5493 L 16.9904 -18.5092 L 16.971 -18.4465 L 16.9517 -18.3838 L 16.9323 -18.321 L 16.9128 -18.2582 L 16.8934 -18.1954 L 16.8739 -18.1325 L 16.8544 -18.0696 L 16.8349 -18.0067 L 16.8154 -17.9438 L 16.7958 -17.8809 L 16.7763 -17.8179 L 16.7567 -17.7549 L 16.737 -17.6919 L 16.7174 -17.6289 L 16.6977 -17.5658 L 16.678 -17.5027 L 16.6583 -17.4396 L 16.6385 -17.3764 L 16.6188 -17.3132 L 16.599 -17.25 L 16.5791 -17.1868 L 16.5593 -17.1236 L 16.5394 -17.0603 L 16.5195 -16.997 L 16.4996 -16.9337 L 16.4796 -16.8703 L 16.4596 -16.8069 L 16.4396 -16.7435 L 16.4196 -16.6801 L 16.3995 -16.6166 L 16.3795 -16.5531 L 16.3593 -16.4896 L 16.3392 -16.426 L 16.319 -16.3624 L 16.2988 -16.2988 L 16.2988 -16.2988 L 16.3624 -16.319 L 16.426 -16.3392 L 16.4896 -16.3593 L 16.5531 -16.3795 L 16.6166 -16.3995 L 16.6801 -16.4196 L 16.7435 -16.4396 L 16.8069 -16.4596 L 16.8703 -16.4796 L 16.9337 -16.4996 L 16.997 -16.5195 L 17.0603 -16.5394 L 17.1236 -16.5593 L 17.1868 -16.5791 L 17.25 -16.599 L 17.3132 -16.6188 L 17.3764 -16.6385 L 17.4396 -16.6583 L 17.5027 -16.678 L 17.5658 -16.6977 L 17.6289 -16.7174 L 17.6919 -16.737 L 17.7549 -16.7567 L 17.8179 -16.7763 L 17.8809 -16.7958 L 17.9438 -16.8154 L 18.0067 -16.8349 L 18.0696 -16.8544 L 18.1325 -16.8739 L 18.1954 -16.8934 L 18.2582 -16.9128 L 18.321 -16.9323 L 18.3838 -16.9517 L 18.4465 -16.971 L 18.5092 -16.9904 L 18.5493 -16.9467 L 18.5892 -16.9029 L 18.6291 -16.8589 L 18.6688 -16.8149 L 18.7084 -16.7708 L 18.7479 -16.7267 L 18.7873 -16.6824 L 18.8267 -16.638 L 18.8659 -16.5935 L 18.905 -16.549 L 18.944 -16.5043 L 18.9829 -16.4596 L 19.0216 -16.4147 L 19.0603 -16.3698 L 19.0989 -16.3248 L 19.1374 -16.2797 L 19.1757 -16.2345 L 19.214 -16.1892 L 19.2521 -16.1438 L 19.2902 -16.0983 L 19.3281 -16.0527 L 19.3659 -16.0071 L 19.4036 -15.9614 L 19.4412 -15.9155 L 19.4787 -15.8696 L 19.5161 -15.8236 L 19.5534 -15.7775 L 19.5906 -15.7313 L 19.6962 -15.5989 L 19.733 -15.5523 L 19.7696 -15.5057 L 19.8061 -15.459 L 19.8426 -15.4123 L 19.8789 -15.3654 L 19.9151 -15.3185 L 19.9512 -15.2714 L 19.9872 -15.2243 L 20.023 -15.1771 L 20.0588 -15.1298 L 20.0944 -15.0824 L 20.13 -15.035 L 20.1654 -14.9874 L 20.2007 -14.9398 L 20.2359 -14.8921 L 20.271 -14.8443 L 20.3059 -14.7964 L 20.3408 -14.7485 L 20.3755 -14.7004 L 20.4102 -14.6523 L 20.4447 -14.6041 L 20.4791 -14.5558 L 20.5134 -14.5075 L 20.5476 -14.459 L 20.5816 -14.4105 L 20.6156 -14.3619 L 20.6494 -14.3132 L 20.6831 -14.2645 L 20.6503 -14.2076 L 20.6174 -14.1507 L 20.5845 -14.0939 L 20.5516 -14.037 L 20.5187 -13.98 L 20.4857 -13.9231 L 20.4527 -13.8661 L 20.4197 -13.8092 L 20.3867 -13.7522 L 20.3536 -13.6951 L 20.3205 -13.6381 L 20.2874 -13.5811 L 20.2542 -13.524 L 20.221 -13.4669 L 20.1878 -13.4098 L 20.1546 -13.3527 L 20.1213 -13.2955 L 20.088 -13.2383 L 20.0546 -13.1811 L 20.0213 -13.1239 L 19.9879 -13.0667 L 19.9545 -13.0095 L 19.921 -12.9522 L 19.8875 -12.8949 L 19.854 -12.8376 L 19.8204 -12.7803 L 19.7869 -12.7229 L 19.7532 -12.6655 L 19.7196 -12.6081 L 19.6859 -12.5507 L 19.6522 -12.4933 L 19.6184 -12.4358 L 19.5847 -12.3784 L 19.5508 -12.3209 L 19.517 -12.2633 L 19.517 -12.2633 L 19.5835 -12.2689 L 19.65 -12.2744 L 19.7164 -12.2799 L 19.7828 -12.2854 L 19.8492 -12.2908 L 19.9156 -12.2963 L 19.9819 -12.3017 L 20.0481 -12.3071 L 20.1144 -12.3125 L 20.1806 -12.3178 L 20.2468 -12.3231 L 20.3129 -12.3285 L 20.379 -12.3338 L 20.4451 -12.339 L 20.5112 -12.3443 L 20.5772 -12.3495 L 20.6432 -12.3547 L 20.7091 -12.3599 L 20.7751 -12.3651 L 20.841 -12.3703 L 20.9068 -12.3754 L 20.9727 -12.3806 L 21.0385 -12.3857 L 21.1042 -12.3908 L 21.17 -12.3959 L 21.2357 -12.4009 L 21.3014 -12.406 L 21.3671 -12.411 L 21.4327 -12.416 L 21.4983 -12.421 L 21.5639 -12.426 L 21.6294 -12.4309 L 21.6949 -12.4359 L 21.7604 -12.4408 L 21.8259 -12.4457 L 21.8552 -12.3942 L 21.8844 -12.3426 L 21.9134 -12.2909 L 21.9424 -12.2392 L 21.9712 -12.1874 L 21.9999 -12.1355 L 22.0285 -12.0835 L 22.0569 -12.0315 L 22.0853 -11.9794 L 22.1135 -11.9273 L 22.1415 -11.8751 L 22.1695 -11.8228 L 22.1973 -11.7705 L 22.2251 -11.718 L 22.2526 -11.6656 L 22.2801 -11.613 L 22.3074 -11.5604 L 22.3347 -11.5078 L 22.3618 -11.455 L 22.3887 -11.4022 L 22.4156 -11.3494 L 22.4423 -11.2964 L 22.4689 -11.2435 L 22.4953 -11.1904 L 22.5217 -11.1373 L 22.5479 -11.0841 L 22.574 -11.0309 L 22.6 -10.9776 L 22.6735 -10.8249 L 22.6989 -10.7714 L 22.7243 -10.7178 L 22.7495 -10.6642 L 22.7746 -10.6105 L 22.7996 -10.5567 L 22.8244 -10.5029 L 22.8492 -10.449 L 22.8738 -10.395 L 22.8982 -10.341 L 22.9226 -10.287 L 22.9468 -10.2329 L 22.9709 -10.1787 L 22.9948 -10.1245 L 23.0186 -10.0702 L 23.0423 -10.0158 L 23.0659 -9.96142 L 23.0893 -9.90697 L 23.1127 -9.85246 L 23.1358 -9.79789 L 23.1589 -9.74327 L 23.1818 -9.6886 L 23.2046 -9.63387 L 23.2273 -9.57909 L 23.2498 -9.52426 L 23.2722 -9.46937 L 23.2945 -9.41443 L 23.3167 -9.35944 L 23.3387 -9.30439 L 23.294 -9.25628 L 23.2493 -9.20814 L 23.2046 -9.16 L 23.1599 -9.11185 L 23.1151 -9.06368 L 23.0703 -9.01551 L 23.0254 -8.96732 L 22.9806 -8.91911 L 22.9357 -8.8709 L 22.8907 -8.82268 L 22.8458 -8.77444 L 22.8008 -8.72619 L 22.7558 -8.67792 L 22.7107 -8.62965 L 22.6656 -8.58136 L 22.6205 -8.53306 L 22.5753 -8.48475 L 22.5301 -8.43643 L 22.4849 -8.38809 L 22.4397 -8.33974 L 22.3944 -8.29138 L 22.349 -8.243 L 22.3037 -8.19461 L 22.2583 -8.14621 L 22.2128 -8.0978 L 22.1674 -8.04937 L 22.1219 -8.00093 L 22.0763 -7.95248 L 22.0308 -7.90401 L 21.9851 -7.85553 L 21.9395 -7.80704 L 21.8938 -7.75853 L 21.8481 -7.71001 L 21.8023 -7.66148 L 21.7565 -7.61293 L 21.7565 -7.61293 L 21.8226 -7.60353 L 21.8886 -7.59412 L 21.9546 -7.5847 L 22.0206 -7.57526 L 22.0865 -7.56581 L 22.1524 -7.55635 L 22.2183 -7.54687 L 22.2841 -7.53738 L 22.3499 -7.52788 L 22.4156 -7.51837 L 22.4813 -7.50884 L 22.547 -7.49931 L 22.6126 -7.48976 L 22.6782 -7.4802 L 22.7438 -7.47063 L 22.8093 -7.46104 L 22.8748 -7.45145 L 22.9403 -7.44184 L 23.0057 -7.43223 L 23.0711 -7.4226 L 23.1364 -7.41296 L 23.2018 -7.40331 L 23.2671 -7.39365 L 23.3323 -7.38398 L 23.3976 -7.3743 L 23.4628 -7.36461 L 23.5279 -7.35491 L 23.5931 -7.3452 L 23.6582 -7.33548 L 23.7232 -7.32575 L 23.7883 -7.31601 L 23.8533 -7.30626 L 23.9182 -7.29651 L 23.9832 -7.28674 L 24.0481 -7.27696 L 24.0652 -7.2202 L 24.0822 -7.16339 L 24.099 -7.10655 L 24.1157 -7.04966 L 24.1323 -6.99274 L 24.1487 -6.93577 L 24.165 -6.87877 L 24.1812 -6.82173 L 24.1972 -6.76466 L 24.2131 -6.70754 L 24.2289 -6.65039 L 24.2445 -6.5932 L 24.26 -6.53597 L 24.2753 -6.47871 L 24.2906 -6.42141 L 24.3056 -6.36408 L 24.3206 -6.30671 L 24.3354 -6.2493 L 24.3501 -6.19186 L 24.3646 -6.13439 L 24.379 -6.07688 L 24.3933 -6.01934 L 24.4074 -5.96176 L 24.4214 -5.90415 L 24.4353 -5.84651 L 24.449 -5.78883 L 24.4626 -5.73113 L 24.4761 -5.67339 L 24.5138 -5.50822 L 24.5267 -5.45037 L 24.5395 -5.39248 L 24.5522 -5.33456 L 24.5647 -5.27661 L 24.5771 -5.21863 L 24.5893 -5.16062 L 24.6014 -5.10259 L 24.6134 -5.04452 L 24.6252 -4.98643 L 24.6369 -4.92831 L 24.6485 -4.87016 L 24.6599 -4.81199 L 24.6712 -4.75379 L 24.6823 -4.69556 L 24.6933 -4.6373 L 24.7042 -4.57902 L 24.7149 -4.52072 L 24.7255 -4.46239 L 24.736 -4.40403 L 24.7463 -4.34565 L 24.7565 -4.28725 L 24.7666 -4.22882 L 24.7765 -4.17037 L 24.7862 -4.11189 L 24.7959 -4.0534 L 24.8054 -3.99488 L 24.8147 -3.93633 L 24.824 -3.87777 L 24.7697 -3.84079 L 24.7154 -3.80381 L 24.6611 -3.76683 L 24.6068 -3.72984 L 24.5524 -3.69285 L 24.498 -3.65585 L 24.4436 -3.61884 L 24.3891 -3.58183 L 24.3346 -3.54482 L 24.2801 -3.5078 L 24.2255 -3.47078 L 24.1709 -3.43375 L 24.1163 -3.39672 L 24.0616 -3.35968 L 24.0069 -3.32264 L 23.9521 -3.28559 L 23.8974 -3.24854 L 23.8425 -3.21148 L 23.7877 -3.17442 L 23.7328 -3.13735 L 23.6779 -3.10028 L 23.6229 -3.0632 L 23.5679 -3.02612 L 23.5129 -2.98904 L 23.4578 -2.95194 L 23.4027 -2.91485 L 23.3476 -2.87775 L 23.2924 -2.84064 L 23.2372 -2.80354 L 23.1819 -2.76642 L 23.1266 -2.7293 L 23.0713 -2.69218 L 23.0159 -2.65505 L 22.9605 -2.61792 L 22.9051 -2.58078 L 22.9051 -2.58078 L 22.9674 -2.55692 L 23.0297 -2.53304 L 23.0919 -2.50917 L 23.1541 -2.48529 L 23.2163 -2.46141 L 23.2784 -2.43752 L 23.3405 -2.41363 L 23.4026 -2.38973 L 23.4646 -2.36583 L 23.5266 -2.34193 L 23.5885 -2.31802 L 23.6504 -2.29411 L 23.7123 -2.2702 L 23.7741 -2.24628 L 23.8359 -2.22236 L 23.8977 -2.19843 L 23.9594 -2.1745 L 24.0211 -2.15057 L 24.0827 -2.12664 L 24.1443 -2.1027 L 24.2059 -2.07876 L 24.2674 -2.05482 L 24.329 -2.03087 L 24.3904 -2.00692 L 24.4519 -1.98297 L 24.5133 -1.95901 L 24.5746 -1.93506 L 24.636 -1.9111 L 24.6973 -1.88713 L 24.7586 -1.86317 L 24.8198 -1.8392 L 24.881 -1.81523 L 24.9422 -1.79126 L 25.0033 -1.76728 L 25.0644 -1.7433 L 25.0685 -1.68416 L 25.0724 -1.625 L 25.0762 -1.56583 L 25.0798 -1.50666 L 25.0833 -1.44748 L 25.0866 -1.38828 L 25.0898 -1.32909 L 25.0929 -1.26988 L 25.0958 -1.21067 L 25.0986 -1.15145 L 25.1012 -1.09222 L 25.1038 -1.03299 L 25.1061 -0.973748 L 25.1084 -0.914504 L 25.1104 -0.855255 L 25.1124 -0.796001 L 25.1142 -0.736743 L 25.1159 -0.677481 L 25.1174 -0.618215 L 25.1188 -0.558946 L 25.12 -0.499673 L 25.1211 -0.440398 L 25.1221 -0.38112 L 25.1229 -0.32184 L 25.1236 -0.262558 L 25.1242 -0.203275 L 25.1246 -0.143991 L 25.1249 -0.0847058Z"
id="path1" />
</g>
</svg>
