<?xml version="1.0" encoding="UTF-8" standalone="no"?>
<svg version="1.1">
<g
style="fill:none;stroke:#000000;stroke-opacity:1;stroke-width:0.1">
<path d="M 26.4999 0.0796186 L 26.4997 0.134223 L 26.4993 0.188828 L 26.4989 0.243431 L 26.4983 0.298033 L 26.4977 0.352635 L 26.4969 0.407234 L 26.496 0.461832 L 26.495 0.516428 L 26.4938 0.571022 L 26.4926 0.625613 L 26.4913 0.680202 L 26.4898 0.734788 L 26.4882 0.78937 L 26.4866 0.84395 L 26.4848 0.898525 L 26.4829 0.953097 L 26.4808 1.00767 L 26.4787 1.06223 L 26.4765 1.11679 L 26.4741 1.17134 L 26.4716 1.22589 L 26.469 1.28044 L 26.4664 1.33497 L 26.4635 1.38951 L 26.4606 1.44403 L 26.4576 1.49856 L 26.4545 1.55307 L 26.4512 1.60758 L 26.4478 1.66208 L 26.4443 1.71657 L 26.4408 1.77106 L 26.3846 1.79168 L 26.3285 1.81229 L 26.2723 1.8329 L 26.2161 1.85352 L 26.1599 1.87413 L 26.1037 1.89473 L 26.0474 1.91534 L 25.9912 1.93594 L 25.9349 1.95655 L 25.8785 1.97715 L 25.8222 1.99775 L 25.7658 2.01835 L 25.7094 2.03894 L 25.653 2.05953 L 25.5965 2.08013 L 25.5401 2.10072 L 25.4836 2.1213 L 25.4271 2.14189 L 25.3705 2.16247 L 25.3139 2.18305 L 25.2573 2.20363 L 25.2007 2.22421 L 25.1441 2.24479 L 25.0874 2.26536 L 25.0307 2.28593 L 24.974 2.3065 L 24.9172 2.32706 L 24.8605 2.34762 L 24.8036 2.36818 L 24.7468 2.38874 L 24.69 2.4093 L 24.6331 2.42985 L 24.5762 2.4504 L 24.5192 2.47095 L 24.4623 2.49149 L 24.4053 2.51203 L 24.3482 2.53257 L 24.2912 2.55311 L 24.2912 2.55311 L 24.3427 2.58506 L 24.3942 2.617 L 24.4457 2.64894 L 24.4972 2.68088 L 24.5486 2.71282 L 24.6 2.74475 L 24.6513 2.77668 L 24.7027 2.80861 L 24.754 2.84053 L 24.8053 2.87246 L 24.8566 2.90437 L 24.9078 2.93629 L 24.959 2.9682 L 25.0102 3.00011 L 25.0613 3.03202 L 25.1125 3.06392 L 25.1636 3.09582 L 25.2146 3.12771 L 25.2657 3.15961 L 25.3167 3.1915 L 25.3677 3.22338 L 25.4187 3.25527 L 25.4697 3.28715 L 25.5206 3.31903 L 25.5715 3.3509 L 25.6224 3.38277 L 25.6733 3.41464 L 25.7241 3.44651 L 25.7749 3.47837 L 25.8257 3.51023 L 25.8765 3.54208 L 25.9272 3.57393 L 25.9779 3.60578 L 26.0286 3.63763 L 26.0793 3.66947 L 26.1299 3.70131 L 26.1806 3.73315 L 26.2312 3.76498 L 26.2234 3.81903 L 26.2154 3.87305 L 26.2074 3.92706 L 26.1993 3.98106 L 26.191 4.03503 L 26.1826 4.08899 L 26.1741 4.14294 L 26.1656 4.19686 L 26.1569 4.25077 L 26.148 4.30466 L 26.1391 4.35853 L 26.1301 4.41238 L 26.1209 4.46622 L 26.1117 4.52003 L 26.1023 4.57383 L 26.0928 4.6276 L 26.0832 4.68136 L 26.0735 4.73509 L 26.0637 4.78881 L 26.0538 4.84251 L 26.0438 4.89618 L 26.0336 4.94984 L 26.0234 5.00347 L 26.013 5.05708 L 26.0025 5.11067 L 25.9919 5.16424 L 25.9812 5.21779 L 25.9704 5.27132 L 25.9595 5.32482 L 25.9485 5.3783 L 25.9373 5.43176 L 25.9042 5.58751 L 25.8927 5.64088 L 25.881 5.69422 L 25.8692 5.74754 L 25.8573 5.80083 L 25.8453 5.8541 L 25.8332 5.90734 L 25.821 5.96056 L 25.8086 6.01376 L 25.7962 6.06692 L 25.7836 6.12007 L 25.7709 6.17318 L 25.7582 6.22627 L 25.7453 6.27934 L 25.7323 6.33237 L 25.7192 6.38538 L 25.706 6.43836 L 25.6927 6.49132 L 25.6792 6.54425 L 25.6657 6.59715 L 25.652 6.65002 L 25.6383 6.70286 L 25.6244 6.75568 L 25.6104 6.80847 L 25.5964 6.86122 L 25.5822 6.91395 L 25.5679 6.96665 L 25.5535 7.01932 L 25.5389 7.07196 L 25.5243 7.12457 L 25.5096 7.17715 L 25.4947 7.2297 L 25.4356 7.2382 L 25.3764 7.24669 L 25.3171 7.25517 L 25.2579 7.26365 L 25.1986 7.27213 L 25.1393 7.28059 L 25.08 7.28905 L 25.0207 7.2975 L 24.9613 7.30595 L 24.9019 7.31439 L 24.8425 7.32282 L 24.7831 7.33125 L 24.7237 7.33967 L 24.6642 7.34808 L 24.6047 7.35649 L 24.5452 7.36489 L 24.4857 7.37328 L 24.4261 7.38167 L 24.3665 7.39004 L 24.3069 7.39841 L 24.2472 7.40678 L 24.1876 7.41513 L 24.1279 7.42348 L 24.0682 7.43182 L 24.0085 7.44015 L 23.9487 7.44848 L 23.8889 7.45679 L 23.8291 7.4651 L 23.7693 7.4734 L 23.7094 7.4817 L 23.6495 7.48998 L 23.5896 7.49826 L 23.5297 7.50653 L 23.4697 7.51479 L 23.4097 7.52304 L 23.3497 7.53128 L 23.2896 7.53951 L 23.2296 7.54774 L 23.2296 7.54774 L 23.2733 7.5897 L 23.3171 7.63166 L 23.3608 7.67361 L 23.4045 7.71555 L 23.4481 7.75748 L 23.4917 7.7994 L 23.5354 7.84131 L 23.5789 7.88321 L 23.6225 7.92511 L 23.666 7.967 L 23.7095 8.00887 L 23.753 8.05074 L 23.7965 8.09261 L 23.8399 8.13446 L 23.8833 8.1763 L 23.9267 8.21814 L 23.97 8.25997 L 24.0134 8.30179 L 24.0567 8.3436 L 24.1 8.3854 L 24.1432 8.4272 L 24.1865 8.46898 L 24.2297 8.51076 L 24.2729 8.55253 L 24.316 8.59429 L 24.3592 8.63605 L 24.4023 8.67779 L 24.4454 8.71953 L 24.4885 8.76126 L 24.5315 8.80298 L 24.5746 8.8447 L 24.6176 8.8864 L 24.6606 8.9281 L 24.7035 8.96979 L 24.7465 9.01148 L 24.7894 9.05315 L 24.8323 9.09482 L 24.8752 9.13648 L 24.8563 9.18772 L 24.8373 9.23891 L 24.8182 9.29007 L 24.799 9.34119 L 24.7797 9.39227 L 24.7603 9.44332 L 24.7408 9.49432 L 24.7212 9.54528 L 24.7015 9.5962 L 24.6817 9.64707 L 24.6617 9.69791 L 24.6417 9.74871 L 24.6215 9.79946 L 24.6013 9.85018 L 24.581 9.90085 L 24.5605 9.95148 L 24.5399 10.0021 L 24.5193 10.0526 L 24.4985 10.1031 L 24.4776 10.1536 L 24.4567 10.204 L 24.4356 10.2544 L 24.4144 10.3047 L 24.3931 10.355 L 24.3717 10.4052 L 24.3502 10.4554 L 24.3286 10.5056 L 24.3069 10.5557 L 24.2851 10.6057 L 24.2632 10.6558 L 24.2412 10.7057 L 24.1765 10.8512 L 24.1541 10.901 L 24.1315 10.9508 L 24.1089 11.0005 L 24.0862 11.0501 L 24.0634 11.0997 L 24.0405 11.1493 L 24.0174 11.1988 L 23.9943 11.2483 L 23.9711 11.2977 L 23.9477 11.347 L 23.9243 11.3964 L 23.9008 11.4456 L 23.8771 11.4949 L 23.8534 11.544 L 23.8296 11.5932 L 23.8056 11.6422 L 23.7816 11.6913 L 23.7575 11.7403 L 23.7332 11.7892 L 23.7089 11.8381 L 23.6844 11.8869 L 23.6599 11.9357 L 23.6352 11.9844 L 23.6105 12.0331 L 23.5856 12.0817 L 23.5607 12.1303 L 23.5357 12.1788 L 23.5105 12.2273 L 23.4853 12.2757 L 23.4599 12.3241 L 23.4345 12.3724 L 23.3748 12.3684 L 23.3151 12.3644 L 23.2555 12.3604 L 23.1957 12.3563 L 23.136 12.3523 L 23.0763 12.3483 L 23.0165 12.3442 L 22.9567 12.3401 L 22.8969 12.3361 L 22.837 12.332 L 22.7772 12.3279 L 22.7173 12.3237 L 22.6574 12.3196 L 22.5975 12.3155 L 22.5375 12.3113 L 22.4776 12.3072 L 22.4176 12.303 L 22.3576 12.2988 L 22.2976 12.2946 L 22.2375 12.2904 L 22.1774 12.2862 L 22.1173 12.282 L 22.0572 12.2777 L 21.9971 12.2735 L 21.9369 12.2692 L 21.8767 12.2649 L 21.8165 12.2606 L 21.7563 12.2563 L 21.696 12.252 L 21.6358 12.2477 L 21.5755 12.2433 L 21.5151 12.239 L 21.4548 12.2346 L 21.3944 12.2302 L 21.334 12.2258 L 21.2736 12.2214 L 21.2131 12.2169 L 21.1527 12.2125 L 21.1527 12.2125 L 21.1868 12.2626 L 21.2208 12.3128 L 21.2548 12.3629 L 21.2889 12.413 L 21.3228 12.4631 L 21.3568 12.5132 L 21.3907 12.5632 L 21.4247 12.6133 L 21.4586 12.6633 L 21.4924 12.7133 L 21.5263 12.7633 L 21.5601 12.8133 L 21.5939 12.8633 L 21.6277 12.9133 L 21.6614 12.9632 L 21.6952 13.0132 L 21.7289 13.0631 L 21.7626 13.113 L 21.7962 13.1629 L 21.8299 13.2128 L 21.8635 13.2627 L 21.8971 13.3126 L 21.9307 13.3624 L 21.9643 13.4122 L 21.9978 13.4621 L 22.0313 13.5119 L 22.0648 13.5617 L 22.0983 13.6115 L 22.1318 13.6612 L 22.1652 13.711 L 22.1986 13.7608 L 22.232 13.8105 L 22.2654 13.8602 L 22.2988 13.9099 L 22.3321 13.9596 L 22.3654 14.0093 L 22.3987 14.059 L 22.432 14.1087 L 22.4029 14.1549 L 22.3737 14.201 L 22.3444 14.2471 L 22.315 14.2931 L 22.2855 14.339 L 22.2559 14.3849 L 22.2262 14.4307 L 22.1964 14.4765 L 22.1665 14.5222 L 22.1366 14.5679 L 22.1065 14.6134 L 22.0763 14.659 L 22.0461 14.7044 L 22.0157 14.7498 L 21.9853 14.7952 L 21.9548 14.8404 L 21.9241 14.8856 L 21.8934 14.9308 L 21.8626 14.9759 L 21.8317 15.0209 L 21.8007 15.0658 L 21.7696 15.1107 L 21.7384 15.1556 L 21.7072 15.2003 L 21.6758 15.245 L 21.6443 15.2896 L 21.6128 15.3342 L 21.5811 15.3787 L 21.5494 15.4231 L 21.5176 15.4675 L 21.4857 15.5118 L 21.3921 15.6407 L 21.3598 15.6847 L 21.3274 15.7287 L 21.295 15.7726 L 21.2624 15.8164 L 21.2298 15.8602 L 21.1971 15.9039 L 21.1642 15.9476 L 21.1313 15.9912 L 21.0983 16.0347 L 21.0652 16.0781 L 21.0321 16.1215 L 20.9988 16.1648 L 20.9655 16.208 L 20.932 16.2512 L 20.8985 16.2943 L 20.8649 16.3373 L 20.8312 16.3803 L 20.7974 16.4232 L 20.7635 16.466 L 20.7295 16.5087 L 20.6954 16.5514 L 20.6613 16.594 L 20.6271 16.6365 L 20.5927 16.679 L 20.5583 16.7214 L 20.5238 16.7637 L 20.4892 16.806 L 20.4546 16.8482 L 20.4198 16.8903 L 20.3849 16.9323 L 20.35 16.9743 L 20.2925 16.958 L 20.235 16.9417 L 20.1774 16.9253 L 20.1198 16.909 L 20.0622 16.8926 L 20.0046 16.8762 L 19.947 16.8598 L 19.8894 16.8434 L 19.8317 16.827 L 19.774 16.8106 L 19.7163 16.7941 L 19.6586 16.7776 L 19.6009 16.7611 L 19.5431 16.7446 L 19.4854 16.7281 L 19.4276 16.7116 L 19.3698 16.695 L 19.3119 16.6785 L 19.2541 16.6619 L 19.1962 16.6453 L 19.1384 16.6287 L 19.0805 16.612 L 19.0225 16.5954 L 18.9646 16.5787 L 18.9066 16.562 L 18.8486 16.5453 L 18.7907 16.5286 L 18.7326 16.5119 L 18.6746 16.4951 L 18.6165 16.4783 L 18.5585 16.4616 L 18.5003 16.4448 L 18.4422 16.4279 L 18.3841 16.4111 L 18.3259 16.3942 L 18.2677 16.3773 L 18.2095 16.3604 L 18.1513 16.3435 L 18.1513 16.3435 L 18.1742 16.3997 L 18.1971 16.4558 L 18.22 16.5119 L 18.2428 16.568 L 18.2657 16.624 L 18.2885 16.6801 L 18.3113 16.7361 L 18.334 16.7921 L 18.3568 16.8481 L 18.3795 16.904 L 18.4022 16.96 L 18.4249 17.0159 L 18.4476 17.0719 L 18.4702 17.1278 L 18.4929 17.1836 L 18.5155 17.2395 L 18.5381 17.2953 L 18.5607 17.3512 L 18.5832 17.407 L 18.6058 17.4628 L 18.6283 17.5186 L 18.6508 17.5743 L 18.6733 17.6301 L 18.6957 17.6858 L 18.7182 17.7415 L 18.7406 17.7972 L 18.763 17.8529 L 18.7854 17.9085 L 18.8078 17.9642 L 18.8302 18.0198 L 18.8525 18.0754 L 18.8748 18.131 L 18.8972 18.1866 L 18.9195 18.2421 L 18.9417 18.2977 L 18.964 18.3532 L 18.9862 18.4087 L 19.0085 18.4642 L 18.9704 18.5034 L 18.9322 18.5424 L 18.894 18.5814 L 18.8556 18.6203 L 18.8172 18.6591 L 18.7787 18.6978 L 18.7402 18.7365 L 18.7015 18.7751 L 18.6628 18.8136 L 18.624 18.852 L 18.5851 18.8903 L 18.5461 18.9286 L 18.5071 18.9667 L 18.468 19.0048 L 18.4288 19.0429 L 18.3895 19.0808 L 18.3501 19.1186 L 18.3107 19.1564 L 18.2712 19.1941 L 18.2316 19.2317 L 18.1919 19.2692 L 18.1522 19.3067 L 18.1124 19.344 L 18.0725 19.3813 L 18.0325 19.4185 L 17.9924 19.4556 L 17.9523 19.4927 L 17.9121 19.5296 L 17.8718 19.5665 L 17.8315 19.6033 L 17.791 19.64 L 17.6727 19.7465 L 17.632 19.7829 L 17.5912 19.8192 L 17.5503 19.8554 L 17.5094 19.8915 L 17.4683 19.9276 L 17.4272 19.9635 L 17.3861 19.9994 L 17.3448 20.0352 L 17.3035 20.0709 L 17.2621 20.1065 L 17.2206 20.142 L 17.1791 20.1774 L 17.1375 20.2128 L 17.0958 20.2481 L 17.054 20.2832 L 17.0122 20.3183 L 16.9703 20.3534 L 16.9283 20.3883 L 16.8863 20.4231 L 16.8442 20.4579 L 16.802 20.4925 L 16.7597 20.5271 L 16.7174 20.5616 L 16.675 20.596 L 16.6325 20.6303 L 16.5899 20.6646 L 16.5473 20.6987 L 16.5046 20.7327 L 16.4619 20.7667 L 16.4191 20.8006 L 16.3762 20.8344 L 16.3233 20.8065 L 16.2704 20.7785 L 16.2175 20.7506 L 16.1646 20.7226 L 16.1117 20.6946 L 16.0587 20.6666 L 16.0058 20.6386 L 15.9528 20.6106 L 15.8998 20.5825 L 15.8468 20.5545 L 15.7938 20.5264 L 15.7408 20.4983 L 15.6877 20.4701 L 15.6347 20.442 L 15.5816 20.4138 L 15.5285 20.3856 L 15.4754 20.3574 L 15.4223 20.3292 L 15.3692 20.3009 L 15.316 20.2727 L 15.2628 20.2444 L 15.2097 20.2161 L 15.1565 20.1877 L 15.1033 20.1594 L 15.05 20.131 L 14.9968 20.1026 L 14.9435 20.0742 L 14.8903 20.0458 L 14.837 20.0173 L 14.7837 19.9889 L 14.7304 19.9604 L 14.677 19.9318 L 14.6237 19.9033 L 14.5703 19.8747 L 14.5169 19.8461 L 14.4635 19.8175 L 14.4101 19.7889 L 14.3567 19.7602 L 14.3567 19.7602 L 14.3674 19.8199 L 14.3781 19.8796 L 14.3888 19.9392 L 14.3995 19.9988 L 14.4102 20.0584 L 14.4209 20.1179 L 14.4315 20.1775 L 14.4421 20.237 L 14.4527 20.2965 L 14.4633 20.356 L 14.4739 20.4154 L 14.4845 20.4749 L 14.495 20.5343 L 14.5056 20.5936 L 14.5161 20.653 L 14.5266 20.7124 L 14.5371 20.7717 L 14.5475 20.831 L 14.558 20.8903 L 14.5685 20.9495 L 14.5789 21.0088 L 14.5893 21.068 L 14.5997 21.1272 L 14.6101 21.1864 L 14.6205 21.2455 L 14.6308 21.3047 L 14.6412 21.3638 L 14.6515 21.4229 L 14.6618 21.482 L 14.6722 21.541 L 14.6825 21.6001 L 14.6927 21.6591 L 14.703 21.7181 L 14.7133 21.7771 L 14.7235 21.836 L 14.7337 21.895 L 14.744 21.9539 L 14.7542 22.0128 L 14.7088 22.0432 L 14.6633 22.0734 L 14.6178 22.1036 L 14.5722 22.1337 L 14.5266 22.1637 L 14.4809 22.1936 L 14.4351 22.2233 L 14.3893 22.253 L 14.3434 22.2826 L 14.2975 22.3122 L 14.2515 22.3416 L 14.2054 22.3709 L 14.1593 22.4001 L 14.1131 22.4292 L 14.0668 22.4583 L 14.0205 22.4872 L 13.9742 22.5161 L 13.9277 22.5448 L 13.8813 22.5735 L 13.8347 22.602 L 13.7881 22.6305 L 13.7414 22.6588 L 13.6947 22.6871 L 13.6479 22.7153 L 13.6011 22.7433 L 13.5542 22.7713 L 13.5073 22.7992 L 13.4603 22.827 L 13.4132 22.8547 L 13.3661 22.8823 L 13.3189 22.9098 L 13.181 22.9894 L 13.1336 23.0165 L 13.0861 23.0435 L 13.0386 23.0704 L 12.9911 23.0972 L 12.9434 23.124 L 12.8958 23.1506 L 12.848 23.1771 L 12.8002 23.2035 L 12.7524 23.2299 L 12.7045 23.2561 L 12.6566 23.2822 L 12.6086 23.3082 L 12.5605 23.3342 L 12.5124 23.36 L 12.4642 23.3857 L 12.416 23.4114 L 12.3678 23.4369 L 12.3194 23.4623 L 12.2711 23.4877 L 12.2226 23.5129 L 12.1742 23.538 L 12.1256 23.5631 L 12.0771 23.588 L 12.0284 23.6129 L 11.9797 23.6376 L 11.931 23.6622 L 11.8822 23.6868 L 11.8334 23.7112 L 11.7845 23.7355 L 11.7356 23.7598 L 11.6866 23.7839 L 11.6407 23.7456 L 11.5948 23.7073 L 11.5488 23.669 L 11.5029 23.6306 L 11.4569 23.5922 L 11.411 23.5538 L 11.365 23.5154 L 11.319 23.477 L 11.273 23.4385 L 11.227 23.4 L 11.181 23.3615 L 11.135 23.323 L 11.0889 23.2845 L 11.0429 23.2459 L 10.9968 23.2073 L 10.9508 23.1687 L 10.9047 23.1301 L 10.8586 23.0914 L 10.8125 23.0527 L 10.7664 23.014 L 10.7203 22.9753 L 10.6741 22.9366 L 10.628 22.8978 L 10.5818 22.859 L 10.5357 22.8202 L 10.4895 22.7813 L 10.4433 22.7425 L 10.3971 22.7036 L 10.3509 22.6647 L 10.3047 22.6257 L 10.2585 22.5868 L 10.2122 22.5478 L 10.166 22.5088 L 10.1197 22.4697 L 10.0734 22.4307 L 10.0272 22.3916 L 9.98085 22.3525 L 9.93454 22.3133 L 9.93454 22.3133 L 9.93264 22.374 L 9.93073 22.4345 L 9.9288 22.4951 L 9.92687 22.5556 L 9.92492 22.6161 L 9.92297 22.6766 L 9.921 22.737 L 9.91902 22.7975 L 9.91703 22.8579 L 9.91503 22.9182 L 9.91301 22.9786 L 9.91099 23.0389 L 9.90896 23.0992 L 9.90692 23.1595 L 9.90486 23.2198 L 9.9028 23.28 L 9.90073 23.3402 L 9.89864 23.4004 L 9.89655 23.4605 L 9.89445 23.5207 L 9.89234 23.5808 L 9.89021 23.6409 L 9.88808 23.701 L 9.88594 23.761 L 9.88379 23.821 L 9.88163 23.881 L 9.87946 23.941 L 9.87729 24.001 L 9.8751 24.0609 L 9.8729 24.1208 L 9.8707 24.1807 L 9.86848 24.2406 L 9.86626 24.3004 L 9.86403 24.3603 L 9.86179 24.4201 L 9.85954 24.4799 L 9.85729 24.5396 L 9.85502 24.5994 L 9.80431 24.6196 L 9.75356 24.6398 L 9.70277 24.6598 L 9.65193 24.6798 L 9.60106 24.6996 L 9.55014 24.7193 L 9.49919 24.7389 L 9.44819 24.7585 L 9.39715 24.7779 L 9.34608 24.7972 L 9.29496 24.8164 L 9.2438 24.8355 L 9.19261 24.8545 L 9.14137 24.8734 L 9.0901 24.8922 L 9.03879 24.9108 L 8.98744 24.9294 L 8.93605 24.9479 L 8.88463 24.9662 L 8.83316 24.9845 L 8.78166 25.0026 L 8.73012 25.0207 L 8.67855 25.0386 L 8.62694 25.0565 L 8.57529 25.0742 L 8.5236 25.0918 L 8.47188 25.1093 L 8.42012 25.1267 L 8.36833 25.144 L 8.3165 25.1612 L 8.26464 25.1783 L 8.11319 25.2275 L 8.06119 25.2442 L 8.00916 25.2607 L 7.95709 25.2772 L 7.90499 25.2935 L 7.85285 25.3097 L 7.80068 25.3259 L 7.74848 25.3419 L 7.69624 25.3578 L 7.64397 25.3736 L 7.59167 25.3893 L 7.53934 25.4049 L 7.48698 25.4204 L 7.43458 25.4357 L 7.38215 25.451 L 7.32969 25.4662 L 7.2772 25.4812 L 7.22468 25.4962 L 7.17213 25.511 L 7.11955 25.5257 L 7.06693 25.5403 L 7.01429 25.5548 L 6.96162 25.5692 L 6.90892 25.5835 L 6.85619 25.5977 L 6.80342 25.6118 L 6.75064 25.6257 L 6.69782 25.6396 L 6.64497 25.6533 L 6.5921 25.667 L 6.53919 25.6805 L 6.48626 25.6939 L 6.44931 25.6469 L 6.41236 25.5999 L 6.3754 25.5529 L 6.33843 25.5058 L 6.30146 25.4587 L 6.26449 25.4116 L 6.2275 25.3645 L 6.19052 25.3173 L 6.15352 25.2701 L 6.11653 25.2229 L 6.07952 25.1757 L 6.04251 25.1284 L 6.0055 25.0812 L 5.96847 25.0339 L 5.93145 24.9865 L 5.89442 24.9392 L 5.85738 24.8918 L 5.82033 24.8444 L 5.78328 24.797 L 5.74623 24.7496 L 5.70917 24.7021 L 5.6721 24.6546 L 5.63503 24.6071 L 5.59795 24.5596 L 5.56087 24.512 L 5.52378 24.4644 L 5.48668 24.4168 L 5.44958 24.3692 L 5.41247 24.3215 L 5.37536 24.2738 L 5.33824 24.2261 L 5.30112 24.1783 L 5.26398 24.1305 L 5.22685 24.0827 L 5.18971 24.0349 L 5.15256 23.9871 L 5.1154 23.9392 L 5.07824 23.8913 L 5.07824 23.8913 L 5.06378 23.9501 L 5.04932 24.009 L 5.03485 24.0678 L 5.02037 24.1266 L 5.00589 24.1854 L 4.9914 24.2441 L 4.9769 24.3029 L 4.9624 24.3616 L 4.9479 24.4202 L 4.93339 24.4789 L 4.91887 24.5375 L 4.90435 24.5961 L 4.88983 24.6546 L 4.8753 24.7132 L 4.86076 24.7717 L 4.84622 24.8302 L 4.83167 24.8886 L 4.81712 24.9471 L 4.80257 25.0055 L 4.78801 25.0639 L 4.77344 25.1222 L 4.75887 25.1806 L 4.7443 25.2389 L 4.72972 25.2972 L 4.71514 25.3554 L 4.70055 25.4137 L 4.68596 25.4719 L 4.67136 25.5301 L 4.65676 25.5883 L 4.64215 25.6464 L 4.62755 25.7045 L 4.61293 25.7626 L 4.59832 25.8207 L 4.58369 25.8788 L 4.56907 25.9368 L 4.55444 25.9948 L 4.53981 26.0528 L 4.52517 26.1108 L 4.47136 26.12 L 4.41753 26.1292 L 4.36367 26.1383 L 4.30981 26.1472 L 4.25592 26.156 L 4.20201 26.1647 L 4.14809 26.1733 L 4.09415 26.1818 L 4.04019 26.1902 L 3.98621 26.1985 L 3.93222 26.2066 L 3.87821 26.2147 L 3.82419 26.2226 L 3.77015 26.2304 L 3.71609 26.2382 L 3.66201 26.2458 L 3.60793 26.2532 L 3.55382 26.2606 L 3.4997 26.2679 L 3.44557 26.275 L 3.39142 26.2821 L 3.33725 26.289 L 3.28308 26.2958 L 3.22889 26.3026 L 3.17468 26.3092 L 3.12046 26.3156 L 3.06623 26.322 L 3.01198 26.3283 L 2.95773 26.3344 L 2.90346 26.3405 L 2.84917 26.3464 L 2.69081 26.363 L 2.63648 26.3685 L 2.58214 26.3739 L 2.52779 26.3792 L 2.47343 26.3843 L 2.41906 26.3894 L 2.36467 26.3943 L 2.31028 26.3991 L 2.25588 26.4038 L 2.20147 26.4084 L 2.14705 26.4129 L 2.09262 26.4172 L 2.03818 26.4215 L 1.98373 26.4256 L 1.92927 26.4297 L 1.87481 26.4336 L 1.82034 26.4374 L 1.76586 26.4411 L 1.71137 26.4447 L 1.65687 26.4482 L 1.60237 26.4515 L 1.54786 26.4548 L 1.49335 26.4579 L 1.43883 26.4609 L 1.3843 26.4638 L 1.32976 26.4666 L 1.27523 26.4693 L 1.22068 26.4719 L 1.16613 26.4743 L 1.11158 26.4767 L 1.05702 26.4789 L 1.00245 26.481 L 0.976083 26.4274 L 0.949713 26.3737 L 0.923343 26.32 L 0.896971 26.2663 L 0.870599 26.2125 L 0.844225 26.1587 L 0.817852 26.105 L 0.791477 26.0511 L 0.765102 25.9973 L 0.738726 25.9434 L 0.712349 25.8895 L 0.685972 25.8356 L 0.659594 25.7817 L 0.633215 25.7277 L 0.606836 25.6738 L 0.580456 25.6197 L 0.554076 25.5657 L 0.527695 25.5116 L 0.501313 25.4576 L 0.474932 25.4035 L 0.448549 25.3493 L 0.422166 25.2952 L 0.395783 25.241 L 0.369399 25.1868 L 0.343015 25.1325 L 0.316631 25.0783 L 0.290246 25.024 L 0.263861 24.9697 L 0.237476 24.9153 L 0.21109 24.8609 L 0.184705 24.8065 L 0.158319 24.7521 L 0.131932 24.6977 L 0.105546 24.6432 L 0.0791597 24.5887 L 0.0527732 24.5342 L 0.0263866 24.4796 L 5.32907e-15 24.425 L -2.33787e-15 24.425 L -0.0263866 24.4796 L -0.0527732 24.5342 L -0.0791597 24.5887 L -0.105546 24.6432 L -0.131932 24.6977 L -0.158319 24.7521 L -0.184705 24.8065 L -0.21109 24.8609 L -0.237476 24.9153 L -0.263861 24.9697 L -0.290246 25.024 L -0.316631 25.0783 L -0.343015 25.1325 L -0.369399 25.1868 L -0.395783 25.241 L -0.422166 25.2952 L -0.448549 25.3493 L -0.474932 25.4035 L -0.501313 25.4576 L -0.527695 25.5116 L -0.554076 25.5657 L -0.580456 25.6197 L -0.606836 25.6738 L -0.633215 25.7277 L -0.659594 25.7817 L -0.685972 25.8356 L -0.712349 25.8895 L -0.738726 25.9434 L -0.765102 25.9973 L -0.791477 26.0511 L -0.817852 26.105 L -0.844225 26.1587 L -0.870599 26.2125 L -0.896971 26.2663 L -0.923343 26.32 L -0.949713 26.3737 L -0.976083 26.4274 L -1.00245 26.481 L -1.05702 26.4789 L -1.11158 26.4767 L -1.16613 26.4743 L -1.22068 26.4719 L -1.27523 26.4693 L -1.32976 26.4666 L -1.3843 26.4638 L -1.43883 26.4609 L -1.49335 26.4579 L -1.54786 26.4548 L -1.60237 26.4515 L -1.65687 26.4482 L -1.71137 26.4447 L -1.76586 26.4411 L -1.82034 26.4374 L -1.87481 26.4336 L -1.92927 26.4297 L -1.98373 26.4256 L -2.03818 26.4215 L -2.09262 26.4172 L -2.14705 26.4129 L -2.20147 26.4084 L -2.25588 26.4038 L -2.31028 26.3991 L -2.36467 26.3943 L -2.41906 26.3894 L -2.47343 26.3843 L -2.52779 26.3792 L -2.58214 26.3739 L -2.63648 26.3685 L -2.69081 26.363 L -2.84917 26.3464 L -2.90346 26.3405 L -2.95773 26.3344 L -3.01198 26.3283 L -3.06623 26.322 L -3.12046 26.3156 L -3.17468 26.3092 L -3.22889 26.3026 L -3.28308 26.2958 L -3.33725 26.289 L -3.39142 26.2821 L -3.44557 26.275 L -3.4997 26.2679 L -3.55382 26.2606 L -3.60793 26.2532 L -3.66201 26.2458 L -3.71609 26.2382 L -3.77015 26.2304 L -3.82419 26.2226 L -3.87821 26.2147 L -3.93222 26.2066 L -3.98621 26.1985 L -4.04019 26.1902 L -4.09415 26.1818 L -4.14809 26.1733 L -4.20201 26.1647 L -4.25592 26.156 L -4.30981 26.1472 L -4.36367 26.1383 L -4.41753 26.1292 L -4.47136 26.12 L -4.52517 26.1108 L -4.53981 26.0528 L -4.55444 25.9948 L -4.56907 25.9368 L -4.58369 25.8788 L -4.59832 25.8207 L -4.61293 25.7626 L -4.62755 25.7045 L -4.64215 25.6464 L -4.65676 25.5883 L -4.67136 25.5301 L -4.68596 25.4719 L -4.70055 25.4137 L -4.71514 25.3554 L -4.72972 25.2972 L -4.7443 25.2389 L -4.75887 25.1806 L -4.77344 25.1222 L -4.78801 25.0639 L -4.80257 25.0055 L -4.81712 24.9471 L -4.83167 24.8886 L -4.84622 24.8302 L -4.86076 24.7717 L -4.8753 24.7132 L -4.88983 24.6546 L -4.90435 24.5961 L -4.91887 24.5375 L -4.93339 24.4789 L -4.9479 24.4202 L -4.9624 24.3616 L -4.9769 24.3029 L -4.9914 24.2441 L -5.00589 24.1854 L -5.02037 24.1266 L -5.03485 24.0678 L -5.04932 24.009 L -5.06378 23.9501 L -5.07824 23.8913 L -5.07824 23.8913 L -5.1154 23.9392 L -5.15256 23.9871 L -5.18971 24.0349 L -5.22685 24.0827 L -5.26398 24.1305 L -5.30112 24.1783 L -5.33824 24.2261 L -5.37536 24.2738 L -5.41247 24.3215 L -5.44958 24.3692 L -5.48668 24.4168 L -5.52378 24.4644 L -5.56087 24.512 L -5.59795 24.5596 L -5.63503 24.6071 L -5.6721 24.6546 L -5.70917 24.7021 L -5.74623 24.7496 L -5.78328 24.797 L -5.82033 24.8444 L -5.85738 24.8918 L -5.89442 24.9392 L -5.93145 24.9865 L -5.96847 25.0339 L -6.0055 25.0812 L -6.04251 25.1284 L -6.07952 25.1757 L -6.11653 25.2229 L -6.15352 25.2701 L -6.19052 25.3173 L -6.2275 25.3645 L -6.26449 25.4116 L -6.30146 25.4587 L -6.33843 25.5058 L -6.3754 25.5529 L -6.41236 25.5999 L -6.44931 25.6469 L -6.48626 25.6939 L -6.53919 25.6805 L -6.5921 25.667 L -6.64497 25.6533 L -6.69782 25.6396 L -6.75064 25.6257 L -6.80342 25.6118 L -6.85619 25.5977 L -6.90892 25.5835 L -6.96162 25.5692 L -7.01429 25.5548 L -7.06693 25.5403 L -7.11955 25.5257 L -7.17213 25.511 L -7.22468 25.4962 L -7.2772 25.4812 L -7.32969 25.4662 L -7.38215 25.451 L -7.43458 25.4357 L -7.48698 25.4204 L -7.53934 25.4049 L -7.59167 25.3893 L -7.64397 25.3736 L -7.69624 25.3578 L -7.74848 25.3419 L -7.80068 25.3259 L -7.85285 25.3097 L -7.90499 25.2935 L -7.95709 25.2772 L -8.00916 25.2607 L -8.06119 25.2442 L -8.11319 25.2275 L -8.26464 25.1783 L -8.3165 25.1612 L -8.36833 25.144 L -8.42012 25.1267 L -8.47188 25.1093 L -8.5236 25.0918 L -8.57529 25.0742 L -8.62694 25.0565 L -8.67855 25.0386 L -8.73012 25.0207 L -8.78166 25.0026 L -8.83316 24.9845 L -8.88463 24.9662 L -8.93605 24.9479 L -8.98744 24.9294 L -9.03879 24.9108 L -9.0901 24.8922 L -9.14137 24.8734 L -9.19261 24.8545 L -9.2438 24.8355 L -9.29496 24.8164 L -9.34608 24.7972 L -9.39715 24.7779 L -9.44819 24.7585 L -9.49919 24.7389 L -9.55014 24.7193 L -9.60106 24.6996 L -9.65193 24.6798 L -9.70277 24.6598 L -9.75356 24.6398 L -9.80431 24.6196 L -9.85502 24.5994 L -9.85729 24.5396 L -9.85954 24.4799 L -9.86179 24.4201 L -9.86403 24.3603 L -9.86626 24.3004 L -9.86848 24.2406 L -9.8707 24.1807 L -9.8729 24.1208 L -9.8751 24.0609 L -9.87729 24.001 L -9.87946 23.941 L -9.88163 23.881 L -9.88379 23.821 L -9.88594 23.761 L -9.88808 23.701 L -9.89021 23.6409 L -9.89234 23.5808 L -9.89445 23.5207 L -9.89655 23.4605 L -9.89864 23.4004 L -9.90073 23.3402 L -9.9028 23.28 L -9.90486 23.2198 L -9.90692 23.1595 L -9.90896 23.0992 L -9.91099 23.0389 L -9.91301 22.9786 L -9.91503 22.9182 L -9.91703 22.8579 L -9.91902 22.7975 L -9.921 22.737 L -9.92297 22.6766 L -9.92492 22.6161 L -9.92687 22.5556 L -9.9288 22.4951 L -9.93073 22.4345 L -9.93264 22.374 L -9.93454 22.3133 L -9.93454 22.3133 L -9.98085 22.3525 L -10.0272 22.3916 L -10.0734 22.4307 L -10.1197 22.4697 L -10.166 22.5088 L -10.2122 22.5478 L -10.2585 22.5868 L -10.3047 22.6257 L -10.3509 22.6647 L -10.3971 22.7036 L -10.4433 22.7425 L -10.4895 22.7813 L -10.5357 22.8202 L -10.5818 22.859 L -10.628 22.8978 L -10.6741 22.9366 L -10.7203 22.9753 L -10.7664 23.014 L -10.8125 23.0527 L -10.8586 23.0914 L -10.9047 23.1301 L -10.9508 23.1687 L -10.9968 23.2073 L -11.0429 23.2459 L -11.0889 23.2845 L -11.135 23.323 L -11.181 23.3615 L -11.227 23.4 L -11.273 23.4385 L -11.319 23.477 L -11.365 23.5154 L -11.411 23.5538 L -11.4569 23.5922 L -11.5029 23.6306 L -11.5488 23.669 L -11.5948 23.7073 L -11.6407 23.7456 L -11.6866 23.7839 L -11.7356 23.7598 L -11.7845 23.7355 L -11.8334 23.7112 L -11.8822 23.6868 L -11.931 23.6622 L -11.9797 23.6376 L -12.0284 23.6129 L -12.0771 23.588 L -12.1256 23.5631 L -12.1742 23.538 L -12.2226 23.5129 L -12.2711 23.4877 L -12.3194 23.4623 L -12.3678 23.4369 L -12.416 23.4114 L -12.4642 23.3857 L -12.5124 23.36 L -12.5605 23.3342 L -12.6086 23.3082 L -12.6566 23.2822 L -12.7045 23.2561 L -12.7524 23.2299 L -12.8002 23.2035 L -12.848 23.1771 L -12.8958 23.1506 L -12.9434 23.124 L -12.9911 23.0972 L -13.0386 23.0704 L -13.0861 23.0435 L -13.1336 23.0165 L -13.181 22.9894 L -13.3189 22.9098 L -13.3661 22.8823 L -13.4132 22.8547 L -13.4603 22.827 L -13.5073 22.7992 L -13.5542 22.7713 L -13.6011 22.7433 L -13.6479 22.7153 L -13.6947 22.6871 L -13.7414 22.6588 L -13.7881 22.6305 L -13.8347 22.602 L -13.8813 22.5735 L -13.9277 22.5448 L -13.9742 22.5161 L -14.0205 22.4872 L -14.0668 22.4583 L -14.1131 22.4292 L -14.1593 22.4001 L -14.2054 22.3709 L -14.2515 22.3416 L -14.2975 22.3122 L -14.3434 22.2826 L -14.3893 22.253 L -14.4351 22.2233 L -14.4809 22.1936 L -14.5266 22.1637 L -14.5722 22.1337 L -14.6178 22.1036 L -14.6633 22.0734 L -14.7088 22.0432 L -14.7542 22.0128 L -14.744 21.9539 L -14.7337 21.895 L -14.7235 21.836 L -14.7133 21.7771 L -14.703 21.7181 L -14.6927 21.6591 L -14.6825 21.6001 L -14.6722 21.541 L -14.6618 21.482 L -14.6515 21.4229 L -14.6412 21.3638 L -14.6308 21.3047 L -14.6205 21.2455 L -14.6101 21.1864 L -14.5997 21.1272 L -14.5893 21.068 L -14.5789 21.0088 L -14.5685 20.9495 L -14.558 20.8903 L -14.5475 20.831 L -14.5371 20.7717 L -14.5266 20.7124 L -14.5161 20.653 L -14.5056 20.5936 L -14.495 20.5343 L -14.4845 20.4749 L -14.4739 20.4154 L -14.4633 20.356 L -14.4527 20.2965 L -14.4421 20.237 L -14.4315 20.1775 L -14.4209 20.1179 L -14.4102 20.0584 L -14.3995 19.9988 L -14.3888 19.9392 L -14.3781 19.8796 L -14.3674 19.8199 L -14.3567 19.7602 L -14.3567 19.7602 L -14.4101 19.7889 L -14.4635 19.8175 L -14.5169 19.8461 L -14.5703 19.8747 L -14.6237 19.9033 L -14.677 19.9318 L -14.7304 19.9604 L -14.7837 19.9889 L -14.837 20.0173 L -14.8903 20.0458 L -14.9435 20.0742 L -14.9968 20.1026 L -15.05 20.131 L -15.1033 20.1594 L -15.1565 20.1877 L -15.2097 20.2161 L -15.2628 20.2444 L -15.316 20.2727 L -15.3692 20.3009 L -15.4223 20.3292 L -15.4754 20.3574 L -15.5285 20.3856 L -15.5816 20.4138 L -15.6347 20.442 L -15.6877 20.4701 L -15.7408 20.4983 L -15.7938 20.5264 L -15.8468 20.5545 L -15.8998 20.5825 L -15.9528 20.6106 L -16.0058 20.6386 L -16.0587 20.6666 L -16.1117 20.6946 L -16.1646 20.7226 L -16.2175 20.7506 L -16.2704 20.7785 L -16.3233 20.8065 L -16.3762 20.8344 L -16.4191 20.8006 L -16.4619 20.7667 L -16.5046 20.7327 L -16.5473 20.6987 L -16.5899 20.6646 L -16.6325 20.6303 L -16.675 20.596 L -16.7174 20.5616 L -16.7597 20.5271 L -16.802 20.4925 L -16.8442 20.4579 L -16.8863 20.4231 L -16.9283 20.3883 L -16.9703 20.3534 L -17.0122 20.3183 L -17.054 20.2832 L -17.0958 20.2481 L -17.1375 20.2128 L -17.1791 20.1774 L -17.2206 20.142 L -17.2621 20.1065 L -17.3035 20.0709 L -17.3448 20.0352 L -17.3861 19.9994 L -17.4272 19.9635 L -17.4683 19.9276 L -17.5094 19.8915 L -17.5503 19.8554 L -17.5912 19.8192 L -17.632 19.7829 L -17.6727 19.7465 L -17.791 19.64 L -17.8315 19.6033 L -17.8718 19.5665 L -17.9121 19.5296 L -17.9523 19.4927 L -17.9924 19.4556 L -18.0325 19.4185 L -18.0725 19.3813 L -18.1124 19.344 L -18.1522 19.3067 L -18.1919 19.2692 L -18.2316 19.2317 L -18.2712 19.1941 L -18.3107 19.1564 L -18.3501 19.1186 L -18.3895 19.0808 L -18.4288 19.0429 L -18.468 19.0048 L -18.5071 18.9667 L -18.5461 18.9286 L -18.5851 18.8903 L -18.624 18.852 L -18.6628 18.8136 L -18.7015 18.7751 L -18.7402 18.7365 L -18.7787 18.6978 L -18.8172 18.6591 L -18.8556 18.6203 L -18.894 18.5814 L -18.9322 18.5424 L -18.9704 18.5034 L -19.0085 18.4642 L -18.9862 18.4087 L -18.964 18.3532 L -18.9417 18.2977 L -18.9195 18.2421 L -18.8972 18.1866 L -18.8748 18.131 L -18.8525 18.0754 L -18.8302 18.0198 L -18.8078 17.9642 L -18.7854 17.9085 L -18.763 17.8529 L -18.7406 17.7972 L -18.7182 17.7415 L -18.6957 17.6858 L -18.6733 17.6301 L -18.6508 17.5743 L -18.6283 17.5186 L -18.6058 17.4628 L -18.5832 17.407 L -18.5607 17.3512 L -18.5381 17.2953 L -18.5155 17.2395 L -18.4929 17.1836 L -18.4702 17.1278 L -18.4476 17.0719 L -18.4249 17.0159 L -18.4022 16.96 L -18.3795 16.904 L -18.3568 16.8481 L -18.334 16.7921 L -18.3113 16.7361 L -18.2885 16.6801 L -18.2657 16.624 L -18.2428 16.568 L -18.22 16.5119 L -18.1971 16.4558 L -18.1742 16.3997 L -18.1513 16.3435 L -18.1513 16.3435 L -18.2095 16.3604 L -18.2677 16.3773 L -18.3259 16.3942 L -18.3841 16.4111 L -18.4422 16.4279 L -18.5003 16.4448 L -18.5585 16.4616 L -18.6165 16.4783 L -18.6746 16.4951 L -18.7326 16.5119 L -18.7907 16.5286 L -18.8486 16.5453 L -18.9066 16.562 L -18.9646 16.5787 L -19.0225 16.5954 L -19.0805 16.612 L -19.1384 16.6287 L -19.1962 16.6453 L -19.2541 16.6619 L -19.3119 16.6785 L -19.3698 16.695 L -19.4276 16.7116 L -19.4854 16.7281 L -19.5431 16.7446 L -19.6009 16.7611 L -19.6586 16.7776 L -19.7163 16.7941 L -19.774 16.8106 L -19.8317 16.827 L -19.8894 16.8434 L -19.947 16.8598 L -20.0046 16.8762 L -20.0622 16.8926 L -20.1198 16.909 L -20.1774 16.9253 L -20.235 16.9417 L -20.2925 16.958 L -20.35 16.9743 L -20.3849 16.9323 L -20.4198 16.8903 L -20.4546 16.8482 L -20.4892 16.806 L -20.5238 16.7637 L -20.5583 16.7214 L -20.5927 16.679 L -20.6271 16.6365 L -20.6613 16.594 L -20.6954 16.5514 L -20.7295 16.5087 L -20.7635 16.466 L -20.7974 16.4232 L -20.8312 16.3803 L -20.8649 16.3373 L -20.8985 16.2943 L -20.932 16.2512 L -20.9655 16.208 L -20.9988 16.1648 L -21.0321 16.1215 L -21.0652 16.0781 L -21.0983 16.0347 L -21.1313 15.9912 L -21.1642 15.9476 L -21.1971 15.9039 L -21.2298 15.8602 L -21.2624 15.8164 L -21.295 15.7726 L -21.3274 15.7287 L -21.3598 15.6847 L -21.3921 15.6407 L -21.4857 15.5118 L -21.5176 15.4675 L -21.5494 15.4231 L -21.5811 15.3787 L -21.6128 15.3342 L -21.6443 15.2896 L -21.6758 15.245 L -21.7072 15.2003 L -21.7384 15.1556 L -21.7696 15.1107 L -21.8007 15.0658 L -21.8317 15.0209 L -21.8626 14.9759 L -21.8934 14.9308 L -21.9241 14.8856 L -21.9548 14.8404 L -21.9853 14.7952 L -22.0157 14.7498 L -22.0461 14.7044 L -22.0763 14.659 L -22.1065 14.6134 L -22.1366 14.5679 L -22.1665 14.5222 L -22.1964 14.4765 L -22.2262 14.4307 L -22.2559 14.3849 L -22.2855 14.339 L -22.315 14.2931 L -22.3444 14.2471 L -22.3737 14.201 L -22.4029 14.1549 L -22.432 14.1087 L -22.3987 14.059 L -22.3654 14.0093 L -22.3321 13.9596 L -22.2988 13.9099 L -22.2654 13.8602 L -22.232 13.8105 L -22.1986 13.7608 L -22.1652 13.711 L -22.1318 13.6612 L -22.0983 13.6115 L -22.0648 13.5617 L -22.0313 13.5119 L -21.9978 13.4621 L -21.9643 13.4122 L -21.9307 13.3624 L -21.8971 13.3126 L -21.8635 13.2627 L -21.8299 13.2128 L -21.7962 13.1629 L -21.7626 13.113 L -21.7289 13.0631 L -21.6952 13.0132 L -21.6614 12.9632 L -21.6277 12.9133 L -21.5939 12.8633 L -21.5601 12.8133 L -21.5263 12.7633 L -21.4924 12.7133 L -21.4586 12.6633 L -21.4247 12.6133 L -21.3907 12.5632 L -21.3568 12.5132 L -21.3228 12.4631 L -21.2889 12.413 L -21.2548 12.3629 L -21.2208 12.3128 L -21.1868 12.2626 L -21.1527 12.2125 L -21.1527 12.2125 L -21.2131 12.2169 L -21.2736 12.2214 L -21.334 12.2258 L -21.3944 12.2302 L -21.4548 12.2346 L -21.5151 12.239 L -21.5755 12.2433 L -21.6358 12.2477 L -21.696 12.252 L -21.7563 12.2563 L -21.8165 12.2606 L -21.8767 12.2649 L -21.9369 12.2692 L -21.9971 12.2735 L -22.0572 12.2777 L -22.1173 12.282 L -22.1774 12.2862 L -22.2375 12.2904 L -22.2976 12.2946 L -22.3576 12.2988 L -22.4176 12.303 L -22.4776 12.3072 L -22.5375 12.3113 L -22.5975 12.3155 L -22.6574 12.3196 L -22.7173 12.3237 L -22.7772 12.3279 L -22.837 12.332 L -22.8969 12.3361 L -22.9567 12.3401 L -23.0165 12.3442 L -23.0763 12.3483 L -23.136 12.3523 L -23.1957 12.3563 L -23.2555 12.3604 L -23.3151 12.3644 L -23.3748 12.3684 L -23.4345 12.3724 L -23.4599 12.3241 L -23.4853 12.2757 L -23.5105 12.2273 L -23.5357 12.1788 L -23.5607 12.1303 L -23.5856 12.0817 L -23.6105 12.0331 L -23.6352 11.9844 L -23.6599 11.9357 L -23.6844 11.8869 L -23.7089 11.8381 L -23.7332 11.7892 L -23.7575 11.7403 L -23.7816 11.6913 L -23.8056 11.6422 L -23.8296 11.5932 L -23.8534 11.544 L -23.8771 11.4949 L -23.9008 11.4456 L -23.9243 11.3964 L -23.9477 11.347 L -23.9711 11.2977 L -23.9943 11.2483 L -24.0174 11.1988 L -24.0405 11.1493 L -24.0634 11.0997 L -24.0862 11.0501 L -24.1089 11.0005 L -24.1315 10.9508 L -24.1541 10.901 L -24.1765 10.8512 L -24.2412 10.7057 L -24.2632 10.6558 L -24.2851 10.6057 L -24.3069 10.5557 L -24.3286 10.5056 L -24.3502 10.4554 L -24.3717 10.4052 L -24.3931 10.355 L -24.4144 10.3047 L -24.4356 10.2544 L -24.4567 10.204 L -24.4776 10.1536 L -24.4985 10.1031 L -24.5193 10.0526 L -24.5399 10.0021 L -24.5605 9.95148 L -24.581 9.90085 L -24.6013 9.85018 L -24.6215 9.79946 L -24.6417 9.74871 L -24.6617 9.69791 L -24.6817 9.64707 L -24.7015 9.5962 L -24.7212 9.54528 L -24.7408 9.49432 L -24.7603 9.44332 L -24.7797 9.39227 L -24.799 9.34119 L -24.8182 9.29007 L -24.8373 9.23891 L -24.8563 9.18772 L -24.8752 9.13648 L -24.8323 9.09482 L -24.7894 9.05315 L -24.7465 9.01148 L -24.7035 8.96979 L -24.6606 8.9281 L -24.6176 8.8864 L -24.5746 8.8447 L -24.5315 8.80298 L -24.4885 8.76126 L -24.4454 8.71953 L -24.4023 8.67779 L -24.3592 8.63605 L -24.316 8.59429 L -24.2729 8.55253 L -24.2297 8.51076 L -24.1865 8.46898 L -24.1432 8.4272 L -24.1 8.3854 L -24.0567 8.3436 L -24.0134 8.30179 L -23.97 8.25997 L -23.9267 8.21814 L -23.8833 8.1763 L -23.8399 8.13446 L -23.7965 8.09261 L -23.753 8.05074 L -23.7095 8.00887 L -23.666 7.967 L -23.6225 7.92511 L -23.5789 7.88321 L -23.5354 7.84131 L -23.4917 7.7994 L -23.4481 7.75748 L -23.4045 7.71555 L -23.3608 7.67361 L -23.3171 7.63166 L -23.2733 7.5897 L -23.2296 7.54774 L -23.2296 7.54774 L -23.2896 7.53951 L -23.3497 7.53128 L -23.4097 7.52304 L -23.4697 7.51479 L -23.5297 7.50653 L -23.5896 7.49826 L -23.6495 7.48998 L -23.7094 7.4817 L -23.7693 7.4734 L -23.8291 7.4651 L -23.8889 7.45679 L -23.9487 7.44848 L -24.0085 7.44015 L -24.0682 7.43182 L -24.1279 7.42348 L -24.1876 7.41513 L -24.2472 7.40678 L -24.3069 7.39841 L -24.3665 7.39004 L -24.4261 7.38167 L -24.4857 7.37328 L -24.5452 7.36489 L -24.6047 7.35649 L -24.6642 7.34808 L -24.7237 7.33967 L -24.7831 7.33125 L -24.8425 7.32282 L -24.9019 7.31439 L -24.9613 7.30595 L -25.0207 7.2975 L -25.08 7.28905 L -25.1393 7.28059 L -25.1986 7.27213 L -25.2579 7.26365 L -25.3171 7.25517 L -25.3764 7.24669 L -25.4356 7.2382 L -25.4947 7.2297 L -25.5096 7.17715 L -25.5243 7.12457 L -25.5389 7.07196 L -25.5535 7.01932 L -25.5679 6.96665 L -25.5822 6.91395 L -25.5964 6.86122 L -25.6104 6.80847 L -25.6244 6.75568 L -25.6383 6.70286 L -25.652 6.65002 L -25.6657 6.59715 L -25.6792 6.54425 L -25.6927 6.49132 L -25.706 6.43836 L -25.7192 6.38538 L -25.7323 6.33237 L -25.7453 6.27934 L -25.7582 6.22627 L -25.7709 6.17318 L -25.7836 6.12007 L -25.7962 6.06692 L -25.8086 6.01376 L -25.821 5.96056 L -25.8332 5.90734 L -25.8453 5.8541 L -25.8573 5.80083 L -25.8692 5.74754 L -25.881 5.69422 L -25.8927 5.64088 L -25.9042 5.58751 L -25.9373 5.43176 L -25.9485 5.3783 L -25.9595 5.32482 L -25.9704 5.27132 L -25.9812 5.21779 L -25.9919 5.16424 L -26.0025 5.11067 L -26.013 5.05708 L -26.0234 5.00347 L -26.0336 4.94984 L -26.0438 4.89618 L -26.0538 4.84251 L -26.0637 4.78881 L -26.0735 4.73509 L -26.0832 4.68136 L -26.0928 4.6276 L -26.1023 4.57383 L -26.1117 4.52003 L -26.1209 4.46622 L -26.1301 4.41238 L -26.1391 4.35853 L -26.148 4.30466 L -26.1569 4.25077 L -26.1656 4.19686 L -26.1741 4.14294 L -26.1826 4.08899 L -26.191 4.03503 L -26.1993 3.98106 L -26.2074 3.92706 L -26.2154 3.87305 L -26.2234 3.81903 L -26.2312 3.76498 L -26.1806 3.73315 L -26.1299 3.70131 L -26.0793 3.66947 L -26.0286 3.63763 L -25.9779 3.60578 L -25.9272 3.57393 L -25.8765 3.54208 L -25.8257 3.51023 L -25.7749 3.47837 L -25.7241 3.44651 L -25.6733 3.41464 L -25.6224 3.38277 L -25.5715 3.3509 L -25.5206 3.31903 L -25.4697 3.28715 L -25.4187 3.25527 L -25.3677 3.22338 L -25.3167 3.1915 L -25.2657 3.15961 L -25.2146 3.12771 L -25.1636 3.09582 L -25.1125 3.06392 L -25.0613 3.03202 L -25.0102 3.00011 L -24.959 2.9682 L -24.9078 2.93629 L -24.8566 2.90437 L -24.8053 2.87246 L -24.754 2.84053 L -24.7027 2.80861 L -24.6513 2.77668 L -24.6 2.74475 L -24.5486 2.71282 L -24.4972 2.68088 L -24.4457 2.64894 L -24.3942 2.617 L -24.3427 2.58506 L -24.2912 2.55311 L -24.2912 2.55311 L -24.3482 2.53257 L -24.4053 2.51203 L -24.4623 2.49149 L -24.5192 2.47095 L -24.5762 2.4504 L -24.6331 2.42985 L -24.69 2.4093 L -24.7468 2.38874 L -24.8036 2.36818 L -24.8605 2.34762 L -24.9172 2.32706 L -24.974 2.3065 L -25.0307 2.28593 L -25.0874 2.26536 L -25.1441 2.24479 L -25.2007 2.22421 L -25.2573 2.20363 L -25.3139 2.18305 L -25.3705 2.16247 L -25.4271 2.14189 L -25.4836 2.1213 L -25.5401 2.10072 L -25.5965 2.08013 L -25.653 2.05953 L -25.7094 2.03894 L -25.7658 2.01835 L -25.8222 1.99775 L -25.8785 1.97715 L -25.9349 1.95655 L -25.9912 1.93594 L -26.0474 1.91534 L -26.1037 1.89473 L -26.1599 1.87413 L -26.2161 1.85352 L -26.2723 1.8329 L -26.3285 1.81229 L -26.3846 1.79168 L -26.4408 1.77106 L -26.4443 1.71657 L -26.4478 1.66208 L -26.4512 1.60758 L -26.4545 1.55307 L -26.4576 1.49856 L -26.4606 1.44403 L -26.4635 1.38951 L -26.4664 1.33497 L -26.469 1.28044 L -26.4716 1.22589 L -26.4741 1.17134 L -26.4765 1.11679 L -26.4787 1.06223 L -26.4808 1.00767 L -26.4829 0.953097 L -26.4848 0.898525 L -26.4866 0.84395 L -26.4882 0.78937 L -26.4898 0.734788 L -26.4913 0.680202 L -26.4926 0.625613 L -26.4938 0.571022 L -26.495 0.516428 L -26.496 0.461832 L -26.4969 0.407234 L -26.4977 0.352635 L -26.4983 0.298033 L -26.4989 0.243431 L -26.4993 0.188828 L -26.4997 0.134223 L -26.4999 0.0796186 L -26.4999 -0.0796186 L -26.4997 -0.134223 L -26.4993 -0.188828 L -26.4989 -0.243431 L -26.4983 -0.298033 L -26.4977 -0.352635 L -26.4969 -0.407234 L -26.496 -0.461832 L -26.495 -0.516428 L -26.4938 -0.571022 L -26.4926 -0.625613 L -26.4913 -0.680202 L -26.4898 -0.734788 L -26.4882 -0.78937 L -26.4866 -0.84395 L -26.4848 -0.898525 L -26.4829 -0.953097 L -26.4808 -1.00767 L -26.4787 -1.06223 L -26.4765 -1.11679 L -26.4741 -1.17134 L -26.4716 -1.22589 L -26.469 -1.28044 L -26.4664 -1.33497 L -26.4635 -1.38951 L -26.4606 -1.44403 L -26.4576 -1.49856 L -26.4545 -1.55307 L -26.4512 -1.60758 L -26.4478 -1.66208 L -26.4443 -1.71657 L -26.4408 -1.77106 L -26.3846 -1.79168 L -26.3285 -1.81229 L -26.2723 -1.8329 L -26.2161 -1.85352 L -26.1599 -1.87413 L -26.1037 -1.89473 L -26.0474 -1.91534 L -25.9912 -1.93594 L -25.9349 -1.95655 L -25.8785 -1.97715 L -25.8222 -1.99775 L -25.7658 -2.01835 L -25.7094 -2.03894 L -25.653 -2.05953 L -25.5965 -2.08013 L -25.5401 -2.10072 L -25.4836 -2.1213 L -25.4271 -2.14189 L -25.3705 -2.16247 L -25.3139 -2.18305 L -25.2573 -2.20363 L -25.2007 -2.22421 L -25.1441 -2.24479 L -25.0874 -2.26536 L -25.0307 -2.28593 L -24.974 -2.3065 L -24.9172 -2.32706 L -24.8605 -2.34762 L -24.8036 -2.36818 L -24.7468 -2.38874 L -24.69 -2.4093 L -24.6331 -2.42985 L -24.5762 -2.4504 L -24.5192 -2.47095 L -24.4623 -2.49149 L -24.4053 -2.51203 L -24.3482 -2.53257 L -24.2912 -2.55311 L -24.2912 -2.55311 L -24.3427 -2.58506 L -24.3942 -2.617 L -24.4457 -2.64894 L -24.4972 -2.68088 L -24.5486 -2.71282 L -24.6 -2.74475 L -24.6513 -2.77668 L -24.7027 -2.80861 L -24.754 -2.84053 L -24.8053 -2.87246 L -24.8566 -2.90437 L -24.9078 -2.93629 L -24.959 -2.9682 L -25.0102 -3.00011 L -25.0613 -3.03202 L -25.1125 -3.06392 L -25.1636 -3.09582 L -25.2146 -3.12771 L -25.2657 -3.15961 L -25.3167 -3.1915 L -25.3677 -3.22338 L -25.4187 -3.25527 L -25.4697 -3.28715 L -25.5206 -3.31903 L -25.5715 -3.3509 L -25.6224 -3.38277 L -25.6733 -3.41464 L -25.7241 -3.44651 L -25.7749 -3.47837 L -25.8257 -3.51023 L -25.8765 -3.54208 L -25.9272 -3.57393 L -25.9779 -3.60578 L -26.0286 -3.63763 L -26.0793 -3.66947 L -26.1299 -3.70131 L -26.1806 -3.73315 L -26.2312 -3.76498 L -26.2234 -3.81903 L -26.2154 -3.87305 L -26.2074 -3.92706 L -26.1993 -3.98106 L -26.191 -4.03503 L -26.1826 -4.08899 L -26.1741 -4.14294 L -26.1656 -4.19686 L -26.1569 -4.25077 L -26.148 -4.30466 L -26.1391 -4.35853 L -26.1301 -4.41238 L -26.1209 -4.46622 L -26.1117 -4.52003 L -26.1023 -4.57383 L -26.0928 -4.6276 L -26.0832 -4.68136 L -26.0735 -4.73509 L -26.0637 -4.78881 L -26.0538 -4.84251 L -26.0438 -4.89618 L -26.0336 -4.94984 L -26.0234 -5.00347 L -26.013 -5.05708 L -26.0025 -5.11067 L -25.9919 -5.16424 L -25.9812 -5.21779 L -25.9704 -5.27132 L -25.9595 -5.32482 L -25.9485 -5.3783 L -25.9373 -5.43176 L -25.9042 -5.58751 L -25.8927 -5.64088 L -25.881 -5.69422 L -25.8692 -5.74754 L -25.8573 -5.80083 L -25.8453 -5.8541 L -25.8332 -5.90734 L -25.821 -5.96056 L -25.8086 -6.01376 L -25.7962 -6.06692 L -25.7836 -6.12007 L -25.7709 -6.17318 L -25.7582 -6.22627 L -25.7453 -6.27934 L -25.7323 -6.33237 L -25.7192 -6.38538 L -25.706 -6.43836 L -25.6927 -6.49132 L -25.6792 -6.54425 L -25.6657 -6.59715 L -25.652 -6.65002 L -25.6383 -6.70286 L -25.6244 -6.75568 L -25.6104 -6.80847 L -25.5964 -6.86122 L -25.5822 -6.91395 L -25.5679 -6.96665 L -25.5535 -7.01932 L -25.5389 -7.07196 L -25.5243 -7.12457 L -25.5096 -7.17715 L -25.4947 -7.2297 L -25.4356 -7.2382 L -25.3764 -7.24669 L -25.3171 -7.25517 L -25.2579 -7.26365 L -25.1986 -7.27213 L -25.1393 -7.28059 L -25.08 -7.28905 L -25.0207 -7.2975 L -24.9613 -7.30595 L -24.9019 -7.31439 L -24.8425 -7.32282 L -24.7831 -7.33125 L -24.7237 -7.33967 L -24.6642 -7.34808 L -24.6047 -7.35649 L -24.5452 -7.36489 L -24.4857 -7.37328 L -24.4261 -7.38167 L -24.3665 -7.39004 L -24.3069 -7.39841 L -24.2472 -7.40678 L -24.1876 -7.41513 L -24.1279 -7.42348 L -24.0682 -7.43182 L -24.0085 -7.44015 L -23.9487 -7.44848 L -23.8889 -7.45679 L -23.8291 -7.4651 L -23.7693 -7.4734 L -23.7094 -7.4817 L -23.6495 -7.48998 L -23.5896 -7.49826 L -23.5297 -7.50653 L -23.4697 -7.51479 L -23.4097 -7.52304 L -23.3497 -7.53128 L -23.2896 -7.53951 L -23.2296 -7.54774 L -23.2296 -7.54774 L -23.2733 -7.5897 L -23.3171 -7.63166 L -23.3608 -7.67361 L -23.4045 -7.71555 L -23.4481 -7.75748 L -23.4917 -7.7994 L -23.5354 -7.84131 L -23.5789 -7.88321 L -23.6225 -7.92511 L -23.666 -7.967 L -23.7095 -8.00887 L -23.753 -8.05074 L -23.7965 -8.09261 L -23.8399 -8.13446 L -23.8833 -8.1763 L -23.9267 -8.21814 L -23.97 -8.25997 L -24.0134 -8.30179 L -24.0567 -8.3436 L -24.1 -8.3854 L -24.1432 -8.4272 L -24.1865 -8.46898 L -24.2297 -8.51076 L -24.2729 -8.55253 L -24.316 -8.59429 L -24.3592 -8.63605 L -24.4023 -8.67779 L -24.4454 -8.71953 L -24.4885 -8.76126 L -24.5315 -8.80298 L -24.5746 -8.8447 L -24.6176 -8.8864 L -24.6606 -8.9281 L -24.7035 -8.96979 L -24.7465 -9.01148 L -24.7894 -9.05315 L -24.8323 -9.09482 L -24.8752 -9.13648 L -24.8563 -9.18772 L -24.8373 -9.23891 L -24.8182 -9.29007 L -24.799 -9.34119 L -24.7797 -9.39227 L -24.7603 -9.44332 L -24.7408 -9.49432 L -24.7212 -9.54528 L -24.7015 -9.5962 L -24.6817 -9.64707 L -24.6617 -9.69791 L -24.6417 -9.74871 L -24.6215 -9.79946 L -24.6013 -9.85018 L -24.581 -9.90085 L -24.5605 -9.95148 L -24.5399 -10.0021 L -24.5193 -10.0526 L -24.4985 -10.1031 L -24.4776 -10.1536 L -24.4567 -10.204 L -24.4356 -10.2544 L -24.4144 -10.3047 L -24.3931 -10.355 L -24.3717 -10.4052 L -24.3502 -10.4554 L -24.3286 -10.5056 L -24.3069 -10.5557 L -24.2851 -10.6057 L -24.2632 -10.6558 L -24.2412 -10.7057 L -24.1765 -10.8512 L -24.1541 -10.901 L -24.1315 -10.9508 L -24.1089 -11.0005 L -24.0862 -11.0501 L -24.0634 -11.0997 L -24.0405 -11.1493 L -24.0174 -11.1988 L -23.9943 -11.2483 L -23.9711 -11.2977 L -23.9477 -11.347 L -23.9243 -11.3964 L -23.9008 -11.4456 L -23.8771 -11.4949 L -23.8534 -11.544 L -23.8296 -11.5932 L -23.8056 -11.6422 L -23.7816 -11.6913 L -23.7575 -11.7403 L -23.7332 -11.7892 L -23.7089 -11.8381 L -23.6844 -11.8869 L -23.6599 -11.9357 L -23.6352 -11.9844 L -23.6105 -12.0331 L -23.5856 -12.0817 L -23.5607 -12.1303 L -23.5357 -12.1788 L -23.5105 -12.2273 L -23.4853 -12.2757 L -23.4599 -12.3241 L -23.4345 -12.3724 L -23.3748 -12.3684 L -23.3151 -12.3644 L -23.2555 -12.3604 L -23.1957 -12.3563 L -23.136 -12.3523 L -23.0763 -12.3483 L -23.0165 -12.3442 L -22.9567 -12.3401 L -22.8969 -12.3361 L -22.837 -12.332 L -22.7772 -12.3279 L -22.7173 -12.3237 L -22.6574 -12.3196 L -22.5975 -12.3155 L -22.5375 -12.3113 L -22.4776 -12.3072 L -22.4176 -12.303 L -22.3576 -12.2988 L -22.2976 -12.2946 L -22.2375 -12.2904 L -22.1774 -12.2862 L -22.1173 -12.282 L -22.0572 -12.2777 L -21.9971 -12.2735 L -21.9369 -12.2692 L -21.8767 -12.2649 L -21.8165 -12.2606 L -21.7563 -12.2563 L -21.696 -12.252 L -21.6358 -12.2477 L -21.5755 -12.2433 L -21.5151 -12.239 L -21.4548 -12.2346 L -21.3944 -12.2302 L -21.334 -12.2258 L -21.2736 -12.2214 L -21.2131 -12.2169 L -21.1527 -12.2125 L -21.1527 -12.2125 L -21.1868 -12.2626 L -21.2208 -12.3128 L -21.2548 -12.3629 L -21.2889 -12.413 L -21.3228 -12.4631 L -21.3568 -12.5132 L -21.3907 -12.5632 L -21.4247 -12.6133 L -21.4586 -12.6633 L -21.4924 -12.7133 L -21.5263 -12.7633 L -21.5601 -12.8133 L -21.5939 -12.8633 L -21.6277 -12.9133 L -21.6614 -12.9632 L -21.6952 -13.0132 L -21.7289 -13.0631 L -21.7626 -13.113 L -21.7962 -13.1629 L -21.8299 -13.2128 L -21.8635 -13.2627 L -21.8971 -13.3126 L -21.9307 -13.3624 L -21.9643 -13.4122 L -21.9978 -13.4621 L -22.0313 -13.5119 L -22.0648 -13.5617 L -22.0983 -13.6115 L -22.1318 -13.6612 L -22.1652 -13.711 L -22.1986 -13.7608 L -22.232 -13.8105 L -22.2654 -13.8602 L -22.2988 -13.9099 L -22.3321 -13.9596 L -22.3654 -14.0093 L -22.3987 -14.059 L -22.432 -14.1087 L -22.4029 -14.1549 L -22.3737 -14.201 L -22.3444 -14.2471 L -22.315 -14.2931 L -22.2855 -14.339 L -22.2559 -14.3849 L -22.2262 -14.4307 L -22.1964 -14.4765 L -22.1665 -14.5222 L -22.1366 -14.5679 L -22.1065 -14.6134 L -22.0763 -14.659 L -22.0461 -14.7044 L -22.0157 -14.7498 L -21.9853 -14.7952 L -21.9548 -14.8404 L -21.9241 -14.8856 L -21.8934 -14.9308 L -21.8626 -14.9759 L -21.8317 -15.0209 L -21.8007 -15.0658 L -21.7696 -15.1107 L -21.7384 -15.1556 L -21.7072 -15.2003 L -21.6758 -15.245 L -21.6443 -15.2896 L -21.6128 -15.3342 L -21.5811 -15.3787 L -21.5494 -15.4231 L -21.5176 -15.4675 L -21.4857 -15.5118 L -21.3921 -15.6407 L -21.3598 -15.6847 L -21.3274 -15.7287 L -21.295 -15.7726 L -21.2624 -15.8164 L -21.2298 -15.8602 L -21.1971 -15.9039 L -21.1642 -15.9476 L -21.1313 -15.9912 L -21.0983 -16.0347 L -21.0652 -16.0781 L -21.0321 -16.1215 L -20.9988 -16.1648 L -20.9655 -16.208 L -20.932 -16.2512 L -20.8985 -16.2943 L -20.8649 -16.3373 L -20.8312 -16.3803 L -20.7974 -16.4232 L -20.7635 -16.466 L -20.7295 -16.5087 L -20.6954 -16.5514 L -20.6613 -16.594 L -20.6271 -16.6365 L -20.5927 -16.679 L -20.5583 -16.7214 L -20.5238 -16.7637 L -20.4892 -16.806 L -20.4546 -16.8482 L -20.4198 -16.8903 L -20.3849 -16.9323 L -20.35 -16.9743 L -20.2925 -16.958 L -20.235 -16.9417 L -20.1774 -16.9253 L -20.1198 -16.909 L -20.0622 -16.8926 L -20.0046 -16.8762 L -19.947 -16.8598 L -19.8894 -16.8434 L -19.8317 -16.827 L -19.774 -16.8106 L -19.7163 -16.7941 L -19.6586 -16.7776 L -19.6009 -16.7611 L -19.5431 -16.7446 L -19.4854 -16.7281 L -19.4276 -16.7116 L -19.3698 -16.695 L -19.3119 -16.6785 L -19.2541 -16.6619 L -19.1962 -16.6453 L -19.1384 -16.6287 L -19.0805 -16.612 L -19.0225 -16.5954 L -18.9646 -16.5787 L -18.9066 -16.562 L -18.8486 -16.5453 L -18.7907 -16.5286 L -18.7326 -16.5119 L -18.6746 -16.4951 L -18.6165 -16.4783 L -18.5585 -16.4616 L -18.5003 -16.4448 L -18.4422 -16.4279 L -18.3841 -16.4111 L -18.3259 -16.3942 L -18.2677 -16.3773 L -18.2095 -16.3604 L -18.1513 -16.3435 L -18.1513 -16.3435 L -18.1742 -16.3997 L -18.1971 -16.4558 L -18.22 -16.5119 L -18.2428 -16.568 L -18.2657 -16.624 L -18.2885 -16.6801 L -18.3113 -16.7361 L -18.334 -16.7921 L -18.3568 -16.8481 L -18.3795 -16.904 L -18.4022 -16.96 L -18.4249 -17.0159 L -18.4476 -17.0719 L -18.4702 -17.1278 L -18.4929 -17.1836 L -18.5155 -17.2395 L -18.5381 -17.2953 L -18.5607 -17.3512 L -18.5832 -17.407 L -18.6058 -17.4628 L -18.6283 -17.5186 L -18.6508 -17.5743 L -18.6733 -17.6301 L -18.6957 -17.6858 L -18.7182 -17.7415 L -18.7406 -17.7972 L -18.763 -17.8529 L -18.7854 -17.9085 L -18.8078 -17.9642 L -18.8302 -18.0198 L -18.8525 -18.0754 L -18.8748 -18.131 L -18.8972 -18.1866 L -18.9195 -18.2421 L -18.9417 -18.2977 L -18.964 -18.3532 L -18.9862 -18.4087 L -19.0085 -18.4642 L -18.9704 -18.5034 L -18.9322 -18.5424 L -18.894 -18.5814 L -18.8556 -18.6203 L -18.8172 -18.6591 L -18.7787 -18.6978 L -18.7402 -18.7365 L -18.7015 -18.7751 L -18.6628 -18.8136 L -18.624 -18.852 L -18.5851 -18.8903 L -18.5461 -18.9286 L -18.5071 -18.9667 L -18.468 -19.0048 L -18.4288 -19.0429 L -18.3895 -19.0808 L -18.3501 -19.1186 L -18.3107 -19.1564 L -18.2712 -19.1941 L -18.2316 -19.2317 L -18.1919 -19.2692 L -18.1522 -19.3067 L -18.1124 -19.344 L -18.0725 -19.3813 L -18.0325 -19.4185 L -17.9924 -19.4556 L -17.9523 -19.4927 L -17.9121 -19.5296 L -17.8718 -19.5665 L -17.8315 -19.6033 L -17.791 -19.64 L -17.6727 -19.7465 L -17.632 -19.7829 L -17.5912 -19.8192 L -17.5503 -19.8554 L -17.5094 -19.8915 L -17.4683 -19.9276 L -17.4272 -19.9635 L -17.3861 -19.9994 L -17.3448 -20.0352 L -17.3035 -20.0709 L -17.2621 -20.1065 L -17.2206 -20.142 L -17.1791 -20.1774 L -17.1375 -20.2128 L -17.0958 -20.2481 L -17.054 -20.2832 L -17.0122 -20.3183 L -16.9703 -20.3534 L -16.9283 -20.3883 L -16.8863 -20.4231 L -16.8442 -20.4579 L -16.802 -20.4925 L -16.7597 -20.5271 L -16.7174 -20.5616 L -16.675 -20.596 L -16.6325 -20.6303 L -16.5899 -20.6646 L -16.5473 -20.6987 L -16.5046 -20.7327 L -16.4619 -20.7667 L -16.4191 -20.8006 L -16.3762 -20.8344 L -16.3233 -20.8065 L -16.2704 -20.7785 L -16.2175 -20.7506 L -16.1646 -20.7226 L -16.1117 -20.6946 L -16.0587 -20.6666 L -16.0058 -20.6386 L -15.9528 -20.6106 L -15.8998 -20.5825 L -15.8468 -20.5545 L -15.7938 -20.5264 L -15.7408 -20.4983 L -15.6877 -20.4701 L -15.6347 -20.442 L -15.5816 -20.4138 L -15.5285 -20.3856 L -15.4754 -20.3574 L -15.4223 -20.3292 L -15.3692 -20.3009 L -15.316 -20.2727 L -15.2628 -20.2444 L -15.2097 -20.2161 L -15.1565 -20.1877 L -15.1033 -20.1594 L -15.05 -20.131 L -14.9968 -20.1026 L -14.9435 -20.0742 L -14.8903 -20.0458 L -14.837 -20.0173 L -14.7837 -19.9889 L -14.7304 -19.9604 L -14.677 -19.9318 L -14.6237 -19.9033 L -14.5703 -19.8747 L -14.5169 -19.8461 L -14.4635 -19.8175 L -14.4101 -19.7889 L -14.3567 -19.7602 L -14.3567 -19.7602 L -14.3674 -19.8199 L -14.3781 -19.8796 L -14.3888 -19.9392 L -14.3995 -19.9988 L -14.4102 -20.0584 L -14.4209 -20.1179 L -14.4315 -20.1775 L -14.4421 -20.237 L -14.4527 -20.2965 L -14.4633 -20.356 L -14.4739 -20.4154 L -14.4845 -20.4749 L -14.495 -20.5343 L -14.5056 -20.5936 L -14.5161 -20.653 L -14.5266 -20.7124 L -14.5371 -20.7717 L -14.5475 -20.831 L -14.558 -20.8903 L -14.5685 -20.9495 L -14.5789 -21.0088 L -14.5893 -21.068 L -14.5997 -21.1272 L -14.6101 -21.1864 L -14.6205 -21.2455 L -14.6308 -21.3047 L -14.6412 -21.3638 L -14.6515 -21.4229 L -14.6618 -21.482 L -14.6722 -21.541 L -14.6825 -21.6001 L -14.6927 -21.6591 L -14.703 -21.7181 L -14.7133 -21.7771 L -14.7235 -21.836 L -14.7337 -21.895 L -14.744 -21.9539 L -14.7542 -22.0128 L -14.7088 -22.0432 L -14.6633 -22.0734 L -14.6178 -22.1036 L -14.5722 -22.1337 L -14.5266 -22.1637 L -14.4809 -22.1936 L -14.4351 -22.2233 L -14.3893 -22.253 L -14.3434 -22.2826 L -14.2975 -22.3122 L -14.2515 -22.3416 L -14.2054 -22.3709 L -14.1593 -22.4001 L -14.1131 -22.4292 L -14.0668 -22.4583 L -14.0205 -22.4872 L -13.9742 -22.5161 L -13.9277 -22.5448 L -13.8813 -22.5735 L -13.8347 -22.602 L -13.7881 -22.6305 L -13.7414 -22.6588 L -13.6947 -22.6871 L -13.6479 -22.7153 L -13.6011 -22.7433 L -13.5542 -22.7713 L -13.5073 -22.7992 L -13.4603 -22.827 L -13.4132 -22.8547 L -13.3661 -22.8823 L -13.3189 -22.9098 L -13.181 -22.9894 L -13.1336 -23.0165 L -13.0861 -23.0435 L -13.0386 -23.0704 L -12.9911 -23.0972 L -12.9434 -23.124 L -12.8958 -23.1506 L -12.848 -23.1771 L -12.8002 -23.2035 L -12.7524 -23.2299 L -12.7045 -23.2561 L -12.6566 -23.2822 L -12.6086 -23.3082 L -12.5605 -23.3342 L -12.5124 -23.36 L -12.4642 -23.3857 L -12.416 -23.4114 L -12.3678 -23.4369 L -12.3194 -23.4623 L -12.2711 -23.4877 L -12.2226 -23.5129 L -12.1742 -23.538 L -12.1256 -23.5631 L -12.0771 -23.588 L -12.0284 -23.6129 L -11.9797 -23.6376 L -11.931 -23.6622 L -11.8822 -23.6868 L -11.8334 -23.7112 L -11.7845 -23.7355 L -11.7356 -23.7598 L -11.6866 -23.7839 L -11.6407 -23.7456 L -11.5948 -23.7073 L -11.5488 -23.669 L -11.5029 -23.6306 L -11.4569 -23.5922 L -11.411 -23.5538 L -11.365 -23.5154 L -11.319 -23.477 L -11.273 -23.4385 L -11.227 -23.4 L -11.181 -23.3615 L -11.135 -23.323 L -11.0889 -23.2845 L -11.0429 -23.2459 L -10.9968 -23.2073 L -10.9508 -23.1687 L -10.9047 -23.1301 L -10.8586 -23.0914 L -10.8125 -23.0527 L -10.7664 -23.014 L -10.7203 -22.9753 L -10.6741 -22.9366 L -10.628 -22.8978 L -10.5818 -22.859 L -10.5357 -22.8202 L -10.4895 -22.7813 L -10.4433 -22.7425 L -10.3971 -22.7036 L -10.3509 -22.6647 L -10.3047 -22.6257 L -10.2585 -22.5868 L -10.2122 -22.5478 L -10.166 -22.5088 L -10.1197 -22.4697 L -10.0734 -22.4307 L -10.0272 -22.3916 L -9.98085 -22.3525 L -9.93454 -22.3133 L -9.93454 -22.3133 L -9.93264 -22.374 L -9.93073 -22.4345 L -9.9288 -22.4951 L -9.92687 -22.5556 L -9.92492 -22.6161 L -9.92297 -22.6766 L -9.921 -22.737 L -9.91902 -22.7975 L -9.91703 -22.8579 L -9.91503 -22.9182 L -9.91301 -22.9786 L -9.91099 -23.0389 L -9.90896 -23.0992 L -9.90692 -23.1595 L -9.90486 -23.2198 L -9.9028 -23.28 L -9.90073 -23.3402 L -9.89864 -23.4004 L -9.89655 -23.4605 L -9.89445 -23.5207 L -9.89234 -23.5808 L -9.89021 -23.6409 L -9.88808 -23.701 L -9.88594 -23.761 L -9.88379 -23.821 L -9.88163 -23.881 L -9.87946 -23.941 L -9.87729 -24.001 L -9.8751 -24.0609 L -9.8729 -24.1208 L -9.8707 -24.1807 L -9.86848 -24.2406 L -9.86626 -24.3004 L -9.86403 -24.3603 L -9.86179 -24.4201 L -9.85954 -24.4799 L -9.85729 -24.5396 L -9.85502 -24.5994 L -9.80431 -24.6196 L -9.75356 -24.6398 L -9.70277 -24.6598 L -9.65193 -24.6798 L -9.60106 -24.6996 L -9.55014 -24.7193 L -9.49919 -24.7389 L -9.44819 -24.7585 L -9.39715 -24.7779 L -9.34608 -24.7972 L -9.29496 -24.8164 L -9.2438 -24.8355 L -9.19261 -24.8545 L -9.14137 -24.8734 L -9.0901 -24.8922 L -9.03879 -24.9108 L -8.98744 -24.9294 L -8.93605 -24.9479 L -8.88463 -24.9662 L -8.83316 -24.9845 L -8.78166 -25.0026 L -8.73012 -25.0207 L -8.67855 -25.0386 L -8.62694 -25.0565 L -8.57529 -25.0742 L -8.5236 -25.0918 L -8.47188 -25.1093 L -8.42012 -25.1267 L -8.36833 -25.144 L -8.3165 -25.1612 L -8.26464 -25.1783 L -8.11319 -25.2275 L -8.06119 -25.2442 L -8.00916 -25.2607 L -7.95709 -25.2772 L -7.90499 -25.2935 L -7.85285 -25.3097 L -7.80068 -25.3259 L -7.74848 -25.3419 L -7.69624 -25.3578 L -7.64397 -25.3736 L -7.59167 -25.3893 L -7.53934 -25.4049 L -7.48698 -25.4204 L -7.43458 -25.4357 L -7.38215 -25.451 L -7.32969 -25.4662 L -7.2772 -25.4812 L -7.22468 -25.4962 L -7.17213 -25.511 L -7.11955 -25.5257 L -7.06693 -25.5403 L -7.01429 -25.5548 L -6.96162 -25.5692 L -6.90892 -25.5835 L -6.85619 -25.5977 L -6.80342 -25.6118 L -6.75064 -25.6257 L -6.69782 -25.6396 L -6.64497 -25.6533 L -6.5921 -25.667 L -6.53919 -25.6805 L -6.48626 -25.6939 L -6.44931 -25.6469 L -6.41236 -25.5999 L -6.3754 -25.5529 L -6.33843 -25.5058 L -6.30146 -25.4587 L -6.26449 -25.4116 L -6.2275 -25.3645 L -6.19052 -25.3173 L -6.15352 -25.2701 L -6.11653 -25.2229 L -6.07952 -25.1757 L -6.04251 -25.1284 L -6.0055 -25.0812 L -5.96847 -25.0339 L -5.93145 -24.9865 L -5.89442 -24.9392 L -5.85738 -24.8918 L -5.82033 -24.8444 L -5.78328 -24.797 L -5.74623 -24.7496 L -5.70917 -24.7021 L -5.6721 -24.6546 L -5.63503 -24.6071 L -5.59795 -24.5596 L -5.56087 -24.512 L -5.52378 -24.4644 L -5.48668 -24.4168 L -5.44958 -24.3692 L -5.41247 -24.3215 L -5.37536 -24.2738 L -5.33824 -24.2261 L -5.30112 -24.1783 L -5.26398 -24.1305 L -5.22685 -24.0827 L -5.18971 -24.0349 L -5.15256 -23.9871 L -5.1154 -23.9392 L -5.07824 -23.8913 L -5.07824 -23.8913 L -5.06378 -23.9501 L -5.04932 -24.009 L -5.03485 -24.0678 L -5.02037 -24.1266 L -5.00589 -24.1854 L -4.9914 -24.2441 L -4.9769 -24.3029 L -4.9624 -24.3616 L -4.9479 -24.4202 L -4.93339 -24.4789 L -4.91887 -24.5375 L -4.90435 -24.5961 L -4.88983 -24.6546 L -4.8753 -24.7132 L -4.86076 -24.7717 L -4.84622 -24.8302 L -4.83167 -24.8886 L -4.81712 -24.9471 L -4.80257 -25.0055 L -4.78801 -25.0639 L -4.77344 -25.1222 L -4.75887 -25.1806 L -4.7443 -25.2389 L -4.72972 -25.2972 L -4.71514 -25.3554 L -4.70055 -25.4137 L -4.68596 -25.4719 L -4.67136 -25.5301 L -4.65676 -25.5883 L -4.64215 -25.6464 L -4.62755 -25.7045 L -4.61293 -25.7626 L -4.59832 -25.8207 L -4.58369 -25.8788 L -4.56907 -25.9368 L -4.55444 -25.9948 L -4.53981 -26.0528 L -4.52517 -26.1108 L -4.47136 -26.12 L -4.41753 -26.1292 L -4.36367 -26.1383 L -4.30981 -26.1472 L -4.25592 -26.156 L -4.20201 -26.1647 L -4.14809 -26.1733 L -4.09415 -26.1818 L -4.04019 -26.1902 L -3.98621 -26.1985 L -3.93222 -26.2066 L -3.87821 -26.2147 L -3.82419 -26.2226 L -3.77015 -26.2304 L -3.71609 -26.2382 L -3.66201 -26.2458 L -3.60793 -26.2532 L -3.55382 -26.2606 L -3.4997 -26.2679 L -3.44557 -26.275 L -3.39142 -26.2821 L -3.33725 -26.289 L -3.28308 -26.2958 L -3.22889 -26.3026 L -3.17468 -26.3092 L -3.12046 -26.3156 L -3.06623 -26.322 L -3.01198 -26.3283 L -2.95773 -26.3344 L -2.90346 -26.3405 L -2.84917 -26.3464 L -2.69081 -26.363 L -2.63648 -26.3685 L -2.58214 -26.3739 L -2.52779 -26.3792 L -2.47343 -26.3843 L -2.41906 -26.3894 L -2.36467 -26.3943 L -2.31028 -26.3991 L -2.25588 -26.4038 L -2.20147 -26.4084 L -2.14705 -26.4129 L -2.09262 -26.4172 L -2.03818 -26.4215 L -1.98373 -26.4256 L -1.92927 -26.4297 L -1.87481 -26.4336 L -1.82034 -26.4374 L -1.76586 -26.4411 L -1.71137 -26.4447 L -1.65687 -26.4482 L -1.60237 -26.4515 L -1.54786 -26.4548 L -1.49335 -26.4579 L -1.43883 -26.4609 L -1.3843 -26.4638 L -1.32976 -26.4666 L -1.27523 -26.4693 L -1.22068 -26.4719 L -1.16613 -26.4743 L -1.11158 -26.4767 L -1.05702 -26.4789 L -1.00245 -26.481 L -0.976083 -26.4274 L -0.949713 -26.3737 L -0.923343 -26.32 L -0.896971 -26.2663 L -0.870599 -26.2125 L -0.844225 -26.1587 L -0.817852 -26.105 L -0.791477 -26.0511 L -0.765102 -25.9973 L -0.738726 -25.9434 L -0.712349 -25.8895 L -0.685972 -25.8356 L -0.659594 -25.7817 L -0.633215 -25.7277 L -0.606836 -25.6738 L -0.580456 -25.6197 L -0.554076 -25.5657 L -0.527695 -25.5116 L -0.501313 -25.4576 L -0.474932 -25.4035 L -0.448549 -25.3493 L -0.422166 -25.2952 L -0.395783 -25.241 L -0.369399 -25.1868 L -0.343015 -25.1325 L -0.316631 -25.0783 L -0.290246 -25.024 L -0.263861 -24.9697 L -0.237476 -24.9153 L -0.21109 -24.8609 L -0.184705 -24.8065 L -0.158319 -24.7521 L -0.131932 -24.6977 L -0.105546 -24.6432 L -0.0791597 -24.5887 L -0.0527732 -24.5342 L -0.0263866 -24.4796 L -1.86517e-14 -24.425 L 9.67815e-15 -24.425 L 0.0263866 -24.4796 L 0.0527732 -24.5342 L 0.0791597 -24.5887 L 0.105546 -24.6432 L 0.131932 -24.6977 L 0.158319 -24.7521 L 0.184705 -24.8065 L 0.21109 -24.8609 L 0.237476 -24.9153 L 0.263861 -24.9697 L 0.290246 -25.024 L 0.316631 -25.0783 L 0.343015 -25.1325 L 0.369399 -25.1868 L 0.395783 -25.241 L 0.422166 -25.2952 L 0.448549 -25.3493 L 0.474932 -25.4035 L 0.501313 -25.4576 L 0.527695 -25.5116 L 0.554076 -25.5657 L 0.580456 -25.6197 L 0.606836 -25.6738 L 0.633215 -25.7277 L 0.659594 -25.7817 L 0.685972 -25.8356 L 0.712349 -25.8895 L 0.738726 -25.9434 L 0.765102 -25.9973 L 0.791477 -26.0511 L 0.817852 -26.105 L 0.844225 -26.1587 L 0.870599 -26.2125 L 0.896971 -26.2663 L 0.923343 -26.32 L 0.949713 -26.3737 L 0.976083 -26.4274 L 1.00245 -26.481 L 1.05702 -26.4789 L 1.11158 -26.4767 L 1.16613 -26.4743 L 1.22068 -26.4719 L 1.27523 -26.4693 L 1.32976 -26.4666 L 1.3843 -26.4638 L 1.43883 -26.4609 L 1.49335 -26.4579 L 1.54786 -26.4548 L 1.60237 -26.4515 L 1.65687 -26.4482 L 1.71137 -26.4447 L 1.76586 -26.4411 L 1.82034 -26.4374 L 1.87481 -26.4336 L 1.92927 -26.4297 L 1.98373 -26.4256 L 2.03818 -26.4215 L 2.09262 -26.4172 L 2.14705 -26.4129 L 2.20147 -26.4084 L 2.25588 -26.4038 L 2.31028 -26.3991 L 2.36467 -26.3943 L 2.41906 -26.3894 L 2.47343 -26.3843 L 2.52779 -26.3792 L 2.58214 -26.3739 L 2.63648 -26.3685 L 2.69081 -26.363 L 2.84917 -26.3464 L 2.90346 -26.3405 L 2.95773 -26.3344 L 3.01198 -26.3283 L 3.06623 -26.322 L 3.12046 -26.3156 L 3.17468 -26.3092 L 3.22889 -26.3026 L 3.28308 -26.2958 L 3.33725 -26.289 L 3.39142 -26.2821 L 3.44557 -26.275 L 3.4997 -26.2679 L 3.55382 -26.2606 L 3.60793 -26.2532 L 3.66201 -26.2458 L 3.71609 -26.2382 L 3.77015 -26.2304 L 3.82419 -26.2226 L 3.87821 -26.2147 L 3.93222 -26.2066 L 3.98621 -26.1985 L 4.04019 -26.1902 L 4.09415 -26.1818 L 4.14809 -26.1733 L 4.20201 -26.1647 L 4.25592 -26.156 L 4.30981 -26.1472 L 4.36367 -26.1383 L 4.41753 -26.1292 L 4.47136 -26.12 L 4.52517 -26.1108 L 4.53981 -26.0528 L 4.55444 -25.9948 L 4.56907 -25.9368 L 4.58369 -25.8788 L 4.59832 -25.8207 L 4.61293 -25.7626 L 4.62755 -25.7045 L 4.64215 -25.6464 L 4.65676 -25.5883 L 4.67136 -25.5301 L 4.68596 -25.4719 L 4.70055 -25.4137 L 4.71514 -25.3554 L 4.72972 -25.2972 L 4.7443 -25.2389 L 4.75887 -25.1806 L 4.77344 -25.1222 L 4.78801 -25.0639 L 4.80257 -25.0055 L 4.81712 -24.9471 L 4.83167 -24.8886 L 4.84622 -24.8302 L 4.86076 -24.7717 L 4.8753 -24.7132 L 4.88983 -24.6546 L 4.90435 -24.5961 L 4.91887 -24.5375 L 4.93339 -24.4789 L 4.9479 -24.4202 L 4.9624 -24.3616 L 4.9769 -24.3029 L 4.9914 -24.2441 L 5.00589 -24.1854 L 5.02037 -24.1266 L 5.03485 -24.0678 L 5.04932 -24.009 L 5.06378 -23.9501 L 5.07824 -23.8913 L 5.07824 -23.8913 L 5.1154 -23.9392 L 5.15256 -23.9871 L 5.18971 -24.0349 L 5.22685 -24.0827 L 5.26398 -24.1305 L 5.30112 -24.1783 L 5.33824 -24.2261 L 5.37536 -24.2738 L 5.41247 -24.3215 L 5.44958 -24.3692 L 5.48668 -24.4168 L 5.52378 -24.4644 L 5.56087 -24.512 L 5.59795 -24.5596 L 5.63503 -24.6071 L 5.6721 -24.6546 L 5.70917 -24.7021 L 5.74623 -24.7496 L 5.78328 -24.797 L 5.82033 -24.8444 L 5.85738 -24.8918 L 5.89442 -24.9392 L 5.93145 -24.9865 L 5.96847 -25.0339 L 6.0055 -25.0812 L 6.04251 -25.1284 L 6.07952 -25.1757 L 6.11653 -25.2229 L 6.15352 -25.2701 L 6.19052 -25.3173 L 6.2275 -25.3645 L 6.26449 -25.4116 L 6.30146 -25.4587 L 6.33843 -25.5058 L 6.3754 -25.5529 L 6.41236 -25.5999 L 6.44931 -25.6469 L 6.48626 -25.6939 L 6.53919 -25.6805 L 6.5921 -25.667 L 6.64497 -25.6533 L 6.69782 -25.6396 L 6.75064 -25.6257 L 6.80342 -25.6118 L 6.85619 -25.5977 L 6.90892 -25.5835 L 6.96162 -25.5692 L 7.01429 -25.5548 L 7.06693 -25.5403 L 7.11955 -25.5257 L 7.17213 -25.511 L 7.22468 -25.4962 L 7.2772 -25.4812 L 7.32969 -25.4662 L 7.38215 -25.451 L 7.43458 -25.4357 L 7.48698 -25.4204 L 7.53934 -25.4049 L 7.59167 -25.3893 L 7.64397 -25.3736 L 7.69624 -25.3578 L 7.74848 -25.3419 L 7.80068 -25.3259 L 7.85285 -25.3097 L 7.90499 -25.2935 L 7.95709 -25.2772 L 8.00916 -25.2607 L 8.06119 -25.2442 L 8.11319 -25.2275 L 8.26464 -25.1783 L 8.3165 -25.1612 L 8.36833 -25.144 L 8.42012 -25.1267 L 8.47188 -25.1093 L 8.5236 -25.0918 L 8.57529 -25.0742 L 8.62694 -25.0565 L 8.67855 -25.0386 L 8.73012 -25.0207 L 8.78166 -25.0026 L 8.83316 -24.9845 L 8.88463 -24.9662 L 8.93605 -24.9479 L 8.98744 -24.9294 L 9.03879 -24.9108 L 9.0901 -24.8922 L 9.14137 -24.8734 L 9.19261 -24.8545 L 9.2438 -24.8355 L 9.29496 -24.8164 L 9.34608 -24.7972 L 9.39715 -24.7779 L 9.44819 -24.7585 L 9.49919 -24.7389 L 9.55014 -24.7193 L 9.60106 -24.6996 L 9.65193 -24.6798 L 9.70277 -24.6598 L 9.75356 -24.6398 L 9.80431 -24.6196 L 9.85502 -24.5994 L 9.85729 -24.5396 L 9.85954 -24.4799 L 9.86179 -24.4201 L 9.86403 -24.3603 L 9.86626 -24.3004 L 9.86848 -24.2406 L 9.8707 -24.1807 L 9.8729 -24.1208 L 9.8751 -24.0609 L 9.87729 -24.001 L 9.87946 -23.941 L 9.88163 -23.881 L 9.88379 -23.821 L 9.88594 -23.761 L 9.88808 -23.701 L 9.89021 -23.6409 L 9.89234 -23.5808 L 9.89445 -23.5207 L 9.89655 -23.4605 L 9.89864 -23.4004 L 9.90073 -23.3402 L 9.9028 -23.28 L 9.90486 -23.2198 L 9.90692 -23.1595 L 9.90896 -23.0992 L 9.91099 -23.0389 L 9.91301 -22.9786 L 9.91503 -22.9182 L 9.91703 -22.8579 L 9.91902 -22.7975 L 9.921 -22.737 L 9.92297 -22.6766 L 9.92492 -22.6161 L 9.92687 -22.5556 L 9.9288 -22.4951 L 9.93073 -22.4345 L 9.93264 -22.374 L 9.93454 -22.3133 L 9.93454 -22.3133 L 9.98085 -22.3525 L 10.0272 -22.3916 L 10.0734 -22.4307 L 10.1197 -22.4697 L 10.166 -22.5088 L 10.2122 -22.5478 L 10.2585 -22.5868 L 10.3047 -22.6257 L 10.3509 -22.6647 L 10.3971 -22.7036 L 10.4433 -22.7425 L 10.4895 -22.7813 L 10.5357 -22.8202 L 10.5818 -22.859 L 10.628 -22.8978 L 10.6741 -22.9366 L 10.7203 -22.9753 L 10.7664 -23.014 L 10.8125 -23.0527 L 10.8586 -23.0914 L 10.9047 -23.1301 L 10.9508 -23.1687 L 10.9968 -23.2073 L 11.0429 -23.2459 L 11.0889 -23.2845 L 11.135 -23.323 L 11.181 -23.3615 L 11.227 -23.4 L 11.273 -23.4385 L 11.319 -23.477 L 11.365 -23.5154 L 11.411 -23.5538 L 11.4569 -23.5922 L 11.5029 -23.6306 L 11.5488 -23.669 L 11.5948 -23.7073 L 11.6407 -23.7456 L 11.6866 -23.7839 L 11.7356 -23.7598 L 11.7845 -23.7355 L 11.8334 -23.7112 L 11.8822 -23.6868 L 11.931 -23.6622 L 11.9797 -23.6376 L 12.0284 -23.6129 L 12.0771 -23.588 L 12.1256 -23.5631 L 12.1742 -23.538 L 12.2226 -23.5129 L 12.2711 -23.4877 L 12.3194 -23.4623 L 12.3678 -23.4369 L 12.416 -23.4114 L 12.4642 -23.3857 L 12.5124 -23.36 L 12.5605 -23.3342 L 12.6086 -23.3082 L 12.6566 -23.2822 L 12.7045 -23.2561 L 12.7524 -23.2299 L 12.8002 -23.2035 L 12.848 -23.1771 L 12.8958 -23.1506 L 12.9434 -23.124 L 12.9911 -23.0972 L 13.0386 -23.0704 L 13.0861 -23.0435 L 13.1336 -23.0165 L 13.181 -22.9894 L 13.3189 -22.9098 L 13.3661 -22.8823 L 13.4132 -22.8547 L 13.4603 -22.827 L 13.5073 -22.7992 L 13.5542 -22.7713 L 13.6011 -22.7433 L 13.6479 -22.7153 L 13.6947 -22.6871 L 13.7414 -22.6588 L 13.7881 -22.6305 L 13.8347 -22.602 L 13.8813 -22.5735 L 13.9277 -22.5448 L 13.9742 -22.5161 L 14.0205 -22.4872 L 14.0668 -22.4583 L 14.1131 -22.4292 L 14.1593 -22.4001 L 14.2054 -22.3709 L 14.2515 -22.3416 L 14.2975 -22.3122 L 14.3434 -22.2826 L 14.3893 -22.253 L 14.4351 -22.2233 L 14.4809 -22.1936 L 14.5266 -22.1637 L 14.5722 -22.1337 L 14.6178 -22.1036 L 14.6633 -22.0734 L 14.7088 -22.0432 L 14.7542 -22.0128 L 14.744 -21.9539 L 14.7337 -21.895 L 14.7235 -21.836 L 14.7133 -21.7771 L 14.703 -21.7181 L 14.6927 -21.6591 L 14.6825 -21.6001 L 14.6722 -21.541 L 14.6618 -21.482 L 14.6515 -21.4229 L 14.6412 -21.3638 L 14.6308 -21.3047 L 14.6205 -21.2455 L 14.6101 -21.1864 L 14.5997 -21.1272 L 14.5893 -21.068 L 14.5789 -21.0088 L 14.5685 -20.9495 L 14.558 -20.8903 L 14.5475 -20.831 L 14.5371 -20.7717 L 14.5266 -20.7124 L 14.5161 -20.653 L 14.5056 -20.5936 L 14.495 -20.5343 L 14.4845 -20.4749 L 14.4739 -20.4154 L 14.4633 -20.356 L 14.4527 -20.2965 L 14.4421 -20.237 L 14.4315 -20.1775 L 14.4209 -20.1179 L 14.4102 -20.0584 L 14.3995 -19.9988 L 14.3888 -19.9392 L 14.3781 -19.8796 L 14.3674 -19.8199 L 14.3567 -19.7602 L 14.3567 -19.7602 L 14.4101 -19.7889 L 14.4635 -19.8175 L 14.5169 -19.8461 L 14.5703 -19.8747 L 14.6237 -19.9033 L 14.677 -19.9318 L 14.7304 -19.9604 L 14.7837 -19.9889 L 14.837 -20.0173 L 14.8903 -20.0458 L 14.9435 -20.0742 L 14.9968 -20.1026 L 15.05 -20.131 L 15.1033 -20.1594 L 15.1565 -20.1877 L 15.2097 -20.2161 L 15.2628 -20.2444 L 15.316 -20.2727 L 15.3692 -20.3009 L 15.4223 -20.3292 L 15.4754 -20.3574 L 15.5285 -20.3856 L 15.5816 -20.4138 L 15.6347 -20.442 L 15.6877 -20.4701 L 15.7408 -20.4983 L 15.7938 -20.5264 L 15.8468 -20.5545 L 15.8998 -20.5825 L 15.9528 -20.6106 L 16.0058 -20.6386 L 16.0587 -20.6666 L 16.1117 -20.6946 L 16.1646 -20.7226 L 16.2175 -20.7506 L 16.2704 -20.7785 L 16.3233 -20.8065 L 16.3762 -20.8344 L 16.4191 -20.8006 L 16.4619 -20.7667 L 16.5046 -20.7327 L 16.5473 -20.6987 L 16.5899 -20.6646 L 16.6325 -20.6303 L 16.675 -20.596 L 16.7174 -20.5616 L 16.7597 -20.5271 L 16.802 -20.4925 L 16.8442 -20.4579 L 16.8863 -20.4231 L 16.9283 -20.3883 L 16.9703 -20.3534 L 17.0122 -20.3183 L 17.054 -20.2832 L 17.0958 -20.2481 L 17.1375 -20.2128 L 17.1791 -20.1774 L 17.2206 -20.142 L 17.2621 -20.1065 L 17.3035 -20.0709 L 17.3448 -20.0352 L 17.3861 -19.9994 L 17.4272 -19.9635 L 17.4683 -19.9276 L 17.5094 -19.8915 L 17.5503 -19.8554 L 17.5912 -19.8192 L 17.632 -19.7829 L 17.6727 -19.7465 L 17.791 -19.64 L 17.8315 -19.6033 L 17.8718 -19.5665 L 17.9121 -19.5296 L 17.9523 -19.4927 L 17.9924 -19.4556 L 18.0325 -19.4185 L 18.0725 -19.3813 L 18.1124 -19.344 L 18.1522 -19.3067 L 18.1919 -19.2692 L 18.2316 -19.2317 L 18.2712 -19.1941 L 18.3107 -19.1564 L 18.3501 -19.1186 L 18.3895 -19.0808 L 18.4288 -19.0429 L 18.468 -19.0048 L 18.5071 -18.9667 L 18.5461 -18.9286 L 18.5851 -18.8903 L 18.624 -18.852 L 18.6628 -18.8136 L 18.7015 -18.7751 L 18.7402 -18.7365 L 18.7787 -18.6978 L 18.8172 -18.6591 L 18.8556 -18.6203 L 18.894 -18.5814 L 18.9322 -18.5424 L 18.9704 -18.5034 L 19.0085 -18.4642 L 18.9862 -18.4087 L 18.964 -18.3532 L 18.9417 -18.2977 L 18.9195 -18.2421 L 18.8972 -18.1866 L 18.8748 -18.131 L 18.8525 -18.0754 L 18.8302 -18.0198 L 18.8078 -17.9642 L 18.7854 -17.9085 L 18.763 -17.8529 L 18.7406 -17.7972 L 18.7182 -17.7415 L 18.6957 -17.6858 L 18.6733 -17.6301 L 18.6508 -17.5743 L 18.6283 -17.5186 L 18.6058 -17.4628 L 18.5832 -17.407 L 18.5607 -17.3512 L 18.5381 -17.2953 L 18.5155 -17.2395 L 18.4929 -17.1836 L 18.4702 -17.1278 L 18.4476 -17.0719 L 18.4249 -17.0159 L 18.4022 -16.96 L 18.3795 -16.904 L 18.3568 -16.8481 L 18.334 -16.7921 L 18.3113 -16.7361 L 18.2885 -16.6801 L 18.2657 -16.624 L 18.2428 -16.568 L 18.22 -16.5119 L 18.1971 -16.4558 L 18.1742 -16.3997 L 18.1513 -16.3435 L 18.1513 -16.3435 L 18.2095 -16.3604 L 18.2677 -16.3773 L 18.3259 -16.3942 L 18.3841 -16.4111 L 18.4422 -16.4279 L 18.5003 -16.4448 L 18.5585 -16.4616 L 18.6165 -16.4783 L 18.6746 -16.4951 L 18.7326 -16.5119 L 18.7907 -16.5286 L 18.8486 -16.5453 L 18.9066 -16.562 L 18.9646 -16.5787 L 19.0225 -16.5954 L 19.0805 -16.612 L 19.1384 -16.6287 L 19.1962 -16.6453 L 19.2541 -16.6619 L 19.3119 -16.6785 L 19.3698 -16.695 L 19.4276 -16.7116 L 19.4854 -16.7281 L 19.5431 -16.7446 L 19.6009 -16.7611 L 19.6586 -16.7776 L 19.7163 -16.7941 L 19.774 -16.8106 L 19.8317 -16.827 L 19.8894 -16.8434 L 19.947 -16.8598 L 20.0046 -16.8762 L 20.0622 -16.8926 L 20.1198 -16.909 L 20.1774 -16.9253 L 20.235 -16.9417 L 20.2925 -16.958 L 20.35 -16.9743 L 20.3849 -16.9323 L 20.4198 -16.8903 L 20.4546 -16.8482 L 20.4892 -16.806 L 20.5238 -16.7637 L 20.5583 -16.7214 L 20.5927 -16.679 L 20.6271 -16.6365 L 20.6613 -16.594 L 20.6954 -16.5514 L 20.7295 -16.5087 L 20.7635 -16.466 L 20.7974 -16.4232 L 20.8312 -16.3803 L 20.8649 -16.3373 L 20.8985 -16.2943 L 20.932 -16.2512 L 20.9655 -16.208 L 20.9988 -16.1648 L 21.0321 -16.1215 L 21.0652 -16.0781 L 21.0983 -16.0347 L 21.1313 -15.9912 L 21.1642 -15.9476 L 21.1971 -15.9039 L 21.2298 -15.8602 L 21.2624 -15.8164 L 21.295 -15.7726 L 21.3274 -15.7287 L 21.3598 -15.6847 L 21.3921 -15.6407 L 21.4857 -15.5118 L 21.5176 -15.4675 L 21.5494 -15.4231 L 21.5811 -15.3787 L 21.6128 -15.3342 L 21.6443 -15.2896 L 21.6758 -15.245 L 21.7072 -15.2003 L 21.7384 -15.1556 L 21.7696 -15.1107 L 21.8007 -15.0658 L 21.8317 -15.0209 L 21.8626 -14.9759 L 21.8934 -14.9308 L 21.9241 -14.8856 L 21.9548 -14.8404 L 21.9853 -14.7952 L 22.0157 -14.7498 L 22.0461 -14.7044 L 22.0763 -14.659 L 22.1065 -14.6134 L 22.1366 -14.5679 L 22.1665 -14.5222 L 22.1964 -14.4765 L 22.2262 -14.4307 L 22.2559 -14.3849 L 22.2855 -14.339 L 22.315 -14.2931 L 22.3444 -14.2471 L 22.3737 -14.201 L 22.4029 -14.1549 L 22.432 -14.1087 L 22.3987 -14.059 L 22.3654 -14.0093 L 22.3321 -13.9596 L 22.2988 -13.9099 L 22.2654 -13.8602 L 22.232 -13.8105 L 22.1986 -13.7608 L 22.1652 -13.711 L 22.1318 -13.6612 L 22.0983 -13.6115 L 22.0648 -13.5617 L 22.0313 -13.5119 L 21.9978 -13.4621 L 21.9643 -13.4122 L 21.9307 -13.3624 L 21.8971 -13.3126 L 21.8635 -13.2627 L 21.8299 -13.2128 L 21.7962 -13.1629 L 21.7626 -13.113 L 21.7289 -13.0631 L 21.6952 -13.0132 L 21.6614 -12.9632 L 21.6277 -12.9133 L 21.5939 -12.8633 L 21.5601 -12.8133 L 21.5263 -12.7633 L 21.4924 -12.7133 L 21.4586 -12.6633 L 21.4247 -12.6133 L 21.3907 -12.5632 L 21.3568 -12.5132 L 21.3228 -12.4631 L 21.2889 -12.413 L 21.2548 -12.3629 L 21.2208 -12.3128 L 21.1868 -12.2626 L 21.1527 -12.2125 L 21.1527 -12.2125 L 21.2131 -12.2169 L 21.2736 -12.2214 L 21.334 -12.2258 L 21.3944 -12.2302 L 21.4548 -12.2346 L 21.5151 -12.239 L 21.5755 -12.2433 L 21.6358 -12.2477 L 21.696 -12.252 L 21.7563 -12.2563 L 21.8165 -12.2606 L 21.8767 -12.2649 L 21.9369 -12.2692 L 21.9971 -12.2735 L 22.0572 -12.2777 L 22.1173 -12.282 L 22.1774 -12.2862 L 22.2375 -12.2904 L 22.2976 -12.2946 L 22.3576 -12.2988 L 22.4176 -12.303 L 22.4776 -12.3072 L 22.5375 -12.3113 L 22.5975 -12.3155 L 22.6574 -12.3196 L 22.7173 -12.3237 L 22.7772 -12.3279 L 22.837 -12.332 L 22.8969 -12.3361 L 22.9567 -12.3401 L 23.0165 -12.3442 L 23.0763 -12.3483 L 23.136 -12.3523 L 23.1957 -12.3563 L 23.2555 -12.3604 L 23.3151 -12.3644 L 23.3748 -12.3684 L 23.4345 -12.3724 L 23.4599 -12.3241 L 23.4853 -12.2757 L 23.5105 -12.2273 L 23.5357 -12.1788 L 23.5607 -12.1303 L 23.5856 -12.0817 L 23.6105 -12.0331 L 23.6352 -11.9844 L 23.6599 -11.9357 L 23.6844 -11.8869 L 23.7089 -11.8381 L 23.7332 -11.7892 L 23.7575 -11.7403 L 23.7816 -11.6913 L 23.8056 -11.6422 L 23.8296 -11.5932 L 23.8534 -11.544 L 23.8771 -11.4949 L 23.9008 -11.4456 L 23.9243 -11.3964 L 23.9477 -11.347 L 23.9711 -11.2977 L 23.9943 -11.2483 L 24.0174 -11.1988 L 24.0405 -11.1493 L 24.0634 -11.0997 L 24.0862 -11.0501 L 24.1089 -11.0005 L 24.1315 -10.9508 L 24.1541 -10.901 L 24.1765 -10.8512 L 24.2412 -10.7057 L 24.2632 -10.6558 L 24.2851 -10.6057 L 24.3069 -10.5557 L 24.3286 -10.5056 L 24.3502 -10.4554 L 24.3717 -10.4052 L 24.3931 -10.355 L 24.4144 -10.3047 L 24.4356 -10.2544 L 24.4567 -10.204 L 24.4776 -10.1536 L 24.4985 -10.1031 L 24.5193 -10.0526 L 24.5399 -10.0021 L 24.5605 -9.95148 L 24.581 -9.90085 L 24.6013 -9.85018 L 24.6215 -9.79946 L 24.6417 -9.74871 L 24.6617 -9.69791 L 24.6817 -9.64707 L 24.7015 -9.5962 L 24.7212 -9.54528 L 24.7408 -9.49432 L 24.7603 -9.44332 L 24.7797 -9.39227 L 24.799 -9.34119 L 24.8182 -9.29007 L 24.8373 -9.23891 L 24.8563 -9.18772 L 24.8752 -9.13648 L 24.8323 -9.09482 L 24.7894 -9.05315 L 24.7465 -9.01148 L 24.7035 -8.96979 L 24.6606 -8.9281 L 24.6176 -8.8864 L 24.5746 -8.8447 L 24.5315 -8.80298 L 24.4885 -8.76126 L 24.4454 -8.71953 L 24.4023 -8.67779 L 24.3592 -8.63605 L 24.316 -8.59429 L 24.2729 -8.55253 L 24.2297 -8.51076 L 24.1865 -8.46898 L 24.1432 -8.4272 L 24.1 -8.3854 L 24.0567 -8.3436 L 24.0134 -8.30179 L 23.97 -8.25997 L 23.9267 -8.21814 L 23.8833 -8.1763 L 23.8399 -8.13446 L 23.7965 -8.09261 L 23.753 -8.05074 L 23.7095 -8.00887 L 23.666 -7.967 L 23.6225 -7.92511 L 23.5789 -7.88321 L 23.5354 -7.84131 L 23.4917 -7.7994 L 23.4481 -7.75748 L 23.4045 -7.71555 L 23.3608 -7.67361 L 23.3171 -7.63166 L 23.2733 -7.5897 L 23.2296 -7.54774 L 23.2296 -7.54774 L 23.2896 -7.53951 L 23.3497 -7.53128 L 23.4097 -7.52304 L 23.4697 -7.51479 L 23.5297 -7.50653 L 23.5896 -7.49826 L 23.6495 -7.48998 L 23.7094 -7.4817 L 23.7693 -7.4734 L 23.8291 -7.4651 L 23.8889 -7.45679 L 23.9487 -7.44848 L 24.0085 -7.44015 L 24.0682 -7.43182 L 24.1279 -7.42348 L 24.1876 -7.41513 L 24.2472 -7.40678 L 24.3069 -7.39841 L 24.3665 -7.39004 L 24.4261 -7.38167 L 24.4857 -7.37328 L 24.5452 -7.36489 L 24.6047 -7.35649 L 24.6642 -7.34808 L 24.7237 -7.33967 L 24.7831 -7.33125 L 24.8425 -7.32282 L 24.9019 -7.31439 L 24.9613 -7.30595 L 25.0207 -7.2975 L 25.08 -7.28905 L 25.1393 -7.28059 L 25.1986 -7.27213 L 25.2579 -7.26365 L 25.3171 -7.25517 L 25.3764 -7.24669 L 25.4356 -7.2382 L 25.4947 -7.2297 L 25.5096 -7.17715 L 25.5243 -7.12457 L 25.5389 -7.07196 L 25.5535 -7.01932 L 25.5679 -6.96665 L 25.5822 -6.91395 L 25.5964 -6.86122 L 25.6104 -6.80847 L 25.6244 -6.75568 L 25.6383 -6.70286 L 25.652 -6.65002 L 25.6657 -6.59715 L 25.6792 -6.54425 L 25.6927 -6.49132 L 25.706 -6.43836 L 25.7192 -6.38538 L 25.7323 -6.33237 L 25.7453 -6.27934 L 25.7582 -6.22627 L 25.7709 -6.17318 L 25.7836 -6.12007 L 25.7962 -6.06692 L 25.8086 -6.01376 L 25.821 -5.96056 L 25.8332 -5.90734 L 25.8453 -5.8541 L 25.8573 -5.80083 L 25.8692 -5.74754 L 25.881 -5.69422 L 25.8927 -5.64088 L 25.9042 -5.58751 L 25.9373 -5.43176 L 25.9485 -5.3783 L 25.9595 -5.32482 L 25.9704 -5.27132 L 25.9812 -5.21779 L 25.9919 -5.16424 L 26.0025 -5.11067 L 26.013 -5.05708 L 26.0234 -5.00347 L 26.0336 -4.94984 L 26.0438 -4.89618 L 26.0538 -4.84251 L 26.0637 -4.78881 L 26.0735 -4.73509 L 26.0832 -4.68136 L 26.0928 -4.6276 L 26.1023 -4.57383 L 26.1117 -4.52003 L 26.1209 -4.46622 L 26.1301 -4.41238 L 26.1391 -4.35853 L 26.148 -4.30466 L 26.1569 -4.25077 L 26.1656 -4.19686 L 26.1741 -4.14294 L 26.1826 -4.08899 L 26.191 -4.03503 L 26.1993 -3.98106 L 26.2074 -3.92706 L 26.2154 -3.87305 L 26.2234 -3.81903 L 26.2312 -3.76498 L 26.1806 -3.73315 L 26.1299 -3.70131 L 26.0793 -3.66947 L 26.0286 -3.63763 L 25.9779 -3.60578 L 25.9272 -3.57393 L 25.8765 -3.54208 L 25.8257 -3.51023 L 25.7749 -3.47837 L 25.7241 -3.44651 L 25.6733 -3.41464 L 25.6224 -3.38277 L 25.5715 -3.3509 L 25.5206 -3.31903 L 25.4697 -3.28715 L 25.4187 -3.25527 L 25.3677 -3.22338 L 25.3167 -3.1915 L 25.2657 -3.15961 L 25.2146 -3.12771 L 25.1636 -3.09582 L 25.1125 -3.06392 L 25.0613 -3.03202 L 25.0102 -3.00011 L 24.959 -2.9682 L 24.9078 -2.93629 L 24.8566 -2.90437 L 24.8053 -2.87246 L 24.754 -2.84053 L 24.7027 -2.80861 L 24.6513 -2.77668 L 24.6 -2.74475 L 24.5486 -2.71282 L 24.4972 -2.68088 L 24.4457 -2.64894 L 24.3942 -2.617 L 24.3427 -2.58506 L 24.2912 -2.55311 L 24.2912 -2.55311 L 24.3482 -2.53257 L 24.4053 -2.51203 L 24.4623 -2.49149 L 24.5192 -2.47095 L 24.5762 -2.4504 L 24.6331 -2.42985 L 24.69 -2.4093 L 24.7468 -2.38874 L 24.8036 -2.36818 L 24.8605 -2.34762 L 24.9172 -2.32706 L 24.974 -2.3065 L 25.0307 -2.28593 L 25.0874 -2.26536 L 25.1441 -2.24479 L 25.2007 -2.22421 L 25.2573 -2.20363 L 25.3139 -2.18305 L 25.3705 -2.16247 L 25.4271 -2.14189 L 25.4836 -2.1213 L 25.5401 -2.10072 L 25.5965 -2.08013 L 25.653 -2.05953 L 25.7094 -2.03894 L 25.7658 -2.01835 L 25.8222 -1.99775 L 25.8785 -1.97715 L 25.9349 -1.95655 L 25.9912 -1.93594 L 26.0474 -1.91534 L 26.1037 -1.89473 L 26.1599 -1.87413 L 26.2161 -1.85352 L 26.2723 -1.8329 L 26.3285 -1.81229 L 26.3846 -1.79168 L 26.4408 -1.77106 L 26.4443 -1.71657 L 26.4478 -1.66208 L 26.4512 -1.60758 L 26.4545 -1.55307 L 26.4576 -1.49856 L 26.4606 -1.44403 L 26.4635 -1.38951 L 26.4664 -1.33497 L 26.469 -1.28044 L 26.4716 -1.22589 L 26.4741 -1.17134 L 26.4765 -1.11679 L 26.4787 -1.06223 L 26.4808 -1.00767 L 26.4829 -0.953097 L 26.4848 -0.898525 L 26.4866 -0.84395 L 26.4882 -0.78937 L 26.4898 -0.734788 L 26.4913 -0.680202 L 26.4926 -0.625613 L 26.4938 -0.571022 L 26.495 -0.516428 L 26.496 -0.461832 L 26.4969 -0.407234 L 26.4977 -0.352635 L 26.4983 -0.298033 L 26.4989 -0.243431 L 26.4993 -0.188828 L 26.4997 -0.134223 L 26.4999 -0.0796186Z"
id="path1" />
</g>
</svg>
