<?xml version="1.0" encoding="UTF-8" standalone="no"?>
<svg version="1.1">
<g
style="fill:none;stroke:#000000;stroke-opacity:1;stroke-width:0.1">
<path d="M 26.9999 0.0633149 L 26.9997 0.11652 L 26.9995 0.169724 L 26.9991 0.222928 L 26.9986 0.276131 L 26.998 0.329332 L 26.9973 0.382533 L 26.9965 0.435732 L 26.9956 0.488929 L 26.9946 0.542125 L 26.9934 0.595318 L 26.9922 0.648509 L 26.9909 0.701698 L 26.9894 0.754883 L 26.9879 0.808066 L 26.9863 0.861246 L 26.9845 0.914422 L 26.9827 0.967595 L 26.9807 1.02076 L 26.9786 1.07393 L 26.9765 1.12709 L 26.9742 1.18025 L 26.9718 1.2334 L 26.9693 1.28655 L 26.9667 1.33969 L 26.9641 1.39282 L 26.9613 1.44596 L 26.9584 1.49908 L 26.9553 1.5522 L 26.9522 1.60532 L 26.949 1.65842 L 26.9457 1.71153 L 26.9423 1.76462 L 26.8877 1.78406 L 26.833 1.8035 L 26.7784 1.82294 L 26.7237 1.84238 L 26.6691 1.86181 L 26.6144 1.88125 L 26.5596 1.90068 L 26.5049 1.92011 L 26.4501 1.93955 L 26.3954 1.95897 L 26.3406 1.9784 L 26.2857 1.99783 L 26.2309 2.01725 L 26.176 2.03667 L 26.1211 2.05609 L 26.0662 2.07551 L 26.0113 2.09493 L 25.9563 2.11435 L 25.9014 2.13376 L 25.8464 2.15317 L 25.7913 2.17258 L 25.7363 2.19199 L 25.6812 2.2114 L 25.6262 2.2308 L 25.5711 2.25021 L 25.5159 2.26961 L 25.4608 2.28901 L 25.4056 2.3084 L 25.3504 2.3278 L 25.2952 2.34719 L 25.2399 2.36658 L 25.1847 2.38597 L 25.1294 2.40535 L 25.0741 2.42474 L 25.0187 2.44412 L 24.9634 2.4635 L 24.908 2.48287 L 24.8526 2.50225 L 24.7971 2.52162 L 24.7971 2.52162 L 24.8475 2.55175 L 24.8979 2.58189 L 24.9483 2.61202 L 24.9986 2.64214 L 25.0489 2.67227 L 25.0992 2.70239 L 25.1494 2.73251 L 25.1997 2.76262 L 25.2499 2.79274 L 25.3001 2.82285 L 25.3502 2.85296 L 25.4004 2.88307 L 25.4505 2.91317 L 25.5006 2.94327 L 25.5507 2.97337 L 25.6007 3.00346 L 25.6507 3.03356 L 25.7007 3.06365 L 25.7507 3.09374 L 25.8007 3.12382 L 25.8506 3.15391 L 25.9005 3.18399 L 25.9504 3.21406 L 26.0003 3.24414 L 26.0502 3.27421 L 26.1 3.30428 L 26.1498 3.33435 L 26.1996 3.36441 L 26.2494 3.39447 L 26.2991 3.42453 L 26.3489 3.45459 L 26.3986 3.48464 L 26.4483 3.51469 L 26.4979 3.54474 L 26.5476 3.57479 L 26.5972 3.60483 L 26.6468 3.63487 L 26.6964 3.66491 L 26.746 3.69494 L 26.7386 3.74764 L 26.7312 3.80032 L 26.7237 3.85299 L 26.716 3.90564 L 26.7083 3.95828 L 26.7004 4.0109 L 26.6925 4.06351 L 26.6844 4.1161 L 26.6762 4.16868 L 26.668 4.22124 L 26.6596 4.27378 L 26.6511 4.3263 L 26.6426 4.37881 L 26.6339 4.43131 L 26.6251 4.48378 L 26.6162 4.53624 L 26.6072 4.58868 L 26.5981 4.6411 L 26.5889 4.6935 L 26.5796 4.74589 L 26.5702 4.79826 L 26.5607 4.85061 L 26.5511 4.90294 L 26.5414 4.95525 L 26.5316 5.00754 L 26.5217 5.05981 L 26.5116 5.11206 L 26.5015 5.1643 L 26.4913 5.21651 L 26.481 5.2687 L 26.4705 5.32087 L 26.46 5.37303 L 26.4345 5.49706 L 26.4236 5.54914 L 26.4126 5.6012 L 26.4015 5.65324 L 26.3903 5.70525 L 26.379 5.75725 L 26.3677 5.80922 L 26.3562 5.86116 L 26.3446 5.91309 L 26.3328 5.96499 L 26.321 6.01687 L 26.3091 6.06873 L 26.2971 6.12056 L 26.285 6.17237 L 26.2728 6.22415 L 26.2605 6.27591 L 26.2481 6.32765 L 26.2355 6.37936 L 26.2229 6.43104 L 26.2102 6.4827 L 26.1974 6.53434 L 26.1844 6.58595 L 26.1714 6.63754 L 26.1583 6.6891 L 26.1451 6.74063 L 26.1317 6.79214 L 26.1183 6.84362 L 26.1048 6.89507 L 26.0911 6.9465 L 26.0774 6.9979 L 26.0635 7.04927 L 26.0496 7.10062 L 26.0355 7.15194 L 25.9782 7.15999 L 25.9207 7.16804 L 25.8633 7.17608 L 25.8058 7.18412 L 25.7484 7.19215 L 25.6909 7.20017 L 25.6334 7.20819 L 25.5758 7.21621 L 25.5183 7.22422 L 25.4607 7.23222 L 25.4031 7.24022 L 25.3455 7.24821 L 25.2879 7.2562 L 25.2302 7.26418 L 25.1725 7.27215 L 25.1148 7.28012 L 25.0571 7.28808 L 24.9994 7.29604 L 24.9416 7.30399 L 24.8839 7.31193 L 24.8261 7.31987 L 24.7682 7.3278 L 24.7104 7.33573 L 24.6525 7.34365 L 24.5947 7.35156 L 24.5367 7.35947 L 24.4788 7.36737 L 24.4209 7.37526 L 24.3629 7.38315 L 24.3049 7.39103 L 24.2469 7.3989 L 24.1888 7.40676 L 24.1308 7.41462 L 24.0727 7.42247 L 24.0146 7.43032 L 23.9565 7.43816 L 23.8983 7.44599 L 23.8401 7.45381 L 23.7819 7.46163 L 23.7819 7.46163 L 23.8252 7.50129 L 23.8685 7.54095 L 23.9118 7.58059 L 23.955 7.62024 L 23.9982 7.65987 L 24.0414 7.6995 L 24.0846 7.73912 L 24.1277 7.77873 L 24.1708 7.81833 L 24.2139 7.85793 L 24.257 7.89752 L 24.3001 7.9371 L 24.3431 7.97668 L 24.3861 8.01625 L 24.4291 8.05581 L 24.4721 8.09537 L 24.515 8.13492 L 24.5579 8.17446 L 24.6008 8.21399 L 24.6437 8.25352 L 24.6866 8.29304 L 24.7294 8.33255 L 24.7722 8.37206 L 24.815 8.41155 L 24.8578 8.45105 L 24.9006 8.49053 L 24.9433 8.53001 L 24.986 8.56948 L 25.0287 8.60895 L 25.0714 8.64841 L 25.1141 8.68786 L 25.1567 8.7273 L 25.1994 8.76674 L 25.242 8.80617 L 25.2845 8.8456 L 25.3271 8.88502 L 25.3697 8.92443 L 25.4122 8.96383 L 25.4547 9.00323 L 25.4369 9.05337 L 25.419 9.10348 L 25.401 9.15355 L 25.3829 9.20359 L 25.3648 9.25359 L 25.3465 9.30356 L 25.3281 9.35348 L 25.3096 9.40338 L 25.291 9.45323 L 25.2724 9.50305 L 25.2536 9.55283 L 25.2347 9.60258 L 25.2157 9.65229 L 25.1967 9.70196 L 25.1775 9.75159 L 25.1582 9.80118 L 25.1389 9.85074 L 25.1194 9.90026 L 25.0999 9.94974 L 25.0802 9.99918 L 25.0604 10.0486 L 25.0406 10.0979 L 25.0206 10.1473 L 25.0006 10.1966 L 24.9805 10.2458 L 24.9602 10.295 L 24.9399 10.3442 L 24.9195 10.3933 L 24.8989 10.4424 L 24.8783 10.4914 L 24.8576 10.5404 L 24.8368 10.5894 L 24.7868 10.7058 L 24.7657 10.7546 L 24.7444 10.8034 L 24.7231 10.8521 L 24.7017 10.9008 L 24.6801 10.9495 L 24.6585 10.9981 L 24.6368 11.0466 L 24.615 11.0952 L 24.5931 11.1437 L 24.5711 11.1921 L 24.549 11.2405 L 24.5268 11.2888 L 24.5045 11.3372 L 24.4821 11.3854 L 24.4596 11.4336 L 24.437 11.4818 L 24.4143 11.5299 L 24.3916 11.578 L 24.3687 11.6261 L 24.3458 11.6741 L 24.3227 11.722 L 24.2996 11.7699 L 24.2763 11.8178 L 24.253 11.8656 L 24.2296 11.9134 L 24.206 11.9611 L 24.1824 12.0088 L 24.1587 12.0564 L 24.1349 12.104 L 24.111 12.1515 L 24.087 12.199 L 24.0629 12.2465 L 24.0051 12.2428 L 23.9472 12.2391 L 23.8893 12.2354 L 23.8314 12.2317 L 23.7735 12.228 L 23.7156 12.2243 L 23.6576 12.2206 L 23.5997 12.2169 L 23.5417 12.2131 L 23.4837 12.2094 L 23.4257 12.2056 L 23.3676 12.2018 L 23.3096 12.1981 L 23.2515 12.1943 L 23.1934 12.1905 L 23.1353 12.1867 L 23.0771 12.1829 L 23.019 12.179 L 22.9608 12.1752 L 22.9026 12.1713 L 22.8444 12.1675 L 22.7862 12.1636 L 22.7279 12.1597 L 22.6696 12.1558 L 22.6113 12.1519 L 22.553 12.148 L 22.4947 12.1441 L 22.4363 12.1402 L 22.378 12.1362 L 22.3196 12.1323 L 22.2612 12.1283 L 22.2027 12.1243 L 22.1443 12.1203 L 22.0858 12.1163 L 22.0273 12.1123 L 21.9688 12.1083 L 21.9102 12.1043 L 21.8517 12.1002 L 21.7931 12.0962 L 21.7931 12.0962 L 21.8275 12.1437 L 21.8619 12.1913 L 21.8963 12.2388 L 21.9307 12.2864 L 21.965 12.3339 L 21.9994 12.3814 L 22.0337 12.4289 L 22.068 12.4764 L 22.1022 12.5238 L 22.1365 12.5713 L 22.1707 12.6188 L 22.2049 12.6662 L 22.2391 12.7136 L 22.2733 12.761 L 22.3074 12.8084 L 22.3415 12.8558 L 22.3756 12.9032 L 22.4097 12.9506 L 22.4438 12.998 L 22.4778 13.0453 L 22.5119 13.0926 L 22.5459 13.14 L 22.5799 13.1873 L 22.6138 13.2346 L 22.6478 13.2819 L 22.6817 13.3292 L 22.7157 13.3765 L 22.7496 13.4237 L 22.7834 13.471 L 22.8173 13.5182 L 22.8512 13.5654 L 22.885 13.6127 L 22.9188 13.6599 L 22.9526 13.7071 L 22.9864 13.7543 L 23.0201 13.8014 L 23.0539 13.8486 L 23.0876 13.8958 L 23.1213 13.9429 L 23.0938 13.9885 L 23.0662 14.0339 L 23.0385 14.0794 L 23.0107 14.1247 L 22.9828 14.1701 L 22.9548 14.2153 L 22.9268 14.2605 L 22.8986 14.3057 L 22.8704 14.3508 L 22.8421 14.3958 L 22.8137 14.4408 L 22.7852 14.4857 L 22.7566 14.5306 L 22.7279 14.5754 L 22.6991 14.6202 L 22.6703 14.6649 L 22.6413 14.7095 L 22.6123 14.7541 L 22.5832 14.7986 L 22.554 14.8431 L 22.5247 14.8875 L 22.4953 14.9319 L 22.4658 14.9762 L 22.4363 15.0204 L 22.4066 15.0646 L 22.3769 15.1087 L 22.3471 15.1528 L 22.3172 15.1968 L 22.2872 15.2407 L 22.2571 15.2846 L 22.227 15.3285 L 22.1967 15.3722 L 22.1244 15.4762 L 22.0938 15.5197 L 22.0632 15.5632 L 22.0325 15.6067 L 22.0017 15.6501 L 21.9708 15.6934 L 21.9399 15.7367 L 21.9088 15.7799 L 21.8777 15.823 L 21.8464 15.8661 L 21.8151 15.9091 L 21.7837 15.9521 L 21.7523 15.995 L 21.7207 16.0378 L 21.6891 16.0806 L 21.6573 16.1233 L 21.6255 16.1659 L 21.5936 16.2085 L 21.5616 16.251 L 21.5296 16.2935 L 21.4974 16.3359 L 21.4652 16.3782 L 21.4329 16.4205 L 21.4005 16.4627 L 21.368 16.5048 L 21.3354 16.5469 L 21.3028 16.5889 L 21.2701 16.6308 L 21.2372 16.6727 L 21.2043 16.7145 L 21.1714 16.7563 L 21.1383 16.798 L 21.1052 16.8396 L 21.0492 16.8244 L 20.9933 16.8091 L 20.9373 16.7939 L 20.8814 16.7786 L 20.8254 16.7633 L 20.7694 16.748 L 20.7134 16.7327 L 20.6574 16.7174 L 20.6013 16.702 L 20.5452 16.6867 L 20.4892 16.6713 L 20.4331 16.6559 L 20.377 16.6406 L 20.3208 16.6252 L 20.2647 16.6097 L 20.2085 16.5943 L 20.1523 16.5789 L 20.0962 16.5634 L 20.0399 16.5479 L 19.9837 16.5325 L 19.9275 16.517 L 19.8712 16.5014 L 19.8149 16.4859 L 19.7586 16.4704 L 19.7023 16.4548 L 19.646 16.4392 L 19.5896 16.4237 L 19.5333 16.4081 L 19.4769 16.3924 L 19.4205 16.3768 L 19.3641 16.3612 L 19.3076 16.3455 L 19.2512 16.3298 L 19.1947 16.3141 L 19.1382 16.2984 L 19.0817 16.2827 L 19.0252 16.267 L 18.9686 16.2512 L 18.912 16.2355 L 18.912 16.2355 L 18.9362 16.289 L 18.9603 16.3425 L 18.9845 16.396 L 19.0085 16.4495 L 19.0326 16.5029 L 19.0567 16.5564 L 19.0807 16.6098 L 19.1048 16.6632 L 19.1288 16.7166 L 19.1528 16.77 L 19.1767 16.8234 L 19.2007 16.8767 L 19.2246 16.9301 L 19.2485 16.9834 L 19.2724 17.0367 L 19.2963 17.09 L 19.3202 17.1433 L 19.3441 17.1965 L 19.3679 17.2498 L 19.3917 17.303 L 19.4155 17.3562 L 19.4393 17.4095 L 19.4631 17.4626 L 19.4868 17.5158 L 19.5106 17.569 L 19.5343 17.6221 L 19.558 17.6753 L 19.5817 17.7284 L 19.6054 17.7815 L 19.629 17.8346 L 19.6527 17.8877 L 19.6763 17.9407 L 19.6999 17.9938 L 19.7235 18.0468 L 19.7471 18.0998 L 19.7707 18.1529 L 19.7942 18.2058 L 19.8178 18.2588 L 19.8413 18.3118 L 19.8052 18.3509 L 19.769 18.3899 L 19.7327 18.4288 L 19.6964 18.4676 L 19.6599 18.5064 L 19.6234 18.5451 L 19.5868 18.5837 L 19.5502 18.6223 L 19.5135 18.6608 L 19.4766 18.6992 L 19.4398 18.7375 L 19.4028 18.7758 L 19.3658 18.814 L 19.3287 18.8521 L 19.2915 18.8902 L 19.2542 18.9282 L 19.2169 18.9661 L 19.1795 19.0039 L 19.142 19.0417 L 19.1044 19.0793 L 19.0668 19.117 L 19.0291 19.1545 L 18.9913 19.192 L 18.9534 19.2293 L 18.9155 19.2667 L 18.8775 19.3039 L 18.8394 19.3411 L 18.8013 19.3781 L 18.763 19.4151 L 18.7248 19.4521 L 18.6864 19.4889 L 18.6479 19.5257 L 18.5562 19.613 L 18.5175 19.6495 L 18.4787 19.686 L 18.4399 19.7223 L 18.401 19.7586 L 18.362 19.7948 L 18.323 19.831 L 18.2839 19.8671 L 18.2447 19.9031 L 18.2054 19.939 L 18.1661 19.9748 L 18.1267 20.0106 L 18.0872 20.0462 L 18.0477 20.0818 L 18.0081 20.1174 L 17.9684 20.1528 L 17.9287 20.1882 L 17.8889 20.2235 L 17.849 20.2587 L 17.809 20.2938 L 17.769 20.3289 L 17.7289 20.3639 L 17.6887 20.3987 L 17.6485 20.4336 L 17.6082 20.4683 L 17.5678 20.503 L 17.5274 20.5375 L 17.4869 20.572 L 17.4463 20.6065 L 17.4057 20.6408 L 17.365 20.6751 L 17.3242 20.7092 L 17.2834 20.7433 L 17.2316 20.7172 L 17.1799 20.691 L 17.1282 20.6647 L 17.0764 20.6385 L 17.0247 20.6123 L 16.9729 20.586 L 16.9211 20.5597 L 16.8693 20.5335 L 16.8175 20.5072 L 16.7657 20.4808 L 16.7138 20.4545 L 16.662 20.4281 L 16.6101 20.4018 L 16.5582 20.3754 L 16.5063 20.349 L 16.4544 20.3226 L 16.4025 20.2961 L 16.3506 20.2697 L 16.2986 20.2432 L 16.2467 20.2167 L 16.1947 20.1902 L 16.1427 20.1637 L 16.0907 20.1372 L 16.0387 20.1106 L 15.9867 20.084 L 15.9346 20.0574 L 15.8826 20.0308 L 15.8305 20.0042 L 15.7784 19.9776 L 15.7263 19.9509 L 15.6742 19.9242 L 15.6221 19.8975 L 15.5699 19.8708 L 15.5178 19.8441 L 15.4656 19.8173 L 15.4134 19.7905 L 15.3612 19.7637 L 15.309 19.7369 L 15.2567 19.7101 L 15.2567 19.7101 L 15.2696 19.7674 L 15.2825 19.8247 L 15.2954 19.8819 L 15.3082 19.9391 L 15.321 19.9964 L 15.3338 20.0536 L 15.3466 20.1107 L 15.3594 20.1679 L 15.3722 20.225 L 15.3849 20.2822 L 15.3977 20.3393 L 15.4104 20.3963 L 15.4231 20.4534 L 15.4358 20.5105 L 15.4485 20.5675 L 15.4611 20.6245 L 15.4738 20.6815 L 15.4864 20.7385 L 15.4991 20.7954 L 15.5117 20.8524 L 15.5243 20.9093 L 15.5369 20.9662 L 15.5495 21.0231 L 15.562 21.0799 L 15.5746 21.1368 L 15.5871 21.1936 L 15.5996 21.2505 L 15.6122 21.3073 L 15.6247 21.364 L 15.6372 21.4208 L 15.6496 21.4776 L 15.6621 21.5343 L 15.6746 21.591 L 15.687 21.6477 L 15.6994 21.7044 L 15.7118 21.7611 L 15.7242 21.8177 L 15.7366 21.8744 L 15.749 21.931 L 15.7058 21.962 L 15.6625 21.9929 L 15.6191 22.0237 L 15.5757 22.0544 L 15.5322 22.0851 L 15.4886 22.1157 L 15.445 22.1461 L 15.4014 22.1765 L 15.3576 22.2068 L 15.3138 22.2371 L 15.27 22.2672 L 15.2261 22.2972 L 15.1821 22.3272 L 15.1381 22.3571 L 15.094 22.3869 L 15.0499 22.4166 L 15.0057 22.4462 L 14.9614 22.4757 L 14.9171 22.5051 L 14.8727 22.5345 L 14.8283 22.5637 L 14.7838 22.5929 L 14.7392 22.622 L 14.6946 22.651 L 14.6499 22.6799 L 14.6052 22.7087 L 14.5605 22.7375 L 14.5156 22.7661 L 14.4707 22.7947 L 14.4258 22.8232 L 14.3808 22.8515 L 14.3357 22.8798 L 14.2283 22.9468 L 14.183 22.9748 L 14.1377 23.0027 L 14.0924 23.0305 L 14.0469 23.0583 L 14.0015 23.0859 L 13.956 23.1134 L 13.9104 23.1409 L 13.8648 23.1683 L 13.8191 23.1955 L 13.7733 23.2227 L 13.7276 23.2498 L 13.6817 23.2768 L 13.6358 23.3037 L 13.5899 23.3306 L 13.5439 23.3573 L 13.4978 23.3839 L 13.4517 23.4105 L 13.4056 23.437 L 13.3593 23.4633 L 13.3131 23.4896 L 13.2668 23.5158 L 13.2204 23.5419 L 13.174 23.5679 L 13.1275 23.5938 L 13.081 23.6196 L 13.0344 23.6454 L 12.9878 23.671 L 12.9411 23.6966 L 12.8944 23.722 L 12.8476 23.7474 L 12.8008 23.7726 L 12.754 23.7978 L 12.7086 23.7618 L 12.6632 23.7257 L 12.6178 23.6896 L 12.5724 23.6535 L 12.527 23.6174 L 12.4815 23.5812 L 12.4361 23.5451 L 12.3906 23.5089 L 12.3452 23.4727 L 12.2997 23.4365 L 12.2542 23.4003 L 12.2088 23.364 L 12.1633 23.3277 L 12.1178 23.2915 L 12.0722 23.2551 L 12.0267 23.2188 L 11.9812 23.1825 L 11.9356 23.1461 L 11.8901 23.1097 L 11.8445 23.0733 L 11.7989 23.0369 L 11.7534 23.0005 L 11.7078 22.964 L 11.6622 22.9275 L 11.6165 22.891 L 11.5709 22.8545 L 11.5253 22.8179 L 11.4796 22.7814 L 11.434 22.7448 L 11.3883 22.7082 L 11.3426 22.6716 L 11.2969 22.6349 L 11.2512 22.5982 L 11.2055 22.5616 L 11.1598 22.5248 L 11.1141 22.4881 L 11.0683 22.4514 L 11.0226 22.4146 L 10.9768 22.3778 L 10.9768 22.3778 L 10.9779 22.4365 L 10.979 22.4952 L 10.9801 22.5539 L 10.9811 22.6125 L 10.9822 22.6711 L 10.9832 22.7297 L 10.9842 22.7883 L 10.9852 22.8469 L 10.9862 22.9054 L 10.9872 22.9639 L 10.9882 23.0224 L 10.9892 23.0809 L 10.9901 23.1394 L 10.9911 23.1978 L 10.992 23.2562 L 10.993 23.3146 L 10.9939 23.373 L 10.9948 23.4313 L 10.9957 23.4897 L 10.9966 23.548 L 10.9975 23.6063 L 10.9984 23.6646 L 10.9993 23.7228 L 11.0001 23.781 L 11.001 23.8393 L 11.0018 23.8975 L 11.0026 23.9556 L 11.0035 24.0138 L 11.0043 24.0719 L 11.0051 24.1301 L 11.0059 24.1882 L 11.0067 24.2462 L 11.0075 24.3043 L 11.0082 24.3624 L 11.009 24.4204 L 11.0097 24.4784 L 11.0105 24.5364 L 11.0112 24.5944 L 11.012 24.6523 L 10.9634 24.674 L 10.9147 24.6955 L 10.866 24.717 L 10.8173 24.7383 L 10.7685 24.7596 L 10.7197 24.7808 L 10.6709 24.8019 L 10.622 24.8228 L 10.5731 24.8437 L 10.5241 24.8645 L 10.4751 24.8852 L 10.426 24.9058 L 10.3769 24.9263 L 10.3278 24.9467 L 10.2786 24.967 L 10.2294 24.9872 L 10.1801 25.0073 L 10.1308 25.0273 L 10.0815 25.0472 L 10.0321 25.0671 L 9.98268 25.0868 L 9.93322 25.1064 L 9.88373 25.1259 L 9.8342 25.1453 L 9.78463 25.1647 L 9.73502 25.1839 L 9.68538 25.203 L 9.63569 25.2221 L 9.58597 25.241 L 9.53622 25.2599 L 9.48642 25.2786 L 9.43659 25.2972 L 9.31784 25.3412 L 9.26789 25.3595 L 9.2179 25.3778 L 9.16787 25.3959 L 9.11781 25.4139 L 9.06771 25.4318 L 9.01758 25.4496 L 8.96741 25.4673 L 8.91721 25.485 L 8.86697 25.5025 L 8.8167 25.5199 L 8.7664 25.5372 L 8.71606 25.5545 L 8.66568 25.5716 L 8.61528 25.5886 L 8.56483 25.6055 L 8.51436 25.6224 L 8.46385 25.6391 L 8.41331 25.6557 L 8.36274 25.6723 L 8.31214 25.6887 L 8.2615 25.705 L 8.21083 25.7212 L 8.16013 25.7374 L 8.1094 25.7534 L 8.05863 25.7693 L 8.00784 25.7852 L 7.95701 25.8009 L 7.90615 25.8165 L 7.85526 25.8321 L 7.80435 25.8475 L 7.7534 25.8628 L 7.70242 25.878 L 7.66522 25.8336 L 7.62802 25.7891 L 7.59081 25.7446 L 7.5536 25.7001 L 7.51639 25.6556 L 7.47916 25.611 L 7.44193 25.5665 L 7.4047 25.5219 L 7.36746 25.4773 L 7.33021 25.4327 L 7.29296 25.388 L 7.2557 25.3434 L 7.21844 25.2987 L 7.18117 25.254 L 7.1439 25.2092 L 7.10662 25.1645 L 7.06933 25.1197 L 7.03204 25.0749 L 6.99474 25.0301 L 6.95744 24.9853 L 6.92013 24.9404 L 6.88281 24.8956 L 6.84549 24.8507 L 6.80816 24.8058 L 6.77083 24.7608 L 6.73349 24.7159 L 6.69614 24.6709 L 6.65879 24.6259 L 6.62143 24.5808 L 6.58407 24.5358 L 6.5467 24.4907 L 6.50932 24.4456 L 6.47194 24.4005 L 6.43455 24.3554 L 6.39715 24.3102 L 6.35975 24.265 L 6.32235 24.2198 L 6.28493 24.1746 L 6.24751 24.1293 L 6.24751 24.1293 L 6.23676 24.1871 L 6.226 24.2448 L 6.21524 24.3024 L 6.20446 24.3601 L 6.19369 24.4177 L 6.1829 24.4754 L 6.17211 24.5329 L 6.16132 24.5905 L 6.15052 24.6481 L 6.13971 24.7056 L 6.1289 24.7631 L 6.11808 24.8205 L 6.10726 24.878 L 6.09643 24.9354 L 6.08559 24.9928 L 6.07475 25.0502 L 6.06391 25.1076 L 6.05306 25.1649 L 6.0422 25.2223 L 6.03134 25.2796 L 6.02048 25.3368 L 6.00961 25.3941 L 5.99873 25.4513 L 5.98785 25.5086 L 5.97696 25.5658 L 5.96607 25.6229 L 5.95518 25.6801 L 5.94428 25.7372 L 5.93337 25.7943 L 5.92246 25.8514 L 5.91155 25.9085 L 5.90063 25.9655 L 5.88971 26.0226 L 5.87878 26.0796 L 5.86785 26.1366 L 5.85691 26.1936 L 5.84597 26.2505 L 5.83503 26.3075 L 5.82408 26.3644 L 5.77212 26.3758 L 5.72013 26.3871 L 5.66812 26.3983 L 5.61609 26.4095 L 5.56404 26.4205 L 5.51196 26.4314 L 5.45987 26.4422 L 5.40775 26.4529 L 5.35562 26.4635 L 5.30346 26.474 L 5.25128 26.4844 L 5.19908 26.4947 L 5.14686 26.5049 L 5.09462 26.515 L 5.04236 26.525 L 4.99008 26.5349 L 4.93778 26.5446 L 4.88547 26.5543 L 4.83313 26.5639 L 4.78077 26.5734 L 4.7284 26.5827 L 4.67601 26.592 L 4.6236 26.6012 L 4.57117 26.6102 L 4.51872 26.6192 L 4.46626 26.628 L 4.41378 26.6368 L 4.36128 26.6454 L 4.30877 26.654 L 4.25624 26.6624 L 4.20369 26.6708 L 4.15112 26.679 L 4.02595 26.6982 L 3.97334 26.706 L 3.9207 26.7138 L 3.86805 26.7215 L 3.81539 26.7291 L 3.76271 26.7365 L 3.71002 26.7439 L 3.65731 26.7512 L 3.60459 26.7583 L 3.55185 26.7654 L 3.4991 26.7723 L 3.44634 26.7791 L 3.39356 26.7859 L 3.34077 26.7925 L 3.28797 26.7991 L 3.23516 26.8055 L 3.18233 26.8118 L 3.12949 26.818 L 3.07663 26.8241 L 3.02377 26.8301 L 2.97089 26.8361 L 2.91801 26.8419 L 2.86511 26.8476 L 2.8122 26.8531 L 2.75928 26.8586 L 2.70634 26.864 L 2.6534 26.8693 L 2.60045 26.8745 L 2.54749 26.8796 L 2.49451 26.8845 L 2.44153 26.8894 L 2.38854 26.8941 L 2.33554 26.8988 L 2.30805 26.8478 L 2.28056 26.7967 L 2.25308 26.7457 L 2.22558 26.6946 L 2.19809 26.6435 L 2.1706 26.5923 L 2.1431 26.5412 L 2.11561 26.49 L 2.08811 26.4388 L 2.06061 26.3876 L 2.0331 26.3364 L 2.0056 26.2851 L 1.97809 26.2339 L 1.95059 26.1826 L 1.92308 26.1313 L 1.89557 26.0799 L 1.86806 26.0286 L 1.84054 25.9772 L 1.81303 25.9258 L 1.78551 25.8744 L 1.758 25.8229 L 1.73048 25.7715 L 1.70296 25.72 L 1.67543 25.6685 L 1.64791 25.6169 L 1.62038 25.5654 L 1.59286 25.5138 L 1.56533 25.4622 L 1.5378 25.4106 L 1.51027 25.3589 L 1.48274 25.3072 L 1.4552 25.2555 L 1.42767 25.2038 L 1.40013 25.1521 L 1.37259 25.1003 L 1.34506 25.0485 L 1.31752 24.9967 L 1.28997 24.9449 L 1.26243 24.893 L 1.26243 24.893 L 1.24028 24.9474 L 1.21812 25.0018 L 1.19596 25.0561 L 1.1738 25.1104 L 1.15165 25.1647 L 1.12949 25.219 L 1.10732 25.2732 L 1.08516 25.3274 L 1.063 25.3816 L 1.04083 25.4358 L 1.01867 25.4899 L 0.996502 25.544 L 0.974334 25.5981 L 0.952166 25.6522 L 0.929997 25.7063 L 0.907827 25.7603 L 0.885657 25.8143 L 0.863485 25.8683 L 0.841313 25.9222 L 0.81914 25.9762 L 0.796967 26.0301 L 0.774793 26.084 L 0.752618 26.1379 L 0.730443 26.1917 L 0.708267 26.2456 L 0.68609 26.2994 L 0.663913 26.3532 L 0.641735 26.4069 L 0.619557 26.4607 L 0.597378 26.5144 L 0.575199 26.5681 L 0.55302 26.6218 L 0.53084 26.6755 L 0.508659 26.7291 L 0.486478 26.7828 L 0.464297 26.8364 L 0.442116 26.89 L 0.419934 26.9435 L 0.397752 26.9971 L 0.344552 26.9978 L 0.29135 26.9984 L 0.238148 26.9989 L 0.184944 26.9994 L 0.13174 26.9997 L 0.0785353 26.9999 L 0.0253303 27 L -0.0278749 27 L -0.0810799 26.9999 L -0.134285 26.9997 L -0.187489 26.9993 L -0.240692 26.9989 L -0.293895 26.9984 L -0.347096 26.9978 L -0.400296 26.997 L -0.453495 26.9962 L -0.506691 26.9952 L -0.559886 26.9942 L -0.613079 26.993 L -0.666269 26.9918 L -0.719456 26.9904 L -0.772641 26.9889 L -0.825823 26.9874 L -0.879002 26.9857 L -0.932177 26.9839 L -0.985348 26.982 L -1.03852 26.98 L -1.09168 26.9779 L -1.14484 26.9757 L -1.19799 26.9734 L -1.25114 26.971 L -1.30429 26.9685 L -1.43076 26.9621 L -1.48389 26.9592 L -1.53701 26.9562 L -1.59012 26.9531 L -1.64323 26.9499 L -1.69634 26.9467 L -1.74943 26.9433 L -1.80252 26.9398 L -1.85561 26.9362 L -1.90868 26.9325 L -1.96175 26.9286 L -2.01481 26.9247 L -2.06786 26.9207 L -2.12091 26.9166 L -2.17394 26.9123 L -2.22697 26.908 L -2.27999 26.9036 L -2.333 26.899 L -2.386 26.8944 L -2.439 26.8896 L -2.49198 26.8848 L -2.54495 26.8798 L -2.59792 26.8747 L -2.65087 26.8696 L -2.70381 26.8643 L -2.75674 26.8589 L -2.80967 26.8534 L -2.86258 26.8478 L -2.91548 26.8421 L -2.96836 26.8363 L -3.02124 26.8304 L -3.07411 26.8244 L -3.12696 26.8183 L -3.14361 26.7628 L -3.16026 26.7073 L -3.17691 26.6517 L -3.19355 26.5961 L -3.21019 26.5405 L -3.22683 26.4849 L -3.24347 26.4293 L -3.2601 26.3736 L -3.27673 26.318 L -3.29336 26.2623 L -3.30999 26.2065 L -3.32661 26.1508 L -3.34323 26.095 L -3.35985 26.0393 L -3.37647 25.9835 L -3.39308 25.9276 L -3.40969 25.8718 L -3.4263 25.8159 L -3.44291 25.76 L -3.45951 25.7041 L -3.47611 25.6482 L -3.4927 25.5923 L -3.50929 25.5363 L -3.52588 25.4803 L -3.54247 25.4243 L -3.55906 25.3682 L -3.57564 25.3122 L -3.59221 25.2561 L -3.60879 25.2 L -3.62536 25.1438 L -3.64192 25.0877 L -3.65849 25.0315 L -3.67505 24.9753 L -3.69161 24.9191 L -3.70816 24.8628 L -3.72471 24.8065 L -3.74126 24.7502 L -3.7578 24.6939 L -3.77434 24.6376 L -3.77434 24.6376 L -3.80699 24.6864 L -3.83963 24.7352 L -3.87227 24.7839 L -3.90491 24.8327 L -3.93754 24.8814 L -3.97017 24.9301 L -4.0028 24.9787 L -4.03542 25.0274 L -4.06804 25.076 L -4.10065 25.1246 L -4.13327 25.1732 L -4.16587 25.2217 L -4.19848 25.2703 L -4.23108 25.3188 L -4.26367 25.3673 L -4.29626 25.4157 L -4.32885 25.4642 L -4.36144 25.5126 L -4.39402 25.561 L -4.4266 25.6093 L -4.45917 25.6577 L -4.49174 25.706 L -4.52431 25.7543 L -4.55687 25.8026 L -4.58943 25.8509 L -4.62198 25.8991 L -4.65453 25.9474 L -4.68708 25.9956 L -4.71962 26.0438 L -4.75216 26.0919 L -4.7847 26.1401 L -4.81723 26.1882 L -4.84976 26.2363 L -4.88229 26.2844 L -4.91481 26.3324 L -4.94733 26.3805 L -4.97984 26.4285 L -5.01235 26.4765 L -5.04486 26.5245 L -5.09712 26.5145 L -5.14936 26.5044 L -5.20158 26.4942 L -5.25377 26.4839 L -5.30595 26.4735 L -5.35811 26.463 L -5.41025 26.4524 L -5.46236 26.4417 L -5.51446 26.4309 L -5.56653 26.42 L -5.61858 26.4089 L -5.67061 26.3978 L -5.72262 26.3866 L -5.7746 26.3753 L -5.82656 26.3638 L -5.8785 26.3523 L -5.93042 26.3407 L -5.98232 26.3289 L -6.03419 26.3171 L -6.08604 26.3051 L -6.13786 26.2931 L -6.18966 26.2809 L -6.24144 26.2687 L -6.29319 26.2563 L -6.34491 26.2439 L -6.39662 26.2313 L -6.4483 26.2187 L -6.49995 26.2059 L -6.55158 26.1931 L -6.60318 26.1801 L -6.65476 26.167 L -6.70631 26.1539 L -6.82889 26.1221 L -6.88036 26.1086 L -6.93179 26.095 L -6.9832 26.0813 L -7.03458 26.0675 L -7.08593 26.0536 L -7.13726 26.0396 L -7.18856 26.0255 L -7.23983 26.0112 L -7.29107 25.9969 L -7.34229 25.9825 L -7.39347 25.968 L -7.44463 25.9534 L -7.49576 25.9387 L -7.54686 25.9238 L -7.59793 25.9089 L -7.64897 25.8939 L -7.69998 25.8788 L -7.75096 25.8635 L -7.80191 25.8482 L -7.85283 25.8328 L -7.90372 25.8173 L -7.95458 25.8016 L -8.00541 25.7859 L -8.0562 25.7701 L -8.10697 25.7542 L -8.1577 25.7381 L -8.20841 25.722 L -8.25908 25.7058 L -8.30972 25.6895 L -8.36032 25.673 L -8.4109 25.6565 L -8.46144 25.6399 L -8.46657 25.5822 L -8.4717 25.5244 L -8.47682 25.4666 L -8.48194 25.4089 L -8.48705 25.351 L -8.49215 25.2932 L -8.49725 25.2354 L -8.50234 25.1775 L -8.50742 25.1196 L -8.5125 25.0617 L -8.51757 25.0038 L -8.52263 24.9458 L -8.52769 24.8879 L -8.53274 24.8299 L -8.53778 24.7719 L -8.54282 24.7139 L -8.54785 24.6558 L -8.55287 24.5978 L -8.55789 24.5397 L -8.5629 24.4816 L -8.5679 24.4235 L -8.57289 24.3653 L -8.57787 24.3071 L -8.58285 24.2489 L -8.58782 24.1907 L -8.59279 24.1325 L -8.59774 24.0742 L -8.60269 24.016 L -8.60763 23.9577 L -8.61256 23.8994 L -8.61749 23.841 L -8.6224 23.7827 L -8.62731 23.7243 L -8.63221 23.6659 L -8.6371 23.6074 L -8.64198 23.549 L -8.64686 23.4905 L -8.65173 23.432 L -8.65658 23.3735 L -8.65658 23.3735 L -8.69839 23.4147 L -8.74019 23.4559 L -8.78198 23.4971 L -8.82376 23.5383 L -8.86553 23.5794 L -8.90729 23.6206 L -8.94905 23.6617 L -8.99079 23.7028 L -9.03253 23.7438 L -9.07426 23.7849 L -9.11598 23.8259 L -9.1577 23.8669 L -9.1994 23.9078 L -9.2411 23.9488 L -9.28279 23.9897 L -9.32447 24.0306 L -9.36614 24.0715 L -9.4078 24.1124 L -9.44946 24.1532 L -9.49111 24.1941 L -9.53275 24.2349 L -9.57438 24.2756 L -9.616 24.3164 L -9.65762 24.3572 L -9.69923 24.3979 L -9.74083 24.4386 L -9.78242 24.4793 L -9.82401 24.5199 L -9.86558 24.5606 L -9.90715 24.6012 L -9.94872 24.6418 L -9.99027 24.6824 L -10.0318 24.723 L -10.0734 24.7635 L -10.1149 24.8041 L -10.1564 24.8446 L -10.1979 24.8851 L -10.2394 24.9256 L -10.2809 24.966 L -10.3301 24.9457 L -10.3792 24.9253 L -10.4283 24.9048 L -10.4774 24.8842 L -10.5264 24.8635 L -10.5754 24.8427 L -10.6243 24.8218 L -10.6732 24.8009 L -10.7221 24.7798 L -10.7709 24.7586 L -10.8196 24.7373 L -10.8684 24.716 L -10.9171 24.6945 L -10.9657 24.6729 L -11.0143 24.6513 L -11.0628 24.6295 L -11.1114 24.6077 L -11.1598 24.5857 L -11.2083 24.5637 L -11.2566 24.5416 L -11.305 24.5193 L -11.3533 24.497 L -11.4015 24.4746 L -11.4497 24.4521 L -11.4979 24.4295 L -11.546 24.4068 L -11.5941 24.384 L -11.6421 24.3611 L -11.6901 24.3381 L -11.738 24.315 L -11.7859 24.2918 L -11.8338 24.2685 L -11.9475 24.2128 L -11.9951 24.1892 L -12.0428 24.1655 L -12.0904 24.1417 L -12.1379 24.1178 L -12.1854 24.0939 L -12.2329 24.0698 L -12.2803 24.0457 L -12.3277 24.0214 L -12.375 23.9971 L -12.4222 23.9727 L -12.4694 23.9481 L -12.5166 23.9235 L -12.5637 23.8988 L -12.6108 23.874 L -12.6578 23.8491 L -12.7048 23.8241 L -12.7517 23.799 L -12.7986 23.7739 L -12.8454 23.7486 L -12.8922 23.7232 L -12.9389 23.6978 L -12.9856 23.6722 L -13.0322 23.6466 L -13.0788 23.6209 L -13.1253 23.5951 L -13.1718 23.5691 L -13.2182 23.5431 L -13.2646 23.5171 L -13.3109 23.4909 L -13.3571 23.4646 L -13.4033 23.4382 L -13.4495 23.4118 L -13.4429 23.3542 L -13.4363 23.2966 L -13.4297 23.239 L -13.4231 23.1813 L -13.4164 23.1237 L -13.4098 23.066 L -13.4032 23.0083 L -13.3965 22.9506 L -13.3898 22.8929 L -13.3831 22.8351 L -13.3764 22.7774 L -13.3697 22.7196 L -13.363 22.6618 L -13.3563 22.604 L -13.3496 22.5462 L -13.3428 22.4883 L -13.3361 22.4305 L -13.3293 22.3726 L -13.3225 22.3147 L -13.3157 22.2567 L -13.3089 22.1988 L -13.3021 22.1408 L -13.2953 22.0829 L -13.2884 22.0249 L -13.2816 21.9668 L -13.2747 21.9088 L -13.2679 21.8507 L -13.261 21.7927 L -13.2541 21.7346 L -13.2472 21.6764 L -13.2402 21.6183 L -13.2333 21.5601 L -13.2264 21.502 L -13.2194 21.4438 L -13.2124 21.3855 L -13.2055 21.3273 L -13.1985 21.269 L -13.1915 21.2108 L -13.1844 21.1525 L -13.1844 21.1525 L -13.2337 21.1844 L -13.2829 21.2164 L -13.3321 21.2483 L -13.3814 21.2803 L -13.4306 21.3122 L -13.4797 21.344 L -13.5289 21.3759 L -13.5781 21.4077 L -13.6272 21.4395 L -13.6764 21.4713 L -13.7255 21.5031 L -13.7746 21.5349 L -13.8237 21.5666 L -13.8728 21.5983 L -13.9219 21.63 L -13.9709 21.6617 L -14.02 21.6934 L -14.069 21.725 L -14.118 21.7566 L -14.1671 21.7883 L -14.2161 21.8198 L -14.265 21.8514 L -14.314 21.883 L -14.363 21.9145 L -14.4119 21.946 L -14.4609 21.9775 L -14.5098 22.009 L -14.5587 22.0405 L -14.6076 22.0719 L -14.6565 22.1033 L -14.7054 22.1347 L -14.7543 22.1661 L -14.8032 22.1975 L -14.852 22.2289 L -14.9009 22.2602 L -14.9497 22.2915 L -14.9985 22.3229 L -15.0473 22.3542 L -15.0961 22.3854 L -15.1402 22.3556 L -15.1842 22.3258 L -15.2282 22.2958 L -15.2721 22.2657 L -15.3159 22.2356 L -15.3597 22.2054 L -15.4034 22.1751 L -15.4471 22.1447 L -15.4907 22.1142 L -15.5343 22.0836 L -15.5778 22.053 L -15.6212 22.0222 L -15.6645 21.9914 L -15.7079 21.9605 L -15.7511 21.9295 L -15.7943 21.8984 L -15.8374 21.8673 L -15.8805 21.836 L -15.9235 21.8047 L -15.9664 21.7732 L -16.0093 21.7417 L -16.0521 21.7102 L -16.0948 21.6785 L -16.1375 21.6467 L -16.1801 21.6149 L -16.2227 21.583 L -16.2652 21.5509 L -16.3076 21.5188 L -16.35 21.4867 L -16.3923 21.4544 L -16.4346 21.4221 L -16.4767 21.3896 L -16.5769 21.3121 L -16.6188 21.2794 L -16.6607 21.2466 L -16.7026 21.2138 L -16.7444 21.1808 L -16.7861 21.1478 L -16.8277 21.1147 L -16.8693 21.0815 L -16.9108 21.0482 L -16.9522 21.0148 L -16.9936 20.9814 L -17.0349 20.9478 L -17.0762 20.9142 L -17.1173 20.8805 L -17.1585 20.8468 L -17.1995 20.8129 L -17.2405 20.779 L -17.2814 20.745 L -17.3222 20.7109 L -17.363 20.6767 L -17.4037 20.6424 L -17.4444 20.6081 L -17.485 20.5737 L -17.5255 20.5392 L -17.5659 20.5046 L -17.6063 20.47 L -17.6466 20.4352 L -17.6868 20.4004 L -17.727 20.3655 L -17.7671 20.3305 L -17.8071 20.2955 L -17.8471 20.2604 L -17.8869 20.2252 L -17.8689 20.1701 L -17.8508 20.115 L -17.8328 20.0599 L -17.8147 20.0048 L -17.7966 19.9496 L -17.7785 19.8945 L -17.7603 19.8393 L -17.7422 19.7841 L -17.724 19.7289 L -17.7059 19.6737 L -17.6877 19.6185 L -17.6695 19.5632 L -17.6513 19.508 L -17.633 19.4527 L -17.6148 19.3974 L -17.5966 19.3421 L -17.5783 19.2868 L -17.56 19.2314 L -17.5417 19.1761 L -17.5234 19.1207 L -17.5051 19.0653 L -17.4867 19.0099 L -17.4684 18.9545 L -17.45 18.8991 L -17.4316 18.8436 L -17.4132 18.7881 L -17.3948 18.7326 L -17.3763 18.6771 L -17.3579 18.6216 L -17.3394 18.5661 L -17.3209 18.5105 L -17.3025 18.455 L -17.2839 18.3994 L -17.2654 18.3438 L -17.2469 18.2881 L -17.2283 18.2325 L -17.2097 18.1768 L -17.1911 18.1212 L -17.1725 18.0655 L -17.1725 18.0655 L -17.2272 18.0869 L -17.2818 18.1083 L -17.3365 18.1296 L -17.3911 18.151 L -17.4457 18.1723 L -17.5003 18.1937 L -17.5549 18.215 L -17.6095 18.2363 L -17.664 18.2575 L -17.7186 18.2788 L -17.7731 18.3 L -17.8276 18.3212 L -17.8821 18.3425 L -17.9365 18.3636 L -17.991 18.3848 L -18.0454 18.406 L -18.0998 18.4271 L -18.1542 18.4482 L -18.2086 18.4693 L -18.263 18.4904 L -18.3174 18.5115 L -18.3717 18.5326 L -18.426 18.5536 L -18.4803 18.5747 L -18.5346 18.5957 L -18.5889 18.6167 L -18.6432 18.6377 L -18.6974 18.6586 L -18.7517 18.6796 L -18.8059 18.7005 L -18.8601 18.7215 L -18.9143 18.7424 L -18.9685 18.7633 L -19.0226 18.7842 L -19.0768 18.805 L -19.1309 18.8259 L -19.185 18.8467 L -19.2392 18.8676 L -19.2932 18.8884 L -19.3304 18.8503 L -19.3675 18.8122 L -19.4046 18.774 L -19.4415 18.7357 L -19.4784 18.6974 L -19.5152 18.6589 L -19.5519 18.6205 L -19.5886 18.5819 L -19.6252 18.5433 L -19.6617 18.5045 L -19.6981 18.4658 L -19.7345 18.4269 L -19.7707 18.388 L -19.8069 18.349 L -19.843 18.3099 L -19.8791 18.2708 L -19.9151 18.2316 L -19.9509 18.1923 L -19.9868 18.153 L -20.0225 18.1135 L -20.0581 18.074 L -20.0937 18.0345 L -20.1292 17.9949 L -20.1646 17.9552 L -20.2 17.9154 L -20.2352 17.8755 L -20.2704 17.8356 L -20.3055 17.7957 L -20.3406 17.7556 L -20.3755 17.7155 L -20.4104 17.6753 L -20.4452 17.635 L -20.5277 17.539 L -20.5622 17.4985 L -20.5966 17.4579 L -20.631 17.4173 L -20.6653 17.3766 L -20.6995 17.3359 L -20.7336 17.295 L -20.7676 17.2542 L -20.8016 17.2132 L -20.8355 17.1722 L -20.8693 17.1311 L -20.903 17.0899 L -20.9366 17.0487 L -20.9702 17.0074 L -21.0036 16.9661 L -21.037 16.9246 L -21.0703 16.8831 L -21.1036 16.8416 L -21.1367 16.8 L -21.1698 16.7583 L -21.2028 16.7165 L -21.2357 16.6747 L -21.2685 16.6328 L -21.3012 16.5909 L -21.3339 16.5489 L -21.3664 16.5068 L -21.3989 16.4647 L -21.4313 16.4225 L -21.4636 16.3802 L -21.4959 16.3379 L -21.528 16.2955 L -21.5601 16.2531 L -21.5921 16.2105 L -21.5633 16.1602 L -21.5345 16.1099 L -21.5057 16.0595 L -21.4769 16.0092 L -21.4481 15.9588 L -21.4193 15.9085 L -21.3904 15.8581 L -21.3615 15.8077 L -21.3326 15.7572 L -21.3037 15.7068 L -21.2748 15.6564 L -21.2458 15.6059 L -21.2169 15.5555 L -21.1879 15.505 L -21.1589 15.4545 L -21.1299 15.404 L -21.1009 15.3535 L -21.0718 15.303 L -21.0427 15.2524 L -21.0137 15.2019 L -20.9846 15.1513 L -20.9554 15.1007 L -20.9263 15.0501 L -20.8971 14.9995 L -20.868 14.9489 L -20.8388 14.8983 L -20.8096 14.8476 L -20.7803 14.797 L -20.7511 14.7463 L -20.7218 14.6956 L -20.6925 14.6449 L -20.6632 14.5942 L -20.6339 14.5435 L -20.6046 14.4928 L -20.5752 14.442 L -20.5458 14.3912 L -20.5164 14.3405 L -20.487 14.2897 L -20.4575 14.2389 L -20.4575 14.2389 L -20.5154 14.2488 L -20.5733 14.2588 L -20.6311 14.2687 L -20.6889 14.2786 L -20.7467 14.2886 L -20.8045 14.2984 L -20.8622 14.3083 L -20.9199 14.3182 L -20.9777 14.3281 L -21.0354 14.3379 L -21.093 14.3477 L -21.1507 14.3575 L -21.2083 14.3674 L -21.2659 14.3771 L -21.3235 14.3869 L -21.3811 14.3967 L -21.4387 14.4064 L -21.4962 14.4162 L -21.5537 14.4259 L -21.6112 14.4356 L -21.6687 14.4453 L -21.7262 14.455 L -21.7837 14.4647 L -21.8411 14.4744 L -21.8985 14.484 L -21.9559 14.4937 L -22.0133 14.5033 L -22.0706 14.5129 L -22.128 14.5225 L -22.1853 14.5321 L -22.2426 14.5417 L -22.2999 14.5513 L -22.3572 14.5609 L -22.4145 14.5704 L -22.4717 14.58 L -22.5289 14.5895 L -22.5861 14.599 L -22.6433 14.6085 L -22.7005 14.618 L -22.7293 14.5733 L -22.7579 14.5284 L -22.7865 14.4836 L -22.815 14.4386 L -22.8434 14.3937 L -22.8718 14.3486 L -22.9 14.3035 L -22.9281 14.2584 L -22.9562 14.2132 L -22.9841 14.1679 L -23.012 14.1226 L -23.0398 14.0772 L -23.0675 14.0318 L -23.0951 13.9863 L -23.1226 13.9407 L -23.15 13.8952 L -23.1774 13.8495 L -23.2046 13.8038 L -23.2318 13.7581 L -23.2588 13.7123 L -23.2858 13.6664 L -23.3127 13.6205 L -23.3395 13.5745 L -23.3662 13.5285 L -23.3928 13.4824 L -23.4193 13.4363 L -23.4458 13.3901 L -23.4721 13.3439 L -23.4984 13.2976 L -23.5245 13.2513 L -23.5506 13.2049 L -23.5766 13.1585 L -23.638 13.0478 L -23.6637 13.0012 L -23.6893 12.9545 L -23.7147 12.9078 L -23.7401 12.861 L -23.7654 12.8142 L -23.7906 12.7674 L -23.8157 12.7205 L -23.8408 12.6735 L -23.8657 12.6265 L -23.8905 12.5795 L -23.9153 12.5324 L -23.9399 12.4852 L -23.9645 12.438 L -23.9889 12.3908 L -24.0133 12.3435 L -24.0376 12.2961 L -24.0618 12.2487 L -24.0859 12.2013 L -24.1099 12.1538 L -24.1338 12.1063 L -24.1576 12.0587 L -24.1813 12.0111 L -24.2049 11.9634 L -24.2284 11.9157 L -24.2519 11.8679 L -24.2752 11.8201 L -24.2985 11.7722 L -24.3216 11.7243 L -24.3447 11.6764 L -24.3676 11.6284 L -24.3905 11.5803 L -24.4133 11.5322 L -24.375 11.4888 L -24.3366 11.4452 L -24.2983 11.4017 L -24.2599 11.3582 L -24.2215 11.3147 L -24.1832 11.2711 L -24.1447 11.2276 L -24.1063 11.184 L -24.0679 11.1405 L -24.0294 11.0969 L -23.9909 11.0533 L -23.9524 11.0097 L -23.9139 10.9661 L -23.8753 10.9225 L -23.8367 10.8789 L -23.7982 10.8353 L -23.7596 10.7916 L -23.7209 10.748 L -23.6823 10.7043 L -23.6436 10.6607 L -23.6049 10.617 L -23.5662 10.5733 L -23.5275 10.5296 L -23.4888 10.4859 L -23.45 10.4422 L -23.4112 10.3985 L -23.3724 10.3548 L -23.3336 10.311 L -23.2947 10.2673 L -23.2559 10.2235 L -23.217 10.1798 L -23.178 10.136 L -23.1391 10.0922 L -23.1001 10.0484 L -23.0612 10.0046 L -23.0222 9.96081 L -22.9831 9.91699 L -22.9441 9.87316 L -22.905 9.82932 L -22.905 9.82932 L -22.9637 9.82743 L -23.0224 9.82554 L -23.081 9.82363 L -23.1397 9.82171 L -23.1983 9.81979 L -23.2568 9.81785 L -23.3154 9.81591 L -23.3739 9.81395 L -23.4325 9.81199 L -23.491 9.81002 L -23.5494 9.80804 L -23.6079 9.80605 L -23.6663 9.80405 L -23.7247 9.80204 L -23.7831 9.80003 L -23.8415 9.798 L -23.8998 9.79597 L -23.9581 9.79393 L -24.0165 9.79188 L -24.0747 9.78982 L -24.133 9.78775 L -24.1912 9.78568 L -24.2495 9.78359 L -24.3077 9.7815 L -24.3659 9.7794 L -24.424 9.7773 L -24.4822 9.77518 L -24.5403 9.77306 L -24.5984 9.77093 L -24.6565 9.76879 L -24.7146 9.76665 L -24.7726 9.76449 L -24.8306 9.76233 L -24.8886 9.76017 L -24.9466 9.75799 L -25.0046 9.75581 L -25.0626 9.75362 L -25.1205 9.75142 L -25.1784 9.74922 L -25.1976 9.69958 L -25.2166 9.64991 L -25.2356 9.6002 L -25.2545 9.55045 L -25.2733 9.50067 L -25.2919 9.45085 L -25.3105 9.40099 L -25.329 9.3511 L -25.3474 9.30117 L -25.3656 9.2512 L -25.3838 9.2012 L -25.4019 9.15116 L -25.4199 9.10109 L -25.4378 9.05098 L -25.4555 9.00083 L -25.4732 8.95065 L -25.4908 8.90044 L -25.5083 8.85019 L -25.5257 8.79991 L -25.543 8.74959 L -25.5602 8.69924 L -25.5773 8.64886 L -25.5943 8.59844 L -25.6112 8.54799 L -25.628 8.4975 L -25.6447 8.44698 L -25.6613 8.39643 L -25.6777 8.34585 L -25.6941 8.29523 L -25.7104 8.24459 L -25.7266 8.19391 L -25.7427 8.14319 L -25.7806 8.02237 L -25.7964 7.97155 L -25.8121 7.9207 L -25.8276 7.86982 L -25.8431 7.81891 L -25.8584 7.76797 L -25.8737 7.717 L -25.8888 7.666 L -25.9039 7.61497 L -25.9189 7.56391 L -25.9337 7.51282 L -25.9485 7.4617 L -25.9631 7.41056 L -25.9777 7.35938 L -25.9921 7.30818 L -26.0065 7.25694 L -26.0207 7.20568 L -26.0349 7.15439 L -26.0489 7.10307 L -26.0629 7.05173 L -26.0767 7.00036 L -26.0905 6.94896 L -26.1041 6.89753 L -26.1176 6.84608 L -26.1311 6.7946 L -26.1444 6.74309 L -26.1577 6.69156 L -26.1708 6.64 L -26.1838 6.58842 L -26.1968 6.53681 L -26.2096 6.48517 L -26.2223 6.43351 L -26.2349 6.38183 L -26.1887 6.34693 L -26.1424 6.31203 L -26.0961 6.27713 L -26.0497 6.24222 L -26.0034 6.2073 L -25.957 6.17238 L -25.9106 6.13746 L -25.8642 6.10253 L -25.8177 6.0676 L -25.7713 6.03266 L -25.7248 5.99772 L -25.6783 5.96277 L -25.6318 5.92782 L -25.5853 5.89286 L -25.5387 5.8579 L -25.4921 5.82293 L -25.4455 5.78796 L -25.3989 5.75299 L -25.3523 5.71801 L -25.3056 5.68302 L -25.2589 5.64803 L -25.2122 5.61304 L -25.1655 5.57804 L -25.1187 5.54303 L -25.072 5.50802 L -25.0252 5.47301 L -24.9784 5.43799 L -24.9315 5.40296 L -24.8847 5.36793 L -24.8378 5.3329 L -24.7909 5.29786 L -24.7439 5.26281 L -24.697 5.22776 L -24.65 5.19271 L -24.603 5.15765 L -24.556 5.12259 L -24.509 5.08752 L -24.4619 5.05244 L -24.4148 5.01737 L -24.4148 5.01737 L -24.4719 5.0037 L -24.529 4.99003 L -24.586 4.97636 L -24.6431 4.96268 L -24.7001 4.949 L -24.7571 4.93531 L -24.8141 4.92162 L -24.871 4.90792 L -24.9279 4.89422 L -24.9848 4.88051 L -25.0417 4.8668 L -25.0986 4.85309 L -25.1554 4.83937 L -25.2122 4.82564 L -25.269 4.81191 L -25.3258 4.79818 L -25.3825 4.78445 L -25.4392 4.7707 L -25.4959 4.75696 L -25.5526 4.74321 L -25.6093 4.72946 L -25.6659 4.7157 L -25.7225 4.70194 L -25.7791 4.68818 L -25.8357 4.67441 L -25.8922 4.66064 L -25.9487 4.64686 L -26.0053 4.63308 L -26.0617 4.6193 L -26.1182 4.60551 L -26.1747 4.59172 L -26.2311 4.57793 L -26.2875 4.56413 L -26.3439 4.55033 L -26.4002 4.53652 L -26.4566 4.52271 L -26.5129 4.5089 L -26.5692 4.49509 L -26.6255 4.48127 L -26.6343 4.4288 L -26.643 4.3763 L -26.6515 4.32379 L -26.66 4.27127 L -26.6684 4.21872 L -26.6766 4.16616 L -26.6848 4.11359 L -26.6929 4.06099 L -26.7008 4.00839 L -26.7086 3.95576 L -26.7164 3.90312 L -26.724 3.85047 L -26.7316 3.7978 L -26.739 3.74512 L -26.7463 3.69242 L -26.7536 3.63971 L -26.7607 3.58698 L -26.7677 3.53424 L -26.7746 3.48149 L -26.7814 3.42872 L -26.7881 3.37594 L -26.7947 3.32314 L -26.8012 3.27034 L -26.8076 3.21752 L -26.8139 3.16469 L -26.8201 3.11184 L -26.8262 3.05898 L -26.8321 3.00612 L -26.838 2.95324 L -26.8438 2.90034 L -26.8494 2.84744 L -26.855 2.79453 L -26.8678 2.66855 L -26.873 2.6156 L -26.8781 2.56264 L -26.8831 2.50967 L -26.888 2.45669 L -26.8928 2.4037 L -26.8975 2.3507 L -26.9021 2.29769 L -26.9065 2.24468 L -26.9109 2.19165 L -26.9152 2.13862 L -26.9193 2.08557 L -26.9234 2.03252 L -26.9273 1.97947 L -26.9312 1.9264 L -26.9349 1.87333 L -26.9386 1.82025 L -26.9421 1.76716 L -26.9455 1.71407 L -26.9489 1.66096 L -26.9521 1.60786 L -26.9552 1.55474 L -26.9582 1.50162 L -26.9611 1.4485 L -26.9639 1.39537 L -26.9666 1.34223 L -26.9692 1.28909 L -26.9717 1.23594 L -26.9741 1.18279 L -26.9764 1.12963 L -26.9785 1.07647 L -26.9806 1.02331 L -26.9826 0.970138 L -26.9302 0.945272 L -26.8778 0.920406 L -26.8254 0.895538 L -26.773 0.870671 L -26.7206 0.845802 L -26.6681 0.820933 L -26.6157 0.796063 L -26.5632 0.771193 L -26.5107 0.746322 L -26.4581 0.721451 L -26.4056 0.696578 L -26.353 0.671706 L -26.3004 0.646833 L -26.2478 0.621959 L -26.1951 0.597085 L -26.1425 0.57221 L -26.0898 0.547335 L -26.0371 0.522459 L -25.9843 0.497583 L -25.9316 0.472707 L -25.8788 0.44783 L -25.826 0.422953 L -25.7732 0.398075 L -25.7204 0.373197 L -25.6675 0.348319 L -25.6146 0.32344 L -25.5617 0.298561 L -25.5088 0.273682 L -25.4558 0.248803 L -25.4029 0.223923 L -25.3499 0.199043 L -25.2968 0.174163 L -25.2438 0.149283 L -25.1907 0.124403 L -25.1376 0.0995225 L -25.0845 0.0746419 L -25.0314 0.0497613 L -24.9782 0.0248807 L -24.925 3.10862e-15 L -24.925 2.99624e-15 L -24.9782 -0.0248807 L -25.0314 -0.0497613 L -25.0845 -0.0746419 L -25.1376 -0.0995225 L -25.1907 -0.124403 L -25.2438 -0.149283 L -25.2968 -0.174163 L -25.3499 -0.199043 L -25.4029 -0.223923 L -25.4558 -0.248803 L -25.5088 -0.273682 L -25.5617 -0.298561 L -25.6146 -0.32344 L -25.6675 -0.348319 L -25.7204 -0.373197 L -25.7732 -0.398075 L -25.826 -0.422953 L -25.8788 -0.44783 L -25.9316 -0.472707 L -25.9843 -0.497583 L -26.0371 -0.522459 L -26.0898 -0.547335 L -26.1425 -0.57221 L -26.1951 -0.597085 L -26.2478 -0.621959 L -26.3004 -0.646833 L -26.353 -0.671706 L -26.4056 -0.696578 L -26.4581 -0.721451 L -26.5107 -0.746322 L -26.5632 -0.771193 L -26.6157 -0.796063 L -26.6681 -0.820933 L -26.7206 -0.845802 L -26.773 -0.870671 L -26.8254 -0.895538 L -26.8778 -0.920406 L -26.9302 -0.945272 L -26.9826 -0.970138 L -26.9806 -1.02331 L -26.9785 -1.07647 L -26.9764 -1.12963 L -26.9741 -1.18279 L -26.9717 -1.23594 L -26.9692 -1.28909 L -26.9666 -1.34223 L -26.9639 -1.39537 L -26.9611 -1.4485 L -26.9582 -1.50162 L -26.9552 -1.55474 L -26.9521 -1.60786 L -26.9489 -1.66096 L -26.9455 -1.71407 L -26.9421 -1.76716 L -26.9386 -1.82025 L -26.9349 -1.87333 L -26.9312 -1.9264 L -26.9273 -1.97947 L -26.9234 -2.03252 L -26.9193 -2.08557 L -26.9152 -2.13862 L -26.9109 -2.19165 L -26.9065 -2.24468 L -26.9021 -2.29769 L -26.8975 -2.3507 L -26.8928 -2.4037 L -26.888 -2.45669 L -26.8831 -2.50967 L -26.8781 -2.56264 L -26.873 -2.6156 L -26.8678 -2.66855 L -26.855 -2.79453 L -26.8494 -2.84744 L -26.8438 -2.90034 L -26.838 -2.95324 L -26.8321 -3.00612 L -26.8262 -3.05898 L -26.8201 -3.11184 L -26.8139 -3.16469 L -26.8076 -3.21752 L -26.8012 -3.27034 L -26.7947 -3.32314 L -26.7881 -3.37594 L -26.7814 -3.42872 L -26.7746 -3.48149 L -26.7677 -3.53424 L -26.7607 -3.58698 L -26.7536 -3.63971 L -26.7463 -3.69242 L -26.739 -3.74512 L -26.7316 -3.7978 L -26.724 -3.85047 L -26.7164 -3.90312 L -26.7086 -3.95576 L -26.7008 -4.00839 L -26.6929 -4.06099 L -26.6848 -4.11359 L -26.6766 -4.16616 L -26.6684 -4.21872 L -26.66 -4.27127 L -26.6515 -4.32379 L -26.643 -4.3763 L -26.6343 -4.4288 L -26.6255 -4.48127 L -26.5692 -4.49509 L -26.5129 -4.5089 L -26.4566 -4.52271 L -26.4002 -4.53652 L -26.3439 -4.55033 L -26.2875 -4.56413 L -26.2311 -4.57793 L -26.1747 -4.59172 L -26.1182 -4.60551 L -26.0617 -4.6193 L -26.0053 -4.63308 L -25.9487 -4.64686 L -25.8922 -4.66064 L -25.8357 -4.67441 L -25.7791 -4.68818 L -25.7225 -4.70194 L -25.6659 -4.7157 L -25.6093 -4.72946 L -25.5526 -4.74321 L -25.4959 -4.75696 L -25.4392 -4.7707 L -25.3825 -4.78445 L -25.3258 -4.79818 L -25.269 -4.81191 L -25.2122 -4.82564 L -25.1554 -4.83937 L -25.0986 -4.85309 L -25.0417 -4.8668 L -24.9848 -4.88051 L -24.9279 -4.89422 L -24.871 -4.90792 L -24.8141 -4.92162 L -24.7571 -4.93531 L -24.7001 -4.949 L -24.6431 -4.96268 L -24.586 -4.97636 L -24.529 -4.99003 L -24.4719 -5.0037 L -24.4148 -5.01737 L -24.4148 -5.01737 L -24.4619 -5.05244 L -24.509 -5.08752 L -24.556 -5.12259 L -24.603 -5.15765 L -24.65 -5.19271 L -24.697 -5.22776 L -24.7439 -5.26281 L -24.7909 -5.29786 L -24.8378 -5.3329 L -24.8847 -5.36793 L -24.9315 -5.40296 L -24.9784 -5.43799 L -25.0252 -5.47301 L -25.072 -5.50802 L -25.1187 -5.54303 L -25.1655 -5.57804 L -25.2122 -5.61304 L -25.2589 -5.64803 L -25.3056 -5.68302 L -25.3523 -5.71801 L -25.3989 -5.75299 L -25.4455 -5.78796 L -25.4921 -5.82293 L -25.5387 -5.8579 L -25.5853 -5.89286 L -25.6318 -5.92782 L -25.6783 -5.96277 L -25.7248 -5.99772 L -25.7713 -6.03266 L -25.8177 -6.0676 L -25.8642 -6.10253 L -25.9106 -6.13746 L -25.957 -6.17238 L -26.0034 -6.2073 L -26.0497 -6.24222 L -26.0961 -6.27713 L -26.1424 -6.31203 L -26.1887 -6.34693 L -26.2349 -6.38183 L -26.2223 -6.43351 L -26.2096 -6.48517 L -26.1968 -6.53681 L -26.1838 -6.58842 L -26.1708 -6.64 L -26.1577 -6.69156 L -26.1444 -6.74309 L -26.1311 -6.7946 L -26.1176 -6.84608 L -26.1041 -6.89753 L -26.0905 -6.94896 L -26.0767 -7.00036 L -26.0629 -7.05173 L -26.0489 -7.10307 L -26.0349 -7.15439 L -26.0207 -7.20568 L -26.0065 -7.25694 L -25.9921 -7.30818 L -25.9777 -7.35938 L -25.9631 -7.41056 L -25.9485 -7.4617 L -25.9337 -7.51282 L -25.9189 -7.56391 L -25.9039 -7.61497 L -25.8888 -7.666 L -25.8737 -7.717 L -25.8584 -7.76797 L -25.8431 -7.81891 L -25.8276 -7.86982 L -25.8121 -7.9207 L -25.7964 -7.97155 L -25.7806 -8.02237 L -25.7427 -8.14319 L -25.7266 -8.19391 L -25.7104 -8.24459 L -25.6941 -8.29523 L -25.6777 -8.34585 L -25.6613 -8.39643 L -25.6447 -8.44698 L -25.628 -8.4975 L -25.6112 -8.54799 L -25.5943 -8.59844 L -25.5773 -8.64886 L -25.5602 -8.69924 L -25.543 -8.74959 L -25.5257 -8.79991 L -25.5083 -8.85019 L -25.4908 -8.90044 L -25.4732 -8.95065 L -25.4555 -9.00083 L -25.4378 -9.05098 L -25.4199 -9.10109 L -25.4019 -9.15116 L -25.3838 -9.2012 L -25.3656 -9.2512 L -25.3474 -9.30117 L -25.329 -9.3511 L -25.3105 -9.40099 L -25.2919 -9.45085 L -25.2733 -9.50067 L -25.2545 -9.55045 L -25.2356 -9.6002 L -25.2166 -9.64991 L -25.1976 -9.69958 L -25.1784 -9.74922 L -25.1205 -9.75142 L -25.0626 -9.75362 L -25.0046 -9.75581 L -24.9466 -9.75799 L -24.8886 -9.76017 L -24.8306 -9.76233 L -24.7726 -9.76449 L -24.7146 -9.76665 L -24.6565 -9.76879 L -24.5984 -9.77093 L -24.5403 -9.77306 L -24.4822 -9.77518 L -24.424 -9.7773 L -24.3659 -9.7794 L -24.3077 -9.7815 L -24.2495 -9.78359 L -24.1912 -9.78568 L -24.133 -9.78775 L -24.0747 -9.78982 L -24.0165 -9.79188 L -23.9581 -9.79393 L -23.8998 -9.79597 L -23.8415 -9.798 L -23.7831 -9.80003 L -23.7247 -9.80204 L -23.6663 -9.80405 L -23.6079 -9.80605 L -23.5494 -9.80804 L -23.491 -9.81002 L -23.4325 -9.81199 L -23.3739 -9.81395 L -23.3154 -9.81591 L -23.2568 -9.81785 L -23.1983 -9.81979 L -23.1397 -9.82171 L -23.081 -9.82363 L -23.0224 -9.82554 L -22.9637 -9.82743 L -22.905 -9.82932 L -22.905 -9.82932 L -22.9441 -9.87316 L -22.9831 -9.91699 L -23.0222 -9.96081 L -23.0612 -10.0046 L -23.1001 -10.0484 L -23.1391 -10.0922 L -23.178 -10.136 L -23.217 -10.1798 L -23.2559 -10.2235 L -23.2947 -10.2673 L -23.3336 -10.311 L -23.3724 -10.3548 L -23.4112 -10.3985 L -23.45 -10.4422 L -23.4888 -10.4859 L -23.5275 -10.5296 L -23.5662 -10.5733 L -23.6049 -10.617 L -23.6436 -10.6607 L -23.6823 -10.7043 L -23.7209 -10.748 L -23.7596 -10.7916 L -23.7982 -10.8353 L -23.8367 -10.8789 L -23.8753 -10.9225 L -23.9139 -10.9661 L -23.9524 -11.0097 L -23.9909 -11.0533 L -24.0294 -11.0969 L -24.0679 -11.1405 L -24.1063 -11.184 L -24.1447 -11.2276 L -24.1832 -11.2711 L -24.2215 -11.3147 L -24.2599 -11.3582 L -24.2983 -11.4017 L -24.3366 -11.4452 L -24.375 -11.4888 L -24.4133 -11.5322 L -24.3905 -11.5803 L -24.3676 -11.6284 L -24.3447 -11.6764 L -24.3216 -11.7243 L -24.2985 -11.7722 L -24.2752 -11.8201 L -24.2519 -11.8679 L -24.2284 -11.9157 L -24.2049 -11.9634 L -24.1813 -12.0111 L -24.1576 -12.0587 L -24.1338 -12.1063 L -24.1099 -12.1538 L -24.0859 -12.2013 L -24.0618 -12.2487 L -24.0376 -12.2961 L -24.0133 -12.3435 L -23.9889 -12.3908 L -23.9645 -12.438 L -23.9399 -12.4852 L -23.9153 -12.5324 L -23.8905 -12.5795 L -23.8657 -12.6265 L -23.8408 -12.6735 L -23.8157 -12.7205 L -23.7906 -12.7674 L -23.7654 -12.8142 L -23.7401 -12.861 L -23.7147 -12.9078 L -23.6893 -12.9545 L -23.6637 -13.0012 L -23.638 -13.0478 L -23.5766 -13.1585 L -23.5506 -13.2049 L -23.5245 -13.2513 L -23.4984 -13.2976 L -23.4721 -13.3439 L -23.4458 -13.3901 L -23.4193 -13.4363 L -23.3928 -13.4824 L -23.3662 -13.5285 L -23.3395 -13.5745 L -23.3127 -13.6205 L -23.2858 -13.6664 L -23.2588 -13.7123 L -23.2318 -13.7581 L -23.2046 -13.8038 L -23.1774 -13.8495 L -23.15 -13.8952 L -23.1226 -13.9407 L -23.0951 -13.9863 L -23.0675 -14.0318 L -23.0398 -14.0772 L -23.012 -14.1226 L -22.9841 -14.1679 L -22.9562 -14.2132 L -22.9281 -14.2584 L -22.9 -14.3035 L -22.8718 -14.3486 L -22.8434 -14.3937 L -22.815 -14.4386 L -22.7865 -14.4836 L -22.7579 -14.5284 L -22.7293 -14.5733 L -22.7005 -14.618 L -22.6433 -14.6085 L -22.5861 -14.599 L -22.5289 -14.5895 L -22.4717 -14.58 L -22.4145 -14.5704 L -22.3572 -14.5609 L -22.2999 -14.5513 L -22.2426 -14.5417 L -22.1853 -14.5321 L -22.128 -14.5225 L -22.0706 -14.5129 L -22.0133 -14.5033 L -21.9559 -14.4937 L -21.8985 -14.484 L -21.8411 -14.4744 L -21.7837 -14.4647 L -21.7262 -14.455 L -21.6687 -14.4453 L -21.6112 -14.4356 L -21.5537 -14.4259 L -21.4962 -14.4162 L -21.4387 -14.4064 L -21.3811 -14.3967 L -21.3235 -14.3869 L -21.2659 -14.3771 L -21.2083 -14.3674 L -21.1507 -14.3575 L -21.093 -14.3477 L -21.0354 -14.3379 L -20.9777 -14.3281 L -20.9199 -14.3182 L -20.8622 -14.3083 L -20.8045 -14.2984 L -20.7467 -14.2886 L -20.6889 -14.2786 L -20.6311 -14.2687 L -20.5733 -14.2588 L -20.5154 -14.2488 L -20.4575 -14.2389 L -20.4575 -14.2389 L -20.487 -14.2897 L -20.5164 -14.3405 L -20.5458 -14.3912 L -20.5752 -14.442 L -20.6046 -14.4928 L -20.6339 -14.5435 L -20.6632 -14.5942 L -20.6925 -14.6449 L -20.7218 -14.6956 L -20.7511 -14.7463 L -20.7803 -14.797 L -20.8096 -14.8476 L -20.8388 -14.8983 L -20.868 -14.9489 L -20.8971 -14.9995 L -20.9263 -15.0501 L -20.9554 -15.1007 L -20.9846 -15.1513 L -21.0137 -15.2019 L -21.0427 -15.2524 L -21.0718 -15.303 L -21.1009 -15.3535 L -21.1299 -15.404 L -21.1589 -15.4545 L -21.1879 -15.505 L -21.2169 -15.5555 L -21.2458 -15.6059 L -21.2748 -15.6564 L -21.3037 -15.7068 L -21.3326 -15.7572 L -21.3615 -15.8077 L -21.3904 -15.8581 L -21.4193 -15.9085 L -21.4481 -15.9588 L -21.4769 -16.0092 L -21.5057 -16.0595 L -21.5345 -16.1099 L -21.5633 -16.1602 L -21.5921 -16.2105 L -21.5601 -16.2531 L -21.528 -16.2955 L -21.4959 -16.3379 L -21.4636 -16.3802 L -21.4313 -16.4225 L -21.3989 -16.4647 L -21.3664 -16.5068 L -21.3339 -16.5489 L -21.3012 -16.5909 L -21.2685 -16.6328 L -21.2357 -16.6747 L -21.2028 -16.7165 L -21.1698 -16.7583 L -21.1367 -16.8 L -21.1036 -16.8416 L -21.0703 -16.8831 L -21.037 -16.9246 L -21.0036 -16.9661 L -20.9702 -17.0074 L -20.9366 -17.0487 L -20.903 -17.0899 L -20.8693 -17.1311 L -20.8355 -17.1722 L -20.8016 -17.2132 L -20.7676 -17.2542 L -20.7336 -17.295 L -20.6995 -17.3359 L -20.6653 -17.3766 L -20.631 -17.4173 L -20.5966 -17.4579 L -20.5622 -17.4985 L -20.5277 -17.539 L -20.4452 -17.635 L -20.4104 -17.6753 L -20.3755 -17.7155 L -20.3406 -17.7556 L -20.3055 -17.7957 L -20.2704 -17.8356 L -20.2352 -17.8755 L -20.2 -17.9154 L -20.1646 -17.9552 L -20.1292 -17.9949 L -20.0937 -18.0345 L -20.0581 -18.074 L -20.0225 -18.1135 L -19.9868 -18.153 L -19.9509 -18.1923 L -19.9151 -18.2316 L -19.8791 -18.2708 L -19.843 -18.3099 L -19.8069 -18.349 L -19.7707 -18.388 L -19.7345 -18.4269 L -19.6981 -18.4658 L -19.6617 -18.5045 L -19.6252 -18.5433 L -19.5886 -18.5819 L -19.5519 -18.6205 L -19.5152 -18.6589 L -19.4784 -18.6974 L -19.4415 -18.7357 L -19.4046 -18.774 L -19.3675 -18.8122 L -19.3304 -18.8503 L -19.2932 -18.8884 L -19.2392 -18.8676 L -19.185 -18.8467 L -19.1309 -18.8259 L -19.0768 -18.805 L -19.0226 -18.7842 L -18.9685 -18.7633 L -18.9143 -18.7424 L -18.8601 -18.7215 L -18.8059 -18.7005 L -18.7517 -18.6796 L -18.6974 -18.6586 L -18.6432 -18.6377 L -18.5889 -18.6167 L -18.5346 -18.5957 L -18.4803 -18.5747 L -18.426 -18.5536 L -18.3717 -18.5326 L -18.3174 -18.5115 L -18.263 -18.4904 L -18.2086 -18.4693 L -18.1542 -18.4482 L -18.0998 -18.4271 L -18.0454 -18.406 L -17.991 -18.3848 L -17.9365 -18.3636 L -17.8821 -18.3425 L -17.8276 -18.3212 L -17.7731 -18.3 L -17.7186 -18.2788 L -17.664 -18.2575 L -17.6095 -18.2363 L -17.5549 -18.215 L -17.5003 -18.1937 L -17.4457 -18.1723 L -17.3911 -18.151 L -17.3365 -18.1296 L -17.2818 -18.1083 L -17.2272 -18.0869 L -17.1725 -18.0655 L -17.1725 -18.0655 L -17.1911 -18.1212 L -17.2097 -18.1768 L -17.2283 -18.2325 L -17.2469 -18.2881 L -17.2654 -18.3438 L -17.2839 -18.3994 L -17.3025 -18.455 L -17.3209 -18.5105 L -17.3394 -18.5661 L -17.3579 -18.6216 L -17.3763 -18.6771 L -17.3948 -18.7326 L -17.4132 -18.7881 L -17.4316 -18.8436 L -17.45 -18.8991 L -17.4684 -18.9545 L -17.4867 -19.0099 L -17.5051 -19.0653 L -17.5234 -19.1207 L -17.5417 -19.1761 L -17.56 -19.2314 L -17.5783 -19.2868 L -17.5966 -19.3421 L -17.6148 -19.3974 L -17.633 -19.4527 L -17.6513 -19.508 L -17.6695 -19.5632 L -17.6877 -19.6185 L -17.7059 -19.6737 L -17.724 -19.7289 L -17.7422 -19.7841 L -17.7603 -19.8393 L -17.7785 -19.8945 L -17.7966 -19.9496 L -17.8147 -20.0048 L -17.8328 -20.0599 L -17.8508 -20.115 L -17.8689 -20.1701 L -17.8869 -20.2252 L -17.8471 -20.2604 L -17.8071 -20.2955 L -17.7671 -20.3305 L -17.727 -20.3655 L -17.6868 -20.4004 L -17.6466 -20.4352 L -17.6063 -20.47 L -17.5659 -20.5046 L -17.5255 -20.5392 L -17.485 -20.5737 L -17.4444 -20.6081 L -17.4037 -20.6424 L -17.363 -20.6767 L -17.3222 -20.7109 L -17.2814 -20.745 L -17.2405 -20.779 L -17.1995 -20.8129 L -17.1585 -20.8468 L -17.1173 -20.8805 L -17.0762 -20.9142 L -17.0349 -20.9478 L -16.9936 -20.9814 L -16.9522 -21.0148 L -16.9108 -21.0482 L -16.8693 -21.0815 L -16.8277 -21.1147 L -16.7861 -21.1478 L -16.7444 -21.1808 L -16.7026 -21.2138 L -16.6607 -21.2466 L -16.6188 -21.2794 L -16.5769 -21.3121 L -16.4767 -21.3896 L -16.4346 -21.4221 L -16.3923 -21.4544 L -16.35 -21.4867 L -16.3076 -21.5188 L -16.2652 -21.5509 L -16.2227 -21.583 L -16.1801 -21.6149 L -16.1375 -21.6467 L -16.0948 -21.6785 L -16.0521 -21.7102 L -16.0093 -21.7417 L -15.9664 -21.7732 L -15.9235 -21.8047 L -15.8805 -21.836 L -15.8374 -21.8673 L -15.7943 -21.8984 L -15.7511 -21.9295 L -15.7079 -21.9605 L -15.6645 -21.9914 L -15.6212 -22.0222 L -15.5778 -22.053 L -15.5343 -22.0836 L -15.4907 -22.1142 L -15.4471 -22.1447 L -15.4034 -22.1751 L -15.3597 -22.2054 L -15.3159 -22.2356 L -15.2721 -22.2657 L -15.2282 -22.2958 L -15.1842 -22.3258 L -15.1402 -22.3556 L -15.0961 -22.3854 L -15.0473 -22.3542 L -14.9985 -22.3229 L -14.9497 -22.2915 L -14.9009 -22.2602 L -14.852 -22.2289 L -14.8032 -22.1975 L -14.7543 -22.1661 L -14.7054 -22.1347 L -14.6565 -22.1033 L -14.6076 -22.0719 L -14.5587 -22.0405 L -14.5098 -22.009 L -14.4609 -21.9775 L -14.4119 -21.946 L -14.363 -21.9145 L -14.314 -21.883 L -14.265 -21.8514 L -14.2161 -21.8198 L -14.1671 -21.7883 L -14.118 -21.7566 L -14.069 -21.725 L -14.02 -21.6934 L -13.9709 -21.6617 L -13.9219 -21.63 L -13.8728 -21.5983 L -13.8237 -21.5666 L -13.7746 -21.5349 L -13.7255 -21.5031 L -13.6764 -21.4713 L -13.6272 -21.4395 L -13.5781 -21.4077 L -13.5289 -21.3759 L -13.4797 -21.344 L -13.4306 -21.3122 L -13.3814 -21.2803 L -13.3321 -21.2483 L -13.2829 -21.2164 L -13.2337 -21.1844 L -13.1844 -21.1525 L -13.1844 -21.1525 L -13.1915 -21.2108 L -13.1985 -21.269 L -13.2055 -21.3273 L -13.2124 -21.3855 L -13.2194 -21.4438 L -13.2264 -21.502 L -13.2333 -21.5601 L -13.2402 -21.6183 L -13.2472 -21.6764 L -13.2541 -21.7346 L -13.261 -21.7927 L -13.2679 -21.8507 L -13.2747 -21.9088 L -13.2816 -21.9668 L -13.2884 -22.0249 L -13.2953 -22.0829 L -13.3021 -22.1408 L -13.3089 -22.1988 L -13.3157 -22.2567 L -13.3225 -22.3147 L -13.3293 -22.3726 L -13.3361 -22.4305 L -13.3428 -22.4883 L -13.3496 -22.5462 L -13.3563 -22.604 L -13.363 -22.6618 L -13.3697 -22.7196 L -13.3764 -22.7774 L -13.3831 -22.8351 L -13.3898 -22.8929 L -13.3965 -22.9506 L -13.4032 -23.0083 L -13.4098 -23.066 L -13.4164 -23.1237 L -13.4231 -23.1813 L -13.4297 -23.239 L -13.4363 -23.2966 L -13.4429 -23.3542 L -13.4495 -23.4118 L -13.4033 -23.4382 L -13.3571 -23.4646 L -13.3109 -23.4909 L -13.2646 -23.5171 L -13.2182 -23.5431 L -13.1718 -23.5691 L -13.1253 -23.5951 L -13.0788 -23.6209 L -13.0322 -23.6466 L -12.9856 -23.6722 L -12.9389 -23.6978 L -12.8922 -23.7232 L -12.8454 -23.7486 L -12.7986 -23.7739 L -12.7517 -23.799 L -12.7048 -23.8241 L -12.6578 -23.8491 L -12.6108 -23.874 L -12.5637 -23.8988 L -12.5166 -23.9235 L -12.4694 -23.9481 L -12.4222 -23.9727 L -12.375 -23.9971 L -12.3277 -24.0214 L -12.2803 -24.0457 L -12.2329 -24.0698 L -12.1854 -24.0939 L -12.1379 -24.1178 L -12.0904 -24.1417 L -12.0428 -24.1655 L -11.9951 -24.1892 L -11.9475 -24.2128 L -11.8338 -24.2685 L -11.7859 -24.2918 L -11.738 -24.315 L -11.6901 -24.3381 L -11.6421 -24.3611 L -11.5941 -24.384 L -11.546 -24.4068 L -11.4979 -24.4295 L -11.4497 -24.4521 L -11.4015 -24.4746 L -11.3533 -24.497 L -11.305 -24.5193 L -11.2566 -24.5416 L -11.2083 -24.5637 L -11.1598 -24.5857 L -11.1114 -24.6077 L -11.0628 -24.6295 L -11.0143 -24.6513 L -10.9657 -24.6729 L -10.9171 -24.6945 L -10.8684 -24.716 L -10.8196 -24.7373 L -10.7709 -24.7586 L -10.7221 -24.7798 L -10.6732 -24.8009 L -10.6243 -24.8218 L -10.5754 -24.8427 L -10.5264 -24.8635 L -10.4774 -24.8842 L -10.4283 -24.9048 L -10.3792 -24.9253 L -10.3301 -24.9457 L -10.2809 -24.966 L -10.2394 -24.9256 L -10.1979 -24.8851 L -10.1564 -24.8446 L -10.1149 -24.8041 L -10.0734 -24.7635 L -10.0318 -24.723 L -9.99027 -24.6824 L -9.94872 -24.6418 L -9.90715 -24.6012 L -9.86558 -24.5606 L -9.82401 -24.5199 L -9.78242 -24.4793 L -9.74083 -24.4386 L -9.69923 -24.3979 L -9.65762 -24.3572 L -9.616 -24.3164 L -9.57438 -24.2756 L -9.53275 -24.2349 L -9.49111 -24.1941 L -9.44946 -24.1532 L -9.4078 -24.1124 L -9.36614 -24.0715 L -9.32447 -24.0306 L -9.28279 -23.9897 L -9.2411 -23.9488 L -9.1994 -23.9078 L -9.1577 -23.8669 L -9.11598 -23.8259 L -9.07426 -23.7849 L -9.03253 -23.7438 L -8.99079 -23.7028 L -8.94905 -23.6617 L -8.90729 -23.6206 L -8.86553 -23.5794 L -8.82376 -23.5383 L -8.78198 -23.4971 L -8.74019 -23.4559 L -8.69839 -23.4147 L -8.65658 -23.3735 L -8.65658 -23.3735 L -8.65173 -23.432 L -8.64686 -23.4905 L -8.64198 -23.549 L -8.6371 -23.6074 L -8.63221 -23.6659 L -8.62731 -23.7243 L -8.6224 -23.7827 L -8.61749 -23.841 L -8.61256 -23.8994 L -8.60763 -23.9577 L -8.60269 -24.016 L -8.59774 -24.0742 L -8.59279 -24.1325 L -8.58782 -24.1907 L -8.58285 -24.2489 L -8.57787 -24.3071 L -8.57289 -24.3653 L -8.5679 -24.4235 L -8.5629 -24.4816 L -8.55789 -24.5397 L -8.55287 -24.5978 L -8.54785 -24.6558 L -8.54282 -24.7139 L -8.53778 -24.7719 L -8.53274 -24.8299 L -8.52769 -24.8879 L -8.52263 -24.9458 L -8.51757 -25.0038 L -8.5125 -25.0617 L -8.50742 -25.1196 L -8.50234 -25.1775 L -8.49725 -25.2354 L -8.49215 -25.2932 L -8.48705 -25.351 L -8.48194 -25.4089 L -8.47682 -25.4666 L -8.4717 -25.5244 L -8.46657 -25.5822 L -8.46144 -25.6399 L -8.4109 -25.6565 L -8.36032 -25.673 L -8.30972 -25.6895 L -8.25908 -25.7058 L -8.20841 -25.722 L -8.1577 -25.7381 L -8.10697 -25.7542 L -8.0562 -25.7701 L -8.00541 -25.7859 L -7.95458 -25.8016 L -7.90372 -25.8173 L -7.85283 -25.8328 L -7.80191 -25.8482 L -7.75096 -25.8635 L -7.69998 -25.8788 L -7.64897 -25.8939 L -7.59793 -25.9089 L -7.54686 -25.9238 L -7.49576 -25.9387 L -7.44463 -25.9534 L -7.39347 -25.968 L -7.34229 -25.9825 L -7.29107 -25.9969 L -7.23983 -26.0112 L -7.18856 -26.0255 L -7.13726 -26.0396 L -7.08593 -26.0536 L -7.03458 -26.0675 L -6.9832 -26.0813 L -6.93179 -26.095 L -6.88036 -26.1086 L -6.82889 -26.1221 L -6.70631 -26.1539 L -6.65476 -26.167 L -6.60318 -26.1801 L -6.55158 -26.1931 L -6.49995 -26.2059 L -6.4483 -26.2187 L -6.39662 -26.2313 L -6.34491 -26.2439 L -6.29319 -26.2563 L -6.24144 -26.2687 L -6.18966 -26.2809 L -6.13786 -26.2931 L -6.08604 -26.3051 L -6.03419 -26.3171 L -5.98232 -26.3289 L -5.93042 -26.3407 L -5.8785 -26.3523 L -5.82656 -26.3638 L -5.7746 -26.3753 L -5.72262 -26.3866 L -5.67061 -26.3978 L -5.61858 -26.4089 L -5.56653 -26.42 L -5.51446 -26.4309 L -5.46236 -26.4417 L -5.41025 -26.4524 L -5.35811 -26.463 L -5.30595 -26.4735 L -5.25377 -26.4839 L -5.20158 -26.4942 L -5.14936 -26.5044 L -5.09712 -26.5145 L -5.04486 -26.5245 L -5.01235 -26.4765 L -4.97984 -26.4285 L -4.94733 -26.3805 L -4.91481 -26.3324 L -4.88229 -26.2844 L -4.84976 -26.2363 L -4.81723 -26.1882 L -4.7847 -26.1401 L -4.75216 -26.0919 L -4.71962 -26.0438 L -4.68708 -25.9956 L -4.65453 -25.9474 L -4.62198 -25.8991 L -4.58943 -25.8509 L -4.55687 -25.8026 L -4.52431 -25.7543 L -4.49174 -25.706 L -4.45917 -25.6577 L -4.4266 -25.6093 L -4.39402 -25.561 L -4.36144 -25.5126 L -4.32885 -25.4642 L -4.29626 -25.4157 L -4.26367 -25.3673 L -4.23108 -25.3188 L -4.19848 -25.2703 L -4.16587 -25.2217 L -4.13327 -25.1732 L -4.10065 -25.1246 L -4.06804 -25.076 L -4.03542 -25.0274 L -4.0028 -24.9787 L -3.97017 -24.9301 L -3.93754 -24.8814 L -3.90491 -24.8327 L -3.87227 -24.7839 L -3.83963 -24.7352 L -3.80699 -24.6864 L -3.77434 -24.6376 L -3.77434 -24.6376 L -3.7578 -24.6939 L -3.74126 -24.7502 L -3.72471 -24.8065 L -3.70816 -24.8628 L -3.69161 -24.9191 L -3.67505 -24.9753 L -3.65849 -25.0315 L -3.64192 -25.0877 L -3.62536 -25.1438 L -3.60879 -25.2 L -3.59221 -25.2561 L -3.57564 -25.3122 L -3.55906 -25.3682 L -3.54247 -25.4243 L -3.52588 -25.4803 L -3.50929 -25.5363 L -3.4927 -25.5923 L -3.47611 -25.6482 L -3.45951 -25.7041 L -3.44291 -25.76 L -3.4263 -25.8159 L -3.40969 -25.8718 L -3.39308 -25.9276 L -3.37647 -25.9835 L -3.35985 -26.0393 L -3.34323 -26.095 L -3.32661 -26.1508 L -3.30999 -26.2065 L -3.29336 -26.2623 L -3.27673 -26.318 L -3.2601 -26.3736 L -3.24347 -26.4293 L -3.22683 -26.4849 L -3.21019 -26.5405 L -3.19355 -26.5961 L -3.17691 -26.6517 L -3.16026 -26.7073 L -3.14361 -26.7628 L -3.12696 -26.8183 L -3.07411 -26.8244 L -3.02124 -26.8304 L -2.96836 -26.8363 L -2.91548 -26.8421 L -2.86258 -26.8478 L -2.80967 -26.8534 L -2.75674 -26.8589 L -2.70381 -26.8643 L -2.65087 -26.8696 L -2.59792 -26.8747 L -2.54495 -26.8798 L -2.49198 -26.8848 L -2.439 -26.8896 L -2.386 -26.8944 L -2.333 -26.899 L -2.27999 -26.9036 L -2.22697 -26.908 L -2.17394 -26.9123 L -2.12091 -26.9166 L -2.06786 -26.9207 L -2.01481 -26.9247 L -1.96175 -26.9286 L -1.90868 -26.9325 L -1.85561 -26.9362 L -1.80252 -26.9398 L -1.74943 -26.9433 L -1.69634 -26.9467 L -1.64323 -26.9499 L -1.59012 -26.9531 L -1.53701 -26.9562 L -1.48389 -26.9592 L -1.43076 -26.9621 L -1.30429 -26.9685 L -1.25114 -26.971 L -1.19799 -26.9734 L -1.14484 -26.9757 L -1.09168 -26.9779 L -1.03852 -26.98 L -0.985348 -26.982 L -0.932177 -26.9839 L -0.879002 -26.9857 L -0.825823 -26.9874 L -0.772641 -26.9889 L -0.719456 -26.9904 L -0.666269 -26.9918 L -0.613079 -26.993 L -0.559886 -26.9942 L -0.506691 -26.9952 L -0.453495 -26.9962 L -0.400296 -26.997 L -0.347096 -26.9978 L -0.293895 -26.9984 L -0.240692 -26.9989 L -0.187489 -26.9993 L -0.134285 -26.9997 L -0.0810799 -26.9999 L -0.0278749 -27 L 0.0253303 -27 L 0.0785353 -26.9999 L 0.13174 -26.9997 L 0.184944 -26.9994 L 0.238148 -26.9989 L 0.29135 -26.9984 L 0.344552 -26.9978 L 0.397752 -26.9971 L 0.419934 -26.9435 L 0.442116 -26.89 L 0.464297 -26.8364 L 0.486478 -26.7828 L 0.508659 -26.7291 L 0.53084 -26.6755 L 0.55302 -26.6218 L 0.575199 -26.5681 L 0.597378 -26.5144 L 0.619557 -26.4607 L 0.641735 -26.4069 L 0.663913 -26.3532 L 0.68609 -26.2994 L 0.708267 -26.2456 L 0.730443 -26.1917 L 0.752618 -26.1379 L 0.774793 -26.084 L 0.796967 -26.0301 L 0.81914 -25.9762 L 0.841313 -25.9222 L 0.863485 -25.8683 L 0.885657 -25.8143 L 0.907827 -25.7603 L 0.929997 -25.7063 L 0.952166 -25.6522 L 0.974334 -25.5981 L 0.996502 -25.544 L 1.01867 -25.4899 L 1.04083 -25.4358 L 1.063 -25.3816 L 1.08516 -25.3274 L 1.10732 -25.2732 L 1.12949 -25.219 L 1.15165 -25.1647 L 1.1738 -25.1104 L 1.19596 -25.0561 L 1.21812 -25.0018 L 1.24028 -24.9474 L 1.26243 -24.893 L 1.26243 -24.893 L 1.28997 -24.9449 L 1.31752 -24.9967 L 1.34506 -25.0485 L 1.37259 -25.1003 L 1.40013 -25.1521 L 1.42767 -25.2038 L 1.4552 -25.2555 L 1.48274 -25.3072 L 1.51027 -25.3589 L 1.5378 -25.4106 L 1.56533 -25.4622 L 1.59286 -25.5138 L 1.62038 -25.5654 L 1.64791 -25.6169 L 1.67543 -25.6685 L 1.70296 -25.72 L 1.73048 -25.7715 L 1.758 -25.8229 L 1.78551 -25.8744 L 1.81303 -25.9258 L 1.84054 -25.9772 L 1.86806 -26.0286 L 1.89557 -26.0799 L 1.92308 -26.1313 L 1.95059 -26.1826 L 1.97809 -26.2339 L 2.0056 -26.2851 L 2.0331 -26.3364 L 2.06061 -26.3876 L 2.08811 -26.4388 L 2.11561 -26.49 L 2.1431 -26.5412 L 2.1706 -26.5923 L 2.19809 -26.6435 L 2.22558 -26.6946 L 2.25308 -26.7457 L 2.28056 -26.7967 L 2.30805 -26.8478 L 2.33554 -26.8988 L 2.38854 -26.8941 L 2.44153 -26.8894 L 2.49451 -26.8845 L 2.54749 -26.8796 L 2.60045 -26.8745 L 2.6534 -26.8693 L 2.70634 -26.864 L 2.75928 -26.8586 L 2.8122 -26.8531 L 2.86511 -26.8476 L 2.91801 -26.8419 L 2.97089 -26.8361 L 3.02377 -26.8301 L 3.07663 -26.8241 L 3.12949 -26.818 L 3.18233 -26.8118 L 3.23516 -26.8055 L 3.28797 -26.7991 L 3.34077 -26.7925 L 3.39356 -26.7859 L 3.44634 -26.7791 L 3.4991 -26.7723 L 3.55185 -26.7654 L 3.60459 -26.7583 L 3.65731 -26.7512 L 3.71002 -26.7439 L 3.76271 -26.7365 L 3.81539 -26.7291 L 3.86805 -26.7215 L 3.9207 -26.7138 L 3.97334 -26.706 L 4.02595 -26.6982 L 4.15112 -26.679 L 4.20369 -26.6708 L 4.25624 -26.6624 L 4.30877 -26.654 L 4.36128 -26.6454 L 4.41378 -26.6368 L 4.46626 -26.628 L 4.51872 -26.6192 L 4.57117 -26.6102 L 4.6236 -26.6012 L 4.67601 -26.592 L 4.7284 -26.5827 L 4.78077 -26.5734 L 4.83313 -26.5639 L 4.88547 -26.5543 L 4.93778 -26.5446 L 4.99008 -26.5349 L 5.04236 -26.525 L 5.09462 -26.515 L 5.14686 -26.5049 L 5.19908 -26.4947 L 5.25128 -26.4844 L 5.30346 -26.474 L 5.35562 -26.4635 L 5.40775 -26.4529 L 5.45987 -26.4422 L 5.51196 -26.4314 L 5.56404 -26.4205 L 5.61609 -26.4095 L 5.66812 -26.3983 L 5.72013 -26.3871 L 5.77212 -26.3758 L 5.82408 -26.3644 L 5.83503 -26.3075 L 5.84597 -26.2505 L 5.85691 -26.1936 L 5.86785 -26.1366 L 5.87878 -26.0796 L 5.88971 -26.0226 L 5.90063 -25.9655 L 5.91155 -25.9085 L 5.92246 -25.8514 L 5.93337 -25.7943 L 5.94428 -25.7372 L 5.95518 -25.6801 L 5.96607 -25.6229 L 5.97696 -25.5658 L 5.98785 -25.5086 L 5.99873 -25.4513 L 6.00961 -25.3941 L 6.02048 -25.3368 L 6.03134 -25.2796 L 6.0422 -25.2223 L 6.05306 -25.1649 L 6.06391 -25.1076 L 6.07475 -25.0502 L 6.08559 -24.9928 L 6.09643 -24.9354 L 6.10726 -24.878 L 6.11808 -24.8205 L 6.1289 -24.7631 L 6.13971 -24.7056 L 6.15052 -24.6481 L 6.16132 -24.5905 L 6.17211 -24.5329 L 6.1829 -24.4754 L 6.19369 -24.4177 L 6.20446 -24.3601 L 6.21524 -24.3024 L 6.226 -24.2448 L 6.23676 -24.1871 L 6.24751 -24.1293 L 6.24751 -24.1293 L 6.28493 -24.1746 L 6.32235 -24.2198 L 6.35975 -24.265 L 6.39715 -24.3102 L 6.43455 -24.3554 L 6.47194 -24.4005 L 6.50932 -24.4456 L 6.5467 -24.4907 L 6.58407 -24.5358 L 6.62143 -24.5808 L 6.65879 -24.6259 L 6.69614 -24.6709 L 6.73349 -24.7159 L 6.77083 -24.7608 L 6.80816 -24.8058 L 6.84549 -24.8507 L 6.88281 -24.8956 L 6.92013 -24.9404 L 6.95744 -24.9853 L 6.99474 -25.0301 L 7.03204 -25.0749 L 7.06933 -25.1197 L 7.10662 -25.1645 L 7.1439 -25.2092 L 7.18117 -25.254 L 7.21844 -25.2987 L 7.2557 -25.3434 L 7.29296 -25.388 L 7.33021 -25.4327 L 7.36746 -25.4773 L 7.4047 -25.5219 L 7.44193 -25.5665 L 7.47916 -25.611 L 7.51639 -25.6556 L 7.5536 -25.7001 L 7.59081 -25.7446 L 7.62802 -25.7891 L 7.66522 -25.8336 L 7.70242 -25.878 L 7.7534 -25.8628 L 7.80435 -25.8475 L 7.85526 -25.8321 L 7.90615 -25.8165 L 7.95701 -25.8009 L 8.00784 -25.7852 L 8.05863 -25.7693 L 8.1094 -25.7534 L 8.16013 -25.7374 L 8.21083 -25.7212 L 8.2615 -25.705 L 8.31214 -25.6887 L 8.36274 -25.6723 L 8.41331 -25.6557 L 8.46385 -25.6391 L 8.51436 -25.6224 L 8.56483 -25.6055 L 8.61528 -25.5886 L 8.66568 -25.5716 L 8.71606 -25.5545 L 8.7664 -25.5372 L 8.8167 -25.5199 L 8.86697 -25.5025 L 8.91721 -25.485 L 8.96741 -25.4673 L 9.01758 -25.4496 L 9.06771 -25.4318 L 9.11781 -25.4139 L 9.16787 -25.3959 L 9.2179 -25.3778 L 9.26789 -25.3595 L 9.31784 -25.3412 L 9.43659 -25.2972 L 9.48642 -25.2786 L 9.53622 -25.2599 L 9.58597 -25.241 L 9.63569 -25.2221 L 9.68538 -25.203 L 9.73502 -25.1839 L 9.78463 -25.1647 L 9.8342 -25.1453 L 9.88373 -25.1259 L 9.93322 -25.1064 L 9.98268 -25.0868 L 10.0321 -25.0671 L 10.0815 -25.0472 L 10.1308 -25.0273 L 10.1801 -25.0073 L 10.2294 -24.9872 L 10.2786 -24.967 L 10.3278 -24.9467 L 10.3769 -24.9263 L 10.426 -24.9058 L 10.4751 -24.8852 L 10.5241 -24.8645 L 10.5731 -24.8437 L 10.622 -24.8228 L 10.6709 -24.8019 L 10.7197 -24.7808 L 10.7685 -24.7596 L 10.8173 -24.7383 L 10.866 -24.717 L 10.9147 -24.6955 L 10.9634 -24.674 L 11.012 -24.6523 L 11.0112 -24.5944 L 11.0105 -24.5364 L 11.0097 -24.4784 L 11.009 -24.4204 L 11.0082 -24.3624 L 11.0075 -24.3043 L 11.0067 -24.2462 L 11.0059 -24.1882 L 11.0051 -24.1301 L 11.0043 -24.0719 L 11.0035 -24.0138 L 11.0026 -23.9556 L 11.0018 -23.8975 L 11.001 -23.8393 L 11.0001 -23.781 L 10.9993 -23.7228 L 10.9984 -23.6646 L 10.9975 -23.6063 L 10.9966 -23.548 L 10.9957 -23.4897 L 10.9948 -23.4313 L 10.9939 -23.373 L 10.993 -23.3146 L 10.992 -23.2562 L 10.9911 -23.1978 L 10.9901 -23.1394 L 10.9892 -23.0809 L 10.9882 -23.0224 L 10.9872 -22.9639 L 10.9862 -22.9054 L 10.9852 -22.8469 L 10.9842 -22.7883 L 10.9832 -22.7297 L 10.9822 -22.6711 L 10.9811 -22.6125 L 10.9801 -22.5539 L 10.979 -22.4952 L 10.9779 -22.4365 L 10.9768 -22.3778 L 10.9768 -22.3778 L 11.0226 -22.4146 L 11.0683 -22.4514 L 11.1141 -22.4881 L 11.1598 -22.5248 L 11.2055 -22.5616 L 11.2512 -22.5982 L 11.2969 -22.6349 L 11.3426 -22.6716 L 11.3883 -22.7082 L 11.434 -22.7448 L 11.4796 -22.7814 L 11.5253 -22.8179 L 11.5709 -22.8545 L 11.6165 -22.891 L 11.6622 -22.9275 L 11.7078 -22.964 L 11.7534 -23.0005 L 11.7989 -23.0369 L 11.8445 -23.0733 L 11.8901 -23.1097 L 11.9356 -23.1461 L 11.9812 -23.1825 L 12.0267 -23.2188 L 12.0722 -23.2551 L 12.1178 -23.2915 L 12.1633 -23.3277 L 12.2088 -23.364 L 12.2542 -23.4003 L 12.2997 -23.4365 L 12.3452 -23.4727 L 12.3906 -23.5089 L 12.4361 -23.5451 L 12.4815 -23.5812 L 12.527 -23.6174 L 12.5724 -23.6535 L 12.6178 -23.6896 L 12.6632 -23.7257 L 12.7086 -23.7618 L 12.754 -23.7978 L 12.8008 -23.7726 L 12.8476 -23.7474 L 12.8944 -23.722 L 12.9411 -23.6966 L 12.9878 -23.671 L 13.0344 -23.6454 L 13.081 -23.6196 L 13.1275 -23.5938 L 13.174 -23.5679 L 13.2204 -23.5419 L 13.2668 -23.5158 L 13.3131 -23.4896 L 13.3593 -23.4633 L 13.4056 -23.437 L 13.4517 -23.4105 L 13.4978 -23.3839 L 13.5439 -23.3573 L 13.5899 -23.3306 L 13.6358 -23.3037 L 13.6817 -23.2768 L 13.7276 -23.2498 L 13.7733 -23.2227 L 13.8191 -23.1955 L 13.8648 -23.1683 L 13.9104 -23.1409 L 13.956 -23.1134 L 14.0015 -23.0859 L 14.0469 -23.0583 L 14.0924 -23.0305 L 14.1377 -23.0027 L 14.183 -22.9748 L 14.2283 -22.9468 L 14.3357 -22.8798 L 14.3808 -22.8515 L 14.4258 -22.8232 L 14.4707 -22.7947 L 14.5156 -22.7661 L 14.5605 -22.7375 L 14.6052 -22.7087 L 14.6499 -22.6799 L 14.6946 -22.651 L 14.7392 -22.622 L 14.7838 -22.5929 L 14.8283 -22.5637 L 14.8727 -22.5345 L 14.9171 -22.5051 L 14.9614 -22.4757 L 15.0057 -22.4462 L 15.0499 -22.4166 L 15.094 -22.3869 L 15.1381 -22.3571 L 15.1821 -22.3272 L 15.2261 -22.2972 L 15.27 -22.2672 L 15.3138 -22.2371 L 15.3576 -22.2068 L 15.4014 -22.1765 L 15.445 -22.1461 L 15.4886 -22.1157 L 15.5322 -22.0851 L 15.5757 -22.0544 L 15.6191 -22.0237 L 15.6625 -21.9929 L 15.7058 -21.962 L 15.749 -21.931 L 15.7366 -21.8744 L 15.7242 -21.8177 L 15.7118 -21.7611 L 15.6994 -21.7044 L 15.687 -21.6477 L 15.6746 -21.591 L 15.6621 -21.5343 L 15.6496 -21.4776 L 15.6372 -21.4208 L 15.6247 -21.364 L 15.6122 -21.3073 L 15.5996 -21.2505 L 15.5871 -21.1936 L 15.5746 -21.1368 L 15.562 -21.0799 L 15.5495 -21.0231 L 15.5369 -20.9662 L 15.5243 -20.9093 L 15.5117 -20.8524 L 15.4991 -20.7954 L 15.4864 -20.7385 L 15.4738 -20.6815 L 15.4611 -20.6245 L 15.4485 -20.5675 L 15.4358 -20.5105 L 15.4231 -20.4534 L 15.4104 -20.3963 L 15.3977 -20.3393 L 15.3849 -20.2822 L 15.3722 -20.225 L 15.3594 -20.1679 L 15.3466 -20.1107 L 15.3338 -20.0536 L 15.321 -19.9964 L 15.3082 -19.9391 L 15.2954 -19.8819 L 15.2825 -19.8247 L 15.2696 -19.7674 L 15.2567 -19.7101 L 15.2567 -19.7101 L 15.309 -19.7369 L 15.3612 -19.7637 L 15.4134 -19.7905 L 15.4656 -19.8173 L 15.5178 -19.8441 L 15.5699 -19.8708 L 15.6221 -19.8975 L 15.6742 -19.9242 L 15.7263 -19.9509 L 15.7784 -19.9776 L 15.8305 -20.0042 L 15.8826 -20.0308 L 15.9346 -20.0574 L 15.9867 -20.084 L 16.0387 -20.1106 L 16.0907 -20.1372 L 16.1427 -20.1637 L 16.1947 -20.1902 L 16.2467 -20.2167 L 16.2986 -20.2432 L 16.3506 -20.2697 L 16.4025 -20.2961 L 16.4544 -20.3226 L 16.5063 -20.349 L 16.5582 -20.3754 L 16.6101 -20.4018 L 16.662 -20.4281 L 16.7138 -20.4545 L 16.7657 -20.4808 L 16.8175 -20.5072 L 16.8693 -20.5335 L 16.9211 -20.5597 L 16.9729 -20.586 L 17.0247 -20.6123 L 17.0764 -20.6385 L 17.1282 -20.6647 L 17.1799 -20.691 L 17.2316 -20.7172 L 17.2834 -20.7433 L 17.3242 -20.7092 L 17.365 -20.6751 L 17.4057 -20.6408 L 17.4463 -20.6065 L 17.4869 -20.572 L 17.5274 -20.5375 L 17.5678 -20.503 L 17.6082 -20.4683 L 17.6485 -20.4336 L 17.6887 -20.3987 L 17.7289 -20.3639 L 17.769 -20.3289 L 17.809 -20.2938 L 17.849 -20.2587 L 17.8889 -20.2235 L 17.9287 -20.1882 L 17.9684 -20.1528 L 18.0081 -20.1174 L 18.0477 -20.0818 L 18.0872 -20.0462 L 18.1267 -20.0106 L 18.1661 -19.9748 L 18.2054 -19.939 L 18.2447 -19.9031 L 18.2839 -19.8671 L 18.323 -19.831 L 18.362 -19.7948 L 18.401 -19.7586 L 18.4399 -19.7223 L 18.4787 -19.686 L 18.5175 -19.6495 L 18.5562 -19.613 L 18.6479 -19.5257 L 18.6864 -19.4889 L 18.7248 -19.4521 L 18.763 -19.4151 L 18.8013 -19.3781 L 18.8394 -19.3411 L 18.8775 -19.3039 L 18.9155 -19.2667 L 18.9534 -19.2293 L 18.9913 -19.192 L 19.0291 -19.1545 L 19.0668 -19.117 L 19.1044 -19.0793 L 19.142 -19.0417 L 19.1795 -19.0039 L 19.2169 -18.9661 L 19.2542 -18.9282 L 19.2915 -18.8902 L 19.3287 -18.8521 L 19.3658 -18.814 L 19.4028 -18.7758 L 19.4398 -18.7375 L 19.4766 -18.6992 L 19.5135 -18.6608 L 19.5502 -18.6223 L 19.5868 -18.5837 L 19.6234 -18.5451 L 19.6599 -18.5064 L 19.6964 -18.4676 L 19.7327 -18.4288 L 19.769 -18.3899 L 19.8052 -18.3509 L 19.8413 -18.3118 L 19.8178 -18.2588 L 19.7942 -18.2058 L 19.7707 -18.1529 L 19.7471 -18.0998 L 19.7235 -18.0468 L 19.6999 -17.9938 L 19.6763 -17.9407 L 19.6527 -17.8877 L 19.629 -17.8346 L 19.6054 -17.7815 L 19.5817 -17.7284 L 19.558 -17.6753 L 19.5343 -17.6221 L 19.5106 -17.569 L 19.4868 -17.5158 L 19.4631 -17.4626 L 19.4393 -17.4095 L 19.4155 -17.3562 L 19.3917 -17.303 L 19.3679 -17.2498 L 19.3441 -17.1965 L 19.3202 -17.1433 L 19.2963 -17.09 L 19.2724 -17.0367 L 19.2485 -16.9834 L 19.2246 -16.9301 L 19.2007 -16.8767 L 19.1767 -16.8234 L 19.1528 -16.77 L 19.1288 -16.7166 L 19.1048 -16.6632 L 19.0807 -16.6098 L 19.0567 -16.5564 L 19.0326 -16.5029 L 19.0085 -16.4495 L 18.9845 -16.396 L 18.9603 -16.3425 L 18.9362 -16.289 L 18.912 -16.2355 L 18.912 -16.2355 L 18.9686 -16.2512 L 19.0252 -16.267 L 19.0817 -16.2827 L 19.1382 -16.2984 L 19.1947 -16.3141 L 19.2512 -16.3298 L 19.3076 -16.3455 L 19.3641 -16.3612 L 19.4205 -16.3768 L 19.4769 -16.3924 L 19.5333 -16.4081 L 19.5896 -16.4237 L 19.646 -16.4392 L 19.7023 -16.4548 L 19.7586 -16.4704 L 19.8149 -16.4859 L 19.8712 -16.5014 L 19.9275 -16.517 L 19.9837 -16.5325 L 20.0399 -16.5479 L 20.0962 -16.5634 L 20.1523 -16.5789 L 20.2085 -16.5943 L 20.2647 -16.6097 L 20.3208 -16.6252 L 20.377 -16.6406 L 20.4331 -16.6559 L 20.4892 -16.6713 L 20.5452 -16.6867 L 20.6013 -16.702 L 20.6574 -16.7174 L 20.7134 -16.7327 L 20.7694 -16.748 L 20.8254 -16.7633 L 20.8814 -16.7786 L 20.9373 -16.7939 L 20.9933 -16.8091 L 21.0492 -16.8244 L 21.1052 -16.8396 L 21.1383 -16.798 L 21.1714 -16.7563 L 21.2043 -16.7145 L 21.2372 -16.6727 L 21.2701 -16.6308 L 21.3028 -16.5889 L 21.3354 -16.5469 L 21.368 -16.5048 L 21.4005 -16.4627 L 21.4329 -16.4205 L 21.4652 -16.3782 L 21.4974 -16.3359 L 21.5296 -16.2935 L 21.5616 -16.251 L 21.5936 -16.2085 L 21.6255 -16.1659 L 21.6573 -16.1233 L 21.6891 -16.0806 L 21.7207 -16.0378 L 21.7523 -15.995 L 21.7837 -15.9521 L 21.8151 -15.9091 L 21.8464 -15.8661 L 21.8777 -15.823 L 21.9088 -15.7799 L 21.9399 -15.7367 L 21.9708 -15.6934 L 22.0017 -15.6501 L 22.0325 -15.6067 L 22.0632 -15.5632 L 22.0938 -15.5197 L 22.1244 -15.4762 L 22.1967 -15.3722 L 22.227 -15.3285 L 22.2571 -15.2846 L 22.2872 -15.2407 L 22.3172 -15.1968 L 22.3471 -15.1528 L 22.3769 -15.1087 L 22.4066 -15.0646 L 22.4363 -15.0204 L 22.4658 -14.9762 L 22.4953 -14.9319 L 22.5247 -14.8875 L 22.554 -14.8431 L 22.5832 -14.7986 L 22.6123 -14.7541 L 22.6413 -14.7095 L 22.6703 -14.6649 L 22.6991 -14.6202 L 22.7279 -14.5754 L 22.7566 -14.5306 L 22.7852 -14.4857 L 22.8137 -14.4408 L 22.8421 -14.3958 L 22.8704 -14.3508 L 22.8986 -14.3057 L 22.9268 -14.2605 L 22.9548 -14.2153 L 22.9828 -14.1701 L 23.0107 -14.1247 L 23.0385 -14.0794 L 23.0662 -14.0339 L 23.0938 -13.9885 L 23.1213 -13.9429 L 23.0876 -13.8958 L 23.0539 -13.8486 L 23.0201 -13.8014 L 22.9864 -13.7543 L 22.9526 -13.7071 L 22.9188 -13.6599 L 22.885 -13.6127 L 22.8512 -13.5654 L 22.8173 -13.5182 L 22.7834 -13.471 L 22.7496 -13.4237 L 22.7157 -13.3765 L 22.6817 -13.3292 L 22.6478 -13.2819 L 22.6138 -13.2346 L 22.5799 -13.1873 L 22.5459 -13.14 L 22.5119 -13.0926 L 22.4778 -13.0453 L 22.4438 -12.998 L 22.4097 -12.9506 L 22.3756 -12.9032 L 22.3415 -12.8558 L 22.3074 -12.8084 L 22.2733 -12.761 L 22.2391 -12.7136 L 22.2049 -12.6662 L 22.1707 -12.6188 L 22.1365 -12.5713 L 22.1022 -12.5238 L 22.068 -12.4764 L 22.0337 -12.4289 L 21.9994 -12.3814 L 21.965 -12.3339 L 21.9307 -12.2864 L 21.8963 -12.2388 L 21.8619 -12.1913 L 21.8275 -12.1437 L 21.7931 -12.0962 L 21.7931 -12.0962 L 21.8517 -12.1002 L 21.9102 -12.1043 L 21.9688 -12.1083 L 22.0273 -12.1123 L 22.0858 -12.1163 L 22.1443 -12.1203 L 22.2027 -12.1243 L 22.2612 -12.1283 L 22.3196 -12.1323 L 22.378 -12.1362 L 22.4363 -12.1402 L 22.4947 -12.1441 L 22.553 -12.148 L 22.6113 -12.1519 L 22.6696 -12.1558 L 22.7279 -12.1597 L 22.7862 -12.1636 L 22.8444 -12.1675 L 22.9026 -12.1713 L 22.9608 -12.1752 L 23.019 -12.179 L 23.0771 -12.1829 L 23.1353 -12.1867 L 23.1934 -12.1905 L 23.2515 -12.1943 L 23.3096 -12.1981 L 23.3676 -12.2018 L 23.4257 -12.2056 L 23.4837 -12.2094 L 23.5417 -12.2131 L 23.5997 -12.2169 L 23.6576 -12.2206 L 23.7156 -12.2243 L 23.7735 -12.228 L 23.8314 -12.2317 L 23.8893 -12.2354 L 23.9472 -12.2391 L 24.0051 -12.2428 L 24.0629 -12.2465 L 24.087 -12.199 L 24.111 -12.1515 L 24.1349 -12.104 L 24.1587 -12.0564 L 24.1824 -12.0088 L 24.206 -11.9611 L 24.2296 -11.9134 L 24.253 -11.8656 L 24.2763 -11.8178 L 24.2996 -11.7699 L 24.3227 -11.722 L 24.3458 -11.6741 L 24.3687 -11.6261 L 24.3916 -11.578 L 24.4143 -11.5299 L 24.437 -11.4818 L 24.4596 -11.4336 L 24.4821 -11.3854 L 24.5045 -11.3372 L 24.5268 -11.2888 L 24.549 -11.2405 L 24.5711 -11.1921 L 24.5931 -11.1437 L 24.615 -11.0952 L 24.6368 -11.0466 L 24.6585 -10.9981 L 24.6801 -10.9495 L 24.7017 -10.9008 L 24.7231 -10.8521 L 24.7444 -10.8034 L 24.7657 -10.7546 L 24.7868 -10.7058 L 24.8368 -10.5894 L 24.8576 -10.5404 L 24.8783 -10.4914 L 24.8989 -10.4424 L 24.9195 -10.3933 L 24.9399 -10.3442 L 24.9602 -10.295 L 24.9805 -10.2458 L 25.0006 -10.1966 L 25.0206 -10.1473 L 25.0406 -10.0979 L 25.0604 -10.0486 L 25.0802 -9.99918 L 25.0999 -9.94974 L 25.1194 -9.90026 L 25.1389 -9.85074 L 25.1582 -9.80118 L 25.1775 -9.75159 L 25.1967 -9.70196 L 25.2157 -9.65229 L 25.2347 -9.60258 L 25.2536 -9.55283 L 25.2724 -9.50305 L 25.291 -9.45323 L 25.3096 -9.40338 L 25.3281 -9.35348 L 25.3465 -9.30356 L 25.3648 -9.25359 L 25.3829 -9.20359 L 25.401 -9.15355 L 25.419 -9.10348 L 25.4369 -9.05337 L 25.4547 -9.00323 L 25.4122 -8.96383 L 25.3697 -8.92443 L 25.3271 -8.88502 L 25.2845 -8.8456 L 25.242 -8.80617 L 25.1994 -8.76674 L 25.1567 -8.7273 L 25.1141 -8.68786 L 25.0714 -8.64841 L 25.0287 -8.60895 L 24.986 -8.56948 L 24.9433 -8.53001 L 24.9006 -8.49053 L 24.8578 -8.45105 L 24.815 -8.41155 L 24.7722 -8.37206 L 24.7294 -8.33255 L 24.6866 -8.29304 L 24.6437 -8.25352 L 24.6008 -8.21399 L 24.5579 -8.17446 L 24.515 -8.13492 L 24.4721 -8.09537 L 24.4291 -8.05581 L 24.3861 -8.01625 L 24.3431 -7.97668 L 24.3001 -7.9371 L 24.257 -7.89752 L 24.2139 -7.85793 L 24.1708 -7.81833 L 24.1277 -7.77873 L 24.0846 -7.73912 L 24.0414 -7.6995 L 23.9982 -7.65987 L 23.955 -7.62024 L 23.9118 -7.58059 L 23.8685 -7.54095 L 23.8252 -7.50129 L 23.7819 -7.46163 L 23.7819 -7.46163 L 23.8401 -7.45381 L 23.8983 -7.44599 L 23.9565 -7.43816 L 24.0146 -7.43032 L 24.0727 -7.42247 L 24.1308 -7.41462 L 24.1888 -7.40676 L 24.2469 -7.3989 L 24.3049 -7.39103 L 24.3629 -7.38315 L 24.4209 -7.37526 L 24.4788 -7.36737 L 24.5367 -7.35947 L 24.5947 -7.35156 L 24.6525 -7.34365 L 24.7104 -7.33573 L 24.7682 -7.3278 L 24.8261 -7.31987 L 24.8839 -7.31193 L 24.9416 -7.30399 L 24.9994 -7.29604 L 25.0571 -7.28808 L 25.1148 -7.28012 L 25.1725 -7.27215 L 25.2302 -7.26418 L 25.2879 -7.2562 L 25.3455 -7.24821 L 25.4031 -7.24022 L 25.4607 -7.23222 L 25.5183 -7.22422 L 25.5758 -7.21621 L 25.6334 -7.20819 L 25.6909 -7.20017 L 25.7484 -7.19215 L 25.8058 -7.18412 L 25.8633 -7.17608 L 25.9207 -7.16804 L 25.9782 -7.15999 L 26.0355 -7.15194 L 26.0496 -7.10062 L 26.0635 -7.04927 L 26.0774 -6.9979 L 26.0911 -6.9465 L 26.1048 -6.89507 L 26.1183 -6.84362 L 26.1317 -6.79214 L 26.1451 -6.74063 L 26.1583 -6.6891 L 26.1714 -6.63754 L 26.1844 -6.58595 L 26.1974 -6.53434 L 26.2102 -6.4827 L 26.2229 -6.43104 L 26.2355 -6.37936 L 26.2481 -6.32765 L 26.2605 -6.27591 L 26.2728 -6.22415 L 26.285 -6.17237 L 26.2971 -6.12056 L 26.3091 -6.06873 L 26.321 -6.01687 L 26.3328 -5.96499 L 26.3446 -5.91309 L 26.3562 -5.86116 L 26.3677 -5.80922 L 26.379 -5.75725 L 26.3903 -5.70525 L 26.4015 -5.65324 L 26.4126 -5.6012 L 26.4236 -5.54914 L 26.4345 -5.49706 L 26.46 -5.37303 L 26.4705 -5.32087 L 26.481 -5.2687 L 26.4913 -5.21651 L 26.5015 -5.1643 L 26.5116 -5.11206 L 26.5217 -5.05981 L 26.5316 -5.00754 L 26.5414 -4.95525 L 26.5511 -4.90294 L 26.5607 -4.85061 L 26.5702 -4.79826 L 26.5796 -4.74589 L 26.5889 -4.6935 L 26.5981 -4.6411 L 26.6072 -4.58868 L 26.6162 -4.53624 L 26.6251 -4.48378 L 26.6339 -4.43131 L 26.6426 -4.37881 L 26.6511 -4.3263 L 26.6596 -4.27378 L 26.668 -4.22124 L 26.6762 -4.16868 L 26.6844 -4.1161 L 26.6925 -4.06351 L 26.7004 -4.0109 L 26.7083 -3.95828 L 26.716 -3.90564 L 26.7237 -3.85299 L 26.7312 -3.80032 L 26.7386 -3.74764 L 26.746 -3.69494 L 26.6964 -3.66491 L 26.6468 -3.63487 L 26.5972 -3.60483 L 26.5476 -3.57479 L 26.4979 -3.54474 L 26.4483 -3.51469 L 26.3986 -3.48464 L 26.3489 -3.45459 L 26.2991 -3.42453 L 26.2494 -3.39447 L 26.1996 -3.36441 L 26.1498 -3.33435 L 26.1 -3.30428 L 26.0502 -3.27421 L 26.0003 -3.24414 L 25.9504 -3.21406 L 25.9005 -3.18399 L 25.8506 -3.15391 L 25.8007 -3.12382 L 25.7507 -3.09374 L 25.7007 -3.06365 L 25.6507 -3.03356 L 25.6007 -3.00346 L 25.5507 -2.97337 L 25.5006 -2.94327 L 25.4505 -2.91317 L 25.4004 -2.88307 L 25.3502 -2.85296 L 25.3001 -2.82285 L 25.2499 -2.79274 L 25.1997 -2.76262 L 25.1494 -2.73251 L 25.0992 -2.70239 L 25.0489 -2.67227 L 24.9986 -2.64214 L 24.9483 -2.61202 L 24.8979 -2.58189 L 24.8475 -2.55175 L 24.7971 -2.52162 L 24.7971 -2.52162 L 24.8526 -2.50225 L 24.908 -2.48287 L 24.9634 -2.4635 L 25.0187 -2.44412 L 25.0741 -2.42474 L 25.1294 -2.40535 L 25.1847 -2.38597 L 25.2399 -2.36658 L 25.2952 -2.34719 L 25.3504 -2.3278 L 25.4056 -2.3084 L 25.4608 -2.28901 L 25.5159 -2.26961 L 25.5711 -2.25021 L 25.6262 -2.2308 L 25.6812 -2.2114 L 25.7363 -2.19199 L 25.7913 -2.17258 L 25.8464 -2.15317 L 25.9014 -2.13376 L 25.9563 -2.11435 L 26.0113 -2.09493 L 26.0662 -2.07551 L 26.1211 -2.05609 L 26.176 -2.03667 L 26.2309 -2.01725 L 26.2857 -1.99783 L 26.3406 -1.9784 L 26.3954 -1.95897 L 26.4501 -1.93955 L 26.5049 -1.92011 L 26.5596 -1.90068 L 26.6144 -1.88125 L 26.6691 -1.86181 L 26.7237 -1.84238 L 26.7784 -1.82294 L 26.833 -1.8035 L 26.8877 -1.78406 L 26.9423 -1.76462 L 26.9457 -1.71153 L 26.949 -1.65842 L 26.9522 -1.60532 L 26.9553 -1.5522 L 26.9584 -1.49908 L 26.9613 -1.44596 L 26.9641 -1.39282 L 26.9667 -1.33969 L 26.9693 -1.28655 L 26.9718 -1.2334 L 26.9742 -1.18025 L 26.9765 -1.12709 L 26.9786 -1.07393 L 26.9807 -1.02076 L 26.9827 -0.967595 L 26.9845 -0.914422 L 26.9863 -0.861246 L 26.9879 -0.808066 L 26.9894 -0.754883 L 26.9909 -0.701698 L 26.9922 -0.648509 L 26.9934 -0.595318 L 26.9946 -0.542125 L 26.9956 -0.488929 L 26.9965 -0.435732 L 26.9973 -0.382533 L 26.998 -0.329332 L 26.9986 -0.276131 L 26.9991 -0.222928 L 26.9995 -0.169724 L 26.9997 -0.11652 L 26.9999 -0.0633149Z"
id="path1" />
</g>
</svg>
