<?xml version="1.0" encoding="UTF-8" standalone="no"?>
<svg version="1.1">
<g
style="fill:none;stroke:#000000;stroke-opacity:1;stroke-width:0.1">
<path d="M 8.11787 0.34024 L 7.91547 0.740146 L 7.69127 1.138 L 7.44391 1.5324 L 7.172 1.92173 L 7.172 1.92173 L 7.21281 2.39485 L 7.22983 2.8601 L 7.22507 3.31675 L 7.2004 3.76428 L 6.86016 4.35359 L 6.48493 4.59872 L 6.09183 4.83117 L 5.68041 5.04905 L 5.25027 5.25027 L 5.25027 5.25027 L 5.04905 5.68041 L 4.83117 6.09183 L 4.59872 6.48493 L 4.35359 6.86016 L 3.76428 7.2004 L 3.31675 7.22507 L 2.8601 7.22983 L 2.39485 7.21281 L 1.92173 7.172 L 1.92173 7.172 L 1.5324 7.44391 L 1.138 7.69127 L 0.740146 7.91547 L 0.34024 8.11787 L -0.34024 8.11787 L -0.740146 7.91547 L -1.138 7.69127 L -1.5324 7.44391 L -1.92173 7.172 L -1.92173 7.172 L -2.39485 7.21281 L -2.8601 7.22983 L -3.31675 7.22507 L -3.76428 7.2004 L -4.35359 6.86016 L -4.59872 6.48493 L -4.83117 6.09183 L -5.04905 5.68041 L -5.25027 5.25027 L -5.25027 5.25027 L -5.68041 5.04905 L -6.09183 4.83117 L -6.48493 4.59872 L -6.86016 4.35359 L -7.2004 3.76428 L -7.22507 3.31675 L -7.22983 2.8601 L -7.21281 2.39485 L -7.172 1.92173 L -7.172 1.92173 L -7.44391 1.5324 L -7.69127 1.138 L -7.91547 0.740146 L -8.11787 0.34024 L -8.11787 -0.34024 L -7.91547 -0.740146 L -7.69127 -1.138 L -7.44391 -1.5324 L -7.172 -1.92173 L -7.172 -1.92173 L -7.21281 -2.39485 L -7.22983 -2.8601 L -7.22507 -3.31675 L -7.2004 -3.76428 L -6.86016 -4.35359 L -6.48493 -4.59872 L -6.09183 -4.83117 L -5.68041 -5.04905 L -5.25027 -5.25027 L -5.25027 -5.25027 L -5.04905 -5.68041 L -4.83117 -6.09183 L -4.59872 -6.48493 L -4.35359 -6.86016 L -3.76428 -7.2004 L -3.31675 -7.22507 L -2.8601 -7.22983 L -2.39485 -7.21281 L -1.92173 -7.172 L -1.92173 -7.172 L -1.5324 -7.44391 L -1.138 -7.69127 L -0.740146 -7.91547 L -0.34024 -8.11787 L 0.34024 -8.11787 L 0.740146 -7.91547 L 1.138 -7.69127 L 1.5324 -7.44391 L 1.92173 -7.172 L 1.92173 -7.172 L 2.39485 -7.21281 L 2.8601 -7.22983 L 3.31675 -7.22507 L 3.76428 -7.2004 L 4.35359 -6.86016 L 4.59872 -6.48493 L 4.83117 -6.09183 L 5.04905 -5.68041 L 5.25027 -5.25027 L 5.25027 -5.25027 L 5.68041 -5.04905 L 6.09183 -4.83117 L 6.48493 -4.59872 L 6.86016 -4.35359 L 7.2004 -3.76428 L 7.22507 -3.31675 L 7.22983 -2.8601 L 7.21281 -2.39485 L 7.172 -1.92173 L 7.172 -1.92173 L 7.44391 -1.5324 L 7.69127 -1.138 L 7.91547 -0.740146 L 8.11787 -0.34024Z"
id="path1" />
</g>
</svg>
