<?xml version="1.0" encoding="UTF-8" standalone="no"?>
<svg version="1.1">
<g
style="fill:none;stroke:#000000;stroke-opacity:1;stroke-width:0.1">
<path d="M 8.86848 0.340256 L 8.5722 0.764753 L 8.25255 1.18714 L 7.90734 1.60582 L 7.53422 2.01879 L 7.53422 2.01879 L 7.65087 2.56299 L 7.74049 3.09818 L 7.80612 3.62381 L 7.85045 4.13957 L 7.5102 4.72891 L 7.04137 4.9484 L 6.55335 5.15437 L 6.04505 5.34435 L 5.51543 5.51543 L 5.51543 5.51543 L 5.34435 6.04505 L 5.15437 6.55335 L 4.9484 7.04137 L 4.72891 7.5102 L 4.13957 7.85045 L 3.62381 7.80612 L 3.09818 7.74049 L 2.56299 7.65087 L 2.01879 7.53422 L 2.01879 7.53422 L 1.60582 7.90734 L 1.18714 8.25255 L 0.764753 8.5722 L 0.340256 8.86848 L -0.340256 8.86848 L -0.764753 8.5722 L -1.18714 8.25255 L -1.60582 7.90734 L -2.01879 7.53422 L -2.01879 7.53422 L -2.56299 7.65087 L -3.09818 7.74049 L -3.62381 7.80612 L -4.13957 7.85045 L -4.72891 7.5102 L -4.9484 7.04137 L -5.15437 6.55335 L -5.34435 6.04505 L -5.51543 5.51543 L -5.51543 5.51543 L -6.04505 5.34435 L -6.55335 5.15437 L -7.04137 4.9484 L -7.5102 4.72891 L -7.85045 4.13957 L -7.80612 3.62381 L -7.74049 3.09818 L -7.65087 2.56299 L -7.53422 2.01879 L -7.53422 2.01879 L -7.90734 1.60582 L -8.25255 1.18714 L -8.5722 0.764753 L -8.86848 0.340256 L -8.86848 -0.340256 L -8.5722 -0.764753 L -8.25255 -1.18714 L -7.90734 -1.60582 L -7.53422 -2.01879 L -7.53422 -2.01879 L -7.65087 -2.56299 L -7.74049 -3.09818 L -7.80612 -3.62381 L -7.85045 -4.13957 L -7.5102 -4.72891 L -7.04137 -4.9484 L -6.55335 -5.15437 L -6.04505 -5.34435 L -5.51543 -5.51543 L -5.51543 -5.51543 L -5.34435 -6.04505 L -5.15437 -6.55335 L -4.9484 -7.04137 L -4.72891 -7.5102 L -4.13957 -7.85045 L -3.62381 -7.80612 L -3.09818 -7.74049 L -2.56299 -7.65087 L -2.01879 -7.53422 L -2.01879 -7.53422 L -1.60582 -7.90734 L -1.18714 -8.25255 L -0.764753 -8.5722 L -0.340256 -8.86848 L 0.340256 -8.86848 L 0.764753 -8.5722 L 1.18714 -8.25255 L 1.60582 -7.90734 L 2.01879 -7.53422 L 2.01879 -7.53422 L 2.56299 -7.65087 L 3.09818 -7.74049 L 3.62381 -7.80612 L 4.13957 -7.85045 L 4.72891 -7.5102 L 4.9484 -7.04137 L 5.15437 -6.55335 L 5.34435 -6.04505 L 5.51543 -5.51543 L 5.51543 -5.51543 L 6.04505 -5.34435 L 6.55335 -5.15437 L 7.04137 -4.9484 L 7.5102 -4.72891 L 7.85045 -4.13957 L 7.80612 -3.62381 L 7.74049 -3.09818 L 7.65087 -2.56299 L 7.53422 -2.01879 L 7.53422 -2.01879 L 7.90734 -1.60582 L 8.25255 -1.18714 L 8.5722 -0.764753 L 8.86848 -0.340256Z"
id="path1" />
</g>
</svg>
