<?xml version="1.0" encoding="UTF-8" standalone="no"?>
<svg version="1.1">
<g
style="fill:none;stroke:#000000;stroke-opacity:1;stroke-width:0.1">
<path d="M 9.36882 0.340264 L 9.0836 0.693098 L 8.78308 1.04475 L 8.46593 1.39441 L 8.13068 1.74108 L 7.7757 2.08349 L 7.7757 2.08349 L 7.91191 2.55752 L 8.02892 3.02537 L 8.12875 3.48676 L 8.21317 3.94156 L 8.28377 4.38973 L 7.94351 4.97909 L 7.52008 5.14204 L 7.084 5.29632 L 6.63451 5.44056 L 6.17083 5.57315 L 5.69221 5.69221 L 5.69221 5.69221 L 5.57315 6.17083 L 5.44056 6.63451 L 5.29632 7.084 L 5.14204 7.52008 L 4.97909 7.94351 L 4.38973 8.28377 L 3.94156 8.21317 L 3.48676 8.12875 L 3.02537 8.02892 L 2.55752 7.91191 L 2.08349 7.7757 L 2.08349 7.7757 L 1.74108 8.13068 L 1.39441 8.46593 L 1.04475 8.78308 L 0.693098 9.0836 L 0.340264 9.36882 L -0.340264 9.36882 L -0.693098 9.0836 L -1.04475 8.78308 L -1.39441 8.46593 L -1.74108 8.13068 L -2.08349 7.7757 L -2.08349 7.7757 L -2.55752 7.91191 L -3.02537 8.02892 L -3.48676 8.12875 L -3.94156 8.21317 L -4.38973 8.28377 L -4.97909 7.94351 L -5.14204 7.52008 L -5.29632 7.084 L -5.44056 6.63451 L -5.57315 6.17083 L -5.69221 5.69221 L -5.69221 5.69221 L -6.17083 5.57315 L -6.63451 5.44056 L -7.084 5.29632 L -7.52008 5.14204 L -7.94351 4.97909 L -8.28377 4.38973 L -8.21317 3.94156 L -8.12875 3.48676 L -8.02892 3.02537 L -7.91191 2.55752 L -7.7757 2.08349 L -7.7757 2.08349 L -8.13068 1.74108 L -8.46593 1.39441 L -8.78308 1.04475 L -9.0836 0.693098 L -9.36882 0.340264 L -9.36882 -0.340264 L -9.0836 -0.693098 L -8.78308 -1.04475 L -8.46593 -1.39441 L -8.13068 -1.74108 L -7.7757 -2.08349 L -7.7757 -2.08349 L -7.91191 -2.55752 L -8.02892 -3.02537 L -8.12875 -3.48676 L -8.21317 -3.94156 L -8.28377 -4.38973 L -7.94351 -4.97909 L -7.52008 -5.14204 L -7.084 -5.29632 L -6.63451 -5.44056 L -6.17083 -5.57315 L -5.69221 -5.69221 L -5.69221 -5.69221 L -5.57315 -6.17083 L -5.44056 -6.63451 L -5.29632 -7.084 L -5.14204 -7.52008 L -4.97909 -7.94351 L -4.38973 -8.28377 L -3.94156 -8.21317 L -3.48676 -8.12875 L -3.02537 -8.02892 L -2.55752 -7.91191 L -2.08349 -7.7757 L -2.08349 -7.7757 L -1.74108 -8.13068 L -1.39441 -8.46593 L -1.04475 -8.78308 L -0.693098 -9.0836 L -0.340264 -9.36882 L 0.340264 -9.36882 L 0.693098 -9.0836 L 1.04475 -8.78308 L 1.39441 -8.46593 L 1.74108 -8.13068 L 2.08349 -7.7757 L 2.08349 -7.7757 L 2.55752 -7.91191 L 3.02537 -8.02892 L 3.48676 -8.12875 L 3.94156 -8.21317 L 4.38973 -8.28377 L 4.97909 -7.94351 L 5.14204 -7.52008 L 5.29632 -7.084 L 5.44056 -6.63451 L 5.57315 -6.17083 L 5.69221 -5.69221 L 5.69221 -5.69221 L 6.17083 -5.57315 L 6.63451 -5.44056 L 7.084 -5.29632 L 7.52008 -5.14204 L 7.94351 -4.97909 L 8.28377 -4.38973 L 8.21317 -3.94156 L 8.12875 -3.48676 L 8.02892 -3.02537 L 7.91191 -2.55752 L 7.7757 -2.08349 L 7.7757 -2.08349 L 8.13068 -1.74108 L 8.46593 -1.39441 L 8.78308 -1.04475 L 9.0836 -0.693098 L 9.36882 -0.340264Z"
id="path1" />
</g>
</svg>
