<?xml version="1.0" encoding="UTF-8" standalone="no"?>
<svg version="1.1">
<g
style="fill:none;stroke:#000000;stroke-opacity:1;stroke-width:0.1">
<path d="M 9.61898 0.340268 L 9.30874 0.699657 L 8.98293 1.05786 L 8.64005 1.41404 L 8.27849 1.76714 L 7.89644 2.11585 L 7.89644 2.11585 L 8.05296 2.60886 L 8.18953 3.09543 L 8.30837 3.57533 L 8.41144 4.04845 L 8.50042 4.51481 L 8.16015 5.10417 L 7.71178 5.26029 L 7.25051 5.4076 L 6.77549 5.54462 L 6.28581 5.66964 L 5.7806 5.7806 L 5.7806 5.7806 L 5.66964 6.28581 L 5.54462 6.77549 L 5.4076 7.25051 L 5.26029 7.71178 L 5.10417 8.16015 L 4.51481 8.50042 L 4.04845 8.41144 L 3.57533 8.30837 L 3.09543 8.18953 L 2.60886 8.05296 L 2.11585 7.89644 L 2.11585 7.89644 L 1.76714 8.27849 L 1.41404 8.64005 L 1.05786 8.98293 L 0.699657 9.30874 L 0.340268 9.61898 L -0.340268 9.61898 L -0.699657 9.30874 L -1.05786 8.98293 L -1.41404 8.64005 L -1.76714 8.27849 L -2.11585 7.89644 L -2.11585 7.89644 L -2.60886 8.05296 L -3.09543 8.18953 L -3.57533 8.30837 L -4.04845 8.41144 L -4.51481 8.50042 L -5.10417 8.16015 L -5.26029 7.71178 L -5.4076 7.25051 L -5.54462 6.77549 L -5.66964 6.28581 L -5.7806 5.7806 L -5.7806 5.7806 L -6.28581 5.66964 L -6.77549 5.54462 L -7.25051 5.4076 L -7.71178 5.26029 L -8.16015 5.10417 L -8.50042 4.51481 L -8.41144 4.04845 L -8.30837 3.57533 L -8.18953 3.09543 L -8.05296 2.60886 L -7.89644 2.11585 L -7.89644 2.11585 L -8.27849 1.76714 L -8.64005 1.41404 L -8.98293 1.05786 L -9.30874 0.699657 L -9.61898 0.340268 L -9.61898 -0.340268 L -9.30874 -0.699657 L -8.98293 -1.05786 L -8.64005 -1.41404 L -8.27849 -1.76714 L -7.89644 -2.11585 L -7.89644 -2.11585 L -8.05296 -2.60886 L -8.18953 -3.09543 L -8.30837 -3.57533 L -8.41144 -4.04845 L -8.50042 -4.51481 L -8.16015 -5.10417 L -7.71178 -5.26029 L -7.25051 -5.4076 L -6.77549 -5.54462 L -6.28581 -5.66964 L -5.7806 -5.7806 L -5.7806 -5.7806 L -5.66964 -6.28581 L -5.54462 -6.77549 L -5.4076 -7.25051 L -5.26029 -7.71178 L -5.10417 -8.16015 L -4.51481 -8.50042 L -4.04845 -8.41144 L -3.57533 -8.30837 L -3.09543 -8.18953 L -2.60886 -8.05296 L -2.11585 -7.89644 L -2.11585 -7.89644 L -1.76714 -8.27849 L -1.41404 -8.64005 L -1.05786 -8.98293 L -0.699657 -9.30874 L -0.340268 -9.61898 L 0.340268 -9.61898 L 0.699657 -9.30874 L 1.05786 -8.98293 L 1.41404 -8.64005 L 1.76714 -8.27849 L 2.11585 -7.89644 L 2.11585 -7.89644 L 2.60886 -8.05296 L 3.09543 -8.18953 L 3.57533 -8.30837 L 4.04845 -8.41144 L 4.51481 -8.50042 L 5.10417 -8.16015 L 5.26029 -7.71178 L 5.4076 -7.25051 L 5.54462 -6.77549 L 5.66964 -6.28581 L 5.7806 -5.7806 L 5.7806 -5.7806 L 6.28581 -5.66964 L 6.77549 -5.54462 L 7.25051 -5.4076 L 7.71178 -5.26029 L 8.16015 -5.10417 L 8.50042 -4.51481 L 8.41144 -4.04845 L 8.30837 -3.57533 L 8.18953 -3.09543 L 8.05296 -2.60886 L 7.89644 -2.11585 L 7.89644 -2.11585 L 8.27849 -1.76714 L 8.64005 -1.41404 L 8.98293 -1.05786 L 9.30874 -0.699657 L 9.61898 -0.340268Z"
id="path1" />
</g>
</svg>
