<?xml version="1.0" encoding="UTF-8" standalone="no"?>
<svg version="1.1">
<g
style="fill:none;stroke:#000000;stroke-opacity:1;stroke-width:0.1">
<path d="M 27.8749 0.0821558 L 27.8747 0.13403 L 27.8744 0.185905 L 27.874 0.237778 L 27.8735 0.289651 L 27.8729 0.341522 L 27.8722 0.393393 L 27.8714 0.445262 L 27.8706 0.49713 L 27.8696 0.548995 L 27.8685 0.600859 L 27.8674 0.652721 L 27.8661 0.704581 L 27.8647 0.756438 L 27.8633 0.808293 L 27.8617 0.860144 L 27.8601 0.911993 L 27.8583 0.963839 L 27.8565 1.01568 L 27.8546 1.06752 L 27.8525 1.11935 L 27.8504 1.17119 L 27.8482 1.22301 L 27.8458 1.27484 L 27.8434 1.32665 L 27.8409 1.37847 L 27.8383 1.43028 L 27.8356 1.48208 L 27.8328 1.53388 L 27.8299 1.58567 L 27.8269 1.63746 L 27.8238 1.68925 L 27.8206 1.74102 L 27.7675 1.75883 L 27.7144 1.77664 L 27.6612 1.79445 L 27.6081 1.81226 L 27.5549 1.83006 L 27.5017 1.84787 L 27.4485 1.86567 L 27.3953 1.88348 L 27.3421 1.90128 L 27.2889 1.91908 L 27.2356 1.93688 L 27.1823 1.95468 L 27.129 1.97247 L 27.0757 1.99027 L 27.0224 2.00806 L 26.969 2.02586 L 26.9157 2.04365 L 26.8623 2.06144 L 26.8089 2.07923 L 26.7554 2.09702 L 26.702 2.1148 L 26.6486 2.13259 L 26.5951 2.15037 L 26.5416 2.16815 L 26.4881 2.18593 L 26.4346 2.20371 L 26.381 2.22149 L 26.3274 2.23927 L 26.2739 2.25704 L 26.2203 2.27481 L 26.1666 2.29258 L 26.113 2.31035 L 26.0593 2.32812 L 26.0057 2.34589 L 25.952 2.36365 L 25.8982 2.38141 L 25.8445 2.39917 L 25.7907 2.41693 L 25.737 2.43469 L 25.6832 2.45245 L 25.6832 2.45245 L 25.7326 2.48006 L 25.7821 2.50767 L 25.8315 2.53529 L 25.8809 2.5629 L 25.9303 2.5905 L 25.9797 2.61811 L 26.029 2.64571 L 26.0783 2.67331 L 26.1276 2.70091 L 26.1769 2.72851 L 26.2262 2.75611 L 26.2755 2.7837 L 26.3247 2.81129 L 26.3739 2.83888 L 26.4231 2.86647 L 26.4723 2.89406 L 26.5214 2.92164 L 26.5706 2.94922 L 26.6197 2.9768 L 26.6688 3.00438 L 26.7179 3.03196 L 26.767 3.05953 L 26.816 3.0871 L 26.865 3.11467 L 26.9141 3.14224 L 26.9631 3.16981 L 27.012 3.19737 L 27.061 3.22493 L 27.11 3.25249 L 27.1589 3.28005 L 27.2078 3.30761 L 27.2567 3.33516 L 27.3056 3.36271 L 27.3545 3.39026 L 27.4033 3.41781 L 27.4521 3.44536 L 27.501 3.4729 L 27.5498 3.50044 L 27.5985 3.52798 L 27.6473 3.55552 L 27.6406 3.60696 L 27.6339 3.6584 L 27.627 3.70982 L 27.6201 3.76122 L 27.613 3.81262 L 27.6059 3.864 L 27.5987 3.91537 L 27.5913 3.96672 L 27.5839 4.01806 L 27.5764 4.06939 L 27.5687 4.1207 L 27.561 4.172 L 27.5532 4.22328 L 27.5453 4.27455 L 27.5373 4.3258 L 27.5292 4.37704 L 27.521 4.42827 L 27.5127 4.47947 L 27.5043 4.53067 L 27.4959 4.58184 L 27.4873 4.63301 L 27.4786 4.68415 L 27.4699 4.73528 L 27.461 4.78639 L 27.452 4.83749 L 27.443 4.88857 L 27.4338 4.93963 L 27.4246 4.99068 L 27.4153 5.04171 L 27.4058 5.09272 L 27.3963 5.14371 L 27.3867 5.19468 L 27.3556 5.35603 L 27.3456 5.40693 L 27.3355 5.45781 L 27.3253 5.50867 L 27.315 5.55951 L 27.3046 5.61033 L 27.2941 5.66114 L 27.2835 5.71192 L 27.2728 5.76269 L 27.2621 5.81343 L 27.2512 5.86415 L 27.2402 5.91486 L 27.2292 5.96554 L 27.218 6.0162 L 27.2068 6.06685 L 27.1954 6.11747 L 27.184 6.16807 L 27.1725 6.21864 L 27.1609 6.2692 L 27.1492 6.31974 L 27.1373 6.37025 L 27.1254 6.42074 L 27.1134 6.47121 L 27.1014 6.52166 L 27.0892 6.57208 L 27.0769 6.62248 L 27.0645 6.67286 L 27.0521 6.72322 L 27.0395 6.77355 L 27.0269 6.82386 L 27.0141 6.87414 L 27.0013 6.9244 L 26.9883 6.97464 L 26.9328 6.98208 L 26.8773 6.98951 L 26.8218 6.99694 L 26.7662 7.00437 L 26.7106 7.01179 L 26.655 7.01921 L 26.5994 7.02663 L 26.5438 7.03404 L 26.4882 7.04145 L 26.4325 7.04885 L 26.3769 7.05624 L 26.3212 7.06364 L 26.2655 7.07103 L 26.2097 7.07841 L 26.154 7.08579 L 26.0983 7.09317 L 26.0425 7.10054 L 25.9867 7.1079 L 25.9309 7.11526 L 25.8751 7.12262 L 25.8192 7.12997 L 25.7634 7.13732 L 25.7075 7.14466 L 25.6516 7.152 L 25.5957 7.15933 L 25.5398 7.16666 L 25.4838 7.17398 L 25.4279 7.1813 L 25.3719 7.18861 L 25.3159 7.19592 L 25.2599 7.20322 L 25.2039 7.21052 L 25.1478 7.21781 L 25.0917 7.2251 L 25.0356 7.23238 L 24.9795 7.23965 L 24.9234 7.24692 L 24.8673 7.25419 L 24.8111 7.26145 L 24.7549 7.2687 L 24.7549 7.2687 L 24.7983 7.30518 L 24.8416 7.34165 L 24.8849 7.37812 L 24.9282 7.41458 L 24.9714 7.45103 L 25.0147 7.48748 L 25.0579 7.52392 L 25.1011 7.56036 L 25.1443 7.59679 L 25.1875 7.63322 L 25.2307 7.66964 L 25.2738 7.70606 L 25.3169 7.74247 L 25.36 7.77888 L 25.4031 7.81528 L 25.4462 7.85167 L 25.4892 7.88806 L 25.5323 7.92444 L 25.5753 7.96082 L 25.6183 7.99719 L 25.6613 8.03356 L 25.7042 8.06992 L 25.7472 8.10628 L 25.7901 8.14263 L 25.833 8.17898 L 25.8759 8.21532 L 25.9188 8.25166 L 25.9617 8.28799 L 26.0045 8.32431 L 26.0473 8.36063 L 26.0902 8.39695 L 26.133 8.43326 L 26.1757 8.46956 L 26.2185 8.50586 L 26.2613 8.54216 L 26.304 8.57845 L 26.3467 8.61473 L 26.3894 8.65101 L 26.4321 8.68729 L 26.4748 8.72355 L 26.4585 8.77281 L 26.4422 8.82203 L 26.4257 8.87123 L 26.4091 8.92039 L 26.3925 8.96952 L 26.3757 9.01862 L 26.3589 9.06769 L 26.342 9.11673 L 26.325 9.16573 L 26.3079 9.21471 L 26.2907 9.26365 L 26.2734 9.31256 L 26.256 9.36144 L 26.2386 9.41029 L 26.221 9.4591 L 26.2034 9.50788 L 26.1856 9.55663 L 26.1678 9.60534 L 26.1499 9.65402 L 26.1319 9.70267 L 26.1138 9.75128 L 26.0956 9.79987 L 26.0773 9.84841 L 26.0589 9.89692 L 26.0404 9.9454 L 26.0219 9.99385 L 26.0032 10.0423 L 25.9845 10.0906 L 25.9657 10.139 L 25.9468 10.1873 L 25.9278 10.2355 L 25.9087 10.2838 L 25.8476 10.4363 L 25.8281 10.4844 L 25.8086 10.5324 L 25.7889 10.5805 L 25.7692 10.6284 L 25.7494 10.6764 L 25.7295 10.7243 L 25.7095 10.7721 L 25.6894 10.82 L 25.6692 10.8678 L 25.6489 10.9155 L 25.6286 10.9632 L 25.6081 11.0109 L 25.5876 11.0585 L 25.567 11.1061 L 25.5462 11.1537 L 25.5254 11.2012 L 25.5046 11.2487 L 25.4836 11.2961 L 25.4625 11.3435 L 25.4414 11.3909 L 25.4201 11.4382 L 25.3988 11.4855 L 25.3774 11.5328 L 25.3559 11.58 L 25.3343 11.6271 L 25.3126 11.6743 L 25.2908 11.7214 L 25.269 11.7684 L 25.247 11.8154 L 25.225 11.8624 L 25.2029 11.9093 L 25.1807 11.9562 L 25.1247 11.953 L 25.0688 11.9498 L 25.0129 11.9466 L 24.9569 11.9433 L 24.9009 11.9401 L 24.8449 11.9369 L 24.7889 11.9336 L 24.7329 11.9304 L 24.6769 11.9271 L 24.6208 11.9239 L 24.5648 11.9206 L 24.5087 11.9173 L 24.4526 11.914 L 24.3965 11.9107 L 24.3404 11.9074 L 24.2842 11.9041 L 24.2281 11.9008 L 24.1719 11.8975 L 24.1157 11.8941 L 24.0595 11.8908 L 24.0033 11.8874 L 23.9471 11.8841 L 23.8908 11.8807 L 23.8345 11.8774 L 23.7783 11.874 L 23.722 11.8706 L 23.6656 11.8672 L 23.6093 11.8638 L 23.553 11.8604 L 23.4966 11.8569 L 23.4402 11.8535 L 23.3838 11.8501 L 23.3274 11.8466 L 23.2709 11.8432 L 23.2145 11.8397 L 23.158 11.8362 L 23.1015 11.8327 L 23.045 11.8293 L 22.9885 11.8258 L 22.932 11.8222 L 22.932 11.8222 L 22.9676 11.8663 L 23.0033 11.9103 L 23.0389 11.9543 L 23.0745 11.9983 L 23.1101 12.0423 L 23.1456 12.0862 L 23.1812 12.1302 L 23.2167 12.1742 L 23.2522 12.2181 L 23.2877 12.262 L 23.3232 12.306 L 23.3587 12.3499 L 23.3941 12.3938 L 23.4296 12.4377 L 23.465 12.4816 L 23.5004 12.5255 L 23.5358 12.5694 L 23.5712 12.6133 L 23.6065 12.6571 L 23.6418 12.701 L 23.6772 12.7448 L 23.7125 12.7886 L 23.7478 12.8325 L 23.783 12.8763 L 23.8183 12.9201 L 23.8535 12.9639 L 23.8888 13.0077 L 23.924 13.0515 L 23.9592 13.0953 L 23.9944 13.139 L 24.0295 13.1828 L 24.0647 13.2266 L 24.0998 13.2703 L 24.135 13.314 L 24.1701 13.3578 L 24.2052 13.4015 L 24.2403 13.4452 L 24.2753 13.4889 L 24.3104 13.5326 L 24.3454 13.5763 L 24.3201 13.6216 L 24.2947 13.6668 L 24.2693 13.712 L 24.2437 13.7571 L 24.218 13.8022 L 24.1923 13.8473 L 24.1665 13.8923 L 24.1406 13.9372 L 24.1146 13.9821 L 24.0886 14.027 L 24.0624 14.0718 L 24.0362 14.1165 L 24.0099 14.1613 L 23.9835 14.2059 L 23.957 14.2505 L 23.9304 14.2951 L 23.9038 14.3396 L 23.8771 14.384 L 23.8503 14.4285 L 23.8234 14.4728 L 23.7964 14.5171 L 23.7693 14.5614 L 23.7422 14.6056 L 23.715 14.6498 L 23.6877 14.6939 L 23.6603 14.7379 L 23.6328 14.7819 L 23.6053 14.8259 L 23.5776 14.8698 L 23.5499 14.9136 L 23.5221 14.9574 L 23.4943 15.0012 L 23.4054 15.1394 L 23.3772 15.1829 L 23.3489 15.2264 L 23.3205 15.2698 L 23.2921 15.3132 L 23.2635 15.3565 L 23.2349 15.3998 L 23.2062 15.443 L 23.1774 15.4862 L 23.1486 15.5293 L 23.1196 15.5723 L 23.0906 15.6153 L 23.0615 15.6583 L 23.0323 15.7012 L 23.0031 15.744 L 22.9737 15.7868 L 22.9443 15.8295 L 22.9148 15.8722 L 22.8853 15.9148 L 22.8556 15.9574 L 22.8259 15.9999 L 22.796 16.0423 L 22.7661 16.0847 L 22.7362 16.1271 L 22.7061 16.1693 L 22.676 16.2116 L 22.6458 16.2537 L 22.6155 16.2959 L 22.5851 16.3379 L 22.5547 16.3799 L 22.5242 16.4219 L 22.4936 16.4637 L 22.4629 16.5056 L 22.4086 16.4919 L 22.3543 16.4781 L 22.3 16.4644 L 22.2456 16.4506 L 22.1913 16.4369 L 22.1369 16.4231 L 22.0825 16.4093 L 22.0281 16.3955 L 21.9737 16.3817 L 21.9193 16.3679 L 21.8649 16.3541 L 21.8104 16.3402 L 21.756 16.3264 L 21.7015 16.3125 L 21.647 16.2987 L 21.5925 16.2848 L 21.538 16.2709 L 21.4835 16.257 L 21.4289 16.2431 L 21.3744 16.2292 L 21.3198 16.2153 L 21.2652 16.2013 L 21.2106 16.1874 L 21.156 16.1734 L 21.1014 16.1595 L 21.0467 16.1455 L 20.9921 16.1315 L 20.9374 16.1175 L 20.8827 16.1035 L 20.828 16.0894 L 20.7733 16.0754 L 20.7186 16.0613 L 20.6638 16.0473 L 20.6091 16.0332 L 20.5543 16.0191 L 20.4995 16.005 L 20.4447 15.9909 L 20.3899 15.9768 L 20.335 15.9626 L 20.2802 15.9485 L 20.2802 15.9485 L 20.3069 15.9985 L 20.3335 16.0484 L 20.3602 16.0984 L 20.3868 16.1483 L 20.4134 16.1982 L 20.44 16.2482 L 20.4666 16.2981 L 20.4932 16.3479 L 20.5197 16.3978 L 20.5463 16.4477 L 20.5728 16.4975 L 20.5993 16.5474 L 20.6258 16.5972 L 20.6523 16.647 L 20.6788 16.6968 L 20.7052 16.7466 L 20.7317 16.7964 L 20.7581 16.8462 L 20.7845 16.8959 L 20.8109 16.9457 L 20.8373 16.9954 L 20.8637 17.0452 L 20.8901 17.0949 L 20.9164 17.1446 L 20.9427 17.1943 L 20.969 17.2439 L 20.9954 17.2936 L 21.0216 17.3433 L 21.0479 17.3929 L 21.0742 17.4426 L 21.1004 17.4922 L 21.1267 17.5418 L 21.1529 17.5914 L 21.1791 17.641 L 21.2053 17.6906 L 21.2315 17.7402 L 21.2577 17.7897 L 21.2839 17.8393 L 21.31 17.8888 L 21.3361 17.9384 L 21.3027 17.978 L 21.2692 18.0176 L 21.2357 18.0572 L 21.202 18.0967 L 21.1683 18.1361 L 21.1345 18.1755 L 21.1007 18.2148 L 21.0667 18.254 L 21.0327 18.2932 L 20.9986 18.3323 L 20.9645 18.3713 L 20.9303 18.4103 L 20.896 18.4492 L 20.8616 18.4881 L 20.8271 18.5269 L 20.7926 18.5656 L 20.758 18.6043 L 20.7234 18.6429 L 20.6887 18.6814 L 20.6539 18.7199 L 20.619 18.7583 L 20.584 18.7966 L 20.549 18.8349 L 20.5139 18.8731 L 20.4788 18.9112 L 20.4435 18.9493 L 20.4082 18.9873 L 20.3729 19.0253 L 20.3374 19.0632 L 20.3019 19.101 L 20.2663 19.1387 L 20.2307 19.1764 L 20.1173 19.2953 L 20.0814 19.3327 L 20.0453 19.3701 L 20.0093 19.4073 L 19.9731 19.4445 L 19.9369 19.4817 L 19.9006 19.5187 L 19.8642 19.5557 L 19.8278 19.5927 L 19.7913 19.6295 L 19.7548 19.6663 L 19.7181 19.7031 L 19.6814 19.7397 L 19.6447 19.7763 L 19.6078 19.8129 L 19.5709 19.8493 L 19.5339 19.8857 L 19.4969 19.922 L 19.4598 19.9583 L 19.4226 19.9944 L 19.3854 20.0306 L 19.3481 20.0666 L 19.3107 20.1026 L 19.2732 20.1385 L 19.2357 20.1743 L 19.1982 20.2101 L 19.1605 20.2458 L 19.1228 20.2814 L 19.085 20.3169 L 19.0472 20.3524 L 19.0093 20.3878 L 18.9713 20.4232 L 18.9333 20.4584 L 18.8825 20.4347 L 18.8318 20.4109 L 18.7811 20.3871 L 18.7303 20.3634 L 18.6795 20.3396 L 18.6288 20.3157 L 18.578 20.2919 L 18.5272 20.2681 L 18.4764 20.2442 L 18.4256 20.2204 L 18.3747 20.1965 L 18.3239 20.1726 L 18.273 20.1487 L 18.2222 20.1248 L 18.1713 20.1009 L 18.1204 20.0769 L 18.0695 20.053 L 18.0186 20.029 L 17.9677 20.005 L 17.9167 19.9811 L 17.8658 19.9571 L 17.8148 19.933 L 17.7638 19.909 L 17.7129 19.885 L 17.6619 19.8609 L 17.6109 19.8368 L 17.5598 19.8127 L 17.5088 19.7886 L 17.4577 19.7645 L 17.4067 19.7404 L 17.3556 19.7163 L 17.3045 19.6921 L 17.2534 19.6679 L 17.2023 19.6438 L 17.1512 19.6196 L 17.1001 19.5953 L 17.0489 19.5711 L 16.9978 19.5469 L 16.9466 19.5226 L 16.8954 19.4983 L 16.8954 19.4983 L 16.9121 19.5525 L 16.9289 19.6066 L 16.9456 19.6607 L 16.9623 19.7147 L 16.979 19.7688 L 16.9957 19.8228 L 17.0123 19.8769 L 17.029 19.9309 L 17.0456 19.9849 L 17.0622 20.0389 L 17.0789 20.0928 L 17.0955 20.1468 L 17.1121 20.2007 L 17.1286 20.2547 L 17.1452 20.3086 L 17.1618 20.3625 L 17.1783 20.4164 L 17.1948 20.4703 L 17.2114 20.5241 L 17.2279 20.578 L 17.2444 20.6318 L 17.2608 20.6856 L 17.2773 20.7394 L 17.2938 20.7932 L 17.3102 20.847 L 17.3267 20.9007 L 17.3431 20.9545 L 17.3595 21.0082 L 17.3759 21.062 L 17.3923 21.1157 L 17.4087 21.1694 L 17.4251 21.2231 L 17.4414 21.2767 L 17.4578 21.3304 L 17.4741 21.384 L 17.4905 21.4377 L 17.5068 21.4913 L 17.5231 21.5449 L 17.5394 21.5985 L 17.5557 21.6521 L 17.5154 21.6847 L 17.475 21.7173 L 17.4346 21.7498 L 17.3941 21.7822 L 17.3535 21.8145 L 17.3129 21.8468 L 17.2722 21.8789 L 17.2314 21.911 L 17.1906 21.9431 L 17.1498 21.975 L 17.1088 22.0069 L 17.0678 22.0387 L 17.0268 22.0704 L 16.9857 22.1021 L 16.9445 22.1336 L 16.9033 22.1651 L 16.862 22.1966 L 16.8207 22.2279 L 16.7793 22.2592 L 16.7379 22.2904 L 16.6963 22.3215 L 16.6548 22.3525 L 16.6131 22.3835 L 16.5715 22.4143 L 16.5297 22.4451 L 16.4879 22.4759 L 16.4461 22.5065 L 16.4042 22.5371 L 16.3622 22.5676 L 16.3202 22.598 L 16.2781 22.6283 L 16.2359 22.6586 L 16.1021 22.7539 L 16.0597 22.7838 L 16.0173 22.8136 L 15.9748 22.8434 L 15.9323 22.8731 L 15.8897 22.9027 L 15.847 22.9322 L 15.8043 22.9617 L 15.7616 22.9911 L 15.7188 23.0203 L 15.6759 23.0496 L 15.633 23.0787 L 15.59 23.1077 L 15.547 23.1367 L 15.5039 23.1656 L 15.4607 23.1944 L 15.4175 23.2232 L 15.3743 23.2518 L 15.331 23.2804 L 15.2876 23.3089 L 15.2442 23.3373 L 15.2008 23.3656 L 15.1573 23.3939 L 15.1137 23.422 L 15.0701 23.4501 L 15.0264 23.4781 L 14.9827 23.506 L 14.9389 23.5339 L 14.8951 23.5616 L 14.8513 23.5893 L 14.8073 23.6169 L 14.7634 23.6444 L 14.7193 23.6719 L 14.674 23.6389 L 14.6287 23.606 L 14.5834 23.5731 L 14.538 23.5401 L 14.4927 23.5071 L 14.4473 23.4741 L 14.402 23.4411 L 14.3566 23.4081 L 14.3112 23.3751 L 14.2659 23.342 L 14.2205 23.309 L 14.1751 23.2759 L 14.1296 23.2428 L 14.0842 23.2097 L 14.0388 23.1766 L 13.9934 23.1434 L 13.9479 23.1103 L 13.9024 23.0771 L 13.857 23.0439 L 13.8115 23.0107 L 13.766 22.9775 L 13.7205 22.9443 L 13.675 22.9111 L 13.6295 22.8778 L 13.584 22.8445 L 13.5385 22.8112 L 13.4929 22.7779 L 13.4474 22.7446 L 13.4018 22.7113 L 13.3562 22.6779 L 13.3107 22.6445 L 13.2651 22.6112 L 13.2195 22.5778 L 13.1739 22.5443 L 13.1282 22.5109 L 13.0826 22.4774 L 13.037 22.444 L 12.9913 22.4105 L 12.9457 22.377 L 12.9 22.3435 L 12.9 22.3435 L 12.9062 22.3998 L 12.9124 22.4561 L 12.9186 22.5123 L 12.9247 22.5686 L 12.9309 22.6248 L 12.937 22.6811 L 12.9432 22.7373 L 12.9493 22.7935 L 12.9554 22.8496 L 12.9615 22.9058 L 12.9676 22.9619 L 12.9737 23.0181 L 12.9798 23.0742 L 12.9859 23.1303 L 12.9919 23.1863 L 12.998 23.2424 L 13.004 23.2984 L 13.0101 23.3545 L 13.0161 23.4105 L 13.0221 23.4665 L 13.0281 23.5225 L 13.0341 23.5784 L 13.0401 23.6344 L 13.0461 23.6903 L 13.0521 23.7462 L 13.0581 23.8021 L 13.064 23.858 L 13.07 23.9139 L 13.0759 23.9698 L 13.0819 24.0256 L 13.0878 24.0814 L 13.0937 24.1372 L 13.0996 24.193 L 13.1055 24.2488 L 13.1114 24.3046 L 13.1173 24.3604 L 13.1232 24.4161 L 13.1291 24.4718 L 13.1349 24.5275 L 13.1408 24.5832 L 13.095 24.6077 L 13.0492 24.632 L 13.0033 24.6562 L 12.9574 24.6804 L 12.9115 24.7044 L 12.8655 24.7284 L 12.8194 24.7523 L 12.7733 24.7761 L 12.7272 24.7999 L 12.681 24.8235 L 12.6348 24.8471 L 12.5886 24.8705 L 12.5422 24.8939 L 12.4959 24.9172 L 12.4495 24.9404 L 12.4031 24.9636 L 12.3566 24.9866 L 12.3101 25.0096 L 12.2635 25.0324 L 12.2169 25.0552 L 12.1703 25.0779 L 12.1236 25.1005 L 12.0768 25.123 L 12.0301 25.1454 L 11.9832 25.1678 L 11.9364 25.19 L 11.8895 25.2122 L 11.8425 25.2343 L 11.7956 25.2563 L 11.7485 25.2782 L 11.7015 25.3 L 11.6544 25.3218 L 11.5049 25.39 L 11.4576 25.4114 L 11.4103 25.4327 L 11.363 25.4538 L 11.3156 25.4749 L 11.2682 25.496 L 11.2207 25.5169 L 11.1732 25.5377 L 11.1256 25.5585 L 11.0781 25.5791 L 11.0304 25.5997 L 10.9828 25.6202 L 10.9351 25.6406 L 10.8873 25.6609 L 10.8396 25.6811 L 10.7918 25.7012 L 10.7439 25.7213 L 10.696 25.7412 L 10.6481 25.7611 L 10.6001 25.7809 L 10.5522 25.8005 L 10.5041 25.8201 L 10.4561 25.8396 L 10.4079 25.859 L 10.3598 25.8784 L 10.3116 25.8976 L 10.2634 25.9168 L 10.2152 25.9358 L 10.1669 25.9548 L 10.1186 25.9736 L 10.0702 25.9924 L 10.0218 26.0111 L 9.9734 26.0297 L 9.93514 25.9888 L 9.89687 25.9479 L 9.8586 25.907 L 9.82033 25.866 L 9.78204 25.8251 L 9.74376 25.7841 L 9.70546 25.7431 L 9.66716 25.7021 L 9.62886 25.6611 L 9.59054 25.62 L 9.55223 25.579 L 9.5139 25.5379 L 9.47558 25.4968 L 9.43724 25.4557 L 9.3989 25.4146 L 9.36055 25.3735 L 9.3222 25.3323 L 9.28384 25.2911 L 9.24547 25.2499 L 9.2071 25.2087 L 9.16872 25.1675 L 9.13034 25.1263 L 9.09195 25.085 L 9.05355 25.0438 L 9.01515 25.0025 L 8.97674 24.9612 L 8.93833 24.9198 L 8.89991 24.8785 L 8.86148 24.8372 L 8.82305 24.7958 L 8.78461 24.7544 L 8.74616 24.713 L 8.70771 24.6715 L 8.66925 24.6301 L 8.63078 24.5886 L 8.59231 24.5471 L 8.55383 24.5056 L 8.51534 24.4641 L 8.47685 24.4226 L 8.43835 24.381 L 8.43835 24.381 L 8.43378 24.4375 L 8.4292 24.4939 L 8.42462 24.5504 L 8.42003 24.6068 L 8.41543 24.6632 L 8.41083 24.7195 L 8.40622 24.7759 L 8.4016 24.8322 L 8.39698 24.8885 L 8.39235 24.9448 L 8.38771 25.0011 L 8.38307 25.0574 L 8.37843 25.1136 L 8.37377 25.1699 L 8.36912 25.2261 L 8.36445 25.2823 L 8.35978 25.3384 L 8.35511 25.3946 L 8.35043 25.4507 L 8.34574 25.5069 L 8.34105 25.563 L 8.33635 25.6191 L 8.33165 25.6751 L 8.32694 25.7312 L 8.32222 25.7872 L 8.3175 25.8433 L 8.31278 25.8993 L 8.30805 25.9553 L 8.30331 26.0112 L 8.29857 26.0672 L 8.29383 26.1231 L 8.28908 26.1791 L 8.28432 26.235 L 8.27956 26.2909 L 8.2748 26.3467 L 8.27003 26.4026 L 8.26525 26.4584 L 8.26047 26.5143 L 8.25568 26.5701 L 8.25089 26.6259 L 8.20133 26.6412 L 8.15174 26.6564 L 8.10212 26.6715 L 8.05247 26.6866 L 8.00279 26.7015 L 7.95308 26.7164 L 7.90335 26.7311 L 7.85359 26.7458 L 7.8038 26.7603 L 7.75399 26.7748 L 7.70415 26.7892 L 7.65428 26.8035 L 7.60439 26.8177 L 7.55447 26.8318 L 7.50452 26.8458 L 7.45455 26.8597 L 7.40455 26.8736 L 7.35452 26.8873 L 7.30448 26.9009 L 7.2544 26.9145 L 7.2043 26.9279 L 7.15418 26.9413 L 7.10403 26.9546 L 7.05385 26.9677 L 7.00365 26.9808 L 6.95343 26.9938 L 6.90318 27.0067 L 6.85291 27.0195 L 6.80262 27.0322 L 6.7523 27.0448 L 6.70196 27.0573 L 6.65159 27.0698 L 6.49191 27.1085 L 6.44145 27.1205 L 6.39097 27.1325 L 6.34047 27.1443 L 6.28994 27.1561 L 6.23939 27.1677 L 6.18882 27.1793 L 6.13823 27.1908 L 6.08762 27.2021 L 6.03699 27.2134 L 5.98633 27.2246 L 5.93566 27.2357 L 5.88496 27.2467 L 5.83424 27.2576 L 5.78351 27.2684 L 5.73275 27.2791 L 5.68198 27.2898 L 5.63118 27.3003 L 5.58037 27.3107 L 5.52953 27.3211 L 5.47868 27.3313 L 5.4278 27.3414 L 5.37691 27.3515 L 5.326 27.3615 L 5.27507 27.3713 L 5.22413 27.3811 L 5.17316 27.3908 L 5.12218 27.4003 L 5.07118 27.4098 L 5.02016 27.4192 L 4.96913 27.4285 L 4.91807 27.4377 L 4.867 27.4468 L 4.83718 27.3994 L 4.80735 27.352 L 4.77752 27.3046 L 4.74768 27.2571 L 4.71784 27.2096 L 4.688 27.1622 L 4.65816 27.1147 L 4.62831 27.0671 L 4.59846 27.0196 L 4.56861 26.9721 L 4.53875 26.9245 L 4.5089 26.8769 L 4.47904 26.8293 L 4.44917 26.7817 L 4.41931 26.7341 L 4.38944 26.6864 L 4.35956 26.6387 L 4.32969 26.5911 L 4.29981 26.5434 L 4.26993 26.4956 L 4.24005 26.4479 L 4.21016 26.4002 L 4.18027 26.3524 L 4.15038 26.3046 L 4.12049 26.2568 L 4.09059 26.2089 L 4.06069 26.1611 L 4.03079 26.1132 L 4.00088 26.0654 L 3.97097 26.0175 L 3.94106 25.9695 L 3.91114 25.9216 L 3.88123 25.8736 L 3.85131 25.8257 L 3.82138 25.7777 L 3.79146 25.7297 L 3.76153 25.6816 L 3.7316 25.6336 L 3.70166 25.5855 L 3.67172 25.5374 L 3.67172 25.5374 L 3.65655 25.592 L 3.64137 25.6465 L 3.62619 25.7011 L 3.611 25.7556 L 3.59582 25.8101 L 3.58063 25.8646 L 3.56544 25.919 L 3.55024 25.9735 L 3.53505 26.0279 L 3.51985 26.0823 L 3.50464 26.1367 L 3.48944 26.1911 L 3.47423 26.2454 L 3.45902 26.2998 L 3.44381 26.3541 L 3.4286 26.4084 L 3.41338 26.4626 L 3.39816 26.5169 L 3.38294 26.5711 L 3.36772 26.6254 L 3.35249 26.6796 L 3.33726 26.7338 L 3.32203 26.7879 L 3.3068 26.8421 L 3.29156 26.8962 L 3.27633 26.9503 L 3.26109 27.0044 L 3.24585 27.0585 L 3.23061 27.1126 L 3.21536 27.1666 L 3.20011 27.2207 L 3.18486 27.2747 L 3.16961 27.3287 L 3.15436 27.3827 L 3.13911 27.4366 L 3.12385 27.4906 L 3.10859 27.5445 L 3.09333 27.5984 L 3.07807 27.6523 L 3.06281 27.7062 L 3.01124 27.7119 L 2.95966 27.7174 L 2.90808 27.7229 L 2.85648 27.7283 L 2.80487 27.7335 L 2.75326 27.7387 L 2.70163 27.7438 L 2.64999 27.7488 L 2.59835 27.7536 L 2.5467 27.7584 L 2.49503 27.7631 L 2.44336 27.7677 L 2.39168 27.7722 L 2.34 27.7766 L 2.2883 27.7809 L 2.2366 27.7851 L 2.18488 27.7892 L 2.13317 27.7933 L 2.08144 27.7972 L 2.0297 27.801 L 1.97796 27.8047 L 1.92622 27.8084 L 1.87446 27.8119 L 1.8227 27.8153 L 1.77093 27.8187 L 1.71916 27.8219 L 1.66738 27.8251 L 1.6156 27.8281 L 1.56381 27.8311 L 1.51201 27.834 L 1.46021 27.8367 L 1.4084 27.8394 L 1.24428 27.8472 L 1.19245 27.8495 L 1.14062 27.8517 L 1.08879 27.8537 L 1.03695 27.8557 L 0.985111 27.8576 L 0.933267 27.8594 L 0.881419 27.8611 L 0.829568 27.8627 L 0.777715 27.8641 L 0.725859 27.8655 L 0.674 27.8669 L 0.622139 27.8681 L 0.570276 27.8692 L 0.518411 27.8702 L 0.466544 27.8711 L 0.414676 27.8719 L 0.362806 27.8726 L 0.310935 27.8733 L 0.259062 27.8738 L 0.207189 27.8742 L 0.155315 27.8746 L 0.103441 27.8748 L 0.0515659 27.875 L -0.000309029 27.875 L -0.052184 27.875 L -0.104059 27.8748 L -0.155933 27.8746 L -0.207807 27.8742 L -0.25968 27.8738 L -0.311553 27.8733 L -0.363424 27.8726 L -0.415294 27.8719 L -0.43561 27.8197 L -0.455927 27.7675 L -0.476243 27.7153 L -0.496559 27.663 L -0.516875 27.6108 L -0.53719 27.5585 L -0.557505 27.5062 L -0.57782 27.4539 L -0.598134 27.4016 L -0.618448 27.3493 L -0.638762 27.2969 L -0.659075 27.2445 L -0.679388 27.1921 L -0.6997 27.1397 L -0.720012 27.0873 L -0.740324 27.0349 L -0.760635 26.9824 L -0.780945 26.9299 L -0.801255 26.8774 L -0.821565 26.8249 L -0.841874 26.7724 L -0.862182 26.7198 L -0.88249 26.6673 L -0.902797 26.6147 L -0.923103 26.5621 L -0.943409 26.5095 L -0.963715 26.4568 L -0.984019 26.4042 L -1.00432 26.3515 L -1.02463 26.2988 L -1.04493 26.2461 L -1.06523 26.1933 L -1.08553 26.1406 L -1.10583 26.0878 L -1.12613 26.035 L -1.14643 25.9822 L -1.16673 25.9294 L -1.18702 25.8765 L -1.20732 25.8237 L -1.22761 25.7708 L -1.22761 25.7708 L -1.25284 25.8215 L -1.27807 25.8722 L -1.3033 25.9229 L -1.32853 25.9735 L -1.35376 26.0242 L -1.37898 26.0748 L -1.40421 26.1254 L -1.42943 26.176 L -1.45465 26.2266 L -1.47987 26.2771 L -1.50509 26.3276 L -1.53031 26.3781 L -1.55553 26.4286 L -1.58075 26.4791 L -1.60596 26.5296 L -1.63118 26.58 L -1.65639 26.6304 L -1.6816 26.6808 L -1.70682 26.7312 L -1.73203 26.7816 L -1.75724 26.8319 L -1.78244 26.8822 L -1.80765 26.9325 L -1.83286 26.9828 L -1.85806 27.0331 L -1.88326 27.0834 L -1.90847 27.1336 L -1.93367 27.1838 L -1.95887 27.234 L -1.98406 27.2842 L -2.00926 27.3344 L -2.03446 27.3845 L -2.05965 27.4347 L -2.08485 27.4848 L -2.11004 27.5349 L -2.13523 27.585 L -2.16042 27.6351 L -2.18561 27.6851 L -2.21079 27.7352 L -2.23598 27.7852 L -2.28768 27.781 L -2.33938 27.7767 L -2.39107 27.7723 L -2.44275 27.7678 L -2.49442 27.7632 L -2.54608 27.7585 L -2.59773 27.7537 L -2.64938 27.7488 L -2.70102 27.7438 L -2.75264 27.7388 L -2.80426 27.7336 L -2.85586 27.7283 L -2.90746 27.723 L -2.95905 27.7175 L -3.01063 27.7119 L -3.06219 27.7063 L -3.11375 27.7005 L -3.16529 27.6947 L -3.21683 27.6888 L -3.26835 27.6827 L -3.31986 27.6766 L -3.37136 27.6704 L -3.42285 27.6641 L -3.47433 27.6576 L -3.52579 27.6511 L -3.57724 27.6445 L -3.62868 27.6378 L -3.68011 27.631 L -3.73152 27.6241 L -3.78293 27.6171 L -3.83431 27.61 L -3.88569 27.6028 L -4.04833 27.5795 L -4.09965 27.5719 L -4.15095 27.5642 L -4.20224 27.5564 L -4.25351 27.5486 L -4.30477 27.5406 L -4.35602 27.5325 L -4.40725 27.5244 L -4.45846 27.5161 L -4.50966 27.5078 L -4.56085 27.4994 L -4.61202 27.4908 L -4.66317 27.4822 L -4.7143 27.4735 L -4.76542 27.4646 L -4.81653 27.4557 L -4.86761 27.4467 L -4.91868 27.4376 L -4.96973 27.4284 L -5.02077 27.4191 L -5.07179 27.4097 L -5.12279 27.4002 L -5.17377 27.3907 L -5.22474 27.381 L -5.27568 27.3712 L -5.32661 27.3613 L -5.37752 27.3514 L -5.42841 27.3413 L -5.47928 27.3312 L -5.53014 27.3209 L -5.58097 27.3106 L -5.63179 27.3002 L -5.68258 27.2896 L -5.69265 27.2345 L -5.70272 27.1794 L -5.71279 27.1243 L -5.72285 27.0692 L -5.73291 27.014 L -5.74297 26.9588 L -5.75302 26.9036 L -5.76307 26.8484 L -5.77311 26.7932 L -5.78315 26.738 L -5.79319 26.6827 L -5.80323 26.6275 L -5.81326 26.5722 L -5.82328 26.5169 L -5.83331 26.4615 L -5.84333 26.4062 L -5.85334 26.3508 L -5.86336 26.2955 L -5.87336 26.2401 L -5.88337 26.1847 L -5.89337 26.1293 L -5.90336 26.0738 L -5.91336 26.0184 L -5.92335 25.9629 L -5.93333 25.9074 L -5.94331 25.8519 L -5.95329 25.7963 L -5.96326 25.7408 L -5.97323 25.6852 L -5.98319 25.6296 L -5.99315 25.574 L -6.0031 25.5184 L -6.01305 25.4628 L -6.023 25.4071 L -6.03294 25.3514 L -6.04288 25.2957 L -6.05281 25.24 L -6.06274 25.1843 L -6.07266 25.1285 L -6.08258 25.0727 L -6.08258 25.0727 L -6.11695 25.1178 L -6.15132 25.1628 L -6.18569 25.2078 L -6.22005 25.2527 L -6.2544 25.2977 L -6.28875 25.3426 L -6.3231 25.3875 L -6.35744 25.4324 L -6.39177 25.4773 L -6.42611 25.5222 L -6.46043 25.567 L -6.49476 25.6118 L -6.52907 25.6567 L -6.56339 25.7014 L -6.59769 25.7462 L -6.632 25.791 L -6.6663 25.8357 L -6.70059 25.8804 L -6.73488 25.9251 L -6.76917 25.9698 L -6.80345 26.0144 L -6.83773 26.0591 L -6.872 26.1037 L -6.90627 26.1483 L -6.94053 26.1929 L -6.97479 26.2375 L -7.00904 26.2821 L -7.04329 26.3266 L -7.07754 26.3711 L -7.11178 26.4157 L -7.14602 26.4602 L -7.18025 26.5046 L -7.21448 26.5491 L -7.2487 26.5935 L -7.28292 26.638 L -7.31713 26.6824 L -7.35135 26.7268 L -7.38555 26.7712 L -7.41975 26.8155 L -7.45395 26.8599 L -7.50393 26.846 L -7.55387 26.832 L -7.60379 26.8179 L -7.65369 26.8037 L -7.70356 26.7894 L -7.7534 26.775 L -7.80321 26.7605 L -7.853 26.746 L -7.90276 26.7313 L -7.95249 26.7165 L -8.0022 26.7017 L -8.05187 26.6868 L -8.10152 26.6717 L -8.15115 26.6566 L -8.20074 26.6414 L -8.2503 26.6261 L -8.29984 26.6107 L -8.34935 26.5952 L -8.39883 26.5796 L -8.44828 26.5639 L -8.4977 26.5482 L -8.54709 26.5323 L -8.59645 26.5163 L -8.64578 26.5003 L -8.69508 26.4842 L -8.74435 26.4679 L -8.7936 26.4516 L -8.84281 26.4352 L -8.89199 26.4187 L -8.94114 26.4021 L -8.99026 26.3854 L -9.03934 26.3687 L -9.19462 26.3149 L -9.24357 26.2978 L -9.2925 26.2805 L -9.34139 26.2632 L -9.39025 26.2457 L -9.43907 26.2282 L -9.48787 26.2106 L -9.53663 26.1929 L -9.58536 26.1751 L -9.63405 26.1572 L -9.68271 26.1393 L -9.73134 26.1212 L -9.77994 26.103 L -9.8285 26.0848 L -9.87702 26.0665 L -9.92552 26.048 L -9.97397 26.0295 L -10.0224 26.0109 L -10.0708 25.9922 L -10.1191 25.9734 L -10.1675 25.9545 L -10.2157 25.9356 L -10.264 25.9165 L -10.3122 25.8974 L -10.3604 25.8781 L -10.4085 25.8588 L -10.4566 25.8394 L -10.5047 25.8199 L -10.5527 25.8003 L -10.6007 25.7806 L -10.6487 25.7608 L -10.6966 25.741 L -10.7445 25.721 L -10.744 25.665 L -10.7434 25.609 L -10.7429 25.553 L -10.7423 25.4969 L -10.7417 25.4409 L -10.7412 25.3848 L -10.7406 25.3287 L -10.74 25.2726 L -10.7394 25.2165 L -10.7388 25.1603 L -10.7382 25.1042 L -10.7376 25.048 L -10.737 24.9918 L -10.7364 24.9356 L -10.7358 24.8794 L -10.7351 24.8232 L -10.7345 24.7669 L -10.7338 24.7106 L -10.7332 24.6544 L -10.7325 24.5981 L -10.7319 24.5417 L -10.7312 24.4854 L -10.7305 24.4291 L -10.7298 24.3727 L -10.7291 24.3163 L -10.7284 24.2599 L -10.7277 24.2035 L -10.727 24.1471 L -10.7262 24.0906 L -10.7255 24.0341 L -10.7248 23.9777 L -10.724 23.9212 L -10.7233 23.8646 L -10.7225 23.8081 L -10.7217 23.7515 L -10.7209 23.695 L -10.7201 23.6384 L -10.7193 23.5818 L -10.7185 23.5252 L -10.7177 23.4685 L -10.7177 23.4685 L -10.76 23.5062 L -10.8022 23.5439 L -10.8445 23.5816 L -10.8868 23.6192 L -10.929 23.6569 L -10.9712 23.6945 L -11.0135 23.7321 L -11.0557 23.7697 L -11.0979 23.8073 L -11.1401 23.8448 L -11.1823 23.8823 L -11.2245 23.9199 L -11.2666 23.9574 L -11.3088 23.9949 L -11.351 24.0323 L -11.3931 24.0698 L -11.4353 24.1072 L -11.4774 24.1446 L -11.5195 24.182 L -11.5617 24.2194 L -11.6038 24.2568 L -11.6459 24.2941 L -11.688 24.3315 L -11.7301 24.3688 L -11.7722 24.4061 L -11.8142 24.4434 L -11.8563 24.4807 L -11.8984 24.5179 L -11.9404 24.5552 L -11.9825 24.5924 L -12.0245 24.6296 L -12.0665 24.6668 L -12.1086 24.704 L -12.1506 24.7411 L -12.1926 24.7783 L -12.2346 24.8154 L -12.2766 24.8526 L -12.3186 24.8897 L -12.3605 24.9268 L -12.4025 24.9638 L -12.449 24.9407 L -12.4953 24.9175 L -12.5417 24.8942 L -12.588 24.8708 L -12.6343 24.8474 L -12.6805 24.8238 L -12.7267 24.8002 L -12.7728 24.7764 L -12.8189 24.7526 L -12.8649 24.7287 L -12.9109 24.7047 L -12.9569 24.6807 L -13.0028 24.6565 L -13.0486 24.6323 L -13.0945 24.6079 L -13.1402 24.5835 L -13.186 24.559 L -13.2316 24.5345 L -13.2773 24.5098 L -13.3229 24.485 L -13.3684 24.4602 L -13.4139 24.4353 L -13.4594 24.4103 L -13.5048 24.3852 L -13.5501 24.36 L -13.5954 24.3348 L -13.6407 24.3094 L -13.6859 24.284 L -13.7311 24.2585 L -13.7762 24.2329 L -13.8213 24.2072 L -13.8663 24.1814 L -14.0086 24.0993 L -14.0534 24.0732 L -14.0982 24.047 L -14.1429 24.0207 L -14.1876 23.9943 L -14.2322 23.9679 L -14.2768 23.9414 L -14.3213 23.9147 L -14.3658 23.8881 L -14.4102 23.8613 L -14.4546 23.8344 L -14.499 23.8075 L -14.5432 23.7805 L -14.5875 23.7533 L -14.6316 23.7262 L -14.6758 23.6989 L -14.7198 23.6715 L -14.7639 23.6441 L -14.8079 23.6166 L -14.8518 23.589 L -14.8956 23.5613 L -14.9395 23.5335 L -14.9832 23.5057 L -15.027 23.4778 L -15.0706 23.4498 L -15.1142 23.4217 L -15.1578 23.3935 L -15.2013 23.3653 L -15.2448 23.3369 L -15.2882 23.3085 L -15.3315 23.28 L -15.3748 23.2515 L -15.4181 23.2228 L -15.4069 23.1679 L -15.3958 23.113 L -15.3847 23.0581 L -15.3735 23.0032 L -15.3623 22.9482 L -15.3512 22.8933 L -15.34 22.8383 L -15.3288 22.7833 L -15.3176 22.7283 L -15.3064 22.6733 L -15.2952 22.6183 L -15.284 22.5632 L -15.2727 22.5082 L -15.2615 22.4531 L -15.2502 22.398 L -15.239 22.3429 L -15.2277 22.2878 L -15.2164 22.2327 L -15.2051 22.1775 L -15.1938 22.1224 L -15.1825 22.0672 L -15.1712 22.012 L -15.1598 21.9568 L -15.1485 21.9016 L -15.1371 21.8464 L -15.1257 21.7911 L -15.1144 21.7359 L -15.103 21.6806 L -15.0916 21.6253 L -15.0802 21.57 L -15.0688 21.5147 L -15.0573 21.4593 L -15.0459 21.404 L -15.0344 21.3486 L -15.023 21.2932 L -15.0115 21.2378 L -15 21.1824 L -14.9885 21.127 L -14.977 21.0715 L -14.9655 21.0161 L -14.9655 21.0161 L -15.0141 21.0451 L -15.0628 21.0741 L -15.1114 21.1031 L -15.16 21.1321 L -15.2086 21.161 L -15.2572 21.19 L -15.3058 21.2189 L -15.3543 21.2478 L -15.4029 21.2767 L -15.4514 21.3056 L -15.5 21.3345 L -15.5485 21.3634 L -15.597 21.3922 L -15.6455 21.421 L -15.694 21.4498 L -15.7425 21.4786 L -15.7909 21.5074 L -15.8394 21.5362 L -15.8878 21.5649 L -15.9363 21.5937 L -15.9847 21.6224 L -16.0331 21.6511 L -16.0815 21.6798 L -16.1299 21.7085 L -16.1783 21.7371 L -16.2267 21.7658 L -16.275 21.7944 L -16.3234 21.8231 L -16.3717 21.8517 L -16.4201 21.8803 L -16.4684 21.9089 L -16.5167 21.9374 L -16.565 21.966 L -16.6133 21.9945 L -16.6616 22.0231 L -16.7098 22.0516 L -16.7581 22.0801 L -16.8064 22.1086 L -16.8546 22.137 L -16.9028 22.1655 L -16.944 22.134 L -16.9852 22.1025 L -17.0263 22.0708 L -17.0674 22.0391 L -17.1083 22.0073 L -17.1493 21.9754 L -17.1901 21.9434 L -17.2309 21.9114 L -17.2717 21.8793 L -17.3124 21.8471 L -17.353 21.8149 L -17.3936 21.7825 L -17.4341 21.7501 L -17.4745 21.7177 L -17.5149 21.6851 L -17.5552 21.6525 L -17.5955 21.6198 L -17.6357 21.587 L -17.6758 21.5541 L -17.7159 21.5212 L -17.7559 21.4882 L -17.7959 21.4551 L -17.8358 21.4219 L -17.8756 21.3887 L -17.9154 21.3554 L -17.9551 21.322 L -17.9948 21.2886 L -18.0344 21.2551 L -18.0739 21.2215 L -18.1133 21.1878 L -18.1527 21.154 L -18.1921 21.1202 L -18.3163 21.0126 L -18.3553 20.9785 L -18.3943 20.9443 L -18.4333 20.91 L -18.4722 20.8757 L -18.511 20.8413 L -18.5497 20.8068 L -18.5884 20.7722 L -18.627 20.7376 L -18.6656 20.7029 L -18.7041 20.6681 L -18.7425 20.6333 L -18.7809 20.5984 L -18.8192 20.5634 L -18.8574 20.5283 L -18.8956 20.4932 L -18.9337 20.458 L -18.9717 20.4227 L -19.0097 20.3874 L -19.0476 20.352 L -19.0855 20.3165 L -19.1232 20.281 L -19.161 20.2453 L -19.1986 20.2096 L -19.2362 20.1739 L -19.2737 20.138 L -19.3111 20.1021 L -19.3485 20.0662 L -19.3858 20.0301 L -19.4231 19.994 L -19.4602 19.9578 L -19.4973 19.9216 L -19.5344 19.8853 L -19.5131 19.8335 L -19.4917 19.7817 L -19.4704 19.7298 L -19.4491 19.678 L -19.4277 19.6262 L -19.4063 19.5743 L -19.385 19.5225 L -19.3636 19.4706 L -19.3422 19.4187 L -19.3207 19.3668 L -19.2993 19.3149 L -19.2779 19.263 L -19.2564 19.211 L -19.235 19.1591 L -19.2135 19.1071 L -19.192 19.0552 L -19.1705 19.0032 L -19.149 18.9512 L -19.1274 18.8992 L -19.1059 18.8472 L -19.0844 18.7951 L -19.0628 18.7431 L -19.0412 18.691 L -19.0196 18.639 L -18.998 18.5869 L -18.9764 18.5348 L -18.9548 18.4827 L -18.9331 18.4305 L -18.9115 18.3784 L -18.8898 18.3263 L -18.8681 18.2741 L -18.8464 18.2219 L -18.8247 18.1697 L -18.803 18.1175 L -18.7812 18.0653 L -18.7595 18.0131 L -18.7377 17.9608 L -18.7159 17.9086 L -18.6941 17.8563 L -18.6723 17.804 L -18.6723 17.804 L -18.7256 17.8233 L -18.7788 17.8426 L -18.8321 17.8619 L -18.8853 17.8811 L -18.9385 17.9004 L -18.9917 17.9196 L -19.0449 17.9388 L -19.098 17.958 L -19.1512 17.9772 L -19.2043 17.9964 L -19.2574 18.0156 L -19.3105 18.0347 L -19.3636 18.0539 L -19.4167 18.073 L -19.4698 18.0921 L -19.5228 18.1112 L -19.5759 18.1303 L -19.6289 18.1494 L -19.6819 18.1684 L -19.7349 18.1875 L -19.7879 18.2065 L -19.8409 18.2256 L -19.8938 18.2446 L -19.9468 18.2636 L -19.9997 18.2826 L -20.0526 18.3015 L -20.1055 18.3205 L -20.1584 18.3395 L -20.2113 18.3584 L -20.2642 18.3773 L -20.3171 18.3963 L -20.3699 18.4152 L -20.4227 18.4341 L -20.4756 18.453 L -20.5284 18.4718 L -20.5812 18.4907 L -20.6339 18.5096 L -20.6867 18.5284 L -20.7395 18.5473 L -20.7922 18.5661 L -20.8267 18.5273 L -20.8612 18.4886 L -20.8956 18.4497 L -20.9298 18.4108 L -20.9641 18.3718 L -20.9982 18.3328 L -21.0323 18.2936 L -21.0663 18.2545 L -21.1003 18.2152 L -21.1341 18.1759 L -21.1679 18.1366 L -21.2016 18.0972 L -21.2353 18.0577 L -21.2688 18.0181 L -21.3023 17.9785 L -21.3357 17.9388 L -21.3691 17.8991 L -21.4024 17.8593 L -21.4356 17.8194 L -21.4687 17.7795 L -21.5017 17.7395 L -21.5347 17.6995 L -21.5676 17.6594 L -21.6004 17.6192 L -21.6332 17.579 L -21.6659 17.5387 L -21.6985 17.4983 L -21.731 17.4579 L -21.7634 17.4175 L -21.7958 17.3769 L -21.8281 17.3363 L -21.8603 17.2957 L -21.9619 17.1665 L -21.9938 17.1256 L -22.0257 17.0847 L -22.0574 17.0436 L -22.0891 17.0026 L -22.1207 16.9614 L -22.1522 16.9202 L -22.1837 16.879 L -22.2151 16.8377 L -22.2463 16.7963 L -22.2776 16.7549 L -22.3087 16.7134 L -22.3398 16.6718 L -22.3708 16.6302 L -22.4017 16.5886 L -22.4325 16.5469 L -22.4633 16.5051 L -22.4939 16.4632 L -22.5245 16.4214 L -22.5551 16.3794 L -22.5855 16.3374 L -22.6159 16.2954 L -22.6461 16.2532 L -22.6764 16.2111 L -22.7065 16.1688 L -22.7365 16.1266 L -22.7665 16.0842 L -22.7964 16.0418 L -22.8262 15.9994 L -22.8559 15.9569 L -22.8856 15.9143 L -22.9152 15.8717 L -22.9447 15.829 L -22.9139 15.7822 L -22.8832 15.7353 L -22.8525 15.6885 L -22.8217 15.6417 L -22.7909 15.5948 L -22.7601 15.5479 L -22.7293 15.501 L -22.6985 15.4542 L -22.6676 15.4073 L -22.6368 15.3604 L -22.6059 15.3134 L -22.575 15.2665 L -22.5441 15.2196 L -22.5132 15.1726 L -22.4823 15.1257 L -22.4514 15.0787 L -22.4204 15.0317 L -22.3895 14.9848 L -22.3585 14.9378 L -22.3275 14.8908 L -22.2965 14.8437 L -22.2655 14.7967 L -22.2344 14.7497 L -22.2034 14.7026 L -22.1723 14.6556 L -22.1412 14.6085 L -22.1101 14.5614 L -22.079 14.5144 L -22.0479 14.4673 L -22.0167 14.4202 L -21.9855 14.373 L -21.9544 14.3259 L -21.9232 14.2788 L -21.892 14.2316 L -21.8607 14.1845 L -21.8295 14.1373 L -21.7982 14.0901 L -21.7669 14.0429 L -21.7357 13.9957 L -21.7043 13.9485 L -21.7043 13.9485 L -21.7603 13.9574 L -21.8162 13.9663 L -21.8721 13.9751 L -21.928 13.9839 L -21.9839 13.9928 L -22.0398 14.0016 L -22.0957 14.0104 L -22.1515 14.0192 L -22.2073 14.028 L -22.2631 14.0368 L -22.3189 14.0455 L -22.3747 14.0543 L -22.4304 14.063 L -22.4862 14.0718 L -22.5419 14.0805 L -22.5976 14.0892 L -22.6533 14.0979 L -22.709 14.1066 L -22.7646 14.1153 L -22.8203 14.124 L -22.8759 14.1326 L -22.9315 14.1413 L -22.9871 14.1499 L -23.0427 14.1586 L -23.0983 14.1672 L -23.1538 14.1758 L -23.2094 14.1844 L -23.2649 14.193 L -23.3204 14.2016 L -23.3759 14.2102 L -23.4314 14.2188 L -23.4869 14.2274 L -23.5423 14.2359 L -23.5978 14.2445 L -23.6532 14.253 L -23.7086 14.2616 L -23.764 14.2701 L -23.8194 14.2786 L -23.8748 14.2871 L -23.9301 14.2956 L -23.9567 14.251 L -23.9832 14.2064 L -24.0096 14.1618 L -24.0359 14.1171 L -24.0621 14.0723 L -24.0883 14.0275 L -24.1143 13.9827 L -24.1403 13.9378 L -24.1662 13.8928 L -24.192 13.8478 L -24.2177 13.8028 L -24.2434 13.7577 L -24.2689 13.7125 L -24.2944 13.6674 L -24.3198 13.6221 L -24.3451 13.5768 L -24.3703 13.5315 L -24.3955 13.4861 L -24.4205 13.4407 L -24.4455 13.3952 L -24.4704 13.3497 L -24.4952 13.3042 L -24.5199 13.2586 L -24.5445 13.2129 L -24.5691 13.1672 L -24.5936 13.1215 L -24.6179 13.0757 L -24.6422 13.0298 L -24.6664 12.9839 L -24.6906 12.938 L -24.7146 12.892 L -24.7385 12.846 L -24.8138 12.7 L -24.8374 12.6538 L -24.8609 12.6075 L -24.8843 12.5613 L -24.9077 12.5149 L -24.9309 12.4685 L -24.9541 12.4221 L -24.9772 12.3757 L -25.0001 12.3292 L -25.023 12.2826 L -25.0459 12.236 L -25.0686 12.1894 L -25.0912 12.1427 L -25.1138 12.096 L -25.1363 12.0493 L -25.1586 12.0025 L -25.1809 11.9556 L -25.2031 11.9087 L -25.2252 11.8618 L -25.2473 11.8148 L -25.2692 11.7678 L -25.2911 11.7208 L -25.3128 11.6737 L -25.3345 11.6266 L -25.3561 11.5794 L -25.3776 11.5322 L -25.399 11.485 L -25.4204 11.4377 L -25.4416 11.3903 L -25.4628 11.343 L -25.4838 11.2956 L -25.5048 11.2481 L -25.5257 11.2006 L -25.4867 11.1605 L -25.4476 11.1203 L -25.4085 11.0801 L -25.3695 11.04 L -25.3304 10.9998 L -25.2913 10.9596 L -25.2521 10.9194 L -25.213 10.8792 L -25.1738 10.839 L -25.1347 10.7987 L -25.0955 10.7585 L -25.0563 10.7183 L -25.0171 10.678 L -24.9778 10.6378 L -24.9386 10.5975 L -24.8993 10.5573 L -24.86 10.517 L -24.8207 10.4767 L -24.7814 10.4364 L -24.7421 10.3962 L -24.7028 10.3559 L -24.6634 10.3156 L -24.624 10.2752 L -24.5846 10.2349 L -24.5452 10.1946 L -24.5058 10.1543 L -24.4663 10.1139 L -24.4269 10.0736 L -24.3874 10.0332 L -24.3479 9.99288 L -24.3084 9.95252 L -24.2688 9.91214 L -24.2293 9.87176 L -24.1897 9.83137 L -24.1501 9.79098 L -24.1105 9.75058 L -24.0709 9.71017 L -24.0312 9.66975 L -23.9916 9.62932 L -23.9519 9.58889 L -23.9519 9.58889 L -24.0085 9.58701 L -24.0651 9.58512 L -24.1217 9.58323 L -24.1783 9.58133 L -24.2348 9.57942 L -24.2913 9.5775 L -24.3478 9.57558 L -24.4043 9.57365 L -24.4608 9.57171 L -24.5173 9.56977 L -24.5737 9.56782 L -24.6301 9.56586 L -24.6865 9.56389 L -24.7429 9.56192 L -24.7993 9.55994 L -24.8556 9.55796 L -24.912 9.55597 L -24.9683 9.55397 L -25.0246 9.55196 L -25.0809 9.54995 L -25.1371 9.54793 L -25.1934 9.54591 L -25.2496 9.54388 L -25.3058 9.54184 L -25.362 9.5398 L -25.4182 9.53775 L -25.4744 9.5357 L -25.5305 9.53364 L -25.5867 9.53157 L -25.6428 9.5295 L -25.6989 9.52742 L -25.755 9.52534 L -25.8111 9.52325 L -25.8671 9.52115 L -25.9232 9.51905 L -25.9792 9.51694 L -26.0352 9.51483 L -26.0912 9.51271 L -26.1472 9.51059 L -26.2031 9.50846 L -26.2208 9.45968 L -26.2384 9.41087 L -26.2558 9.36202 L -26.2732 9.31314 L -26.2905 9.26423 L -26.3077 9.21529 L -26.3248 9.16632 L -26.3418 9.11731 L -26.3587 9.06827 L -26.3755 9.01921 L -26.3923 8.9701 L -26.4089 8.92097 L -26.4255 8.87181 L -26.442 8.82262 L -26.4583 8.7734 L -26.4746 8.72414 L -26.4908 8.67486 L -26.5069 8.62554 L -26.5229 8.5762 L -26.5388 8.52683 L -26.5546 8.47742 L -26.5704 8.42799 L -26.586 8.37853 L -26.6016 8.32904 L -26.617 8.27952 L -26.6324 8.22997 L -26.6476 8.18039 L -26.6628 8.13079 L -26.6779 8.08116 L -26.6929 8.03149 L -26.7078 7.98181 L -26.7226 7.93209 L -26.7689 7.77443 L -26.7833 7.7246 L -26.7976 7.67475 L -26.8119 7.62486 L -26.826 7.57495 L -26.8401 7.52502 L -26.854 7.47506 L -26.8679 7.42507 L -26.8817 7.37505 L -26.8953 7.32501 L -26.9089 7.27495 L -26.9224 7.22486 L -26.9358 7.17475 L -26.9491 7.12461 L -26.9623 7.07444 L -26.9755 7.02425 L -26.9885 6.97404 L -27.0014 6.9238 L -27.0143 6.87354 L -27.027 6.82326 L -27.0397 6.77295 L -27.0522 6.72262 L -27.0647 6.67226 L -27.077 6.62188 L -27.0893 6.57148 L -27.1015 6.52106 L -27.1136 6.47061 L -27.1256 6.42014 L -27.1375 6.36965 L -27.1493 6.31913 L -27.161 6.2686 L -27.1726 6.21804 L -27.1842 6.16746 L -27.1382 6.13542 L -27.0923 6.10336 L -27.0463 6.07131 L -27.0003 6.03925 L -26.9543 6.00718 L -26.9083 5.97512 L -26.8623 5.94305 L -26.8163 5.91097 L -26.7702 5.8789 L -26.7241 5.84682 L -26.678 5.81473 L -26.6319 5.78264 L -26.5858 5.75055 L -26.5397 5.71846 L -26.4935 5.68636 L -26.4473 5.65426 L -26.4011 5.62215 L -26.3549 5.59004 L -26.3087 5.55793 L -26.2625 5.52581 L -26.2162 5.49369 L -26.1699 5.46156 L -26.1236 5.42944 L -26.0773 5.3973 L -26.031 5.36517 L -25.9846 5.33303 L -25.9383 5.30088 L -25.8919 5.26874 L -25.8455 5.23659 L -25.799 5.20443 L -25.7526 5.17227 L -25.7061 5.14011 L -25.6597 5.10795 L -25.6132 5.07578 L -25.5666 5.0436 L -25.5201 5.01143 L -25.4735 4.97925 L -25.427 4.94706 L -25.3804 4.91487 L -25.3338 4.88268 L -25.3338 4.88268 L -25.389 4.87012 L -25.4442 4.85756 L -25.4994 4.84499 L -25.5546 4.83242 L -25.6098 4.81984 L -25.6649 4.80726 L -25.72 4.79468 L -25.7751 4.78209 L -25.8302 4.7695 L -25.8853 4.75691 L -25.9403 4.74431 L -25.9954 4.73171 L -26.0504 4.7191 L -26.1054 4.7065 L -26.1604 4.69389 L -26.2153 4.68127 L -26.2703 4.66866 L -26.3252 4.65604 L -26.3801 4.64341 L -26.435 4.63079 L -26.4898 4.61816 L -26.5447 4.60552 L -26.5995 4.59289 L -26.6543 4.58025 L -26.7091 4.56761 L -26.7639 4.55496 L -26.8187 4.54232 L -26.8734 4.52967 L -26.9282 4.51701 L -26.9829 4.50436 L -27.0376 4.4917 L -27.0922 4.47904 L -27.1469 4.46637 L -27.2016 4.45371 L -27.2562 4.44104 L -27.3108 4.42837 L -27.3654 4.41569 L -27.42 4.40301 L -27.4746 4.39033 L -27.5291 4.37765 L -27.5372 4.32641 L -27.5452 4.27516 L -27.5531 4.22389 L -27.5609 4.17261 L -27.5686 4.12131 L -27.5763 4.07 L -27.5838 4.01867 L -27.5912 3.96733 L -27.5986 3.91598 L -27.6058 3.86461 L -27.6129 3.81323 L -27.62 3.76184 L -27.6269 3.71043 L -27.6338 3.65901 L -27.6406 3.60758 L -27.6472 3.55613 L -27.6538 3.50468 L -27.6603 3.45321 L -27.6667 3.40172 L -27.6729 3.35023 L -27.6791 3.29873 L -27.6852 3.24721 L -27.6912 3.19568 L -27.6971 3.14414 L -27.7029 3.09259 L -27.7086 3.04103 L -27.7142 2.98946 L -27.7197 2.93788 L -27.7252 2.88629 L -27.7305 2.83469 L -27.7357 2.78308 L -27.7408 2.73146 L -27.7565 2.56789 L -27.7612 2.51623 L -27.7658 2.46457 L -27.7704 2.41289 L -27.7748 2.36121 L -27.7792 2.30951 L -27.7834 2.25781 L -27.7876 2.2061 L -27.7916 2.15439 L -27.7956 2.10266 L -27.7994 2.05093 L -27.8032 1.99919 L -27.8069 1.94745 L -27.8105 1.8957 L -27.8139 1.84394 L -27.8173 1.79218 L -27.8206 1.74041 L -27.8238 1.68863 L -27.8269 1.63685 L -27.8299 1.58506 L -27.8328 1.53326 L -27.8356 1.48146 L -27.8383 1.42966 L -27.8409 1.37785 L -27.8434 1.32604 L -27.8459 1.27422 L -27.8482 1.2224 L -27.8504 1.17057 L -27.8525 1.11874 L -27.8546 1.0669 L -27.8565 1.01506 L -27.8584 0.963221 L -27.8601 0.911375 L -27.8089 0.888598 L -27.7577 0.865821 L -27.7066 0.843043 L -27.6553 0.820264 L -27.6041 0.797485 L -27.5529 0.774705 L -27.5016 0.751925 L -27.4503 0.729145 L -27.399 0.706364 L -27.3477 0.683582 L -27.2964 0.6608 L -27.245 0.638018 L -27.1937 0.615236 L -27.1423 0.592453 L -27.0909 0.569669 L -27.0395 0.546885 L -26.988 0.524101 L -26.9366 0.501317 L -26.8851 0.478532 L -26.8336 0.455747 L -26.7821 0.432962 L -26.7306 0.410176 L -26.6791 0.38739 L -26.6275 0.364604 L -26.5759 0.341817 L -26.5243 0.319031 L -26.4727 0.296244 L -26.4211 0.273456 L -26.3694 0.250669 L -26.3178 0.227882 L -26.2661 0.205094 L -26.2144 0.182306 L -26.1626 0.159518 L -26.1109 0.13673 L -26.0591 0.113942 L -26.0073 0.0911536 L -25.9555 0.0683653 L -25.9037 0.0455769 L -25.8519 0.0227884 L -25.8 5.32907e-15 L -25.8 9.90107e-16 L -25.8519 -0.0227884 L -25.9037 -0.0455769 L -25.9555 -0.0683653 L -26.0073 -0.0911536 L -26.0591 -0.113942 L -26.1109 -0.13673 L -26.1626 -0.159518 L -26.2144 -0.182306 L -26.2661 -0.205094 L -26.3178 -0.227882 L -26.3694 -0.250669 L -26.4211 -0.273456 L -26.4727 -0.296244 L -26.5243 -0.319031 L -26.5759 -0.341817 L -26.6275 -0.364604 L -26.6791 -0.38739 L -26.7306 -0.410176 L -26.7821 -0.432962 L -26.8336 -0.455747 L -26.8851 -0.478532 L -26.9366 -0.501317 L -26.988 -0.524101 L -27.0395 -0.546885 L -27.0909 -0.569669 L -27.1423 -0.592453 L -27.1937 -0.615236 L -27.245 -0.638018 L -27.2964 -0.6608 L -27.3477 -0.683582 L -27.399 -0.706364 L -27.4503 -0.729145 L -27.5016 -0.751925 L -27.5529 -0.774705 L -27.6041 -0.797485 L -27.6553 -0.820264 L -27.7066 -0.843043 L -27.7577 -0.865821 L -27.8089 -0.888598 L -27.8601 -0.911375 L -27.8584 -0.963221 L -27.8565 -1.01506 L -27.8546 -1.0669 L -27.8525 -1.11874 L -27.8504 -1.17057 L -27.8482 -1.2224 L -27.8459 -1.27422 L -27.8434 -1.32604 L -27.8409 -1.37785 L -27.8383 -1.42966 L -27.8356 -1.48146 L -27.8328 -1.53326 L -27.8299 -1.58506 L -27.8269 -1.63685 L -27.8238 -1.68863 L -27.8206 -1.74041 L -27.8173 -1.79218 L -27.8139 -1.84394 L -27.8105 -1.8957 L -27.8069 -1.94745 L -27.8032 -1.99919 L -27.7994 -2.05093 L -27.7956 -2.10266 L -27.7916 -2.15439 L -27.7876 -2.2061 L -27.7834 -2.25781 L -27.7792 -2.30951 L -27.7748 -2.36121 L -27.7704 -2.41289 L -27.7658 -2.46457 L -27.7612 -2.51623 L -27.7565 -2.56789 L -27.7408 -2.73146 L -27.7357 -2.78308 L -27.7305 -2.83469 L -27.7252 -2.88629 L -27.7197 -2.93788 L -27.7142 -2.98946 L -27.7086 -3.04103 L -27.7029 -3.09259 L -27.6971 -3.14414 L -27.6912 -3.19568 L -27.6852 -3.24721 L -27.6791 -3.29873 L -27.6729 -3.35023 L -27.6667 -3.40172 L -27.6603 -3.45321 L -27.6538 -3.50468 L -27.6472 -3.55613 L -27.6406 -3.60758 L -27.6338 -3.65901 L -27.6269 -3.71043 L -27.62 -3.76184 L -27.6129 -3.81323 L -27.6058 -3.86461 L -27.5986 -3.91598 L -27.5912 -3.96733 L -27.5838 -4.01867 L -27.5763 -4.07 L -27.5686 -4.12131 L -27.5609 -4.17261 L -27.5531 -4.22389 L -27.5452 -4.27516 L -27.5372 -4.32641 L -27.5291 -4.37765 L -27.4746 -4.39033 L -27.42 -4.40301 L -27.3654 -4.41569 L -27.3108 -4.42837 L -27.2562 -4.44104 L -27.2016 -4.45371 L -27.1469 -4.46637 L -27.0922 -4.47904 L -27.0376 -4.4917 L -26.9829 -4.50436 L -26.9282 -4.51701 L -26.8734 -4.52967 L -26.8187 -4.54232 L -26.7639 -4.55496 L -26.7091 -4.56761 L -26.6543 -4.58025 L -26.5995 -4.59289 L -26.5447 -4.60552 L -26.4898 -4.61816 L -26.435 -4.63079 L -26.3801 -4.64341 L -26.3252 -4.65604 L -26.2703 -4.66866 L -26.2153 -4.68127 L -26.1604 -4.69389 L -26.1054 -4.7065 L -26.0504 -4.7191 L -25.9954 -4.73171 L -25.9403 -4.74431 L -25.8853 -4.75691 L -25.8302 -4.7695 L -25.7751 -4.78209 L -25.72 -4.79468 L -25.6649 -4.80726 L -25.6098 -4.81984 L -25.5546 -4.83242 L -25.4994 -4.84499 L -25.4442 -4.85756 L -25.389 -4.87012 L -25.3338 -4.88268 L -25.3338 -4.88268 L -25.3804 -4.91487 L -25.427 -4.94706 L -25.4735 -4.97925 L -25.5201 -5.01143 L -25.5666 -5.0436 L -25.6132 -5.07578 L -25.6597 -5.10795 L -25.7061 -5.14011 L -25.7526 -5.17227 L -25.799 -5.20443 L -25.8455 -5.23659 L -25.8919 -5.26874 L -25.9383 -5.30088 L -25.9846 -5.33303 L -26.031 -5.36517 L -26.0773 -5.3973 L -26.1236 -5.42944 L -26.1699 -5.46156 L -26.2162 -5.49369 L -26.2625 -5.52581 L -26.3087 -5.55793 L -26.3549 -5.59004 L -26.4011 -5.62215 L -26.4473 -5.65426 L -26.4935 -5.68636 L -26.5397 -5.71846 L -26.5858 -5.75055 L -26.6319 -5.78264 L -26.678 -5.81473 L -26.7241 -5.84682 L -26.7702 -5.8789 L -26.8163 -5.91097 L -26.8623 -5.94305 L -26.9083 -5.97512 L -26.9543 -6.00718 L -27.0003 -6.03925 L -27.0463 -6.07131 L -27.0923 -6.10336 L -27.1382 -6.13542 L -27.1842 -6.16746 L -27.1726 -6.21804 L -27.161 -6.2686 L -27.1493 -6.31913 L -27.1375 -6.36965 L -27.1256 -6.42014 L -27.1136 -6.47061 L -27.1015 -6.52106 L -27.0893 -6.57148 L -27.077 -6.62188 L -27.0647 -6.67226 L -27.0522 -6.72262 L -27.0397 -6.77295 L -27.027 -6.82326 L -27.0143 -6.87354 L -27.0014 -6.9238 L -26.9885 -6.97404 L -26.9755 -7.02425 L -26.9623 -7.07444 L -26.9491 -7.12461 L -26.9358 -7.17475 L -26.9224 -7.22486 L -26.9089 -7.27495 L -26.8953 -7.32501 L -26.8817 -7.37505 L -26.8679 -7.42507 L -26.854 -7.47506 L -26.8401 -7.52502 L -26.826 -7.57495 L -26.8119 -7.62486 L -26.7976 -7.67475 L -26.7833 -7.7246 L -26.7689 -7.77443 L -26.7226 -7.93209 L -26.7078 -7.98181 L -26.6929 -8.03149 L -26.6779 -8.08116 L -26.6628 -8.13079 L -26.6476 -8.18039 L -26.6324 -8.22997 L -26.617 -8.27952 L -26.6016 -8.32904 L -26.586 -8.37853 L -26.5704 -8.42799 L -26.5546 -8.47742 L -26.5388 -8.52683 L -26.5229 -8.5762 L -26.5069 -8.62554 L -26.4908 -8.67486 L -26.4746 -8.72414 L -26.4583 -8.7734 L -26.442 -8.82262 L -26.4255 -8.87181 L -26.4089 -8.92097 L -26.3923 -8.9701 L -26.3755 -9.01921 L -26.3587 -9.06827 L -26.3418 -9.11731 L -26.3248 -9.16632 L -26.3077 -9.21529 L -26.2905 -9.26423 L -26.2732 -9.31314 L -26.2558 -9.36202 L -26.2384 -9.41087 L -26.2208 -9.45968 L -26.2031 -9.50846 L -26.1472 -9.51059 L -26.0912 -9.51271 L -26.0352 -9.51483 L -25.9792 -9.51694 L -25.9232 -9.51905 L -25.8671 -9.52115 L -25.8111 -9.52325 L -25.755 -9.52534 L -25.6989 -9.52742 L -25.6428 -9.5295 L -25.5867 -9.53157 L -25.5305 -9.53364 L -25.4744 -9.5357 L -25.4182 -9.53775 L -25.362 -9.5398 L -25.3058 -9.54184 L -25.2496 -9.54388 L -25.1934 -9.54591 L -25.1371 -9.54793 L -25.0809 -9.54995 L -25.0246 -9.55196 L -24.9683 -9.55397 L -24.912 -9.55597 L -24.8556 -9.55796 L -24.7993 -9.55994 L -24.7429 -9.56192 L -24.6865 -9.56389 L -24.6301 -9.56586 L -24.5737 -9.56782 L -24.5173 -9.56977 L -24.4608 -9.57171 L -24.4043 -9.57365 L -24.3478 -9.57558 L -24.2913 -9.5775 L -24.2348 -9.57942 L -24.1783 -9.58133 L -24.1217 -9.58323 L -24.0651 -9.58512 L -24.0085 -9.58701 L -23.9519 -9.58889 L -23.9519 -9.58889 L -23.9916 -9.62932 L -24.0312 -9.66975 L -24.0709 -9.71017 L -24.1105 -9.75058 L -24.1501 -9.79098 L -24.1897 -9.83137 L -24.2293 -9.87176 L -24.2688 -9.91214 L -24.3084 -9.95252 L -24.3479 -9.99288 L -24.3874 -10.0332 L -24.4269 -10.0736 L -24.4663 -10.1139 L -24.5058 -10.1543 L -24.5452 -10.1946 L -24.5846 -10.2349 L -24.624 -10.2752 L -24.6634 -10.3156 L -24.7028 -10.3559 L -24.7421 -10.3962 L -24.7814 -10.4364 L -24.8207 -10.4767 L -24.86 -10.517 L -24.8993 -10.5573 L -24.9386 -10.5975 L -24.9778 -10.6378 L -25.0171 -10.678 L -25.0563 -10.7183 L -25.0955 -10.7585 L -25.1347 -10.7987 L -25.1738 -10.839 L -25.213 -10.8792 L -25.2521 -10.9194 L -25.2913 -10.9596 L -25.3304 -10.9998 L -25.3695 -11.04 L -25.4085 -11.0801 L -25.4476 -11.1203 L -25.4867 -11.1605 L -25.5257 -11.2006 L -25.5048 -11.2481 L -25.4838 -11.2956 L -25.4628 -11.343 L -25.4416 -11.3903 L -25.4204 -11.4377 L -25.399 -11.485 L -25.3776 -11.5322 L -25.3561 -11.5794 L -25.3345 -11.6266 L -25.3128 -11.6737 L -25.2911 -11.7208 L -25.2692 -11.7678 L -25.2473 -11.8148 L -25.2252 -11.8618 L -25.2031 -11.9087 L -25.1809 -11.9556 L -25.1586 -12.0025 L -25.1363 -12.0493 L -25.1138 -12.096 L -25.0912 -12.1427 L -25.0686 -12.1894 L -25.0459 -12.236 L -25.023 -12.2826 L -25.0001 -12.3292 L -24.9772 -12.3757 L -24.9541 -12.4221 L -24.9309 -12.4685 L -24.9077 -12.5149 L -24.8843 -12.5613 L -24.8609 -12.6075 L -24.8374 -12.6538 L -24.8138 -12.7 L -24.7385 -12.846 L -24.7146 -12.892 L -24.6906 -12.938 L -24.6664 -12.9839 L -24.6422 -13.0298 L -24.6179 -13.0757 L -24.5936 -13.1215 L -24.5691 -13.1672 L -24.5445 -13.2129 L -24.5199 -13.2586 L -24.4952 -13.3042 L -24.4704 -13.3497 L -24.4455 -13.3952 L -24.4205 -13.4407 L -24.3955 -13.4861 L -24.3703 -13.5315 L -24.3451 -13.5768 L -24.3198 -13.6221 L -24.2944 -13.6674 L -24.2689 -13.7125 L -24.2434 -13.7577 L -24.2177 -13.8028 L -24.192 -13.8478 L -24.1662 -13.8928 L -24.1403 -13.9378 L -24.1143 -13.9827 L -24.0883 -14.0275 L -24.0621 -14.0723 L -24.0359 -14.1171 L -24.0096 -14.1618 L -23.9832 -14.2064 L -23.9567 -14.251 L -23.9301 -14.2956 L -23.8748 -14.2871 L -23.8194 -14.2786 L -23.764 -14.2701 L -23.7086 -14.2616 L -23.6532 -14.253 L -23.5978 -14.2445 L -23.5423 -14.2359 L -23.4869 -14.2274 L -23.4314 -14.2188 L -23.3759 -14.2102 L -23.3204 -14.2016 L -23.2649 -14.193 L -23.2094 -14.1844 L -23.1538 -14.1758 L -23.0983 -14.1672 L -23.0427 -14.1586 L -22.9871 -14.1499 L -22.9315 -14.1413 L -22.8759 -14.1326 L -22.8203 -14.124 L -22.7646 -14.1153 L -22.709 -14.1066 L -22.6533 -14.0979 L -22.5976 -14.0892 L -22.5419 -14.0805 L -22.4862 -14.0718 L -22.4304 -14.063 L -22.3747 -14.0543 L -22.3189 -14.0455 L -22.2631 -14.0368 L -22.2073 -14.028 L -22.1515 -14.0192 L -22.0957 -14.0104 L -22.0398 -14.0016 L -21.9839 -13.9928 L -21.928 -13.9839 L -21.8721 -13.9751 L -21.8162 -13.9663 L -21.7603 -13.9574 L -21.7043 -13.9485 L -21.7043 -13.9485 L -21.7357 -13.9957 L -21.7669 -14.0429 L -21.7982 -14.0901 L -21.8295 -14.1373 L -21.8607 -14.1845 L -21.892 -14.2316 L -21.9232 -14.2788 L -21.9544 -14.3259 L -21.9855 -14.373 L -22.0167 -14.4202 L -22.0479 -14.4673 L -22.079 -14.5144 L -22.1101 -14.5614 L -22.1412 -14.6085 L -22.1723 -14.6556 L -22.2034 -14.7026 L -22.2344 -14.7497 L -22.2655 -14.7967 L -22.2965 -14.8437 L -22.3275 -14.8908 L -22.3585 -14.9378 L -22.3895 -14.9848 L -22.4204 -15.0317 L -22.4514 -15.0787 L -22.4823 -15.1257 L -22.5132 -15.1726 L -22.5441 -15.2196 L -22.575 -15.2665 L -22.6059 -15.3134 L -22.6368 -15.3604 L -22.6676 -15.4073 L -22.6985 -15.4542 L -22.7293 -15.501 L -22.7601 -15.5479 L -22.7909 -15.5948 L -22.8217 -15.6417 L -22.8525 -15.6885 L -22.8832 -15.7353 L -22.9139 -15.7822 L -22.9447 -15.829 L -22.9152 -15.8717 L -22.8856 -15.9143 L -22.8559 -15.9569 L -22.8262 -15.9994 L -22.7964 -16.0418 L -22.7665 -16.0842 L -22.7365 -16.1266 L -22.7065 -16.1688 L -22.6764 -16.2111 L -22.6461 -16.2532 L -22.6159 -16.2954 L -22.5855 -16.3374 L -22.5551 -16.3794 L -22.5245 -16.4214 L -22.4939 -16.4632 L -22.4633 -16.5051 L -22.4325 -16.5469 L -22.4017 -16.5886 L -22.3708 -16.6302 L -22.3398 -16.6718 L -22.3087 -16.7134 L -22.2776 -16.7549 L -22.2463 -16.7963 L -22.2151 -16.8377 L -22.1837 -16.879 L -22.1522 -16.9202 L -22.1207 -16.9614 L -22.0891 -17.0026 L -22.0574 -17.0436 L -22.0257 -17.0847 L -21.9938 -17.1256 L -21.9619 -17.1665 L -21.8603 -17.2957 L -21.8281 -17.3363 L -21.7958 -17.3769 L -21.7634 -17.4175 L -21.731 -17.4579 L -21.6985 -17.4983 L -21.6659 -17.5387 L -21.6332 -17.579 L -21.6004 -17.6192 L -21.5676 -17.6594 L -21.5347 -17.6995 L -21.5017 -17.7395 L -21.4687 -17.7795 L -21.4356 -17.8194 L -21.4024 -17.8593 L -21.3691 -17.8991 L -21.3357 -17.9388 L -21.3023 -17.9785 L -21.2688 -18.0181 L -21.2353 -18.0577 L -21.2016 -18.0972 L -21.1679 -18.1366 L -21.1341 -18.1759 L -21.1003 -18.2152 L -21.0663 -18.2545 L -21.0323 -18.2936 L -20.9982 -18.3328 L -20.9641 -18.3718 L -20.9298 -18.4108 L -20.8956 -18.4497 L -20.8612 -18.4886 L -20.8267 -18.5273 L -20.7922 -18.5661 L -20.7395 -18.5473 L -20.6867 -18.5284 L -20.6339 -18.5096 L -20.5812 -18.4907 L -20.5284 -18.4718 L -20.4756 -18.453 L -20.4227 -18.4341 L -20.3699 -18.4152 L -20.3171 -18.3963 L -20.2642 -18.3773 L -20.2113 -18.3584 L -20.1584 -18.3395 L -20.1055 -18.3205 L -20.0526 -18.3015 L -19.9997 -18.2826 L -19.9468 -18.2636 L -19.8938 -18.2446 L -19.8409 -18.2256 L -19.7879 -18.2065 L -19.7349 -18.1875 L -19.6819 -18.1684 L -19.6289 -18.1494 L -19.5759 -18.1303 L -19.5228 -18.1112 L -19.4698 -18.0921 L -19.4167 -18.073 L -19.3636 -18.0539 L -19.3105 -18.0347 L -19.2574 -18.0156 L -19.2043 -17.9964 L -19.1512 -17.9772 L -19.098 -17.958 L -19.0449 -17.9388 L -18.9917 -17.9196 L -18.9385 -17.9004 L -18.8853 -17.8811 L -18.8321 -17.8619 L -18.7788 -17.8426 L -18.7256 -17.8233 L -18.6723 -17.804 L -18.6723 -17.804 L -18.6941 -17.8563 L -18.7159 -17.9086 L -18.7377 -17.9608 L -18.7595 -18.0131 L -18.7812 -18.0653 L -18.803 -18.1175 L -18.8247 -18.1697 L -18.8464 -18.2219 L -18.8681 -18.2741 L -18.8898 -18.3263 L -18.9115 -18.3784 L -18.9331 -18.4305 L -18.9548 -18.4827 L -18.9764 -18.5348 L -18.998 -18.5869 L -19.0196 -18.639 L -19.0412 -18.691 L -19.0628 -18.7431 L -19.0844 -18.7951 L -19.1059 -18.8472 L -19.1274 -18.8992 L -19.149 -18.9512 L -19.1705 -19.0032 L -19.192 -19.0552 L -19.2135 -19.1071 L -19.235 -19.1591 L -19.2564 -19.211 L -19.2779 -19.263 L -19.2993 -19.3149 L -19.3207 -19.3668 L -19.3422 -19.4187 L -19.3636 -19.4706 L -19.385 -19.5225 L -19.4063 -19.5743 L -19.4277 -19.6262 L -19.4491 -19.678 L -19.4704 -19.7298 L -19.4917 -19.7817 L -19.5131 -19.8335 L -19.5344 -19.8853 L -19.4973 -19.9216 L -19.4602 -19.9578 L -19.4231 -19.994 L -19.3858 -20.0301 L -19.3485 -20.0662 L -19.3111 -20.1021 L -19.2737 -20.138 L -19.2362 -20.1739 L -19.1986 -20.2096 L -19.161 -20.2453 L -19.1232 -20.281 L -19.0855 -20.3165 L -19.0476 -20.352 L -19.0097 -20.3874 L -18.9717 -20.4227 L -18.9337 -20.458 L -18.8956 -20.4932 L -18.8574 -20.5283 L -18.8192 -20.5634 L -18.7809 -20.5984 L -18.7425 -20.6333 L -18.7041 -20.6681 L -18.6656 -20.7029 L -18.627 -20.7376 L -18.5884 -20.7722 L -18.5497 -20.8068 L -18.511 -20.8413 L -18.4722 -20.8757 L -18.4333 -20.91 L -18.3943 -20.9443 L -18.3553 -20.9785 L -18.3163 -21.0126 L -18.1921 -21.1202 L -18.1527 -21.154 L -18.1133 -21.1878 L -18.0739 -21.2215 L -18.0344 -21.2551 L -17.9948 -21.2886 L -17.9551 -21.322 L -17.9154 -21.3554 L -17.8756 -21.3887 L -17.8358 -21.4219 L -17.7959 -21.4551 L -17.7559 -21.4882 L -17.7159 -21.5212 L -17.6758 -21.5541 L -17.6357 -21.587 L -17.5955 -21.6198 L -17.5552 -21.6525 L -17.5149 -21.6851 L -17.4745 -21.7177 L -17.4341 -21.7501 L -17.3936 -21.7825 L -17.353 -21.8149 L -17.3124 -21.8471 L -17.2717 -21.8793 L -17.2309 -21.9114 L -17.1901 -21.9434 L -17.1493 -21.9754 L -17.1083 -22.0073 L -17.0674 -22.0391 L -17.0263 -22.0708 L -16.9852 -22.1025 L -16.944 -22.134 L -16.9028 -22.1655 L -16.8546 -22.137 L -16.8064 -22.1086 L -16.7581 -22.0801 L -16.7098 -22.0516 L -16.6616 -22.0231 L -16.6133 -21.9945 L -16.565 -21.966 L -16.5167 -21.9374 L -16.4684 -21.9089 L -16.4201 -21.8803 L -16.3717 -21.8517 L -16.3234 -21.8231 L -16.275 -21.7944 L -16.2267 -21.7658 L -16.1783 -21.7371 L -16.1299 -21.7085 L -16.0815 -21.6798 L -16.0331 -21.6511 L -15.9847 -21.6224 L -15.9363 -21.5937 L -15.8878 -21.5649 L -15.8394 -21.5362 L -15.7909 -21.5074 L -15.7425 -21.4786 L -15.694 -21.4498 L -15.6455 -21.421 L -15.597 -21.3922 L -15.5485 -21.3634 L -15.5 -21.3345 L -15.4514 -21.3056 L -15.4029 -21.2767 L -15.3543 -21.2478 L -15.3058 -21.2189 L -15.2572 -21.19 L -15.2086 -21.161 L -15.16 -21.1321 L -15.1114 -21.1031 L -15.0628 -21.0741 L -15.0141 -21.0451 L -14.9655 -21.0161 L -14.9655 -21.0161 L -14.977 -21.0715 L -14.9885 -21.127 L -15 -21.1824 L -15.0115 -21.2378 L -15.023 -21.2932 L -15.0344 -21.3486 L -15.0459 -21.404 L -15.0573 -21.4593 L -15.0688 -21.5147 L -15.0802 -21.57 L -15.0916 -21.6253 L -15.103 -21.6806 L -15.1144 -21.7359 L -15.1257 -21.7911 L -15.1371 -21.8464 L -15.1485 -21.9016 L -15.1598 -21.9568 L -15.1712 -22.012 L -15.1825 -22.0672 L -15.1938 -22.1224 L -15.2051 -22.1775 L -15.2164 -22.2327 L -15.2277 -22.2878 L -15.239 -22.3429 L -15.2502 -22.398 L -15.2615 -22.4531 L -15.2727 -22.5082 L -15.284 -22.5632 L -15.2952 -22.6183 L -15.3064 -22.6733 L -15.3176 -22.7283 L -15.3288 -22.7833 L -15.34 -22.8383 L -15.3512 -22.8933 L -15.3623 -22.9482 L -15.3735 -23.0032 L -15.3847 -23.0581 L -15.3958 -23.113 L -15.4069 -23.1679 L -15.4181 -23.2228 L -15.3748 -23.2515 L -15.3315 -23.28 L -15.2882 -23.3085 L -15.2448 -23.3369 L -15.2013 -23.3653 L -15.1578 -23.3935 L -15.1142 -23.4217 L -15.0706 -23.4498 L -15.027 -23.4778 L -14.9832 -23.5057 L -14.9395 -23.5335 L -14.8956 -23.5613 L -14.8518 -23.589 L -14.8079 -23.6166 L -14.7639 -23.6441 L -14.7198 -23.6715 L -14.6758 -23.6989 L -14.6316 -23.7262 L -14.5875 -23.7533 L -14.5432 -23.7805 L -14.499 -23.8075 L -14.4546 -23.8344 L -14.4102 -23.8613 L -14.3658 -23.8881 L -14.3213 -23.9147 L -14.2768 -23.9414 L -14.2322 -23.9679 L -14.1876 -23.9943 L -14.1429 -24.0207 L -14.0982 -24.047 L -14.0534 -24.0732 L -14.0086 -24.0993 L -13.8663 -24.1814 L -13.8213 -24.2072 L -13.7762 -24.2329 L -13.7311 -24.2585 L -13.6859 -24.284 L -13.6407 -24.3094 L -13.5954 -24.3348 L -13.5501 -24.36 L -13.5048 -24.3852 L -13.4594 -24.4103 L -13.4139 -24.4353 L -13.3684 -24.4602 L -13.3229 -24.485 L -13.2773 -24.5098 L -13.2316 -24.5345 L -13.186 -24.559 L -13.1402 -24.5835 L -13.0945 -24.6079 L -13.0486 -24.6323 L -13.0028 -24.6565 L -12.9569 -24.6807 L -12.9109 -24.7047 L -12.8649 -24.7287 L -12.8189 -24.7526 L -12.7728 -24.7764 L -12.7267 -24.8002 L -12.6805 -24.8238 L -12.6343 -24.8474 L -12.588 -24.8708 L -12.5417 -24.8942 L -12.4953 -24.9175 L -12.449 -24.9407 L -12.4025 -24.9638 L -12.3605 -24.9268 L -12.3186 -24.8897 L -12.2766 -24.8526 L -12.2346 -24.8154 L -12.1926 -24.7783 L -12.1506 -24.7411 L -12.1086 -24.704 L -12.0665 -24.6668 L -12.0245 -24.6296 L -11.9825 -24.5924 L -11.9404 -24.5552 L -11.8984 -24.5179 L -11.8563 -24.4807 L -11.8142 -24.4434 L -11.7722 -24.4061 L -11.7301 -24.3688 L -11.688 -24.3315 L -11.6459 -24.2941 L -11.6038 -24.2568 L -11.5617 -24.2194 L -11.5195 -24.182 L -11.4774 -24.1446 L -11.4353 -24.1072 L -11.3931 -24.0698 L -11.351 -24.0323 L -11.3088 -23.9949 L -11.2666 -23.9574 L -11.2245 -23.9199 L -11.1823 -23.8823 L -11.1401 -23.8448 L -11.0979 -23.8073 L -11.0557 -23.7697 L -11.0135 -23.7321 L -10.9712 -23.6945 L -10.929 -23.6569 L -10.8868 -23.6192 L -10.8445 -23.5816 L -10.8022 -23.5439 L -10.76 -23.5062 L -10.7177 -23.4685 L -10.7177 -23.4685 L -10.7185 -23.5252 L -10.7193 -23.5818 L -10.7201 -23.6384 L -10.7209 -23.695 L -10.7217 -23.7515 L -10.7225 -23.8081 L -10.7233 -23.8646 L -10.724 -23.9212 L -10.7248 -23.9777 L -10.7255 -24.0341 L -10.7262 -24.0906 L -10.727 -24.1471 L -10.7277 -24.2035 L -10.7284 -24.2599 L -10.7291 -24.3163 L -10.7298 -24.3727 L -10.7305 -24.4291 L -10.7312 -24.4854 L -10.7319 -24.5417 L -10.7325 -24.5981 L -10.7332 -24.6544 L -10.7338 -24.7106 L -10.7345 -24.7669 L -10.7351 -24.8232 L -10.7358 -24.8794 L -10.7364 -24.9356 L -10.737 -24.9918 L -10.7376 -25.048 L -10.7382 -25.1042 L -10.7388 -25.1603 L -10.7394 -25.2165 L -10.74 -25.2726 L -10.7406 -25.3287 L -10.7412 -25.3848 L -10.7417 -25.4409 L -10.7423 -25.4969 L -10.7429 -25.553 L -10.7434 -25.609 L -10.744 -25.665 L -10.7445 -25.721 L -10.6966 -25.741 L -10.6487 -25.7608 L -10.6007 -25.7806 L -10.5527 -25.8003 L -10.5047 -25.8199 L -10.4566 -25.8394 L -10.4085 -25.8588 L -10.3604 -25.8781 L -10.3122 -25.8974 L -10.264 -25.9165 L -10.2157 -25.9356 L -10.1675 -25.9545 L -10.1191 -25.9734 L -10.0708 -25.9922 L -10.0224 -26.0109 L -9.97397 -26.0295 L -9.92552 -26.048 L -9.87702 -26.0665 L -9.8285 -26.0848 L -9.77994 -26.103 L -9.73134 -26.1212 L -9.68271 -26.1393 L -9.63405 -26.1572 L -9.58536 -26.1751 L -9.53663 -26.1929 L -9.48787 -26.2106 L -9.43907 -26.2282 L -9.39025 -26.2457 L -9.34139 -26.2632 L -9.2925 -26.2805 L -9.24357 -26.2978 L -9.19462 -26.3149 L -9.03934 -26.3687 L -8.99026 -26.3854 L -8.94114 -26.4021 L -8.89199 -26.4187 L -8.84281 -26.4352 L -8.7936 -26.4516 L -8.74435 -26.4679 L -8.69508 -26.4842 L -8.64578 -26.5003 L -8.59645 -26.5163 L -8.54709 -26.5323 L -8.4977 -26.5482 L -8.44828 -26.5639 L -8.39883 -26.5796 L -8.34935 -26.5952 L -8.29984 -26.6107 L -8.2503 -26.6261 L -8.20074 -26.6414 L -8.15115 -26.6566 L -8.10152 -26.6717 L -8.05187 -26.6868 L -8.0022 -26.7017 L -7.95249 -26.7165 L -7.90276 -26.7313 L -7.853 -26.746 L -7.80321 -26.7605 L -7.7534 -26.775 L -7.70356 -26.7894 L -7.65369 -26.8037 L -7.60379 -26.8179 L -7.55387 -26.832 L -7.50393 -26.846 L -7.45395 -26.8599 L -7.41975 -26.8155 L -7.38555 -26.7712 L -7.35135 -26.7268 L -7.31713 -26.6824 L -7.28292 -26.638 L -7.2487 -26.5935 L -7.21448 -26.5491 L -7.18025 -26.5046 L -7.14602 -26.4602 L -7.11178 -26.4157 L -7.07754 -26.3711 L -7.04329 -26.3266 L -7.00904 -26.2821 L -6.97479 -26.2375 L -6.94053 -26.1929 L -6.90627 -26.1483 L -6.872 -26.1037 L -6.83773 -26.0591 L -6.80345 -26.0144 L -6.76917 -25.9698 L -6.73488 -25.9251 L -6.70059 -25.8804 L -6.6663 -25.8357 L -6.632 -25.791 L -6.59769 -25.7462 L -6.56339 -25.7014 L -6.52907 -25.6567 L -6.49476 -25.6118 L -6.46043 -25.567 L -6.42611 -25.5222 L -6.39177 -25.4773 L -6.35744 -25.4324 L -6.3231 -25.3875 L -6.28875 -25.3426 L -6.2544 -25.2977 L -6.22005 -25.2527 L -6.18569 -25.2078 L -6.15132 -25.1628 L -6.11695 -25.1178 L -6.08258 -25.0727 L -6.08258 -25.0727 L -6.07266 -25.1285 L -6.06274 -25.1843 L -6.05281 -25.24 L -6.04288 -25.2957 L -6.03294 -25.3514 L -6.023 -25.4071 L -6.01305 -25.4628 L -6.0031 -25.5184 L -5.99315 -25.574 L -5.98319 -25.6296 L -5.97323 -25.6852 L -5.96326 -25.7408 L -5.95329 -25.7963 L -5.94331 -25.8519 L -5.93333 -25.9074 L -5.92335 -25.9629 L -5.91336 -26.0184 L -5.90336 -26.0738 L -5.89337 -26.1293 L -5.88337 -26.1847 L -5.87336 -26.2401 L -5.86336 -26.2955 L -5.85334 -26.3508 L -5.84333 -26.4062 L -5.83331 -26.4615 L -5.82328 -26.5169 L -5.81326 -26.5722 L -5.80323 -26.6275 L -5.79319 -26.6827 L -5.78315 -26.738 L -5.77311 -26.7932 L -5.76307 -26.8484 L -5.75302 -26.9036 L -5.74297 -26.9588 L -5.73291 -27.014 L -5.72285 -27.0692 L -5.71279 -27.1243 L -5.70272 -27.1794 L -5.69265 -27.2345 L -5.68258 -27.2896 L -5.63179 -27.3002 L -5.58097 -27.3106 L -5.53014 -27.3209 L -5.47928 -27.3312 L -5.42841 -27.3413 L -5.37752 -27.3514 L -5.32661 -27.3613 L -5.27568 -27.3712 L -5.22474 -27.381 L -5.17377 -27.3907 L -5.12279 -27.4002 L -5.07179 -27.4097 L -5.02077 -27.4191 L -4.96973 -27.4284 L -4.91868 -27.4376 L -4.86761 -27.4467 L -4.81653 -27.4557 L -4.76542 -27.4646 L -4.7143 -27.4735 L -4.66317 -27.4822 L -4.61202 -27.4908 L -4.56085 -27.4994 L -4.50966 -27.5078 L -4.45846 -27.5161 L -4.40725 -27.5244 L -4.35602 -27.5325 L -4.30477 -27.5406 L -4.25351 -27.5486 L -4.20224 -27.5564 L -4.15095 -27.5642 L -4.09965 -27.5719 L -4.04833 -27.5795 L -3.88569 -27.6028 L -3.83431 -27.61 L -3.78293 -27.6171 L -3.73152 -27.6241 L -3.68011 -27.631 L -3.62868 -27.6378 L -3.57724 -27.6445 L -3.52579 -27.6511 L -3.47433 -27.6576 L -3.42285 -27.6641 L -3.37136 -27.6704 L -3.31986 -27.6766 L -3.26835 -27.6827 L -3.21683 -27.6888 L -3.16529 -27.6947 L -3.11375 -27.7005 L -3.06219 -27.7063 L -3.01063 -27.7119 L -2.95905 -27.7175 L -2.90746 -27.723 L -2.85586 -27.7283 L -2.80426 -27.7336 L -2.75264 -27.7388 L -2.70102 -27.7438 L -2.64938 -27.7488 L -2.59773 -27.7537 L -2.54608 -27.7585 L -2.49442 -27.7632 L -2.44275 -27.7678 L -2.39107 -27.7723 L -2.33938 -27.7767 L -2.28768 -27.781 L -2.23598 -27.7852 L -2.21079 -27.7352 L -2.18561 -27.6851 L -2.16042 -27.6351 L -2.13523 -27.585 L -2.11004 -27.5349 L -2.08485 -27.4848 L -2.05965 -27.4347 L -2.03446 -27.3845 L -2.00926 -27.3344 L -1.98406 -27.2842 L -1.95887 -27.234 L -1.93367 -27.1838 L -1.90847 -27.1336 L -1.88326 -27.0834 L -1.85806 -27.0331 L -1.83286 -26.9828 L -1.80765 -26.9325 L -1.78244 -26.8822 L -1.75724 -26.8319 L -1.73203 -26.7816 L -1.70682 -26.7312 L -1.6816 -26.6808 L -1.65639 -26.6304 L -1.63118 -26.58 L -1.60596 -26.5296 L -1.58075 -26.4791 L -1.55553 -26.4286 L -1.53031 -26.3781 L -1.50509 -26.3276 L -1.47987 -26.2771 L -1.45465 -26.2266 L -1.42943 -26.176 L -1.40421 -26.1254 L -1.37898 -26.0748 L -1.35376 -26.0242 L -1.32853 -25.9735 L -1.3033 -25.9229 L -1.27807 -25.8722 L -1.25284 -25.8215 L -1.22761 -25.7708 L -1.22761 -25.7708 L -1.20732 -25.8237 L -1.18702 -25.8765 L -1.16673 -25.9294 L -1.14643 -25.9822 L -1.12613 -26.035 L -1.10583 -26.0878 L -1.08553 -26.1406 L -1.06523 -26.1933 L -1.04493 -26.2461 L -1.02463 -26.2988 L -1.00432 -26.3515 L -0.984019 -26.4042 L -0.963715 -26.4568 L -0.943409 -26.5095 L -0.923103 -26.5621 L -0.902797 -26.6147 L -0.88249 -26.6673 L -0.862182 -26.7198 L -0.841874 -26.7724 L -0.821565 -26.8249 L -0.801255 -26.8774 L -0.780945 -26.9299 L -0.760635 -26.9824 L -0.740324 -27.0349 L -0.720012 -27.0873 L -0.6997 -27.1397 L -0.679388 -27.1921 L -0.659075 -27.2445 L -0.638762 -27.2969 L -0.618448 -27.3493 L -0.598134 -27.4016 L -0.57782 -27.4539 L -0.557505 -27.5062 L -0.53719 -27.5585 L -0.516875 -27.6108 L -0.496559 -27.663 L -0.476243 -27.7153 L -0.455927 -27.7675 L -0.43561 -27.8197 L -0.415294 -27.8719 L -0.363424 -27.8726 L -0.311553 -27.8733 L -0.25968 -27.8738 L -0.207807 -27.8742 L -0.155933 -27.8746 L -0.104059 -27.8748 L -0.052184 -27.875 L -0.000309029 -27.875 L 0.0515659 -27.875 L 0.103441 -27.8748 L 0.155315 -27.8746 L 0.207189 -27.8742 L 0.259062 -27.8738 L 0.310935 -27.8733 L 0.362806 -27.8726 L 0.414676 -27.8719 L 0.466544 -27.8711 L 0.518411 -27.8702 L 0.570276 -27.8692 L 0.622139 -27.8681 L 0.674 -27.8669 L 0.725859 -27.8655 L 0.777715 -27.8641 L 0.829568 -27.8627 L 0.881419 -27.8611 L 0.933267 -27.8594 L 0.985111 -27.8576 L 1.03695 -27.8557 L 1.08879 -27.8537 L 1.14062 -27.8517 L 1.19245 -27.8495 L 1.24428 -27.8472 L 1.4084 -27.8394 L 1.46021 -27.8367 L 1.51201 -27.834 L 1.56381 -27.8311 L 1.6156 -27.8281 L 1.66738 -27.8251 L 1.71916 -27.8219 L 1.77093 -27.8187 L 1.8227 -27.8153 L 1.87446 -27.8119 L 1.92622 -27.8084 L 1.97796 -27.8047 L 2.0297 -27.801 L 2.08144 -27.7972 L 2.13317 -27.7933 L 2.18488 -27.7892 L 2.2366 -27.7851 L 2.2883 -27.7809 L 2.34 -27.7766 L 2.39168 -27.7722 L 2.44336 -27.7677 L 2.49503 -27.7631 L 2.5467 -27.7584 L 2.59835 -27.7536 L 2.64999 -27.7488 L 2.70163 -27.7438 L 2.75326 -27.7387 L 2.80487 -27.7335 L 2.85648 -27.7283 L 2.90808 -27.7229 L 2.95966 -27.7174 L 3.01124 -27.7119 L 3.06281 -27.7062 L 3.07807 -27.6523 L 3.09333 -27.5984 L 3.10859 -27.5445 L 3.12385 -27.4906 L 3.13911 -27.4366 L 3.15436 -27.3827 L 3.16961 -27.3287 L 3.18486 -27.2747 L 3.20011 -27.2207 L 3.21536 -27.1666 L 3.23061 -27.1126 L 3.24585 -27.0585 L 3.26109 -27.0044 L 3.27633 -26.9503 L 3.29156 -26.8962 L 3.3068 -26.8421 L 3.32203 -26.7879 L 3.33726 -26.7338 L 3.35249 -26.6796 L 3.36772 -26.6254 L 3.38294 -26.5711 L 3.39816 -26.5169 L 3.41338 -26.4626 L 3.4286 -26.4084 L 3.44381 -26.3541 L 3.45902 -26.2998 L 3.47423 -26.2454 L 3.48944 -26.1911 L 3.50464 -26.1367 L 3.51985 -26.0823 L 3.53505 -26.0279 L 3.55024 -25.9735 L 3.56544 -25.919 L 3.58063 -25.8646 L 3.59582 -25.8101 L 3.611 -25.7556 L 3.62619 -25.7011 L 3.64137 -25.6465 L 3.65655 -25.592 L 3.67172 -25.5374 L 3.67172 -25.5374 L 3.70166 -25.5855 L 3.7316 -25.6336 L 3.76153 -25.6816 L 3.79146 -25.7297 L 3.82138 -25.7777 L 3.85131 -25.8257 L 3.88123 -25.8736 L 3.91114 -25.9216 L 3.94106 -25.9695 L 3.97097 -26.0175 L 4.00088 -26.0654 L 4.03079 -26.1132 L 4.06069 -26.1611 L 4.09059 -26.2089 L 4.12049 -26.2568 L 4.15038 -26.3046 L 4.18027 -26.3524 L 4.21016 -26.4002 L 4.24005 -26.4479 L 4.26993 -26.4956 L 4.29981 -26.5434 L 4.32969 -26.5911 L 4.35956 -26.6387 L 4.38944 -26.6864 L 4.41931 -26.7341 L 4.44917 -26.7817 L 4.47904 -26.8293 L 4.5089 -26.8769 L 4.53875 -26.9245 L 4.56861 -26.9721 L 4.59846 -27.0196 L 4.62831 -27.0671 L 4.65816 -27.1147 L 4.688 -27.1622 L 4.71784 -27.2096 L 4.74768 -27.2571 L 4.77752 -27.3046 L 4.80735 -27.352 L 4.83718 -27.3994 L 4.867 -27.4468 L 4.91807 -27.4377 L 4.96913 -27.4285 L 5.02016 -27.4192 L 5.07118 -27.4098 L 5.12218 -27.4003 L 5.17316 -27.3908 L 5.22413 -27.3811 L 5.27507 -27.3713 L 5.326 -27.3615 L 5.37691 -27.3515 L 5.4278 -27.3414 L 5.47868 -27.3313 L 5.52953 -27.3211 L 5.58037 -27.3107 L 5.63118 -27.3003 L 5.68198 -27.2898 L 5.73275 -27.2791 L 5.78351 -27.2684 L 5.83424 -27.2576 L 5.88496 -27.2467 L 5.93566 -27.2357 L 5.98633 -27.2246 L 6.03699 -27.2134 L 6.08762 -27.2021 L 6.13823 -27.1908 L 6.18882 -27.1793 L 6.23939 -27.1677 L 6.28994 -27.1561 L 6.34047 -27.1443 L 6.39097 -27.1325 L 6.44145 -27.1205 L 6.49191 -27.1085 L 6.65159 -27.0698 L 6.70196 -27.0573 L 6.7523 -27.0448 L 6.80262 -27.0322 L 6.85291 -27.0195 L 6.90318 -27.0067 L 6.95343 -26.9938 L 7.00365 -26.9808 L 7.05385 -26.9677 L 7.10403 -26.9546 L 7.15418 -26.9413 L 7.2043 -26.9279 L 7.2544 -26.9145 L 7.30448 -26.9009 L 7.35452 -26.8873 L 7.40455 -26.8736 L 7.45455 -26.8597 L 7.50452 -26.8458 L 7.55447 -26.8318 L 7.60439 -26.8177 L 7.65428 -26.8035 L 7.70415 -26.7892 L 7.75399 -26.7748 L 7.8038 -26.7603 L 7.85359 -26.7458 L 7.90335 -26.7311 L 7.95308 -26.7164 L 8.00279 -26.7015 L 8.05247 -26.6866 L 8.10212 -26.6715 L 8.15174 -26.6564 L 8.20133 -26.6412 L 8.25089 -26.6259 L 8.25568 -26.5701 L 8.26047 -26.5143 L 8.26525 -26.4584 L 8.27003 -26.4026 L 8.2748 -26.3467 L 8.27956 -26.2909 L 8.28432 -26.235 L 8.28908 -26.1791 L 8.29383 -26.1231 L 8.29857 -26.0672 L 8.30331 -26.0112 L 8.30805 -25.9553 L 8.31278 -25.8993 L 8.3175 -25.8433 L 8.32222 -25.7872 L 8.32694 -25.7312 L 8.33165 -25.6751 L 8.33635 -25.6191 L 8.34105 -25.563 L 8.34574 -25.5069 L 8.35043 -25.4507 L 8.35511 -25.3946 L 8.35978 -25.3384 L 8.36445 -25.2823 L 8.36912 -25.2261 L 8.37377 -25.1699 L 8.37843 -25.1136 L 8.38307 -25.0574 L 8.38771 -25.0011 L 8.39235 -24.9448 L 8.39698 -24.8885 L 8.4016 -24.8322 L 8.40622 -24.7759 L 8.41083 -24.7195 L 8.41543 -24.6632 L 8.42003 -24.6068 L 8.42462 -24.5504 L 8.4292 -24.4939 L 8.43378 -24.4375 L 8.43835 -24.381 L 8.43835 -24.381 L 8.47685 -24.4226 L 8.51534 -24.4641 L 8.55383 -24.5056 L 8.59231 -24.5471 L 8.63078 -24.5886 L 8.66925 -24.6301 L 8.70771 -24.6715 L 8.74616 -24.713 L 8.78461 -24.7544 L 8.82305 -24.7958 L 8.86148 -24.8372 L 8.89991 -24.8785 L 8.93833 -24.9198 L 8.97674 -24.9612 L 9.01515 -25.0025 L 9.05355 -25.0438 L 9.09195 -25.085 L 9.13034 -25.1263 L 9.16872 -25.1675 L 9.2071 -25.2087 L 9.24547 -25.2499 L 9.28384 -25.2911 L 9.3222 -25.3323 L 9.36055 -25.3735 L 9.3989 -25.4146 L 9.43724 -25.4557 L 9.47558 -25.4968 L 9.5139 -25.5379 L 9.55223 -25.579 L 9.59054 -25.62 L 9.62886 -25.6611 L 9.66716 -25.7021 L 9.70546 -25.7431 L 9.74376 -25.7841 L 9.78204 -25.8251 L 9.82033 -25.866 L 9.8586 -25.907 L 9.89687 -25.9479 L 9.93514 -25.9888 L 9.9734 -26.0297 L 10.0218 -26.0111 L 10.0702 -25.9924 L 10.1186 -25.9736 L 10.1669 -25.9548 L 10.2152 -25.9358 L 10.2634 -25.9168 L 10.3116 -25.8976 L 10.3598 -25.8784 L 10.4079 -25.859 L 10.4561 -25.8396 L 10.5041 -25.8201 L 10.5522 -25.8005 L 10.6001 -25.7809 L 10.6481 -25.7611 L 10.696 -25.7412 L 10.7439 -25.7213 L 10.7918 -25.7012 L 10.8396 -25.6811 L 10.8873 -25.6609 L 10.9351 -25.6406 L 10.9828 -25.6202 L 11.0304 -25.5997 L 11.0781 -25.5791 L 11.1256 -25.5585 L 11.1732 -25.5377 L 11.2207 -25.5169 L 11.2682 -25.496 L 11.3156 -25.4749 L 11.363 -25.4538 L 11.4103 -25.4327 L 11.4576 -25.4114 L 11.5049 -25.39 L 11.6544 -25.3218 L 11.7015 -25.3 L 11.7485 -25.2782 L 11.7956 -25.2563 L 11.8425 -25.2343 L 11.8895 -25.2122 L 11.9364 -25.19 L 11.9832 -25.1678 L 12.0301 -25.1454 L 12.0768 -25.123 L 12.1236 -25.1005 L 12.1703 -25.0779 L 12.2169 -25.0552 L 12.2635 -25.0324 L 12.3101 -25.0096 L 12.3566 -24.9866 L 12.4031 -24.9636 L 12.4495 -24.9404 L 12.4959 -24.9172 L 12.5422 -24.8939 L 12.5886 -24.8705 L 12.6348 -24.8471 L 12.681 -24.8235 L 12.7272 -24.7999 L 12.7733 -24.7761 L 12.8194 -24.7523 L 12.8655 -24.7284 L 12.9115 -24.7044 L 12.9574 -24.6804 L 13.0033 -24.6562 L 13.0492 -24.632 L 13.095 -24.6077 L 13.1408 -24.5832 L 13.1349 -24.5275 L 13.1291 -24.4718 L 13.1232 -24.4161 L 13.1173 -24.3604 L 13.1114 -24.3046 L 13.1055 -24.2488 L 13.0996 -24.193 L 13.0937 -24.1372 L 13.0878 -24.0814 L 13.0819 -24.0256 L 13.0759 -23.9698 L 13.07 -23.9139 L 13.064 -23.858 L 13.0581 -23.8021 L 13.0521 -23.7462 L 13.0461 -23.6903 L 13.0401 -23.6344 L 13.0341 -23.5784 L 13.0281 -23.5225 L 13.0221 -23.4665 L 13.0161 -23.4105 L 13.0101 -23.3545 L 13.004 -23.2984 L 12.998 -23.2424 L 12.9919 -23.1863 L 12.9859 -23.1303 L 12.9798 -23.0742 L 12.9737 -23.0181 L 12.9676 -22.9619 L 12.9615 -22.9058 L 12.9554 -22.8496 L 12.9493 -22.7935 L 12.9432 -22.7373 L 12.937 -22.6811 L 12.9309 -22.6248 L 12.9247 -22.5686 L 12.9186 -22.5123 L 12.9124 -22.4561 L 12.9062 -22.3998 L 12.9 -22.3435 L 12.9 -22.3435 L 12.9457 -22.377 L 12.9913 -22.4105 L 13.037 -22.444 L 13.0826 -22.4774 L 13.1282 -22.5109 L 13.1739 -22.5443 L 13.2195 -22.5778 L 13.2651 -22.6112 L 13.3107 -22.6445 L 13.3562 -22.6779 L 13.4018 -22.7113 L 13.4474 -22.7446 L 13.4929 -22.7779 L 13.5385 -22.8112 L 13.584 -22.8445 L 13.6295 -22.8778 L 13.675 -22.9111 L 13.7205 -22.9443 L 13.766 -22.9775 L 13.8115 -23.0107 L 13.857 -23.0439 L 13.9024 -23.0771 L 13.9479 -23.1103 L 13.9934 -23.1434 L 14.0388 -23.1766 L 14.0842 -23.2097 L 14.1296 -23.2428 L 14.1751 -23.2759 L 14.2205 -23.309 L 14.2659 -23.342 L 14.3112 -23.3751 L 14.3566 -23.4081 L 14.402 -23.4411 L 14.4473 -23.4741 L 14.4927 -23.5071 L 14.538 -23.5401 L 14.5834 -23.5731 L 14.6287 -23.606 L 14.674 -23.6389 L 14.7193 -23.6719 L 14.7634 -23.6444 L 14.8073 -23.6169 L 14.8513 -23.5893 L 14.8951 -23.5616 L 14.9389 -23.5339 L 14.9827 -23.506 L 15.0264 -23.4781 L 15.0701 -23.4501 L 15.1137 -23.422 L 15.1573 -23.3939 L 15.2008 -23.3656 L 15.2442 -23.3373 L 15.2876 -23.3089 L 15.331 -23.2804 L 15.3743 -23.2518 L 15.4175 -23.2232 L 15.4607 -23.1944 L 15.5039 -23.1656 L 15.547 -23.1367 L 15.59 -23.1077 L 15.633 -23.0787 L 15.6759 -23.0496 L 15.7188 -23.0203 L 15.7616 -22.9911 L 15.8043 -22.9617 L 15.847 -22.9322 L 15.8897 -22.9027 L 15.9323 -22.8731 L 15.9748 -22.8434 L 16.0173 -22.8136 L 16.0597 -22.7838 L 16.1021 -22.7539 L 16.2359 -22.6586 L 16.2781 -22.6283 L 16.3202 -22.598 L 16.3622 -22.5676 L 16.4042 -22.5371 L 16.4461 -22.5065 L 16.4879 -22.4759 L 16.5297 -22.4451 L 16.5715 -22.4143 L 16.6131 -22.3835 L 16.6548 -22.3525 L 16.6963 -22.3215 L 16.7379 -22.2904 L 16.7793 -22.2592 L 16.8207 -22.2279 L 16.862 -22.1966 L 16.9033 -22.1651 L 16.9445 -22.1336 L 16.9857 -22.1021 L 17.0268 -22.0704 L 17.0678 -22.0387 L 17.1088 -22.0069 L 17.1498 -21.975 L 17.1906 -21.9431 L 17.2314 -21.911 L 17.2722 -21.8789 L 17.3129 -21.8468 L 17.3535 -21.8145 L 17.3941 -21.7822 L 17.4346 -21.7498 L 17.475 -21.7173 L 17.5154 -21.6847 L 17.5557 -21.6521 L 17.5394 -21.5985 L 17.5231 -21.5449 L 17.5068 -21.4913 L 17.4905 -21.4377 L 17.4741 -21.384 L 17.4578 -21.3304 L 17.4414 -21.2767 L 17.4251 -21.2231 L 17.4087 -21.1694 L 17.3923 -21.1157 L 17.3759 -21.062 L 17.3595 -21.0082 L 17.3431 -20.9545 L 17.3267 -20.9007 L 17.3102 -20.847 L 17.2938 -20.7932 L 17.2773 -20.7394 L 17.2608 -20.6856 L 17.2444 -20.6318 L 17.2279 -20.578 L 17.2114 -20.5241 L 17.1948 -20.4703 L 17.1783 -20.4164 L 17.1618 -20.3625 L 17.1452 -20.3086 L 17.1286 -20.2547 L 17.1121 -20.2007 L 17.0955 -20.1468 L 17.0789 -20.0928 L 17.0622 -20.0389 L 17.0456 -19.9849 L 17.029 -19.9309 L 17.0123 -19.8769 L 16.9957 -19.8228 L 16.979 -19.7688 L 16.9623 -19.7147 L 16.9456 -19.6607 L 16.9289 -19.6066 L 16.9121 -19.5525 L 16.8954 -19.4983 L 16.8954 -19.4983 L 16.9466 -19.5226 L 16.9978 -19.5469 L 17.0489 -19.5711 L 17.1001 -19.5953 L 17.1512 -19.6196 L 17.2023 -19.6438 L 17.2534 -19.6679 L 17.3045 -19.6921 L 17.3556 -19.7163 L 17.4067 -19.7404 L 17.4577 -19.7645 L 17.5088 -19.7886 L 17.5598 -19.8127 L 17.6109 -19.8368 L 17.6619 -19.8609 L 17.7129 -19.885 L 17.7638 -19.909 L 17.8148 -19.933 L 17.8658 -19.9571 L 17.9167 -19.9811 L 17.9677 -20.005 L 18.0186 -20.029 L 18.0695 -20.053 L 18.1204 -20.0769 L 18.1713 -20.1009 L 18.2222 -20.1248 L 18.273 -20.1487 L 18.3239 -20.1726 L 18.3747 -20.1965 L 18.4256 -20.2204 L 18.4764 -20.2442 L 18.5272 -20.2681 L 18.578 -20.2919 L 18.6288 -20.3157 L 18.6795 -20.3396 L 18.7303 -20.3634 L 18.7811 -20.3871 L 18.8318 -20.4109 L 18.8825 -20.4347 L 18.9333 -20.4584 L 18.9713 -20.4232 L 19.0093 -20.3878 L 19.0472 -20.3524 L 19.085 -20.3169 L 19.1228 -20.2814 L 19.1605 -20.2458 L 19.1982 -20.2101 L 19.2357 -20.1743 L 19.2732 -20.1385 L 19.3107 -20.1026 L 19.3481 -20.0666 L 19.3854 -20.0306 L 19.4226 -19.9944 L 19.4598 -19.9583 L 19.4969 -19.922 L 19.5339 -19.8857 L 19.5709 -19.8493 L 19.6078 -19.8129 L 19.6447 -19.7763 L 19.6814 -19.7397 L 19.7181 -19.7031 L 19.7548 -19.6663 L 19.7913 -19.6295 L 19.8278 -19.5927 L 19.8642 -19.5557 L 19.9006 -19.5187 L 19.9369 -19.4817 L 19.9731 -19.4445 L 20.0093 -19.4073 L 20.0453 -19.3701 L 20.0814 -19.3327 L 20.1173 -19.2953 L 20.2307 -19.1764 L 20.2663 -19.1387 L 20.3019 -19.101 L 20.3374 -19.0632 L 20.3729 -19.0253 L 20.4082 -18.9873 L 20.4435 -18.9493 L 20.4788 -18.9112 L 20.5139 -18.8731 L 20.549 -18.8349 L 20.584 -18.7966 L 20.619 -18.7583 L 20.6539 -18.7199 L 20.6887 -18.6814 L 20.7234 -18.6429 L 20.758 -18.6043 L 20.7926 -18.5656 L 20.8271 -18.5269 L 20.8616 -18.4881 L 20.896 -18.4492 L 20.9303 -18.4103 L 20.9645 -18.3713 L 20.9986 -18.3323 L 21.0327 -18.2932 L 21.0667 -18.254 L 21.1007 -18.2148 L 21.1345 -18.1755 L 21.1683 -18.1361 L 21.202 -18.0967 L 21.2357 -18.0572 L 21.2692 -18.0176 L 21.3027 -17.978 L 21.3361 -17.9384 L 21.31 -17.8888 L 21.2839 -17.8393 L 21.2577 -17.7897 L 21.2315 -17.7402 L 21.2053 -17.6906 L 21.1791 -17.641 L 21.1529 -17.5914 L 21.1267 -17.5418 L 21.1004 -17.4922 L 21.0742 -17.4426 L 21.0479 -17.3929 L 21.0216 -17.3433 L 20.9954 -17.2936 L 20.969 -17.2439 L 20.9427 -17.1943 L 20.9164 -17.1446 L 20.8901 -17.0949 L 20.8637 -17.0452 L 20.8373 -16.9954 L 20.8109 -16.9457 L 20.7845 -16.8959 L 20.7581 -16.8462 L 20.7317 -16.7964 L 20.7052 -16.7466 L 20.6788 -16.6968 L 20.6523 -16.647 L 20.6258 -16.5972 L 20.5993 -16.5474 L 20.5728 -16.4975 L 20.5463 -16.4477 L 20.5197 -16.3978 L 20.4932 -16.3479 L 20.4666 -16.2981 L 20.44 -16.2482 L 20.4134 -16.1982 L 20.3868 -16.1483 L 20.3602 -16.0984 L 20.3335 -16.0484 L 20.3069 -15.9985 L 20.2802 -15.9485 L 20.2802 -15.9485 L 20.335 -15.9626 L 20.3899 -15.9768 L 20.4447 -15.9909 L 20.4995 -16.005 L 20.5543 -16.0191 L 20.6091 -16.0332 L 20.6638 -16.0473 L 20.7186 -16.0613 L 20.7733 -16.0754 L 20.828 -16.0894 L 20.8827 -16.1035 L 20.9374 -16.1175 L 20.9921 -16.1315 L 21.0467 -16.1455 L 21.1014 -16.1595 L 21.156 -16.1734 L 21.2106 -16.1874 L 21.2652 -16.2013 L 21.3198 -16.2153 L 21.3744 -16.2292 L 21.4289 -16.2431 L 21.4835 -16.257 L 21.538 -16.2709 L 21.5925 -16.2848 L 21.647 -16.2987 L 21.7015 -16.3125 L 21.756 -16.3264 L 21.8104 -16.3402 L 21.8649 -16.3541 L 21.9193 -16.3679 L 21.9737 -16.3817 L 22.0281 -16.3955 L 22.0825 -16.4093 L 22.1369 -16.4231 L 22.1913 -16.4369 L 22.2456 -16.4506 L 22.3 -16.4644 L 22.3543 -16.4781 L 22.4086 -16.4919 L 22.4629 -16.5056 L 22.4936 -16.4637 L 22.5242 -16.4219 L 22.5547 -16.3799 L 22.5851 -16.3379 L 22.6155 -16.2959 L 22.6458 -16.2537 L 22.676 -16.2116 L 22.7061 -16.1693 L 22.7362 -16.1271 L 22.7661 -16.0847 L 22.796 -16.0423 L 22.8259 -15.9999 L 22.8556 -15.9574 L 22.8853 -15.9148 L 22.9148 -15.8722 L 22.9443 -15.8295 L 22.9737 -15.7868 L 23.0031 -15.744 L 23.0323 -15.7012 L 23.0615 -15.6583 L 23.0906 -15.6153 L 23.1196 -15.5723 L 23.1486 -15.5293 L 23.1774 -15.4862 L 23.2062 -15.443 L 23.2349 -15.3998 L 23.2635 -15.3565 L 23.2921 -15.3132 L 23.3205 -15.2698 L 23.3489 -15.2264 L 23.3772 -15.1829 L 23.4054 -15.1394 L 23.4943 -15.0012 L 23.5221 -14.9574 L 23.5499 -14.9136 L 23.5776 -14.8698 L 23.6053 -14.8259 L 23.6328 -14.7819 L 23.6603 -14.7379 L 23.6877 -14.6939 L 23.715 -14.6498 L 23.7422 -14.6056 L 23.7693 -14.5614 L 23.7964 -14.5171 L 23.8234 -14.4728 L 23.8503 -14.4285 L 23.8771 -14.384 L 23.9038 -14.3396 L 23.9304 -14.2951 L 23.957 -14.2505 L 23.9835 -14.2059 L 24.0099 -14.1613 L 24.0362 -14.1165 L 24.0624 -14.0718 L 24.0886 -14.027 L 24.1146 -13.9821 L 24.1406 -13.9372 L 24.1665 -13.8923 L 24.1923 -13.8473 L 24.218 -13.8022 L 24.2437 -13.7571 L 24.2693 -13.712 L 24.2947 -13.6668 L 24.3201 -13.6216 L 24.3454 -13.5763 L 24.3104 -13.5326 L 24.2753 -13.4889 L 24.2403 -13.4452 L 24.2052 -13.4015 L 24.1701 -13.3578 L 24.135 -13.314 L 24.0998 -13.2703 L 24.0647 -13.2266 L 24.0295 -13.1828 L 23.9944 -13.139 L 23.9592 -13.0953 L 23.924 -13.0515 L 23.8888 -13.0077 L 23.8535 -12.9639 L 23.8183 -12.9201 L 23.783 -12.8763 L 23.7478 -12.8325 L 23.7125 -12.7886 L 23.6772 -12.7448 L 23.6418 -12.701 L 23.6065 -12.6571 L 23.5712 -12.6133 L 23.5358 -12.5694 L 23.5004 -12.5255 L 23.465 -12.4816 L 23.4296 -12.4377 L 23.3941 -12.3938 L 23.3587 -12.3499 L 23.3232 -12.306 L 23.2877 -12.262 L 23.2522 -12.2181 L 23.2167 -12.1742 L 23.1812 -12.1302 L 23.1456 -12.0862 L 23.1101 -12.0423 L 23.0745 -11.9983 L 23.0389 -11.9543 L 23.0033 -11.9103 L 22.9676 -11.8663 L 22.932 -11.8222 L 22.932 -11.8222 L 22.9885 -11.8258 L 23.045 -11.8293 L 23.1015 -11.8327 L 23.158 -11.8362 L 23.2145 -11.8397 L 23.2709 -11.8432 L 23.3274 -11.8466 L 23.3838 -11.8501 L 23.4402 -11.8535 L 23.4966 -11.8569 L 23.553 -11.8604 L 23.6093 -11.8638 L 23.6656 -11.8672 L 23.722 -11.8706 L 23.7783 -11.874 L 23.8345 -11.8774 L 23.8908 -11.8807 L 23.9471 -11.8841 L 24.0033 -11.8874 L 24.0595 -11.8908 L 24.1157 -11.8941 L 24.1719 -11.8975 L 24.2281 -11.9008 L 24.2842 -11.9041 L 24.3404 -11.9074 L 24.3965 -11.9107 L 24.4526 -11.914 L 24.5087 -11.9173 L 24.5648 -11.9206 L 24.6208 -11.9239 L 24.6769 -11.9271 L 24.7329 -11.9304 L 24.7889 -11.9336 L 24.8449 -11.9369 L 24.9009 -11.9401 L 24.9569 -11.9433 L 25.0129 -11.9466 L 25.0688 -11.9498 L 25.1247 -11.953 L 25.1807 -11.9562 L 25.2029 -11.9093 L 25.225 -11.8624 L 25.247 -11.8154 L 25.269 -11.7684 L 25.2908 -11.7214 L 25.3126 -11.6743 L 25.3343 -11.6271 L 25.3559 -11.58 L 25.3774 -11.5328 L 25.3988 -11.4855 L 25.4201 -11.4382 L 25.4414 -11.3909 L 25.4625 -11.3435 L 25.4836 -11.2961 L 25.5046 -11.2487 L 25.5254 -11.2012 L 25.5462 -11.1537 L 25.567 -11.1061 L 25.5876 -11.0585 L 25.6081 -11.0109 L 25.6286 -10.9632 L 25.6489 -10.9155 L 25.6692 -10.8678 L 25.6894 -10.82 L 25.7095 -10.7721 L 25.7295 -10.7243 L 25.7494 -10.6764 L 25.7692 -10.6284 L 25.7889 -10.5805 L 25.8086 -10.5324 L 25.8281 -10.4844 L 25.8476 -10.4363 L 25.9087 -10.2838 L 25.9278 -10.2355 L 25.9468 -10.1873 L 25.9657 -10.139 L 25.9845 -10.0906 L 26.0032 -10.0423 L 26.0219 -9.99385 L 26.0404 -9.9454 L 26.0589 -9.89692 L 26.0773 -9.84841 L 26.0956 -9.79987 L 26.1138 -9.75128 L 26.1319 -9.70267 L 26.1499 -9.65402 L 26.1678 -9.60534 L 26.1856 -9.55663 L 26.2034 -9.50788 L 26.221 -9.4591 L 26.2386 -9.41029 L 26.256 -9.36144 L 26.2734 -9.31256 L 26.2907 -9.26365 L 26.3079 -9.21471 L 26.325 -9.16573 L 26.342 -9.11673 L 26.3589 -9.06769 L 26.3757 -9.01862 L 26.3925 -8.96952 L 26.4091 -8.92039 L 26.4257 -8.87123 L 26.4422 -8.82203 L 26.4585 -8.77281 L 26.4748 -8.72355 L 26.4321 -8.68729 L 26.3894 -8.65101 L 26.3467 -8.61473 L 26.304 -8.57845 L 26.2613 -8.54216 L 26.2185 -8.50586 L 26.1757 -8.46956 L 26.133 -8.43326 L 26.0902 -8.39695 L 26.0473 -8.36063 L 26.0045 -8.32431 L 25.9617 -8.28799 L 25.9188 -8.25166 L 25.8759 -8.21532 L 25.833 -8.17898 L 25.7901 -8.14263 L 25.7472 -8.10628 L 25.7042 -8.06992 L 25.6613 -8.03356 L 25.6183 -7.99719 L 25.5753 -7.96082 L 25.5323 -7.92444 L 25.4892 -7.88806 L 25.4462 -7.85167 L 25.4031 -7.81528 L 25.36 -7.77888 L 25.3169 -7.74247 L 25.2738 -7.70606 L 25.2307 -7.66964 L 25.1875 -7.63322 L 25.1443 -7.59679 L 25.1011 -7.56036 L 25.0579 -7.52392 L 25.0147 -7.48748 L 24.9714 -7.45103 L 24.9282 -7.41458 L 24.8849 -7.37812 L 24.8416 -7.34165 L 24.7983 -7.30518 L 24.7549 -7.2687 L 24.7549 -7.2687 L 24.8111 -7.26145 L 24.8673 -7.25419 L 24.9234 -7.24692 L 24.9795 -7.23965 L 25.0356 -7.23238 L 25.0917 -7.2251 L 25.1478 -7.21781 L 25.2039 -7.21052 L 25.2599 -7.20322 L 25.3159 -7.19592 L 25.3719 -7.18861 L 25.4279 -7.1813 L 25.4838 -7.17398 L 25.5398 -7.16666 L 25.5957 -7.15933 L 25.6516 -7.152 L 25.7075 -7.14466 L 25.7634 -7.13732 L 25.8192 -7.12997 L 25.8751 -7.12262 L 25.9309 -7.11526 L 25.9867 -7.1079 L 26.0425 -7.10054 L 26.0983 -7.09317 L 26.154 -7.08579 L 26.2097 -7.07841 L 26.2655 -7.07103 L 26.3212 -7.06364 L 26.3769 -7.05624 L 26.4325 -7.04885 L 26.4882 -7.04145 L 26.5438 -7.03404 L 26.5994 -7.02663 L 26.655 -7.01921 L 26.7106 -7.01179 L 26.7662 -7.00437 L 26.8218 -6.99694 L 26.8773 -6.98951 L 26.9328 -6.98208 L 26.9883 -6.97464 L 27.0013 -6.9244 L 27.0141 -6.87414 L 27.0269 -6.82386 L 27.0395 -6.77355 L 27.0521 -6.72322 L 27.0645 -6.67286 L 27.0769 -6.62248 L 27.0892 -6.57208 L 27.1014 -6.52166 L 27.1134 -6.47121 L 27.1254 -6.42074 L 27.1373 -6.37025 L 27.1492 -6.31974 L 27.1609 -6.2692 L 27.1725 -6.21864 L 27.184 -6.16807 L 27.1954 -6.11747 L 27.2068 -6.06685 L 27.218 -6.0162 L 27.2292 -5.96554 L 27.2402 -5.91486 L 27.2512 -5.86415 L 27.2621 -5.81343 L 27.2728 -5.76269 L 27.2835 -5.71192 L 27.2941 -5.66114 L 27.3046 -5.61033 L 27.315 -5.55951 L 27.3253 -5.50867 L 27.3355 -5.45781 L 27.3456 -5.40693 L 27.3556 -5.35603 L 27.3867 -5.19468 L 27.3963 -5.14371 L 27.4058 -5.09272 L 27.4153 -5.04171 L 27.4246 -4.99068 L 27.4338 -4.93963 L 27.443 -4.88857 L 27.452 -4.83749 L 27.461 -4.78639 L 27.4699 -4.73528 L 27.4786 -4.68415 L 27.4873 -4.63301 L 27.4959 -4.58184 L 27.5043 -4.53067 L 27.5127 -4.47947 L 27.521 -4.42827 L 27.5292 -4.37704 L 27.5373 -4.3258 L 27.5453 -4.27455 L 27.5532 -4.22328 L 27.561 -4.172 L 27.5687 -4.1207 L 27.5764 -4.06939 L 27.5839 -4.01806 L 27.5913 -3.96672 L 27.5987 -3.91537 L 27.6059 -3.864 L 27.613 -3.81262 L 27.6201 -3.76122 L 27.627 -3.70982 L 27.6339 -3.6584 L 27.6406 -3.60696 L 27.6473 -3.55552 L 27.5985 -3.52798 L 27.5498 -3.50044 L 27.501 -3.4729 L 27.4521 -3.44536 L 27.4033 -3.41781 L 27.3545 -3.39026 L 27.3056 -3.36271 L 27.2567 -3.33516 L 27.2078 -3.30761 L 27.1589 -3.28005 L 27.11 -3.25249 L 27.061 -3.22493 L 27.012 -3.19737 L 26.9631 -3.16981 L 26.9141 -3.14224 L 26.865 -3.11467 L 26.816 -3.0871 L 26.767 -3.05953 L 26.7179 -3.03196 L 26.6688 -3.00438 L 26.6197 -2.9768 L 26.5706 -2.94922 L 26.5214 -2.92164 L 26.4723 -2.89406 L 26.4231 -2.86647 L 26.3739 -2.83888 L 26.3247 -2.81129 L 26.2755 -2.7837 L 26.2262 -2.75611 L 26.1769 -2.72851 L 26.1276 -2.70091 L 26.0783 -2.67331 L 26.029 -2.64571 L 25.9797 -2.61811 L 25.9303 -2.5905 L 25.8809 -2.5629 L 25.8315 -2.53529 L 25.7821 -2.50767 L 25.7326 -2.48006 L 25.6832 -2.45245 L 25.6832 -2.45245 L 25.737 -2.43469 L 25.7907 -2.41693 L 25.8445 -2.39917 L 25.8982 -2.38141 L 25.952 -2.36365 L 26.0057 -2.34589 L 26.0593 -2.32812 L 26.113 -2.31035 L 26.1666 -2.29258 L 26.2203 -2.27481 L 26.2739 -2.25704 L 26.3274 -2.23927 L 26.381 -2.22149 L 26.4346 -2.20371 L 26.4881 -2.18593 L 26.5416 -2.16815 L 26.5951 -2.15037 L 26.6486 -2.13259 L 26.702 -2.1148 L 26.7554 -2.09702 L 26.8089 -2.07923 L 26.8623 -2.06144 L 26.9157 -2.04365 L 26.969 -2.02586 L 27.0224 -2.00806 L 27.0757 -1.99027 L 27.129 -1.97247 L 27.1823 -1.95468 L 27.2356 -1.93688 L 27.2889 -1.91908 L 27.3421 -1.90128 L 27.3953 -1.88348 L 27.4485 -1.86567 L 27.5017 -1.84787 L 27.5549 -1.83006 L 27.6081 -1.81226 L 27.6612 -1.79445 L 27.7144 -1.77664 L 27.7675 -1.75883 L 27.8206 -1.74102 L 27.8238 -1.68925 L 27.8269 -1.63746 L 27.8299 -1.58567 L 27.8328 -1.53388 L 27.8356 -1.48208 L 27.8383 -1.43028 L 27.8409 -1.37847 L 27.8434 -1.32665 L 27.8458 -1.27484 L 27.8482 -1.22301 L 27.8504 -1.17119 L 27.8525 -1.11935 L 27.8546 -1.06752 L 27.8565 -1.01568 L 27.8583 -0.963839 L 27.8601 -0.911993 L 27.8617 -0.860144 L 27.8633 -0.808293 L 27.8647 -0.756438 L 27.8661 -0.704581 L 27.8674 -0.652721 L 27.8685 -0.600859 L 27.8696 -0.548995 L 27.8706 -0.49713 L 27.8714 -0.445262 L 27.8722 -0.393393 L 27.8729 -0.341522 L 27.8735 -0.289651 L 27.874 -0.237778 L 27.8744 -0.185905 L 27.8747 -0.13403 L 27.8749 -0.0821558Z"
id="path1" />
</g>
</svg>
