<?xml version="1.0" encoding="UTF-8" standalone="no"?>
<svg version="1.1">
<g
style="fill:none;stroke:#000000;stroke-opacity:1;stroke-width:0.1">
<path d="M 11.1176 0.405699 L 10.8068 0.685829 L 10.4878 0.965431 L 10.1598 1.2442 L 9.8221 1.52178 L 9.4738 1.79771 L 9.11399 2.07144 L 8.74163 2.34231 L 8.74163 2.34231 L 8.92867 2.76308 L 9.10341 3.18004 L 9.26707 3.59315 L 9.42076 4.0024 L 9.56542 4.40781 L 9.7019 4.80947 L 9.83097 5.20745 L 9.42527 5.91015 L 9.01608 5.99736 L 8.59999 6.07999 L 8.17656 6.15742 L 7.7453 6.22895 L 7.3057 6.29376 L 6.85723 6.35092 L 6.39932 6.39932 L 6.39932 6.39932 L 6.35092 6.85723 L 6.29376 7.3057 L 6.22895 7.7453 L 6.15742 8.17656 L 6.07999 8.59999 L 5.99736 9.01608 L 5.91015 9.42527 L 5.20745 9.83097 L 4.80947 9.7019 L 4.40781 9.56542 L 4.0024 9.42076 L 3.59315 9.26707 L 3.18004 9.10341 L 2.76308 8.92867 L 2.34231 8.74163 L 2.34231 8.74163 L 2.07144 9.11399 L 1.79771 9.4738 L 1.52178 9.8221 L 1.2442 10.1598 L 0.965431 10.4878 L 0.685829 10.8068 L 0.405699 11.1176 L -0.405699 11.1176 L -0.685829 10.8068 L -0.965431 10.4878 L -1.2442 10.1598 L -1.52178 9.8221 L -1.79771 9.4738 L -2.07144 9.11399 L -2.34231 8.74163 L -2.34231 8.74163 L -2.76308 8.92867 L -3.18004 9.10341 L -3.59315 9.26707 L -4.0024 9.42076 L -4.40781 9.56542 L -4.80947 9.7019 L -5.20745 9.83097 L -5.91015 9.42527 L -5.99736 9.01608 L -6.07999 8.59999 L -6.15742 8.17656 L -6.22895 7.7453 L -6.29376 7.3057 L -6.35092 6.85723 L -6.39932 6.39932 L -6.39932 6.39932 L -6.85723 6.35092 L -7.3057 6.29376 L -7.7453 6.22895 L -8.17656 6.15742 L -8.59999 6.07999 L -9.01608 5.99736 L -9.42527 5.91015 L -9.83097 5.20745 L -9.7019 4.80947 L -9.56542 4.40781 L -9.42076 4.0024 L -9.26707 3.59315 L -9.10341 3.18004 L -8.92867 2.76308 L -8.74163 2.34231 L -8.74163 2.34231 L -9.11399 2.07144 L -9.4738 1.79771 L -9.8221 1.52178 L -10.1598 1.2442 L -10.4878 0.965431 L -10.8068 0.685829 L -11.1176 0.405699 L -11.1176 -0.405699 L -10.8068 -0.685829 L -10.4878 -0.965431 L -10.1598 -1.2442 L -9.8221 -1.52178 L -9.4738 -1.79771 L -9.11399 -2.07144 L -8.74163 -2.34231 L -8.74163 -2.34231 L -8.92867 -2.76308 L -9.10341 -3.18004 L -9.26707 -3.59315 L -9.42076 -4.0024 L -9.56542 -4.40781 L -9.7019 -4.80947 L -9.83097 -5.20745 L -9.42527 -5.91015 L -9.01608 -5.99736 L -8.59999 -6.07999 L -8.17656 -6.15742 L -7.7453 -6.22895 L -7.3057 -6.29376 L -6.85723 -6.35092 L -6.39932 -6.39932 L -6.39932 -6.39932 L -6.35092 -6.85723 L -6.29376 -7.3057 L -6.22895 -7.7453 L -6.15742 -8.17656 L -6.07999 -8.59999 L -5.99736 -9.01608 L -5.91015 -9.42527 L -5.20745 -9.83097 L -4.80947 -9.7019 L -4.40781 -9.56542 L -4.0024 -9.42076 L -3.59315 -9.26707 L -3.18004 -9.10341 L -2.76308 -8.92867 L -2.34231 -8.74163 L -2.34231 -8.74163 L -2.07144 -9.11399 L -1.79771 -9.4738 L -1.52178 -9.8221 L -1.2442 -10.1598 L -0.965431 -10.4878 L -0.685829 -10.8068 L -0.405699 -11.1176 L 0.405699 -11.1176 L 0.685829 -10.8068 L 0.965431 -10.4878 L 1.2442 -10.1598 L 1.52178 -9.8221 L 1.79771 -9.4738 L 2.07144 -9.11399 L 2.34231 -8.74163 L 2.34231 -8.74163 L 2.76308 -8.92867 L 3.18004 -9.10341 L 3.59315 -9.26707 L 4.0024 -9.42076 L 4.40781 -9.56542 L 4.80947 -9.7019 L 5.20745 -9.83097 L 5.91015 -9.42527 L 5.99736 -9.01608 L 6.07999 -8.59999 L 6.15742 -8.17656 L 6.22895 -7.7453 L 6.29376 -7.3057 L 6.35092 -6.85723 L 6.39932 -6.39932 L 6.39932 -6.39932 L 6.85723 -6.35092 L 7.3057 -6.29376 L 7.7453 -6.22895 L 8.17656 -6.15742 L 8.59999 -6.07999 L 9.01608 -5.99736 L 9.42527 -5.91015 L 9.83097 -5.20745 L 9.7019 -4.80947 L 9.56542 -4.40781 L 9.42076 -4.0024 L 9.26707 -3.59315 L 9.10341 -3.18004 L 8.92867 -2.76308 L 8.74163 -2.34231 L 8.74163 -2.34231 L 9.11399 -2.07144 L 9.4738 -1.79771 L 9.8221 -1.52178 L 10.1598 -1.2442 L 10.4878 -0.965431 L 10.8068 -0.685829 L 11.1176 -0.405699Z"
id="path1" />
</g>
</svg>
