<?xml version="1.0" encoding="UTF-8" standalone="no"?>
<svg version="1.1">
<g
style="fill:none;stroke:#000000;stroke-opacity:1;stroke-width:0.1">
<path d="M 11.3652 0.471104 L 11.0531 0.751162 L 10.7328 1.03066 L 10.4036 1.30931 L 10.065 1.58675 L 9.71594 1.86255 L 9.35565 2.13619 L 8.98311 2.40702 L 8.98311 2.40702 L 9.17032 2.82783 L 9.34553 3.24495 L 9.5099 3.65832 L 9.66448 4.06793 L 9.81018 4.47381 L 9.94783 4.87601 L 10.0781 5.27463 L 9.60703 6.09061 L 9.19666 6.17706 L 8.77952 6.25896 L 8.35517 6.33572 L 7.92315 6.40666 L 7.48298 6.47099 L 7.03413 6.52782 L 6.57609 6.57609 L 6.57609 6.57609 L 6.52782 7.03413 L 6.47099 7.48298 L 6.40666 7.92315 L 6.33572 8.35517 L 6.25896 8.77952 L 6.17706 9.19666 L 6.09061 9.60703 L 5.27463 10.0781 L 4.87601 9.94783 L 4.47381 9.81018 L 4.06793 9.66448 L 3.65832 9.5099 L 3.24495 9.34553 L 2.82783 9.17032 L 2.40702 8.98311 L 2.40702 8.98311 L 2.13619 9.35565 L 1.86255 9.71594 L 1.58675 10.065 L 1.30931 10.4036 L 1.03066 10.7328 L 0.751162 11.0531 L 0.471104 11.3652 L -0.471104 11.3652 L -0.751162 11.0531 L -1.03066 10.7328 L -1.30931 10.4036 L -1.58675 10.065 L -1.86255 9.71594 L -2.13619 9.35565 L -2.40702 8.98311 L -2.40702 8.98311 L -2.82783 9.17032 L -3.24495 9.34553 L -3.65832 9.5099 L -4.06793 9.66448 L -4.47381 9.81018 L -4.87601 9.94783 L -5.27463 10.0781 L -6.09061 9.60703 L -6.17706 9.19666 L -6.25896 8.77952 L -6.33572 8.35517 L -6.40666 7.92315 L -6.47099 7.48298 L -6.52782 7.03413 L -6.57609 6.57609 L -6.57609 6.57609 L -7.03413 6.52782 L -7.48298 6.47099 L -7.92315 6.40666 L -8.35517 6.33572 L -8.77952 6.25896 L -9.19666 6.17706 L -9.60703 6.09061 L -10.0781 5.27463 L -9.94783 4.87601 L -9.81018 4.47381 L -9.66448 4.06793 L -9.5099 3.65832 L -9.34553 3.24495 L -9.17032 2.82783 L -8.98311 2.40702 L -8.98311 2.40702 L -9.35565 2.13619 L -9.71594 1.86255 L -10.065 1.58675 L -10.4036 1.30931 L -10.7328 1.03066 L -11.0531 0.751162 L -11.3652 0.471104 L -11.3652 -0.471104 L -11.0531 -0.751162 L -10.7328 -1.03066 L -10.4036 -1.30931 L -10.065 -1.58675 L -9.71594 -1.86255 L -9.35565 -2.13619 L -8.98311 -2.40702 L -8.98311 -2.40702 L -9.17032 -2.82783 L -9.34553 -3.24495 L -9.5099 -3.65832 L -9.66448 -4.06793 L -9.81018 -4.47381 L -9.94783 -4.87601 L -10.0781 -5.27463 L -9.60703 -6.09061 L -9.19666 -6.17706 L -8.77952 -6.25896 L -8.35517 -6.33572 L -7.92315 -6.40666 L -7.48298 -6.47099 L -7.03413 -6.52782 L -6.57609 -6.57609 L -6.57609 -6.57609 L -6.52782 -7.03413 L -6.47099 -7.48298 L -6.40666 -7.92315 L -6.33572 -8.35517 L -6.25896 -8.77952 L -6.17706 -9.19666 L -6.09061 -9.60703 L -5.27463 -10.0781 L -4.87601 -9.94783 L -4.47381 -9.81018 L -4.06793 -9.66448 L -3.65832 -9.5099 L -3.24495 -9.34553 L -2.82783 -9.17032 L -2.40702 -8.98311 L -2.40702 -8.98311 L -2.13619 -9.35565 L -1.86255 -9.71594 L -1.58675 -10.065 L -1.30931 -10.4036 L -1.03066 -10.7328 L -0.751162 -11.0531 L -0.471104 -11.3652 L 0.471104 -11.3652 L 0.751162 -11.0531 L 1.03066 -10.7328 L 1.30931 -10.4036 L 1.58675 -10.065 L 1.86255 -9.71594 L 2.13619 -9.35565 L 2.40702 -8.98311 L 2.40702 -8.98311 L 2.82783 -9.17032 L 3.24495 -9.34553 L 3.65832 -9.5099 L 4.06793 -9.66448 L 4.47381 -9.81018 L 4.87601 -9.94783 L 5.27463 -10.0781 L 6.09061 -9.60703 L 6.17706 -9.19666 L 6.25896 -8.77952 L 6.33572 -8.35517 L 6.40666 -7.92315 L 6.47099 -7.48298 L 6.52782 -7.03413 L 6.57609 -6.57609 L 6.57609 -6.57609 L 7.03413 -6.52782 L 7.48298 -6.47099 L 7.92315 -6.40666 L 8.35517 -6.33572 L 8.77952 -6.25896 L 9.19666 -6.17706 L 9.60703 -6.09061 L 10.0781 -5.27463 L 9.94783 -4.87601 L 9.81018 -4.47381 L 9.66448 -4.06793 L 9.5099 -3.65832 L 9.34553 -3.24495 L 9.17032 -2.82783 L 8.98311 -2.40702 L 8.98311 -2.40702 L 9.35565 -2.13619 L 9.71594 -1.86255 L 10.065 -1.58675 L 10.4036 -1.30931 L 10.7328 -1.03066 L 11.0531 -0.751162 L 11.3652 -0.471104Z"
id="path1" />
</g>
</svg>
