<?xml version="1.0" encoding="UTF-8" standalone="no"?>
<svg version="1.1">
<g
style="fill:none;stroke:#000000;stroke-opacity:1;stroke-width:0.1">
<path d="M 11.6217 0.277287 L 11.6126 0.536498 L 11.3387 0.781509 L 11.0587 1.0261 L 10.7723 1.27008 L 10.4788 1.51324 L 10.1779 1.75531 L 9.86893 1.996 L 9.55138 2.23495 L 9.22459 2.47172 L 9.22459 2.47172 L 9.38921 2.84017 L 9.54474 3.20588 L 9.69195 3.56879 L 9.83153 3.9289 L 9.96409 4.28621 L 10.0902 4.64075 L 10.2104 4.99256 L 10.3251 5.34169 L 10.2033 5.57071 L 9.92604 6.05098 L 9.78857 6.27093 L 9.42887 6.34617 L 9.06411 6.418 L 8.69401 6.48605 L 8.31829 6.5499 L 7.93664 6.60908 L 7.54874 6.66305 L 7.15427 6.71121 L 6.75287 6.75287 L 6.75287 6.75287 L 6.71121 7.15427 L 6.66305 7.54874 L 6.60908 7.93664 L 6.5499 8.31829 L 6.48605 8.69401 L 6.418 9.06411 L 6.34617 9.42887 L 6.27093 9.78857 L 6.05098 9.92604 L 5.57071 10.2033 L 5.34169 10.3251 L 4.99256 10.2104 L 4.64075 10.0902 L 4.28621 9.96409 L 3.9289 9.83153 L 3.56879 9.69195 L 3.20588 9.54474 L 2.84017 9.38921 L 2.47172 9.22459 L 2.47172 9.22459 L 2.23495 9.55138 L 1.996 9.86893 L 1.75531 10.1779 L 1.51324 10.4788 L 1.27008 10.7723 L 1.0261 11.0587 L 0.781509 11.3387 L 0.536498 11.6126 L 0.277287 11.6217 L -0.277287 11.6217 L -0.536498 11.6126 L -0.781509 11.3387 L -1.0261 11.0587 L -1.27008 10.7723 L -1.51324 10.4788 L -1.75531 10.1779 L -1.996 9.86893 L -2.23495 9.55138 L -2.47172 9.22459 L -2.47172 9.22459 L -2.84017 9.38921 L -3.20588 9.54474 L -3.56879 9.69195 L -3.9289 9.83153 L -4.28621 9.96409 L -4.64075 10.0902 L -4.99256 10.2104 L -5.34169 10.3251 L -5.57071 10.2033 L -6.05098 9.92604 L -6.27093 9.78857 L -6.34617 9.42887 L -6.418 9.06411 L -6.48605 8.69401 L -6.5499 8.31829 L -6.60908 7.93664 L -6.66305 7.54874 L -6.71121 7.15427 L -6.75287 6.75287 L -6.75287 6.75287 L -7.15427 6.71121 L -7.54874 6.66305 L -7.93664 6.60908 L -8.31829 6.5499 L -8.69401 6.48605 L -9.06411 6.418 L -9.42887 6.34617 L -9.78857 6.27093 L -9.92604 6.05098 L -10.2033 5.57071 L -10.3251 5.34169 L -10.2104 4.99256 L -10.0902 4.64075 L -9.96409 4.28621 L -9.83153 3.9289 L -9.69195 3.56879 L -9.54474 3.20588 L -9.38921 2.84017 L -9.22459 2.47172 L -9.22459 2.47172 L -9.55138 2.23495 L -9.86893 1.996 L -10.1779 1.75531 L -10.4788 1.51324 L -10.7723 1.27008 L -11.0587 1.0261 L -11.3387 0.781509 L -11.6126 0.536498 L -11.6217 0.277287 L -11.6217 -0.277287 L -11.6126 -0.536498 L -11.3387 -0.781509 L -11.0587 -1.0261 L -10.7723 -1.27008 L -10.4788 -1.51324 L -10.1779 -1.75531 L -9.86893 -1.996 L -9.55138 -2.23495 L -9.22459 -2.47172 L -9.22459 -2.47172 L -9.38921 -2.84017 L -9.54474 -3.20588 L -9.69195 -3.56879 L -9.83153 -3.9289 L -9.96409 -4.28621 L -10.0902 -4.64075 L -10.2104 -4.99256 L -10.3251 -5.34169 L -10.2033 -5.57071 L -9.92604 -6.05098 L -9.78857 -6.27093 L -9.42887 -6.34617 L -9.06411 -6.418 L -8.69401 -6.48605 L -8.31829 -6.5499 L -7.93664 -6.60908 L -7.54874 -6.66305 L -7.15427 -6.71121 L -6.75287 -6.75287 L -6.75287 -6.75287 L -6.71121 -7.15427 L -6.66305 -7.54874 L -6.60908 -7.93664 L -6.5499 -8.31829 L -6.48605 -8.69401 L -6.418 -9.06411 L -6.34617 -9.42887 L -6.27093 -9.78857 L -6.05098 -9.92604 L -5.57071 -10.2033 L -5.34169 -10.3251 L -4.99256 -10.2104 L -4.64075 -10.0902 L -4.28621 -9.96409 L -3.9289 -9.83153 L -3.56879 -9.69195 L -3.20588 -9.54474 L -2.84017 -9.38921 L -2.47172 -9.22459 L -2.47172 -9.22459 L -2.23495 -9.55138 L -1.996 -9.86893 L -1.75531 -10.1779 L -1.51324 -10.4788 L -1.27008 -10.7723 L -1.0261 -11.0587 L -0.781509 -11.3387 L -0.536498 -11.6126 L -0.277287 -11.6217 L 0.277287 -11.6217 L 0.536498 -11.6126 L 0.781509 -11.3387 L 1.0261 -11.0587 L 1.27008 -10.7723 L 1.51324 -10.4788 L 1.75531 -10.1779 L 1.996 -9.86893 L 2.23495 -9.55138 L 2.47172 -9.22459 L 2.47172 -9.22459 L 2.84017 -9.38921 L 3.20588 -9.54474 L 3.56879 -9.69195 L 3.9289 -9.83153 L 4.28621 -9.96409 L 4.64075 -10.0902 L 4.99256 -10.2104 L 5.34169 -10.3251 L 5.57071 -10.2033 L 6.05098 -9.92604 L 6.27093 -9.78857 L 6.34617 -9.42887 L 6.418 -9.06411 L 6.48605 -8.69401 L 6.5499 -8.31829 L 6.60908 -7.93664 L 6.66305 -7.54874 L 6.71121 -7.15427 L 6.75287 -6.75287 L 6.75287 -6.75287 L 7.15427 -6.71121 L 7.54874 -6.66305 L 7.93664 -6.60908 L 8.31829 -6.5499 L 8.69401 -6.48605 L 9.06411 -6.418 L 9.42887 -6.34617 L 9.78857 -6.27093 L 9.92604 -6.05098 L 10.2033 -5.57071 L 10.3251 -5.34169 L 10.2104 -4.99256 L 10.0902 -4.64075 L 9.96409 -4.28621 L 9.83153 -3.9289 L 9.69195 -3.56879 L 9.54474 -3.20588 L 9.38921 -2.84017 L 9.22459 -2.47172 L 9.22459 -2.47172 L 9.55138 -2.23495 L 9.86893 -1.996 L 10.1779 -1.75531 L 10.4788 -1.51324 L 10.7723 -1.27008 L 11.0587 -1.0261 L 11.3387 -0.781509 L 11.6126 -0.536498 L 11.6217 -0.277287Z"
id="path1" />
</g>
</svg>
