<?xml version="1.0" encoding="UTF-8" standalone="no"?>
<svg version="1.1">
<g
style="fill:none;stroke:#000000;stroke-opacity:1;stroke-width:0.1">
<path d="M 11.7459 0.310003 L 11.7362 0.569191 L 11.4617 0.814168 L 11.1812 1.05871 L 10.8943 1.30264 L 10.6004 1.54575 L 10.2991 1.78777 L 9.9899 2.02841 L 9.67218 2.26731 L 9.34533 2.50407 L 9.34533 2.50407 L 9.51001 2.87254 L 9.66571 3.2383 L 9.81318 3.60131 L 9.95308 3.96154 L 10.086 4.31901 L 10.2126 4.67375 L 10.3332 5.02578 L 10.4484 5.37517 L 10.3273 5.60448 L 10.0173 6.14143 L 9.87926 6.36104 L 9.51908 6.43596 L 9.15388 6.50749 L 8.78339 6.57526 L 8.40734 6.63885 L 8.02541 6.69781 L 7.63731 6.7516 L 7.2427 6.79964 L 6.84126 6.84126 L 6.84126 6.84126 L 6.79964 7.2427 L 6.7516 7.63731 L 6.69781 8.02541 L 6.63885 8.40734 L 6.57526 8.78339 L 6.50749 9.15388 L 6.43596 9.51908 L 6.36104 9.87926 L 6.14143 10.0173 L 5.60448 10.3273 L 5.37517 10.4484 L 5.02578 10.3332 L 4.67375 10.2126 L 4.31901 10.086 L 3.96154 9.95308 L 3.60131 9.81318 L 3.2383 9.66571 L 2.87254 9.51001 L 2.50407 9.34533 L 2.50407 9.34533 L 2.26731 9.67218 L 2.02841 9.9899 L 1.78777 10.2991 L 1.54575 10.6004 L 1.30264 10.8943 L 1.05871 11.1812 L 0.814168 11.4617 L 0.569191 11.7362 L 0.310003 11.7459 L -0.310003 11.7459 L -0.569191 11.7362 L -0.814168 11.4617 L -1.05871 11.1812 L -1.30264 10.8943 L -1.54575 10.6004 L -1.78777 10.2991 L -2.02841 9.9899 L -2.26731 9.67218 L -2.50407 9.34533 L -2.50407 9.34533 L -2.87254 9.51001 L -3.2383 9.66571 L -3.60131 9.81318 L -3.96154 9.95308 L -4.31901 10.086 L -4.67375 10.2126 L -5.02578 10.3332 L -5.37517 10.4484 L -5.60448 10.3273 L -6.14143 10.0173 L -6.36104 9.87926 L -6.43596 9.51908 L -6.50749 9.15388 L -6.57526 8.78339 L -6.63885 8.40734 L -6.69781 8.02541 L -6.7516 7.63731 L -6.79964 7.2427 L -6.84126 6.84126 L -6.84126 6.84126 L -7.2427 6.79964 L -7.63731 6.7516 L -8.02541 6.69781 L -8.40734 6.63885 L -8.78339 6.57526 L -9.15388 6.50749 L -9.51908 6.43596 L -9.87926 6.36104 L -10.0173 6.14143 L -10.3273 5.60448 L -10.4484 5.37517 L -10.3332 5.02578 L -10.2126 4.67375 L -10.086 4.31901 L -9.95308 3.96154 L -9.81318 3.60131 L -9.66571 3.2383 L -9.51001 2.87254 L -9.34533 2.50407 L -9.34533 2.50407 L -9.67218 2.26731 L -9.9899 2.02841 L -10.2991 1.78777 L -10.6004 1.54575 L -10.8943 1.30264 L -11.1812 1.05871 L -11.4617 0.814168 L -11.7362 0.569191 L -11.7459 0.310003 L -11.7459 -0.310003 L -11.7362 -0.569191 L -11.4617 -0.814168 L -11.1812 -1.05871 L -10.8943 -1.30264 L -10.6004 -1.54575 L -10.2991 -1.78777 L -9.9899 -2.02841 L -9.67218 -2.26731 L -9.34533 -2.50407 L -9.34533 -2.50407 L -9.51001 -2.87254 L -9.66571 -3.2383 L -9.81318 -3.60131 L -9.95308 -3.96154 L -10.086 -4.31901 L -10.2126 -4.67375 L -10.3332 -5.02578 L -10.4484 -5.37517 L -10.3273 -5.60448 L -10.0173 -6.14143 L -9.87926 -6.36104 L -9.51908 -6.43596 L -9.15388 -6.50749 L -8.78339 -6.57526 L -8.40734 -6.63885 L -8.02541 -6.69781 L -7.63731 -6.7516 L -7.2427 -6.79964 L -6.84126 -6.84126 L -6.84126 -6.84126 L -6.79964 -7.2427 L -6.7516 -7.63731 L -6.69781 -8.02541 L -6.63885 -8.40734 L -6.57526 -8.78339 L -6.50749 -9.15388 L -6.43596 -9.51908 L -6.36104 -9.87926 L -6.14143 -10.0173 L -5.60448 -10.3273 L -5.37517 -10.4484 L -5.02578 -10.3332 L -4.67375 -10.2126 L -4.31901 -10.086 L -3.96154 -9.95308 L -3.60131 -9.81318 L -3.2383 -9.66571 L -2.87254 -9.51001 L -2.50407 -9.34533 L -2.50407 -9.34533 L -2.26731 -9.67218 L -2.02841 -9.9899 L -1.78777 -10.2991 L -1.54575 -10.6004 L -1.30264 -10.8943 L -1.05871 -11.1812 L -0.814168 -11.4617 L -0.569191 -11.7362 L -0.310003 -11.7459 L 0.310003 -11.7459 L 0.569191 -11.7362 L 0.814168 -11.4617 L 1.05871 -11.1812 L 1.30264 -10.8943 L 1.54575 -10.6004 L 1.78777 -10.2991 L 2.02841 -9.9899 L 2.26731 -9.67218 L 2.50407 -9.34533 L 2.50407 -9.34533 L 2.87254 -9.51001 L 3.2383 -9.66571 L 3.60131 -9.81318 L 3.96154 -9.95308 L 4.31901 -10.086 L 4.67375 -10.2126 L 5.02578 -10.3332 L 5.37517 -10.4484 L 5.60448 -10.3273 L 6.14143 -10.0173 L 6.36104 -9.87926 L 6.43596 -9.51908 L 6.50749 -9.15388 L 6.57526 -8.78339 L 6.63885 -8.40734 L 6.69781 -8.02541 L 6.7516 -7.63731 L 6.79964 -7.2427 L 6.84126 -6.84126 L 6.84126 -6.84126 L 7.2427 -6.79964 L 7.63731 -6.7516 L 8.02541 -6.69781 L 8.40734 -6.63885 L 8.78339 -6.57526 L 9.15388 -6.50749 L 9.51908 -6.43596 L 9.87926 -6.36104 L 10.0173 -6.14143 L 10.3273 -5.60448 L 10.4484 -5.37517 L 10.3332 -5.02578 L 10.2126 -4.67375 L 10.086 -4.31901 L 9.95308 -3.96154 L 9.81318 -3.60131 L 9.66571 -3.2383 L 9.51001 -2.87254 L 9.34533 -2.50407 L 9.34533 -2.50407 L 9.67218 -2.26731 L 9.9899 -2.02841 L 10.2991 -1.78777 L 10.6004 -1.54575 L 10.8943 -1.30264 L 11.1812 -1.05871 L 11.4617 -0.814168 L 11.7362 -0.569191 L 11.7459 -0.310003Z"
id="path1" />
</g>
</svg>
