<?xml version="1.0" encoding="UTF-8" standalone="no"?>
<svg version="1.1">
<g
style="fill:none;stroke:#000000;stroke-opacity:1;stroke-width:0.1">
<path d="M 13.12 0.363432 L 13.1134 0.551952 L 13.1041 0.740358 L 13.0921 0.928611 L 12.889 1.10653 L 12.6829 1.2842 L 12.4738 1.46157 L 12.2615 1.63856 L 12.0458 1.8151 L 11.8267 1.99112 L 11.604 2.16653 L 11.3775 2.34124 L 11.1471 2.51512 L 10.9124 2.68807 L 10.6735 2.85995 L 10.6735 2.85995 L 10.7945 3.12828 L 10.9112 3.39537 L 11.0238 3.66119 L 11.1326 3.92574 L 11.2378 4.18901 L 11.3395 4.45099 L 11.438 4.7117 L 11.5334 4.97112 L 11.6258 5.22928 L 11.7154 5.48619 L 11.8024 5.74185 L 11.7187 5.91088 L 11.6325 6.07869 L 11.5439 6.24524 L 11.1805 6.87473 L 11.0806 7.0347 L 10.9783 7.19322 L 10.8738 7.35026 L 10.6089 7.40276 L 10.3416 7.45359 L 10.0718 7.50263 L 9.79945 7.54976 L 9.52445 7.59484 L 9.2467 7.63773 L 8.96611 7.67829 L 8.6826 7.71633 L 8.39607 7.75168 L 8.10641 7.78415 L 7.81353 7.81353 L 7.81353 7.81353 L 7.78415 8.10641 L 7.75168 8.39607 L 7.71633 8.6826 L 7.67829 8.96611 L 7.63773 9.2467 L 7.59484 9.52445 L 7.54976 9.79945 L 7.50263 10.0718 L 7.45359 10.3416 L 7.40276 10.6089 L 7.35026 10.8738 L 7.19322 10.9783 L 7.0347 11.0806 L 6.87473 11.1805 L 6.24524 11.5439 L 6.07869 11.6325 L 5.91088 11.7187 L 5.74185 11.8024 L 5.48619 11.7154 L 5.22928 11.6258 L 4.97112 11.5334 L 4.7117 11.438 L 4.45099 11.3395 L 4.18901 11.2378 L 3.92574 11.1326 L 3.66119 11.0238 L 3.39537 10.9112 L 3.12828 10.7945 L 2.85995 10.6735 L 2.85995 10.6735 L 2.68807 10.9124 L 2.51512 11.1471 L 2.34124 11.3775 L 2.16653 11.604 L 1.99112 11.8267 L 1.8151 12.0458 L 1.63856 12.2615 L 1.46157 12.4738 L 1.2842 12.6829 L 1.10653 12.889 L 0.928611 13.0921 L 0.740358 13.1041 L 0.551952 13.1134 L 0.363432 13.12 L -0.363432 13.12 L -0.551952 13.1134 L -0.740358 13.1041 L -0.928611 13.0921 L -1.10653 12.889 L -1.2842 12.6829 L -1.46157 12.4738 L -1.63856 12.2615 L -1.8151 12.0458 L -1.99112 11.8267 L -2.16653 11.604 L -2.34124 11.3775 L -2.51512 11.1471 L -2.68807 10.9124 L -2.85995 10.6735 L -2.85995 10.6735 L -3.12828 10.7945 L -3.39537 10.9112 L -3.66119 11.0238 L -3.92574 11.1326 L -4.18901 11.2378 L -4.45099 11.3395 L -4.7117 11.438 L -4.97112 11.5334 L -5.22928 11.6258 L -5.48619 11.7154 L -5.74185 11.8024 L -5.91088 11.7187 L -6.07869 11.6325 L -6.24524 11.5439 L -6.87473 11.1805 L -7.0347 11.0806 L -7.19322 10.9783 L -7.35026 10.8738 L -7.40276 10.6089 L -7.45359 10.3416 L -7.50263 10.0718 L -7.54976 9.79945 L -7.59484 9.52445 L -7.63773 9.2467 L -7.67829 8.96611 L -7.71633 8.6826 L -7.75168 8.39607 L -7.78415 8.10641 L -7.81353 7.81353 L -7.81353 7.81353 L -8.10641 7.78415 L -8.39607 7.75168 L -8.6826 7.71633 L -8.96611 7.67829 L -9.2467 7.63773 L -9.52445 7.59484 L -9.79945 7.54976 L -10.0718 7.50263 L -10.3416 7.45359 L -10.6089 7.40276 L -10.8738 7.35026 L -10.9783 7.19322 L -11.0806 7.0347 L -11.1805 6.87473 L -11.5439 6.24524 L -11.6325 6.07869 L -11.7187 5.91088 L -11.8024 5.74185 L -11.7154 5.48619 L -11.6258 5.22928 L -11.5334 4.97112 L -11.438 4.7117 L -11.3395 4.45099 L -11.2378 4.18901 L -11.1326 3.92574 L -11.0238 3.66119 L -10.9112 3.39537 L -10.7945 3.12828 L -10.6735 2.85995 L -10.6735 2.85995 L -10.9124 2.68807 L -11.1471 2.51512 L -11.3775 2.34124 L -11.604 2.16653 L -11.8267 1.99112 L -12.0458 1.8151 L -12.2615 1.63856 L -12.4738 1.46157 L -12.6829 1.2842 L -12.889 1.10653 L -13.0921 0.928611 L -13.1041 0.740358 L -13.1134 0.551952 L -13.12 0.363432 L -13.12 -0.363432 L -13.1134 -0.551952 L -13.1041 -0.740358 L -13.0921 -0.928611 L -12.889 -1.10653 L -12.6829 -1.2842 L -12.4738 -1.46157 L -12.2615 -1.63856 L -12.0458 -1.8151 L -11.8267 -1.99112 L -11.604 -2.16653 L -11.3775 -2.34124 L -11.1471 -2.51512 L -10.9124 -2.68807 L -10.6735 -2.85995 L -10.6735 -2.85995 L -10.7945 -3.12828 L -10.9112 -3.39537 L -11.0238 -3.66119 L -11.1326 -3.92574 L -11.2378 -4.18901 L -11.3395 -4.45099 L -11.438 -4.7117 L -11.5334 -4.97112 L -11.6258 -5.22928 L -11.7154 -5.48619 L -11.8024 -5.74185 L -11.7187 -5.91088 L -11.6325 -6.07869 L -11.5439 -6.24524 L -11.1805 -6.87473 L -11.0806 -7.0347 L -10.9783 -7.19322 L -10.8738 -7.35026 L -10.6089 -7.40276 L -10.3416 -7.45359 L -10.0718 -7.50263 L -9.79945 -7.54976 L -9.52445 -7.59484 L -9.2467 -7.63773 L -8.96611 -7.67829 L -8.6826 -7.71633 L -8.39607 -7.75168 L -8.10641 -7.78415 L -7.81353 -7.81353 L -7.81353 -7.81353 L -7.78415 -8.10641 L -7.75168 -8.39607 L -7.71633 -8.6826 L -7.67829 -8.96611 L -7.63773 -9.2467 L -7.59484 -9.52445 L -7.54976 -9.79945 L -7.50263 -10.0718 L -7.45359 -10.3416 L -7.40276 -10.6089 L -7.35026 -10.8738 L -7.19322 -10.9783 L -7.0347 -11.0806 L -6.87473 -11.1805 L -6.24524 -11.5439 L -6.07869 -11.6325 L -5.91088 -11.7187 L -5.74185 -11.8024 L -5.48619 -11.7154 L -5.22928 -11.6258 L -4.97112 -11.5334 L -4.7117 -11.438 L -4.45099 -11.3395 L -4.18901 -11.2378 L -3.92574 -11.1326 L -3.66119 -11.0238 L -3.39537 -10.9112 L -3.12828 -10.7945 L -2.85995 -10.6735 L -2.85995 -10.6735 L -2.68807 -10.9124 L -2.51512 -11.1471 L -2.34124 -11.3775 L -2.16653 -11.604 L -1.99112 -11.8267 L -1.8151 -12.0458 L -1.63856 -12.2615 L -1.46157 -12.4738 L -1.2842 -12.6829 L -1.10653 -12.889 L -0.928611 -13.0921 L -0.740358 -13.1041 L -0.551952 -13.1134 L -0.363432 -13.12 L 0.363432 -13.12 L 0.551952 -13.1134 L 0.740358 -13.1041 L 0.928611 -13.0921 L 1.10653 -12.889 L 1.2842 -12.6829 L 1.46157 -12.4738 L 1.63856 -12.2615 L 1.8151 -12.0458 L 1.99112 -11.8267 L 2.16653 -11.604 L 2.34124 -11.3775 L 2.51512 -11.1471 L 2.68807 -10.9124 L 2.85995 -10.6735 L 2.85995 -10.6735 L 3.12828 -10.7945 L 3.39537 -10.9112 L 3.66119 -11.0238 L 3.92574 -11.1326 L 4.18901 -11.2378 L 4.45099 -11.3395 L 4.7117 -11.438 L 4.97112 -11.5334 L 5.22928 -11.6258 L 5.48619 -11.7154 L 5.74185 -11.8024 L 5.91088 -11.7187 L 6.07869 -11.6325 L 6.24524 -11.5439 L 6.87473 -11.1805 L 7.0347 -11.0806 L 7.19322 -10.9783 L 7.35026 -10.8738 L 7.40276 -10.6089 L 7.45359 -10.3416 L 7.50263 -10.0718 L 7.54976 -9.79945 L 7.59484 -9.52445 L 7.63773 -9.2467 L 7.67829 -8.96611 L 7.71633 -8.6826 L 7.75168 -8.39607 L 7.78415 -8.10641 L 7.81353 -7.81353 L 7.81353 -7.81353 L 8.10641 -7.78415 L 8.39607 -7.75168 L 8.6826 -7.71633 L 8.96611 -7.67829 L 9.2467 -7.63773 L 9.52445 -7.59484 L 9.79945 -7.54976 L 10.0718 -7.50263 L 10.3416 -7.45359 L 10.6089 -7.40276 L 10.8738 -7.35026 L 10.9783 -7.19322 L 11.0806 -7.0347 L 11.1805 -6.87473 L 11.5439 -6.24524 L 11.6325 -6.07869 L 11.7187 -5.91088 L 11.8024 -5.74185 L 11.7154 -5.48619 L 11.6258 -5.22928 L 11.5334 -4.97112 L 11.438 -4.7117 L 11.3395 -4.45099 L 11.2378 -4.18901 L 11.1326 -3.92574 L 11.0238 -3.66119 L 10.9112 -3.39537 L 10.7945 -3.12828 L 10.6735 -2.85995 L 10.6735 -2.85995 L 10.9124 -2.68807 L 11.1471 -2.51512 L 11.3775 -2.34124 L 11.604 -2.16653 L 11.8267 -1.99112 L 12.0458 -1.8151 L 12.2615 -1.63856 L 12.4738 -1.46157 L 12.6829 -1.2842 L 12.889 -1.10653 L 13.0921 -0.928611 L 13.1041 -0.740358 L 13.1134 -0.551952 L 13.12 -0.363432Z"
id="path1" />
</g>
</svg>
