<?xml version="1.0" encoding="UTF-8" standalone="no"?>
<svg version="1.1">
<g
style="fill:none;stroke:#000000;stroke-opacity:1;stroke-width:0.1">
<path d="M 13.3728 0.240279 L 13.3681 0.428855 L 13.3607 0.617346 L 13.3507 0.805713 L 13.338 0.993921 L 13.1342 1.17179 L 12.9275 1.3494 L 12.7178 1.5267 L 12.5049 1.70362 L 12.2888 1.88009 L 12.0693 2.05605 L 11.8462 2.23139 L 11.6194 2.40603 L 11.3887 2.57987 L 11.154 2.75279 L 10.915 2.92466 L 10.915 2.92466 L 11.036 3.193 L 11.1529 3.46013 L 11.2657 3.72602 L 11.3748 3.99067 L 11.4803 4.25407 L 11.5825 4.51621 L 11.6814 4.77709 L 11.7773 5.03673 L 11.8702 5.29513 L 11.9604 5.5523 L 12.048 5.80825 L 11.9649 5.97759 L 11.8794 6.14574 L 11.7916 6.31266 L 11.7014 6.47833 L 11.4611 6.89451 L 11.3627 7.05546 L 11.2621 7.21501 L 11.1592 7.37312 L 11.0541 7.52977 L 10.7887 7.5819 L 10.5208 7.63236 L 10.2506 7.68105 L 9.97779 7.72785 L 9.70239 7.77262 L 9.4243 7.81524 L 9.14343 7.85555 L 8.85969 7.89339 L 8.57299 7.92859 L 8.28322 7.96097 L 7.99031 7.99031 L 7.99031 7.99031 L 7.96097 8.28322 L 7.92859 8.57299 L 7.89339 8.85969 L 7.85555 9.14343 L 7.81524 9.4243 L 7.77262 9.70239 L 7.72785 9.97779 L 7.68105 10.2506 L 7.63236 10.5208 L 7.5819 10.7887 L 7.52977 11.0541 L 7.37312 11.1592 L 7.21501 11.2621 L 7.05546 11.3627 L 6.89451 11.4611 L 6.47833 11.7014 L 6.31266 11.7916 L 6.14574 11.8794 L 5.97759 11.9649 L 5.80825 12.048 L 5.5523 11.9604 L 5.29513 11.8702 L 5.03673 11.7773 L 4.77709 11.6814 L 4.51621 11.5825 L 4.25407 11.4803 L 3.99067 11.3748 L 3.72602 11.2657 L 3.46013 11.1529 L 3.193 11.036 L 2.92466 10.915 L 2.92466 10.915 L 2.75279 11.154 L 2.57987 11.3887 L 2.40603 11.6194 L 2.23139 11.8462 L 2.05605 12.0693 L 1.88009 12.2888 L 1.70362 12.5049 L 1.5267 12.7178 L 1.3494 12.9275 L 1.17179 13.1342 L 0.993921 13.338 L 0.805713 13.3507 L 0.617346 13.3607 L 0.428855 13.3681 L 0.240279 13.3728 L -0.240279 13.3728 L -0.428855 13.3681 L -0.617346 13.3607 L -0.805713 13.3507 L -0.993921 13.338 L -1.17179 13.1342 L -1.3494 12.9275 L -1.5267 12.7178 L -1.70362 12.5049 L -1.88009 12.2888 L -2.05605 12.0693 L -2.23139 11.8462 L -2.40603 11.6194 L -2.57987 11.3887 L -2.75279 11.154 L -2.92466 10.915 L -2.92466 10.915 L -3.193 11.036 L -3.46013 11.1529 L -3.72602 11.2657 L -3.99067 11.3748 L -4.25407 11.4803 L -4.51621 11.5825 L -4.77709 11.6814 L -5.03673 11.7773 L -5.29513 11.8702 L -5.5523 11.9604 L -5.80825 12.048 L -5.97759 11.9649 L -6.14574 11.8794 L -6.31266 11.7916 L -6.47833 11.7014 L -6.89451 11.4611 L -7.05546 11.3627 L -7.21501 11.2621 L -7.37312 11.1592 L -7.52977 11.0541 L -7.5819 10.7887 L -7.63236 10.5208 L -7.68105 10.2506 L -7.72785 9.97779 L -7.77262 9.70239 L -7.81524 9.4243 L -7.85555 9.14343 L -7.89339 8.85969 L -7.92859 8.57299 L -7.96097 8.28322 L -7.99031 7.99031 L -7.99031 7.99031 L -8.28322 7.96097 L -8.57299 7.92859 L -8.85969 7.89339 L -9.14343 7.85555 L -9.4243 7.81524 L -9.70239 7.77262 L -9.97779 7.72785 L -10.2506 7.68105 L -10.5208 7.63236 L -10.7887 7.5819 L -11.0541 7.52977 L -11.1592 7.37312 L -11.2621 7.21501 L -11.3627 7.05546 L -11.4611 6.89451 L -11.7014 6.47833 L -11.7916 6.31266 L -11.8794 6.14574 L -11.9649 5.97759 L -12.048 5.80825 L -11.9604 5.5523 L -11.8702 5.29513 L -11.7773 5.03673 L -11.6814 4.77709 L -11.5825 4.51621 L -11.4803 4.25407 L -11.3748 3.99067 L -11.2657 3.72602 L -11.1529 3.46013 L -11.036 3.193 L -10.915 2.92466 L -10.915 2.92466 L -11.154 2.75279 L -11.3887 2.57987 L -11.6194 2.40603 L -11.8462 2.23139 L -12.0693 2.05605 L -12.2888 1.88009 L -12.5049 1.70362 L -12.7178 1.5267 L -12.9275 1.3494 L -13.1342 1.17179 L -13.338 0.993921 L -13.3507 0.805713 L -13.3607 0.617346 L -13.3681 0.428855 L -13.3728 0.240279 L -13.3728 -0.240279 L -13.3681 -0.428855 L -13.3607 -0.617346 L -13.3507 -0.805713 L -13.338 -0.993921 L -13.1342 -1.17179 L -12.9275 -1.3494 L -12.7178 -1.5267 L -12.5049 -1.70362 L -12.2888 -1.88009 L -12.0693 -2.05605 L -11.8462 -2.23139 L -11.6194 -2.40603 L -11.3887 -2.57987 L -11.154 -2.75279 L -10.915 -2.92466 L -10.915 -2.92466 L -11.036 -3.193 L -11.1529 -3.46013 L -11.2657 -3.72602 L -11.3748 -3.99067 L -11.4803 -4.25407 L -11.5825 -4.51621 L -11.6814 -4.77709 L -11.7773 -5.03673 L -11.8702 -5.29513 L -11.9604 -5.5523 L -12.048 -5.80825 L -11.9649 -5.97759 L -11.8794 -6.14574 L -11.7916 -6.31266 L -11.7014 -6.47833 L -11.4611 -6.89451 L -11.3627 -7.05546 L -11.2621 -7.21501 L -11.1592 -7.37312 L -11.0541 -7.52977 L -10.7887 -7.5819 L -10.5208 -7.63236 L -10.2506 -7.68105 L -9.97779 -7.72785 L -9.70239 -7.77262 L -9.4243 -7.81524 L -9.14343 -7.85555 L -8.85969 -7.89339 L -8.57299 -7.92859 L -8.28322 -7.96097 L -7.99031 -7.99031 L -7.99031 -7.99031 L -7.96097 -8.28322 L -7.92859 -8.57299 L -7.89339 -8.85969 L -7.85555 -9.14343 L -7.81524 -9.4243 L -7.77262 -9.70239 L -7.72785 -9.97779 L -7.68105 -10.2506 L -7.63236 -10.5208 L -7.5819 -10.7887 L -7.52977 -11.0541 L -7.37312 -11.1592 L -7.21501 -11.2621 L -7.05546 -11.3627 L -6.89451 -11.4611 L -6.47833 -11.7014 L -6.31266 -11.7916 L -6.14574 -11.8794 L -5.97759 -11.9649 L -5.80825 -12.048 L -5.5523 -11.9604 L -5.29513 -11.8702 L -5.03673 -11.7773 L -4.77709 -11.6814 L -4.51621 -11.5825 L -4.25407 -11.4803 L -3.99067 -11.3748 L -3.72602 -11.2657 L -3.46013 -11.1529 L -3.193 -11.036 L -2.92466 -10.915 L -2.92466 -10.915 L -2.75279 -11.154 L -2.57987 -11.3887 L -2.40603 -11.6194 L -2.23139 -11.8462 L -2.05605 -12.0693 L -1.88009 -12.2888 L -1.70362 -12.5049 L -1.5267 -12.7178 L -1.3494 -12.9275 L -1.17179 -13.1342 L -0.993921 -13.338 L -0.805713 -13.3507 L -0.617346 -13.3607 L -0.428855 -13.3681 L -0.240279 -13.3728 L 0.240279 -13.3728 L 0.428855 -13.3681 L 0.617346 -13.3607 L 0.805713 -13.3507 L 0.993921 -13.338 L 1.17179 -13.1342 L 1.3494 -12.9275 L 1.5267 -12.7178 L 1.70362 -12.5049 L 1.88009 -12.2888 L 2.05605 -12.0693 L 2.23139 -11.8462 L 2.40603 -11.6194 L 2.57987 -11.3887 L 2.75279 -11.154 L 2.92466 -10.915 L 2.92466 -10.915 L 3.193 -11.036 L 3.46013 -11.1529 L 3.72602 -11.2657 L 3.99067 -11.3748 L 4.25407 -11.4803 L 4.51621 -11.5825 L 4.77709 -11.6814 L 5.03673 -11.7773 L 5.29513 -11.8702 L 5.5523 -11.9604 L 5.80825 -12.048 L 5.97759 -11.9649 L 6.14574 -11.8794 L 6.31266 -11.7916 L 6.47833 -11.7014 L 6.89451 -11.4611 L 7.05546 -11.3627 L 7.21501 -11.2621 L 7.37312 -11.1592 L 7.52977 -11.0541 L 7.5819 -10.7887 L 7.63236 -10.5208 L 7.68105 -10.2506 L 7.72785 -9.97779 L 7.77262 -9.70239 L 7.81524 -9.4243 L 7.85555 -9.14343 L 7.89339 -8.85969 L 7.92859 -8.57299 L 7.96097 -8.28322 L 7.99031 -7.99031 L 7.99031 -7.99031 L 8.28322 -7.96097 L 8.57299 -7.92859 L 8.85969 -7.89339 L 9.14343 -7.85555 L 9.4243 -7.81524 L 9.70239 -7.77262 L 9.97779 -7.72785 L 10.2506 -7.68105 L 10.5208 -7.63236 L 10.7887 -7.5819 L 11.0541 -7.52977 L 11.1592 -7.37312 L 11.2621 -7.21501 L 11.3627 -7.05546 L 11.4611 -6.89451 L 11.7014 -6.47833 L 11.7916 -6.31266 L 11.8794 -6.14574 L 11.9649 -5.97759 L 12.048 -5.80825 L 11.9604 -5.5523 L 11.8702 -5.29513 L 11.7773 -5.03673 L 11.6814 -4.77709 L 11.5825 -4.51621 L 11.4803 -4.25407 L 11.3748 -3.99067 L 11.2657 -3.72602 L 11.1529 -3.46013 L 11.036 -3.193 L 10.915 -2.92466 L 10.915 -2.92466 L 11.154 -2.75279 L 11.3887 -2.57987 L 11.6194 -2.40603 L 11.8462 -2.23139 L 12.0693 -2.05605 L 12.2888 -1.88009 L 12.5049 -1.70362 L 12.7178 -1.5267 L 12.9275 -1.3494 L 13.1342 -1.17179 L 13.338 -0.993921 L 13.3507 -0.805713 L 13.3607 -0.617346 L 13.3681 -0.428855 L 13.3728 -0.240279Z"
id="path1" />
</g>
</svg>
