<?xml version="1.0" encoding="UTF-8" standalone="no"?>
<svg version="1.1">
<g
style="fill:none;stroke:#000000;stroke-opacity:1;stroke-width:0.1">
<path d="M 14.6222 0.284569 L 14.6186 0.432738 L 14.6135 0.580863 L 14.6068 0.728928 L 14.5987 0.876918 L 14.589 1.02482 L 14.5779 1.17261 L 14.5653 1.32029 L 14.403 1.45985 L 14.239 1.59925 L 14.0734 1.73845 L 13.906 1.87744 L 13.7368 2.01618 L 13.5657 2.15465 L 13.3927 2.29281 L 13.2177 2.43063 L 13.0406 2.56808 L 12.8615 2.70511 L 12.6801 2.84168 L 12.4965 2.97775 L 12.3107 3.11327 L 12.1224 3.24818 L 12.1224 3.24818 L 12.218 3.45916 L 12.3112 3.66947 L 12.4022 3.87909 L 12.4909 4.08803 L 12.5775 4.29628 L 12.6621 4.50384 L 12.7448 4.71069 L 12.8255 4.91685 L 12.9045 5.12231 L 12.9817 5.32708 L 13.0571 5.53115 L 13.131 5.73453 L 13.2033 5.93723 L 13.274 6.13924 L 13.2112 6.27345 L 13.1469 6.40701 L 13.0813 6.53991 L 13.0143 6.67214 L 12.9461 6.80369 L 12.8764 6.93454 L 12.8055 7.06467 L 12.5209 7.55756 L 12.4437 7.68406 L 12.3652 7.80977 L 12.2854 7.93468 L 12.2044 8.05878 L 12.1221 8.18204 L 12.0385 8.30447 L 11.9538 8.42604 L 11.7434 8.46576 L 11.5318 8.50451 L 11.3187 8.54224 L 11.1042 8.5789 L 10.8883 8.61444 L 10.6709 8.64881 L 10.452 8.68196 L 10.2315 8.71382 L 10.0095 8.74433 L 9.78579 8.77342 L 9.56047 8.80103 L 9.33345 8.82708 L 9.10471 8.8515 L 8.87419 8.87419 L 8.87419 8.87419 L 8.8515 9.10471 L 8.82708 9.33345 L 8.80103 9.56047 L 8.77342 9.78579 L 8.74433 10.0095 L 8.71382 10.2315 L 8.68196 10.452 L 8.64881 10.6709 L 8.61444 10.8883 L 8.5789 11.1042 L 8.54224 11.3187 L 8.50451 11.5318 L 8.46576 11.7434 L 8.42604 11.9538 L 8.30447 12.0385 L 8.18204 12.1221 L 8.05878 12.2044 L 7.93468 12.2854 L 7.80977 12.3652 L 7.68406 12.4437 L 7.55756 12.5209 L 7.06467 12.8055 L 6.93454 12.8764 L 6.80369 12.9461 L 6.67214 13.0143 L 6.53991 13.0813 L 6.40701 13.1469 L 6.27345 13.2112 L 6.13924 13.274 L 5.93723 13.2033 L 5.73453 13.131 L 5.53115 13.0571 L 5.32708 12.9817 L 5.12231 12.9045 L 4.91685 12.8255 L 4.71069 12.7448 L 4.50384 12.6621 L 4.29628 12.5775 L 4.08803 12.4909 L 3.87909 12.4022 L 3.66947 12.3112 L 3.45916 12.218 L 3.24818 12.1224 L 3.24818 12.1224 L 3.11327 12.3107 L 2.97775 12.4965 L 2.84168 12.6801 L 2.70511 12.8615 L 2.56808 13.0406 L 2.43063 13.2177 L 2.29281 13.3927 L 2.15465 13.5657 L 2.01618 13.7368 L 1.87744 13.906 L 1.73845 14.0734 L 1.59925 14.239 L 1.45985 14.403 L 1.32029 14.5653 L 1.17261 14.5779 L 1.02482 14.589 L 0.876918 14.5987 L 0.728928 14.6068 L 0.580863 14.6135 L 0.432738 14.6186 L 0.284569 14.6222 L -0.284569 14.6222 L -0.432738 14.6186 L -0.580863 14.6135 L -0.728928 14.6068 L -0.876918 14.5987 L -1.02482 14.589 L -1.17261 14.5779 L -1.32029 14.5653 L -1.45985 14.403 L -1.59925 14.239 L -1.73845 14.0734 L -1.87744 13.906 L -2.01618 13.7368 L -2.15465 13.5657 L -2.29281 13.3927 L -2.43063 13.2177 L -2.56808 13.0406 L -2.70511 12.8615 L -2.84168 12.6801 L -2.97775 12.4965 L -3.11327 12.3107 L -3.24818 12.1224 L -3.24818 12.1224 L -3.45916 12.218 L -3.66947 12.3112 L -3.87909 12.4022 L -4.08803 12.4909 L -4.29628 12.5775 L -4.50384 12.6621 L -4.71069 12.7448 L -4.91685 12.8255 L -5.12231 12.9045 L -5.32708 12.9817 L -5.53115 13.0571 L -5.73453 13.131 L -5.93723 13.2033 L -6.13924 13.274 L -6.27345 13.2112 L -6.40701 13.1469 L -6.53991 13.0813 L -6.67214 13.0143 L -6.80369 12.9461 L -6.93454 12.8764 L -7.06467 12.8055 L -7.55756 12.5209 L -7.68406 12.4437 L -7.80977 12.3652 L -7.93468 12.2854 L -8.05878 12.2044 L -8.18204 12.1221 L -8.30447 12.0385 L -8.42604 11.9538 L -8.46576 11.7434 L -8.50451 11.5318 L -8.54224 11.3187 L -8.5789 11.1042 L -8.61444 10.8883 L -8.64881 10.6709 L -8.68196 10.452 L -8.71382 10.2315 L -8.74433 10.0095 L -8.77342 9.78579 L -8.80103 9.56047 L -8.82708 9.33345 L -8.8515 9.10471 L -8.87419 8.87419 L -8.87419 8.87419 L -9.10471 8.8515 L -9.33345 8.82708 L -9.56047 8.80103 L -9.78579 8.77342 L -10.0095 8.74433 L -10.2315 8.71382 L -10.452 8.68196 L -10.6709 8.64881 L -10.8883 8.61444 L -11.1042 8.5789 L -11.3187 8.54224 L -11.5318 8.50451 L -11.7434 8.46576 L -11.9538 8.42604 L -12.0385 8.30447 L -12.1221 8.18204 L -12.2044 8.05878 L -12.2854 7.93468 L -12.3652 7.80977 L -12.4437 7.68406 L -12.5209 7.55756 L -12.8055 7.06467 L -12.8764 6.93454 L -12.9461 6.80369 L -13.0143 6.67214 L -13.0813 6.53991 L -13.1469 6.40701 L -13.2112 6.27345 L -13.274 6.13924 L -13.2033 5.93723 L -13.131 5.73453 L -13.0571 5.53115 L -12.9817 5.32708 L -12.9045 5.12231 L -12.8255 4.91685 L -12.7448 4.71069 L -12.6621 4.50384 L -12.5775 4.29628 L -12.4909 4.08803 L -12.4022 3.87909 L -12.3112 3.66947 L -12.218 3.45916 L -12.1224 3.24818 L -12.1224 3.24818 L -12.3107 3.11327 L -12.4965 2.97775 L -12.6801 2.84168 L -12.8615 2.70511 L -13.0406 2.56808 L -13.2177 2.43063 L -13.3927 2.29281 L -13.5657 2.15465 L -13.7368 2.01618 L -13.906 1.87744 L -14.0734 1.73845 L -14.239 1.59925 L -14.403 1.45985 L -14.5653 1.32029 L -14.5779 1.17261 L -14.589 1.02482 L -14.5987 0.876918 L -14.6068 0.728928 L -14.6135 0.580863 L -14.6186 0.432738 L -14.6222 0.284569 L -14.6222 -0.284569 L -14.6186 -0.432738 L -14.6135 -0.580863 L -14.6068 -0.728928 L -14.5987 -0.876918 L -14.589 -1.02482 L -14.5779 -1.17261 L -14.5653 -1.32029 L -14.403 -1.45985 L -14.239 -1.59925 L -14.0734 -1.73845 L -13.906 -1.87744 L -13.7368 -2.01618 L -13.5657 -2.15465 L -13.3927 -2.29281 L -13.2177 -2.43063 L -13.0406 -2.56808 L -12.8615 -2.70511 L -12.6801 -2.84168 L -12.4965 -2.97775 L -12.3107 -3.11327 L -12.1224 -3.24818 L -12.1224 -3.24818 L -12.218 -3.45916 L -12.3112 -3.66947 L -12.4022 -3.87909 L -12.4909 -4.08803 L -12.5775 -4.29628 L -12.6621 -4.50384 L -12.7448 -4.71069 L -12.8255 -4.91685 L -12.9045 -5.12231 L -12.9817 -5.32708 L -13.0571 -5.53115 L -13.131 -5.73453 L -13.2033 -5.93723 L -13.274 -6.13924 L -13.2112 -6.27345 L -13.1469 -6.40701 L -13.0813 -6.53991 L -13.0143 -6.67214 L -12.9461 -6.80369 L -12.8764 -6.93454 L -12.8055 -7.06467 L -12.5209 -7.55756 L -12.4437 -7.68406 L -12.3652 -7.80977 L -12.2854 -7.93468 L -12.2044 -8.05878 L -12.1221 -8.18204 L -12.0385 -8.30447 L -11.9538 -8.42604 L -11.7434 -8.46576 L -11.5318 -8.50451 L -11.3187 -8.54224 L -11.1042 -8.5789 L -10.8883 -8.61444 L -10.6709 -8.64881 L -10.452 -8.68196 L -10.2315 -8.71382 L -10.0095 -8.74433 L -9.78579 -8.77342 L -9.56047 -8.80103 L -9.33345 -8.82708 L -9.10471 -8.8515 L -8.87419 -8.87419 L -8.87419 -8.87419 L -8.8515 -9.10471 L -8.82708 -9.33345 L -8.80103 -9.56047 L -8.77342 -9.78579 L -8.74433 -10.0095 L -8.71382 -10.2315 L -8.68196 -10.452 L -8.64881 -10.6709 L -8.61444 -10.8883 L -8.5789 -11.1042 L -8.54224 -11.3187 L -8.50451 -11.5318 L -8.46576 -11.7434 L -8.42604 -11.9538 L -8.30447 -12.0385 L -8.18204 -12.1221 L -8.05878 -12.2044 L -7.93468 -12.2854 L -7.80977 -12.3652 L -7.68406 -12.4437 L -7.55756 -12.5209 L -7.06467 -12.8055 L -6.93454 -12.8764 L -6.80369 -12.9461 L -6.67214 -13.0143 L -6.53991 -13.0813 L -6.40701 -13.1469 L -6.27345 -13.2112 L -6.13924 -13.274 L -5.93723 -13.2033 L -5.73453 -13.131 L -5.53115 -13.0571 L -5.32708 -12.9817 L -5.12231 -12.9045 L -4.91685 -12.8255 L -4.71069 -12.7448 L -4.50384 -12.6621 L -4.29628 -12.5775 L -4.08803 -12.4909 L -3.87909 -12.4022 L -3.66947 -12.3112 L -3.45916 -12.218 L -3.24818 -12.1224 L -3.24818 -12.1224 L -3.11327 -12.3107 L -2.97775 -12.4965 L -2.84168 -12.6801 L -2.70511 -12.8615 L -2.56808 -13.0406 L -2.43063 -13.2177 L -2.29281 -13.3927 L -2.15465 -13.5657 L -2.01618 -13.7368 L -1.87744 -13.906 L -1.73845 -14.0734 L -1.59925 -14.239 L -1.45985 -14.403 L -1.32029 -14.5653 L -1.17261 -14.5779 L -1.02482 -14.589 L -0.876918 -14.5987 L -0.728928 -14.6068 L -0.580863 -14.6135 L -0.432738 -14.6186 L -0.284569 -14.6222 L 0.284569 -14.6222 L 0.432738 -14.6186 L 0.580863 -14.6135 L 0.728928 -14.6068 L 0.876918 -14.5987 L 1.02482 -14.589 L 1.17261 -14.5779 L 1.32029 -14.5653 L 1.45985 -14.403 L 1.59925 -14.239 L 1.73845 -14.0734 L 1.87744 -13.906 L 2.01618 -13.7368 L 2.15465 -13.5657 L 2.29281 -13.3927 L 2.43063 -13.2177 L 2.56808 -13.0406 L 2.70511 -12.8615 L 2.84168 -12.6801 L 2.97775 -12.4965 L 3.11327 -12.3107 L 3.24818 -12.1224 L 3.24818 -12.1224 L 3.45916 -12.218 L 3.66947 -12.3112 L 3.87909 -12.4022 L 4.08803 -12.4909 L 4.29628 -12.5775 L 4.50384 -12.6621 L 4.71069 -12.7448 L 4.91685 -12.8255 L 5.12231 -12.9045 L 5.32708 -12.9817 L 5.53115 -13.0571 L 5.73453 -13.131 L 5.93723 -13.2033 L 6.13924 -13.274 L 6.27345 -13.2112 L 6.40701 -13.1469 L 6.53991 -13.0813 L 6.67214 -13.0143 L 6.80369 -12.9461 L 6.93454 -12.8764 L 7.06467 -12.8055 L 7.55756 -12.5209 L 7.68406 -12.4437 L 7.80977 -12.3652 L 7.93468 -12.2854 L 8.05878 -12.2044 L 8.18204 -12.1221 L 8.30447 -12.0385 L 8.42604 -11.9538 L 8.46576 -11.7434 L 8.50451 -11.5318 L 8.54224 -11.3187 L 8.5789 -11.1042 L 8.61444 -10.8883 L 8.64881 -10.6709 L 8.68196 -10.452 L 8.71382 -10.2315 L 8.74433 -10.0095 L 8.77342 -9.78579 L 8.80103 -9.56047 L 8.82708 -9.33345 L 8.8515 -9.10471 L 8.87419 -8.87419 L 8.87419 -8.87419 L 9.10471 -8.8515 L 9.33345 -8.82708 L 9.56047 -8.80103 L 9.78579 -8.77342 L 10.0095 -8.74433 L 10.2315 -8.71382 L 10.452 -8.68196 L 10.6709 -8.64881 L 10.8883 -8.61444 L 11.1042 -8.5789 L 11.3187 -8.54224 L 11.5318 -8.50451 L 11.7434 -8.46576 L 11.9538 -8.42604 L 12.0385 -8.30447 L 12.1221 -8.18204 L 12.2044 -8.05878 L 12.2854 -7.93468 L 12.3652 -7.80977 L 12.4437 -7.68406 L 12.5209 -7.55756 L 12.8055 -7.06467 L 12.8764 -6.93454 L 12.9461 -6.80369 L 13.0143 -6.67214 L 13.0813 -6.53991 L 13.1469 -6.40701 L 13.2112 -6.27345 L 13.274 -6.13924 L 13.2033 -5.93723 L 13.131 -5.73453 L 13.0571 -5.53115 L 12.9817 -5.32708 L 12.9045 -5.12231 L 12.8255 -4.91685 L 12.7448 -4.71069 L 12.6621 -4.50384 L 12.5775 -4.29628 L 12.4909 -4.08803 L 12.4022 -3.87909 L 12.3112 -3.66947 L 12.218 -3.45916 L 12.1224 -3.24818 L 12.1224 -3.24818 L 12.3107 -3.11327 L 12.4965 -2.97775 L 12.6801 -2.84168 L 12.8615 -2.70511 L 13.0406 -2.56808 L 13.2177 -2.43063 L 13.3927 -2.29281 L 13.5657 -2.15465 L 13.7368 -2.01618 L 13.906 -1.87744 L 14.0734 -1.73845 L 14.239 -1.59925 L 14.403 -1.45985 L 14.5653 -1.32029 L 14.5779 -1.17261 L 14.589 -1.02482 L 14.5987 -0.876918 L 14.6068 -0.728928 L 14.6135 -0.580863 L 14.6186 -0.432738 L 14.6222 -0.284569Z"
id="path1" />
</g>
</svg>
