<?xml version="1.0" encoding="UTF-8" standalone="no"?>
<svg version="1.1">
<g
style="fill:none;stroke:#000000;stroke-opacity:1;stroke-width:0.1">
<path d="M 14.8736 0.201816 L 14.8709 0.350004 L 14.8667 0.498158 L 14.861 0.646262 L 14.8538 0.794302 L 14.8451 0.942263 L 14.835 1.09013 L 14.8234 1.23789 L 14.8103 1.38553 L 14.6476 1.52505 L 14.4832 1.6644 L 14.3172 1.80356 L 14.1494 1.9425 L 13.9799 2.08119 L 13.8085 2.21961 L 13.6352 2.35772 L 13.4599 2.4955 L 13.2826 2.6329 L 13.1033 2.7699 L 12.9218 2.90644 L 12.7381 3.04248 L 12.5522 3.17798 L 12.3639 3.31288 L 12.3639 3.31288 L 12.4595 3.52387 L 12.5528 3.7342 L 12.6438 3.94386 L 12.7327 4.15285 L 12.8196 4.36116 L 12.9044 4.56878 L 12.9873 4.77573 L 13.0683 4.98199 L 13.1475 5.18757 L 13.225 5.39246 L 13.3008 5.59668 L 13.3751 5.80021 L 13.4477 6.00307 L 13.5189 6.20527 L 13.4564 6.33966 L 13.3926 6.47342 L 13.3274 6.60654 L 13.2609 6.739 L 13.1931 6.8708 L 13.124 7.00191 L 13.0536 7.13233 L 12.9819 7.26204 L 12.78 7.61159 L 12.7036 7.73855 L 12.6258 7.86475 L 12.5468 7.99016 L 12.4666 8.11477 L 12.3851 8.23859 L 12.3024 8.36158 L 12.2185 8.48374 L 12.1334 8.60507 L 11.9227 8.64453 L 11.7107 8.68304 L 11.4973 8.72053 L 11.2825 8.75697 L 11.0663 8.7923 L 10.8487 8.82647 L 10.6295 8.85943 L 10.4089 8.89112 L 10.1866 8.92148 L 9.96284 8.95045 L 9.7374 8.97795 L 9.5103 9.00393 L 9.2815 9.02829 L 9.05097 9.05097 L 9.05097 9.05097 L 9.02829 9.2815 L 9.00393 9.5103 L 8.97795 9.7374 L 8.95045 9.96284 L 8.92148 10.1866 L 8.89112 10.4089 L 8.85943 10.6295 L 8.82647 10.8487 L 8.7923 11.0663 L 8.75697 11.2825 L 8.72053 11.4973 L 8.68304 11.7107 L 8.64453 11.9227 L 8.60507 12.1334 L 8.48374 12.2185 L 8.36158 12.3024 L 8.23859 12.3851 L 8.11477 12.4666 L 7.99016 12.5468 L 7.86475 12.6258 L 7.73855 12.7036 L 7.61159 12.78 L 7.26204 12.9819 L 7.13233 13.0536 L 7.00191 13.124 L 6.8708 13.1931 L 6.739 13.2609 L 6.60654 13.3274 L 6.47342 13.3926 L 6.33966 13.4564 L 6.20527 13.5189 L 6.00307 13.4477 L 5.80021 13.3751 L 5.59668 13.3008 L 5.39246 13.225 L 5.18757 13.1475 L 4.98199 13.0683 L 4.77573 12.9873 L 4.56878 12.9044 L 4.36116 12.8196 L 4.15285 12.7327 L 3.94386 12.6438 L 3.7342 12.5528 L 3.52387 12.4595 L 3.31288 12.3639 L 3.31288 12.3639 L 3.17798 12.5522 L 3.04248 12.7381 L 2.90644 12.9218 L 2.7699 13.1033 L 2.6329 13.2826 L 2.4955 13.4599 L 2.35772 13.6352 L 2.21961 13.8085 L 2.08119 13.9799 L 1.9425 14.1494 L 1.80356 14.3172 L 1.6644 14.4832 L 1.52505 14.6476 L 1.38553 14.8103 L 1.23789 14.8234 L 1.09013 14.835 L 0.942263 14.8451 L 0.794302 14.8538 L 0.646262 14.861 L 0.498158 14.8667 L 0.350004 14.8709 L 0.201816 14.8736 L -0.201816 14.8736 L -0.350004 14.8709 L -0.498158 14.8667 L -0.646262 14.861 L -0.794302 14.8538 L -0.942263 14.8451 L -1.09013 14.835 L -1.23789 14.8234 L -1.38553 14.8103 L -1.52505 14.6476 L -1.6644 14.4832 L -1.80356 14.3172 L -1.9425 14.1494 L -2.08119 13.9799 L -2.21961 13.8085 L -2.35772 13.6352 L -2.4955 13.4599 L -2.6329 13.2826 L -2.7699 13.1033 L -2.90644 12.9218 L -3.04248 12.7381 L -3.17798 12.5522 L -3.31288 12.3639 L -3.31288 12.3639 L -3.52387 12.4595 L -3.7342 12.5528 L -3.94386 12.6438 L -4.15285 12.7327 L -4.36116 12.8196 L -4.56878 12.9044 L -4.77573 12.9873 L -4.98199 13.0683 L -5.18757 13.1475 L -5.39246 13.225 L -5.59668 13.3008 L -5.80021 13.3751 L -6.00307 13.4477 L -6.20527 13.5189 L -6.33966 13.4564 L -6.47342 13.3926 L -6.60654 13.3274 L -6.739 13.2609 L -6.8708 13.1931 L -7.00191 13.124 L -7.13233 13.0536 L -7.26204 12.9819 L -7.61159 12.78 L -7.73855 12.7036 L -7.86475 12.6258 L -7.99016 12.5468 L -8.11477 12.4666 L -8.23859 12.3851 L -8.36158 12.3024 L -8.48374 12.2185 L -8.60507 12.1334 L -8.64453 11.9227 L -8.68304 11.7107 L -8.72053 11.4973 L -8.75697 11.2825 L -8.7923 11.0663 L -8.82647 10.8487 L -8.85943 10.6295 L -8.89112 10.4089 L -8.92148 10.1866 L -8.95045 9.96284 L -8.97795 9.7374 L -9.00393 9.5103 L -9.02829 9.2815 L -9.05097 9.05097 L -9.05097 9.05097 L -9.2815 9.02829 L -9.5103 9.00393 L -9.7374 8.97795 L -9.96284 8.95045 L -10.1866 8.92148 L -10.4089 8.89112 L -10.6295 8.85943 L -10.8487 8.82647 L -11.0663 8.7923 L -11.2825 8.75697 L -11.4973 8.72053 L -11.7107 8.68304 L -11.9227 8.64453 L -12.1334 8.60507 L -12.2185 8.48374 L -12.3024 8.36158 L -12.3851 8.23859 L -12.4666 8.11477 L -12.5468 7.99016 L -12.6258 7.86475 L -12.7036 7.73855 L -12.78 7.61159 L -12.9819 7.26204 L -13.0536 7.13233 L -13.124 7.00191 L -13.1931 6.8708 L -13.2609 6.739 L -13.3274 6.60654 L -13.3926 6.47342 L -13.4564 6.33966 L -13.5189 6.20527 L -13.4477 6.00307 L -13.3751 5.80021 L -13.3008 5.59668 L -13.225 5.39246 L -13.1475 5.18757 L -13.0683 4.98199 L -12.9873 4.77573 L -12.9044 4.56878 L -12.8196 4.36116 L -12.7327 4.15285 L -12.6438 3.94386 L -12.5528 3.7342 L -12.4595 3.52387 L -12.3639 3.31288 L -12.3639 3.31288 L -12.5522 3.17798 L -12.7381 3.04248 L -12.9218 2.90644 L -13.1033 2.7699 L -13.2826 2.6329 L -13.4599 2.4955 L -13.6352 2.35772 L -13.8085 2.21961 L -13.9799 2.08119 L -14.1494 1.9425 L -14.3172 1.80356 L -14.4832 1.6644 L -14.6476 1.52505 L -14.8103 1.38553 L -14.8234 1.23789 L -14.835 1.09013 L -14.8451 0.942263 L -14.8538 0.794302 L -14.861 0.646262 L -14.8667 0.498158 L -14.8709 0.350004 L -14.8736 0.201816 L -14.8736 -0.201816 L -14.8709 -0.350004 L -14.8667 -0.498158 L -14.861 -0.646262 L -14.8538 -0.794302 L -14.8451 -0.942263 L -14.835 -1.09013 L -14.8234 -1.23789 L -14.8103 -1.38553 L -14.6476 -1.52505 L -14.4832 -1.6644 L -14.3172 -1.80356 L -14.1494 -1.9425 L -13.9799 -2.08119 L -13.8085 -2.21961 L -13.6352 -2.35772 L -13.4599 -2.4955 L -13.2826 -2.6329 L -13.1033 -2.7699 L -12.9218 -2.90644 L -12.7381 -3.04248 L -12.5522 -3.17798 L -12.3639 -3.31288 L -12.3639 -3.31288 L -12.4595 -3.52387 L -12.5528 -3.7342 L -12.6438 -3.94386 L -12.7327 -4.15285 L -12.8196 -4.36116 L -12.9044 -4.56878 L -12.9873 -4.77573 L -13.0683 -4.98199 L -13.1475 -5.18757 L -13.225 -5.39246 L -13.3008 -5.59668 L -13.3751 -5.80021 L -13.4477 -6.00307 L -13.5189 -6.20527 L -13.4564 -6.33966 L -13.3926 -6.47342 L -13.3274 -6.60654 L -13.2609 -6.739 L -13.1931 -6.8708 L -13.124 -7.00191 L -13.0536 -7.13233 L -12.9819 -7.26204 L -12.78 -7.61159 L -12.7036 -7.73855 L -12.6258 -7.86475 L -12.5468 -7.99016 L -12.4666 -8.11477 L -12.3851 -8.23859 L -12.3024 -8.36158 L -12.2185 -8.48374 L -12.1334 -8.60507 L -11.9227 -8.64453 L -11.7107 -8.68304 L -11.4973 -8.72053 L -11.2825 -8.75697 L -11.0663 -8.7923 L -10.8487 -8.82647 L -10.6295 -8.85943 L -10.4089 -8.89112 L -10.1866 -8.92148 L -9.96284 -8.95045 L -9.7374 -8.97795 L -9.5103 -9.00393 L -9.2815 -9.02829 L -9.05097 -9.05097 L -9.05097 -9.05097 L -9.02829 -9.2815 L -9.00393 -9.5103 L -8.97795 -9.7374 L -8.95045 -9.96284 L -8.92148 -10.1866 L -8.89112 -10.4089 L -8.85943 -10.6295 L -8.82647 -10.8487 L -8.7923 -11.0663 L -8.75697 -11.2825 L -8.72053 -11.4973 L -8.68304 -11.7107 L -8.64453 -11.9227 L -8.60507 -12.1334 L -8.48374 -12.2185 L -8.36158 -12.3024 L -8.23859 -12.3851 L -8.11477 -12.4666 L -7.99016 -12.5468 L -7.86475 -12.6258 L -7.73855 -12.7036 L -7.61159 -12.78 L -7.26204 -12.9819 L -7.13233 -13.0536 L -7.00191 -13.124 L -6.8708 -13.1931 L -6.739 -13.2609 L -6.60654 -13.3274 L -6.47342 -13.3926 L -6.33966 -13.4564 L -6.20527 -13.5189 L -6.00307 -13.4477 L -5.80021 -13.3751 L -5.59668 -13.3008 L -5.39246 -13.225 L -5.18757 -13.1475 L -4.98199 -13.0683 L -4.77573 -12.9873 L -4.56878 -12.9044 L -4.36116 -12.8196 L -4.15285 -12.7327 L -3.94386 -12.6438 L -3.7342 -12.5528 L -3.52387 -12.4595 L -3.31288 -12.3639 L -3.31288 -12.3639 L -3.17798 -12.5522 L -3.04248 -12.7381 L -2.90644 -12.9218 L -2.7699 -13.1033 L -2.6329 -13.2826 L -2.4955 -13.4599 L -2.35772 -13.6352 L -2.21961 -13.8085 L -2.08119 -13.9799 L -1.9425 -14.1494 L -1.80356 -14.3172 L -1.6644 -14.4832 L -1.52505 -14.6476 L -1.38553 -14.8103 L -1.23789 -14.8234 L -1.09013 -14.835 L -0.942263 -14.8451 L -0.794302 -14.8538 L -0.646262 -14.861 L -0.498158 -14.8667 L -0.350004 -14.8709 L -0.201816 -14.8736 L 0.201816 -14.8736 L 0.350004 -14.8709 L 0.498158 -14.8667 L 0.646262 -14.861 L 0.794302 -14.8538 L 0.942263 -14.8451 L 1.09013 -14.835 L 1.23789 -14.8234 L 1.38553 -14.8103 L 1.52505 -14.6476 L 1.6644 -14.4832 L 1.80356 -14.3172 L 1.9425 -14.1494 L 2.08119 -13.9799 L 2.21961 -13.8085 L 2.35772 -13.6352 L 2.4955 -13.4599 L 2.6329 -13.2826 L 2.7699 -13.1033 L 2.90644 -12.9218 L 3.04248 -12.7381 L 3.17798 -12.5522 L 3.31288 -12.3639 L 3.31288 -12.3639 L 3.52387 -12.4595 L 3.7342 -12.5528 L 3.94386 -12.6438 L 4.15285 -12.7327 L 4.36116 -12.8196 L 4.56878 -12.9044 L 4.77573 -12.9873 L 4.98199 -13.0683 L 5.18757 -13.1475 L 5.39246 -13.225 L 5.59668 -13.3008 L 5.80021 -13.3751 L 6.00307 -13.4477 L 6.20527 -13.5189 L 6.33966 -13.4564 L 6.47342 -13.3926 L 6.60654 -13.3274 L 6.739 -13.2609 L 6.8708 -13.1931 L 7.00191 -13.124 L 7.13233 -13.0536 L 7.26204 -12.9819 L 7.61159 -12.78 L 7.73855 -12.7036 L 7.86475 -12.6258 L 7.99016 -12.5468 L 8.11477 -12.4666 L 8.23859 -12.3851 L 8.36158 -12.3024 L 8.48374 -12.2185 L 8.60507 -12.1334 L 8.64453 -11.9227 L 8.68304 -11.7107 L 8.72053 -11.4973 L 8.75697 -11.2825 L 8.7923 -11.0663 L 8.82647 -10.8487 L 8.85943 -10.6295 L 8.89112 -10.4089 L 8.92148 -10.1866 L 8.95045 -9.96284 L 8.97795 -9.7374 L 9.00393 -9.5103 L 9.02829 -9.2815 L 9.05097 -9.05097 L 9.05097 -9.05097 L 9.2815 -9.02829 L 9.5103 -9.00393 L 9.7374 -8.97795 L 9.96284 -8.95045 L 10.1866 -8.92148 L 10.4089 -8.89112 L 10.6295 -8.85943 L 10.8487 -8.82647 L 11.0663 -8.7923 L 11.2825 -8.75697 L 11.4973 -8.72053 L 11.7107 -8.68304 L 11.9227 -8.64453 L 12.1334 -8.60507 L 12.2185 -8.48374 L 12.3024 -8.36158 L 12.3851 -8.23859 L 12.4666 -8.11477 L 12.5468 -7.99016 L 12.6258 -7.86475 L 12.7036 -7.73855 L 12.78 -7.61159 L 12.9819 -7.26204 L 13.0536 -7.13233 L 13.124 -7.00191 L 13.1931 -6.8708 L 13.2609 -6.739 L 13.3274 -6.60654 L 13.3926 -6.47342 L 13.4564 -6.33966 L 13.5189 -6.20527 L 13.4477 -6.00307 L 13.3751 -5.80021 L 13.3008 -5.59668 L 13.225 -5.39246 L 13.1475 -5.18757 L 13.0683 -4.98199 L 12.9873 -4.77573 L 12.9044 -4.56878 L 12.8196 -4.36116 L 12.7327 -4.15285 L 12.6438 -3.94386 L 12.5528 -3.7342 L 12.4595 -3.52387 L 12.3639 -3.31288 L 12.3639 -3.31288 L 12.5522 -3.17798 L 12.7381 -3.04248 L 12.9218 -2.90644 L 13.1033 -2.7699 L 13.2826 -2.6329 L 13.4599 -2.4955 L 13.6352 -2.35772 L 13.8085 -2.21961 L 13.9799 -2.08119 L 14.1494 -1.9425 L 14.3172 -1.80356 L 14.4832 -1.6644 L 14.6476 -1.52505 L 14.8103 -1.38553 L 14.8234 -1.23789 L 14.835 -1.09013 L 14.8451 -0.942263 L 14.8538 -0.794302 L 14.861 -0.646262 L 14.8667 -0.498158 L 14.8709 -0.350004 L 14.8736 -0.201816Z"
id="path1" />
</g>
</svg>
