<?xml version="1.0" encoding="UTF-8" standalone="no"?>
<svg version="1.1">
<g
style="fill:none;stroke:#000000;stroke-opacity:1;stroke-width:0.1">
<path d="M 15.6241 0.165171 L 15.6222 0.294844 L 15.6192 0.424497 L 15.6152 0.55412 L 15.61 0.683706 L 15.6038 0.813244 L 15.5965 0.942726 L 15.5882 1.07214 L 15.5787 1.20149 L 15.5682 1.33075 L 15.5566 1.45992 L 15.4153 1.57262 L 15.2729 1.68521 L 15.1295 1.79769 L 14.985 1.91004 L 14.8394 2.02225 L 14.6927 2.1343 L 14.5448 2.24619 L 14.3957 2.35789 L 14.2454 2.46939 L 14.0938 2.58067 L 13.941 2.69172 L 13.7868 2.80252 L 13.6313 2.91304 L 13.4744 3.02326 L 13.316 3.13317 L 13.1563 3.24273 L 13.1563 3.24273 L 13.2468 3.41399 L 13.3359 3.58489 L 13.4237 3.7554 L 13.51 3.92553 L 13.595 4.09528 L 13.6787 4.26464 L 13.7612 4.43362 L 13.8425 4.6022 L 13.9226 4.77039 L 14.0016 4.93819 L 14.0794 5.10561 L 14.1562 5.27263 L 14.2319 5.43926 L 14.3067 5.60551 L 14.3804 5.77137 L 14.4532 5.93684 L 14.4034 6.0566 L 14.3526 6.17594 L 14.3009 6.29485 L 14.2482 6.41333 L 14.1944 6.53137 L 14.1397 6.64895 L 14.0841 6.76608 L 14.0274 6.88275 L 13.9698 6.99894 L 13.9112 7.11464 L 13.7577 7.40715 L 13.6958 7.52108 L 13.6329 7.63449 L 13.569 7.74738 L 13.5043 7.85974 L 13.4386 7.97155 L 13.3719 8.08281 L 13.3044 8.19352 L 13.2359 8.30366 L 13.1666 8.41323 L 13.0963 8.52223 L 12.9187 8.55633 L 12.7404 8.58986 L 12.5611 8.62281 L 12.3809 8.65514 L 12.1999 8.68683 L 12.0179 8.71785 L 11.8349 8.74819 L 11.651 8.77781 L 11.4661 8.80669 L 11.2801 8.83479 L 11.0932 8.86209 L 10.9052 8.88855 L 10.7161 8.91414 L 10.526 8.93882 L 10.3347 8.96256 L 10.1423 8.98531 L 10.1423 8.98531 L 10.1429 9.17905 L 10.1424 9.37178 L 10.1408 9.56353 L 10.1382 9.7543 L 10.1346 9.94411 L 10.13 10.133 L 10.1246 10.3209 L 10.1182 10.508 L 10.1109 10.6941 L 10.1029 10.8794 L 10.094 11.0638 L 10.0844 11.2474 L 10.074 11.4301 L 10.0629 11.6121 L 10.0511 11.7932 L 10.0387 11.9735 L 9.93895 12.0565 L 9.83854 12.1385 L 9.73745 12.2198 L 9.63569 12.3002 L 9.53327 12.3797 L 9.43019 12.4584 L 9.32646 12.5363 L 9.22209 12.6132 L 9.11708 12.6893 L 9.01145 12.7646 L 8.73958 12.9522 L 8.63178 13.0243 L 8.52338 13.0955 L 8.4144 13.1658 L 8.30483 13.2352 L 8.19469 13.3037 L 8.08399 13.3712 L 7.97273 13.4379 L 7.86093 13.5036 L 7.74858 13.5684 L 7.6357 13.6322 L 7.46265 13.5799 L 7.28912 13.5267 L 7.11507 13.4725 L 6.94053 13.4174 L 6.76547 13.3614 L 6.58989 13.3042 L 6.41379 13.2461 L 6.23717 13.1868 L 6.06002 13.1265 L 5.88234 13.065 L 5.70412 13.0023 L 5.52536 12.9383 L 5.34606 12.8731 L 5.16622 12.8066 L 4.98583 12.7387 L 4.8049 12.6695 L 4.8049 12.6695 L 4.71539 12.8413 L 4.62538 13.0117 L 4.53487 13.1808 L 4.4439 13.3485 L 4.35249 13.5149 L 4.26068 13.68 L 4.16847 13.8438 L 4.0759 14.0065 L 3.98299 14.168 L 3.88974 14.3283 L 3.79619 14.4875 L 3.70235 14.6455 L 3.60824 14.8025 L 3.51387 14.9584 L 3.41926 15.1134 L 3.32442 15.2672 L 3.19759 15.2943 L 3.07054 15.3203 L 2.94327 15.3453 L 2.81581 15.3692 L 2.68815 15.392 L 2.5603 15.4138 L 2.43228 15.4345 L 2.30409 15.4542 L 2.17574 15.4728 L 2.04725 15.4903 L 1.71931 15.5301 L 1.59036 15.5439 L 1.46129 15.5565 L 1.33212 15.5681 L 1.20286 15.5786 L 1.07352 15.5881 L 0.944102 15.5965 L 0.81462 15.6038 L 0.685083 15.61 L 0.555498 15.6151 L 0.425875 15.6192 L 0.29696 15.4925 L 0.168027 15.3647 L 0.0390811 15.2359 L -0.0898671 15.106 L -0.218809 14.975 L -0.347733 14.8428 L -0.476631 14.7095 L -0.605489 14.5749 L -0.734296 14.4392 L -0.863038 14.3021 L -0.991701 14.1638 L -1.12027 14.0241 L -1.24873 13.883 L -1.37706 13.7405 L -1.50525 13.5966 L -1.63327 13.4512 L -1.63327 13.4512 L -1.79237 13.5618 L -1.95128 13.6708 L -2.10998 13.7784 L -2.26846 13.8847 L -2.42673 13.9895 L -2.58476 14.0931 L -2.74256 14.1953 L -2.90011 14.2963 L -3.05743 14.3961 L -3.21449 14.4947 L -3.37129 14.5922 L -3.52784 14.6885 L -3.68413 14.7838 L -3.84016 14.878 L -3.99592 14.9712 L -4.15142 15.0634 L -4.2763 15.0284 L -4.40089 14.9924 L -4.52517 14.9554 L -4.64914 14.9173 L -4.7728 14.8782 L -4.89612 14.8381 L -5.0191 14.7969 L -5.14174 14.7548 L -5.26403 14.7116 L -5.38595 14.6674 L -5.69483 14.5502 L -5.8154 14.5025 L -5.93557 14.4537 L -6.05533 14.4039 L -6.17467 14.3532 L -6.29359 14.3014 L -6.41207 14.2487 L -6.53011 14.195 L -6.64771 14.1403 L -6.76484 14.0847 L -6.88151 14.028 L -6.93676 13.8559 L -6.99155 13.6829 L -7.04587 13.5089 L -7.09967 13.3339 L -7.15296 13.158 L -7.2057 12.981 L -7.25787 12.8031 L -7.30944 12.6241 L -7.3604 12.444 L -7.4107 12.2628 L -7.46034 12.0805 L -7.50926 11.8971 L -7.55746 11.7125 L -7.60488 11.5267 L -7.6515 11.3397 L -7.69728 11.1514 L -7.69728 11.1514 L -7.88953 11.1754 L -8.08092 11.1981 L -8.27145 11.2196 L -8.46115 11.24 L -8.65001 11.2593 L -8.83806 11.2776 L -9.0253 11.2948 L -9.21175 11.311 L -9.39742 11.3263 L -9.58232 11.3406 L -9.76646 11.354 L -9.94985 11.3666 L -10.1325 11.3783 L -10.3145 11.3892 L -10.4957 11.3994 L -10.6762 11.4087 L -10.7705 11.3197 L -10.8641 11.2299 L -10.957 11.1394 L -11.049 11.0481 L -11.1403 10.956 L -11.2309 10.8631 L -11.3207 10.7695 L -11.4097 10.6752 L -11.4979 10.5801 L -11.5853 10.4843 L -11.8044 10.2371 L -11.8889 10.1388 L -11.9727 10.0397 L -12.0556 9.94001 L -12.1377 9.83961 L -12.2189 9.73853 L -12.2993 9.63677 L -12.3789 9.53436 L -12.4576 9.43129 L -12.5354 9.32757 L -12.6124 9.2232 L -12.5814 9.04512 L -12.5495 8.86643 L -12.5167 8.68713 L -12.483 8.50722 L -12.4485 8.32667 L -12.4129 8.14549 L -12.3764 7.96367 L -12.3389 7.7812 L -12.3003 7.59806 L -12.2607 7.41426 L -12.2199 7.22978 L -12.178 7.04462 L -12.1349 6.85877 L -12.0905 6.67222 L -12.0449 6.48496 L -11.9979 6.297 L -11.9979 6.297 L -12.1793 6.22886 L -12.3593 6.16004 L -12.538 6.09057 L -12.7155 6.02048 L -12.8917 5.9498 L -13.0667 5.87855 L -13.2405 5.80677 L -13.4131 5.73448 L -13.5846 5.66171 L -13.755 5.58847 L -13.9242 5.51479 L -14.0925 5.44068 L -14.2597 5.36618 L -14.4258 5.29129 L -14.591 5.21604 L -14.7552 5.14044 L -14.7974 5.0178 L -14.8385 4.89481 L -14.8786 4.77148 L -14.9177 4.64783 L -14.9558 4.52385 L -14.9928 4.39956 L -15.0288 4.27497 L -15.0638 4.15009 L -15.0977 4.02492 L -15.1306 3.89947 L -15.2096 3.57873 L -15.2388 3.45237 L -15.267 3.32577 L -15.294 3.19894 L -15.3201 3.07189 L -15.345 2.94463 L -15.3689 2.81716 L -15.3918 2.68951 L -15.4136 2.56166 L -15.4343 2.43364 L -15.454 2.30546 L -15.3437 2.16221 L -15.2324 2.01881 L -15.1201 1.87528 L -15.0067 1.73161 L -14.8922 1.58782 L -14.7765 1.4439 L -14.6597 1.29987 L -14.5416 1.15574 L -14.4224 1.01151 L -14.3019 0.867184 L -14.18 0.722782 L -14.0569 0.578313 L -13.9323 0.433787 L -13.8063 0.289217 L -13.6789 0.144616 L -13.55 5.32907e-15 L -13.55 -2.01028e-15 L -13.6789 -0.144616 L -13.8063 -0.289217 L -13.9323 -0.433787 L -14.0569 -0.578313 L -14.18 -0.722782 L -14.3019 -0.867184 L -14.4224 -1.01151 L -14.5416 -1.15574 L -14.6597 -1.29987 L -14.7765 -1.4439 L -14.8922 -1.58782 L -15.0067 -1.73161 L -15.1201 -1.87528 L -15.2324 -2.01881 L -15.3437 -2.16221 L -15.454 -2.30546 L -15.4343 -2.43364 L -15.4136 -2.56166 L -15.3918 -2.68951 L -15.3689 -2.81716 L -15.345 -2.94463 L -15.3201 -3.07189 L -15.294 -3.19894 L -15.267 -3.32577 L -15.2388 -3.45237 L -15.2096 -3.57873 L -15.1306 -3.89947 L -15.0977 -4.02492 L -15.0638 -4.15009 L -15.0288 -4.27497 L -14.9928 -4.39956 L -14.9558 -4.52385 L -14.9177 -4.64783 L -14.8786 -4.77148 L -14.8385 -4.89481 L -14.7974 -5.0178 L -14.7552 -5.14044 L -14.591 -5.21604 L -14.4258 -5.29129 L -14.2597 -5.36618 L -14.0925 -5.44068 L -13.9242 -5.51479 L -13.755 -5.58847 L -13.5846 -5.66171 L -13.4131 -5.73448 L -13.2405 -5.80677 L -13.0667 -5.87855 L -12.8917 -5.9498 L -12.7155 -6.02048 L -12.538 -6.09057 L -12.3593 -6.16004 L -12.1793 -6.22886 L -11.9979 -6.297 L -11.9979 -6.297 L -12.0449 -6.48496 L -12.0905 -6.67222 L -12.1349 -6.85877 L -12.178 -7.04462 L -12.2199 -7.22978 L -12.2607 -7.41426 L -12.3003 -7.59806 L -12.3389 -7.7812 L -12.3764 -7.96367 L -12.4129 -8.14549 L -12.4485 -8.32667 L -12.483 -8.50722 L -12.5167 -8.68713 L -12.5495 -8.86643 L -12.5814 -9.04512 L -12.6124 -9.2232 L -12.5354 -9.32757 L -12.4576 -9.43129 L -12.3789 -9.53436 L -12.2993 -9.63677 L -12.2189 -9.73853 L -12.1377 -9.83961 L -12.0556 -9.94001 L -11.9727 -10.0397 L -11.8889 -10.1388 L -11.8044 -10.2371 L -11.5853 -10.4843 L -11.4979 -10.5801 L -11.4097 -10.6752 L -11.3207 -10.7695 L -11.2309 -10.8631 L -11.1403 -10.956 L -11.049 -11.0481 L -10.957 -11.1394 L -10.8641 -11.2299 L -10.7705 -11.3197 L -10.6762 -11.4087 L -10.4957 -11.3994 L -10.3145 -11.3892 L -10.1325 -11.3783 L -9.94985 -11.3666 L -9.76646 -11.354 L -9.58232 -11.3406 L -9.39742 -11.3263 L -9.21175 -11.311 L -9.0253 -11.2948 L -8.83806 -11.2776 L -8.65001 -11.2593 L -8.46115 -11.24 L -8.27145 -11.2196 L -8.08092 -11.1981 L -7.88953 -11.1754 L -7.69728 -11.1514 L -7.69728 -11.1514 L -7.6515 -11.3397 L -7.60488 -11.5267 L -7.55746 -11.7125 L -7.50926 -11.8971 L -7.46034 -12.0805 L -7.4107 -12.2628 L -7.3604 -12.444 L -7.30944 -12.6241 L -7.25787 -12.8031 L -7.2057 -12.981 L -7.15296 -13.158 L -7.09967 -13.3339 L -7.04587 -13.5089 L -6.99155 -13.6829 L -6.93676 -13.8559 L -6.88151 -14.028 L -6.76484 -14.0847 L -6.64771 -14.1403 L -6.53011 -14.195 L -6.41207 -14.2487 L -6.29359 -14.3014 L -6.17467 -14.3532 L -6.05533 -14.4039 L -5.93557 -14.4537 L -5.8154 -14.5025 L -5.69483 -14.5502 L -5.38595 -14.6674 L -5.26403 -14.7116 L -5.14174 -14.7548 L -5.0191 -14.7969 L -4.89612 -14.8381 L -4.7728 -14.8782 L -4.64914 -14.9173 L -4.52517 -14.9554 L -4.40089 -14.9924 L -4.2763 -15.0284 L -4.15142 -15.0634 L -3.99592 -14.9712 L -3.84016 -14.878 L -3.68413 -14.7838 L -3.52784 -14.6885 L -3.37129 -14.5922 L -3.21449 -14.4947 L -3.05743 -14.3961 L -2.90011 -14.2963 L -2.74256 -14.1953 L -2.58476 -14.0931 L -2.42673 -13.9895 L -2.26846 -13.8847 L -2.10998 -13.7784 L -1.95128 -13.6708 L -1.79237 -13.5618 L -1.63327 -13.4512 L -1.63327 -13.4512 L -1.50525 -13.5966 L -1.37706 -13.7405 L -1.24873 -13.883 L -1.12027 -14.0241 L -0.991701 -14.1638 L -0.863038 -14.3021 L -0.734296 -14.4392 L -0.605489 -14.5749 L -0.476631 -14.7095 L -0.347733 -14.8428 L -0.218809 -14.975 L -0.0898671 -15.106 L 0.0390811 -15.2359 L 0.168027 -15.3647 L 0.29696 -15.4925 L 0.425875 -15.6192 L 0.555498 -15.6151 L 0.685083 -15.61 L 0.81462 -15.6038 L 0.944102 -15.5965 L 1.07352 -15.5881 L 1.20286 -15.5786 L 1.33212 -15.5681 L 1.46129 -15.5565 L 1.59036 -15.5439 L 1.71931 -15.5301 L 2.04725 -15.4903 L 2.17574 -15.4728 L 2.30409 -15.4542 L 2.43228 -15.4345 L 2.5603 -15.4138 L 2.68815 -15.392 L 2.81581 -15.3692 L 2.94327 -15.3453 L 3.07054 -15.3203 L 3.19759 -15.2943 L 3.32442 -15.2672 L 3.41926 -15.1134 L 3.51387 -14.9584 L 3.60824 -14.8025 L 3.70235 -14.6455 L 3.79619 -14.4875 L 3.88974 -14.3283 L 3.98299 -14.168 L 4.0759 -14.0065 L 4.16847 -13.8438 L 4.26068 -13.68 L 4.35249 -13.5149 L 4.4439 -13.3485 L 4.53487 -13.1808 L 4.62538 -13.0117 L 4.71539 -12.8413 L 4.8049 -12.6695 L 4.8049 -12.6695 L 4.98583 -12.7387 L 5.16622 -12.8066 L 5.34606 -12.8731 L 5.52536 -12.9383 L 5.70412 -13.0023 L 5.88234 -13.065 L 6.06002 -13.1265 L 6.23717 -13.1868 L 6.41379 -13.2461 L 6.58989 -13.3042 L 6.76547 -13.3614 L 6.94053 -13.4174 L 7.11507 -13.4725 L 7.28912 -13.5267 L 7.46265 -13.5799 L 7.6357 -13.6322 L 7.74858 -13.5684 L 7.86093 -13.5036 L 7.97273 -13.4379 L 8.08399 -13.3712 L 8.19469 -13.3037 L 8.30483 -13.2352 L 8.4144 -13.1658 L 8.52338 -13.0955 L 8.63178 -13.0243 L 8.73958 -12.9522 L 9.01145 -12.7646 L 9.11708 -12.6893 L 9.22209 -12.6132 L 9.32646 -12.5363 L 9.43019 -12.4584 L 9.53327 -12.3797 L 9.63569 -12.3002 L 9.73745 -12.2198 L 9.83854 -12.1385 L 9.93895 -12.0565 L 10.0387 -11.9735 L 10.0511 -11.7932 L 10.0629 -11.6121 L 10.074 -11.4301 L 10.0844 -11.2474 L 10.094 -11.0638 L 10.1029 -10.8794 L 10.1109 -10.6941 L 10.1182 -10.508 L 10.1246 -10.3209 L 10.13 -10.133 L 10.1346 -9.94411 L 10.1382 -9.7543 L 10.1408 -9.56353 L 10.1424 -9.37178 L 10.1429 -9.17905 L 10.1423 -8.98531 L 10.1423 -8.98531 L 10.3347 -8.96256 L 10.526 -8.93882 L 10.7161 -8.91414 L 10.9052 -8.88855 L 11.0932 -8.86209 L 11.2801 -8.83479 L 11.4661 -8.80669 L 11.651 -8.77781 L 11.8349 -8.74819 L 12.0179 -8.71785 L 12.1999 -8.68683 L 12.3809 -8.65514 L 12.5611 -8.62281 L 12.7404 -8.58986 L 12.9187 -8.55633 L 13.0963 -8.52223 L 13.1666 -8.41323 L 13.2359 -8.30366 L 13.3044 -8.19352 L 13.3719 -8.08281 L 13.4386 -7.97155 L 13.5043 -7.85974 L 13.569 -7.74738 L 13.6329 -7.63449 L 13.6958 -7.52108 L 13.7577 -7.40715 L 13.9112 -7.11464 L 13.9698 -6.99894 L 14.0274 -6.88275 L 14.0841 -6.76608 L 14.1397 -6.64895 L 14.1944 -6.53137 L 14.2482 -6.41333 L 14.3009 -6.29485 L 14.3526 -6.17594 L 14.4034 -6.0566 L 14.4532 -5.93684 L 14.3804 -5.77137 L 14.3067 -5.60551 L 14.2319 -5.43926 L 14.1562 -5.27263 L 14.0794 -5.10561 L 14.0016 -4.93819 L 13.9226 -4.77039 L 13.8425 -4.6022 L 13.7612 -4.43362 L 13.6787 -4.26464 L 13.595 -4.09528 L 13.51 -3.92553 L 13.4237 -3.7554 L 13.3359 -3.58489 L 13.2468 -3.41399 L 13.1563 -3.24273 L 13.1563 -3.24273 L 13.316 -3.13317 L 13.4744 -3.02326 L 13.6313 -2.91304 L 13.7868 -2.80252 L 13.941 -2.69172 L 14.0938 -2.58067 L 14.2454 -2.46939 L 14.3957 -2.35789 L 14.5448 -2.24619 L 14.6927 -2.1343 L 14.8394 -2.02225 L 14.985 -1.91004 L 15.1295 -1.79769 L 15.2729 -1.68521 L 15.4153 -1.57262 L 15.5566 -1.45992 L 15.5682 -1.33075 L 15.5787 -1.20149 L 15.5882 -1.07214 L 15.5965 -0.942726 L 15.6038 -0.813244 L 15.61 -0.683706 L 15.6152 -0.55412 L 15.6192 -0.424497 L 15.6222 -0.294844 L 15.6241 -0.165171Z"
id="path1" />
</g>
</svg>
