<?xml version="1.0" encoding="UTF-8" standalone="no"?>
<svg version="1.1">
<g
style="fill:none;stroke:#000000;stroke-opacity:1;stroke-width:0.1">
<path d="M 16.499 0.182309 L 16.4973 0.297575 L 16.4948 0.412826 L 16.4915 0.528056 L 16.4875 0.643261 L 16.4826 0.758435 L 16.4769 0.873571 L 16.4704 0.988665 L 16.463 1.10371 L 16.4549 1.2187 L 16.446 1.33363 L 16.4363 1.4485 L 16.3126 1.53538 L 16.1884 1.6222 L 16.0635 1.70896 L 15.9381 1.79566 L 15.812 1.88229 L 15.6852 1.96884 L 15.5579 2.05531 L 15.4299 2.1417 L 15.3011 2.22798 L 15.1717 2.31417 L 15.0416 2.40025 L 14.9108 2.48622 L 14.7792 2.57206 L 14.6469 2.65777 L 14.5138 2.74334 L 14.38 2.82877 L 14.2453 2.91403 L 14.1098 2.99913 L 14.1098 2.99913 L 14.199 3.13198 L 14.2873 3.26465 L 14.3749 3.39714 L 14.4616 3.52945 L 14.5477 3.66157 L 14.6329 3.7935 L 14.7175 3.92525 L 14.8013 4.0568 L 14.8845 4.18817 L 14.967 4.31935 L 15.0488 4.45034 L 15.13 4.58114 L 15.2105 4.71175 L 15.2905 4.84217 L 15.3699 4.9724 L 15.4486 5.10245 L 15.5268 5.2323 L 15.6045 5.36197 L 15.5666 5.47086 L 15.528 5.57948 L 15.4887 5.68783 L 15.4485 5.79591 L 15.4077 5.9037 L 15.3661 6.0112 L 15.3237 6.1184 L 15.2806 6.22531 L 15.2367 6.33192 L 15.1921 6.43822 L 15.1467 6.5442 L 14.9984 6.87729 L 14.95 6.98191 L 14.9009 7.08619 L 14.851 7.19012 L 14.8004 7.2937 L 14.7491 7.39693 L 14.697 7.49979 L 14.6443 7.60229 L 14.5908 7.70441 L 14.5366 7.80616 L 14.4817 7.90753 L 14.4261 8.00852 L 14.2778 8.03758 L 14.129 8.06636 L 13.9797 8.09484 L 13.8298 8.12301 L 13.6794 8.15086 L 13.5284 8.17839 L 13.3769 8.20558 L 13.2248 8.23242 L 13.0721 8.2589 L 12.9188 8.28501 L 12.765 8.31073 L 12.6105 8.33605 L 12.4554 8.36096 L 12.2996 8.38544 L 12.1432 8.40948 L 11.9862 8.43307 L 11.8285 8.45618 L 11.6701 8.4788 L 11.6701 8.4788 L 11.6975 8.63644 L 11.7243 8.79358 L 11.7504 8.95023 L 11.7758 9.10639 L 11.8007 9.26208 L 11.8249 9.41729 L 11.8486 9.57203 L 11.8716 9.72632 L 11.8942 9.88015 L 11.9162 10.0335 L 11.9376 10.1865 L 11.9586 10.339 L 11.9791 10.4911 L 11.9991 10.6427 L 12.0186 10.794 L 12.0377 10.9448 L 12.0563 11.0953 L 12.0745 11.2453 L 11.9956 11.3294 L 11.9162 11.4129 L 11.8361 11.4959 L 11.7555 11.5783 L 11.6744 11.6602 L 11.5926 11.7414 L 11.5103 11.8221 L 11.4274 11.9023 L 11.344 11.9818 L 11.26 12.0608 L 11.1755 12.1392 L 10.9045 12.3831 L 10.8177 12.459 L 10.7304 12.5343 L 10.6426 12.6089 L 10.5542 12.683 L 10.4654 12.7564 L 10.376 12.8292 L 10.2861 12.9014 L 10.1957 12.973 L 10.1048 13.0439 L 10.0134 13.1141 L 9.92158 13.1838 L 9.77427 13.15 L 9.6266 13.1158 L 9.47858 13.081 L 9.3302 13.0458 L 9.18146 13.0101 L 9.03235 12.9738 L 8.88286 12.937 L 8.733 12.8997 L 8.58275 12.8618 L 8.43211 12.8233 L 8.28109 12.7842 L 8.12966 12.7445 L 7.97783 12.7042 L 7.8256 12.6632 L 7.67295 12.6215 L 7.51989 12.5792 L 7.36641 12.5362 L 7.2125 12.4924 L 7.2125 12.4924 L 7.17344 12.6476 L 7.13397 12.802 L 7.0941 12.9557 L 7.05384 13.1088 L 7.01321 13.2611 L 6.97223 13.4127 L 6.9309 13.5637 L 6.88924 13.7141 L 6.84725 13.8638 L 6.80496 14.0128 L 6.76237 14.1613 L 6.71949 14.3092 L 6.67633 14.4564 L 6.63291 14.6031 L 6.58922 14.7492 L 6.54529 14.8948 L 6.50111 15.0398 L 6.4567 15.1842 L 6.35046 15.229 L 6.24391 15.273 L 6.13705 15.3162 L 6.0299 15.3587 L 5.92244 15.4005 L 5.81471 15.4415 L 5.70668 15.4817 L 5.59838 15.5212 L 5.4898 15.56 L 5.38096 15.5979 L 5.27186 15.6351 L 4.92508 15.7478 L 4.81494 15.7818 L 4.70456 15.8151 L 4.59396 15.8476 L 4.48313 15.8793 L 4.37208 15.9102 L 4.26081 15.9404 L 4.14934 15.9698 L 4.03767 15.9984 L 3.9258 16.0262 L 3.81374 16.0532 L 3.70149 16.0795 L 3.58065 15.9887 L 3.45968 15.8973 L 3.33858 15.8054 L 3.21735 15.7129 L 3.096 15.6197 L 2.97453 15.526 L 2.85293 15.4316 L 2.73121 15.3365 L 2.60937 15.2407 L 2.48742 15.1443 L 2.36535 15.0472 L 2.24316 14.9493 L 2.12086 14.8507 L 1.99846 14.7514 L 1.87595 14.6512 L 1.75334 14.5503 L 1.63063 14.4486 L 1.50782 14.346 L 1.50782 14.346 L 1.40903 14.4718 L 1.31015 14.5969 L 1.21121 14.7211 L 1.11219 14.8445 L 1.01312 14.9671 L 0.913995 15.089 L 0.814825 15.2101 L 0.715616 15.3305 L 0.616374 15.4502 L 0.517104 15.5692 L 0.417812 15.6875 L 0.318501 15.8051 L 0.219177 15.9221 L 0.119845 16.0384 L 0.0205076 16.1542 L -0.0788304 16.2693 L -0.178166 16.3838 L -0.277494 16.4977 L -0.392748 16.4953 L -0.507983 16.4922 L -0.623192 16.4882 L -0.738372 16.4835 L -0.853515 16.4779 L -0.968617 16.4715 L -1.08367 16.4644 L -1.19867 16.4564 L -1.31362 16.4476 L -1.42849 16.438 L -1.5433 16.4277 L -1.90592 16.3896 L -2.02038 16.3758 L -2.13474 16.3613 L -2.249 16.346 L -2.36315 16.3299 L -2.47718 16.313 L -2.59109 16.2953 L -2.70487 16.2768 L -2.81852 16.2575 L -2.93203 16.2374 L -3.04541 16.2165 L -3.15863 16.1948 L -3.2321 16.0628 L -3.30546 15.9301 L -3.3787 15.7969 L -3.45181 15.663 L -3.52478 15.5286 L -3.59761 15.3935 L -3.67029 15.2578 L -3.74282 15.1215 L -3.81518 14.9844 L -3.88737 14.8467 L -3.95938 14.7083 L -4.0312 14.5692 L -4.10282 14.4294 L -4.17423 14.2889 L -4.24543 14.1476 L -4.31639 14.0055 L -4.3871 13.8626 L -4.45757 13.719 L -4.45757 13.719 L -4.59902 13.7938 L -4.7402 13.8678 L -4.88112 13.941 L -5.02177 14.0135 L -5.16215 14.0852 L -5.30228 14.1563 L -5.44214 14.2266 L -5.58174 14.2962 L -5.72108 14.3652 L -5.86016 14.4335 L -5.99899 14.5012 L -6.13756 14.5682 L -6.27587 14.6347 L -6.41394 14.7006 L -6.55175 14.7659 L -6.68932 14.8306 L -6.82664 14.8948 L -6.96371 14.9585 L -7.06805 14.9095 L -7.17204 14.8597 L -7.27568 14.8093 L -7.37897 14.7581 L -7.48189 14.7062 L -7.58446 14.6535 L -7.68665 14.6002 L -7.78846 14.5461 L -7.8899 14.4914 L -7.99095 14.4359 L -8.09161 14.3797 L -8.40738 14.1974 L -8.50637 14.1383 L -8.60493 14.0785 L -8.70308 14.0181 L -8.80081 13.9569 L -8.8981 13.8951 L -8.99496 13.8326 L -9.09139 13.7694 L -9.18736 13.7056 L -9.28289 13.641 L -9.37797 13.5758 L -9.47259 13.51 L -9.48599 13.3595 L -9.49905 13.2084 L -9.51176 13.0569 L -9.52412 12.9049 L -9.5361 12.7524 L -9.54769 12.5994 L -9.55889 12.4459 L -9.56969 12.2918 L -9.58006 12.1372 L -9.59 11.982 L -9.5995 11.8263 L -9.60853 11.67 L -9.61709 11.5132 L -9.62516 11.3557 L -9.63273 11.1977 L -9.63977 11.039 L -9.64627 10.8798 L -9.65221 10.7199 L -9.65221 10.7199 L -9.81185 10.7307 L -9.97093 10.7409 L -10.1294 10.7504 L -10.2874 10.7594 L -10.4448 10.7679 L -10.6017 10.7757 L -10.7581 10.7831 L -10.914 10.7899 L -11.0693 10.7963 L -11.2242 10.8021 L -11.3785 10.8075 L -11.5324 10.8124 L -11.6858 10.8168 L -11.8387 10.8209 L -11.9912 10.8245 L -12.1432 10.8277 L -12.2947 10.8305 L -12.4458 10.8329 L -12.5212 10.7457 L -12.596 10.6579 L -12.6701 10.5697 L -12.7437 10.4809 L -12.8166 10.3916 L -12.8889 10.3018 L -12.9605 10.2115 L -13.0316 10.1207 L -13.1019 10.0294 L -13.1717 9.93762 L -13.2408 9.84536 L -13.4551 9.55037 L -13.5215 9.45614 L -13.5873 9.36144 L -13.6523 9.26628 L -13.7167 9.17067 L -13.7805 9.07462 L -13.8435 8.97812 L -13.9059 8.88118 L -13.9676 8.78381 L -14.0287 8.68602 L -14.089 8.58779 L -14.1487 8.48915 L -14.0997 8.34617 L -14.0502 8.2029 L -14.0002 8.05932 L -13.9496 7.91543 L -13.8985 7.77124 L -13.8469 7.62673 L -13.7947 7.48191 L -13.7419 7.33677 L -13.6885 7.19131 L -13.6344 7.04552 L -13.5798 6.89941 L -13.5245 6.75296 L -13.4685 6.60618 L -13.4118 6.45907 L -13.3544 6.31161 L -13.2963 6.16381 L -13.2375 6.01567 L -13.1779 5.86718 L -13.1779 5.86718 L -13.3281 5.81211 L -13.4776 5.75671 L -13.6263 5.70099 L -13.7743 5.64496 L -13.9215 5.58863 L -14.0681 5.53202 L -14.2139 5.47513 L -14.3591 5.41799 L -14.5036 5.36058 L -14.6474 5.30294 L -14.7906 5.24506 L -14.9331 5.18696 L -15.0751 5.12865 L -15.2164 5.07013 L -15.3572 5.01141 L -15.4973 4.9525 L -15.6369 4.89341 L -15.776 4.83415 L -15.8094 4.72381 L -15.842 4.61324 L -15.8738 4.50245 L -15.9049 4.39144 L -15.9352 4.28021 L -15.9647 4.16878 L -15.9934 4.05714 L -16.0214 3.9453 L -16.0486 3.83327 L -16.0749 3.72106 L -16.1005 3.60866 L -16.1764 3.25201 L -16.1987 3.13891 L -16.2202 3.02566 L -16.241 2.91227 L -16.2609 2.79873 L -16.2801 2.68506 L -16.2984 2.57125 L -16.316 2.45732 L -16.3328 2.34327 L -16.3487 2.2291 L -16.3639 2.11483 L -16.3783 2.00045 L -16.2754 1.88976 L -16.1719 1.779 L -16.0678 1.66817 L -15.9631 1.55729 L -15.8578 1.44634 L -15.7518 1.33533 L -15.6452 1.22427 L -15.538 1.11315 L -15.43 1.00199 L -15.3213 0.890781 L -15.212 0.779531 L -15.1019 0.668243 L -14.991 0.556923 L -14.8794 0.445574 L -14.7671 0.334202 L -14.6539 0.222812 L -14.5399 0.111409 L -14.425 6.21725e-15 L -14.425 -2.68414e-15 L -14.5399 -0.111409 L -14.6539 -0.222812 L -14.7671 -0.334202 L -14.8794 -0.445574 L -14.991 -0.556923 L -15.1019 -0.668243 L -15.212 -0.779531 L -15.3213 -0.890781 L -15.43 -1.00199 L -15.538 -1.11315 L -15.6452 -1.22427 L -15.7518 -1.33533 L -15.8578 -1.44634 L -15.9631 -1.55729 L -16.0678 -1.66817 L -16.1719 -1.779 L -16.2754 -1.88976 L -16.3783 -2.00045 L -16.3639 -2.11483 L -16.3487 -2.2291 L -16.3328 -2.34327 L -16.316 -2.45732 L -16.2984 -2.57125 L -16.2801 -2.68506 L -16.2609 -2.79873 L -16.241 -2.91227 L -16.2202 -3.02566 L -16.1987 -3.13891 L -16.1764 -3.25201 L -16.1005 -3.60866 L -16.0749 -3.72106 L -16.0486 -3.83327 L -16.0214 -3.9453 L -15.9934 -4.05714 L -15.9647 -4.16878 L -15.9352 -4.28021 L -15.9049 -4.39144 L -15.8738 -4.50245 L -15.842 -4.61324 L -15.8094 -4.72381 L -15.776 -4.83415 L -15.6369 -4.89341 L -15.4973 -4.9525 L -15.3572 -5.01141 L -15.2164 -5.07013 L -15.0751 -5.12865 L -14.9331 -5.18696 L -14.7906 -5.24506 L -14.6474 -5.30294 L -14.5036 -5.36058 L -14.3591 -5.41799 L -14.2139 -5.47513 L -14.0681 -5.53202 L -13.9215 -5.58863 L -13.7743 -5.64496 L -13.6263 -5.70099 L -13.4776 -5.75671 L -13.3281 -5.81211 L -13.1779 -5.86718 L -13.1779 -5.86718 L -13.2375 -6.01567 L -13.2963 -6.16381 L -13.3544 -6.31161 L -13.4118 -6.45907 L -13.4685 -6.60618 L -13.5245 -6.75296 L -13.5798 -6.89941 L -13.6344 -7.04552 L -13.6885 -7.19131 L -13.7419 -7.33677 L -13.7947 -7.48191 L -13.8469 -7.62673 L -13.8985 -7.77124 L -13.9496 -7.91543 L -14.0002 -8.05932 L -14.0502 -8.2029 L -14.0997 -8.34617 L -14.1487 -8.48915 L -14.089 -8.58779 L -14.0287 -8.68602 L -13.9676 -8.78381 L -13.9059 -8.88118 L -13.8435 -8.97812 L -13.7805 -9.07462 L -13.7167 -9.17067 L -13.6523 -9.26628 L -13.5873 -9.36144 L -13.5215 -9.45614 L -13.4551 -9.55037 L -13.2408 -9.84536 L -13.1717 -9.93762 L -13.1019 -10.0294 L -13.0316 -10.1207 L -12.9605 -10.2115 L -12.8889 -10.3018 L -12.8166 -10.3916 L -12.7437 -10.4809 L -12.6701 -10.5697 L -12.596 -10.6579 L -12.5212 -10.7457 L -12.4458 -10.8329 L -12.2947 -10.8305 L -12.1432 -10.8277 L -11.9912 -10.8245 L -11.8387 -10.8209 L -11.6858 -10.8168 L -11.5324 -10.8124 L -11.3785 -10.8075 L -11.2242 -10.8021 L -11.0693 -10.7963 L -10.914 -10.7899 L -10.7581 -10.7831 L -10.6017 -10.7757 L -10.4448 -10.7679 L -10.2874 -10.7594 L -10.1294 -10.7504 L -9.97093 -10.7409 L -9.81185 -10.7307 L -9.65221 -10.7199 L -9.65221 -10.7199 L -9.64627 -10.8798 L -9.63977 -11.039 L -9.63273 -11.1977 L -9.62516 -11.3557 L -9.61709 -11.5132 L -9.60853 -11.67 L -9.5995 -11.8263 L -9.59 -11.982 L -9.58006 -12.1372 L -9.56969 -12.2918 L -9.55889 -12.4459 L -9.54769 -12.5994 L -9.5361 -12.7524 L -9.52412 -12.9049 L -9.51176 -13.0569 L -9.49905 -13.2084 L -9.48599 -13.3595 L -9.47259 -13.51 L -9.37797 -13.5758 L -9.28289 -13.641 L -9.18736 -13.7056 L -9.09139 -13.7694 L -8.99496 -13.8326 L -8.8981 -13.8951 L -8.80081 -13.9569 L -8.70308 -14.0181 L -8.60493 -14.0785 L -8.50637 -14.1383 L -8.40738 -14.1974 L -8.09161 -14.3797 L -7.99095 -14.4359 L -7.8899 -14.4914 L -7.78846 -14.5461 L -7.68665 -14.6002 L -7.58446 -14.6535 L -7.48189 -14.7062 L -7.37897 -14.7581 L -7.27568 -14.8093 L -7.17204 -14.8597 L -7.06805 -14.9095 L -6.96371 -14.9585 L -6.82664 -14.8948 L -6.68932 -14.8306 L -6.55175 -14.7659 L -6.41394 -14.7006 L -6.27587 -14.6347 L -6.13756 -14.5682 L -5.99899 -14.5012 L -5.86016 -14.4335 L -5.72108 -14.3652 L -5.58174 -14.2962 L -5.44214 -14.2266 L -5.30228 -14.1563 L -5.16215 -14.0852 L -5.02177 -14.0135 L -4.88112 -13.941 L -4.7402 -13.8678 L -4.59902 -13.7938 L -4.45757 -13.719 L -4.45757 -13.719 L -4.3871 -13.8626 L -4.31639 -14.0055 L -4.24543 -14.1476 L -4.17423 -14.2889 L -4.10282 -14.4294 L -4.0312 -14.5692 L -3.95938 -14.7083 L -3.88737 -14.8467 L -3.81518 -14.9844 L -3.74282 -15.1215 L -3.67029 -15.2578 L -3.59761 -15.3935 L -3.52478 -15.5286 L -3.45181 -15.663 L -3.3787 -15.7969 L -3.30546 -15.9301 L -3.2321 -16.0628 L -3.15863 -16.1948 L -3.04541 -16.2165 L -2.93203 -16.2374 L -2.81852 -16.2575 L -2.70487 -16.2768 L -2.59109 -16.2953 L -2.47718 -16.313 L -2.36315 -16.3299 L -2.249 -16.346 L -2.13474 -16.3613 L -2.02038 -16.3758 L -1.90592 -16.3896 L -1.5433 -16.4277 L -1.42849 -16.438 L -1.31362 -16.4476 L -1.19867 -16.4564 L -1.08367 -16.4644 L -0.968617 -16.4715 L -0.853515 -16.4779 L -0.738372 -16.4835 L -0.623192 -16.4882 L -0.507983 -16.4922 L -0.392748 -16.4953 L -0.277494 -16.4977 L -0.178166 -16.3838 L -0.0788304 -16.2693 L 0.0205076 -16.1542 L 0.119845 -16.0384 L 0.219177 -15.9221 L 0.318501 -15.8051 L 0.417812 -15.6875 L 0.517104 -15.5692 L 0.616374 -15.4502 L 0.715616 -15.3305 L 0.814825 -15.2101 L 0.913995 -15.089 L 1.01312 -14.9671 L 1.11219 -14.8445 L 1.21121 -14.7211 L 1.31015 -14.5969 L 1.40903 -14.4718 L 1.50782 -14.346 L 1.50782 -14.346 L 1.63063 -14.4486 L 1.75334 -14.5503 L 1.87595 -14.6512 L 1.99846 -14.7514 L 2.12086 -14.8507 L 2.24316 -14.9493 L 2.36535 -15.0472 L 2.48742 -15.1443 L 2.60937 -15.2407 L 2.73121 -15.3365 L 2.85293 -15.4316 L 2.97453 -15.526 L 3.096 -15.6197 L 3.21735 -15.7129 L 3.33858 -15.8054 L 3.45968 -15.8973 L 3.58065 -15.9887 L 3.70149 -16.0795 L 3.81374 -16.0532 L 3.9258 -16.0262 L 4.03767 -15.9984 L 4.14934 -15.9698 L 4.26081 -15.9404 L 4.37208 -15.9102 L 4.48313 -15.8793 L 4.59396 -15.8476 L 4.70456 -15.8151 L 4.81494 -15.7818 L 4.92508 -15.7478 L 5.27186 -15.6351 L 5.38096 -15.5979 L 5.4898 -15.56 L 5.59838 -15.5212 L 5.70668 -15.4817 L 5.81471 -15.4415 L 5.92244 -15.4005 L 6.0299 -15.3587 L 6.13705 -15.3162 L 6.24391 -15.273 L 6.35046 -15.229 L 6.4567 -15.1842 L 6.50111 -15.0398 L 6.54529 -14.8948 L 6.58922 -14.7492 L 6.63291 -14.6031 L 6.67633 -14.4564 L 6.71949 -14.3092 L 6.76237 -14.1613 L 6.80496 -14.0128 L 6.84725 -13.8638 L 6.88924 -13.7141 L 6.9309 -13.5637 L 6.97223 -13.4127 L 7.01321 -13.2611 L 7.05384 -13.1088 L 7.0941 -12.9557 L 7.13397 -12.802 L 7.17344 -12.6476 L 7.2125 -12.4924 L 7.2125 -12.4924 L 7.36641 -12.5362 L 7.51989 -12.5792 L 7.67295 -12.6215 L 7.8256 -12.6632 L 7.97783 -12.7042 L 8.12966 -12.7445 L 8.28109 -12.7842 L 8.43211 -12.8233 L 8.58275 -12.8618 L 8.733 -12.8997 L 8.88286 -12.937 L 9.03235 -12.9738 L 9.18146 -13.0101 L 9.3302 -13.0458 L 9.47858 -13.081 L 9.6266 -13.1158 L 9.77427 -13.15 L 9.92158 -13.1838 L 10.0134 -13.1141 L 10.1048 -13.0439 L 10.1957 -12.973 L 10.2861 -12.9014 L 10.376 -12.8292 L 10.4654 -12.7564 L 10.5542 -12.683 L 10.6426 -12.6089 L 10.7304 -12.5343 L 10.8177 -12.459 L 10.9045 -12.3831 L 11.1755 -12.1392 L 11.26 -12.0608 L 11.344 -11.9818 L 11.4274 -11.9023 L 11.5103 -11.8221 L 11.5926 -11.7414 L 11.6744 -11.6602 L 11.7555 -11.5783 L 11.8361 -11.4959 L 11.9162 -11.4129 L 11.9956 -11.3294 L 12.0745 -11.2453 L 12.0563 -11.0953 L 12.0377 -10.9448 L 12.0186 -10.794 L 11.9991 -10.6427 L 11.9791 -10.4911 L 11.9586 -10.339 L 11.9376 -10.1865 L 11.9162 -10.0335 L 11.8942 -9.88015 L 11.8716 -9.72632 L 11.8486 -9.57203 L 11.8249 -9.41729 L 11.8007 -9.26208 L 11.7758 -9.10639 L 11.7504 -8.95023 L 11.7243 -8.79358 L 11.6975 -8.63644 L 11.6701 -8.4788 L 11.6701 -8.4788 L 11.8285 -8.45618 L 11.9862 -8.43307 L 12.1432 -8.40948 L 12.2996 -8.38544 L 12.4554 -8.36096 L 12.6105 -8.33605 L 12.765 -8.31073 L 12.9188 -8.28501 L 13.0721 -8.2589 L 13.2248 -8.23242 L 13.3769 -8.20558 L 13.5284 -8.17839 L 13.6794 -8.15086 L 13.8298 -8.12301 L 13.9797 -8.09484 L 14.129 -8.06636 L 14.2778 -8.03758 L 14.4261 -8.00852 L 14.4817 -7.90753 L 14.5366 -7.80616 L 14.5908 -7.70441 L 14.6443 -7.60229 L 14.697 -7.49979 L 14.7491 -7.39693 L 14.8004 -7.2937 L 14.851 -7.19012 L 14.9009 -7.08619 L 14.95 -6.98191 L 14.9984 -6.87729 L 15.1467 -6.5442 L 15.1921 -6.43822 L 15.2367 -6.33192 L 15.2806 -6.22531 L 15.3237 -6.1184 L 15.3661 -6.0112 L 15.4077 -5.9037 L 15.4485 -5.79591 L 15.4887 -5.68783 L 15.528 -5.57948 L 15.5666 -5.47086 L 15.6045 -5.36197 L 15.5268 -5.2323 L 15.4486 -5.10245 L 15.3699 -4.9724 L 15.2905 -4.84217 L 15.2105 -4.71175 L 15.13 -4.58114 L 15.0488 -4.45034 L 14.967 -4.31935 L 14.8845 -4.18817 L 14.8013 -4.0568 L 14.7175 -3.92525 L 14.6329 -3.7935 L 14.5477 -3.66157 L 14.4616 -3.52945 L 14.3749 -3.39714 L 14.2873 -3.26465 L 14.199 -3.13198 L 14.1098 -2.99913 L 14.1098 -2.99913 L 14.2453 -2.91403 L 14.38 -2.82877 L 14.5138 -2.74334 L 14.6469 -2.65777 L 14.7792 -2.57206 L 14.9108 -2.48622 L 15.0416 -2.40025 L 15.1717 -2.31417 L 15.3011 -2.22798 L 15.4299 -2.1417 L 15.5579 -2.05531 L 15.6852 -1.96884 L 15.812 -1.88229 L 15.9381 -1.79566 L 16.0635 -1.70896 L 16.1884 -1.6222 L 16.3126 -1.53538 L 16.4363 -1.4485 L 16.446 -1.33363 L 16.4549 -1.2187 L 16.463 -1.10371 L 16.4704 -0.988665 L 16.4769 -0.873571 L 16.4826 -0.758435 L 16.4875 -0.643261 L 16.4915 -0.528056 L 16.4948 -0.412826 L 16.4973 -0.297575 L 16.499 -0.182309Z"
id="path1" />
</g>
</svg>
