<?xml version="1.0" encoding="UTF-8" standalone="no"?>
<svg version="1.1">
<g
style="fill:none;stroke:#000000;stroke-opacity:1;stroke-width:0.1">
<path d="M 17.9998 0.0946054 L 17.9994 0.142223 L 17.999 0.18984 L 17.9984 0.237456 L 17.9977 0.28507 L 17.9969 0.332682 L 17.996 0.380292 L 17.9949 0.427899 L 17.9937 0.475503 L 17.9924 0.523104 L 17.991 0.570701 L 17.9894 0.618294 L 17.9877 0.665882 L 17.9859 0.713467 L 17.9839 0.761046 L 17.9818 0.808619 L 17.9796 0.856187 L 17.9773 0.90375 L 17.9748 0.951305 L 17.9723 0.998854 L 17.9696 1.0464 L 17.9667 1.09393 L 17.9638 1.14146 L 17.9607 1.18898 L 17.9575 1.23649 L 17.9541 1.28399 L 17.9507 1.33148 L 17.9471 1.37897 L 17.9434 1.42644 L 17.9396 1.47391 L 17.9356 1.52136 L 17.9315 1.5688 L 17.8829 1.57756 L 17.8344 1.58631 L 17.7858 1.59507 L 17.7372 1.60382 L 17.6886 1.61257 L 17.6399 1.62132 L 17.5913 1.63007 L 17.5427 1.63882 L 17.494 1.64757 L 17.4454 1.65632 L 17.3967 1.66507 L 17.348 1.67381 L 17.2993 1.68256 L 17.2506 1.6913 L 17.2019 1.70004 L 17.1532 1.70879 L 17.1045 1.71753 L 17.0557 1.72627 L 17.007 1.735 L 16.9582 1.74374 L 16.9094 1.75248 L 16.8606 1.76121 L 16.8118 1.76995 L 16.763 1.77868 L 16.7142 1.78741 L 16.6654 1.79614 L 16.6166 1.80487 L 16.5677 1.8136 L 16.5188 1.82232 L 16.47 1.83105 L 16.4211 1.83977 L 16.3722 1.8485 L 16.3233 1.85722 L 16.2687 1.91401 L 16.2051 2.04283 L 16.1403 2.17151 L 16.0744 2.30003 L 16.0073 2.4284 L 15.9391 2.55658 L 15.8698 2.68459 L 15.7993 2.81239 L 15.7276 2.93999 L 15.7276 2.93999 L 15.7483 3.08487 L 15.7679 3.22952 L 15.7863 3.37393 L 15.8036 3.5181 L 15.8198 3.66202 L 15.8348 3.80567 L 15.8487 3.94907 L 15.8616 4.09219 L 15.8919 4.16484 L 15.9343 4.19064 L 15.9768 4.21644 L 16.0192 4.24223 L 16.0617 4.26802 L 16.1041 4.29381 L 16.1465 4.3196 L 16.1889 4.34538 L 16.2312 4.37116 L 16.2736 4.39694 L 16.316 4.42271 L 16.3583 4.44849 L 16.4006 4.47425 L 16.443 4.50002 L 16.4853 4.52578 L 16.5276 4.55154 L 16.5699 4.5773 L 16.6122 4.60305 L 16.6544 4.6288 L 16.6967 4.65455 L 16.7389 4.6803 L 16.7812 4.70604 L 16.8234 4.73178 L 16.8656 4.75752 L 16.9079 4.78325 L 16.9501 4.80898 L 16.9923 4.83471 L 17.0344 4.86044 L 17.0766 4.88616 L 17.1188 4.91188 L 17.1609 4.9376 L 17.2031 4.96332 L 17.2452 4.98903 L 17.2873 5.01474 L 17.274 5.06046 L 17.2606 5.10614 L 17.247 5.15178 L 17.2333 5.19739 L 17.2195 5.24296 L 17.2056 5.2885 L 17.1915 5.334 L 17.1774 5.37946 L 17.1631 5.42488 L 17.1486 5.47027 L 17.1341 5.51562 L 17.1195 5.56093 L 17.1047 5.6062 L 17.0898 5.65143 L 17.0748 5.69662 L 17.0597 5.74177 L 17.0444 5.78688 L 17.029 5.83195 L 17.0136 5.87698 L 16.9979 5.92197 L 16.9822 5.96692 L 16.9664 6.01182 L 16.9504 6.05669 L 16.9343 6.10151 L 16.9181 6.14629 L 16.9018 6.19102 L 16.8854 6.23571 L 16.8688 6.28036 L 16.8521 6.32497 L 16.8354 6.36953 L 16.8184 6.41404 L 16.7501 6.59048 L 16.7326 6.63477 L 16.715 6.67901 L 16.6973 6.72321 L 16.6794 6.76735 L 16.6615 6.81146 L 16.6434 6.85551 L 16.6252 6.89952 L 16.6069 6.94347 L 16.5884 6.98738 L 16.5699 7.03124 L 16.5512 7.07505 L 16.5325 7.11882 L 16.5136 7.16253 L 16.4946 7.20619 L 16.4754 7.2498 L 16.4562 7.29336 L 16.4369 7.33687 L 16.4174 7.38033 L 16.3978 7.42373 L 16.3781 7.46709 L 16.3583 7.51039 L 16.3384 7.55364 L 16.3183 7.59684 L 16.2982 7.63998 L 16.2779 7.68307 L 16.2575 7.72611 L 16.237 7.76909 L 16.2164 7.81202 L 16.1957 7.85489 L 16.1749 7.89771 L 16.1539 7.94047 L 16.1055 7.93109 L 16.057 7.9217 L 16.0085 7.91231 L 15.96 7.90292 L 15.9116 7.89352 L 15.8631 7.88412 L 15.8146 7.87471 L 15.766 7.8653 L 15.7175 7.85588 L 15.669 7.84646 L 15.6204 7.83704 L 15.5719 7.82761 L 15.5233 7.81817 L 15.4748 7.80873 L 15.4262 7.79929 L 15.3776 7.78984 L 15.329 7.78039 L 15.2804 7.77093 L 15.2318 7.76147 L 15.1831 7.752 L 15.1345 7.74253 L 15.0859 7.73305 L 15.0372 7.72357 L 14.9885 7.71408 L 14.9399 7.70458 L 14.8912 7.69509 L 14.8425 7.68558 L 14.7938 7.67607 L 14.7451 7.66656 L 14.6963 7.65704 L 14.6476 7.64751 L 14.5988 7.63798 L 14.5501 7.62844 L 14.4787 7.66171 L 14.3728 7.75883 L 14.2659 7.85542 L 14.158 7.95145 L 14.0491 8.04692 L 13.9392 8.14182 L 13.8283 8.23613 L 13.7164 8.32983 L 13.6035 8.42291 L 13.6035 8.42291 L 13.5705 8.56551 L 13.5365 8.70746 L 13.5015 8.84878 L 13.4656 8.98946 L 13.4286 9.12949 L 13.3908 9.26888 L 13.3519 9.40762 L 13.3122 9.54571 L 13.3142 9.62441 L 13.3445 9.6638 L 13.3748 9.70319 L 13.405 9.74258 L 13.4353 9.78195 L 13.4655 9.82132 L 13.4957 9.86068 L 13.5259 9.90004 L 13.5561 9.93939 L 13.5863 9.97873 L 13.6165 10.0181 L 13.6467 10.0574 L 13.6769 10.0967 L 13.707 10.136 L 13.7372 10.1753 L 13.7673 10.2146 L 13.7974 10.2539 L 13.8276 10.2932 L 13.8577 10.3325 L 13.8878 10.3718 L 13.9179 10.4111 L 13.948 10.4503 L 13.9781 10.4896 L 14.0081 10.5288 L 14.0382 10.5681 L 14.0683 10.6073 L 14.0983 10.6465 L 14.1283 10.6858 L 14.1584 10.725 L 14.1884 10.7642 L 14.2184 10.8034 L 14.2484 10.8426 L 14.2784 10.8818 L 14.3084 10.921 L 14.2795 10.9588 L 14.2505 10.9966 L 14.2213 11.0342 L 14.1921 11.0718 L 14.1627 11.1093 L 14.1333 11.1467 L 14.1038 11.1841 L 14.0741 11.2214 L 14.0444 11.2586 L 14.0145 11.2957 L 13.9846 11.3327 L 13.9546 11.3697 L 13.9245 11.4066 L 13.8942 11.4433 L 13.8639 11.4801 L 13.8335 11.5167 L 13.803 11.5533 L 13.7724 11.5897 L 13.7417 11.6261 L 13.7109 11.6624 L 13.68 11.6987 L 13.649 11.7348 L 13.6179 11.7709 L 13.5867 11.8069 L 13.5554 11.8428 L 13.524 11.8786 L 13.4925 11.9143 L 13.461 11.95 L 13.4293 11.9856 L 13.3976 12.021 L 13.3657 12.0564 L 13.2382 12.1963 L 13.2059 12.2312 L 13.1735 12.2661 L 13.141 12.3009 L 13.1084 12.3357 L 13.0758 12.3703 L 13.043 12.4049 L 13.0101 12.4393 L 12.9772 12.4737 L 12.9441 12.508 L 12.911 12.5422 L 12.8778 12.5763 L 12.8445 12.6103 L 12.811 12.6443 L 12.7776 12.6781 L 12.744 12.7119 L 12.7103 12.7455 L 12.6765 12.7791 L 12.6427 12.8126 L 12.6087 12.846 L 12.5747 12.8793 L 12.5406 12.9125 L 12.5064 12.9457 L 12.4721 12.9787 L 12.4377 13.0117 L 12.4033 13.0445 L 12.3687 13.0773 L 12.3341 13.11 L 12.2993 13.1425 L 12.2645 13.175 L 12.2296 13.2074 L 12.1946 13.2397 L 12.1529 13.2135 L 12.1111 13.1872 L 12.0692 13.161 L 12.0274 13.1347 L 11.9856 13.1084 L 11.9438 13.0821 L 11.902 13.0558 L 11.8601 13.0295 L 11.8183 13.0032 L 11.7764 12.9769 L 11.7346 12.9506 L 11.6927 12.9242 L 11.6508 12.8979 L 11.6089 12.8716 L 11.5671 12.8452 L 11.5252 12.8188 L 11.4833 12.7925 L 11.4414 12.7661 L 11.3994 12.7397 L 11.3575 12.7133 L 11.3156 12.6869 L 11.2736 12.6605 L 11.2317 12.6341 L 11.1897 12.6076 L 11.1478 12.5812 L 11.1058 12.5548 L 11.0638 12.5283 L 11.0219 12.5019 L 10.9799 12.4754 L 10.9379 12.4489 L 10.8959 12.4224 L 10.8539 12.3959 L 10.8118 12.3694 L 10.7333 12.3747 L 10.5995 12.427 L 10.4649 12.4784 L 10.3296 12.529 L 10.1936 12.5787 L 10.0568 12.6275 L 9.91931 12.6753 L 9.78109 12.7223 L 9.64215 12.7683 L 9.64215 12.7683 L 9.55989 12.8893 L 9.47691 13.0094 L 9.39324 13.1286 L 9.30889 13.2467 L 9.22387 13.364 L 9.1382 13.4803 L 9.05189 13.5956 L 8.96496 13.71 L 8.93841 13.7841 L 8.95241 13.8318 L 8.9664 13.8795 L 8.98038 13.9271 L 8.99436 13.9748 L 9.00832 14.0224 L 9.02229 14.07 L 9.03624 14.1176 L 9.05019 14.1652 L 9.06414 14.2128 L 9.07808 14.2604 L 9.09201 14.308 L 9.10593 14.3556 L 9.11985 14.4031 L 9.13377 14.4507 L 9.14768 14.4982 L 9.16158 14.5457 L 9.17548 14.5932 L 9.18937 14.6407 L 9.20325 14.6882 L 9.21713 14.7357 L 9.23101 14.7832 L 9.24488 14.8307 L 9.25874 14.8782 L 9.2726 14.9256 L 9.28645 14.9731 L 9.3003 15.0205 L 9.31414 15.0679 L 9.32798 15.1154 L 9.34181 15.1628 L 9.35564 15.2102 L 9.36946 15.2576 L 9.38328 15.305 L 9.39709 15.3523 L 9.35645 15.3772 L 9.31573 15.4019 L 9.27496 15.4264 L 9.23411 15.4509 L 9.1932 15.4753 L 9.15223 15.4996 L 9.1112 15.5237 L 9.0701 15.5478 L 9.02893 15.5717 L 8.98771 15.5955 L 8.94642 15.6193 L 8.90507 15.6429 L 8.86365 15.6664 L 8.82217 15.6898 L 8.78064 15.7131 L 8.73904 15.7362 L 8.69738 15.7593 L 8.65565 15.7823 L 8.61387 15.8051 L 8.57203 15.8278 L 8.53013 15.8505 L 8.48816 15.873 L 8.44614 15.8954 L 8.40406 15.9177 L 8.36192 15.9398 L 8.31972 15.9619 L 8.27747 15.9839 L 8.23515 16.0057 L 8.19278 16.0274 L 8.15035 16.049 L 8.10787 16.0705 L 7.93849 16.1549 L 7.89573 16.1758 L 7.85291 16.1967 L 7.81003 16.2174 L 7.7671 16.238 L 7.72412 16.2585 L 7.68108 16.2789 L 7.63798 16.2991 L 7.59484 16.3193 L 7.55164 16.3393 L 7.50839 16.3592 L 7.46508 16.379 L 7.42172 16.3987 L 7.37832 16.4183 L 7.33486 16.4378 L 7.29134 16.4571 L 7.24778 16.4763 L 7.20417 16.4955 L 7.1605 16.5145 L 7.11679 16.5333 L 7.07303 16.5521 L 7.02921 16.5708 L 6.98535 16.5893 L 6.94144 16.6077 L 6.89748 16.626 L 6.85347 16.6442 L 6.80941 16.6623 L 6.76531 16.6802 L 6.72116 16.6981 L 6.67696 16.7158 L 6.63272 16.7334 L 6.58842 16.7509 L 6.55894 16.7113 L 6.52944 16.6717 L 6.49995 16.6321 L 6.47045 16.5925 L 6.44095 16.5529 L 6.41144 16.5133 L 6.38194 16.4737 L 6.35242 16.434 L 6.32291 16.3944 L 6.29339 16.3547 L 6.26387 16.3151 L 6.23434 16.2754 L 6.20481 16.2357 L 6.17527 16.196 L 6.14574 16.1563 L 6.11619 16.1166 L 6.08665 16.0769 L 6.0571 16.0371 L 6.02755 15.9974 L 5.99799 15.9576 L 5.96843 15.9178 L 5.93886 15.8781 L 5.9093 15.8383 L 5.87972 15.7985 L 5.85015 15.7587 L 5.82057 15.7189 L 5.79098 15.679 L 5.76139 15.6392 L 5.7318 15.5993 L 5.7022 15.5595 L 5.6726 15.5196 L 5.643 15.4797 L 5.61339 15.4398 L 5.53825 15.4163 L 5.39456 15.4168 L 5.25049 15.4161 L 5.10606 15.4144 L 4.96127 15.4116 L 4.81612 15.4077 L 4.67062 15.4027 L 4.52478 15.3965 L 4.37861 15.3892 L 4.37861 15.3892 L 4.25817 15.4724 L 4.13741 15.5544 L 4.01636 15.6352 L 3.89501 15.715 L 3.77338 15.7936 L 3.65148 15.8711 L 3.52933 15.9475 L 3.40694 16.0227 L 3.35541 16.0823 L 3.35124 16.1318 L 3.34707 16.1813 L 3.34289 16.2308 L 3.33872 16.2802 L 3.33454 16.3297 L 3.33035 16.3791 L 3.32617 16.4286 L 3.32198 16.478 L 3.31779 16.5274 L 3.3136 16.5768 L 3.3094 16.6262 L 3.30521 16.6756 L 3.30101 16.725 L 3.29681 16.7743 L 3.2926 16.8237 L 3.2884 16.873 L 3.28419 16.9224 L 3.27998 16.9717 L 3.27577 17.021 L 3.27156 17.0703 L 3.26734 17.1196 L 3.26313 17.1688 L 3.25891 17.2181 L 3.25469 17.2674 L 3.25047 17.3166 L 3.24624 17.3659 L 3.24202 17.4151 L 3.23779 17.4643 L 3.23356 17.5135 L 3.22933 17.5627 L 3.22509 17.6119 L 3.22086 17.6611 L 3.21662 17.7103 L 3.16976 17.7187 L 3.12287 17.727 L 3.07596 17.7352 L 3.02903 17.7433 L 2.98208 17.7513 L 2.93511 17.7591 L 2.88812 17.7668 L 2.84111 17.7744 L 2.79408 17.7818 L 2.74703 17.7891 L 2.69995 17.7964 L 2.65286 17.8034 L 2.60576 17.8104 L 2.55863 17.8172 L 2.51149 17.8239 L 2.46432 17.8305 L 2.41714 17.837 L 2.36995 17.8433 L 2.32274 17.8495 L 2.27551 17.8556 L 2.22826 17.8615 L 2.181 17.8674 L 2.13373 17.8731 L 2.08643 17.8787 L 2.03913 17.8841 L 1.99181 17.8895 L 1.94448 17.8947 L 1.89713 17.8997 L 1.84977 17.9047 L 1.8024 17.9095 L 1.75501 17.9142 L 1.56661 17.9317 L 1.51916 17.9358 L 1.47171 17.9397 L 1.42424 17.9436 L 1.37677 17.9473 L 1.32928 17.9508 L 1.28179 17.9543 L 1.23429 17.9576 L 1.18678 17.9608 L 1.13926 17.9639 L 1.09173 17.9669 L 1.04419 17.9697 L 0.996652 17.9724 L 0.949102 17.975 L 0.901546 17.9774 L 0.853984 17.9797 L 0.806415 17.9819 L 0.758841 17.984 L 0.711262 17.9859 L 0.663678 17.9878 L 0.616089 17.9895 L 0.568496 17.991 L 0.520898 17.9925 L 0.473298 17.9938 L 0.425693 17.995 L 0.378086 17.996 L 0.330476 17.997 L 0.282864 17.9978 L 0.23525 17.9985 L 0.187634 17.999 L 0.140017 17.9995 L 0.0923994 17.9998 L 0.0791996 17.9522 L 0.0659997 17.9046 L 0.0527998 17.8571 L 0.0395999 17.8095 L 0.0263999 17.7619 L 0.0132 17.7143 L -2.66454e-15 17.6667 L -0.0132 17.619 L -0.0263999 17.5714 L -0.0395999 17.5238 L -0.0527998 17.4761 L -0.0659997 17.4284 L -0.0791995 17.3808 L -0.0923993 17.3331 L -0.105599 17.2854 L -0.118799 17.2377 L -0.131998 17.19 L -0.145198 17.1422 L -0.158397 17.0945 L -0.171597 17.0468 L -0.184796 16.999 L -0.197995 16.9512 L -0.211194 16.9034 L -0.224393 16.8556 L -0.237592 16.8078 L -0.25079 16.76 L -0.263988 16.7122 L -0.277187 16.6644 L -0.290385 16.6165 L -0.303582 16.5686 L -0.31678 16.5208 L -0.329977 16.4729 L -0.343174 16.425 L -0.404758 16.376 L -0.538901 16.3244 L -0.673007 16.2718 L -0.807065 16.218 L -0.941067 16.1631 L -1.075 16.107 L -1.20886 16.0498 L -1.34263 15.9914 L -1.47629 15.9317 L -1.47629 15.9317 L -1.61864 15.9658 L -1.76086 15.9986 L -1.90296 16.0303 L -2.04492 16.0608 L -2.18673 16.0902 L -2.32839 16.1184 L -2.46988 16.1455 L -2.61121 16.1715 L -2.68075 16.2084 L -2.70253 16.253 L -2.7243 16.2977 L -2.74607 16.3423 L -2.76784 16.3869 L -2.7896 16.4316 L -2.81137 16.4762 L -2.83313 16.5207 L -2.85489 16.5653 L -2.87665 16.6099 L -2.8984 16.6544 L -2.92016 16.699 L -2.94191 16.7435 L -2.96366 16.788 L -2.98541 16.8325 L -3.00715 16.877 L -3.0289 16.9215 L -3.05064 16.966 L -3.07238 17.0105 L -3.09412 17.0549 L -3.11586 17.0994 L -3.13759 17.1438 L -3.15933 17.1882 L -3.18106 17.2327 L -3.20279 17.2771 L -3.22452 17.3215 L -3.24624 17.3659 L -3.26797 17.4102 L -3.28969 17.4546 L -3.31141 17.499 L -3.33313 17.5433 L -3.35484 17.5877 L -3.37656 17.632 L -3.39827 17.6763 L -3.44502 17.6673 L -3.49175 17.6581 L -3.53845 17.6488 L -3.58513 17.6394 L -3.63178 17.6298 L -3.67841 17.6201 L -3.72501 17.6103 L -3.77159 17.6004 L -3.81814 17.5904 L -3.86466 17.5802 L -3.91115 17.5699 L -3.95762 17.5595 L -4.00406 17.549 L -4.05047 17.5383 L -4.09686 17.5276 L -4.14321 17.5167 L -4.18954 17.5057 L -4.23583 17.4945 L -4.2821 17.4832 L -4.32834 17.4718 L -4.37454 17.4603 L -4.42072 17.4487 L -4.46686 17.4369 L -4.51298 17.4251 L -4.55906 17.4131 L -4.60511 17.4009 L -4.65113 17.3887 L -4.69711 17.3763 L -4.74307 17.3639 L -4.78899 17.3512 L -4.83487 17.3385 L -5.01686 17.2867 L -5.06257 17.2734 L -5.10825 17.2599 L -5.1539 17.2464 L -5.1995 17.2327 L -5.24507 17.2189 L -5.29061 17.2049 L -5.33611 17.1909 L -5.38157 17.1767 L -5.42699 17.1624 L -5.47237 17.148 L -5.51772 17.1334 L -5.56302 17.1188 L -5.60829 17.104 L -5.65352 17.0891 L -5.69871 17.0741 L -5.74386 17.059 L -5.78897 17.0437 L -5.83404 17.0283 L -5.87907 17.0128 L -5.92405 16.9972 L -5.969 16.9815 L -6.0139 16.9656 L -6.05876 16.9497 L -6.10358 16.9336 L -6.14836 16.9174 L -6.19309 16.9011 L -6.23778 16.8846 L -6.28243 16.868 L -6.32703 16.8514 L -6.37159 16.8346 L -6.4161 16.8177 L -6.41123 16.7685 L -6.40636 16.7194 L -6.40148 16.6703 L -6.3966 16.6212 L -6.39172 16.572 L -6.38683 16.5228 L -6.38194 16.4737 L -6.37704 16.4245 L -6.37214 16.3753 L -6.36724 16.3261 L -6.36233 16.2769 L -6.35742 16.2277 L -6.35251 16.1785 L -6.34759 16.1292 L -6.34267 16.08 L -6.33775 16.0307 L -6.33282 15.9815 L -6.32789 15.9322 L -6.32295 15.8829 L -6.31801 15.8336 L -6.31306 15.7843 L -6.30811 15.735 L -6.30316 15.6857 L -6.2982 15.6364 L -6.29324 15.587 L -6.28828 15.5377 L -6.28331 15.4883 L -6.27833 15.4389 L -6.27335 15.3895 L -6.26837 15.3401 L -6.26338 15.2907 L -6.25839 15.2413 L -6.25339 15.1919 L -6.2931 15.1239 L -6.39958 15.0274 L -6.50561 14.9299 L -6.61119 14.8313 L -6.71631 14.7317 L -6.82094 14.631 L -6.92507 14.5293 L -7.0287 14.4265 L -7.13181 14.3226 L -7.13181 14.3226 L -7.27684 14.3029 L -7.42133 14.2822 L -7.56527 14.2604 L -7.70867 14.2376 L -7.85151 14.2137 L -7.9938 14.1889 L -8.13553 14.163 L -8.2767 14.1362 L -8.35487 14.1455 L -8.3913 14.1792 L -8.42773 14.213 L -8.46416 14.2468 L -8.50058 14.2805 L -8.53699 14.3142 L -8.57339 14.348 L -8.60979 14.3817 L -8.64619 14.4154 L -8.68257 14.4491 L -8.71896 14.4828 L -8.75533 14.5165 L -8.7917 14.5501 L -8.82807 14.5838 L -8.86442 14.6174 L -8.90078 14.6511 L -8.93713 14.6847 L -8.97347 14.7183 L -9.0098 14.7519 L -9.04613 14.7855 L -9.08246 14.8191 L -9.11878 14.8527 L -9.1551 14.8863 L -9.1914 14.9199 L -9.22771 14.9534 L -9.26401 14.987 L -9.3003 15.0205 L -9.33659 15.054 L -9.37287 15.0876 L -9.40915 15.1211 L -9.44542 15.1546 L -9.48169 15.1881 L -9.51796 15.2216 L -9.55421 15.2551 L -9.59454 15.2297 L -9.63479 15.2043 L -9.67498 15.1788 L -9.7151 15.1531 L -9.75516 15.1274 L -9.79514 15.1015 L -9.83506 15.0755 L -9.87491 15.0495 L -9.91469 15.0233 L -9.9544 14.997 L -9.99404 14.9706 L -10.0336 14.9441 L -10.0731 14.9175 L -10.1125 14.8908 L -10.1519 14.864 L -10.1912 14.8371 L -10.2304 14.8101 L -10.2695 14.783 L -10.3086 14.7558 L -10.3476 14.7284 L -10.3865 14.701 L -10.4254 14.6735 L -10.4642 14.6459 L -10.5029 14.6181 L -10.5415 14.5903 L -10.5801 14.5623 L -10.6186 14.5343 L -10.657 14.5062 L -10.6953 14.4779 L -10.7336 14.4496 L -10.7718 14.4211 L -10.9228 14.3071 L -10.9606 14.2782 L -10.9983 14.2491 L -11.036 14.22 L -11.0736 14.1907 L -11.1111 14.1614 L -11.1485 14.1319 L -11.1858 14.1024 L -11.2231 14.0727 L -11.2603 14.043 L -11.2974 14.0132 L -11.3344 13.9832 L -11.3714 13.9532 L -11.4083 13.9231 L -11.4451 13.8928 L -11.4818 13.8625 L -11.5184 13.8321 L -11.555 13.8016 L -11.5914 13.7709 L -11.6278 13.7402 L -11.6641 13.7094 L -11.7003 13.6785 L -11.7365 13.6475 L -11.7726 13.6164 L -11.8085 13.5852 L -11.8444 13.5539 L -11.8803 13.5226 L -11.916 13.4911 L -11.9516 13.4595 L -11.9872 13.4278 L -12.0227 13.3961 L -12.0581 13.3642 L -12.0358 13.3202 L -12.0135 13.2762 L -11.9912 13.2321 L -11.9689 13.188 L -11.9466 13.144 L -11.9243 13.0999 L -11.902 13.0558 L -11.8796 13.0117 L -11.8573 12.9676 L -11.8349 12.9235 L -11.8126 12.8794 L -11.7902 12.8353 L -11.7679 12.7912 L -11.7455 12.7471 L -11.7231 12.7029 L -11.7007 12.6588 L -11.6784 12.6146 L -11.656 12.5705 L -11.6336 12.5263 L -11.6111 12.4821 L -11.5887 12.4379 L -11.5663 12.3937 L -11.5438 12.3495 L -11.5214 12.3053 L -11.499 12.2611 L -11.4765 12.2169 L -11.454 12.1726 L -11.4316 12.1284 L -11.4091 12.0841 L -11.3866 12.0399 L -11.3641 11.9956 L -11.3416 11.9513 L -11.3191 11.907 L -11.3315 11.8293 L -11.396 11.7009 L -11.4596 11.5716 L -11.5224 11.4415 L -11.5845 11.3107 L -11.6457 11.179 L -11.706 11.0465 L -11.7655 10.9132 L -11.8241 10.7791 L -11.8241 10.7791 L -11.9523 10.7084 L -12.0795 10.6368 L -12.2058 10.5645 L -12.3313 10.4914 L -12.4559 10.4176 L -12.5796 10.343 L -12.7024 10.2677 L -12.8244 10.1917 L -12.9006 10.1721 L -12.9468 10.1905 L -12.993 10.2088 L -13.0391 10.2271 L -13.0853 10.2454 L -13.1314 10.2637 L -13.1775 10.282 L -13.2237 10.3003 L -13.2698 10.3186 L -13.3159 10.3369 L -13.362 10.3551 L -13.4081 10.3734 L -13.4541 10.3917 L -13.5002 10.4099 L -13.5463 10.4281 L -13.5923 10.4464 L -13.6383 10.4646 L -13.6844 10.4828 L -13.7304 10.501 L -13.7764 10.5193 L -13.8224 10.5375 L -13.8684 10.5557 L -13.9144 10.5738 L -13.9604 10.592 L -14.0064 10.6102 L -14.0523 10.6284 L -14.0983 10.6465 L -14.1443 10.6647 L -14.1902 10.6829 L -14.2361 10.701 L -14.2821 10.7192 L -14.328 10.7373 L -14.3739 10.7554 L -14.4198 10.7735 L -14.4483 10.7354 L -14.4766 10.6971 L -14.5049 10.6588 L -14.533 10.6204 L -14.561 10.5819 L -14.589 10.5433 L -14.6168 10.5047 L -14.6446 10.466 L -14.6722 10.4272 L -14.6997 10.3883 L -14.7272 10.3494 L -14.7545 10.3104 L -14.7817 10.2714 L -14.8088 10.2322 L -14.8359 10.193 L -14.8628 10.1537 L -14.8896 10.1144 L -14.9163 10.0749 L -14.9429 10.0354 L -14.9694 9.99587 L -14.9958 9.95623 L -15.0221 9.91653 L -15.0482 9.87675 L -15.0743 9.83691 L -15.1003 9.79699 L -15.1262 9.75701 L -15.1519 9.71696 L -15.1776 9.67684 L -15.2031 9.63666 L -15.2286 9.5964 L -15.2539 9.55608 L -15.3535 9.39521 L -15.3783 9.35456 L -15.403 9.31385 L -15.4276 9.27307 L -15.4521 9.23222 L -15.4764 9.19131 L -15.5007 9.15033 L -15.5248 9.10929 L -15.5489 9.06819 L -15.5728 9.02702 L -15.5966 8.9858 L -15.6204 8.9445 L -15.644 8.90315 L -15.6675 8.86173 L -15.6909 8.82025 L -15.7141 8.77871 L -15.7373 8.73711 L -15.7604 8.69544 L -15.7833 8.65372 L -15.8062 8.61193 L -15.8289 8.57009 L -15.8515 8.52818 L -15.874 8.48622 L -15.8964 8.44419 L -15.9187 8.40211 L -15.9409 8.35997 L -15.9629 8.31777 L -15.9849 8.27551 L -16.0067 8.23319 L -16.0284 8.19082 L -16.05 8.14839 L -16.0715 8.1059 L -16.0349 8.07288 L -15.9982 8.03987 L -15.9615 8.00684 L -15.9247 7.97382 L -15.888 7.94079 L -15.8513 7.90775 L -15.8146 7.87471 L -15.7778 7.84167 L -15.741 7.80862 L -15.7043 7.77557 L -15.6675 7.74251 L -15.6307 7.70945 L -15.5939 7.67638 L -15.5571 7.64331 L -15.5203 7.61023 L -15.4835 7.57715 L -15.4467 7.54407 L -15.4098 7.51098 L -15.373 7.47788 L -15.3361 7.44479 L -15.2992 7.41168 L -15.2624 7.37857 L -15.2255 7.34546 L -15.1886 7.31234 L -15.1517 7.27922 L -15.1147 7.24609 L -15.0778 7.21296 L -15.0409 7.17982 L -15.0039 7.14667 L -14.967 7.11353 L -14.93 7.08037 L -14.893 7.04721 L -14.856 7.01405 L -14.8396 6.93707 L -14.8532 6.79403 L -14.8659 6.65052 L -14.8775 6.50654 L -14.8881 6.36211 L -14.8976 6.21722 L -14.906 6.07188 L -14.9133 5.92609 L -14.9196 5.77987 L -14.9196 5.77987 L -15.0135 5.66761 L -15.1063 5.55494 L -15.198 5.44186 L -15.2886 5.32839 L -15.378 5.21453 L -15.4665 5.10031 L -15.5538 4.98572 L -15.64 4.8708 L -15.7041 4.82498 L -15.7537 4.8254 L -15.8034 4.82581 L -15.8531 4.82622 L -15.9027 4.82662 L -15.9524 4.82702 L -16.002 4.82742 L -16.0516 4.82782 L -16.1012 4.82821 L -16.1508 4.82859 L -16.2004 4.82898 L -16.2499 4.82936 L -16.2995 4.82974 L -16.349 4.83011 L -16.3986 4.83048 L -16.4481 4.83085 L -16.4976 4.83122 L -16.5471 4.83158 L -16.5966 4.83194 L -16.6461 4.8323 L -16.6956 4.83265 L -16.7451 4.833 L -16.7945 4.83335 L -16.844 4.83369 L -16.8934 4.83404 L -16.9428 4.83438 L -16.9923 4.83471 L -17.0417 4.83505 L -17.0911 4.83538 L -17.1405 4.83571 L -17.1898 4.83603 L -17.2392 4.83636 L -17.2886 4.83668 L -17.3379 4.837 L -17.3507 4.79111 L -17.3633 4.74519 L -17.3758 4.69924 L -17.3881 4.65326 L -17.4004 4.60724 L -17.4125 4.56119 L -17.4245 4.51511 L -17.4364 4.469 L -17.4482 4.42286 L -17.4598 4.37668 L -17.4713 4.33048 L -17.4827 4.28424 L -17.494 4.23798 L -17.5051 4.19168 L -17.5162 4.14536 L -17.5271 4.099 L -17.5379 4.05262 L -17.5485 4.00621 L -17.559 3.95977 L -17.5695 3.91331 L -17.5798 3.86681 L -17.5899 3.82029 L -17.6 3.77374 L -17.6099 3.72717 L -17.6197 3.68057 L -17.6294 3.63394 L -17.6389 3.58729 L -17.6483 3.54062 L -17.6576 3.49392 L -17.6668 3.44719 L -17.6759 3.40044 L -17.7107 3.21445 L -17.7191 3.16759 L -17.7274 3.1207 L -17.7356 3.07379 L -17.7437 3.02686 L -17.7516 2.97991 L -17.7594 2.93294 L -17.7671 2.88594 L -17.7747 2.83893 L -17.7822 2.7919 L -17.7895 2.74485 L -17.7967 2.69777 L -17.8038 2.65068 L -17.8107 2.60357 L -17.8175 2.55645 L -17.8242 2.5093 L -17.8308 2.46214 L -17.8373 2.41496 L -17.8436 2.36776 L -17.8498 2.32055 L -17.8559 2.27332 L -17.8618 2.22607 L -17.8676 2.17881 L -17.8733 2.13153 L -17.8789 2.08424 L -17.8844 2.03694 L -17.8897 1.98962 L -17.8949 1.94228 L -17.9 1.89494 L -17.9049 1.84757 L -17.9098 1.8002 L -17.9145 1.75281 L -17.8683 1.73528 L -17.8222 1.71775 L -17.776 1.70022 L -17.7299 1.68268 L -17.6837 1.66515 L -17.6375 1.64761 L -17.5913 1.63007 L -17.5451 1.61254 L -17.4989 1.595 L -17.4527 1.57746 L -17.4064 1.55992 L -17.3602 1.54238 L -17.3139 1.52483 L -17.2677 1.50729 L -17.2214 1.48975 L -17.1751 1.4722 L -17.1288 1.45465 L -17.0825 1.43711 L -17.0362 1.41956 L -16.9899 1.40201 L -16.9435 1.38446 L -16.8972 1.36691 L -16.8508 1.34936 L -16.8045 1.33181 L -16.7581 1.31425 L -16.7117 1.2967 L -16.6653 1.27915 L -16.6188 1.26159 L -16.5724 1.24403 L -16.526 1.22647 L -16.4795 1.20892 L -16.4331 1.19136 L -16.3866 1.1738 L -16.3434 1.10795 L -16.3045 0.969627 L -16.2645 0.831237 L -16.2233 0.692788 L -16.181 0.55429 L -16.1375 0.415753 L -16.0929 0.277186 L -16.047 0.138598 L -16 4.44089e-16 L -16 3.47478e-15 L -16.047 -0.138598 L -16.0929 -0.277186 L -16.1375 -0.415753 L -16.181 -0.55429 L -16.2233 -0.692788 L -16.2645 -0.831237 L -16.3045 -0.969627 L -16.3434 -1.10795 L -16.3866 -1.1738 L -16.4331 -1.19136 L -16.4795 -1.20892 L -16.526 -1.22647 L -16.5724 -1.24403 L -16.6188 -1.26159 L -16.6653 -1.27915 L -16.7117 -1.2967 L -16.7581 -1.31425 L -16.8045 -1.33181 L -16.8508 -1.34936 L -16.8972 -1.36691 L -16.9435 -1.38446 L -16.9899 -1.40201 L -17.0362 -1.41956 L -17.0825 -1.43711 L -17.1288 -1.45465 L -17.1751 -1.4722 L -17.2214 -1.48975 L -17.2677 -1.50729 L -17.3139 -1.52483 L -17.3602 -1.54238 L -17.4064 -1.55992 L -17.4527 -1.57746 L -17.4989 -1.595 L -17.5451 -1.61254 L -17.5913 -1.63007 L -17.6375 -1.64761 L -17.6837 -1.66515 L -17.7299 -1.68268 L -17.776 -1.70022 L -17.8222 -1.71775 L -17.8683 -1.73528 L -17.9145 -1.75281 L -17.9098 -1.8002 L -17.9049 -1.84757 L -17.9 -1.89494 L -17.8949 -1.94228 L -17.8897 -1.98962 L -17.8844 -2.03694 L -17.8789 -2.08424 L -17.8733 -2.13153 L -17.8676 -2.17881 L -17.8618 -2.22607 L -17.8559 -2.27332 L -17.8498 -2.32055 L -17.8436 -2.36776 L -17.8373 -2.41496 L -17.8308 -2.46214 L -17.8242 -2.5093 L -17.8175 -2.55645 L -17.8107 -2.60357 L -17.8038 -2.65068 L -17.7967 -2.69777 L -17.7895 -2.74485 L -17.7822 -2.7919 L -17.7747 -2.83893 L -17.7671 -2.88594 L -17.7594 -2.93294 L -17.7516 -2.97991 L -17.7437 -3.02686 L -17.7356 -3.07379 L -17.7274 -3.1207 L -17.7191 -3.16759 L -17.7107 -3.21445 L -17.6759 -3.40044 L -17.6668 -3.44719 L -17.6576 -3.49392 L -17.6483 -3.54062 L -17.6389 -3.58729 L -17.6294 -3.63394 L -17.6197 -3.68057 L -17.6099 -3.72717 L -17.6 -3.77374 L -17.5899 -3.82029 L -17.5798 -3.86681 L -17.5695 -3.91331 L -17.559 -3.95977 L -17.5485 -4.00621 L -17.5379 -4.05262 L -17.5271 -4.099 L -17.5162 -4.14536 L -17.5051 -4.19168 L -17.494 -4.23798 L -17.4827 -4.28424 L -17.4713 -4.33048 L -17.4598 -4.37668 L -17.4482 -4.42286 L -17.4364 -4.469 L -17.4245 -4.51511 L -17.4125 -4.56119 L -17.4004 -4.60724 L -17.3881 -4.65326 L -17.3758 -4.69924 L -17.3633 -4.74519 L -17.3507 -4.79111 L -17.3379 -4.837 L -17.2886 -4.83668 L -17.2392 -4.83636 L -17.1898 -4.83603 L -17.1405 -4.83571 L -17.0911 -4.83538 L -17.0417 -4.83505 L -16.9923 -4.83471 L -16.9428 -4.83438 L -16.8934 -4.83404 L -16.844 -4.83369 L -16.7945 -4.83335 L -16.7451 -4.833 L -16.6956 -4.83265 L -16.6461 -4.8323 L -16.5966 -4.83194 L -16.5471 -4.83158 L -16.4976 -4.83122 L -16.4481 -4.83085 L -16.3986 -4.83048 L -16.349 -4.83011 L -16.2995 -4.82974 L -16.2499 -4.82936 L -16.2004 -4.82898 L -16.1508 -4.82859 L -16.1012 -4.82821 L -16.0516 -4.82782 L -16.002 -4.82742 L -15.9524 -4.82702 L -15.9027 -4.82662 L -15.8531 -4.82622 L -15.8034 -4.82581 L -15.7537 -4.8254 L -15.7041 -4.82498 L -15.64 -4.8708 L -15.5538 -4.98572 L -15.4665 -5.10031 L -15.378 -5.21453 L -15.2886 -5.32839 L -15.198 -5.44186 L -15.1063 -5.55494 L -15.0135 -5.66761 L -14.9196 -5.77987 L -14.9196 -5.77987 L -14.9133 -5.92609 L -14.906 -6.07188 L -14.8976 -6.21722 L -14.8881 -6.36211 L -14.8775 -6.50654 L -14.8659 -6.65052 L -14.8532 -6.79403 L -14.8396 -6.93707 L -14.856 -7.01405 L -14.893 -7.04721 L -14.93 -7.08037 L -14.967 -7.11353 L -15.0039 -7.14667 L -15.0409 -7.17982 L -15.0778 -7.21296 L -15.1147 -7.24609 L -15.1517 -7.27922 L -15.1886 -7.31234 L -15.2255 -7.34546 L -15.2624 -7.37857 L -15.2992 -7.41168 L -15.3361 -7.44479 L -15.373 -7.47788 L -15.4098 -7.51098 L -15.4467 -7.54407 L -15.4835 -7.57715 L -15.5203 -7.61023 L -15.5571 -7.64331 L -15.5939 -7.67638 L -15.6307 -7.70945 L -15.6675 -7.74251 L -15.7043 -7.77557 L -15.741 -7.80862 L -15.7778 -7.84167 L -15.8146 -7.87471 L -15.8513 -7.90775 L -15.888 -7.94079 L -15.9247 -7.97382 L -15.9615 -8.00684 L -15.9982 -8.03987 L -16.0349 -8.07288 L -16.0715 -8.1059 L -16.05 -8.14839 L -16.0284 -8.19082 L -16.0067 -8.23319 L -15.9849 -8.27551 L -15.9629 -8.31777 L -15.9409 -8.35997 L -15.9187 -8.40211 L -15.8964 -8.44419 L -15.874 -8.48622 L -15.8515 -8.52818 L -15.8289 -8.57009 L -15.8062 -8.61193 L -15.7833 -8.65372 L -15.7604 -8.69544 L -15.7373 -8.73711 L -15.7141 -8.77871 L -15.6909 -8.82025 L -15.6675 -8.86173 L -15.644 -8.90315 L -15.6204 -8.9445 L -15.5966 -8.9858 L -15.5728 -9.02702 L -15.5489 -9.06819 L -15.5248 -9.10929 L -15.5007 -9.15033 L -15.4764 -9.19131 L -15.4521 -9.23222 L -15.4276 -9.27307 L -15.403 -9.31385 L -15.3783 -9.35456 L -15.3535 -9.39521 L -15.2539 -9.55608 L -15.2286 -9.5964 L -15.2031 -9.63666 L -15.1776 -9.67684 L -15.1519 -9.71696 L -15.1262 -9.75701 L -15.1003 -9.79699 L -15.0743 -9.83691 L -15.0482 -9.87675 L -15.0221 -9.91653 L -14.9958 -9.95623 L -14.9694 -9.99587 L -14.9429 -10.0354 L -14.9163 -10.0749 L -14.8896 -10.1144 L -14.8628 -10.1537 L -14.8359 -10.193 L -14.8088 -10.2322 L -14.7817 -10.2714 L -14.7545 -10.3104 L -14.7272 -10.3494 L -14.6997 -10.3883 L -14.6722 -10.4272 L -14.6446 -10.466 L -14.6168 -10.5047 L -14.589 -10.5433 L -14.561 -10.5819 L -14.533 -10.6204 L -14.5049 -10.6588 L -14.4766 -10.6971 L -14.4483 -10.7354 L -14.4198 -10.7735 L -14.3739 -10.7554 L -14.328 -10.7373 L -14.2821 -10.7192 L -14.2361 -10.701 L -14.1902 -10.6829 L -14.1443 -10.6647 L -14.0983 -10.6465 L -14.0523 -10.6284 L -14.0064 -10.6102 L -13.9604 -10.592 L -13.9144 -10.5738 L -13.8684 -10.5557 L -13.8224 -10.5375 L -13.7764 -10.5193 L -13.7304 -10.501 L -13.6844 -10.4828 L -13.6383 -10.4646 L -13.5923 -10.4464 L -13.5463 -10.4281 L -13.5002 -10.4099 L -13.4541 -10.3917 L -13.4081 -10.3734 L -13.362 -10.3551 L -13.3159 -10.3369 L -13.2698 -10.3186 L -13.2237 -10.3003 L -13.1775 -10.282 L -13.1314 -10.2637 L -13.0853 -10.2454 L -13.0391 -10.2271 L -12.993 -10.2088 L -12.9468 -10.1905 L -12.9006 -10.1721 L -12.8244 -10.1917 L -12.7024 -10.2677 L -12.5796 -10.343 L -12.4559 -10.4176 L -12.3313 -10.4914 L -12.2058 -10.5645 L -12.0795 -10.6368 L -11.9523 -10.7084 L -11.8241 -10.7791 L -11.8241 -10.7791 L -11.7655 -10.9132 L -11.706 -11.0465 L -11.6457 -11.179 L -11.5845 -11.3107 L -11.5224 -11.4415 L -11.4596 -11.5716 L -11.396 -11.7009 L -11.3315 -11.8293 L -11.3191 -11.907 L -11.3416 -11.9513 L -11.3641 -11.9956 L -11.3866 -12.0399 L -11.4091 -12.0841 L -11.4316 -12.1284 L -11.454 -12.1726 L -11.4765 -12.2169 L -11.499 -12.2611 L -11.5214 -12.3053 L -11.5438 -12.3495 L -11.5663 -12.3937 L -11.5887 -12.4379 L -11.6111 -12.4821 L -11.6336 -12.5263 L -11.656 -12.5705 L -11.6784 -12.6146 L -11.7007 -12.6588 L -11.7231 -12.7029 L -11.7455 -12.7471 L -11.7679 -12.7912 L -11.7902 -12.8353 L -11.8126 -12.8794 L -11.8349 -12.9235 L -11.8573 -12.9676 L -11.8796 -13.0117 L -11.902 -13.0558 L -11.9243 -13.0999 L -11.9466 -13.144 L -11.9689 -13.188 L -11.9912 -13.2321 L -12.0135 -13.2762 L -12.0358 -13.3202 L -12.0581 -13.3642 L -12.0227 -13.3961 L -11.9872 -13.4278 L -11.9516 -13.4595 L -11.916 -13.4911 L -11.8803 -13.5226 L -11.8444 -13.5539 L -11.8085 -13.5852 L -11.7726 -13.6164 L -11.7365 -13.6475 L -11.7003 -13.6785 L -11.6641 -13.7094 L -11.6278 -13.7402 L -11.5914 -13.7709 L -11.555 -13.8016 L -11.5184 -13.8321 L -11.4818 -13.8625 L -11.4451 -13.8928 L -11.4083 -13.9231 L -11.3714 -13.9532 L -11.3344 -13.9832 L -11.2974 -14.0132 L -11.2603 -14.043 L -11.2231 -14.0727 L -11.1858 -14.1024 L -11.1485 -14.1319 L -11.1111 -14.1614 L -11.0736 -14.1907 L -11.036 -14.22 L -10.9983 -14.2491 L -10.9606 -14.2782 L -10.9228 -14.3071 L -10.7718 -14.4211 L -10.7336 -14.4496 L -10.6953 -14.4779 L -10.657 -14.5062 L -10.6186 -14.5343 L -10.5801 -14.5623 L -10.5415 -14.5903 L -10.5029 -14.6181 L -10.4642 -14.6459 L -10.4254 -14.6735 L -10.3865 -14.701 L -10.3476 -14.7284 L -10.3086 -14.7558 L -10.2695 -14.783 L -10.2304 -14.8101 L -10.1912 -14.8371 L -10.1519 -14.864 L -10.1125 -14.8908 L -10.0731 -14.9175 L -10.0336 -14.9441 L -9.99404 -14.9706 L -9.9544 -14.997 L -9.91469 -15.0233 L -9.87491 -15.0495 L -9.83506 -15.0755 L -9.79514 -15.1015 L -9.75516 -15.1274 L -9.7151 -15.1531 L -9.67498 -15.1788 L -9.63479 -15.2043 L -9.59454 -15.2297 L -9.55421 -15.2551 L -9.51796 -15.2216 L -9.48169 -15.1881 L -9.44542 -15.1546 L -9.40915 -15.1211 L -9.37287 -15.0876 L -9.33659 -15.054 L -9.3003 -15.0205 L -9.26401 -14.987 L -9.22771 -14.9534 L -9.1914 -14.9199 L -9.1551 -14.8863 L -9.11878 -14.8527 L -9.08246 -14.8191 L -9.04613 -14.7855 L -9.0098 -14.7519 L -8.97347 -14.7183 L -8.93713 -14.6847 L -8.90078 -14.6511 L -8.86442 -14.6174 L -8.82807 -14.5838 L -8.7917 -14.5501 L -8.75533 -14.5165 L -8.71896 -14.4828 L -8.68257 -14.4491 L -8.64619 -14.4154 L -8.60979 -14.3817 L -8.57339 -14.348 L -8.53699 -14.3142 L -8.50058 -14.2805 L -8.46416 -14.2468 L -8.42773 -14.213 L -8.3913 -14.1792 L -8.35487 -14.1455 L -8.2767 -14.1362 L -8.13553 -14.163 L -7.9938 -14.1889 L -7.85151 -14.2137 L -7.70867 -14.2376 L -7.56527 -14.2604 L -7.42133 -14.2822 L -7.27684 -14.3029 L -7.13181 -14.3226 L -7.13181 -14.3226 L -7.0287 -14.4265 L -6.92507 -14.5293 L -6.82094 -14.631 L -6.71631 -14.7317 L -6.61119 -14.8313 L -6.50561 -14.9299 L -6.39958 -15.0274 L -6.2931 -15.1239 L -6.25339 -15.1919 L -6.25839 -15.2413 L -6.26338 -15.2907 L -6.26837 -15.3401 L -6.27335 -15.3895 L -6.27833 -15.4389 L -6.28331 -15.4883 L -6.28828 -15.5377 L -6.29324 -15.587 L -6.2982 -15.6364 L -6.30316 -15.6857 L -6.30811 -15.735 L -6.31306 -15.7843 L -6.31801 -15.8336 L -6.32295 -15.8829 L -6.32789 -15.9322 L -6.33282 -15.9815 L -6.33775 -16.0307 L -6.34267 -16.08 L -6.34759 -16.1292 L -6.35251 -16.1785 L -6.35742 -16.2277 L -6.36233 -16.2769 L -6.36724 -16.3261 L -6.37214 -16.3753 L -6.37704 -16.4245 L -6.38194 -16.4737 L -6.38683 -16.5228 L -6.39172 -16.572 L -6.3966 -16.6212 L -6.40148 -16.6703 L -6.40636 -16.7194 L -6.41123 -16.7685 L -6.4161 -16.8177 L -6.37159 -16.8346 L -6.32703 -16.8514 L -6.28243 -16.868 L -6.23778 -16.8846 L -6.19309 -16.9011 L -6.14836 -16.9174 L -6.10358 -16.9336 L -6.05876 -16.9497 L -6.0139 -16.9656 L -5.969 -16.9815 L -5.92405 -16.9972 L -5.87907 -17.0128 L -5.83404 -17.0283 L -5.78897 -17.0437 L -5.74386 -17.059 L -5.69871 -17.0741 L -5.65352 -17.0891 L -5.60829 -17.104 L -5.56302 -17.1188 L -5.51772 -17.1334 L -5.47237 -17.148 L -5.42699 -17.1624 L -5.38157 -17.1767 L -5.33611 -17.1909 L -5.29061 -17.2049 L -5.24507 -17.2189 L -5.1995 -17.2327 L -5.1539 -17.2464 L -5.10825 -17.2599 L -5.06257 -17.2734 L -5.01686 -17.2867 L -4.83487 -17.3385 L -4.78899 -17.3512 L -4.74307 -17.3639 L -4.69711 -17.3763 L -4.65113 -17.3887 L -4.60511 -17.4009 L -4.55906 -17.4131 L -4.51298 -17.4251 L -4.46686 -17.4369 L -4.42072 -17.4487 L -4.37454 -17.4603 L -4.32834 -17.4718 L -4.2821 -17.4832 L -4.23583 -17.4945 L -4.18954 -17.5057 L -4.14321 -17.5167 L -4.09686 -17.5276 L -4.05047 -17.5383 L -4.00406 -17.549 L -3.95762 -17.5595 L -3.91115 -17.5699 L -3.86466 -17.5802 L -3.81814 -17.5904 L -3.77159 -17.6004 L -3.72501 -17.6103 L -3.67841 -17.6201 L -3.63178 -17.6298 L -3.58513 -17.6394 L -3.53845 -17.6488 L -3.49175 -17.6581 L -3.44502 -17.6673 L -3.39827 -17.6763 L -3.37656 -17.632 L -3.35484 -17.5877 L -3.33313 -17.5433 L -3.31141 -17.499 L -3.28969 -17.4546 L -3.26797 -17.4102 L -3.24624 -17.3659 L -3.22452 -17.3215 L -3.20279 -17.2771 L -3.18106 -17.2327 L -3.15933 -17.1882 L -3.13759 -17.1438 L -3.11586 -17.0994 L -3.09412 -17.0549 L -3.07238 -17.0105 L -3.05064 -16.966 L -3.0289 -16.9215 L -3.00715 -16.877 L -2.98541 -16.8325 L -2.96366 -16.788 L -2.94191 -16.7435 L -2.92016 -16.699 L -2.8984 -16.6544 L -2.87665 -16.6099 L -2.85489 -16.5653 L -2.83313 -16.5207 L -2.81137 -16.4762 L -2.7896 -16.4316 L -2.76784 -16.3869 L -2.74607 -16.3423 L -2.7243 -16.2977 L -2.70253 -16.253 L -2.68075 -16.2084 L -2.61121 -16.1715 L -2.46988 -16.1455 L -2.32839 -16.1184 L -2.18673 -16.0902 L -2.04492 -16.0608 L -1.90296 -16.0303 L -1.76086 -15.9986 L -1.61864 -15.9658 L -1.47629 -15.9317 L -1.47629 -15.9317 L -1.34263 -15.9914 L -1.20886 -16.0498 L -1.075 -16.107 L -0.941067 -16.1631 L -0.807065 -16.218 L -0.673007 -16.2718 L -0.538901 -16.3244 L -0.404758 -16.376 L -0.343174 -16.425 L -0.329977 -16.4729 L -0.31678 -16.5208 L -0.303582 -16.5686 L -0.290385 -16.6165 L -0.277187 -16.6644 L -0.263988 -16.7122 L -0.25079 -16.76 L -0.237592 -16.8078 L -0.224393 -16.8556 L -0.211194 -16.9034 L -0.197995 -16.9512 L -0.184796 -16.999 L -0.171597 -17.0468 L -0.158397 -17.0945 L -0.145198 -17.1422 L -0.131998 -17.19 L -0.118799 -17.2377 L -0.105599 -17.2854 L -0.0923993 -17.3331 L -0.0791995 -17.3808 L -0.0659997 -17.4284 L -0.0527998 -17.4761 L -0.0395999 -17.5238 L -0.0263999 -17.5714 L -0.0132 -17.619 L 3.9968e-15 -17.6667 L 0.0132 -17.7143 L 0.0263999 -17.7619 L 0.0395999 -17.8095 L 0.0527998 -17.8571 L 0.0659997 -17.9046 L 0.0791996 -17.9522 L 0.0923994 -17.9998 L 0.140017 -17.9995 L 0.187634 -17.999 L 0.23525 -17.9985 L 0.282864 -17.9978 L 0.330476 -17.997 L 0.378086 -17.996 L 0.425693 -17.995 L 0.473298 -17.9938 L 0.520898 -17.9925 L 0.568496 -17.991 L 0.616089 -17.9895 L 0.663678 -17.9878 L 0.711262 -17.9859 L 0.758841 -17.984 L 0.806415 -17.9819 L 0.853984 -17.9797 L 0.901546 -17.9774 L 0.949102 -17.975 L 0.996652 -17.9724 L 1.04419 -17.9697 L 1.09173 -17.9669 L 1.13926 -17.9639 L 1.18678 -17.9608 L 1.23429 -17.9576 L 1.28179 -17.9543 L 1.32928 -17.9508 L 1.37677 -17.9473 L 1.42424 -17.9436 L 1.47171 -17.9397 L 1.51916 -17.9358 L 1.56661 -17.9317 L 1.75501 -17.9142 L 1.8024 -17.9095 L 1.84977 -17.9047 L 1.89713 -17.8997 L 1.94448 -17.8947 L 1.99181 -17.8895 L 2.03913 -17.8841 L 2.08643 -17.8787 L 2.13373 -17.8731 L 2.181 -17.8674 L 2.22826 -17.8615 L 2.27551 -17.8556 L 2.32274 -17.8495 L 2.36995 -17.8433 L 2.41714 -17.837 L 2.46432 -17.8305 L 2.51149 -17.8239 L 2.55863 -17.8172 L 2.60576 -17.8104 L 2.65286 -17.8034 L 2.69995 -17.7964 L 2.74703 -17.7891 L 2.79408 -17.7818 L 2.84111 -17.7744 L 2.88812 -17.7668 L 2.93511 -17.7591 L 2.98208 -17.7513 L 3.02903 -17.7433 L 3.07596 -17.7352 L 3.12287 -17.727 L 3.16976 -17.7187 L 3.21662 -17.7103 L 3.22086 -17.6611 L 3.22509 -17.6119 L 3.22933 -17.5627 L 3.23356 -17.5135 L 3.23779 -17.4643 L 3.24202 -17.4151 L 3.24624 -17.3659 L 3.25047 -17.3166 L 3.25469 -17.2674 L 3.25891 -17.2181 L 3.26313 -17.1688 L 3.26734 -17.1196 L 3.27156 -17.0703 L 3.27577 -17.021 L 3.27998 -16.9717 L 3.28419 -16.9224 L 3.2884 -16.873 L 3.2926 -16.8237 L 3.29681 -16.7743 L 3.30101 -16.725 L 3.30521 -16.6756 L 3.3094 -16.6262 L 3.3136 -16.5768 L 3.31779 -16.5274 L 3.32198 -16.478 L 3.32617 -16.4286 L 3.33035 -16.3791 L 3.33454 -16.3297 L 3.33872 -16.2802 L 3.34289 -16.2308 L 3.34707 -16.1813 L 3.35124 -16.1318 L 3.35541 -16.0823 L 3.40694 -16.0227 L 3.52933 -15.9475 L 3.65148 -15.8711 L 3.77338 -15.7936 L 3.89501 -15.715 L 4.01636 -15.6352 L 4.13741 -15.5544 L 4.25817 -15.4724 L 4.37861 -15.3892 L 4.37861 -15.3892 L 4.52478 -15.3965 L 4.67062 -15.4027 L 4.81612 -15.4077 L 4.96127 -15.4116 L 5.10606 -15.4144 L 5.25049 -15.4161 L 5.39456 -15.4168 L 5.53825 -15.4163 L 5.61339 -15.4398 L 5.643 -15.4797 L 5.6726 -15.5196 L 5.7022 -15.5595 L 5.7318 -15.5993 L 5.76139 -15.6392 L 5.79098 -15.679 L 5.82057 -15.7189 L 5.85015 -15.7587 L 5.87972 -15.7985 L 5.9093 -15.8383 L 5.93886 -15.8781 L 5.96843 -15.9178 L 5.99799 -15.9576 L 6.02755 -15.9974 L 6.0571 -16.0371 L 6.08665 -16.0769 L 6.11619 -16.1166 L 6.14574 -16.1563 L 6.17527 -16.196 L 6.20481 -16.2357 L 6.23434 -16.2754 L 6.26387 -16.3151 L 6.29339 -16.3547 L 6.32291 -16.3944 L 6.35242 -16.434 L 6.38194 -16.4737 L 6.41144 -16.5133 L 6.44095 -16.5529 L 6.47045 -16.5925 L 6.49995 -16.6321 L 6.52944 -16.6717 L 6.55894 -16.7113 L 6.58842 -16.7509 L 6.63272 -16.7334 L 6.67696 -16.7158 L 6.72116 -16.6981 L 6.76531 -16.6802 L 6.80941 -16.6623 L 6.85347 -16.6442 L 6.89748 -16.626 L 6.94144 -16.6077 L 6.98535 -16.5893 L 7.02921 -16.5708 L 7.07303 -16.5521 L 7.11679 -16.5333 L 7.1605 -16.5145 L 7.20417 -16.4955 L 7.24778 -16.4763 L 7.29134 -16.4571 L 7.33486 -16.4378 L 7.37832 -16.4183 L 7.42172 -16.3987 L 7.46508 -16.379 L 7.50839 -16.3592 L 7.55164 -16.3393 L 7.59484 -16.3193 L 7.63798 -16.2991 L 7.68108 -16.2789 L 7.72412 -16.2585 L 7.7671 -16.238 L 7.81003 -16.2174 L 7.85291 -16.1967 L 7.89573 -16.1758 L 7.93849 -16.1549 L 8.10787 -16.0705 L 8.15035 -16.049 L 8.19278 -16.0274 L 8.23515 -16.0057 L 8.27747 -15.9839 L 8.31972 -15.9619 L 8.36192 -15.9398 L 8.40406 -15.9177 L 8.44614 -15.8954 L 8.48816 -15.873 L 8.53013 -15.8505 L 8.57203 -15.8278 L 8.61387 -15.8051 L 8.65565 -15.7823 L 8.69738 -15.7593 L 8.73904 -15.7362 L 8.78064 -15.7131 L 8.82217 -15.6898 L 8.86365 -15.6664 L 8.90507 -15.6429 L 8.94642 -15.6193 L 8.98771 -15.5955 L 9.02893 -15.5717 L 9.0701 -15.5478 L 9.1112 -15.5237 L 9.15223 -15.4996 L 9.1932 -15.4753 L 9.23411 -15.4509 L 9.27496 -15.4264 L 9.31573 -15.4019 L 9.35645 -15.3772 L 9.39709 -15.3523 L 9.38328 -15.305 L 9.36946 -15.2576 L 9.35564 -15.2102 L 9.34181 -15.1628 L 9.32798 -15.1154 L 9.31414 -15.0679 L 9.3003 -15.0205 L 9.28645 -14.9731 L 9.2726 -14.9256 L 9.25874 -14.8782 L 9.24488 -14.8307 L 9.23101 -14.7832 L 9.21713 -14.7357 L 9.20325 -14.6882 L 9.18937 -14.6407 L 9.17548 -14.5932 L 9.16158 -14.5457 L 9.14768 -14.4982 L 9.13377 -14.4507 L 9.11985 -14.4031 L 9.10593 -14.3556 L 9.09201 -14.308 L 9.07808 -14.2604 L 9.06414 -14.2128 L 9.05019 -14.1652 L 9.03624 -14.1176 L 9.02229 -14.07 L 9.00832 -14.0224 L 8.99436 -13.9748 L 8.98038 -13.9271 L 8.9664 -13.8795 L 8.95241 -13.8318 L 8.93841 -13.7841 L 8.96496 -13.71 L 9.05189 -13.5956 L 9.1382 -13.4803 L 9.22387 -13.364 L 9.30889 -13.2467 L 9.39324 -13.1286 L 9.47691 -13.0094 L 9.55989 -12.8893 L 9.64215 -12.7683 L 9.64215 -12.7683 L 9.78109 -12.7223 L 9.91931 -12.6753 L 10.0568 -12.6275 L 10.1936 -12.5787 L 10.3296 -12.529 L 10.4649 -12.4784 L 10.5995 -12.427 L 10.7333 -12.3747 L 10.8118 -12.3694 L 10.8539 -12.3959 L 10.8959 -12.4224 L 10.9379 -12.4489 L 10.9799 -12.4754 L 11.0219 -12.5019 L 11.0638 -12.5283 L 11.1058 -12.5548 L 11.1478 -12.5812 L 11.1897 -12.6076 L 11.2317 -12.6341 L 11.2736 -12.6605 L 11.3156 -12.6869 L 11.3575 -12.7133 L 11.3994 -12.7397 L 11.4414 -12.7661 L 11.4833 -12.7925 L 11.5252 -12.8188 L 11.5671 -12.8452 L 11.6089 -12.8716 L 11.6508 -12.8979 L 11.6927 -12.9242 L 11.7346 -12.9506 L 11.7764 -12.9769 L 11.8183 -13.0032 L 11.8601 -13.0295 L 11.902 -13.0558 L 11.9438 -13.0821 L 11.9856 -13.1084 L 12.0274 -13.1347 L 12.0692 -13.161 L 12.1111 -13.1872 L 12.1529 -13.2135 L 12.1946 -13.2397 L 12.2296 -13.2074 L 12.2645 -13.175 L 12.2993 -13.1425 L 12.3341 -13.11 L 12.3687 -13.0773 L 12.4033 -13.0445 L 12.4377 -13.0117 L 12.4721 -12.9787 L 12.5064 -12.9457 L 12.5406 -12.9125 L 12.5747 -12.8793 L 12.6087 -12.846 L 12.6427 -12.8126 L 12.6765 -12.7791 L 12.7103 -12.7455 L 12.744 -12.7119 L 12.7776 -12.6781 L 12.811 -12.6443 L 12.8445 -12.6103 L 12.8778 -12.5763 L 12.911 -12.5422 L 12.9441 -12.508 L 12.9772 -12.4737 L 13.0101 -12.4393 L 13.043 -12.4049 L 13.0758 -12.3703 L 13.1084 -12.3357 L 13.141 -12.3009 L 13.1735 -12.2661 L 13.2059 -12.2312 L 13.2382 -12.1963 L 13.3657 -12.0564 L 13.3976 -12.021 L 13.4293 -11.9856 L 13.461 -11.95 L 13.4925 -11.9143 L 13.524 -11.8786 L 13.5554 -11.8428 L 13.5867 -11.8069 L 13.6179 -11.7709 L 13.649 -11.7348 L 13.68 -11.6987 L 13.7109 -11.6624 L 13.7417 -11.6261 L 13.7724 -11.5897 L 13.803 -11.5533 L 13.8335 -11.5167 L 13.8639 -11.4801 L 13.8942 -11.4433 L 13.9245 -11.4066 L 13.9546 -11.3697 L 13.9846 -11.3327 L 14.0145 -11.2957 L 14.0444 -11.2586 L 14.0741 -11.2214 L 14.1038 -11.1841 L 14.1333 -11.1467 L 14.1627 -11.1093 L 14.1921 -11.0718 L 14.2213 -11.0342 L 14.2505 -10.9966 L 14.2795 -10.9588 L 14.3084 -10.921 L 14.2784 -10.8818 L 14.2484 -10.8426 L 14.2184 -10.8034 L 14.1884 -10.7642 L 14.1584 -10.725 L 14.1283 -10.6858 L 14.0983 -10.6465 L 14.0683 -10.6073 L 14.0382 -10.5681 L 14.0081 -10.5288 L 13.9781 -10.4896 L 13.948 -10.4503 L 13.9179 -10.4111 L 13.8878 -10.3718 L 13.8577 -10.3325 L 13.8276 -10.2932 L 13.7974 -10.2539 L 13.7673 -10.2146 L 13.7372 -10.1753 L 13.707 -10.136 L 13.6769 -10.0967 L 13.6467 -10.0574 L 13.6165 -10.0181 L 13.5863 -9.97873 L 13.5561 -9.93939 L 13.5259 -9.90004 L 13.4957 -9.86068 L 13.4655 -9.82132 L 13.4353 -9.78195 L 13.405 -9.74258 L 13.3748 -9.70319 L 13.3445 -9.6638 L 13.3142 -9.62441 L 13.3122 -9.54571 L 13.3519 -9.40762 L 13.3908 -9.26888 L 13.4286 -9.12949 L 13.4656 -8.98946 L 13.5015 -8.84878 L 13.5365 -8.70746 L 13.5705 -8.56551 L 13.6035 -8.42291 L 13.6035 -8.42291 L 13.7164 -8.32983 L 13.8283 -8.23613 L 13.9392 -8.14182 L 14.0491 -8.04692 L 14.158 -7.95145 L 14.2659 -7.85542 L 14.3728 -7.75883 L 14.4787 -7.66171 L 14.5501 -7.62844 L 14.5988 -7.63798 L 14.6476 -7.64751 L 14.6963 -7.65704 L 14.7451 -7.66656 L 14.7938 -7.67607 L 14.8425 -7.68558 L 14.8912 -7.69509 L 14.9399 -7.70458 L 14.9885 -7.71408 L 15.0372 -7.72357 L 15.0859 -7.73305 L 15.1345 -7.74253 L 15.1831 -7.752 L 15.2318 -7.76147 L 15.2804 -7.77093 L 15.329 -7.78039 L 15.3776 -7.78984 L 15.4262 -7.79929 L 15.4748 -7.80873 L 15.5233 -7.81817 L 15.5719 -7.82761 L 15.6204 -7.83704 L 15.669 -7.84646 L 15.7175 -7.85588 L 15.766 -7.8653 L 15.8146 -7.87471 L 15.8631 -7.88412 L 15.9116 -7.89352 L 15.96 -7.90292 L 16.0085 -7.91231 L 16.057 -7.9217 L 16.1055 -7.93109 L 16.1539 -7.94047 L 16.1749 -7.89771 L 16.1957 -7.85489 L 16.2164 -7.81202 L 16.237 -7.76909 L 16.2575 -7.72611 L 16.2779 -7.68307 L 16.2982 -7.63998 L 16.3183 -7.59684 L 16.3384 -7.55364 L 16.3583 -7.51039 L 16.3781 -7.46709 L 16.3978 -7.42373 L 16.4174 -7.38033 L 16.4369 -7.33687 L 16.4562 -7.29336 L 16.4754 -7.2498 L 16.4946 -7.20619 L 16.5136 -7.16253 L 16.5325 -7.11882 L 16.5512 -7.07505 L 16.5699 -7.03124 L 16.5884 -6.98738 L 16.6069 -6.94347 L 16.6252 -6.89952 L 16.6434 -6.85551 L 16.6615 -6.81146 L 16.6794 -6.76735 L 16.6973 -6.72321 L 16.715 -6.67901 L 16.7326 -6.63477 L 16.7501 -6.59048 L 16.8184 -6.41404 L 16.8354 -6.36953 L 16.8521 -6.32497 L 16.8688 -6.28036 L 16.8854 -6.23571 L 16.9018 -6.19102 L 16.9181 -6.14629 L 16.9343 -6.10151 L 16.9504 -6.05669 L 16.9664 -6.01182 L 16.9822 -5.96692 L 16.9979 -5.92197 L 17.0136 -5.87698 L 17.029 -5.83195 L 17.0444 -5.78688 L 17.0597 -5.74177 L 17.0748 -5.69662 L 17.0898 -5.65143 L 17.1047 -5.6062 L 17.1195 -5.56093 L 17.1341 -5.51562 L 17.1486 -5.47027 L 17.1631 -5.42488 L 17.1774 -5.37946 L 17.1915 -5.334 L 17.2056 -5.2885 L 17.2195 -5.24296 L 17.2333 -5.19739 L 17.247 -5.15178 L 17.2606 -5.10614 L 17.274 -5.06046 L 17.2873 -5.01474 L 17.2452 -4.98903 L 17.2031 -4.96332 L 17.1609 -4.9376 L 17.1188 -4.91188 L 17.0766 -4.88616 L 17.0344 -4.86044 L 16.9923 -4.83471 L 16.9501 -4.80898 L 16.9079 -4.78325 L 16.8656 -4.75752 L 16.8234 -4.73178 L 16.7812 -4.70604 L 16.7389 -4.6803 L 16.6967 -4.65455 L 16.6544 -4.6288 L 16.6122 -4.60305 L 16.5699 -4.5773 L 16.5276 -4.55154 L 16.4853 -4.52578 L 16.443 -4.50002 L 16.4006 -4.47425 L 16.3583 -4.44849 L 16.316 -4.42271 L 16.2736 -4.39694 L 16.2312 -4.37116 L 16.1889 -4.34538 L 16.1465 -4.3196 L 16.1041 -4.29381 L 16.0617 -4.26802 L 16.0192 -4.24223 L 15.9768 -4.21644 L 15.9343 -4.19064 L 15.8919 -4.16484 L 15.8616 -4.09219 L 15.8487 -3.94907 L 15.8348 -3.80567 L 15.8198 -3.66202 L 15.8036 -3.5181 L 15.7863 -3.37393 L 15.7679 -3.22952 L 15.7483 -3.08487 L 15.7276 -2.93999 L 15.7276 -2.93999 L 15.7993 -2.81239 L 15.8698 -2.68459 L 15.9391 -2.55658 L 16.0073 -2.4284 L 16.0744 -2.30003 L 16.1403 -2.17151 L 16.2051 -2.04283 L 16.2687 -1.91401 L 16.3233 -1.85722 L 16.3722 -1.8485 L 16.4211 -1.83977 L 16.47 -1.83105 L 16.5188 -1.82232 L 16.5677 -1.8136 L 16.6166 -1.80487 L 16.6654 -1.79614 L 16.7142 -1.78741 L 16.763 -1.77868 L 16.8118 -1.76995 L 16.8606 -1.76121 L 16.9094 -1.75248 L 16.9582 -1.74374 L 17.007 -1.735 L 17.0557 -1.72627 L 17.1045 -1.71753 L 17.1532 -1.70879 L 17.2019 -1.70004 L 17.2506 -1.6913 L 17.2993 -1.68256 L 17.348 -1.67381 L 17.3967 -1.66507 L 17.4454 -1.65632 L 17.494 -1.64757 L 17.5427 -1.63882 L 17.5913 -1.63007 L 17.6399 -1.62132 L 17.6886 -1.61257 L 17.7372 -1.60382 L 17.7858 -1.59507 L 17.8344 -1.58631 L 17.8829 -1.57756 L 17.9315 -1.5688 L 17.9356 -1.52136 L 17.9396 -1.47391 L 17.9434 -1.42644 L 17.9471 -1.37897 L 17.9507 -1.33148 L 17.9541 -1.28399 L 17.9575 -1.23649 L 17.9607 -1.18898 L 17.9638 -1.14146 L 17.9667 -1.09393 L 17.9696 -1.0464 L 17.9723 -0.998854 L 17.9748 -0.951305 L 17.9773 -0.90375 L 17.9796 -0.856187 L 17.9818 -0.808619 L 17.9839 -0.761046 L 17.9859 -0.713467 L 17.9877 -0.665882 L 17.9894 -0.618294 L 17.991 -0.570701 L 17.9924 -0.523104 L 17.9937 -0.475503 L 17.9949 -0.427899 L 17.996 -0.380292 L 17.9969 -0.332682 L 17.9977 -0.28507 L 17.9984 -0.237456 L 17.999 -0.18984 L 17.9994 -0.142223 L 17.9998 -0.0946054Z"
id="path1" />
</g>
</svg>
