<?xml version="1.0" encoding="UTF-8" standalone="no"?>
<svg version="1.1">
<g
style="fill:none;stroke:#000000;stroke-opacity:1;stroke-width:0.1">
<path d="M 19.9999 0.0493361 L 19.9998 0.0893358 L 19.9996 0.129335 L 19.9993 0.169334 L 19.9989 0.209332 L 19.9984 0.24933 L 19.9979 0.289326 L 19.9973 0.329321 L 19.9966 0.369315 L 19.9958 0.409308 L 19.995 0.449298 L 19.994 0.489287 L 19.993 0.529274 L 19.9919 0.569259 L 19.9907 0.609242 L 19.9895 0.649222 L 19.9881 0.6892 L 19.9867 0.729175 L 19.9852 0.769146 L 19.9836 0.809115 L 19.982 0.849081 L 19.9802 0.889043 L 19.9784 0.929002 L 19.9765 0.968957 L 19.9745 1.00891 L 19.9725 1.04885 L 19.9703 1.0888 L 19.9681 1.12874 L 19.9658 1.16867 L 19.9634 1.2086 L 19.961 1.24852 L 19.9585 1.28844 L 19.9558 1.32836 L 19.9531 1.36827 L 19.9504 1.40817 L 19.9475 1.44807 L 19.9446 1.48796 L 19.9416 1.52785 L 19.9385 1.56773 L 19.9353 1.6076 L 19.932 1.64747 L 19.8914 1.65372 L 19.8507 1.65998 L 19.8101 1.66623 L 19.7694 1.67248 L 19.7287 1.67873 L 19.688 1.68499 L 19.6473 1.69124 L 19.6067 1.69749 L 19.566 1.70374 L 19.5253 1.70999 L 19.4846 1.71624 L 19.4439 1.72249 L 19.4031 1.72874 L 19.3624 1.73499 L 19.3217 1.74124 L 19.281 1.74749 L 19.2402 1.75373 L 19.1995 1.75998 L 19.1588 1.76623 L 19.118 1.77247 L 19.0773 1.77872 L 19.0365 1.78496 L 18.9957 1.79121 L 18.955 1.79745 L 18.9142 1.8037 L 18.8734 1.80994 L 18.8326 1.81618 L 18.7918 1.82242 L 18.751 1.82866 L 18.7102 1.83491 L 18.6694 1.84115 L 18.6286 1.84739 L 18.5878 1.85363 L 18.547 1.85986 L 18.5062 1.8661 L 18.4653 1.87234 L 18.4245 1.87858 L 18.3836 1.88481 L 18.3428 1.89105 L 18.3019 1.89729 L 18.2519 1.98943 L 18.2014 2.08151 L 18.1503 2.17354 L 18.0988 2.26551 L 18.0467 2.35741 L 17.9941 2.44924 L 17.941 2.541 L 17.8873 2.63269 L 17.8331 2.72429 L 17.7784 2.81582 L 17.7784 2.81582 L 17.8021 2.91978 L 17.8254 3.02365 L 17.8481 3.12742 L 17.8702 3.23111 L 17.8919 3.3347 L 17.913 3.4382 L 17.9336 3.5416 L 17.9538 3.64489 L 17.9734 3.74809 L 17.9925 3.85118 L 18.0294 3.86973 L 18.0663 3.88829 L 18.1032 3.90684 L 18.1401 3.9254 L 18.1771 3.94395 L 18.214 3.9625 L 18.2509 3.98104 L 18.2877 3.99959 L 18.3246 4.01814 L 18.3615 4.03668 L 18.3984 4.05523 L 18.4353 4.07377 L 18.4721 4.09231 L 18.509 4.11085 L 18.5458 4.12939 L 18.5827 4.14793 L 18.6195 4.16647 L 18.6564 4.185 L 18.6932 4.20354 L 18.73 4.22207 L 18.7669 4.2406 L 18.8037 4.25913 L 18.8405 4.27766 L 18.8773 4.29619 L 18.9141 4.31472 L 18.9509 4.33324 L 18.9877 4.35177 L 19.0245 4.37029 L 19.0613 4.38882 L 19.098 4.40734 L 19.1348 4.42586 L 19.1716 4.44438 L 19.2084 4.4629 L 19.2451 4.48142 L 19.2819 4.49993 L 19.3186 4.51845 L 19.3554 4.53696 L 19.3921 4.55548 L 19.4288 4.57399 L 19.4656 4.5925 L 19.4564 4.63142 L 19.4471 4.67033 L 19.4377 4.70921 L 19.4282 4.74808 L 19.4187 4.78692 L 19.4091 4.82575 L 19.3994 4.86456 L 19.3896 4.90335 L 19.3798 4.94212 L 19.3698 4.98087 L 19.3598 5.0196 L 19.3498 5.05831 L 19.3396 5.097 L 19.3294 5.13567 L 19.3191 5.17432 L 19.3087 5.21294 L 19.2982 5.25155 L 19.2877 5.29014 L 19.2771 5.3287 L 19.2664 5.36724 L 19.2556 5.40577 L 19.2447 5.44427 L 19.2338 5.48274 L 19.2228 5.5212 L 19.2117 5.55964 L 19.2006 5.59805 L 19.1893 5.63644 L 19.178 5.67481 L 19.1666 5.71315 L 19.1552 5.75147 L 19.1436 5.78977 L 19.132 5.82805 L 19.1203 5.8663 L 19.1085 5.90453 L 19.0967 5.94273 L 19.0848 5.98091 L 19.0728 6.01907 L 19.0607 6.05721 L 19.0485 6.09531 L 19.0363 6.1334 L 19.0058 6.22724 L 18.9933 6.26524 L 18.9808 6.30322 L 18.9681 6.34116 L 18.9554 6.37909 L 18.9426 6.41699 L 18.9297 6.45486 L 18.9168 6.49271 L 18.9038 6.53053 L 18.8907 6.56832 L 18.8775 6.60609 L 18.8642 6.64383 L 18.8509 6.68155 L 18.8375 6.71923 L 18.824 6.7569 L 18.8105 6.79453 L 18.7969 6.83214 L 18.7832 6.86972 L 18.7694 6.90727 L 18.7555 6.94479 L 18.7416 6.98229 L 18.7276 7.01976 L 18.7135 7.0572 L 18.6994 7.09461 L 18.6851 7.132 L 18.6708 7.16936 L 18.6565 7.20668 L 18.642 7.24398 L 18.6275 7.28125 L 18.6129 7.31849 L 18.5982 7.3557 L 18.5835 7.39288 L 18.5686 7.43004 L 18.5537 7.46716 L 18.5388 7.50425 L 18.5237 7.54131 L 18.5086 7.57835 L 18.4934 7.61535 L 18.4781 7.65232 L 18.4628 7.68926 L 18.4474 7.72617 L 18.4068 7.71956 L 18.3662 7.71294 L 18.3256 7.70632 L 18.285 7.6997 L 18.2444 7.69308 L 18.2037 7.68645 L 18.1631 7.67983 L 18.1225 7.6732 L 18.0819 7.66657 L 18.0412 7.65994 L 18.0006 7.6533 L 17.9599 7.64667 L 17.9193 7.64003 L 17.8786 7.63339 L 17.838 7.62675 L 17.7973 7.62011 L 17.7566 7.61346 L 17.7159 7.60681 L 17.6753 7.60016 L 17.6346 7.59351 L 17.5939 7.58686 L 17.5532 7.5802 L 17.5125 7.57355 L 17.4718 7.56689 L 17.4311 7.56022 L 17.3904 7.55356 L 17.3497 7.54689 L 17.3089 7.54022 L 17.2682 7.53355 L 17.2275 7.52688 L 17.1867 7.52021 L 17.146 7.51353 L 17.1053 7.50685 L 17.0645 7.50017 L 17.0237 7.49348 L 16.983 7.4868 L 16.9422 7.48011 L 16.9014 7.47342 L 16.8607 7.46673 L 16.8199 7.46003 L 16.7438 7.5322 L 16.6673 7.60417 L 16.5903 7.67592 L 16.5129 7.74745 L 16.4349 7.81876 L 16.3565 7.88984 L 16.2776 7.96069 L 16.1983 8.03131 L 16.1184 8.10169 L 16.0381 8.17183 L 16.0381 8.17183 L 16.0286 8.27804 L 16.0186 8.384 L 16.0081 8.48971 L 15.9971 8.59518 L 15.9857 8.70039 L 15.9738 8.80535 L 15.9615 8.91006 L 15.9487 9.01451 L 15.9355 9.11872 L 15.9218 9.22266 L 15.9512 9.25172 L 15.9805 9.28078 L 16.0099 9.30983 L 16.0393 9.33889 L 16.0687 9.36793 L 16.098 9.39698 L 16.1274 9.42602 L 16.1567 9.45506 L 16.1861 9.4841 L 16.2154 9.51313 L 16.2448 9.54217 L 16.2741 9.57119 L 16.3034 9.60022 L 16.3328 9.62924 L 16.3621 9.65826 L 16.3914 9.68728 L 16.4207 9.7163 L 16.45 9.74531 L 16.4793 9.77432 L 16.5086 9.80332 L 16.5379 9.83233 L 16.5672 9.86133 L 16.5965 9.89033 L 16.6258 9.91933 L 16.6551 9.94832 L 16.6843 9.97731 L 16.7136 10.0063 L 16.7429 10.0353 L 16.7721 10.0643 L 16.8014 10.0933 L 16.8306 10.1222 L 16.8599 10.1512 L 16.8891 10.1802 L 16.9184 10.2091 L 16.9476 10.2381 L 16.9768 10.2671 L 17.0061 10.296 L 17.0353 10.325 L 17.0645 10.354 L 17.0937 10.3829 L 17.0729 10.4171 L 17.052 10.4512 L 17.0311 10.4853 L 17.0101 10.5193 L 16.989 10.5533 L 16.9679 10.5873 L 16.9467 10.6212 L 16.9254 10.6551 L 16.9041 10.6889 L 16.8826 10.7227 L 16.8612 10.7564 L 16.8396 10.7901 L 16.818 10.8238 L 16.7963 10.8574 L 16.7746 10.891 L 16.7528 10.9245 L 16.7309 10.958 L 16.7089 10.9914 L 16.6869 11.0248 L 16.6648 11.0582 L 16.6427 11.0915 L 16.6205 11.1248 L 16.5982 11.158 L 16.5758 11.1911 L 16.5534 11.2243 L 16.5309 11.2574 L 16.5084 11.2904 L 16.4858 11.3234 L 16.4631 11.3563 L 16.4403 11.3892 L 16.4175 11.4221 L 16.3947 11.4549 L 16.3717 11.4877 L 16.3487 11.5204 L 16.3256 11.5531 L 16.3025 11.5857 L 16.2793 11.6183 L 16.256 11.6508 L 16.2327 11.6833 L 16.2093 11.7158 L 16.1513 11.7956 L 16.1277 11.8279 L 16.104 11.8601 L 16.0802 11.8923 L 16.0564 11.9244 L 16.0325 11.9565 L 16.0086 11.9885 L 15.9846 12.0205 L 15.9605 12.0525 L 15.9364 12.0844 L 15.9122 12.1162 L 15.8879 12.148 L 15.8636 12.1798 L 15.8392 12.2115 L 15.8147 12.2431 L 15.7902 12.2747 L 15.7656 12.3063 L 15.741 12.3378 L 15.7163 12.3693 L 15.6915 12.4007 L 15.6667 12.432 L 15.6418 12.4633 L 15.6168 12.4946 L 15.5918 12.5258 L 15.5667 12.557 L 15.5416 12.5881 L 15.5164 12.6191 L 15.4911 12.6501 L 15.4658 12.6811 L 15.4404 12.712 L 15.4149 12.7429 L 15.3894 12.7737 L 15.3638 12.8044 L 15.3382 12.8351 L 15.3125 12.8658 L 15.2867 12.8964 L 15.2609 12.9269 L 15.235 12.9574 L 15.2091 12.9879 L 15.1831 13.0182 L 15.157 13.0486 L 15.1204 13.0297 L 15.0839 13.0109 L 15.0473 12.9921 L 15.0107 12.9732 L 14.9741 12.9544 L 14.9375 12.9355 L 14.9009 12.9167 L 14.8644 12.8978 L 14.8278 12.8789 L 14.7912 12.8601 L 14.7546 12.8412 L 14.718 12.8223 L 14.6813 12.8035 L 14.6447 12.7846 L 14.6081 12.7657 L 14.5715 12.7468 L 14.5349 12.7279 L 14.4982 12.709 L 14.4616 12.6901 L 14.425 12.6712 L 14.3883 12.6523 L 14.3517 12.6334 L 14.315 12.6145 L 14.2784 12.5956 L 14.2417 12.5767 L 14.2051 12.5578 L 14.1684 12.5389 L 14.1317 12.5199 L 14.095 12.501 L 14.0584 12.4821 L 14.0217 12.4631 L 13.985 12.4442 L 13.9483 12.4253 L 13.9116 12.4063 L 13.8749 12.3874 L 13.8382 12.3684 L 13.8015 12.3494 L 13.7648 12.3305 L 13.7281 12.3115 L 13.6914 12.2925 L 13.5967 12.3377 L 13.5017 12.3825 L 13.4063 12.4269 L 13.3106 12.471 L 13.2144 12.5148 L 13.1179 12.5581 L 13.021 12.6011 L 12.9237 12.6438 L 12.826 12.686 L 12.7279 12.7279 L 12.7279 12.7279 L 12.686 12.826 L 12.6438 12.9237 L 12.6011 13.021 L 12.5581 13.1179 L 12.5148 13.2144 L 12.471 13.3106 L 12.4269 13.4063 L 12.3825 13.5017 L 12.3377 13.5967 L 12.2925 13.6914 L 12.3115 13.7281 L 12.3305 13.7648 L 12.3494 13.8015 L 12.3684 13.8382 L 12.3874 13.8749 L 12.4063 13.9116 L 12.4253 13.9483 L 12.4442 13.985 L 12.4631 14.0217 L 12.4821 14.0584 L 12.501 14.095 L 12.5199 14.1317 L 12.5389 14.1684 L 12.5578 14.2051 L 12.5767 14.2417 L 12.5956 14.2784 L 12.6145 14.315 L 12.6334 14.3517 L 12.6523 14.3883 L 12.6712 14.425 L 12.6901 14.4616 L 12.709 14.4982 L 12.7279 14.5349 L 12.7468 14.5715 L 12.7657 14.6081 L 12.7846 14.6447 L 12.8035 14.6813 L 12.8223 14.718 L 12.8412 14.7546 L 12.8601 14.7912 L 12.8789 14.8278 L 12.8978 14.8644 L 12.9167 14.9009 L 12.9355 14.9375 L 12.9544 14.9741 L 12.9732 15.0107 L 12.9921 15.0473 L 13.0109 15.0839 L 13.0297 15.1204 L 13.0486 15.157 L 13.0182 15.1831 L 12.9879 15.2091 L 12.9574 15.235 L 12.9269 15.2609 L 12.8964 15.2867 L 12.8658 15.3125 L 12.8351 15.3382 L 12.8044 15.3638 L 12.7737 15.3894 L 12.7429 15.4149 L 12.712 15.4404 L 12.6811 15.4658 L 12.6501 15.4911 L 12.6191 15.5164 L 12.5881 15.5416 L 12.557 15.5667 L 12.5258 15.5918 L 12.4946 15.6168 L 12.4633 15.6418 L 12.432 15.6667 L 12.4007 15.6915 L 12.3693 15.7163 L 12.3378 15.741 L 12.3063 15.7656 L 12.2747 15.7902 L 12.2431 15.8147 L 12.2115 15.8392 L 12.1798 15.8636 L 12.148 15.8879 L 12.1162 15.9122 L 12.0844 15.9364 L 12.0525 15.9605 L 12.0205 15.9846 L 11.9885 16.0086 L 11.9565 16.0325 L 11.9244 16.0564 L 11.8923 16.0802 L 11.8601 16.104 L 11.8279 16.1277 L 11.7956 16.1513 L 11.7158 16.2093 L 11.6833 16.2327 L 11.6508 16.256 L 11.6183 16.2793 L 11.5857 16.3025 L 11.5531 16.3256 L 11.5204 16.3487 L 11.4877 16.3717 L 11.4549 16.3947 L 11.4221 16.4175 L 11.3892 16.4403 L 11.3563 16.4631 L 11.3234 16.4858 L 11.2904 16.5084 L 11.2574 16.5309 L 11.2243 16.5534 L 11.1911 16.5758 L 11.158 16.5982 L 11.1248 16.6205 L 11.0915 16.6427 L 11.0582 16.6648 L 11.0248 16.6869 L 10.9914 16.7089 L 10.958 16.7309 L 10.9245 16.7528 L 10.891 16.7746 L 10.8574 16.7963 L 10.8238 16.818 L 10.7901 16.8396 L 10.7564 16.8612 L 10.7227 16.8826 L 10.6889 16.9041 L 10.6551 16.9254 L 10.6212 16.9467 L 10.5873 16.9679 L 10.5533 16.989 L 10.5193 17.0101 L 10.4853 17.0311 L 10.4512 17.052 L 10.4171 17.0729 L 10.3829 17.0937 L 10.354 17.0645 L 10.325 17.0353 L 10.296 17.0061 L 10.2671 16.9768 L 10.2381 16.9476 L 10.2091 16.9184 L 10.1802 16.8891 L 10.1512 16.8599 L 10.1222 16.8306 L 10.0933 16.8014 L 10.0643 16.7721 L 10.0353 16.7429 L 10.0063 16.7136 L 9.97731 16.6843 L 9.94832 16.6551 L 9.91933 16.6258 L 9.89033 16.5965 L 9.86133 16.5672 L 9.83233 16.5379 L 9.80332 16.5086 L 9.77432 16.4793 L 9.74531 16.45 L 9.7163 16.4207 L 9.68728 16.3914 L 9.65826 16.3621 L 9.62924 16.3328 L 9.60022 16.3034 L 9.57119 16.2741 L 9.54217 16.2448 L 9.51313 16.2154 L 9.4841 16.1861 L 9.45506 16.1567 L 9.42602 16.1274 L 9.39698 16.098 L 9.36793 16.0687 L 9.33889 16.0393 L 9.30983 16.0099 L 9.28078 15.9805 L 9.25172 15.9512 L 9.22266 15.9218 L 9.11872 15.9355 L 9.01451 15.9487 L 8.91006 15.9615 L 8.80535 15.9738 L 8.70039 15.9857 L 8.59518 15.9971 L 8.48971 16.0081 L 8.384 16.0186 L 8.27804 16.0286 L 8.17183 16.0381 L 8.17183 16.0381 L 8.10169 16.1184 L 8.03131 16.1983 L 7.96069 16.2776 L 7.88984 16.3565 L 7.81876 16.4349 L 7.74745 16.5129 L 7.67592 16.5903 L 7.60417 16.6673 L 7.5322 16.7438 L 7.46003 16.8199 L 7.46673 16.8607 L 7.47342 16.9014 L 7.48011 16.9422 L 7.4868 16.983 L 7.49348 17.0237 L 7.50017 17.0645 L 7.50685 17.1053 L 7.51353 17.146 L 7.52021 17.1867 L 7.52688 17.2275 L 7.53355 17.2682 L 7.54022 17.3089 L 7.54689 17.3497 L 7.55356 17.3904 L 7.56022 17.4311 L 7.56689 17.4718 L 7.57355 17.5125 L 7.5802 17.5532 L 7.58686 17.5939 L 7.59351 17.6346 L 7.60016 17.6753 L 7.60681 17.7159 L 7.61346 17.7566 L 7.62011 17.7973 L 7.62675 17.838 L 7.63339 17.8786 L 7.64003 17.9193 L 7.64667 17.9599 L 7.6533 18.0006 L 7.65994 18.0412 L 7.66657 18.0819 L 7.6732 18.1225 L 7.67983 18.1631 L 7.68645 18.2037 L 7.69308 18.2444 L 7.6997 18.285 L 7.70632 18.3256 L 7.71294 18.3662 L 7.71956 18.4068 L 7.72617 18.4474 L 7.68926 18.4628 L 7.65232 18.4781 L 7.61535 18.4934 L 7.57835 18.5086 L 7.54131 18.5237 L 7.50425 18.5388 L 7.46716 18.5537 L 7.43004 18.5686 L 7.39288 18.5835 L 7.3557 18.5982 L 7.31849 18.6129 L 7.28125 18.6275 L 7.24398 18.642 L 7.20668 18.6565 L 7.16936 18.6708 L 7.132 18.6851 L 7.09461 18.6994 L 7.0572 18.7135 L 7.01976 18.7276 L 6.98229 18.7416 L 6.94479 18.7555 L 6.90727 18.7694 L 6.86972 18.7832 L 6.83214 18.7969 L 6.79453 18.8105 L 6.7569 18.824 L 6.71923 18.8375 L 6.68155 18.8509 L 6.64383 18.8642 L 6.60609 18.8775 L 6.56832 18.8907 L 6.53053 18.9038 L 6.49271 18.9168 L 6.45486 18.9297 L 6.41699 18.9426 L 6.37909 18.9554 L 6.34116 18.9681 L 6.30322 18.9808 L 6.26524 18.9933 L 6.22724 19.0058 L 6.1334 19.0363 L 6.09531 19.0485 L 6.05721 19.0607 L 6.01907 19.0728 L 5.98091 19.0848 L 5.94273 19.0967 L 5.90453 19.1085 L 5.8663 19.1203 L 5.82805 19.132 L 5.78977 19.1436 L 5.75147 19.1552 L 5.71315 19.1666 L 5.67481 19.178 L 5.63644 19.1893 L 5.59805 19.2006 L 5.55964 19.2117 L 5.5212 19.2228 L 5.48274 19.2338 L 5.44427 19.2447 L 5.40577 19.2556 L 5.36724 19.2664 L 5.3287 19.2771 L 5.29014 19.2877 L 5.25155 19.2982 L 5.21294 19.3087 L 5.17432 19.3191 L 5.13567 19.3294 L 5.097 19.3396 L 5.05831 19.3498 L 5.0196 19.3598 L 4.98087 19.3698 L 4.94212 19.3798 L 4.90335 19.3896 L 4.86456 19.3994 L 4.82575 19.4091 L 4.78692 19.4187 L 4.74808 19.4282 L 4.70921 19.4377 L 4.67033 19.4471 L 4.63142 19.4564 L 4.5925 19.4656 L 4.57399 19.4288 L 4.55548 19.3921 L 4.53696 19.3554 L 4.51845 19.3186 L 4.49993 19.2819 L 4.48142 19.2451 L 4.4629 19.2084 L 4.44438 19.1716 L 4.42586 19.1348 L 4.40734 19.098 L 4.38882 19.0613 L 4.37029 19.0245 L 4.35177 18.9877 L 4.33324 18.9509 L 4.31472 18.9141 L 4.29619 18.8773 L 4.27766 18.8405 L 4.25913 18.8037 L 4.2406 18.7669 L 4.22207 18.73 L 4.20354 18.6932 L 4.185 18.6564 L 4.16647 18.6195 L 4.14793 18.5827 L 4.12939 18.5458 L 4.11085 18.509 L 4.09231 18.4721 L 4.07377 18.4353 L 4.05523 18.3984 L 4.03668 18.3615 L 4.01814 18.3246 L 3.99959 18.2877 L 3.98104 18.2509 L 3.9625 18.214 L 3.94395 18.1771 L 3.9254 18.1401 L 3.90684 18.1032 L 3.88829 18.0663 L 3.86973 18.0294 L 3.85118 17.9925 L 3.74809 17.9734 L 3.64489 17.9538 L 3.5416 17.9336 L 3.4382 17.913 L 3.3347 17.8919 L 3.23111 17.8702 L 3.12742 17.8481 L 3.02365 17.8254 L 2.91978 17.8021 L 2.81582 17.7784 L 2.81582 17.7784 L 2.72429 17.8331 L 2.63269 17.8873 L 2.541 17.941 L 2.44924 17.9941 L 2.35741 18.0467 L 2.26551 18.0988 L 2.17354 18.1503 L 2.08151 18.2014 L 1.98943 18.2519 L 1.89729 18.3019 L 1.89105 18.3428 L 1.88481 18.3836 L 1.87858 18.4245 L 1.87234 18.4653 L 1.8661 18.5062 L 1.85986 18.547 L 1.85363 18.5878 L 1.84739 18.6286 L 1.84115 18.6694 L 1.83491 18.7102 L 1.82866 18.751 L 1.82242 18.7918 L 1.81618 18.8326 L 1.80994 18.8734 L 1.8037 18.9142 L 1.79745 18.955 L 1.79121 18.9957 L 1.78496 19.0365 L 1.77872 19.0773 L 1.77247 19.118 L 1.76623 19.1588 L 1.75998 19.1995 L 1.75373 19.2402 L 1.74749 19.281 L 1.74124 19.3217 L 1.73499 19.3624 L 1.72874 19.4031 L 1.72249 19.4439 L 1.71624 19.4846 L 1.70999 19.5253 L 1.70374 19.566 L 1.69749 19.6067 L 1.69124 19.6473 L 1.68499 19.688 L 1.67873 19.7287 L 1.67248 19.7694 L 1.66623 19.8101 L 1.65998 19.8507 L 1.65372 19.8914 L 1.64747 19.932 L 1.6076 19.9353 L 1.56773 19.9385 L 1.52785 19.9416 L 1.48796 19.9446 L 1.44807 19.9475 L 1.40817 19.9504 L 1.36827 19.9531 L 1.32836 19.9558 L 1.28844 19.9585 L 1.24852 19.961 L 1.2086 19.9634 L 1.16867 19.9658 L 1.12874 19.9681 L 1.0888 19.9703 L 1.04885 19.9725 L 1.00891 19.9745 L 0.968957 19.9765 L 0.929002 19.9784 L 0.889043 19.9802 L 0.849081 19.982 L 0.809115 19.9836 L 0.769146 19.9852 L 0.729175 19.9867 L 0.6892 19.9881 L 0.649222 19.9895 L 0.609242 19.9907 L 0.569259 19.9919 L 0.529274 19.993 L 0.489287 19.994 L 0.449298 19.995 L 0.409308 19.9958 L 0.369315 19.9966 L 0.329321 19.9973 L 0.289326 19.9979 L 0.24933 19.9984 L 0.209332 19.9989 L 0.169334 19.9993 L 0.129335 19.9996 L 0.0893358 19.9998 L 0.0493361 19.9999 L -0.0493361 19.9999 L -0.0893358 19.9998 L -0.129335 19.9996 L -0.169334 19.9993 L -0.209332 19.9989 L -0.24933 19.9984 L -0.289326 19.9979 L -0.329321 19.9973 L -0.369315 19.9966 L -0.409308 19.9958 L -0.449298 19.995 L -0.489287 19.994 L -0.529274 19.993 L -0.569259 19.9919 L -0.609242 19.9907 L -0.649222 19.9895 L -0.6892 19.9881 L -0.729175 19.9867 L -0.769146 19.9852 L -0.809115 19.9836 L -0.849081 19.982 L -0.889043 19.9802 L -0.929002 19.9784 L -0.968957 19.9765 L -1.00891 19.9745 L -1.04885 19.9725 L -1.0888 19.9703 L -1.12874 19.9681 L -1.16867 19.9658 L -1.2086 19.9634 L -1.24852 19.961 L -1.28844 19.9585 L -1.32836 19.9558 L -1.36827 19.9531 L -1.40817 19.9504 L -1.44807 19.9475 L -1.48796 19.9446 L -1.52785 19.9416 L -1.56773 19.9385 L -1.6076 19.9353 L -1.64747 19.932 L -1.65372 19.8914 L -1.65998 19.8507 L -1.66623 19.8101 L -1.67248 19.7694 L -1.67873 19.7287 L -1.68499 19.688 L -1.69124 19.6473 L -1.69749 19.6067 L -1.70374 19.566 L -1.70999 19.5253 L -1.71624 19.4846 L -1.72249 19.4439 L -1.72874 19.4031 L -1.73499 19.3624 L -1.74124 19.3217 L -1.74749 19.281 L -1.75373 19.2402 L -1.75998 19.1995 L -1.76623 19.1588 L -1.77247 19.118 L -1.77872 19.0773 L -1.78496 19.0365 L -1.79121 18.9957 L -1.79745 18.955 L -1.8037 18.9142 L -1.80994 18.8734 L -1.81618 18.8326 L -1.82242 18.7918 L -1.82866 18.751 L -1.83491 18.7102 L -1.84115 18.6694 L -1.84739 18.6286 L -1.85363 18.5878 L -1.85986 18.547 L -1.8661 18.5062 L -1.87234 18.4653 L -1.87858 18.4245 L -1.88481 18.3836 L -1.89105 18.3428 L -1.89729 18.3019 L -1.98943 18.2519 L -2.08151 18.2014 L -2.17354 18.1503 L -2.26551 18.0988 L -2.35741 18.0467 L -2.44924 17.9941 L -2.541 17.941 L -2.63269 17.8873 L -2.72429 17.8331 L -2.81582 17.7784 L -2.81582 17.7784 L -2.91978 17.8021 L -3.02365 17.8254 L -3.12742 17.8481 L -3.23111 17.8702 L -3.3347 17.8919 L -3.4382 17.913 L -3.5416 17.9336 L -3.64489 17.9538 L -3.74809 17.9734 L -3.85118 17.9925 L -3.86973 18.0294 L -3.88829 18.0663 L -3.90684 18.1032 L -3.9254 18.1401 L -3.94395 18.1771 L -3.9625 18.214 L -3.98104 18.2509 L -3.99959 18.2877 L -4.01814 18.3246 L -4.03668 18.3615 L -4.05523 18.3984 L -4.07377 18.4353 L -4.09231 18.4721 L -4.11085 18.509 L -4.12939 18.5458 L -4.14793 18.5827 L -4.16647 18.6195 L -4.185 18.6564 L -4.20354 18.6932 L -4.22207 18.73 L -4.2406 18.7669 L -4.25913 18.8037 L -4.27766 18.8405 L -4.29619 18.8773 L -4.31472 18.9141 L -4.33324 18.9509 L -4.35177 18.9877 L -4.37029 19.0245 L -4.38882 19.0613 L -4.40734 19.098 L -4.42586 19.1348 L -4.44438 19.1716 L -4.4629 19.2084 L -4.48142 19.2451 L -4.49993 19.2819 L -4.51845 19.3186 L -4.53696 19.3554 L -4.55548 19.3921 L -4.57399 19.4288 L -4.5925 19.4656 L -4.63142 19.4564 L -4.67033 19.4471 L -4.70921 19.4377 L -4.74808 19.4282 L -4.78692 19.4187 L -4.82575 19.4091 L -4.86456 19.3994 L -4.90335 19.3896 L -4.94212 19.3798 L -4.98087 19.3698 L -5.0196 19.3598 L -5.05831 19.3498 L -5.097 19.3396 L -5.13567 19.3294 L -5.17432 19.3191 L -5.21294 19.3087 L -5.25155 19.2982 L -5.29014 19.2877 L -5.3287 19.2771 L -5.36724 19.2664 L -5.40577 19.2556 L -5.44427 19.2447 L -5.48274 19.2338 L -5.5212 19.2228 L -5.55964 19.2117 L -5.59805 19.2006 L -5.63644 19.1893 L -5.67481 19.178 L -5.71315 19.1666 L -5.75147 19.1552 L -5.78977 19.1436 L -5.82805 19.132 L -5.8663 19.1203 L -5.90453 19.1085 L -5.94273 19.0967 L -5.98091 19.0848 L -6.01907 19.0728 L -6.05721 19.0607 L -6.09531 19.0485 L -6.1334 19.0363 L -6.22724 19.0058 L -6.26524 18.9933 L -6.30322 18.9808 L -6.34116 18.9681 L -6.37909 18.9554 L -6.41699 18.9426 L -6.45486 18.9297 L -6.49271 18.9168 L -6.53053 18.9038 L -6.56832 18.8907 L -6.60609 18.8775 L -6.64383 18.8642 L -6.68155 18.8509 L -6.71923 18.8375 L -6.7569 18.824 L -6.79453 18.8105 L -6.83214 18.7969 L -6.86972 18.7832 L -6.90727 18.7694 L -6.94479 18.7555 L -6.98229 18.7416 L -7.01976 18.7276 L -7.0572 18.7135 L -7.09461 18.6994 L -7.132 18.6851 L -7.16936 18.6708 L -7.20668 18.6565 L -7.24398 18.642 L -7.28125 18.6275 L -7.31849 18.6129 L -7.3557 18.5982 L -7.39288 18.5835 L -7.43004 18.5686 L -7.46716 18.5537 L -7.50425 18.5388 L -7.54131 18.5237 L -7.57835 18.5086 L -7.61535 18.4934 L -7.65232 18.4781 L -7.68926 18.4628 L -7.72617 18.4474 L -7.71956 18.4068 L -7.71294 18.3662 L -7.70632 18.3256 L -7.6997 18.285 L -7.69308 18.2444 L -7.68645 18.2037 L -7.67983 18.1631 L -7.6732 18.1225 L -7.66657 18.0819 L -7.65994 18.0412 L -7.6533 18.0006 L -7.64667 17.9599 L -7.64003 17.9193 L -7.63339 17.8786 L -7.62675 17.838 L -7.62011 17.7973 L -7.61346 17.7566 L -7.60681 17.7159 L -7.60016 17.6753 L -7.59351 17.6346 L -7.58686 17.5939 L -7.5802 17.5532 L -7.57355 17.5125 L -7.56689 17.4718 L -7.56022 17.4311 L -7.55356 17.3904 L -7.54689 17.3497 L -7.54022 17.3089 L -7.53355 17.2682 L -7.52688 17.2275 L -7.52021 17.1867 L -7.51353 17.146 L -7.50685 17.1053 L -7.50017 17.0645 L -7.49348 17.0237 L -7.4868 16.983 L -7.48011 16.9422 L -7.47342 16.9014 L -7.46673 16.8607 L -7.46003 16.8199 L -7.5322 16.7438 L -7.60417 16.6673 L -7.67592 16.5903 L -7.74745 16.5129 L -7.81876 16.4349 L -7.88984 16.3565 L -7.96069 16.2776 L -8.03131 16.1983 L -8.10169 16.1184 L -8.17183 16.0381 L -8.17183 16.0381 L -8.27804 16.0286 L -8.384 16.0186 L -8.48971 16.0081 L -8.59518 15.9971 L -8.70039 15.9857 L -8.80535 15.9738 L -8.91006 15.9615 L -9.01451 15.9487 L -9.11872 15.9355 L -9.22266 15.9218 L -9.25172 15.9512 L -9.28078 15.9805 L -9.30983 16.0099 L -9.33889 16.0393 L -9.36793 16.0687 L -9.39698 16.098 L -9.42602 16.1274 L -9.45506 16.1567 L -9.4841 16.1861 L -9.51313 16.2154 L -9.54217 16.2448 L -9.57119 16.2741 L -9.60022 16.3034 L -9.62924 16.3328 L -9.65826 16.3621 L -9.68728 16.3914 L -9.7163 16.4207 L -9.74531 16.45 L -9.77432 16.4793 L -9.80332 16.5086 L -9.83233 16.5379 L -9.86133 16.5672 L -9.89033 16.5965 L -9.91933 16.6258 L -9.94832 16.6551 L -9.97731 16.6843 L -10.0063 16.7136 L -10.0353 16.7429 L -10.0643 16.7721 L -10.0933 16.8014 L -10.1222 16.8306 L -10.1512 16.8599 L -10.1802 16.8891 L -10.2091 16.9184 L -10.2381 16.9476 L -10.2671 16.9768 L -10.296 17.0061 L -10.325 17.0353 L -10.354 17.0645 L -10.3829 17.0937 L -10.4171 17.0729 L -10.4512 17.052 L -10.4853 17.0311 L -10.5193 17.0101 L -10.5533 16.989 L -10.5873 16.9679 L -10.6212 16.9467 L -10.6551 16.9254 L -10.6889 16.9041 L -10.7227 16.8826 L -10.7564 16.8612 L -10.7901 16.8396 L -10.8238 16.818 L -10.8574 16.7963 L -10.891 16.7746 L -10.9245 16.7528 L -10.958 16.7309 L -10.9914 16.7089 L -11.0248 16.6869 L -11.0582 16.6648 L -11.0915 16.6427 L -11.1248 16.6205 L -11.158 16.5982 L -11.1911 16.5758 L -11.2243 16.5534 L -11.2574 16.5309 L -11.2904 16.5084 L -11.3234 16.4858 L -11.3563 16.4631 L -11.3892 16.4403 L -11.4221 16.4175 L -11.4549 16.3947 L -11.4877 16.3717 L -11.5204 16.3487 L -11.5531 16.3256 L -11.5857 16.3025 L -11.6183 16.2793 L -11.6508 16.256 L -11.6833 16.2327 L -11.7158 16.2093 L -11.7956 16.1513 L -11.8279 16.1277 L -11.8601 16.104 L -11.8923 16.0802 L -11.9244 16.0564 L -11.9565 16.0325 L -11.9885 16.0086 L -12.0205 15.9846 L -12.0525 15.9605 L -12.0844 15.9364 L -12.1162 15.9122 L -12.148 15.8879 L -12.1798 15.8636 L -12.2115 15.8392 L -12.2431 15.8147 L -12.2747 15.7902 L -12.3063 15.7656 L -12.3378 15.741 L -12.3693 15.7163 L -12.4007 15.6915 L -12.432 15.6667 L -12.4633 15.6418 L -12.4946 15.6168 L -12.5258 15.5918 L -12.557 15.5667 L -12.5881 15.5416 L -12.6191 15.5164 L -12.6501 15.4911 L -12.6811 15.4658 L -12.712 15.4404 L -12.7429 15.4149 L -12.7737 15.3894 L -12.8044 15.3638 L -12.8351 15.3382 L -12.8658 15.3125 L -12.8964 15.2867 L -12.9269 15.2609 L -12.9574 15.235 L -12.9879 15.2091 L -13.0182 15.1831 L -13.0486 15.157 L -13.0297 15.1204 L -13.0109 15.0839 L -12.9921 15.0473 L -12.9732 15.0107 L -12.9544 14.9741 L -12.9355 14.9375 L -12.9167 14.9009 L -12.8978 14.8644 L -12.8789 14.8278 L -12.8601 14.7912 L -12.8412 14.7546 L -12.8223 14.718 L -12.8035 14.6813 L -12.7846 14.6447 L -12.7657 14.6081 L -12.7468 14.5715 L -12.7279 14.5349 L -12.709 14.4982 L -12.6901 14.4616 L -12.6712 14.425 L -12.6523 14.3883 L -12.6334 14.3517 L -12.6145 14.315 L -12.5956 14.2784 L -12.5767 14.2417 L -12.5578 14.2051 L -12.5389 14.1684 L -12.5199 14.1317 L -12.501 14.095 L -12.4821 14.0584 L -12.4631 14.0217 L -12.4442 13.985 L -12.4253 13.9483 L -12.4063 13.9116 L -12.3874 13.8749 L -12.3684 13.8382 L -12.3494 13.8015 L -12.3305 13.7648 L -12.3115 13.7281 L -12.2925 13.6914 L -12.3377 13.5967 L -12.3825 13.5017 L -12.4269 13.4063 L -12.471 13.3106 L -12.5148 13.2144 L -12.5581 13.1179 L -12.6011 13.021 L -12.6438 12.9237 L -12.686 12.826 L -12.7279 12.7279 L -12.7279 12.7279 L -12.826 12.686 L -12.9237 12.6438 L -13.021 12.6011 L -13.1179 12.5581 L -13.2144 12.5148 L -13.3106 12.471 L -13.4063 12.4269 L -13.5017 12.3825 L -13.5967 12.3377 L -13.6914 12.2925 L -13.7281 12.3115 L -13.7648 12.3305 L -13.8015 12.3494 L -13.8382 12.3684 L -13.8749 12.3874 L -13.9116 12.4063 L -13.9483 12.4253 L -13.985 12.4442 L -14.0217 12.4631 L -14.0584 12.4821 L -14.095 12.501 L -14.1317 12.5199 L -14.1684 12.5389 L -14.2051 12.5578 L -14.2417 12.5767 L -14.2784 12.5956 L -14.315 12.6145 L -14.3517 12.6334 L -14.3883 12.6523 L -14.425 12.6712 L -14.4616 12.6901 L -14.4982 12.709 L -14.5349 12.7279 L -14.5715 12.7468 L -14.6081 12.7657 L -14.6447 12.7846 L -14.6813 12.8035 L -14.718 12.8223 L -14.7546 12.8412 L -14.7912 12.8601 L -14.8278 12.8789 L -14.8644 12.8978 L -14.9009 12.9167 L -14.9375 12.9355 L -14.9741 12.9544 L -15.0107 12.9732 L -15.0473 12.9921 L -15.0839 13.0109 L -15.1204 13.0297 L -15.157 13.0486 L -15.1831 13.0182 L -15.2091 12.9879 L -15.235 12.9574 L -15.2609 12.9269 L -15.2867 12.8964 L -15.3125 12.8658 L -15.3382 12.8351 L -15.3638 12.8044 L -15.3894 12.7737 L -15.4149 12.7429 L -15.4404 12.712 L -15.4658 12.6811 L -15.4911 12.6501 L -15.5164 12.6191 L -15.5416 12.5881 L -15.5667 12.557 L -15.5918 12.5258 L -15.6168 12.4946 L -15.6418 12.4633 L -15.6667 12.432 L -15.6915 12.4007 L -15.7163 12.3693 L -15.741 12.3378 L -15.7656 12.3063 L -15.7902 12.2747 L -15.8147 12.2431 L -15.8392 12.2115 L -15.8636 12.1798 L -15.8879 12.148 L -15.9122 12.1162 L -15.9364 12.0844 L -15.9605 12.0525 L -15.9846 12.0205 L -16.0086 11.9885 L -16.0325 11.9565 L -16.0564 11.9244 L -16.0802 11.8923 L -16.104 11.8601 L -16.1277 11.8279 L -16.1513 11.7956 L -16.2093 11.7158 L -16.2327 11.6833 L -16.256 11.6508 L -16.2793 11.6183 L -16.3025 11.5857 L -16.3256 11.5531 L -16.3487 11.5204 L -16.3717 11.4877 L -16.3947 11.4549 L -16.4175 11.4221 L -16.4403 11.3892 L -16.4631 11.3563 L -16.4858 11.3234 L -16.5084 11.2904 L -16.5309 11.2574 L -16.5534 11.2243 L -16.5758 11.1911 L -16.5982 11.158 L -16.6205 11.1248 L -16.6427 11.0915 L -16.6648 11.0582 L -16.6869 11.0248 L -16.7089 10.9914 L -16.7309 10.958 L -16.7528 10.9245 L -16.7746 10.891 L -16.7963 10.8574 L -16.818 10.8238 L -16.8396 10.7901 L -16.8612 10.7564 L -16.8826 10.7227 L -16.9041 10.6889 L -16.9254 10.6551 L -16.9467 10.6212 L -16.9679 10.5873 L -16.989 10.5533 L -17.0101 10.5193 L -17.0311 10.4853 L -17.052 10.4512 L -17.0729 10.4171 L -17.0937 10.3829 L -17.0645 10.354 L -17.0353 10.325 L -17.0061 10.296 L -16.9768 10.2671 L -16.9476 10.2381 L -16.9184 10.2091 L -16.8891 10.1802 L -16.8599 10.1512 L -16.8306 10.1222 L -16.8014 10.0933 L -16.7721 10.0643 L -16.7429 10.0353 L -16.7136 10.0063 L -16.6843 9.97731 L -16.6551 9.94832 L -16.6258 9.91933 L -16.5965 9.89033 L -16.5672 9.86133 L -16.5379 9.83233 L -16.5086 9.80332 L -16.4793 9.77432 L -16.45 9.74531 L -16.4207 9.7163 L -16.3914 9.68728 L -16.3621 9.65826 L -16.3328 9.62924 L -16.3034 9.60022 L -16.2741 9.57119 L -16.2448 9.54217 L -16.2154 9.51313 L -16.1861 9.4841 L -16.1567 9.45506 L -16.1274 9.42602 L -16.098 9.39698 L -16.0687 9.36793 L -16.0393 9.33889 L -16.0099 9.30983 L -15.9805 9.28078 L -15.9512 9.25172 L -15.9218 9.22266 L -15.9355 9.11872 L -15.9487 9.01451 L -15.9615 8.91006 L -15.9738 8.80535 L -15.9857 8.70039 L -15.9971 8.59518 L -16.0081 8.48971 L -16.0186 8.384 L -16.0286 8.27804 L -16.0381 8.17183 L -16.0381 8.17183 L -16.1184 8.10169 L -16.1983 8.03131 L -16.2776 7.96069 L -16.3565 7.88984 L -16.4349 7.81876 L -16.5129 7.74745 L -16.5903 7.67592 L -16.6673 7.60417 L -16.7438 7.5322 L -16.8199 7.46003 L -16.8607 7.46673 L -16.9014 7.47342 L -16.9422 7.48011 L -16.983 7.4868 L -17.0237 7.49348 L -17.0645 7.50017 L -17.1053 7.50685 L -17.146 7.51353 L -17.1867 7.52021 L -17.2275 7.52688 L -17.2682 7.53355 L -17.3089 7.54022 L -17.3497 7.54689 L -17.3904 7.55356 L -17.4311 7.56022 L -17.4718 7.56689 L -17.5125 7.57355 L -17.5532 7.5802 L -17.5939 7.58686 L -17.6346 7.59351 L -17.6753 7.60016 L -17.7159 7.60681 L -17.7566 7.61346 L -17.7973 7.62011 L -17.838 7.62675 L -17.8786 7.63339 L -17.9193 7.64003 L -17.9599 7.64667 L -18.0006 7.6533 L -18.0412 7.65994 L -18.0819 7.66657 L -18.1225 7.6732 L -18.1631 7.67983 L -18.2037 7.68645 L -18.2444 7.69308 L -18.285 7.6997 L -18.3256 7.70632 L -18.3662 7.71294 L -18.4068 7.71956 L -18.4474 7.72617 L -18.4628 7.68926 L -18.4781 7.65232 L -18.4934 7.61535 L -18.5086 7.57835 L -18.5237 7.54131 L -18.5388 7.50425 L -18.5537 7.46716 L -18.5686 7.43004 L -18.5835 7.39288 L -18.5982 7.3557 L -18.6129 7.31849 L -18.6275 7.28125 L -18.642 7.24398 L -18.6565 7.20668 L -18.6708 7.16936 L -18.6851 7.132 L -18.6994 7.09461 L -18.7135 7.0572 L -18.7276 7.01976 L -18.7416 6.98229 L -18.7555 6.94479 L -18.7694 6.90727 L -18.7832 6.86972 L -18.7969 6.83214 L -18.8105 6.79453 L -18.824 6.7569 L -18.8375 6.71923 L -18.8509 6.68155 L -18.8642 6.64383 L -18.8775 6.60609 L -18.8907 6.56832 L -18.9038 6.53053 L -18.9168 6.49271 L -18.9297 6.45486 L -18.9426 6.41699 L -18.9554 6.37909 L -18.9681 6.34116 L -18.9808 6.30322 L -18.9933 6.26524 L -19.0058 6.22724 L -19.0363 6.1334 L -19.0485 6.09531 L -19.0607 6.05721 L -19.0728 6.01907 L -19.0848 5.98091 L -19.0967 5.94273 L -19.1085 5.90453 L -19.1203 5.8663 L -19.132 5.82805 L -19.1436 5.78977 L -19.1552 5.75147 L -19.1666 5.71315 L -19.178 5.67481 L -19.1893 5.63644 L -19.2006 5.59805 L -19.2117 5.55964 L -19.2228 5.5212 L -19.2338 5.48274 L -19.2447 5.44427 L -19.2556 5.40577 L -19.2664 5.36724 L -19.2771 5.3287 L -19.2877 5.29014 L -19.2982 5.25155 L -19.3087 5.21294 L -19.3191 5.17432 L -19.3294 5.13567 L -19.3396 5.097 L -19.3498 5.05831 L -19.3598 5.0196 L -19.3698 4.98087 L -19.3798 4.94212 L -19.3896 4.90335 L -19.3994 4.86456 L -19.4091 4.82575 L -19.4187 4.78692 L -19.4282 4.74808 L -19.4377 4.70921 L -19.4471 4.67033 L -19.4564 4.63142 L -19.4656 4.5925 L -19.4288 4.57399 L -19.3921 4.55548 L -19.3554 4.53696 L -19.3186 4.51845 L -19.2819 4.49993 L -19.2451 4.48142 L -19.2084 4.4629 L -19.1716 4.44438 L -19.1348 4.42586 L -19.098 4.40734 L -19.0613 4.38882 L -19.0245 4.37029 L -18.9877 4.35177 L -18.9509 4.33324 L -18.9141 4.31472 L -18.8773 4.29619 L -18.8405 4.27766 L -18.8037 4.25913 L -18.7669 4.2406 L -18.73 4.22207 L -18.6932 4.20354 L -18.6564 4.185 L -18.6195 4.16647 L -18.5827 4.14793 L -18.5458 4.12939 L -18.509 4.11085 L -18.4721 4.09231 L -18.4353 4.07377 L -18.3984 4.05523 L -18.3615 4.03668 L -18.3246 4.01814 L -18.2877 3.99959 L -18.2509 3.98104 L -18.214 3.9625 L -18.1771 3.94395 L -18.1401 3.9254 L -18.1032 3.90684 L -18.0663 3.88829 L -18.0294 3.86973 L -17.9925 3.85118 L -17.9734 3.74809 L -17.9538 3.64489 L -17.9336 3.5416 L -17.913 3.4382 L -17.8919 3.3347 L -17.8702 3.23111 L -17.8481 3.12742 L -17.8254 3.02365 L -17.8021 2.91978 L -17.7784 2.81582 L -17.7784 2.81582 L -17.8331 2.72429 L -17.8873 2.63269 L -17.941 2.541 L -17.9941 2.44924 L -18.0467 2.35741 L -18.0988 2.26551 L -18.1503 2.17354 L -18.2014 2.08151 L -18.2519 1.98943 L -18.3019 1.89729 L -18.3428 1.89105 L -18.3836 1.88481 L -18.4245 1.87858 L -18.4653 1.87234 L -18.5062 1.8661 L -18.547 1.85986 L -18.5878 1.85363 L -18.6286 1.84739 L -18.6694 1.84115 L -18.7102 1.83491 L -18.751 1.82866 L -18.7918 1.82242 L -18.8326 1.81618 L -18.8734 1.80994 L -18.9142 1.8037 L -18.955 1.79745 L -18.9957 1.79121 L -19.0365 1.78496 L -19.0773 1.77872 L -19.118 1.77247 L -19.1588 1.76623 L -19.1995 1.75998 L -19.2402 1.75373 L -19.281 1.74749 L -19.3217 1.74124 L -19.3624 1.73499 L -19.4031 1.72874 L -19.4439 1.72249 L -19.4846 1.71624 L -19.5253 1.70999 L -19.566 1.70374 L -19.6067 1.69749 L -19.6473 1.69124 L -19.688 1.68499 L -19.7287 1.67873 L -19.7694 1.67248 L -19.8101 1.66623 L -19.8507 1.65998 L -19.8914 1.65372 L -19.932 1.64747 L -19.9353 1.6076 L -19.9385 1.56773 L -19.9416 1.52785 L -19.9446 1.48796 L -19.9475 1.44807 L -19.9504 1.40817 L -19.9531 1.36827 L -19.9558 1.32836 L -19.9585 1.28844 L -19.961 1.24852 L -19.9634 1.2086 L -19.9658 1.16867 L -19.9681 1.12874 L -19.9703 1.0888 L -19.9725 1.04885 L -19.9745 1.00891 L -19.9765 0.968957 L -19.9784 0.929002 L -19.9802 0.889043 L -19.982 0.849081 L -19.9836 0.809115 L -19.9852 0.769146 L -19.9867 0.729175 L -19.9881 0.6892 L -19.9895 0.649222 L -19.9907 0.609242 L -19.9919 0.569259 L -19.993 0.529274 L -19.994 0.489287 L -19.995 0.449298 L -19.9958 0.409308 L -19.9966 0.369315 L -19.9973 0.329321 L -19.9979 0.289326 L -19.9984 0.24933 L -19.9989 0.209332 L -19.9993 0.169334 L -19.9996 0.129335 L -19.9998 0.0893358 L -19.9999 0.0493361 L -19.9999 -0.0493361 L -19.9998 -0.0893358 L -19.9996 -0.129335 L -19.9993 -0.169334 L -19.9989 -0.209332 L -19.9984 -0.24933 L -19.9979 -0.289326 L -19.9973 -0.329321 L -19.9966 -0.369315 L -19.9958 -0.409308 L -19.995 -0.449298 L -19.994 -0.489287 L -19.993 -0.529274 L -19.9919 -0.569259 L -19.9907 -0.609242 L -19.9895 -0.649222 L -19.9881 -0.6892 L -19.9867 -0.729175 L -19.9852 -0.769146 L -19.9836 -0.809115 L -19.982 -0.849081 L -19.9802 -0.889043 L -19.9784 -0.929002 L -19.9765 -0.968957 L -19.9745 -1.00891 L -19.9725 -1.04885 L -19.9703 -1.0888 L -19.9681 -1.12874 L -19.9658 -1.16867 L -19.9634 -1.2086 L -19.961 -1.24852 L -19.9585 -1.28844 L -19.9558 -1.32836 L -19.9531 -1.36827 L -19.9504 -1.40817 L -19.9475 -1.44807 L -19.9446 -1.48796 L -19.9416 -1.52785 L -19.9385 -1.56773 L -19.9353 -1.6076 L -19.932 -1.64747 L -19.8914 -1.65372 L -19.8507 -1.65998 L -19.8101 -1.66623 L -19.7694 -1.67248 L -19.7287 -1.67873 L -19.688 -1.68499 L -19.6473 -1.69124 L -19.6067 -1.69749 L -19.566 -1.70374 L -19.5253 -1.70999 L -19.4846 -1.71624 L -19.4439 -1.72249 L -19.4031 -1.72874 L -19.3624 -1.73499 L -19.3217 -1.74124 L -19.281 -1.74749 L -19.2402 -1.75373 L -19.1995 -1.75998 L -19.1588 -1.76623 L -19.118 -1.77247 L -19.0773 -1.77872 L -19.0365 -1.78496 L -18.9957 -1.79121 L -18.955 -1.79745 L -18.9142 -1.8037 L -18.8734 -1.80994 L -18.8326 -1.81618 L -18.7918 -1.82242 L -18.751 -1.82866 L -18.7102 -1.83491 L -18.6694 -1.84115 L -18.6286 -1.84739 L -18.5878 -1.85363 L -18.547 -1.85986 L -18.5062 -1.8661 L -18.4653 -1.87234 L -18.4245 -1.87858 L -18.3836 -1.88481 L -18.3428 -1.89105 L -18.3019 -1.89729 L -18.2519 -1.98943 L -18.2014 -2.08151 L -18.1503 -2.17354 L -18.0988 -2.26551 L -18.0467 -2.35741 L -17.9941 -2.44924 L -17.941 -2.541 L -17.8873 -2.63269 L -17.8331 -2.72429 L -17.7784 -2.81582 L -17.7784 -2.81582 L -17.8021 -2.91978 L -17.8254 -3.02365 L -17.8481 -3.12742 L -17.8702 -3.23111 L -17.8919 -3.3347 L -17.913 -3.4382 L -17.9336 -3.5416 L -17.9538 -3.64489 L -17.9734 -3.74809 L -17.9925 -3.85118 L -18.0294 -3.86973 L -18.0663 -3.88829 L -18.1032 -3.90684 L -18.1401 -3.9254 L -18.1771 -3.94395 L -18.214 -3.9625 L -18.2509 -3.98104 L -18.2877 -3.99959 L -18.3246 -4.01814 L -18.3615 -4.03668 L -18.3984 -4.05523 L -18.4353 -4.07377 L -18.4721 -4.09231 L -18.509 -4.11085 L -18.5458 -4.12939 L -18.5827 -4.14793 L -18.6195 -4.16647 L -18.6564 -4.185 L -18.6932 -4.20354 L -18.73 -4.22207 L -18.7669 -4.2406 L -18.8037 -4.25913 L -18.8405 -4.27766 L -18.8773 -4.29619 L -18.9141 -4.31472 L -18.9509 -4.33324 L -18.9877 -4.35177 L -19.0245 -4.37029 L -19.0613 -4.38882 L -19.098 -4.40734 L -19.1348 -4.42586 L -19.1716 -4.44438 L -19.2084 -4.4629 L -19.2451 -4.48142 L -19.2819 -4.49993 L -19.3186 -4.51845 L -19.3554 -4.53696 L -19.3921 -4.55548 L -19.4288 -4.57399 L -19.4656 -4.5925 L -19.4564 -4.63142 L -19.4471 -4.67033 L -19.4377 -4.70921 L -19.4282 -4.74808 L -19.4187 -4.78692 L -19.4091 -4.82575 L -19.3994 -4.86456 L -19.3896 -4.90335 L -19.3798 -4.94212 L -19.3698 -4.98087 L -19.3598 -5.0196 L -19.3498 -5.05831 L -19.3396 -5.097 L -19.3294 -5.13567 L -19.3191 -5.17432 L -19.3087 -5.21294 L -19.2982 -5.25155 L -19.2877 -5.29014 L -19.2771 -5.3287 L -19.2664 -5.36724 L -19.2556 -5.40577 L -19.2447 -5.44427 L -19.2338 -5.48274 L -19.2228 -5.5212 L -19.2117 -5.55964 L -19.2006 -5.59805 L -19.1893 -5.63644 L -19.178 -5.67481 L -19.1666 -5.71315 L -19.1552 -5.75147 L -19.1436 -5.78977 L -19.132 -5.82805 L -19.1203 -5.8663 L -19.1085 -5.90453 L -19.0967 -5.94273 L -19.0848 -5.98091 L -19.0728 -6.01907 L -19.0607 -6.05721 L -19.0485 -6.09531 L -19.0363 -6.1334 L -19.0058 -6.22724 L -18.9933 -6.26524 L -18.9808 -6.30322 L -18.9681 -6.34116 L -18.9554 -6.37909 L -18.9426 -6.41699 L -18.9297 -6.45486 L -18.9168 -6.49271 L -18.9038 -6.53053 L -18.8907 -6.56832 L -18.8775 -6.60609 L -18.8642 -6.64383 L -18.8509 -6.68155 L -18.8375 -6.71923 L -18.824 -6.7569 L -18.8105 -6.79453 L -18.7969 -6.83214 L -18.7832 -6.86972 L -18.7694 -6.90727 L -18.7555 -6.94479 L -18.7416 -6.98229 L -18.7276 -7.01976 L -18.7135 -7.0572 L -18.6994 -7.09461 L -18.6851 -7.132 L -18.6708 -7.16936 L -18.6565 -7.20668 L -18.642 -7.24398 L -18.6275 -7.28125 L -18.6129 -7.31849 L -18.5982 -7.3557 L -18.5835 -7.39288 L -18.5686 -7.43004 L -18.5537 -7.46716 L -18.5388 -7.50425 L -18.5237 -7.54131 L -18.5086 -7.57835 L -18.4934 -7.61535 L -18.4781 -7.65232 L -18.4628 -7.68926 L -18.4474 -7.72617 L -18.4068 -7.71956 L -18.3662 -7.71294 L -18.3256 -7.70632 L -18.285 -7.6997 L -18.2444 -7.69308 L -18.2037 -7.68645 L -18.1631 -7.67983 L -18.1225 -7.6732 L -18.0819 -7.66657 L -18.0412 -7.65994 L -18.0006 -7.6533 L -17.9599 -7.64667 L -17.9193 -7.64003 L -17.8786 -7.63339 L -17.838 -7.62675 L -17.7973 -7.62011 L -17.7566 -7.61346 L -17.7159 -7.60681 L -17.6753 -7.60016 L -17.6346 -7.59351 L -17.5939 -7.58686 L -17.5532 -7.5802 L -17.5125 -7.57355 L -17.4718 -7.56689 L -17.4311 -7.56022 L -17.3904 -7.55356 L -17.3497 -7.54689 L -17.3089 -7.54022 L -17.2682 -7.53355 L -17.2275 -7.52688 L -17.1867 -7.52021 L -17.146 -7.51353 L -17.1053 -7.50685 L -17.0645 -7.50017 L -17.0237 -7.49348 L -16.983 -7.4868 L -16.9422 -7.48011 L -16.9014 -7.47342 L -16.8607 -7.46673 L -16.8199 -7.46003 L -16.7438 -7.5322 L -16.6673 -7.60417 L -16.5903 -7.67592 L -16.5129 -7.74745 L -16.4349 -7.81876 L -16.3565 -7.88984 L -16.2776 -7.96069 L -16.1983 -8.03131 L -16.1184 -8.10169 L -16.0381 -8.17183 L -16.0381 -8.17183 L -16.0286 -8.27804 L -16.0186 -8.384 L -16.0081 -8.48971 L -15.9971 -8.59518 L -15.9857 -8.70039 L -15.9738 -8.80535 L -15.9615 -8.91006 L -15.9487 -9.01451 L -15.9355 -9.11872 L -15.9218 -9.22266 L -15.9512 -9.25172 L -15.9805 -9.28078 L -16.0099 -9.30983 L -16.0393 -9.33889 L -16.0687 -9.36793 L -16.098 -9.39698 L -16.1274 -9.42602 L -16.1567 -9.45506 L -16.1861 -9.4841 L -16.2154 -9.51313 L -16.2448 -9.54217 L -16.2741 -9.57119 L -16.3034 -9.60022 L -16.3328 -9.62924 L -16.3621 -9.65826 L -16.3914 -9.68728 L -16.4207 -9.7163 L -16.45 -9.74531 L -16.4793 -9.77432 L -16.5086 -9.80332 L -16.5379 -9.83233 L -16.5672 -9.86133 L -16.5965 -9.89033 L -16.6258 -9.91933 L -16.6551 -9.94832 L -16.6843 -9.97731 L -16.7136 -10.0063 L -16.7429 -10.0353 L -16.7721 -10.0643 L -16.8014 -10.0933 L -16.8306 -10.1222 L -16.8599 -10.1512 L -16.8891 -10.1802 L -16.9184 -10.2091 L -16.9476 -10.2381 L -16.9768 -10.2671 L -17.0061 -10.296 L -17.0353 -10.325 L -17.0645 -10.354 L -17.0937 -10.3829 L -17.0729 -10.4171 L -17.052 -10.4512 L -17.0311 -10.4853 L -17.0101 -10.5193 L -16.989 -10.5533 L -16.9679 -10.5873 L -16.9467 -10.6212 L -16.9254 -10.6551 L -16.9041 -10.6889 L -16.8826 -10.7227 L -16.8612 -10.7564 L -16.8396 -10.7901 L -16.818 -10.8238 L -16.7963 -10.8574 L -16.7746 -10.891 L -16.7528 -10.9245 L -16.7309 -10.958 L -16.7089 -10.9914 L -16.6869 -11.0248 L -16.6648 -11.0582 L -16.6427 -11.0915 L -16.6205 -11.1248 L -16.5982 -11.158 L -16.5758 -11.1911 L -16.5534 -11.2243 L -16.5309 -11.2574 L -16.5084 -11.2904 L -16.4858 -11.3234 L -16.4631 -11.3563 L -16.4403 -11.3892 L -16.4175 -11.4221 L -16.3947 -11.4549 L -16.3717 -11.4877 L -16.3487 -11.5204 L -16.3256 -11.5531 L -16.3025 -11.5857 L -16.2793 -11.6183 L -16.256 -11.6508 L -16.2327 -11.6833 L -16.2093 -11.7158 L -16.1513 -11.7956 L -16.1277 -11.8279 L -16.104 -11.8601 L -16.0802 -11.8923 L -16.0564 -11.9244 L -16.0325 -11.9565 L -16.0086 -11.9885 L -15.9846 -12.0205 L -15.9605 -12.0525 L -15.9364 -12.0844 L -15.9122 -12.1162 L -15.8879 -12.148 L -15.8636 -12.1798 L -15.8392 -12.2115 L -15.8147 -12.2431 L -15.7902 -12.2747 L -15.7656 -12.3063 L -15.741 -12.3378 L -15.7163 -12.3693 L -15.6915 -12.4007 L -15.6667 -12.432 L -15.6418 -12.4633 L -15.6168 -12.4946 L -15.5918 -12.5258 L -15.5667 -12.557 L -15.5416 -12.5881 L -15.5164 -12.6191 L -15.4911 -12.6501 L -15.4658 -12.6811 L -15.4404 -12.712 L -15.4149 -12.7429 L -15.3894 -12.7737 L -15.3638 -12.8044 L -15.3382 -12.8351 L -15.3125 -12.8658 L -15.2867 -12.8964 L -15.2609 -12.9269 L -15.235 -12.9574 L -15.2091 -12.9879 L -15.1831 -13.0182 L -15.157 -13.0486 L -15.1204 -13.0297 L -15.0839 -13.0109 L -15.0473 -12.9921 L -15.0107 -12.9732 L -14.9741 -12.9544 L -14.9375 -12.9355 L -14.9009 -12.9167 L -14.8644 -12.8978 L -14.8278 -12.8789 L -14.7912 -12.8601 L -14.7546 -12.8412 L -14.718 -12.8223 L -14.6813 -12.8035 L -14.6447 -12.7846 L -14.6081 -12.7657 L -14.5715 -12.7468 L -14.5349 -12.7279 L -14.4982 -12.709 L -14.4616 -12.6901 L -14.425 -12.6712 L -14.3883 -12.6523 L -14.3517 -12.6334 L -14.315 -12.6145 L -14.2784 -12.5956 L -14.2417 -12.5767 L -14.2051 -12.5578 L -14.1684 -12.5389 L -14.1317 -12.5199 L -14.095 -12.501 L -14.0584 -12.4821 L -14.0217 -12.4631 L -13.985 -12.4442 L -13.9483 -12.4253 L -13.9116 -12.4063 L -13.8749 -12.3874 L -13.8382 -12.3684 L -13.8015 -12.3494 L -13.7648 -12.3305 L -13.7281 -12.3115 L -13.6914 -12.2925 L -13.5967 -12.3377 L -13.5017 -12.3825 L -13.4063 -12.4269 L -13.3106 -12.471 L -13.2144 -12.5148 L -13.1179 -12.5581 L -13.021 -12.6011 L -12.9237 -12.6438 L -12.826 -12.686 L -12.7279 -12.7279 L -12.7279 -12.7279 L -12.686 -12.826 L -12.6438 -12.9237 L -12.6011 -13.021 L -12.5581 -13.1179 L -12.5148 -13.2144 L -12.471 -13.3106 L -12.4269 -13.4063 L -12.3825 -13.5017 L -12.3377 -13.5967 L -12.2925 -13.6914 L -12.3115 -13.7281 L -12.3305 -13.7648 L -12.3494 -13.8015 L -12.3684 -13.8382 L -12.3874 -13.8749 L -12.4063 -13.9116 L -12.4253 -13.9483 L -12.4442 -13.985 L -12.4631 -14.0217 L -12.4821 -14.0584 L -12.501 -14.095 L -12.5199 -14.1317 L -12.5389 -14.1684 L -12.5578 -14.2051 L -12.5767 -14.2417 L -12.5956 -14.2784 L -12.6145 -14.315 L -12.6334 -14.3517 L -12.6523 -14.3883 L -12.6712 -14.425 L -12.6901 -14.4616 L -12.709 -14.4982 L -12.7279 -14.5349 L -12.7468 -14.5715 L -12.7657 -14.6081 L -12.7846 -14.6447 L -12.8035 -14.6813 L -12.8223 -14.718 L -12.8412 -14.7546 L -12.8601 -14.7912 L -12.8789 -14.8278 L -12.8978 -14.8644 L -12.9167 -14.9009 L -12.9355 -14.9375 L -12.9544 -14.9741 L -12.9732 -15.0107 L -12.9921 -15.0473 L -13.0109 -15.0839 L -13.0297 -15.1204 L -13.0486 -15.157 L -13.0182 -15.1831 L -12.9879 -15.2091 L -12.9574 -15.235 L -12.9269 -15.2609 L -12.8964 -15.2867 L -12.8658 -15.3125 L -12.8351 -15.3382 L -12.8044 -15.3638 L -12.7737 -15.3894 L -12.7429 -15.4149 L -12.712 -15.4404 L -12.6811 -15.4658 L -12.6501 -15.4911 L -12.6191 -15.5164 L -12.5881 -15.5416 L -12.557 -15.5667 L -12.5258 -15.5918 L -12.4946 -15.6168 L -12.4633 -15.6418 L -12.432 -15.6667 L -12.4007 -15.6915 L -12.3693 -15.7163 L -12.3378 -15.741 L -12.3063 -15.7656 L -12.2747 -15.7902 L -12.2431 -15.8147 L -12.2115 -15.8392 L -12.1798 -15.8636 L -12.148 -15.8879 L -12.1162 -15.9122 L -12.0844 -15.9364 L -12.0525 -15.9605 L -12.0205 -15.9846 L -11.9885 -16.0086 L -11.9565 -16.0325 L -11.9244 -16.0564 L -11.8923 -16.0802 L -11.8601 -16.104 L -11.8279 -16.1277 L -11.7956 -16.1513 L -11.7158 -16.2093 L -11.6833 -16.2327 L -11.6508 -16.256 L -11.6183 -16.2793 L -11.5857 -16.3025 L -11.5531 -16.3256 L -11.5204 -16.3487 L -11.4877 -16.3717 L -11.4549 -16.3947 L -11.4221 -16.4175 L -11.3892 -16.4403 L -11.3563 -16.4631 L -11.3234 -16.4858 L -11.2904 -16.5084 L -11.2574 -16.5309 L -11.2243 -16.5534 L -11.1911 -16.5758 L -11.158 -16.5982 L -11.1248 -16.6205 L -11.0915 -16.6427 L -11.0582 -16.6648 L -11.0248 -16.6869 L -10.9914 -16.7089 L -10.958 -16.7309 L -10.9245 -16.7528 L -10.891 -16.7746 L -10.8574 -16.7963 L -10.8238 -16.818 L -10.7901 -16.8396 L -10.7564 -16.8612 L -10.7227 -16.8826 L -10.6889 -16.9041 L -10.6551 -16.9254 L -10.6212 -16.9467 L -10.5873 -16.9679 L -10.5533 -16.989 L -10.5193 -17.0101 L -10.4853 -17.0311 L -10.4512 -17.052 L -10.4171 -17.0729 L -10.3829 -17.0937 L -10.354 -17.0645 L -10.325 -17.0353 L -10.296 -17.0061 L -10.2671 -16.9768 L -10.2381 -16.9476 L -10.2091 -16.9184 L -10.1802 -16.8891 L -10.1512 -16.8599 L -10.1222 -16.8306 L -10.0933 -16.8014 L -10.0643 -16.7721 L -10.0353 -16.7429 L -10.0063 -16.7136 L -9.97731 -16.6843 L -9.94832 -16.6551 L -9.91933 -16.6258 L -9.89033 -16.5965 L -9.86133 -16.5672 L -9.83233 -16.5379 L -9.80332 -16.5086 L -9.77432 -16.4793 L -9.74531 -16.45 L -9.7163 -16.4207 L -9.68728 -16.3914 L -9.65826 -16.3621 L -9.62924 -16.3328 L -9.60022 -16.3034 L -9.57119 -16.2741 L -9.54217 -16.2448 L -9.51313 -16.2154 L -9.4841 -16.1861 L -9.45506 -16.1567 L -9.42602 -16.1274 L -9.39698 -16.098 L -9.36793 -16.0687 L -9.33889 -16.0393 L -9.30983 -16.0099 L -9.28078 -15.9805 L -9.25172 -15.9512 L -9.22266 -15.9218 L -9.11872 -15.9355 L -9.01451 -15.9487 L -8.91006 -15.9615 L -8.80535 -15.9738 L -8.70039 -15.9857 L -8.59518 -15.9971 L -8.48971 -16.0081 L -8.384 -16.0186 L -8.27804 -16.0286 L -8.17183 -16.0381 L -8.17183 -16.0381 L -8.10169 -16.1184 L -8.03131 -16.1983 L -7.96069 -16.2776 L -7.88984 -16.3565 L -7.81876 -16.4349 L -7.74745 -16.5129 L -7.67592 -16.5903 L -7.60417 -16.6673 L -7.5322 -16.7438 L -7.46003 -16.8199 L -7.46673 -16.8607 L -7.47342 -16.9014 L -7.48011 -16.9422 L -7.4868 -16.983 L -7.49348 -17.0237 L -7.50017 -17.0645 L -7.50685 -17.1053 L -7.51353 -17.146 L -7.52021 -17.1867 L -7.52688 -17.2275 L -7.53355 -17.2682 L -7.54022 -17.3089 L -7.54689 -17.3497 L -7.55356 -17.3904 L -7.56022 -17.4311 L -7.56689 -17.4718 L -7.57355 -17.5125 L -7.5802 -17.5532 L -7.58686 -17.5939 L -7.59351 -17.6346 L -7.60016 -17.6753 L -7.60681 -17.7159 L -7.61346 -17.7566 L -7.62011 -17.7973 L -7.62675 -17.838 L -7.63339 -17.8786 L -7.64003 -17.9193 L -7.64667 -17.9599 L -7.6533 -18.0006 L -7.65994 -18.0412 L -7.66657 -18.0819 L -7.6732 -18.1225 L -7.67983 -18.1631 L -7.68645 -18.2037 L -7.69308 -18.2444 L -7.6997 -18.285 L -7.70632 -18.3256 L -7.71294 -18.3662 L -7.71956 -18.4068 L -7.72617 -18.4474 L -7.68926 -18.4628 L -7.65232 -18.4781 L -7.61535 -18.4934 L -7.57835 -18.5086 L -7.54131 -18.5237 L -7.50425 -18.5388 L -7.46716 -18.5537 L -7.43004 -18.5686 L -7.39288 -18.5835 L -7.3557 -18.5982 L -7.31849 -18.6129 L -7.28125 -18.6275 L -7.24398 -18.642 L -7.20668 -18.6565 L -7.16936 -18.6708 L -7.132 -18.6851 L -7.09461 -18.6994 L -7.0572 -18.7135 L -7.01976 -18.7276 L -6.98229 -18.7416 L -6.94479 -18.7555 L -6.90727 -18.7694 L -6.86972 -18.7832 L -6.83214 -18.7969 L -6.79453 -18.8105 L -6.7569 -18.824 L -6.71923 -18.8375 L -6.68155 -18.8509 L -6.64383 -18.8642 L -6.60609 -18.8775 L -6.56832 -18.8907 L -6.53053 -18.9038 L -6.49271 -18.9168 L -6.45486 -18.9297 L -6.41699 -18.9426 L -6.37909 -18.9554 L -6.34116 -18.9681 L -6.30322 -18.9808 L -6.26524 -18.9933 L -6.22724 -19.0058 L -6.1334 -19.0363 L -6.09531 -19.0485 L -6.05721 -19.0607 L -6.01907 -19.0728 L -5.98091 -19.0848 L -5.94273 -19.0967 L -5.90453 -19.1085 L -5.8663 -19.1203 L -5.82805 -19.132 L -5.78977 -19.1436 L -5.75147 -19.1552 L -5.71315 -19.1666 L -5.67481 -19.178 L -5.63644 -19.1893 L -5.59805 -19.2006 L -5.55964 -19.2117 L -5.5212 -19.2228 L -5.48274 -19.2338 L -5.44427 -19.2447 L -5.40577 -19.2556 L -5.36724 -19.2664 L -5.3287 -19.2771 L -5.29014 -19.2877 L -5.25155 -19.2982 L -5.21294 -19.3087 L -5.17432 -19.3191 L -5.13567 -19.3294 L -5.097 -19.3396 L -5.05831 -19.3498 L -5.0196 -19.3598 L -4.98087 -19.3698 L -4.94212 -19.3798 L -4.90335 -19.3896 L -4.86456 -19.3994 L -4.82575 -19.4091 L -4.78692 -19.4187 L -4.74808 -19.4282 L -4.70921 -19.4377 L -4.67033 -19.4471 L -4.63142 -19.4564 L -4.5925 -19.4656 L -4.57399 -19.4288 L -4.55548 -19.3921 L -4.53696 -19.3554 L -4.51845 -19.3186 L -4.49993 -19.2819 L -4.48142 -19.2451 L -4.4629 -19.2084 L -4.44438 -19.1716 L -4.42586 -19.1348 L -4.40734 -19.098 L -4.38882 -19.0613 L -4.37029 -19.0245 L -4.35177 -18.9877 L -4.33324 -18.9509 L -4.31472 -18.9141 L -4.29619 -18.8773 L -4.27766 -18.8405 L -4.25913 -18.8037 L -4.2406 -18.7669 L -4.22207 -18.73 L -4.20354 -18.6932 L -4.185 -18.6564 L -4.16647 -18.6195 L -4.14793 -18.5827 L -4.12939 -18.5458 L -4.11085 -18.509 L -4.09231 -18.4721 L -4.07377 -18.4353 L -4.05523 -18.3984 L -4.03668 -18.3615 L -4.01814 -18.3246 L -3.99959 -18.2877 L -3.98104 -18.2509 L -3.9625 -18.214 L -3.94395 -18.1771 L -3.9254 -18.1401 L -3.90684 -18.1032 L -3.88829 -18.0663 L -3.86973 -18.0294 L -3.85118 -17.9925 L -3.74809 -17.9734 L -3.64489 -17.9538 L -3.5416 -17.9336 L -3.4382 -17.913 L -3.3347 -17.8919 L -3.23111 -17.8702 L -3.12742 -17.8481 L -3.02365 -17.8254 L -2.91978 -17.8021 L -2.81582 -17.7784 L -2.81582 -17.7784 L -2.72429 -17.8331 L -2.63269 -17.8873 L -2.541 -17.941 L -2.44924 -17.9941 L -2.35741 -18.0467 L -2.26551 -18.0988 L -2.17354 -18.1503 L -2.08151 -18.2014 L -1.98943 -18.2519 L -1.89729 -18.3019 L -1.89105 -18.3428 L -1.88481 -18.3836 L -1.87858 -18.4245 L -1.87234 -18.4653 L -1.8661 -18.5062 L -1.85986 -18.547 L -1.85363 -18.5878 L -1.84739 -18.6286 L -1.84115 -18.6694 L -1.83491 -18.7102 L -1.82866 -18.751 L -1.82242 -18.7918 L -1.81618 -18.8326 L -1.80994 -18.8734 L -1.8037 -18.9142 L -1.79745 -18.955 L -1.79121 -18.9957 L -1.78496 -19.0365 L -1.77872 -19.0773 L -1.77247 -19.118 L -1.76623 -19.1588 L -1.75998 -19.1995 L -1.75373 -19.2402 L -1.74749 -19.281 L -1.74124 -19.3217 L -1.73499 -19.3624 L -1.72874 -19.4031 L -1.72249 -19.4439 L -1.71624 -19.4846 L -1.70999 -19.5253 L -1.70374 -19.566 L -1.69749 -19.6067 L -1.69124 -19.6473 L -1.68499 -19.688 L -1.67873 -19.7287 L -1.67248 -19.7694 L -1.66623 -19.8101 L -1.65998 -19.8507 L -1.65372 -19.8914 L -1.64747 -19.932 L -1.6076 -19.9353 L -1.56773 -19.9385 L -1.52785 -19.9416 L -1.48796 -19.9446 L -1.44807 -19.9475 L -1.40817 -19.9504 L -1.36827 -19.9531 L -1.32836 -19.9558 L -1.28844 -19.9585 L -1.24852 -19.961 L -1.2086 -19.9634 L -1.16867 -19.9658 L -1.12874 -19.9681 L -1.0888 -19.9703 L -1.04885 -19.9725 L -1.00891 -19.9745 L -0.968957 -19.9765 L -0.929002 -19.9784 L -0.889043 -19.9802 L -0.849081 -19.982 L -0.809115 -19.9836 L -0.769146 -19.9852 L -0.729175 -19.9867 L -0.6892 -19.9881 L -0.649222 -19.9895 L -0.609242 -19.9907 L -0.569259 -19.9919 L -0.529274 -19.993 L -0.489287 -19.994 L -0.449298 -19.995 L -0.409308 -19.9958 L -0.369315 -19.9966 L -0.329321 -19.9973 L -0.289326 -19.9979 L -0.24933 -19.9984 L -0.209332 -19.9989 L -0.169334 -19.9993 L -0.129335 -19.9996 L -0.0893358 -19.9998 L -0.0493361 -19.9999 L 0.0493361 -19.9999 L 0.0893358 -19.9998 L 0.129335 -19.9996 L 0.169334 -19.9993 L 0.209332 -19.9989 L 0.24933 -19.9984 L 0.289326 -19.9979 L 0.329321 -19.9973 L 0.369315 -19.9966 L 0.409308 -19.9958 L 0.449298 -19.995 L 0.489287 -19.994 L 0.529274 -19.993 L 0.569259 -19.9919 L 0.609242 -19.9907 L 0.649222 -19.9895 L 0.6892 -19.9881 L 0.729175 -19.9867 L 0.769146 -19.9852 L 0.809115 -19.9836 L 0.849081 -19.982 L 0.889043 -19.9802 L 0.929002 -19.9784 L 0.968957 -19.9765 L 1.00891 -19.9745 L 1.04885 -19.9725 L 1.0888 -19.9703 L 1.12874 -19.9681 L 1.16867 -19.9658 L 1.2086 -19.9634 L 1.24852 -19.961 L 1.28844 -19.9585 L 1.32836 -19.9558 L 1.36827 -19.9531 L 1.40817 -19.9504 L 1.44807 -19.9475 L 1.48796 -19.9446 L 1.52785 -19.9416 L 1.56773 -19.9385 L 1.6076 -19.9353 L 1.64747 -19.932 L 1.65372 -19.8914 L 1.65998 -19.8507 L 1.66623 -19.8101 L 1.67248 -19.7694 L 1.67873 -19.7287 L 1.68499 -19.688 L 1.69124 -19.6473 L 1.69749 -19.6067 L 1.70374 -19.566 L 1.70999 -19.5253 L 1.71624 -19.4846 L 1.72249 -19.4439 L 1.72874 -19.4031 L 1.73499 -19.3624 L 1.74124 -19.3217 L 1.74749 -19.281 L 1.75373 -19.2402 L 1.75998 -19.1995 L 1.76623 -19.1588 L 1.77247 -19.118 L 1.77872 -19.0773 L 1.78496 -19.0365 L 1.79121 -18.9957 L 1.79745 -18.955 L 1.8037 -18.9142 L 1.80994 -18.8734 L 1.81618 -18.8326 L 1.82242 -18.7918 L 1.82866 -18.751 L 1.83491 -18.7102 L 1.84115 -18.6694 L 1.84739 -18.6286 L 1.85363 -18.5878 L 1.85986 -18.547 L 1.8661 -18.5062 L 1.87234 -18.4653 L 1.87858 -18.4245 L 1.88481 -18.3836 L 1.89105 -18.3428 L 1.89729 -18.3019 L 1.98943 -18.2519 L 2.08151 -18.2014 L 2.17354 -18.1503 L 2.26551 -18.0988 L 2.35741 -18.0467 L 2.44924 -17.9941 L 2.541 -17.941 L 2.63269 -17.8873 L 2.72429 -17.8331 L 2.81582 -17.7784 L 2.81582 -17.7784 L 2.91978 -17.8021 L 3.02365 -17.8254 L 3.12742 -17.8481 L 3.23111 -17.8702 L 3.3347 -17.8919 L 3.4382 -17.913 L 3.5416 -17.9336 L 3.64489 -17.9538 L 3.74809 -17.9734 L 3.85118 -17.9925 L 3.86973 -18.0294 L 3.88829 -18.0663 L 3.90684 -18.1032 L 3.9254 -18.1401 L 3.94395 -18.1771 L 3.9625 -18.214 L 3.98104 -18.2509 L 3.99959 -18.2877 L 4.01814 -18.3246 L 4.03668 -18.3615 L 4.05523 -18.3984 L 4.07377 -18.4353 L 4.09231 -18.4721 L 4.11085 -18.509 L 4.12939 -18.5458 L 4.14793 -18.5827 L 4.16647 -18.6195 L 4.185 -18.6564 L 4.20354 -18.6932 L 4.22207 -18.73 L 4.2406 -18.7669 L 4.25913 -18.8037 L 4.27766 -18.8405 L 4.29619 -18.8773 L 4.31472 -18.9141 L 4.33324 -18.9509 L 4.35177 -18.9877 L 4.37029 -19.0245 L 4.38882 -19.0613 L 4.40734 -19.098 L 4.42586 -19.1348 L 4.44438 -19.1716 L 4.4629 -19.2084 L 4.48142 -19.2451 L 4.49993 -19.2819 L 4.51845 -19.3186 L 4.53696 -19.3554 L 4.55548 -19.3921 L 4.57399 -19.4288 L 4.5925 -19.4656 L 4.63142 -19.4564 L 4.67033 -19.4471 L 4.70921 -19.4377 L 4.74808 -19.4282 L 4.78692 -19.4187 L 4.82575 -19.4091 L 4.86456 -19.3994 L 4.90335 -19.3896 L 4.94212 -19.3798 L 4.98087 -19.3698 L 5.0196 -19.3598 L 5.05831 -19.3498 L 5.097 -19.3396 L 5.13567 -19.3294 L 5.17432 -19.3191 L 5.21294 -19.3087 L 5.25155 -19.2982 L 5.29014 -19.2877 L 5.3287 -19.2771 L 5.36724 -19.2664 L 5.40577 -19.2556 L 5.44427 -19.2447 L 5.48274 -19.2338 L 5.5212 -19.2228 L 5.55964 -19.2117 L 5.59805 -19.2006 L 5.63644 -19.1893 L 5.67481 -19.178 L 5.71315 -19.1666 L 5.75147 -19.1552 L 5.78977 -19.1436 L 5.82805 -19.132 L 5.8663 -19.1203 L 5.90453 -19.1085 L 5.94273 -19.0967 L 5.98091 -19.0848 L 6.01907 -19.0728 L 6.05721 -19.0607 L 6.09531 -19.0485 L 6.1334 -19.0363 L 6.22724 -19.0058 L 6.26524 -18.9933 L 6.30322 -18.9808 L 6.34116 -18.9681 L 6.37909 -18.9554 L 6.41699 -18.9426 L 6.45486 -18.9297 L 6.49271 -18.9168 L 6.53053 -18.9038 L 6.56832 -18.8907 L 6.60609 -18.8775 L 6.64383 -18.8642 L 6.68155 -18.8509 L 6.71923 -18.8375 L 6.7569 -18.824 L 6.79453 -18.8105 L 6.83214 -18.7969 L 6.86972 -18.7832 L 6.90727 -18.7694 L 6.94479 -18.7555 L 6.98229 -18.7416 L 7.01976 -18.7276 L 7.0572 -18.7135 L 7.09461 -18.6994 L 7.132 -18.6851 L 7.16936 -18.6708 L 7.20668 -18.6565 L 7.24398 -18.642 L 7.28125 -18.6275 L 7.31849 -18.6129 L 7.3557 -18.5982 L 7.39288 -18.5835 L 7.43004 -18.5686 L 7.46716 -18.5537 L 7.50425 -18.5388 L 7.54131 -18.5237 L 7.57835 -18.5086 L 7.61535 -18.4934 L 7.65232 -18.4781 L 7.68926 -18.4628 L 7.72617 -18.4474 L 7.71956 -18.4068 L 7.71294 -18.3662 L 7.70632 -18.3256 L 7.6997 -18.285 L 7.69308 -18.2444 L 7.68645 -18.2037 L 7.67983 -18.1631 L 7.6732 -18.1225 L 7.66657 -18.0819 L 7.65994 -18.0412 L 7.6533 -18.0006 L 7.64667 -17.9599 L 7.64003 -17.9193 L 7.63339 -17.8786 L 7.62675 -17.838 L 7.62011 -17.7973 L 7.61346 -17.7566 L 7.60681 -17.7159 L 7.60016 -17.6753 L 7.59351 -17.6346 L 7.58686 -17.5939 L 7.5802 -17.5532 L 7.57355 -17.5125 L 7.56689 -17.4718 L 7.56022 -17.4311 L 7.55356 -17.3904 L 7.54689 -17.3497 L 7.54022 -17.3089 L 7.53355 -17.2682 L 7.52688 -17.2275 L 7.52021 -17.1867 L 7.51353 -17.146 L 7.50685 -17.1053 L 7.50017 -17.0645 L 7.49348 -17.0237 L 7.4868 -16.983 L 7.48011 -16.9422 L 7.47342 -16.9014 L 7.46673 -16.8607 L 7.46003 -16.8199 L 7.5322 -16.7438 L 7.60417 -16.6673 L 7.67592 -16.5903 L 7.74745 -16.5129 L 7.81876 -16.4349 L 7.88984 -16.3565 L 7.96069 -16.2776 L 8.03131 -16.1983 L 8.10169 -16.1184 L 8.17183 -16.0381 L 8.17183 -16.0381 L 8.27804 -16.0286 L 8.384 -16.0186 L 8.48971 -16.0081 L 8.59518 -15.9971 L 8.70039 -15.9857 L 8.80535 -15.9738 L 8.91006 -15.9615 L 9.01451 -15.9487 L 9.11872 -15.9355 L 9.22266 -15.9218 L 9.25172 -15.9512 L 9.28078 -15.9805 L 9.30983 -16.0099 L 9.33889 -16.0393 L 9.36793 -16.0687 L 9.39698 -16.098 L 9.42602 -16.1274 L 9.45506 -16.1567 L 9.4841 -16.1861 L 9.51313 -16.2154 L 9.54217 -16.2448 L 9.57119 -16.2741 L 9.60022 -16.3034 L 9.62924 -16.3328 L 9.65826 -16.3621 L 9.68728 -16.3914 L 9.7163 -16.4207 L 9.74531 -16.45 L 9.77432 -16.4793 L 9.80332 -16.5086 L 9.83233 -16.5379 L 9.86133 -16.5672 L 9.89033 -16.5965 L 9.91933 -16.6258 L 9.94832 -16.6551 L 9.97731 -16.6843 L 10.0063 -16.7136 L 10.0353 -16.7429 L 10.0643 -16.7721 L 10.0933 -16.8014 L 10.1222 -16.8306 L 10.1512 -16.8599 L 10.1802 -16.8891 L 10.2091 -16.9184 L 10.2381 -16.9476 L 10.2671 -16.9768 L 10.296 -17.0061 L 10.325 -17.0353 L 10.354 -17.0645 L 10.3829 -17.0937 L 10.4171 -17.0729 L 10.4512 -17.052 L 10.4853 -17.0311 L 10.5193 -17.0101 L 10.5533 -16.989 L 10.5873 -16.9679 L 10.6212 -16.9467 L 10.6551 -16.9254 L 10.6889 -16.9041 L 10.7227 -16.8826 L 10.7564 -16.8612 L 10.7901 -16.8396 L 10.8238 -16.818 L 10.8574 -16.7963 L 10.891 -16.7746 L 10.9245 -16.7528 L 10.958 -16.7309 L 10.9914 -16.7089 L 11.0248 -16.6869 L 11.0582 -16.6648 L 11.0915 -16.6427 L 11.1248 -16.6205 L 11.158 -16.5982 L 11.1911 -16.5758 L 11.2243 -16.5534 L 11.2574 -16.5309 L 11.2904 -16.5084 L 11.3234 -16.4858 L 11.3563 -16.4631 L 11.3892 -16.4403 L 11.4221 -16.4175 L 11.4549 -16.3947 L 11.4877 -16.3717 L 11.5204 -16.3487 L 11.5531 -16.3256 L 11.5857 -16.3025 L 11.6183 -16.2793 L 11.6508 -16.256 L 11.6833 -16.2327 L 11.7158 -16.2093 L 11.7956 -16.1513 L 11.8279 -16.1277 L 11.8601 -16.104 L 11.8923 -16.0802 L 11.9244 -16.0564 L 11.9565 -16.0325 L 11.9885 -16.0086 L 12.0205 -15.9846 L 12.0525 -15.9605 L 12.0844 -15.9364 L 12.1162 -15.9122 L 12.148 -15.8879 L 12.1798 -15.8636 L 12.2115 -15.8392 L 12.2431 -15.8147 L 12.2747 -15.7902 L 12.3063 -15.7656 L 12.3378 -15.741 L 12.3693 -15.7163 L 12.4007 -15.6915 L 12.432 -15.6667 L 12.4633 -15.6418 L 12.4946 -15.6168 L 12.5258 -15.5918 L 12.557 -15.5667 L 12.5881 -15.5416 L 12.6191 -15.5164 L 12.6501 -15.4911 L 12.6811 -15.4658 L 12.712 -15.4404 L 12.7429 -15.4149 L 12.7737 -15.3894 L 12.8044 -15.3638 L 12.8351 -15.3382 L 12.8658 -15.3125 L 12.8964 -15.2867 L 12.9269 -15.2609 L 12.9574 -15.235 L 12.9879 -15.2091 L 13.0182 -15.1831 L 13.0486 -15.157 L 13.0297 -15.1204 L 13.0109 -15.0839 L 12.9921 -15.0473 L 12.9732 -15.0107 L 12.9544 -14.9741 L 12.9355 -14.9375 L 12.9167 -14.9009 L 12.8978 -14.8644 L 12.8789 -14.8278 L 12.8601 -14.7912 L 12.8412 -14.7546 L 12.8223 -14.718 L 12.8035 -14.6813 L 12.7846 -14.6447 L 12.7657 -14.6081 L 12.7468 -14.5715 L 12.7279 -14.5349 L 12.709 -14.4982 L 12.6901 -14.4616 L 12.6712 -14.425 L 12.6523 -14.3883 L 12.6334 -14.3517 L 12.6145 -14.315 L 12.5956 -14.2784 L 12.5767 -14.2417 L 12.5578 -14.2051 L 12.5389 -14.1684 L 12.5199 -14.1317 L 12.501 -14.095 L 12.4821 -14.0584 L 12.4631 -14.0217 L 12.4442 -13.985 L 12.4253 -13.9483 L 12.4063 -13.9116 L 12.3874 -13.8749 L 12.3684 -13.8382 L 12.3494 -13.8015 L 12.3305 -13.7648 L 12.3115 -13.7281 L 12.2925 -13.6914 L 12.3377 -13.5967 L 12.3825 -13.5017 L 12.4269 -13.4063 L 12.471 -13.3106 L 12.5148 -13.2144 L 12.5581 -13.1179 L 12.6011 -13.021 L 12.6438 -12.9237 L 12.686 -12.826 L 12.7279 -12.7279 L 12.7279 -12.7279 L 12.826 -12.686 L 12.9237 -12.6438 L 13.021 -12.6011 L 13.1179 -12.5581 L 13.2144 -12.5148 L 13.3106 -12.471 L 13.4063 -12.4269 L 13.5017 -12.3825 L 13.5967 -12.3377 L 13.6914 -12.2925 L 13.7281 -12.3115 L 13.7648 -12.3305 L 13.8015 -12.3494 L 13.8382 -12.3684 L 13.8749 -12.3874 L 13.9116 -12.4063 L 13.9483 -12.4253 L 13.985 -12.4442 L 14.0217 -12.4631 L 14.0584 -12.4821 L 14.095 -12.501 L 14.1317 -12.5199 L 14.1684 -12.5389 L 14.2051 -12.5578 L 14.2417 -12.5767 L 14.2784 -12.5956 L 14.315 -12.6145 L 14.3517 -12.6334 L 14.3883 -12.6523 L 14.425 -12.6712 L 14.4616 -12.6901 L 14.4982 -12.709 L 14.5349 -12.7279 L 14.5715 -12.7468 L 14.6081 -12.7657 L 14.6447 -12.7846 L 14.6813 -12.8035 L 14.718 -12.8223 L 14.7546 -12.8412 L 14.7912 -12.8601 L 14.8278 -12.8789 L 14.8644 -12.8978 L 14.9009 -12.9167 L 14.9375 -12.9355 L 14.9741 -12.9544 L 15.0107 -12.9732 L 15.0473 -12.9921 L 15.0839 -13.0109 L 15.1204 -13.0297 L 15.157 -13.0486 L 15.1831 -13.0182 L 15.2091 -12.9879 L 15.235 -12.9574 L 15.2609 -12.9269 L 15.2867 -12.8964 L 15.3125 -12.8658 L 15.3382 -12.8351 L 15.3638 -12.8044 L 15.3894 -12.7737 L 15.4149 -12.7429 L 15.4404 -12.712 L 15.4658 -12.6811 L 15.4911 -12.6501 L 15.5164 -12.6191 L 15.5416 -12.5881 L 15.5667 -12.557 L 15.5918 -12.5258 L 15.6168 -12.4946 L 15.6418 -12.4633 L 15.6667 -12.432 L 15.6915 -12.4007 L 15.7163 -12.3693 L 15.741 -12.3378 L 15.7656 -12.3063 L 15.7902 -12.2747 L 15.8147 -12.2431 L 15.8392 -12.2115 L 15.8636 -12.1798 L 15.8879 -12.148 L 15.9122 -12.1162 L 15.9364 -12.0844 L 15.9605 -12.0525 L 15.9846 -12.0205 L 16.0086 -11.9885 L 16.0325 -11.9565 L 16.0564 -11.9244 L 16.0802 -11.8923 L 16.104 -11.8601 L 16.1277 -11.8279 L 16.1513 -11.7956 L 16.2093 -11.7158 L 16.2327 -11.6833 L 16.256 -11.6508 L 16.2793 -11.6183 L 16.3025 -11.5857 L 16.3256 -11.5531 L 16.3487 -11.5204 L 16.3717 -11.4877 L 16.3947 -11.4549 L 16.4175 -11.4221 L 16.4403 -11.3892 L 16.4631 -11.3563 L 16.4858 -11.3234 L 16.5084 -11.2904 L 16.5309 -11.2574 L 16.5534 -11.2243 L 16.5758 -11.1911 L 16.5982 -11.158 L 16.6205 -11.1248 L 16.6427 -11.0915 L 16.6648 -11.0582 L 16.6869 -11.0248 L 16.7089 -10.9914 L 16.7309 -10.958 L 16.7528 -10.9245 L 16.7746 -10.891 L 16.7963 -10.8574 L 16.818 -10.8238 L 16.8396 -10.7901 L 16.8612 -10.7564 L 16.8826 -10.7227 L 16.9041 -10.6889 L 16.9254 -10.6551 L 16.9467 -10.6212 L 16.9679 -10.5873 L 16.989 -10.5533 L 17.0101 -10.5193 L 17.0311 -10.4853 L 17.052 -10.4512 L 17.0729 -10.4171 L 17.0937 -10.3829 L 17.0645 -10.354 L 17.0353 -10.325 L 17.0061 -10.296 L 16.9768 -10.2671 L 16.9476 -10.2381 L 16.9184 -10.2091 L 16.8891 -10.1802 L 16.8599 -10.1512 L 16.8306 -10.1222 L 16.8014 -10.0933 L 16.7721 -10.0643 L 16.7429 -10.0353 L 16.7136 -10.0063 L 16.6843 -9.97731 L 16.6551 -9.94832 L 16.6258 -9.91933 L 16.5965 -9.89033 L 16.5672 -9.86133 L 16.5379 -9.83233 L 16.5086 -9.80332 L 16.4793 -9.77432 L 16.45 -9.74531 L 16.4207 -9.7163 L 16.3914 -9.68728 L 16.3621 -9.65826 L 16.3328 -9.62924 L 16.3034 -9.60022 L 16.2741 -9.57119 L 16.2448 -9.54217 L 16.2154 -9.51313 L 16.1861 -9.4841 L 16.1567 -9.45506 L 16.1274 -9.42602 L 16.098 -9.39698 L 16.0687 -9.36793 L 16.0393 -9.33889 L 16.0099 -9.30983 L 15.9805 -9.28078 L 15.9512 -9.25172 L 15.9218 -9.22266 L 15.9355 -9.11872 L 15.9487 -9.01451 L 15.9615 -8.91006 L 15.9738 -8.80535 L 15.9857 -8.70039 L 15.9971 -8.59518 L 16.0081 -8.48971 L 16.0186 -8.384 L 16.0286 -8.27804 L 16.0381 -8.17183 L 16.0381 -8.17183 L 16.1184 -8.10169 L 16.1983 -8.03131 L 16.2776 -7.96069 L 16.3565 -7.88984 L 16.4349 -7.81876 L 16.5129 -7.74745 L 16.5903 -7.67592 L 16.6673 -7.60417 L 16.7438 -7.5322 L 16.8199 -7.46003 L 16.8607 -7.46673 L 16.9014 -7.47342 L 16.9422 -7.48011 L 16.983 -7.4868 L 17.0237 -7.49348 L 17.0645 -7.50017 L 17.1053 -7.50685 L 17.146 -7.51353 L 17.1867 -7.52021 L 17.2275 -7.52688 L 17.2682 -7.53355 L 17.3089 -7.54022 L 17.3497 -7.54689 L 17.3904 -7.55356 L 17.4311 -7.56022 L 17.4718 -7.56689 L 17.5125 -7.57355 L 17.5532 -7.5802 L 17.5939 -7.58686 L 17.6346 -7.59351 L 17.6753 -7.60016 L 17.7159 -7.60681 L 17.7566 -7.61346 L 17.7973 -7.62011 L 17.838 -7.62675 L 17.8786 -7.63339 L 17.9193 -7.64003 L 17.9599 -7.64667 L 18.0006 -7.6533 L 18.0412 -7.65994 L 18.0819 -7.66657 L 18.1225 -7.6732 L 18.1631 -7.67983 L 18.2037 -7.68645 L 18.2444 -7.69308 L 18.285 -7.6997 L 18.3256 -7.70632 L 18.3662 -7.71294 L 18.4068 -7.71956 L 18.4474 -7.72617 L 18.4628 -7.68926 L 18.4781 -7.65232 L 18.4934 -7.61535 L 18.5086 -7.57835 L 18.5237 -7.54131 L 18.5388 -7.50425 L 18.5537 -7.46716 L 18.5686 -7.43004 L 18.5835 -7.39288 L 18.5982 -7.3557 L 18.6129 -7.31849 L 18.6275 -7.28125 L 18.642 -7.24398 L 18.6565 -7.20668 L 18.6708 -7.16936 L 18.6851 -7.132 L 18.6994 -7.09461 L 18.7135 -7.0572 L 18.7276 -7.01976 L 18.7416 -6.98229 L 18.7555 -6.94479 L 18.7694 -6.90727 L 18.7832 -6.86972 L 18.7969 -6.83214 L 18.8105 -6.79453 L 18.824 -6.7569 L 18.8375 -6.71923 L 18.8509 -6.68155 L 18.8642 -6.64383 L 18.8775 -6.60609 L 18.8907 -6.56832 L 18.9038 -6.53053 L 18.9168 -6.49271 L 18.9297 -6.45486 L 18.9426 -6.41699 L 18.9554 -6.37909 L 18.9681 -6.34116 L 18.9808 -6.30322 L 18.9933 -6.26524 L 19.0058 -6.22724 L 19.0363 -6.1334 L 19.0485 -6.09531 L 19.0607 -6.05721 L 19.0728 -6.01907 L 19.0848 -5.98091 L 19.0967 -5.94273 L 19.1085 -5.90453 L 19.1203 -5.8663 L 19.132 -5.82805 L 19.1436 -5.78977 L 19.1552 -5.75147 L 19.1666 -5.71315 L 19.178 -5.67481 L 19.1893 -5.63644 L 19.2006 -5.59805 L 19.2117 -5.55964 L 19.2228 -5.5212 L 19.2338 -5.48274 L 19.2447 -5.44427 L 19.2556 -5.40577 L 19.2664 -5.36724 L 19.2771 -5.3287 L 19.2877 -5.29014 L 19.2982 -5.25155 L 19.3087 -5.21294 L 19.3191 -5.17432 L 19.3294 -5.13567 L 19.3396 -5.097 L 19.3498 -5.05831 L 19.3598 -5.0196 L 19.3698 -4.98087 L 19.3798 -4.94212 L 19.3896 -4.90335 L 19.3994 -4.86456 L 19.4091 -4.82575 L 19.4187 -4.78692 L 19.4282 -4.74808 L 19.4377 -4.70921 L 19.4471 -4.67033 L 19.4564 -4.63142 L 19.4656 -4.5925 L 19.4288 -4.57399 L 19.3921 -4.55548 L 19.3554 -4.53696 L 19.3186 -4.51845 L 19.2819 -4.49993 L 19.2451 -4.48142 L 19.2084 -4.4629 L 19.1716 -4.44438 L 19.1348 -4.42586 L 19.098 -4.40734 L 19.0613 -4.38882 L 19.0245 -4.37029 L 18.9877 -4.35177 L 18.9509 -4.33324 L 18.9141 -4.31472 L 18.8773 -4.29619 L 18.8405 -4.27766 L 18.8037 -4.25913 L 18.7669 -4.2406 L 18.73 -4.22207 L 18.6932 -4.20354 L 18.6564 -4.185 L 18.6195 -4.16647 L 18.5827 -4.14793 L 18.5458 -4.12939 L 18.509 -4.11085 L 18.4721 -4.09231 L 18.4353 -4.07377 L 18.3984 -4.05523 L 18.3615 -4.03668 L 18.3246 -4.01814 L 18.2877 -3.99959 L 18.2509 -3.98104 L 18.214 -3.9625 L 18.1771 -3.94395 L 18.1401 -3.9254 L 18.1032 -3.90684 L 18.0663 -3.88829 L 18.0294 -3.86973 L 17.9925 -3.85118 L 17.9734 -3.74809 L 17.9538 -3.64489 L 17.9336 -3.5416 L 17.913 -3.4382 L 17.8919 -3.3347 L 17.8702 -3.23111 L 17.8481 -3.12742 L 17.8254 -3.02365 L 17.8021 -2.91978 L 17.7784 -2.81582 L 17.7784 -2.81582 L 17.8331 -2.72429 L 17.8873 -2.63269 L 17.941 -2.541 L 17.9941 -2.44924 L 18.0467 -2.35741 L 18.0988 -2.26551 L 18.1503 -2.17354 L 18.2014 -2.08151 L 18.2519 -1.98943 L 18.3019 -1.89729 L 18.3428 -1.89105 L 18.3836 -1.88481 L 18.4245 -1.87858 L 18.4653 -1.87234 L 18.5062 -1.8661 L 18.547 -1.85986 L 18.5878 -1.85363 L 18.6286 -1.84739 L 18.6694 -1.84115 L 18.7102 -1.83491 L 18.751 -1.82866 L 18.7918 -1.82242 L 18.8326 -1.81618 L 18.8734 -1.80994 L 18.9142 -1.8037 L 18.955 -1.79745 L 18.9957 -1.79121 L 19.0365 -1.78496 L 19.0773 -1.77872 L 19.118 -1.77247 L 19.1588 -1.76623 L 19.1995 -1.75998 L 19.2402 -1.75373 L 19.281 -1.74749 L 19.3217 -1.74124 L 19.3624 -1.73499 L 19.4031 -1.72874 L 19.4439 -1.72249 L 19.4846 -1.71624 L 19.5253 -1.70999 L 19.566 -1.70374 L 19.6067 -1.69749 L 19.6473 -1.69124 L 19.688 -1.68499 L 19.7287 -1.67873 L 19.7694 -1.67248 L 19.8101 -1.66623 L 19.8507 -1.65998 L 19.8914 -1.65372 L 19.932 -1.64747 L 19.9353 -1.6076 L 19.9385 -1.56773 L 19.9416 -1.52785 L 19.9446 -1.48796 L 19.9475 -1.44807 L 19.9504 -1.40817 L 19.9531 -1.36827 L 19.9558 -1.32836 L 19.9585 -1.28844 L 19.961 -1.24852 L 19.9634 -1.2086 L 19.9658 -1.16867 L 19.9681 -1.12874 L 19.9703 -1.0888 L 19.9725 -1.04885 L 19.9745 -1.00891 L 19.9765 -0.968957 L 19.9784 -0.929002 L 19.9802 -0.889043 L 19.982 -0.849081 L 19.9836 -0.809115 L 19.9852 -0.769146 L 19.9867 -0.729175 L 19.9881 -0.6892 L 19.9895 -0.649222 L 19.9907 -0.609242 L 19.9919 -0.569259 L 19.993 -0.529274 L 19.994 -0.489287 L 19.995 -0.449298 L 19.9958 -0.409308 L 19.9966 -0.369315 L 19.9973 -0.329321 L 19.9979 -0.289326 L 19.9984 -0.24933 L 19.9989 -0.209332 L 19.9993 -0.169334 L 19.9996 -0.129335 L 19.9998 -0.0893358 L 19.9999 -0.0493361Z"
id="path1" />
</g>
</svg>
