<?xml version="1.0" encoding="UTF-8" standalone="no"?>
<svg version="1.1">
<g
style="fill:none;stroke:#000000;stroke-opacity:1;stroke-width:0.1">
<path d="M 17.4999 0.0707961 L 17.4996 0.120795 L 17.4992 0.170794 L 17.4986 0.22079 L 17.4979 0.270786 L 17.4971 0.320778 L 17.4961 0.370769 L 17.4949 0.420756 L 17.4937 0.47074 L 17.4923 0.520719 L 17.4907 0.570695 L 17.489 0.620666 L 17.4871 0.670632 L 17.4852 0.720593 L 17.483 0.770547 L 17.4808 0.820495 L 17.4783 0.870437 L 17.4758 0.920372 L 17.4731 0.970298 L 17.4702 1.02022 L 17.4673 1.07013 L 17.4641 1.12003 L 17.4608 1.16992 L 17.4574 1.21981 L 17.4539 1.26968 L 17.4502 1.31954 L 17.4463 1.36939 L 17.4424 1.41924 L 17.4382 1.46907 L 17.434 1.51888 L 17.4296 1.56869 L 17.3785 1.57845 L 17.3274 1.58822 L 17.2763 1.59798 L 17.2251 1.60774 L 17.174 1.6175 L 17.1229 1.62726 L 17.0717 1.63702 L 17.0205 1.64678 L 16.9693 1.65654 L 16.9181 1.66629 L 16.8669 1.67605 L 16.8157 1.6858 L 16.7645 1.69555 L 16.7132 1.7053 L 16.662 1.71505 L 16.6107 1.72479 L 16.5594 1.73454 L 16.5081 1.74429 L 16.4568 1.75403 L 16.4055 1.76377 L 16.3541 1.77351 L 16.3028 1.78325 L 16.2514 1.79298 L 16.2 1.80272 L 16.1486 1.81245 L 16.0972 1.82219 L 16.0458 1.83192 L 15.9943 1.84165 L 15.9429 1.85137 L 15.8914 1.8611 L 15.8399 1.87082 L 15.7884 1.88054 L 15.7369 1.89026 L 15.6853 1.89998 L 15.6338 1.9097 L 15.5822 1.91941 L 15.5306 1.92912 L 15.479 1.93883 L 15.4274 1.94854 L 15.2022 3.0239 L 15.2022 3.0239 L 14.9988 4.1036 L 15.0427 4.13233 L 15.0867 4.16104 L 15.1306 4.18976 L 15.1746 4.21846 L 15.2185 4.24717 L 15.2624 4.27587 L 15.3062 4.30456 L 15.3501 4.33325 L 15.3939 4.36194 L 15.4378 4.39062 L 15.4816 4.4193 L 15.5254 4.44798 L 15.5692 4.47665 L 15.613 4.50532 L 15.6567 4.53398 L 15.7005 4.56264 L 15.7442 4.59129 L 15.7879 4.61994 L 15.8316 4.64859 L 15.8753 4.67723 L 15.919 4.70587 L 15.9627 4.7345 L 16.0063 4.76313 L 16.05 4.79176 L 16.0936 4.82038 L 16.1372 4.849 L 16.1808 4.87762 L 16.2244 4.90623 L 16.268 4.93484 L 16.3116 4.96344 L 16.3551 4.99204 L 16.3986 5.02064 L 16.4422 5.04924 L 16.4857 5.07783 L 16.5292 5.10641 L 16.5727 5.13499 L 16.6162 5.16357 L 16.6597 5.19215 L 16.7031 5.22072 L 16.6881 5.26842 L 16.673 5.31608 L 16.6578 5.3637 L 16.6424 5.41127 L 16.6268 5.4588 L 16.6112 5.50628 L 16.5954 5.55372 L 16.5794 5.60111 L 16.5634 5.64846 L 16.5472 5.69576 L 16.5308 5.74301 L 16.5143 5.79022 L 16.4977 5.83738 L 16.481 5.88449 L 16.4641 5.93156 L 16.4471 5.97857 L 16.4299 6.02554 L 16.4127 6.07246 L 16.3952 6.11933 L 16.3777 6.16614 L 16.36 6.21291 L 16.3422 6.25963 L 16.3242 6.3063 L 16.3061 6.35291 L 16.2879 6.39947 L 16.2696 6.44599 L 16.2511 6.49244 L 16.2325 6.53885 L 16.2137 6.5852 L 16.1949 6.6315 L 16.1407 6.76231 L 16.1213 6.8084 L 16.1018 6.85443 L 16.0821 6.90041 L 16.0623 6.94633 L 16.0424 6.9922 L 16.0224 7.038 L 16.0022 7.08375 L 15.9819 7.12944 L 15.9615 7.17508 L 15.9409 7.22065 L 15.9202 7.26617 L 15.8994 7.31162 L 15.8784 7.35702 L 15.8573 7.40236 L 15.8361 7.44763 L 15.8148 7.49285 L 15.7933 7.538 L 15.7717 7.5831 L 15.75 7.62813 L 15.7281 7.6731 L 15.7061 7.718 L 15.684 7.76285 L 15.6618 7.80763 L 15.6394 7.85234 L 15.6169 7.89699 L 15.5943 7.94158 L 15.5715 7.9861 L 15.5486 8.03056 L 15.5256 8.07495 L 15.5025 8.11928 L 15.4516 8.10875 L 15.4006 8.09822 L 15.3497 8.08768 L 15.2987 8.07713 L 15.2477 8.06658 L 15.1967 8.05603 L 15.1457 8.04547 L 15.0947 8.0349 L 15.0437 8.02432 L 14.9927 8.01374 L 14.9416 8.00316 L 14.8906 7.99257 L 14.8395 7.98197 L 14.7884 7.97137 L 14.7373 7.96076 L 14.6862 7.95014 L 14.6351 7.93952 L 14.584 7.92889 L 14.5329 7.91825 L 14.4817 7.90761 L 14.4305 7.89696 L 14.3794 7.8863 L 14.3282 7.87564 L 14.277 7.86497 L 14.2258 7.85429 L 14.1745 7.84361 L 14.1233 7.83292 L 14.0721 7.82222 L 14.0208 7.81152 L 13.9695 7.8008 L 13.9182 7.79008 L 13.8669 7.77935 L 13.8156 7.76862 L 13.7643 7.75788 L 13.7129 7.74712 L 13.6616 7.73637 L 13.6102 7.7256 L 13.5588 7.71482 L 13.5074 7.70404 L 12.8878 8.61134 L 12.8878 8.61134 L 12.2867 9.53101 L 12.3163 9.57438 L 12.3459 9.61773 L 12.3755 9.66107 L 12.4051 9.7044 L 12.4347 9.74772 L 12.4643 9.79104 L 12.4938 9.83434 L 12.5234 9.87763 L 12.5529 9.92092 L 12.5824 9.96419 L 12.6119 10.0075 L 12.6414 10.0507 L 12.6709 10.094 L 12.7004 10.1372 L 12.7299 10.1804 L 12.7593 10.2236 L 12.7887 10.2668 L 12.8182 10.31 L 12.8476 10.3532 L 12.877 10.3964 L 12.9064 10.4396 L 12.9358 10.4828 L 12.9651 10.5259 L 12.9945 10.5691 L 13.0239 10.6122 L 13.0532 10.6553 L 13.0825 10.6985 L 13.1119 10.7416 L 13.1412 10.7847 L 13.1705 10.8278 L 13.1998 10.8709 L 13.2291 10.914 L 13.2583 10.957 L 13.2876 11.0001 L 13.3169 11.0432 L 13.3461 11.0862 L 13.3753 11.1293 L 13.4046 11.1723 L 13.4338 11.2153 L 13.4017 11.2537 L 13.3695 11.2919 L 13.3372 11.3301 L 13.3047 11.3681 L 13.2722 11.4061 L 13.2396 11.444 L 13.2068 11.4817 L 13.1739 11.5194 L 13.141 11.557 L 13.1079 11.5945 L 13.0747 11.6319 L 13.0414 11.6692 L 13.008 11.7064 L 12.9745 11.7436 L 12.9409 11.7806 L 12.9072 11.8175 L 12.8734 11.8543 L 12.8395 11.8911 L 12.8055 11.9277 L 12.7713 11.9642 L 12.7371 12.0007 L 12.7028 12.037 L 12.6683 12.0733 L 12.6338 12.1094 L 12.5991 12.1455 L 12.5644 12.1814 L 12.5295 12.2173 L 12.4945 12.253 L 12.4595 12.2887 L 12.4243 12.3242 L 12.3242 12.4243 L 12.2887 12.4595 L 12.253 12.4945 L 12.2173 12.5295 L 12.1814 12.5644 L 12.1455 12.5991 L 12.1094 12.6338 L 12.0733 12.6683 L 12.037 12.7028 L 12.0007 12.7371 L 11.9642 12.7713 L 11.9277 12.8055 L 11.8911 12.8395 L 11.8543 12.8734 L 11.8175 12.9072 L 11.7806 12.9409 L 11.7436 12.9745 L 11.7064 13.008 L 11.6692 13.0414 L 11.6319 13.0747 L 11.5945 13.1079 L 11.557 13.141 L 11.5194 13.1739 L 11.4817 13.2068 L 11.444 13.2396 L 11.4061 13.2722 L 11.3681 13.3047 L 11.3301 13.3372 L 11.2919 13.3695 L 11.2537 13.4017 L 11.2153 13.4338 L 11.1723 13.4046 L 11.1293 13.3753 L 11.0862 13.3461 L 11.0432 13.3169 L 11.0001 13.2876 L 10.957 13.2583 L 10.914 13.2291 L 10.8709 13.1998 L 10.8278 13.1705 L 10.7847 13.1412 L 10.7416 13.1119 L 10.6985 13.0825 L 10.6553 13.0532 L 10.6122 13.0239 L 10.5691 12.9945 L 10.5259 12.9651 L 10.4828 12.9358 L 10.4396 12.9064 L 10.3964 12.877 L 10.3532 12.8476 L 10.31 12.8182 L 10.2668 12.7887 L 10.2236 12.7593 L 10.1804 12.7299 L 10.1372 12.7004 L 10.094 12.6709 L 10.0507 12.6414 L 10.0075 12.6119 L 9.96419 12.5824 L 9.92092 12.5529 L 9.87763 12.5234 L 9.83434 12.4938 L 9.79104 12.4643 L 9.74772 12.4347 L 9.7044 12.4051 L 9.66107 12.3755 L 9.61773 12.3459 L 9.57438 12.3163 L 9.53101 12.2867 L 8.61134 12.8878 L 8.61134 12.8878 L 7.70404 13.5074 L 7.71482 13.5588 L 7.7256 13.6102 L 7.73637 13.6616 L 7.74712 13.7129 L 7.75788 13.7643 L 7.76862 13.8156 L 7.77935 13.8669 L 7.79008 13.9182 L 7.8008 13.9695 L 7.81152 14.0208 L 7.82222 14.0721 L 7.83292 14.1233 L 7.84361 14.1745 L 7.85429 14.2258 L 7.86497 14.277 L 7.87564 14.3282 L 7.8863 14.3794 L 7.89696 14.4305 L 7.90761 14.4817 L 7.91825 14.5329 L 7.92889 14.584 L 7.93952 14.6351 L 7.95014 14.6862 L 7.96076 14.7373 L 7.97137 14.7884 L 7.98197 14.8395 L 7.99257 14.8906 L 8.00316 14.9416 L 8.01374 14.9927 L 8.02432 15.0437 L 8.0349 15.0947 L 8.04547 15.1457 L 8.05603 15.1967 L 8.06658 15.2477 L 8.07713 15.2987 L 8.08768 15.3497 L 8.09822 15.4006 L 8.10875 15.4516 L 8.11928 15.5025 L 8.07495 15.5256 L 8.03056 15.5486 L 7.9861 15.5715 L 7.94158 15.5943 L 7.89699 15.6169 L 7.85234 15.6394 L 7.80763 15.6618 L 7.76285 15.684 L 7.718 15.7061 L 7.6731 15.7281 L 7.62813 15.75 L 7.5831 15.7717 L 7.538 15.7933 L 7.49285 15.8148 L 7.44763 15.8361 L 7.40236 15.8573 L 7.35702 15.8784 L 7.31162 15.8994 L 7.26617 15.9202 L 7.22065 15.9409 L 7.17508 15.9615 L 7.12944 15.9819 L 7.08375 16.0022 L 7.038 16.0224 L 6.9922 16.0424 L 6.94633 16.0623 L 6.90041 16.0821 L 6.85443 16.1018 L 6.8084 16.1213 L 6.76231 16.1407 L 6.6315 16.1949 L 6.5852 16.2137 L 6.53885 16.2325 L 6.49244 16.2511 L 6.44599 16.2696 L 6.39947 16.2879 L 6.35291 16.3061 L 6.3063 16.3242 L 6.25963 16.3422 L 6.21291 16.36 L 6.16614 16.3777 L 6.11933 16.3952 L 6.07246 16.4127 L 6.02554 16.4299 L 5.97857 16.4471 L 5.93156 16.4641 L 5.88449 16.481 L 5.83738 16.4977 L 5.79022 16.5143 L 5.74301 16.5308 L 5.69576 16.5472 L 5.64846 16.5634 L 5.60111 16.5794 L 5.55372 16.5954 L 5.50628 16.6112 L 5.4588 16.6268 L 5.41127 16.6424 L 5.3637 16.6578 L 5.31608 16.673 L 5.26842 16.6881 L 5.22072 16.7031 L 5.19215 16.6597 L 5.16357 16.6162 L 5.13499 16.5727 L 5.10641 16.5292 L 5.07783 16.4857 L 5.04924 16.4422 L 5.02064 16.3986 L 4.99204 16.3551 L 4.96344 16.3116 L 4.93484 16.268 L 4.90623 16.2244 L 4.87762 16.1808 L 4.849 16.1372 L 4.82038 16.0936 L 4.79176 16.05 L 4.76313 16.0063 L 4.7345 15.9627 L 4.70587 15.919 L 4.67723 15.8753 L 4.64859 15.8316 L 4.61994 15.7879 L 4.59129 15.7442 L 4.56264 15.7005 L 4.53398 15.6567 L 4.50532 15.613 L 4.47665 15.5692 L 4.44798 15.5254 L 4.4193 15.4816 L 4.39062 15.4378 L 4.36194 15.3939 L 4.33325 15.3501 L 4.30456 15.3062 L 4.27587 15.2624 L 4.24717 15.2185 L 4.21846 15.1746 L 4.18976 15.1306 L 4.16104 15.0867 L 4.13233 15.0427 L 4.1036 14.9988 L 3.0239 15.2022 L 3.0239 15.2022 L 1.94854 15.4274 L 1.93883 15.479 L 1.92912 15.5306 L 1.91941 15.5822 L 1.9097 15.6338 L 1.89998 15.6853 L 1.89026 15.7369 L 1.88054 15.7884 L 1.87082 15.8399 L 1.8611 15.8914 L 1.85137 15.9429 L 1.84165 15.9943 L 1.83192 16.0458 L 1.82219 16.0972 L 1.81245 16.1486 L 1.80272 16.2 L 1.79298 16.2514 L 1.78325 16.3028 L 1.77351 16.3541 L 1.76377 16.4055 L 1.75403 16.4568 L 1.74429 16.5081 L 1.73454 16.5594 L 1.72479 16.6107 L 1.71505 16.662 L 1.7053 16.7132 L 1.69555 16.7645 L 1.6858 16.8157 L 1.67605 16.8669 L 1.66629 16.9181 L 1.65654 16.9693 L 1.64678 17.0205 L 1.63702 17.0717 L 1.62726 17.1229 L 1.6175 17.174 L 1.60774 17.2251 L 1.59798 17.2763 L 1.58822 17.3274 L 1.57845 17.3785 L 1.56869 17.4296 L 1.51888 17.434 L 1.46907 17.4382 L 1.41924 17.4424 L 1.36939 17.4463 L 1.31954 17.4502 L 1.26968 17.4539 L 1.21981 17.4574 L 1.16992 17.4608 L 1.12003 17.4641 L 1.07013 17.4673 L 1.02022 17.4702 L 0.970298 17.4731 L 0.920372 17.4758 L 0.870437 17.4783 L 0.820495 17.4808 L 0.770547 17.483 L 0.720593 17.4852 L 0.670632 17.4871 L 0.620666 17.489 L 0.570695 17.4907 L 0.520719 17.4923 L 0.47074 17.4937 L 0.420756 17.4949 L 0.370769 17.4961 L 0.320778 17.4971 L 0.270786 17.4979 L 0.22079 17.4986 L 0.170794 17.4992 L 0.120795 17.4996 L 0.0707961 17.4999 L -0.0707961 17.4999 L -0.120795 17.4996 L -0.170794 17.4992 L -0.22079 17.4986 L -0.270786 17.4979 L -0.320778 17.4971 L -0.370769 17.4961 L -0.420756 17.4949 L -0.47074 17.4937 L -0.520719 17.4923 L -0.570695 17.4907 L -0.620666 17.489 L -0.670632 17.4871 L -0.720593 17.4852 L -0.770547 17.483 L -0.820495 17.4808 L -0.870437 17.4783 L -0.920372 17.4758 L -0.970298 17.4731 L -1.02022 17.4702 L -1.07013 17.4673 L -1.12003 17.4641 L -1.16992 17.4608 L -1.21981 17.4574 L -1.26968 17.4539 L -1.31954 17.4502 L -1.36939 17.4463 L -1.41924 17.4424 L -1.46907 17.4382 L -1.51888 17.434 L -1.56869 17.4296 L -1.57845 17.3785 L -1.58822 17.3274 L -1.59798 17.2763 L -1.60774 17.2251 L -1.6175 17.174 L -1.62726 17.1229 L -1.63702 17.0717 L -1.64678 17.0205 L -1.65654 16.9693 L -1.66629 16.9181 L -1.67605 16.8669 L -1.6858 16.8157 L -1.69555 16.7645 L -1.7053 16.7132 L -1.71505 16.662 L -1.72479 16.6107 L -1.73454 16.5594 L -1.74429 16.5081 L -1.75403 16.4568 L -1.76377 16.4055 L -1.77351 16.3541 L -1.78325 16.3028 L -1.79298 16.2514 L -1.80272 16.2 L -1.81245 16.1486 L -1.82219 16.0972 L -1.83192 16.0458 L -1.84165 15.9943 L -1.85137 15.9429 L -1.8611 15.8914 L -1.87082 15.8399 L -1.88054 15.7884 L -1.89026 15.7369 L -1.89998 15.6853 L -1.9097 15.6338 L -1.91941 15.5822 L -1.92912 15.5306 L -1.93883 15.479 L -1.94854 15.4274 L -3.0239 15.2022 L -3.0239 15.2022 L -4.1036 14.9988 L -4.13233 15.0427 L -4.16104 15.0867 L -4.18976 15.1306 L -4.21846 15.1746 L -4.24717 15.2185 L -4.27587 15.2624 L -4.30456 15.3062 L -4.33325 15.3501 L -4.36194 15.3939 L -4.39062 15.4378 L -4.4193 15.4816 L -4.44798 15.5254 L -4.47665 15.5692 L -4.50532 15.613 L -4.53398 15.6567 L -4.56264 15.7005 L -4.59129 15.7442 L -4.61994 15.7879 L -4.64859 15.8316 L -4.67723 15.8753 L -4.70587 15.919 L -4.7345 15.9627 L -4.76313 16.0063 L -4.79176 16.05 L -4.82038 16.0936 L -4.849 16.1372 L -4.87762 16.1808 L -4.90623 16.2244 L -4.93484 16.268 L -4.96344 16.3116 L -4.99204 16.3551 L -5.02064 16.3986 L -5.04924 16.4422 L -5.07783 16.4857 L -5.10641 16.5292 L -5.13499 16.5727 L -5.16357 16.6162 L -5.19215 16.6597 L -5.22072 16.7031 L -5.26842 16.6881 L -5.31608 16.673 L -5.3637 16.6578 L -5.41127 16.6424 L -5.4588 16.6268 L -5.50628 16.6112 L -5.55372 16.5954 L -5.60111 16.5794 L -5.64846 16.5634 L -5.69576 16.5472 L -5.74301 16.5308 L -5.79022 16.5143 L -5.83738 16.4977 L -5.88449 16.481 L -5.93156 16.4641 L -5.97857 16.4471 L -6.02554 16.4299 L -6.07246 16.4127 L -6.11933 16.3952 L -6.16614 16.3777 L -6.21291 16.36 L -6.25963 16.3422 L -6.3063 16.3242 L -6.35291 16.3061 L -6.39947 16.2879 L -6.44599 16.2696 L -6.49244 16.2511 L -6.53885 16.2325 L -6.5852 16.2137 L -6.6315 16.1949 L -6.76231 16.1407 L -6.8084 16.1213 L -6.85443 16.1018 L -6.90041 16.0821 L -6.94633 16.0623 L -6.9922 16.0424 L -7.038 16.0224 L -7.08375 16.0022 L -7.12944 15.9819 L -7.17508 15.9615 L -7.22065 15.9409 L -7.26617 15.9202 L -7.31162 15.8994 L -7.35702 15.8784 L -7.40236 15.8573 L -7.44763 15.8361 L -7.49285 15.8148 L -7.538 15.7933 L -7.5831 15.7717 L -7.62813 15.75 L -7.6731 15.7281 L -7.718 15.7061 L -7.76285 15.684 L -7.80763 15.6618 L -7.85234 15.6394 L -7.89699 15.6169 L -7.94158 15.5943 L -7.9861 15.5715 L -8.03056 15.5486 L -8.07495 15.5256 L -8.11928 15.5025 L -8.10875 15.4516 L -8.09822 15.4006 L -8.08768 15.3497 L -8.07713 15.2987 L -8.06658 15.2477 L -8.05603 15.1967 L -8.04547 15.1457 L -8.0349 15.0947 L -8.02432 15.0437 L -8.01374 14.9927 L -8.00316 14.9416 L -7.99257 14.8906 L -7.98197 14.8395 L -7.97137 14.7884 L -7.96076 14.7373 L -7.95014 14.6862 L -7.93952 14.6351 L -7.92889 14.584 L -7.91825 14.5329 L -7.90761 14.4817 L -7.89696 14.4305 L -7.8863 14.3794 L -7.87564 14.3282 L -7.86497 14.277 L -7.85429 14.2258 L -7.84361 14.1745 L -7.83292 14.1233 L -7.82222 14.0721 L -7.81152 14.0208 L -7.8008 13.9695 L -7.79008 13.9182 L -7.77935 13.8669 L -7.76862 13.8156 L -7.75788 13.7643 L -7.74712 13.7129 L -7.73637 13.6616 L -7.7256 13.6102 L -7.71482 13.5588 L -7.70404 13.5074 L -8.61134 12.8878 L -8.61134 12.8878 L -9.53101 12.2867 L -9.57438 12.3163 L -9.61773 12.3459 L -9.66107 12.3755 L -9.7044 12.4051 L -9.74772 12.4347 L -9.79104 12.4643 L -9.83434 12.4938 L -9.87763 12.5234 L -9.92092 12.5529 L -9.96419 12.5824 L -10.0075 12.6119 L -10.0507 12.6414 L -10.094 12.6709 L -10.1372 12.7004 L -10.1804 12.7299 L -10.2236 12.7593 L -10.2668 12.7887 L -10.31 12.8182 L -10.3532 12.8476 L -10.3964 12.877 L -10.4396 12.9064 L -10.4828 12.9358 L -10.5259 12.9651 L -10.5691 12.9945 L -10.6122 13.0239 L -10.6553 13.0532 L -10.6985 13.0825 L -10.7416 13.1119 L -10.7847 13.1412 L -10.8278 13.1705 L -10.8709 13.1998 L -10.914 13.2291 L -10.957 13.2583 L -11.0001 13.2876 L -11.0432 13.3169 L -11.0862 13.3461 L -11.1293 13.3753 L -11.1723 13.4046 L -11.2153 13.4338 L -11.2537 13.4017 L -11.2919 13.3695 L -11.3301 13.3372 L -11.3681 13.3047 L -11.4061 13.2722 L -11.444 13.2396 L -11.4817 13.2068 L -11.5194 13.1739 L -11.557 13.141 L -11.5945 13.1079 L -11.6319 13.0747 L -11.6692 13.0414 L -11.7064 13.008 L -11.7436 12.9745 L -11.7806 12.9409 L -11.8175 12.9072 L -11.8543 12.8734 L -11.8911 12.8395 L -11.9277 12.8055 L -11.9642 12.7713 L -12.0007 12.7371 L -12.037 12.7028 L -12.0733 12.6683 L -12.1094 12.6338 L -12.1455 12.5991 L -12.1814 12.5644 L -12.2173 12.5295 L -12.253 12.4945 L -12.2887 12.4595 L -12.3242 12.4243 L -12.4243 12.3242 L -12.4595 12.2887 L -12.4945 12.253 L -12.5295 12.2173 L -12.5644 12.1814 L -12.5991 12.1455 L -12.6338 12.1094 L -12.6683 12.0733 L -12.7028 12.037 L -12.7371 12.0007 L -12.7713 11.9642 L -12.8055 11.9277 L -12.8395 11.8911 L -12.8734 11.8543 L -12.9072 11.8175 L -12.9409 11.7806 L -12.9745 11.7436 L -13.008 11.7064 L -13.0414 11.6692 L -13.0747 11.6319 L -13.1079 11.5945 L -13.141 11.557 L -13.1739 11.5194 L -13.2068 11.4817 L -13.2396 11.444 L -13.2722 11.4061 L -13.3047 11.3681 L -13.3372 11.3301 L -13.3695 11.2919 L -13.4017 11.2537 L -13.4338 11.2153 L -13.4046 11.1723 L -13.3753 11.1293 L -13.3461 11.0862 L -13.3169 11.0432 L -13.2876 11.0001 L -13.2583 10.957 L -13.2291 10.914 L -13.1998 10.8709 L -13.1705 10.8278 L -13.1412 10.7847 L -13.1119 10.7416 L -13.0825 10.6985 L -13.0532 10.6553 L -13.0239 10.6122 L -12.9945 10.5691 L -12.9651 10.5259 L -12.9358 10.4828 L -12.9064 10.4396 L -12.877 10.3964 L -12.8476 10.3532 L -12.8182 10.31 L -12.7887 10.2668 L -12.7593 10.2236 L -12.7299 10.1804 L -12.7004 10.1372 L -12.6709 10.094 L -12.6414 10.0507 L -12.6119 10.0075 L -12.5824 9.96419 L -12.5529 9.92092 L -12.5234 9.87763 L -12.4938 9.83434 L -12.4643 9.79104 L -12.4347 9.74772 L -12.4051 9.7044 L -12.3755 9.66107 L -12.3459 9.61773 L -12.3163 9.57438 L -12.2867 9.53101 L -12.8878 8.61134 L -12.8878 8.61134 L -13.5074 7.70404 L -13.5588 7.71482 L -13.6102 7.7256 L -13.6616 7.73637 L -13.7129 7.74712 L -13.7643 7.75788 L -13.8156 7.76862 L -13.8669 7.77935 L -13.9182 7.79008 L -13.9695 7.8008 L -14.0208 7.81152 L -14.0721 7.82222 L -14.1233 7.83292 L -14.1745 7.84361 L -14.2258 7.85429 L -14.277 7.86497 L -14.3282 7.87564 L -14.3794 7.8863 L -14.4305 7.89696 L -14.4817 7.90761 L -14.5329 7.91825 L -14.584 7.92889 L -14.6351 7.93952 L -14.6862 7.95014 L -14.7373 7.96076 L -14.7884 7.97137 L -14.8395 7.98197 L -14.8906 7.99257 L -14.9416 8.00316 L -14.9927 8.01374 L -15.0437 8.02432 L -15.0947 8.0349 L -15.1457 8.04547 L -15.1967 8.05603 L -15.2477 8.06658 L -15.2987 8.07713 L -15.3497 8.08768 L -15.4006 8.09822 L -15.4516 8.10875 L -15.5025 8.11928 L -15.5256 8.07495 L -15.5486 8.03056 L -15.5715 7.9861 L -15.5943 7.94158 L -15.6169 7.89699 L -15.6394 7.85234 L -15.6618 7.80763 L -15.684 7.76285 L -15.7061 7.718 L -15.7281 7.6731 L -15.75 7.62813 L -15.7717 7.5831 L -15.7933 7.538 L -15.8148 7.49285 L -15.8361 7.44763 L -15.8573 7.40236 L -15.8784 7.35702 L -15.8994 7.31162 L -15.9202 7.26617 L -15.9409 7.22065 L -15.9615 7.17508 L -15.9819 7.12944 L -16.0022 7.08375 L -16.0224 7.038 L -16.0424 6.9922 L -16.0623 6.94633 L -16.0821 6.90041 L -16.1018 6.85443 L -16.1213 6.8084 L -16.1407 6.76231 L -16.1949 6.6315 L -16.2137 6.5852 L -16.2325 6.53885 L -16.2511 6.49244 L -16.2696 6.44599 L -16.2879 6.39947 L -16.3061 6.35291 L -16.3242 6.3063 L -16.3422 6.25963 L -16.36 6.21291 L -16.3777 6.16614 L -16.3952 6.11933 L -16.4127 6.07246 L -16.4299 6.02554 L -16.4471 5.97857 L -16.4641 5.93156 L -16.481 5.88449 L -16.4977 5.83738 L -16.5143 5.79022 L -16.5308 5.74301 L -16.5472 5.69576 L -16.5634 5.64846 L -16.5794 5.60111 L -16.5954 5.55372 L -16.6112 5.50628 L -16.6268 5.4588 L -16.6424 5.41127 L -16.6578 5.3637 L -16.673 5.31608 L -16.6881 5.26842 L -16.7031 5.22072 L -16.6597 5.19215 L -16.6162 5.16357 L -16.5727 5.13499 L -16.5292 5.10641 L -16.4857 5.07783 L -16.4422 5.04924 L -16.3986 5.02064 L -16.3551 4.99204 L -16.3116 4.96344 L -16.268 4.93484 L -16.2244 4.90623 L -16.1808 4.87762 L -16.1372 4.849 L -16.0936 4.82038 L -16.05 4.79176 L -16.0063 4.76313 L -15.9627 4.7345 L -15.919 4.70587 L -15.8753 4.67723 L -15.8316 4.64859 L -15.7879 4.61994 L -15.7442 4.59129 L -15.7005 4.56264 L -15.6567 4.53398 L -15.613 4.50532 L -15.5692 4.47665 L -15.5254 4.44798 L -15.4816 4.4193 L -15.4378 4.39062 L -15.3939 4.36194 L -15.3501 4.33325 L -15.3062 4.30456 L -15.2624 4.27587 L -15.2185 4.24717 L -15.1746 4.21846 L -15.1306 4.18976 L -15.0867 4.16104 L -15.0427 4.13233 L -14.9988 4.1036 L -15.2022 3.0239 L -15.2022 3.0239 L -15.4274 1.94854 L -15.479 1.93883 L -15.5306 1.92912 L -15.5822 1.91941 L -15.6338 1.9097 L -15.6853 1.89998 L -15.7369 1.89026 L -15.7884 1.88054 L -15.8399 1.87082 L -15.8914 1.8611 L -15.9429 1.85137 L -15.9943 1.84165 L -16.0458 1.83192 L -16.0972 1.82219 L -16.1486 1.81245 L -16.2 1.80272 L -16.2514 1.79298 L -16.3028 1.78325 L -16.3541 1.77351 L -16.4055 1.76377 L -16.4568 1.75403 L -16.5081 1.74429 L -16.5594 1.73454 L -16.6107 1.72479 L -16.662 1.71505 L -16.7132 1.7053 L -16.7645 1.69555 L -16.8157 1.6858 L -16.8669 1.67605 L -16.9181 1.66629 L -16.9693 1.65654 L -17.0205 1.64678 L -17.0717 1.63702 L -17.1229 1.62726 L -17.174 1.6175 L -17.2251 1.60774 L -17.2763 1.59798 L -17.3274 1.58822 L -17.3785 1.57845 L -17.4296 1.56869 L -17.434 1.51888 L -17.4382 1.46907 L -17.4424 1.41924 L -17.4463 1.36939 L -17.4502 1.31954 L -17.4539 1.26968 L -17.4574 1.21981 L -17.4608 1.16992 L -17.4641 1.12003 L -17.4673 1.07013 L -17.4702 1.02022 L -17.4731 0.970298 L -17.4758 0.920372 L -17.4783 0.870437 L -17.4808 0.820495 L -17.483 0.770547 L -17.4852 0.720593 L -17.4871 0.670632 L -17.489 0.620666 L -17.4907 0.570695 L -17.4923 0.520719 L -17.4937 0.47074 L -17.4949 0.420756 L -17.4961 0.370769 L -17.4971 0.320778 L -17.4979 0.270786 L -17.4986 0.22079 L -17.4992 0.170794 L -17.4996 0.120795 L -17.4999 0.0707961 L -17.4999 -0.0707961 L -17.4996 -0.120795 L -17.4992 -0.170794 L -17.4986 -0.22079 L -17.4979 -0.270786 L -17.4971 -0.320778 L -17.4961 -0.370769 L -17.4949 -0.420756 L -17.4937 -0.47074 L -17.4923 -0.520719 L -17.4907 -0.570695 L -17.489 -0.620666 L -17.4871 -0.670632 L -17.4852 -0.720593 L -17.483 -0.770547 L -17.4808 -0.820495 L -17.4783 -0.870437 L -17.4758 -0.920372 L -17.4731 -0.970298 L -17.4702 -1.02022 L -17.4673 -1.07013 L -17.4641 -1.12003 L -17.4608 -1.16992 L -17.4574 -1.21981 L -17.4539 -1.26968 L -17.4502 -1.31954 L -17.4463 -1.36939 L -17.4424 -1.41924 L -17.4382 -1.46907 L -17.434 -1.51888 L -17.4296 -1.56869 L -17.3785 -1.57845 L -17.3274 -1.58822 L -17.2763 -1.59798 L -17.2251 -1.60774 L -17.174 -1.6175 L -17.1229 -1.62726 L -17.0717 -1.63702 L -17.0205 -1.64678 L -16.9693 -1.65654 L -16.9181 -1.66629 L -16.8669 -1.67605 L -16.8157 -1.6858 L -16.7645 -1.69555 L -16.7132 -1.7053 L -16.662 -1.71505 L -16.6107 -1.72479 L -16.5594 -1.73454 L -16.5081 -1.74429 L -16.4568 -1.75403 L -16.4055 -1.76377 L -16.3541 -1.77351 L -16.3028 -1.78325 L -16.2514 -1.79298 L -16.2 -1.80272 L -16.1486 -1.81245 L -16.0972 -1.82219 L -16.0458 -1.83192 L -15.9943 -1.84165 L -15.9429 -1.85137 L -15.8914 -1.8611 L -15.8399 -1.87082 L -15.7884 -1.88054 L -15.7369 -1.89026 L -15.6853 -1.89998 L -15.6338 -1.9097 L -15.5822 -1.91941 L -15.5306 -1.92912 L -15.479 -1.93883 L -15.4274 -1.94854 L -15.2022 -3.0239 L -15.2022 -3.0239 L -14.9988 -4.1036 L -15.0427 -4.13233 L -15.0867 -4.16104 L -15.1306 -4.18976 L -15.1746 -4.21846 L -15.2185 -4.24717 L -15.2624 -4.27587 L -15.3062 -4.30456 L -15.3501 -4.33325 L -15.3939 -4.36194 L -15.4378 -4.39062 L -15.4816 -4.4193 L -15.5254 -4.44798 L -15.5692 -4.47665 L -15.613 -4.50532 L -15.6567 -4.53398 L -15.7005 -4.56264 L -15.7442 -4.59129 L -15.7879 -4.61994 L -15.8316 -4.64859 L -15.8753 -4.67723 L -15.919 -4.70587 L -15.9627 -4.7345 L -16.0063 -4.76313 L -16.05 -4.79176 L -16.0936 -4.82038 L -16.1372 -4.849 L -16.1808 -4.87762 L -16.2244 -4.90623 L -16.268 -4.93484 L -16.3116 -4.96344 L -16.3551 -4.99204 L -16.3986 -5.02064 L -16.4422 -5.04924 L -16.4857 -5.07783 L -16.5292 -5.10641 L -16.5727 -5.13499 L -16.6162 -5.16357 L -16.6597 -5.19215 L -16.7031 -5.22072 L -16.6881 -5.26842 L -16.673 -5.31608 L -16.6578 -5.3637 L -16.6424 -5.41127 L -16.6268 -5.4588 L -16.6112 -5.50628 L -16.5954 -5.55372 L -16.5794 -5.60111 L -16.5634 -5.64846 L -16.5472 -5.69576 L -16.5308 -5.74301 L -16.5143 -5.79022 L -16.4977 -5.83738 L -16.481 -5.88449 L -16.4641 -5.93156 L -16.4471 -5.97857 L -16.4299 -6.02554 L -16.4127 -6.07246 L -16.3952 -6.11933 L -16.3777 -6.16614 L -16.36 -6.21291 L -16.3422 -6.25963 L -16.3242 -6.3063 L -16.3061 -6.35291 L -16.2879 -6.39947 L -16.2696 -6.44599 L -16.2511 -6.49244 L -16.2325 -6.53885 L -16.2137 -6.5852 L -16.1949 -6.6315 L -16.1407 -6.76231 L -16.1213 -6.8084 L -16.1018 -6.85443 L -16.0821 -6.90041 L -16.0623 -6.94633 L -16.0424 -6.9922 L -16.0224 -7.038 L -16.0022 -7.08375 L -15.9819 -7.12944 L -15.9615 -7.17508 L -15.9409 -7.22065 L -15.9202 -7.26617 L -15.8994 -7.31162 L -15.8784 -7.35702 L -15.8573 -7.40236 L -15.8361 -7.44763 L -15.8148 -7.49285 L -15.7933 -7.538 L -15.7717 -7.5831 L -15.75 -7.62813 L -15.7281 -7.6731 L -15.7061 -7.718 L -15.684 -7.76285 L -15.6618 -7.80763 L -15.6394 -7.85234 L -15.6169 -7.89699 L -15.5943 -7.94158 L -15.5715 -7.9861 L -15.5486 -8.03056 L -15.5256 -8.07495 L -15.5025 -8.11928 L -15.4516 -8.10875 L -15.4006 -8.09822 L -15.3497 -8.08768 L -15.2987 -8.07713 L -15.2477 -8.06658 L -15.1967 -8.05603 L -15.1457 -8.04547 L -15.0947 -8.0349 L -15.0437 -8.02432 L -14.9927 -8.01374 L -14.9416 -8.00316 L -14.8906 -7.99257 L -14.8395 -7.98197 L -14.7884 -7.97137 L -14.7373 -7.96076 L -14.6862 -7.95014 L -14.6351 -7.93952 L -14.584 -7.92889 L -14.5329 -7.91825 L -14.4817 -7.90761 L -14.4305 -7.89696 L -14.3794 -7.8863 L -14.3282 -7.87564 L -14.277 -7.86497 L -14.2258 -7.85429 L -14.1745 -7.84361 L -14.1233 -7.83292 L -14.0721 -7.82222 L -14.0208 -7.81152 L -13.9695 -7.8008 L -13.9182 -7.79008 L -13.8669 -7.77935 L -13.8156 -7.76862 L -13.7643 -7.75788 L -13.7129 -7.74712 L -13.6616 -7.73637 L -13.6102 -7.7256 L -13.5588 -7.71482 L -13.5074 -7.70404 L -12.8878 -8.61134 L -12.8878 -8.61134 L -12.2867 -9.53101 L -12.3163 -9.57438 L -12.3459 -9.61773 L -12.3755 -9.66107 L -12.4051 -9.7044 L -12.4347 -9.74772 L -12.4643 -9.79104 L -12.4938 -9.83434 L -12.5234 -9.87763 L -12.5529 -9.92092 L -12.5824 -9.96419 L -12.6119 -10.0075 L -12.6414 -10.0507 L -12.6709 -10.094 L -12.7004 -10.1372 L -12.7299 -10.1804 L -12.7593 -10.2236 L -12.7887 -10.2668 L -12.8182 -10.31 L -12.8476 -10.3532 L -12.877 -10.3964 L -12.9064 -10.4396 L -12.9358 -10.4828 L -12.9651 -10.5259 L -12.9945 -10.5691 L -13.0239 -10.6122 L -13.0532 -10.6553 L -13.0825 -10.6985 L -13.1119 -10.7416 L -13.1412 -10.7847 L -13.1705 -10.8278 L -13.1998 -10.8709 L -13.2291 -10.914 L -13.2583 -10.957 L -13.2876 -11.0001 L -13.3169 -11.0432 L -13.3461 -11.0862 L -13.3753 -11.1293 L -13.4046 -11.1723 L -13.4338 -11.2153 L -13.4017 -11.2537 L -13.3695 -11.2919 L -13.3372 -11.3301 L -13.3047 -11.3681 L -13.2722 -11.4061 L -13.2396 -11.444 L -13.2068 -11.4817 L -13.1739 -11.5194 L -13.141 -11.557 L -13.1079 -11.5945 L -13.0747 -11.6319 L -13.0414 -11.6692 L -13.008 -11.7064 L -12.9745 -11.7436 L -12.9409 -11.7806 L -12.9072 -11.8175 L -12.8734 -11.8543 L -12.8395 -11.8911 L -12.8055 -11.9277 L -12.7713 -11.9642 L -12.7371 -12.0007 L -12.7028 -12.037 L -12.6683 -12.0733 L -12.6338 -12.1094 L -12.5991 -12.1455 L -12.5644 -12.1814 L -12.5295 -12.2173 L -12.4945 -12.253 L -12.4595 -12.2887 L -12.4243 -12.3242 L -12.3242 -12.4243 L -12.2887 -12.4595 L -12.253 -12.4945 L -12.2173 -12.5295 L -12.1814 -12.5644 L -12.1455 -12.5991 L -12.1094 -12.6338 L -12.0733 -12.6683 L -12.037 -12.7028 L -12.0007 -12.7371 L -11.9642 -12.7713 L -11.9277 -12.8055 L -11.8911 -12.8395 L -11.8543 -12.8734 L -11.8175 -12.9072 L -11.7806 -12.9409 L -11.7436 -12.9745 L -11.7064 -13.008 L -11.6692 -13.0414 L -11.6319 -13.0747 L -11.5945 -13.1079 L -11.557 -13.141 L -11.5194 -13.1739 L -11.4817 -13.2068 L -11.444 -13.2396 L -11.4061 -13.2722 L -11.3681 -13.3047 L -11.3301 -13.3372 L -11.2919 -13.3695 L -11.2537 -13.4017 L -11.2153 -13.4338 L -11.1723 -13.4046 L -11.1293 -13.3753 L -11.0862 -13.3461 L -11.0432 -13.3169 L -11.0001 -13.2876 L -10.957 -13.2583 L -10.914 -13.2291 L -10.8709 -13.1998 L -10.8278 -13.1705 L -10.7847 -13.1412 L -10.7416 -13.1119 L -10.6985 -13.0825 L -10.6553 -13.0532 L -10.6122 -13.0239 L -10.5691 -12.9945 L -10.5259 -12.9651 L -10.4828 -12.9358 L -10.4396 -12.9064 L -10.3964 -12.877 L -10.3532 -12.8476 L -10.31 -12.8182 L -10.2668 -12.7887 L -10.2236 -12.7593 L -10.1804 -12.7299 L -10.1372 -12.7004 L -10.094 -12.6709 L -10.0507 -12.6414 L -10.0075 -12.6119 L -9.96419 -12.5824 L -9.92092 -12.5529 L -9.87763 -12.5234 L -9.83434 -12.4938 L -9.79104 -12.4643 L -9.74772 -12.4347 L -9.7044 -12.4051 L -9.66107 -12.3755 L -9.61773 -12.3459 L -9.57438 -12.3163 L -9.53101 -12.2867 L -8.61134 -12.8878 L -8.61134 -12.8878 L -7.70404 -13.5074 L -7.71482 -13.5588 L -7.7256 -13.6102 L -7.73637 -13.6616 L -7.74712 -13.7129 L -7.75788 -13.7643 L -7.76862 -13.8156 L -7.77935 -13.8669 L -7.79008 -13.9182 L -7.8008 -13.9695 L -7.81152 -14.0208 L -7.82222 -14.0721 L -7.83292 -14.1233 L -7.84361 -14.1745 L -7.85429 -14.2258 L -7.86497 -14.277 L -7.87564 -14.3282 L -7.8863 -14.3794 L -7.89696 -14.4305 L -7.90761 -14.4817 L -7.91825 -14.5329 L -7.92889 -14.584 L -7.93952 -14.6351 L -7.95014 -14.6862 L -7.96076 -14.7373 L -7.97137 -14.7884 L -7.98197 -14.8395 L -7.99257 -14.8906 L -8.00316 -14.9416 L -8.01374 -14.9927 L -8.02432 -15.0437 L -8.0349 -15.0947 L -8.04547 -15.1457 L -8.05603 -15.1967 L -8.06658 -15.2477 L -8.07713 -15.2987 L -8.08768 -15.3497 L -8.09822 -15.4006 L -8.10875 -15.4516 L -8.11928 -15.5025 L -8.07495 -15.5256 L -8.03056 -15.5486 L -7.9861 -15.5715 L -7.94158 -15.5943 L -7.89699 -15.6169 L -7.85234 -15.6394 L -7.80763 -15.6618 L -7.76285 -15.684 L -7.718 -15.7061 L -7.6731 -15.7281 L -7.62813 -15.75 L -7.5831 -15.7717 L -7.538 -15.7933 L -7.49285 -15.8148 L -7.44763 -15.8361 L -7.40236 -15.8573 L -7.35702 -15.8784 L -7.31162 -15.8994 L -7.26617 -15.9202 L -7.22065 -15.9409 L -7.17508 -15.9615 L -7.12944 -15.9819 L -7.08375 -16.0022 L -7.038 -16.0224 L -6.9922 -16.0424 L -6.94633 -16.0623 L -6.90041 -16.0821 L -6.85443 -16.1018 L -6.8084 -16.1213 L -6.76231 -16.1407 L -6.6315 -16.1949 L -6.5852 -16.2137 L -6.53885 -16.2325 L -6.49244 -16.2511 L -6.44599 -16.2696 L -6.39947 -16.2879 L -6.35291 -16.3061 L -6.3063 -16.3242 L -6.25963 -16.3422 L -6.21291 -16.36 L -6.16614 -16.3777 L -6.11933 -16.3952 L -6.07246 -16.4127 L -6.02554 -16.4299 L -5.97857 -16.4471 L -5.93156 -16.4641 L -5.88449 -16.481 L -5.83738 -16.4977 L -5.79022 -16.5143 L -5.74301 -16.5308 L -5.69576 -16.5472 L -5.64846 -16.5634 L -5.60111 -16.5794 L -5.55372 -16.5954 L -5.50628 -16.6112 L -5.4588 -16.6268 L -5.41127 -16.6424 L -5.3637 -16.6578 L -5.31608 -16.673 L -5.26842 -16.6881 L -5.22072 -16.7031 L -5.19215 -16.6597 L -5.16357 -16.6162 L -5.13499 -16.5727 L -5.10641 -16.5292 L -5.07783 -16.4857 L -5.04924 -16.4422 L -5.02064 -16.3986 L -4.99204 -16.3551 L -4.96344 -16.3116 L -4.93484 -16.268 L -4.90623 -16.2244 L -4.87762 -16.1808 L -4.849 -16.1372 L -4.82038 -16.0936 L -4.79176 -16.05 L -4.76313 -16.0063 L -4.7345 -15.9627 L -4.70587 -15.919 L -4.67723 -15.8753 L -4.64859 -15.8316 L -4.61994 -15.7879 L -4.59129 -15.7442 L -4.56264 -15.7005 L -4.53398 -15.6567 L -4.50532 -15.613 L -4.47665 -15.5692 L -4.44798 -15.5254 L -4.4193 -15.4816 L -4.39062 -15.4378 L -4.36194 -15.3939 L -4.33325 -15.3501 L -4.30456 -15.3062 L -4.27587 -15.2624 L -4.24717 -15.2185 L -4.21846 -15.1746 L -4.18976 -15.1306 L -4.16104 -15.0867 L -4.13233 -15.0427 L -4.1036 -14.9988 L -3.0239 -15.2022 L -3.0239 -15.2022 L -1.94854 -15.4274 L -1.93883 -15.479 L -1.92912 -15.5306 L -1.91941 -15.5822 L -1.9097 -15.6338 L -1.89998 -15.6853 L -1.89026 -15.7369 L -1.88054 -15.7884 L -1.87082 -15.8399 L -1.8611 -15.8914 L -1.85137 -15.9429 L -1.84165 -15.9943 L -1.83192 -16.0458 L -1.82219 -16.0972 L -1.81245 -16.1486 L -1.80272 -16.2 L -1.79298 -16.2514 L -1.78325 -16.3028 L -1.77351 -16.3541 L -1.76377 -16.4055 L -1.75403 -16.4568 L -1.74429 -16.5081 L -1.73454 -16.5594 L -1.72479 -16.6107 L -1.71505 -16.662 L -1.7053 -16.7132 L -1.69555 -16.7645 L -1.6858 -16.8157 L -1.67605 -16.8669 L -1.66629 -16.9181 L -1.65654 -16.9693 L -1.64678 -17.0205 L -1.63702 -17.0717 L -1.62726 -17.1229 L -1.6175 -17.174 L -1.60774 -17.2251 L -1.59798 -17.2763 L -1.58822 -17.3274 L -1.57845 -17.3785 L -1.56869 -17.4296 L -1.51888 -17.434 L -1.46907 -17.4382 L -1.41924 -17.4424 L -1.36939 -17.4463 L -1.31954 -17.4502 L -1.26968 -17.4539 L -1.21981 -17.4574 L -1.16992 -17.4608 L -1.12003 -17.4641 L -1.07013 -17.4673 L -1.02022 -17.4702 L -0.970298 -17.4731 L -0.920372 -17.4758 L -0.870437 -17.4783 L -0.820495 -17.4808 L -0.770547 -17.483 L -0.720593 -17.4852 L -0.670632 -17.4871 L -0.620666 -17.489 L -0.570695 -17.4907 L -0.520719 -17.4923 L -0.47074 -17.4937 L -0.420756 -17.4949 L -0.370769 -17.4961 L -0.320778 -17.4971 L -0.270786 -17.4979 L -0.22079 -17.4986 L -0.170794 -17.4992 L -0.120795 -17.4996 L -0.0707961 -17.4999 L 0.0707961 -17.4999 L 0.120795 -17.4996 L 0.170794 -17.4992 L 0.22079 -17.4986 L 0.270786 -17.4979 L 0.320778 -17.4971 L 0.370769 -17.4961 L 0.420756 -17.4949 L 0.47074 -17.4937 L 0.520719 -17.4923 L 0.570695 -17.4907 L 0.620666 -17.489 L 0.670632 -17.4871 L 0.720593 -17.4852 L 0.770547 -17.483 L 0.820495 -17.4808 L 0.870437 -17.4783 L 0.920372 -17.4758 L 0.970298 -17.4731 L 1.02022 -17.4702 L 1.07013 -17.4673 L 1.12003 -17.4641 L 1.16992 -17.4608 L 1.21981 -17.4574 L 1.26968 -17.4539 L 1.31954 -17.4502 L 1.36939 -17.4463 L 1.41924 -17.4424 L 1.46907 -17.4382 L 1.51888 -17.434 L 1.56869 -17.4296 L 1.57845 -17.3785 L 1.58822 -17.3274 L 1.59798 -17.2763 L 1.60774 -17.2251 L 1.6175 -17.174 L 1.62726 -17.1229 L 1.63702 -17.0717 L 1.64678 -17.0205 L 1.65654 -16.9693 L 1.66629 -16.9181 L 1.67605 -16.8669 L 1.6858 -16.8157 L 1.69555 -16.7645 L 1.7053 -16.7132 L 1.71505 -16.662 L 1.72479 -16.6107 L 1.73454 -16.5594 L 1.74429 -16.5081 L 1.75403 -16.4568 L 1.76377 -16.4055 L 1.77351 -16.3541 L 1.78325 -16.3028 L 1.79298 -16.2514 L 1.80272 -16.2 L 1.81245 -16.1486 L 1.82219 -16.0972 L 1.83192 -16.0458 L 1.84165 -15.9943 L 1.85137 -15.9429 L 1.8611 -15.8914 L 1.87082 -15.8399 L 1.88054 -15.7884 L 1.89026 -15.7369 L 1.89998 -15.6853 L 1.9097 -15.6338 L 1.91941 -15.5822 L 1.92912 -15.5306 L 1.93883 -15.479 L 1.94854 -15.4274 L 3.0239 -15.2022 L 3.0239 -15.2022 L 4.1036 -14.9988 L 4.13233 -15.0427 L 4.16104 -15.0867 L 4.18976 -15.1306 L 4.21846 -15.1746 L 4.24717 -15.2185 L 4.27587 -15.2624 L 4.30456 -15.3062 L 4.33325 -15.3501 L 4.36194 -15.3939 L 4.39062 -15.4378 L 4.4193 -15.4816 L 4.44798 -15.5254 L 4.47665 -15.5692 L 4.50532 -15.613 L 4.53398 -15.6567 L 4.56264 -15.7005 L 4.59129 -15.7442 L 4.61994 -15.7879 L 4.64859 -15.8316 L 4.67723 -15.8753 L 4.70587 -15.919 L 4.7345 -15.9627 L 4.76313 -16.0063 L 4.79176 -16.05 L 4.82038 -16.0936 L 4.849 -16.1372 L 4.87762 -16.1808 L 4.90623 -16.2244 L 4.93484 -16.268 L 4.96344 -16.3116 L 4.99204 -16.3551 L 5.02064 -16.3986 L 5.04924 -16.4422 L 5.07783 -16.4857 L 5.10641 -16.5292 L 5.13499 -16.5727 L 5.16357 -16.6162 L 5.19215 -16.6597 L 5.22072 -16.7031 L 5.26842 -16.6881 L 5.31608 -16.673 L 5.3637 -16.6578 L 5.41127 -16.6424 L 5.4588 -16.6268 L 5.50628 -16.6112 L 5.55372 -16.5954 L 5.60111 -16.5794 L 5.64846 -16.5634 L 5.69576 -16.5472 L 5.74301 -16.5308 L 5.79022 -16.5143 L 5.83738 -16.4977 L 5.88449 -16.481 L 5.93156 -16.4641 L 5.97857 -16.4471 L 6.02554 -16.4299 L 6.07246 -16.4127 L 6.11933 -16.3952 L 6.16614 -16.3777 L 6.21291 -16.36 L 6.25963 -16.3422 L 6.3063 -16.3242 L 6.35291 -16.3061 L 6.39947 -16.2879 L 6.44599 -16.2696 L 6.49244 -16.2511 L 6.53885 -16.2325 L 6.5852 -16.2137 L 6.6315 -16.1949 L 6.76231 -16.1407 L 6.8084 -16.1213 L 6.85443 -16.1018 L 6.90041 -16.0821 L 6.94633 -16.0623 L 6.9922 -16.0424 L 7.038 -16.0224 L 7.08375 -16.0022 L 7.12944 -15.9819 L 7.17508 -15.9615 L 7.22065 -15.9409 L 7.26617 -15.9202 L 7.31162 -15.8994 L 7.35702 -15.8784 L 7.40236 -15.8573 L 7.44763 -15.8361 L 7.49285 -15.8148 L 7.538 -15.7933 L 7.5831 -15.7717 L 7.62813 -15.75 L 7.6731 -15.7281 L 7.718 -15.7061 L 7.76285 -15.684 L 7.80763 -15.6618 L 7.85234 -15.6394 L 7.89699 -15.6169 L 7.94158 -15.5943 L 7.9861 -15.5715 L 8.03056 -15.5486 L 8.07495 -15.5256 L 8.11928 -15.5025 L 8.10875 -15.4516 L 8.09822 -15.4006 L 8.08768 -15.3497 L 8.07713 -15.2987 L 8.06658 -15.2477 L 8.05603 -15.1967 L 8.04547 -15.1457 L 8.0349 -15.0947 L 8.02432 -15.0437 L 8.01374 -14.9927 L 8.00316 -14.9416 L 7.99257 -14.8906 L 7.98197 -14.8395 L 7.97137 -14.7884 L 7.96076 -14.7373 L 7.95014 -14.6862 L 7.93952 -14.6351 L 7.92889 -14.584 L 7.91825 -14.5329 L 7.90761 -14.4817 L 7.89696 -14.4305 L 7.8863 -14.3794 L 7.87564 -14.3282 L 7.86497 -14.277 L 7.85429 -14.2258 L 7.84361 -14.1745 L 7.83292 -14.1233 L 7.82222 -14.0721 L 7.81152 -14.0208 L 7.8008 -13.9695 L 7.79008 -13.9182 L 7.77935 -13.8669 L 7.76862 -13.8156 L 7.75788 -13.7643 L 7.74712 -13.7129 L 7.73637 -13.6616 L 7.7256 -13.6102 L 7.71482 -13.5588 L 7.70404 -13.5074 L 8.61134 -12.8878 L 8.61134 -12.8878 L 9.53101 -12.2867 L 9.57438 -12.3163 L 9.61773 -12.3459 L 9.66107 -12.3755 L 9.7044 -12.4051 L 9.74772 -12.4347 L 9.79104 -12.4643 L 9.83434 -12.4938 L 9.87763 -12.5234 L 9.92092 -12.5529 L 9.96419 -12.5824 L 10.0075 -12.6119 L 10.0507 -12.6414 L 10.094 -12.6709 L 10.1372 -12.7004 L 10.1804 -12.7299 L 10.2236 -12.7593 L 10.2668 -12.7887 L 10.31 -12.8182 L 10.3532 -12.8476 L 10.3964 -12.877 L 10.4396 -12.9064 L 10.4828 -12.9358 L 10.5259 -12.9651 L 10.5691 -12.9945 L 10.6122 -13.0239 L 10.6553 -13.0532 L 10.6985 -13.0825 L 10.7416 -13.1119 L 10.7847 -13.1412 L 10.8278 -13.1705 L 10.8709 -13.1998 L 10.914 -13.2291 L 10.957 -13.2583 L 11.0001 -13.2876 L 11.0432 -13.3169 L 11.0862 -13.3461 L 11.1293 -13.3753 L 11.1723 -13.4046 L 11.2153 -13.4338 L 11.2537 -13.4017 L 11.2919 -13.3695 L 11.3301 -13.3372 L 11.3681 -13.3047 L 11.4061 -13.2722 L 11.444 -13.2396 L 11.4817 -13.2068 L 11.5194 -13.1739 L 11.557 -13.141 L 11.5945 -13.1079 L 11.6319 -13.0747 L 11.6692 -13.0414 L 11.7064 -13.008 L 11.7436 -12.9745 L 11.7806 -12.9409 L 11.8175 -12.9072 L 11.8543 -12.8734 L 11.8911 -12.8395 L 11.9277 -12.8055 L 11.9642 -12.7713 L 12.0007 -12.7371 L 12.037 -12.7028 L 12.0733 -12.6683 L 12.1094 -12.6338 L 12.1455 -12.5991 L 12.1814 -12.5644 L 12.2173 -12.5295 L 12.253 -12.4945 L 12.2887 -12.4595 L 12.3242 -12.4243 L 12.4243 -12.3242 L 12.4595 -12.2887 L 12.4945 -12.253 L 12.5295 -12.2173 L 12.5644 -12.1814 L 12.5991 -12.1455 L 12.6338 -12.1094 L 12.6683 -12.0733 L 12.7028 -12.037 L 12.7371 -12.0007 L 12.7713 -11.9642 L 12.8055 -11.9277 L 12.8395 -11.8911 L 12.8734 -11.8543 L 12.9072 -11.8175 L 12.9409 -11.7806 L 12.9745 -11.7436 L 13.008 -11.7064 L 13.0414 -11.6692 L 13.0747 -11.6319 L 13.1079 -11.5945 L 13.141 -11.557 L 13.1739 -11.5194 L 13.2068 -11.4817 L 13.2396 -11.444 L 13.2722 -11.4061 L 13.3047 -11.3681 L 13.3372 -11.3301 L 13.3695 -11.2919 L 13.4017 -11.2537 L 13.4338 -11.2153 L 13.4046 -11.1723 L 13.3753 -11.1293 L 13.3461 -11.0862 L 13.3169 -11.0432 L 13.2876 -11.0001 L 13.2583 -10.957 L 13.2291 -10.914 L 13.1998 -10.8709 L 13.1705 -10.8278 L 13.1412 -10.7847 L 13.1119 -10.7416 L 13.0825 -10.6985 L 13.0532 -10.6553 L 13.0239 -10.6122 L 12.9945 -10.5691 L 12.9651 -10.5259 L 12.9358 -10.4828 L 12.9064 -10.4396 L 12.877 -10.3964 L 12.8476 -10.3532 L 12.8182 -10.31 L 12.7887 -10.2668 L 12.7593 -10.2236 L 12.7299 -10.1804 L 12.7004 -10.1372 L 12.6709 -10.094 L 12.6414 -10.0507 L 12.6119 -10.0075 L 12.5824 -9.96419 L 12.5529 -9.92092 L 12.5234 -9.87763 L 12.4938 -9.83434 L 12.4643 -9.79104 L 12.4347 -9.74772 L 12.4051 -9.7044 L 12.3755 -9.66107 L 12.3459 -9.61773 L 12.3163 -9.57438 L 12.2867 -9.53101 L 12.8878 -8.61134 L 12.8878 -8.61134 L 13.5074 -7.70404 L 13.5588 -7.71482 L 13.6102 -7.7256 L 13.6616 -7.73637 L 13.7129 -7.74712 L 13.7643 -7.75788 L 13.8156 -7.76862 L 13.8669 -7.77935 L 13.9182 -7.79008 L 13.9695 -7.8008 L 14.0208 -7.81152 L 14.0721 -7.82222 L 14.1233 -7.83292 L 14.1745 -7.84361 L 14.2258 -7.85429 L 14.277 -7.86497 L 14.3282 -7.87564 L 14.3794 -7.8863 L 14.4305 -7.89696 L 14.4817 -7.90761 L 14.5329 -7.91825 L 14.584 -7.92889 L 14.6351 -7.93952 L 14.6862 -7.95014 L 14.7373 -7.96076 L 14.7884 -7.97137 L 14.8395 -7.98197 L 14.8906 -7.99257 L 14.9416 -8.00316 L 14.9927 -8.01374 L 15.0437 -8.02432 L 15.0947 -8.0349 L 15.1457 -8.04547 L 15.1967 -8.05603 L 15.2477 -8.06658 L 15.2987 -8.07713 L 15.3497 -8.08768 L 15.4006 -8.09822 L 15.4516 -8.10875 L 15.5025 -8.11928 L 15.5256 -8.07495 L 15.5486 -8.03056 L 15.5715 -7.9861 L 15.5943 -7.94158 L 15.6169 -7.89699 L 15.6394 -7.85234 L 15.6618 -7.80763 L 15.684 -7.76285 L 15.7061 -7.718 L 15.7281 -7.6731 L 15.75 -7.62813 L 15.7717 -7.5831 L 15.7933 -7.538 L 15.8148 -7.49285 L 15.8361 -7.44763 L 15.8573 -7.40236 L 15.8784 -7.35702 L 15.8994 -7.31162 L 15.9202 -7.26617 L 15.9409 -7.22065 L 15.9615 -7.17508 L 15.9819 -7.12944 L 16.0022 -7.08375 L 16.0224 -7.038 L 16.0424 -6.9922 L 16.0623 -6.94633 L 16.0821 -6.90041 L 16.1018 -6.85443 L 16.1213 -6.8084 L 16.1407 -6.76231 L 16.1949 -6.6315 L 16.2137 -6.5852 L 16.2325 -6.53885 L 16.2511 -6.49244 L 16.2696 -6.44599 L 16.2879 -6.39947 L 16.3061 -6.35291 L 16.3242 -6.3063 L 16.3422 -6.25963 L 16.36 -6.21291 L 16.3777 -6.16614 L 16.3952 -6.11933 L 16.4127 -6.07246 L 16.4299 -6.02554 L 16.4471 -5.97857 L 16.4641 -5.93156 L 16.481 -5.88449 L 16.4977 -5.83738 L 16.5143 -5.79022 L 16.5308 -5.74301 L 16.5472 -5.69576 L 16.5634 -5.64846 L 16.5794 -5.60111 L 16.5954 -5.55372 L 16.6112 -5.50628 L 16.6268 -5.4588 L 16.6424 -5.41127 L 16.6578 -5.3637 L 16.673 -5.31608 L 16.6881 -5.26842 L 16.7031 -5.22072 L 16.6597 -5.19215 L 16.6162 -5.16357 L 16.5727 -5.13499 L 16.5292 -5.10641 L 16.4857 -5.07783 L 16.4422 -5.04924 L 16.3986 -5.02064 L 16.3551 -4.99204 L 16.3116 -4.96344 L 16.268 -4.93484 L 16.2244 -4.90623 L 16.1808 -4.87762 L 16.1372 -4.849 L 16.0936 -4.82038 L 16.05 -4.79176 L 16.0063 -4.76313 L 15.9627 -4.7345 L 15.919 -4.70587 L 15.8753 -4.67723 L 15.8316 -4.64859 L 15.7879 -4.61994 L 15.7442 -4.59129 L 15.7005 -4.56264 L 15.6567 -4.53398 L 15.613 -4.50532 L 15.5692 -4.47665 L 15.5254 -4.44798 L 15.4816 -4.4193 L 15.4378 -4.39062 L 15.3939 -4.36194 L 15.3501 -4.33325 L 15.3062 -4.30456 L 15.2624 -4.27587 L 15.2185 -4.24717 L 15.1746 -4.21846 L 15.1306 -4.18976 L 15.0867 -4.16104 L 15.0427 -4.13233 L 14.9988 -4.1036 L 15.2022 -3.0239 L 15.2022 -3.0239 L 15.4274 -1.94854 L 15.479 -1.93883 L 15.5306 -1.92912 L 15.5822 -1.91941 L 15.6338 -1.9097 L 15.6853 -1.89998 L 15.7369 -1.89026 L 15.7884 -1.88054 L 15.8399 -1.87082 L 15.8914 -1.8611 L 15.9429 -1.85137 L 15.9943 -1.84165 L 16.0458 -1.83192 L 16.0972 -1.82219 L 16.1486 -1.81245 L 16.2 -1.80272 L 16.2514 -1.79298 L 16.3028 -1.78325 L 16.3541 -1.77351 L 16.4055 -1.76377 L 16.4568 -1.75403 L 16.5081 -1.74429 L 16.5594 -1.73454 L 16.6107 -1.72479 L 16.662 -1.71505 L 16.7132 -1.7053 L 16.7645 -1.69555 L 16.8157 -1.6858 L 16.8669 -1.67605 L 16.9181 -1.66629 L 16.9693 -1.65654 L 17.0205 -1.64678 L 17.0717 -1.63702 L 17.1229 -1.62726 L 17.174 -1.6175 L 17.2251 -1.60774 L 17.2763 -1.59798 L 17.3274 -1.58822 L 17.3785 -1.57845 L 17.4296 -1.56869 L 17.434 -1.51888 L 17.4382 -1.46907 L 17.4424 -1.41924 L 17.4463 -1.36939 L 17.4502 -1.31954 L 17.4539 -1.26968 L 17.4574 -1.21981 L 17.4608 -1.16992 L 17.4641 -1.12003 L 17.4673 -1.07013 L 17.4702 -1.02022 L 17.4731 -0.970298 L 17.4758 -0.920372 L 17.4783 -0.870437 L 17.4808 -0.820495 L 17.483 -0.770547 L 17.4852 -0.720593 L 17.4871 -0.670632 L 17.489 -0.620666 L 17.4907 -0.570695 L 17.4923 -0.520719 L 17.4937 -0.47074 L 17.4949 -0.420756 L 17.4961 -0.370769 L 17.4971 -0.320778 L 17.4979 -0.270786 L 17.4986 -0.22079 L 17.4992 -0.170794 L 17.4996 -0.120795 L 17.4999 -0.0707961Z"
id="path1" />
</g>
</svg>
