<?xml version="1.0" encoding="UTF-8" standalone="no"?>
<svg version="1.1">
<g
style="fill:none;stroke:#000000;stroke-opacity:1;stroke-width:0.1">
<path d="M 18.4999 0.0707962 L 18.4996 0.11625 L 18.4993 0.161703 L 18.4988 0.207156 L 18.4983 0.252607 L 18.4976 0.298056 L 18.4968 0.343504 L 18.4959 0.388949 L 18.4949 0.434393 L 18.4938 0.479833 L 18.4925 0.525271 L 18.4912 0.570706 L 18.4897 0.616137 L 18.4882 0.661564 L 18.4865 0.706988 L 18.4847 0.752407 L 18.4828 0.797822 L 18.4808 0.843231 L 18.4786 0.888636 L 18.4764 0.934035 L 18.4741 0.979429 L 18.4716 1.02482 L 18.469 1.0702 L 18.4663 1.11557 L 18.4635 1.16094 L 18.4606 1.2063 L 18.4576 1.25166 L 18.4545 1.297 L 18.4512 1.34234 L 18.4479 1.38767 L 18.4444 1.433 L 18.4408 1.47831 L 18.4372 1.52361 L 18.4334 1.56891 L 18.3871 1.5768 L 18.3408 1.5847 L 18.2944 1.59259 L 18.2481 1.60049 L 18.2018 1.60838 L 18.1555 1.61627 L 18.1091 1.62416 L 18.0628 1.63205 L 18.0164 1.63994 L 17.9701 1.64783 L 17.9237 1.65572 L 17.8773 1.66361 L 17.8309 1.67149 L 17.7845 1.67938 L 17.7381 1.68726 L 17.6917 1.69515 L 17.6453 1.70303 L 17.5988 1.71091 L 17.5524 1.7188 L 17.506 1.72668 L 17.4595 1.73456 L 17.413 1.74244 L 17.3666 1.75032 L 17.3201 1.75819 L 17.2736 1.76607 L 17.2271 1.77395 L 17.1806 1.78182 L 17.1341 1.78969 L 17.0875 1.79757 L 17.041 1.80544 L 16.9944 1.81331 L 16.9479 1.82118 L 16.9013 1.82905 L 16.8547 1.83692 L 16.8082 1.84478 L 16.7616 1.85265 L 16.715 1.86051 L 16.6683 1.86838 L 16.6217 1.87624 L 16.5751 1.8841 L 16.5284 1.89196 L 16.4818 1.89982 L 16.4351 1.90768 L 16.2493 2.86519 L 16.2493 2.86519 L 16.0964 3.82851 L 16.1376 3.85185 L 16.1787 3.8752 L 16.2199 3.89854 L 16.261 3.92187 L 16.3021 3.94521 L 16.3433 3.96854 L 16.3844 3.99187 L 16.4255 4.0152 L 16.4665 4.03852 L 16.5076 4.06185 L 16.5487 4.08517 L 16.5897 4.10849 L 16.6308 4.1318 L 16.6718 4.15512 L 16.7129 4.17843 L 16.7539 4.20174 L 16.7949 4.22505 L 16.8359 4.24835 L 16.8769 4.27166 L 16.9179 4.29496 L 16.9589 4.31825 L 16.9998 4.34155 L 17.0408 4.36484 L 17.0817 4.38814 L 17.1227 4.41143 L 17.1636 4.43471 L 17.2045 4.458 L 17.2455 4.48128 L 17.2864 4.50456 L 17.3273 4.52784 L 17.3682 4.55112 L 17.409 4.5744 L 17.4499 4.59767 L 17.4908 4.62094 L 17.5317 4.64421 L 17.5725 4.66747 L 17.6134 4.69074 L 17.6542 4.714 L 17.695 4.73726 L 17.7359 4.76052 L 17.7767 4.78378 L 17.8175 4.80703 L 17.8583 4.83029 L 17.8464 4.87415 L 17.8343 4.91798 L 17.8222 4.96179 L 17.81 5.00556 L 17.7976 5.0493 L 17.7851 5.09302 L 17.7726 5.1367 L 17.7599 5.18035 L 17.7471 5.22397 L 17.7342 5.26756 L 17.7212 5.31112 L 17.7081 5.35464 L 17.6949 5.39814 L 17.6816 5.4416 L 17.6682 5.48502 L 17.6546 5.52842 L 17.641 5.57178 L 17.6273 5.61511 L 17.6134 5.6584 L 17.5995 5.70166 L 17.5854 5.74488 L 17.5712 5.78807 L 17.557 5.83123 L 17.5426 5.87435 L 17.5281 5.91743 L 17.5135 5.96048 L 17.4988 6.00349 L 17.484 6.04647 L 17.4691 6.08941 L 17.4541 6.13231 L 17.439 6.17518 L 17.4237 6.21801 L 17.4084 6.2608 L 17.36 6.39385 L 17.3442 6.43649 L 17.3283 6.47908 L 17.3124 6.52164 L 17.2963 6.56416 L 17.2801 6.60663 L 17.2638 6.64907 L 17.2474 6.69147 L 17.2309 6.73382 L 17.2144 6.77614 L 17.1977 6.81842 L 17.1808 6.86065 L 17.1639 6.90284 L 17.1469 6.94499 L 17.1298 6.9871 L 17.1126 7.02917 L 17.0953 7.07119 L 17.0778 7.11317 L 17.0603 7.15511 L 17.0427 7.19701 L 17.0249 7.23886 L 17.0071 7.28067 L 16.9892 7.32243 L 16.9711 7.36415 L 16.953 7.40583 L 16.9347 7.44746 L 16.9164 7.48905 L 16.8979 7.53059 L 16.8794 7.57208 L 16.8607 7.61353 L 16.842 7.65494 L 16.8231 7.6963 L 16.8041 7.73761 L 16.7851 7.77887 L 16.7389 7.77046 L 16.6927 7.76204 L 16.6465 7.75362 L 16.6002 7.74519 L 16.554 7.73677 L 16.5078 7.72833 L 16.4615 7.7199 L 16.4153 7.71146 L 16.369 7.70302 L 16.3227 7.69458 L 16.2765 7.68613 L 16.2302 7.67768 L 16.1839 7.66922 L 16.1376 7.66076 L 16.0913 7.6523 L 16.045 7.64384 L 15.9987 7.63537 L 15.9523 7.62689 L 15.906 7.61842 L 15.8597 7.60994 L 15.8133 7.60145 L 15.767 7.59297 L 15.7206 7.58447 L 15.6742 7.57598 L 15.6278 7.56748 L 15.5814 7.55897 L 15.535 7.55047 L 15.4886 7.54196 L 15.4422 7.53344 L 15.3958 7.52492 L 15.3494 7.5164 L 15.3029 7.50787 L 15.2565 7.49933 L 15.21 7.4908 L 15.1635 7.48226 L 15.1171 7.47371 L 15.0706 7.46516 L 15.0241 7.45661 L 14.9776 7.44805 L 14.9311 7.43949 L 14.8846 7.43092 L 14.838 7.42235 L 14.7915 7.41377 L 14.2894 8.25 L 14.2894 8.25 L 13.8163 9.10292 L 13.847 9.13894 L 13.8776 9.17495 L 13.9083 9.21095 L 13.939 9.24695 L 13.9697 9.28294 L 14.0003 9.31893 L 14.031 9.35491 L 14.0616 9.39089 L 14.0922 9.42686 L 14.1229 9.46283 L 14.1535 9.49879 L 14.1841 9.53474 L 14.2147 9.57069 L 14.2453 9.60664 L 14.2758 9.64257 L 14.3064 9.67851 L 14.337 9.71444 L 14.3675 9.75036 L 14.3981 9.78628 L 14.4286 9.82219 L 14.4592 9.8581 L 14.4897 9.894 L 14.5202 9.9299 L 14.5507 9.9658 L 14.5813 10.0017 L 14.6118 10.0376 L 14.6423 10.0734 L 14.6727 10.1093 L 14.7032 10.1452 L 14.7337 10.1811 L 14.7642 10.2169 L 14.7946 10.2528 L 14.8251 10.2886 L 14.8555 10.3245 L 14.886 10.3603 L 14.9164 10.3961 L 14.9468 10.432 L 14.9772 10.4678 L 15.0077 10.5036 L 15.0381 10.5394 L 15.0685 10.5753 L 15.0989 10.6111 L 15.1292 10.6469 L 15.103 10.684 L 15.0767 10.7211 L 15.0504 10.7581 L 15.0239 10.7951 L 14.9973 10.8319 L 14.9706 10.8687 L 14.9439 10.9055 L 14.9171 10.9422 L 14.8901 10.9788 L 14.8631 11.0154 L 14.836 11.0518 L 14.8088 11.0883 L 14.7815 11.1246 L 14.7541 11.1609 L 14.7267 11.1971 L 14.6991 11.2333 L 14.6715 11.2693 L 14.6437 11.3054 L 14.6159 11.3413 L 14.588 11.3772 L 14.56 11.413 L 14.5319 11.4487 L 14.5037 11.4844 L 14.4755 11.52 L 14.4471 11.5555 L 14.4187 11.591 L 14.3902 11.6264 L 14.3616 11.6617 L 14.3329 11.697 L 14.3041 11.7321 L 14.2752 11.7672 L 14.2463 11.8023 L 14.2172 11.8373 L 14.1262 11.9457 L 14.0968 11.9804 L 14.0673 12.015 L 14.0378 12.0495 L 14.0081 12.084 L 13.9784 12.1184 L 13.9486 12.1527 L 13.9187 12.1869 L 13.8887 12.2211 L 13.8586 12.2551 L 13.8285 12.2892 L 13.7982 12.3231 L 13.7679 12.357 L 13.7375 12.3908 L 13.707 12.4245 L 13.6765 12.4581 L 13.6458 12.4917 L 13.6151 12.5252 L 13.5843 12.5586 L 13.5534 12.5919 L 13.5224 12.6252 L 13.4913 12.6584 L 13.4602 12.6915 L 13.429 12.7245 L 13.3977 12.7575 L 13.3663 12.7903 L 13.3348 12.8231 L 13.3033 12.8559 L 13.2716 12.8885 L 13.2399 12.9211 L 13.2081 12.9536 L 13.1763 12.986 L 13.1443 13.0183 L 13.1123 13.0506 L 13.0718 13.0269 L 13.0312 13.0032 L 12.9907 12.9794 L 12.9501 12.9557 L 12.9095 12.932 L 12.869 12.9082 L 12.8284 12.8845 L 12.7878 12.8608 L 12.7472 12.837 L 12.7067 12.8132 L 12.6661 12.7895 L 12.6255 12.7657 L 12.5849 12.7419 L 12.5442 12.7181 L 12.5036 12.6944 L 12.463 12.6706 L 12.4224 12.6468 L 12.3817 12.623 L 12.3411 12.5991 L 12.3005 12.5753 L 12.2598 12.5515 L 12.2191 12.5277 L 12.1785 12.5038 L 12.1378 12.48 L 12.0971 12.4561 L 12.0564 12.4323 L 12.0158 12.4084 L 11.9751 12.3845 L 11.9344 12.3607 L 11.8936 12.3368 L 11.8529 12.3129 L 11.8122 12.289 L 11.7715 12.2651 L 11.7307 12.2412 L 11.69 12.2173 L 11.6492 12.1933 L 11.6085 12.1694 L 11.5677 12.1455 L 11.5269 12.1215 L 11.4862 12.0976 L 11.4454 12.0736 L 11.4046 12.0496 L 11.3638 12.0257 L 10.606 12.6397 L 10.606 12.6397 L 9.86965 13.2794 L 9.88618 13.3237 L 9.9027 13.3681 L 9.91922 13.4124 L 9.93573 13.4567 L 9.95223 13.501 L 9.96873 13.5453 L 9.98522 13.5896 L 10.0017 13.6339 L 10.0182 13.6782 L 10.0347 13.7224 L 10.0511 13.7667 L 10.0676 13.811 L 10.0841 13.8552 L 10.1005 13.8995 L 10.1169 13.9437 L 10.1334 13.9879 L 10.1498 14.0321 L 10.1663 14.0763 L 10.1827 14.1205 L 10.1991 14.1647 L 10.2155 14.2089 L 10.2319 14.2531 L 10.2483 14.2973 L 10.2647 14.3414 L 10.2811 14.3856 L 10.2975 14.4297 L 10.3139 14.4739 L 10.3303 14.518 L 10.3466 14.5622 L 10.363 14.6063 L 10.3794 14.6504 L 10.3957 14.6945 L 10.4121 14.7386 L 10.4284 14.7827 L 10.4448 14.8268 L 10.4611 14.8709 L 10.4775 14.915 L 10.4938 14.959 L 10.5101 15.0031 L 10.5264 15.0472 L 10.5428 15.0912 L 10.5591 15.1353 L 10.5754 15.1793 L 10.5381 15.2052 L 10.5007 15.2311 L 10.4632 15.2568 L 10.4257 15.2825 L 10.3881 15.3081 L 10.3505 15.3335 L 10.3128 15.3589 L 10.275 15.3842 L 10.2372 15.4094 L 10.1993 15.4345 L 10.1613 15.4595 L 10.1233 15.4845 L 10.0852 15.5093 L 10.0471 15.534 L 10.0089 15.5587 L 9.97065 15.5832 L 9.93233 15.6077 L 9.89395 15.632 L 9.85551 15.6563 L 9.81702 15.6804 L 9.77846 15.7045 L 9.73984 15.7285 L 9.70117 15.7524 L 9.66244 15.7762 L 9.62364 15.7999 L 9.5848 15.8235 L 9.54589 15.847 L 9.50692 15.8704 L 9.4679 15.8937 L 9.42882 15.9169 L 9.38969 15.94 L 9.35049 15.963 L 9.31124 15.986 L 9.18862 16.0568 L 9.14914 16.0793 L 9.10961 16.1017 L 9.07002 16.124 L 9.03037 16.1463 L 8.99068 16.1684 L 8.95092 16.1905 L 8.91112 16.2124 L 8.87125 16.2342 L 8.83134 16.256 L 8.79137 16.2776 L 8.75135 16.2992 L 8.71128 16.3207 L 8.67115 16.342 L 8.63097 16.3633 L 8.59074 16.3844 L 8.55046 16.4055 L 8.51013 16.4264 L 8.46974 16.4473 L 8.4293 16.4681 L 8.38882 16.4887 L 8.34828 16.5093 L 8.30769 16.5297 L 8.26705 16.5501 L 8.22636 16.5704 L 8.18563 16.5905 L 8.14484 16.6106 L 8.104 16.6305 L 8.06311 16.6504 L 8.02218 16.6702 L 7.9812 16.6898 L 7.94017 16.7094 L 7.89909 16.7288 L 7.85796 16.7482 L 7.82798 16.7121 L 7.79799 16.6759 L 7.768 16.6398 L 7.738 16.6036 L 7.70801 16.5674 L 7.678 16.5312 L 7.648 16.495 L 7.61799 16.4589 L 7.58798 16.4227 L 7.55797 16.3864 L 7.52795 16.3502 L 7.49793 16.314 L 7.4679 16.2778 L 7.43788 16.2415 L 7.40784 16.2053 L 7.37781 16.169 L 7.34777 16.1328 L 7.31773 16.0965 L 7.28768 16.0602 L 7.25763 16.0239 L 7.22758 15.9877 L 7.19752 15.9514 L 7.16746 15.915 L 7.1374 15.8787 L 7.10733 15.8424 L 7.07726 15.8061 L 7.04719 15.7697 L 7.01711 15.7334 L 6.98703 15.697 L 6.95694 15.6606 L 6.92685 15.6243 L 6.89676 15.5879 L 6.86666 15.5515 L 6.83656 15.5151 L 6.80645 15.4787 L 6.77634 15.4423 L 6.74623 15.4058 L 6.71611 15.3694 L 6.68599 15.3329 L 6.65586 15.2965 L 6.62573 15.26 L 6.5956 15.2235 L 6.56546 15.1871 L 5.64333 15.5049 L 5.64333 15.5049 L 4.73262 15.8542 L 4.73299 15.9015 L 4.73335 15.9488 L 4.73371 15.9961 L 4.73406 16.0434 L 4.73442 16.0907 L 4.73477 16.1379 L 4.73512 16.1852 L 4.73546 16.2325 L 4.7358 16.2797 L 4.73614 16.3269 L 4.73648 16.3742 L 4.73682 16.4214 L 4.73715 16.4686 L 4.73748 16.5158 L 4.7378 16.563 L 4.73813 16.6102 L 4.73845 16.6573 L 4.73877 16.7045 L 4.73908 16.7516 L 4.7394 16.7988 L 4.73971 16.8459 L 4.74002 16.8931 L 4.74032 16.9402 L 4.74063 16.9873 L 4.74093 17.0344 L 4.74123 17.0815 L 4.74153 17.1286 L 4.74182 17.1756 L 4.74212 17.2227 L 4.74241 17.2698 L 4.74269 17.3168 L 4.74298 17.3639 L 4.74326 17.4109 L 4.74355 17.4579 L 4.74383 17.505 L 4.7441 17.552 L 4.74438 17.599 L 4.74465 17.646 L 4.74493 17.693 L 4.7452 17.74 L 4.74546 17.7869 L 4.74573 17.8339 L 4.74599 17.8809 L 4.70204 17.8925 L 4.65807 17.904 L 4.61406 17.9154 L 4.57003 17.9267 L 4.52597 17.9378 L 4.48189 17.9489 L 4.43777 17.9598 L 4.39363 17.9707 L 4.34946 17.9814 L 4.30527 17.9921 L 4.26105 18.0026 L 4.21681 18.013 L 4.17254 18.0233 L 4.12824 18.0335 L 4.08392 18.0436 L 4.03957 18.0536 L 3.9952 18.0635 L 3.95081 18.0732 L 3.90639 18.0829 L 3.86195 18.0924 L 3.81749 18.1018 L 3.773 18.1112 L 3.72849 18.1204 L 3.68395 18.1295 L 3.6394 18.1385 L 3.59482 18.1474 L 3.55022 18.1562 L 3.5056 18.1648 L 3.46096 18.1734 L 3.4163 18.1818 L 3.37162 18.1902 L 3.32691 18.1984 L 3.28219 18.2065 L 3.14275 18.2311 L 3.09794 18.2388 L 3.05312 18.2463 L 3.00828 18.2538 L 2.96342 18.2611 L 2.91855 18.2683 L 2.87365 18.2755 L 2.82874 18.2825 L 2.78381 18.2894 L 2.73887 18.2961 L 2.6939 18.3028 L 2.64893 18.3094 L 2.60393 18.3158 L 2.55892 18.3222 L 2.5139 18.3284 L 2.46886 18.3345 L 2.4238 18.3405 L 2.37873 18.3464 L 2.33365 18.3522 L 2.28855 18.3579 L 2.24344 18.3635 L 2.19831 18.3689 L 2.15317 18.3743 L 2.10802 18.3795 L 2.06285 18.3846 L 2.01768 18.3896 L 1.97249 18.3945 L 1.92729 18.3993 L 1.88207 18.404 L 1.83685 18.4086 L 1.79161 18.413 L 1.74637 18.4174 L 1.70111 18.4216 L 1.65584 18.4257 L 1.64003 18.3815 L 1.62421 18.3373 L 1.6084 18.2931 L 1.59258 18.2488 L 1.57677 18.2046 L 1.56095 18.1603 L 1.54513 18.116 L 1.52931 18.0718 L 1.51349 18.0275 L 1.49767 17.9832 L 1.48185 17.9389 L 1.46603 17.8946 L 1.45021 17.8503 L 1.43438 17.806 L 1.41856 17.7616 L 1.40274 17.7173 L 1.38691 17.6729 L 1.37109 17.6286 L 1.35526 17.5842 L 1.33943 17.5398 L 1.3236 17.4955 L 1.30778 17.4511 L 1.29195 17.4067 L 1.27612 17.3623 L 1.26029 17.3178 L 1.24446 17.2734 L 1.22863 17.229 L 1.21279 17.1845 L 1.19696 17.1401 L 1.18113 17.0956 L 1.16529 17.0511 L 1.14946 17.0067 L 1.13362 16.9622 L 1.11779 16.9177 L 1.10195 16.8731 L 1.08611 16.8286 L 1.07027 16.7841 L 1.05444 16.7396 L 1.0386 16.695 L 1.02276 16.6504 L 1.00692 16.6059 L 0.991074 16.5613 L 0.975232 16.5167 L 1.33227e-15 16.5 L 6.884e-16 16.5 L -0.975232 16.5167 L -0.991074 16.5613 L -1.00692 16.6059 L -1.02276 16.6504 L -1.0386 16.695 L -1.05444 16.7396 L -1.07027 16.7841 L -1.08611 16.8286 L -1.10195 16.8731 L -1.11779 16.9177 L -1.13362 16.9622 L -1.14946 17.0067 L -1.16529 17.0511 L -1.18113 17.0956 L -1.19696 17.1401 L -1.21279 17.1845 L -1.22863 17.229 L -1.24446 17.2734 L -1.26029 17.3178 L -1.27612 17.3623 L -1.29195 17.4067 L -1.30778 17.4511 L -1.3236 17.4955 L -1.33943 17.5398 L -1.35526 17.5842 L -1.37109 17.6286 L -1.38691 17.6729 L -1.40274 17.7173 L -1.41856 17.7616 L -1.43438 17.806 L -1.45021 17.8503 L -1.46603 17.8946 L -1.48185 17.9389 L -1.49767 17.9832 L -1.51349 18.0275 L -1.52931 18.0718 L -1.54513 18.116 L -1.56095 18.1603 L -1.57677 18.2046 L -1.59258 18.2488 L -1.6084 18.2931 L -1.62421 18.3373 L -1.64003 18.3815 L -1.65584 18.4257 L -1.70111 18.4216 L -1.74637 18.4174 L -1.79161 18.413 L -1.83685 18.4086 L -1.88207 18.404 L -1.92729 18.3993 L -1.97249 18.3945 L -2.01768 18.3896 L -2.06285 18.3846 L -2.10802 18.3795 L -2.15317 18.3743 L -2.19831 18.3689 L -2.24344 18.3635 L -2.28855 18.3579 L -2.33365 18.3522 L -2.37873 18.3464 L -2.4238 18.3405 L -2.46886 18.3345 L -2.5139 18.3284 L -2.55892 18.3222 L -2.60393 18.3158 L -2.64893 18.3094 L -2.6939 18.3028 L -2.73887 18.2961 L -2.78381 18.2894 L -2.82874 18.2825 L -2.87365 18.2755 L -2.91855 18.2683 L -2.96342 18.2611 L -3.00828 18.2538 L -3.05312 18.2463 L -3.09794 18.2388 L -3.14275 18.2311 L -3.28219 18.2065 L -3.32691 18.1984 L -3.37162 18.1902 L -3.4163 18.1818 L -3.46096 18.1734 L -3.5056 18.1648 L -3.55022 18.1562 L -3.59482 18.1474 L -3.6394 18.1385 L -3.68395 18.1295 L -3.72849 18.1204 L -3.773 18.1112 L -3.81749 18.1018 L -3.86195 18.0924 L -3.90639 18.0829 L -3.95081 18.0732 L -3.9952 18.0635 L -4.03957 18.0536 L -4.08392 18.0436 L -4.12824 18.0335 L -4.17254 18.0233 L -4.21681 18.013 L -4.26105 18.0026 L -4.30527 17.9921 L -4.34946 17.9814 L -4.39363 17.9707 L -4.43777 17.9598 L -4.48189 17.9489 L -4.52597 17.9378 L -4.57003 17.9267 L -4.61406 17.9154 L -4.65807 17.904 L -4.70204 17.8925 L -4.74599 17.8809 L -4.74573 17.8339 L -4.74546 17.7869 L -4.7452 17.74 L -4.74493 17.693 L -4.74465 17.646 L -4.74438 17.599 L -4.7441 17.552 L -4.74383 17.505 L -4.74355 17.4579 L -4.74326 17.4109 L -4.74298 17.3639 L -4.74269 17.3168 L -4.74241 17.2698 L -4.74212 17.2227 L -4.74182 17.1756 L -4.74153 17.1286 L -4.74123 17.0815 L -4.74093 17.0344 L -4.74063 16.9873 L -4.74032 16.9402 L -4.74002 16.8931 L -4.73971 16.8459 L -4.7394 16.7988 L -4.73908 16.7516 L -4.73877 16.7045 L -4.73845 16.6573 L -4.73813 16.6102 L -4.7378 16.563 L -4.73748 16.5158 L -4.73715 16.4686 L -4.73682 16.4214 L -4.73648 16.3742 L -4.73614 16.3269 L -4.7358 16.2797 L -4.73546 16.2325 L -4.73512 16.1852 L -4.73477 16.1379 L -4.73442 16.0907 L -4.73406 16.0434 L -4.73371 15.9961 L -4.73335 15.9488 L -4.73299 15.9015 L -4.73262 15.8542 L -5.64333 15.5049 L -5.64333 15.5049 L -6.56546 15.1871 L -6.5956 15.2235 L -6.62573 15.26 L -6.65586 15.2965 L -6.68599 15.3329 L -6.71611 15.3694 L -6.74623 15.4058 L -6.77634 15.4423 L -6.80645 15.4787 L -6.83656 15.5151 L -6.86666 15.5515 L -6.89676 15.5879 L -6.92685 15.6243 L -6.95694 15.6606 L -6.98703 15.697 L -7.01711 15.7334 L -7.04719 15.7697 L -7.07726 15.8061 L -7.10733 15.8424 L -7.1374 15.8787 L -7.16746 15.915 L -7.19752 15.9514 L -7.22758 15.9877 L -7.25763 16.0239 L -7.28768 16.0602 L -7.31773 16.0965 L -7.34777 16.1328 L -7.37781 16.169 L -7.40784 16.2053 L -7.43788 16.2415 L -7.4679 16.2778 L -7.49793 16.314 L -7.52795 16.3502 L -7.55797 16.3864 L -7.58798 16.4227 L -7.61799 16.4589 L -7.648 16.495 L -7.678 16.5312 L -7.70801 16.5674 L -7.738 16.6036 L -7.768 16.6398 L -7.79799 16.6759 L -7.82798 16.7121 L -7.85796 16.7482 L -7.89909 16.7288 L -7.94017 16.7094 L -7.9812 16.6898 L -8.02218 16.6702 L -8.06311 16.6504 L -8.104 16.6305 L -8.14484 16.6106 L -8.18563 16.5905 L -8.22636 16.5704 L -8.26705 16.5501 L -8.30769 16.5297 L -8.34828 16.5093 L -8.38882 16.4887 L -8.4293 16.4681 L -8.46974 16.4473 L -8.51013 16.4264 L -8.55046 16.4055 L -8.59074 16.3844 L -8.63097 16.3633 L -8.67115 16.342 L -8.71128 16.3207 L -8.75135 16.2992 L -8.79137 16.2776 L -8.83134 16.256 L -8.87125 16.2342 L -8.91112 16.2124 L -8.95092 16.1905 L -8.99068 16.1684 L -9.03037 16.1463 L -9.07002 16.124 L -9.10961 16.1017 L -9.14914 16.0793 L -9.18862 16.0568 L -9.31124 15.986 L -9.35049 15.963 L -9.38969 15.94 L -9.42882 15.9169 L -9.4679 15.8937 L -9.50692 15.8704 L -9.54589 15.847 L -9.5848 15.8235 L -9.62364 15.7999 L -9.66244 15.7762 L -9.70117 15.7524 L -9.73984 15.7285 L -9.77846 15.7045 L -9.81702 15.6804 L -9.85551 15.6563 L -9.89395 15.632 L -9.93233 15.6077 L -9.97065 15.5832 L -10.0089 15.5587 L -10.0471 15.534 L -10.0852 15.5093 L -10.1233 15.4845 L -10.1613 15.4595 L -10.1993 15.4345 L -10.2372 15.4094 L -10.275 15.3842 L -10.3128 15.3589 L -10.3505 15.3335 L -10.3881 15.3081 L -10.4257 15.2825 L -10.4632 15.2568 L -10.5007 15.2311 L -10.5381 15.2052 L -10.5754 15.1793 L -10.5591 15.1353 L -10.5428 15.0912 L -10.5264 15.0472 L -10.5101 15.0031 L -10.4938 14.959 L -10.4775 14.915 L -10.4611 14.8709 L -10.4448 14.8268 L -10.4284 14.7827 L -10.4121 14.7386 L -10.3957 14.6945 L -10.3794 14.6504 L -10.363 14.6063 L -10.3466 14.5622 L -10.3303 14.518 L -10.3139 14.4739 L -10.2975 14.4297 L -10.2811 14.3856 L -10.2647 14.3414 L -10.2483 14.2973 L -10.2319 14.2531 L -10.2155 14.2089 L -10.1991 14.1647 L -10.1827 14.1205 L -10.1663 14.0763 L -10.1498 14.0321 L -10.1334 13.9879 L -10.1169 13.9437 L -10.1005 13.8995 L -10.0841 13.8552 L -10.0676 13.811 L -10.0511 13.7667 L -10.0347 13.7224 L -10.0182 13.6782 L -10.0017 13.6339 L -9.98522 13.5896 L -9.96873 13.5453 L -9.95223 13.501 L -9.93573 13.4567 L -9.91922 13.4124 L -9.9027 13.3681 L -9.88618 13.3237 L -9.86965 13.2794 L -10.606 12.6397 L -10.606 12.6397 L -11.3638 12.0257 L -11.4046 12.0496 L -11.4454 12.0736 L -11.4862 12.0976 L -11.5269 12.1215 L -11.5677 12.1455 L -11.6085 12.1694 L -11.6492 12.1933 L -11.69 12.2173 L -11.7307 12.2412 L -11.7715 12.2651 L -11.8122 12.289 L -11.8529 12.3129 L -11.8936 12.3368 L -11.9344 12.3607 L -11.9751 12.3845 L -12.0158 12.4084 L -12.0564 12.4323 L -12.0971 12.4561 L -12.1378 12.48 L -12.1785 12.5038 L -12.2191 12.5277 L -12.2598 12.5515 L -12.3005 12.5753 L -12.3411 12.5991 L -12.3817 12.623 L -12.4224 12.6468 L -12.463 12.6706 L -12.5036 12.6944 L -12.5442 12.7181 L -12.5849 12.7419 L -12.6255 12.7657 L -12.6661 12.7895 L -12.7067 12.8132 L -12.7472 12.837 L -12.7878 12.8608 L -12.8284 12.8845 L -12.869 12.9082 L -12.9095 12.932 L -12.9501 12.9557 L -12.9907 12.9794 L -13.0312 13.0032 L -13.0718 13.0269 L -13.1123 13.0506 L -13.1443 13.0183 L -13.1763 12.986 L -13.2081 12.9536 L -13.2399 12.9211 L -13.2716 12.8885 L -13.3033 12.8559 L -13.3348 12.8231 L -13.3663 12.7903 L -13.3977 12.7575 L -13.429 12.7245 L -13.4602 12.6915 L -13.4913 12.6584 L -13.5224 12.6252 L -13.5534 12.5919 L -13.5843 12.5586 L -13.6151 12.5252 L -13.6458 12.4917 L -13.6765 12.4581 L -13.707 12.4245 L -13.7375 12.3908 L -13.7679 12.357 L -13.7982 12.3231 L -13.8285 12.2892 L -13.8586 12.2551 L -13.8887 12.2211 L -13.9187 12.1869 L -13.9486 12.1527 L -13.9784 12.1184 L -14.0081 12.084 L -14.0378 12.0495 L -14.0673 12.015 L -14.0968 11.9804 L -14.1262 11.9457 L -14.2172 11.8373 L -14.2463 11.8023 L -14.2752 11.7672 L -14.3041 11.7321 L -14.3329 11.697 L -14.3616 11.6617 L -14.3902 11.6264 L -14.4187 11.591 L -14.4471 11.5555 L -14.4755 11.52 L -14.5037 11.4844 L -14.5319 11.4487 L -14.56 11.413 L -14.588 11.3772 L -14.6159 11.3413 L -14.6437 11.3054 L -14.6715 11.2693 L -14.6991 11.2333 L -14.7267 11.1971 L -14.7541 11.1609 L -14.7815 11.1246 L -14.8088 11.0883 L -14.836 11.0518 L -14.8631 11.0154 L -14.8901 10.9788 L -14.9171 10.9422 L -14.9439 10.9055 L -14.9706 10.8687 L -14.9973 10.8319 L -15.0239 10.7951 L -15.0504 10.7581 L -15.0767 10.7211 L -15.103 10.684 L -15.1292 10.6469 L -15.0989 10.6111 L -15.0685 10.5753 L -15.0381 10.5394 L -15.0077 10.5036 L -14.9772 10.4678 L -14.9468 10.432 L -14.9164 10.3961 L -14.886 10.3603 L -14.8555 10.3245 L -14.8251 10.2886 L -14.7946 10.2528 L -14.7642 10.2169 L -14.7337 10.1811 L -14.7032 10.1452 L -14.6727 10.1093 L -14.6423 10.0734 L -14.6118 10.0376 L -14.5813 10.0017 L -14.5507 9.9658 L -14.5202 9.9299 L -14.4897 9.894 L -14.4592 9.8581 L -14.4286 9.82219 L -14.3981 9.78628 L -14.3675 9.75036 L -14.337 9.71444 L -14.3064 9.67851 L -14.2758 9.64257 L -14.2453 9.60664 L -14.2147 9.57069 L -14.1841 9.53474 L -14.1535 9.49879 L -14.1229 9.46283 L -14.0922 9.42686 L -14.0616 9.39089 L -14.031 9.35491 L -14.0003 9.31893 L -13.9697 9.28294 L -13.939 9.24695 L -13.9083 9.21095 L -13.8776 9.17495 L -13.847 9.13894 L -13.8163 9.10292 L -14.2894 8.25 L -14.2894 8.25 L -14.7915 7.41377 L -14.838 7.42235 L -14.8846 7.43092 L -14.9311 7.43949 L -14.9776 7.44805 L -15.0241 7.45661 L -15.0706 7.46516 L -15.1171 7.47371 L -15.1635 7.48226 L -15.21 7.4908 L -15.2565 7.49933 L -15.3029 7.50787 L -15.3494 7.5164 L -15.3958 7.52492 L -15.4422 7.53344 L -15.4886 7.54196 L -15.535 7.55047 L -15.5814 7.55897 L -15.6278 7.56748 L -15.6742 7.57598 L -15.7206 7.58447 L -15.767 7.59297 L -15.8133 7.60145 L -15.8597 7.60994 L -15.906 7.61842 L -15.9523 7.62689 L -15.9987 7.63537 L -16.045 7.64384 L -16.0913 7.6523 L -16.1376 7.66076 L -16.1839 7.66922 L -16.2302 7.67768 L -16.2765 7.68613 L -16.3227 7.69458 L -16.369 7.70302 L -16.4153 7.71146 L -16.4615 7.7199 L -16.5078 7.72833 L -16.554 7.73677 L -16.6002 7.74519 L -16.6465 7.75362 L -16.6927 7.76204 L -16.7389 7.77046 L -16.7851 7.77887 L -16.8041 7.73761 L -16.8231 7.6963 L -16.842 7.65494 L -16.8607 7.61353 L -16.8794 7.57208 L -16.8979 7.53059 L -16.9164 7.48905 L -16.9347 7.44746 L -16.953 7.40583 L -16.9711 7.36415 L -16.9892 7.32243 L -17.0071 7.28067 L -17.0249 7.23886 L -17.0427 7.19701 L -17.0603 7.15511 L -17.0778 7.11317 L -17.0953 7.07119 L -17.1126 7.02917 L -17.1298 6.9871 L -17.1469 6.94499 L -17.1639 6.90284 L -17.1808 6.86065 L -17.1977 6.81842 L -17.2144 6.77614 L -17.2309 6.73382 L -17.2474 6.69147 L -17.2638 6.64907 L -17.2801 6.60663 L -17.2963 6.56416 L -17.3124 6.52164 L -17.3283 6.47908 L -17.3442 6.43649 L -17.36 6.39385 L -17.4084 6.2608 L -17.4237 6.21801 L -17.439 6.17518 L -17.4541 6.13231 L -17.4691 6.08941 L -17.484 6.04647 L -17.4988 6.00349 L -17.5135 5.96048 L -17.5281 5.91743 L -17.5426 5.87435 L -17.557 5.83123 L -17.5712 5.78807 L -17.5854 5.74488 L -17.5995 5.70166 L -17.6134 5.6584 L -17.6273 5.61511 L -17.641 5.57178 L -17.6546 5.52842 L -17.6682 5.48502 L -17.6816 5.4416 L -17.6949 5.39814 L -17.7081 5.35464 L -17.7212 5.31112 L -17.7342 5.26756 L -17.7471 5.22397 L -17.7599 5.18035 L -17.7726 5.1367 L -17.7851 5.09302 L -17.7976 5.0493 L -17.81 5.00556 L -17.8222 4.96179 L -17.8343 4.91798 L -17.8464 4.87415 L -17.8583 4.83029 L -17.8175 4.80703 L -17.7767 4.78378 L -17.7359 4.76052 L -17.695 4.73726 L -17.6542 4.714 L -17.6134 4.69074 L -17.5725 4.66747 L -17.5317 4.64421 L -17.4908 4.62094 L -17.4499 4.59767 L -17.409 4.5744 L -17.3682 4.55112 L -17.3273 4.52784 L -17.2864 4.50456 L -17.2455 4.48128 L -17.2045 4.458 L -17.1636 4.43471 L -17.1227 4.41143 L -17.0817 4.38814 L -17.0408 4.36484 L -16.9998 4.34155 L -16.9589 4.31825 L -16.9179 4.29496 L -16.8769 4.27166 L -16.8359 4.24835 L -16.7949 4.22505 L -16.7539 4.20174 L -16.7129 4.17843 L -16.6718 4.15512 L -16.6308 4.1318 L -16.5897 4.10849 L -16.5487 4.08517 L -16.5076 4.06185 L -16.4665 4.03852 L -16.4255 4.0152 L -16.3844 3.99187 L -16.3433 3.96854 L -16.3021 3.94521 L -16.261 3.92187 L -16.2199 3.89854 L -16.1787 3.8752 L -16.1376 3.85185 L -16.0964 3.82851 L -16.2493 2.86519 L -16.2493 2.86519 L -16.4351 1.90768 L -16.4818 1.89982 L -16.5284 1.89196 L -16.5751 1.8841 L -16.6217 1.87624 L -16.6683 1.86838 L -16.715 1.86051 L -16.7616 1.85265 L -16.8082 1.84478 L -16.8547 1.83692 L -16.9013 1.82905 L -16.9479 1.82118 L -16.9944 1.81331 L -17.041 1.80544 L -17.0875 1.79757 L -17.1341 1.78969 L -17.1806 1.78182 L -17.2271 1.77395 L -17.2736 1.76607 L -17.3201 1.75819 L -17.3666 1.75032 L -17.413 1.74244 L -17.4595 1.73456 L -17.506 1.72668 L -17.5524 1.7188 L -17.5988 1.71091 L -17.6453 1.70303 L -17.6917 1.69515 L -17.7381 1.68726 L -17.7845 1.67938 L -17.8309 1.67149 L -17.8773 1.66361 L -17.9237 1.65572 L -17.9701 1.64783 L -18.0164 1.63994 L -18.0628 1.63205 L -18.1091 1.62416 L -18.1555 1.61627 L -18.2018 1.60838 L -18.2481 1.60049 L -18.2944 1.59259 L -18.3408 1.5847 L -18.3871 1.5768 L -18.4334 1.56891 L -18.4372 1.52361 L -18.4408 1.47831 L -18.4444 1.433 L -18.4479 1.38767 L -18.4512 1.34234 L -18.4545 1.297 L -18.4576 1.25166 L -18.4606 1.2063 L -18.4635 1.16094 L -18.4663 1.11557 L -18.469 1.0702 L -18.4716 1.02482 L -18.4741 0.979429 L -18.4764 0.934035 L -18.4786 0.888636 L -18.4808 0.843231 L -18.4828 0.797822 L -18.4847 0.752407 L -18.4865 0.706988 L -18.4882 0.661564 L -18.4897 0.616137 L -18.4912 0.570706 L -18.4925 0.525271 L -18.4938 0.479833 L -18.4949 0.434393 L -18.4959 0.388949 L -18.4968 0.343504 L -18.4976 0.298056 L -18.4983 0.252607 L -18.4988 0.207156 L -18.4993 0.161703 L -18.4996 0.11625 L -18.4999 0.0707962 L -18.4999 -0.0707962 L -18.4996 -0.11625 L -18.4993 -0.161703 L -18.4988 -0.207156 L -18.4983 -0.252607 L -18.4976 -0.298056 L -18.4968 -0.343504 L -18.4959 -0.388949 L -18.4949 -0.434393 L -18.4938 -0.479833 L -18.4925 -0.525271 L -18.4912 -0.570706 L -18.4897 -0.616137 L -18.4882 -0.661564 L -18.4865 -0.706988 L -18.4847 -0.752407 L -18.4828 -0.797822 L -18.4808 -0.843231 L -18.4786 -0.888636 L -18.4764 -0.934035 L -18.4741 -0.979429 L -18.4716 -1.02482 L -18.469 -1.0702 L -18.4663 -1.11557 L -18.4635 -1.16094 L -18.4606 -1.2063 L -18.4576 -1.25166 L -18.4545 -1.297 L -18.4512 -1.34234 L -18.4479 -1.38767 L -18.4444 -1.433 L -18.4408 -1.47831 L -18.4372 -1.52361 L -18.4334 -1.56891 L -18.3871 -1.5768 L -18.3408 -1.5847 L -18.2944 -1.59259 L -18.2481 -1.60049 L -18.2018 -1.60838 L -18.1555 -1.61627 L -18.1091 -1.62416 L -18.0628 -1.63205 L -18.0164 -1.63994 L -17.9701 -1.64783 L -17.9237 -1.65572 L -17.8773 -1.66361 L -17.8309 -1.67149 L -17.7845 -1.67938 L -17.7381 -1.68726 L -17.6917 -1.69515 L -17.6453 -1.70303 L -17.5988 -1.71091 L -17.5524 -1.7188 L -17.506 -1.72668 L -17.4595 -1.73456 L -17.413 -1.74244 L -17.3666 -1.75032 L -17.3201 -1.75819 L -17.2736 -1.76607 L -17.2271 -1.77395 L -17.1806 -1.78182 L -17.1341 -1.78969 L -17.0875 -1.79757 L -17.041 -1.80544 L -16.9944 -1.81331 L -16.9479 -1.82118 L -16.9013 -1.82905 L -16.8547 -1.83692 L -16.8082 -1.84478 L -16.7616 -1.85265 L -16.715 -1.86051 L -16.6683 -1.86838 L -16.6217 -1.87624 L -16.5751 -1.8841 L -16.5284 -1.89196 L -16.4818 -1.89982 L -16.4351 -1.90768 L -16.2493 -2.86519 L -16.2493 -2.86519 L -16.0964 -3.82851 L -16.1376 -3.85185 L -16.1787 -3.8752 L -16.2199 -3.89854 L -16.261 -3.92187 L -16.3021 -3.94521 L -16.3433 -3.96854 L -16.3844 -3.99187 L -16.4255 -4.0152 L -16.4665 -4.03852 L -16.5076 -4.06185 L -16.5487 -4.08517 L -16.5897 -4.10849 L -16.6308 -4.1318 L -16.6718 -4.15512 L -16.7129 -4.17843 L -16.7539 -4.20174 L -16.7949 -4.22505 L -16.8359 -4.24835 L -16.8769 -4.27166 L -16.9179 -4.29496 L -16.9589 -4.31825 L -16.9998 -4.34155 L -17.0408 -4.36484 L -17.0817 -4.38814 L -17.1227 -4.41143 L -17.1636 -4.43471 L -17.2045 -4.458 L -17.2455 -4.48128 L -17.2864 -4.50456 L -17.3273 -4.52784 L -17.3682 -4.55112 L -17.409 -4.5744 L -17.4499 -4.59767 L -17.4908 -4.62094 L -17.5317 -4.64421 L -17.5725 -4.66747 L -17.6134 -4.69074 L -17.6542 -4.714 L -17.695 -4.73726 L -17.7359 -4.76052 L -17.7767 -4.78378 L -17.8175 -4.80703 L -17.8583 -4.83029 L -17.8464 -4.87415 L -17.8343 -4.91798 L -17.8222 -4.96179 L -17.81 -5.00556 L -17.7976 -5.0493 L -17.7851 -5.09302 L -17.7726 -5.1367 L -17.7599 -5.18035 L -17.7471 -5.22397 L -17.7342 -5.26756 L -17.7212 -5.31112 L -17.7081 -5.35464 L -17.6949 -5.39814 L -17.6816 -5.4416 L -17.6682 -5.48502 L -17.6546 -5.52842 L -17.641 -5.57178 L -17.6273 -5.61511 L -17.6134 -5.6584 L -17.5995 -5.70166 L -17.5854 -5.74488 L -17.5712 -5.78807 L -17.557 -5.83123 L -17.5426 -5.87435 L -17.5281 -5.91743 L -17.5135 -5.96048 L -17.4988 -6.00349 L -17.484 -6.04647 L -17.4691 -6.08941 L -17.4541 -6.13231 L -17.439 -6.17518 L -17.4237 -6.21801 L -17.4084 -6.2608 L -17.36 -6.39385 L -17.3442 -6.43649 L -17.3283 -6.47908 L -17.3124 -6.52164 L -17.2963 -6.56416 L -17.2801 -6.60663 L -17.2638 -6.64907 L -17.2474 -6.69147 L -17.2309 -6.73382 L -17.2144 -6.77614 L -17.1977 -6.81842 L -17.1808 -6.86065 L -17.1639 -6.90284 L -17.1469 -6.94499 L -17.1298 -6.9871 L -17.1126 -7.02917 L -17.0953 -7.07119 L -17.0778 -7.11317 L -17.0603 -7.15511 L -17.0427 -7.19701 L -17.0249 -7.23886 L -17.0071 -7.28067 L -16.9892 -7.32243 L -16.9711 -7.36415 L -16.953 -7.40583 L -16.9347 -7.44746 L -16.9164 -7.48905 L -16.8979 -7.53059 L -16.8794 -7.57208 L -16.8607 -7.61353 L -16.842 -7.65494 L -16.8231 -7.6963 L -16.8041 -7.73761 L -16.7851 -7.77887 L -16.7389 -7.77046 L -16.6927 -7.76204 L -16.6465 -7.75362 L -16.6002 -7.74519 L -16.554 -7.73677 L -16.5078 -7.72833 L -16.4615 -7.7199 L -16.4153 -7.71146 L -16.369 -7.70302 L -16.3227 -7.69458 L -16.2765 -7.68613 L -16.2302 -7.67768 L -16.1839 -7.66922 L -16.1376 -7.66076 L -16.0913 -7.6523 L -16.045 -7.64384 L -15.9987 -7.63537 L -15.9523 -7.62689 L -15.906 -7.61842 L -15.8597 -7.60994 L -15.8133 -7.60145 L -15.767 -7.59297 L -15.7206 -7.58447 L -15.6742 -7.57598 L -15.6278 -7.56748 L -15.5814 -7.55897 L -15.535 -7.55047 L -15.4886 -7.54196 L -15.4422 -7.53344 L -15.3958 -7.52492 L -15.3494 -7.5164 L -15.3029 -7.50787 L -15.2565 -7.49933 L -15.21 -7.4908 L -15.1635 -7.48226 L -15.1171 -7.47371 L -15.0706 -7.46516 L -15.0241 -7.45661 L -14.9776 -7.44805 L -14.9311 -7.43949 L -14.8846 -7.43092 L -14.838 -7.42235 L -14.7915 -7.41377 L -14.2894 -8.25 L -14.2894 -8.25 L -13.8163 -9.10292 L -13.847 -9.13894 L -13.8776 -9.17495 L -13.9083 -9.21095 L -13.939 -9.24695 L -13.9697 -9.28294 L -14.0003 -9.31893 L -14.031 -9.35491 L -14.0616 -9.39089 L -14.0922 -9.42686 L -14.1229 -9.46283 L -14.1535 -9.49879 L -14.1841 -9.53474 L -14.2147 -9.57069 L -14.2453 -9.60664 L -14.2758 -9.64257 L -14.3064 -9.67851 L -14.337 -9.71444 L -14.3675 -9.75036 L -14.3981 -9.78628 L -14.4286 -9.82219 L -14.4592 -9.8581 L -14.4897 -9.894 L -14.5202 -9.9299 L -14.5507 -9.9658 L -14.5813 -10.0017 L -14.6118 -10.0376 L -14.6423 -10.0734 L -14.6727 -10.1093 L -14.7032 -10.1452 L -14.7337 -10.1811 L -14.7642 -10.2169 L -14.7946 -10.2528 L -14.8251 -10.2886 L -14.8555 -10.3245 L -14.886 -10.3603 L -14.9164 -10.3961 L -14.9468 -10.432 L -14.9772 -10.4678 L -15.0077 -10.5036 L -15.0381 -10.5394 L -15.0685 -10.5753 L -15.0989 -10.6111 L -15.1292 -10.6469 L -15.103 -10.684 L -15.0767 -10.7211 L -15.0504 -10.7581 L -15.0239 -10.7951 L -14.9973 -10.8319 L -14.9706 -10.8687 L -14.9439 -10.9055 L -14.9171 -10.9422 L -14.8901 -10.9788 L -14.8631 -11.0154 L -14.836 -11.0518 L -14.8088 -11.0883 L -14.7815 -11.1246 L -14.7541 -11.1609 L -14.7267 -11.1971 L -14.6991 -11.2333 L -14.6715 -11.2693 L -14.6437 -11.3054 L -14.6159 -11.3413 L -14.588 -11.3772 L -14.56 -11.413 L -14.5319 -11.4487 L -14.5037 -11.4844 L -14.4755 -11.52 L -14.4471 -11.5555 L -14.4187 -11.591 L -14.3902 -11.6264 L -14.3616 -11.6617 L -14.3329 -11.697 L -14.3041 -11.7321 L -14.2752 -11.7672 L -14.2463 -11.8023 L -14.2172 -11.8373 L -14.1262 -11.9457 L -14.0968 -11.9804 L -14.0673 -12.015 L -14.0378 -12.0495 L -14.0081 -12.084 L -13.9784 -12.1184 L -13.9486 -12.1527 L -13.9187 -12.1869 L -13.8887 -12.2211 L -13.8586 -12.2551 L -13.8285 -12.2892 L -13.7982 -12.3231 L -13.7679 -12.357 L -13.7375 -12.3908 L -13.707 -12.4245 L -13.6765 -12.4581 L -13.6458 -12.4917 L -13.6151 -12.5252 L -13.5843 -12.5586 L -13.5534 -12.5919 L -13.5224 -12.6252 L -13.4913 -12.6584 L -13.4602 -12.6915 L -13.429 -12.7245 L -13.3977 -12.7575 L -13.3663 -12.7903 L -13.3348 -12.8231 L -13.3033 -12.8559 L -13.2716 -12.8885 L -13.2399 -12.9211 L -13.2081 -12.9536 L -13.1763 -12.986 L -13.1443 -13.0183 L -13.1123 -13.0506 L -13.0718 -13.0269 L -13.0312 -13.0032 L -12.9907 -12.9794 L -12.9501 -12.9557 L -12.9095 -12.932 L -12.869 -12.9082 L -12.8284 -12.8845 L -12.7878 -12.8608 L -12.7472 -12.837 L -12.7067 -12.8132 L -12.6661 -12.7895 L -12.6255 -12.7657 L -12.5849 -12.7419 L -12.5442 -12.7181 L -12.5036 -12.6944 L -12.463 -12.6706 L -12.4224 -12.6468 L -12.3817 -12.623 L -12.3411 -12.5991 L -12.3005 -12.5753 L -12.2598 -12.5515 L -12.2191 -12.5277 L -12.1785 -12.5038 L -12.1378 -12.48 L -12.0971 -12.4561 L -12.0564 -12.4323 L -12.0158 -12.4084 L -11.9751 -12.3845 L -11.9344 -12.3607 L -11.8936 -12.3368 L -11.8529 -12.3129 L -11.8122 -12.289 L -11.7715 -12.2651 L -11.7307 -12.2412 L -11.69 -12.2173 L -11.6492 -12.1933 L -11.6085 -12.1694 L -11.5677 -12.1455 L -11.5269 -12.1215 L -11.4862 -12.0976 L -11.4454 -12.0736 L -11.4046 -12.0496 L -11.3638 -12.0257 L -10.606 -12.6397 L -10.606 -12.6397 L -9.86965 -13.2794 L -9.88618 -13.3237 L -9.9027 -13.3681 L -9.91922 -13.4124 L -9.93573 -13.4567 L -9.95223 -13.501 L -9.96873 -13.5453 L -9.98522 -13.5896 L -10.0017 -13.6339 L -10.0182 -13.6782 L -10.0347 -13.7224 L -10.0511 -13.7667 L -10.0676 -13.811 L -10.0841 -13.8552 L -10.1005 -13.8995 L -10.1169 -13.9437 L -10.1334 -13.9879 L -10.1498 -14.0321 L -10.1663 -14.0763 L -10.1827 -14.1205 L -10.1991 -14.1647 L -10.2155 -14.2089 L -10.2319 -14.2531 L -10.2483 -14.2973 L -10.2647 -14.3414 L -10.2811 -14.3856 L -10.2975 -14.4297 L -10.3139 -14.4739 L -10.3303 -14.518 L -10.3466 -14.5622 L -10.363 -14.6063 L -10.3794 -14.6504 L -10.3957 -14.6945 L -10.4121 -14.7386 L -10.4284 -14.7827 L -10.4448 -14.8268 L -10.4611 -14.8709 L -10.4775 -14.915 L -10.4938 -14.959 L -10.5101 -15.0031 L -10.5264 -15.0472 L -10.5428 -15.0912 L -10.5591 -15.1353 L -10.5754 -15.1793 L -10.5381 -15.2052 L -10.5007 -15.2311 L -10.4632 -15.2568 L -10.4257 -15.2825 L -10.3881 -15.3081 L -10.3505 -15.3335 L -10.3128 -15.3589 L -10.275 -15.3842 L -10.2372 -15.4094 L -10.1993 -15.4345 L -10.1613 -15.4595 L -10.1233 -15.4845 L -10.0852 -15.5093 L -10.0471 -15.534 L -10.0089 -15.5587 L -9.97065 -15.5832 L -9.93233 -15.6077 L -9.89395 -15.632 L -9.85551 -15.6563 L -9.81702 -15.6804 L -9.77846 -15.7045 L -9.73984 -15.7285 L -9.70117 -15.7524 L -9.66244 -15.7762 L -9.62364 -15.7999 L -9.5848 -15.8235 L -9.54589 -15.847 L -9.50692 -15.8704 L -9.4679 -15.8937 L -9.42882 -15.9169 L -9.38969 -15.94 L -9.35049 -15.963 L -9.31124 -15.986 L -9.18862 -16.0568 L -9.14914 -16.0793 L -9.10961 -16.1017 L -9.07002 -16.124 L -9.03037 -16.1463 L -8.99068 -16.1684 L -8.95092 -16.1905 L -8.91112 -16.2124 L -8.87125 -16.2342 L -8.83134 -16.256 L -8.79137 -16.2776 L -8.75135 -16.2992 L -8.71128 -16.3207 L -8.67115 -16.342 L -8.63097 -16.3633 L -8.59074 -16.3844 L -8.55046 -16.4055 L -8.51013 -16.4264 L -8.46974 -16.4473 L -8.4293 -16.4681 L -8.38882 -16.4887 L -8.34828 -16.5093 L -8.30769 -16.5297 L -8.26705 -16.5501 L -8.22636 -16.5704 L -8.18563 -16.5905 L -8.14484 -16.6106 L -8.104 -16.6305 L -8.06311 -16.6504 L -8.02218 -16.6702 L -7.9812 -16.6898 L -7.94017 -16.7094 L -7.89909 -16.7288 L -7.85796 -16.7482 L -7.82798 -16.7121 L -7.79799 -16.6759 L -7.768 -16.6398 L -7.738 -16.6036 L -7.70801 -16.5674 L -7.678 -16.5312 L -7.648 -16.495 L -7.61799 -16.4589 L -7.58798 -16.4227 L -7.55797 -16.3864 L -7.52795 -16.3502 L -7.49793 -16.314 L -7.4679 -16.2778 L -7.43788 -16.2415 L -7.40784 -16.2053 L -7.37781 -16.169 L -7.34777 -16.1328 L -7.31773 -16.0965 L -7.28768 -16.0602 L -7.25763 -16.0239 L -7.22758 -15.9877 L -7.19752 -15.9514 L -7.16746 -15.915 L -7.1374 -15.8787 L -7.10733 -15.8424 L -7.07726 -15.8061 L -7.04719 -15.7697 L -7.01711 -15.7334 L -6.98703 -15.697 L -6.95694 -15.6606 L -6.92685 -15.6243 L -6.89676 -15.5879 L -6.86666 -15.5515 L -6.83656 -15.5151 L -6.80645 -15.4787 L -6.77634 -15.4423 L -6.74623 -15.4058 L -6.71611 -15.3694 L -6.68599 -15.3329 L -6.65586 -15.2965 L -6.62573 -15.26 L -6.5956 -15.2235 L -6.56546 -15.1871 L -5.64333 -15.5049 L -5.64333 -15.5049 L -4.73262 -15.8542 L -4.73299 -15.9015 L -4.73335 -15.9488 L -4.73371 -15.9961 L -4.73406 -16.0434 L -4.73442 -16.0907 L -4.73477 -16.1379 L -4.73512 -16.1852 L -4.73546 -16.2325 L -4.7358 -16.2797 L -4.73614 -16.3269 L -4.73648 -16.3742 L -4.73682 -16.4214 L -4.73715 -16.4686 L -4.73748 -16.5158 L -4.7378 -16.563 L -4.73813 -16.6102 L -4.73845 -16.6573 L -4.73877 -16.7045 L -4.73908 -16.7516 L -4.7394 -16.7988 L -4.73971 -16.8459 L -4.74002 -16.8931 L -4.74032 -16.9402 L -4.74063 -16.9873 L -4.74093 -17.0344 L -4.74123 -17.0815 L -4.74153 -17.1286 L -4.74182 -17.1756 L -4.74212 -17.2227 L -4.74241 -17.2698 L -4.74269 -17.3168 L -4.74298 -17.3639 L -4.74326 -17.4109 L -4.74355 -17.4579 L -4.74383 -17.505 L -4.7441 -17.552 L -4.74438 -17.599 L -4.74465 -17.646 L -4.74493 -17.693 L -4.7452 -17.74 L -4.74546 -17.7869 L -4.74573 -17.8339 L -4.74599 -17.8809 L -4.70204 -17.8925 L -4.65807 -17.904 L -4.61406 -17.9154 L -4.57003 -17.9267 L -4.52597 -17.9378 L -4.48189 -17.9489 L -4.43777 -17.9598 L -4.39363 -17.9707 L -4.34946 -17.9814 L -4.30527 -17.9921 L -4.26105 -18.0026 L -4.21681 -18.013 L -4.17254 -18.0233 L -4.12824 -18.0335 L -4.08392 -18.0436 L -4.03957 -18.0536 L -3.9952 -18.0635 L -3.95081 -18.0732 L -3.90639 -18.0829 L -3.86195 -18.0924 L -3.81749 -18.1018 L -3.773 -18.1112 L -3.72849 -18.1204 L -3.68395 -18.1295 L -3.6394 -18.1385 L -3.59482 -18.1474 L -3.55022 -18.1562 L -3.5056 -18.1648 L -3.46096 -18.1734 L -3.4163 -18.1818 L -3.37162 -18.1902 L -3.32691 -18.1984 L -3.28219 -18.2065 L -3.14275 -18.2311 L -3.09794 -18.2388 L -3.05312 -18.2463 L -3.00828 -18.2538 L -2.96342 -18.2611 L -2.91855 -18.2683 L -2.87365 -18.2755 L -2.82874 -18.2825 L -2.78381 -18.2894 L -2.73887 -18.2961 L -2.6939 -18.3028 L -2.64893 -18.3094 L -2.60393 -18.3158 L -2.55892 -18.3222 L -2.5139 -18.3284 L -2.46886 -18.3345 L -2.4238 -18.3405 L -2.37873 -18.3464 L -2.33365 -18.3522 L -2.28855 -18.3579 L -2.24344 -18.3635 L -2.19831 -18.3689 L -2.15317 -18.3743 L -2.10802 -18.3795 L -2.06285 -18.3846 L -2.01768 -18.3896 L -1.97249 -18.3945 L -1.92729 -18.3993 L -1.88207 -18.404 L -1.83685 -18.4086 L -1.79161 -18.413 L -1.74637 -18.4174 L -1.70111 -18.4216 L -1.65584 -18.4257 L -1.64003 -18.3815 L -1.62421 -18.3373 L -1.6084 -18.2931 L -1.59258 -18.2488 L -1.57677 -18.2046 L -1.56095 -18.1603 L -1.54513 -18.116 L -1.52931 -18.0718 L -1.51349 -18.0275 L -1.49767 -17.9832 L -1.48185 -17.9389 L -1.46603 -17.8946 L -1.45021 -17.8503 L -1.43438 -17.806 L -1.41856 -17.7616 L -1.40274 -17.7173 L -1.38691 -17.6729 L -1.37109 -17.6286 L -1.35526 -17.5842 L -1.33943 -17.5398 L -1.3236 -17.4955 L -1.30778 -17.4511 L -1.29195 -17.4067 L -1.27612 -17.3623 L -1.26029 -17.3178 L -1.24446 -17.2734 L -1.22863 -17.229 L -1.21279 -17.1845 L -1.19696 -17.1401 L -1.18113 -17.0956 L -1.16529 -17.0511 L -1.14946 -17.0067 L -1.13362 -16.9622 L -1.11779 -16.9177 L -1.10195 -16.8731 L -1.08611 -16.8286 L -1.07027 -16.7841 L -1.05444 -16.7396 L -1.0386 -16.695 L -1.02276 -16.6504 L -1.00692 -16.6059 L -0.991074 -16.5613 L -0.975232 -16.5167 L 0 -16.5 L -6.062e-15 -16.5 L 0.975232 -16.5167 L 0.991074 -16.5613 L 1.00692 -16.6059 L 1.02276 -16.6504 L 1.0386 -16.695 L 1.05444 -16.7396 L 1.07027 -16.7841 L 1.08611 -16.8286 L 1.10195 -16.8731 L 1.11779 -16.9177 L 1.13362 -16.9622 L 1.14946 -17.0067 L 1.16529 -17.0511 L 1.18113 -17.0956 L 1.19696 -17.1401 L 1.21279 -17.1845 L 1.22863 -17.229 L 1.24446 -17.2734 L 1.26029 -17.3178 L 1.27612 -17.3623 L 1.29195 -17.4067 L 1.30778 -17.4511 L 1.3236 -17.4955 L 1.33943 -17.5398 L 1.35526 -17.5842 L 1.37109 -17.6286 L 1.38691 -17.6729 L 1.40274 -17.7173 L 1.41856 -17.7616 L 1.43438 -17.806 L 1.45021 -17.8503 L 1.46603 -17.8946 L 1.48185 -17.9389 L 1.49767 -17.9832 L 1.51349 -18.0275 L 1.52931 -18.0718 L 1.54513 -18.116 L 1.56095 -18.1603 L 1.57677 -18.2046 L 1.59258 -18.2488 L 1.6084 -18.2931 L 1.62421 -18.3373 L 1.64003 -18.3815 L 1.65584 -18.4257 L 1.70111 -18.4216 L 1.74637 -18.4174 L 1.79161 -18.413 L 1.83685 -18.4086 L 1.88207 -18.404 L 1.92729 -18.3993 L 1.97249 -18.3945 L 2.01768 -18.3896 L 2.06285 -18.3846 L 2.10802 -18.3795 L 2.15317 -18.3743 L 2.19831 -18.3689 L 2.24344 -18.3635 L 2.28855 -18.3579 L 2.33365 -18.3522 L 2.37873 -18.3464 L 2.4238 -18.3405 L 2.46886 -18.3345 L 2.5139 -18.3284 L 2.55892 -18.3222 L 2.60393 -18.3158 L 2.64893 -18.3094 L 2.6939 -18.3028 L 2.73887 -18.2961 L 2.78381 -18.2894 L 2.82874 -18.2825 L 2.87365 -18.2755 L 2.91855 -18.2683 L 2.96342 -18.2611 L 3.00828 -18.2538 L 3.05312 -18.2463 L 3.09794 -18.2388 L 3.14275 -18.2311 L 3.28219 -18.2065 L 3.32691 -18.1984 L 3.37162 -18.1902 L 3.4163 -18.1818 L 3.46096 -18.1734 L 3.5056 -18.1648 L 3.55022 -18.1562 L 3.59482 -18.1474 L 3.6394 -18.1385 L 3.68395 -18.1295 L 3.72849 -18.1204 L 3.773 -18.1112 L 3.81749 -18.1018 L 3.86195 -18.0924 L 3.90639 -18.0829 L 3.95081 -18.0732 L 3.9952 -18.0635 L 4.03957 -18.0536 L 4.08392 -18.0436 L 4.12824 -18.0335 L 4.17254 -18.0233 L 4.21681 -18.013 L 4.26105 -18.0026 L 4.30527 -17.9921 L 4.34946 -17.9814 L 4.39363 -17.9707 L 4.43777 -17.9598 L 4.48189 -17.9489 L 4.52597 -17.9378 L 4.57003 -17.9267 L 4.61406 -17.9154 L 4.65807 -17.904 L 4.70204 -17.8925 L 4.74599 -17.8809 L 4.74573 -17.8339 L 4.74546 -17.7869 L 4.7452 -17.74 L 4.74493 -17.693 L 4.74465 -17.646 L 4.74438 -17.599 L 4.7441 -17.552 L 4.74383 -17.505 L 4.74355 -17.4579 L 4.74326 -17.4109 L 4.74298 -17.3639 L 4.74269 -17.3168 L 4.74241 -17.2698 L 4.74212 -17.2227 L 4.74182 -17.1756 L 4.74153 -17.1286 L 4.74123 -17.0815 L 4.74093 -17.0344 L 4.74063 -16.9873 L 4.74032 -16.9402 L 4.74002 -16.8931 L 4.73971 -16.8459 L 4.7394 -16.7988 L 4.73908 -16.7516 L 4.73877 -16.7045 L 4.73845 -16.6573 L 4.73813 -16.6102 L 4.7378 -16.563 L 4.73748 -16.5158 L 4.73715 -16.4686 L 4.73682 -16.4214 L 4.73648 -16.3742 L 4.73614 -16.3269 L 4.7358 -16.2797 L 4.73546 -16.2325 L 4.73512 -16.1852 L 4.73477 -16.1379 L 4.73442 -16.0907 L 4.73406 -16.0434 L 4.73371 -15.9961 L 4.73335 -15.9488 L 4.73299 -15.9015 L 4.73262 -15.8542 L 5.64333 -15.5049 L 5.64333 -15.5049 L 6.56546 -15.1871 L 6.5956 -15.2235 L 6.62573 -15.26 L 6.65586 -15.2965 L 6.68599 -15.3329 L 6.71611 -15.3694 L 6.74623 -15.4058 L 6.77634 -15.4423 L 6.80645 -15.4787 L 6.83656 -15.5151 L 6.86666 -15.5515 L 6.89676 -15.5879 L 6.92685 -15.6243 L 6.95694 -15.6606 L 6.98703 -15.697 L 7.01711 -15.7334 L 7.04719 -15.7697 L 7.07726 -15.8061 L 7.10733 -15.8424 L 7.1374 -15.8787 L 7.16746 -15.915 L 7.19752 -15.9514 L 7.22758 -15.9877 L 7.25763 -16.0239 L 7.28768 -16.0602 L 7.31773 -16.0965 L 7.34777 -16.1328 L 7.37781 -16.169 L 7.40784 -16.2053 L 7.43788 -16.2415 L 7.4679 -16.2778 L 7.49793 -16.314 L 7.52795 -16.3502 L 7.55797 -16.3864 L 7.58798 -16.4227 L 7.61799 -16.4589 L 7.648 -16.495 L 7.678 -16.5312 L 7.70801 -16.5674 L 7.738 -16.6036 L 7.768 -16.6398 L 7.79799 -16.6759 L 7.82798 -16.7121 L 7.85796 -16.7482 L 7.89909 -16.7288 L 7.94017 -16.7094 L 7.9812 -16.6898 L 8.02218 -16.6702 L 8.06311 -16.6504 L 8.104 -16.6305 L 8.14484 -16.6106 L 8.18563 -16.5905 L 8.22636 -16.5704 L 8.26705 -16.5501 L 8.30769 -16.5297 L 8.34828 -16.5093 L 8.38882 -16.4887 L 8.4293 -16.4681 L 8.46974 -16.4473 L 8.51013 -16.4264 L 8.55046 -16.4055 L 8.59074 -16.3844 L 8.63097 -16.3633 L 8.67115 -16.342 L 8.71128 -16.3207 L 8.75135 -16.2992 L 8.79137 -16.2776 L 8.83134 -16.256 L 8.87125 -16.2342 L 8.91112 -16.2124 L 8.95092 -16.1905 L 8.99068 -16.1684 L 9.03037 -16.1463 L 9.07002 -16.124 L 9.10961 -16.1017 L 9.14914 -16.0793 L 9.18862 -16.0568 L 9.31124 -15.986 L 9.35049 -15.963 L 9.38969 -15.94 L 9.42882 -15.9169 L 9.4679 -15.8937 L 9.50692 -15.8704 L 9.54589 -15.847 L 9.5848 -15.8235 L 9.62364 -15.7999 L 9.66244 -15.7762 L 9.70117 -15.7524 L 9.73984 -15.7285 L 9.77846 -15.7045 L 9.81702 -15.6804 L 9.85551 -15.6563 L 9.89395 -15.632 L 9.93233 -15.6077 L 9.97065 -15.5832 L 10.0089 -15.5587 L 10.0471 -15.534 L 10.0852 -15.5093 L 10.1233 -15.4845 L 10.1613 -15.4595 L 10.1993 -15.4345 L 10.2372 -15.4094 L 10.275 -15.3842 L 10.3128 -15.3589 L 10.3505 -15.3335 L 10.3881 -15.3081 L 10.4257 -15.2825 L 10.4632 -15.2568 L 10.5007 -15.2311 L 10.5381 -15.2052 L 10.5754 -15.1793 L 10.5591 -15.1353 L 10.5428 -15.0912 L 10.5264 -15.0472 L 10.5101 -15.0031 L 10.4938 -14.959 L 10.4775 -14.915 L 10.4611 -14.8709 L 10.4448 -14.8268 L 10.4284 -14.7827 L 10.4121 -14.7386 L 10.3957 -14.6945 L 10.3794 -14.6504 L 10.363 -14.6063 L 10.3466 -14.5622 L 10.3303 -14.518 L 10.3139 -14.4739 L 10.2975 -14.4297 L 10.2811 -14.3856 L 10.2647 -14.3414 L 10.2483 -14.2973 L 10.2319 -14.2531 L 10.2155 -14.2089 L 10.1991 -14.1647 L 10.1827 -14.1205 L 10.1663 -14.0763 L 10.1498 -14.0321 L 10.1334 -13.9879 L 10.1169 -13.9437 L 10.1005 -13.8995 L 10.0841 -13.8552 L 10.0676 -13.811 L 10.0511 -13.7667 L 10.0347 -13.7224 L 10.0182 -13.6782 L 10.0017 -13.6339 L 9.98522 -13.5896 L 9.96873 -13.5453 L 9.95223 -13.501 L 9.93573 -13.4567 L 9.91922 -13.4124 L 9.9027 -13.3681 L 9.88618 -13.3237 L 9.86965 -13.2794 L 10.606 -12.6397 L 10.606 -12.6397 L 11.3638 -12.0257 L 11.4046 -12.0496 L 11.4454 -12.0736 L 11.4862 -12.0976 L 11.5269 -12.1215 L 11.5677 -12.1455 L 11.6085 -12.1694 L 11.6492 -12.1933 L 11.69 -12.2173 L 11.7307 -12.2412 L 11.7715 -12.2651 L 11.8122 -12.289 L 11.8529 -12.3129 L 11.8936 -12.3368 L 11.9344 -12.3607 L 11.9751 -12.3845 L 12.0158 -12.4084 L 12.0564 -12.4323 L 12.0971 -12.4561 L 12.1378 -12.48 L 12.1785 -12.5038 L 12.2191 -12.5277 L 12.2598 -12.5515 L 12.3005 -12.5753 L 12.3411 -12.5991 L 12.3817 -12.623 L 12.4224 -12.6468 L 12.463 -12.6706 L 12.5036 -12.6944 L 12.5442 -12.7181 L 12.5849 -12.7419 L 12.6255 -12.7657 L 12.6661 -12.7895 L 12.7067 -12.8132 L 12.7472 -12.837 L 12.7878 -12.8608 L 12.8284 -12.8845 L 12.869 -12.9082 L 12.9095 -12.932 L 12.9501 -12.9557 L 12.9907 -12.9794 L 13.0312 -13.0032 L 13.0718 -13.0269 L 13.1123 -13.0506 L 13.1443 -13.0183 L 13.1763 -12.986 L 13.2081 -12.9536 L 13.2399 -12.9211 L 13.2716 -12.8885 L 13.3033 -12.8559 L 13.3348 -12.8231 L 13.3663 -12.7903 L 13.3977 -12.7575 L 13.429 -12.7245 L 13.4602 -12.6915 L 13.4913 -12.6584 L 13.5224 -12.6252 L 13.5534 -12.5919 L 13.5843 -12.5586 L 13.6151 -12.5252 L 13.6458 -12.4917 L 13.6765 -12.4581 L 13.707 -12.4245 L 13.7375 -12.3908 L 13.7679 -12.357 L 13.7982 -12.3231 L 13.8285 -12.2892 L 13.8586 -12.2551 L 13.8887 -12.2211 L 13.9187 -12.1869 L 13.9486 -12.1527 L 13.9784 -12.1184 L 14.0081 -12.084 L 14.0378 -12.0495 L 14.0673 -12.015 L 14.0968 -11.9804 L 14.1262 -11.9457 L 14.2172 -11.8373 L 14.2463 -11.8023 L 14.2752 -11.7672 L 14.3041 -11.7321 L 14.3329 -11.697 L 14.3616 -11.6617 L 14.3902 -11.6264 L 14.4187 -11.591 L 14.4471 -11.5555 L 14.4755 -11.52 L 14.5037 -11.4844 L 14.5319 -11.4487 L 14.56 -11.413 L 14.588 -11.3772 L 14.6159 -11.3413 L 14.6437 -11.3054 L 14.6715 -11.2693 L 14.6991 -11.2333 L 14.7267 -11.1971 L 14.7541 -11.1609 L 14.7815 -11.1246 L 14.8088 -11.0883 L 14.836 -11.0518 L 14.8631 -11.0154 L 14.8901 -10.9788 L 14.9171 -10.9422 L 14.9439 -10.9055 L 14.9706 -10.8687 L 14.9973 -10.8319 L 15.0239 -10.7951 L 15.0504 -10.7581 L 15.0767 -10.7211 L 15.103 -10.684 L 15.1292 -10.6469 L 15.0989 -10.6111 L 15.0685 -10.5753 L 15.0381 -10.5394 L 15.0077 -10.5036 L 14.9772 -10.4678 L 14.9468 -10.432 L 14.9164 -10.3961 L 14.886 -10.3603 L 14.8555 -10.3245 L 14.8251 -10.2886 L 14.7946 -10.2528 L 14.7642 -10.2169 L 14.7337 -10.1811 L 14.7032 -10.1452 L 14.6727 -10.1093 L 14.6423 -10.0734 L 14.6118 -10.0376 L 14.5813 -10.0017 L 14.5507 -9.9658 L 14.5202 -9.9299 L 14.4897 -9.894 L 14.4592 -9.8581 L 14.4286 -9.82219 L 14.3981 -9.78628 L 14.3675 -9.75036 L 14.337 -9.71444 L 14.3064 -9.67851 L 14.2758 -9.64257 L 14.2453 -9.60664 L 14.2147 -9.57069 L 14.1841 -9.53474 L 14.1535 -9.49879 L 14.1229 -9.46283 L 14.0922 -9.42686 L 14.0616 -9.39089 L 14.031 -9.35491 L 14.0003 -9.31893 L 13.9697 -9.28294 L 13.939 -9.24695 L 13.9083 -9.21095 L 13.8776 -9.17495 L 13.847 -9.13894 L 13.8163 -9.10292 L 14.2894 -8.25 L 14.2894 -8.25 L 14.7915 -7.41377 L 14.838 -7.42235 L 14.8846 -7.43092 L 14.9311 -7.43949 L 14.9776 -7.44805 L 15.0241 -7.45661 L 15.0706 -7.46516 L 15.1171 -7.47371 L 15.1635 -7.48226 L 15.21 -7.4908 L 15.2565 -7.49933 L 15.3029 -7.50787 L 15.3494 -7.5164 L 15.3958 -7.52492 L 15.4422 -7.53344 L 15.4886 -7.54196 L 15.535 -7.55047 L 15.5814 -7.55897 L 15.6278 -7.56748 L 15.6742 -7.57598 L 15.7206 -7.58447 L 15.767 -7.59297 L 15.8133 -7.60145 L 15.8597 -7.60994 L 15.906 -7.61842 L 15.9523 -7.62689 L 15.9987 -7.63537 L 16.045 -7.64384 L 16.0913 -7.6523 L 16.1376 -7.66076 L 16.1839 -7.66922 L 16.2302 -7.67768 L 16.2765 -7.68613 L 16.3227 -7.69458 L 16.369 -7.70302 L 16.4153 -7.71146 L 16.4615 -7.7199 L 16.5078 -7.72833 L 16.554 -7.73677 L 16.6002 -7.74519 L 16.6465 -7.75362 L 16.6927 -7.76204 L 16.7389 -7.77046 L 16.7851 -7.77887 L 16.8041 -7.73761 L 16.8231 -7.6963 L 16.842 -7.65494 L 16.8607 -7.61353 L 16.8794 -7.57208 L 16.8979 -7.53059 L 16.9164 -7.48905 L 16.9347 -7.44746 L 16.953 -7.40583 L 16.9711 -7.36415 L 16.9892 -7.32243 L 17.0071 -7.28067 L 17.0249 -7.23886 L 17.0427 -7.19701 L 17.0603 -7.15511 L 17.0778 -7.11317 L 17.0953 -7.07119 L 17.1126 -7.02917 L 17.1298 -6.9871 L 17.1469 -6.94499 L 17.1639 -6.90284 L 17.1808 -6.86065 L 17.1977 -6.81842 L 17.2144 -6.77614 L 17.2309 -6.73382 L 17.2474 -6.69147 L 17.2638 -6.64907 L 17.2801 -6.60663 L 17.2963 -6.56416 L 17.3124 -6.52164 L 17.3283 -6.47908 L 17.3442 -6.43649 L 17.36 -6.39385 L 17.4084 -6.2608 L 17.4237 -6.21801 L 17.439 -6.17518 L 17.4541 -6.13231 L 17.4691 -6.08941 L 17.484 -6.04647 L 17.4988 -6.00349 L 17.5135 -5.96048 L 17.5281 -5.91743 L 17.5426 -5.87435 L 17.557 -5.83123 L 17.5712 -5.78807 L 17.5854 -5.74488 L 17.5995 -5.70166 L 17.6134 -5.6584 L 17.6273 -5.61511 L 17.641 -5.57178 L 17.6546 -5.52842 L 17.6682 -5.48502 L 17.6816 -5.4416 L 17.6949 -5.39814 L 17.7081 -5.35464 L 17.7212 -5.31112 L 17.7342 -5.26756 L 17.7471 -5.22397 L 17.7599 -5.18035 L 17.7726 -5.1367 L 17.7851 -5.09302 L 17.7976 -5.0493 L 17.81 -5.00556 L 17.8222 -4.96179 L 17.8343 -4.91798 L 17.8464 -4.87415 L 17.8583 -4.83029 L 17.8175 -4.80703 L 17.7767 -4.78378 L 17.7359 -4.76052 L 17.695 -4.73726 L 17.6542 -4.714 L 17.6134 -4.69074 L 17.5725 -4.66747 L 17.5317 -4.64421 L 17.4908 -4.62094 L 17.4499 -4.59767 L 17.409 -4.5744 L 17.3682 -4.55112 L 17.3273 -4.52784 L 17.2864 -4.50456 L 17.2455 -4.48128 L 17.2045 -4.458 L 17.1636 -4.43471 L 17.1227 -4.41143 L 17.0817 -4.38814 L 17.0408 -4.36484 L 16.9998 -4.34155 L 16.9589 -4.31825 L 16.9179 -4.29496 L 16.8769 -4.27166 L 16.8359 -4.24835 L 16.7949 -4.22505 L 16.7539 -4.20174 L 16.7129 -4.17843 L 16.6718 -4.15512 L 16.6308 -4.1318 L 16.5897 -4.10849 L 16.5487 -4.08517 L 16.5076 -4.06185 L 16.4665 -4.03852 L 16.4255 -4.0152 L 16.3844 -3.99187 L 16.3433 -3.96854 L 16.3021 -3.94521 L 16.261 -3.92187 L 16.2199 -3.89854 L 16.1787 -3.8752 L 16.1376 -3.85185 L 16.0964 -3.82851 L 16.2493 -2.86519 L 16.2493 -2.86519 L 16.4351 -1.90768 L 16.4818 -1.89982 L 16.5284 -1.89196 L 16.5751 -1.8841 L 16.6217 -1.87624 L 16.6683 -1.86838 L 16.715 -1.86051 L 16.7616 -1.85265 L 16.8082 -1.84478 L 16.8547 -1.83692 L 16.9013 -1.82905 L 16.9479 -1.82118 L 16.9944 -1.81331 L 17.041 -1.80544 L 17.0875 -1.79757 L 17.1341 -1.78969 L 17.1806 -1.78182 L 17.2271 -1.77395 L 17.2736 -1.76607 L 17.3201 -1.75819 L 17.3666 -1.75032 L 17.413 -1.74244 L 17.4595 -1.73456 L 17.506 -1.72668 L 17.5524 -1.7188 L 17.5988 -1.71091 L 17.6453 -1.70303 L 17.6917 -1.69515 L 17.7381 -1.68726 L 17.7845 -1.67938 L 17.8309 -1.67149 L 17.8773 -1.66361 L 17.9237 -1.65572 L 17.9701 -1.64783 L 18.0164 -1.63994 L 18.0628 -1.63205 L 18.1091 -1.62416 L 18.1555 -1.61627 L 18.2018 -1.60838 L 18.2481 -1.60049 L 18.2944 -1.59259 L 18.3408 -1.5847 L 18.3871 -1.5768 L 18.4334 -1.56891 L 18.4372 -1.52361 L 18.4408 -1.47831 L 18.4444 -1.433 L 18.4479 -1.38767 L 18.4512 -1.34234 L 18.4545 -1.297 L 18.4576 -1.25166 L 18.4606 -1.2063 L 18.4635 -1.16094 L 18.4663 -1.11557 L 18.469 -1.0702 L 18.4716 -1.02482 L 18.4741 -0.979429 L 18.4764 -0.934035 L 18.4786 -0.888636 L 18.4808 -0.843231 L 18.4828 -0.797822 L 18.4847 -0.752407 L 18.4865 -0.706988 L 18.4882 -0.661564 L 18.4897 -0.616137 L 18.4912 -0.570706 L 18.4925 -0.525271 L 18.4938 -0.479833 L 18.4949 -0.434393 L 18.4959 -0.388949 L 18.4968 -0.343504 L 18.4976 -0.298056 L 18.4983 -0.252607 L 18.4988 -0.207156 L 18.4993 -0.161703 L 18.4996 -0.11625 L 18.4999 -0.0707962Z"
id="path1" />
</g>
</svg>
