<?xml version="1.0" encoding="UTF-8" standalone="no"?>
<svg version="1.1">
<g
style="fill:none;stroke:#000000;stroke-opacity:1;stroke-width:0.1">
<path d="M 13.4997 0.0899697 L 13.4989 0.173299 L 13.4976 0.256622 L 13.4957 0.339934 L 13.4934 0.423234 L 13.4905 0.506518 L 13.4871 0.589783 L 13.4832 0.673025 L 13.4788 0.756241 L 13.4739 0.839429 L 13.4684 0.922584 L 13.4625 1.0057 L 13.456 1.08879 L 13.449 1.17183 L 13.4416 1.25482 L 13.3554 1.28086 L 13.2691 1.3069 L 13.1828 1.33292 L 13.0964 1.35893 L 13.0098 1.38494 L 12.9232 1.41093 L 12.8365 1.43692 L 12.7497 1.46289 L 12.6628 1.48885 L 12.5758 1.5148 L 12.4887 1.54074 L 12.4014 1.56667 L 12.3141 1.59258 L 12.2267 1.61847 L 12.1391 1.64436 L 12.0515 1.67023 L 11.9637 1.69608 L 11.8758 1.72191 L 11.7878 1.74773 L 11.6997 1.77353 L 11.6114 1.79931 L 11.523 1.82507 L 11.4345 1.85081 L 10.9371 3.5537 L 10.9371 3.5537 L 10.3386 5.2237 L 10.3951 5.29656 L 10.4514 5.36935 L 10.5077 5.44208 L 10.5638 5.51476 L 10.6199 5.58737 L 10.6758 5.65994 L 10.7316 5.73244 L 10.7873 5.80489 L 10.8429 5.87729 L 10.8984 5.94963 L 10.9538 6.02192 L 11.0092 6.09416 L 11.0644 6.16635 L 11.1195 6.23848 L 11.1746 6.31057 L 11.2295 6.38261 L 11.2844 6.4546 L 11.3392 6.52655 L 11.3939 6.59844 L 11.4486 6.67029 L 11.5031 6.7421 L 11.5576 6.81386 L 11.612 6.88557 L 11.5693 6.95712 L 11.5261 7.0284 L 11.4825 7.09942 L 11.4385 7.17016 L 11.394 7.24063 L 11.3491 7.31083 L 11.3037 7.38075 L 11.258 7.45038 L 11.2118 7.51973 L 11.1651 7.5888 L 11.1181 7.65757 L 11.0706 7.72606 L 11.0227 7.79425 L 10.9744 7.86214 L 10.8686 8.00771 L 10.819 8.07465 L 10.7689 8.14128 L 10.7185 8.2076 L 10.6676 8.2736 L 10.6163 8.3393 L 10.5646 8.40467 L 10.5126 8.46972 L 10.4601 8.53445 L 10.4072 8.59886 L 10.3539 8.66294 L 10.3002 8.72668 L 10.2462 8.7901 L 10.1917 8.85318 L 10.1369 8.91592 L 10.0519 8.88634 L 9.96678 8.8567 L 9.88163 8.827 L 9.79641 8.79724 L 9.71112 8.76742 L 9.62577 8.73754 L 9.54034 8.70759 L 9.45484 8.67758 L 9.36927 8.6475 L 9.28363 8.61735 L 9.19791 8.58713 L 9.11211 8.55684 L 9.02623 8.52647 L 8.94027 8.49603 L 8.85424 8.46552 L 8.76812 8.43492 L 8.68191 8.40424 L 8.59562 8.37349 L 8.50925 8.34264 L 8.42278 8.31171 L 8.33623 8.28069 L 8.24958 8.24958 L 8.16284 8.21837 L 6.75953 9.3037 L 6.75953 9.3037 L 5.29368 10.3029 L 5.29656 10.3951 L 5.29937 10.4871 L 5.30212 10.579 L 5.30482 10.6708 L 5.30746 10.7625 L 5.31005 10.854 L 5.31259 10.9455 L 5.31508 11.0369 L 5.31751 11.1281 L 5.3199 11.2193 L 5.32224 11.3103 L 5.32454 11.4013 L 5.32679 11.4922 L 5.32899 11.5829 L 5.33116 11.6736 L 5.33328 11.7642 L 5.33537 11.8547 L 5.33741 11.9451 L 5.33942 12.0354 L 5.34139 12.1257 L 5.34332 12.2158 L 5.34521 12.3059 L 5.34708 12.3959 L 5.27046 12.4287 L 5.19364 12.461 L 5.11662 12.4928 L 5.03941 12.5242 L 4.962 12.555 L 4.88441 12.5854 L 4.80663 12.6153 L 4.72866 12.6448 L 4.65052 12.6737 L 4.5722 12.7022 L 4.4937 12.7301 L 4.41504 12.7576 L 4.3362 12.7847 L 4.2572 12.8112 L 4.08607 12.8668 L 4.00657 12.8918 L 3.92691 12.9162 L 3.84711 12.9402 L 3.76716 12.9637 L 3.68706 12.9867 L 3.60683 13.0093 L 3.52646 13.0313 L 3.44595 13.0528 L 3.36531 13.0738 L 3.28455 13.0943 L 3.20366 13.1144 L 3.12264 13.1339 L 3.04151 13.1529 L 2.96026 13.1714 L 2.90887 13.0975 L 2.85746 13.0235 L 2.80602 12.9495 L 2.75457 12.8753 L 2.7031 12.801 L 2.65161 12.7267 L 2.60011 12.6523 L 2.54858 12.5777 L 2.49703 12.5031 L 2.44546 12.4284 L 2.39387 12.3535 L 2.34227 12.2786 L 2.29064 12.2035 L 2.23899 12.1284 L 2.18732 12.0531 L 2.13563 11.9778 L 2.08392 11.9023 L 2.03219 11.8267 L 1.98044 11.7509 L 1.92867 11.6751 L 1.87688 11.5991 L 1.82507 11.523 L 1.77324 11.4468 L 4.44089e-16 11.5 L 9.64255e-16 11.5 L -1.77324 11.4468 L -1.82507 11.523 L -1.87688 11.5991 L -1.92867 11.6751 L -1.98044 11.7509 L -2.03219 11.8267 L -2.08392 11.9023 L -2.13563 11.9778 L -2.18732 12.0531 L -2.23899 12.1284 L -2.29064 12.2035 L -2.34227 12.2786 L -2.39387 12.3535 L -2.44546 12.4284 L -2.49703 12.5031 L -2.54858 12.5777 L -2.60011 12.6523 L -2.65161 12.7267 L -2.7031 12.801 L -2.75457 12.8753 L -2.80602 12.9495 L -2.85746 13.0235 L -2.90887 13.0975 L -2.96026 13.1714 L -3.04151 13.1529 L -3.12264 13.1339 L -3.20366 13.1144 L -3.28455 13.0943 L -3.36531 13.0738 L -3.44595 13.0528 L -3.52646 13.0313 L -3.60683 13.0093 L -3.68706 12.9867 L -3.76716 12.9637 L -3.84711 12.9402 L -3.92691 12.9162 L -4.00657 12.8918 L -4.08607 12.8668 L -4.2572 12.8112 L -4.3362 12.7847 L -4.41504 12.7576 L -4.4937 12.7301 L -4.5722 12.7022 L -4.65052 12.6737 L -4.72866 12.6448 L -4.80663 12.6153 L -4.88441 12.5854 L -4.962 12.555 L -5.03941 12.5242 L -5.11662 12.4928 L -5.19364 12.461 L -5.27046 12.4287 L -5.34708 12.3959 L -5.34521 12.3059 L -5.34332 12.2158 L -5.34139 12.1257 L -5.33942 12.0354 L -5.33741 11.9451 L -5.33537 11.8547 L -5.33328 11.7642 L -5.33116 11.6736 L -5.32899 11.5829 L -5.32679 11.4922 L -5.32454 11.4013 L -5.32224 11.3103 L -5.3199 11.2193 L -5.31751 11.1281 L -5.31508 11.0369 L -5.31259 10.9455 L -5.31005 10.854 L -5.30746 10.7625 L -5.30482 10.6708 L -5.30212 10.579 L -5.29937 10.4871 L -5.29656 10.3951 L -5.29368 10.3029 L -6.75953 9.3037 L -6.75953 9.3037 L -8.16284 8.21837 L -8.24958 8.24958 L -8.33623 8.28069 L -8.42278 8.31171 L -8.50925 8.34264 L -8.59562 8.37349 L -8.68191 8.40424 L -8.76812 8.43492 L -8.85424 8.46552 L -8.94027 8.49603 L -9.02623 8.52647 L -9.11211 8.55684 L -9.19791 8.58713 L -9.28363 8.61735 L -9.36927 8.6475 L -9.45484 8.67758 L -9.54034 8.70759 L -9.62577 8.73754 L -9.71112 8.76742 L -9.79641 8.79724 L -9.88163 8.827 L -9.96678 8.8567 L -10.0519 8.88634 L -10.1369 8.91592 L -10.1917 8.85318 L -10.2462 8.7901 L -10.3002 8.72668 L -10.3539 8.66294 L -10.4072 8.59886 L -10.4601 8.53445 L -10.5126 8.46972 L -10.5646 8.40467 L -10.6163 8.3393 L -10.6676 8.2736 L -10.7185 8.2076 L -10.7689 8.14128 L -10.819 8.07465 L -10.8686 8.00771 L -10.9744 7.86214 L -11.0227 7.79425 L -11.0706 7.72606 L -11.1181 7.65757 L -11.1651 7.5888 L -11.2118 7.51973 L -11.258 7.45038 L -11.3037 7.38075 L -11.3491 7.31083 L -11.394 7.24063 L -11.4385 7.17016 L -11.4825 7.09942 L -11.5261 7.0284 L -11.5693 6.95712 L -11.612 6.88557 L -11.5576 6.81386 L -11.5031 6.7421 L -11.4486 6.67029 L -11.3939 6.59844 L -11.3392 6.52655 L -11.2844 6.4546 L -11.2295 6.38261 L -11.1746 6.31057 L -11.1195 6.23848 L -11.0644 6.16635 L -11.0092 6.09416 L -10.9538 6.02192 L -10.8984 5.94963 L -10.8429 5.87729 L -10.7873 5.80489 L -10.7316 5.73244 L -10.6758 5.65994 L -10.6199 5.58737 L -10.5638 5.51476 L -10.5077 5.44208 L -10.4514 5.36935 L -10.3951 5.29656 L -10.3386 5.2237 L -10.9371 3.5537 L -10.9371 3.5537 L -11.4345 1.85081 L -11.523 1.82507 L -11.6114 1.79931 L -11.6997 1.77353 L -11.7878 1.74773 L -11.8758 1.72191 L -11.9637 1.69608 L -12.0515 1.67023 L -12.1391 1.64436 L -12.2267 1.61847 L -12.3141 1.59258 L -12.4014 1.56667 L -12.4887 1.54074 L -12.5758 1.5148 L -12.6628 1.48885 L -12.7497 1.46289 L -12.8365 1.43692 L -12.9232 1.41093 L -13.0098 1.38494 L -13.0964 1.35893 L -13.1828 1.33292 L -13.2691 1.3069 L -13.3554 1.28086 L -13.4416 1.25482 L -13.449 1.17183 L -13.456 1.08879 L -13.4625 1.0057 L -13.4684 0.922584 L -13.4739 0.839429 L -13.4788 0.756241 L -13.4832 0.673025 L -13.4871 0.589783 L -13.4905 0.506518 L -13.4934 0.423234 L -13.4957 0.339934 L -13.4976 0.256622 L -13.4989 0.173299 L -13.4997 0.0899697 L -13.4997 -0.0899697 L -13.4989 -0.173299 L -13.4976 -0.256622 L -13.4957 -0.339934 L -13.4934 -0.423234 L -13.4905 -0.506518 L -13.4871 -0.589783 L -13.4832 -0.673025 L -13.4788 -0.756241 L -13.4739 -0.839429 L -13.4684 -0.922584 L -13.4625 -1.0057 L -13.456 -1.08879 L -13.449 -1.17183 L -13.4416 -1.25482 L -13.3554 -1.28086 L -13.2691 -1.3069 L -13.1828 -1.33292 L -13.0964 -1.35893 L -13.0098 -1.38494 L -12.9232 -1.41093 L -12.8365 -1.43692 L -12.7497 -1.46289 L -12.6628 -1.48885 L -12.5758 -1.5148 L -12.4887 -1.54074 L -12.4014 -1.56667 L -12.3141 -1.59258 L -12.2267 -1.61847 L -12.1391 -1.64436 L -12.0515 -1.67023 L -11.9637 -1.69608 L -11.8758 -1.72191 L -11.7878 -1.74773 L -11.6997 -1.77353 L -11.6114 -1.79931 L -11.523 -1.82507 L -11.4345 -1.85081 L -10.9371 -3.5537 L -10.9371 -3.5537 L -10.3386 -5.2237 L -10.3951 -5.29656 L -10.4514 -5.36935 L -10.5077 -5.44208 L -10.5638 -5.51476 L -10.6199 -5.58737 L -10.6758 -5.65994 L -10.7316 -5.73244 L -10.7873 -5.80489 L -10.8429 -5.87729 L -10.8984 -5.94963 L -10.9538 -6.02192 L -11.0092 -6.09416 L -11.0644 -6.16635 L -11.1195 -6.23848 L -11.1746 -6.31057 L -11.2295 -6.38261 L -11.2844 -6.4546 L -11.3392 -6.52655 L -11.3939 -6.59844 L -11.4486 -6.67029 L -11.5031 -6.7421 L -11.5576 -6.81386 L -11.612 -6.88557 L -11.5693 -6.95712 L -11.5261 -7.0284 L -11.4825 -7.09942 L -11.4385 -7.17016 L -11.394 -7.24063 L -11.3491 -7.31083 L -11.3037 -7.38075 L -11.258 -7.45038 L -11.2118 -7.51973 L -11.1651 -7.5888 L -11.1181 -7.65757 L -11.0706 -7.72606 L -11.0227 -7.79425 L -10.9744 -7.86214 L -10.8686 -8.00771 L -10.819 -8.07465 L -10.7689 -8.14128 L -10.7185 -8.2076 L -10.6676 -8.2736 L -10.6163 -8.3393 L -10.5646 -8.40467 L -10.5126 -8.46972 L -10.4601 -8.53445 L -10.4072 -8.59886 L -10.3539 -8.66294 L -10.3002 -8.72668 L -10.2462 -8.7901 L -10.1917 -8.85318 L -10.1369 -8.91592 L -10.0519 -8.88634 L -9.96678 -8.8567 L -9.88163 -8.827 L -9.79641 -8.79724 L -9.71112 -8.76742 L -9.62577 -8.73754 L -9.54034 -8.70759 L -9.45484 -8.67758 L -9.36927 -8.6475 L -9.28363 -8.61735 L -9.19791 -8.58713 L -9.11211 -8.55684 L -9.02623 -8.52647 L -8.94027 -8.49603 L -8.85424 -8.46552 L -8.76812 -8.43492 L -8.68191 -8.40424 L -8.59562 -8.37349 L -8.50925 -8.34264 L -8.42278 -8.31171 L -8.33623 -8.28069 L -8.24958 -8.24958 L -8.16284 -8.21837 L -6.75953 -9.3037 L -6.75953 -9.3037 L -5.29368 -10.3029 L -5.29656 -10.3951 L -5.29937 -10.4871 L -5.30212 -10.579 L -5.30482 -10.6708 L -5.30746 -10.7625 L -5.31005 -10.854 L -5.31259 -10.9455 L -5.31508 -11.0369 L -5.31751 -11.1281 L -5.3199 -11.2193 L -5.32224 -11.3103 L -5.32454 -11.4013 L -5.32679 -11.4922 L -5.32899 -11.5829 L -5.33116 -11.6736 L -5.33328 -11.7642 L -5.33537 -11.8547 L -5.33741 -11.9451 L -5.33942 -12.0354 L -5.34139 -12.1257 L -5.34332 -12.2158 L -5.34521 -12.3059 L -5.34708 -12.3959 L -5.27046 -12.4287 L -5.19364 -12.461 L -5.11662 -12.4928 L -5.03941 -12.5242 L -4.962 -12.555 L -4.88441 -12.5854 L -4.80663 -12.6153 L -4.72866 -12.6448 L -4.65052 -12.6737 L -4.5722 -12.7022 L -4.4937 -12.7301 L -4.41504 -12.7576 L -4.3362 -12.7847 L -4.2572 -12.8112 L -4.08607 -12.8668 L -4.00657 -12.8918 L -3.92691 -12.9162 L -3.84711 -12.9402 L -3.76716 -12.9637 L -3.68706 -12.9867 L -3.60683 -13.0093 L -3.52646 -13.0313 L -3.44595 -13.0528 L -3.36531 -13.0738 L -3.28455 -13.0943 L -3.20366 -13.1144 L -3.12264 -13.1339 L -3.04151 -13.1529 L -2.96026 -13.1714 L -2.90887 -13.0975 L -2.85746 -13.0235 L -2.80602 -12.9495 L -2.75457 -12.8753 L -2.7031 -12.801 L -2.65161 -12.7267 L -2.60011 -12.6523 L -2.54858 -12.5777 L -2.49703 -12.5031 L -2.44546 -12.4284 L -2.39387 -12.3535 L -2.34227 -12.2786 L -2.29064 -12.2035 L -2.23899 -12.1284 L -2.18732 -12.0531 L -2.13563 -11.9778 L -2.08392 -11.9023 L -2.03219 -11.8267 L -1.98044 -11.7509 L -1.92867 -11.6751 L -1.87688 -11.5991 L -1.82507 -11.523 L -1.77324 -11.4468 L -1.77636e-15 -11.5 L -2.44867e-15 -11.5 L 1.77324 -11.4468 L 1.82507 -11.523 L 1.87688 -11.5991 L 1.92867 -11.6751 L 1.98044 -11.7509 L 2.03219 -11.8267 L 2.08392 -11.9023 L 2.13563 -11.9778 L 2.18732 -12.0531 L 2.23899 -12.1284 L 2.29064 -12.2035 L 2.34227 -12.2786 L 2.39387 -12.3535 L 2.44546 -12.4284 L 2.49703 -12.5031 L 2.54858 -12.5777 L 2.60011 -12.6523 L 2.65161 -12.7267 L 2.7031 -12.801 L 2.75457 -12.8753 L 2.80602 -12.9495 L 2.85746 -13.0235 L 2.90887 -13.0975 L 2.96026 -13.1714 L 3.04151 -13.1529 L 3.12264 -13.1339 L 3.20366 -13.1144 L 3.28455 -13.0943 L 3.36531 -13.0738 L 3.44595 -13.0528 L 3.52646 -13.0313 L 3.60683 -13.0093 L 3.68706 -12.9867 L 3.76716 -12.9637 L 3.84711 -12.9402 L 3.92691 -12.9162 L 4.00657 -12.8918 L 4.08607 -12.8668 L 4.2572 -12.8112 L 4.3362 -12.7847 L 4.41504 -12.7576 L 4.4937 -12.7301 L 4.5722 -12.7022 L 4.65052 -12.6737 L 4.72866 -12.6448 L 4.80663 -12.6153 L 4.88441 -12.5854 L 4.962 -12.555 L 5.03941 -12.5242 L 5.11662 -12.4928 L 5.19364 -12.461 L 5.27046 -12.4287 L 5.34708 -12.3959 L 5.34521 -12.3059 L 5.34332 -12.2158 L 5.34139 -12.1257 L 5.33942 -12.0354 L 5.33741 -11.9451 L 5.33537 -11.8547 L 5.33328 -11.7642 L 5.33116 -11.6736 L 5.32899 -11.5829 L 5.32679 -11.4922 L 5.32454 -11.4013 L 5.32224 -11.3103 L 5.3199 -11.2193 L 5.31751 -11.1281 L 5.31508 -11.0369 L 5.31259 -10.9455 L 5.31005 -10.854 L 5.30746 -10.7625 L 5.30482 -10.6708 L 5.30212 -10.579 L 5.29937 -10.4871 L 5.29656 -10.3951 L 5.29368 -10.3029 L 6.75953 -9.3037 L 6.75953 -9.3037 L 8.16284 -8.21837 L 8.24958 -8.24958 L 8.33623 -8.28069 L 8.42278 -8.31171 L 8.50925 -8.34264 L 8.59562 -8.37349 L 8.68191 -8.40424 L 8.76812 -8.43492 L 8.85424 -8.46552 L 8.94027 -8.49603 L 9.02623 -8.52647 L 9.11211 -8.55684 L 9.19791 -8.58713 L 9.28363 -8.61735 L 9.36927 -8.6475 L 9.45484 -8.67758 L 9.54034 -8.70759 L 9.62577 -8.73754 L 9.71112 -8.76742 L 9.79641 -8.79724 L 9.88163 -8.827 L 9.96678 -8.8567 L 10.0519 -8.88634 L 10.1369 -8.91592 L 10.1917 -8.85318 L 10.2462 -8.7901 L 10.3002 -8.72668 L 10.3539 -8.66294 L 10.4072 -8.59886 L 10.4601 -8.53445 L 10.5126 -8.46972 L 10.5646 -8.40467 L 10.6163 -8.3393 L 10.6676 -8.2736 L 10.7185 -8.2076 L 10.7689 -8.14128 L 10.819 -8.07465 L 10.8686 -8.00771 L 10.9744 -7.86214 L 11.0227 -7.79425 L 11.0706 -7.72606 L 11.1181 -7.65757 L 11.1651 -7.5888 L 11.2118 -7.51973 L 11.258 -7.45038 L 11.3037 -7.38075 L 11.3491 -7.31083 L 11.394 -7.24063 L 11.4385 -7.17016 L 11.4825 -7.09942 L 11.5261 -7.0284 L 11.5693 -6.95712 L 11.612 -6.88557 L 11.5576 -6.81386 L 11.5031 -6.7421 L 11.4486 -6.67029 L 11.3939 -6.59844 L 11.3392 -6.52655 L 11.2844 -6.4546 L 11.2295 -6.38261 L 11.1746 -6.31057 L 11.1195 -6.23848 L 11.0644 -6.16635 L 11.0092 -6.09416 L 10.9538 -6.02192 L 10.8984 -5.94963 L 10.8429 -5.87729 L 10.7873 -5.80489 L 10.7316 -5.73244 L 10.6758 -5.65994 L 10.6199 -5.58737 L 10.5638 -5.51476 L 10.5077 -5.44208 L 10.4514 -5.36935 L 10.3951 -5.29656 L 10.3386 -5.2237 L 10.9371 -3.5537 L 10.9371 -3.5537 L 11.4345 -1.85081 L 11.523 -1.82507 L 11.6114 -1.79931 L 11.6997 -1.77353 L 11.7878 -1.74773 L 11.8758 -1.72191 L 11.9637 -1.69608 L 12.0515 -1.67023 L 12.1391 -1.64436 L 12.2267 -1.61847 L 12.3141 -1.59258 L 12.4014 -1.56667 L 12.4887 -1.54074 L 12.5758 -1.5148 L 12.6628 -1.48885 L 12.7497 -1.46289 L 12.8365 -1.43692 L 12.9232 -1.41093 L 13.0098 -1.38494 L 13.0964 -1.35893 L 13.1828 -1.33292 L 13.2691 -1.3069 L 13.3554 -1.28086 L 13.4416 -1.25482 L 13.449 -1.17183 L 13.456 -1.08879 L 13.4625 -1.0057 L 13.4684 -0.922584 L 13.4739 -0.839429 L 13.4788 -0.756241 L 13.4832 -0.673025 L 13.4871 -0.589783 L 13.4905 -0.506518 L 13.4934 -0.423234 L 13.4957 -0.339934 L 13.4976 -0.256622 L 13.4989 -0.173299 L 13.4997 -0.0899697Z"
id="path1" />
</g>
</svg>
