<?xml version="1.0" encoding="UTF-8" standalone="no"?>
<svg version="1.1">
<g
style="fill:none;stroke:#000000;stroke-opacity:1;stroke-width:0.1">
<path d="M 13.7493 0.135175 L 13.7483 0.215168 L 13.7468 0.295154 L 13.7449 0.37513 L 13.7425 0.455094 L 13.7396 0.535042 L 13.7362 0.614972 L 13.7324 0.694881 L 13.7282 0.774766 L 13.7234 0.854626 L 13.7182 0.934456 L 13.7125 1.01425 L 13.7064 1.09402 L 13.6998 1.17375 L 13.6927 1.25343 L 13.6852 1.33308 L 13.6024 1.35807 L 13.5194 1.38304 L 13.4364 1.40801 L 13.3533 1.43297 L 13.2702 1.45793 L 13.1869 1.48287 L 13.1035 1.5078 L 13.0201 1.53273 L 12.9366 1.55764 L 12.8529 1.58254 L 12.7692 1.60743 L 12.6854 1.63231 L 12.6015 1.65717 L 12.5175 1.68202 L 12.4334 1.70686 L 12.3492 1.73169 L 12.2649 1.7565 L 12.1804 1.78129 L 12.0959 1.80607 L 12.0113 1.83083 L 11.9265 1.85558 L 11.8416 1.8803 L 11.7567 1.90501 L 11.6716 1.9297 L 11.1749 3.63095 L 11.1749 3.63095 L 10.5767 5.29921 L 10.6311 5.3692 L 10.6853 5.43915 L 10.7394 5.50904 L 10.7935 5.57887 L 10.8474 5.64866 L 10.9012 5.71839 L 10.9549 5.78807 L 11.0086 5.8577 L 11.0621 5.92728 L 11.1155 5.99681 L 11.1689 6.0663 L 11.2222 6.13573 L 11.2753 6.20512 L 11.3284 6.27447 L 11.3815 6.34377 L 11.4344 6.41302 L 11.4872 6.48223 L 11.54 6.55139 L 11.5927 6.62051 L 11.6454 6.68959 L 11.6979 6.75863 L 11.7504 6.82762 L 11.8028 6.89658 L 11.8551 6.96549 L 11.8144 7.03435 L 11.7733 7.10297 L 11.7318 7.17134 L 11.6898 7.23948 L 11.6475 7.30737 L 11.6048 7.37501 L 11.5617 7.44241 L 11.5182 7.50955 L 11.4743 7.57644 L 11.43 7.64307 L 11.3854 7.70944 L 11.3403 7.77555 L 11.2949 7.8414 L 11.2491 7.90698 L 11.2029 7.9723 L 11.044 8.19102 L 10.9961 8.25513 L 10.9479 8.31897 L 10.8993 8.38253 L 10.8504 8.4458 L 10.8011 8.50878 L 10.7514 8.57148 L 10.7013 8.63389 L 10.6509 8.69601 L 10.6001 8.75783 L 10.549 8.81935 L 10.4975 8.88058 L 10.4457 8.9415 L 10.3935 9.00213 L 10.3409 9.06245 L 10.288 9.12246 L 10.2063 9.09397 L 10.1245 9.06543 L 10.0427 9.03684 L 9.96079 9.00819 L 9.87883 8.97949 L 9.79681 8.95072 L 9.71472 8.9219 L 9.63256 8.89302 L 9.55034 8.86408 L 9.46805 8.83507 L 9.3857 8.806 L 9.30327 8.77686 L 9.22077 8.74766 L 9.1382 8.71838 L 9.05555 8.68904 L 8.97283 8.65963 L 8.89004 8.63014 L 8.80717 8.60058 L 8.72422 8.57094 L 8.64118 8.54122 L 8.55807 8.51142 L 8.47488 8.48154 L 8.3916 8.45158 L 8.30824 8.42153 L 6.90648 9.50595 L 6.90648 9.50595 L 5.44196 10.504 L 5.44478 10.5926 L 5.44754 10.681 L 5.45025 10.7694 L 5.45291 10.8576 L 5.45552 10.9458 L 5.45807 11.0338 L 5.46058 11.1218 L 5.46304 11.2096 L 5.46545 11.2974 L 5.46782 11.3851 L 5.47014 11.4726 L 5.47242 11.5601 L 5.47466 11.6475 L 5.47686 11.7348 L 5.47902 11.8221 L 5.48114 11.9092 L 5.48322 11.9963 L 5.48527 12.0832 L 5.48727 12.1701 L 5.48925 12.257 L 5.49119 12.3437 L 5.49309 12.4304 L 5.49496 12.517 L 5.4968 12.6035 L 5.42338 12.6352 L 5.34977 12.6666 L 5.27599 12.6975 L 5.20202 12.728 L 5.12788 12.758 L 5.05357 12.7876 L 4.97908 12.8168 L 4.90443 12.8456 L 4.8296 12.8739 L 4.75462 12.9018 L 4.67948 12.9292 L 4.60417 12.9562 L 4.52871 12.9828 L 4.4531 13.0089 L 4.37734 13.0346 L 4.12022 13.1182 L 4.04383 13.1419 L 3.9673 13.1652 L 3.89063 13.1881 L 3.81384 13.2105 L 3.73691 13.2325 L 3.65986 13.254 L 3.58268 13.275 L 3.50539 13.2957 L 3.42797 13.3158 L 3.35044 13.3356 L 3.27279 13.3548 L 3.19504 13.3736 L 3.11717 13.392 L 3.03921 13.4099 L 2.96113 13.4274 L 2.91177 13.3563 L 2.86238 13.2851 L 2.81298 13.2139 L 2.76357 13.1426 L 2.71413 13.0712 L 2.66468 12.9997 L 2.61521 12.9281 L 2.56572 12.8565 L 2.51622 12.7847 L 2.46669 12.7129 L 2.41715 12.641 L 2.36759 12.569 L 2.31802 12.4968 L 2.26842 12.4246 L 2.21881 12.3523 L 2.16917 12.2799 L 2.11952 12.2074 L 2.06985 12.1347 L 2.02017 12.062 L 1.97046 11.9892 L 1.92074 11.9162 L 1.87099 11.8431 L 1.82123 11.7699 L 1.77145 11.6966 L -4.44089e-16 11.75 L 1.88305e-15 11.75 L -1.77145 11.6966 L -1.82123 11.7699 L -1.87099 11.8431 L -1.92074 11.9162 L -1.97046 11.9892 L -2.02017 12.062 L -2.06985 12.1347 L -2.11952 12.2074 L -2.16917 12.2799 L -2.21881 12.3523 L -2.26842 12.4246 L -2.31802 12.4968 L -2.36759 12.569 L -2.41715 12.641 L -2.46669 12.7129 L -2.51622 12.7847 L -2.56572 12.8565 L -2.61521 12.9281 L -2.66468 12.9997 L -2.71413 13.0712 L -2.76357 13.1426 L -2.81298 13.2139 L -2.86238 13.2851 L -2.91177 13.3563 L -2.96113 13.4274 L -3.03921 13.4099 L -3.11717 13.392 L -3.19504 13.3736 L -3.27279 13.3548 L -3.35044 13.3356 L -3.42797 13.3158 L -3.50539 13.2957 L -3.58268 13.275 L -3.65986 13.254 L -3.73691 13.2325 L -3.81384 13.2105 L -3.89063 13.1881 L -3.9673 13.1652 L -4.04383 13.1419 L -4.12022 13.1182 L -4.37734 13.0346 L -4.4531 13.0089 L -4.52871 12.9828 L -4.60417 12.9562 L -4.67948 12.9292 L -4.75462 12.9018 L -4.8296 12.8739 L -4.90443 12.8456 L -4.97908 12.8168 L -5.05357 12.7876 L -5.12788 12.758 L -5.20202 12.728 L -5.27599 12.6975 L -5.34977 12.6666 L -5.42338 12.6352 L -5.4968 12.6035 L -5.49496 12.517 L -5.49309 12.4304 L -5.49119 12.3437 L -5.48925 12.257 L -5.48727 12.1701 L -5.48527 12.0832 L -5.48322 11.9963 L -5.48114 11.9092 L -5.47902 11.8221 L -5.47686 11.7348 L -5.47466 11.6475 L -5.47242 11.5601 L -5.47014 11.4726 L -5.46782 11.3851 L -5.46545 11.2974 L -5.46304 11.2096 L -5.46058 11.1218 L -5.45807 11.0338 L -5.45552 10.9458 L -5.45291 10.8576 L -5.45025 10.7694 L -5.44754 10.681 L -5.44478 10.5926 L -5.44196 10.504 L -6.90648 9.50595 L -6.90648 9.50595 L -8.30824 8.42153 L -8.3916 8.45158 L -8.47488 8.48154 L -8.55807 8.51142 L -8.64118 8.54122 L -8.72422 8.57094 L -8.80717 8.60058 L -8.89004 8.63014 L -8.97283 8.65963 L -9.05555 8.68904 L -9.1382 8.71838 L -9.22077 8.74766 L -9.30327 8.77686 L -9.3857 8.806 L -9.46805 8.83507 L -9.55034 8.86408 L -9.63256 8.89302 L -9.71472 8.9219 L -9.79681 8.95072 L -9.87883 8.97949 L -9.96079 9.00819 L -10.0427 9.03684 L -10.1245 9.06543 L -10.2063 9.09397 L -10.288 9.12246 L -10.3409 9.06245 L -10.3935 9.00213 L -10.4457 8.9415 L -10.4975 8.88058 L -10.549 8.81935 L -10.6001 8.75783 L -10.6509 8.69601 L -10.7013 8.63389 L -10.7514 8.57148 L -10.8011 8.50878 L -10.8504 8.4458 L -10.8993 8.38253 L -10.9479 8.31897 L -10.9961 8.25513 L -11.044 8.19102 L -11.2029 7.9723 L -11.2491 7.90698 L -11.2949 7.8414 L -11.3403 7.77555 L -11.3854 7.70944 L -11.43 7.64307 L -11.4743 7.57644 L -11.5182 7.50955 L -11.5617 7.44241 L -11.6048 7.37501 L -11.6475 7.30737 L -11.6898 7.23948 L -11.7318 7.17134 L -11.7733 7.10297 L -11.8144 7.03435 L -11.8551 6.96549 L -11.8028 6.89658 L -11.7504 6.82762 L -11.6979 6.75863 L -11.6454 6.68959 L -11.5927 6.62051 L -11.54 6.55139 L -11.4872 6.48223 L -11.4344 6.41302 L -11.3815 6.34377 L -11.3284 6.27447 L -11.2753 6.20512 L -11.2222 6.13573 L -11.1689 6.0663 L -11.1155 5.99681 L -11.0621 5.92728 L -11.0086 5.8577 L -10.9549 5.78807 L -10.9012 5.71839 L -10.8474 5.64866 L -10.7935 5.57887 L -10.7394 5.50904 L -10.6853 5.43915 L -10.6311 5.3692 L -10.5767 5.29921 L -11.1749 3.63095 L -11.1749 3.63095 L -11.6716 1.9297 L -11.7567 1.90501 L -11.8416 1.8803 L -11.9265 1.85558 L -12.0113 1.83083 L -12.0959 1.80607 L -12.1804 1.78129 L -12.2649 1.7565 L -12.3492 1.73169 L -12.4334 1.70686 L -12.5175 1.68202 L -12.6015 1.65717 L -12.6854 1.63231 L -12.7692 1.60743 L -12.8529 1.58254 L -12.9366 1.55764 L -13.0201 1.53273 L -13.1035 1.5078 L -13.1869 1.48287 L -13.2702 1.45793 L -13.3533 1.43297 L -13.4364 1.40801 L -13.5194 1.38304 L -13.6024 1.35807 L -13.6852 1.33308 L -13.6927 1.25343 L -13.6998 1.17375 L -13.7064 1.09402 L -13.7125 1.01425 L -13.7182 0.934456 L -13.7234 0.854626 L -13.7282 0.774766 L -13.7324 0.694881 L -13.7362 0.614972 L -13.7396 0.535042 L -13.7425 0.455094 L -13.7449 0.37513 L -13.7468 0.295154 L -13.7483 0.215168 L -13.7493 0.135175 L -13.7493 -0.135175 L -13.7483 -0.215168 L -13.7468 -0.295154 L -13.7449 -0.37513 L -13.7425 -0.455094 L -13.7396 -0.535042 L -13.7362 -0.614972 L -13.7324 -0.694881 L -13.7282 -0.774766 L -13.7234 -0.854626 L -13.7182 -0.934456 L -13.7125 -1.01425 L -13.7064 -1.09402 L -13.6998 -1.17375 L -13.6927 -1.25343 L -13.6852 -1.33308 L -13.6024 -1.35807 L -13.5194 -1.38304 L -13.4364 -1.40801 L -13.3533 -1.43297 L -13.2702 -1.45793 L -13.1869 -1.48287 L -13.1035 -1.5078 L -13.0201 -1.53273 L -12.9366 -1.55764 L -12.8529 -1.58254 L -12.7692 -1.60743 L -12.6854 -1.63231 L -12.6015 -1.65717 L -12.5175 -1.68202 L -12.4334 -1.70686 L -12.3492 -1.73169 L -12.2649 -1.7565 L -12.1804 -1.78129 L -12.0959 -1.80607 L -12.0113 -1.83083 L -11.9265 -1.85558 L -11.8416 -1.8803 L -11.7567 -1.90501 L -11.6716 -1.9297 L -11.1749 -3.63095 L -11.1749 -3.63095 L -10.5767 -5.29921 L -10.6311 -5.3692 L -10.6853 -5.43915 L -10.7394 -5.50904 L -10.7935 -5.57887 L -10.8474 -5.64866 L -10.9012 -5.71839 L -10.9549 -5.78807 L -11.0086 -5.8577 L -11.0621 -5.92728 L -11.1155 -5.99681 L -11.1689 -6.0663 L -11.2222 -6.13573 L -11.2753 -6.20512 L -11.3284 -6.27447 L -11.3815 -6.34377 L -11.4344 -6.41302 L -11.4872 -6.48223 L -11.54 -6.55139 L -11.5927 -6.62051 L -11.6454 -6.68959 L -11.6979 -6.75863 L -11.7504 -6.82762 L -11.8028 -6.89658 L -11.8551 -6.96549 L -11.8144 -7.03435 L -11.7733 -7.10297 L -11.7318 -7.17134 L -11.6898 -7.23948 L -11.6475 -7.30737 L -11.6048 -7.37501 L -11.5617 -7.44241 L -11.5182 -7.50955 L -11.4743 -7.57644 L -11.43 -7.64307 L -11.3854 -7.70944 L -11.3403 -7.77555 L -11.2949 -7.8414 L -11.2491 -7.90698 L -11.2029 -7.9723 L -11.044 -8.19102 L -10.9961 -8.25513 L -10.9479 -8.31897 L -10.8993 -8.38253 L -10.8504 -8.4458 L -10.8011 -8.50878 L -10.7514 -8.57148 L -10.7013 -8.63389 L -10.6509 -8.69601 L -10.6001 -8.75783 L -10.549 -8.81935 L -10.4975 -8.88058 L -10.4457 -8.9415 L -10.3935 -9.00213 L -10.3409 -9.06245 L -10.288 -9.12246 L -10.2063 -9.09397 L -10.1245 -9.06543 L -10.0427 -9.03684 L -9.96079 -9.00819 L -9.87883 -8.97949 L -9.79681 -8.95072 L -9.71472 -8.9219 L -9.63256 -8.89302 L -9.55034 -8.86408 L -9.46805 -8.83507 L -9.3857 -8.806 L -9.30327 -8.77686 L -9.22077 -8.74766 L -9.1382 -8.71838 L -9.05555 -8.68904 L -8.97283 -8.65963 L -8.89004 -8.63014 L -8.80717 -8.60058 L -8.72422 -8.57094 L -8.64118 -8.54122 L -8.55807 -8.51142 L -8.47488 -8.48154 L -8.3916 -8.45158 L -8.30824 -8.42153 L -6.90648 -9.50595 L -6.90648 -9.50595 L -5.44196 -10.504 L -5.44478 -10.5926 L -5.44754 -10.681 L -5.45025 -10.7694 L -5.45291 -10.8576 L -5.45552 -10.9458 L -5.45807 -11.0338 L -5.46058 -11.1218 L -5.46304 -11.2096 L -5.46545 -11.2974 L -5.46782 -11.3851 L -5.47014 -11.4726 L -5.47242 -11.5601 L -5.47466 -11.6475 L -5.47686 -11.7348 L -5.47902 -11.8221 L -5.48114 -11.9092 L -5.48322 -11.9963 L -5.48527 -12.0832 L -5.48727 -12.1701 L -5.48925 -12.257 L -5.49119 -12.3437 L -5.49309 -12.4304 L -5.49496 -12.517 L -5.4968 -12.6035 L -5.42338 -12.6352 L -5.34977 -12.6666 L -5.27599 -12.6975 L -5.20202 -12.728 L -5.12788 -12.758 L -5.05357 -12.7876 L -4.97908 -12.8168 L -4.90443 -12.8456 L -4.8296 -12.8739 L -4.75462 -12.9018 L -4.67948 -12.9292 L -4.60417 -12.9562 L -4.52871 -12.9828 L -4.4531 -13.0089 L -4.37734 -13.0346 L -4.12022 -13.1182 L -4.04383 -13.1419 L -3.9673 -13.1652 L -3.89063 -13.1881 L -3.81384 -13.2105 L -3.73691 -13.2325 L -3.65986 -13.254 L -3.58268 -13.275 L -3.50539 -13.2957 L -3.42797 -13.3158 L -3.35044 -13.3356 L -3.27279 -13.3548 L -3.19504 -13.3736 L -3.11717 -13.392 L -3.03921 -13.4099 L -2.96113 -13.4274 L -2.91177 -13.3563 L -2.86238 -13.2851 L -2.81298 -13.2139 L -2.76357 -13.1426 L -2.71413 -13.0712 L -2.66468 -12.9997 L -2.61521 -12.9281 L -2.56572 -12.8565 L -2.51622 -12.7847 L -2.46669 -12.7129 L -2.41715 -12.641 L -2.36759 -12.569 L -2.31802 -12.4968 L -2.26842 -12.4246 L -2.21881 -12.3523 L -2.16917 -12.2799 L -2.11952 -12.2074 L -2.06985 -12.1347 L -2.02017 -12.062 L -1.97046 -11.9892 L -1.92074 -11.9162 L -1.87099 -11.8431 L -1.82123 -11.7699 L -1.77145 -11.6966 L -8.88178e-16 -11.75 L -3.4287e-15 -11.75 L 1.77145 -11.6966 L 1.82123 -11.7699 L 1.87099 -11.8431 L 1.92074 -11.9162 L 1.97046 -11.9892 L 2.02017 -12.062 L 2.06985 -12.1347 L 2.11952 -12.2074 L 2.16917 -12.2799 L 2.21881 -12.3523 L 2.26842 -12.4246 L 2.31802 -12.4968 L 2.36759 -12.569 L 2.41715 -12.641 L 2.46669 -12.7129 L 2.51622 -12.7847 L 2.56572 -12.8565 L 2.61521 -12.9281 L 2.66468 -12.9997 L 2.71413 -13.0712 L 2.76357 -13.1426 L 2.81298 -13.2139 L 2.86238 -13.2851 L 2.91177 -13.3563 L 2.96113 -13.4274 L 3.03921 -13.4099 L 3.11717 -13.392 L 3.19504 -13.3736 L 3.27279 -13.3548 L 3.35044 -13.3356 L 3.42797 -13.3158 L 3.50539 -13.2957 L 3.58268 -13.275 L 3.65986 -13.254 L 3.73691 -13.2325 L 3.81384 -13.2105 L 3.89063 -13.1881 L 3.9673 -13.1652 L 4.04383 -13.1419 L 4.12022 -13.1182 L 4.37734 -13.0346 L 4.4531 -13.0089 L 4.52871 -12.9828 L 4.60417 -12.9562 L 4.67948 -12.9292 L 4.75462 -12.9018 L 4.8296 -12.8739 L 4.90443 -12.8456 L 4.97908 -12.8168 L 5.05357 -12.7876 L 5.12788 -12.758 L 5.20202 -12.728 L 5.27599 -12.6975 L 5.34977 -12.6666 L 5.42338 -12.6352 L 5.4968 -12.6035 L 5.49496 -12.517 L 5.49309 -12.4304 L 5.49119 -12.3437 L 5.48925 -12.257 L 5.48727 -12.1701 L 5.48527 -12.0832 L 5.48322 -11.9963 L 5.48114 -11.9092 L 5.47902 -11.8221 L 5.47686 -11.7348 L 5.47466 -11.6475 L 5.47242 -11.5601 L 5.47014 -11.4726 L 5.46782 -11.3851 L 5.46545 -11.2974 L 5.46304 -11.2096 L 5.46058 -11.1218 L 5.45807 -11.0338 L 5.45552 -10.9458 L 5.45291 -10.8576 L 5.45025 -10.7694 L 5.44754 -10.681 L 5.44478 -10.5926 L 5.44196 -10.504 L 6.90648 -9.50595 L 6.90648 -9.50595 L 8.30824 -8.42153 L 8.3916 -8.45158 L 8.47488 -8.48154 L 8.55807 -8.51142 L 8.64118 -8.54122 L 8.72422 -8.57094 L 8.80717 -8.60058 L 8.89004 -8.63014 L 8.97283 -8.65963 L 9.05555 -8.68904 L 9.1382 -8.71838 L 9.22077 -8.74766 L 9.30327 -8.77686 L 9.3857 -8.806 L 9.46805 -8.83507 L 9.55034 -8.86408 L 9.63256 -8.89302 L 9.71472 -8.9219 L 9.79681 -8.95072 L 9.87883 -8.97949 L 9.96079 -9.00819 L 10.0427 -9.03684 L 10.1245 -9.06543 L 10.2063 -9.09397 L 10.288 -9.12246 L 10.3409 -9.06245 L 10.3935 -9.00213 L 10.4457 -8.9415 L 10.4975 -8.88058 L 10.549 -8.81935 L 10.6001 -8.75783 L 10.6509 -8.69601 L 10.7013 -8.63389 L 10.7514 -8.57148 L 10.8011 -8.50878 L 10.8504 -8.4458 L 10.8993 -8.38253 L 10.9479 -8.31897 L 10.9961 -8.25513 L 11.044 -8.19102 L 11.2029 -7.9723 L 11.2491 -7.90698 L 11.2949 -7.8414 L 11.3403 -7.77555 L 11.3854 -7.70944 L 11.43 -7.64307 L 11.4743 -7.57644 L 11.5182 -7.50955 L 11.5617 -7.44241 L 11.6048 -7.37501 L 11.6475 -7.30737 L 11.6898 -7.23948 L 11.7318 -7.17134 L 11.7733 -7.10297 L 11.8144 -7.03435 L 11.8551 -6.96549 L 11.8028 -6.89658 L 11.7504 -6.82762 L 11.6979 -6.75863 L 11.6454 -6.68959 L 11.5927 -6.62051 L 11.54 -6.55139 L 11.4872 -6.48223 L 11.4344 -6.41302 L 11.3815 -6.34377 L 11.3284 -6.27447 L 11.2753 -6.20512 L 11.2222 -6.13573 L 11.1689 -6.0663 L 11.1155 -5.99681 L 11.0621 -5.92728 L 11.0086 -5.8577 L 10.9549 -5.78807 L 10.9012 -5.71839 L 10.8474 -5.64866 L 10.7935 -5.57887 L 10.7394 -5.50904 L 10.6853 -5.43915 L 10.6311 -5.3692 L 10.5767 -5.29921 L 11.1749 -3.63095 L 11.1749 -3.63095 L 11.6716 -1.9297 L 11.7567 -1.90501 L 11.8416 -1.8803 L 11.9265 -1.85558 L 12.0113 -1.83083 L 12.0959 -1.80607 L 12.1804 -1.78129 L 12.2649 -1.7565 L 12.3492 -1.73169 L 12.4334 -1.70686 L 12.5175 -1.68202 L 12.6015 -1.65717 L 12.6854 -1.63231 L 12.7692 -1.60743 L 12.8529 -1.58254 L 12.9366 -1.55764 L 13.0201 -1.53273 L 13.1035 -1.5078 L 13.1869 -1.48287 L 13.2702 -1.45793 L 13.3533 -1.43297 L 13.4364 -1.40801 L 13.5194 -1.38304 L 13.6024 -1.35807 L 13.6852 -1.33308 L 13.6927 -1.25343 L 13.6998 -1.17375 L 13.7064 -1.09402 L 13.7125 -1.01425 L 13.7182 -0.934456 L 13.7234 -0.854626 L 13.7282 -0.774766 L 13.7324 -0.694881 L 13.7362 -0.614972 L 13.7396 -0.535042 L 13.7425 -0.455094 L 13.7449 -0.37513 L 13.7468 -0.295154 L 13.7483 -0.215168 L 13.7493 -0.135175Z"
id="path1" />
</g>
</svg>
