<?xml version="1.0" encoding="UTF-8" standalone="no"?>
<svg version="1.1">
<g
style="fill:none;stroke:#000000;stroke-opacity:1;stroke-width:0.1">
<path d="M 14.2497 0.0973368 L 14.249 0.171408 L 14.2479 0.245474 L 14.2464 0.319533 L 14.2446 0.393584 L 14.2423 0.467624 L 14.2397 0.541651 L 14.2367 0.615664 L 14.2333 0.689661 L 14.2295 0.763638 L 14.2254 0.837595 L 14.2208 0.91153 L 14.2159 0.985439 L 14.2106 1.05932 L 14.2049 1.13318 L 14.1988 1.207 L 14.1923 1.28079 L 14.1855 1.35455 L 14.109 1.37558 L 14.0325 1.39661 L 13.956 1.41764 L 13.8793 1.43866 L 13.8027 1.45967 L 13.7259 1.48068 L 13.6491 1.50168 L 13.5723 1.52267 L 13.4953 1.54365 L 13.4183 1.56463 L 13.3413 1.5856 L 13.2642 1.60657 L 13.187 1.62752 L 13.1097 1.64847 L 13.0324 1.6694 L 12.955 1.69033 L 12.8775 1.71125 L 12.8 1.73216 L 12.7224 1.75306 L 12.6447 1.77395 L 12.5669 1.79483 L 12.4891 1.8157 L 12.4111 1.83655 L 12.3331 1.85739 L 12.2551 1.87823 L 12.1769 1.89904 L 11.7538 3.45122 L 11.7538 3.45122 L 11.2705 4.98574 L 11.3251 5.04552 L 11.3795 5.10526 L 11.4338 5.16497 L 11.4881 5.22464 L 11.5423 5.28429 L 11.5965 5.34389 L 11.6505 5.40347 L 11.7045 5.46301 L 11.7584 5.52253 L 11.8123 5.58201 L 11.8661 5.64146 L 11.9198 5.70087 L 11.9735 5.76026 L 12.0271 5.81962 L 12.0807 5.87895 L 12.1341 5.93825 L 12.1876 5.99752 L 12.2409 6.05677 L 12.2942 6.11598 L 12.3475 6.17517 L 12.4007 6.23433 L 12.4538 6.29346 L 12.5069 6.35257 L 12.56 6.41165 L 12.613 6.4707 L 12.6659 6.52973 L 12.6318 6.59548 L 12.5973 6.66105 L 12.5625 6.72644 L 12.5274 6.79166 L 12.4919 6.85668 L 12.4561 6.92153 L 12.42 6.98618 L 12.3835 7.05065 L 12.3467 7.11492 L 12.3095 7.17901 L 12.272 7.2429 L 12.2342 7.30659 L 12.1961 7.37009 L 12.1576 7.43339 L 12.1188 7.49648 L 12.0797 7.55938 L 12.0402 7.62207 L 11.935 7.78584 L 11.8943 7.84777 L 11.8534 7.90949 L 11.8121 7.971 L 11.7705 8.0323 L 11.7286 8.09337 L 11.6864 8.15423 L 11.6438 8.21487 L 11.601 8.27528 L 11.5578 8.33547 L 11.5143 8.39544 L 11.4705 8.45518 L 11.4264 8.51469 L 11.382 8.57397 L 11.3373 8.63302 L 11.2922 8.69184 L 11.2469 8.75042 L 11.2013 8.80877 L 11.1256 8.78513 L 11.0498 8.76146 L 10.9741 8.73776 L 10.8982 8.71401 L 10.8224 8.69024 L 10.7465 8.66642 L 10.6705 8.64256 L 10.5945 8.61867 L 10.5184 8.59473 L 10.4423 8.57076 L 10.3662 8.54674 L 10.29 8.52268 L 10.2137 8.49858 L 10.1374 8.47443 L 10.061 8.45024 L 9.98458 8.426 L 9.9081 8.40172 L 9.83156 8.37739 L 9.75497 8.35301 L 9.67832 8.32858 L 9.60161 8.3041 L 9.52484 8.27956 L 9.44801 8.25498 L 9.37112 8.23034 L 9.29416 8.20565 L 9.21714 8.1809 L 8.02204 9.25793 L 8.02204 9.25793 L 6.78589 10.2876 L 6.79943 10.3673 L 6.81292 10.447 L 6.82636 10.5266 L 6.83976 10.6062 L 6.85312 10.6857 L 6.86644 10.7651 L 6.87971 10.8444 L 6.89294 10.9237 L 6.90613 11.0029 L 6.91928 11.0821 L 6.9324 11.1612 L 6.94548 11.2402 L 6.95852 11.3192 L 6.97152 11.3981 L 6.98449 11.477 L 6.99742 11.5558 L 7.01032 11.6345 L 7.02319 11.7132 L 7.03602 11.7919 L 7.04883 11.8704 L 7.0616 11.949 L 7.07434 12.0275 L 7.08705 12.1059 L 7.09973 12.1843 L 7.11238 12.2626 L 7.125 12.3409 L 7.06075 12.3777 L 6.99632 12.4143 L 6.93169 12.4505 L 6.86688 12.4863 L 6.80188 12.5219 L 6.7367 12.557 L 6.67133 12.5919 L 6.60579 12.6264 L 6.54006 12.6606 L 6.47416 12.6944 L 6.40809 12.7279 L 6.34184 12.761 L 6.27542 12.7938 L 6.20883 12.8263 L 6.14208 12.8584 L 6.07515 12.8901 L 6.00807 12.9215 L 5.83099 13.0024 L 5.76332 13.0325 L 5.69549 13.0623 L 5.62752 13.0917 L 5.55939 13.1208 L 5.49111 13.1495 L 5.42268 13.1779 L 5.35411 13.2059 L 5.28539 13.2336 L 5.21653 13.2609 L 5.14753 13.2878 L 5.07838 13.3144 L 5.00911 13.3406 L 4.93969 13.3664 L 4.87014 13.3919 L 4.80046 13.4171 L 4.73066 13.4419 L 4.66072 13.4663 L 4.60983 13.4055 L 4.55892 13.3446 L 4.50799 13.2837 L 4.45704 13.2227 L 4.40607 13.1617 L 4.35508 13.1006 L 4.30408 13.0395 L 4.25305 12.9783 L 4.20201 12.917 L 4.15094 12.8557 L 4.09986 12.7943 L 4.04875 12.7329 L 3.99763 12.6714 L 3.94648 12.6098 L 3.89531 12.5482 L 3.84412 12.4865 L 3.79291 12.4247 L 3.74168 12.3629 L 3.69043 12.3009 L 3.63915 12.2389 L 3.58785 12.1769 L 3.53653 12.1147 L 3.48519 12.0525 L 3.43383 11.9902 L 3.38244 11.9278 L 3.33103 11.8654 L 1.74336 12.1253 L 1.74336 12.1253 L 0.146763 12.3232 L 0.115031 12.3976 L 0.0832992 12.4719 L 0.0515664 12.5462 L 0.0198333 12.6204 L -0.0119 12.6944 L -0.0436331 12.7684 L -0.0753661 12.8424 L -0.107099 12.9162 L -0.13883 12.99 L -0.170561 13.0637 L -0.202292 13.1373 L -0.234021 13.2109 L -0.265748 13.2844 L -0.297475 13.3578 L -0.3292 13.4312 L -0.360923 13.5044 L -0.392644 13.5777 L -0.424364 13.6508 L -0.456082 13.7239 L -0.487797 13.7969 L -0.519511 13.8699 L -0.551222 13.9428 L -0.582931 14.0157 L -0.614637 14.0885 L -0.646341 14.1612 L -0.678042 14.2339 L -0.752023 14.2301 L -0.825983 14.226 L -0.899921 14.2216 L -0.973835 14.2167 L -1.04772 14.2114 L -1.12158 14.2058 L -1.19541 14.1998 L -1.26921 14.1934 L -1.34297 14.1866 L -1.41669 14.1794 L -1.49038 14.1718 L -1.56403 14.1639 L -1.63764 14.1556 L -1.7112 14.1469 L -1.78471 14.1378 L -1.85818 14.1283 L -1.93159 14.1185 L -2.12429 14.0908 L -2.1975 14.0795 L -2.27066 14.0679 L -2.34376 14.0559 L -2.41679 14.0436 L -2.48976 14.0308 L -2.56266 14.0177 L -2.63549 14.0042 L -2.70825 13.9903 L -2.78094 13.976 L -2.85355 13.9614 L -2.92608 13.9463 L -2.99854 13.9309 L -3.07092 13.9152 L -3.14321 13.899 L -3.21541 13.8825 L -3.28753 13.8656 L -3.35956 13.8483 L -3.36951 13.7697 L -3.37944 13.6909 L -3.38935 13.6122 L -3.39925 13.5333 L -3.40914 13.4544 L -3.41901 13.3755 L -3.42886 13.2965 L -3.4387 13.2174 L -3.44853 13.1383 L -3.45834 13.0591 L -3.46813 12.9798 L -3.4779 12.9005 L -3.48766 12.8211 L -3.4974 12.7417 L -3.50712 12.6622 L -3.51682 12.5826 L -3.5265 12.5029 L -3.53616 12.4232 L -3.5458 12.3434 L -3.55542 12.2635 L -3.56502 12.1836 L -3.57459 12.1036 L -3.58415 12.0235 L -3.59368 11.9433 L -3.60318 11.863 L -3.61266 11.7827 L -5.08883 11.143 L -5.08883 11.143 L -6.53896 10.4463 L -6.60589 10.4917 L -6.67277 10.5371 L -6.7396 10.5824 L -6.80639 10.6276 L -6.87314 10.6728 L -6.93985 10.7179 L -7.00651 10.7629 L -7.07313 10.8079 L -7.13972 10.8528 L -7.20626 10.8977 L -7.27276 10.9425 L -7.33922 10.9872 L -7.40564 11.0319 L -7.47202 11.0765 L -7.53837 11.121 L -7.60468 11.1655 L -7.67095 11.21 L -7.73718 11.2544 L -7.80338 11.2987 L -7.86955 11.343 L -7.93568 11.3872 L -8.00177 11.4314 L -8.06783 11.4756 L -8.13386 11.5197 L -8.19985 11.5637 L -8.26581 11.6077 L -8.32604 11.5646 L -8.38604 11.5211 L -8.44582 11.4774 L -8.50536 11.4333 L -8.56468 11.389 L -8.62377 11.3443 L -8.68262 11.2993 L -8.74124 11.254 L -8.79962 11.2084 L -8.85776 11.1625 L -8.91567 11.1164 L -8.97333 11.0699 L -9.03075 11.0231 L -9.08793 10.976 L -9.14486 10.9286 L -9.20155 10.8809 L -9.25799 10.8329 L -9.40511 10.7054 L -9.46063 10.6564 L -9.5159 10.6071 L -9.57091 10.5575 L -9.62566 10.5076 L -9.68015 10.4574 L -9.73437 10.4069 L -9.78834 10.3562 L -9.84204 10.3052 L -9.89548 10.2539 L -9.94864 10.2023 L -10.0015 10.1505 L -10.0542 10.0983 L -10.1065 10.0459 L -10.1586 9.99325 L -10.2104 9.94031 L -10.262 9.8871 L -10.3132 9.83363 L -10.279 9.76207 L -10.2448 9.69048 L -10.2106 9.61886 L -10.1763 9.54719 L -10.142 9.47548 L -10.1076 9.40372 L -10.0732 9.33193 L -10.0387 9.26009 L -10.0042 9.18822 L -9.96962 9.11629 L -9.93501 9.04433 L -9.90035 8.97231 L -9.86564 8.90026 L -9.83087 8.82815 L -9.79606 8.756 L -9.76119 8.68381 L -9.72627 8.61156 L -9.6913 8.53927 L -9.65626 8.46692 L -9.62117 8.39453 L -9.58602 8.32208 L -9.55082 8.24959 L -9.51555 8.17704 L -9.48022 8.10443 L -9.44482 8.03178 L -9.40936 7.95906 L -10.3054 6.62285 L -10.3054 6.62285 L -11.1486 5.25274 L -11.2295 5.25479 L -11.3103 5.2568 L -11.391 5.25878 L -11.4716 5.26073 L -11.5522 5.26264 L -11.6327 5.26451 L -11.7131 5.26636 L -11.7935 5.26817 L -11.8738 5.26996 L -11.954 5.27171 L -12.0342 5.27343 L -12.1143 5.27513 L -12.1943 5.2768 L -12.2743 5.27844 L -12.3542 5.28005 L -12.434 5.28164 L -12.5138 5.2832 L -12.5935 5.28474 L -12.6732 5.28625 L -12.7528 5.28774 L -12.8323 5.2892 L -12.9118 5.29064 L -12.9913 5.29206 L -13.0706 5.29346 L -13.15 5.29484 L -13.2292 5.29619 L -13.2566 5.22735 L -13.2836 5.15837 L -13.3102 5.08925 L -13.3365 5.01999 L -13.3624 4.9506 L -13.388 4.88107 L -13.4132 4.81141 L -13.438 4.74163 L -13.4625 4.67171 L -13.4866 4.60167 L -13.5103 4.5315 L -13.5337 4.46121 L -13.5567 4.3908 L -13.5793 4.32027 L -13.6016 4.24962 L -13.6235 4.17886 L -13.645 4.10799 L -13.6999 3.9212 L -13.7201 3.84993 L -13.7399 3.77856 L -13.7594 3.70709 L -13.7784 3.63552 L -13.7972 3.56384 L -13.8155 3.49208 L -13.8335 3.42021 L -13.8511 3.34826 L -13.8683 3.27621 L -13.8851 3.20408 L -13.9016 3.13186 L -13.9177 3.05956 L -13.9334 2.98717 L -13.9487 2.9147 L -13.9637 2.84215 L -13.9783 2.76953 L -13.9925 2.69683 L -13.9251 2.65511 L -13.8576 2.61338 L -13.79 2.57163 L -13.7224 2.52988 L -13.6548 2.48812 L -13.5871 2.44634 L -13.5193 2.40455 L -13.4515 2.36276 L -13.3836 2.32095 L -13.3156 2.27913 L -13.2476 2.2373 L -13.1795 2.19546 L -13.1113 2.15361 L -13.0431 2.11174 L -12.9748 2.06987 L -12.9065 2.02798 L -12.838 1.98609 L -12.7695 1.94418 L -12.7009 1.90226 L -12.6323 1.86033 L -12.5635 1.81839 L -12.4947 1.77643 L -12.4258 1.73447 L -12.3569 1.69249 L -12.2878 1.6505 L -12.2187 1.60851 L -12.25 4.44089e-16 L -12.25 2.5563e-15 L -12.2187 -1.60851 L -12.2878 -1.6505 L -12.3569 -1.69249 L -12.4258 -1.73447 L -12.4947 -1.77643 L -12.5635 -1.81839 L -12.6323 -1.86033 L -12.7009 -1.90226 L -12.7695 -1.94418 L -12.838 -1.98609 L -12.9065 -2.02798 L -12.9748 -2.06987 L -13.0431 -2.11174 L -13.1113 -2.15361 L -13.1795 -2.19546 L -13.2476 -2.2373 L -13.3156 -2.27913 L -13.3836 -2.32095 L -13.4515 -2.36276 L -13.5193 -2.40455 L -13.5871 -2.44634 L -13.6548 -2.48812 L -13.7224 -2.52988 L -13.79 -2.57163 L -13.8576 -2.61338 L -13.9251 -2.65511 L -13.9925 -2.69683 L -13.9783 -2.76953 L -13.9637 -2.84215 L -13.9487 -2.9147 L -13.9334 -2.98717 L -13.9177 -3.05956 L -13.9016 -3.13186 L -13.8851 -3.20408 L -13.8683 -3.27621 L -13.8511 -3.34826 L -13.8335 -3.42021 L -13.8155 -3.49208 L -13.7972 -3.56384 L -13.7784 -3.63552 L -13.7594 -3.70709 L -13.7399 -3.77856 L -13.7201 -3.84993 L -13.6999 -3.9212 L -13.645 -4.10799 L -13.6235 -4.17886 L -13.6016 -4.24962 L -13.5793 -4.32027 L -13.5567 -4.3908 L -13.5337 -4.46121 L -13.5103 -4.5315 L -13.4866 -4.60167 L -13.4625 -4.67171 L -13.438 -4.74163 L -13.4132 -4.81141 L -13.388 -4.88107 L -13.3624 -4.9506 L -13.3365 -5.01999 L -13.3102 -5.08925 L -13.2836 -5.15837 L -13.2566 -5.22735 L -13.2292 -5.29619 L -13.15 -5.29484 L -13.0706 -5.29346 L -12.9913 -5.29206 L -12.9118 -5.29064 L -12.8323 -5.2892 L -12.7528 -5.28774 L -12.6732 -5.28625 L -12.5935 -5.28474 L -12.5138 -5.2832 L -12.434 -5.28164 L -12.3542 -5.28005 L -12.2743 -5.27844 L -12.1943 -5.2768 L -12.1143 -5.27513 L -12.0342 -5.27343 L -11.954 -5.27171 L -11.8738 -5.26996 L -11.7935 -5.26817 L -11.7131 -5.26636 L -11.6327 -5.26451 L -11.5522 -5.26264 L -11.4716 -5.26073 L -11.391 -5.25878 L -11.3103 -5.2568 L -11.2295 -5.25479 L -11.1486 -5.25274 L -10.3054 -6.62285 L -10.3054 -6.62285 L -9.40936 -7.95906 L -9.44482 -8.03178 L -9.48022 -8.10443 L -9.51555 -8.17704 L -9.55082 -8.24959 L -9.58602 -8.32208 L -9.62117 -8.39453 L -9.65626 -8.46692 L -9.6913 -8.53927 L -9.72627 -8.61156 L -9.76119 -8.68381 L -9.79606 -8.756 L -9.83087 -8.82815 L -9.86564 -8.90026 L -9.90035 -8.97231 L -9.93501 -9.04433 L -9.96962 -9.11629 L -10.0042 -9.18822 L -10.0387 -9.26009 L -10.0732 -9.33193 L -10.1076 -9.40372 L -10.142 -9.47548 L -10.1763 -9.54719 L -10.2106 -9.61886 L -10.2448 -9.69048 L -10.279 -9.76207 L -10.3132 -9.83363 L -10.262 -9.8871 L -10.2104 -9.94031 L -10.1586 -9.99325 L -10.1065 -10.0459 L -10.0542 -10.0983 L -10.0015 -10.1505 L -9.94864 -10.2023 L -9.89548 -10.2539 L -9.84204 -10.3052 L -9.78834 -10.3562 L -9.73437 -10.4069 L -9.68015 -10.4574 L -9.62566 -10.5076 L -9.57091 -10.5575 L -9.5159 -10.6071 L -9.46063 -10.6564 L -9.40511 -10.7054 L -9.25799 -10.8329 L -9.20155 -10.8809 L -9.14486 -10.9286 L -9.08793 -10.976 L -9.03075 -11.0231 L -8.97333 -11.0699 L -8.91567 -11.1164 L -8.85776 -11.1625 L -8.79962 -11.2084 L -8.74124 -11.254 L -8.68262 -11.2993 L -8.62377 -11.3443 L -8.56468 -11.389 L -8.50536 -11.4333 L -8.44582 -11.4774 L -8.38604 -11.5211 L -8.32604 -11.5646 L -8.26581 -11.6077 L -8.19985 -11.5637 L -8.13386 -11.5197 L -8.06783 -11.4756 L -8.00177 -11.4314 L -7.93568 -11.3872 L -7.86955 -11.343 L -7.80338 -11.2987 L -7.73718 -11.2544 L -7.67095 -11.21 L -7.60468 -11.1655 L -7.53837 -11.121 L -7.47202 -11.0765 L -7.40564 -11.0319 L -7.33922 -10.9872 L -7.27276 -10.9425 L -7.20626 -10.8977 L -7.13972 -10.8528 L -7.07313 -10.8079 L -7.00651 -10.7629 L -6.93985 -10.7179 L -6.87314 -10.6728 L -6.80639 -10.6276 L -6.7396 -10.5824 L -6.67277 -10.5371 L -6.60589 -10.4917 L -6.53896 -10.4463 L -5.08883 -11.143 L -5.08883 -11.143 L -3.61266 -11.7827 L -3.60318 -11.863 L -3.59368 -11.9433 L -3.58415 -12.0235 L -3.57459 -12.1036 L -3.56502 -12.1836 L -3.55542 -12.2635 L -3.5458 -12.3434 L -3.53616 -12.4232 L -3.5265 -12.5029 L -3.51682 -12.5826 L -3.50712 -12.6622 L -3.4974 -12.7417 L -3.48766 -12.8211 L -3.4779 -12.9005 L -3.46813 -12.9798 L -3.45834 -13.0591 L -3.44853 -13.1383 L -3.4387 -13.2174 L -3.42886 -13.2965 L -3.41901 -13.3755 L -3.40914 -13.4544 L -3.39925 -13.5333 L -3.38935 -13.6122 L -3.37944 -13.6909 L -3.36951 -13.7697 L -3.35956 -13.8483 L -3.28753 -13.8656 L -3.21541 -13.8825 L -3.14321 -13.899 L -3.07092 -13.9152 L -2.99854 -13.9309 L -2.92608 -13.9463 L -2.85355 -13.9614 L -2.78094 -13.976 L -2.70825 -13.9903 L -2.63549 -14.0042 L -2.56266 -14.0177 L -2.48976 -14.0308 L -2.41679 -14.0436 L -2.34376 -14.0559 L -2.27066 -14.0679 L -2.1975 -14.0795 L -2.12429 -14.0908 L -1.93159 -14.1185 L -1.85818 -14.1283 L -1.78471 -14.1378 L -1.7112 -14.1469 L -1.63764 -14.1556 L -1.56403 -14.1639 L -1.49038 -14.1718 L -1.41669 -14.1794 L -1.34297 -14.1866 L -1.26921 -14.1934 L -1.19541 -14.1998 L -1.12158 -14.2058 L -1.04772 -14.2114 L -0.973835 -14.2167 L -0.899921 -14.2216 L -0.825983 -14.226 L -0.752023 -14.2301 L -0.678042 -14.2339 L -0.646341 -14.1612 L -0.614637 -14.0885 L -0.582931 -14.0157 L -0.551222 -13.9428 L -0.519511 -13.8699 L -0.487797 -13.7969 L -0.456082 -13.7239 L -0.424364 -13.6508 L -0.392644 -13.5777 L -0.360923 -13.5044 L -0.3292 -13.4312 L -0.297475 -13.3578 L -0.265748 -13.2844 L -0.234021 -13.2109 L -0.202292 -13.1373 L -0.170561 -13.0637 L -0.13883 -12.99 L -0.107099 -12.9162 L -0.0753661 -12.8424 L -0.0436331 -12.7684 L -0.0119 -12.6944 L 0.0198333 -12.6204 L 0.0515664 -12.5462 L 0.0832992 -12.4719 L 0.115031 -12.3976 L 0.146763 -12.3232 L 1.74336 -12.1253 L 1.74336 -12.1253 L 3.33103 -11.8654 L 3.38244 -11.9278 L 3.43383 -11.9902 L 3.48519 -12.0525 L 3.53653 -12.1147 L 3.58785 -12.1769 L 3.63915 -12.2389 L 3.69043 -12.3009 L 3.74168 -12.3629 L 3.79291 -12.4247 L 3.84412 -12.4865 L 3.89531 -12.5482 L 3.94648 -12.6098 L 3.99763 -12.6714 L 4.04875 -12.7329 L 4.09986 -12.7943 L 4.15094 -12.8557 L 4.20201 -12.917 L 4.25305 -12.9783 L 4.30408 -13.0395 L 4.35508 -13.1006 L 4.40607 -13.1617 L 4.45704 -13.2227 L 4.50799 -13.2837 L 4.55892 -13.3446 L 4.60983 -13.4055 L 4.66072 -13.4663 L 4.73066 -13.4419 L 4.80046 -13.4171 L 4.87014 -13.3919 L 4.93969 -13.3664 L 5.00911 -13.3406 L 5.07838 -13.3144 L 5.14753 -13.2878 L 5.21653 -13.2609 L 5.28539 -13.2336 L 5.35411 -13.2059 L 5.42268 -13.1779 L 5.49111 -13.1495 L 5.55939 -13.1208 L 5.62752 -13.0917 L 5.69549 -13.0623 L 5.76332 -13.0325 L 5.83099 -13.0024 L 6.00807 -12.9215 L 6.07515 -12.8901 L 6.14208 -12.8584 L 6.20883 -12.8263 L 6.27542 -12.7938 L 6.34184 -12.761 L 6.40809 -12.7279 L 6.47416 -12.6944 L 6.54006 -12.6606 L 6.60579 -12.6264 L 6.67133 -12.5919 L 6.7367 -12.557 L 6.80188 -12.5219 L 6.86688 -12.4863 L 6.93169 -12.4505 L 6.99632 -12.4143 L 7.06075 -12.3777 L 7.125 -12.3409 L 7.11238 -12.2626 L 7.09973 -12.1843 L 7.08705 -12.1059 L 7.07434 -12.0275 L 7.0616 -11.949 L 7.04883 -11.8704 L 7.03602 -11.7919 L 7.02319 -11.7132 L 7.01032 -11.6345 L 6.99742 -11.5558 L 6.98449 -11.477 L 6.97152 -11.3981 L 6.95852 -11.3192 L 6.94548 -11.2402 L 6.9324 -11.1612 L 6.91928 -11.0821 L 6.90613 -11.0029 L 6.89294 -10.9237 L 6.87971 -10.8444 L 6.86644 -10.7651 L 6.85312 -10.6857 L 6.83976 -10.6062 L 6.82636 -10.5266 L 6.81292 -10.447 L 6.79943 -10.3673 L 6.78589 -10.2876 L 8.02204 -9.25793 L 8.02204 -9.25793 L 9.21714 -8.1809 L 9.29416 -8.20565 L 9.37112 -8.23034 L 9.44801 -8.25498 L 9.52484 -8.27956 L 9.60161 -8.3041 L 9.67832 -8.32858 L 9.75497 -8.35301 L 9.83156 -8.37739 L 9.9081 -8.40172 L 9.98458 -8.426 L 10.061 -8.45024 L 10.1374 -8.47443 L 10.2137 -8.49858 L 10.29 -8.52268 L 10.3662 -8.54674 L 10.4423 -8.57076 L 10.5184 -8.59473 L 10.5945 -8.61867 L 10.6705 -8.64256 L 10.7465 -8.66642 L 10.8224 -8.69024 L 10.8982 -8.71401 L 10.9741 -8.73776 L 11.0498 -8.76146 L 11.1256 -8.78513 L 11.2013 -8.80877 L 11.2469 -8.75042 L 11.2922 -8.69184 L 11.3373 -8.63302 L 11.382 -8.57397 L 11.4264 -8.51469 L 11.4705 -8.45518 L 11.5143 -8.39544 L 11.5578 -8.33547 L 11.601 -8.27528 L 11.6438 -8.21487 L 11.6864 -8.15423 L 11.7286 -8.09337 L 11.7705 -8.0323 L 11.8121 -7.971 L 11.8534 -7.90949 L 11.8943 -7.84777 L 11.935 -7.78584 L 12.0402 -7.62207 L 12.0797 -7.55938 L 12.1188 -7.49648 L 12.1576 -7.43339 L 12.1961 -7.37009 L 12.2342 -7.30659 L 12.272 -7.2429 L 12.3095 -7.17901 L 12.3467 -7.11492 L 12.3835 -7.05065 L 12.42 -6.98618 L 12.4561 -6.92153 L 12.4919 -6.85668 L 12.5274 -6.79166 L 12.5625 -6.72644 L 12.5973 -6.66105 L 12.6318 -6.59548 L 12.6659 -6.52973 L 12.613 -6.4707 L 12.56 -6.41165 L 12.5069 -6.35257 L 12.4538 -6.29346 L 12.4007 -6.23433 L 12.3475 -6.17517 L 12.2942 -6.11598 L 12.2409 -6.05677 L 12.1876 -5.99752 L 12.1341 -5.93825 L 12.0807 -5.87895 L 12.0271 -5.81962 L 11.9735 -5.76026 L 11.9198 -5.70087 L 11.8661 -5.64146 L 11.8123 -5.58201 L 11.7584 -5.52253 L 11.7045 -5.46301 L 11.6505 -5.40347 L 11.5965 -5.34389 L 11.5423 -5.28429 L 11.4881 -5.22464 L 11.4338 -5.16497 L 11.3795 -5.10526 L 11.3251 -5.04552 L 11.2705 -4.98574 L 11.7538 -3.45122 L 11.7538 -3.45122 L 12.1769 -1.89904 L 12.2551 -1.87823 L 12.3331 -1.85739 L 12.4111 -1.83655 L 12.4891 -1.8157 L 12.5669 -1.79483 L 12.6447 -1.77395 L 12.7224 -1.75306 L 12.8 -1.73216 L 12.8775 -1.71125 L 12.955 -1.69033 L 13.0324 -1.6694 L 13.1097 -1.64847 L 13.187 -1.62752 L 13.2642 -1.60657 L 13.3413 -1.5856 L 13.4183 -1.56463 L 13.4953 -1.54365 L 13.5723 -1.52267 L 13.6491 -1.50168 L 13.7259 -1.48068 L 13.8027 -1.45967 L 13.8793 -1.43866 L 13.956 -1.41764 L 14.0325 -1.39661 L 14.109 -1.37558 L 14.1855 -1.35455 L 14.1923 -1.28079 L 14.1988 -1.207 L 14.2049 -1.13318 L 14.2106 -1.05932 L 14.2159 -0.985439 L 14.2208 -0.91153 L 14.2254 -0.837595 L 14.2295 -0.763638 L 14.2333 -0.689661 L 14.2367 -0.615664 L 14.2397 -0.541651 L 14.2423 -0.467624 L 14.2446 -0.393584 L 14.2464 -0.319533 L 14.2479 -0.245474 L 14.249 -0.171408 L 14.2497 -0.0973368Z"
id="path1" />
</g>
</svg>
