<?xml version="1.0" encoding="UTF-8" standalone="no"?>
<svg version="1.1">
<g
style="fill:none;stroke:#000000;stroke-opacity:1;stroke-width:0.1">
<path d="M 15.9997 0.105655 L 15.9992 0.164476 L 15.9984 0.223295 L 15.9975 0.282111 L 15.9964 0.340924 L 15.995 0.399731 L 15.9934 0.458534 L 15.9916 0.51733 L 15.9896 0.576119 L 15.9874 0.6349 L 15.985 0.693673 L 15.9823 0.752437 L 15.9794 0.81119 L 15.9763 0.869932 L 15.973 0.928663 L 15.9695 0.987381 L 15.9658 1.04609 L 15.9618 1.10478 L 15.9576 1.16345 L 15.9533 1.22211 L 15.9487 1.28075 L 15.9438 1.33938 L 15.9388 1.39799 L 15.9336 1.45658 L 15.8733 1.46971 L 15.813 1.48283 L 15.7527 1.49596 L 15.6923 1.50908 L 15.6319 1.5222 L 15.5716 1.53532 L 15.5111 1.54844 L 15.4507 1.56155 L 15.3902 1.57466 L 15.3298 1.58777 L 15.2692 1.60088 L 15.2087 1.61399 L 15.1482 1.62709 L 15.0876 1.64019 L 15.027 1.65328 L 14.9663 1.66638 L 14.9057 1.67947 L 14.845 1.69255 L 14.7843 1.70564 L 14.7236 1.71872 L 14.6628 1.7318 L 14.602 1.74488 L 14.5412 1.75795 L 14.4803 1.77102 L 14.4195 1.78408 L 14.3586 1.79714 L 14.2976 1.8102 L 14.2367 1.82326 L 14.1757 1.83631 L 14.1147 1.84935 L 14.0536 1.8624 L 13.9925 1.87544 L 13.9314 1.88847 L 13.649 3.11529 L 13.649 3.11529 L 13.3711 4.34316 L 13.4205 4.38142 L 13.4699 4.41967 L 13.5193 4.45791 L 13.5686 4.49614 L 13.6179 4.53436 L 13.6671 4.57257 L 13.7164 4.61077 L 13.7656 4.64897 L 13.8147 4.68715 L 13.8639 4.72533 L 13.913 4.76349 L 13.9621 4.80165 L 14.0112 4.8398 L 14.0602 4.87793 L 14.1093 4.91606 L 14.1582 4.95419 L 14.2072 4.9923 L 14.2562 5.0304 L 14.3051 5.0685 L 14.354 5.10659 L 14.4029 5.14466 L 14.4517 5.18274 L 14.5005 5.2208 L 14.5493 5.25885 L 14.5981 5.2969 L 14.6469 5.33494 L 14.6956 5.37297 L 14.7444 5.41099 L 14.793 5.449 L 14.8417 5.48701 L 14.8904 5.52501 L 14.939 5.563 L 14.9876 5.60098 L 14.9669 5.65605 L 14.946 5.71103 L 14.9249 5.76594 L 14.9036 5.82078 L 14.8821 5.87553 L 14.8604 5.9302 L 14.8385 5.9848 L 14.8164 6.03931 L 14.7941 6.09374 L 14.7716 6.14809 L 14.7489 6.20236 L 14.726 6.25654 L 14.7029 6.31063 L 14.6796 6.36465 L 14.6561 6.41857 L 14.6324 6.47241 L 14.6085 6.52616 L 14.5844 6.57983 L 14.5602 6.6334 L 14.5357 6.68689 L 14.511 6.74028 L 14.4861 6.79359 L 14.461 6.8468 L 14.3693 7.03718 L 14.3434 7.08996 L 14.3172 7.14265 L 14.2909 7.19523 L 14.2643 7.24773 L 14.2376 7.30012 L 14.2106 7.35241 L 14.1835 7.40461 L 14.1562 7.4567 L 14.1287 7.5087 L 14.101 7.56059 L 14.0731 7.61238 L 14.045 7.66407 L 14.0167 7.71565 L 13.9883 7.76713 L 13.9596 7.81851 L 13.9308 7.86978 L 13.9018 7.92094 L 13.8725 7.972 L 13.8431 8.02294 L 13.8135 8.07378 L 13.7838 8.12451 L 13.7538 8.17513 L 13.7237 8.22564 L 13.6637 8.21132 L 13.6036 8.19698 L 13.5436 8.18263 L 13.4835 8.16827 L 13.4234 8.1539 L 13.3633 8.13952 L 13.3032 8.12513 L 13.2431 8.11072 L 13.1829 8.0963 L 13.1227 8.08187 L 13.0625 8.06742 L 13.0023 8.05297 L 12.9421 8.0385 L 12.8818 8.02401 L 12.8215 8.00952 L 12.7612 7.99501 L 12.7009 7.98048 L 12.6405 7.96594 L 12.5801 7.95139 L 12.5197 7.93682 L 12.4593 7.92224 L 12.3989 7.90765 L 12.3384 7.89304 L 12.2779 7.87841 L 12.2174 7.86377 L 12.1569 7.84912 L 12.0963 7.83444 L 12.0357 7.81975 L 11.9751 7.80505 L 11.9145 7.79033 L 11.8538 7.77559 L 11.7931 7.76084 L 11.7324 7.74607 L 10.9456 8.72886 L 10.9456 8.72886 L 10.1626 9.71457 L 10.1905 9.77048 L 10.2184 9.82637 L 10.2462 9.88223 L 10.2741 9.93807 L 10.3019 9.99389 L 10.3297 10.0497 L 10.3575 10.1055 L 10.3852 10.1612 L 10.413 10.217 L 10.4407 10.2727 L 10.4684 10.3284 L 10.4961 10.3841 L 10.5237 10.4397 L 10.5514 10.4954 L 10.579 10.551 L 10.6066 10.6066 L 10.6342 10.6622 L 10.6618 10.7178 L 10.6893 10.7733 L 10.7168 10.8288 L 10.7443 10.8844 L 10.7718 10.9398 L 10.7993 10.9953 L 10.8268 11.0508 L 10.8542 11.1062 L 10.8817 11.1617 L 10.9091 11.2171 L 10.9365 11.2725 L 10.9638 11.3278 L 10.9912 11.3832 L 11.0186 11.4386 L 11.0459 11.4939 L 11.0732 11.5492 L 11.0307 11.5898 L 10.988 11.6303 L 10.9452 11.6706 L 10.9022 11.7108 L 10.8591 11.7508 L 10.8158 11.7906 L 10.7724 11.8303 L 10.7288 11.8698 L 10.6851 11.9092 L 10.6412 11.9484 L 10.5972 11.9874 L 10.5531 12.0263 L 10.5088 12.065 L 10.4644 12.1036 L 10.4198 12.142 L 10.3751 12.1802 L 10.3302 12.2183 L 10.2852 12.2562 L 10.2401 12.2939 L 10.1948 12.3315 L 10.1494 12.3689 L 10.1039 12.4061 L 10.0582 12.4432 L 9.89302 12.5749 L 9.84672 12.6112 L 9.80029 12.6473 L 9.75372 12.6833 L 9.70703 12.719 L 9.6602 12.7546 L 9.61324 12.7901 L 9.56616 12.8253 L 9.51894 12.8604 L 9.47159 12.8953 L 9.42412 12.93 L 9.37652 12.9646 L 9.32879 12.999 L 9.28094 13.0332 L 9.23296 13.0672 L 9.18486 13.1011 L 9.13663 13.1348 L 9.08828 13.1683 L 9.03981 13.2016 L 8.99121 13.2347 L 8.94249 13.2677 L 8.89365 13.3005 L 8.84469 13.3331 L 8.79562 13.3655 L 8.74777 13.3266 L 8.69991 13.2876 L 8.65203 13.2486 L 8.60415 13.2096 L 8.55625 13.1706 L 8.50834 13.1316 L 8.46042 13.0925 L 8.41248 13.0535 L 8.36454 13.0144 L 8.31658 12.9752 L 8.2686 12.9361 L 8.22062 12.897 L 8.17262 12.8578 L 8.1246 12.8186 L 8.07658 12.7794 L 8.02854 12.7401 L 7.98048 12.7009 L 7.93241 12.6616 L 7.88433 12.6223 L 7.83623 12.5829 L 7.78812 12.5436 L 7.74 12.5042 L 7.69186 12.4648 L 7.6437 12.4254 L 7.59554 12.3859 L 7.54735 12.3465 L 7.49915 12.307 L 7.45094 12.2675 L 7.40271 12.2279 L 7.35446 12.1883 L 7.3062 12.1487 L 7.25792 12.1091 L 7.20963 12.0695 L 6.07437 12.6136 L 6.07437 12.6136 L 4.94115 13.1619 L 4.94204 13.2244 L 4.94292 13.2868 L 4.94379 13.3493 L 4.94465 13.4116 L 4.9455 13.474 L 4.94634 13.5363 L 4.94717 13.5987 L 4.94798 13.6609 L 4.94879 13.7232 L 4.94959 13.7854 L 4.95038 13.8476 L 4.95116 13.9098 L 4.95193 13.972 L 4.95269 14.0341 L 4.95344 14.0962 L 4.95419 14.1582 L 4.95492 14.2203 L 4.95565 14.2823 L 4.95637 14.3443 L 4.95708 14.4063 L 4.95778 14.4683 L 4.95847 14.5302 L 4.95916 14.5921 L 4.95984 14.654 L 4.96051 14.7158 L 4.96117 14.7777 L 4.96182 14.8395 L 4.96247 14.9013 L 4.96311 14.9631 L 4.96375 15.0248 L 4.96438 15.0866 L 4.965 15.1483 L 4.96561 15.21 L 4.90966 15.2281 L 4.85364 15.2461 L 4.79755 15.2638 L 4.7414 15.2813 L 4.68519 15.2987 L 4.62891 15.3158 L 4.57257 15.3327 L 4.51617 15.3494 L 4.45971 15.3659 L 4.40319 15.3822 L 4.34661 15.3983 L 4.28997 15.4142 L 4.23327 15.4298 L 4.17651 15.4453 L 4.1197 15.4605 L 4.06283 15.4756 L 4.00591 15.4904 L 3.94893 15.505 L 3.8919 15.5194 L 3.83482 15.5336 L 3.77768 15.5476 L 3.7205 15.5614 L 3.66326 15.575 L 3.45725 15.622 L 3.39979 15.6346 L 3.34229 15.647 L 3.28474 15.6592 L 3.22715 15.6712 L 3.16951 15.6829 L 3.11184 15.6945 L 3.05411 15.7058 L 2.99635 15.7169 L 2.93855 15.7278 L 2.88071 15.7385 L 2.82282 15.749 L 2.7649 15.7593 L 2.70695 15.7694 L 2.64895 15.7792 L 2.59092 15.7888 L 2.53286 15.7982 L 2.47476 15.8075 L 2.41663 15.8164 L 2.35846 15.8252 L 2.30027 15.8338 L 2.24204 15.8421 L 2.18378 15.8503 L 2.12549 15.8582 L 2.09928 15.8023 L 2.07306 15.7465 L 2.04684 15.6906 L 2.02062 15.6347 L 1.9944 15.5787 L 1.96817 15.5228 L 1.94194 15.4668 L 1.9157 15.4108 L 1.88947 15.3548 L 1.86323 15.2987 L 1.83698 15.2426 L 1.81074 15.1865 L 1.78449 15.1304 L 1.75824 15.0743 L 1.73198 15.0181 L 1.70573 14.9619 L 1.67947 14.9057 L 1.6532 14.8494 L 1.62694 14.7932 L 1.60067 14.7369 L 1.5744 14.6805 L 1.54812 14.6242 L 1.52184 14.5678 L 1.49556 14.5114 L 1.46928 14.4549 L 1.44299 14.3985 L 1.41671 14.342 L 1.39041 14.2854 L 1.36412 14.2289 L 1.33782 14.1723 L 1.31152 14.1157 L 1.28522 14.059 L 1.25891 14.0023 L 4.44089e-16 14 L 1.27042e-15 14 L -1.25891 14.0023 L -1.28522 14.059 L -1.31152 14.1157 L -1.33782 14.1723 L -1.36412 14.2289 L -1.39041 14.2854 L -1.41671 14.342 L -1.44299 14.3985 L -1.46928 14.4549 L -1.49556 14.5114 L -1.52184 14.5678 L -1.54812 14.6242 L -1.5744 14.6805 L -1.60067 14.7369 L -1.62694 14.7932 L -1.6532 14.8494 L -1.67947 14.9057 L -1.70573 14.9619 L -1.73198 15.0181 L -1.75824 15.0743 L -1.78449 15.1304 L -1.81074 15.1865 L -1.83698 15.2426 L -1.86323 15.2987 L -1.88947 15.3548 L -1.9157 15.4108 L -1.94194 15.4668 L -1.96817 15.5228 L -1.9944 15.5787 L -2.02062 15.6347 L -2.04684 15.6906 L -2.07306 15.7465 L -2.09928 15.8023 L -2.12549 15.8582 L -2.18378 15.8503 L -2.24204 15.8421 L -2.30027 15.8338 L -2.35846 15.8252 L -2.41663 15.8164 L -2.47476 15.8075 L -2.53286 15.7982 L -2.59092 15.7888 L -2.64895 15.7792 L -2.70695 15.7694 L -2.7649 15.7593 L -2.82282 15.749 L -2.88071 15.7385 L -2.93855 15.7278 L -2.99635 15.7169 L -3.05411 15.7058 L -3.11184 15.6945 L -3.16951 15.6829 L -3.22715 15.6712 L -3.28474 15.6592 L -3.34229 15.647 L -3.39979 15.6346 L -3.45725 15.622 L -3.66326 15.575 L -3.7205 15.5614 L -3.77768 15.5476 L -3.83482 15.5336 L -3.8919 15.5194 L -3.94893 15.505 L -4.00591 15.4904 L -4.06283 15.4756 L -4.1197 15.4605 L -4.17651 15.4453 L -4.23327 15.4298 L -4.28997 15.4142 L -4.34661 15.3983 L -4.40319 15.3822 L -4.45971 15.3659 L -4.51617 15.3494 L -4.57257 15.3327 L -4.62891 15.3158 L -4.68519 15.2987 L -4.7414 15.2813 L -4.79755 15.2638 L -4.85364 15.2461 L -4.90966 15.2281 L -4.96561 15.21 L -4.965 15.1483 L -4.96438 15.0866 L -4.96375 15.0248 L -4.96311 14.9631 L -4.96247 14.9013 L -4.96182 14.8395 L -4.96117 14.7777 L -4.96051 14.7158 L -4.95984 14.654 L -4.95916 14.5921 L -4.95847 14.5302 L -4.95778 14.4683 L -4.95708 14.4063 L -4.95637 14.3443 L -4.95565 14.2823 L -4.95492 14.2203 L -4.95419 14.1582 L -4.95344 14.0962 L -4.95269 14.0341 L -4.95193 13.972 L -4.95116 13.9098 L -4.95038 13.8476 L -4.94959 13.7854 L -4.94879 13.7232 L -4.94798 13.6609 L -4.94717 13.5987 L -4.94634 13.5363 L -4.9455 13.474 L -4.94465 13.4116 L -4.94379 13.3493 L -4.94292 13.2868 L -4.94204 13.2244 L -4.94115 13.1619 L -6.07437 12.6136 L -6.07437 12.6136 L -7.20963 12.0695 L -7.25792 12.1091 L -7.3062 12.1487 L -7.35446 12.1883 L -7.40271 12.2279 L -7.45094 12.2675 L -7.49915 12.307 L -7.54735 12.3465 L -7.59554 12.3859 L -7.6437 12.4254 L -7.69186 12.4648 L -7.74 12.5042 L -7.78812 12.5436 L -7.83623 12.5829 L -7.88433 12.6223 L -7.93241 12.6616 L -7.98048 12.7009 L -8.02854 12.7401 L -8.07658 12.7794 L -8.1246 12.8186 L -8.17262 12.8578 L -8.22062 12.897 L -8.2686 12.9361 L -8.31658 12.9752 L -8.36454 13.0144 L -8.41248 13.0535 L -8.46042 13.0925 L -8.50834 13.1316 L -8.55625 13.1706 L -8.60415 13.2096 L -8.65203 13.2486 L -8.69991 13.2876 L -8.74777 13.3266 L -8.79562 13.3655 L -8.84469 13.3331 L -8.89365 13.3005 L -8.94249 13.2677 L -8.99121 13.2347 L -9.03981 13.2016 L -9.08828 13.1683 L -9.13663 13.1348 L -9.18486 13.1011 L -9.23296 13.0672 L -9.28094 13.0332 L -9.32879 12.999 L -9.37652 12.9646 L -9.42412 12.93 L -9.47159 12.8953 L -9.51894 12.8604 L -9.56616 12.8253 L -9.61324 12.7901 L -9.6602 12.7546 L -9.70703 12.719 L -9.75372 12.6833 L -9.80029 12.6473 L -9.84672 12.6112 L -9.89302 12.5749 L -10.0582 12.4432 L -10.1039 12.4061 L -10.1494 12.3689 L -10.1948 12.3315 L -10.2401 12.2939 L -10.2852 12.2562 L -10.3302 12.2183 L -10.3751 12.1802 L -10.4198 12.142 L -10.4644 12.1036 L -10.5088 12.065 L -10.5531 12.0263 L -10.5972 11.9874 L -10.6412 11.9484 L -10.6851 11.9092 L -10.7288 11.8698 L -10.7724 11.8303 L -10.8158 11.7906 L -10.8591 11.7508 L -10.9022 11.7108 L -10.9452 11.6706 L -10.988 11.6303 L -11.0307 11.5898 L -11.0732 11.5492 L -11.0459 11.4939 L -11.0186 11.4386 L -10.9912 11.3832 L -10.9638 11.3278 L -10.9365 11.2725 L -10.9091 11.2171 L -10.8817 11.1617 L -10.8542 11.1062 L -10.8268 11.0508 L -10.7993 10.9953 L -10.7718 10.9398 L -10.7443 10.8844 L -10.7168 10.8288 L -10.6893 10.7733 L -10.6618 10.7178 L -10.6342 10.6622 L -10.6066 10.6066 L -10.579 10.551 L -10.5514 10.4954 L -10.5237 10.4397 L -10.4961 10.3841 L -10.4684 10.3284 L -10.4407 10.2727 L -10.413 10.217 L -10.3852 10.1612 L -10.3575 10.1055 L -10.3297 10.0497 L -10.3019 9.99389 L -10.2741 9.93807 L -10.2462 9.88223 L -10.2184 9.82637 L -10.1905 9.77048 L -10.1626 9.71457 L -10.9456 8.72886 L -10.9456 8.72886 L -11.7324 7.74607 L -11.7931 7.76084 L -11.8538 7.77559 L -11.9145 7.79033 L -11.9751 7.80505 L -12.0357 7.81975 L -12.0963 7.83444 L -12.1569 7.84912 L -12.2174 7.86377 L -12.2779 7.87841 L -12.3384 7.89304 L -12.3989 7.90765 L -12.4593 7.92224 L -12.5197 7.93682 L -12.5801 7.95139 L -12.6405 7.96594 L -12.7009 7.98048 L -12.7612 7.99501 L -12.8215 8.00952 L -12.8818 8.02401 L -12.9421 8.0385 L -13.0023 8.05297 L -13.0625 8.06742 L -13.1227 8.08187 L -13.1829 8.0963 L -13.2431 8.11072 L -13.3032 8.12513 L -13.3633 8.13952 L -13.4234 8.1539 L -13.4835 8.16827 L -13.5436 8.18263 L -13.6036 8.19698 L -13.6637 8.21132 L -13.7237 8.22564 L -13.7538 8.17513 L -13.7838 8.12451 L -13.8135 8.07378 L -13.8431 8.02294 L -13.8725 7.972 L -13.9018 7.92094 L -13.9308 7.86978 L -13.9596 7.81851 L -13.9883 7.76713 L -14.0167 7.71565 L -14.045 7.66407 L -14.0731 7.61238 L -14.101 7.56059 L -14.1287 7.5087 L -14.1562 7.4567 L -14.1835 7.40461 L -14.2106 7.35241 L -14.2376 7.30012 L -14.2643 7.24773 L -14.2909 7.19523 L -14.3172 7.14265 L -14.3434 7.08996 L -14.3693 7.03718 L -14.461 6.8468 L -14.4861 6.79359 L -14.511 6.74028 L -14.5357 6.68689 L -14.5602 6.6334 L -14.5844 6.57983 L -14.6085 6.52616 L -14.6324 6.47241 L -14.6561 6.41857 L -14.6796 6.36465 L -14.7029 6.31063 L -14.726 6.25654 L -14.7489 6.20236 L -14.7716 6.14809 L -14.7941 6.09374 L -14.8164 6.03931 L -14.8385 5.9848 L -14.8604 5.9302 L -14.8821 5.87553 L -14.9036 5.82078 L -14.9249 5.76594 L -14.946 5.71103 L -14.9669 5.65605 L -14.9876 5.60098 L -14.939 5.563 L -14.8904 5.52501 L -14.8417 5.48701 L -14.793 5.449 L -14.7444 5.41099 L -14.6956 5.37297 L -14.6469 5.33494 L -14.5981 5.2969 L -14.5493 5.25885 L -14.5005 5.2208 L -14.4517 5.18274 L -14.4029 5.14466 L -14.354 5.10659 L -14.3051 5.0685 L -14.2562 5.0304 L -14.2072 4.9923 L -14.1582 4.95419 L -14.1093 4.91606 L -14.0602 4.87793 L -14.0112 4.8398 L -13.9621 4.80165 L -13.913 4.76349 L -13.8639 4.72533 L -13.8147 4.68715 L -13.7656 4.64897 L -13.7164 4.61077 L -13.6671 4.57257 L -13.6179 4.53436 L -13.5686 4.49614 L -13.5193 4.45791 L -13.4699 4.41967 L -13.4205 4.38142 L -13.3711 4.34316 L -13.649 3.11529 L -13.649 3.11529 L -13.9314 1.88847 L -13.9925 1.87544 L -14.0536 1.8624 L -14.1147 1.84935 L -14.1757 1.83631 L -14.2367 1.82326 L -14.2976 1.8102 L -14.3586 1.79714 L -14.4195 1.78408 L -14.4803 1.77102 L -14.5412 1.75795 L -14.602 1.74488 L -14.6628 1.7318 L -14.7236 1.71872 L -14.7843 1.70564 L -14.845 1.69255 L -14.9057 1.67947 L -14.9663 1.66638 L -15.027 1.65328 L -15.0876 1.64019 L -15.1482 1.62709 L -15.2087 1.61399 L -15.2692 1.60088 L -15.3298 1.58777 L -15.3902 1.57466 L -15.4507 1.56155 L -15.5111 1.54844 L -15.5716 1.53532 L -15.6319 1.5222 L -15.6923 1.50908 L -15.7527 1.49596 L -15.813 1.48283 L -15.8733 1.46971 L -15.9336 1.45658 L -15.9388 1.39799 L -15.9438 1.33938 L -15.9487 1.28075 L -15.9533 1.22211 L -15.9576 1.16345 L -15.9618 1.10478 L -15.9658 1.04609 L -15.9695 0.987381 L -15.973 0.928663 L -15.9763 0.869932 L -15.9794 0.81119 L -15.9823 0.752437 L -15.985 0.693673 L -15.9874 0.6349 L -15.9896 0.576119 L -15.9916 0.51733 L -15.9934 0.458534 L -15.995 0.399731 L -15.9964 0.340924 L -15.9975 0.282111 L -15.9984 0.223295 L -15.9992 0.164476 L -15.9997 0.105655 L -15.9997 -0.105655 L -15.9992 -0.164476 L -15.9984 -0.223295 L -15.9975 -0.282111 L -15.9964 -0.340924 L -15.995 -0.399731 L -15.9934 -0.458534 L -15.9916 -0.51733 L -15.9896 -0.576119 L -15.9874 -0.6349 L -15.985 -0.693673 L -15.9823 -0.752437 L -15.9794 -0.81119 L -15.9763 -0.869932 L -15.973 -0.928663 L -15.9695 -0.987381 L -15.9658 -1.04609 L -15.9618 -1.10478 L -15.9576 -1.16345 L -15.9533 -1.22211 L -15.9487 -1.28075 L -15.9438 -1.33938 L -15.9388 -1.39799 L -15.9336 -1.45658 L -15.8733 -1.46971 L -15.813 -1.48283 L -15.7527 -1.49596 L -15.6923 -1.50908 L -15.6319 -1.5222 L -15.5716 -1.53532 L -15.5111 -1.54844 L -15.4507 -1.56155 L -15.3902 -1.57466 L -15.3298 -1.58777 L -15.2692 -1.60088 L -15.2087 -1.61399 L -15.1482 -1.62709 L -15.0876 -1.64019 L -15.027 -1.65328 L -14.9663 -1.66638 L -14.9057 -1.67947 L -14.845 -1.69255 L -14.7843 -1.70564 L -14.7236 -1.71872 L -14.6628 -1.7318 L -14.602 -1.74488 L -14.5412 -1.75795 L -14.4803 -1.77102 L -14.4195 -1.78408 L -14.3586 -1.79714 L -14.2976 -1.8102 L -14.2367 -1.82326 L -14.1757 -1.83631 L -14.1147 -1.84935 L -14.0536 -1.8624 L -13.9925 -1.87544 L -13.9314 -1.88847 L -13.649 -3.11529 L -13.649 -3.11529 L -13.3711 -4.34316 L -13.4205 -4.38142 L -13.4699 -4.41967 L -13.5193 -4.45791 L -13.5686 -4.49614 L -13.6179 -4.53436 L -13.6671 -4.57257 L -13.7164 -4.61077 L -13.7656 -4.64897 L -13.8147 -4.68715 L -13.8639 -4.72533 L -13.913 -4.76349 L -13.9621 -4.80165 L -14.0112 -4.8398 L -14.0602 -4.87793 L -14.1093 -4.91606 L -14.1582 -4.95419 L -14.2072 -4.9923 L -14.2562 -5.0304 L -14.3051 -5.0685 L -14.354 -5.10659 L -14.4029 -5.14466 L -14.4517 -5.18274 L -14.5005 -5.2208 L -14.5493 -5.25885 L -14.5981 -5.2969 L -14.6469 -5.33494 L -14.6956 -5.37297 L -14.7444 -5.41099 L -14.793 -5.449 L -14.8417 -5.48701 L -14.8904 -5.52501 L -14.939 -5.563 L -14.9876 -5.60098 L -14.9669 -5.65605 L -14.946 -5.71103 L -14.9249 -5.76594 L -14.9036 -5.82078 L -14.8821 -5.87553 L -14.8604 -5.9302 L -14.8385 -5.9848 L -14.8164 -6.03931 L -14.7941 -6.09374 L -14.7716 -6.14809 L -14.7489 -6.20236 L -14.726 -6.25654 L -14.7029 -6.31063 L -14.6796 -6.36465 L -14.6561 -6.41857 L -14.6324 -6.47241 L -14.6085 -6.52616 L -14.5844 -6.57983 L -14.5602 -6.6334 L -14.5357 -6.68689 L -14.511 -6.74028 L -14.4861 -6.79359 L -14.461 -6.8468 L -14.3693 -7.03718 L -14.3434 -7.08996 L -14.3172 -7.14265 L -14.2909 -7.19523 L -14.2643 -7.24773 L -14.2376 -7.30012 L -14.2106 -7.35241 L -14.1835 -7.40461 L -14.1562 -7.4567 L -14.1287 -7.5087 L -14.101 -7.56059 L -14.0731 -7.61238 L -14.045 -7.66407 L -14.0167 -7.71565 L -13.9883 -7.76713 L -13.9596 -7.81851 L -13.9308 -7.86978 L -13.9018 -7.92094 L -13.8725 -7.972 L -13.8431 -8.02294 L -13.8135 -8.07378 L -13.7838 -8.12451 L -13.7538 -8.17513 L -13.7237 -8.22564 L -13.6637 -8.21132 L -13.6036 -8.19698 L -13.5436 -8.18263 L -13.4835 -8.16827 L -13.4234 -8.1539 L -13.3633 -8.13952 L -13.3032 -8.12513 L -13.2431 -8.11072 L -13.1829 -8.0963 L -13.1227 -8.08187 L -13.0625 -8.06742 L -13.0023 -8.05297 L -12.9421 -8.0385 L -12.8818 -8.02401 L -12.8215 -8.00952 L -12.7612 -7.99501 L -12.7009 -7.98048 L -12.6405 -7.96594 L -12.5801 -7.95139 L -12.5197 -7.93682 L -12.4593 -7.92224 L -12.3989 -7.90765 L -12.3384 -7.89304 L -12.2779 -7.87841 L -12.2174 -7.86377 L -12.1569 -7.84912 L -12.0963 -7.83444 L -12.0357 -7.81975 L -11.9751 -7.80505 L -11.9145 -7.79033 L -11.8538 -7.77559 L -11.7931 -7.76084 L -11.7324 -7.74607 L -10.9456 -8.72886 L -10.9456 -8.72886 L -10.1626 -9.71457 L -10.1905 -9.77048 L -10.2184 -9.82637 L -10.2462 -9.88223 L -10.2741 -9.93807 L -10.3019 -9.99389 L -10.3297 -10.0497 L -10.3575 -10.1055 L -10.3852 -10.1612 L -10.413 -10.217 L -10.4407 -10.2727 L -10.4684 -10.3284 L -10.4961 -10.3841 L -10.5237 -10.4397 L -10.5514 -10.4954 L -10.579 -10.551 L -10.6066 -10.6066 L -10.6342 -10.6622 L -10.6618 -10.7178 L -10.6893 -10.7733 L -10.7168 -10.8288 L -10.7443 -10.8844 L -10.7718 -10.9398 L -10.7993 -10.9953 L -10.8268 -11.0508 L -10.8542 -11.1062 L -10.8817 -11.1617 L -10.9091 -11.2171 L -10.9365 -11.2725 L -10.9638 -11.3278 L -10.9912 -11.3832 L -11.0186 -11.4386 L -11.0459 -11.4939 L -11.0732 -11.5492 L -11.0307 -11.5898 L -10.988 -11.6303 L -10.9452 -11.6706 L -10.9022 -11.7108 L -10.8591 -11.7508 L -10.8158 -11.7906 L -10.7724 -11.8303 L -10.7288 -11.8698 L -10.6851 -11.9092 L -10.6412 -11.9484 L -10.5972 -11.9874 L -10.5531 -12.0263 L -10.5088 -12.065 L -10.4644 -12.1036 L -10.4198 -12.142 L -10.3751 -12.1802 L -10.3302 -12.2183 L -10.2852 -12.2562 L -10.2401 -12.2939 L -10.1948 -12.3315 L -10.1494 -12.3689 L -10.1039 -12.4061 L -10.0582 -12.4432 L -9.89302 -12.5749 L -9.84672 -12.6112 L -9.80029 -12.6473 L -9.75372 -12.6833 L -9.70703 -12.719 L -9.6602 -12.7546 L -9.61324 -12.7901 L -9.56616 -12.8253 L -9.51894 -12.8604 L -9.47159 -12.8953 L -9.42412 -12.93 L -9.37652 -12.9646 L -9.32879 -12.999 L -9.28094 -13.0332 L -9.23296 -13.0672 L -9.18486 -13.1011 L -9.13663 -13.1348 L -9.08828 -13.1683 L -9.03981 -13.2016 L -8.99121 -13.2347 L -8.94249 -13.2677 L -8.89365 -13.3005 L -8.84469 -13.3331 L -8.79562 -13.3655 L -8.74777 -13.3266 L -8.69991 -13.2876 L -8.65203 -13.2486 L -8.60415 -13.2096 L -8.55625 -13.1706 L -8.50834 -13.1316 L -8.46042 -13.0925 L -8.41248 -13.0535 L -8.36454 -13.0144 L -8.31658 -12.9752 L -8.2686 -12.9361 L -8.22062 -12.897 L -8.17262 -12.8578 L -8.1246 -12.8186 L -8.07658 -12.7794 L -8.02854 -12.7401 L -7.98048 -12.7009 L -7.93241 -12.6616 L -7.88433 -12.6223 L -7.83623 -12.5829 L -7.78812 -12.5436 L -7.74 -12.5042 L -7.69186 -12.4648 L -7.6437 -12.4254 L -7.59554 -12.3859 L -7.54735 -12.3465 L -7.49915 -12.307 L -7.45094 -12.2675 L -7.40271 -12.2279 L -7.35446 -12.1883 L -7.3062 -12.1487 L -7.25792 -12.1091 L -7.20963 -12.0695 L -6.07437 -12.6136 L -6.07437 -12.6136 L -4.94115 -13.1619 L -4.94204 -13.2244 L -4.94292 -13.2868 L -4.94379 -13.3493 L -4.94465 -13.4116 L -4.9455 -13.474 L -4.94634 -13.5363 L -4.94717 -13.5987 L -4.94798 -13.6609 L -4.94879 -13.7232 L -4.94959 -13.7854 L -4.95038 -13.8476 L -4.95116 -13.9098 L -4.95193 -13.972 L -4.95269 -14.0341 L -4.95344 -14.0962 L -4.95419 -14.1582 L -4.95492 -14.2203 L -4.95565 -14.2823 L -4.95637 -14.3443 L -4.95708 -14.4063 L -4.95778 -14.4683 L -4.95847 -14.5302 L -4.95916 -14.5921 L -4.95984 -14.654 L -4.96051 -14.7158 L -4.96117 -14.7777 L -4.96182 -14.8395 L -4.96247 -14.9013 L -4.96311 -14.9631 L -4.96375 -15.0248 L -4.96438 -15.0866 L -4.965 -15.1483 L -4.96561 -15.21 L -4.90966 -15.2281 L -4.85364 -15.2461 L -4.79755 -15.2638 L -4.7414 -15.2813 L -4.68519 -15.2987 L -4.62891 -15.3158 L -4.57257 -15.3327 L -4.51617 -15.3494 L -4.45971 -15.3659 L -4.40319 -15.3822 L -4.34661 -15.3983 L -4.28997 -15.4142 L -4.23327 -15.4298 L -4.17651 -15.4453 L -4.1197 -15.4605 L -4.06283 -15.4756 L -4.00591 -15.4904 L -3.94893 -15.505 L -3.8919 -15.5194 L -3.83482 -15.5336 L -3.77768 -15.5476 L -3.7205 -15.5614 L -3.66326 -15.575 L -3.45725 -15.622 L -3.39979 -15.6346 L -3.34229 -15.647 L -3.28474 -15.6592 L -3.22715 -15.6712 L -3.16951 -15.6829 L -3.11184 -15.6945 L -3.05411 -15.7058 L -2.99635 -15.7169 L -2.93855 -15.7278 L -2.88071 -15.7385 L -2.82282 -15.749 L -2.7649 -15.7593 L -2.70695 -15.7694 L -2.64895 -15.7792 L -2.59092 -15.7888 L -2.53286 -15.7982 L -2.47476 -15.8075 L -2.41663 -15.8164 L -2.35846 -15.8252 L -2.30027 -15.8338 L -2.24204 -15.8421 L -2.18378 -15.8503 L -2.12549 -15.8582 L -2.09928 -15.8023 L -2.07306 -15.7465 L -2.04684 -15.6906 L -2.02062 -15.6347 L -1.9944 -15.5787 L -1.96817 -15.5228 L -1.94194 -15.4668 L -1.9157 -15.4108 L -1.88947 -15.3548 L -1.86323 -15.2987 L -1.83698 -15.2426 L -1.81074 -15.1865 L -1.78449 -15.1304 L -1.75824 -15.0743 L -1.73198 -15.0181 L -1.70573 -14.9619 L -1.67947 -14.9057 L -1.6532 -14.8494 L -1.62694 -14.7932 L -1.60067 -14.7369 L -1.5744 -14.6805 L -1.54812 -14.6242 L -1.52184 -14.5678 L -1.49556 -14.5114 L -1.46928 -14.4549 L -1.44299 -14.3985 L -1.41671 -14.342 L -1.39041 -14.2854 L -1.36412 -14.2289 L -1.33782 -14.1723 L -1.31152 -14.1157 L -1.28522 -14.059 L -1.25891 -14.0023 L -2.66454e-15 -14 L -2.47898e-15 -14 L 1.25891 -14.0023 L 1.28522 -14.059 L 1.31152 -14.1157 L 1.33782 -14.1723 L 1.36412 -14.2289 L 1.39041 -14.2854 L 1.41671 -14.342 L 1.44299 -14.3985 L 1.46928 -14.4549 L 1.49556 -14.5114 L 1.52184 -14.5678 L 1.54812 -14.6242 L 1.5744 -14.6805 L 1.60067 -14.7369 L 1.62694 -14.7932 L 1.6532 -14.8494 L 1.67947 -14.9057 L 1.70573 -14.9619 L 1.73198 -15.0181 L 1.75824 -15.0743 L 1.78449 -15.1304 L 1.81074 -15.1865 L 1.83698 -15.2426 L 1.86323 -15.2987 L 1.88947 -15.3548 L 1.9157 -15.4108 L 1.94194 -15.4668 L 1.96817 -15.5228 L 1.9944 -15.5787 L 2.02062 -15.6347 L 2.04684 -15.6906 L 2.07306 -15.7465 L 2.09928 -15.8023 L 2.12549 -15.8582 L 2.18378 -15.8503 L 2.24204 -15.8421 L 2.30027 -15.8338 L 2.35846 -15.8252 L 2.41663 -15.8164 L 2.47476 -15.8075 L 2.53286 -15.7982 L 2.59092 -15.7888 L 2.64895 -15.7792 L 2.70695 -15.7694 L 2.7649 -15.7593 L 2.82282 -15.749 L 2.88071 -15.7385 L 2.93855 -15.7278 L 2.99635 -15.7169 L 3.05411 -15.7058 L 3.11184 -15.6945 L 3.16951 -15.6829 L 3.22715 -15.6712 L 3.28474 -15.6592 L 3.34229 -15.647 L 3.39979 -15.6346 L 3.45725 -15.622 L 3.66326 -15.575 L 3.7205 -15.5614 L 3.77768 -15.5476 L 3.83482 -15.5336 L 3.8919 -15.5194 L 3.94893 -15.505 L 4.00591 -15.4904 L 4.06283 -15.4756 L 4.1197 -15.4605 L 4.17651 -15.4453 L 4.23327 -15.4298 L 4.28997 -15.4142 L 4.34661 -15.3983 L 4.40319 -15.3822 L 4.45971 -15.3659 L 4.51617 -15.3494 L 4.57257 -15.3327 L 4.62891 -15.3158 L 4.68519 -15.2987 L 4.7414 -15.2813 L 4.79755 -15.2638 L 4.85364 -15.2461 L 4.90966 -15.2281 L 4.96561 -15.21 L 4.965 -15.1483 L 4.96438 -15.0866 L 4.96375 -15.0248 L 4.96311 -14.9631 L 4.96247 -14.9013 L 4.96182 -14.8395 L 4.96117 -14.7777 L 4.96051 -14.7158 L 4.95984 -14.654 L 4.95916 -14.5921 L 4.95847 -14.5302 L 4.95778 -14.4683 L 4.95708 -14.4063 L 4.95637 -14.3443 L 4.95565 -14.2823 L 4.95492 -14.2203 L 4.95419 -14.1582 L 4.95344 -14.0962 L 4.95269 -14.0341 L 4.95193 -13.972 L 4.95116 -13.9098 L 4.95038 -13.8476 L 4.94959 -13.7854 L 4.94879 -13.7232 L 4.94798 -13.6609 L 4.94717 -13.5987 L 4.94634 -13.5363 L 4.9455 -13.474 L 4.94465 -13.4116 L 4.94379 -13.3493 L 4.94292 -13.2868 L 4.94204 -13.2244 L 4.94115 -13.1619 L 6.07437 -12.6136 L 6.07437 -12.6136 L 7.20963 -12.0695 L 7.25792 -12.1091 L 7.3062 -12.1487 L 7.35446 -12.1883 L 7.40271 -12.2279 L 7.45094 -12.2675 L 7.49915 -12.307 L 7.54735 -12.3465 L 7.59554 -12.3859 L 7.6437 -12.4254 L 7.69186 -12.4648 L 7.74 -12.5042 L 7.78812 -12.5436 L 7.83623 -12.5829 L 7.88433 -12.6223 L 7.93241 -12.6616 L 7.98048 -12.7009 L 8.02854 -12.7401 L 8.07658 -12.7794 L 8.1246 -12.8186 L 8.17262 -12.8578 L 8.22062 -12.897 L 8.2686 -12.9361 L 8.31658 -12.9752 L 8.36454 -13.0144 L 8.41248 -13.0535 L 8.46042 -13.0925 L 8.50834 -13.1316 L 8.55625 -13.1706 L 8.60415 -13.2096 L 8.65203 -13.2486 L 8.69991 -13.2876 L 8.74777 -13.3266 L 8.79562 -13.3655 L 8.84469 -13.3331 L 8.89365 -13.3005 L 8.94249 -13.2677 L 8.99121 -13.2347 L 9.03981 -13.2016 L 9.08828 -13.1683 L 9.13663 -13.1348 L 9.18486 -13.1011 L 9.23296 -13.0672 L 9.28094 -13.0332 L 9.32879 -12.999 L 9.37652 -12.9646 L 9.42412 -12.93 L 9.47159 -12.8953 L 9.51894 -12.8604 L 9.56616 -12.8253 L 9.61324 -12.7901 L 9.6602 -12.7546 L 9.70703 -12.719 L 9.75372 -12.6833 L 9.80029 -12.6473 L 9.84672 -12.6112 L 9.89302 -12.5749 L 10.0582 -12.4432 L 10.1039 -12.4061 L 10.1494 -12.3689 L 10.1948 -12.3315 L 10.2401 -12.2939 L 10.2852 -12.2562 L 10.3302 -12.2183 L 10.3751 -12.1802 L 10.4198 -12.142 L 10.4644 -12.1036 L 10.5088 -12.065 L 10.5531 -12.0263 L 10.5972 -11.9874 L 10.6412 -11.9484 L 10.6851 -11.9092 L 10.7288 -11.8698 L 10.7724 -11.8303 L 10.8158 -11.7906 L 10.8591 -11.7508 L 10.9022 -11.7108 L 10.9452 -11.6706 L 10.988 -11.6303 L 11.0307 -11.5898 L 11.0732 -11.5492 L 11.0459 -11.4939 L 11.0186 -11.4386 L 10.9912 -11.3832 L 10.9638 -11.3278 L 10.9365 -11.2725 L 10.9091 -11.2171 L 10.8817 -11.1617 L 10.8542 -11.1062 L 10.8268 -11.0508 L 10.7993 -10.9953 L 10.7718 -10.9398 L 10.7443 -10.8844 L 10.7168 -10.8288 L 10.6893 -10.7733 L 10.6618 -10.7178 L 10.6342 -10.6622 L 10.6066 -10.6066 L 10.579 -10.551 L 10.5514 -10.4954 L 10.5237 -10.4397 L 10.4961 -10.3841 L 10.4684 -10.3284 L 10.4407 -10.2727 L 10.413 -10.217 L 10.3852 -10.1612 L 10.3575 -10.1055 L 10.3297 -10.0497 L 10.3019 -9.99389 L 10.2741 -9.93807 L 10.2462 -9.88223 L 10.2184 -9.82637 L 10.1905 -9.77048 L 10.1626 -9.71457 L 10.9456 -8.72886 L 10.9456 -8.72886 L 11.7324 -7.74607 L 11.7931 -7.76084 L 11.8538 -7.77559 L 11.9145 -7.79033 L 11.9751 -7.80505 L 12.0357 -7.81975 L 12.0963 -7.83444 L 12.1569 -7.84912 L 12.2174 -7.86377 L 12.2779 -7.87841 L 12.3384 -7.89304 L 12.3989 -7.90765 L 12.4593 -7.92224 L 12.5197 -7.93682 L 12.5801 -7.95139 L 12.6405 -7.96594 L 12.7009 -7.98048 L 12.7612 -7.99501 L 12.8215 -8.00952 L 12.8818 -8.02401 L 12.9421 -8.0385 L 13.0023 -8.05297 L 13.0625 -8.06742 L 13.1227 -8.08187 L 13.1829 -8.0963 L 13.2431 -8.11072 L 13.3032 -8.12513 L 13.3633 -8.13952 L 13.4234 -8.1539 L 13.4835 -8.16827 L 13.5436 -8.18263 L 13.6036 -8.19698 L 13.6637 -8.21132 L 13.7237 -8.22564 L 13.7538 -8.17513 L 13.7838 -8.12451 L 13.8135 -8.07378 L 13.8431 -8.02294 L 13.8725 -7.972 L 13.9018 -7.92094 L 13.9308 -7.86978 L 13.9596 -7.81851 L 13.9883 -7.76713 L 14.0167 -7.71565 L 14.045 -7.66407 L 14.0731 -7.61238 L 14.101 -7.56059 L 14.1287 -7.5087 L 14.1562 -7.4567 L 14.1835 -7.40461 L 14.2106 -7.35241 L 14.2376 -7.30012 L 14.2643 -7.24773 L 14.2909 -7.19523 L 14.3172 -7.14265 L 14.3434 -7.08996 L 14.3693 -7.03718 L 14.461 -6.8468 L 14.4861 -6.79359 L 14.511 -6.74028 L 14.5357 -6.68689 L 14.5602 -6.6334 L 14.5844 -6.57983 L 14.6085 -6.52616 L 14.6324 -6.47241 L 14.6561 -6.41857 L 14.6796 -6.36465 L 14.7029 -6.31063 L 14.726 -6.25654 L 14.7489 -6.20236 L 14.7716 -6.14809 L 14.7941 -6.09374 L 14.8164 -6.03931 L 14.8385 -5.9848 L 14.8604 -5.9302 L 14.8821 -5.87553 L 14.9036 -5.82078 L 14.9249 -5.76594 L 14.946 -5.71103 L 14.9669 -5.65605 L 14.9876 -5.60098 L 14.939 -5.563 L 14.8904 -5.52501 L 14.8417 -5.48701 L 14.793 -5.449 L 14.7444 -5.41099 L 14.6956 -5.37297 L 14.6469 -5.33494 L 14.5981 -5.2969 L 14.5493 -5.25885 L 14.5005 -5.2208 L 14.4517 -5.18274 L 14.4029 -5.14466 L 14.354 -5.10659 L 14.3051 -5.0685 L 14.2562 -5.0304 L 14.2072 -4.9923 L 14.1582 -4.95419 L 14.1093 -4.91606 L 14.0602 -4.87793 L 14.0112 -4.8398 L 13.9621 -4.80165 L 13.913 -4.76349 L 13.8639 -4.72533 L 13.8147 -4.68715 L 13.7656 -4.64897 L 13.7164 -4.61077 L 13.6671 -4.57257 L 13.6179 -4.53436 L 13.5686 -4.49614 L 13.5193 -4.45791 L 13.4699 -4.41967 L 13.4205 -4.38142 L 13.3711 -4.34316 L 13.649 -3.11529 L 13.649 -3.11529 L 13.9314 -1.88847 L 13.9925 -1.87544 L 14.0536 -1.8624 L 14.1147 -1.84935 L 14.1757 -1.83631 L 14.2367 -1.82326 L 14.2976 -1.8102 L 14.3586 -1.79714 L 14.4195 -1.78408 L 14.4803 -1.77102 L 14.5412 -1.75795 L 14.602 -1.74488 L 14.6628 -1.7318 L 14.7236 -1.71872 L 14.7843 -1.70564 L 14.845 -1.69255 L 14.9057 -1.67947 L 14.9663 -1.66638 L 15.027 -1.65328 L 15.0876 -1.64019 L 15.1482 -1.62709 L 15.2087 -1.61399 L 15.2692 -1.60088 L 15.3298 -1.58777 L 15.3902 -1.57466 L 15.4507 -1.56155 L 15.5111 -1.54844 L 15.5716 -1.53532 L 15.6319 -1.5222 L 15.6923 -1.50908 L 15.7527 -1.49596 L 15.813 -1.48283 L 15.8733 -1.46971 L 15.9336 -1.45658 L 15.9388 -1.39799 L 15.9438 -1.33938 L 15.9487 -1.28075 L 15.9533 -1.22211 L 15.9576 -1.16345 L 15.9618 -1.10478 L 15.9658 -1.04609 L 15.9695 -0.987381 L 15.973 -0.928663 L 15.9763 -0.869932 L 15.9794 -0.81119 L 15.9823 -0.752437 L 15.985 -0.693673 L 15.9874 -0.6349 L 15.9896 -0.576119 L 15.9916 -0.51733 L 15.9934 -0.458534 L 15.995 -0.399731 L 15.9964 -0.340924 L 15.9975 -0.282111 L 15.9984 -0.223295 L 15.9992 -0.164476 L 15.9997 -0.105655Z"
id="path1" />
</g>
</svg>
