<?xml version="1.0" encoding="UTF-8" standalone="no"?>
<svg version="1.1">
<g
style="fill:none;stroke:#000000;stroke-opacity:1;stroke-width:0.1">
<path d="M 16.2498 0.0861246 L 16.2494 0.143266 L 16.2488 0.200406 L 16.248 0.257543 L 16.247 0.314677 L 16.2457 0.371807 L 16.2443 0.428932 L 16.2427 0.486053 L 16.2409 0.543167 L 16.2389 0.600274 L 16.2367 0.657374 L 16.2343 0.714466 L 16.2317 0.771549 L 16.2289 0.828623 L 16.2258 0.885686 L 16.2226 0.942738 L 16.2192 0.999779 L 16.2156 1.05681 L 16.2118 1.11382 L 16.2078 1.17082 L 16.2035 1.22781 L 16.1991 1.28478 L 16.1945 1.34174 L 16.1897 1.39868 L 16.1847 1.4556 L 16.1795 1.5125 L 16.1209 1.52525 L 16.0622 1.538 L 16.0036 1.55075 L 15.945 1.5635 L 15.8863 1.57624 L 15.8276 1.58898 L 15.7689 1.60172 L 15.7101 1.61445 L 15.6514 1.62719 L 15.5926 1.63992 L 15.5338 1.65265 L 15.4749 1.66538 L 15.4161 1.6781 L 15.3572 1.69082 L 15.2983 1.70354 L 15.2394 1.71626 L 15.1804 1.72897 L 15.1215 1.74168 L 15.0625 1.75439 L 15.0034 1.7671 L 14.9444 1.7798 L 14.8853 1.7925 L 14.8262 1.8052 L 14.7671 1.81789 L 14.7079 1.83058 L 14.6488 1.84327 L 14.5896 1.85595 L 14.5303 1.86863 L 14.4711 1.88131 L 14.4118 1.89398 L 14.3525 1.90665 L 14.2931 1.91932 L 14.2338 1.93198 L 14.1744 1.94463 L 13.8927 3.17092 L 13.8927 3.17092 L 13.6144 4.39797 L 13.6624 4.43515 L 13.7104 4.47232 L 13.7584 4.50948 L 13.8063 4.54663 L 13.8543 4.58377 L 13.9022 4.6209 L 13.95 4.65802 L 13.9979 4.69514 L 14.0457 4.73224 L 14.0934 4.76934 L 14.1412 4.80643 L 14.1889 4.84351 L 14.2367 4.88058 L 14.2843 4.91765 L 14.332 4.9547 L 14.3796 4.99175 L 14.4273 5.02879 L 14.4749 5.06582 L 14.5224 5.10285 L 14.57 5.13986 L 14.6175 5.17687 L 14.665 5.21387 L 14.7125 5.25086 L 14.76 5.28785 L 14.8074 5.32482 L 14.8548 5.36179 L 14.9022 5.39876 L 14.9496 5.43571 L 14.9969 5.47266 L 15.0443 5.5096 L 15.0916 5.54653 L 15.1389 5.58345 L 15.1862 5.62037 L 15.2334 5.65728 L 15.2135 5.71082 L 15.1933 5.76428 L 15.1729 5.81767 L 15.1524 5.87099 L 15.1316 5.92424 L 15.1107 5.97741 L 15.0896 6.03051 L 15.0683 6.08353 L 15.0468 6.13648 L 15.0251 6.18936 L 15.0033 6.24216 L 14.9812 6.29488 L 14.959 6.34752 L 14.9366 6.40008 L 14.914 6.45257 L 14.8912 6.50497 L 14.8682 6.55729 L 14.8451 6.60954 L 14.8217 6.6617 L 14.7982 6.71378 L 14.7745 6.76577 L 14.7506 6.81769 L 14.7266 6.86952 L 14.7023 6.92126 L 14.6779 6.97292 L 14.6032 7.12811 L 14.578 7.17941 L 14.5527 7.23063 L 14.5272 7.28176 L 14.5015 7.3328 L 14.4756 7.38375 L 14.4495 7.43461 L 14.4233 7.48537 L 14.3969 7.53605 L 14.3703 7.58663 L 14.3435 7.63711 L 14.3166 7.6875 L 14.2895 7.7378 L 14.2622 7.788 L 14.2347 7.83811 L 14.207 7.88811 L 14.1792 7.93802 L 14.1512 7.98784 L 14.123 8.03755 L 14.0947 8.08716 L 14.0662 8.13668 L 14.0375 8.18609 L 14.0086 8.2354 L 13.9795 8.28461 L 13.9503 8.33372 L 13.9209 8.38272 L 13.8626 8.36879 L 13.8043 8.35484 L 13.7459 8.34089 L 13.6875 8.32692 L 13.6291 8.31294 L 13.5707 8.29895 L 13.5123 8.28495 L 13.4538 8.27094 L 13.3954 8.25691 L 13.3369 8.24288 L 13.2784 8.22883 L 13.2199 8.21477 L 13.1613 8.2007 L 13.1027 8.18662 L 13.0442 8.17252 L 12.9855 8.15841 L 12.9269 8.14429 L 12.8683 8.13016 L 12.8096 8.11601 L 12.7509 8.10185 L 12.6922 8.08767 L 12.6335 8.07348 L 12.5747 8.05928 L 12.5159 8.04507 L 12.4571 8.03084 L 12.3983 8.01659 L 12.3395 8.00233 L 12.2806 7.98806 L 12.2217 7.97377 L 12.1628 7.95946 L 12.1039 7.94514 L 12.0449 7.9308 L 11.9859 7.91645 L 11.9269 7.90208 L 11.1411 8.88473 L 11.1411 8.88473 L 10.358 9.86951 L 10.3851 9.92384 L 10.4122 9.97815 L 10.4393 10.0324 L 10.4664 10.0867 L 10.4934 10.141 L 10.5205 10.1952 L 10.5475 10.2494 L 10.5745 10.3036 L 10.6015 10.3578 L 10.6284 10.4119 L 10.6554 10.4661 L 10.6823 10.5202 L 10.7092 10.5743 L 10.7361 10.6284 L 10.7629 10.6825 L 10.7898 10.7365 L 10.8166 10.7905 L 10.8434 10.8446 L 10.8702 10.8986 L 10.897 10.9525 L 10.9238 11.0065 L 10.9505 11.0604 L 10.9772 11.1144 L 11.0039 11.1683 L 11.0306 11.2222 L 11.0573 11.2761 L 11.084 11.3299 L 11.1106 11.3838 L 11.1373 11.4376 L 11.1639 11.4914 L 11.1905 11.5453 L 11.2171 11.599 L 11.2437 11.6528 L 11.2702 11.7066 L 11.229 11.7461 L 11.1876 11.7856 L 11.1461 11.8248 L 11.1045 11.8639 L 11.0627 11.9029 L 11.0208 11.9417 L 10.9787 11.9804 L 10.9365 12.019 L 10.8942 12.0573 L 10.8517 12.0956 L 10.8091 12.1337 L 10.7664 12.1716 L 10.7235 12.2094 L 10.6805 12.247 L 10.6374 12.2845 L 10.5941 12.3218 L 10.5507 12.359 L 10.5072 12.396 L 10.4635 12.4329 L 10.4197 12.4696 L 10.3758 12.5062 L 10.3318 12.5426 L 10.2876 12.5788 L 10.2433 12.6149 L 10.1989 12.6509 L 10.0642 12.7583 L 10.0193 12.7936 L 9.97426 12.8287 L 9.92908 12.8637 L 9.88379 12.8986 L 9.83837 12.9333 L 9.79283 12.9678 L 9.74716 13.0021 L 9.70138 13.0363 L 9.65548 13.0704 L 9.60946 13.1042 L 9.56332 13.1379 L 9.51706 13.1715 L 9.47069 13.2049 L 9.42419 13.2381 L 9.37758 13.2712 L 9.33086 13.304 L 9.28402 13.3368 L 9.23706 13.3693 L 9.18999 13.4017 L 9.14281 13.434 L 9.09551 13.466 L 9.0481 13.4979 L 9.00058 13.5297 L 8.95295 13.5612 L 8.9052 13.5926 L 8.8587 13.5548 L 8.81219 13.5169 L 8.76566 13.479 L 8.71913 13.4411 L 8.67258 13.4032 L 8.62602 13.3652 L 8.57945 13.3272 L 8.53287 13.2893 L 8.48627 13.2513 L 8.43967 13.2132 L 8.39305 13.1752 L 8.34642 13.1371 L 8.29978 13.0991 L 8.25312 13.061 L 8.20645 13.0228 L 8.15977 12.9847 L 8.11308 12.9465 L 8.06637 12.9084 L 8.01965 12.8702 L 7.97292 12.8319 L 7.92617 12.7937 L 7.87941 12.7554 L 7.83264 12.7171 L 7.78585 12.6788 L 7.73905 12.6405 L 7.69223 12.6021 L 7.64541 12.5638 L 7.59856 12.5253 L 7.55171 12.4869 L 7.50483 12.4485 L 7.45795 12.41 L 7.41105 12.3715 L 7.36413 12.333 L 7.3172 12.2944 L 6.18284 12.8388 L 6.18284 12.8388 L 5.04997 13.3863 L 5.05085 13.447 L 5.05172 13.5077 L 5.05257 13.5684 L 5.05342 13.629 L 5.05426 13.6896 L 5.05509 13.7502 L 5.0559 13.8108 L 5.05671 13.8713 L 5.05751 13.9318 L 5.0583 13.9923 L 5.05908 14.0528 L 5.05985 14.1132 L 5.06062 14.1737 L 5.06137 14.2341 L 5.06212 14.2944 L 5.06286 14.3548 L 5.06359 14.4151 L 5.06431 14.4754 L 5.06502 14.5357 L 5.06573 14.5959 L 5.06643 14.6562 L 5.06712 14.7164 L 5.0678 14.7765 L 5.06848 14.8367 L 5.06915 14.8969 L 5.06981 14.957 L 5.07046 15.0171 L 5.07111 15.0772 L 5.07175 15.1372 L 5.07238 15.1973 L 5.07301 15.2573 L 5.07363 15.3173 L 5.07424 15.3773 L 5.07485 15.4372 L 5.02053 15.455 L 4.96616 15.4725 L 4.91172 15.4899 L 4.85722 15.5071 L 4.80266 15.5241 L 4.74804 15.5409 L 4.69336 15.5575 L 4.63862 15.5739 L 4.58383 15.5901 L 4.52898 15.6061 L 4.47407 15.6219 L 4.41911 15.6376 L 4.36409 15.653 L 4.30902 15.6683 L 4.2539 15.6833 L 4.19872 15.6982 L 4.14349 15.7129 L 4.08821 15.7273 L 4.03288 15.7416 L 3.9775 15.7557 L 3.92207 15.7696 L 3.8666 15.7833 L 3.81107 15.7968 L 3.7555 15.8101 L 3.69988 15.8232 L 3.53195 15.8615 L 3.47615 15.8738 L 3.42031 15.886 L 3.36443 15.8979 L 3.3085 15.9096 L 3.25253 15.9212 L 3.19653 15.9325 L 3.14048 15.9436 L 3.0844 15.9546 L 3.02827 15.9653 L 2.97211 15.9759 L 2.91592 15.9862 L 2.85968 15.9964 L 2.80341 16.0064 L 2.74711 16.0161 L 2.69077 16.0257 L 2.6344 16.035 L 2.578 16.0442 L 2.52156 16.0532 L 2.4651 16.0619 L 2.4086 16.0705 L 2.35208 16.0789 L 2.29552 16.087 L 2.23894 16.095 L 2.18232 16.1028 L 2.12569 16.1104 L 2.10022 16.0561 L 2.07474 16.0018 L 2.04927 15.9474 L 2.02379 15.8931 L 1.99831 15.8387 L 1.97283 15.7843 L 1.94734 15.7299 L 1.92185 15.6755 L 1.89636 15.621 L 1.87087 15.5665 L 1.84537 15.512 L 1.81987 15.4575 L 1.79437 15.403 L 1.76887 15.3484 L 1.74336 15.2938 L 1.71785 15.2392 L 1.69234 15.1846 L 1.66682 15.1299 L 1.64131 15.0752 L 1.61579 15.0205 L 1.59026 14.9657 L 1.56474 14.911 L 1.53921 14.8562 L 1.51368 14.8014 L 1.48814 14.7465 L 1.46261 14.6917 L 1.43707 14.6368 L 1.41152 14.5818 L 1.38598 14.5269 L 1.36043 14.4719 L 1.33488 14.4169 L 1.30933 14.3619 L 1.28377 14.3068 L 1.25822 14.2517 L 1.33227e-15 14.25 L 4.12854e-16 14.25 L -1.25822 14.2517 L -1.28377 14.3068 L -1.30933 14.3619 L -1.33488 14.4169 L -1.36043 14.4719 L -1.38598 14.5269 L -1.41152 14.5818 L -1.43707 14.6368 L -1.46261 14.6917 L -1.48814 14.7465 L -1.51368 14.8014 L -1.53921 14.8562 L -1.56474 14.911 L -1.59026 14.9657 L -1.61579 15.0205 L -1.64131 15.0752 L -1.66682 15.1299 L -1.69234 15.1846 L -1.71785 15.2392 L -1.74336 15.2938 L -1.76887 15.3484 L -1.79437 15.403 L -1.81987 15.4575 L -1.84537 15.512 L -1.87087 15.5665 L -1.89636 15.621 L -1.92185 15.6755 L -1.94734 15.7299 L -1.97283 15.7843 L -1.99831 15.8387 L -2.02379 15.8931 L -2.04927 15.9474 L -2.07474 16.0018 L -2.10022 16.0561 L -2.12569 16.1104 L -2.18232 16.1028 L -2.23894 16.095 L -2.29552 16.087 L -2.35208 16.0789 L -2.4086 16.0705 L -2.4651 16.0619 L -2.52156 16.0532 L -2.578 16.0442 L -2.6344 16.035 L -2.69077 16.0257 L -2.74711 16.0161 L -2.80341 16.0064 L -2.85968 15.9964 L -2.91592 15.9862 L -2.97211 15.9759 L -3.02827 15.9653 L -3.0844 15.9546 L -3.14048 15.9436 L -3.19653 15.9325 L -3.25253 15.9212 L -3.3085 15.9096 L -3.36443 15.8979 L -3.42031 15.886 L -3.47615 15.8738 L -3.53195 15.8615 L -3.69988 15.8232 L -3.7555 15.8101 L -3.81107 15.7968 L -3.8666 15.7833 L -3.92207 15.7696 L -3.9775 15.7557 L -4.03288 15.7416 L -4.08821 15.7273 L -4.14349 15.7129 L -4.19872 15.6982 L -4.2539 15.6833 L -4.30902 15.6683 L -4.36409 15.653 L -4.41911 15.6376 L -4.47407 15.6219 L -4.52898 15.6061 L -4.58383 15.5901 L -4.63862 15.5739 L -4.69336 15.5575 L -4.74804 15.5409 L -4.80266 15.5241 L -4.85722 15.5071 L -4.91172 15.4899 L -4.96616 15.4725 L -5.02053 15.455 L -5.07485 15.4372 L -5.07424 15.3773 L -5.07363 15.3173 L -5.07301 15.2573 L -5.07238 15.1973 L -5.07175 15.1372 L -5.07111 15.0772 L -5.07046 15.0171 L -5.06981 14.957 L -5.06915 14.8969 L -5.06848 14.8367 L -5.0678 14.7765 L -5.06712 14.7164 L -5.06643 14.6562 L -5.06573 14.5959 L -5.06502 14.5357 L -5.06431 14.4754 L -5.06359 14.4151 L -5.06286 14.3548 L -5.06212 14.2944 L -5.06137 14.2341 L -5.06062 14.1737 L -5.05985 14.1132 L -5.05908 14.0528 L -5.0583 13.9923 L -5.05751 13.9318 L -5.05671 13.8713 L -5.0559 13.8108 L -5.05509 13.7502 L -5.05426 13.6896 L -5.05342 13.629 L -5.05257 13.5684 L -5.05172 13.5077 L -5.05085 13.447 L -5.04997 13.3863 L -6.18284 12.8388 L -6.18284 12.8388 L -7.3172 12.2944 L -7.36413 12.333 L -7.41105 12.3715 L -7.45795 12.41 L -7.50483 12.4485 L -7.55171 12.4869 L -7.59856 12.5253 L -7.64541 12.5638 L -7.69223 12.6021 L -7.73905 12.6405 L -7.78585 12.6788 L -7.83264 12.7171 L -7.87941 12.7554 L -7.92617 12.7937 L -7.97292 12.8319 L -8.01965 12.8702 L -8.06637 12.9084 L -8.11308 12.9465 L -8.15977 12.9847 L -8.20645 13.0228 L -8.25312 13.061 L -8.29978 13.0991 L -8.34642 13.1371 L -8.39305 13.1752 L -8.43967 13.2132 L -8.48627 13.2513 L -8.53287 13.2893 L -8.57945 13.3272 L -8.62602 13.3652 L -8.67258 13.4032 L -8.71913 13.4411 L -8.76566 13.479 L -8.81219 13.5169 L -8.8587 13.5548 L -8.9052 13.5926 L -8.95295 13.5612 L -9.00058 13.5297 L -9.0481 13.4979 L -9.09551 13.466 L -9.14281 13.434 L -9.18999 13.4017 L -9.23706 13.3693 L -9.28402 13.3368 L -9.33086 13.304 L -9.37758 13.2712 L -9.42419 13.2381 L -9.47069 13.2049 L -9.51706 13.1715 L -9.56332 13.1379 L -9.60946 13.1042 L -9.65548 13.0704 L -9.70138 13.0363 L -9.74716 13.0021 L -9.79283 12.9678 L -9.83837 12.9333 L -9.88379 12.8986 L -9.92908 12.8637 L -9.97426 12.8287 L -10.0193 12.7936 L -10.0642 12.7583 L -10.1989 12.6509 L -10.2433 12.6149 L -10.2876 12.5788 L -10.3318 12.5426 L -10.3758 12.5062 L -10.4197 12.4696 L -10.4635 12.4329 L -10.5072 12.396 L -10.5507 12.359 L -10.5941 12.3218 L -10.6374 12.2845 L -10.6805 12.247 L -10.7235 12.2094 L -10.7664 12.1716 L -10.8091 12.1337 L -10.8517 12.0956 L -10.8942 12.0573 L -10.9365 12.019 L -10.9787 11.9804 L -11.0208 11.9417 L -11.0627 11.9029 L -11.1045 11.8639 L -11.1461 11.8248 L -11.1876 11.7856 L -11.229 11.7461 L -11.2702 11.7066 L -11.2437 11.6528 L -11.2171 11.599 L -11.1905 11.5453 L -11.1639 11.4914 L -11.1373 11.4376 L -11.1106 11.3838 L -11.084 11.3299 L -11.0573 11.2761 L -11.0306 11.2222 L -11.0039 11.1683 L -10.9772 11.1144 L -10.9505 11.0604 L -10.9238 11.0065 L -10.897 10.9525 L -10.8702 10.8986 L -10.8434 10.8446 L -10.8166 10.7905 L -10.7898 10.7365 L -10.7629 10.6825 L -10.7361 10.6284 L -10.7092 10.5743 L -10.6823 10.5202 L -10.6554 10.4661 L -10.6284 10.4119 L -10.6015 10.3578 L -10.5745 10.3036 L -10.5475 10.2494 L -10.5205 10.1952 L -10.4934 10.141 L -10.4664 10.0867 L -10.4393 10.0324 L -10.4122 9.97815 L -10.3851 9.92384 L -10.358 9.86951 L -11.1411 8.88473 L -11.1411 8.88473 L -11.9269 7.90208 L -11.9859 7.91645 L -12.0449 7.9308 L -12.1039 7.94514 L -12.1628 7.95946 L -12.2217 7.97377 L -12.2806 7.98806 L -12.3395 8.00233 L -12.3983 8.01659 L -12.4571 8.03084 L -12.5159 8.04507 L -12.5747 8.05928 L -12.6335 8.07348 L -12.6922 8.08767 L -12.7509 8.10185 L -12.8096 8.11601 L -12.8683 8.13016 L -12.9269 8.14429 L -12.9855 8.15841 L -13.0442 8.17252 L -13.1027 8.18662 L -13.1613 8.2007 L -13.2199 8.21477 L -13.2784 8.22883 L -13.3369 8.24288 L -13.3954 8.25691 L -13.4538 8.27094 L -13.5123 8.28495 L -13.5707 8.29895 L -13.6291 8.31294 L -13.6875 8.32692 L -13.7459 8.34089 L -13.8043 8.35484 L -13.8626 8.36879 L -13.9209 8.38272 L -13.9503 8.33372 L -13.9795 8.28461 L -14.0086 8.2354 L -14.0375 8.18609 L -14.0662 8.13668 L -14.0947 8.08716 L -14.123 8.03755 L -14.1512 7.98784 L -14.1792 7.93802 L -14.207 7.88811 L -14.2347 7.83811 L -14.2622 7.788 L -14.2895 7.7378 L -14.3166 7.6875 L -14.3435 7.63711 L -14.3703 7.58663 L -14.3969 7.53605 L -14.4233 7.48537 L -14.4495 7.43461 L -14.4756 7.38375 L -14.5015 7.3328 L -14.5272 7.28176 L -14.5527 7.23063 L -14.578 7.17941 L -14.6032 7.12811 L -14.6779 6.97292 L -14.7023 6.92126 L -14.7266 6.86952 L -14.7506 6.81769 L -14.7745 6.76577 L -14.7982 6.71378 L -14.8217 6.6617 L -14.8451 6.60954 L -14.8682 6.55729 L -14.8912 6.50497 L -14.914 6.45257 L -14.9366 6.40008 L -14.959 6.34752 L -14.9812 6.29488 L -15.0033 6.24216 L -15.0251 6.18936 L -15.0468 6.13648 L -15.0683 6.08353 L -15.0896 6.03051 L -15.1107 5.97741 L -15.1316 5.92424 L -15.1524 5.87099 L -15.1729 5.81767 L -15.1933 5.76428 L -15.2135 5.71082 L -15.2334 5.65728 L -15.1862 5.62037 L -15.1389 5.58345 L -15.0916 5.54653 L -15.0443 5.5096 L -14.9969 5.47266 L -14.9496 5.43571 L -14.9022 5.39876 L -14.8548 5.36179 L -14.8074 5.32482 L -14.76 5.28785 L -14.7125 5.25086 L -14.665 5.21387 L -14.6175 5.17687 L -14.57 5.13986 L -14.5224 5.10285 L -14.4749 5.06582 L -14.4273 5.02879 L -14.3796 4.99175 L -14.332 4.9547 L -14.2843 4.91765 L -14.2367 4.88058 L -14.1889 4.84351 L -14.1412 4.80643 L -14.0934 4.76934 L -14.0457 4.73224 L -13.9979 4.69514 L -13.95 4.65802 L -13.9022 4.6209 L -13.8543 4.58377 L -13.8063 4.54663 L -13.7584 4.50948 L -13.7104 4.47232 L -13.6624 4.43515 L -13.6144 4.39797 L -13.8927 3.17092 L -13.8927 3.17092 L -14.1744 1.94463 L -14.2338 1.93198 L -14.2931 1.91932 L -14.3525 1.90665 L -14.4118 1.89398 L -14.4711 1.88131 L -14.5303 1.86863 L -14.5896 1.85595 L -14.6488 1.84327 L -14.7079 1.83058 L -14.7671 1.81789 L -14.8262 1.8052 L -14.8853 1.7925 L -14.9444 1.7798 L -15.0034 1.7671 L -15.0625 1.75439 L -15.1215 1.74168 L -15.1804 1.72897 L -15.2394 1.71626 L -15.2983 1.70354 L -15.3572 1.69082 L -15.4161 1.6781 L -15.4749 1.66538 L -15.5338 1.65265 L -15.5926 1.63992 L -15.6514 1.62719 L -15.7101 1.61445 L -15.7689 1.60172 L -15.8276 1.58898 L -15.8863 1.57624 L -15.945 1.5635 L -16.0036 1.55075 L -16.0622 1.538 L -16.1209 1.52525 L -16.1795 1.5125 L -16.1847 1.4556 L -16.1897 1.39868 L -16.1945 1.34174 L -16.1991 1.28478 L -16.2035 1.22781 L -16.2078 1.17082 L -16.2118 1.11382 L -16.2156 1.05681 L -16.2192 0.999779 L -16.2226 0.942738 L -16.2258 0.885686 L -16.2289 0.828623 L -16.2317 0.771549 L -16.2343 0.714466 L -16.2367 0.657374 L -16.2389 0.600274 L -16.2409 0.543167 L -16.2427 0.486053 L -16.2443 0.428932 L -16.2457 0.371807 L -16.247 0.314677 L -16.248 0.257543 L -16.2488 0.200406 L -16.2494 0.143266 L -16.2498 0.0861246 L -16.2498 -0.0861246 L -16.2494 -0.143266 L -16.2488 -0.200406 L -16.248 -0.257543 L -16.247 -0.314677 L -16.2457 -0.371807 L -16.2443 -0.428932 L -16.2427 -0.486053 L -16.2409 -0.543167 L -16.2389 -0.600274 L -16.2367 -0.657374 L -16.2343 -0.714466 L -16.2317 -0.771549 L -16.2289 -0.828623 L -16.2258 -0.885686 L -16.2226 -0.942738 L -16.2192 -0.999779 L -16.2156 -1.05681 L -16.2118 -1.11382 L -16.2078 -1.17082 L -16.2035 -1.22781 L -16.1991 -1.28478 L -16.1945 -1.34174 L -16.1897 -1.39868 L -16.1847 -1.4556 L -16.1795 -1.5125 L -16.1209 -1.52525 L -16.0622 -1.538 L -16.0036 -1.55075 L -15.945 -1.5635 L -15.8863 -1.57624 L -15.8276 -1.58898 L -15.7689 -1.60172 L -15.7101 -1.61445 L -15.6514 -1.62719 L -15.5926 -1.63992 L -15.5338 -1.65265 L -15.4749 -1.66538 L -15.4161 -1.6781 L -15.3572 -1.69082 L -15.2983 -1.70354 L -15.2394 -1.71626 L -15.1804 -1.72897 L -15.1215 -1.74168 L -15.0625 -1.75439 L -15.0034 -1.7671 L -14.9444 -1.7798 L -14.8853 -1.7925 L -14.8262 -1.8052 L -14.7671 -1.81789 L -14.7079 -1.83058 L -14.6488 -1.84327 L -14.5896 -1.85595 L -14.5303 -1.86863 L -14.4711 -1.88131 L -14.4118 -1.89398 L -14.3525 -1.90665 L -14.2931 -1.91932 L -14.2338 -1.93198 L -14.1744 -1.94463 L -13.8927 -3.17092 L -13.8927 -3.17092 L -13.6144 -4.39797 L -13.6624 -4.43515 L -13.7104 -4.47232 L -13.7584 -4.50948 L -13.8063 -4.54663 L -13.8543 -4.58377 L -13.9022 -4.6209 L -13.95 -4.65802 L -13.9979 -4.69514 L -14.0457 -4.73224 L -14.0934 -4.76934 L -14.1412 -4.80643 L -14.1889 -4.84351 L -14.2367 -4.88058 L -14.2843 -4.91765 L -14.332 -4.9547 L -14.3796 -4.99175 L -14.4273 -5.02879 L -14.4749 -5.06582 L -14.5224 -5.10285 L -14.57 -5.13986 L -14.6175 -5.17687 L -14.665 -5.21387 L -14.7125 -5.25086 L -14.76 -5.28785 L -14.8074 -5.32482 L -14.8548 -5.36179 L -14.9022 -5.39876 L -14.9496 -5.43571 L -14.9969 -5.47266 L -15.0443 -5.5096 L -15.0916 -5.54653 L -15.1389 -5.58345 L -15.1862 -5.62037 L -15.2334 -5.65728 L -15.2135 -5.71082 L -15.1933 -5.76428 L -15.1729 -5.81767 L -15.1524 -5.87099 L -15.1316 -5.92424 L -15.1107 -5.97741 L -15.0896 -6.03051 L -15.0683 -6.08353 L -15.0468 -6.13648 L -15.0251 -6.18936 L -15.0033 -6.24216 L -14.9812 -6.29488 L -14.959 -6.34752 L -14.9366 -6.40008 L -14.914 -6.45257 L -14.8912 -6.50497 L -14.8682 -6.55729 L -14.8451 -6.60954 L -14.8217 -6.6617 L -14.7982 -6.71378 L -14.7745 -6.76577 L -14.7506 -6.81769 L -14.7266 -6.86952 L -14.7023 -6.92126 L -14.6779 -6.97292 L -14.6032 -7.12811 L -14.578 -7.17941 L -14.5527 -7.23063 L -14.5272 -7.28176 L -14.5015 -7.3328 L -14.4756 -7.38375 L -14.4495 -7.43461 L -14.4233 -7.48537 L -14.3969 -7.53605 L -14.3703 -7.58663 L -14.3435 -7.63711 L -14.3166 -7.6875 L -14.2895 -7.7378 L -14.2622 -7.788 L -14.2347 -7.83811 L -14.207 -7.88811 L -14.1792 -7.93802 L -14.1512 -7.98784 L -14.123 -8.03755 L -14.0947 -8.08716 L -14.0662 -8.13668 L -14.0375 -8.18609 L -14.0086 -8.2354 L -13.9795 -8.28461 L -13.9503 -8.33372 L -13.9209 -8.38272 L -13.8626 -8.36879 L -13.8043 -8.35484 L -13.7459 -8.34089 L -13.6875 -8.32692 L -13.6291 -8.31294 L -13.5707 -8.29895 L -13.5123 -8.28495 L -13.4538 -8.27094 L -13.3954 -8.25691 L -13.3369 -8.24288 L -13.2784 -8.22883 L -13.2199 -8.21477 L -13.1613 -8.2007 L -13.1027 -8.18662 L -13.0442 -8.17252 L -12.9855 -8.15841 L -12.9269 -8.14429 L -12.8683 -8.13016 L -12.8096 -8.11601 L -12.7509 -8.10185 L -12.6922 -8.08767 L -12.6335 -8.07348 L -12.5747 -8.05928 L -12.5159 -8.04507 L -12.4571 -8.03084 L -12.3983 -8.01659 L -12.3395 -8.00233 L -12.2806 -7.98806 L -12.2217 -7.97377 L -12.1628 -7.95946 L -12.1039 -7.94514 L -12.0449 -7.9308 L -11.9859 -7.91645 L -11.9269 -7.90208 L -11.1411 -8.88473 L -11.1411 -8.88473 L -10.358 -9.86951 L -10.3851 -9.92384 L -10.4122 -9.97815 L -10.4393 -10.0324 L -10.4664 -10.0867 L -10.4934 -10.141 L -10.5205 -10.1952 L -10.5475 -10.2494 L -10.5745 -10.3036 L -10.6015 -10.3578 L -10.6284 -10.4119 L -10.6554 -10.4661 L -10.6823 -10.5202 L -10.7092 -10.5743 L -10.7361 -10.6284 L -10.7629 -10.6825 L -10.7898 -10.7365 L -10.8166 -10.7905 L -10.8434 -10.8446 L -10.8702 -10.8986 L -10.897 -10.9525 L -10.9238 -11.0065 L -10.9505 -11.0604 L -10.9772 -11.1144 L -11.0039 -11.1683 L -11.0306 -11.2222 L -11.0573 -11.2761 L -11.084 -11.3299 L -11.1106 -11.3838 L -11.1373 -11.4376 L -11.1639 -11.4914 L -11.1905 -11.5453 L -11.2171 -11.599 L -11.2437 -11.6528 L -11.2702 -11.7066 L -11.229 -11.7461 L -11.1876 -11.7856 L -11.1461 -11.8248 L -11.1045 -11.8639 L -11.0627 -11.9029 L -11.0208 -11.9417 L -10.9787 -11.9804 L -10.9365 -12.019 L -10.8942 -12.0573 L -10.8517 -12.0956 L -10.8091 -12.1337 L -10.7664 -12.1716 L -10.7235 -12.2094 L -10.6805 -12.247 L -10.6374 -12.2845 L -10.5941 -12.3218 L -10.5507 -12.359 L -10.5072 -12.396 L -10.4635 -12.4329 L -10.4197 -12.4696 L -10.3758 -12.5062 L -10.3318 -12.5426 L -10.2876 -12.5788 L -10.2433 -12.6149 L -10.1989 -12.6509 L -10.0642 -12.7583 L -10.0193 -12.7936 L -9.97426 -12.8287 L -9.92908 -12.8637 L -9.88379 -12.8986 L -9.83837 -12.9333 L -9.79283 -12.9678 L -9.74716 -13.0021 L -9.70138 -13.0363 L -9.65548 -13.0704 L -9.60946 -13.1042 L -9.56332 -13.1379 L -9.51706 -13.1715 L -9.47069 -13.2049 L -9.42419 -13.2381 L -9.37758 -13.2712 L -9.33086 -13.304 L -9.28402 -13.3368 L -9.23706 -13.3693 L -9.18999 -13.4017 L -9.14281 -13.434 L -9.09551 -13.466 L -9.0481 -13.4979 L -9.00058 -13.5297 L -8.95295 -13.5612 L -8.9052 -13.5926 L -8.8587 -13.5548 L -8.81219 -13.5169 L -8.76566 -13.479 L -8.71913 -13.4411 L -8.67258 -13.4032 L -8.62602 -13.3652 L -8.57945 -13.3272 L -8.53287 -13.2893 L -8.48627 -13.2513 L -8.43967 -13.2132 L -8.39305 -13.1752 L -8.34642 -13.1371 L -8.29978 -13.0991 L -8.25312 -13.061 L -8.20645 -13.0228 L -8.15977 -12.9847 L -8.11308 -12.9465 L -8.06637 -12.9084 L -8.01965 -12.8702 L -7.97292 -12.8319 L -7.92617 -12.7937 L -7.87941 -12.7554 L -7.83264 -12.7171 L -7.78585 -12.6788 L -7.73905 -12.6405 L -7.69223 -12.6021 L -7.64541 -12.5638 L -7.59856 -12.5253 L -7.55171 -12.4869 L -7.50483 -12.4485 L -7.45795 -12.41 L -7.41105 -12.3715 L -7.36413 -12.333 L -7.3172 -12.2944 L -6.18284 -12.8388 L -6.18284 -12.8388 L -5.04997 -13.3863 L -5.05085 -13.447 L -5.05172 -13.5077 L -5.05257 -13.5684 L -5.05342 -13.629 L -5.05426 -13.6896 L -5.05509 -13.7502 L -5.0559 -13.8108 L -5.05671 -13.8713 L -5.05751 -13.9318 L -5.0583 -13.9923 L -5.05908 -14.0528 L -5.05985 -14.1132 L -5.06062 -14.1737 L -5.06137 -14.2341 L -5.06212 -14.2944 L -5.06286 -14.3548 L -5.06359 -14.4151 L -5.06431 -14.4754 L -5.06502 -14.5357 L -5.06573 -14.5959 L -5.06643 -14.6562 L -5.06712 -14.7164 L -5.0678 -14.7765 L -5.06848 -14.8367 L -5.06915 -14.8969 L -5.06981 -14.957 L -5.07046 -15.0171 L -5.07111 -15.0772 L -5.07175 -15.1372 L -5.07238 -15.1973 L -5.07301 -15.2573 L -5.07363 -15.3173 L -5.07424 -15.3773 L -5.07485 -15.4372 L -5.02053 -15.455 L -4.96616 -15.4725 L -4.91172 -15.4899 L -4.85722 -15.5071 L -4.80266 -15.5241 L -4.74804 -15.5409 L -4.69336 -15.5575 L -4.63862 -15.5739 L -4.58383 -15.5901 L -4.52898 -15.6061 L -4.47407 -15.6219 L -4.41911 -15.6376 L -4.36409 -15.653 L -4.30902 -15.6683 L -4.2539 -15.6833 L -4.19872 -15.6982 L -4.14349 -15.7129 L -4.08821 -15.7273 L -4.03288 -15.7416 L -3.9775 -15.7557 L -3.92207 -15.7696 L -3.8666 -15.7833 L -3.81107 -15.7968 L -3.7555 -15.8101 L -3.69988 -15.8232 L -3.53195 -15.8615 L -3.47615 -15.8738 L -3.42031 -15.886 L -3.36443 -15.8979 L -3.3085 -15.9096 L -3.25253 -15.9212 L -3.19653 -15.9325 L -3.14048 -15.9436 L -3.0844 -15.9546 L -3.02827 -15.9653 L -2.97211 -15.9759 L -2.91592 -15.9862 L -2.85968 -15.9964 L -2.80341 -16.0064 L -2.74711 -16.0161 L -2.69077 -16.0257 L -2.6344 -16.035 L -2.578 -16.0442 L -2.52156 -16.0532 L -2.4651 -16.0619 L -2.4086 -16.0705 L -2.35208 -16.0789 L -2.29552 -16.087 L -2.23894 -16.095 L -2.18232 -16.1028 L -2.12569 -16.1104 L -2.10022 -16.0561 L -2.07474 -16.0018 L -2.04927 -15.9474 L -2.02379 -15.8931 L -1.99831 -15.8387 L -1.97283 -15.7843 L -1.94734 -15.7299 L -1.92185 -15.6755 L -1.89636 -15.621 L -1.87087 -15.5665 L -1.84537 -15.512 L -1.81987 -15.4575 L -1.79437 -15.403 L -1.76887 -15.3484 L -1.74336 -15.2938 L -1.71785 -15.2392 L -1.69234 -15.1846 L -1.66682 -15.1299 L -1.64131 -15.0752 L -1.61579 -15.0205 L -1.59026 -14.9657 L -1.56474 -14.911 L -1.53921 -14.8562 L -1.51368 -14.8014 L -1.48814 -14.7465 L -1.46261 -14.6917 L -1.43707 -14.6368 L -1.41152 -14.5818 L -1.38598 -14.5269 L -1.36043 -14.4719 L -1.33488 -14.4169 L -1.30933 -14.3619 L -1.28377 -14.3068 L -1.25822 -14.2517 L -3.10862e-15 -14.25 L -2.12674e-15 -14.25 L 1.25822 -14.2517 L 1.28377 -14.3068 L 1.30933 -14.3619 L 1.33488 -14.4169 L 1.36043 -14.4719 L 1.38598 -14.5269 L 1.41152 -14.5818 L 1.43707 -14.6368 L 1.46261 -14.6917 L 1.48814 -14.7465 L 1.51368 -14.8014 L 1.53921 -14.8562 L 1.56474 -14.911 L 1.59026 -14.9657 L 1.61579 -15.0205 L 1.64131 -15.0752 L 1.66682 -15.1299 L 1.69234 -15.1846 L 1.71785 -15.2392 L 1.74336 -15.2938 L 1.76887 -15.3484 L 1.79437 -15.403 L 1.81987 -15.4575 L 1.84537 -15.512 L 1.87087 -15.5665 L 1.89636 -15.621 L 1.92185 -15.6755 L 1.94734 -15.7299 L 1.97283 -15.7843 L 1.99831 -15.8387 L 2.02379 -15.8931 L 2.04927 -15.9474 L 2.07474 -16.0018 L 2.10022 -16.0561 L 2.12569 -16.1104 L 2.18232 -16.1028 L 2.23894 -16.095 L 2.29552 -16.087 L 2.35208 -16.0789 L 2.4086 -16.0705 L 2.4651 -16.0619 L 2.52156 -16.0532 L 2.578 -16.0442 L 2.6344 -16.035 L 2.69077 -16.0257 L 2.74711 -16.0161 L 2.80341 -16.0064 L 2.85968 -15.9964 L 2.91592 -15.9862 L 2.97211 -15.9759 L 3.02827 -15.9653 L 3.0844 -15.9546 L 3.14048 -15.9436 L 3.19653 -15.9325 L 3.25253 -15.9212 L 3.3085 -15.9096 L 3.36443 -15.8979 L 3.42031 -15.886 L 3.47615 -15.8738 L 3.53195 -15.8615 L 3.69988 -15.8232 L 3.7555 -15.8101 L 3.81107 -15.7968 L 3.8666 -15.7833 L 3.92207 -15.7696 L 3.9775 -15.7557 L 4.03288 -15.7416 L 4.08821 -15.7273 L 4.14349 -15.7129 L 4.19872 -15.6982 L 4.2539 -15.6833 L 4.30902 -15.6683 L 4.36409 -15.653 L 4.41911 -15.6376 L 4.47407 -15.6219 L 4.52898 -15.6061 L 4.58383 -15.5901 L 4.63862 -15.5739 L 4.69336 -15.5575 L 4.74804 -15.5409 L 4.80266 -15.5241 L 4.85722 -15.5071 L 4.91172 -15.4899 L 4.96616 -15.4725 L 5.02053 -15.455 L 5.07485 -15.4372 L 5.07424 -15.3773 L 5.07363 -15.3173 L 5.07301 -15.2573 L 5.07238 -15.1973 L 5.07175 -15.1372 L 5.07111 -15.0772 L 5.07046 -15.0171 L 5.06981 -14.957 L 5.06915 -14.8969 L 5.06848 -14.8367 L 5.0678 -14.7765 L 5.06712 -14.7164 L 5.06643 -14.6562 L 5.06573 -14.5959 L 5.06502 -14.5357 L 5.06431 -14.4754 L 5.06359 -14.4151 L 5.06286 -14.3548 L 5.06212 -14.2944 L 5.06137 -14.2341 L 5.06062 -14.1737 L 5.05985 -14.1132 L 5.05908 -14.0528 L 5.0583 -13.9923 L 5.05751 -13.9318 L 5.05671 -13.8713 L 5.0559 -13.8108 L 5.05509 -13.7502 L 5.05426 -13.6896 L 5.05342 -13.629 L 5.05257 -13.5684 L 5.05172 -13.5077 L 5.05085 -13.447 L 5.04997 -13.3863 L 6.18284 -12.8388 L 6.18284 -12.8388 L 7.3172 -12.2944 L 7.36413 -12.333 L 7.41105 -12.3715 L 7.45795 -12.41 L 7.50483 -12.4485 L 7.55171 -12.4869 L 7.59856 -12.5253 L 7.64541 -12.5638 L 7.69223 -12.6021 L 7.73905 -12.6405 L 7.78585 -12.6788 L 7.83264 -12.7171 L 7.87941 -12.7554 L 7.92617 -12.7937 L 7.97292 -12.8319 L 8.01965 -12.8702 L 8.06637 -12.9084 L 8.11308 -12.9465 L 8.15977 -12.9847 L 8.20645 -13.0228 L 8.25312 -13.061 L 8.29978 -13.0991 L 8.34642 -13.1371 L 8.39305 -13.1752 L 8.43967 -13.2132 L 8.48627 -13.2513 L 8.53287 -13.2893 L 8.57945 -13.3272 L 8.62602 -13.3652 L 8.67258 -13.4032 L 8.71913 -13.4411 L 8.76566 -13.479 L 8.81219 -13.5169 L 8.8587 -13.5548 L 8.9052 -13.5926 L 8.95295 -13.5612 L 9.00058 -13.5297 L 9.0481 -13.4979 L 9.09551 -13.466 L 9.14281 -13.434 L 9.18999 -13.4017 L 9.23706 -13.3693 L 9.28402 -13.3368 L 9.33086 -13.304 L 9.37758 -13.2712 L 9.42419 -13.2381 L 9.47069 -13.2049 L 9.51706 -13.1715 L 9.56332 -13.1379 L 9.60946 -13.1042 L 9.65548 -13.0704 L 9.70138 -13.0363 L 9.74716 -13.0021 L 9.79283 -12.9678 L 9.83837 -12.9333 L 9.88379 -12.8986 L 9.92908 -12.8637 L 9.97426 -12.8287 L 10.0193 -12.7936 L 10.0642 -12.7583 L 10.1989 -12.6509 L 10.2433 -12.6149 L 10.2876 -12.5788 L 10.3318 -12.5426 L 10.3758 -12.5062 L 10.4197 -12.4696 L 10.4635 -12.4329 L 10.5072 -12.396 L 10.5507 -12.359 L 10.5941 -12.3218 L 10.6374 -12.2845 L 10.6805 -12.247 L 10.7235 -12.2094 L 10.7664 -12.1716 L 10.8091 -12.1337 L 10.8517 -12.0956 L 10.8942 -12.0573 L 10.9365 -12.019 L 10.9787 -11.9804 L 11.0208 -11.9417 L 11.0627 -11.9029 L 11.1045 -11.8639 L 11.1461 -11.8248 L 11.1876 -11.7856 L 11.229 -11.7461 L 11.2702 -11.7066 L 11.2437 -11.6528 L 11.2171 -11.599 L 11.1905 -11.5453 L 11.1639 -11.4914 L 11.1373 -11.4376 L 11.1106 -11.3838 L 11.084 -11.3299 L 11.0573 -11.2761 L 11.0306 -11.2222 L 11.0039 -11.1683 L 10.9772 -11.1144 L 10.9505 -11.0604 L 10.9238 -11.0065 L 10.897 -10.9525 L 10.8702 -10.8986 L 10.8434 -10.8446 L 10.8166 -10.7905 L 10.7898 -10.7365 L 10.7629 -10.6825 L 10.7361 -10.6284 L 10.7092 -10.5743 L 10.6823 -10.5202 L 10.6554 -10.4661 L 10.6284 -10.4119 L 10.6015 -10.3578 L 10.5745 -10.3036 L 10.5475 -10.2494 L 10.5205 -10.1952 L 10.4934 -10.141 L 10.4664 -10.0867 L 10.4393 -10.0324 L 10.4122 -9.97815 L 10.3851 -9.92384 L 10.358 -9.86951 L 11.1411 -8.88473 L 11.1411 -8.88473 L 11.9269 -7.90208 L 11.9859 -7.91645 L 12.0449 -7.9308 L 12.1039 -7.94514 L 12.1628 -7.95946 L 12.2217 -7.97377 L 12.2806 -7.98806 L 12.3395 -8.00233 L 12.3983 -8.01659 L 12.4571 -8.03084 L 12.5159 -8.04507 L 12.5747 -8.05928 L 12.6335 -8.07348 L 12.6922 -8.08767 L 12.7509 -8.10185 L 12.8096 -8.11601 L 12.8683 -8.13016 L 12.9269 -8.14429 L 12.9855 -8.15841 L 13.0442 -8.17252 L 13.1027 -8.18662 L 13.1613 -8.2007 L 13.2199 -8.21477 L 13.2784 -8.22883 L 13.3369 -8.24288 L 13.3954 -8.25691 L 13.4538 -8.27094 L 13.5123 -8.28495 L 13.5707 -8.29895 L 13.6291 -8.31294 L 13.6875 -8.32692 L 13.7459 -8.34089 L 13.8043 -8.35484 L 13.8626 -8.36879 L 13.9209 -8.38272 L 13.9503 -8.33372 L 13.9795 -8.28461 L 14.0086 -8.2354 L 14.0375 -8.18609 L 14.0662 -8.13668 L 14.0947 -8.08716 L 14.123 -8.03755 L 14.1512 -7.98784 L 14.1792 -7.93802 L 14.207 -7.88811 L 14.2347 -7.83811 L 14.2622 -7.788 L 14.2895 -7.7378 L 14.3166 -7.6875 L 14.3435 -7.63711 L 14.3703 -7.58663 L 14.3969 -7.53605 L 14.4233 -7.48537 L 14.4495 -7.43461 L 14.4756 -7.38375 L 14.5015 -7.3328 L 14.5272 -7.28176 L 14.5527 -7.23063 L 14.578 -7.17941 L 14.6032 -7.12811 L 14.6779 -6.97292 L 14.7023 -6.92126 L 14.7266 -6.86952 L 14.7506 -6.81769 L 14.7745 -6.76577 L 14.7982 -6.71378 L 14.8217 -6.6617 L 14.8451 -6.60954 L 14.8682 -6.55729 L 14.8912 -6.50497 L 14.914 -6.45257 L 14.9366 -6.40008 L 14.959 -6.34752 L 14.9812 -6.29488 L 15.0033 -6.24216 L 15.0251 -6.18936 L 15.0468 -6.13648 L 15.0683 -6.08353 L 15.0896 -6.03051 L 15.1107 -5.97741 L 15.1316 -5.92424 L 15.1524 -5.87099 L 15.1729 -5.81767 L 15.1933 -5.76428 L 15.2135 -5.71082 L 15.2334 -5.65728 L 15.1862 -5.62037 L 15.1389 -5.58345 L 15.0916 -5.54653 L 15.0443 -5.5096 L 14.9969 -5.47266 L 14.9496 -5.43571 L 14.9022 -5.39876 L 14.8548 -5.36179 L 14.8074 -5.32482 L 14.76 -5.28785 L 14.7125 -5.25086 L 14.665 -5.21387 L 14.6175 -5.17687 L 14.57 -5.13986 L 14.5224 -5.10285 L 14.4749 -5.06582 L 14.4273 -5.02879 L 14.3796 -4.99175 L 14.332 -4.9547 L 14.2843 -4.91765 L 14.2367 -4.88058 L 14.1889 -4.84351 L 14.1412 -4.80643 L 14.0934 -4.76934 L 14.0457 -4.73224 L 13.9979 -4.69514 L 13.95 -4.65802 L 13.9022 -4.6209 L 13.8543 -4.58377 L 13.8063 -4.54663 L 13.7584 -4.50948 L 13.7104 -4.47232 L 13.6624 -4.43515 L 13.6144 -4.39797 L 13.8927 -3.17092 L 13.8927 -3.17092 L 14.1744 -1.94463 L 14.2338 -1.93198 L 14.2931 -1.91932 L 14.3525 -1.90665 L 14.4118 -1.89398 L 14.4711 -1.88131 L 14.5303 -1.86863 L 14.5896 -1.85595 L 14.6488 -1.84327 L 14.7079 -1.83058 L 14.7671 -1.81789 L 14.8262 -1.8052 L 14.8853 -1.7925 L 14.9444 -1.7798 L 15.0034 -1.7671 L 15.0625 -1.75439 L 15.1215 -1.74168 L 15.1804 -1.72897 L 15.2394 -1.71626 L 15.2983 -1.70354 L 15.3572 -1.69082 L 15.4161 -1.6781 L 15.4749 -1.66538 L 15.5338 -1.65265 L 15.5926 -1.63992 L 15.6514 -1.62719 L 15.7101 -1.61445 L 15.7689 -1.60172 L 15.8276 -1.58898 L 15.8863 -1.57624 L 15.945 -1.5635 L 16.0036 -1.55075 L 16.0622 -1.538 L 16.1209 -1.52525 L 16.1795 -1.5125 L 16.1847 -1.4556 L 16.1897 -1.39868 L 16.1945 -1.34174 L 16.1991 -1.28478 L 16.2035 -1.22781 L 16.2078 -1.17082 L 16.2118 -1.11382 L 16.2156 -1.05681 L 16.2192 -0.999779 L 16.2226 -0.942738 L 16.2258 -0.885686 L 16.2289 -0.828623 L 16.2317 -0.771549 L 16.2343 -0.714466 L 16.2367 -0.657374 L 16.2389 -0.600274 L 16.2409 -0.543167 L 16.2427 -0.486053 L 16.2443 -0.428932 L 16.2457 -0.371807 L 16.247 -0.314677 L 16.248 -0.257543 L 16.2488 -0.200406 L 16.2494 -0.143266 L 16.2498 -0.0861246Z"
id="path1" />
</g>
</svg>
