<?xml version="1.0" encoding="UTF-8" standalone="no"?>
<svg version="1.1">
<g
style="fill:none;stroke:#000000;stroke-opacity:1;stroke-width:0.1">
<path d="M 17.6248 0.0738913 L 17.6246 0.11957 L 17.6242 0.165247 L 17.6237 0.210923 L 17.6231 0.256598 L 17.6224 0.302272 L 17.6216 0.347943 L 17.6206 0.393612 L 17.6195 0.439278 L 17.6183 0.484941 L 17.617 0.530601 L 17.6156 0.576258 L 17.614 0.62191 L 17.6124 0.667559 L 17.6106 0.713203 L 17.6087 0.758842 L 17.6066 0.804476 L 17.6045 0.850105 L 17.6022 0.895728 L 17.5998 0.941345 L 17.5973 0.986955 L 17.5947 1.03256 L 17.592 1.07816 L 17.5891 1.12375 L 17.5862 1.16933 L 17.5831 1.2149 L 17.5799 1.26047 L 17.5333 1.27117 L 17.4862 1.28939 L 17.439 1.30761 L 17.3918 1.32582 L 17.3446 1.34404 L 17.2974 1.36225 L 17.2501 1.38046 L 17.2028 1.39866 L 17.1555 1.41687 L 17.1081 1.43507 L 17.0607 1.45327 L 17.0133 1.47146 L 16.9659 1.48966 L 16.9184 1.50785 L 16.8709 1.52604 L 16.8234 1.54423 L 16.7759 1.56241 L 16.7283 1.58059 L 16.6807 1.59877 L 16.633 1.61695 L 16.5853 1.63512 L 16.5376 1.65329 L 16.4899 1.67145 L 16.4421 1.68962 L 16.3943 1.70778 L 16.3465 1.72593 L 16.2986 1.74409 L 16.2507 1.76224 L 16.2028 1.78038 L 16.1548 1.79853 L 16.1068 1.81666 L 16.0588 1.8348 L 16.0107 1.85293 L 15.9626 1.87106 L 15.9145 1.88918 L 15.8663 1.9073 L 15.8181 1.92541 L 15.7699 1.94353 L 15.7216 1.96163 L 15.6733 1.97973 L 15.625 1.99783 L 15.5766 2.01592 L 15.5282 2.03401 L 15.4797 2.05209 L 15.4312 2.07017 L 15.3827 2.08824 L 15.3341 2.10631 L 15.2855 2.12437 L 15.2368 2.14243 L 15.1882 2.16048 L 15.1394 2.17853 L 15.0907 2.19657 L 15.0419 2.2146 L 14.993 2.23263 L 14.9441 2.25065 L 14.8952 2.26867 L 14.8462 2.28668 L 14.7972 2.30468 L 14.7482 2.32268 L 14.6991 2.34067 L 14.6499 2.35865 L 14.6007 2.37663 L 14.5515 2.39459 L 14.5022 2.41256 L 14.4529 2.43051 L 14.4036 2.44846 L 14.3542 2.46639 L 14.3047 2.48433 L 14.2552 2.50225 L 14.2057 2.52016 L 14.1561 2.53807 L 14.1064 2.55597 L 14.0567 2.57386 L 14.007 2.59174 L 13.9572 2.60961 L 13.9074 2.62747 L 13.8575 2.64532 L 13.8076 2.66316 L 13.7576 2.681 L 13.7075 2.69882 L 13.6574 2.71663 L 13.6574 2.71663 L 13.6969 2.75226 L 13.7363 2.78787 L 13.7757 2.82348 L 13.815 2.85907 L 13.8542 2.89466 L 13.8934 2.93023 L 13.9326 2.96579 L 13.9717 3.00135 L 14.0108 3.03689 L 14.0498 3.07242 L 14.0887 3.10794 L 14.1277 3.14345 L 14.1665 3.17895 L 14.2054 3.21445 L 14.2441 3.24993 L 14.2829 3.2854 L 14.3216 3.32086 L 14.3602 3.35631 L 14.3988 3.39175 L 14.4374 3.42718 L 14.4759 3.46259 L 14.5144 3.498 L 14.5528 3.5334 L 14.5912 3.56879 L 14.6295 3.60417 L 14.6679 3.63954 L 14.7061 3.6749 L 14.7444 3.71025 L 14.7825 3.74558 L 14.8207 3.78091 L 14.8588 3.81623 L 14.8969 3.85154 L 14.9349 3.88684 L 14.9729 3.92213 L 15.0109 3.95741 L 15.0488 3.99268 L 15.0867 4.02794 L 15.1245 4.06319 L 15.1623 4.09843 L 15.2001 4.13366 L 15.2379 4.16888 L 15.2756 4.20409 L 15.3132 4.23929 L 15.3509 4.27448 L 15.3885 4.30967 L 15.426 4.34484 L 15.4636 4.38 L 15.5011 4.41516 L 15.5385 4.4503 L 15.576 4.48544 L 15.6134 4.52056 L 15.6507 4.55568 L 15.6881 4.59079 L 15.7254 4.62588 L 15.7627 4.66097 L 15.7999 4.69605 L 15.8371 4.73112 L 15.8743 4.76618 L 15.9115 4.80124 L 15.9486 4.83628 L 15.9857 4.87131 L 16.0227 4.90634 L 16.0598 4.94135 L 16.0968 4.97636 L 16.1338 5.01136 L 16.1707 5.04635 L 16.2076 5.08133 L 16.2445 5.1163 L 16.2814 5.15127 L 16.3182 5.18622 L 16.355 5.22117 L 16.3918 5.2561 L 16.4286 5.29103 L 16.4653 5.32595 L 16.502 5.36086 L 16.5387 5.39577 L 16.5753 5.43066 L 16.6119 5.46555 L 16.6485 5.50042 L 16.6851 5.53529 L 16.724 5.563 L 16.7096 5.60633 L 16.695 5.64962 L 16.6803 5.69287 L 16.6655 5.73608 L 16.6506 5.77925 L 16.6355 5.82238 L 16.6204 5.86548 L 16.6051 5.90854 L 16.5897 5.95155 L 16.5743 5.99453 L 16.5587 6.03746 L 16.543 6.08036 L 16.5272 6.12321 L 16.5112 6.16602 L 16.4952 6.2088 L 16.479 6.25153 L 16.4628 6.29421 L 16.4464 6.33686 L 16.4299 6.37946 L 16.4134 6.42202 L 16.3967 6.46454 L 16.3798 6.50701 L 16.3629 6.54944 L 16.3459 6.59183 L 16.3288 6.63417 L 16.3115 6.67647 L 16.255 6.813 L 16.2372 6.85511 L 16.2194 6.89717 L 16.2015 6.93918 L 16.1835 6.98115 L 16.1653 7.02307 L 16.1471 7.06494 L 16.1287 7.10676 L 16.1102 7.14854 L 16.0916 7.19027 L 16.0729 7.23195 L 16.0541 7.27358 L 16.0352 7.31517 L 16.0162 7.3567 L 15.9971 7.39818 L 15.9779 7.43962 L 15.9585 7.481 L 15.9391 7.52234 L 15.9196 7.56362 L 15.8999 7.60486 L 15.8801 7.64604 L 15.8603 7.68717 L 15.8403 7.72825 L 15.8202 7.76928 L 15.8 7.81025 L 15.7797 7.85118 L 15.7593 7.89205 L 15.7122 7.88411 L 15.6617 7.88291 L 15.6111 7.88169 L 15.5606 7.88046 L 15.51 7.87922 L 15.4594 7.87797 L 15.4087 7.8767 L 15.3581 7.87542 L 15.3074 7.87413 L 15.2567 7.87283 L 15.2059 7.87151 L 15.1552 7.87018 L 15.1044 7.86883 L 15.0536 7.86748 L 15.0027 7.86611 L 14.9519 7.86472 L 14.901 7.86332 L 14.85 7.86191 L 14.7991 7.86048 L 14.7481 7.85904 L 14.6971 7.85759 L 14.6461 7.85612 L 14.595 7.85463 L 14.5439 7.85313 L 14.4928 7.85161 L 14.4417 7.85008 L 14.3905 7.84854 L 14.3393 7.84698 L 14.2881 7.8454 L 14.2368 7.8438 L 14.1856 7.84219 L 14.1342 7.84057 L 14.0829 7.83893 L 14.0315 7.83727 L 13.9801 7.83559 L 13.9287 7.8339 L 13.8772 7.83219 L 13.8257 7.83046 L 13.7742 7.82871 L 13.7226 7.82695 L 13.671 7.82517 L 13.6194 7.82337 L 13.5678 7.82155 L 13.5161 7.81971 L 13.4644 7.81785 L 13.4126 7.81598 L 13.3608 7.81408 L 13.309 7.81217 L 13.2571 7.81023 L 13.2052 7.80828 L 13.1533 7.80631 L 13.1014 7.80431 L 13.0494 7.80229 L 12.9973 7.80026 L 12.9453 7.7982 L 12.8932 7.79612 L 12.8411 7.79402 L 12.7889 7.7919 L 12.7367 7.78975 L 12.6844 7.78758 L 12.6321 7.78539 L 12.5798 7.78318 L 12.5275 7.78094 L 12.4751 7.77868 L 12.4226 7.77639 L 12.3702 7.77408 L 12.3177 7.77175 L 12.2651 7.76939 L 12.2125 7.76701 L 12.1599 7.7646 L 12.1072 7.76216 L 12.0545 7.7597 L 12.0018 7.75721 L 11.949 7.7547 L 11.8961 7.75215 L 11.8432 7.74959 L 11.7903 7.74699 L 11.7374 7.74436 L 11.6844 7.74171 L 11.6313 7.73903 L 11.5782 7.73632 L 11.5782 7.73632 L 11.601 7.78433 L 11.6238 7.83232 L 11.6466 7.88027 L 11.6692 7.9282 L 11.6919 7.9761 L 11.7145 8.02397 L 11.7371 8.07181 L 11.7596 8.11962 L 11.7821 8.1674 L 11.8045 8.21516 L 11.8269 8.26289 L 11.8493 8.31059 L 11.8716 8.35827 L 11.8939 8.40592 L 11.9162 8.45354 L 11.9384 8.50113 L 11.9606 8.5487 L 11.9827 8.59624 L 12.0048 8.64375 L 12.0269 8.69124 L 12.0489 8.73871 L 12.0709 8.78614 L 12.0929 8.83356 L 12.1148 8.88094 L 12.1367 8.9283 L 12.1585 8.97564 L 12.1804 9.02295 L 12.2022 9.07024 L 12.2239 9.1175 L 12.2456 9.16474 L 12.2673 9.21196 L 12.289 9.25915 L 12.3106 9.30632 L 12.3322 9.35346 L 12.3538 9.40058 L 12.3753 9.44768 L 12.3968 9.49475 L 12.4183 9.5418 L 12.4398 9.58883 L 12.4612 9.63583 L 12.4826 9.68282 L 12.5039 9.72978 L 12.5253 9.77671 L 12.5466 9.82363 L 12.5679 9.87052 L 12.5891 9.9174 L 12.6103 9.96425 L 12.6315 10.0111 L 12.6527 10.0579 L 12.6738 10.1047 L 12.6949 10.1514 L 12.716 10.1982 L 12.7371 10.2449 L 12.7581 10.2916 L 12.7791 10.3383 L 12.8001 10.385 L 12.8211 10.4316 L 12.842 10.4782 L 12.8629 10.5248 L 12.8838 10.5714 L 12.9047 10.618 L 12.9255 10.6645 L 12.9463 10.711 L 12.9671 10.7575 L 12.9879 10.804 L 13.0086 10.8505 L 13.0294 10.8969 L 13.0501 10.9434 L 13.0707 10.9898 L 13.0914 11.0362 L 13.112 11.0825 L 13.1326 11.1289 L 13.1532 11.1752 L 13.1738 11.2215 L 13.1943 11.2678 L 13.2149 11.3141 L 13.2354 11.3604 L 13.2559 11.4066 L 13.2763 11.4529 L 13.2968 11.4991 L 13.3221 11.5396 L 13.2922 11.574 L 13.2621 11.6085 L 13.232 11.6428 L 13.2018 11.677 L 13.1715 11.7112 L 13.1411 11.7453 L 13.1106 11.7793 L 13.08 11.8133 L 13.0494 11.8471 L 13.0186 11.8809 L 12.9878 11.9146 L 12.9569 11.9482 L 12.9258 11.9818 L 12.8948 12.0152 L 12.8636 12.0486 L 12.8323 12.0819 L 12.8009 12.1151 L 12.7695 12.1483 L 12.738 12.1813 L 12.7064 12.2143 L 12.6747 12.2472 L 12.6429 12.28 L 12.611 12.3127 L 12.5791 12.3454 L 12.547 12.3779 L 12.5149 12.4104 L 12.4104 12.5149 L 12.3779 12.547 L 12.3454 12.5791 L 12.3127 12.611 L 12.28 12.6429 L 12.2472 12.6747 L 12.2143 12.7064 L 12.1813 12.738 L 12.1483 12.7695 L 12.1151 12.8009 L 12.0819 12.8323 L 12.0486 12.8636 L 12.0152 12.8948 L 11.9818 12.9258 L 11.9482 12.9569 L 11.9146 12.9878 L 11.8809 13.0186 L 11.8471 13.0494 L 11.8133 13.08 L 11.7793 13.1106 L 11.7453 13.1411 L 11.7112 13.1715 L 11.677 13.2018 L 11.6428 13.232 L 11.6085 13.2621 L 11.574 13.2922 L 11.5396 13.3221 L 11.4991 13.2968 L 11.4529 13.2763 L 11.4066 13.2559 L 11.3604 13.2354 L 11.3141 13.2149 L 11.2678 13.1943 L 11.2215 13.1738 L 11.1752 13.1532 L 11.1289 13.1326 L 11.0825 13.112 L 11.0362 13.0914 L 10.9898 13.0707 L 10.9434 13.0501 L 10.8969 13.0294 L 10.8505 13.0086 L 10.804 12.9879 L 10.7575 12.9671 L 10.711 12.9463 L 10.6645 12.9255 L 10.618 12.9047 L 10.5714 12.8838 L 10.5248 12.8629 L 10.4782 12.842 L 10.4316 12.8211 L 10.385 12.8001 L 10.3383 12.7791 L 10.2916 12.7581 L 10.2449 12.7371 L 10.1982 12.716 L 10.1514 12.6949 L 10.1047 12.6738 L 10.0579 12.6527 L 10.0111 12.6315 L 9.96425 12.6103 L 9.9174 12.5891 L 9.87052 12.5679 L 9.82363 12.5466 L 9.77671 12.5253 L 9.72978 12.5039 L 9.68282 12.4826 L 9.63583 12.4612 L 9.58883 12.4398 L 9.5418 12.4183 L 9.49475 12.3968 L 9.44768 12.3753 L 9.40058 12.3538 L 9.35346 12.3322 L 9.30632 12.3106 L 9.25915 12.289 L 9.21196 12.2673 L 9.16474 12.2456 L 9.1175 12.2239 L 9.07024 12.2022 L 9.02295 12.1804 L 8.97564 12.1585 L 8.9283 12.1367 L 8.88094 12.1148 L 8.83356 12.0929 L 8.78614 12.0709 L 8.73871 12.0489 L 8.69124 12.0269 L 8.64375 12.0048 L 8.59624 11.9827 L 8.5487 11.9606 L 8.50113 11.9384 L 8.45354 11.9162 L 8.40592 11.8939 L 8.35827 11.8716 L 8.31059 11.8493 L 8.26289 11.8269 L 8.21516 11.8045 L 8.1674 11.7821 L 8.11962 11.7596 L 8.07181 11.7371 L 8.02397 11.7145 L 7.9761 11.6919 L 7.9282 11.6692 L 7.88027 11.6466 L 7.83232 11.6238 L 7.78433 11.601 L 7.73632 11.5782 L 7.73632 11.5782 L 7.73903 11.6313 L 7.74171 11.6844 L 7.74436 11.7374 L 7.74699 11.7903 L 7.74959 11.8432 L 7.75215 11.8961 L 7.7547 11.949 L 7.75721 12.0018 L 7.7597 12.0545 L 7.76216 12.1072 L 7.7646 12.1599 L 7.76701 12.2125 L 7.76939 12.2651 L 7.77175 12.3177 L 7.77408 12.3702 L 7.77639 12.4226 L 7.77868 12.4751 L 7.78094 12.5275 L 7.78318 12.5798 L 7.78539 12.6321 L 7.78758 12.6844 L 7.78975 12.7367 L 7.7919 12.7889 L 7.79402 12.8411 L 7.79612 12.8932 L 7.7982 12.9453 L 7.80026 12.9973 L 7.80229 13.0494 L 7.80431 13.1014 L 7.80631 13.1533 L 7.80828 13.2052 L 7.81023 13.2571 L 7.81217 13.309 L 7.81408 13.3608 L 7.81598 13.4126 L 7.81785 13.4644 L 7.81971 13.5161 L 7.82155 13.5678 L 7.82337 13.6194 L 7.82517 13.671 L 7.82695 13.7226 L 7.82871 13.7742 L 7.83046 13.8257 L 7.83219 13.8772 L 7.8339 13.9287 L 7.83559 13.9801 L 7.83727 14.0315 L 7.83893 14.0829 L 7.84057 14.1342 L 7.84219 14.1856 L 7.8438 14.2368 L 7.8454 14.2881 L 7.84698 14.3393 L 7.84854 14.3905 L 7.85008 14.4417 L 7.85161 14.4928 L 7.85313 14.5439 L 7.85463 14.595 L 7.85612 14.6461 L 7.85759 14.6971 L 7.85904 14.7481 L 7.86048 14.7991 L 7.86191 14.85 L 7.86332 14.901 L 7.86472 14.9519 L 7.86611 15.0027 L 7.86748 15.0536 L 7.86883 15.1044 L 7.87018 15.1552 L 7.87151 15.2059 L 7.87283 15.2567 L 7.87413 15.3074 L 7.87542 15.3581 L 7.8767 15.4087 L 7.87797 15.4594 L 7.87922 15.51 L 7.88046 15.5606 L 7.88169 15.6111 L 7.88291 15.6617 L 7.88411 15.7122 L 7.89205 15.7593 L 7.85118 15.7797 L 7.81025 15.8 L 7.76928 15.8202 L 7.72825 15.8403 L 7.68717 15.8603 L 7.64604 15.8801 L 7.60486 15.8999 L 7.56362 15.9196 L 7.52234 15.9391 L 7.481 15.9585 L 7.43962 15.9779 L 7.39818 15.9971 L 7.3567 16.0162 L 7.31517 16.0352 L 7.27358 16.0541 L 7.23195 16.0729 L 7.19027 16.0916 L 7.14854 16.1102 L 7.10676 16.1287 L 7.06494 16.1471 L 7.02307 16.1653 L 6.98115 16.1835 L 6.93918 16.2015 L 6.89717 16.2194 L 6.85511 16.2372 L 6.813 16.255 L 6.67647 16.3115 L 6.63417 16.3288 L 6.59183 16.3459 L 6.54944 16.3629 L 6.50701 16.3798 L 6.46454 16.3967 L 6.42202 16.4134 L 6.37946 16.4299 L 6.33686 16.4464 L 6.29421 16.4628 L 6.25153 16.479 L 6.2088 16.4952 L 6.16602 16.5112 L 6.12321 16.5272 L 6.08036 16.543 L 6.03746 16.5587 L 5.99453 16.5743 L 5.95155 16.5897 L 5.90854 16.6051 L 5.86548 16.6204 L 5.82238 16.6355 L 5.77925 16.6506 L 5.73608 16.6655 L 5.69287 16.6803 L 5.64962 16.695 L 5.60633 16.7096 L 5.563 16.724 L 5.53529 16.6851 L 5.50042 16.6485 L 5.46555 16.6119 L 5.43066 16.5753 L 5.39577 16.5387 L 5.36086 16.502 L 5.32595 16.4653 L 5.29103 16.4286 L 5.2561 16.3918 L 5.22117 16.355 L 5.18622 16.3182 L 5.15127 16.2814 L 5.1163 16.2445 L 5.08133 16.2076 L 5.04635 16.1707 L 5.01136 16.1338 L 4.97636 16.0968 L 4.94135 16.0598 L 4.90634 16.0227 L 4.87131 15.9857 L 4.83628 15.9486 L 4.80124 15.9115 L 4.76618 15.8743 L 4.73112 15.8371 L 4.69605 15.7999 L 4.66097 15.7627 L 4.62588 15.7254 L 4.59079 15.6881 L 4.55568 15.6507 L 4.52056 15.6134 L 4.48544 15.576 L 4.4503 15.5385 L 4.41516 15.5011 L 4.38 15.4636 L 4.34484 15.426 L 4.30967 15.3885 L 4.27448 15.3509 L 4.23929 15.3132 L 4.20409 15.2756 L 4.16888 15.2379 L 4.13366 15.2001 L 4.09843 15.1623 L 4.06319 15.1245 L 4.02794 15.0867 L 3.99268 15.0488 L 3.95741 15.0109 L 3.92213 14.9729 L 3.88684 14.9349 L 3.85154 14.8969 L 3.81623 14.8588 L 3.78091 14.8207 L 3.74558 14.7825 L 3.71025 14.7444 L 3.6749 14.7061 L 3.63954 14.6679 L 3.60417 14.6295 L 3.56879 14.5912 L 3.5334 14.5528 L 3.498 14.5144 L 3.46259 14.4759 L 3.42718 14.4374 L 3.39175 14.3988 L 3.35631 14.3602 L 3.32086 14.3216 L 3.2854 14.2829 L 3.24993 14.2441 L 3.21445 14.2054 L 3.17895 14.1665 L 3.14345 14.1277 L 3.10794 14.0887 L 3.07242 14.0498 L 3.03689 14.0108 L 3.00135 13.9717 L 2.96579 13.9326 L 2.93023 13.8934 L 2.89466 13.8542 L 2.85907 13.815 L 2.82348 13.7757 L 2.78787 13.7363 L 2.75226 13.6969 L 2.71663 13.6574 L 2.71663 13.6574 L 2.69882 13.7075 L 2.681 13.7576 L 2.66316 13.8076 L 2.64532 13.8575 L 2.62747 13.9074 L 2.60961 13.9572 L 2.59174 14.007 L 2.57386 14.0567 L 2.55597 14.1064 L 2.53807 14.1561 L 2.52016 14.2057 L 2.50225 14.2552 L 2.48433 14.3047 L 2.46639 14.3542 L 2.44846 14.4036 L 2.43051 14.4529 L 2.41256 14.5022 L 2.39459 14.5515 L 2.37663 14.6007 L 2.35865 14.6499 L 2.34067 14.6991 L 2.32268 14.7482 L 2.30468 14.7972 L 2.28668 14.8462 L 2.26867 14.8952 L 2.25065 14.9441 L 2.23263 14.993 L 2.2146 15.0419 L 2.19657 15.0907 L 2.17853 15.1394 L 2.16048 15.1882 L 2.14243 15.2368 L 2.12437 15.2855 L 2.10631 15.3341 L 2.08824 15.3827 L 2.07017 15.4312 L 2.05209 15.4797 L 2.03401 15.5282 L 2.01592 15.5766 L 1.99783 15.625 L 1.97973 15.6733 L 1.96163 15.7216 L 1.94353 15.7699 L 1.92541 15.8181 L 1.9073 15.8663 L 1.88918 15.9145 L 1.87106 15.9626 L 1.85293 16.0107 L 1.8348 16.0588 L 1.81666 16.1068 L 1.79853 16.1548 L 1.78038 16.2028 L 1.76224 16.2507 L 1.74409 16.2986 L 1.72593 16.3465 L 1.70778 16.3943 L 1.68962 16.4421 L 1.67145 16.4899 L 1.65329 16.5376 L 1.63512 16.5853 L 1.61695 16.633 L 1.59877 16.6807 L 1.58059 16.7283 L 1.56241 16.7759 L 1.54423 16.8234 L 1.52604 16.8709 L 1.50785 16.9184 L 1.48966 16.9659 L 1.47146 17.0133 L 1.45327 17.0607 L 1.43507 17.1081 L 1.41687 17.1555 L 1.39866 17.2028 L 1.38046 17.2501 L 1.36225 17.2974 L 1.34404 17.3446 L 1.32582 17.3918 L 1.30761 17.439 L 1.28939 17.4862 L 1.27117 17.5333 L 1.26047 17.5799 L 1.2149 17.5831 L 1.16933 17.5862 L 1.12375 17.5891 L 1.07816 17.592 L 1.03256 17.5947 L 0.986955 17.5973 L 0.941345 17.5998 L 0.895728 17.6022 L 0.850105 17.6045 L 0.804476 17.6066 L 0.758842 17.6087 L 0.713203 17.6106 L 0.667559 17.6124 L 0.62191 17.614 L 0.576258 17.6156 L 0.530601 17.617 L 0.484941 17.6183 L 0.439278 17.6195 L 0.393612 17.6206 L 0.347943 17.6216 L 0.302272 17.6224 L 0.256598 17.6231 L 0.210923 17.6237 L 0.165247 17.6242 L 0.11957 17.6246 L 0.0738913 17.6248 L -0.0738913 17.6248 L -0.11957 17.6246 L -0.165247 17.6242 L -0.210923 17.6237 L -0.256598 17.6231 L -0.302272 17.6224 L -0.347943 17.6216 L -0.393612 17.6206 L -0.439278 17.6195 L -0.484941 17.6183 L -0.530601 17.617 L -0.576258 17.6156 L -0.62191 17.614 L -0.667559 17.6124 L -0.713203 17.6106 L -0.758842 17.6087 L -0.804476 17.6066 L -0.850105 17.6045 L -0.895728 17.6022 L -0.941345 17.5998 L -0.986955 17.5973 L -1.03256 17.5947 L -1.07816 17.592 L -1.12375 17.5891 L -1.16933 17.5862 L -1.2149 17.5831 L -1.26047 17.5799 L -1.27117 17.5333 L -1.28939 17.4862 L -1.30761 17.439 L -1.32582 17.3918 L -1.34404 17.3446 L -1.36225 17.2974 L -1.38046 17.2501 L -1.39866 17.2028 L -1.41687 17.1555 L -1.43507 17.1081 L -1.45327 17.0607 L -1.47146 17.0133 L -1.48966 16.9659 L -1.50785 16.9184 L -1.52604 16.8709 L -1.54423 16.8234 L -1.56241 16.7759 L -1.58059 16.7283 L -1.59877 16.6807 L -1.61695 16.633 L -1.63512 16.5853 L -1.65329 16.5376 L -1.67145 16.4899 L -1.68962 16.4421 L -1.70778 16.3943 L -1.72593 16.3465 L -1.74409 16.2986 L -1.76224 16.2507 L -1.78038 16.2028 L -1.79853 16.1548 L -1.81666 16.1068 L -1.8348 16.0588 L -1.85293 16.0107 L -1.87106 15.9626 L -1.88918 15.9145 L -1.9073 15.8663 L -1.92541 15.8181 L -1.94353 15.7699 L -1.96163 15.7216 L -1.97973 15.6733 L -1.99783 15.625 L -2.01592 15.5766 L -2.03401 15.5282 L -2.05209 15.4797 L -2.07017 15.4312 L -2.08824 15.3827 L -2.10631 15.3341 L -2.12437 15.2855 L -2.14243 15.2368 L -2.16048 15.1882 L -2.17853 15.1394 L -2.19657 15.0907 L -2.2146 15.0419 L -2.23263 14.993 L -2.25065 14.9441 L -2.26867 14.8952 L -2.28668 14.8462 L -2.30468 14.7972 L -2.32268 14.7482 L -2.34067 14.6991 L -2.35865 14.6499 L -2.37663 14.6007 L -2.39459 14.5515 L -2.41256 14.5022 L -2.43051 14.4529 L -2.44846 14.4036 L -2.46639 14.3542 L -2.48433 14.3047 L -2.50225 14.2552 L -2.52016 14.2057 L -2.53807 14.1561 L -2.55597 14.1064 L -2.57386 14.0567 L -2.59174 14.007 L -2.60961 13.9572 L -2.62747 13.9074 L -2.64532 13.8575 L -2.66316 13.8076 L -2.681 13.7576 L -2.69882 13.7075 L -2.71663 13.6574 L -2.71663 13.6574 L -2.75226 13.6969 L -2.78787 13.7363 L -2.82348 13.7757 L -2.85907 13.815 L -2.89466 13.8542 L -2.93023 13.8934 L -2.96579 13.9326 L -3.00135 13.9717 L -3.03689 14.0108 L -3.07242 14.0498 L -3.10794 14.0887 L -3.14345 14.1277 L -3.17895 14.1665 L -3.21445 14.2054 L -3.24993 14.2441 L -3.2854 14.2829 L -3.32086 14.3216 L -3.35631 14.3602 L -3.39175 14.3988 L -3.42718 14.4374 L -3.46259 14.4759 L -3.498 14.5144 L -3.5334 14.5528 L -3.56879 14.5912 L -3.60417 14.6295 L -3.63954 14.6679 L -3.6749 14.7061 L -3.71025 14.7444 L -3.74558 14.7825 L -3.78091 14.8207 L -3.81623 14.8588 L -3.85154 14.8969 L -3.88684 14.9349 L -3.92213 14.9729 L -3.95741 15.0109 L -3.99268 15.0488 L -4.02794 15.0867 L -4.06319 15.1245 L -4.09843 15.1623 L -4.13366 15.2001 L -4.16888 15.2379 L -4.20409 15.2756 L -4.23929 15.3132 L -4.27448 15.3509 L -4.30967 15.3885 L -4.34484 15.426 L -4.38 15.4636 L -4.41516 15.5011 L -4.4503 15.5385 L -4.48544 15.576 L -4.52056 15.6134 L -4.55568 15.6507 L -4.59079 15.6881 L -4.62588 15.7254 L -4.66097 15.7627 L -4.69605 15.7999 L -4.73112 15.8371 L -4.76618 15.8743 L -4.80124 15.9115 L -4.83628 15.9486 L -4.87131 15.9857 L -4.90634 16.0227 L -4.94135 16.0598 L -4.97636 16.0968 L -5.01136 16.1338 L -5.04635 16.1707 L -5.08133 16.2076 L -5.1163 16.2445 L -5.15127 16.2814 L -5.18622 16.3182 L -5.22117 16.355 L -5.2561 16.3918 L -5.29103 16.4286 L -5.32595 16.4653 L -5.36086 16.502 L -5.39577 16.5387 L -5.43066 16.5753 L -5.46555 16.6119 L -5.50042 16.6485 L -5.53529 16.6851 L -5.563 16.724 L -5.60633 16.7096 L -5.64962 16.695 L -5.69287 16.6803 L -5.73608 16.6655 L -5.77925 16.6506 L -5.82238 16.6355 L -5.86548 16.6204 L -5.90854 16.6051 L -5.95155 16.5897 L -5.99453 16.5743 L -6.03746 16.5587 L -6.08036 16.543 L -6.12321 16.5272 L -6.16602 16.5112 L -6.2088 16.4952 L -6.25153 16.479 L -6.29421 16.4628 L -6.33686 16.4464 L -6.37946 16.4299 L -6.42202 16.4134 L -6.46454 16.3967 L -6.50701 16.3798 L -6.54944 16.3629 L -6.59183 16.3459 L -6.63417 16.3288 L -6.67647 16.3115 L -6.813 16.255 L -6.85511 16.2372 L -6.89717 16.2194 L -6.93918 16.2015 L -6.98115 16.1835 L -7.02307 16.1653 L -7.06494 16.1471 L -7.10676 16.1287 L -7.14854 16.1102 L -7.19027 16.0916 L -7.23195 16.0729 L -7.27358 16.0541 L -7.31517 16.0352 L -7.3567 16.0162 L -7.39818 15.9971 L -7.43962 15.9779 L -7.481 15.9585 L -7.52234 15.9391 L -7.56362 15.9196 L -7.60486 15.8999 L -7.64604 15.8801 L -7.68717 15.8603 L -7.72825 15.8403 L -7.76928 15.8202 L -7.81025 15.8 L -7.85118 15.7797 L -7.89205 15.7593 L -7.88411 15.7122 L -7.88291 15.6617 L -7.88169 15.6111 L -7.88046 15.5606 L -7.87922 15.51 L -7.87797 15.4594 L -7.8767 15.4087 L -7.87542 15.3581 L -7.87413 15.3074 L -7.87283 15.2567 L -7.87151 15.2059 L -7.87018 15.1552 L -7.86883 15.1044 L -7.86748 15.0536 L -7.86611 15.0027 L -7.86472 14.9519 L -7.86332 14.901 L -7.86191 14.85 L -7.86048 14.7991 L -7.85904 14.7481 L -7.85759 14.6971 L -7.85612 14.6461 L -7.85463 14.595 L -7.85313 14.5439 L -7.85161 14.4928 L -7.85008 14.4417 L -7.84854 14.3905 L -7.84698 14.3393 L -7.8454 14.2881 L -7.8438 14.2368 L -7.84219 14.1856 L -7.84057 14.1342 L -7.83893 14.0829 L -7.83727 14.0315 L -7.83559 13.9801 L -7.8339 13.9287 L -7.83219 13.8772 L -7.83046 13.8257 L -7.82871 13.7742 L -7.82695 13.7226 L -7.82517 13.671 L -7.82337 13.6194 L -7.82155 13.5678 L -7.81971 13.5161 L -7.81785 13.4644 L -7.81598 13.4126 L -7.81408 13.3608 L -7.81217 13.309 L -7.81023 13.2571 L -7.80828 13.2052 L -7.80631 13.1533 L -7.80431 13.1014 L -7.80229 13.0494 L -7.80026 12.9973 L -7.7982 12.9453 L -7.79612 12.8932 L -7.79402 12.8411 L -7.7919 12.7889 L -7.78975 12.7367 L -7.78758 12.6844 L -7.78539 12.6321 L -7.78318 12.5798 L -7.78094 12.5275 L -7.77868 12.4751 L -7.77639 12.4226 L -7.77408 12.3702 L -7.77175 12.3177 L -7.76939 12.2651 L -7.76701 12.2125 L -7.7646 12.1599 L -7.76216 12.1072 L -7.7597 12.0545 L -7.75721 12.0018 L -7.7547 11.949 L -7.75215 11.8961 L -7.74959 11.8432 L -7.74699 11.7903 L -7.74436 11.7374 L -7.74171 11.6844 L -7.73903 11.6313 L -7.73632 11.5782 L -7.73632 11.5782 L -7.78433 11.601 L -7.83232 11.6238 L -7.88027 11.6466 L -7.9282 11.6692 L -7.9761 11.6919 L -8.02397 11.7145 L -8.07181 11.7371 L -8.11962 11.7596 L -8.1674 11.7821 L -8.21516 11.8045 L -8.26289 11.8269 L -8.31059 11.8493 L -8.35827 11.8716 L -8.40592 11.8939 L -8.45354 11.9162 L -8.50113 11.9384 L -8.5487 11.9606 L -8.59624 11.9827 L -8.64375 12.0048 L -8.69124 12.0269 L -8.73871 12.0489 L -8.78614 12.0709 L -8.83356 12.0929 L -8.88094 12.1148 L -8.9283 12.1367 L -8.97564 12.1585 L -9.02295 12.1804 L -9.07024 12.2022 L -9.1175 12.2239 L -9.16474 12.2456 L -9.21196 12.2673 L -9.25915 12.289 L -9.30632 12.3106 L -9.35346 12.3322 L -9.40058 12.3538 L -9.44768 12.3753 L -9.49475 12.3968 L -9.5418 12.4183 L -9.58883 12.4398 L -9.63583 12.4612 L -9.68282 12.4826 L -9.72978 12.5039 L -9.77671 12.5253 L -9.82363 12.5466 L -9.87052 12.5679 L -9.9174 12.5891 L -9.96425 12.6103 L -10.0111 12.6315 L -10.0579 12.6527 L -10.1047 12.6738 L -10.1514 12.6949 L -10.1982 12.716 L -10.2449 12.7371 L -10.2916 12.7581 L -10.3383 12.7791 L -10.385 12.8001 L -10.4316 12.8211 L -10.4782 12.842 L -10.5248 12.8629 L -10.5714 12.8838 L -10.618 12.9047 L -10.6645 12.9255 L -10.711 12.9463 L -10.7575 12.9671 L -10.804 12.9879 L -10.8505 13.0086 L -10.8969 13.0294 L -10.9434 13.0501 L -10.9898 13.0707 L -11.0362 13.0914 L -11.0825 13.112 L -11.1289 13.1326 L -11.1752 13.1532 L -11.2215 13.1738 L -11.2678 13.1943 L -11.3141 13.2149 L -11.3604 13.2354 L -11.4066 13.2559 L -11.4529 13.2763 L -11.4991 13.2968 L -11.5396 13.3221 L -11.574 13.2922 L -11.6085 13.2621 L -11.6428 13.232 L -11.677 13.2018 L -11.7112 13.1715 L -11.7453 13.1411 L -11.7793 13.1106 L -11.8133 13.08 L -11.8471 13.0494 L -11.8809 13.0186 L -11.9146 12.9878 L -11.9482 12.9569 L -11.9818 12.9258 L -12.0152 12.8948 L -12.0486 12.8636 L -12.0819 12.8323 L -12.1151 12.8009 L -12.1483 12.7695 L -12.1813 12.738 L -12.2143 12.7064 L -12.2472 12.6747 L -12.28 12.6429 L -12.3127 12.611 L -12.3454 12.5791 L -12.3779 12.547 L -12.4104 12.5149 L -12.5149 12.4104 L -12.547 12.3779 L -12.5791 12.3454 L -12.611 12.3127 L -12.6429 12.28 L -12.6747 12.2472 L -12.7064 12.2143 L -12.738 12.1813 L -12.7695 12.1483 L -12.8009 12.1151 L -12.8323 12.0819 L -12.8636 12.0486 L -12.8948 12.0152 L -12.9258 11.9818 L -12.9569 11.9482 L -12.9878 11.9146 L -13.0186 11.8809 L -13.0494 11.8471 L -13.08 11.8133 L -13.1106 11.7793 L -13.1411 11.7453 L -13.1715 11.7112 L -13.2018 11.677 L -13.232 11.6428 L -13.2621 11.6085 L -13.2922 11.574 L -13.3221 11.5396 L -13.2968 11.4991 L -13.2763 11.4529 L -13.2559 11.4066 L -13.2354 11.3604 L -13.2149 11.3141 L -13.1943 11.2678 L -13.1738 11.2215 L -13.1532 11.1752 L -13.1326 11.1289 L -13.112 11.0825 L -13.0914 11.0362 L -13.0707 10.9898 L -13.0501 10.9434 L -13.0294 10.8969 L -13.0086 10.8505 L -12.9879 10.804 L -12.9671 10.7575 L -12.9463 10.711 L -12.9255 10.6645 L -12.9047 10.618 L -12.8838 10.5714 L -12.8629 10.5248 L -12.842 10.4782 L -12.8211 10.4316 L -12.8001 10.385 L -12.7791 10.3383 L -12.7581 10.2916 L -12.7371 10.2449 L -12.716 10.1982 L -12.6949 10.1514 L -12.6738 10.1047 L -12.6527 10.0579 L -12.6315 10.0111 L -12.6103 9.96425 L -12.5891 9.9174 L -12.5679 9.87052 L -12.5466 9.82363 L -12.5253 9.77671 L -12.5039 9.72978 L -12.4826 9.68282 L -12.4612 9.63583 L -12.4398 9.58883 L -12.4183 9.5418 L -12.3968 9.49475 L -12.3753 9.44768 L -12.3538 9.40058 L -12.3322 9.35346 L -12.3106 9.30632 L -12.289 9.25915 L -12.2673 9.21196 L -12.2456 9.16474 L -12.2239 9.1175 L -12.2022 9.07024 L -12.1804 9.02295 L -12.1585 8.97564 L -12.1367 8.9283 L -12.1148 8.88094 L -12.0929 8.83356 L -12.0709 8.78614 L -12.0489 8.73871 L -12.0269 8.69124 L -12.0048 8.64375 L -11.9827 8.59624 L -11.9606 8.5487 L -11.9384 8.50113 L -11.9162 8.45354 L -11.8939 8.40592 L -11.8716 8.35827 L -11.8493 8.31059 L -11.8269 8.26289 L -11.8045 8.21516 L -11.7821 8.1674 L -11.7596 8.11962 L -11.7371 8.07181 L -11.7145 8.02397 L -11.6919 7.9761 L -11.6692 7.9282 L -11.6466 7.88027 L -11.6238 7.83232 L -11.601 7.78433 L -11.5782 7.73632 L -11.5782 7.73632 L -11.6313 7.73903 L -11.6844 7.74171 L -11.7374 7.74436 L -11.7903 7.74699 L -11.8432 7.74959 L -11.8961 7.75215 L -11.949 7.7547 L -12.0018 7.75721 L -12.0545 7.7597 L -12.1072 7.76216 L -12.1599 7.7646 L -12.2125 7.76701 L -12.2651 7.76939 L -12.3177 7.77175 L -12.3702 7.77408 L -12.4226 7.77639 L -12.4751 7.77868 L -12.5275 7.78094 L -12.5798 7.78318 L -12.6321 7.78539 L -12.6844 7.78758 L -12.7367 7.78975 L -12.7889 7.7919 L -12.8411 7.79402 L -12.8932 7.79612 L -12.9453 7.7982 L -12.9973 7.80026 L -13.0494 7.80229 L -13.1014 7.80431 L -13.1533 7.80631 L -13.2052 7.80828 L -13.2571 7.81023 L -13.309 7.81217 L -13.3608 7.81408 L -13.4126 7.81598 L -13.4644 7.81785 L -13.5161 7.81971 L -13.5678 7.82155 L -13.6194 7.82337 L -13.671 7.82517 L -13.7226 7.82695 L -13.7742 7.82871 L -13.8257 7.83046 L -13.8772 7.83219 L -13.9287 7.8339 L -13.9801 7.83559 L -14.0315 7.83727 L -14.0829 7.83893 L -14.1342 7.84057 L -14.1856 7.84219 L -14.2368 7.8438 L -14.2881 7.8454 L -14.3393 7.84698 L -14.3905 7.84854 L -14.4417 7.85008 L -14.4928 7.85161 L -14.5439 7.85313 L -14.595 7.85463 L -14.6461 7.85612 L -14.6971 7.85759 L -14.7481 7.85904 L -14.7991 7.86048 L -14.85 7.86191 L -14.901 7.86332 L -14.9519 7.86472 L -15.0027 7.86611 L -15.0536 7.86748 L -15.1044 7.86883 L -15.1552 7.87018 L -15.2059 7.87151 L -15.2567 7.87283 L -15.3074 7.87413 L -15.3581 7.87542 L -15.4087 7.8767 L -15.4594 7.87797 L -15.51 7.87922 L -15.5606 7.88046 L -15.6111 7.88169 L -15.6617 7.88291 L -15.7122 7.88411 L -15.7593 7.89205 L -15.7797 7.85118 L -15.8 7.81025 L -15.8202 7.76928 L -15.8403 7.72825 L -15.8603 7.68717 L -15.8801 7.64604 L -15.8999 7.60486 L -15.9196 7.56362 L -15.9391 7.52234 L -15.9585 7.481 L -15.9779 7.43962 L -15.9971 7.39818 L -16.0162 7.3567 L -16.0352 7.31517 L -16.0541 7.27358 L -16.0729 7.23195 L -16.0916 7.19027 L -16.1102 7.14854 L -16.1287 7.10676 L -16.1471 7.06494 L -16.1653 7.02307 L -16.1835 6.98115 L -16.2015 6.93918 L -16.2194 6.89717 L -16.2372 6.85511 L -16.255 6.813 L -16.3115 6.67647 L -16.3288 6.63417 L -16.3459 6.59183 L -16.3629 6.54944 L -16.3798 6.50701 L -16.3967 6.46454 L -16.4134 6.42202 L -16.4299 6.37946 L -16.4464 6.33686 L -16.4628 6.29421 L -16.479 6.25153 L -16.4952 6.2088 L -16.5112 6.16602 L -16.5272 6.12321 L -16.543 6.08036 L -16.5587 6.03746 L -16.5743 5.99453 L -16.5897 5.95155 L -16.6051 5.90854 L -16.6204 5.86548 L -16.6355 5.82238 L -16.6506 5.77925 L -16.6655 5.73608 L -16.6803 5.69287 L -16.695 5.64962 L -16.7096 5.60633 L -16.724 5.563 L -16.6851 5.53529 L -16.6485 5.50042 L -16.6119 5.46555 L -16.5753 5.43066 L -16.5387 5.39577 L -16.502 5.36086 L -16.4653 5.32595 L -16.4286 5.29103 L -16.3918 5.2561 L -16.355 5.22117 L -16.3182 5.18622 L -16.2814 5.15127 L -16.2445 5.1163 L -16.2076 5.08133 L -16.1707 5.04635 L -16.1338 5.01136 L -16.0968 4.97636 L -16.0598 4.94135 L -16.0227 4.90634 L -15.9857 4.87131 L -15.9486 4.83628 L -15.9115 4.80124 L -15.8743 4.76618 L -15.8371 4.73112 L -15.7999 4.69605 L -15.7627 4.66097 L -15.7254 4.62588 L -15.6881 4.59079 L -15.6507 4.55568 L -15.6134 4.52056 L -15.576 4.48544 L -15.5385 4.4503 L -15.5011 4.41516 L -15.4636 4.38 L -15.426 4.34484 L -15.3885 4.30967 L -15.3509 4.27448 L -15.3132 4.23929 L -15.2756 4.20409 L -15.2379 4.16888 L -15.2001 4.13366 L -15.1623 4.09843 L -15.1245 4.06319 L -15.0867 4.02794 L -15.0488 3.99268 L -15.0109 3.95741 L -14.9729 3.92213 L -14.9349 3.88684 L -14.8969 3.85154 L -14.8588 3.81623 L -14.8207 3.78091 L -14.7825 3.74558 L -14.7444 3.71025 L -14.7061 3.6749 L -14.6679 3.63954 L -14.6295 3.60417 L -14.5912 3.56879 L -14.5528 3.5334 L -14.5144 3.498 L -14.4759 3.46259 L -14.4374 3.42718 L -14.3988 3.39175 L -14.3602 3.35631 L -14.3216 3.32086 L -14.2829 3.2854 L -14.2441 3.24993 L -14.2054 3.21445 L -14.1665 3.17895 L -14.1277 3.14345 L -14.0887 3.10794 L -14.0498 3.07242 L -14.0108 3.03689 L -13.9717 3.00135 L -13.9326 2.96579 L -13.8934 2.93023 L -13.8542 2.89466 L -13.815 2.85907 L -13.7757 2.82348 L -13.7363 2.78787 L -13.6969 2.75226 L -13.6574 2.71663 L -13.6574 2.71663 L -13.7075 2.69882 L -13.7576 2.681 L -13.8076 2.66316 L -13.8575 2.64532 L -13.9074 2.62747 L -13.9572 2.60961 L -14.007 2.59174 L -14.0567 2.57386 L -14.1064 2.55597 L -14.1561 2.53807 L -14.2057 2.52016 L -14.2552 2.50225 L -14.3047 2.48433 L -14.3542 2.46639 L -14.4036 2.44846 L -14.4529 2.43051 L -14.5022 2.41256 L -14.5515 2.39459 L -14.6007 2.37663 L -14.6499 2.35865 L -14.6991 2.34067 L -14.7482 2.32268 L -14.7972 2.30468 L -14.8462 2.28668 L -14.8952 2.26867 L -14.9441 2.25065 L -14.993 2.23263 L -15.0419 2.2146 L -15.0907 2.19657 L -15.1394 2.17853 L -15.1882 2.16048 L -15.2368 2.14243 L -15.2855 2.12437 L -15.3341 2.10631 L -15.3827 2.08824 L -15.4312 2.07017 L -15.4797 2.05209 L -15.5282 2.03401 L -15.5766 2.01592 L -15.625 1.99783 L -15.6733 1.97973 L -15.7216 1.96163 L -15.7699 1.94353 L -15.8181 1.92541 L -15.8663 1.9073 L -15.9145 1.88918 L -15.9626 1.87106 L -16.0107 1.85293 L -16.0588 1.8348 L -16.1068 1.81666 L -16.1548 1.79853 L -16.2028 1.78038 L -16.2507 1.76224 L -16.2986 1.74409 L -16.3465 1.72593 L -16.3943 1.70778 L -16.4421 1.68962 L -16.4899 1.67145 L -16.5376 1.65329 L -16.5853 1.63512 L -16.633 1.61695 L -16.6807 1.59877 L -16.7283 1.58059 L -16.7759 1.56241 L -16.8234 1.54423 L -16.8709 1.52604 L -16.9184 1.50785 L -16.9659 1.48966 L -17.0133 1.47146 L -17.0607 1.45327 L -17.1081 1.43507 L -17.1555 1.41687 L -17.2028 1.39866 L -17.2501 1.38046 L -17.2974 1.36225 L -17.3446 1.34404 L -17.3918 1.32582 L -17.439 1.30761 L -17.4862 1.28939 L -17.5333 1.27117 L -17.5799 1.26047 L -17.5831 1.2149 L -17.5862 1.16933 L -17.5891 1.12375 L -17.592 1.07816 L -17.5947 1.03256 L -17.5973 0.986955 L -17.5998 0.941345 L -17.6022 0.895728 L -17.6045 0.850105 L -17.6066 0.804476 L -17.6087 0.758842 L -17.6106 0.713203 L -17.6124 0.667559 L -17.614 0.62191 L -17.6156 0.576258 L -17.617 0.530601 L -17.6183 0.484941 L -17.6195 0.439278 L -17.6206 0.393612 L -17.6216 0.347943 L -17.6224 0.302272 L -17.6231 0.256598 L -17.6237 0.210923 L -17.6242 0.165247 L -17.6246 0.11957 L -17.6248 0.0738913 L -17.6248 -0.0738913 L -17.6246 -0.11957 L -17.6242 -0.165247 L -17.6237 -0.210923 L -17.6231 -0.256598 L -17.6224 -0.302272 L -17.6216 -0.347943 L -17.6206 -0.393612 L -17.6195 -0.439278 L -17.6183 -0.484941 L -17.617 -0.530601 L -17.6156 -0.576258 L -17.614 -0.62191 L -17.6124 -0.667559 L -17.6106 -0.713203 L -17.6087 -0.758842 L -17.6066 -0.804476 L -17.6045 -0.850105 L -17.6022 -0.895728 L -17.5998 -0.941345 L -17.5973 -0.986955 L -17.5947 -1.03256 L -17.592 -1.07816 L -17.5891 -1.12375 L -17.5862 -1.16933 L -17.5831 -1.2149 L -17.5799 -1.26047 L -17.5333 -1.27117 L -17.4862 -1.28939 L -17.439 -1.30761 L -17.3918 -1.32582 L -17.3446 -1.34404 L -17.2974 -1.36225 L -17.2501 -1.38046 L -17.2028 -1.39866 L -17.1555 -1.41687 L -17.1081 -1.43507 L -17.0607 -1.45327 L -17.0133 -1.47146 L -16.9659 -1.48966 L -16.9184 -1.50785 L -16.8709 -1.52604 L -16.8234 -1.54423 L -16.7759 -1.56241 L -16.7283 -1.58059 L -16.6807 -1.59877 L -16.633 -1.61695 L -16.5853 -1.63512 L -16.5376 -1.65329 L -16.4899 -1.67145 L -16.4421 -1.68962 L -16.3943 -1.70778 L -16.3465 -1.72593 L -16.2986 -1.74409 L -16.2507 -1.76224 L -16.2028 -1.78038 L -16.1548 -1.79853 L -16.1068 -1.81666 L -16.0588 -1.8348 L -16.0107 -1.85293 L -15.9626 -1.87106 L -15.9145 -1.88918 L -15.8663 -1.9073 L -15.8181 -1.92541 L -15.7699 -1.94353 L -15.7216 -1.96163 L -15.6733 -1.97973 L -15.625 -1.99783 L -15.5766 -2.01592 L -15.5282 -2.03401 L -15.4797 -2.05209 L -15.4312 -2.07017 L -15.3827 -2.08824 L -15.3341 -2.10631 L -15.2855 -2.12437 L -15.2368 -2.14243 L -15.1882 -2.16048 L -15.1394 -2.17853 L -15.0907 -2.19657 L -15.0419 -2.2146 L -14.993 -2.23263 L -14.9441 -2.25065 L -14.8952 -2.26867 L -14.8462 -2.28668 L -14.7972 -2.30468 L -14.7482 -2.32268 L -14.6991 -2.34067 L -14.6499 -2.35865 L -14.6007 -2.37663 L -14.5515 -2.39459 L -14.5022 -2.41256 L -14.4529 -2.43051 L -14.4036 -2.44846 L -14.3542 -2.46639 L -14.3047 -2.48433 L -14.2552 -2.50225 L -14.2057 -2.52016 L -14.1561 -2.53807 L -14.1064 -2.55597 L -14.0567 -2.57386 L -14.007 -2.59174 L -13.9572 -2.60961 L -13.9074 -2.62747 L -13.8575 -2.64532 L -13.8076 -2.66316 L -13.7576 -2.681 L -13.7075 -2.69882 L -13.6574 -2.71663 L -13.6574 -2.71663 L -13.6969 -2.75226 L -13.7363 -2.78787 L -13.7757 -2.82348 L -13.815 -2.85907 L -13.8542 -2.89466 L -13.8934 -2.93023 L -13.9326 -2.96579 L -13.9717 -3.00135 L -14.0108 -3.03689 L -14.0498 -3.07242 L -14.0887 -3.10794 L -14.1277 -3.14345 L -14.1665 -3.17895 L -14.2054 -3.21445 L -14.2441 -3.24993 L -14.2829 -3.2854 L -14.3216 -3.32086 L -14.3602 -3.35631 L -14.3988 -3.39175 L -14.4374 -3.42718 L -14.4759 -3.46259 L -14.5144 -3.498 L -14.5528 -3.5334 L -14.5912 -3.56879 L -14.6295 -3.60417 L -14.6679 -3.63954 L -14.7061 -3.6749 L -14.7444 -3.71025 L -14.7825 -3.74558 L -14.8207 -3.78091 L -14.8588 -3.81623 L -14.8969 -3.85154 L -14.9349 -3.88684 L -14.9729 -3.92213 L -15.0109 -3.95741 L -15.0488 -3.99268 L -15.0867 -4.02794 L -15.1245 -4.06319 L -15.1623 -4.09843 L -15.2001 -4.13366 L -15.2379 -4.16888 L -15.2756 -4.20409 L -15.3132 -4.23929 L -15.3509 -4.27448 L -15.3885 -4.30967 L -15.426 -4.34484 L -15.4636 -4.38 L -15.5011 -4.41516 L -15.5385 -4.4503 L -15.576 -4.48544 L -15.6134 -4.52056 L -15.6507 -4.55568 L -15.6881 -4.59079 L -15.7254 -4.62588 L -15.7627 -4.66097 L -15.7999 -4.69605 L -15.8371 -4.73112 L -15.8743 -4.76618 L -15.9115 -4.80124 L -15.9486 -4.83628 L -15.9857 -4.87131 L -16.0227 -4.90634 L -16.0598 -4.94135 L -16.0968 -4.97636 L -16.1338 -5.01136 L -16.1707 -5.04635 L -16.2076 -5.08133 L -16.2445 -5.1163 L -16.2814 -5.15127 L -16.3182 -5.18622 L -16.355 -5.22117 L -16.3918 -5.2561 L -16.4286 -5.29103 L -16.4653 -5.32595 L -16.502 -5.36086 L -16.5387 -5.39577 L -16.5753 -5.43066 L -16.6119 -5.46555 L -16.6485 -5.50042 L -16.6851 -5.53529 L -16.724 -5.563 L -16.7096 -5.60633 L -16.695 -5.64962 L -16.6803 -5.69287 L -16.6655 -5.73608 L -16.6506 -5.77925 L -16.6355 -5.82238 L -16.6204 -5.86548 L -16.6051 -5.90854 L -16.5897 -5.95155 L -16.5743 -5.99453 L -16.5587 -6.03746 L -16.543 -6.08036 L -16.5272 -6.12321 L -16.5112 -6.16602 L -16.4952 -6.2088 L -16.479 -6.25153 L -16.4628 -6.29421 L -16.4464 -6.33686 L -16.4299 -6.37946 L -16.4134 -6.42202 L -16.3967 -6.46454 L -16.3798 -6.50701 L -16.3629 -6.54944 L -16.3459 -6.59183 L -16.3288 -6.63417 L -16.3115 -6.67647 L -16.255 -6.813 L -16.2372 -6.85511 L -16.2194 -6.89717 L -16.2015 -6.93918 L -16.1835 -6.98115 L -16.1653 -7.02307 L -16.1471 -7.06494 L -16.1287 -7.10676 L -16.1102 -7.14854 L -16.0916 -7.19027 L -16.0729 -7.23195 L -16.0541 -7.27358 L -16.0352 -7.31517 L -16.0162 -7.3567 L -15.9971 -7.39818 L -15.9779 -7.43962 L -15.9585 -7.481 L -15.9391 -7.52234 L -15.9196 -7.56362 L -15.8999 -7.60486 L -15.8801 -7.64604 L -15.8603 -7.68717 L -15.8403 -7.72825 L -15.8202 -7.76928 L -15.8 -7.81025 L -15.7797 -7.85118 L -15.7593 -7.89205 L -15.7122 -7.88411 L -15.6617 -7.88291 L -15.6111 -7.88169 L -15.5606 -7.88046 L -15.51 -7.87922 L -15.4594 -7.87797 L -15.4087 -7.8767 L -15.3581 -7.87542 L -15.3074 -7.87413 L -15.2567 -7.87283 L -15.2059 -7.87151 L -15.1552 -7.87018 L -15.1044 -7.86883 L -15.0536 -7.86748 L -15.0027 -7.86611 L -14.9519 -7.86472 L -14.901 -7.86332 L -14.85 -7.86191 L -14.7991 -7.86048 L -14.7481 -7.85904 L -14.6971 -7.85759 L -14.6461 -7.85612 L -14.595 -7.85463 L -14.5439 -7.85313 L -14.4928 -7.85161 L -14.4417 -7.85008 L -14.3905 -7.84854 L -14.3393 -7.84698 L -14.2881 -7.8454 L -14.2368 -7.8438 L -14.1856 -7.84219 L -14.1342 -7.84057 L -14.0829 -7.83893 L -14.0315 -7.83727 L -13.9801 -7.83559 L -13.9287 -7.8339 L -13.8772 -7.83219 L -13.8257 -7.83046 L -13.7742 -7.82871 L -13.7226 -7.82695 L -13.671 -7.82517 L -13.6194 -7.82337 L -13.5678 -7.82155 L -13.5161 -7.81971 L -13.4644 -7.81785 L -13.4126 -7.81598 L -13.3608 -7.81408 L -13.309 -7.81217 L -13.2571 -7.81023 L -13.2052 -7.80828 L -13.1533 -7.80631 L -13.1014 -7.80431 L -13.0494 -7.80229 L -12.9973 -7.80026 L -12.9453 -7.7982 L -12.8932 -7.79612 L -12.8411 -7.79402 L -12.7889 -7.7919 L -12.7367 -7.78975 L -12.6844 -7.78758 L -12.6321 -7.78539 L -12.5798 -7.78318 L -12.5275 -7.78094 L -12.4751 -7.77868 L -12.4226 -7.77639 L -12.3702 -7.77408 L -12.3177 -7.77175 L -12.2651 -7.76939 L -12.2125 -7.76701 L -12.1599 -7.7646 L -12.1072 -7.76216 L -12.0545 -7.7597 L -12.0018 -7.75721 L -11.949 -7.7547 L -11.8961 -7.75215 L -11.8432 -7.74959 L -11.7903 -7.74699 L -11.7374 -7.74436 L -11.6844 -7.74171 L -11.6313 -7.73903 L -11.5782 -7.73632 L -11.5782 -7.73632 L -11.601 -7.78433 L -11.6238 -7.83232 L -11.6466 -7.88027 L -11.6692 -7.9282 L -11.6919 -7.9761 L -11.7145 -8.02397 L -11.7371 -8.07181 L -11.7596 -8.11962 L -11.7821 -8.1674 L -11.8045 -8.21516 L -11.8269 -8.26289 L -11.8493 -8.31059 L -11.8716 -8.35827 L -11.8939 -8.40592 L -11.9162 -8.45354 L -11.9384 -8.50113 L -11.9606 -8.5487 L -11.9827 -8.59624 L -12.0048 -8.64375 L -12.0269 -8.69124 L -12.0489 -8.73871 L -12.0709 -8.78614 L -12.0929 -8.83356 L -12.1148 -8.88094 L -12.1367 -8.9283 L -12.1585 -8.97564 L -12.1804 -9.02295 L -12.2022 -9.07024 L -12.2239 -9.1175 L -12.2456 -9.16474 L -12.2673 -9.21196 L -12.289 -9.25915 L -12.3106 -9.30632 L -12.3322 -9.35346 L -12.3538 -9.40058 L -12.3753 -9.44768 L -12.3968 -9.49475 L -12.4183 -9.5418 L -12.4398 -9.58883 L -12.4612 -9.63583 L -12.4826 -9.68282 L -12.5039 -9.72978 L -12.5253 -9.77671 L -12.5466 -9.82363 L -12.5679 -9.87052 L -12.5891 -9.9174 L -12.6103 -9.96425 L -12.6315 -10.0111 L -12.6527 -10.0579 L -12.6738 -10.1047 L -12.6949 -10.1514 L -12.716 -10.1982 L -12.7371 -10.2449 L -12.7581 -10.2916 L -12.7791 -10.3383 L -12.8001 -10.385 L -12.8211 -10.4316 L -12.842 -10.4782 L -12.8629 -10.5248 L -12.8838 -10.5714 L -12.9047 -10.618 L -12.9255 -10.6645 L -12.9463 -10.711 L -12.9671 -10.7575 L -12.9879 -10.804 L -13.0086 -10.8505 L -13.0294 -10.8969 L -13.0501 -10.9434 L -13.0707 -10.9898 L -13.0914 -11.0362 L -13.112 -11.0825 L -13.1326 -11.1289 L -13.1532 -11.1752 L -13.1738 -11.2215 L -13.1943 -11.2678 L -13.2149 -11.3141 L -13.2354 -11.3604 L -13.2559 -11.4066 L -13.2763 -11.4529 L -13.2968 -11.4991 L -13.3221 -11.5396 L -13.2922 -11.574 L -13.2621 -11.6085 L -13.232 -11.6428 L -13.2018 -11.677 L -13.1715 -11.7112 L -13.1411 -11.7453 L -13.1106 -11.7793 L -13.08 -11.8133 L -13.0494 -11.8471 L -13.0186 -11.8809 L -12.9878 -11.9146 L -12.9569 -11.9482 L -12.9258 -11.9818 L -12.8948 -12.0152 L -12.8636 -12.0486 L -12.8323 -12.0819 L -12.8009 -12.1151 L -12.7695 -12.1483 L -12.738 -12.1813 L -12.7064 -12.2143 L -12.6747 -12.2472 L -12.6429 -12.28 L -12.611 -12.3127 L -12.5791 -12.3454 L -12.547 -12.3779 L -12.5149 -12.4104 L -12.4104 -12.5149 L -12.3779 -12.547 L -12.3454 -12.5791 L -12.3127 -12.611 L -12.28 -12.6429 L -12.2472 -12.6747 L -12.2143 -12.7064 L -12.1813 -12.738 L -12.1483 -12.7695 L -12.1151 -12.8009 L -12.0819 -12.8323 L -12.0486 -12.8636 L -12.0152 -12.8948 L -11.9818 -12.9258 L -11.9482 -12.9569 L -11.9146 -12.9878 L -11.8809 -13.0186 L -11.8471 -13.0494 L -11.8133 -13.08 L -11.7793 -13.1106 L -11.7453 -13.1411 L -11.7112 -13.1715 L -11.677 -13.2018 L -11.6428 -13.232 L -11.6085 -13.2621 L -11.574 -13.2922 L -11.5396 -13.3221 L -11.4991 -13.2968 L -11.4529 -13.2763 L -11.4066 -13.2559 L -11.3604 -13.2354 L -11.3141 -13.2149 L -11.2678 -13.1943 L -11.2215 -13.1738 L -11.1752 -13.1532 L -11.1289 -13.1326 L -11.0825 -13.112 L -11.0362 -13.0914 L -10.9898 -13.0707 L -10.9434 -13.0501 L -10.8969 -13.0294 L -10.8505 -13.0086 L -10.804 -12.9879 L -10.7575 -12.9671 L -10.711 -12.9463 L -10.6645 -12.9255 L -10.618 -12.9047 L -10.5714 -12.8838 L -10.5248 -12.8629 L -10.4782 -12.842 L -10.4316 -12.8211 L -10.385 -12.8001 L -10.3383 -12.7791 L -10.2916 -12.7581 L -10.2449 -12.7371 L -10.1982 -12.716 L -10.1514 -12.6949 L -10.1047 -12.6738 L -10.0579 -12.6527 L -10.0111 -12.6315 L -9.96425 -12.6103 L -9.9174 -12.5891 L -9.87052 -12.5679 L -9.82363 -12.5466 L -9.77671 -12.5253 L -9.72978 -12.5039 L -9.68282 -12.4826 L -9.63583 -12.4612 L -9.58883 -12.4398 L -9.5418 -12.4183 L -9.49475 -12.3968 L -9.44768 -12.3753 L -9.40058 -12.3538 L -9.35346 -12.3322 L -9.30632 -12.3106 L -9.25915 -12.289 L -9.21196 -12.2673 L -9.16474 -12.2456 L -9.1175 -12.2239 L -9.07024 -12.2022 L -9.02295 -12.1804 L -8.97564 -12.1585 L -8.9283 -12.1367 L -8.88094 -12.1148 L -8.83356 -12.0929 L -8.78614 -12.0709 L -8.73871 -12.0489 L -8.69124 -12.0269 L -8.64375 -12.0048 L -8.59624 -11.9827 L -8.5487 -11.9606 L -8.50113 -11.9384 L -8.45354 -11.9162 L -8.40592 -11.8939 L -8.35827 -11.8716 L -8.31059 -11.8493 L -8.26289 -11.8269 L -8.21516 -11.8045 L -8.1674 -11.7821 L -8.11962 -11.7596 L -8.07181 -11.7371 L -8.02397 -11.7145 L -7.9761 -11.6919 L -7.9282 -11.6692 L -7.88027 -11.6466 L -7.83232 -11.6238 L -7.78433 -11.601 L -7.73632 -11.5782 L -7.73632 -11.5782 L -7.73903 -11.6313 L -7.74171 -11.6844 L -7.74436 -11.7374 L -7.74699 -11.7903 L -7.74959 -11.8432 L -7.75215 -11.8961 L -7.7547 -11.949 L -7.75721 -12.0018 L -7.7597 -12.0545 L -7.76216 -12.1072 L -7.7646 -12.1599 L -7.76701 -12.2125 L -7.76939 -12.2651 L -7.77175 -12.3177 L -7.77408 -12.3702 L -7.77639 -12.4226 L -7.77868 -12.4751 L -7.78094 -12.5275 L -7.78318 -12.5798 L -7.78539 -12.6321 L -7.78758 -12.6844 L -7.78975 -12.7367 L -7.7919 -12.7889 L -7.79402 -12.8411 L -7.79612 -12.8932 L -7.7982 -12.9453 L -7.80026 -12.9973 L -7.80229 -13.0494 L -7.80431 -13.1014 L -7.80631 -13.1533 L -7.80828 -13.2052 L -7.81023 -13.2571 L -7.81217 -13.309 L -7.81408 -13.3608 L -7.81598 -13.4126 L -7.81785 -13.4644 L -7.81971 -13.5161 L -7.82155 -13.5678 L -7.82337 -13.6194 L -7.82517 -13.671 L -7.82695 -13.7226 L -7.82871 -13.7742 L -7.83046 -13.8257 L -7.83219 -13.8772 L -7.8339 -13.9287 L -7.83559 -13.9801 L -7.83727 -14.0315 L -7.83893 -14.0829 L -7.84057 -14.1342 L -7.84219 -14.1856 L -7.8438 -14.2368 L -7.8454 -14.2881 L -7.84698 -14.3393 L -7.84854 -14.3905 L -7.85008 -14.4417 L -7.85161 -14.4928 L -7.85313 -14.5439 L -7.85463 -14.595 L -7.85612 -14.6461 L -7.85759 -14.6971 L -7.85904 -14.7481 L -7.86048 -14.7991 L -7.86191 -14.85 L -7.86332 -14.901 L -7.86472 -14.9519 L -7.86611 -15.0027 L -7.86748 -15.0536 L -7.86883 -15.1044 L -7.87018 -15.1552 L -7.87151 -15.2059 L -7.87283 -15.2567 L -7.87413 -15.3074 L -7.87542 -15.3581 L -7.8767 -15.4087 L -7.87797 -15.4594 L -7.87922 -15.51 L -7.88046 -15.5606 L -7.88169 -15.6111 L -7.88291 -15.6617 L -7.88411 -15.7122 L -7.89205 -15.7593 L -7.85118 -15.7797 L -7.81025 -15.8 L -7.76928 -15.8202 L -7.72825 -15.8403 L -7.68717 -15.8603 L -7.64604 -15.8801 L -7.60486 -15.8999 L -7.56362 -15.9196 L -7.52234 -15.9391 L -7.481 -15.9585 L -7.43962 -15.9779 L -7.39818 -15.9971 L -7.3567 -16.0162 L -7.31517 -16.0352 L -7.27358 -16.0541 L -7.23195 -16.0729 L -7.19027 -16.0916 L -7.14854 -16.1102 L -7.10676 -16.1287 L -7.06494 -16.1471 L -7.02307 -16.1653 L -6.98115 -16.1835 L -6.93918 -16.2015 L -6.89717 -16.2194 L -6.85511 -16.2372 L -6.813 -16.255 L -6.67647 -16.3115 L -6.63417 -16.3288 L -6.59183 -16.3459 L -6.54944 -16.3629 L -6.50701 -16.3798 L -6.46454 -16.3967 L -6.42202 -16.4134 L -6.37946 -16.4299 L -6.33686 -16.4464 L -6.29421 -16.4628 L -6.25153 -16.479 L -6.2088 -16.4952 L -6.16602 -16.5112 L -6.12321 -16.5272 L -6.08036 -16.543 L -6.03746 -16.5587 L -5.99453 -16.5743 L -5.95155 -16.5897 L -5.90854 -16.6051 L -5.86548 -16.6204 L -5.82238 -16.6355 L -5.77925 -16.6506 L -5.73608 -16.6655 L -5.69287 -16.6803 L -5.64962 -16.695 L -5.60633 -16.7096 L -5.563 -16.724 L -5.53529 -16.6851 L -5.50042 -16.6485 L -5.46555 -16.6119 L -5.43066 -16.5753 L -5.39577 -16.5387 L -5.36086 -16.502 L -5.32595 -16.4653 L -5.29103 -16.4286 L -5.2561 -16.3918 L -5.22117 -16.355 L -5.18622 -16.3182 L -5.15127 -16.2814 L -5.1163 -16.2445 L -5.08133 -16.2076 L -5.04635 -16.1707 L -5.01136 -16.1338 L -4.97636 -16.0968 L -4.94135 -16.0598 L -4.90634 -16.0227 L -4.87131 -15.9857 L -4.83628 -15.9486 L -4.80124 -15.9115 L -4.76618 -15.8743 L -4.73112 -15.8371 L -4.69605 -15.7999 L -4.66097 -15.7627 L -4.62588 -15.7254 L -4.59079 -15.6881 L -4.55568 -15.6507 L -4.52056 -15.6134 L -4.48544 -15.576 L -4.4503 -15.5385 L -4.41516 -15.5011 L -4.38 -15.4636 L -4.34484 -15.426 L -4.30967 -15.3885 L -4.27448 -15.3509 L -4.23929 -15.3132 L -4.20409 -15.2756 L -4.16888 -15.2379 L -4.13366 -15.2001 L -4.09843 -15.1623 L -4.06319 -15.1245 L -4.02794 -15.0867 L -3.99268 -15.0488 L -3.95741 -15.0109 L -3.92213 -14.9729 L -3.88684 -14.9349 L -3.85154 -14.8969 L -3.81623 -14.8588 L -3.78091 -14.8207 L -3.74558 -14.7825 L -3.71025 -14.7444 L -3.6749 -14.7061 L -3.63954 -14.6679 L -3.60417 -14.6295 L -3.56879 -14.5912 L -3.5334 -14.5528 L -3.498 -14.5144 L -3.46259 -14.4759 L -3.42718 -14.4374 L -3.39175 -14.3988 L -3.35631 -14.3602 L -3.32086 -14.3216 L -3.2854 -14.2829 L -3.24993 -14.2441 L -3.21445 -14.2054 L -3.17895 -14.1665 L -3.14345 -14.1277 L -3.10794 -14.0887 L -3.07242 -14.0498 L -3.03689 -14.0108 L -3.00135 -13.9717 L -2.96579 -13.9326 L -2.93023 -13.8934 L -2.89466 -13.8542 L -2.85907 -13.815 L -2.82348 -13.7757 L -2.78787 -13.7363 L -2.75226 -13.6969 L -2.71663 -13.6574 L -2.71663 -13.6574 L -2.69882 -13.7075 L -2.681 -13.7576 L -2.66316 -13.8076 L -2.64532 -13.8575 L -2.62747 -13.9074 L -2.60961 -13.9572 L -2.59174 -14.007 L -2.57386 -14.0567 L -2.55597 -14.1064 L -2.53807 -14.1561 L -2.52016 -14.2057 L -2.50225 -14.2552 L -2.48433 -14.3047 L -2.46639 -14.3542 L -2.44846 -14.4036 L -2.43051 -14.4529 L -2.41256 -14.5022 L -2.39459 -14.5515 L -2.37663 -14.6007 L -2.35865 -14.6499 L -2.34067 -14.6991 L -2.32268 -14.7482 L -2.30468 -14.7972 L -2.28668 -14.8462 L -2.26867 -14.8952 L -2.25065 -14.9441 L -2.23263 -14.993 L -2.2146 -15.0419 L -2.19657 -15.0907 L -2.17853 -15.1394 L -2.16048 -15.1882 L -2.14243 -15.2368 L -2.12437 -15.2855 L -2.10631 -15.3341 L -2.08824 -15.3827 L -2.07017 -15.4312 L -2.05209 -15.4797 L -2.03401 -15.5282 L -2.01592 -15.5766 L -1.99783 -15.625 L -1.97973 -15.6733 L -1.96163 -15.7216 L -1.94353 -15.7699 L -1.92541 -15.8181 L -1.9073 -15.8663 L -1.88918 -15.9145 L -1.87106 -15.9626 L -1.85293 -16.0107 L -1.8348 -16.0588 L -1.81666 -16.1068 L -1.79853 -16.1548 L -1.78038 -16.2028 L -1.76224 -16.2507 L -1.74409 -16.2986 L -1.72593 -16.3465 L -1.70778 -16.3943 L -1.68962 -16.4421 L -1.67145 -16.4899 L -1.65329 -16.5376 L -1.63512 -16.5853 L -1.61695 -16.633 L -1.59877 -16.6807 L -1.58059 -16.7283 L -1.56241 -16.7759 L -1.54423 -16.8234 L -1.52604 -16.8709 L -1.50785 -16.9184 L -1.48966 -16.9659 L -1.47146 -17.0133 L -1.45327 -17.0607 L -1.43507 -17.1081 L -1.41687 -17.1555 L -1.39866 -17.2028 L -1.38046 -17.2501 L -1.36225 -17.2974 L -1.34404 -17.3446 L -1.32582 -17.3918 L -1.30761 -17.439 L -1.28939 -17.4862 L -1.27117 -17.5333 L -1.26047 -17.5799 L -1.2149 -17.5831 L -1.16933 -17.5862 L -1.12375 -17.5891 L -1.07816 -17.592 L -1.03256 -17.5947 L -0.986955 -17.5973 L -0.941345 -17.5998 L -0.895728 -17.6022 L -0.850105 -17.6045 L -0.804476 -17.6066 L -0.758842 -17.6087 L -0.713203 -17.6106 L -0.667559 -17.6124 L -0.62191 -17.614 L -0.576258 -17.6156 L -0.530601 -17.617 L -0.484941 -17.6183 L -0.439278 -17.6195 L -0.393612 -17.6206 L -0.347943 -17.6216 L -0.302272 -17.6224 L -0.256598 -17.6231 L -0.210923 -17.6237 L -0.165247 -17.6242 L -0.11957 -17.6246 L -0.0738913 -17.6248 L 0.0738913 -17.6248 L 0.11957 -17.6246 L 0.165247 -17.6242 L 0.210923 -17.6237 L 0.256598 -17.6231 L 0.302272 -17.6224 L 0.347943 -17.6216 L 0.393612 -17.6206 L 0.439278 -17.6195 L 0.484941 -17.6183 L 0.530601 -17.617 L 0.576258 -17.6156 L 0.62191 -17.614 L 0.667559 -17.6124 L 0.713203 -17.6106 L 0.758842 -17.6087 L 0.804476 -17.6066 L 0.850105 -17.6045 L 0.895728 -17.6022 L 0.941345 -17.5998 L 0.986955 -17.5973 L 1.03256 -17.5947 L 1.07816 -17.592 L 1.12375 -17.5891 L 1.16933 -17.5862 L 1.2149 -17.5831 L 1.26047 -17.5799 L 1.27117 -17.5333 L 1.28939 -17.4862 L 1.30761 -17.439 L 1.32582 -17.3918 L 1.34404 -17.3446 L 1.36225 -17.2974 L 1.38046 -17.2501 L 1.39866 -17.2028 L 1.41687 -17.1555 L 1.43507 -17.1081 L 1.45327 -17.0607 L 1.47146 -17.0133 L 1.48966 -16.9659 L 1.50785 -16.9184 L 1.52604 -16.8709 L 1.54423 -16.8234 L 1.56241 -16.7759 L 1.58059 -16.7283 L 1.59877 -16.6807 L 1.61695 -16.633 L 1.63512 -16.5853 L 1.65329 -16.5376 L 1.67145 -16.4899 L 1.68962 -16.4421 L 1.70778 -16.3943 L 1.72593 -16.3465 L 1.74409 -16.2986 L 1.76224 -16.2507 L 1.78038 -16.2028 L 1.79853 -16.1548 L 1.81666 -16.1068 L 1.8348 -16.0588 L 1.85293 -16.0107 L 1.87106 -15.9626 L 1.88918 -15.9145 L 1.9073 -15.8663 L 1.92541 -15.8181 L 1.94353 -15.7699 L 1.96163 -15.7216 L 1.97973 -15.6733 L 1.99783 -15.625 L 2.01592 -15.5766 L 2.03401 -15.5282 L 2.05209 -15.4797 L 2.07017 -15.4312 L 2.08824 -15.3827 L 2.10631 -15.3341 L 2.12437 -15.2855 L 2.14243 -15.2368 L 2.16048 -15.1882 L 2.17853 -15.1394 L 2.19657 -15.0907 L 2.2146 -15.0419 L 2.23263 -14.993 L 2.25065 -14.9441 L 2.26867 -14.8952 L 2.28668 -14.8462 L 2.30468 -14.7972 L 2.32268 -14.7482 L 2.34067 -14.6991 L 2.35865 -14.6499 L 2.37663 -14.6007 L 2.39459 -14.5515 L 2.41256 -14.5022 L 2.43051 -14.4529 L 2.44846 -14.4036 L 2.46639 -14.3542 L 2.48433 -14.3047 L 2.50225 -14.2552 L 2.52016 -14.2057 L 2.53807 -14.1561 L 2.55597 -14.1064 L 2.57386 -14.0567 L 2.59174 -14.007 L 2.60961 -13.9572 L 2.62747 -13.9074 L 2.64532 -13.8575 L 2.66316 -13.8076 L 2.681 -13.7576 L 2.69882 -13.7075 L 2.71663 -13.6574 L 2.71663 -13.6574 L 2.75226 -13.6969 L 2.78787 -13.7363 L 2.82348 -13.7757 L 2.85907 -13.815 L 2.89466 -13.8542 L 2.93023 -13.8934 L 2.96579 -13.9326 L 3.00135 -13.9717 L 3.03689 -14.0108 L 3.07242 -14.0498 L 3.10794 -14.0887 L 3.14345 -14.1277 L 3.17895 -14.1665 L 3.21445 -14.2054 L 3.24993 -14.2441 L 3.2854 -14.2829 L 3.32086 -14.3216 L 3.35631 -14.3602 L 3.39175 -14.3988 L 3.42718 -14.4374 L 3.46259 -14.4759 L 3.498 -14.5144 L 3.5334 -14.5528 L 3.56879 -14.5912 L 3.60417 -14.6295 L 3.63954 -14.6679 L 3.6749 -14.7061 L 3.71025 -14.7444 L 3.74558 -14.7825 L 3.78091 -14.8207 L 3.81623 -14.8588 L 3.85154 -14.8969 L 3.88684 -14.9349 L 3.92213 -14.9729 L 3.95741 -15.0109 L 3.99268 -15.0488 L 4.02794 -15.0867 L 4.06319 -15.1245 L 4.09843 -15.1623 L 4.13366 -15.2001 L 4.16888 -15.2379 L 4.20409 -15.2756 L 4.23929 -15.3132 L 4.27448 -15.3509 L 4.30967 -15.3885 L 4.34484 -15.426 L 4.38 -15.4636 L 4.41516 -15.5011 L 4.4503 -15.5385 L 4.48544 -15.576 L 4.52056 -15.6134 L 4.55568 -15.6507 L 4.59079 -15.6881 L 4.62588 -15.7254 L 4.66097 -15.7627 L 4.69605 -15.7999 L 4.73112 -15.8371 L 4.76618 -15.8743 L 4.80124 -15.9115 L 4.83628 -15.9486 L 4.87131 -15.9857 L 4.90634 -16.0227 L 4.94135 -16.0598 L 4.97636 -16.0968 L 5.01136 -16.1338 L 5.04635 -16.1707 L 5.08133 -16.2076 L 5.1163 -16.2445 L 5.15127 -16.2814 L 5.18622 -16.3182 L 5.22117 -16.355 L 5.2561 -16.3918 L 5.29103 -16.4286 L 5.32595 -16.4653 L 5.36086 -16.502 L 5.39577 -16.5387 L 5.43066 -16.5753 L 5.46555 -16.6119 L 5.50042 -16.6485 L 5.53529 -16.6851 L 5.563 -16.724 L 5.60633 -16.7096 L 5.64962 -16.695 L 5.69287 -16.6803 L 5.73608 -16.6655 L 5.77925 -16.6506 L 5.82238 -16.6355 L 5.86548 -16.6204 L 5.90854 -16.6051 L 5.95155 -16.5897 L 5.99453 -16.5743 L 6.03746 -16.5587 L 6.08036 -16.543 L 6.12321 -16.5272 L 6.16602 -16.5112 L 6.2088 -16.4952 L 6.25153 -16.479 L 6.29421 -16.4628 L 6.33686 -16.4464 L 6.37946 -16.4299 L 6.42202 -16.4134 L 6.46454 -16.3967 L 6.50701 -16.3798 L 6.54944 -16.3629 L 6.59183 -16.3459 L 6.63417 -16.3288 L 6.67647 -16.3115 L 6.813 -16.255 L 6.85511 -16.2372 L 6.89717 -16.2194 L 6.93918 -16.2015 L 6.98115 -16.1835 L 7.02307 -16.1653 L 7.06494 -16.1471 L 7.10676 -16.1287 L 7.14854 -16.1102 L 7.19027 -16.0916 L 7.23195 -16.0729 L 7.27358 -16.0541 L 7.31517 -16.0352 L 7.3567 -16.0162 L 7.39818 -15.9971 L 7.43962 -15.9779 L 7.481 -15.9585 L 7.52234 -15.9391 L 7.56362 -15.9196 L 7.60486 -15.8999 L 7.64604 -15.8801 L 7.68717 -15.8603 L 7.72825 -15.8403 L 7.76928 -15.8202 L 7.81025 -15.8 L 7.85118 -15.7797 L 7.89205 -15.7593 L 7.88411 -15.7122 L 7.88291 -15.6617 L 7.88169 -15.6111 L 7.88046 -15.5606 L 7.87922 -15.51 L 7.87797 -15.4594 L 7.8767 -15.4087 L 7.87542 -15.3581 L 7.87413 -15.3074 L 7.87283 -15.2567 L 7.87151 -15.2059 L 7.87018 -15.1552 L 7.86883 -15.1044 L 7.86748 -15.0536 L 7.86611 -15.0027 L 7.86472 -14.9519 L 7.86332 -14.901 L 7.86191 -14.85 L 7.86048 -14.7991 L 7.85904 -14.7481 L 7.85759 -14.6971 L 7.85612 -14.6461 L 7.85463 -14.595 L 7.85313 -14.5439 L 7.85161 -14.4928 L 7.85008 -14.4417 L 7.84854 -14.3905 L 7.84698 -14.3393 L 7.8454 -14.2881 L 7.8438 -14.2368 L 7.84219 -14.1856 L 7.84057 -14.1342 L 7.83893 -14.0829 L 7.83727 -14.0315 L 7.83559 -13.9801 L 7.8339 -13.9287 L 7.83219 -13.8772 L 7.83046 -13.8257 L 7.82871 -13.7742 L 7.82695 -13.7226 L 7.82517 -13.671 L 7.82337 -13.6194 L 7.82155 -13.5678 L 7.81971 -13.5161 L 7.81785 -13.4644 L 7.81598 -13.4126 L 7.81408 -13.3608 L 7.81217 -13.309 L 7.81023 -13.2571 L 7.80828 -13.2052 L 7.80631 -13.1533 L 7.80431 -13.1014 L 7.80229 -13.0494 L 7.80026 -12.9973 L 7.7982 -12.9453 L 7.79612 -12.8932 L 7.79402 -12.8411 L 7.7919 -12.7889 L 7.78975 -12.7367 L 7.78758 -12.6844 L 7.78539 -12.6321 L 7.78318 -12.5798 L 7.78094 -12.5275 L 7.77868 -12.4751 L 7.77639 -12.4226 L 7.77408 -12.3702 L 7.77175 -12.3177 L 7.76939 -12.2651 L 7.76701 -12.2125 L 7.7646 -12.1599 L 7.76216 -12.1072 L 7.7597 -12.0545 L 7.75721 -12.0018 L 7.7547 -11.949 L 7.75215 -11.8961 L 7.74959 -11.8432 L 7.74699 -11.7903 L 7.74436 -11.7374 L 7.74171 -11.6844 L 7.73903 -11.6313 L 7.73632 -11.5782 L 7.73632 -11.5782 L 7.78433 -11.601 L 7.83232 -11.6238 L 7.88027 -11.6466 L 7.9282 -11.6692 L 7.9761 -11.6919 L 8.02397 -11.7145 L 8.07181 -11.7371 L 8.11962 -11.7596 L 8.1674 -11.7821 L 8.21516 -11.8045 L 8.26289 -11.8269 L 8.31059 -11.8493 L 8.35827 -11.8716 L 8.40592 -11.8939 L 8.45354 -11.9162 L 8.50113 -11.9384 L 8.5487 -11.9606 L 8.59624 -11.9827 L 8.64375 -12.0048 L 8.69124 -12.0269 L 8.73871 -12.0489 L 8.78614 -12.0709 L 8.83356 -12.0929 L 8.88094 -12.1148 L 8.9283 -12.1367 L 8.97564 -12.1585 L 9.02295 -12.1804 L 9.07024 -12.2022 L 9.1175 -12.2239 L 9.16474 -12.2456 L 9.21196 -12.2673 L 9.25915 -12.289 L 9.30632 -12.3106 L 9.35346 -12.3322 L 9.40058 -12.3538 L 9.44768 -12.3753 L 9.49475 -12.3968 L 9.5418 -12.4183 L 9.58883 -12.4398 L 9.63583 -12.4612 L 9.68282 -12.4826 L 9.72978 -12.5039 L 9.77671 -12.5253 L 9.82363 -12.5466 L 9.87052 -12.5679 L 9.9174 -12.5891 L 9.96425 -12.6103 L 10.0111 -12.6315 L 10.0579 -12.6527 L 10.1047 -12.6738 L 10.1514 -12.6949 L 10.1982 -12.716 L 10.2449 -12.7371 L 10.2916 -12.7581 L 10.3383 -12.7791 L 10.385 -12.8001 L 10.4316 -12.8211 L 10.4782 -12.842 L 10.5248 -12.8629 L 10.5714 -12.8838 L 10.618 -12.9047 L 10.6645 -12.9255 L 10.711 -12.9463 L 10.7575 -12.9671 L 10.804 -12.9879 L 10.8505 -13.0086 L 10.8969 -13.0294 L 10.9434 -13.0501 L 10.9898 -13.0707 L 11.0362 -13.0914 L 11.0825 -13.112 L 11.1289 -13.1326 L 11.1752 -13.1532 L 11.2215 -13.1738 L 11.2678 -13.1943 L 11.3141 -13.2149 L 11.3604 -13.2354 L 11.4066 -13.2559 L 11.4529 -13.2763 L 11.4991 -13.2968 L 11.5396 -13.3221 L 11.574 -13.2922 L 11.6085 -13.2621 L 11.6428 -13.232 L 11.677 -13.2018 L 11.7112 -13.1715 L 11.7453 -13.1411 L 11.7793 -13.1106 L 11.8133 -13.08 L 11.8471 -13.0494 L 11.8809 -13.0186 L 11.9146 -12.9878 L 11.9482 -12.9569 L 11.9818 -12.9258 L 12.0152 -12.8948 L 12.0486 -12.8636 L 12.0819 -12.8323 L 12.1151 -12.8009 L 12.1483 -12.7695 L 12.1813 -12.738 L 12.2143 -12.7064 L 12.2472 -12.6747 L 12.28 -12.6429 L 12.3127 -12.611 L 12.3454 -12.5791 L 12.3779 -12.547 L 12.4104 -12.5149 L 12.5149 -12.4104 L 12.547 -12.3779 L 12.5791 -12.3454 L 12.611 -12.3127 L 12.6429 -12.28 L 12.6747 -12.2472 L 12.7064 -12.2143 L 12.738 -12.1813 L 12.7695 -12.1483 L 12.8009 -12.1151 L 12.8323 -12.0819 L 12.8636 -12.0486 L 12.8948 -12.0152 L 12.9258 -11.9818 L 12.9569 -11.9482 L 12.9878 -11.9146 L 13.0186 -11.8809 L 13.0494 -11.8471 L 13.08 -11.8133 L 13.1106 -11.7793 L 13.1411 -11.7453 L 13.1715 -11.7112 L 13.2018 -11.677 L 13.232 -11.6428 L 13.2621 -11.6085 L 13.2922 -11.574 L 13.3221 -11.5396 L 13.2968 -11.4991 L 13.2763 -11.4529 L 13.2559 -11.4066 L 13.2354 -11.3604 L 13.2149 -11.3141 L 13.1943 -11.2678 L 13.1738 -11.2215 L 13.1532 -11.1752 L 13.1326 -11.1289 L 13.112 -11.0825 L 13.0914 -11.0362 L 13.0707 -10.9898 L 13.0501 -10.9434 L 13.0294 -10.8969 L 13.0086 -10.8505 L 12.9879 -10.804 L 12.9671 -10.7575 L 12.9463 -10.711 L 12.9255 -10.6645 L 12.9047 -10.618 L 12.8838 -10.5714 L 12.8629 -10.5248 L 12.842 -10.4782 L 12.8211 -10.4316 L 12.8001 -10.385 L 12.7791 -10.3383 L 12.7581 -10.2916 L 12.7371 -10.2449 L 12.716 -10.1982 L 12.6949 -10.1514 L 12.6738 -10.1047 L 12.6527 -10.0579 L 12.6315 -10.0111 L 12.6103 -9.96425 L 12.5891 -9.9174 L 12.5679 -9.87052 L 12.5466 -9.82363 L 12.5253 -9.77671 L 12.5039 -9.72978 L 12.4826 -9.68282 L 12.4612 -9.63583 L 12.4398 -9.58883 L 12.4183 -9.5418 L 12.3968 -9.49475 L 12.3753 -9.44768 L 12.3538 -9.40058 L 12.3322 -9.35346 L 12.3106 -9.30632 L 12.289 -9.25915 L 12.2673 -9.21196 L 12.2456 -9.16474 L 12.2239 -9.1175 L 12.2022 -9.07024 L 12.1804 -9.02295 L 12.1585 -8.97564 L 12.1367 -8.9283 L 12.1148 -8.88094 L 12.0929 -8.83356 L 12.0709 -8.78614 L 12.0489 -8.73871 L 12.0269 -8.69124 L 12.0048 -8.64375 L 11.9827 -8.59624 L 11.9606 -8.5487 L 11.9384 -8.50113 L 11.9162 -8.45354 L 11.8939 -8.40592 L 11.8716 -8.35827 L 11.8493 -8.31059 L 11.8269 -8.26289 L 11.8045 -8.21516 L 11.7821 -8.1674 L 11.7596 -8.11962 L 11.7371 -8.07181 L 11.7145 -8.02397 L 11.6919 -7.9761 L 11.6692 -7.9282 L 11.6466 -7.88027 L 11.6238 -7.83232 L 11.601 -7.78433 L 11.5782 -7.73632 L 11.5782 -7.73632 L 11.6313 -7.73903 L 11.6844 -7.74171 L 11.7374 -7.74436 L 11.7903 -7.74699 L 11.8432 -7.74959 L 11.8961 -7.75215 L 11.949 -7.7547 L 12.0018 -7.75721 L 12.0545 -7.7597 L 12.1072 -7.76216 L 12.1599 -7.7646 L 12.2125 -7.76701 L 12.2651 -7.76939 L 12.3177 -7.77175 L 12.3702 -7.77408 L 12.4226 -7.77639 L 12.4751 -7.77868 L 12.5275 -7.78094 L 12.5798 -7.78318 L 12.6321 -7.78539 L 12.6844 -7.78758 L 12.7367 -7.78975 L 12.7889 -7.7919 L 12.8411 -7.79402 L 12.8932 -7.79612 L 12.9453 -7.7982 L 12.9973 -7.80026 L 13.0494 -7.80229 L 13.1014 -7.80431 L 13.1533 -7.80631 L 13.2052 -7.80828 L 13.2571 -7.81023 L 13.309 -7.81217 L 13.3608 -7.81408 L 13.4126 -7.81598 L 13.4644 -7.81785 L 13.5161 -7.81971 L 13.5678 -7.82155 L 13.6194 -7.82337 L 13.671 -7.82517 L 13.7226 -7.82695 L 13.7742 -7.82871 L 13.8257 -7.83046 L 13.8772 -7.83219 L 13.9287 -7.8339 L 13.9801 -7.83559 L 14.0315 -7.83727 L 14.0829 -7.83893 L 14.1342 -7.84057 L 14.1856 -7.84219 L 14.2368 -7.8438 L 14.2881 -7.8454 L 14.3393 -7.84698 L 14.3905 -7.84854 L 14.4417 -7.85008 L 14.4928 -7.85161 L 14.5439 -7.85313 L 14.595 -7.85463 L 14.6461 -7.85612 L 14.6971 -7.85759 L 14.7481 -7.85904 L 14.7991 -7.86048 L 14.85 -7.86191 L 14.901 -7.86332 L 14.9519 -7.86472 L 15.0027 -7.86611 L 15.0536 -7.86748 L 15.1044 -7.86883 L 15.1552 -7.87018 L 15.2059 -7.87151 L 15.2567 -7.87283 L 15.3074 -7.87413 L 15.3581 -7.87542 L 15.4087 -7.8767 L 15.4594 -7.87797 L 15.51 -7.87922 L 15.5606 -7.88046 L 15.6111 -7.88169 L 15.6617 -7.88291 L 15.7122 -7.88411 L 15.7593 -7.89205 L 15.7797 -7.85118 L 15.8 -7.81025 L 15.8202 -7.76928 L 15.8403 -7.72825 L 15.8603 -7.68717 L 15.8801 -7.64604 L 15.8999 -7.60486 L 15.9196 -7.56362 L 15.9391 -7.52234 L 15.9585 -7.481 L 15.9779 -7.43962 L 15.9971 -7.39818 L 16.0162 -7.3567 L 16.0352 -7.31517 L 16.0541 -7.27358 L 16.0729 -7.23195 L 16.0916 -7.19027 L 16.1102 -7.14854 L 16.1287 -7.10676 L 16.1471 -7.06494 L 16.1653 -7.02307 L 16.1835 -6.98115 L 16.2015 -6.93918 L 16.2194 -6.89717 L 16.2372 -6.85511 L 16.255 -6.813 L 16.3115 -6.67647 L 16.3288 -6.63417 L 16.3459 -6.59183 L 16.3629 -6.54944 L 16.3798 -6.50701 L 16.3967 -6.46454 L 16.4134 -6.42202 L 16.4299 -6.37946 L 16.4464 -6.33686 L 16.4628 -6.29421 L 16.479 -6.25153 L 16.4952 -6.2088 L 16.5112 -6.16602 L 16.5272 -6.12321 L 16.543 -6.08036 L 16.5587 -6.03746 L 16.5743 -5.99453 L 16.5897 -5.95155 L 16.6051 -5.90854 L 16.6204 -5.86548 L 16.6355 -5.82238 L 16.6506 -5.77925 L 16.6655 -5.73608 L 16.6803 -5.69287 L 16.695 -5.64962 L 16.7096 -5.60633 L 16.724 -5.563 L 16.6851 -5.53529 L 16.6485 -5.50042 L 16.6119 -5.46555 L 16.5753 -5.43066 L 16.5387 -5.39577 L 16.502 -5.36086 L 16.4653 -5.32595 L 16.4286 -5.29103 L 16.3918 -5.2561 L 16.355 -5.22117 L 16.3182 -5.18622 L 16.2814 -5.15127 L 16.2445 -5.1163 L 16.2076 -5.08133 L 16.1707 -5.04635 L 16.1338 -5.01136 L 16.0968 -4.97636 L 16.0598 -4.94135 L 16.0227 -4.90634 L 15.9857 -4.87131 L 15.9486 -4.83628 L 15.9115 -4.80124 L 15.8743 -4.76618 L 15.8371 -4.73112 L 15.7999 -4.69605 L 15.7627 -4.66097 L 15.7254 -4.62588 L 15.6881 -4.59079 L 15.6507 -4.55568 L 15.6134 -4.52056 L 15.576 -4.48544 L 15.5385 -4.4503 L 15.5011 -4.41516 L 15.4636 -4.38 L 15.426 -4.34484 L 15.3885 -4.30967 L 15.3509 -4.27448 L 15.3132 -4.23929 L 15.2756 -4.20409 L 15.2379 -4.16888 L 15.2001 -4.13366 L 15.1623 -4.09843 L 15.1245 -4.06319 L 15.0867 -4.02794 L 15.0488 -3.99268 L 15.0109 -3.95741 L 14.9729 -3.92213 L 14.9349 -3.88684 L 14.8969 -3.85154 L 14.8588 -3.81623 L 14.8207 -3.78091 L 14.7825 -3.74558 L 14.7444 -3.71025 L 14.7061 -3.6749 L 14.6679 -3.63954 L 14.6295 -3.60417 L 14.5912 -3.56879 L 14.5528 -3.5334 L 14.5144 -3.498 L 14.4759 -3.46259 L 14.4374 -3.42718 L 14.3988 -3.39175 L 14.3602 -3.35631 L 14.3216 -3.32086 L 14.2829 -3.2854 L 14.2441 -3.24993 L 14.2054 -3.21445 L 14.1665 -3.17895 L 14.1277 -3.14345 L 14.0887 -3.10794 L 14.0498 -3.07242 L 14.0108 -3.03689 L 13.9717 -3.00135 L 13.9326 -2.96579 L 13.8934 -2.93023 L 13.8542 -2.89466 L 13.815 -2.85907 L 13.7757 -2.82348 L 13.7363 -2.78787 L 13.6969 -2.75226 L 13.6574 -2.71663 L 13.6574 -2.71663 L 13.7075 -2.69882 L 13.7576 -2.681 L 13.8076 -2.66316 L 13.8575 -2.64532 L 13.9074 -2.62747 L 13.9572 -2.60961 L 14.007 -2.59174 L 14.0567 -2.57386 L 14.1064 -2.55597 L 14.1561 -2.53807 L 14.2057 -2.52016 L 14.2552 -2.50225 L 14.3047 -2.48433 L 14.3542 -2.46639 L 14.4036 -2.44846 L 14.4529 -2.43051 L 14.5022 -2.41256 L 14.5515 -2.39459 L 14.6007 -2.37663 L 14.6499 -2.35865 L 14.6991 -2.34067 L 14.7482 -2.32268 L 14.7972 -2.30468 L 14.8462 -2.28668 L 14.8952 -2.26867 L 14.9441 -2.25065 L 14.993 -2.23263 L 15.0419 -2.2146 L 15.0907 -2.19657 L 15.1394 -2.17853 L 15.1882 -2.16048 L 15.2368 -2.14243 L 15.2855 -2.12437 L 15.3341 -2.10631 L 15.3827 -2.08824 L 15.4312 -2.07017 L 15.4797 -2.05209 L 15.5282 -2.03401 L 15.5766 -2.01592 L 15.625 -1.99783 L 15.6733 -1.97973 L 15.7216 -1.96163 L 15.7699 -1.94353 L 15.8181 -1.92541 L 15.8663 -1.9073 L 15.9145 -1.88918 L 15.9626 -1.87106 L 16.0107 -1.85293 L 16.0588 -1.8348 L 16.1068 -1.81666 L 16.1548 -1.79853 L 16.2028 -1.78038 L 16.2507 -1.76224 L 16.2986 -1.74409 L 16.3465 -1.72593 L 16.3943 -1.70778 L 16.4421 -1.68962 L 16.4899 -1.67145 L 16.5376 -1.65329 L 16.5853 -1.63512 L 16.633 -1.61695 L 16.6807 -1.59877 L 16.7283 -1.58059 L 16.7759 -1.56241 L 16.8234 -1.54423 L 16.8709 -1.52604 L 16.9184 -1.50785 L 16.9659 -1.48966 L 17.0133 -1.47146 L 17.0607 -1.45327 L 17.1081 -1.43507 L 17.1555 -1.41687 L 17.2028 -1.39866 L 17.2501 -1.38046 L 17.2974 -1.36225 L 17.3446 -1.34404 L 17.3918 -1.32582 L 17.439 -1.30761 L 17.4862 -1.28939 L 17.5333 -1.27117 L 17.5799 -1.26047 L 17.5831 -1.2149 L 17.5862 -1.16933 L 17.5891 -1.12375 L 17.592 -1.07816 L 17.5947 -1.03256 L 17.5973 -0.986955 L 17.5998 -0.941345 L 17.6022 -0.895728 L 17.6045 -0.850105 L 17.6066 -0.804476 L 17.6087 -0.758842 L 17.6106 -0.713203 L 17.6124 -0.667559 L 17.614 -0.62191 L 17.6156 -0.576258 L 17.617 -0.530601 L 17.6183 -0.484941 L 17.6195 -0.439278 L 17.6206 -0.393612 L 17.6216 -0.347943 L 17.6224 -0.302272 L 17.6231 -0.256598 L 17.6237 -0.210923 L 17.6242 -0.165247 L 17.6246 -0.11957 L 17.6248 -0.0738913Z"
id="path1" />
</g>
</svg>
