<?xml version="1.0" encoding="UTF-8" standalone="no"?>
<svg version="1.1">
<g
style="fill:none;stroke:#000000;stroke-opacity:1;stroke-width:0.1">
<path d="M 17.8748 0.0745008 L 17.8746 0.119078 L 17.8743 0.163655 L 17.8738 0.208231 L 17.8732 0.252806 L 17.8725 0.297379 L 17.8717 0.34195 L 17.8708 0.386519 L 17.8698 0.431086 L 17.8687 0.47565 L 17.8674 0.520211 L 17.8661 0.564768 L 17.8646 0.609323 L 17.863 0.653873 L 17.8614 0.69842 L 17.8596 0.742962 L 17.8576 0.787499 L 17.8556 0.832032 L 17.8535 0.876559 L 17.8513 0.921081 L 17.8489 0.965597 L 17.8464 1.01011 L 17.8439 1.05461 L 17.8412 1.09911 L 17.8384 1.1436 L 17.8355 1.18808 L 17.8325 1.23256 L 17.7871 1.24222 L 17.7412 1.25896 L 17.6953 1.27569 L 17.6494 1.29243 L 17.6035 1.30916 L 17.5575 1.32589 L 17.5116 1.34262 L 17.4656 1.35935 L 17.4195 1.37608 L 17.3735 1.3928 L 17.3274 1.40952 L 17.2813 1.42624 L 17.2352 1.44296 L 17.189 1.45968 L 17.1429 1.47639 L 17.0967 1.4931 L 17.0505 1.50981 L 17.0042 1.52652 L 16.9579 1.54322 L 16.9116 1.55993 L 16.8653 1.57663 L 16.819 1.59333 L 16.7726 1.61002 L 16.7262 1.62671 L 16.6798 1.6434 L 16.6333 1.66009 L 16.5868 1.67678 L 16.5403 1.69346 L 16.4938 1.71014 L 16.4472 1.72682 L 16.4007 1.74349 L 16.354 1.76016 L 16.3074 1.77683 L 16.2607 1.79349 L 16.214 1.81016 L 16.1673 1.82682 L 16.1205 1.84347 L 16.0738 1.86012 L 16.0269 1.87677 L 15.9801 1.89342 L 15.9332 1.91006 L 15.8863 1.9267 L 15.8394 1.94333 L 15.7924 1.95996 L 15.7454 1.97659 L 15.6984 1.99321 L 15.6513 2.00983 L 15.6042 2.02644 L 15.5571 2.04305 L 15.5099 2.05966 L 15.4627 2.07626 L 15.4155 2.09286 L 15.3683 2.10945 L 15.321 2.12604 L 15.2736 2.14262 L 15.2263 2.1592 L 15.1789 2.17578 L 15.1315 2.19235 L 15.084 2.20891 L 15.0365 2.22547 L 14.989 2.24202 L 14.9414 2.25857 L 14.8938 2.27511 L 14.8462 2.29165 L 14.7985 2.30818 L 14.7508 2.32471 L 14.703 2.34123 L 14.6552 2.35774 L 14.6074 2.37425 L 14.5595 2.39075 L 14.5116 2.40725 L 14.4637 2.42374 L 14.4157 2.44022 L 14.3677 2.45669 L 14.3196 2.47316 L 14.2715 2.48962 L 14.2234 2.50608 L 14.1752 2.52253 L 14.127 2.53897 L 14.0787 2.5554 L 14.0304 2.57182 L 13.982 2.58824 L 13.9336 2.60465 L 13.9336 2.60465 L 13.9728 2.63743 L 14.012 2.67021 L 14.0511 2.70298 L 14.0902 2.73573 L 14.1292 2.76849 L 14.1682 2.80123 L 14.2072 2.83396 L 14.2461 2.86669 L 14.2849 2.89941 L 14.3238 2.93212 L 14.3625 2.96482 L 14.4013 2.99752 L 14.44 3.0302 L 14.4787 3.06288 L 14.5173 3.09555 L 14.5559 3.12821 L 14.5945 3.16087 L 14.633 3.19351 L 14.6715 3.22615 L 14.7099 3.25878 L 14.7483 3.2914 L 14.7867 3.32402 L 14.8251 3.35662 L 14.8634 3.38922 L 14.9016 3.42181 L 14.9399 3.4544 L 14.9781 3.48697 L 15.0162 3.51954 L 15.0544 3.5521 L 15.0925 3.58465 L 15.1306 3.61719 L 15.1686 3.64973 L 15.2066 3.68226 L 15.2446 3.71478 L 15.2825 3.74729 L 15.3204 3.77979 L 15.3583 3.81229 L 15.3962 3.84478 L 15.434 3.87726 L 15.4718 3.90974 L 15.5095 3.9422 L 15.5473 3.97466 L 15.585 4.00712 L 15.6226 4.03956 L 15.6603 4.072 L 15.6979 4.10443 L 15.7355 4.13685 L 15.773 4.16926 L 15.8106 4.20167 L 15.8481 4.23407 L 15.8855 4.26646 L 15.923 4.29885 L 15.9604 4.33122 L 15.9978 4.36359 L 16.0352 4.39596 L 16.0725 4.42831 L 16.1098 4.46066 L 16.1471 4.493 L 16.1844 4.52534 L 16.2216 4.55766 L 16.2588 4.58998 L 16.296 4.6223 L 16.3331 4.6546 L 16.3703 4.6869 L 16.4074 4.71919 L 16.4445 4.75148 L 16.4815 4.78376 L 16.5186 4.81603 L 16.5556 4.84829 L 16.5926 4.88055 L 16.6296 4.9128 L 16.6665 4.94504 L 16.7034 4.97728 L 16.7403 5.00951 L 16.7772 5.04173 L 16.8141 5.07395 L 16.8509 5.10616 L 16.8877 5.13836 L 16.9245 5.17056 L 16.9612 5.20274 L 16.998 5.23493 L 17.0347 5.2671 L 17.0735 5.2925 L 17.0603 5.33506 L 17.0469 5.37759 L 17.0334 5.42009 L 17.0199 5.46255 L 17.0062 5.50498 L 16.9924 5.54737 L 16.9785 5.58973 L 16.9645 5.63206 L 16.9504 5.67435 L 16.9362 5.7166 L 16.9219 5.75882 L 16.9075 5.80101 L 16.893 5.84315 L 16.8784 5.88527 L 16.8636 5.92734 L 16.8488 5.96938 L 16.8339 6.01138 L 16.8188 6.05334 L 16.8037 6.09527 L 16.7884 6.13715 L 16.7731 6.179 L 16.7576 6.22081 L 16.742 6.26259 L 16.7264 6.30432 L 16.7106 6.34601 L 16.6947 6.38767 L 16.6409 6.52661 L 16.6246 6.56809 L 16.6081 6.60953 L 16.5916 6.65093 L 16.575 6.69228 L 16.5582 6.7336 L 16.5414 6.77487 L 16.5244 6.8161 L 16.5074 6.85729 L 16.4902 6.89844 L 16.473 6.93954 L 16.4556 6.9806 L 16.4381 7.02162 L 16.4206 7.06259 L 16.4029 7.10352 L 16.3851 7.14441 L 16.3673 7.18525 L 16.3493 7.22604 L 16.3312 7.26679 L 16.3131 7.3075 L 16.2948 7.34816 L 16.2764 7.38877 L 16.2579 7.42934 L 16.2394 7.46986 L 16.2207 7.51034 L 16.2019 7.55077 L 16.183 7.59115 L 16.1372 7.58378 L 16.0884 7.58282 L 16.0396 7.58184 L 15.9907 7.58086 L 15.9418 7.57987 L 15.8929 7.57887 L 15.844 7.57786 L 15.7951 7.57684 L 15.7461 7.57581 L 15.6971 7.57477 L 15.6481 7.57372 L 15.5991 7.57266 L 15.5501 7.57159 L 15.501 7.5705 L 15.4519 7.56941 L 15.4028 7.56831 L 15.3537 7.56719 L 15.3045 7.56606 L 15.2553 7.56493 L 15.2061 7.56378 L 15.1569 7.56262 L 15.1077 7.56145 L 15.0584 7.56026 L 15.0091 7.55907 L 14.9598 7.55786 L 14.9104 7.55664 L 14.8611 7.55541 L 14.8117 7.55417 L 14.7622 7.55291 L 14.7128 7.55164 L 14.6633 7.55036 L 14.6138 7.54906 L 14.5643 7.54776 L 14.5148 7.54644 L 14.4652 7.5451 L 14.4156 7.54376 L 14.366 7.5424 L 14.3164 7.54102 L 14.2667 7.53963 L 14.217 7.53823 L 14.1673 7.53681 L 14.1175 7.53538 L 14.0678 7.53394 L 14.018 7.53248 L 13.9681 7.53101 L 13.9183 7.52952 L 13.8684 7.52801 L 13.8185 7.52649 L 13.7685 7.52496 L 13.7185 7.52341 L 13.6685 7.52184 L 13.6185 7.52026 L 13.5684 7.51866 L 13.5184 7.51704 L 13.4682 7.51541 L 13.4181 7.51376 L 13.3679 7.5121 L 13.3177 7.51042 L 13.2675 7.50872 L 13.2172 7.507 L 13.1669 7.50526 L 13.1166 7.50351 L 13.0662 7.50174 L 13.0158 7.49995 L 12.9654 7.49814 L 12.9149 7.49632 L 12.8644 7.49447 L 12.8139 7.49261 L 12.7633 7.49072 L 12.7127 7.48882 L 12.6621 7.4869 L 12.6114 7.48495 L 12.5607 7.48299 L 12.51 7.48101 L 12.4592 7.479 L 12.4084 7.47697 L 12.3576 7.47493 L 12.3067 7.47286 L 12.2558 7.47077 L 12.2049 7.46865 L 12.1539 7.46652 L 12.1029 7.46436 L 12.0518 7.46218 L 12.0518 7.46218 L 12.0765 7.50691 L 12.1012 7.55161 L 12.1258 7.5963 L 12.1504 7.64096 L 12.175 7.6856 L 12.1995 7.73021 L 12.224 7.77481 L 12.2485 7.81938 L 12.2729 7.86393 L 12.2973 7.90846 L 12.3217 7.95296 L 12.346 7.99745 L 12.3703 8.04191 L 12.3945 8.08635 L 12.4187 8.13077 L 12.4429 8.17517 L 12.4671 8.21955 L 12.4912 8.26391 L 12.5153 8.30824 L 12.5394 8.35256 L 12.5634 8.39686 L 12.5874 8.44113 L 12.6114 8.48539 L 12.6353 8.52962 L 12.6593 8.57384 L 12.6831 8.61803 L 12.707 8.66221 L 12.7308 8.70637 L 12.7546 8.7505 L 12.7784 8.79462 L 12.8021 8.83872 L 12.8259 8.8828 L 12.8496 8.92686 L 12.8732 8.9709 L 12.8969 9.01493 L 12.9205 9.05893 L 12.944 9.10292 L 12.9676 9.14689 L 12.9911 9.19084 L 13.0146 9.23477 L 13.0381 9.27869 L 13.0616 9.32258 L 13.085 9.36646 L 13.1084 9.41033 L 13.1318 9.45417 L 13.1552 9.498 L 13.1785 9.54181 L 13.2018 9.5856 L 13.2251 9.62937 L 13.2484 9.67313 L 13.2716 9.71687 L 13.2948 9.7606 L 13.318 9.80431 L 13.3412 9.848 L 13.3643 9.89167 L 13.3875 9.93533 L 13.4106 9.97898 L 13.4337 10.0226 L 13.4567 10.0662 L 13.4798 10.1098 L 13.5028 10.1534 L 13.5258 10.197 L 13.5488 10.2405 L 13.5717 10.284 L 13.5947 10.3276 L 13.6176 10.3711 L 13.6405 10.4145 L 13.6634 10.458 L 13.6862 10.5015 L 13.7091 10.5449 L 13.7319 10.5883 L 13.7547 10.6317 L 13.7775 10.6751 L 13.8002 10.7185 L 13.823 10.7619 L 13.8457 10.8053 L 13.8684 10.8486 L 13.8911 10.8919 L 13.9138 10.9352 L 13.9364 10.9785 L 13.9591 11.0218 L 13.9817 11.0651 L 14.0087 11.1028 L 13.981 11.1377 L 13.9532 11.1725 L 13.9253 11.2073 L 13.8973 11.242 L 13.8692 11.2766 L 13.841 11.3111 L 13.8128 11.3456 L 13.7844 11.38 L 13.756 11.4144 L 13.7275 11.4486 L 13.6989 11.4828 L 13.6702 11.517 L 13.6415 11.551 L 13.6126 11.585 L 13.5837 11.6189 L 13.5547 11.6528 L 13.5255 11.6865 L 13.4964 11.7202 L 13.4671 11.7539 L 13.4377 11.7874 L 13.4083 11.8209 L 13.3788 11.8543 L 13.3492 11.8876 L 13.3195 11.9209 L 13.2897 11.954 L 13.2599 11.9871 L 13.1595 12.0973 L 13.1293 12.13 L 13.099 12.1627 L 13.0686 12.1954 L 13.0381 12.2279 L 13.0076 12.2604 L 12.977 12.2928 L 12.9463 12.3251 L 12.9155 12.3574 L 12.8847 12.3896 L 12.8537 12.4216 L 12.8227 12.4537 L 12.7916 12.4856 L 12.7604 12.5175 L 12.7292 12.5493 L 12.6978 12.581 L 12.6664 12.6126 L 12.6349 12.6441 L 12.6034 12.6756 L 12.5717 12.707 L 12.54 12.7383 L 12.5082 12.7695 L 12.4763 12.8007 L 12.4443 12.8318 L 12.4123 12.8628 L 12.3802 12.8937 L 12.348 12.9245 L 12.3079 12.9011 L 12.2628 12.8826 L 12.2176 12.864 L 12.1724 12.8455 L 12.1272 12.8269 L 12.0819 12.8083 L 12.0367 12.7897 L 11.9914 12.771 L 11.9461 12.7524 L 11.9008 12.7337 L 11.8555 12.715 L 11.8102 12.6963 L 11.7648 12.6776 L 11.7195 12.6589 L 11.6741 12.6401 L 11.6287 12.6214 L 11.5833 12.6026 L 11.5379 12.5838 L 11.4924 12.5649 L 11.4469 12.5461 L 11.4015 12.5272 L 11.356 12.5084 L 11.3104 12.4894 L 11.2649 12.4705 L 11.2194 12.4516 L 11.1738 12.4326 L 11.1282 12.4136 L 11.0826 12.3946 L 11.037 12.3756 L 10.9913 12.3566 L 10.9457 12.3375 L 10.9 12.3184 L 10.8543 12.2993 L 10.8086 12.2802 L 10.7628 12.261 L 10.7171 12.2419 L 10.6713 12.2227 L 10.6255 12.2035 L 10.5797 12.1842 L 10.5338 12.165 L 10.488 12.1457 L 10.4421 12.1264 L 10.3962 12.107 L 10.3503 12.0877 L 10.3044 12.0683 L 10.2584 12.0489 L 10.2124 12.0295 L 10.1664 12.01 L 10.1204 11.9906 L 10.0744 11.9711 L 10.0283 11.9516 L 9.98225 11.932 L 9.93615 11.9124 L 9.89002 11.8928 L 9.84388 11.8732 L 9.79771 11.8535 L 9.75152 11.8339 L 9.70531 11.8142 L 9.65908 11.7944 L 9.61282 11.7747 L 9.56654 11.7549 L 9.52024 11.7351 L 9.47392 11.7152 L 9.42757 11.6953 L 9.3812 11.6754 L 9.3348 11.6555 L 9.28839 11.6355 L 9.24194 11.6156 L 9.19548 11.5955 L 9.14899 11.5755 L 9.10247 11.5554 L 9.05594 11.5353 L 9.00937 11.5151 L 8.96278 11.495 L 8.91617 11.4748 L 8.86953 11.4545 L 8.82287 11.4342 L 8.77618 11.4139 L 8.72947 11.3936 L 8.68272 11.3732 L 8.63596 11.3528 L 8.58917 11.3324 L 8.54235 11.3119 L 8.54235 11.3119 L 8.54923 11.3625 L 8.55609 11.4131 L 8.56292 11.4637 L 8.56972 11.5142 L 8.5765 11.5647 L 8.58326 11.6152 L 8.58998 11.6656 L 8.59669 11.716 L 8.60337 11.7664 L 8.61003 11.8167 L 8.61666 11.867 L 8.62327 11.9173 L 8.62986 11.9675 L 8.63642 12.0177 L 8.64296 12.0679 L 8.64948 12.118 L 8.65598 12.1681 L 8.66245 12.2182 L 8.6689 12.2683 L 8.67534 12.3183 L 8.68175 12.3683 L 8.68814 12.4182 L 8.6945 12.4681 L 8.70085 12.518 L 8.70718 12.5679 L 8.71349 12.6178 L 8.71978 12.6676 L 8.72604 12.7174 L 8.73229 12.7671 L 8.73852 12.8168 L 8.74473 12.8665 L 8.75093 12.9162 L 8.7571 12.9658 L 8.76325 13.0155 L 8.76939 13.0651 L 8.77551 13.1146 L 8.78161 13.1642 L 8.78769 13.2137 L 8.79376 13.2631 L 8.79981 13.3126 L 8.80584 13.362 L 8.81186 13.4114 L 8.81785 13.4608 L 8.82384 13.5102 L 8.8298 13.5595 L 8.83575 13.6088 L 8.84168 13.6581 L 8.8476 13.7073 L 8.8535 13.7566 L 8.85939 13.8058 L 8.86526 13.855 L 8.87111 13.9041 L 8.87695 13.9533 L 8.88278 14.0024 L 8.88859 14.0515 L 8.89438 14.1005 L 8.90017 14.1496 L 8.90593 14.1986 L 8.91168 14.2476 L 8.91742 14.2966 L 8.92315 14.3455 L 8.92886 14.3945 L 8.93456 14.4434 L 8.94024 14.4922 L 8.94591 14.5411 L 8.95157 14.59 L 8.95721 14.6388 L 8.96284 14.6876 L 8.96846 14.7364 L 8.97407 14.7851 L 8.97966 14.8339 L 8.98524 14.8826 L 8.99081 14.9313 L 8.99636 14.98 L 9.00191 15.0286 L 9.00744 15.0772 L 9.01296 15.1259 L 9.01847 15.1745 L 9.02396 15.223 L 9.02945 15.2716 L 9.03492 15.3201 L 9.04038 15.3687 L 9.05195 15.4136 L 9.01348 15.4361 L 8.97496 15.4585 L 8.93638 15.4809 L 8.89774 15.5031 L 8.85905 15.5252 L 8.82031 15.5473 L 8.78151 15.5692 L 8.74265 15.5911 L 8.70374 15.6128 L 8.66478 15.6345 L 8.62576 15.656 L 8.58669 15.6775 L 8.54756 15.6989 L 8.50839 15.7201 L 8.46916 15.7413 L 8.42987 15.7624 L 8.39054 15.7834 L 8.35115 15.8042 L 8.31171 15.825 L 8.27222 15.8457 L 8.23267 15.8663 L 8.19308 15.8868 L 8.15343 15.9071 L 8.11374 15.9274 L 8.07399 15.9476 L 8.03419 15.9677 L 7.90081 16.0341 L 7.8608 16.0538 L 7.82074 16.0733 L 7.78063 16.0928 L 7.74047 16.1121 L 7.70027 16.1314 L 7.66001 16.1505 L 7.61971 16.1696 L 7.57936 16.1885 L 7.53897 16.2074 L 7.49852 16.2261 L 7.45804 16.2448 L 7.4175 16.2633 L 7.37692 16.2818 L 7.33629 16.3001 L 7.29562 16.3184 L 7.2549 16.3365 L 7.21413 16.3546 L 7.17332 16.3725 L 7.13247 16.3903 L 7.09157 16.4081 L 7.05063 16.4257 L 7.00964 16.4433 L 6.96862 16.4607 L 6.92754 16.478 L 6.88643 16.4952 L 6.84527 16.5124 L 6.8164 16.4761 L 6.78097 16.4425 L 6.74554 16.4088 L 6.71009 16.3752 L 6.67464 16.3415 L 6.63918 16.3079 L 6.60371 16.2742 L 6.56823 16.2404 L 6.53274 16.2067 L 6.49724 16.1729 L 6.46174 16.1391 L 6.42622 16.1053 L 6.3907 16.0715 L 6.35517 16.0376 L 6.31962 16.0037 L 6.28407 15.9698 L 6.24851 15.9359 L 6.21294 15.902 L 6.17737 15.868 L 6.14178 15.834 L 6.10618 15.8 L 6.07058 15.7659 L 6.03496 15.7319 L 5.99934 15.6978 L 5.9637 15.6637 L 5.92806 15.6295 L 5.8924 15.5953 L 5.85674 15.5611 L 5.82107 15.5269 L 5.78539 15.4927 L 5.74969 15.4584 L 5.71399 15.4241 L 5.67828 15.3898 L 5.64256 15.3554 L 5.60683 15.3211 L 5.57109 15.2867 L 5.53534 15.2522 L 5.49957 15.2178 L 5.4638 15.1833 L 5.42802 15.1488 L 5.39223 15.1142 L 5.35643 15.0796 L 5.32061 15.045 L 5.28479 15.0104 L 5.24896 14.9757 L 5.21312 14.9411 L 5.17726 14.9063 L 5.1414 14.8716 L 5.10552 14.8368 L 5.06964 14.802 L 5.03374 14.7671 L 4.99783 14.7323 L 4.96192 14.6974 L 4.92599 14.6624 L 4.89005 14.6275 L 4.8541 14.5924 L 4.81814 14.5574 L 4.78217 14.5223 L 4.74618 14.4872 L 4.71019 14.4521 L 4.67418 14.4169 L 4.63817 14.3817 L 4.60214 14.3465 L 4.5661 14.3112 L 4.53005 14.2759 L 4.49399 14.2406 L 4.45792 14.2052 L 4.42183 14.1698 L 4.38574 14.1343 L 4.34963 14.0988 L 4.31351 14.0633 L 4.27738 14.0277 L 4.24124 13.9921 L 4.20509 13.9565 L 4.16892 13.9208 L 4.13274 13.8851 L 4.09656 13.8493 L 4.06036 13.8135 L 4.02414 13.7777 L 3.98792 13.7418 L 3.95168 13.7059 L 3.91543 13.6699 L 3.87917 13.6339 L 3.87917 13.6339 L 3.8673 13.6836 L 3.85541 13.7332 L 3.84352 13.7829 L 3.83161 13.8324 L 3.81969 13.882 L 3.80776 13.9315 L 3.79581 13.9809 L 3.78386 14.0303 L 3.7719 14.0797 L 3.75992 14.1291 L 3.74794 14.1784 L 3.73594 14.2276 L 3.72394 14.2768 L 3.71192 14.326 L 3.6999 14.3752 L 3.68786 14.4243 L 3.67582 14.4733 L 3.66377 14.5224 L 3.65171 14.5714 L 3.63963 14.6203 L 3.62755 14.6693 L 3.61547 14.7182 L 3.60337 14.767 L 3.59126 14.8158 L 3.57915 14.8646 L 3.56703 14.9134 L 3.5549 14.9621 L 3.54276 15.0108 L 3.53061 15.0594 L 3.51846 15.1081 L 3.50629 15.1566 L 3.49413 15.2052 L 3.48195 15.2537 L 3.46976 15.3022 L 3.45757 15.3507 L 3.44537 15.3991 L 3.43317 15.4475 L 3.42096 15.4959 L 3.40874 15.5442 L 3.39651 15.5925 L 3.38428 15.6408 L 3.37204 15.689 L 3.3598 15.7372 L 3.34754 15.7854 L 3.33529 15.8336 L 3.32302 15.8817 L 3.31075 15.9298 L 3.29848 15.9778 L 3.28619 16.0259 L 3.27391 16.0739 L 3.26161 16.1219 L 3.24932 16.1698 L 3.23701 16.2178 L 3.2247 16.2657 L 3.21239 16.3135 L 3.20007 16.3614 L 3.18774 16.4092 L 3.17541 16.457 L 3.16307 16.5048 L 3.15073 16.5525 L 3.13839 16.6002 L 3.12604 16.6479 L 3.11368 16.6956 L 3.10132 16.7432 L 3.08896 16.7908 L 3.07659 16.8384 L 3.06421 16.886 L 3.05184 16.9335 L 3.03945 16.981 L 3.02707 17.0285 L 3.01467 17.076 L 3.00228 17.1234 L 2.98988 17.1709 L 2.97748 17.2183 L 2.96507 17.2656 L 2.95266 17.313 L 2.94024 17.3603 L 2.92782 17.4076 L 2.9154 17.4549 L 2.90297 17.5021 L 2.89054 17.5494 L 2.87811 17.5966 L 2.87267 17.6427 L 2.82866 17.6498 L 2.78464 17.6568 L 2.7406 17.6637 L 2.69654 17.6704 L 2.65246 17.6771 L 2.60837 17.6837 L 2.56426 17.6901 L 2.52013 17.6965 L 2.47599 17.7027 L 2.43184 17.7088 L 2.38766 17.7148 L 2.34348 17.7207 L 2.29928 17.7265 L 2.25506 17.7322 L 2.21083 17.7378 L 2.16659 17.7432 L 2.12233 17.7486 L 2.07806 17.7538 L 2.03378 17.7589 L 1.98949 17.7639 L 1.94518 17.7688 L 1.90086 17.7736 L 1.85653 17.7783 L 1.81218 17.7829 L 1.76783 17.7874 L 1.72347 17.7917 L 1.5751 17.8055 L 1.53069 17.8093 L 1.48627 17.8131 L 1.44184 17.8168 L 1.3974 17.8203 L 1.35296 17.8237 L 1.3085 17.827 L 1.26404 17.8303 L 1.21957 17.8333 L 1.17509 17.8363 L 1.13061 17.8392 L 1.08611 17.842 L 1.04162 17.8446 L 0.997109 17.8472 L 0.952597 17.8496 L 0.908079 17.8519 L 0.863556 17.8541 L 0.819027 17.8562 L 0.774493 17.8582 L 0.729954 17.8601 L 0.685411 17.8619 L 0.640863 17.8635 L 0.596312 17.8651 L 0.551756 17.8665 L 0.507198 17.8678 L 0.462636 17.869 L 0.418071 17.8701 L 0.404264 17.8258 L 0.383366 17.7817 L 0.362467 17.7376 L 0.341568 17.6934 L 0.320668 17.6492 L 0.299768 17.605 L 0.278868 17.5607 L 0.257967 17.5165 L 0.237066 17.4722 L 0.216164 17.4279 L 0.195263 17.3835 L 0.17436 17.3392 L 0.153458 17.2948 L 0.132556 17.2504 L 0.111653 17.206 L 0.09075 17.1615 L 0.069847 17.117 L 0.0489439 17.0725 L 0.0280407 17.028 L 0.00713745 16.9834 L -0.0137658 16.9388 L -0.034669 16.8942 L -0.0555722 16.8496 L -0.0764753 16.8049 L -0.0973782 16.7603 L -0.118281 16.7155 L -0.139184 16.6708 L -0.160086 16.626 L -0.180988 16.5812 L -0.20189 16.5364 L -0.222791 16.4916 L -0.243693 16.4467 L -0.264593 16.4018 L -0.285493 16.3568 L -0.306393 16.3119 L -0.327292 16.2669 L -0.348191 16.2219 L -0.369089 16.1768 L -0.389986 16.1317 L -0.410883 16.0866 L -0.431779 16.0415 L -0.452674 15.9963 L -0.473568 15.9511 L -0.494461 15.9059 L -0.515353 15.8606 L -0.536244 15.8153 L -0.557134 15.77 L -0.578023 15.7246 L -0.598911 15.6792 L -0.619798 15.6338 L -0.640683 15.5883 L -0.661567 15.5429 L -0.682449 15.4973 L -0.70333 15.4518 L -0.72421 15.4062 L -0.745088 15.3606 L -0.765964 15.3149 L -0.786838 15.2692 L -0.807711 15.2235 L -0.828581 15.1777 L -0.84945 15.1319 L -0.870317 15.0861 L -0.891182 15.0402 L -0.912044 14.9943 L -0.932904 14.9483 L -0.953762 14.9023 L -0.974618 14.8563 L -0.995471 14.8103 L -1.01632 14.7642 L -1.03717 14.718 L -1.05801 14.6718 L -1.07886 14.6256 L -1.09969 14.5794 L -1.12053 14.5331 L -1.14136 14.4867 L -1.16219 14.4404 L -1.18302 14.3939 L -1.20384 14.3475 L -1.22466 14.301 L -1.24548 14.2544 L -1.26629 14.2078 L -1.2871 14.1612 L -1.3079 14.1145 L -1.3079 14.1145 L -1.33693 14.1566 L -1.36595 14.1986 L -1.39497 14.2406 L -1.42399 14.2825 L -1.453 14.3244 L -1.482 14.3662 L -1.511 14.408 L -1.54 14.4498 L -1.56899 14.4915 L -1.59798 14.5332 L -1.62697 14.5748 L -1.65594 14.6164 L -1.68492 14.658 L -1.71389 14.6995 L -1.74286 14.741 L -1.77182 14.7824 L -1.80078 14.8239 L -1.82973 14.8652 L -1.85868 14.9066 L -1.88762 14.9479 L -1.91656 14.9891 L -1.94549 15.0303 L -1.97442 15.0715 L -2.00335 15.1127 L -2.03227 15.1538 L -2.06118 15.1949 L -2.09009 15.2359 L -2.119 15.2769 L -2.1479 15.3179 L -2.1768 15.3589 L -2.20569 15.3998 L -2.23458 15.4406 L -2.26346 15.4815 L -2.29234 15.5223 L -2.32121 15.5631 L -2.35008 15.6038 L -2.37894 15.6446 L -2.4078 15.6852 L -2.43665 15.7259 L -2.4655 15.7665 L -2.49435 15.8071 L -2.52319 15.8477 L -2.55202 15.8882 L -2.58085 15.9287 L -2.60968 15.9692 L -2.6385 16.0096 L -2.66731 16.0501 L -2.69612 16.0904 L -2.72493 16.1308 L -2.75373 16.1711 L -2.78253 16.2114 L -2.81132 16.2517 L -2.84011 16.292 L -2.86889 16.3322 L -2.89767 16.3724 L -2.92644 16.4125 L -2.95521 16.4527 L -2.98397 16.4928 L -3.01273 16.5329 L -3.04148 16.5729 L -3.07023 16.613 L -3.09897 16.653 L -3.12771 16.6929 L -3.15645 16.7329 L -3.18518 16.7728 L -3.2139 16.8127 L -3.24262 16.8526 L -3.27134 16.8925 L -3.30005 16.9323 L -3.32876 16.9721 L -3.35746 17.0119 L -3.38616 17.0517 L -3.41485 17.0914 L -3.44354 17.1311 L -3.47222 17.1708 L -3.5009 17.2105 L -3.52957 17.2501 L -3.55824 17.2898 L -3.5869 17.3294 L -3.61556 17.3689 L -3.64422 17.4085 L -3.67287 17.448 L -3.69458 17.489 L -3.73818 17.4797 L -3.78176 17.4704 L -3.82532 17.4609 L -3.86885 17.4513 L -3.91236 17.4416 L -3.95585 17.4318 L -3.99931 17.4219 L -4.04274 17.4118 L -4.08615 17.4017 L -4.12954 17.3914 L -4.1729 17.3811 L -4.21623 17.3706 L -4.25954 17.3601 L -4.30282 17.3494 L -4.34607 17.3386 L -4.3893 17.3277 L -4.4325 17.3167 L -4.47567 17.3056 L -4.51882 17.2944 L -4.56193 17.2831 L -4.60502 17.2716 L -4.64808 17.2601 L -4.69111 17.2485 L -4.73411 17.2367 L -4.77708 17.2248 L -4.82003 17.2129 L -4.96334 17.1721 L -5.00615 17.1597 L -5.04893 17.1471 L -5.09168 17.1345 L -5.13439 17.1217 L -5.17708 17.1089 L -5.21973 17.0959 L -5.26235 17.0828 L -5.30493 17.0697 L -5.34749 17.0564 L -5.39001 17.043 L -5.43249 17.0295 L -5.47495 17.0159 L -5.51736 17.0022 L -5.55975 16.9884 L -5.6021 16.9745 L -5.64441 16.9604 L -5.68669 16.9463 L -5.72894 16.9321 L -5.77115 16.9177 L -5.81332 16.9033 L -5.85546 16.8887 L -5.89756 16.8741 L -5.93962 16.8593 L -5.98165 16.8445 L -6.02364 16.8295 L -6.06559 16.8144 L -6.06247 16.7681 L -6.06602 16.7194 L -6.06956 16.6707 L -6.07309 16.622 L -6.07661 16.5732 L -6.08013 16.5244 L -6.08363 16.4756 L -6.08713 16.4268 L -6.09062 16.378 L -6.09411 16.3291 L -6.09758 16.2802 L -6.10105 16.2313 L -6.10451 16.1824 L -6.10796 16.1334 L -6.1114 16.0844 L -6.11483 16.0354 L -6.11825 15.9864 L -6.12167 15.9373 L -6.12507 15.8883 L -6.12847 15.8392 L -6.13185 15.79 L -6.13523 15.7409 L -6.1386 15.6917 L -6.14196 15.6425 L -6.14531 15.5933 L -6.14865 15.5441 L -6.15197 15.4948 L -6.15529 15.4455 L -6.1586 15.3962 L -6.1619 15.3468 L -6.16519 15.2974 L -6.16847 15.248 L -6.17173 15.1986 L -6.17499 15.1492 L -6.17823 15.0997 L -6.18147 15.0502 L -6.18469 15.0007 L -6.1879 14.9511 L -6.19111 14.9015 L -6.19429 14.8519 L -6.19747 14.8023 L -6.20064 14.7526 L -6.20379 14.7029 L -6.20693 14.6532 L -6.21006 14.6034 L -6.21318 14.5536 L -6.21629 14.5038 L -6.21938 14.454 L -6.22246 14.4041 L -6.22553 14.3542 L -6.22858 14.3043 L -6.23162 14.2543 L -6.23465 14.2043 L -6.23766 14.1543 L -6.24066 14.1042 L -6.24365 14.0541 L -6.24662 14.004 L -6.24958 13.9539 L -6.25252 13.9037 L -6.25545 13.8535 L -6.25836 13.8032 L -6.26126 13.7529 L -6.26414 13.7026 L -6.26701 13.6523 L -6.26987 13.6019 L -6.2727 13.5515 L -6.27553 13.501 L -6.27833 13.4505 L -6.28112 13.4 L -6.28389 13.3495 L -6.28665 13.2989 L -6.28939 13.2483 L -6.29211 13.1976 L -6.29482 13.1469 L -6.2975 13.0962 L -6.30017 13.0454 L -6.30282 12.9946 L -6.30546 12.9437 L -6.30807 12.8929 L -6.31067 12.8419 L -6.31324 12.791 L -6.3158 12.74 L -6.31834 12.6889 L -6.31834 12.6889 L -6.3606 12.7177 L -6.40284 12.7464 L -6.44506 12.775 L -6.48726 12.8036 L -6.52944 12.8322 L -6.57161 12.8608 L -6.61375 12.8893 L -6.65588 12.9177 L -6.69798 12.9461 L -6.74007 12.9745 L -6.78214 13.0029 L -6.82419 13.0312 L -6.86622 13.0595 L -6.90823 13.0878 L -6.95023 13.116 L -6.99221 13.1442 L -7.03417 13.1723 L -7.07611 13.2004 L -7.11803 13.2285 L -7.15994 13.2566 L -7.20183 13.2846 L -7.2437 13.3126 L -7.28556 13.3405 L -7.32739 13.3685 L -7.36921 13.3964 L -7.41102 13.4242 L -7.4528 13.452 L -7.49457 13.4798 L -7.53633 13.5076 L -7.57806 13.5354 L -7.61978 13.5631 L -7.66149 13.5908 L -7.70317 13.6184 L -7.74485 13.646 L -7.7865 13.6736 L -7.82814 13.7012 L -7.86976 13.7287 L -7.91137 13.7563 L -7.95296 13.7837 L -7.99454 13.8112 L -8.0361 13.8386 L -8.07765 13.866 L -8.11918 13.8934 L -8.16069 13.9208 L -8.20219 13.9481 L -8.24367 13.9754 L -8.28514 14.0027 L -8.3266 14.0299 L -8.36804 14.0572 L -8.40946 14.0844 L -8.45087 14.1115 L -8.49227 14.1387 L -8.53365 14.1658 L -8.57502 14.1929 L -8.61637 14.22 L -8.65771 14.2471 L -8.69904 14.2741 L -8.74035 14.3011 L -8.78164 14.3281 L -8.82293 14.3551 L -8.8642 14.382 L -8.90545 14.4089 L -8.94669 14.4358 L -8.98792 14.4627 L -9.02914 14.4896 L -9.07034 14.5164 L -9.11153 14.5432 L -9.1527 14.57 L -9.19386 14.5968 L -9.23501 14.6236 L -9.27615 14.6503 L -9.31727 14.677 L -9.35838 14.7037 L -9.39948 14.7304 L -9.44056 14.757 L -9.48164 14.7836 L -9.52269 14.8102 L -9.56374 14.8368 L -9.60478 14.8634 L -9.6458 14.89 L -9.68681 14.9165 L -9.72781 14.943 L -9.76285 14.9734 L -9.80016 14.949 L -9.83741 14.9245 L -9.8746 14.8999 L -9.91173 14.8753 L -9.9488 14.8505 L -9.9858 14.8256 L -10.0227 14.8007 L -10.0596 14.7756 L -10.0964 14.7505 L -10.1332 14.7253 L -10.1699 14.7 L -10.2065 14.6746 L -10.2431 14.6491 L -10.2796 14.6235 L -10.316 14.5978 L -10.3524 14.572 L -10.3887 14.5461 L -10.4249 14.5202 L -10.4611 14.4942 L -10.4972 14.468 L -10.5333 14.4418 L -10.5693 14.4155 L -10.6052 14.3891 L -10.641 14.3626 L -10.6768 14.336 L -10.7125 14.3093 L -10.8315 14.2195 L -10.8669 14.1925 L -10.9022 14.1653 L -10.9375 14.1381 L -10.9728 14.1108 L -11.0079 14.0834 L -11.043 14.0559 L -11.078 14.0283 L -11.113 14.0006 L -11.1479 13.9729 L -11.1827 13.945 L -11.2174 13.9171 L -11.2521 13.8891 L -11.2867 13.861 L -11.3212 13.8328 L -11.3557 13.8045 L -11.3901 13.7761 L -11.4244 13.7477 L -11.4586 13.7192 L -11.4928 13.6905 L -11.5269 13.6618 L -11.561 13.633 L -11.5949 13.6042 L -11.6288 13.5752 L -11.6626 13.5462 L -11.6964 13.517 L -11.7301 13.4878 L -11.7104 13.4458 L -11.6962 13.3991 L -11.6819 13.3524 L -11.6675 13.3057 L -11.6532 13.2589 L -11.6389 13.2122 L -11.6245 13.1654 L -11.6101 13.1186 L -11.5957 13.0718 L -11.5813 13.025 L -11.5669 12.9781 L -11.5525 12.9313 L -11.538 12.8844 L -11.5236 12.8375 L -11.5091 12.7906 L -11.4946 12.7436 L -11.48 12.6967 L -11.4655 12.6497 L -11.451 12.6027 L -11.4364 12.5557 L -11.4218 12.5087 L -11.4072 12.4616 L -11.3926 12.4146 L -11.3779 12.3675 L -11.3633 12.3204 L -11.3486 12.2733 L -11.3339 12.2261 L -11.3192 12.1789 L -11.3045 12.1318 L -11.2897 12.0845 L -11.2749 12.0373 L -11.2602 11.9901 L -11.2453 11.9428 L -11.2305 11.8955 L -11.2157 11.8482 L -11.2008 11.8009 L -11.1859 11.7535 L -11.171 11.7062 L -11.1561 11.6588 L -11.1411 11.6113 L -11.1262 11.5639 L -11.1112 11.5164 L -11.0962 11.469 L -11.0811 11.4215 L -11.0661 11.3739 L -11.051 11.3264 L -11.0359 11.2788 L -11.0208 11.2312 L -11.0056 11.1836 L -10.9905 11.136 L -10.9753 11.0883 L -10.9601 11.0406 L -10.9448 10.9929 L -10.9296 10.9452 L -10.9143 10.8974 L -10.899 10.8496 L -10.8836 10.8018 L -10.8683 10.754 L -10.8529 10.7061 L -10.8375 10.6582 L -10.822 10.6103 L -10.8066 10.5624 L -10.7911 10.5144 L -10.7756 10.4665 L -10.76 10.4185 L -10.7445 10.3704 L -10.7289 10.3224 L -10.7133 10.2743 L -10.6976 10.2262 L -10.6819 10.178 L -10.6662 10.1298 L -10.6505 10.0816 L -10.6347 10.0334 L -10.6189 9.98517 L -10.6031 9.93689 L -10.5873 9.88859 L -10.5714 9.84025 L -10.5555 9.79189 L -10.5395 9.7435 L -10.5236 9.69507 L -10.5076 9.64662 L -10.4915 9.59814 L -10.4755 9.54964 L -10.4755 9.54964 L -10.5252 9.56116 L -10.575 9.57266 L -10.6247 9.58412 L -10.6744 9.59556 L -10.7241 9.60697 L -10.7737 9.61836 L -10.8233 9.62971 L -10.8728 9.64104 L -10.9224 9.65234 L -10.9719 9.66361 L -11.0213 9.67485 L -11.0708 9.68607 L -11.1202 9.69727 L -11.1696 9.70843 L -11.2189 9.71958 L -11.2683 9.73069 L -11.3176 9.74179 L -11.3668 9.75285 L -11.4161 9.7639 L -11.4653 9.77492 L -11.5145 9.78591 L -11.5636 9.79688 L -11.6127 9.80783 L -11.6618 9.81876 L -11.7109 9.82966 L -11.76 9.84054 L -11.809 9.85139 L -11.858 9.86223 L -11.9069 9.87304 L -11.9559 9.88383 L -12.0048 9.8946 L -12.0537 9.90535 L -12.1025 9.91608 L -12.1514 9.92679 L -12.2002 9.93747 L -12.249 9.94814 L -12.2977 9.95879 L -12.3465 9.96941 L -12.3952 9.98002 L -12.4439 9.9906 L -12.4925 10.0012 L -12.5412 10.0117 L -12.5898 10.0222 L -12.6384 10.0328 L -12.687 10.0432 L -12.7355 10.0537 L -12.784 10.0642 L -12.8325 10.0746 L -12.881 10.085 L -12.9295 10.0954 L -12.9779 10.1058 L -13.0263 10.1162 L -13.0747 10.1265 L -13.123 10.1369 L -13.1714 10.1472 L -13.2197 10.1575 L -13.268 10.1678 L -13.3163 10.178 L -13.3646 10.1883 L -13.4128 10.1985 L -13.461 10.2087 L -13.5092 10.2189 L -13.5574 10.2291 L -13.6055 10.2393 L -13.6537 10.2494 L -13.7018 10.2596 L -13.7499 10.2697 L -13.7979 10.2798 L -13.846 10.2899 L -13.894 10.3 L -13.942 10.31 L -13.99 10.3201 L -14.038 10.3301 L -14.086 10.3402 L -14.1339 10.3502 L -14.1818 10.3602 L -14.2297 10.3701 L -14.2776 10.3801 L -14.3255 10.3901 L -14.3733 10.4 L -14.4211 10.4099 L -14.4689 10.4199 L -14.5126 10.4355 L -14.5386 10.3993 L -14.5645 10.363 L -14.5903 10.3267 L -14.616 10.2902 L -14.6416 10.2537 L -14.6671 10.2172 L -14.6926 10.1806 L -14.7179 10.1439 L -14.7432 10.1072 L -14.7683 10.0704 L -14.7934 10.0335 L -14.8184 9.9966 L -14.8432 9.95961 L -14.868 9.92256 L -14.8927 9.88545 L -14.9173 9.84828 L -14.9419 9.81105 L -14.9663 9.77375 L -14.9906 9.7364 L -15.0148 9.69898 L -15.039 9.66151 L -15.063 9.62397 L -15.087 9.58638 L -15.1108 9.54872 L -15.1346 9.51101 L -15.1583 9.47323 L -15.2367 9.34655 L -15.26 9.30852 L -15.2831 9.27044 L -15.3062 9.23229 L -15.3292 9.19409 L -15.3521 9.15584 L -15.3749 9.11752 L -15.3976 9.07915 L -15.4201 9.04072 L -15.4426 9.00224 L -15.465 8.9637 L -15.4874 8.9251 L -15.5096 8.88645 L -15.5317 8.84774 L -15.5537 8.80898 L -15.5756 8.77016 L -15.5974 8.73129 L -15.6192 8.69237 L -15.6408 8.65339 L -15.6623 8.61436 L -15.6838 8.57527 L -15.7051 8.53613 L -15.7263 8.49693 L -15.7475 8.45769 L -15.7685 8.41839 L -15.7895 8.37904 L -15.8103 8.33964 L -15.7768 8.30754 L -15.7467 8.26917 L -15.7164 8.23078 L -15.6862 8.19238 L -15.656 8.15397 L -15.6257 8.11556 L -15.5954 8.07713 L -15.5651 8.03869 L -15.5348 8.00024 L -15.5044 7.96178 L -15.4741 7.9233 L -15.4437 7.88482 L -15.4133 7.84633 L -15.3828 7.80782 L -15.3524 7.76931 L -15.3219 7.73078 L -15.2914 7.69224 L -15.2609 7.65369 L -15.2303 7.61513 L -15.1998 7.57656 L -15.1692 7.53797 L -15.1386 7.49938 L -15.1079 7.46077 L -15.0773 7.42215 L -15.0466 7.38352 L -15.0159 7.34488 L -14.9851 7.30622 L -14.9544 7.26756 L -14.9236 7.22888 L -14.8928 7.19019 L -14.862 7.15149 L -14.8311 7.11278 L -14.8002 7.07405 L -14.7693 7.03531 L -14.7384 6.99656 L -14.7074 6.9578 L -14.6764 6.91902 L -14.6454 6.88023 L -14.6144 6.84143 L -14.5833 6.80262 L -14.5522 6.76379 L -14.5211 6.72495 L -14.4899 6.6861 L -14.4588 6.64723 L -14.4275 6.60836 L -14.3963 6.56946 L -14.365 6.53056 L -14.3338 6.49164 L -14.3024 6.45271 L -14.2711 6.41377 L -14.2397 6.37481 L -14.2083 6.33584 L -14.1768 6.29685 L -14.1454 6.25785 L -14.1139 6.21884 L -14.0823 6.17981 L -14.0507 6.14077 L -14.0191 6.10172 L -13.9875 6.06265 L -13.9559 6.02357 L -13.9242 5.98447 L -13.8924 5.94536 L -13.8607 5.90624 L -13.8289 5.8671 L -13.797 5.82794 L -13.7652 5.78877 L -13.7333 5.74959 L -13.7013 5.71039 L -13.6693 5.67118 L -13.6373 5.63195 L -13.6053 5.59271 L -13.5732 5.55345 L -13.5411 5.51418 L -13.5089 5.47489 L -13.4767 5.43559 L -13.4445 5.39627 L -13.4122 5.35693 L -13.3799 5.31758 L -13.3476 5.27822 L -13.3152 5.23884 L -13.2828 5.19944 L -13.2503 5.16003 L -13.2178 5.1206 L -13.2178 5.1206 L -13.2684 5.11336 L -13.3189 5.10611 L -13.3694 5.09884 L -13.4199 5.09156 L -13.4703 5.08426 L -13.5207 5.07695 L -13.5711 5.06962 L -13.6214 5.06228 L -13.6716 5.05492 L -13.7219 5.04755 L -13.7721 5.04016 L -13.8222 5.03276 L -13.8723 5.02535 L -13.9224 5.01793 L -13.9725 5.01049 L -14.0225 5.00304 L -14.0724 4.99557 L -14.1224 4.9881 L -14.1723 4.98061 L -14.2222 4.9731 L -14.272 4.96559 L -14.3218 4.95806 L -14.3716 4.95053 L -14.4213 4.94298 L -14.471 4.93542 L -14.5206 4.92784 L -14.5703 4.92026 L -14.6199 4.91266 L -14.6694 4.90506 L -14.719 4.89744 L -14.7685 4.88982 L -14.8179 4.88218 L -14.8674 4.87453 L -14.9168 4.86687 L -14.9662 4.8592 L -15.0155 4.85153 L -15.0648 4.84384 L -15.1141 4.83614 L -15.1634 4.82843 L -15.2126 4.82072 L -15.2618 4.81299 L -15.3109 4.80525 L -15.3601 4.79751 L -15.4092 4.78976 L -15.4583 4.78199 L -15.5073 4.77422 L -15.5563 4.76644 L -15.6053 4.75866 L -15.6543 4.75086 L -15.7032 4.74305 L -15.7522 4.73524 L -15.801 4.72742 L -15.8499 4.71959 L -15.8987 4.71175 L -15.9475 4.70391 L -15.9963 4.69605 L -16.0451 4.68819 L -16.0938 4.68032 L -16.1425 4.67245 L -16.1912 4.66456 L -16.2398 4.65667 L -16.2885 4.64878 L -16.3371 4.64087 L -16.3856 4.63296 L -16.4342 4.62504 L -16.4827 4.61712 L -16.5312 4.60918 L -16.5797 4.60124 L -16.6281 4.5933 L -16.6766 4.58535 L -16.725 4.57739 L -16.7734 4.56942 L -16.8217 4.56145 L -16.8701 4.55347 L -16.9184 4.54549 L -16.9667 4.5375 L -17.015 4.52951 L -17.0632 4.5215 L -17.1114 4.5135 L -17.1596 4.50548 L -17.2078 4.49746 L -17.256 4.48944 L -17.3023 4.48828 L -17.3135 4.44511 L -17.3245 4.40192 L -17.3354 4.3587 L -17.3463 4.31546 L -17.357 4.27218 L -17.3676 4.22888 L -17.3781 4.18556 L -17.3884 4.1422 L -17.3987 4.09883 L -17.4089 4.05542 L -17.4189 4.012 L -17.4289 3.96854 L -17.4387 3.92506 L -17.4485 3.88156 L -17.4581 3.83803 L -17.4676 3.79448 L -17.477 3.75091 L -17.4863 3.70731 L -17.4955 3.66369 L -17.5046 3.62005 L -17.5136 3.57638 L -17.5224 3.5327 L -17.5312 3.48899 L -17.5398 3.44525 L -17.5484 3.4015 L -17.5568 3.35773 L -17.5842 3.21126 L -17.5921 3.1674 L -17.6 3.12352 L -17.6077 3.07961 L -17.6153 3.03569 L -17.6229 2.99175 L -17.6303 2.94779 L -17.6376 2.90382 L -17.6447 2.85982 L -17.6518 2.81581 L -17.6588 2.77178 L -17.6656 2.72773 L -17.6724 2.68367 L -17.679 2.63958 L -17.6856 2.59549 L -17.692 2.55137 L -17.6983 2.50724 L -17.7045 2.4631 L -17.7106 2.41894 L -17.7165 2.37476 L -17.7224 2.33057 L -17.7282 2.28637 L -17.7338 2.24215 L -17.7394 2.19791 L -17.7448 2.15367 L -17.7501 2.10941 L -17.7553 2.06513 L -17.7125 2.0473 L -17.6705 2.02242 L -17.6285 1.99754 L -17.5864 1.97265 L -17.5443 1.94776 L -17.5022 1.92287 L -17.4601 1.89798 L -17.4179 1.87308 L -17.3758 1.84818 L -17.3336 1.82328 L -17.2914 1.79838 L -17.2491 1.77347 L -17.2069 1.74857 L -17.1646 1.72366 L -17.1223 1.69874 L -17.0799 1.67383 L -17.0376 1.64891 L -16.9952 1.62399 L -16.9528 1.59907 L -16.9103 1.57414 L -16.8679 1.54921 L -16.8254 1.52428 L -16.7829 1.49935 L -16.7403 1.47442 L -16.6977 1.44948 L -16.6552 1.42454 L -16.6125 1.3996 L -16.5699 1.37465 L -16.5272 1.34971 L -16.4845 1.32476 L -16.4418 1.29981 L -16.399 1.27486 L -16.3562 1.2499 L -16.3134 1.22494 L -16.2706 1.19998 L -16.2277 1.17502 L -16.1848 1.15006 L -16.1419 1.12509 L -16.0989 1.10013 L -16.0559 1.07516 L -16.0129 1.05018 L -15.9698 1.02521 L -15.9268 1.00023 L -15.8836 0.975257 L -15.8405 0.950277 L -15.7973 0.925296 L -15.7541 0.900313 L -15.7109 0.875327 L -15.6676 0.85034 L -15.6243 0.825352 L -15.581 0.800361 L -15.5376 0.775369 L -15.4942 0.750375 L -15.4508 0.72538 L -15.4073 0.700383 L -15.3638 0.675384 L -15.3202 0.650384 L -15.2767 0.625382 L -15.2331 0.600379 L -15.1894 0.575375 L -15.1457 0.550369 L -15.102 0.525362 L -15.0583 0.500353 L -15.0145 0.475344 L -14.9706 0.450333 L -14.9268 0.425321 L -14.8829 0.400308 L -14.8389 0.375294 L -14.795 0.350279 L -14.7509 0.325263 L -14.7069 0.300246 L -14.6628 0.275229 L -14.6186 0.25021 L -14.5745 0.225191 L -14.5302 0.200172 L -14.486 0.175152 L -14.4417 0.150131 L -14.3973 0.12511 L -14.353 0.100088 L -14.3085 0.0750665 L -14.2641 0.0500444 L -14.2196 0.0250223 L -14.175 8.88178e-16 L -14.175 2.5837e-15 L -14.2196 -0.0250223 L -14.2641 -0.0500444 L -14.3085 -0.0750665 L -14.353 -0.100088 L -14.3973 -0.12511 L -14.4417 -0.150131 L -14.486 -0.175152 L -14.5302 -0.200172 L -14.5745 -0.225191 L -14.6186 -0.25021 L -14.6628 -0.275229 L -14.7069 -0.300246 L -14.7509 -0.325263 L -14.795 -0.350279 L -14.8389 -0.375294 L -14.8829 -0.400308 L -14.9268 -0.425321 L -14.9706 -0.450333 L -15.0145 -0.475344 L -15.0583 -0.500353 L -15.102 -0.525362 L -15.1457 -0.550369 L -15.1894 -0.575375 L -15.2331 -0.600379 L -15.2767 -0.625382 L -15.3202 -0.650384 L -15.3638 -0.675384 L -15.4073 -0.700383 L -15.4508 -0.72538 L -15.4942 -0.750375 L -15.5376 -0.775369 L -15.581 -0.800361 L -15.6243 -0.825352 L -15.6676 -0.85034 L -15.7109 -0.875327 L -15.7541 -0.900313 L -15.7973 -0.925296 L -15.8405 -0.950277 L -15.8836 -0.975257 L -15.9268 -1.00023 L -15.9698 -1.02521 L -16.0129 -1.05018 L -16.0559 -1.07516 L -16.0989 -1.10013 L -16.1419 -1.12509 L -16.1848 -1.15006 L -16.2277 -1.17502 L -16.2706 -1.19998 L -16.3134 -1.22494 L -16.3562 -1.2499 L -16.399 -1.27486 L -16.4418 -1.29981 L -16.4845 -1.32476 L -16.5272 -1.34971 L -16.5699 -1.37465 L -16.6125 -1.3996 L -16.6552 -1.42454 L -16.6977 -1.44948 L -16.7403 -1.47442 L -16.7829 -1.49935 L -16.8254 -1.52428 L -16.8679 -1.54921 L -16.9103 -1.57414 L -16.9528 -1.59907 L -16.9952 -1.62399 L -17.0376 -1.64891 L -17.0799 -1.67383 L -17.1223 -1.69874 L -17.1646 -1.72366 L -17.2069 -1.74857 L -17.2491 -1.77347 L -17.2914 -1.79838 L -17.3336 -1.82328 L -17.3758 -1.84818 L -17.4179 -1.87308 L -17.4601 -1.89798 L -17.5022 -1.92287 L -17.5443 -1.94776 L -17.5864 -1.97265 L -17.6285 -1.99754 L -17.6705 -2.02242 L -17.7125 -2.0473 L -17.7553 -2.06513 L -17.7501 -2.10941 L -17.7448 -2.15367 L -17.7394 -2.19791 L -17.7338 -2.24215 L -17.7282 -2.28637 L -17.7224 -2.33057 L -17.7165 -2.37476 L -17.7106 -2.41894 L -17.7045 -2.4631 L -17.6983 -2.50724 L -17.692 -2.55137 L -17.6856 -2.59549 L -17.679 -2.63958 L -17.6724 -2.68367 L -17.6656 -2.72773 L -17.6588 -2.77178 L -17.6518 -2.81581 L -17.6447 -2.85982 L -17.6376 -2.90382 L -17.6303 -2.94779 L -17.6229 -2.99175 L -17.6153 -3.03569 L -17.6077 -3.07961 L -17.6 -3.12352 L -17.5921 -3.1674 L -17.5842 -3.21126 L -17.5568 -3.35773 L -17.5484 -3.4015 L -17.5398 -3.44525 L -17.5312 -3.48899 L -17.5224 -3.5327 L -17.5136 -3.57638 L -17.5046 -3.62005 L -17.4955 -3.66369 L -17.4863 -3.70731 L -17.477 -3.75091 L -17.4676 -3.79448 L -17.4581 -3.83803 L -17.4485 -3.88156 L -17.4387 -3.92506 L -17.4289 -3.96854 L -17.4189 -4.012 L -17.4089 -4.05542 L -17.3987 -4.09883 L -17.3884 -4.1422 L -17.3781 -4.18556 L -17.3676 -4.22888 L -17.357 -4.27218 L -17.3463 -4.31546 L -17.3354 -4.3587 L -17.3245 -4.40192 L -17.3135 -4.44511 L -17.3023 -4.48828 L -17.256 -4.48944 L -17.2078 -4.49746 L -17.1596 -4.50548 L -17.1114 -4.5135 L -17.0632 -4.5215 L -17.015 -4.52951 L -16.9667 -4.5375 L -16.9184 -4.54549 L -16.8701 -4.55347 L -16.8217 -4.56145 L -16.7734 -4.56942 L -16.725 -4.57739 L -16.6766 -4.58535 L -16.6281 -4.5933 L -16.5797 -4.60124 L -16.5312 -4.60918 L -16.4827 -4.61712 L -16.4342 -4.62504 L -16.3856 -4.63296 L -16.3371 -4.64087 L -16.2885 -4.64878 L -16.2398 -4.65667 L -16.1912 -4.66456 L -16.1425 -4.67245 L -16.0938 -4.68032 L -16.0451 -4.68819 L -15.9963 -4.69605 L -15.9475 -4.70391 L -15.8987 -4.71175 L -15.8499 -4.71959 L -15.801 -4.72742 L -15.7522 -4.73524 L -15.7032 -4.74305 L -15.6543 -4.75086 L -15.6053 -4.75866 L -15.5563 -4.76644 L -15.5073 -4.77422 L -15.4583 -4.78199 L -15.4092 -4.78976 L -15.3601 -4.79751 L -15.3109 -4.80525 L -15.2618 -4.81299 L -15.2126 -4.82072 L -15.1634 -4.82843 L -15.1141 -4.83614 L -15.0648 -4.84384 L -15.0155 -4.85153 L -14.9662 -4.8592 L -14.9168 -4.86687 L -14.8674 -4.87453 L -14.8179 -4.88218 L -14.7685 -4.88982 L -14.719 -4.89744 L -14.6694 -4.90506 L -14.6199 -4.91266 L -14.5703 -4.92026 L -14.5206 -4.92784 L -14.471 -4.93542 L -14.4213 -4.94298 L -14.3716 -4.95053 L -14.3218 -4.95806 L -14.272 -4.96559 L -14.2222 -4.9731 L -14.1723 -4.98061 L -14.1224 -4.9881 L -14.0724 -4.99557 L -14.0225 -5.00304 L -13.9725 -5.01049 L -13.9224 -5.01793 L -13.8723 -5.02535 L -13.8222 -5.03276 L -13.7721 -5.04016 L -13.7219 -5.04755 L -13.6716 -5.05492 L -13.6214 -5.06228 L -13.5711 -5.06962 L -13.5207 -5.07695 L -13.4703 -5.08426 L -13.4199 -5.09156 L -13.3694 -5.09884 L -13.3189 -5.10611 L -13.2684 -5.11336 L -13.2178 -5.1206 L -13.2178 -5.1206 L -13.2503 -5.16003 L -13.2828 -5.19944 L -13.3152 -5.23884 L -13.3476 -5.27822 L -13.3799 -5.31758 L -13.4122 -5.35693 L -13.4445 -5.39627 L -13.4767 -5.43559 L -13.5089 -5.47489 L -13.5411 -5.51418 L -13.5732 -5.55345 L -13.6053 -5.59271 L -13.6373 -5.63195 L -13.6693 -5.67118 L -13.7013 -5.71039 L -13.7333 -5.74959 L -13.7652 -5.78877 L -13.797 -5.82794 L -13.8289 -5.8671 L -13.8607 -5.90624 L -13.8924 -5.94536 L -13.9242 -5.98447 L -13.9559 -6.02357 L -13.9875 -6.06265 L -14.0191 -6.10172 L -14.0507 -6.14077 L -14.0823 -6.17981 L -14.1139 -6.21884 L -14.1454 -6.25785 L -14.1768 -6.29685 L -14.2083 -6.33584 L -14.2397 -6.37481 L -14.2711 -6.41377 L -14.3024 -6.45271 L -14.3338 -6.49164 L -14.365 -6.53056 L -14.3963 -6.56946 L -14.4275 -6.60836 L -14.4588 -6.64723 L -14.4899 -6.6861 L -14.5211 -6.72495 L -14.5522 -6.76379 L -14.5833 -6.80262 L -14.6144 -6.84143 L -14.6454 -6.88023 L -14.6764 -6.91902 L -14.7074 -6.9578 L -14.7384 -6.99656 L -14.7693 -7.03531 L -14.8002 -7.07405 L -14.8311 -7.11278 L -14.862 -7.15149 L -14.8928 -7.19019 L -14.9236 -7.22888 L -14.9544 -7.26756 L -14.9851 -7.30622 L -15.0159 -7.34488 L -15.0466 -7.38352 L -15.0773 -7.42215 L -15.1079 -7.46077 L -15.1386 -7.49938 L -15.1692 -7.53797 L -15.1998 -7.57656 L -15.2303 -7.61513 L -15.2609 -7.65369 L -15.2914 -7.69224 L -15.3219 -7.73078 L -15.3524 -7.76931 L -15.3828 -7.80782 L -15.4133 -7.84633 L -15.4437 -7.88482 L -15.4741 -7.9233 L -15.5044 -7.96178 L -15.5348 -8.00024 L -15.5651 -8.03869 L -15.5954 -8.07713 L -15.6257 -8.11556 L -15.656 -8.15397 L -15.6862 -8.19238 L -15.7164 -8.23078 L -15.7467 -8.26917 L -15.7768 -8.30754 L -15.8103 -8.33964 L -15.7895 -8.37904 L -15.7685 -8.41839 L -15.7475 -8.45769 L -15.7263 -8.49693 L -15.7051 -8.53613 L -15.6838 -8.57527 L -15.6623 -8.61436 L -15.6408 -8.65339 L -15.6192 -8.69237 L -15.5974 -8.73129 L -15.5756 -8.77016 L -15.5537 -8.80898 L -15.5317 -8.84774 L -15.5096 -8.88645 L -15.4874 -8.9251 L -15.465 -8.9637 L -15.4426 -9.00224 L -15.4201 -9.04072 L -15.3976 -9.07915 L -15.3749 -9.11752 L -15.3521 -9.15584 L -15.3292 -9.19409 L -15.3062 -9.23229 L -15.2831 -9.27044 L -15.26 -9.30852 L -15.2367 -9.34655 L -15.1583 -9.47323 L -15.1346 -9.51101 L -15.1108 -9.54872 L -15.087 -9.58638 L -15.063 -9.62397 L -15.039 -9.66151 L -15.0148 -9.69898 L -14.9906 -9.7364 L -14.9663 -9.77375 L -14.9419 -9.81105 L -14.9173 -9.84828 L -14.8927 -9.88545 L -14.868 -9.92256 L -14.8432 -9.95961 L -14.8184 -9.9966 L -14.7934 -10.0335 L -14.7683 -10.0704 L -14.7432 -10.1072 L -14.7179 -10.1439 L -14.6926 -10.1806 L -14.6671 -10.2172 L -14.6416 -10.2537 L -14.616 -10.2902 L -14.5903 -10.3267 L -14.5645 -10.363 L -14.5386 -10.3993 L -14.5126 -10.4355 L -14.4689 -10.4199 L -14.4211 -10.4099 L -14.3733 -10.4 L -14.3255 -10.3901 L -14.2776 -10.3801 L -14.2297 -10.3701 L -14.1818 -10.3602 L -14.1339 -10.3502 L -14.086 -10.3402 L -14.038 -10.3301 L -13.99 -10.3201 L -13.942 -10.31 L -13.894 -10.3 L -13.846 -10.2899 L -13.7979 -10.2798 L -13.7499 -10.2697 L -13.7018 -10.2596 L -13.6537 -10.2494 L -13.6055 -10.2393 L -13.5574 -10.2291 L -13.5092 -10.2189 L -13.461 -10.2087 L -13.4128 -10.1985 L -13.3646 -10.1883 L -13.3163 -10.178 L -13.268 -10.1678 L -13.2197 -10.1575 L -13.1714 -10.1472 L -13.123 -10.1369 L -13.0747 -10.1265 L -13.0263 -10.1162 L -12.9779 -10.1058 L -12.9295 -10.0954 L -12.881 -10.085 L -12.8325 -10.0746 L -12.784 -10.0642 L -12.7355 -10.0537 L -12.687 -10.0432 L -12.6384 -10.0328 L -12.5898 -10.0222 L -12.5412 -10.0117 L -12.4925 -10.0012 L -12.4439 -9.9906 L -12.3952 -9.98002 L -12.3465 -9.96941 L -12.2977 -9.95879 L -12.249 -9.94814 L -12.2002 -9.93747 L -12.1514 -9.92679 L -12.1025 -9.91608 L -12.0537 -9.90535 L -12.0048 -9.8946 L -11.9559 -9.88383 L -11.9069 -9.87304 L -11.858 -9.86223 L -11.809 -9.85139 L -11.76 -9.84054 L -11.7109 -9.82966 L -11.6618 -9.81876 L -11.6127 -9.80783 L -11.5636 -9.79688 L -11.5145 -9.78591 L -11.4653 -9.77492 L -11.4161 -9.7639 L -11.3668 -9.75285 L -11.3176 -9.74179 L -11.2683 -9.73069 L -11.2189 -9.71958 L -11.1696 -9.70843 L -11.1202 -9.69727 L -11.0708 -9.68607 L -11.0213 -9.67485 L -10.9719 -9.66361 L -10.9224 -9.65234 L -10.8728 -9.64104 L -10.8233 -9.62971 L -10.7737 -9.61836 L -10.7241 -9.60697 L -10.6744 -9.59556 L -10.6247 -9.58412 L -10.575 -9.57266 L -10.5252 -9.56116 L -10.4755 -9.54964 L -10.4755 -9.54964 L -10.4915 -9.59814 L -10.5076 -9.64662 L -10.5236 -9.69507 L -10.5395 -9.7435 L -10.5555 -9.79189 L -10.5714 -9.84025 L -10.5873 -9.88859 L -10.6031 -9.93689 L -10.6189 -9.98517 L -10.6347 -10.0334 L -10.6505 -10.0816 L -10.6662 -10.1298 L -10.6819 -10.178 L -10.6976 -10.2262 L -10.7133 -10.2743 L -10.7289 -10.3224 L -10.7445 -10.3704 L -10.76 -10.4185 L -10.7756 -10.4665 L -10.7911 -10.5144 L -10.8066 -10.5624 L -10.822 -10.6103 L -10.8375 -10.6582 L -10.8529 -10.7061 L -10.8683 -10.754 L -10.8836 -10.8018 L -10.899 -10.8496 L -10.9143 -10.8974 L -10.9296 -10.9452 L -10.9448 -10.9929 L -10.9601 -11.0406 L -10.9753 -11.0883 L -10.9905 -11.136 L -11.0056 -11.1836 L -11.0208 -11.2312 L -11.0359 -11.2788 L -11.051 -11.3264 L -11.0661 -11.3739 L -11.0811 -11.4215 L -11.0962 -11.469 L -11.1112 -11.5164 L -11.1262 -11.5639 L -11.1411 -11.6113 L -11.1561 -11.6588 L -11.171 -11.7062 L -11.1859 -11.7535 L -11.2008 -11.8009 L -11.2157 -11.8482 L -11.2305 -11.8955 L -11.2453 -11.9428 L -11.2602 -11.9901 L -11.2749 -12.0373 L -11.2897 -12.0845 L -11.3045 -12.1318 L -11.3192 -12.1789 L -11.3339 -12.2261 L -11.3486 -12.2733 L -11.3633 -12.3204 L -11.3779 -12.3675 L -11.3926 -12.4146 L -11.4072 -12.4616 L -11.4218 -12.5087 L -11.4364 -12.5557 L -11.451 -12.6027 L -11.4655 -12.6497 L -11.48 -12.6967 L -11.4946 -12.7436 L -11.5091 -12.7906 L -11.5236 -12.8375 L -11.538 -12.8844 L -11.5525 -12.9313 L -11.5669 -12.9781 L -11.5813 -13.025 L -11.5957 -13.0718 L -11.6101 -13.1186 L -11.6245 -13.1654 L -11.6389 -13.2122 L -11.6532 -13.2589 L -11.6675 -13.3057 L -11.6819 -13.3524 L -11.6962 -13.3991 L -11.7104 -13.4458 L -11.7301 -13.4878 L -11.6964 -13.517 L -11.6626 -13.5462 L -11.6288 -13.5752 L -11.5949 -13.6042 L -11.561 -13.633 L -11.5269 -13.6618 L -11.4928 -13.6905 L -11.4586 -13.7192 L -11.4244 -13.7477 L -11.3901 -13.7761 L -11.3557 -13.8045 L -11.3212 -13.8328 L -11.2867 -13.861 L -11.2521 -13.8891 L -11.2174 -13.9171 L -11.1827 -13.945 L -11.1479 -13.9729 L -11.113 -14.0006 L -11.078 -14.0283 L -11.043 -14.0559 L -11.0079 -14.0834 L -10.9728 -14.1108 L -10.9375 -14.1381 L -10.9022 -14.1653 L -10.8669 -14.1925 L -10.8315 -14.2195 L -10.7125 -14.3093 L -10.6768 -14.336 L -10.641 -14.3626 L -10.6052 -14.3891 L -10.5693 -14.4155 L -10.5333 -14.4418 L -10.4972 -14.468 L -10.4611 -14.4942 L -10.4249 -14.5202 L -10.3887 -14.5461 L -10.3524 -14.572 L -10.316 -14.5978 L -10.2796 -14.6235 L -10.2431 -14.6491 L -10.2065 -14.6746 L -10.1699 -14.7 L -10.1332 -14.7253 L -10.0964 -14.7505 L -10.0596 -14.7756 L -10.0227 -14.8007 L -9.9858 -14.8256 L -9.9488 -14.8505 L -9.91173 -14.8753 L -9.8746 -14.8999 L -9.83741 -14.9245 L -9.80016 -14.949 L -9.76285 -14.9734 L -9.72781 -14.943 L -9.68681 -14.9165 L -9.6458 -14.89 L -9.60478 -14.8634 L -9.56374 -14.8368 L -9.52269 -14.8102 L -9.48164 -14.7836 L -9.44056 -14.757 L -9.39948 -14.7304 L -9.35838 -14.7037 L -9.31727 -14.677 L -9.27615 -14.6503 L -9.23501 -14.6236 L -9.19386 -14.5968 L -9.1527 -14.57 L -9.11153 -14.5432 L -9.07034 -14.5164 L -9.02914 -14.4896 L -8.98792 -14.4627 L -8.94669 -14.4358 L -8.90545 -14.4089 L -8.8642 -14.382 L -8.82293 -14.3551 L -8.78164 -14.3281 L -8.74035 -14.3011 L -8.69904 -14.2741 L -8.65771 -14.2471 L -8.61637 -14.22 L -8.57502 -14.1929 L -8.53365 -14.1658 L -8.49227 -14.1387 L -8.45087 -14.1115 L -8.40946 -14.0844 L -8.36804 -14.0572 L -8.3266 -14.0299 L -8.28514 -14.0027 L -8.24367 -13.9754 L -8.20219 -13.9481 L -8.16069 -13.9208 L -8.11918 -13.8934 L -8.07765 -13.866 L -8.0361 -13.8386 L -7.99454 -13.8112 L -7.95296 -13.7837 L -7.91137 -13.7563 L -7.86976 -13.7287 L -7.82814 -13.7012 L -7.7865 -13.6736 L -7.74485 -13.646 L -7.70317 -13.6184 L -7.66149 -13.5908 L -7.61978 -13.5631 L -7.57806 -13.5354 L -7.53633 -13.5076 L -7.49457 -13.4798 L -7.4528 -13.452 L -7.41102 -13.4242 L -7.36921 -13.3964 L -7.32739 -13.3685 L -7.28556 -13.3405 L -7.2437 -13.3126 L -7.20183 -13.2846 L -7.15994 -13.2566 L -7.11803 -13.2285 L -7.07611 -13.2004 L -7.03417 -13.1723 L -6.99221 -13.1442 L -6.95023 -13.116 L -6.90823 -13.0878 L -6.86622 -13.0595 L -6.82419 -13.0312 L -6.78214 -13.0029 L -6.74007 -12.9745 L -6.69798 -12.9461 L -6.65588 -12.9177 L -6.61375 -12.8893 L -6.57161 -12.8608 L -6.52944 -12.8322 L -6.48726 -12.8036 L -6.44506 -12.775 L -6.40284 -12.7464 L -6.3606 -12.7177 L -6.31834 -12.6889 L -6.31834 -12.6889 L -6.3158 -12.74 L -6.31324 -12.791 L -6.31067 -12.8419 L -6.30807 -12.8929 L -6.30546 -12.9437 L -6.30282 -12.9946 L -6.30017 -13.0454 L -6.2975 -13.0962 L -6.29482 -13.1469 L -6.29211 -13.1976 L -6.28939 -13.2483 L -6.28665 -13.2989 L -6.28389 -13.3495 L -6.28112 -13.4 L -6.27833 -13.4505 L -6.27553 -13.501 L -6.2727 -13.5515 L -6.26987 -13.6019 L -6.26701 -13.6523 L -6.26414 -13.7026 L -6.26126 -13.7529 L -6.25836 -13.8032 L -6.25545 -13.8535 L -6.25252 -13.9037 L -6.24958 -13.9539 L -6.24662 -14.004 L -6.24365 -14.0541 L -6.24066 -14.1042 L -6.23766 -14.1543 L -6.23465 -14.2043 L -6.23162 -14.2543 L -6.22858 -14.3043 L -6.22553 -14.3542 L -6.22246 -14.4041 L -6.21938 -14.454 L -6.21629 -14.5038 L -6.21318 -14.5536 L -6.21006 -14.6034 L -6.20693 -14.6532 L -6.20379 -14.7029 L -6.20064 -14.7526 L -6.19747 -14.8023 L -6.19429 -14.8519 L -6.19111 -14.9015 L -6.1879 -14.9511 L -6.18469 -15.0007 L -6.18147 -15.0502 L -6.17823 -15.0997 L -6.17499 -15.1492 L -6.17173 -15.1986 L -6.16847 -15.248 L -6.16519 -15.2974 L -6.1619 -15.3468 L -6.1586 -15.3962 L -6.15529 -15.4455 L -6.15197 -15.4948 L -6.14865 -15.5441 L -6.14531 -15.5933 L -6.14196 -15.6425 L -6.1386 -15.6917 L -6.13523 -15.7409 L -6.13185 -15.79 L -6.12847 -15.8392 L -6.12507 -15.8883 L -6.12167 -15.9373 L -6.11825 -15.9864 L -6.11483 -16.0354 L -6.1114 -16.0844 L -6.10796 -16.1334 L -6.10451 -16.1824 L -6.10105 -16.2313 L -6.09758 -16.2802 L -6.09411 -16.3291 L -6.09062 -16.378 L -6.08713 -16.4268 L -6.08363 -16.4756 L -6.08013 -16.5244 L -6.07661 -16.5732 L -6.07309 -16.622 L -6.06956 -16.6707 L -6.06602 -16.7194 L -6.06247 -16.7681 L -6.06559 -16.8144 L -6.02364 -16.8295 L -5.98165 -16.8445 L -5.93962 -16.8593 L -5.89756 -16.8741 L -5.85546 -16.8887 L -5.81332 -16.9033 L -5.77115 -16.9177 L -5.72894 -16.9321 L -5.68669 -16.9463 L -5.64441 -16.9604 L -5.6021 -16.9745 L -5.55975 -16.9884 L -5.51736 -17.0022 L -5.47495 -17.0159 L -5.43249 -17.0295 L -5.39001 -17.043 L -5.34749 -17.0564 L -5.30493 -17.0697 L -5.26235 -17.0828 L -5.21973 -17.0959 L -5.17708 -17.1089 L -5.13439 -17.1217 L -5.09168 -17.1345 L -5.04893 -17.1471 L -5.00615 -17.1597 L -4.96334 -17.1721 L -4.82003 -17.2129 L -4.77708 -17.2248 L -4.73411 -17.2367 L -4.69111 -17.2485 L -4.64808 -17.2601 L -4.60502 -17.2716 L -4.56193 -17.2831 L -4.51882 -17.2944 L -4.47567 -17.3056 L -4.4325 -17.3167 L -4.3893 -17.3277 L -4.34607 -17.3386 L -4.30282 -17.3494 L -4.25954 -17.3601 L -4.21623 -17.3706 L -4.1729 -17.3811 L -4.12954 -17.3914 L -4.08615 -17.4017 L -4.04274 -17.4118 L -3.99931 -17.4219 L -3.95585 -17.4318 L -3.91236 -17.4416 L -3.86885 -17.4513 L -3.82532 -17.4609 L -3.78176 -17.4704 L -3.73818 -17.4797 L -3.69458 -17.489 L -3.67287 -17.448 L -3.64422 -17.4085 L -3.61556 -17.3689 L -3.5869 -17.3294 L -3.55824 -17.2898 L -3.52957 -17.2501 L -3.5009 -17.2105 L -3.47222 -17.1708 L -3.44354 -17.1311 L -3.41485 -17.0914 L -3.38616 -17.0517 L -3.35746 -17.0119 L -3.32876 -16.9721 L -3.30005 -16.9323 L -3.27134 -16.8925 L -3.24262 -16.8526 L -3.2139 -16.8127 L -3.18518 -16.7728 L -3.15645 -16.7329 L -3.12771 -16.6929 L -3.09897 -16.653 L -3.07023 -16.613 L -3.04148 -16.5729 L -3.01273 -16.5329 L -2.98397 -16.4928 L -2.95521 -16.4527 L -2.92644 -16.4125 L -2.89767 -16.3724 L -2.86889 -16.3322 L -2.84011 -16.292 L -2.81132 -16.2517 L -2.78253 -16.2114 L -2.75373 -16.1711 L -2.72493 -16.1308 L -2.69612 -16.0904 L -2.66731 -16.0501 L -2.6385 -16.0096 L -2.60968 -15.9692 L -2.58085 -15.9287 L -2.55202 -15.8882 L -2.52319 -15.8477 L -2.49435 -15.8071 L -2.4655 -15.7665 L -2.43665 -15.7259 L -2.4078 -15.6852 L -2.37894 -15.6446 L -2.35008 -15.6038 L -2.32121 -15.5631 L -2.29234 -15.5223 L -2.26346 -15.4815 L -2.23458 -15.4406 L -2.20569 -15.3998 L -2.1768 -15.3589 L -2.1479 -15.3179 L -2.119 -15.2769 L -2.09009 -15.2359 L -2.06118 -15.1949 L -2.03227 -15.1538 L -2.00335 -15.1127 L -1.97442 -15.0715 L -1.94549 -15.0303 L -1.91656 -14.9891 L -1.88762 -14.9479 L -1.85868 -14.9066 L -1.82973 -14.8652 L -1.80078 -14.8239 L -1.77182 -14.7824 L -1.74286 -14.741 L -1.71389 -14.6995 L -1.68492 -14.658 L -1.65594 -14.6164 L -1.62697 -14.5748 L -1.59798 -14.5332 L -1.56899 -14.4915 L -1.54 -14.4498 L -1.511 -14.408 L -1.482 -14.3662 L -1.453 -14.3244 L -1.42399 -14.2825 L -1.39497 -14.2406 L -1.36595 -14.1986 L -1.33693 -14.1566 L -1.3079 -14.1145 L -1.3079 -14.1145 L -1.2871 -14.1612 L -1.26629 -14.2078 L -1.24548 -14.2544 L -1.22466 -14.301 L -1.20384 -14.3475 L -1.18302 -14.3939 L -1.16219 -14.4404 L -1.14136 -14.4867 L -1.12053 -14.5331 L -1.09969 -14.5794 L -1.07886 -14.6256 L -1.05801 -14.6718 L -1.03717 -14.718 L -1.01632 -14.7642 L -0.995471 -14.8103 L -0.974618 -14.8563 L -0.953762 -14.9023 L -0.932904 -14.9483 L -0.912044 -14.9943 L -0.891182 -15.0402 L -0.870317 -15.0861 L -0.84945 -15.1319 L -0.828581 -15.1777 L -0.807711 -15.2235 L -0.786838 -15.2692 L -0.765964 -15.3149 L -0.745088 -15.3606 L -0.72421 -15.4062 L -0.70333 -15.4518 L -0.682449 -15.4973 L -0.661567 -15.5429 L -0.640683 -15.5883 L -0.619798 -15.6338 L -0.598911 -15.6792 L -0.578023 -15.7246 L -0.557134 -15.77 L -0.536244 -15.8153 L -0.515353 -15.8606 L -0.494461 -15.9059 L -0.473568 -15.9511 L -0.452674 -15.9963 L -0.431779 -16.0415 L -0.410883 -16.0866 L -0.389986 -16.1317 L -0.369089 -16.1768 L -0.348191 -16.2219 L -0.327292 -16.2669 L -0.306393 -16.3119 L -0.285493 -16.3568 L -0.264593 -16.4018 L -0.243693 -16.4467 L -0.222791 -16.4916 L -0.20189 -16.5364 L -0.180988 -16.5812 L -0.160086 -16.626 L -0.139184 -16.6708 L -0.118281 -16.7155 L -0.0973782 -16.7603 L -0.0764753 -16.8049 L -0.0555722 -16.8496 L -0.034669 -16.8942 L -0.0137658 -16.9388 L 0.00713745 -16.9834 L 0.0280407 -17.028 L 0.0489439 -17.0725 L 0.069847 -17.117 L 0.09075 -17.1615 L 0.111653 -17.206 L 0.132556 -17.2504 L 0.153458 -17.2948 L 0.17436 -17.3392 L 0.195263 -17.3835 L 0.216164 -17.4279 L 0.237066 -17.4722 L 0.257967 -17.5165 L 0.278868 -17.5607 L 0.299768 -17.605 L 0.320668 -17.6492 L 0.341568 -17.6934 L 0.362467 -17.7376 L 0.383366 -17.7817 L 0.404264 -17.8258 L 0.418071 -17.8701 L 0.462636 -17.869 L 0.507198 -17.8678 L 0.551756 -17.8665 L 0.596312 -17.8651 L 0.640863 -17.8635 L 0.685411 -17.8619 L 0.729954 -17.8601 L 0.774493 -17.8582 L 0.819027 -17.8562 L 0.863556 -17.8541 L 0.908079 -17.8519 L 0.952597 -17.8496 L 0.997109 -17.8472 L 1.04162 -17.8446 L 1.08611 -17.842 L 1.13061 -17.8392 L 1.17509 -17.8363 L 1.21957 -17.8333 L 1.26404 -17.8303 L 1.3085 -17.827 L 1.35296 -17.8237 L 1.3974 -17.8203 L 1.44184 -17.8168 L 1.48627 -17.8131 L 1.53069 -17.8093 L 1.5751 -17.8055 L 1.72347 -17.7917 L 1.76783 -17.7874 L 1.81218 -17.7829 L 1.85653 -17.7783 L 1.90086 -17.7736 L 1.94518 -17.7688 L 1.98949 -17.7639 L 2.03378 -17.7589 L 2.07806 -17.7538 L 2.12233 -17.7486 L 2.16659 -17.7432 L 2.21083 -17.7378 L 2.25506 -17.7322 L 2.29928 -17.7265 L 2.34348 -17.7207 L 2.38766 -17.7148 L 2.43184 -17.7088 L 2.47599 -17.7027 L 2.52013 -17.6965 L 2.56426 -17.6901 L 2.60837 -17.6837 L 2.65246 -17.6771 L 2.69654 -17.6704 L 2.7406 -17.6637 L 2.78464 -17.6568 L 2.82866 -17.6498 L 2.87267 -17.6427 L 2.87811 -17.5966 L 2.89054 -17.5494 L 2.90297 -17.5021 L 2.9154 -17.4549 L 2.92782 -17.4076 L 2.94024 -17.3603 L 2.95266 -17.313 L 2.96507 -17.2656 L 2.97748 -17.2183 L 2.98988 -17.1709 L 3.00228 -17.1234 L 3.01467 -17.076 L 3.02707 -17.0285 L 3.03945 -16.981 L 3.05184 -16.9335 L 3.06421 -16.886 L 3.07659 -16.8384 L 3.08896 -16.7908 L 3.10132 -16.7432 L 3.11368 -16.6956 L 3.12604 -16.6479 L 3.13839 -16.6002 L 3.15073 -16.5525 L 3.16307 -16.5048 L 3.17541 -16.457 L 3.18774 -16.4092 L 3.20007 -16.3614 L 3.21239 -16.3135 L 3.2247 -16.2657 L 3.23701 -16.2178 L 3.24932 -16.1698 L 3.26161 -16.1219 L 3.27391 -16.0739 L 3.28619 -16.0259 L 3.29848 -15.9778 L 3.31075 -15.9298 L 3.32302 -15.8817 L 3.33529 -15.8336 L 3.34754 -15.7854 L 3.3598 -15.7372 L 3.37204 -15.689 L 3.38428 -15.6408 L 3.39651 -15.5925 L 3.40874 -15.5442 L 3.42096 -15.4959 L 3.43317 -15.4475 L 3.44537 -15.3991 L 3.45757 -15.3507 L 3.46976 -15.3022 L 3.48195 -15.2537 L 3.49413 -15.2052 L 3.50629 -15.1566 L 3.51846 -15.1081 L 3.53061 -15.0594 L 3.54276 -15.0108 L 3.5549 -14.9621 L 3.56703 -14.9134 L 3.57915 -14.8646 L 3.59126 -14.8158 L 3.60337 -14.767 L 3.61547 -14.7182 L 3.62755 -14.6693 L 3.63963 -14.6203 L 3.65171 -14.5714 L 3.66377 -14.5224 L 3.67582 -14.4733 L 3.68786 -14.4243 L 3.6999 -14.3752 L 3.71192 -14.326 L 3.72394 -14.2768 L 3.73594 -14.2276 L 3.74794 -14.1784 L 3.75992 -14.1291 L 3.7719 -14.0797 L 3.78386 -14.0303 L 3.79581 -13.9809 L 3.80776 -13.9315 L 3.81969 -13.882 L 3.83161 -13.8324 L 3.84352 -13.7829 L 3.85541 -13.7332 L 3.8673 -13.6836 L 3.87917 -13.6339 L 3.87917 -13.6339 L 3.91543 -13.6699 L 3.95168 -13.7059 L 3.98792 -13.7418 L 4.02414 -13.7777 L 4.06036 -13.8135 L 4.09656 -13.8493 L 4.13274 -13.8851 L 4.16892 -13.9208 L 4.20509 -13.9565 L 4.24124 -13.9921 L 4.27738 -14.0277 L 4.31351 -14.0633 L 4.34963 -14.0988 L 4.38574 -14.1343 L 4.42183 -14.1698 L 4.45792 -14.2052 L 4.49399 -14.2406 L 4.53005 -14.2759 L 4.5661 -14.3112 L 4.60214 -14.3465 L 4.63817 -14.3817 L 4.67418 -14.4169 L 4.71019 -14.4521 L 4.74618 -14.4872 L 4.78217 -14.5223 L 4.81814 -14.5574 L 4.8541 -14.5924 L 4.89005 -14.6275 L 4.92599 -14.6624 L 4.96192 -14.6974 L 4.99783 -14.7323 L 5.03374 -14.7671 L 5.06964 -14.802 L 5.10552 -14.8368 L 5.1414 -14.8716 L 5.17726 -14.9063 L 5.21312 -14.9411 L 5.24896 -14.9757 L 5.28479 -15.0104 L 5.32061 -15.045 L 5.35643 -15.0796 L 5.39223 -15.1142 L 5.42802 -15.1488 L 5.4638 -15.1833 L 5.49957 -15.2178 L 5.53534 -15.2522 L 5.57109 -15.2867 L 5.60683 -15.3211 L 5.64256 -15.3554 L 5.67828 -15.3898 L 5.71399 -15.4241 L 5.74969 -15.4584 L 5.78539 -15.4927 L 5.82107 -15.5269 L 5.85674 -15.5611 L 5.8924 -15.5953 L 5.92806 -15.6295 L 5.9637 -15.6637 L 5.99934 -15.6978 L 6.03496 -15.7319 L 6.07058 -15.7659 L 6.10618 -15.8 L 6.14178 -15.834 L 6.17737 -15.868 L 6.21294 -15.902 L 6.24851 -15.9359 L 6.28407 -15.9698 L 6.31962 -16.0037 L 6.35517 -16.0376 L 6.3907 -16.0715 L 6.42622 -16.1053 L 6.46174 -16.1391 L 6.49724 -16.1729 L 6.53274 -16.2067 L 6.56823 -16.2404 L 6.60371 -16.2742 L 6.63918 -16.3079 L 6.67464 -16.3415 L 6.71009 -16.3752 L 6.74554 -16.4088 L 6.78097 -16.4425 L 6.8164 -16.4761 L 6.84527 -16.5124 L 6.88643 -16.4952 L 6.92754 -16.478 L 6.96862 -16.4607 L 7.00964 -16.4433 L 7.05063 -16.4257 L 7.09157 -16.4081 L 7.13247 -16.3903 L 7.17332 -16.3725 L 7.21413 -16.3546 L 7.2549 -16.3365 L 7.29562 -16.3184 L 7.33629 -16.3001 L 7.37692 -16.2818 L 7.4175 -16.2633 L 7.45804 -16.2448 L 7.49852 -16.2261 L 7.53897 -16.2074 L 7.57936 -16.1885 L 7.61971 -16.1696 L 7.66001 -16.1505 L 7.70027 -16.1314 L 7.74047 -16.1121 L 7.78063 -16.0928 L 7.82074 -16.0733 L 7.8608 -16.0538 L 7.90081 -16.0341 L 8.03419 -15.9677 L 8.07399 -15.9476 L 8.11374 -15.9274 L 8.15343 -15.9071 L 8.19308 -15.8868 L 8.23267 -15.8663 L 8.27222 -15.8457 L 8.31171 -15.825 L 8.35115 -15.8042 L 8.39054 -15.7834 L 8.42987 -15.7624 L 8.46916 -15.7413 L 8.50839 -15.7201 L 8.54756 -15.6989 L 8.58669 -15.6775 L 8.62576 -15.656 L 8.66478 -15.6345 L 8.70374 -15.6128 L 8.74265 -15.5911 L 8.78151 -15.5692 L 8.82031 -15.5473 L 8.85905 -15.5252 L 8.89774 -15.5031 L 8.93638 -15.4809 L 8.97496 -15.4585 L 9.01348 -15.4361 L 9.05195 -15.4136 L 9.04038 -15.3687 L 9.03492 -15.3201 L 9.02945 -15.2716 L 9.02396 -15.223 L 9.01847 -15.1745 L 9.01296 -15.1259 L 9.00744 -15.0772 L 9.00191 -15.0286 L 8.99636 -14.98 L 8.99081 -14.9313 L 8.98524 -14.8826 L 8.97966 -14.8339 L 8.97407 -14.7851 L 8.96846 -14.7364 L 8.96284 -14.6876 L 8.95721 -14.6388 L 8.95157 -14.59 L 8.94591 -14.5411 L 8.94024 -14.4922 L 8.93456 -14.4434 L 8.92886 -14.3945 L 8.92315 -14.3455 L 8.91742 -14.2966 L 8.91168 -14.2476 L 8.90593 -14.1986 L 8.90017 -14.1496 L 8.89438 -14.1005 L 8.88859 -14.0515 L 8.88278 -14.0024 L 8.87695 -13.9533 L 8.87111 -13.9041 L 8.86526 -13.855 L 8.85939 -13.8058 L 8.8535 -13.7566 L 8.8476 -13.7073 L 8.84168 -13.6581 L 8.83575 -13.6088 L 8.8298 -13.5595 L 8.82384 -13.5102 L 8.81785 -13.4608 L 8.81186 -13.4114 L 8.80584 -13.362 L 8.79981 -13.3126 L 8.79376 -13.2631 L 8.78769 -13.2137 L 8.78161 -13.1642 L 8.77551 -13.1146 L 8.76939 -13.0651 L 8.76325 -13.0155 L 8.7571 -12.9658 L 8.75093 -12.9162 L 8.74473 -12.8665 L 8.73852 -12.8168 L 8.73229 -12.7671 L 8.72604 -12.7174 L 8.71978 -12.6676 L 8.71349 -12.6178 L 8.70718 -12.5679 L 8.70085 -12.518 L 8.6945 -12.4681 L 8.68814 -12.4182 L 8.68175 -12.3683 L 8.67534 -12.3183 L 8.6689 -12.2683 L 8.66245 -12.2182 L 8.65598 -12.1681 L 8.64948 -12.118 L 8.64296 -12.0679 L 8.63642 -12.0177 L 8.62986 -11.9675 L 8.62327 -11.9173 L 8.61666 -11.867 L 8.61003 -11.8167 L 8.60337 -11.7664 L 8.59669 -11.716 L 8.58998 -11.6656 L 8.58326 -11.6152 L 8.5765 -11.5647 L 8.56972 -11.5142 L 8.56292 -11.4637 L 8.55609 -11.4131 L 8.54923 -11.3625 L 8.54235 -11.3119 L 8.54235 -11.3119 L 8.58917 -11.3324 L 8.63596 -11.3528 L 8.68272 -11.3732 L 8.72947 -11.3936 L 8.77618 -11.4139 L 8.82287 -11.4342 L 8.86953 -11.4545 L 8.91617 -11.4748 L 8.96278 -11.495 L 9.00937 -11.5151 L 9.05594 -11.5353 L 9.10247 -11.5554 L 9.14899 -11.5755 L 9.19548 -11.5955 L 9.24194 -11.6156 L 9.28839 -11.6355 L 9.3348 -11.6555 L 9.3812 -11.6754 L 9.42757 -11.6953 L 9.47392 -11.7152 L 9.52024 -11.7351 L 9.56654 -11.7549 L 9.61282 -11.7747 L 9.65908 -11.7944 L 9.70531 -11.8142 L 9.75152 -11.8339 L 9.79771 -11.8535 L 9.84388 -11.8732 L 9.89002 -11.8928 L 9.93615 -11.9124 L 9.98225 -11.932 L 10.0283 -11.9516 L 10.0744 -11.9711 L 10.1204 -11.9906 L 10.1664 -12.01 L 10.2124 -12.0295 L 10.2584 -12.0489 L 10.3044 -12.0683 L 10.3503 -12.0877 L 10.3962 -12.107 L 10.4421 -12.1264 L 10.488 -12.1457 L 10.5338 -12.165 L 10.5797 -12.1842 L 10.6255 -12.2035 L 10.6713 -12.2227 L 10.7171 -12.2419 L 10.7628 -12.261 L 10.8086 -12.2802 L 10.8543 -12.2993 L 10.9 -12.3184 L 10.9457 -12.3375 L 10.9913 -12.3566 L 11.037 -12.3756 L 11.0826 -12.3946 L 11.1282 -12.4136 L 11.1738 -12.4326 L 11.2194 -12.4516 L 11.2649 -12.4705 L 11.3104 -12.4894 L 11.356 -12.5084 L 11.4015 -12.5272 L 11.4469 -12.5461 L 11.4924 -12.5649 L 11.5379 -12.5838 L 11.5833 -12.6026 L 11.6287 -12.6214 L 11.6741 -12.6401 L 11.7195 -12.6589 L 11.7648 -12.6776 L 11.8102 -12.6963 L 11.8555 -12.715 L 11.9008 -12.7337 L 11.9461 -12.7524 L 11.9914 -12.771 L 12.0367 -12.7897 L 12.0819 -12.8083 L 12.1272 -12.8269 L 12.1724 -12.8455 L 12.2176 -12.864 L 12.2628 -12.8826 L 12.3079 -12.9011 L 12.348 -12.9245 L 12.3802 -12.8937 L 12.4123 -12.8628 L 12.4443 -12.8318 L 12.4763 -12.8007 L 12.5082 -12.7695 L 12.54 -12.7383 L 12.5717 -12.707 L 12.6034 -12.6756 L 12.6349 -12.6441 L 12.6664 -12.6126 L 12.6978 -12.581 L 12.7292 -12.5493 L 12.7604 -12.5175 L 12.7916 -12.4856 L 12.8227 -12.4537 L 12.8537 -12.4216 L 12.8847 -12.3896 L 12.9155 -12.3574 L 12.9463 -12.3251 L 12.977 -12.2928 L 13.0076 -12.2604 L 13.0381 -12.2279 L 13.0686 -12.1954 L 13.099 -12.1627 L 13.1293 -12.13 L 13.1595 -12.0973 L 13.2599 -11.9871 L 13.2897 -11.954 L 13.3195 -11.9209 L 13.3492 -11.8876 L 13.3788 -11.8543 L 13.4083 -11.8209 L 13.4377 -11.7874 L 13.4671 -11.7539 L 13.4964 -11.7202 L 13.5255 -11.6865 L 13.5547 -11.6528 L 13.5837 -11.6189 L 13.6126 -11.585 L 13.6415 -11.551 L 13.6702 -11.517 L 13.6989 -11.4828 L 13.7275 -11.4486 L 13.756 -11.4144 L 13.7844 -11.38 L 13.8128 -11.3456 L 13.841 -11.3111 L 13.8692 -11.2766 L 13.8973 -11.242 L 13.9253 -11.2073 L 13.9532 -11.1725 L 13.981 -11.1377 L 14.0087 -11.1028 L 13.9817 -11.0651 L 13.9591 -11.0218 L 13.9364 -10.9785 L 13.9138 -10.9352 L 13.8911 -10.8919 L 13.8684 -10.8486 L 13.8457 -10.8053 L 13.823 -10.7619 L 13.8002 -10.7185 L 13.7775 -10.6751 L 13.7547 -10.6317 L 13.7319 -10.5883 L 13.7091 -10.5449 L 13.6862 -10.5015 L 13.6634 -10.458 L 13.6405 -10.4145 L 13.6176 -10.3711 L 13.5947 -10.3276 L 13.5717 -10.284 L 13.5488 -10.2405 L 13.5258 -10.197 L 13.5028 -10.1534 L 13.4798 -10.1098 L 13.4567 -10.0662 L 13.4337 -10.0226 L 13.4106 -9.97898 L 13.3875 -9.93533 L 13.3643 -9.89167 L 13.3412 -9.848 L 13.318 -9.80431 L 13.2948 -9.7606 L 13.2716 -9.71687 L 13.2484 -9.67313 L 13.2251 -9.62937 L 13.2018 -9.5856 L 13.1785 -9.54181 L 13.1552 -9.498 L 13.1318 -9.45417 L 13.1084 -9.41033 L 13.085 -9.36646 L 13.0616 -9.32258 L 13.0381 -9.27869 L 13.0146 -9.23477 L 12.9911 -9.19084 L 12.9676 -9.14689 L 12.944 -9.10292 L 12.9205 -9.05893 L 12.8969 -9.01493 L 12.8732 -8.9709 L 12.8496 -8.92686 L 12.8259 -8.8828 L 12.8021 -8.83872 L 12.7784 -8.79462 L 12.7546 -8.7505 L 12.7308 -8.70637 L 12.707 -8.66221 L 12.6831 -8.61803 L 12.6593 -8.57384 L 12.6353 -8.52962 L 12.6114 -8.48539 L 12.5874 -8.44113 L 12.5634 -8.39686 L 12.5394 -8.35256 L 12.5153 -8.30824 L 12.4912 -8.26391 L 12.4671 -8.21955 L 12.4429 -8.17517 L 12.4187 -8.13077 L 12.3945 -8.08635 L 12.3703 -8.04191 L 12.346 -7.99745 L 12.3217 -7.95296 L 12.2973 -7.90846 L 12.2729 -7.86393 L 12.2485 -7.81938 L 12.224 -7.77481 L 12.1995 -7.73021 L 12.175 -7.6856 L 12.1504 -7.64096 L 12.1258 -7.5963 L 12.1012 -7.55161 L 12.0765 -7.50691 L 12.0518 -7.46218 L 12.0518 -7.46218 L 12.1029 -7.46436 L 12.1539 -7.46652 L 12.2049 -7.46865 L 12.2558 -7.47077 L 12.3067 -7.47286 L 12.3576 -7.47493 L 12.4084 -7.47697 L 12.4592 -7.479 L 12.51 -7.48101 L 12.5607 -7.48299 L 12.6114 -7.48495 L 12.6621 -7.4869 L 12.7127 -7.48882 L 12.7633 -7.49072 L 12.8139 -7.49261 L 12.8644 -7.49447 L 12.9149 -7.49632 L 12.9654 -7.49814 L 13.0158 -7.49995 L 13.0662 -7.50174 L 13.1166 -7.50351 L 13.1669 -7.50526 L 13.2172 -7.507 L 13.2675 -7.50872 L 13.3177 -7.51042 L 13.3679 -7.5121 L 13.4181 -7.51376 L 13.4682 -7.51541 L 13.5184 -7.51704 L 13.5684 -7.51866 L 13.6185 -7.52026 L 13.6685 -7.52184 L 13.7185 -7.52341 L 13.7685 -7.52496 L 13.8185 -7.52649 L 13.8684 -7.52801 L 13.9183 -7.52952 L 13.9681 -7.53101 L 14.018 -7.53248 L 14.0678 -7.53394 L 14.1175 -7.53538 L 14.1673 -7.53681 L 14.217 -7.53823 L 14.2667 -7.53963 L 14.3164 -7.54102 L 14.366 -7.5424 L 14.4156 -7.54376 L 14.4652 -7.5451 L 14.5148 -7.54644 L 14.5643 -7.54776 L 14.6138 -7.54906 L 14.6633 -7.55036 L 14.7128 -7.55164 L 14.7622 -7.55291 L 14.8117 -7.55417 L 14.8611 -7.55541 L 14.9104 -7.55664 L 14.9598 -7.55786 L 15.0091 -7.55907 L 15.0584 -7.56026 L 15.1077 -7.56145 L 15.1569 -7.56262 L 15.2061 -7.56378 L 15.2553 -7.56493 L 15.3045 -7.56606 L 15.3537 -7.56719 L 15.4028 -7.56831 L 15.4519 -7.56941 L 15.501 -7.5705 L 15.5501 -7.57159 L 15.5991 -7.57266 L 15.6481 -7.57372 L 15.6971 -7.57477 L 15.7461 -7.57581 L 15.7951 -7.57684 L 15.844 -7.57786 L 15.8929 -7.57887 L 15.9418 -7.57987 L 15.9907 -7.58086 L 16.0396 -7.58184 L 16.0884 -7.58282 L 16.1372 -7.58378 L 16.183 -7.59115 L 16.2019 -7.55077 L 16.2207 -7.51034 L 16.2394 -7.46986 L 16.2579 -7.42934 L 16.2764 -7.38877 L 16.2948 -7.34816 L 16.3131 -7.3075 L 16.3312 -7.26679 L 16.3493 -7.22604 L 16.3673 -7.18525 L 16.3851 -7.14441 L 16.4029 -7.10352 L 16.4206 -7.06259 L 16.4381 -7.02162 L 16.4556 -6.9806 L 16.473 -6.93954 L 16.4902 -6.89844 L 16.5074 -6.85729 L 16.5244 -6.8161 L 16.5414 -6.77487 L 16.5582 -6.7336 L 16.575 -6.69228 L 16.5916 -6.65093 L 16.6081 -6.60953 L 16.6246 -6.56809 L 16.6409 -6.52661 L 16.6947 -6.38767 L 16.7106 -6.34601 L 16.7264 -6.30432 L 16.742 -6.26259 L 16.7576 -6.22081 L 16.7731 -6.179 L 16.7884 -6.13715 L 16.8037 -6.09527 L 16.8188 -6.05334 L 16.8339 -6.01138 L 16.8488 -5.96938 L 16.8636 -5.92734 L 16.8784 -5.88527 L 16.893 -5.84315 L 16.9075 -5.80101 L 16.9219 -5.75882 L 16.9362 -5.7166 L 16.9504 -5.67435 L 16.9645 -5.63206 L 16.9785 -5.58973 L 16.9924 -5.54737 L 17.0062 -5.50498 L 17.0199 -5.46255 L 17.0334 -5.42009 L 17.0469 -5.37759 L 17.0603 -5.33506 L 17.0735 -5.2925 L 17.0347 -5.2671 L 16.998 -5.23493 L 16.9612 -5.20274 L 16.9245 -5.17056 L 16.8877 -5.13836 L 16.8509 -5.10616 L 16.8141 -5.07395 L 16.7772 -5.04173 L 16.7403 -5.00951 L 16.7034 -4.97728 L 16.6665 -4.94504 L 16.6296 -4.9128 L 16.5926 -4.88055 L 16.5556 -4.84829 L 16.5186 -4.81603 L 16.4815 -4.78376 L 16.4445 -4.75148 L 16.4074 -4.71919 L 16.3703 -4.6869 L 16.3331 -4.6546 L 16.296 -4.6223 L 16.2588 -4.58998 L 16.2216 -4.55766 L 16.1844 -4.52534 L 16.1471 -4.493 L 16.1098 -4.46066 L 16.0725 -4.42831 L 16.0352 -4.39596 L 15.9978 -4.36359 L 15.9604 -4.33122 L 15.923 -4.29885 L 15.8855 -4.26646 L 15.8481 -4.23407 L 15.8106 -4.20167 L 15.773 -4.16926 L 15.7355 -4.13685 L 15.6979 -4.10443 L 15.6603 -4.072 L 15.6226 -4.03956 L 15.585 -4.00712 L 15.5473 -3.97466 L 15.5095 -3.9422 L 15.4718 -3.90974 L 15.434 -3.87726 L 15.3962 -3.84478 L 15.3583 -3.81229 L 15.3204 -3.77979 L 15.2825 -3.74729 L 15.2446 -3.71478 L 15.2066 -3.68226 L 15.1686 -3.64973 L 15.1306 -3.61719 L 15.0925 -3.58465 L 15.0544 -3.5521 L 15.0162 -3.51954 L 14.9781 -3.48697 L 14.9399 -3.4544 L 14.9016 -3.42181 L 14.8634 -3.38922 L 14.8251 -3.35662 L 14.7867 -3.32402 L 14.7483 -3.2914 L 14.7099 -3.25878 L 14.6715 -3.22615 L 14.633 -3.19351 L 14.5945 -3.16087 L 14.5559 -3.12821 L 14.5173 -3.09555 L 14.4787 -3.06288 L 14.44 -3.0302 L 14.4013 -2.99752 L 14.3625 -2.96482 L 14.3238 -2.93212 L 14.2849 -2.89941 L 14.2461 -2.86669 L 14.2072 -2.83396 L 14.1682 -2.80123 L 14.1292 -2.76849 L 14.0902 -2.73573 L 14.0511 -2.70298 L 14.012 -2.67021 L 13.9728 -2.63743 L 13.9336 -2.60465 L 13.9336 -2.60465 L 13.982 -2.58824 L 14.0304 -2.57182 L 14.0787 -2.5554 L 14.127 -2.53897 L 14.1752 -2.52253 L 14.2234 -2.50608 L 14.2715 -2.48962 L 14.3196 -2.47316 L 14.3677 -2.45669 L 14.4157 -2.44022 L 14.4637 -2.42374 L 14.5116 -2.40725 L 14.5595 -2.39075 L 14.6074 -2.37425 L 14.6552 -2.35774 L 14.703 -2.34123 L 14.7508 -2.32471 L 14.7985 -2.30818 L 14.8462 -2.29165 L 14.8938 -2.27511 L 14.9414 -2.25857 L 14.989 -2.24202 L 15.0365 -2.22547 L 15.084 -2.20891 L 15.1315 -2.19235 L 15.1789 -2.17578 L 15.2263 -2.1592 L 15.2736 -2.14262 L 15.321 -2.12604 L 15.3683 -2.10945 L 15.4155 -2.09286 L 15.4627 -2.07626 L 15.5099 -2.05966 L 15.5571 -2.04305 L 15.6042 -2.02644 L 15.6513 -2.00983 L 15.6984 -1.99321 L 15.7454 -1.97659 L 15.7924 -1.95996 L 15.8394 -1.94333 L 15.8863 -1.9267 L 15.9332 -1.91006 L 15.9801 -1.89342 L 16.0269 -1.87677 L 16.0738 -1.86012 L 16.1205 -1.84347 L 16.1673 -1.82682 L 16.214 -1.81016 L 16.2607 -1.79349 L 16.3074 -1.77683 L 16.354 -1.76016 L 16.4007 -1.74349 L 16.4472 -1.72682 L 16.4938 -1.71014 L 16.5403 -1.69346 L 16.5868 -1.67678 L 16.6333 -1.66009 L 16.6798 -1.6434 L 16.7262 -1.62671 L 16.7726 -1.61002 L 16.819 -1.59333 L 16.8653 -1.57663 L 16.9116 -1.55993 L 16.9579 -1.54322 L 17.0042 -1.52652 L 17.0505 -1.50981 L 17.0967 -1.4931 L 17.1429 -1.47639 L 17.189 -1.45968 L 17.2352 -1.44296 L 17.2813 -1.42624 L 17.3274 -1.40952 L 17.3735 -1.3928 L 17.4195 -1.37608 L 17.4656 -1.35935 L 17.5116 -1.34262 L 17.5575 -1.32589 L 17.6035 -1.30916 L 17.6494 -1.29243 L 17.6953 -1.27569 L 17.7412 -1.25896 L 17.7871 -1.24222 L 17.8325 -1.23256 L 17.8355 -1.18808 L 17.8384 -1.1436 L 17.8412 -1.09911 L 17.8439 -1.05461 L 17.8464 -1.01011 L 17.8489 -0.965597 L 17.8513 -0.921081 L 17.8535 -0.876559 L 17.8556 -0.832032 L 17.8576 -0.787499 L 17.8596 -0.742962 L 17.8614 -0.69842 L 17.863 -0.653873 L 17.8646 -0.609323 L 17.8661 -0.564768 L 17.8674 -0.520211 L 17.8687 -0.47565 L 17.8698 -0.431086 L 17.8708 -0.386519 L 17.8717 -0.34195 L 17.8725 -0.297379 L 17.8732 -0.252806 L 17.8738 -0.208231 L 17.8743 -0.163655 L 17.8746 -0.119078 L 17.8748 -0.0745008Z"
id="path1" />
</g>
</svg>
