<?xml version="1.0" encoding="UTF-8" standalone="no"?>
<svg version="1.1">
<g
style="fill:none;stroke:#000000;stroke-opacity:1;stroke-width:0.1">
<path d="M 17.8749 0.0467559 L 17.8748 0.0909363 L 17.8745 0.135116 L 17.8741 0.179295 L 17.8736 0.223473 L 17.873 0.26765 L 17.8723 0.311825 L 17.8715 0.355998 L 17.8705 0.400168 L 17.8695 0.444337 L 17.8683 0.488502 L 17.8671 0.532665 L 17.8657 0.576824 L 17.8642 0.62098 L 17.8626 0.665133 L 17.8609 0.709281 L 17.8591 0.753424 L 17.8572 0.797563 L 17.8552 0.841698 L 17.853 0.885827 L 17.8508 0.92995 L 17.8484 0.974068 L 17.846 1.01818 L 17.8434 1.06229 L 17.8407 1.10639 L 17.8379 1.15048 L 17.835 1.19456 L 17.832 1.23864 L 17.7871 1.24824 L 17.7416 1.26498 L 17.6961 1.28172 L 17.6506 1.29845 L 17.605 1.31519 L 17.5595 1.33192 L 17.5139 1.34865 L 17.4683 1.36537 L 17.4226 1.3821 L 17.377 1.39882 L 17.3313 1.41555 L 17.2856 1.43227 L 17.2399 1.44899 L 17.1941 1.4657 L 17.1483 1.48242 L 17.1025 1.49913 L 17.0567 1.51584 L 17.0109 1.53255 L 16.965 1.54925 L 16.9191 1.56595 L 16.8731 1.58266 L 16.8272 1.59935 L 16.7812 1.61605 L 16.7352 1.63274 L 16.6892 1.64943 L 16.6431 1.66612 L 16.597 1.68281 L 16.5509 1.69949 L 16.5048 1.71617 L 16.4586 1.73285 L 16.4124 1.74952 L 16.3662 1.76619 L 16.3199 1.78286 L 16.2737 1.79953 L 16.2274 1.81619 L 16.181 1.83285 L 16.1347 1.8495 L 16.0883 1.86615 L 16.0418 1.8828 L 15.9954 1.89945 L 15.9489 1.91609 L 15.9024 1.93273 L 15.8558 1.94936 L 15.8093 1.96599 L 15.7627 1.98262 L 15.716 1.99924 L 15.6694 2.01586 L 15.6227 2.03248 L 15.5759 2.04909 L 15.5292 2.0657 L 15.4824 2.0823 L 15.4356 2.0989 L 15.3887 2.11549 L 15.3418 2.13208 L 15.2949 2.14866 L 15.2479 2.16524 L 15.2009 2.18182 L 15.1539 2.19839 L 15.1068 2.21495 L 15.0597 2.23151 L 15.0126 2.24806 L 14.9654 2.26461 L 14.9182 2.28116 L 14.871 2.29769 L 14.8237 2.31423 L 14.7764 2.33075 L 14.729 2.34727 L 14.6816 2.36379 L 14.6342 2.3803 L 14.5867 2.3968 L 14.5392 2.4133 L 14.4917 2.42979 L 14.4441 2.44627 L 14.3965 2.46275 L 14.3488 2.47922 L 14.3011 2.49568 L 14.2534 2.51213 L 14.2056 2.52858 L 14.1578 2.54502 L 14.1099 2.56146 L 14.062 2.57788 L 14.0141 2.5943 L 13.9661 2.61071 L 13.9661 2.61071 L 14.0049 2.64335 L 14.0437 2.67598 L 14.0824 2.70861 L 14.1211 2.74122 L 14.1598 2.77383 L 14.1984 2.80643 L 14.237 2.83902 L 14.2755 2.8716 L 14.314 2.90417 L 14.3524 2.93674 L 14.3908 2.9693 L 14.4292 3.00185 L 14.4676 3.03439 L 14.5059 3.06693 L 14.5441 3.09945 L 14.5823 3.13197 L 14.6205 3.16448 L 14.6587 3.19698 L 14.6968 3.22948 L 14.7349 3.26197 L 14.7729 3.29445 L 14.8109 3.32692 L 14.8489 3.35938 L 14.8868 3.39183 L 14.9247 3.42428 L 14.9626 3.45672 L 15.0004 3.48915 L 15.0382 3.52158 L 15.076 3.55399 L 15.1137 3.5864 L 15.1514 3.6188 L 15.1891 3.6512 L 15.2267 3.68358 L 15.2643 3.71596 L 15.3019 3.74833 L 15.3395 3.78069 L 15.377 3.81305 L 15.4145 3.84539 L 15.4519 3.87773 L 15.4893 3.91007 L 15.5267 3.94239 L 15.5641 3.97471 L 15.6014 4.00702 L 15.6387 4.03932 L 15.676 4.07161 L 15.7132 4.1039 L 15.7505 4.13618 L 15.7876 4.16845 L 15.8248 4.20072 L 15.8619 4.23297 L 15.899 4.26522 L 15.9361 4.29747 L 15.9732 4.3297 L 16.0102 4.36193 L 16.0472 4.39415 L 16.0842 4.42637 L 16.1211 4.45857 L 16.158 4.49077 L 16.1949 4.52297 L 16.2318 4.55515 L 16.2686 4.58733 L 16.3055 4.6195 L 16.3423 4.65166 L 16.379 4.68382 L 16.4158 4.71597 L 16.4525 4.74811 L 16.4892 4.78025 L 16.5259 4.81238 L 16.5625 4.8445 L 16.5991 4.87662 L 16.6357 4.90873 L 16.6723 4.94083 L 16.7089 4.97292 L 16.7454 5.00501 L 16.7819 5.03709 L 16.8184 5.06917 L 16.8549 5.10124 L 16.8913 5.1333 L 16.9277 5.16535 L 16.9641 5.1974 L 17.0005 5.22944 L 17.0369 5.26148 L 17.0753 5.28667 L 17.0622 5.32886 L 17.049 5.37102 L 17.0357 5.41314 L 17.0222 5.45523 L 17.0087 5.49729 L 16.995 5.53931 L 16.9813 5.5813 L 16.9675 5.62325 L 16.9535 5.66517 L 16.9395 5.70706 L 16.9253 5.74891 L 16.911 5.79072 L 16.8967 5.83251 L 16.8822 5.87425 L 16.8676 5.91596 L 16.853 5.95763 L 16.8382 5.99927 L 16.8233 6.04087 L 16.8083 6.08243 L 16.7932 6.12396 L 16.778 6.16544 L 16.7628 6.2069 L 16.7474 6.24831 L 16.7319 6.28968 L 16.7163 6.33102 L 16.7006 6.37232 L 16.6848 6.41357 L 16.651 6.50077 L 16.6349 6.54191 L 16.6187 6.583 L 16.6023 6.62406 L 16.5859 6.66507 L 16.5694 6.70605 L 16.5528 6.74698 L 16.536 6.78787 L 16.5192 6.82872 L 16.5023 6.86953 L 16.4852 6.9103 L 16.4681 6.95102 L 16.4509 6.9917 L 16.4336 7.03234 L 16.4161 7.07294 L 16.3986 7.11349 L 16.381 7.154 L 16.3632 7.19447 L 16.3454 7.23489 L 16.3275 7.27527 L 16.3094 7.3156 L 16.2913 7.35589 L 16.2731 7.39614 L 16.2547 7.43633 L 16.2363 7.47649 L 16.2178 7.5166 L 16.1992 7.55666 L 16.1804 7.59667 L 16.135 7.58938 L 16.0866 7.58857 L 16.0381 7.58774 L 15.9896 7.5869 L 15.9411 7.58605 L 15.8926 7.58519 L 15.844 7.58432 L 15.7955 7.58344 L 15.7469 7.58255 L 15.6982 7.58166 L 15.6496 7.58075 L 15.6009 7.57983 L 15.5523 7.5789 L 15.5036 7.57796 L 15.4548 7.577 L 15.4061 7.57604 L 15.3573 7.57507 L 15.3085 7.57408 L 15.2597 7.57309 L 15.2109 7.57208 L 15.162 7.57106 L 15.1131 7.57003 L 15.0642 7.56899 L 15.0153 7.56794 L 14.9663 7.56688 L 14.9174 7.5658 L 14.8684 7.56471 L 14.8193 7.56361 L 14.7703 7.56249 L 14.7212 7.56137 L 14.6721 7.56023 L 14.623 7.55908 L 14.5738 7.55791 L 14.5247 7.55673 L 14.4755 7.55554 L 14.4263 7.55434 L 14.377 7.55312 L 14.3277 7.55189 L 14.2784 7.55064 L 14.2291 7.54938 L 14.1797 7.54811 L 14.1304 7.54682 L 14.0809 7.54552 L 14.0315 7.5442 L 13.982 7.54287 L 13.9326 7.54153 L 13.883 7.54016 L 13.8335 7.53879 L 13.7839 7.5374 L 13.7343 7.53599 L 13.6847 7.53457 L 13.635 7.53313 L 13.5853 7.53167 L 13.5356 7.5302 L 13.4859 7.52871 L 13.4361 7.52721 L 13.3863 7.52569 L 13.3364 7.52415 L 13.2866 7.52259 L 13.2367 7.52102 L 13.1867 7.51943 L 13.1368 7.51782 L 13.0868 7.5162 L 13.0367 7.51455 L 12.9867 7.51289 L 12.9366 7.51121 L 12.8865 7.50951 L 12.8363 7.50779 L 12.7861 7.50605 L 12.7359 7.50429 L 12.6857 7.50251 L 12.6354 7.50071 L 12.585 7.4989 L 12.5347 7.49706 L 12.4843 7.4952 L 12.4339 7.49332 L 12.3834 7.49142 L 12.3329 7.48949 L 12.2824 7.48755 L 12.2318 7.48558 L 12.1812 7.48359 L 12.1306 7.48158 L 12.0799 7.47955 L 12.0799 7.47955 L 12.1043 7.52401 L 12.1287 7.56844 L 12.153 7.61286 L 12.1773 7.65725 L 12.2016 7.70162 L 12.2258 7.74596 L 12.25 7.79029 L 12.2742 7.83459 L 12.2983 7.87887 L 12.3224 7.92313 L 12.3464 7.96736 L 12.3705 8.01158 L 12.3945 8.05577 L 12.4184 8.09994 L 12.4423 8.1441 L 12.4662 8.18823 L 12.4901 8.23234 L 12.5139 8.27643 L 12.5377 8.32049 L 12.5615 8.36454 L 12.5852 8.40857 L 12.6089 8.45258 L 12.6326 8.49657 L 12.6563 8.54053 L 12.6799 8.58448 L 12.7035 8.62841 L 12.7271 8.67232 L 12.7506 8.71621 L 12.7741 8.76008 L 12.7976 8.80393 L 12.821 8.84776 L 12.8445 8.89158 L 12.8678 8.93537 L 12.8912 8.97915 L 12.9146 9.0229 L 12.9379 9.06664 L 12.9612 9.11036 L 12.9844 9.15407 L 13.0077 9.19775 L 13.0309 9.24142 L 13.0541 9.28507 L 13.0772 9.3287 L 13.1004 9.37231 L 13.1235 9.41591 L 13.1466 9.45949 L 13.1697 9.50305 L 13.1927 9.54659 L 13.2157 9.59012 L 13.2387 9.63363 L 13.2617 9.67712 L 13.2846 9.7206 L 13.3076 9.76406 L 13.3305 9.8075 L 13.3534 9.85093 L 13.3762 9.89434 L 13.3991 9.93774 L 13.4219 9.98111 L 13.4447 10.0245 L 13.4674 10.0678 L 13.4902 10.1112 L 13.5129 10.1545 L 13.5356 10.1978 L 13.5583 10.2411 L 13.581 10.2843 L 13.6036 10.3276 L 13.6263 10.3708 L 13.6489 10.414 L 13.6715 10.4572 L 13.694 10.5004 L 13.7166 10.5436 L 13.7391 10.5868 L 13.7616 10.6299 L 13.7841 10.6731 L 13.8066 10.7162 L 13.8291 10.7593 L 13.8515 10.8024 L 13.8739 10.8454 L 13.8963 10.8885 L 13.9187 10.9316 L 13.9411 10.9746 L 13.9634 11.0176 L 13.9857 11.0606 L 14.0125 11.098 L 13.985 11.1326 L 13.9575 11.1671 L 13.9298 11.2016 L 13.9021 11.236 L 13.8743 11.2703 L 13.8464 11.3046 L 13.8184 11.3388 L 13.7903 11.3729 L 13.7622 11.4069 L 13.7339 11.4409 L 13.7056 11.4748 L 13.6772 11.5087 L 13.6487 11.5424 L 13.6202 11.5761 L 13.5915 11.6098 L 13.5628 11.6433 L 13.534 11.6768 L 13.5051 11.7102 L 13.4761 11.7436 L 13.447 11.7768 L 13.4178 11.81 L 13.3886 11.8432 L 13.3593 11.8762 L 13.3299 11.9092 L 13.3004 11.9421 L 13.2709 11.975 L 13.2412 12.0077 L 13.1782 12.0768 L 13.1484 12.1094 L 13.1184 12.1418 L 13.0883 12.1742 L 13.0582 12.2065 L 13.028 12.2388 L 12.9977 12.2709 L 12.9673 12.303 L 12.9369 12.335 L 12.9064 12.367 L 12.8757 12.3988 L 12.8451 12.4306 L 12.8143 12.4623 L 12.7835 12.494 L 12.7525 12.5255 L 12.7215 12.557 L 12.6905 12.5884 L 12.6593 12.6197 L 12.6281 12.651 L 12.5968 12.6821 L 12.5654 12.7132 L 12.5339 12.7443 L 12.5024 12.7752 L 12.4708 12.8061 L 12.4391 12.8368 L 12.4073 12.8676 L 12.3755 12.8982 L 12.3436 12.9287 L 12.3039 12.9055 L 12.259 12.8873 L 12.2141 12.869 L 12.1692 12.8507 L 12.1242 12.8324 L 12.0793 12.814 L 12.0343 12.7957 L 11.9894 12.7773 L 11.9444 12.7589 L 11.8994 12.7405 L 11.8543 12.7221 L 11.8093 12.7037 L 11.7642 12.6852 L 11.7192 12.6668 L 11.6741 12.6483 L 11.629 12.6298 L 11.5838 12.6112 L 11.5387 12.5927 L 11.4935 12.5741 L 11.4484 12.5556 L 11.4032 12.537 L 11.358 12.5183 L 11.3127 12.4997 L 11.2675 12.481 L 11.2222 12.4624 L 11.1769 12.4437 L 11.1317 12.425 L 11.0863 12.4062 L 11.041 12.3875 L 10.9956 12.3687 L 10.9503 12.3499 L 10.9049 12.3311 L 10.8595 12.3122 L 10.814 12.2934 L 10.7686 12.2745 L 10.7231 12.2556 L 10.6777 12.2366 L 10.6321 12.2177 L 10.5866 12.1987 L 10.5411 12.1797 L 10.4955 12.1607 L 10.4499 12.1417 L 10.4043 12.1226 L 10.3587 12.1035 L 10.3131 12.0844 L 10.2674 12.0653 L 10.2217 12.0461 L 10.176 12.0269 L 10.1303 12.0077 L 10.0846 11.9885 L 10.0388 11.9692 L 9.993 11.95 L 9.94719 11.9307 L 9.90136 11.9113 L 9.8555 11.892 L 9.80963 11.8726 L 9.76373 11.8532 L 9.71782 11.8337 L 9.67188 11.8143 L 9.62591 11.7948 L 9.57993 11.7753 L 9.53392 11.7557 L 9.48789 11.7361 L 9.44184 11.7165 L 9.39576 11.6969 L 9.34966 11.6772 L 9.30354 11.6575 L 9.25739 11.6378 L 9.21122 11.6181 L 9.16502 11.5983 L 9.1188 11.5785 L 9.07256 11.5586 L 9.02629 11.5388 L 8.98 11.5189 L 8.93368 11.4989 L 8.88734 11.4789 L 8.84097 11.4589 L 8.79458 11.4389 L 8.74816 11.4188 L 8.70172 11.3987 L 8.65525 11.3786 L 8.60875 11.3584 L 8.56223 11.3382 L 8.56223 11.3382 L 8.56893 11.3885 L 8.57561 11.4387 L 8.58226 11.4889 L 8.58888 11.5391 L 8.59548 11.5893 L 8.60206 11.6394 L 8.60861 11.6894 L 8.61513 11.7395 L 8.62163 11.7895 L 8.62811 11.8395 L 8.63456 11.8894 L 8.64099 11.9393 L 8.6474 11.9892 L 8.65378 12.039 L 8.66015 12.0888 L 8.66649 12.1386 L 8.6728 12.1884 L 8.6791 12.2381 L 8.68537 12.2878 L 8.69163 12.3374 L 8.69786 12.3871 L 8.70407 12.4367 L 8.71026 12.4862 L 8.71643 12.5358 L 8.72258 12.5853 L 8.72871 12.6348 L 8.73482 12.6842 L 8.74091 12.7337 L 8.74699 12.7831 L 8.75304 12.8324 L 8.75907 12.8818 L 8.76509 12.9311 L 8.77108 12.9804 L 8.77706 13.0297 L 8.78302 13.0789 L 8.78896 13.1281 L 8.79489 13.1773 L 8.8008 13.2264 L 8.80669 13.2756 L 8.81256 13.3247 L 8.81841 13.3737 L 8.82425 13.4228 L 8.83007 13.4718 L 8.83588 13.5208 L 8.84167 13.5698 L 8.84744 13.6188 L 8.8532 13.6677 L 8.85894 13.7166 L 8.86467 13.7655 L 8.87038 13.8143 L 8.87607 13.8632 L 8.88175 13.912 L 8.88741 13.9607 L 8.89306 14.0095 L 8.8987 14.0582 L 8.90432 14.107 L 8.90992 14.1556 L 8.91552 14.2043 L 8.92109 14.253 L 8.92666 14.3016 L 8.93221 14.3502 L 8.93774 14.3988 L 8.94326 14.4473 L 8.94877 14.4959 L 8.95427 14.5444 L 8.95975 14.5929 L 8.96522 14.6413 L 8.97067 14.6898 L 8.97612 14.7382 L 8.98155 14.7866 L 8.98697 14.835 L 8.99237 14.8834 L 8.99776 14.9317 L 9.00314 14.9801 L 9.00851 15.0284 L 9.01387 15.0766 L 9.01921 15.1249 L 9.02455 15.1732 L 9.02987 15.2214 L 9.03518 15.2696 L 9.04048 15.3178 L 9.04576 15.3659 L 9.05721 15.4105 L 9.01909 15.4328 L 8.98092 15.4551 L 8.94269 15.4772 L 8.90441 15.4993 L 8.86607 15.5212 L 8.82768 15.5431 L 8.78924 15.5649 L 8.75074 15.5865 L 8.71219 15.6081 L 8.67359 15.6296 L 8.63493 15.651 L 8.59622 15.6723 L 8.55746 15.6935 L 8.51864 15.7146 L 8.47978 15.7356 L 8.44086 15.7565 L 8.40189 15.7773 L 8.36286 15.798 L 8.32379 15.8187 L 8.28467 15.8392 L 8.24549 15.8596 L 8.20627 15.8799 L 8.167 15.9002 L 8.12767 15.9203 L 8.0883 15.9404 L 8.04887 15.9603 L 8.0094 15.9801 L 7.92569 16.0218 L 7.88607 16.0414 L 7.84639 16.0608 L 7.80667 16.0802 L 7.76691 16.0994 L 7.72709 16.1186 L 7.68723 16.1376 L 7.64732 16.1566 L 7.60736 16.1754 L 7.56736 16.1942 L 7.52731 16.2128 L 7.48721 16.2314 L 7.44707 16.2498 L 7.40688 16.2682 L 7.36665 16.2864 L 7.32638 16.3046 L 7.28605 16.3227 L 7.24569 16.3406 L 7.20528 16.3585 L 7.16482 16.3762 L 7.12433 16.3939 L 7.08378 16.4114 L 7.0432 16.4289 L 7.00257 16.4463 L 6.9619 16.4635 L 6.92119 16.4807 L 6.88043 16.4977 L 6.83963 16.5147 L 6.811 16.4787 L 6.77575 16.4455 L 6.74048 16.4122 L 6.70521 16.3789 L 6.66994 16.3456 L 6.63465 16.3123 L 6.59935 16.2789 L 6.56405 16.2456 L 6.52873 16.2122 L 6.49341 16.1787 L 6.45808 16.1453 L 6.42274 16.1118 L 6.38739 16.0784 L 6.35203 16.0449 L 6.31667 16.0113 L 6.28129 15.9778 L 6.2459 15.9442 L 6.21051 15.9106 L 6.17511 15.877 L 6.13969 15.8433 L 6.10427 15.8097 L 6.06884 15.776 L 6.0334 15.7423 L 5.99795 15.7085 L 5.96249 15.6747 L 5.92702 15.641 L 5.89154 15.6071 L 5.85606 15.5733 L 5.82056 15.5394 L 5.78505 15.5055 L 5.74953 15.4716 L 5.71401 15.4377 L 5.67847 15.4037 L 5.64293 15.3697 L 5.60737 15.3357 L 5.5718 15.3016 L 5.53623 15.2675 L 5.50064 15.2334 L 5.46505 15.1993 L 5.42944 15.1651 L 5.39382 15.1309 L 5.3582 15.0967 L 5.32256 15.0625 L 5.28691 15.0282 L 5.25126 14.9939 L 5.21559 14.9596 L 5.17991 14.9252 L 5.14422 14.8908 L 5.10852 14.8564 L 5.07282 14.8219 L 5.0371 14.7874 L 5.00136 14.7529 L 4.96562 14.7183 L 4.92987 14.6838 L 4.89411 14.6491 L 4.85833 14.6145 L 4.82255 14.5798 L 4.78676 14.5451 L 4.75095 14.5104 L 4.71513 14.4756 L 4.6793 14.4408 L 4.64346 14.4059 L 4.60761 14.371 L 4.57175 14.3361 L 4.53588 14.3012 L 4.5 14.2662 L 4.4641 14.2312 L 4.42819 14.1961 L 4.39228 14.161 L 4.35635 14.1259 L 4.3204 14.0907 L 4.28445 14.0555 L 4.24849 14.0202 L 4.21251 13.985 L 4.17653 13.9496 L 4.14053 13.9143 L 4.10452 13.8789 L 4.06849 13.8434 L 4.03246 13.808 L 3.99641 13.7724 L 3.96036 13.7369 L 3.92429 13.7013 L 3.8882 13.6656 L 3.8882 13.6656 L 3.87629 13.7149 L 3.86437 13.7642 L 3.85243 13.8134 L 3.84048 13.8626 L 3.82853 13.9117 L 3.81656 13.9608 L 3.80457 14.0099 L 3.79258 14.0589 L 3.78058 14.1079 L 3.76857 14.1568 L 3.75655 14.2057 L 3.74451 14.2546 L 3.73247 14.3034 L 3.72042 14.3522 L 3.70836 14.4009 L 3.69628 14.4496 L 3.6842 14.4983 L 3.67211 14.5469 L 3.66001 14.5955 L 3.6479 14.6441 L 3.63579 14.6926 L 3.62366 14.7411 L 3.61153 14.7896 L 3.59938 14.838 L 3.58723 14.8864 L 3.57507 14.9348 L 3.5629 14.9831 L 3.55073 15.0314 L 3.53855 15.0796 L 3.52635 15.1279 L 3.51416 15.176 L 3.50195 15.2242 L 3.48974 15.2723 L 3.47751 15.3204 L 3.46529 15.3685 L 3.45305 15.4165 L 3.44081 15.4645 L 3.42856 15.5125 L 3.4163 15.5604 L 3.40404 15.6083 L 3.39177 15.6562 L 3.3795 15.7041 L 3.36721 15.7519 L 3.35493 15.7997 L 3.34263 15.8474 L 3.33033 15.8952 L 3.31802 15.9429 L 3.30571 15.9906 L 3.29339 16.0382 L 3.28107 16.0858 L 3.26874 16.1334 L 3.2564 16.181 L 3.24406 16.2285 L 3.23172 16.276 L 3.21937 16.3235 L 3.20701 16.371 L 3.19465 16.4184 L 3.18228 16.4658 L 3.16991 16.5132 L 3.15753 16.5605 L 3.14515 16.6078 L 3.13276 16.6551 L 3.12037 16.7024 L 3.10797 16.7497 L 3.09557 16.7969 L 3.08317 16.8441 L 3.07076 16.8913 L 3.05834 16.9384 L 3.04592 16.9855 L 3.0335 17.0326 L 3.02107 17.0797 L 3.00864 17.1268 L 2.9962 17.1738 L 2.98376 17.2208 L 2.97132 17.2678 L 2.95887 17.3147 L 2.94642 17.3617 L 2.93396 17.4086 L 2.9215 17.4555 L 2.90904 17.5024 L 2.89657 17.5492 L 2.8841 17.596 L 2.87869 17.6417 L 2.83508 17.6487 L 2.79145 17.6557 L 2.7478 17.6625 L 2.70414 17.6693 L 2.66046 17.6759 L 2.61676 17.6824 L 2.57305 17.6888 L 2.52932 17.6951 L 2.48557 17.7013 L 2.44182 17.7074 L 2.39804 17.7134 L 2.35425 17.7193 L 2.31045 17.7251 L 2.26663 17.7307 L 2.2228 17.7363 L 2.17896 17.7417 L 2.1351 17.747 L 2.09123 17.7523 L 2.04734 17.7574 L 2.00345 17.7624 L 1.95954 17.7673 L 1.91562 17.7721 L 1.87169 17.7767 L 1.82774 17.7813 L 1.78379 17.7858 L 1.73982 17.7901 L 1.69585 17.7944 L 1.60273 17.803 L 1.55873 17.8069 L 1.51471 17.8107 L 1.47068 17.8144 L 1.42665 17.818 L 1.3826 17.8214 L 1.33855 17.8248 L 1.29449 17.8281 L 1.25042 17.8312 L 1.20635 17.8342 L 1.16226 17.8372 L 1.11817 17.84 L 1.07407 17.8427 L 1.02997 17.8453 L 0.98586 17.8478 L 0.941743 17.8502 L 0.897621 17.8524 L 0.853493 17.8546 L 0.80936 17.8567 L 0.765222 17.8586 L 0.72108 17.8604 L 0.676933 17.8622 L 0.632782 17.8638 L 0.588627 17.8653 L 0.544469 17.8667 L 0.500307 17.868 L 0.456142 17.8692 L 0.411974 17.8703 L 0.398265 17.8264 L 0.377403 17.7826 L 0.35654 17.7389 L 0.335676 17.6951 L 0.314813 17.6513 L 0.293948 17.6075 L 0.273084 17.5636 L 0.252219 17.5197 L 0.231354 17.4758 L 0.210488 17.4319 L 0.189622 17.388 L 0.168756 17.344 L 0.14789 17.3 L 0.127023 17.256 L 0.106156 17.212 L 0.0852892 17.1679 L 0.0644222 17.1238 L 0.043555 17.0797 L 0.0226878 17.0356 L 0.00182057 16.9914 L -0.0190467 16.9472 L -0.0399139 16.903 L -0.060781 16.8587 L -0.0816481 16.8145 L -0.102515 16.7702 L -0.123382 16.7258 L -0.144248 16.6815 L -0.165115 16.6371 L -0.185981 16.5927 L -0.206847 16.5483 L -0.227712 16.5038 L -0.248577 16.4593 L -0.269442 16.4148 L -0.290306 16.3703 L -0.311169 16.3257 L -0.332032 16.2811 L -0.352895 16.2365 L -0.373757 16.1918 L -0.394618 16.1471 L -0.415478 16.1024 L -0.436338 16.0577 L -0.457197 16.0129 L -0.478055 15.9681 L -0.498912 15.9232 L -0.519768 15.8784 L -0.540623 15.8335 L -0.561477 15.7885 L -0.58233 15.7436 L -0.603181 15.6986 L -0.624032 15.6535 L -0.644881 15.6085 L -0.665729 15.5634 L -0.686575 15.5182 L -0.70742 15.4731 L -0.728263 15.4279 L -0.749105 15.3827 L -0.769945 15.3374 L -0.790783 15.2921 L -0.811619 15.2468 L -0.832454 15.2014 L -0.853287 15.156 L -0.874117 15.1105 L -0.894946 15.0651 L -0.915772 15.0195 L -0.936596 14.974 L -0.957418 14.9284 L -0.978237 14.8828 L -0.999054 14.8371 L -1.01987 14.7914 L -1.04068 14.7457 L -1.06149 14.6999 L -1.0823 14.6541 L -1.1031 14.6082 L -1.1239 14.5623 L -1.1447 14.5164 L -1.16549 14.4704 L -1.18628 14.4244 L -1.20707 14.3783 L -1.22785 14.3322 L -1.24863 14.2861 L -1.26941 14.2399 L -1.29018 14.1937 L -1.31095 14.1474 L -1.31095 14.1474 L -1.33987 14.1891 L -1.36878 14.2307 L -1.39769 14.2723 L -1.42659 14.3138 L -1.4555 14.3553 L -1.48439 14.3968 L -1.51328 14.4382 L -1.54217 14.4796 L -1.57106 14.5209 L -1.59994 14.5622 L -1.62881 14.6034 L -1.65768 14.6446 L -1.68655 14.6858 L -1.71541 14.727 L -1.74427 14.7681 L -1.77312 14.8091 L -1.80197 14.8501 L -1.83081 14.8911 L -1.85965 14.9321 L -1.88849 14.973 L -1.91732 15.0139 L -1.94615 15.0547 L -1.97497 15.0955 L -2.00378 15.1363 L -2.03259 15.177 L -2.0614 15.2177 L -2.0902 15.2584 L -2.119 15.299 L -2.1478 15.3396 L -2.17658 15.3802 L -2.20537 15.4207 L -2.23415 15.4612 L -2.26292 15.5017 L -2.29169 15.5421 L -2.32046 15.5825 L -2.34922 15.6229 L -2.37797 15.6632 L -2.40672 15.7035 L -2.43547 15.7438 L -2.46421 15.784 L -2.49295 15.8242 L -2.52168 15.8644 L -2.55041 15.9046 L -2.57913 15.9447 L -2.60785 15.9848 L -2.63656 16.0249 L -2.66527 16.0649 L -2.69397 16.1049 L -2.72267 16.1449 L -2.75136 16.1848 L -2.78005 16.2248 L -2.80874 16.2647 L -2.83741 16.3045 L -2.86609 16.3444 L -2.89476 16.3842 L -2.92342 16.424 L -2.95209 16.4637 L -2.98074 16.5035 L -3.00939 16.5432 L -3.03804 16.5829 L -3.06668 16.6225 L -3.09532 16.6621 L -3.12395 16.7017 L -3.15258 16.7413 L -3.1812 16.7809 L -3.20982 16.8204 L -3.23843 16.8599 L -3.26704 16.8994 L -3.29564 16.9388 L -3.32424 16.9783 L -3.35284 17.0177 L -3.38143 17.0571 L -3.41001 17.0964 L -3.43859 17.1358 L -3.46717 17.1751 L -3.49574 17.2144 L -3.52431 17.2536 L -3.55287 17.2929 L -3.58143 17.3321 L -3.60998 17.3713 L -3.63853 17.4105 L -3.66707 17.4497 L -3.68861 17.4903 L -3.73183 17.4811 L -3.77502 17.4718 L -3.8182 17.4624 L -3.86135 17.453 L -3.90447 17.4434 L -3.94757 17.4337 L -3.99065 17.4238 L -4.0337 17.4139 L -4.07673 17.4039 L -4.11974 17.3938 L -4.16272 17.3835 L -4.20567 17.3732 L -4.2486 17.3627 L -4.2915 17.3522 L -4.33437 17.3415 L -4.37722 17.3308 L -4.42004 17.3199 L -4.46284 17.3089 L -4.50561 17.2978 L -4.54835 17.2866 L -4.59106 17.2754 L -4.63375 17.264 L -4.6764 17.2524 L -4.71903 17.2408 L -4.76163 17.2291 L -4.8042 17.2173 L -4.84674 17.2054 L -4.93668 17.1798 L -4.97913 17.1675 L -5.02154 17.1552 L -5.06393 17.1427 L -5.10629 17.1301 L -5.14861 17.1175 L -5.1909 17.1047 L -5.23316 17.0918 L -5.27539 17.0788 L -5.31759 17.0657 L -5.35975 17.0525 L -5.40188 17.0392 L -5.44398 17.0258 L -5.48605 17.0123 L -5.52808 16.9987 L -5.57008 16.985 L -5.61204 16.9712 L -5.65397 16.9572 L -5.69587 16.9432 L -5.73773 16.9291 L -5.77955 16.9149 L -5.82134 16.9005 L -5.8631 16.8861 L -5.90481 16.8715 L -5.9465 16.8569 L -5.98814 16.8421 L -6.02975 16.8273 L -6.07133 16.8123 L -6.06826 16.7665 L -6.07191 16.7181 L -6.07556 16.6698 L -6.0792 16.6214 L -6.08283 16.5731 L -6.08645 16.5247 L -6.09007 16.4762 L -6.09367 16.4278 L -6.09727 16.3793 L -6.10086 16.3308 L -6.10444 16.2823 L -6.10802 16.2338 L -6.11158 16.1852 L -6.11514 16.1366 L -6.11869 16.088 L -6.12223 16.0394 L -6.12576 15.9907 L -6.12928 15.9421 L -6.1328 15.8934 L -6.1363 15.8447 L -6.13979 15.7959 L -6.14328 15.7471 L -6.14675 15.6983 L -6.15022 15.6495 L -6.15368 15.6007 L -6.15712 15.5518 L -6.16056 15.5029 L -6.16399 15.454 L -6.1674 15.4051 L -6.17081 15.3561 L -6.1742 15.3071 L -6.17759 15.2581 L -6.18097 15.209 L -6.18433 15.16 L -6.18768 15.1109 L -6.19103 15.0617 L -6.19436 15.0126 L -6.19768 14.9634 L -6.20099 14.9142 L -6.20428 14.865 L -6.20757 14.8157 L -6.21084 14.7664 L -6.21411 14.7171 L -6.21736 14.6677 L -6.2206 14.6184 L -6.22382 14.569 L -6.22703 14.5195 L -6.23024 14.4701 L -6.23342 14.4206 L -6.2366 14.3711 L -6.23976 14.3215 L -6.24291 14.2719 L -6.24605 14.2223 L -6.24917 14.1727 L -6.25228 14.123 L -6.25537 14.0733 L -6.25845 14.0235 L -6.26152 13.9738 L -6.26457 13.924 L -6.26761 13.8741 L -6.27064 13.8243 L -6.27364 13.7744 L -6.27664 13.7245 L -6.27962 13.6745 L -6.28258 13.6245 L -6.28553 13.5745 L -6.28846 13.5244 L -6.29137 13.4743 L -6.29427 13.4242 L -6.29716 13.374 L -6.30002 13.3238 L -6.30287 13.2735 L -6.30571 13.2233 L -6.30852 13.173 L -6.31132 13.1226 L -6.3141 13.0722 L -6.31686 13.0218 L -6.31961 12.9713 L -6.32233 12.9208 L -6.32504 12.8703 L -6.32773 12.8197 L -6.3304 12.7691 L -6.33305 12.7185 L -6.33305 12.7185 L -6.37507 12.7469 L -6.41707 12.7753 L -6.45904 12.8036 L -6.501 12.8319 L -6.54294 12.8601 L -6.58486 12.8884 L -6.62677 12.9165 L -6.66865 12.9447 L -6.71052 12.9728 L -6.75236 13.0009 L -6.79419 13.0289 L -6.836 13.0569 L -6.87779 13.0849 L -6.91957 13.1128 L -6.96132 13.1407 L -7.00306 13.1686 L -7.04478 13.1964 L -7.08648 13.2242 L -7.12816 13.252 L -7.16983 13.2797 L -7.21148 13.3074 L -7.25311 13.3351 L -7.29473 13.3627 L -7.33633 13.3903 L -7.37791 13.4179 L -7.41947 13.4454 L -7.46102 13.4729 L -7.50255 13.5004 L -7.54407 13.5279 L -7.58556 13.5553 L -7.62704 13.5827 L -7.66851 13.6101 L -7.70996 13.6374 L -7.75139 13.6647 L -7.79281 13.692 L -7.83421 13.7193 L -7.8756 13.7465 L -7.91697 13.7737 L -7.95832 13.8008 L -7.99966 13.828 L -8.04098 13.8551 L -8.08229 13.8822 L -8.12358 13.9093 L -8.16486 13.9363 L -8.20612 13.9633 L -8.24737 13.9903 L -8.2886 14.0173 L -8.32982 14.0442 L -8.37102 14.0711 L -8.41221 14.098 L -8.45338 14.1249 L -8.49454 14.1517 L -8.53569 14.1785 L -8.57682 14.2053 L -8.61793 14.2321 L -8.65903 14.2588 L -8.70012 14.2856 L -8.7412 14.3123 L -8.78226 14.3389 L -8.8233 14.3656 L -8.86434 14.3922 L -8.90535 14.4188 L -8.94636 14.4454 L -8.98735 14.472 L -9.02833 14.4985 L -9.0693 14.525 L -9.11025 14.5515 L -9.15119 14.578 L -9.19211 14.6045 L -9.23302 14.6309 L -9.27392 14.6573 L -9.31481 14.6837 L -9.35568 14.7101 L -9.39655 14.7365 L -9.43739 14.7628 L -9.47823 14.7891 L -9.51905 14.8154 L -9.55987 14.8417 L -9.60066 14.868 L -9.64145 14.8942 L -9.68222 14.9204 L -9.72299 14.9466 L -9.75774 14.9767 L -9.79473 14.9526 L -9.83166 14.9283 L -9.86853 14.904 L -9.90533 14.8795 L -9.94208 14.855 L -9.97876 14.8304 L -10.0154 14.8057 L -10.052 14.7809 L -10.0885 14.756 L -10.1249 14.731 L -10.1613 14.7059 L -10.1976 14.6808 L -10.2338 14.6555 L -10.27 14.6302 L -10.3062 14.6047 L -10.3422 14.5792 L -10.3782 14.5536 L -10.4142 14.5279 L -10.4501 14.5021 L -10.4859 14.4763 L -10.5216 14.4503 L -10.5573 14.4243 L -10.5929 14.3981 L -10.6285 14.3719 L -10.664 14.3456 L -10.6994 14.3192 L -10.7347 14.2927 L -10.8094 14.2363 L -10.8445 14.2096 L -10.8796 14.1827 L -10.9146 14.1558 L -10.9496 14.1288 L -10.9845 14.1017 L -11.0193 14.0745 L -11.054 14.0472 L -11.0887 14.0198 L -11.1234 13.9924 L -11.1579 13.9648 L -11.1924 13.9372 L -11.2268 13.9095 L -11.2611 13.8817 L -11.2954 13.8538 L -11.3296 13.8259 L -11.3638 13.7978 L -11.3978 13.7697 L -11.4318 13.7415 L -11.4658 13.7132 L -11.4996 13.6848 L -11.5334 13.6564 L -11.5671 13.6278 L -11.6008 13.5992 L -11.6344 13.5705 L -11.6679 13.5417 L -11.7013 13.5128 L -11.7347 13.4838 L -11.7152 13.4422 L -11.7012 13.3958 L -11.6871 13.3494 L -11.673 13.303 L -11.6589 13.2565 L -11.6448 13.2101 L -11.6307 13.1636 L -11.6166 13.1172 L -11.6024 13.0707 L -11.5883 13.0242 L -11.5741 12.9776 L -11.5599 12.9311 L -11.5457 12.8845 L -11.5314 12.8379 L -11.5172 12.7913 L -11.5029 12.7447 L -11.4886 12.698 L -11.4743 12.6514 L -11.46 12.6047 L -11.4457 12.558 L -11.4313 12.5113 L -11.417 12.4646 L -11.4026 12.4178 L -11.3882 12.371 L -11.3737 12.3242 L -11.3593 12.2774 L -11.3449 12.2306 L -11.3304 12.1837 L -11.3159 12.1369 L -11.3014 12.09 L -11.2868 12.0431 L -11.2723 11.9961 L -11.2577 11.9492 L -11.2431 11.9022 L -11.2285 11.8552 L -11.2139 11.8082 L -11.1992 11.7612 L -11.1846 11.7141 L -11.1699 11.667 L -11.1552 11.6199 L -11.1404 11.5728 L -11.1257 11.5257 L -11.1109 11.4785 L -11.0961 11.4313 L -11.0813 11.3841 L -11.0665 11.3369 L -11.0516 11.2896 L -11.0367 11.2423 L -11.0218 11.195 L -11.0069 11.1477 L -10.9919 11.1003 L -10.977 11.053 L -10.962 11.0056 L -10.9469 10.9582 L -10.9319 10.9107 L -10.9168 10.8632 L -10.9017 10.8158 L -10.8866 10.7682 L -10.8715 10.7207 L -10.8563 10.6731 L -10.8411 10.6255 L -10.8259 10.5779 L -10.8106 10.5303 L -10.7954 10.4826 L -10.7801 10.4349 L -10.7647 10.3872 L -10.7494 10.3395 L -10.734 10.2917 L -10.7186 10.2439 L -10.7032 10.1961 L -10.6877 10.1482 L -10.6722 10.1004 L -10.6567 10.0525 L -10.6411 10.0045 L -10.6256 9.95656 L -10.61 9.90857 L -10.5943 9.86056 L -10.5786 9.81251 L -10.5629 9.76444 L -10.5472 9.71634 L -10.5315 9.66821 L -10.5157 9.62006 L -10.4998 9.57187 L -10.4998 9.57187 L -10.5493 9.58318 L -10.5987 9.59446 L -10.6481 9.60572 L -10.6974 9.61694 L -10.7467 9.62814 L -10.796 9.63931 L -10.8453 9.65045 L -10.8945 9.66156 L -10.9437 9.67265 L -10.9928 9.68371 L -11.042 9.69474 L -11.0911 9.70575 L -11.1402 9.71673 L -11.1892 9.72769 L -11.2382 9.73862 L -11.2872 9.74953 L -11.3361 9.76041 L -11.3851 9.77127 L -11.434 9.7821 L -11.4828 9.79291 L -11.5317 9.80369 L -11.5805 9.81445 L -11.6293 9.82519 L -11.6781 9.83591 L -11.7268 9.8466 L -11.7755 9.85727 L -11.8242 9.86792 L -11.8728 9.87854 L -11.9215 9.88915 L -11.9701 9.89973 L -12.0186 9.91029 L -12.0672 9.92083 L -12.1157 9.93135 L -12.1642 9.94185 L -12.2127 9.95232 L -12.2611 9.96278 L -12.3096 9.97322 L -12.358 9.98364 L -12.4064 9.99403 L -12.4547 10.0044 L -12.503 10.0148 L -12.5513 10.0251 L -12.5996 10.0354 L -12.6479 10.0457 L -12.6961 10.056 L -12.7443 10.0663 L -12.7925 10.0765 L -12.8407 10.0868 L -12.8888 10.097 L -12.9369 10.1072 L -12.985 10.1173 L -13.0331 10.1275 L -13.0812 10.1376 L -13.1292 10.1478 L -13.1772 10.1579 L -13.2252 10.168 L -13.2732 10.178 L -13.3211 10.1881 L -13.369 10.1981 L -13.4169 10.2082 L -13.4648 10.2182 L -13.5127 10.2282 L -13.5605 10.2381 L -13.6083 10.2481 L -13.6561 10.2581 L -13.7039 10.268 L -13.7517 10.2779 L -13.7994 10.2878 L -13.8471 10.2977 L -13.8948 10.3076 L -13.9425 10.3174 L -13.9902 10.3273 L -14.0378 10.3371 L -14.0854 10.3469 L -14.133 10.3567 L -14.1806 10.3665 L -14.2282 10.3763 L -14.2757 10.3861 L -14.3233 10.3958 L -14.3708 10.4055 L -14.4183 10.4153 L -14.4658 10.425 L -14.509 10.4405 L -14.5348 10.4046 L -14.5605 10.3686 L -14.5861 10.3326 L -14.6115 10.2965 L -14.637 10.2604 L -14.6623 10.2242 L -14.6875 10.1879 L -14.7126 10.1516 L -14.7377 10.1152 L -14.7626 10.0787 L -14.7875 10.0422 L -14.8123 10.0056 L -14.837 9.96897 L -14.8616 9.93226 L -14.8861 9.8955 L -14.9105 9.85868 L -14.9348 9.82179 L -14.959 9.78485 L -14.9832 9.74785 L -15.0072 9.71078 L -15.0312 9.67366 L -15.055 9.63648 L -15.0788 9.59924 L -15.1025 9.56194 L -15.1261 9.52458 L -15.1496 9.48717 L -15.173 9.4497 L -15.2222 9.37019 L -15.2453 9.33254 L -15.2683 9.29483 L -15.2913 9.25706 L -15.3141 9.21924 L -15.3368 9.18136 L -15.3595 9.14342 L -15.382 9.10543 L -15.4045 9.06739 L -15.4268 9.02928 L -15.4491 8.99113 L -15.4713 8.95291 L -15.4934 8.91465 L -15.5154 8.87633 L -15.5373 8.83795 L -15.5591 8.79952 L -15.5808 8.76104 L -15.6024 8.7225 L -15.6239 8.68391 L -15.6453 8.64527 L -15.6666 8.60657 L -15.6878 8.56782 L -15.709 8.52902 L -15.73 8.49017 L -15.7509 8.45126 L -15.7718 8.41231 L -15.7925 8.3733 L -15.8132 8.33424 L -15.78 8.30241 L -15.7501 8.26424 L -15.7203 8.22606 L -15.6904 8.18787 L -15.6605 8.14967 L -15.6305 8.11145 L -15.6006 8.07323 L -15.5706 8.035 L -15.5406 7.99675 L -15.5106 7.9585 L -15.4806 7.92023 L -15.4505 7.88195 L -15.4204 7.84367 L -15.3903 7.80537 L -15.3602 7.76706 L -15.3301 7.72874 L -15.2999 7.69041 L -15.2697 7.65206 L -15.2395 7.61371 L -15.2093 7.57534 L -15.179 7.53696 L -15.1487 7.49858 L -15.1184 7.46018 L -15.0881 7.42176 L -15.0577 7.38334 L -15.0274 7.3449 L -14.997 7.30646 L -14.9665 7.268 L -14.9361 7.22953 L -14.9056 7.19104 L -14.8751 7.15255 L -14.8446 7.11404 L -14.814 7.07552 L -14.7835 7.03699 L -14.7529 6.99845 L -14.7223 6.95989 L -14.6916 6.92132 L -14.6609 6.88274 L -14.6302 6.84415 L -14.5995 6.80554 L -14.5687 6.76692 L -14.5379 6.72829 L -14.5071 6.68965 L -14.4763 6.65099 L -14.4454 6.61232 L -14.4145 6.57363 L -14.3836 6.53494 L -14.3526 6.49623 L -14.3216 6.4575 L -14.2906 6.41877 L -14.2596 6.38002 L -14.2285 6.34126 L -14.1974 6.30248 L -14.1663 6.26369 L -14.1351 6.22488 L -14.1039 6.18607 L -14.0727 6.14723 L -14.0414 6.10839 L -14.0101 6.06953 L -13.9788 6.03066 L -13.9474 5.99177 L -13.916 5.95287 L -13.8846 5.91395 L -13.8531 5.87502 L -13.8216 5.83608 L -13.7901 5.79712 L -13.7586 5.75814 L -13.727 5.71915 L -13.6953 5.68015 L -13.6637 5.64113 L -13.632 5.6021 L -13.6002 5.56305 L -13.5684 5.52399 L -13.5366 5.48491 L -13.5048 5.44582 L -13.4729 5.40671 L -13.441 5.36759 L -13.409 5.32845 L -13.377 5.28929 L -13.3449 5.25012 L -13.3129 5.21094 L -13.2807 5.17174 L -13.2486 5.13252 L -13.2486 5.13252 L -13.2988 5.12521 L -13.3489 5.11788 L -13.399 5.11054 L -13.4491 5.10318 L -13.4991 5.0958 L -13.5491 5.08842 L -13.5991 5.08101 L -13.649 5.07359 L -13.6988 5.06616 L -13.7487 5.05872 L -13.7985 5.05126 L -13.8482 5.04378 L -13.898 5.0363 L -13.9477 5.0288 L -13.9973 5.02128 L -14.0469 5.01376 L -14.0965 5.00622 L -14.1461 4.99867 L -14.1956 4.99111 L -14.245 4.98353 L -14.2945 4.97594 L -14.3439 4.96834 L -14.3933 4.96073 L -14.4426 4.95311 L -14.4919 4.94547 L -14.5412 4.93783 L -14.5904 4.93017 L -14.6396 4.9225 L -14.6888 4.91482 L -14.738 4.90713 L -14.7871 4.89943 L -14.8361 4.89172 L -14.8852 4.884 L -14.9342 4.87627 L -14.9832 4.86853 L -15.0322 4.86078 L -15.0811 4.85302 L -15.13 4.84525 L -15.1788 4.83747 L -15.2277 4.82968 L -15.2765 4.82188 L -15.3253 4.81407 L -15.374 4.80625 L -15.4227 4.79843 L -15.4714 4.79059 L -15.5201 4.78275 L -15.5687 4.77489 L -15.6173 4.76703 L -15.6659 4.75916 L -15.7145 4.75129 L -15.763 4.7434 L -15.8115 4.73551 L -15.86 4.7276 L -15.9084 4.71969 L -15.9568 4.71178 L -16.0052 4.70385 L -16.0536 4.69592 L -16.1019 4.68798 L -16.1502 4.68003 L -16.1985 4.67207 L -16.2468 4.66411 L -16.295 4.65614 L -16.3432 4.64816 L -16.3914 4.64018 L -16.4396 4.63219 L -16.4877 4.62419 L -16.5359 4.61618 L -16.584 4.60817 L -16.632 4.60016 L -16.6801 4.59213 L -16.7281 4.5841 L -16.7761 4.57606 L -16.8241 4.56802 L -16.872 4.55997 L -16.92 4.55191 L -16.9679 4.54385 L -17.0158 4.53578 L -17.0636 4.52771 L -17.1115 4.51963 L -17.1593 4.51154 L -17.2071 4.50345 L -17.2549 4.49536 L -17.3008 4.49418 L -17.3119 4.4514 L -17.3228 4.4086 L -17.3337 4.36577 L -17.3444 4.32292 L -17.355 4.28003 L -17.3656 4.23713 L -17.376 4.19419 L -17.3863 4.15123 L -17.3965 4.10825 L -17.4066 4.06523 L -17.4166 4.0222 L -17.4265 3.97914 L -17.4363 3.93606 L -17.4459 3.89295 L -17.4555 3.84981 L -17.465 3.80666 L -17.4743 3.76348 L -17.4836 3.72028 L -17.4927 3.67705 L -17.5017 3.63381 L -17.5107 3.59054 L -17.5195 3.54725 L -17.5282 3.50393 L -17.5368 3.4606 L -17.5453 3.41724 L -17.5537 3.37387 L -17.562 3.33047 L -17.5792 3.23855 L -17.5871 3.19509 L -17.595 3.15161 L -17.6027 3.10812 L -17.6103 3.0646 L -17.6179 3.02106 L -17.6253 2.97751 L -17.6326 2.93394 L -17.6398 2.89034 L -17.6469 2.84674 L -17.6538 2.80311 L -17.6607 2.75947 L -17.6675 2.71581 L -17.6741 2.67213 L -17.6807 2.62844 L -17.6871 2.58473 L -17.6935 2.54101 L -17.6997 2.49727 L -17.7058 2.45351 L -17.7118 2.40974 L -17.7177 2.36596 L -17.7235 2.32216 L -17.7292 2.27835 L -17.7348 2.23452 L -17.7403 2.19068 L -17.7456 2.14682 L -17.7509 2.10296 L -17.756 2.05908 L -17.7136 2.04138 L -17.672 2.01657 L -17.6303 1.99176 L -17.5886 1.96694 L -17.5469 1.94213 L -17.5052 1.91731 L -17.4635 1.89248 L -17.4217 1.86766 L -17.3799 1.84283 L -17.3381 1.818 L -17.2963 1.79317 L -17.2545 1.76834 L -17.2126 1.7435 L -17.1707 1.71866 L -17.1287 1.69382 L -17.0868 1.66898 L -17.0448 1.64413 L -17.0028 1.61928 L -16.9608 1.59443 L -16.9187 1.56958 L -16.8767 1.54472 L -16.8346 1.51987 L -16.7924 1.49501 L -16.7503 1.47014 L -16.7081 1.44528 L -16.6659 1.42041 L -16.6236 1.39554 L -16.5814 1.37067 L -16.5391 1.3458 L -16.4968 1.32092 L -16.4544 1.29604 L -16.4121 1.27116 L -16.3697 1.24628 L -16.3272 1.22139 L -16.2848 1.1965 L -16.2423 1.17162 L -16.1998 1.14672 L -16.1572 1.12183 L -16.1147 1.09693 L -16.0721 1.07204 L -16.0294 1.04714 L -15.9868 1.02224 L -15.9441 0.997333 L -15.9013 0.972427 L -15.8586 0.94752 L -15.8158 0.922611 L -15.773 0.8977 L -15.7301 0.872787 L -15.6872 0.847872 L -15.6443 0.822956 L -15.6014 0.798038 L -15.5584 0.773118 L -15.5154 0.748197 L -15.4723 0.723274 L -15.4293 0.698349 L -15.3861 0.673423 L -15.343 0.648495 L -15.2998 0.623566 L -15.2566 0.598635 L -15.2133 0.573704 L -15.1701 0.54877 L -15.1267 0.523836 L -15.0834 0.4989 L -15.04 0.473963 L -14.9965 0.449025 L -14.9531 0.424085 L -14.9095 0.399145 L -14.866 0.374204 L -14.8224 0.349261 L -14.7788 0.324318 L -14.7351 0.299374 L -14.6914 0.274429 L -14.6477 0.249483 L -14.6039 0.224537 L -14.5601 0.19959 L -14.5162 0.174643 L -14.4723 0.149695 L -14.4284 0.124746 L -14.3844 0.0997974 L -14.3403 0.0748483 L -14.2963 0.049899 L -14.2522 0.0249495 L -14.208 0 L -14.208 3.47996e-15 L -14.2522 -0.0249495 L -14.2963 -0.049899 L -14.3403 -0.0748483 L -14.3844 -0.0997974 L -14.4284 -0.124746 L -14.4723 -0.149695 L -14.5162 -0.174643 L -14.5601 -0.19959 L -14.6039 -0.224537 L -14.6477 -0.249483 L -14.6914 -0.274429 L -14.7351 -0.299374 L -14.7788 -0.324318 L -14.8224 -0.349261 L -14.866 -0.374204 L -14.9095 -0.399145 L -14.9531 -0.424085 L -14.9965 -0.449025 L -15.04 -0.473963 L -15.0834 -0.4989 L -15.1267 -0.523836 L -15.1701 -0.54877 L -15.2133 -0.573704 L -15.2566 -0.598635 L -15.2998 -0.623566 L -15.343 -0.648495 L -15.3861 -0.673423 L -15.4293 -0.698349 L -15.4723 -0.723274 L -15.5154 -0.748197 L -15.5584 -0.773118 L -15.6014 -0.798038 L -15.6443 -0.822956 L -15.6872 -0.847872 L -15.7301 -0.872787 L -15.773 -0.8977 L -15.8158 -0.922611 L -15.8586 -0.94752 L -15.9013 -0.972427 L -15.9441 -0.997333 L -15.9868 -1.02224 L -16.0294 -1.04714 L -16.0721 -1.07204 L -16.1147 -1.09693 L -16.1572 -1.12183 L -16.1998 -1.14672 L -16.2423 -1.17162 L -16.2848 -1.1965 L -16.3272 -1.22139 L -16.3697 -1.24628 L -16.4121 -1.27116 L -16.4544 -1.29604 L -16.4968 -1.32092 L -16.5391 -1.3458 L -16.5814 -1.37067 L -16.6236 -1.39554 L -16.6659 -1.42041 L -16.7081 -1.44528 L -16.7503 -1.47014 L -16.7924 -1.49501 L -16.8346 -1.51987 L -16.8767 -1.54472 L -16.9187 -1.56958 L -16.9608 -1.59443 L -17.0028 -1.61928 L -17.0448 -1.64413 L -17.0868 -1.66898 L -17.1287 -1.69382 L -17.1707 -1.71866 L -17.2126 -1.7435 L -17.2545 -1.76834 L -17.2963 -1.79317 L -17.3381 -1.818 L -17.3799 -1.84283 L -17.4217 -1.86766 L -17.4635 -1.89248 L -17.5052 -1.91731 L -17.5469 -1.94213 L -17.5886 -1.96694 L -17.6303 -1.99176 L -17.672 -2.01657 L -17.7136 -2.04138 L -17.756 -2.05908 L -17.7509 -2.10296 L -17.7456 -2.14682 L -17.7403 -2.19068 L -17.7348 -2.23452 L -17.7292 -2.27835 L -17.7235 -2.32216 L -17.7177 -2.36596 L -17.7118 -2.40974 L -17.7058 -2.45351 L -17.6997 -2.49727 L -17.6935 -2.54101 L -17.6871 -2.58473 L -17.6807 -2.62844 L -17.6741 -2.67213 L -17.6675 -2.71581 L -17.6607 -2.75947 L -17.6538 -2.80311 L -17.6469 -2.84674 L -17.6398 -2.89034 L -17.6326 -2.93394 L -17.6253 -2.97751 L -17.6179 -3.02106 L -17.6103 -3.0646 L -17.6027 -3.10812 L -17.595 -3.15161 L -17.5871 -3.19509 L -17.5792 -3.23855 L -17.562 -3.33047 L -17.5537 -3.37387 L -17.5453 -3.41724 L -17.5368 -3.4606 L -17.5282 -3.50393 L -17.5195 -3.54725 L -17.5107 -3.59054 L -17.5017 -3.63381 L -17.4927 -3.67705 L -17.4836 -3.72028 L -17.4743 -3.76348 L -17.465 -3.80666 L -17.4555 -3.84981 L -17.4459 -3.89295 L -17.4363 -3.93606 L -17.4265 -3.97914 L -17.4166 -4.0222 L -17.4066 -4.06523 L -17.3965 -4.10825 L -17.3863 -4.15123 L -17.376 -4.19419 L -17.3656 -4.23713 L -17.355 -4.28003 L -17.3444 -4.32292 L -17.3337 -4.36577 L -17.3228 -4.4086 L -17.3119 -4.4514 L -17.3008 -4.49418 L -17.2549 -4.49536 L -17.2071 -4.50345 L -17.1593 -4.51154 L -17.1115 -4.51963 L -17.0636 -4.52771 L -17.0158 -4.53578 L -16.9679 -4.54385 L -16.92 -4.55191 L -16.872 -4.55997 L -16.8241 -4.56802 L -16.7761 -4.57606 L -16.7281 -4.5841 L -16.6801 -4.59213 L -16.632 -4.60016 L -16.584 -4.60817 L -16.5359 -4.61618 L -16.4877 -4.62419 L -16.4396 -4.63219 L -16.3914 -4.64018 L -16.3432 -4.64816 L -16.295 -4.65614 L -16.2468 -4.66411 L -16.1985 -4.67207 L -16.1502 -4.68003 L -16.1019 -4.68798 L -16.0536 -4.69592 L -16.0052 -4.70385 L -15.9568 -4.71178 L -15.9084 -4.71969 L -15.86 -4.7276 L -15.8115 -4.73551 L -15.763 -4.7434 L -15.7145 -4.75129 L -15.6659 -4.75916 L -15.6173 -4.76703 L -15.5687 -4.77489 L -15.5201 -4.78275 L -15.4714 -4.79059 L -15.4227 -4.79843 L -15.374 -4.80625 L -15.3253 -4.81407 L -15.2765 -4.82188 L -15.2277 -4.82968 L -15.1788 -4.83747 L -15.13 -4.84525 L -15.0811 -4.85302 L -15.0322 -4.86078 L -14.9832 -4.86853 L -14.9342 -4.87627 L -14.8852 -4.884 L -14.8361 -4.89172 L -14.7871 -4.89943 L -14.738 -4.90713 L -14.6888 -4.91482 L -14.6396 -4.9225 L -14.5904 -4.93017 L -14.5412 -4.93783 L -14.4919 -4.94547 L -14.4426 -4.95311 L -14.3933 -4.96073 L -14.3439 -4.96834 L -14.2945 -4.97594 L -14.245 -4.98353 L -14.1956 -4.99111 L -14.1461 -4.99867 L -14.0965 -5.00622 L -14.0469 -5.01376 L -13.9973 -5.02128 L -13.9477 -5.0288 L -13.898 -5.0363 L -13.8482 -5.04378 L -13.7985 -5.05126 L -13.7487 -5.05872 L -13.6988 -5.06616 L -13.649 -5.07359 L -13.5991 -5.08101 L -13.5491 -5.08842 L -13.4991 -5.0958 L -13.4491 -5.10318 L -13.399 -5.11054 L -13.3489 -5.11788 L -13.2988 -5.12521 L -13.2486 -5.13252 L -13.2486 -5.13252 L -13.2807 -5.17174 L -13.3129 -5.21094 L -13.3449 -5.25012 L -13.377 -5.28929 L -13.409 -5.32845 L -13.441 -5.36759 L -13.4729 -5.40671 L -13.5048 -5.44582 L -13.5366 -5.48491 L -13.5684 -5.52399 L -13.6002 -5.56305 L -13.632 -5.6021 L -13.6637 -5.64113 L -13.6953 -5.68015 L -13.727 -5.71915 L -13.7586 -5.75814 L -13.7901 -5.79712 L -13.8216 -5.83608 L -13.8531 -5.87502 L -13.8846 -5.91395 L -13.916 -5.95287 L -13.9474 -5.99177 L -13.9788 -6.03066 L -14.0101 -6.06953 L -14.0414 -6.10839 L -14.0727 -6.14723 L -14.1039 -6.18607 L -14.1351 -6.22488 L -14.1663 -6.26369 L -14.1974 -6.30248 L -14.2285 -6.34126 L -14.2596 -6.38002 L -14.2906 -6.41877 L -14.3216 -6.4575 L -14.3526 -6.49623 L -14.3836 -6.53494 L -14.4145 -6.57363 L -14.4454 -6.61232 L -14.4763 -6.65099 L -14.5071 -6.68965 L -14.5379 -6.72829 L -14.5687 -6.76692 L -14.5995 -6.80554 L -14.6302 -6.84415 L -14.6609 -6.88274 L -14.6916 -6.92132 L -14.7223 -6.95989 L -14.7529 -6.99845 L -14.7835 -7.03699 L -14.814 -7.07552 L -14.8446 -7.11404 L -14.8751 -7.15255 L -14.9056 -7.19104 L -14.9361 -7.22953 L -14.9665 -7.268 L -14.997 -7.30646 L -15.0274 -7.3449 L -15.0577 -7.38334 L -15.0881 -7.42176 L -15.1184 -7.46018 L -15.1487 -7.49858 L -15.179 -7.53696 L -15.2093 -7.57534 L -15.2395 -7.61371 L -15.2697 -7.65206 L -15.2999 -7.69041 L -15.3301 -7.72874 L -15.3602 -7.76706 L -15.3903 -7.80537 L -15.4204 -7.84367 L -15.4505 -7.88195 L -15.4806 -7.92023 L -15.5106 -7.9585 L -15.5406 -7.99675 L -15.5706 -8.035 L -15.6006 -8.07323 L -15.6305 -8.11145 L -15.6605 -8.14967 L -15.6904 -8.18787 L -15.7203 -8.22606 L -15.7501 -8.26424 L -15.78 -8.30241 L -15.8132 -8.33424 L -15.7925 -8.3733 L -15.7718 -8.41231 L -15.7509 -8.45126 L -15.73 -8.49017 L -15.709 -8.52902 L -15.6878 -8.56782 L -15.6666 -8.60657 L -15.6453 -8.64527 L -15.6239 -8.68391 L -15.6024 -8.7225 L -15.5808 -8.76104 L -15.5591 -8.79952 L -15.5373 -8.83795 L -15.5154 -8.87633 L -15.4934 -8.91465 L -15.4713 -8.95291 L -15.4491 -8.99113 L -15.4268 -9.02928 L -15.4045 -9.06739 L -15.382 -9.10543 L -15.3595 -9.14342 L -15.3368 -9.18136 L -15.3141 -9.21924 L -15.2913 -9.25706 L -15.2683 -9.29483 L -15.2453 -9.33254 L -15.2222 -9.37019 L -15.173 -9.4497 L -15.1496 -9.48717 L -15.1261 -9.52458 L -15.1025 -9.56194 L -15.0788 -9.59924 L -15.055 -9.63648 L -15.0312 -9.67366 L -15.0072 -9.71078 L -14.9832 -9.74785 L -14.959 -9.78485 L -14.9348 -9.82179 L -14.9105 -9.85868 L -14.8861 -9.8955 L -14.8616 -9.93226 L -14.837 -9.96897 L -14.8123 -10.0056 L -14.7875 -10.0422 L -14.7626 -10.0787 L -14.7377 -10.1152 L -14.7126 -10.1516 L -14.6875 -10.1879 L -14.6623 -10.2242 L -14.637 -10.2604 L -14.6115 -10.2965 L -14.5861 -10.3326 L -14.5605 -10.3686 L -14.5348 -10.4046 L -14.509 -10.4405 L -14.4658 -10.425 L -14.4183 -10.4153 L -14.3708 -10.4055 L -14.3233 -10.3958 L -14.2757 -10.3861 L -14.2282 -10.3763 L -14.1806 -10.3665 L -14.133 -10.3567 L -14.0854 -10.3469 L -14.0378 -10.3371 L -13.9902 -10.3273 L -13.9425 -10.3174 L -13.8948 -10.3076 L -13.8471 -10.2977 L -13.7994 -10.2878 L -13.7517 -10.2779 L -13.7039 -10.268 L -13.6561 -10.2581 L -13.6083 -10.2481 L -13.5605 -10.2381 L -13.5127 -10.2282 L -13.4648 -10.2182 L -13.4169 -10.2082 L -13.369 -10.1981 L -13.3211 -10.1881 L -13.2732 -10.178 L -13.2252 -10.168 L -13.1772 -10.1579 L -13.1292 -10.1478 L -13.0812 -10.1376 L -13.0331 -10.1275 L -12.985 -10.1173 L -12.9369 -10.1072 L -12.8888 -10.097 L -12.8407 -10.0868 L -12.7925 -10.0765 L -12.7443 -10.0663 L -12.6961 -10.056 L -12.6479 -10.0457 L -12.5996 -10.0354 L -12.5513 -10.0251 L -12.503 -10.0148 L -12.4547 -10.0044 L -12.4064 -9.99403 L -12.358 -9.98364 L -12.3096 -9.97322 L -12.2611 -9.96278 L -12.2127 -9.95232 L -12.1642 -9.94185 L -12.1157 -9.93135 L -12.0672 -9.92083 L -12.0186 -9.91029 L -11.9701 -9.89973 L -11.9215 -9.88915 L -11.8728 -9.87854 L -11.8242 -9.86792 L -11.7755 -9.85727 L -11.7268 -9.8466 L -11.6781 -9.83591 L -11.6293 -9.82519 L -11.5805 -9.81445 L -11.5317 -9.80369 L -11.4828 -9.79291 L -11.434 -9.7821 L -11.3851 -9.77127 L -11.3361 -9.76041 L -11.2872 -9.74953 L -11.2382 -9.73862 L -11.1892 -9.72769 L -11.1402 -9.71673 L -11.0911 -9.70575 L -11.042 -9.69474 L -10.9928 -9.68371 L -10.9437 -9.67265 L -10.8945 -9.66156 L -10.8453 -9.65045 L -10.796 -9.63931 L -10.7467 -9.62814 L -10.6974 -9.61694 L -10.6481 -9.60572 L -10.5987 -9.59446 L -10.5493 -9.58318 L -10.4998 -9.57187 L -10.4998 -9.57187 L -10.5157 -9.62006 L -10.5315 -9.66821 L -10.5472 -9.71634 L -10.5629 -9.76444 L -10.5786 -9.81251 L -10.5943 -9.86056 L -10.61 -9.90857 L -10.6256 -9.95656 L -10.6411 -10.0045 L -10.6567 -10.0525 L -10.6722 -10.1004 L -10.6877 -10.1482 L -10.7032 -10.1961 L -10.7186 -10.2439 L -10.734 -10.2917 L -10.7494 -10.3395 L -10.7647 -10.3872 L -10.7801 -10.4349 L -10.7954 -10.4826 L -10.8106 -10.5303 L -10.8259 -10.5779 L -10.8411 -10.6255 L -10.8563 -10.6731 L -10.8715 -10.7207 L -10.8866 -10.7682 L -10.9017 -10.8158 L -10.9168 -10.8632 L -10.9319 -10.9107 L -10.9469 -10.9582 L -10.962 -11.0056 L -10.977 -11.053 L -10.9919 -11.1003 L -11.0069 -11.1477 L -11.0218 -11.195 L -11.0367 -11.2423 L -11.0516 -11.2896 L -11.0665 -11.3369 L -11.0813 -11.3841 L -11.0961 -11.4313 L -11.1109 -11.4785 L -11.1257 -11.5257 L -11.1404 -11.5728 L -11.1552 -11.6199 L -11.1699 -11.667 L -11.1846 -11.7141 L -11.1992 -11.7612 L -11.2139 -11.8082 L -11.2285 -11.8552 L -11.2431 -11.9022 L -11.2577 -11.9492 L -11.2723 -11.9961 L -11.2868 -12.0431 L -11.3014 -12.09 L -11.3159 -12.1369 L -11.3304 -12.1837 L -11.3449 -12.2306 L -11.3593 -12.2774 L -11.3737 -12.3242 L -11.3882 -12.371 L -11.4026 -12.4178 L -11.417 -12.4646 L -11.4313 -12.5113 L -11.4457 -12.558 L -11.46 -12.6047 L -11.4743 -12.6514 L -11.4886 -12.698 L -11.5029 -12.7447 L -11.5172 -12.7913 L -11.5314 -12.8379 L -11.5457 -12.8845 L -11.5599 -12.9311 L -11.5741 -12.9776 L -11.5883 -13.0242 L -11.6024 -13.0707 L -11.6166 -13.1172 L -11.6307 -13.1636 L -11.6448 -13.2101 L -11.6589 -13.2565 L -11.673 -13.303 L -11.6871 -13.3494 L -11.7012 -13.3958 L -11.7152 -13.4422 L -11.7347 -13.4838 L -11.7013 -13.5128 L -11.6679 -13.5417 L -11.6344 -13.5705 L -11.6008 -13.5992 L -11.5671 -13.6278 L -11.5334 -13.6564 L -11.4996 -13.6848 L -11.4658 -13.7132 L -11.4318 -13.7415 L -11.3978 -13.7697 L -11.3638 -13.7978 L -11.3296 -13.8259 L -11.2954 -13.8538 L -11.2611 -13.8817 L -11.2268 -13.9095 L -11.1924 -13.9372 L -11.1579 -13.9648 L -11.1234 -13.9924 L -11.0887 -14.0198 L -11.054 -14.0472 L -11.0193 -14.0745 L -10.9845 -14.1017 L -10.9496 -14.1288 L -10.9146 -14.1558 L -10.8796 -14.1827 L -10.8445 -14.2096 L -10.8094 -14.2363 L -10.7347 -14.2927 L -10.6994 -14.3192 L -10.664 -14.3456 L -10.6285 -14.3719 L -10.5929 -14.3981 L -10.5573 -14.4243 L -10.5216 -14.4503 L -10.4859 -14.4763 L -10.4501 -14.5021 L -10.4142 -14.5279 L -10.3782 -14.5536 L -10.3422 -14.5792 L -10.3062 -14.6047 L -10.27 -14.6302 L -10.2338 -14.6555 L -10.1976 -14.6808 L -10.1613 -14.7059 L -10.1249 -14.731 L -10.0885 -14.756 L -10.052 -14.7809 L -10.0154 -14.8057 L -9.97876 -14.8304 L -9.94208 -14.855 L -9.90533 -14.8795 L -9.86853 -14.904 L -9.83166 -14.9283 L -9.79473 -14.9526 L -9.75774 -14.9767 L -9.72299 -14.9466 L -9.68222 -14.9204 L -9.64145 -14.8942 L -9.60066 -14.868 L -9.55987 -14.8417 L -9.51905 -14.8154 L -9.47823 -14.7891 L -9.43739 -14.7628 L -9.39655 -14.7365 L -9.35568 -14.7101 L -9.31481 -14.6837 L -9.27392 -14.6573 L -9.23302 -14.6309 L -9.19211 -14.6045 L -9.15119 -14.578 L -9.11025 -14.5515 L -9.0693 -14.525 L -9.02833 -14.4985 L -8.98735 -14.472 L -8.94636 -14.4454 L -8.90535 -14.4188 L -8.86434 -14.3922 L -8.8233 -14.3656 L -8.78226 -14.3389 L -8.7412 -14.3123 L -8.70012 -14.2856 L -8.65903 -14.2588 L -8.61793 -14.2321 L -8.57682 -14.2053 L -8.53569 -14.1785 L -8.49454 -14.1517 L -8.45338 -14.1249 L -8.41221 -14.098 L -8.37102 -14.0711 L -8.32982 -14.0442 L -8.2886 -14.0173 L -8.24737 -13.9903 L -8.20612 -13.9633 L -8.16486 -13.9363 L -8.12358 -13.9093 L -8.08229 -13.8822 L -8.04098 -13.8551 L -7.99966 -13.828 L -7.95832 -13.8008 L -7.91697 -13.7737 L -7.8756 -13.7465 L -7.83421 -13.7193 L -7.79281 -13.692 L -7.75139 -13.6647 L -7.70996 -13.6374 L -7.66851 -13.6101 L -7.62704 -13.5827 L -7.58556 -13.5553 L -7.54407 -13.5279 L -7.50255 -13.5004 L -7.46102 -13.4729 L -7.41947 -13.4454 L -7.37791 -13.4179 L -7.33633 -13.3903 L -7.29473 -13.3627 L -7.25311 -13.3351 L -7.21148 -13.3074 L -7.16983 -13.2797 L -7.12816 -13.252 L -7.08648 -13.2242 L -7.04478 -13.1964 L -7.00306 -13.1686 L -6.96132 -13.1407 L -6.91957 -13.1128 L -6.87779 -13.0849 L -6.836 -13.0569 L -6.79419 -13.0289 L -6.75236 -13.0009 L -6.71052 -12.9728 L -6.66865 -12.9447 L -6.62677 -12.9165 L -6.58486 -12.8884 L -6.54294 -12.8601 L -6.501 -12.8319 L -6.45904 -12.8036 L -6.41707 -12.7753 L -6.37507 -12.7469 L -6.33305 -12.7185 L -6.33305 -12.7185 L -6.3304 -12.7691 L -6.32773 -12.8197 L -6.32504 -12.8703 L -6.32233 -12.9208 L -6.31961 -12.9713 L -6.31686 -13.0218 L -6.3141 -13.0722 L -6.31132 -13.1226 L -6.30852 -13.173 L -6.30571 -13.2233 L -6.30287 -13.2735 L -6.30002 -13.3238 L -6.29716 -13.374 L -6.29427 -13.4242 L -6.29137 -13.4743 L -6.28846 -13.5244 L -6.28553 -13.5745 L -6.28258 -13.6245 L -6.27962 -13.6745 L -6.27664 -13.7245 L -6.27364 -13.7744 L -6.27064 -13.8243 L -6.26761 -13.8741 L -6.26457 -13.924 L -6.26152 -13.9738 L -6.25845 -14.0235 L -6.25537 -14.0733 L -6.25228 -14.123 L -6.24917 -14.1727 L -6.24605 -14.2223 L -6.24291 -14.2719 L -6.23976 -14.3215 L -6.2366 -14.3711 L -6.23342 -14.4206 L -6.23024 -14.4701 L -6.22703 -14.5195 L -6.22382 -14.569 L -6.2206 -14.6184 L -6.21736 -14.6677 L -6.21411 -14.7171 L -6.21084 -14.7664 L -6.20757 -14.8157 L -6.20428 -14.865 L -6.20099 -14.9142 L -6.19768 -14.9634 L -6.19436 -15.0126 L -6.19103 -15.0617 L -6.18768 -15.1109 L -6.18433 -15.16 L -6.18097 -15.209 L -6.17759 -15.2581 L -6.1742 -15.3071 L -6.17081 -15.3561 L -6.1674 -15.4051 L -6.16399 -15.454 L -6.16056 -15.5029 L -6.15712 -15.5518 L -6.15368 -15.6007 L -6.15022 -15.6495 L -6.14675 -15.6983 L -6.14328 -15.7471 L -6.13979 -15.7959 L -6.1363 -15.8447 L -6.1328 -15.8934 L -6.12928 -15.9421 L -6.12576 -15.9907 L -6.12223 -16.0394 L -6.11869 -16.088 L -6.11514 -16.1366 L -6.11158 -16.1852 L -6.10802 -16.2338 L -6.10444 -16.2823 L -6.10086 -16.3308 L -6.09727 -16.3793 L -6.09367 -16.4278 L -6.09007 -16.4762 L -6.08645 -16.5247 L -6.08283 -16.5731 L -6.0792 -16.6214 L -6.07556 -16.6698 L -6.07191 -16.7181 L -6.06826 -16.7665 L -6.07133 -16.8123 L -6.02975 -16.8273 L -5.98814 -16.8421 L -5.9465 -16.8569 L -5.90481 -16.8715 L -5.8631 -16.8861 L -5.82134 -16.9005 L -5.77955 -16.9149 L -5.73773 -16.9291 L -5.69587 -16.9432 L -5.65397 -16.9572 L -5.61204 -16.9712 L -5.57008 -16.985 L -5.52808 -16.9987 L -5.48605 -17.0123 L -5.44398 -17.0258 L -5.40188 -17.0392 L -5.35975 -17.0525 L -5.31759 -17.0657 L -5.27539 -17.0788 L -5.23316 -17.0918 L -5.1909 -17.1047 L -5.14861 -17.1175 L -5.10629 -17.1301 L -5.06393 -17.1427 L -5.02154 -17.1552 L -4.97913 -17.1675 L -4.93668 -17.1798 L -4.84674 -17.2054 L -4.8042 -17.2173 L -4.76163 -17.2291 L -4.71903 -17.2408 L -4.6764 -17.2524 L -4.63375 -17.264 L -4.59106 -17.2754 L -4.54835 -17.2866 L -4.50561 -17.2978 L -4.46284 -17.3089 L -4.42004 -17.3199 L -4.37722 -17.3308 L -4.33437 -17.3415 L -4.2915 -17.3522 L -4.2486 -17.3627 L -4.20567 -17.3732 L -4.16272 -17.3835 L -4.11974 -17.3938 L -4.07673 -17.4039 L -4.0337 -17.4139 L -3.99065 -17.4238 L -3.94757 -17.4337 L -3.90447 -17.4434 L -3.86135 -17.453 L -3.8182 -17.4624 L -3.77502 -17.4718 L -3.73183 -17.4811 L -3.68861 -17.4903 L -3.66707 -17.4497 L -3.63853 -17.4105 L -3.60998 -17.3713 L -3.58143 -17.3321 L -3.55287 -17.2929 L -3.52431 -17.2536 L -3.49574 -17.2144 L -3.46717 -17.1751 L -3.43859 -17.1358 L -3.41001 -17.0964 L -3.38143 -17.0571 L -3.35284 -17.0177 L -3.32424 -16.9783 L -3.29564 -16.9388 L -3.26704 -16.8994 L -3.23843 -16.8599 L -3.20982 -16.8204 L -3.1812 -16.7809 L -3.15258 -16.7413 L -3.12395 -16.7017 L -3.09532 -16.6621 L -3.06668 -16.6225 L -3.03804 -16.5829 L -3.00939 -16.5432 L -2.98074 -16.5035 L -2.95209 -16.4637 L -2.92342 -16.424 L -2.89476 -16.3842 L -2.86609 -16.3444 L -2.83741 -16.3045 L -2.80874 -16.2647 L -2.78005 -16.2248 L -2.75136 -16.1848 L -2.72267 -16.1449 L -2.69397 -16.1049 L -2.66527 -16.0649 L -2.63656 -16.0249 L -2.60785 -15.9848 L -2.57913 -15.9447 L -2.55041 -15.9046 L -2.52168 -15.8644 L -2.49295 -15.8242 L -2.46421 -15.784 L -2.43547 -15.7438 L -2.40672 -15.7035 L -2.37797 -15.6632 L -2.34922 -15.6229 L -2.32046 -15.5825 L -2.29169 -15.5421 L -2.26292 -15.5017 L -2.23415 -15.4612 L -2.20537 -15.4207 L -2.17658 -15.3802 L -2.1478 -15.3396 L -2.119 -15.299 L -2.0902 -15.2584 L -2.0614 -15.2177 L -2.03259 -15.177 L -2.00378 -15.1363 L -1.97497 -15.0955 L -1.94615 -15.0547 L -1.91732 -15.0139 L -1.88849 -14.973 L -1.85965 -14.9321 L -1.83081 -14.8911 L -1.80197 -14.8501 L -1.77312 -14.8091 L -1.74427 -14.7681 L -1.71541 -14.727 L -1.68655 -14.6858 L -1.65768 -14.6446 L -1.62881 -14.6034 L -1.59994 -14.5622 L -1.57106 -14.5209 L -1.54217 -14.4796 L -1.51328 -14.4382 L -1.48439 -14.3968 L -1.4555 -14.3553 L -1.42659 -14.3138 L -1.39769 -14.2723 L -1.36878 -14.2307 L -1.33987 -14.1891 L -1.31095 -14.1474 L -1.31095 -14.1474 L -1.29018 -14.1937 L -1.26941 -14.2399 L -1.24863 -14.2861 L -1.22785 -14.3322 L -1.20707 -14.3783 L -1.18628 -14.4244 L -1.16549 -14.4704 L -1.1447 -14.5164 L -1.1239 -14.5623 L -1.1031 -14.6082 L -1.0823 -14.6541 L -1.06149 -14.6999 L -1.04068 -14.7457 L -1.01987 -14.7914 L -0.999054 -14.8371 L -0.978237 -14.8828 L -0.957418 -14.9284 L -0.936596 -14.974 L -0.915772 -15.0195 L -0.894946 -15.0651 L -0.874117 -15.1105 L -0.853287 -15.156 L -0.832454 -15.2014 L -0.811619 -15.2468 L -0.790783 -15.2921 L -0.769945 -15.3374 L -0.749105 -15.3827 L -0.728263 -15.4279 L -0.70742 -15.4731 L -0.686575 -15.5182 L -0.665729 -15.5634 L -0.644881 -15.6085 L -0.624032 -15.6535 L -0.603181 -15.6986 L -0.58233 -15.7436 L -0.561477 -15.7885 L -0.540623 -15.8335 L -0.519768 -15.8784 L -0.498912 -15.9232 L -0.478055 -15.9681 L -0.457197 -16.0129 L -0.436338 -16.0577 L -0.415478 -16.1024 L -0.394618 -16.1471 L -0.373757 -16.1918 L -0.352895 -16.2365 L -0.332032 -16.2811 L -0.311169 -16.3257 L -0.290306 -16.3703 L -0.269442 -16.4148 L -0.248577 -16.4593 L -0.227712 -16.5038 L -0.206847 -16.5483 L -0.185981 -16.5927 L -0.165115 -16.6371 L -0.144248 -16.6815 L -0.123382 -16.7258 L -0.102515 -16.7702 L -0.0816481 -16.8145 L -0.060781 -16.8587 L -0.0399139 -16.903 L -0.0190467 -16.9472 L 0.00182057 -16.9914 L 0.0226878 -17.0356 L 0.043555 -17.0797 L 0.0644222 -17.1238 L 0.0852892 -17.1679 L 0.106156 -17.212 L 0.127023 -17.256 L 0.14789 -17.3 L 0.168756 -17.344 L 0.189622 -17.388 L 0.210488 -17.4319 L 0.231354 -17.4758 L 0.252219 -17.5197 L 0.273084 -17.5636 L 0.293948 -17.6075 L 0.314813 -17.6513 L 0.335676 -17.6951 L 0.35654 -17.7389 L 0.377403 -17.7826 L 0.398265 -17.8264 L 0.411974 -17.8703 L 0.456142 -17.8692 L 0.500307 -17.868 L 0.544469 -17.8667 L 0.588627 -17.8653 L 0.632782 -17.8638 L 0.676933 -17.8622 L 0.72108 -17.8604 L 0.765222 -17.8586 L 0.80936 -17.8567 L 0.853493 -17.8546 L 0.897621 -17.8524 L 0.941743 -17.8502 L 0.98586 -17.8478 L 1.02997 -17.8453 L 1.07407 -17.8427 L 1.11817 -17.84 L 1.16226 -17.8372 L 1.20635 -17.8342 L 1.25042 -17.8312 L 1.29449 -17.8281 L 1.33855 -17.8248 L 1.3826 -17.8214 L 1.42665 -17.818 L 1.47068 -17.8144 L 1.51471 -17.8107 L 1.55873 -17.8069 L 1.60273 -17.803 L 1.69585 -17.7944 L 1.73982 -17.7901 L 1.78379 -17.7858 L 1.82774 -17.7813 L 1.87169 -17.7767 L 1.91562 -17.7721 L 1.95954 -17.7673 L 2.00345 -17.7624 L 2.04734 -17.7574 L 2.09123 -17.7523 L 2.1351 -17.747 L 2.17896 -17.7417 L 2.2228 -17.7363 L 2.26663 -17.7307 L 2.31045 -17.7251 L 2.35425 -17.7193 L 2.39804 -17.7134 L 2.44182 -17.7074 L 2.48557 -17.7013 L 2.52932 -17.6951 L 2.57305 -17.6888 L 2.61676 -17.6824 L 2.66046 -17.6759 L 2.70414 -17.6693 L 2.7478 -17.6625 L 2.79145 -17.6557 L 2.83508 -17.6487 L 2.87869 -17.6417 L 2.8841 -17.596 L 2.89657 -17.5492 L 2.90904 -17.5024 L 2.9215 -17.4555 L 2.93396 -17.4086 L 2.94642 -17.3617 L 2.95887 -17.3147 L 2.97132 -17.2678 L 2.98376 -17.2208 L 2.9962 -17.1738 L 3.00864 -17.1268 L 3.02107 -17.0797 L 3.0335 -17.0326 L 3.04592 -16.9855 L 3.05834 -16.9384 L 3.07076 -16.8913 L 3.08317 -16.8441 L 3.09557 -16.7969 L 3.10797 -16.7497 L 3.12037 -16.7024 L 3.13276 -16.6551 L 3.14515 -16.6078 L 3.15753 -16.5605 L 3.16991 -16.5132 L 3.18228 -16.4658 L 3.19465 -16.4184 L 3.20701 -16.371 L 3.21937 -16.3235 L 3.23172 -16.276 L 3.24406 -16.2285 L 3.2564 -16.181 L 3.26874 -16.1334 L 3.28107 -16.0858 L 3.29339 -16.0382 L 3.30571 -15.9906 L 3.31802 -15.9429 L 3.33033 -15.8952 L 3.34263 -15.8474 L 3.35493 -15.7997 L 3.36721 -15.7519 L 3.3795 -15.7041 L 3.39177 -15.6562 L 3.40404 -15.6083 L 3.4163 -15.5604 L 3.42856 -15.5125 L 3.44081 -15.4645 L 3.45305 -15.4165 L 3.46529 -15.3685 L 3.47751 -15.3204 L 3.48974 -15.2723 L 3.50195 -15.2242 L 3.51416 -15.176 L 3.52635 -15.1279 L 3.53855 -15.0796 L 3.55073 -15.0314 L 3.5629 -14.9831 L 3.57507 -14.9348 L 3.58723 -14.8864 L 3.59938 -14.838 L 3.61153 -14.7896 L 3.62366 -14.7411 L 3.63579 -14.6926 L 3.6479 -14.6441 L 3.66001 -14.5955 L 3.67211 -14.5469 L 3.6842 -14.4983 L 3.69628 -14.4496 L 3.70836 -14.4009 L 3.72042 -14.3522 L 3.73247 -14.3034 L 3.74451 -14.2546 L 3.75655 -14.2057 L 3.76857 -14.1568 L 3.78058 -14.1079 L 3.79258 -14.0589 L 3.80457 -14.0099 L 3.81656 -13.9608 L 3.82853 -13.9117 L 3.84048 -13.8626 L 3.85243 -13.8134 L 3.86437 -13.7642 L 3.87629 -13.7149 L 3.8882 -13.6656 L 3.8882 -13.6656 L 3.92429 -13.7013 L 3.96036 -13.7369 L 3.99641 -13.7724 L 4.03246 -13.808 L 4.06849 -13.8434 L 4.10452 -13.8789 L 4.14053 -13.9143 L 4.17653 -13.9496 L 4.21251 -13.985 L 4.24849 -14.0202 L 4.28445 -14.0555 L 4.3204 -14.0907 L 4.35635 -14.1259 L 4.39228 -14.161 L 4.42819 -14.1961 L 4.4641 -14.2312 L 4.5 -14.2662 L 4.53588 -14.3012 L 4.57175 -14.3361 L 4.60761 -14.371 L 4.64346 -14.4059 L 4.6793 -14.4408 L 4.71513 -14.4756 L 4.75095 -14.5104 L 4.78676 -14.5451 L 4.82255 -14.5798 L 4.85833 -14.6145 L 4.89411 -14.6491 L 4.92987 -14.6838 L 4.96562 -14.7183 L 5.00136 -14.7529 L 5.0371 -14.7874 L 5.07282 -14.8219 L 5.10852 -14.8564 L 5.14422 -14.8908 L 5.17991 -14.9252 L 5.21559 -14.9596 L 5.25126 -14.9939 L 5.28691 -15.0282 L 5.32256 -15.0625 L 5.3582 -15.0967 L 5.39382 -15.1309 L 5.42944 -15.1651 L 5.46505 -15.1993 L 5.50064 -15.2334 L 5.53623 -15.2675 L 5.5718 -15.3016 L 5.60737 -15.3357 L 5.64293 -15.3697 L 5.67847 -15.4037 L 5.71401 -15.4377 L 5.74953 -15.4716 L 5.78505 -15.5055 L 5.82056 -15.5394 L 5.85606 -15.5733 L 5.89154 -15.6071 L 5.92702 -15.641 L 5.96249 -15.6747 L 5.99795 -15.7085 L 6.0334 -15.7423 L 6.06884 -15.776 L 6.10427 -15.8097 L 6.13969 -15.8433 L 6.17511 -15.877 L 6.21051 -15.9106 L 6.2459 -15.9442 L 6.28129 -15.9778 L 6.31667 -16.0113 L 6.35203 -16.0449 L 6.38739 -16.0784 L 6.42274 -16.1118 L 6.45808 -16.1453 L 6.49341 -16.1787 L 6.52873 -16.2122 L 6.56405 -16.2456 L 6.59935 -16.2789 L 6.63465 -16.3123 L 6.66994 -16.3456 L 6.70521 -16.3789 L 6.74048 -16.4122 L 6.77575 -16.4455 L 6.811 -16.4787 L 6.83963 -16.5147 L 6.88043 -16.4977 L 6.92119 -16.4807 L 6.9619 -16.4635 L 7.00257 -16.4463 L 7.0432 -16.4289 L 7.08378 -16.4114 L 7.12433 -16.3939 L 7.16482 -16.3762 L 7.20528 -16.3585 L 7.24569 -16.3406 L 7.28605 -16.3227 L 7.32638 -16.3046 L 7.36665 -16.2864 L 7.40688 -16.2682 L 7.44707 -16.2498 L 7.48721 -16.2314 L 7.52731 -16.2128 L 7.56736 -16.1942 L 7.60736 -16.1754 L 7.64732 -16.1566 L 7.68723 -16.1376 L 7.72709 -16.1186 L 7.76691 -16.0994 L 7.80667 -16.0802 L 7.84639 -16.0608 L 7.88607 -16.0414 L 7.92569 -16.0218 L 8.0094 -15.9801 L 8.04887 -15.9603 L 8.0883 -15.9404 L 8.12767 -15.9203 L 8.167 -15.9002 L 8.20627 -15.8799 L 8.24549 -15.8596 L 8.28467 -15.8392 L 8.32379 -15.8187 L 8.36286 -15.798 L 8.40189 -15.7773 L 8.44086 -15.7565 L 8.47978 -15.7356 L 8.51864 -15.7146 L 8.55746 -15.6935 L 8.59622 -15.6723 L 8.63493 -15.651 L 8.67359 -15.6296 L 8.71219 -15.6081 L 8.75074 -15.5865 L 8.78924 -15.5649 L 8.82768 -15.5431 L 8.86607 -15.5212 L 8.90441 -15.4993 L 8.94269 -15.4772 L 8.98092 -15.4551 L 9.01909 -15.4328 L 9.05721 -15.4105 L 9.04576 -15.3659 L 9.04048 -15.3178 L 9.03518 -15.2696 L 9.02987 -15.2214 L 9.02455 -15.1732 L 9.01921 -15.1249 L 9.01387 -15.0766 L 9.00851 -15.0284 L 9.00314 -14.9801 L 8.99776 -14.9317 L 8.99237 -14.8834 L 8.98697 -14.835 L 8.98155 -14.7866 L 8.97612 -14.7382 L 8.97067 -14.6898 L 8.96522 -14.6413 L 8.95975 -14.5929 L 8.95427 -14.5444 L 8.94877 -14.4959 L 8.94326 -14.4473 L 8.93774 -14.3988 L 8.93221 -14.3502 L 8.92666 -14.3016 L 8.92109 -14.253 L 8.91552 -14.2043 L 8.90992 -14.1556 L 8.90432 -14.107 L 8.8987 -14.0582 L 8.89306 -14.0095 L 8.88741 -13.9607 L 8.88175 -13.912 L 8.87607 -13.8632 L 8.87038 -13.8143 L 8.86467 -13.7655 L 8.85894 -13.7166 L 8.8532 -13.6677 L 8.84744 -13.6188 L 8.84167 -13.5698 L 8.83588 -13.5208 L 8.83007 -13.4718 L 8.82425 -13.4228 L 8.81841 -13.3737 L 8.81256 -13.3247 L 8.80669 -13.2756 L 8.8008 -13.2264 L 8.79489 -13.1773 L 8.78896 -13.1281 L 8.78302 -13.0789 L 8.77706 -13.0297 L 8.77108 -12.9804 L 8.76509 -12.9311 L 8.75907 -12.8818 L 8.75304 -12.8324 L 8.74699 -12.7831 L 8.74091 -12.7337 L 8.73482 -12.6842 L 8.72871 -12.6348 L 8.72258 -12.5853 L 8.71643 -12.5358 L 8.71026 -12.4862 L 8.70407 -12.4367 L 8.69786 -12.3871 L 8.69163 -12.3374 L 8.68537 -12.2878 L 8.6791 -12.2381 L 8.6728 -12.1884 L 8.66649 -12.1386 L 8.66015 -12.0888 L 8.65378 -12.039 L 8.6474 -11.9892 L 8.64099 -11.9393 L 8.63456 -11.8894 L 8.62811 -11.8395 L 8.62163 -11.7895 L 8.61513 -11.7395 L 8.60861 -11.6894 L 8.60206 -11.6394 L 8.59548 -11.5893 L 8.58888 -11.5391 L 8.58226 -11.4889 L 8.57561 -11.4387 L 8.56893 -11.3885 L 8.56223 -11.3382 L 8.56223 -11.3382 L 8.60875 -11.3584 L 8.65525 -11.3786 L 8.70172 -11.3987 L 8.74816 -11.4188 L 8.79458 -11.4389 L 8.84097 -11.4589 L 8.88734 -11.4789 L 8.93368 -11.4989 L 8.98 -11.5189 L 9.02629 -11.5388 L 9.07256 -11.5586 L 9.1188 -11.5785 L 9.16502 -11.5983 L 9.21122 -11.6181 L 9.25739 -11.6378 L 9.30354 -11.6575 L 9.34966 -11.6772 L 9.39576 -11.6969 L 9.44184 -11.7165 L 9.48789 -11.7361 L 9.53392 -11.7557 L 9.57993 -11.7753 L 9.62591 -11.7948 L 9.67188 -11.8143 L 9.71782 -11.8337 L 9.76373 -11.8532 L 9.80963 -11.8726 L 9.8555 -11.892 L 9.90136 -11.9113 L 9.94719 -11.9307 L 9.993 -11.95 L 10.0388 -11.9692 L 10.0846 -11.9885 L 10.1303 -12.0077 L 10.176 -12.0269 L 10.2217 -12.0461 L 10.2674 -12.0653 L 10.3131 -12.0844 L 10.3587 -12.1035 L 10.4043 -12.1226 L 10.4499 -12.1417 L 10.4955 -12.1607 L 10.5411 -12.1797 L 10.5866 -12.1987 L 10.6321 -12.2177 L 10.6777 -12.2366 L 10.7231 -12.2556 L 10.7686 -12.2745 L 10.814 -12.2934 L 10.8595 -12.3122 L 10.9049 -12.3311 L 10.9503 -12.3499 L 10.9956 -12.3687 L 11.041 -12.3875 L 11.0863 -12.4062 L 11.1317 -12.425 L 11.1769 -12.4437 L 11.2222 -12.4624 L 11.2675 -12.481 L 11.3127 -12.4997 L 11.358 -12.5183 L 11.4032 -12.537 L 11.4484 -12.5556 L 11.4935 -12.5741 L 11.5387 -12.5927 L 11.5838 -12.6112 L 11.629 -12.6298 L 11.6741 -12.6483 L 11.7192 -12.6668 L 11.7642 -12.6852 L 11.8093 -12.7037 L 11.8543 -12.7221 L 11.8994 -12.7405 L 11.9444 -12.7589 L 11.9894 -12.7773 L 12.0343 -12.7957 L 12.0793 -12.814 L 12.1242 -12.8324 L 12.1692 -12.8507 L 12.2141 -12.869 L 12.259 -12.8873 L 12.3039 -12.9055 L 12.3436 -12.9287 L 12.3755 -12.8982 L 12.4073 -12.8676 L 12.4391 -12.8368 L 12.4708 -12.8061 L 12.5024 -12.7752 L 12.5339 -12.7443 L 12.5654 -12.7132 L 12.5968 -12.6821 L 12.6281 -12.651 L 12.6593 -12.6197 L 12.6905 -12.5884 L 12.7215 -12.557 L 12.7525 -12.5255 L 12.7835 -12.494 L 12.8143 -12.4623 L 12.8451 -12.4306 L 12.8757 -12.3988 L 12.9064 -12.367 L 12.9369 -12.335 L 12.9673 -12.303 L 12.9977 -12.2709 L 13.028 -12.2388 L 13.0582 -12.2065 L 13.0883 -12.1742 L 13.1184 -12.1418 L 13.1484 -12.1094 L 13.1782 -12.0768 L 13.2412 -12.0077 L 13.2709 -11.975 L 13.3004 -11.9421 L 13.3299 -11.9092 L 13.3593 -11.8762 L 13.3886 -11.8432 L 13.4178 -11.81 L 13.447 -11.7768 L 13.4761 -11.7436 L 13.5051 -11.7102 L 13.534 -11.6768 L 13.5628 -11.6433 L 13.5915 -11.6098 L 13.6202 -11.5761 L 13.6487 -11.5424 L 13.6772 -11.5087 L 13.7056 -11.4748 L 13.7339 -11.4409 L 13.7622 -11.4069 L 13.7903 -11.3729 L 13.8184 -11.3388 L 13.8464 -11.3046 L 13.8743 -11.2703 L 13.9021 -11.236 L 13.9298 -11.2016 L 13.9575 -11.1671 L 13.985 -11.1326 L 14.0125 -11.098 L 13.9857 -11.0606 L 13.9634 -11.0176 L 13.9411 -10.9746 L 13.9187 -10.9316 L 13.8963 -10.8885 L 13.8739 -10.8454 L 13.8515 -10.8024 L 13.8291 -10.7593 L 13.8066 -10.7162 L 13.7841 -10.6731 L 13.7616 -10.6299 L 13.7391 -10.5868 L 13.7166 -10.5436 L 13.694 -10.5004 L 13.6715 -10.4572 L 13.6489 -10.414 L 13.6263 -10.3708 L 13.6036 -10.3276 L 13.581 -10.2843 L 13.5583 -10.2411 L 13.5356 -10.1978 L 13.5129 -10.1545 L 13.4902 -10.1112 L 13.4674 -10.0678 L 13.4447 -10.0245 L 13.4219 -9.98111 L 13.3991 -9.93774 L 13.3762 -9.89434 L 13.3534 -9.85093 L 13.3305 -9.8075 L 13.3076 -9.76406 L 13.2846 -9.7206 L 13.2617 -9.67712 L 13.2387 -9.63363 L 13.2157 -9.59012 L 13.1927 -9.54659 L 13.1697 -9.50305 L 13.1466 -9.45949 L 13.1235 -9.41591 L 13.1004 -9.37231 L 13.0772 -9.3287 L 13.0541 -9.28507 L 13.0309 -9.24142 L 13.0077 -9.19775 L 12.9844 -9.15407 L 12.9612 -9.11036 L 12.9379 -9.06664 L 12.9146 -9.0229 L 12.8912 -8.97915 L 12.8678 -8.93537 L 12.8445 -8.89158 L 12.821 -8.84776 L 12.7976 -8.80393 L 12.7741 -8.76008 L 12.7506 -8.71621 L 12.7271 -8.67232 L 12.7035 -8.62841 L 12.6799 -8.58448 L 12.6563 -8.54053 L 12.6326 -8.49657 L 12.6089 -8.45258 L 12.5852 -8.40857 L 12.5615 -8.36454 L 12.5377 -8.32049 L 12.5139 -8.27643 L 12.4901 -8.23234 L 12.4662 -8.18823 L 12.4423 -8.1441 L 12.4184 -8.09994 L 12.3945 -8.05577 L 12.3705 -8.01158 L 12.3464 -7.96736 L 12.3224 -7.92313 L 12.2983 -7.87887 L 12.2742 -7.83459 L 12.25 -7.79029 L 12.2258 -7.74596 L 12.2016 -7.70162 L 12.1773 -7.65725 L 12.153 -7.61286 L 12.1287 -7.56844 L 12.1043 -7.52401 L 12.0799 -7.47955 L 12.0799 -7.47955 L 12.1306 -7.48158 L 12.1812 -7.48359 L 12.2318 -7.48558 L 12.2824 -7.48755 L 12.3329 -7.48949 L 12.3834 -7.49142 L 12.4339 -7.49332 L 12.4843 -7.4952 L 12.5347 -7.49706 L 12.585 -7.4989 L 12.6354 -7.50071 L 12.6857 -7.50251 L 12.7359 -7.50429 L 12.7861 -7.50605 L 12.8363 -7.50779 L 12.8865 -7.50951 L 12.9366 -7.51121 L 12.9867 -7.51289 L 13.0367 -7.51455 L 13.0868 -7.5162 L 13.1368 -7.51782 L 13.1867 -7.51943 L 13.2367 -7.52102 L 13.2866 -7.52259 L 13.3364 -7.52415 L 13.3863 -7.52569 L 13.4361 -7.52721 L 13.4859 -7.52871 L 13.5356 -7.5302 L 13.5853 -7.53167 L 13.635 -7.53313 L 13.6847 -7.53457 L 13.7343 -7.53599 L 13.7839 -7.5374 L 13.8335 -7.53879 L 13.883 -7.54016 L 13.9326 -7.54153 L 13.982 -7.54287 L 14.0315 -7.5442 L 14.0809 -7.54552 L 14.1304 -7.54682 L 14.1797 -7.54811 L 14.2291 -7.54938 L 14.2784 -7.55064 L 14.3277 -7.55189 L 14.377 -7.55312 L 14.4263 -7.55434 L 14.4755 -7.55554 L 14.5247 -7.55673 L 14.5738 -7.55791 L 14.623 -7.55908 L 14.6721 -7.56023 L 14.7212 -7.56137 L 14.7703 -7.56249 L 14.8193 -7.56361 L 14.8684 -7.56471 L 14.9174 -7.5658 L 14.9663 -7.56688 L 15.0153 -7.56794 L 15.0642 -7.56899 L 15.1131 -7.57003 L 15.162 -7.57106 L 15.2109 -7.57208 L 15.2597 -7.57309 L 15.3085 -7.57408 L 15.3573 -7.57507 L 15.4061 -7.57604 L 15.4548 -7.577 L 15.5036 -7.57796 L 15.5523 -7.5789 L 15.6009 -7.57983 L 15.6496 -7.58075 L 15.6982 -7.58166 L 15.7469 -7.58255 L 15.7955 -7.58344 L 15.844 -7.58432 L 15.8926 -7.58519 L 15.9411 -7.58605 L 15.9896 -7.5869 L 16.0381 -7.58774 L 16.0866 -7.58857 L 16.135 -7.58938 L 16.1804 -7.59667 L 16.1992 -7.55666 L 16.2178 -7.5166 L 16.2363 -7.47649 L 16.2547 -7.43633 L 16.2731 -7.39614 L 16.2913 -7.35589 L 16.3094 -7.3156 L 16.3275 -7.27527 L 16.3454 -7.23489 L 16.3632 -7.19447 L 16.381 -7.154 L 16.3986 -7.11349 L 16.4161 -7.07294 L 16.4336 -7.03234 L 16.4509 -6.9917 L 16.4681 -6.95102 L 16.4852 -6.9103 L 16.5023 -6.86953 L 16.5192 -6.82872 L 16.536 -6.78787 L 16.5528 -6.74698 L 16.5694 -6.70605 L 16.5859 -6.66507 L 16.6023 -6.62406 L 16.6187 -6.583 L 16.6349 -6.54191 L 16.651 -6.50077 L 16.6848 -6.41357 L 16.7006 -6.37232 L 16.7163 -6.33102 L 16.7319 -6.28968 L 16.7474 -6.24831 L 16.7628 -6.2069 L 16.778 -6.16544 L 16.7932 -6.12396 L 16.8083 -6.08243 L 16.8233 -6.04087 L 16.8382 -5.99927 L 16.853 -5.95763 L 16.8676 -5.91596 L 16.8822 -5.87425 L 16.8967 -5.83251 L 16.911 -5.79072 L 16.9253 -5.74891 L 16.9395 -5.70706 L 16.9535 -5.66517 L 16.9675 -5.62325 L 16.9813 -5.5813 L 16.995 -5.53931 L 17.0087 -5.49729 L 17.0222 -5.45523 L 17.0357 -5.41314 L 17.049 -5.37102 L 17.0622 -5.32886 L 17.0753 -5.28667 L 17.0369 -5.26148 L 17.0005 -5.22944 L 16.9641 -5.1974 L 16.9277 -5.16535 L 16.8913 -5.1333 L 16.8549 -5.10124 L 16.8184 -5.06917 L 16.7819 -5.03709 L 16.7454 -5.00501 L 16.7089 -4.97292 L 16.6723 -4.94083 L 16.6357 -4.90873 L 16.5991 -4.87662 L 16.5625 -4.8445 L 16.5259 -4.81238 L 16.4892 -4.78025 L 16.4525 -4.74811 L 16.4158 -4.71597 L 16.379 -4.68382 L 16.3423 -4.65166 L 16.3055 -4.6195 L 16.2686 -4.58733 L 16.2318 -4.55515 L 16.1949 -4.52297 L 16.158 -4.49077 L 16.1211 -4.45857 L 16.0842 -4.42637 L 16.0472 -4.39415 L 16.0102 -4.36193 L 15.9732 -4.3297 L 15.9361 -4.29747 L 15.899 -4.26522 L 15.8619 -4.23297 L 15.8248 -4.20072 L 15.7876 -4.16845 L 15.7505 -4.13618 L 15.7132 -4.1039 L 15.676 -4.07161 L 15.6387 -4.03932 L 15.6014 -4.00702 L 15.5641 -3.97471 L 15.5267 -3.94239 L 15.4893 -3.91007 L 15.4519 -3.87773 L 15.4145 -3.84539 L 15.377 -3.81305 L 15.3395 -3.78069 L 15.3019 -3.74833 L 15.2643 -3.71596 L 15.2267 -3.68358 L 15.1891 -3.6512 L 15.1514 -3.6188 L 15.1137 -3.5864 L 15.076 -3.55399 L 15.0382 -3.52158 L 15.0004 -3.48915 L 14.9626 -3.45672 L 14.9247 -3.42428 L 14.8868 -3.39183 L 14.8489 -3.35938 L 14.8109 -3.32692 L 14.7729 -3.29445 L 14.7349 -3.26197 L 14.6968 -3.22948 L 14.6587 -3.19698 L 14.6205 -3.16448 L 14.5823 -3.13197 L 14.5441 -3.09945 L 14.5059 -3.06693 L 14.4676 -3.03439 L 14.4292 -3.00185 L 14.3908 -2.9693 L 14.3524 -2.93674 L 14.314 -2.90417 L 14.2755 -2.8716 L 14.237 -2.83902 L 14.1984 -2.80643 L 14.1598 -2.77383 L 14.1211 -2.74122 L 14.0824 -2.70861 L 14.0437 -2.67598 L 14.0049 -2.64335 L 13.9661 -2.61071 L 13.9661 -2.61071 L 14.0141 -2.5943 L 14.062 -2.57788 L 14.1099 -2.56146 L 14.1578 -2.54502 L 14.2056 -2.52858 L 14.2534 -2.51213 L 14.3011 -2.49568 L 14.3488 -2.47922 L 14.3965 -2.46275 L 14.4441 -2.44627 L 14.4917 -2.42979 L 14.5392 -2.4133 L 14.5867 -2.3968 L 14.6342 -2.3803 L 14.6816 -2.36379 L 14.729 -2.34727 L 14.7764 -2.33075 L 14.8237 -2.31423 L 14.871 -2.29769 L 14.9182 -2.28116 L 14.9654 -2.26461 L 15.0126 -2.24806 L 15.0597 -2.23151 L 15.1068 -2.21495 L 15.1539 -2.19839 L 15.2009 -2.18182 L 15.2479 -2.16524 L 15.2949 -2.14866 L 15.3418 -2.13208 L 15.3887 -2.11549 L 15.4356 -2.0989 L 15.4824 -2.0823 L 15.5292 -2.0657 L 15.5759 -2.04909 L 15.6227 -2.03248 L 15.6694 -2.01586 L 15.716 -1.99924 L 15.7627 -1.98262 L 15.8093 -1.96599 L 15.8558 -1.94936 L 15.9024 -1.93273 L 15.9489 -1.91609 L 15.9954 -1.89945 L 16.0418 -1.8828 L 16.0883 -1.86615 L 16.1347 -1.8495 L 16.181 -1.83285 L 16.2274 -1.81619 L 16.2737 -1.79953 L 16.3199 -1.78286 L 16.3662 -1.76619 L 16.4124 -1.74952 L 16.4586 -1.73285 L 16.5048 -1.71617 L 16.5509 -1.69949 L 16.597 -1.68281 L 16.6431 -1.66612 L 16.6892 -1.64943 L 16.7352 -1.63274 L 16.7812 -1.61605 L 16.8272 -1.59935 L 16.8731 -1.58266 L 16.9191 -1.56595 L 16.965 -1.54925 L 17.0109 -1.53255 L 17.0567 -1.51584 L 17.1025 -1.49913 L 17.1483 -1.48242 L 17.1941 -1.4657 L 17.2399 -1.44899 L 17.2856 -1.43227 L 17.3313 -1.41555 L 17.377 -1.39882 L 17.4226 -1.3821 L 17.4683 -1.36537 L 17.5139 -1.34865 L 17.5595 -1.33192 L 17.605 -1.31519 L 17.6506 -1.29845 L 17.6961 -1.28172 L 17.7416 -1.26498 L 17.7871 -1.24824 L 17.832 -1.23864 L 17.835 -1.19456 L 17.8379 -1.15048 L 17.8407 -1.10639 L 17.8434 -1.06229 L 17.846 -1.01818 L 17.8484 -0.974068 L 17.8508 -0.92995 L 17.853 -0.885827 L 17.8552 -0.841698 L 17.8572 -0.797563 L 17.8591 -0.753424 L 17.8609 -0.709281 L 17.8626 -0.665133 L 17.8642 -0.62098 L 17.8657 -0.576824 L 17.8671 -0.532665 L 17.8683 -0.488502 L 17.8695 -0.444337 L 17.8705 -0.400168 L 17.8715 -0.355998 L 17.8723 -0.311825 L 17.873 -0.26765 L 17.8736 -0.223473 L 17.8741 -0.179295 L 17.8745 -0.135116 L 17.8748 -0.0909363 L 17.8749 -0.0467559Z"
id="path1" />
</g>
</svg>
