<?xml version="1.0" encoding="UTF-8" standalone="no"?>
<svg version="1.1">
<g
style="fill:none;stroke:#000000;stroke-opacity:1;stroke-width:0.1">
<path d="M 18.1249 0.0609134 L 18.1247 0.104442 L 18.1244 0.147971 L 18.124 0.191498 L 18.1235 0.235025 L 18.1229 0.27855 L 18.1221 0.322073 L 18.1213 0.365595 L 18.1204 0.409114 L 18.1193 0.452631 L 18.1182 0.496146 L 18.117 0.539657 L 18.1156 0.583166 L 18.1142 0.626671 L 18.1126 0.670172 L 18.1109 0.71367 L 18.1092 0.757164 L 18.1073 0.800653 L 18.1053 0.844137 L 18.1033 0.887617 L 18.1011 0.931092 L 18.0988 0.974561 L 18.0964 1.01802 L 18.0939 1.06148 L 18.0913 1.10493 L 18.0886 1.14838 L 18.0858 1.19182 L 18.0829 1.23525 L 18.0798 1.27867 L 18.0355 1.28794 L 17.9907 1.30428 L 17.9459 1.32062 L 17.901 1.33696 L 17.8561 1.3533 L 17.8112 1.36963 L 17.7663 1.38597 L 17.7214 1.4023 L 17.6764 1.41863 L 17.6314 1.43496 L 17.5864 1.45128 L 17.5414 1.46761 L 17.4963 1.48393 L 17.4512 1.50025 L 17.4061 1.51657 L 17.361 1.53289 L 17.3158 1.5492 L 17.2707 1.56552 L 17.2255 1.58183 L 17.1802 1.59814 L 17.135 1.61444 L 17.0897 1.63075 L 17.0444 1.64705 L 16.9991 1.66335 L 16.9538 1.67964 L 16.9084 1.69594 L 16.863 1.71223 L 16.8176 1.72852 L 16.7721 1.7448 L 16.7267 1.76109 L 16.6812 1.77737 L 16.6356 1.79365 L 16.5901 1.80992 L 16.5445 1.8262 L 16.4989 1.84247 L 16.4533 1.85873 L 16.4076 1.875 L 16.3619 1.89126 L 16.3162 1.90751 L 16.2705 1.92377 L 16.2247 1.94002 L 16.1789 1.95627 L 16.1331 1.97251 L 16.0872 1.98875 L 16.0414 2.00499 L 15.9955 2.02122 L 15.9495 2.03745 L 15.9035 2.05367 L 15.8575 2.0699 L 15.8115 2.08611 L 15.7654 2.10233 L 15.7194 2.11854 L 15.6732 2.13474 L 15.6271 2.15094 L 15.5809 2.16714 L 15.5347 2.18333 L 15.4884 2.19952 L 15.4421 2.2157 L 15.3958 2.23188 L 15.3495 2.24806 L 15.3031 2.26423 L 15.2567 2.28039 L 15.2102 2.29655 L 15.1638 2.31271 L 15.1173 2.32885 L 15.0707 2.345 L 15.0241 2.36114 L 14.9775 2.37727 L 14.9309 2.3934 L 14.8842 2.40952 L 14.8374 2.42564 L 14.7907 2.44175 L 14.7439 2.45785 L 14.6971 2.47395 L 14.6502 2.49004 L 14.6033 2.50612 L 14.5563 2.5222 L 14.5094 2.53828 L 14.4623 2.55434 L 14.4153 2.5704 L 14.3682 2.58645 L 14.321 2.6025 L 14.2739 2.61853 L 14.2266 2.63456 L 14.1794 2.65059 L 14.1794 2.65059 L 14.2177 2.6826 L 14.2559 2.7146 L 14.2941 2.7466 L 14.3323 2.77859 L 14.3704 2.81057 L 14.4085 2.84255 L 14.4465 2.87451 L 14.4845 2.90647 L 14.5225 2.93842 L 14.5604 2.97037 L 14.5983 3.0023 L 14.6361 3.03423 L 14.674 3.06615 L 14.7117 3.09807 L 14.7495 3.12997 L 14.7872 3.16187 L 14.8249 3.19376 L 14.8625 3.22565 L 14.9001 3.25752 L 14.9377 3.28939 L 14.9752 3.32125 L 15.0127 3.35311 L 15.0502 3.38495 L 15.0877 3.41679 L 15.1251 3.44862 L 15.1624 3.48045 L 15.1998 3.51226 L 15.2371 3.54407 L 15.2744 3.57587 L 15.3116 3.60767 L 15.3488 3.63946 L 15.386 3.67124 L 15.4232 3.70301 L 15.4603 3.73477 L 15.4974 3.76653 L 15.5344 3.79828 L 15.5715 3.83003 L 15.6085 3.86176 L 15.6455 3.89349 L 15.6824 3.92521 L 15.7193 3.95693 L 15.7562 3.98864 L 15.7931 4.02034 L 15.8299 4.05203 L 15.8667 4.08372 L 15.9035 4.1154 L 15.9403 4.14707 L 15.977 4.17874 L 16.0137 4.2104 L 16.0504 4.24205 L 16.087 4.27369 L 16.1236 4.30533 L 16.1602 4.33696 L 16.1968 4.36858 L 16.2333 4.4002 L 16.2698 4.43181 L 16.3063 4.46342 L 16.3428 4.49501 L 16.3793 4.5266 L 16.4157 4.55819 L 16.4521 4.58976 L 16.4884 4.62133 L 16.5248 4.6529 L 16.5611 4.68445 L 16.5974 4.716 L 16.6337 4.74755 L 16.6699 4.77908 L 16.7062 4.81061 L 16.7424 4.84214 L 16.7786 4.87365 L 16.8147 4.90516 L 16.8509 4.93667 L 16.887 4.96816 L 16.9231 4.99966 L 16.9592 5.03114 L 16.9952 5.06262 L 17.0313 5.09409 L 17.0673 5.12556 L 17.1033 5.15702 L 17.1392 5.18847 L 17.1752 5.21992 L 17.2111 5.25136 L 17.247 5.28279 L 17.2829 5.31422 L 17.3209 5.33886 L 17.308 5.38045 L 17.295 5.422 L 17.2819 5.46352 L 17.2688 5.50501 L 17.2555 5.54646 L 17.2421 5.58789 L 17.2287 5.62928 L 17.2151 5.67064 L 17.2014 5.71197 L 17.1877 5.75327 L 17.1738 5.79453 L 17.1598 5.83576 L 17.1458 5.87695 L 17.1316 5.91811 L 17.1173 5.95924 L 17.103 6.00033 L 17.0885 6.04139 L 17.074 6.08241 L 17.0593 6.1234 L 17.0445 6.16435 L 17.0297 6.20527 L 17.0147 6.24615 L 16.9997 6.28699 L 16.9845 6.3278 L 16.9693 6.36857 L 16.9539 6.40931 L 16.9385 6.45001 L 16.923 6.49067 L 16.879 6.60427 L 16.863 6.64479 L 16.847 6.68527 L 16.8309 6.72571 L 16.8147 6.76611 L 16.7984 6.80647 L 16.782 6.8468 L 16.7656 6.88708 L 16.749 6.92732 L 16.7323 6.96753 L 16.7155 7.00769 L 16.6986 7.04782 L 16.6816 7.0879 L 16.6646 7.12794 L 16.6474 7.16795 L 16.6301 7.20791 L 16.6128 7.24782 L 16.5953 7.2877 L 16.5778 7.32754 L 16.5601 7.36733 L 16.5424 7.40708 L 16.5246 7.44678 L 16.5066 7.48645 L 16.4886 7.52607 L 16.4705 7.56565 L 16.4523 7.60518 L 16.4339 7.64467 L 16.4155 7.68412 L 16.397 7.72352 L 16.3524 7.71616 L 16.3047 7.71521 L 16.257 7.71425 L 16.2092 7.71328 L 16.1615 7.7123 L 16.1137 7.71131 L 16.0659 7.71031 L 16.0181 7.7093 L 15.9703 7.70829 L 15.9224 7.70726 L 15.8746 7.70622 L 15.8267 7.70518 L 15.7788 7.70412 L 15.7308 7.70305 L 15.6829 7.70198 L 15.6349 7.70089 L 15.5869 7.69979 L 15.5389 7.69868 L 15.4908 7.69757 L 15.4428 7.69644 L 15.3947 7.6953 L 15.3466 7.69415 L 15.2985 7.69298 L 15.2503 7.69181 L 15.2022 7.69063 L 15.154 7.68943 L 15.1058 7.68822 L 15.0575 7.68701 L 15.0093 7.68578 L 14.961 7.68453 L 14.9127 7.68328 L 14.8643 7.68201 L 14.816 7.68074 L 14.7676 7.67945 L 14.7192 7.67814 L 14.6708 7.67683 L 14.6223 7.6755 L 14.5739 7.67416 L 14.5254 7.6728 L 14.4768 7.67144 L 14.4283 7.67006 L 14.3797 7.66866 L 14.3311 7.66726 L 14.2825 7.66584 L 14.2338 7.6644 L 14.1852 7.66295 L 14.1365 7.66149 L 14.0877 7.66001 L 14.039 7.65852 L 13.9902 7.65702 L 13.9414 7.6555 L 13.8926 7.65396 L 13.8437 7.65241 L 13.7948 7.65085 L 13.7459 7.64927 L 13.6969 7.64767 L 13.648 7.64606 L 13.599 7.64443 L 13.5499 7.64279 L 13.5009 7.64113 L 13.4518 7.63945 L 13.4027 7.63776 L 13.3535 7.63605 L 13.3043 7.63432 L 13.2551 7.63258 L 13.2059 7.63081 L 13.1566 7.62904 L 13.1073 7.62724 L 13.058 7.62542 L 13.0087 7.62359 L 12.9593 7.62174 L 12.9098 7.61987 L 12.8604 7.61798 L 12.8109 7.61608 L 12.7614 7.61415 L 12.7118 7.61221 L 12.6623 7.61024 L 12.6126 7.60825 L 12.563 7.60625 L 12.5133 7.60422 L 12.4636 7.60218 L 12.4138 7.60011 L 12.3641 7.59802 L 12.3142 7.59591 L 12.2644 7.59378 L 12.2644 7.59378 L 12.2885 7.63746 L 12.3126 7.68112 L 12.3367 7.72475 L 12.3607 7.76837 L 12.3847 7.81196 L 12.4086 7.85553 L 12.4326 7.89908 L 12.4565 7.94261 L 12.4803 7.98612 L 12.5041 8.02961 L 12.5279 8.07308 L 12.5517 8.11652 L 12.5754 8.15995 L 12.5991 8.20336 L 12.6228 8.24674 L 12.6465 8.29011 L 12.6701 8.33346 L 12.6937 8.37679 L 12.7172 8.4201 L 12.7407 8.46339 L 12.7642 8.50666 L 12.7877 8.54991 L 12.8111 8.59314 L 12.8345 8.63635 L 12.8579 8.67955 L 12.8813 8.72272 L 12.9046 8.76588 L 12.9279 8.80902 L 12.9512 8.85214 L 12.9744 8.89524 L 12.9976 8.93833 L 13.0208 8.98139 L 13.044 9.02444 L 13.0671 9.06747 L 13.0902 9.11049 L 13.1133 9.15348 L 13.1364 9.19646 L 13.1594 9.23942 L 13.1825 9.28237 L 13.2055 9.32529 L 13.2284 9.3682 L 13.2514 9.4111 L 13.2743 9.45397 L 13.2972 9.49683 L 13.3201 9.53968 L 13.3429 9.5825 L 13.3658 9.62531 L 13.3886 9.66811 L 13.4113 9.71089 L 13.4341 9.75365 L 13.4568 9.79639 L 13.4796 9.83912 L 13.5023 9.88184 L 13.5249 9.92454 L 13.5476 9.96722 L 13.5702 10.0099 L 13.5928 10.0525 L 13.6154 10.0952 L 13.638 10.1378 L 13.6606 10.1804 L 13.6831 10.223 L 13.7056 10.2656 L 13.7281 10.3081 L 13.7506 10.3507 L 13.773 10.3932 L 13.7954 10.4357 L 13.8179 10.4782 L 13.8402 10.5207 L 13.8626 10.5632 L 13.885 10.6057 L 13.9073 10.6481 L 13.9296 10.6905 L 13.9519 10.733 L 13.9742 10.7754 L 13.9965 10.8178 L 14.0187 10.8601 L 14.041 10.9025 L 14.0632 10.9448 L 14.0854 10.9872 L 14.1076 11.0295 L 14.1297 11.0718 L 14.1519 11.1141 L 14.174 11.1564 L 14.1961 11.1987 L 14.2226 11.2354 L 14.1956 11.2695 L 14.1685 11.3035 L 14.1413 11.3375 L 14.114 11.3715 L 14.0867 11.4053 L 14.0592 11.4391 L 14.0317 11.4729 L 14.0041 11.5065 L 13.9764 11.5401 L 13.9487 11.5737 L 13.9209 11.6071 L 13.8929 11.6405 L 13.8649 11.6739 L 13.8369 11.7071 L 13.8087 11.7403 L 13.7805 11.7734 L 13.7522 11.8065 L 13.7238 11.8395 L 13.6953 11.8724 L 13.6667 11.9053 L 13.6381 11.9381 L 13.6094 11.9708 L 13.5806 12.0034 L 13.5517 12.036 L 13.5228 12.0685 L 13.4938 12.101 L 13.4647 12.1333 L 13.4355 12.1656 L 13.3534 12.2557 L 13.324 12.2877 L 13.2944 12.3197 L 13.2648 12.3516 L 13.2351 12.3834 L 13.2053 12.4151 L 13.1754 12.4468 L 13.1455 12.4784 L 13.1155 12.51 L 13.0854 12.5414 L 13.0553 12.5728 L 13.025 12.6041 L 12.9947 12.6354 L 12.9643 12.6665 L 12.9339 12.6976 L 12.9034 12.7287 L 12.8727 12.7596 L 12.8421 12.7905 L 12.8113 12.8213 L 12.7805 12.852 L 12.7496 12.8827 L 12.7186 12.9133 L 12.6876 12.9438 L 12.6564 12.9742 L 12.6252 13.0046 L 12.594 13.0349 L 12.5626 13.0651 L 12.5312 13.0952 L 12.4997 13.1253 L 12.4607 13.1023 L 12.4166 13.0841 L 12.3725 13.066 L 12.3283 13.0479 L 12.2841 13.0297 L 12.2399 13.0115 L 12.1957 12.9933 L 12.1515 12.9751 L 12.1073 12.9569 L 12.063 12.9387 L 12.0188 12.9204 L 11.9745 12.9021 L 11.9302 12.8838 L 11.8859 12.8655 L 11.8416 12.8472 L 11.7972 12.8288 L 11.7529 12.8105 L 11.7085 12.7921 L 11.6641 12.7737 L 11.6197 12.7553 L 11.5753 12.7369 L 11.5308 12.7184 L 11.4864 12.6999 L 11.4419 12.6815 L 11.3974 12.6629 L 11.3529 12.6444 L 11.3084 12.6259 L 11.2638 12.6073 L 11.2193 12.5887 L 11.1747 12.5701 L 11.1301 12.5515 L 11.0855 12.5329 L 11.0409 12.5142 L 10.9962 12.4955 L 10.9516 12.4768 L 10.9069 12.4581 L 10.8622 12.4394 L 10.8175 12.4206 L 10.7728 12.4018 L 10.728 12.383 L 10.6832 12.3642 L 10.6384 12.3454 L 10.5936 12.3265 L 10.5488 12.3076 L 10.504 12.2887 L 10.4591 12.2698 L 10.4142 12.2508 L 10.3693 12.2318 L 10.3244 12.2128 L 10.2794 12.1938 L 10.2345 12.1747 L 10.1895 12.1557 L 10.1445 12.1366 L 10.0995 12.1175 L 10.0544 12.0983 L 10.0094 12.0791 L 9.96428 12.06 L 9.91917 12.0407 L 9.87405 12.0215 L 9.8289 12.0022 L 9.78373 11.9829 L 9.73854 11.9636 L 9.69333 11.9443 L 9.6481 11.9249 L 9.60285 11.9055 L 9.55757 11.886 L 9.51228 11.8666 L 9.46696 11.8471 L 9.42162 11.8276 L 9.37625 11.8081 L 9.33087 11.7885 L 9.28546 11.7689 L 9.24003 11.7493 L 9.19457 11.7296 L 9.14909 11.7099 L 9.10359 11.6902 L 9.05807 11.6705 L 9.01252 11.6507 L 8.96695 11.6309 L 8.92135 11.6111 L 8.87573 11.5912 L 8.83009 11.5713 L 8.78442 11.5514 L 8.73872 11.5314 L 8.693 11.5114 L 8.693 11.5114 L 8.69973 11.5608 L 8.70642 11.6103 L 8.7131 11.6596 L 8.71974 11.709 L 8.72637 11.7583 L 8.73297 11.8076 L 8.73955 11.8568 L 8.7461 11.9061 L 8.75263 11.9552 L 8.75914 12.0044 L 8.76563 12.0535 L 8.77209 12.1026 L 8.77854 12.1517 L 8.78496 12.2007 L 8.79136 12.2497 L 8.79774 12.2987 L 8.8041 12.3477 L 8.81043 12.3966 L 8.81675 12.4455 L 8.82305 12.4944 L 8.82932 12.5432 L 8.83558 12.592 L 8.84182 12.6408 L 8.84803 12.6895 L 8.85423 12.7383 L 8.86041 12.7869 L 8.86657 12.8356 L 8.87272 12.8843 L 8.87884 12.9329 L 8.88495 12.9815 L 8.89103 13.03 L 8.8971 13.0786 L 8.90315 13.1271 L 8.90919 13.1756 L 8.91521 13.224 L 8.92121 13.2725 L 8.92719 13.3209 L 8.93316 13.3692 L 8.93911 13.4176 L 8.94504 13.4659 L 8.95096 13.5142 L 8.95686 13.5625 L 8.96274 13.6108 L 8.96861 13.659 L 8.97447 13.7072 L 8.9803 13.7554 L 8.98613 13.8036 L 8.99194 13.8517 L 8.99773 13.8999 L 9.00351 13.948 L 9.00927 13.996 L 9.01502 14.0441 L 9.02075 14.0921 L 9.02647 14.1401 L 9.03218 14.1881 L 9.03787 14.2361 L 9.04355 14.284 L 9.04921 14.3319 L 9.05486 14.3798 L 9.0605 14.4277 L 9.06612 14.4756 L 9.07173 14.5234 L 9.07733 14.5712 L 9.08291 14.619 L 9.08848 14.6668 L 9.09404 14.7145 L 9.09959 14.7623 L 9.10512 14.81 L 9.11064 14.8577 L 9.11615 14.9053 L 9.12165 14.953 L 9.12713 15.0006 L 9.13261 15.0482 L 9.13807 15.0958 L 9.14352 15.1434 L 9.14895 15.1909 L 9.15438 15.2385 L 9.1598 15.286 L 9.1652 15.3335 L 9.17059 15.3809 L 9.17597 15.4284 L 9.18134 15.4758 L 9.1867 15.5233 L 9.19205 15.5707 L 9.2035 15.6145 L 9.16597 15.6365 L 9.12839 15.6585 L 9.09076 15.6804 L 9.05308 15.7021 L 9.01534 15.7238 L 8.97755 15.7454 L 8.93971 15.767 L 8.90182 15.7884 L 8.86388 15.8097 L 8.82588 15.831 L 8.78784 15.8521 L 8.74974 15.8732 L 8.71159 15.8941 L 8.6734 15.915 L 8.63515 15.9358 L 8.59685 15.9565 L 8.55851 15.9771 L 8.52011 15.9976 L 8.48167 16.018 L 8.44317 16.0383 L 8.40463 16.0586 L 8.36604 16.0787 L 8.3274 16.0988 L 8.28871 16.1187 L 8.24998 16.1386 L 8.2112 16.1583 L 8.17237 16.178 L 8.13349 16.1976 L 8.02443 16.2519 L 7.98538 16.2711 L 7.94628 16.2903 L 7.90713 16.3093 L 7.86794 16.3282 L 7.82871 16.3471 L 7.78942 16.3658 L 7.7501 16.3845 L 7.71073 16.4031 L 7.67131 16.4215 L 7.63185 16.4399 L 7.59234 16.4582 L 7.5528 16.4764 L 7.5132 16.4945 L 7.47357 16.5125 L 7.43389 16.5304 L 7.39417 16.5482 L 7.35441 16.5659 L 7.3146 16.5835 L 7.27475 16.601 L 7.23486 16.6184 L 7.19493 16.6358 L 7.15496 16.653 L 7.11494 16.6701 L 7.07489 16.6872 L 7.03479 16.7041 L 6.99465 16.721 L 6.95447 16.7377 L 6.91426 16.7544 L 6.88622 16.7188 L 6.85161 16.686 L 6.817 16.6532 L 6.78237 16.6203 L 6.74774 16.5874 L 6.71311 16.5545 L 6.67846 16.5215 L 6.64381 16.4886 L 6.60914 16.4556 L 6.57447 16.4226 L 6.53979 16.3896 L 6.50511 16.3566 L 6.47041 16.3235 L 6.43571 16.2904 L 6.40099 16.2573 L 6.36627 16.2242 L 6.33154 16.191 L 6.2968 16.1579 L 6.26206 16.1247 L 6.2273 16.0915 L 6.19254 16.0582 L 6.15776 16.025 L 6.12298 15.9917 L 6.08819 15.9584 L 6.05339 15.9251 L 6.01858 15.8917 L 5.98376 15.8583 L 5.94893 15.8249 L 5.9141 15.7915 L 5.87925 15.7581 L 5.8444 15.7246 L 5.80954 15.6911 L 5.77466 15.6576 L 5.73978 15.624 L 5.70489 15.5905 L 5.66999 15.5569 L 5.63508 15.5233 L 5.60016 15.4896 L 5.56523 15.4559 L 5.53029 15.4222 L 5.49535 15.3885 L 5.46039 15.3548 L 5.42542 15.321 L 5.39045 15.2872 L 5.35546 15.2533 L 5.32046 15.2195 L 5.28546 15.1856 L 5.25044 15.1517 L 5.21542 15.1177 L 5.18038 15.0837 L 5.14534 15.0497 L 5.11028 15.0157 L 5.07522 14.9816 L 5.04014 14.9475 L 5.00506 14.9134 L 4.96996 14.8793 L 4.93485 14.8451 L 4.89974 14.8109 L 4.86461 14.7766 L 4.82948 14.7423 L 4.79433 14.708 L 4.75917 14.6737 L 4.724 14.6393 L 4.68882 14.6049 L 4.65364 14.5705 L 4.61844 14.536 L 4.58323 14.5015 L 4.54801 14.467 L 4.51277 14.4324 L 4.47753 14.3978 L 4.44228 14.3631 L 4.40702 14.3285 L 4.37174 14.2937 L 4.33646 14.259 L 4.30116 14.2242 L 4.26585 14.1894 L 4.23053 14.1545 L 4.19521 14.1196 L 4.15987 14.0847 L 4.12451 14.0498 L 4.08915 14.0147 L 4.05378 13.9797 L 4.01839 13.9446 L 3.983 13.9095 L 3.94759 13.8743 L 3.94759 13.8743 L 3.93599 13.9229 L 3.92439 13.9714 L 3.91277 14.0198 L 3.90115 14.0682 L 3.88951 14.1166 L 3.87786 14.165 L 3.8662 14.2133 L 3.85453 14.2615 L 3.84285 14.3098 L 3.83117 14.3579 L 3.81947 14.4061 L 3.80776 14.4542 L 3.79604 14.5023 L 3.78431 14.5503 L 3.77258 14.5984 L 3.76083 14.6463 L 3.74908 14.6943 L 3.73732 14.7422 L 3.72554 14.7901 L 3.71376 14.8379 L 3.70198 14.8857 L 3.69018 14.9335 L 3.67837 14.9812 L 3.66656 15.0289 L 3.65474 15.0766 L 3.64291 15.1242 L 3.63107 15.1718 L 3.61923 15.2194 L 3.60738 15.267 L 3.59552 15.3145 L 3.58365 15.3619 L 3.57178 15.4094 L 3.5599 15.4568 L 3.54801 15.5042 L 3.53612 15.5516 L 3.52421 15.5989 L 3.51231 15.6462 L 3.50039 15.6935 L 3.48847 15.7407 L 3.47654 15.7879 L 3.46461 15.8351 L 3.45267 15.8823 L 3.44072 15.9294 L 3.42877 15.9765 L 3.41681 16.0236 L 3.40485 16.0706 L 3.39288 16.1176 L 3.3809 16.1646 L 3.36892 16.2116 L 3.35693 16.2585 L 3.34494 16.3054 L 3.33294 16.3523 L 3.32094 16.3992 L 3.30893 16.446 L 3.29692 16.4928 L 3.2849 16.5396 L 3.27288 16.5864 L 3.26085 16.6331 L 3.24881 16.6798 L 3.23677 16.7265 L 3.22473 16.7731 L 3.21268 16.8198 L 3.20063 16.8664 L 3.18857 16.9129 L 3.17651 16.9595 L 3.16444 17.006 L 3.15237 17.0525 L 3.1403 17.099 L 3.12822 17.1455 L 3.11614 17.1919 L 3.10405 17.2384 L 3.09196 17.2847 L 3.07986 17.3311 L 3.06776 17.3775 L 3.05566 17.4238 L 3.04355 17.4701 L 3.03144 17.5164 L 3.01932 17.5626 L 3.00721 17.6089 L 2.99508 17.6551 L 2.98296 17.7013 L 2.97083 17.7475 L 2.95869 17.7936 L 2.94656 17.8398 L 2.94142 17.8847 L 2.89846 17.8917 L 2.85548 17.8987 L 2.81248 17.9055 L 2.76947 17.9122 L 2.72645 17.9188 L 2.68341 17.9253 L 2.64035 17.9317 L 2.59728 17.9379 L 2.55419 17.9441 L 2.51109 17.9502 L 2.46797 17.9562 L 2.42484 17.9621 L 2.38169 17.9678 L 2.33853 17.9735 L 2.29536 17.9791 L 2.25218 17.9845 L 2.20898 17.9899 L 2.16577 17.9951 L 2.12254 18.0003 L 2.07931 18.0053 L 2.03606 18.0103 L 1.9928 18.0151 L 1.94953 18.0198 L 1.90625 18.0245 L 1.86295 18.029 L 1.81965 18.0334 L 1.77633 18.0377 L 1.73301 18.042 L 1.6117 18.0532 L 1.56834 18.057 L 1.52497 18.0607 L 1.48159 18.0643 L 1.4382 18.0678 L 1.39481 18.0713 L 1.3514 18.0745 L 1.30799 18.0777 L 1.26457 18.0808 L 1.22114 18.0838 L 1.17771 18.0867 L 1.13427 18.0895 L 1.09082 18.0921 L 1.04737 18.0947 L 1.00391 18.0972 L 0.960441 18.0995 L 0.91697 18.1018 L 0.873494 18.1039 L 0.830013 18.106 L 0.786527 18.1079 L 0.743036 18.1098 L 0.699541 18.1115 L 0.656042 18.1131 L 0.612539 18.1146 L 0.569033 18.1161 L 0.525524 18.1174 L 0.482011 18.1186 L 0.438496 18.1197 L 0.394978 18.1207 L 0.381663 18.0774 L 0.361255 18.0343 L 0.340848 17.9912 L 0.32044 17.948 L 0.300031 17.9048 L 0.279623 17.8616 L 0.259213 17.8184 L 0.238804 17.7752 L 0.218394 17.7319 L 0.197984 17.6886 L 0.177574 17.6453 L 0.157163 17.6019 L 0.136753 17.5586 L 0.116342 17.5152 L 0.0959309 17.4718 L 0.0755197 17.4284 L 0.0551084 17.3849 L 0.0346971 17.3414 L 0.0142857 17.2979 L -0.00612567 17.2544 L -0.0265371 17.2109 L -0.0469484 17.1673 L -0.0673597 17.1237 L -0.0877709 17.0801 L -0.108182 17.0364 L -0.128593 16.9927 L -0.149004 16.9491 L -0.169414 16.9053 L -0.189824 16.8616 L -0.210234 16.8178 L -0.230644 16.774 L -0.251053 16.7302 L -0.271462 16.6863 L -0.29187 16.6424 L -0.312278 16.5985 L -0.332686 16.5546 L -0.353093 16.5106 L -0.373499 16.4666 L -0.393905 16.4226 L -0.41431 16.3786 L -0.434714 16.3345 L -0.455117 16.2904 L -0.47552 16.2463 L -0.495922 16.2021 L -0.516323 16.1579 L -0.536723 16.1137 L -0.557122 16.0695 L -0.57752 16.0252 L -0.597917 15.9809 L -0.618313 15.9365 L -0.638707 15.8922 L -0.659101 15.8478 L -0.679493 15.8033 L -0.699884 15.7589 L -0.720273 15.7144 L -0.740661 15.6699 L -0.761047 15.6253 L -0.781432 15.5807 L -0.801815 15.5361 L -0.822196 15.4914 L -0.842576 15.4467 L -0.862954 15.402 L -0.88333 15.3573 L -0.903704 15.3125 L -0.924076 15.2676 L -0.944446 15.2228 L -0.964813 15.1779 L -0.985179 15.133 L -1.00554 15.088 L -1.0259 15.043 L -1.04626 14.998 L -1.06662 14.9529 L -1.08697 14.9078 L -1.10732 14.8626 L -1.12767 14.8174 L -1.14801 14.7722 L -1.16835 14.727 L -1.18869 14.6817 L -1.20903 14.6363 L -1.22936 14.5909 L -1.24969 14.5455 L -1.27002 14.5001 L -1.29034 14.4546 L -1.31066 14.409 L -1.33097 14.3635 L -1.33097 14.3635 L -1.35931 14.4045 L -1.38765 14.4456 L -1.41599 14.4865 L -1.44432 14.5275 L -1.47265 14.5684 L -1.50098 14.6093 L -1.5293 14.6501 L -1.55761 14.6909 L -1.58592 14.7316 L -1.61423 14.7724 L -1.64254 14.813 L -1.67084 14.8537 L -1.69913 14.8943 L -1.72742 14.9348 L -1.75571 14.9754 L -1.78399 15.0159 L -1.81227 15.0563 L -1.84055 15.0967 L -1.86882 15.1371 L -1.89708 15.1775 L -1.92534 15.2178 L -1.9536 15.2581 L -1.98185 15.2983 L -2.0101 15.3386 L -2.03835 15.3787 L -2.06659 15.4189 L -2.09482 15.459 L -2.12305 15.4991 L -2.15128 15.5391 L -2.1795 15.5792 L -2.20772 15.6192 L -2.23593 15.6591 L -2.26414 15.699 L -2.29235 15.7389 L -2.32055 15.7788 L -2.34874 15.8186 L -2.37693 15.8584 L -2.40512 15.8982 L -2.4333 15.938 L -2.46148 15.9777 L -2.48965 16.0174 L -2.51782 16.057 L -2.54599 16.0967 L -2.57415 16.1363 L -2.6023 16.1758 L -2.63045 16.2154 L -2.6586 16.2549 L -2.68674 16.2944 L -2.71488 16.3339 L -2.74301 16.3733 L -2.77114 16.4127 L -2.79926 16.4521 L -2.82738 16.4914 L -2.8555 16.5308 L -2.88361 16.5701 L -2.91171 16.6094 L -2.93982 16.6486 L -2.96791 16.6878 L -2.99601 16.727 L -3.02409 16.7662 L -3.05218 16.8054 L -3.08026 16.8445 L -3.10833 16.8836 L -3.1364 16.9227 L -3.16447 16.9617 L -3.19253 17.0008 L -3.22059 17.0398 L -3.24864 17.0788 L -3.27669 17.1177 L -3.30473 17.1567 L -3.33277 17.1956 L -3.36081 17.2345 L -3.38884 17.2734 L -3.41686 17.3122 L -3.44488 17.351 L -3.4729 17.3898 L -3.50092 17.4286 L -3.52892 17.4674 L -3.55693 17.5061 L -3.58493 17.5448 L -3.61292 17.5835 L -3.64092 17.6222 L -3.6689 17.6609 L -3.69689 17.6995 L -3.71792 17.7396 L -3.76051 17.7306 L -3.80309 17.7215 L -3.84564 17.7123 L -3.88816 17.703 L -3.93067 17.6937 L -3.97315 17.6842 L -4.01561 17.6746 L -4.05804 17.6649 L -4.10046 17.6551 L -4.14285 17.6452 L -4.18521 17.6352 L -4.22755 17.6251 L -4.26987 17.6149 L -4.31216 17.6046 L -4.35443 17.5942 L -4.39667 17.5837 L -4.43889 17.573 L -4.48108 17.5623 L -4.52324 17.5515 L -4.56538 17.5406 L -4.60749 17.5296 L -4.64958 17.5185 L -4.69164 17.5073 L -4.73367 17.4959 L -4.77568 17.4845 L -4.81765 17.473 L -4.8596 17.4614 L -4.90153 17.4497 L -5.0187 17.4163 L -5.06051 17.4042 L -5.1023 17.392 L -5.14405 17.3797 L -5.18578 17.3673 L -5.22747 17.3548 L -5.26914 17.3422 L -5.31077 17.3295 L -5.35237 17.3167 L -5.39395 17.3038 L -5.43549 17.2908 L -5.477 17.2777 L -5.51848 17.2645 L -5.55992 17.2512 L -5.60134 17.2378 L -5.64272 17.2243 L -5.68407 17.2107 L -5.72539 17.197 L -5.76667 17.1832 L -5.80792 17.1693 L -5.84914 17.1553 L -5.89032 17.1412 L -5.93147 17.127 L -5.97259 17.1127 L -6.01367 17.0983 L -6.05472 17.0838 L -6.09573 17.0692 L -6.1367 17.0545 L -6.17764 17.0397 L -6.17444 16.9946 L -6.17789 16.947 L -6.18133 16.8994 L -6.18477 16.8518 L -6.1882 16.8041 L -6.19163 16.7565 L -6.19504 16.7088 L -6.19845 16.6611 L -6.20185 16.6134 L -6.20524 16.5656 L -6.20863 16.5179 L -6.21201 16.4701 L -6.21537 16.4223 L -6.21874 16.3745 L -6.22209 16.3266 L -6.22543 16.2787 L -6.22877 16.2309 L -6.2321 16.1829 L -6.23541 16.135 L -6.23872 16.087 L -6.24203 16.0391 L -6.24532 15.9911 L -6.2486 15.943 L -6.25188 15.895 L -6.25514 15.8469 L -6.2584 15.7988 L -6.26165 15.7507 L -6.26488 15.7025 L -6.26811 15.6544 L -6.27133 15.6062 L -6.27454 15.558 L -6.27774 15.5097 L -6.28093 15.4615 L -6.2841 15.4132 L -6.28727 15.3649 L -6.29043 15.3165 L -6.29358 15.2682 L -6.29672 15.2198 L -6.29984 15.1714 L -6.30296 15.1229 L -6.30606 15.0744 L -6.30916 15.0259 L -6.31224 14.9774 L -6.31531 14.9289 L -6.31837 14.8803 L -6.32142 14.8317 L -6.32446 14.7831 L -6.32749 14.7344 L -6.3305 14.6857 L -6.3335 14.637 L -6.33649 14.5883 L -6.33947 14.5395 L -6.34243 14.4907 L -6.34539 14.4419 L -6.34832 14.393 L -6.35125 14.3442 L -6.35416 14.2952 L -6.35707 14.2463 L -6.35995 14.1973 L -6.36283 14.1483 L -6.36569 14.0993 L -6.36853 14.0502 L -6.37136 14.0011 L -6.37418 13.952 L -6.37699 13.9028 L -6.37978 13.8537 L -6.38255 13.8044 L -6.38531 13.7552 L -6.38805 13.7059 L -6.39078 13.6566 L -6.3935 13.6072 L -6.3962 13.5578 L -6.39888 13.5084 L -6.40155 13.459 L -6.4042 13.4095 L -6.40683 13.36 L -6.40945 13.3104 L -6.41205 13.2608 L -6.41464 13.2112 L -6.4172 13.1616 L -6.41975 13.1119 L -6.42229 13.0621 L -6.4248 13.0124 L -6.4273 12.9626 L -6.42978 12.9127 L -6.42978 12.9127 L -6.47104 12.9408 L -6.51229 12.9688 L -6.55352 12.9968 L -6.59473 13.0247 L -6.63592 13.0526 L -6.6771 13.0805 L -6.71825 13.1084 L -6.75939 13.1362 L -6.80051 13.1639 L -6.84162 13.1917 L -6.8827 13.2194 L -6.92377 13.2471 L -6.96483 13.2747 L -7.00586 13.3023 L -7.04688 13.3299 L -7.08788 13.3574 L -7.12886 13.3849 L -7.16983 13.4124 L -7.21078 13.4399 L -7.25172 13.4673 L -7.29263 13.4947 L -7.33354 13.522 L -7.37442 13.5493 L -7.41529 13.5766 L -7.45614 13.6039 L -7.49698 13.6311 L -7.5378 13.6584 L -7.57861 13.6855 L -7.6194 13.7127 L -7.66017 13.7398 L -7.70093 13.7669 L -7.74167 13.794 L -7.7824 13.821 L -7.82311 13.848 L -7.86381 13.875 L -7.90449 13.902 L -7.94516 13.9289 L -7.98581 13.9558 L -8.02644 13.9827 L -8.06707 14.0096 L -8.10767 14.0364 L -8.14827 14.0632 L -8.18885 14.09 L -8.22941 14.1167 L -8.26996 14.1435 L -8.3105 14.1702 L -8.35102 14.1968 L -8.39152 14.2235 L -8.43202 14.2501 L -8.4725 14.2768 L -8.51296 14.3033 L -8.55341 14.3299 L -8.59385 14.3564 L -8.63428 14.383 L -8.67469 14.4095 L -8.71509 14.4359 L -8.75547 14.4624 L -8.79584 14.4888 L -8.8362 14.5152 L -8.87654 14.5416 L -8.91687 14.568 L -8.95719 14.5943 L -8.9975 14.6206 L -9.03779 14.6469 L -9.07807 14.6732 L -9.11834 14.6995 L -9.15859 14.7257 L -9.19883 14.7519 L -9.23906 14.7781 L -9.27928 14.8043 L -9.31948 14.8305 L -9.35967 14.8566 L -9.39985 14.8827 L -9.44002 14.9088 L -9.48018 14.9349 L -9.52032 14.961 L -9.56045 14.987 L -9.60057 15.0131 L -9.64068 15.0391 L -9.68078 15.0651 L -9.72086 15.091 L -9.76093 15.117 L -9.80099 15.1429 L -9.84104 15.1688 L -9.87513 15.1986 L -9.91161 15.1748 L -9.94802 15.151 L -9.98438 15.1271 L -10.0207 15.103 L -10.0569 15.0789 L -10.0931 15.0547 L -10.1292 15.0304 L -10.1653 15.0061 L -10.2013 14.9816 L -10.2373 14.9571 L -10.2732 14.9324 L -10.309 14.9077 L -10.3448 14.8829 L -10.3805 14.858 L -10.4161 14.8331 L -10.4517 14.808 L -10.4873 14.7829 L -10.5227 14.7576 L -10.5581 14.7323 L -10.5935 14.7069 L -10.6288 14.6814 L -10.664 14.6559 L -10.6992 14.6302 L -10.7343 14.6045 L -10.7693 14.5787 L -10.8043 14.5528 L -10.8392 14.5268 L -10.8741 14.5007 L -10.9713 14.4273 L -11.0059 14.4009 L -11.0405 14.3744 L -11.075 14.3479 L -11.1094 14.3212 L -11.1438 14.2945 L -11.178 14.2677 L -11.2123 14.2408 L -11.2464 14.2138 L -11.2806 14.1868 L -11.3146 14.1596 L -11.3486 14.1324 L -11.3825 14.1051 L -11.4163 14.0778 L -11.4501 14.0503 L -11.4838 14.0228 L -11.5174 13.9951 L -11.551 13.9674 L -11.5845 13.9397 L -11.618 13.9118 L -11.6514 13.8839 L -11.6847 13.8558 L -11.7179 13.8277 L -11.7511 13.7996 L -11.7842 13.7713 L -11.8172 13.7429 L -11.8502 13.7145 L -11.8831 13.686 L -11.9159 13.6575 L -11.8966 13.6165 L -11.8827 13.5709 L -11.8687 13.5253 L -11.8547 13.4796 L -11.8407 13.434 L -11.8267 13.3883 L -11.8126 13.3426 L -11.7986 13.2969 L -11.7845 13.2512 L -11.7704 13.2054 L -11.7563 13.1597 L -11.7422 13.1139 L -11.7281 13.0681 L -11.7139 13.0223 L -11.6998 12.9764 L -11.6856 12.9306 L -11.6714 12.8847 L -11.6572 12.8389 L -11.643 12.793 L -11.6287 12.747 L -11.6145 12.7011 L -11.6002 12.6552 L -11.5859 12.6092 L -11.5716 12.5632 L -11.5573 12.5172 L -11.543 12.4712 L -11.5286 12.4251 L -11.5142 12.3791 L -11.4999 12.333 L -11.4854 12.2869 L -11.471 12.2408 L -11.4566 12.1946 L -11.4421 12.1485 L -11.4276 12.1023 L -11.4131 12.0561 L -11.3986 12.0099 L -11.3841 11.9636 L -11.3695 11.9174 L -11.355 11.8711 L -11.3404 11.8248 L -11.3257 11.7785 L -11.3111 11.7321 L -11.2965 11.6858 L -11.2818 11.6394 L -11.2671 11.593 L -11.2524 11.5466 L -11.2376 11.5001 L -11.2229 11.4537 L -11.2081 11.4072 L -11.1933 11.3607 L -11.1785 11.3142 L -11.1637 11.2676 L -11.1488 11.221 L -11.1339 11.1744 L -11.119 11.1278 L -11.1041 11.0812 L -11.0891 11.0345 L -11.0741 10.9878 L -11.0591 10.9411 L -11.0441 10.8944 L -11.0291 10.8476 L -11.014 10.8009 L -10.9989 10.7541 L -10.9838 10.7072 L -10.9686 10.6604 L -10.9535 10.6135 L -10.9383 10.5666 L -10.9231 10.5197 L -10.9078 10.4727 L -10.8926 10.4258 L -10.8773 10.3788 L -10.8619 10.3317 L -10.8466 10.2847 L -10.8312 10.2376 L -10.8158 10.1905 L -10.8004 10.1434 L -10.7849 10.0962 L -10.7694 10.0491 L -10.7539 10.0019 L -10.7384 9.95463 L -10.7228 9.90737 L -10.7072 9.86008 L -10.6916 9.81277 L -10.6759 9.76543 L -10.6602 9.71806 L -10.6602 9.71806 L -10.7088 9.72931 L -10.7574 9.74054 L -10.806 9.75174 L -10.8545 9.76292 L -10.903 9.77406 L -10.9514 9.78518 L -10.9999 9.79628 L -11.0483 9.80734 L -11.0967 9.81839 L -11.145 9.8294 L -11.1933 9.8404 L -11.2416 9.85136 L -11.2899 9.86231 L -11.3381 9.87323 L -11.3863 9.88412 L -11.4345 9.89499 L -11.4827 9.90584 L -11.5308 9.91666 L -11.5789 9.92746 L -11.627 9.93824 L -11.675 9.949 L -11.723 9.95973 L -11.771 9.97044 L -11.819 9.98113 L -11.8669 9.9918 L -11.9149 10.0024 L -11.9628 10.0131 L -12.0106 10.0237 L -12.0585 10.0343 L -12.1063 10.0448 L -12.1541 10.0554 L -12.2019 10.0659 L -12.2496 10.0764 L -12.2973 10.0869 L -12.345 10.0973 L -12.3927 10.1078 L -12.4403 10.1182 L -12.488 10.1286 L -12.5356 10.139 L -12.5832 10.1494 L -12.6307 10.1597 L -12.6782 10.17 L -12.7258 10.1804 L -12.7732 10.1907 L -12.8207 10.2009 L -12.8682 10.2112 L -12.9156 10.2214 L -12.963 10.2317 L -13.0104 10.2419 L -13.0577 10.2521 L -13.1051 10.2622 L -13.1524 10.2724 L -13.1997 10.2825 L -13.2469 10.2927 L -13.2942 10.3028 L -13.3414 10.3129 L -13.3886 10.3229 L -13.4358 10.333 L -13.483 10.343 L -13.5302 10.3531 L -13.5773 10.3631 L -13.6244 10.3731 L -13.6715 10.3831 L -13.7186 10.393 L -13.7656 10.403 L -13.8127 10.4129 L -13.8597 10.4229 L -13.9067 10.4328 L -13.9536 10.4427 L -14.0006 10.4526 L -14.0475 10.4624 L -14.0945 10.4723 L -14.1414 10.4821 L -14.1883 10.492 L -14.2351 10.5018 L -14.282 10.5116 L -14.3288 10.5214 L -14.3756 10.5311 L -14.4224 10.5409 L -14.4692 10.5506 L -14.5159 10.5604 L -14.5627 10.5701 L -14.6094 10.5798 L -14.6561 10.5895 L -14.6987 10.605 L -14.7241 10.5696 L -14.7494 10.5342 L -14.7747 10.4988 L -14.7999 10.4633 L -14.8249 10.4277 L -14.8499 10.3921 L -14.8749 10.3564 L -14.8997 10.3206 L -14.9244 10.2848 L -14.9491 10.2489 L -14.9737 10.213 L -14.9981 10.177 L -15.0225 10.141 L -15.0468 10.1049 L -15.0711 10.0687 L -15.0952 10.0325 L -15.1193 9.99618 L -15.1432 9.95984 L -15.1671 9.92344 L -15.1909 9.88699 L -15.2146 9.85048 L -15.2382 9.81391 L -15.2617 9.77728 L -15.2852 9.7406 L -15.3085 9.70387 L -15.3318 9.66707 L -15.3549 9.63022 L -15.378 9.59332 L -15.4422 9.48974 L -15.4649 9.45263 L -15.4876 9.41546 L -15.5101 9.37824 L -15.5326 9.34096 L -15.555 9.30363 L -15.5773 9.26624 L -15.5995 9.22881 L -15.6216 9.19132 L -15.6437 9.15377 L -15.6656 9.11618 L -15.6874 9.07853 L -15.7092 9.04083 L -15.7309 9.00307 L -15.7524 8.96527 L -15.7739 8.92741 L -15.7953 8.8895 L -15.8166 8.85154 L -15.8378 8.81353 L -15.859 8.77547 L -15.88 8.73735 L -15.9009 8.69919 L -15.9218 8.66098 L -15.9425 8.62272 L -15.9632 8.5844 L -15.9838 8.54604 L -16.0042 8.50763 L -16.0246 8.46917 L -16.0449 8.43066 L -16.0121 8.39946 L -15.9826 8.36197 L -15.9531 8.32447 L -15.9236 8.28697 L -15.894 8.24945 L -15.8644 8.21192 L -15.8348 8.17439 L -15.8052 8.13684 L -15.7756 8.09928 L -15.7459 8.06171 L -15.7163 8.02414 L -15.6866 7.98655 L -15.6568 7.94895 L -15.6271 7.91134 L -15.5973 7.87372 L -15.5676 7.83609 L -15.5378 7.79845 L -15.508 7.7608 L -15.4781 7.72314 L -15.4482 7.68547 L -15.4184 7.64779 L -15.3885 7.61009 L -15.3585 7.57239 L -15.3286 7.53467 L -15.2986 7.49695 L -15.2686 7.45921 L -15.2386 7.42146 L -15.2085 7.3837 L -15.1785 7.34593 L -15.1484 7.30815 L -15.1183 7.27035 L -15.0881 7.23255 L -15.058 7.19473 L -15.0278 7.1569 L -14.9976 7.11906 L -14.9674 7.08121 L -14.9371 7.04335 L -14.9068 7.00547 L -14.8765 6.96759 L -14.8462 6.92969 L -14.8158 6.89178 L -14.7854 6.85386 L -14.755 6.81592 L -14.7246 6.77797 L -14.6941 6.74002 L -14.6636 6.70204 L -14.6331 6.66406 L -14.6026 6.62606 L -14.572 6.58806 L -14.5414 6.55004 L -14.5108 6.512 L -14.4801 6.47396 L -14.4494 6.4359 L -14.4187 6.39783 L -14.388 6.35974 L -14.3572 6.32164 L -14.3264 6.28353 L -14.2956 6.24541 L -14.2647 6.20727 L -14.2338 6.16913 L -14.2029 6.13096 L -14.172 6.09279 L -14.141 6.0546 L -14.11 6.01639 L -14.0789 5.97818 L -14.0479 5.93995 L -14.0167 5.9017 L -13.9856 5.86345 L -13.9544 5.82518 L -13.9232 5.78689 L -13.892 5.74859 L -13.8607 5.71028 L -13.8294 5.67195 L -13.7981 5.63361 L -13.7667 5.59526 L -13.7353 5.55689 L -13.7038 5.5185 L -13.6723 5.48011 L -13.6408 5.44169 L -13.6093 5.40327 L -13.5777 5.36483 L -13.546 5.32637 L -13.5144 5.2879 L -13.4827 5.24941 L -13.4509 5.21091 L -13.4509 5.21091 L -13.5003 5.20384 L -13.5497 5.19676 L -13.599 5.18967 L -13.6483 5.18256 L -13.6975 5.17543 L -13.7467 5.1683 L -13.7959 5.16114 L -13.845 5.15398 L -13.8941 5.1468 L -13.9432 5.13961 L -13.9922 5.1324 L -14.0412 5.12518 L -14.0902 5.11795 L -14.1391 5.11071 L -14.188 5.10345 L -14.2368 5.09618 L -14.2857 5.0889 L -14.3345 5.08161 L -14.3832 5.07431 L -14.4319 5.06699 L -14.4806 5.05966 L -14.5293 5.05232 L -14.5779 5.04497 L -14.6265 5.03761 L -14.6751 5.03024 L -14.7236 5.02286 L -14.7721 5.01547 L -14.8205 5.00806 L -14.869 5.00065 L -14.9174 4.99322 L -14.9658 4.98579 L -15.0141 4.97834 L -15.0624 4.97089 L -15.1107 4.96342 L -15.159 4.95595 L -15.2072 4.94847 L -15.2554 4.94097 L -15.3036 4.93347 L -15.3517 4.92596 L -15.3998 4.91844 L -15.4479 4.91091 L -15.496 4.90337 L -15.544 4.89583 L -15.592 4.88827 L -15.64 4.88071 L -15.6879 4.87313 L -15.7358 4.86555 L -15.7837 4.85796 L -15.8316 4.85037 L -15.8794 4.84276 L -15.9273 4.83515 L -15.975 4.82753 L -16.0228 4.8199 L -16.0705 4.81226 L -16.1183 4.80462 L -16.166 4.79697 L -16.2136 4.78931 L -16.2613 4.78164 L -16.3089 4.77397 L -16.3565 4.76629 L -16.404 4.7586 L -16.4516 4.75091 L -16.4991 4.74321 L -16.5466 4.7355 L -16.5941 4.72779 L -16.6415 4.72006 L -16.6889 4.71234 L -16.7363 4.7046 L -16.7837 4.69686 L -16.8311 4.68912 L -16.8784 4.68136 L -16.9257 4.6736 L -16.973 4.66584 L -17.0203 4.65807 L -17.0675 4.65029 L -17.1148 4.6425 L -17.162 4.63472 L -17.2091 4.62692 L -17.2563 4.61912 L -17.3034 4.61131 L -17.3506 4.6035 L -17.3977 4.59568 L -17.4447 4.58786 L -17.4918 4.58003 L -17.537 4.57906 L -17.548 4.53693 L -17.5588 4.49478 L -17.5696 4.45259 L -17.5802 4.41039 L -17.5908 4.36815 L -17.6012 4.32589 L -17.6115 4.28361 L -17.6218 4.2413 L -17.6319 4.19897 L -17.6419 4.15661 L -17.6519 4.11423 L -17.6617 4.07182 L -17.6714 4.0294 L -17.6811 3.98694 L -17.6906 3.94447 L -17.7 3.90197 L -17.7093 3.85945 L -17.7185 3.81691 L -17.7277 3.77435 L -17.7367 3.73176 L -17.7456 3.68915 L -17.7544 3.64652 L -17.7631 3.60387 L -17.7717 3.5612 L -17.7802 3.51851 L -17.7886 3.4758 L -17.7969 3.43307 L -17.8051 3.39032 L -17.8275 3.27057 L -17.8353 3.22774 L -17.843 3.1849 L -17.8506 3.14204 L -17.8581 3.09916 L -17.8655 3.05626 L -17.8728 3.01335 L -17.8799 2.97041 L -17.887 2.92746 L -17.894 2.8845 L -17.9009 2.84151 L -17.9077 2.79851 L -17.9143 2.7555 L -17.9209 2.71247 L -17.9273 2.66942 L -17.9337 2.62636 L -17.94 2.58328 L -17.9461 2.54019 L -17.9522 2.49708 L -17.9581 2.45396 L -17.964 2.41082 L -17.9697 2.36768 L -17.9753 2.32451 L -17.9809 2.28134 L -17.9863 2.23815 L -17.9916 2.19494 L -17.9968 2.15173 L -18.0019 2.1085 L -18.007 2.06526 L -17.9651 2.04801 L -17.9241 2.02371 L -17.883 1.99941 L -17.8419 1.97511 L -17.8008 1.9508 L -17.7596 1.92649 L -17.7185 1.90218 L -17.6773 1.87787 L -17.6361 1.85356 L -17.5949 1.82924 L -17.5536 1.80492 L -17.5124 1.7806 L -17.4711 1.75627 L -17.4298 1.73194 L -17.3884 1.70762 L -17.3471 1.68328 L -17.3057 1.65895 L -17.2643 1.63461 L -17.2228 1.61028 L -17.1814 1.58594 L -17.1399 1.56159 L -17.0984 1.53725 L -17.0569 1.5129 L -17.0153 1.48855 L -16.9737 1.4642 L -16.9321 1.43985 L -16.8905 1.41549 L -16.8488 1.39114 L -16.8072 1.36678 L -16.7655 1.34241 L -16.7237 1.31805 L -16.682 1.29368 L -16.6402 1.26932 L -16.5984 1.24495 L -16.5565 1.22057 L -16.5147 1.1962 L -16.4728 1.17182 L -16.4309 1.14744 L -16.3889 1.12306 L -16.3469 1.09868 L -16.3049 1.0743 L -16.2629 1.04991 L -16.2208 1.02553 L -16.1788 1.00114 L -16.1366 0.976745 L -16.0945 0.952352 L -16.0523 0.927958 L -16.0101 0.903561 L -15.9679 0.879163 L -15.9256 0.854763 L -15.8833 0.830362 L -15.841 0.805959 L -15.7986 0.781554 L -15.7562 0.757148 L -15.7138 0.73274 L -15.6714 0.708331 L -15.6289 0.68392 L -15.5863 0.659508 L -15.5438 0.635095 L -15.5012 0.61068 L -15.4586 0.586264 L -15.4159 0.561846 L -15.3733 0.537428 L -15.3305 0.513008 L -15.2878 0.488587 L -15.245 0.464165 L -15.2022 0.439742 L -15.1593 0.415318 L -15.1164 0.390893 L -15.0735 0.366467 L -15.0305 0.34204 L -14.9875 0.317612 L -14.9445 0.293183 L -14.9014 0.268754 L -14.8583 0.244324 L -14.8151 0.219894 L -14.7719 0.195462 L -14.7287 0.171031 L -14.6854 0.146599 L -14.6421 0.122166 L -14.5988 0.0977333 L -14.5554 0.0733002 L -14.512 0.0488669 L -14.4685 0.0244335 L -14.425 4.44089e-16 L -14.425 3.08902e-15 L -14.4685 -0.0244335 L -14.512 -0.0488669 L -14.5554 -0.0733002 L -14.5988 -0.0977333 L -14.6421 -0.122166 L -14.6854 -0.146599 L -14.7287 -0.171031 L -14.7719 -0.195462 L -14.8151 -0.219894 L -14.8583 -0.244324 L -14.9014 -0.268754 L -14.9445 -0.293183 L -14.9875 -0.317612 L -15.0305 -0.34204 L -15.0735 -0.366467 L -15.1164 -0.390893 L -15.1593 -0.415318 L -15.2022 -0.439742 L -15.245 -0.464165 L -15.2878 -0.488587 L -15.3305 -0.513008 L -15.3733 -0.537428 L -15.4159 -0.561846 L -15.4586 -0.586264 L -15.5012 -0.61068 L -15.5438 -0.635095 L -15.5863 -0.659508 L -15.6289 -0.68392 L -15.6714 -0.708331 L -15.7138 -0.73274 L -15.7562 -0.757148 L -15.7986 -0.781554 L -15.841 -0.805959 L -15.8833 -0.830362 L -15.9256 -0.854763 L -15.9679 -0.879163 L -16.0101 -0.903561 L -16.0523 -0.927958 L -16.0945 -0.952352 L -16.1366 -0.976745 L -16.1788 -1.00114 L -16.2208 -1.02553 L -16.2629 -1.04991 L -16.3049 -1.0743 L -16.3469 -1.09868 L -16.3889 -1.12306 L -16.4309 -1.14744 L -16.4728 -1.17182 L -16.5147 -1.1962 L -16.5565 -1.22057 L -16.5984 -1.24495 L -16.6402 -1.26932 L -16.682 -1.29368 L -16.7237 -1.31805 L -16.7655 -1.34241 L -16.8072 -1.36678 L -16.8488 -1.39114 L -16.8905 -1.41549 L -16.9321 -1.43985 L -16.9737 -1.4642 L -17.0153 -1.48855 L -17.0569 -1.5129 L -17.0984 -1.53725 L -17.1399 -1.56159 L -17.1814 -1.58594 L -17.2228 -1.61028 L -17.2643 -1.63461 L -17.3057 -1.65895 L -17.3471 -1.68328 L -17.3884 -1.70762 L -17.4298 -1.73194 L -17.4711 -1.75627 L -17.5124 -1.7806 L -17.5536 -1.80492 L -17.5949 -1.82924 L -17.6361 -1.85356 L -17.6773 -1.87787 L -17.7185 -1.90218 L -17.7596 -1.92649 L -17.8008 -1.9508 L -17.8419 -1.97511 L -17.883 -1.99941 L -17.9241 -2.02371 L -17.9651 -2.04801 L -18.007 -2.06526 L -18.0019 -2.1085 L -17.9968 -2.15173 L -17.9916 -2.19494 L -17.9863 -2.23815 L -17.9809 -2.28134 L -17.9753 -2.32451 L -17.9697 -2.36768 L -17.964 -2.41082 L -17.9581 -2.45396 L -17.9522 -2.49708 L -17.9461 -2.54019 L -17.94 -2.58328 L -17.9337 -2.62636 L -17.9273 -2.66942 L -17.9209 -2.71247 L -17.9143 -2.7555 L -17.9077 -2.79851 L -17.9009 -2.84151 L -17.894 -2.8845 L -17.887 -2.92746 L -17.8799 -2.97041 L -17.8728 -3.01335 L -17.8655 -3.05626 L -17.8581 -3.09916 L -17.8506 -3.14204 L -17.843 -3.1849 L -17.8353 -3.22774 L -17.8275 -3.27057 L -17.8051 -3.39032 L -17.7969 -3.43307 L -17.7886 -3.4758 L -17.7802 -3.51851 L -17.7717 -3.5612 L -17.7631 -3.60387 L -17.7544 -3.64652 L -17.7456 -3.68915 L -17.7367 -3.73176 L -17.7277 -3.77435 L -17.7185 -3.81691 L -17.7093 -3.85945 L -17.7 -3.90197 L -17.6906 -3.94447 L -17.6811 -3.98694 L -17.6714 -4.0294 L -17.6617 -4.07182 L -17.6519 -4.11423 L -17.6419 -4.15661 L -17.6319 -4.19897 L -17.6218 -4.2413 L -17.6115 -4.28361 L -17.6012 -4.32589 L -17.5908 -4.36815 L -17.5802 -4.41039 L -17.5696 -4.45259 L -17.5588 -4.49478 L -17.548 -4.53693 L -17.537 -4.57906 L -17.4918 -4.58003 L -17.4447 -4.58786 L -17.3977 -4.59568 L -17.3506 -4.6035 L -17.3034 -4.61131 L -17.2563 -4.61912 L -17.2091 -4.62692 L -17.162 -4.63472 L -17.1148 -4.6425 L -17.0675 -4.65029 L -17.0203 -4.65807 L -16.973 -4.66584 L -16.9257 -4.6736 L -16.8784 -4.68136 L -16.8311 -4.68912 L -16.7837 -4.69686 L -16.7363 -4.7046 L -16.6889 -4.71234 L -16.6415 -4.72006 L -16.5941 -4.72779 L -16.5466 -4.7355 L -16.4991 -4.74321 L -16.4516 -4.75091 L -16.404 -4.7586 L -16.3565 -4.76629 L -16.3089 -4.77397 L -16.2613 -4.78164 L -16.2136 -4.78931 L -16.166 -4.79697 L -16.1183 -4.80462 L -16.0705 -4.81226 L -16.0228 -4.8199 L -15.975 -4.82753 L -15.9273 -4.83515 L -15.8794 -4.84276 L -15.8316 -4.85037 L -15.7837 -4.85796 L -15.7358 -4.86555 L -15.6879 -4.87313 L -15.64 -4.88071 L -15.592 -4.88827 L -15.544 -4.89583 L -15.496 -4.90337 L -15.4479 -4.91091 L -15.3998 -4.91844 L -15.3517 -4.92596 L -15.3036 -4.93347 L -15.2554 -4.94097 L -15.2072 -4.94847 L -15.159 -4.95595 L -15.1107 -4.96342 L -15.0624 -4.97089 L -15.0141 -4.97834 L -14.9658 -4.98579 L -14.9174 -4.99322 L -14.869 -5.00065 L -14.8205 -5.00806 L -14.7721 -5.01547 L -14.7236 -5.02286 L -14.6751 -5.03024 L -14.6265 -5.03761 L -14.5779 -5.04497 L -14.5293 -5.05232 L -14.4806 -5.05966 L -14.4319 -5.06699 L -14.3832 -5.07431 L -14.3345 -5.08161 L -14.2857 -5.0889 L -14.2368 -5.09618 L -14.188 -5.10345 L -14.1391 -5.11071 L -14.0902 -5.11795 L -14.0412 -5.12518 L -13.9922 -5.1324 L -13.9432 -5.13961 L -13.8941 -5.1468 L -13.845 -5.15398 L -13.7959 -5.16114 L -13.7467 -5.1683 L -13.6975 -5.17543 L -13.6483 -5.18256 L -13.599 -5.18967 L -13.5497 -5.19676 L -13.5003 -5.20384 L -13.4509 -5.21091 L -13.4509 -5.21091 L -13.4827 -5.24941 L -13.5144 -5.2879 L -13.546 -5.32637 L -13.5777 -5.36483 L -13.6093 -5.40327 L -13.6408 -5.44169 L -13.6723 -5.48011 L -13.7038 -5.5185 L -13.7353 -5.55689 L -13.7667 -5.59526 L -13.7981 -5.63361 L -13.8294 -5.67195 L -13.8607 -5.71028 L -13.892 -5.74859 L -13.9232 -5.78689 L -13.9544 -5.82518 L -13.9856 -5.86345 L -14.0167 -5.9017 L -14.0479 -5.93995 L -14.0789 -5.97818 L -14.11 -6.01639 L -14.141 -6.0546 L -14.172 -6.09279 L -14.2029 -6.13096 L -14.2338 -6.16913 L -14.2647 -6.20727 L -14.2956 -6.24541 L -14.3264 -6.28353 L -14.3572 -6.32164 L -14.388 -6.35974 L -14.4187 -6.39783 L -14.4494 -6.4359 L -14.4801 -6.47396 L -14.5108 -6.512 L -14.5414 -6.55004 L -14.572 -6.58806 L -14.6026 -6.62606 L -14.6331 -6.66406 L -14.6636 -6.70204 L -14.6941 -6.74002 L -14.7246 -6.77797 L -14.755 -6.81592 L -14.7854 -6.85386 L -14.8158 -6.89178 L -14.8462 -6.92969 L -14.8765 -6.96759 L -14.9068 -7.00547 L -14.9371 -7.04335 L -14.9674 -7.08121 L -14.9976 -7.11906 L -15.0278 -7.1569 L -15.058 -7.19473 L -15.0881 -7.23255 L -15.1183 -7.27035 L -15.1484 -7.30815 L -15.1785 -7.34593 L -15.2085 -7.3837 L -15.2386 -7.42146 L -15.2686 -7.45921 L -15.2986 -7.49695 L -15.3286 -7.53467 L -15.3585 -7.57239 L -15.3885 -7.61009 L -15.4184 -7.64779 L -15.4482 -7.68547 L -15.4781 -7.72314 L -15.508 -7.7608 L -15.5378 -7.79845 L -15.5676 -7.83609 L -15.5973 -7.87372 L -15.6271 -7.91134 L -15.6568 -7.94895 L -15.6866 -7.98655 L -15.7163 -8.02414 L -15.7459 -8.06171 L -15.7756 -8.09928 L -15.8052 -8.13684 L -15.8348 -8.17439 L -15.8644 -8.21192 L -15.894 -8.24945 L -15.9236 -8.28697 L -15.9531 -8.32447 L -15.9826 -8.36197 L -16.0121 -8.39946 L -16.0449 -8.43066 L -16.0246 -8.46917 L -16.0042 -8.50763 L -15.9838 -8.54604 L -15.9632 -8.5844 L -15.9425 -8.62272 L -15.9218 -8.66098 L -15.9009 -8.69919 L -15.88 -8.73735 L -15.859 -8.77547 L -15.8378 -8.81353 L -15.8166 -8.85154 L -15.7953 -8.8895 L -15.7739 -8.92741 L -15.7524 -8.96527 L -15.7309 -9.00307 L -15.7092 -9.04083 L -15.6874 -9.07853 L -15.6656 -9.11618 L -15.6437 -9.15377 L -15.6216 -9.19132 L -15.5995 -9.22881 L -15.5773 -9.26624 L -15.555 -9.30363 L -15.5326 -9.34096 L -15.5101 -9.37824 L -15.4876 -9.41546 L -15.4649 -9.45263 L -15.4422 -9.48974 L -15.378 -9.59332 L -15.3549 -9.63022 L -15.3318 -9.66707 L -15.3085 -9.70387 L -15.2852 -9.7406 L -15.2617 -9.77728 L -15.2382 -9.81391 L -15.2146 -9.85048 L -15.1909 -9.88699 L -15.1671 -9.92344 L -15.1432 -9.95984 L -15.1193 -9.99618 L -15.0952 -10.0325 L -15.0711 -10.0687 L -15.0468 -10.1049 L -15.0225 -10.141 L -14.9981 -10.177 L -14.9737 -10.213 L -14.9491 -10.2489 L -14.9244 -10.2848 L -14.8997 -10.3206 L -14.8749 -10.3564 L -14.8499 -10.3921 L -14.8249 -10.4277 L -14.7999 -10.4633 L -14.7747 -10.4988 L -14.7494 -10.5342 L -14.7241 -10.5696 L -14.6987 -10.605 L -14.6561 -10.5895 L -14.6094 -10.5798 L -14.5627 -10.5701 L -14.5159 -10.5604 L -14.4692 -10.5506 L -14.4224 -10.5409 L -14.3756 -10.5311 L -14.3288 -10.5214 L -14.282 -10.5116 L -14.2351 -10.5018 L -14.1883 -10.492 L -14.1414 -10.4821 L -14.0945 -10.4723 L -14.0475 -10.4624 L -14.0006 -10.4526 L -13.9536 -10.4427 L -13.9067 -10.4328 L -13.8597 -10.4229 L -13.8127 -10.4129 L -13.7656 -10.403 L -13.7186 -10.393 L -13.6715 -10.3831 L -13.6244 -10.3731 L -13.5773 -10.3631 L -13.5302 -10.3531 L -13.483 -10.343 L -13.4358 -10.333 L -13.3886 -10.3229 L -13.3414 -10.3129 L -13.2942 -10.3028 L -13.2469 -10.2927 L -13.1997 -10.2825 L -13.1524 -10.2724 L -13.1051 -10.2622 L -13.0577 -10.2521 L -13.0104 -10.2419 L -12.963 -10.2317 L -12.9156 -10.2214 L -12.8682 -10.2112 L -12.8207 -10.2009 L -12.7732 -10.1907 L -12.7258 -10.1804 L -12.6782 -10.17 L -12.6307 -10.1597 L -12.5832 -10.1494 L -12.5356 -10.139 L -12.488 -10.1286 L -12.4403 -10.1182 L -12.3927 -10.1078 L -12.345 -10.0973 L -12.2973 -10.0869 L -12.2496 -10.0764 L -12.2019 -10.0659 L -12.1541 -10.0554 L -12.1063 -10.0448 L -12.0585 -10.0343 L -12.0106 -10.0237 L -11.9628 -10.0131 L -11.9149 -10.0024 L -11.8669 -9.9918 L -11.819 -9.98113 L -11.771 -9.97044 L -11.723 -9.95973 L -11.675 -9.949 L -11.627 -9.93824 L -11.5789 -9.92746 L -11.5308 -9.91666 L -11.4827 -9.90584 L -11.4345 -9.89499 L -11.3863 -9.88412 L -11.3381 -9.87323 L -11.2899 -9.86231 L -11.2416 -9.85136 L -11.1933 -9.8404 L -11.145 -9.8294 L -11.0967 -9.81839 L -11.0483 -9.80734 L -10.9999 -9.79628 L -10.9514 -9.78518 L -10.903 -9.77406 L -10.8545 -9.76292 L -10.806 -9.75174 L -10.7574 -9.74054 L -10.7088 -9.72931 L -10.6602 -9.71806 L -10.6602 -9.71806 L -10.6759 -9.76543 L -10.6916 -9.81277 L -10.7072 -9.86008 L -10.7228 -9.90737 L -10.7384 -9.95463 L -10.7539 -10.0019 L -10.7694 -10.0491 L -10.7849 -10.0962 L -10.8004 -10.1434 L -10.8158 -10.1905 L -10.8312 -10.2376 L -10.8466 -10.2847 L -10.8619 -10.3317 L -10.8773 -10.3788 L -10.8926 -10.4258 L -10.9078 -10.4727 L -10.9231 -10.5197 L -10.9383 -10.5666 L -10.9535 -10.6135 L -10.9686 -10.6604 L -10.9838 -10.7072 L -10.9989 -10.7541 L -11.014 -10.8009 L -11.0291 -10.8476 L -11.0441 -10.8944 L -11.0591 -10.9411 L -11.0741 -10.9878 L -11.0891 -11.0345 L -11.1041 -11.0812 L -11.119 -11.1278 L -11.1339 -11.1744 L -11.1488 -11.221 L -11.1637 -11.2676 L -11.1785 -11.3142 L -11.1933 -11.3607 L -11.2081 -11.4072 L -11.2229 -11.4537 L -11.2376 -11.5001 L -11.2524 -11.5466 L -11.2671 -11.593 L -11.2818 -11.6394 L -11.2965 -11.6858 L -11.3111 -11.7321 L -11.3257 -11.7785 L -11.3404 -11.8248 L -11.355 -11.8711 L -11.3695 -11.9174 L -11.3841 -11.9636 L -11.3986 -12.0099 L -11.4131 -12.0561 L -11.4276 -12.1023 L -11.4421 -12.1485 L -11.4566 -12.1946 L -11.471 -12.2408 L -11.4854 -12.2869 L -11.4999 -12.333 L -11.5142 -12.3791 L -11.5286 -12.4251 L -11.543 -12.4712 L -11.5573 -12.5172 L -11.5716 -12.5632 L -11.5859 -12.6092 L -11.6002 -12.6552 L -11.6145 -12.7011 L -11.6287 -12.747 L -11.643 -12.793 L -11.6572 -12.8389 L -11.6714 -12.8847 L -11.6856 -12.9306 L -11.6998 -12.9764 L -11.7139 -13.0223 L -11.7281 -13.0681 L -11.7422 -13.1139 L -11.7563 -13.1597 L -11.7704 -13.2054 L -11.7845 -13.2512 L -11.7986 -13.2969 L -11.8126 -13.3426 L -11.8267 -13.3883 L -11.8407 -13.434 L -11.8547 -13.4796 L -11.8687 -13.5253 L -11.8827 -13.5709 L -11.8966 -13.6165 L -11.9159 -13.6575 L -11.8831 -13.686 L -11.8502 -13.7145 L -11.8172 -13.7429 L -11.7842 -13.7713 L -11.7511 -13.7996 L -11.7179 -13.8277 L -11.6847 -13.8558 L -11.6514 -13.8839 L -11.618 -13.9118 L -11.5845 -13.9397 L -11.551 -13.9674 L -11.5174 -13.9951 L -11.4838 -14.0228 L -11.4501 -14.0503 L -11.4163 -14.0778 L -11.3825 -14.1051 L -11.3486 -14.1324 L -11.3146 -14.1596 L -11.2806 -14.1868 L -11.2464 -14.2138 L -11.2123 -14.2408 L -11.178 -14.2677 L -11.1438 -14.2945 L -11.1094 -14.3212 L -11.075 -14.3479 L -11.0405 -14.3744 L -11.0059 -14.4009 L -10.9713 -14.4273 L -10.8741 -14.5007 L -10.8392 -14.5268 L -10.8043 -14.5528 L -10.7693 -14.5787 L -10.7343 -14.6045 L -10.6992 -14.6302 L -10.664 -14.6559 L -10.6288 -14.6814 L -10.5935 -14.7069 L -10.5581 -14.7323 L -10.5227 -14.7576 L -10.4873 -14.7829 L -10.4517 -14.808 L -10.4161 -14.8331 L -10.3805 -14.858 L -10.3448 -14.8829 L -10.309 -14.9077 L -10.2732 -14.9324 L -10.2373 -14.9571 L -10.2013 -14.9816 L -10.1653 -15.0061 L -10.1292 -15.0304 L -10.0931 -15.0547 L -10.0569 -15.0789 L -10.0207 -15.103 L -9.98438 -15.1271 L -9.94802 -15.151 L -9.91161 -15.1748 L -9.87513 -15.1986 L -9.84104 -15.1688 L -9.80099 -15.1429 L -9.76093 -15.117 L -9.72086 -15.091 L -9.68078 -15.0651 L -9.64068 -15.0391 L -9.60057 -15.0131 L -9.56045 -14.987 L -9.52032 -14.961 L -9.48018 -14.9349 L -9.44002 -14.9088 L -9.39985 -14.8827 L -9.35967 -14.8566 L -9.31948 -14.8305 L -9.27928 -14.8043 L -9.23906 -14.7781 L -9.19883 -14.7519 L -9.15859 -14.7257 L -9.11834 -14.6995 L -9.07807 -14.6732 L -9.03779 -14.6469 L -8.9975 -14.6206 L -8.95719 -14.5943 L -8.91687 -14.568 L -8.87654 -14.5416 L -8.8362 -14.5152 L -8.79584 -14.4888 L -8.75547 -14.4624 L -8.71509 -14.4359 L -8.67469 -14.4095 L -8.63428 -14.383 L -8.59385 -14.3564 L -8.55341 -14.3299 L -8.51296 -14.3033 L -8.4725 -14.2768 L -8.43202 -14.2501 L -8.39152 -14.2235 L -8.35102 -14.1968 L -8.3105 -14.1702 L -8.26996 -14.1435 L -8.22941 -14.1167 L -8.18885 -14.09 L -8.14827 -14.0632 L -8.10767 -14.0364 L -8.06707 -14.0096 L -8.02644 -13.9827 L -7.98581 -13.9558 L -7.94516 -13.9289 L -7.90449 -13.902 L -7.86381 -13.875 L -7.82311 -13.848 L -7.7824 -13.821 L -7.74167 -13.794 L -7.70093 -13.7669 L -7.66017 -13.7398 L -7.6194 -13.7127 L -7.57861 -13.6855 L -7.5378 -13.6584 L -7.49698 -13.6311 L -7.45614 -13.6039 L -7.41529 -13.5766 L -7.37442 -13.5493 L -7.33354 -13.522 L -7.29263 -13.4947 L -7.25172 -13.4673 L -7.21078 -13.4399 L -7.16983 -13.4124 L -7.12886 -13.3849 L -7.08788 -13.3574 L -7.04688 -13.3299 L -7.00586 -13.3023 L -6.96483 -13.2747 L -6.92377 -13.2471 L -6.8827 -13.2194 L -6.84162 -13.1917 L -6.80051 -13.1639 L -6.75939 -13.1362 L -6.71825 -13.1084 L -6.6771 -13.0805 L -6.63592 -13.0526 L -6.59473 -13.0247 L -6.55352 -12.9968 L -6.51229 -12.9688 L -6.47104 -12.9408 L -6.42978 -12.9127 L -6.42978 -12.9127 L -6.4273 -12.9626 L -6.4248 -13.0124 L -6.42229 -13.0621 L -6.41975 -13.1119 L -6.4172 -13.1616 L -6.41464 -13.2112 L -6.41205 -13.2608 L -6.40945 -13.3104 L -6.40683 -13.36 L -6.4042 -13.4095 L -6.40155 -13.459 L -6.39888 -13.5084 L -6.3962 -13.5578 L -6.3935 -13.6072 L -6.39078 -13.6566 L -6.38805 -13.7059 L -6.38531 -13.7552 L -6.38255 -13.8044 L -6.37978 -13.8537 L -6.37699 -13.9028 L -6.37418 -13.952 L -6.37136 -14.0011 L -6.36853 -14.0502 L -6.36569 -14.0993 L -6.36283 -14.1483 L -6.35995 -14.1973 L -6.35707 -14.2463 L -6.35416 -14.2952 L -6.35125 -14.3442 L -6.34832 -14.393 L -6.34539 -14.4419 L -6.34243 -14.4907 L -6.33947 -14.5395 L -6.33649 -14.5883 L -6.3335 -14.637 L -6.3305 -14.6857 L -6.32749 -14.7344 L -6.32446 -14.7831 L -6.32142 -14.8317 L -6.31837 -14.8803 L -6.31531 -14.9289 L -6.31224 -14.9774 L -6.30916 -15.0259 L -6.30606 -15.0744 L -6.30296 -15.1229 L -6.29984 -15.1714 L -6.29672 -15.2198 L -6.29358 -15.2682 L -6.29043 -15.3165 L -6.28727 -15.3649 L -6.2841 -15.4132 L -6.28093 -15.4615 L -6.27774 -15.5097 L -6.27454 -15.558 L -6.27133 -15.6062 L -6.26811 -15.6544 L -6.26488 -15.7025 L -6.26165 -15.7507 L -6.2584 -15.7988 L -6.25514 -15.8469 L -6.25188 -15.895 L -6.2486 -15.943 L -6.24532 -15.9911 L -6.24203 -16.0391 L -6.23872 -16.087 L -6.23541 -16.135 L -6.2321 -16.1829 L -6.22877 -16.2309 L -6.22543 -16.2787 L -6.22209 -16.3266 L -6.21874 -16.3745 L -6.21537 -16.4223 L -6.21201 -16.4701 L -6.20863 -16.5179 L -6.20524 -16.5656 L -6.20185 -16.6134 L -6.19845 -16.6611 L -6.19504 -16.7088 L -6.19163 -16.7565 L -6.1882 -16.8041 L -6.18477 -16.8518 L -6.18133 -16.8994 L -6.17789 -16.947 L -6.17444 -16.9946 L -6.17764 -17.0397 L -6.1367 -17.0545 L -6.09573 -17.0692 L -6.05472 -17.0838 L -6.01367 -17.0983 L -5.97259 -17.1127 L -5.93147 -17.127 L -5.89032 -17.1412 L -5.84914 -17.1553 L -5.80792 -17.1693 L -5.76667 -17.1832 L -5.72539 -17.197 L -5.68407 -17.2107 L -5.64272 -17.2243 L -5.60134 -17.2378 L -5.55992 -17.2512 L -5.51848 -17.2645 L -5.477 -17.2777 L -5.43549 -17.2908 L -5.39395 -17.3038 L -5.35237 -17.3167 L -5.31077 -17.3295 L -5.26914 -17.3422 L -5.22747 -17.3548 L -5.18578 -17.3673 L -5.14405 -17.3797 L -5.1023 -17.392 L -5.06051 -17.4042 L -5.0187 -17.4163 L -4.90153 -17.4497 L -4.8596 -17.4614 L -4.81765 -17.473 L -4.77568 -17.4845 L -4.73367 -17.4959 L -4.69164 -17.5073 L -4.64958 -17.5185 L -4.60749 -17.5296 L -4.56538 -17.5406 L -4.52324 -17.5515 L -4.48108 -17.5623 L -4.43889 -17.573 L -4.39667 -17.5837 L -4.35443 -17.5942 L -4.31216 -17.6046 L -4.26987 -17.6149 L -4.22755 -17.6251 L -4.18521 -17.6352 L -4.14285 -17.6452 L -4.10046 -17.6551 L -4.05804 -17.6649 L -4.01561 -17.6746 L -3.97315 -17.6842 L -3.93067 -17.6937 L -3.88816 -17.703 L -3.84564 -17.7123 L -3.80309 -17.7215 L -3.76051 -17.7306 L -3.71792 -17.7396 L -3.69689 -17.6995 L -3.6689 -17.6609 L -3.64092 -17.6222 L -3.61292 -17.5835 L -3.58493 -17.5448 L -3.55693 -17.5061 L -3.52892 -17.4674 L -3.50092 -17.4286 L -3.4729 -17.3898 L -3.44488 -17.351 L -3.41686 -17.3122 L -3.38884 -17.2734 L -3.36081 -17.2345 L -3.33277 -17.1956 L -3.30473 -17.1567 L -3.27669 -17.1177 L -3.24864 -17.0788 L -3.22059 -17.0398 L -3.19253 -17.0008 L -3.16447 -16.9617 L -3.1364 -16.9227 L -3.10833 -16.8836 L -3.08026 -16.8445 L -3.05218 -16.8054 L -3.02409 -16.7662 L -2.99601 -16.727 L -2.96791 -16.6878 L -2.93982 -16.6486 L -2.91171 -16.6094 L -2.88361 -16.5701 L -2.8555 -16.5308 L -2.82738 -16.4914 L -2.79926 -16.4521 L -2.77114 -16.4127 L -2.74301 -16.3733 L -2.71488 -16.3339 L -2.68674 -16.2944 L -2.6586 -16.2549 L -2.63045 -16.2154 L -2.6023 -16.1758 L -2.57415 -16.1363 L -2.54599 -16.0967 L -2.51782 -16.057 L -2.48965 -16.0174 L -2.46148 -15.9777 L -2.4333 -15.938 L -2.40512 -15.8982 L -2.37693 -15.8584 L -2.34874 -15.8186 L -2.32055 -15.7788 L -2.29235 -15.7389 L -2.26414 -15.699 L -2.23593 -15.6591 L -2.20772 -15.6192 L -2.1795 -15.5792 L -2.15128 -15.5391 L -2.12305 -15.4991 L -2.09482 -15.459 L -2.06659 -15.4189 L -2.03835 -15.3787 L -2.0101 -15.3386 L -1.98185 -15.2983 L -1.9536 -15.2581 L -1.92534 -15.2178 L -1.89708 -15.1775 L -1.86882 -15.1371 L -1.84055 -15.0967 L -1.81227 -15.0563 L -1.78399 -15.0159 L -1.75571 -14.9754 L -1.72742 -14.9348 L -1.69913 -14.8943 L -1.67084 -14.8537 L -1.64254 -14.813 L -1.61423 -14.7724 L -1.58592 -14.7316 L -1.55761 -14.6909 L -1.5293 -14.6501 L -1.50098 -14.6093 L -1.47265 -14.5684 L -1.44432 -14.5275 L -1.41599 -14.4865 L -1.38765 -14.4456 L -1.35931 -14.4045 L -1.33097 -14.3635 L -1.33097 -14.3635 L -1.31066 -14.409 L -1.29034 -14.4546 L -1.27002 -14.5001 L -1.24969 -14.5455 L -1.22936 -14.5909 L -1.20903 -14.6363 L -1.18869 -14.6817 L -1.16835 -14.727 L -1.14801 -14.7722 L -1.12767 -14.8174 L -1.10732 -14.8626 L -1.08697 -14.9078 L -1.06662 -14.9529 L -1.04626 -14.998 L -1.0259 -15.043 L -1.00554 -15.088 L -0.985179 -15.133 L -0.964813 -15.1779 L -0.944446 -15.2228 L -0.924076 -15.2676 L -0.903704 -15.3125 L -0.88333 -15.3573 L -0.862954 -15.402 L -0.842576 -15.4467 L -0.822196 -15.4914 L -0.801815 -15.5361 L -0.781432 -15.5807 L -0.761047 -15.6253 L -0.740661 -15.6699 L -0.720273 -15.7144 L -0.699884 -15.7589 L -0.679493 -15.8033 L -0.659101 -15.8478 L -0.638707 -15.8922 L -0.618313 -15.9365 L -0.597917 -15.9809 L -0.57752 -16.0252 L -0.557122 -16.0695 L -0.536723 -16.1137 L -0.516323 -16.1579 L -0.495922 -16.2021 L -0.47552 -16.2463 L -0.455117 -16.2904 L -0.434714 -16.3345 L -0.41431 -16.3786 L -0.393905 -16.4226 L -0.373499 -16.4666 L -0.353093 -16.5106 L -0.332686 -16.5546 L -0.312278 -16.5985 L -0.29187 -16.6424 L -0.271462 -16.6863 L -0.251053 -16.7302 L -0.230644 -16.774 L -0.210234 -16.8178 L -0.189824 -16.8616 L -0.169414 -16.9053 L -0.149004 -16.9491 L -0.128593 -16.9927 L -0.108182 -17.0364 L -0.0877709 -17.0801 L -0.0673597 -17.1237 L -0.0469484 -17.1673 L -0.0265371 -17.2109 L -0.00612567 -17.2544 L 0.0142857 -17.2979 L 0.0346971 -17.3414 L 0.0551084 -17.3849 L 0.0755197 -17.4284 L 0.0959309 -17.4718 L 0.116342 -17.5152 L 0.136753 -17.5586 L 0.157163 -17.6019 L 0.177574 -17.6453 L 0.197984 -17.6886 L 0.218394 -17.7319 L 0.238804 -17.7752 L 0.259213 -17.8184 L 0.279623 -17.8616 L 0.300031 -17.9048 L 0.32044 -17.948 L 0.340848 -17.9912 L 0.361255 -18.0343 L 0.381663 -18.0774 L 0.394978 -18.1207 L 0.438496 -18.1197 L 0.482011 -18.1186 L 0.525524 -18.1174 L 0.569033 -18.1161 L 0.612539 -18.1146 L 0.656042 -18.1131 L 0.699541 -18.1115 L 0.743036 -18.1098 L 0.786527 -18.1079 L 0.830013 -18.106 L 0.873494 -18.1039 L 0.91697 -18.1018 L 0.960441 -18.0995 L 1.00391 -18.0972 L 1.04737 -18.0947 L 1.09082 -18.0921 L 1.13427 -18.0895 L 1.17771 -18.0867 L 1.22114 -18.0838 L 1.26457 -18.0808 L 1.30799 -18.0777 L 1.3514 -18.0745 L 1.39481 -18.0713 L 1.4382 -18.0678 L 1.48159 -18.0643 L 1.52497 -18.0607 L 1.56834 -18.057 L 1.6117 -18.0532 L 1.73301 -18.042 L 1.77633 -18.0377 L 1.81965 -18.0334 L 1.86295 -18.029 L 1.90625 -18.0245 L 1.94953 -18.0198 L 1.9928 -18.0151 L 2.03606 -18.0103 L 2.07931 -18.0053 L 2.12254 -18.0003 L 2.16577 -17.9951 L 2.20898 -17.9899 L 2.25218 -17.9845 L 2.29536 -17.9791 L 2.33853 -17.9735 L 2.38169 -17.9678 L 2.42484 -17.9621 L 2.46797 -17.9562 L 2.51109 -17.9502 L 2.55419 -17.9441 L 2.59728 -17.9379 L 2.64035 -17.9317 L 2.68341 -17.9253 L 2.72645 -17.9188 L 2.76947 -17.9122 L 2.81248 -17.9055 L 2.85548 -17.8987 L 2.89846 -17.8917 L 2.94142 -17.8847 L 2.94656 -17.8398 L 2.95869 -17.7936 L 2.97083 -17.7475 L 2.98296 -17.7013 L 2.99508 -17.6551 L 3.00721 -17.6089 L 3.01932 -17.5626 L 3.03144 -17.5164 L 3.04355 -17.4701 L 3.05566 -17.4238 L 3.06776 -17.3775 L 3.07986 -17.3311 L 3.09196 -17.2847 L 3.10405 -17.2384 L 3.11614 -17.1919 L 3.12822 -17.1455 L 3.1403 -17.099 L 3.15237 -17.0525 L 3.16444 -17.006 L 3.17651 -16.9595 L 3.18857 -16.9129 L 3.20063 -16.8664 L 3.21268 -16.8198 L 3.22473 -16.7731 L 3.23677 -16.7265 L 3.24881 -16.6798 L 3.26085 -16.6331 L 3.27288 -16.5864 L 3.2849 -16.5396 L 3.29692 -16.4928 L 3.30893 -16.446 L 3.32094 -16.3992 L 3.33294 -16.3523 L 3.34494 -16.3054 L 3.35693 -16.2585 L 3.36892 -16.2116 L 3.3809 -16.1646 L 3.39288 -16.1176 L 3.40485 -16.0706 L 3.41681 -16.0236 L 3.42877 -15.9765 L 3.44072 -15.9294 L 3.45267 -15.8823 L 3.46461 -15.8351 L 3.47654 -15.7879 L 3.48847 -15.7407 L 3.50039 -15.6935 L 3.51231 -15.6462 L 3.52421 -15.5989 L 3.53612 -15.5516 L 3.54801 -15.5042 L 3.5599 -15.4568 L 3.57178 -15.4094 L 3.58365 -15.3619 L 3.59552 -15.3145 L 3.60738 -15.267 L 3.61923 -15.2194 L 3.63107 -15.1718 L 3.64291 -15.1242 L 3.65474 -15.0766 L 3.66656 -15.0289 L 3.67837 -14.9812 L 3.69018 -14.9335 L 3.70198 -14.8857 L 3.71376 -14.8379 L 3.72554 -14.7901 L 3.73732 -14.7422 L 3.74908 -14.6943 L 3.76083 -14.6463 L 3.77258 -14.5984 L 3.78431 -14.5503 L 3.79604 -14.5023 L 3.80776 -14.4542 L 3.81947 -14.4061 L 3.83117 -14.3579 L 3.84285 -14.3098 L 3.85453 -14.2615 L 3.8662 -14.2133 L 3.87786 -14.165 L 3.88951 -14.1166 L 3.90115 -14.0682 L 3.91277 -14.0198 L 3.92439 -13.9714 L 3.93599 -13.9229 L 3.94759 -13.8743 L 3.94759 -13.8743 L 3.983 -13.9095 L 4.01839 -13.9446 L 4.05378 -13.9797 L 4.08915 -14.0147 L 4.12451 -14.0498 L 4.15987 -14.0847 L 4.19521 -14.1196 L 4.23053 -14.1545 L 4.26585 -14.1894 L 4.30116 -14.2242 L 4.33646 -14.259 L 4.37174 -14.2937 L 4.40702 -14.3285 L 4.44228 -14.3631 L 4.47753 -14.3978 L 4.51277 -14.4324 L 4.54801 -14.467 L 4.58323 -14.5015 L 4.61844 -14.536 L 4.65364 -14.5705 L 4.68882 -14.6049 L 4.724 -14.6393 L 4.75917 -14.6737 L 4.79433 -14.708 L 4.82948 -14.7423 L 4.86461 -14.7766 L 4.89974 -14.8109 L 4.93485 -14.8451 L 4.96996 -14.8793 L 5.00506 -14.9134 L 5.04014 -14.9475 L 5.07522 -14.9816 L 5.11028 -15.0157 L 5.14534 -15.0497 L 5.18038 -15.0837 L 5.21542 -15.1177 L 5.25044 -15.1517 L 5.28546 -15.1856 L 5.32046 -15.2195 L 5.35546 -15.2533 L 5.39045 -15.2872 L 5.42542 -15.321 L 5.46039 -15.3548 L 5.49535 -15.3885 L 5.53029 -15.4222 L 5.56523 -15.4559 L 5.60016 -15.4896 L 5.63508 -15.5233 L 5.66999 -15.5569 L 5.70489 -15.5905 L 5.73978 -15.624 L 5.77466 -15.6576 L 5.80954 -15.6911 L 5.8444 -15.7246 L 5.87925 -15.7581 L 5.9141 -15.7915 L 5.94893 -15.8249 L 5.98376 -15.8583 L 6.01858 -15.8917 L 6.05339 -15.9251 L 6.08819 -15.9584 L 6.12298 -15.9917 L 6.15776 -16.025 L 6.19254 -16.0582 L 6.2273 -16.0915 L 6.26206 -16.1247 L 6.2968 -16.1579 L 6.33154 -16.191 L 6.36627 -16.2242 L 6.40099 -16.2573 L 6.43571 -16.2904 L 6.47041 -16.3235 L 6.50511 -16.3566 L 6.53979 -16.3896 L 6.57447 -16.4226 L 6.60914 -16.4556 L 6.64381 -16.4886 L 6.67846 -16.5215 L 6.71311 -16.5545 L 6.74774 -16.5874 L 6.78237 -16.6203 L 6.817 -16.6532 L 6.85161 -16.686 L 6.88622 -16.7188 L 6.91426 -16.7544 L 6.95447 -16.7377 L 6.99465 -16.721 L 7.03479 -16.7041 L 7.07489 -16.6872 L 7.11494 -16.6701 L 7.15496 -16.653 L 7.19493 -16.6358 L 7.23486 -16.6184 L 7.27475 -16.601 L 7.3146 -16.5835 L 7.35441 -16.5659 L 7.39417 -16.5482 L 7.43389 -16.5304 L 7.47357 -16.5125 L 7.5132 -16.4945 L 7.5528 -16.4764 L 7.59234 -16.4582 L 7.63185 -16.4399 L 7.67131 -16.4215 L 7.71073 -16.4031 L 7.7501 -16.3845 L 7.78942 -16.3658 L 7.82871 -16.3471 L 7.86794 -16.3282 L 7.90713 -16.3093 L 7.94628 -16.2903 L 7.98538 -16.2711 L 8.02443 -16.2519 L 8.13349 -16.1976 L 8.17237 -16.178 L 8.2112 -16.1583 L 8.24998 -16.1386 L 8.28871 -16.1187 L 8.3274 -16.0988 L 8.36604 -16.0787 L 8.40463 -16.0586 L 8.44317 -16.0383 L 8.48167 -16.018 L 8.52011 -15.9976 L 8.55851 -15.9771 L 8.59685 -15.9565 L 8.63515 -15.9358 L 8.6734 -15.915 L 8.71159 -15.8941 L 8.74974 -15.8732 L 8.78784 -15.8521 L 8.82588 -15.831 L 8.86388 -15.8097 L 8.90182 -15.7884 L 8.93971 -15.767 L 8.97755 -15.7454 L 9.01534 -15.7238 L 9.05308 -15.7021 L 9.09076 -15.6804 L 9.12839 -15.6585 L 9.16597 -15.6365 L 9.2035 -15.6145 L 9.19205 -15.5707 L 9.1867 -15.5233 L 9.18134 -15.4758 L 9.17597 -15.4284 L 9.17059 -15.3809 L 9.1652 -15.3335 L 9.1598 -15.286 L 9.15438 -15.2385 L 9.14895 -15.1909 L 9.14352 -15.1434 L 9.13807 -15.0958 L 9.13261 -15.0482 L 9.12713 -15.0006 L 9.12165 -14.953 L 9.11615 -14.9053 L 9.11064 -14.8577 L 9.10512 -14.81 L 9.09959 -14.7623 L 9.09404 -14.7145 L 9.08848 -14.6668 L 9.08291 -14.619 L 9.07733 -14.5712 L 9.07173 -14.5234 L 9.06612 -14.4756 L 9.0605 -14.4277 L 9.05486 -14.3798 L 9.04921 -14.3319 L 9.04355 -14.284 L 9.03787 -14.2361 L 9.03218 -14.1881 L 9.02647 -14.1401 L 9.02075 -14.0921 L 9.01502 -14.0441 L 9.00927 -13.996 L 9.00351 -13.948 L 8.99773 -13.8999 L 8.99194 -13.8517 L 8.98613 -13.8036 L 8.9803 -13.7554 L 8.97447 -13.7072 L 8.96861 -13.659 L 8.96274 -13.6108 L 8.95686 -13.5625 L 8.95096 -13.5142 L 8.94504 -13.4659 L 8.93911 -13.4176 L 8.93316 -13.3692 L 8.92719 -13.3209 L 8.92121 -13.2725 L 8.91521 -13.224 L 8.90919 -13.1756 L 8.90315 -13.1271 L 8.8971 -13.0786 L 8.89103 -13.03 L 8.88495 -12.9815 L 8.87884 -12.9329 L 8.87272 -12.8843 L 8.86657 -12.8356 L 8.86041 -12.7869 L 8.85423 -12.7383 L 8.84803 -12.6895 L 8.84182 -12.6408 L 8.83558 -12.592 L 8.82932 -12.5432 L 8.82305 -12.4944 L 8.81675 -12.4455 L 8.81043 -12.3966 L 8.8041 -12.3477 L 8.79774 -12.2987 L 8.79136 -12.2497 L 8.78496 -12.2007 L 8.77854 -12.1517 L 8.77209 -12.1026 L 8.76563 -12.0535 L 8.75914 -12.0044 L 8.75263 -11.9552 L 8.7461 -11.9061 L 8.73955 -11.8568 L 8.73297 -11.8076 L 8.72637 -11.7583 L 8.71974 -11.709 L 8.7131 -11.6596 L 8.70642 -11.6103 L 8.69973 -11.5608 L 8.693 -11.5114 L 8.693 -11.5114 L 8.73872 -11.5314 L 8.78442 -11.5514 L 8.83009 -11.5713 L 8.87573 -11.5912 L 8.92135 -11.6111 L 8.96695 -11.6309 L 9.01252 -11.6507 L 9.05807 -11.6705 L 9.10359 -11.6902 L 9.14909 -11.7099 L 9.19457 -11.7296 L 9.24003 -11.7493 L 9.28546 -11.7689 L 9.33087 -11.7885 L 9.37625 -11.8081 L 9.42162 -11.8276 L 9.46696 -11.8471 L 9.51228 -11.8666 L 9.55757 -11.886 L 9.60285 -11.9055 L 9.6481 -11.9249 L 9.69333 -11.9443 L 9.73854 -11.9636 L 9.78373 -11.9829 L 9.8289 -12.0022 L 9.87405 -12.0215 L 9.91917 -12.0407 L 9.96428 -12.06 L 10.0094 -12.0791 L 10.0544 -12.0983 L 10.0995 -12.1175 L 10.1445 -12.1366 L 10.1895 -12.1557 L 10.2345 -12.1747 L 10.2794 -12.1938 L 10.3244 -12.2128 L 10.3693 -12.2318 L 10.4142 -12.2508 L 10.4591 -12.2698 L 10.504 -12.2887 L 10.5488 -12.3076 L 10.5936 -12.3265 L 10.6384 -12.3454 L 10.6832 -12.3642 L 10.728 -12.383 L 10.7728 -12.4018 L 10.8175 -12.4206 L 10.8622 -12.4394 L 10.9069 -12.4581 L 10.9516 -12.4768 L 10.9962 -12.4955 L 11.0409 -12.5142 L 11.0855 -12.5329 L 11.1301 -12.5515 L 11.1747 -12.5701 L 11.2193 -12.5887 L 11.2638 -12.6073 L 11.3084 -12.6259 L 11.3529 -12.6444 L 11.3974 -12.6629 L 11.4419 -12.6815 L 11.4864 -12.6999 L 11.5308 -12.7184 L 11.5753 -12.7369 L 11.6197 -12.7553 L 11.6641 -12.7737 L 11.7085 -12.7921 L 11.7529 -12.8105 L 11.7972 -12.8288 L 11.8416 -12.8472 L 11.8859 -12.8655 L 11.9302 -12.8838 L 11.9745 -12.9021 L 12.0188 -12.9204 L 12.063 -12.9387 L 12.1073 -12.9569 L 12.1515 -12.9751 L 12.1957 -12.9933 L 12.2399 -13.0115 L 12.2841 -13.0297 L 12.3283 -13.0479 L 12.3725 -13.066 L 12.4166 -13.0841 L 12.4607 -13.1023 L 12.4997 -13.1253 L 12.5312 -13.0952 L 12.5626 -13.0651 L 12.594 -13.0349 L 12.6252 -13.0046 L 12.6564 -12.9742 L 12.6876 -12.9438 L 12.7186 -12.9133 L 12.7496 -12.8827 L 12.7805 -12.852 L 12.8113 -12.8213 L 12.8421 -12.7905 L 12.8727 -12.7596 L 12.9034 -12.7287 L 12.9339 -12.6976 L 12.9643 -12.6665 L 12.9947 -12.6354 L 13.025 -12.6041 L 13.0553 -12.5728 L 13.0854 -12.5414 L 13.1155 -12.51 L 13.1455 -12.4784 L 13.1754 -12.4468 L 13.2053 -12.4151 L 13.2351 -12.3834 L 13.2648 -12.3516 L 13.2944 -12.3197 L 13.324 -12.2877 L 13.3534 -12.2557 L 13.4355 -12.1656 L 13.4647 -12.1333 L 13.4938 -12.101 L 13.5228 -12.0685 L 13.5517 -12.036 L 13.5806 -12.0034 L 13.6094 -11.9708 L 13.6381 -11.9381 L 13.6667 -11.9053 L 13.6953 -11.8724 L 13.7238 -11.8395 L 13.7522 -11.8065 L 13.7805 -11.7734 L 13.8087 -11.7403 L 13.8369 -11.7071 L 13.8649 -11.6739 L 13.8929 -11.6405 L 13.9209 -11.6071 L 13.9487 -11.5737 L 13.9764 -11.5401 L 14.0041 -11.5065 L 14.0317 -11.4729 L 14.0592 -11.4391 L 14.0867 -11.4053 L 14.114 -11.3715 L 14.1413 -11.3375 L 14.1685 -11.3035 L 14.1956 -11.2695 L 14.2226 -11.2354 L 14.1961 -11.1987 L 14.174 -11.1564 L 14.1519 -11.1141 L 14.1297 -11.0718 L 14.1076 -11.0295 L 14.0854 -10.9872 L 14.0632 -10.9448 L 14.041 -10.9025 L 14.0187 -10.8601 L 13.9965 -10.8178 L 13.9742 -10.7754 L 13.9519 -10.733 L 13.9296 -10.6905 L 13.9073 -10.6481 L 13.885 -10.6057 L 13.8626 -10.5632 L 13.8402 -10.5207 L 13.8179 -10.4782 L 13.7954 -10.4357 L 13.773 -10.3932 L 13.7506 -10.3507 L 13.7281 -10.3081 L 13.7056 -10.2656 L 13.6831 -10.223 L 13.6606 -10.1804 L 13.638 -10.1378 L 13.6154 -10.0952 L 13.5928 -10.0525 L 13.5702 -10.0099 L 13.5476 -9.96722 L 13.5249 -9.92454 L 13.5023 -9.88184 L 13.4796 -9.83912 L 13.4568 -9.79639 L 13.4341 -9.75365 L 13.4113 -9.71089 L 13.3886 -9.66811 L 13.3658 -9.62531 L 13.3429 -9.5825 L 13.3201 -9.53968 L 13.2972 -9.49683 L 13.2743 -9.45397 L 13.2514 -9.4111 L 13.2284 -9.3682 L 13.2055 -9.32529 L 13.1825 -9.28237 L 13.1594 -9.23942 L 13.1364 -9.19646 L 13.1133 -9.15348 L 13.0902 -9.11049 L 13.0671 -9.06747 L 13.044 -9.02444 L 13.0208 -8.98139 L 12.9976 -8.93833 L 12.9744 -8.89524 L 12.9512 -8.85214 L 12.9279 -8.80902 L 12.9046 -8.76588 L 12.8813 -8.72272 L 12.8579 -8.67955 L 12.8345 -8.63635 L 12.8111 -8.59314 L 12.7877 -8.54991 L 12.7642 -8.50666 L 12.7407 -8.46339 L 12.7172 -8.4201 L 12.6937 -8.37679 L 12.6701 -8.33346 L 12.6465 -8.29011 L 12.6228 -8.24674 L 12.5991 -8.20336 L 12.5754 -8.15995 L 12.5517 -8.11652 L 12.5279 -8.07308 L 12.5041 -8.02961 L 12.4803 -7.98612 L 12.4565 -7.94261 L 12.4326 -7.89908 L 12.4086 -7.85553 L 12.3847 -7.81196 L 12.3607 -7.76837 L 12.3367 -7.72475 L 12.3126 -7.68112 L 12.2885 -7.63746 L 12.2644 -7.59378 L 12.2644 -7.59378 L 12.3142 -7.59591 L 12.3641 -7.59802 L 12.4138 -7.60011 L 12.4636 -7.60218 L 12.5133 -7.60422 L 12.563 -7.60625 L 12.6126 -7.60825 L 12.6623 -7.61024 L 12.7118 -7.61221 L 12.7614 -7.61415 L 12.8109 -7.61608 L 12.8604 -7.61798 L 12.9098 -7.61987 L 12.9593 -7.62174 L 13.0087 -7.62359 L 13.058 -7.62542 L 13.1073 -7.62724 L 13.1566 -7.62904 L 13.2059 -7.63081 L 13.2551 -7.63258 L 13.3043 -7.63432 L 13.3535 -7.63605 L 13.4027 -7.63776 L 13.4518 -7.63945 L 13.5009 -7.64113 L 13.5499 -7.64279 L 13.599 -7.64443 L 13.648 -7.64606 L 13.6969 -7.64767 L 13.7459 -7.64927 L 13.7948 -7.65085 L 13.8437 -7.65241 L 13.8926 -7.65396 L 13.9414 -7.6555 L 13.9902 -7.65702 L 14.039 -7.65852 L 14.0877 -7.66001 L 14.1365 -7.66149 L 14.1852 -7.66295 L 14.2338 -7.6644 L 14.2825 -7.66584 L 14.3311 -7.66726 L 14.3797 -7.66866 L 14.4283 -7.67006 L 14.4768 -7.67144 L 14.5254 -7.6728 L 14.5739 -7.67416 L 14.6223 -7.6755 L 14.6708 -7.67683 L 14.7192 -7.67814 L 14.7676 -7.67945 L 14.816 -7.68074 L 14.8643 -7.68201 L 14.9127 -7.68328 L 14.961 -7.68453 L 15.0093 -7.68578 L 15.0575 -7.68701 L 15.1058 -7.68822 L 15.154 -7.68943 L 15.2022 -7.69063 L 15.2503 -7.69181 L 15.2985 -7.69298 L 15.3466 -7.69415 L 15.3947 -7.6953 L 15.4428 -7.69644 L 15.4908 -7.69757 L 15.5389 -7.69868 L 15.5869 -7.69979 L 15.6349 -7.70089 L 15.6829 -7.70198 L 15.7308 -7.70305 L 15.7788 -7.70412 L 15.8267 -7.70518 L 15.8746 -7.70622 L 15.9224 -7.70726 L 15.9703 -7.70829 L 16.0181 -7.7093 L 16.0659 -7.71031 L 16.1137 -7.71131 L 16.1615 -7.7123 L 16.2092 -7.71328 L 16.257 -7.71425 L 16.3047 -7.71521 L 16.3524 -7.71616 L 16.397 -7.72352 L 16.4155 -7.68412 L 16.4339 -7.64467 L 16.4523 -7.60518 L 16.4705 -7.56565 L 16.4886 -7.52607 L 16.5066 -7.48645 L 16.5246 -7.44678 L 16.5424 -7.40708 L 16.5601 -7.36733 L 16.5778 -7.32754 L 16.5953 -7.2877 L 16.6128 -7.24782 L 16.6301 -7.20791 L 16.6474 -7.16795 L 16.6646 -7.12794 L 16.6816 -7.0879 L 16.6986 -7.04782 L 16.7155 -7.00769 L 16.7323 -6.96753 L 16.749 -6.92732 L 16.7656 -6.88708 L 16.782 -6.8468 L 16.7984 -6.80647 L 16.8147 -6.76611 L 16.8309 -6.72571 L 16.847 -6.68527 L 16.863 -6.64479 L 16.879 -6.60427 L 16.923 -6.49067 L 16.9385 -6.45001 L 16.9539 -6.40931 L 16.9693 -6.36857 L 16.9845 -6.3278 L 16.9997 -6.28699 L 17.0147 -6.24615 L 17.0297 -6.20527 L 17.0445 -6.16435 L 17.0593 -6.1234 L 17.074 -6.08241 L 17.0885 -6.04139 L 17.103 -6.00033 L 17.1173 -5.95924 L 17.1316 -5.91811 L 17.1458 -5.87695 L 17.1598 -5.83576 L 17.1738 -5.79453 L 17.1877 -5.75327 L 17.2014 -5.71197 L 17.2151 -5.67064 L 17.2287 -5.62928 L 17.2421 -5.58789 L 17.2555 -5.54646 L 17.2688 -5.50501 L 17.2819 -5.46352 L 17.295 -5.422 L 17.308 -5.38045 L 17.3209 -5.33886 L 17.2829 -5.31422 L 17.247 -5.28279 L 17.2111 -5.25136 L 17.1752 -5.21992 L 17.1392 -5.18847 L 17.1033 -5.15702 L 17.0673 -5.12556 L 17.0313 -5.09409 L 16.9952 -5.06262 L 16.9592 -5.03114 L 16.9231 -4.99966 L 16.887 -4.96816 L 16.8509 -4.93667 L 16.8147 -4.90516 L 16.7786 -4.87365 L 16.7424 -4.84214 L 16.7062 -4.81061 L 16.6699 -4.77908 L 16.6337 -4.74755 L 16.5974 -4.716 L 16.5611 -4.68445 L 16.5248 -4.6529 L 16.4884 -4.62133 L 16.4521 -4.58976 L 16.4157 -4.55819 L 16.3793 -4.5266 L 16.3428 -4.49501 L 16.3063 -4.46342 L 16.2698 -4.43181 L 16.2333 -4.4002 L 16.1968 -4.36858 L 16.1602 -4.33696 L 16.1236 -4.30533 L 16.087 -4.27369 L 16.0504 -4.24205 L 16.0137 -4.2104 L 15.977 -4.17874 L 15.9403 -4.14707 L 15.9035 -4.1154 L 15.8667 -4.08372 L 15.8299 -4.05203 L 15.7931 -4.02034 L 15.7562 -3.98864 L 15.7193 -3.95693 L 15.6824 -3.92521 L 15.6455 -3.89349 L 15.6085 -3.86176 L 15.5715 -3.83003 L 15.5344 -3.79828 L 15.4974 -3.76653 L 15.4603 -3.73477 L 15.4232 -3.70301 L 15.386 -3.67124 L 15.3488 -3.63946 L 15.3116 -3.60767 L 15.2744 -3.57587 L 15.2371 -3.54407 L 15.1998 -3.51226 L 15.1624 -3.48045 L 15.1251 -3.44862 L 15.0877 -3.41679 L 15.0502 -3.38495 L 15.0127 -3.35311 L 14.9752 -3.32125 L 14.9377 -3.28939 L 14.9001 -3.25752 L 14.8625 -3.22565 L 14.8249 -3.19376 L 14.7872 -3.16187 L 14.7495 -3.12997 L 14.7117 -3.09807 L 14.674 -3.06615 L 14.6361 -3.03423 L 14.5983 -3.0023 L 14.5604 -2.97037 L 14.5225 -2.93842 L 14.4845 -2.90647 L 14.4465 -2.87451 L 14.4085 -2.84255 L 14.3704 -2.81057 L 14.3323 -2.77859 L 14.2941 -2.7466 L 14.2559 -2.7146 L 14.2177 -2.6826 L 14.1794 -2.65059 L 14.1794 -2.65059 L 14.2266 -2.63456 L 14.2739 -2.61853 L 14.321 -2.6025 L 14.3682 -2.58645 L 14.4153 -2.5704 L 14.4623 -2.55434 L 14.5094 -2.53828 L 14.5563 -2.5222 L 14.6033 -2.50612 L 14.6502 -2.49004 L 14.6971 -2.47395 L 14.7439 -2.45785 L 14.7907 -2.44175 L 14.8374 -2.42564 L 14.8842 -2.40952 L 14.9309 -2.3934 L 14.9775 -2.37727 L 15.0241 -2.36114 L 15.0707 -2.345 L 15.1173 -2.32885 L 15.1638 -2.31271 L 15.2102 -2.29655 L 15.2567 -2.28039 L 15.3031 -2.26423 L 15.3495 -2.24806 L 15.3958 -2.23188 L 15.4421 -2.2157 L 15.4884 -2.19952 L 15.5347 -2.18333 L 15.5809 -2.16714 L 15.6271 -2.15094 L 15.6732 -2.13474 L 15.7194 -2.11854 L 15.7654 -2.10233 L 15.8115 -2.08611 L 15.8575 -2.0699 L 15.9035 -2.05367 L 15.9495 -2.03745 L 15.9955 -2.02122 L 16.0414 -2.00499 L 16.0872 -1.98875 L 16.1331 -1.97251 L 16.1789 -1.95627 L 16.2247 -1.94002 L 16.2705 -1.92377 L 16.3162 -1.90751 L 16.3619 -1.89126 L 16.4076 -1.875 L 16.4533 -1.85873 L 16.4989 -1.84247 L 16.5445 -1.8262 L 16.5901 -1.80992 L 16.6356 -1.79365 L 16.6812 -1.77737 L 16.7267 -1.76109 L 16.7721 -1.7448 L 16.8176 -1.72852 L 16.863 -1.71223 L 16.9084 -1.69594 L 16.9538 -1.67964 L 16.9991 -1.66335 L 17.0444 -1.64705 L 17.0897 -1.63075 L 17.135 -1.61444 L 17.1802 -1.59814 L 17.2255 -1.58183 L 17.2707 -1.56552 L 17.3158 -1.5492 L 17.361 -1.53289 L 17.4061 -1.51657 L 17.4512 -1.50025 L 17.4963 -1.48393 L 17.5414 -1.46761 L 17.5864 -1.45128 L 17.6314 -1.43496 L 17.6764 -1.41863 L 17.7214 -1.4023 L 17.7663 -1.38597 L 17.8112 -1.36963 L 17.8561 -1.3533 L 17.901 -1.33696 L 17.9459 -1.32062 L 17.9907 -1.30428 L 18.0355 -1.28794 L 18.0798 -1.27867 L 18.0829 -1.23525 L 18.0858 -1.19182 L 18.0886 -1.14838 L 18.0913 -1.10493 L 18.0939 -1.06148 L 18.0964 -1.01802 L 18.0988 -0.974561 L 18.1011 -0.931092 L 18.1033 -0.887617 L 18.1053 -0.844137 L 18.1073 -0.800653 L 18.1092 -0.757164 L 18.1109 -0.71367 L 18.1126 -0.670172 L 18.1142 -0.626671 L 18.1156 -0.583166 L 18.117 -0.539657 L 18.1182 -0.496146 L 18.1193 -0.452631 L 18.1204 -0.409114 L 18.1213 -0.365595 L 18.1221 -0.322073 L 18.1229 -0.27855 L 18.1235 -0.235025 L 18.124 -0.191498 L 18.1244 -0.147971 L 18.1247 -0.104442 L 18.1249 -0.0609134Z"
id="path1" />
</g>
</svg>
