<?xml version="1.0" encoding="UTF-8" standalone="no"?>
<svg version="1.1">
<g
style="fill:none;stroke:#000000;stroke-opacity:1;stroke-width:0.1">
<path d="M 18.1248 0.0778822 L 18.1246 0.121023 L 18.1243 0.164163 L 18.1238 0.207301 L 18.1233 0.250439 L 18.1226 0.293575 L 18.1219 0.33671 L 18.121 0.379843 L 18.1201 0.422973 L 18.119 0.466102 L 18.1178 0.509227 L 18.1166 0.55235 L 18.1152 0.595469 L 18.1137 0.638586 L 18.1122 0.681698 L 18.1105 0.724807 L 18.1087 0.767911 L 18.1068 0.811012 L 18.1049 0.854107 L 18.1028 0.897198 L 18.1006 0.940284 L 18.0983 0.983364 L 18.0959 1.02644 L 18.0934 1.06951 L 18.0908 1.11257 L 18.0881 1.15563 L 18.0853 1.19868 L 18.0824 1.24172 L 18.0794 1.28476 L 18.0355 1.29396 L 17.9911 1.31031 L 17.9466 1.32665 L 17.9021 1.34298 L 17.8576 1.35932 L 17.8131 1.37566 L 17.7686 1.39199 L 17.724 1.40832 L 17.6794 1.42465 L 17.6348 1.44098 L 17.5902 1.45731 L 17.5455 1.47363 L 17.5009 1.48996 L 17.4562 1.50628 L 17.4114 1.5226 L 17.3667 1.53892 L 17.3219 1.55523 L 17.2771 1.57154 L 17.2323 1.58785 L 17.1875 1.60416 L 17.1426 1.62047 L 17.0977 1.63677 L 17.0528 1.65308 L 17.0079 1.66937 L 16.9629 1.68567 L 16.9179 1.70197 L 16.8729 1.71826 L 16.8279 1.73455 L 16.7828 1.75083 L 16.7377 1.76712 L 16.6926 1.7834 L 16.6475 1.79968 L 16.6023 1.81595 L 16.5571 1.83223 L 16.5119 1.8485 L 16.4667 1.86476 L 16.4214 1.88103 L 16.3761 1.89729 L 16.3308 1.91355 L 16.2854 1.9298 L 16.24 1.94605 L 16.1946 1.9623 L 16.1492 1.97854 L 16.1037 1.99478 L 16.0582 2.01102 L 16.0127 2.02725 L 15.9671 2.04348 L 15.9215 2.05971 L 15.8759 2.07593 L 15.8303 2.09215 L 15.7846 2.10836 L 15.7389 2.12457 L 15.6932 2.14078 L 15.6474 2.15698 L 15.6016 2.17318 L 15.5558 2.18937 L 15.5099 2.20556 L 15.464 2.22174 L 15.4181 2.23792 L 15.3721 2.2541 L 15.3262 2.27027 L 15.2801 2.28643 L 15.2341 2.30259 L 15.188 2.31875 L 15.1419 2.3349 L 15.0957 2.35104 L 15.0495 2.36718 L 15.0033 2.38332 L 14.957 2.39944 L 14.9107 2.41557 L 14.8644 2.43168 L 14.818 2.44779 L 14.7716 2.4639 L 14.7252 2.48 L 14.6787 2.49609 L 14.6322 2.51218 L 14.5856 2.52826 L 14.539 2.54433 L 14.4924 2.5604 L 14.4457 2.57646 L 14.399 2.59251 L 14.3523 2.60856 L 14.3055 2.62459 L 14.2587 2.64063 L 14.2118 2.65665 L 14.2118 2.65665 L 14.2497 2.68852 L 14.2876 2.72039 L 14.3254 2.75224 L 14.3632 2.78409 L 14.401 2.81593 L 14.4387 2.84776 L 14.4764 2.87959 L 14.514 2.91141 L 14.5516 2.94322 L 14.5892 2.97502 L 14.6267 3.00682 L 14.6642 3.03861 L 14.7016 3.07039 L 14.7391 3.10216 L 14.7764 3.13393 L 14.8138 3.16568 L 14.8511 3.19744 L 14.8884 3.22918 L 14.9256 3.26091 L 14.9628 3.29264 L 15 3.32436 L 15.0371 3.35608 L 15.0743 3.38778 L 15.1113 3.41948 L 15.1484 3.45117 L 15.1854 3.48286 L 15.2224 3.51454 L 15.2593 3.54621 L 15.2962 3.57787 L 15.3331 3.60952 L 15.37 3.64117 L 15.4068 3.67281 L 15.4436 3.70444 L 15.4803 3.73607 L 15.5171 3.76769 L 15.5538 3.7993 L 15.5905 3.83091 L 15.6271 3.8625 L 15.6637 3.89409 L 15.7003 3.92568 L 15.7369 3.95725 L 15.7734 3.98882 L 15.8099 4.02038 L 15.8464 4.05194 L 15.8828 4.08349 L 15.9192 4.11503 L 15.9556 4.14656 L 15.992 4.17809 L 16.0283 4.20961 L 16.0647 4.24112 L 16.1009 4.27263 L 16.1372 4.30412 L 16.1734 4.33562 L 16.2096 4.3671 L 16.2458 4.39858 L 16.282 4.43005 L 16.3181 4.46152 L 16.3542 4.49298 L 16.3903 4.52443 L 16.4264 4.55587 L 16.4624 4.58731 L 16.4984 4.61874 L 16.5344 4.65017 L 16.5704 4.68158 L 16.6063 4.713 L 16.6423 4.7444 L 16.6782 4.7758 L 16.714 4.80719 L 16.7499 4.83858 L 16.7857 4.86996 L 16.8215 4.90133 L 16.8573 4.93269 L 16.8931 4.96405 L 16.9288 4.99541 L 16.9645 5.02675 L 17.0002 5.05809 L 17.0359 5.08943 L 17.0715 5.12075 L 17.1072 5.15208 L 17.1428 5.18339 L 17.1784 5.2147 L 17.214 5.246 L 17.2495 5.2773 L 17.285 5.30859 L 17.3227 5.33304 L 17.3099 5.37425 L 17.2971 5.41544 L 17.2841 5.45659 L 17.2711 5.49772 L 17.258 5.53881 L 17.2447 5.57987 L 17.2314 5.6209 L 17.218 5.6619 L 17.2044 5.70287 L 17.1908 5.7438 L 17.1771 5.7847 L 17.1633 5.82557 L 17.1494 5.86641 L 17.1354 5.90721 L 17.1212 5.94798 L 17.107 5.98871 L 17.0927 6.02941 L 17.0783 6.07008 L 17.0638 6.11071 L 17.0493 6.15131 L 17.0346 6.19187 L 17.0198 6.2324 L 17.0049 6.2729 L 16.9899 6.31335 L 16.9748 6.35377 L 16.9597 6.39416 L 16.9444 6.43451 L 16.929 6.47482 L 16.8728 6.62007 L 16.857 6.66021 L 16.8411 6.70031 L 16.8251 6.74038 L 16.809 6.78041 L 16.7928 6.8204 L 16.7765 6.86035 L 16.7601 6.90026 L 16.7437 6.94013 L 16.7271 6.97997 L 16.7104 7.01976 L 16.6937 7.05952 L 16.6768 7.09923 L 16.6599 7.1389 L 16.6428 7.17854 L 16.6257 7.21813 L 16.6085 7.25768 L 16.5912 7.29719 L 16.5737 7.33666 L 16.5562 7.37609 L 16.5386 7.41548 L 16.5209 7.45482 L 16.5031 7.49412 L 16.4853 7.53338 L 16.4673 7.5726 L 16.4492 7.61177 L 16.431 7.6509 L 16.4128 7.68999 L 16.3944 7.72904 L 16.3502 7.72176 L 16.3028 7.72095 L 16.2555 7.72012 L 16.2081 7.71929 L 16.1607 7.71845 L 16.1133 7.7176 L 16.0659 7.71674 L 16.0184 7.71587 L 15.9709 7.71499 L 15.9234 7.71411 L 15.8759 7.71321 L 15.8284 7.7123 L 15.7808 7.71138 L 15.7333 7.71045 L 15.6857 7.70952 L 15.638 7.70857 L 15.5904 7.70761 L 15.5427 7.70664 L 15.4951 7.70566 L 15.4474 7.70467 L 15.3996 7.70367 L 15.3519 7.70266 L 15.3041 7.70163 L 15.2563 7.7006 L 15.2085 7.69956 L 15.1607 7.6985 L 15.1128 7.69743 L 15.0649 7.69635 L 15.017 7.69526 L 14.9691 7.69416 L 14.9212 7.69304 L 14.8732 7.69192 L 14.8252 7.69078 L 14.7772 7.68963 L 14.7291 7.68846 L 14.6811 7.68729 L 14.633 7.6861 L 14.5849 7.6849 L 14.5367 7.68368 L 14.4886 7.68245 L 14.4404 7.68121 L 14.3922 7.67996 L 14.3439 7.67869 L 14.2957 7.67741 L 14.2474 7.67612 L 14.1991 7.67481 L 14.1507 7.67348 L 14.1023 7.67215 L 14.054 7.6708 L 14.0055 7.66943 L 13.9571 7.66805 L 13.9086 7.66666 L 13.8601 7.66525 L 13.8116 7.66382 L 13.763 7.66238 L 13.7144 7.66092 L 13.6658 7.65945 L 13.6172 7.65796 L 13.5685 7.65646 L 13.5198 7.65494 L 13.4711 7.65341 L 13.4223 7.65185 L 13.3736 7.65029 L 13.3247 7.6487 L 13.2759 7.6471 L 13.227 7.64548 L 13.1781 7.64384 L 13.1292 7.64219 L 13.0802 7.64051 L 13.0312 7.63882 L 12.9822 7.63711 L 12.9331 7.63539 L 12.8841 7.63364 L 12.8349 7.63188 L 12.7858 7.63009 L 12.7366 7.62829 L 12.6874 7.62647 L 12.6381 7.62462 L 12.5888 7.62276 L 12.5395 7.62088 L 12.4902 7.61898 L 12.4408 7.61705 L 12.3914 7.61511 L 12.3419 7.61314 L 12.2924 7.61116 L 12.2924 7.61116 L 12.3163 7.65457 L 12.3401 7.69796 L 12.3638 7.74133 L 12.3876 7.78468 L 12.4113 7.82801 L 12.4349 7.87132 L 12.4586 7.9146 L 12.4822 7.95787 L 12.5058 8.00112 L 12.5293 8.04434 L 12.5528 8.08755 L 12.5763 8.13073 L 12.5997 8.17389 L 12.6231 8.21704 L 12.6465 8.26016 L 12.6699 8.30327 L 12.6932 8.34635 L 12.7165 8.38942 L 12.7397 8.43247 L 12.763 8.47549 L 12.7862 8.5185 L 12.8094 8.56149 L 12.8325 8.60446 L 12.8556 8.64741 L 12.8787 8.69035 L 12.9018 8.73326 L 12.9248 8.77616 L 12.9478 8.81904 L 12.9708 8.8619 L 12.9938 8.90474 L 13.0167 8.94756 L 13.0396 8.99037 L 13.0625 9.03316 L 13.0854 9.07593 L 13.1082 9.11868 L 13.131 9.16142 L 13.1538 9.20413 L 13.1765 9.24684 L 13.1993 9.28952 L 13.222 9.33219 L 13.2447 9.37484 L 13.2673 9.41747 L 13.29 9.46009 L 13.3126 9.50269 L 13.3352 9.54527 L 13.3577 9.58784 L 13.3803 9.63039 L 13.4028 9.67293 L 13.4253 9.71544 L 13.4478 9.75795 L 13.4702 9.80043 L 13.4927 9.84291 L 13.5151 9.88536 L 13.5375 9.9278 L 13.5598 9.97023 L 13.5822 10.0126 L 13.6045 10.055 L 13.6268 10.0974 L 13.6491 10.1398 L 13.6714 10.1821 L 13.6936 10.2245 L 13.7159 10.2668 L 13.7381 10.3091 L 13.7602 10.3514 L 13.7824 10.3936 L 13.8046 10.4359 L 13.8267 10.4781 L 13.8488 10.5204 L 13.8709 10.5626 L 13.893 10.6048 L 13.915 10.647 L 13.9371 10.6892 L 13.9591 10.7313 L 13.9811 10.7735 L 14.0031 10.8156 L 14.025 10.8577 L 14.047 10.8998 L 14.0689 10.9419 L 14.0908 10.984 L 14.1127 11.0261 L 14.1346 11.0681 L 14.1565 11.1101 L 14.1783 11.1522 L 14.2001 11.1942 L 14.2264 11.2306 L 14.1996 11.2644 L 14.1728 11.2982 L 14.1458 11.3319 L 14.1188 11.3655 L 14.0917 11.3991 L 14.0645 11.4326 L 14.0373 11.466 L 14.01 11.4994 L 13.9826 11.5327 L 13.9551 11.566 L 13.9275 11.5992 L 13.8998 11.6323 L 13.8721 11.6653 L 13.8443 11.6983 L 13.8164 11.7312 L 13.7885 11.7641 L 13.7604 11.7969 L 13.7323 11.8296 L 13.7041 11.8622 L 13.6758 11.8948 L 13.6475 11.9273 L 13.6191 11.9598 L 13.5906 11.9922 L 13.562 12.0245 L 13.5333 12.0567 L 13.5046 12.0889 L 13.4758 12.121 L 13.4469 12.1531 L 13.3419 12.2682 L 13.3127 12.2999 L 13.2834 12.3316 L 13.254 12.3631 L 13.2245 12.3946 L 13.195 12.4261 L 13.1654 12.4575 L 13.1357 12.4888 L 13.1059 12.52 L 13.0761 12.5511 L 13.0462 12.5822 L 13.0162 12.6133 L 12.9861 12.6442 L 12.956 12.6751 L 12.9258 12.7059 L 12.8955 12.7366 L 12.8652 12.7673 L 12.8347 12.7978 L 12.8042 12.8284 L 12.7737 12.8588 L 12.743 12.8892 L 12.7123 12.9195 L 12.6815 12.9497 L 12.6507 12.9798 L 12.6197 13.0099 L 12.5887 13.0399 L 12.5577 13.0698 L 12.5265 13.0997 L 12.4953 13.1295 L 12.4567 13.1067 L 12.4128 13.0888 L 12.3689 13.071 L 12.3251 13.0531 L 12.2812 13.0352 L 12.2373 13.0172 L 12.1934 12.9993 L 12.1494 12.9814 L 12.1055 12.9634 L 12.0615 12.9454 L 12.0175 12.9274 L 11.9735 12.9094 L 11.9295 12.8913 L 11.8855 12.8733 L 11.8414 12.8552 L 11.7974 12.8371 L 11.7533 12.819 L 11.7092 12.8009 L 11.6651 12.7828 L 11.621 12.7646 L 11.5768 12.7464 L 11.5327 12.7283 L 11.4885 12.71 L 11.4443 12.6918 L 11.4001 12.6736 L 11.3559 12.6553 L 11.3117 12.637 L 11.2674 12.6187 L 11.2231 12.6004 L 11.1788 12.5821 L 11.1345 12.5637 L 11.0902 12.5453 L 11.0459 12.5269 L 11.0015 12.5085 L 10.9571 12.4901 L 10.9127 12.4716 L 10.8683 12.4531 L 10.8239 12.4346 L 10.7794 12.4161 L 10.735 12.3976 L 10.6905 12.379 L 10.646 12.3604 L 10.6015 12.3418 L 10.5569 12.3232 L 10.5123 12.3045 L 10.4678 12.2858 L 10.4232 12.2671 L 10.3785 12.2484 L 10.3339 12.2297 L 10.2893 12.2109 L 10.2446 12.1921 L 10.1999 12.1733 L 10.1552 12.1545 L 10.1104 12.1356 L 10.0657 12.1167 L 10.0209 12.0978 L 9.97609 12.0789 L 9.93127 12.0599 L 9.88643 12.041 L 9.84157 12.0219 L 9.79669 12.0029 L 9.75179 11.9839 L 9.70687 11.9648 L 9.66192 11.9457 L 9.61696 11.9265 L 9.57197 11.9073 L 9.52696 11.8882 L 9.48193 11.8689 L 9.43688 11.8497 L 9.3918 11.8304 L 9.3467 11.8111 L 9.30158 11.7918 L 9.25644 11.7724 L 9.21127 11.753 L 9.16608 11.7336 L 9.12087 11.7142 L 9.07563 11.6947 L 9.03038 11.6752 L 8.98509 11.6556 L 8.93979 11.6361 L 8.89446 11.6165 L 8.8491 11.5968 L 8.80372 11.5772 L 8.75832 11.5575 L 8.71289 11.5377 L 8.71289 11.5377 L 8.71944 11.5868 L 8.72596 11.6359 L 8.73245 11.6849 L 8.73892 11.7339 L 8.74537 11.7829 L 8.7518 11.8318 L 8.7582 11.8807 L 8.76458 11.9296 L 8.77093 11.9784 L 8.77727 12.0272 L 8.78358 12.076 L 8.78987 12.1248 L 8.79613 12.1735 L 8.80238 12.2222 L 8.80861 12.2708 L 8.81481 12.3195 L 8.82099 12.3681 L 8.82716 12.4166 L 8.8333 12.4652 L 8.83942 12.5137 L 8.84552 12.5622 L 8.85161 12.6106 L 8.85767 12.6591 L 8.86371 12.7075 L 8.86974 12.7558 L 8.87575 12.8042 L 8.88173 12.8525 L 8.8877 12.9008 L 8.89365 12.9491 L 8.89959 12.9973 L 8.9055 13.0455 L 8.9114 13.0937 L 8.91728 13.1419 L 8.92314 13.19 L 8.92898 13.2381 L 8.93481 13.2862 L 8.94062 13.3343 L 8.94641 13.3823 L 8.95219 13.4303 L 8.95795 13.4783 L 8.9637 13.5263 L 8.96943 13.5742 L 8.97514 13.6222 L 8.98084 13.67 L 8.98652 13.7179 L 8.99218 13.7658 L 8.99784 13.8136 L 9.00347 13.8614 L 9.00909 13.9092 L 9.0147 13.9569 L 9.02029 14.0046 L 9.02587 14.0523 L 9.03143 14.1 L 9.03698 14.1477 L 9.04251 14.1953 L 9.04803 14.243 L 9.05354 14.2906 L 9.05903 14.3381 L 9.06451 14.3857 L 9.06998 14.4332 L 9.07543 14.4807 L 9.08087 14.5282 L 9.08629 14.5757 L 9.09171 14.6231 L 9.09711 14.6706 L 9.10249 14.718 L 9.10787 14.7654 L 9.11323 14.8127 L 9.11858 14.8601 L 9.12392 14.9074 L 9.12924 14.9547 L 9.13456 15.002 L 9.13986 15.0493 L 9.14515 15.0965 L 9.15043 15.1437 L 9.15569 15.1909 L 9.16095 15.2381 L 9.16619 15.2853 L 9.17143 15.3325 L 9.17665 15.3796 L 9.18186 15.4267 L 9.18706 15.4738 L 9.19225 15.5209 L 9.19742 15.5679 L 9.20875 15.6114 L 9.17157 15.6332 L 9.13433 15.655 L 9.09704 15.6767 L 9.05971 15.6983 L 9.02231 15.7198 L 8.98487 15.7413 L 8.94738 15.7626 L 8.90984 15.7839 L 8.87224 15.805 L 8.8346 15.8261 L 8.7969 15.8471 L 8.75916 15.868 L 8.72137 15.8888 L 8.68352 15.9095 L 8.64563 15.9301 L 8.60769 15.9507 L 8.5697 15.9711 L 8.53166 15.9914 L 8.49357 16.0117 L 8.45544 16.0319 L 8.41725 16.052 L 8.37902 16.072 L 8.34075 16.0918 L 8.30242 16.1117 L 8.26405 16.1314 L 8.22563 16.151 L 8.18716 16.1705 L 8.14865 16.19 L 8.00922 16.2594 L 7.97049 16.2784 L 7.93172 16.2973 L 7.89291 16.3162 L 7.85405 16.3349 L 7.81515 16.3536 L 7.7762 16.3721 L 7.73721 16.3906 L 7.69818 16.409 L 7.6591 16.4272 L 7.61998 16.4454 L 7.58081 16.4635 L 7.5416 16.4815 L 7.50235 16.4994 L 7.46306 16.5172 L 7.42372 16.5349 L 7.38435 16.5526 L 7.34493 16.5701 L 7.30547 16.5875 L 7.26596 16.6049 L 7.22642 16.6221 L 7.18684 16.6393 L 7.14721 16.6563 L 7.10755 16.6733 L 7.06784 16.6902 L 7.02809 16.7069 L 6.98831 16.7236 L 6.94848 16.7402 L 6.90862 16.7567 L 6.88081 16.7215 L 6.84637 16.689 L 6.81193 16.6565 L 6.77748 16.624 L 6.74302 16.5914 L 6.70855 16.5588 L 6.67407 16.5262 L 6.63959 16.4936 L 6.6051 16.461 L 6.5706 16.4283 L 6.53609 16.3957 L 6.50157 16.363 L 6.46705 16.3303 L 6.43251 16.2975 L 6.39797 16.2648 L 6.36342 16.232 L 6.32886 16.1992 L 6.29429 16.1664 L 6.25972 16.1335 L 6.22513 16.1006 L 6.19054 16.0677 L 6.15593 16.0348 L 6.12132 16.0019 L 6.0867 15.9689 L 6.05207 15.936 L 6.01743 15.9029 L 5.98279 15.8699 L 5.94813 15.8369 L 5.91347 15.8038 L 5.87879 15.7707 L 5.84411 15.7376 L 5.80942 15.7044 L 5.77472 15.6712 L 5.74001 15.638 L 5.70529 15.6048 L 5.67056 15.5716 L 5.63582 15.5383 L 5.60107 15.505 L 5.56631 15.4716 L 5.53155 15.4383 L 5.49677 15.4049 L 5.46199 15.3715 L 5.42719 15.3381 L 5.39239 15.3046 L 5.35757 15.2711 L 5.32275 15.2376 L 5.28791 15.204 L 5.25307 15.1705 L 5.21822 15.1369 L 5.18335 15.1032 L 5.14848 15.0696 L 5.1136 15.0359 L 5.0787 15.0022 L 5.0438 14.9684 L 5.00889 14.9347 L 4.97396 14.9008 L 4.93903 14.867 L 4.90409 14.8331 L 4.86913 14.7992 L 4.83417 14.7653 L 4.79919 14.7314 L 4.76421 14.6974 L 4.72921 14.6633 L 4.69421 14.6293 L 4.65919 14.5952 L 4.62417 14.5611 L 4.58913 14.5269 L 4.55408 14.4927 L 4.51902 14.4585 L 4.48395 14.4242 L 4.44888 14.3899 L 4.41379 14.3556 L 4.37868 14.3213 L 4.34357 14.2869 L 4.30845 14.2524 L 4.27332 14.218 L 4.23817 14.1835 L 4.20302 14.1489 L 4.16785 14.1143 L 4.13267 14.0797 L 4.09748 14.0451 L 4.06228 14.0104 L 4.02707 13.9757 L 3.99185 13.9409 L 3.95662 13.9061 L 3.95662 13.9061 L 3.94499 13.9542 L 3.93334 14.0023 L 3.92169 14.0504 L 3.91003 14.0984 L 3.89835 14.1464 L 3.88667 14.1943 L 3.87497 14.2423 L 3.86326 14.2901 L 3.85155 14.338 L 3.83982 14.3858 L 3.82809 14.4335 L 3.81634 14.4813 L 3.80459 14.529 L 3.79282 14.5766 L 3.78105 14.6242 L 3.76927 14.6718 L 3.75748 14.7194 L 3.74568 14.7669 L 3.73387 14.8144 L 3.72205 14.8618 L 3.71023 14.9092 L 3.69839 14.9566 L 3.68655 15.004 L 3.6747 15.0513 L 3.66284 15.0986 L 3.65098 15.1458 L 3.63911 15.1931 L 3.62723 15.2403 L 3.61534 15.2874 L 3.60344 15.3345 L 3.59154 15.3816 L 3.57963 15.4287 L 3.56771 15.4757 L 3.55579 15.5227 L 3.54386 15.5697 L 3.53192 15.6167 L 3.51998 15.6636 L 3.50803 15.7105 L 3.49607 15.7573 L 3.48411 15.8042 L 3.47214 15.851 L 3.46016 15.8977 L 3.44818 15.9445 L 3.43619 15.9912 L 3.4242 16.0379 L 3.4122 16.0845 L 3.40019 16.1312 L 3.38818 16.1778 L 3.37616 16.2244 L 3.36414 16.2709 L 3.35211 16.3174 L 3.34008 16.3639 L 3.32804 16.4104 L 3.31599 16.4569 L 3.30394 16.5033 L 3.29189 16.5497 L 3.27983 16.5961 L 3.26777 16.6424 L 3.2557 16.6887 L 3.24362 16.735 L 3.23154 16.7813 L 3.21946 16.8275 L 3.20737 16.8738 L 3.19528 16.92 L 3.18318 16.9661 L 3.17108 17.0123 L 3.15897 17.0584 L 3.14686 17.1045 L 3.13475 17.1506 L 3.12263 17.1967 L 3.1105 17.2427 L 3.09838 17.2887 L 3.08625 17.3347 L 3.07411 17.3807 L 3.06197 17.4266 L 3.04983 17.4726 L 3.03768 17.5185 L 3.02553 17.5643 L 3.01338 17.6102 L 3.00122 17.656 L 2.98906 17.7018 L 2.97689 17.7476 L 2.96472 17.7934 L 2.95255 17.8392 L 2.94743 17.8837 L 2.90486 17.8907 L 2.86227 17.8976 L 2.81966 17.9043 L 2.77704 17.911 L 2.7344 17.9176 L 2.69174 17.924 L 2.64907 17.9304 L 2.60638 17.9366 L 2.56368 17.9428 L 2.52097 17.9488 L 2.47824 17.9548 L 2.4355 17.9606 L 2.39274 17.9664 L 2.34997 17.972 L 2.30719 17.9776 L 2.26439 17.983 L 2.22158 17.9883 L 2.17876 17.9936 L 2.13592 17.9987 L 2.09308 18.0037 L 2.05022 18.0087 L 2.00735 18.0135 L 1.96447 18.0182 L 1.92158 18.0229 L 1.87867 18.0274 L 1.83576 18.0318 L 1.79283 18.0361 L 1.7499 18.0403 L 1.5948 18.0547 L 1.55182 18.0584 L 1.50883 18.0621 L 1.46584 18.0656 L 1.42283 18.0691 L 1.37982 18.0724 L 1.3368 18.0756 L 1.29377 18.0788 L 1.25074 18.0818 L 1.2077 18.0847 L 1.16465 18.0875 L 1.12159 18.0903 L 1.07853 18.0929 L 1.03546 18.0954 L 0.992391 18.0978 L 0.949311 18.1001 L 0.906227 18.1023 L 0.863137 18.1044 L 0.820042 18.1064 L 0.776943 18.1083 L 0.733839 18.1101 L 0.690732 18.1118 L 0.64762 18.1134 L 0.604504 18.1149 L 0.561386 18.1163 L 0.518264 18.1176 L 0.475139 18.1188 L 0.432011 18.1199 L 0.388881 18.1208 L 0.375662 18.078 L 0.35529 18.0352 L 0.334918 17.9925 L 0.314544 17.9497 L 0.294171 17.9069 L 0.273797 17.8641 L 0.253423 17.8212 L 0.233049 17.7783 L 0.212674 17.7355 L 0.192299 17.6925 L 0.171924 17.6496 L 0.151549 17.6067 L 0.131173 17.5637 L 0.110797 17.5207 L 0.0904214 17.4776 L 0.0700453 17.4346 L 0.0496692 17.3915 L 0.029293 17.3484 L 0.00891676 17.3053 L -0.0114595 17.2622 L -0.0318357 17.219 L -0.0522119 17.1758 L -0.072588 17.1326 L -0.0929641 17.0894 L -0.11334 17.0461 L -0.133716 17.0028 L -0.154091 16.9595 L -0.174466 16.9161 L -0.194841 16.8728 L -0.215216 16.8294 L -0.235591 16.786 L -0.255965 16.7425 L -0.276338 16.6991 L -0.296711 16.6556 L -0.317084 16.612 L -0.337456 16.5685 L -0.357828 16.5249 L -0.378199 16.4813 L -0.398569 16.4377 L -0.418939 16.394 L -0.439308 16.3503 L -0.459676 16.3066 L -0.480044 16.2628 L -0.50041 16.2191 L -0.520776 16.1753 L -0.541141 16.1314 L -0.561504 16.0876 L -0.581867 16.0437 L -0.602229 15.9998 L -0.622589 15.9558 L -0.642949 15.9118 L -0.663307 15.8678 L -0.683663 15.8238 L -0.704019 15.7797 L -0.724373 15.7356 L -0.744725 15.6914 L -0.765076 15.6473 L -0.785426 15.6031 L -0.805774 15.5588 L -0.82612 15.5146 L -0.846464 15.4702 L -0.866807 15.4259 L -0.887148 15.3815 L -0.907486 15.3371 L -0.927823 15.2927 L -0.948158 15.2482 L -0.96849 15.2037 L -0.98882 15.1592 L -1.00915 15.1146 L -1.02947 15.07 L -1.0498 15.0253 L -1.07012 14.9807 L -1.09044 14.9359 L -1.11075 14.8912 L -1.13106 14.8464 L -1.15137 14.8016 L -1.17168 14.7567 L -1.19198 14.7118 L -1.21228 14.6668 L -1.23258 14.6218 L -1.25287 14.5768 L -1.27317 14.5318 L -1.29345 14.4867 L -1.31374 14.4415 L -1.33402 14.3963 L -1.33402 14.3963 L -1.36225 14.437 L -1.39049 14.4777 L -1.41872 14.5183 L -1.44694 14.5588 L -1.47516 14.5994 L -1.50338 14.6399 L -1.5316 14.6803 L -1.5598 14.7207 L -1.58801 14.7611 L -1.61621 14.8014 L -1.64441 14.8417 L -1.6726 14.882 L -1.70079 14.9222 L -1.72898 14.9624 L -1.75716 15.0026 L -1.78534 15.0427 L -1.81351 15.0828 L -1.84168 15.1228 L -1.86984 15.1628 L -1.898 15.2028 L -1.92616 15.2427 L -1.95431 15.2827 L -1.98246 15.3225 L -2.0106 15.3624 L -2.03874 15.4022 L -2.06687 15.442 L -2.095 15.4817 L -2.12313 15.5214 L -2.15125 15.5611 L -2.17936 15.6007 L -2.20748 15.6404 L -2.23558 15.6799 L -2.26369 15.7195 L -2.29179 15.759 L -2.31988 15.7985 L -2.34797 15.838 L -2.37606 15.8774 L -2.40414 15.9168 L -2.43222 15.9562 L -2.46029 15.9955 L -2.48836 16.0349 L -2.51642 16.0741 L -2.54448 16.1134 L -2.57253 16.1526 L -2.60058 16.1918 L -2.62863 16.231 L -2.65667 16.2702 L -2.68471 16.3093 L -2.71274 16.3484 L -2.74077 16.3874 L -2.76879 16.4265 L -2.79681 16.4655 L -2.82482 16.5045 L -2.85283 16.5434 L -2.88084 16.5824 L -2.90884 16.6213 L -2.93684 16.6602 L -2.96483 16.699 L -2.99282 16.7379 L -3.0208 16.7767 L -3.04878 16.8155 L -3.07675 16.8542 L -3.10472 16.893 L -3.13269 16.9317 L -3.16065 16.9704 L -3.18861 17.009 L -3.21656 17.0477 L -3.24451 17.0863 L -3.27245 17.1249 L -3.30039 17.1634 L -3.32833 17.202 L -3.35626 17.2405 L -3.38418 17.279 L -3.4121 17.3175 L -3.44002 17.356 L -3.46793 17.3944 L -3.49584 17.4328 L -3.52375 17.4712 L -3.55165 17.5096 L -3.57954 17.5479 L -3.60743 17.5863 L -3.63532 17.6246 L -3.6632 17.6629 L -3.69108 17.7011 L -3.71195 17.7408 L -3.75417 17.7319 L -3.79636 17.723 L -3.83854 17.7139 L -3.88069 17.7047 L -3.92282 17.6954 L -3.96493 17.686 L -4.00701 17.6765 L -4.04907 17.6669 L -4.09111 17.6572 L -4.13313 17.6475 L -4.17512 17.6376 L -4.21709 17.6276 L -4.25904 17.6175 L -4.30096 17.6073 L -4.34285 17.597 L -4.38473 17.5866 L -4.42657 17.5762 L -4.4684 17.5656 L -4.51019 17.5549 L -4.55196 17.5441 L -4.59371 17.5332 L -4.63543 17.5222 L -4.67712 17.5111 L -4.71879 17.5 L -4.76043 17.4887 L -4.80204 17.4773 L -4.84363 17.4658 L -4.88519 17.4542 L -5.03501 17.4116 L -5.07643 17.3996 L -5.11783 17.3874 L -5.15921 17.3752 L -5.20055 17.3629 L -5.24186 17.3505 L -5.28314 17.3379 L -5.32439 17.3253 L -5.36562 17.3126 L -5.40681 17.2998 L -5.44797 17.2869 L -5.4891 17.2738 L -5.5302 17.2607 L -5.57127 17.2475 L -5.61231 17.2342 L -5.65331 17.2208 L -5.69428 17.2073 L -5.73523 17.1937 L -5.77613 17.18 L -5.81701 17.1662 L -5.85785 17.1523 L -5.89866 17.1383 L -5.93944 17.1242 L -5.98018 17.11 L -6.02089 17.0957 L -6.06156 17.0814 L -6.1022 17.0669 L -6.14281 17.0523 L -6.18338 17.0376 L -6.18022 16.9929 L -6.18377 16.9457 L -6.18732 16.8985 L -6.19087 16.8512 L -6.1944 16.8039 L -6.19793 16.7566 L -6.20145 16.7093 L -6.20497 16.662 L -6.20847 16.6146 L -6.21197 16.5673 L -6.21546 16.5199 L -6.21894 16.4725 L -6.22242 16.425 L -6.22588 16.3776 L -6.22934 16.3301 L -6.23279 16.2826 L -6.23623 16.2351 L -6.23966 16.1875 L -6.24309 16.1399 L -6.2465 16.0924 L -6.24991 16.0447 L -6.25331 15.9971 L -6.2567 15.9495 L -6.26007 15.9018 L -6.26345 15.8541 L -6.26681 15.8063 L -6.27016 15.7586 L -6.2735 15.7108 L -6.27684 15.663 L -6.28016 15.6152 L -6.28347 15.5673 L -6.28678 15.5195 L -6.29007 15.4716 L -6.29336 15.4237 L -6.29663 15.3757 L -6.29989 15.3277 L -6.30315 15.2798 L -6.30639 15.2317 L -6.30962 15.1837 L -6.31285 15.1356 L -6.31606 15.0875 L -6.31926 15.0394 L -6.32245 14.9912 L -6.32562 14.9431 L -6.32879 14.8949 L -6.33194 14.8466 L -6.33509 14.7984 L -6.33822 14.7501 L -6.34134 14.7018 L -6.34445 14.6534 L -6.34754 14.6051 L -6.35063 14.5567 L -6.3537 14.5082 L -6.35676 14.4598 L -6.3598 14.4113 L -6.36283 14.3628 L -6.36585 14.3143 L -6.36886 14.2657 L -6.37186 14.2171 L -6.37484 14.1685 L -6.3778 14.1198 L -6.38076 14.0711 L -6.38369 14.0224 L -6.38662 13.9736 L -6.38953 13.9249 L -6.39243 13.876 L -6.39531 13.8272 L -6.39818 13.7783 L -6.40103 13.7294 L -6.40387 13.6805 L -6.40669 13.6315 L -6.40949 13.5825 L -6.41229 13.5334 L -6.41506 13.4844 L -6.41782 13.4353 L -6.42056 13.3861 L -6.42329 13.3369 L -6.426 13.2877 L -6.42869 13.2385 L -6.43137 13.1892 L -6.43403 13.1399 L -6.43667 13.0905 L -6.43929 13.0412 L -6.4419 12.9917 L -6.44449 12.9423 L -6.44449 12.9423 L -6.48551 12.97 L -6.52652 12.9977 L -6.56752 13.0254 L -6.60849 13.053 L -6.64945 13.0806 L -6.69039 13.1082 L -6.73131 13.1357 L -6.77221 13.1632 L -6.8131 13.1907 L -6.85397 13.2181 L -6.89482 13.2455 L -6.93565 13.2728 L -6.97647 13.3002 L -7.01727 13.3275 L -7.05805 13.3547 L -7.09882 13.3819 L -7.13957 13.4091 L -7.1803 13.4363 L -7.22102 13.4634 L -7.26172 13.4906 L -7.3024 13.5176 L -7.34307 13.5447 L -7.38372 13.5717 L -7.42436 13.5987 L -7.46498 13.6256 L -7.50558 13.6526 L -7.54617 13.6795 L -7.58674 13.7063 L -7.6273 13.7332 L -7.66784 13.76 L -7.70836 13.7868 L -7.74887 13.8135 L -7.78937 13.8403 L -7.82985 13.867 L -7.87031 13.8936 L -7.91076 13.9203 L -7.95119 13.9469 L -7.99161 13.9735 L -8.03202 14.0001 L -8.07241 14.0266 L -8.11278 14.0532 L -8.15314 14.0797 L -8.19349 14.1061 L -8.23382 14.1326 L -8.27414 14.159 L -8.31444 14.1854 L -8.35473 14.2118 L -8.39501 14.2381 L -8.43527 14.2645 L -8.47552 14.2908 L -8.51575 14.317 L -8.55597 14.3433 L -8.59618 14.3695 L -8.63637 14.3957 L -8.67655 14.4219 L -8.71672 14.4481 L -8.75687 14.4742 L -8.79701 14.5004 L -8.83714 14.5265 L -8.87725 14.5525 L -8.91735 14.5786 L -8.95744 14.6046 L -8.99751 14.6307 L -9.03757 14.6567 L -9.07762 14.6826 L -9.11766 14.7086 L -9.15768 14.7345 L -9.19769 14.7604 L -9.23769 14.7863 L -9.27767 14.8122 L -9.31765 14.838 L -9.35761 14.8639 L -9.39756 14.8897 L -9.4375 14.9155 L -9.47742 14.9413 L -9.51733 14.967 L -9.55723 14.9928 L -9.59712 15.0185 L -9.637 15.0442 L -9.67687 15.0699 L -9.71672 15.0955 L -9.75656 15.1212 L -9.79639 15.1468 L -9.83621 15.1724 L -9.87002 15.2019 L -9.90618 15.1784 L -9.94227 15.1548 L -9.97832 15.1311 L -10.0143 15.1073 L -10.0502 15.0834 L -10.0861 15.0594 L -10.1219 15.0354 L -10.1577 15.0112 L -10.1934 14.987 L -10.229 14.9627 L -10.2646 14.9383 L -10.3001 14.9138 L -10.3356 14.8893 L -10.371 14.8646 L -10.4064 14.8399 L -10.4417 14.8151 L -10.4769 14.7902 L -10.5121 14.7652 L -10.5472 14.7402 L -10.5822 14.715 L -10.6172 14.6898 L -10.6522 14.6645 L -10.687 14.6391 L -10.7219 14.6136 L -10.7566 14.588 L -10.7913 14.5624 L -10.8259 14.5367 L -10.8605 14.5109 L -10.9848 14.417 L -11.0191 14.3908 L -11.0533 14.3645 L -11.0875 14.3382 L -11.1216 14.3118 L -11.1556 14.2852 L -11.1896 14.2587 L -11.2235 14.232 L -11.2573 14.2052 L -11.2911 14.1784 L -11.3248 14.1515 L -11.3585 14.1245 L -11.3921 14.0974 L -11.4256 14.0702 L -11.459 14.043 L -11.4924 14.0157 L -11.5258 13.9883 L -11.559 13.9608 L -11.5922 13.9333 L -11.6253 13.9056 L -11.6584 13.8779 L -11.6914 13.8501 L -11.7243 13.8223 L -11.7572 13.7943 L -11.79 13.7663 L -11.8227 13.7382 L -11.8554 13.71 L -11.888 13.6818 L -11.9205 13.6534 L -11.9014 13.6129 L -11.8877 13.5675 L -11.8739 13.5222 L -11.8602 13.4769 L -11.8464 13.4315 L -11.8326 13.3862 L -11.8188 13.3408 L -11.805 13.2954 L -11.7911 13.2499 L -11.7773 13.2045 L -11.7634 13.159 L -11.7495 13.1136 L -11.7356 13.0681 L -11.7217 13.0226 L -11.7078 12.9771 L -11.6939 12.9315 L -11.6799 12.886 L -11.6659 12.8404 L -11.6519 12.7948 L -11.6379 12.7492 L -11.6239 12.7036 L -11.6099 12.6579 L -11.5958 12.6122 L -11.5817 12.5666 L -11.5676 12.5209 L -11.5535 12.4751 L -11.5394 12.4294 L -11.5253 12.3836 L -11.5111 12.3379 L -11.4969 12.2921 L -11.4827 12.2463 L -11.4685 12.2004 L -11.4543 12.1546 L -11.44 12.1087 L -11.4258 12.0628 L -11.4115 12.0169 L -11.3972 11.971 L -11.3829 11.925 L -11.3685 11.8791 L -11.3542 11.8331 L -11.3398 11.7871 L -11.3254 11.741 L -11.311 11.695 L -11.2965 11.6489 L -11.2821 11.6028 L -11.2676 11.5567 L -11.2531 11.5106 L -11.2386 11.4644 L -11.224 11.4182 L -11.2095 11.372 L -11.1949 11.3258 L -11.1803 11.2796 L -11.1656 11.2333 L -11.151 11.187 L -11.1363 11.1407 L -11.1216 11.0944 L -11.1069 11.048 L -11.0921 11.0017 L -11.0774 10.9553 L -11.0626 10.9088 L -11.0478 10.8624 L -11.0329 10.8159 L -11.0181 10.7694 L -11.0032 10.7229 L -10.9883 10.6764 L -10.9734 10.6298 L -10.9584 10.5832 L -10.9434 10.5366 L -10.9284 10.49 L -10.9134 10.4433 L -10.8983 10.3966 L -10.8832 10.3499 L -10.8681 10.3032 L -10.853 10.2564 L -10.8378 10.2096 L -10.8226 10.1628 L -10.8074 10.116 L -10.7921 10.0691 L -10.7769 10.0222 L -10.7616 9.97529 L -10.7462 9.92834 L -10.7309 9.88137 L -10.7155 9.83437 L -10.7 9.78735 L -10.6846 9.74029 L -10.6846 9.74029 L -10.7329 9.75134 L -10.7811 9.76236 L -10.8293 9.77335 L -10.8775 9.78431 L -10.9257 9.79525 L -10.9738 9.80616 L -11.0219 9.81705 L -11.07 9.82791 L -11.118 9.83875 L -11.1661 9.84956 L -11.214 9.86034 L -11.262 9.8711 L -11.3099 9.88184 L -11.3578 9.89255 L -11.4057 9.90324 L -11.4536 9.9139 L -11.5014 9.92455 L -11.5492 9.93516 L -11.597 9.94576 L -11.6447 9.95633 L -11.6924 9.96688 L -11.7401 9.97741 L -11.7878 9.98792 L -11.8354 9.9984 L -11.883 10.0089 L -11.9306 10.0193 L -11.9782 10.0297 L -12.0257 10.0401 L -12.0732 10.0505 L -12.1207 10.0609 L -12.1682 10.0712 L -12.2156 10.0815 L -12.263 10.0918 L -12.3104 10.1021 L -12.3578 10.1124 L -12.4052 10.1226 L -12.4525 10.1328 L -12.4998 10.143 L -12.5471 10.1532 L -12.5943 10.1634 L -12.6415 10.1735 L -12.6887 10.1836 L -12.7359 10.1937 L -12.7831 10.2038 L -12.8302 10.2139 L -12.8773 10.224 L -12.9244 10.234 L -12.9715 10.244 L -13.0186 10.254 L -13.0656 10.264 L -13.1126 10.274 L -13.1596 10.284 L -13.2066 10.2939 L -13.2535 10.3038 L -13.3004 10.3137 L -13.3474 10.3236 L -13.3942 10.3335 L -13.4411 10.3433 L -13.4879 10.3532 L -13.5348 10.363 L -13.5816 10.3728 L -13.6284 10.3826 L -13.6751 10.3924 L -13.7219 10.4022 L -13.7686 10.4119 L -13.8153 10.4217 L -13.862 10.4314 L -13.9087 10.4411 L -13.9553 10.4508 L -14.002 10.4605 L -14.0486 10.4701 L -14.0952 10.4798 L -14.1417 10.4894 L -14.1883 10.4991 L -14.2348 10.5087 L -14.2814 10.5183 L -14.3279 10.5279 L -14.3744 10.5374 L -14.4208 10.547 L -14.4673 10.5566 L -14.5137 10.5661 L -14.5601 10.5756 L -14.6065 10.5851 L -14.6529 10.5946 L -14.6951 10.6099 L -14.7203 10.5749 L -14.7454 10.5398 L -14.7705 10.5047 L -14.7954 10.4695 L -14.8203 10.4343 L -14.8451 10.399 L -14.8698 10.3636 L -14.8944 10.3282 L -14.919 10.2927 L -14.9434 10.2572 L -14.9678 10.2216 L -14.9921 10.1859 L -15.0163 10.1502 L -15.0404 10.1144 L -15.0644 10.0786 L -15.0884 10.0427 L -15.1123 10.0068 L -15.136 9.97077 L -15.1597 9.93472 L -15.1833 9.8986 L -15.2068 9.86244 L -15.2303 9.82621 L -15.2536 9.78993 L -15.2769 9.7536 L -15.3 9.71721 L -15.3231 9.68077 L -15.3461 9.64427 L -15.369 9.60771 L -15.451 9.47528 L -15.4736 9.43847 L -15.496 9.40162 L -15.5183 9.36471 L -15.5406 9.32774 L -15.5627 9.29073 L -15.5848 9.25366 L -15.6068 9.21654 L -15.6287 9.17937 L -15.6505 9.14214 L -15.6722 9.10486 L -15.6938 9.06753 L -15.7153 9.03015 L -15.7368 8.99272 L -15.7582 8.95524 L -15.7794 8.91771 L -15.8006 8.88012 L -15.8217 8.84249 L -15.8427 8.80481 L -15.8636 8.76707 L -15.8844 8.72929 L -15.9052 8.69146 L -15.9258 8.65357 L -15.9464 8.61564 L -15.9668 8.57766 L -15.9872 8.53963 L -16.0075 8.50156 L -16.0277 8.46343 L -16.0478 8.42526 L -16.0153 8.39432 L -15.9861 8.35703 L -15.9569 8.31974 L -15.9277 8.28243 L -15.8985 8.24511 L -15.8692 8.20779 L -15.8399 8.17045 L -15.8106 8.13311 L -15.7813 8.09575 L -15.752 8.05838 L -15.7226 8.02101 L -15.6933 7.98362 L -15.6639 7.94622 L -15.6345 7.90882 L -15.605 7.8714 L -15.5756 7.83397 L -15.5461 7.79653 L -15.5166 7.75908 L -15.4871 7.72162 L -15.4576 7.68415 L -15.428 7.64667 L -15.3984 7.60918 L -15.3688 7.57168 L -15.3392 7.53416 L -15.3096 7.49664 L -15.2799 7.4591 L -15.2502 7.42156 L -15.2205 7.384 L -15.1907 7.34643 L -15.161 7.30885 L -15.1312 7.27126 L -15.1014 7.23366 L -15.0716 7.19604 L -15.0417 7.15842 L -15.0118 7.12078 L -14.9819 7.08313 L -14.952 7.04547 L -14.922 7.0078 L -14.892 6.97011 L -14.862 6.93242 L -14.832 6.89471 L -14.802 6.85699 L -14.7719 6.81926 L -14.7418 6.78151 L -14.7116 6.74376 L -14.6815 6.70599 L -14.6513 6.66821 L -14.6211 6.63042 L -14.5908 6.59261 L -14.5606 6.55479 L -14.5303 6.51696 L -14.4999 6.47912 L -14.4696 6.44126 L -14.4392 6.4034 L -14.4088 6.36552 L -14.3783 6.32762 L -14.3479 6.28972 L -14.3174 6.2518 L -14.2868 6.21386 L -14.2563 6.17592 L -14.2257 6.13796 L -14.1951 6.09999 L -14.1644 6.062 L -14.1337 6.024 L -14.103 5.98599 L -14.0723 5.94797 L -14.0415 5.90993 L -14.0107 5.87187 L -13.9799 5.83381 L -13.949 5.79573 L -13.9181 5.75763 L -13.8871 5.71953 L -13.8562 5.6814 L -13.8251 5.64327 L -13.7941 5.60512 L -13.763 5.56696 L -13.7319 5.52878 L -13.7008 5.49058 L -13.6696 5.45238 L -13.6383 5.41416 L -13.6071 5.37592 L -13.5758 5.33767 L -13.5445 5.29941 L -13.5131 5.26113 L -13.4817 5.22283 L -13.4817 5.22283 L -13.5307 5.21569 L -13.5797 5.20854 L -13.6286 5.20137 L -13.6775 5.19418 L -13.7264 5.18699 L -13.7752 5.17977 L -13.824 5.17255 L -13.8727 5.16531 L -13.9214 5.15806 L -13.9701 5.15079 L -14.0188 5.14351 L -14.0674 5.13622 L -14.1159 5.12892 L -14.1645 5.1216 L -14.213 5.11427 L -14.2615 5.10693 L -14.3099 5.09958 L -14.3583 5.09222 L -14.4067 5.08484 L -14.455 5.07745 L -14.5033 5.07005 L -14.5516 5.06264 L -14.5998 5.05522 L -14.648 5.04779 L -14.6962 5.04034 L -14.7444 5.03289 L -14.7925 5.02542 L -14.8406 5.01795 L -14.8886 5.01046 L -14.9366 5.00296 L -14.9846 4.99546 L -15.0326 4.98794 L -15.0805 4.98042 L -15.1284 4.97288 L -15.1763 4.96533 L -15.2242 4.95778 L -15.272 4.95021 L -15.3198 4.94264 L -15.3675 4.93506 L -15.4153 4.92747 L -15.463 4.91987 L -15.5107 4.91226 L -15.5583 4.90464 L -15.6059 4.89701 L -15.6535 4.88938 L -15.7011 4.88173 L -15.7486 4.87408 L -15.7962 4.86642 L -15.8436 4.85875 L -15.8911 4.85108 L -15.9385 4.84339 L -15.986 4.8357 L -16.0333 4.828 L -16.0807 4.8203 L -16.128 4.81258 L -16.1754 4.80486 L -16.2226 4.79713 L -16.2699 4.78939 L -16.3171 4.78165 L -16.3644 4.7739 L -16.4115 4.76614 L -16.4587 4.75838 L -16.5059 4.7506 L -16.553 4.74283 L -16.6001 4.73504 L -16.6471 4.72725 L -16.6942 4.71945 L -16.7412 4.71164 L -16.7882 4.70383 L -16.8352 4.69602 L -16.8822 4.68819 L -16.9291 4.68036 L -16.976 4.67253 L -17.0229 4.66468 L -17.0698 4.65684 L -17.1166 4.64898 L -17.1634 4.64112 L -17.2102 4.63326 L -17.257 4.62539 L -17.3038 4.61751 L -17.3505 4.60963 L -17.3973 4.60174 L -17.444 4.59384 L -17.4906 4.58595 L -17.5355 4.58496 L -17.5464 4.54321 L -17.5571 4.50144 L -17.5678 4.45963 L -17.5784 4.41781 L -17.5888 4.37595 L -17.5992 4.33408 L -17.6095 4.29218 L -17.6196 4.25025 L -17.6297 4.2083 L -17.6397 4.16632 L -17.6495 4.12433 L -17.6593 4.08231 L -17.669 4.04026 L -17.6785 3.99819 L -17.688 3.9561 L -17.6974 3.91399 L -17.7066 3.87186 L -17.7158 3.8297 L -17.7248 3.78752 L -17.7338 3.74532 L -17.7427 3.7031 L -17.7514 3.66086 L -17.7601 3.6186 L -17.7687 3.57632 L -17.7771 3.53401 L -17.7855 3.49169 L -17.7938 3.44935 L -17.8019 3.40699 L -17.8305 3.25387 L -17.8382 3.21142 L -17.8458 3.16896 L -17.8533 3.12647 L -17.8607 3.08397 L -17.868 3.04145 L -17.8752 2.99891 L -17.8823 2.95635 L -17.8893 2.91378 L -17.8961 2.87119 L -17.9029 2.82859 L -17.9096 2.78597 L -17.9162 2.74333 L -17.9227 2.70068 L -17.929 2.65801 L -17.9353 2.61533 L -17.9415 2.57263 L -17.9476 2.52992 L -17.9535 2.4872 L -17.9594 2.44446 L -17.9652 2.4017 L -17.9708 2.35893 L -17.9764 2.31615 L -17.9819 2.27336 L -17.9872 2.23055 L -17.9925 2.18773 L -17.9976 2.1449 L -18.0027 2.10206 L -18.0076 2.0592 L -17.9662 2.04208 L -17.9255 2.01785 L -17.8848 1.99362 L -17.8441 1.96939 L -17.8033 1.94515 L -17.7626 1.92092 L -17.7218 1.89668 L -17.681 1.87243 L -17.6402 1.84819 L -17.5993 1.82394 L -17.5585 1.79969 L -17.5176 1.77544 L -17.4766 1.75118 L -17.4357 1.72693 L -17.3947 1.70267 L -17.3538 1.67841 L -17.3128 1.65415 L -17.2717 1.62988 L -17.2307 1.60561 L -17.1896 1.58134 L -17.1485 1.55707 L -17.1074 1.5328 L -17.0662 1.50852 L -17.025 1.48424 L -16.9838 1.45996 L -16.9426 1.43568 L -16.9014 1.41139 L -16.8601 1.3871 L -16.8188 1.36281 L -16.7775 1.33852 L -16.7361 1.31423 L -16.6947 1.28993 L -16.6533 1.26564 L -16.6119 1.24134 L -16.5704 1.21703 L -16.5289 1.19273 L -16.4874 1.16842 L -16.4459 1.14412 L -16.4043 1.11981 L -16.3627 1.0955 L -16.3211 1.07118 L -16.2794 1.04687 L -16.2378 1.02255 L -16.1961 0.998231 L -16.1543 0.973911 L -16.1125 0.949588 L -16.0708 0.925264 L -16.0289 0.900939 L -15.9871 0.876611 L -15.9452 0.852282 L -15.9033 0.827951 L -15.8613 0.803619 L -15.8193 0.779285 L -15.7773 0.754949 L -15.7353 0.730613 L -15.6932 0.706274 L -15.6511 0.681934 L -15.609 0.657593 L -15.5668 0.63325 L -15.5246 0.608906 L -15.4824 0.584561 L -15.4401 0.560214 L -15.3978 0.535867 L -15.3554 0.511518 L -15.3131 0.487168 L -15.2707 0.462817 L -15.2282 0.438464 L -15.1858 0.414111 L -15.1432 0.389757 L -15.1007 0.365402 L -15.0581 0.341046 L -15.0155 0.316689 L -14.9728 0.292331 L -14.9301 0.267973 L -14.8874 0.243614 L -14.8447 0.219254 L -14.8018 0.194894 L -14.759 0.170534 L -14.7161 0.146173 L -14.6732 0.121811 L -14.6302 0.0974492 L -14.5872 0.0730872 L -14.5442 0.0487249 L -14.5011 0.0243625 L -14.458 4.44089e-16 L -14.458 3.0971e-15 L -14.5011 -0.0243625 L -14.5442 -0.0487249 L -14.5872 -0.0730872 L -14.6302 -0.0974492 L -14.6732 -0.121811 L -14.7161 -0.146173 L -14.759 -0.170534 L -14.8018 -0.194894 L -14.8447 -0.219254 L -14.8874 -0.243614 L -14.9301 -0.267973 L -14.9728 -0.292331 L -15.0155 -0.316689 L -15.0581 -0.341046 L -15.1007 -0.365402 L -15.1432 -0.389757 L -15.1858 -0.414111 L -15.2282 -0.438464 L -15.2707 -0.462817 L -15.3131 -0.487168 L -15.3554 -0.511518 L -15.3978 -0.535867 L -15.4401 -0.560214 L -15.4824 -0.584561 L -15.5246 -0.608906 L -15.5668 -0.63325 L -15.609 -0.657593 L -15.6511 -0.681934 L -15.6932 -0.706274 L -15.7353 -0.730613 L -15.7773 -0.754949 L -15.8193 -0.779285 L -15.8613 -0.803619 L -15.9033 -0.827951 L -15.9452 -0.852282 L -15.9871 -0.876611 L -16.0289 -0.900939 L -16.0708 -0.925264 L -16.1125 -0.949588 L -16.1543 -0.973911 L -16.1961 -0.998231 L -16.2378 -1.02255 L -16.2794 -1.04687 L -16.3211 -1.07118 L -16.3627 -1.0955 L -16.4043 -1.11981 L -16.4459 -1.14412 L -16.4874 -1.16842 L -16.5289 -1.19273 L -16.5704 -1.21703 L -16.6119 -1.24134 L -16.6533 -1.26564 L -16.6947 -1.28993 L -16.7361 -1.31423 L -16.7775 -1.33852 L -16.8188 -1.36281 L -16.8601 -1.3871 L -16.9014 -1.41139 L -16.9426 -1.43568 L -16.9838 -1.45996 L -17.025 -1.48424 L -17.0662 -1.50852 L -17.1074 -1.5328 L -17.1485 -1.55707 L -17.1896 -1.58134 L -17.2307 -1.60561 L -17.2717 -1.62988 L -17.3128 -1.65415 L -17.3538 -1.67841 L -17.3947 -1.70267 L -17.4357 -1.72693 L -17.4766 -1.75118 L -17.5176 -1.77544 L -17.5585 -1.79969 L -17.5993 -1.82394 L -17.6402 -1.84819 L -17.681 -1.87243 L -17.7218 -1.89668 L -17.7626 -1.92092 L -17.8033 -1.94515 L -17.8441 -1.96939 L -17.8848 -1.99362 L -17.9255 -2.01785 L -17.9662 -2.04208 L -18.0076 -2.0592 L -18.0027 -2.10206 L -17.9976 -2.1449 L -17.9925 -2.18773 L -17.9872 -2.23055 L -17.9819 -2.27336 L -17.9764 -2.31615 L -17.9708 -2.35893 L -17.9652 -2.4017 L -17.9594 -2.44446 L -17.9535 -2.4872 L -17.9476 -2.52992 L -17.9415 -2.57263 L -17.9353 -2.61533 L -17.929 -2.65801 L -17.9227 -2.70068 L -17.9162 -2.74333 L -17.9096 -2.78597 L -17.9029 -2.82859 L -17.8961 -2.87119 L -17.8893 -2.91378 L -17.8823 -2.95635 L -17.8752 -2.99891 L -17.868 -3.04145 L -17.8607 -3.08397 L -17.8533 -3.12647 L -17.8458 -3.16896 L -17.8382 -3.21142 L -17.8305 -3.25387 L -17.8019 -3.40699 L -17.7938 -3.44935 L -17.7855 -3.49169 L -17.7771 -3.53401 L -17.7687 -3.57632 L -17.7601 -3.6186 L -17.7514 -3.66086 L -17.7427 -3.7031 L -17.7338 -3.74532 L -17.7248 -3.78752 L -17.7158 -3.8297 L -17.7066 -3.87186 L -17.6974 -3.91399 L -17.688 -3.9561 L -17.6785 -3.99819 L -17.669 -4.04026 L -17.6593 -4.08231 L -17.6495 -4.12433 L -17.6397 -4.16632 L -17.6297 -4.2083 L -17.6196 -4.25025 L -17.6095 -4.29218 L -17.5992 -4.33408 L -17.5888 -4.37595 L -17.5784 -4.41781 L -17.5678 -4.45963 L -17.5571 -4.50144 L -17.5464 -4.54321 L -17.5355 -4.58496 L -17.4906 -4.58595 L -17.444 -4.59384 L -17.3973 -4.60174 L -17.3505 -4.60963 L -17.3038 -4.61751 L -17.257 -4.62539 L -17.2102 -4.63326 L -17.1634 -4.64112 L -17.1166 -4.64898 L -17.0698 -4.65684 L -17.0229 -4.66468 L -16.976 -4.67253 L -16.9291 -4.68036 L -16.8822 -4.68819 L -16.8352 -4.69602 L -16.7882 -4.70383 L -16.7412 -4.71164 L -16.6942 -4.71945 L -16.6471 -4.72725 L -16.6001 -4.73504 L -16.553 -4.74283 L -16.5059 -4.7506 L -16.4587 -4.75838 L -16.4115 -4.76614 L -16.3644 -4.7739 L -16.3171 -4.78165 L -16.2699 -4.78939 L -16.2226 -4.79713 L -16.1754 -4.80486 L -16.128 -4.81258 L -16.0807 -4.8203 L -16.0333 -4.828 L -15.986 -4.8357 L -15.9385 -4.84339 L -15.8911 -4.85108 L -15.8436 -4.85875 L -15.7962 -4.86642 L -15.7486 -4.87408 L -15.7011 -4.88173 L -15.6535 -4.88938 L -15.6059 -4.89701 L -15.5583 -4.90464 L -15.5107 -4.91226 L -15.463 -4.91987 L -15.4153 -4.92747 L -15.3675 -4.93506 L -15.3198 -4.94264 L -15.272 -4.95021 L -15.2242 -4.95778 L -15.1763 -4.96533 L -15.1284 -4.97288 L -15.0805 -4.98042 L -15.0326 -4.98794 L -14.9846 -4.99546 L -14.9366 -5.00296 L -14.8886 -5.01046 L -14.8406 -5.01795 L -14.7925 -5.02542 L -14.7444 -5.03289 L -14.6962 -5.04034 L -14.648 -5.04779 L -14.5998 -5.05522 L -14.5516 -5.06264 L -14.5033 -5.07005 L -14.455 -5.07745 L -14.4067 -5.08484 L -14.3583 -5.09222 L -14.3099 -5.09958 L -14.2615 -5.10693 L -14.213 -5.11427 L -14.1645 -5.1216 L -14.1159 -5.12892 L -14.0674 -5.13622 L -14.0188 -5.14351 L -13.9701 -5.15079 L -13.9214 -5.15806 L -13.8727 -5.16531 L -13.824 -5.17255 L -13.7752 -5.17977 L -13.7264 -5.18699 L -13.6775 -5.19418 L -13.6286 -5.20137 L -13.5797 -5.20854 L -13.5307 -5.21569 L -13.4817 -5.22283 L -13.4817 -5.22283 L -13.5131 -5.26113 L -13.5445 -5.29941 L -13.5758 -5.33767 L -13.6071 -5.37592 L -13.6383 -5.41416 L -13.6696 -5.45238 L -13.7008 -5.49058 L -13.7319 -5.52878 L -13.763 -5.56696 L -13.7941 -5.60512 L -13.8251 -5.64327 L -13.8562 -5.6814 L -13.8871 -5.71953 L -13.9181 -5.75763 L -13.949 -5.79573 L -13.9799 -5.83381 L -14.0107 -5.87187 L -14.0415 -5.90993 L -14.0723 -5.94797 L -14.103 -5.98599 L -14.1337 -6.024 L -14.1644 -6.062 L -14.1951 -6.09999 L -14.2257 -6.13796 L -14.2563 -6.17592 L -14.2868 -6.21386 L -14.3174 -6.2518 L -14.3479 -6.28972 L -14.3783 -6.32762 L -14.4088 -6.36552 L -14.4392 -6.4034 L -14.4696 -6.44126 L -14.4999 -6.47912 L -14.5303 -6.51696 L -14.5606 -6.55479 L -14.5908 -6.59261 L -14.6211 -6.63042 L -14.6513 -6.66821 L -14.6815 -6.70599 L -14.7116 -6.74376 L -14.7418 -6.78151 L -14.7719 -6.81926 L -14.802 -6.85699 L -14.832 -6.89471 L -14.862 -6.93242 L -14.892 -6.97011 L -14.922 -7.0078 L -14.952 -7.04547 L -14.9819 -7.08313 L -15.0118 -7.12078 L -15.0417 -7.15842 L -15.0716 -7.19604 L -15.1014 -7.23366 L -15.1312 -7.27126 L -15.161 -7.30885 L -15.1907 -7.34643 L -15.2205 -7.384 L -15.2502 -7.42156 L -15.2799 -7.4591 L -15.3096 -7.49664 L -15.3392 -7.53416 L -15.3688 -7.57168 L -15.3984 -7.60918 L -15.428 -7.64667 L -15.4576 -7.68415 L -15.4871 -7.72162 L -15.5166 -7.75908 L -15.5461 -7.79653 L -15.5756 -7.83397 L -15.605 -7.8714 L -15.6345 -7.90882 L -15.6639 -7.94622 L -15.6933 -7.98362 L -15.7226 -8.02101 L -15.752 -8.05838 L -15.7813 -8.09575 L -15.8106 -8.13311 L -15.8399 -8.17045 L -15.8692 -8.20779 L -15.8985 -8.24511 L -15.9277 -8.28243 L -15.9569 -8.31974 L -15.9861 -8.35703 L -16.0153 -8.39432 L -16.0478 -8.42526 L -16.0277 -8.46343 L -16.0075 -8.50156 L -15.9872 -8.53963 L -15.9668 -8.57766 L -15.9464 -8.61564 L -15.9258 -8.65357 L -15.9052 -8.69146 L -15.8844 -8.72929 L -15.8636 -8.76707 L -15.8427 -8.80481 L -15.8217 -8.84249 L -15.8006 -8.88012 L -15.7794 -8.91771 L -15.7582 -8.95524 L -15.7368 -8.99272 L -15.7153 -9.03015 L -15.6938 -9.06753 L -15.6722 -9.10486 L -15.6505 -9.14214 L -15.6287 -9.17937 L -15.6068 -9.21654 L -15.5848 -9.25366 L -15.5627 -9.29073 L -15.5406 -9.32774 L -15.5183 -9.36471 L -15.496 -9.40162 L -15.4736 -9.43847 L -15.451 -9.47528 L -15.369 -9.60771 L -15.3461 -9.64427 L -15.3231 -9.68077 L -15.3 -9.71721 L -15.2769 -9.7536 L -15.2536 -9.78993 L -15.2303 -9.82621 L -15.2068 -9.86244 L -15.1833 -9.8986 L -15.1597 -9.93472 L -15.136 -9.97077 L -15.1123 -10.0068 L -15.0884 -10.0427 L -15.0644 -10.0786 L -15.0404 -10.1144 L -15.0163 -10.1502 L -14.9921 -10.1859 L -14.9678 -10.2216 L -14.9434 -10.2572 L -14.919 -10.2927 L -14.8944 -10.3282 L -14.8698 -10.3636 L -14.8451 -10.399 L -14.8203 -10.4343 L -14.7954 -10.4695 L -14.7705 -10.5047 L -14.7454 -10.5398 L -14.7203 -10.5749 L -14.6951 -10.6099 L -14.6529 -10.5946 L -14.6065 -10.5851 L -14.5601 -10.5756 L -14.5137 -10.5661 L -14.4673 -10.5566 L -14.4208 -10.547 L -14.3744 -10.5374 L -14.3279 -10.5279 L -14.2814 -10.5183 L -14.2348 -10.5087 L -14.1883 -10.4991 L -14.1417 -10.4894 L -14.0952 -10.4798 L -14.0486 -10.4701 L -14.002 -10.4605 L -13.9553 -10.4508 L -13.9087 -10.4411 L -13.862 -10.4314 L -13.8153 -10.4217 L -13.7686 -10.4119 L -13.7219 -10.4022 L -13.6751 -10.3924 L -13.6284 -10.3826 L -13.5816 -10.3728 L -13.5348 -10.363 L -13.4879 -10.3532 L -13.4411 -10.3433 L -13.3942 -10.3335 L -13.3474 -10.3236 L -13.3004 -10.3137 L -13.2535 -10.3038 L -13.2066 -10.2939 L -13.1596 -10.284 L -13.1126 -10.274 L -13.0656 -10.264 L -13.0186 -10.254 L -12.9715 -10.244 L -12.9244 -10.234 L -12.8773 -10.224 L -12.8302 -10.2139 L -12.7831 -10.2038 L -12.7359 -10.1937 L -12.6887 -10.1836 L -12.6415 -10.1735 L -12.5943 -10.1634 L -12.5471 -10.1532 L -12.4998 -10.143 L -12.4525 -10.1328 L -12.4052 -10.1226 L -12.3578 -10.1124 L -12.3104 -10.1021 L -12.263 -10.0918 L -12.2156 -10.0815 L -12.1682 -10.0712 L -12.1207 -10.0609 L -12.0732 -10.0505 L -12.0257 -10.0401 L -11.9782 -10.0297 L -11.9306 -10.0193 L -11.883 -10.0089 L -11.8354 -9.9984 L -11.7878 -9.98792 L -11.7401 -9.97741 L -11.6924 -9.96688 L -11.6447 -9.95633 L -11.597 -9.94576 L -11.5492 -9.93516 L -11.5014 -9.92455 L -11.4536 -9.9139 L -11.4057 -9.90324 L -11.3578 -9.89255 L -11.3099 -9.88184 L -11.262 -9.8711 L -11.214 -9.86034 L -11.1661 -9.84956 L -11.118 -9.83875 L -11.07 -9.82791 L -11.0219 -9.81705 L -10.9738 -9.80616 L -10.9257 -9.79525 L -10.8775 -9.78431 L -10.8293 -9.77335 L -10.7811 -9.76236 L -10.7329 -9.75134 L -10.6846 -9.74029 L -10.6846 -9.74029 L -10.7 -9.78735 L -10.7155 -9.83437 L -10.7309 -9.88137 L -10.7462 -9.92834 L -10.7616 -9.97529 L -10.7769 -10.0222 L -10.7921 -10.0691 L -10.8074 -10.116 L -10.8226 -10.1628 L -10.8378 -10.2096 L -10.853 -10.2564 L -10.8681 -10.3032 L -10.8832 -10.3499 L -10.8983 -10.3966 L -10.9134 -10.4433 L -10.9284 -10.49 L -10.9434 -10.5366 L -10.9584 -10.5832 L -10.9734 -10.6298 L -10.9883 -10.6764 L -11.0032 -10.7229 L -11.0181 -10.7694 L -11.0329 -10.8159 L -11.0478 -10.8624 L -11.0626 -10.9088 L -11.0774 -10.9553 L -11.0921 -11.0017 L -11.1069 -11.048 L -11.1216 -11.0944 L -11.1363 -11.1407 L -11.151 -11.187 L -11.1656 -11.2333 L -11.1803 -11.2796 L -11.1949 -11.3258 L -11.2095 -11.372 L -11.224 -11.4182 L -11.2386 -11.4644 L -11.2531 -11.5106 L -11.2676 -11.5567 L -11.2821 -11.6028 L -11.2965 -11.6489 L -11.311 -11.695 L -11.3254 -11.741 L -11.3398 -11.7871 L -11.3542 -11.8331 L -11.3685 -11.8791 L -11.3829 -11.925 L -11.3972 -11.971 L -11.4115 -12.0169 L -11.4258 -12.0628 L -11.44 -12.1087 L -11.4543 -12.1546 L -11.4685 -12.2004 L -11.4827 -12.2463 L -11.4969 -12.2921 L -11.5111 -12.3379 L -11.5253 -12.3836 L -11.5394 -12.4294 L -11.5535 -12.4751 L -11.5676 -12.5209 L -11.5817 -12.5666 L -11.5958 -12.6122 L -11.6099 -12.6579 L -11.6239 -12.7036 L -11.6379 -12.7492 L -11.6519 -12.7948 L -11.6659 -12.8404 L -11.6799 -12.886 L -11.6939 -12.9315 L -11.7078 -12.9771 L -11.7217 -13.0226 L -11.7356 -13.0681 L -11.7495 -13.1136 L -11.7634 -13.159 L -11.7773 -13.2045 L -11.7911 -13.2499 L -11.805 -13.2954 L -11.8188 -13.3408 L -11.8326 -13.3862 L -11.8464 -13.4315 L -11.8602 -13.4769 L -11.8739 -13.5222 L -11.8877 -13.5675 L -11.9014 -13.6129 L -11.9205 -13.6534 L -11.888 -13.6818 L -11.8554 -13.71 L -11.8227 -13.7382 L -11.79 -13.7663 L -11.7572 -13.7943 L -11.7243 -13.8223 L -11.6914 -13.8501 L -11.6584 -13.8779 L -11.6253 -13.9056 L -11.5922 -13.9333 L -11.559 -13.9608 L -11.5258 -13.9883 L -11.4924 -14.0157 L -11.459 -14.043 L -11.4256 -14.0702 L -11.3921 -14.0974 L -11.3585 -14.1245 L -11.3248 -14.1515 L -11.2911 -14.1784 L -11.2573 -14.2052 L -11.2235 -14.232 L -11.1896 -14.2587 L -11.1556 -14.2852 L -11.1216 -14.3118 L -11.0875 -14.3382 L -11.0533 -14.3645 L -11.0191 -14.3908 L -10.9848 -14.417 L -10.8605 -14.5109 L -10.8259 -14.5367 L -10.7913 -14.5624 L -10.7566 -14.588 L -10.7219 -14.6136 L -10.687 -14.6391 L -10.6522 -14.6645 L -10.6172 -14.6898 L -10.5822 -14.715 L -10.5472 -14.7402 L -10.5121 -14.7652 L -10.4769 -14.7902 L -10.4417 -14.8151 L -10.4064 -14.8399 L -10.371 -14.8646 L -10.3356 -14.8893 L -10.3001 -14.9138 L -10.2646 -14.9383 L -10.229 -14.9627 L -10.1934 -14.987 L -10.1577 -15.0112 L -10.1219 -15.0354 L -10.0861 -15.0594 L -10.0502 -15.0834 L -10.0143 -15.1073 L -9.97832 -15.1311 L -9.94227 -15.1548 L -9.90618 -15.1784 L -9.87002 -15.2019 L -9.83621 -15.1724 L -9.79639 -15.1468 L -9.75656 -15.1212 L -9.71672 -15.0955 L -9.67687 -15.0699 L -9.637 -15.0442 L -9.59712 -15.0185 L -9.55723 -14.9928 L -9.51733 -14.967 L -9.47742 -14.9413 L -9.4375 -14.9155 L -9.39756 -14.8897 L -9.35761 -14.8639 L -9.31765 -14.838 L -9.27767 -14.8122 L -9.23769 -14.7863 L -9.19769 -14.7604 L -9.15768 -14.7345 L -9.11766 -14.7086 L -9.07762 -14.6826 L -9.03757 -14.6567 L -8.99751 -14.6307 L -8.95744 -14.6046 L -8.91735 -14.5786 L -8.87725 -14.5525 L -8.83714 -14.5265 L -8.79701 -14.5004 L -8.75687 -14.4742 L -8.71672 -14.4481 L -8.67655 -14.4219 L -8.63637 -14.3957 L -8.59618 -14.3695 L -8.55597 -14.3433 L -8.51575 -14.317 L -8.47552 -14.2908 L -8.43527 -14.2645 L -8.39501 -14.2381 L -8.35473 -14.2118 L -8.31444 -14.1854 L -8.27414 -14.159 L -8.23382 -14.1326 L -8.19349 -14.1061 L -8.15314 -14.0797 L -8.11278 -14.0532 L -8.07241 -14.0266 L -8.03202 -14.0001 L -7.99161 -13.9735 L -7.95119 -13.9469 L -7.91076 -13.9203 L -7.87031 -13.8936 L -7.82985 -13.867 L -7.78937 -13.8403 L -7.74887 -13.8135 L -7.70836 -13.7868 L -7.66784 -13.76 L -7.6273 -13.7332 L -7.58674 -13.7063 L -7.54617 -13.6795 L -7.50558 -13.6526 L -7.46498 -13.6256 L -7.42436 -13.5987 L -7.38372 -13.5717 L -7.34307 -13.5447 L -7.3024 -13.5176 L -7.26172 -13.4906 L -7.22102 -13.4634 L -7.1803 -13.4363 L -7.13957 -13.4091 L -7.09882 -13.3819 L -7.05805 -13.3547 L -7.01727 -13.3275 L -6.97647 -13.3002 L -6.93565 -13.2728 L -6.89482 -13.2455 L -6.85397 -13.2181 L -6.8131 -13.1907 L -6.77221 -13.1632 L -6.73131 -13.1357 L -6.69039 -13.1082 L -6.64945 -13.0806 L -6.60849 -13.053 L -6.56752 -13.0254 L -6.52652 -12.9977 L -6.48551 -12.97 L -6.44449 -12.9423 L -6.44449 -12.9423 L -6.4419 -12.9917 L -6.43929 -13.0412 L -6.43667 -13.0905 L -6.43403 -13.1399 L -6.43137 -13.1892 L -6.42869 -13.2385 L -6.426 -13.2877 L -6.42329 -13.3369 L -6.42056 -13.3861 L -6.41782 -13.4353 L -6.41506 -13.4844 L -6.41229 -13.5334 L -6.40949 -13.5825 L -6.40669 -13.6315 L -6.40387 -13.6805 L -6.40103 -13.7294 L -6.39818 -13.7783 L -6.39531 -13.8272 L -6.39243 -13.876 L -6.38953 -13.9249 L -6.38662 -13.9736 L -6.38369 -14.0224 L -6.38076 -14.0711 L -6.3778 -14.1198 L -6.37484 -14.1685 L -6.37186 -14.2171 L -6.36886 -14.2657 L -6.36585 -14.3143 L -6.36283 -14.3628 L -6.3598 -14.4113 L -6.35676 -14.4598 L -6.3537 -14.5082 L -6.35063 -14.5567 L -6.34754 -14.6051 L -6.34445 -14.6534 L -6.34134 -14.7018 L -6.33822 -14.7501 L -6.33509 -14.7984 L -6.33194 -14.8466 L -6.32879 -14.8949 L -6.32562 -14.9431 L -6.32245 -14.9912 L -6.31926 -15.0394 L -6.31606 -15.0875 L -6.31285 -15.1356 L -6.30962 -15.1837 L -6.30639 -15.2317 L -6.30315 -15.2798 L -6.29989 -15.3277 L -6.29663 -15.3757 L -6.29336 -15.4237 L -6.29007 -15.4716 L -6.28678 -15.5195 L -6.28347 -15.5673 L -6.28016 -15.6152 L -6.27684 -15.663 L -6.2735 -15.7108 L -6.27016 -15.7586 L -6.26681 -15.8063 L -6.26345 -15.8541 L -6.26007 -15.9018 L -6.2567 -15.9495 L -6.25331 -15.9971 L -6.24991 -16.0447 L -6.2465 -16.0924 L -6.24309 -16.1399 L -6.23966 -16.1875 L -6.23623 -16.2351 L -6.23279 -16.2826 L -6.22934 -16.3301 L -6.22588 -16.3776 L -6.22242 -16.425 L -6.21894 -16.4725 L -6.21546 -16.5199 L -6.21197 -16.5673 L -6.20847 -16.6146 L -6.20497 -16.662 L -6.20145 -16.7093 L -6.19793 -16.7566 L -6.1944 -16.8039 L -6.19087 -16.8512 L -6.18732 -16.8985 L -6.18377 -16.9457 L -6.18022 -16.9929 L -6.18338 -17.0376 L -6.14281 -17.0523 L -6.1022 -17.0669 L -6.06156 -17.0814 L -6.02089 -17.0957 L -5.98018 -17.11 L -5.93944 -17.1242 L -5.89866 -17.1383 L -5.85785 -17.1523 L -5.81701 -17.1662 L -5.77613 -17.18 L -5.73523 -17.1937 L -5.69428 -17.2073 L -5.65331 -17.2208 L -5.61231 -17.2342 L -5.57127 -17.2475 L -5.5302 -17.2607 L -5.4891 -17.2738 L -5.44797 -17.2869 L -5.40681 -17.2998 L -5.36562 -17.3126 L -5.32439 -17.3253 L -5.28314 -17.3379 L -5.24186 -17.3505 L -5.20055 -17.3629 L -5.15921 -17.3752 L -5.11783 -17.3874 L -5.07643 -17.3996 L -5.03501 -17.4116 L -4.88519 -17.4542 L -4.84363 -17.4658 L -4.80204 -17.4773 L -4.76043 -17.4887 L -4.71879 -17.5 L -4.67712 -17.5111 L -4.63543 -17.5222 L -4.59371 -17.5332 L -4.55196 -17.5441 L -4.51019 -17.5549 L -4.4684 -17.5656 L -4.42657 -17.5762 L -4.38473 -17.5866 L -4.34285 -17.597 L -4.30096 -17.6073 L -4.25904 -17.6175 L -4.21709 -17.6276 L -4.17512 -17.6376 L -4.13313 -17.6475 L -4.09111 -17.6572 L -4.04907 -17.6669 L -4.00701 -17.6765 L -3.96493 -17.686 L -3.92282 -17.6954 L -3.88069 -17.7047 L -3.83854 -17.7139 L -3.79636 -17.723 L -3.75417 -17.7319 L -3.71195 -17.7408 L -3.69108 -17.7011 L -3.6632 -17.6629 L -3.63532 -17.6246 L -3.60743 -17.5863 L -3.57954 -17.5479 L -3.55165 -17.5096 L -3.52375 -17.4712 L -3.49584 -17.4328 L -3.46793 -17.3944 L -3.44002 -17.356 L -3.4121 -17.3175 L -3.38418 -17.279 L -3.35626 -17.2405 L -3.32833 -17.202 L -3.30039 -17.1634 L -3.27245 -17.1249 L -3.24451 -17.0863 L -3.21656 -17.0477 L -3.18861 -17.009 L -3.16065 -16.9704 L -3.13269 -16.9317 L -3.10472 -16.893 L -3.07675 -16.8542 L -3.04878 -16.8155 L -3.0208 -16.7767 L -2.99282 -16.7379 L -2.96483 -16.699 L -2.93684 -16.6602 L -2.90884 -16.6213 L -2.88084 -16.5824 L -2.85283 -16.5434 L -2.82482 -16.5045 L -2.79681 -16.4655 L -2.76879 -16.4265 L -2.74077 -16.3874 L -2.71274 -16.3484 L -2.68471 -16.3093 L -2.65667 -16.2702 L -2.62863 -16.231 L -2.60058 -16.1918 L -2.57253 -16.1526 L -2.54448 -16.1134 L -2.51642 -16.0741 L -2.48836 -16.0349 L -2.46029 -15.9955 L -2.43222 -15.9562 L -2.40414 -15.9168 L -2.37606 -15.8774 L -2.34797 -15.838 L -2.31988 -15.7985 L -2.29179 -15.759 L -2.26369 -15.7195 L -2.23558 -15.6799 L -2.20748 -15.6404 L -2.17936 -15.6007 L -2.15125 -15.5611 L -2.12313 -15.5214 L -2.095 -15.4817 L -2.06687 -15.442 L -2.03874 -15.4022 L -2.0106 -15.3624 L -1.98246 -15.3225 L -1.95431 -15.2827 L -1.92616 -15.2427 L -1.898 -15.2028 L -1.86984 -15.1628 L -1.84168 -15.1228 L -1.81351 -15.0828 L -1.78534 -15.0427 L -1.75716 -15.0026 L -1.72898 -14.9624 L -1.70079 -14.9222 L -1.6726 -14.882 L -1.64441 -14.8417 L -1.61621 -14.8014 L -1.58801 -14.7611 L -1.5598 -14.7207 L -1.5316 -14.6803 L -1.50338 -14.6399 L -1.47516 -14.5994 L -1.44694 -14.5588 L -1.41872 -14.5183 L -1.39049 -14.4777 L -1.36225 -14.437 L -1.33402 -14.3963 L -1.33402 -14.3963 L -1.31374 -14.4415 L -1.29345 -14.4867 L -1.27317 -14.5318 L -1.25287 -14.5768 L -1.23258 -14.6218 L -1.21228 -14.6668 L -1.19198 -14.7118 L -1.17168 -14.7567 L -1.15137 -14.8016 L -1.13106 -14.8464 L -1.11075 -14.8912 L -1.09044 -14.9359 L -1.07012 -14.9807 L -1.0498 -15.0253 L -1.02947 -15.07 L -1.00915 -15.1146 L -0.98882 -15.1592 L -0.96849 -15.2037 L -0.948158 -15.2482 L -0.927823 -15.2927 L -0.907486 -15.3371 L -0.887148 -15.3815 L -0.866807 -15.4259 L -0.846464 -15.4702 L -0.82612 -15.5146 L -0.805774 -15.5588 L -0.785426 -15.6031 L -0.765076 -15.6473 L -0.744725 -15.6914 L -0.724373 -15.7356 L -0.704019 -15.7797 L -0.683663 -15.8238 L -0.663307 -15.8678 L -0.642949 -15.9118 L -0.622589 -15.9558 L -0.602229 -15.9998 L -0.581867 -16.0437 L -0.561504 -16.0876 L -0.541141 -16.1314 L -0.520776 -16.1753 L -0.50041 -16.2191 L -0.480044 -16.2628 L -0.459676 -16.3066 L -0.439308 -16.3503 L -0.418939 -16.394 L -0.398569 -16.4377 L -0.378199 -16.4813 L -0.357828 -16.5249 L -0.337456 -16.5685 L -0.317084 -16.612 L -0.296711 -16.6556 L -0.276338 -16.6991 L -0.255965 -16.7425 L -0.235591 -16.786 L -0.215216 -16.8294 L -0.194841 -16.8728 L -0.174466 -16.9161 L -0.154091 -16.9595 L -0.133716 -17.0028 L -0.11334 -17.0461 L -0.0929641 -17.0894 L -0.072588 -17.1326 L -0.0522119 -17.1758 L -0.0318357 -17.219 L -0.0114595 -17.2622 L 0.00891676 -17.3053 L 0.029293 -17.3484 L 0.0496692 -17.3915 L 0.0700453 -17.4346 L 0.0904214 -17.4776 L 0.110797 -17.5207 L 0.131173 -17.5637 L 0.151549 -17.6067 L 0.171924 -17.6496 L 0.192299 -17.6925 L 0.212674 -17.7355 L 0.233049 -17.7783 L 0.253423 -17.8212 L 0.273797 -17.8641 L 0.294171 -17.9069 L 0.314544 -17.9497 L 0.334918 -17.9925 L 0.35529 -18.0352 L 0.375662 -18.078 L 0.388881 -18.1208 L 0.432011 -18.1199 L 0.475139 -18.1188 L 0.518264 -18.1176 L 0.561386 -18.1163 L 0.604504 -18.1149 L 0.64762 -18.1134 L 0.690732 -18.1118 L 0.733839 -18.1101 L 0.776943 -18.1083 L 0.820042 -18.1064 L 0.863137 -18.1044 L 0.906227 -18.1023 L 0.949311 -18.1001 L 0.992391 -18.0978 L 1.03546 -18.0954 L 1.07853 -18.0929 L 1.12159 -18.0903 L 1.16465 -18.0875 L 1.2077 -18.0847 L 1.25074 -18.0818 L 1.29377 -18.0788 L 1.3368 -18.0756 L 1.37982 -18.0724 L 1.42283 -18.0691 L 1.46584 -18.0656 L 1.50883 -18.0621 L 1.55182 -18.0584 L 1.5948 -18.0547 L 1.7499 -18.0403 L 1.79283 -18.0361 L 1.83576 -18.0318 L 1.87867 -18.0274 L 1.92158 -18.0229 L 1.96447 -18.0182 L 2.00735 -18.0135 L 2.05022 -18.0087 L 2.09308 -18.0037 L 2.13592 -17.9987 L 2.17876 -17.9936 L 2.22158 -17.9883 L 2.26439 -17.983 L 2.30719 -17.9776 L 2.34997 -17.972 L 2.39274 -17.9664 L 2.4355 -17.9606 L 2.47824 -17.9548 L 2.52097 -17.9488 L 2.56368 -17.9428 L 2.60638 -17.9366 L 2.64907 -17.9304 L 2.69174 -17.924 L 2.7344 -17.9176 L 2.77704 -17.911 L 2.81966 -17.9043 L 2.86227 -17.8976 L 2.90486 -17.8907 L 2.94743 -17.8837 L 2.95255 -17.8392 L 2.96472 -17.7934 L 2.97689 -17.7476 L 2.98906 -17.7018 L 3.00122 -17.656 L 3.01338 -17.6102 L 3.02553 -17.5643 L 3.03768 -17.5185 L 3.04983 -17.4726 L 3.06197 -17.4266 L 3.07411 -17.3807 L 3.08625 -17.3347 L 3.09838 -17.2887 L 3.1105 -17.2427 L 3.12263 -17.1967 L 3.13475 -17.1506 L 3.14686 -17.1045 L 3.15897 -17.0584 L 3.17108 -17.0123 L 3.18318 -16.9661 L 3.19528 -16.92 L 3.20737 -16.8738 L 3.21946 -16.8275 L 3.23154 -16.7813 L 3.24362 -16.735 L 3.2557 -16.6887 L 3.26777 -16.6424 L 3.27983 -16.5961 L 3.29189 -16.5497 L 3.30394 -16.5033 L 3.31599 -16.4569 L 3.32804 -16.4104 L 3.34008 -16.3639 L 3.35211 -16.3174 L 3.36414 -16.2709 L 3.37616 -16.2244 L 3.38818 -16.1778 L 3.40019 -16.1312 L 3.4122 -16.0845 L 3.4242 -16.0379 L 3.43619 -15.9912 L 3.44818 -15.9445 L 3.46016 -15.8977 L 3.47214 -15.851 L 3.48411 -15.8042 L 3.49607 -15.7573 L 3.50803 -15.7105 L 3.51998 -15.6636 L 3.53192 -15.6167 L 3.54386 -15.5697 L 3.55579 -15.5227 L 3.56771 -15.4757 L 3.57963 -15.4287 L 3.59154 -15.3816 L 3.60344 -15.3345 L 3.61534 -15.2874 L 3.62723 -15.2403 L 3.63911 -15.1931 L 3.65098 -15.1458 L 3.66284 -15.0986 L 3.6747 -15.0513 L 3.68655 -15.004 L 3.69839 -14.9566 L 3.71023 -14.9092 L 3.72205 -14.8618 L 3.73387 -14.8144 L 3.74568 -14.7669 L 3.75748 -14.7194 L 3.76927 -14.6718 L 3.78105 -14.6242 L 3.79282 -14.5766 L 3.80459 -14.529 L 3.81634 -14.4813 L 3.82809 -14.4335 L 3.83982 -14.3858 L 3.85155 -14.338 L 3.86326 -14.2901 L 3.87497 -14.2423 L 3.88667 -14.1943 L 3.89835 -14.1464 L 3.91003 -14.0984 L 3.92169 -14.0504 L 3.93334 -14.0023 L 3.94499 -13.9542 L 3.95662 -13.9061 L 3.95662 -13.9061 L 3.99185 -13.9409 L 4.02707 -13.9757 L 4.06228 -14.0104 L 4.09748 -14.0451 L 4.13267 -14.0797 L 4.16785 -14.1143 L 4.20302 -14.1489 L 4.23817 -14.1835 L 4.27332 -14.218 L 4.30845 -14.2524 L 4.34357 -14.2869 L 4.37868 -14.3213 L 4.41379 -14.3556 L 4.44888 -14.3899 L 4.48395 -14.4242 L 4.51902 -14.4585 L 4.55408 -14.4927 L 4.58913 -14.5269 L 4.62417 -14.5611 L 4.65919 -14.5952 L 4.69421 -14.6293 L 4.72921 -14.6633 L 4.76421 -14.6974 L 4.79919 -14.7314 L 4.83417 -14.7653 L 4.86913 -14.7992 L 4.90409 -14.8331 L 4.93903 -14.867 L 4.97396 -14.9008 L 5.00889 -14.9347 L 5.0438 -14.9684 L 5.0787 -15.0022 L 5.1136 -15.0359 L 5.14848 -15.0696 L 5.18335 -15.1032 L 5.21822 -15.1369 L 5.25307 -15.1705 L 5.28791 -15.204 L 5.32275 -15.2376 L 5.35757 -15.2711 L 5.39239 -15.3046 L 5.42719 -15.3381 L 5.46199 -15.3715 L 5.49677 -15.4049 L 5.53155 -15.4383 L 5.56631 -15.4716 L 5.60107 -15.505 L 5.63582 -15.5383 L 5.67056 -15.5716 L 5.70529 -15.6048 L 5.74001 -15.638 L 5.77472 -15.6712 L 5.80942 -15.7044 L 5.84411 -15.7376 L 5.87879 -15.7707 L 5.91347 -15.8038 L 5.94813 -15.8369 L 5.98279 -15.8699 L 6.01743 -15.9029 L 6.05207 -15.936 L 6.0867 -15.9689 L 6.12132 -16.0019 L 6.15593 -16.0348 L 6.19054 -16.0677 L 6.22513 -16.1006 L 6.25972 -16.1335 L 6.29429 -16.1664 L 6.32886 -16.1992 L 6.36342 -16.232 L 6.39797 -16.2648 L 6.43251 -16.2975 L 6.46705 -16.3303 L 6.50157 -16.363 L 6.53609 -16.3957 L 6.5706 -16.4283 L 6.6051 -16.461 L 6.63959 -16.4936 L 6.67407 -16.5262 L 6.70855 -16.5588 L 6.74302 -16.5914 L 6.77748 -16.624 L 6.81193 -16.6565 L 6.84637 -16.689 L 6.88081 -16.7215 L 6.90862 -16.7567 L 6.94848 -16.7402 L 6.98831 -16.7236 L 7.02809 -16.7069 L 7.06784 -16.6902 L 7.10755 -16.6733 L 7.14721 -16.6563 L 7.18684 -16.6393 L 7.22642 -16.6221 L 7.26596 -16.6049 L 7.30547 -16.5875 L 7.34493 -16.5701 L 7.38435 -16.5526 L 7.42372 -16.5349 L 7.46306 -16.5172 L 7.50235 -16.4994 L 7.5416 -16.4815 L 7.58081 -16.4635 L 7.61998 -16.4454 L 7.6591 -16.4272 L 7.69818 -16.409 L 7.73721 -16.3906 L 7.7762 -16.3721 L 7.81515 -16.3536 L 7.85405 -16.3349 L 7.89291 -16.3162 L 7.93172 -16.2973 L 7.97049 -16.2784 L 8.00922 -16.2594 L 8.14865 -16.19 L 8.18716 -16.1705 L 8.22563 -16.151 L 8.26405 -16.1314 L 8.30242 -16.1117 L 8.34075 -16.0918 L 8.37902 -16.072 L 8.41725 -16.052 L 8.45544 -16.0319 L 8.49357 -16.0117 L 8.53166 -15.9914 L 8.5697 -15.9711 L 8.60769 -15.9507 L 8.64563 -15.9301 L 8.68352 -15.9095 L 8.72137 -15.8888 L 8.75916 -15.868 L 8.7969 -15.8471 L 8.8346 -15.8261 L 8.87224 -15.805 L 8.90984 -15.7839 L 8.94738 -15.7626 L 8.98487 -15.7413 L 9.02231 -15.7198 L 9.05971 -15.6983 L 9.09704 -15.6767 L 9.13433 -15.655 L 9.17157 -15.6332 L 9.20875 -15.6114 L 9.19742 -15.5679 L 9.19225 -15.5209 L 9.18706 -15.4738 L 9.18186 -15.4267 L 9.17665 -15.3796 L 9.17143 -15.3325 L 9.16619 -15.2853 L 9.16095 -15.2381 L 9.15569 -15.1909 L 9.15043 -15.1437 L 9.14515 -15.0965 L 9.13986 -15.0493 L 9.13456 -15.002 L 9.12924 -14.9547 L 9.12392 -14.9074 L 9.11858 -14.8601 L 9.11323 -14.8127 L 9.10787 -14.7654 L 9.10249 -14.718 L 9.09711 -14.6706 L 9.09171 -14.6231 L 9.08629 -14.5757 L 9.08087 -14.5282 L 9.07543 -14.4807 L 9.06998 -14.4332 L 9.06451 -14.3857 L 9.05903 -14.3381 L 9.05354 -14.2906 L 9.04803 -14.243 L 9.04251 -14.1953 L 9.03698 -14.1477 L 9.03143 -14.1 L 9.02587 -14.0523 L 9.02029 -14.0046 L 9.0147 -13.9569 L 9.00909 -13.9092 L 9.00347 -13.8614 L 8.99784 -13.8136 L 8.99218 -13.7658 L 8.98652 -13.7179 L 8.98084 -13.67 L 8.97514 -13.6222 L 8.96943 -13.5742 L 8.9637 -13.5263 L 8.95795 -13.4783 L 8.95219 -13.4303 L 8.94641 -13.3823 L 8.94062 -13.3343 L 8.93481 -13.2862 L 8.92898 -13.2381 L 8.92314 -13.19 L 8.91728 -13.1419 L 8.9114 -13.0937 L 8.9055 -13.0455 L 8.89959 -12.9973 L 8.89365 -12.9491 L 8.8877 -12.9008 L 8.88173 -12.8525 L 8.87575 -12.8042 L 8.86974 -12.7558 L 8.86371 -12.7075 L 8.85767 -12.6591 L 8.85161 -12.6106 L 8.84552 -12.5622 L 8.83942 -12.5137 L 8.8333 -12.4652 L 8.82716 -12.4166 L 8.82099 -12.3681 L 8.81481 -12.3195 L 8.80861 -12.2708 L 8.80238 -12.2222 L 8.79613 -12.1735 L 8.78987 -12.1248 L 8.78358 -12.076 L 8.77727 -12.0272 L 8.77093 -11.9784 L 8.76458 -11.9296 L 8.7582 -11.8807 L 8.7518 -11.8318 L 8.74537 -11.7829 L 8.73892 -11.7339 L 8.73245 -11.6849 L 8.72596 -11.6359 L 8.71944 -11.5868 L 8.71289 -11.5377 L 8.71289 -11.5377 L 8.75832 -11.5575 L 8.80372 -11.5772 L 8.8491 -11.5968 L 8.89446 -11.6165 L 8.93979 -11.6361 L 8.98509 -11.6556 L 9.03038 -11.6752 L 9.07563 -11.6947 L 9.12087 -11.7142 L 9.16608 -11.7336 L 9.21127 -11.753 L 9.25644 -11.7724 L 9.30158 -11.7918 L 9.3467 -11.8111 L 9.3918 -11.8304 L 9.43688 -11.8497 L 9.48193 -11.8689 L 9.52696 -11.8882 L 9.57197 -11.9073 L 9.61696 -11.9265 L 9.66192 -11.9457 L 9.70687 -11.9648 L 9.75179 -11.9839 L 9.79669 -12.0029 L 9.84157 -12.0219 L 9.88643 -12.041 L 9.93127 -12.0599 L 9.97609 -12.0789 L 10.0209 -12.0978 L 10.0657 -12.1167 L 10.1104 -12.1356 L 10.1552 -12.1545 L 10.1999 -12.1733 L 10.2446 -12.1921 L 10.2893 -12.2109 L 10.3339 -12.2297 L 10.3785 -12.2484 L 10.4232 -12.2671 L 10.4678 -12.2858 L 10.5123 -12.3045 L 10.5569 -12.3232 L 10.6015 -12.3418 L 10.646 -12.3604 L 10.6905 -12.379 L 10.735 -12.3976 L 10.7794 -12.4161 L 10.8239 -12.4346 L 10.8683 -12.4531 L 10.9127 -12.4716 L 10.9571 -12.4901 L 11.0015 -12.5085 L 11.0459 -12.5269 L 11.0902 -12.5453 L 11.1345 -12.5637 L 11.1788 -12.5821 L 11.2231 -12.6004 L 11.2674 -12.6187 L 11.3117 -12.637 L 11.3559 -12.6553 L 11.4001 -12.6736 L 11.4443 -12.6918 L 11.4885 -12.71 L 11.5327 -12.7283 L 11.5768 -12.7464 L 11.621 -12.7646 L 11.6651 -12.7828 L 11.7092 -12.8009 L 11.7533 -12.819 L 11.7974 -12.8371 L 11.8414 -12.8552 L 11.8855 -12.8733 L 11.9295 -12.8913 L 11.9735 -12.9094 L 12.0175 -12.9274 L 12.0615 -12.9454 L 12.1055 -12.9634 L 12.1494 -12.9814 L 12.1934 -12.9993 L 12.2373 -13.0172 L 12.2812 -13.0352 L 12.3251 -13.0531 L 12.3689 -13.071 L 12.4128 -13.0888 L 12.4567 -13.1067 L 12.4953 -13.1295 L 12.5265 -13.0997 L 12.5577 -13.0698 L 12.5887 -13.0399 L 12.6197 -13.0099 L 12.6507 -12.9798 L 12.6815 -12.9497 L 12.7123 -12.9195 L 12.743 -12.8892 L 12.7737 -12.8588 L 12.8042 -12.8284 L 12.8347 -12.7978 L 12.8652 -12.7673 L 12.8955 -12.7366 L 12.9258 -12.7059 L 12.956 -12.6751 L 12.9861 -12.6442 L 13.0162 -12.6133 L 13.0462 -12.5822 L 13.0761 -12.5511 L 13.1059 -12.52 L 13.1357 -12.4888 L 13.1654 -12.4575 L 13.195 -12.4261 L 13.2245 -12.3946 L 13.254 -12.3631 L 13.2834 -12.3316 L 13.3127 -12.2999 L 13.3419 -12.2682 L 13.4469 -12.1531 L 13.4758 -12.121 L 13.5046 -12.0889 L 13.5333 -12.0567 L 13.562 -12.0245 L 13.5906 -11.9922 L 13.6191 -11.9598 L 13.6475 -11.9273 L 13.6758 -11.8948 L 13.7041 -11.8622 L 13.7323 -11.8296 L 13.7604 -11.7969 L 13.7885 -11.7641 L 13.8164 -11.7312 L 13.8443 -11.6983 L 13.8721 -11.6653 L 13.8998 -11.6323 L 13.9275 -11.5992 L 13.9551 -11.566 L 13.9826 -11.5327 L 14.01 -11.4994 L 14.0373 -11.466 L 14.0645 -11.4326 L 14.0917 -11.3991 L 14.1188 -11.3655 L 14.1458 -11.3319 L 14.1728 -11.2982 L 14.1996 -11.2644 L 14.2264 -11.2306 L 14.2001 -11.1942 L 14.1783 -11.1522 L 14.1565 -11.1101 L 14.1346 -11.0681 L 14.1127 -11.0261 L 14.0908 -10.984 L 14.0689 -10.9419 L 14.047 -10.8998 L 14.025 -10.8577 L 14.0031 -10.8156 L 13.9811 -10.7735 L 13.9591 -10.7313 L 13.9371 -10.6892 L 13.915 -10.647 L 13.893 -10.6048 L 13.8709 -10.5626 L 13.8488 -10.5204 L 13.8267 -10.4781 L 13.8046 -10.4359 L 13.7824 -10.3936 L 13.7602 -10.3514 L 13.7381 -10.3091 L 13.7159 -10.2668 L 13.6936 -10.2245 L 13.6714 -10.1821 L 13.6491 -10.1398 L 13.6268 -10.0974 L 13.6045 -10.055 L 13.5822 -10.0126 L 13.5598 -9.97023 L 13.5375 -9.9278 L 13.5151 -9.88536 L 13.4927 -9.84291 L 13.4702 -9.80043 L 13.4478 -9.75795 L 13.4253 -9.71544 L 13.4028 -9.67293 L 13.3803 -9.63039 L 13.3577 -9.58784 L 13.3352 -9.54527 L 13.3126 -9.50269 L 13.29 -9.46009 L 13.2673 -9.41747 L 13.2447 -9.37484 L 13.222 -9.33219 L 13.1993 -9.28952 L 13.1765 -9.24684 L 13.1538 -9.20413 L 13.131 -9.16142 L 13.1082 -9.11868 L 13.0854 -9.07593 L 13.0625 -9.03316 L 13.0396 -8.99037 L 13.0167 -8.94756 L 12.9938 -8.90474 L 12.9708 -8.8619 L 12.9478 -8.81904 L 12.9248 -8.77616 L 12.9018 -8.73326 L 12.8787 -8.69035 L 12.8556 -8.64741 L 12.8325 -8.60446 L 12.8094 -8.56149 L 12.7862 -8.5185 L 12.763 -8.47549 L 12.7397 -8.43247 L 12.7165 -8.38942 L 12.6932 -8.34635 L 12.6699 -8.30327 L 12.6465 -8.26016 L 12.6231 -8.21704 L 12.5997 -8.17389 L 12.5763 -8.13073 L 12.5528 -8.08755 L 12.5293 -8.04434 L 12.5058 -8.00112 L 12.4822 -7.95787 L 12.4586 -7.9146 L 12.4349 -7.87132 L 12.4113 -7.82801 L 12.3876 -7.78468 L 12.3638 -7.74133 L 12.3401 -7.69796 L 12.3163 -7.65457 L 12.2924 -7.61116 L 12.2924 -7.61116 L 12.3419 -7.61314 L 12.3914 -7.61511 L 12.4408 -7.61705 L 12.4902 -7.61898 L 12.5395 -7.62088 L 12.5888 -7.62276 L 12.6381 -7.62462 L 12.6874 -7.62647 L 12.7366 -7.62829 L 12.7858 -7.63009 L 12.8349 -7.63188 L 12.8841 -7.63364 L 12.9331 -7.63539 L 12.9822 -7.63711 L 13.0312 -7.63882 L 13.0802 -7.64051 L 13.1292 -7.64219 L 13.1781 -7.64384 L 13.227 -7.64548 L 13.2759 -7.6471 L 13.3247 -7.6487 L 13.3736 -7.65029 L 13.4223 -7.65185 L 13.4711 -7.65341 L 13.5198 -7.65494 L 13.5685 -7.65646 L 13.6172 -7.65796 L 13.6658 -7.65945 L 13.7144 -7.66092 L 13.763 -7.66238 L 13.8116 -7.66382 L 13.8601 -7.66525 L 13.9086 -7.66666 L 13.9571 -7.66805 L 14.0055 -7.66943 L 14.054 -7.6708 L 14.1023 -7.67215 L 14.1507 -7.67348 L 14.1991 -7.67481 L 14.2474 -7.67612 L 14.2957 -7.67741 L 14.3439 -7.67869 L 14.3922 -7.67996 L 14.4404 -7.68121 L 14.4886 -7.68245 L 14.5367 -7.68368 L 14.5849 -7.6849 L 14.633 -7.6861 L 14.6811 -7.68729 L 14.7291 -7.68846 L 14.7772 -7.68963 L 14.8252 -7.69078 L 14.8732 -7.69192 L 14.9212 -7.69304 L 14.9691 -7.69416 L 15.017 -7.69526 L 15.0649 -7.69635 L 15.1128 -7.69743 L 15.1607 -7.6985 L 15.2085 -7.69956 L 15.2563 -7.7006 L 15.3041 -7.70163 L 15.3519 -7.70266 L 15.3996 -7.70367 L 15.4474 -7.70467 L 15.4951 -7.70566 L 15.5427 -7.70664 L 15.5904 -7.70761 L 15.638 -7.70857 L 15.6857 -7.70952 L 15.7333 -7.71045 L 15.7808 -7.71138 L 15.8284 -7.7123 L 15.8759 -7.71321 L 15.9234 -7.71411 L 15.9709 -7.71499 L 16.0184 -7.71587 L 16.0659 -7.71674 L 16.1133 -7.7176 L 16.1607 -7.71845 L 16.2081 -7.71929 L 16.2555 -7.72012 L 16.3028 -7.72095 L 16.3502 -7.72176 L 16.3944 -7.72904 L 16.4128 -7.68999 L 16.431 -7.6509 L 16.4492 -7.61177 L 16.4673 -7.5726 L 16.4853 -7.53338 L 16.5031 -7.49412 L 16.5209 -7.45482 L 16.5386 -7.41548 L 16.5562 -7.37609 L 16.5737 -7.33666 L 16.5912 -7.29719 L 16.6085 -7.25768 L 16.6257 -7.21813 L 16.6428 -7.17854 L 16.6599 -7.1389 L 16.6768 -7.09923 L 16.6937 -7.05952 L 16.7104 -7.01976 L 16.7271 -6.97997 L 16.7437 -6.94013 L 16.7601 -6.90026 L 16.7765 -6.86035 L 16.7928 -6.8204 L 16.809 -6.78041 L 16.8251 -6.74038 L 16.8411 -6.70031 L 16.857 -6.66021 L 16.8728 -6.62007 L 16.929 -6.47482 L 16.9444 -6.43451 L 16.9597 -6.39416 L 16.9748 -6.35377 L 16.9899 -6.31335 L 17.0049 -6.2729 L 17.0198 -6.2324 L 17.0346 -6.19187 L 17.0493 -6.15131 L 17.0638 -6.11071 L 17.0783 -6.07008 L 17.0927 -6.02941 L 17.107 -5.98871 L 17.1212 -5.94798 L 17.1354 -5.90721 L 17.1494 -5.86641 L 17.1633 -5.82557 L 17.1771 -5.7847 L 17.1908 -5.7438 L 17.2044 -5.70287 L 17.218 -5.6619 L 17.2314 -5.6209 L 17.2447 -5.57987 L 17.258 -5.53881 L 17.2711 -5.49772 L 17.2841 -5.45659 L 17.2971 -5.41544 L 17.3099 -5.37425 L 17.3227 -5.33304 L 17.285 -5.30859 L 17.2495 -5.2773 L 17.214 -5.246 L 17.1784 -5.2147 L 17.1428 -5.18339 L 17.1072 -5.15208 L 17.0715 -5.12075 L 17.0359 -5.08943 L 17.0002 -5.05809 L 16.9645 -5.02675 L 16.9288 -4.99541 L 16.8931 -4.96405 L 16.8573 -4.93269 L 16.8215 -4.90133 L 16.7857 -4.86996 L 16.7499 -4.83858 L 16.714 -4.80719 L 16.6782 -4.7758 L 16.6423 -4.7444 L 16.6063 -4.713 L 16.5704 -4.68158 L 16.5344 -4.65017 L 16.4984 -4.61874 L 16.4624 -4.58731 L 16.4264 -4.55587 L 16.3903 -4.52443 L 16.3542 -4.49298 L 16.3181 -4.46152 L 16.282 -4.43005 L 16.2458 -4.39858 L 16.2096 -4.3671 L 16.1734 -4.33562 L 16.1372 -4.30412 L 16.1009 -4.27263 L 16.0647 -4.24112 L 16.0283 -4.20961 L 15.992 -4.17809 L 15.9556 -4.14656 L 15.9192 -4.11503 L 15.8828 -4.08349 L 15.8464 -4.05194 L 15.8099 -4.02038 L 15.7734 -3.98882 L 15.7369 -3.95725 L 15.7003 -3.92568 L 15.6637 -3.89409 L 15.6271 -3.8625 L 15.5905 -3.83091 L 15.5538 -3.7993 L 15.5171 -3.76769 L 15.4803 -3.73607 L 15.4436 -3.70444 L 15.4068 -3.67281 L 15.37 -3.64117 L 15.3331 -3.60952 L 15.2962 -3.57787 L 15.2593 -3.54621 L 15.2224 -3.51454 L 15.1854 -3.48286 L 15.1484 -3.45117 L 15.1113 -3.41948 L 15.0743 -3.38778 L 15.0371 -3.35608 L 15 -3.32436 L 14.9628 -3.29264 L 14.9256 -3.26091 L 14.8884 -3.22918 L 14.8511 -3.19744 L 14.8138 -3.16568 L 14.7764 -3.13393 L 14.7391 -3.10216 L 14.7016 -3.07039 L 14.6642 -3.03861 L 14.6267 -3.00682 L 14.5892 -2.97502 L 14.5516 -2.94322 L 14.514 -2.91141 L 14.4764 -2.87959 L 14.4387 -2.84776 L 14.401 -2.81593 L 14.3632 -2.78409 L 14.3254 -2.75224 L 14.2876 -2.72039 L 14.2497 -2.68852 L 14.2118 -2.65665 L 14.2118 -2.65665 L 14.2587 -2.64063 L 14.3055 -2.62459 L 14.3523 -2.60856 L 14.399 -2.59251 L 14.4457 -2.57646 L 14.4924 -2.5604 L 14.539 -2.54433 L 14.5856 -2.52826 L 14.6322 -2.51218 L 14.6787 -2.49609 L 14.7252 -2.48 L 14.7716 -2.4639 L 14.818 -2.44779 L 14.8644 -2.43168 L 14.9107 -2.41557 L 14.957 -2.39944 L 15.0033 -2.38332 L 15.0495 -2.36718 L 15.0957 -2.35104 L 15.1419 -2.3349 L 15.188 -2.31875 L 15.2341 -2.30259 L 15.2801 -2.28643 L 15.3262 -2.27027 L 15.3721 -2.2541 L 15.4181 -2.23792 L 15.464 -2.22174 L 15.5099 -2.20556 L 15.5558 -2.18937 L 15.6016 -2.17318 L 15.6474 -2.15698 L 15.6932 -2.14078 L 15.7389 -2.12457 L 15.7846 -2.10836 L 15.8303 -2.09215 L 15.8759 -2.07593 L 15.9215 -2.05971 L 15.9671 -2.04348 L 16.0127 -2.02725 L 16.0582 -2.01102 L 16.1037 -1.99478 L 16.1492 -1.97854 L 16.1946 -1.9623 L 16.24 -1.94605 L 16.2854 -1.9298 L 16.3308 -1.91355 L 16.3761 -1.89729 L 16.4214 -1.88103 L 16.4667 -1.86476 L 16.5119 -1.8485 L 16.5571 -1.83223 L 16.6023 -1.81595 L 16.6475 -1.79968 L 16.6926 -1.7834 L 16.7377 -1.76712 L 16.7828 -1.75083 L 16.8279 -1.73455 L 16.8729 -1.71826 L 16.9179 -1.70197 L 16.9629 -1.68567 L 17.0079 -1.66937 L 17.0528 -1.65308 L 17.0977 -1.63677 L 17.1426 -1.62047 L 17.1875 -1.60416 L 17.2323 -1.58785 L 17.2771 -1.57154 L 17.3219 -1.55523 L 17.3667 -1.53892 L 17.4114 -1.5226 L 17.4562 -1.50628 L 17.5009 -1.48996 L 17.5455 -1.47363 L 17.5902 -1.45731 L 17.6348 -1.44098 L 17.6794 -1.42465 L 17.724 -1.40832 L 17.7686 -1.39199 L 17.8131 -1.37566 L 17.8576 -1.35932 L 17.9021 -1.34298 L 17.9466 -1.32665 L 17.9911 -1.31031 L 18.0355 -1.29396 L 18.0794 -1.28476 L 18.0824 -1.24172 L 18.0853 -1.19868 L 18.0881 -1.15563 L 18.0908 -1.11257 L 18.0934 -1.06951 L 18.0959 -1.02644 L 18.0983 -0.983364 L 18.1006 -0.940284 L 18.1028 -0.897198 L 18.1049 -0.854107 L 18.1068 -0.811012 L 18.1087 -0.767911 L 18.1105 -0.724807 L 18.1122 -0.681698 L 18.1137 -0.638586 L 18.1152 -0.595469 L 18.1166 -0.55235 L 18.1178 -0.509227 L 18.119 -0.466102 L 18.1201 -0.422973 L 18.121 -0.379843 L 18.1219 -0.33671 L 18.1226 -0.293575 L 18.1233 -0.250439 L 18.1238 -0.207301 L 18.1243 -0.164163 L 18.1246 -0.121023 L 18.1248 -0.0778822Z"
id="path1" />
</g>
</svg>
