<?xml version="1.0" encoding="UTF-8" standalone="no"?>
<svg version="1.1">
<g
style="fill:none;stroke:#000000;stroke-opacity:1;stroke-width:0.1">
<path d="M 18.3748 0.0778492 L 18.3746 0.119998 L 18.3743 0.162146 L 18.3739 0.204293 L 18.3733 0.24644 L 18.3727 0.288585 L 18.372 0.330728 L 18.3712 0.37287 L 18.3703 0.41501 L 18.3693 0.457147 L 18.3682 0.499282 L 18.367 0.541415 L 18.3657 0.583544 L 18.3643 0.625671 L 18.3629 0.667794 L 18.3613 0.709914 L 18.3596 0.75203 L 18.3578 0.794142 L 18.356 0.83625 L 18.354 0.878354 L 18.3519 0.920453 L 18.3498 0.962547 L 18.3475 1.00464 L 18.3452 1.04672 L 18.3427 1.0888 L 18.3402 1.13087 L 18.3375 1.17294 L 18.3348 1.215 L 18.332 1.25705 L 18.2891 1.26539 L 18.2458 1.28047 L 18.2025 1.29556 L 18.1592 1.31064 L 18.1158 1.32571 L 18.0724 1.34079 L 18.029 1.35587 L 17.9856 1.37094 L 17.9422 1.38601 L 17.8988 1.40109 L 17.8553 1.41616 L 17.8118 1.43122 L 17.7683 1.44629 L 17.7248 1.46136 L 17.6812 1.47642 L 17.6377 1.49148 L 17.5941 1.50654 L 17.5505 1.5216 L 17.5069 1.53666 L 17.4632 1.55172 L 17.4195 1.56677 L 17.3759 1.58182 L 17.3322 1.59687 L 17.2884 1.61192 L 17.2447 1.62696 L 17.2009 1.64201 L 17.1571 1.65705 L 17.1133 1.67209 L 17.0695 1.68713 L 17.0256 1.70216 L 16.9818 1.7172 L 16.9379 1.73223 L 16.894 1.74726 L 16.85 1.76229 L 16.8061 1.77731 L 16.7621 1.79233 L 16.7181 1.80735 L 16.674 1.82237 L 16.63 1.83738 L 16.5859 1.8524 L 16.5418 1.86741 L 16.4977 1.88241 L 16.4535 1.89742 L 16.4094 1.91242 L 16.3652 1.92742 L 16.3209 1.94241 L 16.2767 1.9574 L 16.2324 1.97239 L 16.1881 1.98738 L 16.1438 2.00237 L 16.0995 2.01735 L 16.0551 2.03232 L 16.0107 2.0473 L 15.9663 2.06227 L 15.9219 2.07724 L 15.8774 2.0922 L 15.8329 2.10716 L 15.7884 2.12212 L 15.7438 2.13707 L 15.6992 2.15202 L 15.6546 2.16697 L 15.61 2.18191 L 15.5653 2.19685 L 15.5206 2.21178 L 15.4759 2.22671 L 15.4312 2.24164 L 15.3864 2.25656 L 15.3416 2.27148 L 15.2968 2.28639 L 15.2519 2.3013 L 15.207 2.31621 L 15.1621 2.33111 L 15.1171 2.34601 L 15.0722 2.3609 L 15.0271 2.37578 L 14.9821 2.39067 L 14.937 2.40554 L 14.8919 2.42041 L 14.8468 2.43528 L 14.8016 2.45014 L 14.7564 2.465 L 14.7112 2.47985 L 14.6659 2.49469 L 14.6206 2.50953 L 14.5753 2.52437 L 14.5299 2.5392 L 14.4846 2.55402 L 14.4846 2.55402 L 14.5221 2.58347 L 14.5597 2.61292 L 14.5972 2.64236 L 14.6347 2.6718 L 14.6722 2.70123 L 14.7096 2.73066 L 14.747 2.76008 L 14.7843 2.78949 L 14.8217 2.8189 L 14.859 2.8483 L 14.8962 2.87769 L 14.9335 2.90708 L 14.9707 2.93646 L 15.0078 2.96584 L 15.045 2.99521 L 15.0821 3.02458 L 15.1192 3.05394 L 15.1562 3.08329 L 15.1933 3.11264 L 15.2303 3.14198 L 15.2672 3.17132 L 15.3042 3.20065 L 15.3411 3.22997 L 15.378 3.25929 L 15.4148 3.2886 L 15.4517 3.31791 L 15.4885 3.34721 L 15.5253 3.37651 L 15.562 3.4058 L 15.5987 3.43508 L 15.6354 3.46436 L 15.6721 3.49363 L 15.7087 3.5229 L 15.7454 3.55216 L 15.782 3.58141 L 15.8185 3.61066 L 15.8551 3.6399 L 15.8916 3.66914 L 15.9281 3.69837 L 15.9646 3.7276 L 16.001 3.75682 L 16.0374 3.78604 L 16.0738 3.81525 L 16.1102 3.84445 L 16.1466 3.87365 L 16.1829 3.90284 L 16.2192 3.93203 L 16.2555 3.96121 L 16.2918 3.99039 L 16.328 4.01956 L 16.3642 4.04872 L 16.4004 4.07788 L 16.4366 4.10704 L 16.4727 4.13619 L 16.5089 4.16533 L 16.545 4.19447 L 16.581 4.2236 L 16.6171 4.25273 L 16.6532 4.28185 L 16.6892 4.31097 L 16.7252 4.34008 L 16.7612 4.36918 L 16.7971 4.39828 L 16.8331 4.42738 L 16.869 4.45647 L 16.9049 4.48555 L 16.9408 4.51463 L 16.9766 4.54371 L 17.0125 4.57278 L 17.0483 4.60184 L 17.0841 4.6309 L 17.1199 4.65995 L 17.1556 4.689 L 17.1914 4.71804 L 17.2271 4.74708 L 17.2628 4.77612 L 17.2985 4.80514 L 17.3342 4.83417 L 17.3699 4.86318 L 17.4055 4.8922 L 17.4411 4.92121 L 17.4767 4.95021 L 17.5123 4.97921 L 17.5479 5.0082 L 17.5834 5.03719 L 17.6189 5.06617 L 17.6563 5.08866 L 17.6446 5.12914 L 17.6328 5.1696 L 17.6209 5.21004 L 17.6089 5.25044 L 17.5968 5.29082 L 17.5846 5.33117 L 17.5724 5.37149 L 17.56 5.41179 L 17.5475 5.45205 L 17.535 5.49229 L 17.5223 5.5325 L 17.5096 5.57268 L 17.4968 5.61283 L 17.4838 5.65295 L 17.4708 5.69304 L 17.4577 5.7331 L 17.4445 5.77313 L 17.4312 5.81313 L 17.4179 5.8531 L 17.4044 5.89304 L 17.3908 5.93294 L 17.3772 5.97282 L 17.3634 6.01266 L 17.3496 6.05248 L 17.3357 6.09226 L 17.3216 6.13201 L 17.3075 6.17172 L 17.2933 6.21141 L 17.2401 6.35772 L 17.2254 6.39725 L 17.2107 6.43674 L 17.1959 6.4762 L 17.181 6.51563 L 17.166 6.55503 L 17.1509 6.59438 L 17.1358 6.63371 L 17.1205 6.673 L 17.1052 6.71225 L 17.0897 6.75147 L 17.0742 6.79065 L 17.0586 6.8298 L 17.0428 6.86891 L 17.027 6.90799 L 17.0112 6.94703 L 16.9952 6.98603 L 16.9791 7.025 L 16.9629 7.06393 L 16.9467 7.10282 L 16.9304 7.14167 L 16.9139 7.18049 L 16.8974 7.21927 L 16.8808 7.25801 L 16.8641 7.29671 L 16.8473 7.33538 L 16.8305 7.374 L 16.8135 7.41259 L 16.7965 7.45114 L 16.7534 7.44433 L 16.7075 7.44369 L 16.6617 7.44305 L 16.6158 7.4424 L 16.5699 7.44174 L 16.524 7.44107 L 16.478 7.44039 L 16.4321 7.43971 L 16.3861 7.43902 L 16.3401 7.43832 L 16.2941 7.43762 L 16.2481 7.4369 L 16.2021 7.43618 L 16.156 7.43545 L 16.1099 7.43472 L 16.0639 7.43397 L 16.0178 7.43322 L 15.9716 7.43245 L 15.9255 7.43168 L 15.8793 7.4309 L 15.8332 7.43012 L 15.787 7.42932 L 15.7407 7.42851 L 15.6945 7.4277 L 15.6482 7.42688 L 15.602 7.42604 L 15.5557 7.4252 L 15.5094 7.42435 L 15.463 7.42349 L 15.4167 7.42262 L 15.3703 7.42174 L 15.3239 7.42086 L 15.2775 7.41996 L 15.2311 7.41905 L 15.1846 7.41813 L 15.1382 7.41721 L 15.0917 7.41627 L 15.0452 7.41532 L 14.9986 7.41436 L 14.9521 7.41339 L 14.9055 7.41242 L 14.8589 7.41143 L 14.8123 7.41043 L 14.7657 7.40942 L 14.719 7.4084 L 14.6723 7.40736 L 14.6256 7.40632 L 14.5789 7.40526 L 14.5322 7.4042 L 14.4854 7.40312 L 14.4386 7.40203 L 14.3918 7.40093 L 14.3449 7.39982 L 14.2981 7.39869 L 14.2512 7.39756 L 14.2043 7.39641 L 14.1573 7.39525 L 14.1104 7.39407 L 14.0634 7.39289 L 14.0164 7.39169 L 13.9694 7.39048 L 13.9223 7.38925 L 13.8753 7.38802 L 13.8281 7.38677 L 13.781 7.3855 L 13.7339 7.38422 L 13.6867 7.38293 L 13.6395 7.38163 L 13.5923 7.38031 L 13.545 7.37898 L 13.4977 7.37763 L 13.4504 7.37627 L 13.4031 7.37489 L 13.3557 7.3735 L 13.3083 7.37209 L 13.2609 7.37067 L 13.2135 7.36924 L 13.166 7.36778 L 13.1185 7.36632 L 13.071 7.36483 L 13.0234 7.36334 L 12.9758 7.36182 L 12.9282 7.36029 L 12.8806 7.35874 L 12.8329 7.35718 L 12.7852 7.3556 L 12.7375 7.354 L 12.7375 7.354 L 12.7627 7.39453 L 12.788 7.43505 L 12.8132 7.47555 L 12.8383 7.51604 L 12.8634 7.5565 L 12.8886 7.59695 L 12.9136 7.63739 L 12.9387 7.6778 L 12.9637 7.7182 L 12.9887 7.75859 L 13.0136 7.79896 L 13.0386 7.83931 L 13.0635 7.87964 L 13.0884 7.91996 L 13.1132 7.96027 L 13.1381 8.00056 L 13.1629 8.04083 L 13.1877 8.08109 L 13.2124 8.12133 L 13.2372 8.16156 L 13.2619 8.20177 L 13.2865 8.24196 L 13.3112 8.28215 L 13.3358 8.32231 L 13.3604 8.36246 L 13.385 8.4026 L 13.4096 8.44272 L 13.4341 8.48283 L 13.4587 8.52292 L 13.4831 8.563 L 13.5076 8.60306 L 13.5321 8.64311 L 13.5565 8.68315 L 13.5809 8.72317 L 13.6053 8.76318 L 13.6296 8.80317 L 13.654 8.84315 L 13.6783 8.88311 L 13.7026 8.92307 L 13.7269 8.963 L 13.7511 9.00293 L 13.7754 9.04284 L 13.7996 9.08274 L 13.8238 9.12262 L 13.8479 9.16249 L 13.8721 9.20235 L 13.8962 9.24219 L 13.9203 9.28203 L 13.9444 9.32184 L 13.9685 9.36165 L 13.9926 9.40144 L 14.0166 9.44122 L 14.0406 9.48099 L 14.0646 9.52075 L 14.0886 9.56049 L 14.1126 9.60022 L 14.1365 9.63994 L 14.1605 9.67964 L 14.1844 9.71934 L 14.2083 9.75902 L 14.2321 9.79869 L 14.256 9.83834 L 14.2798 9.87799 L 14.3037 9.91762 L 14.3275 9.95724 L 14.3512 9.99685 L 14.375 10.0365 L 14.3988 10.076 L 14.4225 10.1156 L 14.4462 10.1552 L 14.4699 10.1947 L 14.4936 10.2343 L 14.5173 10.2738 L 14.541 10.3133 L 14.5646 10.3528 L 14.5882 10.3923 L 14.6118 10.4318 L 14.6354 10.4713 L 14.659 10.5107 L 14.6826 10.5502 L 14.7061 10.5896 L 14.7297 10.6291 L 14.7532 10.6685 L 14.7767 10.7079 L 14.8002 10.7473 L 14.8237 10.7867 L 14.8511 10.8206 L 14.8262 10.8546 L 14.8013 10.8886 L 14.7763 10.9225 L 14.7512 10.9564 L 14.726 10.9902 L 14.7008 11.024 L 14.6755 11.0577 L 14.6501 11.0913 L 14.6246 11.1249 L 14.599 11.1584 L 14.5734 11.1918 L 14.5477 11.2252 L 14.5219 11.2586 L 14.496 11.2919 L 14.4701 11.3251 L 14.4441 11.3582 L 14.418 11.3913 L 14.3918 11.4244 L 14.3656 11.4574 L 14.3392 11.4903 L 14.3128 11.5232 L 14.2864 11.556 L 14.2598 11.5887 L 14.2332 11.6214 L 14.2065 11.654 L 14.1797 11.6866 L 14.1529 11.719 L 14.126 11.7515 L 14.0259 11.8708 L 13.9986 11.9029 L 13.9713 11.935 L 13.9439 11.967 L 13.9164 11.9989 L 13.8888 12.0308 L 13.8612 12.0627 L 13.8335 12.0944 L 13.8057 12.1261 L 13.7779 12.1578 L 13.7499 12.1893 L 13.7219 12.2208 L 13.6939 12.2523 L 13.6657 12.2837 L 13.6375 12.315 L 13.6092 12.3462 L 13.5809 12.3774 L 13.5524 12.4085 L 13.524 12.4396 L 13.4954 12.4706 L 13.4667 12.5015 L 13.438 12.5324 L 13.4092 12.5632 L 13.3804 12.5939 L 13.3515 12.6245 L 13.3225 12.6551 L 13.2934 12.6857 L 13.2643 12.7161 L 13.2351 12.7465 L 13.1969 12.7254 L 13.154 12.7091 L 13.1112 12.6928 L 13.0683 12.6765 L 13.0254 12.6602 L 12.9824 12.6438 L 12.9395 12.6275 L 12.8966 12.6111 L 12.8536 12.5948 L 12.8106 12.5784 L 12.7677 12.562 L 12.7247 12.5456 L 12.6816 12.5292 L 12.6386 12.5127 L 12.5956 12.4963 L 12.5525 12.4798 L 12.5095 12.4633 L 12.4664 12.4468 L 12.4233 12.4303 L 12.3802 12.4138 L 12.337 12.3973 L 12.2939 12.3807 L 12.2508 12.3642 L 12.2076 12.3476 L 12.1644 12.331 L 12.1212 12.3144 L 12.078 12.2978 L 12.0348 12.2811 L 11.9915 12.2645 L 11.9483 12.2478 L 11.905 12.2311 L 11.8617 12.2144 L 11.8184 12.1977 L 11.7751 12.181 L 11.7318 12.1642 L 11.6884 12.1475 L 11.645 12.1307 L 11.6017 12.1139 L 11.5583 12.0971 L 11.5148 12.0802 L 11.4714 12.0634 L 11.428 12.0465 L 11.3845 12.0296 L 11.341 12.0127 L 11.2975 11.9958 L 11.254 11.9789 L 11.2105 11.9619 L 11.1669 11.9449 L 11.1234 11.928 L 11.0798 11.911 L 11.0362 11.8939 L 10.9926 11.8769 L 10.9489 11.8598 L 10.9053 11.8427 L 10.8616 11.8256 L 10.8179 11.8085 L 10.7742 11.7914 L 10.7305 11.7742 L 10.6868 11.757 L 10.643 11.7398 L 10.5992 11.7226 L 10.5554 11.7053 L 10.5116 11.6881 L 10.4678 11.6708 L 10.4239 11.6535 L 10.3801 11.6362 L 10.3362 11.6188 L 10.2923 11.6014 L 10.2483 11.584 L 10.2044 11.5666 L 10.1604 11.5492 L 10.1164 11.5317 L 10.0724 11.5143 L 10.0284 11.4967 L 9.98434 11.4792 L 9.94027 11.4617 L 9.89618 11.4441 L 9.85207 11.4265 L 9.80794 11.4089 L 9.76378 11.3912 L 9.71961 11.3735 L 9.67542 11.3559 L 9.6312 11.3381 L 9.58696 11.3204 L 9.5427 11.3026 L 9.49842 11.2848 L 9.45412 11.267 L 9.45412 11.267 L 9.46398 11.3137 L 9.47382 11.3604 L 9.48364 11.4071 L 9.49344 11.4537 L 9.50321 11.5003 L 9.51297 11.5469 L 9.5227 11.5935 L 9.53241 11.6401 L 9.5421 11.6866 L 9.55178 11.7331 L 9.56143 11.7796 L 9.57106 11.826 L 9.58068 11.8724 L 9.59027 11.9188 L 9.59984 11.9652 L 9.6094 12.0116 L 9.61894 12.0579 L 9.62846 12.1042 L 9.63796 12.1505 L 9.64744 12.1967 L 9.6569 12.243 L 9.66635 12.2892 L 9.67578 12.3354 L 9.68519 12.3815 L 9.69458 12.4277 L 9.70396 12.4738 L 9.71332 12.5199 L 9.72266 12.566 L 9.73199 12.6121 L 9.7413 12.6581 L 9.75059 12.7041 L 9.75986 12.7501 L 9.76913 12.7961 L 9.77837 12.842 L 9.7876 12.888 L 9.79681 12.9339 L 9.80601 12.9798 L 9.81519 13.0257 L 9.82436 13.0715 L 9.83351 13.1173 L 9.84265 13.1631 L 9.85177 13.2089 L 9.86088 13.2547 L 9.86998 13.3005 L 9.87906 13.3462 L 9.88812 13.3919 L 9.89717 13.4376 L 9.90621 13.4833 L 9.91523 13.5289 L 9.92424 13.5746 L 9.93324 13.6202 L 9.94222 13.6658 L 9.95119 13.7114 L 9.96015 13.757 L 9.96909 13.8025 L 9.97802 13.848 L 9.98694 13.8936 L 9.99584 13.939 L 10.0047 13.9845 L 10.0136 14.03 L 10.0225 14.0754 L 10.0313 14.1209 L 10.0402 14.1663 L 10.049 14.2117 L 10.0578 14.257 L 10.0666 14.3024 L 10.0754 14.3477 L 10.0842 14.393 L 10.093 14.4384 L 10.1017 14.4836 L 10.1105 14.5289 L 10.1192 14.5742 L 10.128 14.6194 L 10.1367 14.6646 L 10.1454 14.7099 L 10.1541 14.7551 L 10.1628 14.8002 L 10.1714 14.8454 L 10.1801 14.8905 L 10.1887 14.9357 L 10.1974 14.9808 L 10.206 15.0259 L 10.2146 15.071 L 10.2232 15.1161 L 10.2318 15.1611 L 10.2404 15.2062 L 10.2546 15.2474 L 10.2196 15.2709 L 10.1846 15.2943 L 10.1494 15.3176 L 10.1143 15.3409 L 10.0791 15.364 L 10.0438 15.3871 L 10.0085 15.4101 L 9.9731 15.433 L 9.93767 15.4558 L 9.90219 15.4786 L 9.86666 15.5013 L 9.83108 15.5239 L 9.79544 15.5464 L 9.75976 15.5688 L 9.72402 15.5912 L 9.68823 15.6134 L 9.65239 15.6356 L 9.6165 15.6577 L 9.58056 15.6797 L 9.54457 15.7017 L 9.50852 15.7235 L 9.47243 15.7453 L 9.43629 15.767 L 9.4001 15.7886 L 9.36386 15.8101 L 9.32756 15.8315 L 9.29123 15.8529 L 9.25484 15.8741 L 9.12 15.952 L 9.08338 15.9729 L 9.04672 15.9937 L 9.01001 16.0144 L 8.97325 16.035 L 8.93645 16.0555 L 8.89959 16.076 L 8.86269 16.0964 L 8.82575 16.1167 L 8.78876 16.1369 L 8.75172 16.157 L 8.71463 16.177 L 8.6775 16.197 L 8.64033 16.2168 L 8.6031 16.2366 L 8.56584 16.2563 L 8.52853 16.2759 L 8.49117 16.2954 L 8.45377 16.3149 L 8.41632 16.3342 L 8.37883 16.3535 L 8.3413 16.3726 L 8.30372 16.3917 L 8.2661 16.4107 L 8.22843 16.4297 L 8.19072 16.4485 L 8.15297 16.4672 L 8.11518 16.4859 L 8.07734 16.5045 L 8.0487 16.4715 L 8.01399 16.4416 L 7.97927 16.4116 L 7.94454 16.3816 L 7.9098 16.3516 L 7.87506 16.3216 L 7.84031 16.2915 L 7.80555 16.2615 L 7.77078 16.2314 L 7.736 16.2013 L 7.70122 16.1712 L 7.66642 16.1411 L 7.63162 16.1109 L 7.59681 16.0808 L 7.56199 16.0506 L 7.52717 16.0204 L 7.49233 15.9902 L 7.45749 15.96 L 7.42264 15.9297 L 7.38778 15.8994 L 7.35291 15.8692 L 7.31803 15.8388 L 7.28315 15.8085 L 7.24825 15.7782 L 7.21335 15.7478 L 7.17844 15.7174 L 7.14352 15.687 L 7.10859 15.6566 L 7.07365 15.6262 L 7.0387 15.5957 L 7.00375 15.5652 L 6.96878 15.5347 L 6.93381 15.5042 L 6.89882 15.4737 L 6.86383 15.4431 L 6.82883 15.4125 L 6.79382 15.3819 L 6.7588 15.3513 L 6.72377 15.3207 L 6.68873 15.29 L 6.65368 15.2593 L 6.61862 15.2286 L 6.58355 15.1979 L 6.54848 15.1671 L 6.51339 15.1364 L 6.47829 15.1056 L 6.44319 15.0747 L 6.40807 15.0439 L 6.37295 15.013 L 6.33781 14.9821 L 6.30267 14.9512 L 6.26751 14.9203 L 6.23235 14.8893 L 6.19717 14.8584 L 6.16199 14.8273 L 6.12679 14.7963 L 6.09158 14.7653 L 6.05637 14.7342 L 6.02114 14.7031 L 5.98591 14.6719 L 5.95066 14.6408 L 5.9154 14.6096 L 5.88013 14.5784 L 5.84486 14.5472 L 5.80957 14.5159 L 5.77427 14.4846 L 5.73896 14.4533 L 5.70364 14.4219 L 5.6683 14.3906 L 5.63296 14.3592 L 5.59761 14.3278 L 5.56224 14.2963 L 5.52687 14.2648 L 5.49148 14.2333 L 5.45608 14.2018 L 5.42068 14.1702 L 5.38526 14.1386 L 5.34983 14.107 L 5.31438 14.0753 L 5.27893 14.0437 L 5.24346 14.0119 L 5.20799 13.9802 L 5.1725 13.9484 L 5.137 13.9166 L 5.10149 13.8848 L 5.06597 13.8529 L 5.03043 13.821 L 5.03043 13.821 L 5.02372 13.8683 L 5.01699 13.9155 L 5.01025 13.9627 L 5.00351 14.0099 L 4.99675 14.0571 L 4.98998 14.1042 L 4.98319 14.1513 L 4.9764 14.1984 L 4.9696 14.2454 L 4.96278 14.2924 L 4.95596 14.3394 L 4.94913 14.3863 L 4.94228 14.4332 L 4.93543 14.4801 L 4.92856 14.5269 L 4.92169 14.5738 L 4.91481 14.6206 L 4.90791 14.6673 L 4.90101 14.7141 L 4.8941 14.7608 L 4.88718 14.8075 L 4.88025 14.8541 L 4.87331 14.9008 L 4.86636 14.9474 L 4.85941 14.9939 L 4.85244 15.0405 L 4.84547 15.087 L 4.83849 15.1335 L 4.8315 15.18 L 4.8245 15.2264 L 4.81749 15.2729 L 4.81048 15.3193 L 4.80346 15.3656 L 4.79643 15.412 L 4.78939 15.4583 L 4.78234 15.5046 L 4.77529 15.5509 L 4.76823 15.5971 L 4.76116 15.6433 L 4.75409 15.6895 L 4.74701 15.7357 L 4.73992 15.7818 L 4.73282 15.828 L 4.72572 15.8741 L 4.71861 15.9202 L 4.71149 15.9662 L 4.70437 16.0123 L 4.69723 16.0583 L 4.6901 16.1043 L 4.68295 16.1502 L 4.6758 16.1962 L 4.66865 16.2421 L 4.66149 16.288 L 4.65432 16.3339 L 4.64714 16.3797 L 4.63996 16.4256 L 4.63278 16.4714 L 4.62558 16.5172 L 4.61838 16.563 L 4.61118 16.6087 L 4.60397 16.6545 L 4.59676 16.7002 L 4.58953 16.7459 L 4.58231 16.7915 L 4.57508 16.8372 L 4.56784 16.8828 L 4.5606 16.9284 L 4.55335 16.974 L 4.54609 17.0196 L 4.53884 17.0652 L 4.53157 17.1107 L 4.5243 17.1562 L 4.51703 17.2017 L 4.50975 17.2472 L 4.50247 17.2927 L 4.49518 17.3381 L 4.48789 17.3835 L 4.48059 17.4289 L 4.47329 17.4743 L 4.46598 17.5197 L 4.45867 17.565 L 4.45135 17.6104 L 4.44403 17.6557 L 4.43671 17.701 L 4.42938 17.7463 L 4.42204 17.7915 L 4.42126 17.8352 L 4.38034 17.8453 L 4.33939 17.8553 L 4.29843 17.8652 L 4.25743 17.875 L 4.21642 17.8847 L 4.17539 17.8943 L 4.13433 17.9039 L 4.09325 17.9133 L 4.05215 17.9226 L 4.01102 17.9319 L 3.96988 17.941 L 3.92872 17.9501 L 3.88753 17.9591 L 3.84633 17.9679 L 3.8051 17.9767 L 3.76385 17.9854 L 3.72259 17.994 L 3.6813 18.0025 L 3.64 18.0109 L 3.59868 18.0192 L 3.55733 18.0274 L 3.51597 18.0355 L 3.47459 18.0435 L 3.43319 18.0514 L 3.39178 18.0592 L 3.35034 18.067 L 3.30889 18.0746 L 3.26742 18.0822 L 3.11409 18.1092 L 3.07254 18.1163 L 3.03098 18.1233 L 2.9894 18.1302 L 2.9478 18.137 L 2.90619 18.1437 L 2.86456 18.1503 L 2.82292 18.1569 L 2.78127 18.1633 L 2.7396 18.1696 L 2.69791 18.1759 L 2.65621 18.182 L 2.6145 18.188 L 2.57277 18.194 L 2.53103 18.1998 L 2.48927 18.2056 L 2.44751 18.2113 L 2.40573 18.2168 L 2.36393 18.2223 L 2.32213 18.2277 L 2.28031 18.233 L 2.23848 18.2381 L 2.19664 18.2432 L 2.15479 18.2482 L 2.11292 18.2531 L 2.07105 18.2579 L 2.02916 18.2626 L 1.98726 18.2672 L 1.94536 18.2717 L 1.92971 18.231 L 1.90733 18.191 L 1.88496 18.1509 L 1.86258 18.1109 L 1.8402 18.0708 L 1.81782 18.0307 L 1.79544 17.9906 L 1.77306 17.9505 L 1.75067 17.9103 L 1.72829 17.8701 L 1.7059 17.8299 L 1.68351 17.7897 L 1.66111 17.7495 L 1.63872 17.7093 L 1.61632 17.669 L 1.59392 17.6287 L 1.57152 17.5884 L 1.54912 17.5481 L 1.52672 17.5077 L 1.50431 17.4674 L 1.48191 17.427 L 1.4595 17.3866 L 1.43709 17.3461 L 1.41467 17.3057 L 1.39226 17.2652 L 1.36985 17.2247 L 1.34743 17.1842 L 1.32501 17.1437 L 1.30259 17.1031 L 1.28017 17.0626 L 1.25774 17.022 L 1.23532 16.9813 L 1.21289 16.9407 L 1.19046 16.9 L 1.16803 16.8594 L 1.1456 16.8186 L 1.12317 16.7779 L 1.10073 16.7372 L 1.0783 16.6964 L 1.05586 16.6556 L 1.03342 16.6148 L 1.01098 16.5739 L 0.988535 16.533 L 0.966092 16.4922 L 0.943647 16.4512 L 0.9212 16.4103 L 0.898752 16.3693 L 0.876303 16.3283 L 0.853852 16.2873 L 0.8314 16.2463 L 0.808947 16.2052 L 0.786493 16.1641 L 0.764037 16.123 L 0.74158 16.0818 L 0.719122 16.0407 L 0.696662 15.9995 L 0.674202 15.9582 L 0.65174 15.917 L 0.629277 15.8757 L 0.606814 15.8344 L 0.584349 15.7931 L 0.561883 15.7517 L 0.539416 15.7103 L 0.516948 15.6689 L 0.494479 15.6275 L 0.472009 15.586 L 0.449539 15.5445 L 0.427067 15.503 L 0.404595 15.4614 L 0.382122 15.4198 L 0.359648 15.3782 L 0.337174 15.3365 L 0.314699 15.2949 L 0.292223 15.2531 L 0.269747 15.2114 L 0.24727 15.1696 L 0.224792 15.1278 L 0.202315 15.086 L 0.179836 15.0441 L 0.157358 15.0022 L 0.134879 14.9603 L 0.112399 14.9183 L 0.0899198 14.8763 L 0.06744 14.8343 L 0.0449601 14.7922 L 0.0224801 14.7501 L 8.88178e-16 14.708 L 9.13032e-16 14.708 L -0.0224801 14.7501 L -0.0449601 14.7922 L -0.06744 14.8343 L -0.0899198 14.8763 L -0.112399 14.9183 L -0.134879 14.9603 L -0.157358 15.0022 L -0.179836 15.0441 L -0.202315 15.086 L -0.224792 15.1278 L -0.24727 15.1696 L -0.269747 15.2114 L -0.292223 15.2531 L -0.314699 15.2949 L -0.337174 15.3365 L -0.359648 15.3782 L -0.382122 15.4198 L -0.404595 15.4614 L -0.427067 15.503 L -0.449539 15.5445 L -0.472009 15.586 L -0.494479 15.6275 L -0.516948 15.6689 L -0.539416 15.7103 L -0.561883 15.7517 L -0.584349 15.7931 L -0.606814 15.8344 L -0.629277 15.8757 L -0.65174 15.917 L -0.674202 15.9582 L -0.696662 15.9995 L -0.719122 16.0407 L -0.74158 16.0818 L -0.764037 16.123 L -0.786493 16.1641 L -0.808947 16.2052 L -0.8314 16.2463 L -0.853852 16.2873 L -0.876303 16.3283 L -0.898752 16.3693 L -0.9212 16.4103 L -0.943647 16.4512 L -0.966092 16.4922 L -0.988535 16.533 L -1.01098 16.5739 L -1.03342 16.6148 L -1.05586 16.6556 L -1.0783 16.6964 L -1.10073 16.7372 L -1.12317 16.7779 L -1.1456 16.8186 L -1.16803 16.8594 L -1.19046 16.9 L -1.21289 16.9407 L -1.23532 16.9813 L -1.25774 17.022 L -1.28017 17.0626 L -1.30259 17.1031 L -1.32501 17.1437 L -1.34743 17.1842 L -1.36985 17.2247 L -1.39226 17.2652 L -1.41467 17.3057 L -1.43709 17.3461 L -1.4595 17.3866 L -1.48191 17.427 L -1.50431 17.4674 L -1.52672 17.5077 L -1.54912 17.5481 L -1.57152 17.5884 L -1.59392 17.6287 L -1.61632 17.669 L -1.63872 17.7093 L -1.66111 17.7495 L -1.68351 17.7897 L -1.7059 17.8299 L -1.72829 17.8701 L -1.75067 17.9103 L -1.77306 17.9505 L -1.79544 17.9906 L -1.81782 18.0307 L -1.8402 18.0708 L -1.86258 18.1109 L -1.88496 18.1509 L -1.90733 18.191 L -1.92971 18.231 L -1.94536 18.2717 L -1.98726 18.2672 L -2.02916 18.2626 L -2.07105 18.2579 L -2.11292 18.2531 L -2.15479 18.2482 L -2.19664 18.2432 L -2.23848 18.2381 L -2.28031 18.233 L -2.32213 18.2277 L -2.36393 18.2223 L -2.40573 18.2168 L -2.44751 18.2113 L -2.48927 18.2056 L -2.53103 18.1998 L -2.57277 18.194 L -2.6145 18.188 L -2.65621 18.182 L -2.69791 18.1759 L -2.7396 18.1696 L -2.78127 18.1633 L -2.82292 18.1569 L -2.86456 18.1503 L -2.90619 18.1437 L -2.9478 18.137 L -2.9894 18.1302 L -3.03098 18.1233 L -3.07254 18.1163 L -3.11409 18.1092 L -3.26742 18.0822 L -3.30889 18.0746 L -3.35034 18.067 L -3.39178 18.0592 L -3.43319 18.0514 L -3.47459 18.0435 L -3.51597 18.0355 L -3.55733 18.0274 L -3.59868 18.0192 L -3.64 18.0109 L -3.6813 18.0025 L -3.72259 17.994 L -3.76385 17.9854 L -3.8051 17.9767 L -3.84633 17.9679 L -3.88753 17.9591 L -3.92872 17.9501 L -3.96988 17.941 L -4.01102 17.9319 L -4.05215 17.9226 L -4.09325 17.9133 L -4.13433 17.9039 L -4.17539 17.8943 L -4.21642 17.8847 L -4.25743 17.875 L -4.29843 17.8652 L -4.33939 17.8553 L -4.38034 17.8453 L -4.42126 17.8352 L -4.42204 17.7915 L -4.42938 17.7463 L -4.43671 17.701 L -4.44403 17.6557 L -4.45135 17.6104 L -4.45867 17.565 L -4.46598 17.5197 L -4.47329 17.4743 L -4.48059 17.4289 L -4.48789 17.3835 L -4.49518 17.3381 L -4.50247 17.2927 L -4.50975 17.2472 L -4.51703 17.2017 L -4.5243 17.1562 L -4.53157 17.1107 L -4.53884 17.0652 L -4.54609 17.0196 L -4.55335 16.974 L -4.5606 16.9284 L -4.56784 16.8828 L -4.57508 16.8372 L -4.58231 16.7915 L -4.58953 16.7459 L -4.59676 16.7002 L -4.60397 16.6545 L -4.61118 16.6087 L -4.61838 16.563 L -4.62558 16.5172 L -4.63278 16.4714 L -4.63996 16.4256 L -4.64714 16.3797 L -4.65432 16.3339 L -4.66149 16.288 L -4.66865 16.2421 L -4.6758 16.1962 L -4.68295 16.1502 L -4.6901 16.1043 L -4.69723 16.0583 L -4.70437 16.0123 L -4.71149 15.9662 L -4.71861 15.9202 L -4.72572 15.8741 L -4.73282 15.828 L -4.73992 15.7818 L -4.74701 15.7357 L -4.75409 15.6895 L -4.76116 15.6433 L -4.76823 15.5971 L -4.77529 15.5509 L -4.78234 15.5046 L -4.78939 15.4583 L -4.79643 15.412 L -4.80346 15.3656 L -4.81048 15.3193 L -4.81749 15.2729 L -4.8245 15.2264 L -4.8315 15.18 L -4.83849 15.1335 L -4.84547 15.087 L -4.85244 15.0405 L -4.85941 14.9939 L -4.86636 14.9474 L -4.87331 14.9008 L -4.88025 14.8541 L -4.88718 14.8075 L -4.8941 14.7608 L -4.90101 14.7141 L -4.90791 14.6673 L -4.91481 14.6206 L -4.92169 14.5738 L -4.92856 14.5269 L -4.93543 14.4801 L -4.94228 14.4332 L -4.94913 14.3863 L -4.95596 14.3394 L -4.96278 14.2924 L -4.9696 14.2454 L -4.9764 14.1984 L -4.98319 14.1513 L -4.98998 14.1042 L -4.99675 14.0571 L -5.00351 14.0099 L -5.01025 13.9627 L -5.01699 13.9155 L -5.02372 13.8683 L -5.03043 13.821 L -5.03043 13.821 L -5.06597 13.8529 L -5.10149 13.8848 L -5.137 13.9166 L -5.1725 13.9484 L -5.20799 13.9802 L -5.24346 14.0119 L -5.27893 14.0437 L -5.31438 14.0753 L -5.34983 14.107 L -5.38526 14.1386 L -5.42068 14.1702 L -5.45608 14.2018 L -5.49148 14.2333 L -5.52687 14.2648 L -5.56224 14.2963 L -5.59761 14.3278 L -5.63296 14.3592 L -5.6683 14.3906 L -5.70364 14.4219 L -5.73896 14.4533 L -5.77427 14.4846 L -5.80957 14.5159 L -5.84486 14.5472 L -5.88013 14.5784 L -5.9154 14.6096 L -5.95066 14.6408 L -5.98591 14.6719 L -6.02114 14.7031 L -6.05637 14.7342 L -6.09158 14.7653 L -6.12679 14.7963 L -6.16199 14.8273 L -6.19717 14.8584 L -6.23235 14.8893 L -6.26751 14.9203 L -6.30267 14.9512 L -6.33781 14.9821 L -6.37295 15.013 L -6.40807 15.0439 L -6.44319 15.0747 L -6.47829 15.1056 L -6.51339 15.1364 L -6.54848 15.1671 L -6.58355 15.1979 L -6.61862 15.2286 L -6.65368 15.2593 L -6.68873 15.29 L -6.72377 15.3207 L -6.7588 15.3513 L -6.79382 15.3819 L -6.82883 15.4125 L -6.86383 15.4431 L -6.89882 15.4737 L -6.93381 15.5042 L -6.96878 15.5347 L -7.00375 15.5652 L -7.0387 15.5957 L -7.07365 15.6262 L -7.10859 15.6566 L -7.14352 15.687 L -7.17844 15.7174 L -7.21335 15.7478 L -7.24825 15.7782 L -7.28315 15.8085 L -7.31803 15.8388 L -7.35291 15.8692 L -7.38778 15.8994 L -7.42264 15.9297 L -7.45749 15.96 L -7.49233 15.9902 L -7.52717 16.0204 L -7.56199 16.0506 L -7.59681 16.0808 L -7.63162 16.1109 L -7.66642 16.1411 L -7.70122 16.1712 L -7.736 16.2013 L -7.77078 16.2314 L -7.80555 16.2615 L -7.84031 16.2915 L -7.87506 16.3216 L -7.9098 16.3516 L -7.94454 16.3816 L -7.97927 16.4116 L -8.01399 16.4416 L -8.0487 16.4715 L -8.07734 16.5045 L -8.11518 16.4859 L -8.15297 16.4672 L -8.19072 16.4485 L -8.22843 16.4297 L -8.2661 16.4107 L -8.30372 16.3917 L -8.3413 16.3726 L -8.37883 16.3535 L -8.41632 16.3342 L -8.45377 16.3149 L -8.49117 16.2954 L -8.52853 16.2759 L -8.56584 16.2563 L -8.6031 16.2366 L -8.64033 16.2168 L -8.6775 16.197 L -8.71463 16.177 L -8.75172 16.157 L -8.78876 16.1369 L -8.82575 16.1167 L -8.86269 16.0964 L -8.89959 16.076 L -8.93645 16.0555 L -8.97325 16.035 L -9.01001 16.0144 L -9.04672 15.9937 L -9.08338 15.9729 L -9.12 15.952 L -9.25484 15.8741 L -9.29123 15.8529 L -9.32756 15.8315 L -9.36386 15.8101 L -9.4001 15.7886 L -9.43629 15.767 L -9.47243 15.7453 L -9.50852 15.7235 L -9.54457 15.7017 L -9.58056 15.6797 L -9.6165 15.6577 L -9.65239 15.6356 L -9.68823 15.6134 L -9.72402 15.5912 L -9.75976 15.5688 L -9.79544 15.5464 L -9.83108 15.5239 L -9.86666 15.5013 L -9.90219 15.4786 L -9.93767 15.4558 L -9.9731 15.433 L -10.0085 15.4101 L -10.0438 15.3871 L -10.0791 15.364 L -10.1143 15.3409 L -10.1494 15.3176 L -10.1846 15.2943 L -10.2196 15.2709 L -10.2546 15.2474 L -10.2404 15.2062 L -10.2318 15.1611 L -10.2232 15.1161 L -10.2146 15.071 L -10.206 15.0259 L -10.1974 14.9808 L -10.1887 14.9357 L -10.1801 14.8905 L -10.1714 14.8454 L -10.1628 14.8002 L -10.1541 14.7551 L -10.1454 14.7099 L -10.1367 14.6646 L -10.128 14.6194 L -10.1192 14.5742 L -10.1105 14.5289 L -10.1017 14.4836 L -10.093 14.4384 L -10.0842 14.393 L -10.0754 14.3477 L -10.0666 14.3024 L -10.0578 14.257 L -10.049 14.2117 L -10.0402 14.1663 L -10.0313 14.1209 L -10.0225 14.0754 L -10.0136 14.03 L -10.0047 13.9845 L -9.99584 13.939 L -9.98694 13.8936 L -9.97802 13.848 L -9.96909 13.8025 L -9.96015 13.757 L -9.95119 13.7114 L -9.94222 13.6658 L -9.93324 13.6202 L -9.92424 13.5746 L -9.91523 13.5289 L -9.90621 13.4833 L -9.89717 13.4376 L -9.88812 13.3919 L -9.87906 13.3462 L -9.86998 13.3005 L -9.86088 13.2547 L -9.85177 13.2089 L -9.84265 13.1631 L -9.83351 13.1173 L -9.82436 13.0715 L -9.81519 13.0257 L -9.80601 12.9798 L -9.79681 12.9339 L -9.7876 12.888 L -9.77837 12.842 L -9.76913 12.7961 L -9.75986 12.7501 L -9.75059 12.7041 L -9.7413 12.6581 L -9.73199 12.6121 L -9.72266 12.566 L -9.71332 12.5199 L -9.70396 12.4738 L -9.69458 12.4277 L -9.68519 12.3815 L -9.67578 12.3354 L -9.66635 12.2892 L -9.6569 12.243 L -9.64744 12.1967 L -9.63796 12.1505 L -9.62846 12.1042 L -9.61894 12.0579 L -9.6094 12.0116 L -9.59984 11.9652 L -9.59027 11.9188 L -9.58068 11.8724 L -9.57106 11.826 L -9.56143 11.7796 L -9.55178 11.7331 L -9.5421 11.6866 L -9.53241 11.6401 L -9.5227 11.5935 L -9.51297 11.5469 L -9.50321 11.5003 L -9.49344 11.4537 L -9.48364 11.4071 L -9.47382 11.3604 L -9.46398 11.3137 L -9.45412 11.267 L -9.45412 11.267 L -9.49842 11.2848 L -9.5427 11.3026 L -9.58696 11.3204 L -9.6312 11.3381 L -9.67542 11.3559 L -9.71961 11.3735 L -9.76378 11.3912 L -9.80794 11.4089 L -9.85207 11.4265 L -9.89618 11.4441 L -9.94027 11.4617 L -9.98434 11.4792 L -10.0284 11.4967 L -10.0724 11.5143 L -10.1164 11.5317 L -10.1604 11.5492 L -10.2044 11.5666 L -10.2483 11.584 L -10.2923 11.6014 L -10.3362 11.6188 L -10.3801 11.6362 L -10.4239 11.6535 L -10.4678 11.6708 L -10.5116 11.6881 L -10.5554 11.7053 L -10.5992 11.7226 L -10.643 11.7398 L -10.6868 11.757 L -10.7305 11.7742 L -10.7742 11.7914 L -10.8179 11.8085 L -10.8616 11.8256 L -10.9053 11.8427 L -10.9489 11.8598 L -10.9926 11.8769 L -11.0362 11.8939 L -11.0798 11.911 L -11.1234 11.928 L -11.1669 11.9449 L -11.2105 11.9619 L -11.254 11.9789 L -11.2975 11.9958 L -11.341 12.0127 L -11.3845 12.0296 L -11.428 12.0465 L -11.4714 12.0634 L -11.5148 12.0802 L -11.5583 12.0971 L -11.6017 12.1139 L -11.645 12.1307 L -11.6884 12.1475 L -11.7318 12.1642 L -11.7751 12.181 L -11.8184 12.1977 L -11.8617 12.2144 L -11.905 12.2311 L -11.9483 12.2478 L -11.9915 12.2645 L -12.0348 12.2811 L -12.078 12.2978 L -12.1212 12.3144 L -12.1644 12.331 L -12.2076 12.3476 L -12.2508 12.3642 L -12.2939 12.3807 L -12.337 12.3973 L -12.3802 12.4138 L -12.4233 12.4303 L -12.4664 12.4468 L -12.5095 12.4633 L -12.5525 12.4798 L -12.5956 12.4963 L -12.6386 12.5127 L -12.6816 12.5292 L -12.7247 12.5456 L -12.7677 12.562 L -12.8106 12.5784 L -12.8536 12.5948 L -12.8966 12.6111 L -12.9395 12.6275 L -12.9824 12.6438 L -13.0254 12.6602 L -13.0683 12.6765 L -13.1112 12.6928 L -13.154 12.7091 L -13.1969 12.7254 L -13.2351 12.7465 L -13.2643 12.7161 L -13.2934 12.6857 L -13.3225 12.6551 L -13.3515 12.6245 L -13.3804 12.5939 L -13.4092 12.5632 L -13.438 12.5324 L -13.4667 12.5015 L -13.4954 12.4706 L -13.524 12.4396 L -13.5524 12.4085 L -13.5809 12.3774 L -13.6092 12.3462 L -13.6375 12.315 L -13.6657 12.2837 L -13.6939 12.2523 L -13.7219 12.2208 L -13.7499 12.1893 L -13.7779 12.1578 L -13.8057 12.1261 L -13.8335 12.0944 L -13.8612 12.0627 L -13.8888 12.0308 L -13.9164 11.9989 L -13.9439 11.967 L -13.9713 11.935 L -13.9986 11.9029 L -14.0259 11.8708 L -14.126 11.7515 L -14.1529 11.719 L -14.1797 11.6866 L -14.2065 11.654 L -14.2332 11.6214 L -14.2598 11.5887 L -14.2864 11.556 L -14.3128 11.5232 L -14.3392 11.4903 L -14.3656 11.4574 L -14.3918 11.4244 L -14.418 11.3913 L -14.4441 11.3582 L -14.4701 11.3251 L -14.496 11.2919 L -14.5219 11.2586 L -14.5477 11.2252 L -14.5734 11.1918 L -14.599 11.1584 L -14.6246 11.1249 L -14.6501 11.0913 L -14.6755 11.0577 L -14.7008 11.024 L -14.726 10.9902 L -14.7512 10.9564 L -14.7763 10.9225 L -14.8013 10.8886 L -14.8262 10.8546 L -14.8511 10.8206 L -14.8237 10.7867 L -14.8002 10.7473 L -14.7767 10.7079 L -14.7532 10.6685 L -14.7297 10.6291 L -14.7061 10.5896 L -14.6826 10.5502 L -14.659 10.5107 L -14.6354 10.4713 L -14.6118 10.4318 L -14.5882 10.3923 L -14.5646 10.3528 L -14.541 10.3133 L -14.5173 10.2738 L -14.4936 10.2343 L -14.4699 10.1947 L -14.4462 10.1552 L -14.4225 10.1156 L -14.3988 10.076 L -14.375 10.0365 L -14.3512 9.99685 L -14.3275 9.95724 L -14.3037 9.91762 L -14.2798 9.87799 L -14.256 9.83834 L -14.2321 9.79869 L -14.2083 9.75902 L -14.1844 9.71934 L -14.1605 9.67964 L -14.1365 9.63994 L -14.1126 9.60022 L -14.0886 9.56049 L -14.0646 9.52075 L -14.0406 9.48099 L -14.0166 9.44122 L -13.9926 9.40144 L -13.9685 9.36165 L -13.9444 9.32184 L -13.9203 9.28203 L -13.8962 9.24219 L -13.8721 9.20235 L -13.8479 9.16249 L -13.8238 9.12262 L -13.7996 9.08274 L -13.7754 9.04284 L -13.7511 9.00293 L -13.7269 8.963 L -13.7026 8.92307 L -13.6783 8.88311 L -13.654 8.84315 L -13.6296 8.80317 L -13.6053 8.76318 L -13.5809 8.72317 L -13.5565 8.68315 L -13.5321 8.64311 L -13.5076 8.60306 L -13.4831 8.563 L -13.4587 8.52292 L -13.4341 8.48283 L -13.4096 8.44272 L -13.385 8.4026 L -13.3604 8.36246 L -13.3358 8.32231 L -13.3112 8.28215 L -13.2865 8.24196 L -13.2619 8.20177 L -13.2372 8.16156 L -13.2124 8.12133 L -13.1877 8.08109 L -13.1629 8.04083 L -13.1381 8.00056 L -13.1132 7.96027 L -13.0884 7.91996 L -13.0635 7.87964 L -13.0386 7.83931 L -13.0136 7.79896 L -12.9887 7.75859 L -12.9637 7.7182 L -12.9387 7.6778 L -12.9136 7.63739 L -12.8886 7.59695 L -12.8634 7.5565 L -12.8383 7.51604 L -12.8132 7.47555 L -12.788 7.43505 L -12.7627 7.39453 L -12.7375 7.354 L -12.7375 7.354 L -12.7852 7.3556 L -12.8329 7.35718 L -12.8806 7.35874 L -12.9282 7.36029 L -12.9758 7.36182 L -13.0234 7.36334 L -13.071 7.36483 L -13.1185 7.36632 L -13.166 7.36778 L -13.2135 7.36924 L -13.2609 7.37067 L -13.3083 7.37209 L -13.3557 7.3735 L -13.4031 7.37489 L -13.4504 7.37627 L -13.4977 7.37763 L -13.545 7.37898 L -13.5923 7.38031 L -13.6395 7.38163 L -13.6867 7.38293 L -13.7339 7.38422 L -13.781 7.3855 L -13.8281 7.38677 L -13.8753 7.38802 L -13.9223 7.38925 L -13.9694 7.39048 L -14.0164 7.39169 L -14.0634 7.39289 L -14.1104 7.39407 L -14.1573 7.39525 L -14.2043 7.39641 L -14.2512 7.39756 L -14.2981 7.39869 L -14.3449 7.39982 L -14.3918 7.40093 L -14.4386 7.40203 L -14.4854 7.40312 L -14.5322 7.4042 L -14.5789 7.40526 L -14.6256 7.40632 L -14.6723 7.40736 L -14.719 7.4084 L -14.7657 7.40942 L -14.8123 7.41043 L -14.8589 7.41143 L -14.9055 7.41242 L -14.9521 7.41339 L -14.9986 7.41436 L -15.0452 7.41532 L -15.0917 7.41627 L -15.1382 7.41721 L -15.1846 7.41813 L -15.2311 7.41905 L -15.2775 7.41996 L -15.3239 7.42086 L -15.3703 7.42174 L -15.4167 7.42262 L -15.463 7.42349 L -15.5094 7.42435 L -15.5557 7.4252 L -15.602 7.42604 L -15.6482 7.42688 L -15.6945 7.4277 L -15.7407 7.42851 L -15.787 7.42932 L -15.8332 7.43012 L -15.8793 7.4309 L -15.9255 7.43168 L -15.9716 7.43245 L -16.0178 7.43322 L -16.0639 7.43397 L -16.1099 7.43472 L -16.156 7.43545 L -16.2021 7.43618 L -16.2481 7.4369 L -16.2941 7.43762 L -16.3401 7.43832 L -16.3861 7.43902 L -16.4321 7.43971 L -16.478 7.44039 L -16.524 7.44107 L -16.5699 7.44174 L -16.6158 7.4424 L -16.6617 7.44305 L -16.7075 7.44369 L -16.7534 7.44433 L -16.7965 7.45114 L -16.8135 7.41259 L -16.8305 7.374 L -16.8473 7.33538 L -16.8641 7.29671 L -16.8808 7.25801 L -16.8974 7.21927 L -16.9139 7.18049 L -16.9304 7.14167 L -16.9467 7.10282 L -16.9629 7.06393 L -16.9791 7.025 L -16.9952 6.98603 L -17.0112 6.94703 L -17.027 6.90799 L -17.0428 6.86891 L -17.0586 6.8298 L -17.0742 6.79065 L -17.0897 6.75147 L -17.1052 6.71225 L -17.1205 6.673 L -17.1358 6.63371 L -17.1509 6.59438 L -17.166 6.55503 L -17.181 6.51563 L -17.1959 6.4762 L -17.2107 6.43674 L -17.2254 6.39725 L -17.2401 6.35772 L -17.2933 6.21141 L -17.3075 6.17172 L -17.3216 6.13201 L -17.3357 6.09226 L -17.3496 6.05248 L -17.3634 6.01266 L -17.3772 5.97282 L -17.3908 5.93294 L -17.4044 5.89304 L -17.4179 5.8531 L -17.4312 5.81313 L -17.4445 5.77313 L -17.4577 5.7331 L -17.4708 5.69304 L -17.4838 5.65295 L -17.4968 5.61283 L -17.5096 5.57268 L -17.5223 5.5325 L -17.535 5.49229 L -17.5475 5.45205 L -17.56 5.41179 L -17.5724 5.37149 L -17.5846 5.33117 L -17.5968 5.29082 L -17.6089 5.25044 L -17.6209 5.21004 L -17.6328 5.1696 L -17.6446 5.12914 L -17.6563 5.08866 L -17.6189 5.06617 L -17.5834 5.03719 L -17.5479 5.0082 L -17.5123 4.97921 L -17.4767 4.95021 L -17.4411 4.92121 L -17.4055 4.8922 L -17.3699 4.86318 L -17.3342 4.83417 L -17.2985 4.80514 L -17.2628 4.77612 L -17.2271 4.74708 L -17.1914 4.71804 L -17.1556 4.689 L -17.1199 4.65995 L -17.0841 4.6309 L -17.0483 4.60184 L -17.0125 4.57278 L -16.9766 4.54371 L -16.9408 4.51463 L -16.9049 4.48555 L -16.869 4.45647 L -16.8331 4.42738 L -16.7971 4.39828 L -16.7612 4.36918 L -16.7252 4.34008 L -16.6892 4.31097 L -16.6532 4.28185 L -16.6171 4.25273 L -16.581 4.2236 L -16.545 4.19447 L -16.5089 4.16533 L -16.4727 4.13619 L -16.4366 4.10704 L -16.4004 4.07788 L -16.3642 4.04872 L -16.328 4.01956 L -16.2918 3.99039 L -16.2555 3.96121 L -16.2192 3.93203 L -16.1829 3.90284 L -16.1466 3.87365 L -16.1102 3.84445 L -16.0738 3.81525 L -16.0374 3.78604 L -16.001 3.75682 L -15.9646 3.7276 L -15.9281 3.69837 L -15.8916 3.66914 L -15.8551 3.6399 L -15.8185 3.61066 L -15.782 3.58141 L -15.7454 3.55216 L -15.7087 3.5229 L -15.6721 3.49363 L -15.6354 3.46436 L -15.5987 3.43508 L -15.562 3.4058 L -15.5253 3.37651 L -15.4885 3.34721 L -15.4517 3.31791 L -15.4148 3.2886 L -15.378 3.25929 L -15.3411 3.22997 L -15.3042 3.20065 L -15.2672 3.17132 L -15.2303 3.14198 L -15.1933 3.11264 L -15.1562 3.08329 L -15.1192 3.05394 L -15.0821 3.02458 L -15.045 2.99521 L -15.0078 2.96584 L -14.9707 2.93646 L -14.9335 2.90708 L -14.8962 2.87769 L -14.859 2.8483 L -14.8217 2.8189 L -14.7843 2.78949 L -14.747 2.76008 L -14.7096 2.73066 L -14.6722 2.70123 L -14.6347 2.6718 L -14.5972 2.64236 L -14.5597 2.61292 L -14.5221 2.58347 L -14.4846 2.55402 L -14.4846 2.55402 L -14.5299 2.5392 L -14.5753 2.52437 L -14.6206 2.50953 L -14.6659 2.49469 L -14.7112 2.47985 L -14.7564 2.465 L -14.8016 2.45014 L -14.8468 2.43528 L -14.8919 2.42041 L -14.937 2.40554 L -14.9821 2.39067 L -15.0271 2.37578 L -15.0722 2.3609 L -15.1171 2.34601 L -15.1621 2.33111 L -15.207 2.31621 L -15.2519 2.3013 L -15.2968 2.28639 L -15.3416 2.27148 L -15.3864 2.25656 L -15.4312 2.24164 L -15.4759 2.22671 L -15.5206 2.21178 L -15.5653 2.19685 L -15.61 2.18191 L -15.6546 2.16697 L -15.6992 2.15202 L -15.7438 2.13707 L -15.7884 2.12212 L -15.8329 2.10716 L -15.8774 2.0922 L -15.9219 2.07724 L -15.9663 2.06227 L -16.0107 2.0473 L -16.0551 2.03232 L -16.0995 2.01735 L -16.1438 2.00237 L -16.1881 1.98738 L -16.2324 1.97239 L -16.2767 1.9574 L -16.3209 1.94241 L -16.3652 1.92742 L -16.4094 1.91242 L -16.4535 1.89742 L -16.4977 1.88241 L -16.5418 1.86741 L -16.5859 1.8524 L -16.63 1.83738 L -16.674 1.82237 L -16.7181 1.80735 L -16.7621 1.79233 L -16.8061 1.77731 L -16.85 1.76229 L -16.894 1.74726 L -16.9379 1.73223 L -16.9818 1.7172 L -17.0256 1.70216 L -17.0695 1.68713 L -17.1133 1.67209 L -17.1571 1.65705 L -17.2009 1.64201 L -17.2447 1.62696 L -17.2884 1.61192 L -17.3322 1.59687 L -17.3759 1.58182 L -17.4195 1.56677 L -17.4632 1.55172 L -17.5069 1.53666 L -17.5505 1.5216 L -17.5941 1.50654 L -17.6377 1.49148 L -17.6812 1.47642 L -17.7248 1.46136 L -17.7683 1.44629 L -17.8118 1.43122 L -17.8553 1.41616 L -17.8988 1.40109 L -17.9422 1.38601 L -17.9856 1.37094 L -18.029 1.35587 L -18.0724 1.34079 L -18.1158 1.32571 L -18.1592 1.31064 L -18.2025 1.29556 L -18.2458 1.28047 L -18.2891 1.26539 L -18.332 1.25705 L -18.3348 1.215 L -18.3375 1.17294 L -18.3402 1.13087 L -18.3427 1.0888 L -18.3452 1.04672 L -18.3475 1.00464 L -18.3498 0.962547 L -18.3519 0.920453 L -18.354 0.878354 L -18.356 0.83625 L -18.3578 0.794142 L -18.3596 0.75203 L -18.3613 0.709914 L -18.3629 0.667794 L -18.3643 0.625671 L -18.3657 0.583544 L -18.367 0.541415 L -18.3682 0.499282 L -18.3693 0.457147 L -18.3703 0.41501 L -18.3712 0.37287 L -18.372 0.330728 L -18.3727 0.288585 L -18.3733 0.24644 L -18.3739 0.204293 L -18.3743 0.162146 L -18.3746 0.119998 L -18.3748 0.0778492 L -18.3748 -0.0778492 L -18.3746 -0.119998 L -18.3743 -0.162146 L -18.3739 -0.204293 L -18.3733 -0.24644 L -18.3727 -0.288585 L -18.372 -0.330728 L -18.3712 -0.37287 L -18.3703 -0.41501 L -18.3693 -0.457147 L -18.3682 -0.499282 L -18.367 -0.541415 L -18.3657 -0.583544 L -18.3643 -0.625671 L -18.3629 -0.667794 L -18.3613 -0.709914 L -18.3596 -0.75203 L -18.3578 -0.794142 L -18.356 -0.83625 L -18.354 -0.878354 L -18.3519 -0.920453 L -18.3498 -0.962547 L -18.3475 -1.00464 L -18.3452 -1.04672 L -18.3427 -1.0888 L -18.3402 -1.13087 L -18.3375 -1.17294 L -18.3348 -1.215 L -18.332 -1.25705 L -18.2891 -1.26539 L -18.2458 -1.28047 L -18.2025 -1.29556 L -18.1592 -1.31064 L -18.1158 -1.32571 L -18.0724 -1.34079 L -18.029 -1.35587 L -17.9856 -1.37094 L -17.9422 -1.38601 L -17.8988 -1.40109 L -17.8553 -1.41616 L -17.8118 -1.43122 L -17.7683 -1.44629 L -17.7248 -1.46136 L -17.6812 -1.47642 L -17.6377 -1.49148 L -17.5941 -1.50654 L -17.5505 -1.5216 L -17.5069 -1.53666 L -17.4632 -1.55172 L -17.4195 -1.56677 L -17.3759 -1.58182 L -17.3322 -1.59687 L -17.2884 -1.61192 L -17.2447 -1.62696 L -17.2009 -1.64201 L -17.1571 -1.65705 L -17.1133 -1.67209 L -17.0695 -1.68713 L -17.0256 -1.70216 L -16.9818 -1.7172 L -16.9379 -1.73223 L -16.894 -1.74726 L -16.85 -1.76229 L -16.8061 -1.77731 L -16.7621 -1.79233 L -16.7181 -1.80735 L -16.674 -1.82237 L -16.63 -1.83738 L -16.5859 -1.8524 L -16.5418 -1.86741 L -16.4977 -1.88241 L -16.4535 -1.89742 L -16.4094 -1.91242 L -16.3652 -1.92742 L -16.3209 -1.94241 L -16.2767 -1.9574 L -16.2324 -1.97239 L -16.1881 -1.98738 L -16.1438 -2.00237 L -16.0995 -2.01735 L -16.0551 -2.03232 L -16.0107 -2.0473 L -15.9663 -2.06227 L -15.9219 -2.07724 L -15.8774 -2.0922 L -15.8329 -2.10716 L -15.7884 -2.12212 L -15.7438 -2.13707 L -15.6992 -2.15202 L -15.6546 -2.16697 L -15.61 -2.18191 L -15.5653 -2.19685 L -15.5206 -2.21178 L -15.4759 -2.22671 L -15.4312 -2.24164 L -15.3864 -2.25656 L -15.3416 -2.27148 L -15.2968 -2.28639 L -15.2519 -2.3013 L -15.207 -2.31621 L -15.1621 -2.33111 L -15.1171 -2.34601 L -15.0722 -2.3609 L -15.0271 -2.37578 L -14.9821 -2.39067 L -14.937 -2.40554 L -14.8919 -2.42041 L -14.8468 -2.43528 L -14.8016 -2.45014 L -14.7564 -2.465 L -14.7112 -2.47985 L -14.6659 -2.49469 L -14.6206 -2.50953 L -14.5753 -2.52437 L -14.5299 -2.5392 L -14.4846 -2.55402 L -14.4846 -2.55402 L -14.5221 -2.58347 L -14.5597 -2.61292 L -14.5972 -2.64236 L -14.6347 -2.6718 L -14.6722 -2.70123 L -14.7096 -2.73066 L -14.747 -2.76008 L -14.7843 -2.78949 L -14.8217 -2.8189 L -14.859 -2.8483 L -14.8962 -2.87769 L -14.9335 -2.90708 L -14.9707 -2.93646 L -15.0078 -2.96584 L -15.045 -2.99521 L -15.0821 -3.02458 L -15.1192 -3.05394 L -15.1562 -3.08329 L -15.1933 -3.11264 L -15.2303 -3.14198 L -15.2672 -3.17132 L -15.3042 -3.20065 L -15.3411 -3.22997 L -15.378 -3.25929 L -15.4148 -3.2886 L -15.4517 -3.31791 L -15.4885 -3.34721 L -15.5253 -3.37651 L -15.562 -3.4058 L -15.5987 -3.43508 L -15.6354 -3.46436 L -15.6721 -3.49363 L -15.7087 -3.5229 L -15.7454 -3.55216 L -15.782 -3.58141 L -15.8185 -3.61066 L -15.8551 -3.6399 L -15.8916 -3.66914 L -15.9281 -3.69837 L -15.9646 -3.7276 L -16.001 -3.75682 L -16.0374 -3.78604 L -16.0738 -3.81525 L -16.1102 -3.84445 L -16.1466 -3.87365 L -16.1829 -3.90284 L -16.2192 -3.93203 L -16.2555 -3.96121 L -16.2918 -3.99039 L -16.328 -4.01956 L -16.3642 -4.04872 L -16.4004 -4.07788 L -16.4366 -4.10704 L -16.4727 -4.13619 L -16.5089 -4.16533 L -16.545 -4.19447 L -16.581 -4.2236 L -16.6171 -4.25273 L -16.6532 -4.28185 L -16.6892 -4.31097 L -16.7252 -4.34008 L -16.7612 -4.36918 L -16.7971 -4.39828 L -16.8331 -4.42738 L -16.869 -4.45647 L -16.9049 -4.48555 L -16.9408 -4.51463 L -16.9766 -4.54371 L -17.0125 -4.57278 L -17.0483 -4.60184 L -17.0841 -4.6309 L -17.1199 -4.65995 L -17.1556 -4.689 L -17.1914 -4.71804 L -17.2271 -4.74708 L -17.2628 -4.77612 L -17.2985 -4.80514 L -17.3342 -4.83417 L -17.3699 -4.86318 L -17.4055 -4.8922 L -17.4411 -4.92121 L -17.4767 -4.95021 L -17.5123 -4.97921 L -17.5479 -5.0082 L -17.5834 -5.03719 L -17.6189 -5.06617 L -17.6563 -5.08866 L -17.6446 -5.12914 L -17.6328 -5.1696 L -17.6209 -5.21004 L -17.6089 -5.25044 L -17.5968 -5.29082 L -17.5846 -5.33117 L -17.5724 -5.37149 L -17.56 -5.41179 L -17.5475 -5.45205 L -17.535 -5.49229 L -17.5223 -5.5325 L -17.5096 -5.57268 L -17.4968 -5.61283 L -17.4838 -5.65295 L -17.4708 -5.69304 L -17.4577 -5.7331 L -17.4445 -5.77313 L -17.4312 -5.81313 L -17.4179 -5.8531 L -17.4044 -5.89304 L -17.3908 -5.93294 L -17.3772 -5.97282 L -17.3634 -6.01266 L -17.3496 -6.05248 L -17.3357 -6.09226 L -17.3216 -6.13201 L -17.3075 -6.17172 L -17.2933 -6.21141 L -17.2401 -6.35772 L -17.2254 -6.39725 L -17.2107 -6.43674 L -17.1959 -6.4762 L -17.181 -6.51563 L -17.166 -6.55503 L -17.1509 -6.59438 L -17.1358 -6.63371 L -17.1205 -6.673 L -17.1052 -6.71225 L -17.0897 -6.75147 L -17.0742 -6.79065 L -17.0586 -6.8298 L -17.0428 -6.86891 L -17.027 -6.90799 L -17.0112 -6.94703 L -16.9952 -6.98603 L -16.9791 -7.025 L -16.9629 -7.06393 L -16.9467 -7.10282 L -16.9304 -7.14167 L -16.9139 -7.18049 L -16.8974 -7.21927 L -16.8808 -7.25801 L -16.8641 -7.29671 L -16.8473 -7.33538 L -16.8305 -7.374 L -16.8135 -7.41259 L -16.7965 -7.45114 L -16.7534 -7.44433 L -16.7075 -7.44369 L -16.6617 -7.44305 L -16.6158 -7.4424 L -16.5699 -7.44174 L -16.524 -7.44107 L -16.478 -7.44039 L -16.4321 -7.43971 L -16.3861 -7.43902 L -16.3401 -7.43832 L -16.2941 -7.43762 L -16.2481 -7.4369 L -16.2021 -7.43618 L -16.156 -7.43545 L -16.1099 -7.43472 L -16.0639 -7.43397 L -16.0178 -7.43322 L -15.9716 -7.43245 L -15.9255 -7.43168 L -15.8793 -7.4309 L -15.8332 -7.43012 L -15.787 -7.42932 L -15.7407 -7.42851 L -15.6945 -7.4277 L -15.6482 -7.42688 L -15.602 -7.42604 L -15.5557 -7.4252 L -15.5094 -7.42435 L -15.463 -7.42349 L -15.4167 -7.42262 L -15.3703 -7.42174 L -15.3239 -7.42086 L -15.2775 -7.41996 L -15.2311 -7.41905 L -15.1846 -7.41813 L -15.1382 -7.41721 L -15.0917 -7.41627 L -15.0452 -7.41532 L -14.9986 -7.41436 L -14.9521 -7.41339 L -14.9055 -7.41242 L -14.8589 -7.41143 L -14.8123 -7.41043 L -14.7657 -7.40942 L -14.719 -7.4084 L -14.6723 -7.40736 L -14.6256 -7.40632 L -14.5789 -7.40526 L -14.5322 -7.4042 L -14.4854 -7.40312 L -14.4386 -7.40203 L -14.3918 -7.40093 L -14.3449 -7.39982 L -14.2981 -7.39869 L -14.2512 -7.39756 L -14.2043 -7.39641 L -14.1573 -7.39525 L -14.1104 -7.39407 L -14.0634 -7.39289 L -14.0164 -7.39169 L -13.9694 -7.39048 L -13.9223 -7.38925 L -13.8753 -7.38802 L -13.8281 -7.38677 L -13.781 -7.3855 L -13.7339 -7.38422 L -13.6867 -7.38293 L -13.6395 -7.38163 L -13.5923 -7.38031 L -13.545 -7.37898 L -13.4977 -7.37763 L -13.4504 -7.37627 L -13.4031 -7.37489 L -13.3557 -7.3735 L -13.3083 -7.37209 L -13.2609 -7.37067 L -13.2135 -7.36924 L -13.166 -7.36778 L -13.1185 -7.36632 L -13.071 -7.36483 L -13.0234 -7.36334 L -12.9758 -7.36182 L -12.9282 -7.36029 L -12.8806 -7.35874 L -12.8329 -7.35718 L -12.7852 -7.3556 L -12.7375 -7.354 L -12.7375 -7.354 L -12.7627 -7.39453 L -12.788 -7.43505 L -12.8132 -7.47555 L -12.8383 -7.51604 L -12.8634 -7.5565 L -12.8886 -7.59695 L -12.9136 -7.63739 L -12.9387 -7.6778 L -12.9637 -7.7182 L -12.9887 -7.75859 L -13.0136 -7.79896 L -13.0386 -7.83931 L -13.0635 -7.87964 L -13.0884 -7.91996 L -13.1132 -7.96027 L -13.1381 -8.00056 L -13.1629 -8.04083 L -13.1877 -8.08109 L -13.2124 -8.12133 L -13.2372 -8.16156 L -13.2619 -8.20177 L -13.2865 -8.24196 L -13.3112 -8.28215 L -13.3358 -8.32231 L -13.3604 -8.36246 L -13.385 -8.4026 L -13.4096 -8.44272 L -13.4341 -8.48283 L -13.4587 -8.52292 L -13.4831 -8.563 L -13.5076 -8.60306 L -13.5321 -8.64311 L -13.5565 -8.68315 L -13.5809 -8.72317 L -13.6053 -8.76318 L -13.6296 -8.80317 L -13.654 -8.84315 L -13.6783 -8.88311 L -13.7026 -8.92307 L -13.7269 -8.963 L -13.7511 -9.00293 L -13.7754 -9.04284 L -13.7996 -9.08274 L -13.8238 -9.12262 L -13.8479 -9.16249 L -13.8721 -9.20235 L -13.8962 -9.24219 L -13.9203 -9.28203 L -13.9444 -9.32184 L -13.9685 -9.36165 L -13.9926 -9.40144 L -14.0166 -9.44122 L -14.0406 -9.48099 L -14.0646 -9.52075 L -14.0886 -9.56049 L -14.1126 -9.60022 L -14.1365 -9.63994 L -14.1605 -9.67964 L -14.1844 -9.71934 L -14.2083 -9.75902 L -14.2321 -9.79869 L -14.256 -9.83834 L -14.2798 -9.87799 L -14.3037 -9.91762 L -14.3275 -9.95724 L -14.3512 -9.99685 L -14.375 -10.0365 L -14.3988 -10.076 L -14.4225 -10.1156 L -14.4462 -10.1552 L -14.4699 -10.1947 L -14.4936 -10.2343 L -14.5173 -10.2738 L -14.541 -10.3133 L -14.5646 -10.3528 L -14.5882 -10.3923 L -14.6118 -10.4318 L -14.6354 -10.4713 L -14.659 -10.5107 L -14.6826 -10.5502 L -14.7061 -10.5896 L -14.7297 -10.6291 L -14.7532 -10.6685 L -14.7767 -10.7079 L -14.8002 -10.7473 L -14.8237 -10.7867 L -14.8511 -10.8206 L -14.8262 -10.8546 L -14.8013 -10.8886 L -14.7763 -10.9225 L -14.7512 -10.9564 L -14.726 -10.9902 L -14.7008 -11.024 L -14.6755 -11.0577 L -14.6501 -11.0913 L -14.6246 -11.1249 L -14.599 -11.1584 L -14.5734 -11.1918 L -14.5477 -11.2252 L -14.5219 -11.2586 L -14.496 -11.2919 L -14.4701 -11.3251 L -14.4441 -11.3582 L -14.418 -11.3913 L -14.3918 -11.4244 L -14.3656 -11.4574 L -14.3392 -11.4903 L -14.3128 -11.5232 L -14.2864 -11.556 L -14.2598 -11.5887 L -14.2332 -11.6214 L -14.2065 -11.654 L -14.1797 -11.6866 L -14.1529 -11.719 L -14.126 -11.7515 L -14.0259 -11.8708 L -13.9986 -11.9029 L -13.9713 -11.935 L -13.9439 -11.967 L -13.9164 -11.9989 L -13.8888 -12.0308 L -13.8612 -12.0627 L -13.8335 -12.0944 L -13.8057 -12.1261 L -13.7779 -12.1578 L -13.7499 -12.1893 L -13.7219 -12.2208 L -13.6939 -12.2523 L -13.6657 -12.2837 L -13.6375 -12.315 L -13.6092 -12.3462 L -13.5809 -12.3774 L -13.5524 -12.4085 L -13.524 -12.4396 L -13.4954 -12.4706 L -13.4667 -12.5015 L -13.438 -12.5324 L -13.4092 -12.5632 L -13.3804 -12.5939 L -13.3515 -12.6245 L -13.3225 -12.6551 L -13.2934 -12.6857 L -13.2643 -12.7161 L -13.2351 -12.7465 L -13.1969 -12.7254 L -13.154 -12.7091 L -13.1112 -12.6928 L -13.0683 -12.6765 L -13.0254 -12.6602 L -12.9824 -12.6438 L -12.9395 -12.6275 L -12.8966 -12.6111 L -12.8536 -12.5948 L -12.8106 -12.5784 L -12.7677 -12.562 L -12.7247 -12.5456 L -12.6816 -12.5292 L -12.6386 -12.5127 L -12.5956 -12.4963 L -12.5525 -12.4798 L -12.5095 -12.4633 L -12.4664 -12.4468 L -12.4233 -12.4303 L -12.3802 -12.4138 L -12.337 -12.3973 L -12.2939 -12.3807 L -12.2508 -12.3642 L -12.2076 -12.3476 L -12.1644 -12.331 L -12.1212 -12.3144 L -12.078 -12.2978 L -12.0348 -12.2811 L -11.9915 -12.2645 L -11.9483 -12.2478 L -11.905 -12.2311 L -11.8617 -12.2144 L -11.8184 -12.1977 L -11.7751 -12.181 L -11.7318 -12.1642 L -11.6884 -12.1475 L -11.645 -12.1307 L -11.6017 -12.1139 L -11.5583 -12.0971 L -11.5148 -12.0802 L -11.4714 -12.0634 L -11.428 -12.0465 L -11.3845 -12.0296 L -11.341 -12.0127 L -11.2975 -11.9958 L -11.254 -11.9789 L -11.2105 -11.9619 L -11.1669 -11.9449 L -11.1234 -11.928 L -11.0798 -11.911 L -11.0362 -11.8939 L -10.9926 -11.8769 L -10.9489 -11.8598 L -10.9053 -11.8427 L -10.8616 -11.8256 L -10.8179 -11.8085 L -10.7742 -11.7914 L -10.7305 -11.7742 L -10.6868 -11.757 L -10.643 -11.7398 L -10.5992 -11.7226 L -10.5554 -11.7053 L -10.5116 -11.6881 L -10.4678 -11.6708 L -10.4239 -11.6535 L -10.3801 -11.6362 L -10.3362 -11.6188 L -10.2923 -11.6014 L -10.2483 -11.584 L -10.2044 -11.5666 L -10.1604 -11.5492 L -10.1164 -11.5317 L -10.0724 -11.5143 L -10.0284 -11.4967 L -9.98434 -11.4792 L -9.94027 -11.4617 L -9.89618 -11.4441 L -9.85207 -11.4265 L -9.80794 -11.4089 L -9.76378 -11.3912 L -9.71961 -11.3735 L -9.67542 -11.3559 L -9.6312 -11.3381 L -9.58696 -11.3204 L -9.5427 -11.3026 L -9.49842 -11.2848 L -9.45412 -11.267 L -9.45412 -11.267 L -9.46398 -11.3137 L -9.47382 -11.3604 L -9.48364 -11.4071 L -9.49344 -11.4537 L -9.50321 -11.5003 L -9.51297 -11.5469 L -9.5227 -11.5935 L -9.53241 -11.6401 L -9.5421 -11.6866 L -9.55178 -11.7331 L -9.56143 -11.7796 L -9.57106 -11.826 L -9.58068 -11.8724 L -9.59027 -11.9188 L -9.59984 -11.9652 L -9.6094 -12.0116 L -9.61894 -12.0579 L -9.62846 -12.1042 L -9.63796 -12.1505 L -9.64744 -12.1967 L -9.6569 -12.243 L -9.66635 -12.2892 L -9.67578 -12.3354 L -9.68519 -12.3815 L -9.69458 -12.4277 L -9.70396 -12.4738 L -9.71332 -12.5199 L -9.72266 -12.566 L -9.73199 -12.6121 L -9.7413 -12.6581 L -9.75059 -12.7041 L -9.75986 -12.7501 L -9.76913 -12.7961 L -9.77837 -12.842 L -9.7876 -12.888 L -9.79681 -12.9339 L -9.80601 -12.9798 L -9.81519 -13.0257 L -9.82436 -13.0715 L -9.83351 -13.1173 L -9.84265 -13.1631 L -9.85177 -13.2089 L -9.86088 -13.2547 L -9.86998 -13.3005 L -9.87906 -13.3462 L -9.88812 -13.3919 L -9.89717 -13.4376 L -9.90621 -13.4833 L -9.91523 -13.5289 L -9.92424 -13.5746 L -9.93324 -13.6202 L -9.94222 -13.6658 L -9.95119 -13.7114 L -9.96015 -13.757 L -9.96909 -13.8025 L -9.97802 -13.848 L -9.98694 -13.8936 L -9.99584 -13.939 L -10.0047 -13.9845 L -10.0136 -14.03 L -10.0225 -14.0754 L -10.0313 -14.1209 L -10.0402 -14.1663 L -10.049 -14.2117 L -10.0578 -14.257 L -10.0666 -14.3024 L -10.0754 -14.3477 L -10.0842 -14.393 L -10.093 -14.4384 L -10.1017 -14.4836 L -10.1105 -14.5289 L -10.1192 -14.5742 L -10.128 -14.6194 L -10.1367 -14.6646 L -10.1454 -14.7099 L -10.1541 -14.7551 L -10.1628 -14.8002 L -10.1714 -14.8454 L -10.1801 -14.8905 L -10.1887 -14.9357 L -10.1974 -14.9808 L -10.206 -15.0259 L -10.2146 -15.071 L -10.2232 -15.1161 L -10.2318 -15.1611 L -10.2404 -15.2062 L -10.2546 -15.2474 L -10.2196 -15.2709 L -10.1846 -15.2943 L -10.1494 -15.3176 L -10.1143 -15.3409 L -10.0791 -15.364 L -10.0438 -15.3871 L -10.0085 -15.4101 L -9.9731 -15.433 L -9.93767 -15.4558 L -9.90219 -15.4786 L -9.86666 -15.5013 L -9.83108 -15.5239 L -9.79544 -15.5464 L -9.75976 -15.5688 L -9.72402 -15.5912 L -9.68823 -15.6134 L -9.65239 -15.6356 L -9.6165 -15.6577 L -9.58056 -15.6797 L -9.54457 -15.7017 L -9.50852 -15.7235 L -9.47243 -15.7453 L -9.43629 -15.767 L -9.4001 -15.7886 L -9.36386 -15.8101 L -9.32756 -15.8315 L -9.29123 -15.8529 L -9.25484 -15.8741 L -9.12 -15.952 L -9.08338 -15.9729 L -9.04672 -15.9937 L -9.01001 -16.0144 L -8.97325 -16.035 L -8.93645 -16.0555 L -8.89959 -16.076 L -8.86269 -16.0964 L -8.82575 -16.1167 L -8.78876 -16.1369 L -8.75172 -16.157 L -8.71463 -16.177 L -8.6775 -16.197 L -8.64033 -16.2168 L -8.6031 -16.2366 L -8.56584 -16.2563 L -8.52853 -16.2759 L -8.49117 -16.2954 L -8.45377 -16.3149 L -8.41632 -16.3342 L -8.37883 -16.3535 L -8.3413 -16.3726 L -8.30372 -16.3917 L -8.2661 -16.4107 L -8.22843 -16.4297 L -8.19072 -16.4485 L -8.15297 -16.4672 L -8.11518 -16.4859 L -8.07734 -16.5045 L -8.0487 -16.4715 L -8.01399 -16.4416 L -7.97927 -16.4116 L -7.94454 -16.3816 L -7.9098 -16.3516 L -7.87506 -16.3216 L -7.84031 -16.2915 L -7.80555 -16.2615 L -7.77078 -16.2314 L -7.736 -16.2013 L -7.70122 -16.1712 L -7.66642 -16.1411 L -7.63162 -16.1109 L -7.59681 -16.0808 L -7.56199 -16.0506 L -7.52717 -16.0204 L -7.49233 -15.9902 L -7.45749 -15.96 L -7.42264 -15.9297 L -7.38778 -15.8994 L -7.35291 -15.8692 L -7.31803 -15.8388 L -7.28315 -15.8085 L -7.24825 -15.7782 L -7.21335 -15.7478 L -7.17844 -15.7174 L -7.14352 -15.687 L -7.10859 -15.6566 L -7.07365 -15.6262 L -7.0387 -15.5957 L -7.00375 -15.5652 L -6.96878 -15.5347 L -6.93381 -15.5042 L -6.89882 -15.4737 L -6.86383 -15.4431 L -6.82883 -15.4125 L -6.79382 -15.3819 L -6.7588 -15.3513 L -6.72377 -15.3207 L -6.68873 -15.29 L -6.65368 -15.2593 L -6.61862 -15.2286 L -6.58355 -15.1979 L -6.54848 -15.1671 L -6.51339 -15.1364 L -6.47829 -15.1056 L -6.44319 -15.0747 L -6.40807 -15.0439 L -6.37295 -15.013 L -6.33781 -14.9821 L -6.30267 -14.9512 L -6.26751 -14.9203 L -6.23235 -14.8893 L -6.19717 -14.8584 L -6.16199 -14.8273 L -6.12679 -14.7963 L -6.09158 -14.7653 L -6.05637 -14.7342 L -6.02114 -14.7031 L -5.98591 -14.6719 L -5.95066 -14.6408 L -5.9154 -14.6096 L -5.88013 -14.5784 L -5.84486 -14.5472 L -5.80957 -14.5159 L -5.77427 -14.4846 L -5.73896 -14.4533 L -5.70364 -14.4219 L -5.6683 -14.3906 L -5.63296 -14.3592 L -5.59761 -14.3278 L -5.56224 -14.2963 L -5.52687 -14.2648 L -5.49148 -14.2333 L -5.45608 -14.2018 L -5.42068 -14.1702 L -5.38526 -14.1386 L -5.34983 -14.107 L -5.31438 -14.0753 L -5.27893 -14.0437 L -5.24346 -14.0119 L -5.20799 -13.9802 L -5.1725 -13.9484 L -5.137 -13.9166 L -5.10149 -13.8848 L -5.06597 -13.8529 L -5.03043 -13.821 L -5.03043 -13.821 L -5.02372 -13.8683 L -5.01699 -13.9155 L -5.01025 -13.9627 L -5.00351 -14.0099 L -4.99675 -14.0571 L -4.98998 -14.1042 L -4.98319 -14.1513 L -4.9764 -14.1984 L -4.9696 -14.2454 L -4.96278 -14.2924 L -4.95596 -14.3394 L -4.94913 -14.3863 L -4.94228 -14.4332 L -4.93543 -14.4801 L -4.92856 -14.5269 L -4.92169 -14.5738 L -4.91481 -14.6206 L -4.90791 -14.6673 L -4.90101 -14.7141 L -4.8941 -14.7608 L -4.88718 -14.8075 L -4.88025 -14.8541 L -4.87331 -14.9008 L -4.86636 -14.9474 L -4.85941 -14.9939 L -4.85244 -15.0405 L -4.84547 -15.087 L -4.83849 -15.1335 L -4.8315 -15.18 L -4.8245 -15.2264 L -4.81749 -15.2729 L -4.81048 -15.3193 L -4.80346 -15.3656 L -4.79643 -15.412 L -4.78939 -15.4583 L -4.78234 -15.5046 L -4.77529 -15.5509 L -4.76823 -15.5971 L -4.76116 -15.6433 L -4.75409 -15.6895 L -4.74701 -15.7357 L -4.73992 -15.7818 L -4.73282 -15.828 L -4.72572 -15.8741 L -4.71861 -15.9202 L -4.71149 -15.9662 L -4.70437 -16.0123 L -4.69723 -16.0583 L -4.6901 -16.1043 L -4.68295 -16.1502 L -4.6758 -16.1962 L -4.66865 -16.2421 L -4.66149 -16.288 L -4.65432 -16.3339 L -4.64714 -16.3797 L -4.63996 -16.4256 L -4.63278 -16.4714 L -4.62558 -16.5172 L -4.61838 -16.563 L -4.61118 -16.6087 L -4.60397 -16.6545 L -4.59676 -16.7002 L -4.58953 -16.7459 L -4.58231 -16.7915 L -4.57508 -16.8372 L -4.56784 -16.8828 L -4.5606 -16.9284 L -4.55335 -16.974 L -4.54609 -17.0196 L -4.53884 -17.0652 L -4.53157 -17.1107 L -4.5243 -17.1562 L -4.51703 -17.2017 L -4.50975 -17.2472 L -4.50247 -17.2927 L -4.49518 -17.3381 L -4.48789 -17.3835 L -4.48059 -17.4289 L -4.47329 -17.4743 L -4.46598 -17.5197 L -4.45867 -17.565 L -4.45135 -17.6104 L -4.44403 -17.6557 L -4.43671 -17.701 L -4.42938 -17.7463 L -4.42204 -17.7915 L -4.42126 -17.8352 L -4.38034 -17.8453 L -4.33939 -17.8553 L -4.29843 -17.8652 L -4.25743 -17.875 L -4.21642 -17.8847 L -4.17539 -17.8943 L -4.13433 -17.9039 L -4.09325 -17.9133 L -4.05215 -17.9226 L -4.01102 -17.9319 L -3.96988 -17.941 L -3.92872 -17.9501 L -3.88753 -17.9591 L -3.84633 -17.9679 L -3.8051 -17.9767 L -3.76385 -17.9854 L -3.72259 -17.994 L -3.6813 -18.0025 L -3.64 -18.0109 L -3.59868 -18.0192 L -3.55733 -18.0274 L -3.51597 -18.0355 L -3.47459 -18.0435 L -3.43319 -18.0514 L -3.39178 -18.0592 L -3.35034 -18.067 L -3.30889 -18.0746 L -3.26742 -18.0822 L -3.11409 -18.1092 L -3.07254 -18.1163 L -3.03098 -18.1233 L -2.9894 -18.1302 L -2.9478 -18.137 L -2.90619 -18.1437 L -2.86456 -18.1503 L -2.82292 -18.1569 L -2.78127 -18.1633 L -2.7396 -18.1696 L -2.69791 -18.1759 L -2.65621 -18.182 L -2.6145 -18.188 L -2.57277 -18.194 L -2.53103 -18.1998 L -2.48927 -18.2056 L -2.44751 -18.2113 L -2.40573 -18.2168 L -2.36393 -18.2223 L -2.32213 -18.2277 L -2.28031 -18.233 L -2.23848 -18.2381 L -2.19664 -18.2432 L -2.15479 -18.2482 L -2.11292 -18.2531 L -2.07105 -18.2579 L -2.02916 -18.2626 L -1.98726 -18.2672 L -1.94536 -18.2717 L -1.92971 -18.231 L -1.90733 -18.191 L -1.88496 -18.1509 L -1.86258 -18.1109 L -1.8402 -18.0708 L -1.81782 -18.0307 L -1.79544 -17.9906 L -1.77306 -17.9505 L -1.75067 -17.9103 L -1.72829 -17.8701 L -1.7059 -17.8299 L -1.68351 -17.7897 L -1.66111 -17.7495 L -1.63872 -17.7093 L -1.61632 -17.669 L -1.59392 -17.6287 L -1.57152 -17.5884 L -1.54912 -17.5481 L -1.52672 -17.5077 L -1.50431 -17.4674 L -1.48191 -17.427 L -1.4595 -17.3866 L -1.43709 -17.3461 L -1.41467 -17.3057 L -1.39226 -17.2652 L -1.36985 -17.2247 L -1.34743 -17.1842 L -1.32501 -17.1437 L -1.30259 -17.1031 L -1.28017 -17.0626 L -1.25774 -17.022 L -1.23532 -16.9813 L -1.21289 -16.9407 L -1.19046 -16.9 L -1.16803 -16.8594 L -1.1456 -16.8186 L -1.12317 -16.7779 L -1.10073 -16.7372 L -1.0783 -16.6964 L -1.05586 -16.6556 L -1.03342 -16.6148 L -1.01098 -16.5739 L -0.988535 -16.533 L -0.966092 -16.4922 L -0.943647 -16.4512 L -0.9212 -16.4103 L -0.898752 -16.3693 L -0.876303 -16.3283 L -0.853852 -16.2873 L -0.8314 -16.2463 L -0.808947 -16.2052 L -0.786493 -16.1641 L -0.764037 -16.123 L -0.74158 -16.0818 L -0.719122 -16.0407 L -0.696662 -15.9995 L -0.674202 -15.9582 L -0.65174 -15.917 L -0.629277 -15.8757 L -0.606814 -15.8344 L -0.584349 -15.7931 L -0.561883 -15.7517 L -0.539416 -15.7103 L -0.516948 -15.6689 L -0.494479 -15.6275 L -0.472009 -15.586 L -0.449539 -15.5445 L -0.427067 -15.503 L -0.404595 -15.4614 L -0.382122 -15.4198 L -0.359648 -15.3782 L -0.337174 -15.3365 L -0.314699 -15.2949 L -0.292223 -15.2531 L -0.269747 -15.2114 L -0.24727 -15.1696 L -0.224792 -15.1278 L -0.202315 -15.086 L -0.179836 -15.0441 L -0.157358 -15.0022 L -0.134879 -14.9603 L -0.112399 -14.9183 L -0.0899198 -14.8763 L -0.06744 -14.8343 L -0.0449601 -14.7922 L -0.0224801 -14.7501 L 4.44089e-16 -14.708 L -5.84772e-15 -14.708 L 0.0224801 -14.7501 L 0.0449601 -14.7922 L 0.06744 -14.8343 L 0.0899198 -14.8763 L 0.112399 -14.9183 L 0.134879 -14.9603 L 0.157358 -15.0022 L 0.179836 -15.0441 L 0.202315 -15.086 L 0.224792 -15.1278 L 0.24727 -15.1696 L 0.269747 -15.2114 L 0.292223 -15.2531 L 0.314699 -15.2949 L 0.337174 -15.3365 L 0.359648 -15.3782 L 0.382122 -15.4198 L 0.404595 -15.4614 L 0.427067 -15.503 L 0.449539 -15.5445 L 0.472009 -15.586 L 0.494479 -15.6275 L 0.516948 -15.6689 L 0.539416 -15.7103 L 0.561883 -15.7517 L 0.584349 -15.7931 L 0.606814 -15.8344 L 0.629277 -15.8757 L 0.65174 -15.917 L 0.674202 -15.9582 L 0.696662 -15.9995 L 0.719122 -16.0407 L 0.74158 -16.0818 L 0.764037 -16.123 L 0.786493 -16.1641 L 0.808947 -16.2052 L 0.8314 -16.2463 L 0.853852 -16.2873 L 0.876303 -16.3283 L 0.898752 -16.3693 L 0.9212 -16.4103 L 0.943647 -16.4512 L 0.966092 -16.4922 L 0.988535 -16.533 L 1.01098 -16.5739 L 1.03342 -16.6148 L 1.05586 -16.6556 L 1.0783 -16.6964 L 1.10073 -16.7372 L 1.12317 -16.7779 L 1.1456 -16.8186 L 1.16803 -16.8594 L 1.19046 -16.9 L 1.21289 -16.9407 L 1.23532 -16.9813 L 1.25774 -17.022 L 1.28017 -17.0626 L 1.30259 -17.1031 L 1.32501 -17.1437 L 1.34743 -17.1842 L 1.36985 -17.2247 L 1.39226 -17.2652 L 1.41467 -17.3057 L 1.43709 -17.3461 L 1.4595 -17.3866 L 1.48191 -17.427 L 1.50431 -17.4674 L 1.52672 -17.5077 L 1.54912 -17.5481 L 1.57152 -17.5884 L 1.59392 -17.6287 L 1.61632 -17.669 L 1.63872 -17.7093 L 1.66111 -17.7495 L 1.68351 -17.7897 L 1.7059 -17.8299 L 1.72829 -17.8701 L 1.75067 -17.9103 L 1.77306 -17.9505 L 1.79544 -17.9906 L 1.81782 -18.0307 L 1.8402 -18.0708 L 1.86258 -18.1109 L 1.88496 -18.1509 L 1.90733 -18.191 L 1.92971 -18.231 L 1.94536 -18.2717 L 1.98726 -18.2672 L 2.02916 -18.2626 L 2.07105 -18.2579 L 2.11292 -18.2531 L 2.15479 -18.2482 L 2.19664 -18.2432 L 2.23848 -18.2381 L 2.28031 -18.233 L 2.32213 -18.2277 L 2.36393 -18.2223 L 2.40573 -18.2168 L 2.44751 -18.2113 L 2.48927 -18.2056 L 2.53103 -18.1998 L 2.57277 -18.194 L 2.6145 -18.188 L 2.65621 -18.182 L 2.69791 -18.1759 L 2.7396 -18.1696 L 2.78127 -18.1633 L 2.82292 -18.1569 L 2.86456 -18.1503 L 2.90619 -18.1437 L 2.9478 -18.137 L 2.9894 -18.1302 L 3.03098 -18.1233 L 3.07254 -18.1163 L 3.11409 -18.1092 L 3.26742 -18.0822 L 3.30889 -18.0746 L 3.35034 -18.067 L 3.39178 -18.0592 L 3.43319 -18.0514 L 3.47459 -18.0435 L 3.51597 -18.0355 L 3.55733 -18.0274 L 3.59868 -18.0192 L 3.64 -18.0109 L 3.6813 -18.0025 L 3.72259 -17.994 L 3.76385 -17.9854 L 3.8051 -17.9767 L 3.84633 -17.9679 L 3.88753 -17.9591 L 3.92872 -17.9501 L 3.96988 -17.941 L 4.01102 -17.9319 L 4.05215 -17.9226 L 4.09325 -17.9133 L 4.13433 -17.9039 L 4.17539 -17.8943 L 4.21642 -17.8847 L 4.25743 -17.875 L 4.29843 -17.8652 L 4.33939 -17.8553 L 4.38034 -17.8453 L 4.42126 -17.8352 L 4.42204 -17.7915 L 4.42938 -17.7463 L 4.43671 -17.701 L 4.44403 -17.6557 L 4.45135 -17.6104 L 4.45867 -17.565 L 4.46598 -17.5197 L 4.47329 -17.4743 L 4.48059 -17.4289 L 4.48789 -17.3835 L 4.49518 -17.3381 L 4.50247 -17.2927 L 4.50975 -17.2472 L 4.51703 -17.2017 L 4.5243 -17.1562 L 4.53157 -17.1107 L 4.53884 -17.0652 L 4.54609 -17.0196 L 4.55335 -16.974 L 4.5606 -16.9284 L 4.56784 -16.8828 L 4.57508 -16.8372 L 4.58231 -16.7915 L 4.58953 -16.7459 L 4.59676 -16.7002 L 4.60397 -16.6545 L 4.61118 -16.6087 L 4.61838 -16.563 L 4.62558 -16.5172 L 4.63278 -16.4714 L 4.63996 -16.4256 L 4.64714 -16.3797 L 4.65432 -16.3339 L 4.66149 -16.288 L 4.66865 -16.2421 L 4.6758 -16.1962 L 4.68295 -16.1502 L 4.6901 -16.1043 L 4.69723 -16.0583 L 4.70437 -16.0123 L 4.71149 -15.9662 L 4.71861 -15.9202 L 4.72572 -15.8741 L 4.73282 -15.828 L 4.73992 -15.7818 L 4.74701 -15.7357 L 4.75409 -15.6895 L 4.76116 -15.6433 L 4.76823 -15.5971 L 4.77529 -15.5509 L 4.78234 -15.5046 L 4.78939 -15.4583 L 4.79643 -15.412 L 4.80346 -15.3656 L 4.81048 -15.3193 L 4.81749 -15.2729 L 4.8245 -15.2264 L 4.8315 -15.18 L 4.83849 -15.1335 L 4.84547 -15.087 L 4.85244 -15.0405 L 4.85941 -14.9939 L 4.86636 -14.9474 L 4.87331 -14.9008 L 4.88025 -14.8541 L 4.88718 -14.8075 L 4.8941 -14.7608 L 4.90101 -14.7141 L 4.90791 -14.6673 L 4.91481 -14.6206 L 4.92169 -14.5738 L 4.92856 -14.5269 L 4.93543 -14.4801 L 4.94228 -14.4332 L 4.94913 -14.3863 L 4.95596 -14.3394 L 4.96278 -14.2924 L 4.9696 -14.2454 L 4.9764 -14.1984 L 4.98319 -14.1513 L 4.98998 -14.1042 L 4.99675 -14.0571 L 5.00351 -14.0099 L 5.01025 -13.9627 L 5.01699 -13.9155 L 5.02372 -13.8683 L 5.03043 -13.821 L 5.03043 -13.821 L 5.06597 -13.8529 L 5.10149 -13.8848 L 5.137 -13.9166 L 5.1725 -13.9484 L 5.20799 -13.9802 L 5.24346 -14.0119 L 5.27893 -14.0437 L 5.31438 -14.0753 L 5.34983 -14.107 L 5.38526 -14.1386 L 5.42068 -14.1702 L 5.45608 -14.2018 L 5.49148 -14.2333 L 5.52687 -14.2648 L 5.56224 -14.2963 L 5.59761 -14.3278 L 5.63296 -14.3592 L 5.6683 -14.3906 L 5.70364 -14.4219 L 5.73896 -14.4533 L 5.77427 -14.4846 L 5.80957 -14.5159 L 5.84486 -14.5472 L 5.88013 -14.5784 L 5.9154 -14.6096 L 5.95066 -14.6408 L 5.98591 -14.6719 L 6.02114 -14.7031 L 6.05637 -14.7342 L 6.09158 -14.7653 L 6.12679 -14.7963 L 6.16199 -14.8273 L 6.19717 -14.8584 L 6.23235 -14.8893 L 6.26751 -14.9203 L 6.30267 -14.9512 L 6.33781 -14.9821 L 6.37295 -15.013 L 6.40807 -15.0439 L 6.44319 -15.0747 L 6.47829 -15.1056 L 6.51339 -15.1364 L 6.54848 -15.1671 L 6.58355 -15.1979 L 6.61862 -15.2286 L 6.65368 -15.2593 L 6.68873 -15.29 L 6.72377 -15.3207 L 6.7588 -15.3513 L 6.79382 -15.3819 L 6.82883 -15.4125 L 6.86383 -15.4431 L 6.89882 -15.4737 L 6.93381 -15.5042 L 6.96878 -15.5347 L 7.00375 -15.5652 L 7.0387 -15.5957 L 7.07365 -15.6262 L 7.10859 -15.6566 L 7.14352 -15.687 L 7.17844 -15.7174 L 7.21335 -15.7478 L 7.24825 -15.7782 L 7.28315 -15.8085 L 7.31803 -15.8388 L 7.35291 -15.8692 L 7.38778 -15.8994 L 7.42264 -15.9297 L 7.45749 -15.96 L 7.49233 -15.9902 L 7.52717 -16.0204 L 7.56199 -16.0506 L 7.59681 -16.0808 L 7.63162 -16.1109 L 7.66642 -16.1411 L 7.70122 -16.1712 L 7.736 -16.2013 L 7.77078 -16.2314 L 7.80555 -16.2615 L 7.84031 -16.2915 L 7.87506 -16.3216 L 7.9098 -16.3516 L 7.94454 -16.3816 L 7.97927 -16.4116 L 8.01399 -16.4416 L 8.0487 -16.4715 L 8.07734 -16.5045 L 8.11518 -16.4859 L 8.15297 -16.4672 L 8.19072 -16.4485 L 8.22843 -16.4297 L 8.2661 -16.4107 L 8.30372 -16.3917 L 8.3413 -16.3726 L 8.37883 -16.3535 L 8.41632 -16.3342 L 8.45377 -16.3149 L 8.49117 -16.2954 L 8.52853 -16.2759 L 8.56584 -16.2563 L 8.6031 -16.2366 L 8.64033 -16.2168 L 8.6775 -16.197 L 8.71463 -16.177 L 8.75172 -16.157 L 8.78876 -16.1369 L 8.82575 -16.1167 L 8.86269 -16.0964 L 8.89959 -16.076 L 8.93645 -16.0555 L 8.97325 -16.035 L 9.01001 -16.0144 L 9.04672 -15.9937 L 9.08338 -15.9729 L 9.12 -15.952 L 9.25484 -15.8741 L 9.29123 -15.8529 L 9.32756 -15.8315 L 9.36386 -15.8101 L 9.4001 -15.7886 L 9.43629 -15.767 L 9.47243 -15.7453 L 9.50852 -15.7235 L 9.54457 -15.7017 L 9.58056 -15.6797 L 9.6165 -15.6577 L 9.65239 -15.6356 L 9.68823 -15.6134 L 9.72402 -15.5912 L 9.75976 -15.5688 L 9.79544 -15.5464 L 9.83108 -15.5239 L 9.86666 -15.5013 L 9.90219 -15.4786 L 9.93767 -15.4558 L 9.9731 -15.433 L 10.0085 -15.4101 L 10.0438 -15.3871 L 10.0791 -15.364 L 10.1143 -15.3409 L 10.1494 -15.3176 L 10.1846 -15.2943 L 10.2196 -15.2709 L 10.2546 -15.2474 L 10.2404 -15.2062 L 10.2318 -15.1611 L 10.2232 -15.1161 L 10.2146 -15.071 L 10.206 -15.0259 L 10.1974 -14.9808 L 10.1887 -14.9357 L 10.1801 -14.8905 L 10.1714 -14.8454 L 10.1628 -14.8002 L 10.1541 -14.7551 L 10.1454 -14.7099 L 10.1367 -14.6646 L 10.128 -14.6194 L 10.1192 -14.5742 L 10.1105 -14.5289 L 10.1017 -14.4836 L 10.093 -14.4384 L 10.0842 -14.393 L 10.0754 -14.3477 L 10.0666 -14.3024 L 10.0578 -14.257 L 10.049 -14.2117 L 10.0402 -14.1663 L 10.0313 -14.1209 L 10.0225 -14.0754 L 10.0136 -14.03 L 10.0047 -13.9845 L 9.99584 -13.939 L 9.98694 -13.8936 L 9.97802 -13.848 L 9.96909 -13.8025 L 9.96015 -13.757 L 9.95119 -13.7114 L 9.94222 -13.6658 L 9.93324 -13.6202 L 9.92424 -13.5746 L 9.91523 -13.5289 L 9.90621 -13.4833 L 9.89717 -13.4376 L 9.88812 -13.3919 L 9.87906 -13.3462 L 9.86998 -13.3005 L 9.86088 -13.2547 L 9.85177 -13.2089 L 9.84265 -13.1631 L 9.83351 -13.1173 L 9.82436 -13.0715 L 9.81519 -13.0257 L 9.80601 -12.9798 L 9.79681 -12.9339 L 9.7876 -12.888 L 9.77837 -12.842 L 9.76913 -12.7961 L 9.75986 -12.7501 L 9.75059 -12.7041 L 9.7413 -12.6581 L 9.73199 -12.6121 L 9.72266 -12.566 L 9.71332 -12.5199 L 9.70396 -12.4738 L 9.69458 -12.4277 L 9.68519 -12.3815 L 9.67578 -12.3354 L 9.66635 -12.2892 L 9.6569 -12.243 L 9.64744 -12.1967 L 9.63796 -12.1505 L 9.62846 -12.1042 L 9.61894 -12.0579 L 9.6094 -12.0116 L 9.59984 -11.9652 L 9.59027 -11.9188 L 9.58068 -11.8724 L 9.57106 -11.826 L 9.56143 -11.7796 L 9.55178 -11.7331 L 9.5421 -11.6866 L 9.53241 -11.6401 L 9.5227 -11.5935 L 9.51297 -11.5469 L 9.50321 -11.5003 L 9.49344 -11.4537 L 9.48364 -11.4071 L 9.47382 -11.3604 L 9.46398 -11.3137 L 9.45412 -11.267 L 9.45412 -11.267 L 9.49842 -11.2848 L 9.5427 -11.3026 L 9.58696 -11.3204 L 9.6312 -11.3381 L 9.67542 -11.3559 L 9.71961 -11.3735 L 9.76378 -11.3912 L 9.80794 -11.4089 L 9.85207 -11.4265 L 9.89618 -11.4441 L 9.94027 -11.4617 L 9.98434 -11.4792 L 10.0284 -11.4967 L 10.0724 -11.5143 L 10.1164 -11.5317 L 10.1604 -11.5492 L 10.2044 -11.5666 L 10.2483 -11.584 L 10.2923 -11.6014 L 10.3362 -11.6188 L 10.3801 -11.6362 L 10.4239 -11.6535 L 10.4678 -11.6708 L 10.5116 -11.6881 L 10.5554 -11.7053 L 10.5992 -11.7226 L 10.643 -11.7398 L 10.6868 -11.757 L 10.7305 -11.7742 L 10.7742 -11.7914 L 10.8179 -11.8085 L 10.8616 -11.8256 L 10.9053 -11.8427 L 10.9489 -11.8598 L 10.9926 -11.8769 L 11.0362 -11.8939 L 11.0798 -11.911 L 11.1234 -11.928 L 11.1669 -11.9449 L 11.2105 -11.9619 L 11.254 -11.9789 L 11.2975 -11.9958 L 11.341 -12.0127 L 11.3845 -12.0296 L 11.428 -12.0465 L 11.4714 -12.0634 L 11.5148 -12.0802 L 11.5583 -12.0971 L 11.6017 -12.1139 L 11.645 -12.1307 L 11.6884 -12.1475 L 11.7318 -12.1642 L 11.7751 -12.181 L 11.8184 -12.1977 L 11.8617 -12.2144 L 11.905 -12.2311 L 11.9483 -12.2478 L 11.9915 -12.2645 L 12.0348 -12.2811 L 12.078 -12.2978 L 12.1212 -12.3144 L 12.1644 -12.331 L 12.2076 -12.3476 L 12.2508 -12.3642 L 12.2939 -12.3807 L 12.337 -12.3973 L 12.3802 -12.4138 L 12.4233 -12.4303 L 12.4664 -12.4468 L 12.5095 -12.4633 L 12.5525 -12.4798 L 12.5956 -12.4963 L 12.6386 -12.5127 L 12.6816 -12.5292 L 12.7247 -12.5456 L 12.7677 -12.562 L 12.8106 -12.5784 L 12.8536 -12.5948 L 12.8966 -12.6111 L 12.9395 -12.6275 L 12.9824 -12.6438 L 13.0254 -12.6602 L 13.0683 -12.6765 L 13.1112 -12.6928 L 13.154 -12.7091 L 13.1969 -12.7254 L 13.2351 -12.7465 L 13.2643 -12.7161 L 13.2934 -12.6857 L 13.3225 -12.6551 L 13.3515 -12.6245 L 13.3804 -12.5939 L 13.4092 -12.5632 L 13.438 -12.5324 L 13.4667 -12.5015 L 13.4954 -12.4706 L 13.524 -12.4396 L 13.5524 -12.4085 L 13.5809 -12.3774 L 13.6092 -12.3462 L 13.6375 -12.315 L 13.6657 -12.2837 L 13.6939 -12.2523 L 13.7219 -12.2208 L 13.7499 -12.1893 L 13.7779 -12.1578 L 13.8057 -12.1261 L 13.8335 -12.0944 L 13.8612 -12.0627 L 13.8888 -12.0308 L 13.9164 -11.9989 L 13.9439 -11.967 L 13.9713 -11.935 L 13.9986 -11.9029 L 14.0259 -11.8708 L 14.126 -11.7515 L 14.1529 -11.719 L 14.1797 -11.6866 L 14.2065 -11.654 L 14.2332 -11.6214 L 14.2598 -11.5887 L 14.2864 -11.556 L 14.3128 -11.5232 L 14.3392 -11.4903 L 14.3656 -11.4574 L 14.3918 -11.4244 L 14.418 -11.3913 L 14.4441 -11.3582 L 14.4701 -11.3251 L 14.496 -11.2919 L 14.5219 -11.2586 L 14.5477 -11.2252 L 14.5734 -11.1918 L 14.599 -11.1584 L 14.6246 -11.1249 L 14.6501 -11.0913 L 14.6755 -11.0577 L 14.7008 -11.024 L 14.726 -10.9902 L 14.7512 -10.9564 L 14.7763 -10.9225 L 14.8013 -10.8886 L 14.8262 -10.8546 L 14.8511 -10.8206 L 14.8237 -10.7867 L 14.8002 -10.7473 L 14.7767 -10.7079 L 14.7532 -10.6685 L 14.7297 -10.6291 L 14.7061 -10.5896 L 14.6826 -10.5502 L 14.659 -10.5107 L 14.6354 -10.4713 L 14.6118 -10.4318 L 14.5882 -10.3923 L 14.5646 -10.3528 L 14.541 -10.3133 L 14.5173 -10.2738 L 14.4936 -10.2343 L 14.4699 -10.1947 L 14.4462 -10.1552 L 14.4225 -10.1156 L 14.3988 -10.076 L 14.375 -10.0365 L 14.3512 -9.99685 L 14.3275 -9.95724 L 14.3037 -9.91762 L 14.2798 -9.87799 L 14.256 -9.83834 L 14.2321 -9.79869 L 14.2083 -9.75902 L 14.1844 -9.71934 L 14.1605 -9.67964 L 14.1365 -9.63994 L 14.1126 -9.60022 L 14.0886 -9.56049 L 14.0646 -9.52075 L 14.0406 -9.48099 L 14.0166 -9.44122 L 13.9926 -9.40144 L 13.9685 -9.36165 L 13.9444 -9.32184 L 13.9203 -9.28203 L 13.8962 -9.24219 L 13.8721 -9.20235 L 13.8479 -9.16249 L 13.8238 -9.12262 L 13.7996 -9.08274 L 13.7754 -9.04284 L 13.7511 -9.00293 L 13.7269 -8.963 L 13.7026 -8.92307 L 13.6783 -8.88311 L 13.654 -8.84315 L 13.6296 -8.80317 L 13.6053 -8.76318 L 13.5809 -8.72317 L 13.5565 -8.68315 L 13.5321 -8.64311 L 13.5076 -8.60306 L 13.4831 -8.563 L 13.4587 -8.52292 L 13.4341 -8.48283 L 13.4096 -8.44272 L 13.385 -8.4026 L 13.3604 -8.36246 L 13.3358 -8.32231 L 13.3112 -8.28215 L 13.2865 -8.24196 L 13.2619 -8.20177 L 13.2372 -8.16156 L 13.2124 -8.12133 L 13.1877 -8.08109 L 13.1629 -8.04083 L 13.1381 -8.00056 L 13.1132 -7.96027 L 13.0884 -7.91996 L 13.0635 -7.87964 L 13.0386 -7.83931 L 13.0136 -7.79896 L 12.9887 -7.75859 L 12.9637 -7.7182 L 12.9387 -7.6778 L 12.9136 -7.63739 L 12.8886 -7.59695 L 12.8634 -7.5565 L 12.8383 -7.51604 L 12.8132 -7.47555 L 12.788 -7.43505 L 12.7627 -7.39453 L 12.7375 -7.354 L 12.7375 -7.354 L 12.7852 -7.3556 L 12.8329 -7.35718 L 12.8806 -7.35874 L 12.9282 -7.36029 L 12.9758 -7.36182 L 13.0234 -7.36334 L 13.071 -7.36483 L 13.1185 -7.36632 L 13.166 -7.36778 L 13.2135 -7.36924 L 13.2609 -7.37067 L 13.3083 -7.37209 L 13.3557 -7.3735 L 13.4031 -7.37489 L 13.4504 -7.37627 L 13.4977 -7.37763 L 13.545 -7.37898 L 13.5923 -7.38031 L 13.6395 -7.38163 L 13.6867 -7.38293 L 13.7339 -7.38422 L 13.781 -7.3855 L 13.8281 -7.38677 L 13.8753 -7.38802 L 13.9223 -7.38925 L 13.9694 -7.39048 L 14.0164 -7.39169 L 14.0634 -7.39289 L 14.1104 -7.39407 L 14.1573 -7.39525 L 14.2043 -7.39641 L 14.2512 -7.39756 L 14.2981 -7.39869 L 14.3449 -7.39982 L 14.3918 -7.40093 L 14.4386 -7.40203 L 14.4854 -7.40312 L 14.5322 -7.4042 L 14.5789 -7.40526 L 14.6256 -7.40632 L 14.6723 -7.40736 L 14.719 -7.4084 L 14.7657 -7.40942 L 14.8123 -7.41043 L 14.8589 -7.41143 L 14.9055 -7.41242 L 14.9521 -7.41339 L 14.9986 -7.41436 L 15.0452 -7.41532 L 15.0917 -7.41627 L 15.1382 -7.41721 L 15.1846 -7.41813 L 15.2311 -7.41905 L 15.2775 -7.41996 L 15.3239 -7.42086 L 15.3703 -7.42174 L 15.4167 -7.42262 L 15.463 -7.42349 L 15.5094 -7.42435 L 15.5557 -7.4252 L 15.602 -7.42604 L 15.6482 -7.42688 L 15.6945 -7.4277 L 15.7407 -7.42851 L 15.787 -7.42932 L 15.8332 -7.43012 L 15.8793 -7.4309 L 15.9255 -7.43168 L 15.9716 -7.43245 L 16.0178 -7.43322 L 16.0639 -7.43397 L 16.1099 -7.43472 L 16.156 -7.43545 L 16.2021 -7.43618 L 16.2481 -7.4369 L 16.2941 -7.43762 L 16.3401 -7.43832 L 16.3861 -7.43902 L 16.4321 -7.43971 L 16.478 -7.44039 L 16.524 -7.44107 L 16.5699 -7.44174 L 16.6158 -7.4424 L 16.6617 -7.44305 L 16.7075 -7.44369 L 16.7534 -7.44433 L 16.7965 -7.45114 L 16.8135 -7.41259 L 16.8305 -7.374 L 16.8473 -7.33538 L 16.8641 -7.29671 L 16.8808 -7.25801 L 16.8974 -7.21927 L 16.9139 -7.18049 L 16.9304 -7.14167 L 16.9467 -7.10282 L 16.9629 -7.06393 L 16.9791 -7.025 L 16.9952 -6.98603 L 17.0112 -6.94703 L 17.027 -6.90799 L 17.0428 -6.86891 L 17.0586 -6.8298 L 17.0742 -6.79065 L 17.0897 -6.75147 L 17.1052 -6.71225 L 17.1205 -6.673 L 17.1358 -6.63371 L 17.1509 -6.59438 L 17.166 -6.55503 L 17.181 -6.51563 L 17.1959 -6.4762 L 17.2107 -6.43674 L 17.2254 -6.39725 L 17.2401 -6.35772 L 17.2933 -6.21141 L 17.3075 -6.17172 L 17.3216 -6.13201 L 17.3357 -6.09226 L 17.3496 -6.05248 L 17.3634 -6.01266 L 17.3772 -5.97282 L 17.3908 -5.93294 L 17.4044 -5.89304 L 17.4179 -5.8531 L 17.4312 -5.81313 L 17.4445 -5.77313 L 17.4577 -5.7331 L 17.4708 -5.69304 L 17.4838 -5.65295 L 17.4968 -5.61283 L 17.5096 -5.57268 L 17.5223 -5.5325 L 17.535 -5.49229 L 17.5475 -5.45205 L 17.56 -5.41179 L 17.5724 -5.37149 L 17.5846 -5.33117 L 17.5968 -5.29082 L 17.6089 -5.25044 L 17.6209 -5.21004 L 17.6328 -5.1696 L 17.6446 -5.12914 L 17.6563 -5.08866 L 17.6189 -5.06617 L 17.5834 -5.03719 L 17.5479 -5.0082 L 17.5123 -4.97921 L 17.4767 -4.95021 L 17.4411 -4.92121 L 17.4055 -4.8922 L 17.3699 -4.86318 L 17.3342 -4.83417 L 17.2985 -4.80514 L 17.2628 -4.77612 L 17.2271 -4.74708 L 17.1914 -4.71804 L 17.1556 -4.689 L 17.1199 -4.65995 L 17.0841 -4.6309 L 17.0483 -4.60184 L 17.0125 -4.57278 L 16.9766 -4.54371 L 16.9408 -4.51463 L 16.9049 -4.48555 L 16.869 -4.45647 L 16.8331 -4.42738 L 16.7971 -4.39828 L 16.7612 -4.36918 L 16.7252 -4.34008 L 16.6892 -4.31097 L 16.6532 -4.28185 L 16.6171 -4.25273 L 16.581 -4.2236 L 16.545 -4.19447 L 16.5089 -4.16533 L 16.4727 -4.13619 L 16.4366 -4.10704 L 16.4004 -4.07788 L 16.3642 -4.04872 L 16.328 -4.01956 L 16.2918 -3.99039 L 16.2555 -3.96121 L 16.2192 -3.93203 L 16.1829 -3.90284 L 16.1466 -3.87365 L 16.1102 -3.84445 L 16.0738 -3.81525 L 16.0374 -3.78604 L 16.001 -3.75682 L 15.9646 -3.7276 L 15.9281 -3.69837 L 15.8916 -3.66914 L 15.8551 -3.6399 L 15.8185 -3.61066 L 15.782 -3.58141 L 15.7454 -3.55216 L 15.7087 -3.5229 L 15.6721 -3.49363 L 15.6354 -3.46436 L 15.5987 -3.43508 L 15.562 -3.4058 L 15.5253 -3.37651 L 15.4885 -3.34721 L 15.4517 -3.31791 L 15.4148 -3.2886 L 15.378 -3.25929 L 15.3411 -3.22997 L 15.3042 -3.20065 L 15.2672 -3.17132 L 15.2303 -3.14198 L 15.1933 -3.11264 L 15.1562 -3.08329 L 15.1192 -3.05394 L 15.0821 -3.02458 L 15.045 -2.99521 L 15.0078 -2.96584 L 14.9707 -2.93646 L 14.9335 -2.90708 L 14.8962 -2.87769 L 14.859 -2.8483 L 14.8217 -2.8189 L 14.7843 -2.78949 L 14.747 -2.76008 L 14.7096 -2.73066 L 14.6722 -2.70123 L 14.6347 -2.6718 L 14.5972 -2.64236 L 14.5597 -2.61292 L 14.5221 -2.58347 L 14.4846 -2.55402 L 14.4846 -2.55402 L 14.5299 -2.5392 L 14.5753 -2.52437 L 14.6206 -2.50953 L 14.6659 -2.49469 L 14.7112 -2.47985 L 14.7564 -2.465 L 14.8016 -2.45014 L 14.8468 -2.43528 L 14.8919 -2.42041 L 14.937 -2.40554 L 14.9821 -2.39067 L 15.0271 -2.37578 L 15.0722 -2.3609 L 15.1171 -2.34601 L 15.1621 -2.33111 L 15.207 -2.31621 L 15.2519 -2.3013 L 15.2968 -2.28639 L 15.3416 -2.27148 L 15.3864 -2.25656 L 15.4312 -2.24164 L 15.4759 -2.22671 L 15.5206 -2.21178 L 15.5653 -2.19685 L 15.61 -2.18191 L 15.6546 -2.16697 L 15.6992 -2.15202 L 15.7438 -2.13707 L 15.7884 -2.12212 L 15.8329 -2.10716 L 15.8774 -2.0922 L 15.9219 -2.07724 L 15.9663 -2.06227 L 16.0107 -2.0473 L 16.0551 -2.03232 L 16.0995 -2.01735 L 16.1438 -2.00237 L 16.1881 -1.98738 L 16.2324 -1.97239 L 16.2767 -1.9574 L 16.3209 -1.94241 L 16.3652 -1.92742 L 16.4094 -1.91242 L 16.4535 -1.89742 L 16.4977 -1.88241 L 16.5418 -1.86741 L 16.5859 -1.8524 L 16.63 -1.83738 L 16.674 -1.82237 L 16.7181 -1.80735 L 16.7621 -1.79233 L 16.8061 -1.77731 L 16.85 -1.76229 L 16.894 -1.74726 L 16.9379 -1.73223 L 16.9818 -1.7172 L 17.0256 -1.70216 L 17.0695 -1.68713 L 17.1133 -1.67209 L 17.1571 -1.65705 L 17.2009 -1.64201 L 17.2447 -1.62696 L 17.2884 -1.61192 L 17.3322 -1.59687 L 17.3759 -1.58182 L 17.4195 -1.56677 L 17.4632 -1.55172 L 17.5069 -1.53666 L 17.5505 -1.5216 L 17.5941 -1.50654 L 17.6377 -1.49148 L 17.6812 -1.47642 L 17.7248 -1.46136 L 17.7683 -1.44629 L 17.8118 -1.43122 L 17.8553 -1.41616 L 17.8988 -1.40109 L 17.9422 -1.38601 L 17.9856 -1.37094 L 18.029 -1.35587 L 18.0724 -1.34079 L 18.1158 -1.32571 L 18.1592 -1.31064 L 18.2025 -1.29556 L 18.2458 -1.28047 L 18.2891 -1.26539 L 18.332 -1.25705 L 18.3348 -1.215 L 18.3375 -1.17294 L 18.3402 -1.13087 L 18.3427 -1.0888 L 18.3452 -1.04672 L 18.3475 -1.00464 L 18.3498 -0.962547 L 18.3519 -0.920453 L 18.354 -0.878354 L 18.356 -0.83625 L 18.3578 -0.794142 L 18.3596 -0.75203 L 18.3613 -0.709914 L 18.3629 -0.667794 L 18.3643 -0.625671 L 18.3657 -0.583544 L 18.367 -0.541415 L 18.3682 -0.499282 L 18.3693 -0.457147 L 18.3703 -0.41501 L 18.3712 -0.37287 L 18.372 -0.330728 L 18.3727 -0.288585 L 18.3733 -0.24644 L 18.3739 -0.204293 L 18.3743 -0.162146 L 18.3746 -0.119998 L 18.3748 -0.0778492Z"
id="path1" />
</g>
</svg>
