<?xml version="1.0" encoding="UTF-8" standalone="no"?>
<svg version="1.1">
<g
style="fill:none;stroke:#000000;stroke-opacity:1;stroke-width:0.1">
<path d="M 18.8749 0.0558052 L 18.8748 0.0961016 L 18.8745 0.136398 L 18.8742 0.176693 L 18.8738 0.216987 L 18.8732 0.257281 L 18.8727 0.297573 L 18.872 0.337864 L 18.8712 0.378154 L 18.8704 0.418441 L 18.8694 0.458727 L 18.8684 0.499011 L 18.8673 0.539292 L 18.8661 0.579571 L 18.8648 0.619848 L 18.8635 0.660121 L 18.862 0.700392 L 18.8605 0.740659 L 18.8588 0.780923 L 18.8571 0.821183 L 18.8553 0.86144 L 18.8534 0.901693 L 18.8515 0.941941 L 18.8494 0.982186 L 18.8473 1.02243 L 18.8451 1.06266 L 18.8428 1.10289 L 18.8404 1.14312 L 18.8379 1.18334 L 18.8353 1.22355 L 18.8326 1.26376 L 18.8299 1.30396 L 18.8271 1.34416 L 18.7861 1.35184 L 18.7447 1.36625 L 18.7032 1.38067 L 18.6617 1.39508 L 18.6202 1.40949 L 18.5787 1.42391 L 18.5372 1.43832 L 18.4957 1.45272 L 18.4541 1.46713 L 18.4125 1.48154 L 18.3709 1.49594 L 18.3293 1.51035 L 18.2877 1.52475 L 18.246 1.53915 L 18.2044 1.55355 L 18.1627 1.56794 L 18.121 1.58234 L 18.0793 1.59673 L 18.0376 1.61113 L 17.9958 1.62552 L 17.954 1.63991 L 17.9122 1.6543 L 17.8704 1.66868 L 17.8286 1.68307 L 17.7868 1.69745 L 17.7449 1.71183 L 17.703 1.72621 L 17.6611 1.74059 L 17.6192 1.75496 L 17.5773 1.76934 L 17.5353 1.78371 L 17.4933 1.79808 L 17.4513 1.81244 L 17.4093 1.82681 L 17.3673 1.84117 L 17.3252 1.85554 L 17.2832 1.86989 L 17.2411 1.88425 L 17.199 1.89861 L 17.1568 1.91296 L 17.1147 1.92731 L 17.0725 1.94166 L 17.0303 1.956 L 16.9881 1.97035 L 16.9458 1.98469 L 16.9036 1.99902 L 16.8613 2.01336 L 16.819 2.02769 L 16.7766 2.04202 L 16.7343 2.05635 L 16.6919 2.07068 L 16.6495 2.085 L 16.6071 2.09932 L 16.5647 2.11363 L 16.5222 2.12795 L 16.4797 2.14226 L 16.4372 2.15657 L 16.3947 2.17087 L 16.3521 2.18517 L 16.3096 2.19947 L 16.267 2.21377 L 16.2243 2.22806 L 16.1817 2.24235 L 16.139 2.25663 L 16.0963 2.27091 L 16.0536 2.28519 L 16.0108 2.29947 L 15.9681 2.31374 L 15.9253 2.32801 L 15.8824 2.34227 L 15.8396 2.35653 L 15.7967 2.37079 L 15.7538 2.38504 L 15.7109 2.39929 L 15.6679 2.41353 L 15.625 2.42777 L 15.582 2.44201 L 15.5389 2.45624 L 15.4959 2.47047 L 15.4528 2.48469 L 15.4097 2.49891 L 15.3665 2.51313 L 15.3234 2.52734 L 15.2802 2.54154 L 15.2369 2.55574 L 15.1937 2.56994 L 15.1504 2.58413 L 15.1071 2.59831 L 15.0637 2.6125 L 15.0204 2.62667 L 14.977 2.64084 L 14.977 2.64084 L 15.0129 2.669 L 15.0488 2.69716 L 15.0847 2.72531 L 15.1205 2.75345 L 15.1563 2.78159 L 15.1921 2.80972 L 15.2279 2.83785 L 15.2636 2.86598 L 15.2993 2.89409 L 15.335 2.92221 L 15.3707 2.95031 L 15.4063 2.97842 L 15.4419 3.00651 L 15.4775 3.03461 L 15.513 3.06269 L 15.5485 3.09077 L 15.584 3.11885 L 15.6195 3.14692 L 15.6549 3.17499 L 15.6903 3.20305 L 15.7257 3.2311 L 15.7611 3.25915 L 15.7964 3.2872 L 15.8317 3.31524 L 15.867 3.34327 L 15.9023 3.3713 L 15.9375 3.39932 L 15.9727 3.42734 L 16.0079 3.45536 L 16.0431 3.48337 L 16.0782 3.51137 L 16.1134 3.53937 L 16.1485 3.56736 L 16.1835 3.59535 L 16.2186 3.62333 L 16.2536 3.65131 L 16.2886 3.67928 L 16.3236 3.70725 L 16.3586 3.73522 L 16.3935 3.76317 L 16.4284 3.79113 L 16.4633 3.81907 L 16.4982 3.84702 L 16.533 3.87496 L 16.5679 3.90289 L 16.6027 3.93082 L 16.6375 3.95874 L 16.6722 3.98666 L 16.707 4.01457 L 16.7417 4.04248 L 16.7764 4.07038 L 16.8111 4.09828 L 16.8458 4.12617 L 16.8804 4.15406 L 16.915 4.18195 L 16.9496 4.20983 L 16.9842 4.2377 L 17.0188 4.26557 L 17.0533 4.29343 L 17.0879 4.32129 L 17.1224 4.34915 L 17.1569 4.377 L 17.1913 4.40484 L 17.2258 4.43269 L 17.2602 4.46052 L 17.2947 4.48835 L 17.3291 4.51618 L 17.3634 4.544 L 17.3978 4.57182 L 17.4322 4.59963 L 17.4665 4.62744 L 17.5008 4.65524 L 17.5351 4.68304 L 17.5694 4.71083 L 17.6036 4.73862 L 17.6379 4.76641 L 17.6721 4.79419 L 17.7063 4.82196 L 17.7405 4.84974 L 17.7747 4.8775 L 17.8088 4.90526 L 17.843 4.93302 L 17.8771 4.96077 L 17.9112 4.98852 L 17.9453 5.01627 L 17.9794 5.04401 L 18.0134 5.07174 L 18.0475 5.09947 L 18.0815 5.1272 L 18.1155 5.15492 L 18.1514 5.17614 L 18.1403 5.21488 L 18.1291 5.2536 L 18.1179 5.29229 L 18.1065 5.33096 L 18.0951 5.3696 L 18.0836 5.40822 L 18.072 5.44682 L 18.0603 5.48539 L 18.0486 5.52393 L 18.0368 5.56245 L 18.0248 5.60095 L 18.0128 5.63941 L 18.0008 5.67786 L 17.9886 5.71628 L 17.9764 5.75467 L 17.964 5.79303 L 17.9516 5.83137 L 17.9391 5.86968 L 17.9266 5.90797 L 17.9139 5.94623 L 17.9012 5.98446 L 17.8884 6.02266 L 17.8755 6.06084 L 17.8625 6.09899 L 17.8494 6.13711 L 17.8363 6.1752 L 17.823 6.21327 L 17.8097 6.2513 L 17.7964 6.28931 L 17.7829 6.32729 L 17.7693 6.36524 L 17.7557 6.40316 L 17.7175 6.50804 L 17.7036 6.54585 L 17.6896 6.58363 L 17.6755 6.62138 L 17.6613 6.6591 L 17.6471 6.6968 L 17.6327 6.73446 L 17.6183 6.77208 L 17.6038 6.80968 L 17.5892 6.84725 L 17.5746 6.88479 L 17.5598 6.92229 L 17.545 6.95976 L 17.5301 6.99721 L 17.5151 7.03461 L 17.5001 7.07199 L 17.4849 7.10934 L 17.4697 7.14665 L 17.4544 7.18393 L 17.439 7.22118 L 17.4236 7.25839 L 17.4081 7.29557 L 17.3924 7.33272 L 17.3767 7.36984 L 17.361 7.40692 L 17.3451 7.44397 L 17.3292 7.48098 L 17.3132 7.51796 L 17.2971 7.5549 L 17.2809 7.59181 L 17.2647 7.62869 L 17.2483 7.66553 L 17.2319 7.70234 L 17.1908 7.69555 L 17.147 7.69492 L 17.1031 7.69428 L 17.0592 7.69364 L 17.0152 7.69299 L 16.9713 7.69234 L 16.9273 7.69167 L 16.8834 7.691 L 16.8394 7.69033 L 16.7954 7.68964 L 16.7514 7.68895 L 16.7074 7.68826 L 16.6633 7.68755 L 16.6193 7.68684 L 16.5752 7.68612 L 16.5311 7.68539 L 16.487 7.68466 L 16.4429 7.68392 L 16.3987 7.68317 L 16.3546 7.68241 L 16.3104 7.68165 L 16.2662 7.68088 L 16.222 7.6801 L 16.1778 7.67931 L 16.1335 7.67851 L 16.0893 7.67771 L 16.045 7.6769 L 16.0007 7.67608 L 15.9564 7.67525 L 15.9121 7.67441 L 15.8677 7.67357 L 15.8234 7.67271 L 15.779 7.67185 L 15.7346 7.67098 L 15.6902 7.6701 L 15.6458 7.66921 L 15.6013 7.66832 L 15.5569 7.66741 L 15.5124 7.66649 L 15.4679 7.66557 L 15.4233 7.66464 L 15.3788 7.66369 L 15.3342 7.66274 L 15.2897 7.66178 L 15.2451 7.66081 L 15.2004 7.65983 L 15.1558 7.65884 L 15.1111 7.65784 L 15.0665 7.65682 L 15.0218 7.6558 L 14.9771 7.65477 L 14.9323 7.65373 L 14.8876 7.65268 L 14.8428 7.65162 L 14.798 7.65055 L 14.7532 7.64946 L 14.7083 7.64837 L 14.6635 7.64727 L 14.6186 7.64615 L 14.5737 7.64502 L 14.5288 7.64389 L 14.4838 7.64274 L 14.4389 7.64158 L 14.3939 7.64041 L 14.3489 7.63922 L 14.3039 7.63803 L 14.2588 7.63682 L 14.2137 7.6356 L 14.1686 7.63437 L 14.1235 7.63313 L 14.0784 7.63188 L 14.0332 7.63061 L 13.988 7.62933 L 13.9428 7.62804 L 13.8976 7.62673 L 13.8523 7.62541 L 13.807 7.62408 L 13.7617 7.62274 L 13.7164 7.62138 L 13.671 7.62001 L 13.6257 7.61862 L 13.5803 7.61723 L 13.5348 7.61581 L 13.4894 7.61439 L 13.4439 7.61295 L 13.3984 7.61149 L 13.3529 7.61002 L 13.3073 7.60854 L 13.2617 7.60704 L 13.2161 7.60553 L 13.1705 7.604 L 13.1705 7.604 L 13.1947 7.64275 L 13.2188 7.68149 L 13.2429 7.72021 L 13.2669 7.75892 L 13.291 7.79762 L 13.315 7.8363 L 13.3389 7.87496 L 13.3629 7.91361 L 13.3868 7.95224 L 13.4108 7.99086 L 13.4346 8.02947 L 13.4585 8.06806 L 13.4823 8.10664 L 13.5062 8.1452 L 13.53 8.18375 L 13.5537 8.22229 L 13.5775 8.26081 L 13.6012 8.29932 L 13.6249 8.33781 L 13.6486 8.37629 L 13.6722 8.41476 L 13.6959 8.45321 L 13.7195 8.49165 L 13.7431 8.53007 L 13.7667 8.56849 L 13.7902 8.60689 L 13.8137 8.64527 L 13.8372 8.68365 L 13.8607 8.72201 L 13.8842 8.76035 L 13.9076 8.79869 L 13.9311 8.83701 L 13.9545 8.87532 L 13.9779 8.91362 L 14.0012 8.9519 L 14.0246 8.99017 L 14.0479 9.02843 L 14.0712 9.06667 L 14.0945 9.10491 L 14.1178 9.14313 L 14.141 9.18134 L 14.1642 9.21954 L 14.1875 9.25772 L 14.2106 9.2959 L 14.2338 9.33406 L 14.257 9.37221 L 14.2801 9.41034 L 14.3032 9.44847 L 14.3264 9.48658 L 14.3494 9.52469 L 14.3725 9.56278 L 14.3956 9.60086 L 14.4186 9.63892 L 14.4416 9.67698 L 14.4646 9.71503 L 14.4876 9.75306 L 14.5106 9.79108 L 14.5335 9.82909 L 14.5565 9.86709 L 14.5794 9.90508 L 14.6023 9.94306 L 14.6252 9.98103 L 14.648 10.019 L 14.6709 10.0569 L 14.6937 10.0949 L 14.7166 10.1328 L 14.7394 10.1707 L 14.7622 10.2086 L 14.7849 10.2465 L 14.8077 10.2844 L 14.8304 10.3223 L 14.8532 10.3601 L 14.8759 10.398 L 14.8986 10.4358 L 14.9213 10.4736 L 14.944 10.5115 L 14.9666 10.5493 L 14.9893 10.5871 L 15.0119 10.6249 L 15.0345 10.6626 L 15.0571 10.7004 L 15.0797 10.7382 L 15.1023 10.7759 L 15.1249 10.8137 L 15.1474 10.8514 L 15.1699 10.8891 L 15.1925 10.9268 L 15.215 10.9645 L 15.2375 11.0022 L 15.26 11.0399 L 15.2864 11.0721 L 15.2627 11.1047 L 15.239 11.1373 L 15.2152 11.1698 L 15.1913 11.2023 L 15.1673 11.2347 L 15.1433 11.267 L 15.1192 11.2993 L 15.0951 11.3316 L 15.0708 11.3638 L 15.0465 11.3959 L 15.0222 11.428 L 14.9977 11.4601 L 14.9732 11.4921 L 14.9487 11.524 L 14.924 11.5559 L 14.8993 11.5877 L 14.8746 11.6195 L 14.8497 11.6512 L 14.8248 11.6829 L 14.7998 11.7145 L 14.7748 11.7461 L 14.7497 11.7776 L 14.7245 11.8091 L 14.6993 11.8405 L 14.6739 11.8719 L 14.6486 11.9032 L 14.6231 11.9344 L 14.5976 11.9656 L 14.572 11.9967 L 14.5464 12.0278 L 14.5207 12.0588 L 14.4949 12.0898 L 14.4232 12.1753 L 14.3971 12.2061 L 14.371 12.2368 L 14.3449 12.2674 L 14.3187 12.298 L 14.2924 12.3286 L 14.266 12.3591 L 14.2396 12.3895 L 14.2131 12.4199 L 14.1866 12.4502 L 14.16 12.4804 L 14.1333 12.5106 L 14.1065 12.5408 L 14.0797 12.5709 L 14.0529 12.6009 L 14.0259 12.6309 L 13.9989 12.6608 L 13.9719 12.6906 L 13.9447 12.7204 L 13.9176 12.7502 L 13.8903 12.7799 L 13.863 12.8095 L 13.8356 12.8391 L 13.8082 12.8686 L 13.7807 12.898 L 13.7531 12.9274 L 13.7255 12.9568 L 13.6978 12.986 L 13.67 13.0152 L 13.6422 13.0444 L 13.6143 13.0735 L 13.5864 13.1025 L 13.5584 13.1315 L 13.5221 13.1111 L 13.481 13.0955 L 13.44 13.0799 L 13.399 13.0642 L 13.3579 13.0486 L 13.3169 13.033 L 13.2758 13.0173 L 13.2347 13.0016 L 13.1936 12.986 L 13.1525 12.9703 L 13.1114 12.9546 L 13.0702 12.9389 L 13.0291 12.9231 L 12.9879 12.9074 L 12.9468 12.8916 L 12.9056 12.8759 L 12.8644 12.8601 L 12.8232 12.8443 L 12.782 12.8285 L 12.7407 12.8127 L 12.6995 12.7969 L 12.6582 12.781 L 12.6169 12.7652 L 12.5757 12.7493 L 12.5344 12.7334 L 12.493 12.7175 L 12.4517 12.7016 L 12.4104 12.6857 L 12.369 12.6698 L 12.3277 12.6538 L 12.2863 12.6379 L 12.2449 12.6219 L 12.2035 12.6059 L 12.1621 12.5899 L 12.1206 12.5739 L 12.0792 12.5579 L 12.0377 12.5418 L 11.9963 12.5258 L 11.9548 12.5097 L 11.9133 12.4936 L 11.8717 12.4775 L 11.8302 12.4614 L 11.7887 12.4452 L 11.7471 12.4291 L 11.7055 12.4129 L 11.6639 12.3967 L 11.6223 12.3805 L 11.5807 12.3643 L 11.5391 12.3481 L 11.4974 12.3319 L 11.4557 12.3156 L 11.4141 12.2993 L 11.3724 12.283 L 11.3307 12.2667 L 11.2889 12.2504 L 11.2472 12.234 L 11.2054 12.2177 L 11.1637 12.2013 L 11.1219 12.1849 L 11.0801 12.1685 L 11.0382 12.152 L 10.9964 12.1356 L 10.9545 12.1191 L 10.9127 12.1026 L 10.8708 12.0861 L 10.8289 12.0696 L 10.7869 12.0531 L 10.745 12.0365 L 10.703 12.0199 L 10.6611 12.0033 L 10.6191 11.9867 L 10.5771 11.9701 L 10.5351 11.9534 L 10.493 11.9367 L 10.451 11.92 L 10.4089 11.9033 L 10.3668 11.8866 L 10.3247 11.8698 L 10.2825 11.853 L 10.2404 11.8362 L 10.1982 11.8194 L 10.156 11.8026 L 10.1138 11.7857 L 10.0716 11.7688 L 10.0294 11.7519 L 9.9871 11.735 L 9.94482 11.718 L 9.90252 11.7011 L 9.86021 11.6841 L 9.81787 11.667 L 9.77551 11.65 L 9.77551 11.65 L 9.78494 11.6947 L 9.79435 11.7393 L 9.80374 11.784 L 9.81311 11.8286 L 9.82247 11.8731 L 9.8318 11.9177 L 9.84112 11.9622 L 9.85041 12.0067 L 9.85969 12.0512 L 9.86895 12.0957 L 9.8782 12.1402 L 9.88742 12.1846 L 9.89663 12.229 L 9.90582 12.2734 L 9.915 12.3177 L 9.92415 12.3621 L 9.93329 12.4064 L 9.94242 12.4507 L 9.95152 12.495 L 9.96061 12.5392 L 9.96969 12.5835 L 9.97875 12.6277 L 9.98779 12.6719 L 9.99682 12.7161 L 10.0058 12.7602 L 10.0148 12.8044 L 10.0238 12.8485 L 10.0328 12.8926 L 10.0417 12.9367 L 10.0507 12.9807 L 10.0596 13.0248 L 10.0685 13.0688 L 10.0774 13.1128 L 10.0863 13.1568 L 10.0951 13.2007 L 10.104 13.2447 L 10.1128 13.2886 L 10.1216 13.3325 L 10.1304 13.3764 L 10.1392 13.4203 L 10.148 13.4641 L 10.1568 13.508 L 10.1655 13.5518 L 10.1743 13.5956 L 10.183 13.6394 L 10.1917 13.6832 L 10.2004 13.7269 L 10.2091 13.7707 L 10.2178 13.8144 L 10.2264 13.8581 L 10.2351 13.9018 L 10.2437 13.9454 L 10.2523 13.9891 L 10.261 14.0327 L 10.2696 14.0763 L 10.2782 14.1199 L 10.2867 14.1635 L 10.2953 14.2071 L 10.3039 14.2506 L 10.3124 14.2942 L 10.3209 14.3377 L 10.3294 14.3812 L 10.338 14.4247 L 10.3465 14.4682 L 10.3549 14.5116 L 10.3634 14.5551 L 10.3719 14.5985 L 10.3803 14.6419 L 10.3888 14.6853 L 10.3972 14.7287 L 10.4056 14.7721 L 10.4141 14.8154 L 10.4225 14.8588 L 10.4308 14.9021 L 10.4392 14.9454 L 10.4476 14.9887 L 10.456 15.032 L 10.4643 15.0752 L 10.4727 15.1185 L 10.481 15.1617 L 10.4893 15.2049 L 10.4976 15.2482 L 10.5059 15.2914 L 10.5142 15.3345 L 10.5225 15.3777 L 10.5308 15.4209 L 10.539 15.464 L 10.5473 15.5071 L 10.5556 15.5502 L 10.5638 15.5933 L 10.5776 15.6326 L 10.5442 15.6552 L 10.5108 15.6777 L 10.4773 15.7001 L 10.4437 15.7224 L 10.4101 15.7447 L 10.3765 15.7669 L 10.3428 15.789 L 10.3091 15.811 L 10.2753 15.833 L 10.2415 15.8549 L 10.2076 15.8767 L 10.1737 15.8985 L 10.1397 15.9202 L 10.1057 15.9418 L 10.0717 15.9633 L 10.0376 15.9848 L 10.0034 16.0062 L 9.96921 16.0275 L 9.93497 16.0487 L 9.90069 16.0699 L 9.86636 16.091 L 9.83198 16.112 L 9.79756 16.133 L 9.7631 16.1539 L 9.72859 16.1747 L 9.69403 16.1954 L 9.65943 16.2161 L 9.62479 16.2367 L 9.59011 16.2572 L 9.55538 16.2776 L 9.5206 16.298 L 9.48579 16.3183 L 9.38913 16.3741 L 9.35415 16.3941 L 9.31913 16.414 L 9.28407 16.4339 L 9.24896 16.4536 L 9.21381 16.4734 L 9.17862 16.493 L 9.14339 16.5125 L 9.10812 16.532 L 9.0728 16.5514 L 9.03744 16.5708 L 9.00205 16.59 L 8.96661 16.6092 L 8.93113 16.6283 L 8.89561 16.6473 L 8.86004 16.6663 L 8.82444 16.6852 L 8.7888 16.704 L 8.75312 16.7227 L 8.7174 16.7413 L 8.68164 16.7599 L 8.64584 16.7784 L 8.61 16.7968 L 8.57412 16.8152 L 8.5382 16.8334 L 8.50224 16.8516 L 8.46624 16.8697 L 8.43021 16.8878 L 8.39414 16.9057 L 8.35802 16.9236 L 8.32187 16.9414 L 8.28569 16.9592 L 8.24946 16.9768 L 8.22234 16.9452 L 8.18913 16.9165 L 8.15592 16.8878 L 8.12269 16.8591 L 8.08946 16.8304 L 8.05623 16.8016 L 8.02299 16.7728 L 7.98974 16.7441 L 7.95648 16.7153 L 7.92321 16.6865 L 7.88994 16.6577 L 7.85666 16.6288 L 7.82337 16.6 L 7.79008 16.5711 L 7.75678 16.5422 L 7.72347 16.5133 L 7.69015 16.4844 L 7.65683 16.4555 L 7.6235 16.4265 L 7.59016 16.3976 L 7.55681 16.3686 L 7.52346 16.3396 L 7.4901 16.3106 L 7.45673 16.2816 L 7.42335 16.2525 L 7.38997 16.2235 L 7.35657 16.1944 L 7.32317 16.1653 L 7.28976 16.1362 L 7.25635 16.107 L 7.22292 16.0779 L 7.18949 16.0487 L 7.15605 16.0195 L 7.1226 15.9903 L 7.08914 15.9611 L 7.05568 15.9319 L 7.02221 15.9026 L 6.98872 15.8733 L 6.95523 15.844 L 6.92174 15.8147 L 6.88823 15.7854 L 6.85472 15.756 L 6.82119 15.7267 L 6.78766 15.6973 L 6.75412 15.6679 L 6.72057 15.6384 L 6.68702 15.609 L 6.65345 15.5795 L 6.61988 15.55 L 6.58629 15.5205 L 6.5527 15.491 L 6.5191 15.4614 L 6.48549 15.4318 L 6.45188 15.4022 L 6.41825 15.3726 L 6.38461 15.343 L 6.35097 15.3133 L 6.31731 15.2837 L 6.28365 15.254 L 6.24998 15.2242 L 6.2163 15.1945 L 6.18261 15.1647 L 6.14891 15.1349 L 6.1152 15.1051 L 6.08149 15.0753 L 6.04776 15.0454 L 6.01402 15.0155 L 5.98028 14.9856 L 5.94652 14.9557 L 5.91276 14.9257 L 5.87898 14.8958 L 5.8452 14.8658 L 5.81141 14.8357 L 5.7776 14.8057 L 5.74379 14.7756 L 5.70997 14.7455 L 5.67614 14.7154 L 5.6423 14.6852 L 5.60844 14.655 L 5.57458 14.6248 L 5.54071 14.5946 L 5.50683 14.5644 L 5.47294 14.5341 L 5.43904 14.5038 L 5.40513 14.4734 L 5.3712 14.4431 L 5.33727 14.4127 L 5.30333 14.3823 L 5.26938 14.3518 L 5.23542 14.3213 L 5.20144 14.2908 L 5.20144 14.2908 L 5.19502 14.336 L 5.18859 14.3812 L 5.18216 14.4264 L 5.17571 14.4715 L 5.16925 14.5166 L 5.16278 14.5616 L 5.1563 14.6067 L 5.14981 14.6517 L 5.14331 14.6967 L 5.13681 14.7416 L 5.13029 14.7866 L 5.12377 14.8315 L 5.11723 14.8763 L 5.11069 14.9212 L 5.10414 14.966 L 5.09758 15.0108 L 5.09101 15.0556 L 5.08443 15.1003 L 5.07784 15.1451 L 5.07125 15.1898 L 5.06464 15.2344 L 5.05803 15.2791 L 5.05141 15.3237 L 5.04479 15.3683 L 5.03815 15.4129 L 5.03151 15.4574 L 5.02486 15.502 L 5.0182 15.5465 L 5.01154 15.5909 L 5.00486 15.6354 L 4.99818 15.6798 L 4.99149 15.7243 L 4.9848 15.7686 L 4.9781 15.813 L 4.97139 15.8574 L 4.96467 15.9017 L 4.95795 15.946 L 4.95122 15.9903 L 4.94448 16.0345 L 4.93774 16.0788 L 4.93099 16.123 L 4.92423 16.1672 L 4.91747 16.2113 L 4.9107 16.2555 L 4.90393 16.2996 L 4.89715 16.3437 L 4.89036 16.3878 L 4.88356 16.4319 L 4.87676 16.4759 L 4.86996 16.52 L 4.86315 16.564 L 4.85633 16.608 L 4.84951 16.6519 L 4.84268 16.6959 L 4.83584 16.7398 L 4.829 16.7837 L 4.82216 16.8276 L 4.8153 16.8715 L 4.80845 16.9153 L 4.80158 16.9592 L 4.79472 17.003 L 4.78784 17.0468 L 4.78097 17.0906 L 4.77408 17.1343 L 4.76719 17.1781 L 4.7603 17.2218 L 4.7534 17.2655 L 4.7465 17.3092 L 4.73959 17.3529 L 4.73268 17.3965 L 4.72576 17.4401 L 4.71884 17.4838 L 4.71191 17.5274 L 4.70498 17.5709 L 4.69804 17.6145 L 4.6911 17.658 L 4.68416 17.7016 L 4.67721 17.7451 L 4.67025 17.7886 L 4.66329 17.8321 L 4.65633 17.8755 L 4.64936 17.919 L 4.64239 17.9624 L 4.63542 18.0058 L 4.62844 18.0492 L 4.62145 18.0926 L 4.61447 18.136 L 4.60747 18.1793 L 4.60048 18.2227 L 4.59348 18.266 L 4.59303 18.3076 L 4.55393 18.3174 L 4.51482 18.3271 L 4.47568 18.3367 L 4.43652 18.3462 L 4.39734 18.3556 L 4.35814 18.365 L 4.31893 18.3742 L 4.27969 18.3834 L 4.24043 18.3925 L 4.20116 18.4015 L 4.16186 18.4104 L 4.12255 18.4193 L 4.08321 18.428 L 4.04386 18.4367 L 4.00449 18.4453 L 3.9651 18.4538 L 3.9257 18.4622 L 3.88627 18.4706 L 3.84683 18.4788 L 3.80737 18.487 L 3.76789 18.4951 L 3.7284 18.5031 L 3.68889 18.511 L 3.64936 18.5188 L 3.60982 18.5266 L 3.57025 18.5343 L 3.53068 18.5418 L 3.49108 18.5493 L 3.45147 18.5567 L 3.41185 18.5641 L 3.37221 18.5713 L 3.33255 18.5785 L 3.22264 18.5979 L 3.18293 18.6047 L 3.1432 18.6114 L 3.10346 18.6181 L 3.0637 18.6247 L 3.02393 18.6312 L 2.98415 18.6376 L 2.94435 18.6439 L 2.90454 18.6502 L 2.86472 18.6563 L 2.82488 18.6624 L 2.78503 18.6684 L 2.74517 18.6743 L 2.7053 18.6801 L 2.66541 18.6859 L 2.62551 18.6915 L 2.5856 18.6971 L 2.54568 18.7025 L 2.50574 18.7079 L 2.4658 18.7132 L 2.42584 18.7185 L 2.38587 18.7236 L 2.34589 18.7287 L 2.3059 18.7336 L 2.2659 18.7385 L 2.22589 18.7433 L 2.18587 18.748 L 2.14584 18.7526 L 2.1058 18.7572 L 2.06575 18.7616 L 2.02569 18.766 L 1.98563 18.7703 L 1.94555 18.7745 L 1.93088 18.7355 L 1.90948 18.6972 L 1.88809 18.6588 L 1.86669 18.6205 L 1.84529 18.5821 L 1.82389 18.5437 L 1.80249 18.5053 L 1.78108 18.4669 L 1.75968 18.4285 L 1.73827 18.3901 L 1.71686 18.3516 L 1.69545 18.3131 L 1.67404 18.2746 L 1.65263 18.2361 L 1.63121 18.1976 L 1.6098 18.159 L 1.58838 18.1205 L 1.56696 18.0819 L 1.54554 18.0433 L 1.52411 18.0047 L 1.50269 17.966 L 1.48126 17.9274 L 1.45984 17.8887 L 1.43841 17.85 L 1.41698 17.8113 L 1.39555 17.7726 L 1.37411 17.7338 L 1.35268 17.6951 L 1.33124 17.6563 L 1.30981 17.6175 L 1.28837 17.5787 L 1.26693 17.5398 L 1.24548 17.5009 L 1.22404 17.4621 L 1.2026 17.4232 L 1.18115 17.3842 L 1.1597 17.3453 L 1.13825 17.3063 L 1.1168 17.2674 L 1.09535 17.2283 L 1.0739 17.1893 L 1.05245 17.1503 L 1.03099 17.1112 L 1.00953 17.0721 L 0.988076 17.033 L 0.966617 16.9939 L 0.945157 16.9547 L 0.923695 16.9156 L 0.902232 16.8764 L 0.880768 16.8371 L 0.859303 16.7979 L 0.837837 16.7586 L 0.81637 16.7194 L 0.794901 16.68 L 0.773432 16.6407 L 0.751961 16.6014 L 0.730489 16.562 L 0.709017 16.5226 L 0.687543 16.4832 L 0.666068 16.4437 L 0.644592 16.4042 L 0.623116 16.3647 L 0.601638 16.3252 L 0.58016 16.2857 L 0.55868 16.2461 L 0.5372 16.2065 L 0.515719 16.1669 L 0.494237 16.1273 L 0.472755 16.0876 L 0.451271 16.0479 L 0.429787 16.0082 L 0.408302 15.9684 L 0.386817 15.9286 L 0.365331 15.8888 L 0.343844 15.849 L 0.322357 15.8092 L 0.300869 15.7693 L 0.279381 15.7294 L 0.257892 15.6894 L 0.236402 15.6495 L 0.214913 15.6095 L 0.193422 15.5695 L 0.171932 15.5294 L 0.150441 15.4893 L 0.12895 15.4492 L 0.107459 15.4091 L 0.0859673 15.3689 L 0.0644756 15.3288 L 0.0429838 15.2885 L 0.0214919 15.2483 L 1.77636e-15 15.208 L 8.6086e-17 15.208 L -0.0214919 15.2483 L -0.0429838 15.2885 L -0.0644756 15.3288 L -0.0859673 15.3689 L -0.107459 15.4091 L -0.12895 15.4492 L -0.150441 15.4893 L -0.171932 15.5294 L -0.193422 15.5695 L -0.214913 15.6095 L -0.236402 15.6495 L -0.257892 15.6894 L -0.279381 15.7294 L -0.300869 15.7693 L -0.322357 15.8092 L -0.343844 15.849 L -0.365331 15.8888 L -0.386817 15.9286 L -0.408302 15.9684 L -0.429787 16.0082 L -0.451271 16.0479 L -0.472755 16.0876 L -0.494237 16.1273 L -0.515719 16.1669 L -0.5372 16.2065 L -0.55868 16.2461 L -0.58016 16.2857 L -0.601638 16.3252 L -0.623116 16.3647 L -0.644592 16.4042 L -0.666068 16.4437 L -0.687543 16.4832 L -0.709017 16.5226 L -0.730489 16.562 L -0.751961 16.6014 L -0.773432 16.6407 L -0.794901 16.68 L -0.81637 16.7194 L -0.837837 16.7586 L -0.859303 16.7979 L -0.880768 16.8371 L -0.902232 16.8764 L -0.923695 16.9156 L -0.945157 16.9547 L -0.966617 16.9939 L -0.988076 17.033 L -1.00953 17.0721 L -1.03099 17.1112 L -1.05245 17.1503 L -1.0739 17.1893 L -1.09535 17.2283 L -1.1168 17.2674 L -1.13825 17.3063 L -1.1597 17.3453 L -1.18115 17.3842 L -1.2026 17.4232 L -1.22404 17.4621 L -1.24548 17.5009 L -1.26693 17.5398 L -1.28837 17.5787 L -1.30981 17.6175 L -1.33124 17.6563 L -1.35268 17.6951 L -1.37411 17.7338 L -1.39555 17.7726 L -1.41698 17.8113 L -1.43841 17.85 L -1.45984 17.8887 L -1.48126 17.9274 L -1.50269 17.966 L -1.52411 18.0047 L -1.54554 18.0433 L -1.56696 18.0819 L -1.58838 18.1205 L -1.6098 18.159 L -1.63121 18.1976 L -1.65263 18.2361 L -1.67404 18.2746 L -1.69545 18.3131 L -1.71686 18.3516 L -1.73827 18.3901 L -1.75968 18.4285 L -1.78108 18.4669 L -1.80249 18.5053 L -1.82389 18.5437 L -1.84529 18.5821 L -1.86669 18.6205 L -1.88809 18.6588 L -1.90948 18.6972 L -1.93088 18.7355 L -1.94555 18.7745 L -1.98563 18.7703 L -2.02569 18.766 L -2.06575 18.7616 L -2.1058 18.7572 L -2.14584 18.7526 L -2.18587 18.748 L -2.22589 18.7433 L -2.2659 18.7385 L -2.3059 18.7336 L -2.34589 18.7287 L -2.38587 18.7236 L -2.42584 18.7185 L -2.4658 18.7132 L -2.50574 18.7079 L -2.54568 18.7025 L -2.5856 18.6971 L -2.62551 18.6915 L -2.66541 18.6859 L -2.7053 18.6801 L -2.74517 18.6743 L -2.78503 18.6684 L -2.82488 18.6624 L -2.86472 18.6563 L -2.90454 18.6502 L -2.94435 18.6439 L -2.98415 18.6376 L -3.02393 18.6312 L -3.0637 18.6247 L -3.10346 18.6181 L -3.1432 18.6114 L -3.18293 18.6047 L -3.22264 18.5979 L -3.33255 18.5785 L -3.37221 18.5713 L -3.41185 18.5641 L -3.45147 18.5567 L -3.49108 18.5493 L -3.53068 18.5418 L -3.57025 18.5343 L -3.60982 18.5266 L -3.64936 18.5188 L -3.68889 18.511 L -3.7284 18.5031 L -3.76789 18.4951 L -3.80737 18.487 L -3.84683 18.4788 L -3.88627 18.4706 L -3.9257 18.4622 L -3.9651 18.4538 L -4.00449 18.4453 L -4.04386 18.4367 L -4.08321 18.428 L -4.12255 18.4193 L -4.16186 18.4104 L -4.20116 18.4015 L -4.24043 18.3925 L -4.27969 18.3834 L -4.31893 18.3742 L -4.35814 18.365 L -4.39734 18.3556 L -4.43652 18.3462 L -4.47568 18.3367 L -4.51482 18.3271 L -4.55393 18.3174 L -4.59303 18.3076 L -4.59348 18.266 L -4.60048 18.2227 L -4.60747 18.1793 L -4.61447 18.136 L -4.62145 18.0926 L -4.62844 18.0492 L -4.63542 18.0058 L -4.64239 17.9624 L -4.64936 17.919 L -4.65633 17.8755 L -4.66329 17.8321 L -4.67025 17.7886 L -4.67721 17.7451 L -4.68416 17.7016 L -4.6911 17.658 L -4.69804 17.6145 L -4.70498 17.5709 L -4.71191 17.5274 L -4.71884 17.4838 L -4.72576 17.4401 L -4.73268 17.3965 L -4.73959 17.3529 L -4.7465 17.3092 L -4.7534 17.2655 L -4.7603 17.2218 L -4.76719 17.1781 L -4.77408 17.1343 L -4.78097 17.0906 L -4.78784 17.0468 L -4.79472 17.003 L -4.80158 16.9592 L -4.80845 16.9153 L -4.8153 16.8715 L -4.82216 16.8276 L -4.829 16.7837 L -4.83584 16.7398 L -4.84268 16.6959 L -4.84951 16.6519 L -4.85633 16.608 L -4.86315 16.564 L -4.86996 16.52 L -4.87676 16.4759 L -4.88356 16.4319 L -4.89036 16.3878 L -4.89715 16.3437 L -4.90393 16.2996 L -4.9107 16.2555 L -4.91747 16.2113 L -4.92423 16.1672 L -4.93099 16.123 L -4.93774 16.0788 L -4.94448 16.0345 L -4.95122 15.9903 L -4.95795 15.946 L -4.96467 15.9017 L -4.97139 15.8574 L -4.9781 15.813 L -4.9848 15.7686 L -4.99149 15.7243 L -4.99818 15.6798 L -5.00486 15.6354 L -5.01154 15.5909 L -5.0182 15.5465 L -5.02486 15.502 L -5.03151 15.4574 L -5.03815 15.4129 L -5.04479 15.3683 L -5.05141 15.3237 L -5.05803 15.2791 L -5.06464 15.2344 L -5.07125 15.1898 L -5.07784 15.1451 L -5.08443 15.1003 L -5.09101 15.0556 L -5.09758 15.0108 L -5.10414 14.966 L -5.11069 14.9212 L -5.11723 14.8763 L -5.12377 14.8315 L -5.13029 14.7866 L -5.13681 14.7416 L -5.14331 14.6967 L -5.14981 14.6517 L -5.1563 14.6067 L -5.16278 14.5616 L -5.16925 14.5166 L -5.17571 14.4715 L -5.18216 14.4264 L -5.18859 14.3812 L -5.19502 14.336 L -5.20144 14.2908 L -5.20144 14.2908 L -5.23542 14.3213 L -5.26938 14.3518 L -5.30333 14.3823 L -5.33727 14.4127 L -5.3712 14.4431 L -5.40513 14.4734 L -5.43904 14.5038 L -5.47294 14.5341 L -5.50683 14.5644 L -5.54071 14.5946 L -5.57458 14.6248 L -5.60844 14.655 L -5.6423 14.6852 L -5.67614 14.7154 L -5.70997 14.7455 L -5.74379 14.7756 L -5.7776 14.8057 L -5.81141 14.8357 L -5.8452 14.8658 L -5.87898 14.8958 L -5.91276 14.9257 L -5.94652 14.9557 L -5.98028 14.9856 L -6.01402 15.0155 L -6.04776 15.0454 L -6.08149 15.0753 L -6.1152 15.1051 L -6.14891 15.1349 L -6.18261 15.1647 L -6.2163 15.1945 L -6.24998 15.2242 L -6.28365 15.254 L -6.31731 15.2837 L -6.35097 15.3133 L -6.38461 15.343 L -6.41825 15.3726 L -6.45188 15.4022 L -6.48549 15.4318 L -6.5191 15.4614 L -6.5527 15.491 L -6.58629 15.5205 L -6.61988 15.55 L -6.65345 15.5795 L -6.68702 15.609 L -6.72057 15.6384 L -6.75412 15.6679 L -6.78766 15.6973 L -6.82119 15.7267 L -6.85472 15.756 L -6.88823 15.7854 L -6.92174 15.8147 L -6.95523 15.844 L -6.98872 15.8733 L -7.02221 15.9026 L -7.05568 15.9319 L -7.08914 15.9611 L -7.1226 15.9903 L -7.15605 16.0195 L -7.18949 16.0487 L -7.22292 16.0779 L -7.25635 16.107 L -7.28976 16.1362 L -7.32317 16.1653 L -7.35657 16.1944 L -7.38997 16.2235 L -7.42335 16.2525 L -7.45673 16.2816 L -7.4901 16.3106 L -7.52346 16.3396 L -7.55681 16.3686 L -7.59016 16.3976 L -7.6235 16.4265 L -7.65683 16.4555 L -7.69015 16.4844 L -7.72347 16.5133 L -7.75678 16.5422 L -7.79008 16.5711 L -7.82337 16.6 L -7.85666 16.6288 L -7.88994 16.6577 L -7.92321 16.6865 L -7.95648 16.7153 L -7.98974 16.7441 L -8.02299 16.7728 L -8.05623 16.8016 L -8.08946 16.8304 L -8.12269 16.8591 L -8.15592 16.8878 L -8.18913 16.9165 L -8.22234 16.9452 L -8.24946 16.9768 L -8.28569 16.9592 L -8.32187 16.9414 L -8.35802 16.9236 L -8.39414 16.9057 L -8.43021 16.8878 L -8.46624 16.8697 L -8.50224 16.8516 L -8.5382 16.8334 L -8.57412 16.8152 L -8.61 16.7968 L -8.64584 16.7784 L -8.68164 16.7599 L -8.7174 16.7413 L -8.75312 16.7227 L -8.7888 16.704 L -8.82444 16.6852 L -8.86004 16.6663 L -8.89561 16.6473 L -8.93113 16.6283 L -8.96661 16.6092 L -9.00205 16.59 L -9.03744 16.5708 L -9.0728 16.5514 L -9.10812 16.532 L -9.14339 16.5125 L -9.17862 16.493 L -9.21381 16.4734 L -9.24896 16.4536 L -9.28407 16.4339 L -9.31913 16.414 L -9.35415 16.3941 L -9.38913 16.3741 L -9.48579 16.3183 L -9.5206 16.298 L -9.55538 16.2776 L -9.59011 16.2572 L -9.62479 16.2367 L -9.65943 16.2161 L -9.69403 16.1954 L -9.72859 16.1747 L -9.7631 16.1539 L -9.79756 16.133 L -9.83198 16.112 L -9.86636 16.091 L -9.90069 16.0699 L -9.93497 16.0487 L -9.96921 16.0275 L -10.0034 16.0062 L -10.0376 15.9848 L -10.0717 15.9633 L -10.1057 15.9418 L -10.1397 15.9202 L -10.1737 15.8985 L -10.2076 15.8767 L -10.2415 15.8549 L -10.2753 15.833 L -10.3091 15.811 L -10.3428 15.789 L -10.3765 15.7669 L -10.4101 15.7447 L -10.4437 15.7224 L -10.4773 15.7001 L -10.5108 15.6777 L -10.5442 15.6552 L -10.5776 15.6326 L -10.5638 15.5933 L -10.5556 15.5502 L -10.5473 15.5071 L -10.539 15.464 L -10.5308 15.4209 L -10.5225 15.3777 L -10.5142 15.3345 L -10.5059 15.2914 L -10.4976 15.2482 L -10.4893 15.2049 L -10.481 15.1617 L -10.4727 15.1185 L -10.4643 15.0752 L -10.456 15.032 L -10.4476 14.9887 L -10.4392 14.9454 L -10.4308 14.9021 L -10.4225 14.8588 L -10.4141 14.8154 L -10.4056 14.7721 L -10.3972 14.7287 L -10.3888 14.6853 L -10.3803 14.6419 L -10.3719 14.5985 L -10.3634 14.5551 L -10.3549 14.5116 L -10.3465 14.4682 L -10.338 14.4247 L -10.3294 14.3812 L -10.3209 14.3377 L -10.3124 14.2942 L -10.3039 14.2506 L -10.2953 14.2071 L -10.2867 14.1635 L -10.2782 14.1199 L -10.2696 14.0763 L -10.261 14.0327 L -10.2523 13.9891 L -10.2437 13.9454 L -10.2351 13.9018 L -10.2264 13.8581 L -10.2178 13.8144 L -10.2091 13.7707 L -10.2004 13.7269 L -10.1917 13.6832 L -10.183 13.6394 L -10.1743 13.5956 L -10.1655 13.5518 L -10.1568 13.508 L -10.148 13.4641 L -10.1392 13.4203 L -10.1304 13.3764 L -10.1216 13.3325 L -10.1128 13.2886 L -10.104 13.2447 L -10.0951 13.2007 L -10.0863 13.1568 L -10.0774 13.1128 L -10.0685 13.0688 L -10.0596 13.0248 L -10.0507 12.9807 L -10.0417 12.9367 L -10.0328 12.8926 L -10.0238 12.8485 L -10.0148 12.8044 L -10.0058 12.7602 L -9.99682 12.7161 L -9.98779 12.6719 L -9.97875 12.6277 L -9.96969 12.5835 L -9.96061 12.5392 L -9.95152 12.495 L -9.94242 12.4507 L -9.93329 12.4064 L -9.92415 12.3621 L -9.915 12.3177 L -9.90582 12.2734 L -9.89663 12.229 L -9.88742 12.1846 L -9.8782 12.1402 L -9.86895 12.0957 L -9.85969 12.0512 L -9.85041 12.0067 L -9.84112 11.9622 L -9.8318 11.9177 L -9.82247 11.8731 L -9.81311 11.8286 L -9.80374 11.784 L -9.79435 11.7393 L -9.78494 11.6947 L -9.77551 11.65 L -9.77551 11.65 L -9.81787 11.667 L -9.86021 11.6841 L -9.90252 11.7011 L -9.94482 11.718 L -9.9871 11.735 L -10.0294 11.7519 L -10.0716 11.7688 L -10.1138 11.7857 L -10.156 11.8026 L -10.1982 11.8194 L -10.2404 11.8362 L -10.2825 11.853 L -10.3247 11.8698 L -10.3668 11.8866 L -10.4089 11.9033 L -10.451 11.92 L -10.493 11.9367 L -10.5351 11.9534 L -10.5771 11.9701 L -10.6191 11.9867 L -10.6611 12.0033 L -10.703 12.0199 L -10.745 12.0365 L -10.7869 12.0531 L -10.8289 12.0696 L -10.8708 12.0861 L -10.9127 12.1026 L -10.9545 12.1191 L -10.9964 12.1356 L -11.0382 12.152 L -11.0801 12.1685 L -11.1219 12.1849 L -11.1637 12.2013 L -11.2054 12.2177 L -11.2472 12.234 L -11.2889 12.2504 L -11.3307 12.2667 L -11.3724 12.283 L -11.4141 12.2993 L -11.4557 12.3156 L -11.4974 12.3319 L -11.5391 12.3481 L -11.5807 12.3643 L -11.6223 12.3805 L -11.6639 12.3967 L -11.7055 12.4129 L -11.7471 12.4291 L -11.7887 12.4452 L -11.8302 12.4614 L -11.8717 12.4775 L -11.9133 12.4936 L -11.9548 12.5097 L -11.9963 12.5258 L -12.0377 12.5418 L -12.0792 12.5579 L -12.1206 12.5739 L -12.1621 12.5899 L -12.2035 12.6059 L -12.2449 12.6219 L -12.2863 12.6379 L -12.3277 12.6538 L -12.369 12.6698 L -12.4104 12.6857 L -12.4517 12.7016 L -12.493 12.7175 L -12.5344 12.7334 L -12.5757 12.7493 L -12.6169 12.7652 L -12.6582 12.781 L -12.6995 12.7969 L -12.7407 12.8127 L -12.782 12.8285 L -12.8232 12.8443 L -12.8644 12.8601 L -12.9056 12.8759 L -12.9468 12.8916 L -12.9879 12.9074 L -13.0291 12.9231 L -13.0702 12.9389 L -13.1114 12.9546 L -13.1525 12.9703 L -13.1936 12.986 L -13.2347 13.0016 L -13.2758 13.0173 L -13.3169 13.033 L -13.3579 13.0486 L -13.399 13.0642 L -13.44 13.0799 L -13.481 13.0955 L -13.5221 13.1111 L -13.5584 13.1315 L -13.5864 13.1025 L -13.6143 13.0735 L -13.6422 13.0444 L -13.67 13.0152 L -13.6978 12.986 L -13.7255 12.9568 L -13.7531 12.9274 L -13.7807 12.898 L -13.8082 12.8686 L -13.8356 12.8391 L -13.863 12.8095 L -13.8903 12.7799 L -13.9176 12.7502 L -13.9447 12.7204 L -13.9719 12.6906 L -13.9989 12.6608 L -14.0259 12.6309 L -14.0529 12.6009 L -14.0797 12.5709 L -14.1065 12.5408 L -14.1333 12.5106 L -14.16 12.4804 L -14.1866 12.4502 L -14.2131 12.4199 L -14.2396 12.3895 L -14.266 12.3591 L -14.2924 12.3286 L -14.3187 12.298 L -14.3449 12.2674 L -14.371 12.2368 L -14.3971 12.2061 L -14.4232 12.1753 L -14.4949 12.0898 L -14.5207 12.0588 L -14.5464 12.0278 L -14.572 11.9967 L -14.5976 11.9656 L -14.6231 11.9344 L -14.6486 11.9032 L -14.6739 11.8719 L -14.6993 11.8405 L -14.7245 11.8091 L -14.7497 11.7776 L -14.7748 11.7461 L -14.7998 11.7145 L -14.8248 11.6829 L -14.8497 11.6512 L -14.8746 11.6195 L -14.8993 11.5877 L -14.924 11.5559 L -14.9487 11.524 L -14.9732 11.4921 L -14.9977 11.4601 L -15.0222 11.428 L -15.0465 11.3959 L -15.0708 11.3638 L -15.0951 11.3316 L -15.1192 11.2993 L -15.1433 11.267 L -15.1673 11.2347 L -15.1913 11.2023 L -15.2152 11.1698 L -15.239 11.1373 L -15.2627 11.1047 L -15.2864 11.0721 L -15.26 11.0399 L -15.2375 11.0022 L -15.215 10.9645 L -15.1925 10.9268 L -15.1699 10.8891 L -15.1474 10.8514 L -15.1249 10.8137 L -15.1023 10.7759 L -15.0797 10.7382 L -15.0571 10.7004 L -15.0345 10.6626 L -15.0119 10.6249 L -14.9893 10.5871 L -14.9666 10.5493 L -14.944 10.5115 L -14.9213 10.4736 L -14.8986 10.4358 L -14.8759 10.398 L -14.8532 10.3601 L -14.8304 10.3223 L -14.8077 10.2844 L -14.7849 10.2465 L -14.7622 10.2086 L -14.7394 10.1707 L -14.7166 10.1328 L -14.6937 10.0949 L -14.6709 10.0569 L -14.648 10.019 L -14.6252 9.98103 L -14.6023 9.94306 L -14.5794 9.90508 L -14.5565 9.86709 L -14.5335 9.82909 L -14.5106 9.79108 L -14.4876 9.75306 L -14.4646 9.71503 L -14.4416 9.67698 L -14.4186 9.63892 L -14.3956 9.60086 L -14.3725 9.56278 L -14.3494 9.52469 L -14.3264 9.48658 L -14.3032 9.44847 L -14.2801 9.41034 L -14.257 9.37221 L -14.2338 9.33406 L -14.2106 9.2959 L -14.1875 9.25772 L -14.1642 9.21954 L -14.141 9.18134 L -14.1178 9.14313 L -14.0945 9.10491 L -14.0712 9.06667 L -14.0479 9.02843 L -14.0246 8.99017 L -14.0012 8.9519 L -13.9779 8.91362 L -13.9545 8.87532 L -13.9311 8.83701 L -13.9076 8.79869 L -13.8842 8.76035 L -13.8607 8.72201 L -13.8372 8.68365 L -13.8137 8.64527 L -13.7902 8.60689 L -13.7667 8.56849 L -13.7431 8.53007 L -13.7195 8.49165 L -13.6959 8.45321 L -13.6722 8.41476 L -13.6486 8.37629 L -13.6249 8.33781 L -13.6012 8.29932 L -13.5775 8.26081 L -13.5537 8.22229 L -13.53 8.18375 L -13.5062 8.1452 L -13.4823 8.10664 L -13.4585 8.06806 L -13.4346 8.02947 L -13.4108 7.99086 L -13.3868 7.95224 L -13.3629 7.91361 L -13.3389 7.87496 L -13.315 7.8363 L -13.291 7.79762 L -13.2669 7.75892 L -13.2429 7.72021 L -13.2188 7.68149 L -13.1947 7.64275 L -13.1705 7.604 L -13.1705 7.604 L -13.2161 7.60553 L -13.2617 7.60704 L -13.3073 7.60854 L -13.3529 7.61002 L -13.3984 7.61149 L -13.4439 7.61295 L -13.4894 7.61439 L -13.5348 7.61581 L -13.5803 7.61723 L -13.6257 7.61862 L -13.671 7.62001 L -13.7164 7.62138 L -13.7617 7.62274 L -13.807 7.62408 L -13.8523 7.62541 L -13.8976 7.62673 L -13.9428 7.62804 L -13.988 7.62933 L -14.0332 7.63061 L -14.0784 7.63188 L -14.1235 7.63313 L -14.1686 7.63437 L -14.2137 7.6356 L -14.2588 7.63682 L -14.3039 7.63803 L -14.3489 7.63922 L -14.3939 7.64041 L -14.4389 7.64158 L -14.4838 7.64274 L -14.5288 7.64389 L -14.5737 7.64502 L -14.6186 7.64615 L -14.6635 7.64727 L -14.7083 7.64837 L -14.7532 7.64946 L -14.798 7.65055 L -14.8428 7.65162 L -14.8876 7.65268 L -14.9323 7.65373 L -14.9771 7.65477 L -15.0218 7.6558 L -15.0665 7.65682 L -15.1111 7.65784 L -15.1558 7.65884 L -15.2004 7.65983 L -15.2451 7.66081 L -15.2897 7.66178 L -15.3342 7.66274 L -15.3788 7.66369 L -15.4233 7.66464 L -15.4679 7.66557 L -15.5124 7.66649 L -15.5569 7.66741 L -15.6013 7.66832 L -15.6458 7.66921 L -15.6902 7.6701 L -15.7346 7.67098 L -15.779 7.67185 L -15.8234 7.67271 L -15.8677 7.67357 L -15.9121 7.67441 L -15.9564 7.67525 L -16.0007 7.67608 L -16.045 7.6769 L -16.0893 7.67771 L -16.1335 7.67851 L -16.1778 7.67931 L -16.222 7.6801 L -16.2662 7.68088 L -16.3104 7.68165 L -16.3546 7.68241 L -16.3987 7.68317 L -16.4429 7.68392 L -16.487 7.68466 L -16.5311 7.68539 L -16.5752 7.68612 L -16.6193 7.68684 L -16.6633 7.68755 L -16.7074 7.68826 L -16.7514 7.68895 L -16.7954 7.68964 L -16.8394 7.69033 L -16.8834 7.691 L -16.9273 7.69167 L -16.9713 7.69234 L -17.0152 7.69299 L -17.0592 7.69364 L -17.1031 7.69428 L -17.147 7.69492 L -17.1908 7.69555 L -17.2319 7.70234 L -17.2483 7.66553 L -17.2647 7.62869 L -17.2809 7.59181 L -17.2971 7.5549 L -17.3132 7.51796 L -17.3292 7.48098 L -17.3451 7.44397 L -17.361 7.40692 L -17.3767 7.36984 L -17.3924 7.33272 L -17.4081 7.29557 L -17.4236 7.25839 L -17.439 7.22118 L -17.4544 7.18393 L -17.4697 7.14665 L -17.4849 7.10934 L -17.5001 7.07199 L -17.5151 7.03461 L -17.5301 6.99721 L -17.545 6.95976 L -17.5598 6.92229 L -17.5746 6.88479 L -17.5892 6.84725 L -17.6038 6.80968 L -17.6183 6.77208 L -17.6327 6.73446 L -17.6471 6.6968 L -17.6613 6.6591 L -17.6755 6.62138 L -17.6896 6.58363 L -17.7036 6.54585 L -17.7175 6.50804 L -17.7557 6.40316 L -17.7693 6.36524 L -17.7829 6.32729 L -17.7964 6.28931 L -17.8097 6.2513 L -17.823 6.21327 L -17.8363 6.1752 L -17.8494 6.13711 L -17.8625 6.09899 L -17.8755 6.06084 L -17.8884 6.02266 L -17.9012 5.98446 L -17.9139 5.94623 L -17.9266 5.90797 L -17.9391 5.86968 L -17.9516 5.83137 L -17.964 5.79303 L -17.9764 5.75467 L -17.9886 5.71628 L -18.0008 5.67786 L -18.0128 5.63941 L -18.0248 5.60095 L -18.0368 5.56245 L -18.0486 5.52393 L -18.0603 5.48539 L -18.072 5.44682 L -18.0836 5.40822 L -18.0951 5.3696 L -18.1065 5.33096 L -18.1179 5.29229 L -18.1291 5.2536 L -18.1403 5.21488 L -18.1514 5.17614 L -18.1155 5.15492 L -18.0815 5.1272 L -18.0475 5.09947 L -18.0134 5.07174 L -17.9794 5.04401 L -17.9453 5.01627 L -17.9112 4.98852 L -17.8771 4.96077 L -17.843 4.93302 L -17.8088 4.90526 L -17.7747 4.8775 L -17.7405 4.84974 L -17.7063 4.82196 L -17.6721 4.79419 L -17.6379 4.76641 L -17.6036 4.73862 L -17.5694 4.71083 L -17.5351 4.68304 L -17.5008 4.65524 L -17.4665 4.62744 L -17.4322 4.59963 L -17.3978 4.57182 L -17.3634 4.544 L -17.3291 4.51618 L -17.2947 4.48835 L -17.2602 4.46052 L -17.2258 4.43269 L -17.1913 4.40484 L -17.1569 4.377 L -17.1224 4.34915 L -17.0879 4.32129 L -17.0533 4.29343 L -17.0188 4.26557 L -16.9842 4.2377 L -16.9496 4.20983 L -16.915 4.18195 L -16.8804 4.15406 L -16.8458 4.12617 L -16.8111 4.09828 L -16.7764 4.07038 L -16.7417 4.04248 L -16.707 4.01457 L -16.6722 3.98666 L -16.6375 3.95874 L -16.6027 3.93082 L -16.5679 3.90289 L -16.533 3.87496 L -16.4982 3.84702 L -16.4633 3.81907 L -16.4284 3.79113 L -16.3935 3.76317 L -16.3586 3.73522 L -16.3236 3.70725 L -16.2886 3.67928 L -16.2536 3.65131 L -16.2186 3.62333 L -16.1835 3.59535 L -16.1485 3.56736 L -16.1134 3.53937 L -16.0782 3.51137 L -16.0431 3.48337 L -16.0079 3.45536 L -15.9727 3.42734 L -15.9375 3.39932 L -15.9023 3.3713 L -15.867 3.34327 L -15.8317 3.31524 L -15.7964 3.2872 L -15.7611 3.25915 L -15.7257 3.2311 L -15.6903 3.20305 L -15.6549 3.17499 L -15.6195 3.14692 L -15.584 3.11885 L -15.5485 3.09077 L -15.513 3.06269 L -15.4775 3.03461 L -15.4419 3.00651 L -15.4063 2.97842 L -15.3707 2.95031 L -15.335 2.92221 L -15.2993 2.89409 L -15.2636 2.86598 L -15.2279 2.83785 L -15.1921 2.80972 L -15.1563 2.78159 L -15.1205 2.75345 L -15.0847 2.72531 L -15.0488 2.69716 L -15.0129 2.669 L -14.977 2.64084 L -14.977 2.64084 L -15.0204 2.62667 L -15.0637 2.6125 L -15.1071 2.59831 L -15.1504 2.58413 L -15.1937 2.56994 L -15.2369 2.55574 L -15.2802 2.54154 L -15.3234 2.52734 L -15.3665 2.51313 L -15.4097 2.49891 L -15.4528 2.48469 L -15.4959 2.47047 L -15.5389 2.45624 L -15.582 2.44201 L -15.625 2.42777 L -15.6679 2.41353 L -15.7109 2.39929 L -15.7538 2.38504 L -15.7967 2.37079 L -15.8396 2.35653 L -15.8824 2.34227 L -15.9253 2.32801 L -15.9681 2.31374 L -16.0108 2.29947 L -16.0536 2.28519 L -16.0963 2.27091 L -16.139 2.25663 L -16.1817 2.24235 L -16.2243 2.22806 L -16.267 2.21377 L -16.3096 2.19947 L -16.3521 2.18517 L -16.3947 2.17087 L -16.4372 2.15657 L -16.4797 2.14226 L -16.5222 2.12795 L -16.5647 2.11363 L -16.6071 2.09932 L -16.6495 2.085 L -16.6919 2.07068 L -16.7343 2.05635 L -16.7766 2.04202 L -16.819 2.02769 L -16.8613 2.01336 L -16.9036 1.99902 L -16.9458 1.98469 L -16.9881 1.97035 L -17.0303 1.956 L -17.0725 1.94166 L -17.1147 1.92731 L -17.1568 1.91296 L -17.199 1.89861 L -17.2411 1.88425 L -17.2832 1.86989 L -17.3252 1.85554 L -17.3673 1.84117 L -17.4093 1.82681 L -17.4513 1.81244 L -17.4933 1.79808 L -17.5353 1.78371 L -17.5773 1.76934 L -17.6192 1.75496 L -17.6611 1.74059 L -17.703 1.72621 L -17.7449 1.71183 L -17.7868 1.69745 L -17.8286 1.68307 L -17.8704 1.66868 L -17.9122 1.6543 L -17.954 1.63991 L -17.9958 1.62552 L -18.0376 1.61113 L -18.0793 1.59673 L -18.121 1.58234 L -18.1627 1.56794 L -18.2044 1.55355 L -18.246 1.53915 L -18.2877 1.52475 L -18.3293 1.51035 L -18.3709 1.49594 L -18.4125 1.48154 L -18.4541 1.46713 L -18.4957 1.45272 L -18.5372 1.43832 L -18.5787 1.42391 L -18.6202 1.40949 L -18.6617 1.39508 L -18.7032 1.38067 L -18.7447 1.36625 L -18.7861 1.35184 L -18.8271 1.34416 L -18.8299 1.30396 L -18.8326 1.26376 L -18.8353 1.22355 L -18.8379 1.18334 L -18.8404 1.14312 L -18.8428 1.10289 L -18.8451 1.06266 L -18.8473 1.02243 L -18.8494 0.982186 L -18.8515 0.941941 L -18.8534 0.901693 L -18.8553 0.86144 L -18.8571 0.821183 L -18.8588 0.780923 L -18.8605 0.740659 L -18.862 0.700392 L -18.8635 0.660121 L -18.8648 0.619848 L -18.8661 0.579571 L -18.8673 0.539292 L -18.8684 0.499011 L -18.8694 0.458727 L -18.8704 0.418441 L -18.8712 0.378154 L -18.872 0.337864 L -18.8727 0.297573 L -18.8732 0.257281 L -18.8738 0.216987 L -18.8742 0.176693 L -18.8745 0.136398 L -18.8748 0.0961016 L -18.8749 0.0558052 L -18.8749 -0.0558052 L -18.8748 -0.0961016 L -18.8745 -0.136398 L -18.8742 -0.176693 L -18.8738 -0.216987 L -18.8732 -0.257281 L -18.8727 -0.297573 L -18.872 -0.337864 L -18.8712 -0.378154 L -18.8704 -0.418441 L -18.8694 -0.458727 L -18.8684 -0.499011 L -18.8673 -0.539292 L -18.8661 -0.579571 L -18.8648 -0.619848 L -18.8635 -0.660121 L -18.862 -0.700392 L -18.8605 -0.740659 L -18.8588 -0.780923 L -18.8571 -0.821183 L -18.8553 -0.86144 L -18.8534 -0.901693 L -18.8515 -0.941941 L -18.8494 -0.982186 L -18.8473 -1.02243 L -18.8451 -1.06266 L -18.8428 -1.10289 L -18.8404 -1.14312 L -18.8379 -1.18334 L -18.8353 -1.22355 L -18.8326 -1.26376 L -18.8299 -1.30396 L -18.8271 -1.34416 L -18.7861 -1.35184 L -18.7447 -1.36625 L -18.7032 -1.38067 L -18.6617 -1.39508 L -18.6202 -1.40949 L -18.5787 -1.42391 L -18.5372 -1.43832 L -18.4957 -1.45272 L -18.4541 -1.46713 L -18.4125 -1.48154 L -18.3709 -1.49594 L -18.3293 -1.51035 L -18.2877 -1.52475 L -18.246 -1.53915 L -18.2044 -1.55355 L -18.1627 -1.56794 L -18.121 -1.58234 L -18.0793 -1.59673 L -18.0376 -1.61113 L -17.9958 -1.62552 L -17.954 -1.63991 L -17.9122 -1.6543 L -17.8704 -1.66868 L -17.8286 -1.68307 L -17.7868 -1.69745 L -17.7449 -1.71183 L -17.703 -1.72621 L -17.6611 -1.74059 L -17.6192 -1.75496 L -17.5773 -1.76934 L -17.5353 -1.78371 L -17.4933 -1.79808 L -17.4513 -1.81244 L -17.4093 -1.82681 L -17.3673 -1.84117 L -17.3252 -1.85554 L -17.2832 -1.86989 L -17.2411 -1.88425 L -17.199 -1.89861 L -17.1568 -1.91296 L -17.1147 -1.92731 L -17.0725 -1.94166 L -17.0303 -1.956 L -16.9881 -1.97035 L -16.9458 -1.98469 L -16.9036 -1.99902 L -16.8613 -2.01336 L -16.819 -2.02769 L -16.7766 -2.04202 L -16.7343 -2.05635 L -16.6919 -2.07068 L -16.6495 -2.085 L -16.6071 -2.09932 L -16.5647 -2.11363 L -16.5222 -2.12795 L -16.4797 -2.14226 L -16.4372 -2.15657 L -16.3947 -2.17087 L -16.3521 -2.18517 L -16.3096 -2.19947 L -16.267 -2.21377 L -16.2243 -2.22806 L -16.1817 -2.24235 L -16.139 -2.25663 L -16.0963 -2.27091 L -16.0536 -2.28519 L -16.0108 -2.29947 L -15.9681 -2.31374 L -15.9253 -2.32801 L -15.8824 -2.34227 L -15.8396 -2.35653 L -15.7967 -2.37079 L -15.7538 -2.38504 L -15.7109 -2.39929 L -15.6679 -2.41353 L -15.625 -2.42777 L -15.582 -2.44201 L -15.5389 -2.45624 L -15.4959 -2.47047 L -15.4528 -2.48469 L -15.4097 -2.49891 L -15.3665 -2.51313 L -15.3234 -2.52734 L -15.2802 -2.54154 L -15.2369 -2.55574 L -15.1937 -2.56994 L -15.1504 -2.58413 L -15.1071 -2.59831 L -15.0637 -2.6125 L -15.0204 -2.62667 L -14.977 -2.64084 L -14.977 -2.64084 L -15.0129 -2.669 L -15.0488 -2.69716 L -15.0847 -2.72531 L -15.1205 -2.75345 L -15.1563 -2.78159 L -15.1921 -2.80972 L -15.2279 -2.83785 L -15.2636 -2.86598 L -15.2993 -2.89409 L -15.335 -2.92221 L -15.3707 -2.95031 L -15.4063 -2.97842 L -15.4419 -3.00651 L -15.4775 -3.03461 L -15.513 -3.06269 L -15.5485 -3.09077 L -15.584 -3.11885 L -15.6195 -3.14692 L -15.6549 -3.17499 L -15.6903 -3.20305 L -15.7257 -3.2311 L -15.7611 -3.25915 L -15.7964 -3.2872 L -15.8317 -3.31524 L -15.867 -3.34327 L -15.9023 -3.3713 L -15.9375 -3.39932 L -15.9727 -3.42734 L -16.0079 -3.45536 L -16.0431 -3.48337 L -16.0782 -3.51137 L -16.1134 -3.53937 L -16.1485 -3.56736 L -16.1835 -3.59535 L -16.2186 -3.62333 L -16.2536 -3.65131 L -16.2886 -3.67928 L -16.3236 -3.70725 L -16.3586 -3.73522 L -16.3935 -3.76317 L -16.4284 -3.79113 L -16.4633 -3.81907 L -16.4982 -3.84702 L -16.533 -3.87496 L -16.5679 -3.90289 L -16.6027 -3.93082 L -16.6375 -3.95874 L -16.6722 -3.98666 L -16.707 -4.01457 L -16.7417 -4.04248 L -16.7764 -4.07038 L -16.8111 -4.09828 L -16.8458 -4.12617 L -16.8804 -4.15406 L -16.915 -4.18195 L -16.9496 -4.20983 L -16.9842 -4.2377 L -17.0188 -4.26557 L -17.0533 -4.29343 L -17.0879 -4.32129 L -17.1224 -4.34915 L -17.1569 -4.377 L -17.1913 -4.40484 L -17.2258 -4.43269 L -17.2602 -4.46052 L -17.2947 -4.48835 L -17.3291 -4.51618 L -17.3634 -4.544 L -17.3978 -4.57182 L -17.4322 -4.59963 L -17.4665 -4.62744 L -17.5008 -4.65524 L -17.5351 -4.68304 L -17.5694 -4.71083 L -17.6036 -4.73862 L -17.6379 -4.76641 L -17.6721 -4.79419 L -17.7063 -4.82196 L -17.7405 -4.84974 L -17.7747 -4.8775 L -17.8088 -4.90526 L -17.843 -4.93302 L -17.8771 -4.96077 L -17.9112 -4.98852 L -17.9453 -5.01627 L -17.9794 -5.04401 L -18.0134 -5.07174 L -18.0475 -5.09947 L -18.0815 -5.1272 L -18.1155 -5.15492 L -18.1514 -5.17614 L -18.1403 -5.21488 L -18.1291 -5.2536 L -18.1179 -5.29229 L -18.1065 -5.33096 L -18.0951 -5.3696 L -18.0836 -5.40822 L -18.072 -5.44682 L -18.0603 -5.48539 L -18.0486 -5.52393 L -18.0368 -5.56245 L -18.0248 -5.60095 L -18.0128 -5.63941 L -18.0008 -5.67786 L -17.9886 -5.71628 L -17.9764 -5.75467 L -17.964 -5.79303 L -17.9516 -5.83137 L -17.9391 -5.86968 L -17.9266 -5.90797 L -17.9139 -5.94623 L -17.9012 -5.98446 L -17.8884 -6.02266 L -17.8755 -6.06084 L -17.8625 -6.09899 L -17.8494 -6.13711 L -17.8363 -6.1752 L -17.823 -6.21327 L -17.8097 -6.2513 L -17.7964 -6.28931 L -17.7829 -6.32729 L -17.7693 -6.36524 L -17.7557 -6.40316 L -17.7175 -6.50804 L -17.7036 -6.54585 L -17.6896 -6.58363 L -17.6755 -6.62138 L -17.6613 -6.6591 L -17.6471 -6.6968 L -17.6327 -6.73446 L -17.6183 -6.77208 L -17.6038 -6.80968 L -17.5892 -6.84725 L -17.5746 -6.88479 L -17.5598 -6.92229 L -17.545 -6.95976 L -17.5301 -6.99721 L -17.5151 -7.03461 L -17.5001 -7.07199 L -17.4849 -7.10934 L -17.4697 -7.14665 L -17.4544 -7.18393 L -17.439 -7.22118 L -17.4236 -7.25839 L -17.4081 -7.29557 L -17.3924 -7.33272 L -17.3767 -7.36984 L -17.361 -7.40692 L -17.3451 -7.44397 L -17.3292 -7.48098 L -17.3132 -7.51796 L -17.2971 -7.5549 L -17.2809 -7.59181 L -17.2647 -7.62869 L -17.2483 -7.66553 L -17.2319 -7.70234 L -17.1908 -7.69555 L -17.147 -7.69492 L -17.1031 -7.69428 L -17.0592 -7.69364 L -17.0152 -7.69299 L -16.9713 -7.69234 L -16.9273 -7.69167 L -16.8834 -7.691 L -16.8394 -7.69033 L -16.7954 -7.68964 L -16.7514 -7.68895 L -16.7074 -7.68826 L -16.6633 -7.68755 L -16.6193 -7.68684 L -16.5752 -7.68612 L -16.5311 -7.68539 L -16.487 -7.68466 L -16.4429 -7.68392 L -16.3987 -7.68317 L -16.3546 -7.68241 L -16.3104 -7.68165 L -16.2662 -7.68088 L -16.222 -7.6801 L -16.1778 -7.67931 L -16.1335 -7.67851 L -16.0893 -7.67771 L -16.045 -7.6769 L -16.0007 -7.67608 L -15.9564 -7.67525 L -15.9121 -7.67441 L -15.8677 -7.67357 L -15.8234 -7.67271 L -15.779 -7.67185 L -15.7346 -7.67098 L -15.6902 -7.6701 L -15.6458 -7.66921 L -15.6013 -7.66832 L -15.5569 -7.66741 L -15.5124 -7.66649 L -15.4679 -7.66557 L -15.4233 -7.66464 L -15.3788 -7.66369 L -15.3342 -7.66274 L -15.2897 -7.66178 L -15.2451 -7.66081 L -15.2004 -7.65983 L -15.1558 -7.65884 L -15.1111 -7.65784 L -15.0665 -7.65682 L -15.0218 -7.6558 L -14.9771 -7.65477 L -14.9323 -7.65373 L -14.8876 -7.65268 L -14.8428 -7.65162 L -14.798 -7.65055 L -14.7532 -7.64946 L -14.7083 -7.64837 L -14.6635 -7.64727 L -14.6186 -7.64615 L -14.5737 -7.64502 L -14.5288 -7.64389 L -14.4838 -7.64274 L -14.4389 -7.64158 L -14.3939 -7.64041 L -14.3489 -7.63922 L -14.3039 -7.63803 L -14.2588 -7.63682 L -14.2137 -7.6356 L -14.1686 -7.63437 L -14.1235 -7.63313 L -14.0784 -7.63188 L -14.0332 -7.63061 L -13.988 -7.62933 L -13.9428 -7.62804 L -13.8976 -7.62673 L -13.8523 -7.62541 L -13.807 -7.62408 L -13.7617 -7.62274 L -13.7164 -7.62138 L -13.671 -7.62001 L -13.6257 -7.61862 L -13.5803 -7.61723 L -13.5348 -7.61581 L -13.4894 -7.61439 L -13.4439 -7.61295 L -13.3984 -7.61149 L -13.3529 -7.61002 L -13.3073 -7.60854 L -13.2617 -7.60704 L -13.2161 -7.60553 L -13.1705 -7.604 L -13.1705 -7.604 L -13.1947 -7.64275 L -13.2188 -7.68149 L -13.2429 -7.72021 L -13.2669 -7.75892 L -13.291 -7.79762 L -13.315 -7.8363 L -13.3389 -7.87496 L -13.3629 -7.91361 L -13.3868 -7.95224 L -13.4108 -7.99086 L -13.4346 -8.02947 L -13.4585 -8.06806 L -13.4823 -8.10664 L -13.5062 -8.1452 L -13.53 -8.18375 L -13.5537 -8.22229 L -13.5775 -8.26081 L -13.6012 -8.29932 L -13.6249 -8.33781 L -13.6486 -8.37629 L -13.6722 -8.41476 L -13.6959 -8.45321 L -13.7195 -8.49165 L -13.7431 -8.53007 L -13.7667 -8.56849 L -13.7902 -8.60689 L -13.8137 -8.64527 L -13.8372 -8.68365 L -13.8607 -8.72201 L -13.8842 -8.76035 L -13.9076 -8.79869 L -13.9311 -8.83701 L -13.9545 -8.87532 L -13.9779 -8.91362 L -14.0012 -8.9519 L -14.0246 -8.99017 L -14.0479 -9.02843 L -14.0712 -9.06667 L -14.0945 -9.10491 L -14.1178 -9.14313 L -14.141 -9.18134 L -14.1642 -9.21954 L -14.1875 -9.25772 L -14.2106 -9.2959 L -14.2338 -9.33406 L -14.257 -9.37221 L -14.2801 -9.41034 L -14.3032 -9.44847 L -14.3264 -9.48658 L -14.3494 -9.52469 L -14.3725 -9.56278 L -14.3956 -9.60086 L -14.4186 -9.63892 L -14.4416 -9.67698 L -14.4646 -9.71503 L -14.4876 -9.75306 L -14.5106 -9.79108 L -14.5335 -9.82909 L -14.5565 -9.86709 L -14.5794 -9.90508 L -14.6023 -9.94306 L -14.6252 -9.98103 L -14.648 -10.019 L -14.6709 -10.0569 L -14.6937 -10.0949 L -14.7166 -10.1328 L -14.7394 -10.1707 L -14.7622 -10.2086 L -14.7849 -10.2465 L -14.8077 -10.2844 L -14.8304 -10.3223 L -14.8532 -10.3601 L -14.8759 -10.398 L -14.8986 -10.4358 L -14.9213 -10.4736 L -14.944 -10.5115 L -14.9666 -10.5493 L -14.9893 -10.5871 L -15.0119 -10.6249 L -15.0345 -10.6626 L -15.0571 -10.7004 L -15.0797 -10.7382 L -15.1023 -10.7759 L -15.1249 -10.8137 L -15.1474 -10.8514 L -15.1699 -10.8891 L -15.1925 -10.9268 L -15.215 -10.9645 L -15.2375 -11.0022 L -15.26 -11.0399 L -15.2864 -11.0721 L -15.2627 -11.1047 L -15.239 -11.1373 L -15.2152 -11.1698 L -15.1913 -11.2023 L -15.1673 -11.2347 L -15.1433 -11.267 L -15.1192 -11.2993 L -15.0951 -11.3316 L -15.0708 -11.3638 L -15.0465 -11.3959 L -15.0222 -11.428 L -14.9977 -11.4601 L -14.9732 -11.4921 L -14.9487 -11.524 L -14.924 -11.5559 L -14.8993 -11.5877 L -14.8746 -11.6195 L -14.8497 -11.6512 L -14.8248 -11.6829 L -14.7998 -11.7145 L -14.7748 -11.7461 L -14.7497 -11.7776 L -14.7245 -11.8091 L -14.6993 -11.8405 L -14.6739 -11.8719 L -14.6486 -11.9032 L -14.6231 -11.9344 L -14.5976 -11.9656 L -14.572 -11.9967 L -14.5464 -12.0278 L -14.5207 -12.0588 L -14.4949 -12.0898 L -14.4232 -12.1753 L -14.3971 -12.2061 L -14.371 -12.2368 L -14.3449 -12.2674 L -14.3187 -12.298 L -14.2924 -12.3286 L -14.266 -12.3591 L -14.2396 -12.3895 L -14.2131 -12.4199 L -14.1866 -12.4502 L -14.16 -12.4804 L -14.1333 -12.5106 L -14.1065 -12.5408 L -14.0797 -12.5709 L -14.0529 -12.6009 L -14.0259 -12.6309 L -13.9989 -12.6608 L -13.9719 -12.6906 L -13.9447 -12.7204 L -13.9176 -12.7502 L -13.8903 -12.7799 L -13.863 -12.8095 L -13.8356 -12.8391 L -13.8082 -12.8686 L -13.7807 -12.898 L -13.7531 -12.9274 L -13.7255 -12.9568 L -13.6978 -12.986 L -13.67 -13.0152 L -13.6422 -13.0444 L -13.6143 -13.0735 L -13.5864 -13.1025 L -13.5584 -13.1315 L -13.5221 -13.1111 L -13.481 -13.0955 L -13.44 -13.0799 L -13.399 -13.0642 L -13.3579 -13.0486 L -13.3169 -13.033 L -13.2758 -13.0173 L -13.2347 -13.0016 L -13.1936 -12.986 L -13.1525 -12.9703 L -13.1114 -12.9546 L -13.0702 -12.9389 L -13.0291 -12.9231 L -12.9879 -12.9074 L -12.9468 -12.8916 L -12.9056 -12.8759 L -12.8644 -12.8601 L -12.8232 -12.8443 L -12.782 -12.8285 L -12.7407 -12.8127 L -12.6995 -12.7969 L -12.6582 -12.781 L -12.6169 -12.7652 L -12.5757 -12.7493 L -12.5344 -12.7334 L -12.493 -12.7175 L -12.4517 -12.7016 L -12.4104 -12.6857 L -12.369 -12.6698 L -12.3277 -12.6538 L -12.2863 -12.6379 L -12.2449 -12.6219 L -12.2035 -12.6059 L -12.1621 -12.5899 L -12.1206 -12.5739 L -12.0792 -12.5579 L -12.0377 -12.5418 L -11.9963 -12.5258 L -11.9548 -12.5097 L -11.9133 -12.4936 L -11.8717 -12.4775 L -11.8302 -12.4614 L -11.7887 -12.4452 L -11.7471 -12.4291 L -11.7055 -12.4129 L -11.6639 -12.3967 L -11.6223 -12.3805 L -11.5807 -12.3643 L -11.5391 -12.3481 L -11.4974 -12.3319 L -11.4557 -12.3156 L -11.4141 -12.2993 L -11.3724 -12.283 L -11.3307 -12.2667 L -11.2889 -12.2504 L -11.2472 -12.234 L -11.2054 -12.2177 L -11.1637 -12.2013 L -11.1219 -12.1849 L -11.0801 -12.1685 L -11.0382 -12.152 L -10.9964 -12.1356 L -10.9545 -12.1191 L -10.9127 -12.1026 L -10.8708 -12.0861 L -10.8289 -12.0696 L -10.7869 -12.0531 L -10.745 -12.0365 L -10.703 -12.0199 L -10.6611 -12.0033 L -10.6191 -11.9867 L -10.5771 -11.9701 L -10.5351 -11.9534 L -10.493 -11.9367 L -10.451 -11.92 L -10.4089 -11.9033 L -10.3668 -11.8866 L -10.3247 -11.8698 L -10.2825 -11.853 L -10.2404 -11.8362 L -10.1982 -11.8194 L -10.156 -11.8026 L -10.1138 -11.7857 L -10.0716 -11.7688 L -10.0294 -11.7519 L -9.9871 -11.735 L -9.94482 -11.718 L -9.90252 -11.7011 L -9.86021 -11.6841 L -9.81787 -11.667 L -9.77551 -11.65 L -9.77551 -11.65 L -9.78494 -11.6947 L -9.79435 -11.7393 L -9.80374 -11.784 L -9.81311 -11.8286 L -9.82247 -11.8731 L -9.8318 -11.9177 L -9.84112 -11.9622 L -9.85041 -12.0067 L -9.85969 -12.0512 L -9.86895 -12.0957 L -9.8782 -12.1402 L -9.88742 -12.1846 L -9.89663 -12.229 L -9.90582 -12.2734 L -9.915 -12.3177 L -9.92415 -12.3621 L -9.93329 -12.4064 L -9.94242 -12.4507 L -9.95152 -12.495 L -9.96061 -12.5392 L -9.96969 -12.5835 L -9.97875 -12.6277 L -9.98779 -12.6719 L -9.99682 -12.7161 L -10.0058 -12.7602 L -10.0148 -12.8044 L -10.0238 -12.8485 L -10.0328 -12.8926 L -10.0417 -12.9367 L -10.0507 -12.9807 L -10.0596 -13.0248 L -10.0685 -13.0688 L -10.0774 -13.1128 L -10.0863 -13.1568 L -10.0951 -13.2007 L -10.104 -13.2447 L -10.1128 -13.2886 L -10.1216 -13.3325 L -10.1304 -13.3764 L -10.1392 -13.4203 L -10.148 -13.4641 L -10.1568 -13.508 L -10.1655 -13.5518 L -10.1743 -13.5956 L -10.183 -13.6394 L -10.1917 -13.6832 L -10.2004 -13.7269 L -10.2091 -13.7707 L -10.2178 -13.8144 L -10.2264 -13.8581 L -10.2351 -13.9018 L -10.2437 -13.9454 L -10.2523 -13.9891 L -10.261 -14.0327 L -10.2696 -14.0763 L -10.2782 -14.1199 L -10.2867 -14.1635 L -10.2953 -14.2071 L -10.3039 -14.2506 L -10.3124 -14.2942 L -10.3209 -14.3377 L -10.3294 -14.3812 L -10.338 -14.4247 L -10.3465 -14.4682 L -10.3549 -14.5116 L -10.3634 -14.5551 L -10.3719 -14.5985 L -10.3803 -14.6419 L -10.3888 -14.6853 L -10.3972 -14.7287 L -10.4056 -14.7721 L -10.4141 -14.8154 L -10.4225 -14.8588 L -10.4308 -14.9021 L -10.4392 -14.9454 L -10.4476 -14.9887 L -10.456 -15.032 L -10.4643 -15.0752 L -10.4727 -15.1185 L -10.481 -15.1617 L -10.4893 -15.2049 L -10.4976 -15.2482 L -10.5059 -15.2914 L -10.5142 -15.3345 L -10.5225 -15.3777 L -10.5308 -15.4209 L -10.539 -15.464 L -10.5473 -15.5071 L -10.5556 -15.5502 L -10.5638 -15.5933 L -10.5776 -15.6326 L -10.5442 -15.6552 L -10.5108 -15.6777 L -10.4773 -15.7001 L -10.4437 -15.7224 L -10.4101 -15.7447 L -10.3765 -15.7669 L -10.3428 -15.789 L -10.3091 -15.811 L -10.2753 -15.833 L -10.2415 -15.8549 L -10.2076 -15.8767 L -10.1737 -15.8985 L -10.1397 -15.9202 L -10.1057 -15.9418 L -10.0717 -15.9633 L -10.0376 -15.9848 L -10.0034 -16.0062 L -9.96921 -16.0275 L -9.93497 -16.0487 L -9.90069 -16.0699 L -9.86636 -16.091 L -9.83198 -16.112 L -9.79756 -16.133 L -9.7631 -16.1539 L -9.72859 -16.1747 L -9.69403 -16.1954 L -9.65943 -16.2161 L -9.62479 -16.2367 L -9.59011 -16.2572 L -9.55538 -16.2776 L -9.5206 -16.298 L -9.48579 -16.3183 L -9.38913 -16.3741 L -9.35415 -16.3941 L -9.31913 -16.414 L -9.28407 -16.4339 L -9.24896 -16.4536 L -9.21381 -16.4734 L -9.17862 -16.493 L -9.14339 -16.5125 L -9.10812 -16.532 L -9.0728 -16.5514 L -9.03744 -16.5708 L -9.00205 -16.59 L -8.96661 -16.6092 L -8.93113 -16.6283 L -8.89561 -16.6473 L -8.86004 -16.6663 L -8.82444 -16.6852 L -8.7888 -16.704 L -8.75312 -16.7227 L -8.7174 -16.7413 L -8.68164 -16.7599 L -8.64584 -16.7784 L -8.61 -16.7968 L -8.57412 -16.8152 L -8.5382 -16.8334 L -8.50224 -16.8516 L -8.46624 -16.8697 L -8.43021 -16.8878 L -8.39414 -16.9057 L -8.35802 -16.9236 L -8.32187 -16.9414 L -8.28569 -16.9592 L -8.24946 -16.9768 L -8.22234 -16.9452 L -8.18913 -16.9165 L -8.15592 -16.8878 L -8.12269 -16.8591 L -8.08946 -16.8304 L -8.05623 -16.8016 L -8.02299 -16.7728 L -7.98974 -16.7441 L -7.95648 -16.7153 L -7.92321 -16.6865 L -7.88994 -16.6577 L -7.85666 -16.6288 L -7.82337 -16.6 L -7.79008 -16.5711 L -7.75678 -16.5422 L -7.72347 -16.5133 L -7.69015 -16.4844 L -7.65683 -16.4555 L -7.6235 -16.4265 L -7.59016 -16.3976 L -7.55681 -16.3686 L -7.52346 -16.3396 L -7.4901 -16.3106 L -7.45673 -16.2816 L -7.42335 -16.2525 L -7.38997 -16.2235 L -7.35657 -16.1944 L -7.32317 -16.1653 L -7.28976 -16.1362 L -7.25635 -16.107 L -7.22292 -16.0779 L -7.18949 -16.0487 L -7.15605 -16.0195 L -7.1226 -15.9903 L -7.08914 -15.9611 L -7.05568 -15.9319 L -7.02221 -15.9026 L -6.98872 -15.8733 L -6.95523 -15.844 L -6.92174 -15.8147 L -6.88823 -15.7854 L -6.85472 -15.756 L -6.82119 -15.7267 L -6.78766 -15.6973 L -6.75412 -15.6679 L -6.72057 -15.6384 L -6.68702 -15.609 L -6.65345 -15.5795 L -6.61988 -15.55 L -6.58629 -15.5205 L -6.5527 -15.491 L -6.5191 -15.4614 L -6.48549 -15.4318 L -6.45188 -15.4022 L -6.41825 -15.3726 L -6.38461 -15.343 L -6.35097 -15.3133 L -6.31731 -15.2837 L -6.28365 -15.254 L -6.24998 -15.2242 L -6.2163 -15.1945 L -6.18261 -15.1647 L -6.14891 -15.1349 L -6.1152 -15.1051 L -6.08149 -15.0753 L -6.04776 -15.0454 L -6.01402 -15.0155 L -5.98028 -14.9856 L -5.94652 -14.9557 L -5.91276 -14.9257 L -5.87898 -14.8958 L -5.8452 -14.8658 L -5.81141 -14.8357 L -5.7776 -14.8057 L -5.74379 -14.7756 L -5.70997 -14.7455 L -5.67614 -14.7154 L -5.6423 -14.6852 L -5.60844 -14.655 L -5.57458 -14.6248 L -5.54071 -14.5946 L -5.50683 -14.5644 L -5.47294 -14.5341 L -5.43904 -14.5038 L -5.40513 -14.4734 L -5.3712 -14.4431 L -5.33727 -14.4127 L -5.30333 -14.3823 L -5.26938 -14.3518 L -5.23542 -14.3213 L -5.20144 -14.2908 L -5.20144 -14.2908 L -5.19502 -14.336 L -5.18859 -14.3812 L -5.18216 -14.4264 L -5.17571 -14.4715 L -5.16925 -14.5166 L -5.16278 -14.5616 L -5.1563 -14.6067 L -5.14981 -14.6517 L -5.14331 -14.6967 L -5.13681 -14.7416 L -5.13029 -14.7866 L -5.12377 -14.8315 L -5.11723 -14.8763 L -5.11069 -14.9212 L -5.10414 -14.966 L -5.09758 -15.0108 L -5.09101 -15.0556 L -5.08443 -15.1003 L -5.07784 -15.1451 L -5.07125 -15.1898 L -5.06464 -15.2344 L -5.05803 -15.2791 L -5.05141 -15.3237 L -5.04479 -15.3683 L -5.03815 -15.4129 L -5.03151 -15.4574 L -5.02486 -15.502 L -5.0182 -15.5465 L -5.01154 -15.5909 L -5.00486 -15.6354 L -4.99818 -15.6798 L -4.99149 -15.7243 L -4.9848 -15.7686 L -4.9781 -15.813 L -4.97139 -15.8574 L -4.96467 -15.9017 L -4.95795 -15.946 L -4.95122 -15.9903 L -4.94448 -16.0345 L -4.93774 -16.0788 L -4.93099 -16.123 L -4.92423 -16.1672 L -4.91747 -16.2113 L -4.9107 -16.2555 L -4.90393 -16.2996 L -4.89715 -16.3437 L -4.89036 -16.3878 L -4.88356 -16.4319 L -4.87676 -16.4759 L -4.86996 -16.52 L -4.86315 -16.564 L -4.85633 -16.608 L -4.84951 -16.6519 L -4.84268 -16.6959 L -4.83584 -16.7398 L -4.829 -16.7837 L -4.82216 -16.8276 L -4.8153 -16.8715 L -4.80845 -16.9153 L -4.80158 -16.9592 L -4.79472 -17.003 L -4.78784 -17.0468 L -4.78097 -17.0906 L -4.77408 -17.1343 L -4.76719 -17.1781 L -4.7603 -17.2218 L -4.7534 -17.2655 L -4.7465 -17.3092 L -4.73959 -17.3529 L -4.73268 -17.3965 L -4.72576 -17.4401 L -4.71884 -17.4838 L -4.71191 -17.5274 L -4.70498 -17.5709 L -4.69804 -17.6145 L -4.6911 -17.658 L -4.68416 -17.7016 L -4.67721 -17.7451 L -4.67025 -17.7886 L -4.66329 -17.8321 L -4.65633 -17.8755 L -4.64936 -17.919 L -4.64239 -17.9624 L -4.63542 -18.0058 L -4.62844 -18.0492 L -4.62145 -18.0926 L -4.61447 -18.136 L -4.60747 -18.1793 L -4.60048 -18.2227 L -4.59348 -18.266 L -4.59303 -18.3076 L -4.55393 -18.3174 L -4.51482 -18.3271 L -4.47568 -18.3367 L -4.43652 -18.3462 L -4.39734 -18.3556 L -4.35814 -18.365 L -4.31893 -18.3742 L -4.27969 -18.3834 L -4.24043 -18.3925 L -4.20116 -18.4015 L -4.16186 -18.4104 L -4.12255 -18.4193 L -4.08321 -18.428 L -4.04386 -18.4367 L -4.00449 -18.4453 L -3.9651 -18.4538 L -3.9257 -18.4622 L -3.88627 -18.4706 L -3.84683 -18.4788 L -3.80737 -18.487 L -3.76789 -18.4951 L -3.7284 -18.5031 L -3.68889 -18.511 L -3.64936 -18.5188 L -3.60982 -18.5266 L -3.57025 -18.5343 L -3.53068 -18.5418 L -3.49108 -18.5493 L -3.45147 -18.5567 L -3.41185 -18.5641 L -3.37221 -18.5713 L -3.33255 -18.5785 L -3.22264 -18.5979 L -3.18293 -18.6047 L -3.1432 -18.6114 L -3.10346 -18.6181 L -3.0637 -18.6247 L -3.02393 -18.6312 L -2.98415 -18.6376 L -2.94435 -18.6439 L -2.90454 -18.6502 L -2.86472 -18.6563 L -2.82488 -18.6624 L -2.78503 -18.6684 L -2.74517 -18.6743 L -2.7053 -18.6801 L -2.66541 -18.6859 L -2.62551 -18.6915 L -2.5856 -18.6971 L -2.54568 -18.7025 L -2.50574 -18.7079 L -2.4658 -18.7132 L -2.42584 -18.7185 L -2.38587 -18.7236 L -2.34589 -18.7287 L -2.3059 -18.7336 L -2.2659 -18.7385 L -2.22589 -18.7433 L -2.18587 -18.748 L -2.14584 -18.7526 L -2.1058 -18.7572 L -2.06575 -18.7616 L -2.02569 -18.766 L -1.98563 -18.7703 L -1.94555 -18.7745 L -1.93088 -18.7355 L -1.90948 -18.6972 L -1.88809 -18.6588 L -1.86669 -18.6205 L -1.84529 -18.5821 L -1.82389 -18.5437 L -1.80249 -18.5053 L -1.78108 -18.4669 L -1.75968 -18.4285 L -1.73827 -18.3901 L -1.71686 -18.3516 L -1.69545 -18.3131 L -1.67404 -18.2746 L -1.65263 -18.2361 L -1.63121 -18.1976 L -1.6098 -18.159 L -1.58838 -18.1205 L -1.56696 -18.0819 L -1.54554 -18.0433 L -1.52411 -18.0047 L -1.50269 -17.966 L -1.48126 -17.9274 L -1.45984 -17.8887 L -1.43841 -17.85 L -1.41698 -17.8113 L -1.39555 -17.7726 L -1.37411 -17.7338 L -1.35268 -17.6951 L -1.33124 -17.6563 L -1.30981 -17.6175 L -1.28837 -17.5787 L -1.26693 -17.5398 L -1.24548 -17.5009 L -1.22404 -17.4621 L -1.2026 -17.4232 L -1.18115 -17.3842 L -1.1597 -17.3453 L -1.13825 -17.3063 L -1.1168 -17.2674 L -1.09535 -17.2283 L -1.0739 -17.1893 L -1.05245 -17.1503 L -1.03099 -17.1112 L -1.00953 -17.0721 L -0.988076 -17.033 L -0.966617 -16.9939 L -0.945157 -16.9547 L -0.923695 -16.9156 L -0.902232 -16.8764 L -0.880768 -16.8371 L -0.859303 -16.7979 L -0.837837 -16.7586 L -0.81637 -16.7194 L -0.794901 -16.68 L -0.773432 -16.6407 L -0.751961 -16.6014 L -0.730489 -16.562 L -0.709017 -16.5226 L -0.687543 -16.4832 L -0.666068 -16.4437 L -0.644592 -16.4042 L -0.623116 -16.3647 L -0.601638 -16.3252 L -0.58016 -16.2857 L -0.55868 -16.2461 L -0.5372 -16.2065 L -0.515719 -16.1669 L -0.494237 -16.1273 L -0.472755 -16.0876 L -0.451271 -16.0479 L -0.429787 -16.0082 L -0.408302 -15.9684 L -0.386817 -15.9286 L -0.365331 -15.8888 L -0.343844 -15.849 L -0.322357 -15.8092 L -0.300869 -15.7693 L -0.279381 -15.7294 L -0.257892 -15.6894 L -0.236402 -15.6495 L -0.214913 -15.6095 L -0.193422 -15.5695 L -0.171932 -15.5294 L -0.150441 -15.4893 L -0.12895 -15.4492 L -0.107459 -15.4091 L -0.0859673 -15.3689 L -0.0644756 -15.3288 L -0.0429838 -15.2885 L -0.0214919 -15.2483 L -4.44089e-16 -15.208 L -5.14324e-15 -15.208 L 0.0214919 -15.2483 L 0.0429838 -15.2885 L 0.0644756 -15.3288 L 0.0859673 -15.3689 L 0.107459 -15.4091 L 0.12895 -15.4492 L 0.150441 -15.4893 L 0.171932 -15.5294 L 0.193422 -15.5695 L 0.214913 -15.6095 L 0.236402 -15.6495 L 0.257892 -15.6894 L 0.279381 -15.7294 L 0.300869 -15.7693 L 0.322357 -15.8092 L 0.343844 -15.849 L 0.365331 -15.8888 L 0.386817 -15.9286 L 0.408302 -15.9684 L 0.429787 -16.0082 L 0.451271 -16.0479 L 0.472755 -16.0876 L 0.494237 -16.1273 L 0.515719 -16.1669 L 0.5372 -16.2065 L 0.55868 -16.2461 L 0.58016 -16.2857 L 0.601638 -16.3252 L 0.623116 -16.3647 L 0.644592 -16.4042 L 0.666068 -16.4437 L 0.687543 -16.4832 L 0.709017 -16.5226 L 0.730489 -16.562 L 0.751961 -16.6014 L 0.773432 -16.6407 L 0.794901 -16.68 L 0.81637 -16.7194 L 0.837837 -16.7586 L 0.859303 -16.7979 L 0.880768 -16.8371 L 0.902232 -16.8764 L 0.923695 -16.9156 L 0.945157 -16.9547 L 0.966617 -16.9939 L 0.988076 -17.033 L 1.00953 -17.0721 L 1.03099 -17.1112 L 1.05245 -17.1503 L 1.0739 -17.1893 L 1.09535 -17.2283 L 1.1168 -17.2674 L 1.13825 -17.3063 L 1.1597 -17.3453 L 1.18115 -17.3842 L 1.2026 -17.4232 L 1.22404 -17.4621 L 1.24548 -17.5009 L 1.26693 -17.5398 L 1.28837 -17.5787 L 1.30981 -17.6175 L 1.33124 -17.6563 L 1.35268 -17.6951 L 1.37411 -17.7338 L 1.39555 -17.7726 L 1.41698 -17.8113 L 1.43841 -17.85 L 1.45984 -17.8887 L 1.48126 -17.9274 L 1.50269 -17.966 L 1.52411 -18.0047 L 1.54554 -18.0433 L 1.56696 -18.0819 L 1.58838 -18.1205 L 1.6098 -18.159 L 1.63121 -18.1976 L 1.65263 -18.2361 L 1.67404 -18.2746 L 1.69545 -18.3131 L 1.71686 -18.3516 L 1.73827 -18.3901 L 1.75968 -18.4285 L 1.78108 -18.4669 L 1.80249 -18.5053 L 1.82389 -18.5437 L 1.84529 -18.5821 L 1.86669 -18.6205 L 1.88809 -18.6588 L 1.90948 -18.6972 L 1.93088 -18.7355 L 1.94555 -18.7745 L 1.98563 -18.7703 L 2.02569 -18.766 L 2.06575 -18.7616 L 2.1058 -18.7572 L 2.14584 -18.7526 L 2.18587 -18.748 L 2.22589 -18.7433 L 2.2659 -18.7385 L 2.3059 -18.7336 L 2.34589 -18.7287 L 2.38587 -18.7236 L 2.42584 -18.7185 L 2.4658 -18.7132 L 2.50574 -18.7079 L 2.54568 -18.7025 L 2.5856 -18.6971 L 2.62551 -18.6915 L 2.66541 -18.6859 L 2.7053 -18.6801 L 2.74517 -18.6743 L 2.78503 -18.6684 L 2.82488 -18.6624 L 2.86472 -18.6563 L 2.90454 -18.6502 L 2.94435 -18.6439 L 2.98415 -18.6376 L 3.02393 -18.6312 L 3.0637 -18.6247 L 3.10346 -18.6181 L 3.1432 -18.6114 L 3.18293 -18.6047 L 3.22264 -18.5979 L 3.33255 -18.5785 L 3.37221 -18.5713 L 3.41185 -18.5641 L 3.45147 -18.5567 L 3.49108 -18.5493 L 3.53068 -18.5418 L 3.57025 -18.5343 L 3.60982 -18.5266 L 3.64936 -18.5188 L 3.68889 -18.511 L 3.7284 -18.5031 L 3.76789 -18.4951 L 3.80737 -18.487 L 3.84683 -18.4788 L 3.88627 -18.4706 L 3.9257 -18.4622 L 3.9651 -18.4538 L 4.00449 -18.4453 L 4.04386 -18.4367 L 4.08321 -18.428 L 4.12255 -18.4193 L 4.16186 -18.4104 L 4.20116 -18.4015 L 4.24043 -18.3925 L 4.27969 -18.3834 L 4.31893 -18.3742 L 4.35814 -18.365 L 4.39734 -18.3556 L 4.43652 -18.3462 L 4.47568 -18.3367 L 4.51482 -18.3271 L 4.55393 -18.3174 L 4.59303 -18.3076 L 4.59348 -18.266 L 4.60048 -18.2227 L 4.60747 -18.1793 L 4.61447 -18.136 L 4.62145 -18.0926 L 4.62844 -18.0492 L 4.63542 -18.0058 L 4.64239 -17.9624 L 4.64936 -17.919 L 4.65633 -17.8755 L 4.66329 -17.8321 L 4.67025 -17.7886 L 4.67721 -17.7451 L 4.68416 -17.7016 L 4.6911 -17.658 L 4.69804 -17.6145 L 4.70498 -17.5709 L 4.71191 -17.5274 L 4.71884 -17.4838 L 4.72576 -17.4401 L 4.73268 -17.3965 L 4.73959 -17.3529 L 4.7465 -17.3092 L 4.7534 -17.2655 L 4.7603 -17.2218 L 4.76719 -17.1781 L 4.77408 -17.1343 L 4.78097 -17.0906 L 4.78784 -17.0468 L 4.79472 -17.003 L 4.80158 -16.9592 L 4.80845 -16.9153 L 4.8153 -16.8715 L 4.82216 -16.8276 L 4.829 -16.7837 L 4.83584 -16.7398 L 4.84268 -16.6959 L 4.84951 -16.6519 L 4.85633 -16.608 L 4.86315 -16.564 L 4.86996 -16.52 L 4.87676 -16.4759 L 4.88356 -16.4319 L 4.89036 -16.3878 L 4.89715 -16.3437 L 4.90393 -16.2996 L 4.9107 -16.2555 L 4.91747 -16.2113 L 4.92423 -16.1672 L 4.93099 -16.123 L 4.93774 -16.0788 L 4.94448 -16.0345 L 4.95122 -15.9903 L 4.95795 -15.946 L 4.96467 -15.9017 L 4.97139 -15.8574 L 4.9781 -15.813 L 4.9848 -15.7686 L 4.99149 -15.7243 L 4.99818 -15.6798 L 5.00486 -15.6354 L 5.01154 -15.5909 L 5.0182 -15.5465 L 5.02486 -15.502 L 5.03151 -15.4574 L 5.03815 -15.4129 L 5.04479 -15.3683 L 5.05141 -15.3237 L 5.05803 -15.2791 L 5.06464 -15.2344 L 5.07125 -15.1898 L 5.07784 -15.1451 L 5.08443 -15.1003 L 5.09101 -15.0556 L 5.09758 -15.0108 L 5.10414 -14.966 L 5.11069 -14.9212 L 5.11723 -14.8763 L 5.12377 -14.8315 L 5.13029 -14.7866 L 5.13681 -14.7416 L 5.14331 -14.6967 L 5.14981 -14.6517 L 5.1563 -14.6067 L 5.16278 -14.5616 L 5.16925 -14.5166 L 5.17571 -14.4715 L 5.18216 -14.4264 L 5.18859 -14.3812 L 5.19502 -14.336 L 5.20144 -14.2908 L 5.20144 -14.2908 L 5.23542 -14.3213 L 5.26938 -14.3518 L 5.30333 -14.3823 L 5.33727 -14.4127 L 5.3712 -14.4431 L 5.40513 -14.4734 L 5.43904 -14.5038 L 5.47294 -14.5341 L 5.50683 -14.5644 L 5.54071 -14.5946 L 5.57458 -14.6248 L 5.60844 -14.655 L 5.6423 -14.6852 L 5.67614 -14.7154 L 5.70997 -14.7455 L 5.74379 -14.7756 L 5.7776 -14.8057 L 5.81141 -14.8357 L 5.8452 -14.8658 L 5.87898 -14.8958 L 5.91276 -14.9257 L 5.94652 -14.9557 L 5.98028 -14.9856 L 6.01402 -15.0155 L 6.04776 -15.0454 L 6.08149 -15.0753 L 6.1152 -15.1051 L 6.14891 -15.1349 L 6.18261 -15.1647 L 6.2163 -15.1945 L 6.24998 -15.2242 L 6.28365 -15.254 L 6.31731 -15.2837 L 6.35097 -15.3133 L 6.38461 -15.343 L 6.41825 -15.3726 L 6.45188 -15.4022 L 6.48549 -15.4318 L 6.5191 -15.4614 L 6.5527 -15.491 L 6.58629 -15.5205 L 6.61988 -15.55 L 6.65345 -15.5795 L 6.68702 -15.609 L 6.72057 -15.6384 L 6.75412 -15.6679 L 6.78766 -15.6973 L 6.82119 -15.7267 L 6.85472 -15.756 L 6.88823 -15.7854 L 6.92174 -15.8147 L 6.95523 -15.844 L 6.98872 -15.8733 L 7.02221 -15.9026 L 7.05568 -15.9319 L 7.08914 -15.9611 L 7.1226 -15.9903 L 7.15605 -16.0195 L 7.18949 -16.0487 L 7.22292 -16.0779 L 7.25635 -16.107 L 7.28976 -16.1362 L 7.32317 -16.1653 L 7.35657 -16.1944 L 7.38997 -16.2235 L 7.42335 -16.2525 L 7.45673 -16.2816 L 7.4901 -16.3106 L 7.52346 -16.3396 L 7.55681 -16.3686 L 7.59016 -16.3976 L 7.6235 -16.4265 L 7.65683 -16.4555 L 7.69015 -16.4844 L 7.72347 -16.5133 L 7.75678 -16.5422 L 7.79008 -16.5711 L 7.82337 -16.6 L 7.85666 -16.6288 L 7.88994 -16.6577 L 7.92321 -16.6865 L 7.95648 -16.7153 L 7.98974 -16.7441 L 8.02299 -16.7728 L 8.05623 -16.8016 L 8.08946 -16.8304 L 8.12269 -16.8591 L 8.15592 -16.8878 L 8.18913 -16.9165 L 8.22234 -16.9452 L 8.24946 -16.9768 L 8.28569 -16.9592 L 8.32187 -16.9414 L 8.35802 -16.9236 L 8.39414 -16.9057 L 8.43021 -16.8878 L 8.46624 -16.8697 L 8.50224 -16.8516 L 8.5382 -16.8334 L 8.57412 -16.8152 L 8.61 -16.7968 L 8.64584 -16.7784 L 8.68164 -16.7599 L 8.7174 -16.7413 L 8.75312 -16.7227 L 8.7888 -16.704 L 8.82444 -16.6852 L 8.86004 -16.6663 L 8.89561 -16.6473 L 8.93113 -16.6283 L 8.96661 -16.6092 L 9.00205 -16.59 L 9.03744 -16.5708 L 9.0728 -16.5514 L 9.10812 -16.532 L 9.14339 -16.5125 L 9.17862 -16.493 L 9.21381 -16.4734 L 9.24896 -16.4536 L 9.28407 -16.4339 L 9.31913 -16.414 L 9.35415 -16.3941 L 9.38913 -16.3741 L 9.48579 -16.3183 L 9.5206 -16.298 L 9.55538 -16.2776 L 9.59011 -16.2572 L 9.62479 -16.2367 L 9.65943 -16.2161 L 9.69403 -16.1954 L 9.72859 -16.1747 L 9.7631 -16.1539 L 9.79756 -16.133 L 9.83198 -16.112 L 9.86636 -16.091 L 9.90069 -16.0699 L 9.93497 -16.0487 L 9.96921 -16.0275 L 10.0034 -16.0062 L 10.0376 -15.9848 L 10.0717 -15.9633 L 10.1057 -15.9418 L 10.1397 -15.9202 L 10.1737 -15.8985 L 10.2076 -15.8767 L 10.2415 -15.8549 L 10.2753 -15.833 L 10.3091 -15.811 L 10.3428 -15.789 L 10.3765 -15.7669 L 10.4101 -15.7447 L 10.4437 -15.7224 L 10.4773 -15.7001 L 10.5108 -15.6777 L 10.5442 -15.6552 L 10.5776 -15.6326 L 10.5638 -15.5933 L 10.5556 -15.5502 L 10.5473 -15.5071 L 10.539 -15.464 L 10.5308 -15.4209 L 10.5225 -15.3777 L 10.5142 -15.3345 L 10.5059 -15.2914 L 10.4976 -15.2482 L 10.4893 -15.2049 L 10.481 -15.1617 L 10.4727 -15.1185 L 10.4643 -15.0752 L 10.456 -15.032 L 10.4476 -14.9887 L 10.4392 -14.9454 L 10.4308 -14.9021 L 10.4225 -14.8588 L 10.4141 -14.8154 L 10.4056 -14.7721 L 10.3972 -14.7287 L 10.3888 -14.6853 L 10.3803 -14.6419 L 10.3719 -14.5985 L 10.3634 -14.5551 L 10.3549 -14.5116 L 10.3465 -14.4682 L 10.338 -14.4247 L 10.3294 -14.3812 L 10.3209 -14.3377 L 10.3124 -14.2942 L 10.3039 -14.2506 L 10.2953 -14.2071 L 10.2867 -14.1635 L 10.2782 -14.1199 L 10.2696 -14.0763 L 10.261 -14.0327 L 10.2523 -13.9891 L 10.2437 -13.9454 L 10.2351 -13.9018 L 10.2264 -13.8581 L 10.2178 -13.8144 L 10.2091 -13.7707 L 10.2004 -13.7269 L 10.1917 -13.6832 L 10.183 -13.6394 L 10.1743 -13.5956 L 10.1655 -13.5518 L 10.1568 -13.508 L 10.148 -13.4641 L 10.1392 -13.4203 L 10.1304 -13.3764 L 10.1216 -13.3325 L 10.1128 -13.2886 L 10.104 -13.2447 L 10.0951 -13.2007 L 10.0863 -13.1568 L 10.0774 -13.1128 L 10.0685 -13.0688 L 10.0596 -13.0248 L 10.0507 -12.9807 L 10.0417 -12.9367 L 10.0328 -12.8926 L 10.0238 -12.8485 L 10.0148 -12.8044 L 10.0058 -12.7602 L 9.99682 -12.7161 L 9.98779 -12.6719 L 9.97875 -12.6277 L 9.96969 -12.5835 L 9.96061 -12.5392 L 9.95152 -12.495 L 9.94242 -12.4507 L 9.93329 -12.4064 L 9.92415 -12.3621 L 9.915 -12.3177 L 9.90582 -12.2734 L 9.89663 -12.229 L 9.88742 -12.1846 L 9.8782 -12.1402 L 9.86895 -12.0957 L 9.85969 -12.0512 L 9.85041 -12.0067 L 9.84112 -11.9622 L 9.8318 -11.9177 L 9.82247 -11.8731 L 9.81311 -11.8286 L 9.80374 -11.784 L 9.79435 -11.7393 L 9.78494 -11.6947 L 9.77551 -11.65 L 9.77551 -11.65 L 9.81787 -11.667 L 9.86021 -11.6841 L 9.90252 -11.7011 L 9.94482 -11.718 L 9.9871 -11.735 L 10.0294 -11.7519 L 10.0716 -11.7688 L 10.1138 -11.7857 L 10.156 -11.8026 L 10.1982 -11.8194 L 10.2404 -11.8362 L 10.2825 -11.853 L 10.3247 -11.8698 L 10.3668 -11.8866 L 10.4089 -11.9033 L 10.451 -11.92 L 10.493 -11.9367 L 10.5351 -11.9534 L 10.5771 -11.9701 L 10.6191 -11.9867 L 10.6611 -12.0033 L 10.703 -12.0199 L 10.745 -12.0365 L 10.7869 -12.0531 L 10.8289 -12.0696 L 10.8708 -12.0861 L 10.9127 -12.1026 L 10.9545 -12.1191 L 10.9964 -12.1356 L 11.0382 -12.152 L 11.0801 -12.1685 L 11.1219 -12.1849 L 11.1637 -12.2013 L 11.2054 -12.2177 L 11.2472 -12.234 L 11.2889 -12.2504 L 11.3307 -12.2667 L 11.3724 -12.283 L 11.4141 -12.2993 L 11.4557 -12.3156 L 11.4974 -12.3319 L 11.5391 -12.3481 L 11.5807 -12.3643 L 11.6223 -12.3805 L 11.6639 -12.3967 L 11.7055 -12.4129 L 11.7471 -12.4291 L 11.7887 -12.4452 L 11.8302 -12.4614 L 11.8717 -12.4775 L 11.9133 -12.4936 L 11.9548 -12.5097 L 11.9963 -12.5258 L 12.0377 -12.5418 L 12.0792 -12.5579 L 12.1206 -12.5739 L 12.1621 -12.5899 L 12.2035 -12.6059 L 12.2449 -12.6219 L 12.2863 -12.6379 L 12.3277 -12.6538 L 12.369 -12.6698 L 12.4104 -12.6857 L 12.4517 -12.7016 L 12.493 -12.7175 L 12.5344 -12.7334 L 12.5757 -12.7493 L 12.6169 -12.7652 L 12.6582 -12.781 L 12.6995 -12.7969 L 12.7407 -12.8127 L 12.782 -12.8285 L 12.8232 -12.8443 L 12.8644 -12.8601 L 12.9056 -12.8759 L 12.9468 -12.8916 L 12.9879 -12.9074 L 13.0291 -12.9231 L 13.0702 -12.9389 L 13.1114 -12.9546 L 13.1525 -12.9703 L 13.1936 -12.986 L 13.2347 -13.0016 L 13.2758 -13.0173 L 13.3169 -13.033 L 13.3579 -13.0486 L 13.399 -13.0642 L 13.44 -13.0799 L 13.481 -13.0955 L 13.5221 -13.1111 L 13.5584 -13.1315 L 13.5864 -13.1025 L 13.6143 -13.0735 L 13.6422 -13.0444 L 13.67 -13.0152 L 13.6978 -12.986 L 13.7255 -12.9568 L 13.7531 -12.9274 L 13.7807 -12.898 L 13.8082 -12.8686 L 13.8356 -12.8391 L 13.863 -12.8095 L 13.8903 -12.7799 L 13.9176 -12.7502 L 13.9447 -12.7204 L 13.9719 -12.6906 L 13.9989 -12.6608 L 14.0259 -12.6309 L 14.0529 -12.6009 L 14.0797 -12.5709 L 14.1065 -12.5408 L 14.1333 -12.5106 L 14.16 -12.4804 L 14.1866 -12.4502 L 14.2131 -12.4199 L 14.2396 -12.3895 L 14.266 -12.3591 L 14.2924 -12.3286 L 14.3187 -12.298 L 14.3449 -12.2674 L 14.371 -12.2368 L 14.3971 -12.2061 L 14.4232 -12.1753 L 14.4949 -12.0898 L 14.5207 -12.0588 L 14.5464 -12.0278 L 14.572 -11.9967 L 14.5976 -11.9656 L 14.6231 -11.9344 L 14.6486 -11.9032 L 14.6739 -11.8719 L 14.6993 -11.8405 L 14.7245 -11.8091 L 14.7497 -11.7776 L 14.7748 -11.7461 L 14.7998 -11.7145 L 14.8248 -11.6829 L 14.8497 -11.6512 L 14.8746 -11.6195 L 14.8993 -11.5877 L 14.924 -11.5559 L 14.9487 -11.524 L 14.9732 -11.4921 L 14.9977 -11.4601 L 15.0222 -11.428 L 15.0465 -11.3959 L 15.0708 -11.3638 L 15.0951 -11.3316 L 15.1192 -11.2993 L 15.1433 -11.267 L 15.1673 -11.2347 L 15.1913 -11.2023 L 15.2152 -11.1698 L 15.239 -11.1373 L 15.2627 -11.1047 L 15.2864 -11.0721 L 15.26 -11.0399 L 15.2375 -11.0022 L 15.215 -10.9645 L 15.1925 -10.9268 L 15.1699 -10.8891 L 15.1474 -10.8514 L 15.1249 -10.8137 L 15.1023 -10.7759 L 15.0797 -10.7382 L 15.0571 -10.7004 L 15.0345 -10.6626 L 15.0119 -10.6249 L 14.9893 -10.5871 L 14.9666 -10.5493 L 14.944 -10.5115 L 14.9213 -10.4736 L 14.8986 -10.4358 L 14.8759 -10.398 L 14.8532 -10.3601 L 14.8304 -10.3223 L 14.8077 -10.2844 L 14.7849 -10.2465 L 14.7622 -10.2086 L 14.7394 -10.1707 L 14.7166 -10.1328 L 14.6937 -10.0949 L 14.6709 -10.0569 L 14.648 -10.019 L 14.6252 -9.98103 L 14.6023 -9.94306 L 14.5794 -9.90508 L 14.5565 -9.86709 L 14.5335 -9.82909 L 14.5106 -9.79108 L 14.4876 -9.75306 L 14.4646 -9.71503 L 14.4416 -9.67698 L 14.4186 -9.63892 L 14.3956 -9.60086 L 14.3725 -9.56278 L 14.3494 -9.52469 L 14.3264 -9.48658 L 14.3032 -9.44847 L 14.2801 -9.41034 L 14.257 -9.37221 L 14.2338 -9.33406 L 14.2106 -9.2959 L 14.1875 -9.25772 L 14.1642 -9.21954 L 14.141 -9.18134 L 14.1178 -9.14313 L 14.0945 -9.10491 L 14.0712 -9.06667 L 14.0479 -9.02843 L 14.0246 -8.99017 L 14.0012 -8.9519 L 13.9779 -8.91362 L 13.9545 -8.87532 L 13.9311 -8.83701 L 13.9076 -8.79869 L 13.8842 -8.76035 L 13.8607 -8.72201 L 13.8372 -8.68365 L 13.8137 -8.64527 L 13.7902 -8.60689 L 13.7667 -8.56849 L 13.7431 -8.53007 L 13.7195 -8.49165 L 13.6959 -8.45321 L 13.6722 -8.41476 L 13.6486 -8.37629 L 13.6249 -8.33781 L 13.6012 -8.29932 L 13.5775 -8.26081 L 13.5537 -8.22229 L 13.53 -8.18375 L 13.5062 -8.1452 L 13.4823 -8.10664 L 13.4585 -8.06806 L 13.4346 -8.02947 L 13.4108 -7.99086 L 13.3868 -7.95224 L 13.3629 -7.91361 L 13.3389 -7.87496 L 13.315 -7.8363 L 13.291 -7.79762 L 13.2669 -7.75892 L 13.2429 -7.72021 L 13.2188 -7.68149 L 13.1947 -7.64275 L 13.1705 -7.604 L 13.1705 -7.604 L 13.2161 -7.60553 L 13.2617 -7.60704 L 13.3073 -7.60854 L 13.3529 -7.61002 L 13.3984 -7.61149 L 13.4439 -7.61295 L 13.4894 -7.61439 L 13.5348 -7.61581 L 13.5803 -7.61723 L 13.6257 -7.61862 L 13.671 -7.62001 L 13.7164 -7.62138 L 13.7617 -7.62274 L 13.807 -7.62408 L 13.8523 -7.62541 L 13.8976 -7.62673 L 13.9428 -7.62804 L 13.988 -7.62933 L 14.0332 -7.63061 L 14.0784 -7.63188 L 14.1235 -7.63313 L 14.1686 -7.63437 L 14.2137 -7.6356 L 14.2588 -7.63682 L 14.3039 -7.63803 L 14.3489 -7.63922 L 14.3939 -7.64041 L 14.4389 -7.64158 L 14.4838 -7.64274 L 14.5288 -7.64389 L 14.5737 -7.64502 L 14.6186 -7.64615 L 14.6635 -7.64727 L 14.7083 -7.64837 L 14.7532 -7.64946 L 14.798 -7.65055 L 14.8428 -7.65162 L 14.8876 -7.65268 L 14.9323 -7.65373 L 14.9771 -7.65477 L 15.0218 -7.6558 L 15.0665 -7.65682 L 15.1111 -7.65784 L 15.1558 -7.65884 L 15.2004 -7.65983 L 15.2451 -7.66081 L 15.2897 -7.66178 L 15.3342 -7.66274 L 15.3788 -7.66369 L 15.4233 -7.66464 L 15.4679 -7.66557 L 15.5124 -7.66649 L 15.5569 -7.66741 L 15.6013 -7.66832 L 15.6458 -7.66921 L 15.6902 -7.6701 L 15.7346 -7.67098 L 15.779 -7.67185 L 15.8234 -7.67271 L 15.8677 -7.67357 L 15.9121 -7.67441 L 15.9564 -7.67525 L 16.0007 -7.67608 L 16.045 -7.6769 L 16.0893 -7.67771 L 16.1335 -7.67851 L 16.1778 -7.67931 L 16.222 -7.6801 L 16.2662 -7.68088 L 16.3104 -7.68165 L 16.3546 -7.68241 L 16.3987 -7.68317 L 16.4429 -7.68392 L 16.487 -7.68466 L 16.5311 -7.68539 L 16.5752 -7.68612 L 16.6193 -7.68684 L 16.6633 -7.68755 L 16.7074 -7.68826 L 16.7514 -7.68895 L 16.7954 -7.68964 L 16.8394 -7.69033 L 16.8834 -7.691 L 16.9273 -7.69167 L 16.9713 -7.69234 L 17.0152 -7.69299 L 17.0592 -7.69364 L 17.1031 -7.69428 L 17.147 -7.69492 L 17.1908 -7.69555 L 17.2319 -7.70234 L 17.2483 -7.66553 L 17.2647 -7.62869 L 17.2809 -7.59181 L 17.2971 -7.5549 L 17.3132 -7.51796 L 17.3292 -7.48098 L 17.3451 -7.44397 L 17.361 -7.40692 L 17.3767 -7.36984 L 17.3924 -7.33272 L 17.4081 -7.29557 L 17.4236 -7.25839 L 17.439 -7.22118 L 17.4544 -7.18393 L 17.4697 -7.14665 L 17.4849 -7.10934 L 17.5001 -7.07199 L 17.5151 -7.03461 L 17.5301 -6.99721 L 17.545 -6.95976 L 17.5598 -6.92229 L 17.5746 -6.88479 L 17.5892 -6.84725 L 17.6038 -6.80968 L 17.6183 -6.77208 L 17.6327 -6.73446 L 17.6471 -6.6968 L 17.6613 -6.6591 L 17.6755 -6.62138 L 17.6896 -6.58363 L 17.7036 -6.54585 L 17.7175 -6.50804 L 17.7557 -6.40316 L 17.7693 -6.36524 L 17.7829 -6.32729 L 17.7964 -6.28931 L 17.8097 -6.2513 L 17.823 -6.21327 L 17.8363 -6.1752 L 17.8494 -6.13711 L 17.8625 -6.09899 L 17.8755 -6.06084 L 17.8884 -6.02266 L 17.9012 -5.98446 L 17.9139 -5.94623 L 17.9266 -5.90797 L 17.9391 -5.86968 L 17.9516 -5.83137 L 17.964 -5.79303 L 17.9764 -5.75467 L 17.9886 -5.71628 L 18.0008 -5.67786 L 18.0128 -5.63941 L 18.0248 -5.60095 L 18.0368 -5.56245 L 18.0486 -5.52393 L 18.0603 -5.48539 L 18.072 -5.44682 L 18.0836 -5.40822 L 18.0951 -5.3696 L 18.1065 -5.33096 L 18.1179 -5.29229 L 18.1291 -5.2536 L 18.1403 -5.21488 L 18.1514 -5.17614 L 18.1155 -5.15492 L 18.0815 -5.1272 L 18.0475 -5.09947 L 18.0134 -5.07174 L 17.9794 -5.04401 L 17.9453 -5.01627 L 17.9112 -4.98852 L 17.8771 -4.96077 L 17.843 -4.93302 L 17.8088 -4.90526 L 17.7747 -4.8775 L 17.7405 -4.84974 L 17.7063 -4.82196 L 17.6721 -4.79419 L 17.6379 -4.76641 L 17.6036 -4.73862 L 17.5694 -4.71083 L 17.5351 -4.68304 L 17.5008 -4.65524 L 17.4665 -4.62744 L 17.4322 -4.59963 L 17.3978 -4.57182 L 17.3634 -4.544 L 17.3291 -4.51618 L 17.2947 -4.48835 L 17.2602 -4.46052 L 17.2258 -4.43269 L 17.1913 -4.40484 L 17.1569 -4.377 L 17.1224 -4.34915 L 17.0879 -4.32129 L 17.0533 -4.29343 L 17.0188 -4.26557 L 16.9842 -4.2377 L 16.9496 -4.20983 L 16.915 -4.18195 L 16.8804 -4.15406 L 16.8458 -4.12617 L 16.8111 -4.09828 L 16.7764 -4.07038 L 16.7417 -4.04248 L 16.707 -4.01457 L 16.6722 -3.98666 L 16.6375 -3.95874 L 16.6027 -3.93082 L 16.5679 -3.90289 L 16.533 -3.87496 L 16.4982 -3.84702 L 16.4633 -3.81907 L 16.4284 -3.79113 L 16.3935 -3.76317 L 16.3586 -3.73522 L 16.3236 -3.70725 L 16.2886 -3.67928 L 16.2536 -3.65131 L 16.2186 -3.62333 L 16.1835 -3.59535 L 16.1485 -3.56736 L 16.1134 -3.53937 L 16.0782 -3.51137 L 16.0431 -3.48337 L 16.0079 -3.45536 L 15.9727 -3.42734 L 15.9375 -3.39932 L 15.9023 -3.3713 L 15.867 -3.34327 L 15.8317 -3.31524 L 15.7964 -3.2872 L 15.7611 -3.25915 L 15.7257 -3.2311 L 15.6903 -3.20305 L 15.6549 -3.17499 L 15.6195 -3.14692 L 15.584 -3.11885 L 15.5485 -3.09077 L 15.513 -3.06269 L 15.4775 -3.03461 L 15.4419 -3.00651 L 15.4063 -2.97842 L 15.3707 -2.95031 L 15.335 -2.92221 L 15.2993 -2.89409 L 15.2636 -2.86598 L 15.2279 -2.83785 L 15.1921 -2.80972 L 15.1563 -2.78159 L 15.1205 -2.75345 L 15.0847 -2.72531 L 15.0488 -2.69716 L 15.0129 -2.669 L 14.977 -2.64084 L 14.977 -2.64084 L 15.0204 -2.62667 L 15.0637 -2.6125 L 15.1071 -2.59831 L 15.1504 -2.58413 L 15.1937 -2.56994 L 15.2369 -2.55574 L 15.2802 -2.54154 L 15.3234 -2.52734 L 15.3665 -2.51313 L 15.4097 -2.49891 L 15.4528 -2.48469 L 15.4959 -2.47047 L 15.5389 -2.45624 L 15.582 -2.44201 L 15.625 -2.42777 L 15.6679 -2.41353 L 15.7109 -2.39929 L 15.7538 -2.38504 L 15.7967 -2.37079 L 15.8396 -2.35653 L 15.8824 -2.34227 L 15.9253 -2.32801 L 15.9681 -2.31374 L 16.0108 -2.29947 L 16.0536 -2.28519 L 16.0963 -2.27091 L 16.139 -2.25663 L 16.1817 -2.24235 L 16.2243 -2.22806 L 16.267 -2.21377 L 16.3096 -2.19947 L 16.3521 -2.18517 L 16.3947 -2.17087 L 16.4372 -2.15657 L 16.4797 -2.14226 L 16.5222 -2.12795 L 16.5647 -2.11363 L 16.6071 -2.09932 L 16.6495 -2.085 L 16.6919 -2.07068 L 16.7343 -2.05635 L 16.7766 -2.04202 L 16.819 -2.02769 L 16.8613 -2.01336 L 16.9036 -1.99902 L 16.9458 -1.98469 L 16.9881 -1.97035 L 17.0303 -1.956 L 17.0725 -1.94166 L 17.1147 -1.92731 L 17.1568 -1.91296 L 17.199 -1.89861 L 17.2411 -1.88425 L 17.2832 -1.86989 L 17.3252 -1.85554 L 17.3673 -1.84117 L 17.4093 -1.82681 L 17.4513 -1.81244 L 17.4933 -1.79808 L 17.5353 -1.78371 L 17.5773 -1.76934 L 17.6192 -1.75496 L 17.6611 -1.74059 L 17.703 -1.72621 L 17.7449 -1.71183 L 17.7868 -1.69745 L 17.8286 -1.68307 L 17.8704 -1.66868 L 17.9122 -1.6543 L 17.954 -1.63991 L 17.9958 -1.62552 L 18.0376 -1.61113 L 18.0793 -1.59673 L 18.121 -1.58234 L 18.1627 -1.56794 L 18.2044 -1.55355 L 18.246 -1.53915 L 18.2877 -1.52475 L 18.3293 -1.51035 L 18.3709 -1.49594 L 18.4125 -1.48154 L 18.4541 -1.46713 L 18.4957 -1.45272 L 18.5372 -1.43832 L 18.5787 -1.42391 L 18.6202 -1.40949 L 18.6617 -1.39508 L 18.7032 -1.38067 L 18.7447 -1.36625 L 18.7861 -1.35184 L 18.8271 -1.34416 L 18.8299 -1.30396 L 18.8326 -1.26376 L 18.8353 -1.22355 L 18.8379 -1.18334 L 18.8404 -1.14312 L 18.8428 -1.10289 L 18.8451 -1.06266 L 18.8473 -1.02243 L 18.8494 -0.982186 L 18.8515 -0.941941 L 18.8534 -0.901693 L 18.8553 -0.86144 L 18.8571 -0.821183 L 18.8588 -0.780923 L 18.8605 -0.740659 L 18.862 -0.700392 L 18.8635 -0.660121 L 18.8648 -0.619848 L 18.8661 -0.579571 L 18.8673 -0.539292 L 18.8684 -0.499011 L 18.8694 -0.458727 L 18.8704 -0.418441 L 18.8712 -0.378154 L 18.872 -0.337864 L 18.8727 -0.297573 L 18.8732 -0.257281 L 18.8738 -0.216987 L 18.8742 -0.176693 L 18.8745 -0.136398 L 18.8748 -0.0961016 L 18.8749 -0.0558052Z"
id="path1" />
</g>
</svg>
