<?xml version="1.0" encoding="UTF-8" standalone="no"?>
<svg version="1.1">
<g
style="fill:none;stroke:#000000;stroke-opacity:1;stroke-width:0.1">
<path d="M 19.1249 0.0540678 L 19.1248 0.0934976 L 19.1245 0.132927 L 19.1242 0.172356 L 19.1238 0.211784 L 19.1234 0.251211 L 19.1228 0.290637 L 19.1222 0.330062 L 19.1214 0.369486 L 19.1206 0.408908 L 19.1197 0.448328 L 19.1188 0.487746 L 19.1177 0.527162 L 19.1166 0.566576 L 19.1154 0.605988 L 19.1141 0.645397 L 19.1127 0.684803 L 19.1113 0.724206 L 19.1097 0.763607 L 19.1081 0.803004 L 19.1064 0.842397 L 19.1047 0.881787 L 19.1028 0.921174 L 19.1009 0.960556 L 19.0988 0.999934 L 19.0967 1.03931 L 19.0946 1.07868 L 19.0923 1.11804 L 19.0899 1.1574 L 19.0875 1.19676 L 19.085 1.23611 L 19.0824 1.27545 L 19.0798 1.31479 L 19.0397 1.32177 L 18.9993 1.33514 L 18.9588 1.34851 L 18.9183 1.36187 L 18.8778 1.37523 L 18.8373 1.3886 L 18.7968 1.40196 L 18.7562 1.41532 L 18.7157 1.42868 L 18.6751 1.44203 L 18.6345 1.45539 L 18.5939 1.46875 L 18.5533 1.4821 L 18.5127 1.49545 L 18.472 1.50881 L 18.4314 1.52216 L 18.3907 1.53551 L 18.35 1.54886 L 18.3093 1.5622 L 18.2686 1.57555 L 18.2278 1.58889 L 18.1871 1.60224 L 18.1463 1.61558 L 18.1055 1.62892 L 18.0648 1.64226 L 18.0239 1.6556 L 17.9831 1.66893 L 17.9423 1.68227 L 17.9014 1.6956 L 17.8605 1.70893 L 17.8196 1.72226 L 17.7787 1.73559 L 17.7378 1.74892 L 17.6969 1.76224 L 17.6559 1.77557 L 17.6149 1.78889 L 17.5739 1.80221 L 17.5329 1.81553 L 17.4919 1.82884 L 17.4508 1.84216 L 17.4098 1.85547 L 17.3687 1.86878 L 17.3276 1.88209 L 17.2865 1.8954 L 17.2453 1.90871 L 17.2042 1.92201 L 17.163 1.93531 L 17.1218 1.94861 L 17.0806 1.96191 L 17.0394 1.9752 L 16.9981 1.98849 L 16.9569 2.00179 L 16.9156 2.01507 L 16.8743 2.02836 L 16.833 2.04164 L 16.7916 2.05493 L 16.7503 2.0682 L 16.7089 2.08148 L 16.6675 2.09476 L 16.6261 2.10803 L 16.5846 2.1213 L 16.5432 2.13456 L 16.5017 2.14783 L 16.4602 2.16109 L 16.4187 2.17435 L 16.3772 2.1876 L 16.3356 2.20086 L 16.294 2.21411 L 16.2524 2.22735 L 16.2108 2.2406 L 16.1691 2.25384 L 16.1275 2.26708 L 16.0858 2.28031 L 16.0441 2.29355 L 16.0023 2.30678 L 15.9606 2.32 L 15.9188 2.33322 L 15.877 2.34644 L 15.8352 2.35966 L 15.7933 2.37287 L 15.7515 2.38608 L 15.7096 2.39929 L 15.6677 2.41249 L 15.6257 2.42569 L 15.5838 2.43888 L 15.5418 2.45207 L 15.4998 2.46526 L 15.4577 2.47845 L 15.4157 2.49163 L 15.3736 2.5048 L 15.3315 2.51797 L 15.2893 2.53114 L 15.2472 2.5443 L 15.2472 2.5443 L 15.2828 2.57044 L 15.3183 2.59658 L 15.3539 2.62271 L 15.3894 2.64883 L 15.4249 2.67496 L 15.4604 2.70107 L 15.4959 2.72719 L 15.5313 2.7533 L 15.5667 2.7794 L 15.6021 2.8055 L 15.6374 2.8316 L 15.6728 2.85769 L 15.7081 2.88378 L 15.7434 2.90987 L 15.7786 2.93595 L 15.8139 2.96202 L 15.8491 2.98809 L 15.8843 3.01416 L 15.9195 3.04022 L 15.9546 3.06628 L 15.9898 3.09234 L 16.0249 3.11839 L 16.06 3.14444 L 16.095 3.17048 L 16.1301 3.19652 L 16.1651 3.22255 L 16.2001 3.24858 L 16.2351 3.27461 L 16.2701 3.30063 L 16.305 3.32665 L 16.3399 3.35266 L 16.3748 3.37867 L 16.4097 3.40467 L 16.4446 3.43067 L 16.4794 3.45667 L 16.5143 3.48266 L 16.5491 3.50865 L 16.5838 3.53464 L 16.6186 3.56062 L 16.6534 3.5866 L 16.6881 3.61257 L 16.7228 3.63854 L 16.7575 3.6645 L 16.7922 3.69046 L 16.8268 3.71642 L 16.8615 3.74237 L 16.8961 3.76832 L 16.9307 3.79427 L 16.9653 3.82021 L 16.9998 3.84614 L 17.0344 3.87208 L 17.0689 3.898 L 17.1034 3.92393 L 17.1379 3.94985 L 17.1724 3.97577 L 17.2069 4.00168 L 17.2413 4.02759 L 17.2758 4.0535 L 17.3102 4.0794 L 17.3446 4.1053 L 17.379 4.13119 L 17.4133 4.15708 L 17.4477 4.18296 L 17.482 4.20885 L 17.5163 4.23473 L 17.5506 4.2606 L 17.5849 4.28647 L 17.6192 4.31234 L 17.6535 4.3382 L 17.6877 4.36406 L 17.7219 4.38992 L 17.7561 4.41577 L 17.7903 4.44162 L 17.8245 4.46746 L 17.8587 4.4933 L 17.8928 4.51914 L 17.927 4.54497 L 17.9611 4.5708 L 17.9952 4.59663 L 18.0293 4.62245 L 18.0634 4.64827 L 18.0974 4.67409 L 18.1315 4.6999 L 18.1655 4.7257 L 18.1995 4.75151 L 18.2335 4.77731 L 18.2675 4.80311 L 18.3015 4.8289 L 18.3355 4.85469 L 18.3694 4.88048 L 18.4034 4.90626 L 18.4373 4.93204 L 18.4729 4.95163 L 18.4626 4.98971 L 18.4523 5.02776 L 18.4419 5.06579 L 18.4314 5.1038 L 18.4208 5.14179 L 18.4102 5.17976 L 18.3995 5.21771 L 18.3887 5.25563 L 18.3778 5.29353 L 18.3669 5.33141 L 18.3558 5.36926 L 18.3447 5.4071 L 18.3335 5.44491 L 18.3223 5.48269 L 18.3109 5.52046 L 18.2995 5.5582 L 18.288 5.59591 L 18.2764 5.63361 L 18.2648 5.67127 L 18.2531 5.70892 L 18.2412 5.74654 L 18.2294 5.78413 L 18.2174 5.82171 L 18.2054 5.85925 L 18.1932 5.89677 L 18.181 5.93427 L 18.1688 5.97174 L 18.1564 6.00919 L 18.144 6.04661 L 18.1315 6.084 L 18.1189 6.12137 L 18.1062 6.15871 L 18.0711 6.26099 L 18.0582 6.29823 L 18.0452 6.33545 L 18.0321 6.37264 L 18.0189 6.40981 L 18.0056 6.44694 L 17.9923 6.48405 L 17.9789 6.52113 L 17.9654 6.55818 L 17.9518 6.59521 L 17.9382 6.63221 L 17.9245 6.66918 L 17.9107 6.70612 L 17.8968 6.74303 L 17.8829 6.77991 L 17.8689 6.81677 L 17.8548 6.85359 L 17.8406 6.89039 L 17.8264 6.92716 L 17.8121 6.9639 L 17.7977 7.0006 L 17.7832 7.03728 L 17.7687 7.07393 L 17.754 7.11055 L 17.7393 7.14714 L 17.7246 7.1837 L 17.7097 7.22022 L 17.6948 7.25672 L 17.6798 7.29319 L 17.6647 7.32962 L 17.6496 7.36603 L 17.6343 7.4024 L 17.619 7.43874 L 17.5789 7.43235 L 17.5363 7.43186 L 17.4937 7.43136 L 17.4511 7.43085 L 17.4084 7.43034 L 17.3658 7.42982 L 17.3231 7.4293 L 17.2804 7.42877 L 17.2377 7.42824 L 17.195 7.4277 L 17.1523 7.42715 L 17.1095 7.4266 L 17.0668 7.42605 L 17.024 7.42548 L 16.9813 7.42491 L 16.9385 7.42434 L 16.8957 7.42376 L 16.8528 7.42317 L 16.81 7.42258 L 16.7672 7.42198 L 16.7243 7.42138 L 16.6814 7.42076 L 16.6385 7.42015 L 16.5956 7.41952 L 16.5527 7.41889 L 16.5098 7.41826 L 16.4668 7.41761 L 16.4239 7.41696 L 16.3809 7.41631 L 16.3379 7.41564 L 16.2949 7.41497 L 16.2519 7.41429 L 16.2088 7.41361 L 16.1658 7.41292 L 16.1227 7.41222 L 16.0796 7.41152 L 16.0365 7.4108 L 15.9934 7.41008 L 15.9503 7.40936 L 15.9072 7.40862 L 15.864 7.40788 L 15.8208 7.40713 L 15.7776 7.40638 L 15.7344 7.40561 L 15.6912 7.40484 L 15.6479 7.40406 L 15.6047 7.40327 L 15.5614 7.40248 L 15.5181 7.40167 L 15.4748 7.40086 L 15.4315 7.40004 L 15.3881 7.39922 L 15.3448 7.39838 L 15.3014 7.39753 L 15.258 7.39668 L 15.2146 7.39582 L 15.1712 7.39495 L 15.1277 7.39407 L 15.0842 7.39319 L 15.0408 7.39229 L 14.9973 7.39139 L 14.9537 7.39047 L 14.9102 7.38955 L 14.8666 7.38862 L 14.8231 7.38768 L 14.7795 7.38673 L 14.7359 7.38577 L 14.6922 7.3848 L 14.6486 7.38382 L 14.6049 7.38283 L 14.5612 7.38183 L 14.5175 7.38082 L 14.4738 7.3798 L 14.43 7.37878 L 14.3863 7.37774 L 14.3425 7.37669 L 14.2987 7.37563 L 14.2549 7.37456 L 14.211 7.37348 L 14.1671 7.37239 L 14.1232 7.37129 L 14.0793 7.37018 L 14.0354 7.36905 L 13.9914 7.36792 L 13.9475 7.36677 L 13.9035 7.36562 L 13.8595 7.36445 L 13.8154 7.36327 L 13.7714 7.36208 L 13.7273 7.36088 L 13.6832 7.35966 L 13.6391 7.35843 L 13.5949 7.35719 L 13.5949 7.35719 L 13.6201 7.39348 L 13.6453 7.42975 L 13.6704 7.46601 L 13.6955 7.50225 L 13.7206 7.53849 L 13.7457 7.57471 L 13.7707 7.61092 L 13.7958 7.64712 L 13.8208 7.6833 L 13.8458 7.71948 L 13.8707 7.75564 L 13.8957 7.79179 L 13.9206 7.82793 L 13.9455 7.86406 L 13.9704 7.90018 L 13.9953 7.93629 L 14.0201 7.97238 L 14.0449 8.00847 L 14.0697 8.04454 L 14.0945 8.0806 L 14.1193 8.11665 L 14.1441 8.15269 L 14.1688 8.18872 L 14.1935 8.22474 L 14.2182 8.26075 L 14.2429 8.29674 L 14.2675 8.33273 L 14.2922 8.3687 L 14.3168 8.40467 L 14.3414 8.44062 L 14.366 8.47657 L 14.3905 8.5125 L 14.4151 8.54842 L 14.4396 8.58434 L 14.4641 8.62024 L 14.4886 8.65613 L 14.5131 8.69202 L 14.5376 8.72789 L 14.562 8.76375 L 14.5865 8.7996 L 14.6109 8.83545 L 14.6353 8.87128 L 14.6597 8.9071 L 14.684 8.94291 L 14.7084 8.97872 L 14.7327 9.01451 L 14.757 9.0503 L 14.7813 9.08607 L 14.8056 9.12183 L 14.8299 9.15759 L 14.8542 9.19334 L 14.8784 9.22907 L 14.9026 9.2648 L 14.9269 9.30052 L 14.951 9.33623 L 14.9752 9.37193 L 14.9994 9.40762 L 15.0236 9.4433 L 15.0477 9.47897 L 15.0718 9.51464 L 15.0959 9.55029 L 15.12 9.58594 L 15.1441 9.62157 L 15.1682 9.6572 L 15.1922 9.69282 L 15.2163 9.72843 L 15.2403 9.76403 L 15.2643 9.79963 L 15.2883 9.83521 L 15.3123 9.87079 L 15.3363 9.90636 L 15.3603 9.94192 L 15.3842 9.97747 L 15.4081 10.013 L 15.4321 10.0485 L 15.456 10.0841 L 15.4799 10.1196 L 15.5038 10.1551 L 15.5276 10.1906 L 15.5515 10.2261 L 15.5753 10.2616 L 15.5992 10.2971 L 15.623 10.3325 L 15.6468 10.368 L 15.6706 10.4034 L 15.6944 10.4389 L 15.7182 10.4743 L 15.7419 10.5097 L 15.7657 10.5452 L 15.7894 10.5806 L 15.8132 10.616 L 15.8369 10.6514 L 15.8642 10.6815 L 15.8421 10.7142 L 15.82 10.7468 L 15.7978 10.7794 L 15.7755 10.8119 L 15.7532 10.8444 L 15.7308 10.8769 L 15.7084 10.9093 L 15.6858 10.9417 L 15.6633 10.974 L 15.6406 11.0062 L 15.6179 11.0385 L 15.5951 11.0706 L 15.5722 11.1028 L 15.5493 11.1349 L 15.5263 11.1669 L 15.5032 11.1989 L 15.4801 11.2308 L 15.4569 11.2627 L 15.4337 11.2946 L 15.4104 11.3263 L 15.387 11.3581 L 15.3635 11.3898 L 15.34 11.4214 L 15.3164 11.453 L 15.2928 11.4846 L 15.2691 11.5161 L 15.2453 11.5476 L 15.2215 11.579 L 15.1976 11.6103 L 15.1736 11.6416 L 15.1496 11.6729 L 15.1255 11.7041 L 15.059 11.7894 L 15.0347 11.8205 L 15.0103 11.8514 L 14.9858 11.8824 L 14.9613 11.9132 L 14.9367 11.944 L 14.9121 11.9748 L 14.8873 12.0055 L 14.8626 12.0362 L 14.8377 12.0668 L 14.8128 12.0974 L 14.7878 12.1279 L 14.7628 12.1584 L 14.7377 12.1888 L 14.7125 12.2191 L 14.6873 12.2494 L 14.662 12.2797 L 14.6367 12.3099 L 14.6113 12.34 L 14.5858 12.3701 L 14.5603 12.4002 L 14.5347 12.4302 L 14.509 12.4601 L 14.4833 12.49 L 14.4575 12.5198 L 14.4317 12.5496 L 14.4058 12.5793 L 14.3798 12.609 L 14.3538 12.6386 L 14.3277 12.6682 L 14.3015 12.6977 L 14.2753 12.7272 L 14.249 12.7566 L 14.2132 12.7375 L 14.173 12.7232 L 14.1329 12.7089 L 14.0927 12.6946 L 14.0526 12.6803 L 14.0124 12.6659 L 13.9722 12.6516 L 13.932 12.6372 L 13.8918 12.6228 L 13.8516 12.6085 L 13.8113 12.5941 L 13.7711 12.5797 L 13.7308 12.5653 L 13.6906 12.5508 L 13.6503 12.5364 L 13.61 12.522 L 13.5697 12.5075 L 13.5294 12.4931 L 13.4891 12.4786 L 13.4488 12.4641 L 13.4084 12.4496 L 13.3681 12.4351 L 13.3277 12.4206 L 13.2873 12.4061 L 13.2469 12.3916 L 13.2065 12.377 L 13.1661 12.3625 L 13.1257 12.3479 L 13.0853 12.3333 L 13.0448 12.3188 L 13.0044 12.3042 L 12.9639 12.2895 L 12.9234 12.2749 L 12.8829 12.2603 L 12.8424 12.2456 L 12.8019 12.231 L 12.7614 12.2163 L 12.7208 12.2016 L 12.6803 12.187 L 12.6397 12.1722 L 12.5991 12.1575 L 12.5585 12.1428 L 12.5179 12.1281 L 12.4773 12.1133 L 12.4366 12.0985 L 12.396 12.0838 L 12.3553 12.069 L 12.3147 12.0542 L 12.274 12.0394 L 12.2333 12.0245 L 12.1926 12.0097 L 12.1518 11.9948 L 12.1111 11.98 L 12.0704 11.9651 L 12.0296 11.9502 L 11.9888 11.9353 L 11.948 11.9203 L 11.9072 11.9054 L 11.8664 11.8905 L 11.8255 11.8755 L 11.7847 11.8605 L 11.7438 11.8455 L 11.7029 11.8305 L 11.6621 11.8155 L 11.6211 11.8004 L 11.5802 11.7854 L 11.5393 11.7703 L 11.4983 11.7552 L 11.4574 11.7401 L 11.4164 11.725 L 11.3754 11.7099 L 11.3344 11.6947 L 11.2933 11.6796 L 11.2523 11.6644 L 11.2112 11.6492 L 11.1702 11.634 L 11.1291 11.6188 L 11.088 11.6035 L 11.0468 11.5883 L 11.0057 11.573 L 10.9646 11.5577 L 10.9234 11.5424 L 10.8822 11.5271 L 10.841 11.5117 L 10.7998 11.4964 L 10.7585 11.481 L 10.7173 11.4656 L 10.676 11.4502 L 10.6347 11.4347 L 10.5934 11.4193 L 10.5521 11.4038 L 10.5108 11.3883 L 10.4694 11.3728 L 10.4694 11.3728 L 10.4815 11.4153 L 10.4935 11.4578 L 10.5055 11.5002 L 10.5175 11.5427 L 10.5294 11.5851 L 10.5414 11.6275 L 10.5533 11.6699 L 10.5653 11.7123 L 10.5772 11.7546 L 10.589 11.7969 L 10.6009 11.8392 L 10.6128 11.8815 L 10.6246 11.9238 L 10.6364 11.9661 L 10.6483 12.0083 L 10.6601 12.0505 L 10.6718 12.0927 L 10.6836 12.1349 L 10.6954 12.1771 L 10.7071 12.2193 L 10.7188 12.2614 L 10.7305 12.3035 L 10.7422 12.3456 L 10.7539 12.3877 L 10.7656 12.4298 L 10.7772 12.4719 L 10.7888 12.5139 L 10.8005 12.5559 L 10.8121 12.5979 L 10.8237 12.6399 L 10.8353 12.6819 L 10.8468 12.7239 L 10.8584 12.7658 L 10.8699 12.8078 L 10.8815 12.8497 L 10.893 12.8916 L 10.9045 12.9335 L 10.916 12.9753 L 10.9274 13.0172 L 10.9389 13.059 L 10.9504 13.1009 L 10.9618 13.1427 L 10.9732 13.1845 L 10.9847 13.2263 L 10.9961 13.268 L 11.0075 13.3098 L 11.0188 13.3515 L 11.0302 13.3933 L 11.0416 13.435 L 11.0529 13.4767 L 11.0643 13.5184 L 11.0756 13.56 L 11.0869 13.6017 L 11.0982 13.6433 L 11.1095 13.685 L 11.1208 13.7266 L 11.132 13.7682 L 11.1433 13.8098 L 11.1546 13.8514 L 11.1658 13.8929 L 11.177 13.9345 L 11.1882 13.976 L 11.1994 14.0175 L 11.2106 14.059 L 11.2218 14.1005 L 11.233 14.142 L 11.2442 14.1835 L 11.2553 14.225 L 11.2665 14.2664 L 11.2776 14.3079 L 11.2887 14.3493 L 11.2999 14.3907 L 11.311 14.4321 L 11.3221 14.4735 L 11.3332 14.5149 L 11.3442 14.5562 L 11.3553 14.5976 L 11.3664 14.6389 L 11.3774 14.6803 L 11.3885 14.7216 L 11.3995 14.7629 L 11.4105 14.8042 L 11.4215 14.8455 L 11.4325 14.8867 L 11.4435 14.928 L 11.4545 14.9692 L 11.4655 15.0105 L 11.4765 15.0517 L 11.4875 15.0929 L 11.4984 15.1341 L 11.5094 15.1753 L 11.5203 15.2165 L 11.5363 15.2538 L 11.5049 15.2776 L 11.4733 15.3012 L 11.4418 15.3249 L 11.4102 15.3484 L 11.3785 15.3719 L 11.3468 15.3953 L 11.315 15.4187 L 11.2832 15.442 L 11.2513 15.4652 L 11.2194 15.4884 L 11.1875 15.5115 L 11.1555 15.5345 L 11.1234 15.5575 L 11.0913 15.5804 L 11.0592 15.6032 L 11.027 15.626 L 10.9947 15.6487 L 10.9624 15.6713 L 10.9301 15.6939 L 10.8977 15.7164 L 10.8653 15.7388 L 10.8328 15.7612 L 10.8003 15.7835 L 10.7678 15.8057 L 10.7351 15.8279 L 10.7025 15.85 L 10.6698 15.872 L 10.637 15.894 L 10.6042 15.9159 L 10.5714 15.9377 L 10.5385 15.9595 L 10.5056 15.9812 L 10.4151 16.0403 L 10.382 16.0618 L 10.3488 16.0831 L 10.3157 16.1044 L 10.2824 16.1257 L 10.2492 16.1468 L 10.2159 16.1679 L 10.1825 16.189 L 10.1491 16.2099 L 10.1157 16.2308 L 10.0822 16.2516 L 10.0487 16.2724 L 10.0151 16.2931 L 9.98147 16.3137 L 9.94782 16.3342 L 9.91412 16.3547 L 9.88038 16.3751 L 9.8466 16.3954 L 9.81278 16.4157 L 9.77891 16.4359 L 9.745 16.456 L 9.71106 16.4761 L 9.67707 16.4961 L 9.64304 16.516 L 9.60896 16.5358 L 9.57485 16.5556 L 9.5407 16.5753 L 9.50651 16.5949 L 9.47227 16.6145 L 9.438 16.634 L 9.40368 16.6534 L 9.36933 16.6728 L 9.33493 16.6921 L 9.30721 16.6624 L 9.27389 16.6358 L 9.24056 16.6092 L 9.20723 16.5827 L 9.17389 16.5561 L 9.14055 16.5295 L 9.10719 16.5028 L 9.07383 16.4762 L 9.04047 16.4496 L 9.00709 16.4229 L 8.97371 16.3962 L 8.94033 16.3695 L 8.90693 16.3428 L 8.87353 16.3161 L 8.84012 16.2894 L 8.8067 16.2627 L 8.77328 16.2359 L 8.73985 16.2092 L 8.70641 16.1824 L 8.67297 16.1556 L 8.63952 16.1288 L 8.60606 16.102 L 8.57259 16.0751 L 8.53912 16.0483 L 8.50564 16.0214 L 8.47215 15.9946 L 8.43865 15.9677 L 8.40515 15.9408 L 8.37164 15.9139 L 8.33812 15.8869 L 8.30459 15.86 L 8.27106 15.833 L 8.23752 15.8061 L 8.20397 15.7791 L 8.17041 15.7521 L 8.13685 15.725 L 8.10327 15.698 L 8.06969 15.671 L 8.0361 15.6439 L 8.00251 15.6168 L 7.9689 15.5897 L 7.93529 15.5626 L 7.90167 15.5355 L 7.86804 15.5083 L 7.8344 15.4812 L 7.80076 15.454 L 7.7671 15.4268 L 7.73344 15.3996 L 7.69977 15.3724 L 7.66609 15.3451 L 7.63241 15.3179 L 7.59871 15.2906 L 7.56501 15.2633 L 7.53129 15.236 L 7.49757 15.2087 L 7.46384 15.1813 L 7.43011 15.154 L 7.39636 15.1266 L 7.3626 15.0992 L 7.32884 15.0718 L 7.29507 15.0444 L 7.26128 15.0169 L 7.22749 14.9894 L 7.19369 14.9619 L 7.15988 14.9344 L 7.12607 14.9069 L 7.09224 14.8794 L 7.0584 14.8518 L 7.02456 14.8242 L 6.9907 14.7966 L 6.95684 14.769 L 6.92297 14.7413 L 6.88908 14.7137 L 6.85519 14.686 L 6.82129 14.6583 L 6.78738 14.6306 L 6.75346 14.6028 L 6.71953 14.5751 L 6.68559 14.5473 L 6.65164 14.5195 L 6.61768 14.4917 L 6.58372 14.4638 L 6.54974 14.4359 L 6.51575 14.408 L 6.48175 14.3801 L 6.44774 14.3522 L 6.41373 14.3242 L 6.3797 14.2963 L 6.34566 14.2683 L 6.31161 14.2402 L 6.27755 14.2122 L 6.24349 14.1841 L 6.20941 14.156 L 6.20941 14.156 L 6.207 14.2001 L 6.20458 14.2442 L 6.20214 14.2883 L 6.1997 14.3323 L 6.19725 14.3763 L 6.19479 14.4203 L 6.19232 14.4642 L 6.18984 14.5082 L 6.18735 14.5521 L 6.18485 14.596 L 6.18234 14.6399 L 6.17982 14.6837 L 6.1773 14.7276 L 6.17476 14.7714 L 6.17222 14.8151 L 6.16966 14.8589 L 6.1671 14.9027 L 6.16453 14.9464 L 6.16195 14.9901 L 6.15936 15.0338 L 6.15677 15.0774 L 6.15416 15.1211 L 6.15155 15.1647 L 6.14893 15.2083 L 6.1463 15.2519 L 6.14366 15.2954 L 6.14102 15.339 L 6.13836 15.3825 L 6.1357 15.426 L 6.13303 15.4695 L 6.13036 15.513 L 6.12768 15.5564 L 6.12499 15.5998 L 6.12229 15.6433 L 6.11958 15.6866 L 6.11687 15.73 L 6.11415 15.7734 L 6.11142 15.8167 L 6.10869 15.86 L 6.10595 15.9033 L 6.1032 15.9466 L 6.10045 15.9899 L 6.09769 16.0331 L 6.09492 16.0763 L 6.09214 16.1195 L 6.08936 16.1627 L 6.08657 16.2059 L 6.08378 16.2491 L 6.08098 16.2922 L 6.07817 16.3353 L 6.07536 16.3785 L 6.07254 16.4215 L 6.06972 16.4646 L 6.06689 16.5077 L 6.06405 16.5507 L 6.0612 16.5937 L 6.05836 16.6368 L 6.0555 16.6797 L 6.05264 16.7227 L 6.04977 16.7657 L 6.0469 16.8086 L 6.04402 16.8516 L 6.04114 16.8945 L 6.03825 16.9374 L 6.03536 16.9803 L 6.03246 17.0231 L 6.02955 17.066 L 6.02664 17.1088 L 6.02373 17.1516 L 6.0208 17.1945 L 6.01788 17.2373 L 6.01495 17.28 L 6.01201 17.3228 L 6.00907 17.3655 L 6.00612 17.4083 L 6.00317 17.451 L 6.00021 17.4937 L 5.99725 17.5364 L 5.99429 17.5791 L 5.99132 17.6217 L 5.98834 17.6644 L 5.98536 17.707 L 5.98238 17.7497 L 5.97939 17.7923 L 5.97639 17.8349 L 5.97339 17.8774 L 5.97039 17.92 L 5.96738 17.9626 L 5.96437 18.0051 L 5.96135 18.0476 L 5.95833 18.0902 L 5.95531 18.1327 L 5.95836 18.1732 L 5.92088 18.1854 L 5.88338 18.1976 L 5.84585 18.2097 L 5.80829 18.2217 L 5.77071 18.2336 L 5.73311 18.2455 L 5.69548 18.2572 L 5.65783 18.269 L 5.62015 18.2806 L 5.58245 18.2921 L 5.54472 18.3036 L 5.50697 18.315 L 5.4692 18.3263 L 5.43141 18.3375 L 5.39359 18.3487 L 5.35575 18.3598 L 5.31788 18.3708 L 5.28 18.3817 L 5.24209 18.3926 L 5.20416 18.4033 L 5.1662 18.414 L 5.12823 18.4246 L 5.09023 18.4352 L 5.05221 18.4456 L 5.01417 18.456 L 4.97611 18.4663 L 4.93803 18.4765 L 4.89993 18.4867 L 4.8618 18.4967 L 4.82366 18.5067 L 4.78549 18.5166 L 4.7473 18.5264 L 4.64248 18.553 L 4.60422 18.5625 L 4.56594 18.572 L 4.52764 18.5813 L 4.48932 18.5906 L 4.45098 18.5998 L 4.41262 18.609 L 4.37425 18.618 L 4.33585 18.627 L 4.29744 18.6359 L 4.25901 18.6447 L 4.22056 18.6535 L 4.18209 18.6621 L 4.14361 18.6707 L 4.10511 18.6792 L 4.06659 18.6877 L 4.02805 18.696 L 3.9895 18.7043 L 3.95093 18.7125 L 3.91234 18.7206 L 3.87373 18.7286 L 3.83511 18.7365 L 3.79647 18.7444 L 3.75782 18.7522 L 3.71915 18.7599 L 3.68047 18.7675 L 3.64177 18.7751 L 3.60305 18.7825 L 3.56432 18.7899 L 3.52557 18.7972 L 3.48681 18.8045 L 3.44803 18.8116 L 3.40924 18.8187 L 3.39265 18.7816 L 3.36976 18.7457 L 3.34687 18.7097 L 3.32398 18.6737 L 3.30108 18.6378 L 3.27818 18.6018 L 3.25528 18.5658 L 3.23238 18.5297 L 3.20947 18.4937 L 3.18656 18.4577 L 3.16365 18.4216 L 3.14073 18.3855 L 3.11782 18.3494 L 3.0949 18.3133 L 3.07198 18.2772 L 3.04905 18.241 L 3.02613 18.2049 L 3.0032 18.1687 L 2.98027 18.1325 L 2.95733 18.0963 L 2.9344 18.0601 L 2.91146 18.0239 L 2.88852 17.9877 L 2.86557 17.9514 L 2.84263 17.9151 L 2.81968 17.8788 L 2.79673 17.8425 L 2.77377 17.8062 L 2.75082 17.7699 L 2.72786 17.7335 L 2.7049 17.6971 L 2.68193 17.6608 L 2.65897 17.6244 L 2.636 17.5879 L 2.61303 17.5515 L 2.59006 17.515 L 2.56708 17.4786 L 2.5441 17.4421 L 2.52112 17.4056 L 2.49814 17.3691 L 2.47515 17.3325 L 2.45216 17.296 L 2.42917 17.2594 L 2.40618 17.2228 L 2.38318 17.1862 L 2.36018 17.1496 L 2.33718 17.1129 L 2.31418 17.0763 L 2.29117 17.0396 L 2.26816 17.0029 L 2.24515 16.9662 L 2.22214 16.9294 L 2.19912 16.8927 L 2.1761 16.8559 L 2.15308 16.8191 L 2.13006 16.7823 L 2.10703 16.7454 L 2.08401 16.7086 L 2.06097 16.6717 L 2.03794 16.6348 L 2.01491 16.5979 L 1.99187 16.561 L 1.96883 16.524 L 1.94578 16.4871 L 1.92274 16.4501 L 1.89969 16.413 L 1.87664 16.376 L 1.85359 16.3389 L 1.83053 16.3019 L 1.80747 16.2648 L 1.78441 16.2276 L 1.76135 16.1905 L 1.73829 16.1533 L 1.71522 16.1162 L 1.69215 16.0789 L 1.66908 16.0417 L 1.64601 16.0045 L 1.62293 15.9672 L 1.59985 15.9299 L 1.57677 15.8926 L 1.55369 15.8552 L 1.5306 15.8179 L 1.50751 15.7805 L 1.48442 15.743 L 1.46133 15.7056 L 1.43824 15.6681 L 1.41514 15.6307 L 1.39204 15.5931 L 1.36894 15.5556 L 1.34583 15.518 L 1.32273 15.4805 L 1.29962 15.4428 L 1.27651 15.4052 L 1.27651 15.4052 L 1.25991 15.4461 L 1.24331 15.487 L 1.22671 15.5279 L 1.2101 15.5688 L 1.19349 15.6096 L 1.17688 15.6504 L 1.16027 15.6912 L 1.14366 15.7319 L 1.12704 15.7727 L 1.11043 15.8134 L 1.09381 15.854 L 1.07719 15.8947 L 1.06057 15.9353 L 1.04394 15.9759 L 1.02732 16.0165 L 1.01069 16.0571 L 0.994064 16.0976 L 0.977435 16.1382 L 0.960804 16.1787 L 0.944173 16.2191 L 0.92754 16.2596 L 0.910905 16.3 L 0.89427 16.3404 L 0.877633 16.3808 L 0.860996 16.4212 L 0.844357 16.4615 L 0.827717 16.5019 L 0.811076 16.5422 L 0.794434 16.5825 L 0.777791 16.6227 L 0.761146 16.663 L 0.744502 16.7032 L 0.727856 16.7434 L 0.711209 16.7836 L 0.694561 16.8237 L 0.677913 16.8639 L 0.661264 16.904 L 0.644614 16.9441 L 0.627963 16.9842 L 0.611312 17.0242 L 0.59466 17.0643 L 0.578007 17.1043 L 0.561353 17.1443 L 0.544699 17.1843 L 0.528045 17.2243 L 0.51139 17.2642 L 0.494734 17.3041 L 0.478078 17.3441 L 0.461421 17.384 L 0.444764 17.4238 L 0.428106 17.4637 L 0.411448 17.5035 L 0.394789 17.5434 L 0.378131 17.5832 L 0.361471 17.6229 L 0.344812 17.6627 L 0.328152 17.7025 L 0.311491 17.7422 L 0.294831 17.7819 L 0.27817 17.8216 L 0.261509 17.8613 L 0.244847 17.901 L 0.228186 17.9406 L 0.211524 17.9803 L 0.194862 18.0199 L 0.1782 18.0595 L 0.161537 18.0991 L 0.144875 18.1387 L 0.128212 18.1782 L 0.111549 18.2178 L 0.0948867 18.2573 L 0.0782238 18.2968 L 0.0615608 18.3363 L 0.0448978 18.3758 L 0.0282347 18.4152 L 0.0115716 18.4547 L -0.00509148 18.4941 L -0.0217546 18.5335 L -0.0384176 18.5729 L -0.0550807 18.6123 L -0.0717437 18.6517 L -0.0884066 18.6911 L -0.10507 18.7304 L -0.121732 18.7697 L -0.138395 18.809 L -0.155058 18.8484 L -0.17172 18.8876 L -0.188382 18.9269 L -0.205045 18.9662 L -0.221707 19.0054 L -0.238369 19.0446 L -0.25503 19.0839 L -0.265291 19.1232 L -0.304716 19.1226 L -0.344141 19.1219 L -0.383564 19.1212 L -0.422985 19.1203 L -0.462405 19.1194 L -0.501822 19.1184 L -0.541238 19.1173 L -0.580651 19.1162 L -0.620062 19.1149 L -0.65947 19.1136 L -0.698875 19.1122 L -0.738277 19.1107 L -0.777676 19.1092 L -0.817072 19.1075 L -0.856464 19.1058 L -0.895853 19.104 L -0.935238 19.1021 L -0.974619 19.1002 L -1.014 19.0981 L -1.05337 19.096 L -1.09274 19.0938 L -1.1321 19.0915 L -1.17146 19.0891 L -1.21081 19.0866 L -1.25016 19.0841 L -1.2895 19.0815 L -1.32884 19.0788 L -1.36817 19.076 L -1.4075 19.0731 L -1.44682 19.0702 L -1.48613 19.0672 L -1.52544 19.0641 L -1.63321 19.0551 L -1.67249 19.0517 L -1.71176 19.0482 L -1.75103 19.0447 L -1.79029 19.041 L -1.82955 19.0373 L -1.86879 19.0335 L -1.90803 19.0296 L -1.94726 19.0256 L -1.98648 19.0216 L -2.02569 19.0174 L -2.0649 19.0132 L -2.10409 19.0089 L -2.14328 19.0045 L -2.18246 19.0001 L -2.22162 18.9955 L -2.26078 18.9909 L -2.29993 18.9862 L -2.33907 18.9814 L -2.3782 18.9766 L -2.41732 18.9716 L -2.45643 18.9666 L -2.49552 18.9615 L -2.53461 18.9563 L -2.57369 18.951 L -2.61275 18.9457 L -2.65181 18.9403 L -2.69085 18.9348 L -2.72989 18.9292 L -2.76891 18.9235 L -2.80791 18.9177 L -2.84691 18.9119 L -2.8859 18.906 L -2.88955 18.8656 L -2.89953 18.8241 L -2.90951 18.7827 L -2.91948 18.7412 L -2.92945 18.6998 L -2.93943 18.6583 L -2.94939 18.6168 L -2.95936 18.5753 L -2.96932 18.5338 L -2.97929 18.4922 L -2.98925 18.4507 L -2.9992 18.4091 L -3.00916 18.3675 L -3.01911 18.326 L -3.02906 18.2843 L -3.03901 18.2427 L -3.04896 18.2011 L -3.0589 18.1594 L -3.06884 18.1178 L -3.07878 18.0761 L -3.08871 18.0344 L -3.09864 17.9927 L -3.10857 17.9509 L -3.1185 17.9092 L -3.12843 17.8674 L -3.13835 17.8257 L -3.14827 17.7839 L -3.15818 17.7421 L -3.1681 17.7002 L -3.17801 17.6584 L -3.18791 17.6165 L -3.19782 17.5747 L -3.20772 17.5328 L -3.21762 17.4909 L -3.22752 17.449 L -3.23741 17.407 L -3.2473 17.3651 L -3.25718 17.3231 L -3.26707 17.2811 L -3.27695 17.2391 L -3.28682 17.1971 L -3.2967 17.155 L -3.30657 17.113 L -3.31643 17.0709 L -3.3263 17.0288 L -3.33615 16.9867 L -3.34601 16.9446 L -3.35586 16.9024 L -3.36571 16.8603 L -3.37556 16.8181 L -3.3854 16.7759 L -3.39524 16.7337 L -3.40507 16.6914 L -3.4149 16.6492 L -3.42473 16.6069 L -3.43455 16.5646 L -3.44437 16.5223 L -3.45418 16.4799 L -3.46399 16.4376 L -3.4738 16.3952 L -3.4836 16.3528 L -3.4934 16.3104 L -3.50319 16.268 L -3.51298 16.2255 L -3.52277 16.1831 L -3.53255 16.1406 L -3.54232 16.0981 L -3.55209 16.0555 L -3.56186 16.013 L -3.57162 15.9704 L -3.58138 15.9278 L -3.59113 15.8852 L -3.60088 15.8425 L -3.61062 15.7999 L -3.62036 15.7572 L -3.63009 15.7145 L -3.63982 15.6718 L -3.64954 15.629 L -3.65926 15.5862 L -3.66897 15.5434 L -3.67868 15.5006 L -3.68838 15.4578 L -3.69807 15.4149 L -3.70776 15.372 L -3.71745 15.3291 L -3.72713 15.2862 L -3.7368 15.2432 L -3.74647 15.2003 L -3.75613 15.1572 L -3.76579 15.1142 L -3.77543 15.0712 L -3.78508 15.0281 L -3.79471 14.985 L -3.79471 14.985 L -3.8237 15.0183 L -3.85269 15.0516 L -3.88166 15.0849 L -3.91064 15.1181 L -3.9396 15.1513 L -3.96856 15.1845 L -3.99751 15.2177 L -4.02646 15.2509 L -4.0554 15.284 L -4.08433 15.3171 L -4.11326 15.3502 L -4.14218 15.3832 L -4.17109 15.4163 L -4.2 15.4493 L -4.22891 15.4823 L -4.2578 15.5153 L -4.2867 15.5482 L -4.31558 15.5811 L -4.34446 15.614 L -4.37333 15.6469 L -4.4022 15.6798 L -4.43106 15.7126 L -4.45992 15.7454 L -4.48877 15.7782 L -4.51761 15.811 L -4.54645 15.8438 L -4.57528 15.8765 L -4.6041 15.9092 L -4.63293 15.9419 L -4.66174 15.9746 L -4.69055 16.0073 L -4.71935 16.0399 L -4.74815 16.0725 L -4.77694 16.1051 L -4.80573 16.1377 L -4.83451 16.1703 L -4.86328 16.2028 L -4.89205 16.2353 L -4.92081 16.2678 L -4.94957 16.3003 L -4.97832 16.3328 L -5.00707 16.3652 L -5.03581 16.3977 L -5.06455 16.4301 L -5.09327 16.4625 L -5.122 16.4948 L -5.15072 16.5272 L -5.17943 16.5595 L -5.20814 16.5919 L -5.23684 16.6242 L -5.26554 16.6565 L -5.29423 16.6887 L -5.32292 16.721 L -5.3516 16.7532 L -5.38028 16.7855 L -5.40895 16.8177 L -5.43761 16.8499 L -5.46627 16.882 L -5.49493 16.9142 L -5.52358 16.9463 L -5.55222 16.9785 L -5.58086 17.0106 L -5.6095 17.0427 L -5.63813 17.0747 L -5.66675 17.1068 L -5.69537 17.1389 L -5.72398 17.1709 L -5.75259 17.2029 L -5.78119 17.2349 L -5.80979 17.2669 L -5.83839 17.2989 L -5.86698 17.3308 L -5.89556 17.3628 L -5.92414 17.3947 L -5.95271 17.4266 L -5.98128 17.4585 L -6.00985 17.4904 L -6.03841 17.5223 L -6.06696 17.5541 L -6.09551 17.586 L -6.12405 17.6178 L -6.15259 17.6496 L -6.18113 17.6814 L -6.20966 17.7132 L -6.23818 17.745 L -6.26671 17.7767 L -6.29522 17.8085 L -6.32373 17.8402 L -6.35224 17.872 L -6.38074 17.9037 L -6.40924 17.9354 L -6.43773 17.967 L -6.4602 18.0009 L -6.4973 17.9875 L -6.53437 17.9741 L -6.57141 17.9606 L -6.60843 17.947 L -6.64541 17.9333 L -6.68237 17.9196 L -6.7193 17.9058 L -6.7562 17.8919 L -6.79308 17.8779 L -6.82992 17.8639 L -6.86674 17.8497 L -6.90352 17.8356 L -6.94028 17.8213 L -6.97701 17.8069 L -7.01371 17.7925 L -7.05037 17.778 L -7.08701 17.7634 L -7.12362 17.7488 L -7.1602 17.7341 L -7.19674 17.7193 L -7.23326 17.7044 L -7.26975 17.6894 L -7.3062 17.6744 L -7.34263 17.6593 L -7.37902 17.6441 L -7.41538 17.6289 L -7.45171 17.6136 L -7.48801 17.5982 L -7.52427 17.5827 L -7.56051 17.5671 L -7.59671 17.5515 L -7.63288 17.5358 L -7.73191 17.4924 L -7.76796 17.4764 L -7.80397 17.4603 L -7.83995 17.4442 L -7.8759 17.428 L -7.91181 17.4117 L -7.9477 17.3954 L -7.98354 17.379 L -8.01936 17.3625 L -8.05514 17.3459 L -8.09088 17.3293 L -8.12659 17.3125 L -8.16227 17.2958 L -8.19791 17.2789 L -8.23352 17.2619 L -8.26909 17.2449 L -8.30462 17.2279 L -8.34012 17.2107 L -8.37559 17.1935 L -8.41102 17.1762 L -8.44641 17.1588 L -8.48177 17.1413 L -8.51709 17.1238 L -8.55238 17.1062 L -8.58763 17.0885 L -8.62284 17.0708 L -8.65802 17.053 L -8.69316 17.0351 L -8.72826 17.0171 L -8.76333 16.9991 L -8.79836 16.981 L -8.83335 16.9628 L -8.8683 16.9446 L -8.85862 16.9051 L -8.85461 16.8627 L -8.85059 16.8203 L -8.84657 16.7778 L -8.84254 16.7354 L -8.8385 16.6929 L -8.83445 16.6504 L -8.8304 16.6079 L -8.82635 16.5654 L -8.82228 16.5229 L -8.81821 16.4804 L -8.81413 16.4378 L -8.81005 16.3953 L -8.80595 16.3527 L -8.80186 16.3101 L -8.79775 16.2675 L -8.79364 16.2249 L -8.78952 16.1823 L -8.78539 16.1396 L -8.78125 16.097 L -8.77711 16.0543 L -8.77296 16.0116 L -8.7688 15.969 L -8.76464 15.9262 L -8.76047 15.8835 L -8.75629 15.8408 L -8.7521 15.798 L -8.7479 15.7553 L -8.7437 15.7125 L -8.73949 15.6697 L -8.73527 15.6269 L -8.73104 15.5841 L -8.7268 15.5413 L -8.72256 15.4984 L -8.71831 15.4556 L -8.71405 15.4127 L -8.70978 15.3698 L -8.7055 15.3269 L -8.70122 15.284 L -8.69692 15.241 L -8.69262 15.1981 L -8.68831 15.1551 L -8.68398 15.1121 L -8.67965 15.0691 L -8.67532 15.0261 L -8.67097 14.9831 L -8.66661 14.94 L -8.66224 14.897 L -8.65787 14.8539 L -8.65348 14.8108 L -8.64909 14.7677 L -8.64469 14.7246 L -8.64027 14.6814 L -8.63585 14.6383 L -8.63141 14.5951 L -8.62697 14.5519 L -8.62252 14.5087 L -8.61806 14.4654 L -8.61358 14.4222 L -8.6091 14.3789 L -8.6046 14.3357 L -8.6001 14.2924 L -8.59558 14.2491 L -8.59106 14.2057 L -8.58652 14.1624 L -8.58198 14.119 L -8.57742 14.0756 L -8.57285 14.0322 L -8.56827 13.9888 L -8.56368 13.9454 L -8.55907 13.9019 L -8.55446 13.8584 L -8.54983 13.8149 L -8.5452 13.7714 L -8.54055 13.7279 L -8.53589 13.6843 L -8.53121 13.6408 L -8.52653 13.5972 L -8.52183 13.5536 L -8.51712 13.5099 L -8.5124 13.4663 L -8.50767 13.4226 L -8.50292 13.3789 L -8.49816 13.3352 L -8.49339 13.2915 L -8.4886 13.2477 L -8.4838 13.204 L -8.47899 13.1602 L -8.47416 13.1164 L -8.46932 13.0725 L -8.46447 13.0287 L -8.45961 12.9848 L -8.45472 12.9409 L -8.45472 12.9409 L -8.49296 12.963 L -8.53119 12.9851 L -8.5694 13.0072 L -8.60759 13.0292 L -8.64578 13.0512 L -8.68394 13.0732 L -8.7221 13.0952 L -8.76024 13.1171 L -8.79837 13.1391 L -8.83649 13.161 L -8.87459 13.1829 L -8.91268 13.2048 L -8.95075 13.2266 L -8.98881 13.2485 L -9.02686 13.2703 L -9.0649 13.2921 L -9.10292 13.3139 L -9.14094 13.3356 L -9.17893 13.3574 L -9.21692 13.3791 L -9.25489 13.4008 L -9.29285 13.4225 L -9.3308 13.4442 L -9.36874 13.4658 L -9.40666 13.4875 L -9.44457 13.5091 L -9.48247 13.5307 L -9.52036 13.5523 L -9.55823 13.5738 L -9.5961 13.5954 L -9.63395 13.6169 L -9.67179 13.6384 L -9.70962 13.6599 L -9.74743 13.6814 L -9.78524 13.7029 L -9.82303 13.7243 L -9.86081 13.7458 L -9.89858 13.7672 L -9.93634 13.7886 L -9.97409 13.81 L -10.0118 13.8314 L -10.0496 13.8527 L -10.0873 13.8741 L -10.125 13.8954 L -10.1627 13.9167 L -10.2003 13.938 L -10.238 13.9593 L -10.2757 13.9805 L -10.3133 14.0018 L -10.351 14.023 L -10.3886 14.0443 L -10.4262 14.0655 L -10.4638 14.0867 L -10.5014 14.1078 L -10.539 14.129 L -10.5766 14.1502 L -10.6141 14.1713 L -10.6517 14.1924 L -10.6892 14.2135 L -10.7268 14.2346 L -10.7643 14.2557 L -10.8018 14.2768 L -10.8393 14.2978 L -10.8768 14.3189 L -10.9143 14.3399 L -10.9518 14.3609 L -10.9892 14.3819 L -11.0267 14.4029 L -11.0641 14.4239 L -11.1016 14.4449 L -11.139 14.4658 L -11.1764 14.4868 L -11.2138 14.5077 L -11.2512 14.5286 L -11.2886 14.5496 L -11.326 14.5704 L -11.3633 14.5913 L -11.4007 14.6122 L -11.4381 14.6331 L -11.4754 14.6539 L -11.5127 14.6747 L -11.5501 14.6956 L -11.5874 14.7164 L -11.6247 14.7372 L -11.662 14.758 L -11.6993 14.7788 L -11.7365 14.7995 L -11.7738 14.8203 L -11.8111 14.841 L -11.8483 14.8618 L -11.8856 14.8825 L -11.9228 14.9032 L -11.955 14.9279 L -11.9858 14.9032 L -12.0165 14.8785 L -12.0471 14.8537 L -12.0777 14.8288 L -12.1083 14.8039 L -12.1388 14.7789 L -12.1692 14.7538 L -12.1996 14.7287 L -12.23 14.7035 L -12.2602 14.6783 L -12.2905 14.653 L -12.3207 14.6276 L -12.3508 14.6022 L -12.3809 14.5767 L -12.4109 14.5511 L -12.4409 14.5255 L -12.4708 14.4998 L -12.5007 14.4741 L -12.5305 14.4483 L -12.5602 14.4224 L -12.59 14.3965 L -12.6196 14.3705 L -12.6492 14.3444 L -12.6788 14.3183 L -12.7082 14.2922 L -12.7377 14.2659 L -12.7671 14.2396 L -12.7964 14.2133 L -12.8257 14.1869 L -12.8549 14.1604 L -12.8841 14.1339 L -12.9132 14.1073 L -12.9927 14.034 L -13.0216 14.0072 L -13.0505 13.9804 L -13.0793 13.9534 L -13.108 13.9264 L -13.1367 13.8994 L -13.1653 13.8723 L -13.1939 13.8451 L -13.2224 13.8178 L -13.2509 13.7906 L -13.2793 13.7632 L -13.3076 13.7358 L -13.3359 13.7083 L -13.3642 13.6808 L -13.3923 13.6532 L -13.4205 13.6256 L -13.4485 13.5979 L -13.4765 13.5701 L -13.5045 13.5423 L -13.5324 13.5145 L -13.5602 13.4865 L -13.588 13.4585 L -13.6157 13.4305 L -13.6434 13.4024 L -13.671 13.3742 L -13.6985 13.346 L -13.726 13.3178 L -13.7534 13.2894 L -13.7808 13.261 L -13.8081 13.2326 L -13.8354 13.2041 L -13.8626 13.1756 L -13.8897 13.1469 L -13.8677 13.1128 L -13.8502 13.074 L -13.8326 13.0351 L -13.815 12.9963 L -13.7974 12.9574 L -13.7798 12.9186 L -13.7622 12.8797 L -13.7445 12.8408 L -13.7269 12.802 L -13.7092 12.7631 L -13.6916 12.7242 L -13.6739 12.6852 L -13.6562 12.6463 L -13.6385 12.6074 L -13.6208 12.5684 L -13.6031 12.5295 L -13.5854 12.4905 L -13.5677 12.4515 L -13.5499 12.4125 L -13.5321 12.3735 L -13.5144 12.3345 L -13.4966 12.2955 L -13.4788 12.2565 L -13.461 12.2174 L -13.4432 12.1784 L -13.4253 12.1393 L -13.4075 12.1003 L -13.3897 12.0612 L -13.3718 12.0221 L -13.3539 11.983 L -13.336 11.9439 L -13.3181 11.9047 L -13.3002 11.8656 L -13.2823 11.8265 L -13.2643 11.7873 L -13.2464 11.7481 L -13.2284 11.7089 L -13.2104 11.6698 L -13.1925 11.6306 L -13.1744 11.5913 L -13.1564 11.5521 L -13.1384 11.5129 L -13.1204 11.4736 L -13.1023 11.4344 L -13.0842 11.3951 L -13.0661 11.3558 L -13.048 11.3165 L -13.0299 11.2772 L -13.0118 11.2379 L -12.9937 11.1985 L -12.9755 11.1592 L -12.9573 11.1198 L -12.9392 11.0804 L -12.921 11.0411 L -12.9028 11.0017 L -12.8845 10.9622 L -12.8663 10.9228 L -12.848 10.8834 L -12.8298 10.8439 L -12.8115 10.8045 L -12.7932 10.765 L -12.7748 10.7255 L -12.7565 10.686 L -12.7382 10.6465 L -12.7198 10.607 L -12.7014 10.5674 L -12.683 10.5279 L -12.6646 10.4883 L -12.6462 10.4487 L -12.6277 10.4091 L -12.6093 10.3695 L -12.5908 10.3299 L -12.5723 10.2903 L -12.5538 10.2506 L -12.5352 10.211 L -12.5167 10.1713 L -12.4981 10.1316 L -12.4795 10.0919 L -12.4609 10.0522 L -12.4423 10.0124 L -12.4237 9.97268 L -12.405 9.93291 L -12.3863 9.89313 L -12.3676 9.85334 L -12.3489 9.81353 L -12.3302 9.7737 L -12.3114 9.73386 L -12.2927 9.69401 L -12.2739 9.65414 L -12.2551 9.61425 L -12.2363 9.57435 L -12.2174 9.53443 L -12.1985 9.4945 L -12.1985 9.4945 L -12.2419 9.50299 L -12.2852 9.51146 L -12.3285 9.51992 L -12.3718 9.52836 L -12.415 9.53679 L -12.4583 9.5452 L -12.5015 9.5536 L -12.5447 9.56198 L -12.5879 9.57035 L -12.6311 9.5787 L -12.6742 9.58704 L -12.7173 9.59536 L -12.7605 9.60367 L -12.8035 9.61197 L -12.8466 9.62025 L -12.8897 9.62852 L -12.9327 9.63678 L -12.9757 9.64502 L -13.0187 9.65325 L -13.0617 9.66146 L -13.1047 9.66966 L -13.1476 9.67785 L -13.1905 9.68603 L -13.2335 9.69419 L -13.2764 9.70234 L -13.3192 9.71048 L -13.3621 9.7186 L -13.4049 9.72672 L -13.4478 9.73482 L -13.4906 9.7429 L -13.5334 9.75098 L -13.5761 9.75905 L -13.6189 9.7671 L -13.6616 9.77514 L -13.7044 9.78317 L -13.7471 9.79119 L -13.7898 9.79919 L -13.8325 9.80719 L -13.8751 9.81517 L -13.9178 9.82314 L -13.9604 9.8311 L -14.003 9.83905 L -14.0456 9.84699 L -14.0882 9.85492 L -14.1308 9.86284 L -14.1733 9.87075 L -14.2159 9.87864 L -14.2584 9.88653 L -14.3009 9.89441 L -14.3434 9.90227 L -14.3859 9.91013 L -14.4283 9.91797 L -14.4708 9.92581 L -14.5132 9.93364 L -14.5556 9.94145 L -14.598 9.94926 L -14.6404 9.95705 L -14.6828 9.96484 L -14.7252 9.97262 L -14.7675 9.98039 L -14.8099 9.98814 L -14.8522 9.99589 L -14.8945 10.0036 L -14.9368 10.0114 L -14.9791 10.0191 L -15.0213 10.0268 L -15.0636 10.0345 L -15.1058 10.0422 L -15.1481 10.0499 L -15.1903 10.0576 L -15.2325 10.0652 L -15.2747 10.0729 L -15.3169 10.0805 L -15.359 10.0882 L -15.4012 10.0958 L -15.4433 10.1034 L -15.4854 10.1111 L -15.5276 10.1187 L -15.5697 10.1263 L -15.6117 10.1339 L -15.6538 10.1415 L -15.6959 10.149 L -15.7379 10.1566 L -15.78 10.1642 L -15.822 10.1717 L -15.864 10.1793 L -15.906 10.1868 L -15.948 10.1943 L -15.99 10.2019 L -16.032 10.2094 L -16.0739 10.2169 L -16.1159 10.2244 L -16.1544 10.2373 L -16.1754 10.204 L -16.1964 10.1706 L -16.2174 10.1372 L -16.2382 10.1037 L -16.259 10.0702 L -16.2798 10.0367 L -16.3004 10.0031 L -16.321 9.96946 L -16.3415 9.93579 L -16.362 9.90208 L -16.3824 9.86832 L -16.4027 9.83453 L -16.4229 9.80069 L -16.4431 9.76681 L -16.4632 9.73289 L -16.4832 9.69892 L -16.5032 9.66492 L -16.5231 9.63087 L -16.5429 9.59679 L -16.5626 9.56266 L -16.5823 9.52849 L -16.6019 9.49429 L -16.6215 9.46004 L -16.6409 9.42575 L -16.6603 9.39142 L -16.6797 9.35705 L -16.6989 9.32264 L -16.7181 9.28819 L -16.7372 9.25371 L -16.7563 9.21918 L -16.7752 9.18461 L -16.7941 9.15001 L -16.8456 9.05491 L -16.8642 9.02016 L -16.8828 8.98537 L -16.9013 8.95054 L -16.9197 8.91568 L -16.938 8.88077 L -16.9563 8.84583 L -16.9745 8.81086 L -16.9927 8.77584 L -17.0107 8.74079 L -17.0287 8.7057 L -17.0466 8.67057 L -17.0644 8.63541 L -17.0822 8.60021 L -17.0999 8.56497 L -17.1175 8.5297 L -17.1351 8.49439 L -17.1526 8.45904 L -17.17 8.42366 L -17.1873 8.38825 L -17.2045 8.35279 L -17.2217 8.3173 L -17.2388 8.28178 L -17.2559 8.24622 L -17.2728 8.21063 L -17.2897 8.175 L -17.3066 8.13934 L -17.3233 8.10364 L -17.34 8.0679 L -17.3566 8.03214 L -17.3731 7.99634 L -17.3895 7.9605 L -17.4059 7.92463 L -17.3741 7.89945 L -17.3448 7.86844 L -17.3156 7.83742 L -17.2863 7.8064 L -17.2571 7.77537 L -17.2278 7.74433 L -17.1985 7.71329 L -17.1692 7.68225 L -17.1399 7.6512 L -17.1106 7.62014 L -17.0813 7.58907 L -17.0519 7.558 L -17.0225 7.52693 L -16.9932 7.49585 L -16.9638 7.46476 L -16.9344 7.43367 L -16.905 7.40257 L -16.8755 7.37146 L -16.8461 7.34035 L -16.8166 7.30923 L -16.7871 7.27811 L -16.7577 7.24698 L -16.7282 7.21584 L -16.6986 7.1847 L -16.6691 7.15355 L -16.6396 7.12239 L -16.61 7.09123 L -16.5804 7.06006 L -16.5508 7.02889 L -16.5212 6.99771 L -16.4916 6.96652 L -16.462 6.93533 L -16.4323 6.90413 L -16.4027 6.87292 L -16.373 6.84171 L -16.3433 6.81049 L -16.3136 6.77926 L -16.2838 6.74803 L -16.2541 6.71679 L -16.2243 6.68555 L -16.1945 6.65429 L -16.1647 6.62304 L -16.1349 6.59177 L -16.1051 6.5605 L -16.0753 6.52922 L -16.0454 6.49793 L -16.0155 6.46664 L -15.9856 6.43534 L -15.9557 6.40403 L -15.9258 6.37272 L -15.8958 6.3414 L -15.8659 6.31007 L -15.8359 6.27873 L -15.8059 6.24739 L -15.7759 6.21604 L -15.7458 6.18469 L -15.7158 6.15332 L -15.6857 6.12195 L -15.6556 6.09057 L -15.6255 6.05919 L -15.5954 6.0278 L -15.5652 5.9964 L -15.5351 5.96499 L -15.5049 5.93357 L -15.4747 5.90215 L -15.4445 5.87072 L -15.4142 5.83929 L -15.384 5.80784 L -15.3537 5.77639 L -15.3234 5.74493 L -15.293 5.71346 L -15.2627 5.68199 L -15.2323 5.65051 L -15.2019 5.61902 L -15.1715 5.58752 L -15.1411 5.55601 L -15.1107 5.5245 L -15.0802 5.49298 L -15.0497 5.46145 L -15.0192 5.42991 L -14.9886 5.39837 L -14.9581 5.36682 L -14.9275 5.33526 L -14.8969 5.30369 L -14.8663 5.27211 L -14.8356 5.24053 L -14.805 5.20893 L -14.7743 5.17733 L -14.7435 5.14572 L -14.7128 5.11411 L -14.682 5.08248 L -14.6513 5.05085 L -14.6204 5.0192 L -14.6204 5.0192 L -14.6642 5.01316 L -14.7079 5.00711 L -14.7516 5.00105 L -14.7953 4.99498 L -14.839 4.9889 L -14.8826 4.98281 L -14.9262 4.97672 L -14.9698 4.97062 L -15.0133 4.96451 L -15.0569 4.9584 L -15.1004 4.95227 L -15.1439 4.94614 L -15.1874 4.94001 L -15.2308 4.93386 L -15.2742 4.92771 L -15.3177 4.92155 L -15.361 4.91538 L -15.4044 4.90921 L -15.4477 4.90303 L -15.4911 4.89685 L -15.5344 4.89065 L -15.5776 4.88445 L -15.6209 4.87825 L -15.6641 4.87203 L -15.7074 4.86581 L -15.7505 4.85959 L -15.7937 4.85336 L -15.8369 4.84712 L -15.88 4.84088 L -15.9231 4.83463 L -15.9662 4.82837 L -16.0093 4.82211 L -16.0524 4.81584 L -16.0954 4.80957 L -16.1384 4.80329 L -16.1814 4.797 L -16.2244 4.79071 L -16.2674 4.78442 L -16.3103 4.77811 L -16.3532 4.77181 L -16.3961 4.7655 L -16.439 4.75918 L -16.4819 4.75285 L -16.5247 4.74653 L -16.5676 4.74019 L -16.6104 4.73385 L -16.6532 4.72751 L -16.696 4.72116 L -16.7387 4.71481 L -16.7815 4.70845 L -16.8242 4.70209 L -16.8669 4.69572 L -16.9096 4.68935 L -16.9523 4.68297 L -16.995 4.67659 L -17.0376 4.6702 L -17.0802 4.66381 L -17.1228 4.65742 L -17.1654 4.65102 L -17.208 4.64461 L -17.2506 4.6382 L -17.2931 4.63179 L -17.3357 4.62537 L -17.3782 4.61895 L -17.4207 4.61252 L -17.4631 4.60609 L -17.5056 4.59966 L -17.5481 4.59322 L -17.5905 4.58678 L -17.6329 4.58033 L -17.6753 4.57388 L -17.7177 4.56743 L -17.7601 4.56097 L -17.8025 4.55451 L -17.8448 4.54804 L -17.8871 4.54157 L -17.9295 4.5351 L -17.9718 4.52863 L -18.014 4.52214 L -18.0563 4.51566 L -18.0986 4.50917 L -18.1408 4.50268 L -18.1831 4.49619 L -18.2253 4.48969 L -18.2675 4.48319 L -18.3097 4.47668 L -18.3518 4.47018 L -18.394 4.46366 L -18.4361 4.45715 L -18.4783 4.45063 L -18.5204 4.44411 L -18.5625 4.43759 L -18.6031 4.43729 L -18.6122 4.39892 L -18.6213 4.36054 L -18.6302 4.32214 L -18.6391 4.28372 L -18.6479 4.24528 L -18.6566 4.20683 L -18.6652 4.16835 L -18.6738 4.12986 L -18.6822 4.09135 L -18.6906 4.05283 L -18.699 4.01428 L -18.7072 3.97572 L -18.7154 3.93715 L -18.7234 3.89855 L -18.7314 3.85994 L -18.7393 3.82132 L -18.7472 3.78267 L -18.7549 3.74401 L -18.7626 3.70534 L -18.7702 3.66665 L -18.7777 3.62794 L -18.7852 3.58922 L -18.7925 3.55048 L -18.7998 3.51173 L -18.807 3.47296 L -18.8141 3.43418 L -18.8212 3.39538 L -18.8281 3.35657 L -18.835 3.31775 L -18.8418 3.27891 L -18.8485 3.24006 L -18.8552 3.20119 L -18.873 3.09453 L -18.8793 3.05561 L -18.8856 3.01668 L -18.8918 2.97774 L -18.8979 2.93878 L -18.9039 2.89982 L -18.9098 2.86083 L -18.9157 2.82184 L -18.9215 2.78284 L -18.9272 2.74382 L -18.9328 2.70479 L -18.9383 2.66575 L -18.9438 2.6267 L -18.9491 2.58764 L -18.9544 2.54857 L -18.9596 2.50948 L -18.9648 2.47039 L -18.9698 2.43128 L -18.9748 2.39217 L -18.9797 2.35304 L -18.9845 2.31391 L -18.9892 2.27476 L -18.9939 2.23561 L -18.9985 2.19644 L -19.0029 2.15727 L -19.0073 2.11809 L -19.0117 2.07889 L -19.0159 2.03969 L -19.0201 2.00048 L -19.0242 1.96127 L -19.0282 1.92204 L -19.0321 1.88281 L -19.0359 1.84356 L -18.9976 1.83009 L -18.9599 1.81025 L -18.9222 1.7904 L -18.8845 1.77056 L -18.8467 1.75071 L -18.8089 1.73086 L -18.7712 1.71101 L -18.7334 1.69116 L -18.6956 1.67131 L -18.6578 1.65146 L -18.6199 1.6316 L -18.5821 1.61174 L -18.5442 1.59189 L -18.5063 1.57203 L -18.4684 1.55217 L -18.4305 1.53231 L -18.3926 1.51244 L -18.3547 1.49258 L -18.3167 1.47271 L -18.2788 1.45285 L -18.2408 1.43298 L -18.2028 1.41311 L -18.1648 1.39324 L -18.1267 1.37337 L -18.0887 1.3535 L -18.0506 1.33363 L -18.0125 1.31375 L -17.9744 1.29388 L -17.9363 1.274 L -17.8982 1.25412 L -17.8601 1.23424 L -17.8219 1.21436 L -17.7837 1.19448 L -17.7455 1.1746 L -17.7073 1.15471 L -17.6691 1.13483 L -17.6309 1.11494 L -17.5926 1.09505 L -17.5543 1.07517 L -17.516 1.05528 L -17.4777 1.03539 L -17.4394 1.0155 L -17.401 0.995604 L -17.3627 0.97571 L -17.3243 0.955816 L -17.2859 0.935921 L -17.2475 0.916024 L -17.209 0.896127 L -17.1706 0.876229 L -17.1321 0.856329 L -17.0936 0.836429 L -17.0551 0.816528 L -17.0166 0.796626 L -16.978 0.776723 L -16.9394 0.756819 L -16.9009 0.736915 L -16.8622 0.717009 L -16.8236 0.697103 L -16.785 0.677196 L -16.7463 0.657288 L -16.7076 0.637379 L -16.6689 0.617469 L -16.6302 0.597559 L -16.5914 0.577648 L -16.5526 0.557736 L -16.5139 0.537824 L -16.475 0.517911 L -16.4362 0.497997 L -16.3974 0.478082 L -16.3585 0.458167 L -16.3196 0.438252 L -16.2807 0.418335 L -16.2417 0.398418 L -16.2028 0.378501 L -16.1638 0.358583 L -16.1248 0.338665 L -16.0857 0.318746 L -16.0467 0.298827 L -16.0076 0.278907 L -15.9685 0.258987 L -15.9294 0.239066 L -15.8902 0.219145 L -15.851 0.199224 L -15.8119 0.179302 L -15.7726 0.159381 L -15.7334 0.139459 L -15.6941 0.119536 L -15.6548 0.0996139 L -15.6155 0.0796913 L -15.5762 0.0597686 L -15.5368 0.0398458 L -15.4974 0.0199229 L -15.458 2.22045e-15 L -15.458 1.56567e-15 L -15.4974 -0.0199229 L -15.5368 -0.0398458 L -15.5762 -0.0597686 L -15.6155 -0.0796913 L -15.6548 -0.0996139 L -15.6941 -0.119536 L -15.7334 -0.139459 L -15.7726 -0.159381 L -15.8119 -0.179302 L -15.851 -0.199224 L -15.8902 -0.219145 L -15.9294 -0.239066 L -15.9685 -0.258987 L -16.0076 -0.278907 L -16.0467 -0.298827 L -16.0857 -0.318746 L -16.1248 -0.338665 L -16.1638 -0.358583 L -16.2028 -0.378501 L -16.2417 -0.398418 L -16.2807 -0.418335 L -16.3196 -0.438252 L -16.3585 -0.458167 L -16.3974 -0.478082 L -16.4362 -0.497997 L -16.475 -0.517911 L -16.5139 -0.537824 L -16.5526 -0.557736 L -16.5914 -0.577648 L -16.6302 -0.597559 L -16.6689 -0.617469 L -16.7076 -0.637379 L -16.7463 -0.657288 L -16.785 -0.677196 L -16.8236 -0.697103 L -16.8622 -0.717009 L -16.9009 -0.736915 L -16.9394 -0.756819 L -16.978 -0.776723 L -17.0166 -0.796626 L -17.0551 -0.816528 L -17.0936 -0.836429 L -17.1321 -0.856329 L -17.1706 -0.876229 L -17.209 -0.896127 L -17.2475 -0.916024 L -17.2859 -0.935921 L -17.3243 -0.955816 L -17.3627 -0.97571 L -17.401 -0.995604 L -17.4394 -1.0155 L -17.4777 -1.03539 L -17.516 -1.05528 L -17.5543 -1.07517 L -17.5926 -1.09505 L -17.6309 -1.11494 L -17.6691 -1.13483 L -17.7073 -1.15471 L -17.7455 -1.1746 L -17.7837 -1.19448 L -17.8219 -1.21436 L -17.8601 -1.23424 L -17.8982 -1.25412 L -17.9363 -1.274 L -17.9744 -1.29388 L -18.0125 -1.31375 L -18.0506 -1.33363 L -18.0887 -1.3535 L -18.1267 -1.37337 L -18.1648 -1.39324 L -18.2028 -1.41311 L -18.2408 -1.43298 L -18.2788 -1.45285 L -18.3167 -1.47271 L -18.3547 -1.49258 L -18.3926 -1.51244 L -18.4305 -1.53231 L -18.4684 -1.55217 L -18.5063 -1.57203 L -18.5442 -1.59189 L -18.5821 -1.61174 L -18.6199 -1.6316 L -18.6578 -1.65146 L -18.6956 -1.67131 L -18.7334 -1.69116 L -18.7712 -1.71101 L -18.8089 -1.73086 L -18.8467 -1.75071 L -18.8845 -1.77056 L -18.9222 -1.7904 L -18.9599 -1.81025 L -18.9976 -1.83009 L -19.0359 -1.84356 L -19.0321 -1.88281 L -19.0282 -1.92204 L -19.0242 -1.96127 L -19.0201 -2.00048 L -19.0159 -2.03969 L -19.0117 -2.07889 L -19.0073 -2.11809 L -19.0029 -2.15727 L -18.9985 -2.19644 L -18.9939 -2.23561 L -18.9892 -2.27476 L -18.9845 -2.31391 L -18.9797 -2.35304 L -18.9748 -2.39217 L -18.9698 -2.43128 L -18.9648 -2.47039 L -18.9596 -2.50948 L -18.9544 -2.54857 L -18.9491 -2.58764 L -18.9438 -2.6267 L -18.9383 -2.66575 L -18.9328 -2.70479 L -18.9272 -2.74382 L -18.9215 -2.78284 L -18.9157 -2.82184 L -18.9098 -2.86083 L -18.9039 -2.89982 L -18.8979 -2.93878 L -18.8918 -2.97774 L -18.8856 -3.01668 L -18.8793 -3.05561 L -18.873 -3.09453 L -18.8552 -3.20119 L -18.8485 -3.24006 L -18.8418 -3.27891 L -18.835 -3.31775 L -18.8281 -3.35657 L -18.8212 -3.39538 L -18.8141 -3.43418 L -18.807 -3.47296 L -18.7998 -3.51173 L -18.7925 -3.55048 L -18.7852 -3.58922 L -18.7777 -3.62794 L -18.7702 -3.66665 L -18.7626 -3.70534 L -18.7549 -3.74401 L -18.7472 -3.78267 L -18.7393 -3.82132 L -18.7314 -3.85994 L -18.7234 -3.89855 L -18.7154 -3.93715 L -18.7072 -3.97572 L -18.699 -4.01428 L -18.6906 -4.05283 L -18.6822 -4.09135 L -18.6738 -4.12986 L -18.6652 -4.16835 L -18.6566 -4.20683 L -18.6479 -4.24528 L -18.6391 -4.28372 L -18.6302 -4.32214 L -18.6213 -4.36054 L -18.6122 -4.39892 L -18.6031 -4.43729 L -18.5625 -4.43759 L -18.5204 -4.44411 L -18.4783 -4.45063 L -18.4361 -4.45715 L -18.394 -4.46366 L -18.3518 -4.47018 L -18.3097 -4.47668 L -18.2675 -4.48319 L -18.2253 -4.48969 L -18.1831 -4.49619 L -18.1408 -4.50268 L -18.0986 -4.50917 L -18.0563 -4.51566 L -18.014 -4.52214 L -17.9718 -4.52863 L -17.9295 -4.5351 L -17.8871 -4.54157 L -17.8448 -4.54804 L -17.8025 -4.55451 L -17.7601 -4.56097 L -17.7177 -4.56743 L -17.6753 -4.57388 L -17.6329 -4.58033 L -17.5905 -4.58678 L -17.5481 -4.59322 L -17.5056 -4.59966 L -17.4631 -4.60609 L -17.4207 -4.61252 L -17.3782 -4.61895 L -17.3357 -4.62537 L -17.2931 -4.63179 L -17.2506 -4.6382 L -17.208 -4.64461 L -17.1654 -4.65102 L -17.1228 -4.65742 L -17.0802 -4.66381 L -17.0376 -4.6702 L -16.995 -4.67659 L -16.9523 -4.68297 L -16.9096 -4.68935 L -16.8669 -4.69572 L -16.8242 -4.70209 L -16.7815 -4.70845 L -16.7387 -4.71481 L -16.696 -4.72116 L -16.6532 -4.72751 L -16.6104 -4.73385 L -16.5676 -4.74019 L -16.5247 -4.74653 L -16.4819 -4.75285 L -16.439 -4.75918 L -16.3961 -4.7655 L -16.3532 -4.77181 L -16.3103 -4.77811 L -16.2674 -4.78442 L -16.2244 -4.79071 L -16.1814 -4.797 L -16.1384 -4.80329 L -16.0954 -4.80957 L -16.0524 -4.81584 L -16.0093 -4.82211 L -15.9662 -4.82837 L -15.9231 -4.83463 L -15.88 -4.84088 L -15.8369 -4.84712 L -15.7937 -4.85336 L -15.7505 -4.85959 L -15.7074 -4.86581 L -15.6641 -4.87203 L -15.6209 -4.87825 L -15.5776 -4.88445 L -15.5344 -4.89065 L -15.4911 -4.89685 L -15.4477 -4.90303 L -15.4044 -4.90921 L -15.361 -4.91538 L -15.3177 -4.92155 L -15.2742 -4.92771 L -15.2308 -4.93386 L -15.1874 -4.94001 L -15.1439 -4.94614 L -15.1004 -4.95227 L -15.0569 -4.9584 L -15.0133 -4.96451 L -14.9698 -4.97062 L -14.9262 -4.97672 L -14.8826 -4.98281 L -14.839 -4.9889 L -14.7953 -4.99498 L -14.7516 -5.00105 L -14.7079 -5.00711 L -14.6642 -5.01316 L -14.6204 -5.0192 L -14.6204 -5.0192 L -14.6513 -5.05085 L -14.682 -5.08248 L -14.7128 -5.11411 L -14.7435 -5.14572 L -14.7743 -5.17733 L -14.805 -5.20893 L -14.8356 -5.24053 L -14.8663 -5.27211 L -14.8969 -5.30369 L -14.9275 -5.33526 L -14.9581 -5.36682 L -14.9886 -5.39837 L -15.0192 -5.42991 L -15.0497 -5.46145 L -15.0802 -5.49298 L -15.1107 -5.5245 L -15.1411 -5.55601 L -15.1715 -5.58752 L -15.2019 -5.61902 L -15.2323 -5.65051 L -15.2627 -5.68199 L -15.293 -5.71346 L -15.3234 -5.74493 L -15.3537 -5.77639 L -15.384 -5.80784 L -15.4142 -5.83929 L -15.4445 -5.87072 L -15.4747 -5.90215 L -15.5049 -5.93357 L -15.5351 -5.96499 L -15.5652 -5.9964 L -15.5954 -6.0278 L -15.6255 -6.05919 L -15.6556 -6.09057 L -15.6857 -6.12195 L -15.7158 -6.15332 L -15.7458 -6.18469 L -15.7759 -6.21604 L -15.8059 -6.24739 L -15.8359 -6.27873 L -15.8659 -6.31007 L -15.8958 -6.3414 L -15.9258 -6.37272 L -15.9557 -6.40403 L -15.9856 -6.43534 L -16.0155 -6.46664 L -16.0454 -6.49793 L -16.0753 -6.52922 L -16.1051 -6.5605 L -16.1349 -6.59177 L -16.1647 -6.62304 L -16.1945 -6.65429 L -16.2243 -6.68555 L -16.2541 -6.71679 L -16.2838 -6.74803 L -16.3136 -6.77926 L -16.3433 -6.81049 L -16.373 -6.84171 L -16.4027 -6.87292 L -16.4323 -6.90413 L -16.462 -6.93533 L -16.4916 -6.96652 L -16.5212 -6.99771 L -16.5508 -7.02889 L -16.5804 -7.06006 L -16.61 -7.09123 L -16.6396 -7.12239 L -16.6691 -7.15355 L -16.6986 -7.1847 L -16.7282 -7.21584 L -16.7577 -7.24698 L -16.7871 -7.27811 L -16.8166 -7.30923 L -16.8461 -7.34035 L -16.8755 -7.37146 L -16.905 -7.40257 L -16.9344 -7.43367 L -16.9638 -7.46476 L -16.9932 -7.49585 L -17.0225 -7.52693 L -17.0519 -7.558 L -17.0813 -7.58907 L -17.1106 -7.62014 L -17.1399 -7.6512 L -17.1692 -7.68225 L -17.1985 -7.71329 L -17.2278 -7.74433 L -17.2571 -7.77537 L -17.2863 -7.8064 L -17.3156 -7.83742 L -17.3448 -7.86844 L -17.3741 -7.89945 L -17.4059 -7.92463 L -17.3895 -7.9605 L -17.3731 -7.99634 L -17.3566 -8.03214 L -17.34 -8.0679 L -17.3233 -8.10364 L -17.3066 -8.13934 L -17.2897 -8.175 L -17.2728 -8.21063 L -17.2559 -8.24622 L -17.2388 -8.28178 L -17.2217 -8.3173 L -17.2045 -8.35279 L -17.1873 -8.38825 L -17.17 -8.42366 L -17.1526 -8.45904 L -17.1351 -8.49439 L -17.1175 -8.5297 L -17.0999 -8.56497 L -17.0822 -8.60021 L -17.0644 -8.63541 L -17.0466 -8.67057 L -17.0287 -8.7057 L -17.0107 -8.74079 L -16.9927 -8.77584 L -16.9745 -8.81086 L -16.9563 -8.84583 L -16.938 -8.88077 L -16.9197 -8.91568 L -16.9013 -8.95054 L -16.8828 -8.98537 L -16.8642 -9.02016 L -16.8456 -9.05491 L -16.7941 -9.15001 L -16.7752 -9.18461 L -16.7563 -9.21918 L -16.7372 -9.25371 L -16.7181 -9.28819 L -16.6989 -9.32264 L -16.6797 -9.35705 L -16.6603 -9.39142 L -16.6409 -9.42575 L -16.6215 -9.46004 L -16.6019 -9.49429 L -16.5823 -9.52849 L -16.5626 -9.56266 L -16.5429 -9.59679 L -16.5231 -9.63087 L -16.5032 -9.66492 L -16.4832 -9.69892 L -16.4632 -9.73289 L -16.4431 -9.76681 L -16.4229 -9.80069 L -16.4027 -9.83453 L -16.3824 -9.86832 L -16.362 -9.90208 L -16.3415 -9.93579 L -16.321 -9.96946 L -16.3004 -10.0031 L -16.2798 -10.0367 L -16.259 -10.0702 L -16.2382 -10.1037 L -16.2174 -10.1372 L -16.1964 -10.1706 L -16.1754 -10.204 L -16.1544 -10.2373 L -16.1159 -10.2244 L -16.0739 -10.2169 L -16.032 -10.2094 L -15.99 -10.2019 L -15.948 -10.1943 L -15.906 -10.1868 L -15.864 -10.1793 L -15.822 -10.1717 L -15.78 -10.1642 L -15.7379 -10.1566 L -15.6959 -10.149 L -15.6538 -10.1415 L -15.6117 -10.1339 L -15.5697 -10.1263 L -15.5276 -10.1187 L -15.4854 -10.1111 L -15.4433 -10.1034 L -15.4012 -10.0958 L -15.359 -10.0882 L -15.3169 -10.0805 L -15.2747 -10.0729 L -15.2325 -10.0652 L -15.1903 -10.0576 L -15.1481 -10.0499 L -15.1058 -10.0422 L -15.0636 -10.0345 L -15.0213 -10.0268 L -14.9791 -10.0191 L -14.9368 -10.0114 L -14.8945 -10.0036 L -14.8522 -9.99589 L -14.8099 -9.98814 L -14.7675 -9.98039 L -14.7252 -9.97262 L -14.6828 -9.96484 L -14.6404 -9.95705 L -14.598 -9.94926 L -14.5556 -9.94145 L -14.5132 -9.93364 L -14.4708 -9.92581 L -14.4283 -9.91797 L -14.3859 -9.91013 L -14.3434 -9.90227 L -14.3009 -9.89441 L -14.2584 -9.88653 L -14.2159 -9.87864 L -14.1733 -9.87075 L -14.1308 -9.86284 L -14.0882 -9.85492 L -14.0456 -9.84699 L -14.003 -9.83905 L -13.9604 -9.8311 L -13.9178 -9.82314 L -13.8751 -9.81517 L -13.8325 -9.80719 L -13.7898 -9.79919 L -13.7471 -9.79119 L -13.7044 -9.78317 L -13.6616 -9.77514 L -13.6189 -9.7671 L -13.5761 -9.75905 L -13.5334 -9.75098 L -13.4906 -9.7429 L -13.4478 -9.73482 L -13.4049 -9.72672 L -13.3621 -9.7186 L -13.3192 -9.71048 L -13.2764 -9.70234 L -13.2335 -9.69419 L -13.1905 -9.68603 L -13.1476 -9.67785 L -13.1047 -9.66966 L -13.0617 -9.66146 L -13.0187 -9.65325 L -12.9757 -9.64502 L -12.9327 -9.63678 L -12.8897 -9.62852 L -12.8466 -9.62025 L -12.8035 -9.61197 L -12.7605 -9.60367 L -12.7173 -9.59536 L -12.6742 -9.58704 L -12.6311 -9.5787 L -12.5879 -9.57035 L -12.5447 -9.56198 L -12.5015 -9.5536 L -12.4583 -9.5452 L -12.415 -9.53679 L -12.3718 -9.52836 L -12.3285 -9.51992 L -12.2852 -9.51146 L -12.2419 -9.50299 L -12.1985 -9.4945 L -12.1985 -9.4945 L -12.2174 -9.53443 L -12.2363 -9.57435 L -12.2551 -9.61425 L -12.2739 -9.65414 L -12.2927 -9.69401 L -12.3114 -9.73386 L -12.3302 -9.7737 L -12.3489 -9.81353 L -12.3676 -9.85334 L -12.3863 -9.89313 L -12.405 -9.93291 L -12.4237 -9.97268 L -12.4423 -10.0124 L -12.4609 -10.0522 L -12.4795 -10.0919 L -12.4981 -10.1316 L -12.5167 -10.1713 L -12.5352 -10.211 L -12.5538 -10.2506 L -12.5723 -10.2903 L -12.5908 -10.3299 L -12.6093 -10.3695 L -12.6277 -10.4091 L -12.6462 -10.4487 L -12.6646 -10.4883 L -12.683 -10.5279 L -12.7014 -10.5674 L -12.7198 -10.607 L -12.7382 -10.6465 L -12.7565 -10.686 L -12.7748 -10.7255 L -12.7932 -10.765 L -12.8115 -10.8045 L -12.8298 -10.8439 L -12.848 -10.8834 L -12.8663 -10.9228 L -12.8845 -10.9622 L -12.9028 -11.0017 L -12.921 -11.0411 L -12.9392 -11.0804 L -12.9573 -11.1198 L -12.9755 -11.1592 L -12.9937 -11.1985 L -13.0118 -11.2379 L -13.0299 -11.2772 L -13.048 -11.3165 L -13.0661 -11.3558 L -13.0842 -11.3951 L -13.1023 -11.4344 L -13.1204 -11.4736 L -13.1384 -11.5129 L -13.1564 -11.5521 L -13.1744 -11.5913 L -13.1925 -11.6306 L -13.2104 -11.6698 L -13.2284 -11.7089 L -13.2464 -11.7481 L -13.2643 -11.7873 L -13.2823 -11.8265 L -13.3002 -11.8656 L -13.3181 -11.9047 L -13.336 -11.9439 L -13.3539 -11.983 L -13.3718 -12.0221 L -13.3897 -12.0612 L -13.4075 -12.1003 L -13.4253 -12.1393 L -13.4432 -12.1784 L -13.461 -12.2174 L -13.4788 -12.2565 L -13.4966 -12.2955 L -13.5144 -12.3345 L -13.5321 -12.3735 L -13.5499 -12.4125 L -13.5677 -12.4515 L -13.5854 -12.4905 L -13.6031 -12.5295 L -13.6208 -12.5684 L -13.6385 -12.6074 L -13.6562 -12.6463 L -13.6739 -12.6852 L -13.6916 -12.7242 L -13.7092 -12.7631 L -13.7269 -12.802 L -13.7445 -12.8408 L -13.7622 -12.8797 L -13.7798 -12.9186 L -13.7974 -12.9574 L -13.815 -12.9963 L -13.8326 -13.0351 L -13.8502 -13.074 L -13.8677 -13.1128 L -13.8897 -13.1469 L -13.8626 -13.1756 L -13.8354 -13.2041 L -13.8081 -13.2326 L -13.7808 -13.261 L -13.7534 -13.2894 L -13.726 -13.3178 L -13.6985 -13.346 L -13.671 -13.3742 L -13.6434 -13.4024 L -13.6157 -13.4305 L -13.588 -13.4585 L -13.5602 -13.4865 L -13.5324 -13.5145 L -13.5045 -13.5423 L -13.4765 -13.5701 L -13.4485 -13.5979 L -13.4205 -13.6256 L -13.3923 -13.6532 L -13.3642 -13.6808 L -13.3359 -13.7083 L -13.3076 -13.7358 L -13.2793 -13.7632 L -13.2509 -13.7906 L -13.2224 -13.8178 L -13.1939 -13.8451 L -13.1653 -13.8723 L -13.1367 -13.8994 L -13.108 -13.9264 L -13.0793 -13.9534 L -13.0505 -13.9804 L -13.0216 -14.0072 L -12.9927 -14.034 L -12.9132 -14.1073 L -12.8841 -14.1339 L -12.8549 -14.1604 L -12.8257 -14.1869 L -12.7964 -14.2133 L -12.7671 -14.2396 L -12.7377 -14.2659 L -12.7082 -14.2922 L -12.6788 -14.3183 L -12.6492 -14.3444 L -12.6196 -14.3705 L -12.59 -14.3965 L -12.5602 -14.4224 L -12.5305 -14.4483 L -12.5007 -14.4741 L -12.4708 -14.4998 L -12.4409 -14.5255 L -12.4109 -14.5511 L -12.3809 -14.5767 L -12.3508 -14.6022 L -12.3207 -14.6276 L -12.2905 -14.653 L -12.2602 -14.6783 L -12.23 -14.7035 L -12.1996 -14.7287 L -12.1692 -14.7538 L -12.1388 -14.7789 L -12.1083 -14.8039 L -12.0777 -14.8288 L -12.0471 -14.8537 L -12.0165 -14.8785 L -11.9858 -14.9032 L -11.955 -14.9279 L -11.9228 -14.9032 L -11.8856 -14.8825 L -11.8483 -14.8618 L -11.8111 -14.841 L -11.7738 -14.8203 L -11.7365 -14.7995 L -11.6993 -14.7788 L -11.662 -14.758 L -11.6247 -14.7372 L -11.5874 -14.7164 L -11.5501 -14.6956 L -11.5127 -14.6747 L -11.4754 -14.6539 L -11.4381 -14.6331 L -11.4007 -14.6122 L -11.3633 -14.5913 L -11.326 -14.5704 L -11.2886 -14.5496 L -11.2512 -14.5286 L -11.2138 -14.5077 L -11.1764 -14.4868 L -11.139 -14.4658 L -11.1016 -14.4449 L -11.0641 -14.4239 L -11.0267 -14.4029 L -10.9892 -14.3819 L -10.9518 -14.3609 L -10.9143 -14.3399 L -10.8768 -14.3189 L -10.8393 -14.2978 L -10.8018 -14.2768 L -10.7643 -14.2557 L -10.7268 -14.2346 L -10.6892 -14.2135 L -10.6517 -14.1924 L -10.6141 -14.1713 L -10.5766 -14.1502 L -10.539 -14.129 L -10.5014 -14.1078 L -10.4638 -14.0867 L -10.4262 -14.0655 L -10.3886 -14.0443 L -10.351 -14.023 L -10.3133 -14.0018 L -10.2757 -13.9805 L -10.238 -13.9593 L -10.2003 -13.938 L -10.1627 -13.9167 L -10.125 -13.8954 L -10.0873 -13.8741 L -10.0496 -13.8527 L -10.0118 -13.8314 L -9.97409 -13.81 L -9.93634 -13.7886 L -9.89858 -13.7672 L -9.86081 -13.7458 L -9.82303 -13.7243 L -9.78524 -13.7029 L -9.74743 -13.6814 L -9.70962 -13.6599 L -9.67179 -13.6384 L -9.63395 -13.6169 L -9.5961 -13.5954 L -9.55823 -13.5738 L -9.52036 -13.5523 L -9.48247 -13.5307 L -9.44457 -13.5091 L -9.40666 -13.4875 L -9.36874 -13.4658 L -9.3308 -13.4442 L -9.29285 -13.4225 L -9.25489 -13.4008 L -9.21692 -13.3791 L -9.17893 -13.3574 L -9.14094 -13.3356 L -9.10292 -13.3139 L -9.0649 -13.2921 L -9.02686 -13.2703 L -8.98881 -13.2485 L -8.95075 -13.2266 L -8.91268 -13.2048 L -8.87459 -13.1829 L -8.83649 -13.161 L -8.79837 -13.1391 L -8.76024 -13.1171 L -8.7221 -13.0952 L -8.68394 -13.0732 L -8.64578 -13.0512 L -8.60759 -13.0292 L -8.5694 -13.0072 L -8.53119 -12.9851 L -8.49296 -12.963 L -8.45472 -12.9409 L -8.45472 -12.9409 L -8.45961 -12.9848 L -8.46447 -13.0287 L -8.46932 -13.0725 L -8.47416 -13.1164 L -8.47899 -13.1602 L -8.4838 -13.204 L -8.4886 -13.2477 L -8.49339 -13.2915 L -8.49816 -13.3352 L -8.50292 -13.3789 L -8.50767 -13.4226 L -8.5124 -13.4663 L -8.51712 -13.5099 L -8.52183 -13.5536 L -8.52653 -13.5972 L -8.53121 -13.6408 L -8.53589 -13.6843 L -8.54055 -13.7279 L -8.5452 -13.7714 L -8.54983 -13.8149 L -8.55446 -13.8584 L -8.55907 -13.9019 L -8.56368 -13.9454 L -8.56827 -13.9888 L -8.57285 -14.0322 L -8.57742 -14.0756 L -8.58198 -14.119 L -8.58652 -14.1624 L -8.59106 -14.2057 L -8.59558 -14.2491 L -8.6001 -14.2924 L -8.6046 -14.3357 L -8.6091 -14.3789 L -8.61358 -14.4222 L -8.61806 -14.4654 L -8.62252 -14.5087 L -8.62697 -14.5519 L -8.63141 -14.5951 L -8.63585 -14.6383 L -8.64027 -14.6814 L -8.64469 -14.7246 L -8.64909 -14.7677 L -8.65348 -14.8108 L -8.65787 -14.8539 L -8.66224 -14.897 L -8.66661 -14.94 L -8.67097 -14.9831 L -8.67532 -15.0261 L -8.67965 -15.0691 L -8.68398 -15.1121 L -8.68831 -15.1551 L -8.69262 -15.1981 L -8.69692 -15.241 L -8.70122 -15.284 L -8.7055 -15.3269 L -8.70978 -15.3698 L -8.71405 -15.4127 L -8.71831 -15.4556 L -8.72256 -15.4984 L -8.7268 -15.5413 L -8.73104 -15.5841 L -8.73527 -15.6269 L -8.73949 -15.6697 L -8.7437 -15.7125 L -8.7479 -15.7553 L -8.7521 -15.798 L -8.75629 -15.8408 L -8.76047 -15.8835 L -8.76464 -15.9262 L -8.7688 -15.969 L -8.77296 -16.0116 L -8.77711 -16.0543 L -8.78125 -16.097 L -8.78539 -16.1396 L -8.78952 -16.1823 L -8.79364 -16.2249 L -8.79775 -16.2675 L -8.80186 -16.3101 L -8.80595 -16.3527 L -8.81005 -16.3953 L -8.81413 -16.4378 L -8.81821 -16.4804 L -8.82228 -16.5229 L -8.82635 -16.5654 L -8.8304 -16.6079 L -8.83445 -16.6504 L -8.8385 -16.6929 L -8.84254 -16.7354 L -8.84657 -16.7778 L -8.85059 -16.8203 L -8.85461 -16.8627 L -8.85862 -16.9051 L -8.8683 -16.9446 L -8.83335 -16.9628 L -8.79836 -16.981 L -8.76333 -16.9991 L -8.72826 -17.0171 L -8.69316 -17.0351 L -8.65802 -17.053 L -8.62284 -17.0708 L -8.58763 -17.0885 L -8.55238 -17.1062 L -8.51709 -17.1238 L -8.48177 -17.1413 L -8.44641 -17.1588 L -8.41102 -17.1762 L -8.37559 -17.1935 L -8.34012 -17.2107 L -8.30462 -17.2279 L -8.26909 -17.2449 L -8.23352 -17.2619 L -8.19791 -17.2789 L -8.16227 -17.2958 L -8.12659 -17.3125 L -8.09088 -17.3293 L -8.05514 -17.3459 L -8.01936 -17.3625 L -7.98354 -17.379 L -7.9477 -17.3954 L -7.91181 -17.4117 L -7.8759 -17.428 L -7.83995 -17.4442 L -7.80397 -17.4603 L -7.76796 -17.4764 L -7.73191 -17.4924 L -7.63288 -17.5358 L -7.59671 -17.5515 L -7.56051 -17.5671 L -7.52427 -17.5827 L -7.48801 -17.5982 L -7.45171 -17.6136 L -7.41538 -17.6289 L -7.37902 -17.6441 L -7.34263 -17.6593 L -7.3062 -17.6744 L -7.26975 -17.6894 L -7.23326 -17.7044 L -7.19674 -17.7193 L -7.1602 -17.7341 L -7.12362 -17.7488 L -7.08701 -17.7634 L -7.05037 -17.778 L -7.01371 -17.7925 L -6.97701 -17.8069 L -6.94028 -17.8213 L -6.90352 -17.8356 L -6.86674 -17.8497 L -6.82992 -17.8639 L -6.79308 -17.8779 L -6.7562 -17.8919 L -6.7193 -17.9058 L -6.68237 -17.9196 L -6.64541 -17.9333 L -6.60843 -17.947 L -6.57141 -17.9606 L -6.53437 -17.9741 L -6.4973 -17.9875 L -6.4602 -18.0009 L -6.43773 -17.967 L -6.40924 -17.9354 L -6.38074 -17.9037 L -6.35224 -17.872 L -6.32373 -17.8402 L -6.29522 -17.8085 L -6.26671 -17.7767 L -6.23818 -17.745 L -6.20966 -17.7132 L -6.18113 -17.6814 L -6.15259 -17.6496 L -6.12405 -17.6178 L -6.09551 -17.586 L -6.06696 -17.5541 L -6.03841 -17.5223 L -6.00985 -17.4904 L -5.98128 -17.4585 L -5.95271 -17.4266 L -5.92414 -17.3947 L -5.89556 -17.3628 L -5.86698 -17.3308 L -5.83839 -17.2989 L -5.80979 -17.2669 L -5.78119 -17.2349 L -5.75259 -17.2029 L -5.72398 -17.1709 L -5.69537 -17.1389 L -5.66675 -17.1068 L -5.63813 -17.0747 L -5.6095 -17.0427 L -5.58086 -17.0106 L -5.55222 -16.9785 L -5.52358 -16.9463 L -5.49493 -16.9142 L -5.46627 -16.882 L -5.43761 -16.8499 L -5.40895 -16.8177 L -5.38028 -16.7855 L -5.3516 -16.7532 L -5.32292 -16.721 L -5.29423 -16.6887 L -5.26554 -16.6565 L -5.23684 -16.6242 L -5.20814 -16.5919 L -5.17943 -16.5595 L -5.15072 -16.5272 L -5.122 -16.4948 L -5.09327 -16.4625 L -5.06455 -16.4301 L -5.03581 -16.3977 L -5.00707 -16.3652 L -4.97832 -16.3328 L -4.94957 -16.3003 L -4.92081 -16.2678 L -4.89205 -16.2353 L -4.86328 -16.2028 L -4.83451 -16.1703 L -4.80573 -16.1377 L -4.77694 -16.1051 L -4.74815 -16.0725 L -4.71935 -16.0399 L -4.69055 -16.0073 L -4.66174 -15.9746 L -4.63293 -15.9419 L -4.6041 -15.9092 L -4.57528 -15.8765 L -4.54645 -15.8438 L -4.51761 -15.811 L -4.48877 -15.7782 L -4.45992 -15.7454 L -4.43106 -15.7126 L -4.4022 -15.6798 L -4.37333 -15.6469 L -4.34446 -15.614 L -4.31558 -15.5811 L -4.2867 -15.5482 L -4.2578 -15.5153 L -4.22891 -15.4823 L -4.2 -15.4493 L -4.17109 -15.4163 L -4.14218 -15.3832 L -4.11326 -15.3502 L -4.08433 -15.3171 L -4.0554 -15.284 L -4.02646 -15.2509 L -3.99751 -15.2177 L -3.96856 -15.1845 L -3.9396 -15.1513 L -3.91064 -15.1181 L -3.88166 -15.0849 L -3.85269 -15.0516 L -3.8237 -15.0183 L -3.79471 -14.985 L -3.79471 -14.985 L -3.78508 -15.0281 L -3.77543 -15.0712 L -3.76579 -15.1142 L -3.75613 -15.1572 L -3.74647 -15.2003 L -3.7368 -15.2432 L -3.72713 -15.2862 L -3.71745 -15.3291 L -3.70776 -15.372 L -3.69807 -15.4149 L -3.68838 -15.4578 L -3.67868 -15.5006 L -3.66897 -15.5434 L -3.65926 -15.5862 L -3.64954 -15.629 L -3.63982 -15.6718 L -3.63009 -15.7145 L -3.62036 -15.7572 L -3.61062 -15.7999 L -3.60088 -15.8425 L -3.59113 -15.8852 L -3.58138 -15.9278 L -3.57162 -15.9704 L -3.56186 -16.013 L -3.55209 -16.0555 L -3.54232 -16.0981 L -3.53255 -16.1406 L -3.52277 -16.1831 L -3.51298 -16.2255 L -3.50319 -16.268 L -3.4934 -16.3104 L -3.4836 -16.3528 L -3.4738 -16.3952 L -3.46399 -16.4376 L -3.45418 -16.4799 L -3.44437 -16.5223 L -3.43455 -16.5646 L -3.42473 -16.6069 L -3.4149 -16.6492 L -3.40507 -16.6914 L -3.39524 -16.7337 L -3.3854 -16.7759 L -3.37556 -16.8181 L -3.36571 -16.8603 L -3.35586 -16.9024 L -3.34601 -16.9446 L -3.33615 -16.9867 L -3.3263 -17.0288 L -3.31643 -17.0709 L -3.30657 -17.113 L -3.2967 -17.155 L -3.28682 -17.1971 L -3.27695 -17.2391 L -3.26707 -17.2811 L -3.25718 -17.3231 L -3.2473 -17.3651 L -3.23741 -17.407 L -3.22752 -17.449 L -3.21762 -17.4909 L -3.20772 -17.5328 L -3.19782 -17.5747 L -3.18791 -17.6165 L -3.17801 -17.6584 L -3.1681 -17.7002 L -3.15818 -17.7421 L -3.14827 -17.7839 L -3.13835 -17.8257 L -3.12843 -17.8674 L -3.1185 -17.9092 L -3.10857 -17.9509 L -3.09864 -17.9927 L -3.08871 -18.0344 L -3.07878 -18.0761 L -3.06884 -18.1178 L -3.0589 -18.1594 L -3.04896 -18.2011 L -3.03901 -18.2427 L -3.02906 -18.2843 L -3.01911 -18.326 L -3.00916 -18.3675 L -2.9992 -18.4091 L -2.98925 -18.4507 L -2.97929 -18.4922 L -2.96932 -18.5338 L -2.95936 -18.5753 L -2.94939 -18.6168 L -2.93943 -18.6583 L -2.92945 -18.6998 L -2.91948 -18.7412 L -2.90951 -18.7827 L -2.89953 -18.8241 L -2.88955 -18.8656 L -2.8859 -18.906 L -2.84691 -18.9119 L -2.80791 -18.9177 L -2.76891 -18.9235 L -2.72989 -18.9292 L -2.69085 -18.9348 L -2.65181 -18.9403 L -2.61275 -18.9457 L -2.57369 -18.951 L -2.53461 -18.9563 L -2.49552 -18.9615 L -2.45643 -18.9666 L -2.41732 -18.9716 L -2.3782 -18.9766 L -2.33907 -18.9814 L -2.29993 -18.9862 L -2.26078 -18.9909 L -2.22162 -18.9955 L -2.18246 -19.0001 L -2.14328 -19.0045 L -2.10409 -19.0089 L -2.0649 -19.0132 L -2.02569 -19.0174 L -1.98648 -19.0216 L -1.94726 -19.0256 L -1.90803 -19.0296 L -1.86879 -19.0335 L -1.82955 -19.0373 L -1.79029 -19.041 L -1.75103 -19.0447 L -1.71176 -19.0482 L -1.67249 -19.0517 L -1.63321 -19.0551 L -1.52544 -19.0641 L -1.48613 -19.0672 L -1.44682 -19.0702 L -1.4075 -19.0731 L -1.36817 -19.076 L -1.32884 -19.0788 L -1.2895 -19.0815 L -1.25016 -19.0841 L -1.21081 -19.0866 L -1.17146 -19.0891 L -1.1321 -19.0915 L -1.09274 -19.0938 L -1.05337 -19.096 L -1.014 -19.0981 L -0.974619 -19.1002 L -0.935238 -19.1021 L -0.895853 -19.104 L -0.856464 -19.1058 L -0.817072 -19.1075 L -0.777676 -19.1092 L -0.738277 -19.1107 L -0.698875 -19.1122 L -0.65947 -19.1136 L -0.620062 -19.1149 L -0.580651 -19.1162 L -0.541238 -19.1173 L -0.501822 -19.1184 L -0.462405 -19.1194 L -0.422985 -19.1203 L -0.383564 -19.1212 L -0.344141 -19.1219 L -0.304716 -19.1226 L -0.265291 -19.1232 L -0.25503 -19.0839 L -0.238369 -19.0446 L -0.221707 -19.0054 L -0.205045 -18.9662 L -0.188382 -18.9269 L -0.17172 -18.8876 L -0.155058 -18.8484 L -0.138395 -18.809 L -0.121732 -18.7697 L -0.10507 -18.7304 L -0.0884066 -18.6911 L -0.0717437 -18.6517 L -0.0550807 -18.6123 L -0.0384176 -18.5729 L -0.0217546 -18.5335 L -0.00509148 -18.4941 L 0.0115716 -18.4547 L 0.0282347 -18.4152 L 0.0448978 -18.3758 L 0.0615608 -18.3363 L 0.0782238 -18.2968 L 0.0948867 -18.2573 L 0.111549 -18.2178 L 0.128212 -18.1782 L 0.144875 -18.1387 L 0.161537 -18.0991 L 0.1782 -18.0595 L 0.194862 -18.0199 L 0.211524 -17.9803 L 0.228186 -17.9406 L 0.244847 -17.901 L 0.261509 -17.8613 L 0.27817 -17.8216 L 0.294831 -17.7819 L 0.311491 -17.7422 L 0.328152 -17.7025 L 0.344812 -17.6627 L 0.361471 -17.6229 L 0.378131 -17.5832 L 0.394789 -17.5434 L 0.411448 -17.5035 L 0.428106 -17.4637 L 0.444764 -17.4238 L 0.461421 -17.384 L 0.478078 -17.3441 L 0.494734 -17.3041 L 0.51139 -17.2642 L 0.528045 -17.2243 L 0.544699 -17.1843 L 0.561353 -17.1443 L 0.578007 -17.1043 L 0.59466 -17.0643 L 0.611312 -17.0242 L 0.627963 -16.9842 L 0.644614 -16.9441 L 0.661264 -16.904 L 0.677913 -16.8639 L 0.694561 -16.8237 L 0.711209 -16.7836 L 0.727856 -16.7434 L 0.744502 -16.7032 L 0.761146 -16.663 L 0.777791 -16.6227 L 0.794434 -16.5825 L 0.811076 -16.5422 L 0.827717 -16.5019 L 0.844357 -16.4615 L 0.860996 -16.4212 L 0.877633 -16.3808 L 0.89427 -16.3404 L 0.910905 -16.3 L 0.92754 -16.2596 L 0.944173 -16.2191 L 0.960804 -16.1787 L 0.977435 -16.1382 L 0.994064 -16.0976 L 1.01069 -16.0571 L 1.02732 -16.0165 L 1.04394 -15.9759 L 1.06057 -15.9353 L 1.07719 -15.8947 L 1.09381 -15.854 L 1.11043 -15.8134 L 1.12704 -15.7727 L 1.14366 -15.7319 L 1.16027 -15.6912 L 1.17688 -15.6504 L 1.19349 -15.6096 L 1.2101 -15.5688 L 1.22671 -15.5279 L 1.24331 -15.487 L 1.25991 -15.4461 L 1.27651 -15.4052 L 1.27651 -15.4052 L 1.29962 -15.4428 L 1.32273 -15.4805 L 1.34583 -15.518 L 1.36894 -15.5556 L 1.39204 -15.5931 L 1.41514 -15.6307 L 1.43824 -15.6681 L 1.46133 -15.7056 L 1.48442 -15.743 L 1.50751 -15.7805 L 1.5306 -15.8179 L 1.55369 -15.8552 L 1.57677 -15.8926 L 1.59985 -15.9299 L 1.62293 -15.9672 L 1.64601 -16.0045 L 1.66908 -16.0417 L 1.69215 -16.0789 L 1.71522 -16.1162 L 1.73829 -16.1533 L 1.76135 -16.1905 L 1.78441 -16.2276 L 1.80747 -16.2648 L 1.83053 -16.3019 L 1.85359 -16.3389 L 1.87664 -16.376 L 1.89969 -16.413 L 1.92274 -16.4501 L 1.94578 -16.4871 L 1.96883 -16.524 L 1.99187 -16.561 L 2.01491 -16.5979 L 2.03794 -16.6348 L 2.06097 -16.6717 L 2.08401 -16.7086 L 2.10703 -16.7454 L 2.13006 -16.7823 L 2.15308 -16.8191 L 2.1761 -16.8559 L 2.19912 -16.8927 L 2.22214 -16.9294 L 2.24515 -16.9662 L 2.26816 -17.0029 L 2.29117 -17.0396 L 2.31418 -17.0763 L 2.33718 -17.1129 L 2.36018 -17.1496 L 2.38318 -17.1862 L 2.40618 -17.2228 L 2.42917 -17.2594 L 2.45216 -17.296 L 2.47515 -17.3325 L 2.49814 -17.3691 L 2.52112 -17.4056 L 2.5441 -17.4421 L 2.56708 -17.4786 L 2.59006 -17.515 L 2.61303 -17.5515 L 2.636 -17.5879 L 2.65897 -17.6244 L 2.68193 -17.6608 L 2.7049 -17.6971 L 2.72786 -17.7335 L 2.75082 -17.7699 L 2.77377 -17.8062 L 2.79673 -17.8425 L 2.81968 -17.8788 L 2.84263 -17.9151 L 2.86557 -17.9514 L 2.88852 -17.9877 L 2.91146 -18.0239 L 2.9344 -18.0601 L 2.95733 -18.0963 L 2.98027 -18.1325 L 3.0032 -18.1687 L 3.02613 -18.2049 L 3.04905 -18.241 L 3.07198 -18.2772 L 3.0949 -18.3133 L 3.11782 -18.3494 L 3.14073 -18.3855 L 3.16365 -18.4216 L 3.18656 -18.4577 L 3.20947 -18.4937 L 3.23238 -18.5297 L 3.25528 -18.5658 L 3.27818 -18.6018 L 3.30108 -18.6378 L 3.32398 -18.6737 L 3.34687 -18.7097 L 3.36976 -18.7457 L 3.39265 -18.7816 L 3.40924 -18.8187 L 3.44803 -18.8116 L 3.48681 -18.8045 L 3.52557 -18.7972 L 3.56432 -18.7899 L 3.60305 -18.7825 L 3.64177 -18.7751 L 3.68047 -18.7675 L 3.71915 -18.7599 L 3.75782 -18.7522 L 3.79647 -18.7444 L 3.83511 -18.7365 L 3.87373 -18.7286 L 3.91234 -18.7206 L 3.95093 -18.7125 L 3.9895 -18.7043 L 4.02805 -18.696 L 4.06659 -18.6877 L 4.10511 -18.6792 L 4.14361 -18.6707 L 4.18209 -18.6621 L 4.22056 -18.6535 L 4.25901 -18.6447 L 4.29744 -18.6359 L 4.33585 -18.627 L 4.37425 -18.618 L 4.41262 -18.609 L 4.45098 -18.5998 L 4.48932 -18.5906 L 4.52764 -18.5813 L 4.56594 -18.572 L 4.60422 -18.5625 L 4.64248 -18.553 L 4.7473 -18.5264 L 4.78549 -18.5166 L 4.82366 -18.5067 L 4.8618 -18.4967 L 4.89993 -18.4867 L 4.93803 -18.4765 L 4.97611 -18.4663 L 5.01417 -18.456 L 5.05221 -18.4456 L 5.09023 -18.4352 L 5.12823 -18.4246 L 5.1662 -18.414 L 5.20416 -18.4033 L 5.24209 -18.3926 L 5.28 -18.3817 L 5.31788 -18.3708 L 5.35575 -18.3598 L 5.39359 -18.3487 L 5.43141 -18.3375 L 5.4692 -18.3263 L 5.50697 -18.315 L 5.54472 -18.3036 L 5.58245 -18.2921 L 5.62015 -18.2806 L 5.65783 -18.269 L 5.69548 -18.2572 L 5.73311 -18.2455 L 5.77071 -18.2336 L 5.80829 -18.2217 L 5.84585 -18.2097 L 5.88338 -18.1976 L 5.92088 -18.1854 L 5.95836 -18.1732 L 5.95531 -18.1327 L 5.95833 -18.0902 L 5.96135 -18.0476 L 5.96437 -18.0051 L 5.96738 -17.9626 L 5.97039 -17.92 L 5.97339 -17.8774 L 5.97639 -17.8349 L 5.97939 -17.7923 L 5.98238 -17.7497 L 5.98536 -17.707 L 5.98834 -17.6644 L 5.99132 -17.6217 L 5.99429 -17.5791 L 5.99725 -17.5364 L 6.00021 -17.4937 L 6.00317 -17.451 L 6.00612 -17.4083 L 6.00907 -17.3655 L 6.01201 -17.3228 L 6.01495 -17.28 L 6.01788 -17.2373 L 6.0208 -17.1945 L 6.02373 -17.1516 L 6.02664 -17.1088 L 6.02955 -17.066 L 6.03246 -17.0231 L 6.03536 -16.9803 L 6.03825 -16.9374 L 6.04114 -16.8945 L 6.04402 -16.8516 L 6.0469 -16.8086 L 6.04977 -16.7657 L 6.05264 -16.7227 L 6.0555 -16.6797 L 6.05836 -16.6368 L 6.0612 -16.5937 L 6.06405 -16.5507 L 6.06689 -16.5077 L 6.06972 -16.4646 L 6.07254 -16.4215 L 6.07536 -16.3785 L 6.07817 -16.3353 L 6.08098 -16.2922 L 6.08378 -16.2491 L 6.08657 -16.2059 L 6.08936 -16.1627 L 6.09214 -16.1195 L 6.09492 -16.0763 L 6.09769 -16.0331 L 6.10045 -15.9899 L 6.1032 -15.9466 L 6.10595 -15.9033 L 6.10869 -15.86 L 6.11142 -15.8167 L 6.11415 -15.7734 L 6.11687 -15.73 L 6.11958 -15.6866 L 6.12229 -15.6433 L 6.12499 -15.5998 L 6.12768 -15.5564 L 6.13036 -15.513 L 6.13303 -15.4695 L 6.1357 -15.426 L 6.13836 -15.3825 L 6.14102 -15.339 L 6.14366 -15.2954 L 6.1463 -15.2519 L 6.14893 -15.2083 L 6.15155 -15.1647 L 6.15416 -15.1211 L 6.15677 -15.0774 L 6.15936 -15.0338 L 6.16195 -14.9901 L 6.16453 -14.9464 L 6.1671 -14.9027 L 6.16966 -14.8589 L 6.17222 -14.8151 L 6.17476 -14.7714 L 6.1773 -14.7276 L 6.17982 -14.6837 L 6.18234 -14.6399 L 6.18485 -14.596 L 6.18735 -14.5521 L 6.18984 -14.5082 L 6.19232 -14.4642 L 6.19479 -14.4203 L 6.19725 -14.3763 L 6.1997 -14.3323 L 6.20214 -14.2883 L 6.20458 -14.2442 L 6.207 -14.2001 L 6.20941 -14.156 L 6.20941 -14.156 L 6.24349 -14.1841 L 6.27755 -14.2122 L 6.31161 -14.2402 L 6.34566 -14.2683 L 6.3797 -14.2963 L 6.41373 -14.3242 L 6.44774 -14.3522 L 6.48175 -14.3801 L 6.51575 -14.408 L 6.54974 -14.4359 L 6.58372 -14.4638 L 6.61768 -14.4917 L 6.65164 -14.5195 L 6.68559 -14.5473 L 6.71953 -14.5751 L 6.75346 -14.6028 L 6.78738 -14.6306 L 6.82129 -14.6583 L 6.85519 -14.686 L 6.88908 -14.7137 L 6.92297 -14.7413 L 6.95684 -14.769 L 6.9907 -14.7966 L 7.02456 -14.8242 L 7.0584 -14.8518 L 7.09224 -14.8794 L 7.12607 -14.9069 L 7.15988 -14.9344 L 7.19369 -14.9619 L 7.22749 -14.9894 L 7.26128 -15.0169 L 7.29507 -15.0444 L 7.32884 -15.0718 L 7.3626 -15.0992 L 7.39636 -15.1266 L 7.43011 -15.154 L 7.46384 -15.1813 L 7.49757 -15.2087 L 7.53129 -15.236 L 7.56501 -15.2633 L 7.59871 -15.2906 L 7.63241 -15.3179 L 7.66609 -15.3451 L 7.69977 -15.3724 L 7.73344 -15.3996 L 7.7671 -15.4268 L 7.80076 -15.454 L 7.8344 -15.4812 L 7.86804 -15.5083 L 7.90167 -15.5355 L 7.93529 -15.5626 L 7.9689 -15.5897 L 8.00251 -15.6168 L 8.0361 -15.6439 L 8.06969 -15.671 L 8.10327 -15.698 L 8.13685 -15.725 L 8.17041 -15.7521 L 8.20397 -15.7791 L 8.23752 -15.8061 L 8.27106 -15.833 L 8.30459 -15.86 L 8.33812 -15.8869 L 8.37164 -15.9139 L 8.40515 -15.9408 L 8.43865 -15.9677 L 8.47215 -15.9946 L 8.50564 -16.0214 L 8.53912 -16.0483 L 8.57259 -16.0751 L 8.60606 -16.102 L 8.63952 -16.1288 L 8.67297 -16.1556 L 8.70641 -16.1824 L 8.73985 -16.2092 L 8.77328 -16.2359 L 8.8067 -16.2627 L 8.84012 -16.2894 L 8.87353 -16.3161 L 8.90693 -16.3428 L 8.94033 -16.3695 L 8.97371 -16.3962 L 9.00709 -16.4229 L 9.04047 -16.4496 L 9.07383 -16.4762 L 9.10719 -16.5028 L 9.14055 -16.5295 L 9.17389 -16.5561 L 9.20723 -16.5827 L 9.24056 -16.6092 L 9.27389 -16.6358 L 9.30721 -16.6624 L 9.33493 -16.6921 L 9.36933 -16.6728 L 9.40368 -16.6534 L 9.438 -16.634 L 9.47227 -16.6145 L 9.50651 -16.5949 L 9.5407 -16.5753 L 9.57485 -16.5556 L 9.60896 -16.5358 L 9.64304 -16.516 L 9.67707 -16.4961 L 9.71106 -16.4761 L 9.745 -16.456 L 9.77891 -16.4359 L 9.81278 -16.4157 L 9.8466 -16.3954 L 9.88038 -16.3751 L 9.91412 -16.3547 L 9.94782 -16.3342 L 9.98147 -16.3137 L 10.0151 -16.2931 L 10.0487 -16.2724 L 10.0822 -16.2516 L 10.1157 -16.2308 L 10.1491 -16.2099 L 10.1825 -16.189 L 10.2159 -16.1679 L 10.2492 -16.1468 L 10.2824 -16.1257 L 10.3157 -16.1044 L 10.3488 -16.0831 L 10.382 -16.0618 L 10.4151 -16.0403 L 10.5056 -15.9812 L 10.5385 -15.9595 L 10.5714 -15.9377 L 10.6042 -15.9159 L 10.637 -15.894 L 10.6698 -15.872 L 10.7025 -15.85 L 10.7351 -15.8279 L 10.7678 -15.8057 L 10.8003 -15.7835 L 10.8328 -15.7612 L 10.8653 -15.7388 L 10.8977 -15.7164 L 10.9301 -15.6939 L 10.9624 -15.6713 L 10.9947 -15.6487 L 11.027 -15.626 L 11.0592 -15.6032 L 11.0913 -15.5804 L 11.1234 -15.5575 L 11.1555 -15.5345 L 11.1875 -15.5115 L 11.2194 -15.4884 L 11.2513 -15.4652 L 11.2832 -15.442 L 11.315 -15.4187 L 11.3468 -15.3953 L 11.3785 -15.3719 L 11.4102 -15.3484 L 11.4418 -15.3249 L 11.4733 -15.3012 L 11.5049 -15.2776 L 11.5363 -15.2538 L 11.5203 -15.2165 L 11.5094 -15.1753 L 11.4984 -15.1341 L 11.4875 -15.0929 L 11.4765 -15.0517 L 11.4655 -15.0105 L 11.4545 -14.9692 L 11.4435 -14.928 L 11.4325 -14.8867 L 11.4215 -14.8455 L 11.4105 -14.8042 L 11.3995 -14.7629 L 11.3885 -14.7216 L 11.3774 -14.6803 L 11.3664 -14.6389 L 11.3553 -14.5976 L 11.3442 -14.5562 L 11.3332 -14.5149 L 11.3221 -14.4735 L 11.311 -14.4321 L 11.2999 -14.3907 L 11.2887 -14.3493 L 11.2776 -14.3079 L 11.2665 -14.2664 L 11.2553 -14.225 L 11.2442 -14.1835 L 11.233 -14.142 L 11.2218 -14.1005 L 11.2106 -14.059 L 11.1994 -14.0175 L 11.1882 -13.976 L 11.177 -13.9345 L 11.1658 -13.8929 L 11.1546 -13.8514 L 11.1433 -13.8098 L 11.132 -13.7682 L 11.1208 -13.7266 L 11.1095 -13.685 L 11.0982 -13.6433 L 11.0869 -13.6017 L 11.0756 -13.56 L 11.0643 -13.5184 L 11.0529 -13.4767 L 11.0416 -13.435 L 11.0302 -13.3933 L 11.0188 -13.3515 L 11.0075 -13.3098 L 10.9961 -13.268 L 10.9847 -13.2263 L 10.9732 -13.1845 L 10.9618 -13.1427 L 10.9504 -13.1009 L 10.9389 -13.059 L 10.9274 -13.0172 L 10.916 -12.9753 L 10.9045 -12.9335 L 10.893 -12.8916 L 10.8815 -12.8497 L 10.8699 -12.8078 L 10.8584 -12.7658 L 10.8468 -12.7239 L 10.8353 -12.6819 L 10.8237 -12.6399 L 10.8121 -12.5979 L 10.8005 -12.5559 L 10.7888 -12.5139 L 10.7772 -12.4719 L 10.7656 -12.4298 L 10.7539 -12.3877 L 10.7422 -12.3456 L 10.7305 -12.3035 L 10.7188 -12.2614 L 10.7071 -12.2193 L 10.6954 -12.1771 L 10.6836 -12.1349 L 10.6718 -12.0927 L 10.6601 -12.0505 L 10.6483 -12.0083 L 10.6364 -11.9661 L 10.6246 -11.9238 L 10.6128 -11.8815 L 10.6009 -11.8392 L 10.589 -11.7969 L 10.5772 -11.7546 L 10.5653 -11.7123 L 10.5533 -11.6699 L 10.5414 -11.6275 L 10.5294 -11.5851 L 10.5175 -11.5427 L 10.5055 -11.5002 L 10.4935 -11.4578 L 10.4815 -11.4153 L 10.4694 -11.3728 L 10.4694 -11.3728 L 10.5108 -11.3883 L 10.5521 -11.4038 L 10.5934 -11.4193 L 10.6347 -11.4347 L 10.676 -11.4502 L 10.7173 -11.4656 L 10.7585 -11.481 L 10.7998 -11.4964 L 10.841 -11.5117 L 10.8822 -11.5271 L 10.9234 -11.5424 L 10.9646 -11.5577 L 11.0057 -11.573 L 11.0468 -11.5883 L 11.088 -11.6035 L 11.1291 -11.6188 L 11.1702 -11.634 L 11.2112 -11.6492 L 11.2523 -11.6644 L 11.2933 -11.6796 L 11.3344 -11.6947 L 11.3754 -11.7099 L 11.4164 -11.725 L 11.4574 -11.7401 L 11.4983 -11.7552 L 11.5393 -11.7703 L 11.5802 -11.7854 L 11.6211 -11.8004 L 11.6621 -11.8155 L 11.7029 -11.8305 L 11.7438 -11.8455 L 11.7847 -11.8605 L 11.8255 -11.8755 L 11.8664 -11.8905 L 11.9072 -11.9054 L 11.948 -11.9203 L 11.9888 -11.9353 L 12.0296 -11.9502 L 12.0704 -11.9651 L 12.1111 -11.98 L 12.1518 -11.9948 L 12.1926 -12.0097 L 12.2333 -12.0245 L 12.274 -12.0394 L 12.3147 -12.0542 L 12.3553 -12.069 L 12.396 -12.0838 L 12.4366 -12.0985 L 12.4773 -12.1133 L 12.5179 -12.1281 L 12.5585 -12.1428 L 12.5991 -12.1575 L 12.6397 -12.1722 L 12.6803 -12.187 L 12.7208 -12.2016 L 12.7614 -12.2163 L 12.8019 -12.231 L 12.8424 -12.2456 L 12.8829 -12.2603 L 12.9234 -12.2749 L 12.9639 -12.2895 L 13.0044 -12.3042 L 13.0448 -12.3188 L 13.0853 -12.3333 L 13.1257 -12.3479 L 13.1661 -12.3625 L 13.2065 -12.377 L 13.2469 -12.3916 L 13.2873 -12.4061 L 13.3277 -12.4206 L 13.3681 -12.4351 L 13.4084 -12.4496 L 13.4488 -12.4641 L 13.4891 -12.4786 L 13.5294 -12.4931 L 13.5697 -12.5075 L 13.61 -12.522 L 13.6503 -12.5364 L 13.6906 -12.5508 L 13.7308 -12.5653 L 13.7711 -12.5797 L 13.8113 -12.5941 L 13.8516 -12.6085 L 13.8918 -12.6228 L 13.932 -12.6372 L 13.9722 -12.6516 L 14.0124 -12.6659 L 14.0526 -12.6803 L 14.0927 -12.6946 L 14.1329 -12.7089 L 14.173 -12.7232 L 14.2132 -12.7375 L 14.249 -12.7566 L 14.2753 -12.7272 L 14.3015 -12.6977 L 14.3277 -12.6682 L 14.3538 -12.6386 L 14.3798 -12.609 L 14.4058 -12.5793 L 14.4317 -12.5496 L 14.4575 -12.5198 L 14.4833 -12.49 L 14.509 -12.4601 L 14.5347 -12.4302 L 14.5603 -12.4002 L 14.5858 -12.3701 L 14.6113 -12.34 L 14.6367 -12.3099 L 14.662 -12.2797 L 14.6873 -12.2494 L 14.7125 -12.2191 L 14.7377 -12.1888 L 14.7628 -12.1584 L 14.7878 -12.1279 L 14.8128 -12.0974 L 14.8377 -12.0668 L 14.8626 -12.0362 L 14.8873 -12.0055 L 14.9121 -11.9748 L 14.9367 -11.944 L 14.9613 -11.9132 L 14.9858 -11.8824 L 15.0103 -11.8514 L 15.0347 -11.8205 L 15.059 -11.7894 L 15.1255 -11.7041 L 15.1496 -11.6729 L 15.1736 -11.6416 L 15.1976 -11.6103 L 15.2215 -11.579 L 15.2453 -11.5476 L 15.2691 -11.5161 L 15.2928 -11.4846 L 15.3164 -11.453 L 15.34 -11.4214 L 15.3635 -11.3898 L 15.387 -11.3581 L 15.4104 -11.3263 L 15.4337 -11.2946 L 15.4569 -11.2627 L 15.4801 -11.2308 L 15.5032 -11.1989 L 15.5263 -11.1669 L 15.5493 -11.1349 L 15.5722 -11.1028 L 15.5951 -11.0706 L 15.6179 -11.0385 L 15.6406 -11.0062 L 15.6633 -10.974 L 15.6858 -10.9417 L 15.7084 -10.9093 L 15.7308 -10.8769 L 15.7532 -10.8444 L 15.7755 -10.8119 L 15.7978 -10.7794 L 15.82 -10.7468 L 15.8421 -10.7142 L 15.8642 -10.6815 L 15.8369 -10.6514 L 15.8132 -10.616 L 15.7894 -10.5806 L 15.7657 -10.5452 L 15.7419 -10.5097 L 15.7182 -10.4743 L 15.6944 -10.4389 L 15.6706 -10.4034 L 15.6468 -10.368 L 15.623 -10.3325 L 15.5992 -10.2971 L 15.5753 -10.2616 L 15.5515 -10.2261 L 15.5276 -10.1906 L 15.5038 -10.1551 L 15.4799 -10.1196 L 15.456 -10.0841 L 15.4321 -10.0485 L 15.4081 -10.013 L 15.3842 -9.97747 L 15.3603 -9.94192 L 15.3363 -9.90636 L 15.3123 -9.87079 L 15.2883 -9.83521 L 15.2643 -9.79963 L 15.2403 -9.76403 L 15.2163 -9.72843 L 15.1922 -9.69282 L 15.1682 -9.6572 L 15.1441 -9.62157 L 15.12 -9.58594 L 15.0959 -9.55029 L 15.0718 -9.51464 L 15.0477 -9.47897 L 15.0236 -9.4433 L 14.9994 -9.40762 L 14.9752 -9.37193 L 14.951 -9.33623 L 14.9269 -9.30052 L 14.9026 -9.2648 L 14.8784 -9.22907 L 14.8542 -9.19334 L 14.8299 -9.15759 L 14.8056 -9.12183 L 14.7813 -9.08607 L 14.757 -9.0503 L 14.7327 -9.01451 L 14.7084 -8.97872 L 14.684 -8.94291 L 14.6597 -8.9071 L 14.6353 -8.87128 L 14.6109 -8.83545 L 14.5865 -8.7996 L 14.562 -8.76375 L 14.5376 -8.72789 L 14.5131 -8.69202 L 14.4886 -8.65613 L 14.4641 -8.62024 L 14.4396 -8.58434 L 14.4151 -8.54842 L 14.3905 -8.5125 L 14.366 -8.47657 L 14.3414 -8.44062 L 14.3168 -8.40467 L 14.2922 -8.3687 L 14.2675 -8.33273 L 14.2429 -8.29674 L 14.2182 -8.26075 L 14.1935 -8.22474 L 14.1688 -8.18872 L 14.1441 -8.15269 L 14.1193 -8.11665 L 14.0945 -8.0806 L 14.0697 -8.04454 L 14.0449 -8.00847 L 14.0201 -7.97238 L 13.9953 -7.93629 L 13.9704 -7.90018 L 13.9455 -7.86406 L 13.9206 -7.82793 L 13.8957 -7.79179 L 13.8707 -7.75564 L 13.8458 -7.71948 L 13.8208 -7.6833 L 13.7958 -7.64712 L 13.7707 -7.61092 L 13.7457 -7.57471 L 13.7206 -7.53849 L 13.6955 -7.50225 L 13.6704 -7.46601 L 13.6453 -7.42975 L 13.6201 -7.39348 L 13.5949 -7.35719 L 13.5949 -7.35719 L 13.6391 -7.35843 L 13.6832 -7.35966 L 13.7273 -7.36088 L 13.7714 -7.36208 L 13.8154 -7.36327 L 13.8595 -7.36445 L 13.9035 -7.36562 L 13.9475 -7.36677 L 13.9914 -7.36792 L 14.0354 -7.36905 L 14.0793 -7.37018 L 14.1232 -7.37129 L 14.1671 -7.37239 L 14.211 -7.37348 L 14.2549 -7.37456 L 14.2987 -7.37563 L 14.3425 -7.37669 L 14.3863 -7.37774 L 14.43 -7.37878 L 14.4738 -7.3798 L 14.5175 -7.38082 L 14.5612 -7.38183 L 14.6049 -7.38283 L 14.6486 -7.38382 L 14.6922 -7.3848 L 14.7359 -7.38577 L 14.7795 -7.38673 L 14.8231 -7.38768 L 14.8666 -7.38862 L 14.9102 -7.38955 L 14.9537 -7.39047 L 14.9973 -7.39139 L 15.0408 -7.39229 L 15.0842 -7.39319 L 15.1277 -7.39407 L 15.1712 -7.39495 L 15.2146 -7.39582 L 15.258 -7.39668 L 15.3014 -7.39753 L 15.3448 -7.39838 L 15.3881 -7.39922 L 15.4315 -7.40004 L 15.4748 -7.40086 L 15.5181 -7.40167 L 15.5614 -7.40248 L 15.6047 -7.40327 L 15.6479 -7.40406 L 15.6912 -7.40484 L 15.7344 -7.40561 L 15.7776 -7.40638 L 15.8208 -7.40713 L 15.864 -7.40788 L 15.9072 -7.40862 L 15.9503 -7.40936 L 15.9934 -7.41008 L 16.0365 -7.4108 L 16.0796 -7.41152 L 16.1227 -7.41222 L 16.1658 -7.41292 L 16.2088 -7.41361 L 16.2519 -7.41429 L 16.2949 -7.41497 L 16.3379 -7.41564 L 16.3809 -7.41631 L 16.4239 -7.41696 L 16.4668 -7.41761 L 16.5098 -7.41826 L 16.5527 -7.41889 L 16.5956 -7.41952 L 16.6385 -7.42015 L 16.6814 -7.42076 L 16.7243 -7.42138 L 16.7672 -7.42198 L 16.81 -7.42258 L 16.8528 -7.42317 L 16.8957 -7.42376 L 16.9385 -7.42434 L 16.9813 -7.42491 L 17.024 -7.42548 L 17.0668 -7.42605 L 17.1095 -7.4266 L 17.1523 -7.42715 L 17.195 -7.4277 L 17.2377 -7.42824 L 17.2804 -7.42877 L 17.3231 -7.4293 L 17.3658 -7.42982 L 17.4084 -7.43034 L 17.4511 -7.43085 L 17.4937 -7.43136 L 17.5363 -7.43186 L 17.5789 -7.43235 L 17.619 -7.43874 L 17.6343 -7.4024 L 17.6496 -7.36603 L 17.6647 -7.32962 L 17.6798 -7.29319 L 17.6948 -7.25672 L 17.7097 -7.22022 L 17.7246 -7.1837 L 17.7393 -7.14714 L 17.754 -7.11055 L 17.7687 -7.07393 L 17.7832 -7.03728 L 17.7977 -7.0006 L 17.8121 -6.9639 L 17.8264 -6.92716 L 17.8406 -6.89039 L 17.8548 -6.85359 L 17.8689 -6.81677 L 17.8829 -6.77991 L 17.8968 -6.74303 L 17.9107 -6.70612 L 17.9245 -6.66918 L 17.9382 -6.63221 L 17.9518 -6.59521 L 17.9654 -6.55818 L 17.9789 -6.52113 L 17.9923 -6.48405 L 18.0056 -6.44694 L 18.0189 -6.40981 L 18.0321 -6.37264 L 18.0452 -6.33545 L 18.0582 -6.29823 L 18.0711 -6.26099 L 18.1062 -6.15871 L 18.1189 -6.12137 L 18.1315 -6.084 L 18.144 -6.04661 L 18.1564 -6.00919 L 18.1688 -5.97174 L 18.181 -5.93427 L 18.1932 -5.89677 L 18.2054 -5.85925 L 18.2174 -5.82171 L 18.2294 -5.78413 L 18.2412 -5.74654 L 18.2531 -5.70892 L 18.2648 -5.67127 L 18.2764 -5.63361 L 18.288 -5.59591 L 18.2995 -5.5582 L 18.3109 -5.52046 L 18.3223 -5.48269 L 18.3335 -5.44491 L 18.3447 -5.4071 L 18.3558 -5.36926 L 18.3669 -5.33141 L 18.3778 -5.29353 L 18.3887 -5.25563 L 18.3995 -5.21771 L 18.4102 -5.17976 L 18.4208 -5.14179 L 18.4314 -5.1038 L 18.4419 -5.06579 L 18.4523 -5.02776 L 18.4626 -4.98971 L 18.4729 -4.95163 L 18.4373 -4.93204 L 18.4034 -4.90626 L 18.3694 -4.88048 L 18.3355 -4.85469 L 18.3015 -4.8289 L 18.2675 -4.80311 L 18.2335 -4.77731 L 18.1995 -4.75151 L 18.1655 -4.7257 L 18.1315 -4.6999 L 18.0974 -4.67409 L 18.0634 -4.64827 L 18.0293 -4.62245 L 17.9952 -4.59663 L 17.9611 -4.5708 L 17.927 -4.54497 L 17.8928 -4.51914 L 17.8587 -4.4933 L 17.8245 -4.46746 L 17.7903 -4.44162 L 17.7561 -4.41577 L 17.7219 -4.38992 L 17.6877 -4.36406 L 17.6535 -4.3382 L 17.6192 -4.31234 L 17.5849 -4.28647 L 17.5506 -4.2606 L 17.5163 -4.23473 L 17.482 -4.20885 L 17.4477 -4.18296 L 17.4133 -4.15708 L 17.379 -4.13119 L 17.3446 -4.1053 L 17.3102 -4.0794 L 17.2758 -4.0535 L 17.2413 -4.02759 L 17.2069 -4.00168 L 17.1724 -3.97577 L 17.1379 -3.94985 L 17.1034 -3.92393 L 17.0689 -3.898 L 17.0344 -3.87208 L 16.9998 -3.84614 L 16.9653 -3.82021 L 16.9307 -3.79427 L 16.8961 -3.76832 L 16.8615 -3.74237 L 16.8268 -3.71642 L 16.7922 -3.69046 L 16.7575 -3.6645 L 16.7228 -3.63854 L 16.6881 -3.61257 L 16.6534 -3.5866 L 16.6186 -3.56062 L 16.5838 -3.53464 L 16.5491 -3.50865 L 16.5143 -3.48266 L 16.4794 -3.45667 L 16.4446 -3.43067 L 16.4097 -3.40467 L 16.3748 -3.37867 L 16.3399 -3.35266 L 16.305 -3.32665 L 16.2701 -3.30063 L 16.2351 -3.27461 L 16.2001 -3.24858 L 16.1651 -3.22255 L 16.1301 -3.19652 L 16.095 -3.17048 L 16.06 -3.14444 L 16.0249 -3.11839 L 15.9898 -3.09234 L 15.9546 -3.06628 L 15.9195 -3.04022 L 15.8843 -3.01416 L 15.8491 -2.98809 L 15.8139 -2.96202 L 15.7786 -2.93595 L 15.7434 -2.90987 L 15.7081 -2.88378 L 15.6728 -2.85769 L 15.6374 -2.8316 L 15.6021 -2.8055 L 15.5667 -2.7794 L 15.5313 -2.7533 L 15.4959 -2.72719 L 15.4604 -2.70107 L 15.4249 -2.67496 L 15.3894 -2.64883 L 15.3539 -2.62271 L 15.3183 -2.59658 L 15.2828 -2.57044 L 15.2472 -2.5443 L 15.2472 -2.5443 L 15.2893 -2.53114 L 15.3315 -2.51797 L 15.3736 -2.5048 L 15.4157 -2.49163 L 15.4577 -2.47845 L 15.4998 -2.46526 L 15.5418 -2.45207 L 15.5838 -2.43888 L 15.6257 -2.42569 L 15.6677 -2.41249 L 15.7096 -2.39929 L 15.7515 -2.38608 L 15.7933 -2.37287 L 15.8352 -2.35966 L 15.877 -2.34644 L 15.9188 -2.33322 L 15.9606 -2.32 L 16.0023 -2.30678 L 16.0441 -2.29355 L 16.0858 -2.28031 L 16.1275 -2.26708 L 16.1691 -2.25384 L 16.2108 -2.2406 L 16.2524 -2.22735 L 16.294 -2.21411 L 16.3356 -2.20086 L 16.3772 -2.1876 L 16.4187 -2.17435 L 16.4602 -2.16109 L 16.5017 -2.14783 L 16.5432 -2.13456 L 16.5846 -2.1213 L 16.6261 -2.10803 L 16.6675 -2.09476 L 16.7089 -2.08148 L 16.7503 -2.0682 L 16.7916 -2.05493 L 16.833 -2.04164 L 16.8743 -2.02836 L 16.9156 -2.01507 L 16.9569 -2.00179 L 16.9981 -1.98849 L 17.0394 -1.9752 L 17.0806 -1.96191 L 17.1218 -1.94861 L 17.163 -1.93531 L 17.2042 -1.92201 L 17.2453 -1.90871 L 17.2865 -1.8954 L 17.3276 -1.88209 L 17.3687 -1.86878 L 17.4098 -1.85547 L 17.4508 -1.84216 L 17.4919 -1.82884 L 17.5329 -1.81553 L 17.5739 -1.80221 L 17.6149 -1.78889 L 17.6559 -1.77557 L 17.6969 -1.76224 L 17.7378 -1.74892 L 17.7787 -1.73559 L 17.8196 -1.72226 L 17.8605 -1.70893 L 17.9014 -1.6956 L 17.9423 -1.68227 L 17.9831 -1.66893 L 18.0239 -1.6556 L 18.0648 -1.64226 L 18.1055 -1.62892 L 18.1463 -1.61558 L 18.1871 -1.60224 L 18.2278 -1.58889 L 18.2686 -1.57555 L 18.3093 -1.5622 L 18.35 -1.54886 L 18.3907 -1.53551 L 18.4314 -1.52216 L 18.472 -1.50881 L 18.5127 -1.49545 L 18.5533 -1.4821 L 18.5939 -1.46875 L 18.6345 -1.45539 L 18.6751 -1.44203 L 18.7157 -1.42868 L 18.7562 -1.41532 L 18.7968 -1.40196 L 18.8373 -1.3886 L 18.8778 -1.37523 L 18.9183 -1.36187 L 18.9588 -1.34851 L 18.9993 -1.33514 L 19.0397 -1.32177 L 19.0798 -1.31479 L 19.0824 -1.27545 L 19.085 -1.23611 L 19.0875 -1.19676 L 19.0899 -1.1574 L 19.0923 -1.11804 L 19.0946 -1.07868 L 19.0967 -1.03931 L 19.0988 -0.999934 L 19.1009 -0.960556 L 19.1028 -0.921174 L 19.1047 -0.881787 L 19.1064 -0.842397 L 19.1081 -0.803004 L 19.1097 -0.763607 L 19.1113 -0.724206 L 19.1127 -0.684803 L 19.1141 -0.645397 L 19.1154 -0.605988 L 19.1166 -0.566576 L 19.1177 -0.527162 L 19.1188 -0.487746 L 19.1197 -0.448328 L 19.1206 -0.408908 L 19.1214 -0.369486 L 19.1222 -0.330062 L 19.1228 -0.290637 L 19.1234 -0.251211 L 19.1238 -0.211784 L 19.1242 -0.172356 L 19.1245 -0.132927 L 19.1248 -0.0934976 L 19.1249 -0.0540678Z"
id="path1" />
</g>
</svg>
