<?xml version="1.0" encoding="UTF-8" standalone="no"?>
<svg version="1.1">
<g
style="fill:none;stroke:#000000;stroke-opacity:1;stroke-width:0.1">
<path d="M 19.6249 0.0646329 L 19.6247 0.102777 L 19.6245 0.14092 L 19.6242 0.179064 L 19.6238 0.217206 L 19.6233 0.255347 L 19.6228 0.293488 L 19.6222 0.331628 L 19.6215 0.369766 L 19.6208 0.407903 L 19.6199 0.446038 L 19.619 0.484172 L 19.618 0.522303 L 19.617 0.560433 L 19.6159 0.598561 L 19.6147 0.636686 L 19.6134 0.674809 L 19.612 0.71293 L 19.6106 0.751048 L 19.6091 0.789162 L 19.6076 0.827274 L 19.6059 0.865383 L 19.6042 0.903489 L 19.6024 0.941591 L 19.6005 0.97969 L 19.5986 1.01778 L 19.5966 1.05588 L 19.5945 1.09396 L 19.5923 1.13205 L 19.5901 1.17012 L 19.5878 1.2082 L 19.5854 1.24627 L 19.5829 1.28433 L 19.5804 1.32239 L 19.5417 1.32855 L 19.5027 1.34073 L 19.4636 1.3529 L 19.4245 1.36508 L 19.3854 1.37725 L 19.3463 1.38942 L 19.3072 1.40159 L 19.268 1.41376 L 19.2289 1.42593 L 19.1897 1.4381 L 19.1506 1.45027 L 19.1114 1.46243 L 19.0722 1.4746 L 19.033 1.48676 L 18.9938 1.49893 L 18.9546 1.51109 L 18.9153 1.52325 L 18.8761 1.53541 L 18.8368 1.54757 L 18.7975 1.55973 L 18.7582 1.57189 L 18.7189 1.58405 L 18.6796 1.5962 L 18.6403 1.60836 L 18.6009 1.62051 L 18.5616 1.63266 L 18.5222 1.64482 L 18.4828 1.65697 L 18.4434 1.66912 L 18.404 1.68126 L 18.3646 1.69341 L 18.3252 1.70556 L 18.2857 1.7177 L 18.2463 1.72984 L 18.2068 1.74198 L 18.1673 1.75412 L 18.1278 1.76626 L 18.0883 1.7784 L 18.0488 1.79054 L 18.0092 1.80267 L 17.9697 1.81481 L 17.9301 1.82694 L 17.8905 1.83907 L 17.8509 1.8512 L 17.8113 1.86333 L 17.7717 1.87545 L 17.732 1.88758 L 17.6924 1.8997 L 17.6527 1.91182 L 17.613 1.92394 L 17.5733 1.93606 L 17.5336 1.94817 L 17.4939 1.96029 L 17.4541 1.9724 L 17.4144 1.98451 L 17.3746 1.99662 L 17.3348 2.00873 L 17.295 2.02084 L 17.2551 2.03294 L 17.2153 2.04504 L 17.1754 2.05714 L 17.1356 2.06924 L 17.0957 2.08134 L 17.0558 2.09343 L 17.0158 2.10553 L 16.9759 2.11762 L 16.9359 2.1297 L 16.896 2.14179 L 16.856 2.15387 L 16.816 2.16596 L 16.776 2.17804 L 16.7359 2.19011 L 16.6959 2.20219 L 16.6558 2.21426 L 16.6157 2.22633 L 16.5756 2.2384 L 16.5354 2.25047 L 16.4953 2.26253 L 16.4551 2.27459 L 16.415 2.28665 L 16.3747 2.2987 L 16.3345 2.31076 L 16.2943 2.32281 L 16.254 2.33486 L 16.2138 2.3469 L 16.1735 2.35894 L 16.1332 2.37098 L 16.0928 2.38302 L 16.0525 2.39505 L 16.0121 2.40709 L 15.9717 2.41911 L 15.9313 2.43114 L 15.8909 2.44316 L 15.8504 2.45518 L 15.8099 2.4672 L 15.7694 2.47921 L 15.7289 2.49122 L 15.7289 2.49122 L 15.7638 2.51516 L 15.7986 2.5391 L 15.8333 2.56303 L 15.8681 2.58696 L 15.9028 2.61089 L 15.9375 2.63481 L 15.9722 2.65873 L 16.0069 2.68265 L 16.0416 2.70657 L 16.0762 2.73048 L 16.1108 2.75439 L 16.1454 2.77829 L 16.18 2.80219 L 16.2146 2.82609 L 16.2491 2.84999 L 16.2837 2.87388 L 16.3182 2.89777 L 16.3526 2.92165 L 16.3871 2.94553 L 16.4216 2.96941 L 16.456 2.99329 L 16.4904 3.01716 L 16.5248 3.04103 L 16.5592 3.0649 L 16.5936 3.08876 L 16.6279 3.11262 L 16.6623 3.13648 L 16.6966 3.16033 L 16.7309 3.18418 L 16.7652 3.20803 L 16.7994 3.23187 L 16.8337 3.25571 L 16.8679 3.27955 L 16.9021 3.30338 L 16.9363 3.32722 L 16.9705 3.35104 L 17.0047 3.37487 L 17.0388 3.39869 L 17.073 3.42251 L 17.1071 3.44632 L 17.1412 3.47014 L 17.1753 3.49395 L 17.2094 3.51775 L 17.2434 3.54155 L 17.2775 3.56535 L 17.3115 3.58915 L 17.3455 3.61295 L 17.3795 3.63674 L 17.4135 3.66052 L 17.4475 3.68431 L 17.4814 3.70809 L 17.5154 3.73187 L 17.5493 3.75564 L 17.5832 3.77942 L 17.6171 3.80319 L 17.651 3.82695 L 17.6849 3.85071 L 17.7187 3.87448 L 17.7526 3.89823 L 17.7864 3.92199 L 17.8202 3.94574 L 17.854 3.96949 L 17.8878 3.99323 L 17.9216 4.01697 L 17.9553 4.04071 L 17.9891 4.06445 L 18.0228 4.08818 L 18.0565 4.11191 L 18.0903 4.13564 L 18.1239 4.15937 L 18.1576 4.18309 L 18.1913 4.20681 L 18.225 4.23052 L 18.2586 4.25424 L 18.2922 4.27795 L 18.3259 4.30165 L 18.3595 4.32536 L 18.3931 4.34906 L 18.4267 4.37276 L 18.4602 4.39645 L 18.4938 4.42015 L 18.5274 4.44384 L 18.5609 4.46752 L 18.5944 4.49121 L 18.6279 4.51489 L 18.6614 4.53857 L 18.6949 4.56224 L 18.7284 4.58592 L 18.7619 4.60959 L 18.7953 4.63325 L 18.8288 4.65692 L 18.8622 4.68058 L 18.8956 4.70424 L 18.9291 4.7279 L 18.9625 4.75155 L 18.9959 4.7752 L 19.0307 4.793 L 19.0214 4.82998 L 19.0119 4.86695 L 19.0024 4.90389 L 18.9929 4.94082 L 18.9832 4.97772 L 18.9735 5.01461 L 18.9637 5.05148 L 18.9539 5.08833 L 18.944 5.12516 L 18.934 5.16197 L 18.9239 5.19876 L 18.9137 5.23553 L 18.9035 5.27228 L 18.8933 5.30902 L 18.8829 5.34573 L 18.8725 5.38242 L 18.862 5.41909 L 18.8514 5.45574 L 18.8408 5.49237 L 18.8301 5.52898 L 18.8193 5.56557 L 18.8084 5.60214 L 18.7975 5.63868 L 18.7865 5.67521 L 18.7754 5.71171 L 18.7643 5.7482 L 18.7531 5.78466 L 18.7418 5.8211 L 18.7305 5.85751 L 18.719 5.89391 L 18.7075 5.93028 L 18.696 5.96663 L 18.6844 6.00296 L 18.6444 6.1259 L 18.6325 6.16212 L 18.6205 6.19833 L 18.6084 6.23451 L 18.5962 6.27066 L 18.584 6.3068 L 18.5717 6.3429 L 18.5593 6.37899 L 18.5469 6.41505 L 18.5344 6.45109 L 18.5218 6.4871 L 18.5092 6.52309 L 18.4965 6.55905 L 18.4837 6.59499 L 18.4708 6.6309 L 18.4579 6.66679 L 18.4449 6.70265 L 18.4319 6.73849 L 18.4187 6.7743 L 18.4055 6.81009 L 18.3923 6.84585 L 18.3789 6.88159 L 18.3655 6.9173 L 18.352 6.95298 L 18.3385 6.98864 L 18.3249 7.02427 L 18.3112 7.05987 L 18.2974 7.09545 L 18.2836 7.131 L 18.2697 7.16652 L 18.2557 7.20202 L 18.2417 7.23749 L 18.2276 7.27293 L 18.2134 7.30835 L 18.1748 7.30226 L 18.1338 7.30177 L 18.0929 7.30127 L 18.052 7.30077 L 18.011 7.30026 L 17.9701 7.29975 L 17.9291 7.29924 L 17.8881 7.29872 L 17.8471 7.2982 L 17.8061 7.29767 L 17.7651 7.29714 L 17.7241 7.2966 L 17.6831 7.29606 L 17.642 7.29552 L 17.601 7.29497 L 17.5599 7.29441 L 17.5188 7.29385 L 17.4777 7.29329 L 17.4366 7.29272 L 17.3955 7.29215 L 17.3544 7.29157 L 17.3133 7.29098 L 17.2721 7.2904 L 17.2309 7.2898 L 17.1898 7.2892 L 17.1486 7.2886 L 17.1074 7.28799 L 17.0662 7.28738 L 17.025 7.28676 L 16.9837 7.28614 L 16.9425 7.28551 L 16.9012 7.28487 L 16.86 7.28423 L 16.8187 7.28359 L 16.7774 7.28294 L 16.7361 7.28228 L 16.6948 7.28162 L 16.6534 7.28095 L 16.6121 7.28028 L 16.5707 7.2796 L 16.5294 7.27892 L 16.488 7.27823 L 16.4466 7.27753 L 16.4052 7.27683 L 16.3638 7.27612 L 16.3223 7.27541 L 16.2809 7.27469 L 16.2394 7.27397 L 16.1979 7.27323 L 16.1564 7.2725 L 16.1149 7.27175 L 16.0734 7.271 L 16.0319 7.27025 L 15.9903 7.26948 L 15.9488 7.26871 L 15.9072 7.26794 L 15.8656 7.26716 L 15.824 7.26637 L 15.7824 7.26557 L 15.7408 7.26477 L 15.6991 7.26396 L 15.6575 7.26315 L 15.6158 7.26232 L 15.5741 7.2615 L 15.5324 7.26066 L 15.4907 7.25982 L 15.4489 7.25896 L 15.4072 7.25811 L 15.3654 7.25724 L 15.3236 7.25637 L 15.2818 7.25549 L 15.24 7.2546 L 15.1982 7.25371 L 15.1563 7.25281 L 15.1145 7.2519 L 15.0726 7.25098 L 15.0307 7.25005 L 14.9888 7.24912 L 14.9469 7.24818 L 14.9049 7.24723 L 14.863 7.24627 L 14.821 7.24531 L 14.779 7.24433 L 14.737 7.24335 L 14.695 7.24236 L 14.6529 7.24136 L 14.6109 7.24036 L 14.5688 7.23934 L 14.5267 7.23832 L 14.4846 7.23728 L 14.4424 7.23624 L 14.4003 7.23519 L 14.3581 7.23413 L 14.3159 7.23306 L 14.2737 7.23198 L 14.2315 7.2309 L 14.1893 7.2298 L 14.1893 7.2298 L 14.215 7.26333 L 14.2407 7.29685 L 14.2664 7.33035 L 14.292 7.36385 L 14.3177 7.39735 L 14.3433 7.43083 L 14.3689 7.4643 L 14.3945 7.49776 L 14.4201 7.53122 L 14.4456 7.56466 L 14.4712 7.5981 L 14.4967 7.63153 L 14.5222 7.66494 L 14.5477 7.69835 L 14.5731 7.73175 L 14.5986 7.76515 L 14.624 7.79853 L 14.6495 7.8319 L 14.6749 7.86527 L 14.7002 7.89863 L 14.7256 7.93197 L 14.751 7.96531 L 14.7763 7.99865 L 14.8016 8.03197 L 14.827 8.06528 L 14.8523 8.09859 L 14.8775 8.13189 L 14.9028 8.16518 L 14.928 8.19846 L 14.9533 8.23173 L 14.9785 8.265 L 15.0037 8.29826 L 15.0289 8.33151 L 15.0541 8.36475 L 15.0792 8.39798 L 15.1044 8.43121 L 15.1295 8.46442 L 15.1546 8.49763 L 15.1797 8.53083 L 15.2048 8.56403 L 15.2299 8.59721 L 15.255 8.63039 L 15.28 8.66356 L 15.3051 8.69673 L 15.3301 8.72988 L 15.3551 8.76303 L 15.3801 8.79617 L 15.4051 8.8293 L 15.43 8.86243 L 15.455 8.89555 L 15.48 8.92866 L 15.5049 8.96176 L 15.5298 8.99486 L 15.5547 9.02795 L 15.5796 9.06103 L 15.6045 9.0941 L 15.6294 9.12717 L 15.6542 9.16023 L 15.6791 9.19328 L 15.7039 9.22633 L 15.7287 9.25936 L 15.7535 9.2924 L 15.7783 9.32542 L 15.8031 9.35844 L 15.8279 9.39145 L 15.8526 9.42445 L 15.8774 9.45745 L 15.9021 9.49044 L 15.9269 9.52342 L 15.9516 9.5564 L 15.9763 9.58937 L 16.001 9.62233 L 16.0257 9.65529 L 16.0503 9.68824 L 16.075 9.72118 L 16.0997 9.75412 L 16.1243 9.78705 L 16.1489 9.81997 L 16.1735 9.85289 L 16.1982 9.8858 L 16.2228 9.91871 L 16.2473 9.95161 L 16.2719 9.9845 L 16.2965 10.0174 L 16.321 10.0503 L 16.3456 10.0831 L 16.3701 10.116 L 16.3947 10.1489 L 16.4192 10.1817 L 16.4437 10.2146 L 16.4682 10.2474 L 16.4927 10.2802 L 16.5171 10.3131 L 16.5416 10.3459 L 16.5661 10.3787 L 16.5905 10.4115 L 16.6182 10.4392 L 16.5978 10.4715 L 16.5775 10.5038 L 16.557 10.536 L 16.5365 10.5681 L 16.5159 10.6002 L 16.4953 10.6323 L 16.4746 10.6644 L 16.4538 10.6964 L 16.433 10.7283 L 16.4121 10.7602 L 16.3912 10.7921 L 16.3702 10.824 L 16.3491 10.8558 L 16.328 10.8875 L 16.3068 10.9192 L 16.2855 10.9509 L 16.2642 10.9825 L 16.2428 11.0141 L 16.2214 11.0457 L 16.1999 11.0772 L 16.1783 11.1086 L 16.1567 11.1401 L 16.135 11.1715 L 16.1133 11.2028 L 16.0915 11.2341 L 16.0696 11.2653 L 16.0477 11.2966 L 16.0257 11.3277 L 16.0037 11.3589 L 15.9815 11.3899 L 15.9594 11.421 L 15.9372 11.452 L 15.9149 11.4829 L 15.8389 11.5875 L 15.8163 11.6183 L 15.7937 11.649 L 15.771 11.6797 L 15.7483 11.7103 L 15.7255 11.7409 L 15.7027 11.7714 L 15.6798 11.8019 L 15.6568 11.8324 L 15.6338 11.8628 L 15.6107 11.8932 L 15.5875 11.9235 L 15.5643 11.9538 L 15.5411 11.984 L 15.5177 12.0142 L 15.4944 12.0443 L 15.4709 12.0744 L 15.4474 12.1044 L 15.4239 12.1344 L 15.4003 12.1644 L 15.3766 12.1943 L 15.3529 12.2242 L 15.3291 12.254 L 15.3052 12.2838 L 15.2813 12.3135 L 15.2574 12.3432 L 15.2333 12.3728 L 15.2093 12.4024 L 15.1851 12.4319 L 15.1609 12.4614 L 15.1367 12.4909 L 15.1124 12.5203 L 15.088 12.5496 L 15.0636 12.5789 L 15.0287 12.5612 L 14.9899 12.5481 L 14.9512 12.5349 L 14.9124 12.5218 L 14.8736 12.5087 L 14.8348 12.4955 L 14.796 12.4824 L 14.7572 12.4692 L 14.7184 12.4561 L 14.6795 12.4429 L 14.6407 12.4297 L 14.6018 12.4165 L 14.563 12.4033 L 14.5241 12.3901 L 14.4852 12.3769 L 14.4464 12.3637 L 14.4075 12.3505 L 14.3686 12.3372 L 14.3296 12.324 L 14.2907 12.3108 L 14.2518 12.2975 L 14.2128 12.2842 L 14.1739 12.271 L 14.1349 12.2577 L 14.096 12.2444 L 14.057 12.2311 L 14.018 12.2178 L 13.979 12.2045 L 13.94 12.1911 L 13.901 12.1778 L 13.8619 12.1644 L 13.8229 12.1511 L 13.7838 12.1377 L 13.7448 12.1244 L 13.7057 12.111 L 13.6666 12.0976 L 13.6275 12.0842 L 13.5884 12.0708 L 13.5493 12.0574 L 13.5102 12.044 L 13.4711 12.0305 L 13.4319 12.0171 L 13.3928 12.0036 L 13.3536 11.9902 L 13.3144 11.9767 L 13.2752 11.9632 L 13.236 11.9497 L 13.1968 11.9362 L 13.1576 11.9227 L 13.1184 11.9092 L 13.0791 11.8956 L 13.0399 11.8821 L 13.0006 11.8685 L 12.9613 11.855 L 12.922 11.8414 L 12.8827 11.8278 L 12.8434 11.8142 L 12.8041 11.8006 L 12.7648 11.787 L 12.7254 11.7734 L 12.6861 11.7597 L 12.6467 11.7461 L 12.6073 11.7324 L 12.5679 11.7188 L 12.5285 11.7051 L 12.4891 11.6914 L 12.4497 11.6777 L 12.4102 11.664 L 12.3708 11.6502 L 12.3313 11.6365 L 12.2918 11.6227 L 12.2523 11.609 L 12.2128 11.5952 L 12.1733 11.5814 L 12.1338 11.5676 L 12.0942 11.5538 L 12.0547 11.54 L 12.0151 11.5261 L 11.9755 11.5123 L 11.9359 11.4984 L 11.8963 11.4845 L 11.8567 11.4706 L 11.817 11.4567 L 11.7774 11.4428 L 11.7377 11.4289 L 11.6981 11.4149 L 11.6584 11.401 L 11.6187 11.387 L 11.5789 11.373 L 11.5392 11.359 L 11.4995 11.345 L 11.4597 11.331 L 11.4199 11.317 L 11.3801 11.3029 L 11.3403 11.2889 L 11.3005 11.2748 L 11.2607 11.2607 L 11.2607 11.2607 L 11.2748 11.3005 L 11.2889 11.3403 L 11.3029 11.3801 L 11.317 11.4199 L 11.331 11.4597 L 11.345 11.4995 L 11.359 11.5392 L 11.373 11.5789 L 11.387 11.6187 L 11.401 11.6584 L 11.4149 11.6981 L 11.4289 11.7377 L 11.4428 11.7774 L 11.4567 11.817 L 11.4706 11.8567 L 11.4845 11.8963 L 11.4984 11.9359 L 11.5123 11.9755 L 11.5261 12.0151 L 11.54 12.0547 L 11.5538 12.0942 L 11.5676 12.1338 L 11.5814 12.1733 L 11.5952 12.2128 L 11.609 12.2523 L 11.6227 12.2918 L 11.6365 12.3313 L 11.6502 12.3708 L 11.664 12.4102 L 11.6777 12.4497 L 11.6914 12.4891 L 11.7051 12.5285 L 11.7188 12.5679 L 11.7324 12.6073 L 11.7461 12.6467 L 11.7597 12.6861 L 11.7734 12.7254 L 11.787 12.7648 L 11.8006 12.8041 L 11.8142 12.8434 L 11.8278 12.8827 L 11.8414 12.922 L 11.855 12.9613 L 11.8685 13.0006 L 11.8821 13.0399 L 11.8956 13.0791 L 11.9092 13.1184 L 11.9227 13.1576 L 11.9362 13.1968 L 11.9497 13.236 L 11.9632 13.2752 L 11.9767 13.3144 L 11.9902 13.3536 L 12.0036 13.3928 L 12.0171 13.4319 L 12.0305 13.4711 L 12.044 13.5102 L 12.0574 13.5493 L 12.0708 13.5884 L 12.0842 13.6275 L 12.0976 13.6666 L 12.111 13.7057 L 12.1244 13.7448 L 12.1377 13.7838 L 12.1511 13.8229 L 12.1644 13.8619 L 12.1778 13.901 L 12.1911 13.94 L 12.2045 13.979 L 12.2178 14.018 L 12.2311 14.057 L 12.2444 14.096 L 12.2577 14.1349 L 12.271 14.1739 L 12.2842 14.2128 L 12.2975 14.2518 L 12.3108 14.2907 L 12.324 14.3296 L 12.3372 14.3686 L 12.3505 14.4075 L 12.3637 14.4464 L 12.3769 14.4852 L 12.3901 14.5241 L 12.4033 14.563 L 12.4165 14.6018 L 12.4297 14.6407 L 12.4429 14.6795 L 12.4561 14.7184 L 12.4692 14.7572 L 12.4824 14.796 L 12.4955 14.8348 L 12.5087 14.8736 L 12.5218 14.9124 L 12.5349 14.9512 L 12.5481 14.9899 L 12.5612 15.0287 L 12.5789 15.0636 L 12.5496 15.088 L 12.5203 15.1124 L 12.4909 15.1367 L 12.4614 15.1609 L 12.4319 15.1851 L 12.4024 15.2093 L 12.3728 15.2333 L 12.3432 15.2574 L 12.3135 15.2813 L 12.2838 15.3052 L 12.254 15.3291 L 12.2242 15.3529 L 12.1943 15.3766 L 12.1644 15.4003 L 12.1344 15.4239 L 12.1044 15.4474 L 12.0744 15.4709 L 12.0443 15.4944 L 12.0142 15.5177 L 11.984 15.5411 L 11.9538 15.5643 L 11.9235 15.5875 L 11.8932 15.6107 L 11.8628 15.6338 L 11.8324 15.6568 L 11.8019 15.6798 L 11.7714 15.7027 L 11.7409 15.7255 L 11.7103 15.7483 L 11.6797 15.771 L 11.649 15.7937 L 11.6183 15.8163 L 11.5875 15.8389 L 11.4829 15.9149 L 11.452 15.9372 L 11.421 15.9594 L 11.3899 15.9815 L 11.3589 16.0037 L 11.3277 16.0257 L 11.2966 16.0477 L 11.2653 16.0696 L 11.2341 16.0915 L 11.2028 16.1133 L 11.1715 16.135 L 11.1401 16.1567 L 11.1086 16.1783 L 11.0772 16.1999 L 11.0457 16.2214 L 11.0141 16.2428 L 10.9825 16.2642 L 10.9509 16.2855 L 10.9192 16.3068 L 10.8875 16.328 L 10.8558 16.3491 L 10.824 16.3702 L 10.7921 16.3912 L 10.7602 16.4121 L 10.7283 16.433 L 10.6964 16.4538 L 10.6644 16.4746 L 10.6323 16.4953 L 10.6002 16.5159 L 10.5681 16.5365 L 10.536 16.557 L 10.5038 16.5775 L 10.4715 16.5978 L 10.4392 16.6182 L 10.4115 16.5905 L 10.3787 16.5661 L 10.3459 16.5416 L 10.3131 16.5171 L 10.2802 16.4927 L 10.2474 16.4682 L 10.2146 16.4437 L 10.1817 16.4192 L 10.1489 16.3947 L 10.116 16.3701 L 10.0831 16.3456 L 10.0503 16.321 L 10.0174 16.2965 L 9.9845 16.2719 L 9.95161 16.2473 L 9.91871 16.2228 L 9.8858 16.1982 L 9.85289 16.1735 L 9.81997 16.1489 L 9.78705 16.1243 L 9.75412 16.0997 L 9.72118 16.075 L 9.68824 16.0503 L 9.65529 16.0257 L 9.62233 16.001 L 9.58937 15.9763 L 9.5564 15.9516 L 9.52342 15.9269 L 9.49044 15.9021 L 9.45745 15.8774 L 9.42445 15.8526 L 9.39145 15.8279 L 9.35844 15.8031 L 9.32542 15.7783 L 9.2924 15.7535 L 9.25936 15.7287 L 9.22633 15.7039 L 9.19328 15.6791 L 9.16023 15.6542 L 9.12717 15.6294 L 9.0941 15.6045 L 9.06103 15.5796 L 9.02795 15.5547 L 8.99486 15.5298 L 8.96176 15.5049 L 8.92866 15.48 L 8.89555 15.455 L 8.86243 15.43 L 8.8293 15.4051 L 8.79617 15.3801 L 8.76303 15.3551 L 8.72988 15.3301 L 8.69673 15.3051 L 8.66356 15.28 L 8.63039 15.255 L 8.59721 15.2299 L 8.56403 15.2048 L 8.53083 15.1797 L 8.49763 15.1546 L 8.46442 15.1295 L 8.43121 15.1044 L 8.39798 15.0792 L 8.36475 15.0541 L 8.33151 15.0289 L 8.29826 15.0037 L 8.265 14.9785 L 8.23173 14.9533 L 8.19846 14.928 L 8.16518 14.9028 L 8.13189 14.8775 L 8.09859 14.8523 L 8.06528 14.827 L 8.03197 14.8016 L 7.99865 14.7763 L 7.96531 14.751 L 7.93197 14.7256 L 7.89863 14.7002 L 7.86527 14.6749 L 7.8319 14.6495 L 7.79853 14.624 L 7.76515 14.5986 L 7.73175 14.5731 L 7.69835 14.5477 L 7.66494 14.5222 L 7.63153 14.4967 L 7.5981 14.4712 L 7.56466 14.4456 L 7.53122 14.4201 L 7.49776 14.3945 L 7.4643 14.3689 L 7.43083 14.3433 L 7.39735 14.3177 L 7.36385 14.292 L 7.33035 14.2664 L 7.29685 14.2407 L 7.26333 14.215 L 7.2298 14.1893 L 7.2298 14.1893 L 7.2309 14.2315 L 7.23198 14.2737 L 7.23306 14.3159 L 7.23413 14.3581 L 7.23519 14.4003 L 7.23624 14.4424 L 7.23728 14.4846 L 7.23832 14.5267 L 7.23934 14.5688 L 7.24036 14.6109 L 7.24136 14.6529 L 7.24236 14.695 L 7.24335 14.737 L 7.24433 14.779 L 7.24531 14.821 L 7.24627 14.863 L 7.24723 14.9049 L 7.24818 14.9469 L 7.24912 14.9888 L 7.25005 15.0307 L 7.25098 15.0726 L 7.2519 15.1145 L 7.25281 15.1563 L 7.25371 15.1982 L 7.2546 15.24 L 7.25549 15.2818 L 7.25637 15.3236 L 7.25724 15.3654 L 7.25811 15.4072 L 7.25896 15.4489 L 7.25982 15.4907 L 7.26066 15.5324 L 7.2615 15.5741 L 7.26232 15.6158 L 7.26315 15.6575 L 7.26396 15.6991 L 7.26477 15.7408 L 7.26557 15.7824 L 7.26637 15.824 L 7.26716 15.8656 L 7.26794 15.9072 L 7.26871 15.9488 L 7.26948 15.9903 L 7.27025 16.0319 L 7.271 16.0734 L 7.27175 16.1149 L 7.2725 16.1564 L 7.27323 16.1979 L 7.27397 16.2394 L 7.27469 16.2809 L 7.27541 16.3223 L 7.27612 16.3638 L 7.27683 16.4052 L 7.27753 16.4466 L 7.27823 16.488 L 7.27892 16.5294 L 7.2796 16.5707 L 7.28028 16.6121 L 7.28095 16.6534 L 7.28162 16.6948 L 7.28228 16.7361 L 7.28294 16.7774 L 7.28359 16.8187 L 7.28423 16.86 L 7.28487 16.9012 L 7.28551 16.9425 L 7.28614 16.9837 L 7.28676 17.025 L 7.28738 17.0662 L 7.28799 17.1074 L 7.2886 17.1486 L 7.2892 17.1898 L 7.2898 17.2309 L 7.2904 17.2721 L 7.29098 17.3133 L 7.29157 17.3544 L 7.29215 17.3955 L 7.29272 17.4366 L 7.29329 17.4777 L 7.29385 17.5188 L 7.29441 17.5599 L 7.29497 17.601 L 7.29552 17.642 L 7.29606 17.6831 L 7.2966 17.7241 L 7.29714 17.7651 L 7.29767 17.8061 L 7.2982 17.8471 L 7.29872 17.8881 L 7.29924 17.9291 L 7.29975 17.9701 L 7.30026 18.011 L 7.30077 18.052 L 7.30127 18.0929 L 7.30177 18.1338 L 7.30226 18.1748 L 7.30835 18.2134 L 7.27293 18.2276 L 7.23749 18.2417 L 7.20202 18.2557 L 7.16652 18.2697 L 7.131 18.2836 L 7.09545 18.2974 L 7.05987 18.3112 L 7.02427 18.3249 L 6.98864 18.3385 L 6.95298 18.352 L 6.9173 18.3655 L 6.88159 18.3789 L 6.84585 18.3923 L 6.81009 18.4055 L 6.7743 18.4187 L 6.73849 18.4319 L 6.70265 18.4449 L 6.66679 18.4579 L 6.6309 18.4708 L 6.59499 18.4837 L 6.55905 18.4965 L 6.52309 18.5092 L 6.4871 18.5218 L 6.45109 18.5344 L 6.41505 18.5469 L 6.37899 18.5593 L 6.3429 18.5717 L 6.3068 18.584 L 6.27066 18.5962 L 6.23451 18.6084 L 6.19833 18.6205 L 6.16212 18.6325 L 6.1259 18.6444 L 6.00296 18.6844 L 5.96663 18.696 L 5.93028 18.7075 L 5.89391 18.719 L 5.85751 18.7305 L 5.8211 18.7418 L 5.78466 18.7531 L 5.7482 18.7643 L 5.71171 18.7754 L 5.67521 18.7865 L 5.63868 18.7975 L 5.60214 18.8084 L 5.56557 18.8193 L 5.52898 18.8301 L 5.49237 18.8408 L 5.45574 18.8514 L 5.41909 18.862 L 5.38242 18.8725 L 5.34573 18.8829 L 5.30902 18.8933 L 5.27228 18.9035 L 5.23553 18.9137 L 5.19876 18.9239 L 5.16197 18.934 L 5.12516 18.944 L 5.08833 18.9539 L 5.05148 18.9637 L 5.01461 18.9735 L 4.97772 18.9832 L 4.94082 18.9929 L 4.90389 19.0024 L 4.86695 19.0119 L 4.82998 19.0214 L 4.793 19.0307 L 4.7752 18.9959 L 4.75155 18.9625 L 4.7279 18.9291 L 4.70424 18.8956 L 4.68058 18.8622 L 4.65692 18.8288 L 4.63325 18.7953 L 4.60959 18.7619 L 4.58592 18.7284 L 4.56224 18.6949 L 4.53857 18.6614 L 4.51489 18.6279 L 4.49121 18.5944 L 4.46752 18.5609 L 4.44384 18.5274 L 4.42015 18.4938 L 4.39645 18.4602 L 4.37276 18.4267 L 4.34906 18.3931 L 4.32536 18.3595 L 4.30165 18.3259 L 4.27795 18.2922 L 4.25424 18.2586 L 4.23052 18.225 L 4.20681 18.1913 L 4.18309 18.1576 L 4.15937 18.1239 L 4.13564 18.0903 L 4.11191 18.0565 L 4.08818 18.0228 L 4.06445 17.9891 L 4.04071 17.9553 L 4.01697 17.9216 L 3.99323 17.8878 L 3.96949 17.854 L 3.94574 17.8202 L 3.92199 17.7864 L 3.89823 17.7526 L 3.87448 17.7187 L 3.85071 17.6849 L 3.82695 17.651 L 3.80319 17.6171 L 3.77942 17.5832 L 3.75564 17.5493 L 3.73187 17.5154 L 3.70809 17.4814 L 3.68431 17.4475 L 3.66052 17.4135 L 3.63674 17.3795 L 3.61295 17.3455 L 3.58915 17.3115 L 3.56535 17.2775 L 3.54155 17.2434 L 3.51775 17.2094 L 3.49395 17.1753 L 3.47014 17.1412 L 3.44632 17.1071 L 3.42251 17.073 L 3.39869 17.0388 L 3.37487 17.0047 L 3.35104 16.9705 L 3.32722 16.9363 L 3.30338 16.9021 L 3.27955 16.8679 L 3.25571 16.8337 L 3.23187 16.7994 L 3.20803 16.7652 L 3.18418 16.7309 L 3.16033 16.6966 L 3.13648 16.6623 L 3.11262 16.6279 L 3.08876 16.5936 L 3.0649 16.5592 L 3.04103 16.5248 L 3.01716 16.4904 L 2.99329 16.456 L 2.96941 16.4216 L 2.94553 16.3871 L 2.92165 16.3526 L 2.89777 16.3182 L 2.87388 16.2837 L 2.84999 16.2491 L 2.82609 16.2146 L 2.80219 16.18 L 2.77829 16.1454 L 2.75439 16.1108 L 2.73048 16.0762 L 2.70657 16.0416 L 2.68265 16.0069 L 2.65873 15.9722 L 2.63481 15.9375 L 2.61089 15.9028 L 2.58696 15.8681 L 2.56303 15.8333 L 2.5391 15.7986 L 2.51516 15.7638 L 2.49122 15.7289 L 2.49122 15.7289 L 2.47921 15.7694 L 2.4672 15.8099 L 2.45518 15.8504 L 2.44316 15.8909 L 2.43114 15.9313 L 2.41911 15.9717 L 2.40709 16.0121 L 2.39505 16.0525 L 2.38302 16.0928 L 2.37098 16.1332 L 2.35894 16.1735 L 2.3469 16.2138 L 2.33486 16.254 L 2.32281 16.2943 L 2.31076 16.3345 L 2.2987 16.3747 L 2.28665 16.415 L 2.27459 16.4551 L 2.26253 16.4953 L 2.25047 16.5354 L 2.2384 16.5756 L 2.22633 16.6157 L 2.21426 16.6558 L 2.20219 16.6959 L 2.19011 16.7359 L 2.17804 16.776 L 2.16596 16.816 L 2.15387 16.856 L 2.14179 16.896 L 2.1297 16.9359 L 2.11762 16.9759 L 2.10553 17.0158 L 2.09343 17.0558 L 2.08134 17.0957 L 2.06924 17.1356 L 2.05714 17.1754 L 2.04504 17.2153 L 2.03294 17.2551 L 2.02084 17.295 L 2.00873 17.3348 L 1.99662 17.3746 L 1.98451 17.4144 L 1.9724 17.4541 L 1.96029 17.4939 L 1.94817 17.5336 L 1.93606 17.5733 L 1.92394 17.613 L 1.91182 17.6527 L 1.8997 17.6924 L 1.88758 17.732 L 1.87545 17.7717 L 1.86333 17.8113 L 1.8512 17.8509 L 1.83907 17.8905 L 1.82694 17.9301 L 1.81481 17.9697 L 1.80267 18.0092 L 1.79054 18.0488 L 1.7784 18.0883 L 1.76626 18.1278 L 1.75412 18.1673 L 1.74198 18.2068 L 1.72984 18.2463 L 1.7177 18.2857 L 1.70556 18.3252 L 1.69341 18.3646 L 1.68126 18.404 L 1.66912 18.4434 L 1.65697 18.4828 L 1.64482 18.5222 L 1.63266 18.5616 L 1.62051 18.6009 L 1.60836 18.6403 L 1.5962 18.6796 L 1.58405 18.7189 L 1.57189 18.7582 L 1.55973 18.7975 L 1.54757 18.8368 L 1.53541 18.8761 L 1.52325 18.9153 L 1.51109 18.9546 L 1.49893 18.9938 L 1.48676 19.033 L 1.4746 19.0722 L 1.46243 19.1114 L 1.45027 19.1506 L 1.4381 19.1897 L 1.42593 19.2289 L 1.41376 19.268 L 1.40159 19.3072 L 1.38942 19.3463 L 1.37725 19.3854 L 1.36508 19.4245 L 1.3529 19.4636 L 1.34073 19.5027 L 1.32855 19.5417 L 1.32239 19.5804 L 1.28433 19.5829 L 1.24627 19.5854 L 1.2082 19.5878 L 1.17012 19.5901 L 1.13205 19.5923 L 1.09396 19.5945 L 1.05588 19.5966 L 1.01778 19.5986 L 0.97969 19.6005 L 0.941591 19.6024 L 0.903489 19.6042 L 0.865383 19.6059 L 0.827274 19.6076 L 0.789162 19.6091 L 0.751048 19.6106 L 0.71293 19.612 L 0.674809 19.6134 L 0.636686 19.6147 L 0.598561 19.6159 L 0.560433 19.617 L 0.522303 19.618 L 0.484172 19.619 L 0.446038 19.6199 L 0.407903 19.6208 L 0.369766 19.6215 L 0.331628 19.6222 L 0.293488 19.6228 L 0.255347 19.6233 L 0.217206 19.6238 L 0.179064 19.6242 L 0.14092 19.6245 L 0.102777 19.6247 L 0.0646329 19.6249 L -0.0646329 19.6249 L -0.102777 19.6247 L -0.14092 19.6245 L -0.179064 19.6242 L -0.217206 19.6238 L -0.255347 19.6233 L -0.293488 19.6228 L -0.331628 19.6222 L -0.369766 19.6215 L -0.407903 19.6208 L -0.446038 19.6199 L -0.484172 19.619 L -0.522303 19.618 L -0.560433 19.617 L -0.598561 19.6159 L -0.636686 19.6147 L -0.674809 19.6134 L -0.71293 19.612 L -0.751048 19.6106 L -0.789162 19.6091 L -0.827274 19.6076 L -0.865383 19.6059 L -0.903489 19.6042 L -0.941591 19.6024 L -0.97969 19.6005 L -1.01778 19.5986 L -1.05588 19.5966 L -1.09396 19.5945 L -1.13205 19.5923 L -1.17012 19.5901 L -1.2082 19.5878 L -1.24627 19.5854 L -1.28433 19.5829 L -1.32239 19.5804 L -1.32855 19.5417 L -1.34073 19.5027 L -1.3529 19.4636 L -1.36508 19.4245 L -1.37725 19.3854 L -1.38942 19.3463 L -1.40159 19.3072 L -1.41376 19.268 L -1.42593 19.2289 L -1.4381 19.1897 L -1.45027 19.1506 L -1.46243 19.1114 L -1.4746 19.0722 L -1.48676 19.033 L -1.49893 18.9938 L -1.51109 18.9546 L -1.52325 18.9153 L -1.53541 18.8761 L -1.54757 18.8368 L -1.55973 18.7975 L -1.57189 18.7582 L -1.58405 18.7189 L -1.5962 18.6796 L -1.60836 18.6403 L -1.62051 18.6009 L -1.63266 18.5616 L -1.64482 18.5222 L -1.65697 18.4828 L -1.66912 18.4434 L -1.68126 18.404 L -1.69341 18.3646 L -1.70556 18.3252 L -1.7177 18.2857 L -1.72984 18.2463 L -1.74198 18.2068 L -1.75412 18.1673 L -1.76626 18.1278 L -1.7784 18.0883 L -1.79054 18.0488 L -1.80267 18.0092 L -1.81481 17.9697 L -1.82694 17.9301 L -1.83907 17.8905 L -1.8512 17.8509 L -1.86333 17.8113 L -1.87545 17.7717 L -1.88758 17.732 L -1.8997 17.6924 L -1.91182 17.6527 L -1.92394 17.613 L -1.93606 17.5733 L -1.94817 17.5336 L -1.96029 17.4939 L -1.9724 17.4541 L -1.98451 17.4144 L -1.99662 17.3746 L -2.00873 17.3348 L -2.02084 17.295 L -2.03294 17.2551 L -2.04504 17.2153 L -2.05714 17.1754 L -2.06924 17.1356 L -2.08134 17.0957 L -2.09343 17.0558 L -2.10553 17.0158 L -2.11762 16.9759 L -2.1297 16.9359 L -2.14179 16.896 L -2.15387 16.856 L -2.16596 16.816 L -2.17804 16.776 L -2.19011 16.7359 L -2.20219 16.6959 L -2.21426 16.6558 L -2.22633 16.6157 L -2.2384 16.5756 L -2.25047 16.5354 L -2.26253 16.4953 L -2.27459 16.4551 L -2.28665 16.415 L -2.2987 16.3747 L -2.31076 16.3345 L -2.32281 16.2943 L -2.33486 16.254 L -2.3469 16.2138 L -2.35894 16.1735 L -2.37098 16.1332 L -2.38302 16.0928 L -2.39505 16.0525 L -2.40709 16.0121 L -2.41911 15.9717 L -2.43114 15.9313 L -2.44316 15.8909 L -2.45518 15.8504 L -2.4672 15.8099 L -2.47921 15.7694 L -2.49122 15.7289 L -2.49122 15.7289 L -2.51516 15.7638 L -2.5391 15.7986 L -2.56303 15.8333 L -2.58696 15.8681 L -2.61089 15.9028 L -2.63481 15.9375 L -2.65873 15.9722 L -2.68265 16.0069 L -2.70657 16.0416 L -2.73048 16.0762 L -2.75439 16.1108 L -2.77829 16.1454 L -2.80219 16.18 L -2.82609 16.2146 L -2.84999 16.2491 L -2.87388 16.2837 L -2.89777 16.3182 L -2.92165 16.3526 L -2.94553 16.3871 L -2.96941 16.4216 L -2.99329 16.456 L -3.01716 16.4904 L -3.04103 16.5248 L -3.0649 16.5592 L -3.08876 16.5936 L -3.11262 16.6279 L -3.13648 16.6623 L -3.16033 16.6966 L -3.18418 16.7309 L -3.20803 16.7652 L -3.23187 16.7994 L -3.25571 16.8337 L -3.27955 16.8679 L -3.30338 16.9021 L -3.32722 16.9363 L -3.35104 16.9705 L -3.37487 17.0047 L -3.39869 17.0388 L -3.42251 17.073 L -3.44632 17.1071 L -3.47014 17.1412 L -3.49395 17.1753 L -3.51775 17.2094 L -3.54155 17.2434 L -3.56535 17.2775 L -3.58915 17.3115 L -3.61295 17.3455 L -3.63674 17.3795 L -3.66052 17.4135 L -3.68431 17.4475 L -3.70809 17.4814 L -3.73187 17.5154 L -3.75564 17.5493 L -3.77942 17.5832 L -3.80319 17.6171 L -3.82695 17.651 L -3.85071 17.6849 L -3.87448 17.7187 L -3.89823 17.7526 L -3.92199 17.7864 L -3.94574 17.8202 L -3.96949 17.854 L -3.99323 17.8878 L -4.01697 17.9216 L -4.04071 17.9553 L -4.06445 17.9891 L -4.08818 18.0228 L -4.11191 18.0565 L -4.13564 18.0903 L -4.15937 18.1239 L -4.18309 18.1576 L -4.20681 18.1913 L -4.23052 18.225 L -4.25424 18.2586 L -4.27795 18.2922 L -4.30165 18.3259 L -4.32536 18.3595 L -4.34906 18.3931 L -4.37276 18.4267 L -4.39645 18.4602 L -4.42015 18.4938 L -4.44384 18.5274 L -4.46752 18.5609 L -4.49121 18.5944 L -4.51489 18.6279 L -4.53857 18.6614 L -4.56224 18.6949 L -4.58592 18.7284 L -4.60959 18.7619 L -4.63325 18.7953 L -4.65692 18.8288 L -4.68058 18.8622 L -4.70424 18.8956 L -4.7279 18.9291 L -4.75155 18.9625 L -4.7752 18.9959 L -4.793 19.0307 L -4.82998 19.0214 L -4.86695 19.0119 L -4.90389 19.0024 L -4.94082 18.9929 L -4.97772 18.9832 L -5.01461 18.9735 L -5.05148 18.9637 L -5.08833 18.9539 L -5.12516 18.944 L -5.16197 18.934 L -5.19876 18.9239 L -5.23553 18.9137 L -5.27228 18.9035 L -5.30902 18.8933 L -5.34573 18.8829 L -5.38242 18.8725 L -5.41909 18.862 L -5.45574 18.8514 L -5.49237 18.8408 L -5.52898 18.8301 L -5.56557 18.8193 L -5.60214 18.8084 L -5.63868 18.7975 L -5.67521 18.7865 L -5.71171 18.7754 L -5.7482 18.7643 L -5.78466 18.7531 L -5.8211 18.7418 L -5.85751 18.7305 L -5.89391 18.719 L -5.93028 18.7075 L -5.96663 18.696 L -6.00296 18.6844 L -6.1259 18.6444 L -6.16212 18.6325 L -6.19833 18.6205 L -6.23451 18.6084 L -6.27066 18.5962 L -6.3068 18.584 L -6.3429 18.5717 L -6.37899 18.5593 L -6.41505 18.5469 L -6.45109 18.5344 L -6.4871 18.5218 L -6.52309 18.5092 L -6.55905 18.4965 L -6.59499 18.4837 L -6.6309 18.4708 L -6.66679 18.4579 L -6.70265 18.4449 L -6.73849 18.4319 L -6.7743 18.4187 L -6.81009 18.4055 L -6.84585 18.3923 L -6.88159 18.3789 L -6.9173 18.3655 L -6.95298 18.352 L -6.98864 18.3385 L -7.02427 18.3249 L -7.05987 18.3112 L -7.09545 18.2974 L -7.131 18.2836 L -7.16652 18.2697 L -7.20202 18.2557 L -7.23749 18.2417 L -7.27293 18.2276 L -7.30835 18.2134 L -7.30226 18.1748 L -7.30177 18.1338 L -7.30127 18.0929 L -7.30077 18.052 L -7.30026 18.011 L -7.29975 17.9701 L -7.29924 17.9291 L -7.29872 17.8881 L -7.2982 17.8471 L -7.29767 17.8061 L -7.29714 17.7651 L -7.2966 17.7241 L -7.29606 17.6831 L -7.29552 17.642 L -7.29497 17.601 L -7.29441 17.5599 L -7.29385 17.5188 L -7.29329 17.4777 L -7.29272 17.4366 L -7.29215 17.3955 L -7.29157 17.3544 L -7.29098 17.3133 L -7.2904 17.2721 L -7.2898 17.2309 L -7.2892 17.1898 L -7.2886 17.1486 L -7.28799 17.1074 L -7.28738 17.0662 L -7.28676 17.025 L -7.28614 16.9837 L -7.28551 16.9425 L -7.28487 16.9012 L -7.28423 16.86 L -7.28359 16.8187 L -7.28294 16.7774 L -7.28228 16.7361 L -7.28162 16.6948 L -7.28095 16.6534 L -7.28028 16.6121 L -7.2796 16.5707 L -7.27892 16.5294 L -7.27823 16.488 L -7.27753 16.4466 L -7.27683 16.4052 L -7.27612 16.3638 L -7.27541 16.3223 L -7.27469 16.2809 L -7.27397 16.2394 L -7.27323 16.1979 L -7.2725 16.1564 L -7.27175 16.1149 L -7.271 16.0734 L -7.27025 16.0319 L -7.26948 15.9903 L -7.26871 15.9488 L -7.26794 15.9072 L -7.26716 15.8656 L -7.26637 15.824 L -7.26557 15.7824 L -7.26477 15.7408 L -7.26396 15.6991 L -7.26315 15.6575 L -7.26232 15.6158 L -7.2615 15.5741 L -7.26066 15.5324 L -7.25982 15.4907 L -7.25896 15.4489 L -7.25811 15.4072 L -7.25724 15.3654 L -7.25637 15.3236 L -7.25549 15.2818 L -7.2546 15.24 L -7.25371 15.1982 L -7.25281 15.1563 L -7.2519 15.1145 L -7.25098 15.0726 L -7.25005 15.0307 L -7.24912 14.9888 L -7.24818 14.9469 L -7.24723 14.9049 L -7.24627 14.863 L -7.24531 14.821 L -7.24433 14.779 L -7.24335 14.737 L -7.24236 14.695 L -7.24136 14.6529 L -7.24036 14.6109 L -7.23934 14.5688 L -7.23832 14.5267 L -7.23728 14.4846 L -7.23624 14.4424 L -7.23519 14.4003 L -7.23413 14.3581 L -7.23306 14.3159 L -7.23198 14.2737 L -7.2309 14.2315 L -7.2298 14.1893 L -7.2298 14.1893 L -7.26333 14.215 L -7.29685 14.2407 L -7.33035 14.2664 L -7.36385 14.292 L -7.39735 14.3177 L -7.43083 14.3433 L -7.4643 14.3689 L -7.49776 14.3945 L -7.53122 14.4201 L -7.56466 14.4456 L -7.5981 14.4712 L -7.63153 14.4967 L -7.66494 14.5222 L -7.69835 14.5477 L -7.73175 14.5731 L -7.76515 14.5986 L -7.79853 14.624 L -7.8319 14.6495 L -7.86527 14.6749 L -7.89863 14.7002 L -7.93197 14.7256 L -7.96531 14.751 L -7.99865 14.7763 L -8.03197 14.8016 L -8.06528 14.827 L -8.09859 14.8523 L -8.13189 14.8775 L -8.16518 14.9028 L -8.19846 14.928 L -8.23173 14.9533 L -8.265 14.9785 L -8.29826 15.0037 L -8.33151 15.0289 L -8.36475 15.0541 L -8.39798 15.0792 L -8.43121 15.1044 L -8.46442 15.1295 L -8.49763 15.1546 L -8.53083 15.1797 L -8.56403 15.2048 L -8.59721 15.2299 L -8.63039 15.255 L -8.66356 15.28 L -8.69673 15.3051 L -8.72988 15.3301 L -8.76303 15.3551 L -8.79617 15.3801 L -8.8293 15.4051 L -8.86243 15.43 L -8.89555 15.455 L -8.92866 15.48 L -8.96176 15.5049 L -8.99486 15.5298 L -9.02795 15.5547 L -9.06103 15.5796 L -9.0941 15.6045 L -9.12717 15.6294 L -9.16023 15.6542 L -9.19328 15.6791 L -9.22633 15.7039 L -9.25936 15.7287 L -9.2924 15.7535 L -9.32542 15.7783 L -9.35844 15.8031 L -9.39145 15.8279 L -9.42445 15.8526 L -9.45745 15.8774 L -9.49044 15.9021 L -9.52342 15.9269 L -9.5564 15.9516 L -9.58937 15.9763 L -9.62233 16.001 L -9.65529 16.0257 L -9.68824 16.0503 L -9.72118 16.075 L -9.75412 16.0997 L -9.78705 16.1243 L -9.81997 16.1489 L -9.85289 16.1735 L -9.8858 16.1982 L -9.91871 16.2228 L -9.95161 16.2473 L -9.9845 16.2719 L -10.0174 16.2965 L -10.0503 16.321 L -10.0831 16.3456 L -10.116 16.3701 L -10.1489 16.3947 L -10.1817 16.4192 L -10.2146 16.4437 L -10.2474 16.4682 L -10.2802 16.4927 L -10.3131 16.5171 L -10.3459 16.5416 L -10.3787 16.5661 L -10.4115 16.5905 L -10.4392 16.6182 L -10.4715 16.5978 L -10.5038 16.5775 L -10.536 16.557 L -10.5681 16.5365 L -10.6002 16.5159 L -10.6323 16.4953 L -10.6644 16.4746 L -10.6964 16.4538 L -10.7283 16.433 L -10.7602 16.4121 L -10.7921 16.3912 L -10.824 16.3702 L -10.8558 16.3491 L -10.8875 16.328 L -10.9192 16.3068 L -10.9509 16.2855 L -10.9825 16.2642 L -11.0141 16.2428 L -11.0457 16.2214 L -11.0772 16.1999 L -11.1086 16.1783 L -11.1401 16.1567 L -11.1715 16.135 L -11.2028 16.1133 L -11.2341 16.0915 L -11.2653 16.0696 L -11.2966 16.0477 L -11.3277 16.0257 L -11.3589 16.0037 L -11.3899 15.9815 L -11.421 15.9594 L -11.452 15.9372 L -11.4829 15.9149 L -11.5875 15.8389 L -11.6183 15.8163 L -11.649 15.7937 L -11.6797 15.771 L -11.7103 15.7483 L -11.7409 15.7255 L -11.7714 15.7027 L -11.8019 15.6798 L -11.8324 15.6568 L -11.8628 15.6338 L -11.8932 15.6107 L -11.9235 15.5875 L -11.9538 15.5643 L -11.984 15.5411 L -12.0142 15.5177 L -12.0443 15.4944 L -12.0744 15.4709 L -12.1044 15.4474 L -12.1344 15.4239 L -12.1644 15.4003 L -12.1943 15.3766 L -12.2242 15.3529 L -12.254 15.3291 L -12.2838 15.3052 L -12.3135 15.2813 L -12.3432 15.2574 L -12.3728 15.2333 L -12.4024 15.2093 L -12.4319 15.1851 L -12.4614 15.1609 L -12.4909 15.1367 L -12.5203 15.1124 L -12.5496 15.088 L -12.5789 15.0636 L -12.5612 15.0287 L -12.5481 14.9899 L -12.5349 14.9512 L -12.5218 14.9124 L -12.5087 14.8736 L -12.4955 14.8348 L -12.4824 14.796 L -12.4692 14.7572 L -12.4561 14.7184 L -12.4429 14.6795 L -12.4297 14.6407 L -12.4165 14.6018 L -12.4033 14.563 L -12.3901 14.5241 L -12.3769 14.4852 L -12.3637 14.4464 L -12.3505 14.4075 L -12.3372 14.3686 L -12.324 14.3296 L -12.3108 14.2907 L -12.2975 14.2518 L -12.2842 14.2128 L -12.271 14.1739 L -12.2577 14.1349 L -12.2444 14.096 L -12.2311 14.057 L -12.2178 14.018 L -12.2045 13.979 L -12.1911 13.94 L -12.1778 13.901 L -12.1644 13.8619 L -12.1511 13.8229 L -12.1377 13.7838 L -12.1244 13.7448 L -12.111 13.7057 L -12.0976 13.6666 L -12.0842 13.6275 L -12.0708 13.5884 L -12.0574 13.5493 L -12.044 13.5102 L -12.0305 13.4711 L -12.0171 13.4319 L -12.0036 13.3928 L -11.9902 13.3536 L -11.9767 13.3144 L -11.9632 13.2752 L -11.9497 13.236 L -11.9362 13.1968 L -11.9227 13.1576 L -11.9092 13.1184 L -11.8956 13.0791 L -11.8821 13.0399 L -11.8685 13.0006 L -11.855 12.9613 L -11.8414 12.922 L -11.8278 12.8827 L -11.8142 12.8434 L -11.8006 12.8041 L -11.787 12.7648 L -11.7734 12.7254 L -11.7597 12.6861 L -11.7461 12.6467 L -11.7324 12.6073 L -11.7188 12.5679 L -11.7051 12.5285 L -11.6914 12.4891 L -11.6777 12.4497 L -11.664 12.4102 L -11.6502 12.3708 L -11.6365 12.3313 L -11.6227 12.2918 L -11.609 12.2523 L -11.5952 12.2128 L -11.5814 12.1733 L -11.5676 12.1338 L -11.5538 12.0942 L -11.54 12.0547 L -11.5261 12.0151 L -11.5123 11.9755 L -11.4984 11.9359 L -11.4845 11.8963 L -11.4706 11.8567 L -11.4567 11.817 L -11.4428 11.7774 L -11.4289 11.7377 L -11.4149 11.6981 L -11.401 11.6584 L -11.387 11.6187 L -11.373 11.5789 L -11.359 11.5392 L -11.345 11.4995 L -11.331 11.4597 L -11.317 11.4199 L -11.3029 11.3801 L -11.2889 11.3403 L -11.2748 11.3005 L -11.2607 11.2607 L -11.2607 11.2607 L -11.3005 11.2748 L -11.3403 11.2889 L -11.3801 11.3029 L -11.4199 11.317 L -11.4597 11.331 L -11.4995 11.345 L -11.5392 11.359 L -11.5789 11.373 L -11.6187 11.387 L -11.6584 11.401 L -11.6981 11.4149 L -11.7377 11.4289 L -11.7774 11.4428 L -11.817 11.4567 L -11.8567 11.4706 L -11.8963 11.4845 L -11.9359 11.4984 L -11.9755 11.5123 L -12.0151 11.5261 L -12.0547 11.54 L -12.0942 11.5538 L -12.1338 11.5676 L -12.1733 11.5814 L -12.2128 11.5952 L -12.2523 11.609 L -12.2918 11.6227 L -12.3313 11.6365 L -12.3708 11.6502 L -12.4102 11.664 L -12.4497 11.6777 L -12.4891 11.6914 L -12.5285 11.7051 L -12.5679 11.7188 L -12.6073 11.7324 L -12.6467 11.7461 L -12.6861 11.7597 L -12.7254 11.7734 L -12.7648 11.787 L -12.8041 11.8006 L -12.8434 11.8142 L -12.8827 11.8278 L -12.922 11.8414 L -12.9613 11.855 L -13.0006 11.8685 L -13.0399 11.8821 L -13.0791 11.8956 L -13.1184 11.9092 L -13.1576 11.9227 L -13.1968 11.9362 L -13.236 11.9497 L -13.2752 11.9632 L -13.3144 11.9767 L -13.3536 11.9902 L -13.3928 12.0036 L -13.4319 12.0171 L -13.4711 12.0305 L -13.5102 12.044 L -13.5493 12.0574 L -13.5884 12.0708 L -13.6275 12.0842 L -13.6666 12.0976 L -13.7057 12.111 L -13.7448 12.1244 L -13.7838 12.1377 L -13.8229 12.1511 L -13.8619 12.1644 L -13.901 12.1778 L -13.94 12.1911 L -13.979 12.2045 L -14.018 12.2178 L -14.057 12.2311 L -14.096 12.2444 L -14.1349 12.2577 L -14.1739 12.271 L -14.2128 12.2842 L -14.2518 12.2975 L -14.2907 12.3108 L -14.3296 12.324 L -14.3686 12.3372 L -14.4075 12.3505 L -14.4464 12.3637 L -14.4852 12.3769 L -14.5241 12.3901 L -14.563 12.4033 L -14.6018 12.4165 L -14.6407 12.4297 L -14.6795 12.4429 L -14.7184 12.4561 L -14.7572 12.4692 L -14.796 12.4824 L -14.8348 12.4955 L -14.8736 12.5087 L -14.9124 12.5218 L -14.9512 12.5349 L -14.9899 12.5481 L -15.0287 12.5612 L -15.0636 12.5789 L -15.088 12.5496 L -15.1124 12.5203 L -15.1367 12.4909 L -15.1609 12.4614 L -15.1851 12.4319 L -15.2093 12.4024 L -15.2333 12.3728 L -15.2574 12.3432 L -15.2813 12.3135 L -15.3052 12.2838 L -15.3291 12.254 L -15.3529 12.2242 L -15.3766 12.1943 L -15.4003 12.1644 L -15.4239 12.1344 L -15.4474 12.1044 L -15.4709 12.0744 L -15.4944 12.0443 L -15.5177 12.0142 L -15.5411 11.984 L -15.5643 11.9538 L -15.5875 11.9235 L -15.6107 11.8932 L -15.6338 11.8628 L -15.6568 11.8324 L -15.6798 11.8019 L -15.7027 11.7714 L -15.7255 11.7409 L -15.7483 11.7103 L -15.771 11.6797 L -15.7937 11.649 L -15.8163 11.6183 L -15.8389 11.5875 L -15.9149 11.4829 L -15.9372 11.452 L -15.9594 11.421 L -15.9815 11.3899 L -16.0037 11.3589 L -16.0257 11.3277 L -16.0477 11.2966 L -16.0696 11.2653 L -16.0915 11.2341 L -16.1133 11.2028 L -16.135 11.1715 L -16.1567 11.1401 L -16.1783 11.1086 L -16.1999 11.0772 L -16.2214 11.0457 L -16.2428 11.0141 L -16.2642 10.9825 L -16.2855 10.9509 L -16.3068 10.9192 L -16.328 10.8875 L -16.3491 10.8558 L -16.3702 10.824 L -16.3912 10.7921 L -16.4121 10.7602 L -16.433 10.7283 L -16.4538 10.6964 L -16.4746 10.6644 L -16.4953 10.6323 L -16.5159 10.6002 L -16.5365 10.5681 L -16.557 10.536 L -16.5775 10.5038 L -16.5978 10.4715 L -16.6182 10.4392 L -16.5905 10.4115 L -16.5661 10.3787 L -16.5416 10.3459 L -16.5171 10.3131 L -16.4927 10.2802 L -16.4682 10.2474 L -16.4437 10.2146 L -16.4192 10.1817 L -16.3947 10.1489 L -16.3701 10.116 L -16.3456 10.0831 L -16.321 10.0503 L -16.2965 10.0174 L -16.2719 9.9845 L -16.2473 9.95161 L -16.2228 9.91871 L -16.1982 9.8858 L -16.1735 9.85289 L -16.1489 9.81997 L -16.1243 9.78705 L -16.0997 9.75412 L -16.075 9.72118 L -16.0503 9.68824 L -16.0257 9.65529 L -16.001 9.62233 L -15.9763 9.58937 L -15.9516 9.5564 L -15.9269 9.52342 L -15.9021 9.49044 L -15.8774 9.45745 L -15.8526 9.42445 L -15.8279 9.39145 L -15.8031 9.35844 L -15.7783 9.32542 L -15.7535 9.2924 L -15.7287 9.25936 L -15.7039 9.22633 L -15.6791 9.19328 L -15.6542 9.16023 L -15.6294 9.12717 L -15.6045 9.0941 L -15.5796 9.06103 L -15.5547 9.02795 L -15.5298 8.99486 L -15.5049 8.96176 L -15.48 8.92866 L -15.455 8.89555 L -15.43 8.86243 L -15.4051 8.8293 L -15.3801 8.79617 L -15.3551 8.76303 L -15.3301 8.72988 L -15.3051 8.69673 L -15.28 8.66356 L -15.255 8.63039 L -15.2299 8.59721 L -15.2048 8.56403 L -15.1797 8.53083 L -15.1546 8.49763 L -15.1295 8.46442 L -15.1044 8.43121 L -15.0792 8.39798 L -15.0541 8.36475 L -15.0289 8.33151 L -15.0037 8.29826 L -14.9785 8.265 L -14.9533 8.23173 L -14.928 8.19846 L -14.9028 8.16518 L -14.8775 8.13189 L -14.8523 8.09859 L -14.827 8.06528 L -14.8016 8.03197 L -14.7763 7.99865 L -14.751 7.96531 L -14.7256 7.93197 L -14.7002 7.89863 L -14.6749 7.86527 L -14.6495 7.8319 L -14.624 7.79853 L -14.5986 7.76515 L -14.5731 7.73175 L -14.5477 7.69835 L -14.5222 7.66494 L -14.4967 7.63153 L -14.4712 7.5981 L -14.4456 7.56466 L -14.4201 7.53122 L -14.3945 7.49776 L -14.3689 7.4643 L -14.3433 7.43083 L -14.3177 7.39735 L -14.292 7.36385 L -14.2664 7.33035 L -14.2407 7.29685 L -14.215 7.26333 L -14.1893 7.2298 L -14.1893 7.2298 L -14.2315 7.2309 L -14.2737 7.23198 L -14.3159 7.23306 L -14.3581 7.23413 L -14.4003 7.23519 L -14.4424 7.23624 L -14.4846 7.23728 L -14.5267 7.23832 L -14.5688 7.23934 L -14.6109 7.24036 L -14.6529 7.24136 L -14.695 7.24236 L -14.737 7.24335 L -14.779 7.24433 L -14.821 7.24531 L -14.863 7.24627 L -14.9049 7.24723 L -14.9469 7.24818 L -14.9888 7.24912 L -15.0307 7.25005 L -15.0726 7.25098 L -15.1145 7.2519 L -15.1563 7.25281 L -15.1982 7.25371 L -15.24 7.2546 L -15.2818 7.25549 L -15.3236 7.25637 L -15.3654 7.25724 L -15.4072 7.25811 L -15.4489 7.25896 L -15.4907 7.25982 L -15.5324 7.26066 L -15.5741 7.2615 L -15.6158 7.26232 L -15.6575 7.26315 L -15.6991 7.26396 L -15.7408 7.26477 L -15.7824 7.26557 L -15.824 7.26637 L -15.8656 7.26716 L -15.9072 7.26794 L -15.9488 7.26871 L -15.9903 7.26948 L -16.0319 7.27025 L -16.0734 7.271 L -16.1149 7.27175 L -16.1564 7.2725 L -16.1979 7.27323 L -16.2394 7.27397 L -16.2809 7.27469 L -16.3223 7.27541 L -16.3638 7.27612 L -16.4052 7.27683 L -16.4466 7.27753 L -16.488 7.27823 L -16.5294 7.27892 L -16.5707 7.2796 L -16.6121 7.28028 L -16.6534 7.28095 L -16.6948 7.28162 L -16.7361 7.28228 L -16.7774 7.28294 L -16.8187 7.28359 L -16.86 7.28423 L -16.9012 7.28487 L -16.9425 7.28551 L -16.9837 7.28614 L -17.025 7.28676 L -17.0662 7.28738 L -17.1074 7.28799 L -17.1486 7.2886 L -17.1898 7.2892 L -17.2309 7.2898 L -17.2721 7.2904 L -17.3133 7.29098 L -17.3544 7.29157 L -17.3955 7.29215 L -17.4366 7.29272 L -17.4777 7.29329 L -17.5188 7.29385 L -17.5599 7.29441 L -17.601 7.29497 L -17.642 7.29552 L -17.6831 7.29606 L -17.7241 7.2966 L -17.7651 7.29714 L -17.8061 7.29767 L -17.8471 7.2982 L -17.8881 7.29872 L -17.9291 7.29924 L -17.9701 7.29975 L -18.011 7.30026 L -18.052 7.30077 L -18.0929 7.30127 L -18.1338 7.30177 L -18.1748 7.30226 L -18.2134 7.30835 L -18.2276 7.27293 L -18.2417 7.23749 L -18.2557 7.20202 L -18.2697 7.16652 L -18.2836 7.131 L -18.2974 7.09545 L -18.3112 7.05987 L -18.3249 7.02427 L -18.3385 6.98864 L -18.352 6.95298 L -18.3655 6.9173 L -18.3789 6.88159 L -18.3923 6.84585 L -18.4055 6.81009 L -18.4187 6.7743 L -18.4319 6.73849 L -18.4449 6.70265 L -18.4579 6.66679 L -18.4708 6.6309 L -18.4837 6.59499 L -18.4965 6.55905 L -18.5092 6.52309 L -18.5218 6.4871 L -18.5344 6.45109 L -18.5469 6.41505 L -18.5593 6.37899 L -18.5717 6.3429 L -18.584 6.3068 L -18.5962 6.27066 L -18.6084 6.23451 L -18.6205 6.19833 L -18.6325 6.16212 L -18.6444 6.1259 L -18.6844 6.00296 L -18.696 5.96663 L -18.7075 5.93028 L -18.719 5.89391 L -18.7305 5.85751 L -18.7418 5.8211 L -18.7531 5.78466 L -18.7643 5.7482 L -18.7754 5.71171 L -18.7865 5.67521 L -18.7975 5.63868 L -18.8084 5.60214 L -18.8193 5.56557 L -18.8301 5.52898 L -18.8408 5.49237 L -18.8514 5.45574 L -18.862 5.41909 L -18.8725 5.38242 L -18.8829 5.34573 L -18.8933 5.30902 L -18.9035 5.27228 L -18.9137 5.23553 L -18.9239 5.19876 L -18.934 5.16197 L -18.944 5.12516 L -18.9539 5.08833 L -18.9637 5.05148 L -18.9735 5.01461 L -18.9832 4.97772 L -18.9929 4.94082 L -19.0024 4.90389 L -19.0119 4.86695 L -19.0214 4.82998 L -19.0307 4.793 L -18.9959 4.7752 L -18.9625 4.75155 L -18.9291 4.7279 L -18.8956 4.70424 L -18.8622 4.68058 L -18.8288 4.65692 L -18.7953 4.63325 L -18.7619 4.60959 L -18.7284 4.58592 L -18.6949 4.56224 L -18.6614 4.53857 L -18.6279 4.51489 L -18.5944 4.49121 L -18.5609 4.46752 L -18.5274 4.44384 L -18.4938 4.42015 L -18.4602 4.39645 L -18.4267 4.37276 L -18.3931 4.34906 L -18.3595 4.32536 L -18.3259 4.30165 L -18.2922 4.27795 L -18.2586 4.25424 L -18.225 4.23052 L -18.1913 4.20681 L -18.1576 4.18309 L -18.1239 4.15937 L -18.0903 4.13564 L -18.0565 4.11191 L -18.0228 4.08818 L -17.9891 4.06445 L -17.9553 4.04071 L -17.9216 4.01697 L -17.8878 3.99323 L -17.854 3.96949 L -17.8202 3.94574 L -17.7864 3.92199 L -17.7526 3.89823 L -17.7187 3.87448 L -17.6849 3.85071 L -17.651 3.82695 L -17.6171 3.80319 L -17.5832 3.77942 L -17.5493 3.75564 L -17.5154 3.73187 L -17.4814 3.70809 L -17.4475 3.68431 L -17.4135 3.66052 L -17.3795 3.63674 L -17.3455 3.61295 L -17.3115 3.58915 L -17.2775 3.56535 L -17.2434 3.54155 L -17.2094 3.51775 L -17.1753 3.49395 L -17.1412 3.47014 L -17.1071 3.44632 L -17.073 3.42251 L -17.0388 3.39869 L -17.0047 3.37487 L -16.9705 3.35104 L -16.9363 3.32722 L -16.9021 3.30338 L -16.8679 3.27955 L -16.8337 3.25571 L -16.7994 3.23187 L -16.7652 3.20803 L -16.7309 3.18418 L -16.6966 3.16033 L -16.6623 3.13648 L -16.6279 3.11262 L -16.5936 3.08876 L -16.5592 3.0649 L -16.5248 3.04103 L -16.4904 3.01716 L -16.456 2.99329 L -16.4216 2.96941 L -16.3871 2.94553 L -16.3526 2.92165 L -16.3182 2.89777 L -16.2837 2.87388 L -16.2491 2.84999 L -16.2146 2.82609 L -16.18 2.80219 L -16.1454 2.77829 L -16.1108 2.75439 L -16.0762 2.73048 L -16.0416 2.70657 L -16.0069 2.68265 L -15.9722 2.65873 L -15.9375 2.63481 L -15.9028 2.61089 L -15.8681 2.58696 L -15.8333 2.56303 L -15.7986 2.5391 L -15.7638 2.51516 L -15.7289 2.49122 L -15.7289 2.49122 L -15.7694 2.47921 L -15.8099 2.4672 L -15.8504 2.45518 L -15.8909 2.44316 L -15.9313 2.43114 L -15.9717 2.41911 L -16.0121 2.40709 L -16.0525 2.39505 L -16.0928 2.38302 L -16.1332 2.37098 L -16.1735 2.35894 L -16.2138 2.3469 L -16.254 2.33486 L -16.2943 2.32281 L -16.3345 2.31076 L -16.3747 2.2987 L -16.415 2.28665 L -16.4551 2.27459 L -16.4953 2.26253 L -16.5354 2.25047 L -16.5756 2.2384 L -16.6157 2.22633 L -16.6558 2.21426 L -16.6959 2.20219 L -16.7359 2.19011 L -16.776 2.17804 L -16.816 2.16596 L -16.856 2.15387 L -16.896 2.14179 L -16.9359 2.1297 L -16.9759 2.11762 L -17.0158 2.10553 L -17.0558 2.09343 L -17.0957 2.08134 L -17.1356 2.06924 L -17.1754 2.05714 L -17.2153 2.04504 L -17.2551 2.03294 L -17.295 2.02084 L -17.3348 2.00873 L -17.3746 1.99662 L -17.4144 1.98451 L -17.4541 1.9724 L -17.4939 1.96029 L -17.5336 1.94817 L -17.5733 1.93606 L -17.613 1.92394 L -17.6527 1.91182 L -17.6924 1.8997 L -17.732 1.88758 L -17.7717 1.87545 L -17.8113 1.86333 L -17.8509 1.8512 L -17.8905 1.83907 L -17.9301 1.82694 L -17.9697 1.81481 L -18.0092 1.80267 L -18.0488 1.79054 L -18.0883 1.7784 L -18.1278 1.76626 L -18.1673 1.75412 L -18.2068 1.74198 L -18.2463 1.72984 L -18.2857 1.7177 L -18.3252 1.70556 L -18.3646 1.69341 L -18.404 1.68126 L -18.4434 1.66912 L -18.4828 1.65697 L -18.5222 1.64482 L -18.5616 1.63266 L -18.6009 1.62051 L -18.6403 1.60836 L -18.6796 1.5962 L -18.7189 1.58405 L -18.7582 1.57189 L -18.7975 1.55973 L -18.8368 1.54757 L -18.8761 1.53541 L -18.9153 1.52325 L -18.9546 1.51109 L -18.9938 1.49893 L -19.033 1.48676 L -19.0722 1.4746 L -19.1114 1.46243 L -19.1506 1.45027 L -19.1897 1.4381 L -19.2289 1.42593 L -19.268 1.41376 L -19.3072 1.40159 L -19.3463 1.38942 L -19.3854 1.37725 L -19.4245 1.36508 L -19.4636 1.3529 L -19.5027 1.34073 L -19.5417 1.32855 L -19.5804 1.32239 L -19.5829 1.28433 L -19.5854 1.24627 L -19.5878 1.2082 L -19.5901 1.17012 L -19.5923 1.13205 L -19.5945 1.09396 L -19.5966 1.05588 L -19.5986 1.01778 L -19.6005 0.97969 L -19.6024 0.941591 L -19.6042 0.903489 L -19.6059 0.865383 L -19.6076 0.827274 L -19.6091 0.789162 L -19.6106 0.751048 L -19.612 0.71293 L -19.6134 0.674809 L -19.6147 0.636686 L -19.6159 0.598561 L -19.617 0.560433 L -19.618 0.522303 L -19.619 0.484172 L -19.6199 0.446038 L -19.6208 0.407903 L -19.6215 0.369766 L -19.6222 0.331628 L -19.6228 0.293488 L -19.6233 0.255347 L -19.6238 0.217206 L -19.6242 0.179064 L -19.6245 0.14092 L -19.6247 0.102777 L -19.6249 0.0646329 L -19.6249 -0.0646329 L -19.6247 -0.102777 L -19.6245 -0.14092 L -19.6242 -0.179064 L -19.6238 -0.217206 L -19.6233 -0.255347 L -19.6228 -0.293488 L -19.6222 -0.331628 L -19.6215 -0.369766 L -19.6208 -0.407903 L -19.6199 -0.446038 L -19.619 -0.484172 L -19.618 -0.522303 L -19.617 -0.560433 L -19.6159 -0.598561 L -19.6147 -0.636686 L -19.6134 -0.674809 L -19.612 -0.71293 L -19.6106 -0.751048 L -19.6091 -0.789162 L -19.6076 -0.827274 L -19.6059 -0.865383 L -19.6042 -0.903489 L -19.6024 -0.941591 L -19.6005 -0.97969 L -19.5986 -1.01778 L -19.5966 -1.05588 L -19.5945 -1.09396 L -19.5923 -1.13205 L -19.5901 -1.17012 L -19.5878 -1.2082 L -19.5854 -1.24627 L -19.5829 -1.28433 L -19.5804 -1.32239 L -19.5417 -1.32855 L -19.5027 -1.34073 L -19.4636 -1.3529 L -19.4245 -1.36508 L -19.3854 -1.37725 L -19.3463 -1.38942 L -19.3072 -1.40159 L -19.268 -1.41376 L -19.2289 -1.42593 L -19.1897 -1.4381 L -19.1506 -1.45027 L -19.1114 -1.46243 L -19.0722 -1.4746 L -19.033 -1.48676 L -18.9938 -1.49893 L -18.9546 -1.51109 L -18.9153 -1.52325 L -18.8761 -1.53541 L -18.8368 -1.54757 L -18.7975 -1.55973 L -18.7582 -1.57189 L -18.7189 -1.58405 L -18.6796 -1.5962 L -18.6403 -1.60836 L -18.6009 -1.62051 L -18.5616 -1.63266 L -18.5222 -1.64482 L -18.4828 -1.65697 L -18.4434 -1.66912 L -18.404 -1.68126 L -18.3646 -1.69341 L -18.3252 -1.70556 L -18.2857 -1.7177 L -18.2463 -1.72984 L -18.2068 -1.74198 L -18.1673 -1.75412 L -18.1278 -1.76626 L -18.0883 -1.7784 L -18.0488 -1.79054 L -18.0092 -1.80267 L -17.9697 -1.81481 L -17.9301 -1.82694 L -17.8905 -1.83907 L -17.8509 -1.8512 L -17.8113 -1.86333 L -17.7717 -1.87545 L -17.732 -1.88758 L -17.6924 -1.8997 L -17.6527 -1.91182 L -17.613 -1.92394 L -17.5733 -1.93606 L -17.5336 -1.94817 L -17.4939 -1.96029 L -17.4541 -1.9724 L -17.4144 -1.98451 L -17.3746 -1.99662 L -17.3348 -2.00873 L -17.295 -2.02084 L -17.2551 -2.03294 L -17.2153 -2.04504 L -17.1754 -2.05714 L -17.1356 -2.06924 L -17.0957 -2.08134 L -17.0558 -2.09343 L -17.0158 -2.10553 L -16.9759 -2.11762 L -16.9359 -2.1297 L -16.896 -2.14179 L -16.856 -2.15387 L -16.816 -2.16596 L -16.776 -2.17804 L -16.7359 -2.19011 L -16.6959 -2.20219 L -16.6558 -2.21426 L -16.6157 -2.22633 L -16.5756 -2.2384 L -16.5354 -2.25047 L -16.4953 -2.26253 L -16.4551 -2.27459 L -16.415 -2.28665 L -16.3747 -2.2987 L -16.3345 -2.31076 L -16.2943 -2.32281 L -16.254 -2.33486 L -16.2138 -2.3469 L -16.1735 -2.35894 L -16.1332 -2.37098 L -16.0928 -2.38302 L -16.0525 -2.39505 L -16.0121 -2.40709 L -15.9717 -2.41911 L -15.9313 -2.43114 L -15.8909 -2.44316 L -15.8504 -2.45518 L -15.8099 -2.4672 L -15.7694 -2.47921 L -15.7289 -2.49122 L -15.7289 -2.49122 L -15.7638 -2.51516 L -15.7986 -2.5391 L -15.8333 -2.56303 L -15.8681 -2.58696 L -15.9028 -2.61089 L -15.9375 -2.63481 L -15.9722 -2.65873 L -16.0069 -2.68265 L -16.0416 -2.70657 L -16.0762 -2.73048 L -16.1108 -2.75439 L -16.1454 -2.77829 L -16.18 -2.80219 L -16.2146 -2.82609 L -16.2491 -2.84999 L -16.2837 -2.87388 L -16.3182 -2.89777 L -16.3526 -2.92165 L -16.3871 -2.94553 L -16.4216 -2.96941 L -16.456 -2.99329 L -16.4904 -3.01716 L -16.5248 -3.04103 L -16.5592 -3.0649 L -16.5936 -3.08876 L -16.6279 -3.11262 L -16.6623 -3.13648 L -16.6966 -3.16033 L -16.7309 -3.18418 L -16.7652 -3.20803 L -16.7994 -3.23187 L -16.8337 -3.25571 L -16.8679 -3.27955 L -16.9021 -3.30338 L -16.9363 -3.32722 L -16.9705 -3.35104 L -17.0047 -3.37487 L -17.0388 -3.39869 L -17.073 -3.42251 L -17.1071 -3.44632 L -17.1412 -3.47014 L -17.1753 -3.49395 L -17.2094 -3.51775 L -17.2434 -3.54155 L -17.2775 -3.56535 L -17.3115 -3.58915 L -17.3455 -3.61295 L -17.3795 -3.63674 L -17.4135 -3.66052 L -17.4475 -3.68431 L -17.4814 -3.70809 L -17.5154 -3.73187 L -17.5493 -3.75564 L -17.5832 -3.77942 L -17.6171 -3.80319 L -17.651 -3.82695 L -17.6849 -3.85071 L -17.7187 -3.87448 L -17.7526 -3.89823 L -17.7864 -3.92199 L -17.8202 -3.94574 L -17.854 -3.96949 L -17.8878 -3.99323 L -17.9216 -4.01697 L -17.9553 -4.04071 L -17.9891 -4.06445 L -18.0228 -4.08818 L -18.0565 -4.11191 L -18.0903 -4.13564 L -18.1239 -4.15937 L -18.1576 -4.18309 L -18.1913 -4.20681 L -18.225 -4.23052 L -18.2586 -4.25424 L -18.2922 -4.27795 L -18.3259 -4.30165 L -18.3595 -4.32536 L -18.3931 -4.34906 L -18.4267 -4.37276 L -18.4602 -4.39645 L -18.4938 -4.42015 L -18.5274 -4.44384 L -18.5609 -4.46752 L -18.5944 -4.49121 L -18.6279 -4.51489 L -18.6614 -4.53857 L -18.6949 -4.56224 L -18.7284 -4.58592 L -18.7619 -4.60959 L -18.7953 -4.63325 L -18.8288 -4.65692 L -18.8622 -4.68058 L -18.8956 -4.70424 L -18.9291 -4.7279 L -18.9625 -4.75155 L -18.9959 -4.7752 L -19.0307 -4.793 L -19.0214 -4.82998 L -19.0119 -4.86695 L -19.0024 -4.90389 L -18.9929 -4.94082 L -18.9832 -4.97772 L -18.9735 -5.01461 L -18.9637 -5.05148 L -18.9539 -5.08833 L -18.944 -5.12516 L -18.934 -5.16197 L -18.9239 -5.19876 L -18.9137 -5.23553 L -18.9035 -5.27228 L -18.8933 -5.30902 L -18.8829 -5.34573 L -18.8725 -5.38242 L -18.862 -5.41909 L -18.8514 -5.45574 L -18.8408 -5.49237 L -18.8301 -5.52898 L -18.8193 -5.56557 L -18.8084 -5.60214 L -18.7975 -5.63868 L -18.7865 -5.67521 L -18.7754 -5.71171 L -18.7643 -5.7482 L -18.7531 -5.78466 L -18.7418 -5.8211 L -18.7305 -5.85751 L -18.719 -5.89391 L -18.7075 -5.93028 L -18.696 -5.96663 L -18.6844 -6.00296 L -18.6444 -6.1259 L -18.6325 -6.16212 L -18.6205 -6.19833 L -18.6084 -6.23451 L -18.5962 -6.27066 L -18.584 -6.3068 L -18.5717 -6.3429 L -18.5593 -6.37899 L -18.5469 -6.41505 L -18.5344 -6.45109 L -18.5218 -6.4871 L -18.5092 -6.52309 L -18.4965 -6.55905 L -18.4837 -6.59499 L -18.4708 -6.6309 L -18.4579 -6.66679 L -18.4449 -6.70265 L -18.4319 -6.73849 L -18.4187 -6.7743 L -18.4055 -6.81009 L -18.3923 -6.84585 L -18.3789 -6.88159 L -18.3655 -6.9173 L -18.352 -6.95298 L -18.3385 -6.98864 L -18.3249 -7.02427 L -18.3112 -7.05987 L -18.2974 -7.09545 L -18.2836 -7.131 L -18.2697 -7.16652 L -18.2557 -7.20202 L -18.2417 -7.23749 L -18.2276 -7.27293 L -18.2134 -7.30835 L -18.1748 -7.30226 L -18.1338 -7.30177 L -18.0929 -7.30127 L -18.052 -7.30077 L -18.011 -7.30026 L -17.9701 -7.29975 L -17.9291 -7.29924 L -17.8881 -7.29872 L -17.8471 -7.2982 L -17.8061 -7.29767 L -17.7651 -7.29714 L -17.7241 -7.2966 L -17.6831 -7.29606 L -17.642 -7.29552 L -17.601 -7.29497 L -17.5599 -7.29441 L -17.5188 -7.29385 L -17.4777 -7.29329 L -17.4366 -7.29272 L -17.3955 -7.29215 L -17.3544 -7.29157 L -17.3133 -7.29098 L -17.2721 -7.2904 L -17.2309 -7.2898 L -17.1898 -7.2892 L -17.1486 -7.2886 L -17.1074 -7.28799 L -17.0662 -7.28738 L -17.025 -7.28676 L -16.9837 -7.28614 L -16.9425 -7.28551 L -16.9012 -7.28487 L -16.86 -7.28423 L -16.8187 -7.28359 L -16.7774 -7.28294 L -16.7361 -7.28228 L -16.6948 -7.28162 L -16.6534 -7.28095 L -16.6121 -7.28028 L -16.5707 -7.2796 L -16.5294 -7.27892 L -16.488 -7.27823 L -16.4466 -7.27753 L -16.4052 -7.27683 L -16.3638 -7.27612 L -16.3223 -7.27541 L -16.2809 -7.27469 L -16.2394 -7.27397 L -16.1979 -7.27323 L -16.1564 -7.2725 L -16.1149 -7.27175 L -16.0734 -7.271 L -16.0319 -7.27025 L -15.9903 -7.26948 L -15.9488 -7.26871 L -15.9072 -7.26794 L -15.8656 -7.26716 L -15.824 -7.26637 L -15.7824 -7.26557 L -15.7408 -7.26477 L -15.6991 -7.26396 L -15.6575 -7.26315 L -15.6158 -7.26232 L -15.5741 -7.2615 L -15.5324 -7.26066 L -15.4907 -7.25982 L -15.4489 -7.25896 L -15.4072 -7.25811 L -15.3654 -7.25724 L -15.3236 -7.25637 L -15.2818 -7.25549 L -15.24 -7.2546 L -15.1982 -7.25371 L -15.1563 -7.25281 L -15.1145 -7.2519 L -15.0726 -7.25098 L -15.0307 -7.25005 L -14.9888 -7.24912 L -14.9469 -7.24818 L -14.9049 -7.24723 L -14.863 -7.24627 L -14.821 -7.24531 L -14.779 -7.24433 L -14.737 -7.24335 L -14.695 -7.24236 L -14.6529 -7.24136 L -14.6109 -7.24036 L -14.5688 -7.23934 L -14.5267 -7.23832 L -14.4846 -7.23728 L -14.4424 -7.23624 L -14.4003 -7.23519 L -14.3581 -7.23413 L -14.3159 -7.23306 L -14.2737 -7.23198 L -14.2315 -7.2309 L -14.1893 -7.2298 L -14.1893 -7.2298 L -14.215 -7.26333 L -14.2407 -7.29685 L -14.2664 -7.33035 L -14.292 -7.36385 L -14.3177 -7.39735 L -14.3433 -7.43083 L -14.3689 -7.4643 L -14.3945 -7.49776 L -14.4201 -7.53122 L -14.4456 -7.56466 L -14.4712 -7.5981 L -14.4967 -7.63153 L -14.5222 -7.66494 L -14.5477 -7.69835 L -14.5731 -7.73175 L -14.5986 -7.76515 L -14.624 -7.79853 L -14.6495 -7.8319 L -14.6749 -7.86527 L -14.7002 -7.89863 L -14.7256 -7.93197 L -14.751 -7.96531 L -14.7763 -7.99865 L -14.8016 -8.03197 L -14.827 -8.06528 L -14.8523 -8.09859 L -14.8775 -8.13189 L -14.9028 -8.16518 L -14.928 -8.19846 L -14.9533 -8.23173 L -14.9785 -8.265 L -15.0037 -8.29826 L -15.0289 -8.33151 L -15.0541 -8.36475 L -15.0792 -8.39798 L -15.1044 -8.43121 L -15.1295 -8.46442 L -15.1546 -8.49763 L -15.1797 -8.53083 L -15.2048 -8.56403 L -15.2299 -8.59721 L -15.255 -8.63039 L -15.28 -8.66356 L -15.3051 -8.69673 L -15.3301 -8.72988 L -15.3551 -8.76303 L -15.3801 -8.79617 L -15.4051 -8.8293 L -15.43 -8.86243 L -15.455 -8.89555 L -15.48 -8.92866 L -15.5049 -8.96176 L -15.5298 -8.99486 L -15.5547 -9.02795 L -15.5796 -9.06103 L -15.6045 -9.0941 L -15.6294 -9.12717 L -15.6542 -9.16023 L -15.6791 -9.19328 L -15.7039 -9.22633 L -15.7287 -9.25936 L -15.7535 -9.2924 L -15.7783 -9.32542 L -15.8031 -9.35844 L -15.8279 -9.39145 L -15.8526 -9.42445 L -15.8774 -9.45745 L -15.9021 -9.49044 L -15.9269 -9.52342 L -15.9516 -9.5564 L -15.9763 -9.58937 L -16.001 -9.62233 L -16.0257 -9.65529 L -16.0503 -9.68824 L -16.075 -9.72118 L -16.0997 -9.75412 L -16.1243 -9.78705 L -16.1489 -9.81997 L -16.1735 -9.85289 L -16.1982 -9.8858 L -16.2228 -9.91871 L -16.2473 -9.95161 L -16.2719 -9.9845 L -16.2965 -10.0174 L -16.321 -10.0503 L -16.3456 -10.0831 L -16.3701 -10.116 L -16.3947 -10.1489 L -16.4192 -10.1817 L -16.4437 -10.2146 L -16.4682 -10.2474 L -16.4927 -10.2802 L -16.5171 -10.3131 L -16.5416 -10.3459 L -16.5661 -10.3787 L -16.5905 -10.4115 L -16.6182 -10.4392 L -16.5978 -10.4715 L -16.5775 -10.5038 L -16.557 -10.536 L -16.5365 -10.5681 L -16.5159 -10.6002 L -16.4953 -10.6323 L -16.4746 -10.6644 L -16.4538 -10.6964 L -16.433 -10.7283 L -16.4121 -10.7602 L -16.3912 -10.7921 L -16.3702 -10.824 L -16.3491 -10.8558 L -16.328 -10.8875 L -16.3068 -10.9192 L -16.2855 -10.9509 L -16.2642 -10.9825 L -16.2428 -11.0141 L -16.2214 -11.0457 L -16.1999 -11.0772 L -16.1783 -11.1086 L -16.1567 -11.1401 L -16.135 -11.1715 L -16.1133 -11.2028 L -16.0915 -11.2341 L -16.0696 -11.2653 L -16.0477 -11.2966 L -16.0257 -11.3277 L -16.0037 -11.3589 L -15.9815 -11.3899 L -15.9594 -11.421 L -15.9372 -11.452 L -15.9149 -11.4829 L -15.8389 -11.5875 L -15.8163 -11.6183 L -15.7937 -11.649 L -15.771 -11.6797 L -15.7483 -11.7103 L -15.7255 -11.7409 L -15.7027 -11.7714 L -15.6798 -11.8019 L -15.6568 -11.8324 L -15.6338 -11.8628 L -15.6107 -11.8932 L -15.5875 -11.9235 L -15.5643 -11.9538 L -15.5411 -11.984 L -15.5177 -12.0142 L -15.4944 -12.0443 L -15.4709 -12.0744 L -15.4474 -12.1044 L -15.4239 -12.1344 L -15.4003 -12.1644 L -15.3766 -12.1943 L -15.3529 -12.2242 L -15.3291 -12.254 L -15.3052 -12.2838 L -15.2813 -12.3135 L -15.2574 -12.3432 L -15.2333 -12.3728 L -15.2093 -12.4024 L -15.1851 -12.4319 L -15.1609 -12.4614 L -15.1367 -12.4909 L -15.1124 -12.5203 L -15.088 -12.5496 L -15.0636 -12.5789 L -15.0287 -12.5612 L -14.9899 -12.5481 L -14.9512 -12.5349 L -14.9124 -12.5218 L -14.8736 -12.5087 L -14.8348 -12.4955 L -14.796 -12.4824 L -14.7572 -12.4692 L -14.7184 -12.4561 L -14.6795 -12.4429 L -14.6407 -12.4297 L -14.6018 -12.4165 L -14.563 -12.4033 L -14.5241 -12.3901 L -14.4852 -12.3769 L -14.4464 -12.3637 L -14.4075 -12.3505 L -14.3686 -12.3372 L -14.3296 -12.324 L -14.2907 -12.3108 L -14.2518 -12.2975 L -14.2128 -12.2842 L -14.1739 -12.271 L -14.1349 -12.2577 L -14.096 -12.2444 L -14.057 -12.2311 L -14.018 -12.2178 L -13.979 -12.2045 L -13.94 -12.1911 L -13.901 -12.1778 L -13.8619 -12.1644 L -13.8229 -12.1511 L -13.7838 -12.1377 L -13.7448 -12.1244 L -13.7057 -12.111 L -13.6666 -12.0976 L -13.6275 -12.0842 L -13.5884 -12.0708 L -13.5493 -12.0574 L -13.5102 -12.044 L -13.4711 -12.0305 L -13.4319 -12.0171 L -13.3928 -12.0036 L -13.3536 -11.9902 L -13.3144 -11.9767 L -13.2752 -11.9632 L -13.236 -11.9497 L -13.1968 -11.9362 L -13.1576 -11.9227 L -13.1184 -11.9092 L -13.0791 -11.8956 L -13.0399 -11.8821 L -13.0006 -11.8685 L -12.9613 -11.855 L -12.922 -11.8414 L -12.8827 -11.8278 L -12.8434 -11.8142 L -12.8041 -11.8006 L -12.7648 -11.787 L -12.7254 -11.7734 L -12.6861 -11.7597 L -12.6467 -11.7461 L -12.6073 -11.7324 L -12.5679 -11.7188 L -12.5285 -11.7051 L -12.4891 -11.6914 L -12.4497 -11.6777 L -12.4102 -11.664 L -12.3708 -11.6502 L -12.3313 -11.6365 L -12.2918 -11.6227 L -12.2523 -11.609 L -12.2128 -11.5952 L -12.1733 -11.5814 L -12.1338 -11.5676 L -12.0942 -11.5538 L -12.0547 -11.54 L -12.0151 -11.5261 L -11.9755 -11.5123 L -11.9359 -11.4984 L -11.8963 -11.4845 L -11.8567 -11.4706 L -11.817 -11.4567 L -11.7774 -11.4428 L -11.7377 -11.4289 L -11.6981 -11.4149 L -11.6584 -11.401 L -11.6187 -11.387 L -11.5789 -11.373 L -11.5392 -11.359 L -11.4995 -11.345 L -11.4597 -11.331 L -11.4199 -11.317 L -11.3801 -11.3029 L -11.3403 -11.2889 L -11.3005 -11.2748 L -11.2607 -11.2607 L -11.2607 -11.2607 L -11.2748 -11.3005 L -11.2889 -11.3403 L -11.3029 -11.3801 L -11.317 -11.4199 L -11.331 -11.4597 L -11.345 -11.4995 L -11.359 -11.5392 L -11.373 -11.5789 L -11.387 -11.6187 L -11.401 -11.6584 L -11.4149 -11.6981 L -11.4289 -11.7377 L -11.4428 -11.7774 L -11.4567 -11.817 L -11.4706 -11.8567 L -11.4845 -11.8963 L -11.4984 -11.9359 L -11.5123 -11.9755 L -11.5261 -12.0151 L -11.54 -12.0547 L -11.5538 -12.0942 L -11.5676 -12.1338 L -11.5814 -12.1733 L -11.5952 -12.2128 L -11.609 -12.2523 L -11.6227 -12.2918 L -11.6365 -12.3313 L -11.6502 -12.3708 L -11.664 -12.4102 L -11.6777 -12.4497 L -11.6914 -12.4891 L -11.7051 -12.5285 L -11.7188 -12.5679 L -11.7324 -12.6073 L -11.7461 -12.6467 L -11.7597 -12.6861 L -11.7734 -12.7254 L -11.787 -12.7648 L -11.8006 -12.8041 L -11.8142 -12.8434 L -11.8278 -12.8827 L -11.8414 -12.922 L -11.855 -12.9613 L -11.8685 -13.0006 L -11.8821 -13.0399 L -11.8956 -13.0791 L -11.9092 -13.1184 L -11.9227 -13.1576 L -11.9362 -13.1968 L -11.9497 -13.236 L -11.9632 -13.2752 L -11.9767 -13.3144 L -11.9902 -13.3536 L -12.0036 -13.3928 L -12.0171 -13.4319 L -12.0305 -13.4711 L -12.044 -13.5102 L -12.0574 -13.5493 L -12.0708 -13.5884 L -12.0842 -13.6275 L -12.0976 -13.6666 L -12.111 -13.7057 L -12.1244 -13.7448 L -12.1377 -13.7838 L -12.1511 -13.8229 L -12.1644 -13.8619 L -12.1778 -13.901 L -12.1911 -13.94 L -12.2045 -13.979 L -12.2178 -14.018 L -12.2311 -14.057 L -12.2444 -14.096 L -12.2577 -14.1349 L -12.271 -14.1739 L -12.2842 -14.2128 L -12.2975 -14.2518 L -12.3108 -14.2907 L -12.324 -14.3296 L -12.3372 -14.3686 L -12.3505 -14.4075 L -12.3637 -14.4464 L -12.3769 -14.4852 L -12.3901 -14.5241 L -12.4033 -14.563 L -12.4165 -14.6018 L -12.4297 -14.6407 L -12.4429 -14.6795 L -12.4561 -14.7184 L -12.4692 -14.7572 L -12.4824 -14.796 L -12.4955 -14.8348 L -12.5087 -14.8736 L -12.5218 -14.9124 L -12.5349 -14.9512 L -12.5481 -14.9899 L -12.5612 -15.0287 L -12.5789 -15.0636 L -12.5496 -15.088 L -12.5203 -15.1124 L -12.4909 -15.1367 L -12.4614 -15.1609 L -12.4319 -15.1851 L -12.4024 -15.2093 L -12.3728 -15.2333 L -12.3432 -15.2574 L -12.3135 -15.2813 L -12.2838 -15.3052 L -12.254 -15.3291 L -12.2242 -15.3529 L -12.1943 -15.3766 L -12.1644 -15.4003 L -12.1344 -15.4239 L -12.1044 -15.4474 L -12.0744 -15.4709 L -12.0443 -15.4944 L -12.0142 -15.5177 L -11.984 -15.5411 L -11.9538 -15.5643 L -11.9235 -15.5875 L -11.8932 -15.6107 L -11.8628 -15.6338 L -11.8324 -15.6568 L -11.8019 -15.6798 L -11.7714 -15.7027 L -11.7409 -15.7255 L -11.7103 -15.7483 L -11.6797 -15.771 L -11.649 -15.7937 L -11.6183 -15.8163 L -11.5875 -15.8389 L -11.4829 -15.9149 L -11.452 -15.9372 L -11.421 -15.9594 L -11.3899 -15.9815 L -11.3589 -16.0037 L -11.3277 -16.0257 L -11.2966 -16.0477 L -11.2653 -16.0696 L -11.2341 -16.0915 L -11.2028 -16.1133 L -11.1715 -16.135 L -11.1401 -16.1567 L -11.1086 -16.1783 L -11.0772 -16.1999 L -11.0457 -16.2214 L -11.0141 -16.2428 L -10.9825 -16.2642 L -10.9509 -16.2855 L -10.9192 -16.3068 L -10.8875 -16.328 L -10.8558 -16.3491 L -10.824 -16.3702 L -10.7921 -16.3912 L -10.7602 -16.4121 L -10.7283 -16.433 L -10.6964 -16.4538 L -10.6644 -16.4746 L -10.6323 -16.4953 L -10.6002 -16.5159 L -10.5681 -16.5365 L -10.536 -16.557 L -10.5038 -16.5775 L -10.4715 -16.5978 L -10.4392 -16.6182 L -10.4115 -16.5905 L -10.3787 -16.5661 L -10.3459 -16.5416 L -10.3131 -16.5171 L -10.2802 -16.4927 L -10.2474 -16.4682 L -10.2146 -16.4437 L -10.1817 -16.4192 L -10.1489 -16.3947 L -10.116 -16.3701 L -10.0831 -16.3456 L -10.0503 -16.321 L -10.0174 -16.2965 L -9.9845 -16.2719 L -9.95161 -16.2473 L -9.91871 -16.2228 L -9.8858 -16.1982 L -9.85289 -16.1735 L -9.81997 -16.1489 L -9.78705 -16.1243 L -9.75412 -16.0997 L -9.72118 -16.075 L -9.68824 -16.0503 L -9.65529 -16.0257 L -9.62233 -16.001 L -9.58937 -15.9763 L -9.5564 -15.9516 L -9.52342 -15.9269 L -9.49044 -15.9021 L -9.45745 -15.8774 L -9.42445 -15.8526 L -9.39145 -15.8279 L -9.35844 -15.8031 L -9.32542 -15.7783 L -9.2924 -15.7535 L -9.25936 -15.7287 L -9.22633 -15.7039 L -9.19328 -15.6791 L -9.16023 -15.6542 L -9.12717 -15.6294 L -9.0941 -15.6045 L -9.06103 -15.5796 L -9.02795 -15.5547 L -8.99486 -15.5298 L -8.96176 -15.5049 L -8.92866 -15.48 L -8.89555 -15.455 L -8.86243 -15.43 L -8.8293 -15.4051 L -8.79617 -15.3801 L -8.76303 -15.3551 L -8.72988 -15.3301 L -8.69673 -15.3051 L -8.66356 -15.28 L -8.63039 -15.255 L -8.59721 -15.2299 L -8.56403 -15.2048 L -8.53083 -15.1797 L -8.49763 -15.1546 L -8.46442 -15.1295 L -8.43121 -15.1044 L -8.39798 -15.0792 L -8.36475 -15.0541 L -8.33151 -15.0289 L -8.29826 -15.0037 L -8.265 -14.9785 L -8.23173 -14.9533 L -8.19846 -14.928 L -8.16518 -14.9028 L -8.13189 -14.8775 L -8.09859 -14.8523 L -8.06528 -14.827 L -8.03197 -14.8016 L -7.99865 -14.7763 L -7.96531 -14.751 L -7.93197 -14.7256 L -7.89863 -14.7002 L -7.86527 -14.6749 L -7.8319 -14.6495 L -7.79853 -14.624 L -7.76515 -14.5986 L -7.73175 -14.5731 L -7.69835 -14.5477 L -7.66494 -14.5222 L -7.63153 -14.4967 L -7.5981 -14.4712 L -7.56466 -14.4456 L -7.53122 -14.4201 L -7.49776 -14.3945 L -7.4643 -14.3689 L -7.43083 -14.3433 L -7.39735 -14.3177 L -7.36385 -14.292 L -7.33035 -14.2664 L -7.29685 -14.2407 L -7.26333 -14.215 L -7.2298 -14.1893 L -7.2298 -14.1893 L -7.2309 -14.2315 L -7.23198 -14.2737 L -7.23306 -14.3159 L -7.23413 -14.3581 L -7.23519 -14.4003 L -7.23624 -14.4424 L -7.23728 -14.4846 L -7.23832 -14.5267 L -7.23934 -14.5688 L -7.24036 -14.6109 L -7.24136 -14.6529 L -7.24236 -14.695 L -7.24335 -14.737 L -7.24433 -14.779 L -7.24531 -14.821 L -7.24627 -14.863 L -7.24723 -14.9049 L -7.24818 -14.9469 L -7.24912 -14.9888 L -7.25005 -15.0307 L -7.25098 -15.0726 L -7.2519 -15.1145 L -7.25281 -15.1563 L -7.25371 -15.1982 L -7.2546 -15.24 L -7.25549 -15.2818 L -7.25637 -15.3236 L -7.25724 -15.3654 L -7.25811 -15.4072 L -7.25896 -15.4489 L -7.25982 -15.4907 L -7.26066 -15.5324 L -7.2615 -15.5741 L -7.26232 -15.6158 L -7.26315 -15.6575 L -7.26396 -15.6991 L -7.26477 -15.7408 L -7.26557 -15.7824 L -7.26637 -15.824 L -7.26716 -15.8656 L -7.26794 -15.9072 L -7.26871 -15.9488 L -7.26948 -15.9903 L -7.27025 -16.0319 L -7.271 -16.0734 L -7.27175 -16.1149 L -7.2725 -16.1564 L -7.27323 -16.1979 L -7.27397 -16.2394 L -7.27469 -16.2809 L -7.27541 -16.3223 L -7.27612 -16.3638 L -7.27683 -16.4052 L -7.27753 -16.4466 L -7.27823 -16.488 L -7.27892 -16.5294 L -7.2796 -16.5707 L -7.28028 -16.6121 L -7.28095 -16.6534 L -7.28162 -16.6948 L -7.28228 -16.7361 L -7.28294 -16.7774 L -7.28359 -16.8187 L -7.28423 -16.86 L -7.28487 -16.9012 L -7.28551 -16.9425 L -7.28614 -16.9837 L -7.28676 -17.025 L -7.28738 -17.0662 L -7.28799 -17.1074 L -7.2886 -17.1486 L -7.2892 -17.1898 L -7.2898 -17.2309 L -7.2904 -17.2721 L -7.29098 -17.3133 L -7.29157 -17.3544 L -7.29215 -17.3955 L -7.29272 -17.4366 L -7.29329 -17.4777 L -7.29385 -17.5188 L -7.29441 -17.5599 L -7.29497 -17.601 L -7.29552 -17.642 L -7.29606 -17.6831 L -7.2966 -17.7241 L -7.29714 -17.7651 L -7.29767 -17.8061 L -7.2982 -17.8471 L -7.29872 -17.8881 L -7.29924 -17.9291 L -7.29975 -17.9701 L -7.30026 -18.011 L -7.30077 -18.052 L -7.30127 -18.0929 L -7.30177 -18.1338 L -7.30226 -18.1748 L -7.30835 -18.2134 L -7.27293 -18.2276 L -7.23749 -18.2417 L -7.20202 -18.2557 L -7.16652 -18.2697 L -7.131 -18.2836 L -7.09545 -18.2974 L -7.05987 -18.3112 L -7.02427 -18.3249 L -6.98864 -18.3385 L -6.95298 -18.352 L -6.9173 -18.3655 L -6.88159 -18.3789 L -6.84585 -18.3923 L -6.81009 -18.4055 L -6.7743 -18.4187 L -6.73849 -18.4319 L -6.70265 -18.4449 L -6.66679 -18.4579 L -6.6309 -18.4708 L -6.59499 -18.4837 L -6.55905 -18.4965 L -6.52309 -18.5092 L -6.4871 -18.5218 L -6.45109 -18.5344 L -6.41505 -18.5469 L -6.37899 -18.5593 L -6.3429 -18.5717 L -6.3068 -18.584 L -6.27066 -18.5962 L -6.23451 -18.6084 L -6.19833 -18.6205 L -6.16212 -18.6325 L -6.1259 -18.6444 L -6.00296 -18.6844 L -5.96663 -18.696 L -5.93028 -18.7075 L -5.89391 -18.719 L -5.85751 -18.7305 L -5.8211 -18.7418 L -5.78466 -18.7531 L -5.7482 -18.7643 L -5.71171 -18.7754 L -5.67521 -18.7865 L -5.63868 -18.7975 L -5.60214 -18.8084 L -5.56557 -18.8193 L -5.52898 -18.8301 L -5.49237 -18.8408 L -5.45574 -18.8514 L -5.41909 -18.862 L -5.38242 -18.8725 L -5.34573 -18.8829 L -5.30902 -18.8933 L -5.27228 -18.9035 L -5.23553 -18.9137 L -5.19876 -18.9239 L -5.16197 -18.934 L -5.12516 -18.944 L -5.08833 -18.9539 L -5.05148 -18.9637 L -5.01461 -18.9735 L -4.97772 -18.9832 L -4.94082 -18.9929 L -4.90389 -19.0024 L -4.86695 -19.0119 L -4.82998 -19.0214 L -4.793 -19.0307 L -4.7752 -18.9959 L -4.75155 -18.9625 L -4.7279 -18.9291 L -4.70424 -18.8956 L -4.68058 -18.8622 L -4.65692 -18.8288 L -4.63325 -18.7953 L -4.60959 -18.7619 L -4.58592 -18.7284 L -4.56224 -18.6949 L -4.53857 -18.6614 L -4.51489 -18.6279 L -4.49121 -18.5944 L -4.46752 -18.5609 L -4.44384 -18.5274 L -4.42015 -18.4938 L -4.39645 -18.4602 L -4.37276 -18.4267 L -4.34906 -18.3931 L -4.32536 -18.3595 L -4.30165 -18.3259 L -4.27795 -18.2922 L -4.25424 -18.2586 L -4.23052 -18.225 L -4.20681 -18.1913 L -4.18309 -18.1576 L -4.15937 -18.1239 L -4.13564 -18.0903 L -4.11191 -18.0565 L -4.08818 -18.0228 L -4.06445 -17.9891 L -4.04071 -17.9553 L -4.01697 -17.9216 L -3.99323 -17.8878 L -3.96949 -17.854 L -3.94574 -17.8202 L -3.92199 -17.7864 L -3.89823 -17.7526 L -3.87448 -17.7187 L -3.85071 -17.6849 L -3.82695 -17.651 L -3.80319 -17.6171 L -3.77942 -17.5832 L -3.75564 -17.5493 L -3.73187 -17.5154 L -3.70809 -17.4814 L -3.68431 -17.4475 L -3.66052 -17.4135 L -3.63674 -17.3795 L -3.61295 -17.3455 L -3.58915 -17.3115 L -3.56535 -17.2775 L -3.54155 -17.2434 L -3.51775 -17.2094 L -3.49395 -17.1753 L -3.47014 -17.1412 L -3.44632 -17.1071 L -3.42251 -17.073 L -3.39869 -17.0388 L -3.37487 -17.0047 L -3.35104 -16.9705 L -3.32722 -16.9363 L -3.30338 -16.9021 L -3.27955 -16.8679 L -3.25571 -16.8337 L -3.23187 -16.7994 L -3.20803 -16.7652 L -3.18418 -16.7309 L -3.16033 -16.6966 L -3.13648 -16.6623 L -3.11262 -16.6279 L -3.08876 -16.5936 L -3.0649 -16.5592 L -3.04103 -16.5248 L -3.01716 -16.4904 L -2.99329 -16.456 L -2.96941 -16.4216 L -2.94553 -16.3871 L -2.92165 -16.3526 L -2.89777 -16.3182 L -2.87388 -16.2837 L -2.84999 -16.2491 L -2.82609 -16.2146 L -2.80219 -16.18 L -2.77829 -16.1454 L -2.75439 -16.1108 L -2.73048 -16.0762 L -2.70657 -16.0416 L -2.68265 -16.0069 L -2.65873 -15.9722 L -2.63481 -15.9375 L -2.61089 -15.9028 L -2.58696 -15.8681 L -2.56303 -15.8333 L -2.5391 -15.7986 L -2.51516 -15.7638 L -2.49122 -15.7289 L -2.49122 -15.7289 L -2.47921 -15.7694 L -2.4672 -15.8099 L -2.45518 -15.8504 L -2.44316 -15.8909 L -2.43114 -15.9313 L -2.41911 -15.9717 L -2.40709 -16.0121 L -2.39505 -16.0525 L -2.38302 -16.0928 L -2.37098 -16.1332 L -2.35894 -16.1735 L -2.3469 -16.2138 L -2.33486 -16.254 L -2.32281 -16.2943 L -2.31076 -16.3345 L -2.2987 -16.3747 L -2.28665 -16.415 L -2.27459 -16.4551 L -2.26253 -16.4953 L -2.25047 -16.5354 L -2.2384 -16.5756 L -2.22633 -16.6157 L -2.21426 -16.6558 L -2.20219 -16.6959 L -2.19011 -16.7359 L -2.17804 -16.776 L -2.16596 -16.816 L -2.15387 -16.856 L -2.14179 -16.896 L -2.1297 -16.9359 L -2.11762 -16.9759 L -2.10553 -17.0158 L -2.09343 -17.0558 L -2.08134 -17.0957 L -2.06924 -17.1356 L -2.05714 -17.1754 L -2.04504 -17.2153 L -2.03294 -17.2551 L -2.02084 -17.295 L -2.00873 -17.3348 L -1.99662 -17.3746 L -1.98451 -17.4144 L -1.9724 -17.4541 L -1.96029 -17.4939 L -1.94817 -17.5336 L -1.93606 -17.5733 L -1.92394 -17.613 L -1.91182 -17.6527 L -1.8997 -17.6924 L -1.88758 -17.732 L -1.87545 -17.7717 L -1.86333 -17.8113 L -1.8512 -17.8509 L -1.83907 -17.8905 L -1.82694 -17.9301 L -1.81481 -17.9697 L -1.80267 -18.0092 L -1.79054 -18.0488 L -1.7784 -18.0883 L -1.76626 -18.1278 L -1.75412 -18.1673 L -1.74198 -18.2068 L -1.72984 -18.2463 L -1.7177 -18.2857 L -1.70556 -18.3252 L -1.69341 -18.3646 L -1.68126 -18.404 L -1.66912 -18.4434 L -1.65697 -18.4828 L -1.64482 -18.5222 L -1.63266 -18.5616 L -1.62051 -18.6009 L -1.60836 -18.6403 L -1.5962 -18.6796 L -1.58405 -18.7189 L -1.57189 -18.7582 L -1.55973 -18.7975 L -1.54757 -18.8368 L -1.53541 -18.8761 L -1.52325 -18.9153 L -1.51109 -18.9546 L -1.49893 -18.9938 L -1.48676 -19.033 L -1.4746 -19.0722 L -1.46243 -19.1114 L -1.45027 -19.1506 L -1.4381 -19.1897 L -1.42593 -19.2289 L -1.41376 -19.268 L -1.40159 -19.3072 L -1.38942 -19.3463 L -1.37725 -19.3854 L -1.36508 -19.4245 L -1.3529 -19.4636 L -1.34073 -19.5027 L -1.32855 -19.5417 L -1.32239 -19.5804 L -1.28433 -19.5829 L -1.24627 -19.5854 L -1.2082 -19.5878 L -1.17012 -19.5901 L -1.13205 -19.5923 L -1.09396 -19.5945 L -1.05588 -19.5966 L -1.01778 -19.5986 L -0.97969 -19.6005 L -0.941591 -19.6024 L -0.903489 -19.6042 L -0.865383 -19.6059 L -0.827274 -19.6076 L -0.789162 -19.6091 L -0.751048 -19.6106 L -0.71293 -19.612 L -0.674809 -19.6134 L -0.636686 -19.6147 L -0.598561 -19.6159 L -0.560433 -19.617 L -0.522303 -19.618 L -0.484172 -19.619 L -0.446038 -19.6199 L -0.407903 -19.6208 L -0.369766 -19.6215 L -0.331628 -19.6222 L -0.293488 -19.6228 L -0.255347 -19.6233 L -0.217206 -19.6238 L -0.179064 -19.6242 L -0.14092 -19.6245 L -0.102777 -19.6247 L -0.0646329 -19.6249 L 0.0646329 -19.6249 L 0.102777 -19.6247 L 0.14092 -19.6245 L 0.179064 -19.6242 L 0.217206 -19.6238 L 0.255347 -19.6233 L 0.293488 -19.6228 L 0.331628 -19.6222 L 0.369766 -19.6215 L 0.407903 -19.6208 L 0.446038 -19.6199 L 0.484172 -19.619 L 0.522303 -19.618 L 0.560433 -19.617 L 0.598561 -19.6159 L 0.636686 -19.6147 L 0.674809 -19.6134 L 0.71293 -19.612 L 0.751048 -19.6106 L 0.789162 -19.6091 L 0.827274 -19.6076 L 0.865383 -19.6059 L 0.903489 -19.6042 L 0.941591 -19.6024 L 0.97969 -19.6005 L 1.01778 -19.5986 L 1.05588 -19.5966 L 1.09396 -19.5945 L 1.13205 -19.5923 L 1.17012 -19.5901 L 1.2082 -19.5878 L 1.24627 -19.5854 L 1.28433 -19.5829 L 1.32239 -19.5804 L 1.32855 -19.5417 L 1.34073 -19.5027 L 1.3529 -19.4636 L 1.36508 -19.4245 L 1.37725 -19.3854 L 1.38942 -19.3463 L 1.40159 -19.3072 L 1.41376 -19.268 L 1.42593 -19.2289 L 1.4381 -19.1897 L 1.45027 -19.1506 L 1.46243 -19.1114 L 1.4746 -19.0722 L 1.48676 -19.033 L 1.49893 -18.9938 L 1.51109 -18.9546 L 1.52325 -18.9153 L 1.53541 -18.8761 L 1.54757 -18.8368 L 1.55973 -18.7975 L 1.57189 -18.7582 L 1.58405 -18.7189 L 1.5962 -18.6796 L 1.60836 -18.6403 L 1.62051 -18.6009 L 1.63266 -18.5616 L 1.64482 -18.5222 L 1.65697 -18.4828 L 1.66912 -18.4434 L 1.68126 -18.404 L 1.69341 -18.3646 L 1.70556 -18.3252 L 1.7177 -18.2857 L 1.72984 -18.2463 L 1.74198 -18.2068 L 1.75412 -18.1673 L 1.76626 -18.1278 L 1.7784 -18.0883 L 1.79054 -18.0488 L 1.80267 -18.0092 L 1.81481 -17.9697 L 1.82694 -17.9301 L 1.83907 -17.8905 L 1.8512 -17.8509 L 1.86333 -17.8113 L 1.87545 -17.7717 L 1.88758 -17.732 L 1.8997 -17.6924 L 1.91182 -17.6527 L 1.92394 -17.613 L 1.93606 -17.5733 L 1.94817 -17.5336 L 1.96029 -17.4939 L 1.9724 -17.4541 L 1.98451 -17.4144 L 1.99662 -17.3746 L 2.00873 -17.3348 L 2.02084 -17.295 L 2.03294 -17.2551 L 2.04504 -17.2153 L 2.05714 -17.1754 L 2.06924 -17.1356 L 2.08134 -17.0957 L 2.09343 -17.0558 L 2.10553 -17.0158 L 2.11762 -16.9759 L 2.1297 -16.9359 L 2.14179 -16.896 L 2.15387 -16.856 L 2.16596 -16.816 L 2.17804 -16.776 L 2.19011 -16.7359 L 2.20219 -16.6959 L 2.21426 -16.6558 L 2.22633 -16.6157 L 2.2384 -16.5756 L 2.25047 -16.5354 L 2.26253 -16.4953 L 2.27459 -16.4551 L 2.28665 -16.415 L 2.2987 -16.3747 L 2.31076 -16.3345 L 2.32281 -16.2943 L 2.33486 -16.254 L 2.3469 -16.2138 L 2.35894 -16.1735 L 2.37098 -16.1332 L 2.38302 -16.0928 L 2.39505 -16.0525 L 2.40709 -16.0121 L 2.41911 -15.9717 L 2.43114 -15.9313 L 2.44316 -15.8909 L 2.45518 -15.8504 L 2.4672 -15.8099 L 2.47921 -15.7694 L 2.49122 -15.7289 L 2.49122 -15.7289 L 2.51516 -15.7638 L 2.5391 -15.7986 L 2.56303 -15.8333 L 2.58696 -15.8681 L 2.61089 -15.9028 L 2.63481 -15.9375 L 2.65873 -15.9722 L 2.68265 -16.0069 L 2.70657 -16.0416 L 2.73048 -16.0762 L 2.75439 -16.1108 L 2.77829 -16.1454 L 2.80219 -16.18 L 2.82609 -16.2146 L 2.84999 -16.2491 L 2.87388 -16.2837 L 2.89777 -16.3182 L 2.92165 -16.3526 L 2.94553 -16.3871 L 2.96941 -16.4216 L 2.99329 -16.456 L 3.01716 -16.4904 L 3.04103 -16.5248 L 3.0649 -16.5592 L 3.08876 -16.5936 L 3.11262 -16.6279 L 3.13648 -16.6623 L 3.16033 -16.6966 L 3.18418 -16.7309 L 3.20803 -16.7652 L 3.23187 -16.7994 L 3.25571 -16.8337 L 3.27955 -16.8679 L 3.30338 -16.9021 L 3.32722 -16.9363 L 3.35104 -16.9705 L 3.37487 -17.0047 L 3.39869 -17.0388 L 3.42251 -17.073 L 3.44632 -17.1071 L 3.47014 -17.1412 L 3.49395 -17.1753 L 3.51775 -17.2094 L 3.54155 -17.2434 L 3.56535 -17.2775 L 3.58915 -17.3115 L 3.61295 -17.3455 L 3.63674 -17.3795 L 3.66052 -17.4135 L 3.68431 -17.4475 L 3.70809 -17.4814 L 3.73187 -17.5154 L 3.75564 -17.5493 L 3.77942 -17.5832 L 3.80319 -17.6171 L 3.82695 -17.651 L 3.85071 -17.6849 L 3.87448 -17.7187 L 3.89823 -17.7526 L 3.92199 -17.7864 L 3.94574 -17.8202 L 3.96949 -17.854 L 3.99323 -17.8878 L 4.01697 -17.9216 L 4.04071 -17.9553 L 4.06445 -17.9891 L 4.08818 -18.0228 L 4.11191 -18.0565 L 4.13564 -18.0903 L 4.15937 -18.1239 L 4.18309 -18.1576 L 4.20681 -18.1913 L 4.23052 -18.225 L 4.25424 -18.2586 L 4.27795 -18.2922 L 4.30165 -18.3259 L 4.32536 -18.3595 L 4.34906 -18.3931 L 4.37276 -18.4267 L 4.39645 -18.4602 L 4.42015 -18.4938 L 4.44384 -18.5274 L 4.46752 -18.5609 L 4.49121 -18.5944 L 4.51489 -18.6279 L 4.53857 -18.6614 L 4.56224 -18.6949 L 4.58592 -18.7284 L 4.60959 -18.7619 L 4.63325 -18.7953 L 4.65692 -18.8288 L 4.68058 -18.8622 L 4.70424 -18.8956 L 4.7279 -18.9291 L 4.75155 -18.9625 L 4.7752 -18.9959 L 4.793 -19.0307 L 4.82998 -19.0214 L 4.86695 -19.0119 L 4.90389 -19.0024 L 4.94082 -18.9929 L 4.97772 -18.9832 L 5.01461 -18.9735 L 5.05148 -18.9637 L 5.08833 -18.9539 L 5.12516 -18.944 L 5.16197 -18.934 L 5.19876 -18.9239 L 5.23553 -18.9137 L 5.27228 -18.9035 L 5.30902 -18.8933 L 5.34573 -18.8829 L 5.38242 -18.8725 L 5.41909 -18.862 L 5.45574 -18.8514 L 5.49237 -18.8408 L 5.52898 -18.8301 L 5.56557 -18.8193 L 5.60214 -18.8084 L 5.63868 -18.7975 L 5.67521 -18.7865 L 5.71171 -18.7754 L 5.7482 -18.7643 L 5.78466 -18.7531 L 5.8211 -18.7418 L 5.85751 -18.7305 L 5.89391 -18.719 L 5.93028 -18.7075 L 5.96663 -18.696 L 6.00296 -18.6844 L 6.1259 -18.6444 L 6.16212 -18.6325 L 6.19833 -18.6205 L 6.23451 -18.6084 L 6.27066 -18.5962 L 6.3068 -18.584 L 6.3429 -18.5717 L 6.37899 -18.5593 L 6.41505 -18.5469 L 6.45109 -18.5344 L 6.4871 -18.5218 L 6.52309 -18.5092 L 6.55905 -18.4965 L 6.59499 -18.4837 L 6.6309 -18.4708 L 6.66679 -18.4579 L 6.70265 -18.4449 L 6.73849 -18.4319 L 6.7743 -18.4187 L 6.81009 -18.4055 L 6.84585 -18.3923 L 6.88159 -18.3789 L 6.9173 -18.3655 L 6.95298 -18.352 L 6.98864 -18.3385 L 7.02427 -18.3249 L 7.05987 -18.3112 L 7.09545 -18.2974 L 7.131 -18.2836 L 7.16652 -18.2697 L 7.20202 -18.2557 L 7.23749 -18.2417 L 7.27293 -18.2276 L 7.30835 -18.2134 L 7.30226 -18.1748 L 7.30177 -18.1338 L 7.30127 -18.0929 L 7.30077 -18.052 L 7.30026 -18.011 L 7.29975 -17.9701 L 7.29924 -17.9291 L 7.29872 -17.8881 L 7.2982 -17.8471 L 7.29767 -17.8061 L 7.29714 -17.7651 L 7.2966 -17.7241 L 7.29606 -17.6831 L 7.29552 -17.642 L 7.29497 -17.601 L 7.29441 -17.5599 L 7.29385 -17.5188 L 7.29329 -17.4777 L 7.29272 -17.4366 L 7.29215 -17.3955 L 7.29157 -17.3544 L 7.29098 -17.3133 L 7.2904 -17.2721 L 7.2898 -17.2309 L 7.2892 -17.1898 L 7.2886 -17.1486 L 7.28799 -17.1074 L 7.28738 -17.0662 L 7.28676 -17.025 L 7.28614 -16.9837 L 7.28551 -16.9425 L 7.28487 -16.9012 L 7.28423 -16.86 L 7.28359 -16.8187 L 7.28294 -16.7774 L 7.28228 -16.7361 L 7.28162 -16.6948 L 7.28095 -16.6534 L 7.28028 -16.6121 L 7.2796 -16.5707 L 7.27892 -16.5294 L 7.27823 -16.488 L 7.27753 -16.4466 L 7.27683 -16.4052 L 7.27612 -16.3638 L 7.27541 -16.3223 L 7.27469 -16.2809 L 7.27397 -16.2394 L 7.27323 -16.1979 L 7.2725 -16.1564 L 7.27175 -16.1149 L 7.271 -16.0734 L 7.27025 -16.0319 L 7.26948 -15.9903 L 7.26871 -15.9488 L 7.26794 -15.9072 L 7.26716 -15.8656 L 7.26637 -15.824 L 7.26557 -15.7824 L 7.26477 -15.7408 L 7.26396 -15.6991 L 7.26315 -15.6575 L 7.26232 -15.6158 L 7.2615 -15.5741 L 7.26066 -15.5324 L 7.25982 -15.4907 L 7.25896 -15.4489 L 7.25811 -15.4072 L 7.25724 -15.3654 L 7.25637 -15.3236 L 7.25549 -15.2818 L 7.2546 -15.24 L 7.25371 -15.1982 L 7.25281 -15.1563 L 7.2519 -15.1145 L 7.25098 -15.0726 L 7.25005 -15.0307 L 7.24912 -14.9888 L 7.24818 -14.9469 L 7.24723 -14.9049 L 7.24627 -14.863 L 7.24531 -14.821 L 7.24433 -14.779 L 7.24335 -14.737 L 7.24236 -14.695 L 7.24136 -14.6529 L 7.24036 -14.6109 L 7.23934 -14.5688 L 7.23832 -14.5267 L 7.23728 -14.4846 L 7.23624 -14.4424 L 7.23519 -14.4003 L 7.23413 -14.3581 L 7.23306 -14.3159 L 7.23198 -14.2737 L 7.2309 -14.2315 L 7.2298 -14.1893 L 7.2298 -14.1893 L 7.26333 -14.215 L 7.29685 -14.2407 L 7.33035 -14.2664 L 7.36385 -14.292 L 7.39735 -14.3177 L 7.43083 -14.3433 L 7.4643 -14.3689 L 7.49776 -14.3945 L 7.53122 -14.4201 L 7.56466 -14.4456 L 7.5981 -14.4712 L 7.63153 -14.4967 L 7.66494 -14.5222 L 7.69835 -14.5477 L 7.73175 -14.5731 L 7.76515 -14.5986 L 7.79853 -14.624 L 7.8319 -14.6495 L 7.86527 -14.6749 L 7.89863 -14.7002 L 7.93197 -14.7256 L 7.96531 -14.751 L 7.99865 -14.7763 L 8.03197 -14.8016 L 8.06528 -14.827 L 8.09859 -14.8523 L 8.13189 -14.8775 L 8.16518 -14.9028 L 8.19846 -14.928 L 8.23173 -14.9533 L 8.265 -14.9785 L 8.29826 -15.0037 L 8.33151 -15.0289 L 8.36475 -15.0541 L 8.39798 -15.0792 L 8.43121 -15.1044 L 8.46442 -15.1295 L 8.49763 -15.1546 L 8.53083 -15.1797 L 8.56403 -15.2048 L 8.59721 -15.2299 L 8.63039 -15.255 L 8.66356 -15.28 L 8.69673 -15.3051 L 8.72988 -15.3301 L 8.76303 -15.3551 L 8.79617 -15.3801 L 8.8293 -15.4051 L 8.86243 -15.43 L 8.89555 -15.455 L 8.92866 -15.48 L 8.96176 -15.5049 L 8.99486 -15.5298 L 9.02795 -15.5547 L 9.06103 -15.5796 L 9.0941 -15.6045 L 9.12717 -15.6294 L 9.16023 -15.6542 L 9.19328 -15.6791 L 9.22633 -15.7039 L 9.25936 -15.7287 L 9.2924 -15.7535 L 9.32542 -15.7783 L 9.35844 -15.8031 L 9.39145 -15.8279 L 9.42445 -15.8526 L 9.45745 -15.8774 L 9.49044 -15.9021 L 9.52342 -15.9269 L 9.5564 -15.9516 L 9.58937 -15.9763 L 9.62233 -16.001 L 9.65529 -16.0257 L 9.68824 -16.0503 L 9.72118 -16.075 L 9.75412 -16.0997 L 9.78705 -16.1243 L 9.81997 -16.1489 L 9.85289 -16.1735 L 9.8858 -16.1982 L 9.91871 -16.2228 L 9.95161 -16.2473 L 9.9845 -16.2719 L 10.0174 -16.2965 L 10.0503 -16.321 L 10.0831 -16.3456 L 10.116 -16.3701 L 10.1489 -16.3947 L 10.1817 -16.4192 L 10.2146 -16.4437 L 10.2474 -16.4682 L 10.2802 -16.4927 L 10.3131 -16.5171 L 10.3459 -16.5416 L 10.3787 -16.5661 L 10.4115 -16.5905 L 10.4392 -16.6182 L 10.4715 -16.5978 L 10.5038 -16.5775 L 10.536 -16.557 L 10.5681 -16.5365 L 10.6002 -16.5159 L 10.6323 -16.4953 L 10.6644 -16.4746 L 10.6964 -16.4538 L 10.7283 -16.433 L 10.7602 -16.4121 L 10.7921 -16.3912 L 10.824 -16.3702 L 10.8558 -16.3491 L 10.8875 -16.328 L 10.9192 -16.3068 L 10.9509 -16.2855 L 10.9825 -16.2642 L 11.0141 -16.2428 L 11.0457 -16.2214 L 11.0772 -16.1999 L 11.1086 -16.1783 L 11.1401 -16.1567 L 11.1715 -16.135 L 11.2028 -16.1133 L 11.2341 -16.0915 L 11.2653 -16.0696 L 11.2966 -16.0477 L 11.3277 -16.0257 L 11.3589 -16.0037 L 11.3899 -15.9815 L 11.421 -15.9594 L 11.452 -15.9372 L 11.4829 -15.9149 L 11.5875 -15.8389 L 11.6183 -15.8163 L 11.649 -15.7937 L 11.6797 -15.771 L 11.7103 -15.7483 L 11.7409 -15.7255 L 11.7714 -15.7027 L 11.8019 -15.6798 L 11.8324 -15.6568 L 11.8628 -15.6338 L 11.8932 -15.6107 L 11.9235 -15.5875 L 11.9538 -15.5643 L 11.984 -15.5411 L 12.0142 -15.5177 L 12.0443 -15.4944 L 12.0744 -15.4709 L 12.1044 -15.4474 L 12.1344 -15.4239 L 12.1644 -15.4003 L 12.1943 -15.3766 L 12.2242 -15.3529 L 12.254 -15.3291 L 12.2838 -15.3052 L 12.3135 -15.2813 L 12.3432 -15.2574 L 12.3728 -15.2333 L 12.4024 -15.2093 L 12.4319 -15.1851 L 12.4614 -15.1609 L 12.4909 -15.1367 L 12.5203 -15.1124 L 12.5496 -15.088 L 12.5789 -15.0636 L 12.5612 -15.0287 L 12.5481 -14.9899 L 12.5349 -14.9512 L 12.5218 -14.9124 L 12.5087 -14.8736 L 12.4955 -14.8348 L 12.4824 -14.796 L 12.4692 -14.7572 L 12.4561 -14.7184 L 12.4429 -14.6795 L 12.4297 -14.6407 L 12.4165 -14.6018 L 12.4033 -14.563 L 12.3901 -14.5241 L 12.3769 -14.4852 L 12.3637 -14.4464 L 12.3505 -14.4075 L 12.3372 -14.3686 L 12.324 -14.3296 L 12.3108 -14.2907 L 12.2975 -14.2518 L 12.2842 -14.2128 L 12.271 -14.1739 L 12.2577 -14.1349 L 12.2444 -14.096 L 12.2311 -14.057 L 12.2178 -14.018 L 12.2045 -13.979 L 12.1911 -13.94 L 12.1778 -13.901 L 12.1644 -13.8619 L 12.1511 -13.8229 L 12.1377 -13.7838 L 12.1244 -13.7448 L 12.111 -13.7057 L 12.0976 -13.6666 L 12.0842 -13.6275 L 12.0708 -13.5884 L 12.0574 -13.5493 L 12.044 -13.5102 L 12.0305 -13.4711 L 12.0171 -13.4319 L 12.0036 -13.3928 L 11.9902 -13.3536 L 11.9767 -13.3144 L 11.9632 -13.2752 L 11.9497 -13.236 L 11.9362 -13.1968 L 11.9227 -13.1576 L 11.9092 -13.1184 L 11.8956 -13.0791 L 11.8821 -13.0399 L 11.8685 -13.0006 L 11.855 -12.9613 L 11.8414 -12.922 L 11.8278 -12.8827 L 11.8142 -12.8434 L 11.8006 -12.8041 L 11.787 -12.7648 L 11.7734 -12.7254 L 11.7597 -12.6861 L 11.7461 -12.6467 L 11.7324 -12.6073 L 11.7188 -12.5679 L 11.7051 -12.5285 L 11.6914 -12.4891 L 11.6777 -12.4497 L 11.664 -12.4102 L 11.6502 -12.3708 L 11.6365 -12.3313 L 11.6227 -12.2918 L 11.609 -12.2523 L 11.5952 -12.2128 L 11.5814 -12.1733 L 11.5676 -12.1338 L 11.5538 -12.0942 L 11.54 -12.0547 L 11.5261 -12.0151 L 11.5123 -11.9755 L 11.4984 -11.9359 L 11.4845 -11.8963 L 11.4706 -11.8567 L 11.4567 -11.817 L 11.4428 -11.7774 L 11.4289 -11.7377 L 11.4149 -11.6981 L 11.401 -11.6584 L 11.387 -11.6187 L 11.373 -11.5789 L 11.359 -11.5392 L 11.345 -11.4995 L 11.331 -11.4597 L 11.317 -11.4199 L 11.3029 -11.3801 L 11.2889 -11.3403 L 11.2748 -11.3005 L 11.2607 -11.2607 L 11.2607 -11.2607 L 11.3005 -11.2748 L 11.3403 -11.2889 L 11.3801 -11.3029 L 11.4199 -11.317 L 11.4597 -11.331 L 11.4995 -11.345 L 11.5392 -11.359 L 11.5789 -11.373 L 11.6187 -11.387 L 11.6584 -11.401 L 11.6981 -11.4149 L 11.7377 -11.4289 L 11.7774 -11.4428 L 11.817 -11.4567 L 11.8567 -11.4706 L 11.8963 -11.4845 L 11.9359 -11.4984 L 11.9755 -11.5123 L 12.0151 -11.5261 L 12.0547 -11.54 L 12.0942 -11.5538 L 12.1338 -11.5676 L 12.1733 -11.5814 L 12.2128 -11.5952 L 12.2523 -11.609 L 12.2918 -11.6227 L 12.3313 -11.6365 L 12.3708 -11.6502 L 12.4102 -11.664 L 12.4497 -11.6777 L 12.4891 -11.6914 L 12.5285 -11.7051 L 12.5679 -11.7188 L 12.6073 -11.7324 L 12.6467 -11.7461 L 12.6861 -11.7597 L 12.7254 -11.7734 L 12.7648 -11.787 L 12.8041 -11.8006 L 12.8434 -11.8142 L 12.8827 -11.8278 L 12.922 -11.8414 L 12.9613 -11.855 L 13.0006 -11.8685 L 13.0399 -11.8821 L 13.0791 -11.8956 L 13.1184 -11.9092 L 13.1576 -11.9227 L 13.1968 -11.9362 L 13.236 -11.9497 L 13.2752 -11.9632 L 13.3144 -11.9767 L 13.3536 -11.9902 L 13.3928 -12.0036 L 13.4319 -12.0171 L 13.4711 -12.0305 L 13.5102 -12.044 L 13.5493 -12.0574 L 13.5884 -12.0708 L 13.6275 -12.0842 L 13.6666 -12.0976 L 13.7057 -12.111 L 13.7448 -12.1244 L 13.7838 -12.1377 L 13.8229 -12.1511 L 13.8619 -12.1644 L 13.901 -12.1778 L 13.94 -12.1911 L 13.979 -12.2045 L 14.018 -12.2178 L 14.057 -12.2311 L 14.096 -12.2444 L 14.1349 -12.2577 L 14.1739 -12.271 L 14.2128 -12.2842 L 14.2518 -12.2975 L 14.2907 -12.3108 L 14.3296 -12.324 L 14.3686 -12.3372 L 14.4075 -12.3505 L 14.4464 -12.3637 L 14.4852 -12.3769 L 14.5241 -12.3901 L 14.563 -12.4033 L 14.6018 -12.4165 L 14.6407 -12.4297 L 14.6795 -12.4429 L 14.7184 -12.4561 L 14.7572 -12.4692 L 14.796 -12.4824 L 14.8348 -12.4955 L 14.8736 -12.5087 L 14.9124 -12.5218 L 14.9512 -12.5349 L 14.9899 -12.5481 L 15.0287 -12.5612 L 15.0636 -12.5789 L 15.088 -12.5496 L 15.1124 -12.5203 L 15.1367 -12.4909 L 15.1609 -12.4614 L 15.1851 -12.4319 L 15.2093 -12.4024 L 15.2333 -12.3728 L 15.2574 -12.3432 L 15.2813 -12.3135 L 15.3052 -12.2838 L 15.3291 -12.254 L 15.3529 -12.2242 L 15.3766 -12.1943 L 15.4003 -12.1644 L 15.4239 -12.1344 L 15.4474 -12.1044 L 15.4709 -12.0744 L 15.4944 -12.0443 L 15.5177 -12.0142 L 15.5411 -11.984 L 15.5643 -11.9538 L 15.5875 -11.9235 L 15.6107 -11.8932 L 15.6338 -11.8628 L 15.6568 -11.8324 L 15.6798 -11.8019 L 15.7027 -11.7714 L 15.7255 -11.7409 L 15.7483 -11.7103 L 15.771 -11.6797 L 15.7937 -11.649 L 15.8163 -11.6183 L 15.8389 -11.5875 L 15.9149 -11.4829 L 15.9372 -11.452 L 15.9594 -11.421 L 15.9815 -11.3899 L 16.0037 -11.3589 L 16.0257 -11.3277 L 16.0477 -11.2966 L 16.0696 -11.2653 L 16.0915 -11.2341 L 16.1133 -11.2028 L 16.135 -11.1715 L 16.1567 -11.1401 L 16.1783 -11.1086 L 16.1999 -11.0772 L 16.2214 -11.0457 L 16.2428 -11.0141 L 16.2642 -10.9825 L 16.2855 -10.9509 L 16.3068 -10.9192 L 16.328 -10.8875 L 16.3491 -10.8558 L 16.3702 -10.824 L 16.3912 -10.7921 L 16.4121 -10.7602 L 16.433 -10.7283 L 16.4538 -10.6964 L 16.4746 -10.6644 L 16.4953 -10.6323 L 16.5159 -10.6002 L 16.5365 -10.5681 L 16.557 -10.536 L 16.5775 -10.5038 L 16.5978 -10.4715 L 16.6182 -10.4392 L 16.5905 -10.4115 L 16.5661 -10.3787 L 16.5416 -10.3459 L 16.5171 -10.3131 L 16.4927 -10.2802 L 16.4682 -10.2474 L 16.4437 -10.2146 L 16.4192 -10.1817 L 16.3947 -10.1489 L 16.3701 -10.116 L 16.3456 -10.0831 L 16.321 -10.0503 L 16.2965 -10.0174 L 16.2719 -9.9845 L 16.2473 -9.95161 L 16.2228 -9.91871 L 16.1982 -9.8858 L 16.1735 -9.85289 L 16.1489 -9.81997 L 16.1243 -9.78705 L 16.0997 -9.75412 L 16.075 -9.72118 L 16.0503 -9.68824 L 16.0257 -9.65529 L 16.001 -9.62233 L 15.9763 -9.58937 L 15.9516 -9.5564 L 15.9269 -9.52342 L 15.9021 -9.49044 L 15.8774 -9.45745 L 15.8526 -9.42445 L 15.8279 -9.39145 L 15.8031 -9.35844 L 15.7783 -9.32542 L 15.7535 -9.2924 L 15.7287 -9.25936 L 15.7039 -9.22633 L 15.6791 -9.19328 L 15.6542 -9.16023 L 15.6294 -9.12717 L 15.6045 -9.0941 L 15.5796 -9.06103 L 15.5547 -9.02795 L 15.5298 -8.99486 L 15.5049 -8.96176 L 15.48 -8.92866 L 15.455 -8.89555 L 15.43 -8.86243 L 15.4051 -8.8293 L 15.3801 -8.79617 L 15.3551 -8.76303 L 15.3301 -8.72988 L 15.3051 -8.69673 L 15.28 -8.66356 L 15.255 -8.63039 L 15.2299 -8.59721 L 15.2048 -8.56403 L 15.1797 -8.53083 L 15.1546 -8.49763 L 15.1295 -8.46442 L 15.1044 -8.43121 L 15.0792 -8.39798 L 15.0541 -8.36475 L 15.0289 -8.33151 L 15.0037 -8.29826 L 14.9785 -8.265 L 14.9533 -8.23173 L 14.928 -8.19846 L 14.9028 -8.16518 L 14.8775 -8.13189 L 14.8523 -8.09859 L 14.827 -8.06528 L 14.8016 -8.03197 L 14.7763 -7.99865 L 14.751 -7.96531 L 14.7256 -7.93197 L 14.7002 -7.89863 L 14.6749 -7.86527 L 14.6495 -7.8319 L 14.624 -7.79853 L 14.5986 -7.76515 L 14.5731 -7.73175 L 14.5477 -7.69835 L 14.5222 -7.66494 L 14.4967 -7.63153 L 14.4712 -7.5981 L 14.4456 -7.56466 L 14.4201 -7.53122 L 14.3945 -7.49776 L 14.3689 -7.4643 L 14.3433 -7.43083 L 14.3177 -7.39735 L 14.292 -7.36385 L 14.2664 -7.33035 L 14.2407 -7.29685 L 14.215 -7.26333 L 14.1893 -7.2298 L 14.1893 -7.2298 L 14.2315 -7.2309 L 14.2737 -7.23198 L 14.3159 -7.23306 L 14.3581 -7.23413 L 14.4003 -7.23519 L 14.4424 -7.23624 L 14.4846 -7.23728 L 14.5267 -7.23832 L 14.5688 -7.23934 L 14.6109 -7.24036 L 14.6529 -7.24136 L 14.695 -7.24236 L 14.737 -7.24335 L 14.779 -7.24433 L 14.821 -7.24531 L 14.863 -7.24627 L 14.9049 -7.24723 L 14.9469 -7.24818 L 14.9888 -7.24912 L 15.0307 -7.25005 L 15.0726 -7.25098 L 15.1145 -7.2519 L 15.1563 -7.25281 L 15.1982 -7.25371 L 15.24 -7.2546 L 15.2818 -7.25549 L 15.3236 -7.25637 L 15.3654 -7.25724 L 15.4072 -7.25811 L 15.4489 -7.25896 L 15.4907 -7.25982 L 15.5324 -7.26066 L 15.5741 -7.2615 L 15.6158 -7.26232 L 15.6575 -7.26315 L 15.6991 -7.26396 L 15.7408 -7.26477 L 15.7824 -7.26557 L 15.824 -7.26637 L 15.8656 -7.26716 L 15.9072 -7.26794 L 15.9488 -7.26871 L 15.9903 -7.26948 L 16.0319 -7.27025 L 16.0734 -7.271 L 16.1149 -7.27175 L 16.1564 -7.2725 L 16.1979 -7.27323 L 16.2394 -7.27397 L 16.2809 -7.27469 L 16.3223 -7.27541 L 16.3638 -7.27612 L 16.4052 -7.27683 L 16.4466 -7.27753 L 16.488 -7.27823 L 16.5294 -7.27892 L 16.5707 -7.2796 L 16.6121 -7.28028 L 16.6534 -7.28095 L 16.6948 -7.28162 L 16.7361 -7.28228 L 16.7774 -7.28294 L 16.8187 -7.28359 L 16.86 -7.28423 L 16.9012 -7.28487 L 16.9425 -7.28551 L 16.9837 -7.28614 L 17.025 -7.28676 L 17.0662 -7.28738 L 17.1074 -7.28799 L 17.1486 -7.2886 L 17.1898 -7.2892 L 17.2309 -7.2898 L 17.2721 -7.2904 L 17.3133 -7.29098 L 17.3544 -7.29157 L 17.3955 -7.29215 L 17.4366 -7.29272 L 17.4777 -7.29329 L 17.5188 -7.29385 L 17.5599 -7.29441 L 17.601 -7.29497 L 17.642 -7.29552 L 17.6831 -7.29606 L 17.7241 -7.2966 L 17.7651 -7.29714 L 17.8061 -7.29767 L 17.8471 -7.2982 L 17.8881 -7.29872 L 17.9291 -7.29924 L 17.9701 -7.29975 L 18.011 -7.30026 L 18.052 -7.30077 L 18.0929 -7.30127 L 18.1338 -7.30177 L 18.1748 -7.30226 L 18.2134 -7.30835 L 18.2276 -7.27293 L 18.2417 -7.23749 L 18.2557 -7.20202 L 18.2697 -7.16652 L 18.2836 -7.131 L 18.2974 -7.09545 L 18.3112 -7.05987 L 18.3249 -7.02427 L 18.3385 -6.98864 L 18.352 -6.95298 L 18.3655 -6.9173 L 18.3789 -6.88159 L 18.3923 -6.84585 L 18.4055 -6.81009 L 18.4187 -6.7743 L 18.4319 -6.73849 L 18.4449 -6.70265 L 18.4579 -6.66679 L 18.4708 -6.6309 L 18.4837 -6.59499 L 18.4965 -6.55905 L 18.5092 -6.52309 L 18.5218 -6.4871 L 18.5344 -6.45109 L 18.5469 -6.41505 L 18.5593 -6.37899 L 18.5717 -6.3429 L 18.584 -6.3068 L 18.5962 -6.27066 L 18.6084 -6.23451 L 18.6205 -6.19833 L 18.6325 -6.16212 L 18.6444 -6.1259 L 18.6844 -6.00296 L 18.696 -5.96663 L 18.7075 -5.93028 L 18.719 -5.89391 L 18.7305 -5.85751 L 18.7418 -5.8211 L 18.7531 -5.78466 L 18.7643 -5.7482 L 18.7754 -5.71171 L 18.7865 -5.67521 L 18.7975 -5.63868 L 18.8084 -5.60214 L 18.8193 -5.56557 L 18.8301 -5.52898 L 18.8408 -5.49237 L 18.8514 -5.45574 L 18.862 -5.41909 L 18.8725 -5.38242 L 18.8829 -5.34573 L 18.8933 -5.30902 L 18.9035 -5.27228 L 18.9137 -5.23553 L 18.9239 -5.19876 L 18.934 -5.16197 L 18.944 -5.12516 L 18.9539 -5.08833 L 18.9637 -5.05148 L 18.9735 -5.01461 L 18.9832 -4.97772 L 18.9929 -4.94082 L 19.0024 -4.90389 L 19.0119 -4.86695 L 19.0214 -4.82998 L 19.0307 -4.793 L 18.9959 -4.7752 L 18.9625 -4.75155 L 18.9291 -4.7279 L 18.8956 -4.70424 L 18.8622 -4.68058 L 18.8288 -4.65692 L 18.7953 -4.63325 L 18.7619 -4.60959 L 18.7284 -4.58592 L 18.6949 -4.56224 L 18.6614 -4.53857 L 18.6279 -4.51489 L 18.5944 -4.49121 L 18.5609 -4.46752 L 18.5274 -4.44384 L 18.4938 -4.42015 L 18.4602 -4.39645 L 18.4267 -4.37276 L 18.3931 -4.34906 L 18.3595 -4.32536 L 18.3259 -4.30165 L 18.2922 -4.27795 L 18.2586 -4.25424 L 18.225 -4.23052 L 18.1913 -4.20681 L 18.1576 -4.18309 L 18.1239 -4.15937 L 18.0903 -4.13564 L 18.0565 -4.11191 L 18.0228 -4.08818 L 17.9891 -4.06445 L 17.9553 -4.04071 L 17.9216 -4.01697 L 17.8878 -3.99323 L 17.854 -3.96949 L 17.8202 -3.94574 L 17.7864 -3.92199 L 17.7526 -3.89823 L 17.7187 -3.87448 L 17.6849 -3.85071 L 17.651 -3.82695 L 17.6171 -3.80319 L 17.5832 -3.77942 L 17.5493 -3.75564 L 17.5154 -3.73187 L 17.4814 -3.70809 L 17.4475 -3.68431 L 17.4135 -3.66052 L 17.3795 -3.63674 L 17.3455 -3.61295 L 17.3115 -3.58915 L 17.2775 -3.56535 L 17.2434 -3.54155 L 17.2094 -3.51775 L 17.1753 -3.49395 L 17.1412 -3.47014 L 17.1071 -3.44632 L 17.073 -3.42251 L 17.0388 -3.39869 L 17.0047 -3.37487 L 16.9705 -3.35104 L 16.9363 -3.32722 L 16.9021 -3.30338 L 16.8679 -3.27955 L 16.8337 -3.25571 L 16.7994 -3.23187 L 16.7652 -3.20803 L 16.7309 -3.18418 L 16.6966 -3.16033 L 16.6623 -3.13648 L 16.6279 -3.11262 L 16.5936 -3.08876 L 16.5592 -3.0649 L 16.5248 -3.04103 L 16.4904 -3.01716 L 16.456 -2.99329 L 16.4216 -2.96941 L 16.3871 -2.94553 L 16.3526 -2.92165 L 16.3182 -2.89777 L 16.2837 -2.87388 L 16.2491 -2.84999 L 16.2146 -2.82609 L 16.18 -2.80219 L 16.1454 -2.77829 L 16.1108 -2.75439 L 16.0762 -2.73048 L 16.0416 -2.70657 L 16.0069 -2.68265 L 15.9722 -2.65873 L 15.9375 -2.63481 L 15.9028 -2.61089 L 15.8681 -2.58696 L 15.8333 -2.56303 L 15.7986 -2.5391 L 15.7638 -2.51516 L 15.7289 -2.49122 L 15.7289 -2.49122 L 15.7694 -2.47921 L 15.8099 -2.4672 L 15.8504 -2.45518 L 15.8909 -2.44316 L 15.9313 -2.43114 L 15.9717 -2.41911 L 16.0121 -2.40709 L 16.0525 -2.39505 L 16.0928 -2.38302 L 16.1332 -2.37098 L 16.1735 -2.35894 L 16.2138 -2.3469 L 16.254 -2.33486 L 16.2943 -2.32281 L 16.3345 -2.31076 L 16.3747 -2.2987 L 16.415 -2.28665 L 16.4551 -2.27459 L 16.4953 -2.26253 L 16.5354 -2.25047 L 16.5756 -2.2384 L 16.6157 -2.22633 L 16.6558 -2.21426 L 16.6959 -2.20219 L 16.7359 -2.19011 L 16.776 -2.17804 L 16.816 -2.16596 L 16.856 -2.15387 L 16.896 -2.14179 L 16.9359 -2.1297 L 16.9759 -2.11762 L 17.0158 -2.10553 L 17.0558 -2.09343 L 17.0957 -2.08134 L 17.1356 -2.06924 L 17.1754 -2.05714 L 17.2153 -2.04504 L 17.2551 -2.03294 L 17.295 -2.02084 L 17.3348 -2.00873 L 17.3746 -1.99662 L 17.4144 -1.98451 L 17.4541 -1.9724 L 17.4939 -1.96029 L 17.5336 -1.94817 L 17.5733 -1.93606 L 17.613 -1.92394 L 17.6527 -1.91182 L 17.6924 -1.8997 L 17.732 -1.88758 L 17.7717 -1.87545 L 17.8113 -1.86333 L 17.8509 -1.8512 L 17.8905 -1.83907 L 17.9301 -1.82694 L 17.9697 -1.81481 L 18.0092 -1.80267 L 18.0488 -1.79054 L 18.0883 -1.7784 L 18.1278 -1.76626 L 18.1673 -1.75412 L 18.2068 -1.74198 L 18.2463 -1.72984 L 18.2857 -1.7177 L 18.3252 -1.70556 L 18.3646 -1.69341 L 18.404 -1.68126 L 18.4434 -1.66912 L 18.4828 -1.65697 L 18.5222 -1.64482 L 18.5616 -1.63266 L 18.6009 -1.62051 L 18.6403 -1.60836 L 18.6796 -1.5962 L 18.7189 -1.58405 L 18.7582 -1.57189 L 18.7975 -1.55973 L 18.8368 -1.54757 L 18.8761 -1.53541 L 18.9153 -1.52325 L 18.9546 -1.51109 L 18.9938 -1.49893 L 19.033 -1.48676 L 19.0722 -1.4746 L 19.1114 -1.46243 L 19.1506 -1.45027 L 19.1897 -1.4381 L 19.2289 -1.42593 L 19.268 -1.41376 L 19.3072 -1.40159 L 19.3463 -1.38942 L 19.3854 -1.37725 L 19.4245 -1.36508 L 19.4636 -1.3529 L 19.5027 -1.34073 L 19.5417 -1.32855 L 19.5804 -1.32239 L 19.5829 -1.28433 L 19.5854 -1.24627 L 19.5878 -1.2082 L 19.5901 -1.17012 L 19.5923 -1.13205 L 19.5945 -1.09396 L 19.5966 -1.05588 L 19.5986 -1.01778 L 19.6005 -0.97969 L 19.6024 -0.941591 L 19.6042 -0.903489 L 19.6059 -0.865383 L 19.6076 -0.827274 L 19.6091 -0.789162 L 19.6106 -0.751048 L 19.612 -0.71293 L 19.6134 -0.674809 L 19.6147 -0.636686 L 19.6159 -0.598561 L 19.617 -0.560433 L 19.618 -0.522303 L 19.619 -0.484172 L 19.6199 -0.446038 L 19.6208 -0.407903 L 19.6215 -0.369766 L 19.6222 -0.331628 L 19.6228 -0.293488 L 19.6233 -0.255347 L 19.6238 -0.217206 L 19.6242 -0.179064 L 19.6245 -0.14092 L 19.6247 -0.102777 L 19.6249 -0.0646329Z"
id="path1" />
</g>
</svg>
