<?xml version="1.0" encoding="UTF-8" standalone="no"?>
<svg version="1.1">
<g
style="fill:none;stroke:#000000;stroke-opacity:1;stroke-width:0.1">
<path d="M 6.99958 0.0764488 L 6.99881 0.129221 L 6.99763 0.181985 L 6.99606 0.23474 L 6.99409 0.287481 L 6.99173 0.340205 L 6.93571 0.399714 L 6.87846 0.469216 L 6.82043 0.538665 L 6.7616 0.608051 L 6.70197 0.677365 L 6.6415 0.746594 L 6.58019 0.815728 L 6.518 0.884754 L 6.45493 0.95366 L 6.39095 1.02243 L 6.32605 1.09105 L 6.26019 1.15951 L 6.19336 1.22779 L 6.12554 1.29587 L 6.0567 1.36374 L 5.98682 1.43137 L 5.91588 1.49875 L 5.84385 1.56586 L 5.84385 1.56586 L 5.87268 1.65998 L 5.90043 1.7538 L 5.92713 1.84732 L 5.95281 1.94051 L 5.9775 2.03338 L 6.00124 2.12593 L 6.02404 2.21814 L 6.04594 2.31003 L 6.06697 2.40157 L 6.08713 2.49278 L 6.10647 2.58365 L 6.12501 2.67418 L 6.14276 2.76437 L 6.15975 2.85421 L 6.176 2.94372 L 6.19153 3.03288 L 6.20636 3.12169 L 6.22512 3.20124 L 6.2008 3.24808 L 6.17614 3.29474 L 6.15112 3.34121 L 6.12576 3.3875 L 6.10004 3.43358 L 6.02359 3.566 L 5.99653 3.61131 L 5.96914 3.65642 L 5.9414 3.70132 L 5.91332 3.74601 L 5.88491 3.79049 L 5.80665 3.81402 L 5.72231 3.84558 L 5.63733 3.87671 L 5.5517 3.90739 L 5.46539 3.9376 L 5.37841 3.96732 L 5.29074 3.99653 L 5.20238 4.02522 L 5.11331 4.05336 L 5.02351 4.08093 L 4.93299 4.1079 L 4.84173 4.13426 L 4.74971 4.15998 L 4.65693 4.18503 L 4.56339 4.20938 L 4.46905 4.23302 L 4.37393 4.2559 L 4.278 4.278 L 4.278 4.278 L 4.2559 4.37393 L 4.23302 4.46905 L 4.20938 4.56339 L 4.18503 4.65693 L 4.15998 4.74971 L 4.13426 4.84173 L 4.1079 4.93299 L 4.08093 5.02351 L 4.05336 5.11331 L 4.02522 5.20238 L 3.99653 5.29074 L 3.96732 5.37841 L 3.9376 5.46539 L 3.90739 5.5517 L 3.87671 5.63733 L 3.84558 5.72231 L 3.81402 5.80665 L 3.79049 5.88491 L 3.74601 5.91332 L 3.70132 5.9414 L 3.65642 5.96914 L 3.61131 5.99653 L 3.566 6.02359 L 3.43358 6.10004 L 3.3875 6.12576 L 3.34121 6.15112 L 3.29474 6.17614 L 3.24808 6.2008 L 3.20124 6.22512 L 3.12169 6.20636 L 3.03288 6.19153 L 2.94372 6.176 L 2.85421 6.15975 L 2.76437 6.14276 L 2.67418 6.12501 L 2.58365 6.10647 L 2.49278 6.08713 L 2.40157 6.06697 L 2.31003 6.04594 L 2.21814 6.02404 L 2.12593 6.00124 L 2.03338 5.9775 L 1.94051 5.95281 L 1.84732 5.92713 L 1.7538 5.90043 L 1.65998 5.87268 L 1.56586 5.84385 L 1.56586 5.84385 L 1.49875 5.91588 L 1.43137 5.98682 L 1.36374 6.0567 L 1.29587 6.12554 L 1.22779 6.19336 L 1.15951 6.26019 L 1.09105 6.32605 L 1.02243 6.39095 L 0.95366 6.45493 L 0.884754 6.518 L 0.815728 6.58019 L 0.746594 6.6415 L 0.677365 6.70197 L 0.608051 6.7616 L 0.538665 6.82043 L 0.469216 6.87846 L 0.399714 6.93571 L 0.340205 6.99173 L 0.287481 6.99409 L 0.23474 6.99606 L 0.181985 6.99763 L 0.129221 6.99881 L 0.0764488 6.99958 L -0.0764488 6.99958 L -0.129221 6.99881 L -0.181985 6.99763 L -0.23474 6.99606 L -0.287481 6.99409 L -0.340205 6.99173 L -0.399714 6.93571 L -0.469216 6.87846 L -0.538665 6.82043 L -0.608051 6.7616 L -0.677365 6.70197 L -0.746594 6.6415 L -0.815728 6.58019 L -0.884754 6.518 L -0.95366 6.45493 L -1.02243 6.39095 L -1.09105 6.32605 L -1.15951 6.26019 L -1.22779 6.19336 L -1.29587 6.12554 L -1.36374 6.0567 L -1.43137 5.98682 L -1.49875 5.91588 L -1.56586 5.84385 L -1.56586 5.84385 L -1.65998 5.87268 L -1.7538 5.90043 L -1.84732 5.92713 L -1.94051 5.95281 L -2.03338 5.9775 L -2.12593 6.00124 L -2.21814 6.02404 L -2.31003 6.04594 L -2.40157 6.06697 L -2.49278 6.08713 L -2.58365 6.10647 L -2.67418 6.12501 L -2.76437 6.14276 L -2.85421 6.15975 L -2.94372 6.176 L -3.03288 6.19153 L -3.12169 6.20636 L -3.20124 6.22512 L -3.24808 6.2008 L -3.29474 6.17614 L -3.34121 6.15112 L -3.3875 6.12576 L -3.43358 6.10004 L -3.566 6.02359 L -3.61131 5.99653 L -3.65642 5.96914 L -3.70132 5.9414 L -3.74601 5.91332 L -3.79049 5.88491 L -3.81402 5.80665 L -3.84558 5.72231 L -3.87671 5.63733 L -3.90739 5.5517 L -3.9376 5.46539 L -3.96732 5.37841 L -3.99653 5.29074 L -4.02522 5.20238 L -4.05336 5.11331 L -4.08093 5.02351 L -4.1079 4.93299 L -4.13426 4.84173 L -4.15998 4.74971 L -4.18503 4.65693 L -4.20938 4.56339 L -4.23302 4.46905 L -4.2559 4.37393 L -4.278 4.278 L -4.278 4.278 L -4.37393 4.2559 L -4.46905 4.23302 L -4.56339 4.20938 L -4.65693 4.18503 L -4.74971 4.15998 L -4.84173 4.13426 L -4.93299 4.1079 L -5.02351 4.08093 L -5.11331 4.05336 L -5.20238 4.02522 L -5.29074 3.99653 L -5.37841 3.96732 L -5.46539 3.9376 L -5.5517 3.90739 L -5.63733 3.87671 L -5.72231 3.84558 L -5.80665 3.81402 L -5.88491 3.79049 L -5.91332 3.74601 L -5.9414 3.70132 L -5.96914 3.65642 L -5.99653 3.61131 L -6.02359 3.566 L -6.10004 3.43358 L -6.12576 3.3875 L -6.15112 3.34121 L -6.17614 3.29474 L -6.2008 3.24808 L -6.22512 3.20124 L -6.20636 3.12169 L -6.19153 3.03288 L -6.176 2.94372 L -6.15975 2.85421 L -6.14276 2.76437 L -6.12501 2.67418 L -6.10647 2.58365 L -6.08713 2.49278 L -6.06697 2.40157 L -6.04594 2.31003 L -6.02404 2.21814 L -6.00124 2.12593 L -5.9775 2.03338 L -5.95281 1.94051 L -5.92713 1.84732 L -5.90043 1.7538 L -5.87268 1.65998 L -5.84385 1.56586 L -5.84385 1.56586 L -5.91588 1.49875 L -5.98682 1.43137 L -6.0567 1.36374 L -6.12554 1.29587 L -6.19336 1.22779 L -6.26019 1.15951 L -6.32605 1.09105 L -6.39095 1.02243 L -6.45493 0.95366 L -6.518 0.884754 L -6.58019 0.815728 L -6.6415 0.746594 L -6.70197 0.677365 L -6.7616 0.608051 L -6.82043 0.538665 L -6.87846 0.469216 L -6.93571 0.399714 L -6.99173 0.340205 L -6.99409 0.287481 L -6.99606 0.23474 L -6.99763 0.181985 L -6.99881 0.129221 L -6.99958 0.0764488 L -6.99958 -0.0764488 L -6.99881 -0.129221 L -6.99763 -0.181985 L -6.99606 -0.23474 L -6.99409 -0.287481 L -6.99173 -0.340205 L -6.93571 -0.399714 L -6.87846 -0.469216 L -6.82043 -0.538665 L -6.7616 -0.608051 L -6.70197 -0.677365 L -6.6415 -0.746594 L -6.58019 -0.815728 L -6.518 -0.884754 L -6.45493 -0.95366 L -6.39095 -1.02243 L -6.32605 -1.09105 L -6.26019 -1.15951 L -6.19336 -1.22779 L -6.12554 -1.29587 L -6.0567 -1.36374 L -5.98682 -1.43137 L -5.91588 -1.49875 L -5.84385 -1.56586 L -5.84385 -1.56586 L -5.87268 -1.65998 L -5.90043 -1.7538 L -5.92713 -1.84732 L -5.95281 -1.94051 L -5.9775 -2.03338 L -6.00124 -2.12593 L -6.02404 -2.21814 L -6.04594 -2.31003 L -6.06697 -2.40157 L -6.08713 -2.49278 L -6.10647 -2.58365 L -6.12501 -2.67418 L -6.14276 -2.76437 L -6.15975 -2.85421 L -6.176 -2.94372 L -6.19153 -3.03288 L -6.20636 -3.12169 L -6.22512 -3.20124 L -6.2008 -3.24808 L -6.17614 -3.29474 L -6.15112 -3.34121 L -6.12576 -3.3875 L -6.10004 -3.43358 L -6.02359 -3.566 L -5.99653 -3.61131 L -5.96914 -3.65642 L -5.9414 -3.70132 L -5.91332 -3.74601 L -5.88491 -3.79049 L -5.80665 -3.81402 L -5.72231 -3.84558 L -5.63733 -3.87671 L -5.5517 -3.90739 L -5.46539 -3.9376 L -5.37841 -3.96732 L -5.29074 -3.99653 L -5.20238 -4.02522 L -5.11331 -4.05336 L -5.02351 -4.08093 L -4.93299 -4.1079 L -4.84173 -4.13426 L -4.74971 -4.15998 L -4.65693 -4.18503 L -4.56339 -4.20938 L -4.46905 -4.23302 L -4.37393 -4.2559 L -4.278 -4.278 L -4.278 -4.278 L -4.2559 -4.37393 L -4.23302 -4.46905 L -4.20938 -4.56339 L -4.18503 -4.65693 L -4.15998 -4.74971 L -4.13426 -4.84173 L -4.1079 -4.93299 L -4.08093 -5.02351 L -4.05336 -5.11331 L -4.02522 -5.20238 L -3.99653 -5.29074 L -3.96732 -5.37841 L -3.9376 -5.46539 L -3.90739 -5.5517 L -3.87671 -5.63733 L -3.84558 -5.72231 L -3.81402 -5.80665 L -3.79049 -5.88491 L -3.74601 -5.91332 L -3.70132 -5.9414 L -3.65642 -5.96914 L -3.61131 -5.99653 L -3.566 -6.02359 L -3.43358 -6.10004 L -3.3875 -6.12576 L -3.34121 -6.15112 L -3.29474 -6.17614 L -3.24808 -6.2008 L -3.20124 -6.22512 L -3.12169 -6.20636 L -3.03288 -6.19153 L -2.94372 -6.176 L -2.85421 -6.15975 L -2.76437 -6.14276 L -2.67418 -6.12501 L -2.58365 -6.10647 L -2.49278 -6.08713 L -2.40157 -6.06697 L -2.31003 -6.04594 L -2.21814 -6.02404 L -2.12593 -6.00124 L -2.03338 -5.9775 L -1.94051 -5.95281 L -1.84732 -5.92713 L -1.7538 -5.90043 L -1.65998 -5.87268 L -1.56586 -5.84385 L -1.56586 -5.84385 L -1.49875 -5.91588 L -1.43137 -5.98682 L -1.36374 -6.0567 L -1.29587 -6.12554 L -1.22779 -6.19336 L -1.15951 -6.26019 L -1.09105 -6.32605 L -1.02243 -6.39095 L -0.95366 -6.45493 L -0.884754 -6.518 L -0.815728 -6.58019 L -0.746594 -6.6415 L -0.677365 -6.70197 L -0.608051 -6.7616 L -0.538665 -6.82043 L -0.469216 -6.87846 L -0.399714 -6.93571 L -0.340205 -6.99173 L -0.287481 -6.99409 L -0.23474 -6.99606 L -0.181985 -6.99763 L -0.129221 -6.99881 L -0.0764488 -6.99958 L 0.0764488 -6.99958 L 0.129221 -6.99881 L 0.181985 -6.99763 L 0.23474 -6.99606 L 0.287481 -6.99409 L 0.340205 -6.99173 L 0.399714 -6.93571 L 0.469216 -6.87846 L 0.538665 -6.82043 L 0.608051 -6.7616 L 0.677365 -6.70197 L 0.746594 -6.6415 L 0.815728 -6.58019 L 0.884754 -6.518 L 0.95366 -6.45493 L 1.02243 -6.39095 L 1.09105 -6.32605 L 1.15951 -6.26019 L 1.22779 -6.19336 L 1.29587 -6.12554 L 1.36374 -6.0567 L 1.43137 -5.98682 L 1.49875 -5.91588 L 1.56586 -5.84385 L 1.56586 -5.84385 L 1.65998 -5.87268 L 1.7538 -5.90043 L 1.84732 -5.92713 L 1.94051 -5.95281 L 2.03338 -5.9775 L 2.12593 -6.00124 L 2.21814 -6.02404 L 2.31003 -6.04594 L 2.40157 -6.06697 L 2.49278 -6.08713 L 2.58365 -6.10647 L 2.67418 -6.12501 L 2.76437 -6.14276 L 2.85421 -6.15975 L 2.94372 -6.176 L 3.03288 -6.19153 L 3.12169 -6.20636 L 3.20124 -6.22512 L 3.24808 -6.2008 L 3.29474 -6.17614 L 3.34121 -6.15112 L 3.3875 -6.12576 L 3.43358 -6.10004 L 3.566 -6.02359 L 3.61131 -5.99653 L 3.65642 -5.96914 L 3.70132 -5.9414 L 3.74601 -5.91332 L 3.79049 -5.88491 L 3.81402 -5.80665 L 3.84558 -5.72231 L 3.87671 -5.63733 L 3.90739 -5.5517 L 3.9376 -5.46539 L 3.96732 -5.37841 L 3.99653 -5.29074 L 4.02522 -5.20238 L 4.05336 -5.11331 L 4.08093 -5.02351 L 4.1079 -4.93299 L 4.13426 -4.84173 L 4.15998 -4.74971 L 4.18503 -4.65693 L 4.20938 -4.56339 L 4.23302 -4.46905 L 4.2559 -4.37393 L 4.278 -4.278 L 4.278 -4.278 L 4.37393 -4.2559 L 4.46905 -4.23302 L 4.56339 -4.20938 L 4.65693 -4.18503 L 4.74971 -4.15998 L 4.84173 -4.13426 L 4.93299 -4.1079 L 5.02351 -4.08093 L 5.11331 -4.05336 L 5.20238 -4.02522 L 5.29074 -3.99653 L 5.37841 -3.96732 L 5.46539 -3.9376 L 5.5517 -3.90739 L 5.63733 -3.87671 L 5.72231 -3.84558 L 5.80665 -3.81402 L 5.88491 -3.79049 L 5.91332 -3.74601 L 5.9414 -3.70132 L 5.96914 -3.65642 L 5.99653 -3.61131 L 6.02359 -3.566 L 6.10004 -3.43358 L 6.12576 -3.3875 L 6.15112 -3.34121 L 6.17614 -3.29474 L 6.2008 -3.24808 L 6.22512 -3.20124 L 6.20636 -3.12169 L 6.19153 -3.03288 L 6.176 -2.94372 L 6.15975 -2.85421 L 6.14276 -2.76437 L 6.12501 -2.67418 L 6.10647 -2.58365 L 6.08713 -2.49278 L 6.06697 -2.40157 L 6.04594 -2.31003 L 6.02404 -2.21814 L 6.00124 -2.12593 L 5.9775 -2.03338 L 5.95281 -1.94051 L 5.92713 -1.84732 L 5.90043 -1.7538 L 5.87268 -1.65998 L 5.84385 -1.56586 L 5.84385 -1.56586 L 5.91588 -1.49875 L 5.98682 -1.43137 L 6.0567 -1.36374 L 6.12554 -1.29587 L 6.19336 -1.22779 L 6.26019 -1.15951 L 6.32605 -1.09105 L 6.39095 -1.02243 L 6.45493 -0.95366 L 6.518 -0.884754 L 6.58019 -0.815728 L 6.6415 -0.746594 L 6.70197 -0.677365 L 6.7616 -0.608051 L 6.82043 -0.538665 L 6.87846 -0.469216 L 6.93571 -0.399714 L 6.99173 -0.340205 L 6.99409 -0.287481 L 6.99606 -0.23474 L 6.99763 -0.181985 L 6.99881 -0.129221 L 6.99958 -0.0764488Z"
id="path1" />
</g>
</svg>
