<?xml version="1.0" encoding="UTF-8" standalone="no"?>
<svg version="1.1">
<g
style="fill:none;stroke:#000000;stroke-opacity:1;stroke-width:0.1">
<path d="M 6.99985 0.0463279 L 6.99955 0.0796766 L 6.99909 0.113023 L 6.99847 0.146368 L 6.99769 0.179709 L 6.99676 0.213045 L 6.99566 0.246377 L 6.99441 0.279704 L 6.993 0.313024 L 6.99143 0.346337 L 6.9897 0.379642 L 6.98781 0.412938 L 6.98576 0.446226 L 6.98356 0.479502 L 6.94656 0.528645 L 6.90833 0.587859 L 6.86955 0.647025 L 6.8302 0.706138 L 6.79027 0.765192 L 6.74977 0.824181 L 6.70868 0.883097 L 6.66699 0.941936 L 6.6247 1.00069 L 6.58179 1.05935 L 6.53827 1.11791 L 6.49412 1.17636 L 6.44932 1.2347 L 6.40389 1.29291 L 6.3578 1.351 L 6.31104 1.40894 L 6.26361 1.46673 L 6.2155 1.52436 L 6.16671 1.58182 L 6.11721 1.6391 L 6.11721 1.6391 L 6.13143 1.71346 L 6.14496 1.78762 L 6.15781 1.86158 L 6.16999 1.93535 L 6.18151 2.0089 L 6.19239 2.08225 L 6.20263 2.15538 L 6.21225 2.2283 L 6.22126 2.301 L 6.22967 2.37347 L 6.2375 2.44573 L 6.24475 2.51775 L 6.25143 2.58955 L 6.25756 2.66112 L 6.26314 2.73246 L 6.26819 2.80356 L 6.27271 2.87443 L 6.27672 2.94507 L 6.28022 3.01546 L 6.28769 3.07652 L 6.27296 3.10644 L 6.25809 3.13629 L 6.24308 3.16607 L 6.22792 3.19578 L 6.21263 3.22541 L 6.19719 3.25497 L 6.18161 3.28446 L 6.16589 3.31388 L 6.15003 3.34321 L 6.13404 3.37248 L 6.1179 3.40166 L 6.10162 3.43077 L 6.08521 3.4598 L 6.03888 3.54004 L 6.02195 3.56878 L 6.00488 3.59742 L 5.98767 3.62599 L 5.97033 3.65448 L 5.95285 3.68288 L 5.93523 3.7112 L 5.91748 3.73944 L 5.8996 3.76759 L 5.88158 3.79565 L 5.86343 3.82363 L 5.84515 3.85152 L 5.82674 3.87932 L 5.80819 3.90704 L 5.75158 3.9311 L 5.68886 3.96327 L 5.62569 3.99511 L 5.56205 4.02663 L 5.49795 4.05781 L 5.43338 4.08865 L 5.36834 4.11912 L 5.30281 4.14923 L 5.23681 4.17897 L 5.17033 4.20832 L 5.10335 4.23727 L 5.03589 4.26582 L 4.96793 4.29394 L 4.89947 4.32164 L 4.83051 4.34889 L 4.76105 4.37569 L 4.69108 4.40203 L 4.62061 4.42788 L 4.54961 4.45325 L 4.47811 4.47811 L 4.47811 4.47811 L 4.45325 4.54961 L 4.42788 4.62061 L 4.40203 4.69108 L 4.37569 4.76105 L 4.34889 4.83051 L 4.32164 4.89947 L 4.29394 4.96793 L 4.26582 5.03589 L 4.23727 5.10335 L 4.20832 5.17033 L 4.17897 5.23681 L 4.14923 5.30281 L 4.11912 5.36834 L 4.08865 5.43338 L 4.05781 5.49795 L 4.02663 5.56205 L 3.99511 5.62569 L 3.96327 5.68886 L 3.9311 5.75158 L 3.90704 5.80819 L 3.87932 5.82674 L 3.85152 5.84515 L 3.82363 5.86343 L 3.79565 5.88158 L 3.76759 5.8996 L 3.73944 5.91748 L 3.7112 5.93523 L 3.68288 5.95285 L 3.65448 5.97033 L 3.62599 5.98767 L 3.59742 6.00488 L 3.56878 6.02195 L 3.54004 6.03888 L 3.4598 6.08521 L 3.43077 6.10162 L 3.40166 6.1179 L 3.37248 6.13404 L 3.34321 6.15003 L 3.31388 6.16589 L 3.28446 6.18161 L 3.25497 6.19719 L 3.22541 6.21263 L 3.19578 6.22792 L 3.16607 6.24308 L 3.13629 6.25809 L 3.10644 6.27296 L 3.07652 6.28769 L 3.01546 6.28022 L 2.94507 6.27672 L 2.87443 6.27271 L 2.80356 6.26819 L 2.73246 6.26314 L 2.66112 6.25756 L 2.58955 6.25143 L 2.51775 6.24475 L 2.44573 6.2375 L 2.37347 6.22967 L 2.301 6.22126 L 2.2283 6.21225 L 2.15538 6.20263 L 2.08225 6.19239 L 2.0089 6.18151 L 1.93535 6.16999 L 1.86158 6.15781 L 1.78762 6.14496 L 1.71346 6.13143 L 1.6391 6.11721 L 1.6391 6.11721 L 1.58182 6.16671 L 1.52436 6.2155 L 1.46673 6.26361 L 1.40894 6.31104 L 1.351 6.3578 L 1.29291 6.40389 L 1.2347 6.44932 L 1.17636 6.49412 L 1.11791 6.53827 L 1.05935 6.58179 L 1.00069 6.6247 L 0.941936 6.66699 L 0.883097 6.70868 L 0.824181 6.74977 L 0.765192 6.79027 L 0.706138 6.8302 L 0.647025 6.86955 L 0.587859 6.90833 L 0.528645 6.94656 L 0.479502 6.98356 L 0.446226 6.98576 L 0.412938 6.98781 L 0.379642 6.9897 L 0.346337 6.99143 L 0.313024 6.993 L 0.279704 6.99441 L 0.246377 6.99566 L 0.213045 6.99676 L 0.179709 6.99769 L 0.146368 6.99847 L 0.113023 6.99909 L 0.0796766 6.99955 L 0.0463279 6.99985 L -0.0463279 6.99985 L -0.0796766 6.99955 L -0.113023 6.99909 L -0.146368 6.99847 L -0.179709 6.99769 L -0.213045 6.99676 L -0.246377 6.99566 L -0.279704 6.99441 L -0.313024 6.993 L -0.346337 6.99143 L -0.379642 6.9897 L -0.412938 6.98781 L -0.446226 6.98576 L -0.479502 6.98356 L -0.528645 6.94656 L -0.587859 6.90833 L -0.647025 6.86955 L -0.706138 6.8302 L -0.765192 6.79027 L -0.824181 6.74977 L -0.883097 6.70868 L -0.941936 6.66699 L -1.00069 6.6247 L -1.05935 6.58179 L -1.11791 6.53827 L -1.17636 6.49412 L -1.2347 6.44932 L -1.29291 6.40389 L -1.351 6.3578 L -1.40894 6.31104 L -1.46673 6.26361 L -1.52436 6.2155 L -1.58182 6.16671 L -1.6391 6.11721 L -1.6391 6.11721 L -1.71346 6.13143 L -1.78762 6.14496 L -1.86158 6.15781 L -1.93535 6.16999 L -2.0089 6.18151 L -2.08225 6.19239 L -2.15538 6.20263 L -2.2283 6.21225 L -2.301 6.22126 L -2.37347 6.22967 L -2.44573 6.2375 L -2.51775 6.24475 L -2.58955 6.25143 L -2.66112 6.25756 L -2.73246 6.26314 L -2.80356 6.26819 L -2.87443 6.27271 L -2.94507 6.27672 L -3.01546 6.28022 L -3.07652 6.28769 L -3.10644 6.27296 L -3.13629 6.25809 L -3.16607 6.24308 L -3.19578 6.22792 L -3.22541 6.21263 L -3.25497 6.19719 L -3.28446 6.18161 L -3.31388 6.16589 L -3.34321 6.15003 L -3.37248 6.13404 L -3.40166 6.1179 L -3.43077 6.10162 L -3.4598 6.08521 L -3.54004 6.03888 L -3.56878 6.02195 L -3.59742 6.00488 L -3.62599 5.98767 L -3.65448 5.97033 L -3.68288 5.95285 L -3.7112 5.93523 L -3.73944 5.91748 L -3.76759 5.8996 L -3.79565 5.88158 L -3.82363 5.86343 L -3.85152 5.84515 L -3.87932 5.82674 L -3.90704 5.80819 L -3.9311 5.75158 L -3.96327 5.68886 L -3.99511 5.62569 L -4.02663 5.56205 L -4.05781 5.49795 L -4.08865 5.43338 L -4.11912 5.36834 L -4.14923 5.30281 L -4.17897 5.23681 L -4.20832 5.17033 L -4.23727 5.10335 L -4.26582 5.03589 L -4.29394 4.96793 L -4.32164 4.89947 L -4.34889 4.83051 L -4.37569 4.76105 L -4.40203 4.69108 L -4.42788 4.62061 L -4.45325 4.54961 L -4.47811 4.47811 L -4.47811 4.47811 L -4.54961 4.45325 L -4.62061 4.42788 L -4.69108 4.40203 L -4.76105 4.37569 L -4.83051 4.34889 L -4.89947 4.32164 L -4.96793 4.29394 L -5.03589 4.26582 L -5.10335 4.23727 L -5.17033 4.20832 L -5.23681 4.17897 L -5.30281 4.14923 L -5.36834 4.11912 L -5.43338 4.08865 L -5.49795 4.05781 L -5.56205 4.02663 L -5.62569 3.99511 L -5.68886 3.96327 L -5.75158 3.9311 L -5.80819 3.90704 L -5.82674 3.87932 L -5.84515 3.85152 L -5.86343 3.82363 L -5.88158 3.79565 L -5.8996 3.76759 L -5.91748 3.73944 L -5.93523 3.7112 L -5.95285 3.68288 L -5.97033 3.65448 L -5.98767 3.62599 L -6.00488 3.59742 L -6.02195 3.56878 L -6.03888 3.54004 L -6.08521 3.4598 L -6.10162 3.43077 L -6.1179 3.40166 L -6.13404 3.37248 L -6.15003 3.34321 L -6.16589 3.31388 L -6.18161 3.28446 L -6.19719 3.25497 L -6.21263 3.22541 L -6.22792 3.19578 L -6.24308 3.16607 L -6.25809 3.13629 L -6.27296 3.10644 L -6.28769 3.07652 L -6.28022 3.01546 L -6.27672 2.94507 L -6.27271 2.87443 L -6.26819 2.80356 L -6.26314 2.73246 L -6.25756 2.66112 L -6.25143 2.58955 L -6.24475 2.51775 L -6.2375 2.44573 L -6.22967 2.37347 L -6.22126 2.301 L -6.21225 2.2283 L -6.20263 2.15538 L -6.19239 2.08225 L -6.18151 2.0089 L -6.16999 1.93535 L -6.15781 1.86158 L -6.14496 1.78762 L -6.13143 1.71346 L -6.11721 1.6391 L -6.11721 1.6391 L -6.16671 1.58182 L -6.2155 1.52436 L -6.26361 1.46673 L -6.31104 1.40894 L -6.3578 1.351 L -6.40389 1.29291 L -6.44932 1.2347 L -6.49412 1.17636 L -6.53827 1.11791 L -6.58179 1.05935 L -6.6247 1.00069 L -6.66699 0.941936 L -6.70868 0.883097 L -6.74977 0.824181 L -6.79027 0.765192 L -6.8302 0.706138 L -6.86955 0.647025 L -6.90833 0.587859 L -6.94656 0.528645 L -6.98356 0.479502 L -6.98576 0.446226 L -6.98781 0.412938 L -6.9897 0.379642 L -6.99143 0.346337 L -6.993 0.313024 L -6.99441 0.279704 L -6.99566 0.246377 L -6.99676 0.213045 L -6.99769 0.179709 L -6.99847 0.146368 L -6.99909 0.113023 L -6.99955 0.0796766 L -6.99985 0.0463279 L -6.99985 -0.0463279 L -6.99955 -0.0796766 L -6.99909 -0.113023 L -6.99847 -0.146368 L -6.99769 -0.179709 L -6.99676 -0.213045 L -6.99566 -0.246377 L -6.99441 -0.279704 L -6.993 -0.313024 L -6.99143 -0.346337 L -6.9897 -0.379642 L -6.98781 -0.412938 L -6.98576 -0.446226 L -6.98356 -0.479502 L -6.94656 -0.528645 L -6.90833 -0.587859 L -6.86955 -0.647025 L -6.8302 -0.706138 L -6.79027 -0.765192 L -6.74977 -0.824181 L -6.70868 -0.883097 L -6.66699 -0.941936 L -6.6247 -1.00069 L -6.58179 -1.05935 L -6.53827 -1.11791 L -6.49412 -1.17636 L -6.44932 -1.2347 L -6.40389 -1.29291 L -6.3578 -1.351 L -6.31104 -1.40894 L -6.26361 -1.46673 L -6.2155 -1.52436 L -6.16671 -1.58182 L -6.11721 -1.6391 L -6.11721 -1.6391 L -6.13143 -1.71346 L -6.14496 -1.78762 L -6.15781 -1.86158 L -6.16999 -1.93535 L -6.18151 -2.0089 L -6.19239 -2.08225 L -6.20263 -2.15538 L -6.21225 -2.2283 L -6.22126 -2.301 L -6.22967 -2.37347 L -6.2375 -2.44573 L -6.24475 -2.51775 L -6.25143 -2.58955 L -6.25756 -2.66112 L -6.26314 -2.73246 L -6.26819 -2.80356 L -6.27271 -2.87443 L -6.27672 -2.94507 L -6.28022 -3.01546 L -6.28769 -3.07652 L -6.27296 -3.10644 L -6.25809 -3.13629 L -6.24308 -3.16607 L -6.22792 -3.19578 L -6.21263 -3.22541 L -6.19719 -3.25497 L -6.18161 -3.28446 L -6.16589 -3.31388 L -6.15003 -3.34321 L -6.13404 -3.37248 L -6.1179 -3.40166 L -6.10162 -3.43077 L -6.08521 -3.4598 L -6.03888 -3.54004 L -6.02195 -3.56878 L -6.00488 -3.59742 L -5.98767 -3.62599 L -5.97033 -3.65448 L -5.95285 -3.68288 L -5.93523 -3.7112 L -5.91748 -3.73944 L -5.8996 -3.76759 L -5.88158 -3.79565 L -5.86343 -3.82363 L -5.84515 -3.85152 L -5.82674 -3.87932 L -5.80819 -3.90704 L -5.75158 -3.9311 L -5.68886 -3.96327 L -5.62569 -3.99511 L -5.56205 -4.02663 L -5.49795 -4.05781 L -5.43338 -4.08865 L -5.36834 -4.11912 L -5.30281 -4.14923 L -5.23681 -4.17897 L -5.17033 -4.20832 L -5.10335 -4.23727 L -5.03589 -4.26582 L -4.96793 -4.29394 L -4.89947 -4.32164 L -4.83051 -4.34889 L -4.76105 -4.37569 L -4.69108 -4.40203 L -4.62061 -4.42788 L -4.54961 -4.45325 L -4.47811 -4.47811 L -4.47811 -4.47811 L -4.45325 -4.54961 L -4.42788 -4.62061 L -4.40203 -4.69108 L -4.37569 -4.76105 L -4.34889 -4.83051 L -4.32164 -4.89947 L -4.29394 -4.96793 L -4.26582 -5.03589 L -4.23727 -5.10335 L -4.20832 -5.17033 L -4.17897 -5.23681 L -4.14923 -5.30281 L -4.11912 -5.36834 L -4.08865 -5.43338 L -4.05781 -5.49795 L -4.02663 -5.56205 L -3.99511 -5.62569 L -3.96327 -5.68886 L -3.9311 -5.75158 L -3.90704 -5.80819 L -3.87932 -5.82674 L -3.85152 -5.84515 L -3.82363 -5.86343 L -3.79565 -5.88158 L -3.76759 -5.8996 L -3.73944 -5.91748 L -3.7112 -5.93523 L -3.68288 -5.95285 L -3.65448 -5.97033 L -3.62599 -5.98767 L -3.59742 -6.00488 L -3.56878 -6.02195 L -3.54004 -6.03888 L -3.4598 -6.08521 L -3.43077 -6.10162 L -3.40166 -6.1179 L -3.37248 -6.13404 L -3.34321 -6.15003 L -3.31388 -6.16589 L -3.28446 -6.18161 L -3.25497 -6.19719 L -3.22541 -6.21263 L -3.19578 -6.22792 L -3.16607 -6.24308 L -3.13629 -6.25809 L -3.10644 -6.27296 L -3.07652 -6.28769 L -3.01546 -6.28022 L -2.94507 -6.27672 L -2.87443 -6.27271 L -2.80356 -6.26819 L -2.73246 -6.26314 L -2.66112 -6.25756 L -2.58955 -6.25143 L -2.51775 -6.24475 L -2.44573 -6.2375 L -2.37347 -6.22967 L -2.301 -6.22126 L -2.2283 -6.21225 L -2.15538 -6.20263 L -2.08225 -6.19239 L -2.0089 -6.18151 L -1.93535 -6.16999 L -1.86158 -6.15781 L -1.78762 -6.14496 L -1.71346 -6.13143 L -1.6391 -6.11721 L -1.6391 -6.11721 L -1.58182 -6.16671 L -1.52436 -6.2155 L -1.46673 -6.26361 L -1.40894 -6.31104 L -1.351 -6.3578 L -1.29291 -6.40389 L -1.2347 -6.44932 L -1.17636 -6.49412 L -1.11791 -6.53827 L -1.05935 -6.58179 L -1.00069 -6.6247 L -0.941936 -6.66699 L -0.883097 -6.70868 L -0.824181 -6.74977 L -0.765192 -6.79027 L -0.706138 -6.8302 L -0.647025 -6.86955 L -0.587859 -6.90833 L -0.528645 -6.94656 L -0.479502 -6.98356 L -0.446226 -6.98576 L -0.412938 -6.98781 L -0.379642 -6.9897 L -0.346337 -6.99143 L -0.313024 -6.993 L -0.279704 -6.99441 L -0.246377 -6.99566 L -0.213045 -6.99676 L -0.179709 -6.99769 L -0.146368 -6.99847 L -0.113023 -6.99909 L -0.0796766 -6.99955 L -0.0463279 -6.99985 L 0.0463279 -6.99985 L 0.0796766 -6.99955 L 0.113023 -6.99909 L 0.146368 -6.99847 L 0.179709 -6.99769 L 0.213045 -6.99676 L 0.246377 -6.99566 L 0.279704 -6.99441 L 0.313024 -6.993 L 0.346337 -6.99143 L 0.379642 -6.9897 L 0.412938 -6.98781 L 0.446226 -6.98576 L 0.479502 -6.98356 L 0.528645 -6.94656 L 0.587859 -6.90833 L 0.647025 -6.86955 L 0.706138 -6.8302 L 0.765192 -6.79027 L 0.824181 -6.74977 L 0.883097 -6.70868 L 0.941936 -6.66699 L 1.00069 -6.6247 L 1.05935 -6.58179 L 1.11791 -6.53827 L 1.17636 -6.49412 L 1.2347 -6.44932 L 1.29291 -6.40389 L 1.351 -6.3578 L 1.40894 -6.31104 L 1.46673 -6.26361 L 1.52436 -6.2155 L 1.58182 -6.16671 L 1.6391 -6.11721 L 1.6391 -6.11721 L 1.71346 -6.13143 L 1.78762 -6.14496 L 1.86158 -6.15781 L 1.93535 -6.16999 L 2.0089 -6.18151 L 2.08225 -6.19239 L 2.15538 -6.20263 L 2.2283 -6.21225 L 2.301 -6.22126 L 2.37347 -6.22967 L 2.44573 -6.2375 L 2.51775 -6.24475 L 2.58955 -6.25143 L 2.66112 -6.25756 L 2.73246 -6.26314 L 2.80356 -6.26819 L 2.87443 -6.27271 L 2.94507 -6.27672 L 3.01546 -6.28022 L 3.07652 -6.28769 L 3.10644 -6.27296 L 3.13629 -6.25809 L 3.16607 -6.24308 L 3.19578 -6.22792 L 3.22541 -6.21263 L 3.25497 -6.19719 L 3.28446 -6.18161 L 3.31388 -6.16589 L 3.34321 -6.15003 L 3.37248 -6.13404 L 3.40166 -6.1179 L 3.43077 -6.10162 L 3.4598 -6.08521 L 3.54004 -6.03888 L 3.56878 -6.02195 L 3.59742 -6.00488 L 3.62599 -5.98767 L 3.65448 -5.97033 L 3.68288 -5.95285 L 3.7112 -5.93523 L 3.73944 -5.91748 L 3.76759 -5.8996 L 3.79565 -5.88158 L 3.82363 -5.86343 L 3.85152 -5.84515 L 3.87932 -5.82674 L 3.90704 -5.80819 L 3.9311 -5.75158 L 3.96327 -5.68886 L 3.99511 -5.62569 L 4.02663 -5.56205 L 4.05781 -5.49795 L 4.08865 -5.43338 L 4.11912 -5.36834 L 4.14923 -5.30281 L 4.17897 -5.23681 L 4.20832 -5.17033 L 4.23727 -5.10335 L 4.26582 -5.03589 L 4.29394 -4.96793 L 4.32164 -4.89947 L 4.34889 -4.83051 L 4.37569 -4.76105 L 4.40203 -4.69108 L 4.42788 -4.62061 L 4.45325 -4.54961 L 4.47811 -4.47811 L 4.47811 -4.47811 L 4.54961 -4.45325 L 4.62061 -4.42788 L 4.69108 -4.40203 L 4.76105 -4.37569 L 4.83051 -4.34889 L 4.89947 -4.32164 L 4.96793 -4.29394 L 5.03589 -4.26582 L 5.10335 -4.23727 L 5.17033 -4.20832 L 5.23681 -4.17897 L 5.30281 -4.14923 L 5.36834 -4.11912 L 5.43338 -4.08865 L 5.49795 -4.05781 L 5.56205 -4.02663 L 5.62569 -3.99511 L 5.68886 -3.96327 L 5.75158 -3.9311 L 5.80819 -3.90704 L 5.82674 -3.87932 L 5.84515 -3.85152 L 5.86343 -3.82363 L 5.88158 -3.79565 L 5.8996 -3.76759 L 5.91748 -3.73944 L 5.93523 -3.7112 L 5.95285 -3.68288 L 5.97033 -3.65448 L 5.98767 -3.62599 L 6.00488 -3.59742 L 6.02195 -3.56878 L 6.03888 -3.54004 L 6.08521 -3.4598 L 6.10162 -3.43077 L 6.1179 -3.40166 L 6.13404 -3.37248 L 6.15003 -3.34321 L 6.16589 -3.31388 L 6.18161 -3.28446 L 6.19719 -3.25497 L 6.21263 -3.22541 L 6.22792 -3.19578 L 6.24308 -3.16607 L 6.25809 -3.13629 L 6.27296 -3.10644 L 6.28769 -3.07652 L 6.28022 -3.01546 L 6.27672 -2.94507 L 6.27271 -2.87443 L 6.26819 -2.80356 L 6.26314 -2.73246 L 6.25756 -2.66112 L 6.25143 -2.58955 L 6.24475 -2.51775 L 6.2375 -2.44573 L 6.22967 -2.37347 L 6.22126 -2.301 L 6.21225 -2.2283 L 6.20263 -2.15538 L 6.19239 -2.08225 L 6.18151 -2.0089 L 6.16999 -1.93535 L 6.15781 -1.86158 L 6.14496 -1.78762 L 6.13143 -1.71346 L 6.11721 -1.6391 L 6.11721 -1.6391 L 6.16671 -1.58182 L 6.2155 -1.52436 L 6.26361 -1.46673 L 6.31104 -1.40894 L 6.3578 -1.351 L 6.40389 -1.29291 L 6.44932 -1.2347 L 6.49412 -1.17636 L 6.53827 -1.11791 L 6.58179 -1.05935 L 6.6247 -1.00069 L 6.66699 -0.941936 L 6.70868 -0.883097 L 6.74977 -0.824181 L 6.79027 -0.765192 L 6.8302 -0.706138 L 6.86955 -0.647025 L 6.90833 -0.587859 L 6.94656 -0.528645 L 6.98356 -0.479502 L 6.98576 -0.446226 L 6.98781 -0.412938 L 6.9897 -0.379642 L 6.99143 -0.346337 L 6.993 -0.313024 L 6.99441 -0.279704 L 6.99566 -0.246377 L 6.99676 -0.213045 L 6.99769 -0.179709 L 6.99847 -0.146368 L 6.99909 -0.113023 L 6.99955 -0.0796766 L 6.99985 -0.0463279Z"
id="path1" />
</g>
</svg>
