<?xml version="1.0" encoding="UTF-8" standalone="no"?>
<svg version="1.1">
<g
style="fill:none;stroke:#000000;stroke-opacity:1;stroke-width:0.1">
<path d="M 7.74966 0.0721381 L 7.74911 0.117439 L 7.74829 0.162736 L 7.74721 0.208027 L 7.74586 0.253311 L 7.74425 0.298587 L 7.74237 0.343852 L 7.74023 0.389106 L 7.73782 0.434346 L 7.73515 0.479572 L 7.68677 0.525265 L 7.63732 0.581045 L 7.58741 0.63679 L 7.53704 0.692495 L 7.48619 0.748157 L 7.43485 0.803771 L 7.38303 0.859332 L 7.3307 0.914834 L 7.27787 0.970273 L 7.22452 1.02564 L 7.17064 1.08094 L 7.11622 1.13615 L 7.06126 1.19128 L 7.00574 1.24631 L 6.94966 1.30124 L 6.89301 1.35607 L 6.83576 1.41078 L 6.77793 1.46537 L 6.71948 1.51982 L 6.66042 1.57414 L 6.60073 1.62831 L 6.54041 1.68232 L 6.47943 1.73616 L 6.47943 1.73616 L 6.50532 1.81328 L 6.53056 1.89021 L 6.55516 1.96697 L 6.57915 2.04354 L 6.60254 2.11992 L 6.62534 2.19611 L 6.64755 2.27211 L 6.66921 2.34792 L 6.69031 2.42353 L 6.71087 2.49895 L 6.7309 2.57417 L 6.75042 2.6492 L 6.76944 2.72403 L 6.78796 2.79865 L 6.80599 2.87308 L 6.82356 2.94731 L 6.84066 3.02134 L 6.85731 3.09517 L 6.87351 3.1688 L 6.88929 3.24223 L 6.90464 3.31546 L 6.91957 3.38849 L 6.93862 3.45225 L 6.91832 3.49275 L 6.89779 3.53314 L 6.87701 3.5734 L 6.85601 3.61354 L 6.83477 3.65356 L 6.81329 3.69345 L 6.79158 3.73321 L 6.76965 3.77285 L 6.74748 3.81236 L 6.67534 3.93731 L 6.65221 3.97626 L 6.62885 4.01508 L 6.60526 4.05376 L 6.58146 4.0923 L 6.55742 4.13071 L 6.53316 4.16897 L 6.50868 4.20709 L 6.48397 4.24506 L 6.45905 4.2829 L 6.39431 4.29828 L 6.32359 4.32186 L 6.2525 4.34518 L 6.18102 4.36824 L 6.10915 4.39102 L 6.03689 4.41351 L 5.96422 4.43572 L 5.89116 4.45762 L 5.81768 4.47921 L 5.74379 4.50049 L 5.66949 4.52144 L 5.59475 4.54205 L 5.51959 4.56231 L 5.444 4.58221 L 5.36796 4.60174 L 5.29148 4.62089 L 5.21456 4.63965 L 5.13717 4.65801 L 5.05933 4.67595 L 4.98103 4.69345 L 4.90225 4.71052 L 4.823 4.72713 L 4.74327 4.74327 L 4.74327 4.74327 L 4.72713 4.823 L 4.71052 4.90225 L 4.69345 4.98103 L 4.67595 5.05933 L 4.65801 5.13717 L 4.63965 5.21456 L 4.62089 5.29148 L 4.60174 5.36796 L 4.58221 5.444 L 4.56231 5.51959 L 4.54205 5.59475 L 4.52144 5.66949 L 4.50049 5.74379 L 4.47921 5.81768 L 4.45762 5.89116 L 4.43572 5.96422 L 4.41351 6.03689 L 4.39102 6.10915 L 4.36824 6.18102 L 4.34518 6.2525 L 4.32186 6.32359 L 4.29828 6.39431 L 4.2829 6.45905 L 4.24506 6.48397 L 4.20709 6.50868 L 4.16897 6.53316 L 4.13071 6.55742 L 4.0923 6.58146 L 4.05376 6.60526 L 4.01508 6.62885 L 3.97626 6.65221 L 3.93731 6.67534 L 3.81236 6.74748 L 3.77285 6.76965 L 3.73321 6.79158 L 3.69345 6.81329 L 3.65356 6.83477 L 3.61354 6.85601 L 3.5734 6.87701 L 3.53314 6.89779 L 3.49275 6.91832 L 3.45225 6.93862 L 3.38849 6.91957 L 3.31546 6.90464 L 3.24223 6.88929 L 3.1688 6.87351 L 3.09517 6.85731 L 3.02134 6.84066 L 2.94731 6.82356 L 2.87308 6.80599 L 2.79865 6.78796 L 2.72403 6.76944 L 2.6492 6.75042 L 2.57417 6.7309 L 2.49895 6.71087 L 2.42353 6.69031 L 2.34792 6.66921 L 2.27211 6.64755 L 2.19611 6.62534 L 2.11992 6.60254 L 2.04354 6.57915 L 1.96697 6.55516 L 1.89021 6.53056 L 1.81328 6.50532 L 1.73616 6.47943 L 1.73616 6.47943 L 1.68232 6.54041 L 1.62831 6.60073 L 1.57414 6.66042 L 1.51982 6.71948 L 1.46537 6.77793 L 1.41078 6.83576 L 1.35607 6.89301 L 1.30124 6.94966 L 1.24631 7.00574 L 1.19128 7.06126 L 1.13615 7.11622 L 1.08094 7.17064 L 1.02564 7.22452 L 0.970273 7.27787 L 0.914834 7.3307 L 0.859332 7.38303 L 0.803771 7.43485 L 0.748157 7.48619 L 0.692495 7.53704 L 0.63679 7.58741 L 0.581045 7.63732 L 0.525265 7.68677 L 0.479572 7.73515 L 0.434346 7.73782 L 0.389106 7.74023 L 0.343852 7.74237 L 0.298587 7.74425 L 0.253311 7.74586 L 0.208027 7.74721 L 0.162736 7.74829 L 0.117439 7.74911 L 0.0721381 7.74966 L -0.0721381 7.74966 L -0.117439 7.74911 L -0.162736 7.74829 L -0.208027 7.74721 L -0.253311 7.74586 L -0.298587 7.74425 L -0.343852 7.74237 L -0.389106 7.74023 L -0.434346 7.73782 L -0.479572 7.73515 L -0.525265 7.68677 L -0.581045 7.63732 L -0.63679 7.58741 L -0.692495 7.53704 L -0.748157 7.48619 L -0.803771 7.43485 L -0.859332 7.38303 L -0.914834 7.3307 L -0.970273 7.27787 L -1.02564 7.22452 L -1.08094 7.17064 L -1.13615 7.11622 L -1.19128 7.06126 L -1.24631 7.00574 L -1.30124 6.94966 L -1.35607 6.89301 L -1.41078 6.83576 L -1.46537 6.77793 L -1.51982 6.71948 L -1.57414 6.66042 L -1.62831 6.60073 L -1.68232 6.54041 L -1.73616 6.47943 L -1.73616 6.47943 L -1.81328 6.50532 L -1.89021 6.53056 L -1.96697 6.55516 L -2.04354 6.57915 L -2.11992 6.60254 L -2.19611 6.62534 L -2.27211 6.64755 L -2.34792 6.66921 L -2.42353 6.69031 L -2.49895 6.71087 L -2.57417 6.7309 L -2.6492 6.75042 L -2.72403 6.76944 L -2.79865 6.78796 L -2.87308 6.80599 L -2.94731 6.82356 L -3.02134 6.84066 L -3.09517 6.85731 L -3.1688 6.87351 L -3.24223 6.88929 L -3.31546 6.90464 L -3.38849 6.91957 L -3.45225 6.93862 L -3.49275 6.91832 L -3.53314 6.89779 L -3.5734 6.87701 L -3.61354 6.85601 L -3.65356 6.83477 L -3.69345 6.81329 L -3.73321 6.79158 L -3.77285 6.76965 L -3.81236 6.74748 L -3.93731 6.67534 L -3.97626 6.65221 L -4.01508 6.62885 L -4.05376 6.60526 L -4.0923 6.58146 L -4.13071 6.55742 L -4.16897 6.53316 L -4.20709 6.50868 L -4.24506 6.48397 L -4.2829 6.45905 L -4.29828 6.39431 L -4.32186 6.32359 L -4.34518 6.2525 L -4.36824 6.18102 L -4.39102 6.10915 L -4.41351 6.03689 L -4.43572 5.96422 L -4.45762 5.89116 L -4.47921 5.81768 L -4.50049 5.74379 L -4.52144 5.66949 L -4.54205 5.59475 L -4.56231 5.51959 L -4.58221 5.444 L -4.60174 5.36796 L -4.62089 5.29148 L -4.63965 5.21456 L -4.65801 5.13717 L -4.67595 5.05933 L -4.69345 4.98103 L -4.71052 4.90225 L -4.72713 4.823 L -4.74327 4.74327 L -4.74327 4.74327 L -4.823 4.72713 L -4.90225 4.71052 L -4.98103 4.69345 L -5.05933 4.67595 L -5.13717 4.65801 L -5.21456 4.63965 L -5.29148 4.62089 L -5.36796 4.60174 L -5.444 4.58221 L -5.51959 4.56231 L -5.59475 4.54205 L -5.66949 4.52144 L -5.74379 4.50049 L -5.81768 4.47921 L -5.89116 4.45762 L -5.96422 4.43572 L -6.03689 4.41351 L -6.10915 4.39102 L -6.18102 4.36824 L -6.2525 4.34518 L -6.32359 4.32186 L -6.39431 4.29828 L -6.45905 4.2829 L -6.48397 4.24506 L -6.50868 4.20709 L -6.53316 4.16897 L -6.55742 4.13071 L -6.58146 4.0923 L -6.60526 4.05376 L -6.62885 4.01508 L -6.65221 3.97626 L -6.67534 3.93731 L -6.74748 3.81236 L -6.76965 3.77285 L -6.79158 3.73321 L -6.81329 3.69345 L -6.83477 3.65356 L -6.85601 3.61354 L -6.87701 3.5734 L -6.89779 3.53314 L -6.91832 3.49275 L -6.93862 3.45225 L -6.91957 3.38849 L -6.90464 3.31546 L -6.88929 3.24223 L -6.87351 3.1688 L -6.85731 3.09517 L -6.84066 3.02134 L -6.82356 2.94731 L -6.80599 2.87308 L -6.78796 2.79865 L -6.76944 2.72403 L -6.75042 2.6492 L -6.7309 2.57417 L -6.71087 2.49895 L -6.69031 2.42353 L -6.66921 2.34792 L -6.64755 2.27211 L -6.62534 2.19611 L -6.60254 2.11992 L -6.57915 2.04354 L -6.55516 1.96697 L -6.53056 1.89021 L -6.50532 1.81328 L -6.47943 1.73616 L -6.47943 1.73616 L -6.54041 1.68232 L -6.60073 1.62831 L -6.66042 1.57414 L -6.71948 1.51982 L -6.77793 1.46537 L -6.83576 1.41078 L -6.89301 1.35607 L -6.94966 1.30124 L -7.00574 1.24631 L -7.06126 1.19128 L -7.11622 1.13615 L -7.17064 1.08094 L -7.22452 1.02564 L -7.27787 0.970273 L -7.3307 0.914834 L -7.38303 0.859332 L -7.43485 0.803771 L -7.48619 0.748157 L -7.53704 0.692495 L -7.58741 0.63679 L -7.63732 0.581045 L -7.68677 0.525265 L -7.73515 0.479572 L -7.73782 0.434346 L -7.74023 0.389106 L -7.74237 0.343852 L -7.74425 0.298587 L -7.74586 0.253311 L -7.74721 0.208027 L -7.74829 0.162736 L -7.74911 0.117439 L -7.74966 0.0721381 L -7.74966 -0.0721381 L -7.74911 -0.117439 L -7.74829 -0.162736 L -7.74721 -0.208027 L -7.74586 -0.253311 L -7.74425 -0.298587 L -7.74237 -0.343852 L -7.74023 -0.389106 L -7.73782 -0.434346 L -7.73515 -0.479572 L -7.68677 -0.525265 L -7.63732 -0.581045 L -7.58741 -0.63679 L -7.53704 -0.692495 L -7.48619 -0.748157 L -7.43485 -0.803771 L -7.38303 -0.859332 L -7.3307 -0.914834 L -7.27787 -0.970273 L -7.22452 -1.02564 L -7.17064 -1.08094 L -7.11622 -1.13615 L -7.06126 -1.19128 L -7.00574 -1.24631 L -6.94966 -1.30124 L -6.89301 -1.35607 L -6.83576 -1.41078 L -6.77793 -1.46537 L -6.71948 -1.51982 L -6.66042 -1.57414 L -6.60073 -1.62831 L -6.54041 -1.68232 L -6.47943 -1.73616 L -6.47943 -1.73616 L -6.50532 -1.81328 L -6.53056 -1.89021 L -6.55516 -1.96697 L -6.57915 -2.04354 L -6.60254 -2.11992 L -6.62534 -2.19611 L -6.64755 -2.27211 L -6.66921 -2.34792 L -6.69031 -2.42353 L -6.71087 -2.49895 L -6.7309 -2.57417 L -6.75042 -2.6492 L -6.76944 -2.72403 L -6.78796 -2.79865 L -6.80599 -2.87308 L -6.82356 -2.94731 L -6.84066 -3.02134 L -6.85731 -3.09517 L -6.87351 -3.1688 L -6.88929 -3.24223 L -6.90464 -3.31546 L -6.91957 -3.38849 L -6.93862 -3.45225 L -6.91832 -3.49275 L -6.89779 -3.53314 L -6.87701 -3.5734 L -6.85601 -3.61354 L -6.83477 -3.65356 L -6.81329 -3.69345 L -6.79158 -3.73321 L -6.76965 -3.77285 L -6.74748 -3.81236 L -6.67534 -3.93731 L -6.65221 -3.97626 L -6.62885 -4.01508 L -6.60526 -4.05376 L -6.58146 -4.0923 L -6.55742 -4.13071 L -6.53316 -4.16897 L -6.50868 -4.20709 L -6.48397 -4.24506 L -6.45905 -4.2829 L -6.39431 -4.29828 L -6.32359 -4.32186 L -6.2525 -4.34518 L -6.18102 -4.36824 L -6.10915 -4.39102 L -6.03689 -4.41351 L -5.96422 -4.43572 L -5.89116 -4.45762 L -5.81768 -4.47921 L -5.74379 -4.50049 L -5.66949 -4.52144 L -5.59475 -4.54205 L -5.51959 -4.56231 L -5.444 -4.58221 L -5.36796 -4.60174 L -5.29148 -4.62089 L -5.21456 -4.63965 L -5.13717 -4.65801 L -5.05933 -4.67595 L -4.98103 -4.69345 L -4.90225 -4.71052 L -4.823 -4.72713 L -4.74327 -4.74327 L -4.74327 -4.74327 L -4.72713 -4.823 L -4.71052 -4.90225 L -4.69345 -4.98103 L -4.67595 -5.05933 L -4.65801 -5.13717 L -4.63965 -5.21456 L -4.62089 -5.29148 L -4.60174 -5.36796 L -4.58221 -5.444 L -4.56231 -5.51959 L -4.54205 -5.59475 L -4.52144 -5.66949 L -4.50049 -5.74379 L -4.47921 -5.81768 L -4.45762 -5.89116 L -4.43572 -5.96422 L -4.41351 -6.03689 L -4.39102 -6.10915 L -4.36824 -6.18102 L -4.34518 -6.2525 L -4.32186 -6.32359 L -4.29828 -6.39431 L -4.2829 -6.45905 L -4.24506 -6.48397 L -4.20709 -6.50868 L -4.16897 -6.53316 L -4.13071 -6.55742 L -4.0923 -6.58146 L -4.05376 -6.60526 L -4.01508 -6.62885 L -3.97626 -6.65221 L -3.93731 -6.67534 L -3.81236 -6.74748 L -3.77285 -6.76965 L -3.73321 -6.79158 L -3.69345 -6.81329 L -3.65356 -6.83477 L -3.61354 -6.85601 L -3.5734 -6.87701 L -3.53314 -6.89779 L -3.49275 -6.91832 L -3.45225 -6.93862 L -3.38849 -6.91957 L -3.31546 -6.90464 L -3.24223 -6.88929 L -3.1688 -6.87351 L -3.09517 -6.85731 L -3.02134 -6.84066 L -2.94731 -6.82356 L -2.87308 -6.80599 L -2.79865 -6.78796 L -2.72403 -6.76944 L -2.6492 -6.75042 L -2.57417 -6.7309 L -2.49895 -6.71087 L -2.42353 -6.69031 L -2.34792 -6.66921 L -2.27211 -6.64755 L -2.19611 -6.62534 L -2.11992 -6.60254 L -2.04354 -6.57915 L -1.96697 -6.55516 L -1.89021 -6.53056 L -1.81328 -6.50532 L -1.73616 -6.47943 L -1.73616 -6.47943 L -1.68232 -6.54041 L -1.62831 -6.60073 L -1.57414 -6.66042 L -1.51982 -6.71948 L -1.46537 -6.77793 L -1.41078 -6.83576 L -1.35607 -6.89301 L -1.30124 -6.94966 L -1.24631 -7.00574 L -1.19128 -7.06126 L -1.13615 -7.11622 L -1.08094 -7.17064 L -1.02564 -7.22452 L -0.970273 -7.27787 L -0.914834 -7.3307 L -0.859332 -7.38303 L -0.803771 -7.43485 L -0.748157 -7.48619 L -0.692495 -7.53704 L -0.63679 -7.58741 L -0.581045 -7.63732 L -0.525265 -7.68677 L -0.479572 -7.73515 L -0.434346 -7.73782 L -0.389106 -7.74023 L -0.343852 -7.74237 L -0.298587 -7.74425 L -0.253311 -7.74586 L -0.208027 -7.74721 L -0.162736 -7.74829 L -0.117439 -7.74911 L -0.0721381 -7.74966 L 0.0721381 -7.74966 L 0.117439 -7.74911 L 0.162736 -7.74829 L 0.208027 -7.74721 L 0.253311 -7.74586 L 0.298587 -7.74425 L 0.343852 -7.74237 L 0.389106 -7.74023 L 0.434346 -7.73782 L 0.479572 -7.73515 L 0.525265 -7.68677 L 0.581045 -7.63732 L 0.63679 -7.58741 L 0.692495 -7.53704 L 0.748157 -7.48619 L 0.803771 -7.43485 L 0.859332 -7.38303 L 0.914834 -7.3307 L 0.970273 -7.27787 L 1.02564 -7.22452 L 1.08094 -7.17064 L 1.13615 -7.11622 L 1.19128 -7.06126 L 1.24631 -7.00574 L 1.30124 -6.94966 L 1.35607 -6.89301 L 1.41078 -6.83576 L 1.46537 -6.77793 L 1.51982 -6.71948 L 1.57414 -6.66042 L 1.62831 -6.60073 L 1.68232 -6.54041 L 1.73616 -6.47943 L 1.73616 -6.47943 L 1.81328 -6.50532 L 1.89021 -6.53056 L 1.96697 -6.55516 L 2.04354 -6.57915 L 2.11992 -6.60254 L 2.19611 -6.62534 L 2.27211 -6.64755 L 2.34792 -6.66921 L 2.42353 -6.69031 L 2.49895 -6.71087 L 2.57417 -6.7309 L 2.6492 -6.75042 L 2.72403 -6.76944 L 2.79865 -6.78796 L 2.87308 -6.80599 L 2.94731 -6.82356 L 3.02134 -6.84066 L 3.09517 -6.85731 L 3.1688 -6.87351 L 3.24223 -6.88929 L 3.31546 -6.90464 L 3.38849 -6.91957 L 3.45225 -6.93862 L 3.49275 -6.91832 L 3.53314 -6.89779 L 3.5734 -6.87701 L 3.61354 -6.85601 L 3.65356 -6.83477 L 3.69345 -6.81329 L 3.73321 -6.79158 L 3.77285 -6.76965 L 3.81236 -6.74748 L 3.93731 -6.67534 L 3.97626 -6.65221 L 4.01508 -6.62885 L 4.05376 -6.60526 L 4.0923 -6.58146 L 4.13071 -6.55742 L 4.16897 -6.53316 L 4.20709 -6.50868 L 4.24506 -6.48397 L 4.2829 -6.45905 L 4.29828 -6.39431 L 4.32186 -6.32359 L 4.34518 -6.2525 L 4.36824 -6.18102 L 4.39102 -6.10915 L 4.41351 -6.03689 L 4.43572 -5.96422 L 4.45762 -5.89116 L 4.47921 -5.81768 L 4.50049 -5.74379 L 4.52144 -5.66949 L 4.54205 -5.59475 L 4.56231 -5.51959 L 4.58221 -5.444 L 4.60174 -5.36796 L 4.62089 -5.29148 L 4.63965 -5.21456 L 4.65801 -5.13717 L 4.67595 -5.05933 L 4.69345 -4.98103 L 4.71052 -4.90225 L 4.72713 -4.823 L 4.74327 -4.74327 L 4.74327 -4.74327 L 4.823 -4.72713 L 4.90225 -4.71052 L 4.98103 -4.69345 L 5.05933 -4.67595 L 5.13717 -4.65801 L 5.21456 -4.63965 L 5.29148 -4.62089 L 5.36796 -4.60174 L 5.444 -4.58221 L 5.51959 -4.56231 L 5.59475 -4.54205 L 5.66949 -4.52144 L 5.74379 -4.50049 L 5.81768 -4.47921 L 5.89116 -4.45762 L 5.96422 -4.43572 L 6.03689 -4.41351 L 6.10915 -4.39102 L 6.18102 -4.36824 L 6.2525 -4.34518 L 6.32359 -4.32186 L 6.39431 -4.29828 L 6.45905 -4.2829 L 6.48397 -4.24506 L 6.50868 -4.20709 L 6.53316 -4.16897 L 6.55742 -4.13071 L 6.58146 -4.0923 L 6.60526 -4.05376 L 6.62885 -4.01508 L 6.65221 -3.97626 L 6.67534 -3.93731 L 6.74748 -3.81236 L 6.76965 -3.77285 L 6.79158 -3.73321 L 6.81329 -3.69345 L 6.83477 -3.65356 L 6.85601 -3.61354 L 6.87701 -3.5734 L 6.89779 -3.53314 L 6.91832 -3.49275 L 6.93862 -3.45225 L 6.91957 -3.38849 L 6.90464 -3.31546 L 6.88929 -3.24223 L 6.87351 -3.1688 L 6.85731 -3.09517 L 6.84066 -3.02134 L 6.82356 -2.94731 L 6.80599 -2.87308 L 6.78796 -2.79865 L 6.76944 -2.72403 L 6.75042 -2.6492 L 6.7309 -2.57417 L 6.71087 -2.49895 L 6.69031 -2.42353 L 6.66921 -2.34792 L 6.64755 -2.27211 L 6.62534 -2.19611 L 6.60254 -2.11992 L 6.57915 -2.04354 L 6.55516 -1.96697 L 6.53056 -1.89021 L 6.50532 -1.81328 L 6.47943 -1.73616 L 6.47943 -1.73616 L 6.54041 -1.68232 L 6.60073 -1.62831 L 6.66042 -1.57414 L 6.71948 -1.51982 L 6.77793 -1.46537 L 6.83576 -1.41078 L 6.89301 -1.35607 L 6.94966 -1.30124 L 7.00574 -1.24631 L 7.06126 -1.19128 L 7.11622 -1.13615 L 7.17064 -1.08094 L 7.22452 -1.02564 L 7.27787 -0.970273 L 7.3307 -0.914834 L 7.38303 -0.859332 L 7.43485 -0.803771 L 7.48619 -0.748157 L 7.53704 -0.692495 L 7.58741 -0.63679 L 7.63732 -0.581045 L 7.68677 -0.525265 L 7.73515 -0.479572 L 7.73782 -0.434346 L 7.74023 -0.389106 L 7.74237 -0.343852 L 7.74425 -0.298587 L 7.74586 -0.253311 L 7.74721 -0.208027 L 7.74829 -0.162736 L 7.74911 -0.117439 L 7.74966 -0.0721381Z"
id="path1" />
</g>
</svg>
