<?xml version="1.0" encoding="UTF-8" standalone="no"?>
<svg version="1.1">
<g
style="fill:none;stroke:#000000;stroke-opacity:1;stroke-width:0.1">
<path d="M 8.49943 0.0983761 L 8.49863 0.15287 L 8.49747 0.207358 L 8.49597 0.261837 L 8.49411 0.316305 L 8.49191 0.370761 L 8.48936 0.425201 L 8.48646 0.479623 L 8.42931 0.522661 L 8.37122 0.575796 L 8.31274 0.628904 L 8.25387 0.681982 L 8.1946 0.735027 L 8.13492 0.788035 L 8.07482 0.841003 L 8.0143 0.893927 L 7.95334 0.946802 L 7.89194 0.999624 L 7.83009 1.05239 L 7.76779 1.10509 L 7.70501 1.15773 L 7.64175 1.2103 L 7.57801 1.26278 L 7.51376 1.31519 L 7.44902 1.3675 L 7.38375 1.41973 L 7.31795 1.47184 L 7.25162 1.52386 L 7.18473 1.57575 L 7.11729 1.62752 L 7.04927 1.67916 L 6.98066 1.73067 L 6.91146 1.78202 L 6.84165 1.83322 L 6.84165 1.83322 L 6.87651 1.91246 L 6.91076 1.99153 L 6.94443 2.07044 L 6.97751 2.14917 L 7.01004 2.22773 L 7.04201 2.30611 L 7.07346 2.38432 L 7.10438 2.46236 L 7.13479 2.54021 L 7.16471 2.6179 L 7.19414 2.6954 L 7.2231 2.77273 L 7.2516 2.84988 L 7.27965 2.92685 L 7.30726 3.00365 L 7.33444 3.08027 L 7.3612 3.15672 L 7.38755 3.23299 L 7.4135 3.30908 L 7.43907 3.385 L 7.46425 3.46075 L 7.48905 3.53632 L 7.5135 3.61173 L 7.53759 3.68696 L 7.56133 3.76202 L 7.5893 3.82786 L 7.5646 3.87644 L 7.53959 3.92487 L 7.51427 3.97313 L 7.48864 4.02123 L 7.4627 4.06916 L 7.43646 4.11692 L 7.40991 4.16452 L 7.31153 4.33491 L 7.28359 4.3817 L 7.25535 4.42831 L 7.2268 4.47474 L 7.19796 4.52098 L 7.16883 4.56704 L 7.1394 4.61291 L 7.10968 4.65859 L 7.03867 4.66729 L 6.96179 4.68426 L 6.8846 4.70102 L 6.80707 4.71755 L 6.72922 4.73385 L 6.65103 4.74992 L 6.5725 4.76574 L 6.49362 4.78131 L 6.4144 4.79663 L 6.33481 4.81167 L 6.25487 4.82644 L 6.17455 4.84093 L 6.09387 4.85513 L 6.0128 4.86902 L 5.93135 4.88261 L 5.84952 4.89587 L 5.76728 4.9088 L 5.68465 4.92139 L 5.60161 4.93363 L 5.51816 4.94551 L 5.43429 4.95701 L 5.34999 4.96812 L 5.26526 4.97883 L 5.1801 4.98913 L 5.09449 4.999 L 5.00844 5.00844 L 5.00844 5.00844 L 4.999 5.09449 L 4.98913 5.1801 L 4.97883 5.26526 L 4.96812 5.34999 L 4.95701 5.43429 L 4.94551 5.51816 L 4.93363 5.60161 L 4.92139 5.68465 L 4.9088 5.76728 L 4.89587 5.84952 L 4.88261 5.93135 L 4.86902 6.0128 L 4.85513 6.09387 L 4.84093 6.17455 L 4.82644 6.25487 L 4.81167 6.33481 L 4.79663 6.4144 L 4.78131 6.49362 L 4.76574 6.5725 L 4.74992 6.65103 L 4.73385 6.72922 L 4.71755 6.80707 L 4.70102 6.8846 L 4.68426 6.96179 L 4.66729 7.03867 L 4.65859 7.10968 L 4.61291 7.1394 L 4.56704 7.16883 L 4.52098 7.19796 L 4.47474 7.2268 L 4.42831 7.25535 L 4.3817 7.28359 L 4.33491 7.31153 L 4.16452 7.40991 L 4.11692 7.43646 L 4.06916 7.4627 L 4.02123 7.48864 L 3.97313 7.51427 L 3.92487 7.53959 L 3.87644 7.5646 L 3.82786 7.5893 L 3.76202 7.56133 L 3.68696 7.53759 L 3.61173 7.5135 L 3.53632 7.48905 L 3.46075 7.46425 L 3.385 7.43907 L 3.30908 7.4135 L 3.23299 7.38755 L 3.15672 7.3612 L 3.08027 7.33444 L 3.00365 7.30726 L 2.92685 7.27965 L 2.84988 7.2516 L 2.77273 7.2231 L 2.6954 7.19414 L 2.6179 7.16471 L 2.54021 7.13479 L 2.46236 7.10438 L 2.38432 7.07346 L 2.30611 7.04201 L 2.22773 7.01004 L 2.14917 6.97751 L 2.07044 6.94443 L 1.99153 6.91076 L 1.91246 6.87651 L 1.83322 6.84165 L 1.83322 6.84165 L 1.78202 6.91146 L 1.73067 6.98066 L 1.67916 7.04927 L 1.62752 7.11729 L 1.57575 7.18473 L 1.52386 7.25162 L 1.47184 7.31795 L 1.41973 7.38375 L 1.3675 7.44902 L 1.31519 7.51376 L 1.26278 7.57801 L 1.2103 7.64175 L 1.15773 7.70501 L 1.10509 7.76779 L 1.05239 7.83009 L 0.999624 7.89194 L 0.946802 7.95334 L 0.893927 8.0143 L 0.841003 8.07482 L 0.788035 8.13492 L 0.735027 8.1946 L 0.681982 8.25387 L 0.628904 8.31274 L 0.575796 8.37122 L 0.522661 8.42931 L 0.479623 8.48646 L 0.425201 8.48936 L 0.370761 8.49191 L 0.316305 8.49411 L 0.261837 8.49597 L 0.207358 8.49747 L 0.15287 8.49863 L 0.0983761 8.49943 L -0.0983761 8.49943 L -0.15287 8.49863 L -0.207358 8.49747 L -0.261837 8.49597 L -0.316305 8.49411 L -0.370761 8.49191 L -0.425201 8.48936 L -0.479623 8.48646 L -0.522661 8.42931 L -0.575796 8.37122 L -0.628904 8.31274 L -0.681982 8.25387 L -0.735027 8.1946 L -0.788035 8.13492 L -0.841003 8.07482 L -0.893927 8.0143 L -0.946802 7.95334 L -0.999624 7.89194 L -1.05239 7.83009 L -1.10509 7.76779 L -1.15773 7.70501 L -1.2103 7.64175 L -1.26278 7.57801 L -1.31519 7.51376 L -1.3675 7.44902 L -1.41973 7.38375 L -1.47184 7.31795 L -1.52386 7.25162 L -1.57575 7.18473 L -1.62752 7.11729 L -1.67916 7.04927 L -1.73067 6.98066 L -1.78202 6.91146 L -1.83322 6.84165 L -1.83322 6.84165 L -1.91246 6.87651 L -1.99153 6.91076 L -2.07044 6.94443 L -2.14917 6.97751 L -2.22773 7.01004 L -2.30611 7.04201 L -2.38432 7.07346 L -2.46236 7.10438 L -2.54021 7.13479 L -2.6179 7.16471 L -2.6954 7.19414 L -2.77273 7.2231 L -2.84988 7.2516 L -2.92685 7.27965 L -3.00365 7.30726 L -3.08027 7.33444 L -3.15672 7.3612 L -3.23299 7.38755 L -3.30908 7.4135 L -3.385 7.43907 L -3.46075 7.46425 L -3.53632 7.48905 L -3.61173 7.5135 L -3.68696 7.53759 L -3.76202 7.56133 L -3.82786 7.5893 L -3.87644 7.5646 L -3.92487 7.53959 L -3.97313 7.51427 L -4.02123 7.48864 L -4.06916 7.4627 L -4.11692 7.43646 L -4.16452 7.40991 L -4.33491 7.31153 L -4.3817 7.28359 L -4.42831 7.25535 L -4.47474 7.2268 L -4.52098 7.19796 L -4.56704 7.16883 L -4.61291 7.1394 L -4.65859 7.10968 L -4.66729 7.03867 L -4.68426 6.96179 L -4.70102 6.8846 L -4.71755 6.80707 L -4.73385 6.72922 L -4.74992 6.65103 L -4.76574 6.5725 L -4.78131 6.49362 L -4.79663 6.4144 L -4.81167 6.33481 L -4.82644 6.25487 L -4.84093 6.17455 L -4.85513 6.09387 L -4.86902 6.0128 L -4.88261 5.93135 L -4.89587 5.84952 L -4.9088 5.76728 L -4.92139 5.68465 L -4.93363 5.60161 L -4.94551 5.51816 L -4.95701 5.43429 L -4.96812 5.34999 L -4.97883 5.26526 L -4.98913 5.1801 L -4.999 5.09449 L -5.00844 5.00844 L -5.00844 5.00844 L -5.09449 4.999 L -5.1801 4.98913 L -5.26526 4.97883 L -5.34999 4.96812 L -5.43429 4.95701 L -5.51816 4.94551 L -5.60161 4.93363 L -5.68465 4.92139 L -5.76728 4.9088 L -5.84952 4.89587 L -5.93135 4.88261 L -6.0128 4.86902 L -6.09387 4.85513 L -6.17455 4.84093 L -6.25487 4.82644 L -6.33481 4.81167 L -6.4144 4.79663 L -6.49362 4.78131 L -6.5725 4.76574 L -6.65103 4.74992 L -6.72922 4.73385 L -6.80707 4.71755 L -6.8846 4.70102 L -6.96179 4.68426 L -7.03867 4.66729 L -7.10968 4.65859 L -7.1394 4.61291 L -7.16883 4.56704 L -7.19796 4.52098 L -7.2268 4.47474 L -7.25535 4.42831 L -7.28359 4.3817 L -7.31153 4.33491 L -7.40991 4.16452 L -7.43646 4.11692 L -7.4627 4.06916 L -7.48864 4.02123 L -7.51427 3.97313 L -7.53959 3.92487 L -7.5646 3.87644 L -7.5893 3.82786 L -7.56133 3.76202 L -7.53759 3.68696 L -7.5135 3.61173 L -7.48905 3.53632 L -7.46425 3.46075 L -7.43907 3.385 L -7.4135 3.30908 L -7.38755 3.23299 L -7.3612 3.15672 L -7.33444 3.08027 L -7.30726 3.00365 L -7.27965 2.92685 L -7.2516 2.84988 L -7.2231 2.77273 L -7.19414 2.6954 L -7.16471 2.6179 L -7.13479 2.54021 L -7.10438 2.46236 L -7.07346 2.38432 L -7.04201 2.30611 L -7.01004 2.22773 L -6.97751 2.14917 L -6.94443 2.07044 L -6.91076 1.99153 L -6.87651 1.91246 L -6.84165 1.83322 L -6.84165 1.83322 L -6.91146 1.78202 L -6.98066 1.73067 L -7.04927 1.67916 L -7.11729 1.62752 L -7.18473 1.57575 L -7.25162 1.52386 L -7.31795 1.47184 L -7.38375 1.41973 L -7.44902 1.3675 L -7.51376 1.31519 L -7.57801 1.26278 L -7.64175 1.2103 L -7.70501 1.15773 L -7.76779 1.10509 L -7.83009 1.05239 L -7.89194 0.999624 L -7.95334 0.946802 L -8.0143 0.893927 L -8.07482 0.841003 L -8.13492 0.788035 L -8.1946 0.735027 L -8.25387 0.681982 L -8.31274 0.628904 L -8.37122 0.575796 L -8.42931 0.522661 L -8.48646 0.479623 L -8.48936 0.425201 L -8.49191 0.370761 L -8.49411 0.316305 L -8.49597 0.261837 L -8.49747 0.207358 L -8.49863 0.15287 L -8.49943 0.0983761 L -8.49943 -0.0983761 L -8.49863 -0.15287 L -8.49747 -0.207358 L -8.49597 -0.261837 L -8.49411 -0.316305 L -8.49191 -0.370761 L -8.48936 -0.425201 L -8.48646 -0.479623 L -8.42931 -0.522661 L -8.37122 -0.575796 L -8.31274 -0.628904 L -8.25387 -0.681982 L -8.1946 -0.735027 L -8.13492 -0.788035 L -8.07482 -0.841003 L -8.0143 -0.893927 L -7.95334 -0.946802 L -7.89194 -0.999624 L -7.83009 -1.05239 L -7.76779 -1.10509 L -7.70501 -1.15773 L -7.64175 -1.2103 L -7.57801 -1.26278 L -7.51376 -1.31519 L -7.44902 -1.3675 L -7.38375 -1.41973 L -7.31795 -1.47184 L -7.25162 -1.52386 L -7.18473 -1.57575 L -7.11729 -1.62752 L -7.04927 -1.67916 L -6.98066 -1.73067 L -6.91146 -1.78202 L -6.84165 -1.83322 L -6.84165 -1.83322 L -6.87651 -1.91246 L -6.91076 -1.99153 L -6.94443 -2.07044 L -6.97751 -2.14917 L -7.01004 -2.22773 L -7.04201 -2.30611 L -7.07346 -2.38432 L -7.10438 -2.46236 L -7.13479 -2.54021 L -7.16471 -2.6179 L -7.19414 -2.6954 L -7.2231 -2.77273 L -7.2516 -2.84988 L -7.27965 -2.92685 L -7.30726 -3.00365 L -7.33444 -3.08027 L -7.3612 -3.15672 L -7.38755 -3.23299 L -7.4135 -3.30908 L -7.43907 -3.385 L -7.46425 -3.46075 L -7.48905 -3.53632 L -7.5135 -3.61173 L -7.53759 -3.68696 L -7.56133 -3.76202 L -7.5893 -3.82786 L -7.5646 -3.87644 L -7.53959 -3.92487 L -7.51427 -3.97313 L -7.48864 -4.02123 L -7.4627 -4.06916 L -7.43646 -4.11692 L -7.40991 -4.16452 L -7.31153 -4.33491 L -7.28359 -4.3817 L -7.25535 -4.42831 L -7.2268 -4.47474 L -7.19796 -4.52098 L -7.16883 -4.56704 L -7.1394 -4.61291 L -7.10968 -4.65859 L -7.03867 -4.66729 L -6.96179 -4.68426 L -6.8846 -4.70102 L -6.80707 -4.71755 L -6.72922 -4.73385 L -6.65103 -4.74992 L -6.5725 -4.76574 L -6.49362 -4.78131 L -6.4144 -4.79663 L -6.33481 -4.81167 L -6.25487 -4.82644 L -6.17455 -4.84093 L -6.09387 -4.85513 L -6.0128 -4.86902 L -5.93135 -4.88261 L -5.84952 -4.89587 L -5.76728 -4.9088 L -5.68465 -4.92139 L -5.60161 -4.93363 L -5.51816 -4.94551 L -5.43429 -4.95701 L -5.34999 -4.96812 L -5.26526 -4.97883 L -5.1801 -4.98913 L -5.09449 -4.999 L -5.00844 -5.00844 L -5.00844 -5.00844 L -4.999 -5.09449 L -4.98913 -5.1801 L -4.97883 -5.26526 L -4.96812 -5.34999 L -4.95701 -5.43429 L -4.94551 -5.51816 L -4.93363 -5.60161 L -4.92139 -5.68465 L -4.9088 -5.76728 L -4.89587 -5.84952 L -4.88261 -5.93135 L -4.86902 -6.0128 L -4.85513 -6.09387 L -4.84093 -6.17455 L -4.82644 -6.25487 L -4.81167 -6.33481 L -4.79663 -6.4144 L -4.78131 -6.49362 L -4.76574 -6.5725 L -4.74992 -6.65103 L -4.73385 -6.72922 L -4.71755 -6.80707 L -4.70102 -6.8846 L -4.68426 -6.96179 L -4.66729 -7.03867 L -4.65859 -7.10968 L -4.61291 -7.1394 L -4.56704 -7.16883 L -4.52098 -7.19796 L -4.47474 -7.2268 L -4.42831 -7.25535 L -4.3817 -7.28359 L -4.33491 -7.31153 L -4.16452 -7.40991 L -4.11692 -7.43646 L -4.06916 -7.4627 L -4.02123 -7.48864 L -3.97313 -7.51427 L -3.92487 -7.53959 L -3.87644 -7.5646 L -3.82786 -7.5893 L -3.76202 -7.56133 L -3.68696 -7.53759 L -3.61173 -7.5135 L -3.53632 -7.48905 L -3.46075 -7.46425 L -3.385 -7.43907 L -3.30908 -7.4135 L -3.23299 -7.38755 L -3.15672 -7.3612 L -3.08027 -7.33444 L -3.00365 -7.30726 L -2.92685 -7.27965 L -2.84988 -7.2516 L -2.77273 -7.2231 L -2.6954 -7.19414 L -2.6179 -7.16471 L -2.54021 -7.13479 L -2.46236 -7.10438 L -2.38432 -7.07346 L -2.30611 -7.04201 L -2.22773 -7.01004 L -2.14917 -6.97751 L -2.07044 -6.94443 L -1.99153 -6.91076 L -1.91246 -6.87651 L -1.83322 -6.84165 L -1.83322 -6.84165 L -1.78202 -6.91146 L -1.73067 -6.98066 L -1.67916 -7.04927 L -1.62752 -7.11729 L -1.57575 -7.18473 L -1.52386 -7.25162 L -1.47184 -7.31795 L -1.41973 -7.38375 L -1.3675 -7.44902 L -1.31519 -7.51376 L -1.26278 -7.57801 L -1.2103 -7.64175 L -1.15773 -7.70501 L -1.10509 -7.76779 L -1.05239 -7.83009 L -0.999624 -7.89194 L -0.946802 -7.95334 L -0.893927 -8.0143 L -0.841003 -8.07482 L -0.788035 -8.13492 L -0.735027 -8.1946 L -0.681982 -8.25387 L -0.628904 -8.31274 L -0.575796 -8.37122 L -0.522661 -8.42931 L -0.479623 -8.48646 L -0.425201 -8.48936 L -0.370761 -8.49191 L -0.316305 -8.49411 L -0.261837 -8.49597 L -0.207358 -8.49747 L -0.15287 -8.49863 L -0.0983761 -8.49943 L 0.0983761 -8.49943 L 0.15287 -8.49863 L 0.207358 -8.49747 L 0.261837 -8.49597 L 0.316305 -8.49411 L 0.370761 -8.49191 L 0.425201 -8.48936 L 0.479623 -8.48646 L 0.522661 -8.42931 L 0.575796 -8.37122 L 0.628904 -8.31274 L 0.681982 -8.25387 L 0.735027 -8.1946 L 0.788035 -8.13492 L 0.841003 -8.07482 L 0.893927 -8.0143 L 0.946802 -7.95334 L 0.999624 -7.89194 L 1.05239 -7.83009 L 1.10509 -7.76779 L 1.15773 -7.70501 L 1.2103 -7.64175 L 1.26278 -7.57801 L 1.31519 -7.51376 L 1.3675 -7.44902 L 1.41973 -7.38375 L 1.47184 -7.31795 L 1.52386 -7.25162 L 1.57575 -7.18473 L 1.62752 -7.11729 L 1.67916 -7.04927 L 1.73067 -6.98066 L 1.78202 -6.91146 L 1.83322 -6.84165 L 1.83322 -6.84165 L 1.91246 -6.87651 L 1.99153 -6.91076 L 2.07044 -6.94443 L 2.14917 -6.97751 L 2.22773 -7.01004 L 2.30611 -7.04201 L 2.38432 -7.07346 L 2.46236 -7.10438 L 2.54021 -7.13479 L 2.6179 -7.16471 L 2.6954 -7.19414 L 2.77273 -7.2231 L 2.84988 -7.2516 L 2.92685 -7.27965 L 3.00365 -7.30726 L 3.08027 -7.33444 L 3.15672 -7.3612 L 3.23299 -7.38755 L 3.30908 -7.4135 L 3.385 -7.43907 L 3.46075 -7.46425 L 3.53632 -7.48905 L 3.61173 -7.5135 L 3.68696 -7.53759 L 3.76202 -7.56133 L 3.82786 -7.5893 L 3.87644 -7.5646 L 3.92487 -7.53959 L 3.97313 -7.51427 L 4.02123 -7.48864 L 4.06916 -7.4627 L 4.11692 -7.43646 L 4.16452 -7.40991 L 4.33491 -7.31153 L 4.3817 -7.28359 L 4.42831 -7.25535 L 4.47474 -7.2268 L 4.52098 -7.19796 L 4.56704 -7.16883 L 4.61291 -7.1394 L 4.65859 -7.10968 L 4.66729 -7.03867 L 4.68426 -6.96179 L 4.70102 -6.8846 L 4.71755 -6.80707 L 4.73385 -6.72922 L 4.74992 -6.65103 L 4.76574 -6.5725 L 4.78131 -6.49362 L 4.79663 -6.4144 L 4.81167 -6.33481 L 4.82644 -6.25487 L 4.84093 -6.17455 L 4.85513 -6.09387 L 4.86902 -6.0128 L 4.88261 -5.93135 L 4.89587 -5.84952 L 4.9088 -5.76728 L 4.92139 -5.68465 L 4.93363 -5.60161 L 4.94551 -5.51816 L 4.95701 -5.43429 L 4.96812 -5.34999 L 4.97883 -5.26526 L 4.98913 -5.1801 L 4.999 -5.09449 L 5.00844 -5.00844 L 5.00844 -5.00844 L 5.09449 -4.999 L 5.1801 -4.98913 L 5.26526 -4.97883 L 5.34999 -4.96812 L 5.43429 -4.95701 L 5.51816 -4.94551 L 5.60161 -4.93363 L 5.68465 -4.92139 L 5.76728 -4.9088 L 5.84952 -4.89587 L 5.93135 -4.88261 L 6.0128 -4.86902 L 6.09387 -4.85513 L 6.17455 -4.84093 L 6.25487 -4.82644 L 6.33481 -4.81167 L 6.4144 -4.79663 L 6.49362 -4.78131 L 6.5725 -4.76574 L 6.65103 -4.74992 L 6.72922 -4.73385 L 6.80707 -4.71755 L 6.8846 -4.70102 L 6.96179 -4.68426 L 7.03867 -4.66729 L 7.10968 -4.65859 L 7.1394 -4.61291 L 7.16883 -4.56704 L 7.19796 -4.52098 L 7.2268 -4.47474 L 7.25535 -4.42831 L 7.28359 -4.3817 L 7.31153 -4.33491 L 7.40991 -4.16452 L 7.43646 -4.11692 L 7.4627 -4.06916 L 7.48864 -4.02123 L 7.51427 -3.97313 L 7.53959 -3.92487 L 7.5646 -3.87644 L 7.5893 -3.82786 L 7.56133 -3.76202 L 7.53759 -3.68696 L 7.5135 -3.61173 L 7.48905 -3.53632 L 7.46425 -3.46075 L 7.43907 -3.385 L 7.4135 -3.30908 L 7.38755 -3.23299 L 7.3612 -3.15672 L 7.33444 -3.08027 L 7.30726 -3.00365 L 7.27965 -2.92685 L 7.2516 -2.84988 L 7.2231 -2.77273 L 7.19414 -2.6954 L 7.16471 -2.6179 L 7.13479 -2.54021 L 7.10438 -2.46236 L 7.07346 -2.38432 L 7.04201 -2.30611 L 7.01004 -2.22773 L 6.97751 -2.14917 L 6.94443 -2.07044 L 6.91076 -1.99153 L 6.87651 -1.91246 L 6.84165 -1.83322 L 6.84165 -1.83322 L 6.91146 -1.78202 L 6.98066 -1.73067 L 7.04927 -1.67916 L 7.11729 -1.62752 L 7.18473 -1.57575 L 7.25162 -1.52386 L 7.31795 -1.47184 L 7.38375 -1.41973 L 7.44902 -1.3675 L 7.51376 -1.31519 L 7.57801 -1.26278 L 7.64175 -1.2103 L 7.70501 -1.15773 L 7.76779 -1.10509 L 7.83009 -1.05239 L 7.89194 -0.999624 L 7.95334 -0.946802 L 8.0143 -0.893927 L 8.07482 -0.841003 L 8.13492 -0.788035 L 8.1946 -0.735027 L 8.25387 -0.681982 L 8.31274 -0.628904 L 8.37122 -0.575796 L 8.42931 -0.522661 L 8.48646 -0.479623 L 8.48936 -0.425201 L 8.49191 -0.370761 L 8.49411 -0.316305 L 8.49597 -0.261837 L 8.49747 -0.207358 L 8.49863 -0.15287 L 8.49943 -0.0983761Z"
id="path1" />
</g>
</svg>
