<?xml version="1.0" encoding="UTF-8" standalone="no"?>
<svg version="1.1">
<g
style="fill:none;stroke:#000000;stroke-opacity:1;stroke-width:0.1">
<path d="M 8.74963 0.0800994 L 8.74892 0.137206 L 8.74784 0.194307 L 8.74639 0.251399 L 8.74456 0.308481 L 8.74236 0.36555 L 8.73979 0.422603 L 8.73684 0.479638 L 8.67721 0.521921 L 8.61666 0.574304 L 8.55575 0.626662 L 8.49446 0.678993 L 8.43279 0.731294 L 8.37074 0.783561 L 8.30829 0.83579 L 8.24543 0.88798 L 8.18217 0.940124 L 8.11848 0.992221 L 8.05436 1.04426 L 7.98981 1.09625 L 7.92481 1.14818 L 7.85936 1.20004 L 7.79344 1.25183 L 7.72704 1.30354 L 7.66016 1.35517 L 7.59279 1.40672 L 7.52491 1.45817 L 7.45652 1.50952 L 7.3876 1.56076 L 7.31814 1.61189 L 7.24814 1.6629 L 7.17757 1.71378 L 7.10643 1.76452 L 7.03471 1.81512 L 6.96239 1.86557 L 6.96239 1.86557 L 6.9998 1.94541 L 7.03661 2.02509 L 7.07285 2.10461 L 7.10852 2.18396 L 7.14364 2.26313 L 7.17823 2.34214 L 7.21229 2.42098 L 7.24585 2.49965 L 7.27891 2.57814 L 7.31148 2.65647 L 7.34358 2.73462 L 7.37523 2.8126 L 7.40642 2.89041 L 7.43718 2.96805 L 7.46751 3.04552 L 7.49742 3.12282 L 7.52692 3.19995 L 7.55603 3.27691 L 7.58475 3.3537 L 7.61308 3.43033 L 7.64105 3.50679 L 7.66866 3.58308 L 7.69592 3.65921 L 7.72283 3.73517 L 7.7494 3.81097 L 7.77564 3.88661 L 7.80615 3.95304 L 7.78018 4.00391 L 7.75388 4.05461 L 7.72725 4.10513 L 7.70029 4.15548 L 7.67301 4.20565 L 7.64539 4.25564 L 7.61745 4.30545 L 7.53736 4.44418 L 7.50819 4.49329 L 7.4787 4.5422 L 7.44889 4.59091 L 7.41877 4.63943 L 7.38833 4.68776 L 7.35758 4.73588 L 7.32651 4.7838 L 7.25372 4.7906 L 7.17509 4.80569 L 7.09616 4.82058 L 7.01692 4.83526 L 6.93737 4.84972 L 6.85749 4.86395 L 6.77729 4.87796 L 6.69677 4.89173 L 6.6159 4.90526 L 6.5347 4.91853 L 6.45315 4.93154 L 6.37125 4.94429 L 6.289 4.95676 L 6.20638 4.96894 L 6.1234 4.98083 L 6.04004 4.99242 L 5.95631 5.00369 L 5.87219 5.01465 L 5.78768 5.02526 L 5.70278 5.03554 L 5.61747 5.04546 L 5.53175 5.05501 L 5.44562 5.06418 L 5.35907 5.07296 L 5.27209 5.08134 L 5.18468 5.0893 L 5.09683 5.09683 L 5.09683 5.09683 L 5.0893 5.18468 L 5.08134 5.27209 L 5.07296 5.35907 L 5.06418 5.44562 L 5.05501 5.53175 L 5.04546 5.61747 L 5.03554 5.70278 L 5.02526 5.78768 L 5.01465 5.87219 L 5.00369 5.95631 L 4.99242 6.04004 L 4.98083 6.1234 L 4.96894 6.20638 L 4.95676 6.289 L 4.94429 6.37125 L 4.93154 6.45315 L 4.91853 6.5347 L 4.90526 6.6159 L 4.89173 6.69677 L 4.87796 6.77729 L 4.86395 6.85749 L 4.84972 6.93737 L 4.83526 7.01692 L 4.82058 7.09616 L 4.80569 7.17509 L 4.7906 7.25372 L 4.7838 7.32651 L 4.73588 7.35758 L 4.68776 7.38833 L 4.63943 7.41877 L 4.59091 7.44889 L 4.5422 7.4787 L 4.49329 7.50819 L 4.44418 7.53736 L 4.30545 7.61745 L 4.25564 7.64539 L 4.20565 7.67301 L 4.15548 7.70029 L 4.10513 7.72725 L 4.05461 7.75388 L 4.00391 7.78018 L 3.95304 7.80615 L 3.88661 7.77564 L 3.81097 7.7494 L 3.73517 7.72283 L 3.65921 7.69592 L 3.58308 7.66866 L 3.50679 7.64105 L 3.43033 7.61308 L 3.3537 7.58475 L 3.27691 7.55603 L 3.19995 7.52692 L 3.12282 7.49742 L 3.04552 7.46751 L 2.96805 7.43718 L 2.89041 7.40642 L 2.8126 7.37523 L 2.73462 7.34358 L 2.65647 7.31148 L 2.57814 7.27891 L 2.49965 7.24585 L 2.42098 7.21229 L 2.34214 7.17823 L 2.26313 7.14364 L 2.18396 7.10852 L 2.10461 7.07285 L 2.02509 7.03661 L 1.94541 6.9998 L 1.86557 6.96239 L 1.86557 6.96239 L 1.81512 7.03471 L 1.76452 7.10643 L 1.71378 7.17757 L 1.6629 7.24814 L 1.61189 7.31814 L 1.56076 7.3876 L 1.50952 7.45652 L 1.45817 7.52491 L 1.40672 7.59279 L 1.35517 7.66016 L 1.30354 7.72704 L 1.25183 7.79344 L 1.20004 7.85936 L 1.14818 7.92481 L 1.09625 7.98981 L 1.04426 8.05436 L 0.992221 8.11848 L 0.940124 8.18217 L 0.88798 8.24543 L 0.83579 8.30829 L 0.783561 8.37074 L 0.731294 8.43279 L 0.678993 8.49446 L 0.626662 8.55575 L 0.574304 8.61666 L 0.521921 8.67721 L 0.479638 8.73684 L 0.422603 8.73979 L 0.36555 8.74236 L 0.308481 8.74456 L 0.251399 8.74639 L 0.194307 8.74784 L 0.137206 8.74892 L 0.0800994 8.74963 L -0.0800994 8.74963 L -0.137206 8.74892 L -0.194307 8.74784 L -0.251399 8.74639 L -0.308481 8.74456 L -0.36555 8.74236 L -0.422603 8.73979 L -0.479638 8.73684 L -0.521921 8.67721 L -0.574304 8.61666 L -0.626662 8.55575 L -0.678993 8.49446 L -0.731294 8.43279 L -0.783561 8.37074 L -0.83579 8.30829 L -0.88798 8.24543 L -0.940124 8.18217 L -0.992221 8.11848 L -1.04426 8.05436 L -1.09625 7.98981 L -1.14818 7.92481 L -1.20004 7.85936 L -1.25183 7.79344 L -1.30354 7.72704 L -1.35517 7.66016 L -1.40672 7.59279 L -1.45817 7.52491 L -1.50952 7.45652 L -1.56076 7.3876 L -1.61189 7.31814 L -1.6629 7.24814 L -1.71378 7.17757 L -1.76452 7.10643 L -1.81512 7.03471 L -1.86557 6.96239 L -1.86557 6.96239 L -1.94541 6.9998 L -2.02509 7.03661 L -2.10461 7.07285 L -2.18396 7.10852 L -2.26313 7.14364 L -2.34214 7.17823 L -2.42098 7.21229 L -2.49965 7.24585 L -2.57814 7.27891 L -2.65647 7.31148 L -2.73462 7.34358 L -2.8126 7.37523 L -2.89041 7.40642 L -2.96805 7.43718 L -3.04552 7.46751 L -3.12282 7.49742 L -3.19995 7.52692 L -3.27691 7.55603 L -3.3537 7.58475 L -3.43033 7.61308 L -3.50679 7.64105 L -3.58308 7.66866 L -3.65921 7.69592 L -3.73517 7.72283 L -3.81097 7.7494 L -3.88661 7.77564 L -3.95304 7.80615 L -4.00391 7.78018 L -4.05461 7.75388 L -4.10513 7.72725 L -4.15548 7.70029 L -4.20565 7.67301 L -4.25564 7.64539 L -4.30545 7.61745 L -4.44418 7.53736 L -4.49329 7.50819 L -4.5422 7.4787 L -4.59091 7.44889 L -4.63943 7.41877 L -4.68776 7.38833 L -4.73588 7.35758 L -4.7838 7.32651 L -4.7906 7.25372 L -4.80569 7.17509 L -4.82058 7.09616 L -4.83526 7.01692 L -4.84972 6.93737 L -4.86395 6.85749 L -4.87796 6.77729 L -4.89173 6.69677 L -4.90526 6.6159 L -4.91853 6.5347 L -4.93154 6.45315 L -4.94429 6.37125 L -4.95676 6.289 L -4.96894 6.20638 L -4.98083 6.1234 L -4.99242 6.04004 L -5.00369 5.95631 L -5.01465 5.87219 L -5.02526 5.78768 L -5.03554 5.70278 L -5.04546 5.61747 L -5.05501 5.53175 L -5.06418 5.44562 L -5.07296 5.35907 L -5.08134 5.27209 L -5.0893 5.18468 L -5.09683 5.09683 L -5.09683 5.09683 L -5.18468 5.0893 L -5.27209 5.08134 L -5.35907 5.07296 L -5.44562 5.06418 L -5.53175 5.05501 L -5.61747 5.04546 L -5.70278 5.03554 L -5.78768 5.02526 L -5.87219 5.01465 L -5.95631 5.00369 L -6.04004 4.99242 L -6.1234 4.98083 L -6.20638 4.96894 L -6.289 4.95676 L -6.37125 4.94429 L -6.45315 4.93154 L -6.5347 4.91853 L -6.6159 4.90526 L -6.69677 4.89173 L -6.77729 4.87796 L -6.85749 4.86395 L -6.93737 4.84972 L -7.01692 4.83526 L -7.09616 4.82058 L -7.17509 4.80569 L -7.25372 4.7906 L -7.32651 4.7838 L -7.35758 4.73588 L -7.38833 4.68776 L -7.41877 4.63943 L -7.44889 4.59091 L -7.4787 4.5422 L -7.50819 4.49329 L -7.53736 4.44418 L -7.61745 4.30545 L -7.64539 4.25564 L -7.67301 4.20565 L -7.70029 4.15548 L -7.72725 4.10513 L -7.75388 4.05461 L -7.78018 4.00391 L -7.80615 3.95304 L -7.77564 3.88661 L -7.7494 3.81097 L -7.72283 3.73517 L -7.69592 3.65921 L -7.66866 3.58308 L -7.64105 3.50679 L -7.61308 3.43033 L -7.58475 3.3537 L -7.55603 3.27691 L -7.52692 3.19995 L -7.49742 3.12282 L -7.46751 3.04552 L -7.43718 2.96805 L -7.40642 2.89041 L -7.37523 2.8126 L -7.34358 2.73462 L -7.31148 2.65647 L -7.27891 2.57814 L -7.24585 2.49965 L -7.21229 2.42098 L -7.17823 2.34214 L -7.14364 2.26313 L -7.10852 2.18396 L -7.07285 2.10461 L -7.03661 2.02509 L -6.9998 1.94541 L -6.96239 1.86557 L -6.96239 1.86557 L -7.03471 1.81512 L -7.10643 1.76452 L -7.17757 1.71378 L -7.24814 1.6629 L -7.31814 1.61189 L -7.3876 1.56076 L -7.45652 1.50952 L -7.52491 1.45817 L -7.59279 1.40672 L -7.66016 1.35517 L -7.72704 1.30354 L -7.79344 1.25183 L -7.85936 1.20004 L -7.92481 1.14818 L -7.98981 1.09625 L -8.05436 1.04426 L -8.11848 0.992221 L -8.18217 0.940124 L -8.24543 0.88798 L -8.30829 0.83579 L -8.37074 0.783561 L -8.43279 0.731294 L -8.49446 0.678993 L -8.55575 0.626662 L -8.61666 0.574304 L -8.67721 0.521921 L -8.73684 0.479638 L -8.73979 0.422603 L -8.74236 0.36555 L -8.74456 0.308481 L -8.74639 0.251399 L -8.74784 0.194307 L -8.74892 0.137206 L -8.74963 0.0800994 L -8.74963 -0.0800994 L -8.74892 -0.137206 L -8.74784 -0.194307 L -8.74639 -0.251399 L -8.74456 -0.308481 L -8.74236 -0.36555 L -8.73979 -0.422603 L -8.73684 -0.479638 L -8.67721 -0.521921 L -8.61666 -0.574304 L -8.55575 -0.626662 L -8.49446 -0.678993 L -8.43279 -0.731294 L -8.37074 -0.783561 L -8.30829 -0.83579 L -8.24543 -0.88798 L -8.18217 -0.940124 L -8.11848 -0.992221 L -8.05436 -1.04426 L -7.98981 -1.09625 L -7.92481 -1.14818 L -7.85936 -1.20004 L -7.79344 -1.25183 L -7.72704 -1.30354 L -7.66016 -1.35517 L -7.59279 -1.40672 L -7.52491 -1.45817 L -7.45652 -1.50952 L -7.3876 -1.56076 L -7.31814 -1.61189 L -7.24814 -1.6629 L -7.17757 -1.71378 L -7.10643 -1.76452 L -7.03471 -1.81512 L -6.96239 -1.86557 L -6.96239 -1.86557 L -6.9998 -1.94541 L -7.03661 -2.02509 L -7.07285 -2.10461 L -7.10852 -2.18396 L -7.14364 -2.26313 L -7.17823 -2.34214 L -7.21229 -2.42098 L -7.24585 -2.49965 L -7.27891 -2.57814 L -7.31148 -2.65647 L -7.34358 -2.73462 L -7.37523 -2.8126 L -7.40642 -2.89041 L -7.43718 -2.96805 L -7.46751 -3.04552 L -7.49742 -3.12282 L -7.52692 -3.19995 L -7.55603 -3.27691 L -7.58475 -3.3537 L -7.61308 -3.43033 L -7.64105 -3.50679 L -7.66866 -3.58308 L -7.69592 -3.65921 L -7.72283 -3.73517 L -7.7494 -3.81097 L -7.77564 -3.88661 L -7.80615 -3.95304 L -7.78018 -4.00391 L -7.75388 -4.05461 L -7.72725 -4.10513 L -7.70029 -4.15548 L -7.67301 -4.20565 L -7.64539 -4.25564 L -7.61745 -4.30545 L -7.53736 -4.44418 L -7.50819 -4.49329 L -7.4787 -4.5422 L -7.44889 -4.59091 L -7.41877 -4.63943 L -7.38833 -4.68776 L -7.35758 -4.73588 L -7.32651 -4.7838 L -7.25372 -4.7906 L -7.17509 -4.80569 L -7.09616 -4.82058 L -7.01692 -4.83526 L -6.93737 -4.84972 L -6.85749 -4.86395 L -6.77729 -4.87796 L -6.69677 -4.89173 L -6.6159 -4.90526 L -6.5347 -4.91853 L -6.45315 -4.93154 L -6.37125 -4.94429 L -6.289 -4.95676 L -6.20638 -4.96894 L -6.1234 -4.98083 L -6.04004 -4.99242 L -5.95631 -5.00369 L -5.87219 -5.01465 L -5.78768 -5.02526 L -5.70278 -5.03554 L -5.61747 -5.04546 L -5.53175 -5.05501 L -5.44562 -5.06418 L -5.35907 -5.07296 L -5.27209 -5.08134 L -5.18468 -5.0893 L -5.09683 -5.09683 L -5.09683 -5.09683 L -5.0893 -5.18468 L -5.08134 -5.27209 L -5.07296 -5.35907 L -5.06418 -5.44562 L -5.05501 -5.53175 L -5.04546 -5.61747 L -5.03554 -5.70278 L -5.02526 -5.78768 L -5.01465 -5.87219 L -5.00369 -5.95631 L -4.99242 -6.04004 L -4.98083 -6.1234 L -4.96894 -6.20638 L -4.95676 -6.289 L -4.94429 -6.37125 L -4.93154 -6.45315 L -4.91853 -6.5347 L -4.90526 -6.6159 L -4.89173 -6.69677 L -4.87796 -6.77729 L -4.86395 -6.85749 L -4.84972 -6.93737 L -4.83526 -7.01692 L -4.82058 -7.09616 L -4.80569 -7.17509 L -4.7906 -7.25372 L -4.7838 -7.32651 L -4.73588 -7.35758 L -4.68776 -7.38833 L -4.63943 -7.41877 L -4.59091 -7.44889 L -4.5422 -7.4787 L -4.49329 -7.50819 L -4.44418 -7.53736 L -4.30545 -7.61745 L -4.25564 -7.64539 L -4.20565 -7.67301 L -4.15548 -7.70029 L -4.10513 -7.72725 L -4.05461 -7.75388 L -4.00391 -7.78018 L -3.95304 -7.80615 L -3.88661 -7.77564 L -3.81097 -7.7494 L -3.73517 -7.72283 L -3.65921 -7.69592 L -3.58308 -7.66866 L -3.50679 -7.64105 L -3.43033 -7.61308 L -3.3537 -7.58475 L -3.27691 -7.55603 L -3.19995 -7.52692 L -3.12282 -7.49742 L -3.04552 -7.46751 L -2.96805 -7.43718 L -2.89041 -7.40642 L -2.8126 -7.37523 L -2.73462 -7.34358 L -2.65647 -7.31148 L -2.57814 -7.27891 L -2.49965 -7.24585 L -2.42098 -7.21229 L -2.34214 -7.17823 L -2.26313 -7.14364 L -2.18396 -7.10852 L -2.10461 -7.07285 L -2.02509 -7.03661 L -1.94541 -6.9998 L -1.86557 -6.96239 L -1.86557 -6.96239 L -1.81512 -7.03471 L -1.76452 -7.10643 L -1.71378 -7.17757 L -1.6629 -7.24814 L -1.61189 -7.31814 L -1.56076 -7.3876 L -1.50952 -7.45652 L -1.45817 -7.52491 L -1.40672 -7.59279 L -1.35517 -7.66016 L -1.30354 -7.72704 L -1.25183 -7.79344 L -1.20004 -7.85936 L -1.14818 -7.92481 L -1.09625 -7.98981 L -1.04426 -8.05436 L -0.992221 -8.11848 L -0.940124 -8.18217 L -0.88798 -8.24543 L -0.83579 -8.30829 L -0.783561 -8.37074 L -0.731294 -8.43279 L -0.678993 -8.49446 L -0.626662 -8.55575 L -0.574304 -8.61666 L -0.521921 -8.67721 L -0.479638 -8.73684 L -0.422603 -8.73979 L -0.36555 -8.74236 L -0.308481 -8.74456 L -0.251399 -8.74639 L -0.194307 -8.74784 L -0.137206 -8.74892 L -0.0800994 -8.74963 L 0.0800994 -8.74963 L 0.137206 -8.74892 L 0.194307 -8.74784 L 0.251399 -8.74639 L 0.308481 -8.74456 L 0.36555 -8.74236 L 0.422603 -8.73979 L 0.479638 -8.73684 L 0.521921 -8.67721 L 0.574304 -8.61666 L 0.626662 -8.55575 L 0.678993 -8.49446 L 0.731294 -8.43279 L 0.783561 -8.37074 L 0.83579 -8.30829 L 0.88798 -8.24543 L 0.940124 -8.18217 L 0.992221 -8.11848 L 1.04426 -8.05436 L 1.09625 -7.98981 L 1.14818 -7.92481 L 1.20004 -7.85936 L 1.25183 -7.79344 L 1.30354 -7.72704 L 1.35517 -7.66016 L 1.40672 -7.59279 L 1.45817 -7.52491 L 1.50952 -7.45652 L 1.56076 -7.3876 L 1.61189 -7.31814 L 1.6629 -7.24814 L 1.71378 -7.17757 L 1.76452 -7.10643 L 1.81512 -7.03471 L 1.86557 -6.96239 L 1.86557 -6.96239 L 1.94541 -6.9998 L 2.02509 -7.03661 L 2.10461 -7.07285 L 2.18396 -7.10852 L 2.26313 -7.14364 L 2.34214 -7.17823 L 2.42098 -7.21229 L 2.49965 -7.24585 L 2.57814 -7.27891 L 2.65647 -7.31148 L 2.73462 -7.34358 L 2.8126 -7.37523 L 2.89041 -7.40642 L 2.96805 -7.43718 L 3.04552 -7.46751 L 3.12282 -7.49742 L 3.19995 -7.52692 L 3.27691 -7.55603 L 3.3537 -7.58475 L 3.43033 -7.61308 L 3.50679 -7.64105 L 3.58308 -7.66866 L 3.65921 -7.69592 L 3.73517 -7.72283 L 3.81097 -7.7494 L 3.88661 -7.77564 L 3.95304 -7.80615 L 4.00391 -7.78018 L 4.05461 -7.75388 L 4.10513 -7.72725 L 4.15548 -7.70029 L 4.20565 -7.67301 L 4.25564 -7.64539 L 4.30545 -7.61745 L 4.44418 -7.53736 L 4.49329 -7.50819 L 4.5422 -7.4787 L 4.59091 -7.44889 L 4.63943 -7.41877 L 4.68776 -7.38833 L 4.73588 -7.35758 L 4.7838 -7.32651 L 4.7906 -7.25372 L 4.80569 -7.17509 L 4.82058 -7.09616 L 4.83526 -7.01692 L 4.84972 -6.93737 L 4.86395 -6.85749 L 4.87796 -6.77729 L 4.89173 -6.69677 L 4.90526 -6.6159 L 4.91853 -6.5347 L 4.93154 -6.45315 L 4.94429 -6.37125 L 4.95676 -6.289 L 4.96894 -6.20638 L 4.98083 -6.1234 L 4.99242 -6.04004 L 5.00369 -5.95631 L 5.01465 -5.87219 L 5.02526 -5.78768 L 5.03554 -5.70278 L 5.04546 -5.61747 L 5.05501 -5.53175 L 5.06418 -5.44562 L 5.07296 -5.35907 L 5.08134 -5.27209 L 5.0893 -5.18468 L 5.09683 -5.09683 L 5.09683 -5.09683 L 5.18468 -5.0893 L 5.27209 -5.08134 L 5.35907 -5.07296 L 5.44562 -5.06418 L 5.53175 -5.05501 L 5.61747 -5.04546 L 5.70278 -5.03554 L 5.78768 -5.02526 L 5.87219 -5.01465 L 5.95631 -5.00369 L 6.04004 -4.99242 L 6.1234 -4.98083 L 6.20638 -4.96894 L 6.289 -4.95676 L 6.37125 -4.94429 L 6.45315 -4.93154 L 6.5347 -4.91853 L 6.6159 -4.90526 L 6.69677 -4.89173 L 6.77729 -4.87796 L 6.85749 -4.86395 L 6.93737 -4.84972 L 7.01692 -4.83526 L 7.09616 -4.82058 L 7.17509 -4.80569 L 7.25372 -4.7906 L 7.32651 -4.7838 L 7.35758 -4.73588 L 7.38833 -4.68776 L 7.41877 -4.63943 L 7.44889 -4.59091 L 7.4787 -4.5422 L 7.50819 -4.49329 L 7.53736 -4.44418 L 7.61745 -4.30545 L 7.64539 -4.25564 L 7.67301 -4.20565 L 7.70029 -4.15548 L 7.72725 -4.10513 L 7.75388 -4.05461 L 7.78018 -4.00391 L 7.80615 -3.95304 L 7.77564 -3.88661 L 7.7494 -3.81097 L 7.72283 -3.73517 L 7.69592 -3.65921 L 7.66866 -3.58308 L 7.64105 -3.50679 L 7.61308 -3.43033 L 7.58475 -3.3537 L 7.55603 -3.27691 L 7.52692 -3.19995 L 7.49742 -3.12282 L 7.46751 -3.04552 L 7.43718 -2.96805 L 7.40642 -2.89041 L 7.37523 -2.8126 L 7.34358 -2.73462 L 7.31148 -2.65647 L 7.27891 -2.57814 L 7.24585 -2.49965 L 7.21229 -2.42098 L 7.17823 -2.34214 L 7.14364 -2.26313 L 7.10852 -2.18396 L 7.07285 -2.10461 L 7.03661 -2.02509 L 6.9998 -1.94541 L 6.96239 -1.86557 L 6.96239 -1.86557 L 7.03471 -1.81512 L 7.10643 -1.76452 L 7.17757 -1.71378 L 7.24814 -1.6629 L 7.31814 -1.61189 L 7.3876 -1.56076 L 7.45652 -1.50952 L 7.52491 -1.45817 L 7.59279 -1.40672 L 7.66016 -1.35517 L 7.72704 -1.30354 L 7.79344 -1.25183 L 7.85936 -1.20004 L 7.92481 -1.14818 L 7.98981 -1.09625 L 8.05436 -1.04426 L 8.11848 -0.992221 L 8.18217 -0.940124 L 8.24543 -0.88798 L 8.30829 -0.83579 L 8.37074 -0.783561 L 8.43279 -0.731294 L 8.49446 -0.678993 L 8.55575 -0.626662 L 8.61666 -0.574304 L 8.67721 -0.521921 L 8.73684 -0.479638 L 8.73979 -0.422603 L 8.74236 -0.36555 L 8.74456 -0.308481 L 8.74639 -0.251399 L 8.74784 -0.194307 L 8.74892 -0.137206 L 8.74963 -0.0800994Z"
id="path1" />
</g>
</svg>
