<?xml version="1.0" encoding="UTF-8" standalone="no"?>
<svg version="1.1">
<g
style="fill:none;stroke:#000000;stroke-opacity:1;stroke-width:0.1">
<path d="M 9.49951 0.0964766 L 9.49865 0.160371 L 9.49735 0.224257 L 9.49563 0.288134 L 9.49348 0.351998 L 9.49089 0.415845 L 9.48788 0.479674 L 9.42176 0.519995 L 9.35483 0.570422 L 9.28757 0.620829 L 9.22 0.671215 L 9.1521 0.721578 L 9.08386 0.771913 L 9.01528 0.82222 L 8.94636 0.872495 L 8.87707 0.922735 L 8.80742 0.972937 L 8.7374 1.0231 L 8.66701 1.07322 L 8.59622 1.12328 L 8.52504 1.1733 L 8.45345 1.22326 L 8.38145 1.27316 L 8.30903 1.323 L 8.23618 1.37277 L 8.16289 1.42247 L 8.08914 1.47208 L 8.01494 1.52162 L 7.94027 1.57106 L 7.86511 1.62041 L 7.78947 1.66966 L 7.71332 1.7188 L 7.63665 1.76782 L 7.55946 1.81672 L 7.48173 1.8655 L 7.40346 1.91413 L 7.32462 1.96262 L 7.32462 1.96262 L 7.36865 2.04404 L 7.41212 2.1253 L 7.45505 2.2064 L 7.49745 2.28735 L 7.53933 2.36814 L 7.5807 2.44877 L 7.62159 2.52924 L 7.662 2.60956 L 7.70195 2.68971 L 7.74145 2.76971 L 7.7805 2.84955 L 7.81913 2.92924 L 7.85733 3.00876 L 7.89513 3.08813 L 7.93254 3.16735 L 7.96955 3.24641 L 8.00619 3.32532 L 8.04245 3.40407 L 8.07836 3.48267 L 8.11392 3.56112 L 8.14914 3.63942 L 8.18402 3.71757 L 8.21857 3.79558 L 8.25281 3.87343 L 8.28674 3.95114 L 8.32036 4.02871 L 8.35369 4.10613 L 8.38673 4.18341 L 8.41948 4.26055 L 8.45658 4.32853 L 8.42728 4.38531 L 8.39759 4.4419 L 8.36752 4.49828 L 8.33708 4.55446 L 8.30625 4.61044 L 8.27506 4.6662 L 8.17858 4.83331 L 8.14588 4.88821 L 8.11282 4.94289 L 8.07939 4.99735 L 8.04559 5.05158 L 8.01143 5.10558 L 7.97691 5.15935 L 7.89949 5.16121 L 7.81631 5.17141 L 7.73286 5.18144 L 7.64915 5.19129 L 7.56516 5.20095 L 7.4809 5.21043 L 7.39635 5.21971 L 7.31152 5.22878 L 7.2264 5.23765 L 7.14098 5.2463 L 7.05526 5.25473 L 6.96924 5.26293 L 6.8829 5.2709 L 6.79625 5.27863 L 6.70927 5.2861 L 6.62197 5.29332 L 6.53433 5.30027 L 6.44636 5.30694 L 6.35803 5.31334 L 6.26936 5.31943 L 6.18033 5.32523 L 6.09094 5.33071 L 6.00118 5.33587 L 5.91105 5.3407 L 5.82053 5.34518 L 5.72962 5.3493 L 5.63832 5.35306 L 5.54662 5.35644 L 5.45451 5.35942 L 5.36199 5.36199 L 5.36199 5.36199 L 5.35942 5.45451 L 5.35644 5.54662 L 5.35306 5.63832 L 5.3493 5.72962 L 5.34518 5.82053 L 5.3407 5.91105 L 5.33587 6.00118 L 5.33071 6.09094 L 5.32523 6.18033 L 5.31943 6.26936 L 5.31334 6.35803 L 5.30694 6.44636 L 5.30027 6.53433 L 5.29332 6.62197 L 5.2861 6.70927 L 5.27863 6.79625 L 5.2709 6.8829 L 5.26293 6.96924 L 5.25473 7.05526 L 5.2463 7.14098 L 5.23765 7.2264 L 5.22878 7.31152 L 5.21971 7.39635 L 5.21043 7.4809 L 5.20095 7.56516 L 5.19129 7.64915 L 5.18144 7.73286 L 5.17141 7.81631 L 5.16121 7.89949 L 5.15935 7.97691 L 5.10558 8.01143 L 5.05158 8.04559 L 4.99735 8.07939 L 4.94289 8.11282 L 4.88821 8.14588 L 4.83331 8.17858 L 4.6662 8.27506 L 4.61044 8.30625 L 4.55446 8.33708 L 4.49828 8.36752 L 4.4419 8.39759 L 4.38531 8.42728 L 4.32853 8.45658 L 4.26055 8.41948 L 4.18341 8.38673 L 4.10613 8.35369 L 4.02871 8.32036 L 3.95114 8.28674 L 3.87343 8.25281 L 3.79558 8.21857 L 3.71757 8.18402 L 3.63942 8.14914 L 3.56112 8.11392 L 3.48267 8.07836 L 3.40407 8.04245 L 3.32532 8.00619 L 3.24641 7.96955 L 3.16735 7.93254 L 3.08813 7.89513 L 3.00876 7.85733 L 2.92924 7.81913 L 2.84955 7.7805 L 2.76971 7.74145 L 2.68971 7.70195 L 2.60956 7.662 L 2.52924 7.62159 L 2.44877 7.5807 L 2.36814 7.53933 L 2.28735 7.49745 L 2.2064 7.45505 L 2.1253 7.41212 L 2.04404 7.36865 L 1.96262 7.32462 L 1.96262 7.32462 L 1.91413 7.40346 L 1.8655 7.48173 L 1.81672 7.55946 L 1.76782 7.63665 L 1.7188 7.71332 L 1.66966 7.78947 L 1.62041 7.86511 L 1.57106 7.94027 L 1.52162 8.01494 L 1.47208 8.08914 L 1.42247 8.16289 L 1.37277 8.23618 L 1.323 8.30903 L 1.27316 8.38145 L 1.22326 8.45345 L 1.1733 8.52504 L 1.12328 8.59622 L 1.07322 8.66701 L 1.0231 8.7374 L 0.972937 8.80742 L 0.922735 8.87707 L 0.872495 8.94636 L 0.82222 9.01528 L 0.771913 9.08386 L 0.721578 9.1521 L 0.671215 9.22 L 0.620829 9.28757 L 0.570422 9.35483 L 0.519995 9.42176 L 0.479674 9.48788 L 0.415845 9.49089 L 0.351998 9.49348 L 0.288134 9.49563 L 0.224257 9.49735 L 0.160371 9.49865 L 0.0964766 9.49951 L -0.0964766 9.49951 L -0.160371 9.49865 L -0.224257 9.49735 L -0.288134 9.49563 L -0.351998 9.49348 L -0.415845 9.49089 L -0.479674 9.48788 L -0.519995 9.42176 L -0.570422 9.35483 L -0.620829 9.28757 L -0.671215 9.22 L -0.721578 9.1521 L -0.771913 9.08386 L -0.82222 9.01528 L -0.872495 8.94636 L -0.922735 8.87707 L -0.972937 8.80742 L -1.0231 8.7374 L -1.07322 8.66701 L -1.12328 8.59622 L -1.1733 8.52504 L -1.22326 8.45345 L -1.27316 8.38145 L -1.323 8.30903 L -1.37277 8.23618 L -1.42247 8.16289 L -1.47208 8.08914 L -1.52162 8.01494 L -1.57106 7.94027 L -1.62041 7.86511 L -1.66966 7.78947 L -1.7188 7.71332 L -1.76782 7.63665 L -1.81672 7.55946 L -1.8655 7.48173 L -1.91413 7.40346 L -1.96262 7.32462 L -1.96262 7.32462 L -2.04404 7.36865 L -2.1253 7.41212 L -2.2064 7.45505 L -2.28735 7.49745 L -2.36814 7.53933 L -2.44877 7.5807 L -2.52924 7.62159 L -2.60956 7.662 L -2.68971 7.70195 L -2.76971 7.74145 L -2.84955 7.7805 L -2.92924 7.81913 L -3.00876 7.85733 L -3.08813 7.89513 L -3.16735 7.93254 L -3.24641 7.96955 L -3.32532 8.00619 L -3.40407 8.04245 L -3.48267 8.07836 L -3.56112 8.11392 L -3.63942 8.14914 L -3.71757 8.18402 L -3.79558 8.21857 L -3.87343 8.25281 L -3.95114 8.28674 L -4.02871 8.32036 L -4.10613 8.35369 L -4.18341 8.38673 L -4.26055 8.41948 L -4.32853 8.45658 L -4.38531 8.42728 L -4.4419 8.39759 L -4.49828 8.36752 L -4.55446 8.33708 L -4.61044 8.30625 L -4.6662 8.27506 L -4.83331 8.17858 L -4.88821 8.14588 L -4.94289 8.11282 L -4.99735 8.07939 L -5.05158 8.04559 L -5.10558 8.01143 L -5.15935 7.97691 L -5.16121 7.89949 L -5.17141 7.81631 L -5.18144 7.73286 L -5.19129 7.64915 L -5.20095 7.56516 L -5.21043 7.4809 L -5.21971 7.39635 L -5.22878 7.31152 L -5.23765 7.2264 L -5.2463 7.14098 L -5.25473 7.05526 L -5.26293 6.96924 L -5.2709 6.8829 L -5.27863 6.79625 L -5.2861 6.70927 L -5.29332 6.62197 L -5.30027 6.53433 L -5.30694 6.44636 L -5.31334 6.35803 L -5.31943 6.26936 L -5.32523 6.18033 L -5.33071 6.09094 L -5.33587 6.00118 L -5.3407 5.91105 L -5.34518 5.82053 L -5.3493 5.72962 L -5.35306 5.63832 L -5.35644 5.54662 L -5.35942 5.45451 L -5.36199 5.36199 L -5.36199 5.36199 L -5.45451 5.35942 L -5.54662 5.35644 L -5.63832 5.35306 L -5.72962 5.3493 L -5.82053 5.34518 L -5.91105 5.3407 L -6.00118 5.33587 L -6.09094 5.33071 L -6.18033 5.32523 L -6.26936 5.31943 L -6.35803 5.31334 L -6.44636 5.30694 L -6.53433 5.30027 L -6.62197 5.29332 L -6.70927 5.2861 L -6.79625 5.27863 L -6.8829 5.2709 L -6.96924 5.26293 L -7.05526 5.25473 L -7.14098 5.2463 L -7.2264 5.23765 L -7.31152 5.22878 L -7.39635 5.21971 L -7.4809 5.21043 L -7.56516 5.20095 L -7.64915 5.19129 L -7.73286 5.18144 L -7.81631 5.17141 L -7.89949 5.16121 L -7.97691 5.15935 L -8.01143 5.10558 L -8.04559 5.05158 L -8.07939 4.99735 L -8.11282 4.94289 L -8.14588 4.88821 L -8.17858 4.83331 L -8.27506 4.6662 L -8.30625 4.61044 L -8.33708 4.55446 L -8.36752 4.49828 L -8.39759 4.4419 L -8.42728 4.38531 L -8.45658 4.32853 L -8.41948 4.26055 L -8.38673 4.18341 L -8.35369 4.10613 L -8.32036 4.02871 L -8.28674 3.95114 L -8.25281 3.87343 L -8.21857 3.79558 L -8.18402 3.71757 L -8.14914 3.63942 L -8.11392 3.56112 L -8.07836 3.48267 L -8.04245 3.40407 L -8.00619 3.32532 L -7.96955 3.24641 L -7.93254 3.16735 L -7.89513 3.08813 L -7.85733 3.00876 L -7.81913 2.92924 L -7.7805 2.84955 L -7.74145 2.76971 L -7.70195 2.68971 L -7.662 2.60956 L -7.62159 2.52924 L -7.5807 2.44877 L -7.53933 2.36814 L -7.49745 2.28735 L -7.45505 2.2064 L -7.41212 2.1253 L -7.36865 2.04404 L -7.32462 1.96262 L -7.32462 1.96262 L -7.40346 1.91413 L -7.48173 1.8655 L -7.55946 1.81672 L -7.63665 1.76782 L -7.71332 1.7188 L -7.78947 1.66966 L -7.86511 1.62041 L -7.94027 1.57106 L -8.01494 1.52162 L -8.08914 1.47208 L -8.16289 1.42247 L -8.23618 1.37277 L -8.30903 1.323 L -8.38145 1.27316 L -8.45345 1.22326 L -8.52504 1.1733 L -8.59622 1.12328 L -8.66701 1.07322 L -8.7374 1.0231 L -8.80742 0.972937 L -8.87707 0.922735 L -8.94636 0.872495 L -9.01528 0.82222 L -9.08386 0.771913 L -9.1521 0.721578 L -9.22 0.671215 L -9.28757 0.620829 L -9.35483 0.570422 L -9.42176 0.519995 L -9.48788 0.479674 L -9.49089 0.415845 L -9.49348 0.351998 L -9.49563 0.288134 L -9.49735 0.224257 L -9.49865 0.160371 L -9.49951 0.0964766 L -9.49951 -0.0964766 L -9.49865 -0.160371 L -9.49735 -0.224257 L -9.49563 -0.288134 L -9.49348 -0.351998 L -9.49089 -0.415845 L -9.48788 -0.479674 L -9.42176 -0.519995 L -9.35483 -0.570422 L -9.28757 -0.620829 L -9.22 -0.671215 L -9.1521 -0.721578 L -9.08386 -0.771913 L -9.01528 -0.82222 L -8.94636 -0.872495 L -8.87707 -0.922735 L -8.80742 -0.972937 L -8.7374 -1.0231 L -8.66701 -1.07322 L -8.59622 -1.12328 L -8.52504 -1.1733 L -8.45345 -1.22326 L -8.38145 -1.27316 L -8.30903 -1.323 L -8.23618 -1.37277 L -8.16289 -1.42247 L -8.08914 -1.47208 L -8.01494 -1.52162 L -7.94027 -1.57106 L -7.86511 -1.62041 L -7.78947 -1.66966 L -7.71332 -1.7188 L -7.63665 -1.76782 L -7.55946 -1.81672 L -7.48173 -1.8655 L -7.40346 -1.91413 L -7.32462 -1.96262 L -7.32462 -1.96262 L -7.36865 -2.04404 L -7.41212 -2.1253 L -7.45505 -2.2064 L -7.49745 -2.28735 L -7.53933 -2.36814 L -7.5807 -2.44877 L -7.62159 -2.52924 L -7.662 -2.60956 L -7.70195 -2.68971 L -7.74145 -2.76971 L -7.7805 -2.84955 L -7.81913 -2.92924 L -7.85733 -3.00876 L -7.89513 -3.08813 L -7.93254 -3.16735 L -7.96955 -3.24641 L -8.00619 -3.32532 L -8.04245 -3.40407 L -8.07836 -3.48267 L -8.11392 -3.56112 L -8.14914 -3.63942 L -8.18402 -3.71757 L -8.21857 -3.79558 L -8.25281 -3.87343 L -8.28674 -3.95114 L -8.32036 -4.02871 L -8.35369 -4.10613 L -8.38673 -4.18341 L -8.41948 -4.26055 L -8.45658 -4.32853 L -8.42728 -4.38531 L -8.39759 -4.4419 L -8.36752 -4.49828 L -8.33708 -4.55446 L -8.30625 -4.61044 L -8.27506 -4.6662 L -8.17858 -4.83331 L -8.14588 -4.88821 L -8.11282 -4.94289 L -8.07939 -4.99735 L -8.04559 -5.05158 L -8.01143 -5.10558 L -7.97691 -5.15935 L -7.89949 -5.16121 L -7.81631 -5.17141 L -7.73286 -5.18144 L -7.64915 -5.19129 L -7.56516 -5.20095 L -7.4809 -5.21043 L -7.39635 -5.21971 L -7.31152 -5.22878 L -7.2264 -5.23765 L -7.14098 -5.2463 L -7.05526 -5.25473 L -6.96924 -5.26293 L -6.8829 -5.2709 L -6.79625 -5.27863 L -6.70927 -5.2861 L -6.62197 -5.29332 L -6.53433 -5.30027 L -6.44636 -5.30694 L -6.35803 -5.31334 L -6.26936 -5.31943 L -6.18033 -5.32523 L -6.09094 -5.33071 L -6.00118 -5.33587 L -5.91105 -5.3407 L -5.82053 -5.34518 L -5.72962 -5.3493 L -5.63832 -5.35306 L -5.54662 -5.35644 L -5.45451 -5.35942 L -5.36199 -5.36199 L -5.36199 -5.36199 L -5.35942 -5.45451 L -5.35644 -5.54662 L -5.35306 -5.63832 L -5.3493 -5.72962 L -5.34518 -5.82053 L -5.3407 -5.91105 L -5.33587 -6.00118 L -5.33071 -6.09094 L -5.32523 -6.18033 L -5.31943 -6.26936 L -5.31334 -6.35803 L -5.30694 -6.44636 L -5.30027 -6.53433 L -5.29332 -6.62197 L -5.2861 -6.70927 L -5.27863 -6.79625 L -5.2709 -6.8829 L -5.26293 -6.96924 L -5.25473 -7.05526 L -5.2463 -7.14098 L -5.23765 -7.2264 L -5.22878 -7.31152 L -5.21971 -7.39635 L -5.21043 -7.4809 L -5.20095 -7.56516 L -5.19129 -7.64915 L -5.18144 -7.73286 L -5.17141 -7.81631 L -5.16121 -7.89949 L -5.15935 -7.97691 L -5.10558 -8.01143 L -5.05158 -8.04559 L -4.99735 -8.07939 L -4.94289 -8.11282 L -4.88821 -8.14588 L -4.83331 -8.17858 L -4.6662 -8.27506 L -4.61044 -8.30625 L -4.55446 -8.33708 L -4.49828 -8.36752 L -4.4419 -8.39759 L -4.38531 -8.42728 L -4.32853 -8.45658 L -4.26055 -8.41948 L -4.18341 -8.38673 L -4.10613 -8.35369 L -4.02871 -8.32036 L -3.95114 -8.28674 L -3.87343 -8.25281 L -3.79558 -8.21857 L -3.71757 -8.18402 L -3.63942 -8.14914 L -3.56112 -8.11392 L -3.48267 -8.07836 L -3.40407 -8.04245 L -3.32532 -8.00619 L -3.24641 -7.96955 L -3.16735 -7.93254 L -3.08813 -7.89513 L -3.00876 -7.85733 L -2.92924 -7.81913 L -2.84955 -7.7805 L -2.76971 -7.74145 L -2.68971 -7.70195 L -2.60956 -7.662 L -2.52924 -7.62159 L -2.44877 -7.5807 L -2.36814 -7.53933 L -2.28735 -7.49745 L -2.2064 -7.45505 L -2.1253 -7.41212 L -2.04404 -7.36865 L -1.96262 -7.32462 L -1.96262 -7.32462 L -1.91413 -7.40346 L -1.8655 -7.48173 L -1.81672 -7.55946 L -1.76782 -7.63665 L -1.7188 -7.71332 L -1.66966 -7.78947 L -1.62041 -7.86511 L -1.57106 -7.94027 L -1.52162 -8.01494 L -1.47208 -8.08914 L -1.42247 -8.16289 L -1.37277 -8.23618 L -1.323 -8.30903 L -1.27316 -8.38145 L -1.22326 -8.45345 L -1.1733 -8.52504 L -1.12328 -8.59622 L -1.07322 -8.66701 L -1.0231 -8.7374 L -0.972937 -8.80742 L -0.922735 -8.87707 L -0.872495 -8.94636 L -0.82222 -9.01528 L -0.771913 -9.08386 L -0.721578 -9.1521 L -0.671215 -9.22 L -0.620829 -9.28757 L -0.570422 -9.35483 L -0.519995 -9.42176 L -0.479674 -9.48788 L -0.415845 -9.49089 L -0.351998 -9.49348 L -0.288134 -9.49563 L -0.224257 -9.49735 L -0.160371 -9.49865 L -0.0964766 -9.49951 L 0.0964766 -9.49951 L 0.160371 -9.49865 L 0.224257 -9.49735 L 0.288134 -9.49563 L 0.351998 -9.49348 L 0.415845 -9.49089 L 0.479674 -9.48788 L 0.519995 -9.42176 L 0.570422 -9.35483 L 0.620829 -9.28757 L 0.671215 -9.22 L 0.721578 -9.1521 L 0.771913 -9.08386 L 0.82222 -9.01528 L 0.872495 -8.94636 L 0.922735 -8.87707 L 0.972937 -8.80742 L 1.0231 -8.7374 L 1.07322 -8.66701 L 1.12328 -8.59622 L 1.1733 -8.52504 L 1.22326 -8.45345 L 1.27316 -8.38145 L 1.323 -8.30903 L 1.37277 -8.23618 L 1.42247 -8.16289 L 1.47208 -8.08914 L 1.52162 -8.01494 L 1.57106 -7.94027 L 1.62041 -7.86511 L 1.66966 -7.78947 L 1.7188 -7.71332 L 1.76782 -7.63665 L 1.81672 -7.55946 L 1.8655 -7.48173 L 1.91413 -7.40346 L 1.96262 -7.32462 L 1.96262 -7.32462 L 2.04404 -7.36865 L 2.1253 -7.41212 L 2.2064 -7.45505 L 2.28735 -7.49745 L 2.36814 -7.53933 L 2.44877 -7.5807 L 2.52924 -7.62159 L 2.60956 -7.662 L 2.68971 -7.70195 L 2.76971 -7.74145 L 2.84955 -7.7805 L 2.92924 -7.81913 L 3.00876 -7.85733 L 3.08813 -7.89513 L 3.16735 -7.93254 L 3.24641 -7.96955 L 3.32532 -8.00619 L 3.40407 -8.04245 L 3.48267 -8.07836 L 3.56112 -8.11392 L 3.63942 -8.14914 L 3.71757 -8.18402 L 3.79558 -8.21857 L 3.87343 -8.25281 L 3.95114 -8.28674 L 4.02871 -8.32036 L 4.10613 -8.35369 L 4.18341 -8.38673 L 4.26055 -8.41948 L 4.32853 -8.45658 L 4.38531 -8.42728 L 4.4419 -8.39759 L 4.49828 -8.36752 L 4.55446 -8.33708 L 4.61044 -8.30625 L 4.6662 -8.27506 L 4.83331 -8.17858 L 4.88821 -8.14588 L 4.94289 -8.11282 L 4.99735 -8.07939 L 5.05158 -8.04559 L 5.10558 -8.01143 L 5.15935 -7.97691 L 5.16121 -7.89949 L 5.17141 -7.81631 L 5.18144 -7.73286 L 5.19129 -7.64915 L 5.20095 -7.56516 L 5.21043 -7.4809 L 5.21971 -7.39635 L 5.22878 -7.31152 L 5.23765 -7.2264 L 5.2463 -7.14098 L 5.25473 -7.05526 L 5.26293 -6.96924 L 5.2709 -6.8829 L 5.27863 -6.79625 L 5.2861 -6.70927 L 5.29332 -6.62197 L 5.30027 -6.53433 L 5.30694 -6.44636 L 5.31334 -6.35803 L 5.31943 -6.26936 L 5.32523 -6.18033 L 5.33071 -6.09094 L 5.33587 -6.00118 L 5.3407 -5.91105 L 5.34518 -5.82053 L 5.3493 -5.72962 L 5.35306 -5.63832 L 5.35644 -5.54662 L 5.35942 -5.45451 L 5.36199 -5.36199 L 5.36199 -5.36199 L 5.45451 -5.35942 L 5.54662 -5.35644 L 5.63832 -5.35306 L 5.72962 -5.3493 L 5.82053 -5.34518 L 5.91105 -5.3407 L 6.00118 -5.33587 L 6.09094 -5.33071 L 6.18033 -5.32523 L 6.26936 -5.31943 L 6.35803 -5.31334 L 6.44636 -5.30694 L 6.53433 -5.30027 L 6.62197 -5.29332 L 6.70927 -5.2861 L 6.79625 -5.27863 L 6.8829 -5.2709 L 6.96924 -5.26293 L 7.05526 -5.25473 L 7.14098 -5.2463 L 7.2264 -5.23765 L 7.31152 -5.22878 L 7.39635 -5.21971 L 7.4809 -5.21043 L 7.56516 -5.20095 L 7.64915 -5.19129 L 7.73286 -5.18144 L 7.81631 -5.17141 L 7.89949 -5.16121 L 7.97691 -5.15935 L 8.01143 -5.10558 L 8.04559 -5.05158 L 8.07939 -4.99735 L 8.11282 -4.94289 L 8.14588 -4.88821 L 8.17858 -4.83331 L 8.27506 -4.6662 L 8.30625 -4.61044 L 8.33708 -4.55446 L 8.36752 -4.49828 L 8.39759 -4.4419 L 8.42728 -4.38531 L 8.45658 -4.32853 L 8.41948 -4.26055 L 8.38673 -4.18341 L 8.35369 -4.10613 L 8.32036 -4.02871 L 8.28674 -3.95114 L 8.25281 -3.87343 L 8.21857 -3.79558 L 8.18402 -3.71757 L 8.14914 -3.63942 L 8.11392 -3.56112 L 8.07836 -3.48267 L 8.04245 -3.40407 L 8.00619 -3.32532 L 7.96955 -3.24641 L 7.93254 -3.16735 L 7.89513 -3.08813 L 7.85733 -3.00876 L 7.81913 -2.92924 L 7.7805 -2.84955 L 7.74145 -2.76971 L 7.70195 -2.68971 L 7.662 -2.60956 L 7.62159 -2.52924 L 7.5807 -2.44877 L 7.53933 -2.36814 L 7.49745 -2.28735 L 7.45505 -2.2064 L 7.41212 -2.1253 L 7.36865 -2.04404 L 7.32462 -1.96262 L 7.32462 -1.96262 L 7.40346 -1.91413 L 7.48173 -1.8655 L 7.55946 -1.81672 L 7.63665 -1.76782 L 7.71332 -1.7188 L 7.78947 -1.66966 L 7.86511 -1.62041 L 7.94027 -1.57106 L 8.01494 -1.52162 L 8.08914 -1.47208 L 8.16289 -1.42247 L 8.23618 -1.37277 L 8.30903 -1.323 L 8.38145 -1.27316 L 8.45345 -1.22326 L 8.52504 -1.1733 L 8.59622 -1.12328 L 8.66701 -1.07322 L 8.7374 -1.0231 L 8.80742 -0.972937 L 8.87707 -0.922735 L 8.94636 -0.872495 L 9.01528 -0.82222 L 9.08386 -0.771913 L 9.1521 -0.721578 L 9.22 -0.671215 L 9.28757 -0.620829 L 9.35483 -0.570422 L 9.42176 -0.519995 L 9.48788 -0.479674 L 9.49089 -0.415845 L 9.49348 -0.351998 L 9.49563 -0.288134 L 9.49735 -0.224257 L 9.49865 -0.160371 L 9.49951 -0.0964766Z"
id="path1" />
</g>
</svg>
