<?xml version="1.0" encoding="UTF-8" standalone="no"?>
<svg version="1.1">
<g
style="fill:none;stroke:#000000;stroke-opacity:1;stroke-width:0.1">
<path d="M 9.74963 0.0846514 L 9.74884 0.150517 L 9.7476 0.216377 L 9.74591 0.282226 L 9.74379 0.348062 L 9.74121 0.413883 L 9.73819 0.479685 L 9.67019 0.519435 L 9.6014 0.569294 L 9.5323 0.619134 L 9.4629 0.668955 L 9.39319 0.718754 L 9.32315 0.768528 L 9.25279 0.818275 L 9.1821 0.867993 L 9.11106 0.917679 L 9.03968 0.967329 L 8.96794 1.01694 L 8.89584 1.06651 L 8.82338 1.11604 L 8.75053 1.16552 L 8.67729 1.21495 L 8.60366 1.26432 L 8.52963 1.31363 L 8.45519 1.36288 L 8.38032 1.41206 L 8.30502 1.46117 L 8.22928 1.5102 L 8.1531 1.55915 L 8.07645 1.60801 L 7.99933 1.65678 L 7.92172 1.70545 L 7.84363 1.75401 L 7.76503 1.80246 L 7.68592 1.85079 L 7.60627 1.89899 L 7.52609 1.94705 L 7.44536 1.99498 L 7.44536 1.99498 L 7.49131 2.07685 L 7.53672 2.15857 L 7.58159 2.24013 L 7.62594 2.32154 L 7.66979 2.4028 L 7.71314 2.4839 L 7.75601 2.56485 L 7.79841 2.64564 L 7.84036 2.72628 L 7.88187 2.80677 L 7.92295 2.8871 L 7.9636 2.96728 L 8.00385 3.0473 L 8.04369 3.12718 L 8.08315 3.2069 L 8.12223 3.28647 L 8.16094 3.36589 L 8.19929 3.44517 L 8.23728 3.52429 L 8.27494 3.60327 L 8.31226 3.68211 L 8.34925 3.7608 L 8.38593 3.83934 L 8.42229 3.91775 L 8.45835 3.99601 L 8.49411 4.07413 L 8.52959 4.15212 L 8.56478 4.22996 L 8.5997 4.30767 L 8.63435 4.38525 L 8.67336 4.45368 L 8.64308 4.51217 L 8.6124 4.57046 L 8.58132 4.62854 L 8.54986 4.68641 L 8.518 4.74407 L 8.48576 4.80151 L 8.4011 4.94813 L 8.36748 5.00477 L 8.33348 5.06119 L 8.2991 5.11737 L 8.26433 5.17332 L 8.2292 5.22904 L 8.19368 5.28452 L 8.11491 5.28494 L 8.03041 5.29372 L 7.94565 5.30234 L 7.86063 5.31078 L 7.77536 5.31905 L 7.68982 5.32714 L 7.60401 5.33504 L 7.51793 5.34275 L 7.43157 5.35026 L 7.34493 5.35757 L 7.258 5.36467 L 7.17077 5.37155 L 7.08325 5.37821 L 6.99542 5.38463 L 6.90728 5.39082 L 6.81883 5.39677 L 6.73006 5.40246 L 6.64096 5.40788 L 6.55154 5.41304 L 6.46177 5.41792 L 6.37167 5.42252 L 6.28121 5.42681 L 6.1904 5.4308 L 6.09923 5.43448 L 6.00769 5.43782 L 5.91578 5.44083 L 5.82349 5.44349 L 5.73081 5.44579 L 5.63773 5.44771 L 5.54426 5.44924 L 5.45038 5.45038 L 5.45038 5.45038 L 5.44924 5.54426 L 5.44771 5.63773 L 5.44579 5.73081 L 5.44349 5.82349 L 5.44083 5.91578 L 5.43782 6.00769 L 5.43448 6.09923 L 5.4308 6.1904 L 5.42681 6.28121 L 5.42252 6.37167 L 5.41792 6.46177 L 5.41304 6.55154 L 5.40788 6.64096 L 5.40246 6.73006 L 5.39677 6.81883 L 5.39082 6.90728 L 5.38463 6.99542 L 5.37821 7.08325 L 5.37155 7.17077 L 5.36467 7.258 L 5.35757 7.34493 L 5.35026 7.43157 L 5.34275 7.51793 L 5.33504 7.60401 L 5.32714 7.68982 L 5.31905 7.77536 L 5.31078 7.86063 L 5.30234 7.94565 L 5.29372 8.03041 L 5.28494 8.11491 L 5.28452 8.19368 L 5.22904 8.2292 L 5.17332 8.26433 L 5.11737 8.2991 L 5.06119 8.33348 L 5.00477 8.36748 L 4.94813 8.4011 L 4.80151 8.48576 L 4.74407 8.518 L 4.68641 8.54986 L 4.62854 8.58132 L 4.57046 8.6124 L 4.51217 8.64308 L 4.45368 8.67336 L 4.38525 8.63435 L 4.30767 8.5997 L 4.22996 8.56478 L 4.15212 8.52959 L 4.07413 8.49411 L 3.99601 8.45835 L 3.91775 8.42229 L 3.83934 8.38593 L 3.7608 8.34925 L 3.68211 8.31226 L 3.60327 8.27494 L 3.52429 8.23728 L 3.44517 8.19929 L 3.36589 8.16094 L 3.28647 8.12223 L 3.2069 8.08315 L 3.12718 8.04369 L 3.0473 8.00385 L 2.96728 7.9636 L 2.8871 7.92295 L 2.80677 7.88187 L 2.72628 7.84036 L 2.64564 7.79841 L 2.56485 7.75601 L 2.4839 7.71314 L 2.4028 7.66979 L 2.32154 7.62594 L 2.24013 7.58159 L 2.15857 7.53672 L 2.07685 7.49131 L 1.99498 7.44536 L 1.99498 7.44536 L 1.94705 7.52609 L 1.89899 7.60627 L 1.85079 7.68592 L 1.80246 7.76503 L 1.75401 7.84363 L 1.70545 7.92172 L 1.65678 7.99933 L 1.60801 8.07645 L 1.55915 8.1531 L 1.5102 8.22928 L 1.46117 8.30502 L 1.41206 8.38032 L 1.36288 8.45519 L 1.31363 8.52963 L 1.26432 8.60366 L 1.21495 8.67729 L 1.16552 8.75053 L 1.11604 8.82338 L 1.06651 8.89584 L 1.01694 8.96794 L 0.967329 9.03968 L 0.917679 9.11106 L 0.867993 9.1821 L 0.818275 9.25279 L 0.768528 9.32315 L 0.718754 9.39319 L 0.668955 9.4629 L 0.619134 9.5323 L 0.569294 9.6014 L 0.519435 9.67019 L 0.479685 9.73819 L 0.413883 9.74121 L 0.348062 9.74379 L 0.282226 9.74591 L 0.216377 9.7476 L 0.150517 9.74884 L 0.0846514 9.74963 L -0.0846514 9.74963 L -0.150517 9.74884 L -0.216377 9.7476 L -0.282226 9.74591 L -0.348062 9.74379 L -0.413883 9.74121 L -0.479685 9.73819 L -0.519435 9.67019 L -0.569294 9.6014 L -0.619134 9.5323 L -0.668955 9.4629 L -0.718754 9.39319 L -0.768528 9.32315 L -0.818275 9.25279 L -0.867993 9.1821 L -0.917679 9.11106 L -0.967329 9.03968 L -1.01694 8.96794 L -1.06651 8.89584 L -1.11604 8.82338 L -1.16552 8.75053 L -1.21495 8.67729 L -1.26432 8.60366 L -1.31363 8.52963 L -1.36288 8.45519 L -1.41206 8.38032 L -1.46117 8.30502 L -1.5102 8.22928 L -1.55915 8.1531 L -1.60801 8.07645 L -1.65678 7.99933 L -1.70545 7.92172 L -1.75401 7.84363 L -1.80246 7.76503 L -1.85079 7.68592 L -1.89899 7.60627 L -1.94705 7.52609 L -1.99498 7.44536 L -1.99498 7.44536 L -2.07685 7.49131 L -2.15857 7.53672 L -2.24013 7.58159 L -2.32154 7.62594 L -2.4028 7.66979 L -2.4839 7.71314 L -2.56485 7.75601 L -2.64564 7.79841 L -2.72628 7.84036 L -2.80677 7.88187 L -2.8871 7.92295 L -2.96728 7.9636 L -3.0473 8.00385 L -3.12718 8.04369 L -3.2069 8.08315 L -3.28647 8.12223 L -3.36589 8.16094 L -3.44517 8.19929 L -3.52429 8.23728 L -3.60327 8.27494 L -3.68211 8.31226 L -3.7608 8.34925 L -3.83934 8.38593 L -3.91775 8.42229 L -3.99601 8.45835 L -4.07413 8.49411 L -4.15212 8.52959 L -4.22996 8.56478 L -4.30767 8.5997 L -4.38525 8.63435 L -4.45368 8.67336 L -4.51217 8.64308 L -4.57046 8.6124 L -4.62854 8.58132 L -4.68641 8.54986 L -4.74407 8.518 L -4.80151 8.48576 L -4.94813 8.4011 L -5.00477 8.36748 L -5.06119 8.33348 L -5.11737 8.2991 L -5.17332 8.26433 L -5.22904 8.2292 L -5.28452 8.19368 L -5.28494 8.11491 L -5.29372 8.03041 L -5.30234 7.94565 L -5.31078 7.86063 L -5.31905 7.77536 L -5.32714 7.68982 L -5.33504 7.60401 L -5.34275 7.51793 L -5.35026 7.43157 L -5.35757 7.34493 L -5.36467 7.258 L -5.37155 7.17077 L -5.37821 7.08325 L -5.38463 6.99542 L -5.39082 6.90728 L -5.39677 6.81883 L -5.40246 6.73006 L -5.40788 6.64096 L -5.41304 6.55154 L -5.41792 6.46177 L -5.42252 6.37167 L -5.42681 6.28121 L -5.4308 6.1904 L -5.43448 6.09923 L -5.43782 6.00769 L -5.44083 5.91578 L -5.44349 5.82349 L -5.44579 5.73081 L -5.44771 5.63773 L -5.44924 5.54426 L -5.45038 5.45038 L -5.45038 5.45038 L -5.54426 5.44924 L -5.63773 5.44771 L -5.73081 5.44579 L -5.82349 5.44349 L -5.91578 5.44083 L -6.00769 5.43782 L -6.09923 5.43448 L -6.1904 5.4308 L -6.28121 5.42681 L -6.37167 5.42252 L -6.46177 5.41792 L -6.55154 5.41304 L -6.64096 5.40788 L -6.73006 5.40246 L -6.81883 5.39677 L -6.90728 5.39082 L -6.99542 5.38463 L -7.08325 5.37821 L -7.17077 5.37155 L -7.258 5.36467 L -7.34493 5.35757 L -7.43157 5.35026 L -7.51793 5.34275 L -7.60401 5.33504 L -7.68982 5.32714 L -7.77536 5.31905 L -7.86063 5.31078 L -7.94565 5.30234 L -8.03041 5.29372 L -8.11491 5.28494 L -8.19368 5.28452 L -8.2292 5.22904 L -8.26433 5.17332 L -8.2991 5.11737 L -8.33348 5.06119 L -8.36748 5.00477 L -8.4011 4.94813 L -8.48576 4.80151 L -8.518 4.74407 L -8.54986 4.68641 L -8.58132 4.62854 L -8.6124 4.57046 L -8.64308 4.51217 L -8.67336 4.45368 L -8.63435 4.38525 L -8.5997 4.30767 L -8.56478 4.22996 L -8.52959 4.15212 L -8.49411 4.07413 L -8.45835 3.99601 L -8.42229 3.91775 L -8.38593 3.83934 L -8.34925 3.7608 L -8.31226 3.68211 L -8.27494 3.60327 L -8.23728 3.52429 L -8.19929 3.44517 L -8.16094 3.36589 L -8.12223 3.28647 L -8.08315 3.2069 L -8.04369 3.12718 L -8.00385 3.0473 L -7.9636 2.96728 L -7.92295 2.8871 L -7.88187 2.80677 L -7.84036 2.72628 L -7.79841 2.64564 L -7.75601 2.56485 L -7.71314 2.4839 L -7.66979 2.4028 L -7.62594 2.32154 L -7.58159 2.24013 L -7.53672 2.15857 L -7.49131 2.07685 L -7.44536 1.99498 L -7.44536 1.99498 L -7.52609 1.94705 L -7.60627 1.89899 L -7.68592 1.85079 L -7.76503 1.80246 L -7.84363 1.75401 L -7.92172 1.70545 L -7.99933 1.65678 L -8.07645 1.60801 L -8.1531 1.55915 L -8.22928 1.5102 L -8.30502 1.46117 L -8.38032 1.41206 L -8.45519 1.36288 L -8.52963 1.31363 L -8.60366 1.26432 L -8.67729 1.21495 L -8.75053 1.16552 L -8.82338 1.11604 L -8.89584 1.06651 L -8.96794 1.01694 L -9.03968 0.967329 L -9.11106 0.917679 L -9.1821 0.867993 L -9.25279 0.818275 L -9.32315 0.768528 L -9.39319 0.718754 L -9.4629 0.668955 L -9.5323 0.619134 L -9.6014 0.569294 L -9.67019 0.519435 L -9.73819 0.479685 L -9.74121 0.413883 L -9.74379 0.348062 L -9.74591 0.282226 L -9.7476 0.216377 L -9.74884 0.150517 L -9.74963 0.0846514 L -9.74963 -0.0846514 L -9.74884 -0.150517 L -9.7476 -0.216377 L -9.74591 -0.282226 L -9.74379 -0.348062 L -9.74121 -0.413883 L -9.73819 -0.479685 L -9.67019 -0.519435 L -9.6014 -0.569294 L -9.5323 -0.619134 L -9.4629 -0.668955 L -9.39319 -0.718754 L -9.32315 -0.768528 L -9.25279 -0.818275 L -9.1821 -0.867993 L -9.11106 -0.917679 L -9.03968 -0.967329 L -8.96794 -1.01694 L -8.89584 -1.06651 L -8.82338 -1.11604 L -8.75053 -1.16552 L -8.67729 -1.21495 L -8.60366 -1.26432 L -8.52963 -1.31363 L -8.45519 -1.36288 L -8.38032 -1.41206 L -8.30502 -1.46117 L -8.22928 -1.5102 L -8.1531 -1.55915 L -8.07645 -1.60801 L -7.99933 -1.65678 L -7.92172 -1.70545 L -7.84363 -1.75401 L -7.76503 -1.80246 L -7.68592 -1.85079 L -7.60627 -1.89899 L -7.52609 -1.94705 L -7.44536 -1.99498 L -7.44536 -1.99498 L -7.49131 -2.07685 L -7.53672 -2.15857 L -7.58159 -2.24013 L -7.62594 -2.32154 L -7.66979 -2.4028 L -7.71314 -2.4839 L -7.75601 -2.56485 L -7.79841 -2.64564 L -7.84036 -2.72628 L -7.88187 -2.80677 L -7.92295 -2.8871 L -7.9636 -2.96728 L -8.00385 -3.0473 L -8.04369 -3.12718 L -8.08315 -3.2069 L -8.12223 -3.28647 L -8.16094 -3.36589 L -8.19929 -3.44517 L -8.23728 -3.52429 L -8.27494 -3.60327 L -8.31226 -3.68211 L -8.34925 -3.7608 L -8.38593 -3.83934 L -8.42229 -3.91775 L -8.45835 -3.99601 L -8.49411 -4.07413 L -8.52959 -4.15212 L -8.56478 -4.22996 L -8.5997 -4.30767 L -8.63435 -4.38525 L -8.67336 -4.45368 L -8.64308 -4.51217 L -8.6124 -4.57046 L -8.58132 -4.62854 L -8.54986 -4.68641 L -8.518 -4.74407 L -8.48576 -4.80151 L -8.4011 -4.94813 L -8.36748 -5.00477 L -8.33348 -5.06119 L -8.2991 -5.11737 L -8.26433 -5.17332 L -8.2292 -5.22904 L -8.19368 -5.28452 L -8.11491 -5.28494 L -8.03041 -5.29372 L -7.94565 -5.30234 L -7.86063 -5.31078 L -7.77536 -5.31905 L -7.68982 -5.32714 L -7.60401 -5.33504 L -7.51793 -5.34275 L -7.43157 -5.35026 L -7.34493 -5.35757 L -7.258 -5.36467 L -7.17077 -5.37155 L -7.08325 -5.37821 L -6.99542 -5.38463 L -6.90728 -5.39082 L -6.81883 -5.39677 L -6.73006 -5.40246 L -6.64096 -5.40788 L -6.55154 -5.41304 L -6.46177 -5.41792 L -6.37167 -5.42252 L -6.28121 -5.42681 L -6.1904 -5.4308 L -6.09923 -5.43448 L -6.00769 -5.43782 L -5.91578 -5.44083 L -5.82349 -5.44349 L -5.73081 -5.44579 L -5.63773 -5.44771 L -5.54426 -5.44924 L -5.45038 -5.45038 L -5.45038 -5.45038 L -5.44924 -5.54426 L -5.44771 -5.63773 L -5.44579 -5.73081 L -5.44349 -5.82349 L -5.44083 -5.91578 L -5.43782 -6.00769 L -5.43448 -6.09923 L -5.4308 -6.1904 L -5.42681 -6.28121 L -5.42252 -6.37167 L -5.41792 -6.46177 L -5.41304 -6.55154 L -5.40788 -6.64096 L -5.40246 -6.73006 L -5.39677 -6.81883 L -5.39082 -6.90728 L -5.38463 -6.99542 L -5.37821 -7.08325 L -5.37155 -7.17077 L -5.36467 -7.258 L -5.35757 -7.34493 L -5.35026 -7.43157 L -5.34275 -7.51793 L -5.33504 -7.60401 L -5.32714 -7.68982 L -5.31905 -7.77536 L -5.31078 -7.86063 L -5.30234 -7.94565 L -5.29372 -8.03041 L -5.28494 -8.11491 L -5.28452 -8.19368 L -5.22904 -8.2292 L -5.17332 -8.26433 L -5.11737 -8.2991 L -5.06119 -8.33348 L -5.00477 -8.36748 L -4.94813 -8.4011 L -4.80151 -8.48576 L -4.74407 -8.518 L -4.68641 -8.54986 L -4.62854 -8.58132 L -4.57046 -8.6124 L -4.51217 -8.64308 L -4.45368 -8.67336 L -4.38525 -8.63435 L -4.30767 -8.5997 L -4.22996 -8.56478 L -4.15212 -8.52959 L -4.07413 -8.49411 L -3.99601 -8.45835 L -3.91775 -8.42229 L -3.83934 -8.38593 L -3.7608 -8.34925 L -3.68211 -8.31226 L -3.60327 -8.27494 L -3.52429 -8.23728 L -3.44517 -8.19929 L -3.36589 -8.16094 L -3.28647 -8.12223 L -3.2069 -8.08315 L -3.12718 -8.04369 L -3.0473 -8.00385 L -2.96728 -7.9636 L -2.8871 -7.92295 L -2.80677 -7.88187 L -2.72628 -7.84036 L -2.64564 -7.79841 L -2.56485 -7.75601 L -2.4839 -7.71314 L -2.4028 -7.66979 L -2.32154 -7.62594 L -2.24013 -7.58159 L -2.15857 -7.53672 L -2.07685 -7.49131 L -1.99498 -7.44536 L -1.99498 -7.44536 L -1.94705 -7.52609 L -1.89899 -7.60627 L -1.85079 -7.68592 L -1.80246 -7.76503 L -1.75401 -7.84363 L -1.70545 -7.92172 L -1.65678 -7.99933 L -1.60801 -8.07645 L -1.55915 -8.1531 L -1.5102 -8.22928 L -1.46117 -8.30502 L -1.41206 -8.38032 L -1.36288 -8.45519 L -1.31363 -8.52963 L -1.26432 -8.60366 L -1.21495 -8.67729 L -1.16552 -8.75053 L -1.11604 -8.82338 L -1.06651 -8.89584 L -1.01694 -8.96794 L -0.967329 -9.03968 L -0.917679 -9.11106 L -0.867993 -9.1821 L -0.818275 -9.25279 L -0.768528 -9.32315 L -0.718754 -9.39319 L -0.668955 -9.4629 L -0.619134 -9.5323 L -0.569294 -9.6014 L -0.519435 -9.67019 L -0.479685 -9.73819 L -0.413883 -9.74121 L -0.348062 -9.74379 L -0.282226 -9.74591 L -0.216377 -9.7476 L -0.150517 -9.74884 L -0.0846514 -9.74963 L 0.0846514 -9.74963 L 0.150517 -9.74884 L 0.216377 -9.7476 L 0.282226 -9.74591 L 0.348062 -9.74379 L 0.413883 -9.74121 L 0.479685 -9.73819 L 0.519435 -9.67019 L 0.569294 -9.6014 L 0.619134 -9.5323 L 0.668955 -9.4629 L 0.718754 -9.39319 L 0.768528 -9.32315 L 0.818275 -9.25279 L 0.867993 -9.1821 L 0.917679 -9.11106 L 0.967329 -9.03968 L 1.01694 -8.96794 L 1.06651 -8.89584 L 1.11604 -8.82338 L 1.16552 -8.75053 L 1.21495 -8.67729 L 1.26432 -8.60366 L 1.31363 -8.52963 L 1.36288 -8.45519 L 1.41206 -8.38032 L 1.46117 -8.30502 L 1.5102 -8.22928 L 1.55915 -8.1531 L 1.60801 -8.07645 L 1.65678 -7.99933 L 1.70545 -7.92172 L 1.75401 -7.84363 L 1.80246 -7.76503 L 1.85079 -7.68592 L 1.89899 -7.60627 L 1.94705 -7.52609 L 1.99498 -7.44536 L 1.99498 -7.44536 L 2.07685 -7.49131 L 2.15857 -7.53672 L 2.24013 -7.58159 L 2.32154 -7.62594 L 2.4028 -7.66979 L 2.4839 -7.71314 L 2.56485 -7.75601 L 2.64564 -7.79841 L 2.72628 -7.84036 L 2.80677 -7.88187 L 2.8871 -7.92295 L 2.96728 -7.9636 L 3.0473 -8.00385 L 3.12718 -8.04369 L 3.2069 -8.08315 L 3.28647 -8.12223 L 3.36589 -8.16094 L 3.44517 -8.19929 L 3.52429 -8.23728 L 3.60327 -8.27494 L 3.68211 -8.31226 L 3.7608 -8.34925 L 3.83934 -8.38593 L 3.91775 -8.42229 L 3.99601 -8.45835 L 4.07413 -8.49411 L 4.15212 -8.52959 L 4.22996 -8.56478 L 4.30767 -8.5997 L 4.38525 -8.63435 L 4.45368 -8.67336 L 4.51217 -8.64308 L 4.57046 -8.6124 L 4.62854 -8.58132 L 4.68641 -8.54986 L 4.74407 -8.518 L 4.80151 -8.48576 L 4.94813 -8.4011 L 5.00477 -8.36748 L 5.06119 -8.33348 L 5.11737 -8.2991 L 5.17332 -8.26433 L 5.22904 -8.2292 L 5.28452 -8.19368 L 5.28494 -8.11491 L 5.29372 -8.03041 L 5.30234 -7.94565 L 5.31078 -7.86063 L 5.31905 -7.77536 L 5.32714 -7.68982 L 5.33504 -7.60401 L 5.34275 -7.51793 L 5.35026 -7.43157 L 5.35757 -7.34493 L 5.36467 -7.258 L 5.37155 -7.17077 L 5.37821 -7.08325 L 5.38463 -6.99542 L 5.39082 -6.90728 L 5.39677 -6.81883 L 5.40246 -6.73006 L 5.40788 -6.64096 L 5.41304 -6.55154 L 5.41792 -6.46177 L 5.42252 -6.37167 L 5.42681 -6.28121 L 5.4308 -6.1904 L 5.43448 -6.09923 L 5.43782 -6.00769 L 5.44083 -5.91578 L 5.44349 -5.82349 L 5.44579 -5.73081 L 5.44771 -5.63773 L 5.44924 -5.54426 L 5.45038 -5.45038 L 5.45038 -5.45038 L 5.54426 -5.44924 L 5.63773 -5.44771 L 5.73081 -5.44579 L 5.82349 -5.44349 L 5.91578 -5.44083 L 6.00769 -5.43782 L 6.09923 -5.43448 L 6.1904 -5.4308 L 6.28121 -5.42681 L 6.37167 -5.42252 L 6.46177 -5.41792 L 6.55154 -5.41304 L 6.64096 -5.40788 L 6.73006 -5.40246 L 6.81883 -5.39677 L 6.90728 -5.39082 L 6.99542 -5.38463 L 7.08325 -5.37821 L 7.17077 -5.37155 L 7.258 -5.36467 L 7.34493 -5.35757 L 7.43157 -5.35026 L 7.51793 -5.34275 L 7.60401 -5.33504 L 7.68982 -5.32714 L 7.77536 -5.31905 L 7.86063 -5.31078 L 7.94565 -5.30234 L 8.03041 -5.29372 L 8.11491 -5.28494 L 8.19368 -5.28452 L 8.2292 -5.22904 L 8.26433 -5.17332 L 8.2991 -5.11737 L 8.33348 -5.06119 L 8.36748 -5.00477 L 8.4011 -4.94813 L 8.48576 -4.80151 L 8.518 -4.74407 L 8.54986 -4.68641 L 8.58132 -4.62854 L 8.6124 -4.57046 L 8.64308 -4.51217 L 8.67336 -4.45368 L 8.63435 -4.38525 L 8.5997 -4.30767 L 8.56478 -4.22996 L 8.52959 -4.15212 L 8.49411 -4.07413 L 8.45835 -3.99601 L 8.42229 -3.91775 L 8.38593 -3.83934 L 8.34925 -3.7608 L 8.31226 -3.68211 L 8.27494 -3.60327 L 8.23728 -3.52429 L 8.19929 -3.44517 L 8.16094 -3.36589 L 8.12223 -3.28647 L 8.08315 -3.2069 L 8.04369 -3.12718 L 8.00385 -3.0473 L 7.9636 -2.96728 L 7.92295 -2.8871 L 7.88187 -2.80677 L 7.84036 -2.72628 L 7.79841 -2.64564 L 7.75601 -2.56485 L 7.71314 -2.4839 L 7.66979 -2.4028 L 7.62594 -2.32154 L 7.58159 -2.24013 L 7.53672 -2.15857 L 7.49131 -2.07685 L 7.44536 -1.99498 L 7.44536 -1.99498 L 7.52609 -1.94705 L 7.60627 -1.89899 L 7.68592 -1.85079 L 7.76503 -1.80246 L 7.84363 -1.75401 L 7.92172 -1.70545 L 7.99933 -1.65678 L 8.07645 -1.60801 L 8.1531 -1.55915 L 8.22928 -1.5102 L 8.30502 -1.46117 L 8.38032 -1.41206 L 8.45519 -1.36288 L 8.52963 -1.31363 L 8.60366 -1.26432 L 8.67729 -1.21495 L 8.75053 -1.16552 L 8.82338 -1.11604 L 8.89584 -1.06651 L 8.96794 -1.01694 L 9.03968 -0.967329 L 9.11106 -0.917679 L 9.1821 -0.867993 L 9.25279 -0.818275 L 9.32315 -0.768528 L 9.39319 -0.718754 L 9.4629 -0.668955 L 9.5323 -0.619134 L 9.6014 -0.569294 L 9.67019 -0.519435 L 9.73819 -0.479685 L 9.74121 -0.413883 L 9.74379 -0.348062 L 9.74591 -0.282226 L 9.7476 -0.216377 L 9.74884 -0.150517 L 9.74963 -0.0846514Z"
id="path1" />
</g>
</svg>
