<?xml version="1.0" encoding="UTF-8" standalone="no"?>
<svg version="1.1">
<g
style="fill:none;stroke:#000000;stroke-opacity:1;stroke-width:0.1">
<path d="M 10.2491 0.132602 L 10.248 0.202047 L 10.2464 0.271483 L 10.2443 0.340906 L 10.2418 0.410314 L 10.2388 0.479703 L 10.1673 0.518417 L 10.0952 0.567242 L 10.0227 0.616051 L 9.94999 0.664843 L 9.87698 0.713617 L 9.80368 0.762369 L 9.73007 0.811097 L 9.65616 0.859801 L 9.58194 0.908476 L 9.5074 0.957121 L 9.43253 1.00573 L 9.35734 1.05431 L 9.2818 1.10285 L 9.20592 1.15135 L 9.12968 1.1998 L 9.05308 1.24821 L 8.97611 1.29656 L 8.89877 1.34486 L 8.82103 1.3931 L 8.74291 1.44128 L 8.66437 1.4894 L 8.58543 1.53744 L 8.50606 1.5854 L 8.42626 1.63329 L 8.34601 1.68109 L 8.26532 1.7288 L 8.18416 1.77641 L 8.10252 1.82392 L 8.0204 1.87132 L 7.93779 1.9186 L 7.85466 1.96576 L 7.77102 2.01279 L 7.68684 2.05968 L 7.68684 2.05968 L 7.73629 2.14238 L 7.78522 2.22493 L 7.83363 2.30734 L 7.88153 2.38959 L 7.92895 2.4717 L 7.97589 2.55366 L 8.02237 2.63548 L 8.0684 2.71714 L 8.114 2.79866 L 8.15917 2.88003 L 8.20392 2.96125 L 8.24827 3.04233 L 8.29222 3.12326 L 8.33579 3.20405 L 8.37899 3.2847 L 8.42182 3.3652 L 8.4643 3.44556 L 8.50644 3.52578 L 8.54823 3.60586 L 8.5897 3.6858 L 8.63085 3.76561 L 8.67168 3.84528 L 8.71221 3.92481 L 8.75244 4.00421 L 8.79238 4.08347 L 8.83204 4.1626 L 8.87142 4.24161 L 8.91052 4.32048 L 8.94937 4.39923 L 8.98796 4.47784 L 9.02629 4.55634 L 9.06438 4.63471 L 9.10689 4.70395 L 9.0748 4.76555 L 9.0423 4.82693 L 9.00939 4.88809 L 8.97606 4.94903 L 8.94232 5.00973 L 8.80972 5.23941 L 8.77401 5.29898 L 8.7379 5.35831 L 8.7014 5.4174 L 8.66449 5.47623 L 8.62718 5.53482 L 8.54596 5.53263 L 8.45905 5.53883 L 8.37191 5.54488 L 8.28453 5.55077 L 8.19691 5.5565 L 8.10905 5.56207 L 8.02094 5.56747 L 7.93258 5.57269 L 7.84396 5.57773 L 7.75509 5.58259 L 7.66595 5.58726 L 7.57654 5.59173 L 7.48685 5.596 L 7.39689 5.60006 L 7.30664 5.6039 L 7.2161 5.60752 L 7.12526 5.61091 L 7.03413 5.61407 L 6.94269 5.61698 L 6.85094 5.61964 L 6.75887 5.62204 L 6.66648 5.62417 L 6.57376 5.62603 L 6.48071 5.6276 L 6.38732 5.62887 L 6.29358 5.62984 L 6.19948 5.63049 L 6.10503 5.63082 L 6.01021 5.63081 L 5.91503 5.63045 L 5.81946 5.62973 L 5.7235 5.62864 L 5.62716 5.62716 L 5.62716 5.62716 L 5.62864 5.7235 L 5.62973 5.81946 L 5.63045 5.91503 L 5.63081 6.01021 L 5.63082 6.10503 L 5.63049 6.19948 L 5.62984 6.29358 L 5.62887 6.38732 L 5.6276 6.48071 L 5.62603 6.57376 L 5.62417 6.66648 L 5.62204 6.75887 L 5.61964 6.85094 L 5.61698 6.94269 L 5.61407 7.03413 L 5.61091 7.12526 L 5.60752 7.2161 L 5.6039 7.30664 L 5.60006 7.39689 L 5.596 7.48685 L 5.59173 7.57654 L 5.58726 7.66595 L 5.58259 7.75509 L 5.57773 7.84396 L 5.57269 7.93258 L 5.56747 8.02094 L 5.56207 8.10905 L 5.5565 8.19691 L 5.55077 8.28453 L 5.54488 8.37191 L 5.53883 8.45905 L 5.53263 8.54596 L 5.53482 8.62718 L 5.47623 8.66449 L 5.4174 8.7014 L 5.35831 8.7379 L 5.29898 8.77401 L 5.23941 8.80972 L 5.00973 8.94232 L 4.94903 8.97606 L 4.88809 9.00939 L 4.82693 9.0423 L 4.76555 9.0748 L 4.70395 9.10689 L 4.63471 9.06438 L 4.55634 9.02629 L 4.47784 8.98796 L 4.39923 8.94937 L 4.32048 8.91052 L 4.24161 8.87142 L 4.1626 8.83204 L 4.08347 8.79238 L 4.00421 8.75244 L 3.92481 8.71221 L 3.84528 8.67168 L 3.76561 8.63085 L 3.6858 8.5897 L 3.60586 8.54823 L 3.52578 8.50644 L 3.44556 8.4643 L 3.3652 8.42182 L 3.2847 8.37899 L 3.20405 8.33579 L 3.12326 8.29222 L 3.04233 8.24827 L 2.96125 8.20392 L 2.88003 8.15917 L 2.79866 8.114 L 2.71714 8.0684 L 2.63548 8.02237 L 2.55366 7.97589 L 2.4717 7.92895 L 2.38959 7.88153 L 2.30734 7.83363 L 2.22493 7.78522 L 2.14238 7.73629 L 2.05968 7.68684 L 2.05968 7.68684 L 2.01279 7.77102 L 1.96576 7.85466 L 1.9186 7.93779 L 1.87132 8.0204 L 1.82392 8.10252 L 1.77641 8.18416 L 1.7288 8.26532 L 1.68109 8.34601 L 1.63329 8.42626 L 1.5854 8.50606 L 1.53744 8.58543 L 1.4894 8.66437 L 1.44128 8.74291 L 1.3931 8.82103 L 1.34486 8.89877 L 1.29656 8.97611 L 1.24821 9.05308 L 1.1998 9.12968 L 1.15135 9.20592 L 1.10285 9.2818 L 1.05431 9.35734 L 1.00573 9.43253 L 0.957121 9.5074 L 0.908476 9.58194 L 0.859801 9.65616 L 0.811097 9.73007 L 0.762369 9.80368 L 0.713617 9.87698 L 0.664843 9.94999 L 0.616051 10.0227 L 0.567242 10.0952 L 0.518417 10.1673 L 0.479703 10.2388 L 0.410314 10.2418 L 0.340906 10.2443 L 0.271483 10.2464 L 0.202047 10.248 L 0.132602 10.2491 L -0.132602 10.2491 L -0.202047 10.248 L -0.271483 10.2464 L -0.340906 10.2443 L -0.410314 10.2418 L -0.479703 10.2388 L -0.518417 10.1673 L -0.567242 10.0952 L -0.616051 10.0227 L -0.664843 9.94999 L -0.713617 9.87698 L -0.762369 9.80368 L -0.811097 9.73007 L -0.859801 9.65616 L -0.908476 9.58194 L -0.957121 9.5074 L -1.00573 9.43253 L -1.05431 9.35734 L -1.10285 9.2818 L -1.15135 9.20592 L -1.1998 9.12968 L -1.24821 9.05308 L -1.29656 8.97611 L -1.34486 8.89877 L -1.3931 8.82103 L -1.44128 8.74291 L -1.4894 8.66437 L -1.53744 8.58543 L -1.5854 8.50606 L -1.63329 8.42626 L -1.68109 8.34601 L -1.7288 8.26532 L -1.77641 8.18416 L -1.82392 8.10252 L -1.87132 8.0204 L -1.9186 7.93779 L -1.96576 7.85466 L -2.01279 7.77102 L -2.05968 7.68684 L -2.05968 7.68684 L -2.14238 7.73629 L -2.22493 7.78522 L -2.30734 7.83363 L -2.38959 7.88153 L -2.4717 7.92895 L -2.55366 7.97589 L -2.63548 8.02237 L -2.71714 8.0684 L -2.79866 8.114 L -2.88003 8.15917 L -2.96125 8.20392 L -3.04233 8.24827 L -3.12326 8.29222 L -3.20405 8.33579 L -3.2847 8.37899 L -3.3652 8.42182 L -3.44556 8.4643 L -3.52578 8.50644 L -3.60586 8.54823 L -3.6858 8.5897 L -3.76561 8.63085 L -3.84528 8.67168 L -3.92481 8.71221 L -4.00421 8.75244 L -4.08347 8.79238 L -4.1626 8.83204 L -4.24161 8.87142 L -4.32048 8.91052 L -4.39923 8.94937 L -4.47784 8.98796 L -4.55634 9.02629 L -4.63471 9.06438 L -4.70395 9.10689 L -4.76555 9.0748 L -4.82693 9.0423 L -4.88809 9.00939 L -4.94903 8.97606 L -5.00973 8.94232 L -5.23941 8.80972 L -5.29898 8.77401 L -5.35831 8.7379 L -5.4174 8.7014 L -5.47623 8.66449 L -5.53482 8.62718 L -5.53263 8.54596 L -5.53883 8.45905 L -5.54488 8.37191 L -5.55077 8.28453 L -5.5565 8.19691 L -5.56207 8.10905 L -5.56747 8.02094 L -5.57269 7.93258 L -5.57773 7.84396 L -5.58259 7.75509 L -5.58726 7.66595 L -5.59173 7.57654 L -5.596 7.48685 L -5.60006 7.39689 L -5.6039 7.30664 L -5.60752 7.2161 L -5.61091 7.12526 L -5.61407 7.03413 L -5.61698 6.94269 L -5.61964 6.85094 L -5.62204 6.75887 L -5.62417 6.66648 L -5.62603 6.57376 L -5.6276 6.48071 L -5.62887 6.38732 L -5.62984 6.29358 L -5.63049 6.19948 L -5.63082 6.10503 L -5.63081 6.01021 L -5.63045 5.91503 L -5.62973 5.81946 L -5.62864 5.7235 L -5.62716 5.62716 L -5.62716 5.62716 L -5.7235 5.62864 L -5.81946 5.62973 L -5.91503 5.63045 L -6.01021 5.63081 L -6.10503 5.63082 L -6.19948 5.63049 L -6.29358 5.62984 L -6.38732 5.62887 L -6.48071 5.6276 L -6.57376 5.62603 L -6.66648 5.62417 L -6.75887 5.62204 L -6.85094 5.61964 L -6.94269 5.61698 L -7.03413 5.61407 L -7.12526 5.61091 L -7.2161 5.60752 L -7.30664 5.6039 L -7.39689 5.60006 L -7.48685 5.596 L -7.57654 5.59173 L -7.66595 5.58726 L -7.75509 5.58259 L -7.84396 5.57773 L -7.93258 5.57269 L -8.02094 5.56747 L -8.10905 5.56207 L -8.19691 5.5565 L -8.28453 5.55077 L -8.37191 5.54488 L -8.45905 5.53883 L -8.54596 5.53263 L -8.62718 5.53482 L -8.66449 5.47623 L -8.7014 5.4174 L -8.7379 5.35831 L -8.77401 5.29898 L -8.80972 5.23941 L -8.94232 5.00973 L -8.97606 4.94903 L -9.00939 4.88809 L -9.0423 4.82693 L -9.0748 4.76555 L -9.10689 4.70395 L -9.06438 4.63471 L -9.02629 4.55634 L -8.98796 4.47784 L -8.94937 4.39923 L -8.91052 4.32048 L -8.87142 4.24161 L -8.83204 4.1626 L -8.79238 4.08347 L -8.75244 4.00421 L -8.71221 3.92481 L -8.67168 3.84528 L -8.63085 3.76561 L -8.5897 3.6858 L -8.54823 3.60586 L -8.50644 3.52578 L -8.4643 3.44556 L -8.42182 3.3652 L -8.37899 3.2847 L -8.33579 3.20405 L -8.29222 3.12326 L -8.24827 3.04233 L -8.20392 2.96125 L -8.15917 2.88003 L -8.114 2.79866 L -8.0684 2.71714 L -8.02237 2.63548 L -7.97589 2.55366 L -7.92895 2.4717 L -7.88153 2.38959 L -7.83363 2.30734 L -7.78522 2.22493 L -7.73629 2.14238 L -7.68684 2.05968 L -7.68684 2.05968 L -7.77102 2.01279 L -7.85466 1.96576 L -7.93779 1.9186 L -8.0204 1.87132 L -8.10252 1.82392 L -8.18416 1.77641 L -8.26532 1.7288 L -8.34601 1.68109 L -8.42626 1.63329 L -8.50606 1.5854 L -8.58543 1.53744 L -8.66437 1.4894 L -8.74291 1.44128 L -8.82103 1.3931 L -8.89877 1.34486 L -8.97611 1.29656 L -9.05308 1.24821 L -9.12968 1.1998 L -9.20592 1.15135 L -9.2818 1.10285 L -9.35734 1.05431 L -9.43253 1.00573 L -9.5074 0.957121 L -9.58194 0.908476 L -9.65616 0.859801 L -9.73007 0.811097 L -9.80368 0.762369 L -9.87698 0.713617 L -9.94999 0.664843 L -10.0227 0.616051 L -10.0952 0.567242 L -10.1673 0.518417 L -10.2388 0.479703 L -10.2418 0.410314 L -10.2443 0.340906 L -10.2464 0.271483 L -10.248 0.202047 L -10.2491 0.132602 L -10.2491 -0.132602 L -10.248 -0.202047 L -10.2464 -0.271483 L -10.2443 -0.340906 L -10.2418 -0.410314 L -10.2388 -0.479703 L -10.1673 -0.518417 L -10.0952 -0.567242 L -10.0227 -0.616051 L -9.94999 -0.664843 L -9.87698 -0.713617 L -9.80368 -0.762369 L -9.73007 -0.811097 L -9.65616 -0.859801 L -9.58194 -0.908476 L -9.5074 -0.957121 L -9.43253 -1.00573 L -9.35734 -1.05431 L -9.2818 -1.10285 L -9.20592 -1.15135 L -9.12968 -1.1998 L -9.05308 -1.24821 L -8.97611 -1.29656 L -8.89877 -1.34486 L -8.82103 -1.3931 L -8.74291 -1.44128 L -8.66437 -1.4894 L -8.58543 -1.53744 L -8.50606 -1.5854 L -8.42626 -1.63329 L -8.34601 -1.68109 L -8.26532 -1.7288 L -8.18416 -1.77641 L -8.10252 -1.82392 L -8.0204 -1.87132 L -7.93779 -1.9186 L -7.85466 -1.96576 L -7.77102 -2.01279 L -7.68684 -2.05968 L -7.68684 -2.05968 L -7.73629 -2.14238 L -7.78522 -2.22493 L -7.83363 -2.30734 L -7.88153 -2.38959 L -7.92895 -2.4717 L -7.97589 -2.55366 L -8.02237 -2.63548 L -8.0684 -2.71714 L -8.114 -2.79866 L -8.15917 -2.88003 L -8.20392 -2.96125 L -8.24827 -3.04233 L -8.29222 -3.12326 L -8.33579 -3.20405 L -8.37899 -3.2847 L -8.42182 -3.3652 L -8.4643 -3.44556 L -8.50644 -3.52578 L -8.54823 -3.60586 L -8.5897 -3.6858 L -8.63085 -3.76561 L -8.67168 -3.84528 L -8.71221 -3.92481 L -8.75244 -4.00421 L -8.79238 -4.08347 L -8.83204 -4.1626 L -8.87142 -4.24161 L -8.91052 -4.32048 L -8.94937 -4.39923 L -8.98796 -4.47784 L -9.02629 -4.55634 L -9.06438 -4.63471 L -9.10689 -4.70395 L -9.0748 -4.76555 L -9.0423 -4.82693 L -9.00939 -4.88809 L -8.97606 -4.94903 L -8.94232 -5.00973 L -8.80972 -5.23941 L -8.77401 -5.29898 L -8.7379 -5.35831 L -8.7014 -5.4174 L -8.66449 -5.47623 L -8.62718 -5.53482 L -8.54596 -5.53263 L -8.45905 -5.53883 L -8.37191 -5.54488 L -8.28453 -5.55077 L -8.19691 -5.5565 L -8.10905 -5.56207 L -8.02094 -5.56747 L -7.93258 -5.57269 L -7.84396 -5.57773 L -7.75509 -5.58259 L -7.66595 -5.58726 L -7.57654 -5.59173 L -7.48685 -5.596 L -7.39689 -5.60006 L -7.30664 -5.6039 L -7.2161 -5.60752 L -7.12526 -5.61091 L -7.03413 -5.61407 L -6.94269 -5.61698 L -6.85094 -5.61964 L -6.75887 -5.62204 L -6.66648 -5.62417 L -6.57376 -5.62603 L -6.48071 -5.6276 L -6.38732 -5.62887 L -6.29358 -5.62984 L -6.19948 -5.63049 L -6.10503 -5.63082 L -6.01021 -5.63081 L -5.91503 -5.63045 L -5.81946 -5.62973 L -5.7235 -5.62864 L -5.62716 -5.62716 L -5.62716 -5.62716 L -5.62864 -5.7235 L -5.62973 -5.81946 L -5.63045 -5.91503 L -5.63081 -6.01021 L -5.63082 -6.10503 L -5.63049 -6.19948 L -5.62984 -6.29358 L -5.62887 -6.38732 L -5.6276 -6.48071 L -5.62603 -6.57376 L -5.62417 -6.66648 L -5.62204 -6.75887 L -5.61964 -6.85094 L -5.61698 -6.94269 L -5.61407 -7.03413 L -5.61091 -7.12526 L -5.60752 -7.2161 L -5.6039 -7.30664 L -5.60006 -7.39689 L -5.596 -7.48685 L -5.59173 -7.57654 L -5.58726 -7.66595 L -5.58259 -7.75509 L -5.57773 -7.84396 L -5.57269 -7.93258 L -5.56747 -8.02094 L -5.56207 -8.10905 L -5.5565 -8.19691 L -5.55077 -8.28453 L -5.54488 -8.37191 L -5.53883 -8.45905 L -5.53263 -8.54596 L -5.53482 -8.62718 L -5.47623 -8.66449 L -5.4174 -8.7014 L -5.35831 -8.7379 L -5.29898 -8.77401 L -5.23941 -8.80972 L -5.00973 -8.94232 L -4.94903 -8.97606 L -4.88809 -9.00939 L -4.82693 -9.0423 L -4.76555 -9.0748 L -4.70395 -9.10689 L -4.63471 -9.06438 L -4.55634 -9.02629 L -4.47784 -8.98796 L -4.39923 -8.94937 L -4.32048 -8.91052 L -4.24161 -8.87142 L -4.1626 -8.83204 L -4.08347 -8.79238 L -4.00421 -8.75244 L -3.92481 -8.71221 L -3.84528 -8.67168 L -3.76561 -8.63085 L -3.6858 -8.5897 L -3.60586 -8.54823 L -3.52578 -8.50644 L -3.44556 -8.4643 L -3.3652 -8.42182 L -3.2847 -8.37899 L -3.20405 -8.33579 L -3.12326 -8.29222 L -3.04233 -8.24827 L -2.96125 -8.20392 L -2.88003 -8.15917 L -2.79866 -8.114 L -2.71714 -8.0684 L -2.63548 -8.02237 L -2.55366 -7.97589 L -2.4717 -7.92895 L -2.38959 -7.88153 L -2.30734 -7.83363 L -2.22493 -7.78522 L -2.14238 -7.73629 L -2.05968 -7.68684 L -2.05968 -7.68684 L -2.01279 -7.77102 L -1.96576 -7.85466 L -1.9186 -7.93779 L -1.87132 -8.0204 L -1.82392 -8.10252 L -1.77641 -8.18416 L -1.7288 -8.26532 L -1.68109 -8.34601 L -1.63329 -8.42626 L -1.5854 -8.50606 L -1.53744 -8.58543 L -1.4894 -8.66437 L -1.44128 -8.74291 L -1.3931 -8.82103 L -1.34486 -8.89877 L -1.29656 -8.97611 L -1.24821 -9.05308 L -1.1998 -9.12968 L -1.15135 -9.20592 L -1.10285 -9.2818 L -1.05431 -9.35734 L -1.00573 -9.43253 L -0.957121 -9.5074 L -0.908476 -9.58194 L -0.859801 -9.65616 L -0.811097 -9.73007 L -0.762369 -9.80368 L -0.713617 -9.87698 L -0.664843 -9.94999 L -0.616051 -10.0227 L -0.567242 -10.0952 L -0.518417 -10.1673 L -0.479703 -10.2388 L -0.410314 -10.2418 L -0.340906 -10.2443 L -0.271483 -10.2464 L -0.202047 -10.248 L -0.132602 -10.2491 L 0.132602 -10.2491 L 0.202047 -10.248 L 0.271483 -10.2464 L 0.340906 -10.2443 L 0.410314 -10.2418 L 0.479703 -10.2388 L 0.518417 -10.1673 L 0.567242 -10.0952 L 0.616051 -10.0227 L 0.664843 -9.94999 L 0.713617 -9.87698 L 0.762369 -9.80368 L 0.811097 -9.73007 L 0.859801 -9.65616 L 0.908476 -9.58194 L 0.957121 -9.5074 L 1.00573 -9.43253 L 1.05431 -9.35734 L 1.10285 -9.2818 L 1.15135 -9.20592 L 1.1998 -9.12968 L 1.24821 -9.05308 L 1.29656 -8.97611 L 1.34486 -8.89877 L 1.3931 -8.82103 L 1.44128 -8.74291 L 1.4894 -8.66437 L 1.53744 -8.58543 L 1.5854 -8.50606 L 1.63329 -8.42626 L 1.68109 -8.34601 L 1.7288 -8.26532 L 1.77641 -8.18416 L 1.82392 -8.10252 L 1.87132 -8.0204 L 1.9186 -7.93779 L 1.96576 -7.85466 L 2.01279 -7.77102 L 2.05968 -7.68684 L 2.05968 -7.68684 L 2.14238 -7.73629 L 2.22493 -7.78522 L 2.30734 -7.83363 L 2.38959 -7.88153 L 2.4717 -7.92895 L 2.55366 -7.97589 L 2.63548 -8.02237 L 2.71714 -8.0684 L 2.79866 -8.114 L 2.88003 -8.15917 L 2.96125 -8.20392 L 3.04233 -8.24827 L 3.12326 -8.29222 L 3.20405 -8.33579 L 3.2847 -8.37899 L 3.3652 -8.42182 L 3.44556 -8.4643 L 3.52578 -8.50644 L 3.60586 -8.54823 L 3.6858 -8.5897 L 3.76561 -8.63085 L 3.84528 -8.67168 L 3.92481 -8.71221 L 4.00421 -8.75244 L 4.08347 -8.79238 L 4.1626 -8.83204 L 4.24161 -8.87142 L 4.32048 -8.91052 L 4.39923 -8.94937 L 4.47784 -8.98796 L 4.55634 -9.02629 L 4.63471 -9.06438 L 4.70395 -9.10689 L 4.76555 -9.0748 L 4.82693 -9.0423 L 4.88809 -9.00939 L 4.94903 -8.97606 L 5.00973 -8.94232 L 5.23941 -8.80972 L 5.29898 -8.77401 L 5.35831 -8.7379 L 5.4174 -8.7014 L 5.47623 -8.66449 L 5.53482 -8.62718 L 5.53263 -8.54596 L 5.53883 -8.45905 L 5.54488 -8.37191 L 5.55077 -8.28453 L 5.5565 -8.19691 L 5.56207 -8.10905 L 5.56747 -8.02094 L 5.57269 -7.93258 L 5.57773 -7.84396 L 5.58259 -7.75509 L 5.58726 -7.66595 L 5.59173 -7.57654 L 5.596 -7.48685 L 5.60006 -7.39689 L 5.6039 -7.30664 L 5.60752 -7.2161 L 5.61091 -7.12526 L 5.61407 -7.03413 L 5.61698 -6.94269 L 5.61964 -6.85094 L 5.62204 -6.75887 L 5.62417 -6.66648 L 5.62603 -6.57376 L 5.6276 -6.48071 L 5.62887 -6.38732 L 5.62984 -6.29358 L 5.63049 -6.19948 L 5.63082 -6.10503 L 5.63081 -6.01021 L 5.63045 -5.91503 L 5.62973 -5.81946 L 5.62864 -5.7235 L 5.62716 -5.62716 L 5.62716 -5.62716 L 5.7235 -5.62864 L 5.81946 -5.62973 L 5.91503 -5.63045 L 6.01021 -5.63081 L 6.10503 -5.63082 L 6.19948 -5.63049 L 6.29358 -5.62984 L 6.38732 -5.62887 L 6.48071 -5.6276 L 6.57376 -5.62603 L 6.66648 -5.62417 L 6.75887 -5.62204 L 6.85094 -5.61964 L 6.94269 -5.61698 L 7.03413 -5.61407 L 7.12526 -5.61091 L 7.2161 -5.60752 L 7.30664 -5.6039 L 7.39689 -5.60006 L 7.48685 -5.596 L 7.57654 -5.59173 L 7.66595 -5.58726 L 7.75509 -5.58259 L 7.84396 -5.57773 L 7.93258 -5.57269 L 8.02094 -5.56747 L 8.10905 -5.56207 L 8.19691 -5.5565 L 8.28453 -5.55077 L 8.37191 -5.54488 L 8.45905 -5.53883 L 8.54596 -5.53263 L 8.62718 -5.53482 L 8.66449 -5.47623 L 8.7014 -5.4174 L 8.7379 -5.35831 L 8.77401 -5.29898 L 8.80972 -5.23941 L 8.94232 -5.00973 L 8.97606 -4.94903 L 9.00939 -4.88809 L 9.0423 -4.82693 L 9.0748 -4.76555 L 9.10689 -4.70395 L 9.06438 -4.63471 L 9.02629 -4.55634 L 8.98796 -4.47784 L 8.94937 -4.39923 L 8.91052 -4.32048 L 8.87142 -4.24161 L 8.83204 -4.1626 L 8.79238 -4.08347 L 8.75244 -4.00421 L 8.71221 -3.92481 L 8.67168 -3.84528 L 8.63085 -3.76561 L 8.5897 -3.6858 L 8.54823 -3.60586 L 8.50644 -3.52578 L 8.4643 -3.44556 L 8.42182 -3.3652 L 8.37899 -3.2847 L 8.33579 -3.20405 L 8.29222 -3.12326 L 8.24827 -3.04233 L 8.20392 -2.96125 L 8.15917 -2.88003 L 8.114 -2.79866 L 8.0684 -2.71714 L 8.02237 -2.63548 L 7.97589 -2.55366 L 7.92895 -2.4717 L 7.88153 -2.38959 L 7.83363 -2.30734 L 7.78522 -2.22493 L 7.73629 -2.14238 L 7.68684 -2.05968 L 7.68684 -2.05968 L 7.77102 -2.01279 L 7.85466 -1.96576 L 7.93779 -1.9186 L 8.0204 -1.87132 L 8.10252 -1.82392 L 8.18416 -1.77641 L 8.26532 -1.7288 L 8.34601 -1.68109 L 8.42626 -1.63329 L 8.50606 -1.5854 L 8.58543 -1.53744 L 8.66437 -1.4894 L 8.74291 -1.44128 L 8.82103 -1.3931 L 8.89877 -1.34486 L 8.97611 -1.29656 L 9.05308 -1.24821 L 9.12968 -1.1998 L 9.20592 -1.15135 L 9.2818 -1.10285 L 9.35734 -1.05431 L 9.43253 -1.00573 L 9.5074 -0.957121 L 9.58194 -0.908476 L 9.65616 -0.859801 L 9.73007 -0.811097 L 9.80368 -0.762369 L 9.87698 -0.713617 L 9.94999 -0.664843 L 10.0227 -0.616051 L 10.0952 -0.567242 L 10.1673 -0.518417 L 10.2388 -0.479703 L 10.2418 -0.410314 L 10.2443 -0.340906 L 10.2464 -0.271483 L 10.248 -0.202047 L 10.2491 -0.132602Z"
id="path1" />
</g>
</svg>
