<?xml version="1.0" encoding="UTF-8" standalone="no"?>
<svg version="1.1">
<g
style="fill:none;stroke:#000000;stroke-opacity:1;stroke-width:0.1">
<path d="M 11.4989 0.162556 L 11.4973 0.25143 L 11.495 0.34029 L 11.4047 0.381404 L 11.314 0.432554 L 11.2229 0.483694 L 11.1316 0.534823 L 11.04 0.585939 L 10.9481 0.637039 L 10.856 0.688123 L 10.7635 0.739187 L 10.6708 0.790231 L 10.5777 0.841252 L 10.4843 0.892248 L 10.3906 0.943216 L 10.2966 0.994153 L 10.2022 1.04506 L 10.1074 1.09593 L 10.0123 1.14675 L 9.91684 1.19754 L 9.82099 1.24828 L 9.72474 1.29897 L 9.62809 1.34961 L 9.53103 1.40019 L 9.43355 1.45071 L 9.33563 1.50116 L 9.23727 1.55154 L 9.13845 1.60184 L 9.03916 1.65206 L 8.93938 1.70219 L 8.83911 1.75222 L 8.73832 1.80216 L 8.63701 1.85198 L 8.53515 1.90169 L 8.43274 1.95128 L 8.32976 2.00073 L 8.22618 2.05004 L 8.122 2.0992 L 8.01718 2.1482 L 8.01718 2.1482 L 8.08345 2.24304 L 8.1491 2.3377 L 8.21415 2.43219 L 8.27861 2.52651 L 8.34251 2.62066 L 8.40586 2.71464 L 8.46869 2.80845 L 8.531 2.90208 L 8.59283 2.99555 L 8.65417 3.08886 L 8.71505 3.18199 L 8.77548 3.27497 L 8.83547 3.36778 L 8.89505 3.46043 L 8.95421 3.55292 L 9.01298 3.64525 L 9.07136 3.73743 L 9.12937 3.82945 L 9.18701 3.92132 L 9.2443 4.01304 L 9.30125 4.10461 L 9.35787 4.19604 L 9.41416 4.28732 L 9.47014 4.37846 L 9.52582 4.46945 L 9.58119 4.56031 L 9.63628 4.65103 L 9.69109 4.74161 L 9.74563 4.83206 L 9.79989 4.92238 L 9.8539 5.01257 L 9.90766 5.10263 L 9.96118 5.19257 L 10.0145 5.28238 L 10.0675 5.37206 L 10.1251 5.45278 L 10.0826 5.53088 L 10.0396 5.60865 L 9.87702 5.8902 L 9.8312 5.96637 L 9.78479 6.04218 L 9.68609 6.03267 L 9.5819 6.03158 L 9.47748 6.03035 L 9.37284 6.02897 L 9.26797 6.02745 L 9.16286 6.02577 L 9.0575 6.02393 L 8.9519 6.02192 L 8.84605 6.01975 L 8.73994 6.0174 L 8.63357 6.01487 L 8.52692 6.01215 L 8.42001 6.00924 L 8.31281 6.00613 L 8.20532 6.00281 L 8.09755 5.99928 L 7.98947 5.99552 L 7.88108 5.99154 L 7.77239 5.98731 L 7.66337 5.98284 L 7.55402 5.97812 L 7.44434 5.97312 L 7.33432 5.96786 L 7.22394 5.96231 L 7.11321 5.95646 L 7.00211 5.9503 L 6.89064 5.94383 L 6.77878 5.93702 L 6.66653 5.92988 L 6.55388 5.92237 L 6.44081 5.91449 L 6.32733 5.90623 L 6.21342 5.89756 L 6.09906 5.88848 L 5.98425 5.87896 L 5.86899 5.86899 L 5.86899 5.86899 L 5.87896 5.98425 L 5.88848 6.09906 L 5.89756 6.21342 L 5.90623 6.32733 L 5.91449 6.44081 L 5.92237 6.55388 L 5.92988 6.66653 L 5.93702 6.77878 L 5.94383 6.89064 L 5.9503 7.00211 L 5.95646 7.11321 L 5.96231 7.22394 L 5.96786 7.33432 L 5.97312 7.44434 L 5.97812 7.55402 L 5.98284 7.66337 L 5.98731 7.77239 L 5.99154 7.88108 L 5.99552 7.98947 L 5.99928 8.09755 L 6.00281 8.20532 L 6.00613 8.31281 L 6.00924 8.42001 L 6.01215 8.52692 L 6.01487 8.63357 L 6.0174 8.73994 L 6.01975 8.84605 L 6.02192 8.9519 L 6.02393 9.0575 L 6.02577 9.16286 L 6.02745 9.26797 L 6.02897 9.37284 L 6.03035 9.47748 L 6.03158 9.5819 L 6.03267 9.68609 L 6.04218 9.78479 L 5.96637 9.8312 L 5.8902 9.87702 L 5.60865 10.0396 L 5.53088 10.0826 L 5.45278 10.1251 L 5.37206 10.0675 L 5.28238 10.0145 L 5.19257 9.96118 L 5.10263 9.90766 L 5.01257 9.8539 L 4.92238 9.79989 L 4.83206 9.74563 L 4.74161 9.69109 L 4.65103 9.63628 L 4.56031 9.58119 L 4.46945 9.52582 L 4.37846 9.47014 L 4.28732 9.41416 L 4.19604 9.35787 L 4.10461 9.30125 L 4.01304 9.2443 L 3.92132 9.18701 L 3.82945 9.12937 L 3.73743 9.07136 L 3.64525 9.01298 L 3.55292 8.95421 L 3.46043 8.89505 L 3.36778 8.83547 L 3.27497 8.77548 L 3.18199 8.71505 L 3.08886 8.65417 L 2.99555 8.59283 L 2.90208 8.531 L 2.80845 8.46869 L 2.71464 8.40586 L 2.62066 8.34251 L 2.52651 8.27861 L 2.43219 8.21415 L 2.3377 8.1491 L 2.24304 8.08345 L 2.1482 8.01718 L 2.1482 8.01718 L 2.0992 8.122 L 2.05004 8.22618 L 2.00073 8.32976 L 1.95128 8.43274 L 1.90169 8.53515 L 1.85198 8.63701 L 1.80216 8.73832 L 1.75222 8.83911 L 1.70219 8.93938 L 1.65206 9.03916 L 1.60184 9.13845 L 1.55154 9.23727 L 1.50116 9.33563 L 1.45071 9.43355 L 1.40019 9.53103 L 1.34961 9.62809 L 1.29897 9.72474 L 1.24828 9.82099 L 1.19754 9.91684 L 1.14675 10.0123 L 1.09593 10.1074 L 1.04506 10.2022 L 0.994153 10.2966 L 0.943216 10.3906 L 0.892248 10.4843 L 0.841252 10.5777 L 0.790231 10.6708 L 0.739187 10.7635 L 0.688123 10.856 L 0.637039 10.9481 L 0.585939 11.04 L 0.534823 11.1316 L 0.483694 11.2229 L 0.432554 11.314 L 0.381404 11.4047 L 0.34029 11.495 L 0.25143 11.4973 L 0.162556 11.4989 L -0.162556 11.4989 L -0.25143 11.4973 L -0.34029 11.495 L -0.381404 11.4047 L -0.432554 11.314 L -0.483694 11.2229 L -0.534823 11.1316 L -0.585939 11.04 L -0.637039 10.9481 L -0.688123 10.856 L -0.739187 10.7635 L -0.790231 10.6708 L -0.841252 10.5777 L -0.892248 10.4843 L -0.943216 10.3906 L -0.994153 10.2966 L -1.04506 10.2022 L -1.09593 10.1074 L -1.14675 10.0123 L -1.19754 9.91684 L -1.24828 9.82099 L -1.29897 9.72474 L -1.34961 9.62809 L -1.40019 9.53103 L -1.45071 9.43355 L -1.50116 9.33563 L -1.55154 9.23727 L -1.60184 9.13845 L -1.65206 9.03916 L -1.70219 8.93938 L -1.75222 8.83911 L -1.80216 8.73832 L -1.85198 8.63701 L -1.90169 8.53515 L -1.95128 8.43274 L -2.00073 8.32976 L -2.05004 8.22618 L -2.0992 8.122 L -2.1482 8.01718 L -2.1482 8.01718 L -2.24304 8.08345 L -2.3377 8.1491 L -2.43219 8.21415 L -2.52651 8.27861 L -2.62066 8.34251 L -2.71464 8.40586 L -2.80845 8.46869 L -2.90208 8.531 L -2.99555 8.59283 L -3.08886 8.65417 L -3.18199 8.71505 L -3.27497 8.77548 L -3.36778 8.83547 L -3.46043 8.89505 L -3.55292 8.95421 L -3.64525 9.01298 L -3.73743 9.07136 L -3.82945 9.12937 L -3.92132 9.18701 L -4.01304 9.2443 L -4.10461 9.30125 L -4.19604 9.35787 L -4.28732 9.41416 L -4.37846 9.47014 L -4.46945 9.52582 L -4.56031 9.58119 L -4.65103 9.63628 L -4.74161 9.69109 L -4.83206 9.74563 L -4.92238 9.79989 L -5.01257 9.8539 L -5.10263 9.90766 L -5.19257 9.96118 L -5.28238 10.0145 L -5.37206 10.0675 L -5.45278 10.1251 L -5.53088 10.0826 L -5.60865 10.0396 L -5.8902 9.87702 L -5.96637 9.8312 L -6.04218 9.78479 L -6.03267 9.68609 L -6.03158 9.5819 L -6.03035 9.47748 L -6.02897 9.37284 L -6.02745 9.26797 L -6.02577 9.16286 L -6.02393 9.0575 L -6.02192 8.9519 L -6.01975 8.84605 L -6.0174 8.73994 L -6.01487 8.63357 L -6.01215 8.52692 L -6.00924 8.42001 L -6.00613 8.31281 L -6.00281 8.20532 L -5.99928 8.09755 L -5.99552 7.98947 L -5.99154 7.88108 L -5.98731 7.77239 L -5.98284 7.66337 L -5.97812 7.55402 L -5.97312 7.44434 L -5.96786 7.33432 L -5.96231 7.22394 L -5.95646 7.11321 L -5.9503 7.00211 L -5.94383 6.89064 L -5.93702 6.77878 L -5.92988 6.66653 L -5.92237 6.55388 L -5.91449 6.44081 L -5.90623 6.32733 L -5.89756 6.21342 L -5.88848 6.09906 L -5.87896 5.98425 L -5.86899 5.86899 L -5.86899 5.86899 L -5.98425 5.87896 L -6.09906 5.88848 L -6.21342 5.89756 L -6.32733 5.90623 L -6.44081 5.91449 L -6.55388 5.92237 L -6.66653 5.92988 L -6.77878 5.93702 L -6.89064 5.94383 L -7.00211 5.9503 L -7.11321 5.95646 L -7.22394 5.96231 L -7.33432 5.96786 L -7.44434 5.97312 L -7.55402 5.97812 L -7.66337 5.98284 L -7.77239 5.98731 L -7.88108 5.99154 L -7.98947 5.99552 L -8.09755 5.99928 L -8.20532 6.00281 L -8.31281 6.00613 L -8.42001 6.00924 L -8.52692 6.01215 L -8.63357 6.01487 L -8.73994 6.0174 L -8.84605 6.01975 L -8.9519 6.02192 L -9.0575 6.02393 L -9.16286 6.02577 L -9.26797 6.02745 L -9.37284 6.02897 L -9.47748 6.03035 L -9.5819 6.03158 L -9.68609 6.03267 L -9.78479 6.04218 L -9.8312 5.96637 L -9.87702 5.8902 L -10.0396 5.60865 L -10.0826 5.53088 L -10.1251 5.45278 L -10.0675 5.37206 L -10.0145 5.28238 L -9.96118 5.19257 L -9.90766 5.10263 L -9.8539 5.01257 L -9.79989 4.92238 L -9.74563 4.83206 L -9.69109 4.74161 L -9.63628 4.65103 L -9.58119 4.56031 L -9.52582 4.46945 L -9.47014 4.37846 L -9.41416 4.28732 L -9.35787 4.19604 L -9.30125 4.10461 L -9.2443 4.01304 L -9.18701 3.92132 L -9.12937 3.82945 L -9.07136 3.73743 L -9.01298 3.64525 L -8.95421 3.55292 L -8.89505 3.46043 L -8.83547 3.36778 L -8.77548 3.27497 L -8.71505 3.18199 L -8.65417 3.08886 L -8.59283 2.99555 L -8.531 2.90208 L -8.46869 2.80845 L -8.40586 2.71464 L -8.34251 2.62066 L -8.27861 2.52651 L -8.21415 2.43219 L -8.1491 2.3377 L -8.08345 2.24304 L -8.01718 2.1482 L -8.01718 2.1482 L -8.122 2.0992 L -8.22618 2.05004 L -8.32976 2.00073 L -8.43274 1.95128 L -8.53515 1.90169 L -8.63701 1.85198 L -8.73832 1.80216 L -8.83911 1.75222 L -8.93938 1.70219 L -9.03916 1.65206 L -9.13845 1.60184 L -9.23727 1.55154 L -9.33563 1.50116 L -9.43355 1.45071 L -9.53103 1.40019 L -9.62809 1.34961 L -9.72474 1.29897 L -9.82099 1.24828 L -9.91684 1.19754 L -10.0123 1.14675 L -10.1074 1.09593 L -10.2022 1.04506 L -10.2966 0.994153 L -10.3906 0.943216 L -10.4843 0.892248 L -10.5777 0.841252 L -10.6708 0.790231 L -10.7635 0.739187 L -10.856 0.688123 L -10.9481 0.637039 L -11.04 0.585939 L -11.1316 0.534823 L -11.2229 0.483694 L -11.314 0.432554 L -11.4047 0.381404 L -11.495 0.34029 L -11.4973 0.25143 L -11.4989 0.162556 L -11.4989 -0.162556 L -11.4973 -0.25143 L -11.495 -0.34029 L -11.4047 -0.381404 L -11.314 -0.432554 L -11.2229 -0.483694 L -11.1316 -0.534823 L -11.04 -0.585939 L -10.9481 -0.637039 L -10.856 -0.688123 L -10.7635 -0.739187 L -10.6708 -0.790231 L -10.5777 -0.841252 L -10.4843 -0.892248 L -10.3906 -0.943216 L -10.2966 -0.994153 L -10.2022 -1.04506 L -10.1074 -1.09593 L -10.0123 -1.14675 L -9.91684 -1.19754 L -9.82099 -1.24828 L -9.72474 -1.29897 L -9.62809 -1.34961 L -9.53103 -1.40019 L -9.43355 -1.45071 L -9.33563 -1.50116 L -9.23727 -1.55154 L -9.13845 -1.60184 L -9.03916 -1.65206 L -8.93938 -1.70219 L -8.83911 -1.75222 L -8.73832 -1.80216 L -8.63701 -1.85198 L -8.53515 -1.90169 L -8.43274 -1.95128 L -8.32976 -2.00073 L -8.22618 -2.05004 L -8.122 -2.0992 L -8.01718 -2.1482 L -8.01718 -2.1482 L -8.08345 -2.24304 L -8.1491 -2.3377 L -8.21415 -2.43219 L -8.27861 -2.52651 L -8.34251 -2.62066 L -8.40586 -2.71464 L -8.46869 -2.80845 L -8.531 -2.90208 L -8.59283 -2.99555 L -8.65417 -3.08886 L -8.71505 -3.18199 L -8.77548 -3.27497 L -8.83547 -3.36778 L -8.89505 -3.46043 L -8.95421 -3.55292 L -9.01298 -3.64525 L -9.07136 -3.73743 L -9.12937 -3.82945 L -9.18701 -3.92132 L -9.2443 -4.01304 L -9.30125 -4.10461 L -9.35787 -4.19604 L -9.41416 -4.28732 L -9.47014 -4.37846 L -9.52582 -4.46945 L -9.58119 -4.56031 L -9.63628 -4.65103 L -9.69109 -4.74161 L -9.74563 -4.83206 L -9.79989 -4.92238 L -9.8539 -5.01257 L -9.90766 -5.10263 L -9.96118 -5.19257 L -10.0145 -5.28238 L -10.0675 -5.37206 L -10.1251 -5.45278 L -10.0826 -5.53088 L -10.0396 -5.60865 L -9.87702 -5.8902 L -9.8312 -5.96637 L -9.78479 -6.04218 L -9.68609 -6.03267 L -9.5819 -6.03158 L -9.47748 -6.03035 L -9.37284 -6.02897 L -9.26797 -6.02745 L -9.16286 -6.02577 L -9.0575 -6.02393 L -8.9519 -6.02192 L -8.84605 -6.01975 L -8.73994 -6.0174 L -8.63357 -6.01487 L -8.52692 -6.01215 L -8.42001 -6.00924 L -8.31281 -6.00613 L -8.20532 -6.00281 L -8.09755 -5.99928 L -7.98947 -5.99552 L -7.88108 -5.99154 L -7.77239 -5.98731 L -7.66337 -5.98284 L -7.55402 -5.97812 L -7.44434 -5.97312 L -7.33432 -5.96786 L -7.22394 -5.96231 L -7.11321 -5.95646 L -7.00211 -5.9503 L -6.89064 -5.94383 L -6.77878 -5.93702 L -6.66653 -5.92988 L -6.55388 -5.92237 L -6.44081 -5.91449 L -6.32733 -5.90623 L -6.21342 -5.89756 L -6.09906 -5.88848 L -5.98425 -5.87896 L -5.86899 -5.86899 L -5.86899 -5.86899 L -5.87896 -5.98425 L -5.88848 -6.09906 L -5.89756 -6.21342 L -5.90623 -6.32733 L -5.91449 -6.44081 L -5.92237 -6.55388 L -5.92988 -6.66653 L -5.93702 -6.77878 L -5.94383 -6.89064 L -5.9503 -7.00211 L -5.95646 -7.11321 L -5.96231 -7.22394 L -5.96786 -7.33432 L -5.97312 -7.44434 L -5.97812 -7.55402 L -5.98284 -7.66337 L -5.98731 -7.77239 L -5.99154 -7.88108 L -5.99552 -7.98947 L -5.99928 -8.09755 L -6.00281 -8.20532 L -6.00613 -8.31281 L -6.00924 -8.42001 L -6.01215 -8.52692 L -6.01487 -8.63357 L -6.0174 -8.73994 L -6.01975 -8.84605 L -6.02192 -8.9519 L -6.02393 -9.0575 L -6.02577 -9.16286 L -6.02745 -9.26797 L -6.02897 -9.37284 L -6.03035 -9.47748 L -6.03158 -9.5819 L -6.03267 -9.68609 L -6.04218 -9.78479 L -5.96637 -9.8312 L -5.8902 -9.87702 L -5.60865 -10.0396 L -5.53088 -10.0826 L -5.45278 -10.1251 L -5.37206 -10.0675 L -5.28238 -10.0145 L -5.19257 -9.96118 L -5.10263 -9.90766 L -5.01257 -9.8539 L -4.92238 -9.79989 L -4.83206 -9.74563 L -4.74161 -9.69109 L -4.65103 -9.63628 L -4.56031 -9.58119 L -4.46945 -9.52582 L -4.37846 -9.47014 L -4.28732 -9.41416 L -4.19604 -9.35787 L -4.10461 -9.30125 L -4.01304 -9.2443 L -3.92132 -9.18701 L -3.82945 -9.12937 L -3.73743 -9.07136 L -3.64525 -9.01298 L -3.55292 -8.95421 L -3.46043 -8.89505 L -3.36778 -8.83547 L -3.27497 -8.77548 L -3.18199 -8.71505 L -3.08886 -8.65417 L -2.99555 -8.59283 L -2.90208 -8.531 L -2.80845 -8.46869 L -2.71464 -8.40586 L -2.62066 -8.34251 L -2.52651 -8.27861 L -2.43219 -8.21415 L -2.3377 -8.1491 L -2.24304 -8.08345 L -2.1482 -8.01718 L -2.1482 -8.01718 L -2.0992 -8.122 L -2.05004 -8.22618 L -2.00073 -8.32976 L -1.95128 -8.43274 L -1.90169 -8.53515 L -1.85198 -8.63701 L -1.80216 -8.73832 L -1.75222 -8.83911 L -1.70219 -8.93938 L -1.65206 -9.03916 L -1.60184 -9.13845 L -1.55154 -9.23727 L -1.50116 -9.33563 L -1.45071 -9.43355 L -1.40019 -9.53103 L -1.34961 -9.62809 L -1.29897 -9.72474 L -1.24828 -9.82099 L -1.19754 -9.91684 L -1.14675 -10.0123 L -1.09593 -10.1074 L -1.04506 -10.2022 L -0.994153 -10.2966 L -0.943216 -10.3906 L -0.892248 -10.4843 L -0.841252 -10.5777 L -0.790231 -10.6708 L -0.739187 -10.7635 L -0.688123 -10.856 L -0.637039 -10.9481 L -0.585939 -11.04 L -0.534823 -11.1316 L -0.483694 -11.2229 L -0.432554 -11.314 L -0.381404 -11.4047 L -0.34029 -11.495 L -0.25143 -11.4973 L -0.162556 -11.4989 L 0.162556 -11.4989 L 0.25143 -11.4973 L 0.34029 -11.495 L 0.381404 -11.4047 L 0.432554 -11.314 L 0.483694 -11.2229 L 0.534823 -11.1316 L 0.585939 -11.04 L 0.637039 -10.9481 L 0.688123 -10.856 L 0.739187 -10.7635 L 0.790231 -10.6708 L 0.841252 -10.5777 L 0.892248 -10.4843 L 0.943216 -10.3906 L 0.994153 -10.2966 L 1.04506 -10.2022 L 1.09593 -10.1074 L 1.14675 -10.0123 L 1.19754 -9.91684 L 1.24828 -9.82099 L 1.29897 -9.72474 L 1.34961 -9.62809 L 1.40019 -9.53103 L 1.45071 -9.43355 L 1.50116 -9.33563 L 1.55154 -9.23727 L 1.60184 -9.13845 L 1.65206 -9.03916 L 1.70219 -8.93938 L 1.75222 -8.83911 L 1.80216 -8.73832 L 1.85198 -8.63701 L 1.90169 -8.53515 L 1.95128 -8.43274 L 2.00073 -8.32976 L 2.05004 -8.22618 L 2.0992 -8.122 L 2.1482 -8.01718 L 2.1482 -8.01718 L 2.24304 -8.08345 L 2.3377 -8.1491 L 2.43219 -8.21415 L 2.52651 -8.27861 L 2.62066 -8.34251 L 2.71464 -8.40586 L 2.80845 -8.46869 L 2.90208 -8.531 L 2.99555 -8.59283 L 3.08886 -8.65417 L 3.18199 -8.71505 L 3.27497 -8.77548 L 3.36778 -8.83547 L 3.46043 -8.89505 L 3.55292 -8.95421 L 3.64525 -9.01298 L 3.73743 -9.07136 L 3.82945 -9.12937 L 3.92132 -9.18701 L 4.01304 -9.2443 L 4.10461 -9.30125 L 4.19604 -9.35787 L 4.28732 -9.41416 L 4.37846 -9.47014 L 4.46945 -9.52582 L 4.56031 -9.58119 L 4.65103 -9.63628 L 4.74161 -9.69109 L 4.83206 -9.74563 L 4.92238 -9.79989 L 5.01257 -9.8539 L 5.10263 -9.90766 L 5.19257 -9.96118 L 5.28238 -10.0145 L 5.37206 -10.0675 L 5.45278 -10.1251 L 5.53088 -10.0826 L 5.60865 -10.0396 L 5.8902 -9.87702 L 5.96637 -9.8312 L 6.04218 -9.78479 L 6.03267 -9.68609 L 6.03158 -9.5819 L 6.03035 -9.47748 L 6.02897 -9.37284 L 6.02745 -9.26797 L 6.02577 -9.16286 L 6.02393 -9.0575 L 6.02192 -8.9519 L 6.01975 -8.84605 L 6.0174 -8.73994 L 6.01487 -8.63357 L 6.01215 -8.52692 L 6.00924 -8.42001 L 6.00613 -8.31281 L 6.00281 -8.20532 L 5.99928 -8.09755 L 5.99552 -7.98947 L 5.99154 -7.88108 L 5.98731 -7.77239 L 5.98284 -7.66337 L 5.97812 -7.55402 L 5.97312 -7.44434 L 5.96786 -7.33432 L 5.96231 -7.22394 L 5.95646 -7.11321 L 5.9503 -7.00211 L 5.94383 -6.89064 L 5.93702 -6.77878 L 5.92988 -6.66653 L 5.92237 -6.55388 L 5.91449 -6.44081 L 5.90623 -6.32733 L 5.89756 -6.21342 L 5.88848 -6.09906 L 5.87896 -5.98425 L 5.86899 -5.86899 L 5.86899 -5.86899 L 5.98425 -5.87896 L 6.09906 -5.88848 L 6.21342 -5.89756 L 6.32733 -5.90623 L 6.44081 -5.91449 L 6.55388 -5.92237 L 6.66653 -5.92988 L 6.77878 -5.93702 L 6.89064 -5.94383 L 7.00211 -5.9503 L 7.11321 -5.95646 L 7.22394 -5.96231 L 7.33432 -5.96786 L 7.44434 -5.97312 L 7.55402 -5.97812 L 7.66337 -5.98284 L 7.77239 -5.98731 L 7.88108 -5.99154 L 7.98947 -5.99552 L 8.09755 -5.99928 L 8.20532 -6.00281 L 8.31281 -6.00613 L 8.42001 -6.00924 L 8.52692 -6.01215 L 8.63357 -6.01487 L 8.73994 -6.0174 L 8.84605 -6.01975 L 8.9519 -6.02192 L 9.0575 -6.02393 L 9.16286 -6.02577 L 9.26797 -6.02745 L 9.37284 -6.02897 L 9.47748 -6.03035 L 9.5819 -6.03158 L 9.68609 -6.03267 L 9.78479 -6.04218 L 9.8312 -5.96637 L 9.87702 -5.8902 L 10.0396 -5.60865 L 10.0826 -5.53088 L 10.1251 -5.45278 L 10.0675 -5.37206 L 10.0145 -5.28238 L 9.96118 -5.19257 L 9.90766 -5.10263 L 9.8539 -5.01257 L 9.79989 -4.92238 L 9.74563 -4.83206 L 9.69109 -4.74161 L 9.63628 -4.65103 L 9.58119 -4.56031 L 9.52582 -4.46945 L 9.47014 -4.37846 L 9.41416 -4.28732 L 9.35787 -4.19604 L 9.30125 -4.10461 L 9.2443 -4.01304 L 9.18701 -3.92132 L 9.12937 -3.82945 L 9.07136 -3.73743 L 9.01298 -3.64525 L 8.95421 -3.55292 L 8.89505 -3.46043 L 8.83547 -3.36778 L 8.77548 -3.27497 L 8.71505 -3.18199 L 8.65417 -3.08886 L 8.59283 -2.99555 L 8.531 -2.90208 L 8.46869 -2.80845 L 8.40586 -2.71464 L 8.34251 -2.62066 L 8.27861 -2.52651 L 8.21415 -2.43219 L 8.1491 -2.3377 L 8.08345 -2.24304 L 8.01718 -2.1482 L 8.01718 -2.1482 L 8.122 -2.0992 L 8.22618 -2.05004 L 8.32976 -2.00073 L 8.43274 -1.95128 L 8.53515 -1.90169 L 8.63701 -1.85198 L 8.73832 -1.80216 L 8.83911 -1.75222 L 8.93938 -1.70219 L 9.03916 -1.65206 L 9.13845 -1.60184 L 9.23727 -1.55154 L 9.33563 -1.50116 L 9.43355 -1.45071 L 9.53103 -1.40019 L 9.62809 -1.34961 L 9.72474 -1.29897 L 9.82099 -1.24828 L 9.91684 -1.19754 L 10.0123 -1.14675 L 10.1074 -1.09593 L 10.2022 -1.04506 L 10.2966 -0.994153 L 10.3906 -0.943216 L 10.4843 -0.892248 L 10.5777 -0.841252 L 10.6708 -0.790231 L 10.7635 -0.739187 L 10.856 -0.688123 L 10.9481 -0.637039 L 11.04 -0.585939 L 11.1316 -0.534823 L 11.2229 -0.483694 L 11.314 -0.432554 L 11.4047 -0.381404 L 11.495 -0.34029 L 11.4973 -0.25143 L 11.4989 -0.162556Z"
id="path1" />
</g>
</svg>
