<?xml version="1.0" encoding="UTF-8" standalone="no"?>
<svg version="1.1">
<g
style="fill:none;stroke:#000000;stroke-opacity:1;stroke-width:0.1">
<path d="M 10.9995 0.10946 L 10.9985 0.183536 L 10.997 0.257605 L 10.995 0.331661 L 10.9925 0.405703 L 10.9895 0.479726 L 10.9137 0.5171 L 10.8371 0.564589 L 10.7604 0.612065 L 10.6833 0.659528 L 10.606 0.706974 L 10.5285 0.754404 L 10.4507 0.801814 L 10.3726 0.849204 L 10.2943 0.896571 L 10.2157 0.943914 L 10.1367 0.991231 L 10.0575 1.03852 L 9.97802 1.08577 L 9.8982 1.133 L 9.81807 1.18019 L 9.73762 1.22733 L 9.65685 1.27444 L 9.57574 1.32151 L 9.49429 1.36852 L 9.41249 1.41549 L 9.33034 1.4624 L 9.24782 1.50926 L 9.16493 1.55605 L 9.08165 1.60278 L 8.99798 1.64944 L 8.91392 1.69603 L 8.82944 1.74254 L 8.74455 1.78897 L 8.65922 1.83531 L 8.57346 1.88155 L 8.48725 1.9277 L 8.40058 1.97374 L 8.31344 2.01968 L 8.22581 2.06549 L 8.13769 2.11118 L 8.04906 2.15674 L 8.04906 2.15674 L 8.10303 2.24051 L 8.1565 2.32414 L 8.20948 2.40763 L 8.26199 2.49098 L 8.31403 2.57419 L 8.36561 2.65726 L 8.41676 2.74019 L 8.46748 2.82298 L 8.51779 2.90564 L 8.56769 2.98815 L 8.6172 3.07053 L 8.66633 3.15277 L 8.71509 3.23488 L 8.76348 3.31685 L 8.81151 3.39869 L 8.8592 3.4804 L 8.90656 3.56197 L 8.95359 3.64341 L 9.0003 3.72473 L 9.0467 3.80591 L 9.09279 3.88697 L 9.13859 3.96789 L 9.1841 4.0487 L 9.22933 4.12938 L 9.27428 4.20994 L 9.31897 4.29037 L 9.36339 4.37069 L 9.40756 4.45088 L 9.45148 4.53096 L 9.49516 4.61092 L 9.53859 4.69077 L 9.5818 4.7705 L 9.62477 4.85011 L 9.66753 4.92962 L 9.71007 5.00902 L 9.75708 5.07931 L 9.72265 5.14491 L 9.68778 5.21027 L 9.65247 5.2754 L 9.61672 5.34029 L 9.58054 5.40493 L 9.47108 5.59452 L 9.43319 5.65818 L 9.39486 5.72158 L 9.35612 5.78473 L 9.31695 5.84761 L 9.27735 5.91022 L 9.19297 5.90466 L 9.10294 5.90752 L 9.01271 5.91024 L 8.92227 5.91283 L 8.83162 5.91528 L 8.74075 5.91759 L 8.64967 5.91974 L 8.55836 5.92175 L 8.46682 5.92359 L 8.37506 5.92528 L 8.28305 5.9268 L 8.19081 5.92815 L 8.09833 5.92932 L 8.00559 5.93031 L 7.91261 5.93111 L 7.81936 5.93172 L 7.72586 5.93213 L 7.63208 5.93233 L 7.53804 5.93232 L 7.44371 5.9321 L 7.34911 5.93165 L 7.25422 5.93097 L 7.15903 5.93004 L 7.06355 5.92888 L 6.96776 5.92745 L 6.87166 5.92576 L 6.77525 5.92381 L 6.67852 5.92157 L 6.58146 5.91903 L 6.48406 5.9162 L 6.38633 5.91306 L 6.28824 5.9096 L 6.18981 5.90581 L 6.09101 5.90167 L 5.99185 5.89718 L 5.89232 5.89232 L 5.89232 5.89232 L 5.89718 5.99185 L 5.90167 6.09101 L 5.90581 6.18981 L 5.9096 6.28824 L 5.91306 6.38633 L 5.9162 6.48406 L 5.91903 6.58146 L 5.92157 6.67852 L 5.92381 6.77525 L 5.92576 6.87166 L 5.92745 6.96776 L 5.92888 7.06355 L 5.93004 7.15903 L 5.93097 7.25422 L 5.93165 7.34911 L 5.9321 7.44371 L 5.93232 7.53804 L 5.93233 7.63208 L 5.93213 7.72586 L 5.93172 7.81936 L 5.93111 7.91261 L 5.93031 8.00559 L 5.92932 8.09833 L 5.92815 8.19081 L 5.9268 8.28305 L 5.92528 8.37506 L 5.92359 8.46682 L 5.92175 8.55836 L 5.91974 8.64967 L 5.91759 8.74075 L 5.91528 8.83162 L 5.91283 8.92227 L 5.91024 9.01271 L 5.90752 9.10294 L 5.90466 9.19297 L 5.91022 9.27735 L 5.84761 9.31695 L 5.78473 9.35612 L 5.72158 9.39486 L 5.65818 9.43319 L 5.59452 9.47108 L 5.40493 9.58054 L 5.34029 9.61672 L 5.2754 9.65247 L 5.21027 9.68778 L 5.14491 9.72265 L 5.07931 9.75708 L 5.00902 9.71007 L 4.92962 9.66753 L 4.85011 9.62477 L 4.7705 9.5818 L 4.69077 9.53859 L 4.61092 9.49516 L 4.53096 9.45148 L 4.45088 9.40756 L 4.37069 9.36339 L 4.29037 9.31897 L 4.20994 9.27428 L 4.12938 9.22933 L 4.0487 9.1841 L 3.96789 9.13859 L 3.88697 9.09279 L 3.80591 9.0467 L 3.72473 9.0003 L 3.64341 8.95359 L 3.56197 8.90656 L 3.4804 8.8592 L 3.39869 8.81151 L 3.31685 8.76348 L 3.23488 8.71509 L 3.15277 8.66633 L 3.07053 8.6172 L 2.98815 8.56769 L 2.90564 8.51779 L 2.82298 8.46748 L 2.74019 8.41676 L 2.65726 8.36561 L 2.57419 8.31403 L 2.49098 8.26199 L 2.40763 8.20948 L 2.32414 8.1565 L 2.24051 8.10303 L 2.15674 8.04906 L 2.15674 8.04906 L 2.11118 8.13769 L 2.06549 8.22581 L 2.01968 8.31344 L 1.97374 8.40058 L 1.9277 8.48725 L 1.88155 8.57346 L 1.83531 8.65922 L 1.78897 8.74455 L 1.74254 8.82944 L 1.69603 8.91392 L 1.64944 8.99798 L 1.60278 9.08165 L 1.55605 9.16493 L 1.50926 9.24782 L 1.4624 9.33034 L 1.41549 9.41249 L 1.36852 9.49429 L 1.32151 9.57574 L 1.27444 9.65685 L 1.22733 9.73762 L 1.18019 9.81807 L 1.133 9.8982 L 1.08577 9.97802 L 1.03852 10.0575 L 0.991231 10.1367 L 0.943914 10.2157 L 0.896571 10.2943 L 0.849204 10.3726 L 0.801814 10.4507 L 0.754404 10.5285 L 0.706974 10.606 L 0.659528 10.6833 L 0.612065 10.7604 L 0.564589 10.8371 L 0.5171 10.9137 L 0.479726 10.9895 L 0.405703 10.9925 L 0.331661 10.995 L 0.257605 10.997 L 0.183536 10.9985 L 0.10946 10.9995 L -0.10946 10.9995 L -0.183536 10.9985 L -0.257605 10.997 L -0.331661 10.995 L -0.405703 10.9925 L -0.479726 10.9895 L -0.5171 10.9137 L -0.564589 10.8371 L -0.612065 10.7604 L -0.659528 10.6833 L -0.706974 10.606 L -0.754404 10.5285 L -0.801814 10.4507 L -0.849204 10.3726 L -0.896571 10.2943 L -0.943914 10.2157 L -0.991231 10.1367 L -1.03852 10.0575 L -1.08577 9.97802 L -1.133 9.8982 L -1.18019 9.81807 L -1.22733 9.73762 L -1.27444 9.65685 L -1.32151 9.57574 L -1.36852 9.49429 L -1.41549 9.41249 L -1.4624 9.33034 L -1.50926 9.24782 L -1.55605 9.16493 L -1.60278 9.08165 L -1.64944 8.99798 L -1.69603 8.91392 L -1.74254 8.82944 L -1.78897 8.74455 L -1.83531 8.65922 L -1.88155 8.57346 L -1.9277 8.48725 L -1.97374 8.40058 L -2.01968 8.31344 L -2.06549 8.22581 L -2.11118 8.13769 L -2.15674 8.04906 L -2.15674 8.04906 L -2.24051 8.10303 L -2.32414 8.1565 L -2.40763 8.20948 L -2.49098 8.26199 L -2.57419 8.31403 L -2.65726 8.36561 L -2.74019 8.41676 L -2.82298 8.46748 L -2.90564 8.51779 L -2.98815 8.56769 L -3.07053 8.6172 L -3.15277 8.66633 L -3.23488 8.71509 L -3.31685 8.76348 L -3.39869 8.81151 L -3.4804 8.8592 L -3.56197 8.90656 L -3.64341 8.95359 L -3.72473 9.0003 L -3.80591 9.0467 L -3.88697 9.09279 L -3.96789 9.13859 L -4.0487 9.1841 L -4.12938 9.22933 L -4.20994 9.27428 L -4.29037 9.31897 L -4.37069 9.36339 L -4.45088 9.40756 L -4.53096 9.45148 L -4.61092 9.49516 L -4.69077 9.53859 L -4.7705 9.5818 L -4.85011 9.62477 L -4.92962 9.66753 L -5.00902 9.71007 L -5.07931 9.75708 L -5.14491 9.72265 L -5.21027 9.68778 L -5.2754 9.65247 L -5.34029 9.61672 L -5.40493 9.58054 L -5.59452 9.47108 L -5.65818 9.43319 L -5.72158 9.39486 L -5.78473 9.35612 L -5.84761 9.31695 L -5.91022 9.27735 L -5.90466 9.19297 L -5.90752 9.10294 L -5.91024 9.01271 L -5.91283 8.92227 L -5.91528 8.83162 L -5.91759 8.74075 L -5.91974 8.64967 L -5.92175 8.55836 L -5.92359 8.46682 L -5.92528 8.37506 L -5.9268 8.28305 L -5.92815 8.19081 L -5.92932 8.09833 L -5.93031 8.00559 L -5.93111 7.91261 L -5.93172 7.81936 L -5.93213 7.72586 L -5.93233 7.63208 L -5.93232 7.53804 L -5.9321 7.44371 L -5.93165 7.34911 L -5.93097 7.25422 L -5.93004 7.15903 L -5.92888 7.06355 L -5.92745 6.96776 L -5.92576 6.87166 L -5.92381 6.77525 L -5.92157 6.67852 L -5.91903 6.58146 L -5.9162 6.48406 L -5.91306 6.38633 L -5.9096 6.28824 L -5.90581 6.18981 L -5.90167 6.09101 L -5.89718 5.99185 L -5.89232 5.89232 L -5.89232 5.89232 L -5.99185 5.89718 L -6.09101 5.90167 L -6.18981 5.90581 L -6.28824 5.9096 L -6.38633 5.91306 L -6.48406 5.9162 L -6.58146 5.91903 L -6.67852 5.92157 L -6.77525 5.92381 L -6.87166 5.92576 L -6.96776 5.92745 L -7.06355 5.92888 L -7.15903 5.93004 L -7.25422 5.93097 L -7.34911 5.93165 L -7.44371 5.9321 L -7.53804 5.93232 L -7.63208 5.93233 L -7.72586 5.93213 L -7.81936 5.93172 L -7.91261 5.93111 L -8.00559 5.93031 L -8.09833 5.92932 L -8.19081 5.92815 L -8.28305 5.9268 L -8.37506 5.92528 L -8.46682 5.92359 L -8.55836 5.92175 L -8.64967 5.91974 L -8.74075 5.91759 L -8.83162 5.91528 L -8.92227 5.91283 L -9.01271 5.91024 L -9.10294 5.90752 L -9.19297 5.90466 L -9.27735 5.91022 L -9.31695 5.84761 L -9.35612 5.78473 L -9.39486 5.72158 L -9.43319 5.65818 L -9.47108 5.59452 L -9.58054 5.40493 L -9.61672 5.34029 L -9.65247 5.2754 L -9.68778 5.21027 L -9.72265 5.14491 L -9.75708 5.07931 L -9.71007 5.00902 L -9.66753 4.92962 L -9.62477 4.85011 L -9.5818 4.7705 L -9.53859 4.69077 L -9.49516 4.61092 L -9.45148 4.53096 L -9.40756 4.45088 L -9.36339 4.37069 L -9.31897 4.29037 L -9.27428 4.20994 L -9.22933 4.12938 L -9.1841 4.0487 L -9.13859 3.96789 L -9.09279 3.88697 L -9.0467 3.80591 L -9.0003 3.72473 L -8.95359 3.64341 L -8.90656 3.56197 L -8.8592 3.4804 L -8.81151 3.39869 L -8.76348 3.31685 L -8.71509 3.23488 L -8.66633 3.15277 L -8.6172 3.07053 L -8.56769 2.98815 L -8.51779 2.90564 L -8.46748 2.82298 L -8.41676 2.74019 L -8.36561 2.65726 L -8.31403 2.57419 L -8.26199 2.49098 L -8.20948 2.40763 L -8.1565 2.32414 L -8.10303 2.24051 L -8.04906 2.15674 L -8.04906 2.15674 L -8.13769 2.11118 L -8.22581 2.06549 L -8.31344 2.01968 L -8.40058 1.97374 L -8.48725 1.9277 L -8.57346 1.88155 L -8.65922 1.83531 L -8.74455 1.78897 L -8.82944 1.74254 L -8.91392 1.69603 L -8.99798 1.64944 L -9.08165 1.60278 L -9.16493 1.55605 L -9.24782 1.50926 L -9.33034 1.4624 L -9.41249 1.41549 L -9.49429 1.36852 L -9.57574 1.32151 L -9.65685 1.27444 L -9.73762 1.22733 L -9.81807 1.18019 L -9.8982 1.133 L -9.97802 1.08577 L -10.0575 1.03852 L -10.1367 0.991231 L -10.2157 0.943914 L -10.2943 0.896571 L -10.3726 0.849204 L -10.4507 0.801814 L -10.5285 0.754404 L -10.606 0.706974 L -10.6833 0.659528 L -10.7604 0.612065 L -10.8371 0.564589 L -10.9137 0.5171 L -10.9895 0.479726 L -10.9925 0.405703 L -10.995 0.331661 L -10.997 0.257605 L -10.9985 0.183536 L -10.9995 0.10946 L -10.9995 -0.10946 L -10.9985 -0.183536 L -10.997 -0.257605 L -10.995 -0.331661 L -10.9925 -0.405703 L -10.9895 -0.479726 L -10.9137 -0.5171 L -10.8371 -0.564589 L -10.7604 -0.612065 L -10.6833 -0.659528 L -10.606 -0.706974 L -10.5285 -0.754404 L -10.4507 -0.801814 L -10.3726 -0.849204 L -10.2943 -0.896571 L -10.2157 -0.943914 L -10.1367 -0.991231 L -10.0575 -1.03852 L -9.97802 -1.08577 L -9.8982 -1.133 L -9.81807 -1.18019 L -9.73762 -1.22733 L -9.65685 -1.27444 L -9.57574 -1.32151 L -9.49429 -1.36852 L -9.41249 -1.41549 L -9.33034 -1.4624 L -9.24782 -1.50926 L -9.16493 -1.55605 L -9.08165 -1.60278 L -8.99798 -1.64944 L -8.91392 -1.69603 L -8.82944 -1.74254 L -8.74455 -1.78897 L -8.65922 -1.83531 L -8.57346 -1.88155 L -8.48725 -1.9277 L -8.40058 -1.97374 L -8.31344 -2.01968 L -8.22581 -2.06549 L -8.13769 -2.11118 L -8.04906 -2.15674 L -8.04906 -2.15674 L -8.10303 -2.24051 L -8.1565 -2.32414 L -8.20948 -2.40763 L -8.26199 -2.49098 L -8.31403 -2.57419 L -8.36561 -2.65726 L -8.41676 -2.74019 L -8.46748 -2.82298 L -8.51779 -2.90564 L -8.56769 -2.98815 L -8.6172 -3.07053 L -8.66633 -3.15277 L -8.71509 -3.23488 L -8.76348 -3.31685 L -8.81151 -3.39869 L -8.8592 -3.4804 L -8.90656 -3.56197 L -8.95359 -3.64341 L -9.0003 -3.72473 L -9.0467 -3.80591 L -9.09279 -3.88697 L -9.13859 -3.96789 L -9.1841 -4.0487 L -9.22933 -4.12938 L -9.27428 -4.20994 L -9.31897 -4.29037 L -9.36339 -4.37069 L -9.40756 -4.45088 L -9.45148 -4.53096 L -9.49516 -4.61092 L -9.53859 -4.69077 L -9.5818 -4.7705 L -9.62477 -4.85011 L -9.66753 -4.92962 L -9.71007 -5.00902 L -9.75708 -5.07931 L -9.72265 -5.14491 L -9.68778 -5.21027 L -9.65247 -5.2754 L -9.61672 -5.34029 L -9.58054 -5.40493 L -9.47108 -5.59452 L -9.43319 -5.65818 L -9.39486 -5.72158 L -9.35612 -5.78473 L -9.31695 -5.84761 L -9.27735 -5.91022 L -9.19297 -5.90466 L -9.10294 -5.90752 L -9.01271 -5.91024 L -8.92227 -5.91283 L -8.83162 -5.91528 L -8.74075 -5.91759 L -8.64967 -5.91974 L -8.55836 -5.92175 L -8.46682 -5.92359 L -8.37506 -5.92528 L -8.28305 -5.9268 L -8.19081 -5.92815 L -8.09833 -5.92932 L -8.00559 -5.93031 L -7.91261 -5.93111 L -7.81936 -5.93172 L -7.72586 -5.93213 L -7.63208 -5.93233 L -7.53804 -5.93232 L -7.44371 -5.9321 L -7.34911 -5.93165 L -7.25422 -5.93097 L -7.15903 -5.93004 L -7.06355 -5.92888 L -6.96776 -5.92745 L -6.87166 -5.92576 L -6.77525 -5.92381 L -6.67852 -5.92157 L -6.58146 -5.91903 L -6.48406 -5.9162 L -6.38633 -5.91306 L -6.28824 -5.9096 L -6.18981 -5.90581 L -6.09101 -5.90167 L -5.99185 -5.89718 L -5.89232 -5.89232 L -5.89232 -5.89232 L -5.89718 -5.99185 L -5.90167 -6.09101 L -5.90581 -6.18981 L -5.9096 -6.28824 L -5.91306 -6.38633 L -5.9162 -6.48406 L -5.91903 -6.58146 L -5.92157 -6.67852 L -5.92381 -6.77525 L -5.92576 -6.87166 L -5.92745 -6.96776 L -5.92888 -7.06355 L -5.93004 -7.15903 L -5.93097 -7.25422 L -5.93165 -7.34911 L -5.9321 -7.44371 L -5.93232 -7.53804 L -5.93233 -7.63208 L -5.93213 -7.72586 L -5.93172 -7.81936 L -5.93111 -7.91261 L -5.93031 -8.00559 L -5.92932 -8.09833 L -5.92815 -8.19081 L -5.9268 -8.28305 L -5.92528 -8.37506 L -5.92359 -8.46682 L -5.92175 -8.55836 L -5.91974 -8.64967 L -5.91759 -8.74075 L -5.91528 -8.83162 L -5.91283 -8.92227 L -5.91024 -9.01271 L -5.90752 -9.10294 L -5.90466 -9.19297 L -5.91022 -9.27735 L -5.84761 -9.31695 L -5.78473 -9.35612 L -5.72158 -9.39486 L -5.65818 -9.43319 L -5.59452 -9.47108 L -5.40493 -9.58054 L -5.34029 -9.61672 L -5.2754 -9.65247 L -5.21027 -9.68778 L -5.14491 -9.72265 L -5.07931 -9.75708 L -5.00902 -9.71007 L -4.92962 -9.66753 L -4.85011 -9.62477 L -4.7705 -9.5818 L -4.69077 -9.53859 L -4.61092 -9.49516 L -4.53096 -9.45148 L -4.45088 -9.40756 L -4.37069 -9.36339 L -4.29037 -9.31897 L -4.20994 -9.27428 L -4.12938 -9.22933 L -4.0487 -9.1841 L -3.96789 -9.13859 L -3.88697 -9.09279 L -3.80591 -9.0467 L -3.72473 -9.0003 L -3.64341 -8.95359 L -3.56197 -8.90656 L -3.4804 -8.8592 L -3.39869 -8.81151 L -3.31685 -8.76348 L -3.23488 -8.71509 L -3.15277 -8.66633 L -3.07053 -8.6172 L -2.98815 -8.56769 L -2.90564 -8.51779 L -2.82298 -8.46748 L -2.74019 -8.41676 L -2.65726 -8.36561 L -2.57419 -8.31403 L -2.49098 -8.26199 L -2.40763 -8.20948 L -2.32414 -8.1565 L -2.24051 -8.10303 L -2.15674 -8.04906 L -2.15674 -8.04906 L -2.11118 -8.13769 L -2.06549 -8.22581 L -2.01968 -8.31344 L -1.97374 -8.40058 L -1.9277 -8.48725 L -1.88155 -8.57346 L -1.83531 -8.65922 L -1.78897 -8.74455 L -1.74254 -8.82944 L -1.69603 -8.91392 L -1.64944 -8.99798 L -1.60278 -9.08165 L -1.55605 -9.16493 L -1.50926 -9.24782 L -1.4624 -9.33034 L -1.41549 -9.41249 L -1.36852 -9.49429 L -1.32151 -9.57574 L -1.27444 -9.65685 L -1.22733 -9.73762 L -1.18019 -9.81807 L -1.133 -9.8982 L -1.08577 -9.97802 L -1.03852 -10.0575 L -0.991231 -10.1367 L -0.943914 -10.2157 L -0.896571 -10.2943 L -0.849204 -10.3726 L -0.801814 -10.4507 L -0.754404 -10.5285 L -0.706974 -10.606 L -0.659528 -10.6833 L -0.612065 -10.7604 L -0.564589 -10.8371 L -0.5171 -10.9137 L -0.479726 -10.9895 L -0.405703 -10.9925 L -0.331661 -10.995 L -0.257605 -10.997 L -0.183536 -10.9985 L -0.10946 -10.9995 L 0.10946 -10.9995 L 0.183536 -10.9985 L 0.257605 -10.997 L 0.331661 -10.995 L 0.405703 -10.9925 L 0.479726 -10.9895 L 0.5171 -10.9137 L 0.564589 -10.8371 L 0.612065 -10.7604 L 0.659528 -10.6833 L 0.706974 -10.606 L 0.754404 -10.5285 L 0.801814 -10.4507 L 0.849204 -10.3726 L 0.896571 -10.2943 L 0.943914 -10.2157 L 0.991231 -10.1367 L 1.03852 -10.0575 L 1.08577 -9.97802 L 1.133 -9.8982 L 1.18019 -9.81807 L 1.22733 -9.73762 L 1.27444 -9.65685 L 1.32151 -9.57574 L 1.36852 -9.49429 L 1.41549 -9.41249 L 1.4624 -9.33034 L 1.50926 -9.24782 L 1.55605 -9.16493 L 1.60278 -9.08165 L 1.64944 -8.99798 L 1.69603 -8.91392 L 1.74254 -8.82944 L 1.78897 -8.74455 L 1.83531 -8.65922 L 1.88155 -8.57346 L 1.9277 -8.48725 L 1.97374 -8.40058 L 2.01968 -8.31344 L 2.06549 -8.22581 L 2.11118 -8.13769 L 2.15674 -8.04906 L 2.15674 -8.04906 L 2.24051 -8.10303 L 2.32414 -8.1565 L 2.40763 -8.20948 L 2.49098 -8.26199 L 2.57419 -8.31403 L 2.65726 -8.36561 L 2.74019 -8.41676 L 2.82298 -8.46748 L 2.90564 -8.51779 L 2.98815 -8.56769 L 3.07053 -8.6172 L 3.15277 -8.66633 L 3.23488 -8.71509 L 3.31685 -8.76348 L 3.39869 -8.81151 L 3.4804 -8.8592 L 3.56197 -8.90656 L 3.64341 -8.95359 L 3.72473 -9.0003 L 3.80591 -9.0467 L 3.88697 -9.09279 L 3.96789 -9.13859 L 4.0487 -9.1841 L 4.12938 -9.22933 L 4.20994 -9.27428 L 4.29037 -9.31897 L 4.37069 -9.36339 L 4.45088 -9.40756 L 4.53096 -9.45148 L 4.61092 -9.49516 L 4.69077 -9.53859 L 4.7705 -9.5818 L 4.85011 -9.62477 L 4.92962 -9.66753 L 5.00902 -9.71007 L 5.07931 -9.75708 L 5.14491 -9.72265 L 5.21027 -9.68778 L 5.2754 -9.65247 L 5.34029 -9.61672 L 5.40493 -9.58054 L 5.59452 -9.47108 L 5.65818 -9.43319 L 5.72158 -9.39486 L 5.78473 -9.35612 L 5.84761 -9.31695 L 5.91022 -9.27735 L 5.90466 -9.19297 L 5.90752 -9.10294 L 5.91024 -9.01271 L 5.91283 -8.92227 L 5.91528 -8.83162 L 5.91759 -8.74075 L 5.91974 -8.64967 L 5.92175 -8.55836 L 5.92359 -8.46682 L 5.92528 -8.37506 L 5.9268 -8.28305 L 5.92815 -8.19081 L 5.92932 -8.09833 L 5.93031 -8.00559 L 5.93111 -7.91261 L 5.93172 -7.81936 L 5.93213 -7.72586 L 5.93233 -7.63208 L 5.93232 -7.53804 L 5.9321 -7.44371 L 5.93165 -7.34911 L 5.93097 -7.25422 L 5.93004 -7.15903 L 5.92888 -7.06355 L 5.92745 -6.96776 L 5.92576 -6.87166 L 5.92381 -6.77525 L 5.92157 -6.67852 L 5.91903 -6.58146 L 5.9162 -6.48406 L 5.91306 -6.38633 L 5.9096 -6.28824 L 5.90581 -6.18981 L 5.90167 -6.09101 L 5.89718 -5.99185 L 5.89232 -5.89232 L 5.89232 -5.89232 L 5.99185 -5.89718 L 6.09101 -5.90167 L 6.18981 -5.90581 L 6.28824 -5.9096 L 6.38633 -5.91306 L 6.48406 -5.9162 L 6.58146 -5.91903 L 6.67852 -5.92157 L 6.77525 -5.92381 L 6.87166 -5.92576 L 6.96776 -5.92745 L 7.06355 -5.92888 L 7.15903 -5.93004 L 7.25422 -5.93097 L 7.34911 -5.93165 L 7.44371 -5.9321 L 7.53804 -5.93232 L 7.63208 -5.93233 L 7.72586 -5.93213 L 7.81936 -5.93172 L 7.91261 -5.93111 L 8.00559 -5.93031 L 8.09833 -5.92932 L 8.19081 -5.92815 L 8.28305 -5.9268 L 8.37506 -5.92528 L 8.46682 -5.92359 L 8.55836 -5.92175 L 8.64967 -5.91974 L 8.74075 -5.91759 L 8.83162 -5.91528 L 8.92227 -5.91283 L 9.01271 -5.91024 L 9.10294 -5.90752 L 9.19297 -5.90466 L 9.27735 -5.91022 L 9.31695 -5.84761 L 9.35612 -5.78473 L 9.39486 -5.72158 L 9.43319 -5.65818 L 9.47108 -5.59452 L 9.58054 -5.40493 L 9.61672 -5.34029 L 9.65247 -5.2754 L 9.68778 -5.21027 L 9.72265 -5.14491 L 9.75708 -5.07931 L 9.71007 -5.00902 L 9.66753 -4.92962 L 9.62477 -4.85011 L 9.5818 -4.7705 L 9.53859 -4.69077 L 9.49516 -4.61092 L 9.45148 -4.53096 L 9.40756 -4.45088 L 9.36339 -4.37069 L 9.31897 -4.29037 L 9.27428 -4.20994 L 9.22933 -4.12938 L 9.1841 -4.0487 L 9.13859 -3.96789 L 9.09279 -3.88697 L 9.0467 -3.80591 L 9.0003 -3.72473 L 8.95359 -3.64341 L 8.90656 -3.56197 L 8.8592 -3.4804 L 8.81151 -3.39869 L 8.76348 -3.31685 L 8.71509 -3.23488 L 8.66633 -3.15277 L 8.6172 -3.07053 L 8.56769 -2.98815 L 8.51779 -2.90564 L 8.46748 -2.82298 L 8.41676 -2.74019 L 8.36561 -2.65726 L 8.31403 -2.57419 L 8.26199 -2.49098 L 8.20948 -2.40763 L 8.1565 -2.32414 L 8.10303 -2.24051 L 8.04906 -2.15674 L 8.04906 -2.15674 L 8.13769 -2.11118 L 8.22581 -2.06549 L 8.31344 -2.01968 L 8.40058 -1.97374 L 8.48725 -1.9277 L 8.57346 -1.88155 L 8.65922 -1.83531 L 8.74455 -1.78897 L 8.82944 -1.74254 L 8.91392 -1.69603 L 8.99798 -1.64944 L 9.08165 -1.60278 L 9.16493 -1.55605 L 9.24782 -1.50926 L 9.33034 -1.4624 L 9.41249 -1.41549 L 9.49429 -1.36852 L 9.57574 -1.32151 L 9.65685 -1.27444 L 9.73762 -1.22733 L 9.81807 -1.18019 L 9.8982 -1.133 L 9.97802 -1.08577 L 10.0575 -1.03852 L 10.1367 -0.991231 L 10.2157 -0.943914 L 10.2943 -0.896571 L 10.3726 -0.849204 L 10.4507 -0.801814 L 10.5285 -0.754404 L 10.606 -0.706974 L 10.6833 -0.659528 L 10.7604 -0.612065 L 10.8371 -0.564589 L 10.9137 -0.5171 L 10.9895 -0.479726 L 10.9925 -0.405703 L 10.995 -0.331661 L 10.997 -0.257605 L 10.9985 -0.183536 L 10.9995 -0.10946Z"
id="path1" />
</g>
</svg>
