<?xml version="1.0" encoding="UTF-8" standalone="no"?>
<svg version="1.1">
<g
style="fill:none;stroke:#000000;stroke-opacity:1;stroke-width:0.1">
<path d="M 13.2493 0.134513 L 13.2483 0.21494 L 13.2467 0.29536 L 13.2447 0.375769 L 13.2421 0.456164 L 13.2391 0.536542 L 13.1573 0.569365 L 13.0748 0.612223 L 12.9922 0.655072 L 12.9094 0.697913 L 12.8265 0.740745 L 12.7433 0.783566 L 12.66 0.826376 L 12.5765 0.869175 L 12.4928 0.911961 L 12.409 0.954732 L 12.3249 0.997489 L 12.2407 1.04023 L 12.1562 1.08295 L 12.0715 1.12566 L 11.9867 1.16835 L 11.9016 1.21101 L 11.8163 1.25366 L 11.7308 1.29628 L 11.645 1.33887 L 11.559 1.38144 L 11.4728 1.42398 L 11.3864 1.46649 L 11.2997 1.50897 L 11.2127 1.55142 L 11.1255 1.59383 L 11.0381 1.6362 L 10.9504 1.67853 L 10.8624 1.72083 L 10.7741 1.76308 L 10.6855 1.80528 L 10.5967 1.84743 L 10.5075 1.88953 L 10.4181 1.93158 L 10.3283 1.97357 L 10.2383 2.0155 L 10.1479 2.05737 L 10.0572 2.09917 L 9.96612 2.1409 L 9.87472 2.18255 L 9.78297 2.22413 L 9.69086 2.26563 L 9.59838 2.30704 L 9.50552 2.34836 L 9.41227 2.38958 L 9.31863 2.4307 L 9.22459 2.47172 L 9.22459 2.47172 L 9.28553 2.55427 L 9.34606 2.6367 L 9.4062 2.71902 L 9.46596 2.80123 L 9.52534 2.88334 L 9.58437 2.96533 L 9.64304 3.04721 L 9.70136 3.12899 L 9.75935 3.21065 L 9.81702 3.29221 L 9.87436 3.37367 L 9.9314 3.45501 L 9.98813 3.53625 L 10.0446 3.61739 L 10.1007 3.69842 L 10.1566 3.77935 L 10.2122 3.86018 L 10.2675 3.9409 L 10.3226 4.02153 L 10.3774 4.10205 L 10.4319 4.18248 L 10.4862 4.26281 L 10.5403 4.34304 L 10.5941 4.42317 L 10.6478 4.50322 L 10.7011 4.58316 L 10.7543 4.66302 L 10.8073 4.74278 L 10.86 4.82245 L 10.9126 4.90203 L 10.9649 4.98152 L 11.0171 5.06092 L 11.0691 5.14024 L 11.1208 5.21947 L 11.1724 5.29861 L 11.2239 5.37767 L 11.2751 5.45664 L 11.3262 5.53553 L 11.3771 5.61434 L 11.4278 5.69307 L 11.4784 5.77172 L 11.5288 5.85029 L 11.5791 5.92879 L 11.6292 6.0072 L 11.6792 6.08554 L 11.7337 6.15491 L 11.6961 6.22602 L 11.6581 6.29691 L 11.6197 6.36756 L 11.5808 6.43798 L 11.5415 6.50817 L 11.407 6.74115 L 11.3659 6.81027 L 11.3243 6.87914 L 11.2823 6.94776 L 11.24 7.01612 L 11.1972 7.08423 L 11.1098 7.07171 L 11.017 7.0676 L 10.924 7.0634 L 10.8309 7.05912 L 10.7377 7.05473 L 10.6443 7.05025 L 10.5507 7.04567 L 10.457 7.04099 L 10.3631 7.0362 L 10.2691 7.03131 L 10.1749 7.02631 L 10.0806 7.0212 L 9.9861 7.01597 L 9.89143 7.01062 L 9.79659 7.00515 L 9.70157 6.99956 L 9.60638 6.99384 L 9.51101 6.98799 L 9.41545 6.98201 L 9.31971 6.97589 L 9.22378 6.96962 L 9.12765 6.96321 L 9.03133 6.95665 L 8.93481 6.94994 L 8.83809 6.94307 L 8.74116 6.93603 L 8.64402 6.92883 L 8.54667 6.92146 L 8.4491 6.91391 L 8.3513 6.90618 L 8.25328 6.89827 L 8.15503 6.89016 L 8.05655 6.88185 L 7.95783 6.87334 L 7.85886 6.86462 L 7.75965 6.85568 L 7.66019 6.84652 L 7.56046 6.83713 L 7.46048 6.82751 L 7.36023 6.81764 L 7.25971 6.80752 L 7.15892 6.79714 L 7.05784 6.7865 L 6.95648 6.77557 L 6.85482 6.76437 L 6.75287 6.75287 L 6.75287 6.75287 L 6.76437 6.85482 L 6.77557 6.95648 L 6.7865 7.05784 L 6.79714 7.15892 L 6.80752 7.25971 L 6.81764 7.36023 L 6.82751 7.46048 L 6.83713 7.56046 L 6.84652 7.66019 L 6.85568 7.75965 L 6.86462 7.85886 L 6.87334 7.95783 L 6.88185 8.05655 L 6.89016 8.15503 L 6.89827 8.25328 L 6.90618 8.3513 L 6.91391 8.4491 L 6.92146 8.54667 L 6.92883 8.64402 L 6.93603 8.74116 L 6.94307 8.83809 L 6.94994 8.93481 L 6.95665 9.03133 L 6.96321 9.12765 L 6.96962 9.22378 L 6.97589 9.31971 L 6.98201 9.41545 L 6.98799 9.51101 L 6.99384 9.60638 L 6.99956 9.70157 L 7.00515 9.79659 L 7.01062 9.89143 L 7.01597 9.9861 L 7.0212 10.0806 L 7.02631 10.1749 L 7.03131 10.2691 L 7.0362 10.3631 L 7.04099 10.457 L 7.04567 10.5507 L 7.05025 10.6443 L 7.05473 10.7377 L 7.05912 10.8309 L 7.0634 10.924 L 7.0676 11.017 L 7.07171 11.1098 L 7.08423 11.1972 L 7.01612 11.24 L 6.94776 11.2823 L 6.87914 11.3243 L 6.81027 11.3659 L 6.74115 11.407 L 6.50817 11.5415 L 6.43798 11.5808 L 6.36756 11.6197 L 6.29691 11.6581 L 6.22602 11.6961 L 6.15491 11.7337 L 6.08554 11.6792 L 6.0072 11.6292 L 5.92879 11.5791 L 5.85029 11.5288 L 5.77172 11.4784 L 5.69307 11.4278 L 5.61434 11.3771 L 5.53553 11.3262 L 5.45664 11.2751 L 5.37767 11.2239 L 5.29861 11.1724 L 5.21947 11.1208 L 5.14024 11.0691 L 5.06092 11.0171 L 4.98152 10.9649 L 4.90203 10.9126 L 4.82245 10.86 L 4.74278 10.8073 L 4.66302 10.7543 L 4.58316 10.7011 L 4.50322 10.6478 L 4.42317 10.5941 L 4.34304 10.5403 L 4.26281 10.4862 L 4.18248 10.4319 L 4.10205 10.3774 L 4.02153 10.3226 L 3.9409 10.2675 L 3.86018 10.2122 L 3.77935 10.1566 L 3.69842 10.1007 L 3.61739 10.0446 L 3.53625 9.98813 L 3.45501 9.9314 L 3.37367 9.87436 L 3.29221 9.81702 L 3.21065 9.75935 L 3.12899 9.70136 L 3.04721 9.64304 L 2.96533 9.58437 L 2.88334 9.52534 L 2.80123 9.46596 L 2.71902 9.4062 L 2.6367 9.34606 L 2.55427 9.28553 L 2.47172 9.22459 L 2.47172 9.22459 L 2.4307 9.31863 L 2.38958 9.41227 L 2.34836 9.50552 L 2.30704 9.59838 L 2.26563 9.69086 L 2.22413 9.78297 L 2.18255 9.87472 L 2.1409 9.96612 L 2.09917 10.0572 L 2.05737 10.1479 L 2.0155 10.2383 L 1.97357 10.3283 L 1.93158 10.4181 L 1.88953 10.5075 L 1.84743 10.5967 L 1.80528 10.6855 L 1.76308 10.7741 L 1.72083 10.8624 L 1.67853 10.9504 L 1.6362 11.0381 L 1.59383 11.1255 L 1.55142 11.2127 L 1.50897 11.2997 L 1.46649 11.3864 L 1.42398 11.4728 L 1.38144 11.559 L 1.33887 11.645 L 1.29628 11.7308 L 1.25366 11.8163 L 1.21101 11.9016 L 1.16835 11.9867 L 1.12566 12.0715 L 1.08295 12.1562 L 1.04023 12.2407 L 0.997489 12.3249 L 0.954732 12.409 L 0.911961 12.4928 L 0.869175 12.5765 L 0.826376 12.66 L 0.783566 12.7433 L 0.740745 12.8265 L 0.697913 12.9094 L 0.655072 12.9922 L 0.612223 13.0748 L 0.569365 13.1573 L 0.536542 13.2391 L 0.456164 13.2421 L 0.375769 13.2447 L 0.29536 13.2467 L 0.21494 13.2483 L 0.134513 13.2493 L -0.134513 13.2493 L -0.21494 13.2483 L -0.29536 13.2467 L -0.375769 13.2447 L -0.456164 13.2421 L -0.536542 13.2391 L -0.569365 13.1573 L -0.612223 13.0748 L -0.655072 12.9922 L -0.697913 12.9094 L -0.740745 12.8265 L -0.783566 12.7433 L -0.826376 12.66 L -0.869175 12.5765 L -0.911961 12.4928 L -0.954732 12.409 L -0.997489 12.3249 L -1.04023 12.2407 L -1.08295 12.1562 L -1.12566 12.0715 L -1.16835 11.9867 L -1.21101 11.9016 L -1.25366 11.8163 L -1.29628 11.7308 L -1.33887 11.645 L -1.38144 11.559 L -1.42398 11.4728 L -1.46649 11.3864 L -1.50897 11.2997 L -1.55142 11.2127 L -1.59383 11.1255 L -1.6362 11.0381 L -1.67853 10.9504 L -1.72083 10.8624 L -1.76308 10.7741 L -1.80528 10.6855 L -1.84743 10.5967 L -1.88953 10.5075 L -1.93158 10.4181 L -1.97357 10.3283 L -2.0155 10.2383 L -2.05737 10.1479 L -2.09917 10.0572 L -2.1409 9.96612 L -2.18255 9.87472 L -2.22413 9.78297 L -2.26563 9.69086 L -2.30704 9.59838 L -2.34836 9.50552 L -2.38958 9.41227 L -2.4307 9.31863 L -2.47172 9.22459 L -2.47172 9.22459 L -2.55427 9.28553 L -2.6367 9.34606 L -2.71902 9.4062 L -2.80123 9.46596 L -2.88334 9.52534 L -2.96533 9.58437 L -3.04721 9.64304 L -3.12899 9.70136 L -3.21065 9.75935 L -3.29221 9.81702 L -3.37367 9.87436 L -3.45501 9.9314 L -3.53625 9.98813 L -3.61739 10.0446 L -3.69842 10.1007 L -3.77935 10.1566 L -3.86018 10.2122 L -3.9409 10.2675 L -4.02153 10.3226 L -4.10205 10.3774 L -4.18248 10.4319 L -4.26281 10.4862 L -4.34304 10.5403 L -4.42317 10.5941 L -4.50322 10.6478 L -4.58316 10.7011 L -4.66302 10.7543 L -4.74278 10.8073 L -4.82245 10.86 L -4.90203 10.9126 L -4.98152 10.9649 L -5.06092 11.0171 L -5.14024 11.0691 L -5.21947 11.1208 L -5.29861 11.1724 L -5.37767 11.2239 L -5.45664 11.2751 L -5.53553 11.3262 L -5.61434 11.3771 L -5.69307 11.4278 L -5.77172 11.4784 L -5.85029 11.5288 L -5.92879 11.5791 L -6.0072 11.6292 L -6.08554 11.6792 L -6.15491 11.7337 L -6.22602 11.6961 L -6.29691 11.6581 L -6.36756 11.6197 L -6.43798 11.5808 L -6.50817 11.5415 L -6.74115 11.407 L -6.81027 11.3659 L -6.87914 11.3243 L -6.94776 11.2823 L -7.01612 11.24 L -7.08423 11.1972 L -7.07171 11.1098 L -7.0676 11.017 L -7.0634 10.924 L -7.05912 10.8309 L -7.05473 10.7377 L -7.05025 10.6443 L -7.04567 10.5507 L -7.04099 10.457 L -7.0362 10.3631 L -7.03131 10.2691 L -7.02631 10.1749 L -7.0212 10.0806 L -7.01597 9.9861 L -7.01062 9.89143 L -7.00515 9.79659 L -6.99956 9.70157 L -6.99384 9.60638 L -6.98799 9.51101 L -6.98201 9.41545 L -6.97589 9.31971 L -6.96962 9.22378 L -6.96321 9.12765 L -6.95665 9.03133 L -6.94994 8.93481 L -6.94307 8.83809 L -6.93603 8.74116 L -6.92883 8.64402 L -6.92146 8.54667 L -6.91391 8.4491 L -6.90618 8.3513 L -6.89827 8.25328 L -6.89016 8.15503 L -6.88185 8.05655 L -6.87334 7.95783 L -6.86462 7.85886 L -6.85568 7.75965 L -6.84652 7.66019 L -6.83713 7.56046 L -6.82751 7.46048 L -6.81764 7.36023 L -6.80752 7.25971 L -6.79714 7.15892 L -6.7865 7.05784 L -6.77557 6.95648 L -6.76437 6.85482 L -6.75287 6.75287 L -6.75287 6.75287 L -6.85482 6.76437 L -6.95648 6.77557 L -7.05784 6.7865 L -7.15892 6.79714 L -7.25971 6.80752 L -7.36023 6.81764 L -7.46048 6.82751 L -7.56046 6.83713 L -7.66019 6.84652 L -7.75965 6.85568 L -7.85886 6.86462 L -7.95783 6.87334 L -8.05655 6.88185 L -8.15503 6.89016 L -8.25328 6.89827 L -8.3513 6.90618 L -8.4491 6.91391 L -8.54667 6.92146 L -8.64402 6.92883 L -8.74116 6.93603 L -8.83809 6.94307 L -8.93481 6.94994 L -9.03133 6.95665 L -9.12765 6.96321 L -9.22378 6.96962 L -9.31971 6.97589 L -9.41545 6.98201 L -9.51101 6.98799 L -9.60638 6.99384 L -9.70157 6.99956 L -9.79659 7.00515 L -9.89143 7.01062 L -9.9861 7.01597 L -10.0806 7.0212 L -10.1749 7.02631 L -10.2691 7.03131 L -10.3631 7.0362 L -10.457 7.04099 L -10.5507 7.04567 L -10.6443 7.05025 L -10.7377 7.05473 L -10.8309 7.05912 L -10.924 7.0634 L -11.017 7.0676 L -11.1098 7.07171 L -11.1972 7.08423 L -11.24 7.01612 L -11.2823 6.94776 L -11.3243 6.87914 L -11.3659 6.81027 L -11.407 6.74115 L -11.5415 6.50817 L -11.5808 6.43798 L -11.6197 6.36756 L -11.6581 6.29691 L -11.6961 6.22602 L -11.7337 6.15491 L -11.6792 6.08554 L -11.6292 6.0072 L -11.5791 5.92879 L -11.5288 5.85029 L -11.4784 5.77172 L -11.4278 5.69307 L -11.3771 5.61434 L -11.3262 5.53553 L -11.2751 5.45664 L -11.2239 5.37767 L -11.1724 5.29861 L -11.1208 5.21947 L -11.0691 5.14024 L -11.0171 5.06092 L -10.9649 4.98152 L -10.9126 4.90203 L -10.86 4.82245 L -10.8073 4.74278 L -10.7543 4.66302 L -10.7011 4.58316 L -10.6478 4.50322 L -10.5941 4.42317 L -10.5403 4.34304 L -10.4862 4.26281 L -10.4319 4.18248 L -10.3774 4.10205 L -10.3226 4.02153 L -10.2675 3.9409 L -10.2122 3.86018 L -10.1566 3.77935 L -10.1007 3.69842 L -10.0446 3.61739 L -9.98813 3.53625 L -9.9314 3.45501 L -9.87436 3.37367 L -9.81702 3.29221 L -9.75935 3.21065 L -9.70136 3.12899 L -9.64304 3.04721 L -9.58437 2.96533 L -9.52534 2.88334 L -9.46596 2.80123 L -9.4062 2.71902 L -9.34606 2.6367 L -9.28553 2.55427 L -9.22459 2.47172 L -9.22459 2.47172 L -9.31863 2.4307 L -9.41227 2.38958 L -9.50552 2.34836 L -9.59838 2.30704 L -9.69086 2.26563 L -9.78297 2.22413 L -9.87472 2.18255 L -9.96612 2.1409 L -10.0572 2.09917 L -10.1479 2.05737 L -10.2383 2.0155 L -10.3283 1.97357 L -10.4181 1.93158 L -10.5075 1.88953 L -10.5967 1.84743 L -10.6855 1.80528 L -10.7741 1.76308 L -10.8624 1.72083 L -10.9504 1.67853 L -11.0381 1.6362 L -11.1255 1.59383 L -11.2127 1.55142 L -11.2997 1.50897 L -11.3864 1.46649 L -11.4728 1.42398 L -11.559 1.38144 L -11.645 1.33887 L -11.7308 1.29628 L -11.8163 1.25366 L -11.9016 1.21101 L -11.9867 1.16835 L -12.0715 1.12566 L -12.1562 1.08295 L -12.2407 1.04023 L -12.3249 0.997489 L -12.409 0.954732 L -12.4928 0.911961 L -12.5765 0.869175 L -12.66 0.826376 L -12.7433 0.783566 L -12.8265 0.740745 L -12.9094 0.697913 L -12.9922 0.655072 L -13.0748 0.612223 L -13.1573 0.569365 L -13.2391 0.536542 L -13.2421 0.456164 L -13.2447 0.375769 L -13.2467 0.29536 L -13.2483 0.21494 L -13.2493 0.134513 L -13.2493 -0.134513 L -13.2483 -0.21494 L -13.2467 -0.29536 L -13.2447 -0.375769 L -13.2421 -0.456164 L -13.2391 -0.536542 L -13.1573 -0.569365 L -13.0748 -0.612223 L -12.9922 -0.655072 L -12.9094 -0.697913 L -12.8265 -0.740745 L -12.7433 -0.783566 L -12.66 -0.826376 L -12.5765 -0.869175 L -12.4928 -0.911961 L -12.409 -0.954732 L -12.3249 -0.997489 L -12.2407 -1.04023 L -12.1562 -1.08295 L -12.0715 -1.12566 L -11.9867 -1.16835 L -11.9016 -1.21101 L -11.8163 -1.25366 L -11.7308 -1.29628 L -11.645 -1.33887 L -11.559 -1.38144 L -11.4728 -1.42398 L -11.3864 -1.46649 L -11.2997 -1.50897 L -11.2127 -1.55142 L -11.1255 -1.59383 L -11.0381 -1.6362 L -10.9504 -1.67853 L -10.8624 -1.72083 L -10.7741 -1.76308 L -10.6855 -1.80528 L -10.5967 -1.84743 L -10.5075 -1.88953 L -10.4181 -1.93158 L -10.3283 -1.97357 L -10.2383 -2.0155 L -10.1479 -2.05737 L -10.0572 -2.09917 L -9.96612 -2.1409 L -9.87472 -2.18255 L -9.78297 -2.22413 L -9.69086 -2.26563 L -9.59838 -2.30704 L -9.50552 -2.34836 L -9.41227 -2.38958 L -9.31863 -2.4307 L -9.22459 -2.47172 L -9.22459 -2.47172 L -9.28553 -2.55427 L -9.34606 -2.6367 L -9.4062 -2.71902 L -9.46596 -2.80123 L -9.52534 -2.88334 L -9.58437 -2.96533 L -9.64304 -3.04721 L -9.70136 -3.12899 L -9.75935 -3.21065 L -9.81702 -3.29221 L -9.87436 -3.37367 L -9.9314 -3.45501 L -9.98813 -3.53625 L -10.0446 -3.61739 L -10.1007 -3.69842 L -10.1566 -3.77935 L -10.2122 -3.86018 L -10.2675 -3.9409 L -10.3226 -4.02153 L -10.3774 -4.10205 L -10.4319 -4.18248 L -10.4862 -4.26281 L -10.5403 -4.34304 L -10.5941 -4.42317 L -10.6478 -4.50322 L -10.7011 -4.58316 L -10.7543 -4.66302 L -10.8073 -4.74278 L -10.86 -4.82245 L -10.9126 -4.90203 L -10.9649 -4.98152 L -11.0171 -5.06092 L -11.0691 -5.14024 L -11.1208 -5.21947 L -11.1724 -5.29861 L -11.2239 -5.37767 L -11.2751 -5.45664 L -11.3262 -5.53553 L -11.3771 -5.61434 L -11.4278 -5.69307 L -11.4784 -5.77172 L -11.5288 -5.85029 L -11.5791 -5.92879 L -11.6292 -6.0072 L -11.6792 -6.08554 L -11.7337 -6.15491 L -11.6961 -6.22602 L -11.6581 -6.29691 L -11.6197 -6.36756 L -11.5808 -6.43798 L -11.5415 -6.50817 L -11.407 -6.74115 L -11.3659 -6.81027 L -11.3243 -6.87914 L -11.2823 -6.94776 L -11.24 -7.01612 L -11.1972 -7.08423 L -11.1098 -7.07171 L -11.017 -7.0676 L -10.924 -7.0634 L -10.8309 -7.05912 L -10.7377 -7.05473 L -10.6443 -7.05025 L -10.5507 -7.04567 L -10.457 -7.04099 L -10.3631 -7.0362 L -10.2691 -7.03131 L -10.1749 -7.02631 L -10.0806 -7.0212 L -9.9861 -7.01597 L -9.89143 -7.01062 L -9.79659 -7.00515 L -9.70157 -6.99956 L -9.60638 -6.99384 L -9.51101 -6.98799 L -9.41545 -6.98201 L -9.31971 -6.97589 L -9.22378 -6.96962 L -9.12765 -6.96321 L -9.03133 -6.95665 L -8.93481 -6.94994 L -8.83809 -6.94307 L -8.74116 -6.93603 L -8.64402 -6.92883 L -8.54667 -6.92146 L -8.4491 -6.91391 L -8.3513 -6.90618 L -8.25328 -6.89827 L -8.15503 -6.89016 L -8.05655 -6.88185 L -7.95783 -6.87334 L -7.85886 -6.86462 L -7.75965 -6.85568 L -7.66019 -6.84652 L -7.56046 -6.83713 L -7.46048 -6.82751 L -7.36023 -6.81764 L -7.25971 -6.80752 L -7.15892 -6.79714 L -7.05784 -6.7865 L -6.95648 -6.77557 L -6.85482 -6.76437 L -6.75287 -6.75287 L -6.75287 -6.75287 L -6.76437 -6.85482 L -6.77557 -6.95648 L -6.7865 -7.05784 L -6.79714 -7.15892 L -6.80752 -7.25971 L -6.81764 -7.36023 L -6.82751 -7.46048 L -6.83713 -7.56046 L -6.84652 -7.66019 L -6.85568 -7.75965 L -6.86462 -7.85886 L -6.87334 -7.95783 L -6.88185 -8.05655 L -6.89016 -8.15503 L -6.89827 -8.25328 L -6.90618 -8.3513 L -6.91391 -8.4491 L -6.92146 -8.54667 L -6.92883 -8.64402 L -6.93603 -8.74116 L -6.94307 -8.83809 L -6.94994 -8.93481 L -6.95665 -9.03133 L -6.96321 -9.12765 L -6.96962 -9.22378 L -6.97589 -9.31971 L -6.98201 -9.41545 L -6.98799 -9.51101 L -6.99384 -9.60638 L -6.99956 -9.70157 L -7.00515 -9.79659 L -7.01062 -9.89143 L -7.01597 -9.9861 L -7.0212 -10.0806 L -7.02631 -10.1749 L -7.03131 -10.2691 L -7.0362 -10.3631 L -7.04099 -10.457 L -7.04567 -10.5507 L -7.05025 -10.6443 L -7.05473 -10.7377 L -7.05912 -10.8309 L -7.0634 -10.924 L -7.0676 -11.017 L -7.07171 -11.1098 L -7.08423 -11.1972 L -7.01612 -11.24 L -6.94776 -11.2823 L -6.87914 -11.3243 L -6.81027 -11.3659 L -6.74115 -11.407 L -6.50817 -11.5415 L -6.43798 -11.5808 L -6.36756 -11.6197 L -6.29691 -11.6581 L -6.22602 -11.6961 L -6.15491 -11.7337 L -6.08554 -11.6792 L -6.0072 -11.6292 L -5.92879 -11.5791 L -5.85029 -11.5288 L -5.77172 -11.4784 L -5.69307 -11.4278 L -5.61434 -11.3771 L -5.53553 -11.3262 L -5.45664 -11.2751 L -5.37767 -11.2239 L -5.29861 -11.1724 L -5.21947 -11.1208 L -5.14024 -11.0691 L -5.06092 -11.0171 L -4.98152 -10.9649 L -4.90203 -10.9126 L -4.82245 -10.86 L -4.74278 -10.8073 L -4.66302 -10.7543 L -4.58316 -10.7011 L -4.50322 -10.6478 L -4.42317 -10.5941 L -4.34304 -10.5403 L -4.26281 -10.4862 L -4.18248 -10.4319 L -4.10205 -10.3774 L -4.02153 -10.3226 L -3.9409 -10.2675 L -3.86018 -10.2122 L -3.77935 -10.1566 L -3.69842 -10.1007 L -3.61739 -10.0446 L -3.53625 -9.98813 L -3.45501 -9.9314 L -3.37367 -9.87436 L -3.29221 -9.81702 L -3.21065 -9.75935 L -3.12899 -9.70136 L -3.04721 -9.64304 L -2.96533 -9.58437 L -2.88334 -9.52534 L -2.80123 -9.46596 L -2.71902 -9.4062 L -2.6367 -9.34606 L -2.55427 -9.28553 L -2.47172 -9.22459 L -2.47172 -9.22459 L -2.4307 -9.31863 L -2.38958 -9.41227 L -2.34836 -9.50552 L -2.30704 -9.59838 L -2.26563 -9.69086 L -2.22413 -9.78297 L -2.18255 -9.87472 L -2.1409 -9.96612 L -2.09917 -10.0572 L -2.05737 -10.1479 L -2.0155 -10.2383 L -1.97357 -10.3283 L -1.93158 -10.4181 L -1.88953 -10.5075 L -1.84743 -10.5967 L -1.80528 -10.6855 L -1.76308 -10.7741 L -1.72083 -10.8624 L -1.67853 -10.9504 L -1.6362 -11.0381 L -1.59383 -11.1255 L -1.55142 -11.2127 L -1.50897 -11.2997 L -1.46649 -11.3864 L -1.42398 -11.4728 L -1.38144 -11.559 L -1.33887 -11.645 L -1.29628 -11.7308 L -1.25366 -11.8163 L -1.21101 -11.9016 L -1.16835 -11.9867 L -1.12566 -12.0715 L -1.08295 -12.1562 L -1.04023 -12.2407 L -0.997489 -12.3249 L -0.954732 -12.409 L -0.911961 -12.4928 L -0.869175 -12.5765 L -0.826376 -12.66 L -0.783566 -12.7433 L -0.740745 -12.8265 L -0.697913 -12.9094 L -0.655072 -12.9922 L -0.612223 -13.0748 L -0.569365 -13.1573 L -0.536542 -13.2391 L -0.456164 -13.2421 L -0.375769 -13.2447 L -0.29536 -13.2467 L -0.21494 -13.2483 L -0.134513 -13.2493 L 0.134513 -13.2493 L 0.21494 -13.2483 L 0.29536 -13.2467 L 0.375769 -13.2447 L 0.456164 -13.2421 L 0.536542 -13.2391 L 0.569365 -13.1573 L 0.612223 -13.0748 L 0.655072 -12.9922 L 0.697913 -12.9094 L 0.740745 -12.8265 L 0.783566 -12.7433 L 0.826376 -12.66 L 0.869175 -12.5765 L 0.911961 -12.4928 L 0.954732 -12.409 L 0.997489 -12.3249 L 1.04023 -12.2407 L 1.08295 -12.1562 L 1.12566 -12.0715 L 1.16835 -11.9867 L 1.21101 -11.9016 L 1.25366 -11.8163 L 1.29628 -11.7308 L 1.33887 -11.645 L 1.38144 -11.559 L 1.42398 -11.4728 L 1.46649 -11.3864 L 1.50897 -11.2997 L 1.55142 -11.2127 L 1.59383 -11.1255 L 1.6362 -11.0381 L 1.67853 -10.9504 L 1.72083 -10.8624 L 1.76308 -10.7741 L 1.80528 -10.6855 L 1.84743 -10.5967 L 1.88953 -10.5075 L 1.93158 -10.4181 L 1.97357 -10.3283 L 2.0155 -10.2383 L 2.05737 -10.1479 L 2.09917 -10.0572 L 2.1409 -9.96612 L 2.18255 -9.87472 L 2.22413 -9.78297 L 2.26563 -9.69086 L 2.30704 -9.59838 L 2.34836 -9.50552 L 2.38958 -9.41227 L 2.4307 -9.31863 L 2.47172 -9.22459 L 2.47172 -9.22459 L 2.55427 -9.28553 L 2.6367 -9.34606 L 2.71902 -9.4062 L 2.80123 -9.46596 L 2.88334 -9.52534 L 2.96533 -9.58437 L 3.04721 -9.64304 L 3.12899 -9.70136 L 3.21065 -9.75935 L 3.29221 -9.81702 L 3.37367 -9.87436 L 3.45501 -9.9314 L 3.53625 -9.98813 L 3.61739 -10.0446 L 3.69842 -10.1007 L 3.77935 -10.1566 L 3.86018 -10.2122 L 3.9409 -10.2675 L 4.02153 -10.3226 L 4.10205 -10.3774 L 4.18248 -10.4319 L 4.26281 -10.4862 L 4.34304 -10.5403 L 4.42317 -10.5941 L 4.50322 -10.6478 L 4.58316 -10.7011 L 4.66302 -10.7543 L 4.74278 -10.8073 L 4.82245 -10.86 L 4.90203 -10.9126 L 4.98152 -10.9649 L 5.06092 -11.0171 L 5.14024 -11.0691 L 5.21947 -11.1208 L 5.29861 -11.1724 L 5.37767 -11.2239 L 5.45664 -11.2751 L 5.53553 -11.3262 L 5.61434 -11.3771 L 5.69307 -11.4278 L 5.77172 -11.4784 L 5.85029 -11.5288 L 5.92879 -11.5791 L 6.0072 -11.6292 L 6.08554 -11.6792 L 6.15491 -11.7337 L 6.22602 -11.6961 L 6.29691 -11.6581 L 6.36756 -11.6197 L 6.43798 -11.5808 L 6.50817 -11.5415 L 6.74115 -11.407 L 6.81027 -11.3659 L 6.87914 -11.3243 L 6.94776 -11.2823 L 7.01612 -11.24 L 7.08423 -11.1972 L 7.07171 -11.1098 L 7.0676 -11.017 L 7.0634 -10.924 L 7.05912 -10.8309 L 7.05473 -10.7377 L 7.05025 -10.6443 L 7.04567 -10.5507 L 7.04099 -10.457 L 7.0362 -10.3631 L 7.03131 -10.2691 L 7.02631 -10.1749 L 7.0212 -10.0806 L 7.01597 -9.9861 L 7.01062 -9.89143 L 7.00515 -9.79659 L 6.99956 -9.70157 L 6.99384 -9.60638 L 6.98799 -9.51101 L 6.98201 -9.41545 L 6.97589 -9.31971 L 6.96962 -9.22378 L 6.96321 -9.12765 L 6.95665 -9.03133 L 6.94994 -8.93481 L 6.94307 -8.83809 L 6.93603 -8.74116 L 6.92883 -8.64402 L 6.92146 -8.54667 L 6.91391 -8.4491 L 6.90618 -8.3513 L 6.89827 -8.25328 L 6.89016 -8.15503 L 6.88185 -8.05655 L 6.87334 -7.95783 L 6.86462 -7.85886 L 6.85568 -7.75965 L 6.84652 -7.66019 L 6.83713 -7.56046 L 6.82751 -7.46048 L 6.81764 -7.36023 L 6.80752 -7.25971 L 6.79714 -7.15892 L 6.7865 -7.05784 L 6.77557 -6.95648 L 6.76437 -6.85482 L 6.75287 -6.75287 L 6.75287 -6.75287 L 6.85482 -6.76437 L 6.95648 -6.77557 L 7.05784 -6.7865 L 7.15892 -6.79714 L 7.25971 -6.80752 L 7.36023 -6.81764 L 7.46048 -6.82751 L 7.56046 -6.83713 L 7.66019 -6.84652 L 7.75965 -6.85568 L 7.85886 -6.86462 L 7.95783 -6.87334 L 8.05655 -6.88185 L 8.15503 -6.89016 L 8.25328 -6.89827 L 8.3513 -6.90618 L 8.4491 -6.91391 L 8.54667 -6.92146 L 8.64402 -6.92883 L 8.74116 -6.93603 L 8.83809 -6.94307 L 8.93481 -6.94994 L 9.03133 -6.95665 L 9.12765 -6.96321 L 9.22378 -6.96962 L 9.31971 -6.97589 L 9.41545 -6.98201 L 9.51101 -6.98799 L 9.60638 -6.99384 L 9.70157 -6.99956 L 9.79659 -7.00515 L 9.89143 -7.01062 L 9.9861 -7.01597 L 10.0806 -7.0212 L 10.1749 -7.02631 L 10.2691 -7.03131 L 10.3631 -7.0362 L 10.457 -7.04099 L 10.5507 -7.04567 L 10.6443 -7.05025 L 10.7377 -7.05473 L 10.8309 -7.05912 L 10.924 -7.0634 L 11.017 -7.0676 L 11.1098 -7.07171 L 11.1972 -7.08423 L 11.24 -7.01612 L 11.2823 -6.94776 L 11.3243 -6.87914 L 11.3659 -6.81027 L 11.407 -6.74115 L 11.5415 -6.50817 L 11.5808 -6.43798 L 11.6197 -6.36756 L 11.6581 -6.29691 L 11.6961 -6.22602 L 11.7337 -6.15491 L 11.6792 -6.08554 L 11.6292 -6.0072 L 11.5791 -5.92879 L 11.5288 -5.85029 L 11.4784 -5.77172 L 11.4278 -5.69307 L 11.3771 -5.61434 L 11.3262 -5.53553 L 11.2751 -5.45664 L 11.2239 -5.37767 L 11.1724 -5.29861 L 11.1208 -5.21947 L 11.0691 -5.14024 L 11.0171 -5.06092 L 10.9649 -4.98152 L 10.9126 -4.90203 L 10.86 -4.82245 L 10.8073 -4.74278 L 10.7543 -4.66302 L 10.7011 -4.58316 L 10.6478 -4.50322 L 10.5941 -4.42317 L 10.5403 -4.34304 L 10.4862 -4.26281 L 10.4319 -4.18248 L 10.3774 -4.10205 L 10.3226 -4.02153 L 10.2675 -3.9409 L 10.2122 -3.86018 L 10.1566 -3.77935 L 10.1007 -3.69842 L 10.0446 -3.61739 L 9.98813 -3.53625 L 9.9314 -3.45501 L 9.87436 -3.37367 L 9.81702 -3.29221 L 9.75935 -3.21065 L 9.70136 -3.12899 L 9.64304 -3.04721 L 9.58437 -2.96533 L 9.52534 -2.88334 L 9.46596 -2.80123 L 9.4062 -2.71902 L 9.34606 -2.6367 L 9.28553 -2.55427 L 9.22459 -2.47172 L 9.22459 -2.47172 L 9.31863 -2.4307 L 9.41227 -2.38958 L 9.50552 -2.34836 L 9.59838 -2.30704 L 9.69086 -2.26563 L 9.78297 -2.22413 L 9.87472 -2.18255 L 9.96612 -2.1409 L 10.0572 -2.09917 L 10.1479 -2.05737 L 10.2383 -2.0155 L 10.3283 -1.97357 L 10.4181 -1.93158 L 10.5075 -1.88953 L 10.5967 -1.84743 L 10.6855 -1.80528 L 10.7741 -1.76308 L 10.8624 -1.72083 L 10.9504 -1.67853 L 11.0381 -1.6362 L 11.1255 -1.59383 L 11.2127 -1.55142 L 11.2997 -1.50897 L 11.3864 -1.46649 L 11.4728 -1.42398 L 11.559 -1.38144 L 11.645 -1.33887 L 11.7308 -1.29628 L 11.8163 -1.25366 L 11.9016 -1.21101 L 11.9867 -1.16835 L 12.0715 -1.12566 L 12.1562 -1.08295 L 12.2407 -1.04023 L 12.3249 -0.997489 L 12.409 -0.954732 L 12.4928 -0.911961 L 12.5765 -0.869175 L 12.66 -0.826376 L 12.7433 -0.783566 L 12.8265 -0.740745 L 12.9094 -0.697913 L 12.9922 -0.655072 L 13.0748 -0.612223 L 13.1573 -0.569365 L 13.2391 -0.536542 L 13.2421 -0.456164 L 13.2447 -0.375769 L 13.2467 -0.29536 L 13.2483 -0.21494 L 13.2493 -0.134513Z"
id="path1" />
</g>
</svg>
