<?xml version="1.0" encoding="UTF-8" standalone="no"?>
<svg version="1.1">
<g
style="fill:none;stroke:#000000;stroke-opacity:1;stroke-width:0.1">
<path d="M 13.3745 0.109924 L 13.3737 0.18794 L 13.3724 0.26595 L 13.3706 0.343951 L 13.3683 0.42194 L 13.3657 0.499915 L 13.3625 0.577873 L 13.283 0.609695 L 13.2029 0.651637 L 13.1226 0.693571 L 13.0422 0.735496 L 12.9616 0.777413 L 12.8808 0.819319 L 12.7999 0.861214 L 12.7188 0.903097 L 12.6375 0.944968 L 12.5561 0.986826 L 12.4744 1.02867 L 12.3926 1.0705 L 12.3106 1.11231 L 12.2284 1.1541 L 12.146 1.19588 L 12.0633 1.23763 L 11.9805 1.27937 L 11.8975 1.32108 L 11.8143 1.36277 L 11.7308 1.40443 L 11.6471 1.44607 L 11.5632 1.48768 L 11.4791 1.52926 L 11.3947 1.5708 L 11.3101 1.61232 L 11.2253 1.6538 L 11.1402 1.69524 L 11.0548 1.73665 L 10.9692 1.77801 L 10.8833 1.81934 L 10.7972 1.86061 L 10.7108 1.90184 L 10.6241 1.94302 L 10.5371 1.98415 L 10.4498 2.02522 L 10.3622 2.06623 L 10.2744 2.10719 L 10.1862 2.14808 L 10.0976 2.1889 L 10.0088 2.22965 L 9.91964 2.27033 L 9.83013 2.31093 L 9.74027 2.35144 L 9.65006 2.39188 L 9.55948 2.43222 L 9.46853 2.47247 L 9.37721 2.51262 L 9.37721 2.51262 L 9.43622 2.59305 L 9.49486 2.67338 L 9.55313 2.7536 L 9.61104 2.83372 L 9.6686 2.91374 L 9.72582 2.99366 L 9.78271 3.07347 L 9.83927 3.15318 L 9.89551 3.23279 L 9.95145 3.3123 L 10.0071 3.39171 L 10.0624 3.47102 L 10.1175 3.55022 L 10.1722 3.62933 L 10.2267 3.70835 L 10.281 3.78726 L 10.3349 3.86608 L 10.3886 3.9448 L 10.4421 4.02343 L 10.4953 4.10196 L 10.5483 4.1804 L 10.601 4.25875 L 10.6535 4.33701 L 10.7058 4.41517 L 10.7579 4.49325 L 10.8097 4.57123 L 10.8614 4.64913 L 10.9128 4.72694 L 10.9641 4.80466 L 11.0151 4.8823 L 11.066 4.95985 L 11.1166 5.03732 L 11.1671 5.1147 L 11.2174 5.192 L 11.2676 5.26922 L 11.3175 5.34636 L 11.3673 5.42342 L 11.4169 5.5004 L 11.4664 5.5773 L 11.5157 5.65412 L 11.5648 5.73087 L 11.6138 5.80754 L 11.6626 5.88414 L 11.7113 5.96066 L 11.7599 6.03711 L 11.8083 6.11349 L 11.8612 6.1808 L 11.825 6.24989 L 11.7883 6.31876 L 11.7512 6.38742 L 11.7138 6.45586 L 11.6759 6.52408 L 11.6377 6.59208 L 11.5277 6.78247 L 11.488 6.8496 L 11.4478 6.9165 L 11.4073 6.98316 L 11.3664 7.04958 L 11.325 7.11577 L 11.2833 7.18171 L 11.1986 7.16951 L 11.1082 7.16578 L 11.0177 7.16196 L 10.9271 7.15805 L 10.8364 7.15406 L 10.7455 7.14997 L 10.6544 7.14579 L 10.5633 7.14151 L 10.4719 7.13713 L 10.3805 7.13265 L 10.2888 7.12807 L 10.1971 7.12337 L 10.1051 7.11857 L 10.013 7.11366 L 9.92076 7.10864 L 9.82834 7.10349 L 9.73575 7.09823 L 9.64299 7.09284 L 9.55006 7.08732 L 9.45696 7.08167 L 9.36367 7.0759 L 9.27021 7.06998 L 9.17656 7.06392 L 9.08272 7.05772 L 8.98869 7.05137 L 8.89447 7.04487 L 8.80005 7.03821 L 8.70544 7.0314 L 8.61061 7.02441 L 8.51558 7.01726 L 8.42034 7.00994 L 8.32489 7.00243 L 8.22921 6.99475 L 8.13332 6.98687 L 8.0372 6.9788 L 7.94084 6.97053 L 7.84426 6.96205 L 7.74744 6.95337 L 7.65037 6.94446 L 7.55306 6.93534 L 7.45549 6.92598 L 7.35768 6.91638 L 7.2596 6.90654 L 7.16125 6.89645 L 7.06264 6.8861 L 6.96376 6.87549 L 6.86459 6.86459 L 6.86459 6.86459 L 6.87549 6.96376 L 6.8861 7.06264 L 6.89645 7.16125 L 6.90654 7.2596 L 6.91638 7.35768 L 6.92598 7.45549 L 6.93534 7.55306 L 6.94446 7.65037 L 6.95337 7.74744 L 6.96205 7.84426 L 6.97053 7.94084 L 6.9788 8.0372 L 6.98687 8.13332 L 6.99475 8.22921 L 7.00243 8.32489 L 7.00994 8.42034 L 7.01726 8.51558 L 7.02441 8.61061 L 7.0314 8.70544 L 7.03821 8.80005 L 7.04487 8.89447 L 7.05137 8.98869 L 7.05772 9.08272 L 7.06392 9.17656 L 7.06998 9.27021 L 7.0759 9.36367 L 7.08167 9.45696 L 7.08732 9.55006 L 7.09284 9.64299 L 7.09823 9.73575 L 7.10349 9.82834 L 7.10864 9.92076 L 7.11366 10.013 L 7.11857 10.1051 L 7.12337 10.1971 L 7.12807 10.2888 L 7.13265 10.3805 L 7.13713 10.4719 L 7.14151 10.5633 L 7.14579 10.6544 L 7.14997 10.7455 L 7.15406 10.8364 L 7.15805 10.9271 L 7.16196 11.0177 L 7.16578 11.1082 L 7.16951 11.1986 L 7.18171 11.2833 L 7.11577 11.325 L 7.04958 11.3664 L 6.98316 11.4073 L 6.9165 11.4478 L 6.8496 11.488 L 6.78247 11.5277 L 6.59208 11.6377 L 6.52408 11.6759 L 6.45586 11.7138 L 6.38742 11.7512 L 6.31876 11.7883 L 6.24989 11.825 L 6.1808 11.8612 L 6.11349 11.8083 L 6.03711 11.7599 L 5.96066 11.7113 L 5.88414 11.6626 L 5.80754 11.6138 L 5.73087 11.5648 L 5.65412 11.5157 L 5.5773 11.4664 L 5.5004 11.4169 L 5.42342 11.3673 L 5.34636 11.3175 L 5.26922 11.2676 L 5.192 11.2174 L 5.1147 11.1671 L 5.03732 11.1166 L 4.95985 11.066 L 4.8823 11.0151 L 4.80466 10.9641 L 4.72694 10.9128 L 4.64913 10.8614 L 4.57123 10.8097 L 4.49325 10.7579 L 4.41517 10.7058 L 4.33701 10.6535 L 4.25875 10.601 L 4.1804 10.5483 L 4.10196 10.4953 L 4.02343 10.4421 L 3.9448 10.3886 L 3.86608 10.3349 L 3.78726 10.281 L 3.70835 10.2267 L 3.62933 10.1722 L 3.55022 10.1175 L 3.47102 10.0624 L 3.39171 10.0071 L 3.3123 9.95145 L 3.23279 9.89551 L 3.15318 9.83927 L 3.07347 9.78271 L 2.99366 9.72582 L 2.91374 9.6686 L 2.83372 9.61104 L 2.7536 9.55313 L 2.67338 9.49486 L 2.59305 9.43622 L 2.51262 9.37721 L 2.51262 9.37721 L 2.47247 9.46853 L 2.43222 9.55948 L 2.39188 9.65006 L 2.35144 9.74027 L 2.31093 9.83013 L 2.27033 9.91964 L 2.22965 10.0088 L 2.1889 10.0976 L 2.14808 10.1862 L 2.10719 10.2744 L 2.06623 10.3622 L 2.02522 10.4498 L 1.98415 10.5371 L 1.94302 10.6241 L 1.90184 10.7108 L 1.86061 10.7972 L 1.81934 10.8833 L 1.77801 10.9692 L 1.73665 11.0548 L 1.69524 11.1402 L 1.6538 11.2253 L 1.61232 11.3101 L 1.5708 11.3947 L 1.52926 11.4791 L 1.48768 11.5632 L 1.44607 11.6471 L 1.40443 11.7308 L 1.36277 11.8143 L 1.32108 11.8975 L 1.27937 11.9805 L 1.23763 12.0633 L 1.19588 12.146 L 1.1541 12.2284 L 1.11231 12.3106 L 1.0705 12.3926 L 1.02867 12.4744 L 0.986826 12.5561 L 0.944968 12.6375 L 0.903097 12.7188 L 0.861214 12.7999 L 0.819319 12.8808 L 0.777413 12.9616 L 0.735496 13.0422 L 0.693571 13.1226 L 0.651637 13.2029 L 0.609695 13.283 L 0.577873 13.3625 L 0.499915 13.3657 L 0.42194 13.3683 L 0.343951 13.3706 L 0.26595 13.3724 L 0.18794 13.3737 L 0.109924 13.3745 L -0.109924 13.3745 L -0.18794 13.3737 L -0.26595 13.3724 L -0.343951 13.3706 L -0.42194 13.3683 L -0.499915 13.3657 L -0.577873 13.3625 L -0.609695 13.283 L -0.651637 13.2029 L -0.693571 13.1226 L -0.735496 13.0422 L -0.777413 12.9616 L -0.819319 12.8808 L -0.861214 12.7999 L -0.903097 12.7188 L -0.944968 12.6375 L -0.986826 12.5561 L -1.02867 12.4744 L -1.0705 12.3926 L -1.11231 12.3106 L -1.1541 12.2284 L -1.19588 12.146 L -1.23763 12.0633 L -1.27937 11.9805 L -1.32108 11.8975 L -1.36277 11.8143 L -1.40443 11.7308 L -1.44607 11.6471 L -1.48768 11.5632 L -1.52926 11.4791 L -1.5708 11.3947 L -1.61232 11.3101 L -1.6538 11.2253 L -1.69524 11.1402 L -1.73665 11.0548 L -1.77801 10.9692 L -1.81934 10.8833 L -1.86061 10.7972 L -1.90184 10.7108 L -1.94302 10.6241 L -1.98415 10.5371 L -2.02522 10.4498 L -2.06623 10.3622 L -2.10719 10.2744 L -2.14808 10.1862 L -2.1889 10.0976 L -2.22965 10.0088 L -2.27033 9.91964 L -2.31093 9.83013 L -2.35144 9.74027 L -2.39188 9.65006 L -2.43222 9.55948 L -2.47247 9.46853 L -2.51262 9.37721 L -2.51262 9.37721 L -2.59305 9.43622 L -2.67338 9.49486 L -2.7536 9.55313 L -2.83372 9.61104 L -2.91374 9.6686 L -2.99366 9.72582 L -3.07347 9.78271 L -3.15318 9.83927 L -3.23279 9.89551 L -3.3123 9.95145 L -3.39171 10.0071 L -3.47102 10.0624 L -3.55022 10.1175 L -3.62933 10.1722 L -3.70835 10.2267 L -3.78726 10.281 L -3.86608 10.3349 L -3.9448 10.3886 L -4.02343 10.4421 L -4.10196 10.4953 L -4.1804 10.5483 L -4.25875 10.601 L -4.33701 10.6535 L -4.41517 10.7058 L -4.49325 10.7579 L -4.57123 10.8097 L -4.64913 10.8614 L -4.72694 10.9128 L -4.80466 10.9641 L -4.8823 11.0151 L -4.95985 11.066 L -5.03732 11.1166 L -5.1147 11.1671 L -5.192 11.2174 L -5.26922 11.2676 L -5.34636 11.3175 L -5.42342 11.3673 L -5.5004 11.4169 L -5.5773 11.4664 L -5.65412 11.5157 L -5.73087 11.5648 L -5.80754 11.6138 L -5.88414 11.6626 L -5.96066 11.7113 L -6.03711 11.7599 L -6.11349 11.8083 L -6.1808 11.8612 L -6.24989 11.825 L -6.31876 11.7883 L -6.38742 11.7512 L -6.45586 11.7138 L -6.52408 11.6759 L -6.59208 11.6377 L -6.78247 11.5277 L -6.8496 11.488 L -6.9165 11.4478 L -6.98316 11.4073 L -7.04958 11.3664 L -7.11577 11.325 L -7.18171 11.2833 L -7.16951 11.1986 L -7.16578 11.1082 L -7.16196 11.0177 L -7.15805 10.9271 L -7.15406 10.8364 L -7.14997 10.7455 L -7.14579 10.6544 L -7.14151 10.5633 L -7.13713 10.4719 L -7.13265 10.3805 L -7.12807 10.2888 L -7.12337 10.1971 L -7.11857 10.1051 L -7.11366 10.013 L -7.10864 9.92076 L -7.10349 9.82834 L -7.09823 9.73575 L -7.09284 9.64299 L -7.08732 9.55006 L -7.08167 9.45696 L -7.0759 9.36367 L -7.06998 9.27021 L -7.06392 9.17656 L -7.05772 9.08272 L -7.05137 8.98869 L -7.04487 8.89447 L -7.03821 8.80005 L -7.0314 8.70544 L -7.02441 8.61061 L -7.01726 8.51558 L -7.00994 8.42034 L -7.00243 8.32489 L -6.99475 8.22921 L -6.98687 8.13332 L -6.9788 8.0372 L -6.97053 7.94084 L -6.96205 7.84426 L -6.95337 7.74744 L -6.94446 7.65037 L -6.93534 7.55306 L -6.92598 7.45549 L -6.91638 7.35768 L -6.90654 7.2596 L -6.89645 7.16125 L -6.8861 7.06264 L -6.87549 6.96376 L -6.86459 6.86459 L -6.86459 6.86459 L -6.96376 6.87549 L -7.06264 6.8861 L -7.16125 6.89645 L -7.2596 6.90654 L -7.35768 6.91638 L -7.45549 6.92598 L -7.55306 6.93534 L -7.65037 6.94446 L -7.74744 6.95337 L -7.84426 6.96205 L -7.94084 6.97053 L -8.0372 6.9788 L -8.13332 6.98687 L -8.22921 6.99475 L -8.32489 7.00243 L -8.42034 7.00994 L -8.51558 7.01726 L -8.61061 7.02441 L -8.70544 7.0314 L -8.80005 7.03821 L -8.89447 7.04487 L -8.98869 7.05137 L -9.08272 7.05772 L -9.17656 7.06392 L -9.27021 7.06998 L -9.36367 7.0759 L -9.45696 7.08167 L -9.55006 7.08732 L -9.64299 7.09284 L -9.73575 7.09823 L -9.82834 7.10349 L -9.92076 7.10864 L -10.013 7.11366 L -10.1051 7.11857 L -10.1971 7.12337 L -10.2888 7.12807 L -10.3805 7.13265 L -10.4719 7.13713 L -10.5633 7.14151 L -10.6544 7.14579 L -10.7455 7.14997 L -10.8364 7.15406 L -10.9271 7.15805 L -11.0177 7.16196 L -11.1082 7.16578 L -11.1986 7.16951 L -11.2833 7.18171 L -11.325 7.11577 L -11.3664 7.04958 L -11.4073 6.98316 L -11.4478 6.9165 L -11.488 6.8496 L -11.5277 6.78247 L -11.6377 6.59208 L -11.6759 6.52408 L -11.7138 6.45586 L -11.7512 6.38742 L -11.7883 6.31876 L -11.825 6.24989 L -11.8612 6.1808 L -11.8083 6.11349 L -11.7599 6.03711 L -11.7113 5.96066 L -11.6626 5.88414 L -11.6138 5.80754 L -11.5648 5.73087 L -11.5157 5.65412 L -11.4664 5.5773 L -11.4169 5.5004 L -11.3673 5.42342 L -11.3175 5.34636 L -11.2676 5.26922 L -11.2174 5.192 L -11.1671 5.1147 L -11.1166 5.03732 L -11.066 4.95985 L -11.0151 4.8823 L -10.9641 4.80466 L -10.9128 4.72694 L -10.8614 4.64913 L -10.8097 4.57123 L -10.7579 4.49325 L -10.7058 4.41517 L -10.6535 4.33701 L -10.601 4.25875 L -10.5483 4.1804 L -10.4953 4.10196 L -10.4421 4.02343 L -10.3886 3.9448 L -10.3349 3.86608 L -10.281 3.78726 L -10.2267 3.70835 L -10.1722 3.62933 L -10.1175 3.55022 L -10.0624 3.47102 L -10.0071 3.39171 L -9.95145 3.3123 L -9.89551 3.23279 L -9.83927 3.15318 L -9.78271 3.07347 L -9.72582 2.99366 L -9.6686 2.91374 L -9.61104 2.83372 L -9.55313 2.7536 L -9.49486 2.67338 L -9.43622 2.59305 L -9.37721 2.51262 L -9.37721 2.51262 L -9.46853 2.47247 L -9.55948 2.43222 L -9.65006 2.39188 L -9.74027 2.35144 L -9.83013 2.31093 L -9.91964 2.27033 L -10.0088 2.22965 L -10.0976 2.1889 L -10.1862 2.14808 L -10.2744 2.10719 L -10.3622 2.06623 L -10.4498 2.02522 L -10.5371 1.98415 L -10.6241 1.94302 L -10.7108 1.90184 L -10.7972 1.86061 L -10.8833 1.81934 L -10.9692 1.77801 L -11.0548 1.73665 L -11.1402 1.69524 L -11.2253 1.6538 L -11.3101 1.61232 L -11.3947 1.5708 L -11.4791 1.52926 L -11.5632 1.48768 L -11.6471 1.44607 L -11.7308 1.40443 L -11.8143 1.36277 L -11.8975 1.32108 L -11.9805 1.27937 L -12.0633 1.23763 L -12.146 1.19588 L -12.2284 1.1541 L -12.3106 1.11231 L -12.3926 1.0705 L -12.4744 1.02867 L -12.5561 0.986826 L -12.6375 0.944968 L -12.7188 0.903097 L -12.7999 0.861214 L -12.8808 0.819319 L -12.9616 0.777413 L -13.0422 0.735496 L -13.1226 0.693571 L -13.2029 0.651637 L -13.283 0.609695 L -13.3625 0.577873 L -13.3657 0.499915 L -13.3683 0.42194 L -13.3706 0.343951 L -13.3724 0.26595 L -13.3737 0.18794 L -13.3745 0.109924 L -13.3745 -0.109924 L -13.3737 -0.18794 L -13.3724 -0.26595 L -13.3706 -0.343951 L -13.3683 -0.42194 L -13.3657 -0.499915 L -13.3625 -0.577873 L -13.283 -0.609695 L -13.2029 -0.651637 L -13.1226 -0.693571 L -13.0422 -0.735496 L -12.9616 -0.777413 L -12.8808 -0.819319 L -12.7999 -0.861214 L -12.7188 -0.903097 L -12.6375 -0.944968 L -12.5561 -0.986826 L -12.4744 -1.02867 L -12.3926 -1.0705 L -12.3106 -1.11231 L -12.2284 -1.1541 L -12.146 -1.19588 L -12.0633 -1.23763 L -11.9805 -1.27937 L -11.8975 -1.32108 L -11.8143 -1.36277 L -11.7308 -1.40443 L -11.6471 -1.44607 L -11.5632 -1.48768 L -11.4791 -1.52926 L -11.3947 -1.5708 L -11.3101 -1.61232 L -11.2253 -1.6538 L -11.1402 -1.69524 L -11.0548 -1.73665 L -10.9692 -1.77801 L -10.8833 -1.81934 L -10.7972 -1.86061 L -10.7108 -1.90184 L -10.6241 -1.94302 L -10.5371 -1.98415 L -10.4498 -2.02522 L -10.3622 -2.06623 L -10.2744 -2.10719 L -10.1862 -2.14808 L -10.0976 -2.1889 L -10.0088 -2.22965 L -9.91964 -2.27033 L -9.83013 -2.31093 L -9.74027 -2.35144 L -9.65006 -2.39188 L -9.55948 -2.43222 L -9.46853 -2.47247 L -9.37721 -2.51262 L -9.37721 -2.51262 L -9.43622 -2.59305 L -9.49486 -2.67338 L -9.55313 -2.7536 L -9.61104 -2.83372 L -9.6686 -2.91374 L -9.72582 -2.99366 L -9.78271 -3.07347 L -9.83927 -3.15318 L -9.89551 -3.23279 L -9.95145 -3.3123 L -10.0071 -3.39171 L -10.0624 -3.47102 L -10.1175 -3.55022 L -10.1722 -3.62933 L -10.2267 -3.70835 L -10.281 -3.78726 L -10.3349 -3.86608 L -10.3886 -3.9448 L -10.4421 -4.02343 L -10.4953 -4.10196 L -10.5483 -4.1804 L -10.601 -4.25875 L -10.6535 -4.33701 L -10.7058 -4.41517 L -10.7579 -4.49325 L -10.8097 -4.57123 L -10.8614 -4.64913 L -10.9128 -4.72694 L -10.9641 -4.80466 L -11.0151 -4.8823 L -11.066 -4.95985 L -11.1166 -5.03732 L -11.1671 -5.1147 L -11.2174 -5.192 L -11.2676 -5.26922 L -11.3175 -5.34636 L -11.3673 -5.42342 L -11.4169 -5.5004 L -11.4664 -5.5773 L -11.5157 -5.65412 L -11.5648 -5.73087 L -11.6138 -5.80754 L -11.6626 -5.88414 L -11.7113 -5.96066 L -11.7599 -6.03711 L -11.8083 -6.11349 L -11.8612 -6.1808 L -11.825 -6.24989 L -11.7883 -6.31876 L -11.7512 -6.38742 L -11.7138 -6.45586 L -11.6759 -6.52408 L -11.6377 -6.59208 L -11.5277 -6.78247 L -11.488 -6.8496 L -11.4478 -6.9165 L -11.4073 -6.98316 L -11.3664 -7.04958 L -11.325 -7.11577 L -11.2833 -7.18171 L -11.1986 -7.16951 L -11.1082 -7.16578 L -11.0177 -7.16196 L -10.9271 -7.15805 L -10.8364 -7.15406 L -10.7455 -7.14997 L -10.6544 -7.14579 L -10.5633 -7.14151 L -10.4719 -7.13713 L -10.3805 -7.13265 L -10.2888 -7.12807 L -10.1971 -7.12337 L -10.1051 -7.11857 L -10.013 -7.11366 L -9.92076 -7.10864 L -9.82834 -7.10349 L -9.73575 -7.09823 L -9.64299 -7.09284 L -9.55006 -7.08732 L -9.45696 -7.08167 L -9.36367 -7.0759 L -9.27021 -7.06998 L -9.17656 -7.06392 L -9.08272 -7.05772 L -8.98869 -7.05137 L -8.89447 -7.04487 L -8.80005 -7.03821 L -8.70544 -7.0314 L -8.61061 -7.02441 L -8.51558 -7.01726 L -8.42034 -7.00994 L -8.32489 -7.00243 L -8.22921 -6.99475 L -8.13332 -6.98687 L -8.0372 -6.9788 L -7.94084 -6.97053 L -7.84426 -6.96205 L -7.74744 -6.95337 L -7.65037 -6.94446 L -7.55306 -6.93534 L -7.45549 -6.92598 L -7.35768 -6.91638 L -7.2596 -6.90654 L -7.16125 -6.89645 L -7.06264 -6.8861 L -6.96376 -6.87549 L -6.86459 -6.86459 L -6.86459 -6.86459 L -6.87549 -6.96376 L -6.8861 -7.06264 L -6.89645 -7.16125 L -6.90654 -7.2596 L -6.91638 -7.35768 L -6.92598 -7.45549 L -6.93534 -7.55306 L -6.94446 -7.65037 L -6.95337 -7.74744 L -6.96205 -7.84426 L -6.97053 -7.94084 L -6.9788 -8.0372 L -6.98687 -8.13332 L -6.99475 -8.22921 L -7.00243 -8.32489 L -7.00994 -8.42034 L -7.01726 -8.51558 L -7.02441 -8.61061 L -7.0314 -8.70544 L -7.03821 -8.80005 L -7.04487 -8.89447 L -7.05137 -8.98869 L -7.05772 -9.08272 L -7.06392 -9.17656 L -7.06998 -9.27021 L -7.0759 -9.36367 L -7.08167 -9.45696 L -7.08732 -9.55006 L -7.09284 -9.64299 L -7.09823 -9.73575 L -7.10349 -9.82834 L -7.10864 -9.92076 L -7.11366 -10.013 L -7.11857 -10.1051 L -7.12337 -10.1971 L -7.12807 -10.2888 L -7.13265 -10.3805 L -7.13713 -10.4719 L -7.14151 -10.5633 L -7.14579 -10.6544 L -7.14997 -10.7455 L -7.15406 -10.8364 L -7.15805 -10.9271 L -7.16196 -11.0177 L -7.16578 -11.1082 L -7.16951 -11.1986 L -7.18171 -11.2833 L -7.11577 -11.325 L -7.04958 -11.3664 L -6.98316 -11.4073 L -6.9165 -11.4478 L -6.8496 -11.488 L -6.78247 -11.5277 L -6.59208 -11.6377 L -6.52408 -11.6759 L -6.45586 -11.7138 L -6.38742 -11.7512 L -6.31876 -11.7883 L -6.24989 -11.825 L -6.1808 -11.8612 L -6.11349 -11.8083 L -6.03711 -11.7599 L -5.96066 -11.7113 L -5.88414 -11.6626 L -5.80754 -11.6138 L -5.73087 -11.5648 L -5.65412 -11.5157 L -5.5773 -11.4664 L -5.5004 -11.4169 L -5.42342 -11.3673 L -5.34636 -11.3175 L -5.26922 -11.2676 L -5.192 -11.2174 L -5.1147 -11.1671 L -5.03732 -11.1166 L -4.95985 -11.066 L -4.8823 -11.0151 L -4.80466 -10.9641 L -4.72694 -10.9128 L -4.64913 -10.8614 L -4.57123 -10.8097 L -4.49325 -10.7579 L -4.41517 -10.7058 L -4.33701 -10.6535 L -4.25875 -10.601 L -4.1804 -10.5483 L -4.10196 -10.4953 L -4.02343 -10.4421 L -3.9448 -10.3886 L -3.86608 -10.3349 L -3.78726 -10.281 L -3.70835 -10.2267 L -3.62933 -10.1722 L -3.55022 -10.1175 L -3.47102 -10.0624 L -3.39171 -10.0071 L -3.3123 -9.95145 L -3.23279 -9.89551 L -3.15318 -9.83927 L -3.07347 -9.78271 L -2.99366 -9.72582 L -2.91374 -9.6686 L -2.83372 -9.61104 L -2.7536 -9.55313 L -2.67338 -9.49486 L -2.59305 -9.43622 L -2.51262 -9.37721 L -2.51262 -9.37721 L -2.47247 -9.46853 L -2.43222 -9.55948 L -2.39188 -9.65006 L -2.35144 -9.74027 L -2.31093 -9.83013 L -2.27033 -9.91964 L -2.22965 -10.0088 L -2.1889 -10.0976 L -2.14808 -10.1862 L -2.10719 -10.2744 L -2.06623 -10.3622 L -2.02522 -10.4498 L -1.98415 -10.5371 L -1.94302 -10.6241 L -1.90184 -10.7108 L -1.86061 -10.7972 L -1.81934 -10.8833 L -1.77801 -10.9692 L -1.73665 -11.0548 L -1.69524 -11.1402 L -1.6538 -11.2253 L -1.61232 -11.3101 L -1.5708 -11.3947 L -1.52926 -11.4791 L -1.48768 -11.5632 L -1.44607 -11.6471 L -1.40443 -11.7308 L -1.36277 -11.8143 L -1.32108 -11.8975 L -1.27937 -11.9805 L -1.23763 -12.0633 L -1.19588 -12.146 L -1.1541 -12.2284 L -1.11231 -12.3106 L -1.0705 -12.3926 L -1.02867 -12.4744 L -0.986826 -12.5561 L -0.944968 -12.6375 L -0.903097 -12.7188 L -0.861214 -12.7999 L -0.819319 -12.8808 L -0.777413 -12.9616 L -0.735496 -13.0422 L -0.693571 -13.1226 L -0.651637 -13.2029 L -0.609695 -13.283 L -0.577873 -13.3625 L -0.499915 -13.3657 L -0.42194 -13.3683 L -0.343951 -13.3706 L -0.26595 -13.3724 L -0.18794 -13.3737 L -0.109924 -13.3745 L 0.109924 -13.3745 L 0.18794 -13.3737 L 0.26595 -13.3724 L 0.343951 -13.3706 L 0.42194 -13.3683 L 0.499915 -13.3657 L 0.577873 -13.3625 L 0.609695 -13.283 L 0.651637 -13.2029 L 0.693571 -13.1226 L 0.735496 -13.0422 L 0.777413 -12.9616 L 0.819319 -12.8808 L 0.861214 -12.7999 L 0.903097 -12.7188 L 0.944968 -12.6375 L 0.986826 -12.5561 L 1.02867 -12.4744 L 1.0705 -12.3926 L 1.11231 -12.3106 L 1.1541 -12.2284 L 1.19588 -12.146 L 1.23763 -12.0633 L 1.27937 -11.9805 L 1.32108 -11.8975 L 1.36277 -11.8143 L 1.40443 -11.7308 L 1.44607 -11.6471 L 1.48768 -11.5632 L 1.52926 -11.4791 L 1.5708 -11.3947 L 1.61232 -11.3101 L 1.6538 -11.2253 L 1.69524 -11.1402 L 1.73665 -11.0548 L 1.77801 -10.9692 L 1.81934 -10.8833 L 1.86061 -10.7972 L 1.90184 -10.7108 L 1.94302 -10.6241 L 1.98415 -10.5371 L 2.02522 -10.4498 L 2.06623 -10.3622 L 2.10719 -10.2744 L 2.14808 -10.1862 L 2.1889 -10.0976 L 2.22965 -10.0088 L 2.27033 -9.91964 L 2.31093 -9.83013 L 2.35144 -9.74027 L 2.39188 -9.65006 L 2.43222 -9.55948 L 2.47247 -9.46853 L 2.51262 -9.37721 L 2.51262 -9.37721 L 2.59305 -9.43622 L 2.67338 -9.49486 L 2.7536 -9.55313 L 2.83372 -9.61104 L 2.91374 -9.6686 L 2.99366 -9.72582 L 3.07347 -9.78271 L 3.15318 -9.83927 L 3.23279 -9.89551 L 3.3123 -9.95145 L 3.39171 -10.0071 L 3.47102 -10.0624 L 3.55022 -10.1175 L 3.62933 -10.1722 L 3.70835 -10.2267 L 3.78726 -10.281 L 3.86608 -10.3349 L 3.9448 -10.3886 L 4.02343 -10.4421 L 4.10196 -10.4953 L 4.1804 -10.5483 L 4.25875 -10.601 L 4.33701 -10.6535 L 4.41517 -10.7058 L 4.49325 -10.7579 L 4.57123 -10.8097 L 4.64913 -10.8614 L 4.72694 -10.9128 L 4.80466 -10.9641 L 4.8823 -11.0151 L 4.95985 -11.066 L 5.03732 -11.1166 L 5.1147 -11.1671 L 5.192 -11.2174 L 5.26922 -11.2676 L 5.34636 -11.3175 L 5.42342 -11.3673 L 5.5004 -11.4169 L 5.5773 -11.4664 L 5.65412 -11.5157 L 5.73087 -11.5648 L 5.80754 -11.6138 L 5.88414 -11.6626 L 5.96066 -11.7113 L 6.03711 -11.7599 L 6.11349 -11.8083 L 6.1808 -11.8612 L 6.24989 -11.825 L 6.31876 -11.7883 L 6.38742 -11.7512 L 6.45586 -11.7138 L 6.52408 -11.6759 L 6.59208 -11.6377 L 6.78247 -11.5277 L 6.8496 -11.488 L 6.9165 -11.4478 L 6.98316 -11.4073 L 7.04958 -11.3664 L 7.11577 -11.325 L 7.18171 -11.2833 L 7.16951 -11.1986 L 7.16578 -11.1082 L 7.16196 -11.0177 L 7.15805 -10.9271 L 7.15406 -10.8364 L 7.14997 -10.7455 L 7.14579 -10.6544 L 7.14151 -10.5633 L 7.13713 -10.4719 L 7.13265 -10.3805 L 7.12807 -10.2888 L 7.12337 -10.1971 L 7.11857 -10.1051 L 7.11366 -10.013 L 7.10864 -9.92076 L 7.10349 -9.82834 L 7.09823 -9.73575 L 7.09284 -9.64299 L 7.08732 -9.55006 L 7.08167 -9.45696 L 7.0759 -9.36367 L 7.06998 -9.27021 L 7.06392 -9.17656 L 7.05772 -9.08272 L 7.05137 -8.98869 L 7.04487 -8.89447 L 7.03821 -8.80005 L 7.0314 -8.70544 L 7.02441 -8.61061 L 7.01726 -8.51558 L 7.00994 -8.42034 L 7.00243 -8.32489 L 6.99475 -8.22921 L 6.98687 -8.13332 L 6.9788 -8.0372 L 6.97053 -7.94084 L 6.96205 -7.84426 L 6.95337 -7.74744 L 6.94446 -7.65037 L 6.93534 -7.55306 L 6.92598 -7.45549 L 6.91638 -7.35768 L 6.90654 -7.2596 L 6.89645 -7.16125 L 6.8861 -7.06264 L 6.87549 -6.96376 L 6.86459 -6.86459 L 6.86459 -6.86459 L 6.96376 -6.87549 L 7.06264 -6.8861 L 7.16125 -6.89645 L 7.2596 -6.90654 L 7.35768 -6.91638 L 7.45549 -6.92598 L 7.55306 -6.93534 L 7.65037 -6.94446 L 7.74744 -6.95337 L 7.84426 -6.96205 L 7.94084 -6.97053 L 8.0372 -6.9788 L 8.13332 -6.98687 L 8.22921 -6.99475 L 8.32489 -7.00243 L 8.42034 -7.00994 L 8.51558 -7.01726 L 8.61061 -7.02441 L 8.70544 -7.0314 L 8.80005 -7.03821 L 8.89447 -7.04487 L 8.98869 -7.05137 L 9.08272 -7.05772 L 9.17656 -7.06392 L 9.27021 -7.06998 L 9.36367 -7.0759 L 9.45696 -7.08167 L 9.55006 -7.08732 L 9.64299 -7.09284 L 9.73575 -7.09823 L 9.82834 -7.10349 L 9.92076 -7.10864 L 10.013 -7.11366 L 10.1051 -7.11857 L 10.1971 -7.12337 L 10.2888 -7.12807 L 10.3805 -7.13265 L 10.4719 -7.13713 L 10.5633 -7.14151 L 10.6544 -7.14579 L 10.7455 -7.14997 L 10.8364 -7.15406 L 10.9271 -7.15805 L 11.0177 -7.16196 L 11.1082 -7.16578 L 11.1986 -7.16951 L 11.2833 -7.18171 L 11.325 -7.11577 L 11.3664 -7.04958 L 11.4073 -6.98316 L 11.4478 -6.9165 L 11.488 -6.8496 L 11.5277 -6.78247 L 11.6377 -6.59208 L 11.6759 -6.52408 L 11.7138 -6.45586 L 11.7512 -6.38742 L 11.7883 -6.31876 L 11.825 -6.24989 L 11.8612 -6.1808 L 11.8083 -6.11349 L 11.7599 -6.03711 L 11.7113 -5.96066 L 11.6626 -5.88414 L 11.6138 -5.80754 L 11.5648 -5.73087 L 11.5157 -5.65412 L 11.4664 -5.5773 L 11.4169 -5.5004 L 11.3673 -5.42342 L 11.3175 -5.34636 L 11.2676 -5.26922 L 11.2174 -5.192 L 11.1671 -5.1147 L 11.1166 -5.03732 L 11.066 -4.95985 L 11.0151 -4.8823 L 10.9641 -4.80466 L 10.9128 -4.72694 L 10.8614 -4.64913 L 10.8097 -4.57123 L 10.7579 -4.49325 L 10.7058 -4.41517 L 10.6535 -4.33701 L 10.601 -4.25875 L 10.5483 -4.1804 L 10.4953 -4.10196 L 10.4421 -4.02343 L 10.3886 -3.9448 L 10.3349 -3.86608 L 10.281 -3.78726 L 10.2267 -3.70835 L 10.1722 -3.62933 L 10.1175 -3.55022 L 10.0624 -3.47102 L 10.0071 -3.39171 L 9.95145 -3.3123 L 9.89551 -3.23279 L 9.83927 -3.15318 L 9.78271 -3.07347 L 9.72582 -2.99366 L 9.6686 -2.91374 L 9.61104 -2.83372 L 9.55313 -2.7536 L 9.49486 -2.67338 L 9.43622 -2.59305 L 9.37721 -2.51262 L 9.37721 -2.51262 L 9.46853 -2.47247 L 9.55948 -2.43222 L 9.65006 -2.39188 L 9.74027 -2.35144 L 9.83013 -2.31093 L 9.91964 -2.27033 L 10.0088 -2.22965 L 10.0976 -2.1889 L 10.1862 -2.14808 L 10.2744 -2.10719 L 10.3622 -2.06623 L 10.4498 -2.02522 L 10.5371 -1.98415 L 10.6241 -1.94302 L 10.7108 -1.90184 L 10.7972 -1.86061 L 10.8833 -1.81934 L 10.9692 -1.77801 L 11.0548 -1.73665 L 11.1402 -1.69524 L 11.2253 -1.6538 L 11.3101 -1.61232 L 11.3947 -1.5708 L 11.4791 -1.52926 L 11.5632 -1.48768 L 11.6471 -1.44607 L 11.7308 -1.40443 L 11.8143 -1.36277 L 11.8975 -1.32108 L 11.9805 -1.27937 L 12.0633 -1.23763 L 12.146 -1.19588 L 12.2284 -1.1541 L 12.3106 -1.11231 L 12.3926 -1.0705 L 12.4744 -1.02867 L 12.5561 -0.986826 L 12.6375 -0.944968 L 12.7188 -0.903097 L 12.7999 -0.861214 L 12.8808 -0.819319 L 12.9616 -0.777413 L 13.0422 -0.735496 L 13.1226 -0.693571 L 13.2029 -0.651637 L 13.283 -0.609695 L 13.3625 -0.577873 L 13.3657 -0.499915 L 13.3683 -0.42194 L 13.3706 -0.343951 L 13.3724 -0.26595 L 13.3737 -0.18794 L 13.3745 -0.109924Z"
id="path1" />
</g>
</svg>
