<?xml version="1.0" encoding="UTF-8" standalone="no"?>
<svg version="1.1">
<g
style="fill:none;stroke:#000000;stroke-opacity:1;stroke-width:0.1">
<path d="M 14.3746 0.106451 L 14.374 0.173121 L 14.373 0.239787 L 14.3717 0.306447 L 14.3702 0.373101 L 14.3683 0.439747 L 14.3661 0.506384 L 14.3636 0.57301 L 14.3608 0.639623 L 14.3576 0.706223 L 14.3542 0.772807 L 14.3505 0.839375 L 14.2822 0.865073 L 14.2131 0.900883 L 14.144 0.936686 L 14.0748 0.972481 L 14.0054 1.00827 L 13.9359 1.04405 L 13.8663 1.07982 L 13.7966 1.11558 L 13.7267 1.15133 L 13.6568 1.18707 L 13.5867 1.2228 L 13.5165 1.25852 L 13.4461 1.29422 L 13.3756 1.32992 L 13.305 1.3656 L 13.2343 1.40126 L 13.1634 1.43691 L 13.0923 1.47255 L 13.0212 1.50817 L 12.9499 1.54377 L 12.8784 1.57936 L 12.8068 1.61493 L 12.735 1.65047 L 12.6631 1.686 L 12.591 1.72151 L 12.5188 1.757 L 12.4464 1.79246 L 12.3739 1.8279 L 12.3012 1.86332 L 12.2283 1.89871 L 12.1552 1.93408 L 12.082 1.96941 L 12.0086 2.00472 L 11.935 2.04 L 11.8613 2.07525 L 11.7873 2.11047 L 11.7132 2.14565 L 11.6389 2.1808 L 11.5644 2.21591 L 11.4897 2.25098 L 11.4148 2.28602 L 11.3396 2.32101 L 11.2643 2.35596 L 11.1888 2.39087 L 11.1131 2.42573 L 11.0371 2.46055 L 10.9609 2.49531 L 10.8845 2.53003 L 10.8079 2.56469 L 10.731 2.5993 L 10.654 2.63385 L 10.5766 2.66834 L 10.499 2.70277 L 10.4212 2.73713 L 10.3431 2.77143 L 10.3431 2.77143 L 10.3936 2.84018 L 10.4438 2.90885 L 10.4938 2.97746 L 10.5435 3.046 L 10.593 3.11446 L 10.6423 3.18287 L 10.6913 3.2512 L 10.7401 3.31946 L 10.7887 3.38766 L 10.8371 3.45579 L 10.8852 3.52385 L 10.9332 3.59184 L 10.9809 3.65977 L 11.0285 3.72763 L 11.0758 3.79543 L 11.123 3.86316 L 11.17 3.93082 L 11.2168 3.99842 L 11.2634 4.06595 L 11.3098 4.13342 L 11.356 4.20082 L 11.4021 4.26817 L 11.448 4.33544 L 11.4938 4.40266 L 11.5394 4.46981 L 11.5848 4.5369 L 11.63 4.60393 L 11.6752 4.6709 L 11.7201 4.7378 L 11.7649 4.80465 L 11.8096 4.87143 L 11.8541 4.93816 L 11.8985 5.00482 L 11.9427 5.07143 L 11.9868 5.13798 L 12.0307 5.20447 L 12.0746 5.27091 L 12.1183 5.33728 L 12.1618 5.4036 L 12.2053 5.46987 L 12.2486 5.53607 L 12.2918 5.60223 L 12.3349 5.66832 L 12.3778 5.73437 L 12.4207 5.80036 L 12.4634 5.86629 L 12.506 5.93218 L 12.5485 5.99801 L 12.5909 6.06378 L 12.6332 6.12951 L 12.6753 6.19518 L 12.7174 6.26081 L 12.7594 6.32638 L 12.8012 6.3919 L 12.8476 6.44832 L 12.8175 6.50784 L 12.7872 6.56721 L 12.7566 6.62645 L 12.7257 6.68555 L 12.6946 6.7445 L 12.6632 6.8033 L 12.6315 6.86196 L 12.5995 6.92048 L 12.5673 6.97884 L 12.5348 7.03705 L 12.502 7.09511 L 12.3955 7.27949 L 12.3617 7.33691 L 12.3275 7.39416 L 12.2931 7.45126 L 12.2584 7.50819 L 12.2234 7.56497 L 12.1882 7.62158 L 12.1527 7.67803 L 12.117 7.73431 L 12.081 7.79043 L 12.0447 7.84638 L 12.0082 7.90216 L 11.9362 7.89025 L 11.8585 7.88675 L 11.7807 7.88319 L 11.7029 7.87957 L 11.6249 7.87588 L 11.5468 7.87213 L 11.4687 7.8683 L 11.3904 7.86441 L 11.312 7.86045 L 11.2336 7.85642 L 11.155 7.85232 L 11.0763 7.84814 L 10.9976 7.84389 L 10.9187 7.83956 L 10.8397 7.83515 L 10.7606 7.83066 L 10.6814 7.82609 L 10.602 7.82143 L 10.5226 7.8167 L 10.443 7.81187 L 10.3633 7.80696 L 10.2835 7.80196 L 10.2036 7.79686 L 10.1236 7.79168 L 10.0434 7.78639 L 9.96311 7.78101 L 9.88269 7.77553 L 9.80214 7.76995 L 9.72146 7.76427 L 9.64065 7.75848 L 9.55971 7.75258 L 9.47862 7.74657 L 9.3974 7.74045 L 9.31604 7.73421 L 9.23454 7.72786 L 9.1529 7.72139 L 9.07111 7.71479 L 8.98918 7.70807 L 8.90709 7.70122 L 8.82485 7.69424 L 8.74246 7.68713 L 8.65992 7.67988 L 8.57722 7.67249 L 8.49435 7.66496 L 8.41133 7.65728 L 8.32814 7.64945 L 8.24479 7.64147 L 8.16127 7.63334 L 8.07758 7.62504 L 7.99371 7.61658 L 7.90967 7.60796 L 7.82545 7.59916 L 7.74105 7.59019 L 7.65647 7.58103 L 7.5717 7.5717 L 7.5717 7.5717 L 7.58103 7.65647 L 7.59019 7.74105 L 7.59916 7.82545 L 7.60796 7.90967 L 7.61658 7.99371 L 7.62504 8.07758 L 7.63334 8.16127 L 7.64147 8.24479 L 7.64945 8.32814 L 7.65728 8.41133 L 7.66496 8.49435 L 7.67249 8.57722 L 7.67988 8.65992 L 7.68713 8.74246 L 7.69424 8.82485 L 7.70122 8.90709 L 7.70807 8.98918 L 7.71479 9.07111 L 7.72139 9.1529 L 7.72786 9.23454 L 7.73421 9.31604 L 7.74045 9.3974 L 7.74657 9.47862 L 7.75258 9.55971 L 7.75848 9.64065 L 7.76427 9.72146 L 7.76995 9.80214 L 7.77553 9.88269 L 7.78101 9.96311 L 7.78639 10.0434 L 7.79168 10.1236 L 7.79686 10.2036 L 7.80196 10.2835 L 7.80696 10.3633 L 7.81187 10.443 L 7.8167 10.5226 L 7.82143 10.602 L 7.82609 10.6814 L 7.83066 10.7606 L 7.83515 10.8397 L 7.83956 10.9187 L 7.84389 10.9976 L 7.84814 11.0763 L 7.85232 11.155 L 7.85642 11.2336 L 7.86045 11.312 L 7.86441 11.3904 L 7.8683 11.4687 L 7.87213 11.5468 L 7.87588 11.6249 L 7.87957 11.7029 L 7.88319 11.7807 L 7.88675 11.8585 L 7.89025 11.9362 L 7.90216 12.0082 L 7.84638 12.0447 L 7.79043 12.081 L 7.73431 12.117 L 7.67803 12.1527 L 7.62158 12.1882 L 7.56497 12.2234 L 7.50819 12.2584 L 7.45126 12.2931 L 7.39416 12.3275 L 7.33691 12.3617 L 7.27949 12.3955 L 7.09511 12.502 L 7.03705 12.5348 L 6.97884 12.5673 L 6.92048 12.5995 L 6.86196 12.6315 L 6.8033 12.6632 L 6.7445 12.6946 L 6.68555 12.7257 L 6.62645 12.7566 L 6.56721 12.7872 L 6.50784 12.8175 L 6.44832 12.8476 L 6.3919 12.8012 L 6.32638 12.7594 L 6.26081 12.7174 L 6.19518 12.6753 L 6.12951 12.6332 L 6.06378 12.5909 L 5.99801 12.5485 L 5.93218 12.506 L 5.86629 12.4634 L 5.80036 12.4207 L 5.73437 12.3778 L 5.66832 12.3349 L 5.60223 12.2918 L 5.53607 12.2486 L 5.46987 12.2053 L 5.4036 12.1618 L 5.33728 12.1183 L 5.27091 12.0746 L 5.20447 12.0307 L 5.13798 11.9868 L 5.07143 11.9427 L 5.00482 11.8985 L 4.93816 11.8541 L 4.87143 11.8096 L 4.80465 11.7649 L 4.7378 11.7201 L 4.6709 11.6752 L 4.60393 11.63 L 4.5369 11.5848 L 4.46981 11.5394 L 4.40266 11.4938 L 4.33544 11.448 L 4.26817 11.4021 L 4.20082 11.356 L 4.13342 11.3098 L 4.06595 11.2634 L 3.99842 11.2168 L 3.93082 11.17 L 3.86316 11.123 L 3.79543 11.0758 L 3.72763 11.0285 L 3.65977 10.9809 L 3.59184 10.9332 L 3.52385 10.8852 L 3.45579 10.8371 L 3.38766 10.7887 L 3.31946 10.7401 L 3.2512 10.6913 L 3.18287 10.6423 L 3.11446 10.593 L 3.046 10.5435 L 2.97746 10.4938 L 2.90885 10.4438 L 2.84018 10.3936 L 2.77143 10.3431 L 2.77143 10.3431 L 2.73713 10.4212 L 2.70277 10.499 L 2.66834 10.5766 L 2.63385 10.654 L 2.5993 10.731 L 2.56469 10.8079 L 2.53003 10.8845 L 2.49531 10.9609 L 2.46055 11.0371 L 2.42573 11.1131 L 2.39087 11.1888 L 2.35596 11.2643 L 2.32101 11.3396 L 2.28602 11.4148 L 2.25098 11.4897 L 2.21591 11.5644 L 2.1808 11.6389 L 2.14565 11.7132 L 2.11047 11.7873 L 2.07525 11.8613 L 2.04 11.935 L 2.00472 12.0086 L 1.96941 12.082 L 1.93408 12.1552 L 1.89871 12.2283 L 1.86332 12.3012 L 1.8279 12.3739 L 1.79246 12.4464 L 1.757 12.5188 L 1.72151 12.591 L 1.686 12.6631 L 1.65047 12.735 L 1.61493 12.8068 L 1.57936 12.8784 L 1.54377 12.9499 L 1.50817 13.0212 L 1.47255 13.0923 L 1.43691 13.1634 L 1.40126 13.2343 L 1.3656 13.305 L 1.32992 13.3756 L 1.29422 13.4461 L 1.25852 13.5165 L 1.2228 13.5867 L 1.18707 13.6568 L 1.15133 13.7267 L 1.11558 13.7966 L 1.07982 13.8663 L 1.04405 13.9359 L 1.00827 14.0054 L 0.972481 14.0748 L 0.936686 14.144 L 0.900883 14.2131 L 0.865073 14.2822 L 0.839375 14.3505 L 0.772807 14.3542 L 0.706223 14.3576 L 0.639623 14.3608 L 0.57301 14.3636 L 0.506384 14.3661 L 0.439747 14.3683 L 0.373101 14.3702 L 0.306447 14.3717 L 0.239787 14.373 L 0.173121 14.374 L 0.106451 14.3746 L -0.106451 14.3746 L -0.173121 14.374 L -0.239787 14.373 L -0.306447 14.3717 L -0.373101 14.3702 L -0.439747 14.3683 L -0.506384 14.3661 L -0.57301 14.3636 L -0.639623 14.3608 L -0.706223 14.3576 L -0.772807 14.3542 L -0.839375 14.3505 L -0.865073 14.2822 L -0.900883 14.2131 L -0.936686 14.144 L -0.972481 14.0748 L -1.00827 14.0054 L -1.04405 13.9359 L -1.07982 13.8663 L -1.11558 13.7966 L -1.15133 13.7267 L -1.18707 13.6568 L -1.2228 13.5867 L -1.25852 13.5165 L -1.29422 13.4461 L -1.32992 13.3756 L -1.3656 13.305 L -1.40126 13.2343 L -1.43691 13.1634 L -1.47255 13.0923 L -1.50817 13.0212 L -1.54377 12.9499 L -1.57936 12.8784 L -1.61493 12.8068 L -1.65047 12.735 L -1.686 12.6631 L -1.72151 12.591 L -1.757 12.5188 L -1.79246 12.4464 L -1.8279 12.3739 L -1.86332 12.3012 L -1.89871 12.2283 L -1.93408 12.1552 L -1.96941 12.082 L -2.00472 12.0086 L -2.04 11.935 L -2.07525 11.8613 L -2.11047 11.7873 L -2.14565 11.7132 L -2.1808 11.6389 L -2.21591 11.5644 L -2.25098 11.4897 L -2.28602 11.4148 L -2.32101 11.3396 L -2.35596 11.2643 L -2.39087 11.1888 L -2.42573 11.1131 L -2.46055 11.0371 L -2.49531 10.9609 L -2.53003 10.8845 L -2.56469 10.8079 L -2.5993 10.731 L -2.63385 10.654 L -2.66834 10.5766 L -2.70277 10.499 L -2.73713 10.4212 L -2.77143 10.3431 L -2.77143 10.3431 L -2.84018 10.3936 L -2.90885 10.4438 L -2.97746 10.4938 L -3.046 10.5435 L -3.11446 10.593 L -3.18287 10.6423 L -3.2512 10.6913 L -3.31946 10.7401 L -3.38766 10.7887 L -3.45579 10.8371 L -3.52385 10.8852 L -3.59184 10.9332 L -3.65977 10.9809 L -3.72763 11.0285 L -3.79543 11.0758 L -3.86316 11.123 L -3.93082 11.17 L -3.99842 11.2168 L -4.06595 11.2634 L -4.13342 11.3098 L -4.20082 11.356 L -4.26817 11.4021 L -4.33544 11.448 L -4.40266 11.4938 L -4.46981 11.5394 L -4.5369 11.5848 L -4.60393 11.63 L -4.6709 11.6752 L -4.7378 11.7201 L -4.80465 11.7649 L -4.87143 11.8096 L -4.93816 11.8541 L -5.00482 11.8985 L -5.07143 11.9427 L -5.13798 11.9868 L -5.20447 12.0307 L -5.27091 12.0746 L -5.33728 12.1183 L -5.4036 12.1618 L -5.46987 12.2053 L -5.53607 12.2486 L -5.60223 12.2918 L -5.66832 12.3349 L -5.73437 12.3778 L -5.80036 12.4207 L -5.86629 12.4634 L -5.93218 12.506 L -5.99801 12.5485 L -6.06378 12.5909 L -6.12951 12.6332 L -6.19518 12.6753 L -6.26081 12.7174 L -6.32638 12.7594 L -6.3919 12.8012 L -6.44832 12.8476 L -6.50784 12.8175 L -6.56721 12.7872 L -6.62645 12.7566 L -6.68555 12.7257 L -6.7445 12.6946 L -6.8033 12.6632 L -6.86196 12.6315 L -6.92048 12.5995 L -6.97884 12.5673 L -7.03705 12.5348 L -7.09511 12.502 L -7.27949 12.3955 L -7.33691 12.3617 L -7.39416 12.3275 L -7.45126 12.2931 L -7.50819 12.2584 L -7.56497 12.2234 L -7.62158 12.1882 L -7.67803 12.1527 L -7.73431 12.117 L -7.79043 12.081 L -7.84638 12.0447 L -7.90216 12.0082 L -7.89025 11.9362 L -7.88675 11.8585 L -7.88319 11.7807 L -7.87957 11.7029 L -7.87588 11.6249 L -7.87213 11.5468 L -7.8683 11.4687 L -7.86441 11.3904 L -7.86045 11.312 L -7.85642 11.2336 L -7.85232 11.155 L -7.84814 11.0763 L -7.84389 10.9976 L -7.83956 10.9187 L -7.83515 10.8397 L -7.83066 10.7606 L -7.82609 10.6814 L -7.82143 10.602 L -7.8167 10.5226 L -7.81187 10.443 L -7.80696 10.3633 L -7.80196 10.2835 L -7.79686 10.2036 L -7.79168 10.1236 L -7.78639 10.0434 L -7.78101 9.96311 L -7.77553 9.88269 L -7.76995 9.80214 L -7.76427 9.72146 L -7.75848 9.64065 L -7.75258 9.55971 L -7.74657 9.47862 L -7.74045 9.3974 L -7.73421 9.31604 L -7.72786 9.23454 L -7.72139 9.1529 L -7.71479 9.07111 L -7.70807 8.98918 L -7.70122 8.90709 L -7.69424 8.82485 L -7.68713 8.74246 L -7.67988 8.65992 L -7.67249 8.57722 L -7.66496 8.49435 L -7.65728 8.41133 L -7.64945 8.32814 L -7.64147 8.24479 L -7.63334 8.16127 L -7.62504 8.07758 L -7.61658 7.99371 L -7.60796 7.90967 L -7.59916 7.82545 L -7.59019 7.74105 L -7.58103 7.65647 L -7.5717 7.5717 L -7.5717 7.5717 L -7.65647 7.58103 L -7.74105 7.59019 L -7.82545 7.59916 L -7.90967 7.60796 L -7.99371 7.61658 L -8.07758 7.62504 L -8.16127 7.63334 L -8.24479 7.64147 L -8.32814 7.64945 L -8.41133 7.65728 L -8.49435 7.66496 L -8.57722 7.67249 L -8.65992 7.67988 L -8.74246 7.68713 L -8.82485 7.69424 L -8.90709 7.70122 L -8.98918 7.70807 L -9.07111 7.71479 L -9.1529 7.72139 L -9.23454 7.72786 L -9.31604 7.73421 L -9.3974 7.74045 L -9.47862 7.74657 L -9.55971 7.75258 L -9.64065 7.75848 L -9.72146 7.76427 L -9.80214 7.76995 L -9.88269 7.77553 L -9.96311 7.78101 L -10.0434 7.78639 L -10.1236 7.79168 L -10.2036 7.79686 L -10.2835 7.80196 L -10.3633 7.80696 L -10.443 7.81187 L -10.5226 7.8167 L -10.602 7.82143 L -10.6814 7.82609 L -10.7606 7.83066 L -10.8397 7.83515 L -10.9187 7.83956 L -10.9976 7.84389 L -11.0763 7.84814 L -11.155 7.85232 L -11.2336 7.85642 L -11.312 7.86045 L -11.3904 7.86441 L -11.4687 7.8683 L -11.5468 7.87213 L -11.6249 7.87588 L -11.7029 7.87957 L -11.7807 7.88319 L -11.8585 7.88675 L -11.9362 7.89025 L -12.0082 7.90216 L -12.0447 7.84638 L -12.081 7.79043 L -12.117 7.73431 L -12.1527 7.67803 L -12.1882 7.62158 L -12.2234 7.56497 L -12.2584 7.50819 L -12.2931 7.45126 L -12.3275 7.39416 L -12.3617 7.33691 L -12.3955 7.27949 L -12.502 7.09511 L -12.5348 7.03705 L -12.5673 6.97884 L -12.5995 6.92048 L -12.6315 6.86196 L -12.6632 6.8033 L -12.6946 6.7445 L -12.7257 6.68555 L -12.7566 6.62645 L -12.7872 6.56721 L -12.8175 6.50784 L -12.8476 6.44832 L -12.8012 6.3919 L -12.7594 6.32638 L -12.7174 6.26081 L -12.6753 6.19518 L -12.6332 6.12951 L -12.5909 6.06378 L -12.5485 5.99801 L -12.506 5.93218 L -12.4634 5.86629 L -12.4207 5.80036 L -12.3778 5.73437 L -12.3349 5.66832 L -12.2918 5.60223 L -12.2486 5.53607 L -12.2053 5.46987 L -12.1618 5.4036 L -12.1183 5.33728 L -12.0746 5.27091 L -12.0307 5.20447 L -11.9868 5.13798 L -11.9427 5.07143 L -11.8985 5.00482 L -11.8541 4.93816 L -11.8096 4.87143 L -11.7649 4.80465 L -11.7201 4.7378 L -11.6752 4.6709 L -11.63 4.60393 L -11.5848 4.5369 L -11.5394 4.46981 L -11.4938 4.40266 L -11.448 4.33544 L -11.4021 4.26817 L -11.356 4.20082 L -11.3098 4.13342 L -11.2634 4.06595 L -11.2168 3.99842 L -11.17 3.93082 L -11.123 3.86316 L -11.0758 3.79543 L -11.0285 3.72763 L -10.9809 3.65977 L -10.9332 3.59184 L -10.8852 3.52385 L -10.8371 3.45579 L -10.7887 3.38766 L -10.7401 3.31946 L -10.6913 3.2512 L -10.6423 3.18287 L -10.593 3.11446 L -10.5435 3.046 L -10.4938 2.97746 L -10.4438 2.90885 L -10.3936 2.84018 L -10.3431 2.77143 L -10.3431 2.77143 L -10.4212 2.73713 L -10.499 2.70277 L -10.5766 2.66834 L -10.654 2.63385 L -10.731 2.5993 L -10.8079 2.56469 L -10.8845 2.53003 L -10.9609 2.49531 L -11.0371 2.46055 L -11.1131 2.42573 L -11.1888 2.39087 L -11.2643 2.35596 L -11.3396 2.32101 L -11.4148 2.28602 L -11.4897 2.25098 L -11.5644 2.21591 L -11.6389 2.1808 L -11.7132 2.14565 L -11.7873 2.11047 L -11.8613 2.07525 L -11.935 2.04 L -12.0086 2.00472 L -12.082 1.96941 L -12.1552 1.93408 L -12.2283 1.89871 L -12.3012 1.86332 L -12.3739 1.8279 L -12.4464 1.79246 L -12.5188 1.757 L -12.591 1.72151 L -12.6631 1.686 L -12.735 1.65047 L -12.8068 1.61493 L -12.8784 1.57936 L -12.9499 1.54377 L -13.0212 1.50817 L -13.0923 1.47255 L -13.1634 1.43691 L -13.2343 1.40126 L -13.305 1.3656 L -13.3756 1.32992 L -13.4461 1.29422 L -13.5165 1.25852 L -13.5867 1.2228 L -13.6568 1.18707 L -13.7267 1.15133 L -13.7966 1.11558 L -13.8663 1.07982 L -13.9359 1.04405 L -14.0054 1.00827 L -14.0748 0.972481 L -14.144 0.936686 L -14.2131 0.900883 L -14.2822 0.865073 L -14.3505 0.839375 L -14.3542 0.772807 L -14.3576 0.706223 L -14.3608 0.639623 L -14.3636 0.57301 L -14.3661 0.506384 L -14.3683 0.439747 L -14.3702 0.373101 L -14.3717 0.306447 L -14.373 0.239787 L -14.374 0.173121 L -14.3746 0.106451 L -14.3746 -0.106451 L -14.374 -0.173121 L -14.373 -0.239787 L -14.3717 -0.306447 L -14.3702 -0.373101 L -14.3683 -0.439747 L -14.3661 -0.506384 L -14.3636 -0.57301 L -14.3608 -0.639623 L -14.3576 -0.706223 L -14.3542 -0.772807 L -14.3505 -0.839375 L -14.2822 -0.865073 L -14.2131 -0.900883 L -14.144 -0.936686 L -14.0748 -0.972481 L -14.0054 -1.00827 L -13.9359 -1.04405 L -13.8663 -1.07982 L -13.7966 -1.11558 L -13.7267 -1.15133 L -13.6568 -1.18707 L -13.5867 -1.2228 L -13.5165 -1.25852 L -13.4461 -1.29422 L -13.3756 -1.32992 L -13.305 -1.3656 L -13.2343 -1.40126 L -13.1634 -1.43691 L -13.0923 -1.47255 L -13.0212 -1.50817 L -12.9499 -1.54377 L -12.8784 -1.57936 L -12.8068 -1.61493 L -12.735 -1.65047 L -12.6631 -1.686 L -12.591 -1.72151 L -12.5188 -1.757 L -12.4464 -1.79246 L -12.3739 -1.8279 L -12.3012 -1.86332 L -12.2283 -1.89871 L -12.1552 -1.93408 L -12.082 -1.96941 L -12.0086 -2.00472 L -11.935 -2.04 L -11.8613 -2.07525 L -11.7873 -2.11047 L -11.7132 -2.14565 L -11.6389 -2.1808 L -11.5644 -2.21591 L -11.4897 -2.25098 L -11.4148 -2.28602 L -11.3396 -2.32101 L -11.2643 -2.35596 L -11.1888 -2.39087 L -11.1131 -2.42573 L -11.0371 -2.46055 L -10.9609 -2.49531 L -10.8845 -2.53003 L -10.8079 -2.56469 L -10.731 -2.5993 L -10.654 -2.63385 L -10.5766 -2.66834 L -10.499 -2.70277 L -10.4212 -2.73713 L -10.3431 -2.77143 L -10.3431 -2.77143 L -10.3936 -2.84018 L -10.4438 -2.90885 L -10.4938 -2.97746 L -10.5435 -3.046 L -10.593 -3.11446 L -10.6423 -3.18287 L -10.6913 -3.2512 L -10.7401 -3.31946 L -10.7887 -3.38766 L -10.8371 -3.45579 L -10.8852 -3.52385 L -10.9332 -3.59184 L -10.9809 -3.65977 L -11.0285 -3.72763 L -11.0758 -3.79543 L -11.123 -3.86316 L -11.17 -3.93082 L -11.2168 -3.99842 L -11.2634 -4.06595 L -11.3098 -4.13342 L -11.356 -4.20082 L -11.4021 -4.26817 L -11.448 -4.33544 L -11.4938 -4.40266 L -11.5394 -4.46981 L -11.5848 -4.5369 L -11.63 -4.60393 L -11.6752 -4.6709 L -11.7201 -4.7378 L -11.7649 -4.80465 L -11.8096 -4.87143 L -11.8541 -4.93816 L -11.8985 -5.00482 L -11.9427 -5.07143 L -11.9868 -5.13798 L -12.0307 -5.20447 L -12.0746 -5.27091 L -12.1183 -5.33728 L -12.1618 -5.4036 L -12.2053 -5.46987 L -12.2486 -5.53607 L -12.2918 -5.60223 L -12.3349 -5.66832 L -12.3778 -5.73437 L -12.4207 -5.80036 L -12.4634 -5.86629 L -12.506 -5.93218 L -12.5485 -5.99801 L -12.5909 -6.06378 L -12.6332 -6.12951 L -12.6753 -6.19518 L -12.7174 -6.26081 L -12.7594 -6.32638 L -12.8012 -6.3919 L -12.8476 -6.44832 L -12.8175 -6.50784 L -12.7872 -6.56721 L -12.7566 -6.62645 L -12.7257 -6.68555 L -12.6946 -6.7445 L -12.6632 -6.8033 L -12.6315 -6.86196 L -12.5995 -6.92048 L -12.5673 -6.97884 L -12.5348 -7.03705 L -12.502 -7.09511 L -12.3955 -7.27949 L -12.3617 -7.33691 L -12.3275 -7.39416 L -12.2931 -7.45126 L -12.2584 -7.50819 L -12.2234 -7.56497 L -12.1882 -7.62158 L -12.1527 -7.67803 L -12.117 -7.73431 L -12.081 -7.79043 L -12.0447 -7.84638 L -12.0082 -7.90216 L -11.9362 -7.89025 L -11.8585 -7.88675 L -11.7807 -7.88319 L -11.7029 -7.87957 L -11.6249 -7.87588 L -11.5468 -7.87213 L -11.4687 -7.8683 L -11.3904 -7.86441 L -11.312 -7.86045 L -11.2336 -7.85642 L -11.155 -7.85232 L -11.0763 -7.84814 L -10.9976 -7.84389 L -10.9187 -7.83956 L -10.8397 -7.83515 L -10.7606 -7.83066 L -10.6814 -7.82609 L -10.602 -7.82143 L -10.5226 -7.8167 L -10.443 -7.81187 L -10.3633 -7.80696 L -10.2835 -7.80196 L -10.2036 -7.79686 L -10.1236 -7.79168 L -10.0434 -7.78639 L -9.96311 -7.78101 L -9.88269 -7.77553 L -9.80214 -7.76995 L -9.72146 -7.76427 L -9.64065 -7.75848 L -9.55971 -7.75258 L -9.47862 -7.74657 L -9.3974 -7.74045 L -9.31604 -7.73421 L -9.23454 -7.72786 L -9.1529 -7.72139 L -9.07111 -7.71479 L -8.98918 -7.70807 L -8.90709 -7.70122 L -8.82485 -7.69424 L -8.74246 -7.68713 L -8.65992 -7.67988 L -8.57722 -7.67249 L -8.49435 -7.66496 L -8.41133 -7.65728 L -8.32814 -7.64945 L -8.24479 -7.64147 L -8.16127 -7.63334 L -8.07758 -7.62504 L -7.99371 -7.61658 L -7.90967 -7.60796 L -7.82545 -7.59916 L -7.74105 -7.59019 L -7.65647 -7.58103 L -7.5717 -7.5717 L -7.5717 -7.5717 L -7.58103 -7.65647 L -7.59019 -7.74105 L -7.59916 -7.82545 L -7.60796 -7.90967 L -7.61658 -7.99371 L -7.62504 -8.07758 L -7.63334 -8.16127 L -7.64147 -8.24479 L -7.64945 -8.32814 L -7.65728 -8.41133 L -7.66496 -8.49435 L -7.67249 -8.57722 L -7.67988 -8.65992 L -7.68713 -8.74246 L -7.69424 -8.82485 L -7.70122 -8.90709 L -7.70807 -8.98918 L -7.71479 -9.07111 L -7.72139 -9.1529 L -7.72786 -9.23454 L -7.73421 -9.31604 L -7.74045 -9.3974 L -7.74657 -9.47862 L -7.75258 -9.55971 L -7.75848 -9.64065 L -7.76427 -9.72146 L -7.76995 -9.80214 L -7.77553 -9.88269 L -7.78101 -9.96311 L -7.78639 -10.0434 L -7.79168 -10.1236 L -7.79686 -10.2036 L -7.80196 -10.2835 L -7.80696 -10.3633 L -7.81187 -10.443 L -7.8167 -10.5226 L -7.82143 -10.602 L -7.82609 -10.6814 L -7.83066 -10.7606 L -7.83515 -10.8397 L -7.83956 -10.9187 L -7.84389 -10.9976 L -7.84814 -11.0763 L -7.85232 -11.155 L -7.85642 -11.2336 L -7.86045 -11.312 L -7.86441 -11.3904 L -7.8683 -11.4687 L -7.87213 -11.5468 L -7.87588 -11.6249 L -7.87957 -11.7029 L -7.88319 -11.7807 L -7.88675 -11.8585 L -7.89025 -11.9362 L -7.90216 -12.0082 L -7.84638 -12.0447 L -7.79043 -12.081 L -7.73431 -12.117 L -7.67803 -12.1527 L -7.62158 -12.1882 L -7.56497 -12.2234 L -7.50819 -12.2584 L -7.45126 -12.2931 L -7.39416 -12.3275 L -7.33691 -12.3617 L -7.27949 -12.3955 L -7.09511 -12.502 L -7.03705 -12.5348 L -6.97884 -12.5673 L -6.92048 -12.5995 L -6.86196 -12.6315 L -6.8033 -12.6632 L -6.7445 -12.6946 L -6.68555 -12.7257 L -6.62645 -12.7566 L -6.56721 -12.7872 L -6.50784 -12.8175 L -6.44832 -12.8476 L -6.3919 -12.8012 L -6.32638 -12.7594 L -6.26081 -12.7174 L -6.19518 -12.6753 L -6.12951 -12.6332 L -6.06378 -12.5909 L -5.99801 -12.5485 L -5.93218 -12.506 L -5.86629 -12.4634 L -5.80036 -12.4207 L -5.73437 -12.3778 L -5.66832 -12.3349 L -5.60223 -12.2918 L -5.53607 -12.2486 L -5.46987 -12.2053 L -5.4036 -12.1618 L -5.33728 -12.1183 L -5.27091 -12.0746 L -5.20447 -12.0307 L -5.13798 -11.9868 L -5.07143 -11.9427 L -5.00482 -11.8985 L -4.93816 -11.8541 L -4.87143 -11.8096 L -4.80465 -11.7649 L -4.7378 -11.7201 L -4.6709 -11.6752 L -4.60393 -11.63 L -4.5369 -11.5848 L -4.46981 -11.5394 L -4.40266 -11.4938 L -4.33544 -11.448 L -4.26817 -11.4021 L -4.20082 -11.356 L -4.13342 -11.3098 L -4.06595 -11.2634 L -3.99842 -11.2168 L -3.93082 -11.17 L -3.86316 -11.123 L -3.79543 -11.0758 L -3.72763 -11.0285 L -3.65977 -10.9809 L -3.59184 -10.9332 L -3.52385 -10.8852 L -3.45579 -10.8371 L -3.38766 -10.7887 L -3.31946 -10.7401 L -3.2512 -10.6913 L -3.18287 -10.6423 L -3.11446 -10.593 L -3.046 -10.5435 L -2.97746 -10.4938 L -2.90885 -10.4438 L -2.84018 -10.3936 L -2.77143 -10.3431 L -2.77143 -10.3431 L -2.73713 -10.4212 L -2.70277 -10.499 L -2.66834 -10.5766 L -2.63385 -10.654 L -2.5993 -10.731 L -2.56469 -10.8079 L -2.53003 -10.8845 L -2.49531 -10.9609 L -2.46055 -11.0371 L -2.42573 -11.1131 L -2.39087 -11.1888 L -2.35596 -11.2643 L -2.32101 -11.3396 L -2.28602 -11.4148 L -2.25098 -11.4897 L -2.21591 -11.5644 L -2.1808 -11.6389 L -2.14565 -11.7132 L -2.11047 -11.7873 L -2.07525 -11.8613 L -2.04 -11.935 L -2.00472 -12.0086 L -1.96941 -12.082 L -1.93408 -12.1552 L -1.89871 -12.2283 L -1.86332 -12.3012 L -1.8279 -12.3739 L -1.79246 -12.4464 L -1.757 -12.5188 L -1.72151 -12.591 L -1.686 -12.6631 L -1.65047 -12.735 L -1.61493 -12.8068 L -1.57936 -12.8784 L -1.54377 -12.9499 L -1.50817 -13.0212 L -1.47255 -13.0923 L -1.43691 -13.1634 L -1.40126 -13.2343 L -1.3656 -13.305 L -1.32992 -13.3756 L -1.29422 -13.4461 L -1.25852 -13.5165 L -1.2228 -13.5867 L -1.18707 -13.6568 L -1.15133 -13.7267 L -1.11558 -13.7966 L -1.07982 -13.8663 L -1.04405 -13.9359 L -1.00827 -14.0054 L -0.972481 -14.0748 L -0.936686 -14.144 L -0.900883 -14.2131 L -0.865073 -14.2822 L -0.839375 -14.3505 L -0.772807 -14.3542 L -0.706223 -14.3576 L -0.639623 -14.3608 L -0.57301 -14.3636 L -0.506384 -14.3661 L -0.439747 -14.3683 L -0.373101 -14.3702 L -0.306447 -14.3717 L -0.239787 -14.373 L -0.173121 -14.374 L -0.106451 -14.3746 L 0.106451 -14.3746 L 0.173121 -14.374 L 0.239787 -14.373 L 0.306447 -14.3717 L 0.373101 -14.3702 L 0.439747 -14.3683 L 0.506384 -14.3661 L 0.57301 -14.3636 L 0.639623 -14.3608 L 0.706223 -14.3576 L 0.772807 -14.3542 L 0.839375 -14.3505 L 0.865073 -14.2822 L 0.900883 -14.2131 L 0.936686 -14.144 L 0.972481 -14.0748 L 1.00827 -14.0054 L 1.04405 -13.9359 L 1.07982 -13.8663 L 1.11558 -13.7966 L 1.15133 -13.7267 L 1.18707 -13.6568 L 1.2228 -13.5867 L 1.25852 -13.5165 L 1.29422 -13.4461 L 1.32992 -13.3756 L 1.3656 -13.305 L 1.40126 -13.2343 L 1.43691 -13.1634 L 1.47255 -13.0923 L 1.50817 -13.0212 L 1.54377 -12.9499 L 1.57936 -12.8784 L 1.61493 -12.8068 L 1.65047 -12.735 L 1.686 -12.6631 L 1.72151 -12.591 L 1.757 -12.5188 L 1.79246 -12.4464 L 1.8279 -12.3739 L 1.86332 -12.3012 L 1.89871 -12.2283 L 1.93408 -12.1552 L 1.96941 -12.082 L 2.00472 -12.0086 L 2.04 -11.935 L 2.07525 -11.8613 L 2.11047 -11.7873 L 2.14565 -11.7132 L 2.1808 -11.6389 L 2.21591 -11.5644 L 2.25098 -11.4897 L 2.28602 -11.4148 L 2.32101 -11.3396 L 2.35596 -11.2643 L 2.39087 -11.1888 L 2.42573 -11.1131 L 2.46055 -11.0371 L 2.49531 -10.9609 L 2.53003 -10.8845 L 2.56469 -10.8079 L 2.5993 -10.731 L 2.63385 -10.654 L 2.66834 -10.5766 L 2.70277 -10.499 L 2.73713 -10.4212 L 2.77143 -10.3431 L 2.77143 -10.3431 L 2.84018 -10.3936 L 2.90885 -10.4438 L 2.97746 -10.4938 L 3.046 -10.5435 L 3.11446 -10.593 L 3.18287 -10.6423 L 3.2512 -10.6913 L 3.31946 -10.7401 L 3.38766 -10.7887 L 3.45579 -10.8371 L 3.52385 -10.8852 L 3.59184 -10.9332 L 3.65977 -10.9809 L 3.72763 -11.0285 L 3.79543 -11.0758 L 3.86316 -11.123 L 3.93082 -11.17 L 3.99842 -11.2168 L 4.06595 -11.2634 L 4.13342 -11.3098 L 4.20082 -11.356 L 4.26817 -11.4021 L 4.33544 -11.448 L 4.40266 -11.4938 L 4.46981 -11.5394 L 4.5369 -11.5848 L 4.60393 -11.63 L 4.6709 -11.6752 L 4.7378 -11.7201 L 4.80465 -11.7649 L 4.87143 -11.8096 L 4.93816 -11.8541 L 5.00482 -11.8985 L 5.07143 -11.9427 L 5.13798 -11.9868 L 5.20447 -12.0307 L 5.27091 -12.0746 L 5.33728 -12.1183 L 5.4036 -12.1618 L 5.46987 -12.2053 L 5.53607 -12.2486 L 5.60223 -12.2918 L 5.66832 -12.3349 L 5.73437 -12.3778 L 5.80036 -12.4207 L 5.86629 -12.4634 L 5.93218 -12.506 L 5.99801 -12.5485 L 6.06378 -12.5909 L 6.12951 -12.6332 L 6.19518 -12.6753 L 6.26081 -12.7174 L 6.32638 -12.7594 L 6.3919 -12.8012 L 6.44832 -12.8476 L 6.50784 -12.8175 L 6.56721 -12.7872 L 6.62645 -12.7566 L 6.68555 -12.7257 L 6.7445 -12.6946 L 6.8033 -12.6632 L 6.86196 -12.6315 L 6.92048 -12.5995 L 6.97884 -12.5673 L 7.03705 -12.5348 L 7.09511 -12.502 L 7.27949 -12.3955 L 7.33691 -12.3617 L 7.39416 -12.3275 L 7.45126 -12.2931 L 7.50819 -12.2584 L 7.56497 -12.2234 L 7.62158 -12.1882 L 7.67803 -12.1527 L 7.73431 -12.117 L 7.79043 -12.081 L 7.84638 -12.0447 L 7.90216 -12.0082 L 7.89025 -11.9362 L 7.88675 -11.8585 L 7.88319 -11.7807 L 7.87957 -11.7029 L 7.87588 -11.6249 L 7.87213 -11.5468 L 7.8683 -11.4687 L 7.86441 -11.3904 L 7.86045 -11.312 L 7.85642 -11.2336 L 7.85232 -11.155 L 7.84814 -11.0763 L 7.84389 -10.9976 L 7.83956 -10.9187 L 7.83515 -10.8397 L 7.83066 -10.7606 L 7.82609 -10.6814 L 7.82143 -10.602 L 7.8167 -10.5226 L 7.81187 -10.443 L 7.80696 -10.3633 L 7.80196 -10.2835 L 7.79686 -10.2036 L 7.79168 -10.1236 L 7.78639 -10.0434 L 7.78101 -9.96311 L 7.77553 -9.88269 L 7.76995 -9.80214 L 7.76427 -9.72146 L 7.75848 -9.64065 L 7.75258 -9.55971 L 7.74657 -9.47862 L 7.74045 -9.3974 L 7.73421 -9.31604 L 7.72786 -9.23454 L 7.72139 -9.1529 L 7.71479 -9.07111 L 7.70807 -8.98918 L 7.70122 -8.90709 L 7.69424 -8.82485 L 7.68713 -8.74246 L 7.67988 -8.65992 L 7.67249 -8.57722 L 7.66496 -8.49435 L 7.65728 -8.41133 L 7.64945 -8.32814 L 7.64147 -8.24479 L 7.63334 -8.16127 L 7.62504 -8.07758 L 7.61658 -7.99371 L 7.60796 -7.90967 L 7.59916 -7.82545 L 7.59019 -7.74105 L 7.58103 -7.65647 L 7.5717 -7.5717 L 7.5717 -7.5717 L 7.65647 -7.58103 L 7.74105 -7.59019 L 7.82545 -7.59916 L 7.90967 -7.60796 L 7.99371 -7.61658 L 8.07758 -7.62504 L 8.16127 -7.63334 L 8.24479 -7.64147 L 8.32814 -7.64945 L 8.41133 -7.65728 L 8.49435 -7.66496 L 8.57722 -7.67249 L 8.65992 -7.67988 L 8.74246 -7.68713 L 8.82485 -7.69424 L 8.90709 -7.70122 L 8.98918 -7.70807 L 9.07111 -7.71479 L 9.1529 -7.72139 L 9.23454 -7.72786 L 9.31604 -7.73421 L 9.3974 -7.74045 L 9.47862 -7.74657 L 9.55971 -7.75258 L 9.64065 -7.75848 L 9.72146 -7.76427 L 9.80214 -7.76995 L 9.88269 -7.77553 L 9.96311 -7.78101 L 10.0434 -7.78639 L 10.1236 -7.79168 L 10.2036 -7.79686 L 10.2835 -7.80196 L 10.3633 -7.80696 L 10.443 -7.81187 L 10.5226 -7.8167 L 10.602 -7.82143 L 10.6814 -7.82609 L 10.7606 -7.83066 L 10.8397 -7.83515 L 10.9187 -7.83956 L 10.9976 -7.84389 L 11.0763 -7.84814 L 11.155 -7.85232 L 11.2336 -7.85642 L 11.312 -7.86045 L 11.3904 -7.86441 L 11.4687 -7.8683 L 11.5468 -7.87213 L 11.6249 -7.87588 L 11.7029 -7.87957 L 11.7807 -7.88319 L 11.8585 -7.88675 L 11.9362 -7.89025 L 12.0082 -7.90216 L 12.0447 -7.84638 L 12.081 -7.79043 L 12.117 -7.73431 L 12.1527 -7.67803 L 12.1882 -7.62158 L 12.2234 -7.56497 L 12.2584 -7.50819 L 12.2931 -7.45126 L 12.3275 -7.39416 L 12.3617 -7.33691 L 12.3955 -7.27949 L 12.502 -7.09511 L 12.5348 -7.03705 L 12.5673 -6.97884 L 12.5995 -6.92048 L 12.6315 -6.86196 L 12.6632 -6.8033 L 12.6946 -6.7445 L 12.7257 -6.68555 L 12.7566 -6.62645 L 12.7872 -6.56721 L 12.8175 -6.50784 L 12.8476 -6.44832 L 12.8012 -6.3919 L 12.7594 -6.32638 L 12.7174 -6.26081 L 12.6753 -6.19518 L 12.6332 -6.12951 L 12.5909 -6.06378 L 12.5485 -5.99801 L 12.506 -5.93218 L 12.4634 -5.86629 L 12.4207 -5.80036 L 12.3778 -5.73437 L 12.3349 -5.66832 L 12.2918 -5.60223 L 12.2486 -5.53607 L 12.2053 -5.46987 L 12.1618 -5.4036 L 12.1183 -5.33728 L 12.0746 -5.27091 L 12.0307 -5.20447 L 11.9868 -5.13798 L 11.9427 -5.07143 L 11.8985 -5.00482 L 11.8541 -4.93816 L 11.8096 -4.87143 L 11.7649 -4.80465 L 11.7201 -4.7378 L 11.6752 -4.6709 L 11.63 -4.60393 L 11.5848 -4.5369 L 11.5394 -4.46981 L 11.4938 -4.40266 L 11.448 -4.33544 L 11.4021 -4.26817 L 11.356 -4.20082 L 11.3098 -4.13342 L 11.2634 -4.06595 L 11.2168 -3.99842 L 11.17 -3.93082 L 11.123 -3.86316 L 11.0758 -3.79543 L 11.0285 -3.72763 L 10.9809 -3.65977 L 10.9332 -3.59184 L 10.8852 -3.52385 L 10.8371 -3.45579 L 10.7887 -3.38766 L 10.7401 -3.31946 L 10.6913 -3.2512 L 10.6423 -3.18287 L 10.593 -3.11446 L 10.5435 -3.046 L 10.4938 -2.97746 L 10.4438 -2.90885 L 10.3936 -2.84018 L 10.3431 -2.77143 L 10.3431 -2.77143 L 10.4212 -2.73713 L 10.499 -2.70277 L 10.5766 -2.66834 L 10.654 -2.63385 L 10.731 -2.5993 L 10.8079 -2.56469 L 10.8845 -2.53003 L 10.9609 -2.49531 L 11.0371 -2.46055 L 11.1131 -2.42573 L 11.1888 -2.39087 L 11.2643 -2.35596 L 11.3396 -2.32101 L 11.4148 -2.28602 L 11.4897 -2.25098 L 11.5644 -2.21591 L 11.6389 -2.1808 L 11.7132 -2.14565 L 11.7873 -2.11047 L 11.8613 -2.07525 L 11.935 -2.04 L 12.0086 -2.00472 L 12.082 -1.96941 L 12.1552 -1.93408 L 12.2283 -1.89871 L 12.3012 -1.86332 L 12.3739 -1.8279 L 12.4464 -1.79246 L 12.5188 -1.757 L 12.591 -1.72151 L 12.6631 -1.686 L 12.735 -1.65047 L 12.8068 -1.61493 L 12.8784 -1.57936 L 12.9499 -1.54377 L 13.0212 -1.50817 L 13.0923 -1.47255 L 13.1634 -1.43691 L 13.2343 -1.40126 L 13.305 -1.3656 L 13.3756 -1.32992 L 13.4461 -1.29422 L 13.5165 -1.25852 L 13.5867 -1.2228 L 13.6568 -1.18707 L 13.7267 -1.15133 L 13.7966 -1.11558 L 13.8663 -1.07982 L 13.9359 -1.04405 L 14.0054 -1.00827 L 14.0748 -0.972481 L 14.144 -0.936686 L 14.2131 -0.900883 L 14.2822 -0.865073 L 14.3505 -0.839375 L 14.3542 -0.772807 L 14.3576 -0.706223 L 14.3608 -0.639623 L 14.3636 -0.57301 L 14.3661 -0.506384 L 14.3683 -0.439747 L 14.3702 -0.373101 L 14.3717 -0.306447 L 14.373 -0.239787 L 14.374 -0.173121 L 14.3746 -0.106451Z"
id="path1" />
</g>
</svg>
