<?xml version="1.0" encoding="UTF-8" standalone="no"?>
<svg version="1.1">
<g
style="fill:none;stroke:#000000;stroke-opacity:1;stroke-width:0.1">
<path d="M 14.6245 0.117714 L 14.6239 0.182623 L 14.6229 0.247528 L 14.6217 0.312429 L 14.6201 0.377323 L 14.6183 0.44221 L 14.6162 0.507088 L 14.6138 0.571956 L 14.6111 0.636812 L 14.6082 0.701657 L 14.6049 0.766487 L 14.6014 0.831302 L 14.5975 0.896101 L 14.531 0.920623 L 14.4637 0.955169 L 14.3963 0.989707 L 14.3288 1.02424 L 14.2612 1.05876 L 14.1935 1.09328 L 14.1257 1.12779 L 14.0577 1.16228 L 13.9897 1.19677 L 13.9215 1.23125 L 13.8533 1.26572 L 13.7849 1.30018 L 13.7164 1.33463 L 13.6477 1.36906 L 13.579 1.40348 L 13.5101 1.43789 L 13.4411 1.47229 L 13.372 1.50667 L 13.3027 1.54104 L 13.2333 1.57539 L 13.1638 1.60973 L 13.0941 1.64405 L 13.0243 1.67835 L 12.9544 1.71264 L 12.8843 1.7469 L 12.8141 1.78115 L 12.7437 1.81538 L 12.6732 1.84958 L 12.6025 1.88377 L 12.5317 1.91793 L 12.4607 1.95207 L 12.3896 1.98618 L 12.3183 2.02027 L 12.2469 2.05433 L 12.1753 2.08836 L 12.1035 2.12237 L 12.0315 2.15634 L 11.9594 2.19029 L 11.8871 2.2242 L 11.8147 2.25808 L 11.742 2.29192 L 11.6692 2.32573 L 11.5962 2.35951 L 11.523 2.39324 L 11.4496 2.42694 L 11.376 2.46059 L 11.3022 2.4942 L 11.2282 2.52777 L 11.154 2.56129 L 11.0796 2.59476 L 11.005 2.62819 L 10.9302 2.66156 L 10.8551 2.69488 L 10.7799 2.72815 L 10.7044 2.76136 L 10.6287 2.79451 L 10.5527 2.8276 L 10.5527 2.8276 L 10.602 2.89423 L 10.651 2.96079 L 10.6997 3.02729 L 10.7483 3.09373 L 10.7966 3.16011 L 10.8447 3.22642 L 10.8926 3.29267 L 10.9403 3.35886 L 10.9878 3.42498 L 11.0351 3.49105 L 11.0822 3.55705 L 11.1291 3.62299 L 11.1758 3.68887 L 11.2223 3.75469 L 11.2687 3.82044 L 11.3148 3.88614 L 11.3608 3.95177 L 11.4067 4.01735 L 11.4523 4.08287 L 11.4978 4.14832 L 11.5431 4.21372 L 11.5883 4.27906 L 11.6333 4.34434 L 11.6781 4.40956 L 11.7228 4.47473 L 11.7674 4.53983 L 11.8117 4.60488 L 11.856 4.66988 L 11.9001 4.73481 L 11.9441 4.79969 L 11.9879 4.86452 L 12.0316 4.92929 L 12.0751 4.994 L 12.1186 5.05867 L 12.1619 5.12327 L 12.205 5.18783 L 12.2481 5.25232 L 12.291 5.31677 L 12.3338 5.38117 L 12.3765 5.44551 L 12.419 5.5098 L 12.4615 5.57404 L 12.5038 5.63822 L 12.546 5.70236 L 12.5881 5.76645 L 12.6301 5.83049 L 12.672 5.89447 L 12.7138 5.95841 L 12.7555 6.0223 L 12.7971 6.08614 L 12.8386 6.14993 L 12.8799 6.21368 L 12.9212 6.27738 L 12.9624 6.34103 L 13.0035 6.40463 L 13.0445 6.46819 L 13.0899 6.52271 L 13.0608 6.58075 L 13.0315 6.63865 L 13.0019 6.69643 L 12.972 6.75407 L 12.9419 6.81158 L 12.9115 6.86895 L 12.8809 6.92619 L 12.8501 6.98329 L 12.8189 7.04026 L 12.7876 7.09709 L 12.7559 7.15377 L 12.7241 7.21032 L 12.6064 7.41421 L 12.5733 7.47009 L 12.54 7.52582 L 12.5065 7.5814 L 12.4727 7.63684 L 12.4387 7.69212 L 12.4045 7.74725 L 12.37 7.80223 L 12.3352 7.85706 L 12.3002 7.91173 L 12.265 7.96625 L 12.2295 8.02061 L 12.1938 8.07481 L 12.1239 8.06276 L 12.0483 8.05904 L 11.9727 8.05525 L 11.897 8.05141 L 11.8212 8.04751 L 11.7453 8.04355 L 11.6693 8.03952 L 11.5932 8.03543 L 11.517 8.03128 L 11.4408 8.02706 L 11.3644 8.02278 L 11.288 8.01842 L 11.2114 8.014 L 11.1348 8.00951 L 11.058 8.00494 L 10.9811 8.0003 L 10.9042 7.99559 L 10.8271 7.9908 L 10.75 7.98593 L 10.6727 7.98099 L 10.5953 7.97596 L 10.5178 7.97085 L 10.4402 7.96566 L 10.3625 7.96038 L 10.2847 7.95502 L 10.2067 7.94956 L 10.1287 7.94402 L 10.0505 7.93839 L 9.97223 7.93266 L 9.89382 7.92683 L 9.81529 7.92091 L 9.73663 7.91489 L 9.65785 7.90877 L 9.57894 7.90254 L 9.49991 7.89621 L 9.42074 7.88977 L 9.34145 7.88322 L 9.26202 7.87655 L 9.18245 7.86978 L 9.10275 7.86288 L 9.02291 7.85587 L 8.94293 7.84873 L 8.86281 7.84147 L 8.78255 7.83409 L 8.70214 7.82657 L 8.62158 7.81892 L 8.54087 7.81113 L 8.46002 7.80321 L 8.379 7.79514 L 8.29784 7.78693 L 8.21651 7.77858 L 8.13503 7.77007 L 8.05338 7.76141 L 7.97157 7.75259 L 7.8896 7.7436 L 7.80745 7.73446 L 7.72514 7.72514 L 7.72514 7.72514 L 7.73446 7.80745 L 7.7436 7.8896 L 7.75259 7.97157 L 7.76141 8.05338 L 7.77007 8.13503 L 7.77858 8.21651 L 7.78693 8.29784 L 7.79514 8.379 L 7.80321 8.46002 L 7.81113 8.54087 L 7.81892 8.62158 L 7.82657 8.70214 L 7.83409 8.78255 L 7.84147 8.86281 L 7.84873 8.94293 L 7.85587 9.02291 L 7.86288 9.10275 L 7.86978 9.18245 L 7.87655 9.26202 L 7.88322 9.34145 L 7.88977 9.42074 L 7.89621 9.49991 L 7.90254 9.57894 L 7.90877 9.65785 L 7.91489 9.73663 L 7.92091 9.81529 L 7.92683 9.89382 L 7.93266 9.97223 L 7.93839 10.0505 L 7.94402 10.1287 L 7.94956 10.2067 L 7.95502 10.2847 L 7.96038 10.3625 L 7.96566 10.4402 L 7.97085 10.5178 L 7.97596 10.5953 L 7.98099 10.6727 L 7.98593 10.75 L 7.9908 10.8271 L 7.99559 10.9042 L 8.0003 10.9811 L 8.00494 11.058 L 8.00951 11.1348 L 8.014 11.2114 L 8.01842 11.288 L 8.02278 11.3644 L 8.02706 11.4408 L 8.03128 11.517 L 8.03543 11.5932 L 8.03952 11.6693 L 8.04355 11.7453 L 8.04751 11.8212 L 8.05141 11.897 L 8.05525 11.9727 L 8.05904 12.0483 L 8.06276 12.1239 L 8.07481 12.1938 L 8.02061 12.2295 L 7.96625 12.265 L 7.91173 12.3002 L 7.85706 12.3352 L 7.80223 12.37 L 7.74725 12.4045 L 7.69212 12.4387 L 7.63684 12.4727 L 7.5814 12.5065 L 7.52582 12.54 L 7.47009 12.5733 L 7.41421 12.6064 L 7.21032 12.7241 L 7.15377 12.7559 L 7.09709 12.7876 L 7.04026 12.8189 L 6.98329 12.8501 L 6.92619 12.8809 L 6.86895 12.9115 L 6.81158 12.9419 L 6.75407 12.972 L 6.69643 13.0019 L 6.63865 13.0315 L 6.58075 13.0608 L 6.52271 13.0899 L 6.46819 13.0445 L 6.40463 13.0035 L 6.34103 12.9624 L 6.27738 12.9212 L 6.21368 12.8799 L 6.14993 12.8386 L 6.08614 12.7971 L 6.0223 12.7555 L 5.95841 12.7138 L 5.89447 12.672 L 5.83049 12.6301 L 5.76645 12.5881 L 5.70236 12.546 L 5.63822 12.5038 L 5.57404 12.4615 L 5.5098 12.419 L 5.44551 12.3765 L 5.38117 12.3338 L 5.31677 12.291 L 5.25232 12.2481 L 5.18783 12.205 L 5.12327 12.1619 L 5.05867 12.1186 L 4.994 12.0751 L 4.92929 12.0316 L 4.86452 11.9879 L 4.79969 11.9441 L 4.73481 11.9001 L 4.66988 11.856 L 4.60488 11.8117 L 4.53983 11.7674 L 4.47473 11.7228 L 4.40956 11.6781 L 4.34434 11.6333 L 4.27906 11.5883 L 4.21372 11.5431 L 4.14832 11.4978 L 4.08287 11.4523 L 4.01735 11.4067 L 3.95177 11.3608 L 3.88614 11.3148 L 3.82044 11.2687 L 3.75469 11.2223 L 3.68887 11.1758 L 3.62299 11.1291 L 3.55705 11.0822 L 3.49105 11.0351 L 3.42498 10.9878 L 3.35886 10.9403 L 3.29267 10.8926 L 3.22642 10.8447 L 3.16011 10.7966 L 3.09373 10.7483 L 3.02729 10.6997 L 2.96079 10.651 L 2.89423 10.602 L 2.8276 10.5527 L 2.8276 10.5527 L 2.79451 10.6287 L 2.76136 10.7044 L 2.72815 10.7799 L 2.69488 10.8551 L 2.66156 10.9302 L 2.62819 11.005 L 2.59476 11.0796 L 2.56129 11.154 L 2.52777 11.2282 L 2.4942 11.3022 L 2.46059 11.376 L 2.42694 11.4496 L 2.39324 11.523 L 2.35951 11.5962 L 2.32573 11.6692 L 2.29192 11.742 L 2.25808 11.8147 L 2.2242 11.8871 L 2.19029 11.9594 L 2.15634 12.0315 L 2.12237 12.1035 L 2.08836 12.1753 L 2.05433 12.2469 L 2.02027 12.3183 L 1.98618 12.3896 L 1.95207 12.4607 L 1.91793 12.5317 L 1.88377 12.6025 L 1.84958 12.6732 L 1.81538 12.7437 L 1.78115 12.8141 L 1.7469 12.8843 L 1.71264 12.9544 L 1.67835 13.0243 L 1.64405 13.0941 L 1.60973 13.1638 L 1.57539 13.2333 L 1.54104 13.3027 L 1.50667 13.372 L 1.47229 13.4411 L 1.43789 13.5101 L 1.40348 13.579 L 1.36906 13.6477 L 1.33463 13.7164 L 1.30018 13.7849 L 1.26572 13.8533 L 1.23125 13.9215 L 1.19677 13.9897 L 1.16228 14.0577 L 1.12779 14.1257 L 1.09328 14.1935 L 1.05876 14.2612 L 1.02424 14.3288 L 0.989707 14.3963 L 0.955169 14.4637 L 0.920623 14.531 L 0.896101 14.5975 L 0.831302 14.6014 L 0.766487 14.6049 L 0.701657 14.6082 L 0.636812 14.6111 L 0.571956 14.6138 L 0.507088 14.6162 L 0.44221 14.6183 L 0.377323 14.6201 L 0.312429 14.6217 L 0.247528 14.6229 L 0.182623 14.6239 L 0.117714 14.6245 L -0.117714 14.6245 L -0.182623 14.6239 L -0.247528 14.6229 L -0.312429 14.6217 L -0.377323 14.6201 L -0.44221 14.6183 L -0.507088 14.6162 L -0.571956 14.6138 L -0.636812 14.6111 L -0.701657 14.6082 L -0.766487 14.6049 L -0.831302 14.6014 L -0.896101 14.5975 L -0.920623 14.531 L -0.955169 14.4637 L -0.989707 14.3963 L -1.02424 14.3288 L -1.05876 14.2612 L -1.09328 14.1935 L -1.12779 14.1257 L -1.16228 14.0577 L -1.19677 13.9897 L -1.23125 13.9215 L -1.26572 13.8533 L -1.30018 13.7849 L -1.33463 13.7164 L -1.36906 13.6477 L -1.40348 13.579 L -1.43789 13.5101 L -1.47229 13.4411 L -1.50667 13.372 L -1.54104 13.3027 L -1.57539 13.2333 L -1.60973 13.1638 L -1.64405 13.0941 L -1.67835 13.0243 L -1.71264 12.9544 L -1.7469 12.8843 L -1.78115 12.8141 L -1.81538 12.7437 L -1.84958 12.6732 L -1.88377 12.6025 L -1.91793 12.5317 L -1.95207 12.4607 L -1.98618 12.3896 L -2.02027 12.3183 L -2.05433 12.2469 L -2.08836 12.1753 L -2.12237 12.1035 L -2.15634 12.0315 L -2.19029 11.9594 L -2.2242 11.8871 L -2.25808 11.8147 L -2.29192 11.742 L -2.32573 11.6692 L -2.35951 11.5962 L -2.39324 11.523 L -2.42694 11.4496 L -2.46059 11.376 L -2.4942 11.3022 L -2.52777 11.2282 L -2.56129 11.154 L -2.59476 11.0796 L -2.62819 11.005 L -2.66156 10.9302 L -2.69488 10.8551 L -2.72815 10.7799 L -2.76136 10.7044 L -2.79451 10.6287 L -2.8276 10.5527 L -2.8276 10.5527 L -2.89423 10.602 L -2.96079 10.651 L -3.02729 10.6997 L -3.09373 10.7483 L -3.16011 10.7966 L -3.22642 10.8447 L -3.29267 10.8926 L -3.35886 10.9403 L -3.42498 10.9878 L -3.49105 11.0351 L -3.55705 11.0822 L -3.62299 11.1291 L -3.68887 11.1758 L -3.75469 11.2223 L -3.82044 11.2687 L -3.88614 11.3148 L -3.95177 11.3608 L -4.01735 11.4067 L -4.08287 11.4523 L -4.14832 11.4978 L -4.21372 11.5431 L -4.27906 11.5883 L -4.34434 11.6333 L -4.40956 11.6781 L -4.47473 11.7228 L -4.53983 11.7674 L -4.60488 11.8117 L -4.66988 11.856 L -4.73481 11.9001 L -4.79969 11.9441 L -4.86452 11.9879 L -4.92929 12.0316 L -4.994 12.0751 L -5.05867 12.1186 L -5.12327 12.1619 L -5.18783 12.205 L -5.25232 12.2481 L -5.31677 12.291 L -5.38117 12.3338 L -5.44551 12.3765 L -5.5098 12.419 L -5.57404 12.4615 L -5.63822 12.5038 L -5.70236 12.546 L -5.76645 12.5881 L -5.83049 12.6301 L -5.89447 12.672 L -5.95841 12.7138 L -6.0223 12.7555 L -6.08614 12.7971 L -6.14993 12.8386 L -6.21368 12.8799 L -6.27738 12.9212 L -6.34103 12.9624 L -6.40463 13.0035 L -6.46819 13.0445 L -6.52271 13.0899 L -6.58075 13.0608 L -6.63865 13.0315 L -6.69643 13.0019 L -6.75407 12.972 L -6.81158 12.9419 L -6.86895 12.9115 L -6.92619 12.8809 L -6.98329 12.8501 L -7.04026 12.8189 L -7.09709 12.7876 L -7.15377 12.7559 L -7.21032 12.7241 L -7.41421 12.6064 L -7.47009 12.5733 L -7.52582 12.54 L -7.5814 12.5065 L -7.63684 12.4727 L -7.69212 12.4387 L -7.74725 12.4045 L -7.80223 12.37 L -7.85706 12.3352 L -7.91173 12.3002 L -7.96625 12.265 L -8.02061 12.2295 L -8.07481 12.1938 L -8.06276 12.1239 L -8.05904 12.0483 L -8.05525 11.9727 L -8.05141 11.897 L -8.04751 11.8212 L -8.04355 11.7453 L -8.03952 11.6693 L -8.03543 11.5932 L -8.03128 11.517 L -8.02706 11.4408 L -8.02278 11.3644 L -8.01842 11.288 L -8.014 11.2114 L -8.00951 11.1348 L -8.00494 11.058 L -8.0003 10.9811 L -7.99559 10.9042 L -7.9908 10.8271 L -7.98593 10.75 L -7.98099 10.6727 L -7.97596 10.5953 L -7.97085 10.5178 L -7.96566 10.4402 L -7.96038 10.3625 L -7.95502 10.2847 L -7.94956 10.2067 L -7.94402 10.1287 L -7.93839 10.0505 L -7.93266 9.97223 L -7.92683 9.89382 L -7.92091 9.81529 L -7.91489 9.73663 L -7.90877 9.65785 L -7.90254 9.57894 L -7.89621 9.49991 L -7.88977 9.42074 L -7.88322 9.34145 L -7.87655 9.26202 L -7.86978 9.18245 L -7.86288 9.10275 L -7.85587 9.02291 L -7.84873 8.94293 L -7.84147 8.86281 L -7.83409 8.78255 L -7.82657 8.70214 L -7.81892 8.62158 L -7.81113 8.54087 L -7.80321 8.46002 L -7.79514 8.379 L -7.78693 8.29784 L -7.77858 8.21651 L -7.77007 8.13503 L -7.76141 8.05338 L -7.75259 7.97157 L -7.7436 7.8896 L -7.73446 7.80745 L -7.72514 7.72514 L -7.72514 7.72514 L -7.80745 7.73446 L -7.8896 7.7436 L -7.97157 7.75259 L -8.05338 7.76141 L -8.13503 7.77007 L -8.21651 7.77858 L -8.29784 7.78693 L -8.379 7.79514 L -8.46002 7.80321 L -8.54087 7.81113 L -8.62158 7.81892 L -8.70214 7.82657 L -8.78255 7.83409 L -8.86281 7.84147 L -8.94293 7.84873 L -9.02291 7.85587 L -9.10275 7.86288 L -9.18245 7.86978 L -9.26202 7.87655 L -9.34145 7.88322 L -9.42074 7.88977 L -9.49991 7.89621 L -9.57894 7.90254 L -9.65785 7.90877 L -9.73663 7.91489 L -9.81529 7.92091 L -9.89382 7.92683 L -9.97223 7.93266 L -10.0505 7.93839 L -10.1287 7.94402 L -10.2067 7.94956 L -10.2847 7.95502 L -10.3625 7.96038 L -10.4402 7.96566 L -10.5178 7.97085 L -10.5953 7.97596 L -10.6727 7.98099 L -10.75 7.98593 L -10.8271 7.9908 L -10.9042 7.99559 L -10.9811 8.0003 L -11.058 8.00494 L -11.1348 8.00951 L -11.2114 8.014 L -11.288 8.01842 L -11.3644 8.02278 L -11.4408 8.02706 L -11.517 8.03128 L -11.5932 8.03543 L -11.6693 8.03952 L -11.7453 8.04355 L -11.8212 8.04751 L -11.897 8.05141 L -11.9727 8.05525 L -12.0483 8.05904 L -12.1239 8.06276 L -12.1938 8.07481 L -12.2295 8.02061 L -12.265 7.96625 L -12.3002 7.91173 L -12.3352 7.85706 L -12.37 7.80223 L -12.4045 7.74725 L -12.4387 7.69212 L -12.4727 7.63684 L -12.5065 7.5814 L -12.54 7.52582 L -12.5733 7.47009 L -12.6064 7.41421 L -12.7241 7.21032 L -12.7559 7.15377 L -12.7876 7.09709 L -12.8189 7.04026 L -12.8501 6.98329 L -12.8809 6.92619 L -12.9115 6.86895 L -12.9419 6.81158 L -12.972 6.75407 L -13.0019 6.69643 L -13.0315 6.63865 L -13.0608 6.58075 L -13.0899 6.52271 L -13.0445 6.46819 L -13.0035 6.40463 L -12.9624 6.34103 L -12.9212 6.27738 L -12.8799 6.21368 L -12.8386 6.14993 L -12.7971 6.08614 L -12.7555 6.0223 L -12.7138 5.95841 L -12.672 5.89447 L -12.6301 5.83049 L -12.5881 5.76645 L -12.546 5.70236 L -12.5038 5.63822 L -12.4615 5.57404 L -12.419 5.5098 L -12.3765 5.44551 L -12.3338 5.38117 L -12.291 5.31677 L -12.2481 5.25232 L -12.205 5.18783 L -12.1619 5.12327 L -12.1186 5.05867 L -12.0751 4.994 L -12.0316 4.92929 L -11.9879 4.86452 L -11.9441 4.79969 L -11.9001 4.73481 L -11.856 4.66988 L -11.8117 4.60488 L -11.7674 4.53983 L -11.7228 4.47473 L -11.6781 4.40956 L -11.6333 4.34434 L -11.5883 4.27906 L -11.5431 4.21372 L -11.4978 4.14832 L -11.4523 4.08287 L -11.4067 4.01735 L -11.3608 3.95177 L -11.3148 3.88614 L -11.2687 3.82044 L -11.2223 3.75469 L -11.1758 3.68887 L -11.1291 3.62299 L -11.0822 3.55705 L -11.0351 3.49105 L -10.9878 3.42498 L -10.9403 3.35886 L -10.8926 3.29267 L -10.8447 3.22642 L -10.7966 3.16011 L -10.7483 3.09373 L -10.6997 3.02729 L -10.651 2.96079 L -10.602 2.89423 L -10.5527 2.8276 L -10.5527 2.8276 L -10.6287 2.79451 L -10.7044 2.76136 L -10.7799 2.72815 L -10.8551 2.69488 L -10.9302 2.66156 L -11.005 2.62819 L -11.0796 2.59476 L -11.154 2.56129 L -11.2282 2.52777 L -11.3022 2.4942 L -11.376 2.46059 L -11.4496 2.42694 L -11.523 2.39324 L -11.5962 2.35951 L -11.6692 2.32573 L -11.742 2.29192 L -11.8147 2.25808 L -11.8871 2.2242 L -11.9594 2.19029 L -12.0315 2.15634 L -12.1035 2.12237 L -12.1753 2.08836 L -12.2469 2.05433 L -12.3183 2.02027 L -12.3896 1.98618 L -12.4607 1.95207 L -12.5317 1.91793 L -12.6025 1.88377 L -12.6732 1.84958 L -12.7437 1.81538 L -12.8141 1.78115 L -12.8843 1.7469 L -12.9544 1.71264 L -13.0243 1.67835 L -13.0941 1.64405 L -13.1638 1.60973 L -13.2333 1.57539 L -13.3027 1.54104 L -13.372 1.50667 L -13.4411 1.47229 L -13.5101 1.43789 L -13.579 1.40348 L -13.6477 1.36906 L -13.7164 1.33463 L -13.7849 1.30018 L -13.8533 1.26572 L -13.9215 1.23125 L -13.9897 1.19677 L -14.0577 1.16228 L -14.1257 1.12779 L -14.1935 1.09328 L -14.2612 1.05876 L -14.3288 1.02424 L -14.3963 0.989707 L -14.4637 0.955169 L -14.531 0.920623 L -14.5975 0.896101 L -14.6014 0.831302 L -14.6049 0.766487 L -14.6082 0.701657 L -14.6111 0.636812 L -14.6138 0.571956 L -14.6162 0.507088 L -14.6183 0.44221 L -14.6201 0.377323 L -14.6217 0.312429 L -14.6229 0.247528 L -14.6239 0.182623 L -14.6245 0.117714 L -14.6245 -0.117714 L -14.6239 -0.182623 L -14.6229 -0.247528 L -14.6217 -0.312429 L -14.6201 -0.377323 L -14.6183 -0.44221 L -14.6162 -0.507088 L -14.6138 -0.571956 L -14.6111 -0.636812 L -14.6082 -0.701657 L -14.6049 -0.766487 L -14.6014 -0.831302 L -14.5975 -0.896101 L -14.531 -0.920623 L -14.4637 -0.955169 L -14.3963 -0.989707 L -14.3288 -1.02424 L -14.2612 -1.05876 L -14.1935 -1.09328 L -14.1257 -1.12779 L -14.0577 -1.16228 L -13.9897 -1.19677 L -13.9215 -1.23125 L -13.8533 -1.26572 L -13.7849 -1.30018 L -13.7164 -1.33463 L -13.6477 -1.36906 L -13.579 -1.40348 L -13.5101 -1.43789 L -13.4411 -1.47229 L -13.372 -1.50667 L -13.3027 -1.54104 L -13.2333 -1.57539 L -13.1638 -1.60973 L -13.0941 -1.64405 L -13.0243 -1.67835 L -12.9544 -1.71264 L -12.8843 -1.7469 L -12.8141 -1.78115 L -12.7437 -1.81538 L -12.6732 -1.84958 L -12.6025 -1.88377 L -12.5317 -1.91793 L -12.4607 -1.95207 L -12.3896 -1.98618 L -12.3183 -2.02027 L -12.2469 -2.05433 L -12.1753 -2.08836 L -12.1035 -2.12237 L -12.0315 -2.15634 L -11.9594 -2.19029 L -11.8871 -2.2242 L -11.8147 -2.25808 L -11.742 -2.29192 L -11.6692 -2.32573 L -11.5962 -2.35951 L -11.523 -2.39324 L -11.4496 -2.42694 L -11.376 -2.46059 L -11.3022 -2.4942 L -11.2282 -2.52777 L -11.154 -2.56129 L -11.0796 -2.59476 L -11.005 -2.62819 L -10.9302 -2.66156 L -10.8551 -2.69488 L -10.7799 -2.72815 L -10.7044 -2.76136 L -10.6287 -2.79451 L -10.5527 -2.8276 L -10.5527 -2.8276 L -10.602 -2.89423 L -10.651 -2.96079 L -10.6997 -3.02729 L -10.7483 -3.09373 L -10.7966 -3.16011 L -10.8447 -3.22642 L -10.8926 -3.29267 L -10.9403 -3.35886 L -10.9878 -3.42498 L -11.0351 -3.49105 L -11.0822 -3.55705 L -11.1291 -3.62299 L -11.1758 -3.68887 L -11.2223 -3.75469 L -11.2687 -3.82044 L -11.3148 -3.88614 L -11.3608 -3.95177 L -11.4067 -4.01735 L -11.4523 -4.08287 L -11.4978 -4.14832 L -11.5431 -4.21372 L -11.5883 -4.27906 L -11.6333 -4.34434 L -11.6781 -4.40956 L -11.7228 -4.47473 L -11.7674 -4.53983 L -11.8117 -4.60488 L -11.856 -4.66988 L -11.9001 -4.73481 L -11.9441 -4.79969 L -11.9879 -4.86452 L -12.0316 -4.92929 L -12.0751 -4.994 L -12.1186 -5.05867 L -12.1619 -5.12327 L -12.205 -5.18783 L -12.2481 -5.25232 L -12.291 -5.31677 L -12.3338 -5.38117 L -12.3765 -5.44551 L -12.419 -5.5098 L -12.4615 -5.57404 L -12.5038 -5.63822 L -12.546 -5.70236 L -12.5881 -5.76645 L -12.6301 -5.83049 L -12.672 -5.89447 L -12.7138 -5.95841 L -12.7555 -6.0223 L -12.7971 -6.08614 L -12.8386 -6.14993 L -12.8799 -6.21368 L -12.9212 -6.27738 L -12.9624 -6.34103 L -13.0035 -6.40463 L -13.0445 -6.46819 L -13.0899 -6.52271 L -13.0608 -6.58075 L -13.0315 -6.63865 L -13.0019 -6.69643 L -12.972 -6.75407 L -12.9419 -6.81158 L -12.9115 -6.86895 L -12.8809 -6.92619 L -12.8501 -6.98329 L -12.8189 -7.04026 L -12.7876 -7.09709 L -12.7559 -7.15377 L -12.7241 -7.21032 L -12.6064 -7.41421 L -12.5733 -7.47009 L -12.54 -7.52582 L -12.5065 -7.5814 L -12.4727 -7.63684 L -12.4387 -7.69212 L -12.4045 -7.74725 L -12.37 -7.80223 L -12.3352 -7.85706 L -12.3002 -7.91173 L -12.265 -7.96625 L -12.2295 -8.02061 L -12.1938 -8.07481 L -12.1239 -8.06276 L -12.0483 -8.05904 L -11.9727 -8.05525 L -11.897 -8.05141 L -11.8212 -8.04751 L -11.7453 -8.04355 L -11.6693 -8.03952 L -11.5932 -8.03543 L -11.517 -8.03128 L -11.4408 -8.02706 L -11.3644 -8.02278 L -11.288 -8.01842 L -11.2114 -8.014 L -11.1348 -8.00951 L -11.058 -8.00494 L -10.9811 -8.0003 L -10.9042 -7.99559 L -10.8271 -7.9908 L -10.75 -7.98593 L -10.6727 -7.98099 L -10.5953 -7.97596 L -10.5178 -7.97085 L -10.4402 -7.96566 L -10.3625 -7.96038 L -10.2847 -7.95502 L -10.2067 -7.94956 L -10.1287 -7.94402 L -10.0505 -7.93839 L -9.97223 -7.93266 L -9.89382 -7.92683 L -9.81529 -7.92091 L -9.73663 -7.91489 L -9.65785 -7.90877 L -9.57894 -7.90254 L -9.49991 -7.89621 L -9.42074 -7.88977 L -9.34145 -7.88322 L -9.26202 -7.87655 L -9.18245 -7.86978 L -9.10275 -7.86288 L -9.02291 -7.85587 L -8.94293 -7.84873 L -8.86281 -7.84147 L -8.78255 -7.83409 L -8.70214 -7.82657 L -8.62158 -7.81892 L -8.54087 -7.81113 L -8.46002 -7.80321 L -8.379 -7.79514 L -8.29784 -7.78693 L -8.21651 -7.77858 L -8.13503 -7.77007 L -8.05338 -7.76141 L -7.97157 -7.75259 L -7.8896 -7.7436 L -7.80745 -7.73446 L -7.72514 -7.72514 L -7.72514 -7.72514 L -7.73446 -7.80745 L -7.7436 -7.8896 L -7.75259 -7.97157 L -7.76141 -8.05338 L -7.77007 -8.13503 L -7.77858 -8.21651 L -7.78693 -8.29784 L -7.79514 -8.379 L -7.80321 -8.46002 L -7.81113 -8.54087 L -7.81892 -8.62158 L -7.82657 -8.70214 L -7.83409 -8.78255 L -7.84147 -8.86281 L -7.84873 -8.94293 L -7.85587 -9.02291 L -7.86288 -9.10275 L -7.86978 -9.18245 L -7.87655 -9.26202 L -7.88322 -9.34145 L -7.88977 -9.42074 L -7.89621 -9.49991 L -7.90254 -9.57894 L -7.90877 -9.65785 L -7.91489 -9.73663 L -7.92091 -9.81529 L -7.92683 -9.89382 L -7.93266 -9.97223 L -7.93839 -10.0505 L -7.94402 -10.1287 L -7.94956 -10.2067 L -7.95502 -10.2847 L -7.96038 -10.3625 L -7.96566 -10.4402 L -7.97085 -10.5178 L -7.97596 -10.5953 L -7.98099 -10.6727 L -7.98593 -10.75 L -7.9908 -10.8271 L -7.99559 -10.9042 L -8.0003 -10.9811 L -8.00494 -11.058 L -8.00951 -11.1348 L -8.014 -11.2114 L -8.01842 -11.288 L -8.02278 -11.3644 L -8.02706 -11.4408 L -8.03128 -11.517 L -8.03543 -11.5932 L -8.03952 -11.6693 L -8.04355 -11.7453 L -8.04751 -11.8212 L -8.05141 -11.897 L -8.05525 -11.9727 L -8.05904 -12.0483 L -8.06276 -12.1239 L -8.07481 -12.1938 L -8.02061 -12.2295 L -7.96625 -12.265 L -7.91173 -12.3002 L -7.85706 -12.3352 L -7.80223 -12.37 L -7.74725 -12.4045 L -7.69212 -12.4387 L -7.63684 -12.4727 L -7.5814 -12.5065 L -7.52582 -12.54 L -7.47009 -12.5733 L -7.41421 -12.6064 L -7.21032 -12.7241 L -7.15377 -12.7559 L -7.09709 -12.7876 L -7.04026 -12.8189 L -6.98329 -12.8501 L -6.92619 -12.8809 L -6.86895 -12.9115 L -6.81158 -12.9419 L -6.75407 -12.972 L -6.69643 -13.0019 L -6.63865 -13.0315 L -6.58075 -13.0608 L -6.52271 -13.0899 L -6.46819 -13.0445 L -6.40463 -13.0035 L -6.34103 -12.9624 L -6.27738 -12.9212 L -6.21368 -12.8799 L -6.14993 -12.8386 L -6.08614 -12.7971 L -6.0223 -12.7555 L -5.95841 -12.7138 L -5.89447 -12.672 L -5.83049 -12.6301 L -5.76645 -12.5881 L -5.70236 -12.546 L -5.63822 -12.5038 L -5.57404 -12.4615 L -5.5098 -12.419 L -5.44551 -12.3765 L -5.38117 -12.3338 L -5.31677 -12.291 L -5.25232 -12.2481 L -5.18783 -12.205 L -5.12327 -12.1619 L -5.05867 -12.1186 L -4.994 -12.0751 L -4.92929 -12.0316 L -4.86452 -11.9879 L -4.79969 -11.9441 L -4.73481 -11.9001 L -4.66988 -11.856 L -4.60488 -11.8117 L -4.53983 -11.7674 L -4.47473 -11.7228 L -4.40956 -11.6781 L -4.34434 -11.6333 L -4.27906 -11.5883 L -4.21372 -11.5431 L -4.14832 -11.4978 L -4.08287 -11.4523 L -4.01735 -11.4067 L -3.95177 -11.3608 L -3.88614 -11.3148 L -3.82044 -11.2687 L -3.75469 -11.2223 L -3.68887 -11.1758 L -3.62299 -11.1291 L -3.55705 -11.0822 L -3.49105 -11.0351 L -3.42498 -10.9878 L -3.35886 -10.9403 L -3.29267 -10.8926 L -3.22642 -10.8447 L -3.16011 -10.7966 L -3.09373 -10.7483 L -3.02729 -10.6997 L -2.96079 -10.651 L -2.89423 -10.602 L -2.8276 -10.5527 L -2.8276 -10.5527 L -2.79451 -10.6287 L -2.76136 -10.7044 L -2.72815 -10.7799 L -2.69488 -10.8551 L -2.66156 -10.9302 L -2.62819 -11.005 L -2.59476 -11.0796 L -2.56129 -11.154 L -2.52777 -11.2282 L -2.4942 -11.3022 L -2.46059 -11.376 L -2.42694 -11.4496 L -2.39324 -11.523 L -2.35951 -11.5962 L -2.32573 -11.6692 L -2.29192 -11.742 L -2.25808 -11.8147 L -2.2242 -11.8871 L -2.19029 -11.9594 L -2.15634 -12.0315 L -2.12237 -12.1035 L -2.08836 -12.1753 L -2.05433 -12.2469 L -2.02027 -12.3183 L -1.98618 -12.3896 L -1.95207 -12.4607 L -1.91793 -12.5317 L -1.88377 -12.6025 L -1.84958 -12.6732 L -1.81538 -12.7437 L -1.78115 -12.8141 L -1.7469 -12.8843 L -1.71264 -12.9544 L -1.67835 -13.0243 L -1.64405 -13.0941 L -1.60973 -13.1638 L -1.57539 -13.2333 L -1.54104 -13.3027 L -1.50667 -13.372 L -1.47229 -13.4411 L -1.43789 -13.5101 L -1.40348 -13.579 L -1.36906 -13.6477 L -1.33463 -13.7164 L -1.30018 -13.7849 L -1.26572 -13.8533 L -1.23125 -13.9215 L -1.19677 -13.9897 L -1.16228 -14.0577 L -1.12779 -14.1257 L -1.09328 -14.1935 L -1.05876 -14.2612 L -1.02424 -14.3288 L -0.989707 -14.3963 L -0.955169 -14.4637 L -0.920623 -14.531 L -0.896101 -14.5975 L -0.831302 -14.6014 L -0.766487 -14.6049 L -0.701657 -14.6082 L -0.636812 -14.6111 L -0.571956 -14.6138 L -0.507088 -14.6162 L -0.44221 -14.6183 L -0.377323 -14.6201 L -0.312429 -14.6217 L -0.247528 -14.6229 L -0.182623 -14.6239 L -0.117714 -14.6245 L 0.117714 -14.6245 L 0.182623 -14.6239 L 0.247528 -14.6229 L 0.312429 -14.6217 L 0.377323 -14.6201 L 0.44221 -14.6183 L 0.507088 -14.6162 L 0.571956 -14.6138 L 0.636812 -14.6111 L 0.701657 -14.6082 L 0.766487 -14.6049 L 0.831302 -14.6014 L 0.896101 -14.5975 L 0.920623 -14.531 L 0.955169 -14.4637 L 0.989707 -14.3963 L 1.02424 -14.3288 L 1.05876 -14.2612 L 1.09328 -14.1935 L 1.12779 -14.1257 L 1.16228 -14.0577 L 1.19677 -13.9897 L 1.23125 -13.9215 L 1.26572 -13.8533 L 1.30018 -13.7849 L 1.33463 -13.7164 L 1.36906 -13.6477 L 1.40348 -13.579 L 1.43789 -13.5101 L 1.47229 -13.4411 L 1.50667 -13.372 L 1.54104 -13.3027 L 1.57539 -13.2333 L 1.60973 -13.1638 L 1.64405 -13.0941 L 1.67835 -13.0243 L 1.71264 -12.9544 L 1.7469 -12.8843 L 1.78115 -12.8141 L 1.81538 -12.7437 L 1.84958 -12.6732 L 1.88377 -12.6025 L 1.91793 -12.5317 L 1.95207 -12.4607 L 1.98618 -12.3896 L 2.02027 -12.3183 L 2.05433 -12.2469 L 2.08836 -12.1753 L 2.12237 -12.1035 L 2.15634 -12.0315 L 2.19029 -11.9594 L 2.2242 -11.8871 L 2.25808 -11.8147 L 2.29192 -11.742 L 2.32573 -11.6692 L 2.35951 -11.5962 L 2.39324 -11.523 L 2.42694 -11.4496 L 2.46059 -11.376 L 2.4942 -11.3022 L 2.52777 -11.2282 L 2.56129 -11.154 L 2.59476 -11.0796 L 2.62819 -11.005 L 2.66156 -10.9302 L 2.69488 -10.8551 L 2.72815 -10.7799 L 2.76136 -10.7044 L 2.79451 -10.6287 L 2.8276 -10.5527 L 2.8276 -10.5527 L 2.89423 -10.602 L 2.96079 -10.651 L 3.02729 -10.6997 L 3.09373 -10.7483 L 3.16011 -10.7966 L 3.22642 -10.8447 L 3.29267 -10.8926 L 3.35886 -10.9403 L 3.42498 -10.9878 L 3.49105 -11.0351 L 3.55705 -11.0822 L 3.62299 -11.1291 L 3.68887 -11.1758 L 3.75469 -11.2223 L 3.82044 -11.2687 L 3.88614 -11.3148 L 3.95177 -11.3608 L 4.01735 -11.4067 L 4.08287 -11.4523 L 4.14832 -11.4978 L 4.21372 -11.5431 L 4.27906 -11.5883 L 4.34434 -11.6333 L 4.40956 -11.6781 L 4.47473 -11.7228 L 4.53983 -11.7674 L 4.60488 -11.8117 L 4.66988 -11.856 L 4.73481 -11.9001 L 4.79969 -11.9441 L 4.86452 -11.9879 L 4.92929 -12.0316 L 4.994 -12.0751 L 5.05867 -12.1186 L 5.12327 -12.1619 L 5.18783 -12.205 L 5.25232 -12.2481 L 5.31677 -12.291 L 5.38117 -12.3338 L 5.44551 -12.3765 L 5.5098 -12.419 L 5.57404 -12.4615 L 5.63822 -12.5038 L 5.70236 -12.546 L 5.76645 -12.5881 L 5.83049 -12.6301 L 5.89447 -12.672 L 5.95841 -12.7138 L 6.0223 -12.7555 L 6.08614 -12.7971 L 6.14993 -12.8386 L 6.21368 -12.8799 L 6.27738 -12.9212 L 6.34103 -12.9624 L 6.40463 -13.0035 L 6.46819 -13.0445 L 6.52271 -13.0899 L 6.58075 -13.0608 L 6.63865 -13.0315 L 6.69643 -13.0019 L 6.75407 -12.972 L 6.81158 -12.9419 L 6.86895 -12.9115 L 6.92619 -12.8809 L 6.98329 -12.8501 L 7.04026 -12.8189 L 7.09709 -12.7876 L 7.15377 -12.7559 L 7.21032 -12.7241 L 7.41421 -12.6064 L 7.47009 -12.5733 L 7.52582 -12.54 L 7.5814 -12.5065 L 7.63684 -12.4727 L 7.69212 -12.4387 L 7.74725 -12.4045 L 7.80223 -12.37 L 7.85706 -12.3352 L 7.91173 -12.3002 L 7.96625 -12.265 L 8.02061 -12.2295 L 8.07481 -12.1938 L 8.06276 -12.1239 L 8.05904 -12.0483 L 8.05525 -11.9727 L 8.05141 -11.897 L 8.04751 -11.8212 L 8.04355 -11.7453 L 8.03952 -11.6693 L 8.03543 -11.5932 L 8.03128 -11.517 L 8.02706 -11.4408 L 8.02278 -11.3644 L 8.01842 -11.288 L 8.014 -11.2114 L 8.00951 -11.1348 L 8.00494 -11.058 L 8.0003 -10.9811 L 7.99559 -10.9042 L 7.9908 -10.8271 L 7.98593 -10.75 L 7.98099 -10.6727 L 7.97596 -10.5953 L 7.97085 -10.5178 L 7.96566 -10.4402 L 7.96038 -10.3625 L 7.95502 -10.2847 L 7.94956 -10.2067 L 7.94402 -10.1287 L 7.93839 -10.0505 L 7.93266 -9.97223 L 7.92683 -9.89382 L 7.92091 -9.81529 L 7.91489 -9.73663 L 7.90877 -9.65785 L 7.90254 -9.57894 L 7.89621 -9.49991 L 7.88977 -9.42074 L 7.88322 -9.34145 L 7.87655 -9.26202 L 7.86978 -9.18245 L 7.86288 -9.10275 L 7.85587 -9.02291 L 7.84873 -8.94293 L 7.84147 -8.86281 L 7.83409 -8.78255 L 7.82657 -8.70214 L 7.81892 -8.62158 L 7.81113 -8.54087 L 7.80321 -8.46002 L 7.79514 -8.379 L 7.78693 -8.29784 L 7.77858 -8.21651 L 7.77007 -8.13503 L 7.76141 -8.05338 L 7.75259 -7.97157 L 7.7436 -7.8896 L 7.73446 -7.80745 L 7.72514 -7.72514 L 7.72514 -7.72514 L 7.80745 -7.73446 L 7.8896 -7.7436 L 7.97157 -7.75259 L 8.05338 -7.76141 L 8.13503 -7.77007 L 8.21651 -7.77858 L 8.29784 -7.78693 L 8.379 -7.79514 L 8.46002 -7.80321 L 8.54087 -7.81113 L 8.62158 -7.81892 L 8.70214 -7.82657 L 8.78255 -7.83409 L 8.86281 -7.84147 L 8.94293 -7.84873 L 9.02291 -7.85587 L 9.10275 -7.86288 L 9.18245 -7.86978 L 9.26202 -7.87655 L 9.34145 -7.88322 L 9.42074 -7.88977 L 9.49991 -7.89621 L 9.57894 -7.90254 L 9.65785 -7.90877 L 9.73663 -7.91489 L 9.81529 -7.92091 L 9.89382 -7.92683 L 9.97223 -7.93266 L 10.0505 -7.93839 L 10.1287 -7.94402 L 10.2067 -7.94956 L 10.2847 -7.95502 L 10.3625 -7.96038 L 10.4402 -7.96566 L 10.5178 -7.97085 L 10.5953 -7.97596 L 10.6727 -7.98099 L 10.75 -7.98593 L 10.8271 -7.9908 L 10.9042 -7.99559 L 10.9811 -8.0003 L 11.058 -8.00494 L 11.1348 -8.00951 L 11.2114 -8.014 L 11.288 -8.01842 L 11.3644 -8.02278 L 11.4408 -8.02706 L 11.517 -8.03128 L 11.5932 -8.03543 L 11.6693 -8.03952 L 11.7453 -8.04355 L 11.8212 -8.04751 L 11.897 -8.05141 L 11.9727 -8.05525 L 12.0483 -8.05904 L 12.1239 -8.06276 L 12.1938 -8.07481 L 12.2295 -8.02061 L 12.265 -7.96625 L 12.3002 -7.91173 L 12.3352 -7.85706 L 12.37 -7.80223 L 12.4045 -7.74725 L 12.4387 -7.69212 L 12.4727 -7.63684 L 12.5065 -7.5814 L 12.54 -7.52582 L 12.5733 -7.47009 L 12.6064 -7.41421 L 12.7241 -7.21032 L 12.7559 -7.15377 L 12.7876 -7.09709 L 12.8189 -7.04026 L 12.8501 -6.98329 L 12.8809 -6.92619 L 12.9115 -6.86895 L 12.9419 -6.81158 L 12.972 -6.75407 L 13.0019 -6.69643 L 13.0315 -6.63865 L 13.0608 -6.58075 L 13.0899 -6.52271 L 13.0445 -6.46819 L 13.0035 -6.40463 L 12.9624 -6.34103 L 12.9212 -6.27738 L 12.8799 -6.21368 L 12.8386 -6.14993 L 12.7971 -6.08614 L 12.7555 -6.0223 L 12.7138 -5.95841 L 12.672 -5.89447 L 12.6301 -5.83049 L 12.5881 -5.76645 L 12.546 -5.70236 L 12.5038 -5.63822 L 12.4615 -5.57404 L 12.419 -5.5098 L 12.3765 -5.44551 L 12.3338 -5.38117 L 12.291 -5.31677 L 12.2481 -5.25232 L 12.205 -5.18783 L 12.1619 -5.12327 L 12.1186 -5.05867 L 12.0751 -4.994 L 12.0316 -4.92929 L 11.9879 -4.86452 L 11.9441 -4.79969 L 11.9001 -4.73481 L 11.856 -4.66988 L 11.8117 -4.60488 L 11.7674 -4.53983 L 11.7228 -4.47473 L 11.6781 -4.40956 L 11.6333 -4.34434 L 11.5883 -4.27906 L 11.5431 -4.21372 L 11.4978 -4.14832 L 11.4523 -4.08287 L 11.4067 -4.01735 L 11.3608 -3.95177 L 11.3148 -3.88614 L 11.2687 -3.82044 L 11.2223 -3.75469 L 11.1758 -3.68887 L 11.1291 -3.62299 L 11.0822 -3.55705 L 11.0351 -3.49105 L 10.9878 -3.42498 L 10.9403 -3.35886 L 10.8926 -3.29267 L 10.8447 -3.22642 L 10.7966 -3.16011 L 10.7483 -3.09373 L 10.6997 -3.02729 L 10.651 -2.96079 L 10.602 -2.89423 L 10.5527 -2.8276 L 10.5527 -2.8276 L 10.6287 -2.79451 L 10.7044 -2.76136 L 10.7799 -2.72815 L 10.8551 -2.69488 L 10.9302 -2.66156 L 11.005 -2.62819 L 11.0796 -2.59476 L 11.154 -2.56129 L 11.2282 -2.52777 L 11.3022 -2.4942 L 11.376 -2.46059 L 11.4496 -2.42694 L 11.523 -2.39324 L 11.5962 -2.35951 L 11.6692 -2.32573 L 11.742 -2.29192 L 11.8147 -2.25808 L 11.8871 -2.2242 L 11.9594 -2.19029 L 12.0315 -2.15634 L 12.1035 -2.12237 L 12.1753 -2.08836 L 12.2469 -2.05433 L 12.3183 -2.02027 L 12.3896 -1.98618 L 12.4607 -1.95207 L 12.5317 -1.91793 L 12.6025 -1.88377 L 12.6732 -1.84958 L 12.7437 -1.81538 L 12.8141 -1.78115 L 12.8843 -1.7469 L 12.9544 -1.71264 L 13.0243 -1.67835 L 13.0941 -1.64405 L 13.1638 -1.60973 L 13.2333 -1.57539 L 13.3027 -1.54104 L 13.372 -1.50667 L 13.4411 -1.47229 L 13.5101 -1.43789 L 13.579 -1.40348 L 13.6477 -1.36906 L 13.7164 -1.33463 L 13.7849 -1.30018 L 13.8533 -1.26572 L 13.9215 -1.23125 L 13.9897 -1.19677 L 14.0577 -1.16228 L 14.1257 -1.12779 L 14.1935 -1.09328 L 14.2612 -1.05876 L 14.3288 -1.02424 L 14.3963 -0.989707 L 14.4637 -0.955169 L 14.531 -0.920623 L 14.5975 -0.896101 L 14.6014 -0.831302 L 14.6049 -0.766487 L 14.6082 -0.701657 L 14.6111 -0.636812 L 14.6138 -0.571956 L 14.6162 -0.507088 L 14.6183 -0.44221 L 14.6201 -0.377323 L 14.6217 -0.312429 L 14.6229 -0.247528 L 14.6239 -0.182623 L 14.6245 -0.117714Z"
id="path1" />
</g>
</svg>
