<?xml version="1.0" encoding="UTF-8" standalone="no"?>
<svg version="1.1">
<g
style="fill:none;stroke:#000000;stroke-opacity:1;stroke-width:0.1">
<path d="M 14.7495 0.116112 L 14.7489 0.179333 L 14.748 0.242551 L 14.7468 0.305764 L 14.7454 0.368971 L 14.7437 0.432172 L 14.7417 0.495365 L 14.7394 0.558549 L 14.7369 0.621722 L 14.7341 0.684884 L 14.731 0.748034 L 14.7277 0.811169 L 14.7241 0.87429 L 14.7202 0.937395 L 14.6553 0.961232 L 14.5896 0.995178 L 14.5239 1.02912 L 14.4581 1.06305 L 14.3921 1.09697 L 14.3261 1.13089 L 14.2599 1.1648 L 14.1937 1.1987 L 14.1273 1.23259 L 14.0608 1.26647 L 13.9943 1.30034 L 13.9276 1.3342 L 13.8607 1.36805 L 13.7938 1.40189 L 13.7268 1.43571 L 13.6596 1.46952 L 13.5923 1.50332 L 13.5249 1.53711 L 13.4574 1.57088 L 13.3897 1.60464 L 13.3219 1.63839 L 13.254 1.67211 L 13.186 1.70582 L 13.1178 1.73952 L 13.0495 1.77319 L 12.981 1.80685 L 12.9124 1.84049 L 12.8437 1.87411 L 12.7748 1.9077 L 12.7058 1.94128 L 12.6367 1.97483 L 12.5674 2.00836 L 12.4979 2.04187 L 12.4283 2.07535 L 12.3585 2.1088 L 12.2886 2.14223 L 12.2185 2.17563 L 12.1483 2.209 L 12.0779 2.24235 L 12.0073 2.27566 L 11.9365 2.30893 L 11.8656 2.34218 L 11.7945 2.37539 L 11.7233 2.40857 L 11.6518 2.44171 L 11.5802 2.47481 L 11.5084 2.50787 L 11.4364 2.54089 L 11.3642 2.57386 L 11.2918 2.6068 L 11.2192 2.63969 L 11.1464 2.67253 L 11.0734 2.70532 L 11.0003 2.73806 L 10.9269 2.77075 L 10.8532 2.80339 L 10.7794 2.83597 L 10.7054 2.86849 L 10.7054 2.86849 L 10.7532 2.93368 L 10.8009 2.99881 L 10.8483 3.06388 L 10.8955 3.1289 L 10.9425 3.19385 L 10.9894 3.25874 L 11.036 3.32357 L 11.0824 3.38835 L 11.1286 3.45306 L 11.1746 3.51772 L 11.2205 3.58231 L 11.2661 3.64685 L 11.3116 3.71133 L 11.3569 3.77576 L 11.4021 3.84012 L 11.447 3.90443 L 11.4918 3.96868 L 11.5364 4.03287 L 11.5809 4.09701 L 11.6252 4.16109 L 11.6694 4.22511 L 11.7134 4.28908 L 11.7572 4.35299 L 11.8009 4.41684 L 11.8444 4.48064 L 11.8878 4.54439 L 11.9311 4.60808 L 11.9742 4.67172 L 12.0172 4.7353 L 12.06 4.79883 L 12.1027 4.86231 L 12.1453 4.92574 L 12.1878 4.98911 L 12.2301 5.05243 L 12.2723 5.1157 L 12.3144 5.17891 L 12.3563 5.24208 L 12.3981 5.30519 L 12.4399 5.36826 L 12.4815 5.43127 L 12.5229 5.49424 L 12.5643 5.55715 L 12.6056 5.62002 L 12.6467 5.68284 L 12.6878 5.7456 L 12.7287 5.80833 L 12.7695 5.871 L 12.8103 5.93363 L 12.8509 5.99621 L 12.8914 6.05874 L 12.9319 6.12122 L 12.9722 6.18367 L 13.0124 6.24606 L 13.0526 6.30841 L 13.0926 6.37072 L 13.1326 6.43298 L 13.1725 6.49519 L 13.2168 6.54828 L 13.1886 6.60488 L 13.1601 6.66135 L 13.1315 6.71769 L 13.1025 6.77392 L 13.0734 6.83002 L 13.044 6.88599 L 13.0144 6.94184 L 12.9845 6.99756 L 12.9544 7.05315 L 12.924 7.10862 L 12.8934 7.16395 L 12.8626 7.21915 L 12.8315 7.27422 L 12.7154 7.47533 L 12.6833 7.52976 L 12.6509 7.58406 L 12.6182 7.63821 L 12.5854 7.69223 L 12.5523 7.74611 L 12.519 7.79984 L 12.4854 7.85343 L 12.4517 7.90687 L 12.4177 7.96017 L 12.3834 8.01333 L 12.349 8.06633 L 12.3143 8.11919 L 12.2794 8.1719 L 12.2112 8.16009 L 12.1374 8.15667 L 12.0635 8.1532 L 11.9895 8.14966 L 11.9155 8.14607 L 11.8413 8.14242 L 11.7671 8.13871 L 11.6927 8.13494 L 11.6183 8.13111 L 11.5438 8.12721 L 11.4692 8.12325 L 11.3945 8.11923 L 11.3197 8.11513 L 11.2448 8.11097 L 11.1699 8.10674 L 11.0948 8.10244 L 11.0196 8.09807 L 10.9444 8.09363 L 10.869 8.08911 L 10.7935 8.08452 L 10.7179 8.07985 L 10.6423 8.0751 L 10.5665 8.07027 L 10.4906 8.06536 L 10.4146 8.06037 L 10.3385 8.05529 L 10.2623 8.05013 L 10.1859 8.04488 L 10.1095 8.03954 L 10.0329 8.03411 L 9.95626 8.02859 L 9.87948 8.02297 L 9.80257 8.01726 L 9.72554 8.01145 L 9.6484 8.00554 L 9.57113 7.99953 L 9.49373 7.99341 L 9.41621 7.98719 L 9.33857 7.98086 L 9.26079 7.97442 L 9.18289 7.96787 L 9.10485 7.9612 L 9.02668 7.95442 L 8.94837 7.94752 L 8.86992 7.94049 L 8.79134 7.93334 L 8.71262 7.92607 L 8.63375 7.91866 L 8.55474 7.91113 L 8.47559 7.90345 L 8.39628 7.89564 L 8.31683 7.88769 L 8.23723 7.8796 L 8.15747 7.87136 L 8.07755 7.86297 L 7.99748 7.85442 L 7.91725 7.84572 L 7.83686 7.83686 L 7.83686 7.83686 L 7.84572 7.91725 L 7.85442 7.99748 L 7.86297 8.07755 L 7.87136 8.15747 L 7.8796 8.23723 L 7.88769 8.31683 L 7.89564 8.39628 L 7.90345 8.47559 L 7.91113 8.55474 L 7.91866 8.63375 L 7.92607 8.71262 L 7.93334 8.79134 L 7.94049 8.86992 L 7.94752 8.94837 L 7.95442 9.02668 L 7.9612 9.10485 L 7.96787 9.18289 L 7.97442 9.26079 L 7.98086 9.33857 L 7.98719 9.41621 L 7.99341 9.49373 L 7.99953 9.57113 L 8.00554 9.6484 L 8.01145 9.72554 L 8.01726 9.80257 L 8.02297 9.87948 L 8.02859 9.95626 L 8.03411 10.0329 L 8.03954 10.1095 L 8.04488 10.1859 L 8.05013 10.2623 L 8.05529 10.3385 L 8.06037 10.4146 L 8.06536 10.4906 L 8.07027 10.5665 L 8.0751 10.6423 L 8.07985 10.7179 L 8.08452 10.7935 L 8.08911 10.869 L 8.09363 10.9444 L 8.09807 11.0196 L 8.10244 11.0948 L 8.10674 11.1699 L 8.11097 11.2448 L 8.11513 11.3197 L 8.11923 11.3945 L 8.12325 11.4692 L 8.12721 11.5438 L 8.13111 11.6183 L 8.13494 11.6927 L 8.13871 11.7671 L 8.14242 11.8413 L 8.14607 11.9155 L 8.14966 11.9895 L 8.1532 12.0635 L 8.15667 12.1374 L 8.16009 12.2112 L 8.1719 12.2794 L 8.11919 12.3143 L 8.06633 12.349 L 8.01333 12.3834 L 7.96017 12.4177 L 7.90687 12.4517 L 7.85343 12.4854 L 7.79984 12.519 L 7.74611 12.5523 L 7.69223 12.5854 L 7.63821 12.6182 L 7.58406 12.6509 L 7.52976 12.6833 L 7.47533 12.7154 L 7.27422 12.8315 L 7.21915 12.8626 L 7.16395 12.8934 L 7.10862 12.924 L 7.05315 12.9544 L 6.99756 12.9845 L 6.94184 13.0144 L 6.88599 13.044 L 6.83002 13.0734 L 6.77392 13.1025 L 6.71769 13.1315 L 6.66135 13.1601 L 6.60488 13.1886 L 6.54828 13.2168 L 6.49519 13.1725 L 6.43298 13.1326 L 6.37072 13.0926 L 6.30841 13.0526 L 6.24606 13.0124 L 6.18367 12.9722 L 6.12122 12.9319 L 6.05874 12.8914 L 5.99621 12.8509 L 5.93363 12.8103 L 5.871 12.7695 L 5.80833 12.7287 L 5.7456 12.6878 L 5.68284 12.6467 L 5.62002 12.6056 L 5.55715 12.5643 L 5.49424 12.5229 L 5.43127 12.4815 L 5.36826 12.4399 L 5.30519 12.3981 L 5.24208 12.3563 L 5.17891 12.3144 L 5.1157 12.2723 L 5.05243 12.2301 L 4.98911 12.1878 L 4.92574 12.1453 L 4.86231 12.1027 L 4.79883 12.06 L 4.7353 12.0172 L 4.67172 11.9742 L 4.60808 11.9311 L 4.54439 11.8878 L 4.48064 11.8444 L 4.41684 11.8009 L 4.35299 11.7572 L 4.28908 11.7134 L 4.22511 11.6694 L 4.16109 11.6252 L 4.09701 11.5809 L 4.03287 11.5364 L 3.96868 11.4918 L 3.90443 11.447 L 3.84012 11.4021 L 3.77576 11.3569 L 3.71133 11.3116 L 3.64685 11.2661 L 3.58231 11.2205 L 3.51772 11.1746 L 3.45306 11.1286 L 3.38835 11.0824 L 3.32357 11.036 L 3.25874 10.9894 L 3.19385 10.9425 L 3.1289 10.8955 L 3.06388 10.8483 L 2.99881 10.8009 L 2.93368 10.7532 L 2.86849 10.7054 L 2.86849 10.7054 L 2.83597 10.7794 L 2.80339 10.8532 L 2.77075 10.9269 L 2.73806 11.0003 L 2.70532 11.0734 L 2.67253 11.1464 L 2.63969 11.2192 L 2.6068 11.2918 L 2.57386 11.3642 L 2.54089 11.4364 L 2.50787 11.5084 L 2.47481 11.5802 L 2.44171 11.6518 L 2.40857 11.7233 L 2.37539 11.7945 L 2.34218 11.8656 L 2.30893 11.9365 L 2.27566 12.0073 L 2.24235 12.0779 L 2.209 12.1483 L 2.17563 12.2185 L 2.14223 12.2886 L 2.1088 12.3585 L 2.07535 12.4283 L 2.04187 12.4979 L 2.00836 12.5674 L 1.97483 12.6367 L 1.94128 12.7058 L 1.9077 12.7748 L 1.87411 12.8437 L 1.84049 12.9124 L 1.80685 12.981 L 1.77319 13.0495 L 1.73952 13.1178 L 1.70582 13.186 L 1.67211 13.254 L 1.63839 13.3219 L 1.60464 13.3897 L 1.57088 13.4574 L 1.53711 13.5249 L 1.50332 13.5923 L 1.46952 13.6596 L 1.43571 13.7268 L 1.40189 13.7938 L 1.36805 13.8607 L 1.3342 13.9276 L 1.30034 13.9943 L 1.26647 14.0608 L 1.23259 14.1273 L 1.1987 14.1937 L 1.1648 14.2599 L 1.13089 14.3261 L 1.09697 14.3921 L 1.06305 14.4581 L 1.02912 14.5239 L 0.995178 14.5896 L 0.961232 14.6553 L 0.937395 14.7202 L 0.87429 14.7241 L 0.811169 14.7277 L 0.748034 14.731 L 0.684884 14.7341 L 0.621722 14.7369 L 0.558549 14.7394 L 0.495365 14.7417 L 0.432172 14.7437 L 0.368971 14.7454 L 0.305764 14.7468 L 0.242551 14.748 L 0.179333 14.7489 L 0.116112 14.7495 L -0.116112 14.7495 L -0.179333 14.7489 L -0.242551 14.748 L -0.305764 14.7468 L -0.368971 14.7454 L -0.432172 14.7437 L -0.495365 14.7417 L -0.558549 14.7394 L -0.621722 14.7369 L -0.684884 14.7341 L -0.748034 14.731 L -0.811169 14.7277 L -0.87429 14.7241 L -0.937395 14.7202 L -0.961232 14.6553 L -0.995178 14.5896 L -1.02912 14.5239 L -1.06305 14.4581 L -1.09697 14.3921 L -1.13089 14.3261 L -1.1648 14.2599 L -1.1987 14.1937 L -1.23259 14.1273 L -1.26647 14.0608 L -1.30034 13.9943 L -1.3342 13.9276 L -1.36805 13.8607 L -1.40189 13.7938 L -1.43571 13.7268 L -1.46952 13.6596 L -1.50332 13.5923 L -1.53711 13.5249 L -1.57088 13.4574 L -1.60464 13.3897 L -1.63839 13.3219 L -1.67211 13.254 L -1.70582 13.186 L -1.73952 13.1178 L -1.77319 13.0495 L -1.80685 12.981 L -1.84049 12.9124 L -1.87411 12.8437 L -1.9077 12.7748 L -1.94128 12.7058 L -1.97483 12.6367 L -2.00836 12.5674 L -2.04187 12.4979 L -2.07535 12.4283 L -2.1088 12.3585 L -2.14223 12.2886 L -2.17563 12.2185 L -2.209 12.1483 L -2.24235 12.0779 L -2.27566 12.0073 L -2.30893 11.9365 L -2.34218 11.8656 L -2.37539 11.7945 L -2.40857 11.7233 L -2.44171 11.6518 L -2.47481 11.5802 L -2.50787 11.5084 L -2.54089 11.4364 L -2.57386 11.3642 L -2.6068 11.2918 L -2.63969 11.2192 L -2.67253 11.1464 L -2.70532 11.0734 L -2.73806 11.0003 L -2.77075 10.9269 L -2.80339 10.8532 L -2.83597 10.7794 L -2.86849 10.7054 L -2.86849 10.7054 L -2.93368 10.7532 L -2.99881 10.8009 L -3.06388 10.8483 L -3.1289 10.8955 L -3.19385 10.9425 L -3.25874 10.9894 L -3.32357 11.036 L -3.38835 11.0824 L -3.45306 11.1286 L -3.51772 11.1746 L -3.58231 11.2205 L -3.64685 11.2661 L -3.71133 11.3116 L -3.77576 11.3569 L -3.84012 11.4021 L -3.90443 11.447 L -3.96868 11.4918 L -4.03287 11.5364 L -4.09701 11.5809 L -4.16109 11.6252 L -4.22511 11.6694 L -4.28908 11.7134 L -4.35299 11.7572 L -4.41684 11.8009 L -4.48064 11.8444 L -4.54439 11.8878 L -4.60808 11.9311 L -4.67172 11.9742 L -4.7353 12.0172 L -4.79883 12.06 L -4.86231 12.1027 L -4.92574 12.1453 L -4.98911 12.1878 L -5.05243 12.2301 L -5.1157 12.2723 L -5.17891 12.3144 L -5.24208 12.3563 L -5.30519 12.3981 L -5.36826 12.4399 L -5.43127 12.4815 L -5.49424 12.5229 L -5.55715 12.5643 L -5.62002 12.6056 L -5.68284 12.6467 L -5.7456 12.6878 L -5.80833 12.7287 L -5.871 12.7695 L -5.93363 12.8103 L -5.99621 12.8509 L -6.05874 12.8914 L -6.12122 12.9319 L -6.18367 12.9722 L -6.24606 13.0124 L -6.30841 13.0526 L -6.37072 13.0926 L -6.43298 13.1326 L -6.49519 13.1725 L -6.54828 13.2168 L -6.60488 13.1886 L -6.66135 13.1601 L -6.71769 13.1315 L -6.77392 13.1025 L -6.83002 13.0734 L -6.88599 13.044 L -6.94184 13.0144 L -6.99756 12.9845 L -7.05315 12.9544 L -7.10862 12.924 L -7.16395 12.8934 L -7.21915 12.8626 L -7.27422 12.8315 L -7.47533 12.7154 L -7.52976 12.6833 L -7.58406 12.6509 L -7.63821 12.6182 L -7.69223 12.5854 L -7.74611 12.5523 L -7.79984 12.519 L -7.85343 12.4854 L -7.90687 12.4517 L -7.96017 12.4177 L -8.01333 12.3834 L -8.06633 12.349 L -8.11919 12.3143 L -8.1719 12.2794 L -8.16009 12.2112 L -8.15667 12.1374 L -8.1532 12.0635 L -8.14966 11.9895 L -8.14607 11.9155 L -8.14242 11.8413 L -8.13871 11.7671 L -8.13494 11.6927 L -8.13111 11.6183 L -8.12721 11.5438 L -8.12325 11.4692 L -8.11923 11.3945 L -8.11513 11.3197 L -8.11097 11.2448 L -8.10674 11.1699 L -8.10244 11.0948 L -8.09807 11.0196 L -8.09363 10.9444 L -8.08911 10.869 L -8.08452 10.7935 L -8.07985 10.7179 L -8.0751 10.6423 L -8.07027 10.5665 L -8.06536 10.4906 L -8.06037 10.4146 L -8.05529 10.3385 L -8.05013 10.2623 L -8.04488 10.1859 L -8.03954 10.1095 L -8.03411 10.0329 L -8.02859 9.95626 L -8.02297 9.87948 L -8.01726 9.80257 L -8.01145 9.72554 L -8.00554 9.6484 L -7.99953 9.57113 L -7.99341 9.49373 L -7.98719 9.41621 L -7.98086 9.33857 L -7.97442 9.26079 L -7.96787 9.18289 L -7.9612 9.10485 L -7.95442 9.02668 L -7.94752 8.94837 L -7.94049 8.86992 L -7.93334 8.79134 L -7.92607 8.71262 L -7.91866 8.63375 L -7.91113 8.55474 L -7.90345 8.47559 L -7.89564 8.39628 L -7.88769 8.31683 L -7.8796 8.23723 L -7.87136 8.15747 L -7.86297 8.07755 L -7.85442 7.99748 L -7.84572 7.91725 L -7.83686 7.83686 L -7.83686 7.83686 L -7.91725 7.84572 L -7.99748 7.85442 L -8.07755 7.86297 L -8.15747 7.87136 L -8.23723 7.8796 L -8.31683 7.88769 L -8.39628 7.89564 L -8.47559 7.90345 L -8.55474 7.91113 L -8.63375 7.91866 L -8.71262 7.92607 L -8.79134 7.93334 L -8.86992 7.94049 L -8.94837 7.94752 L -9.02668 7.95442 L -9.10485 7.9612 L -9.18289 7.96787 L -9.26079 7.97442 L -9.33857 7.98086 L -9.41621 7.98719 L -9.49373 7.99341 L -9.57113 7.99953 L -9.6484 8.00554 L -9.72554 8.01145 L -9.80257 8.01726 L -9.87948 8.02297 L -9.95626 8.02859 L -10.0329 8.03411 L -10.1095 8.03954 L -10.1859 8.04488 L -10.2623 8.05013 L -10.3385 8.05529 L -10.4146 8.06037 L -10.4906 8.06536 L -10.5665 8.07027 L -10.6423 8.0751 L -10.7179 8.07985 L -10.7935 8.08452 L -10.869 8.08911 L -10.9444 8.09363 L -11.0196 8.09807 L -11.0948 8.10244 L -11.1699 8.10674 L -11.2448 8.11097 L -11.3197 8.11513 L -11.3945 8.11923 L -11.4692 8.12325 L -11.5438 8.12721 L -11.6183 8.13111 L -11.6927 8.13494 L -11.7671 8.13871 L -11.8413 8.14242 L -11.9155 8.14607 L -11.9895 8.14966 L -12.0635 8.1532 L -12.1374 8.15667 L -12.2112 8.16009 L -12.2794 8.1719 L -12.3143 8.11919 L -12.349 8.06633 L -12.3834 8.01333 L -12.4177 7.96017 L -12.4517 7.90687 L -12.4854 7.85343 L -12.519 7.79984 L -12.5523 7.74611 L -12.5854 7.69223 L -12.6182 7.63821 L -12.6509 7.58406 L -12.6833 7.52976 L -12.7154 7.47533 L -12.8315 7.27422 L -12.8626 7.21915 L -12.8934 7.16395 L -12.924 7.10862 L -12.9544 7.05315 L -12.9845 6.99756 L -13.0144 6.94184 L -13.044 6.88599 L -13.0734 6.83002 L -13.1025 6.77392 L -13.1315 6.71769 L -13.1601 6.66135 L -13.1886 6.60488 L -13.2168 6.54828 L -13.1725 6.49519 L -13.1326 6.43298 L -13.0926 6.37072 L -13.0526 6.30841 L -13.0124 6.24606 L -12.9722 6.18367 L -12.9319 6.12122 L -12.8914 6.05874 L -12.8509 5.99621 L -12.8103 5.93363 L -12.7695 5.871 L -12.7287 5.80833 L -12.6878 5.7456 L -12.6467 5.68284 L -12.6056 5.62002 L -12.5643 5.55715 L -12.5229 5.49424 L -12.4815 5.43127 L -12.4399 5.36826 L -12.3981 5.30519 L -12.3563 5.24208 L -12.3144 5.17891 L -12.2723 5.1157 L -12.2301 5.05243 L -12.1878 4.98911 L -12.1453 4.92574 L -12.1027 4.86231 L -12.06 4.79883 L -12.0172 4.7353 L -11.9742 4.67172 L -11.9311 4.60808 L -11.8878 4.54439 L -11.8444 4.48064 L -11.8009 4.41684 L -11.7572 4.35299 L -11.7134 4.28908 L -11.6694 4.22511 L -11.6252 4.16109 L -11.5809 4.09701 L -11.5364 4.03287 L -11.4918 3.96868 L -11.447 3.90443 L -11.4021 3.84012 L -11.3569 3.77576 L -11.3116 3.71133 L -11.2661 3.64685 L -11.2205 3.58231 L -11.1746 3.51772 L -11.1286 3.45306 L -11.0824 3.38835 L -11.036 3.32357 L -10.9894 3.25874 L -10.9425 3.19385 L -10.8955 3.1289 L -10.8483 3.06388 L -10.8009 2.99881 L -10.7532 2.93368 L -10.7054 2.86849 L -10.7054 2.86849 L -10.7794 2.83597 L -10.8532 2.80339 L -10.9269 2.77075 L -11.0003 2.73806 L -11.0734 2.70532 L -11.1464 2.67253 L -11.2192 2.63969 L -11.2918 2.6068 L -11.3642 2.57386 L -11.4364 2.54089 L -11.5084 2.50787 L -11.5802 2.47481 L -11.6518 2.44171 L -11.7233 2.40857 L -11.7945 2.37539 L -11.8656 2.34218 L -11.9365 2.30893 L -12.0073 2.27566 L -12.0779 2.24235 L -12.1483 2.209 L -12.2185 2.17563 L -12.2886 2.14223 L -12.3585 2.1088 L -12.4283 2.07535 L -12.4979 2.04187 L -12.5674 2.00836 L -12.6367 1.97483 L -12.7058 1.94128 L -12.7748 1.9077 L -12.8437 1.87411 L -12.9124 1.84049 L -12.981 1.80685 L -13.0495 1.77319 L -13.1178 1.73952 L -13.186 1.70582 L -13.254 1.67211 L -13.3219 1.63839 L -13.3897 1.60464 L -13.4574 1.57088 L -13.5249 1.53711 L -13.5923 1.50332 L -13.6596 1.46952 L -13.7268 1.43571 L -13.7938 1.40189 L -13.8607 1.36805 L -13.9276 1.3342 L -13.9943 1.30034 L -14.0608 1.26647 L -14.1273 1.23259 L -14.1937 1.1987 L -14.2599 1.1648 L -14.3261 1.13089 L -14.3921 1.09697 L -14.4581 1.06305 L -14.5239 1.02912 L -14.5896 0.995178 L -14.6553 0.961232 L -14.7202 0.937395 L -14.7241 0.87429 L -14.7277 0.811169 L -14.731 0.748034 L -14.7341 0.684884 L -14.7369 0.621722 L -14.7394 0.558549 L -14.7417 0.495365 L -14.7437 0.432172 L -14.7454 0.368971 L -14.7468 0.305764 L -14.748 0.242551 L -14.7489 0.179333 L -14.7495 0.116112 L -14.7495 -0.116112 L -14.7489 -0.179333 L -14.748 -0.242551 L -14.7468 -0.305764 L -14.7454 -0.368971 L -14.7437 -0.432172 L -14.7417 -0.495365 L -14.7394 -0.558549 L -14.7369 -0.621722 L -14.7341 -0.684884 L -14.731 -0.748034 L -14.7277 -0.811169 L -14.7241 -0.87429 L -14.7202 -0.937395 L -14.6553 -0.961232 L -14.5896 -0.995178 L -14.5239 -1.02912 L -14.4581 -1.06305 L -14.3921 -1.09697 L -14.3261 -1.13089 L -14.2599 -1.1648 L -14.1937 -1.1987 L -14.1273 -1.23259 L -14.0608 -1.26647 L -13.9943 -1.30034 L -13.9276 -1.3342 L -13.8607 -1.36805 L -13.7938 -1.40189 L -13.7268 -1.43571 L -13.6596 -1.46952 L -13.5923 -1.50332 L -13.5249 -1.53711 L -13.4574 -1.57088 L -13.3897 -1.60464 L -13.3219 -1.63839 L -13.254 -1.67211 L -13.186 -1.70582 L -13.1178 -1.73952 L -13.0495 -1.77319 L -12.981 -1.80685 L -12.9124 -1.84049 L -12.8437 -1.87411 L -12.7748 -1.9077 L -12.7058 -1.94128 L -12.6367 -1.97483 L -12.5674 -2.00836 L -12.4979 -2.04187 L -12.4283 -2.07535 L -12.3585 -2.1088 L -12.2886 -2.14223 L -12.2185 -2.17563 L -12.1483 -2.209 L -12.0779 -2.24235 L -12.0073 -2.27566 L -11.9365 -2.30893 L -11.8656 -2.34218 L -11.7945 -2.37539 L -11.7233 -2.40857 L -11.6518 -2.44171 L -11.5802 -2.47481 L -11.5084 -2.50787 L -11.4364 -2.54089 L -11.3642 -2.57386 L -11.2918 -2.6068 L -11.2192 -2.63969 L -11.1464 -2.67253 L -11.0734 -2.70532 L -11.0003 -2.73806 L -10.9269 -2.77075 L -10.8532 -2.80339 L -10.7794 -2.83597 L -10.7054 -2.86849 L -10.7054 -2.86849 L -10.7532 -2.93368 L -10.8009 -2.99881 L -10.8483 -3.06388 L -10.8955 -3.1289 L -10.9425 -3.19385 L -10.9894 -3.25874 L -11.036 -3.32357 L -11.0824 -3.38835 L -11.1286 -3.45306 L -11.1746 -3.51772 L -11.2205 -3.58231 L -11.2661 -3.64685 L -11.3116 -3.71133 L -11.3569 -3.77576 L -11.4021 -3.84012 L -11.447 -3.90443 L -11.4918 -3.96868 L -11.5364 -4.03287 L -11.5809 -4.09701 L -11.6252 -4.16109 L -11.6694 -4.22511 L -11.7134 -4.28908 L -11.7572 -4.35299 L -11.8009 -4.41684 L -11.8444 -4.48064 L -11.8878 -4.54439 L -11.9311 -4.60808 L -11.9742 -4.67172 L -12.0172 -4.7353 L -12.06 -4.79883 L -12.1027 -4.86231 L -12.1453 -4.92574 L -12.1878 -4.98911 L -12.2301 -5.05243 L -12.2723 -5.1157 L -12.3144 -5.17891 L -12.3563 -5.24208 L -12.3981 -5.30519 L -12.4399 -5.36826 L -12.4815 -5.43127 L -12.5229 -5.49424 L -12.5643 -5.55715 L -12.6056 -5.62002 L -12.6467 -5.68284 L -12.6878 -5.7456 L -12.7287 -5.80833 L -12.7695 -5.871 L -12.8103 -5.93363 L -12.8509 -5.99621 L -12.8914 -6.05874 L -12.9319 -6.12122 L -12.9722 -6.18367 L -13.0124 -6.24606 L -13.0526 -6.30841 L -13.0926 -6.37072 L -13.1326 -6.43298 L -13.1725 -6.49519 L -13.2168 -6.54828 L -13.1886 -6.60488 L -13.1601 -6.66135 L -13.1315 -6.71769 L -13.1025 -6.77392 L -13.0734 -6.83002 L -13.044 -6.88599 L -13.0144 -6.94184 L -12.9845 -6.99756 L -12.9544 -7.05315 L -12.924 -7.10862 L -12.8934 -7.16395 L -12.8626 -7.21915 L -12.8315 -7.27422 L -12.7154 -7.47533 L -12.6833 -7.52976 L -12.6509 -7.58406 L -12.6182 -7.63821 L -12.5854 -7.69223 L -12.5523 -7.74611 L -12.519 -7.79984 L -12.4854 -7.85343 L -12.4517 -7.90687 L -12.4177 -7.96017 L -12.3834 -8.01333 L -12.349 -8.06633 L -12.3143 -8.11919 L -12.2794 -8.1719 L -12.2112 -8.16009 L -12.1374 -8.15667 L -12.0635 -8.1532 L -11.9895 -8.14966 L -11.9155 -8.14607 L -11.8413 -8.14242 L -11.7671 -8.13871 L -11.6927 -8.13494 L -11.6183 -8.13111 L -11.5438 -8.12721 L -11.4692 -8.12325 L -11.3945 -8.11923 L -11.3197 -8.11513 L -11.2448 -8.11097 L -11.1699 -8.10674 L -11.0948 -8.10244 L -11.0196 -8.09807 L -10.9444 -8.09363 L -10.869 -8.08911 L -10.7935 -8.08452 L -10.7179 -8.07985 L -10.6423 -8.0751 L -10.5665 -8.07027 L -10.4906 -8.06536 L -10.4146 -8.06037 L -10.3385 -8.05529 L -10.2623 -8.05013 L -10.1859 -8.04488 L -10.1095 -8.03954 L -10.0329 -8.03411 L -9.95626 -8.02859 L -9.87948 -8.02297 L -9.80257 -8.01726 L -9.72554 -8.01145 L -9.6484 -8.00554 L -9.57113 -7.99953 L -9.49373 -7.99341 L -9.41621 -7.98719 L -9.33857 -7.98086 L -9.26079 -7.97442 L -9.18289 -7.96787 L -9.10485 -7.9612 L -9.02668 -7.95442 L -8.94837 -7.94752 L -8.86992 -7.94049 L -8.79134 -7.93334 L -8.71262 -7.92607 L -8.63375 -7.91866 L -8.55474 -7.91113 L -8.47559 -7.90345 L -8.39628 -7.89564 L -8.31683 -7.88769 L -8.23723 -7.8796 L -8.15747 -7.87136 L -8.07755 -7.86297 L -7.99748 -7.85442 L -7.91725 -7.84572 L -7.83686 -7.83686 L -7.83686 -7.83686 L -7.84572 -7.91725 L -7.85442 -7.99748 L -7.86297 -8.07755 L -7.87136 -8.15747 L -7.8796 -8.23723 L -7.88769 -8.31683 L -7.89564 -8.39628 L -7.90345 -8.47559 L -7.91113 -8.55474 L -7.91866 -8.63375 L -7.92607 -8.71262 L -7.93334 -8.79134 L -7.94049 -8.86992 L -7.94752 -8.94837 L -7.95442 -9.02668 L -7.9612 -9.10485 L -7.96787 -9.18289 L -7.97442 -9.26079 L -7.98086 -9.33857 L -7.98719 -9.41621 L -7.99341 -9.49373 L -7.99953 -9.57113 L -8.00554 -9.6484 L -8.01145 -9.72554 L -8.01726 -9.80257 L -8.02297 -9.87948 L -8.02859 -9.95626 L -8.03411 -10.0329 L -8.03954 -10.1095 L -8.04488 -10.1859 L -8.05013 -10.2623 L -8.05529 -10.3385 L -8.06037 -10.4146 L -8.06536 -10.4906 L -8.07027 -10.5665 L -8.0751 -10.6423 L -8.07985 -10.7179 L -8.08452 -10.7935 L -8.08911 -10.869 L -8.09363 -10.9444 L -8.09807 -11.0196 L -8.10244 -11.0948 L -8.10674 -11.1699 L -8.11097 -11.2448 L -8.11513 -11.3197 L -8.11923 -11.3945 L -8.12325 -11.4692 L -8.12721 -11.5438 L -8.13111 -11.6183 L -8.13494 -11.6927 L -8.13871 -11.7671 L -8.14242 -11.8413 L -8.14607 -11.9155 L -8.14966 -11.9895 L -8.1532 -12.0635 L -8.15667 -12.1374 L -8.16009 -12.2112 L -8.1719 -12.2794 L -8.11919 -12.3143 L -8.06633 -12.349 L -8.01333 -12.3834 L -7.96017 -12.4177 L -7.90687 -12.4517 L -7.85343 -12.4854 L -7.79984 -12.519 L -7.74611 -12.5523 L -7.69223 -12.5854 L -7.63821 -12.6182 L -7.58406 -12.6509 L -7.52976 -12.6833 L -7.47533 -12.7154 L -7.27422 -12.8315 L -7.21915 -12.8626 L -7.16395 -12.8934 L -7.10862 -12.924 L -7.05315 -12.9544 L -6.99756 -12.9845 L -6.94184 -13.0144 L -6.88599 -13.044 L -6.83002 -13.0734 L -6.77392 -13.1025 L -6.71769 -13.1315 L -6.66135 -13.1601 L -6.60488 -13.1886 L -6.54828 -13.2168 L -6.49519 -13.1725 L -6.43298 -13.1326 L -6.37072 -13.0926 L -6.30841 -13.0526 L -6.24606 -13.0124 L -6.18367 -12.9722 L -6.12122 -12.9319 L -6.05874 -12.8914 L -5.99621 -12.8509 L -5.93363 -12.8103 L -5.871 -12.7695 L -5.80833 -12.7287 L -5.7456 -12.6878 L -5.68284 -12.6467 L -5.62002 -12.6056 L -5.55715 -12.5643 L -5.49424 -12.5229 L -5.43127 -12.4815 L -5.36826 -12.4399 L -5.30519 -12.3981 L -5.24208 -12.3563 L -5.17891 -12.3144 L -5.1157 -12.2723 L -5.05243 -12.2301 L -4.98911 -12.1878 L -4.92574 -12.1453 L -4.86231 -12.1027 L -4.79883 -12.06 L -4.7353 -12.0172 L -4.67172 -11.9742 L -4.60808 -11.9311 L -4.54439 -11.8878 L -4.48064 -11.8444 L -4.41684 -11.8009 L -4.35299 -11.7572 L -4.28908 -11.7134 L -4.22511 -11.6694 L -4.16109 -11.6252 L -4.09701 -11.5809 L -4.03287 -11.5364 L -3.96868 -11.4918 L -3.90443 -11.447 L -3.84012 -11.4021 L -3.77576 -11.3569 L -3.71133 -11.3116 L -3.64685 -11.2661 L -3.58231 -11.2205 L -3.51772 -11.1746 L -3.45306 -11.1286 L -3.38835 -11.0824 L -3.32357 -11.036 L -3.25874 -10.9894 L -3.19385 -10.9425 L -3.1289 -10.8955 L -3.06388 -10.8483 L -2.99881 -10.8009 L -2.93368 -10.7532 L -2.86849 -10.7054 L -2.86849 -10.7054 L -2.83597 -10.7794 L -2.80339 -10.8532 L -2.77075 -10.9269 L -2.73806 -11.0003 L -2.70532 -11.0734 L -2.67253 -11.1464 L -2.63969 -11.2192 L -2.6068 -11.2918 L -2.57386 -11.3642 L -2.54089 -11.4364 L -2.50787 -11.5084 L -2.47481 -11.5802 L -2.44171 -11.6518 L -2.40857 -11.7233 L -2.37539 -11.7945 L -2.34218 -11.8656 L -2.30893 -11.9365 L -2.27566 -12.0073 L -2.24235 -12.0779 L -2.209 -12.1483 L -2.17563 -12.2185 L -2.14223 -12.2886 L -2.1088 -12.3585 L -2.07535 -12.4283 L -2.04187 -12.4979 L -2.00836 -12.5674 L -1.97483 -12.6367 L -1.94128 -12.7058 L -1.9077 -12.7748 L -1.87411 -12.8437 L -1.84049 -12.9124 L -1.80685 -12.981 L -1.77319 -13.0495 L -1.73952 -13.1178 L -1.70582 -13.186 L -1.67211 -13.254 L -1.63839 -13.3219 L -1.60464 -13.3897 L -1.57088 -13.4574 L -1.53711 -13.5249 L -1.50332 -13.5923 L -1.46952 -13.6596 L -1.43571 -13.7268 L -1.40189 -13.7938 L -1.36805 -13.8607 L -1.3342 -13.9276 L -1.30034 -13.9943 L -1.26647 -14.0608 L -1.23259 -14.1273 L -1.1987 -14.1937 L -1.1648 -14.2599 L -1.13089 -14.3261 L -1.09697 -14.3921 L -1.06305 -14.4581 L -1.02912 -14.5239 L -0.995178 -14.5896 L -0.961232 -14.6553 L -0.937395 -14.7202 L -0.87429 -14.7241 L -0.811169 -14.7277 L -0.748034 -14.731 L -0.684884 -14.7341 L -0.621722 -14.7369 L -0.558549 -14.7394 L -0.495365 -14.7417 L -0.432172 -14.7437 L -0.368971 -14.7454 L -0.305764 -14.7468 L -0.242551 -14.748 L -0.179333 -14.7489 L -0.116112 -14.7495 L 0.116112 -14.7495 L 0.179333 -14.7489 L 0.242551 -14.748 L 0.305764 -14.7468 L 0.368971 -14.7454 L 0.432172 -14.7437 L 0.495365 -14.7417 L 0.558549 -14.7394 L 0.621722 -14.7369 L 0.684884 -14.7341 L 0.748034 -14.731 L 0.811169 -14.7277 L 0.87429 -14.7241 L 0.937395 -14.7202 L 0.961232 -14.6553 L 0.995178 -14.5896 L 1.02912 -14.5239 L 1.06305 -14.4581 L 1.09697 -14.3921 L 1.13089 -14.3261 L 1.1648 -14.2599 L 1.1987 -14.1937 L 1.23259 -14.1273 L 1.26647 -14.0608 L 1.30034 -13.9943 L 1.3342 -13.9276 L 1.36805 -13.8607 L 1.40189 -13.7938 L 1.43571 -13.7268 L 1.46952 -13.6596 L 1.50332 -13.5923 L 1.53711 -13.5249 L 1.57088 -13.4574 L 1.60464 -13.3897 L 1.63839 -13.3219 L 1.67211 -13.254 L 1.70582 -13.186 L 1.73952 -13.1178 L 1.77319 -13.0495 L 1.80685 -12.981 L 1.84049 -12.9124 L 1.87411 -12.8437 L 1.9077 -12.7748 L 1.94128 -12.7058 L 1.97483 -12.6367 L 2.00836 -12.5674 L 2.04187 -12.4979 L 2.07535 -12.4283 L 2.1088 -12.3585 L 2.14223 -12.2886 L 2.17563 -12.2185 L 2.209 -12.1483 L 2.24235 -12.0779 L 2.27566 -12.0073 L 2.30893 -11.9365 L 2.34218 -11.8656 L 2.37539 -11.7945 L 2.40857 -11.7233 L 2.44171 -11.6518 L 2.47481 -11.5802 L 2.50787 -11.5084 L 2.54089 -11.4364 L 2.57386 -11.3642 L 2.6068 -11.2918 L 2.63969 -11.2192 L 2.67253 -11.1464 L 2.70532 -11.0734 L 2.73806 -11.0003 L 2.77075 -10.9269 L 2.80339 -10.8532 L 2.83597 -10.7794 L 2.86849 -10.7054 L 2.86849 -10.7054 L 2.93368 -10.7532 L 2.99881 -10.8009 L 3.06388 -10.8483 L 3.1289 -10.8955 L 3.19385 -10.9425 L 3.25874 -10.9894 L 3.32357 -11.036 L 3.38835 -11.0824 L 3.45306 -11.1286 L 3.51772 -11.1746 L 3.58231 -11.2205 L 3.64685 -11.2661 L 3.71133 -11.3116 L 3.77576 -11.3569 L 3.84012 -11.4021 L 3.90443 -11.447 L 3.96868 -11.4918 L 4.03287 -11.5364 L 4.09701 -11.5809 L 4.16109 -11.6252 L 4.22511 -11.6694 L 4.28908 -11.7134 L 4.35299 -11.7572 L 4.41684 -11.8009 L 4.48064 -11.8444 L 4.54439 -11.8878 L 4.60808 -11.9311 L 4.67172 -11.9742 L 4.7353 -12.0172 L 4.79883 -12.06 L 4.86231 -12.1027 L 4.92574 -12.1453 L 4.98911 -12.1878 L 5.05243 -12.2301 L 5.1157 -12.2723 L 5.17891 -12.3144 L 5.24208 -12.3563 L 5.30519 -12.3981 L 5.36826 -12.4399 L 5.43127 -12.4815 L 5.49424 -12.5229 L 5.55715 -12.5643 L 5.62002 -12.6056 L 5.68284 -12.6467 L 5.7456 -12.6878 L 5.80833 -12.7287 L 5.871 -12.7695 L 5.93363 -12.8103 L 5.99621 -12.8509 L 6.05874 -12.8914 L 6.12122 -12.9319 L 6.18367 -12.9722 L 6.24606 -13.0124 L 6.30841 -13.0526 L 6.37072 -13.0926 L 6.43298 -13.1326 L 6.49519 -13.1725 L 6.54828 -13.2168 L 6.60488 -13.1886 L 6.66135 -13.1601 L 6.71769 -13.1315 L 6.77392 -13.1025 L 6.83002 -13.0734 L 6.88599 -13.044 L 6.94184 -13.0144 L 6.99756 -12.9845 L 7.05315 -12.9544 L 7.10862 -12.924 L 7.16395 -12.8934 L 7.21915 -12.8626 L 7.27422 -12.8315 L 7.47533 -12.7154 L 7.52976 -12.6833 L 7.58406 -12.6509 L 7.63821 -12.6182 L 7.69223 -12.5854 L 7.74611 -12.5523 L 7.79984 -12.519 L 7.85343 -12.4854 L 7.90687 -12.4517 L 7.96017 -12.4177 L 8.01333 -12.3834 L 8.06633 -12.349 L 8.11919 -12.3143 L 8.1719 -12.2794 L 8.16009 -12.2112 L 8.15667 -12.1374 L 8.1532 -12.0635 L 8.14966 -11.9895 L 8.14607 -11.9155 L 8.14242 -11.8413 L 8.13871 -11.7671 L 8.13494 -11.6927 L 8.13111 -11.6183 L 8.12721 -11.5438 L 8.12325 -11.4692 L 8.11923 -11.3945 L 8.11513 -11.3197 L 8.11097 -11.2448 L 8.10674 -11.1699 L 8.10244 -11.0948 L 8.09807 -11.0196 L 8.09363 -10.9444 L 8.08911 -10.869 L 8.08452 -10.7935 L 8.07985 -10.7179 L 8.0751 -10.6423 L 8.07027 -10.5665 L 8.06536 -10.4906 L 8.06037 -10.4146 L 8.05529 -10.3385 L 8.05013 -10.2623 L 8.04488 -10.1859 L 8.03954 -10.1095 L 8.03411 -10.0329 L 8.02859 -9.95626 L 8.02297 -9.87948 L 8.01726 -9.80257 L 8.01145 -9.72554 L 8.00554 -9.6484 L 7.99953 -9.57113 L 7.99341 -9.49373 L 7.98719 -9.41621 L 7.98086 -9.33857 L 7.97442 -9.26079 L 7.96787 -9.18289 L 7.9612 -9.10485 L 7.95442 -9.02668 L 7.94752 -8.94837 L 7.94049 -8.86992 L 7.93334 -8.79134 L 7.92607 -8.71262 L 7.91866 -8.63375 L 7.91113 -8.55474 L 7.90345 -8.47559 L 7.89564 -8.39628 L 7.88769 -8.31683 L 7.8796 -8.23723 L 7.87136 -8.15747 L 7.86297 -8.07755 L 7.85442 -7.99748 L 7.84572 -7.91725 L 7.83686 -7.83686 L 7.83686 -7.83686 L 7.91725 -7.84572 L 7.99748 -7.85442 L 8.07755 -7.86297 L 8.15747 -7.87136 L 8.23723 -7.8796 L 8.31683 -7.88769 L 8.39628 -7.89564 L 8.47559 -7.90345 L 8.55474 -7.91113 L 8.63375 -7.91866 L 8.71262 -7.92607 L 8.79134 -7.93334 L 8.86992 -7.94049 L 8.94837 -7.94752 L 9.02668 -7.95442 L 9.10485 -7.9612 L 9.18289 -7.96787 L 9.26079 -7.97442 L 9.33857 -7.98086 L 9.41621 -7.98719 L 9.49373 -7.99341 L 9.57113 -7.99953 L 9.6484 -8.00554 L 9.72554 -8.01145 L 9.80257 -8.01726 L 9.87948 -8.02297 L 9.95626 -8.02859 L 10.0329 -8.03411 L 10.1095 -8.03954 L 10.1859 -8.04488 L 10.2623 -8.05013 L 10.3385 -8.05529 L 10.4146 -8.06037 L 10.4906 -8.06536 L 10.5665 -8.07027 L 10.6423 -8.0751 L 10.7179 -8.07985 L 10.7935 -8.08452 L 10.869 -8.08911 L 10.9444 -8.09363 L 11.0196 -8.09807 L 11.0948 -8.10244 L 11.1699 -8.10674 L 11.2448 -8.11097 L 11.3197 -8.11513 L 11.3945 -8.11923 L 11.4692 -8.12325 L 11.5438 -8.12721 L 11.6183 -8.13111 L 11.6927 -8.13494 L 11.7671 -8.13871 L 11.8413 -8.14242 L 11.9155 -8.14607 L 11.9895 -8.14966 L 12.0635 -8.1532 L 12.1374 -8.15667 L 12.2112 -8.16009 L 12.2794 -8.1719 L 12.3143 -8.11919 L 12.349 -8.06633 L 12.3834 -8.01333 L 12.4177 -7.96017 L 12.4517 -7.90687 L 12.4854 -7.85343 L 12.519 -7.79984 L 12.5523 -7.74611 L 12.5854 -7.69223 L 12.6182 -7.63821 L 12.6509 -7.58406 L 12.6833 -7.52976 L 12.7154 -7.47533 L 12.8315 -7.27422 L 12.8626 -7.21915 L 12.8934 -7.16395 L 12.924 -7.10862 L 12.9544 -7.05315 L 12.9845 -6.99756 L 13.0144 -6.94184 L 13.044 -6.88599 L 13.0734 -6.83002 L 13.1025 -6.77392 L 13.1315 -6.71769 L 13.1601 -6.66135 L 13.1886 -6.60488 L 13.2168 -6.54828 L 13.1725 -6.49519 L 13.1326 -6.43298 L 13.0926 -6.37072 L 13.0526 -6.30841 L 13.0124 -6.24606 L 12.9722 -6.18367 L 12.9319 -6.12122 L 12.8914 -6.05874 L 12.8509 -5.99621 L 12.8103 -5.93363 L 12.7695 -5.871 L 12.7287 -5.80833 L 12.6878 -5.7456 L 12.6467 -5.68284 L 12.6056 -5.62002 L 12.5643 -5.55715 L 12.5229 -5.49424 L 12.4815 -5.43127 L 12.4399 -5.36826 L 12.3981 -5.30519 L 12.3563 -5.24208 L 12.3144 -5.17891 L 12.2723 -5.1157 L 12.2301 -5.05243 L 12.1878 -4.98911 L 12.1453 -4.92574 L 12.1027 -4.86231 L 12.06 -4.79883 L 12.0172 -4.7353 L 11.9742 -4.67172 L 11.9311 -4.60808 L 11.8878 -4.54439 L 11.8444 -4.48064 L 11.8009 -4.41684 L 11.7572 -4.35299 L 11.7134 -4.28908 L 11.6694 -4.22511 L 11.6252 -4.16109 L 11.5809 -4.09701 L 11.5364 -4.03287 L 11.4918 -3.96868 L 11.447 -3.90443 L 11.4021 -3.84012 L 11.3569 -3.77576 L 11.3116 -3.71133 L 11.2661 -3.64685 L 11.2205 -3.58231 L 11.1746 -3.51772 L 11.1286 -3.45306 L 11.0824 -3.38835 L 11.036 -3.32357 L 10.9894 -3.25874 L 10.9425 -3.19385 L 10.8955 -3.1289 L 10.8483 -3.06388 L 10.8009 -2.99881 L 10.7532 -2.93368 L 10.7054 -2.86849 L 10.7054 -2.86849 L 10.7794 -2.83597 L 10.8532 -2.80339 L 10.9269 -2.77075 L 11.0003 -2.73806 L 11.0734 -2.70532 L 11.1464 -2.67253 L 11.2192 -2.63969 L 11.2918 -2.6068 L 11.3642 -2.57386 L 11.4364 -2.54089 L 11.5084 -2.50787 L 11.5802 -2.47481 L 11.6518 -2.44171 L 11.7233 -2.40857 L 11.7945 -2.37539 L 11.8656 -2.34218 L 11.9365 -2.30893 L 12.0073 -2.27566 L 12.0779 -2.24235 L 12.1483 -2.209 L 12.2185 -2.17563 L 12.2886 -2.14223 L 12.3585 -2.1088 L 12.4283 -2.07535 L 12.4979 -2.04187 L 12.5674 -2.00836 L 12.6367 -1.97483 L 12.7058 -1.94128 L 12.7748 -1.9077 L 12.8437 -1.87411 L 12.9124 -1.84049 L 12.981 -1.80685 L 13.0495 -1.77319 L 13.1178 -1.73952 L 13.186 -1.70582 L 13.254 -1.67211 L 13.3219 -1.63839 L 13.3897 -1.60464 L 13.4574 -1.57088 L 13.5249 -1.53711 L 13.5923 -1.50332 L 13.6596 -1.46952 L 13.7268 -1.43571 L 13.7938 -1.40189 L 13.8607 -1.36805 L 13.9276 -1.3342 L 13.9943 -1.30034 L 14.0608 -1.26647 L 14.1273 -1.23259 L 14.1937 -1.1987 L 14.2599 -1.1648 L 14.3261 -1.13089 L 14.3921 -1.09697 L 14.4581 -1.06305 L 14.5239 -1.02912 L 14.5896 -0.995178 L 14.6553 -0.961232 L 14.7202 -0.937395 L 14.7241 -0.87429 L 14.7277 -0.811169 L 14.731 -0.748034 L 14.7341 -0.684884 L 14.7369 -0.621722 L 14.7394 -0.558549 L 14.7417 -0.495365 L 14.7437 -0.432172 L 14.7454 -0.368971 L 14.7468 -0.305764 L 14.748 -0.242551 L 14.7489 -0.179333 L 14.7495 -0.116112Z"
id="path1" />
</g>
</svg>
