<?xml version="1.0" encoding="UTF-8" standalone="no"?>
<svg version="1.1">
<g
style="fill:none;stroke:#000000;stroke-opacity:1;stroke-width:0.1">
<path d="M 15.1245 0.117725 L 15.1239 0.178378 L 15.1231 0.239028 L 15.122 0.299674 L 15.1207 0.360315 L 15.1191 0.420951 L 15.1173 0.48158 L 15.1153 0.542201 L 15.113 0.602813 L 15.1104 0.663415 L 15.1077 0.724007 L 15.1046 0.784587 L 15.1014 0.845155 L 15.0979 0.905709 L 15.0941 0.966248 L 15.0901 1.02677 L 15.0278 1.04902 L 14.9647 1.08128 L 14.9015 1.11354 L 14.8382 1.14579 L 14.7748 1.17804 L 14.7114 1.21027 L 14.6478 1.2425 L 14.5842 1.27472 L 14.5204 1.30694 L 14.4566 1.33914 L 14.3926 1.37133 L 14.3286 1.40352 L 14.2644 1.43569 L 14.2002 1.46786 L 14.1358 1.50001 L 14.0713 1.53216 L 14.0068 1.56429 L 13.9421 1.59641 L 13.8773 1.62851 L 13.8124 1.66061 L 13.7474 1.69269 L 13.6823 1.72476 L 13.6171 1.75681 L 13.5517 1.78884 L 13.4862 1.82087 L 13.4206 1.85287 L 13.3549 1.88486 L 13.2891 1.91683 L 13.2232 1.94878 L 13.1571 1.98072 L 13.0909 2.01264 L 13.0245 2.04453 L 12.9581 2.07641 L 12.8915 2.10826 L 12.8247 2.14009 L 12.7578 2.1719 L 12.6908 2.20369 L 12.6237 2.23545 L 12.5564 2.26718 L 12.4889 2.2989 L 12.4214 2.33058 L 12.3536 2.36223 L 12.2858 2.39386 L 12.2177 2.42546 L 12.1495 2.45703 L 12.0812 2.48856 L 12.0127 2.52006 L 11.944 2.55153 L 11.8752 2.58297 L 11.8062 2.61436 L 11.7371 2.64573 L 11.6677 2.67705 L 11.5982 2.70833 L 11.5286 2.73957 L 11.4587 2.77077 L 11.3887 2.80193 L 11.3184 2.83304 L 11.248 2.86411 L 11.1775 2.89512 L 11.1067 2.92609 L 11.0357 2.95701 L 11.0357 2.95701 L 11.0817 3.01927 L 11.1275 3.08148 L 11.1731 3.14364 L 11.2186 3.20574 L 11.2638 3.26779 L 11.3089 3.32979 L 11.3538 3.39174 L 11.3985 3.45363 L 11.4431 3.51547 L 11.4875 3.57726 L 11.5317 3.639 L 11.5757 3.70069 L 11.6196 3.76232 L 11.6633 3.82391 L 11.7069 3.88544 L 11.7503 3.94692 L 11.7936 4.00835 L 11.8367 4.06973 L 11.8797 4.13106 L 11.9225 4.19234 L 11.9652 4.25357 L 12.0077 4.31475 L 12.0502 4.37588 L 12.0924 4.43697 L 12.1346 4.498 L 12.1766 4.55898 L 12.2185 4.61992 L 12.2602 4.68081 L 12.3018 4.74165 L 12.3433 4.80244 L 12.3847 4.86318 L 12.426 4.92388 L 12.4671 4.98453 L 12.5081 5.04513 L 12.5491 5.10569 L 12.5899 5.1662 L 12.6305 5.22667 L 12.6711 5.28709 L 12.7116 5.34746 L 12.752 5.40779 L 12.7922 5.46808 L 12.8324 5.52832 L 12.8724 5.58852 L 12.9124 5.64867 L 12.9522 5.70878 L 12.992 5.76885 L 13.0316 5.82887 L 13.0712 5.88886 L 13.1107 5.94879 L 13.15 6.00869 L 13.1893 6.06855 L 13.2285 6.12836 L 13.2676 6.18813 L 13.3066 6.24787 L 13.3456 6.30756 L 13.3844 6.36721 L 13.4232 6.42682 L 13.4618 6.48639 L 13.5004 6.54592 L 13.5389 6.60541 L 13.5818 6.65584 L 13.555 6.71026 L 13.528 6.76456 L 13.5007 6.81876 L 13.4733 6.87285 L 13.4456 6.92682 L 13.4177 6.98069 L 13.3896 7.03444 L 13.3613 7.08808 L 13.3328 7.14161 L 13.304 7.19502 L 13.2751 7.24831 L 13.2459 7.30149 L 13.2165 7.35455 L 13.1869 7.40749 L 13.1571 7.46032 L 13.0394 7.66422 L 13.0085 7.71645 L 12.9775 7.76856 L 12.9462 7.82054 L 12.9148 7.8724 L 12.8831 7.92412 L 12.8512 7.97573 L 12.8191 8.0272 L 12.7868 8.07854 L 12.7543 8.12976 L 12.7216 8.18084 L 12.6887 8.23179 L 12.6556 8.28261 L 12.6223 8.3333 L 12.5888 8.38385 L 12.555 8.43426 L 12.4899 8.42236 L 12.4191 8.41876 L 12.3483 8.4151 L 12.2774 8.41139 L 12.2064 8.40762 L 12.1353 8.40381 L 12.0641 8.39994 L 11.9929 8.39602 L 11.9216 8.39204 L 11.8502 8.388 L 11.7787 8.38391 L 11.7071 8.37976 L 11.6355 8.37555 L 11.5638 8.37128 L 11.492 8.36695 L 11.4201 8.36256 L 11.3481 8.3581 L 11.276 8.35358 L 11.2038 8.34899 L 11.1316 8.34434 L 11.0593 8.33962 L 10.9868 8.33483 L 10.9143 8.32997 L 10.8417 8.32504 L 10.769 8.32004 L 10.6962 8.31496 L 10.6233 8.30981 L 10.5503 8.30458 L 10.4772 8.29927 L 10.404 8.29389 L 10.3307 8.28842 L 10.2573 8.28288 L 10.1838 8.27725 L 10.1102 8.27153 L 10.0365 8.26573 L 9.96266 8.25984 L 9.88874 8.25386 L 9.8147 8.24779 L 9.74056 8.24163 L 9.6663 8.23538 L 9.59193 8.22902 L 9.51745 8.22257 L 9.44285 8.21602 L 9.36813 8.20937 L 9.29329 8.20262 L 9.21834 8.19575 L 9.14326 8.18879 L 9.06807 8.18171 L 8.99275 8.17452 L 8.9173 8.16721 L 8.84173 8.15979 L 8.76603 8.15226 L 8.69019 8.1446 L 8.61423 8.13682 L 8.53814 8.12891 L 8.46191 8.12088 L 8.38554 8.11271 L 8.30904 8.10441 L 8.2324 8.09598 L 8.15562 8.08741 L 8.07869 8.07869 L 8.07869 8.07869 L 8.08741 8.15562 L 8.09598 8.2324 L 8.10441 8.30904 L 8.11271 8.38554 L 8.12088 8.46191 L 8.12891 8.53814 L 8.13682 8.61423 L 8.1446 8.69019 L 8.15226 8.76603 L 8.15979 8.84173 L 8.16721 8.9173 L 8.17452 8.99275 L 8.18171 9.06807 L 8.18879 9.14326 L 8.19575 9.21834 L 8.20262 9.29329 L 8.20937 9.36813 L 8.21602 9.44285 L 8.22257 9.51745 L 8.22902 9.59193 L 8.23538 9.6663 L 8.24163 9.74056 L 8.24779 9.8147 L 8.25386 9.88874 L 8.25984 9.96266 L 8.26573 10.0365 L 8.27153 10.1102 L 8.27725 10.1838 L 8.28288 10.2573 L 8.28842 10.3307 L 8.29389 10.404 L 8.29927 10.4772 L 8.30458 10.5503 L 8.30981 10.6233 L 8.31496 10.6962 L 8.32004 10.769 L 8.32504 10.8417 L 8.32997 10.9143 L 8.33483 10.9868 L 8.33962 11.0593 L 8.34434 11.1316 L 8.34899 11.2038 L 8.35358 11.276 L 8.3581 11.3481 L 8.36256 11.4201 L 8.36695 11.492 L 8.37128 11.5638 L 8.37555 11.6355 L 8.37976 11.7071 L 8.38391 11.7787 L 8.388 11.8502 L 8.39204 11.9216 L 8.39602 11.9929 L 8.39994 12.0641 L 8.40381 12.1353 L 8.40762 12.2064 L 8.41139 12.2774 L 8.4151 12.3483 L 8.41876 12.4191 L 8.42236 12.4899 L 8.43426 12.555 L 8.38385 12.5888 L 8.3333 12.6223 L 8.28261 12.6556 L 8.23179 12.6887 L 8.18084 12.7216 L 8.12976 12.7543 L 8.07854 12.7868 L 8.0272 12.8191 L 7.97573 12.8512 L 7.92412 12.8831 L 7.8724 12.9148 L 7.82054 12.9462 L 7.76856 12.9775 L 7.71645 13.0085 L 7.66422 13.0394 L 7.46032 13.1571 L 7.40749 13.1869 L 7.35455 13.2165 L 7.30149 13.2459 L 7.24831 13.2751 L 7.19502 13.304 L 7.14161 13.3328 L 7.08808 13.3613 L 7.03444 13.3896 L 6.98069 13.4177 L 6.92682 13.4456 L 6.87285 13.4733 L 6.81876 13.5007 L 6.76456 13.528 L 6.71026 13.555 L 6.65584 13.5818 L 6.60541 13.5389 L 6.54592 13.5004 L 6.48639 13.4618 L 6.42682 13.4232 L 6.36721 13.3844 L 6.30756 13.3456 L 6.24787 13.3066 L 6.18813 13.2676 L 6.12836 13.2285 L 6.06855 13.1893 L 6.00869 13.15 L 5.94879 13.1107 L 5.88886 13.0712 L 5.82887 13.0316 L 5.76885 12.992 L 5.70878 12.9522 L 5.64867 12.9124 L 5.58852 12.8724 L 5.52832 12.8324 L 5.46808 12.7922 L 5.40779 12.752 L 5.34746 12.7116 L 5.28709 12.6711 L 5.22667 12.6305 L 5.1662 12.5899 L 5.10569 12.5491 L 5.04513 12.5081 L 4.98453 12.4671 L 4.92388 12.426 L 4.86318 12.3847 L 4.80244 12.3433 L 4.74165 12.3018 L 4.68081 12.2602 L 4.61992 12.2185 L 4.55898 12.1766 L 4.498 12.1346 L 4.43697 12.0924 L 4.37588 12.0502 L 4.31475 12.0077 L 4.25357 11.9652 L 4.19234 11.9225 L 4.13106 11.8797 L 4.06973 11.8367 L 4.00835 11.7936 L 3.94692 11.7503 L 3.88544 11.7069 L 3.82391 11.6633 L 3.76232 11.6196 L 3.70069 11.5757 L 3.639 11.5317 L 3.57726 11.4875 L 3.51547 11.4431 L 3.45363 11.3985 L 3.39174 11.3538 L 3.32979 11.3089 L 3.26779 11.2638 L 3.20574 11.2186 L 3.14364 11.1731 L 3.08148 11.1275 L 3.01927 11.0817 L 2.95701 11.0357 L 2.95701 11.0357 L 2.92609 11.1067 L 2.89512 11.1775 L 2.86411 11.248 L 2.83304 11.3184 L 2.80193 11.3887 L 2.77077 11.4587 L 2.73957 11.5286 L 2.70833 11.5982 L 2.67705 11.6677 L 2.64573 11.7371 L 2.61436 11.8062 L 2.58297 11.8752 L 2.55153 11.944 L 2.52006 12.0127 L 2.48856 12.0812 L 2.45703 12.1495 L 2.42546 12.2177 L 2.39386 12.2858 L 2.36223 12.3536 L 2.33058 12.4214 L 2.2989 12.4889 L 2.26718 12.5564 L 2.23545 12.6237 L 2.20369 12.6908 L 2.1719 12.7578 L 2.14009 12.8247 L 2.10826 12.8915 L 2.07641 12.9581 L 2.04453 13.0245 L 2.01264 13.0909 L 1.98072 13.1571 L 1.94878 13.2232 L 1.91683 13.2891 L 1.88486 13.3549 L 1.85287 13.4206 L 1.82087 13.4862 L 1.78884 13.5517 L 1.75681 13.6171 L 1.72476 13.6823 L 1.69269 13.7474 L 1.66061 13.8124 L 1.62851 13.8773 L 1.59641 13.9421 L 1.56429 14.0068 L 1.53216 14.0713 L 1.50001 14.1358 L 1.46786 14.2002 L 1.43569 14.2644 L 1.40352 14.3286 L 1.37133 14.3926 L 1.33914 14.4566 L 1.30694 14.5204 L 1.27472 14.5842 L 1.2425 14.6478 L 1.21027 14.7114 L 1.17804 14.7748 L 1.14579 14.8382 L 1.11354 14.9015 L 1.08128 14.9647 L 1.04902 15.0278 L 1.02677 15.0901 L 0.966248 15.0941 L 0.905709 15.0979 L 0.845155 15.1014 L 0.784587 15.1046 L 0.724007 15.1077 L 0.663415 15.1104 L 0.602813 15.113 L 0.542201 15.1153 L 0.48158 15.1173 L 0.420951 15.1191 L 0.360315 15.1207 L 0.299674 15.122 L 0.239028 15.1231 L 0.178378 15.1239 L 0.117725 15.1245 L -0.117725 15.1245 L -0.178378 15.1239 L -0.239028 15.1231 L -0.299674 15.122 L -0.360315 15.1207 L -0.420951 15.1191 L -0.48158 15.1173 L -0.542201 15.1153 L -0.602813 15.113 L -0.663415 15.1104 L -0.724007 15.1077 L -0.784587 15.1046 L -0.845155 15.1014 L -0.905709 15.0979 L -0.966248 15.0941 L -1.02677 15.0901 L -1.04902 15.0278 L -1.08128 14.9647 L -1.11354 14.9015 L -1.14579 14.8382 L -1.17804 14.7748 L -1.21027 14.7114 L -1.2425 14.6478 L -1.27472 14.5842 L -1.30694 14.5204 L -1.33914 14.4566 L -1.37133 14.3926 L -1.40352 14.3286 L -1.43569 14.2644 L -1.46786 14.2002 L -1.50001 14.1358 L -1.53216 14.0713 L -1.56429 14.0068 L -1.59641 13.9421 L -1.62851 13.8773 L -1.66061 13.8124 L -1.69269 13.7474 L -1.72476 13.6823 L -1.75681 13.6171 L -1.78884 13.5517 L -1.82087 13.4862 L -1.85287 13.4206 L -1.88486 13.3549 L -1.91683 13.2891 L -1.94878 13.2232 L -1.98072 13.1571 L -2.01264 13.0909 L -2.04453 13.0245 L -2.07641 12.9581 L -2.10826 12.8915 L -2.14009 12.8247 L -2.1719 12.7578 L -2.20369 12.6908 L -2.23545 12.6237 L -2.26718 12.5564 L -2.2989 12.4889 L -2.33058 12.4214 L -2.36223 12.3536 L -2.39386 12.2858 L -2.42546 12.2177 L -2.45703 12.1495 L -2.48856 12.0812 L -2.52006 12.0127 L -2.55153 11.944 L -2.58297 11.8752 L -2.61436 11.8062 L -2.64573 11.7371 L -2.67705 11.6677 L -2.70833 11.5982 L -2.73957 11.5286 L -2.77077 11.4587 L -2.80193 11.3887 L -2.83304 11.3184 L -2.86411 11.248 L -2.89512 11.1775 L -2.92609 11.1067 L -2.95701 11.0357 L -2.95701 11.0357 L -3.01927 11.0817 L -3.08148 11.1275 L -3.14364 11.1731 L -3.20574 11.2186 L -3.26779 11.2638 L -3.32979 11.3089 L -3.39174 11.3538 L -3.45363 11.3985 L -3.51547 11.4431 L -3.57726 11.4875 L -3.639 11.5317 L -3.70069 11.5757 L -3.76232 11.6196 L -3.82391 11.6633 L -3.88544 11.7069 L -3.94692 11.7503 L -4.00835 11.7936 L -4.06973 11.8367 L -4.13106 11.8797 L -4.19234 11.9225 L -4.25357 11.9652 L -4.31475 12.0077 L -4.37588 12.0502 L -4.43697 12.0924 L -4.498 12.1346 L -4.55898 12.1766 L -4.61992 12.2185 L -4.68081 12.2602 L -4.74165 12.3018 L -4.80244 12.3433 L -4.86318 12.3847 L -4.92388 12.426 L -4.98453 12.4671 L -5.04513 12.5081 L -5.10569 12.5491 L -5.1662 12.5899 L -5.22667 12.6305 L -5.28709 12.6711 L -5.34746 12.7116 L -5.40779 12.752 L -5.46808 12.7922 L -5.52832 12.8324 L -5.58852 12.8724 L -5.64867 12.9124 L -5.70878 12.9522 L -5.76885 12.992 L -5.82887 13.0316 L -5.88886 13.0712 L -5.94879 13.1107 L -6.00869 13.15 L -6.06855 13.1893 L -6.12836 13.2285 L -6.18813 13.2676 L -6.24787 13.3066 L -6.30756 13.3456 L -6.36721 13.3844 L -6.42682 13.4232 L -6.48639 13.4618 L -6.54592 13.5004 L -6.60541 13.5389 L -6.65584 13.5818 L -6.71026 13.555 L -6.76456 13.528 L -6.81876 13.5007 L -6.87285 13.4733 L -6.92682 13.4456 L -6.98069 13.4177 L -7.03444 13.3896 L -7.08808 13.3613 L -7.14161 13.3328 L -7.19502 13.304 L -7.24831 13.2751 L -7.30149 13.2459 L -7.35455 13.2165 L -7.40749 13.1869 L -7.46032 13.1571 L -7.66422 13.0394 L -7.71645 13.0085 L -7.76856 12.9775 L -7.82054 12.9462 L -7.8724 12.9148 L -7.92412 12.8831 L -7.97573 12.8512 L -8.0272 12.8191 L -8.07854 12.7868 L -8.12976 12.7543 L -8.18084 12.7216 L -8.23179 12.6887 L -8.28261 12.6556 L -8.3333 12.6223 L -8.38385 12.5888 L -8.43426 12.555 L -8.42236 12.4899 L -8.41876 12.4191 L -8.4151 12.3483 L -8.41139 12.2774 L -8.40762 12.2064 L -8.40381 12.1353 L -8.39994 12.0641 L -8.39602 11.9929 L -8.39204 11.9216 L -8.388 11.8502 L -8.38391 11.7787 L -8.37976 11.7071 L -8.37555 11.6355 L -8.37128 11.5638 L -8.36695 11.492 L -8.36256 11.4201 L -8.3581 11.3481 L -8.35358 11.276 L -8.34899 11.2038 L -8.34434 11.1316 L -8.33962 11.0593 L -8.33483 10.9868 L -8.32997 10.9143 L -8.32504 10.8417 L -8.32004 10.769 L -8.31496 10.6962 L -8.30981 10.6233 L -8.30458 10.5503 L -8.29927 10.4772 L -8.29389 10.404 L -8.28842 10.3307 L -8.28288 10.2573 L -8.27725 10.1838 L -8.27153 10.1102 L -8.26573 10.0365 L -8.25984 9.96266 L -8.25386 9.88874 L -8.24779 9.8147 L -8.24163 9.74056 L -8.23538 9.6663 L -8.22902 9.59193 L -8.22257 9.51745 L -8.21602 9.44285 L -8.20937 9.36813 L -8.20262 9.29329 L -8.19575 9.21834 L -8.18879 9.14326 L -8.18171 9.06807 L -8.17452 8.99275 L -8.16721 8.9173 L -8.15979 8.84173 L -8.15226 8.76603 L -8.1446 8.69019 L -8.13682 8.61423 L -8.12891 8.53814 L -8.12088 8.46191 L -8.11271 8.38554 L -8.10441 8.30904 L -8.09598 8.2324 L -8.08741 8.15562 L -8.07869 8.07869 L -8.07869 8.07869 L -8.15562 8.08741 L -8.2324 8.09598 L -8.30904 8.10441 L -8.38554 8.11271 L -8.46191 8.12088 L -8.53814 8.12891 L -8.61423 8.13682 L -8.69019 8.1446 L -8.76603 8.15226 L -8.84173 8.15979 L -8.9173 8.16721 L -8.99275 8.17452 L -9.06807 8.18171 L -9.14326 8.18879 L -9.21834 8.19575 L -9.29329 8.20262 L -9.36813 8.20937 L -9.44285 8.21602 L -9.51745 8.22257 L -9.59193 8.22902 L -9.6663 8.23538 L -9.74056 8.24163 L -9.8147 8.24779 L -9.88874 8.25386 L -9.96266 8.25984 L -10.0365 8.26573 L -10.1102 8.27153 L -10.1838 8.27725 L -10.2573 8.28288 L -10.3307 8.28842 L -10.404 8.29389 L -10.4772 8.29927 L -10.5503 8.30458 L -10.6233 8.30981 L -10.6962 8.31496 L -10.769 8.32004 L -10.8417 8.32504 L -10.9143 8.32997 L -10.9868 8.33483 L -11.0593 8.33962 L -11.1316 8.34434 L -11.2038 8.34899 L -11.276 8.35358 L -11.3481 8.3581 L -11.4201 8.36256 L -11.492 8.36695 L -11.5638 8.37128 L -11.6355 8.37555 L -11.7071 8.37976 L -11.7787 8.38391 L -11.8502 8.388 L -11.9216 8.39204 L -11.9929 8.39602 L -12.0641 8.39994 L -12.1353 8.40381 L -12.2064 8.40762 L -12.2774 8.41139 L -12.3483 8.4151 L -12.4191 8.41876 L -12.4899 8.42236 L -12.555 8.43426 L -12.5888 8.38385 L -12.6223 8.3333 L -12.6556 8.28261 L -12.6887 8.23179 L -12.7216 8.18084 L -12.7543 8.12976 L -12.7868 8.07854 L -12.8191 8.0272 L -12.8512 7.97573 L -12.8831 7.92412 L -12.9148 7.8724 L -12.9462 7.82054 L -12.9775 7.76856 L -13.0085 7.71645 L -13.0394 7.66422 L -13.1571 7.46032 L -13.1869 7.40749 L -13.2165 7.35455 L -13.2459 7.30149 L -13.2751 7.24831 L -13.304 7.19502 L -13.3328 7.14161 L -13.3613 7.08808 L -13.3896 7.03444 L -13.4177 6.98069 L -13.4456 6.92682 L -13.4733 6.87285 L -13.5007 6.81876 L -13.528 6.76456 L -13.555 6.71026 L -13.5818 6.65584 L -13.5389 6.60541 L -13.5004 6.54592 L -13.4618 6.48639 L -13.4232 6.42682 L -13.3844 6.36721 L -13.3456 6.30756 L -13.3066 6.24787 L -13.2676 6.18813 L -13.2285 6.12836 L -13.1893 6.06855 L -13.15 6.00869 L -13.1107 5.94879 L -13.0712 5.88886 L -13.0316 5.82887 L -12.992 5.76885 L -12.9522 5.70878 L -12.9124 5.64867 L -12.8724 5.58852 L -12.8324 5.52832 L -12.7922 5.46808 L -12.752 5.40779 L -12.7116 5.34746 L -12.6711 5.28709 L -12.6305 5.22667 L -12.5899 5.1662 L -12.5491 5.10569 L -12.5081 5.04513 L -12.4671 4.98453 L -12.426 4.92388 L -12.3847 4.86318 L -12.3433 4.80244 L -12.3018 4.74165 L -12.2602 4.68081 L -12.2185 4.61992 L -12.1766 4.55898 L -12.1346 4.498 L -12.0924 4.43697 L -12.0502 4.37588 L -12.0077 4.31475 L -11.9652 4.25357 L -11.9225 4.19234 L -11.8797 4.13106 L -11.8367 4.06973 L -11.7936 4.00835 L -11.7503 3.94692 L -11.7069 3.88544 L -11.6633 3.82391 L -11.6196 3.76232 L -11.5757 3.70069 L -11.5317 3.639 L -11.4875 3.57726 L -11.4431 3.51547 L -11.3985 3.45363 L -11.3538 3.39174 L -11.3089 3.32979 L -11.2638 3.26779 L -11.2186 3.20574 L -11.1731 3.14364 L -11.1275 3.08148 L -11.0817 3.01927 L -11.0357 2.95701 L -11.0357 2.95701 L -11.1067 2.92609 L -11.1775 2.89512 L -11.248 2.86411 L -11.3184 2.83304 L -11.3887 2.80193 L -11.4587 2.77077 L -11.5286 2.73957 L -11.5982 2.70833 L -11.6677 2.67705 L -11.7371 2.64573 L -11.8062 2.61436 L -11.8752 2.58297 L -11.944 2.55153 L -12.0127 2.52006 L -12.0812 2.48856 L -12.1495 2.45703 L -12.2177 2.42546 L -12.2858 2.39386 L -12.3536 2.36223 L -12.4214 2.33058 L -12.4889 2.2989 L -12.5564 2.26718 L -12.6237 2.23545 L -12.6908 2.20369 L -12.7578 2.1719 L -12.8247 2.14009 L -12.8915 2.10826 L -12.9581 2.07641 L -13.0245 2.04453 L -13.0909 2.01264 L -13.1571 1.98072 L -13.2232 1.94878 L -13.2891 1.91683 L -13.3549 1.88486 L -13.4206 1.85287 L -13.4862 1.82087 L -13.5517 1.78884 L -13.6171 1.75681 L -13.6823 1.72476 L -13.7474 1.69269 L -13.8124 1.66061 L -13.8773 1.62851 L -13.9421 1.59641 L -14.0068 1.56429 L -14.0713 1.53216 L -14.1358 1.50001 L -14.2002 1.46786 L -14.2644 1.43569 L -14.3286 1.40352 L -14.3926 1.37133 L -14.4566 1.33914 L -14.5204 1.30694 L -14.5842 1.27472 L -14.6478 1.2425 L -14.7114 1.21027 L -14.7748 1.17804 L -14.8382 1.14579 L -14.9015 1.11354 L -14.9647 1.08128 L -15.0278 1.04902 L -15.0901 1.02677 L -15.0941 0.966248 L -15.0979 0.905709 L -15.1014 0.845155 L -15.1046 0.784587 L -15.1077 0.724007 L -15.1104 0.663415 L -15.113 0.602813 L -15.1153 0.542201 L -15.1173 0.48158 L -15.1191 0.420951 L -15.1207 0.360315 L -15.122 0.299674 L -15.1231 0.239028 L -15.1239 0.178378 L -15.1245 0.117725 L -15.1245 -0.117725 L -15.1239 -0.178378 L -15.1231 -0.239028 L -15.122 -0.299674 L -15.1207 -0.360315 L -15.1191 -0.420951 L -15.1173 -0.48158 L -15.1153 -0.542201 L -15.113 -0.602813 L -15.1104 -0.663415 L -15.1077 -0.724007 L -15.1046 -0.784587 L -15.1014 -0.845155 L -15.0979 -0.905709 L -15.0941 -0.966248 L -15.0901 -1.02677 L -15.0278 -1.04902 L -14.9647 -1.08128 L -14.9015 -1.11354 L -14.8382 -1.14579 L -14.7748 -1.17804 L -14.7114 -1.21027 L -14.6478 -1.2425 L -14.5842 -1.27472 L -14.5204 -1.30694 L -14.4566 -1.33914 L -14.3926 -1.37133 L -14.3286 -1.40352 L -14.2644 -1.43569 L -14.2002 -1.46786 L -14.1358 -1.50001 L -14.0713 -1.53216 L -14.0068 -1.56429 L -13.9421 -1.59641 L -13.8773 -1.62851 L -13.8124 -1.66061 L -13.7474 -1.69269 L -13.6823 -1.72476 L -13.6171 -1.75681 L -13.5517 -1.78884 L -13.4862 -1.82087 L -13.4206 -1.85287 L -13.3549 -1.88486 L -13.2891 -1.91683 L -13.2232 -1.94878 L -13.1571 -1.98072 L -13.0909 -2.01264 L -13.0245 -2.04453 L -12.9581 -2.07641 L -12.8915 -2.10826 L -12.8247 -2.14009 L -12.7578 -2.1719 L -12.6908 -2.20369 L -12.6237 -2.23545 L -12.5564 -2.26718 L -12.4889 -2.2989 L -12.4214 -2.33058 L -12.3536 -2.36223 L -12.2858 -2.39386 L -12.2177 -2.42546 L -12.1495 -2.45703 L -12.0812 -2.48856 L -12.0127 -2.52006 L -11.944 -2.55153 L -11.8752 -2.58297 L -11.8062 -2.61436 L -11.7371 -2.64573 L -11.6677 -2.67705 L -11.5982 -2.70833 L -11.5286 -2.73957 L -11.4587 -2.77077 L -11.3887 -2.80193 L -11.3184 -2.83304 L -11.248 -2.86411 L -11.1775 -2.89512 L -11.1067 -2.92609 L -11.0357 -2.95701 L -11.0357 -2.95701 L -11.0817 -3.01927 L -11.1275 -3.08148 L -11.1731 -3.14364 L -11.2186 -3.20574 L -11.2638 -3.26779 L -11.3089 -3.32979 L -11.3538 -3.39174 L -11.3985 -3.45363 L -11.4431 -3.51547 L -11.4875 -3.57726 L -11.5317 -3.639 L -11.5757 -3.70069 L -11.6196 -3.76232 L -11.6633 -3.82391 L -11.7069 -3.88544 L -11.7503 -3.94692 L -11.7936 -4.00835 L -11.8367 -4.06973 L -11.8797 -4.13106 L -11.9225 -4.19234 L -11.9652 -4.25357 L -12.0077 -4.31475 L -12.0502 -4.37588 L -12.0924 -4.43697 L -12.1346 -4.498 L -12.1766 -4.55898 L -12.2185 -4.61992 L -12.2602 -4.68081 L -12.3018 -4.74165 L -12.3433 -4.80244 L -12.3847 -4.86318 L -12.426 -4.92388 L -12.4671 -4.98453 L -12.5081 -5.04513 L -12.5491 -5.10569 L -12.5899 -5.1662 L -12.6305 -5.22667 L -12.6711 -5.28709 L -12.7116 -5.34746 L -12.752 -5.40779 L -12.7922 -5.46808 L -12.8324 -5.52832 L -12.8724 -5.58852 L -12.9124 -5.64867 L -12.9522 -5.70878 L -12.992 -5.76885 L -13.0316 -5.82887 L -13.0712 -5.88886 L -13.1107 -5.94879 L -13.15 -6.00869 L -13.1893 -6.06855 L -13.2285 -6.12836 L -13.2676 -6.18813 L -13.3066 -6.24787 L -13.3456 -6.30756 L -13.3844 -6.36721 L -13.4232 -6.42682 L -13.4618 -6.48639 L -13.5004 -6.54592 L -13.5389 -6.60541 L -13.5818 -6.65584 L -13.555 -6.71026 L -13.528 -6.76456 L -13.5007 -6.81876 L -13.4733 -6.87285 L -13.4456 -6.92682 L -13.4177 -6.98069 L -13.3896 -7.03444 L -13.3613 -7.08808 L -13.3328 -7.14161 L -13.304 -7.19502 L -13.2751 -7.24831 L -13.2459 -7.30149 L -13.2165 -7.35455 L -13.1869 -7.40749 L -13.1571 -7.46032 L -13.0394 -7.66422 L -13.0085 -7.71645 L -12.9775 -7.76856 L -12.9462 -7.82054 L -12.9148 -7.8724 L -12.8831 -7.92412 L -12.8512 -7.97573 L -12.8191 -8.0272 L -12.7868 -8.07854 L -12.7543 -8.12976 L -12.7216 -8.18084 L -12.6887 -8.23179 L -12.6556 -8.28261 L -12.6223 -8.3333 L -12.5888 -8.38385 L -12.555 -8.43426 L -12.4899 -8.42236 L -12.4191 -8.41876 L -12.3483 -8.4151 L -12.2774 -8.41139 L -12.2064 -8.40762 L -12.1353 -8.40381 L -12.0641 -8.39994 L -11.9929 -8.39602 L -11.9216 -8.39204 L -11.8502 -8.388 L -11.7787 -8.38391 L -11.7071 -8.37976 L -11.6355 -8.37555 L -11.5638 -8.37128 L -11.492 -8.36695 L -11.4201 -8.36256 L -11.3481 -8.3581 L -11.276 -8.35358 L -11.2038 -8.34899 L -11.1316 -8.34434 L -11.0593 -8.33962 L -10.9868 -8.33483 L -10.9143 -8.32997 L -10.8417 -8.32504 L -10.769 -8.32004 L -10.6962 -8.31496 L -10.6233 -8.30981 L -10.5503 -8.30458 L -10.4772 -8.29927 L -10.404 -8.29389 L -10.3307 -8.28842 L -10.2573 -8.28288 L -10.1838 -8.27725 L -10.1102 -8.27153 L -10.0365 -8.26573 L -9.96266 -8.25984 L -9.88874 -8.25386 L -9.8147 -8.24779 L -9.74056 -8.24163 L -9.6663 -8.23538 L -9.59193 -8.22902 L -9.51745 -8.22257 L -9.44285 -8.21602 L -9.36813 -8.20937 L -9.29329 -8.20262 L -9.21834 -8.19575 L -9.14326 -8.18879 L -9.06807 -8.18171 L -8.99275 -8.17452 L -8.9173 -8.16721 L -8.84173 -8.15979 L -8.76603 -8.15226 L -8.69019 -8.1446 L -8.61423 -8.13682 L -8.53814 -8.12891 L -8.46191 -8.12088 L -8.38554 -8.11271 L -8.30904 -8.10441 L -8.2324 -8.09598 L -8.15562 -8.08741 L -8.07869 -8.07869 L -8.07869 -8.07869 L -8.08741 -8.15562 L -8.09598 -8.2324 L -8.10441 -8.30904 L -8.11271 -8.38554 L -8.12088 -8.46191 L -8.12891 -8.53814 L -8.13682 -8.61423 L -8.1446 -8.69019 L -8.15226 -8.76603 L -8.15979 -8.84173 L -8.16721 -8.9173 L -8.17452 -8.99275 L -8.18171 -9.06807 L -8.18879 -9.14326 L -8.19575 -9.21834 L -8.20262 -9.29329 L -8.20937 -9.36813 L -8.21602 -9.44285 L -8.22257 -9.51745 L -8.22902 -9.59193 L -8.23538 -9.6663 L -8.24163 -9.74056 L -8.24779 -9.8147 L -8.25386 -9.88874 L -8.25984 -9.96266 L -8.26573 -10.0365 L -8.27153 -10.1102 L -8.27725 -10.1838 L -8.28288 -10.2573 L -8.28842 -10.3307 L -8.29389 -10.404 L -8.29927 -10.4772 L -8.30458 -10.5503 L -8.30981 -10.6233 L -8.31496 -10.6962 L -8.32004 -10.769 L -8.32504 -10.8417 L -8.32997 -10.9143 L -8.33483 -10.9868 L -8.33962 -11.0593 L -8.34434 -11.1316 L -8.34899 -11.2038 L -8.35358 -11.276 L -8.3581 -11.3481 L -8.36256 -11.4201 L -8.36695 -11.492 L -8.37128 -11.5638 L -8.37555 -11.6355 L -8.37976 -11.7071 L -8.38391 -11.7787 L -8.388 -11.8502 L -8.39204 -11.9216 L -8.39602 -11.9929 L -8.39994 -12.0641 L -8.40381 -12.1353 L -8.40762 -12.2064 L -8.41139 -12.2774 L -8.4151 -12.3483 L -8.41876 -12.4191 L -8.42236 -12.4899 L -8.43426 -12.555 L -8.38385 -12.5888 L -8.3333 -12.6223 L -8.28261 -12.6556 L -8.23179 -12.6887 L -8.18084 -12.7216 L -8.12976 -12.7543 L -8.07854 -12.7868 L -8.0272 -12.8191 L -7.97573 -12.8512 L -7.92412 -12.8831 L -7.8724 -12.9148 L -7.82054 -12.9462 L -7.76856 -12.9775 L -7.71645 -13.0085 L -7.66422 -13.0394 L -7.46032 -13.1571 L -7.40749 -13.1869 L -7.35455 -13.2165 L -7.30149 -13.2459 L -7.24831 -13.2751 L -7.19502 -13.304 L -7.14161 -13.3328 L -7.08808 -13.3613 L -7.03444 -13.3896 L -6.98069 -13.4177 L -6.92682 -13.4456 L -6.87285 -13.4733 L -6.81876 -13.5007 L -6.76456 -13.528 L -6.71026 -13.555 L -6.65584 -13.5818 L -6.60541 -13.5389 L -6.54592 -13.5004 L -6.48639 -13.4618 L -6.42682 -13.4232 L -6.36721 -13.3844 L -6.30756 -13.3456 L -6.24787 -13.3066 L -6.18813 -13.2676 L -6.12836 -13.2285 L -6.06855 -13.1893 L -6.00869 -13.15 L -5.94879 -13.1107 L -5.88886 -13.0712 L -5.82887 -13.0316 L -5.76885 -12.992 L -5.70878 -12.9522 L -5.64867 -12.9124 L -5.58852 -12.8724 L -5.52832 -12.8324 L -5.46808 -12.7922 L -5.40779 -12.752 L -5.34746 -12.7116 L -5.28709 -12.6711 L -5.22667 -12.6305 L -5.1662 -12.5899 L -5.10569 -12.5491 L -5.04513 -12.5081 L -4.98453 -12.4671 L -4.92388 -12.426 L -4.86318 -12.3847 L -4.80244 -12.3433 L -4.74165 -12.3018 L -4.68081 -12.2602 L -4.61992 -12.2185 L -4.55898 -12.1766 L -4.498 -12.1346 L -4.43697 -12.0924 L -4.37588 -12.0502 L -4.31475 -12.0077 L -4.25357 -11.9652 L -4.19234 -11.9225 L -4.13106 -11.8797 L -4.06973 -11.8367 L -4.00835 -11.7936 L -3.94692 -11.7503 L -3.88544 -11.7069 L -3.82391 -11.6633 L -3.76232 -11.6196 L -3.70069 -11.5757 L -3.639 -11.5317 L -3.57726 -11.4875 L -3.51547 -11.4431 L -3.45363 -11.3985 L -3.39174 -11.3538 L -3.32979 -11.3089 L -3.26779 -11.2638 L -3.20574 -11.2186 L -3.14364 -11.1731 L -3.08148 -11.1275 L -3.01927 -11.0817 L -2.95701 -11.0357 L -2.95701 -11.0357 L -2.92609 -11.1067 L -2.89512 -11.1775 L -2.86411 -11.248 L -2.83304 -11.3184 L -2.80193 -11.3887 L -2.77077 -11.4587 L -2.73957 -11.5286 L -2.70833 -11.5982 L -2.67705 -11.6677 L -2.64573 -11.7371 L -2.61436 -11.8062 L -2.58297 -11.8752 L -2.55153 -11.944 L -2.52006 -12.0127 L -2.48856 -12.0812 L -2.45703 -12.1495 L -2.42546 -12.2177 L -2.39386 -12.2858 L -2.36223 -12.3536 L -2.33058 -12.4214 L -2.2989 -12.4889 L -2.26718 -12.5564 L -2.23545 -12.6237 L -2.20369 -12.6908 L -2.1719 -12.7578 L -2.14009 -12.8247 L -2.10826 -12.8915 L -2.07641 -12.9581 L -2.04453 -13.0245 L -2.01264 -13.0909 L -1.98072 -13.1571 L -1.94878 -13.2232 L -1.91683 -13.2891 L -1.88486 -13.3549 L -1.85287 -13.4206 L -1.82087 -13.4862 L -1.78884 -13.5517 L -1.75681 -13.6171 L -1.72476 -13.6823 L -1.69269 -13.7474 L -1.66061 -13.8124 L -1.62851 -13.8773 L -1.59641 -13.9421 L -1.56429 -14.0068 L -1.53216 -14.0713 L -1.50001 -14.1358 L -1.46786 -14.2002 L -1.43569 -14.2644 L -1.40352 -14.3286 L -1.37133 -14.3926 L -1.33914 -14.4566 L -1.30694 -14.5204 L -1.27472 -14.5842 L -1.2425 -14.6478 L -1.21027 -14.7114 L -1.17804 -14.7748 L -1.14579 -14.8382 L -1.11354 -14.9015 L -1.08128 -14.9647 L -1.04902 -15.0278 L -1.02677 -15.0901 L -0.966248 -15.0941 L -0.905709 -15.0979 L -0.845155 -15.1014 L -0.784587 -15.1046 L -0.724007 -15.1077 L -0.663415 -15.1104 L -0.602813 -15.113 L -0.542201 -15.1153 L -0.48158 -15.1173 L -0.420951 -15.1191 L -0.360315 -15.1207 L -0.299674 -15.122 L -0.239028 -15.1231 L -0.178378 -15.1239 L -0.117725 -15.1245 L 0.117725 -15.1245 L 0.178378 -15.1239 L 0.239028 -15.1231 L 0.299674 -15.122 L 0.360315 -15.1207 L 0.420951 -15.1191 L 0.48158 -15.1173 L 0.542201 -15.1153 L 0.602813 -15.113 L 0.663415 -15.1104 L 0.724007 -15.1077 L 0.784587 -15.1046 L 0.845155 -15.1014 L 0.905709 -15.0979 L 0.966248 -15.0941 L 1.02677 -15.0901 L 1.04902 -15.0278 L 1.08128 -14.9647 L 1.11354 -14.9015 L 1.14579 -14.8382 L 1.17804 -14.7748 L 1.21027 -14.7114 L 1.2425 -14.6478 L 1.27472 -14.5842 L 1.30694 -14.5204 L 1.33914 -14.4566 L 1.37133 -14.3926 L 1.40352 -14.3286 L 1.43569 -14.2644 L 1.46786 -14.2002 L 1.50001 -14.1358 L 1.53216 -14.0713 L 1.56429 -14.0068 L 1.59641 -13.9421 L 1.62851 -13.8773 L 1.66061 -13.8124 L 1.69269 -13.7474 L 1.72476 -13.6823 L 1.75681 -13.6171 L 1.78884 -13.5517 L 1.82087 -13.4862 L 1.85287 -13.4206 L 1.88486 -13.3549 L 1.91683 -13.2891 L 1.94878 -13.2232 L 1.98072 -13.1571 L 2.01264 -13.0909 L 2.04453 -13.0245 L 2.07641 -12.9581 L 2.10826 -12.8915 L 2.14009 -12.8247 L 2.1719 -12.7578 L 2.20369 -12.6908 L 2.23545 -12.6237 L 2.26718 -12.5564 L 2.2989 -12.4889 L 2.33058 -12.4214 L 2.36223 -12.3536 L 2.39386 -12.2858 L 2.42546 -12.2177 L 2.45703 -12.1495 L 2.48856 -12.0812 L 2.52006 -12.0127 L 2.55153 -11.944 L 2.58297 -11.8752 L 2.61436 -11.8062 L 2.64573 -11.7371 L 2.67705 -11.6677 L 2.70833 -11.5982 L 2.73957 -11.5286 L 2.77077 -11.4587 L 2.80193 -11.3887 L 2.83304 -11.3184 L 2.86411 -11.248 L 2.89512 -11.1775 L 2.92609 -11.1067 L 2.95701 -11.0357 L 2.95701 -11.0357 L 3.01927 -11.0817 L 3.08148 -11.1275 L 3.14364 -11.1731 L 3.20574 -11.2186 L 3.26779 -11.2638 L 3.32979 -11.3089 L 3.39174 -11.3538 L 3.45363 -11.3985 L 3.51547 -11.4431 L 3.57726 -11.4875 L 3.639 -11.5317 L 3.70069 -11.5757 L 3.76232 -11.6196 L 3.82391 -11.6633 L 3.88544 -11.7069 L 3.94692 -11.7503 L 4.00835 -11.7936 L 4.06973 -11.8367 L 4.13106 -11.8797 L 4.19234 -11.9225 L 4.25357 -11.9652 L 4.31475 -12.0077 L 4.37588 -12.0502 L 4.43697 -12.0924 L 4.498 -12.1346 L 4.55898 -12.1766 L 4.61992 -12.2185 L 4.68081 -12.2602 L 4.74165 -12.3018 L 4.80244 -12.3433 L 4.86318 -12.3847 L 4.92388 -12.426 L 4.98453 -12.4671 L 5.04513 -12.5081 L 5.10569 -12.5491 L 5.1662 -12.5899 L 5.22667 -12.6305 L 5.28709 -12.6711 L 5.34746 -12.7116 L 5.40779 -12.752 L 5.46808 -12.7922 L 5.52832 -12.8324 L 5.58852 -12.8724 L 5.64867 -12.9124 L 5.70878 -12.9522 L 5.76885 -12.992 L 5.82887 -13.0316 L 5.88886 -13.0712 L 5.94879 -13.1107 L 6.00869 -13.15 L 6.06855 -13.1893 L 6.12836 -13.2285 L 6.18813 -13.2676 L 6.24787 -13.3066 L 6.30756 -13.3456 L 6.36721 -13.3844 L 6.42682 -13.4232 L 6.48639 -13.4618 L 6.54592 -13.5004 L 6.60541 -13.5389 L 6.65584 -13.5818 L 6.71026 -13.555 L 6.76456 -13.528 L 6.81876 -13.5007 L 6.87285 -13.4733 L 6.92682 -13.4456 L 6.98069 -13.4177 L 7.03444 -13.3896 L 7.08808 -13.3613 L 7.14161 -13.3328 L 7.19502 -13.304 L 7.24831 -13.2751 L 7.30149 -13.2459 L 7.35455 -13.2165 L 7.40749 -13.1869 L 7.46032 -13.1571 L 7.66422 -13.0394 L 7.71645 -13.0085 L 7.76856 -12.9775 L 7.82054 -12.9462 L 7.8724 -12.9148 L 7.92412 -12.8831 L 7.97573 -12.8512 L 8.0272 -12.8191 L 8.07854 -12.7868 L 8.12976 -12.7543 L 8.18084 -12.7216 L 8.23179 -12.6887 L 8.28261 -12.6556 L 8.3333 -12.6223 L 8.38385 -12.5888 L 8.43426 -12.555 L 8.42236 -12.4899 L 8.41876 -12.4191 L 8.4151 -12.3483 L 8.41139 -12.2774 L 8.40762 -12.2064 L 8.40381 -12.1353 L 8.39994 -12.0641 L 8.39602 -11.9929 L 8.39204 -11.9216 L 8.388 -11.8502 L 8.38391 -11.7787 L 8.37976 -11.7071 L 8.37555 -11.6355 L 8.37128 -11.5638 L 8.36695 -11.492 L 8.36256 -11.4201 L 8.3581 -11.3481 L 8.35358 -11.276 L 8.34899 -11.2038 L 8.34434 -11.1316 L 8.33962 -11.0593 L 8.33483 -10.9868 L 8.32997 -10.9143 L 8.32504 -10.8417 L 8.32004 -10.769 L 8.31496 -10.6962 L 8.30981 -10.6233 L 8.30458 -10.5503 L 8.29927 -10.4772 L 8.29389 -10.404 L 8.28842 -10.3307 L 8.28288 -10.2573 L 8.27725 -10.1838 L 8.27153 -10.1102 L 8.26573 -10.0365 L 8.25984 -9.96266 L 8.25386 -9.88874 L 8.24779 -9.8147 L 8.24163 -9.74056 L 8.23538 -9.6663 L 8.22902 -9.59193 L 8.22257 -9.51745 L 8.21602 -9.44285 L 8.20937 -9.36813 L 8.20262 -9.29329 L 8.19575 -9.21834 L 8.18879 -9.14326 L 8.18171 -9.06807 L 8.17452 -8.99275 L 8.16721 -8.9173 L 8.15979 -8.84173 L 8.15226 -8.76603 L 8.1446 -8.69019 L 8.13682 -8.61423 L 8.12891 -8.53814 L 8.12088 -8.46191 L 8.11271 -8.38554 L 8.10441 -8.30904 L 8.09598 -8.2324 L 8.08741 -8.15562 L 8.07869 -8.07869 L 8.07869 -8.07869 L 8.15562 -8.08741 L 8.2324 -8.09598 L 8.30904 -8.10441 L 8.38554 -8.11271 L 8.46191 -8.12088 L 8.53814 -8.12891 L 8.61423 -8.13682 L 8.69019 -8.1446 L 8.76603 -8.15226 L 8.84173 -8.15979 L 8.9173 -8.16721 L 8.99275 -8.17452 L 9.06807 -8.18171 L 9.14326 -8.18879 L 9.21834 -8.19575 L 9.29329 -8.20262 L 9.36813 -8.20937 L 9.44285 -8.21602 L 9.51745 -8.22257 L 9.59193 -8.22902 L 9.6663 -8.23538 L 9.74056 -8.24163 L 9.8147 -8.24779 L 9.88874 -8.25386 L 9.96266 -8.25984 L 10.0365 -8.26573 L 10.1102 -8.27153 L 10.1838 -8.27725 L 10.2573 -8.28288 L 10.3307 -8.28842 L 10.404 -8.29389 L 10.4772 -8.29927 L 10.5503 -8.30458 L 10.6233 -8.30981 L 10.6962 -8.31496 L 10.769 -8.32004 L 10.8417 -8.32504 L 10.9143 -8.32997 L 10.9868 -8.33483 L 11.0593 -8.33962 L 11.1316 -8.34434 L 11.2038 -8.34899 L 11.276 -8.35358 L 11.3481 -8.3581 L 11.4201 -8.36256 L 11.492 -8.36695 L 11.5638 -8.37128 L 11.6355 -8.37555 L 11.7071 -8.37976 L 11.7787 -8.38391 L 11.8502 -8.388 L 11.9216 -8.39204 L 11.9929 -8.39602 L 12.0641 -8.39994 L 12.1353 -8.40381 L 12.2064 -8.40762 L 12.2774 -8.41139 L 12.3483 -8.4151 L 12.4191 -8.41876 L 12.4899 -8.42236 L 12.555 -8.43426 L 12.5888 -8.38385 L 12.6223 -8.3333 L 12.6556 -8.28261 L 12.6887 -8.23179 L 12.7216 -8.18084 L 12.7543 -8.12976 L 12.7868 -8.07854 L 12.8191 -8.0272 L 12.8512 -7.97573 L 12.8831 -7.92412 L 12.9148 -7.8724 L 12.9462 -7.82054 L 12.9775 -7.76856 L 13.0085 -7.71645 L 13.0394 -7.66422 L 13.1571 -7.46032 L 13.1869 -7.40749 L 13.2165 -7.35455 L 13.2459 -7.30149 L 13.2751 -7.24831 L 13.304 -7.19502 L 13.3328 -7.14161 L 13.3613 -7.08808 L 13.3896 -7.03444 L 13.4177 -6.98069 L 13.4456 -6.92682 L 13.4733 -6.87285 L 13.5007 -6.81876 L 13.528 -6.76456 L 13.555 -6.71026 L 13.5818 -6.65584 L 13.5389 -6.60541 L 13.5004 -6.54592 L 13.4618 -6.48639 L 13.4232 -6.42682 L 13.3844 -6.36721 L 13.3456 -6.30756 L 13.3066 -6.24787 L 13.2676 -6.18813 L 13.2285 -6.12836 L 13.1893 -6.06855 L 13.15 -6.00869 L 13.1107 -5.94879 L 13.0712 -5.88886 L 13.0316 -5.82887 L 12.992 -5.76885 L 12.9522 -5.70878 L 12.9124 -5.64867 L 12.8724 -5.58852 L 12.8324 -5.52832 L 12.7922 -5.46808 L 12.752 -5.40779 L 12.7116 -5.34746 L 12.6711 -5.28709 L 12.6305 -5.22667 L 12.5899 -5.1662 L 12.5491 -5.10569 L 12.5081 -5.04513 L 12.4671 -4.98453 L 12.426 -4.92388 L 12.3847 -4.86318 L 12.3433 -4.80244 L 12.3018 -4.74165 L 12.2602 -4.68081 L 12.2185 -4.61992 L 12.1766 -4.55898 L 12.1346 -4.498 L 12.0924 -4.43697 L 12.0502 -4.37588 L 12.0077 -4.31475 L 11.9652 -4.25357 L 11.9225 -4.19234 L 11.8797 -4.13106 L 11.8367 -4.06973 L 11.7936 -4.00835 L 11.7503 -3.94692 L 11.7069 -3.88544 L 11.6633 -3.82391 L 11.6196 -3.76232 L 11.5757 -3.70069 L 11.5317 -3.639 L 11.4875 -3.57726 L 11.4431 -3.51547 L 11.3985 -3.45363 L 11.3538 -3.39174 L 11.3089 -3.32979 L 11.2638 -3.26779 L 11.2186 -3.20574 L 11.1731 -3.14364 L 11.1275 -3.08148 L 11.0817 -3.01927 L 11.0357 -2.95701 L 11.0357 -2.95701 L 11.1067 -2.92609 L 11.1775 -2.89512 L 11.248 -2.86411 L 11.3184 -2.83304 L 11.3887 -2.80193 L 11.4587 -2.77077 L 11.5286 -2.73957 L 11.5982 -2.70833 L 11.6677 -2.67705 L 11.7371 -2.64573 L 11.8062 -2.61436 L 11.8752 -2.58297 L 11.944 -2.55153 L 12.0127 -2.52006 L 12.0812 -2.48856 L 12.1495 -2.45703 L 12.2177 -2.42546 L 12.2858 -2.39386 L 12.3536 -2.36223 L 12.4214 -2.33058 L 12.4889 -2.2989 L 12.5564 -2.26718 L 12.6237 -2.23545 L 12.6908 -2.20369 L 12.7578 -2.1719 L 12.8247 -2.14009 L 12.8915 -2.10826 L 12.9581 -2.07641 L 13.0245 -2.04453 L 13.0909 -2.01264 L 13.1571 -1.98072 L 13.2232 -1.94878 L 13.2891 -1.91683 L 13.3549 -1.88486 L 13.4206 -1.85287 L 13.4862 -1.82087 L 13.5517 -1.78884 L 13.6171 -1.75681 L 13.6823 -1.72476 L 13.7474 -1.69269 L 13.8124 -1.66061 L 13.8773 -1.62851 L 13.9421 -1.59641 L 14.0068 -1.56429 L 14.0713 -1.53216 L 14.1358 -1.50001 L 14.2002 -1.46786 L 14.2644 -1.43569 L 14.3286 -1.40352 L 14.3926 -1.37133 L 14.4566 -1.33914 L 14.5204 -1.30694 L 14.5842 -1.27472 L 14.6478 -1.2425 L 14.7114 -1.21027 L 14.7748 -1.17804 L 14.8382 -1.14579 L 14.9015 -1.11354 L 14.9647 -1.08128 L 15.0278 -1.04902 L 15.0901 -1.02677 L 15.0941 -0.966248 L 15.0979 -0.905709 L 15.1014 -0.845155 L 15.1046 -0.784587 L 15.1077 -0.724007 L 15.1104 -0.663415 L 15.113 -0.602813 L 15.1153 -0.542201 L 15.1173 -0.48158 L 15.1191 -0.420951 L 15.1207 -0.360315 L 15.122 -0.299674 L 15.1231 -0.239028 L 15.1239 -0.178378 L 15.1245 -0.117725Z"
id="path1" />
</g>
</svg>
