<?xml version="1.0" encoding="UTF-8" standalone="no"?>
<svg version="1.1">
<g
style="fill:none;stroke:#000000;stroke-opacity:1;stroke-width:0.1">
<path d="M 15.8746 0.110261 L 15.8741 0.165482 L 15.8735 0.220702 L 15.8726 0.275919 L 15.8715 0.331133 L 15.8703 0.386343 L 15.8689 0.441548 L 15.8672 0.496748 L 15.8654 0.551941 L 15.8634 0.607128 L 15.8612 0.662308 L 15.8588 0.71748 L 15.8562 0.772643 L 15.8534 0.827796 L 15.8504 0.88294 L 15.8473 0.938073 L 15.8439 0.993195 L 15.8403 1.0483 L 15.7839 1.0649 L 15.7268 1.09008 L 15.6697 1.11526 L 15.6125 1.14043 L 15.5553 1.16561 L 15.498 1.19077 L 15.4406 1.21594 L 15.3832 1.2411 L 15.3258 1.26625 L 15.2682 1.2914 L 15.2107 1.31654 L 15.153 1.34168 L 15.0953 1.36682 L 15.0376 1.39195 L 14.9798 1.41707 L 14.9219 1.44219 L 14.8639 1.4673 L 14.8059 1.4924 L 14.7479 1.5175 L 14.6897 1.54259 L 14.6316 1.56768 L 14.5733 1.59276 L 14.515 1.61783 L 14.4566 1.64289 L 14.3981 1.66795 L 14.3396 1.693 L 14.281 1.71804 L 14.2223 1.74307 L 14.1636 1.76809 L 14.1048 1.7931 L 14.0459 1.81811 L 13.9869 1.8431 L 13.9279 1.86809 L 13.8688 1.89306 L 13.8096 1.91803 L 13.7503 1.94298 L 13.691 1.96793 L 13.6316 1.99286 L 13.5721 2.01778 L 13.5125 2.04269 L 13.4529 2.06758 L 13.3931 2.09247 L 13.3333 2.11734 L 13.2734 2.14219 L 13.2134 2.16704 L 13.1533 2.19187 L 13.0932 2.21668 L 13.0329 2.24148 L 12.9726 2.26626 L 12.9121 2.29103 L 12.8516 2.31578 L 12.791 2.34052 L 12.7303 2.36524 L 12.6695 2.38994 L 12.6086 2.41462 L 12.5476 2.43928 L 12.4865 2.46393 L 12.4253 2.48855 L 12.364 2.51316 L 12.3026 2.53774 L 12.241 2.5623 L 12.1794 2.58684 L 12.1177 2.61136 L 12.0559 2.63586 L 11.994 2.66033 L 11.9319 2.68477 L 11.8697 2.70919 L 11.8697 2.70919 L 11.9152 2.75816 L 11.9604 2.80711 L 12.0056 2.85603 L 12.0507 2.90492 L 12.0957 2.95379 L 12.1405 3.00264 L 12.1853 3.05145 L 12.23 3.10024 L 12.2745 3.14901 L 12.319 3.19775 L 12.3633 3.24646 L 12.4076 3.29515 L 12.4517 3.34382 L 12.4958 3.39245 L 12.5398 3.44107 L 12.5837 3.48965 L 12.6275 3.53821 L 12.6712 3.58675 L 12.7148 3.63526 L 12.7583 3.68375 L 12.8018 3.73221 L 12.8451 3.78065 L 12.8884 3.82906 L 12.9316 3.87745 L 12.9747 3.92581 L 13.0177 3.97415 L 13.0606 4.02247 L 13.1035 4.07076 L 13.1463 4.11902 L 13.189 4.16726 L 13.2317 4.21548 L 13.2742 4.26368 L 13.3167 4.31185 L 13.3591 4.36 L 13.4015 4.40812 L 13.4437 4.45622 L 13.486 4.5043 L 13.5281 4.55235 L 13.5702 4.60038 L 13.6122 4.64839 L 13.6541 4.69638 L 13.6959 4.74434 L 13.7377 4.79228 L 13.7795 4.8402 L 13.8212 4.88809 L 13.8628 4.93596 L 13.9043 4.98381 L 13.9458 5.03164 L 13.9872 5.07945 L 14.0286 5.12724 L 14.0699 5.175 L 14.1111 5.22274 L 14.1523 5.27046 L 14.1935 5.31816 L 14.2345 5.36584 L 14.2756 5.4135 L 14.3165 5.46113 L 14.3574 5.50875 L 14.3983 5.55634 L 14.4391 5.60392 L 14.4799 5.65147 L 14.5206 5.699 L 14.5612 5.74652 L 14.6018 5.79401 L 14.6423 5.84148 L 14.6828 5.88894 L 14.7265 5.92838 L 14.7058 5.97957 L 14.6849 6.03069 L 14.6638 6.08174 L 14.6426 6.13271 L 14.6212 6.18361 L 14.5996 6.23444 L 14.5778 6.28519 L 14.5558 6.33586 L 14.5337 6.38646 L 14.5114 6.43698 L 14.4889 6.48742 L 14.4663 6.53778 L 14.4434 6.58807 L 14.4204 6.63827 L 14.3973 6.68839 L 14.3739 6.73844 L 14.3504 6.7884 L 14.2547 6.98708 L 14.2303 7.03662 L 14.2057 7.08608 L 14.181 7.13546 L 14.1561 7.18475 L 14.131 7.23395 L 14.1058 7.28306 L 14.0803 7.33209 L 14.0548 7.38102 L 14.029 7.42987 L 14.0031 7.47863 L 13.977 7.52729 L 13.9507 7.57587 L 13.9243 7.62435 L 13.8976 7.67274 L 13.8709 7.72104 L 13.8439 7.76925 L 13.8168 7.81736 L 13.7588 7.80781 L 13.6964 7.80574 L 13.634 7.80364 L 13.5716 7.80151 L 13.5091 7.79935 L 13.4465 7.79717 L 13.384 7.79496 L 13.3213 7.79272 L 13.2586 7.79045 L 13.1959 7.78815 L 13.1331 7.78583 L 13.0703 7.78347 L 13.0074 7.78108 L 12.9444 7.77866 L 12.8815 7.77621 L 12.8184 7.77373 L 12.7553 7.77121 L 12.6922 7.76867 L 12.629 7.76609 L 12.5657 7.76347 L 12.5024 7.76082 L 12.439 7.75814 L 12.3756 7.75542 L 12.3121 7.75267 L 12.2486 7.74988 L 12.185 7.74705 L 12.1213 7.74418 L 12.0576 7.74128 L 11.9938 7.73834 L 11.93 7.73536 L 11.8661 7.73234 L 11.8021 7.72928 L 11.7381 7.72618 L 11.674 7.72303 L 11.6098 7.71985 L 11.5456 7.71662 L 11.4813 7.71334 L 11.417 7.71003 L 11.3526 7.70667 L 11.2881 7.70326 L 11.2235 7.69981 L 11.1589 7.69631 L 11.0942 7.69276 L 11.0295 7.68916 L 10.9646 7.68551 L 10.8997 7.68182 L 10.8347 7.67807 L 10.7697 7.67427 L 10.7046 7.67042 L 10.6394 7.66651 L 10.5741 7.66255 L 10.5088 7.65854 L 10.4433 7.65446 L 10.3778 7.65033 L 10.3123 7.64615 L 10.2466 7.6419 L 10.1809 7.63759 L 10.115 7.63323 L 10.0491 7.6288 L 9.98313 7.6243 L 9.91706 7.61975 L 9.8509 7.61512 L 9.78466 7.61043 L 9.71833 7.60568 L 9.65191 7.60085 L 9.5854 7.59596 L 9.5188 7.59099 L 9.5188 7.59099 L 9.53846 7.65481 L 9.55803 7.71856 L 9.57752 7.78224 L 9.59692 7.84585 L 9.61623 7.90939 L 9.63546 7.97287 L 9.6546 8.03627 L 9.67367 8.0996 L 9.69265 8.16287 L 9.71156 8.22607 L 9.73038 8.28921 L 9.74914 8.35228 L 9.76781 8.41528 L 9.78641 8.47823 L 9.80494 8.5411 L 9.8234 8.60392 L 9.84178 8.66667 L 9.8601 8.72937 L 9.87834 8.792 L 9.89652 8.85457 L 9.91463 8.91708 L 9.93268 8.97953 L 9.95066 9.04192 L 9.96858 9.10426 L 9.98643 9.16654 L 10.0042 9.22876 L 10.022 9.29092 L 10.0396 9.35303 L 10.0572 9.41508 L 10.0748 9.47708 L 10.0923 9.53902 L 10.1097 9.60091 L 10.1271 9.66275 L 10.1444 9.72453 L 10.1617 9.78626 L 10.1789 9.84794 L 10.1961 9.90957 L 10.2132 9.97114 L 10.2303 10.0327 L 10.2473 10.0941 L 10.2642 10.1556 L 10.2811 10.2169 L 10.298 10.2783 L 10.3148 10.3396 L 10.3316 10.4008 L 10.3483 10.462 L 10.365 10.5231 L 10.3816 10.5842 L 10.3982 10.6453 L 10.4147 10.7063 L 10.4312 10.7672 L 10.4476 10.8281 L 10.464 10.889 L 10.4804 10.9498 L 10.4967 11.0106 L 10.513 11.0713 L 10.5293 11.132 L 10.5455 11.1927 L 10.5616 11.2533 L 10.5777 11.3138 L 10.5938 11.3744 L 10.6099 11.4349 L 10.6259 11.4953 L 10.6418 11.5557 L 10.6578 11.6161 L 10.6737 11.6764 L 10.6959 11.7309 L 10.655 11.768 L 10.614 11.805 L 10.5729 11.8419 L 10.5316 11.8786 L 10.4902 11.9151 L 10.4487 11.9516 L 10.4071 11.9878 L 10.3653 12.024 L 10.3234 12.0599 L 10.2814 12.0958 L 10.2393 12.1315 L 10.197 12.167 L 10.1546 12.2024 L 10.1121 12.2377 L 10.0695 12.2728 L 10.0267 12.3077 L 9.98387 12.3425 L 9.81146 12.48 L 9.76798 12.5141 L 9.72439 12.548 L 9.68068 12.5817 L 9.63686 12.6153 L 9.59291 12.6488 L 9.54886 12.6821 L 9.50468 12.7152 L 9.46039 12.7482 L 9.41599 12.781 L 9.37147 12.8137 L 9.32684 12.8462 L 9.28209 12.8786 L 9.23724 12.9108 L 9.19227 12.9429 L 9.14719 12.9748 L 9.102 13.0065 L 9.0567 13.0381 L 9.00853 13.0043 L 8.95325 12.9754 L 8.89795 12.9464 L 8.84261 12.9174 L 8.78724 12.8883 L 8.73185 12.8592 L 8.67642 12.8301 L 8.62096 12.8009 L 8.56546 12.7717 L 8.50994 12.7424 L 8.45438 12.713 L 8.39879 12.6836 L 8.34317 12.6542 L 8.28751 12.6247 L 8.23182 12.5952 L 8.1761 12.5656 L 8.12034 12.5359 L 8.06455 12.5063 L 8.00872 12.4765 L 7.95286 12.4467 L 7.89696 12.4168 L 7.84103 12.3869 L 7.78506 12.357 L 7.72906 12.3269 L 7.67302 12.2968 L 7.61695 12.2667 L 7.56083 12.2365 L 7.50468 12.2062 L 7.4485 12.1759 L 7.39227 12.1455 L 7.33601 12.1151 L 7.27971 12.0846 L 7.22337 12.054 L 7.16699 12.0234 L 7.11057 11.9927 L 7.05411 11.9619 L 6.99762 11.931 L 6.94108 11.9001 L 6.8845 11.8692 L 6.82788 11.8381 L 6.77122 11.807 L 6.71452 11.7758 L 6.65778 11.7445 L 6.60099 11.7132 L 6.54417 11.6818 L 6.4873 11.6503 L 6.43038 11.6187 L 6.37343 11.5871 L 6.31642 11.5554 L 6.25938 11.5235 L 6.20229 11.4917 L 6.14516 11.4597 L 6.08798 11.4276 L 6.03075 11.3955 L 5.97348 11.3633 L 5.91617 11.3309 L 5.8588 11.2985 L 5.80139 11.266 L 5.74394 11.2335 L 5.68643 11.2008 L 5.62888 11.168 L 5.57128 11.1351 L 5.51363 11.1022 L 5.45593 11.0691 L 5.39818 11.0359 L 5.34038 11.0027 L 5.28253 10.9693 L 5.28253 10.9693 L 5.27256 11.0353 L 5.26253 11.1013 L 5.25246 11.1671 L 5.24233 11.2328 L 5.23216 11.2984 L 5.22195 11.364 L 5.21169 11.4294 L 5.20139 11.4947 L 5.19104 11.56 L 5.18065 11.6251 L 5.17022 11.6902 L 5.15975 11.7551 L 5.14924 11.82 L 5.13869 11.8848 L 5.1281 11.9495 L 5.11747 12.0141 L 5.10681 12.0786 L 5.09611 12.143 L 5.08538 12.2074 L 5.07461 12.2716 L 5.0638 12.3358 L 5.05296 12.3999 L 5.04209 12.4639 L 5.03119 12.5279 L 5.02025 12.5917 L 5.00929 12.6555 L 4.99829 12.7192 L 4.98726 12.7828 L 4.97621 12.8464 L 4.96512 12.9098 L 4.95401 12.9732 L 4.94287 13.0366 L 4.9317 13.0998 L 4.9205 13.163 L 4.90928 13.2261 L 4.89803 13.2892 L 4.88675 13.3521 L 4.87545 13.415 L 4.86413 13.4779 L 4.85278 13.5406 L 4.84141 13.6033 L 4.83001 13.666 L 4.81859 13.7285 L 4.80715 13.791 L 4.79569 13.8535 L 4.7842 13.9159 L 4.77269 13.9782 L 4.76117 14.0404 L 4.74962 14.1026 L 4.73805 14.1648 L 4.72646 14.2268 L 4.71485 14.2889 L 4.70322 14.3508 L 4.69158 14.4127 L 4.67991 14.4746 L 4.66823 14.5363 L 4.65653 14.5981 L 4.64481 14.6597 L 4.63307 14.7214 L 4.62131 14.7829 L 4.60954 14.8444 L 4.59776 14.9059 L 4.58595 14.9673 L 4.57413 15.0287 L 4.5623 15.0899 L 4.55044 15.1512 L 4.54683 15.2099 L 4.49389 15.2257 L 4.4409 15.2412 L 4.38785 15.2566 L 4.33476 15.2717 L 4.2816 15.2867 L 4.2284 15.3015 L 4.17515 15.3161 L 4.12184 15.3306 L 4.06849 15.3448 L 4.01508 15.3589 L 3.96163 15.3727 L 3.90813 15.3864 L 3.85458 15.3999 L 3.80099 15.4132 L 3.74735 15.4264 L 3.69366 15.4393 L 3.63993 15.4521 L 3.42494 15.5011 L 3.37099 15.513 L 3.31701 15.5246 L 3.26298 15.536 L 3.20892 15.5473 L 3.15482 15.5584 L 3.10068 15.5692 L 3.0465 15.5799 L 2.99228 15.5904 L 2.93803 15.6008 L 2.88374 15.6109 L 2.82942 15.6208 L 2.77506 15.6306 L 2.72067 15.6401 L 2.66625 15.6495 L 2.61179 15.6587 L 2.55731 15.6677 L 2.50279 15.6765 L 2.47405 15.6251 L 2.4368 15.5751 L 2.39954 15.525 L 2.36227 15.4748 L 2.32499 15.4246 L 2.28771 15.3744 L 2.25041 15.3241 L 2.21311 15.2737 L 2.1758 15.2233 L 2.13848 15.1728 L 2.10116 15.1223 L 2.06382 15.0717 L 2.02648 15.021 L 1.98913 14.9703 L 1.95177 14.9195 L 1.9144 14.8687 L 1.87703 14.8178 L 1.83965 14.7668 L 1.80226 14.7158 L 1.76486 14.6647 L 1.72745 14.6136 L 1.69004 14.5623 L 1.65262 14.511 L 1.61519 14.4597 L 1.57775 14.4083 L 1.54031 14.3568 L 1.50286 14.3052 L 1.4654 14.2536 L 1.42793 14.2019 L 1.39046 14.1501 L 1.35298 14.0983 L 1.31549 14.0464 L 1.278 13.9944 L 1.24049 13.9423 L 1.20299 13.8902 L 1.16547 13.8379 L 1.12795 13.7856 L 1.09042 13.7333 L 1.05289 13.6808 L 1.01535 13.6283 L 0.9778 13.5757 L 0.940247 13.5229 L 0.902689 13.4702 L 0.865124 13.4173 L 0.827555 13.3643 L 0.78998 13.3113 L 0.752399 13.2581 L 0.714814 13.2049 L 0.677223 13.1516 L 0.639628 13.0982 L 0.602028 13.0447 L 0.564424 12.9911 L 0.526816 12.9374 L 0.489204 12.8836 L 0.451588 12.8297 L 0.413969 12.7758 L 0.376346 12.7217 L 0.338721 12.6675 L 0.301092 12.6132 L 0.263461 12.5588 L 0.225828 12.5043 L 0.188193 12.4497 L 0.150557 12.395 L 0.112919 12.3402 L 0.0752798 12.2852 L 0.0376401 12.2302 L 1.33227e-15 12.175 L 1.5874e-16 12.175 L -0.0376401 12.2302 L -0.0752798 12.2852 L -0.112919 12.3402 L -0.150557 12.395 L -0.188193 12.4497 L -0.225828 12.5043 L -0.263461 12.5588 L -0.301092 12.6132 L -0.338721 12.6675 L -0.376346 12.7217 L -0.413969 12.7758 L -0.451588 12.8297 L -0.489204 12.8836 L -0.526816 12.9374 L -0.564424 12.9911 L -0.602028 13.0447 L -0.639628 13.0982 L -0.677223 13.1516 L -0.714814 13.2049 L -0.752399 13.2581 L -0.78998 13.3113 L -0.827555 13.3643 L -0.865124 13.4173 L -0.902689 13.4702 L -0.940247 13.5229 L -0.9778 13.5757 L -1.01535 13.6283 L -1.05289 13.6808 L -1.09042 13.7333 L -1.12795 13.7856 L -1.16547 13.8379 L -1.20299 13.8902 L -1.24049 13.9423 L -1.278 13.9944 L -1.31549 14.0464 L -1.35298 14.0983 L -1.39046 14.1501 L -1.42793 14.2019 L -1.4654 14.2536 L -1.50286 14.3052 L -1.54031 14.3568 L -1.57775 14.4083 L -1.61519 14.4597 L -1.65262 14.511 L -1.69004 14.5623 L -1.72745 14.6136 L -1.76486 14.6647 L -1.80226 14.7158 L -1.83965 14.7668 L -1.87703 14.8178 L -1.9144 14.8687 L -1.95177 14.9195 L -1.98913 14.9703 L -2.02648 15.021 L -2.06382 15.0717 L -2.10116 15.1223 L -2.13848 15.1728 L -2.1758 15.2233 L -2.21311 15.2737 L -2.25041 15.3241 L -2.28771 15.3744 L -2.32499 15.4246 L -2.36227 15.4748 L -2.39954 15.525 L -2.4368 15.5751 L -2.47405 15.6251 L -2.50279 15.6765 L -2.55731 15.6677 L -2.61179 15.6587 L -2.66625 15.6495 L -2.72067 15.6401 L -2.77506 15.6306 L -2.82942 15.6208 L -2.88374 15.6109 L -2.93803 15.6008 L -2.99228 15.5904 L -3.0465 15.5799 L -3.10068 15.5692 L -3.15482 15.5584 L -3.20892 15.5473 L -3.26298 15.536 L -3.31701 15.5246 L -3.37099 15.513 L -3.42494 15.5011 L -3.63993 15.4521 L -3.69366 15.4393 L -3.74735 15.4264 L -3.80099 15.4132 L -3.85458 15.3999 L -3.90813 15.3864 L -3.96163 15.3727 L -4.01508 15.3589 L -4.06849 15.3448 L -4.12184 15.3306 L -4.17515 15.3161 L -4.2284 15.3015 L -4.2816 15.2867 L -4.33476 15.2717 L -4.38785 15.2566 L -4.4409 15.2412 L -4.49389 15.2257 L -4.54683 15.2099 L -4.55044 15.1512 L -4.5623 15.0899 L -4.57413 15.0287 L -4.58595 14.9673 L -4.59776 14.9059 L -4.60954 14.8444 L -4.62131 14.7829 L -4.63307 14.7214 L -4.64481 14.6597 L -4.65653 14.5981 L -4.66823 14.5363 L -4.67991 14.4746 L -4.69158 14.4127 L -4.70322 14.3508 L -4.71485 14.2889 L -4.72646 14.2268 L -4.73805 14.1648 L -4.74962 14.1026 L -4.76117 14.0404 L -4.77269 13.9782 L -4.7842 13.9159 L -4.79569 13.8535 L -4.80715 13.791 L -4.81859 13.7285 L -4.83001 13.666 L -4.84141 13.6033 L -4.85278 13.5406 L -4.86413 13.4779 L -4.87545 13.415 L -4.88675 13.3521 L -4.89803 13.2892 L -4.90928 13.2261 L -4.9205 13.163 L -4.9317 13.0998 L -4.94287 13.0366 L -4.95401 12.9732 L -4.96512 12.9098 L -4.97621 12.8464 L -4.98726 12.7828 L -4.99829 12.7192 L -5.00929 12.6555 L -5.02025 12.5917 L -5.03119 12.5279 L -5.04209 12.4639 L -5.05296 12.3999 L -5.0638 12.3358 L -5.07461 12.2716 L -5.08538 12.2074 L -5.09611 12.143 L -5.10681 12.0786 L -5.11747 12.0141 L -5.1281 11.9495 L -5.13869 11.8848 L -5.14924 11.82 L -5.15975 11.7551 L -5.17022 11.6902 L -5.18065 11.6251 L -5.19104 11.56 L -5.20139 11.4947 L -5.21169 11.4294 L -5.22195 11.364 L -5.23216 11.2984 L -5.24233 11.2328 L -5.25246 11.1671 L -5.26253 11.1013 L -5.27256 11.0353 L -5.28253 10.9693 L -5.28253 10.9693 L -5.34038 11.0027 L -5.39818 11.0359 L -5.45593 11.0691 L -5.51363 11.1022 L -5.57128 11.1351 L -5.62888 11.168 L -5.68643 11.2008 L -5.74394 11.2335 L -5.80139 11.266 L -5.8588 11.2985 L -5.91617 11.3309 L -5.97348 11.3633 L -6.03075 11.3955 L -6.08798 11.4276 L -6.14516 11.4597 L -6.20229 11.4917 L -6.25938 11.5235 L -6.31642 11.5554 L -6.37343 11.5871 L -6.43038 11.6187 L -6.4873 11.6503 L -6.54417 11.6818 L -6.60099 11.7132 L -6.65778 11.7445 L -6.71452 11.7758 L -6.77122 11.807 L -6.82788 11.8381 L -6.8845 11.8692 L -6.94108 11.9001 L -6.99762 11.931 L -7.05411 11.9619 L -7.11057 11.9927 L -7.16699 12.0234 L -7.22337 12.054 L -7.27971 12.0846 L -7.33601 12.1151 L -7.39227 12.1455 L -7.4485 12.1759 L -7.50468 12.2062 L -7.56083 12.2365 L -7.61695 12.2667 L -7.67302 12.2968 L -7.72906 12.3269 L -7.78506 12.357 L -7.84103 12.3869 L -7.89696 12.4168 L -7.95286 12.4467 L -8.00872 12.4765 L -8.06455 12.5063 L -8.12034 12.5359 L -8.1761 12.5656 L -8.23182 12.5952 L -8.28751 12.6247 L -8.34317 12.6542 L -8.39879 12.6836 L -8.45438 12.713 L -8.50994 12.7424 L -8.56546 12.7717 L -8.62096 12.8009 L -8.67642 12.8301 L -8.73185 12.8592 L -8.78724 12.8883 L -8.84261 12.9174 L -8.89795 12.9464 L -8.95325 12.9754 L -9.00853 13.0043 L -9.0567 13.0381 L -9.102 13.0065 L -9.14719 12.9748 L -9.19227 12.9429 L -9.23724 12.9108 L -9.28209 12.8786 L -9.32684 12.8462 L -9.37147 12.8137 L -9.41599 12.781 L -9.46039 12.7482 L -9.50468 12.7152 L -9.54886 12.6821 L -9.59291 12.6488 L -9.63686 12.6153 L -9.68068 12.5817 L -9.72439 12.548 L -9.76798 12.5141 L -9.81146 12.48 L -9.98387 12.3425 L -10.0267 12.3077 L -10.0695 12.2728 L -10.1121 12.2377 L -10.1546 12.2024 L -10.197 12.167 L -10.2393 12.1315 L -10.2814 12.0958 L -10.3234 12.0599 L -10.3653 12.024 L -10.4071 11.9878 L -10.4487 11.9516 L -10.4902 11.9151 L -10.5316 11.8786 L -10.5729 11.8419 L -10.614 11.805 L -10.655 11.768 L -10.6959 11.7309 L -10.6737 11.6764 L -10.6578 11.6161 L -10.6418 11.5557 L -10.6259 11.4953 L -10.6099 11.4349 L -10.5938 11.3744 L -10.5777 11.3138 L -10.5616 11.2533 L -10.5455 11.1927 L -10.5293 11.132 L -10.513 11.0713 L -10.4967 11.0106 L -10.4804 10.9498 L -10.464 10.889 L -10.4476 10.8281 L -10.4312 10.7672 L -10.4147 10.7063 L -10.3982 10.6453 L -10.3816 10.5842 L -10.365 10.5231 L -10.3483 10.462 L -10.3316 10.4008 L -10.3148 10.3396 L -10.298 10.2783 L -10.2811 10.2169 L -10.2642 10.1556 L -10.2473 10.0941 L -10.2303 10.0327 L -10.2132 9.97114 L -10.1961 9.90957 L -10.1789 9.84794 L -10.1617 9.78626 L -10.1444 9.72453 L -10.1271 9.66275 L -10.1097 9.60091 L -10.0923 9.53902 L -10.0748 9.47708 L -10.0572 9.41508 L -10.0396 9.35303 L -10.022 9.29092 L -10.0042 9.22876 L -9.98643 9.16654 L -9.96858 9.10426 L -9.95066 9.04192 L -9.93268 8.97953 L -9.91463 8.91708 L -9.89652 8.85457 L -9.87834 8.792 L -9.8601 8.72937 L -9.84178 8.66667 L -9.8234 8.60392 L -9.80494 8.5411 L -9.78641 8.47823 L -9.76781 8.41528 L -9.74914 8.35228 L -9.73038 8.28921 L -9.71156 8.22607 L -9.69265 8.16287 L -9.67367 8.0996 L -9.6546 8.03627 L -9.63546 7.97287 L -9.61623 7.90939 L -9.59692 7.84585 L -9.57752 7.78224 L -9.55803 7.71856 L -9.53846 7.65481 L -9.5188 7.59099 L -9.5188 7.59099 L -9.5854 7.59596 L -9.65191 7.60085 L -9.71833 7.60568 L -9.78466 7.61043 L -9.8509 7.61512 L -9.91706 7.61975 L -9.98313 7.6243 L -10.0491 7.6288 L -10.115 7.63323 L -10.1809 7.63759 L -10.2466 7.6419 L -10.3123 7.64615 L -10.3778 7.65033 L -10.4433 7.65446 L -10.5088 7.65854 L -10.5741 7.66255 L -10.6394 7.66651 L -10.7046 7.67042 L -10.7697 7.67427 L -10.8347 7.67807 L -10.8997 7.68182 L -10.9646 7.68551 L -11.0295 7.68916 L -11.0942 7.69276 L -11.1589 7.69631 L -11.2235 7.69981 L -11.2881 7.70326 L -11.3526 7.70667 L -11.417 7.71003 L -11.4813 7.71334 L -11.5456 7.71662 L -11.6098 7.71985 L -11.674 7.72303 L -11.7381 7.72618 L -11.8021 7.72928 L -11.8661 7.73234 L -11.93 7.73536 L -11.9938 7.73834 L -12.0576 7.74128 L -12.1213 7.74418 L -12.185 7.74705 L -12.2486 7.74988 L -12.3121 7.75267 L -12.3756 7.75542 L -12.439 7.75814 L -12.5024 7.76082 L -12.5657 7.76347 L -12.629 7.76609 L -12.6922 7.76867 L -12.7553 7.77121 L -12.8184 7.77373 L -12.8815 7.77621 L -12.9444 7.77866 L -13.0074 7.78108 L -13.0703 7.78347 L -13.1331 7.78583 L -13.1959 7.78815 L -13.2586 7.79045 L -13.3213 7.79272 L -13.384 7.79496 L -13.4465 7.79717 L -13.5091 7.79935 L -13.5716 7.80151 L -13.634 7.80364 L -13.6964 7.80574 L -13.7588 7.80781 L -13.8168 7.81736 L -13.8439 7.76925 L -13.8709 7.72104 L -13.8976 7.67274 L -13.9243 7.62435 L -13.9507 7.57587 L -13.977 7.52729 L -14.0031 7.47863 L -14.029 7.42987 L -14.0548 7.38102 L -14.0803 7.33209 L -14.1058 7.28306 L -14.131 7.23395 L -14.1561 7.18475 L -14.181 7.13546 L -14.2057 7.08608 L -14.2303 7.03662 L -14.2547 6.98708 L -14.3504 6.7884 L -14.3739 6.73844 L -14.3973 6.68839 L -14.4204 6.63827 L -14.4434 6.58807 L -14.4663 6.53778 L -14.4889 6.48742 L -14.5114 6.43698 L -14.5337 6.38646 L -14.5558 6.33586 L -14.5778 6.28519 L -14.5996 6.23444 L -14.6212 6.18361 L -14.6426 6.13271 L -14.6638 6.08174 L -14.6849 6.03069 L -14.7058 5.97957 L -14.7265 5.92838 L -14.6828 5.88894 L -14.6423 5.84148 L -14.6018 5.79401 L -14.5612 5.74652 L -14.5206 5.699 L -14.4799 5.65147 L -14.4391 5.60392 L -14.3983 5.55634 L -14.3574 5.50875 L -14.3165 5.46113 L -14.2756 5.4135 L -14.2345 5.36584 L -14.1935 5.31816 L -14.1523 5.27046 L -14.1111 5.22274 L -14.0699 5.175 L -14.0286 5.12724 L -13.9872 5.07945 L -13.9458 5.03164 L -13.9043 4.98381 L -13.8628 4.93596 L -13.8212 4.88809 L -13.7795 4.8402 L -13.7377 4.79228 L -13.6959 4.74434 L -13.6541 4.69638 L -13.6122 4.64839 L -13.5702 4.60038 L -13.5281 4.55235 L -13.486 4.5043 L -13.4437 4.45622 L -13.4015 4.40812 L -13.3591 4.36 L -13.3167 4.31185 L -13.2742 4.26368 L -13.2317 4.21548 L -13.189 4.16726 L -13.1463 4.11902 L -13.1035 4.07076 L -13.0606 4.02247 L -13.0177 3.97415 L -12.9747 3.92581 L -12.9316 3.87745 L -12.8884 3.82906 L -12.8451 3.78065 L -12.8018 3.73221 L -12.7583 3.68375 L -12.7148 3.63526 L -12.6712 3.58675 L -12.6275 3.53821 L -12.5837 3.48965 L -12.5398 3.44107 L -12.4958 3.39245 L -12.4517 3.34382 L -12.4076 3.29515 L -12.3633 3.24646 L -12.319 3.19775 L -12.2745 3.14901 L -12.23 3.10024 L -12.1853 3.05145 L -12.1405 3.00264 L -12.0957 2.95379 L -12.0507 2.90492 L -12.0056 2.85603 L -11.9604 2.80711 L -11.9152 2.75816 L -11.8697 2.70919 L -11.8697 2.70919 L -11.9319 2.68477 L -11.994 2.66033 L -12.0559 2.63586 L -12.1177 2.61136 L -12.1794 2.58684 L -12.241 2.5623 L -12.3026 2.53774 L -12.364 2.51316 L -12.4253 2.48855 L -12.4865 2.46393 L -12.5476 2.43928 L -12.6086 2.41462 L -12.6695 2.38994 L -12.7303 2.36524 L -12.791 2.34052 L -12.8516 2.31578 L -12.9121 2.29103 L -12.9726 2.26626 L -13.0329 2.24148 L -13.0932 2.21668 L -13.1533 2.19187 L -13.2134 2.16704 L -13.2734 2.14219 L -13.3333 2.11734 L -13.3931 2.09247 L -13.4529 2.06758 L -13.5125 2.04269 L -13.5721 2.01778 L -13.6316 1.99286 L -13.691 1.96793 L -13.7503 1.94298 L -13.8096 1.91803 L -13.8688 1.89306 L -13.9279 1.86809 L -13.9869 1.8431 L -14.0459 1.81811 L -14.1048 1.7931 L -14.1636 1.76809 L -14.2223 1.74307 L -14.281 1.71804 L -14.3396 1.693 L -14.3981 1.66795 L -14.4566 1.64289 L -14.515 1.61783 L -14.5733 1.59276 L -14.6316 1.56768 L -14.6897 1.54259 L -14.7479 1.5175 L -14.8059 1.4924 L -14.8639 1.4673 L -14.9219 1.44219 L -14.9798 1.41707 L -15.0376 1.39195 L -15.0953 1.36682 L -15.153 1.34168 L -15.2107 1.31654 L -15.2682 1.2914 L -15.3258 1.26625 L -15.3832 1.2411 L -15.4406 1.21594 L -15.498 1.19077 L -15.5553 1.16561 L -15.6125 1.14043 L -15.6697 1.11526 L -15.7268 1.09008 L -15.7839 1.0649 L -15.8403 1.0483 L -15.8439 0.993195 L -15.8473 0.938073 L -15.8504 0.88294 L -15.8534 0.827796 L -15.8562 0.772643 L -15.8588 0.71748 L -15.8612 0.662308 L -15.8634 0.607128 L -15.8654 0.551941 L -15.8672 0.496748 L -15.8689 0.441548 L -15.8703 0.386343 L -15.8715 0.331133 L -15.8726 0.275919 L -15.8735 0.220702 L -15.8741 0.165482 L -15.8746 0.110261 L -15.8746 -0.110261 L -15.8741 -0.165482 L -15.8735 -0.220702 L -15.8726 -0.275919 L -15.8715 -0.331133 L -15.8703 -0.386343 L -15.8689 -0.441548 L -15.8672 -0.496748 L -15.8654 -0.551941 L -15.8634 -0.607128 L -15.8612 -0.662308 L -15.8588 -0.71748 L -15.8562 -0.772643 L -15.8534 -0.827796 L -15.8504 -0.88294 L -15.8473 -0.938073 L -15.8439 -0.993195 L -15.8403 -1.0483 L -15.7839 -1.0649 L -15.7268 -1.09008 L -15.6697 -1.11526 L -15.6125 -1.14043 L -15.5553 -1.16561 L -15.498 -1.19077 L -15.4406 -1.21594 L -15.3832 -1.2411 L -15.3258 -1.26625 L -15.2682 -1.2914 L -15.2107 -1.31654 L -15.153 -1.34168 L -15.0953 -1.36682 L -15.0376 -1.39195 L -14.9798 -1.41707 L -14.9219 -1.44219 L -14.8639 -1.4673 L -14.8059 -1.4924 L -14.7479 -1.5175 L -14.6897 -1.54259 L -14.6316 -1.56768 L -14.5733 -1.59276 L -14.515 -1.61783 L -14.4566 -1.64289 L -14.3981 -1.66795 L -14.3396 -1.693 L -14.281 -1.71804 L -14.2223 -1.74307 L -14.1636 -1.76809 L -14.1048 -1.7931 L -14.0459 -1.81811 L -13.9869 -1.8431 L -13.9279 -1.86809 L -13.8688 -1.89306 L -13.8096 -1.91803 L -13.7503 -1.94298 L -13.691 -1.96793 L -13.6316 -1.99286 L -13.5721 -2.01778 L -13.5125 -2.04269 L -13.4529 -2.06758 L -13.3931 -2.09247 L -13.3333 -2.11734 L -13.2734 -2.14219 L -13.2134 -2.16704 L -13.1533 -2.19187 L -13.0932 -2.21668 L -13.0329 -2.24148 L -12.9726 -2.26626 L -12.9121 -2.29103 L -12.8516 -2.31578 L -12.791 -2.34052 L -12.7303 -2.36524 L -12.6695 -2.38994 L -12.6086 -2.41462 L -12.5476 -2.43928 L -12.4865 -2.46393 L -12.4253 -2.48855 L -12.364 -2.51316 L -12.3026 -2.53774 L -12.241 -2.5623 L -12.1794 -2.58684 L -12.1177 -2.61136 L -12.0559 -2.63586 L -11.994 -2.66033 L -11.9319 -2.68477 L -11.8697 -2.70919 L -11.8697 -2.70919 L -11.9152 -2.75816 L -11.9604 -2.80711 L -12.0056 -2.85603 L -12.0507 -2.90492 L -12.0957 -2.95379 L -12.1405 -3.00264 L -12.1853 -3.05145 L -12.23 -3.10024 L -12.2745 -3.14901 L -12.319 -3.19775 L -12.3633 -3.24646 L -12.4076 -3.29515 L -12.4517 -3.34382 L -12.4958 -3.39245 L -12.5398 -3.44107 L -12.5837 -3.48965 L -12.6275 -3.53821 L -12.6712 -3.58675 L -12.7148 -3.63526 L -12.7583 -3.68375 L -12.8018 -3.73221 L -12.8451 -3.78065 L -12.8884 -3.82906 L -12.9316 -3.87745 L -12.9747 -3.92581 L -13.0177 -3.97415 L -13.0606 -4.02247 L -13.1035 -4.07076 L -13.1463 -4.11902 L -13.189 -4.16726 L -13.2317 -4.21548 L -13.2742 -4.26368 L -13.3167 -4.31185 L -13.3591 -4.36 L -13.4015 -4.40812 L -13.4437 -4.45622 L -13.486 -4.5043 L -13.5281 -4.55235 L -13.5702 -4.60038 L -13.6122 -4.64839 L -13.6541 -4.69638 L -13.6959 -4.74434 L -13.7377 -4.79228 L -13.7795 -4.8402 L -13.8212 -4.88809 L -13.8628 -4.93596 L -13.9043 -4.98381 L -13.9458 -5.03164 L -13.9872 -5.07945 L -14.0286 -5.12724 L -14.0699 -5.175 L -14.1111 -5.22274 L -14.1523 -5.27046 L -14.1935 -5.31816 L -14.2345 -5.36584 L -14.2756 -5.4135 L -14.3165 -5.46113 L -14.3574 -5.50875 L -14.3983 -5.55634 L -14.4391 -5.60392 L -14.4799 -5.65147 L -14.5206 -5.699 L -14.5612 -5.74652 L -14.6018 -5.79401 L -14.6423 -5.84148 L -14.6828 -5.88894 L -14.7265 -5.92838 L -14.7058 -5.97957 L -14.6849 -6.03069 L -14.6638 -6.08174 L -14.6426 -6.13271 L -14.6212 -6.18361 L -14.5996 -6.23444 L -14.5778 -6.28519 L -14.5558 -6.33586 L -14.5337 -6.38646 L -14.5114 -6.43698 L -14.4889 -6.48742 L -14.4663 -6.53778 L -14.4434 -6.58807 L -14.4204 -6.63827 L -14.3973 -6.68839 L -14.3739 -6.73844 L -14.3504 -6.7884 L -14.2547 -6.98708 L -14.2303 -7.03662 L -14.2057 -7.08608 L -14.181 -7.13546 L -14.1561 -7.18475 L -14.131 -7.23395 L -14.1058 -7.28306 L -14.0803 -7.33209 L -14.0548 -7.38102 L -14.029 -7.42987 L -14.0031 -7.47863 L -13.977 -7.52729 L -13.9507 -7.57587 L -13.9243 -7.62435 L -13.8976 -7.67274 L -13.8709 -7.72104 L -13.8439 -7.76925 L -13.8168 -7.81736 L -13.7588 -7.80781 L -13.6964 -7.80574 L -13.634 -7.80364 L -13.5716 -7.80151 L -13.5091 -7.79935 L -13.4465 -7.79717 L -13.384 -7.79496 L -13.3213 -7.79272 L -13.2586 -7.79045 L -13.1959 -7.78815 L -13.1331 -7.78583 L -13.0703 -7.78347 L -13.0074 -7.78108 L -12.9444 -7.77866 L -12.8815 -7.77621 L -12.8184 -7.77373 L -12.7553 -7.77121 L -12.6922 -7.76867 L -12.629 -7.76609 L -12.5657 -7.76347 L -12.5024 -7.76082 L -12.439 -7.75814 L -12.3756 -7.75542 L -12.3121 -7.75267 L -12.2486 -7.74988 L -12.185 -7.74705 L -12.1213 -7.74418 L -12.0576 -7.74128 L -11.9938 -7.73834 L -11.93 -7.73536 L -11.8661 -7.73234 L -11.8021 -7.72928 L -11.7381 -7.72618 L -11.674 -7.72303 L -11.6098 -7.71985 L -11.5456 -7.71662 L -11.4813 -7.71334 L -11.417 -7.71003 L -11.3526 -7.70667 L -11.2881 -7.70326 L -11.2235 -7.69981 L -11.1589 -7.69631 L -11.0942 -7.69276 L -11.0295 -7.68916 L -10.9646 -7.68551 L -10.8997 -7.68182 L -10.8347 -7.67807 L -10.7697 -7.67427 L -10.7046 -7.67042 L -10.6394 -7.66651 L -10.5741 -7.66255 L -10.5088 -7.65854 L -10.4433 -7.65446 L -10.3778 -7.65033 L -10.3123 -7.64615 L -10.2466 -7.6419 L -10.1809 -7.63759 L -10.115 -7.63323 L -10.0491 -7.6288 L -9.98313 -7.6243 L -9.91706 -7.61975 L -9.8509 -7.61512 L -9.78466 -7.61043 L -9.71833 -7.60568 L -9.65191 -7.60085 L -9.5854 -7.59596 L -9.5188 -7.59099 L -9.5188 -7.59099 L -9.53846 -7.65481 L -9.55803 -7.71856 L -9.57752 -7.78224 L -9.59692 -7.84585 L -9.61623 -7.90939 L -9.63546 -7.97287 L -9.6546 -8.03627 L -9.67367 -8.0996 L -9.69265 -8.16287 L -9.71156 -8.22607 L -9.73038 -8.28921 L -9.74914 -8.35228 L -9.76781 -8.41528 L -9.78641 -8.47823 L -9.80494 -8.5411 L -9.8234 -8.60392 L -9.84178 -8.66667 L -9.8601 -8.72937 L -9.87834 -8.792 L -9.89652 -8.85457 L -9.91463 -8.91708 L -9.93268 -8.97953 L -9.95066 -9.04192 L -9.96858 -9.10426 L -9.98643 -9.16654 L -10.0042 -9.22876 L -10.022 -9.29092 L -10.0396 -9.35303 L -10.0572 -9.41508 L -10.0748 -9.47708 L -10.0923 -9.53902 L -10.1097 -9.60091 L -10.1271 -9.66275 L -10.1444 -9.72453 L -10.1617 -9.78626 L -10.1789 -9.84794 L -10.1961 -9.90957 L -10.2132 -9.97114 L -10.2303 -10.0327 L -10.2473 -10.0941 L -10.2642 -10.1556 L -10.2811 -10.2169 L -10.298 -10.2783 L -10.3148 -10.3396 L -10.3316 -10.4008 L -10.3483 -10.462 L -10.365 -10.5231 L -10.3816 -10.5842 L -10.3982 -10.6453 L -10.4147 -10.7063 L -10.4312 -10.7672 L -10.4476 -10.8281 L -10.464 -10.889 L -10.4804 -10.9498 L -10.4967 -11.0106 L -10.513 -11.0713 L -10.5293 -11.132 L -10.5455 -11.1927 L -10.5616 -11.2533 L -10.5777 -11.3138 L -10.5938 -11.3744 L -10.6099 -11.4349 L -10.6259 -11.4953 L -10.6418 -11.5557 L -10.6578 -11.6161 L -10.6737 -11.6764 L -10.6959 -11.7309 L -10.655 -11.768 L -10.614 -11.805 L -10.5729 -11.8419 L -10.5316 -11.8786 L -10.4902 -11.9151 L -10.4487 -11.9516 L -10.4071 -11.9878 L -10.3653 -12.024 L -10.3234 -12.0599 L -10.2814 -12.0958 L -10.2393 -12.1315 L -10.197 -12.167 L -10.1546 -12.2024 L -10.1121 -12.2377 L -10.0695 -12.2728 L -10.0267 -12.3077 L -9.98387 -12.3425 L -9.81146 -12.48 L -9.76798 -12.5141 L -9.72439 -12.548 L -9.68068 -12.5817 L -9.63686 -12.6153 L -9.59291 -12.6488 L -9.54886 -12.6821 L -9.50468 -12.7152 L -9.46039 -12.7482 L -9.41599 -12.781 L -9.37147 -12.8137 L -9.32684 -12.8462 L -9.28209 -12.8786 L -9.23724 -12.9108 L -9.19227 -12.9429 L -9.14719 -12.9748 L -9.102 -13.0065 L -9.0567 -13.0381 L -9.00853 -13.0043 L -8.95325 -12.9754 L -8.89795 -12.9464 L -8.84261 -12.9174 L -8.78724 -12.8883 L -8.73185 -12.8592 L -8.67642 -12.8301 L -8.62096 -12.8009 L -8.56546 -12.7717 L -8.50994 -12.7424 L -8.45438 -12.713 L -8.39879 -12.6836 L -8.34317 -12.6542 L -8.28751 -12.6247 L -8.23182 -12.5952 L -8.1761 -12.5656 L -8.12034 -12.5359 L -8.06455 -12.5063 L -8.00872 -12.4765 L -7.95286 -12.4467 L -7.89696 -12.4168 L -7.84103 -12.3869 L -7.78506 -12.357 L -7.72906 -12.3269 L -7.67302 -12.2968 L -7.61695 -12.2667 L -7.56083 -12.2365 L -7.50468 -12.2062 L -7.4485 -12.1759 L -7.39227 -12.1455 L -7.33601 -12.1151 L -7.27971 -12.0846 L -7.22337 -12.054 L -7.16699 -12.0234 L -7.11057 -11.9927 L -7.05411 -11.9619 L -6.99762 -11.931 L -6.94108 -11.9001 L -6.8845 -11.8692 L -6.82788 -11.8381 L -6.77122 -11.807 L -6.71452 -11.7758 L -6.65778 -11.7445 L -6.60099 -11.7132 L -6.54417 -11.6818 L -6.4873 -11.6503 L -6.43038 -11.6187 L -6.37343 -11.5871 L -6.31642 -11.5554 L -6.25938 -11.5235 L -6.20229 -11.4917 L -6.14516 -11.4597 L -6.08798 -11.4276 L -6.03075 -11.3955 L -5.97348 -11.3633 L -5.91617 -11.3309 L -5.8588 -11.2985 L -5.80139 -11.266 L -5.74394 -11.2335 L -5.68643 -11.2008 L -5.62888 -11.168 L -5.57128 -11.1351 L -5.51363 -11.1022 L -5.45593 -11.0691 L -5.39818 -11.0359 L -5.34038 -11.0027 L -5.28253 -10.9693 L -5.28253 -10.9693 L -5.27256 -11.0353 L -5.26253 -11.1013 L -5.25246 -11.1671 L -5.24233 -11.2328 L -5.23216 -11.2984 L -5.22195 -11.364 L -5.21169 -11.4294 L -5.20139 -11.4947 L -5.19104 -11.56 L -5.18065 -11.6251 L -5.17022 -11.6902 L -5.15975 -11.7551 L -5.14924 -11.82 L -5.13869 -11.8848 L -5.1281 -11.9495 L -5.11747 -12.0141 L -5.10681 -12.0786 L -5.09611 -12.143 L -5.08538 -12.2074 L -5.07461 -12.2716 L -5.0638 -12.3358 L -5.05296 -12.3999 L -5.04209 -12.4639 L -5.03119 -12.5279 L -5.02025 -12.5917 L -5.00929 -12.6555 L -4.99829 -12.7192 L -4.98726 -12.7828 L -4.97621 -12.8464 L -4.96512 -12.9098 L -4.95401 -12.9732 L -4.94287 -13.0366 L -4.9317 -13.0998 L -4.9205 -13.163 L -4.90928 -13.2261 L -4.89803 -13.2892 L -4.88675 -13.3521 L -4.87545 -13.415 L -4.86413 -13.4779 L -4.85278 -13.5406 L -4.84141 -13.6033 L -4.83001 -13.666 L -4.81859 -13.7285 L -4.80715 -13.791 L -4.79569 -13.8535 L -4.7842 -13.9159 L -4.77269 -13.9782 L -4.76117 -14.0404 L -4.74962 -14.1026 L -4.73805 -14.1648 L -4.72646 -14.2268 L -4.71485 -14.2889 L -4.70322 -14.3508 L -4.69158 -14.4127 L -4.67991 -14.4746 L -4.66823 -14.5363 L -4.65653 -14.5981 L -4.64481 -14.6597 L -4.63307 -14.7214 L -4.62131 -14.7829 L -4.60954 -14.8444 L -4.59776 -14.9059 L -4.58595 -14.9673 L -4.57413 -15.0287 L -4.5623 -15.0899 L -4.55044 -15.1512 L -4.54683 -15.2099 L -4.49389 -15.2257 L -4.4409 -15.2412 L -4.38785 -15.2566 L -4.33476 -15.2717 L -4.2816 -15.2867 L -4.2284 -15.3015 L -4.17515 -15.3161 L -4.12184 -15.3306 L -4.06849 -15.3448 L -4.01508 -15.3589 L -3.96163 -15.3727 L -3.90813 -15.3864 L -3.85458 -15.3999 L -3.80099 -15.4132 L -3.74735 -15.4264 L -3.69366 -15.4393 L -3.63993 -15.4521 L -3.42494 -15.5011 L -3.37099 -15.513 L -3.31701 -15.5246 L -3.26298 -15.536 L -3.20892 -15.5473 L -3.15482 -15.5584 L -3.10068 -15.5692 L -3.0465 -15.5799 L -2.99228 -15.5904 L -2.93803 -15.6008 L -2.88374 -15.6109 L -2.82942 -15.6208 L -2.77506 -15.6306 L -2.72067 -15.6401 L -2.66625 -15.6495 L -2.61179 -15.6587 L -2.55731 -15.6677 L -2.50279 -15.6765 L -2.47405 -15.6251 L -2.4368 -15.5751 L -2.39954 -15.525 L -2.36227 -15.4748 L -2.32499 -15.4246 L -2.28771 -15.3744 L -2.25041 -15.3241 L -2.21311 -15.2737 L -2.1758 -15.2233 L -2.13848 -15.1728 L -2.10116 -15.1223 L -2.06382 -15.0717 L -2.02648 -15.021 L -1.98913 -14.9703 L -1.95177 -14.9195 L -1.9144 -14.8687 L -1.87703 -14.8178 L -1.83965 -14.7668 L -1.80226 -14.7158 L -1.76486 -14.6647 L -1.72745 -14.6136 L -1.69004 -14.5623 L -1.65262 -14.511 L -1.61519 -14.4597 L -1.57775 -14.4083 L -1.54031 -14.3568 L -1.50286 -14.3052 L -1.4654 -14.2536 L -1.42793 -14.2019 L -1.39046 -14.1501 L -1.35298 -14.0983 L -1.31549 -14.0464 L -1.278 -13.9944 L -1.24049 -13.9423 L -1.20299 -13.8902 L -1.16547 -13.8379 L -1.12795 -13.7856 L -1.09042 -13.7333 L -1.05289 -13.6808 L -1.01535 -13.6283 L -0.9778 -13.5757 L -0.940247 -13.5229 L -0.902689 -13.4702 L -0.865124 -13.4173 L -0.827555 -13.3643 L -0.78998 -13.3113 L -0.752399 -13.2581 L -0.714814 -13.2049 L -0.677223 -13.1516 L -0.639628 -13.0982 L -0.602028 -13.0447 L -0.564424 -12.9911 L -0.526816 -12.9374 L -0.489204 -12.8836 L -0.451588 -12.8297 L -0.413969 -12.7758 L -0.376346 -12.7217 L -0.338721 -12.6675 L -0.301092 -12.6132 L -0.263461 -12.5588 L -0.225828 -12.5043 L -0.188193 -12.4497 L -0.150557 -12.395 L -0.112919 -12.3402 L -0.0752798 -12.2852 L -0.0376401 -12.2302 L -2.66454e-15 -12.175 L -1.80849e-15 -12.175 L 0.0376401 -12.2302 L 0.0752798 -12.2852 L 0.112919 -12.3402 L 0.150557 -12.395 L 0.188193 -12.4497 L 0.225828 -12.5043 L 0.263461 -12.5588 L 0.301092 -12.6132 L 0.338721 -12.6675 L 0.376346 -12.7217 L 0.413969 -12.7758 L 0.451588 -12.8297 L 0.489204 -12.8836 L 0.526816 -12.9374 L 0.564424 -12.9911 L 0.602028 -13.0447 L 0.639628 -13.0982 L 0.677223 -13.1516 L 0.714814 -13.2049 L 0.752399 -13.2581 L 0.78998 -13.3113 L 0.827555 -13.3643 L 0.865124 -13.4173 L 0.902689 -13.4702 L 0.940247 -13.5229 L 0.9778 -13.5757 L 1.01535 -13.6283 L 1.05289 -13.6808 L 1.09042 -13.7333 L 1.12795 -13.7856 L 1.16547 -13.8379 L 1.20299 -13.8902 L 1.24049 -13.9423 L 1.278 -13.9944 L 1.31549 -14.0464 L 1.35298 -14.0983 L 1.39046 -14.1501 L 1.42793 -14.2019 L 1.4654 -14.2536 L 1.50286 -14.3052 L 1.54031 -14.3568 L 1.57775 -14.4083 L 1.61519 -14.4597 L 1.65262 -14.511 L 1.69004 -14.5623 L 1.72745 -14.6136 L 1.76486 -14.6647 L 1.80226 -14.7158 L 1.83965 -14.7668 L 1.87703 -14.8178 L 1.9144 -14.8687 L 1.95177 -14.9195 L 1.98913 -14.9703 L 2.02648 -15.021 L 2.06382 -15.0717 L 2.10116 -15.1223 L 2.13848 -15.1728 L 2.1758 -15.2233 L 2.21311 -15.2737 L 2.25041 -15.3241 L 2.28771 -15.3744 L 2.32499 -15.4246 L 2.36227 -15.4748 L 2.39954 -15.525 L 2.4368 -15.5751 L 2.47405 -15.6251 L 2.50279 -15.6765 L 2.55731 -15.6677 L 2.61179 -15.6587 L 2.66625 -15.6495 L 2.72067 -15.6401 L 2.77506 -15.6306 L 2.82942 -15.6208 L 2.88374 -15.6109 L 2.93803 -15.6008 L 2.99228 -15.5904 L 3.0465 -15.5799 L 3.10068 -15.5692 L 3.15482 -15.5584 L 3.20892 -15.5473 L 3.26298 -15.536 L 3.31701 -15.5246 L 3.37099 -15.513 L 3.42494 -15.5011 L 3.63993 -15.4521 L 3.69366 -15.4393 L 3.74735 -15.4264 L 3.80099 -15.4132 L 3.85458 -15.3999 L 3.90813 -15.3864 L 3.96163 -15.3727 L 4.01508 -15.3589 L 4.06849 -15.3448 L 4.12184 -15.3306 L 4.17515 -15.3161 L 4.2284 -15.3015 L 4.2816 -15.2867 L 4.33476 -15.2717 L 4.38785 -15.2566 L 4.4409 -15.2412 L 4.49389 -15.2257 L 4.54683 -15.2099 L 4.55044 -15.1512 L 4.5623 -15.0899 L 4.57413 -15.0287 L 4.58595 -14.9673 L 4.59776 -14.9059 L 4.60954 -14.8444 L 4.62131 -14.7829 L 4.63307 -14.7214 L 4.64481 -14.6597 L 4.65653 -14.5981 L 4.66823 -14.5363 L 4.67991 -14.4746 L 4.69158 -14.4127 L 4.70322 -14.3508 L 4.71485 -14.2889 L 4.72646 -14.2268 L 4.73805 -14.1648 L 4.74962 -14.1026 L 4.76117 -14.0404 L 4.77269 -13.9782 L 4.7842 -13.9159 L 4.79569 -13.8535 L 4.80715 -13.791 L 4.81859 -13.7285 L 4.83001 -13.666 L 4.84141 -13.6033 L 4.85278 -13.5406 L 4.86413 -13.4779 L 4.87545 -13.415 L 4.88675 -13.3521 L 4.89803 -13.2892 L 4.90928 -13.2261 L 4.9205 -13.163 L 4.9317 -13.0998 L 4.94287 -13.0366 L 4.95401 -12.9732 L 4.96512 -12.9098 L 4.97621 -12.8464 L 4.98726 -12.7828 L 4.99829 -12.7192 L 5.00929 -12.6555 L 5.02025 -12.5917 L 5.03119 -12.5279 L 5.04209 -12.4639 L 5.05296 -12.3999 L 5.0638 -12.3358 L 5.07461 -12.2716 L 5.08538 -12.2074 L 5.09611 -12.143 L 5.10681 -12.0786 L 5.11747 -12.0141 L 5.1281 -11.9495 L 5.13869 -11.8848 L 5.14924 -11.82 L 5.15975 -11.7551 L 5.17022 -11.6902 L 5.18065 -11.6251 L 5.19104 -11.56 L 5.20139 -11.4947 L 5.21169 -11.4294 L 5.22195 -11.364 L 5.23216 -11.2984 L 5.24233 -11.2328 L 5.25246 -11.1671 L 5.26253 -11.1013 L 5.27256 -11.0353 L 5.28253 -10.9693 L 5.28253 -10.9693 L 5.34038 -11.0027 L 5.39818 -11.0359 L 5.45593 -11.0691 L 5.51363 -11.1022 L 5.57128 -11.1351 L 5.62888 -11.168 L 5.68643 -11.2008 L 5.74394 -11.2335 L 5.80139 -11.266 L 5.8588 -11.2985 L 5.91617 -11.3309 L 5.97348 -11.3633 L 6.03075 -11.3955 L 6.08798 -11.4276 L 6.14516 -11.4597 L 6.20229 -11.4917 L 6.25938 -11.5235 L 6.31642 -11.5554 L 6.37343 -11.5871 L 6.43038 -11.6187 L 6.4873 -11.6503 L 6.54417 -11.6818 L 6.60099 -11.7132 L 6.65778 -11.7445 L 6.71452 -11.7758 L 6.77122 -11.807 L 6.82788 -11.8381 L 6.8845 -11.8692 L 6.94108 -11.9001 L 6.99762 -11.931 L 7.05411 -11.9619 L 7.11057 -11.9927 L 7.16699 -12.0234 L 7.22337 -12.054 L 7.27971 -12.0846 L 7.33601 -12.1151 L 7.39227 -12.1455 L 7.4485 -12.1759 L 7.50468 -12.2062 L 7.56083 -12.2365 L 7.61695 -12.2667 L 7.67302 -12.2968 L 7.72906 -12.3269 L 7.78506 -12.357 L 7.84103 -12.3869 L 7.89696 -12.4168 L 7.95286 -12.4467 L 8.00872 -12.4765 L 8.06455 -12.5063 L 8.12034 -12.5359 L 8.1761 -12.5656 L 8.23182 -12.5952 L 8.28751 -12.6247 L 8.34317 -12.6542 L 8.39879 -12.6836 L 8.45438 -12.713 L 8.50994 -12.7424 L 8.56546 -12.7717 L 8.62096 -12.8009 L 8.67642 -12.8301 L 8.73185 -12.8592 L 8.78724 -12.8883 L 8.84261 -12.9174 L 8.89795 -12.9464 L 8.95325 -12.9754 L 9.00853 -13.0043 L 9.0567 -13.0381 L 9.102 -13.0065 L 9.14719 -12.9748 L 9.19227 -12.9429 L 9.23724 -12.9108 L 9.28209 -12.8786 L 9.32684 -12.8462 L 9.37147 -12.8137 L 9.41599 -12.781 L 9.46039 -12.7482 L 9.50468 -12.7152 L 9.54886 -12.6821 L 9.59291 -12.6488 L 9.63686 -12.6153 L 9.68068 -12.5817 L 9.72439 -12.548 L 9.76798 -12.5141 L 9.81146 -12.48 L 9.98387 -12.3425 L 10.0267 -12.3077 L 10.0695 -12.2728 L 10.1121 -12.2377 L 10.1546 -12.2024 L 10.197 -12.167 L 10.2393 -12.1315 L 10.2814 -12.0958 L 10.3234 -12.0599 L 10.3653 -12.024 L 10.4071 -11.9878 L 10.4487 -11.9516 L 10.4902 -11.9151 L 10.5316 -11.8786 L 10.5729 -11.8419 L 10.614 -11.805 L 10.655 -11.768 L 10.6959 -11.7309 L 10.6737 -11.6764 L 10.6578 -11.6161 L 10.6418 -11.5557 L 10.6259 -11.4953 L 10.6099 -11.4349 L 10.5938 -11.3744 L 10.5777 -11.3138 L 10.5616 -11.2533 L 10.5455 -11.1927 L 10.5293 -11.132 L 10.513 -11.0713 L 10.4967 -11.0106 L 10.4804 -10.9498 L 10.464 -10.889 L 10.4476 -10.8281 L 10.4312 -10.7672 L 10.4147 -10.7063 L 10.3982 -10.6453 L 10.3816 -10.5842 L 10.365 -10.5231 L 10.3483 -10.462 L 10.3316 -10.4008 L 10.3148 -10.3396 L 10.298 -10.2783 L 10.2811 -10.2169 L 10.2642 -10.1556 L 10.2473 -10.0941 L 10.2303 -10.0327 L 10.2132 -9.97114 L 10.1961 -9.90957 L 10.1789 -9.84794 L 10.1617 -9.78626 L 10.1444 -9.72453 L 10.1271 -9.66275 L 10.1097 -9.60091 L 10.0923 -9.53902 L 10.0748 -9.47708 L 10.0572 -9.41508 L 10.0396 -9.35303 L 10.022 -9.29092 L 10.0042 -9.22876 L 9.98643 -9.16654 L 9.96858 -9.10426 L 9.95066 -9.04192 L 9.93268 -8.97953 L 9.91463 -8.91708 L 9.89652 -8.85457 L 9.87834 -8.792 L 9.8601 -8.72937 L 9.84178 -8.66667 L 9.8234 -8.60392 L 9.80494 -8.5411 L 9.78641 -8.47823 L 9.76781 -8.41528 L 9.74914 -8.35228 L 9.73038 -8.28921 L 9.71156 -8.22607 L 9.69265 -8.16287 L 9.67367 -8.0996 L 9.6546 -8.03627 L 9.63546 -7.97287 L 9.61623 -7.90939 L 9.59692 -7.84585 L 9.57752 -7.78224 L 9.55803 -7.71856 L 9.53846 -7.65481 L 9.5188 -7.59099 L 9.5188 -7.59099 L 9.5854 -7.59596 L 9.65191 -7.60085 L 9.71833 -7.60568 L 9.78466 -7.61043 L 9.8509 -7.61512 L 9.91706 -7.61975 L 9.98313 -7.6243 L 10.0491 -7.6288 L 10.115 -7.63323 L 10.1809 -7.63759 L 10.2466 -7.6419 L 10.3123 -7.64615 L 10.3778 -7.65033 L 10.4433 -7.65446 L 10.5088 -7.65854 L 10.5741 -7.66255 L 10.6394 -7.66651 L 10.7046 -7.67042 L 10.7697 -7.67427 L 10.8347 -7.67807 L 10.8997 -7.68182 L 10.9646 -7.68551 L 11.0295 -7.68916 L 11.0942 -7.69276 L 11.1589 -7.69631 L 11.2235 -7.69981 L 11.2881 -7.70326 L 11.3526 -7.70667 L 11.417 -7.71003 L 11.4813 -7.71334 L 11.5456 -7.71662 L 11.6098 -7.71985 L 11.674 -7.72303 L 11.7381 -7.72618 L 11.8021 -7.72928 L 11.8661 -7.73234 L 11.93 -7.73536 L 11.9938 -7.73834 L 12.0576 -7.74128 L 12.1213 -7.74418 L 12.185 -7.74705 L 12.2486 -7.74988 L 12.3121 -7.75267 L 12.3756 -7.75542 L 12.439 -7.75814 L 12.5024 -7.76082 L 12.5657 -7.76347 L 12.629 -7.76609 L 12.6922 -7.76867 L 12.7553 -7.77121 L 12.8184 -7.77373 L 12.8815 -7.77621 L 12.9444 -7.77866 L 13.0074 -7.78108 L 13.0703 -7.78347 L 13.1331 -7.78583 L 13.1959 -7.78815 L 13.2586 -7.79045 L 13.3213 -7.79272 L 13.384 -7.79496 L 13.4465 -7.79717 L 13.5091 -7.79935 L 13.5716 -7.80151 L 13.634 -7.80364 L 13.6964 -7.80574 L 13.7588 -7.80781 L 13.8168 -7.81736 L 13.8439 -7.76925 L 13.8709 -7.72104 L 13.8976 -7.67274 L 13.9243 -7.62435 L 13.9507 -7.57587 L 13.977 -7.52729 L 14.0031 -7.47863 L 14.029 -7.42987 L 14.0548 -7.38102 L 14.0803 -7.33209 L 14.1058 -7.28306 L 14.131 -7.23395 L 14.1561 -7.18475 L 14.181 -7.13546 L 14.2057 -7.08608 L 14.2303 -7.03662 L 14.2547 -6.98708 L 14.3504 -6.7884 L 14.3739 -6.73844 L 14.3973 -6.68839 L 14.4204 -6.63827 L 14.4434 -6.58807 L 14.4663 -6.53778 L 14.4889 -6.48742 L 14.5114 -6.43698 L 14.5337 -6.38646 L 14.5558 -6.33586 L 14.5778 -6.28519 L 14.5996 -6.23444 L 14.6212 -6.18361 L 14.6426 -6.13271 L 14.6638 -6.08174 L 14.6849 -6.03069 L 14.7058 -5.97957 L 14.7265 -5.92838 L 14.6828 -5.88894 L 14.6423 -5.84148 L 14.6018 -5.79401 L 14.5612 -5.74652 L 14.5206 -5.699 L 14.4799 -5.65147 L 14.4391 -5.60392 L 14.3983 -5.55634 L 14.3574 -5.50875 L 14.3165 -5.46113 L 14.2756 -5.4135 L 14.2345 -5.36584 L 14.1935 -5.31816 L 14.1523 -5.27046 L 14.1111 -5.22274 L 14.0699 -5.175 L 14.0286 -5.12724 L 13.9872 -5.07945 L 13.9458 -5.03164 L 13.9043 -4.98381 L 13.8628 -4.93596 L 13.8212 -4.88809 L 13.7795 -4.8402 L 13.7377 -4.79228 L 13.6959 -4.74434 L 13.6541 -4.69638 L 13.6122 -4.64839 L 13.5702 -4.60038 L 13.5281 -4.55235 L 13.486 -4.5043 L 13.4437 -4.45622 L 13.4015 -4.40812 L 13.3591 -4.36 L 13.3167 -4.31185 L 13.2742 -4.26368 L 13.2317 -4.21548 L 13.189 -4.16726 L 13.1463 -4.11902 L 13.1035 -4.07076 L 13.0606 -4.02247 L 13.0177 -3.97415 L 12.9747 -3.92581 L 12.9316 -3.87745 L 12.8884 -3.82906 L 12.8451 -3.78065 L 12.8018 -3.73221 L 12.7583 -3.68375 L 12.7148 -3.63526 L 12.6712 -3.58675 L 12.6275 -3.53821 L 12.5837 -3.48965 L 12.5398 -3.44107 L 12.4958 -3.39245 L 12.4517 -3.34382 L 12.4076 -3.29515 L 12.3633 -3.24646 L 12.319 -3.19775 L 12.2745 -3.14901 L 12.23 -3.10024 L 12.1853 -3.05145 L 12.1405 -3.00264 L 12.0957 -2.95379 L 12.0507 -2.90492 L 12.0056 -2.85603 L 11.9604 -2.80711 L 11.9152 -2.75816 L 11.8697 -2.70919 L 11.8697 -2.70919 L 11.9319 -2.68477 L 11.994 -2.66033 L 12.0559 -2.63586 L 12.1177 -2.61136 L 12.1794 -2.58684 L 12.241 -2.5623 L 12.3026 -2.53774 L 12.364 -2.51316 L 12.4253 -2.48855 L 12.4865 -2.46393 L 12.5476 -2.43928 L 12.6086 -2.41462 L 12.6695 -2.38994 L 12.7303 -2.36524 L 12.791 -2.34052 L 12.8516 -2.31578 L 12.9121 -2.29103 L 12.9726 -2.26626 L 13.0329 -2.24148 L 13.0932 -2.21668 L 13.1533 -2.19187 L 13.2134 -2.16704 L 13.2734 -2.14219 L 13.3333 -2.11734 L 13.3931 -2.09247 L 13.4529 -2.06758 L 13.5125 -2.04269 L 13.5721 -2.01778 L 13.6316 -1.99286 L 13.691 -1.96793 L 13.7503 -1.94298 L 13.8096 -1.91803 L 13.8688 -1.89306 L 13.9279 -1.86809 L 13.9869 -1.8431 L 14.0459 -1.81811 L 14.1048 -1.7931 L 14.1636 -1.76809 L 14.2223 -1.74307 L 14.281 -1.71804 L 14.3396 -1.693 L 14.3981 -1.66795 L 14.4566 -1.64289 L 14.515 -1.61783 L 14.5733 -1.59276 L 14.6316 -1.56768 L 14.6897 -1.54259 L 14.7479 -1.5175 L 14.8059 -1.4924 L 14.8639 -1.4673 L 14.9219 -1.44219 L 14.9798 -1.41707 L 15.0376 -1.39195 L 15.0953 -1.36682 L 15.153 -1.34168 L 15.2107 -1.31654 L 15.2682 -1.2914 L 15.3258 -1.26625 L 15.3832 -1.2411 L 15.4406 -1.21594 L 15.498 -1.19077 L 15.5553 -1.16561 L 15.6125 -1.14043 L 15.6697 -1.11526 L 15.7268 -1.09008 L 15.7839 -1.0649 L 15.8403 -1.0483 L 15.8439 -0.993195 L 15.8473 -0.938073 L 15.8504 -0.88294 L 15.8534 -0.827796 L 15.8562 -0.772643 L 15.8588 -0.71748 L 15.8612 -0.662308 L 15.8634 -0.607128 L 15.8654 -0.551941 L 15.8672 -0.496748 L 15.8689 -0.441548 L 15.8703 -0.386343 L 15.8715 -0.331133 L 15.8726 -0.275919 L 15.8735 -0.220702 L 15.8741 -0.165482 L 15.8746 -0.110261Z"
id="path1" />
</g>
</svg>
