<?xml version="1.0" encoding="UTF-8" standalone="no"?>
<svg version="1.1">
<g
style="fill:none;stroke:#000000;stroke-opacity:1;stroke-width:0.1">
<path d="M 15.9999 0.0599196 L 15.9996 0.113845 L 15.9991 0.16777 L 15.9985 0.221692 L 15.9976 0.275612 L 15.9966 0.329529 L 15.9954 0.383442 L 15.994 0.437351 L 15.9925 0.491254 L 15.9907 0.545152 L 15.9888 0.599044 L 15.9867 0.65293 L 15.9844 0.706807 L 15.9819 0.760677 L 15.9793 0.814538 L 15.9764 0.86839 L 15.9734 0.922232 L 15.9702 0.976063 L 15.9668 1.02988 L 15.9633 1.08369 L 15.9081 1.09984 L 15.8523 1.12465 L 15.7965 1.14946 L 15.7406 1.17426 L 15.6846 1.19906 L 15.6286 1.22385 L 15.5725 1.24865 L 15.5164 1.27343 L 15.4603 1.29821 L 15.404 1.32299 L 15.3477 1.34776 L 15.2914 1.37253 L 15.235 1.39729 L 15.1786 1.42205 L 15.122 1.4468 L 15.0655 1.47155 L 15.0088 1.49629 L 14.9522 1.52102 L 14.8954 1.54575 L 14.8386 1.57047 L 14.7817 1.59519 L 14.7248 1.6199 L 14.6678 1.6446 L 14.6107 1.66929 L 14.5536 1.69398 L 14.4964 1.71866 L 14.4391 1.74333 L 14.3818 1.76799 L 14.3244 1.79265 L 14.2669 1.81729 L 14.2094 1.84193 L 14.1518 1.86656 L 14.0941 1.89118 L 14.0364 1.91579 L 13.9785 1.94039 L 13.9206 1.96498 L 13.8627 1.98956 L 13.8046 2.01412 L 13.7465 2.03868 L 13.6883 2.06323 L 13.63 2.08776 L 13.5717 2.11228 L 13.5133 2.13679 L 13.4548 2.16129 L 13.3962 2.18577 L 13.3375 2.21024 L 13.2787 2.2347 L 13.2199 2.25914 L 13.161 2.28357 L 13.1019 2.30798 L 13.0428 2.33238 L 12.9837 2.35676 L 12.9244 2.38113 L 12.865 2.40548 L 12.8056 2.42981 L 12.746 2.45412 L 12.6864 2.47842 L 12.6266 2.5027 L 12.5668 2.52696 L 12.5069 2.5512 L 12.4468 2.57542 L 12.3867 2.59962 L 12.3265 2.6238 L 12.2661 2.64795 L 12.2057 2.67209 L 12.1452 2.6962 L 12.0845 2.72029 L 12.0238 2.74435 L 12.0238 2.74435 L 12.0681 2.79239 L 12.1123 2.8404 L 12.1563 2.88839 L 12.2003 2.93636 L 12.2442 2.9843 L 12.288 3.03222 L 12.3316 3.08011 L 12.3752 3.12797 L 12.4187 3.17582 L 12.4621 3.22363 L 12.5054 3.27143 L 12.5486 3.3192 L 12.5917 3.36694 L 12.6347 3.41466 L 12.6776 3.46236 L 12.7204 3.51003 L 12.7632 3.55768 L 12.8058 3.6053 L 12.8484 3.6529 L 12.8909 3.70048 L 12.9333 3.74803 L 12.9756 3.79556 L 13.0179 3.84306 L 13.0601 3.89054 L 13.1021 3.938 L 13.1442 3.98544 L 13.1861 4.03285 L 13.228 4.08024 L 13.2697 4.1276 L 13.3114 4.17494 L 13.3531 4.22226 L 13.3946 4.26956 L 13.4361 4.31683 L 13.4776 4.36408 L 13.5189 4.41131 L 13.5602 4.45852 L 13.6014 4.5057 L 13.6426 4.55286 L 13.6836 4.6 L 13.7247 4.64712 L 13.7656 4.69421 L 13.8065 4.74129 L 13.8473 4.78834 L 13.8881 4.83537 L 13.9288 4.88238 L 13.9694 4.92937 L 14.01 4.97633 L 14.0505 5.02328 L 14.091 5.0702 L 14.1314 5.1171 L 14.1717 5.16398 L 14.212 5.21085 L 14.2522 5.25769 L 14.2924 5.30451 L 14.3325 5.35131 L 14.3726 5.39808 L 14.4126 5.44484 L 14.4526 5.49158 L 14.4925 5.5383 L 14.5323 5.585 L 14.5721 5.63168 L 14.6119 5.67834 L 14.6516 5.72498 L 14.6912 5.7716 L 14.7308 5.8182 L 14.7704 5.86478 L 14.8099 5.91135 L 14.8526 5.94983 L 14.8325 5.99985 L 14.8122 6.04981 L 14.7917 6.0997 L 14.771 6.14952 L 14.7502 6.19926 L 14.7292 6.24894 L 14.7081 6.29855 L 14.6868 6.34809 L 14.6653 6.39755 L 14.6437 6.44694 L 14.6219 6.49626 L 14.5999 6.54551 L 14.5777 6.59468 L 14.5554 6.64377 L 14.5329 6.69279 L 14.5103 6.74174 L 14.4875 6.7906 L 14.4645 6.83939 L 14.4414 6.88811 L 14.3894 6.99608 L 14.3657 7.04454 L 14.3419 7.09291 L 14.3179 7.14121 L 14.2938 7.18943 L 14.2695 7.23756 L 14.245 7.28562 L 14.2204 7.33359 L 14.1956 7.38147 L 14.1706 7.42927 L 14.1455 7.47699 L 14.1202 7.52463 L 14.0948 7.57217 L 14.0692 7.61964 L 14.0434 7.66701 L 14.0175 7.7143 L 13.9914 7.7615 L 13.9652 7.80861 L 13.9388 7.85564 L 13.9122 7.90257 L 13.8555 7.89319 L 13.7945 7.89133 L 13.7334 7.88945 L 13.6723 7.88754 L 13.6111 7.88561 L 13.5499 7.88365 L 13.4886 7.88166 L 13.4273 7.87965 L 13.3659 7.8776 L 13.3045 7.87553 L 13.2431 7.87343 L 13.1816 7.8713 L 13.12 7.86914 L 13.0584 7.86696 L 12.9968 7.86474 L 12.935 7.86249 L 12.8733 7.86021 L 12.8115 7.85789 L 12.7496 7.85555 L 12.6877 7.85317 L 12.6257 7.85076 L 12.5637 7.84832 L 12.5016 7.84584 L 12.4395 7.84333 L 12.3773 7.84079 L 12.3151 7.83821 L 12.2528 7.83559 L 12.1904 7.83293 L 12.128 7.83024 L 12.0656 7.82751 L 12.003 7.82475 L 11.9405 7.82194 L 11.8778 7.8191 L 11.8151 7.81622 L 11.7523 7.81329 L 11.6895 7.81033 L 11.6266 7.80732 L 11.5637 7.80427 L 11.5006 7.80118 L 11.4376 7.79804 L 11.3744 7.79486 L 11.3112 7.79164 L 11.2479 7.78837 L 11.1846 7.78505 L 11.1212 7.78169 L 11.0577 7.77828 L 10.9941 7.77482 L 10.9305 7.77131 L 10.8668 7.76775 L 10.8031 7.76414 L 10.7392 7.76048 L 10.6753 7.75677 L 10.6113 7.753 L 10.5473 7.74918 L 10.4832 7.74531 L 10.419 7.74138 L 10.3547 7.73739 L 10.2903 7.73334 L 10.2259 7.72924 L 10.1614 7.72507 L 10.0968 7.72085 L 10.0321 7.71656 L 9.96735 7.71222 L 9.90251 7.7078 L 9.83759 7.70333 L 9.77259 7.69879 L 9.7075 7.69418 L 9.64233 7.6895 L 9.64233 7.6895 L 9.66139 7.752 L 9.68037 7.81443 L 9.69926 7.87679 L 9.71807 7.93909 L 9.7368 8.00132 L 9.75545 8.06348 L 9.77402 8.12558 L 9.79251 8.18761 L 9.81092 8.24958 L 9.82926 8.31149 L 9.84753 8.37333 L 9.86572 8.43511 L 9.88384 8.49683 L 9.90188 8.55848 L 9.91986 8.62008 L 9.93777 8.68162 L 9.95561 8.74309 L 9.97338 8.80451 L 9.99109 8.86587 L 10.0087 8.92717 L 10.0263 8.98842 L 10.0438 9.0496 L 10.0613 9.11073 L 10.0787 9.17181 L 10.096 9.23283 L 10.1133 9.29379 L 10.1305 9.3547 L 10.1476 9.41556 L 10.1647 9.47636 L 10.1818 9.53711 L 10.1987 9.59781 L 10.2157 9.65846 L 10.2325 9.71905 L 10.2494 9.7796 L 10.2661 9.84009 L 10.2828 9.90053 L 10.2995 9.96093 L 10.3161 10.0213 L 10.3327 10.0816 L 10.3492 10.1418 L 10.3656 10.202 L 10.3821 10.2622 L 10.3984 10.3223 L 10.4147 10.3823 L 10.431 10.4423 L 10.4472 10.5023 L 10.4634 10.5622 L 10.4796 10.6221 L 10.4957 10.6819 L 10.5117 10.7417 L 10.5277 10.8015 L 10.5437 10.8612 L 10.5596 10.9208 L 10.5755 10.9804 L 10.5913 11.04 L 10.6071 11.0995 L 10.6229 11.159 L 10.6386 11.2185 L 10.6543 11.2779 L 10.6699 11.3373 L 10.6855 11.3966 L 10.7011 11.4559 L 10.7167 11.5151 L 10.7321 11.5743 L 10.7476 11.6335 L 10.763 11.6926 L 10.7784 11.7517 L 10.8002 11.8049 L 10.7603 11.8412 L 10.7204 11.8774 L 10.6803 11.9135 L 10.6401 11.9494 L 10.5997 11.9852 L 10.5593 12.0209 L 10.5187 12.0564 L 10.478 12.0918 L 10.4372 12.127 L 10.3963 12.1621 L 10.3552 12.1971 L 10.314 12.2319 L 10.2728 12.2666 L 10.2314 12.3012 L 10.1898 12.3356 L 10.1482 12.3699 L 10.1065 12.404 L 10.0646 12.438 L 10.0226 12.4719 L 9.92892 12.5466 L 9.88658 12.58 L 9.84412 12.6132 L 9.80155 12.6463 L 9.75887 12.6793 L 9.71608 12.7121 L 9.67318 12.7448 L 9.63017 12.7773 L 9.58706 12.8097 L 9.54383 12.8419 L 9.50049 12.874 L 9.45705 12.906 L 9.41349 12.9378 L 9.36984 12.9694 L 9.32607 13.0009 L 9.2822 13.0323 L 9.23822 13.0635 L 9.19414 13.0946 L 9.14995 13.1255 L 9.10566 13.1562 L 9.05865 13.1232 L 9.00446 13.095 L 8.95025 13.0668 L 8.896 13.0386 L 8.84173 13.0103 L 8.78742 12.982 L 8.73309 12.9536 L 8.67872 12.9252 L 8.62432 12.8967 L 8.5699 12.8682 L 8.51544 12.8397 L 8.46095 12.8111 L 8.40643 12.7824 L 8.35187 12.7537 L 8.29729 12.725 L 8.24267 12.6962 L 8.18802 12.6673 L 8.13333 12.6384 L 8.07862 12.6095 L 8.02387 12.5805 L 7.96908 12.5514 L 7.91426 12.5223 L 7.85941 12.4931 L 7.80452 12.4639 L 7.7496 12.4346 L 7.69465 12.4053 L 7.63966 12.3759 L 7.58463 12.3465 L 7.52957 12.317 L 7.47447 12.2874 L 7.41933 12.2578 L 7.36416 12.2281 L 7.30895 12.1984 L 7.25371 12.1685 L 7.19842 12.1387 L 7.1431 12.1087 L 7.08774 12.0787 L 7.03234 12.0487 L 6.97691 12.0186 L 6.92143 11.9884 L 6.86592 11.9581 L 6.81036 11.9278 L 6.75477 11.8974 L 6.69914 11.8669 L 6.64346 11.8363 L 6.58775 11.8057 L 6.53199 11.775 L 6.4762 11.7443 L 6.42036 11.7134 L 6.36448 11.6825 L 6.30855 11.6515 L 6.25259 11.6205 L 6.19658 11.5893 L 6.14053 11.5581 L 6.08443 11.5268 L 6.02829 11.4954 L 5.97211 11.4639 L 5.91588 11.4323 L 5.85961 11.4006 L 5.80329 11.3689 L 5.74693 11.3371 L 5.69052 11.3052 L 5.63407 11.2731 L 5.57757 11.241 L 5.52102 11.2088 L 5.46442 11.1765 L 5.40778 11.1441 L 5.35109 11.1116 L 5.35109 11.1116 L 5.34115 11.1762 L 5.33116 11.2407 L 5.32112 11.3051 L 5.31104 11.3694 L 5.30091 11.4336 L 5.29074 11.4977 L 5.28053 11.5617 L 5.27027 11.6256 L 5.25998 11.6894 L 5.24964 11.7531 L 5.23926 11.8168 L 5.22885 11.8803 L 5.21839 11.9438 L 5.2079 12.0072 L 5.19737 12.0705 L 5.18681 12.1337 L 5.17621 12.1968 L 5.16557 12.2599 L 5.15491 12.3228 L 5.1442 12.3857 L 5.13347 12.4485 L 5.1227 12.5113 L 5.1119 12.5739 L 5.10106 12.6365 L 5.0902 12.699 L 5.07931 12.7614 L 5.06839 12.8237 L 5.05744 12.886 L 5.04645 12.9482 L 5.03545 13.0103 L 5.02441 13.0724 L 5.01335 13.1344 L 5.00226 13.1963 L 4.99114 13.2581 L 4.98 13.3199 L 4.96883 13.3816 L 4.95764 13.4433 L 4.94642 13.5048 L 4.93518 13.5664 L 4.92392 13.6278 L 4.91263 13.6892 L 4.90132 13.7505 L 4.88999 13.8117 L 4.87863 13.8729 L 4.86725 13.9341 L 4.85586 13.9951 L 4.84444 14.0561 L 4.833 14.1171 L 4.82154 14.178 L 4.81006 14.2388 L 4.79856 14.2996 L 4.78704 14.3603 L 4.7755 14.421 L 4.76395 14.4816 L 4.75237 14.5421 L 4.74078 14.6026 L 4.72917 14.663 L 4.71754 14.7234 L 4.70589 14.7838 L 4.69423 14.844 L 4.68255 14.9042 L 4.67086 14.9644 L 4.65915 15.0245 L 4.64742 15.0846 L 4.63568 15.1446 L 4.62392 15.2046 L 4.61215 15.2645 L 4.60868 15.3219 L 4.55701 15.3373 L 4.5053 15.3526 L 4.45353 15.3677 L 4.4017 15.3826 L 4.34983 15.3974 L 4.29791 15.4119 L 4.24595 15.4263 L 4.19393 15.4406 L 4.14186 15.4546 L 4.08975 15.4685 L 4.03759 15.4822 L 3.98539 15.4957 L 3.93314 15.509 L 3.88085 15.5222 L 3.82851 15.5352 L 3.77613 15.548 L 3.7237 15.5607 L 3.67124 15.5731 L 3.61873 15.5854 L 3.50189 15.6121 L 3.44925 15.6238 L 3.39658 15.6353 L 3.34386 15.6467 L 3.2911 15.6579 L 3.23831 15.6689 L 3.18548 15.6797 L 3.13262 15.6903 L 3.07972 15.7008 L 3.02678 15.7111 L 2.97381 15.7212 L 2.92081 15.7311 L 2.86777 15.7409 L 2.8147 15.7505 L 2.7616 15.7599 L 2.70847 15.7691 L 2.65531 15.7781 L 2.60211 15.787 L 2.54889 15.7957 L 2.49564 15.8042 L 2.46762 15.754 L 2.43102 15.7051 L 2.3944 15.6562 L 2.35778 15.6072 L 2.32116 15.5582 L 2.28452 15.5091 L 2.24788 15.4599 L 2.21122 15.4108 L 2.17456 15.3615 L 2.1379 15.3122 L 2.10122 15.2629 L 2.06454 15.2134 L 2.02785 15.164 L 1.99115 15.1144 L 1.95444 15.0649 L 1.91773 15.0152 L 1.88101 14.9655 L 1.84428 14.9157 L 1.80754 14.8659 L 1.7708 14.816 L 1.73405 14.7661 L 1.69729 14.7161 L 1.66052 14.666 L 1.62375 14.6158 L 1.58697 14.5656 L 1.55018 14.5154 L 1.51339 14.465 L 1.47658 14.4146 L 1.43977 14.3642 L 1.40296 14.3136 L 1.36614 14.263 L 1.32931 14.2123 L 1.29247 14.1616 L 1.25563 14.1107 L 1.21878 14.0598 L 1.18192 14.0089 L 1.14506 13.9578 L 1.10819 13.9067 L 1.07132 13.8555 L 1.03444 13.8042 L 0.997555 13.7529 L 0.960663 13.7015 L 0.923766 13.6499 L 0.886863 13.5983 L 0.849955 13.5467 L 0.813042 13.4949 L 0.776124 13.4431 L 0.739201 13.3911 L 0.702273 13.3391 L 0.66534 13.287 L 0.628403 13.2348 L 0.591462 13.1826 L 0.554517 13.1302 L 0.517568 13.0777 L 0.480615 13.0252 L 0.443659 12.9725 L 0.406699 12.9198 L 0.369737 12.867 L 0.332772 12.814 L 0.295804 12.761 L 0.258834 12.7078 L 0.221861 12.6546 L 0.184887 12.6013 L 0.147912 12.5478 L 0.110935 12.4943 L 0.0739571 12.4406 L 0.0369787 12.3869 L 4.44089e-16 12.333 L 1.06627e-15 12.333 L -0.0369787 12.3869 L -0.0739571 12.4406 L -0.110935 12.4943 L -0.147912 12.5478 L -0.184887 12.6013 L -0.221861 12.6546 L -0.258834 12.7078 L -0.295804 12.761 L -0.332772 12.814 L -0.369737 12.867 L -0.406699 12.9198 L -0.443659 12.9725 L -0.480615 13.0252 L -0.517568 13.0777 L -0.554517 13.1302 L -0.591462 13.1826 L -0.628403 13.2348 L -0.66534 13.287 L -0.702273 13.3391 L -0.739201 13.3911 L -0.776124 13.4431 L -0.813042 13.4949 L -0.849955 13.5467 L -0.886863 13.5983 L -0.923766 13.6499 L -0.960663 13.7015 L -0.997555 13.7529 L -1.03444 13.8042 L -1.07132 13.8555 L -1.10819 13.9067 L -1.14506 13.9578 L -1.18192 14.0089 L -1.21878 14.0598 L -1.25563 14.1107 L -1.29247 14.1616 L -1.32931 14.2123 L -1.36614 14.263 L -1.40296 14.3136 L -1.43977 14.3642 L -1.47658 14.4146 L -1.51339 14.465 L -1.55018 14.5154 L -1.58697 14.5656 L -1.62375 14.6158 L -1.66052 14.666 L -1.69729 14.7161 L -1.73405 14.7661 L -1.7708 14.816 L -1.80754 14.8659 L -1.84428 14.9157 L -1.88101 14.9655 L -1.91773 15.0152 L -1.95444 15.0649 L -1.99115 15.1144 L -2.02785 15.164 L -2.06454 15.2134 L -2.10122 15.2629 L -2.1379 15.3122 L -2.17456 15.3615 L -2.21122 15.4108 L -2.24788 15.4599 L -2.28452 15.5091 L -2.32116 15.5582 L -2.35778 15.6072 L -2.3944 15.6562 L -2.43102 15.7051 L -2.46762 15.754 L -2.49564 15.8042 L -2.54889 15.7957 L -2.60211 15.787 L -2.65531 15.7781 L -2.70847 15.7691 L -2.7616 15.7599 L -2.8147 15.7505 L -2.86777 15.7409 L -2.92081 15.7311 L -2.97381 15.7212 L -3.02678 15.7111 L -3.07972 15.7008 L -3.13262 15.6903 L -3.18548 15.6797 L -3.23831 15.6689 L -3.2911 15.6579 L -3.34386 15.6467 L -3.39658 15.6353 L -3.44925 15.6238 L -3.50189 15.6121 L -3.61873 15.5854 L -3.67124 15.5731 L -3.7237 15.5607 L -3.77613 15.548 L -3.82851 15.5352 L -3.88085 15.5222 L -3.93314 15.509 L -3.98539 15.4957 L -4.03759 15.4822 L -4.08975 15.4685 L -4.14186 15.4546 L -4.19393 15.4406 L -4.24595 15.4263 L -4.29791 15.4119 L -4.34983 15.3974 L -4.4017 15.3826 L -4.45353 15.3677 L -4.5053 15.3526 L -4.55701 15.3373 L -4.60868 15.3219 L -4.61215 15.2645 L -4.62392 15.2046 L -4.63568 15.1446 L -4.64742 15.0846 L -4.65915 15.0245 L -4.67086 14.9644 L -4.68255 14.9042 L -4.69423 14.844 L -4.70589 14.7838 L -4.71754 14.7234 L -4.72917 14.663 L -4.74078 14.6026 L -4.75237 14.5421 L -4.76395 14.4816 L -4.7755 14.421 L -4.78704 14.3603 L -4.79856 14.2996 L -4.81006 14.2388 L -4.82154 14.178 L -4.833 14.1171 L -4.84444 14.0561 L -4.85586 13.9951 L -4.86725 13.9341 L -4.87863 13.8729 L -4.88999 13.8117 L -4.90132 13.7505 L -4.91263 13.6892 L -4.92392 13.6278 L -4.93518 13.5664 L -4.94642 13.5048 L -4.95764 13.4433 L -4.96883 13.3816 L -4.98 13.3199 L -4.99114 13.2581 L -5.00226 13.1963 L -5.01335 13.1344 L -5.02441 13.0724 L -5.03545 13.0103 L -5.04645 12.9482 L -5.05744 12.886 L -5.06839 12.8237 L -5.07931 12.7614 L -5.0902 12.699 L -5.10106 12.6365 L -5.1119 12.5739 L -5.1227 12.5113 L -5.13347 12.4485 L -5.1442 12.3857 L -5.15491 12.3228 L -5.16557 12.2599 L -5.17621 12.1968 L -5.18681 12.1337 L -5.19737 12.0705 L -5.2079 12.0072 L -5.21839 11.9438 L -5.22885 11.8803 L -5.23926 11.8168 L -5.24964 11.7531 L -5.25998 11.6894 L -5.27027 11.6256 L -5.28053 11.5617 L -5.29074 11.4977 L -5.30091 11.4336 L -5.31104 11.3694 L -5.32112 11.3051 L -5.33116 11.2407 L -5.34115 11.1762 L -5.35109 11.1116 L -5.35109 11.1116 L -5.40778 11.1441 L -5.46442 11.1765 L -5.52102 11.2088 L -5.57757 11.241 L -5.63407 11.2731 L -5.69052 11.3052 L -5.74693 11.3371 L -5.80329 11.3689 L -5.85961 11.4006 L -5.91588 11.4323 L -5.97211 11.4639 L -6.02829 11.4954 L -6.08443 11.5268 L -6.14053 11.5581 L -6.19658 11.5893 L -6.25259 11.6205 L -6.30855 11.6515 L -6.36448 11.6825 L -6.42036 11.7134 L -6.4762 11.7443 L -6.53199 11.775 L -6.58775 11.8057 L -6.64346 11.8363 L -6.69914 11.8669 L -6.75477 11.8974 L -6.81036 11.9278 L -6.86592 11.9581 L -6.92143 11.9884 L -6.97691 12.0186 L -7.03234 12.0487 L -7.08774 12.0787 L -7.1431 12.1087 L -7.19842 12.1387 L -7.25371 12.1685 L -7.30895 12.1984 L -7.36416 12.2281 L -7.41933 12.2578 L -7.47447 12.2874 L -7.52957 12.317 L -7.58463 12.3465 L -7.63966 12.3759 L -7.69465 12.4053 L -7.7496 12.4346 L -7.80452 12.4639 L -7.85941 12.4931 L -7.91426 12.5223 L -7.96908 12.5514 L -8.02387 12.5805 L -8.07862 12.6095 L -8.13333 12.6384 L -8.18802 12.6673 L -8.24267 12.6962 L -8.29729 12.725 L -8.35187 12.7537 L -8.40643 12.7824 L -8.46095 12.8111 L -8.51544 12.8397 L -8.5699 12.8682 L -8.62432 12.8967 L -8.67872 12.9252 L -8.73309 12.9536 L -8.78742 12.982 L -8.84173 13.0103 L -8.896 13.0386 L -8.95025 13.0668 L -9.00446 13.095 L -9.05865 13.1232 L -9.10566 13.1562 L -9.14995 13.1255 L -9.19414 13.0946 L -9.23822 13.0635 L -9.2822 13.0323 L -9.32607 13.0009 L -9.36984 12.9694 L -9.41349 12.9378 L -9.45705 12.906 L -9.50049 12.874 L -9.54383 12.8419 L -9.58706 12.8097 L -9.63017 12.7773 L -9.67318 12.7448 L -9.71608 12.7121 L -9.75887 12.6793 L -9.80155 12.6463 L -9.84412 12.6132 L -9.88658 12.58 L -9.92892 12.5466 L -10.0226 12.4719 L -10.0646 12.438 L -10.1065 12.404 L -10.1482 12.3699 L -10.1898 12.3356 L -10.2314 12.3012 L -10.2728 12.2666 L -10.314 12.2319 L -10.3552 12.1971 L -10.3963 12.1621 L -10.4372 12.127 L -10.478 12.0918 L -10.5187 12.0564 L -10.5593 12.0209 L -10.5997 11.9852 L -10.6401 11.9494 L -10.6803 11.9135 L -10.7204 11.8774 L -10.7603 11.8412 L -10.8002 11.8049 L -10.7784 11.7517 L -10.763 11.6926 L -10.7476 11.6335 L -10.7321 11.5743 L -10.7167 11.5151 L -10.7011 11.4559 L -10.6855 11.3966 L -10.6699 11.3373 L -10.6543 11.2779 L -10.6386 11.2185 L -10.6229 11.159 L -10.6071 11.0995 L -10.5913 11.04 L -10.5755 10.9804 L -10.5596 10.9208 L -10.5437 10.8612 L -10.5277 10.8015 L -10.5117 10.7417 L -10.4957 10.6819 L -10.4796 10.6221 L -10.4634 10.5622 L -10.4472 10.5023 L -10.431 10.4423 L -10.4147 10.3823 L -10.3984 10.3223 L -10.3821 10.2622 L -10.3656 10.202 L -10.3492 10.1418 L -10.3327 10.0816 L -10.3161 10.0213 L -10.2995 9.96093 L -10.2828 9.90053 L -10.2661 9.84009 L -10.2494 9.7796 L -10.2325 9.71905 L -10.2157 9.65846 L -10.1987 9.59781 L -10.1818 9.53711 L -10.1647 9.47636 L -10.1476 9.41556 L -10.1305 9.3547 L -10.1133 9.29379 L -10.096 9.23283 L -10.0787 9.17181 L -10.0613 9.11073 L -10.0438 9.0496 L -10.0263 8.98842 L -10.0087 8.92717 L -9.99109 8.86587 L -9.97338 8.80451 L -9.95561 8.74309 L -9.93777 8.68162 L -9.91986 8.62008 L -9.90188 8.55848 L -9.88384 8.49683 L -9.86572 8.43511 L -9.84753 8.37333 L -9.82926 8.31149 L -9.81092 8.24958 L -9.79251 8.18761 L -9.77402 8.12558 L -9.75545 8.06348 L -9.7368 8.00132 L -9.71807 7.93909 L -9.69926 7.87679 L -9.68037 7.81443 L -9.66139 7.752 L -9.64233 7.6895 L -9.64233 7.6895 L -9.7075 7.69418 L -9.77259 7.69879 L -9.83759 7.70333 L -9.90251 7.7078 L -9.96735 7.71222 L -10.0321 7.71656 L -10.0968 7.72085 L -10.1614 7.72507 L -10.2259 7.72924 L -10.2903 7.73334 L -10.3547 7.73739 L -10.419 7.74138 L -10.4832 7.74531 L -10.5473 7.74918 L -10.6113 7.753 L -10.6753 7.75677 L -10.7392 7.76048 L -10.8031 7.76414 L -10.8668 7.76775 L -10.9305 7.77131 L -10.9941 7.77482 L -11.0577 7.77828 L -11.1212 7.78169 L -11.1846 7.78505 L -11.2479 7.78837 L -11.3112 7.79164 L -11.3744 7.79486 L -11.4376 7.79804 L -11.5006 7.80118 L -11.5637 7.80427 L -11.6266 7.80732 L -11.6895 7.81033 L -11.7523 7.81329 L -11.8151 7.81622 L -11.8778 7.8191 L -11.9405 7.82194 L -12.003 7.82475 L -12.0656 7.82751 L -12.128 7.83024 L -12.1904 7.83293 L -12.2528 7.83559 L -12.3151 7.83821 L -12.3773 7.84079 L -12.4395 7.84333 L -12.5016 7.84584 L -12.5637 7.84832 L -12.6257 7.85076 L -12.6877 7.85317 L -12.7496 7.85555 L -12.8115 7.85789 L -12.8733 7.86021 L -12.935 7.86249 L -12.9968 7.86474 L -13.0584 7.86696 L -13.12 7.86914 L -13.1816 7.8713 L -13.2431 7.87343 L -13.3045 7.87553 L -13.3659 7.8776 L -13.4273 7.87965 L -13.4886 7.88166 L -13.5499 7.88365 L -13.6111 7.88561 L -13.6723 7.88754 L -13.7334 7.88945 L -13.7945 7.89133 L -13.8555 7.89319 L -13.9122 7.90257 L -13.9388 7.85564 L -13.9652 7.80861 L -13.9914 7.7615 L -14.0175 7.7143 L -14.0434 7.66701 L -14.0692 7.61964 L -14.0948 7.57217 L -14.1202 7.52463 L -14.1455 7.47699 L -14.1706 7.42927 L -14.1956 7.38147 L -14.2204 7.33359 L -14.245 7.28562 L -14.2695 7.23756 L -14.2938 7.18943 L -14.3179 7.14121 L -14.3419 7.09291 L -14.3657 7.04454 L -14.3894 6.99608 L -14.4414 6.88811 L -14.4645 6.83939 L -14.4875 6.7906 L -14.5103 6.74174 L -14.5329 6.69279 L -14.5554 6.64377 L -14.5777 6.59468 L -14.5999 6.54551 L -14.6219 6.49626 L -14.6437 6.44694 L -14.6653 6.39755 L -14.6868 6.34809 L -14.7081 6.29855 L -14.7292 6.24894 L -14.7502 6.19926 L -14.771 6.14952 L -14.7917 6.0997 L -14.8122 6.04981 L -14.8325 5.99985 L -14.8526 5.94983 L -14.8099 5.91135 L -14.7704 5.86478 L -14.7308 5.8182 L -14.6912 5.7716 L -14.6516 5.72498 L -14.6119 5.67834 L -14.5721 5.63168 L -14.5323 5.585 L -14.4925 5.5383 L -14.4526 5.49158 L -14.4126 5.44484 L -14.3726 5.39808 L -14.3325 5.35131 L -14.2924 5.30451 L -14.2522 5.25769 L -14.212 5.21085 L -14.1717 5.16398 L -14.1314 5.1171 L -14.091 5.0702 L -14.0505 5.02328 L -14.01 4.97633 L -13.9694 4.92937 L -13.9288 4.88238 L -13.8881 4.83537 L -13.8473 4.78834 L -13.8065 4.74129 L -13.7656 4.69421 L -13.7247 4.64712 L -13.6836 4.6 L -13.6426 4.55286 L -13.6014 4.5057 L -13.5602 4.45852 L -13.5189 4.41131 L -13.4776 4.36408 L -13.4361 4.31683 L -13.3946 4.26956 L -13.3531 4.22226 L -13.3114 4.17494 L -13.2697 4.1276 L -13.228 4.08024 L -13.1861 4.03285 L -13.1442 3.98544 L -13.1021 3.938 L -13.0601 3.89054 L -13.0179 3.84306 L -12.9756 3.79556 L -12.9333 3.74803 L -12.8909 3.70048 L -12.8484 3.6529 L -12.8058 3.6053 L -12.7632 3.55768 L -12.7204 3.51003 L -12.6776 3.46236 L -12.6347 3.41466 L -12.5917 3.36694 L -12.5486 3.3192 L -12.5054 3.27143 L -12.4621 3.22363 L -12.4187 3.17582 L -12.3752 3.12797 L -12.3316 3.08011 L -12.288 3.03222 L -12.2442 2.9843 L -12.2003 2.93636 L -12.1563 2.88839 L -12.1123 2.8404 L -12.0681 2.79239 L -12.0238 2.74435 L -12.0238 2.74435 L -12.0845 2.72029 L -12.1452 2.6962 L -12.2057 2.67209 L -12.2661 2.64795 L -12.3265 2.6238 L -12.3867 2.59962 L -12.4468 2.57542 L -12.5069 2.5512 L -12.5668 2.52696 L -12.6266 2.5027 L -12.6864 2.47842 L -12.746 2.45412 L -12.8056 2.42981 L -12.865 2.40548 L -12.9244 2.38113 L -12.9837 2.35676 L -13.0428 2.33238 L -13.1019 2.30798 L -13.161 2.28357 L -13.2199 2.25914 L -13.2787 2.2347 L -13.3375 2.21024 L -13.3962 2.18577 L -13.4548 2.16129 L -13.5133 2.13679 L -13.5717 2.11228 L -13.63 2.08776 L -13.6883 2.06323 L -13.7465 2.03868 L -13.8046 2.01412 L -13.8627 1.98956 L -13.9206 1.96498 L -13.9785 1.94039 L -14.0364 1.91579 L -14.0941 1.89118 L -14.1518 1.86656 L -14.2094 1.84193 L -14.2669 1.81729 L -14.3244 1.79265 L -14.3818 1.76799 L -14.4391 1.74333 L -14.4964 1.71866 L -14.5536 1.69398 L -14.6107 1.66929 L -14.6678 1.6446 L -14.7248 1.6199 L -14.7817 1.59519 L -14.8386 1.57047 L -14.8954 1.54575 L -14.9522 1.52102 L -15.0088 1.49629 L -15.0655 1.47155 L -15.122 1.4468 L -15.1786 1.42205 L -15.235 1.39729 L -15.2914 1.37253 L -15.3477 1.34776 L -15.404 1.32299 L -15.4603 1.29821 L -15.5164 1.27343 L -15.5725 1.24865 L -15.6286 1.22385 L -15.6846 1.19906 L -15.7406 1.17426 L -15.7965 1.14946 L -15.8523 1.12465 L -15.9081 1.09984 L -15.9633 1.08369 L -15.9668 1.02988 L -15.9702 0.976063 L -15.9734 0.922232 L -15.9764 0.86839 L -15.9793 0.814538 L -15.9819 0.760677 L -15.9844 0.706807 L -15.9867 0.65293 L -15.9888 0.599044 L -15.9907 0.545152 L -15.9925 0.491254 L -15.994 0.437351 L -15.9954 0.383442 L -15.9966 0.329529 L -15.9976 0.275612 L -15.9985 0.221692 L -15.9991 0.16777 L -15.9996 0.113845 L -15.9999 0.0599196 L -15.9999 -0.0599196 L -15.9996 -0.113845 L -15.9991 -0.16777 L -15.9985 -0.221692 L -15.9976 -0.275612 L -15.9966 -0.329529 L -15.9954 -0.383442 L -15.994 -0.437351 L -15.9925 -0.491254 L -15.9907 -0.545152 L -15.9888 -0.599044 L -15.9867 -0.65293 L -15.9844 -0.706807 L -15.9819 -0.760677 L -15.9793 -0.814538 L -15.9764 -0.86839 L -15.9734 -0.922232 L -15.9702 -0.976063 L -15.9668 -1.02988 L -15.9633 -1.08369 L -15.9081 -1.09984 L -15.8523 -1.12465 L -15.7965 -1.14946 L -15.7406 -1.17426 L -15.6846 -1.19906 L -15.6286 -1.22385 L -15.5725 -1.24865 L -15.5164 -1.27343 L -15.4603 -1.29821 L -15.404 -1.32299 L -15.3477 -1.34776 L -15.2914 -1.37253 L -15.235 -1.39729 L -15.1786 -1.42205 L -15.122 -1.4468 L -15.0655 -1.47155 L -15.0088 -1.49629 L -14.9522 -1.52102 L -14.8954 -1.54575 L -14.8386 -1.57047 L -14.7817 -1.59519 L -14.7248 -1.6199 L -14.6678 -1.6446 L -14.6107 -1.66929 L -14.5536 -1.69398 L -14.4964 -1.71866 L -14.4391 -1.74333 L -14.3818 -1.76799 L -14.3244 -1.79265 L -14.2669 -1.81729 L -14.2094 -1.84193 L -14.1518 -1.86656 L -14.0941 -1.89118 L -14.0364 -1.91579 L -13.9785 -1.94039 L -13.9206 -1.96498 L -13.8627 -1.98956 L -13.8046 -2.01412 L -13.7465 -2.03868 L -13.6883 -2.06323 L -13.63 -2.08776 L -13.5717 -2.11228 L -13.5133 -2.13679 L -13.4548 -2.16129 L -13.3962 -2.18577 L -13.3375 -2.21024 L -13.2787 -2.2347 L -13.2199 -2.25914 L -13.161 -2.28357 L -13.1019 -2.30798 L -13.0428 -2.33238 L -12.9837 -2.35676 L -12.9244 -2.38113 L -12.865 -2.40548 L -12.8056 -2.42981 L -12.746 -2.45412 L -12.6864 -2.47842 L -12.6266 -2.5027 L -12.5668 -2.52696 L -12.5069 -2.5512 L -12.4468 -2.57542 L -12.3867 -2.59962 L -12.3265 -2.6238 L -12.2661 -2.64795 L -12.2057 -2.67209 L -12.1452 -2.6962 L -12.0845 -2.72029 L -12.0238 -2.74435 L -12.0238 -2.74435 L -12.0681 -2.79239 L -12.1123 -2.8404 L -12.1563 -2.88839 L -12.2003 -2.93636 L -12.2442 -2.9843 L -12.288 -3.03222 L -12.3316 -3.08011 L -12.3752 -3.12797 L -12.4187 -3.17582 L -12.4621 -3.22363 L -12.5054 -3.27143 L -12.5486 -3.3192 L -12.5917 -3.36694 L -12.6347 -3.41466 L -12.6776 -3.46236 L -12.7204 -3.51003 L -12.7632 -3.55768 L -12.8058 -3.6053 L -12.8484 -3.6529 L -12.8909 -3.70048 L -12.9333 -3.74803 L -12.9756 -3.79556 L -13.0179 -3.84306 L -13.0601 -3.89054 L -13.1021 -3.938 L -13.1442 -3.98544 L -13.1861 -4.03285 L -13.228 -4.08024 L -13.2697 -4.1276 L -13.3114 -4.17494 L -13.3531 -4.22226 L -13.3946 -4.26956 L -13.4361 -4.31683 L -13.4776 -4.36408 L -13.5189 -4.41131 L -13.5602 -4.45852 L -13.6014 -4.5057 L -13.6426 -4.55286 L -13.6836 -4.6 L -13.7247 -4.64712 L -13.7656 -4.69421 L -13.8065 -4.74129 L -13.8473 -4.78834 L -13.8881 -4.83537 L -13.9288 -4.88238 L -13.9694 -4.92937 L -14.01 -4.97633 L -14.0505 -5.02328 L -14.091 -5.0702 L -14.1314 -5.1171 L -14.1717 -5.16398 L -14.212 -5.21085 L -14.2522 -5.25769 L -14.2924 -5.30451 L -14.3325 -5.35131 L -14.3726 -5.39808 L -14.4126 -5.44484 L -14.4526 -5.49158 L -14.4925 -5.5383 L -14.5323 -5.585 L -14.5721 -5.63168 L -14.6119 -5.67834 L -14.6516 -5.72498 L -14.6912 -5.7716 L -14.7308 -5.8182 L -14.7704 -5.86478 L -14.8099 -5.91135 L -14.8526 -5.94983 L -14.8325 -5.99985 L -14.8122 -6.04981 L -14.7917 -6.0997 L -14.771 -6.14952 L -14.7502 -6.19926 L -14.7292 -6.24894 L -14.7081 -6.29855 L -14.6868 -6.34809 L -14.6653 -6.39755 L -14.6437 -6.44694 L -14.6219 -6.49626 L -14.5999 -6.54551 L -14.5777 -6.59468 L -14.5554 -6.64377 L -14.5329 -6.69279 L -14.5103 -6.74174 L -14.4875 -6.7906 L -14.4645 -6.83939 L -14.4414 -6.88811 L -14.3894 -6.99608 L -14.3657 -7.04454 L -14.3419 -7.09291 L -14.3179 -7.14121 L -14.2938 -7.18943 L -14.2695 -7.23756 L -14.245 -7.28562 L -14.2204 -7.33359 L -14.1956 -7.38147 L -14.1706 -7.42927 L -14.1455 -7.47699 L -14.1202 -7.52463 L -14.0948 -7.57217 L -14.0692 -7.61964 L -14.0434 -7.66701 L -14.0175 -7.7143 L -13.9914 -7.7615 L -13.9652 -7.80861 L -13.9388 -7.85564 L -13.9122 -7.90257 L -13.8555 -7.89319 L -13.7945 -7.89133 L -13.7334 -7.88945 L -13.6723 -7.88754 L -13.6111 -7.88561 L -13.5499 -7.88365 L -13.4886 -7.88166 L -13.4273 -7.87965 L -13.3659 -7.8776 L -13.3045 -7.87553 L -13.2431 -7.87343 L -13.1816 -7.8713 L -13.12 -7.86914 L -13.0584 -7.86696 L -12.9968 -7.86474 L -12.935 -7.86249 L -12.8733 -7.86021 L -12.8115 -7.85789 L -12.7496 -7.85555 L -12.6877 -7.85317 L -12.6257 -7.85076 L -12.5637 -7.84832 L -12.5016 -7.84584 L -12.4395 -7.84333 L -12.3773 -7.84079 L -12.3151 -7.83821 L -12.2528 -7.83559 L -12.1904 -7.83293 L -12.128 -7.83024 L -12.0656 -7.82751 L -12.003 -7.82475 L -11.9405 -7.82194 L -11.8778 -7.8191 L -11.8151 -7.81622 L -11.7523 -7.81329 L -11.6895 -7.81033 L -11.6266 -7.80732 L -11.5637 -7.80427 L -11.5006 -7.80118 L -11.4376 -7.79804 L -11.3744 -7.79486 L -11.3112 -7.79164 L -11.2479 -7.78837 L -11.1846 -7.78505 L -11.1212 -7.78169 L -11.0577 -7.77828 L -10.9941 -7.77482 L -10.9305 -7.77131 L -10.8668 -7.76775 L -10.8031 -7.76414 L -10.7392 -7.76048 L -10.6753 -7.75677 L -10.6113 -7.753 L -10.5473 -7.74918 L -10.4832 -7.74531 L -10.419 -7.74138 L -10.3547 -7.73739 L -10.2903 -7.73334 L -10.2259 -7.72924 L -10.1614 -7.72507 L -10.0968 -7.72085 L -10.0321 -7.71656 L -9.96735 -7.71222 L -9.90251 -7.7078 L -9.83759 -7.70333 L -9.77259 -7.69879 L -9.7075 -7.69418 L -9.64233 -7.6895 L -9.64233 -7.6895 L -9.66139 -7.752 L -9.68037 -7.81443 L -9.69926 -7.87679 L -9.71807 -7.93909 L -9.7368 -8.00132 L -9.75545 -8.06348 L -9.77402 -8.12558 L -9.79251 -8.18761 L -9.81092 -8.24958 L -9.82926 -8.31149 L -9.84753 -8.37333 L -9.86572 -8.43511 L -9.88384 -8.49683 L -9.90188 -8.55848 L -9.91986 -8.62008 L -9.93777 -8.68162 L -9.95561 -8.74309 L -9.97338 -8.80451 L -9.99109 -8.86587 L -10.0087 -8.92717 L -10.0263 -8.98842 L -10.0438 -9.0496 L -10.0613 -9.11073 L -10.0787 -9.17181 L -10.096 -9.23283 L -10.1133 -9.29379 L -10.1305 -9.3547 L -10.1476 -9.41556 L -10.1647 -9.47636 L -10.1818 -9.53711 L -10.1987 -9.59781 L -10.2157 -9.65846 L -10.2325 -9.71905 L -10.2494 -9.7796 L -10.2661 -9.84009 L -10.2828 -9.90053 L -10.2995 -9.96093 L -10.3161 -10.0213 L -10.3327 -10.0816 L -10.3492 -10.1418 L -10.3656 -10.202 L -10.3821 -10.2622 L -10.3984 -10.3223 L -10.4147 -10.3823 L -10.431 -10.4423 L -10.4472 -10.5023 L -10.4634 -10.5622 L -10.4796 -10.6221 L -10.4957 -10.6819 L -10.5117 -10.7417 L -10.5277 -10.8015 L -10.5437 -10.8612 L -10.5596 -10.9208 L -10.5755 -10.9804 L -10.5913 -11.04 L -10.6071 -11.0995 L -10.6229 -11.159 L -10.6386 -11.2185 L -10.6543 -11.2779 L -10.6699 -11.3373 L -10.6855 -11.3966 L -10.7011 -11.4559 L -10.7167 -11.5151 L -10.7321 -11.5743 L -10.7476 -11.6335 L -10.763 -11.6926 L -10.7784 -11.7517 L -10.8002 -11.8049 L -10.7603 -11.8412 L -10.7204 -11.8774 L -10.6803 -11.9135 L -10.6401 -11.9494 L -10.5997 -11.9852 L -10.5593 -12.0209 L -10.5187 -12.0564 L -10.478 -12.0918 L -10.4372 -12.127 L -10.3963 -12.1621 L -10.3552 -12.1971 L -10.314 -12.2319 L -10.2728 -12.2666 L -10.2314 -12.3012 L -10.1898 -12.3356 L -10.1482 -12.3699 L -10.1065 -12.404 L -10.0646 -12.438 L -10.0226 -12.4719 L -9.92892 -12.5466 L -9.88658 -12.58 L -9.84412 -12.6132 L -9.80155 -12.6463 L -9.75887 -12.6793 L -9.71608 -12.7121 L -9.67318 -12.7448 L -9.63017 -12.7773 L -9.58706 -12.8097 L -9.54383 -12.8419 L -9.50049 -12.874 L -9.45705 -12.906 L -9.41349 -12.9378 L -9.36984 -12.9694 L -9.32607 -13.0009 L -9.2822 -13.0323 L -9.23822 -13.0635 L -9.19414 -13.0946 L -9.14995 -13.1255 L -9.10566 -13.1562 L -9.05865 -13.1232 L -9.00446 -13.095 L -8.95025 -13.0668 L -8.896 -13.0386 L -8.84173 -13.0103 L -8.78742 -12.982 L -8.73309 -12.9536 L -8.67872 -12.9252 L -8.62432 -12.8967 L -8.5699 -12.8682 L -8.51544 -12.8397 L -8.46095 -12.8111 L -8.40643 -12.7824 L -8.35187 -12.7537 L -8.29729 -12.725 L -8.24267 -12.6962 L -8.18802 -12.6673 L -8.13333 -12.6384 L -8.07862 -12.6095 L -8.02387 -12.5805 L -7.96908 -12.5514 L -7.91426 -12.5223 L -7.85941 -12.4931 L -7.80452 -12.4639 L -7.7496 -12.4346 L -7.69465 -12.4053 L -7.63966 -12.3759 L -7.58463 -12.3465 L -7.52957 -12.317 L -7.47447 -12.2874 L -7.41933 -12.2578 L -7.36416 -12.2281 L -7.30895 -12.1984 L -7.25371 -12.1685 L -7.19842 -12.1387 L -7.1431 -12.1087 L -7.08774 -12.0787 L -7.03234 -12.0487 L -6.97691 -12.0186 L -6.92143 -11.9884 L -6.86592 -11.9581 L -6.81036 -11.9278 L -6.75477 -11.8974 L -6.69914 -11.8669 L -6.64346 -11.8363 L -6.58775 -11.8057 L -6.53199 -11.775 L -6.4762 -11.7443 L -6.42036 -11.7134 L -6.36448 -11.6825 L -6.30855 -11.6515 L -6.25259 -11.6205 L -6.19658 -11.5893 L -6.14053 -11.5581 L -6.08443 -11.5268 L -6.02829 -11.4954 L -5.97211 -11.4639 L -5.91588 -11.4323 L -5.85961 -11.4006 L -5.80329 -11.3689 L -5.74693 -11.3371 L -5.69052 -11.3052 L -5.63407 -11.2731 L -5.57757 -11.241 L -5.52102 -11.2088 L -5.46442 -11.1765 L -5.40778 -11.1441 L -5.35109 -11.1116 L -5.35109 -11.1116 L -5.34115 -11.1762 L -5.33116 -11.2407 L -5.32112 -11.3051 L -5.31104 -11.3694 L -5.30091 -11.4336 L -5.29074 -11.4977 L -5.28053 -11.5617 L -5.27027 -11.6256 L -5.25998 -11.6894 L -5.24964 -11.7531 L -5.23926 -11.8168 L -5.22885 -11.8803 L -5.21839 -11.9438 L -5.2079 -12.0072 L -5.19737 -12.0705 L -5.18681 -12.1337 L -5.17621 -12.1968 L -5.16557 -12.2599 L -5.15491 -12.3228 L -5.1442 -12.3857 L -5.13347 -12.4485 L -5.1227 -12.5113 L -5.1119 -12.5739 L -5.10106 -12.6365 L -5.0902 -12.699 L -5.07931 -12.7614 L -5.06839 -12.8237 L -5.05744 -12.886 L -5.04645 -12.9482 L -5.03545 -13.0103 L -5.02441 -13.0724 L -5.01335 -13.1344 L -5.00226 -13.1963 L -4.99114 -13.2581 L -4.98 -13.3199 L -4.96883 -13.3816 L -4.95764 -13.4433 L -4.94642 -13.5048 L -4.93518 -13.5664 L -4.92392 -13.6278 L -4.91263 -13.6892 L -4.90132 -13.7505 L -4.88999 -13.8117 L -4.87863 -13.8729 L -4.86725 -13.9341 L -4.85586 -13.9951 L -4.84444 -14.0561 L -4.833 -14.1171 L -4.82154 -14.178 L -4.81006 -14.2388 L -4.79856 -14.2996 L -4.78704 -14.3603 L -4.7755 -14.421 L -4.76395 -14.4816 L -4.75237 -14.5421 L -4.74078 -14.6026 L -4.72917 -14.663 L -4.71754 -14.7234 L -4.70589 -14.7838 L -4.69423 -14.844 L -4.68255 -14.9042 L -4.67086 -14.9644 L -4.65915 -15.0245 L -4.64742 -15.0846 L -4.63568 -15.1446 L -4.62392 -15.2046 L -4.61215 -15.2645 L -4.60868 -15.3219 L -4.55701 -15.3373 L -4.5053 -15.3526 L -4.45353 -15.3677 L -4.4017 -15.3826 L -4.34983 -15.3974 L -4.29791 -15.4119 L -4.24595 -15.4263 L -4.19393 -15.4406 L -4.14186 -15.4546 L -4.08975 -15.4685 L -4.03759 -15.4822 L -3.98539 -15.4957 L -3.93314 -15.509 L -3.88085 -15.5222 L -3.82851 -15.5352 L -3.77613 -15.548 L -3.7237 -15.5607 L -3.67124 -15.5731 L -3.61873 -15.5854 L -3.50189 -15.6121 L -3.44925 -15.6238 L -3.39658 -15.6353 L -3.34386 -15.6467 L -3.2911 -15.6579 L -3.23831 -15.6689 L -3.18548 -15.6797 L -3.13262 -15.6903 L -3.07972 -15.7008 L -3.02678 -15.7111 L -2.97381 -15.7212 L -2.92081 -15.7311 L -2.86777 -15.7409 L -2.8147 -15.7505 L -2.7616 -15.7599 L -2.70847 -15.7691 L -2.65531 -15.7781 L -2.60211 -15.787 L -2.54889 -15.7957 L -2.49564 -15.8042 L -2.46762 -15.754 L -2.43102 -15.7051 L -2.3944 -15.6562 L -2.35778 -15.6072 L -2.32116 -15.5582 L -2.28452 -15.5091 L -2.24788 -15.4599 L -2.21122 -15.4108 L -2.17456 -15.3615 L -2.1379 -15.3122 L -2.10122 -15.2629 L -2.06454 -15.2134 L -2.02785 -15.164 L -1.99115 -15.1144 L -1.95444 -15.0649 L -1.91773 -15.0152 L -1.88101 -14.9655 L -1.84428 -14.9157 L -1.80754 -14.8659 L -1.7708 -14.816 L -1.73405 -14.7661 L -1.69729 -14.7161 L -1.66052 -14.666 L -1.62375 -14.6158 L -1.58697 -14.5656 L -1.55018 -14.5154 L -1.51339 -14.465 L -1.47658 -14.4146 L -1.43977 -14.3642 L -1.40296 -14.3136 L -1.36614 -14.263 L -1.32931 -14.2123 L -1.29247 -14.1616 L -1.25563 -14.1107 L -1.21878 -14.0598 L -1.18192 -14.0089 L -1.14506 -13.9578 L -1.10819 -13.9067 L -1.07132 -13.8555 L -1.03444 -13.8042 L -0.997555 -13.7529 L -0.960663 -13.7015 L -0.923766 -13.6499 L -0.886863 -13.5983 L -0.849955 -13.5467 L -0.813042 -13.4949 L -0.776124 -13.4431 L -0.739201 -13.3911 L -0.702273 -13.3391 L -0.66534 -13.287 L -0.628403 -13.2348 L -0.591462 -13.1826 L -0.554517 -13.1302 L -0.517568 -13.0777 L -0.480615 -13.0252 L -0.443659 -12.9725 L -0.406699 -12.9198 L -0.369737 -12.867 L -0.332772 -12.814 L -0.295804 -12.761 L -0.258834 -12.7078 L -0.221861 -12.6546 L -0.184887 -12.6013 L -0.147912 -12.5478 L -0.110935 -12.4943 L -0.0739571 -12.4406 L -0.0369787 -12.3869 L -2.22045e-15 -12.333 L -2.31062e-15 -12.333 L 0.0369787 -12.3869 L 0.0739571 -12.4406 L 0.110935 -12.4943 L 0.147912 -12.5478 L 0.184887 -12.6013 L 0.221861 -12.6546 L 0.258834 -12.7078 L 0.295804 -12.761 L 0.332772 -12.814 L 0.369737 -12.867 L 0.406699 -12.9198 L 0.443659 -12.9725 L 0.480615 -13.0252 L 0.517568 -13.0777 L 0.554517 -13.1302 L 0.591462 -13.1826 L 0.628403 -13.2348 L 0.66534 -13.287 L 0.702273 -13.3391 L 0.739201 -13.3911 L 0.776124 -13.4431 L 0.813042 -13.4949 L 0.849955 -13.5467 L 0.886863 -13.5983 L 0.923766 -13.6499 L 0.960663 -13.7015 L 0.997555 -13.7529 L 1.03444 -13.8042 L 1.07132 -13.8555 L 1.10819 -13.9067 L 1.14506 -13.9578 L 1.18192 -14.0089 L 1.21878 -14.0598 L 1.25563 -14.1107 L 1.29247 -14.1616 L 1.32931 -14.2123 L 1.36614 -14.263 L 1.40296 -14.3136 L 1.43977 -14.3642 L 1.47658 -14.4146 L 1.51339 -14.465 L 1.55018 -14.5154 L 1.58697 -14.5656 L 1.62375 -14.6158 L 1.66052 -14.666 L 1.69729 -14.7161 L 1.73405 -14.7661 L 1.7708 -14.816 L 1.80754 -14.8659 L 1.84428 -14.9157 L 1.88101 -14.9655 L 1.91773 -15.0152 L 1.95444 -15.0649 L 1.99115 -15.1144 L 2.02785 -15.164 L 2.06454 -15.2134 L 2.10122 -15.2629 L 2.1379 -15.3122 L 2.17456 -15.3615 L 2.21122 -15.4108 L 2.24788 -15.4599 L 2.28452 -15.5091 L 2.32116 -15.5582 L 2.35778 -15.6072 L 2.3944 -15.6562 L 2.43102 -15.7051 L 2.46762 -15.754 L 2.49564 -15.8042 L 2.54889 -15.7957 L 2.60211 -15.787 L 2.65531 -15.7781 L 2.70847 -15.7691 L 2.7616 -15.7599 L 2.8147 -15.7505 L 2.86777 -15.7409 L 2.92081 -15.7311 L 2.97381 -15.7212 L 3.02678 -15.7111 L 3.07972 -15.7008 L 3.13262 -15.6903 L 3.18548 -15.6797 L 3.23831 -15.6689 L 3.2911 -15.6579 L 3.34386 -15.6467 L 3.39658 -15.6353 L 3.44925 -15.6238 L 3.50189 -15.6121 L 3.61873 -15.5854 L 3.67124 -15.5731 L 3.7237 -15.5607 L 3.77613 -15.548 L 3.82851 -15.5352 L 3.88085 -15.5222 L 3.93314 -15.509 L 3.98539 -15.4957 L 4.03759 -15.4822 L 4.08975 -15.4685 L 4.14186 -15.4546 L 4.19393 -15.4406 L 4.24595 -15.4263 L 4.29791 -15.4119 L 4.34983 -15.3974 L 4.4017 -15.3826 L 4.45353 -15.3677 L 4.5053 -15.3526 L 4.55701 -15.3373 L 4.60868 -15.3219 L 4.61215 -15.2645 L 4.62392 -15.2046 L 4.63568 -15.1446 L 4.64742 -15.0846 L 4.65915 -15.0245 L 4.67086 -14.9644 L 4.68255 -14.9042 L 4.69423 -14.844 L 4.70589 -14.7838 L 4.71754 -14.7234 L 4.72917 -14.663 L 4.74078 -14.6026 L 4.75237 -14.5421 L 4.76395 -14.4816 L 4.7755 -14.421 L 4.78704 -14.3603 L 4.79856 -14.2996 L 4.81006 -14.2388 L 4.82154 -14.178 L 4.833 -14.1171 L 4.84444 -14.0561 L 4.85586 -13.9951 L 4.86725 -13.9341 L 4.87863 -13.8729 L 4.88999 -13.8117 L 4.90132 -13.7505 L 4.91263 -13.6892 L 4.92392 -13.6278 L 4.93518 -13.5664 L 4.94642 -13.5048 L 4.95764 -13.4433 L 4.96883 -13.3816 L 4.98 -13.3199 L 4.99114 -13.2581 L 5.00226 -13.1963 L 5.01335 -13.1344 L 5.02441 -13.0724 L 5.03545 -13.0103 L 5.04645 -12.9482 L 5.05744 -12.886 L 5.06839 -12.8237 L 5.07931 -12.7614 L 5.0902 -12.699 L 5.10106 -12.6365 L 5.1119 -12.5739 L 5.1227 -12.5113 L 5.13347 -12.4485 L 5.1442 -12.3857 L 5.15491 -12.3228 L 5.16557 -12.2599 L 5.17621 -12.1968 L 5.18681 -12.1337 L 5.19737 -12.0705 L 5.2079 -12.0072 L 5.21839 -11.9438 L 5.22885 -11.8803 L 5.23926 -11.8168 L 5.24964 -11.7531 L 5.25998 -11.6894 L 5.27027 -11.6256 L 5.28053 -11.5617 L 5.29074 -11.4977 L 5.30091 -11.4336 L 5.31104 -11.3694 L 5.32112 -11.3051 L 5.33116 -11.2407 L 5.34115 -11.1762 L 5.35109 -11.1116 L 5.35109 -11.1116 L 5.40778 -11.1441 L 5.46442 -11.1765 L 5.52102 -11.2088 L 5.57757 -11.241 L 5.63407 -11.2731 L 5.69052 -11.3052 L 5.74693 -11.3371 L 5.80329 -11.3689 L 5.85961 -11.4006 L 5.91588 -11.4323 L 5.97211 -11.4639 L 6.02829 -11.4954 L 6.08443 -11.5268 L 6.14053 -11.5581 L 6.19658 -11.5893 L 6.25259 -11.6205 L 6.30855 -11.6515 L 6.36448 -11.6825 L 6.42036 -11.7134 L 6.4762 -11.7443 L 6.53199 -11.775 L 6.58775 -11.8057 L 6.64346 -11.8363 L 6.69914 -11.8669 L 6.75477 -11.8974 L 6.81036 -11.9278 L 6.86592 -11.9581 L 6.92143 -11.9884 L 6.97691 -12.0186 L 7.03234 -12.0487 L 7.08774 -12.0787 L 7.1431 -12.1087 L 7.19842 -12.1387 L 7.25371 -12.1685 L 7.30895 -12.1984 L 7.36416 -12.2281 L 7.41933 -12.2578 L 7.47447 -12.2874 L 7.52957 -12.317 L 7.58463 -12.3465 L 7.63966 -12.3759 L 7.69465 -12.4053 L 7.7496 -12.4346 L 7.80452 -12.4639 L 7.85941 -12.4931 L 7.91426 -12.5223 L 7.96908 -12.5514 L 8.02387 -12.5805 L 8.07862 -12.6095 L 8.13333 -12.6384 L 8.18802 -12.6673 L 8.24267 -12.6962 L 8.29729 -12.725 L 8.35187 -12.7537 L 8.40643 -12.7824 L 8.46095 -12.8111 L 8.51544 -12.8397 L 8.5699 -12.8682 L 8.62432 -12.8967 L 8.67872 -12.9252 L 8.73309 -12.9536 L 8.78742 -12.982 L 8.84173 -13.0103 L 8.896 -13.0386 L 8.95025 -13.0668 L 9.00446 -13.095 L 9.05865 -13.1232 L 9.10566 -13.1562 L 9.14995 -13.1255 L 9.19414 -13.0946 L 9.23822 -13.0635 L 9.2822 -13.0323 L 9.32607 -13.0009 L 9.36984 -12.9694 L 9.41349 -12.9378 L 9.45705 -12.906 L 9.50049 -12.874 L 9.54383 -12.8419 L 9.58706 -12.8097 L 9.63017 -12.7773 L 9.67318 -12.7448 L 9.71608 -12.7121 L 9.75887 -12.6793 L 9.80155 -12.6463 L 9.84412 -12.6132 L 9.88658 -12.58 L 9.92892 -12.5466 L 10.0226 -12.4719 L 10.0646 -12.438 L 10.1065 -12.404 L 10.1482 -12.3699 L 10.1898 -12.3356 L 10.2314 -12.3012 L 10.2728 -12.2666 L 10.314 -12.2319 L 10.3552 -12.1971 L 10.3963 -12.1621 L 10.4372 -12.127 L 10.478 -12.0918 L 10.5187 -12.0564 L 10.5593 -12.0209 L 10.5997 -11.9852 L 10.6401 -11.9494 L 10.6803 -11.9135 L 10.7204 -11.8774 L 10.7603 -11.8412 L 10.8002 -11.8049 L 10.7784 -11.7517 L 10.763 -11.6926 L 10.7476 -11.6335 L 10.7321 -11.5743 L 10.7167 -11.5151 L 10.7011 -11.4559 L 10.6855 -11.3966 L 10.6699 -11.3373 L 10.6543 -11.2779 L 10.6386 -11.2185 L 10.6229 -11.159 L 10.6071 -11.0995 L 10.5913 -11.04 L 10.5755 -10.9804 L 10.5596 -10.9208 L 10.5437 -10.8612 L 10.5277 -10.8015 L 10.5117 -10.7417 L 10.4957 -10.6819 L 10.4796 -10.6221 L 10.4634 -10.5622 L 10.4472 -10.5023 L 10.431 -10.4423 L 10.4147 -10.3823 L 10.3984 -10.3223 L 10.3821 -10.2622 L 10.3656 -10.202 L 10.3492 -10.1418 L 10.3327 -10.0816 L 10.3161 -10.0213 L 10.2995 -9.96093 L 10.2828 -9.90053 L 10.2661 -9.84009 L 10.2494 -9.7796 L 10.2325 -9.71905 L 10.2157 -9.65846 L 10.1987 -9.59781 L 10.1818 -9.53711 L 10.1647 -9.47636 L 10.1476 -9.41556 L 10.1305 -9.3547 L 10.1133 -9.29379 L 10.096 -9.23283 L 10.0787 -9.17181 L 10.0613 -9.11073 L 10.0438 -9.0496 L 10.0263 -8.98842 L 10.0087 -8.92717 L 9.99109 -8.86587 L 9.97338 -8.80451 L 9.95561 -8.74309 L 9.93777 -8.68162 L 9.91986 -8.62008 L 9.90188 -8.55848 L 9.88384 -8.49683 L 9.86572 -8.43511 L 9.84753 -8.37333 L 9.82926 -8.31149 L 9.81092 -8.24958 L 9.79251 -8.18761 L 9.77402 -8.12558 L 9.75545 -8.06348 L 9.7368 -8.00132 L 9.71807 -7.93909 L 9.69926 -7.87679 L 9.68037 -7.81443 L 9.66139 -7.752 L 9.64233 -7.6895 L 9.64233 -7.6895 L 9.7075 -7.69418 L 9.77259 -7.69879 L 9.83759 -7.70333 L 9.90251 -7.7078 L 9.96735 -7.71222 L 10.0321 -7.71656 L 10.0968 -7.72085 L 10.1614 -7.72507 L 10.2259 -7.72924 L 10.2903 -7.73334 L 10.3547 -7.73739 L 10.419 -7.74138 L 10.4832 -7.74531 L 10.5473 -7.74918 L 10.6113 -7.753 L 10.6753 -7.75677 L 10.7392 -7.76048 L 10.8031 -7.76414 L 10.8668 -7.76775 L 10.9305 -7.77131 L 10.9941 -7.77482 L 11.0577 -7.77828 L 11.1212 -7.78169 L 11.1846 -7.78505 L 11.2479 -7.78837 L 11.3112 -7.79164 L 11.3744 -7.79486 L 11.4376 -7.79804 L 11.5006 -7.80118 L 11.5637 -7.80427 L 11.6266 -7.80732 L 11.6895 -7.81033 L 11.7523 -7.81329 L 11.8151 -7.81622 L 11.8778 -7.8191 L 11.9405 -7.82194 L 12.003 -7.82475 L 12.0656 -7.82751 L 12.128 -7.83024 L 12.1904 -7.83293 L 12.2528 -7.83559 L 12.3151 -7.83821 L 12.3773 -7.84079 L 12.4395 -7.84333 L 12.5016 -7.84584 L 12.5637 -7.84832 L 12.6257 -7.85076 L 12.6877 -7.85317 L 12.7496 -7.85555 L 12.8115 -7.85789 L 12.8733 -7.86021 L 12.935 -7.86249 L 12.9968 -7.86474 L 13.0584 -7.86696 L 13.12 -7.86914 L 13.1816 -7.8713 L 13.2431 -7.87343 L 13.3045 -7.87553 L 13.3659 -7.8776 L 13.4273 -7.87965 L 13.4886 -7.88166 L 13.5499 -7.88365 L 13.6111 -7.88561 L 13.6723 -7.88754 L 13.7334 -7.88945 L 13.7945 -7.89133 L 13.8555 -7.89319 L 13.9122 -7.90257 L 13.9388 -7.85564 L 13.9652 -7.80861 L 13.9914 -7.7615 L 14.0175 -7.7143 L 14.0434 -7.66701 L 14.0692 -7.61964 L 14.0948 -7.57217 L 14.1202 -7.52463 L 14.1455 -7.47699 L 14.1706 -7.42927 L 14.1956 -7.38147 L 14.2204 -7.33359 L 14.245 -7.28562 L 14.2695 -7.23756 L 14.2938 -7.18943 L 14.3179 -7.14121 L 14.3419 -7.09291 L 14.3657 -7.04454 L 14.3894 -6.99608 L 14.4414 -6.88811 L 14.4645 -6.83939 L 14.4875 -6.7906 L 14.5103 -6.74174 L 14.5329 -6.69279 L 14.5554 -6.64377 L 14.5777 -6.59468 L 14.5999 -6.54551 L 14.6219 -6.49626 L 14.6437 -6.44694 L 14.6653 -6.39755 L 14.6868 -6.34809 L 14.7081 -6.29855 L 14.7292 -6.24894 L 14.7502 -6.19926 L 14.771 -6.14952 L 14.7917 -6.0997 L 14.8122 -6.04981 L 14.8325 -5.99985 L 14.8526 -5.94983 L 14.8099 -5.91135 L 14.7704 -5.86478 L 14.7308 -5.8182 L 14.6912 -5.7716 L 14.6516 -5.72498 L 14.6119 -5.67834 L 14.5721 -5.63168 L 14.5323 -5.585 L 14.4925 -5.5383 L 14.4526 -5.49158 L 14.4126 -5.44484 L 14.3726 -5.39808 L 14.3325 -5.35131 L 14.2924 -5.30451 L 14.2522 -5.25769 L 14.212 -5.21085 L 14.1717 -5.16398 L 14.1314 -5.1171 L 14.091 -5.0702 L 14.0505 -5.02328 L 14.01 -4.97633 L 13.9694 -4.92937 L 13.9288 -4.88238 L 13.8881 -4.83537 L 13.8473 -4.78834 L 13.8065 -4.74129 L 13.7656 -4.69421 L 13.7247 -4.64712 L 13.6836 -4.6 L 13.6426 -4.55286 L 13.6014 -4.5057 L 13.5602 -4.45852 L 13.5189 -4.41131 L 13.4776 -4.36408 L 13.4361 -4.31683 L 13.3946 -4.26956 L 13.3531 -4.22226 L 13.3114 -4.17494 L 13.2697 -4.1276 L 13.228 -4.08024 L 13.1861 -4.03285 L 13.1442 -3.98544 L 13.1021 -3.938 L 13.0601 -3.89054 L 13.0179 -3.84306 L 12.9756 -3.79556 L 12.9333 -3.74803 L 12.8909 -3.70048 L 12.8484 -3.6529 L 12.8058 -3.6053 L 12.7632 -3.55768 L 12.7204 -3.51003 L 12.6776 -3.46236 L 12.6347 -3.41466 L 12.5917 -3.36694 L 12.5486 -3.3192 L 12.5054 -3.27143 L 12.4621 -3.22363 L 12.4187 -3.17582 L 12.3752 -3.12797 L 12.3316 -3.08011 L 12.288 -3.03222 L 12.2442 -2.9843 L 12.2003 -2.93636 L 12.1563 -2.88839 L 12.1123 -2.8404 L 12.0681 -2.79239 L 12.0238 -2.74435 L 12.0238 -2.74435 L 12.0845 -2.72029 L 12.1452 -2.6962 L 12.2057 -2.67209 L 12.2661 -2.64795 L 12.3265 -2.6238 L 12.3867 -2.59962 L 12.4468 -2.57542 L 12.5069 -2.5512 L 12.5668 -2.52696 L 12.6266 -2.5027 L 12.6864 -2.47842 L 12.746 -2.45412 L 12.8056 -2.42981 L 12.865 -2.40548 L 12.9244 -2.38113 L 12.9837 -2.35676 L 13.0428 -2.33238 L 13.1019 -2.30798 L 13.161 -2.28357 L 13.2199 -2.25914 L 13.2787 -2.2347 L 13.3375 -2.21024 L 13.3962 -2.18577 L 13.4548 -2.16129 L 13.5133 -2.13679 L 13.5717 -2.11228 L 13.63 -2.08776 L 13.6883 -2.06323 L 13.7465 -2.03868 L 13.8046 -2.01412 L 13.8627 -1.98956 L 13.9206 -1.96498 L 13.9785 -1.94039 L 14.0364 -1.91579 L 14.0941 -1.89118 L 14.1518 -1.86656 L 14.2094 -1.84193 L 14.2669 -1.81729 L 14.3244 -1.79265 L 14.3818 -1.76799 L 14.4391 -1.74333 L 14.4964 -1.71866 L 14.5536 -1.69398 L 14.6107 -1.66929 L 14.6678 -1.6446 L 14.7248 -1.6199 L 14.7817 -1.59519 L 14.8386 -1.57047 L 14.8954 -1.54575 L 14.9522 -1.52102 L 15.0088 -1.49629 L 15.0655 -1.47155 L 15.122 -1.4468 L 15.1786 -1.42205 L 15.235 -1.39729 L 15.2914 -1.37253 L 15.3477 -1.34776 L 15.404 -1.32299 L 15.4603 -1.29821 L 15.5164 -1.27343 L 15.5725 -1.24865 L 15.6286 -1.22385 L 15.6846 -1.19906 L 15.7406 -1.17426 L 15.7965 -1.14946 L 15.8523 -1.12465 L 15.9081 -1.09984 L 15.9633 -1.08369 L 15.9668 -1.02988 L 15.9702 -0.976063 L 15.9734 -0.922232 L 15.9764 -0.86839 L 15.9793 -0.814538 L 15.9819 -0.760677 L 15.9844 -0.706807 L 15.9867 -0.65293 L 15.9888 -0.599044 L 15.9907 -0.545152 L 15.9925 -0.491254 L 15.994 -0.437351 L 15.9954 -0.383442 L 15.9966 -0.329529 L 15.9976 -0.275612 L 15.9985 -0.221692 L 15.9991 -0.16777 L 15.9996 -0.113845 L 15.9999 -0.0599196Z"
id="path1" />
</g>
</svg>
