<?xml version="1.0" encoding="UTF-8" standalone="no"?>
<svg version="1.1">
<g
style="fill:none;stroke:#000000;stroke-opacity:1;stroke-width:0.1">
<path d="M 16.3748 0.0840665 L 16.3744 0.135713 L 16.3739 0.187359 L 16.3733 0.239002 L 16.3724 0.290643 L 16.3714 0.342281 L 16.3703 0.393916 L 16.3689 0.445547 L 16.3675 0.497174 L 16.3658 0.548795 L 16.364 0.600411 L 16.362 0.652021 L 16.3599 0.703625 L 16.3576 0.755221 L 16.3551 0.80681 L 16.3525 0.858392 L 16.3497 0.909964 L 16.3467 0.961528 L 16.3436 1.01308 L 16.3404 1.06463 L 16.3369 1.11616 L 16.3333 1.16768 L 16.2804 1.18277 L 16.2269 1.20653 L 16.1733 1.23028 L 16.1197 1.25403 L 16.066 1.27777 L 16.0123 1.30152 L 15.9585 1.32525 L 15.9047 1.34899 L 15.8508 1.37271 L 15.7969 1.39644 L 15.7429 1.42016 L 15.6889 1.44387 L 15.6349 1.46758 L 15.5807 1.49129 L 15.5265 1.51499 L 15.4723 1.53869 L 15.418 1.56238 L 15.3637 1.58606 L 15.3093 1.60974 L 15.2548 1.63341 L 15.2003 1.65708 L 15.1458 1.68074 L 15.0912 1.7044 L 15.0365 1.72804 L 14.9817 1.75169 L 14.927 1.77532 L 14.8721 1.79895 L 14.8172 1.82257 L 14.7622 1.84618 L 14.7072 1.86979 L 14.6521 1.89339 L 14.5969 1.91697 L 14.5417 1.94056 L 14.4864 1.96413 L 14.4311 1.98769 L 14.3757 2.01125 L 14.3202 2.03479 L 14.2646 2.05833 L 14.209 2.08186 L 14.1533 2.10537 L 14.0976 2.12888 L 14.0418 2.15238 L 13.9859 2.17586 L 13.9299 2.19934 L 13.8739 2.2228 L 13.8178 2.24625 L 13.7616 2.26969 L 13.7054 2.29312 L 13.6491 2.31654 L 13.5927 2.33994 L 13.5362 2.36333 L 13.4796 2.3867 L 13.423 2.41007 L 13.3663 2.43341 L 13.3095 2.45675 L 13.2527 2.48007 L 13.1957 2.50337 L 13.1387 2.52666 L 13.0816 2.54993 L 13.0244 2.57319 L 12.9671 2.59643 L 12.9097 2.61965 L 12.8523 2.64285 L 12.7947 2.66604 L 12.7371 2.68921 L 12.6794 2.71235 L 12.6216 2.73548 L 12.5637 2.75859 L 12.5057 2.78168 L 12.4476 2.80475 L 12.3894 2.8278 L 12.3894 2.8278 L 12.4318 2.87381 L 12.4741 2.91979 L 12.5164 2.96576 L 12.5585 3.0117 L 12.6006 3.05763 L 12.6425 3.10353 L 12.6844 3.14941 L 12.7262 3.19526 L 12.7679 3.2411 L 12.8095 3.28691 L 12.851 3.3327 L 12.8925 3.37847 L 12.9338 3.42422 L 12.9751 3.46994 L 13.0163 3.51565 L 13.0574 3.56133 L 13.0984 3.60699 L 13.1394 3.65263 L 13.1803 3.69825 L 13.2211 3.74385 L 13.2618 3.78943 L 13.3025 3.83498 L 13.3431 3.88051 L 13.3836 3.92603 L 13.424 3.97152 L 13.4644 4.01699 L 13.5047 4.06244 L 13.5449 4.10787 L 13.5851 4.15328 L 13.6252 4.19866 L 13.6652 4.24403 L 13.7052 4.28938 L 13.7451 4.3347 L 13.7849 4.38001 L 13.8247 4.4253 L 13.8644 4.47056 L 13.904 4.51581 L 13.9436 4.56103 L 13.9831 4.60624 L 14.0226 4.65142 L 14.062 4.69659 L 14.1013 4.74173 L 14.1406 4.78686 L 14.1798 4.83197 L 14.219 4.87705 L 14.2581 4.92212 L 14.2972 4.96717 L 14.3362 5.0122 L 14.3751 5.05721 L 14.414 5.1022 L 14.4528 5.14717 L 14.4916 5.19213 L 14.5304 5.23706 L 14.5691 5.28198 L 14.6077 5.32688 L 14.6463 5.37176 L 14.6848 5.41662 L 14.7233 5.46146 L 14.7617 5.50628 L 14.8001 5.55109 L 14.8384 5.59588 L 14.8767 5.64065 L 14.915 5.6854 L 14.9531 5.73014 L 14.9913 5.77485 L 15.0294 5.81955 L 15.0675 5.86424 L 15.1055 5.9089 L 15.1434 5.95355 L 15.1814 5.99818 L 15.2224 6.03472 L 15.2033 6.0827 L 15.1841 6.13062 L 15.1647 6.17848 L 15.1451 6.22628 L 15.1254 6.27402 L 15.1055 6.32169 L 15.0855 6.36931 L 15.0653 6.41685 L 15.045 6.46434 L 15.0246 6.51176 L 15.004 6.55912 L 14.9832 6.60641 L 14.9623 6.65363 L 14.9412 6.70079 L 14.92 6.74788 L 14.8987 6.79491 L 14.8771 6.84187 L 14.8555 6.88876 L 14.8337 6.93558 L 14.8117 6.98233 L 14.7896 7.02901 L 14.7167 7.18049 L 14.694 7.22688 L 14.6711 7.27319 L 14.6481 7.31942 L 14.6249 7.36559 L 14.6016 7.41168 L 14.5782 7.4577 L 14.5546 7.50364 L 14.5308 7.54951 L 14.507 7.5953 L 14.4829 7.64102 L 14.4588 7.68666 L 14.4344 7.73223 L 14.41 7.77772 L 14.3854 7.82313 L 14.3606 7.86846 L 14.3357 7.91372 L 14.3107 7.95889 L 14.2855 8.00399 L 14.2602 8.04901 L 14.2348 8.09395 L 14.2092 8.1388 L 14.155 8.12946 L 14.0964 8.12764 L 14.0379 8.12579 L 13.9792 8.12392 L 13.9206 8.12202 L 13.8619 8.1201 L 13.8031 8.11816 L 13.7443 8.11619 L 13.6855 8.11419 L 13.6266 8.11217 L 13.5677 8.11013 L 13.5088 8.10805 L 13.4498 8.10596 L 13.3907 8.10383 L 13.3316 8.10167 L 13.2725 8.09949 L 13.2133 8.09728 L 13.154 8.09505 L 13.0948 8.09278 L 13.0354 8.09048 L 12.9761 8.08816 L 12.9166 8.0858 L 12.8572 8.08342 L 12.7976 8.081 L 12.7381 8.07855 L 12.6784 8.07607 L 12.6188 8.07356 L 12.559 8.07102 L 12.4993 8.06844 L 12.4394 8.06583 L 12.3796 8.06318 L 12.3196 8.06051 L 12.2597 8.05779 L 12.1996 8.05504 L 12.1395 8.05226 L 12.0794 8.04944 L 12.0192 8.04658 L 11.9589 8.04369 L 11.8986 8.04076 L 11.8382 8.03778 L 11.7778 8.03478 L 11.7173 8.03173 L 11.6568 8.02864 L 11.5962 8.02551 L 11.5355 8.02234 L 11.4748 8.01913 L 11.414 8.01587 L 11.3532 8.01258 L 11.2923 8.00923 L 11.2313 8.00585 L 11.1703 8.00242 L 11.1092 7.99895 L 11.048 7.99542 L 10.9868 7.99186 L 10.9255 7.98824 L 10.8642 7.98458 L 10.8028 7.98086 L 10.7413 7.9771 L 10.6797 7.97329 L 10.6181 7.96942 L 10.5564 7.96551 L 10.4946 7.96154 L 10.4328 7.95752 L 10.3709 7.95344 L 10.3089 7.94931 L 10.2469 7.94512 L 10.1848 7.94088 L 10.1226 7.93657 L 10.0603 7.93221 L 9.99794 7.92779 L 9.93551 7.92331 L 9.93551 7.92331 L 9.95377 7.98317 L 9.97196 8.04297 L 9.99007 8.10271 L 10.0081 8.16239 L 10.0261 8.22201 L 10.044 8.28157 L 10.0618 8.34107 L 10.0795 8.40052 L 10.0972 8.4599 L 10.1148 8.51923 L 10.1324 8.57851 L 10.1498 8.63773 L 10.1673 8.69689 L 10.1846 8.756 L 10.2019 8.81505 L 10.2191 8.87405 L 10.2363 8.93299 L 10.2534 8.99189 L 10.2704 9.05073 L 10.2874 9.10951 L 10.3043 9.16825 L 10.3212 9.22693 L 10.338 9.28557 L 10.3548 9.34415 L 10.3715 9.40268 L 10.3881 9.46117 L 10.4047 9.5196 L 10.4212 9.57799 L 10.4377 9.63632 L 10.4541 9.69461 L 10.4705 9.75285 L 10.4868 9.81105 L 10.5031 9.8692 L 10.5194 9.9273 L 10.5355 9.98535 L 10.5517 10.0434 L 10.5678 10.1013 L 10.5838 10.1592 L 10.5998 10.2171 L 10.6157 10.275 L 10.6316 10.3327 L 10.6475 10.3905 L 10.6633 10.4482 L 10.6791 10.5059 L 10.6948 10.5635 L 10.7105 10.621 L 10.7261 10.6786 L 10.7417 10.7361 L 10.7573 10.7935 L 10.7728 10.8509 L 10.7883 10.9083 L 10.8037 10.9656 L 10.8191 11.0229 L 10.8345 11.0802 L 10.8498 11.1374 L 10.8651 11.1946 L 10.8804 11.2517 L 10.8956 11.3088 L 10.9108 11.3659 L 10.9259 11.4229 L 10.941 11.4799 L 10.9561 11.5368 L 10.9711 11.5937 L 10.9861 11.6506 L 11.0011 11.7074 L 11.016 11.7642 L 11.0309 11.821 L 11.0458 11.8778 L 11.0606 11.9345 L 11.0754 11.9911 L 11.0966 12.0419 L 11.0585 12.0768 L 11.0204 12.1116 L 10.9821 12.1463 L 10.9438 12.1809 L 10.9053 12.2154 L 10.8667 12.2497 L 10.828 12.2839 L 10.7892 12.318 L 10.7503 12.352 L 10.7113 12.3858 L 10.6722 12.4195 L 10.633 12.4531 L 10.5936 12.4866 L 10.5542 12.52 L 10.5147 12.5532 L 10.475 12.5863 L 10.4353 12.6193 L 10.3954 12.6521 L 10.3555 12.6848 L 10.3154 12.7174 L 10.2752 12.7499 L 10.1438 12.8547 L 10.1032 12.8867 L 10.0625 12.9185 L 10.0217 12.9501 L 9.9808 12.9817 L 9.93981 13.0131 L 9.89871 13.0444 L 9.85752 13.0755 L 9.81623 13.1066 L 9.77484 13.1375 L 9.73336 13.1682 L 9.69178 13.1989 L 9.6501 13.2294 L 9.60833 13.2597 L 9.56646 13.29 L 9.52449 13.3201 L 9.48243 13.3501 L 9.44028 13.3799 L 9.39803 13.4096 L 9.35569 13.4392 L 9.31325 13.4686 L 9.27073 13.4979 L 9.22596 13.466 L 9.17401 13.439 L 9.12203 13.4119 L 9.07003 13.3848 L 9.018 13.3576 L 8.96594 13.3304 L 8.91386 13.3032 L 8.86175 13.2759 L 8.80961 13.2486 L 8.75744 13.2212 L 8.70524 13.1938 L 8.65302 13.1663 L 8.60077 13.1388 L 8.54848 13.1113 L 8.49617 13.0837 L 8.44384 13.0561 L 8.39147 13.0284 L 8.33907 13.0007 L 8.28664 12.9729 L 8.23418 12.9451 L 8.1817 12.9173 L 8.12918 12.8894 L 8.07663 12.8614 L 8.02405 12.8334 L 7.97144 12.8054 L 7.9188 12.7773 L 7.86613 12.7491 L 7.81342 12.7209 L 7.76069 12.6926 L 7.70792 12.6643 L 7.65512 12.636 L 7.60229 12.6076 L 7.54942 12.5791 L 7.49652 12.5506 L 7.44359 12.522 L 7.39062 12.4933 L 7.33762 12.4646 L 7.28459 12.4359 L 7.23152 12.4071 L 7.17842 12.3782 L 7.12528 12.3493 L 7.07211 12.3203 L 7.01891 12.2912 L 6.96566 12.2621 L 6.91239 12.233 L 6.85907 12.2037 L 6.80572 12.1744 L 6.75234 12.145 L 6.69891 12.1156 L 6.64545 12.0861 L 6.59196 12.0565 L 6.53842 12.0269 L 6.48485 11.9972 L 6.43124 11.9674 L 6.37759 11.9376 L 6.3239 11.9076 L 6.27018 11.8776 L 6.21641 11.8476 L 6.16261 11.8174 L 6.10876 11.7872 L 6.05488 11.7569 L 6.00096 11.7266 L 5.94699 11.6961 L 5.89299 11.6656 L 5.83894 11.635 L 5.78486 11.6043 L 5.73073 11.5735 L 5.67656 11.5426 L 5.62235 11.5117 L 5.56809 11.4806 L 5.51379 11.4495 L 5.51379 11.4495 L 5.50427 11.5114 L 5.49471 11.5731 L 5.48511 11.6348 L 5.47546 11.6964 L 5.46578 11.7579 L 5.45605 11.8193 L 5.44629 11.8807 L 5.43649 11.9419 L 5.42665 12.0031 L 5.41678 12.0642 L 5.40687 12.1252 L 5.39692 12.1862 L 5.38694 12.247 L 5.37693 12.3078 L 5.36688 12.3685 L 5.3568 12.4291 L 5.34669 12.4897 L 5.33654 12.5502 L 5.32637 12.6106 L 5.31616 12.6709 L 5.30593 12.7312 L 5.29566 12.7914 L 5.28536 12.8515 L 5.27504 12.9115 L 5.26469 12.9715 L 5.25431 13.0314 L 5.2439 13.0913 L 5.23346 13.1511 L 5.223 13.2108 L 5.21252 13.2704 L 5.202 13.33 L 5.19147 13.3895 L 5.18091 13.449 L 5.17032 13.5084 L 5.15971 13.5677 L 5.14907 13.627 L 5.13842 13.6862 L 5.12774 13.7453 L 5.11703 13.8044 L 5.10631 13.8634 L 5.09556 13.9224 L 5.0848 13.9813 L 5.07401 14.0401 L 5.0632 14.0989 L 5.05237 14.1577 L 5.04152 14.2163 L 5.03065 14.275 L 5.01976 14.3335 L 5.00885 14.392 L 4.99793 14.4505 L 4.98698 14.5089 L 4.97602 14.5673 L 4.96504 14.6256 L 4.95404 14.6838 L 4.94302 14.742 L 4.93199 14.8001 L 4.92094 14.8582 L 4.90987 14.9163 L 4.89879 14.9743 L 4.88769 15.0322 L 4.87657 15.0901 L 4.86544 15.148 L 4.85429 15.2058 L 4.84313 15.2635 L 4.83196 15.3212 L 4.82077 15.3789 L 4.80956 15.4365 L 4.79834 15.4941 L 4.78711 15.5516 L 4.77586 15.6091 L 4.77291 15.664 L 4.72348 15.6789 L 4.674 15.6938 L 4.62448 15.7084 L 4.57491 15.7229 L 4.5253 15.7373 L 4.47564 15.7515 L 4.42594 15.7655 L 4.37619 15.7794 L 4.3264 15.7931 L 4.27656 15.8067 L 4.22669 15.8201 L 4.17677 15.8334 L 4.12681 15.8465 L 4.07681 15.8594 L 4.02677 15.8722 L 3.97668 15.8848 L 3.92656 15.8973 L 3.8764 15.9096 L 3.8262 15.9217 L 3.77597 15.9337 L 3.72569 15.9455 L 3.56177 15.9829 L 3.51134 15.9941 L 3.46088 16.0051 L 3.41038 16.0159 L 3.35985 16.0266 L 3.30928 16.0371 L 3.25869 16.0475 L 3.20805 16.0577 L 3.15739 16.0677 L 3.1067 16.0776 L 3.05597 16.0873 L 3.00522 16.0969 L 2.95443 16.1063 L 2.90362 16.1155 L 2.85277 16.1246 L 2.8019 16.1335 L 2.751 16.1423 L 2.70007 16.1509 L 2.64912 16.1593 L 2.59814 16.1676 L 2.54713 16.1757 L 2.4961 16.1836 L 2.46962 16.1355 L 2.43455 16.0885 L 2.39947 16.0416 L 2.36438 15.9946 L 2.32929 15.9476 L 2.29419 15.9005 L 2.25908 15.8533 L 2.22397 15.8061 L 2.18885 15.7589 L 2.15372 15.7116 L 2.11858 15.6643 L 2.08344 15.6169 L 2.04829 15.5694 L 2.01314 15.5219 L 1.97797 15.4744 L 1.94281 15.4268 L 1.90763 15.3791 L 1.87245 15.3314 L 1.83726 15.2837 L 1.80206 15.2358 L 1.76686 15.188 L 1.73165 15.14 L 1.69643 15.0921 L 1.66121 15.044 L 1.62598 14.9959 L 1.59075 14.9477 L 1.55551 14.8995 L 1.52026 14.8513 L 1.48501 14.8029 L 1.44975 14.7545 L 1.41448 14.706 L 1.37921 14.6575 L 1.34393 14.6089 L 1.30865 14.5603 L 1.27336 14.5116 L 1.23806 14.4628 L 1.20276 14.4139 L 1.16746 14.365 L 1.13215 14.316 L 1.09683 14.267 L 1.06151 14.2179 L 1.02618 14.1687 L 0.990845 14.1194 L 0.955507 14.0701 L 0.920165 14.0207 L 0.884817 13.9712 L 0.849465 13.9217 L 0.814108 13.872 L 0.778747 13.8223 L 0.743382 13.7726 L 0.708012 13.7227 L 0.672639 13.6728 L 0.637261 13.6228 L 0.60188 13.5727 L 0.566495 13.5225 L 0.531107 13.4723 L 0.495716 13.4219 L 0.460321 13.3715 L 0.424924 13.321 L 0.389523 13.2704 L 0.354121 13.2197 L 0.318716 13.169 L 0.283308 13.1181 L 0.247899 13.0672 L 0.212488 13.0162 L 0.177076 12.965 L 0.141662 12.9138 L 0.106248 12.8625 L 0.0708322 12.8111 L 0.0354163 12.7596 L 8.88178e-16 12.708 L 6.68103e-16 12.708 L -0.0354163 12.7596 L -0.0708322 12.8111 L -0.106248 12.8625 L -0.141662 12.9138 L -0.177076 12.965 L -0.212488 13.0162 L -0.247899 13.0672 L -0.283308 13.1181 L -0.318716 13.169 L -0.354121 13.2197 L -0.389523 13.2704 L -0.424924 13.321 L -0.460321 13.3715 L -0.495716 13.4219 L -0.531107 13.4723 L -0.566495 13.5225 L -0.60188 13.5727 L -0.637261 13.6228 L -0.672639 13.6728 L -0.708012 13.7227 L -0.743382 13.7726 L -0.778747 13.8223 L -0.814108 13.872 L -0.849465 13.9217 L -0.884817 13.9712 L -0.920165 14.0207 L -0.955507 14.0701 L -0.990845 14.1194 L -1.02618 14.1687 L -1.06151 14.2179 L -1.09683 14.267 L -1.13215 14.316 L -1.16746 14.365 L -1.20276 14.4139 L -1.23806 14.4628 L -1.27336 14.5116 L -1.30865 14.5603 L -1.34393 14.6089 L -1.37921 14.6575 L -1.41448 14.706 L -1.44975 14.7545 L -1.48501 14.8029 L -1.52026 14.8513 L -1.55551 14.8995 L -1.59075 14.9477 L -1.62598 14.9959 L -1.66121 15.044 L -1.69643 15.0921 L -1.73165 15.14 L -1.76686 15.188 L -1.80206 15.2358 L -1.83726 15.2837 L -1.87245 15.3314 L -1.90763 15.3791 L -1.94281 15.4268 L -1.97797 15.4744 L -2.01314 15.5219 L -2.04829 15.5694 L -2.08344 15.6169 L -2.11858 15.6643 L -2.15372 15.7116 L -2.18885 15.7589 L -2.22397 15.8061 L -2.25908 15.8533 L -2.29419 15.9005 L -2.32929 15.9476 L -2.36438 15.9946 L -2.39947 16.0416 L -2.43455 16.0885 L -2.46962 16.1355 L -2.4961 16.1836 L -2.54713 16.1757 L -2.59814 16.1676 L -2.64912 16.1593 L -2.70007 16.1509 L -2.751 16.1423 L -2.8019 16.1335 L -2.85277 16.1246 L -2.90362 16.1155 L -2.95443 16.1063 L -3.00522 16.0969 L -3.05597 16.0873 L -3.1067 16.0776 L -3.15739 16.0677 L -3.20805 16.0577 L -3.25869 16.0475 L -3.30928 16.0371 L -3.35985 16.0266 L -3.41038 16.0159 L -3.46088 16.0051 L -3.51134 15.9941 L -3.56177 15.9829 L -3.72569 15.9455 L -3.77597 15.9337 L -3.8262 15.9217 L -3.8764 15.9096 L -3.92656 15.8973 L -3.97668 15.8848 L -4.02677 15.8722 L -4.07681 15.8594 L -4.12681 15.8465 L -4.17677 15.8334 L -4.22669 15.8201 L -4.27656 15.8067 L -4.3264 15.7931 L -4.37619 15.7794 L -4.42594 15.7655 L -4.47564 15.7515 L -4.5253 15.7373 L -4.57491 15.7229 L -4.62448 15.7084 L -4.674 15.6938 L -4.72348 15.6789 L -4.77291 15.664 L -4.77586 15.6091 L -4.78711 15.5516 L -4.79834 15.4941 L -4.80956 15.4365 L -4.82077 15.3789 L -4.83196 15.3212 L -4.84313 15.2635 L -4.85429 15.2058 L -4.86544 15.148 L -4.87657 15.0901 L -4.88769 15.0322 L -4.89879 14.9743 L -4.90987 14.9163 L -4.92094 14.8582 L -4.93199 14.8001 L -4.94302 14.742 L -4.95404 14.6838 L -4.96504 14.6256 L -4.97602 14.5673 L -4.98698 14.5089 L -4.99793 14.4505 L -5.00885 14.392 L -5.01976 14.3335 L -5.03065 14.275 L -5.04152 14.2163 L -5.05237 14.1577 L -5.0632 14.0989 L -5.07401 14.0401 L -5.0848 13.9813 L -5.09556 13.9224 L -5.10631 13.8634 L -5.11703 13.8044 L -5.12774 13.7453 L -5.13842 13.6862 L -5.14907 13.627 L -5.15971 13.5677 L -5.17032 13.5084 L -5.18091 13.449 L -5.19147 13.3895 L -5.202 13.33 L -5.21252 13.2704 L -5.223 13.2108 L -5.23346 13.1511 L -5.2439 13.0913 L -5.25431 13.0314 L -5.26469 12.9715 L -5.27504 12.9115 L -5.28536 12.8515 L -5.29566 12.7914 L -5.30593 12.7312 L -5.31616 12.6709 L -5.32637 12.6106 L -5.33654 12.5502 L -5.34669 12.4897 L -5.3568 12.4291 L -5.36688 12.3685 L -5.37693 12.3078 L -5.38694 12.247 L -5.39692 12.1862 L -5.40687 12.1252 L -5.41678 12.0642 L -5.42665 12.0031 L -5.43649 11.9419 L -5.44629 11.8807 L -5.45605 11.8193 L -5.46578 11.7579 L -5.47546 11.6964 L -5.48511 11.6348 L -5.49471 11.5731 L -5.50427 11.5114 L -5.51379 11.4495 L -5.51379 11.4495 L -5.56809 11.4806 L -5.62235 11.5117 L -5.67656 11.5426 L -5.73073 11.5735 L -5.78486 11.6043 L -5.83894 11.635 L -5.89299 11.6656 L -5.94699 11.6961 L -6.00096 11.7266 L -6.05488 11.7569 L -6.10876 11.7872 L -6.16261 11.8174 L -6.21641 11.8476 L -6.27018 11.8776 L -6.3239 11.9076 L -6.37759 11.9376 L -6.43124 11.9674 L -6.48485 11.9972 L -6.53842 12.0269 L -6.59196 12.0565 L -6.64545 12.0861 L -6.69891 12.1156 L -6.75234 12.145 L -6.80572 12.1744 L -6.85907 12.2037 L -6.91239 12.233 L -6.96566 12.2621 L -7.01891 12.2912 L -7.07211 12.3203 L -7.12528 12.3493 L -7.17842 12.3782 L -7.23152 12.4071 L -7.28459 12.4359 L -7.33762 12.4646 L -7.39062 12.4933 L -7.44359 12.522 L -7.49652 12.5506 L -7.54942 12.5791 L -7.60229 12.6076 L -7.65512 12.636 L -7.70792 12.6643 L -7.76069 12.6926 L -7.81342 12.7209 L -7.86613 12.7491 L -7.9188 12.7773 L -7.97144 12.8054 L -8.02405 12.8334 L -8.07663 12.8614 L -8.12918 12.8894 L -8.1817 12.9173 L -8.23418 12.9451 L -8.28664 12.9729 L -8.33907 13.0007 L -8.39147 13.0284 L -8.44384 13.0561 L -8.49617 13.0837 L -8.54848 13.1113 L -8.60077 13.1388 L -8.65302 13.1663 L -8.70524 13.1938 L -8.75744 13.2212 L -8.80961 13.2486 L -8.86175 13.2759 L -8.91386 13.3032 L -8.96594 13.3304 L -9.018 13.3576 L -9.07003 13.3848 L -9.12203 13.4119 L -9.17401 13.439 L -9.22596 13.466 L -9.27073 13.4979 L -9.31325 13.4686 L -9.35569 13.4392 L -9.39803 13.4096 L -9.44028 13.3799 L -9.48243 13.3501 L -9.52449 13.3201 L -9.56646 13.29 L -9.60833 13.2597 L -9.6501 13.2294 L -9.69178 13.1989 L -9.73336 13.1682 L -9.77484 13.1375 L -9.81623 13.1066 L -9.85752 13.0755 L -9.89871 13.0444 L -9.93981 13.0131 L -9.9808 12.9817 L -10.0217 12.9501 L -10.0625 12.9185 L -10.1032 12.8867 L -10.1438 12.8547 L -10.2752 12.7499 L -10.3154 12.7174 L -10.3555 12.6848 L -10.3954 12.6521 L -10.4353 12.6193 L -10.475 12.5863 L -10.5147 12.5532 L -10.5542 12.52 L -10.5936 12.4866 L -10.633 12.4531 L -10.6722 12.4195 L -10.7113 12.3858 L -10.7503 12.352 L -10.7892 12.318 L -10.828 12.2839 L -10.8667 12.2497 L -10.9053 12.2154 L -10.9438 12.1809 L -10.9821 12.1463 L -11.0204 12.1116 L -11.0585 12.0768 L -11.0966 12.0419 L -11.0754 11.9911 L -11.0606 11.9345 L -11.0458 11.8778 L -11.0309 11.821 L -11.016 11.7642 L -11.0011 11.7074 L -10.9861 11.6506 L -10.9711 11.5937 L -10.9561 11.5368 L -10.941 11.4799 L -10.9259 11.4229 L -10.9108 11.3659 L -10.8956 11.3088 L -10.8804 11.2517 L -10.8651 11.1946 L -10.8498 11.1374 L -10.8345 11.0802 L -10.8191 11.0229 L -10.8037 10.9656 L -10.7883 10.9083 L -10.7728 10.8509 L -10.7573 10.7935 L -10.7417 10.7361 L -10.7261 10.6786 L -10.7105 10.621 L -10.6948 10.5635 L -10.6791 10.5059 L -10.6633 10.4482 L -10.6475 10.3905 L -10.6316 10.3327 L -10.6157 10.275 L -10.5998 10.2171 L -10.5838 10.1592 L -10.5678 10.1013 L -10.5517 10.0434 L -10.5355 9.98535 L -10.5194 9.9273 L -10.5031 9.8692 L -10.4868 9.81105 L -10.4705 9.75285 L -10.4541 9.69461 L -10.4377 9.63632 L -10.4212 9.57799 L -10.4047 9.5196 L -10.3881 9.46117 L -10.3715 9.40268 L -10.3548 9.34415 L -10.338 9.28557 L -10.3212 9.22693 L -10.3043 9.16825 L -10.2874 9.10951 L -10.2704 9.05073 L -10.2534 8.99189 L -10.2363 8.93299 L -10.2191 8.87405 L -10.2019 8.81505 L -10.1846 8.756 L -10.1673 8.69689 L -10.1498 8.63773 L -10.1324 8.57851 L -10.1148 8.51923 L -10.0972 8.4599 L -10.0795 8.40052 L -10.0618 8.34107 L -10.044 8.28157 L -10.0261 8.22201 L -10.0081 8.16239 L -9.99007 8.10271 L -9.97196 8.04297 L -9.95377 7.98317 L -9.93551 7.92331 L -9.93551 7.92331 L -9.99794 7.92779 L -10.0603 7.93221 L -10.1226 7.93657 L -10.1848 7.94088 L -10.2469 7.94512 L -10.3089 7.94931 L -10.3709 7.95344 L -10.4328 7.95752 L -10.4946 7.96154 L -10.5564 7.96551 L -10.6181 7.96942 L -10.6797 7.97329 L -10.7413 7.9771 L -10.8028 7.98086 L -10.8642 7.98458 L -10.9255 7.98824 L -10.9868 7.99186 L -11.048 7.99542 L -11.1092 7.99895 L -11.1703 8.00242 L -11.2313 8.00585 L -11.2923 8.00923 L -11.3532 8.01258 L -11.414 8.01587 L -11.4748 8.01913 L -11.5355 8.02234 L -11.5962 8.02551 L -11.6568 8.02864 L -11.7173 8.03173 L -11.7778 8.03478 L -11.8382 8.03778 L -11.8986 8.04076 L -11.9589 8.04369 L -12.0192 8.04658 L -12.0794 8.04944 L -12.1395 8.05226 L -12.1996 8.05504 L -12.2597 8.05779 L -12.3196 8.06051 L -12.3796 8.06318 L -12.4394 8.06583 L -12.4993 8.06844 L -12.559 8.07102 L -12.6188 8.07356 L -12.6784 8.07607 L -12.7381 8.07855 L -12.7976 8.081 L -12.8572 8.08342 L -12.9166 8.0858 L -12.9761 8.08816 L -13.0354 8.09048 L -13.0948 8.09278 L -13.154 8.09505 L -13.2133 8.09728 L -13.2725 8.09949 L -13.3316 8.10167 L -13.3907 8.10383 L -13.4498 8.10596 L -13.5088 8.10805 L -13.5677 8.11013 L -13.6266 8.11217 L -13.6855 8.11419 L -13.7443 8.11619 L -13.8031 8.11816 L -13.8619 8.1201 L -13.9206 8.12202 L -13.9792 8.12392 L -14.0379 8.12579 L -14.0964 8.12764 L -14.155 8.12946 L -14.2092 8.1388 L -14.2348 8.09395 L -14.2602 8.04901 L -14.2855 8.00399 L -14.3107 7.95889 L -14.3357 7.91372 L -14.3606 7.86846 L -14.3854 7.82313 L -14.41 7.77772 L -14.4344 7.73223 L -14.4588 7.68666 L -14.4829 7.64102 L -14.507 7.5953 L -14.5308 7.54951 L -14.5546 7.50364 L -14.5782 7.4577 L -14.6016 7.41168 L -14.6249 7.36559 L -14.6481 7.31942 L -14.6711 7.27319 L -14.694 7.22688 L -14.7167 7.18049 L -14.7896 7.02901 L -14.8117 6.98233 L -14.8337 6.93558 L -14.8555 6.88876 L -14.8771 6.84187 L -14.8987 6.79491 L -14.92 6.74788 L -14.9412 6.70079 L -14.9623 6.65363 L -14.9832 6.60641 L -15.004 6.55912 L -15.0246 6.51176 L -15.045 6.46434 L -15.0653 6.41685 L -15.0855 6.36931 L -15.1055 6.32169 L -15.1254 6.27402 L -15.1451 6.22628 L -15.1647 6.17848 L -15.1841 6.13062 L -15.2033 6.0827 L -15.2224 6.03472 L -15.1814 5.99818 L -15.1434 5.95355 L -15.1055 5.9089 L -15.0675 5.86424 L -15.0294 5.81955 L -14.9913 5.77485 L -14.9531 5.73014 L -14.915 5.6854 L -14.8767 5.64065 L -14.8384 5.59588 L -14.8001 5.55109 L -14.7617 5.50628 L -14.7233 5.46146 L -14.6848 5.41662 L -14.6463 5.37176 L -14.6077 5.32688 L -14.5691 5.28198 L -14.5304 5.23706 L -14.4916 5.19213 L -14.4528 5.14717 L -14.414 5.1022 L -14.3751 5.05721 L -14.3362 5.0122 L -14.2972 4.96717 L -14.2581 4.92212 L -14.219 4.87705 L -14.1798 4.83197 L -14.1406 4.78686 L -14.1013 4.74173 L -14.062 4.69659 L -14.0226 4.65142 L -13.9831 4.60624 L -13.9436 4.56103 L -13.904 4.51581 L -13.8644 4.47056 L -13.8247 4.4253 L -13.7849 4.38001 L -13.7451 4.3347 L -13.7052 4.28938 L -13.6652 4.24403 L -13.6252 4.19866 L -13.5851 4.15328 L -13.5449 4.10787 L -13.5047 4.06244 L -13.4644 4.01699 L -13.424 3.97152 L -13.3836 3.92603 L -13.3431 3.88051 L -13.3025 3.83498 L -13.2618 3.78943 L -13.2211 3.74385 L -13.1803 3.69825 L -13.1394 3.65263 L -13.0984 3.60699 L -13.0574 3.56133 L -13.0163 3.51565 L -12.9751 3.46994 L -12.9338 3.42422 L -12.8925 3.37847 L -12.851 3.3327 L -12.8095 3.28691 L -12.7679 3.2411 L -12.7262 3.19526 L -12.6844 3.14941 L -12.6425 3.10353 L -12.6006 3.05763 L -12.5585 3.0117 L -12.5164 2.96576 L -12.4741 2.91979 L -12.4318 2.87381 L -12.3894 2.8278 L -12.3894 2.8278 L -12.4476 2.80475 L -12.5057 2.78168 L -12.5637 2.75859 L -12.6216 2.73548 L -12.6794 2.71235 L -12.7371 2.68921 L -12.7947 2.66604 L -12.8523 2.64285 L -12.9097 2.61965 L -12.9671 2.59643 L -13.0244 2.57319 L -13.0816 2.54993 L -13.1387 2.52666 L -13.1957 2.50337 L -13.2527 2.48007 L -13.3095 2.45675 L -13.3663 2.43341 L -13.423 2.41007 L -13.4796 2.3867 L -13.5362 2.36333 L -13.5927 2.33994 L -13.6491 2.31654 L -13.7054 2.29312 L -13.7616 2.26969 L -13.8178 2.24625 L -13.8739 2.2228 L -13.9299 2.19934 L -13.9859 2.17586 L -14.0418 2.15238 L -14.0976 2.12888 L -14.1533 2.10537 L -14.209 2.08186 L -14.2646 2.05833 L -14.3202 2.03479 L -14.3757 2.01125 L -14.4311 1.98769 L -14.4864 1.96413 L -14.5417 1.94056 L -14.5969 1.91697 L -14.6521 1.89339 L -14.7072 1.86979 L -14.7622 1.84618 L -14.8172 1.82257 L -14.8721 1.79895 L -14.927 1.77532 L -14.9817 1.75169 L -15.0365 1.72804 L -15.0912 1.7044 L -15.1458 1.68074 L -15.2003 1.65708 L -15.2548 1.63341 L -15.3093 1.60974 L -15.3637 1.58606 L -15.418 1.56238 L -15.4723 1.53869 L -15.5265 1.51499 L -15.5807 1.49129 L -15.6349 1.46758 L -15.6889 1.44387 L -15.7429 1.42016 L -15.7969 1.39644 L -15.8508 1.37271 L -15.9047 1.34899 L -15.9585 1.32525 L -16.0123 1.30152 L -16.066 1.27777 L -16.1197 1.25403 L -16.1733 1.23028 L -16.2269 1.20653 L -16.2804 1.18277 L -16.3333 1.16768 L -16.3369 1.11616 L -16.3404 1.06463 L -16.3436 1.01308 L -16.3467 0.961528 L -16.3497 0.909964 L -16.3525 0.858392 L -16.3551 0.80681 L -16.3576 0.755221 L -16.3599 0.703625 L -16.362 0.652021 L -16.364 0.600411 L -16.3658 0.548795 L -16.3675 0.497174 L -16.3689 0.445547 L -16.3703 0.393916 L -16.3714 0.342281 L -16.3724 0.290643 L -16.3733 0.239002 L -16.3739 0.187359 L -16.3744 0.135713 L -16.3748 0.0840665 L -16.3748 -0.0840665 L -16.3744 -0.135713 L -16.3739 -0.187359 L -16.3733 -0.239002 L -16.3724 -0.290643 L -16.3714 -0.342281 L -16.3703 -0.393916 L -16.3689 -0.445547 L -16.3675 -0.497174 L -16.3658 -0.548795 L -16.364 -0.600411 L -16.362 -0.652021 L -16.3599 -0.703625 L -16.3576 -0.755221 L -16.3551 -0.80681 L -16.3525 -0.858392 L -16.3497 -0.909964 L -16.3467 -0.961528 L -16.3436 -1.01308 L -16.3404 -1.06463 L -16.3369 -1.11616 L -16.3333 -1.16768 L -16.2804 -1.18277 L -16.2269 -1.20653 L -16.1733 -1.23028 L -16.1197 -1.25403 L -16.066 -1.27777 L -16.0123 -1.30152 L -15.9585 -1.32525 L -15.9047 -1.34899 L -15.8508 -1.37271 L -15.7969 -1.39644 L -15.7429 -1.42016 L -15.6889 -1.44387 L -15.6349 -1.46758 L -15.5807 -1.49129 L -15.5265 -1.51499 L -15.4723 -1.53869 L -15.418 -1.56238 L -15.3637 -1.58606 L -15.3093 -1.60974 L -15.2548 -1.63341 L -15.2003 -1.65708 L -15.1458 -1.68074 L -15.0912 -1.7044 L -15.0365 -1.72804 L -14.9817 -1.75169 L -14.927 -1.77532 L -14.8721 -1.79895 L -14.8172 -1.82257 L -14.7622 -1.84618 L -14.7072 -1.86979 L -14.6521 -1.89339 L -14.5969 -1.91697 L -14.5417 -1.94056 L -14.4864 -1.96413 L -14.4311 -1.98769 L -14.3757 -2.01125 L -14.3202 -2.03479 L -14.2646 -2.05833 L -14.209 -2.08186 L -14.1533 -2.10537 L -14.0976 -2.12888 L -14.0418 -2.15238 L -13.9859 -2.17586 L -13.9299 -2.19934 L -13.8739 -2.2228 L -13.8178 -2.24625 L -13.7616 -2.26969 L -13.7054 -2.29312 L -13.6491 -2.31654 L -13.5927 -2.33994 L -13.5362 -2.36333 L -13.4796 -2.3867 L -13.423 -2.41007 L -13.3663 -2.43341 L -13.3095 -2.45675 L -13.2527 -2.48007 L -13.1957 -2.50337 L -13.1387 -2.52666 L -13.0816 -2.54993 L -13.0244 -2.57319 L -12.9671 -2.59643 L -12.9097 -2.61965 L -12.8523 -2.64285 L -12.7947 -2.66604 L -12.7371 -2.68921 L -12.6794 -2.71235 L -12.6216 -2.73548 L -12.5637 -2.75859 L -12.5057 -2.78168 L -12.4476 -2.80475 L -12.3894 -2.8278 L -12.3894 -2.8278 L -12.4318 -2.87381 L -12.4741 -2.91979 L -12.5164 -2.96576 L -12.5585 -3.0117 L -12.6006 -3.05763 L -12.6425 -3.10353 L -12.6844 -3.14941 L -12.7262 -3.19526 L -12.7679 -3.2411 L -12.8095 -3.28691 L -12.851 -3.3327 L -12.8925 -3.37847 L -12.9338 -3.42422 L -12.9751 -3.46994 L -13.0163 -3.51565 L -13.0574 -3.56133 L -13.0984 -3.60699 L -13.1394 -3.65263 L -13.1803 -3.69825 L -13.2211 -3.74385 L -13.2618 -3.78943 L -13.3025 -3.83498 L -13.3431 -3.88051 L -13.3836 -3.92603 L -13.424 -3.97152 L -13.4644 -4.01699 L -13.5047 -4.06244 L -13.5449 -4.10787 L -13.5851 -4.15328 L -13.6252 -4.19866 L -13.6652 -4.24403 L -13.7052 -4.28938 L -13.7451 -4.3347 L -13.7849 -4.38001 L -13.8247 -4.4253 L -13.8644 -4.47056 L -13.904 -4.51581 L -13.9436 -4.56103 L -13.9831 -4.60624 L -14.0226 -4.65142 L -14.062 -4.69659 L -14.1013 -4.74173 L -14.1406 -4.78686 L -14.1798 -4.83197 L -14.219 -4.87705 L -14.2581 -4.92212 L -14.2972 -4.96717 L -14.3362 -5.0122 L -14.3751 -5.05721 L -14.414 -5.1022 L -14.4528 -5.14717 L -14.4916 -5.19213 L -14.5304 -5.23706 L -14.5691 -5.28198 L -14.6077 -5.32688 L -14.6463 -5.37176 L -14.6848 -5.41662 L -14.7233 -5.46146 L -14.7617 -5.50628 L -14.8001 -5.55109 L -14.8384 -5.59588 L -14.8767 -5.64065 L -14.915 -5.6854 L -14.9531 -5.73014 L -14.9913 -5.77485 L -15.0294 -5.81955 L -15.0675 -5.86424 L -15.1055 -5.9089 L -15.1434 -5.95355 L -15.1814 -5.99818 L -15.2224 -6.03472 L -15.2033 -6.0827 L -15.1841 -6.13062 L -15.1647 -6.17848 L -15.1451 -6.22628 L -15.1254 -6.27402 L -15.1055 -6.32169 L -15.0855 -6.36931 L -15.0653 -6.41685 L -15.045 -6.46434 L -15.0246 -6.51176 L -15.004 -6.55912 L -14.9832 -6.60641 L -14.9623 -6.65363 L -14.9412 -6.70079 L -14.92 -6.74788 L -14.8987 -6.79491 L -14.8771 -6.84187 L -14.8555 -6.88876 L -14.8337 -6.93558 L -14.8117 -6.98233 L -14.7896 -7.02901 L -14.7167 -7.18049 L -14.694 -7.22688 L -14.6711 -7.27319 L -14.6481 -7.31942 L -14.6249 -7.36559 L -14.6016 -7.41168 L -14.5782 -7.4577 L -14.5546 -7.50364 L -14.5308 -7.54951 L -14.507 -7.5953 L -14.4829 -7.64102 L -14.4588 -7.68666 L -14.4344 -7.73223 L -14.41 -7.77772 L -14.3854 -7.82313 L -14.3606 -7.86846 L -14.3357 -7.91372 L -14.3107 -7.95889 L -14.2855 -8.00399 L -14.2602 -8.04901 L -14.2348 -8.09395 L -14.2092 -8.1388 L -14.155 -8.12946 L -14.0964 -8.12764 L -14.0379 -8.12579 L -13.9792 -8.12392 L -13.9206 -8.12202 L -13.8619 -8.1201 L -13.8031 -8.11816 L -13.7443 -8.11619 L -13.6855 -8.11419 L -13.6266 -8.11217 L -13.5677 -8.11013 L -13.5088 -8.10805 L -13.4498 -8.10596 L -13.3907 -8.10383 L -13.3316 -8.10167 L -13.2725 -8.09949 L -13.2133 -8.09728 L -13.154 -8.09505 L -13.0948 -8.09278 L -13.0354 -8.09048 L -12.9761 -8.08816 L -12.9166 -8.0858 L -12.8572 -8.08342 L -12.7976 -8.081 L -12.7381 -8.07855 L -12.6784 -8.07607 L -12.6188 -8.07356 L -12.559 -8.07102 L -12.4993 -8.06844 L -12.4394 -8.06583 L -12.3796 -8.06318 L -12.3196 -8.06051 L -12.2597 -8.05779 L -12.1996 -8.05504 L -12.1395 -8.05226 L -12.0794 -8.04944 L -12.0192 -8.04658 L -11.9589 -8.04369 L -11.8986 -8.04076 L -11.8382 -8.03778 L -11.7778 -8.03478 L -11.7173 -8.03173 L -11.6568 -8.02864 L -11.5962 -8.02551 L -11.5355 -8.02234 L -11.4748 -8.01913 L -11.414 -8.01587 L -11.3532 -8.01258 L -11.2923 -8.00923 L -11.2313 -8.00585 L -11.1703 -8.00242 L -11.1092 -7.99895 L -11.048 -7.99542 L -10.9868 -7.99186 L -10.9255 -7.98824 L -10.8642 -7.98458 L -10.8028 -7.98086 L -10.7413 -7.9771 L -10.6797 -7.97329 L -10.6181 -7.96942 L -10.5564 -7.96551 L -10.4946 -7.96154 L -10.4328 -7.95752 L -10.3709 -7.95344 L -10.3089 -7.94931 L -10.2469 -7.94512 L -10.1848 -7.94088 L -10.1226 -7.93657 L -10.0603 -7.93221 L -9.99794 -7.92779 L -9.93551 -7.92331 L -9.93551 -7.92331 L -9.95377 -7.98317 L -9.97196 -8.04297 L -9.99007 -8.10271 L -10.0081 -8.16239 L -10.0261 -8.22201 L -10.044 -8.28157 L -10.0618 -8.34107 L -10.0795 -8.40052 L -10.0972 -8.4599 L -10.1148 -8.51923 L -10.1324 -8.57851 L -10.1498 -8.63773 L -10.1673 -8.69689 L -10.1846 -8.756 L -10.2019 -8.81505 L -10.2191 -8.87405 L -10.2363 -8.93299 L -10.2534 -8.99189 L -10.2704 -9.05073 L -10.2874 -9.10951 L -10.3043 -9.16825 L -10.3212 -9.22693 L -10.338 -9.28557 L -10.3548 -9.34415 L -10.3715 -9.40268 L -10.3881 -9.46117 L -10.4047 -9.5196 L -10.4212 -9.57799 L -10.4377 -9.63632 L -10.4541 -9.69461 L -10.4705 -9.75285 L -10.4868 -9.81105 L -10.5031 -9.8692 L -10.5194 -9.9273 L -10.5355 -9.98535 L -10.5517 -10.0434 L -10.5678 -10.1013 L -10.5838 -10.1592 L -10.5998 -10.2171 L -10.6157 -10.275 L -10.6316 -10.3327 L -10.6475 -10.3905 L -10.6633 -10.4482 L -10.6791 -10.5059 L -10.6948 -10.5635 L -10.7105 -10.621 L -10.7261 -10.6786 L -10.7417 -10.7361 L -10.7573 -10.7935 L -10.7728 -10.8509 L -10.7883 -10.9083 L -10.8037 -10.9656 L -10.8191 -11.0229 L -10.8345 -11.0802 L -10.8498 -11.1374 L -10.8651 -11.1946 L -10.8804 -11.2517 L -10.8956 -11.3088 L -10.9108 -11.3659 L -10.9259 -11.4229 L -10.941 -11.4799 L -10.9561 -11.5368 L -10.9711 -11.5937 L -10.9861 -11.6506 L -11.0011 -11.7074 L -11.016 -11.7642 L -11.0309 -11.821 L -11.0458 -11.8778 L -11.0606 -11.9345 L -11.0754 -11.9911 L -11.0966 -12.0419 L -11.0585 -12.0768 L -11.0204 -12.1116 L -10.9821 -12.1463 L -10.9438 -12.1809 L -10.9053 -12.2154 L -10.8667 -12.2497 L -10.828 -12.2839 L -10.7892 -12.318 L -10.7503 -12.352 L -10.7113 -12.3858 L -10.6722 -12.4195 L -10.633 -12.4531 L -10.5936 -12.4866 L -10.5542 -12.52 L -10.5147 -12.5532 L -10.475 -12.5863 L -10.4353 -12.6193 L -10.3954 -12.6521 L -10.3555 -12.6848 L -10.3154 -12.7174 L -10.2752 -12.7499 L -10.1438 -12.8547 L -10.1032 -12.8867 L -10.0625 -12.9185 L -10.0217 -12.9501 L -9.9808 -12.9817 L -9.93981 -13.0131 L -9.89871 -13.0444 L -9.85752 -13.0755 L -9.81623 -13.1066 L -9.77484 -13.1375 L -9.73336 -13.1682 L -9.69178 -13.1989 L -9.6501 -13.2294 L -9.60833 -13.2597 L -9.56646 -13.29 L -9.52449 -13.3201 L -9.48243 -13.3501 L -9.44028 -13.3799 L -9.39803 -13.4096 L -9.35569 -13.4392 L -9.31325 -13.4686 L -9.27073 -13.4979 L -9.22596 -13.466 L -9.17401 -13.439 L -9.12203 -13.4119 L -9.07003 -13.3848 L -9.018 -13.3576 L -8.96594 -13.3304 L -8.91386 -13.3032 L -8.86175 -13.2759 L -8.80961 -13.2486 L -8.75744 -13.2212 L -8.70524 -13.1938 L -8.65302 -13.1663 L -8.60077 -13.1388 L -8.54848 -13.1113 L -8.49617 -13.0837 L -8.44384 -13.0561 L -8.39147 -13.0284 L -8.33907 -13.0007 L -8.28664 -12.9729 L -8.23418 -12.9451 L -8.1817 -12.9173 L -8.12918 -12.8894 L -8.07663 -12.8614 L -8.02405 -12.8334 L -7.97144 -12.8054 L -7.9188 -12.7773 L -7.86613 -12.7491 L -7.81342 -12.7209 L -7.76069 -12.6926 L -7.70792 -12.6643 L -7.65512 -12.636 L -7.60229 -12.6076 L -7.54942 -12.5791 L -7.49652 -12.5506 L -7.44359 -12.522 L -7.39062 -12.4933 L -7.33762 -12.4646 L -7.28459 -12.4359 L -7.23152 -12.4071 L -7.17842 -12.3782 L -7.12528 -12.3493 L -7.07211 -12.3203 L -7.01891 -12.2912 L -6.96566 -12.2621 L -6.91239 -12.233 L -6.85907 -12.2037 L -6.80572 -12.1744 L -6.75234 -12.145 L -6.69891 -12.1156 L -6.64545 -12.0861 L -6.59196 -12.0565 L -6.53842 -12.0269 L -6.48485 -11.9972 L -6.43124 -11.9674 L -6.37759 -11.9376 L -6.3239 -11.9076 L -6.27018 -11.8776 L -6.21641 -11.8476 L -6.16261 -11.8174 L -6.10876 -11.7872 L -6.05488 -11.7569 L -6.00096 -11.7266 L -5.94699 -11.6961 L -5.89299 -11.6656 L -5.83894 -11.635 L -5.78486 -11.6043 L -5.73073 -11.5735 L -5.67656 -11.5426 L -5.62235 -11.5117 L -5.56809 -11.4806 L -5.51379 -11.4495 L -5.51379 -11.4495 L -5.50427 -11.5114 L -5.49471 -11.5731 L -5.48511 -11.6348 L -5.47546 -11.6964 L -5.46578 -11.7579 L -5.45605 -11.8193 L -5.44629 -11.8807 L -5.43649 -11.9419 L -5.42665 -12.0031 L -5.41678 -12.0642 L -5.40687 -12.1252 L -5.39692 -12.1862 L -5.38694 -12.247 L -5.37693 -12.3078 L -5.36688 -12.3685 L -5.3568 -12.4291 L -5.34669 -12.4897 L -5.33654 -12.5502 L -5.32637 -12.6106 L -5.31616 -12.6709 L -5.30593 -12.7312 L -5.29566 -12.7914 L -5.28536 -12.8515 L -5.27504 -12.9115 L -5.26469 -12.9715 L -5.25431 -13.0314 L -5.2439 -13.0913 L -5.23346 -13.1511 L -5.223 -13.2108 L -5.21252 -13.2704 L -5.202 -13.33 L -5.19147 -13.3895 L -5.18091 -13.449 L -5.17032 -13.5084 L -5.15971 -13.5677 L -5.14907 -13.627 L -5.13842 -13.6862 L -5.12774 -13.7453 L -5.11703 -13.8044 L -5.10631 -13.8634 L -5.09556 -13.9224 L -5.0848 -13.9813 L -5.07401 -14.0401 L -5.0632 -14.0989 L -5.05237 -14.1577 L -5.04152 -14.2163 L -5.03065 -14.275 L -5.01976 -14.3335 L -5.00885 -14.392 L -4.99793 -14.4505 L -4.98698 -14.5089 L -4.97602 -14.5673 L -4.96504 -14.6256 L -4.95404 -14.6838 L -4.94302 -14.742 L -4.93199 -14.8001 L -4.92094 -14.8582 L -4.90987 -14.9163 L -4.89879 -14.9743 L -4.88769 -15.0322 L -4.87657 -15.0901 L -4.86544 -15.148 L -4.85429 -15.2058 L -4.84313 -15.2635 L -4.83196 -15.3212 L -4.82077 -15.3789 L -4.80956 -15.4365 L -4.79834 -15.4941 L -4.78711 -15.5516 L -4.77586 -15.6091 L -4.77291 -15.664 L -4.72348 -15.6789 L -4.674 -15.6938 L -4.62448 -15.7084 L -4.57491 -15.7229 L -4.5253 -15.7373 L -4.47564 -15.7515 L -4.42594 -15.7655 L -4.37619 -15.7794 L -4.3264 -15.7931 L -4.27656 -15.8067 L -4.22669 -15.8201 L -4.17677 -15.8334 L -4.12681 -15.8465 L -4.07681 -15.8594 L -4.02677 -15.8722 L -3.97668 -15.8848 L -3.92656 -15.8973 L -3.8764 -15.9096 L -3.8262 -15.9217 L -3.77597 -15.9337 L -3.72569 -15.9455 L -3.56177 -15.9829 L -3.51134 -15.9941 L -3.46088 -16.0051 L -3.41038 -16.0159 L -3.35985 -16.0266 L -3.30928 -16.0371 L -3.25869 -16.0475 L -3.20805 -16.0577 L -3.15739 -16.0677 L -3.1067 -16.0776 L -3.05597 -16.0873 L -3.00522 -16.0969 L -2.95443 -16.1063 L -2.90362 -16.1155 L -2.85277 -16.1246 L -2.8019 -16.1335 L -2.751 -16.1423 L -2.70007 -16.1509 L -2.64912 -16.1593 L -2.59814 -16.1676 L -2.54713 -16.1757 L -2.4961 -16.1836 L -2.46962 -16.1355 L -2.43455 -16.0885 L -2.39947 -16.0416 L -2.36438 -15.9946 L -2.32929 -15.9476 L -2.29419 -15.9005 L -2.25908 -15.8533 L -2.22397 -15.8061 L -2.18885 -15.7589 L -2.15372 -15.7116 L -2.11858 -15.6643 L -2.08344 -15.6169 L -2.04829 -15.5694 L -2.01314 -15.5219 L -1.97797 -15.4744 L -1.94281 -15.4268 L -1.90763 -15.3791 L -1.87245 -15.3314 L -1.83726 -15.2837 L -1.80206 -15.2358 L -1.76686 -15.188 L -1.73165 -15.14 L -1.69643 -15.0921 L -1.66121 -15.044 L -1.62598 -14.9959 L -1.59075 -14.9477 L -1.55551 -14.8995 L -1.52026 -14.8513 L -1.48501 -14.8029 L -1.44975 -14.7545 L -1.41448 -14.706 L -1.37921 -14.6575 L -1.34393 -14.6089 L -1.30865 -14.5603 L -1.27336 -14.5116 L -1.23806 -14.4628 L -1.20276 -14.4139 L -1.16746 -14.365 L -1.13215 -14.316 L -1.09683 -14.267 L -1.06151 -14.2179 L -1.02618 -14.1687 L -0.990845 -14.1194 L -0.955507 -14.0701 L -0.920165 -14.0207 L -0.884817 -13.9712 L -0.849465 -13.9217 L -0.814108 -13.872 L -0.778747 -13.8223 L -0.743382 -13.7726 L -0.708012 -13.7227 L -0.672639 -13.6728 L -0.637261 -13.6228 L -0.60188 -13.5727 L -0.566495 -13.5225 L -0.531107 -13.4723 L -0.495716 -13.4219 L -0.460321 -13.3715 L -0.424924 -13.321 L -0.389523 -13.2704 L -0.354121 -13.2197 L -0.318716 -13.169 L -0.283308 -13.1181 L -0.247899 -13.0672 L -0.212488 -13.0162 L -0.177076 -12.965 L -0.141662 -12.9138 L -0.106248 -12.8625 L -0.0708322 -12.8111 L -0.0354163 -12.7596 L -2.22045e-15 -12.708 L -2.4484e-15 -12.708 L 0.0354163 -12.7596 L 0.0708322 -12.8111 L 0.106248 -12.8625 L 0.141662 -12.9138 L 0.177076 -12.965 L 0.212488 -13.0162 L 0.247899 -13.0672 L 0.283308 -13.1181 L 0.318716 -13.169 L 0.354121 -13.2197 L 0.389523 -13.2704 L 0.424924 -13.321 L 0.460321 -13.3715 L 0.495716 -13.4219 L 0.531107 -13.4723 L 0.566495 -13.5225 L 0.60188 -13.5727 L 0.637261 -13.6228 L 0.672639 -13.6728 L 0.708012 -13.7227 L 0.743382 -13.7726 L 0.778747 -13.8223 L 0.814108 -13.872 L 0.849465 -13.9217 L 0.884817 -13.9712 L 0.920165 -14.0207 L 0.955507 -14.0701 L 0.990845 -14.1194 L 1.02618 -14.1687 L 1.06151 -14.2179 L 1.09683 -14.267 L 1.13215 -14.316 L 1.16746 -14.365 L 1.20276 -14.4139 L 1.23806 -14.4628 L 1.27336 -14.5116 L 1.30865 -14.5603 L 1.34393 -14.6089 L 1.37921 -14.6575 L 1.41448 -14.706 L 1.44975 -14.7545 L 1.48501 -14.8029 L 1.52026 -14.8513 L 1.55551 -14.8995 L 1.59075 -14.9477 L 1.62598 -14.9959 L 1.66121 -15.044 L 1.69643 -15.0921 L 1.73165 -15.14 L 1.76686 -15.188 L 1.80206 -15.2358 L 1.83726 -15.2837 L 1.87245 -15.3314 L 1.90763 -15.3791 L 1.94281 -15.4268 L 1.97797 -15.4744 L 2.01314 -15.5219 L 2.04829 -15.5694 L 2.08344 -15.6169 L 2.11858 -15.6643 L 2.15372 -15.7116 L 2.18885 -15.7589 L 2.22397 -15.8061 L 2.25908 -15.8533 L 2.29419 -15.9005 L 2.32929 -15.9476 L 2.36438 -15.9946 L 2.39947 -16.0416 L 2.43455 -16.0885 L 2.46962 -16.1355 L 2.4961 -16.1836 L 2.54713 -16.1757 L 2.59814 -16.1676 L 2.64912 -16.1593 L 2.70007 -16.1509 L 2.751 -16.1423 L 2.8019 -16.1335 L 2.85277 -16.1246 L 2.90362 -16.1155 L 2.95443 -16.1063 L 3.00522 -16.0969 L 3.05597 -16.0873 L 3.1067 -16.0776 L 3.15739 -16.0677 L 3.20805 -16.0577 L 3.25869 -16.0475 L 3.30928 -16.0371 L 3.35985 -16.0266 L 3.41038 -16.0159 L 3.46088 -16.0051 L 3.51134 -15.9941 L 3.56177 -15.9829 L 3.72569 -15.9455 L 3.77597 -15.9337 L 3.8262 -15.9217 L 3.8764 -15.9096 L 3.92656 -15.8973 L 3.97668 -15.8848 L 4.02677 -15.8722 L 4.07681 -15.8594 L 4.12681 -15.8465 L 4.17677 -15.8334 L 4.22669 -15.8201 L 4.27656 -15.8067 L 4.3264 -15.7931 L 4.37619 -15.7794 L 4.42594 -15.7655 L 4.47564 -15.7515 L 4.5253 -15.7373 L 4.57491 -15.7229 L 4.62448 -15.7084 L 4.674 -15.6938 L 4.72348 -15.6789 L 4.77291 -15.664 L 4.77586 -15.6091 L 4.78711 -15.5516 L 4.79834 -15.4941 L 4.80956 -15.4365 L 4.82077 -15.3789 L 4.83196 -15.3212 L 4.84313 -15.2635 L 4.85429 -15.2058 L 4.86544 -15.148 L 4.87657 -15.0901 L 4.88769 -15.0322 L 4.89879 -14.9743 L 4.90987 -14.9163 L 4.92094 -14.8582 L 4.93199 -14.8001 L 4.94302 -14.742 L 4.95404 -14.6838 L 4.96504 -14.6256 L 4.97602 -14.5673 L 4.98698 -14.5089 L 4.99793 -14.4505 L 5.00885 -14.392 L 5.01976 -14.3335 L 5.03065 -14.275 L 5.04152 -14.2163 L 5.05237 -14.1577 L 5.0632 -14.0989 L 5.07401 -14.0401 L 5.0848 -13.9813 L 5.09556 -13.9224 L 5.10631 -13.8634 L 5.11703 -13.8044 L 5.12774 -13.7453 L 5.13842 -13.6862 L 5.14907 -13.627 L 5.15971 -13.5677 L 5.17032 -13.5084 L 5.18091 -13.449 L 5.19147 -13.3895 L 5.202 -13.33 L 5.21252 -13.2704 L 5.223 -13.2108 L 5.23346 -13.1511 L 5.2439 -13.0913 L 5.25431 -13.0314 L 5.26469 -12.9715 L 5.27504 -12.9115 L 5.28536 -12.8515 L 5.29566 -12.7914 L 5.30593 -12.7312 L 5.31616 -12.6709 L 5.32637 -12.6106 L 5.33654 -12.5502 L 5.34669 -12.4897 L 5.3568 -12.4291 L 5.36688 -12.3685 L 5.37693 -12.3078 L 5.38694 -12.247 L 5.39692 -12.1862 L 5.40687 -12.1252 L 5.41678 -12.0642 L 5.42665 -12.0031 L 5.43649 -11.9419 L 5.44629 -11.8807 L 5.45605 -11.8193 L 5.46578 -11.7579 L 5.47546 -11.6964 L 5.48511 -11.6348 L 5.49471 -11.5731 L 5.50427 -11.5114 L 5.51379 -11.4495 L 5.51379 -11.4495 L 5.56809 -11.4806 L 5.62235 -11.5117 L 5.67656 -11.5426 L 5.73073 -11.5735 L 5.78486 -11.6043 L 5.83894 -11.635 L 5.89299 -11.6656 L 5.94699 -11.6961 L 6.00096 -11.7266 L 6.05488 -11.7569 L 6.10876 -11.7872 L 6.16261 -11.8174 L 6.21641 -11.8476 L 6.27018 -11.8776 L 6.3239 -11.9076 L 6.37759 -11.9376 L 6.43124 -11.9674 L 6.48485 -11.9972 L 6.53842 -12.0269 L 6.59196 -12.0565 L 6.64545 -12.0861 L 6.69891 -12.1156 L 6.75234 -12.145 L 6.80572 -12.1744 L 6.85907 -12.2037 L 6.91239 -12.233 L 6.96566 -12.2621 L 7.01891 -12.2912 L 7.07211 -12.3203 L 7.12528 -12.3493 L 7.17842 -12.3782 L 7.23152 -12.4071 L 7.28459 -12.4359 L 7.33762 -12.4646 L 7.39062 -12.4933 L 7.44359 -12.522 L 7.49652 -12.5506 L 7.54942 -12.5791 L 7.60229 -12.6076 L 7.65512 -12.636 L 7.70792 -12.6643 L 7.76069 -12.6926 L 7.81342 -12.7209 L 7.86613 -12.7491 L 7.9188 -12.7773 L 7.97144 -12.8054 L 8.02405 -12.8334 L 8.07663 -12.8614 L 8.12918 -12.8894 L 8.1817 -12.9173 L 8.23418 -12.9451 L 8.28664 -12.9729 L 8.33907 -13.0007 L 8.39147 -13.0284 L 8.44384 -13.0561 L 8.49617 -13.0837 L 8.54848 -13.1113 L 8.60077 -13.1388 L 8.65302 -13.1663 L 8.70524 -13.1938 L 8.75744 -13.2212 L 8.80961 -13.2486 L 8.86175 -13.2759 L 8.91386 -13.3032 L 8.96594 -13.3304 L 9.018 -13.3576 L 9.07003 -13.3848 L 9.12203 -13.4119 L 9.17401 -13.439 L 9.22596 -13.466 L 9.27073 -13.4979 L 9.31325 -13.4686 L 9.35569 -13.4392 L 9.39803 -13.4096 L 9.44028 -13.3799 L 9.48243 -13.3501 L 9.52449 -13.3201 L 9.56646 -13.29 L 9.60833 -13.2597 L 9.6501 -13.2294 L 9.69178 -13.1989 L 9.73336 -13.1682 L 9.77484 -13.1375 L 9.81623 -13.1066 L 9.85752 -13.0755 L 9.89871 -13.0444 L 9.93981 -13.0131 L 9.9808 -12.9817 L 10.0217 -12.9501 L 10.0625 -12.9185 L 10.1032 -12.8867 L 10.1438 -12.8547 L 10.2752 -12.7499 L 10.3154 -12.7174 L 10.3555 -12.6848 L 10.3954 -12.6521 L 10.4353 -12.6193 L 10.475 -12.5863 L 10.5147 -12.5532 L 10.5542 -12.52 L 10.5936 -12.4866 L 10.633 -12.4531 L 10.6722 -12.4195 L 10.7113 -12.3858 L 10.7503 -12.352 L 10.7892 -12.318 L 10.828 -12.2839 L 10.8667 -12.2497 L 10.9053 -12.2154 L 10.9438 -12.1809 L 10.9821 -12.1463 L 11.0204 -12.1116 L 11.0585 -12.0768 L 11.0966 -12.0419 L 11.0754 -11.9911 L 11.0606 -11.9345 L 11.0458 -11.8778 L 11.0309 -11.821 L 11.016 -11.7642 L 11.0011 -11.7074 L 10.9861 -11.6506 L 10.9711 -11.5937 L 10.9561 -11.5368 L 10.941 -11.4799 L 10.9259 -11.4229 L 10.9108 -11.3659 L 10.8956 -11.3088 L 10.8804 -11.2517 L 10.8651 -11.1946 L 10.8498 -11.1374 L 10.8345 -11.0802 L 10.8191 -11.0229 L 10.8037 -10.9656 L 10.7883 -10.9083 L 10.7728 -10.8509 L 10.7573 -10.7935 L 10.7417 -10.7361 L 10.7261 -10.6786 L 10.7105 -10.621 L 10.6948 -10.5635 L 10.6791 -10.5059 L 10.6633 -10.4482 L 10.6475 -10.3905 L 10.6316 -10.3327 L 10.6157 -10.275 L 10.5998 -10.2171 L 10.5838 -10.1592 L 10.5678 -10.1013 L 10.5517 -10.0434 L 10.5355 -9.98535 L 10.5194 -9.9273 L 10.5031 -9.8692 L 10.4868 -9.81105 L 10.4705 -9.75285 L 10.4541 -9.69461 L 10.4377 -9.63632 L 10.4212 -9.57799 L 10.4047 -9.5196 L 10.3881 -9.46117 L 10.3715 -9.40268 L 10.3548 -9.34415 L 10.338 -9.28557 L 10.3212 -9.22693 L 10.3043 -9.16825 L 10.2874 -9.10951 L 10.2704 -9.05073 L 10.2534 -8.99189 L 10.2363 -8.93299 L 10.2191 -8.87405 L 10.2019 -8.81505 L 10.1846 -8.756 L 10.1673 -8.69689 L 10.1498 -8.63773 L 10.1324 -8.57851 L 10.1148 -8.51923 L 10.0972 -8.4599 L 10.0795 -8.40052 L 10.0618 -8.34107 L 10.044 -8.28157 L 10.0261 -8.22201 L 10.0081 -8.16239 L 9.99007 -8.10271 L 9.97196 -8.04297 L 9.95377 -7.98317 L 9.93551 -7.92331 L 9.93551 -7.92331 L 9.99794 -7.92779 L 10.0603 -7.93221 L 10.1226 -7.93657 L 10.1848 -7.94088 L 10.2469 -7.94512 L 10.3089 -7.94931 L 10.3709 -7.95344 L 10.4328 -7.95752 L 10.4946 -7.96154 L 10.5564 -7.96551 L 10.6181 -7.96942 L 10.6797 -7.97329 L 10.7413 -7.9771 L 10.8028 -7.98086 L 10.8642 -7.98458 L 10.9255 -7.98824 L 10.9868 -7.99186 L 11.048 -7.99542 L 11.1092 -7.99895 L 11.1703 -8.00242 L 11.2313 -8.00585 L 11.2923 -8.00923 L 11.3532 -8.01258 L 11.414 -8.01587 L 11.4748 -8.01913 L 11.5355 -8.02234 L 11.5962 -8.02551 L 11.6568 -8.02864 L 11.7173 -8.03173 L 11.7778 -8.03478 L 11.8382 -8.03778 L 11.8986 -8.04076 L 11.9589 -8.04369 L 12.0192 -8.04658 L 12.0794 -8.04944 L 12.1395 -8.05226 L 12.1996 -8.05504 L 12.2597 -8.05779 L 12.3196 -8.06051 L 12.3796 -8.06318 L 12.4394 -8.06583 L 12.4993 -8.06844 L 12.559 -8.07102 L 12.6188 -8.07356 L 12.6784 -8.07607 L 12.7381 -8.07855 L 12.7976 -8.081 L 12.8572 -8.08342 L 12.9166 -8.0858 L 12.9761 -8.08816 L 13.0354 -8.09048 L 13.0948 -8.09278 L 13.154 -8.09505 L 13.2133 -8.09728 L 13.2725 -8.09949 L 13.3316 -8.10167 L 13.3907 -8.10383 L 13.4498 -8.10596 L 13.5088 -8.10805 L 13.5677 -8.11013 L 13.6266 -8.11217 L 13.6855 -8.11419 L 13.7443 -8.11619 L 13.8031 -8.11816 L 13.8619 -8.1201 L 13.9206 -8.12202 L 13.9792 -8.12392 L 14.0379 -8.12579 L 14.0964 -8.12764 L 14.155 -8.12946 L 14.2092 -8.1388 L 14.2348 -8.09395 L 14.2602 -8.04901 L 14.2855 -8.00399 L 14.3107 -7.95889 L 14.3357 -7.91372 L 14.3606 -7.86846 L 14.3854 -7.82313 L 14.41 -7.77772 L 14.4344 -7.73223 L 14.4588 -7.68666 L 14.4829 -7.64102 L 14.507 -7.5953 L 14.5308 -7.54951 L 14.5546 -7.50364 L 14.5782 -7.4577 L 14.6016 -7.41168 L 14.6249 -7.36559 L 14.6481 -7.31942 L 14.6711 -7.27319 L 14.694 -7.22688 L 14.7167 -7.18049 L 14.7896 -7.02901 L 14.8117 -6.98233 L 14.8337 -6.93558 L 14.8555 -6.88876 L 14.8771 -6.84187 L 14.8987 -6.79491 L 14.92 -6.74788 L 14.9412 -6.70079 L 14.9623 -6.65363 L 14.9832 -6.60641 L 15.004 -6.55912 L 15.0246 -6.51176 L 15.045 -6.46434 L 15.0653 -6.41685 L 15.0855 -6.36931 L 15.1055 -6.32169 L 15.1254 -6.27402 L 15.1451 -6.22628 L 15.1647 -6.17848 L 15.1841 -6.13062 L 15.2033 -6.0827 L 15.2224 -6.03472 L 15.1814 -5.99818 L 15.1434 -5.95355 L 15.1055 -5.9089 L 15.0675 -5.86424 L 15.0294 -5.81955 L 14.9913 -5.77485 L 14.9531 -5.73014 L 14.915 -5.6854 L 14.8767 -5.64065 L 14.8384 -5.59588 L 14.8001 -5.55109 L 14.7617 -5.50628 L 14.7233 -5.46146 L 14.6848 -5.41662 L 14.6463 -5.37176 L 14.6077 -5.32688 L 14.5691 -5.28198 L 14.5304 -5.23706 L 14.4916 -5.19213 L 14.4528 -5.14717 L 14.414 -5.1022 L 14.3751 -5.05721 L 14.3362 -5.0122 L 14.2972 -4.96717 L 14.2581 -4.92212 L 14.219 -4.87705 L 14.1798 -4.83197 L 14.1406 -4.78686 L 14.1013 -4.74173 L 14.062 -4.69659 L 14.0226 -4.65142 L 13.9831 -4.60624 L 13.9436 -4.56103 L 13.904 -4.51581 L 13.8644 -4.47056 L 13.8247 -4.4253 L 13.7849 -4.38001 L 13.7451 -4.3347 L 13.7052 -4.28938 L 13.6652 -4.24403 L 13.6252 -4.19866 L 13.5851 -4.15328 L 13.5449 -4.10787 L 13.5047 -4.06244 L 13.4644 -4.01699 L 13.424 -3.97152 L 13.3836 -3.92603 L 13.3431 -3.88051 L 13.3025 -3.83498 L 13.2618 -3.78943 L 13.2211 -3.74385 L 13.1803 -3.69825 L 13.1394 -3.65263 L 13.0984 -3.60699 L 13.0574 -3.56133 L 13.0163 -3.51565 L 12.9751 -3.46994 L 12.9338 -3.42422 L 12.8925 -3.37847 L 12.851 -3.3327 L 12.8095 -3.28691 L 12.7679 -3.2411 L 12.7262 -3.19526 L 12.6844 -3.14941 L 12.6425 -3.10353 L 12.6006 -3.05763 L 12.5585 -3.0117 L 12.5164 -2.96576 L 12.4741 -2.91979 L 12.4318 -2.87381 L 12.3894 -2.8278 L 12.3894 -2.8278 L 12.4476 -2.80475 L 12.5057 -2.78168 L 12.5637 -2.75859 L 12.6216 -2.73548 L 12.6794 -2.71235 L 12.7371 -2.68921 L 12.7947 -2.66604 L 12.8523 -2.64285 L 12.9097 -2.61965 L 12.9671 -2.59643 L 13.0244 -2.57319 L 13.0816 -2.54993 L 13.1387 -2.52666 L 13.1957 -2.50337 L 13.2527 -2.48007 L 13.3095 -2.45675 L 13.3663 -2.43341 L 13.423 -2.41007 L 13.4796 -2.3867 L 13.5362 -2.36333 L 13.5927 -2.33994 L 13.6491 -2.31654 L 13.7054 -2.29312 L 13.7616 -2.26969 L 13.8178 -2.24625 L 13.8739 -2.2228 L 13.9299 -2.19934 L 13.9859 -2.17586 L 14.0418 -2.15238 L 14.0976 -2.12888 L 14.1533 -2.10537 L 14.209 -2.08186 L 14.2646 -2.05833 L 14.3202 -2.03479 L 14.3757 -2.01125 L 14.4311 -1.98769 L 14.4864 -1.96413 L 14.5417 -1.94056 L 14.5969 -1.91697 L 14.6521 -1.89339 L 14.7072 -1.86979 L 14.7622 -1.84618 L 14.8172 -1.82257 L 14.8721 -1.79895 L 14.927 -1.77532 L 14.9817 -1.75169 L 15.0365 -1.72804 L 15.0912 -1.7044 L 15.1458 -1.68074 L 15.2003 -1.65708 L 15.2548 -1.63341 L 15.3093 -1.60974 L 15.3637 -1.58606 L 15.418 -1.56238 L 15.4723 -1.53869 L 15.5265 -1.51499 L 15.5807 -1.49129 L 15.6349 -1.46758 L 15.6889 -1.44387 L 15.7429 -1.42016 L 15.7969 -1.39644 L 15.8508 -1.37271 L 15.9047 -1.34899 L 15.9585 -1.32525 L 16.0123 -1.30152 L 16.066 -1.27777 L 16.1197 -1.25403 L 16.1733 -1.23028 L 16.2269 -1.20653 L 16.2804 -1.18277 L 16.3333 -1.16768 L 16.3369 -1.11616 L 16.3404 -1.06463 L 16.3436 -1.01308 L 16.3467 -0.961528 L 16.3497 -0.909964 L 16.3525 -0.858392 L 16.3551 -0.80681 L 16.3576 -0.755221 L 16.3599 -0.703625 L 16.362 -0.652021 L 16.364 -0.600411 L 16.3658 -0.548795 L 16.3675 -0.497174 L 16.3689 -0.445547 L 16.3703 -0.393916 L 16.3714 -0.342281 L 16.3724 -0.290643 L 16.3733 -0.239002 L 16.3739 -0.187359 L 16.3744 -0.135713 L 16.3748 -0.0840665Z"
id="path1" />
</g>
</svg>
