<?xml version="1.0" encoding="UTF-8" standalone="no"?>
<svg version="1.1">
<g
style="fill:none;stroke:#000000;stroke-opacity:1;stroke-width:0.1">
<path d="M 16.3749 0.0669009 L 16.3746 0.119013 L 16.3741 0.171123 L 16.3735 0.223232 L 16.3727 0.275339 L 16.3717 0.327443 L 16.3706 0.379543 L 16.3693 0.43164 L 16.3679 0.483732 L 16.3662 0.53582 L 16.3644 0.587901 L 16.3625 0.639977 L 16.3604 0.692047 L 16.3581 0.74411 L 16.3556 0.796165 L 16.353 0.848211 L 16.3502 0.90025 L 16.3473 0.952279 L 16.3442 1.0043 L 16.3409 1.05631 L 16.3375 1.10831 L 16.3338 1.16029 L 16.2805 1.17546 L 16.2265 1.19922 L 16.1725 1.22297 L 16.1184 1.24672 L 16.0643 1.27046 L 16.0101 1.2942 L 15.9559 1.31794 L 15.9016 1.34167 L 15.8473 1.3654 L 15.7929 1.38913 L 15.7385 1.41285 L 15.684 1.43656 L 15.6295 1.46027 L 15.5749 1.48398 L 15.5203 1.50768 L 15.4656 1.53137 L 15.4108 1.55506 L 15.356 1.57875 L 15.3012 1.60243 L 15.2463 1.6261 L 15.1913 1.64977 L 15.1363 1.67343 L 15.0812 1.69708 L 15.0261 1.72073 L 14.9709 1.74437 L 14.9157 1.76801 L 14.8603 1.79164 L 14.805 1.81526 L 14.7495 1.83887 L 14.6941 1.86248 L 14.6385 1.88607 L 14.5829 1.90966 L 14.5272 1.93324 L 14.4715 1.95682 L 14.4157 1.98038 L 14.3598 2.00394 L 14.3039 2.02748 L 14.2479 2.05102 L 14.1918 2.07455 L 14.1356 2.09806 L 14.0794 2.12157 L 14.0232 2.14507 L 13.9668 2.16855 L 13.9104 2.19203 L 13.8539 2.21549 L 13.7973 2.23894 L 13.7407 2.26238 L 13.684 2.28581 L 13.6272 2.30922 L 13.5703 2.33262 L 13.5134 2.35601 L 13.4564 2.37939 L 13.3993 2.40275 L 13.3421 2.4261 L 13.2849 2.44943 L 13.2275 2.47275 L 13.1701 2.49605 L 13.1126 2.51934 L 13.0551 2.54261 L 12.9974 2.56586 L 12.9396 2.5891 L 12.8818 2.61232 L 12.8239 2.63553 L 12.7659 2.65871 L 12.7078 2.68188 L 12.6496 2.70502 L 12.5913 2.72815 L 12.5329 2.75126 L 12.4744 2.77434 L 12.4159 2.79741 L 12.3572 2.82045 L 12.3572 2.82045 L 12.4001 2.86667 L 12.4428 2.91286 L 12.4855 2.95903 L 12.5281 3.00518 L 12.5705 3.0513 L 12.6129 3.09741 L 12.6552 3.14349 L 12.6974 3.18955 L 12.7395 3.23558 L 12.7816 3.2816 L 12.8235 3.32759 L 12.8654 3.37356 L 12.9072 3.41951 L 12.9489 3.46544 L 12.9905 3.51135 L 13.032 3.55723 L 13.0735 3.60309 L 13.1149 3.64894 L 13.1562 3.69476 L 13.1974 3.74055 L 13.2385 3.78633 L 13.2796 3.83209 L 13.3206 3.87782 L 13.3616 3.92353 L 13.4024 3.96923 L 13.4432 4.0149 L 13.4839 4.06055 L 13.5246 4.10617 L 13.5651 4.15178 L 13.6056 4.19737 L 13.6461 4.24294 L 13.6865 4.28848 L 13.7268 4.33401 L 13.767 4.37951 L 13.8072 4.425 L 13.8473 4.47046 L 13.8874 4.5159 L 13.9274 4.56133 L 13.9673 4.60673 L 14.0072 4.65212 L 14.047 4.69748 L 14.0867 4.74282 L 14.1264 4.78815 L 14.1661 4.83345 L 14.2056 4.87874 L 14.2452 4.924 L 14.2846 4.96925 L 14.324 5.01448 L 14.3634 5.05969 L 14.4027 5.10488 L 14.442 5.15005 L 14.4812 5.1952 L 14.5203 5.24033 L 14.5594 5.28544 L 14.5984 5.33054 L 14.6374 5.37561 L 14.6764 5.42067 L 14.7153 5.46571 L 14.7541 5.51073 L 14.7929 5.55574 L 14.8316 5.60072 L 14.8703 5.64569 L 14.909 5.69064 L 14.9476 5.73557 L 14.9861 5.78049 L 15.0246 5.82538 L 15.0631 5.87026 L 15.1015 5.91512 L 15.1399 5.95997 L 15.1782 6.00479 L 15.2197 6.0416 L 15.2004 6.09 L 15.181 6.13835 L 15.1613 6.18663 L 15.1416 6.23485 L 15.1217 6.283 L 15.1016 6.3311 L 15.0814 6.37912 L 15.061 6.42709 L 15.0405 6.47499 L 15.0198 6.52282 L 14.9989 6.57058 L 14.9779 6.61828 L 14.9568 6.66592 L 14.9355 6.71348 L 14.9141 6.76098 L 14.8925 6.80841 L 14.8707 6.85577 L 14.8489 6.90306 L 14.8268 6.95028 L 14.8046 6.99743 L 14.7823 7.04451 L 14.7242 7.16506 L 14.7013 7.21189 L 14.6783 7.25864 L 14.6551 7.30531 L 14.6318 7.35191 L 14.6083 7.39844 L 14.5847 7.44489 L 14.561 7.49127 L 14.537 7.53757 L 14.513 7.5838 L 14.4888 7.62995 L 14.4644 7.67602 L 14.4399 7.72201 L 14.4153 7.76793 L 14.3905 7.81376 L 14.3655 7.85952 L 14.3404 7.9052 L 14.3152 7.9508 L 14.2898 7.99631 L 14.2643 8.04175 L 14.2387 8.0871 L 14.2128 8.13238 L 14.1582 8.1229 L 14.0993 8.12088 L 14.0403 8.11884 L 13.9813 8.11677 L 13.9222 8.11467 L 13.8631 8.11256 L 13.8039 8.11042 L 13.7447 8.10825 L 13.6855 8.10606 L 13.6262 8.10384 L 13.5669 8.1016 L 13.5075 8.09933 L 13.4481 8.09703 L 13.3886 8.09471 L 13.3291 8.09236 L 13.2696 8.08998 L 13.21 8.08757 L 13.1503 8.08513 L 13.0906 8.08267 L 13.0309 8.08018 L 12.9711 8.07765 L 12.9113 8.0751 L 12.8514 8.07252 L 12.7914 8.0699 L 12.7315 8.06726 L 12.6714 8.06458 L 12.6113 8.06187 L 12.5512 8.05913 L 12.491 8.05635 L 12.4308 8.05354 L 12.3705 8.0507 L 12.3102 8.04782 L 12.2498 8.04491 L 12.1893 8.04197 L 12.1288 8.03898 L 12.0682 8.03596 L 12.0076 8.03291 L 11.947 8.02981 L 11.8862 8.02668 L 11.8255 8.02351 L 11.7646 8.0203 L 11.7037 8.01706 L 11.6428 8.01377 L 11.5817 8.01044 L 11.5207 8.00707 L 11.4595 8.00366 L 11.3983 8.0002 L 11.3371 7.9967 L 11.2758 7.99316 L 11.2144 7.98957 L 11.1529 7.98594 L 11.0914 7.98227 L 11.0298 7.97854 L 10.9682 7.97477 L 10.9065 7.97095 L 10.8447 7.96709 L 10.7829 7.96317 L 10.721 7.95921 L 10.659 7.95519 L 10.597 7.95112 L 10.5348 7.947 L 10.4727 7.94283 L 10.4104 7.9386 L 10.3481 7.93432 L 10.2857 7.92998 L 10.2232 7.92558 L 10.1607 7.92113 L 10.098 7.91662 L 10.0353 7.91205 L 9.97256 7.90742 L 9.90971 7.90273 L 9.90971 7.90273 L 9.92827 7.96296 L 9.94675 8.02313 L 9.96516 8.08324 L 9.98349 8.14329 L 10.0018 8.20328 L 10.0199 8.26321 L 10.0381 8.32308 L 10.0561 8.38289 L 10.0741 8.44264 L 10.092 8.50234 L 10.1098 8.56198 L 10.1276 8.62156 L 10.1453 8.68109 L 10.1629 8.74056 L 10.1805 8.79998 L 10.198 8.85934 L 10.2155 8.91865 L 10.2329 8.97791 L 10.2502 9.03711 L 10.2675 9.09626 L 10.2847 9.15536 L 10.3018 9.2144 L 10.3189 9.2734 L 10.336 9.33234 L 10.353 9.39124 L 10.3699 9.45008 L 10.3868 9.50888 L 10.4036 9.56762 L 10.4204 9.62632 L 10.4371 9.68497 L 10.4538 9.74357 L 10.4704 9.80212 L 10.4869 9.86063 L 10.5035 9.91909 L 10.5199 9.9775 L 10.5363 10.0359 L 10.5527 10.0942 L 10.569 10.1525 L 10.5853 10.2107 L 10.6015 10.2689 L 10.6177 10.327 L 10.6339 10.3851 L 10.65 10.4432 L 10.666 10.5012 L 10.682 10.5592 L 10.698 10.6171 L 10.7139 10.675 L 10.7298 10.7329 L 10.7457 10.7907 L 10.7615 10.8484 L 10.7772 10.9062 L 10.793 10.9638 L 10.8086 11.0215 L 10.8243 11.0791 L 10.8399 11.1367 L 10.8555 11.1942 L 10.871 11.2517 L 10.8865 11.3091 L 10.902 11.3666 L 10.9174 11.4239 L 10.9328 11.4813 L 10.9481 11.5386 L 10.9634 11.5959 L 10.9787 11.6531 L 10.994 11.7103 L 11.0092 11.7674 L 11.0244 11.8246 L 11.0395 11.8817 L 11.0547 11.9387 L 11.0697 11.9957 L 11.0911 12.0469 L 11.0527 12.0821 L 11.0142 12.1172 L 10.9756 12.1522 L 10.9369 12.1871 L 10.898 12.2218 L 10.8591 12.2565 L 10.82 12.2909 L 10.7809 12.3253 L 10.7416 12.3596 L 10.7022 12.3937 L 10.6627 12.4277 L 10.6231 12.4616 L 10.5834 12.4953 L 10.5436 12.5289 L 10.5036 12.5624 L 10.4636 12.5958 L 10.4235 12.629 L 10.3832 12.6621 L 10.3429 12.6951 L 10.3024 12.7279 L 10.2619 12.7607 L 10.1573 12.8441 L 10.1163 12.8764 L 10.0753 12.9085 L 10.0342 12.9405 L 9.99293 12.9724 L 9.9516 13.0041 L 9.91016 13.0357 L 9.86863 13.0672 L 9.82699 13.0985 L 9.78526 13.1297 L 9.74342 13.1608 L 9.70149 13.1917 L 9.65946 13.2225 L 9.61733 13.2532 L 9.5751 13.2837 L 9.53278 13.3142 L 9.49036 13.3444 L 9.44784 13.3746 L 9.40523 13.4046 L 9.36253 13.4344 L 9.31972 13.4642 L 9.27683 13.4937 L 9.23172 13.4615 L 9.17949 13.4341 L 9.12723 13.4067 L 9.07494 13.3792 L 9.02263 13.3517 L 8.97029 13.3241 L 8.91792 13.2965 L 8.86552 13.2689 L 8.8131 13.2412 L 8.76065 13.2135 L 8.70817 13.1857 L 8.65566 13.1579 L 8.60313 13.1301 L 8.55056 13.1022 L 8.49797 13.0742 L 8.44535 13.0463 L 8.39269 13.0182 L 8.34001 12.9902 L 8.2873 12.962 L 8.23456 12.9339 L 8.18179 12.9057 L 8.12899 12.8774 L 8.07616 12.8491 L 8.02329 12.8207 L 7.9704 12.7923 L 7.91747 12.7639 L 7.86452 12.7354 L 7.81153 12.7068 L 7.75851 12.6782 L 7.70545 12.6495 L 7.65237 12.6208 L 7.59925 12.592 L 7.5461 12.5632 L 7.49291 12.5343 L 7.43969 12.5054 L 7.38644 12.4764 L 7.33316 12.4473 L 7.27984 12.4182 L 7.22648 12.389 L 7.1731 12.3598 L 7.11967 12.3305 L 7.06621 12.3012 L 7.01272 12.2718 L 6.95919 12.2423 L 6.90563 12.2127 L 6.85203 12.1831 L 6.79839 12.1535 L 6.74471 12.1238 L 6.691 12.094 L 6.63725 12.0641 L 6.58347 12.0342 L 6.52964 12.0042 L 6.47578 11.9741 L 6.42188 11.9439 L 6.36794 11.9137 L 6.31397 11.8834 L 6.25995 11.8531 L 6.2059 11.8227 L 6.1518 11.7921 L 6.09767 11.7616 L 6.04349 11.7309 L 5.98928 11.7002 L 5.93502 11.6693 L 5.88072 11.6384 L 5.82639 11.6075 L 5.77201 11.5764 L 5.71759 11.5452 L 5.66312 11.514 L 5.60862 11.4827 L 5.55407 11.4513 L 5.49948 11.4198 L 5.49948 11.4198 L 5.49006 11.4821 L 5.48061 11.5443 L 5.47111 11.6065 L 5.46157 11.6685 L 5.452 11.7305 L 5.44238 11.7924 L 5.43272 11.8542 L 5.42303 11.9159 L 5.4133 11.9775 L 5.40353 12.0391 L 5.39373 12.1006 L 5.38389 12.162 L 5.37401 12.2233 L 5.3641 12.2845 L 5.35416 12.3457 L 5.34418 12.4068 L 5.33417 12.4678 L 5.32413 12.5287 L 5.31406 12.5896 L 5.30396 12.6503 L 5.29383 12.7111 L 5.28366 12.7717 L 5.27347 12.8323 L 5.26325 12.8928 L 5.253 12.9532 L 5.24272 13.0136 L 5.23242 13.0739 L 5.22209 13.1341 L 5.21173 13.1942 L 5.20135 13.2543 L 5.19094 13.3144 L 5.1805 13.3743 L 5.17004 13.4342 L 5.15956 13.4941 L 5.14905 13.5538 L 5.13852 13.6136 L 5.12796 13.6732 L 5.11738 13.7328 L 5.10678 13.7923 L 5.09616 13.8518 L 5.08551 13.9112 L 5.07485 13.9706 L 5.06416 14.0299 L 5.05345 14.0891 L 5.04273 14.1483 L 5.03198 14.2074 L 5.02121 14.2665 L 5.01042 14.3255 L 4.99961 14.3844 L 4.98879 14.4433 L 4.97795 14.5022 L 4.96708 14.561 L 4.9562 14.6197 L 4.94531 14.6784 L 4.93439 14.737 L 4.92346 14.7956 L 4.91251 14.8542 L 4.90154 14.9127 L 4.89056 14.9711 L 4.87956 15.0295 L 4.86855 15.0878 L 4.85752 15.1461 L 4.84647 15.2044 L 4.83541 15.2626 L 4.82434 15.3207 L 4.81325 15.3788 L 4.80214 15.4369 L 4.79102 15.4949 L 4.77989 15.5528 L 4.76874 15.6108 L 4.76582 15.6661 L 4.71594 15.6812 L 4.66602 15.6961 L 4.61604 15.7109 L 4.56602 15.7255 L 4.51595 15.74 L 4.46583 15.7543 L 4.41567 15.7684 L 4.36547 15.7824 L 4.31522 15.7962 L 4.26493 15.8098 L 4.21459 15.8233 L 4.16421 15.8367 L 4.11379 15.8498 L 4.06333 15.8628 L 4.01283 15.8757 L 3.96228 15.8884 L 3.9117 15.9009 L 3.86108 15.9133 L 3.81041 15.9255 L 3.75971 15.9375 L 3.70897 15.9494 L 3.57853 15.9792 L 3.52766 15.9905 L 3.47675 16.0017 L 3.42581 16.0126 L 3.37483 16.0235 L 3.32382 16.0341 L 3.27277 16.0446 L 3.2217 16.0549 L 3.17059 16.0651 L 3.11944 16.0751 L 3.06827 16.085 L 3.01706 16.0947 L 2.96583 16.1042 L 2.91456 16.1135 L 2.86327 16.1227 L 2.81194 16.1318 L 2.76059 16.1406 L 2.70921 16.1493 L 2.6578 16.1579 L 2.60637 16.1662 L 2.55491 16.1745 L 2.50342 16.1825 L 2.47676 16.1339 L 2.44159 16.0865 L 2.40641 16.0391 L 2.37122 15.9917 L 2.33603 15.9442 L 2.30083 15.8967 L 2.26562 15.8491 L 2.2304 15.8015 L 2.19518 15.7538 L 2.15995 15.706 L 2.12472 15.6583 L 2.08947 15.6104 L 2.05422 15.5625 L 2.01897 15.5146 L 1.9837 15.4666 L 1.94843 15.4186 L 1.91316 15.3705 L 1.87787 15.3223 L 1.84258 15.2741 L 1.80729 15.2259 L 1.77198 15.1775 L 1.73667 15.1292 L 1.70135 15.0807 L 1.66603 15.0323 L 1.6307 14.9837 L 1.59536 14.9351 L 1.56002 14.8864 L 1.52467 14.8377 L 1.48932 14.7889 L 1.45396 14.7401 L 1.41859 14.6912 L 1.38321 14.6422 L 1.34784 14.5932 L 1.31245 14.5441 L 1.27706 14.4949 L 1.24166 14.4457 L 1.20626 14.3964 L 1.17085 14.347 L 1.13544 14.2976 L 1.10002 14.2481 L 1.06459 14.1985 L 1.02916 14.1489 L 0.993727 14.0992 L 0.958286 14.0494 L 0.922841 13.9995 L 0.887391 13.9496 L 0.851937 13.8996 L 0.816477 13.8495 L 0.781014 13.7994 L 0.745546 13.7492 L 0.710073 13.6989 L 0.674597 13.6485 L 0.639117 13.598 L 0.603633 13.5475 L 0.568145 13.4969 L 0.532654 13.4461 L 0.49716 13.3954 L 0.461662 13.3445 L 0.426162 13.2935 L 0.390658 13.2425 L 0.355153 13.1913 L 0.319644 13.1401 L 0.284134 13.0888 L 0.248622 13.0374 L 0.213108 12.9859 L 0.177592 12.9343 L 0.142075 12.8827 L 0.106557 12.8309 L 0.0710387 12.779 L 0.0355195 12.7271 L 8.88178e-16 12.675 L 6.64061e-16 12.675 L -0.0355195 12.7271 L -0.0710387 12.779 L -0.106557 12.8309 L -0.142075 12.8827 L -0.177592 12.9343 L -0.213108 12.9859 L -0.248622 13.0374 L -0.284134 13.0888 L -0.319644 13.1401 L -0.355153 13.1913 L -0.390658 13.2425 L -0.426162 13.2935 L -0.461662 13.3445 L -0.49716 13.3954 L -0.532654 13.4461 L -0.568145 13.4969 L -0.603633 13.5475 L -0.639117 13.598 L -0.674597 13.6485 L -0.710073 13.6989 L -0.745546 13.7492 L -0.781014 13.7994 L -0.816477 13.8495 L -0.851937 13.8996 L -0.887391 13.9496 L -0.922841 13.9995 L -0.958286 14.0494 L -0.993727 14.0992 L -1.02916 14.1489 L -1.06459 14.1985 L -1.10002 14.2481 L -1.13544 14.2976 L -1.17085 14.347 L -1.20626 14.3964 L -1.24166 14.4457 L -1.27706 14.4949 L -1.31245 14.5441 L -1.34784 14.5932 L -1.38321 14.6422 L -1.41859 14.6912 L -1.45396 14.7401 L -1.48932 14.7889 L -1.52467 14.8377 L -1.56002 14.8864 L -1.59536 14.9351 L -1.6307 14.9837 L -1.66603 15.0323 L -1.70135 15.0807 L -1.73667 15.1292 L -1.77198 15.1775 L -1.80729 15.2259 L -1.84258 15.2741 L -1.87787 15.3223 L -1.91316 15.3705 L -1.94843 15.4186 L -1.9837 15.4666 L -2.01897 15.5146 L -2.05422 15.5625 L -2.08947 15.6104 L -2.12472 15.6583 L -2.15995 15.706 L -2.19518 15.7538 L -2.2304 15.8015 L -2.26562 15.8491 L -2.30083 15.8967 L -2.33603 15.9442 L -2.37122 15.9917 L -2.40641 16.0391 L -2.44159 16.0865 L -2.47676 16.1339 L -2.50342 16.1825 L -2.55491 16.1745 L -2.60637 16.1662 L -2.6578 16.1579 L -2.70921 16.1493 L -2.76059 16.1406 L -2.81194 16.1318 L -2.86327 16.1227 L -2.91456 16.1135 L -2.96583 16.1042 L -3.01706 16.0947 L -3.06827 16.085 L -3.11944 16.0751 L -3.17059 16.0651 L -3.2217 16.0549 L -3.27277 16.0446 L -3.32382 16.0341 L -3.37483 16.0235 L -3.42581 16.0126 L -3.47675 16.0017 L -3.52766 15.9905 L -3.57853 15.9792 L -3.70897 15.9494 L -3.75971 15.9375 L -3.81041 15.9255 L -3.86108 15.9133 L -3.9117 15.9009 L -3.96228 15.8884 L -4.01283 15.8757 L -4.06333 15.8628 L -4.11379 15.8498 L -4.16421 15.8367 L -4.21459 15.8233 L -4.26493 15.8098 L -4.31522 15.7962 L -4.36547 15.7824 L -4.41567 15.7684 L -4.46583 15.7543 L -4.51595 15.74 L -4.56602 15.7255 L -4.61604 15.7109 L -4.66602 15.6961 L -4.71594 15.6812 L -4.76582 15.6661 L -4.76874 15.6108 L -4.77989 15.5528 L -4.79102 15.4949 L -4.80214 15.4369 L -4.81325 15.3788 L -4.82434 15.3207 L -4.83541 15.2626 L -4.84647 15.2044 L -4.85752 15.1461 L -4.86855 15.0878 L -4.87956 15.0295 L -4.89056 14.9711 L -4.90154 14.9127 L -4.91251 14.8542 L -4.92346 14.7956 L -4.93439 14.737 L -4.94531 14.6784 L -4.9562 14.6197 L -4.96708 14.561 L -4.97795 14.5022 L -4.98879 14.4433 L -4.99961 14.3844 L -5.01042 14.3255 L -5.02121 14.2665 L -5.03198 14.2074 L -5.04273 14.1483 L -5.05345 14.0891 L -5.06416 14.0299 L -5.07485 13.9706 L -5.08551 13.9112 L -5.09616 13.8518 L -5.10678 13.7923 L -5.11738 13.7328 L -5.12796 13.6732 L -5.13852 13.6136 L -5.14905 13.5538 L -5.15956 13.4941 L -5.17004 13.4342 L -5.1805 13.3743 L -5.19094 13.3144 L -5.20135 13.2543 L -5.21173 13.1942 L -5.22209 13.1341 L -5.23242 13.0739 L -5.24272 13.0136 L -5.253 12.9532 L -5.26325 12.8928 L -5.27347 12.8323 L -5.28366 12.7717 L -5.29383 12.7111 L -5.30396 12.6503 L -5.31406 12.5896 L -5.32413 12.5287 L -5.33417 12.4678 L -5.34418 12.4068 L -5.35416 12.3457 L -5.3641 12.2845 L -5.37401 12.2233 L -5.38389 12.162 L -5.39373 12.1006 L -5.40353 12.0391 L -5.4133 11.9775 L -5.42303 11.9159 L -5.43272 11.8542 L -5.44238 11.7924 L -5.452 11.7305 L -5.46157 11.6685 L -5.47111 11.6065 L -5.48061 11.5443 L -5.49006 11.4821 L -5.49948 11.4198 L -5.49948 11.4198 L -5.55407 11.4513 L -5.60862 11.4827 L -5.66312 11.514 L -5.71759 11.5452 L -5.77201 11.5764 L -5.82639 11.6075 L -5.88072 11.6384 L -5.93502 11.6693 L -5.98928 11.7002 L -6.04349 11.7309 L -6.09767 11.7616 L -6.1518 11.7921 L -6.2059 11.8227 L -6.25995 11.8531 L -6.31397 11.8834 L -6.36794 11.9137 L -6.42188 11.9439 L -6.47578 11.9741 L -6.52964 12.0042 L -6.58347 12.0342 L -6.63725 12.0641 L -6.691 12.094 L -6.74471 12.1238 L -6.79839 12.1535 L -6.85203 12.1831 L -6.90563 12.2127 L -6.95919 12.2423 L -7.01272 12.2718 L -7.06621 12.3012 L -7.11967 12.3305 L -7.1731 12.3598 L -7.22648 12.389 L -7.27984 12.4182 L -7.33316 12.4473 L -7.38644 12.4764 L -7.43969 12.5054 L -7.49291 12.5343 L -7.5461 12.5632 L -7.59925 12.592 L -7.65237 12.6208 L -7.70545 12.6495 L -7.75851 12.6782 L -7.81153 12.7068 L -7.86452 12.7354 L -7.91747 12.7639 L -7.9704 12.7923 L -8.02329 12.8207 L -8.07616 12.8491 L -8.12899 12.8774 L -8.18179 12.9057 L -8.23456 12.9339 L -8.2873 12.962 L -8.34001 12.9902 L -8.39269 13.0182 L -8.44535 13.0463 L -8.49797 13.0742 L -8.55056 13.1022 L -8.60313 13.1301 L -8.65566 13.1579 L -8.70817 13.1857 L -8.76065 13.2135 L -8.8131 13.2412 L -8.86552 13.2689 L -8.91792 13.2965 L -8.97029 13.3241 L -9.02263 13.3517 L -9.07494 13.3792 L -9.12723 13.4067 L -9.17949 13.4341 L -9.23172 13.4615 L -9.27683 13.4937 L -9.31972 13.4642 L -9.36253 13.4344 L -9.40523 13.4046 L -9.44784 13.3746 L -9.49036 13.3444 L -9.53278 13.3142 L -9.5751 13.2837 L -9.61733 13.2532 L -9.65946 13.2225 L -9.70149 13.1917 L -9.74342 13.1608 L -9.78526 13.1297 L -9.82699 13.0985 L -9.86863 13.0672 L -9.91016 13.0357 L -9.9516 13.0041 L -9.99293 12.9724 L -10.0342 12.9405 L -10.0753 12.9085 L -10.1163 12.8764 L -10.1573 12.8441 L -10.2619 12.7607 L -10.3024 12.7279 L -10.3429 12.6951 L -10.3832 12.6621 L -10.4235 12.629 L -10.4636 12.5958 L -10.5036 12.5624 L -10.5436 12.5289 L -10.5834 12.4953 L -10.6231 12.4616 L -10.6627 12.4277 L -10.7022 12.3937 L -10.7416 12.3596 L -10.7809 12.3253 L -10.82 12.2909 L -10.8591 12.2565 L -10.898 12.2218 L -10.9369 12.1871 L -10.9756 12.1522 L -11.0142 12.1172 L -11.0527 12.0821 L -11.0911 12.0469 L -11.0697 11.9957 L -11.0547 11.9387 L -11.0395 11.8817 L -11.0244 11.8246 L -11.0092 11.7674 L -10.994 11.7103 L -10.9787 11.6531 L -10.9634 11.5959 L -10.9481 11.5386 L -10.9328 11.4813 L -10.9174 11.4239 L -10.902 11.3666 L -10.8865 11.3091 L -10.871 11.2517 L -10.8555 11.1942 L -10.8399 11.1367 L -10.8243 11.0791 L -10.8086 11.0215 L -10.793 10.9638 L -10.7772 10.9062 L -10.7615 10.8484 L -10.7457 10.7907 L -10.7298 10.7329 L -10.7139 10.675 L -10.698 10.6171 L -10.682 10.5592 L -10.666 10.5012 L -10.65 10.4432 L -10.6339 10.3851 L -10.6177 10.327 L -10.6015 10.2689 L -10.5853 10.2107 L -10.569 10.1525 L -10.5527 10.0942 L -10.5363 10.0359 L -10.5199 9.9775 L -10.5035 9.91909 L -10.4869 9.86063 L -10.4704 9.80212 L -10.4538 9.74357 L -10.4371 9.68497 L -10.4204 9.62632 L -10.4036 9.56762 L -10.3868 9.50888 L -10.3699 9.45008 L -10.353 9.39124 L -10.336 9.33234 L -10.3189 9.2734 L -10.3018 9.2144 L -10.2847 9.15536 L -10.2675 9.09626 L -10.2502 9.03711 L -10.2329 8.97791 L -10.2155 8.91865 L -10.198 8.85934 L -10.1805 8.79998 L -10.1629 8.74056 L -10.1453 8.68109 L -10.1276 8.62156 L -10.1098 8.56198 L -10.092 8.50234 L -10.0741 8.44264 L -10.0561 8.38289 L -10.0381 8.32308 L -10.0199 8.26321 L -10.0018 8.20328 L -9.98349 8.14329 L -9.96516 8.08324 L -9.94675 8.02313 L -9.92827 7.96296 L -9.90971 7.90273 L -9.90971 7.90273 L -9.97256 7.90742 L -10.0353 7.91205 L -10.098 7.91662 L -10.1607 7.92113 L -10.2232 7.92558 L -10.2857 7.92998 L -10.3481 7.93432 L -10.4104 7.9386 L -10.4727 7.94283 L -10.5348 7.947 L -10.597 7.95112 L -10.659 7.95519 L -10.721 7.95921 L -10.7829 7.96317 L -10.8447 7.96709 L -10.9065 7.97095 L -10.9682 7.97477 L -11.0298 7.97854 L -11.0914 7.98227 L -11.1529 7.98594 L -11.2144 7.98957 L -11.2758 7.99316 L -11.3371 7.9967 L -11.3983 8.0002 L -11.4595 8.00366 L -11.5207 8.00707 L -11.5817 8.01044 L -11.6428 8.01377 L -11.7037 8.01706 L -11.7646 8.0203 L -11.8255 8.02351 L -11.8862 8.02668 L -11.947 8.02981 L -12.0076 8.03291 L -12.0682 8.03596 L -12.1288 8.03898 L -12.1893 8.04197 L -12.2498 8.04491 L -12.3102 8.04782 L -12.3705 8.0507 L -12.4308 8.05354 L -12.491 8.05635 L -12.5512 8.05913 L -12.6113 8.06187 L -12.6714 8.06458 L -12.7315 8.06726 L -12.7914 8.0699 L -12.8514 8.07252 L -12.9113 8.0751 L -12.9711 8.07765 L -13.0309 8.08018 L -13.0906 8.08267 L -13.1503 8.08513 L -13.21 8.08757 L -13.2696 8.08998 L -13.3291 8.09236 L -13.3886 8.09471 L -13.4481 8.09703 L -13.5075 8.09933 L -13.5669 8.1016 L -13.6262 8.10384 L -13.6855 8.10606 L -13.7447 8.10825 L -13.8039 8.11042 L -13.8631 8.11256 L -13.9222 8.11467 L -13.9813 8.11677 L -14.0403 8.11884 L -14.0993 8.12088 L -14.1582 8.1229 L -14.2128 8.13238 L -14.2387 8.0871 L -14.2643 8.04175 L -14.2898 7.99631 L -14.3152 7.9508 L -14.3404 7.9052 L -14.3655 7.85952 L -14.3905 7.81376 L -14.4153 7.76793 L -14.4399 7.72201 L -14.4644 7.67602 L -14.4888 7.62995 L -14.513 7.5838 L -14.537 7.53757 L -14.561 7.49127 L -14.5847 7.44489 L -14.6083 7.39844 L -14.6318 7.35191 L -14.6551 7.30531 L -14.6783 7.25864 L -14.7013 7.21189 L -14.7242 7.16506 L -14.7823 7.04451 L -14.8046 6.99743 L -14.8268 6.95028 L -14.8489 6.90306 L -14.8707 6.85577 L -14.8925 6.80841 L -14.9141 6.76098 L -14.9355 6.71348 L -14.9568 6.66592 L -14.9779 6.61828 L -14.9989 6.57058 L -15.0198 6.52282 L -15.0405 6.47499 L -15.061 6.42709 L -15.0814 6.37912 L -15.1016 6.3311 L -15.1217 6.283 L -15.1416 6.23485 L -15.1613 6.18663 L -15.181 6.13835 L -15.2004 6.09 L -15.2197 6.0416 L -15.1782 6.00479 L -15.1399 5.95997 L -15.1015 5.91512 L -15.0631 5.87026 L -15.0246 5.82538 L -14.9861 5.78049 L -14.9476 5.73557 L -14.909 5.69064 L -14.8703 5.64569 L -14.8316 5.60072 L -14.7929 5.55574 L -14.7541 5.51073 L -14.7153 5.46571 L -14.6764 5.42067 L -14.6374 5.37561 L -14.5984 5.33054 L -14.5594 5.28544 L -14.5203 5.24033 L -14.4812 5.1952 L -14.442 5.15005 L -14.4027 5.10488 L -14.3634 5.05969 L -14.324 5.01448 L -14.2846 4.96925 L -14.2452 4.924 L -14.2056 4.87874 L -14.1661 4.83345 L -14.1264 4.78815 L -14.0867 4.74282 L -14.047 4.69748 L -14.0072 4.65212 L -13.9673 4.60673 L -13.9274 4.56133 L -13.8874 4.5159 L -13.8473 4.47046 L -13.8072 4.425 L -13.767 4.37951 L -13.7268 4.33401 L -13.6865 4.28848 L -13.6461 4.24294 L -13.6056 4.19737 L -13.5651 4.15178 L -13.5246 4.10617 L -13.4839 4.06055 L -13.4432 4.0149 L -13.4024 3.96923 L -13.3616 3.92353 L -13.3206 3.87782 L -13.2796 3.83209 L -13.2385 3.78633 L -13.1974 3.74055 L -13.1562 3.69476 L -13.1149 3.64894 L -13.0735 3.60309 L -13.032 3.55723 L -12.9905 3.51135 L -12.9489 3.46544 L -12.9072 3.41951 L -12.8654 3.37356 L -12.8235 3.32759 L -12.7816 3.2816 L -12.7395 3.23558 L -12.6974 3.18955 L -12.6552 3.14349 L -12.6129 3.09741 L -12.5705 3.0513 L -12.5281 3.00518 L -12.4855 2.95903 L -12.4428 2.91286 L -12.4001 2.86667 L -12.3572 2.82045 L -12.3572 2.82045 L -12.4159 2.79741 L -12.4744 2.77434 L -12.5329 2.75126 L -12.5913 2.72815 L -12.6496 2.70502 L -12.7078 2.68188 L -12.7659 2.65871 L -12.8239 2.63553 L -12.8818 2.61232 L -12.9396 2.5891 L -12.9974 2.56586 L -13.0551 2.54261 L -13.1126 2.51934 L -13.1701 2.49605 L -13.2275 2.47275 L -13.2849 2.44943 L -13.3421 2.4261 L -13.3993 2.40275 L -13.4564 2.37939 L -13.5134 2.35601 L -13.5703 2.33262 L -13.6272 2.30922 L -13.684 2.28581 L -13.7407 2.26238 L -13.7973 2.23894 L -13.8539 2.21549 L -13.9104 2.19203 L -13.9668 2.16855 L -14.0232 2.14507 L -14.0794 2.12157 L -14.1356 2.09806 L -14.1918 2.07455 L -14.2479 2.05102 L -14.3039 2.02748 L -14.3598 2.00394 L -14.4157 1.98038 L -14.4715 1.95682 L -14.5272 1.93324 L -14.5829 1.90966 L -14.6385 1.88607 L -14.6941 1.86248 L -14.7495 1.83887 L -14.805 1.81526 L -14.8603 1.79164 L -14.9157 1.76801 L -14.9709 1.74437 L -15.0261 1.72073 L -15.0812 1.69708 L -15.1363 1.67343 L -15.1913 1.64977 L -15.2463 1.6261 L -15.3012 1.60243 L -15.356 1.57875 L -15.4108 1.55506 L -15.4656 1.53137 L -15.5203 1.50768 L -15.5749 1.48398 L -15.6295 1.46027 L -15.684 1.43656 L -15.7385 1.41285 L -15.7929 1.38913 L -15.8473 1.3654 L -15.9016 1.34167 L -15.9559 1.31794 L -16.0101 1.2942 L -16.0643 1.27046 L -16.1184 1.24672 L -16.1725 1.22297 L -16.2265 1.19922 L -16.2805 1.17546 L -16.3338 1.16029 L -16.3375 1.10831 L -16.3409 1.05631 L -16.3442 1.0043 L -16.3473 0.952279 L -16.3502 0.90025 L -16.353 0.848211 L -16.3556 0.796165 L -16.3581 0.74411 L -16.3604 0.692047 L -16.3625 0.639977 L -16.3644 0.587901 L -16.3662 0.53582 L -16.3679 0.483732 L -16.3693 0.43164 L -16.3706 0.379543 L -16.3717 0.327443 L -16.3727 0.275339 L -16.3735 0.223232 L -16.3741 0.171123 L -16.3746 0.119013 L -16.3749 0.0669009 L -16.3749 -0.0669009 L -16.3746 -0.119013 L -16.3741 -0.171123 L -16.3735 -0.223232 L -16.3727 -0.275339 L -16.3717 -0.327443 L -16.3706 -0.379543 L -16.3693 -0.43164 L -16.3679 -0.483732 L -16.3662 -0.53582 L -16.3644 -0.587901 L -16.3625 -0.639977 L -16.3604 -0.692047 L -16.3581 -0.74411 L -16.3556 -0.796165 L -16.353 -0.848211 L -16.3502 -0.90025 L -16.3473 -0.952279 L -16.3442 -1.0043 L -16.3409 -1.05631 L -16.3375 -1.10831 L -16.3338 -1.16029 L -16.2805 -1.17546 L -16.2265 -1.19922 L -16.1725 -1.22297 L -16.1184 -1.24672 L -16.0643 -1.27046 L -16.0101 -1.2942 L -15.9559 -1.31794 L -15.9016 -1.34167 L -15.8473 -1.3654 L -15.7929 -1.38913 L -15.7385 -1.41285 L -15.684 -1.43656 L -15.6295 -1.46027 L -15.5749 -1.48398 L -15.5203 -1.50768 L -15.4656 -1.53137 L -15.4108 -1.55506 L -15.356 -1.57875 L -15.3012 -1.60243 L -15.2463 -1.6261 L -15.1913 -1.64977 L -15.1363 -1.67343 L -15.0812 -1.69708 L -15.0261 -1.72073 L -14.9709 -1.74437 L -14.9157 -1.76801 L -14.8603 -1.79164 L -14.805 -1.81526 L -14.7495 -1.83887 L -14.6941 -1.86248 L -14.6385 -1.88607 L -14.5829 -1.90966 L -14.5272 -1.93324 L -14.4715 -1.95682 L -14.4157 -1.98038 L -14.3598 -2.00394 L -14.3039 -2.02748 L -14.2479 -2.05102 L -14.1918 -2.07455 L -14.1356 -2.09806 L -14.0794 -2.12157 L -14.0232 -2.14507 L -13.9668 -2.16855 L -13.9104 -2.19203 L -13.8539 -2.21549 L -13.7973 -2.23894 L -13.7407 -2.26238 L -13.684 -2.28581 L -13.6272 -2.30922 L -13.5703 -2.33262 L -13.5134 -2.35601 L -13.4564 -2.37939 L -13.3993 -2.40275 L -13.3421 -2.4261 L -13.2849 -2.44943 L -13.2275 -2.47275 L -13.1701 -2.49605 L -13.1126 -2.51934 L -13.0551 -2.54261 L -12.9974 -2.56586 L -12.9396 -2.5891 L -12.8818 -2.61232 L -12.8239 -2.63553 L -12.7659 -2.65871 L -12.7078 -2.68188 L -12.6496 -2.70502 L -12.5913 -2.72815 L -12.5329 -2.75126 L -12.4744 -2.77434 L -12.4159 -2.79741 L -12.3572 -2.82045 L -12.3572 -2.82045 L -12.4001 -2.86667 L -12.4428 -2.91286 L -12.4855 -2.95903 L -12.5281 -3.00518 L -12.5705 -3.0513 L -12.6129 -3.09741 L -12.6552 -3.14349 L -12.6974 -3.18955 L -12.7395 -3.23558 L -12.7816 -3.2816 L -12.8235 -3.32759 L -12.8654 -3.37356 L -12.9072 -3.41951 L -12.9489 -3.46544 L -12.9905 -3.51135 L -13.032 -3.55723 L -13.0735 -3.60309 L -13.1149 -3.64894 L -13.1562 -3.69476 L -13.1974 -3.74055 L -13.2385 -3.78633 L -13.2796 -3.83209 L -13.3206 -3.87782 L -13.3616 -3.92353 L -13.4024 -3.96923 L -13.4432 -4.0149 L -13.4839 -4.06055 L -13.5246 -4.10617 L -13.5651 -4.15178 L -13.6056 -4.19737 L -13.6461 -4.24294 L -13.6865 -4.28848 L -13.7268 -4.33401 L -13.767 -4.37951 L -13.8072 -4.425 L -13.8473 -4.47046 L -13.8874 -4.5159 L -13.9274 -4.56133 L -13.9673 -4.60673 L -14.0072 -4.65212 L -14.047 -4.69748 L -14.0867 -4.74282 L -14.1264 -4.78815 L -14.1661 -4.83345 L -14.2056 -4.87874 L -14.2452 -4.924 L -14.2846 -4.96925 L -14.324 -5.01448 L -14.3634 -5.05969 L -14.4027 -5.10488 L -14.442 -5.15005 L -14.4812 -5.1952 L -14.5203 -5.24033 L -14.5594 -5.28544 L -14.5984 -5.33054 L -14.6374 -5.37561 L -14.6764 -5.42067 L -14.7153 -5.46571 L -14.7541 -5.51073 L -14.7929 -5.55574 L -14.8316 -5.60072 L -14.8703 -5.64569 L -14.909 -5.69064 L -14.9476 -5.73557 L -14.9861 -5.78049 L -15.0246 -5.82538 L -15.0631 -5.87026 L -15.1015 -5.91512 L -15.1399 -5.95997 L -15.1782 -6.00479 L -15.2197 -6.0416 L -15.2004 -6.09 L -15.181 -6.13835 L -15.1613 -6.18663 L -15.1416 -6.23485 L -15.1217 -6.283 L -15.1016 -6.3311 L -15.0814 -6.37912 L -15.061 -6.42709 L -15.0405 -6.47499 L -15.0198 -6.52282 L -14.9989 -6.57058 L -14.9779 -6.61828 L -14.9568 -6.66592 L -14.9355 -6.71348 L -14.9141 -6.76098 L -14.8925 -6.80841 L -14.8707 -6.85577 L -14.8489 -6.90306 L -14.8268 -6.95028 L -14.8046 -6.99743 L -14.7823 -7.04451 L -14.7242 -7.16506 L -14.7013 -7.21189 L -14.6783 -7.25864 L -14.6551 -7.30531 L -14.6318 -7.35191 L -14.6083 -7.39844 L -14.5847 -7.44489 L -14.561 -7.49127 L -14.537 -7.53757 L -14.513 -7.5838 L -14.4888 -7.62995 L -14.4644 -7.67602 L -14.4399 -7.72201 L -14.4153 -7.76793 L -14.3905 -7.81376 L -14.3655 -7.85952 L -14.3404 -7.9052 L -14.3152 -7.9508 L -14.2898 -7.99631 L -14.2643 -8.04175 L -14.2387 -8.0871 L -14.2128 -8.13238 L -14.1582 -8.1229 L -14.0993 -8.12088 L -14.0403 -8.11884 L -13.9813 -8.11677 L -13.9222 -8.11467 L -13.8631 -8.11256 L -13.8039 -8.11042 L -13.7447 -8.10825 L -13.6855 -8.10606 L -13.6262 -8.10384 L -13.5669 -8.1016 L -13.5075 -8.09933 L -13.4481 -8.09703 L -13.3886 -8.09471 L -13.3291 -8.09236 L -13.2696 -8.08998 L -13.21 -8.08757 L -13.1503 -8.08513 L -13.0906 -8.08267 L -13.0309 -8.08018 L -12.9711 -8.07765 L -12.9113 -8.0751 L -12.8514 -8.07252 L -12.7914 -8.0699 L -12.7315 -8.06726 L -12.6714 -8.06458 L -12.6113 -8.06187 L -12.5512 -8.05913 L -12.491 -8.05635 L -12.4308 -8.05354 L -12.3705 -8.0507 L -12.3102 -8.04782 L -12.2498 -8.04491 L -12.1893 -8.04197 L -12.1288 -8.03898 L -12.0682 -8.03596 L -12.0076 -8.03291 L -11.947 -8.02981 L -11.8862 -8.02668 L -11.8255 -8.02351 L -11.7646 -8.0203 L -11.7037 -8.01706 L -11.6428 -8.01377 L -11.5817 -8.01044 L -11.5207 -8.00707 L -11.4595 -8.00366 L -11.3983 -8.0002 L -11.3371 -7.9967 L -11.2758 -7.99316 L -11.2144 -7.98957 L -11.1529 -7.98594 L -11.0914 -7.98227 L -11.0298 -7.97854 L -10.9682 -7.97477 L -10.9065 -7.97095 L -10.8447 -7.96709 L -10.7829 -7.96317 L -10.721 -7.95921 L -10.659 -7.95519 L -10.597 -7.95112 L -10.5348 -7.947 L -10.4727 -7.94283 L -10.4104 -7.9386 L -10.3481 -7.93432 L -10.2857 -7.92998 L -10.2232 -7.92558 L -10.1607 -7.92113 L -10.098 -7.91662 L -10.0353 -7.91205 L -9.97256 -7.90742 L -9.90971 -7.90273 L -9.90971 -7.90273 L -9.92827 -7.96296 L -9.94675 -8.02313 L -9.96516 -8.08324 L -9.98349 -8.14329 L -10.0018 -8.20328 L -10.0199 -8.26321 L -10.0381 -8.32308 L -10.0561 -8.38289 L -10.0741 -8.44264 L -10.092 -8.50234 L -10.1098 -8.56198 L -10.1276 -8.62156 L -10.1453 -8.68109 L -10.1629 -8.74056 L -10.1805 -8.79998 L -10.198 -8.85934 L -10.2155 -8.91865 L -10.2329 -8.97791 L -10.2502 -9.03711 L -10.2675 -9.09626 L -10.2847 -9.15536 L -10.3018 -9.2144 L -10.3189 -9.2734 L -10.336 -9.33234 L -10.353 -9.39124 L -10.3699 -9.45008 L -10.3868 -9.50888 L -10.4036 -9.56762 L -10.4204 -9.62632 L -10.4371 -9.68497 L -10.4538 -9.74357 L -10.4704 -9.80212 L -10.4869 -9.86063 L -10.5035 -9.91909 L -10.5199 -9.9775 L -10.5363 -10.0359 L -10.5527 -10.0942 L -10.569 -10.1525 L -10.5853 -10.2107 L -10.6015 -10.2689 L -10.6177 -10.327 L -10.6339 -10.3851 L -10.65 -10.4432 L -10.666 -10.5012 L -10.682 -10.5592 L -10.698 -10.6171 L -10.7139 -10.675 L -10.7298 -10.7329 L -10.7457 -10.7907 L -10.7615 -10.8484 L -10.7772 -10.9062 L -10.793 -10.9638 L -10.8086 -11.0215 L -10.8243 -11.0791 L -10.8399 -11.1367 L -10.8555 -11.1942 L -10.871 -11.2517 L -10.8865 -11.3091 L -10.902 -11.3666 L -10.9174 -11.4239 L -10.9328 -11.4813 L -10.9481 -11.5386 L -10.9634 -11.5959 L -10.9787 -11.6531 L -10.994 -11.7103 L -11.0092 -11.7674 L -11.0244 -11.8246 L -11.0395 -11.8817 L -11.0547 -11.9387 L -11.0697 -11.9957 L -11.0911 -12.0469 L -11.0527 -12.0821 L -11.0142 -12.1172 L -10.9756 -12.1522 L -10.9369 -12.1871 L -10.898 -12.2218 L -10.8591 -12.2565 L -10.82 -12.2909 L -10.7809 -12.3253 L -10.7416 -12.3596 L -10.7022 -12.3937 L -10.6627 -12.4277 L -10.6231 -12.4616 L -10.5834 -12.4953 L -10.5436 -12.5289 L -10.5036 -12.5624 L -10.4636 -12.5958 L -10.4235 -12.629 L -10.3832 -12.6621 L -10.3429 -12.6951 L -10.3024 -12.7279 L -10.2619 -12.7607 L -10.1573 -12.8441 L -10.1163 -12.8764 L -10.0753 -12.9085 L -10.0342 -12.9405 L -9.99293 -12.9724 L -9.9516 -13.0041 L -9.91016 -13.0357 L -9.86863 -13.0672 L -9.82699 -13.0985 L -9.78526 -13.1297 L -9.74342 -13.1608 L -9.70149 -13.1917 L -9.65946 -13.2225 L -9.61733 -13.2532 L -9.5751 -13.2837 L -9.53278 -13.3142 L -9.49036 -13.3444 L -9.44784 -13.3746 L -9.40523 -13.4046 L -9.36253 -13.4344 L -9.31972 -13.4642 L -9.27683 -13.4937 L -9.23172 -13.4615 L -9.17949 -13.4341 L -9.12723 -13.4067 L -9.07494 -13.3792 L -9.02263 -13.3517 L -8.97029 -13.3241 L -8.91792 -13.2965 L -8.86552 -13.2689 L -8.8131 -13.2412 L -8.76065 -13.2135 L -8.70817 -13.1857 L -8.65566 -13.1579 L -8.60313 -13.1301 L -8.55056 -13.1022 L -8.49797 -13.0742 L -8.44535 -13.0463 L -8.39269 -13.0182 L -8.34001 -12.9902 L -8.2873 -12.962 L -8.23456 -12.9339 L -8.18179 -12.9057 L -8.12899 -12.8774 L -8.07616 -12.8491 L -8.02329 -12.8207 L -7.9704 -12.7923 L -7.91747 -12.7639 L -7.86452 -12.7354 L -7.81153 -12.7068 L -7.75851 -12.6782 L -7.70545 -12.6495 L -7.65237 -12.6208 L -7.59925 -12.592 L -7.5461 -12.5632 L -7.49291 -12.5343 L -7.43969 -12.5054 L -7.38644 -12.4764 L -7.33316 -12.4473 L -7.27984 -12.4182 L -7.22648 -12.389 L -7.1731 -12.3598 L -7.11967 -12.3305 L -7.06621 -12.3012 L -7.01272 -12.2718 L -6.95919 -12.2423 L -6.90563 -12.2127 L -6.85203 -12.1831 L -6.79839 -12.1535 L -6.74471 -12.1238 L -6.691 -12.094 L -6.63725 -12.0641 L -6.58347 -12.0342 L -6.52964 -12.0042 L -6.47578 -11.9741 L -6.42188 -11.9439 L -6.36794 -11.9137 L -6.31397 -11.8834 L -6.25995 -11.8531 L -6.2059 -11.8227 L -6.1518 -11.7921 L -6.09767 -11.7616 L -6.04349 -11.7309 L -5.98928 -11.7002 L -5.93502 -11.6693 L -5.88072 -11.6384 L -5.82639 -11.6075 L -5.77201 -11.5764 L -5.71759 -11.5452 L -5.66312 -11.514 L -5.60862 -11.4827 L -5.55407 -11.4513 L -5.49948 -11.4198 L -5.49948 -11.4198 L -5.49006 -11.4821 L -5.48061 -11.5443 L -5.47111 -11.6065 L -5.46157 -11.6685 L -5.452 -11.7305 L -5.44238 -11.7924 L -5.43272 -11.8542 L -5.42303 -11.9159 L -5.4133 -11.9775 L -5.40353 -12.0391 L -5.39373 -12.1006 L -5.38389 -12.162 L -5.37401 -12.2233 L -5.3641 -12.2845 L -5.35416 -12.3457 L -5.34418 -12.4068 L -5.33417 -12.4678 L -5.32413 -12.5287 L -5.31406 -12.5896 L -5.30396 -12.6503 L -5.29383 -12.7111 L -5.28366 -12.7717 L -5.27347 -12.8323 L -5.26325 -12.8928 L -5.253 -12.9532 L -5.24272 -13.0136 L -5.23242 -13.0739 L -5.22209 -13.1341 L -5.21173 -13.1942 L -5.20135 -13.2543 L -5.19094 -13.3144 L -5.1805 -13.3743 L -5.17004 -13.4342 L -5.15956 -13.4941 L -5.14905 -13.5538 L -5.13852 -13.6136 L -5.12796 -13.6732 L -5.11738 -13.7328 L -5.10678 -13.7923 L -5.09616 -13.8518 L -5.08551 -13.9112 L -5.07485 -13.9706 L -5.06416 -14.0299 L -5.05345 -14.0891 L -5.04273 -14.1483 L -5.03198 -14.2074 L -5.02121 -14.2665 L -5.01042 -14.3255 L -4.99961 -14.3844 L -4.98879 -14.4433 L -4.97795 -14.5022 L -4.96708 -14.561 L -4.9562 -14.6197 L -4.94531 -14.6784 L -4.93439 -14.737 L -4.92346 -14.7956 L -4.91251 -14.8542 L -4.90154 -14.9127 L -4.89056 -14.9711 L -4.87956 -15.0295 L -4.86855 -15.0878 L -4.85752 -15.1461 L -4.84647 -15.2044 L -4.83541 -15.2626 L -4.82434 -15.3207 L -4.81325 -15.3788 L -4.80214 -15.4369 L -4.79102 -15.4949 L -4.77989 -15.5528 L -4.76874 -15.6108 L -4.76582 -15.6661 L -4.71594 -15.6812 L -4.66602 -15.6961 L -4.61604 -15.7109 L -4.56602 -15.7255 L -4.51595 -15.74 L -4.46583 -15.7543 L -4.41567 -15.7684 L -4.36547 -15.7824 L -4.31522 -15.7962 L -4.26493 -15.8098 L -4.21459 -15.8233 L -4.16421 -15.8367 L -4.11379 -15.8498 L -4.06333 -15.8628 L -4.01283 -15.8757 L -3.96228 -15.8884 L -3.9117 -15.9009 L -3.86108 -15.9133 L -3.81041 -15.9255 L -3.75971 -15.9375 L -3.70897 -15.9494 L -3.57853 -15.9792 L -3.52766 -15.9905 L -3.47675 -16.0017 L -3.42581 -16.0126 L -3.37483 -16.0235 L -3.32382 -16.0341 L -3.27277 -16.0446 L -3.2217 -16.0549 L -3.17059 -16.0651 L -3.11944 -16.0751 L -3.06827 -16.085 L -3.01706 -16.0947 L -2.96583 -16.1042 L -2.91456 -16.1135 L -2.86327 -16.1227 L -2.81194 -16.1318 L -2.76059 -16.1406 L -2.70921 -16.1493 L -2.6578 -16.1579 L -2.60637 -16.1662 L -2.55491 -16.1745 L -2.50342 -16.1825 L -2.47676 -16.1339 L -2.44159 -16.0865 L -2.40641 -16.0391 L -2.37122 -15.9917 L -2.33603 -15.9442 L -2.30083 -15.8967 L -2.26562 -15.8491 L -2.2304 -15.8015 L -2.19518 -15.7538 L -2.15995 -15.706 L -2.12472 -15.6583 L -2.08947 -15.6104 L -2.05422 -15.5625 L -2.01897 -15.5146 L -1.9837 -15.4666 L -1.94843 -15.4186 L -1.91316 -15.3705 L -1.87787 -15.3223 L -1.84258 -15.2741 L -1.80729 -15.2259 L -1.77198 -15.1775 L -1.73667 -15.1292 L -1.70135 -15.0807 L -1.66603 -15.0323 L -1.6307 -14.9837 L -1.59536 -14.9351 L -1.56002 -14.8864 L -1.52467 -14.8377 L -1.48932 -14.7889 L -1.45396 -14.7401 L -1.41859 -14.6912 L -1.38321 -14.6422 L -1.34784 -14.5932 L -1.31245 -14.5441 L -1.27706 -14.4949 L -1.24166 -14.4457 L -1.20626 -14.3964 L -1.17085 -14.347 L -1.13544 -14.2976 L -1.10002 -14.2481 L -1.06459 -14.1985 L -1.02916 -14.1489 L -0.993727 -14.0992 L -0.958286 -14.0494 L -0.922841 -13.9995 L -0.887391 -13.9496 L -0.851937 -13.8996 L -0.816477 -13.8495 L -0.781014 -13.7994 L -0.745546 -13.7492 L -0.710073 -13.6989 L -0.674597 -13.6485 L -0.639117 -13.598 L -0.603633 -13.5475 L -0.568145 -13.4969 L -0.532654 -13.4461 L -0.49716 -13.3954 L -0.461662 -13.3445 L -0.426162 -13.2935 L -0.390658 -13.2425 L -0.355153 -13.1913 L -0.319644 -13.1401 L -0.284134 -13.0888 L -0.248622 -13.0374 L -0.213108 -12.9859 L -0.177592 -12.9343 L -0.142075 -12.8827 L -0.106557 -12.8309 L -0.0710387 -12.779 L -0.0355195 -12.7271 L -2.66454e-15 -12.675 L -1.99218e-15 -12.675 L 0.0355195 -12.7271 L 0.0710387 -12.779 L 0.106557 -12.8309 L 0.142075 -12.8827 L 0.177592 -12.9343 L 0.213108 -12.9859 L 0.248622 -13.0374 L 0.284134 -13.0888 L 0.319644 -13.1401 L 0.355153 -13.1913 L 0.390658 -13.2425 L 0.426162 -13.2935 L 0.461662 -13.3445 L 0.49716 -13.3954 L 0.532654 -13.4461 L 0.568145 -13.4969 L 0.603633 -13.5475 L 0.639117 -13.598 L 0.674597 -13.6485 L 0.710073 -13.6989 L 0.745546 -13.7492 L 0.781014 -13.7994 L 0.816477 -13.8495 L 0.851937 -13.8996 L 0.887391 -13.9496 L 0.922841 -13.9995 L 0.958286 -14.0494 L 0.993727 -14.0992 L 1.02916 -14.1489 L 1.06459 -14.1985 L 1.10002 -14.2481 L 1.13544 -14.2976 L 1.17085 -14.347 L 1.20626 -14.3964 L 1.24166 -14.4457 L 1.27706 -14.4949 L 1.31245 -14.5441 L 1.34784 -14.5932 L 1.38321 -14.6422 L 1.41859 -14.6912 L 1.45396 -14.7401 L 1.48932 -14.7889 L 1.52467 -14.8377 L 1.56002 -14.8864 L 1.59536 -14.9351 L 1.6307 -14.9837 L 1.66603 -15.0323 L 1.70135 -15.0807 L 1.73667 -15.1292 L 1.77198 -15.1775 L 1.80729 -15.2259 L 1.84258 -15.2741 L 1.87787 -15.3223 L 1.91316 -15.3705 L 1.94843 -15.4186 L 1.9837 -15.4666 L 2.01897 -15.5146 L 2.05422 -15.5625 L 2.08947 -15.6104 L 2.12472 -15.6583 L 2.15995 -15.706 L 2.19518 -15.7538 L 2.2304 -15.8015 L 2.26562 -15.8491 L 2.30083 -15.8967 L 2.33603 -15.9442 L 2.37122 -15.9917 L 2.40641 -16.0391 L 2.44159 -16.0865 L 2.47676 -16.1339 L 2.50342 -16.1825 L 2.55491 -16.1745 L 2.60637 -16.1662 L 2.6578 -16.1579 L 2.70921 -16.1493 L 2.76059 -16.1406 L 2.81194 -16.1318 L 2.86327 -16.1227 L 2.91456 -16.1135 L 2.96583 -16.1042 L 3.01706 -16.0947 L 3.06827 -16.085 L 3.11944 -16.0751 L 3.17059 -16.0651 L 3.2217 -16.0549 L 3.27277 -16.0446 L 3.32382 -16.0341 L 3.37483 -16.0235 L 3.42581 -16.0126 L 3.47675 -16.0017 L 3.52766 -15.9905 L 3.57853 -15.9792 L 3.70897 -15.9494 L 3.75971 -15.9375 L 3.81041 -15.9255 L 3.86108 -15.9133 L 3.9117 -15.9009 L 3.96228 -15.8884 L 4.01283 -15.8757 L 4.06333 -15.8628 L 4.11379 -15.8498 L 4.16421 -15.8367 L 4.21459 -15.8233 L 4.26493 -15.8098 L 4.31522 -15.7962 L 4.36547 -15.7824 L 4.41567 -15.7684 L 4.46583 -15.7543 L 4.51595 -15.74 L 4.56602 -15.7255 L 4.61604 -15.7109 L 4.66602 -15.6961 L 4.71594 -15.6812 L 4.76582 -15.6661 L 4.76874 -15.6108 L 4.77989 -15.5528 L 4.79102 -15.4949 L 4.80214 -15.4369 L 4.81325 -15.3788 L 4.82434 -15.3207 L 4.83541 -15.2626 L 4.84647 -15.2044 L 4.85752 -15.1461 L 4.86855 -15.0878 L 4.87956 -15.0295 L 4.89056 -14.9711 L 4.90154 -14.9127 L 4.91251 -14.8542 L 4.92346 -14.7956 L 4.93439 -14.737 L 4.94531 -14.6784 L 4.9562 -14.6197 L 4.96708 -14.561 L 4.97795 -14.5022 L 4.98879 -14.4433 L 4.99961 -14.3844 L 5.01042 -14.3255 L 5.02121 -14.2665 L 5.03198 -14.2074 L 5.04273 -14.1483 L 5.05345 -14.0891 L 5.06416 -14.0299 L 5.07485 -13.9706 L 5.08551 -13.9112 L 5.09616 -13.8518 L 5.10678 -13.7923 L 5.11738 -13.7328 L 5.12796 -13.6732 L 5.13852 -13.6136 L 5.14905 -13.5538 L 5.15956 -13.4941 L 5.17004 -13.4342 L 5.1805 -13.3743 L 5.19094 -13.3144 L 5.20135 -13.2543 L 5.21173 -13.1942 L 5.22209 -13.1341 L 5.23242 -13.0739 L 5.24272 -13.0136 L 5.253 -12.9532 L 5.26325 -12.8928 L 5.27347 -12.8323 L 5.28366 -12.7717 L 5.29383 -12.7111 L 5.30396 -12.6503 L 5.31406 -12.5896 L 5.32413 -12.5287 L 5.33417 -12.4678 L 5.34418 -12.4068 L 5.35416 -12.3457 L 5.3641 -12.2845 L 5.37401 -12.2233 L 5.38389 -12.162 L 5.39373 -12.1006 L 5.40353 -12.0391 L 5.4133 -11.9775 L 5.42303 -11.9159 L 5.43272 -11.8542 L 5.44238 -11.7924 L 5.452 -11.7305 L 5.46157 -11.6685 L 5.47111 -11.6065 L 5.48061 -11.5443 L 5.49006 -11.4821 L 5.49948 -11.4198 L 5.49948 -11.4198 L 5.55407 -11.4513 L 5.60862 -11.4827 L 5.66312 -11.514 L 5.71759 -11.5452 L 5.77201 -11.5764 L 5.82639 -11.6075 L 5.88072 -11.6384 L 5.93502 -11.6693 L 5.98928 -11.7002 L 6.04349 -11.7309 L 6.09767 -11.7616 L 6.1518 -11.7921 L 6.2059 -11.8227 L 6.25995 -11.8531 L 6.31397 -11.8834 L 6.36794 -11.9137 L 6.42188 -11.9439 L 6.47578 -11.9741 L 6.52964 -12.0042 L 6.58347 -12.0342 L 6.63725 -12.0641 L 6.691 -12.094 L 6.74471 -12.1238 L 6.79839 -12.1535 L 6.85203 -12.1831 L 6.90563 -12.2127 L 6.95919 -12.2423 L 7.01272 -12.2718 L 7.06621 -12.3012 L 7.11967 -12.3305 L 7.1731 -12.3598 L 7.22648 -12.389 L 7.27984 -12.4182 L 7.33316 -12.4473 L 7.38644 -12.4764 L 7.43969 -12.5054 L 7.49291 -12.5343 L 7.5461 -12.5632 L 7.59925 -12.592 L 7.65237 -12.6208 L 7.70545 -12.6495 L 7.75851 -12.6782 L 7.81153 -12.7068 L 7.86452 -12.7354 L 7.91747 -12.7639 L 7.9704 -12.7923 L 8.02329 -12.8207 L 8.07616 -12.8491 L 8.12899 -12.8774 L 8.18179 -12.9057 L 8.23456 -12.9339 L 8.2873 -12.962 L 8.34001 -12.9902 L 8.39269 -13.0182 L 8.44535 -13.0463 L 8.49797 -13.0742 L 8.55056 -13.1022 L 8.60313 -13.1301 L 8.65566 -13.1579 L 8.70817 -13.1857 L 8.76065 -13.2135 L 8.8131 -13.2412 L 8.86552 -13.2689 L 8.91792 -13.2965 L 8.97029 -13.3241 L 9.02263 -13.3517 L 9.07494 -13.3792 L 9.12723 -13.4067 L 9.17949 -13.4341 L 9.23172 -13.4615 L 9.27683 -13.4937 L 9.31972 -13.4642 L 9.36253 -13.4344 L 9.40523 -13.4046 L 9.44784 -13.3746 L 9.49036 -13.3444 L 9.53278 -13.3142 L 9.5751 -13.2837 L 9.61733 -13.2532 L 9.65946 -13.2225 L 9.70149 -13.1917 L 9.74342 -13.1608 L 9.78526 -13.1297 L 9.82699 -13.0985 L 9.86863 -13.0672 L 9.91016 -13.0357 L 9.9516 -13.0041 L 9.99293 -12.9724 L 10.0342 -12.9405 L 10.0753 -12.9085 L 10.1163 -12.8764 L 10.1573 -12.8441 L 10.2619 -12.7607 L 10.3024 -12.7279 L 10.3429 -12.6951 L 10.3832 -12.6621 L 10.4235 -12.629 L 10.4636 -12.5958 L 10.5036 -12.5624 L 10.5436 -12.5289 L 10.5834 -12.4953 L 10.6231 -12.4616 L 10.6627 -12.4277 L 10.7022 -12.3937 L 10.7416 -12.3596 L 10.7809 -12.3253 L 10.82 -12.2909 L 10.8591 -12.2565 L 10.898 -12.2218 L 10.9369 -12.1871 L 10.9756 -12.1522 L 11.0142 -12.1172 L 11.0527 -12.0821 L 11.0911 -12.0469 L 11.0697 -11.9957 L 11.0547 -11.9387 L 11.0395 -11.8817 L 11.0244 -11.8246 L 11.0092 -11.7674 L 10.994 -11.7103 L 10.9787 -11.6531 L 10.9634 -11.5959 L 10.9481 -11.5386 L 10.9328 -11.4813 L 10.9174 -11.4239 L 10.902 -11.3666 L 10.8865 -11.3091 L 10.871 -11.2517 L 10.8555 -11.1942 L 10.8399 -11.1367 L 10.8243 -11.0791 L 10.8086 -11.0215 L 10.793 -10.9638 L 10.7772 -10.9062 L 10.7615 -10.8484 L 10.7457 -10.7907 L 10.7298 -10.7329 L 10.7139 -10.675 L 10.698 -10.6171 L 10.682 -10.5592 L 10.666 -10.5012 L 10.65 -10.4432 L 10.6339 -10.3851 L 10.6177 -10.327 L 10.6015 -10.2689 L 10.5853 -10.2107 L 10.569 -10.1525 L 10.5527 -10.0942 L 10.5363 -10.0359 L 10.5199 -9.9775 L 10.5035 -9.91909 L 10.4869 -9.86063 L 10.4704 -9.80212 L 10.4538 -9.74357 L 10.4371 -9.68497 L 10.4204 -9.62632 L 10.4036 -9.56762 L 10.3868 -9.50888 L 10.3699 -9.45008 L 10.353 -9.39124 L 10.336 -9.33234 L 10.3189 -9.2734 L 10.3018 -9.2144 L 10.2847 -9.15536 L 10.2675 -9.09626 L 10.2502 -9.03711 L 10.2329 -8.97791 L 10.2155 -8.91865 L 10.198 -8.85934 L 10.1805 -8.79998 L 10.1629 -8.74056 L 10.1453 -8.68109 L 10.1276 -8.62156 L 10.1098 -8.56198 L 10.092 -8.50234 L 10.0741 -8.44264 L 10.0561 -8.38289 L 10.0381 -8.32308 L 10.0199 -8.26321 L 10.0018 -8.20328 L 9.98349 -8.14329 L 9.96516 -8.08324 L 9.94675 -8.02313 L 9.92827 -7.96296 L 9.90971 -7.90273 L 9.90971 -7.90273 L 9.97256 -7.90742 L 10.0353 -7.91205 L 10.098 -7.91662 L 10.1607 -7.92113 L 10.2232 -7.92558 L 10.2857 -7.92998 L 10.3481 -7.93432 L 10.4104 -7.9386 L 10.4727 -7.94283 L 10.5348 -7.947 L 10.597 -7.95112 L 10.659 -7.95519 L 10.721 -7.95921 L 10.7829 -7.96317 L 10.8447 -7.96709 L 10.9065 -7.97095 L 10.9682 -7.97477 L 11.0298 -7.97854 L 11.0914 -7.98227 L 11.1529 -7.98594 L 11.2144 -7.98957 L 11.2758 -7.99316 L 11.3371 -7.9967 L 11.3983 -8.0002 L 11.4595 -8.00366 L 11.5207 -8.00707 L 11.5817 -8.01044 L 11.6428 -8.01377 L 11.7037 -8.01706 L 11.7646 -8.0203 L 11.8255 -8.02351 L 11.8862 -8.02668 L 11.947 -8.02981 L 12.0076 -8.03291 L 12.0682 -8.03596 L 12.1288 -8.03898 L 12.1893 -8.04197 L 12.2498 -8.04491 L 12.3102 -8.04782 L 12.3705 -8.0507 L 12.4308 -8.05354 L 12.491 -8.05635 L 12.5512 -8.05913 L 12.6113 -8.06187 L 12.6714 -8.06458 L 12.7315 -8.06726 L 12.7914 -8.0699 L 12.8514 -8.07252 L 12.9113 -8.0751 L 12.9711 -8.07765 L 13.0309 -8.08018 L 13.0906 -8.08267 L 13.1503 -8.08513 L 13.21 -8.08757 L 13.2696 -8.08998 L 13.3291 -8.09236 L 13.3886 -8.09471 L 13.4481 -8.09703 L 13.5075 -8.09933 L 13.5669 -8.1016 L 13.6262 -8.10384 L 13.6855 -8.10606 L 13.7447 -8.10825 L 13.8039 -8.11042 L 13.8631 -8.11256 L 13.9222 -8.11467 L 13.9813 -8.11677 L 14.0403 -8.11884 L 14.0993 -8.12088 L 14.1582 -8.1229 L 14.2128 -8.13238 L 14.2387 -8.0871 L 14.2643 -8.04175 L 14.2898 -7.99631 L 14.3152 -7.9508 L 14.3404 -7.9052 L 14.3655 -7.85952 L 14.3905 -7.81376 L 14.4153 -7.76793 L 14.4399 -7.72201 L 14.4644 -7.67602 L 14.4888 -7.62995 L 14.513 -7.5838 L 14.537 -7.53757 L 14.561 -7.49127 L 14.5847 -7.44489 L 14.6083 -7.39844 L 14.6318 -7.35191 L 14.6551 -7.30531 L 14.6783 -7.25864 L 14.7013 -7.21189 L 14.7242 -7.16506 L 14.7823 -7.04451 L 14.8046 -6.99743 L 14.8268 -6.95028 L 14.8489 -6.90306 L 14.8707 -6.85577 L 14.8925 -6.80841 L 14.9141 -6.76098 L 14.9355 -6.71348 L 14.9568 -6.66592 L 14.9779 -6.61828 L 14.9989 -6.57058 L 15.0198 -6.52282 L 15.0405 -6.47499 L 15.061 -6.42709 L 15.0814 -6.37912 L 15.1016 -6.3311 L 15.1217 -6.283 L 15.1416 -6.23485 L 15.1613 -6.18663 L 15.181 -6.13835 L 15.2004 -6.09 L 15.2197 -6.0416 L 15.1782 -6.00479 L 15.1399 -5.95997 L 15.1015 -5.91512 L 15.0631 -5.87026 L 15.0246 -5.82538 L 14.9861 -5.78049 L 14.9476 -5.73557 L 14.909 -5.69064 L 14.8703 -5.64569 L 14.8316 -5.60072 L 14.7929 -5.55574 L 14.7541 -5.51073 L 14.7153 -5.46571 L 14.6764 -5.42067 L 14.6374 -5.37561 L 14.5984 -5.33054 L 14.5594 -5.28544 L 14.5203 -5.24033 L 14.4812 -5.1952 L 14.442 -5.15005 L 14.4027 -5.10488 L 14.3634 -5.05969 L 14.324 -5.01448 L 14.2846 -4.96925 L 14.2452 -4.924 L 14.2056 -4.87874 L 14.1661 -4.83345 L 14.1264 -4.78815 L 14.0867 -4.74282 L 14.047 -4.69748 L 14.0072 -4.65212 L 13.9673 -4.60673 L 13.9274 -4.56133 L 13.8874 -4.5159 L 13.8473 -4.47046 L 13.8072 -4.425 L 13.767 -4.37951 L 13.7268 -4.33401 L 13.6865 -4.28848 L 13.6461 -4.24294 L 13.6056 -4.19737 L 13.5651 -4.15178 L 13.5246 -4.10617 L 13.4839 -4.06055 L 13.4432 -4.0149 L 13.4024 -3.96923 L 13.3616 -3.92353 L 13.3206 -3.87782 L 13.2796 -3.83209 L 13.2385 -3.78633 L 13.1974 -3.74055 L 13.1562 -3.69476 L 13.1149 -3.64894 L 13.0735 -3.60309 L 13.032 -3.55723 L 12.9905 -3.51135 L 12.9489 -3.46544 L 12.9072 -3.41951 L 12.8654 -3.37356 L 12.8235 -3.32759 L 12.7816 -3.2816 L 12.7395 -3.23558 L 12.6974 -3.18955 L 12.6552 -3.14349 L 12.6129 -3.09741 L 12.5705 -3.0513 L 12.5281 -3.00518 L 12.4855 -2.95903 L 12.4428 -2.91286 L 12.4001 -2.86667 L 12.3572 -2.82045 L 12.3572 -2.82045 L 12.4159 -2.79741 L 12.4744 -2.77434 L 12.5329 -2.75126 L 12.5913 -2.72815 L 12.6496 -2.70502 L 12.7078 -2.68188 L 12.7659 -2.65871 L 12.8239 -2.63553 L 12.8818 -2.61232 L 12.9396 -2.5891 L 12.9974 -2.56586 L 13.0551 -2.54261 L 13.1126 -2.51934 L 13.1701 -2.49605 L 13.2275 -2.47275 L 13.2849 -2.44943 L 13.3421 -2.4261 L 13.3993 -2.40275 L 13.4564 -2.37939 L 13.5134 -2.35601 L 13.5703 -2.33262 L 13.6272 -2.30922 L 13.684 -2.28581 L 13.7407 -2.26238 L 13.7973 -2.23894 L 13.8539 -2.21549 L 13.9104 -2.19203 L 13.9668 -2.16855 L 14.0232 -2.14507 L 14.0794 -2.12157 L 14.1356 -2.09806 L 14.1918 -2.07455 L 14.2479 -2.05102 L 14.3039 -2.02748 L 14.3598 -2.00394 L 14.4157 -1.98038 L 14.4715 -1.95682 L 14.5272 -1.93324 L 14.5829 -1.90966 L 14.6385 -1.88607 L 14.6941 -1.86248 L 14.7495 -1.83887 L 14.805 -1.81526 L 14.8603 -1.79164 L 14.9157 -1.76801 L 14.9709 -1.74437 L 15.0261 -1.72073 L 15.0812 -1.69708 L 15.1363 -1.67343 L 15.1913 -1.64977 L 15.2463 -1.6261 L 15.3012 -1.60243 L 15.356 -1.57875 L 15.4108 -1.55506 L 15.4656 -1.53137 L 15.5203 -1.50768 L 15.5749 -1.48398 L 15.6295 -1.46027 L 15.684 -1.43656 L 15.7385 -1.41285 L 15.7929 -1.38913 L 15.8473 -1.3654 L 15.9016 -1.34167 L 15.9559 -1.31794 L 16.0101 -1.2942 L 16.0643 -1.27046 L 16.1184 -1.24672 L 16.1725 -1.22297 L 16.2265 -1.19922 L 16.2805 -1.17546 L 16.3338 -1.16029 L 16.3375 -1.10831 L 16.3409 -1.05631 L 16.3442 -1.0043 L 16.3473 -0.952279 L 16.3502 -0.90025 L 16.353 -0.848211 L 16.3556 -0.796165 L 16.3581 -0.74411 L 16.3604 -0.692047 L 16.3625 -0.639977 L 16.3644 -0.587901 L 16.3662 -0.53582 L 16.3679 -0.483732 L 16.3693 -0.43164 L 16.3706 -0.379543 L 16.3717 -0.327443 L 16.3727 -0.275339 L 16.3735 -0.223232 L 16.3741 -0.171123 L 16.3746 -0.119013 L 16.3749 -0.0669009Z"
id="path1" />
</g>
</svg>
