<?xml version="1.0" encoding="UTF-8" standalone="no"?>
<svg version="1.1">
<g
style="fill:none;stroke:#000000;stroke-opacity:1;stroke-width:0.1">
<path d="M 17.1248 0.0745127 L 17.1246 0.122135 L 17.1242 0.169757 L 17.1236 0.217377 L 17.1229 0.264996 L 17.1221 0.312612 L 17.1212 0.360227 L 17.1201 0.407838 L 17.1189 0.455446 L 17.1176 0.503051 L 17.1161 0.550652 L 17.1145 0.598248 L 17.1128 0.64584 L 17.111 0.693427 L 17.109 0.741009 L 17.1068 0.788585 L 17.1046 0.836154 L 17.1022 0.883718 L 17.0997 0.931274 L 17.097 0.978823 L 17.0942 1.02636 L 17.0913 1.0739 L 17.0882 1.12142 L 17.0851 1.16894 L 17.0365 1.18053 L 16.9874 1.1997 L 16.9383 1.21887 L 16.8892 1.23804 L 16.84 1.2572 L 16.7908 1.27637 L 16.7416 1.29553 L 16.6923 1.31468 L 16.643 1.33384 L 16.5937 1.35299 L 16.5443 1.37214 L 16.4949 1.39129 L 16.4455 1.41043 L 16.3961 1.42958 L 16.3466 1.44872 L 16.2971 1.46785 L 16.2475 1.48698 L 16.1979 1.50611 L 16.1483 1.52524 L 16.0986 1.54437 L 16.0489 1.56349 L 15.9992 1.5826 L 15.9494 1.60172 L 15.8996 1.62083 L 15.8498 1.63993 L 15.7999 1.65903 L 15.75 1.67813 L 15.7001 1.69723 L 15.6501 1.71632 L 15.6001 1.7354 L 15.55 1.75449 L 15.4999 1.77356 L 15.4498 1.79264 L 15.3996 1.81171 L 15.3494 1.83077 L 15.2991 1.84983 L 15.2488 1.86888 L 15.1985 1.88793 L 15.1481 1.90698 L 15.0977 1.92602 L 15.0473 1.94505 L 14.9968 1.96408 L 14.9462 1.9831 L 14.8956 2.00212 L 14.845 2.02113 L 14.7943 2.04014 L 14.7436 2.05914 L 14.6928 2.07813 L 14.642 2.09712 L 14.5912 2.1161 L 14.5403 2.13507 L 14.4893 2.15404 L 14.4384 2.173 L 14.3873 2.19195 L 14.3362 2.2109 L 14.2851 2.22984 L 14.2339 2.24877 L 14.1827 2.26769 L 14.1314 2.28661 L 14.0801 2.30552 L 14.0287 2.32442 L 13.9773 2.34331 L 13.9258 2.36219 L 13.8743 2.38106 L 13.8227 2.39993 L 13.7711 2.41878 L 13.7194 2.43763 L 13.6676 2.45646 L 13.6158 2.47529 L 13.564 2.49411 L 13.5121 2.51291 L 13.4601 2.53171 L 13.4081 2.5505 L 13.356 2.56927 L 13.3039 2.58803 L 13.2517 2.60679 L 13.1994 2.62553 L 13.1994 2.62553 L 13.2405 2.66284 L 13.2816 2.70013 L 13.3225 2.73742 L 13.3635 2.7747 L 13.4043 2.81196 L 13.4452 2.84921 L 13.4859 2.88645 L 13.5266 2.92368 L 13.5673 2.96089 L 13.6079 2.9981 L 13.6484 3.03529 L 13.6889 3.07247 L 13.7293 3.10964 L 13.7697 3.1468 L 13.8101 3.18394 L 13.8504 3.22108 L 13.8906 3.2582 L 13.9308 3.29531 L 13.9709 3.33241 L 14.011 3.36949 L 14.051 3.40657 L 14.091 3.44363 L 14.131 3.48069 L 14.1709 3.51773 L 14.2107 3.55476 L 14.2505 3.59178 L 14.2903 3.62878 L 14.33 3.66578 L 14.3697 3.70276 L 14.4093 3.73974 L 14.4489 3.7767 L 14.4884 3.81365 L 14.5279 3.85059 L 14.5674 3.88752 L 14.6068 3.92443 L 14.6462 3.96134 L 14.6855 3.99823 L 14.7248 4.03512 L 14.7641 4.07199 L 14.8033 4.10885 L 14.8425 4.1457 L 14.8816 4.18254 L 14.9207 4.21937 L 14.9597 4.25619 L 14.9988 4.293 L 15.0377 4.3298 L 15.0767 4.36658 L 15.1156 4.40336 L 15.1545 4.44012 L 15.1933 4.47688 L 15.2321 4.51362 L 15.2709 4.55036 L 15.3096 4.58708 L 15.3483 4.62379 L 15.387 4.6605 L 15.4256 4.69719 L 15.4642 4.73387 L 15.5028 4.77054 L 15.5413 4.8072 L 15.5798 4.84385 L 15.6182 4.8805 L 15.6567 4.91713 L 15.6951 4.95375 L 15.7334 4.99036 L 15.7718 5.02696 L 15.8101 5.06355 L 15.8483 5.10013 L 15.8866 5.1367 L 15.9248 5.17327 L 15.963 5.20982 L 16.0011 5.24636 L 16.0393 5.28289 L 16.0774 5.31942 L 16.1154 5.35593 L 16.1535 5.39243 L 16.1915 5.42893 L 16.2319 5.45821 L 16.2166 5.50333 L 16.2013 5.5484 L 16.1858 5.59344 L 16.1702 5.63843 L 16.1544 5.68337 L 16.1385 5.72827 L 16.1225 5.77313 L 16.1064 5.81794 L 16.0902 5.86271 L 16.0738 5.90744 L 16.0573 5.95211 L 16.0407 5.99674 L 16.024 6.04133 L 16.0071 6.08587 L 15.9901 6.13036 L 15.973 6.1748 L 15.9558 6.2192 L 15.9384 6.26355 L 15.921 6.30784 L 15.9033 6.3521 L 15.8856 6.3963 L 15.8678 6.44045 L 15.8498 6.48455 L 15.7928 6.62223 L 15.7743 6.66613 L 15.7557 6.70997 L 15.737 6.75376 L 15.7181 6.79749 L 15.6992 6.84118 L 15.6801 6.88481 L 15.6609 6.92839 L 15.6415 6.97191 L 15.6221 7.01538 L 15.6025 7.0588 L 15.5828 7.10216 L 15.563 7.14547 L 15.5431 7.18872 L 15.523 7.23192 L 15.5029 7.27506 L 15.4826 7.31814 L 15.4622 7.36117 L 15.4416 7.40414 L 15.421 7.44705 L 15.4002 7.48991 L 15.3793 7.53271 L 15.3583 7.57545 L 15.3372 7.61813 L 15.2879 7.61026 L 15.2352 7.60919 L 15.1825 7.60811 L 15.1298 7.60701 L 15.077 7.6059 L 15.0242 7.60478 L 14.9714 7.60364 L 14.9186 7.60248 L 14.8657 7.60132 L 14.8128 7.60013 L 14.7599 7.59894 L 14.7069 7.59773 L 14.6539 7.5965 L 14.6009 7.59526 L 14.5479 7.594 L 14.4948 7.59273 L 14.4417 7.59144 L 14.3886 7.59014 L 14.3354 7.58882 L 14.2822 7.58748 L 14.229 7.58613 L 14.1757 7.58476 L 14.1224 7.58338 L 14.0691 7.58198 L 14.0157 7.58056 L 13.9623 7.57912 L 13.9089 7.57766 L 13.8555 7.57619 L 13.802 7.5747 L 13.7485 7.57319 L 13.6949 7.57166 L 13.6413 7.57012 L 13.5877 7.56855 L 13.5341 7.56697 L 13.4804 7.56537 L 13.4267 7.56374 L 13.3729 7.5621 L 13.3191 7.56044 L 13.2653 7.55876 L 13.2114 7.55705 L 13.1575 7.55533 L 13.1036 7.55358 L 13.0496 7.55181 L 12.9956 7.55003 L 12.9415 7.54822 L 12.8874 7.54638 L 12.8333 7.54453 L 12.7791 7.54265 L 12.7249 7.54075 L 12.6707 7.53883 L 12.6164 7.53688 L 12.5621 7.53491 L 12.5077 7.53291 L 12.4533 7.53089 L 12.3989 7.52885 L 12.3444 7.52678 L 12.2899 7.52468 L 12.2353 7.52256 L 12.1807 7.52041 L 12.126 7.51824 L 12.0713 7.51604 L 12.0166 7.51381 L 11.9618 7.51155 L 11.907 7.50927 L 11.8521 7.50696 L 11.7972 7.50462 L 11.7422 7.50225 L 11.6872 7.49985 L 11.6321 7.49742 L 11.577 7.49496 L 11.5219 7.49247 L 11.4667 7.48995 L 11.4114 7.4874 L 11.3561 7.48481 L 11.3008 7.4822 L 11.2454 7.47955 L 11.1899 7.47686 L 11.1899 7.47686 L 11.2136 7.52706 L 11.2373 7.57723 L 11.2609 7.62736 L 11.2844 7.67747 L 11.3079 7.72753 L 11.3314 7.77757 L 11.3548 7.82757 L 11.3781 7.87754 L 11.4014 7.92748 L 11.4247 7.97739 L 11.4479 8.02727 L 11.4711 8.07711 L 11.4943 8.12693 L 11.5173 8.17671 L 11.5404 8.22646 L 11.5634 8.27619 L 11.5864 8.32588 L 11.6093 8.37554 L 11.6322 8.42518 L 11.655 8.47478 L 11.6778 8.52436 L 11.7006 8.57391 L 11.7233 8.62343 L 11.746 8.67292 L 11.7687 8.72238 L 11.7913 8.77181 L 11.8138 8.82122 L 11.8364 8.8706 L 11.8589 8.91995 L 11.8813 8.96927 L 11.9038 9.01857 L 11.9262 9.06784 L 11.9485 9.11708 L 11.9708 9.1663 L 11.9931 9.21549 L 12.0154 9.26465 L 12.0376 9.31379 L 12.0598 9.36291 L 12.0819 9.41199 L 12.1041 9.46106 L 12.1261 9.51009 L 12.1482 9.55911 L 12.1702 9.60809 L 12.1922 9.65706 L 12.2142 9.70599 L 12.2361 9.75491 L 12.258 9.8038 L 12.2799 9.85267 L 12.3017 9.90151 L 12.3236 9.95033 L 12.3454 9.99912 L 12.3671 10.0479 L 12.3888 10.0966 L 12.4105 10.1454 L 12.4322 10.1941 L 12.4539 10.2428 L 12.4755 10.2914 L 12.4971 10.3401 L 12.5186 10.3887 L 12.5402 10.4373 L 12.5617 10.4858 L 12.5832 10.5344 L 12.6046 10.5829 L 12.6261 10.6314 L 12.6475 10.6799 L 12.6689 10.7284 L 12.6902 10.7768 L 12.7116 10.8252 L 12.7329 10.8736 L 12.7542 10.922 L 12.7754 10.9704 L 12.7967 11.0187 L 12.8179 11.067 L 12.8391 11.1153 L 12.8603 11.1636 L 12.8814 11.2119 L 12.9075 11.2544 L 12.8762 11.2902 L 12.8447 11.326 L 12.8132 11.3617 L 12.7815 11.3973 L 12.7498 11.4328 L 12.718 11.4682 L 12.686 11.5035 L 12.654 11.5387 L 12.6218 11.5739 L 12.5896 11.6089 L 12.5573 11.6439 L 12.5248 11.6788 L 12.4923 11.7136 L 12.4597 11.7483 L 12.427 11.7829 L 12.3942 11.8174 L 12.3612 11.8518 L 12.3282 11.8861 L 12.2951 11.9204 L 12.2619 11.9545 L 12.2286 11.9886 L 12.1953 12.0225 L 12.1618 12.0564 L 12.0564 12.1618 L 12.0225 12.1953 L 11.9886 12.2286 L 11.9545 12.2619 L 11.9204 12.2951 L 11.8861 12.3282 L 11.8518 12.3612 L 11.8174 12.3942 L 11.7829 12.427 L 11.7483 12.4597 L 11.7136 12.4923 L 11.6788 12.5248 L 11.6439 12.5573 L 11.6089 12.5896 L 11.5739 12.6218 L 11.5387 12.654 L 11.5035 12.686 L 11.4682 12.718 L 11.4328 12.7498 L 11.3973 12.7815 L 11.3617 12.8132 L 11.326 12.8447 L 11.2902 12.8762 L 11.2544 12.9075 L 11.2119 12.8814 L 11.1636 12.8603 L 11.1153 12.8391 L 11.067 12.8179 L 11.0187 12.7967 L 10.9704 12.7754 L 10.922 12.7542 L 10.8736 12.7329 L 10.8252 12.7116 L 10.7768 12.6902 L 10.7284 12.6689 L 10.6799 12.6475 L 10.6314 12.6261 L 10.5829 12.6046 L 10.5344 12.5832 L 10.4858 12.5617 L 10.4373 12.5402 L 10.3887 12.5186 L 10.3401 12.4971 L 10.2914 12.4755 L 10.2428 12.4539 L 10.1941 12.4322 L 10.1454 12.4105 L 10.0966 12.3888 L 10.0479 12.3671 L 9.99912 12.3454 L 9.95033 12.3236 L 9.90151 12.3017 L 9.85267 12.2799 L 9.8038 12.258 L 9.75491 12.2361 L 9.70599 12.2142 L 9.65706 12.1922 L 9.60809 12.1702 L 9.55911 12.1482 L 9.51009 12.1261 L 9.46106 12.1041 L 9.41199 12.0819 L 9.36291 12.0598 L 9.31379 12.0376 L 9.26465 12.0154 L 9.21549 11.9931 L 9.1663 11.9708 L 9.11708 11.9485 L 9.06784 11.9262 L 9.01857 11.9038 L 8.96927 11.8813 L 8.91995 11.8589 L 8.8706 11.8364 L 8.82122 11.8138 L 8.77181 11.7913 L 8.72238 11.7687 L 8.67292 11.746 L 8.62343 11.7233 L 8.57391 11.7006 L 8.52436 11.6778 L 8.47478 11.655 L 8.42518 11.6322 L 8.37554 11.6093 L 8.32588 11.5864 L 8.27619 11.5634 L 8.22646 11.5404 L 8.17671 11.5173 L 8.12693 11.4943 L 8.07711 11.4711 L 8.02727 11.4479 L 7.97739 11.4247 L 7.92748 11.4014 L 7.87754 11.3781 L 7.82757 11.3548 L 7.77757 11.3314 L 7.72753 11.3079 L 7.67747 11.2844 L 7.62736 11.2609 L 7.57723 11.2373 L 7.52706 11.2136 L 7.47686 11.1899 L 7.47686 11.1899 L 7.47955 11.2454 L 7.4822 11.3008 L 7.48481 11.3561 L 7.4874 11.4114 L 7.48995 11.4667 L 7.49247 11.5219 L 7.49496 11.577 L 7.49742 11.6321 L 7.49985 11.6872 L 7.50225 11.7422 L 7.50462 11.7972 L 7.50696 11.8521 L 7.50927 11.907 L 7.51155 11.9618 L 7.51381 12.0166 L 7.51604 12.0713 L 7.51824 12.126 L 7.52041 12.1807 L 7.52256 12.2353 L 7.52468 12.2899 L 7.52678 12.3444 L 7.52885 12.3989 L 7.53089 12.4533 L 7.53291 12.5077 L 7.53491 12.5621 L 7.53688 12.6164 L 7.53883 12.6707 L 7.54075 12.7249 L 7.54265 12.7791 L 7.54453 12.8333 L 7.54638 12.8874 L 7.54822 12.9415 L 7.55003 12.9956 L 7.55181 13.0496 L 7.55358 13.1036 L 7.55533 13.1575 L 7.55705 13.2114 L 7.55876 13.2653 L 7.56044 13.3191 L 7.5621 13.3729 L 7.56374 13.4267 L 7.56537 13.4804 L 7.56697 13.5341 L 7.56855 13.5877 L 7.57012 13.6413 L 7.57166 13.6949 L 7.57319 13.7485 L 7.5747 13.802 L 7.57619 13.8555 L 7.57766 13.9089 L 7.57912 13.9623 L 7.58056 14.0157 L 7.58198 14.0691 L 7.58338 14.1224 L 7.58476 14.1757 L 7.58613 14.229 L 7.58748 14.2822 L 7.58882 14.3354 L 7.59014 14.3886 L 7.59144 14.4417 L 7.59273 14.4948 L 7.594 14.5479 L 7.59526 14.6009 L 7.5965 14.6539 L 7.59773 14.7069 L 7.59894 14.7599 L 7.60013 14.8128 L 7.60132 14.8657 L 7.60248 14.9186 L 7.60364 14.9714 L 7.60478 15.0242 L 7.6059 15.077 L 7.60701 15.1298 L 7.60811 15.1825 L 7.60919 15.2352 L 7.61026 15.2879 L 7.61813 15.3372 L 7.57545 15.3583 L 7.53271 15.3793 L 7.48991 15.4002 L 7.44705 15.421 L 7.40414 15.4416 L 7.36117 15.4622 L 7.31814 15.4826 L 7.27506 15.5029 L 7.23192 15.523 L 7.18872 15.5431 L 7.14547 15.563 L 7.10216 15.5828 L 7.0588 15.6025 L 7.01538 15.6221 L 6.97191 15.6415 L 6.92839 15.6609 L 6.88481 15.6801 L 6.84118 15.6992 L 6.79749 15.7181 L 6.75376 15.737 L 6.70997 15.7557 L 6.66613 15.7743 L 6.62223 15.7928 L 6.48455 15.8498 L 6.44045 15.8678 L 6.3963 15.8856 L 6.3521 15.9033 L 6.30784 15.921 L 6.26355 15.9384 L 6.2192 15.9558 L 6.1748 15.973 L 6.13036 15.9901 L 6.08587 16.0071 L 6.04133 16.024 L 5.99674 16.0407 L 5.95211 16.0573 L 5.90744 16.0738 L 5.86271 16.0902 L 5.81794 16.1064 L 5.77313 16.1225 L 5.72827 16.1385 L 5.68337 16.1544 L 5.63843 16.1702 L 5.59344 16.1858 L 5.5484 16.2013 L 5.50333 16.2166 L 5.45821 16.2319 L 5.42893 16.1915 L 5.39243 16.1535 L 5.35593 16.1154 L 5.31942 16.0774 L 5.28289 16.0393 L 5.24636 16.0011 L 5.20982 15.963 L 5.17327 15.9248 L 5.1367 15.8866 L 5.10013 15.8483 L 5.06355 15.8101 L 5.02696 15.7718 L 4.99036 15.7334 L 4.95375 15.6951 L 4.91713 15.6567 L 4.8805 15.6182 L 4.84385 15.5798 L 4.8072 15.5413 L 4.77054 15.5028 L 4.73387 15.4642 L 4.69719 15.4256 L 4.6605 15.387 L 4.62379 15.3483 L 4.58708 15.3096 L 4.55036 15.2709 L 4.51362 15.2321 L 4.47688 15.1933 L 4.44012 15.1545 L 4.40336 15.1156 L 4.36658 15.0767 L 4.3298 15.0377 L 4.293 14.9988 L 4.25619 14.9597 L 4.21937 14.9207 L 4.18254 14.8816 L 4.1457 14.8425 L 4.10885 14.8033 L 4.07199 14.7641 L 4.03512 14.7248 L 3.99823 14.6855 L 3.96134 14.6462 L 3.92443 14.6068 L 3.88752 14.5674 L 3.85059 14.5279 L 3.81365 14.4884 L 3.7767 14.4489 L 3.73974 14.4093 L 3.70276 14.3697 L 3.66578 14.33 L 3.62878 14.2903 L 3.59178 14.2505 L 3.55476 14.2107 L 3.51773 14.1709 L 3.48069 14.131 L 3.44363 14.091 L 3.40657 14.051 L 3.36949 14.011 L 3.33241 13.9709 L 3.29531 13.9308 L 3.2582 13.8906 L 3.22108 13.8504 L 3.18394 13.8101 L 3.1468 13.7697 L 3.10964 13.7293 L 3.07247 13.6889 L 3.03529 13.6484 L 2.9981 13.6079 L 2.96089 13.5673 L 2.92368 13.5266 L 2.88645 13.4859 L 2.84921 13.4452 L 2.81196 13.4043 L 2.7747 13.3635 L 2.73742 13.3225 L 2.70013 13.2816 L 2.66284 13.2405 L 2.62553 13.1994 L 2.62553 13.1994 L 2.60679 13.2517 L 2.58803 13.3039 L 2.56927 13.356 L 2.5505 13.4081 L 2.53171 13.4601 L 2.51291 13.5121 L 2.49411 13.564 L 2.47529 13.6158 L 2.45646 13.6676 L 2.43763 13.7194 L 2.41878 13.7711 L 2.39993 13.8227 L 2.38106 13.8743 L 2.36219 13.9258 L 2.34331 13.9773 L 2.32442 14.0287 L 2.30552 14.0801 L 2.28661 14.1314 L 2.26769 14.1827 L 2.24877 14.2339 L 2.22984 14.2851 L 2.2109 14.3362 L 2.19195 14.3873 L 2.173 14.4384 L 2.15404 14.4893 L 2.13507 14.5403 L 2.1161 14.5912 L 2.09712 14.642 L 2.07813 14.6928 L 2.05914 14.7436 L 2.04014 14.7943 L 2.02113 14.845 L 2.00212 14.8956 L 1.9831 14.9462 L 1.96408 14.9968 L 1.94505 15.0473 L 1.92602 15.0977 L 1.90698 15.1481 L 1.88793 15.1985 L 1.86888 15.2488 L 1.84983 15.2991 L 1.83077 15.3494 L 1.81171 15.3996 L 1.79264 15.4498 L 1.77356 15.4999 L 1.75449 15.55 L 1.7354 15.6001 L 1.71632 15.6501 L 1.69723 15.7001 L 1.67813 15.75 L 1.65903 15.7999 L 1.63993 15.8498 L 1.62083 15.8996 L 1.60172 15.9494 L 1.5826 15.9992 L 1.56349 16.0489 L 1.54437 16.0986 L 1.52524 16.1483 L 1.50611 16.1979 L 1.48698 16.2475 L 1.46785 16.2971 L 1.44872 16.3466 L 1.42958 16.3961 L 1.41043 16.4455 L 1.39129 16.4949 L 1.37214 16.5443 L 1.35299 16.5937 L 1.33384 16.643 L 1.31468 16.6923 L 1.29553 16.7416 L 1.27637 16.7908 L 1.2572 16.84 L 1.23804 16.8892 L 1.21887 16.9383 L 1.1997 16.9874 L 1.18053 17.0365 L 1.16894 17.0851 L 1.12142 17.0882 L 1.0739 17.0913 L 1.02636 17.0942 L 0.978823 17.097 L 0.931274 17.0997 L 0.883718 17.1022 L 0.836154 17.1046 L 0.788585 17.1068 L 0.741009 17.109 L 0.693427 17.111 L 0.64584 17.1128 L 0.598248 17.1145 L 0.550652 17.1161 L 0.503051 17.1176 L 0.455446 17.1189 L 0.407838 17.1201 L 0.360227 17.1212 L 0.312612 17.1221 L 0.264996 17.1229 L 0.217377 17.1236 L 0.169757 17.1242 L 0.122135 17.1246 L 0.0745127 17.1248 L -0.0745127 17.1248 L -0.122135 17.1246 L -0.169757 17.1242 L -0.217377 17.1236 L -0.264996 17.1229 L -0.312612 17.1221 L -0.360227 17.1212 L -0.407838 17.1201 L -0.455446 17.1189 L -0.503051 17.1176 L -0.550652 17.1161 L -0.598248 17.1145 L -0.64584 17.1128 L -0.693427 17.111 L -0.741009 17.109 L -0.788585 17.1068 L -0.836154 17.1046 L -0.883718 17.1022 L -0.931274 17.0997 L -0.978823 17.097 L -1.02636 17.0942 L -1.0739 17.0913 L -1.12142 17.0882 L -1.16894 17.0851 L -1.18053 17.0365 L -1.1997 16.9874 L -1.21887 16.9383 L -1.23804 16.8892 L -1.2572 16.84 L -1.27637 16.7908 L -1.29553 16.7416 L -1.31468 16.6923 L -1.33384 16.643 L -1.35299 16.5937 L -1.37214 16.5443 L -1.39129 16.4949 L -1.41043 16.4455 L -1.42958 16.3961 L -1.44872 16.3466 L -1.46785 16.2971 L -1.48698 16.2475 L -1.50611 16.1979 L -1.52524 16.1483 L -1.54437 16.0986 L -1.56349 16.0489 L -1.5826 15.9992 L -1.60172 15.9494 L -1.62083 15.8996 L -1.63993 15.8498 L -1.65903 15.7999 L -1.67813 15.75 L -1.69723 15.7001 L -1.71632 15.6501 L -1.7354 15.6001 L -1.75449 15.55 L -1.77356 15.4999 L -1.79264 15.4498 L -1.81171 15.3996 L -1.83077 15.3494 L -1.84983 15.2991 L -1.86888 15.2488 L -1.88793 15.1985 L -1.90698 15.1481 L -1.92602 15.0977 L -1.94505 15.0473 L -1.96408 14.9968 L -1.9831 14.9462 L -2.00212 14.8956 L -2.02113 14.845 L -2.04014 14.7943 L -2.05914 14.7436 L -2.07813 14.6928 L -2.09712 14.642 L -2.1161 14.5912 L -2.13507 14.5403 L -2.15404 14.4893 L -2.173 14.4384 L -2.19195 14.3873 L -2.2109 14.3362 L -2.22984 14.2851 L -2.24877 14.2339 L -2.26769 14.1827 L -2.28661 14.1314 L -2.30552 14.0801 L -2.32442 14.0287 L -2.34331 13.9773 L -2.36219 13.9258 L -2.38106 13.8743 L -2.39993 13.8227 L -2.41878 13.7711 L -2.43763 13.7194 L -2.45646 13.6676 L -2.47529 13.6158 L -2.49411 13.564 L -2.51291 13.5121 L -2.53171 13.4601 L -2.5505 13.4081 L -2.56927 13.356 L -2.58803 13.3039 L -2.60679 13.2517 L -2.62553 13.1994 L -2.62553 13.1994 L -2.66284 13.2405 L -2.70013 13.2816 L -2.73742 13.3225 L -2.7747 13.3635 L -2.81196 13.4043 L -2.84921 13.4452 L -2.88645 13.4859 L -2.92368 13.5266 L -2.96089 13.5673 L -2.9981 13.6079 L -3.03529 13.6484 L -3.07247 13.6889 L -3.10964 13.7293 L -3.1468 13.7697 L -3.18394 13.8101 L -3.22108 13.8504 L -3.2582 13.8906 L -3.29531 13.9308 L -3.33241 13.9709 L -3.36949 14.011 L -3.40657 14.051 L -3.44363 14.091 L -3.48069 14.131 L -3.51773 14.1709 L -3.55476 14.2107 L -3.59178 14.2505 L -3.62878 14.2903 L -3.66578 14.33 L -3.70276 14.3697 L -3.73974 14.4093 L -3.7767 14.4489 L -3.81365 14.4884 L -3.85059 14.5279 L -3.88752 14.5674 L -3.92443 14.6068 L -3.96134 14.6462 L -3.99823 14.6855 L -4.03512 14.7248 L -4.07199 14.7641 L -4.10885 14.8033 L -4.1457 14.8425 L -4.18254 14.8816 L -4.21937 14.9207 L -4.25619 14.9597 L -4.293 14.9988 L -4.3298 15.0377 L -4.36658 15.0767 L -4.40336 15.1156 L -4.44012 15.1545 L -4.47688 15.1933 L -4.51362 15.2321 L -4.55036 15.2709 L -4.58708 15.3096 L -4.62379 15.3483 L -4.6605 15.387 L -4.69719 15.4256 L -4.73387 15.4642 L -4.77054 15.5028 L -4.8072 15.5413 L -4.84385 15.5798 L -4.8805 15.6182 L -4.91713 15.6567 L -4.95375 15.6951 L -4.99036 15.7334 L -5.02696 15.7718 L -5.06355 15.8101 L -5.10013 15.8483 L -5.1367 15.8866 L -5.17327 15.9248 L -5.20982 15.963 L -5.24636 16.0011 L -5.28289 16.0393 L -5.31942 16.0774 L -5.35593 16.1154 L -5.39243 16.1535 L -5.42893 16.1915 L -5.45821 16.2319 L -5.50333 16.2166 L -5.5484 16.2013 L -5.59344 16.1858 L -5.63843 16.1702 L -5.68337 16.1544 L -5.72827 16.1385 L -5.77313 16.1225 L -5.81794 16.1064 L -5.86271 16.0902 L -5.90744 16.0738 L -5.95211 16.0573 L -5.99674 16.0407 L -6.04133 16.024 L -6.08587 16.0071 L -6.13036 15.9901 L -6.1748 15.973 L -6.2192 15.9558 L -6.26355 15.9384 L -6.30784 15.921 L -6.3521 15.9033 L -6.3963 15.8856 L -6.44045 15.8678 L -6.48455 15.8498 L -6.62223 15.7928 L -6.66613 15.7743 L -6.70997 15.7557 L -6.75376 15.737 L -6.79749 15.7181 L -6.84118 15.6992 L -6.88481 15.6801 L -6.92839 15.6609 L -6.97191 15.6415 L -7.01538 15.6221 L -7.0588 15.6025 L -7.10216 15.5828 L -7.14547 15.563 L -7.18872 15.5431 L -7.23192 15.523 L -7.27506 15.5029 L -7.31814 15.4826 L -7.36117 15.4622 L -7.40414 15.4416 L -7.44705 15.421 L -7.48991 15.4002 L -7.53271 15.3793 L -7.57545 15.3583 L -7.61813 15.3372 L -7.61026 15.2879 L -7.60919 15.2352 L -7.60811 15.1825 L -7.60701 15.1298 L -7.6059 15.077 L -7.60478 15.0242 L -7.60364 14.9714 L -7.60248 14.9186 L -7.60132 14.8657 L -7.60013 14.8128 L -7.59894 14.7599 L -7.59773 14.7069 L -7.5965 14.6539 L -7.59526 14.6009 L -7.594 14.5479 L -7.59273 14.4948 L -7.59144 14.4417 L -7.59014 14.3886 L -7.58882 14.3354 L -7.58748 14.2822 L -7.58613 14.229 L -7.58476 14.1757 L -7.58338 14.1224 L -7.58198 14.0691 L -7.58056 14.0157 L -7.57912 13.9623 L -7.57766 13.9089 L -7.57619 13.8555 L -7.5747 13.802 L -7.57319 13.7485 L -7.57166 13.6949 L -7.57012 13.6413 L -7.56855 13.5877 L -7.56697 13.5341 L -7.56537 13.4804 L -7.56374 13.4267 L -7.5621 13.3729 L -7.56044 13.3191 L -7.55876 13.2653 L -7.55705 13.2114 L -7.55533 13.1575 L -7.55358 13.1036 L -7.55181 13.0496 L -7.55003 12.9956 L -7.54822 12.9415 L -7.54638 12.8874 L -7.54453 12.8333 L -7.54265 12.7791 L -7.54075 12.7249 L -7.53883 12.6707 L -7.53688 12.6164 L -7.53491 12.5621 L -7.53291 12.5077 L -7.53089 12.4533 L -7.52885 12.3989 L -7.52678 12.3444 L -7.52468 12.2899 L -7.52256 12.2353 L -7.52041 12.1807 L -7.51824 12.126 L -7.51604 12.0713 L -7.51381 12.0166 L -7.51155 11.9618 L -7.50927 11.907 L -7.50696 11.8521 L -7.50462 11.7972 L -7.50225 11.7422 L -7.49985 11.6872 L -7.49742 11.6321 L -7.49496 11.577 L -7.49247 11.5219 L -7.48995 11.4667 L -7.4874 11.4114 L -7.48481 11.3561 L -7.4822 11.3008 L -7.47955 11.2454 L -7.47686 11.1899 L -7.47686 11.1899 L -7.52706 11.2136 L -7.57723 11.2373 L -7.62736 11.2609 L -7.67747 11.2844 L -7.72753 11.3079 L -7.77757 11.3314 L -7.82757 11.3548 L -7.87754 11.3781 L -7.92748 11.4014 L -7.97739 11.4247 L -8.02727 11.4479 L -8.07711 11.4711 L -8.12693 11.4943 L -8.17671 11.5173 L -8.22646 11.5404 L -8.27619 11.5634 L -8.32588 11.5864 L -8.37554 11.6093 L -8.42518 11.6322 L -8.47478 11.655 L -8.52436 11.6778 L -8.57391 11.7006 L -8.62343 11.7233 L -8.67292 11.746 L -8.72238 11.7687 L -8.77181 11.7913 L -8.82122 11.8138 L -8.8706 11.8364 L -8.91995 11.8589 L -8.96927 11.8813 L -9.01857 11.9038 L -9.06784 11.9262 L -9.11708 11.9485 L -9.1663 11.9708 L -9.21549 11.9931 L -9.26465 12.0154 L -9.31379 12.0376 L -9.36291 12.0598 L -9.41199 12.0819 L -9.46106 12.1041 L -9.51009 12.1261 L -9.55911 12.1482 L -9.60809 12.1702 L -9.65706 12.1922 L -9.70599 12.2142 L -9.75491 12.2361 L -9.8038 12.258 L -9.85267 12.2799 L -9.90151 12.3017 L -9.95033 12.3236 L -9.99912 12.3454 L -10.0479 12.3671 L -10.0966 12.3888 L -10.1454 12.4105 L -10.1941 12.4322 L -10.2428 12.4539 L -10.2914 12.4755 L -10.3401 12.4971 L -10.3887 12.5186 L -10.4373 12.5402 L -10.4858 12.5617 L -10.5344 12.5832 L -10.5829 12.6046 L -10.6314 12.6261 L -10.6799 12.6475 L -10.7284 12.6689 L -10.7768 12.6902 L -10.8252 12.7116 L -10.8736 12.7329 L -10.922 12.7542 L -10.9704 12.7754 L -11.0187 12.7967 L -11.067 12.8179 L -11.1153 12.8391 L -11.1636 12.8603 L -11.2119 12.8814 L -11.2544 12.9075 L -11.2902 12.8762 L -11.326 12.8447 L -11.3617 12.8132 L -11.3973 12.7815 L -11.4328 12.7498 L -11.4682 12.718 L -11.5035 12.686 L -11.5387 12.654 L -11.5739 12.6218 L -11.6089 12.5896 L -11.6439 12.5573 L -11.6788 12.5248 L -11.7136 12.4923 L -11.7483 12.4597 L -11.7829 12.427 L -11.8174 12.3942 L -11.8518 12.3612 L -11.8861 12.3282 L -11.9204 12.2951 L -11.9545 12.2619 L -11.9886 12.2286 L -12.0225 12.1953 L -12.0564 12.1618 L -12.1618 12.0564 L -12.1953 12.0225 L -12.2286 11.9886 L -12.2619 11.9545 L -12.2951 11.9204 L -12.3282 11.8861 L -12.3612 11.8518 L -12.3942 11.8174 L -12.427 11.7829 L -12.4597 11.7483 L -12.4923 11.7136 L -12.5248 11.6788 L -12.5573 11.6439 L -12.5896 11.6089 L -12.6218 11.5739 L -12.654 11.5387 L -12.686 11.5035 L -12.718 11.4682 L -12.7498 11.4328 L -12.7815 11.3973 L -12.8132 11.3617 L -12.8447 11.326 L -12.8762 11.2902 L -12.9075 11.2544 L -12.8814 11.2119 L -12.8603 11.1636 L -12.8391 11.1153 L -12.8179 11.067 L -12.7967 11.0187 L -12.7754 10.9704 L -12.7542 10.922 L -12.7329 10.8736 L -12.7116 10.8252 L -12.6902 10.7768 L -12.6689 10.7284 L -12.6475 10.6799 L -12.6261 10.6314 L -12.6046 10.5829 L -12.5832 10.5344 L -12.5617 10.4858 L -12.5402 10.4373 L -12.5186 10.3887 L -12.4971 10.3401 L -12.4755 10.2914 L -12.4539 10.2428 L -12.4322 10.1941 L -12.4105 10.1454 L -12.3888 10.0966 L -12.3671 10.0479 L -12.3454 9.99912 L -12.3236 9.95033 L -12.3017 9.90151 L -12.2799 9.85267 L -12.258 9.8038 L -12.2361 9.75491 L -12.2142 9.70599 L -12.1922 9.65706 L -12.1702 9.60809 L -12.1482 9.55911 L -12.1261 9.51009 L -12.1041 9.46106 L -12.0819 9.41199 L -12.0598 9.36291 L -12.0376 9.31379 L -12.0154 9.26465 L -11.9931 9.21549 L -11.9708 9.1663 L -11.9485 9.11708 L -11.9262 9.06784 L -11.9038 9.01857 L -11.8813 8.96927 L -11.8589 8.91995 L -11.8364 8.8706 L -11.8138 8.82122 L -11.7913 8.77181 L -11.7687 8.72238 L -11.746 8.67292 L -11.7233 8.62343 L -11.7006 8.57391 L -11.6778 8.52436 L -11.655 8.47478 L -11.6322 8.42518 L -11.6093 8.37554 L -11.5864 8.32588 L -11.5634 8.27619 L -11.5404 8.22646 L -11.5173 8.17671 L -11.4943 8.12693 L -11.4711 8.07711 L -11.4479 8.02727 L -11.4247 7.97739 L -11.4014 7.92748 L -11.3781 7.87754 L -11.3548 7.82757 L -11.3314 7.77757 L -11.3079 7.72753 L -11.2844 7.67747 L -11.2609 7.62736 L -11.2373 7.57723 L -11.2136 7.52706 L -11.1899 7.47686 L -11.1899 7.47686 L -11.2454 7.47955 L -11.3008 7.4822 L -11.3561 7.48481 L -11.4114 7.4874 L -11.4667 7.48995 L -11.5219 7.49247 L -11.577 7.49496 L -11.6321 7.49742 L -11.6872 7.49985 L -11.7422 7.50225 L -11.7972 7.50462 L -11.8521 7.50696 L -11.907 7.50927 L -11.9618 7.51155 L -12.0166 7.51381 L -12.0713 7.51604 L -12.126 7.51824 L -12.1807 7.52041 L -12.2353 7.52256 L -12.2899 7.52468 L -12.3444 7.52678 L -12.3989 7.52885 L -12.4533 7.53089 L -12.5077 7.53291 L -12.5621 7.53491 L -12.6164 7.53688 L -12.6707 7.53883 L -12.7249 7.54075 L -12.7791 7.54265 L -12.8333 7.54453 L -12.8874 7.54638 L -12.9415 7.54822 L -12.9956 7.55003 L -13.0496 7.55181 L -13.1036 7.55358 L -13.1575 7.55533 L -13.2114 7.55705 L -13.2653 7.55876 L -13.3191 7.56044 L -13.3729 7.5621 L -13.4267 7.56374 L -13.4804 7.56537 L -13.5341 7.56697 L -13.5877 7.56855 L -13.6413 7.57012 L -13.6949 7.57166 L -13.7485 7.57319 L -13.802 7.5747 L -13.8555 7.57619 L -13.9089 7.57766 L -13.9623 7.57912 L -14.0157 7.58056 L -14.0691 7.58198 L -14.1224 7.58338 L -14.1757 7.58476 L -14.229 7.58613 L -14.2822 7.58748 L -14.3354 7.58882 L -14.3886 7.59014 L -14.4417 7.59144 L -14.4948 7.59273 L -14.5479 7.594 L -14.6009 7.59526 L -14.6539 7.5965 L -14.7069 7.59773 L -14.7599 7.59894 L -14.8128 7.60013 L -14.8657 7.60132 L -14.9186 7.60248 L -14.9714 7.60364 L -15.0242 7.60478 L -15.077 7.6059 L -15.1298 7.60701 L -15.1825 7.60811 L -15.2352 7.60919 L -15.2879 7.61026 L -15.3372 7.61813 L -15.3583 7.57545 L -15.3793 7.53271 L -15.4002 7.48991 L -15.421 7.44705 L -15.4416 7.40414 L -15.4622 7.36117 L -15.4826 7.31814 L -15.5029 7.27506 L -15.523 7.23192 L -15.5431 7.18872 L -15.563 7.14547 L -15.5828 7.10216 L -15.6025 7.0588 L -15.6221 7.01538 L -15.6415 6.97191 L -15.6609 6.92839 L -15.6801 6.88481 L -15.6992 6.84118 L -15.7181 6.79749 L -15.737 6.75376 L -15.7557 6.70997 L -15.7743 6.66613 L -15.7928 6.62223 L -15.8498 6.48455 L -15.8678 6.44045 L -15.8856 6.3963 L -15.9033 6.3521 L -15.921 6.30784 L -15.9384 6.26355 L -15.9558 6.2192 L -15.973 6.1748 L -15.9901 6.13036 L -16.0071 6.08587 L -16.024 6.04133 L -16.0407 5.99674 L -16.0573 5.95211 L -16.0738 5.90744 L -16.0902 5.86271 L -16.1064 5.81794 L -16.1225 5.77313 L -16.1385 5.72827 L -16.1544 5.68337 L -16.1702 5.63843 L -16.1858 5.59344 L -16.2013 5.5484 L -16.2166 5.50333 L -16.2319 5.45821 L -16.1915 5.42893 L -16.1535 5.39243 L -16.1154 5.35593 L -16.0774 5.31942 L -16.0393 5.28289 L -16.0011 5.24636 L -15.963 5.20982 L -15.9248 5.17327 L -15.8866 5.1367 L -15.8483 5.10013 L -15.8101 5.06355 L -15.7718 5.02696 L -15.7334 4.99036 L -15.6951 4.95375 L -15.6567 4.91713 L -15.6182 4.8805 L -15.5798 4.84385 L -15.5413 4.8072 L -15.5028 4.77054 L -15.4642 4.73387 L -15.4256 4.69719 L -15.387 4.6605 L -15.3483 4.62379 L -15.3096 4.58708 L -15.2709 4.55036 L -15.2321 4.51362 L -15.1933 4.47688 L -15.1545 4.44012 L -15.1156 4.40336 L -15.0767 4.36658 L -15.0377 4.3298 L -14.9988 4.293 L -14.9597 4.25619 L -14.9207 4.21937 L -14.8816 4.18254 L -14.8425 4.1457 L -14.8033 4.10885 L -14.7641 4.07199 L -14.7248 4.03512 L -14.6855 3.99823 L -14.6462 3.96134 L -14.6068 3.92443 L -14.5674 3.88752 L -14.5279 3.85059 L -14.4884 3.81365 L -14.4489 3.7767 L -14.4093 3.73974 L -14.3697 3.70276 L -14.33 3.66578 L -14.2903 3.62878 L -14.2505 3.59178 L -14.2107 3.55476 L -14.1709 3.51773 L -14.131 3.48069 L -14.091 3.44363 L -14.051 3.40657 L -14.011 3.36949 L -13.9709 3.33241 L -13.9308 3.29531 L -13.8906 3.2582 L -13.8504 3.22108 L -13.8101 3.18394 L -13.7697 3.1468 L -13.7293 3.10964 L -13.6889 3.07247 L -13.6484 3.03529 L -13.6079 2.9981 L -13.5673 2.96089 L -13.5266 2.92368 L -13.4859 2.88645 L -13.4452 2.84921 L -13.4043 2.81196 L -13.3635 2.7747 L -13.3225 2.73742 L -13.2816 2.70013 L -13.2405 2.66284 L -13.1994 2.62553 L -13.1994 2.62553 L -13.2517 2.60679 L -13.3039 2.58803 L -13.356 2.56927 L -13.4081 2.5505 L -13.4601 2.53171 L -13.5121 2.51291 L -13.564 2.49411 L -13.6158 2.47529 L -13.6676 2.45646 L -13.7194 2.43763 L -13.7711 2.41878 L -13.8227 2.39993 L -13.8743 2.38106 L -13.9258 2.36219 L -13.9773 2.34331 L -14.0287 2.32442 L -14.0801 2.30552 L -14.1314 2.28661 L -14.1827 2.26769 L -14.2339 2.24877 L -14.2851 2.22984 L -14.3362 2.2109 L -14.3873 2.19195 L -14.4384 2.173 L -14.4893 2.15404 L -14.5403 2.13507 L -14.5912 2.1161 L -14.642 2.09712 L -14.6928 2.07813 L -14.7436 2.05914 L -14.7943 2.04014 L -14.845 2.02113 L -14.8956 2.00212 L -14.9462 1.9831 L -14.9968 1.96408 L -15.0473 1.94505 L -15.0977 1.92602 L -15.1481 1.90698 L -15.1985 1.88793 L -15.2488 1.86888 L -15.2991 1.84983 L -15.3494 1.83077 L -15.3996 1.81171 L -15.4498 1.79264 L -15.4999 1.77356 L -15.55 1.75449 L -15.6001 1.7354 L -15.6501 1.71632 L -15.7001 1.69723 L -15.75 1.67813 L -15.7999 1.65903 L -15.8498 1.63993 L -15.8996 1.62083 L -15.9494 1.60172 L -15.9992 1.5826 L -16.0489 1.56349 L -16.0986 1.54437 L -16.1483 1.52524 L -16.1979 1.50611 L -16.2475 1.48698 L -16.2971 1.46785 L -16.3466 1.44872 L -16.3961 1.42958 L -16.4455 1.41043 L -16.4949 1.39129 L -16.5443 1.37214 L -16.5937 1.35299 L -16.643 1.33384 L -16.6923 1.31468 L -16.7416 1.29553 L -16.7908 1.27637 L -16.84 1.2572 L -16.8892 1.23804 L -16.9383 1.21887 L -16.9874 1.1997 L -17.0365 1.18053 L -17.0851 1.16894 L -17.0882 1.12142 L -17.0913 1.0739 L -17.0942 1.02636 L -17.097 0.978823 L -17.0997 0.931274 L -17.1022 0.883718 L -17.1046 0.836154 L -17.1068 0.788585 L -17.109 0.741009 L -17.111 0.693427 L -17.1128 0.64584 L -17.1145 0.598248 L -17.1161 0.550652 L -17.1176 0.503051 L -17.1189 0.455446 L -17.1201 0.407838 L -17.1212 0.360227 L -17.1221 0.312612 L -17.1229 0.264996 L -17.1236 0.217377 L -17.1242 0.169757 L -17.1246 0.122135 L -17.1248 0.0745127 L -17.1248 -0.0745127 L -17.1246 -0.122135 L -17.1242 -0.169757 L -17.1236 -0.217377 L -17.1229 -0.264996 L -17.1221 -0.312612 L -17.1212 -0.360227 L -17.1201 -0.407838 L -17.1189 -0.455446 L -17.1176 -0.503051 L -17.1161 -0.550652 L -17.1145 -0.598248 L -17.1128 -0.64584 L -17.111 -0.693427 L -17.109 -0.741009 L -17.1068 -0.788585 L -17.1046 -0.836154 L -17.1022 -0.883718 L -17.0997 -0.931274 L -17.097 -0.978823 L -17.0942 -1.02636 L -17.0913 -1.0739 L -17.0882 -1.12142 L -17.0851 -1.16894 L -17.0365 -1.18053 L -16.9874 -1.1997 L -16.9383 -1.21887 L -16.8892 -1.23804 L -16.84 -1.2572 L -16.7908 -1.27637 L -16.7416 -1.29553 L -16.6923 -1.31468 L -16.643 -1.33384 L -16.5937 -1.35299 L -16.5443 -1.37214 L -16.4949 -1.39129 L -16.4455 -1.41043 L -16.3961 -1.42958 L -16.3466 -1.44872 L -16.2971 -1.46785 L -16.2475 -1.48698 L -16.1979 -1.50611 L -16.1483 -1.52524 L -16.0986 -1.54437 L -16.0489 -1.56349 L -15.9992 -1.5826 L -15.9494 -1.60172 L -15.8996 -1.62083 L -15.8498 -1.63993 L -15.7999 -1.65903 L -15.75 -1.67813 L -15.7001 -1.69723 L -15.6501 -1.71632 L -15.6001 -1.7354 L -15.55 -1.75449 L -15.4999 -1.77356 L -15.4498 -1.79264 L -15.3996 -1.81171 L -15.3494 -1.83077 L -15.2991 -1.84983 L -15.2488 -1.86888 L -15.1985 -1.88793 L -15.1481 -1.90698 L -15.0977 -1.92602 L -15.0473 -1.94505 L -14.9968 -1.96408 L -14.9462 -1.9831 L -14.8956 -2.00212 L -14.845 -2.02113 L -14.7943 -2.04014 L -14.7436 -2.05914 L -14.6928 -2.07813 L -14.642 -2.09712 L -14.5912 -2.1161 L -14.5403 -2.13507 L -14.4893 -2.15404 L -14.4384 -2.173 L -14.3873 -2.19195 L -14.3362 -2.2109 L -14.2851 -2.22984 L -14.2339 -2.24877 L -14.1827 -2.26769 L -14.1314 -2.28661 L -14.0801 -2.30552 L -14.0287 -2.32442 L -13.9773 -2.34331 L -13.9258 -2.36219 L -13.8743 -2.38106 L -13.8227 -2.39993 L -13.7711 -2.41878 L -13.7194 -2.43763 L -13.6676 -2.45646 L -13.6158 -2.47529 L -13.564 -2.49411 L -13.5121 -2.51291 L -13.4601 -2.53171 L -13.4081 -2.5505 L -13.356 -2.56927 L -13.3039 -2.58803 L -13.2517 -2.60679 L -13.1994 -2.62553 L -13.1994 -2.62553 L -13.2405 -2.66284 L -13.2816 -2.70013 L -13.3225 -2.73742 L -13.3635 -2.7747 L -13.4043 -2.81196 L -13.4452 -2.84921 L -13.4859 -2.88645 L -13.5266 -2.92368 L -13.5673 -2.96089 L -13.6079 -2.9981 L -13.6484 -3.03529 L -13.6889 -3.07247 L -13.7293 -3.10964 L -13.7697 -3.1468 L -13.8101 -3.18394 L -13.8504 -3.22108 L -13.8906 -3.2582 L -13.9308 -3.29531 L -13.9709 -3.33241 L -14.011 -3.36949 L -14.051 -3.40657 L -14.091 -3.44363 L -14.131 -3.48069 L -14.1709 -3.51773 L -14.2107 -3.55476 L -14.2505 -3.59178 L -14.2903 -3.62878 L -14.33 -3.66578 L -14.3697 -3.70276 L -14.4093 -3.73974 L -14.4489 -3.7767 L -14.4884 -3.81365 L -14.5279 -3.85059 L -14.5674 -3.88752 L -14.6068 -3.92443 L -14.6462 -3.96134 L -14.6855 -3.99823 L -14.7248 -4.03512 L -14.7641 -4.07199 L -14.8033 -4.10885 L -14.8425 -4.1457 L -14.8816 -4.18254 L -14.9207 -4.21937 L -14.9597 -4.25619 L -14.9988 -4.293 L -15.0377 -4.3298 L -15.0767 -4.36658 L -15.1156 -4.40336 L -15.1545 -4.44012 L -15.1933 -4.47688 L -15.2321 -4.51362 L -15.2709 -4.55036 L -15.3096 -4.58708 L -15.3483 -4.62379 L -15.387 -4.6605 L -15.4256 -4.69719 L -15.4642 -4.73387 L -15.5028 -4.77054 L -15.5413 -4.8072 L -15.5798 -4.84385 L -15.6182 -4.8805 L -15.6567 -4.91713 L -15.6951 -4.95375 L -15.7334 -4.99036 L -15.7718 -5.02696 L -15.8101 -5.06355 L -15.8483 -5.10013 L -15.8866 -5.1367 L -15.9248 -5.17327 L -15.963 -5.20982 L -16.0011 -5.24636 L -16.0393 -5.28289 L -16.0774 -5.31942 L -16.1154 -5.35593 L -16.1535 -5.39243 L -16.1915 -5.42893 L -16.2319 -5.45821 L -16.2166 -5.50333 L -16.2013 -5.5484 L -16.1858 -5.59344 L -16.1702 -5.63843 L -16.1544 -5.68337 L -16.1385 -5.72827 L -16.1225 -5.77313 L -16.1064 -5.81794 L -16.0902 -5.86271 L -16.0738 -5.90744 L -16.0573 -5.95211 L -16.0407 -5.99674 L -16.024 -6.04133 L -16.0071 -6.08587 L -15.9901 -6.13036 L -15.973 -6.1748 L -15.9558 -6.2192 L -15.9384 -6.26355 L -15.921 -6.30784 L -15.9033 -6.3521 L -15.8856 -6.3963 L -15.8678 -6.44045 L -15.8498 -6.48455 L -15.7928 -6.62223 L -15.7743 -6.66613 L -15.7557 -6.70997 L -15.737 -6.75376 L -15.7181 -6.79749 L -15.6992 -6.84118 L -15.6801 -6.88481 L -15.6609 -6.92839 L -15.6415 -6.97191 L -15.6221 -7.01538 L -15.6025 -7.0588 L -15.5828 -7.10216 L -15.563 -7.14547 L -15.5431 -7.18872 L -15.523 -7.23192 L -15.5029 -7.27506 L -15.4826 -7.31814 L -15.4622 -7.36117 L -15.4416 -7.40414 L -15.421 -7.44705 L -15.4002 -7.48991 L -15.3793 -7.53271 L -15.3583 -7.57545 L -15.3372 -7.61813 L -15.2879 -7.61026 L -15.2352 -7.60919 L -15.1825 -7.60811 L -15.1298 -7.60701 L -15.077 -7.6059 L -15.0242 -7.60478 L -14.9714 -7.60364 L -14.9186 -7.60248 L -14.8657 -7.60132 L -14.8128 -7.60013 L -14.7599 -7.59894 L -14.7069 -7.59773 L -14.6539 -7.5965 L -14.6009 -7.59526 L -14.5479 -7.594 L -14.4948 -7.59273 L -14.4417 -7.59144 L -14.3886 -7.59014 L -14.3354 -7.58882 L -14.2822 -7.58748 L -14.229 -7.58613 L -14.1757 -7.58476 L -14.1224 -7.58338 L -14.0691 -7.58198 L -14.0157 -7.58056 L -13.9623 -7.57912 L -13.9089 -7.57766 L -13.8555 -7.57619 L -13.802 -7.5747 L -13.7485 -7.57319 L -13.6949 -7.57166 L -13.6413 -7.57012 L -13.5877 -7.56855 L -13.5341 -7.56697 L -13.4804 -7.56537 L -13.4267 -7.56374 L -13.3729 -7.5621 L -13.3191 -7.56044 L -13.2653 -7.55876 L -13.2114 -7.55705 L -13.1575 -7.55533 L -13.1036 -7.55358 L -13.0496 -7.55181 L -12.9956 -7.55003 L -12.9415 -7.54822 L -12.8874 -7.54638 L -12.8333 -7.54453 L -12.7791 -7.54265 L -12.7249 -7.54075 L -12.6707 -7.53883 L -12.6164 -7.53688 L -12.5621 -7.53491 L -12.5077 -7.53291 L -12.4533 -7.53089 L -12.3989 -7.52885 L -12.3444 -7.52678 L -12.2899 -7.52468 L -12.2353 -7.52256 L -12.1807 -7.52041 L -12.126 -7.51824 L -12.0713 -7.51604 L -12.0166 -7.51381 L -11.9618 -7.51155 L -11.907 -7.50927 L -11.8521 -7.50696 L -11.7972 -7.50462 L -11.7422 -7.50225 L -11.6872 -7.49985 L -11.6321 -7.49742 L -11.577 -7.49496 L -11.5219 -7.49247 L -11.4667 -7.48995 L -11.4114 -7.4874 L -11.3561 -7.48481 L -11.3008 -7.4822 L -11.2454 -7.47955 L -11.1899 -7.47686 L -11.1899 -7.47686 L -11.2136 -7.52706 L -11.2373 -7.57723 L -11.2609 -7.62736 L -11.2844 -7.67747 L -11.3079 -7.72753 L -11.3314 -7.77757 L -11.3548 -7.82757 L -11.3781 -7.87754 L -11.4014 -7.92748 L -11.4247 -7.97739 L -11.4479 -8.02727 L -11.4711 -8.07711 L -11.4943 -8.12693 L -11.5173 -8.17671 L -11.5404 -8.22646 L -11.5634 -8.27619 L -11.5864 -8.32588 L -11.6093 -8.37554 L -11.6322 -8.42518 L -11.655 -8.47478 L -11.6778 -8.52436 L -11.7006 -8.57391 L -11.7233 -8.62343 L -11.746 -8.67292 L -11.7687 -8.72238 L -11.7913 -8.77181 L -11.8138 -8.82122 L -11.8364 -8.8706 L -11.8589 -8.91995 L -11.8813 -8.96927 L -11.9038 -9.01857 L -11.9262 -9.06784 L -11.9485 -9.11708 L -11.9708 -9.1663 L -11.9931 -9.21549 L -12.0154 -9.26465 L -12.0376 -9.31379 L -12.0598 -9.36291 L -12.0819 -9.41199 L -12.1041 -9.46106 L -12.1261 -9.51009 L -12.1482 -9.55911 L -12.1702 -9.60809 L -12.1922 -9.65706 L -12.2142 -9.70599 L -12.2361 -9.75491 L -12.258 -9.8038 L -12.2799 -9.85267 L -12.3017 -9.90151 L -12.3236 -9.95033 L -12.3454 -9.99912 L -12.3671 -10.0479 L -12.3888 -10.0966 L -12.4105 -10.1454 L -12.4322 -10.1941 L -12.4539 -10.2428 L -12.4755 -10.2914 L -12.4971 -10.3401 L -12.5186 -10.3887 L -12.5402 -10.4373 L -12.5617 -10.4858 L -12.5832 -10.5344 L -12.6046 -10.5829 L -12.6261 -10.6314 L -12.6475 -10.6799 L -12.6689 -10.7284 L -12.6902 -10.7768 L -12.7116 -10.8252 L -12.7329 -10.8736 L -12.7542 -10.922 L -12.7754 -10.9704 L -12.7967 -11.0187 L -12.8179 -11.067 L -12.8391 -11.1153 L -12.8603 -11.1636 L -12.8814 -11.2119 L -12.9075 -11.2544 L -12.8762 -11.2902 L -12.8447 -11.326 L -12.8132 -11.3617 L -12.7815 -11.3973 L -12.7498 -11.4328 L -12.718 -11.4682 L -12.686 -11.5035 L -12.654 -11.5387 L -12.6218 -11.5739 L -12.5896 -11.6089 L -12.5573 -11.6439 L -12.5248 -11.6788 L -12.4923 -11.7136 L -12.4597 -11.7483 L -12.427 -11.7829 L -12.3942 -11.8174 L -12.3612 -11.8518 L -12.3282 -11.8861 L -12.2951 -11.9204 L -12.2619 -11.9545 L -12.2286 -11.9886 L -12.1953 -12.0225 L -12.1618 -12.0564 L -12.0564 -12.1618 L -12.0225 -12.1953 L -11.9886 -12.2286 L -11.9545 -12.2619 L -11.9204 -12.2951 L -11.8861 -12.3282 L -11.8518 -12.3612 L -11.8174 -12.3942 L -11.7829 -12.427 L -11.7483 -12.4597 L -11.7136 -12.4923 L -11.6788 -12.5248 L -11.6439 -12.5573 L -11.6089 -12.5896 L -11.5739 -12.6218 L -11.5387 -12.654 L -11.5035 -12.686 L -11.4682 -12.718 L -11.4328 -12.7498 L -11.3973 -12.7815 L -11.3617 -12.8132 L -11.326 -12.8447 L -11.2902 -12.8762 L -11.2544 -12.9075 L -11.2119 -12.8814 L -11.1636 -12.8603 L -11.1153 -12.8391 L -11.067 -12.8179 L -11.0187 -12.7967 L -10.9704 -12.7754 L -10.922 -12.7542 L -10.8736 -12.7329 L -10.8252 -12.7116 L -10.7768 -12.6902 L -10.7284 -12.6689 L -10.6799 -12.6475 L -10.6314 -12.6261 L -10.5829 -12.6046 L -10.5344 -12.5832 L -10.4858 -12.5617 L -10.4373 -12.5402 L -10.3887 -12.5186 L -10.3401 -12.4971 L -10.2914 -12.4755 L -10.2428 -12.4539 L -10.1941 -12.4322 L -10.1454 -12.4105 L -10.0966 -12.3888 L -10.0479 -12.3671 L -9.99912 -12.3454 L -9.95033 -12.3236 L -9.90151 -12.3017 L -9.85267 -12.2799 L -9.8038 -12.258 L -9.75491 -12.2361 L -9.70599 -12.2142 L -9.65706 -12.1922 L -9.60809 -12.1702 L -9.55911 -12.1482 L -9.51009 -12.1261 L -9.46106 -12.1041 L -9.41199 -12.0819 L -9.36291 -12.0598 L -9.31379 -12.0376 L -9.26465 -12.0154 L -9.21549 -11.9931 L -9.1663 -11.9708 L -9.11708 -11.9485 L -9.06784 -11.9262 L -9.01857 -11.9038 L -8.96927 -11.8813 L -8.91995 -11.8589 L -8.8706 -11.8364 L -8.82122 -11.8138 L -8.77181 -11.7913 L -8.72238 -11.7687 L -8.67292 -11.746 L -8.62343 -11.7233 L -8.57391 -11.7006 L -8.52436 -11.6778 L -8.47478 -11.655 L -8.42518 -11.6322 L -8.37554 -11.6093 L -8.32588 -11.5864 L -8.27619 -11.5634 L -8.22646 -11.5404 L -8.17671 -11.5173 L -8.12693 -11.4943 L -8.07711 -11.4711 L -8.02727 -11.4479 L -7.97739 -11.4247 L -7.92748 -11.4014 L -7.87754 -11.3781 L -7.82757 -11.3548 L -7.77757 -11.3314 L -7.72753 -11.3079 L -7.67747 -11.2844 L -7.62736 -11.2609 L -7.57723 -11.2373 L -7.52706 -11.2136 L -7.47686 -11.1899 L -7.47686 -11.1899 L -7.47955 -11.2454 L -7.4822 -11.3008 L -7.48481 -11.3561 L -7.4874 -11.4114 L -7.48995 -11.4667 L -7.49247 -11.5219 L -7.49496 -11.577 L -7.49742 -11.6321 L -7.49985 -11.6872 L -7.50225 -11.7422 L -7.50462 -11.7972 L -7.50696 -11.8521 L -7.50927 -11.907 L -7.51155 -11.9618 L -7.51381 -12.0166 L -7.51604 -12.0713 L -7.51824 -12.126 L -7.52041 -12.1807 L -7.52256 -12.2353 L -7.52468 -12.2899 L -7.52678 -12.3444 L -7.52885 -12.3989 L -7.53089 -12.4533 L -7.53291 -12.5077 L -7.53491 -12.5621 L -7.53688 -12.6164 L -7.53883 -12.6707 L -7.54075 -12.7249 L -7.54265 -12.7791 L -7.54453 -12.8333 L -7.54638 -12.8874 L -7.54822 -12.9415 L -7.55003 -12.9956 L -7.55181 -13.0496 L -7.55358 -13.1036 L -7.55533 -13.1575 L -7.55705 -13.2114 L -7.55876 -13.2653 L -7.56044 -13.3191 L -7.5621 -13.3729 L -7.56374 -13.4267 L -7.56537 -13.4804 L -7.56697 -13.5341 L -7.56855 -13.5877 L -7.57012 -13.6413 L -7.57166 -13.6949 L -7.57319 -13.7485 L -7.5747 -13.802 L -7.57619 -13.8555 L -7.57766 -13.9089 L -7.57912 -13.9623 L -7.58056 -14.0157 L -7.58198 -14.0691 L -7.58338 -14.1224 L -7.58476 -14.1757 L -7.58613 -14.229 L -7.58748 -14.2822 L -7.58882 -14.3354 L -7.59014 -14.3886 L -7.59144 -14.4417 L -7.59273 -14.4948 L -7.594 -14.5479 L -7.59526 -14.6009 L -7.5965 -14.6539 L -7.59773 -14.7069 L -7.59894 -14.7599 L -7.60013 -14.8128 L -7.60132 -14.8657 L -7.60248 -14.9186 L -7.60364 -14.9714 L -7.60478 -15.0242 L -7.6059 -15.077 L -7.60701 -15.1298 L -7.60811 -15.1825 L -7.60919 -15.2352 L -7.61026 -15.2879 L -7.61813 -15.3372 L -7.57545 -15.3583 L -7.53271 -15.3793 L -7.48991 -15.4002 L -7.44705 -15.421 L -7.40414 -15.4416 L -7.36117 -15.4622 L -7.31814 -15.4826 L -7.27506 -15.5029 L -7.23192 -15.523 L -7.18872 -15.5431 L -7.14547 -15.563 L -7.10216 -15.5828 L -7.0588 -15.6025 L -7.01538 -15.6221 L -6.97191 -15.6415 L -6.92839 -15.6609 L -6.88481 -15.6801 L -6.84118 -15.6992 L -6.79749 -15.7181 L -6.75376 -15.737 L -6.70997 -15.7557 L -6.66613 -15.7743 L -6.62223 -15.7928 L -6.48455 -15.8498 L -6.44045 -15.8678 L -6.3963 -15.8856 L -6.3521 -15.9033 L -6.30784 -15.921 L -6.26355 -15.9384 L -6.2192 -15.9558 L -6.1748 -15.973 L -6.13036 -15.9901 L -6.08587 -16.0071 L -6.04133 -16.024 L -5.99674 -16.0407 L -5.95211 -16.0573 L -5.90744 -16.0738 L -5.86271 -16.0902 L -5.81794 -16.1064 L -5.77313 -16.1225 L -5.72827 -16.1385 L -5.68337 -16.1544 L -5.63843 -16.1702 L -5.59344 -16.1858 L -5.5484 -16.2013 L -5.50333 -16.2166 L -5.45821 -16.2319 L -5.42893 -16.1915 L -5.39243 -16.1535 L -5.35593 -16.1154 L -5.31942 -16.0774 L -5.28289 -16.0393 L -5.24636 -16.0011 L -5.20982 -15.963 L -5.17327 -15.9248 L -5.1367 -15.8866 L -5.10013 -15.8483 L -5.06355 -15.8101 L -5.02696 -15.7718 L -4.99036 -15.7334 L -4.95375 -15.6951 L -4.91713 -15.6567 L -4.8805 -15.6182 L -4.84385 -15.5798 L -4.8072 -15.5413 L -4.77054 -15.5028 L -4.73387 -15.4642 L -4.69719 -15.4256 L -4.6605 -15.387 L -4.62379 -15.3483 L -4.58708 -15.3096 L -4.55036 -15.2709 L -4.51362 -15.2321 L -4.47688 -15.1933 L -4.44012 -15.1545 L -4.40336 -15.1156 L -4.36658 -15.0767 L -4.3298 -15.0377 L -4.293 -14.9988 L -4.25619 -14.9597 L -4.21937 -14.9207 L -4.18254 -14.8816 L -4.1457 -14.8425 L -4.10885 -14.8033 L -4.07199 -14.7641 L -4.03512 -14.7248 L -3.99823 -14.6855 L -3.96134 -14.6462 L -3.92443 -14.6068 L -3.88752 -14.5674 L -3.85059 -14.5279 L -3.81365 -14.4884 L -3.7767 -14.4489 L -3.73974 -14.4093 L -3.70276 -14.3697 L -3.66578 -14.33 L -3.62878 -14.2903 L -3.59178 -14.2505 L -3.55476 -14.2107 L -3.51773 -14.1709 L -3.48069 -14.131 L -3.44363 -14.091 L -3.40657 -14.051 L -3.36949 -14.011 L -3.33241 -13.9709 L -3.29531 -13.9308 L -3.2582 -13.8906 L -3.22108 -13.8504 L -3.18394 -13.8101 L -3.1468 -13.7697 L -3.10964 -13.7293 L -3.07247 -13.6889 L -3.03529 -13.6484 L -2.9981 -13.6079 L -2.96089 -13.5673 L -2.92368 -13.5266 L -2.88645 -13.4859 L -2.84921 -13.4452 L -2.81196 -13.4043 L -2.7747 -13.3635 L -2.73742 -13.3225 L -2.70013 -13.2816 L -2.66284 -13.2405 L -2.62553 -13.1994 L -2.62553 -13.1994 L -2.60679 -13.2517 L -2.58803 -13.3039 L -2.56927 -13.356 L -2.5505 -13.4081 L -2.53171 -13.4601 L -2.51291 -13.5121 L -2.49411 -13.564 L -2.47529 -13.6158 L -2.45646 -13.6676 L -2.43763 -13.7194 L -2.41878 -13.7711 L -2.39993 -13.8227 L -2.38106 -13.8743 L -2.36219 -13.9258 L -2.34331 -13.9773 L -2.32442 -14.0287 L -2.30552 -14.0801 L -2.28661 -14.1314 L -2.26769 -14.1827 L -2.24877 -14.2339 L -2.22984 -14.2851 L -2.2109 -14.3362 L -2.19195 -14.3873 L -2.173 -14.4384 L -2.15404 -14.4893 L -2.13507 -14.5403 L -2.1161 -14.5912 L -2.09712 -14.642 L -2.07813 -14.6928 L -2.05914 -14.7436 L -2.04014 -14.7943 L -2.02113 -14.845 L -2.00212 -14.8956 L -1.9831 -14.9462 L -1.96408 -14.9968 L -1.94505 -15.0473 L -1.92602 -15.0977 L -1.90698 -15.1481 L -1.88793 -15.1985 L -1.86888 -15.2488 L -1.84983 -15.2991 L -1.83077 -15.3494 L -1.81171 -15.3996 L -1.79264 -15.4498 L -1.77356 -15.4999 L -1.75449 -15.55 L -1.7354 -15.6001 L -1.71632 -15.6501 L -1.69723 -15.7001 L -1.67813 -15.75 L -1.65903 -15.7999 L -1.63993 -15.8498 L -1.62083 -15.8996 L -1.60172 -15.9494 L -1.5826 -15.9992 L -1.56349 -16.0489 L -1.54437 -16.0986 L -1.52524 -16.1483 L -1.50611 -16.1979 L -1.48698 -16.2475 L -1.46785 -16.2971 L -1.44872 -16.3466 L -1.42958 -16.3961 L -1.41043 -16.4455 L -1.39129 -16.4949 L -1.37214 -16.5443 L -1.35299 -16.5937 L -1.33384 -16.643 L -1.31468 -16.6923 L -1.29553 -16.7416 L -1.27637 -16.7908 L -1.2572 -16.84 L -1.23804 -16.8892 L -1.21887 -16.9383 L -1.1997 -16.9874 L -1.18053 -17.0365 L -1.16894 -17.0851 L -1.12142 -17.0882 L -1.0739 -17.0913 L -1.02636 -17.0942 L -0.978823 -17.097 L -0.931274 -17.0997 L -0.883718 -17.1022 L -0.836154 -17.1046 L -0.788585 -17.1068 L -0.741009 -17.109 L -0.693427 -17.111 L -0.64584 -17.1128 L -0.598248 -17.1145 L -0.550652 -17.1161 L -0.503051 -17.1176 L -0.455446 -17.1189 L -0.407838 -17.1201 L -0.360227 -17.1212 L -0.312612 -17.1221 L -0.264996 -17.1229 L -0.217377 -17.1236 L -0.169757 -17.1242 L -0.122135 -17.1246 L -0.0745127 -17.1248 L 0.0745127 -17.1248 L 0.122135 -17.1246 L 0.169757 -17.1242 L 0.217377 -17.1236 L 0.264996 -17.1229 L 0.312612 -17.1221 L 0.360227 -17.1212 L 0.407838 -17.1201 L 0.455446 -17.1189 L 0.503051 -17.1176 L 0.550652 -17.1161 L 0.598248 -17.1145 L 0.64584 -17.1128 L 0.693427 -17.111 L 0.741009 -17.109 L 0.788585 -17.1068 L 0.836154 -17.1046 L 0.883718 -17.1022 L 0.931274 -17.0997 L 0.978823 -17.097 L 1.02636 -17.0942 L 1.0739 -17.0913 L 1.12142 -17.0882 L 1.16894 -17.0851 L 1.18053 -17.0365 L 1.1997 -16.9874 L 1.21887 -16.9383 L 1.23804 -16.8892 L 1.2572 -16.84 L 1.27637 -16.7908 L 1.29553 -16.7416 L 1.31468 -16.6923 L 1.33384 -16.643 L 1.35299 -16.5937 L 1.37214 -16.5443 L 1.39129 -16.4949 L 1.41043 -16.4455 L 1.42958 -16.3961 L 1.44872 -16.3466 L 1.46785 -16.2971 L 1.48698 -16.2475 L 1.50611 -16.1979 L 1.52524 -16.1483 L 1.54437 -16.0986 L 1.56349 -16.0489 L 1.5826 -15.9992 L 1.60172 -15.9494 L 1.62083 -15.8996 L 1.63993 -15.8498 L 1.65903 -15.7999 L 1.67813 -15.75 L 1.69723 -15.7001 L 1.71632 -15.6501 L 1.7354 -15.6001 L 1.75449 -15.55 L 1.77356 -15.4999 L 1.79264 -15.4498 L 1.81171 -15.3996 L 1.83077 -15.3494 L 1.84983 -15.2991 L 1.86888 -15.2488 L 1.88793 -15.1985 L 1.90698 -15.1481 L 1.92602 -15.0977 L 1.94505 -15.0473 L 1.96408 -14.9968 L 1.9831 -14.9462 L 2.00212 -14.8956 L 2.02113 -14.845 L 2.04014 -14.7943 L 2.05914 -14.7436 L 2.07813 -14.6928 L 2.09712 -14.642 L 2.1161 -14.5912 L 2.13507 -14.5403 L 2.15404 -14.4893 L 2.173 -14.4384 L 2.19195 -14.3873 L 2.2109 -14.3362 L 2.22984 -14.2851 L 2.24877 -14.2339 L 2.26769 -14.1827 L 2.28661 -14.1314 L 2.30552 -14.0801 L 2.32442 -14.0287 L 2.34331 -13.9773 L 2.36219 -13.9258 L 2.38106 -13.8743 L 2.39993 -13.8227 L 2.41878 -13.7711 L 2.43763 -13.7194 L 2.45646 -13.6676 L 2.47529 -13.6158 L 2.49411 -13.564 L 2.51291 -13.5121 L 2.53171 -13.4601 L 2.5505 -13.4081 L 2.56927 -13.356 L 2.58803 -13.3039 L 2.60679 -13.2517 L 2.62553 -13.1994 L 2.62553 -13.1994 L 2.66284 -13.2405 L 2.70013 -13.2816 L 2.73742 -13.3225 L 2.7747 -13.3635 L 2.81196 -13.4043 L 2.84921 -13.4452 L 2.88645 -13.4859 L 2.92368 -13.5266 L 2.96089 -13.5673 L 2.9981 -13.6079 L 3.03529 -13.6484 L 3.07247 -13.6889 L 3.10964 -13.7293 L 3.1468 -13.7697 L 3.18394 -13.8101 L 3.22108 -13.8504 L 3.2582 -13.8906 L 3.29531 -13.9308 L 3.33241 -13.9709 L 3.36949 -14.011 L 3.40657 -14.051 L 3.44363 -14.091 L 3.48069 -14.131 L 3.51773 -14.1709 L 3.55476 -14.2107 L 3.59178 -14.2505 L 3.62878 -14.2903 L 3.66578 -14.33 L 3.70276 -14.3697 L 3.73974 -14.4093 L 3.7767 -14.4489 L 3.81365 -14.4884 L 3.85059 -14.5279 L 3.88752 -14.5674 L 3.92443 -14.6068 L 3.96134 -14.6462 L 3.99823 -14.6855 L 4.03512 -14.7248 L 4.07199 -14.7641 L 4.10885 -14.8033 L 4.1457 -14.8425 L 4.18254 -14.8816 L 4.21937 -14.9207 L 4.25619 -14.9597 L 4.293 -14.9988 L 4.3298 -15.0377 L 4.36658 -15.0767 L 4.40336 -15.1156 L 4.44012 -15.1545 L 4.47688 -15.1933 L 4.51362 -15.2321 L 4.55036 -15.2709 L 4.58708 -15.3096 L 4.62379 -15.3483 L 4.6605 -15.387 L 4.69719 -15.4256 L 4.73387 -15.4642 L 4.77054 -15.5028 L 4.8072 -15.5413 L 4.84385 -15.5798 L 4.8805 -15.6182 L 4.91713 -15.6567 L 4.95375 -15.6951 L 4.99036 -15.7334 L 5.02696 -15.7718 L 5.06355 -15.8101 L 5.10013 -15.8483 L 5.1367 -15.8866 L 5.17327 -15.9248 L 5.20982 -15.963 L 5.24636 -16.0011 L 5.28289 -16.0393 L 5.31942 -16.0774 L 5.35593 -16.1154 L 5.39243 -16.1535 L 5.42893 -16.1915 L 5.45821 -16.2319 L 5.50333 -16.2166 L 5.5484 -16.2013 L 5.59344 -16.1858 L 5.63843 -16.1702 L 5.68337 -16.1544 L 5.72827 -16.1385 L 5.77313 -16.1225 L 5.81794 -16.1064 L 5.86271 -16.0902 L 5.90744 -16.0738 L 5.95211 -16.0573 L 5.99674 -16.0407 L 6.04133 -16.024 L 6.08587 -16.0071 L 6.13036 -15.9901 L 6.1748 -15.973 L 6.2192 -15.9558 L 6.26355 -15.9384 L 6.30784 -15.921 L 6.3521 -15.9033 L 6.3963 -15.8856 L 6.44045 -15.8678 L 6.48455 -15.8498 L 6.62223 -15.7928 L 6.66613 -15.7743 L 6.70997 -15.7557 L 6.75376 -15.737 L 6.79749 -15.7181 L 6.84118 -15.6992 L 6.88481 -15.6801 L 6.92839 -15.6609 L 6.97191 -15.6415 L 7.01538 -15.6221 L 7.0588 -15.6025 L 7.10216 -15.5828 L 7.14547 -15.563 L 7.18872 -15.5431 L 7.23192 -15.523 L 7.27506 -15.5029 L 7.31814 -15.4826 L 7.36117 -15.4622 L 7.40414 -15.4416 L 7.44705 -15.421 L 7.48991 -15.4002 L 7.53271 -15.3793 L 7.57545 -15.3583 L 7.61813 -15.3372 L 7.61026 -15.2879 L 7.60919 -15.2352 L 7.60811 -15.1825 L 7.60701 -15.1298 L 7.6059 -15.077 L 7.60478 -15.0242 L 7.60364 -14.9714 L 7.60248 -14.9186 L 7.60132 -14.8657 L 7.60013 -14.8128 L 7.59894 -14.7599 L 7.59773 -14.7069 L 7.5965 -14.6539 L 7.59526 -14.6009 L 7.594 -14.5479 L 7.59273 -14.4948 L 7.59144 -14.4417 L 7.59014 -14.3886 L 7.58882 -14.3354 L 7.58748 -14.2822 L 7.58613 -14.229 L 7.58476 -14.1757 L 7.58338 -14.1224 L 7.58198 -14.0691 L 7.58056 -14.0157 L 7.57912 -13.9623 L 7.57766 -13.9089 L 7.57619 -13.8555 L 7.5747 -13.802 L 7.57319 -13.7485 L 7.57166 -13.6949 L 7.57012 -13.6413 L 7.56855 -13.5877 L 7.56697 -13.5341 L 7.56537 -13.4804 L 7.56374 -13.4267 L 7.5621 -13.3729 L 7.56044 -13.3191 L 7.55876 -13.2653 L 7.55705 -13.2114 L 7.55533 -13.1575 L 7.55358 -13.1036 L 7.55181 -13.0496 L 7.55003 -12.9956 L 7.54822 -12.9415 L 7.54638 -12.8874 L 7.54453 -12.8333 L 7.54265 -12.7791 L 7.54075 -12.7249 L 7.53883 -12.6707 L 7.53688 -12.6164 L 7.53491 -12.5621 L 7.53291 -12.5077 L 7.53089 -12.4533 L 7.52885 -12.3989 L 7.52678 -12.3444 L 7.52468 -12.2899 L 7.52256 -12.2353 L 7.52041 -12.1807 L 7.51824 -12.126 L 7.51604 -12.0713 L 7.51381 -12.0166 L 7.51155 -11.9618 L 7.50927 -11.907 L 7.50696 -11.8521 L 7.50462 -11.7972 L 7.50225 -11.7422 L 7.49985 -11.6872 L 7.49742 -11.6321 L 7.49496 -11.577 L 7.49247 -11.5219 L 7.48995 -11.4667 L 7.4874 -11.4114 L 7.48481 -11.3561 L 7.4822 -11.3008 L 7.47955 -11.2454 L 7.47686 -11.1899 L 7.47686 -11.1899 L 7.52706 -11.2136 L 7.57723 -11.2373 L 7.62736 -11.2609 L 7.67747 -11.2844 L 7.72753 -11.3079 L 7.77757 -11.3314 L 7.82757 -11.3548 L 7.87754 -11.3781 L 7.92748 -11.4014 L 7.97739 -11.4247 L 8.02727 -11.4479 L 8.07711 -11.4711 L 8.12693 -11.4943 L 8.17671 -11.5173 L 8.22646 -11.5404 L 8.27619 -11.5634 L 8.32588 -11.5864 L 8.37554 -11.6093 L 8.42518 -11.6322 L 8.47478 -11.655 L 8.52436 -11.6778 L 8.57391 -11.7006 L 8.62343 -11.7233 L 8.67292 -11.746 L 8.72238 -11.7687 L 8.77181 -11.7913 L 8.82122 -11.8138 L 8.8706 -11.8364 L 8.91995 -11.8589 L 8.96927 -11.8813 L 9.01857 -11.9038 L 9.06784 -11.9262 L 9.11708 -11.9485 L 9.1663 -11.9708 L 9.21549 -11.9931 L 9.26465 -12.0154 L 9.31379 -12.0376 L 9.36291 -12.0598 L 9.41199 -12.0819 L 9.46106 -12.1041 L 9.51009 -12.1261 L 9.55911 -12.1482 L 9.60809 -12.1702 L 9.65706 -12.1922 L 9.70599 -12.2142 L 9.75491 -12.2361 L 9.8038 -12.258 L 9.85267 -12.2799 L 9.90151 -12.3017 L 9.95033 -12.3236 L 9.99912 -12.3454 L 10.0479 -12.3671 L 10.0966 -12.3888 L 10.1454 -12.4105 L 10.1941 -12.4322 L 10.2428 -12.4539 L 10.2914 -12.4755 L 10.3401 -12.4971 L 10.3887 -12.5186 L 10.4373 -12.5402 L 10.4858 -12.5617 L 10.5344 -12.5832 L 10.5829 -12.6046 L 10.6314 -12.6261 L 10.6799 -12.6475 L 10.7284 -12.6689 L 10.7768 -12.6902 L 10.8252 -12.7116 L 10.8736 -12.7329 L 10.922 -12.7542 L 10.9704 -12.7754 L 11.0187 -12.7967 L 11.067 -12.8179 L 11.1153 -12.8391 L 11.1636 -12.8603 L 11.2119 -12.8814 L 11.2544 -12.9075 L 11.2902 -12.8762 L 11.326 -12.8447 L 11.3617 -12.8132 L 11.3973 -12.7815 L 11.4328 -12.7498 L 11.4682 -12.718 L 11.5035 -12.686 L 11.5387 -12.654 L 11.5739 -12.6218 L 11.6089 -12.5896 L 11.6439 -12.5573 L 11.6788 -12.5248 L 11.7136 -12.4923 L 11.7483 -12.4597 L 11.7829 -12.427 L 11.8174 -12.3942 L 11.8518 -12.3612 L 11.8861 -12.3282 L 11.9204 -12.2951 L 11.9545 -12.2619 L 11.9886 -12.2286 L 12.0225 -12.1953 L 12.0564 -12.1618 L 12.1618 -12.0564 L 12.1953 -12.0225 L 12.2286 -11.9886 L 12.2619 -11.9545 L 12.2951 -11.9204 L 12.3282 -11.8861 L 12.3612 -11.8518 L 12.3942 -11.8174 L 12.427 -11.7829 L 12.4597 -11.7483 L 12.4923 -11.7136 L 12.5248 -11.6788 L 12.5573 -11.6439 L 12.5896 -11.6089 L 12.6218 -11.5739 L 12.654 -11.5387 L 12.686 -11.5035 L 12.718 -11.4682 L 12.7498 -11.4328 L 12.7815 -11.3973 L 12.8132 -11.3617 L 12.8447 -11.326 L 12.8762 -11.2902 L 12.9075 -11.2544 L 12.8814 -11.2119 L 12.8603 -11.1636 L 12.8391 -11.1153 L 12.8179 -11.067 L 12.7967 -11.0187 L 12.7754 -10.9704 L 12.7542 -10.922 L 12.7329 -10.8736 L 12.7116 -10.8252 L 12.6902 -10.7768 L 12.6689 -10.7284 L 12.6475 -10.6799 L 12.6261 -10.6314 L 12.6046 -10.5829 L 12.5832 -10.5344 L 12.5617 -10.4858 L 12.5402 -10.4373 L 12.5186 -10.3887 L 12.4971 -10.3401 L 12.4755 -10.2914 L 12.4539 -10.2428 L 12.4322 -10.1941 L 12.4105 -10.1454 L 12.3888 -10.0966 L 12.3671 -10.0479 L 12.3454 -9.99912 L 12.3236 -9.95033 L 12.3017 -9.90151 L 12.2799 -9.85267 L 12.258 -9.8038 L 12.2361 -9.75491 L 12.2142 -9.70599 L 12.1922 -9.65706 L 12.1702 -9.60809 L 12.1482 -9.55911 L 12.1261 -9.51009 L 12.1041 -9.46106 L 12.0819 -9.41199 L 12.0598 -9.36291 L 12.0376 -9.31379 L 12.0154 -9.26465 L 11.9931 -9.21549 L 11.9708 -9.1663 L 11.9485 -9.11708 L 11.9262 -9.06784 L 11.9038 -9.01857 L 11.8813 -8.96927 L 11.8589 -8.91995 L 11.8364 -8.8706 L 11.8138 -8.82122 L 11.7913 -8.77181 L 11.7687 -8.72238 L 11.746 -8.67292 L 11.7233 -8.62343 L 11.7006 -8.57391 L 11.6778 -8.52436 L 11.655 -8.47478 L 11.6322 -8.42518 L 11.6093 -8.37554 L 11.5864 -8.32588 L 11.5634 -8.27619 L 11.5404 -8.22646 L 11.5173 -8.17671 L 11.4943 -8.12693 L 11.4711 -8.07711 L 11.4479 -8.02727 L 11.4247 -7.97739 L 11.4014 -7.92748 L 11.3781 -7.87754 L 11.3548 -7.82757 L 11.3314 -7.77757 L 11.3079 -7.72753 L 11.2844 -7.67747 L 11.2609 -7.62736 L 11.2373 -7.57723 L 11.2136 -7.52706 L 11.1899 -7.47686 L 11.1899 -7.47686 L 11.2454 -7.47955 L 11.3008 -7.4822 L 11.3561 -7.48481 L 11.4114 -7.4874 L 11.4667 -7.48995 L 11.5219 -7.49247 L 11.577 -7.49496 L 11.6321 -7.49742 L 11.6872 -7.49985 L 11.7422 -7.50225 L 11.7972 -7.50462 L 11.8521 -7.50696 L 11.907 -7.50927 L 11.9618 -7.51155 L 12.0166 -7.51381 L 12.0713 -7.51604 L 12.126 -7.51824 L 12.1807 -7.52041 L 12.2353 -7.52256 L 12.2899 -7.52468 L 12.3444 -7.52678 L 12.3989 -7.52885 L 12.4533 -7.53089 L 12.5077 -7.53291 L 12.5621 -7.53491 L 12.6164 -7.53688 L 12.6707 -7.53883 L 12.7249 -7.54075 L 12.7791 -7.54265 L 12.8333 -7.54453 L 12.8874 -7.54638 L 12.9415 -7.54822 L 12.9956 -7.55003 L 13.0496 -7.55181 L 13.1036 -7.55358 L 13.1575 -7.55533 L 13.2114 -7.55705 L 13.2653 -7.55876 L 13.3191 -7.56044 L 13.3729 -7.5621 L 13.4267 -7.56374 L 13.4804 -7.56537 L 13.5341 -7.56697 L 13.5877 -7.56855 L 13.6413 -7.57012 L 13.6949 -7.57166 L 13.7485 -7.57319 L 13.802 -7.5747 L 13.8555 -7.57619 L 13.9089 -7.57766 L 13.9623 -7.57912 L 14.0157 -7.58056 L 14.0691 -7.58198 L 14.1224 -7.58338 L 14.1757 -7.58476 L 14.229 -7.58613 L 14.2822 -7.58748 L 14.3354 -7.58882 L 14.3886 -7.59014 L 14.4417 -7.59144 L 14.4948 -7.59273 L 14.5479 -7.594 L 14.6009 -7.59526 L 14.6539 -7.5965 L 14.7069 -7.59773 L 14.7599 -7.59894 L 14.8128 -7.60013 L 14.8657 -7.60132 L 14.9186 -7.60248 L 14.9714 -7.60364 L 15.0242 -7.60478 L 15.077 -7.6059 L 15.1298 -7.60701 L 15.1825 -7.60811 L 15.2352 -7.60919 L 15.2879 -7.61026 L 15.3372 -7.61813 L 15.3583 -7.57545 L 15.3793 -7.53271 L 15.4002 -7.48991 L 15.421 -7.44705 L 15.4416 -7.40414 L 15.4622 -7.36117 L 15.4826 -7.31814 L 15.5029 -7.27506 L 15.523 -7.23192 L 15.5431 -7.18872 L 15.563 -7.14547 L 15.5828 -7.10216 L 15.6025 -7.0588 L 15.6221 -7.01538 L 15.6415 -6.97191 L 15.6609 -6.92839 L 15.6801 -6.88481 L 15.6992 -6.84118 L 15.7181 -6.79749 L 15.737 -6.75376 L 15.7557 -6.70997 L 15.7743 -6.66613 L 15.7928 -6.62223 L 15.8498 -6.48455 L 15.8678 -6.44045 L 15.8856 -6.3963 L 15.9033 -6.3521 L 15.921 -6.30784 L 15.9384 -6.26355 L 15.9558 -6.2192 L 15.973 -6.1748 L 15.9901 -6.13036 L 16.0071 -6.08587 L 16.024 -6.04133 L 16.0407 -5.99674 L 16.0573 -5.95211 L 16.0738 -5.90744 L 16.0902 -5.86271 L 16.1064 -5.81794 L 16.1225 -5.77313 L 16.1385 -5.72827 L 16.1544 -5.68337 L 16.1702 -5.63843 L 16.1858 -5.59344 L 16.2013 -5.5484 L 16.2166 -5.50333 L 16.2319 -5.45821 L 16.1915 -5.42893 L 16.1535 -5.39243 L 16.1154 -5.35593 L 16.0774 -5.31942 L 16.0393 -5.28289 L 16.0011 -5.24636 L 15.963 -5.20982 L 15.9248 -5.17327 L 15.8866 -5.1367 L 15.8483 -5.10013 L 15.8101 -5.06355 L 15.7718 -5.02696 L 15.7334 -4.99036 L 15.6951 -4.95375 L 15.6567 -4.91713 L 15.6182 -4.8805 L 15.5798 -4.84385 L 15.5413 -4.8072 L 15.5028 -4.77054 L 15.4642 -4.73387 L 15.4256 -4.69719 L 15.387 -4.6605 L 15.3483 -4.62379 L 15.3096 -4.58708 L 15.2709 -4.55036 L 15.2321 -4.51362 L 15.1933 -4.47688 L 15.1545 -4.44012 L 15.1156 -4.40336 L 15.0767 -4.36658 L 15.0377 -4.3298 L 14.9988 -4.293 L 14.9597 -4.25619 L 14.9207 -4.21937 L 14.8816 -4.18254 L 14.8425 -4.1457 L 14.8033 -4.10885 L 14.7641 -4.07199 L 14.7248 -4.03512 L 14.6855 -3.99823 L 14.6462 -3.96134 L 14.6068 -3.92443 L 14.5674 -3.88752 L 14.5279 -3.85059 L 14.4884 -3.81365 L 14.4489 -3.7767 L 14.4093 -3.73974 L 14.3697 -3.70276 L 14.33 -3.66578 L 14.2903 -3.62878 L 14.2505 -3.59178 L 14.2107 -3.55476 L 14.1709 -3.51773 L 14.131 -3.48069 L 14.091 -3.44363 L 14.051 -3.40657 L 14.011 -3.36949 L 13.9709 -3.33241 L 13.9308 -3.29531 L 13.8906 -3.2582 L 13.8504 -3.22108 L 13.8101 -3.18394 L 13.7697 -3.1468 L 13.7293 -3.10964 L 13.6889 -3.07247 L 13.6484 -3.03529 L 13.6079 -2.9981 L 13.5673 -2.96089 L 13.5266 -2.92368 L 13.4859 -2.88645 L 13.4452 -2.84921 L 13.4043 -2.81196 L 13.3635 -2.7747 L 13.3225 -2.73742 L 13.2816 -2.70013 L 13.2405 -2.66284 L 13.1994 -2.62553 L 13.1994 -2.62553 L 13.2517 -2.60679 L 13.3039 -2.58803 L 13.356 -2.56927 L 13.4081 -2.5505 L 13.4601 -2.53171 L 13.5121 -2.51291 L 13.564 -2.49411 L 13.6158 -2.47529 L 13.6676 -2.45646 L 13.7194 -2.43763 L 13.7711 -2.41878 L 13.8227 -2.39993 L 13.8743 -2.38106 L 13.9258 -2.36219 L 13.9773 -2.34331 L 14.0287 -2.32442 L 14.0801 -2.30552 L 14.1314 -2.28661 L 14.1827 -2.26769 L 14.2339 -2.24877 L 14.2851 -2.22984 L 14.3362 -2.2109 L 14.3873 -2.19195 L 14.4384 -2.173 L 14.4893 -2.15404 L 14.5403 -2.13507 L 14.5912 -2.1161 L 14.642 -2.09712 L 14.6928 -2.07813 L 14.7436 -2.05914 L 14.7943 -2.04014 L 14.845 -2.02113 L 14.8956 -2.00212 L 14.9462 -1.9831 L 14.9968 -1.96408 L 15.0473 -1.94505 L 15.0977 -1.92602 L 15.1481 -1.90698 L 15.1985 -1.88793 L 15.2488 -1.86888 L 15.2991 -1.84983 L 15.3494 -1.83077 L 15.3996 -1.81171 L 15.4498 -1.79264 L 15.4999 -1.77356 L 15.55 -1.75449 L 15.6001 -1.7354 L 15.6501 -1.71632 L 15.7001 -1.69723 L 15.75 -1.67813 L 15.7999 -1.65903 L 15.8498 -1.63993 L 15.8996 -1.62083 L 15.9494 -1.60172 L 15.9992 -1.5826 L 16.0489 -1.56349 L 16.0986 -1.54437 L 16.1483 -1.52524 L 16.1979 -1.50611 L 16.2475 -1.48698 L 16.2971 -1.46785 L 16.3466 -1.44872 L 16.3961 -1.42958 L 16.4455 -1.41043 L 16.4949 -1.39129 L 16.5443 -1.37214 L 16.5937 -1.35299 L 16.643 -1.33384 L 16.6923 -1.31468 L 16.7416 -1.29553 L 16.7908 -1.27637 L 16.84 -1.2572 L 16.8892 -1.23804 L 16.9383 -1.21887 L 16.9874 -1.1997 L 17.0365 -1.18053 L 17.0851 -1.16894 L 17.0882 -1.12142 L 17.0913 -1.0739 L 17.0942 -1.02636 L 17.097 -0.978823 L 17.0997 -0.931274 L 17.1022 -0.883718 L 17.1046 -0.836154 L 17.1068 -0.788585 L 17.109 -0.741009 L 17.111 -0.693427 L 17.1128 -0.64584 L 17.1145 -0.598248 L 17.1161 -0.550652 L 17.1176 -0.503051 L 17.1189 -0.455446 L 17.1201 -0.407838 L 17.1212 -0.360227 L 17.1221 -0.312612 L 17.1229 -0.264996 L 17.1236 -0.217377 L 17.1242 -0.169757 L 17.1246 -0.122135 L 17.1248 -0.0745127Z"
id="path1" />
</g>
</svg>
