<?xml version="1.0" encoding="UTF-8" standalone="no"?>
<svg version="1.1">
<g
style="fill:none;stroke:#000000;stroke-opacity:1;stroke-width:0.1">
<path d="M 17.9998 0.0946054 L 17.9994 0.142223 L 17.999 0.18984 L 17.9984 0.237456 L 17.9977 0.28507 L 17.9969 0.332682 L 17.996 0.380292 L 17.9949 0.427899 L 17.9937 0.475503 L 17.9924 0.523104 L 17.991 0.570701 L 17.9894 0.618294 L 17.9877 0.665882 L 17.9859 0.713467 L 17.9839 0.761046 L 17.9818 0.808619 L 17.9796 0.856187 L 17.9773 0.90375 L 17.9748 0.951305 L 17.9723 0.998854 L 17.9696 1.0464 L 17.9667 1.09393 L 17.9638 1.14146 L 17.9607 1.18898 L 17.9575 1.23649 L 17.9541 1.28399 L 17.9507 1.33148 L 17.9471 1.37897 L 17.9434 1.42644 L 17.9396 1.47391 L 17.9356 1.52136 L 17.9315 1.5688 L 17.8817 1.59168 L 17.8309 1.62478 L 17.78 1.65787 L 17.7291 1.69096 L 17.678 1.72403 L 17.6269 1.7571 L 17.5757 1.79016 L 17.5245 1.82321 L 17.4731 1.85626 L 17.4217 1.88929 L 17.3701 1.92232 L 17.3185 1.95534 L 17.2668 1.98834 L 17.2151 2.02134 L 17.1632 2.05433 L 17.1113 2.0873 L 17.0592 2.12027 L 17.0071 2.15323 L 16.9549 2.18617 L 16.9026 2.2191 L 16.8502 2.25202 L 16.7977 2.28493 L 16.7451 2.31783 L 16.6924 2.35071 L 16.6397 2.38358 L 16.5868 2.41643 L 16.5339 2.44928 L 16.4808 2.4821 L 16.4277 2.51492 L 16.3744 2.54772 L 16.3211 2.5805 L 16.2676 2.61327 L 16.2141 2.64602 L 16.1604 2.67875 L 16.1067 2.71147 L 16.0529 2.74417 L 15.9989 2.77686 L 15.9448 2.80952 L 15.8907 2.84217 L 15.8364 2.8748 L 15.782 2.9074 L 15.7276 2.93999 L 15.7276 2.93999 L 15.7666 2.99006 L 15.8055 3.04011 L 15.8443 3.09014 L 15.883 3.14014 L 15.9216 3.19013 L 15.9601 3.24009 L 15.9985 3.29004 L 16.0368 3.33996 L 16.075 3.38986 L 16.1131 3.43975 L 16.1511 3.48961 L 16.189 3.53945 L 16.2268 3.58926 L 16.2645 3.63906 L 16.3021 3.68884 L 16.3397 3.73859 L 16.3771 3.78832 L 16.4144 3.83803 L 16.4516 3.88772 L 16.4888 3.93739 L 16.5258 3.98704 L 16.5628 4.03666 L 16.5997 4.08627 L 16.6365 4.13585 L 16.6732 4.18541 L 16.7098 4.23494 L 16.7463 4.28446 L 16.7828 4.33396 L 16.8191 4.38343 L 16.8554 4.43288 L 16.8916 4.48231 L 16.9277 4.53172 L 16.9637 4.5811 L 16.9997 4.63047 L 17.0356 4.67981 L 17.0714 4.72913 L 17.1071 4.77843 L 17.1427 4.82771 L 17.1783 4.87696 L 17.2137 4.9262 L 17.2492 4.97541 L 17.2873 5.01474 L 17.274 5.06046 L 17.2606 5.10614 L 17.247 5.15178 L 17.2333 5.19739 L 17.2195 5.24296 L 17.2056 5.2885 L 17.1915 5.334 L 17.1774 5.37946 L 17.1631 5.42488 L 17.1486 5.47027 L 17.1341 5.51562 L 17.1195 5.56093 L 17.1047 5.6062 L 17.0898 5.65143 L 17.0748 5.69662 L 17.0597 5.74177 L 17.0444 5.78688 L 17.029 5.83195 L 17.0136 5.87698 L 16.9979 5.92197 L 16.9822 5.96692 L 16.9664 6.01182 L 16.9504 6.05669 L 16.9343 6.10151 L 16.9181 6.14629 L 16.9018 6.19102 L 16.8854 6.23571 L 16.8688 6.28036 L 16.8521 6.32497 L 16.8354 6.36953 L 16.8184 6.41404 L 16.7501 6.59048 L 16.7326 6.63477 L 16.715 6.67901 L 16.6973 6.72321 L 16.6794 6.76735 L 16.6615 6.81146 L 16.6434 6.85551 L 16.6252 6.89952 L 16.6069 6.94347 L 16.5884 6.98738 L 16.5699 7.03124 L 16.5512 7.07505 L 16.5325 7.11882 L 16.5136 7.16253 L 16.4946 7.20619 L 16.4754 7.2498 L 16.4562 7.29336 L 16.4369 7.33687 L 16.4174 7.38033 L 16.3978 7.42373 L 16.3781 7.46709 L 16.3583 7.51039 L 16.3384 7.55364 L 16.3183 7.59684 L 16.2982 7.63998 L 16.2779 7.68307 L 16.2575 7.72611 L 16.237 7.76909 L 16.2164 7.81202 L 16.1957 7.85489 L 16.1749 7.89771 L 16.1539 7.94047 L 16.0992 7.94381 L 16.0399 7.95632 L 15.9805 7.9688 L 15.921 7.98125 L 15.8615 7.99366 L 15.8019 8.00603 L 15.7422 8.01836 L 15.6825 8.03066 L 15.6226 8.04292 L 15.5627 8.05515 L 15.5028 8.06733 L 15.4427 8.07947 L 15.3826 8.09158 L 15.3224 8.10364 L 15.2621 8.11567 L 15.2017 8.12765 L 15.1413 8.13959 L 15.0808 8.15149 L 15.0202 8.16335 L 14.9595 8.17516 L 14.8988 8.18693 L 14.838 8.19866 L 14.7771 8.21034 L 14.7161 8.22197 L 14.655 8.23356 L 14.5938 8.2451 L 14.5326 8.2566 L 14.4713 8.26805 L 14.4098 8.27945 L 14.3483 8.29079 L 14.2868 8.30209 L 14.2251 8.31334 L 14.1633 8.32454 L 14.1015 8.33569 L 14.0396 8.34678 L 13.9775 8.35782 L 13.9154 8.36881 L 13.8532 8.37974 L 13.7909 8.39062 L 13.7285 8.40144 L 13.666 8.41221 L 13.6035 8.42291 L 13.6035 8.42291 L 13.6218 8.4837 L 13.64 8.54443 L 13.6581 8.6051 L 13.6761 8.66571 L 13.6941 8.72627 L 13.7119 8.78677 L 13.7297 8.84721 L 13.7474 8.9076 L 13.765 8.96793 L 13.7825 9.0282 L 13.7999 9.08842 L 13.8172 9.14859 L 13.8345 9.20869 L 13.8516 9.26875 L 13.8687 9.32875 L 13.8857 9.3887 L 13.9027 9.44859 L 13.9195 9.50843 L 13.9363 9.56821 L 13.953 9.62795 L 13.9696 9.68763 L 13.9861 9.74725 L 14.0026 9.80683 L 14.019 9.86635 L 14.0353 9.92582 L 14.0516 9.98524 L 14.0678 10.0446 L 14.0839 10.1039 L 14.0999 10.1632 L 14.1159 10.2224 L 14.1318 10.2816 L 14.1476 10.3407 L 14.1633 10.3998 L 14.179 10.4588 L 14.1946 10.5177 L 14.2102 10.5767 L 14.2257 10.6355 L 14.2411 10.6944 L 14.2565 10.7531 L 14.2718 10.8119 L 14.287 10.8705 L 14.3084 10.921 L 14.2795 10.9588 L 14.2505 10.9966 L 14.2213 11.0342 L 14.1921 11.0718 L 14.1627 11.1093 L 14.1333 11.1467 L 14.1038 11.1841 L 14.0741 11.2214 L 14.0444 11.2586 L 14.0145 11.2957 L 13.9846 11.3327 L 13.9546 11.3697 L 13.9245 11.4066 L 13.8942 11.4433 L 13.8639 11.4801 L 13.8335 11.5167 L 13.803 11.5533 L 13.7724 11.5897 L 13.7417 11.6261 L 13.7109 11.6624 L 13.68 11.6987 L 13.649 11.7348 L 13.6179 11.7709 L 13.5867 11.8069 L 13.5554 11.8428 L 13.524 11.8786 L 13.4925 11.9143 L 13.461 11.95 L 13.4293 11.9856 L 13.3976 12.021 L 13.3657 12.0564 L 13.2382 12.1963 L 13.2059 12.2312 L 13.1735 12.2661 L 13.141 12.3009 L 13.1084 12.3357 L 13.0758 12.3703 L 13.043 12.4049 L 13.0101 12.4393 L 12.9772 12.4737 L 12.9441 12.508 L 12.911 12.5422 L 12.8778 12.5763 L 12.8445 12.6103 L 12.811 12.6443 L 12.7776 12.6781 L 12.744 12.7119 L 12.7103 12.7455 L 12.6765 12.7791 L 12.6427 12.8126 L 12.6087 12.846 L 12.5747 12.8793 L 12.5406 12.9125 L 12.5064 12.9457 L 12.4721 12.9787 L 12.4377 13.0117 L 12.4033 13.0445 L 12.3687 13.0773 L 12.3341 13.11 L 12.2993 13.1425 L 12.2645 13.175 L 12.2296 13.2074 L 12.1946 13.2397 L 12.1424 13.2231 L 12.0826 13.2133 L 12.0227 13.2035 L 11.9627 13.1936 L 11.9028 13.1837 L 11.8427 13.1737 L 11.7826 13.1636 L 11.7224 13.1535 L 11.6622 13.1433 L 11.602 13.1331 L 11.5416 13.1228 L 11.4813 13.1124 L 11.4208 13.102 L 11.3603 13.0915 L 11.2998 13.0809 L 11.2392 13.0703 L 11.1785 13.0596 L 11.1178 13.0489 L 11.057 13.038 L 10.9962 13.0271 L 10.9353 13.0162 L 10.8743 13.0051 L 10.8133 12.994 L 10.7522 12.9828 L 10.6911 12.9716 L 10.6299 12.9602 L 10.5686 12.9488 L 10.5073 12.9373 L 10.4459 12.9258 L 10.3845 12.9142 L 10.3229 12.9024 L 10.2614 12.8907 L 10.1997 12.8788 L 10.138 12.8668 L 10.0763 12.8548 L 10.0145 12.8427 L 9.95257 12.8305 L 9.89062 12.8182 L 9.8286 12.8059 L 9.76652 12.7934 L 9.70437 12.7809 L 9.64215 12.7683 L 9.64215 12.7683 L 9.63727 12.8316 L 9.63231 12.8948 L 9.62729 12.9579 L 9.62221 13.0209 L 9.61706 13.0839 L 9.61185 13.1467 L 9.60658 13.2095 L 9.60125 13.2722 L 9.59586 13.3348 L 9.59041 13.3973 L 9.58489 13.4598 L 9.57933 13.5222 L 9.5737 13.5844 L 9.56802 13.6466 L 9.56228 13.7088 L 9.55648 13.7708 L 9.55063 13.8328 L 9.54473 13.8947 L 9.53877 13.9565 L 9.53276 14.0182 L 9.5267 14.0798 L 9.52058 14.1414 L 9.51442 14.2029 L 9.5082 14.2643 L 9.50194 14.3257 L 9.49562 14.387 L 9.48926 14.4482 L 9.48285 14.5093 L 9.47639 14.5704 L 9.46988 14.6314 L 9.46333 14.6923 L 9.45673 14.7531 L 9.45009 14.8139 L 9.4434 14.8746 L 9.43667 14.9352 L 9.42989 14.9958 L 9.42307 15.0563 L 9.41621 15.1167 L 9.4093 15.177 L 9.40235 15.2373 L 9.39537 15.2976 L 9.39709 15.3523 L 9.35645 15.3772 L 9.31573 15.4019 L 9.27496 15.4264 L 9.23411 15.4509 L 9.1932 15.4753 L 9.15223 15.4996 L 9.1112 15.5237 L 9.0701 15.5478 L 9.02893 15.5717 L 8.98771 15.5955 L 8.94642 15.6193 L 8.90507 15.6429 L 8.86365 15.6664 L 8.82217 15.6898 L 8.78064 15.7131 L 8.73904 15.7362 L 8.69738 15.7593 L 8.65565 15.7823 L 8.61387 15.8051 L 8.57203 15.8278 L 8.53013 15.8505 L 8.48816 15.873 L 8.44614 15.8954 L 8.40406 15.9177 L 8.36192 15.9398 L 8.31972 15.9619 L 8.27747 15.9839 L 8.23515 16.0057 L 8.19278 16.0274 L 8.15035 16.049 L 8.10787 16.0705 L 7.93849 16.1549 L 7.89573 16.1758 L 7.85291 16.1967 L 7.81003 16.2174 L 7.7671 16.238 L 7.72412 16.2585 L 7.68108 16.2789 L 7.63798 16.2991 L 7.59484 16.3193 L 7.55164 16.3393 L 7.50839 16.3592 L 7.46508 16.379 L 7.42172 16.3987 L 7.37832 16.4183 L 7.33486 16.4378 L 7.29134 16.4571 L 7.24778 16.4763 L 7.20417 16.4955 L 7.1605 16.5145 L 7.11679 16.5333 L 7.07303 16.5521 L 7.02921 16.5708 L 6.98535 16.5893 L 6.94144 16.6077 L 6.89748 16.626 L 6.85347 16.6442 L 6.80941 16.6623 L 6.76531 16.6802 L 6.72116 16.6981 L 6.67696 16.7158 L 6.63272 16.7334 L 6.58842 16.7509 L 6.54574 16.7165 L 6.49347 16.6858 L 6.44117 16.655 L 6.38884 16.6241 L 6.33649 16.5932 L 6.2841 16.5622 L 6.23169 16.5311 L 6.17925 16.4999 L 6.12678 16.4687 L 6.07428 16.4374 L 6.02175 16.406 L 5.96919 16.3745 L 5.9166 16.3429 L 5.86399 16.3113 L 5.81134 16.2796 L 5.75866 16.2478 L 5.70596 16.2159 L 5.65322 16.1839 L 5.60046 16.1518 L 5.54767 16.1197 L 5.49484 16.0875 L 5.44199 16.0552 L 5.3891 16.0228 L 5.33619 15.9903 L 5.28325 15.9577 L 5.23027 15.925 L 5.17727 15.8922 L 5.12424 15.8594 L 5.07118 15.8264 L 5.01808 15.7934 L 4.96496 15.7602 L 4.9118 15.727 L 4.85862 15.6937 L 4.80541 15.6603 L 4.75216 15.6267 L 4.69889 15.5931 L 4.64558 15.5594 L 4.59225 15.5256 L 4.53888 15.4916 L 4.48549 15.4576 L 4.43206 15.4235 L 4.37861 15.3892 L 4.37861 15.3892 L 4.35119 15.4465 L 4.32373 15.5036 L 4.29625 15.5607 L 4.26874 15.6176 L 4.2412 15.6744 L 4.21364 15.7312 L 4.18604 15.7878 L 4.15842 15.8443 L 4.13078 15.9008 L 4.10311 15.9571 L 4.07541 16.0133 L 4.04769 16.0695 L 4.01994 16.1255 L 3.99217 16.1815 L 3.96438 16.2373 L 3.93656 16.2931 L 3.90873 16.3488 L 3.88086 16.4043 L 3.85298 16.4598 L 3.82508 16.5152 L 3.79715 16.5705 L 3.76921 16.6257 L 3.74124 16.6808 L 3.71326 16.7359 L 3.68525 16.7908 L 3.65723 16.8457 L 3.62919 16.9004 L 3.60112 16.9551 L 3.57305 17.0097 L 3.54495 17.0642 L 3.51683 17.1187 L 3.4887 17.173 L 3.46056 17.2273 L 3.43239 17.2815 L 3.40421 17.3356 L 3.37601 17.3896 L 3.3478 17.4436 L 3.31957 17.4974 L 3.29133 17.5512 L 3.26308 17.6049 L 3.2348 17.6585 L 3.21662 17.7103 L 3.16976 17.7187 L 3.12287 17.727 L 3.07596 17.7352 L 3.02903 17.7433 L 2.98208 17.7513 L 2.93511 17.7591 L 2.88812 17.7668 L 2.84111 17.7744 L 2.79408 17.7818 L 2.74703 17.7891 L 2.69995 17.7964 L 2.65286 17.8034 L 2.60576 17.8104 L 2.55863 17.8172 L 2.51149 17.8239 L 2.46432 17.8305 L 2.41714 17.837 L 2.36995 17.8433 L 2.32274 17.8495 L 2.27551 17.8556 L 2.22826 17.8615 L 2.181 17.8674 L 2.13373 17.8731 L 2.08643 17.8787 L 2.03913 17.8841 L 1.99181 17.8895 L 1.94448 17.8947 L 1.89713 17.8997 L 1.84977 17.9047 L 1.8024 17.9095 L 1.75501 17.9142 L 1.56661 17.9317 L 1.51916 17.9358 L 1.47171 17.9397 L 1.42424 17.9436 L 1.37677 17.9473 L 1.32928 17.9508 L 1.28179 17.9543 L 1.23429 17.9576 L 1.18678 17.9608 L 1.13926 17.9639 L 1.09173 17.9669 L 1.04419 17.9697 L 0.996652 17.9724 L 0.949102 17.975 L 0.901546 17.9774 L 0.853984 17.9797 L 0.806415 17.9819 L 0.758841 17.984 L 0.711262 17.9859 L 0.663678 17.9878 L 0.616089 17.9895 L 0.568496 17.991 L 0.520898 17.9925 L 0.473298 17.9938 L 0.425693 17.995 L 0.378086 17.996 L 0.330476 17.997 L 0.282864 17.9978 L 0.23525 17.9985 L 0.187634 17.999 L 0.140017 17.9995 L 0.0923994 17.9998 L 0.0650219 17.9523 L 0.0273777 17.9047 L -0.0102666 17.8571 L -0.0479109 17.8095 L -0.085555 17.7617 L -0.123199 17.7139 L -0.160842 17.6659 L -0.198484 17.6179 L -0.236126 17.5698 L -0.273766 17.5217 L -0.311405 17.4734 L -0.349043 17.4251 L -0.386678 17.3767 L -0.424312 17.3281 L -0.461944 17.2795 L -0.499573 17.2309 L -0.5372 17.1821 L -0.574824 17.1332 L -0.612445 17.0843 L -0.650063 17.0352 L -0.687677 16.9861 L -0.725288 16.9369 L -0.762895 16.8875 L -0.800497 16.8381 L -0.838095 16.7886 L -0.875688 16.739 L -0.913276 16.6893 L -0.950859 16.6395 L -0.988436 16.5896 L -1.02601 16.5396 L -1.06357 16.4895 L -1.10113 16.4394 L -1.13868 16.3891 L -1.17623 16.3387 L -1.21377 16.2882 L -1.2513 16.2376 L -1.28882 16.1869 L -1.32633 16.1361 L -1.36384 16.0851 L -1.40133 16.0341 L -1.43882 15.983 L -1.47629 15.9317 L -1.47629 15.9317 L -1.52255 15.9752 L -1.56879 16.0186 L -1.61502 16.0619 L -1.66125 16.105 L -1.70746 16.1481 L -1.75366 16.191 L -1.79984 16.2339 L -1.84602 16.2766 L -1.89219 16.3192 L -1.93834 16.3618 L -1.98448 16.4042 L -2.03061 16.4465 L -2.07673 16.4888 L -2.12284 16.5309 L -2.16893 16.573 L -2.21501 16.6149 L -2.26108 16.6568 L -2.30713 16.6985 L -2.35317 16.7402 L -2.3992 16.7817 L -2.44522 16.8232 L -2.49122 16.8646 L -2.53721 16.9059 L -2.58318 16.9471 L -2.62915 16.9882 L -2.67509 17.0293 L -2.72103 17.0702 L -2.76695 17.1111 L -2.81286 17.1518 L -2.85875 17.1925 L -2.90463 17.2331 L -2.95049 17.2736 L -2.99634 17.3141 L -3.04218 17.3544 L -3.088 17.3947 L -3.13381 17.4349 L -3.17961 17.475 L -3.22538 17.515 L -3.27115 17.555 L -3.3169 17.5948 L -3.36263 17.6346 L -3.39827 17.6763 L -3.44502 17.6673 L -3.49175 17.6581 L -3.53845 17.6488 L -3.58513 17.6394 L -3.63178 17.6298 L -3.67841 17.6201 L -3.72501 17.6103 L -3.77159 17.6004 L -3.81814 17.5904 L -3.86466 17.5802 L -3.91115 17.5699 L -3.95762 17.5595 L -4.00406 17.549 L -4.05047 17.5383 L -4.09686 17.5276 L -4.14321 17.5167 L -4.18954 17.5057 L -4.23583 17.4945 L -4.2821 17.4832 L -4.32834 17.4718 L -4.37454 17.4603 L -4.42072 17.4487 L -4.46686 17.4369 L -4.51298 17.4251 L -4.55906 17.4131 L -4.60511 17.4009 L -4.65113 17.3887 L -4.69711 17.3763 L -4.74307 17.3639 L -4.78899 17.3512 L -4.83487 17.3385 L -5.01686 17.2867 L -5.06257 17.2734 L -5.10825 17.2599 L -5.1539 17.2464 L -5.1995 17.2327 L -5.24507 17.2189 L -5.29061 17.2049 L -5.33611 17.1909 L -5.38157 17.1767 L -5.42699 17.1624 L -5.47237 17.148 L -5.51772 17.1334 L -5.56302 17.1188 L -5.60829 17.104 L -5.65352 17.0891 L -5.69871 17.0741 L -5.74386 17.059 L -5.78897 17.0437 L -5.83404 17.0283 L -5.87907 17.0128 L -5.92405 16.9972 L -5.969 16.9815 L -6.0139 16.9656 L -6.05876 16.9497 L -6.10358 16.9336 L -6.14836 16.9174 L -6.19309 16.9011 L -6.23778 16.8846 L -6.28243 16.868 L -6.32703 16.8514 L -6.37159 16.8346 L -6.4161 16.8177 L -6.42447 16.7635 L -6.44241 16.7056 L -6.46032 16.6476 L -6.47819 16.5895 L -6.49604 16.5314 L -6.51386 16.4732 L -6.53165 16.4149 L -6.54941 16.3565 L -6.56714 16.2981 L -6.58484 16.2396 L -6.6025 16.181 L -6.62014 16.1223 L -6.63774 16.0636 L -6.65531 16.0047 L -6.67284 15.9458 L -6.69034 15.8868 L -6.70781 15.8278 L -6.72524 15.7686 L -6.74264 15.7094 L -6.76 15.65 L -6.77732 15.5906 L -6.79461 15.5311 L -6.81186 15.4716 L -6.82907 15.4119 L -6.84625 15.3522 L -6.86338 15.2923 L -6.88048 15.2324 L -6.89754 15.1724 L -6.91455 15.1123 L -6.93153 15.0521 L -6.94846 14.9918 L -6.96535 14.9315 L -6.9822 14.871 L -6.99901 14.8105 L -7.01577 14.7498 L -7.03249 14.6891 L -7.04916 14.6282 L -7.06578 14.5673 L -7.08236 14.5063 L -7.09889 14.4452 L -7.11538 14.3839 L -7.13181 14.3226 L -7.13181 14.3226 L -7.19065 14.3464 L -7.24944 14.3702 L -7.30818 14.3938 L -7.36687 14.4174 L -7.42551 14.4408 L -7.48411 14.4642 L -7.54265 14.4874 L -7.60115 14.5106 L -7.6596 14.5337 L -7.718 14.5567 L -7.77636 14.5796 L -7.83467 14.6024 L -7.89293 14.6251 L -7.95114 14.6478 L -8.00931 14.6703 L -8.06743 14.6928 L -8.12551 14.7152 L -8.18353 14.7375 L -8.24152 14.7597 L -8.29945 14.7818 L -8.35735 14.8039 L -8.41519 14.8259 L -8.47299 14.8477 L -8.53075 14.8696 L -8.58846 14.8913 L -8.64613 14.913 L -8.70375 14.9345 L -8.76133 14.9561 L -8.81887 14.9775 L -8.87636 14.9988 L -8.93381 15.0201 L -8.99121 15.0413 L -9.04857 15.0625 L -9.10589 15.0836 L -9.16317 15.1046 L -9.2204 15.1255 L -9.27759 15.1463 L -9.33474 15.1671 L -9.39184 15.1879 L -9.44891 15.2085 L -9.50593 15.2291 L -9.55421 15.2551 L -9.59454 15.2297 L -9.63479 15.2043 L -9.67498 15.1788 L -9.7151 15.1531 L -9.75516 15.1274 L -9.79514 15.1015 L -9.83506 15.0755 L -9.87491 15.0495 L -9.91469 15.0233 L -9.9544 14.997 L -9.99404 14.9706 L -10.0336 14.9441 L -10.0731 14.9175 L -10.1125 14.8908 L -10.1519 14.864 L -10.1912 14.8371 L -10.2304 14.8101 L -10.2695 14.783 L -10.3086 14.7558 L -10.3476 14.7284 L -10.3865 14.701 L -10.4254 14.6735 L -10.4642 14.6459 L -10.5029 14.6181 L -10.5415 14.5903 L -10.5801 14.5623 L -10.6186 14.5343 L -10.657 14.5062 L -10.6953 14.4779 L -10.7336 14.4496 L -10.7718 14.4211 L -10.9228 14.3071 L -10.9606 14.2782 L -10.9983 14.2491 L -11.036 14.22 L -11.0736 14.1907 L -11.1111 14.1614 L -11.1485 14.1319 L -11.1858 14.1024 L -11.2231 14.0727 L -11.2603 14.043 L -11.2974 14.0132 L -11.3344 13.9832 L -11.3714 13.9532 L -11.4083 13.9231 L -11.4451 13.8928 L -11.4818 13.8625 L -11.5184 13.8321 L -11.555 13.8016 L -11.5914 13.7709 L -11.6278 13.7402 L -11.6641 13.7094 L -11.7003 13.6785 L -11.7365 13.6475 L -11.7726 13.6164 L -11.8085 13.5852 L -11.8444 13.5539 L -11.8803 13.5226 L -11.916 13.4911 L -11.9516 13.4595 L -11.9872 13.4278 L -12.0227 13.3961 L -12.0581 13.3642 L -12.0463 13.3107 L -12.0421 13.2502 L -12.0379 13.1897 L -12.0336 13.1291 L -12.0292 13.0684 L -12.0248 13.0077 L -12.0203 12.9469 L -12.0158 12.8861 L -12.0112 12.8252 L -12.0066 12.7642 L -12.0019 12.7032 L -11.9971 12.6421 L -11.9923 12.581 L -11.9875 12.5198 L -11.9825 12.4585 L -11.9775 12.3972 L -11.9725 12.3358 L -11.9674 12.2743 L -11.9622 12.2128 L -11.957 12.1512 L -11.9517 12.0896 L -11.9463 12.0279 L -11.9408 11.9661 L -11.9353 11.9042 L -11.9298 11.8423 L -11.9241 11.7803 L -11.9184 11.7183 L -11.9127 11.6562 L -11.9068 11.594 L -11.9009 11.5317 L -11.8949 11.4694 L -11.8889 11.407 L -11.8827 11.3445 L -11.8765 11.282 L -11.8703 11.2194 L -11.8639 11.1567 L -11.8575 11.094 L -11.851 11.0311 L -11.8444 10.9683 L -11.8377 10.9053 L -11.831 10.8422 L -11.8241 10.7791 L -11.8241 10.7791 L -11.8876 10.7801 L -11.951 10.781 L -12.0143 10.7818 L -12.0776 10.7826 L -12.1407 10.7833 L -12.2038 10.7839 L -12.2668 10.7844 L -12.3297 10.7849 L -12.3925 10.7853 L -12.4553 10.7856 L -12.518 10.7859 L -12.5806 10.7861 L -12.6431 10.7863 L -12.7056 10.7864 L -12.768 10.7864 L -12.8303 10.7863 L -12.8925 10.7862 L -12.9547 10.786 L -13.0168 10.7858 L -13.0788 10.7855 L -13.1408 10.7852 L -13.2026 10.7848 L -13.2645 10.7843 L -13.3262 10.7838 L -13.3879 10.7832 L -13.4495 10.7826 L -13.511 10.7819 L -13.5724 10.7811 L -13.6338 10.7803 L -13.6952 10.7795 L -13.7564 10.7786 L -13.8176 10.7776 L -13.8787 10.7766 L -13.9398 10.7756 L -14.0008 10.7745 L -14.0617 10.7733 L -14.1226 10.7721 L -14.1834 10.7708 L -14.2441 10.7695 L -14.3048 10.7682 L -14.3654 10.7668 L -14.4198 10.7735 L -14.4483 10.7354 L -14.4766 10.6971 L -14.5049 10.6588 L -14.533 10.6204 L -14.561 10.5819 L -14.589 10.5433 L -14.6168 10.5047 L -14.6446 10.466 L -14.6722 10.4272 L -14.6997 10.3883 L -14.7272 10.3494 L -14.7545 10.3104 L -14.7817 10.2714 L -14.8088 10.2322 L -14.8359 10.193 L -14.8628 10.1537 L -14.8896 10.1144 L -14.9163 10.0749 L -14.9429 10.0354 L -14.9694 9.99587 L -14.9958 9.95623 L -15.0221 9.91653 L -15.0482 9.87675 L -15.0743 9.83691 L -15.1003 9.79699 L -15.1262 9.75701 L -15.1519 9.71696 L -15.1776 9.67684 L -15.2031 9.63666 L -15.2286 9.5964 L -15.2539 9.55608 L -15.3535 9.39521 L -15.3783 9.35456 L -15.403 9.31385 L -15.4276 9.27307 L -15.4521 9.23222 L -15.4764 9.19131 L -15.5007 9.15033 L -15.5248 9.10929 L -15.5489 9.06819 L -15.5728 9.02702 L -15.5966 8.9858 L -15.6204 8.9445 L -15.644 8.90315 L -15.6675 8.86173 L -15.6909 8.82025 L -15.7141 8.77871 L -15.7373 8.73711 L -15.7604 8.69544 L -15.7833 8.65372 L -15.8062 8.61193 L -15.8289 8.57009 L -15.8515 8.52818 L -15.874 8.48622 L -15.8964 8.44419 L -15.9187 8.40211 L -15.9409 8.35997 L -15.9629 8.31777 L -15.9849 8.27551 L -16.0067 8.23319 L -16.0284 8.19082 L -16.05 8.14839 L -16.0715 8.1059 L -16.0412 8.06022 L -16.0155 8.00534 L -15.9896 7.95042 L -15.9637 7.89547 L -15.9378 7.84048 L -15.9117 7.78546 L -15.8856 7.7304 L -15.8594 7.67531 L -15.8331 7.62018 L -15.8068 7.56502 L -15.7804 7.50981 L -15.7539 7.45457 L -15.7273 7.3993 L -15.7006 7.34399 L -15.6739 7.28864 L -15.6471 7.23325 L -15.6202 7.17783 L -15.5932 7.12237 L -15.5662 7.06687 L -15.5391 7.01134 L -15.5118 6.95577 L -15.4845 6.90016 L -15.4572 6.84451 L -15.4297 6.78882 L -15.4021 6.7331 L -15.3745 6.67734 L -15.3467 6.62154 L -15.3189 6.5657 L -15.291 6.50982 L -15.263 6.45391 L -15.2349 6.39795 L -15.2067 6.34196 L -15.1784 6.28593 L -15.1501 6.22985 L -15.1216 6.17374 L -15.093 6.11759 L -15.0644 6.06141 L -15.0356 6.00518 L -15.0067 5.94891 L -14.9778 5.8926 L -14.9487 5.83625 L -14.9196 5.77987 L -14.9196 5.77987 L -14.9791 5.75784 L -15.0385 5.73578 L -15.0979 5.71368 L -15.1571 5.69154 L -15.2162 5.66936 L -15.2753 5.64715 L -15.3342 5.6249 L -15.3931 5.60262 L -15.4518 5.58029 L -15.5105 5.55794 L -15.569 5.53555 L -15.6275 5.51313 L -15.6858 5.49067 L -15.7441 5.46818 L -15.8023 5.44566 L -15.8604 5.42311 L -15.9184 5.40052 L -15.9763 5.37791 L -16.0341 5.35527 L -16.0918 5.33259 L -16.1495 5.30989 L -16.207 5.28716 L -16.2645 5.2644 L -16.3219 5.24161 L -16.3792 5.21879 L -16.4364 5.19595 L -16.4935 5.17308 L -16.5505 5.15018 L -16.6075 5.12726 L -16.6644 5.10432 L -16.7212 5.08134 L -16.7779 5.05835 L -16.8345 5.03533 L -16.8911 5.01228 L -16.9475 4.98921 L -17.0039 4.96612 L -17.0602 4.94301 L -17.1165 4.91987 L -17.1726 4.89671 L -17.2287 4.87353 L -17.2847 4.85033 L -17.3379 4.837 L -17.3507 4.79111 L -17.3633 4.74519 L -17.3758 4.69924 L -17.3881 4.65326 L -17.4004 4.60724 L -17.4125 4.56119 L -17.4245 4.51511 L -17.4364 4.469 L -17.4482 4.42286 L -17.4598 4.37668 L -17.4713 4.33048 L -17.4827 4.28424 L -17.494 4.23798 L -17.5051 4.19168 L -17.5162 4.14536 L -17.5271 4.099 L -17.5379 4.05262 L -17.5485 4.00621 L -17.559 3.95977 L -17.5695 3.91331 L -17.5798 3.86681 L -17.5899 3.82029 L -17.6 3.77374 L -17.6099 3.72717 L -17.6197 3.68057 L -17.6294 3.63394 L -17.6389 3.58729 L -17.6483 3.54062 L -17.6576 3.49392 L -17.6668 3.44719 L -17.6759 3.40044 L -17.7107 3.21445 L -17.7191 3.16759 L -17.7274 3.1207 L -17.7356 3.07379 L -17.7437 3.02686 L -17.7516 2.97991 L -17.7594 2.93294 L -17.7671 2.88594 L -17.7747 2.83893 L -17.7822 2.7919 L -17.7895 2.74485 L -17.7967 2.69777 L -17.8038 2.65068 L -17.8107 2.60357 L -17.8175 2.55645 L -17.8242 2.5093 L -17.8308 2.46214 L -17.8373 2.41496 L -17.8436 2.36776 L -17.8498 2.32055 L -17.8559 2.27332 L -17.8618 2.22607 L -17.8676 2.17881 L -17.8733 2.13153 L -17.8789 2.08424 L -17.8844 2.03694 L -17.8897 1.98962 L -17.8949 1.94228 L -17.9 1.89494 L -17.9049 1.84757 L -17.9098 1.8002 L -17.9145 1.75281 L -17.8697 1.72117 L -17.8258 1.6793 L -17.7819 1.63743 L -17.7379 1.59554 L -17.6938 1.55365 L -17.6497 1.51176 L -17.6054 1.46985 L -17.5611 1.42794 L -17.5167 1.38602 L -17.4722 1.3441 L -17.4276 1.30217 L -17.3829 1.26023 L -17.3382 1.21829 L -17.2934 1.17634 L -17.2485 1.13438 L -17.2034 1.09242 L -17.1584 1.05045 L -17.1132 1.00848 L -17.0679 0.966504 L -17.0225 0.924522 L -16.9771 0.882534 L -16.9315 0.840542 L -16.8859 0.798545 L -16.8402 0.756544 L -16.7943 0.714539 L -16.7484 0.672529 L -16.7024 0.630516 L -16.6563 0.588498 L -16.6101 0.546478 L -16.5637 0.504454 L -16.5173 0.462427 L -16.4708 0.420398 L -16.4242 0.378366 L -16.3775 0.336331 L -16.3307 0.294294 L -16.2838 0.252256 L -16.2367 0.210216 L -16.1896 0.168174 L -16.1424 0.126132 L -16.095 0.0840883 L -16.0476 0.0420443 L -16 4.44089e-16 L -16 3.47478e-15 L -16.0476 -0.0420443 L -16.095 -0.0840883 L -16.1424 -0.126132 L -16.1896 -0.168174 L -16.2367 -0.210216 L -16.2838 -0.252256 L -16.3307 -0.294294 L -16.3775 -0.336331 L -16.4242 -0.378366 L -16.4708 -0.420398 L -16.5173 -0.462427 L -16.5637 -0.504454 L -16.6101 -0.546478 L -16.6563 -0.588498 L -16.7024 -0.630516 L -16.7484 -0.672529 L -16.7943 -0.714539 L -16.8402 -0.756544 L -16.8859 -0.798545 L -16.9315 -0.840542 L -16.9771 -0.882534 L -17.0225 -0.924522 L -17.0679 -0.966504 L -17.1132 -1.00848 L -17.1584 -1.05045 L -17.2034 -1.09242 L -17.2485 -1.13438 L -17.2934 -1.17634 L -17.3382 -1.21829 L -17.3829 -1.26023 L -17.4276 -1.30217 L -17.4722 -1.3441 L -17.5167 -1.38602 L -17.5611 -1.42794 L -17.6054 -1.46985 L -17.6497 -1.51176 L -17.6938 -1.55365 L -17.7379 -1.59554 L -17.7819 -1.63743 L -17.8258 -1.6793 L -17.8697 -1.72117 L -17.9145 -1.75281 L -17.9098 -1.8002 L -17.9049 -1.84757 L -17.9 -1.89494 L -17.8949 -1.94228 L -17.8897 -1.98962 L -17.8844 -2.03694 L -17.8789 -2.08424 L -17.8733 -2.13153 L -17.8676 -2.17881 L -17.8618 -2.22607 L -17.8559 -2.27332 L -17.8498 -2.32055 L -17.8436 -2.36776 L -17.8373 -2.41496 L -17.8308 -2.46214 L -17.8242 -2.5093 L -17.8175 -2.55645 L -17.8107 -2.60357 L -17.8038 -2.65068 L -17.7967 -2.69777 L -17.7895 -2.74485 L -17.7822 -2.7919 L -17.7747 -2.83893 L -17.7671 -2.88594 L -17.7594 -2.93294 L -17.7516 -2.97991 L -17.7437 -3.02686 L -17.7356 -3.07379 L -17.7274 -3.1207 L -17.7191 -3.16759 L -17.7107 -3.21445 L -17.6759 -3.40044 L -17.6668 -3.44719 L -17.6576 -3.49392 L -17.6483 -3.54062 L -17.6389 -3.58729 L -17.6294 -3.63394 L -17.6197 -3.68057 L -17.6099 -3.72717 L -17.6 -3.77374 L -17.5899 -3.82029 L -17.5798 -3.86681 L -17.5695 -3.91331 L -17.559 -3.95977 L -17.5485 -4.00621 L -17.5379 -4.05262 L -17.5271 -4.099 L -17.5162 -4.14536 L -17.5051 -4.19168 L -17.494 -4.23798 L -17.4827 -4.28424 L -17.4713 -4.33048 L -17.4598 -4.37668 L -17.4482 -4.42286 L -17.4364 -4.469 L -17.4245 -4.51511 L -17.4125 -4.56119 L -17.4004 -4.60724 L -17.3881 -4.65326 L -17.3758 -4.69924 L -17.3633 -4.74519 L -17.3507 -4.79111 L -17.3379 -4.837 L -17.2847 -4.85033 L -17.2287 -4.87353 L -17.1726 -4.89671 L -17.1165 -4.91987 L -17.0602 -4.94301 L -17.0039 -4.96612 L -16.9475 -4.98921 L -16.8911 -5.01228 L -16.8345 -5.03533 L -16.7779 -5.05835 L -16.7212 -5.08134 L -16.6644 -5.10432 L -16.6075 -5.12726 L -16.5505 -5.15018 L -16.4935 -5.17308 L -16.4364 -5.19595 L -16.3792 -5.21879 L -16.3219 -5.24161 L -16.2645 -5.2644 L -16.207 -5.28716 L -16.1495 -5.30989 L -16.0918 -5.33259 L -16.0341 -5.35527 L -15.9763 -5.37791 L -15.9184 -5.40052 L -15.8604 -5.42311 L -15.8023 -5.44566 L -15.7441 -5.46818 L -15.6858 -5.49067 L -15.6275 -5.51313 L -15.569 -5.53555 L -15.5105 -5.55794 L -15.4518 -5.58029 L -15.3931 -5.60262 L -15.3342 -5.6249 L -15.2753 -5.64715 L -15.2162 -5.66936 L -15.1571 -5.69154 L -15.0979 -5.71368 L -15.0385 -5.73578 L -14.9791 -5.75784 L -14.9196 -5.77987 L -14.9196 -5.77987 L -14.9487 -5.83625 L -14.9778 -5.8926 L -15.0067 -5.94891 L -15.0356 -6.00518 L -15.0644 -6.06141 L -15.093 -6.11759 L -15.1216 -6.17374 L -15.1501 -6.22985 L -15.1784 -6.28593 L -15.2067 -6.34196 L -15.2349 -6.39795 L -15.263 -6.45391 L -15.291 -6.50982 L -15.3189 -6.5657 L -15.3467 -6.62154 L -15.3745 -6.67734 L -15.4021 -6.7331 L -15.4297 -6.78882 L -15.4572 -6.84451 L -15.4845 -6.90016 L -15.5118 -6.95577 L -15.5391 -7.01134 L -15.5662 -7.06687 L -15.5932 -7.12237 L -15.6202 -7.17783 L -15.6471 -7.23325 L -15.6739 -7.28864 L -15.7006 -7.34399 L -15.7273 -7.3993 L -15.7539 -7.45457 L -15.7804 -7.50981 L -15.8068 -7.56502 L -15.8331 -7.62018 L -15.8594 -7.67531 L -15.8856 -7.7304 L -15.9117 -7.78546 L -15.9378 -7.84048 L -15.9637 -7.89547 L -15.9896 -7.95042 L -16.0155 -8.00534 L -16.0412 -8.06022 L -16.0715 -8.1059 L -16.05 -8.14839 L -16.0284 -8.19082 L -16.0067 -8.23319 L -15.9849 -8.27551 L -15.9629 -8.31777 L -15.9409 -8.35997 L -15.9187 -8.40211 L -15.8964 -8.44419 L -15.874 -8.48622 L -15.8515 -8.52818 L -15.8289 -8.57009 L -15.8062 -8.61193 L -15.7833 -8.65372 L -15.7604 -8.69544 L -15.7373 -8.73711 L -15.7141 -8.77871 L -15.6909 -8.82025 L -15.6675 -8.86173 L -15.644 -8.90315 L -15.6204 -8.9445 L -15.5966 -8.9858 L -15.5728 -9.02702 L -15.5489 -9.06819 L -15.5248 -9.10929 L -15.5007 -9.15033 L -15.4764 -9.19131 L -15.4521 -9.23222 L -15.4276 -9.27307 L -15.403 -9.31385 L -15.3783 -9.35456 L -15.3535 -9.39521 L -15.2539 -9.55608 L -15.2286 -9.5964 L -15.2031 -9.63666 L -15.1776 -9.67684 L -15.1519 -9.71696 L -15.1262 -9.75701 L -15.1003 -9.79699 L -15.0743 -9.83691 L -15.0482 -9.87675 L -15.0221 -9.91653 L -14.9958 -9.95623 L -14.9694 -9.99587 L -14.9429 -10.0354 L -14.9163 -10.0749 L -14.8896 -10.1144 L -14.8628 -10.1537 L -14.8359 -10.193 L -14.8088 -10.2322 L -14.7817 -10.2714 L -14.7545 -10.3104 L -14.7272 -10.3494 L -14.6997 -10.3883 L -14.6722 -10.4272 L -14.6446 -10.466 L -14.6168 -10.5047 L -14.589 -10.5433 L -14.561 -10.5819 L -14.533 -10.6204 L -14.5049 -10.6588 L -14.4766 -10.6971 L -14.4483 -10.7354 L -14.4198 -10.7735 L -14.3654 -10.7668 L -14.3048 -10.7682 L -14.2441 -10.7695 L -14.1834 -10.7708 L -14.1226 -10.7721 L -14.0617 -10.7733 L -14.0008 -10.7745 L -13.9398 -10.7756 L -13.8787 -10.7766 L -13.8176 -10.7776 L -13.7564 -10.7786 L -13.6952 -10.7795 L -13.6338 -10.7803 L -13.5724 -10.7811 L -13.511 -10.7819 L -13.4495 -10.7826 L -13.3879 -10.7832 L -13.3262 -10.7838 L -13.2645 -10.7843 L -13.2026 -10.7848 L -13.1408 -10.7852 L -13.0788 -10.7855 L -13.0168 -10.7858 L -12.9547 -10.786 L -12.8925 -10.7862 L -12.8303 -10.7863 L -12.768 -10.7864 L -12.7056 -10.7864 L -12.6431 -10.7863 L -12.5806 -10.7861 L -12.518 -10.7859 L -12.4553 -10.7856 L -12.3925 -10.7853 L -12.3297 -10.7849 L -12.2668 -10.7844 L -12.2038 -10.7839 L -12.1407 -10.7833 L -12.0776 -10.7826 L -12.0143 -10.7818 L -11.951 -10.781 L -11.8876 -10.7801 L -11.8241 -10.7791 L -11.8241 -10.7791 L -11.831 -10.8422 L -11.8377 -10.9053 L -11.8444 -10.9683 L -11.851 -11.0311 L -11.8575 -11.094 L -11.8639 -11.1567 L -11.8703 -11.2194 L -11.8765 -11.282 L -11.8827 -11.3445 L -11.8889 -11.407 L -11.8949 -11.4694 L -11.9009 -11.5317 L -11.9068 -11.594 L -11.9127 -11.6562 L -11.9184 -11.7183 L -11.9241 -11.7803 L -11.9298 -11.8423 L -11.9353 -11.9042 L -11.9408 -11.9661 L -11.9463 -12.0279 L -11.9517 -12.0896 L -11.957 -12.1512 L -11.9622 -12.2128 L -11.9674 -12.2743 L -11.9725 -12.3358 L -11.9775 -12.3972 L -11.9825 -12.4585 L -11.9875 -12.5198 L -11.9923 -12.581 L -11.9971 -12.6421 L -12.0019 -12.7032 L -12.0066 -12.7642 L -12.0112 -12.8252 L -12.0158 -12.8861 L -12.0203 -12.9469 L -12.0248 -13.0077 L -12.0292 -13.0684 L -12.0336 -13.1291 L -12.0379 -13.1897 L -12.0421 -13.2502 L -12.0463 -13.3107 L -12.0581 -13.3642 L -12.0227 -13.3961 L -11.9872 -13.4278 L -11.9516 -13.4595 L -11.916 -13.4911 L -11.8803 -13.5226 L -11.8444 -13.5539 L -11.8085 -13.5852 L -11.7726 -13.6164 L -11.7365 -13.6475 L -11.7003 -13.6785 L -11.6641 -13.7094 L -11.6278 -13.7402 L -11.5914 -13.7709 L -11.555 -13.8016 L -11.5184 -13.8321 L -11.4818 -13.8625 L -11.4451 -13.8928 L -11.4083 -13.9231 L -11.3714 -13.9532 L -11.3344 -13.9832 L -11.2974 -14.0132 L -11.2603 -14.043 L -11.2231 -14.0727 L -11.1858 -14.1024 L -11.1485 -14.1319 L -11.1111 -14.1614 L -11.0736 -14.1907 L -11.036 -14.22 L -10.9983 -14.2491 L -10.9606 -14.2782 L -10.9228 -14.3071 L -10.7718 -14.4211 L -10.7336 -14.4496 L -10.6953 -14.4779 L -10.657 -14.5062 L -10.6186 -14.5343 L -10.5801 -14.5623 L -10.5415 -14.5903 L -10.5029 -14.6181 L -10.4642 -14.6459 L -10.4254 -14.6735 L -10.3865 -14.701 L -10.3476 -14.7284 L -10.3086 -14.7558 L -10.2695 -14.783 L -10.2304 -14.8101 L -10.1912 -14.8371 L -10.1519 -14.864 L -10.1125 -14.8908 L -10.0731 -14.9175 L -10.0336 -14.9441 L -9.99404 -14.9706 L -9.9544 -14.997 L -9.91469 -15.0233 L -9.87491 -15.0495 L -9.83506 -15.0755 L -9.79514 -15.1015 L -9.75516 -15.1274 L -9.7151 -15.1531 L -9.67498 -15.1788 L -9.63479 -15.2043 L -9.59454 -15.2297 L -9.55421 -15.2551 L -9.50593 -15.2291 L -9.44891 -15.2085 L -9.39184 -15.1879 L -9.33474 -15.1671 L -9.27759 -15.1463 L -9.2204 -15.1255 L -9.16317 -15.1046 L -9.10589 -15.0836 L -9.04857 -15.0625 L -8.99121 -15.0413 L -8.93381 -15.0201 L -8.87636 -14.9988 L -8.81887 -14.9775 L -8.76133 -14.9561 L -8.70375 -14.9345 L -8.64613 -14.913 L -8.58846 -14.8913 L -8.53075 -14.8696 L -8.47299 -14.8477 L -8.41519 -14.8259 L -8.35735 -14.8039 L -8.29945 -14.7818 L -8.24152 -14.7597 L -8.18353 -14.7375 L -8.12551 -14.7152 L -8.06743 -14.6928 L -8.00931 -14.6703 L -7.95114 -14.6478 L -7.89293 -14.6251 L -7.83467 -14.6024 L -7.77636 -14.5796 L -7.718 -14.5567 L -7.6596 -14.5337 L -7.60115 -14.5106 L -7.54265 -14.4874 L -7.48411 -14.4642 L -7.42551 -14.4408 L -7.36687 -14.4174 L -7.30818 -14.3938 L -7.24944 -14.3702 L -7.19065 -14.3464 L -7.13181 -14.3226 L -7.13181 -14.3226 L -7.11538 -14.3839 L -7.09889 -14.4452 L -7.08236 -14.5063 L -7.06578 -14.5673 L -7.04916 -14.6282 L -7.03249 -14.6891 L -7.01577 -14.7498 L -6.99901 -14.8105 L -6.9822 -14.871 L -6.96535 -14.9315 L -6.94846 -14.9918 L -6.93153 -15.0521 L -6.91455 -15.1123 L -6.89754 -15.1724 L -6.88048 -15.2324 L -6.86338 -15.2923 L -6.84625 -15.3522 L -6.82907 -15.4119 L -6.81186 -15.4716 L -6.79461 -15.5311 L -6.77732 -15.5906 L -6.76 -15.65 L -6.74264 -15.7094 L -6.72524 -15.7686 L -6.70781 -15.8278 L -6.69034 -15.8868 L -6.67284 -15.9458 L -6.65531 -16.0047 L -6.63774 -16.0636 L -6.62014 -16.1223 L -6.6025 -16.181 L -6.58484 -16.2396 L -6.56714 -16.2981 L -6.54941 -16.3565 L -6.53165 -16.4149 L -6.51386 -16.4732 L -6.49604 -16.5314 L -6.47819 -16.5895 L -6.46032 -16.6476 L -6.44241 -16.7056 L -6.42447 -16.7635 L -6.4161 -16.8177 L -6.37159 -16.8346 L -6.32703 -16.8514 L -6.28243 -16.868 L -6.23778 -16.8846 L -6.19309 -16.9011 L -6.14836 -16.9174 L -6.10358 -16.9336 L -6.05876 -16.9497 L -6.0139 -16.9656 L -5.969 -16.9815 L -5.92405 -16.9972 L -5.87907 -17.0128 L -5.83404 -17.0283 L -5.78897 -17.0437 L -5.74386 -17.059 L -5.69871 -17.0741 L -5.65352 -17.0891 L -5.60829 -17.104 L -5.56302 -17.1188 L -5.51772 -17.1334 L -5.47237 -17.148 L -5.42699 -17.1624 L -5.38157 -17.1767 L -5.33611 -17.1909 L -5.29061 -17.2049 L -5.24507 -17.2189 L -5.1995 -17.2327 L -5.1539 -17.2464 L -5.10825 -17.2599 L -5.06257 -17.2734 L -5.01686 -17.2867 L -4.83487 -17.3385 L -4.78899 -17.3512 L -4.74307 -17.3639 L -4.69711 -17.3763 L -4.65113 -17.3887 L -4.60511 -17.4009 L -4.55906 -17.4131 L -4.51298 -17.4251 L -4.46686 -17.4369 L -4.42072 -17.4487 L -4.37454 -17.4603 L -4.32834 -17.4718 L -4.2821 -17.4832 L -4.23583 -17.4945 L -4.18954 -17.5057 L -4.14321 -17.5167 L -4.09686 -17.5276 L -4.05047 -17.5383 L -4.00406 -17.549 L -3.95762 -17.5595 L -3.91115 -17.5699 L -3.86466 -17.5802 L -3.81814 -17.5904 L -3.77159 -17.6004 L -3.72501 -17.6103 L -3.67841 -17.6201 L -3.63178 -17.6298 L -3.58513 -17.6394 L -3.53845 -17.6488 L -3.49175 -17.6581 L -3.44502 -17.6673 L -3.39827 -17.6763 L -3.36263 -17.6346 L -3.3169 -17.5948 L -3.27115 -17.555 L -3.22538 -17.515 L -3.17961 -17.475 L -3.13381 -17.4349 L -3.088 -17.3947 L -3.04218 -17.3544 L -2.99634 -17.3141 L -2.95049 -17.2736 L -2.90463 -17.2331 L -2.85875 -17.1925 L -2.81286 -17.1518 L -2.76695 -17.1111 L -2.72103 -17.0702 L -2.67509 -17.0293 L -2.62915 -16.9882 L -2.58318 -16.9471 L -2.53721 -16.9059 L -2.49122 -16.8646 L -2.44522 -16.8232 L -2.3992 -16.7817 L -2.35317 -16.7402 L -2.30713 -16.6985 L -2.26108 -16.6568 L -2.21501 -16.6149 L -2.16893 -16.573 L -2.12284 -16.5309 L -2.07673 -16.4888 L -2.03061 -16.4465 L -1.98448 -16.4042 L -1.93834 -16.3618 L -1.89219 -16.3192 L -1.84602 -16.2766 L -1.79984 -16.2339 L -1.75366 -16.191 L -1.70746 -16.1481 L -1.66125 -16.105 L -1.61502 -16.0619 L -1.56879 -16.0186 L -1.52255 -15.9752 L -1.47629 -15.9317 L -1.47629 -15.9317 L -1.43882 -15.983 L -1.40133 -16.0341 L -1.36384 -16.0851 L -1.32633 -16.1361 L -1.28882 -16.1869 L -1.2513 -16.2376 L -1.21377 -16.2882 L -1.17623 -16.3387 L -1.13868 -16.3891 L -1.10113 -16.4394 L -1.06357 -16.4895 L -1.02601 -16.5396 L -0.988436 -16.5896 L -0.950859 -16.6395 L -0.913276 -16.6893 L -0.875688 -16.739 L -0.838095 -16.7886 L -0.800497 -16.8381 L -0.762895 -16.8875 L -0.725288 -16.9369 L -0.687677 -16.9861 L -0.650063 -17.0352 L -0.612445 -17.0843 L -0.574824 -17.1332 L -0.5372 -17.1821 L -0.499573 -17.2309 L -0.461944 -17.2795 L -0.424312 -17.3281 L -0.386678 -17.3767 L -0.349043 -17.4251 L -0.311405 -17.4734 L -0.273766 -17.5217 L -0.236126 -17.5698 L -0.198484 -17.6179 L -0.160842 -17.6659 L -0.123199 -17.7139 L -0.085555 -17.7617 L -0.0479109 -17.8095 L -0.0102666 -17.8571 L 0.0273777 -17.9047 L 0.0650219 -17.9523 L 0.0923994 -17.9998 L 0.140017 -17.9995 L 0.187634 -17.999 L 0.23525 -17.9985 L 0.282864 -17.9978 L 0.330476 -17.997 L 0.378086 -17.996 L 0.425693 -17.995 L 0.473298 -17.9938 L 0.520898 -17.9925 L 0.568496 -17.991 L 0.616089 -17.9895 L 0.663678 -17.9878 L 0.711262 -17.9859 L 0.758841 -17.984 L 0.806415 -17.9819 L 0.853984 -17.9797 L 0.901546 -17.9774 L 0.949102 -17.975 L 0.996652 -17.9724 L 1.04419 -17.9697 L 1.09173 -17.9669 L 1.13926 -17.9639 L 1.18678 -17.9608 L 1.23429 -17.9576 L 1.28179 -17.9543 L 1.32928 -17.9508 L 1.37677 -17.9473 L 1.42424 -17.9436 L 1.47171 -17.9397 L 1.51916 -17.9358 L 1.56661 -17.9317 L 1.75501 -17.9142 L 1.8024 -17.9095 L 1.84977 -17.9047 L 1.89713 -17.8997 L 1.94448 -17.8947 L 1.99181 -17.8895 L 2.03913 -17.8841 L 2.08643 -17.8787 L 2.13373 -17.8731 L 2.181 -17.8674 L 2.22826 -17.8615 L 2.27551 -17.8556 L 2.32274 -17.8495 L 2.36995 -17.8433 L 2.41714 -17.837 L 2.46432 -17.8305 L 2.51149 -17.8239 L 2.55863 -17.8172 L 2.60576 -17.8104 L 2.65286 -17.8034 L 2.69995 -17.7964 L 2.74703 -17.7891 L 2.79408 -17.7818 L 2.84111 -17.7744 L 2.88812 -17.7668 L 2.93511 -17.7591 L 2.98208 -17.7513 L 3.02903 -17.7433 L 3.07596 -17.7352 L 3.12287 -17.727 L 3.16976 -17.7187 L 3.21662 -17.7103 L 3.2348 -17.6585 L 3.26308 -17.6049 L 3.29133 -17.5512 L 3.31957 -17.4974 L 3.3478 -17.4436 L 3.37601 -17.3896 L 3.40421 -17.3356 L 3.43239 -17.2815 L 3.46056 -17.2273 L 3.4887 -17.173 L 3.51683 -17.1187 L 3.54495 -17.0642 L 3.57305 -17.0097 L 3.60112 -16.9551 L 3.62919 -16.9004 L 3.65723 -16.8457 L 3.68525 -16.7908 L 3.71326 -16.7359 L 3.74124 -16.6808 L 3.76921 -16.6257 L 3.79715 -16.5705 L 3.82508 -16.5152 L 3.85298 -16.4598 L 3.88086 -16.4043 L 3.90873 -16.3488 L 3.93656 -16.2931 L 3.96438 -16.2373 L 3.99217 -16.1815 L 4.01994 -16.1255 L 4.04769 -16.0695 L 4.07541 -16.0133 L 4.10311 -15.9571 L 4.13078 -15.9008 L 4.15842 -15.8443 L 4.18604 -15.7878 L 4.21364 -15.7312 L 4.2412 -15.6744 L 4.26874 -15.6176 L 4.29625 -15.5607 L 4.32373 -15.5036 L 4.35119 -15.4465 L 4.37861 -15.3892 L 4.37861 -15.3892 L 4.43206 -15.4235 L 4.48549 -15.4576 L 4.53888 -15.4916 L 4.59225 -15.5256 L 4.64558 -15.5594 L 4.69889 -15.5931 L 4.75216 -15.6267 L 4.80541 -15.6603 L 4.85862 -15.6937 L 4.9118 -15.727 L 4.96496 -15.7602 L 5.01808 -15.7934 L 5.07118 -15.8264 L 5.12424 -15.8594 L 5.17727 -15.8922 L 5.23027 -15.925 L 5.28325 -15.9577 L 5.33619 -15.9903 L 5.3891 -16.0228 L 5.44199 -16.0552 L 5.49484 -16.0875 L 5.54767 -16.1197 L 5.60046 -16.1518 L 5.65322 -16.1839 L 5.70596 -16.2159 L 5.75866 -16.2478 L 5.81134 -16.2796 L 5.86399 -16.3113 L 5.9166 -16.3429 L 5.96919 -16.3745 L 6.02175 -16.406 L 6.07428 -16.4374 L 6.12678 -16.4687 L 6.17925 -16.4999 L 6.23169 -16.5311 L 6.2841 -16.5622 L 6.33649 -16.5932 L 6.38884 -16.6241 L 6.44117 -16.655 L 6.49347 -16.6858 L 6.54574 -16.7165 L 6.58842 -16.7509 L 6.63272 -16.7334 L 6.67696 -16.7158 L 6.72116 -16.6981 L 6.76531 -16.6802 L 6.80941 -16.6623 L 6.85347 -16.6442 L 6.89748 -16.626 L 6.94144 -16.6077 L 6.98535 -16.5893 L 7.02921 -16.5708 L 7.07303 -16.5521 L 7.11679 -16.5333 L 7.1605 -16.5145 L 7.20417 -16.4955 L 7.24778 -16.4763 L 7.29134 -16.4571 L 7.33486 -16.4378 L 7.37832 -16.4183 L 7.42172 -16.3987 L 7.46508 -16.379 L 7.50839 -16.3592 L 7.55164 -16.3393 L 7.59484 -16.3193 L 7.63798 -16.2991 L 7.68108 -16.2789 L 7.72412 -16.2585 L 7.7671 -16.238 L 7.81003 -16.2174 L 7.85291 -16.1967 L 7.89573 -16.1758 L 7.93849 -16.1549 L 8.10787 -16.0705 L 8.15035 -16.049 L 8.19278 -16.0274 L 8.23515 -16.0057 L 8.27747 -15.9839 L 8.31972 -15.9619 L 8.36192 -15.9398 L 8.40406 -15.9177 L 8.44614 -15.8954 L 8.48816 -15.873 L 8.53013 -15.8505 L 8.57203 -15.8278 L 8.61387 -15.8051 L 8.65565 -15.7823 L 8.69738 -15.7593 L 8.73904 -15.7362 L 8.78064 -15.7131 L 8.82217 -15.6898 L 8.86365 -15.6664 L 8.90507 -15.6429 L 8.94642 -15.6193 L 8.98771 -15.5955 L 9.02893 -15.5717 L 9.0701 -15.5478 L 9.1112 -15.5237 L 9.15223 -15.4996 L 9.1932 -15.4753 L 9.23411 -15.4509 L 9.27496 -15.4264 L 9.31573 -15.4019 L 9.35645 -15.3772 L 9.39709 -15.3523 L 9.39537 -15.2976 L 9.40235 -15.2373 L 9.4093 -15.177 L 9.41621 -15.1167 L 9.42307 -15.0563 L 9.42989 -14.9958 L 9.43667 -14.9352 L 9.4434 -14.8746 L 9.45009 -14.8139 L 9.45673 -14.7531 L 9.46333 -14.6923 L 9.46988 -14.6314 L 9.47639 -14.5704 L 9.48285 -14.5093 L 9.48926 -14.4482 L 9.49562 -14.387 L 9.50194 -14.3257 L 9.5082 -14.2643 L 9.51442 -14.2029 L 9.52058 -14.1414 L 9.5267 -14.0798 L 9.53276 -14.0182 L 9.53877 -13.9565 L 9.54473 -13.8947 L 9.55063 -13.8328 L 9.55648 -13.7708 L 9.56228 -13.7088 L 9.56802 -13.6466 L 9.5737 -13.5844 L 9.57933 -13.5222 L 9.58489 -13.4598 L 9.59041 -13.3973 L 9.59586 -13.3348 L 9.60125 -13.2722 L 9.60658 -13.2095 L 9.61185 -13.1467 L 9.61706 -13.0839 L 9.62221 -13.0209 L 9.62729 -12.9579 L 9.63231 -12.8948 L 9.63727 -12.8316 L 9.64215 -12.7683 L 9.64215 -12.7683 L 9.70437 -12.7809 L 9.76652 -12.7934 L 9.8286 -12.8059 L 9.89062 -12.8182 L 9.95257 -12.8305 L 10.0145 -12.8427 L 10.0763 -12.8548 L 10.138 -12.8668 L 10.1997 -12.8788 L 10.2614 -12.8907 L 10.3229 -12.9024 L 10.3845 -12.9142 L 10.4459 -12.9258 L 10.5073 -12.9373 L 10.5686 -12.9488 L 10.6299 -12.9602 L 10.6911 -12.9716 L 10.7522 -12.9828 L 10.8133 -12.994 L 10.8743 -13.0051 L 10.9353 -13.0162 L 10.9962 -13.0271 L 11.057 -13.038 L 11.1178 -13.0489 L 11.1785 -13.0596 L 11.2392 -13.0703 L 11.2998 -13.0809 L 11.3603 -13.0915 L 11.4208 -13.102 L 11.4813 -13.1124 L 11.5416 -13.1228 L 11.602 -13.1331 L 11.6622 -13.1433 L 11.7224 -13.1535 L 11.7826 -13.1636 L 11.8427 -13.1737 L 11.9028 -13.1837 L 11.9627 -13.1936 L 12.0227 -13.2035 L 12.0826 -13.2133 L 12.1424 -13.2231 L 12.1946 -13.2397 L 12.2296 -13.2074 L 12.2645 -13.175 L 12.2993 -13.1425 L 12.3341 -13.11 L 12.3687 -13.0773 L 12.4033 -13.0445 L 12.4377 -13.0117 L 12.4721 -12.9787 L 12.5064 -12.9457 L 12.5406 -12.9125 L 12.5747 -12.8793 L 12.6087 -12.846 L 12.6427 -12.8126 L 12.6765 -12.7791 L 12.7103 -12.7455 L 12.744 -12.7119 L 12.7776 -12.6781 L 12.811 -12.6443 L 12.8445 -12.6103 L 12.8778 -12.5763 L 12.911 -12.5422 L 12.9441 -12.508 L 12.9772 -12.4737 L 13.0101 -12.4393 L 13.043 -12.4049 L 13.0758 -12.3703 L 13.1084 -12.3357 L 13.141 -12.3009 L 13.1735 -12.2661 L 13.2059 -12.2312 L 13.2382 -12.1963 L 13.3657 -12.0564 L 13.3976 -12.021 L 13.4293 -11.9856 L 13.461 -11.95 L 13.4925 -11.9143 L 13.524 -11.8786 L 13.5554 -11.8428 L 13.5867 -11.8069 L 13.6179 -11.7709 L 13.649 -11.7348 L 13.68 -11.6987 L 13.7109 -11.6624 L 13.7417 -11.6261 L 13.7724 -11.5897 L 13.803 -11.5533 L 13.8335 -11.5167 L 13.8639 -11.4801 L 13.8942 -11.4433 L 13.9245 -11.4066 L 13.9546 -11.3697 L 13.9846 -11.3327 L 14.0145 -11.2957 L 14.0444 -11.2586 L 14.0741 -11.2214 L 14.1038 -11.1841 L 14.1333 -11.1467 L 14.1627 -11.1093 L 14.1921 -11.0718 L 14.2213 -11.0342 L 14.2505 -10.9966 L 14.2795 -10.9588 L 14.3084 -10.921 L 14.287 -10.8705 L 14.2718 -10.8119 L 14.2565 -10.7531 L 14.2411 -10.6944 L 14.2257 -10.6355 L 14.2102 -10.5767 L 14.1946 -10.5177 L 14.179 -10.4588 L 14.1633 -10.3998 L 14.1476 -10.3407 L 14.1318 -10.2816 L 14.1159 -10.2224 L 14.0999 -10.1632 L 14.0839 -10.1039 L 14.0678 -10.0446 L 14.0516 -9.98524 L 14.0353 -9.92582 L 14.019 -9.86635 L 14.0026 -9.80683 L 13.9861 -9.74725 L 13.9696 -9.68763 L 13.953 -9.62795 L 13.9363 -9.56821 L 13.9195 -9.50843 L 13.9027 -9.44859 L 13.8857 -9.3887 L 13.8687 -9.32875 L 13.8516 -9.26875 L 13.8345 -9.20869 L 13.8172 -9.14859 L 13.7999 -9.08842 L 13.7825 -9.0282 L 13.765 -8.96793 L 13.7474 -8.9076 L 13.7297 -8.84721 L 13.7119 -8.78677 L 13.6941 -8.72627 L 13.6761 -8.66571 L 13.6581 -8.6051 L 13.64 -8.54443 L 13.6218 -8.4837 L 13.6035 -8.42291 L 13.6035 -8.42291 L 13.666 -8.41221 L 13.7285 -8.40144 L 13.7909 -8.39062 L 13.8532 -8.37974 L 13.9154 -8.36881 L 13.9775 -8.35782 L 14.0396 -8.34678 L 14.1015 -8.33569 L 14.1633 -8.32454 L 14.2251 -8.31334 L 14.2868 -8.30209 L 14.3483 -8.29079 L 14.4098 -8.27945 L 14.4713 -8.26805 L 14.5326 -8.2566 L 14.5938 -8.2451 L 14.655 -8.23356 L 14.7161 -8.22197 L 14.7771 -8.21034 L 14.838 -8.19866 L 14.8988 -8.18693 L 14.9595 -8.17516 L 15.0202 -8.16335 L 15.0808 -8.15149 L 15.1413 -8.13959 L 15.2017 -8.12765 L 15.2621 -8.11567 L 15.3224 -8.10364 L 15.3826 -8.09158 L 15.4427 -8.07947 L 15.5028 -8.06733 L 15.5627 -8.05515 L 15.6226 -8.04292 L 15.6825 -8.03066 L 15.7422 -8.01836 L 15.8019 -8.00603 L 15.8615 -7.99366 L 15.921 -7.98125 L 15.9805 -7.9688 L 16.0399 -7.95632 L 16.0992 -7.94381 L 16.1539 -7.94047 L 16.1749 -7.89771 L 16.1957 -7.85489 L 16.2164 -7.81202 L 16.237 -7.76909 L 16.2575 -7.72611 L 16.2779 -7.68307 L 16.2982 -7.63998 L 16.3183 -7.59684 L 16.3384 -7.55364 L 16.3583 -7.51039 L 16.3781 -7.46709 L 16.3978 -7.42373 L 16.4174 -7.38033 L 16.4369 -7.33687 L 16.4562 -7.29336 L 16.4754 -7.2498 L 16.4946 -7.20619 L 16.5136 -7.16253 L 16.5325 -7.11882 L 16.5512 -7.07505 L 16.5699 -7.03124 L 16.5884 -6.98738 L 16.6069 -6.94347 L 16.6252 -6.89952 L 16.6434 -6.85551 L 16.6615 -6.81146 L 16.6794 -6.76735 L 16.6973 -6.72321 L 16.715 -6.67901 L 16.7326 -6.63477 L 16.7501 -6.59048 L 16.8184 -6.41404 L 16.8354 -6.36953 L 16.8521 -6.32497 L 16.8688 -6.28036 L 16.8854 -6.23571 L 16.9018 -6.19102 L 16.9181 -6.14629 L 16.9343 -6.10151 L 16.9504 -6.05669 L 16.9664 -6.01182 L 16.9822 -5.96692 L 16.9979 -5.92197 L 17.0136 -5.87698 L 17.029 -5.83195 L 17.0444 -5.78688 L 17.0597 -5.74177 L 17.0748 -5.69662 L 17.0898 -5.65143 L 17.1047 -5.6062 L 17.1195 -5.56093 L 17.1341 -5.51562 L 17.1486 -5.47027 L 17.1631 -5.42488 L 17.1774 -5.37946 L 17.1915 -5.334 L 17.2056 -5.2885 L 17.2195 -5.24296 L 17.2333 -5.19739 L 17.247 -5.15178 L 17.2606 -5.10614 L 17.274 -5.06046 L 17.2873 -5.01474 L 17.2492 -4.97541 L 17.2137 -4.9262 L 17.1783 -4.87696 L 17.1427 -4.82771 L 17.1071 -4.77843 L 17.0714 -4.72913 L 17.0356 -4.67981 L 16.9997 -4.63047 L 16.9637 -4.5811 L 16.9277 -4.53172 L 16.8916 -4.48231 L 16.8554 -4.43288 L 16.8191 -4.38343 L 16.7828 -4.33396 L 16.7463 -4.28446 L 16.7098 -4.23494 L 16.6732 -4.18541 L 16.6365 -4.13585 L 16.5997 -4.08627 L 16.5628 -4.03666 L 16.5258 -3.98704 L 16.4888 -3.93739 L 16.4516 -3.88772 L 16.4144 -3.83803 L 16.3771 -3.78832 L 16.3397 -3.73859 L 16.3021 -3.68884 L 16.2645 -3.63906 L 16.2268 -3.58926 L 16.189 -3.53945 L 16.1511 -3.48961 L 16.1131 -3.43975 L 16.075 -3.38986 L 16.0368 -3.33996 L 15.9985 -3.29004 L 15.9601 -3.24009 L 15.9216 -3.19013 L 15.883 -3.14014 L 15.8443 -3.09014 L 15.8055 -3.04011 L 15.7666 -2.99006 L 15.7276 -2.93999 L 15.7276 -2.93999 L 15.782 -2.9074 L 15.8364 -2.8748 L 15.8907 -2.84217 L 15.9448 -2.80952 L 15.9989 -2.77686 L 16.0529 -2.74417 L 16.1067 -2.71147 L 16.1604 -2.67875 L 16.2141 -2.64602 L 16.2676 -2.61327 L 16.3211 -2.5805 L 16.3744 -2.54772 L 16.4277 -2.51492 L 16.4808 -2.4821 L 16.5339 -2.44928 L 16.5868 -2.41643 L 16.6397 -2.38358 L 16.6924 -2.35071 L 16.7451 -2.31783 L 16.7977 -2.28493 L 16.8502 -2.25202 L 16.9026 -2.2191 L 16.9549 -2.18617 L 17.0071 -2.15323 L 17.0592 -2.12027 L 17.1113 -2.0873 L 17.1632 -2.05433 L 17.2151 -2.02134 L 17.2668 -1.98834 L 17.3185 -1.95534 L 17.3701 -1.92232 L 17.4217 -1.88929 L 17.4731 -1.85626 L 17.5245 -1.82321 L 17.5757 -1.79016 L 17.6269 -1.7571 L 17.678 -1.72403 L 17.7291 -1.69096 L 17.78 -1.65787 L 17.8309 -1.62478 L 17.8817 -1.59168 L 17.9315 -1.5688 L 17.9356 -1.52136 L 17.9396 -1.47391 L 17.9434 -1.42644 L 17.9471 -1.37897 L 17.9507 -1.33148 L 17.9541 -1.28399 L 17.9575 -1.23649 L 17.9607 -1.18898 L 17.9638 -1.14146 L 17.9667 -1.09393 L 17.9696 -1.0464 L 17.9723 -0.998854 L 17.9748 -0.951305 L 17.9773 -0.90375 L 17.9796 -0.856187 L 17.9818 -0.808619 L 17.9839 -0.761046 L 17.9859 -0.713467 L 17.9877 -0.665882 L 17.9894 -0.618294 L 17.991 -0.570701 L 17.9924 -0.523104 L 17.9937 -0.475503 L 17.9949 -0.427899 L 17.996 -0.380292 L 17.9969 -0.332682 L 17.9977 -0.28507 L 17.9984 -0.237456 L 17.999 -0.18984 L 17.9994 -0.142223 L 17.9998 -0.0946054Z"
id="path1" />
</g>
</svg>
