<?xml version="1.0" encoding="UTF-8" standalone="no"?>
<svg version="1.1">
<g
style="fill:none;stroke:#000000;stroke-opacity:1;stroke-width:0.1">
<path d="M 18.2498 0.0821122 L 18.2495 0.128623 L 18.2492 0.175133 L 18.2487 0.221642 L 18.248 0.268149 L 18.2473 0.314655 L 18.2464 0.361159 L 18.2454 0.40766 L 18.2443 0.454159 L 18.2431 0.500654 L 18.2418 0.547147 L 18.2403 0.593636 L 18.2388 0.640121 L 18.2371 0.686602 L 18.2353 0.733078 L 18.2333 0.77955 L 18.2313 0.826016 L 18.2291 0.872477 L 18.2269 0.918933 L 18.2244 0.965383 L 18.2219 1.01183 L 18.2193 1.05826 L 18.2165 1.10469 L 18.2137 1.15112 L 18.2107 1.19753 L 18.2076 1.24394 L 18.2043 1.29034 L 18.201 1.33673 L 18.1975 1.38311 L 18.1939 1.42948 L 18.1902 1.47585 L 18.1864 1.5222 L 18.1825 1.56855 L 18.1784 1.61488 L 18.1297 1.63699 L 18.0801 1.66931 L 18.0303 1.70163 L 17.9805 1.73394 L 17.9307 1.76624 L 17.8807 1.79854 L 17.8307 1.83083 L 17.7806 1.86311 L 17.7304 1.89538 L 17.6801 1.92765 L 17.6298 1.9599 L 17.5793 1.99215 L 17.5288 2.02439 L 17.4783 2.05662 L 17.4276 2.08884 L 17.3768 2.12105 L 17.326 2.15324 L 17.2751 2.18543 L 17.2241 2.21761 L 17.173 2.24978 L 17.1219 2.28194 L 17.0706 2.31408 L 17.0193 2.34621 L 16.9678 2.37833 L 16.9163 2.41044 L 16.8647 2.44254 L 16.813 2.47462 L 16.7613 2.50669 L 16.7094 2.53875 L 16.6574 2.57079 L 16.6054 2.60282 L 16.5532 2.63484 L 16.501 2.66683 L 16.4487 2.69882 L 16.3962 2.73079 L 16.3437 2.76274 L 16.2911 2.79468 L 16.2384 2.8266 L 16.1856 2.8585 L 16.1327 2.89038 L 16.0796 2.92225 L 16.0265 2.9541 L 15.9733 2.98593 L 15.9733 2.98593 L 16.0114 3.03483 L 16.0495 3.08372 L 16.0874 3.13258 L 16.1252 3.18143 L 16.1629 3.23026 L 16.2006 3.27907 L 16.2381 3.32785 L 16.2755 3.37662 L 16.3129 3.42537 L 16.3501 3.4741 L 16.3873 3.52281 L 16.4243 3.5715 L 16.4613 3.62017 L 16.4982 3.66882 L 16.5349 3.71745 L 16.5716 3.76606 L 16.6082 3.81465 L 16.6448 3.86321 L 16.6812 3.91176 L 16.7176 3.96029 L 16.7538 4.0088 L 16.79 4.05729 L 16.8261 4.10576 L 16.8621 4.1542 L 16.898 4.20263 L 16.9339 4.25104 L 16.9696 4.29942 L 17.0053 4.34779 L 17.0409 4.39614 L 17.0764 4.44446 L 17.1119 4.49277 L 17.1473 4.54105 L 17.1826 4.58931 L 17.2178 4.63756 L 17.2529 4.68578 L 17.288 4.73398 L 17.323 4.78217 L 17.3579 4.83033 L 17.3927 4.87847 L 17.4275 4.92659 L 17.4622 4.97469 L 17.4968 5.02277 L 17.5342 5.06097 L 17.5213 5.10564 L 17.5082 5.15028 L 17.495 5.19488 L 17.4817 5.23945 L 17.4683 5.28399 L 17.4548 5.32849 L 17.4412 5.37296 L 17.4274 5.41739 L 17.4135 5.46179 L 17.3996 5.50615 L 17.3855 5.55048 L 17.3713 5.59477 L 17.357 5.63902 L 17.3425 5.68324 L 17.328 5.72742 L 17.3133 5.77156 L 17.2986 5.81567 L 17.2837 5.85973 L 17.2687 5.90376 L 17.2536 5.94776 L 17.2384 5.99171 L 17.2231 6.03562 L 17.2076 6.0795 L 17.1921 6.12333 L 17.1764 6.16713 L 17.1606 6.21088 L 17.1448 6.2546 L 17.1288 6.29827 L 17.1126 6.34191 L 17.0964 6.3855 L 17.0801 6.42905 L 17.0637 6.47256 L 17.0471 6.51603 L 16.9878 6.66916 L 16.9707 6.71243 L 16.9536 6.75566 L 16.9363 6.79885 L 16.9189 6.84199 L 16.9014 6.88509 L 16.8838 6.92814 L 16.8661 6.97115 L 16.8483 7.01411 L 16.8304 7.05703 L 16.8123 7.0999 L 16.7942 7.14272 L 16.7759 7.1855 L 16.7575 7.22823 L 16.7391 7.27091 L 16.7205 7.31355 L 16.7018 7.35614 L 16.683 7.39868 L 16.6641 7.44118 L 16.6451 7.48362 L 16.6259 7.52602 L 16.6067 7.56837 L 16.5874 7.61067 L 16.5679 7.65292 L 16.5483 7.69512 L 16.5287 7.73727 L 16.5089 7.77937 L 16.489 7.82141 L 16.469 7.86341 L 16.4489 7.90536 L 16.4287 7.94726 L 16.4084 7.9891 L 16.388 8.03089 L 16.3675 8.07263 L 16.3141 8.07566 L 16.2561 8.08786 L 16.1981 8.10003 L 16.14 8.11217 L 16.0818 8.12428 L 16.0236 8.13634 L 15.9652 8.14838 L 15.9068 8.16038 L 15.8484 8.17234 L 15.7899 8.18427 L 15.7313 8.19616 L 15.6726 8.20802 L 15.6139 8.21983 L 15.5551 8.23161 L 15.4962 8.24335 L 15.4372 8.25506 L 15.3782 8.26672 L 15.3191 8.27834 L 15.2599 8.28993 L 15.2007 8.30147 L 15.1413 8.31297 L 15.0819 8.32443 L 15.0224 8.33585 L 14.9629 8.34723 L 14.9033 8.35856 L 14.8436 8.36985 L 14.7838 8.38109 L 14.7239 8.39229 L 14.6639 8.40345 L 14.6039 8.41455 L 14.5438 8.42562 L 14.4836 8.43663 L 14.4234 8.4476 L 14.363 8.45852 L 14.3026 8.46939 L 14.242 8.48021 L 14.1814 8.49098 L 14.1208 8.5017 L 14.06 8.51237 L 13.9991 8.52299 L 13.9382 8.53355 L 13.8771 8.54407 L 13.816 8.55452 L 13.816 8.55452 L 13.8339 8.6139 L 13.8517 8.67322 L 13.8694 8.73248 L 13.887 8.79169 L 13.9046 8.85085 L 13.922 8.90995 L 13.9394 8.969 L 13.9567 9.028 L 13.9739 9.08695 L 13.991 9.14584 L 14.0081 9.20468 L 14.025 9.26347 L 14.0419 9.32221 L 14.0587 9.38089 L 14.0755 9.43953 L 14.0921 9.49811 L 14.1087 9.55664 L 14.1252 9.61512 L 14.1417 9.67356 L 14.158 9.73194 L 14.1743 9.79027 L 14.1905 9.84855 L 14.2067 9.90679 L 14.2228 9.96497 L 14.2388 10.0231 L 14.2547 10.0812 L 14.2706 10.1392 L 14.2864 10.1972 L 14.3021 10.2552 L 14.3178 10.3131 L 14.3334 10.3709 L 14.3489 10.4287 L 14.3644 10.4865 L 14.3798 10.5442 L 14.3952 10.6018 L 14.4104 10.6594 L 14.4257 10.717 L 14.4408 10.7745 L 14.4559 10.832 L 14.471 10.8894 L 14.4859 10.9468 L 14.5009 11.0042 L 14.5219 11.0533 L 14.4937 11.0903 L 14.4654 11.1272 L 14.437 11.164 L 14.4085 11.2008 L 14.3799 11.2375 L 14.3512 11.2741 L 14.3225 11.3106 L 14.2936 11.3471 L 14.2646 11.3835 L 14.2356 11.4198 L 14.2064 11.456 L 14.1772 11.4922 L 14.1478 11.5283 L 14.1184 11.5643 L 14.0889 11.6002 L 14.0593 11.6361 L 14.0296 11.6719 L 13.9998 11.7076 L 13.9699 11.7433 L 13.9399 11.7788 L 13.9099 11.8143 L 13.8797 11.8497 L 13.8495 11.8851 L 13.8191 11.9203 L 13.7887 11.9555 L 13.7582 11.9906 L 13.7276 12.0256 L 13.6969 12.0606 L 13.6661 12.0955 L 13.6352 12.1302 L 13.6043 12.165 L 13.5732 12.1996 L 13.5421 12.2341 L 13.4315 12.3555 L 13.3999 12.3897 L 13.3683 12.4238 L 13.3366 12.4578 L 13.3048 12.4918 L 13.2729 12.5257 L 13.241 12.5594 L 13.2089 12.5931 L 13.1768 12.6268 L 13.1445 12.6603 L 13.1122 12.6938 L 13.0798 12.7271 L 13.0474 12.7604 L 13.0148 12.7936 L 12.9822 12.8268 L 12.9494 12.8598 L 12.9166 12.8928 L 12.8837 12.9257 L 12.8507 12.9584 L 12.8177 12.9912 L 12.7845 13.0238 L 12.7513 13.0563 L 12.718 13.0888 L 12.6846 13.1211 L 12.6511 13.1534 L 12.6175 13.1856 L 12.5839 13.2177 L 12.5501 13.2498 L 12.5163 13.2817 L 12.4824 13.3136 L 12.4485 13.3453 L 12.4144 13.377 L 12.3803 13.4086 L 12.3461 13.4401 L 12.2952 13.4237 L 12.2367 13.4141 L 12.1782 13.4045 L 12.1196 13.3948 L 12.061 13.3851 L 12.0023 13.3753 L 11.9436 13.3654 L 11.8848 13.3555 L 11.826 13.3456 L 11.7671 13.3356 L 11.7082 13.3255 L 11.6492 13.3153 L 11.5901 13.3051 L 11.5311 13.2949 L 11.4719 13.2846 L 11.4127 13.2742 L 11.3534 13.2637 L 11.2941 13.2532 L 11.2348 13.2426 L 11.1754 13.232 L 11.1159 13.2213 L 11.0563 13.2105 L 10.9968 13.1997 L 10.9371 13.1888 L 10.8774 13.1778 L 10.8177 13.1668 L 10.7578 13.1556 L 10.698 13.1445 L 10.6381 13.1332 L 10.5781 13.1219 L 10.518 13.1105 L 10.4579 13.099 L 10.3978 13.0875 L 10.3375 13.0758 L 10.2773 13.0642 L 10.2169 13.0524 L 10.1565 13.0405 L 10.096 13.0286 L 10.0355 13.0166 L 9.97494 13.0045 L 9.91429 12.9924 L 9.85358 12.9801 L 9.79281 12.9678 L 9.79281 12.9678 L 9.78804 13.0296 L 9.7832 13.0913 L 9.77831 13.153 L 9.77335 13.2146 L 9.76833 13.2761 L 9.76326 13.3375 L 9.75813 13.3988 L 9.75293 13.4601 L 9.74769 13.5213 L 9.74238 13.5824 L 9.73702 13.6434 L 9.73161 13.7044 L 9.72614 13.7652 L 9.72062 13.826 L 9.71504 13.8867 L 9.70941 13.9474 L 9.70373 14.008 L 9.698 14.0685 L 9.69222 14.1289 L 9.68639 14.1892 L 9.68051 14.2495 L 9.67458 14.3097 L 9.6686 14.3699 L 9.66257 14.4299 L 9.6565 14.4899 L 9.65037 14.5498 L 9.64421 14.6097 L 9.63799 14.6695 L 9.63174 14.7292 L 9.62543 14.7888 L 9.61909 14.8484 L 9.6127 14.9079 L 9.60626 14.9674 L 9.59979 15.0267 L 9.59327 15.086 L 9.58671 15.1453 L 9.5801 15.2045 L 9.57346 15.2636 L 9.56678 15.3226 L 9.56005 15.3816 L 9.55329 15.4405 L 9.54649 15.4994 L 9.5484 15.5528 L 9.50873 15.5771 L 9.469 15.6013 L 9.42921 15.6254 L 9.38935 15.6494 L 9.34944 15.6732 L 9.30946 15.697 L 9.26943 15.7207 L 9.22933 15.7443 L 9.18918 15.7677 L 9.14896 15.7911 L 9.10869 15.8144 L 9.06835 15.8375 L 9.02796 15.8606 L 8.98751 15.8835 L 8.947 15.9064 L 8.90643 15.9292 L 8.86581 15.9518 L 8.82512 15.9743 L 8.78438 15.9968 L 8.74359 16.0191 L 8.70273 16.0414 L 8.66182 16.0635 L 8.62085 16.0855 L 8.57983 16.1074 L 8.53875 16.1292 L 8.49762 16.1509 L 8.45643 16.1725 L 8.41518 16.194 L 8.37388 16.2154 L 8.33253 16.2367 L 8.29112 16.2579 L 8.24966 16.279 L 8.20815 16.3 L 8.06114 16.3732 L 8.01938 16.3937 L 7.97758 16.414 L 7.93572 16.4343 L 7.89381 16.4545 L 7.85185 16.4746 L 7.80984 16.4945 L 7.76777 16.5144 L 7.72566 16.5341 L 7.6835 16.5537 L 7.64128 16.5733 L 7.59902 16.5927 L 7.55671 16.612 L 7.51435 16.6312 L 7.47194 16.6503 L 7.42948 16.6693 L 7.38697 16.6882 L 7.34441 16.7069 L 7.30181 16.7256 L 7.25916 16.7442 L 7.21646 16.7626 L 7.17372 16.7809 L 7.13093 16.7992 L 7.08809 16.8173 L 7.04521 16.8353 L 7.00228 16.8532 L 6.9593 16.871 L 6.91628 16.8887 L 6.87322 16.9063 L 6.83011 16.9237 L 6.78696 16.9411 L 6.74376 16.9583 L 6.70052 16.9754 L 6.65723 16.9925 L 6.61575 16.9587 L 6.56468 16.9287 L 6.51358 16.8986 L 6.46246 16.8684 L 6.41131 16.8382 L 6.36013 16.8078 L 6.30892 16.7774 L 6.25769 16.747 L 6.20643 16.7164 L 6.15514 16.6858 L 6.10383 16.6551 L 6.05249 16.6244 L 6.00112 16.5935 L 5.94972 16.5626 L 5.8983 16.5316 L 5.84684 16.5005 L 5.79536 16.4694 L 5.74386 16.4382 L 5.69232 16.4069 L 5.64076 16.3755 L 5.58917 16.344 L 5.53755 16.3125 L 5.4859 16.2808 L 5.43422 16.2491 L 5.38252 16.2173 L 5.33079 16.1854 L 5.27903 16.1535 L 5.22724 16.1214 L 5.17542 16.0893 L 5.12358 16.057 L 5.07171 16.0247 L 5.01981 15.9923 L 4.96788 15.9598 L 4.91592 15.9272 L 4.86393 15.8945 L 4.81192 15.8618 L 4.75988 15.8289 L 4.70781 15.7959 L 4.65571 15.7629 L 4.60358 15.7297 L 4.55142 15.6965 L 4.49924 15.6631 L 4.44702 15.6297 L 4.44702 15.6297 L 4.42024 15.6856 L 4.39343 15.7414 L 4.36659 15.7971 L 4.33972 15.8528 L 4.31283 15.9083 L 4.28591 15.9637 L 4.25896 16.0191 L 4.23199 16.0743 L 4.205 16.1295 L 4.17798 16.1845 L 4.15094 16.2395 L 4.12387 16.2944 L 4.09678 16.3492 L 4.06967 16.4039 L 4.04254 16.4585 L 4.01538 16.513 L 3.9882 16.5674 L 3.961 16.6218 L 3.93378 16.676 L 3.90655 16.7302 L 3.87929 16.7843 L 3.85201 16.8383 L 3.82471 16.8922 L 3.79739 16.946 L 3.77006 16.9998 L 3.7427 17.0534 L 3.71533 17.107 L 3.68794 17.1605 L 3.66053 17.2139 L 3.63311 17.2673 L 3.60567 17.3205 L 3.57821 17.3737 L 3.55074 17.4268 L 3.52325 17.4799 L 3.49575 17.5328 L 3.46823 17.5857 L 3.44069 17.6385 L 3.41314 17.6912 L 3.38558 17.7439 L 3.358 17.7964 L 3.33041 17.8489 L 3.3028 17.9014 L 3.28528 17.9519 L 3.23952 17.9602 L 3.19374 17.9684 L 3.14793 17.9765 L 3.10211 17.9844 L 3.05627 17.9923 L 3.0104 18 L 2.96452 18.0076 L 2.91861 18.0151 L 2.87269 18.0225 L 2.82675 18.0298 L 2.78079 18.0369 L 2.73481 18.0439 L 2.68882 18.0508 L 2.6428 18.0576 L 2.59677 18.0643 L 2.55073 18.0709 L 2.50466 18.0773 L 2.45858 18.0836 L 2.41249 18.0898 L 2.36638 18.0959 L 2.32025 18.1019 L 2.27411 18.1078 L 2.22795 18.1135 L 2.18178 18.1191 L 2.1356 18.1246 L 2.0894 18.13 L 2.04319 18.1353 L 1.99696 18.1404 L 1.95072 18.1454 L 1.90447 18.1504 L 1.85821 18.1552 L 1.81193 18.1598 L 1.76564 18.1644 L 1.60212 18.1795 L 1.55578 18.1836 L 1.50943 18.1875 L 1.46308 18.1913 L 1.41671 18.1949 L 1.37033 18.1985 L 1.32395 18.2019 L 1.27756 18.2052 L 1.23115 18.2084 L 1.18475 18.2115 L 1.13833 18.2145 L 1.0919 18.2173 L 1.04547 18.22 L 0.999033 18.2226 L 0.952588 18.2251 L 0.906136 18.2275 L 0.859679 18.2297 L 0.813217 18.2319 L 0.766749 18.2339 L 0.720276 18.2358 L 0.673798 18.2376 L 0.627316 18.2392 L 0.58083 18.2408 L 0.53434 18.2422 L 0.487846 18.2435 L 0.44135 18.2447 L 0.39485 18.2457 L 0.348348 18.2467 L 0.301844 18.2475 L 0.255338 18.2482 L 0.20883 18.2488 L 0.162321 18.2493 L 0.115811 18.2496 L 0.0692997 18.2499 L 0.0427975 18.2034 L 0.00602867 18.157 L -0.0307402 18.1104 L -0.067509 18.0638 L -0.104277 18.0171 L -0.141046 17.9704 L -0.177813 17.9235 L -0.21458 17.8766 L -0.251345 17.8296 L -0.28811 17.7825 L -0.324873 17.7354 L -0.361635 17.6882 L -0.398395 17.6409 L -0.435154 17.5935 L -0.47191 17.546 L -0.508664 17.4984 L -0.545416 17.4508 L -0.582165 17.4031 L -0.618912 17.3552 L -0.655655 17.3074 L -0.692395 17.2594 L -0.729132 17.2113 L -0.765864 17.1632 L -0.802593 17.1149 L -0.839318 17.0666 L -0.876039 17.0182 L -0.912755 16.9697 L -0.949466 16.9211 L -0.986171 16.8724 L -1.02287 16.8236 L -1.05957 16.7747 L -1.09626 16.7257 L -1.13294 16.6767 L -1.16961 16.6275 L -1.20628 16.5783 L -1.24295 16.5289 L -1.2796 16.4795 L -1.31625 16.4299 L -1.35289 16.3803 L -1.38952 16.3305 L -1.42614 16.2807 L -1.46276 16.2307 L -1.49936 16.1807 L -1.49936 16.1807 L -1.54454 16.2232 L -1.58971 16.2655 L -1.63487 16.3078 L -1.68001 16.35 L -1.72515 16.392 L -1.77028 16.434 L -1.8154 16.4759 L -1.8605 16.5176 L -1.9056 16.5593 L -1.95068 16.6009 L -1.99576 16.6424 L -2.04082 16.6838 L -2.08587 16.7251 L -2.13091 16.7663 L -2.17594 16.8074 L -2.22095 16.8484 L -2.26596 16.8894 L -2.31095 16.9302 L -2.35593 16.971 L -2.4009 17.0116 L -2.44585 17.0522 L -2.4908 17.0927 L -2.53573 17.1331 L -2.58064 17.1735 L -2.62555 17.2137 L -2.67044 17.2539 L -2.71532 17.2939 L -2.76019 17.3339 L -2.80504 17.3739 L -2.84989 17.4137 L -2.89471 17.4534 L -2.93953 17.4931 L -2.98433 17.5327 L -3.02912 17.5722 L -3.07389 17.6117 L -3.11866 17.651 L -3.1634 17.6903 L -3.20814 17.7295 L -3.25286 17.7687 L -3.29757 17.8077 L -3.34226 17.8467 L -3.38694 17.8856 L -3.42152 17.9264 L -3.4672 17.9176 L -3.51285 17.9087 L -3.55848 17.8997 L -3.60409 17.8906 L -3.64967 17.8813 L -3.69523 17.872 L -3.74077 17.8625 L -3.78628 17.8529 L -3.83177 17.8432 L -3.87723 17.8334 L -3.92267 17.8234 L -3.96808 17.8134 L -4.01347 17.8032 L -4.05883 17.7929 L -4.10416 17.7825 L -4.14947 17.772 L -4.19475 17.7614 L -4.24 17.7506 L -4.28523 17.7398 L -4.33042 17.7288 L -4.37559 17.7177 L -4.42073 17.7065 L -4.46584 17.6952 L -4.51093 17.6837 L -4.55598 17.6722 L -4.60101 17.6605 L -4.646 17.6487 L -4.69096 17.6368 L -4.7359 17.6248 L -4.7808 17.6127 L -4.82567 17.6004 L -4.87051 17.5881 L -4.91532 17.5756 L -5.07328 17.5307 L -5.11794 17.5177 L -5.16257 17.5046 L -5.20716 17.4914 L -5.25172 17.478 L -5.29625 17.4646 L -5.34074 17.451 L -5.3852 17.4374 L -5.42962 17.4236 L -5.47401 17.4097 L -5.51836 17.3957 L -5.56268 17.3816 L -5.60696 17.3673 L -5.6512 17.353 L -5.69541 17.3385 L -5.73958 17.324 L -5.78371 17.3093 L -5.82781 17.2945 L -5.87187 17.2796 L -5.91589 17.2646 L -5.95987 17.2494 L -6.00381 17.2342 L -6.04771 17.2188 L -6.09158 17.2033 L -6.1354 17.1878 L -6.17919 17.1721 L -6.22293 17.1563 L -6.26663 17.1404 L -6.3103 17.1243 L -6.35392 17.1082 L -6.3975 17.0919 L -6.44104 17.0756 L -6.48454 17.0591 L -6.52799 17.0425 L -6.53593 16.9897 L -6.55343 16.9331 L -6.57091 16.8764 L -6.58836 16.8196 L -6.60578 16.7628 L -6.62317 16.7059 L -6.64053 16.649 L -6.65787 16.5919 L -6.67518 16.5348 L -6.69245 16.4777 L -6.7097 16.4204 L -6.72692 16.3631 L -6.7441 16.3057 L -6.76126 16.2482 L -6.77838 16.1907 L -6.79547 16.133 L -6.81253 16.0753 L -6.82956 16.0176 L -6.84656 15.9597 L -6.86352 15.9018 L -6.88044 15.8438 L -6.89734 15.7857 L -6.91419 15.7275 L -6.93102 15.6693 L -6.9478 15.6109 L -6.96455 15.5525 L -6.98127 15.494 L -6.99794 15.4354 L -7.01458 15.3768 L -7.03118 15.318 L -7.04774 15.2592 L -7.06426 15.2003 L -7.08074 15.1413 L -7.09719 15.0822 L -7.11359 15.023 L -7.12995 14.9637 L -7.14626 14.9044 L -7.16254 14.845 L -7.17877 14.7854 L -7.19496 14.7258 L -7.2111 14.6661 L -7.2272 14.6063 L -7.24325 14.5464 L -7.24325 14.5464 L -7.30072 14.5697 L -7.35814 14.5929 L -7.41552 14.616 L -7.47285 14.639 L -7.53014 14.6619 L -7.58738 14.6847 L -7.64458 14.7075 L -7.70173 14.7302 L -7.75883 14.7527 L -7.8159 14.7752 L -7.87291 14.7976 L -7.92988 14.8199 L -7.98681 14.8422 L -8.0437 14.8643 L -8.10054 14.8864 L -8.15733 14.9084 L -8.21409 14.9303 L -8.2708 14.9521 L -8.32746 14.9739 L -8.38408 14.9956 L -8.44067 15.0172 L -8.4972 15.0387 L -8.5537 15.0602 L -8.61015 15.0815 L -8.66656 15.1028 L -8.72293 15.1241 L -8.77926 15.1452 L -8.83554 15.1663 L -8.89179 15.1873 L -8.94799 15.2083 L -9.00415 15.2292 L -9.06027 15.25 L -9.11635 15.2707 L -9.17239 15.2914 L -9.22839 15.312 L -9.28435 15.3325 L -9.34026 15.353 L -9.39614 15.3734 L -9.45198 15.3937 L -9.50778 15.414 L -9.56354 15.4342 L -9.61926 15.4543 L -9.66624 15.4799 L -9.70566 15.4552 L -9.74502 15.4304 L -9.78431 15.4055 L -9.82354 15.3805 L -9.86271 15.3554 L -9.90181 15.3303 L -9.94085 15.305 L -9.97982 15.2796 L -10.0187 15.2541 L -10.0576 15.2285 L -10.0964 15.2028 L -10.1351 15.1771 L -10.1737 15.1512 L -10.2123 15.1252 L -10.2508 15.0991 L -10.2893 15.0729 L -10.3276 15.0467 L -10.366 15.0203 L -10.4042 14.9938 L -10.4424 14.9673 L -10.4805 14.9406 L -10.5185 14.9139 L -10.5565 14.887 L -10.5944 14.86 L -10.6322 14.833 L -10.67 14.8059 L -10.7077 14.7786 L -10.7453 14.7513 L -10.7829 14.7238 L -10.8204 14.6963 L -10.8578 14.6687 L -10.8952 14.641 L -10.9324 14.6132 L -11.0635 14.5142 L -11.1005 14.4859 L -11.1373 14.4576 L -11.1741 14.4292 L -11.2109 14.4006 L -11.2475 14.372 L -11.2841 14.3433 L -11.3207 14.3145 L -11.3571 14.2856 L -11.3935 14.2566 L -11.4298 14.2275 L -11.466 14.1984 L -11.5021 14.1691 L -11.5382 14.1397 L -11.5742 14.1103 L -11.6101 14.0807 L -11.646 14.0511 L -11.6818 14.0214 L -11.7175 13.9916 L -11.7531 13.9617 L -11.7886 13.9317 L -11.8241 13.9016 L -11.8595 13.8714 L -11.8948 13.8411 L -11.93 13.8108 L -11.9652 13.7803 L -12.0003 13.7498 L -12.0353 13.7191 L -12.0702 13.6884 L -12.105 13.6576 L -12.1398 13.6267 L -12.1745 13.5957 L -12.2091 13.5647 L -12.2436 13.5335 L -12.2319 13.4813 L -12.2278 13.4222 L -12.2236 13.3631 L -12.2194 13.3038 L -12.2151 13.2446 L -12.2108 13.1852 L -12.2064 13.1259 L -12.202 13.0664 L -12.1975 13.0069 L -12.1929 12.9474 L -12.1883 12.8878 L -12.1837 12.8281 L -12.179 12.7683 L -12.1742 12.7086 L -12.1694 12.6487 L -12.1645 12.5888 L -12.1596 12.5288 L -12.1546 12.4688 L -12.1495 12.4087 L -12.1444 12.3486 L -12.1393 12.2884 L -12.134 12.2281 L -12.1287 12.1678 L -12.1234 12.1074 L -12.1179 12.0469 L -12.1125 11.9864 L -12.1069 11.9258 L -12.1013 11.8652 L -12.0956 11.8045 L -12.0899 11.7437 L -12.0841 11.6828 L -12.0782 11.6219 L -12.0723 11.561 L -12.0662 11.4999 L -12.0602 11.4388 L -12.054 11.3776 L -12.0478 11.3164 L -12.0415 11.2551 L -12.0351 11.1937 L -12.0287 11.1323 L -12.0222 11.0708 L -12.0156 11.0092 L -12.0089 10.9476 L -12.0089 10.9476 L -12.0709 10.9485 L -12.1328 10.9494 L -12.1947 10.9502 L -12.2564 10.9509 L -12.3181 10.9516 L -12.3798 10.9522 L -12.4413 10.9528 L -12.5028 10.9533 L -12.5642 10.9537 L -12.6255 10.954 L -12.6868 10.9543 L -12.748 10.9546 L -12.8091 10.9547 L -12.8701 10.9549 L -12.9311 10.9549 L -12.992 10.9549 L -13.0529 10.9548 L -13.1136 10.9547 L -13.1743 10.9545 L -13.235 10.9543 L -13.2955 10.954 L -13.356 10.9536 L -13.4164 10.9532 L -13.4768 10.9528 L -13.5371 10.9523 L -13.5973 10.9517 L -13.6575 10.9511 L -13.7176 10.9504 L -13.7776 10.9497 L -13.8376 10.9489 L -13.8975 10.9481 L -13.9574 10.9472 L -14.0172 10.9463 L -14.0769 10.9453 L -14.1365 10.9443 L -14.1961 10.9432 L -14.2557 10.9421 L -14.3151 10.941 L -14.3746 10.9398 L -14.4339 10.9385 L -14.4932 10.9372 L -14.5524 10.9359 L -14.6055 10.9427 L -14.6333 10.9054 L -14.6611 10.8681 L -14.6887 10.8307 L -14.7163 10.7932 L -14.7437 10.7557 L -14.7711 10.7181 L -14.7984 10.6804 L -14.8255 10.6427 L -14.8526 10.6048 L -14.8796 10.567 L -14.9065 10.529 L -14.9333 10.491 L -14.9599 10.4529 L -14.9865 10.4147 L -15.013 10.3765 L -15.0394 10.3382 L -15.0657 10.2998 L -15.0919 10.2614 L -15.118 10.2229 L -15.144 10.1843 L -15.1699 10.1457 L -15.1957 10.107 L -15.2215 10.0683 L -15.2471 10.0294 L -15.2726 9.99055 L -15.298 9.95159 L -15.3233 9.91257 L -15.3485 9.87348 L -15.3736 9.83434 L -15.3986 9.79512 L -15.4236 9.75585 L -15.4484 9.71651 L -15.4731 9.6771 L -15.5595 9.53748 L -15.5838 9.49779 L -15.6079 9.45804 L -15.632 9.41823 L -15.656 9.37836 L -15.6798 9.33843 L -15.7035 9.29844 L -15.7272 9.25839 L -15.7507 9.21828 L -15.7742 9.17811 L -15.7975 9.13787 L -15.8208 9.09758 L -15.8439 9.05723 L -15.8669 9.01682 L -15.8899 8.97636 L -15.9127 8.93583 L -15.9354 8.89525 L -15.958 8.85461 L -15.9805 8.81391 L -16.0029 8.77315 L -16.0253 8.73234 L -16.0475 8.69147 L -16.0696 8.65054 L -16.0916 8.60956 L -16.1134 8.56852 L -16.1352 8.52743 L -16.1569 8.48628 L -16.1785 8.44507 L -16.2 8.40381 L -16.2213 8.3625 L -16.2426 8.32113 L -16.2637 8.27971 L -16.2848 8.23823 L -16.3057 8.1967 L -16.276 8.15228 L -16.2508 8.09866 L -16.2255 8.045 L -16.2002 7.99131 L -16.1748 7.93759 L -16.1493 7.88383 L -16.1238 7.83004 L -16.0981 7.77621 L -16.0725 7.72235 L -16.0467 7.66846 L -16.0209 7.61453 L -15.995 7.56057 L -15.969 7.50657 L -15.943 7.45254 L -15.9169 7.39848 L -15.8907 7.34438 L -15.8644 7.29025 L -15.8381 7.23608 L -15.8117 7.18187 L -15.7852 7.12763 L -15.7586 7.07336 L -15.7319 7.01905 L -15.7052 6.9647 L -15.6784 6.91032 L -15.6515 6.8559 L -15.6245 6.80145 L -15.5975 6.74696 L -15.5703 6.69244 L -15.5431 6.63788 L -15.5158 6.58328 L -15.4884 6.52865 L -15.4609 6.47398 L -15.4333 6.41927 L -15.4057 6.36453 L -15.3779 6.30975 L -15.3501 6.25493 L -15.3222 6.20008 L -15.2942 6.14519 L -15.2661 6.09026 L -15.2378 6.03529 L -15.2096 5.98029 L -15.1812 5.92525 L -15.1527 5.87018 L -15.1527 5.87018 L -15.2108 5.84867 L -15.2689 5.82712 L -15.3269 5.80554 L -15.3847 5.78392 L -15.4425 5.76226 L -15.5002 5.74057 L -15.5578 5.71885 L -15.6153 5.69709 L -15.6727 5.6753 L -15.73 5.65348 L -15.7872 5.63162 L -15.8444 5.60974 L -15.9014 5.58782 L -15.9584 5.56587 L -16.0153 5.54389 L -16.0721 5.52188 L -16.1288 5.49984 L -16.1854 5.47777 L -16.2419 5.45567 L -16.2984 5.43355 L -16.3547 5.4114 L -16.411 5.38921 L -16.4672 5.36701 L -16.5233 5.34477 L -16.5794 5.32251 L -16.6353 5.30023 L -16.6912 5.27792 L -16.747 5.25558 L -16.8028 5.23322 L -16.8584 5.21083 L -16.914 5.18843 L -16.9695 5.16599 L -17.0249 5.14354 L -17.0802 5.12106 L -17.1355 5.09856 L -17.1907 5.07603 L -17.2458 5.05349 L -17.3008 5.03092 L -17.3558 5.00833 L -17.4107 4.98572 L -17.4655 4.96309 L -17.5202 4.94044 L -17.5722 4.92766 L -17.5847 4.88286 L -17.597 4.83803 L -17.6093 4.79316 L -17.6215 4.74827 L -17.6335 4.70334 L -17.6455 4.65839 L -17.6573 4.6134 L -17.669 4.56839 L -17.6806 4.52334 L -17.692 4.47827 L -17.7034 4.43316 L -17.7146 4.38803 L -17.7257 4.34287 L -17.7368 4.29768 L -17.7476 4.25246 L -17.7584 4.20722 L -17.7691 4.16194 L -17.7796 4.11664 L -17.7901 4.07132 L -17.8004 4.02597 L -17.8106 3.98059 L -17.8207 3.93518 L -17.8307 3.88975 L -17.8405 3.8443 L -17.8503 3.79882 L -17.8599 3.75331 L -17.8694 3.70778 L -17.8788 3.66223 L -17.8881 3.61665 L -17.8972 3.57105 L -17.9063 3.52543 L -17.9152 3.47978 L -17.924 3.43411 L -17.9542 3.27268 L -17.9624 3.22691 L -17.9706 3.18112 L -17.9787 3.13531 L -17.9866 3.08948 L -17.9944 3.04363 L -18.0021 2.99776 L -18.0097 2.95187 L -18.0172 2.90596 L -18.0245 2.86004 L -18.0317 2.81409 L -18.0388 2.76813 L -18.0458 2.72214 L -18.0527 2.67614 L -18.0595 2.63013 L -18.0661 2.58409 L -18.0727 2.53804 L -18.0791 2.49197 L -18.0854 2.44589 L -18.0915 2.39979 L -18.0976 2.35367 L -18.1035 2.30754 L -18.1094 2.2614 L -18.1151 2.21524 L -18.1206 2.16906 L -18.1261 2.12287 L -18.1315 2.07667 L -18.1367 2.03045 L -18.1418 1.98422 L -18.1468 1.93798 L -18.1517 1.89173 L -18.1565 1.84546 L -18.1611 1.79918 L -18.1656 1.75289 L -18.1218 1.72222 L -18.079 1.68132 L -18.036 1.64041 L -17.993 1.5995 L -17.9499 1.55858 L -17.9067 1.51765 L -17.8635 1.47672 L -17.8202 1.43578 L -17.7768 1.39484 L -17.7333 1.35389 L -17.6897 1.31293 L -17.6461 1.27197 L -17.6024 1.231 L -17.5586 1.19002 L -17.5147 1.14904 L -17.4707 1.10806 L -17.4267 1.06707 L -17.3825 1.02607 L -17.3383 0.985069 L -17.294 0.944063 L -17.2496 0.903053 L -17.2052 0.862038 L -17.1606 0.821019 L -17.116 0.779995 L -17.0712 0.738968 L -17.0264 0.697936 L -16.9815 0.656901 L -16.9365 0.615863 L -16.8914 0.574821 L -16.8462 0.533776 L -16.8009 0.492728 L -16.7555 0.451678 L -16.7101 0.410624 L -16.6645 0.369569 L -16.6188 0.328511 L -16.5731 0.287452 L -16.5272 0.24639 L -16.4813 0.205328 L -16.4352 0.164264 L -16.3891 0.123199 L -16.3428 0.0821328 L -16.2965 0.0410665 L -16.25 4.44089e-16 L -16.25 3.53601e-15 L -16.2965 -0.0410665 L -16.3428 -0.0821328 L -16.3891 -0.123199 L -16.4352 -0.164264 L -16.4813 -0.205328 L -16.5272 -0.24639 L -16.5731 -0.287452 L -16.6188 -0.328511 L -16.6645 -0.369569 L -16.7101 -0.410624 L -16.7555 -0.451678 L -16.8009 -0.492728 L -16.8462 -0.533776 L -16.8914 -0.574821 L -16.9365 -0.615863 L -16.9815 -0.656901 L -17.0264 -0.697936 L -17.0712 -0.738968 L -17.116 -0.779995 L -17.1606 -0.821019 L -17.2052 -0.862038 L -17.2496 -0.903053 L -17.294 -0.944063 L -17.3383 -0.985069 L -17.3825 -1.02607 L -17.4267 -1.06707 L -17.4707 -1.10806 L -17.5147 -1.14904 L -17.5586 -1.19002 L -17.6024 -1.231 L -17.6461 -1.27197 L -17.6897 -1.31293 L -17.7333 -1.35389 L -17.7768 -1.39484 L -17.8202 -1.43578 L -17.8635 -1.47672 L -17.9067 -1.51765 L -17.9499 -1.55858 L -17.993 -1.5995 L -18.036 -1.64041 L -18.079 -1.68132 L -18.1218 -1.72222 L -18.1656 -1.75289 L -18.1611 -1.79918 L -18.1565 -1.84546 L -18.1517 -1.89173 L -18.1468 -1.93798 L -18.1418 -1.98422 L -18.1367 -2.03045 L -18.1315 -2.07667 L -18.1261 -2.12287 L -18.1206 -2.16906 L -18.1151 -2.21524 L -18.1094 -2.2614 L -18.1035 -2.30754 L -18.0976 -2.35367 L -18.0915 -2.39979 L -18.0854 -2.44589 L -18.0791 -2.49197 L -18.0727 -2.53804 L -18.0661 -2.58409 L -18.0595 -2.63013 L -18.0527 -2.67614 L -18.0458 -2.72214 L -18.0388 -2.76813 L -18.0317 -2.81409 L -18.0245 -2.86004 L -18.0172 -2.90596 L -18.0097 -2.95187 L -18.0021 -2.99776 L -17.9944 -3.04363 L -17.9866 -3.08948 L -17.9787 -3.13531 L -17.9706 -3.18112 L -17.9624 -3.22691 L -17.9542 -3.27268 L -17.924 -3.43411 L -17.9152 -3.47978 L -17.9063 -3.52543 L -17.8972 -3.57105 L -17.8881 -3.61665 L -17.8788 -3.66223 L -17.8694 -3.70778 L -17.8599 -3.75331 L -17.8503 -3.79882 L -17.8405 -3.8443 L -17.8307 -3.88975 L -17.8207 -3.93518 L -17.8106 -3.98059 L -17.8004 -4.02597 L -17.7901 -4.07132 L -17.7796 -4.11664 L -17.7691 -4.16194 L -17.7584 -4.20722 L -17.7476 -4.25246 L -17.7368 -4.29768 L -17.7257 -4.34287 L -17.7146 -4.38803 L -17.7034 -4.43316 L -17.692 -4.47827 L -17.6806 -4.52334 L -17.669 -4.56839 L -17.6573 -4.6134 L -17.6455 -4.65839 L -17.6335 -4.70334 L -17.6215 -4.74827 L -17.6093 -4.79316 L -17.597 -4.83803 L -17.5847 -4.88286 L -17.5722 -4.92766 L -17.5202 -4.94044 L -17.4655 -4.96309 L -17.4107 -4.98572 L -17.3558 -5.00833 L -17.3008 -5.03092 L -17.2458 -5.05349 L -17.1907 -5.07603 L -17.1355 -5.09856 L -17.0802 -5.12106 L -17.0249 -5.14354 L -16.9695 -5.16599 L -16.914 -5.18843 L -16.8584 -5.21083 L -16.8028 -5.23322 L -16.747 -5.25558 L -16.6912 -5.27792 L -16.6353 -5.30023 L -16.5794 -5.32251 L -16.5233 -5.34477 L -16.4672 -5.36701 L -16.411 -5.38921 L -16.3547 -5.4114 L -16.2984 -5.43355 L -16.2419 -5.45567 L -16.1854 -5.47777 L -16.1288 -5.49984 L -16.0721 -5.52188 L -16.0153 -5.54389 L -15.9584 -5.56587 L -15.9014 -5.58782 L -15.8444 -5.60974 L -15.7872 -5.63162 L -15.73 -5.65348 L -15.6727 -5.6753 L -15.6153 -5.69709 L -15.5578 -5.71885 L -15.5002 -5.74057 L -15.4425 -5.76226 L -15.3847 -5.78392 L -15.3269 -5.80554 L -15.2689 -5.82712 L -15.2108 -5.84867 L -15.1527 -5.87018 L -15.1527 -5.87018 L -15.1812 -5.92525 L -15.2096 -5.98029 L -15.2378 -6.03529 L -15.2661 -6.09026 L -15.2942 -6.14519 L -15.3222 -6.20008 L -15.3501 -6.25493 L -15.3779 -6.30975 L -15.4057 -6.36453 L -15.4333 -6.41927 L -15.4609 -6.47398 L -15.4884 -6.52865 L -15.5158 -6.58328 L -15.5431 -6.63788 L -15.5703 -6.69244 L -15.5975 -6.74696 L -15.6245 -6.80145 L -15.6515 -6.8559 L -15.6784 -6.91032 L -15.7052 -6.9647 L -15.7319 -7.01905 L -15.7586 -7.07336 L -15.7852 -7.12763 L -15.8117 -7.18187 L -15.8381 -7.23608 L -15.8644 -7.29025 L -15.8907 -7.34438 L -15.9169 -7.39848 L -15.943 -7.45254 L -15.969 -7.50657 L -15.995 -7.56057 L -16.0209 -7.61453 L -16.0467 -7.66846 L -16.0725 -7.72235 L -16.0981 -7.77621 L -16.1238 -7.83004 L -16.1493 -7.88383 L -16.1748 -7.93759 L -16.2002 -7.99131 L -16.2255 -8.045 L -16.2508 -8.09866 L -16.276 -8.15228 L -16.3057 -8.1967 L -16.2848 -8.23823 L -16.2637 -8.27971 L -16.2426 -8.32113 L -16.2213 -8.3625 L -16.2 -8.40381 L -16.1785 -8.44507 L -16.1569 -8.48628 L -16.1352 -8.52743 L -16.1134 -8.56852 L -16.0916 -8.60956 L -16.0696 -8.65054 L -16.0475 -8.69147 L -16.0253 -8.73234 L -16.0029 -8.77315 L -15.9805 -8.81391 L -15.958 -8.85461 L -15.9354 -8.89525 L -15.9127 -8.93583 L -15.8899 -8.97636 L -15.8669 -9.01682 L -15.8439 -9.05723 L -15.8208 -9.09758 L -15.7975 -9.13787 L -15.7742 -9.17811 L -15.7507 -9.21828 L -15.7272 -9.25839 L -15.7035 -9.29844 L -15.6798 -9.33843 L -15.656 -9.37836 L -15.632 -9.41823 L -15.6079 -9.45804 L -15.5838 -9.49779 L -15.5595 -9.53748 L -15.4731 -9.6771 L -15.4484 -9.71651 L -15.4236 -9.75585 L -15.3986 -9.79512 L -15.3736 -9.83434 L -15.3485 -9.87348 L -15.3233 -9.91257 L -15.298 -9.95159 L -15.2726 -9.99055 L -15.2471 -10.0294 L -15.2215 -10.0683 L -15.1957 -10.107 L -15.1699 -10.1457 L -15.144 -10.1843 L -15.118 -10.2229 L -15.0919 -10.2614 L -15.0657 -10.2998 L -15.0394 -10.3382 L -15.013 -10.3765 L -14.9865 -10.4147 L -14.9599 -10.4529 L -14.9333 -10.491 L -14.9065 -10.529 L -14.8796 -10.567 L -14.8526 -10.6048 L -14.8255 -10.6427 L -14.7984 -10.6804 L -14.7711 -10.7181 L -14.7437 -10.7557 L -14.7163 -10.7932 L -14.6887 -10.8307 L -14.6611 -10.8681 L -14.6333 -10.9054 L -14.6055 -10.9427 L -14.5524 -10.9359 L -14.4932 -10.9372 L -14.4339 -10.9385 L -14.3746 -10.9398 L -14.3151 -10.941 L -14.2557 -10.9421 L -14.1961 -10.9432 L -14.1365 -10.9443 L -14.0769 -10.9453 L -14.0172 -10.9463 L -13.9574 -10.9472 L -13.8975 -10.9481 L -13.8376 -10.9489 L -13.7776 -10.9497 L -13.7176 -10.9504 L -13.6575 -10.9511 L -13.5973 -10.9517 L -13.5371 -10.9523 L -13.4768 -10.9528 L -13.4164 -10.9532 L -13.356 -10.9536 L -13.2955 -10.954 L -13.235 -10.9543 L -13.1743 -10.9545 L -13.1136 -10.9547 L -13.0529 -10.9548 L -12.992 -10.9549 L -12.9311 -10.9549 L -12.8701 -10.9549 L -12.8091 -10.9547 L -12.748 -10.9546 L -12.6868 -10.9543 L -12.6255 -10.954 L -12.5642 -10.9537 L -12.5028 -10.9533 L -12.4413 -10.9528 L -12.3798 -10.9522 L -12.3181 -10.9516 L -12.2564 -10.9509 L -12.1947 -10.9502 L -12.1328 -10.9494 L -12.0709 -10.9485 L -12.0089 -10.9476 L -12.0089 -10.9476 L -12.0156 -11.0092 L -12.0222 -11.0708 L -12.0287 -11.1323 L -12.0351 -11.1937 L -12.0415 -11.2551 L -12.0478 -11.3164 L -12.054 -11.3776 L -12.0602 -11.4388 L -12.0662 -11.4999 L -12.0723 -11.561 L -12.0782 -11.6219 L -12.0841 -11.6828 L -12.0899 -11.7437 L -12.0956 -11.8045 L -12.1013 -11.8652 L -12.1069 -11.9258 L -12.1125 -11.9864 L -12.1179 -12.0469 L -12.1234 -12.1074 L -12.1287 -12.1678 L -12.134 -12.2281 L -12.1393 -12.2884 L -12.1444 -12.3486 L -12.1495 -12.4087 L -12.1546 -12.4688 L -12.1596 -12.5288 L -12.1645 -12.5888 L -12.1694 -12.6487 L -12.1742 -12.7086 L -12.179 -12.7683 L -12.1837 -12.8281 L -12.1883 -12.8878 L -12.1929 -12.9474 L -12.1975 -13.0069 L -12.202 -13.0664 L -12.2064 -13.1259 L -12.2108 -13.1852 L -12.2151 -13.2446 L -12.2194 -13.3038 L -12.2236 -13.3631 L -12.2278 -13.4222 L -12.2319 -13.4813 L -12.2436 -13.5335 L -12.2091 -13.5647 L -12.1745 -13.5957 L -12.1398 -13.6267 L -12.105 -13.6576 L -12.0702 -13.6884 L -12.0353 -13.7191 L -12.0003 -13.7498 L -11.9652 -13.7803 L -11.93 -13.8108 L -11.8948 -13.8411 L -11.8595 -13.8714 L -11.8241 -13.9016 L -11.7886 -13.9317 L -11.7531 -13.9617 L -11.7175 -13.9916 L -11.6818 -14.0214 L -11.646 -14.0511 L -11.6101 -14.0807 L -11.5742 -14.1103 L -11.5382 -14.1397 L -11.5021 -14.1691 L -11.466 -14.1984 L -11.4298 -14.2275 L -11.3935 -14.2566 L -11.3571 -14.2856 L -11.3207 -14.3145 L -11.2841 -14.3433 L -11.2475 -14.372 L -11.2109 -14.4006 L -11.1741 -14.4292 L -11.1373 -14.4576 L -11.1005 -14.4859 L -11.0635 -14.5142 L -10.9324 -14.6132 L -10.8952 -14.641 L -10.8578 -14.6687 L -10.8204 -14.6963 L -10.7829 -14.7238 L -10.7453 -14.7513 L -10.7077 -14.7786 L -10.67 -14.8059 L -10.6322 -14.833 L -10.5944 -14.86 L -10.5565 -14.887 L -10.5185 -14.9139 L -10.4805 -14.9406 L -10.4424 -14.9673 L -10.4042 -14.9938 L -10.366 -15.0203 L -10.3276 -15.0467 L -10.2893 -15.0729 L -10.2508 -15.0991 L -10.2123 -15.1252 L -10.1737 -15.1512 L -10.1351 -15.1771 L -10.0964 -15.2028 L -10.0576 -15.2285 L -10.0187 -15.2541 L -9.97982 -15.2796 L -9.94085 -15.305 L -9.90181 -15.3303 L -9.86271 -15.3554 L -9.82354 -15.3805 L -9.78431 -15.4055 L -9.74502 -15.4304 L -9.70566 -15.4552 L -9.66624 -15.4799 L -9.61926 -15.4543 L -9.56354 -15.4342 L -9.50778 -15.414 L -9.45198 -15.3937 L -9.39614 -15.3734 L -9.34026 -15.353 L -9.28435 -15.3325 L -9.22839 -15.312 L -9.17239 -15.2914 L -9.11635 -15.2707 L -9.06027 -15.25 L -9.00415 -15.2292 L -8.94799 -15.2083 L -8.89179 -15.1873 L -8.83554 -15.1663 L -8.77926 -15.1452 L -8.72293 -15.1241 L -8.66656 -15.1028 L -8.61015 -15.0815 L -8.5537 -15.0602 L -8.4972 -15.0387 L -8.44067 -15.0172 L -8.38408 -14.9956 L -8.32746 -14.9739 L -8.2708 -14.9521 L -8.21409 -14.9303 L -8.15733 -14.9084 L -8.10054 -14.8864 L -8.0437 -14.8643 L -7.98681 -14.8422 L -7.92988 -14.8199 L -7.87291 -14.7976 L -7.8159 -14.7752 L -7.75883 -14.7527 L -7.70173 -14.7302 L -7.64458 -14.7075 L -7.58738 -14.6847 L -7.53014 -14.6619 L -7.47285 -14.639 L -7.41552 -14.616 L -7.35814 -14.5929 L -7.30072 -14.5697 L -7.24325 -14.5464 L -7.24325 -14.5464 L -7.2272 -14.6063 L -7.2111 -14.6661 L -7.19496 -14.7258 L -7.17877 -14.7854 L -7.16254 -14.845 L -7.14626 -14.9044 L -7.12995 -14.9637 L -7.11359 -15.023 L -7.09719 -15.0822 L -7.08074 -15.1413 L -7.06426 -15.2003 L -7.04774 -15.2592 L -7.03118 -15.318 L -7.01458 -15.3768 L -6.99794 -15.4354 L -6.98127 -15.494 L -6.96455 -15.5525 L -6.9478 -15.6109 L -6.93102 -15.6693 L -6.91419 -15.7275 L -6.89734 -15.7857 L -6.88044 -15.8438 L -6.86352 -15.9018 L -6.84656 -15.9597 L -6.82956 -16.0176 L -6.81253 -16.0753 L -6.79547 -16.133 L -6.77838 -16.1907 L -6.76126 -16.2482 L -6.7441 -16.3057 L -6.72692 -16.3631 L -6.7097 -16.4204 L -6.69245 -16.4777 L -6.67518 -16.5348 L -6.65787 -16.5919 L -6.64053 -16.649 L -6.62317 -16.7059 L -6.60578 -16.7628 L -6.58836 -16.8196 L -6.57091 -16.8764 L -6.55343 -16.9331 L -6.53593 -16.9897 L -6.52799 -17.0425 L -6.48454 -17.0591 L -6.44104 -17.0756 L -6.3975 -17.0919 L -6.35392 -17.1082 L -6.3103 -17.1243 L -6.26663 -17.1404 L -6.22293 -17.1563 L -6.17919 -17.1721 L -6.1354 -17.1878 L -6.09158 -17.2033 L -6.04771 -17.2188 L -6.00381 -17.2342 L -5.95987 -17.2494 L -5.91589 -17.2646 L -5.87187 -17.2796 L -5.82781 -17.2945 L -5.78371 -17.3093 L -5.73958 -17.324 L -5.69541 -17.3385 L -5.6512 -17.353 L -5.60696 -17.3673 L -5.56268 -17.3816 L -5.51836 -17.3957 L -5.47401 -17.4097 L -5.42962 -17.4236 L -5.3852 -17.4374 L -5.34074 -17.451 L -5.29625 -17.4646 L -5.25172 -17.478 L -5.20716 -17.4914 L -5.16257 -17.5046 L -5.11794 -17.5177 L -5.07328 -17.5307 L -4.91532 -17.5756 L -4.87051 -17.5881 L -4.82567 -17.6004 L -4.7808 -17.6127 L -4.7359 -17.6248 L -4.69096 -17.6368 L -4.646 -17.6487 L -4.60101 -17.6605 L -4.55598 -17.6722 L -4.51093 -17.6837 L -4.46584 -17.6952 L -4.42073 -17.7065 L -4.37559 -17.7177 L -4.33042 -17.7288 L -4.28523 -17.7398 L -4.24 -17.7506 L -4.19475 -17.7614 L -4.14947 -17.772 L -4.10416 -17.7825 L -4.05883 -17.7929 L -4.01347 -17.8032 L -3.96808 -17.8134 L -3.92267 -17.8234 L -3.87723 -17.8334 L -3.83177 -17.8432 L -3.78628 -17.8529 L -3.74077 -17.8625 L -3.69523 -17.872 L -3.64967 -17.8813 L -3.60409 -17.8906 L -3.55848 -17.8997 L -3.51285 -17.9087 L -3.4672 -17.9176 L -3.42152 -17.9264 L -3.38694 -17.8856 L -3.34226 -17.8467 L -3.29757 -17.8077 L -3.25286 -17.7687 L -3.20814 -17.7295 L -3.1634 -17.6903 L -3.11866 -17.651 L -3.07389 -17.6117 L -3.02912 -17.5722 L -2.98433 -17.5327 L -2.93953 -17.4931 L -2.89471 -17.4534 L -2.84989 -17.4137 L -2.80504 -17.3739 L -2.76019 -17.3339 L -2.71532 -17.2939 L -2.67044 -17.2539 L -2.62555 -17.2137 L -2.58064 -17.1735 L -2.53573 -17.1331 L -2.4908 -17.0927 L -2.44585 -17.0522 L -2.4009 -17.0116 L -2.35593 -16.971 L -2.31095 -16.9302 L -2.26596 -16.8894 L -2.22095 -16.8484 L -2.17594 -16.8074 L -2.13091 -16.7663 L -2.08587 -16.7251 L -2.04082 -16.6838 L -1.99576 -16.6424 L -1.95068 -16.6009 L -1.9056 -16.5593 L -1.8605 -16.5176 L -1.8154 -16.4759 L -1.77028 -16.434 L -1.72515 -16.392 L -1.68001 -16.35 L -1.63487 -16.3078 L -1.58971 -16.2655 L -1.54454 -16.2232 L -1.49936 -16.1807 L -1.49936 -16.1807 L -1.46276 -16.2307 L -1.42614 -16.2807 L -1.38952 -16.3305 L -1.35289 -16.3803 L -1.31625 -16.4299 L -1.2796 -16.4795 L -1.24295 -16.5289 L -1.20628 -16.5783 L -1.16961 -16.6275 L -1.13294 -16.6767 L -1.09626 -16.7257 L -1.05957 -16.7747 L -1.02287 -16.8236 L -0.986171 -16.8724 L -0.949466 -16.9211 L -0.912755 -16.9697 L -0.876039 -17.0182 L -0.839318 -17.0666 L -0.802593 -17.1149 L -0.765864 -17.1632 L -0.729132 -17.2113 L -0.692395 -17.2594 L -0.655655 -17.3074 L -0.618912 -17.3552 L -0.582165 -17.4031 L -0.545416 -17.4508 L -0.508664 -17.4984 L -0.47191 -17.546 L -0.435154 -17.5935 L -0.398395 -17.6409 L -0.361635 -17.6882 L -0.324873 -17.7354 L -0.28811 -17.7825 L -0.251345 -17.8296 L -0.21458 -17.8766 L -0.177813 -17.9235 L -0.141046 -17.9704 L -0.104277 -18.0171 L -0.067509 -18.0638 L -0.0307402 -18.1104 L 0.00602867 -18.157 L 0.0427975 -18.2034 L 0.0692997 -18.2499 L 0.115811 -18.2496 L 0.162321 -18.2493 L 0.20883 -18.2488 L 0.255338 -18.2482 L 0.301844 -18.2475 L 0.348348 -18.2467 L 0.39485 -18.2457 L 0.44135 -18.2447 L 0.487846 -18.2435 L 0.53434 -18.2422 L 0.58083 -18.2408 L 0.627316 -18.2392 L 0.673798 -18.2376 L 0.720276 -18.2358 L 0.766749 -18.2339 L 0.813217 -18.2319 L 0.859679 -18.2297 L 0.906136 -18.2275 L 0.952588 -18.2251 L 0.999033 -18.2226 L 1.04547 -18.22 L 1.0919 -18.2173 L 1.13833 -18.2145 L 1.18475 -18.2115 L 1.23115 -18.2084 L 1.27756 -18.2052 L 1.32395 -18.2019 L 1.37033 -18.1985 L 1.41671 -18.1949 L 1.46308 -18.1913 L 1.50943 -18.1875 L 1.55578 -18.1836 L 1.60212 -18.1795 L 1.76564 -18.1644 L 1.81193 -18.1598 L 1.85821 -18.1552 L 1.90447 -18.1504 L 1.95072 -18.1454 L 1.99696 -18.1404 L 2.04319 -18.1353 L 2.0894 -18.13 L 2.1356 -18.1246 L 2.18178 -18.1191 L 2.22795 -18.1135 L 2.27411 -18.1078 L 2.32025 -18.1019 L 2.36638 -18.0959 L 2.41249 -18.0898 L 2.45858 -18.0836 L 2.50466 -18.0773 L 2.55073 -18.0709 L 2.59677 -18.0643 L 2.6428 -18.0576 L 2.68882 -18.0508 L 2.73481 -18.0439 L 2.78079 -18.0369 L 2.82675 -18.0298 L 2.87269 -18.0225 L 2.91861 -18.0151 L 2.96452 -18.0076 L 3.0104 -18 L 3.05627 -17.9923 L 3.10211 -17.9844 L 3.14793 -17.9765 L 3.19374 -17.9684 L 3.23952 -17.9602 L 3.28528 -17.9519 L 3.3028 -17.9014 L 3.33041 -17.8489 L 3.358 -17.7964 L 3.38558 -17.7439 L 3.41314 -17.6912 L 3.44069 -17.6385 L 3.46823 -17.5857 L 3.49575 -17.5328 L 3.52325 -17.4799 L 3.55074 -17.4268 L 3.57821 -17.3737 L 3.60567 -17.3205 L 3.63311 -17.2673 L 3.66053 -17.2139 L 3.68794 -17.1605 L 3.71533 -17.107 L 3.7427 -17.0534 L 3.77006 -16.9998 L 3.79739 -16.946 L 3.82471 -16.8922 L 3.85201 -16.8383 L 3.87929 -16.7843 L 3.90655 -16.7302 L 3.93378 -16.676 L 3.961 -16.6218 L 3.9882 -16.5674 L 4.01538 -16.513 L 4.04254 -16.4585 L 4.06967 -16.4039 L 4.09678 -16.3492 L 4.12387 -16.2944 L 4.15094 -16.2395 L 4.17798 -16.1845 L 4.205 -16.1295 L 4.23199 -16.0743 L 4.25896 -16.0191 L 4.28591 -15.9637 L 4.31283 -15.9083 L 4.33972 -15.8528 L 4.36659 -15.7971 L 4.39343 -15.7414 L 4.42024 -15.6856 L 4.44702 -15.6297 L 4.44702 -15.6297 L 4.49924 -15.6631 L 4.55142 -15.6965 L 4.60358 -15.7297 L 4.65571 -15.7629 L 4.70781 -15.7959 L 4.75988 -15.8289 L 4.81192 -15.8618 L 4.86393 -15.8945 L 4.91592 -15.9272 L 4.96788 -15.9598 L 5.01981 -15.9923 L 5.07171 -16.0247 L 5.12358 -16.057 L 5.17542 -16.0893 L 5.22724 -16.1214 L 5.27903 -16.1535 L 5.33079 -16.1854 L 5.38252 -16.2173 L 5.43422 -16.2491 L 5.4859 -16.2808 L 5.53755 -16.3125 L 5.58917 -16.344 L 5.64076 -16.3755 L 5.69232 -16.4069 L 5.74386 -16.4382 L 5.79536 -16.4694 L 5.84684 -16.5005 L 5.8983 -16.5316 L 5.94972 -16.5626 L 6.00112 -16.5935 L 6.05249 -16.6244 L 6.10383 -16.6551 L 6.15514 -16.6858 L 6.20643 -16.7164 L 6.25769 -16.747 L 6.30892 -16.7774 L 6.36013 -16.8078 L 6.41131 -16.8382 L 6.46246 -16.8684 L 6.51358 -16.8986 L 6.56468 -16.9287 L 6.61575 -16.9587 L 6.65723 -16.9925 L 6.70052 -16.9754 L 6.74376 -16.9583 L 6.78696 -16.9411 L 6.83011 -16.9237 L 6.87322 -16.9063 L 6.91628 -16.8887 L 6.9593 -16.871 L 7.00228 -16.8532 L 7.04521 -16.8353 L 7.08809 -16.8173 L 7.13093 -16.7992 L 7.17372 -16.7809 L 7.21646 -16.7626 L 7.25916 -16.7442 L 7.30181 -16.7256 L 7.34441 -16.7069 L 7.38697 -16.6882 L 7.42948 -16.6693 L 7.47194 -16.6503 L 7.51435 -16.6312 L 7.55671 -16.612 L 7.59902 -16.5927 L 7.64128 -16.5733 L 7.6835 -16.5537 L 7.72566 -16.5341 L 7.76777 -16.5144 L 7.80984 -16.4945 L 7.85185 -16.4746 L 7.89381 -16.4545 L 7.93572 -16.4343 L 7.97758 -16.414 L 8.01938 -16.3937 L 8.06114 -16.3732 L 8.20815 -16.3 L 8.24966 -16.279 L 8.29112 -16.2579 L 8.33253 -16.2367 L 8.37388 -16.2154 L 8.41518 -16.194 L 8.45643 -16.1725 L 8.49762 -16.1509 L 8.53875 -16.1292 L 8.57983 -16.1074 L 8.62085 -16.0855 L 8.66182 -16.0635 L 8.70273 -16.0414 L 8.74359 -16.0191 L 8.78438 -15.9968 L 8.82512 -15.9743 L 8.86581 -15.9518 L 8.90643 -15.9292 L 8.947 -15.9064 L 8.98751 -15.8835 L 9.02796 -15.8606 L 9.06835 -15.8375 L 9.10869 -15.8144 L 9.14896 -15.7911 L 9.18918 -15.7677 L 9.22933 -15.7443 L 9.26943 -15.7207 L 9.30946 -15.697 L 9.34944 -15.6732 L 9.38935 -15.6494 L 9.42921 -15.6254 L 9.469 -15.6013 L 9.50873 -15.5771 L 9.5484 -15.5528 L 9.54649 -15.4994 L 9.55329 -15.4405 L 9.56005 -15.3816 L 9.56678 -15.3226 L 9.57346 -15.2636 L 9.5801 -15.2045 L 9.58671 -15.1453 L 9.59327 -15.086 L 9.59979 -15.0267 L 9.60626 -14.9674 L 9.6127 -14.9079 L 9.61909 -14.8484 L 9.62543 -14.7888 L 9.63174 -14.7292 L 9.63799 -14.6695 L 9.64421 -14.6097 L 9.65037 -14.5498 L 9.6565 -14.4899 L 9.66257 -14.4299 L 9.6686 -14.3699 L 9.67458 -14.3097 L 9.68051 -14.2495 L 9.68639 -14.1892 L 9.69222 -14.1289 L 9.698 -14.0685 L 9.70373 -14.008 L 9.70941 -13.9474 L 9.71504 -13.8867 L 9.72062 -13.826 L 9.72614 -13.7652 L 9.73161 -13.7044 L 9.73702 -13.6434 L 9.74238 -13.5824 L 9.74769 -13.5213 L 9.75293 -13.4601 L 9.75813 -13.3988 L 9.76326 -13.3375 L 9.76833 -13.2761 L 9.77335 -13.2146 L 9.77831 -13.153 L 9.7832 -13.0913 L 9.78804 -13.0296 L 9.79281 -12.9678 L 9.79281 -12.9678 L 9.85358 -12.9801 L 9.91429 -12.9924 L 9.97494 -13.0045 L 10.0355 -13.0166 L 10.096 -13.0286 L 10.1565 -13.0405 L 10.2169 -13.0524 L 10.2773 -13.0642 L 10.3375 -13.0758 L 10.3978 -13.0875 L 10.4579 -13.099 L 10.518 -13.1105 L 10.5781 -13.1219 L 10.6381 -13.1332 L 10.698 -13.1445 L 10.7578 -13.1556 L 10.8177 -13.1668 L 10.8774 -13.1778 L 10.9371 -13.1888 L 10.9968 -13.1997 L 11.0563 -13.2105 L 11.1159 -13.2213 L 11.1754 -13.232 L 11.2348 -13.2426 L 11.2941 -13.2532 L 11.3534 -13.2637 L 11.4127 -13.2742 L 11.4719 -13.2846 L 11.5311 -13.2949 L 11.5901 -13.3051 L 11.6492 -13.3153 L 11.7082 -13.3255 L 11.7671 -13.3356 L 11.826 -13.3456 L 11.8848 -13.3555 L 11.9436 -13.3654 L 12.0023 -13.3753 L 12.061 -13.3851 L 12.1196 -13.3948 L 12.1782 -13.4045 L 12.2367 -13.4141 L 12.2952 -13.4237 L 12.3461 -13.4401 L 12.3803 -13.4086 L 12.4144 -13.377 L 12.4485 -13.3453 L 12.4824 -13.3136 L 12.5163 -13.2817 L 12.5501 -13.2498 L 12.5839 -13.2177 L 12.6175 -13.1856 L 12.6511 -13.1534 L 12.6846 -13.1211 L 12.718 -13.0888 L 12.7513 -13.0563 L 12.7845 -13.0238 L 12.8177 -12.9912 L 12.8507 -12.9584 L 12.8837 -12.9257 L 12.9166 -12.8928 L 12.9494 -12.8598 L 12.9822 -12.8268 L 13.0148 -12.7936 L 13.0474 -12.7604 L 13.0798 -12.7271 L 13.1122 -12.6938 L 13.1445 -12.6603 L 13.1768 -12.6268 L 13.2089 -12.5931 L 13.241 -12.5594 L 13.2729 -12.5257 L 13.3048 -12.4918 L 13.3366 -12.4578 L 13.3683 -12.4238 L 13.3999 -12.3897 L 13.4315 -12.3555 L 13.5421 -12.2341 L 13.5732 -12.1996 L 13.6043 -12.165 L 13.6352 -12.1302 L 13.6661 -12.0955 L 13.6969 -12.0606 L 13.7276 -12.0256 L 13.7582 -11.9906 L 13.7887 -11.9555 L 13.8191 -11.9203 L 13.8495 -11.8851 L 13.8797 -11.8497 L 13.9099 -11.8143 L 13.9399 -11.7788 L 13.9699 -11.7433 L 13.9998 -11.7076 L 14.0296 -11.6719 L 14.0593 -11.6361 L 14.0889 -11.6002 L 14.1184 -11.5643 L 14.1478 -11.5283 L 14.1772 -11.4922 L 14.2064 -11.456 L 14.2356 -11.4198 L 14.2646 -11.3835 L 14.2936 -11.3471 L 14.3225 -11.3106 L 14.3512 -11.2741 L 14.3799 -11.2375 L 14.4085 -11.2008 L 14.437 -11.164 L 14.4654 -11.1272 L 14.4937 -11.0903 L 14.5219 -11.0533 L 14.5009 -11.0042 L 14.4859 -10.9468 L 14.471 -10.8894 L 14.4559 -10.832 L 14.4408 -10.7745 L 14.4257 -10.717 L 14.4104 -10.6594 L 14.3952 -10.6018 L 14.3798 -10.5442 L 14.3644 -10.4865 L 14.3489 -10.4287 L 14.3334 -10.3709 L 14.3178 -10.3131 L 14.3021 -10.2552 L 14.2864 -10.1972 L 14.2706 -10.1392 L 14.2547 -10.0812 L 14.2388 -10.0231 L 14.2228 -9.96497 L 14.2067 -9.90679 L 14.1905 -9.84855 L 14.1743 -9.79027 L 14.158 -9.73194 L 14.1417 -9.67356 L 14.1252 -9.61512 L 14.1087 -9.55664 L 14.0921 -9.49811 L 14.0755 -9.43953 L 14.0587 -9.38089 L 14.0419 -9.32221 L 14.025 -9.26347 L 14.0081 -9.20468 L 13.991 -9.14584 L 13.9739 -9.08695 L 13.9567 -9.028 L 13.9394 -8.969 L 13.922 -8.90995 L 13.9046 -8.85085 L 13.887 -8.79169 L 13.8694 -8.73248 L 13.8517 -8.67322 L 13.8339 -8.6139 L 13.816 -8.55452 L 13.816 -8.55452 L 13.8771 -8.54407 L 13.9382 -8.53355 L 13.9991 -8.52299 L 14.06 -8.51237 L 14.1208 -8.5017 L 14.1814 -8.49098 L 14.242 -8.48021 L 14.3026 -8.46939 L 14.363 -8.45852 L 14.4234 -8.4476 L 14.4836 -8.43663 L 14.5438 -8.42562 L 14.6039 -8.41455 L 14.6639 -8.40345 L 14.7239 -8.39229 L 14.7838 -8.38109 L 14.8436 -8.36985 L 14.9033 -8.35856 L 14.9629 -8.34723 L 15.0224 -8.33585 L 15.0819 -8.32443 L 15.1413 -8.31297 L 15.2007 -8.30147 L 15.2599 -8.28993 L 15.3191 -8.27834 L 15.3782 -8.26672 L 15.4372 -8.25506 L 15.4962 -8.24335 L 15.5551 -8.23161 L 15.6139 -8.21983 L 15.6726 -8.20802 L 15.7313 -8.19616 L 15.7899 -8.18427 L 15.8484 -8.17234 L 15.9068 -8.16038 L 15.9652 -8.14838 L 16.0236 -8.13634 L 16.0818 -8.12428 L 16.14 -8.11217 L 16.1981 -8.10003 L 16.2561 -8.08786 L 16.3141 -8.07566 L 16.3675 -8.07263 L 16.388 -8.03089 L 16.4084 -7.9891 L 16.4287 -7.94726 L 16.4489 -7.90536 L 16.469 -7.86341 L 16.489 -7.82141 L 16.5089 -7.77937 L 16.5287 -7.73727 L 16.5483 -7.69512 L 16.5679 -7.65292 L 16.5874 -7.61067 L 16.6067 -7.56837 L 16.6259 -7.52602 L 16.6451 -7.48362 L 16.6641 -7.44118 L 16.683 -7.39868 L 16.7018 -7.35614 L 16.7205 -7.31355 L 16.7391 -7.27091 L 16.7575 -7.22823 L 16.7759 -7.1855 L 16.7942 -7.14272 L 16.8123 -7.0999 L 16.8304 -7.05703 L 16.8483 -7.01411 L 16.8661 -6.97115 L 16.8838 -6.92814 L 16.9014 -6.88509 L 16.9189 -6.84199 L 16.9363 -6.79885 L 16.9536 -6.75566 L 16.9707 -6.71243 L 16.9878 -6.66916 L 17.0471 -6.51603 L 17.0637 -6.47256 L 17.0801 -6.42905 L 17.0964 -6.3855 L 17.1126 -6.34191 L 17.1288 -6.29827 L 17.1448 -6.2546 L 17.1606 -6.21088 L 17.1764 -6.16713 L 17.1921 -6.12333 L 17.2076 -6.0795 L 17.2231 -6.03562 L 17.2384 -5.99171 L 17.2536 -5.94776 L 17.2687 -5.90376 L 17.2837 -5.85973 L 17.2986 -5.81567 L 17.3133 -5.77156 L 17.328 -5.72742 L 17.3425 -5.68324 L 17.357 -5.63902 L 17.3713 -5.59477 L 17.3855 -5.55048 L 17.3996 -5.50615 L 17.4135 -5.46179 L 17.4274 -5.41739 L 17.4412 -5.37296 L 17.4548 -5.32849 L 17.4683 -5.28399 L 17.4817 -5.23945 L 17.495 -5.19488 L 17.5082 -5.15028 L 17.5213 -5.10564 L 17.5342 -5.06097 L 17.4968 -5.02277 L 17.4622 -4.97469 L 17.4275 -4.92659 L 17.3927 -4.87847 L 17.3579 -4.83033 L 17.323 -4.78217 L 17.288 -4.73398 L 17.2529 -4.68578 L 17.2178 -4.63756 L 17.1826 -4.58931 L 17.1473 -4.54105 L 17.1119 -4.49277 L 17.0764 -4.44446 L 17.0409 -4.39614 L 17.0053 -4.34779 L 16.9696 -4.29942 L 16.9339 -4.25104 L 16.898 -4.20263 L 16.8621 -4.1542 L 16.8261 -4.10576 L 16.79 -4.05729 L 16.7538 -4.0088 L 16.7176 -3.96029 L 16.6812 -3.91176 L 16.6448 -3.86321 L 16.6082 -3.81465 L 16.5716 -3.76606 L 16.5349 -3.71745 L 16.4982 -3.66882 L 16.4613 -3.62017 L 16.4243 -3.5715 L 16.3873 -3.52281 L 16.3501 -3.4741 L 16.3129 -3.42537 L 16.2755 -3.37662 L 16.2381 -3.32785 L 16.2006 -3.27907 L 16.1629 -3.23026 L 16.1252 -3.18143 L 16.0874 -3.13258 L 16.0495 -3.08372 L 16.0114 -3.03483 L 15.9733 -2.98593 L 15.9733 -2.98593 L 16.0265 -2.9541 L 16.0796 -2.92225 L 16.1327 -2.89038 L 16.1856 -2.8585 L 16.2384 -2.8266 L 16.2911 -2.79468 L 16.3437 -2.76274 L 16.3962 -2.73079 L 16.4487 -2.69882 L 16.501 -2.66683 L 16.5532 -2.63484 L 16.6054 -2.60282 L 16.6574 -2.57079 L 16.7094 -2.53875 L 16.7613 -2.50669 L 16.813 -2.47462 L 16.8647 -2.44254 L 16.9163 -2.41044 L 16.9678 -2.37833 L 17.0193 -2.34621 L 17.0706 -2.31408 L 17.1219 -2.28194 L 17.173 -2.24978 L 17.2241 -2.21761 L 17.2751 -2.18543 L 17.326 -2.15324 L 17.3768 -2.12105 L 17.4276 -2.08884 L 17.4783 -2.05662 L 17.5288 -2.02439 L 17.5793 -1.99215 L 17.6298 -1.9599 L 17.6801 -1.92765 L 17.7304 -1.89538 L 17.7806 -1.86311 L 17.8307 -1.83083 L 17.8807 -1.79854 L 17.9307 -1.76624 L 17.9805 -1.73394 L 18.0303 -1.70163 L 18.0801 -1.66931 L 18.1297 -1.63699 L 18.1784 -1.61488 L 18.1825 -1.56855 L 18.1864 -1.5222 L 18.1902 -1.47585 L 18.1939 -1.42948 L 18.1975 -1.38311 L 18.201 -1.33673 L 18.2043 -1.29034 L 18.2076 -1.24394 L 18.2107 -1.19753 L 18.2137 -1.15112 L 18.2165 -1.10469 L 18.2193 -1.05826 L 18.2219 -1.01183 L 18.2244 -0.965383 L 18.2269 -0.918933 L 18.2291 -0.872477 L 18.2313 -0.826016 L 18.2333 -0.77955 L 18.2353 -0.733078 L 18.2371 -0.686602 L 18.2388 -0.640121 L 18.2403 -0.593636 L 18.2418 -0.547147 L 18.2431 -0.500654 L 18.2443 -0.454159 L 18.2454 -0.40766 L 18.2464 -0.361159 L 18.2473 -0.314655 L 18.248 -0.268149 L 18.2487 -0.221642 L 18.2492 -0.175133 L 18.2495 -0.128623 L 18.2498 -0.0821122Z"
id="path1" />
</g>
</svg>
