<?xml version="1.0" encoding="UTF-8" standalone="no"?>
<svg version="1.1">
<g
style="fill:none;stroke:#000000;stroke-opacity:1;stroke-width:0.1">
<path d="M 19.2498 0.0802179 L 19.2496 0.122771 L 19.2493 0.165323 L 19.2489 0.207874 L 19.2484 0.250424 L 19.2478 0.292973 L 19.2471 0.33552 L 19.2463 0.378066 L 19.2454 0.42061 L 19.2444 0.463152 L 19.2434 0.505692 L 19.2422 0.548229 L 19.2409 0.590764 L 19.2396 0.633295 L 19.2381 0.675824 L 19.2366 0.718349 L 19.235 0.760871 L 19.2332 0.803389 L 19.2314 0.845903 L 19.2295 0.888413 L 19.2275 0.930919 L 19.2254 0.97342 L 19.2232 1.01592 L 19.2209 1.05841 L 19.2185 1.10089 L 19.216 1.14337 L 19.2134 1.18585 L 19.2108 1.22832 L 19.208 1.27078 L 19.2052 1.31324 L 19.2022 1.35569 L 19.1992 1.39813 L 19.196 1.44057 L 19.1928 1.483 L 19.1895 1.52543 L 19.186 1.56784 L 19.1825 1.61025 L 19.1384 1.62757 L 19.0934 1.65405 L 19.0484 1.68052 L 19.0033 1.70698 L 18.9581 1.73345 L 18.913 1.7599 L 18.8678 1.78636 L 18.8225 1.8128 L 18.7772 1.83925 L 18.7318 1.86569 L 18.6864 1.89212 L 18.6409 1.91855 L 18.5954 1.94497 L 18.5498 1.97139 L 18.5042 1.9978 L 18.4585 2.02421 L 18.4128 2.05061 L 18.367 2.077 L 18.3211 2.10339 L 18.2753 2.12977 L 18.2293 2.15615 L 18.1833 2.18252 L 18.1373 2.20888 L 18.0912 2.23524 L 18.045 2.26159 L 17.9988 2.28794 L 17.9525 2.31427 L 17.9062 2.3406 L 17.8598 2.36692 L 17.8134 2.39324 L 17.7669 2.41954 L 17.7203 2.44584 L 17.6737 2.47213 L 17.627 2.49841 L 17.5803 2.52469 L 17.5335 2.55095 L 17.4866 2.57721 L 17.4397 2.60346 L 17.3928 2.6297 L 17.3457 2.65593 L 17.2986 2.68215 L 17.2515 2.70836 L 17.2042 2.73456 L 17.157 2.76075 L 17.1096 2.78693 L 17.0622 2.8131 L 17.0147 2.83926 L 17.0147 2.83926 L 17.0511 2.87941 L 17.0875 2.91956 L 17.1238 2.95969 L 17.16 2.99982 L 17.1961 3.03993 L 17.2322 3.08003 L 17.2683 3.12013 L 17.3042 3.16021 L 17.3401 3.20027 L 17.376 3.24033 L 17.4118 3.28038 L 17.4475 3.32041 L 17.4832 3.36044 L 17.5188 3.40045 L 17.5543 3.44045 L 17.5898 3.48044 L 17.6253 3.52042 L 17.6606 3.56039 L 17.696 3.60035 L 17.7312 3.64029 L 17.7665 3.68023 L 17.8016 3.72015 L 17.8367 3.76006 L 17.8718 3.79996 L 17.9068 3.83985 L 17.9417 3.87972 L 17.9766 3.91959 L 18.0114 3.95944 L 18.0462 3.99928 L 18.0809 4.03911 L 18.1156 4.07893 L 18.1502 4.11874 L 18.1848 4.15854 L 18.2194 4.19832 L 18.2538 4.23809 L 18.2883 4.27785 L 18.3226 4.3176 L 18.357 4.35734 L 18.3912 4.39707 L 18.4255 4.43678 L 18.4597 4.47649 L 18.4938 4.51618 L 18.5279 4.55586 L 18.5619 4.59553 L 18.5959 4.63518 L 18.6299 4.67483 L 18.666 4.70556 L 18.6556 4.74681 L 18.645 4.78804 L 18.6344 4.82924 L 18.6237 4.87042 L 18.6129 4.91158 L 18.602 4.95271 L 18.591 4.99382 L 18.5799 5.0349 L 18.5687 5.07596 L 18.5574 5.117 L 18.5461 5.15801 L 18.5346 5.19899 L 18.5231 5.23995 L 18.5115 5.28088 L 18.4998 5.32179 L 18.4879 5.36267 L 18.476 5.40353 L 18.4641 5.44436 L 18.452 5.48516 L 18.4398 5.52594 L 18.4275 5.56668 L 18.4152 5.60741 L 18.4028 5.6481 L 18.3902 5.68877 L 18.3776 5.7294 L 18.3649 5.77002 L 18.3521 5.8106 L 18.3392 5.85115 L 18.3262 5.89168 L 18.3132 5.93217 L 18.3 5.97264 L 18.2868 6.01308 L 18.2734 6.05349 L 18.26 6.09387 L 18.2465 6.13422 L 18.2329 6.17454 L 18.1808 6.32628 L 18.1667 6.36646 L 18.1526 6.4066 L 18.1384 6.44671 L 18.1241 6.48679 L 18.1097 6.52684 L 18.0953 6.56686 L 18.0807 6.60684 L 18.0661 6.64679 L 18.0513 6.68671 L 18.0365 6.7266 L 18.0216 6.76645 L 18.0066 6.80628 L 17.9915 6.84606 L 17.9763 6.88582 L 17.9611 6.92554 L 17.9457 6.96523 L 17.9303 7.00488 L 17.9147 7.0445 L 17.8991 7.08408 L 17.8834 7.12363 L 17.8676 7.16315 L 17.8517 7.20263 L 17.8358 7.24207 L 17.8197 7.28148 L 17.8036 7.32085 L 17.7874 7.36019 L 17.771 7.39949 L 17.7546 7.43876 L 17.7382 7.47799 L 17.7216 7.51718 L 17.7049 7.55634 L 17.6882 7.59546 L 17.6713 7.63454 L 17.6544 7.67358 L 17.6374 7.71259 L 17.6203 7.75156 L 17.5729 7.7536 L 17.5218 7.76404 L 17.4706 7.77445 L 17.4194 7.78485 L 17.3681 7.79522 L 17.3168 7.80558 L 17.2654 7.81592 L 17.214 7.82623 L 17.1626 7.83652 L 17.1111 7.8468 L 17.0595 7.85705 L 17.0079 7.86728 L 16.9563 7.87749 L 16.9046 7.88768 L 16.8529 7.89785 L 16.8011 7.90799 L 16.7493 7.91811 L 16.6974 7.92821 L 16.6455 7.93829 L 16.5935 7.94834 L 16.5415 7.95837 L 16.4894 7.96838 L 16.4373 7.97836 L 16.3851 7.98832 L 16.3329 7.99825 L 16.2807 8.00816 L 16.2284 8.01805 L 16.176 8.02791 L 16.1236 8.03774 L 16.0711 8.04755 L 16.0186 8.05733 L 15.966 8.06709 L 15.9134 8.07682 L 15.8607 8.08652 L 15.808 8.0962 L 15.7552 8.10585 L 15.7023 8.11547 L 15.6494 8.12506 L 15.5965 8.13463 L 15.5435 8.14416 L 15.4904 8.15367 L 15.4373 8.16315 L 15.3842 8.1726 L 15.3309 8.18202 L 15.2777 8.19141 L 15.2243 8.20077 L 15.1709 8.21009 L 15.1709 8.21009 L 15.1923 8.25989 L 15.2137 8.30967 L 15.2349 8.35941 L 15.2562 8.40912 L 15.2773 8.4588 L 15.2985 8.50844 L 15.3195 8.55806 L 15.3405 8.60765 L 15.3615 8.65721 L 15.3824 8.70673 L 15.4032 8.75623 L 15.424 8.8057 L 15.4447 8.85514 L 15.4654 8.90454 L 15.4861 8.95392 L 15.5067 9.00327 L 15.5272 9.05259 L 15.5477 9.10188 L 15.5681 9.15114 L 15.5885 9.20038 L 15.6088 9.24958 L 15.6291 9.29875 L 15.6494 9.3479 L 15.6696 9.39702 L 15.6897 9.44611 L 15.7098 9.49517 L 15.7299 9.5442 L 15.7499 9.59321 L 15.7698 9.64219 L 15.7898 9.69113 L 15.8096 9.74006 L 15.8295 9.78895 L 15.8492 9.83782 L 15.869 9.88666 L 15.8887 9.93547 L 15.9083 9.98426 L 15.9279 10.033 L 15.9475 10.0817 L 15.967 10.1304 L 15.9865 10.1791 L 16.0059 10.2278 L 16.0253 10.2764 L 16.0447 10.325 L 16.064 10.3736 L 16.0833 10.4221 L 16.1025 10.4706 L 16.1267 10.5114 L 16.1035 10.5471 L 16.0801 10.5826 L 16.0567 10.6182 L 16.0332 10.6536 L 16.0096 10.689 L 15.9859 10.7244 L 15.9622 10.7597 L 15.9383 10.795 L 15.9144 10.8302 L 15.8905 10.8653 L 15.8664 10.9004 L 15.8423 10.9355 L 15.8181 10.9705 L 15.7938 11.0054 L 15.7694 11.0403 L 15.745 11.0751 L 15.7204 11.1099 L 15.6958 11.1446 L 15.6712 11.1793 L 15.6464 11.2139 L 15.6216 11.2485 L 15.5967 11.283 L 15.5717 11.3174 L 15.5467 11.3518 L 15.5215 11.3862 L 15.4963 11.4205 L 15.471 11.4547 L 15.4457 11.4889 L 15.4202 11.523 L 15.3947 11.557 L 15.3691 11.591 L 15.3435 11.625 L 15.3177 11.6589 L 15.2919 11.6927 L 15.2661 11.7265 L 15.2401 11.7602 L 15.1416 11.8868 L 15.1152 11.9202 L 15.0889 11.9536 L 15.0624 11.9869 L 15.0359 12.0202 L 15.0092 12.0534 L 14.9826 12.0866 L 14.9558 12.1197 L 14.929 12.1527 L 14.9021 12.1857 L 14.8751 12.2186 L 14.8481 12.2514 L 14.8209 12.2842 L 14.7938 12.317 L 14.7665 12.3496 L 14.7392 12.3822 L 14.7117 12.4148 L 14.6843 12.4473 L 14.6567 12.4797 L 14.6291 12.5121 L 14.6014 12.5444 L 14.5736 12.5766 L 14.5458 12.6088 L 14.5179 12.6409 L 14.4899 12.673 L 14.4619 12.705 L 14.4337 12.7369 L 14.4055 12.7688 L 14.3773 12.8006 L 14.349 12.8324 L 14.3206 12.8641 L 14.2921 12.8957 L 14.2635 12.9273 L 14.2349 12.9588 L 14.2062 12.9902 L 14.1775 13.0216 L 14.1487 13.0529 L 14.1032 13.0394 L 14.0514 13.0327 L 13.9996 13.0259 L 13.9478 13.0191 L 13.8959 13.0123 L 13.844 13.0054 L 13.7921 12.9985 L 13.7401 12.9916 L 13.6881 12.9846 L 13.6361 12.9776 L 13.584 12.9705 L 13.5319 12.9635 L 13.4797 12.9564 L 13.4275 12.9492 L 13.3753 12.942 L 13.323 12.9348 L 13.2707 12.9276 L 13.2184 12.9203 L 13.166 12.9129 L 13.1136 12.9056 L 13.0612 12.8982 L 13.0087 12.8907 L 12.9561 12.8833 L 12.9036 12.8757 L 12.8509 12.8682 L 12.7983 12.8606 L 12.7456 12.8529 L 12.6929 12.8453 L 12.6401 12.8375 L 12.5873 12.8298 L 12.5344 12.822 L 12.4815 12.8141 L 12.4286 12.8063 L 12.3756 12.7983 L 12.3226 12.7904 L 12.2696 12.7824 L 12.2165 12.7743 L 12.1633 12.7662 L 12.1101 12.758 L 12.0569 12.7499 L 12.0036 12.7416 L 11.9503 12.7333 L 11.897 12.725 L 11.8436 12.7166 L 11.7901 12.7082 L 11.7366 12.6998 L 11.6831 12.6912 L 11.6831 12.6912 L 11.6872 12.7453 L 11.6912 12.7993 L 11.6952 12.8532 L 11.6991 12.9072 L 11.703 12.961 L 11.7069 13.0148 L 11.7107 13.0686 L 11.7144 13.1223 L 11.7182 13.176 L 11.7218 13.2296 L 11.7255 13.2832 L 11.7291 13.3367 L 11.7326 13.3902 L 11.7362 13.4437 L 11.7397 13.4971 L 11.7431 13.5505 L 11.7465 13.6038 L 11.7499 13.657 L 11.7532 13.7103 L 11.7565 13.7635 L 11.7598 13.8166 L 11.763 13.8697 L 11.7662 13.9228 L 11.7693 13.9758 L 11.7725 14.0287 L 11.7755 14.0817 L 11.7786 14.1346 L 11.7816 14.1874 L 11.7846 14.2402 L 11.7875 14.293 L 11.7904 14.3457 L 11.7933 14.3984 L 11.7962 14.451 L 11.799 14.5036 L 11.8017 14.5562 L 11.8045 14.6087 L 11.8072 14.6612 L 11.8099 14.7136 L 11.8125 14.766 L 11.8152 14.8184 L 11.8177 14.8707 L 11.8203 14.923 L 11.8228 14.9753 L 11.8253 15.0275 L 11.8278 15.0797 L 11.8302 15.1318 L 11.8399 15.1783 L 11.8063 15.2044 L 11.7727 15.2304 L 11.739 15.2564 L 11.7052 15.2823 L 11.6714 15.3082 L 11.6375 15.3339 L 11.6036 15.3596 L 11.5696 15.3852 L 11.5356 15.4108 L 11.5015 15.4362 L 11.4674 15.4616 L 11.4332 15.4869 L 11.3989 15.5122 L 11.3646 15.5373 L 11.3302 15.5624 L 11.2958 15.5874 L 11.2613 15.6124 L 11.2267 15.6372 L 11.1921 15.662 L 11.1575 15.6867 L 11.1228 15.7113 L 11.088 15.7359 L 11.0532 15.7604 L 11.0184 15.7847 L 10.9834 15.8091 L 10.9485 15.8333 L 10.9134 15.8575 L 10.8784 15.8816 L 10.8432 15.9056 L 10.808 15.9295 L 10.7728 15.9533 L 10.7375 15.9771 L 10.7022 16.0008 L 10.6668 16.0244 L 10.6313 16.048 L 10.5958 16.0714 L 10.4615 16.1592 L 10.4258 16.1823 L 10.39 16.2053 L 10.3541 16.2282 L 10.3182 16.2511 L 10.2823 16.2738 L 10.2463 16.2965 L 10.2102 16.3191 L 10.1741 16.3417 L 10.138 16.3641 L 10.1018 16.3865 L 10.0655 16.4088 L 10.0292 16.431 L 9.99288 16.4531 L 9.95648 16.4752 L 9.92004 16.4971 L 9.88355 16.519 L 9.84701 16.5408 L 9.81042 16.5626 L 9.77378 16.5842 L 9.7371 16.6058 L 9.70037 16.6272 L 9.66359 16.6487 L 9.62676 16.67 L 9.58989 16.6912 L 9.55297 16.7124 L 9.516 16.7334 L 9.47899 16.7544 L 9.44193 16.7754 L 9.40482 16.7962 L 9.36767 16.8169 L 9.33047 16.8376 L 9.29323 16.8582 L 9.25594 16.8787 L 9.21861 16.8991 L 9.18123 16.9194 L 9.1438 16.9397 L 9.10514 16.9122 L 9.05838 16.889 L 9.01159 16.8658 L 8.96478 16.8425 L 8.91794 16.8192 L 8.87109 16.7959 L 8.82421 16.7725 L 8.7773 16.7491 L 8.73038 16.7256 L 8.68343 16.7021 L 8.63645 16.6785 L 8.58946 16.6549 L 8.54244 16.6312 L 8.4954 16.6075 L 8.44833 16.5838 L 8.40124 16.56 L 8.35413 16.5361 L 8.30699 16.5122 L 8.25983 16.4883 L 8.21264 16.4643 L 8.16543 16.4403 L 8.1182 16.4162 L 8.07094 16.3921 L 8.02366 16.3679 L 7.97635 16.3436 L 7.92902 16.3194 L 7.88166 16.295 L 7.83428 16.2706 L 7.78688 16.2462 L 7.73945 16.2217 L 7.69199 16.1972 L 7.64451 16.1726 L 7.597 16.1479 L 7.54947 16.1232 L 7.50192 16.0985 L 7.45434 16.0737 L 7.40673 16.0488 L 7.3591 16.0239 L 7.31144 15.9989 L 7.26376 15.9739 L 7.21605 15.9488 L 7.16831 15.9237 L 7.12055 15.8985 L 7.07276 15.8732 L 7.02495 15.8479 L 6.97711 15.8225 L 6.92925 15.7971 L 6.92925 15.7971 L 6.91554 15.8495 L 6.90181 15.9019 L 6.88805 15.9542 L 6.87427 16.0065 L 6.86046 16.0587 L 6.84663 16.1109 L 6.83278 16.163 L 6.8189 16.215 L 6.80499 16.267 L 6.79106 16.3189 L 6.77711 16.3707 L 6.76314 16.4226 L 6.74914 16.4743 L 6.73512 16.526 L 6.72108 16.5776 L 6.70701 16.6292 L 6.69292 16.6808 L 6.67882 16.7322 L 6.66469 16.7837 L 6.65054 16.835 L 6.63637 16.8864 L 6.62217 16.9376 L 6.60796 16.9889 L 6.59373 17.04 L 6.57948 17.0911 L 6.5652 17.1422 L 6.55091 17.1932 L 6.5366 17.2442 L 6.52227 17.2951 L 6.50792 17.3459 L 6.49356 17.3968 L 6.47917 17.4475 L 6.46477 17.4982 L 6.45035 17.5489 L 6.43591 17.5995 L 6.42145 17.6501 L 6.40698 17.7006 L 6.39249 17.7511 L 6.37798 17.8015 L 6.36345 17.8519 L 6.34891 17.9022 L 6.33435 17.9525 L 6.31978 18.0027 L 6.30519 18.0529 L 6.29058 18.1031 L 6.27596 18.1532 L 6.27001 18.2003 L 6.22976 18.2141 L 6.18948 18.2278 L 6.14917 18.2414 L 6.10884 18.255 L 6.06847 18.2684 L 6.02807 18.2818 L 5.98764 18.2951 L 5.94718 18.3083 L 5.9067 18.3214 L 5.86618 18.3344 L 5.82564 18.3473 L 5.78507 18.3602 L 5.74447 18.3729 L 5.70384 18.3856 L 5.66318 18.3981 L 5.6225 18.4106 L 5.58179 18.423 L 5.54105 18.4353 L 5.50028 18.4475 L 5.45949 18.4596 L 5.41867 18.4716 L 5.37783 18.4835 L 5.33695 18.4954 L 5.29606 18.5071 L 5.25513 18.5188 L 5.21418 18.5304 L 5.17321 18.5419 L 5.13221 18.5532 L 5.09118 18.5645 L 5.05013 18.5758 L 5.00906 18.5869 L 4.96796 18.5979 L 4.92683 18.6088 L 4.88569 18.6197 L 4.84451 18.6304 L 4.80332 18.6411 L 4.64779 18.6805 L 4.60649 18.6907 L 4.56516 18.7009 L 4.52381 18.7109 L 4.48243 18.7209 L 4.44104 18.7307 L 4.39962 18.7405 L 4.35819 18.7502 L 4.31673 18.7598 L 4.27525 18.7693 L 4.23375 18.7787 L 4.19223 18.788 L 4.15068 18.7972 L 4.10912 18.8063 L 4.06754 18.8154 L 4.02594 18.8243 L 3.98431 18.8332 L 3.94267 18.8419 L 3.90101 18.8506 L 3.85933 18.8592 L 3.81763 18.8676 L 3.77592 18.876 L 3.73418 18.8843 L 3.69243 18.8926 L 3.65065 18.9007 L 3.60886 18.9087 L 3.56706 18.9166 L 3.52523 18.9245 L 3.48339 18.9322 L 3.44153 18.9399 L 3.39966 18.9474 L 3.35776 18.9549 L 3.31585 18.9623 L 3.27393 18.9696 L 3.23199 18.9767 L 3.19003 18.9838 L 3.14806 18.9908 L 3.12042 18.9523 L 3.08371 18.9152 L 3.047 18.878 L 3.01028 18.8408 L 2.97355 18.8036 L 2.93681 18.7663 L 2.90007 18.7289 L 2.86331 18.6915 L 2.82655 18.6541 L 2.78979 18.6166 L 2.75301 18.5791 L 2.71623 18.5415 L 2.67944 18.5038 L 2.64264 18.4661 L 2.60584 18.4284 L 2.56903 18.3906 L 2.53221 18.3527 L 2.49538 18.3148 L 2.45855 18.2769 L 2.42171 18.2389 L 2.38486 18.2008 L 2.348 18.1627 L 2.31114 18.1245 L 2.27427 18.0863 L 2.2374 18.048 L 2.20051 18.0097 L 2.16363 17.9713 L 2.12673 17.9328 L 2.08983 17.8943 L 2.05292 17.8558 L 2.016 17.8172 L 1.97908 17.7785 L 1.94215 17.7397 L 1.90521 17.701 L 1.86827 17.6621 L 1.83132 17.6232 L 1.79437 17.5842 L 1.75741 17.5452 L 1.72044 17.5061 L 1.68347 17.4669 L 1.64649 17.4277 L 1.6095 17.3884 L 1.57251 17.3491 L 1.53552 17.3097 L 1.49851 17.2702 L 1.46151 17.2307 L 1.42449 17.1911 L 1.42449 17.1911 L 1.3945 17.2362 L 1.36451 17.2813 L 1.33451 17.3263 L 1.3045 17.3713 L 1.27449 17.4162 L 1.24448 17.461 L 1.21446 17.5058 L 1.18443 17.5505 L 1.1544 17.5951 L 1.12437 17.6397 L 1.09434 17.6843 L 1.0643 17.7287 L 1.03425 17.7731 L 1.00421 17.8175 L 0.974156 17.8618 L 0.944103 17.906 L 0.914047 17.9501 L 0.883987 17.9943 L 0.853925 18.0383 L 0.823861 18.0823 L 0.793793 18.1262 L 0.763723 18.1701 L 0.733651 18.214 L 0.703577 18.2577 L 0.6735 18.3014 L 0.643422 18.3451 L 0.613341 18.3887 L 0.583259 18.4323 L 0.553175 18.4758 L 0.523089 18.5192 L 0.493002 18.5626 L 0.462914 18.6059 L 0.432824 18.6492 L 0.402733 18.6925 L 0.372641 18.7357 L 0.342548 18.7788 L 0.312454 18.8219 L 0.282359 18.8649 L 0.252264 18.9079 L 0.222168 18.9508 L 0.192071 18.9937 L 0.161974 19.0365 L 0.131876 19.0793 L 0.101778 19.1221 L 0.0716795 19.1648 L 0.041581 19.2074 L 0.0206684 19.25 L -0.0218848 19.25 L -0.0644379 19.2499 L -0.106991 19.2497 L -0.149543 19.2494 L -0.192094 19.249 L -0.234645 19.2486 L -0.277194 19.248 L -0.319742 19.2473 L -0.362289 19.2466 L -0.404834 19.2457 L -0.447376 19.2448 L -0.489917 19.2438 L -0.532455 19.2426 L -0.574991 19.2414 L -0.617524 19.2401 L -0.660053 19.2387 L -0.70258 19.2372 L -0.745103 19.2356 L -0.787622 19.2339 L -0.830138 19.2321 L -0.872649 19.2302 L -0.915157 19.2282 L -0.95766 19.2262 L -1.00016 19.224 L -1.04265 19.2217 L -1.08514 19.2194 L -1.12762 19.2169 L -1.1701 19.2144 L -1.21257 19.2118 L -1.25504 19.209 L -1.2975 19.2062 L -1.33995 19.2033 L -1.3824 19.2003 L -1.42484 19.1972 L -1.46727 19.194 L -1.50969 19.1907 L -1.66958 19.1775 L -1.71197 19.1737 L -1.75435 19.1699 L -1.79672 19.166 L -1.83909 19.1619 L -1.88144 19.1578 L -1.92379 19.1536 L -1.96612 19.1493 L -2.00845 19.1449 L -2.05076 19.1405 L -2.09307 19.1359 L -2.13536 19.1312 L -2.17765 19.1264 L -2.21992 19.1216 L -2.26219 19.1166 L -2.30444 19.1116 L -2.34668 19.1064 L -2.38891 19.1012 L -2.43113 19.0959 L -2.47334 19.0904 L -2.51553 19.0849 L -2.55771 19.0793 L -2.59988 19.0736 L -2.64204 19.0678 L -2.68418 19.0619 L -2.72632 19.056 L -2.76843 19.0499 L -2.81054 19.0437 L -2.85263 19.0375 L -2.8947 19.0311 L -2.93677 19.0247 L -2.97881 19.0181 L -3.02085 19.0115 L -3.06287 19.0048 L -3.10487 18.998 L -3.14686 18.991 L -3.18883 18.984 L -3.20245 18.9386 L -3.22512 18.8916 L -3.24778 18.8445 L -3.27043 18.7974 L -3.29308 18.7503 L -3.31571 18.703 L -3.33834 18.6558 L -3.36096 18.6085 L -3.38357 18.5611 L -3.40617 18.5137 L -3.42876 18.4663 L -3.45135 18.4188 L -3.47392 18.3712 L -3.49648 18.3236 L -3.51904 18.276 L -3.54158 18.2283 L -3.56412 18.1805 L -3.58664 18.1327 L -3.60915 18.0849 L -3.63166 18.037 L -3.65415 17.989 L -3.67663 17.941 L -3.6991 17.8929 L -3.72156 17.8448 L -3.74401 17.7966 L -3.76645 17.7484 L -3.78887 17.7001 L -3.81129 17.6517 L -3.83369 17.6033 L -3.85608 17.5549 L -3.87845 17.5064 L -3.90082 17.4578 L -3.92317 17.4092 L -3.94551 17.3605 L -3.96783 17.3117 L -3.99014 17.2629 L -4.01244 17.2141 L -4.03473 17.1652 L -4.057 17.1162 L -4.07925 17.0671 L -4.10149 17.018 L -4.12372 16.9689 L -4.14593 16.9197 L -4.16813 16.8704 L -4.19031 16.821 L -4.21247 16.7716 L -4.23462 16.7222 L -4.23462 16.7222 L -4.27765 16.7551 L -4.32066 16.788 L -4.36365 16.8209 L -4.40663 16.8536 L -4.44959 16.8864 L -4.49254 16.919 L -4.53547 16.9516 L -4.57838 16.9842 L -4.62128 17.0166 L -4.66416 17.049 L -4.70703 17.0814 L -4.74988 17.1137 L -4.79271 17.1459 L -4.83553 17.1781 L -4.87833 17.2103 L -4.92111 17.2423 L -4.96388 17.2743 L -5.00664 17.3063 L -5.04937 17.3382 L -5.09209 17.3701 L -5.1348 17.4019 L -5.17749 17.4336 L -5.22016 17.4653 L -5.26282 17.4969 L -5.30546 17.5285 L -5.34809 17.56 L -5.3907 17.5915 L -5.43329 17.6229 L -5.47587 17.6543 L -5.51843 17.6856 L -5.56098 17.7169 L -5.60351 17.7481 L -5.64602 17.7793 L -5.68852 17.8104 L -5.73101 17.8415 L -5.77348 17.8725 L -5.81593 17.9035 L -5.85837 17.9344 L -5.90079 17.9653 L -5.94319 17.9962 L -5.98558 18.0269 L -6.02796 18.0577 L -6.07032 18.0884 L -6.11266 18.119 L -6.15499 18.1496 L -6.19731 18.1802 L -6.23091 18.2137 L -6.27116 18.1999 L -6.31138 18.186 L -6.35156 18.172 L -6.39172 18.1579 L -6.43184 18.1437 L -6.47193 18.1294 L -6.51199 18.1151 L -6.55202 18.1006 L -6.59202 18.0861 L -6.63198 18.0715 L -6.67191 18.0568 L -6.71181 18.042 L -6.75168 18.0271 L -6.79151 18.0122 L -6.83131 17.9971 L -6.87108 17.982 L -6.91081 17.9667 L -6.95051 17.9514 L -6.99018 17.936 L -7.02981 17.9205 L -7.06941 17.9049 L -7.10897 17.8892 L -7.1485 17.8735 L -7.18799 17.8576 L -7.22745 17.8417 L -7.26687 17.8257 L -7.30626 17.8096 L -7.34561 17.7934 L -7.38492 17.7771 L -7.4242 17.7607 L -7.46344 17.7443 L -7.50265 17.7277 L -7.54182 17.7111 L -7.58095 17.6944 L -7.62005 17.6776 L -7.65911 17.6607 L -7.80603 17.5963 L -7.84491 17.579 L -7.88375 17.5616 L -7.92255 17.5441 L -7.96131 17.5266 L -8.00004 17.5089 L -8.03872 17.4912 L -8.07737 17.4734 L -8.11597 17.4555 L -8.15454 17.4375 L -8.19307 17.4194 L -8.23155 17.4013 L -8.27 17.383 L -8.30841 17.3647 L -8.34677 17.3463 L -8.3851 17.3278 L -8.42338 17.3092 L -8.46162 17.2906 L -8.49982 17.2718 L -8.53798 17.253 L -8.5761 17.2341 L -8.61418 17.2151 L -8.65221 17.196 L -8.6902 17.1768 L -8.72815 17.1576 L -8.76606 17.1382 L -8.80392 17.1188 L -8.84174 17.0993 L -8.87952 17.0797 L -8.91725 17.06 L -8.95494 17.0403 L -8.99259 17.0205 L -9.03019 17.0005 L -9.06775 16.9805 L -9.10526 16.9604 L -9.14273 16.9403 L -9.18016 16.92 L -9.17828 16.8726 L -9.18446 16.8208 L -9.19061 16.7689 L -9.19674 16.717 L -9.20285 16.6651 L -9.20893 16.6131 L -9.21499 16.561 L -9.22102 16.5089 L -9.22703 16.4568 L -9.23302 16.4046 L -9.23898 16.3524 L -9.24492 16.3002 L -9.25083 16.2479 L -9.25671 16.1955 L -9.26257 16.1431 L -9.26841 16.0907 L -9.27421 16.0382 L -9.27999 15.9857 L -9.28575 15.9331 L -9.29148 15.8805 L -9.29718 15.8278 L -9.30285 15.7751 L -9.30849 15.7223 L -9.31411 15.6695 L -9.3197 15.6167 L -9.32526 15.5638 L -9.33079 15.5108 L -9.33629 15.4578 L -9.34176 15.4047 L -9.34721 15.3516 L -9.35262 15.2985 L -9.358 15.2453 L -9.36335 15.192 L -9.36867 15.1387 L -9.37396 15.0854 L -9.37922 15.032 L -9.38444 14.9785 L -9.38963 14.925 L -9.39479 14.8715 L -9.39992 14.8179 L -9.40501 14.7642 L -9.41007 14.7105 L -9.4151 14.6567 L -9.42009 14.6029 L -9.42505 14.549 L -9.42997 14.4951 L -9.43486 14.4411 L -9.43486 14.4411 L -9.48625 14.4583 L -9.53762 14.4755 L -9.58895 14.4926 L -9.64024 14.5096 L -9.6915 14.5266 L -9.74272 14.5436 L -9.79391 14.5605 L -9.84506 14.5773 L -9.89618 14.5941 L -9.94726 14.6108 L -9.99831 14.6275 L -10.0493 14.6442 L -10.1003 14.6607 L -10.1513 14.6773 L -10.2022 14.6938 L -10.2531 14.7102 L -10.3039 14.7266 L -10.3547 14.743 L -10.4055 14.7593 L -10.4562 14.7755 L -10.507 14.7917 L -10.5576 14.8079 L -10.6083 14.824 L -10.6589 14.8401 L -10.7095 14.8561 L -10.76 14.8721 L -10.8106 14.888 L -10.8611 14.9039 L -10.9115 14.9197 L -10.9619 14.9355 L -11.0123 14.9513 L -11.0627 14.967 L -11.113 14.9827 L -11.1633 14.9983 L -11.2136 15.0139 L -11.2639 15.0295 L -11.3141 15.045 L -11.3642 15.0605 L -11.4144 15.0759 L -11.4645 15.0913 L -11.5146 15.1067 L -11.5647 15.122 L -11.6147 15.1373 L -11.6647 15.1525 L -11.7147 15.1677 L -11.7646 15.1829 L -11.8073 15.2036 L -11.8409 15.1775 L -11.8744 15.1513 L -11.9078 15.125 L -11.9412 15.0986 L -11.9746 15.0722 L -12.0079 15.0457 L -12.0411 15.0191 L -12.0743 14.9925 L -12.1074 14.9657 L -12.1405 14.9389 L -12.1734 14.9121 L -12.2064 14.8851 L -12.2393 14.8581 L -12.2721 14.831 L -12.3048 14.8038 L -12.3375 14.7766 L -12.3702 14.7493 L -12.4027 14.7219 L -12.4352 14.6945 L -12.4677 14.6669 L -12.5001 14.6393 L -12.5324 14.6117 L -12.5647 14.5839 L -12.5969 14.5561 L -12.629 14.5282 L -12.6611 14.5003 L -12.6931 14.4723 L -12.7251 14.4442 L -12.757 14.416 L -12.7888 14.3878 L -12.8206 14.3595 L -12.8523 14.3311 L -12.884 14.3026 L -12.9156 14.2741 L -12.9471 14.2455 L -12.9785 14.2169 L -13.0966 14.1082 L -13.1277 14.0792 L -13.1588 14.0502 L -13.1898 14.0211 L -13.2208 13.9919 L -13.2517 13.9626 L -13.2825 13.9333 L -13.3133 13.9039 L -13.344 13.8744 L -13.3746 13.8449 L -13.4052 13.8153 L -13.4357 13.7856 L -13.4662 13.7559 L -13.4965 13.7261 L -13.5269 13.6962 L -13.5571 13.6663 L -13.5873 13.6363 L -13.6174 13.6062 L -13.6474 13.5761 L -13.6774 13.5459 L -13.7073 13.5156 L -13.7372 13.4853 L -13.7669 13.4549 L -13.7966 13.4244 L -13.8263 13.3939 L -13.8559 13.3633 L -13.8854 13.3326 L -13.9148 13.3019 L -13.9442 13.2711 L -13.9735 13.2403 L -14.0027 13.2093 L -14.0319 13.1783 L -14.061 13.1473 L -14.09 13.1162 L -14.119 13.085 L -14.1479 13.0538 L -14.1767 13.0225 L -14.1595 12.9782 L -14.1485 12.9272 L -14.1375 12.8761 L -14.1264 12.8251 L -14.1153 12.7739 L -14.1042 12.7228 L -14.093 12.6716 L -14.0818 12.6204 L -14.0706 12.5691 L -14.0593 12.5178 L -14.048 12.4665 L -14.0367 12.4152 L -14.0253 12.3638 L -14.0138 12.3123 L -14.0024 12.2609 L -13.9909 12.2094 L -13.9793 12.1579 L -13.9677 12.1063 L -13.9561 12.0547 L -13.9444 12.0031 L -13.9327 11.9514 L -13.921 11.8997 L -13.9092 11.848 L -13.8973 11.7962 L -13.8855 11.7444 L -13.8735 11.6926 L -13.8616 11.6407 L -13.8496 11.5888 L -13.8375 11.5368 L -13.8254 11.4848 L -13.8133 11.4328 L -13.8011 11.3807 L -13.7889 11.3286 L -13.7766 11.2765 L -13.7643 11.2243 L -13.7519 11.1721 L -13.7395 11.1198 L -13.727 11.0675 L -13.7145 11.0152 L -13.702 10.9628 L -13.6894 10.9104 L -13.6767 10.858 L -13.664 10.8055 L -13.6512 10.753 L -13.6384 10.7004 L -13.6256 10.6478 L -13.6127 10.5952 L -13.6127 10.5952 L -13.6669 10.5948 L -13.721 10.5943 L -13.7751 10.5938 L -13.8292 10.5933 L -13.8832 10.5927 L -13.9371 10.5921 L -13.991 10.5915 L -14.0449 10.5908 L -14.0987 10.5901 L -14.1524 10.5893 L -14.2061 10.5885 L -14.2598 10.5877 L -14.3134 10.5868 L -14.3669 10.5859 L -14.4204 10.585 L -14.4739 10.584 L -14.5273 10.583 L -14.5807 10.582 L -14.634 10.5809 L -14.6873 10.5798 L -14.7405 10.5787 L -14.7937 10.5775 L -14.8468 10.5763 L -14.8999 10.575 L -14.953 10.5738 L -15.006 10.5725 L -15.0589 10.5711 L -15.1119 10.5698 L -15.1647 10.5684 L -15.2176 10.567 L -15.2703 10.5655 L -15.3231 10.564 L -15.3758 10.5625 L -15.4284 10.561 L -15.481 10.5594 L -15.5336 10.5578 L -15.5861 10.5562 L -15.6386 10.5545 L -15.6911 10.5528 L -15.7435 10.5511 L -15.7958 10.5494 L -15.8482 10.5476 L -15.9004 10.5458 L -15.9527 10.544 L -16.0049 10.5421 L -16.0571 10.5403 L -16.1041 10.546 L -16.1274 10.5104 L -16.1506 10.4747 L -16.1737 10.439 L -16.1968 10.4032 L -16.2197 10.3674 L -16.2426 10.3315 L -16.2654 10.2956 L -16.2881 10.2596 L -16.3108 10.2236 L -16.3333 10.1875 L -16.3558 10.1514 L -16.3782 10.1152 L -16.4005 10.079 L -16.4228 10.0427 L -16.4449 10.0064 L -16.467 9.96999 L -16.489 9.93356 L -16.5109 9.89709 L -16.5327 9.86056 L -16.5545 9.82399 L -16.5762 9.78738 L -16.5978 9.75071 L -16.6193 9.71399 L -16.6407 9.67723 L -16.6621 9.64042 L -16.6833 9.60357 L -16.7045 9.56667 L -16.7256 9.52972 L -16.7467 9.49272 L -16.7676 9.45568 L -16.7885 9.41859 L -16.8092 9.38145 L -16.8299 9.34427 L -16.8506 9.30705 L -16.8711 9.26977 L -16.8915 9.23246 L -16.9679 9.09136 L -16.988 9.05383 L -17.0079 9.01625 L -17.0278 8.97863 L -17.0476 8.94097 L -17.0673 8.90326 L -17.087 8.86551 L -17.1065 8.82772 L -17.126 8.78988 L -17.1454 8.752 L -17.1647 8.71408 L -17.1839 8.67612 L -17.2031 8.63811 L -17.2221 8.60006 L -17.2411 8.56197 L -17.26 8.52384 L -17.2788 8.48566 L -17.2975 8.44745 L -17.3161 8.40919 L -17.3347 8.37089 L -17.3531 8.33255 L -17.3715 8.29417 L -17.3898 8.25575 L -17.408 8.21729 L -17.4261 8.17879 L -17.4442 8.14024 L -17.4621 8.10166 L -17.48 8.06304 L -17.4978 8.02438 L -17.5155 7.98568 L -17.5331 7.94694 L -17.5506 7.90817 L -17.568 7.86935 L -17.5854 7.8305 L -17.6027 7.7916 L -17.6198 7.75267 L -17.6369 7.7137 L -17.6063 7.67745 L -17.5794 7.63275 L -17.5524 7.58804 L -17.5253 7.54331 L -17.4982 7.49856 L -17.4711 7.45379 L -17.4439 7.409 L -17.4167 7.3642 L -17.3894 7.31937 L -17.3621 7.27452 L -17.3347 7.22966 L -17.3073 7.18477 L -17.2798 7.13987 L -17.2523 7.09494 L -17.2248 7.05 L -17.1972 7.00503 L -17.1695 6.96005 L -17.1418 6.91505 L -17.1141 6.87002 L -17.0863 6.82498 L -17.0584 6.77992 L -17.0305 6.73483 L -17.0026 6.68973 L -16.9746 6.6446 L -16.9465 6.59946 L -16.9184 6.55429 L -16.8902 6.50911 L -16.862 6.4639 L -16.8338 6.41868 L -16.8054 6.37343 L -16.7771 6.32817 L -16.7486 6.28288 L -16.7201 6.23757 L -16.6916 6.19224 L -16.663 6.14689 L -16.6344 6.10152 L -16.6057 6.05613 L -16.5769 6.01072 L -16.5481 5.96529 L -16.5192 5.91983 L -16.4902 5.87436 L -16.4612 5.82886 L -16.4322 5.78334 L -16.4031 5.73781 L -16.3739 5.69225 L -16.3446 5.64667 L -16.3153 5.60107 L -16.3153 5.60107 L -16.3665 5.58308 L -16.4175 5.56507 L -16.4686 5.54704 L -16.5195 5.52899 L -16.5704 5.51091 L -16.6212 5.49282 L -16.672 5.47471 L -16.7227 5.45658 L -16.7734 5.43843 L -16.8239 5.42027 L -16.8745 5.40208 L -16.925 5.38387 L -16.9754 5.36565 L -17.0257 5.34741 L -17.076 5.32915 L -17.1263 5.31087 L -17.1765 5.29258 L -17.2266 5.27427 L -17.2767 5.25594 L -17.3267 5.23759 L -17.3767 5.21923 L -17.4266 5.20086 L -17.4765 5.18246 L -17.5263 5.16405 L -17.5761 5.14563 L -17.6258 5.12719 L -17.6755 5.10873 L -17.7251 5.09026 L -17.7746 5.07178 L -17.8241 5.05328 L -17.8736 5.03477 L -17.923 5.01624 L -17.9723 4.9977 L -18.0216 4.97914 L -18.0709 4.96057 L -18.1201 4.94199 L -18.1692 4.92339 L -18.2183 4.90478 L -18.2674 4.88616 L -18.3164 4.86752 L -18.3654 4.84887 L -18.4143 4.83021 L -18.4631 4.81154 L -18.512 4.79285 L -18.5607 4.77416 L -18.6095 4.75545 L -18.6559 4.74563 L -18.6663 4.70438 L -18.6767 4.6631 L -18.6869 4.62181 L -18.6971 4.58049 L -18.7072 4.53914 L -18.7172 4.49778 L -18.7271 4.45639 L -18.7369 4.41499 L -18.7466 4.37356 L -18.7562 4.3321 L -18.7657 4.29063 L -18.7752 4.24914 L -18.7845 4.20763 L -18.7938 4.16609 L -18.8029 4.12454 L -18.812 4.08296 L -18.821 4.04137 L -18.8299 3.99975 L -18.8387 3.95812 L -18.8474 3.91646 L -18.856 3.87479 L -18.8645 3.8331 L -18.8729 3.79139 L -18.8813 3.74966 L -18.8895 3.70791 L -18.8977 3.66615 L -18.9057 3.62436 L -18.9137 3.58256 L -18.9216 3.54074 L -18.9293 3.49891 L -18.937 3.45706 L -18.9446 3.41519 L -18.9521 3.3733 L -18.9595 3.3314 L -18.9669 3.28948 L -18.9741 3.24754 L -19.0005 3.08929 L -19.0073 3.04729 L -19.014 3.00526 L -19.0206 2.96322 L -19.0271 2.92117 L -19.0335 2.8791 L -19.0398 2.83702 L -19.046 2.79492 L -19.0522 2.75282 L -19.0582 2.71069 L -19.0641 2.66856 L -19.07 2.62641 L -19.0757 2.58425 L -19.0814 2.54207 L -19.087 2.49989 L -19.0925 2.45769 L -19.0979 2.41548 L -19.1031 2.37325 L -19.1083 2.33102 L -19.1135 2.28877 L -19.1185 2.24652 L -19.1234 2.20425 L -19.1282 2.16197 L -19.1329 2.11968 L -19.1376 2.07738 L -19.1421 2.03507 L -19.1466 1.99275 L -19.1509 1.95042 L -19.1552 1.90808 L -19.1594 1.86574 L -19.1634 1.82338 L -19.1674 1.78101 L -19.1713 1.73864 L -19.1751 1.69625 L -19.1788 1.65386 L -19.1824 1.61146 L -19.1859 1.56905 L -19.1452 1.5447 L -19.1052 1.51118 L -19.0652 1.47766 L -19.0251 1.44413 L -18.9849 1.41061 L -18.9447 1.37707 L -18.9044 1.34354 L -18.8641 1.31 L -18.8238 1.27646 L -18.7834 1.24291 L -18.7429 1.20936 L -18.7024 1.17581 L -18.6619 1.14225 L -18.6213 1.1087 L -18.5806 1.07513 L -18.5399 1.04157 L -18.4992 1.008 L -18.4583 0.974431 L -18.4175 0.940857 L -18.3766 0.907281 L -18.3356 0.873703 L -18.2945 0.840121 L -18.2535 0.806537 L -18.2123 0.772951 L -18.1711 0.739362 L -18.1299 0.705771 L -18.0886 0.672178 L -18.0472 0.638583 L -18.0058 0.604986 L -17.9643 0.571387 L -17.9228 0.537786 L -17.8812 0.504183 L -17.8395 0.470578 L -17.7978 0.436972 L -17.7561 0.403365 L -17.7142 0.369756 L -17.6723 0.336146 L -17.6304 0.302535 L -17.5884 0.268923 L -17.5463 0.235309 L -17.5042 0.201695 L -17.462 0.168081 L -17.4197 0.134465 L -17.3774 0.100849 L -17.335 0.0672331 L -17.2925 0.0336166 L -17.25 2.66454e-15 L -17.25 1.5605e-15 L -17.2925 -0.0336166 L -17.335 -0.0672331 L -17.3774 -0.100849 L -17.4197 -0.134465 L -17.462 -0.168081 L -17.5042 -0.201695 L -17.5463 -0.235309 L -17.5884 -0.268923 L -17.6304 -0.302535 L -17.6723 -0.336146 L -17.7142 -0.369756 L -17.7561 -0.403365 L -17.7978 -0.436972 L -17.8395 -0.470578 L -17.8812 -0.504183 L -17.9228 -0.537786 L -17.9643 -0.571387 L -18.0058 -0.604986 L -18.0472 -0.638583 L -18.0886 -0.672178 L -18.1299 -0.705771 L -18.1711 -0.739362 L -18.2123 -0.772951 L -18.2535 -0.806537 L -18.2945 -0.840121 L -18.3356 -0.873703 L -18.3766 -0.907281 L -18.4175 -0.940857 L -18.4583 -0.974431 L -18.4992 -1.008 L -18.5399 -1.04157 L -18.5806 -1.07513 L -18.6213 -1.1087 L -18.6619 -1.14225 L -18.7024 -1.17581 L -18.7429 -1.20936 L -18.7834 -1.24291 L -18.8238 -1.27646 L -18.8641 -1.31 L -18.9044 -1.34354 L -18.9447 -1.37707 L -18.9849 -1.41061 L -19.0251 -1.44413 L -19.0652 -1.47766 L -19.1052 -1.51118 L -19.1452 -1.5447 L -19.1859 -1.56905 L -19.1824 -1.61146 L -19.1788 -1.65386 L -19.1751 -1.69625 L -19.1713 -1.73864 L -19.1674 -1.78101 L -19.1634 -1.82338 L -19.1594 -1.86574 L -19.1552 -1.90808 L -19.1509 -1.95042 L -19.1466 -1.99275 L -19.1421 -2.03507 L -19.1376 -2.07738 L -19.1329 -2.11968 L -19.1282 -2.16197 L -19.1234 -2.20425 L -19.1185 -2.24652 L -19.1135 -2.28877 L -19.1083 -2.33102 L -19.1031 -2.37325 L -19.0979 -2.41548 L -19.0925 -2.45769 L -19.087 -2.49989 L -19.0814 -2.54207 L -19.0757 -2.58425 L -19.07 -2.62641 L -19.0641 -2.66856 L -19.0582 -2.71069 L -19.0522 -2.75282 L -19.046 -2.79492 L -19.0398 -2.83702 L -19.0335 -2.8791 L -19.0271 -2.92117 L -19.0206 -2.96322 L -19.014 -3.00526 L -19.0073 -3.04729 L -19.0005 -3.08929 L -18.9741 -3.24754 L -18.9669 -3.28948 L -18.9595 -3.3314 L -18.9521 -3.3733 L -18.9446 -3.41519 L -18.937 -3.45706 L -18.9293 -3.49891 L -18.9216 -3.54074 L -18.9137 -3.58256 L -18.9057 -3.62436 L -18.8977 -3.66615 L -18.8895 -3.70791 L -18.8813 -3.74966 L -18.8729 -3.79139 L -18.8645 -3.8331 L -18.856 -3.87479 L -18.8474 -3.91646 L -18.8387 -3.95812 L -18.8299 -3.99975 L -18.821 -4.04137 L -18.812 -4.08296 L -18.8029 -4.12454 L -18.7938 -4.16609 L -18.7845 -4.20763 L -18.7752 -4.24914 L -18.7657 -4.29063 L -18.7562 -4.3321 L -18.7466 -4.37356 L -18.7369 -4.41499 L -18.7271 -4.45639 L -18.7172 -4.49778 L -18.7072 -4.53914 L -18.6971 -4.58049 L -18.6869 -4.62181 L -18.6767 -4.6631 L -18.6663 -4.70438 L -18.6559 -4.74563 L -18.6095 -4.75545 L -18.5607 -4.77416 L -18.512 -4.79285 L -18.4631 -4.81154 L -18.4143 -4.83021 L -18.3654 -4.84887 L -18.3164 -4.86752 L -18.2674 -4.88616 L -18.2183 -4.90478 L -18.1692 -4.92339 L -18.1201 -4.94199 L -18.0709 -4.96057 L -18.0216 -4.97914 L -17.9723 -4.9977 L -17.923 -5.01624 L -17.8736 -5.03477 L -17.8241 -5.05328 L -17.7746 -5.07178 L -17.7251 -5.09026 L -17.6755 -5.10873 L -17.6258 -5.12719 L -17.5761 -5.14563 L -17.5263 -5.16405 L -17.4765 -5.18246 L -17.4266 -5.20086 L -17.3767 -5.21923 L -17.3267 -5.23759 L -17.2767 -5.25594 L -17.2266 -5.27427 L -17.1765 -5.29258 L -17.1263 -5.31087 L -17.076 -5.32915 L -17.0257 -5.34741 L -16.9754 -5.36565 L -16.925 -5.38387 L -16.8745 -5.40208 L -16.8239 -5.42027 L -16.7734 -5.43843 L -16.7227 -5.45658 L -16.672 -5.47471 L -16.6212 -5.49282 L -16.5704 -5.51091 L -16.5195 -5.52899 L -16.4686 -5.54704 L -16.4175 -5.56507 L -16.3665 -5.58308 L -16.3153 -5.60107 L -16.3153 -5.60107 L -16.3446 -5.64667 L -16.3739 -5.69225 L -16.4031 -5.73781 L -16.4322 -5.78334 L -16.4612 -5.82886 L -16.4902 -5.87436 L -16.5192 -5.91983 L -16.5481 -5.96529 L -16.5769 -6.01072 L -16.6057 -6.05613 L -16.6344 -6.10152 L -16.663 -6.14689 L -16.6916 -6.19224 L -16.7201 -6.23757 L -16.7486 -6.28288 L -16.7771 -6.32817 L -16.8054 -6.37343 L -16.8338 -6.41868 L -16.862 -6.4639 L -16.8902 -6.50911 L -16.9184 -6.55429 L -16.9465 -6.59946 L -16.9746 -6.6446 L -17.0026 -6.68973 L -17.0305 -6.73483 L -17.0584 -6.77992 L -17.0863 -6.82498 L -17.1141 -6.87002 L -17.1418 -6.91505 L -17.1695 -6.96005 L -17.1972 -7.00503 L -17.2248 -7.05 L -17.2523 -7.09494 L -17.2798 -7.13987 L -17.3073 -7.18477 L -17.3347 -7.22966 L -17.3621 -7.27452 L -17.3894 -7.31937 L -17.4167 -7.3642 L -17.4439 -7.409 L -17.4711 -7.45379 L -17.4982 -7.49856 L -17.5253 -7.54331 L -17.5524 -7.58804 L -17.5794 -7.63275 L -17.6063 -7.67745 L -17.6369 -7.7137 L -17.6198 -7.75267 L -17.6027 -7.7916 L -17.5854 -7.8305 L -17.568 -7.86935 L -17.5506 -7.90817 L -17.5331 -7.94694 L -17.5155 -7.98568 L -17.4978 -8.02438 L -17.48 -8.06304 L -17.4621 -8.10166 L -17.4442 -8.14024 L -17.4261 -8.17879 L -17.408 -8.21729 L -17.3898 -8.25575 L -17.3715 -8.29417 L -17.3531 -8.33255 L -17.3347 -8.37089 L -17.3161 -8.40919 L -17.2975 -8.44745 L -17.2788 -8.48566 L -17.26 -8.52384 L -17.2411 -8.56197 L -17.2221 -8.60006 L -17.2031 -8.63811 L -17.1839 -8.67612 L -17.1647 -8.71408 L -17.1454 -8.752 L -17.126 -8.78988 L -17.1065 -8.82772 L -17.087 -8.86551 L -17.0673 -8.90326 L -17.0476 -8.94097 L -17.0278 -8.97863 L -17.0079 -9.01625 L -16.988 -9.05383 L -16.9679 -9.09136 L -16.8915 -9.23246 L -16.8711 -9.26977 L -16.8506 -9.30705 L -16.8299 -9.34427 L -16.8092 -9.38145 L -16.7885 -9.41859 L -16.7676 -9.45568 L -16.7467 -9.49272 L -16.7256 -9.52972 L -16.7045 -9.56667 L -16.6833 -9.60357 L -16.6621 -9.64042 L -16.6407 -9.67723 L -16.6193 -9.71399 L -16.5978 -9.75071 L -16.5762 -9.78738 L -16.5545 -9.82399 L -16.5327 -9.86056 L -16.5109 -9.89709 L -16.489 -9.93356 L -16.467 -9.96999 L -16.4449 -10.0064 L -16.4228 -10.0427 L -16.4005 -10.079 L -16.3782 -10.1152 L -16.3558 -10.1514 L -16.3333 -10.1875 L -16.3108 -10.2236 L -16.2881 -10.2596 L -16.2654 -10.2956 L -16.2426 -10.3315 L -16.2197 -10.3674 L -16.1968 -10.4032 L -16.1737 -10.439 L -16.1506 -10.4747 L -16.1274 -10.5104 L -16.1041 -10.546 L -16.0571 -10.5403 L -16.0049 -10.5421 L -15.9527 -10.544 L -15.9004 -10.5458 L -15.8482 -10.5476 L -15.7958 -10.5494 L -15.7435 -10.5511 L -15.6911 -10.5528 L -15.6386 -10.5545 L -15.5861 -10.5562 L -15.5336 -10.5578 L -15.481 -10.5594 L -15.4284 -10.561 L -15.3758 -10.5625 L -15.3231 -10.564 L -15.2703 -10.5655 L -15.2176 -10.567 L -15.1647 -10.5684 L -15.1119 -10.5698 L -15.0589 -10.5711 L -15.006 -10.5725 L -14.953 -10.5738 L -14.8999 -10.575 L -14.8468 -10.5763 L -14.7937 -10.5775 L -14.7405 -10.5787 L -14.6873 -10.5798 L -14.634 -10.5809 L -14.5807 -10.582 L -14.5273 -10.583 L -14.4739 -10.584 L -14.4204 -10.585 L -14.3669 -10.5859 L -14.3134 -10.5868 L -14.2598 -10.5877 L -14.2061 -10.5885 L -14.1524 -10.5893 L -14.0987 -10.5901 L -14.0449 -10.5908 L -13.991 -10.5915 L -13.9371 -10.5921 L -13.8832 -10.5927 L -13.8292 -10.5933 L -13.7751 -10.5938 L -13.721 -10.5943 L -13.6669 -10.5948 L -13.6127 -10.5952 L -13.6127 -10.5952 L -13.6256 -10.6478 L -13.6384 -10.7004 L -13.6512 -10.753 L -13.664 -10.8055 L -13.6767 -10.858 L -13.6894 -10.9104 L -13.702 -10.9628 L -13.7145 -11.0152 L -13.727 -11.0675 L -13.7395 -11.1198 L -13.7519 -11.1721 L -13.7643 -11.2243 L -13.7766 -11.2765 L -13.7889 -11.3286 L -13.8011 -11.3807 L -13.8133 -11.4328 L -13.8254 -11.4848 L -13.8375 -11.5368 L -13.8496 -11.5888 L -13.8616 -11.6407 L -13.8735 -11.6926 L -13.8855 -11.7444 L -13.8973 -11.7962 L -13.9092 -11.848 L -13.921 -11.8997 L -13.9327 -11.9514 L -13.9444 -12.0031 L -13.9561 -12.0547 L -13.9677 -12.1063 L -13.9793 -12.1579 L -13.9909 -12.2094 L -14.0024 -12.2609 L -14.0138 -12.3123 L -14.0253 -12.3638 L -14.0367 -12.4152 L -14.048 -12.4665 L -14.0593 -12.5178 L -14.0706 -12.5691 L -14.0818 -12.6204 L -14.093 -12.6716 L -14.1042 -12.7228 L -14.1153 -12.7739 L -14.1264 -12.8251 L -14.1375 -12.8761 L -14.1485 -12.9272 L -14.1595 -12.9782 L -14.1767 -13.0225 L -14.1479 -13.0538 L -14.119 -13.085 L -14.09 -13.1162 L -14.061 -13.1473 L -14.0319 -13.1783 L -14.0027 -13.2093 L -13.9735 -13.2403 L -13.9442 -13.2711 L -13.9148 -13.3019 L -13.8854 -13.3326 L -13.8559 -13.3633 L -13.8263 -13.3939 L -13.7966 -13.4244 L -13.7669 -13.4549 L -13.7372 -13.4853 L -13.7073 -13.5156 L -13.6774 -13.5459 L -13.6474 -13.5761 L -13.6174 -13.6062 L -13.5873 -13.6363 L -13.5571 -13.6663 L -13.5269 -13.6962 L -13.4965 -13.7261 L -13.4662 -13.7559 L -13.4357 -13.7856 L -13.4052 -13.8153 L -13.3746 -13.8449 L -13.344 -13.8744 L -13.3133 -13.9039 L -13.2825 -13.9333 L -13.2517 -13.9626 L -13.2208 -13.9919 L -13.1898 -14.0211 L -13.1588 -14.0502 L -13.1277 -14.0792 L -13.0966 -14.1082 L -12.9785 -14.2169 L -12.9471 -14.2455 L -12.9156 -14.2741 L -12.884 -14.3026 L -12.8523 -14.3311 L -12.8206 -14.3595 L -12.7888 -14.3878 L -12.757 -14.416 L -12.7251 -14.4442 L -12.6931 -14.4723 L -12.6611 -14.5003 L -12.629 -14.5282 L -12.5969 -14.5561 L -12.5647 -14.5839 L -12.5324 -14.6117 L -12.5001 -14.6393 L -12.4677 -14.6669 L -12.4352 -14.6945 L -12.4027 -14.7219 L -12.3702 -14.7493 L -12.3375 -14.7766 L -12.3048 -14.8038 L -12.2721 -14.831 L -12.2393 -14.8581 L -12.2064 -14.8851 L -12.1734 -14.9121 L -12.1405 -14.9389 L -12.1074 -14.9657 L -12.0743 -14.9925 L -12.0411 -15.0191 L -12.0079 -15.0457 L -11.9746 -15.0722 L -11.9412 -15.0986 L -11.9078 -15.125 L -11.8744 -15.1513 L -11.8409 -15.1775 L -11.8073 -15.2036 L -11.7646 -15.1829 L -11.7147 -15.1677 L -11.6647 -15.1525 L -11.6147 -15.1373 L -11.5647 -15.122 L -11.5146 -15.1067 L -11.4645 -15.0913 L -11.4144 -15.0759 L -11.3642 -15.0605 L -11.3141 -15.045 L -11.2639 -15.0295 L -11.2136 -15.0139 L -11.1633 -14.9983 L -11.113 -14.9827 L -11.0627 -14.967 L -11.0123 -14.9513 L -10.9619 -14.9355 L -10.9115 -14.9197 L -10.8611 -14.9039 L -10.8106 -14.888 L -10.76 -14.8721 L -10.7095 -14.8561 L -10.6589 -14.8401 L -10.6083 -14.824 L -10.5576 -14.8079 L -10.507 -14.7917 L -10.4562 -14.7755 L -10.4055 -14.7593 L -10.3547 -14.743 L -10.3039 -14.7266 L -10.2531 -14.7102 L -10.2022 -14.6938 L -10.1513 -14.6773 L -10.1003 -14.6607 L -10.0493 -14.6442 L -9.99831 -14.6275 L -9.94726 -14.6108 L -9.89618 -14.5941 L -9.84506 -14.5773 L -9.79391 -14.5605 L -9.74272 -14.5436 L -9.6915 -14.5266 L -9.64024 -14.5096 L -9.58895 -14.4926 L -9.53762 -14.4755 L -9.48625 -14.4583 L -9.43486 -14.4411 L -9.43486 -14.4411 L -9.42997 -14.4951 L -9.42505 -14.549 L -9.42009 -14.6029 L -9.4151 -14.6567 L -9.41007 -14.7105 L -9.40501 -14.7642 L -9.39992 -14.8179 L -9.39479 -14.8715 L -9.38963 -14.925 L -9.38444 -14.9785 L -9.37922 -15.032 L -9.37396 -15.0854 L -9.36867 -15.1387 L -9.36335 -15.192 L -9.358 -15.2453 L -9.35262 -15.2985 L -9.34721 -15.3516 L -9.34176 -15.4047 L -9.33629 -15.4578 L -9.33079 -15.5108 L -9.32526 -15.5638 L -9.3197 -15.6167 L -9.31411 -15.6695 L -9.30849 -15.7223 L -9.30285 -15.7751 L -9.29718 -15.8278 L -9.29148 -15.8805 L -9.28575 -15.9331 L -9.27999 -15.9857 L -9.27421 -16.0382 L -9.26841 -16.0907 L -9.26257 -16.1431 L -9.25671 -16.1955 L -9.25083 -16.2479 L -9.24492 -16.3002 L -9.23898 -16.3524 L -9.23302 -16.4046 L -9.22703 -16.4568 L -9.22102 -16.5089 L -9.21499 -16.561 L -9.20893 -16.6131 L -9.20285 -16.6651 L -9.19674 -16.717 L -9.19061 -16.7689 L -9.18446 -16.8208 L -9.17828 -16.8726 L -9.18016 -16.92 L -9.14273 -16.9403 L -9.10526 -16.9604 L -9.06775 -16.9805 L -9.03019 -17.0005 L -8.99259 -17.0205 L -8.95494 -17.0403 L -8.91725 -17.06 L -8.87952 -17.0797 L -8.84174 -17.0993 L -8.80392 -17.1188 L -8.76606 -17.1382 L -8.72815 -17.1576 L -8.6902 -17.1768 L -8.65221 -17.196 L -8.61418 -17.2151 L -8.5761 -17.2341 L -8.53798 -17.253 L -8.49982 -17.2718 L -8.46162 -17.2906 L -8.42338 -17.3092 L -8.3851 -17.3278 L -8.34677 -17.3463 L -8.30841 -17.3647 L -8.27 -17.383 L -8.23155 -17.4013 L -8.19307 -17.4194 L -8.15454 -17.4375 L -8.11597 -17.4555 L -8.07737 -17.4734 L -8.03872 -17.4912 L -8.00004 -17.5089 L -7.96131 -17.5266 L -7.92255 -17.5441 L -7.88375 -17.5616 L -7.84491 -17.579 L -7.80603 -17.5963 L -7.65911 -17.6607 L -7.62005 -17.6776 L -7.58095 -17.6944 L -7.54182 -17.7111 L -7.50265 -17.7277 L -7.46344 -17.7443 L -7.4242 -17.7607 L -7.38492 -17.7771 L -7.34561 -17.7934 L -7.30626 -17.8096 L -7.26687 -17.8257 L -7.22745 -17.8417 L -7.18799 -17.8576 L -7.1485 -17.8735 L -7.10897 -17.8892 L -7.06941 -17.9049 L -7.02981 -17.9205 L -6.99018 -17.936 L -6.95051 -17.9514 L -6.91081 -17.9667 L -6.87108 -17.982 L -6.83131 -17.9971 L -6.79151 -18.0122 L -6.75168 -18.0271 L -6.71181 -18.042 L -6.67191 -18.0568 L -6.63198 -18.0715 L -6.59202 -18.0861 L -6.55202 -18.1006 L -6.51199 -18.1151 L -6.47193 -18.1294 L -6.43184 -18.1437 L -6.39172 -18.1579 L -6.35156 -18.172 L -6.31138 -18.186 L -6.27116 -18.1999 L -6.23091 -18.2137 L -6.19731 -18.1802 L -6.15499 -18.1496 L -6.11266 -18.119 L -6.07032 -18.0884 L -6.02796 -18.0577 L -5.98558 -18.0269 L -5.94319 -17.9962 L -5.90079 -17.9653 L -5.85837 -17.9344 L -5.81593 -17.9035 L -5.77348 -17.8725 L -5.73101 -17.8415 L -5.68852 -17.8104 L -5.64602 -17.7793 L -5.60351 -17.7481 L -5.56098 -17.7169 L -5.51843 -17.6856 L -5.47587 -17.6543 L -5.43329 -17.6229 L -5.3907 -17.5915 L -5.34809 -17.56 L -5.30546 -17.5285 L -5.26282 -17.4969 L -5.22016 -17.4653 L -5.17749 -17.4336 L -5.1348 -17.4019 L -5.09209 -17.3701 L -5.04937 -17.3382 L -5.00664 -17.3063 L -4.96388 -17.2743 L -4.92111 -17.2423 L -4.87833 -17.2103 L -4.83553 -17.1781 L -4.79271 -17.1459 L -4.74988 -17.1137 L -4.70703 -17.0814 L -4.66416 -17.049 L -4.62128 -17.0166 L -4.57838 -16.9842 L -4.53547 -16.9516 L -4.49254 -16.919 L -4.44959 -16.8864 L -4.40663 -16.8536 L -4.36365 -16.8209 L -4.32066 -16.788 L -4.27765 -16.7551 L -4.23462 -16.7222 L -4.23462 -16.7222 L -4.21247 -16.7716 L -4.19031 -16.821 L -4.16813 -16.8704 L -4.14593 -16.9197 L -4.12372 -16.9689 L -4.10149 -17.018 L -4.07925 -17.0671 L -4.057 -17.1162 L -4.03473 -17.1652 L -4.01244 -17.2141 L -3.99014 -17.2629 L -3.96783 -17.3117 L -3.94551 -17.3605 L -3.92317 -17.4092 L -3.90082 -17.4578 L -3.87845 -17.5064 L -3.85608 -17.5549 L -3.83369 -17.6033 L -3.81129 -17.6517 L -3.78887 -17.7001 L -3.76645 -17.7484 L -3.74401 -17.7966 L -3.72156 -17.8448 L -3.6991 -17.8929 L -3.67663 -17.941 L -3.65415 -17.989 L -3.63166 -18.037 L -3.60915 -18.0849 L -3.58664 -18.1327 L -3.56412 -18.1805 L -3.54158 -18.2283 L -3.51904 -18.276 L -3.49648 -18.3236 L -3.47392 -18.3712 L -3.45135 -18.4188 L -3.42876 -18.4663 L -3.40617 -18.5137 L -3.38357 -18.5611 L -3.36096 -18.6085 L -3.33834 -18.6558 L -3.31571 -18.703 L -3.29308 -18.7503 L -3.27043 -18.7974 L -3.24778 -18.8445 L -3.22512 -18.8916 L -3.20245 -18.9386 L -3.18883 -18.984 L -3.14686 -18.991 L -3.10487 -18.998 L -3.06287 -19.0048 L -3.02085 -19.0115 L -2.97881 -19.0181 L -2.93677 -19.0247 L -2.8947 -19.0311 L -2.85263 -19.0375 L -2.81054 -19.0437 L -2.76843 -19.0499 L -2.72632 -19.056 L -2.68418 -19.0619 L -2.64204 -19.0678 L -2.59988 -19.0736 L -2.55771 -19.0793 L -2.51553 -19.0849 L -2.47334 -19.0904 L -2.43113 -19.0959 L -2.38891 -19.1012 L -2.34668 -19.1064 L -2.30444 -19.1116 L -2.26219 -19.1166 L -2.21992 -19.1216 L -2.17765 -19.1264 L -2.13536 -19.1312 L -2.09307 -19.1359 L -2.05076 -19.1405 L -2.00845 -19.1449 L -1.96612 -19.1493 L -1.92379 -19.1536 L -1.88144 -19.1578 L -1.83909 -19.1619 L -1.79672 -19.166 L -1.75435 -19.1699 L -1.71197 -19.1737 L -1.66958 -19.1775 L -1.50969 -19.1907 L -1.46727 -19.194 L -1.42484 -19.1972 L -1.3824 -19.2003 L -1.33995 -19.2033 L -1.2975 -19.2062 L -1.25504 -19.209 L -1.21257 -19.2118 L -1.1701 -19.2144 L -1.12762 -19.2169 L -1.08514 -19.2194 L -1.04265 -19.2217 L -1.00016 -19.224 L -0.95766 -19.2262 L -0.915157 -19.2282 L -0.872649 -19.2302 L -0.830138 -19.2321 L -0.787622 -19.2339 L -0.745103 -19.2356 L -0.70258 -19.2372 L -0.660053 -19.2387 L -0.617524 -19.2401 L -0.574991 -19.2414 L -0.532455 -19.2426 L -0.489917 -19.2438 L -0.447376 -19.2448 L -0.404834 -19.2457 L -0.362289 -19.2466 L -0.319742 -19.2473 L -0.277194 -19.248 L -0.234645 -19.2486 L -0.192094 -19.249 L -0.149543 -19.2494 L -0.106991 -19.2497 L -0.0644379 -19.2499 L -0.0218848 -19.25 L 0.0206684 -19.25 L 0.041581 -19.2074 L 0.0716795 -19.1648 L 0.101778 -19.1221 L 0.131876 -19.0793 L 0.161974 -19.0365 L 0.192071 -18.9937 L 0.222168 -18.9508 L 0.252264 -18.9079 L 0.282359 -18.8649 L 0.312454 -18.8219 L 0.342548 -18.7788 L 0.372641 -18.7357 L 0.402733 -18.6925 L 0.432824 -18.6492 L 0.462914 -18.6059 L 0.493002 -18.5626 L 0.523089 -18.5192 L 0.553175 -18.4758 L 0.583259 -18.4323 L 0.613341 -18.3887 L 0.643422 -18.3451 L 0.6735 -18.3014 L 0.703577 -18.2577 L 0.733651 -18.214 L 0.763723 -18.1701 L 0.793793 -18.1262 L 0.823861 -18.0823 L 0.853925 -18.0383 L 0.883987 -17.9943 L 0.914047 -17.9501 L 0.944103 -17.906 L 0.974156 -17.8618 L 1.00421 -17.8175 L 1.03425 -17.7731 L 1.0643 -17.7287 L 1.09434 -17.6843 L 1.12437 -17.6397 L 1.1544 -17.5951 L 1.18443 -17.5505 L 1.21446 -17.5058 L 1.24448 -17.461 L 1.27449 -17.4162 L 1.3045 -17.3713 L 1.33451 -17.3263 L 1.36451 -17.2813 L 1.3945 -17.2362 L 1.42449 -17.1911 L 1.42449 -17.1911 L 1.46151 -17.2307 L 1.49851 -17.2702 L 1.53552 -17.3097 L 1.57251 -17.3491 L 1.6095 -17.3884 L 1.64649 -17.4277 L 1.68347 -17.4669 L 1.72044 -17.5061 L 1.75741 -17.5452 L 1.79437 -17.5842 L 1.83132 -17.6232 L 1.86827 -17.6621 L 1.90521 -17.701 L 1.94215 -17.7397 L 1.97908 -17.7785 L 2.016 -17.8172 L 2.05292 -17.8558 L 2.08983 -17.8943 L 2.12673 -17.9328 L 2.16363 -17.9713 L 2.20051 -18.0097 L 2.2374 -18.048 L 2.27427 -18.0863 L 2.31114 -18.1245 L 2.348 -18.1627 L 2.38486 -18.2008 L 2.42171 -18.2389 L 2.45855 -18.2769 L 2.49538 -18.3148 L 2.53221 -18.3527 L 2.56903 -18.3906 L 2.60584 -18.4284 L 2.64264 -18.4661 L 2.67944 -18.5038 L 2.71623 -18.5415 L 2.75301 -18.5791 L 2.78979 -18.6166 L 2.82655 -18.6541 L 2.86331 -18.6915 L 2.90007 -18.7289 L 2.93681 -18.7663 L 2.97355 -18.8036 L 3.01028 -18.8408 L 3.047 -18.878 L 3.08371 -18.9152 L 3.12042 -18.9523 L 3.14806 -18.9908 L 3.19003 -18.9838 L 3.23199 -18.9767 L 3.27393 -18.9696 L 3.31585 -18.9623 L 3.35776 -18.9549 L 3.39966 -18.9474 L 3.44153 -18.9399 L 3.48339 -18.9322 L 3.52523 -18.9245 L 3.56706 -18.9166 L 3.60886 -18.9087 L 3.65065 -18.9007 L 3.69243 -18.8926 L 3.73418 -18.8843 L 3.77592 -18.876 L 3.81763 -18.8676 L 3.85933 -18.8592 L 3.90101 -18.8506 L 3.94267 -18.8419 L 3.98431 -18.8332 L 4.02594 -18.8243 L 4.06754 -18.8154 L 4.10912 -18.8063 L 4.15068 -18.7972 L 4.19223 -18.788 L 4.23375 -18.7787 L 4.27525 -18.7693 L 4.31673 -18.7598 L 4.35819 -18.7502 L 4.39962 -18.7405 L 4.44104 -18.7307 L 4.48243 -18.7209 L 4.52381 -18.7109 L 4.56516 -18.7009 L 4.60649 -18.6907 L 4.64779 -18.6805 L 4.80332 -18.6411 L 4.84451 -18.6304 L 4.88569 -18.6197 L 4.92683 -18.6088 L 4.96796 -18.5979 L 5.00906 -18.5869 L 5.05013 -18.5758 L 5.09118 -18.5645 L 5.13221 -18.5532 L 5.17321 -18.5419 L 5.21418 -18.5304 L 5.25513 -18.5188 L 5.29606 -18.5071 L 5.33695 -18.4954 L 5.37783 -18.4835 L 5.41867 -18.4716 L 5.45949 -18.4596 L 5.50028 -18.4475 L 5.54105 -18.4353 L 5.58179 -18.423 L 5.6225 -18.4106 L 5.66318 -18.3981 L 5.70384 -18.3856 L 5.74447 -18.3729 L 5.78507 -18.3602 L 5.82564 -18.3473 L 5.86618 -18.3344 L 5.9067 -18.3214 L 5.94718 -18.3083 L 5.98764 -18.2951 L 6.02807 -18.2818 L 6.06847 -18.2684 L 6.10884 -18.255 L 6.14917 -18.2414 L 6.18948 -18.2278 L 6.22976 -18.2141 L 6.27001 -18.2003 L 6.27596 -18.1532 L 6.29058 -18.1031 L 6.30519 -18.0529 L 6.31978 -18.0027 L 6.33435 -17.9525 L 6.34891 -17.9022 L 6.36345 -17.8519 L 6.37798 -17.8015 L 6.39249 -17.7511 L 6.40698 -17.7006 L 6.42145 -17.6501 L 6.43591 -17.5995 L 6.45035 -17.5489 L 6.46477 -17.4982 L 6.47917 -17.4475 L 6.49356 -17.3968 L 6.50792 -17.3459 L 6.52227 -17.2951 L 6.5366 -17.2442 L 6.55091 -17.1932 L 6.5652 -17.1422 L 6.57948 -17.0911 L 6.59373 -17.04 L 6.60796 -16.9889 L 6.62217 -16.9376 L 6.63637 -16.8864 L 6.65054 -16.835 L 6.66469 -16.7837 L 6.67882 -16.7322 L 6.69292 -16.6808 L 6.70701 -16.6292 L 6.72108 -16.5776 L 6.73512 -16.526 L 6.74914 -16.4743 L 6.76314 -16.4226 L 6.77711 -16.3707 L 6.79106 -16.3189 L 6.80499 -16.267 L 6.8189 -16.215 L 6.83278 -16.163 L 6.84663 -16.1109 L 6.86046 -16.0587 L 6.87427 -16.0065 L 6.88805 -15.9542 L 6.90181 -15.9019 L 6.91554 -15.8495 L 6.92925 -15.7971 L 6.92925 -15.7971 L 6.97711 -15.8225 L 7.02495 -15.8479 L 7.07276 -15.8732 L 7.12055 -15.8985 L 7.16831 -15.9237 L 7.21605 -15.9488 L 7.26376 -15.9739 L 7.31144 -15.9989 L 7.3591 -16.0239 L 7.40673 -16.0488 L 7.45434 -16.0737 L 7.50192 -16.0985 L 7.54947 -16.1232 L 7.597 -16.1479 L 7.64451 -16.1726 L 7.69199 -16.1972 L 7.73945 -16.2217 L 7.78688 -16.2462 L 7.83428 -16.2706 L 7.88166 -16.295 L 7.92902 -16.3194 L 7.97635 -16.3436 L 8.02366 -16.3679 L 8.07094 -16.3921 L 8.1182 -16.4162 L 8.16543 -16.4403 L 8.21264 -16.4643 L 8.25983 -16.4883 L 8.30699 -16.5122 L 8.35413 -16.5361 L 8.40124 -16.56 L 8.44833 -16.5838 L 8.4954 -16.6075 L 8.54244 -16.6312 L 8.58946 -16.6549 L 8.63645 -16.6785 L 8.68343 -16.7021 L 8.73038 -16.7256 L 8.7773 -16.7491 L 8.82421 -16.7725 L 8.87109 -16.7959 L 8.91794 -16.8192 L 8.96478 -16.8425 L 9.01159 -16.8658 L 9.05838 -16.889 L 9.10514 -16.9122 L 9.1438 -16.9397 L 9.18123 -16.9194 L 9.21861 -16.8991 L 9.25594 -16.8787 L 9.29323 -16.8582 L 9.33047 -16.8376 L 9.36767 -16.8169 L 9.40482 -16.7962 L 9.44193 -16.7754 L 9.47899 -16.7544 L 9.516 -16.7334 L 9.55297 -16.7124 L 9.58989 -16.6912 L 9.62676 -16.67 L 9.66359 -16.6487 L 9.70037 -16.6272 L 9.7371 -16.6058 L 9.77378 -16.5842 L 9.81042 -16.5626 L 9.84701 -16.5408 L 9.88355 -16.519 L 9.92004 -16.4971 L 9.95648 -16.4752 L 9.99288 -16.4531 L 10.0292 -16.431 L 10.0655 -16.4088 L 10.1018 -16.3865 L 10.138 -16.3641 L 10.1741 -16.3417 L 10.2102 -16.3191 L 10.2463 -16.2965 L 10.2823 -16.2738 L 10.3182 -16.2511 L 10.3541 -16.2282 L 10.39 -16.2053 L 10.4258 -16.1823 L 10.4615 -16.1592 L 10.5958 -16.0714 L 10.6313 -16.048 L 10.6668 -16.0244 L 10.7022 -16.0008 L 10.7375 -15.9771 L 10.7728 -15.9533 L 10.808 -15.9295 L 10.8432 -15.9056 L 10.8784 -15.8816 L 10.9134 -15.8575 L 10.9485 -15.8333 L 10.9834 -15.8091 L 11.0184 -15.7847 L 11.0532 -15.7604 L 11.088 -15.7359 L 11.1228 -15.7113 L 11.1575 -15.6867 L 11.1921 -15.662 L 11.2267 -15.6372 L 11.2613 -15.6124 L 11.2958 -15.5874 L 11.3302 -15.5624 L 11.3646 -15.5373 L 11.3989 -15.5122 L 11.4332 -15.4869 L 11.4674 -15.4616 L 11.5015 -15.4362 L 11.5356 -15.4108 L 11.5696 -15.3852 L 11.6036 -15.3596 L 11.6375 -15.3339 L 11.6714 -15.3082 L 11.7052 -15.2823 L 11.739 -15.2564 L 11.7727 -15.2304 L 11.8063 -15.2044 L 11.8399 -15.1783 L 11.8302 -15.1318 L 11.8278 -15.0797 L 11.8253 -15.0275 L 11.8228 -14.9753 L 11.8203 -14.923 L 11.8177 -14.8707 L 11.8152 -14.8184 L 11.8125 -14.766 L 11.8099 -14.7136 L 11.8072 -14.6612 L 11.8045 -14.6087 L 11.8017 -14.5562 L 11.799 -14.5036 L 11.7962 -14.451 L 11.7933 -14.3984 L 11.7904 -14.3457 L 11.7875 -14.293 L 11.7846 -14.2402 L 11.7816 -14.1874 L 11.7786 -14.1346 L 11.7755 -14.0817 L 11.7725 -14.0287 L 11.7693 -13.9758 L 11.7662 -13.9228 L 11.763 -13.8697 L 11.7598 -13.8166 L 11.7565 -13.7635 L 11.7532 -13.7103 L 11.7499 -13.657 L 11.7465 -13.6038 L 11.7431 -13.5505 L 11.7397 -13.4971 L 11.7362 -13.4437 L 11.7326 -13.3902 L 11.7291 -13.3367 L 11.7255 -13.2832 L 11.7218 -13.2296 L 11.7182 -13.176 L 11.7144 -13.1223 L 11.7107 -13.0686 L 11.7069 -13.0148 L 11.703 -12.961 L 11.6991 -12.9072 L 11.6952 -12.8532 L 11.6912 -12.7993 L 11.6872 -12.7453 L 11.6831 -12.6912 L 11.6831 -12.6912 L 11.7366 -12.6998 L 11.7901 -12.7082 L 11.8436 -12.7166 L 11.897 -12.725 L 11.9503 -12.7333 L 12.0036 -12.7416 L 12.0569 -12.7499 L 12.1101 -12.758 L 12.1633 -12.7662 L 12.2165 -12.7743 L 12.2696 -12.7824 L 12.3226 -12.7904 L 12.3756 -12.7983 L 12.4286 -12.8063 L 12.4815 -12.8141 L 12.5344 -12.822 L 12.5873 -12.8298 L 12.6401 -12.8375 L 12.6929 -12.8453 L 12.7456 -12.8529 L 12.7983 -12.8606 L 12.8509 -12.8682 L 12.9036 -12.8757 L 12.9561 -12.8833 L 13.0087 -12.8907 L 13.0612 -12.8982 L 13.1136 -12.9056 L 13.166 -12.9129 L 13.2184 -12.9203 L 13.2707 -12.9276 L 13.323 -12.9348 L 13.3753 -12.942 L 13.4275 -12.9492 L 13.4797 -12.9564 L 13.5319 -12.9635 L 13.584 -12.9705 L 13.6361 -12.9776 L 13.6881 -12.9846 L 13.7401 -12.9916 L 13.7921 -12.9985 L 13.844 -13.0054 L 13.8959 -13.0123 L 13.9478 -13.0191 L 13.9996 -13.0259 L 14.0514 -13.0327 L 14.1032 -13.0394 L 14.1487 -13.0529 L 14.1775 -13.0216 L 14.2062 -12.9902 L 14.2349 -12.9588 L 14.2635 -12.9273 L 14.2921 -12.8957 L 14.3206 -12.8641 L 14.349 -12.8324 L 14.3773 -12.8006 L 14.4055 -12.7688 L 14.4337 -12.7369 L 14.4619 -12.705 L 14.4899 -12.673 L 14.5179 -12.6409 L 14.5458 -12.6088 L 14.5736 -12.5766 L 14.6014 -12.5444 L 14.6291 -12.5121 L 14.6567 -12.4797 L 14.6843 -12.4473 L 14.7117 -12.4148 L 14.7392 -12.3822 L 14.7665 -12.3496 L 14.7938 -12.317 L 14.8209 -12.2842 L 14.8481 -12.2514 L 14.8751 -12.2186 L 14.9021 -12.1857 L 14.929 -12.1527 L 14.9558 -12.1197 L 14.9826 -12.0866 L 15.0092 -12.0534 L 15.0359 -12.0202 L 15.0624 -11.9869 L 15.0889 -11.9536 L 15.1152 -11.9202 L 15.1416 -11.8868 L 15.2401 -11.7602 L 15.2661 -11.7265 L 15.2919 -11.6927 L 15.3177 -11.6589 L 15.3435 -11.625 L 15.3691 -11.591 L 15.3947 -11.557 L 15.4202 -11.523 L 15.4457 -11.4889 L 15.471 -11.4547 L 15.4963 -11.4205 L 15.5215 -11.3862 L 15.5467 -11.3518 L 15.5717 -11.3174 L 15.5967 -11.283 L 15.6216 -11.2485 L 15.6464 -11.2139 L 15.6712 -11.1793 L 15.6958 -11.1446 L 15.7204 -11.1099 L 15.745 -11.0751 L 15.7694 -11.0403 L 15.7938 -11.0054 L 15.8181 -10.9705 L 15.8423 -10.9355 L 15.8664 -10.9004 L 15.8905 -10.8653 L 15.9144 -10.8302 L 15.9383 -10.795 L 15.9622 -10.7597 L 15.9859 -10.7244 L 16.0096 -10.689 L 16.0332 -10.6536 L 16.0567 -10.6182 L 16.0801 -10.5826 L 16.1035 -10.5471 L 16.1267 -10.5114 L 16.1025 -10.4706 L 16.0833 -10.4221 L 16.064 -10.3736 L 16.0447 -10.325 L 16.0253 -10.2764 L 16.0059 -10.2278 L 15.9865 -10.1791 L 15.967 -10.1304 L 15.9475 -10.0817 L 15.9279 -10.033 L 15.9083 -9.98426 L 15.8887 -9.93547 L 15.869 -9.88666 L 15.8492 -9.83782 L 15.8295 -9.78895 L 15.8096 -9.74006 L 15.7898 -9.69113 L 15.7698 -9.64219 L 15.7499 -9.59321 L 15.7299 -9.5442 L 15.7098 -9.49517 L 15.6897 -9.44611 L 15.6696 -9.39702 L 15.6494 -9.3479 L 15.6291 -9.29875 L 15.6088 -9.24958 L 15.5885 -9.20038 L 15.5681 -9.15114 L 15.5477 -9.10188 L 15.5272 -9.05259 L 15.5067 -9.00327 L 15.4861 -8.95392 L 15.4654 -8.90454 L 15.4447 -8.85514 L 15.424 -8.8057 L 15.4032 -8.75623 L 15.3824 -8.70673 L 15.3615 -8.65721 L 15.3405 -8.60765 L 15.3195 -8.55806 L 15.2985 -8.50844 L 15.2773 -8.4588 L 15.2562 -8.40912 L 15.2349 -8.35941 L 15.2137 -8.30967 L 15.1923 -8.25989 L 15.1709 -8.21009 L 15.1709 -8.21009 L 15.2243 -8.20077 L 15.2777 -8.19141 L 15.3309 -8.18202 L 15.3842 -8.1726 L 15.4373 -8.16315 L 15.4904 -8.15367 L 15.5435 -8.14416 L 15.5965 -8.13463 L 15.6494 -8.12506 L 15.7023 -8.11547 L 15.7552 -8.10585 L 15.808 -8.0962 L 15.8607 -8.08652 L 15.9134 -8.07682 L 15.966 -8.06709 L 16.0186 -8.05733 L 16.0711 -8.04755 L 16.1236 -8.03774 L 16.176 -8.02791 L 16.2284 -8.01805 L 16.2807 -8.00816 L 16.3329 -7.99825 L 16.3851 -7.98832 L 16.4373 -7.97836 L 16.4894 -7.96838 L 16.5415 -7.95837 L 16.5935 -7.94834 L 16.6455 -7.93829 L 16.6974 -7.92821 L 16.7493 -7.91811 L 16.8011 -7.90799 L 16.8529 -7.89785 L 16.9046 -7.88768 L 16.9563 -7.87749 L 17.0079 -7.86728 L 17.0595 -7.85705 L 17.1111 -7.8468 L 17.1626 -7.83652 L 17.214 -7.82623 L 17.2654 -7.81592 L 17.3168 -7.80558 L 17.3681 -7.79522 L 17.4194 -7.78485 L 17.4706 -7.77445 L 17.5218 -7.76404 L 17.5729 -7.7536 L 17.6203 -7.75156 L 17.6374 -7.71259 L 17.6544 -7.67358 L 17.6713 -7.63454 L 17.6882 -7.59546 L 17.7049 -7.55634 L 17.7216 -7.51718 L 17.7382 -7.47799 L 17.7546 -7.43876 L 17.771 -7.39949 L 17.7874 -7.36019 L 17.8036 -7.32085 L 17.8197 -7.28148 L 17.8358 -7.24207 L 17.8517 -7.20263 L 17.8676 -7.16315 L 17.8834 -7.12363 L 17.8991 -7.08408 L 17.9147 -7.0445 L 17.9303 -7.00488 L 17.9457 -6.96523 L 17.9611 -6.92554 L 17.9763 -6.88582 L 17.9915 -6.84606 L 18.0066 -6.80628 L 18.0216 -6.76645 L 18.0365 -6.7266 L 18.0513 -6.68671 L 18.0661 -6.64679 L 18.0807 -6.60684 L 18.0953 -6.56686 L 18.1097 -6.52684 L 18.1241 -6.48679 L 18.1384 -6.44671 L 18.1526 -6.4066 L 18.1667 -6.36646 L 18.1808 -6.32628 L 18.2329 -6.17454 L 18.2465 -6.13422 L 18.26 -6.09387 L 18.2734 -6.05349 L 18.2868 -6.01308 L 18.3 -5.97264 L 18.3132 -5.93217 L 18.3262 -5.89168 L 18.3392 -5.85115 L 18.3521 -5.8106 L 18.3649 -5.77002 L 18.3776 -5.7294 L 18.3902 -5.68877 L 18.4028 -5.6481 L 18.4152 -5.60741 L 18.4275 -5.56668 L 18.4398 -5.52594 L 18.452 -5.48516 L 18.4641 -5.44436 L 18.476 -5.40353 L 18.4879 -5.36267 L 18.4998 -5.32179 L 18.5115 -5.28088 L 18.5231 -5.23995 L 18.5346 -5.19899 L 18.5461 -5.15801 L 18.5574 -5.117 L 18.5687 -5.07596 L 18.5799 -5.0349 L 18.591 -4.99382 L 18.602 -4.95271 L 18.6129 -4.91158 L 18.6237 -4.87042 L 18.6344 -4.82924 L 18.645 -4.78804 L 18.6556 -4.74681 L 18.666 -4.70556 L 18.6299 -4.67483 L 18.5959 -4.63518 L 18.5619 -4.59553 L 18.5279 -4.55586 L 18.4938 -4.51618 L 18.4597 -4.47649 L 18.4255 -4.43678 L 18.3912 -4.39707 L 18.357 -4.35734 L 18.3226 -4.3176 L 18.2883 -4.27785 L 18.2538 -4.23809 L 18.2194 -4.19832 L 18.1848 -4.15854 L 18.1502 -4.11874 L 18.1156 -4.07893 L 18.0809 -4.03911 L 18.0462 -3.99928 L 18.0114 -3.95944 L 17.9766 -3.91959 L 17.9417 -3.87972 L 17.9068 -3.83985 L 17.8718 -3.79996 L 17.8367 -3.76006 L 17.8016 -3.72015 L 17.7665 -3.68023 L 17.7312 -3.64029 L 17.696 -3.60035 L 17.6606 -3.56039 L 17.6253 -3.52042 L 17.5898 -3.48044 L 17.5543 -3.44045 L 17.5188 -3.40045 L 17.4832 -3.36044 L 17.4475 -3.32041 L 17.4118 -3.28038 L 17.376 -3.24033 L 17.3401 -3.20027 L 17.3042 -3.16021 L 17.2683 -3.12013 L 17.2322 -3.08003 L 17.1961 -3.03993 L 17.16 -2.99982 L 17.1238 -2.95969 L 17.0875 -2.91956 L 17.0511 -2.87941 L 17.0147 -2.83926 L 17.0147 -2.83926 L 17.0622 -2.8131 L 17.1096 -2.78693 L 17.157 -2.76075 L 17.2042 -2.73456 L 17.2515 -2.70836 L 17.2986 -2.68215 L 17.3457 -2.65593 L 17.3928 -2.6297 L 17.4397 -2.60346 L 17.4866 -2.57721 L 17.5335 -2.55095 L 17.5803 -2.52469 L 17.627 -2.49841 L 17.6737 -2.47213 L 17.7203 -2.44584 L 17.7669 -2.41954 L 17.8134 -2.39324 L 17.8598 -2.36692 L 17.9062 -2.3406 L 17.9525 -2.31427 L 17.9988 -2.28794 L 18.045 -2.26159 L 18.0912 -2.23524 L 18.1373 -2.20888 L 18.1833 -2.18252 L 18.2293 -2.15615 L 18.2753 -2.12977 L 18.3211 -2.10339 L 18.367 -2.077 L 18.4128 -2.05061 L 18.4585 -2.02421 L 18.5042 -1.9978 L 18.5498 -1.97139 L 18.5954 -1.94497 L 18.6409 -1.91855 L 18.6864 -1.89212 L 18.7318 -1.86569 L 18.7772 -1.83925 L 18.8225 -1.8128 L 18.8678 -1.78636 L 18.913 -1.7599 L 18.9581 -1.73345 L 19.0033 -1.70698 L 19.0484 -1.68052 L 19.0934 -1.65405 L 19.1384 -1.62757 L 19.1825 -1.61025 L 19.186 -1.56784 L 19.1895 -1.52543 L 19.1928 -1.483 L 19.196 -1.44057 L 19.1992 -1.39813 L 19.2022 -1.35569 L 19.2052 -1.31324 L 19.208 -1.27078 L 19.2108 -1.22832 L 19.2134 -1.18585 L 19.216 -1.14337 L 19.2185 -1.10089 L 19.2209 -1.05841 L 19.2232 -1.01592 L 19.2254 -0.97342 L 19.2275 -0.930919 L 19.2295 -0.888413 L 19.2314 -0.845903 L 19.2332 -0.803389 L 19.235 -0.760871 L 19.2366 -0.718349 L 19.2381 -0.675824 L 19.2396 -0.633295 L 19.2409 -0.590764 L 19.2422 -0.548229 L 19.2434 -0.505692 L 19.2444 -0.463152 L 19.2454 -0.42061 L 19.2463 -0.378066 L 19.2471 -0.33552 L 19.2478 -0.292973 L 19.2484 -0.250424 L 19.2489 -0.207874 L 19.2493 -0.165323 L 19.2496 -0.122771 L 19.2498 -0.0802179Z"
id="path1" />
</g>
</svg>
