<?xml version="1.0" encoding="UTF-8" standalone="no"?>
<svg version="1.1">
<g
style="fill:none;stroke:#000000;stroke-opacity:1;stroke-width:0.1">
<path d="M 12.9993 0.130819 L 12.9981 0.22172 L 12.9962 0.312609 L 12.9937 0.403484 L 12.9906 0.494339 L 12.9868 0.585169 L 12.9824 0.675971 L 12.9774 0.76674 L 12.9717 0.857471 L 12.9654 0.948161 L 12.9584 1.0388 L 12.9508 1.1294 L 12.9426 1.21993 L 12.8414 1.31991 L 12.7371 1.43906 L 12.6315 1.55806 L 12.5246 1.6769 L 12.4163 1.79556 L 12.3066 1.91401 L 12.1955 2.03224 L 12.0829 2.15023 L 11.9688 2.26796 L 11.8533 2.3854 L 11.7362 2.50253 L 11.6175 2.61932 L 11.4972 2.73575 L 11.3752 2.85179 L 11.2516 2.96741 L 11.1263 3.08259 L 10.9993 3.19727 L 10.8704 3.31145 L 10.7398 3.42506 L 10.6073 3.53809 L 10.4729 3.65049 L 10.3366 3.76222 L 10.3366 3.76222 L 10.3692 3.93543 L 10.3999 4.10791 L 10.4288 4.27966 L 10.4558 4.45067 L 10.4811 4.62094 L 10.5047 4.79047 L 10.5267 4.95924 L 10.547 5.12727 L 10.5659 5.29454 L 10.5832 5.46105 L 10.599 5.62681 L 10.6134 5.79181 L 10.6265 5.95606 L 10.6382 6.11956 L 10.6486 6.28231 L 10.6577 6.44431 L 10.6656 6.60557 L 10.6723 6.76608 L 10.6778 6.92585 L 10.6822 7.0849 L 10.6855 7.24321 L 10.6988 7.38484 L 10.6469 7.45948 L 10.5945 7.53375 L 10.5415 7.60765 L 10.4881 7.68118 L 10.4341 7.75434 L 10.3796 7.82711 L 10.3246 7.8995 L 10.2691 7.97151 L 10.2131 8.04313 L 10.1566 8.11435 L 10.0996 8.18518 L 10.0422 8.2556 L 9.87398 8.45603 L 9.81461 8.52487 L 9.75476 8.5933 L 9.69443 8.6613 L 9.63362 8.72888 L 9.57234 8.79603 L 9.5106 8.86276 L 9.44839 8.92905 L 9.38572 8.9949 L 9.32259 9.06032 L 9.259 9.12529 L 9.19496 9.18981 L 9.13047 9.25389 L 8.98869 9.26542 L 8.83221 9.28966 L 8.67482 9.31295 L 8.51651 9.33524 L 8.35727 9.35652 L 8.1971 9.37674 L 8.03597 9.39588 L 7.87389 9.41391 L 7.71085 9.43078 L 7.54683 9.44645 L 7.38182 9.4609 L 7.21583 9.47408 L 7.04884 9.48595 L 6.88085 9.49647 L 6.71184 9.50559 L 6.54181 9.51326 L 6.37077 9.51945 L 6.19869 9.5241 L 6.02558 9.52716 L 5.85143 9.52858 L 5.67623 9.52831 L 5.5 9.52628 L 5.5 9.52628 L 5.41364 9.67992 L 5.32628 9.83177 L 5.23798 9.98188 L 5.14877 10.1303 L 5.0587 10.277 L 4.96782 10.422 L 4.87616 10.5654 L 4.78376 10.7072 L 4.69065 10.8475 L 4.59688 10.9861 L 4.50247 11.1233 L 4.40746 11.259 L 4.31187 11.3932 L 4.21574 11.5259 L 4.11909 11.6573 L 4.02195 11.7873 L 3.92435 11.9159 L 3.8263 12.0431 L 3.72784 12.1691 L 3.62898 12.2938 L 3.52975 12.4171 L 3.44886 12.5342 L 3.36113 12.558 L 3.27323 12.5812 L 3.18517 12.6038 L 3.09695 12.6257 L 3.00859 12.6471 L 2.92007 12.6678 L 2.83142 12.6879 L 2.74262 12.7074 L 2.65369 12.7263 L 2.56463 12.7445 L 2.47545 12.7621 L 2.38614 12.7791 L 2.12848 12.8246 L 2.03875 12.8391 L 1.94891 12.8531 L 1.85898 12.8664 L 1.76897 12.8791 L 1.67886 12.8911 L 1.58867 12.9026 L 1.49841 12.9134 L 1.40807 12.9235 L 1.31766 12.933 L 1.22719 12.9419 L 1.13665 12.9502 L 1.04607 12.9578 L 0.930036 12.8755 L 0.794585 12.7935 L 0.659052 12.7102 L 0.523449 12.6255 L 0.387789 12.5395 L 0.252086 12.452 L 0.116354 12.3631 L -0.0193925 12.2727 L -0.155136 12.1808 L -0.29086 12.0874 L -0.426546 11.9924 L -0.562175 11.8958 L -0.697726 11.7976 L -0.833177 11.6976 L -0.968506 11.596 L -1.10369 11.4926 L -1.2387 11.3874 L -1.3735 11.2803 L -1.50808 11.1714 L -1.6424 11.0605 L -1.77643 10.9477 L -1.91013 10.8329 L -1.91013 10.8329 L -2.07504 10.8951 L -2.23957 10.9552 L -2.40371 11.0135 L -2.56743 11.0698 L -2.73072 11.1243 L -2.89357 11.177 L -3.05596 11.2279 L -3.2179 11.2771 L -3.37936 11.3247 L -3.54034 11.3707 L -3.70083 11.4151 L -3.86082 11.4579 L -4.02031 11.4993 L -4.17929 11.5392 L -4.33776 11.5777 L -4.49572 11.6148 L -4.65315 11.6506 L -4.81006 11.6851 L -4.96645 11.7183 L -5.12231 11.7502 L -5.27764 11.781 L -5.41482 11.8186 L -5.49734 11.7805 L -5.57958 11.7417 L -5.66156 11.7024 L -5.74325 11.6625 L -5.82467 11.6221 L -5.9058 11.5811 L -5.98664 11.5395 L -6.06719 11.4974 L -6.14744 11.4546 L -6.22739 11.4114 L -6.30704 11.3676 L -6.38638 11.3232 L -6.61296 11.1924 L -6.69107 11.1458 L -6.76885 11.0988 L -6.8463 11.0512 L -6.92341 11.003 L -7.00018 10.9543 L -7.07661 10.9051 L -7.1527 10.8554 L -7.22844 10.8051 L -7.30382 10.7543 L -7.37884 10.7029 L -7.45351 10.6511 L -7.52781 10.5987 L -7.56379 10.4611 L -7.61484 10.3112 L -7.66509 10.1602 L -7.71454 10.0082 L -7.76315 9.85505 L -7.81088 9.70082 L -7.85771 9.54547 L -7.9036 9.38898 L -7.94853 9.23134 L -7.99245 9.07253 L -8.03533 8.91255 L -8.07713 8.75136 L -8.11782 8.58897 L -8.15735 8.42535 L -8.19568 8.2605 L -8.23276 8.09439 L -8.26856 7.92701 L -8.30302 7.75836 L -8.33609 7.58841 L -8.36773 7.41715 L -8.39788 7.24457 L -8.42649 7.07066 L -8.42649 7.07066 L -8.59279 7.01229 L -8.75751 6.95263 L -8.92067 6.89174 L -9.0823 6.82965 L -9.24241 6.76643 L -9.40102 6.70211 L -9.55817 6.63674 L -9.71386 6.57037 L -9.86813 6.50303 L -10.021 6.43477 L -10.1725 6.36561 L -10.3226 6.2956 L -10.4713 6.22477 L -10.6188 6.15315 L -10.7649 6.08078 L -10.9098 6.00768 L -11.0534 5.93389 L -11.1957 5.85944 L -11.3369 5.78434 L -11.4768 5.70863 L -11.6156 5.63234 L -11.7449 5.573 L -11.7835 5.49074 L -11.8216 5.4082 L -11.8592 5.3254 L -11.8961 5.24234 L -11.9325 5.15902 L -11.9683 5.07545 L -12.0035 4.99163 L -12.0381 4.90757 L -12.0721 4.82327 L -12.1056 4.73873 L -12.1384 4.65396 L -12.1706 4.56897 L -12.2601 4.32311 L -12.2901 4.23727 L -12.3194 4.15122 L -12.3481 4.06497 L -12.3762 3.97852 L -12.4038 3.89188 L -12.4307 3.80504 L -12.457 3.71802 L -12.4827 3.63082 L -12.5078 3.54344 L -12.5322 3.45589 L -12.5561 3.36817 L -12.5793 3.28028 L -12.5184 3.15172 L -12.4612 3.00409 L -12.4027 2.85614 L -12.3428 2.70789 L -12.2816 2.55935 L -12.219 2.41052 L -12.1551 2.26141 L -12.0896 2.11204 L -12.0227 1.9624 L -11.9543 1.81252 L -11.8843 1.6624 L -11.8127 1.51205 L -11.7395 1.3615 L -11.6646 1.21075 L -11.588 1.05983 L -11.5096 0.908746 L -11.4295 0.757519 L -11.3475 0.60617 L -11.2636 0.45472 L -11.1777 0.303192 L -11.0899 0.15161 L -11 2.22045e-15 L -11 4.73777e-16 L -11.0899 -0.15161 L -11.1777 -0.303192 L -11.2636 -0.45472 L -11.3475 -0.60617 L -11.4295 -0.757519 L -11.5096 -0.908746 L -11.588 -1.05983 L -11.6646 -1.21075 L -11.7395 -1.3615 L -11.8127 -1.51205 L -11.8843 -1.6624 L -11.9543 -1.81252 L -12.0227 -1.9624 L -12.0896 -2.11204 L -12.1551 -2.26141 L -12.219 -2.41052 L -12.2816 -2.55935 L -12.3428 -2.70789 L -12.4027 -2.85614 L -12.4612 -3.00409 L -12.5184 -3.15172 L -12.5793 -3.28028 L -12.5561 -3.36817 L -12.5322 -3.45589 L -12.5078 -3.54344 L -12.4827 -3.63082 L -12.457 -3.71802 L -12.4307 -3.80504 L -12.4038 -3.89188 L -12.3762 -3.97852 L -12.3481 -4.06497 L -12.3194 -4.15122 L -12.2901 -4.23727 L -12.2601 -4.32311 L -12.1706 -4.56897 L -12.1384 -4.65396 L -12.1056 -4.73873 L -12.0721 -4.82327 L -12.0381 -4.90757 L -12.0035 -4.99163 L -11.9683 -5.07545 L -11.9325 -5.15902 L -11.8961 -5.24234 L -11.8592 -5.3254 L -11.8216 -5.4082 L -11.7835 -5.49074 L -11.7449 -5.573 L -11.6156 -5.63234 L -11.4768 -5.70863 L -11.3369 -5.78434 L -11.1957 -5.85944 L -11.0534 -5.93389 L -10.9098 -6.00768 L -10.7649 -6.08078 L -10.6188 -6.15315 L -10.4713 -6.22477 L -10.3226 -6.2956 L -10.1725 -6.36561 L -10.021 -6.43477 L -9.86813 -6.50303 L -9.71386 -6.57037 L -9.55817 -6.63674 L -9.40102 -6.70211 L -9.24241 -6.76643 L -9.0823 -6.82965 L -8.92067 -6.89174 L -8.75751 -6.95263 L -8.59279 -7.01229 L -8.42649 -7.07066 L -8.42649 -7.07066 L -8.39788 -7.24457 L -8.36773 -7.41715 L -8.33609 -7.58841 L -8.30302 -7.75836 L -8.26856 -7.92701 L -8.23276 -8.09439 L -8.19568 -8.2605 L -8.15735 -8.42535 L -8.11782 -8.58897 L -8.07713 -8.75136 L -8.03533 -8.91255 L -7.99245 -9.07253 L -7.94853 -9.23134 L -7.9036 -9.38898 L -7.85771 -9.54547 L -7.81088 -9.70082 L -7.76315 -9.85505 L -7.71454 -10.0082 L -7.66509 -10.1602 L -7.61484 -10.3112 L -7.56379 -10.4611 L -7.52781 -10.5987 L -7.45351 -10.6511 L -7.37884 -10.7029 L -7.30382 -10.7543 L -7.22844 -10.8051 L -7.1527 -10.8554 L -7.07661 -10.9051 L -7.00018 -10.9543 L -6.92341 -11.003 L -6.8463 -11.0512 L -6.76885 -11.0988 L -6.69107 -11.1458 L -6.61296 -11.1924 L -6.38638 -11.3232 L -6.30704 -11.3676 L -6.22739 -11.4114 L -6.14744 -11.4546 L -6.06719 -11.4974 L -5.98664 -11.5395 L -5.9058 -11.5811 L -5.82467 -11.6221 L -5.74325 -11.6625 L -5.66156 -11.7024 L -5.57958 -11.7417 L -5.49734 -11.7805 L -5.41482 -11.8186 L -5.27764 -11.781 L -5.12231 -11.7502 L -4.96645 -11.7183 L -4.81006 -11.6851 L -4.65315 -11.6506 L -4.49572 -11.6148 L -4.33776 -11.5777 L -4.17929 -11.5392 L -4.02031 -11.4993 L -3.86082 -11.4579 L -3.70083 -11.4151 L -3.54034 -11.3707 L -3.37936 -11.3247 L -3.2179 -11.2771 L -3.05596 -11.2279 L -2.89357 -11.177 L -2.73072 -11.1243 L -2.56743 -11.0698 L -2.40371 -11.0135 L -2.23957 -10.9552 L -2.07504 -10.8951 L -1.91013 -10.8329 L -1.91013 -10.8329 L -1.77643 -10.9477 L -1.6424 -11.0605 L -1.50808 -11.1714 L -1.3735 -11.2803 L -1.2387 -11.3874 L -1.10369 -11.4926 L -0.968506 -11.596 L -0.833177 -11.6976 L -0.697726 -11.7976 L -0.562175 -11.8958 L -0.426546 -11.9924 L -0.29086 -12.0874 L -0.155136 -12.1808 L -0.0193925 -12.2727 L 0.116354 -12.3631 L 0.252086 -12.452 L 0.387789 -12.5395 L 0.523449 -12.6255 L 0.659052 -12.7102 L 0.794585 -12.7935 L 0.930036 -12.8755 L 1.04607 -12.9578 L 1.13665 -12.9502 L 1.22719 -12.9419 L 1.31766 -12.933 L 1.40807 -12.9235 L 1.49841 -12.9134 L 1.58867 -12.9026 L 1.67886 -12.8911 L 1.76897 -12.8791 L 1.85898 -12.8664 L 1.94891 -12.8531 L 2.03875 -12.8391 L 2.12848 -12.8246 L 2.38614 -12.7791 L 2.47545 -12.7621 L 2.56463 -12.7445 L 2.65369 -12.7263 L 2.74262 -12.7074 L 2.83142 -12.6879 L 2.92007 -12.6678 L 3.00859 -12.6471 L 3.09695 -12.6257 L 3.18517 -12.6038 L 3.27323 -12.5812 L 3.36113 -12.558 L 3.44886 -12.5342 L 3.52975 -12.4171 L 3.62898 -12.2938 L 3.72784 -12.1691 L 3.8263 -12.0431 L 3.92435 -11.9159 L 4.02195 -11.7873 L 4.11909 -11.6573 L 4.21574 -11.5259 L 4.31187 -11.3932 L 4.40746 -11.259 L 4.50247 -11.1233 L 4.59688 -10.9861 L 4.69065 -10.8475 L 4.78376 -10.7072 L 4.87616 -10.5654 L 4.96782 -10.422 L 5.0587 -10.277 L 5.14877 -10.1303 L 5.23798 -9.98188 L 5.32628 -9.83177 L 5.41364 -9.67992 L 5.5 -9.52628 L 5.5 -9.52628 L 5.67623 -9.52831 L 5.85143 -9.52858 L 6.02558 -9.52716 L 6.19869 -9.5241 L 6.37077 -9.51945 L 6.54181 -9.51326 L 6.71184 -9.50559 L 6.88085 -9.49647 L 7.04884 -9.48595 L 7.21583 -9.47408 L 7.38182 -9.4609 L 7.54683 -9.44645 L 7.71085 -9.43078 L 7.87389 -9.41391 L 8.03597 -9.39588 L 8.1971 -9.37674 L 8.35727 -9.35652 L 8.51651 -9.33524 L 8.67482 -9.31295 L 8.83221 -9.28966 L 8.98869 -9.26542 L 9.13047 -9.25389 L 9.19496 -9.18981 L 9.259 -9.12529 L 9.32259 -9.06032 L 9.38572 -8.9949 L 9.44839 -8.92905 L 9.5106 -8.86276 L 9.57234 -8.79603 L 9.63362 -8.72888 L 9.69443 -8.6613 L 9.75476 -8.5933 L 9.81461 -8.52487 L 9.87398 -8.45603 L 10.0422 -8.2556 L 10.0996 -8.18518 L 10.1566 -8.11435 L 10.2131 -8.04313 L 10.2691 -7.97151 L 10.3246 -7.8995 L 10.3796 -7.82711 L 10.4341 -7.75434 L 10.4881 -7.68118 L 10.5415 -7.60765 L 10.5945 -7.53375 L 10.6469 -7.45948 L 10.6988 -7.38484 L 10.6855 -7.24321 L 10.6822 -7.0849 L 10.6778 -6.92585 L 10.6723 -6.76608 L 10.6656 -6.60557 L 10.6577 -6.44431 L 10.6486 -6.28231 L 10.6382 -6.11956 L 10.6265 -5.95606 L 10.6134 -5.79181 L 10.599 -5.62681 L 10.5832 -5.46105 L 10.5659 -5.29454 L 10.547 -5.12727 L 10.5267 -4.95924 L 10.5047 -4.79047 L 10.4811 -4.62094 L 10.4558 -4.45067 L 10.4288 -4.27966 L 10.3999 -4.10791 L 10.3692 -3.93543 L 10.3366 -3.76222 L 10.3366 -3.76222 L 10.4729 -3.65049 L 10.6073 -3.53809 L 10.7398 -3.42506 L 10.8704 -3.31145 L 10.9993 -3.19727 L 11.1263 -3.08259 L 11.2516 -2.96741 L 11.3752 -2.85179 L 11.4972 -2.73575 L 11.6175 -2.61932 L 11.7362 -2.50253 L 11.8533 -2.3854 L 11.9688 -2.26796 L 12.0829 -2.15023 L 12.1955 -2.03224 L 12.3066 -1.91401 L 12.4163 -1.79556 L 12.5246 -1.6769 L 12.6315 -1.55806 L 12.7371 -1.43906 L 12.8414 -1.31991 L 12.9426 -1.21993 L 12.9508 -1.1294 L 12.9584 -1.0388 L 12.9654 -0.948161 L 12.9717 -0.857471 L 12.9774 -0.76674 L 12.9824 -0.675971 L 12.9868 -0.585169 L 12.9906 -0.494339 L 12.9937 -0.403484 L 12.9962 -0.312609 L 12.9981 -0.22172 L 12.9993 -0.130819Z"
id="path1" />
</g>
</svg>
