<?xml version="1.0" encoding="UTF-8" standalone="no"?>
<svg version="1.1">
<g
style="fill:none;stroke:#000000;stroke-opacity:1;stroke-width:0.1">
<path d="M 13.2493 0.134617 L 13.2481 0.221565 L 13.2464 0.308504 L 13.2441 0.39543 L 13.2412 0.482338 L 13.2378 0.569226 L 13.2337 0.65609 L 13.2292 0.742925 L 13.224 0.829728 L 13.2183 0.916495 L 13.212 1.00322 L 13.2051 1.08991 L 13.1977 1.17655 L 13.1024 1.26191 L 13.0047 1.36456 L 12.906 1.46711 L 12.8063 1.56955 L 12.7057 1.67188 L 12.604 1.77406 L 12.5013 1.8761 L 12.3975 1.97798 L 12.2927 2.07969 L 12.1868 2.18122 L 12.0797 2.28254 L 11.9715 2.38365 L 11.8622 2.48453 L 11.7516 2.58516 L 11.6399 2.68552 L 11.5269 2.7856 L 11.4126 2.88538 L 11.2971 2.98483 L 11.1803 3.08393 L 11.0621 3.18267 L 10.9426 3.28102 L 10.8217 3.37895 L 10.6994 3.47644 L 10.6994 3.47644 L 10.741 3.62721 L 10.7813 3.7775 L 10.8202 3.92732 L 10.8577 4.07666 L 10.894 4.2255 L 10.929 4.37386 L 10.9628 4.52173 L 10.9954 4.66911 L 11.0268 4.81599 L 11.0571 4.96238 L 11.0862 5.10827 L 11.1143 5.25366 L 11.1414 5.39856 L 11.1674 5.54296 L 11.1925 5.68687 L 11.2165 5.83029 L 11.2396 5.97321 L 11.2618 6.11564 L 11.2831 6.25759 L 11.3035 6.39904 L 11.3231 6.54001 L 11.3418 6.6805 L 11.3687 6.80554 L 11.3238 6.88001 L 11.2784 6.95417 L 11.2325 7.02804 L 11.1861 7.10161 L 11.1393 7.17486 L 11.092 7.24781 L 11.0442 7.32045 L 10.9959 7.39277 L 10.9471 7.46478 L 10.8979 7.53646 L 10.8482 7.60782 L 10.798 7.67885 L 10.6398 7.89666 L 10.5877 7.96632 L 10.5352 8.03563 L 10.4823 8.1046 L 10.4289 8.17321 L 10.375 8.24148 L 10.3207 8.30939 L 10.2659 8.37694 L 10.2107 8.44413 L 10.1551 8.51096 L 10.099 8.57742 L 10.0425 8.64352 L 9.98558 8.70924 L 9.85835 8.72231 L 9.71895 8.74792 L 9.57883 8.77288 L 9.43799 8.79718 L 9.29642 8.82079 L 9.1541 8.8437 L 9.01103 8.86589 L 8.8672 8.88732 L 8.7226 8.90798 L 8.57722 8.92785 L 8.43105 8.9469 L 8.28409 8.9651 L 8.13632 8.98243 L 7.98774 8.99887 L 7.83834 9.01438 L 7.68811 9.02893 L 7.53704 9.0425 L 7.38513 9.05506 L 7.23236 9.06657 L 7.07872 9.07699 L 6.92422 9.0863 L 6.76885 9.09447 L 6.61258 9.10144 L 6.61258 9.10144 L 6.55766 9.2479 L 6.50189 9.39315 L 6.44529 9.53721 L 6.3879 9.6801 L 6.32974 9.82184 L 6.27086 9.96244 L 6.21127 10.1019 L 6.151 10.2403 L 6.09008 10.3776 L 6.02854 10.5138 L 5.96639 10.649 L 5.90367 10.7831 L 5.84038 10.9163 L 5.77656 11.0484 L 5.71223 11.1795 L 5.6474 11.3097 L 5.58209 11.4389 L 5.51632 11.5672 L 5.45012 11.6945 L 5.38348 11.821 L 5.31644 11.9465 L 5.24901 12.0712 L 5.19726 12.1881 L 5.11716 12.222 L 5.03684 12.2553 L 4.95631 12.2881 L 4.87556 12.3204 L 4.7946 12.3521 L 4.71343 12.3833 L 4.63206 12.414 L 4.55049 12.4441 L 4.46873 12.4737 L 4.38677 12.5027 L 4.30462 12.5313 L 4.22229 12.5592 L 3.96624 12.6424 L 3.88318 12.6682 L 3.79996 12.6934 L 3.71658 12.7181 L 3.63303 12.7422 L 3.54933 12.7658 L 3.46547 12.7888 L 3.38147 12.8113 L 3.29732 12.8332 L 3.21303 12.8545 L 3.1286 12.8753 L 3.04404 12.8956 L 2.95934 12.9153 L 2.84873 12.8511 L 2.7209 12.7899 L 2.59287 12.7277 L 2.46464 12.6646 L 2.33623 12.6005 L 2.20762 12.5354 L 2.07884 12.4692 L 1.94988 12.402 L 1.82075 12.3337 L 1.69146 12.2643 L 1.56201 12.1938 L 1.43241 12.1222 L 1.30268 12.0494 L 1.17282 11.9753 L 1.04283 11.9 L 0.912738 11.8235 L 0.782544 11.7457 L 0.652262 11.6666 L 0.521905 11.5861 L 0.391485 11.5042 L 0.261018 11.4209 L 0.130517 11.3362 L 0 11.25 L 1.37773e-15 11.25 L -0.130517 11.3362 L -0.261018 11.4209 L -0.391485 11.5042 L -0.521905 11.5861 L -0.652262 11.6666 L -0.782544 11.7457 L -0.912738 11.8235 L -1.04283 11.9 L -1.17282 11.9753 L -1.30268 12.0494 L -1.43241 12.1222 L -1.56201 12.1938 L -1.69146 12.2643 L -1.82075 12.3337 L -1.94988 12.402 L -2.07884 12.4692 L -2.20762 12.5354 L -2.33623 12.6005 L -2.46464 12.6646 L -2.59287 12.7277 L -2.7209 12.7899 L -2.84873 12.8511 L -2.95934 12.9153 L -3.04404 12.8956 L -3.1286 12.8753 L -3.21303 12.8545 L -3.29732 12.8332 L -3.38147 12.8113 L -3.46547 12.7888 L -3.54933 12.7658 L -3.63303 12.7422 L -3.71658 12.7181 L -3.79996 12.6934 L -3.88318 12.6682 L -3.96624 12.6424 L -4.22229 12.5592 L -4.30462 12.5313 L -4.38677 12.5027 L -4.46873 12.4737 L -4.55049 12.4441 L -4.63206 12.414 L -4.71343 12.3833 L -4.7946 12.3521 L -4.87556 12.3204 L -4.95631 12.2881 L -5.03684 12.2553 L -5.11716 12.222 L -5.19726 12.1881 L -5.24901 12.0712 L -5.31644 11.9465 L -5.38348 11.821 L -5.45012 11.6945 L -5.51632 11.5672 L -5.58209 11.4389 L -5.6474 11.3097 L -5.71223 11.1795 L -5.77656 11.0484 L -5.84038 10.9163 L -5.90367 10.7831 L -5.96639 10.649 L -6.02854 10.5138 L -6.09008 10.3776 L -6.151 10.2403 L -6.21127 10.1019 L -6.27086 9.96244 L -6.32974 9.82184 L -6.3879 9.6801 L -6.44529 9.53721 L -6.50189 9.39315 L -6.55766 9.2479 L -6.61258 9.10144 L -6.61258 9.10144 L -6.76885 9.09447 L -6.92422 9.0863 L -7.07872 9.07699 L -7.23236 9.06657 L -7.38513 9.05506 L -7.53704 9.0425 L -7.68811 9.02893 L -7.83834 9.01438 L -7.98774 8.99887 L -8.13632 8.98243 L -8.28409 8.9651 L -8.43105 8.9469 L -8.57722 8.92785 L -8.7226 8.90798 L -8.8672 8.88732 L -9.01103 8.86589 L -9.1541 8.8437 L -9.29642 8.82079 L -9.43799 8.79718 L -9.57883 8.77288 L -9.71895 8.74792 L -9.85835 8.72231 L -9.98558 8.70924 L -10.0425 8.64352 L -10.099 8.57742 L -10.1551 8.51096 L -10.2107 8.44413 L -10.2659 8.37694 L -10.3207 8.30939 L -10.375 8.24148 L -10.4289 8.17321 L -10.4823 8.1046 L -10.5352 8.03563 L -10.5877 7.96632 L -10.6398 7.89666 L -10.798 7.67885 L -10.8482 7.60782 L -10.8979 7.53646 L -10.9471 7.46478 L -10.9959 7.39277 L -11.0442 7.32045 L -11.092 7.24781 L -11.1393 7.17486 L -11.1861 7.10161 L -11.2325 7.02804 L -11.2784 6.95417 L -11.3238 6.88001 L -11.3687 6.80554 L -11.3418 6.6805 L -11.3231 6.54001 L -11.3035 6.39904 L -11.2831 6.25759 L -11.2618 6.11564 L -11.2396 5.97321 L -11.2165 5.83029 L -11.1925 5.68687 L -11.1674 5.54296 L -11.1414 5.39856 L -11.1143 5.25366 L -11.0862 5.10827 L -11.0571 4.96238 L -11.0268 4.81599 L -10.9954 4.66911 L -10.9628 4.52173 L -10.929 4.37386 L -10.894 4.2255 L -10.8577 4.07666 L -10.8202 3.92732 L -10.7813 3.7775 L -10.741 3.62721 L -10.6994 3.47644 L -10.6994 3.47644 L -10.8217 3.37895 L -10.9426 3.28102 L -11.0621 3.18267 L -11.1803 3.08393 L -11.2971 2.98483 L -11.4126 2.88538 L -11.5269 2.7856 L -11.6399 2.68552 L -11.7516 2.58516 L -11.8622 2.48453 L -11.9715 2.38365 L -12.0797 2.28254 L -12.1868 2.18122 L -12.2927 2.07969 L -12.3975 1.97798 L -12.5013 1.8761 L -12.604 1.77406 L -12.7057 1.67188 L -12.8063 1.56955 L -12.906 1.46711 L -13.0047 1.36456 L -13.1024 1.26191 L -13.1977 1.17655 L -13.2051 1.08991 L -13.212 1.00322 L -13.2183 0.916495 L -13.224 0.829728 L -13.2292 0.742925 L -13.2337 0.65609 L -13.2378 0.569226 L -13.2412 0.482338 L -13.2441 0.39543 L -13.2464 0.308504 L -13.2481 0.221565 L -13.2493 0.134617 L -13.2493 -0.134617 L -13.2481 -0.221565 L -13.2464 -0.308504 L -13.2441 -0.39543 L -13.2412 -0.482338 L -13.2378 -0.569226 L -13.2337 -0.65609 L -13.2292 -0.742925 L -13.224 -0.829728 L -13.2183 -0.916495 L -13.212 -1.00322 L -13.2051 -1.08991 L -13.1977 -1.17655 L -13.1024 -1.26191 L -13.0047 -1.36456 L -12.906 -1.46711 L -12.8063 -1.56955 L -12.7057 -1.67188 L -12.604 -1.77406 L -12.5013 -1.8761 L -12.3975 -1.97798 L -12.2927 -2.07969 L -12.1868 -2.18122 L -12.0797 -2.28254 L -11.9715 -2.38365 L -11.8622 -2.48453 L -11.7516 -2.58516 L -11.6399 -2.68552 L -11.5269 -2.7856 L -11.4126 -2.88538 L -11.2971 -2.98483 L -11.1803 -3.08393 L -11.0621 -3.18267 L -10.9426 -3.28102 L -10.8217 -3.37895 L -10.6994 -3.47644 L -10.6994 -3.47644 L -10.741 -3.62721 L -10.7813 -3.7775 L -10.8202 -3.92732 L -10.8577 -4.07666 L -10.894 -4.2255 L -10.929 -4.37386 L -10.9628 -4.52173 L -10.9954 -4.66911 L -11.0268 -4.81599 L -11.0571 -4.96238 L -11.0862 -5.10827 L -11.1143 -5.25366 L -11.1414 -5.39856 L -11.1674 -5.54296 L -11.1925 -5.68687 L -11.2165 -5.83029 L -11.2396 -5.97321 L -11.2618 -6.11564 L -11.2831 -6.25759 L -11.3035 -6.39904 L -11.3231 -6.54001 L -11.3418 -6.6805 L -11.3687 -6.80554 L -11.3238 -6.88001 L -11.2784 -6.95417 L -11.2325 -7.02804 L -11.1861 -7.10161 L -11.1393 -7.17486 L -11.092 -7.24781 L -11.0442 -7.32045 L -10.9959 -7.39277 L -10.9471 -7.46478 L -10.8979 -7.53646 L -10.8482 -7.60782 L -10.798 -7.67885 L -10.6398 -7.89666 L -10.5877 -7.96632 L -10.5352 -8.03563 L -10.4823 -8.1046 L -10.4289 -8.17321 L -10.375 -8.24148 L -10.3207 -8.30939 L -10.2659 -8.37694 L -10.2107 -8.44413 L -10.1551 -8.51096 L -10.099 -8.57742 L -10.0425 -8.64352 L -9.98558 -8.70924 L -9.85835 -8.72231 L -9.71895 -8.74792 L -9.57883 -8.77288 L -9.43799 -8.79718 L -9.29642 -8.82079 L -9.1541 -8.8437 L -9.01103 -8.86589 L -8.8672 -8.88732 L -8.7226 -8.90798 L -8.57722 -8.92785 L -8.43105 -8.9469 L -8.28409 -8.9651 L -8.13632 -8.98243 L -7.98774 -8.99887 L -7.83834 -9.01438 L -7.68811 -9.02893 L -7.53704 -9.0425 L -7.38513 -9.05506 L -7.23236 -9.06657 L -7.07872 -9.07699 L -6.92422 -9.0863 L -6.76885 -9.09447 L -6.61258 -9.10144 L -6.61258 -9.10144 L -6.55766 -9.2479 L -6.50189 -9.39315 L -6.44529 -9.53721 L -6.3879 -9.6801 L -6.32974 -9.82184 L -6.27086 -9.96244 L -6.21127 -10.1019 L -6.151 -10.2403 L -6.09008 -10.3776 L -6.02854 -10.5138 L -5.96639 -10.649 L -5.90367 -10.7831 L -5.84038 -10.9163 L -5.77656 -11.0484 L -5.71223 -11.1795 L -5.6474 -11.3097 L -5.58209 -11.4389 L -5.51632 -11.5672 L -5.45012 -11.6945 L -5.38348 -11.821 L -5.31644 -11.9465 L -5.24901 -12.0712 L -5.19726 -12.1881 L -5.11716 -12.222 L -5.03684 -12.2553 L -4.95631 -12.2881 L -4.87556 -12.3204 L -4.7946 -12.3521 L -4.71343 -12.3833 L -4.63206 -12.414 L -4.55049 -12.4441 L -4.46873 -12.4737 L -4.38677 -12.5027 L -4.30462 -12.5313 L -4.22229 -12.5592 L -3.96624 -12.6424 L -3.88318 -12.6682 L -3.79996 -12.6934 L -3.71658 -12.7181 L -3.63303 -12.7422 L -3.54933 -12.7658 L -3.46547 -12.7888 L -3.38147 -12.8113 L -3.29732 -12.8332 L -3.21303 -12.8545 L -3.1286 -12.8753 L -3.04404 -12.8956 L -2.95934 -12.9153 L -2.84873 -12.8511 L -2.7209 -12.7899 L -2.59287 -12.7277 L -2.46464 -12.6646 L -2.33623 -12.6005 L -2.20762 -12.5354 L -2.07884 -12.4692 L -1.94988 -12.402 L -1.82075 -12.3337 L -1.69146 -12.2643 L -1.56201 -12.1938 L -1.43241 -12.1222 L -1.30268 -12.0494 L -1.17282 -11.9753 L -1.04283 -11.9 L -0.912738 -11.8235 L -0.782544 -11.7457 L -0.652262 -11.6666 L -0.521905 -11.5861 L -0.391485 -11.5042 L -0.261018 -11.4209 L -0.130517 -11.3362 L -1.33227e-15 -11.25 L -2.80092e-15 -11.25 L 0.130517 -11.3362 L 0.261018 -11.4209 L 0.391485 -11.5042 L 0.521905 -11.5861 L 0.652262 -11.6666 L 0.782544 -11.7457 L 0.912738 -11.8235 L 1.04283 -11.9 L 1.17282 -11.9753 L 1.30268 -12.0494 L 1.43241 -12.1222 L 1.56201 -12.1938 L 1.69146 -12.2643 L 1.82075 -12.3337 L 1.94988 -12.402 L 2.07884 -12.4692 L 2.20762 -12.5354 L 2.33623 -12.6005 L 2.46464 -12.6646 L 2.59287 -12.7277 L 2.7209 -12.7899 L 2.84873 -12.8511 L 2.95934 -12.9153 L 3.04404 -12.8956 L 3.1286 -12.8753 L 3.21303 -12.8545 L 3.29732 -12.8332 L 3.38147 -12.8113 L 3.46547 -12.7888 L 3.54933 -12.7658 L 3.63303 -12.7422 L 3.71658 -12.7181 L 3.79996 -12.6934 L 3.88318 -12.6682 L 3.96624 -12.6424 L 4.22229 -12.5592 L 4.30462 -12.5313 L 4.38677 -12.5027 L 4.46873 -12.4737 L 4.55049 -12.4441 L 4.63206 -12.414 L 4.71343 -12.3833 L 4.7946 -12.3521 L 4.87556 -12.3204 L 4.95631 -12.2881 L 5.03684 -12.2553 L 5.11716 -12.222 L 5.19726 -12.1881 L 5.24901 -12.0712 L 5.31644 -11.9465 L 5.38348 -11.821 L 5.45012 -11.6945 L 5.51632 -11.5672 L 5.58209 -11.4389 L 5.6474 -11.3097 L 5.71223 -11.1795 L 5.77656 -11.0484 L 5.84038 -10.9163 L 5.90367 -10.7831 L 5.96639 -10.649 L 6.02854 -10.5138 L 6.09008 -10.3776 L 6.151 -10.2403 L 6.21127 -10.1019 L 6.27086 -9.96244 L 6.32974 -9.82184 L 6.3879 -9.6801 L 6.44529 -9.53721 L 6.50189 -9.39315 L 6.55766 -9.2479 L 6.61258 -9.10144 L 6.61258 -9.10144 L 6.76885 -9.09447 L 6.92422 -9.0863 L 7.07872 -9.07699 L 7.23236 -9.06657 L 7.38513 -9.05506 L 7.53704 -9.0425 L 7.68811 -9.02893 L 7.83834 -9.01438 L 7.98774 -8.99887 L 8.13632 -8.98243 L 8.28409 -8.9651 L 8.43105 -8.9469 L 8.57722 -8.92785 L 8.7226 -8.90798 L 8.8672 -8.88732 L 9.01103 -8.86589 L 9.1541 -8.8437 L 9.29642 -8.82079 L 9.43799 -8.79718 L 9.57883 -8.77288 L 9.71895 -8.74792 L 9.85835 -8.72231 L 9.98558 -8.70924 L 10.0425 -8.64352 L 10.099 -8.57742 L 10.1551 -8.51096 L 10.2107 -8.44413 L 10.2659 -8.37694 L 10.3207 -8.30939 L 10.375 -8.24148 L 10.4289 -8.17321 L 10.4823 -8.1046 L 10.5352 -8.03563 L 10.5877 -7.96632 L 10.6398 -7.89666 L 10.798 -7.67885 L 10.8482 -7.60782 L 10.8979 -7.53646 L 10.9471 -7.46478 L 10.9959 -7.39277 L 11.0442 -7.32045 L 11.092 -7.24781 L 11.1393 -7.17486 L 11.1861 -7.10161 L 11.2325 -7.02804 L 11.2784 -6.95417 L 11.3238 -6.88001 L 11.3687 -6.80554 L 11.3418 -6.6805 L 11.3231 -6.54001 L 11.3035 -6.39904 L 11.2831 -6.25759 L 11.2618 -6.11564 L 11.2396 -5.97321 L 11.2165 -5.83029 L 11.1925 -5.68687 L 11.1674 -5.54296 L 11.1414 -5.39856 L 11.1143 -5.25366 L 11.0862 -5.10827 L 11.0571 -4.96238 L 11.0268 -4.81599 L 10.9954 -4.66911 L 10.9628 -4.52173 L 10.929 -4.37386 L 10.894 -4.2255 L 10.8577 -4.07666 L 10.8202 -3.92732 L 10.7813 -3.7775 L 10.741 -3.62721 L 10.6994 -3.47644 L 10.6994 -3.47644 L 10.8217 -3.37895 L 10.9426 -3.28102 L 11.0621 -3.18267 L 11.1803 -3.08393 L 11.2971 -2.98483 L 11.4126 -2.88538 L 11.5269 -2.7856 L 11.6399 -2.68552 L 11.7516 -2.58516 L 11.8622 -2.48453 L 11.9715 -2.38365 L 12.0797 -2.28254 L 12.1868 -2.18122 L 12.2927 -2.07969 L 12.3975 -1.97798 L 12.5013 -1.8761 L 12.604 -1.77406 L 12.7057 -1.67188 L 12.8063 -1.56955 L 12.906 -1.46711 L 13.0047 -1.36456 L 13.1024 -1.26191 L 13.1977 -1.17655 L 13.2051 -1.08991 L 13.212 -1.00322 L 13.2183 -0.916495 L 13.224 -0.829728 L 13.2292 -0.742925 L 13.2337 -0.65609 L 13.2378 -0.569226 L 13.2412 -0.482338 L 13.2441 -0.39543 L 13.2464 -0.308504 L 13.2481 -0.221565 L 13.2493 -0.134617Z"
id="path1" />
</g>
</svg>
